<svg width="48" height="48" viewBox="0 0 48 48" fill="none" xmlns="http://www.w3.org/2000/svg">
<path d="M27.732 24.4322C27.7023 24.7077 27.6793 24.9525 27.653 25.1974C27.597 25.7041 27.4127 25.7993 26.9585 25.5715C26.6754 25.4286 26.3858 25.3028 26.0962 25.177C25.9349 25.1056 25.8263 25.1226 25.7144 25.3164C25.6354 25.4558 25.4313 25.5987 25.2832 25.5987C25.1581 25.5987 24.9672 25.4218 24.9146 25.2824C24.6085 24.473 24.8224 23.7385 25.3161 23.0822C25.4379 22.9189 25.4807 22.7965 25.4247 22.5992C25.3425 22.2966 25.303 21.9837 25.2305 21.5892C25.1252 21.8171 25.0462 21.9701 24.9837 22.1333C24.3616 23.7827 23.7626 25.4422 23.1142 27.0814C22.7127 28.0982 22.242 29.0878 21.801 30.091C21.7746 30.1488 21.7516 30.21 21.7022 30.3325C21.801 30.2644 21.8536 30.2407 21.8931 30.1998C23.7462 28.3227 26.0007 27.2004 28.4725 26.5373C29.8944 26.1564 31.3557 25.9285 32.7941 25.5953C33.6432 25.398 34.4726 25.1328 35.3119 24.8981C35.3383 24.8913 35.3646 24.8777 35.3909 24.8675C35.6016 24.8029 35.8056 24.7655 35.9867 24.9491C36.1743 25.1396 36.1743 25.3572 36.0854 25.5851C35.5325 26.9828 35.0223 28.4043 34.4035 29.7679C33.5971 31.5431 32.5538 33.1721 31.2504 34.6106C30.0425 35.9402 28.6503 36.9673 26.8762 37.2767C26.0501 37.4196 25.1976 37.44 24.3583 37.4434C22.2157 37.457 20.0829 37.5284 17.9731 37.9875C17.2787 38.1405 16.7948 38.4534 16.3768 39.0553C14.3823 41.9357 12.1573 44.6155 9.67238 47.0572C9.47819 47.2476 9.28729 47.4448 9.07994 47.6217C8.85613 47.8155 8.41179 47.8393 8.18469 47.6931C7.95759 47.5469 7.80948 47.1796 7.91151 46.8803C7.98063 46.6831 8.11557 46.496 8.26039 46.343C9.03715 45.52 9.79745 44.6801 10.6137 43.8979C12.5161 42.0649 13.5529 39.7252 14.3296 37.2325C14.5798 36.4265 14.7213 35.5798 14.9188 34.7568C14.9912 34.4609 14.899 34.2161 14.7575 33.9712C14.1387 32.917 13.3159 32.0532 12.3976 31.2813C11.6373 30.6419 10.8606 30.0162 10.1101 29.3633C8.01025 27.5337 6.86157 25.1634 6.3942 22.3986C5.93671 19.6984 6.02228 17.0017 6.36458 14.3015C6.46003 13.5534 6.57193 12.8052 6.68055 12.057C6.69371 11.9618 6.71017 11.8666 6.7365 11.7782C6.86486 11.3599 7.24008 11.2477 7.55934 11.5435C7.98063 11.9346 8.35913 12.3767 8.81334 12.7202C9.90935 13.5534 11.0284 14.3559 12.1573 15.1415C13.6516 16.1821 15.0274 17.3383 16.0444 18.9061C17.2853 20.8207 17.9962 22.9325 18.3484 25.194C18.8519 28.4451 18.3681 31.5805 17.2853 34.6412C17.2095 34.852 17.1141 35.0561 17.0779 35.2941C17.282 34.9608 17.4827 34.6242 17.6868 34.2909C19.757 30.8834 21.3303 27.2412 22.5382 23.4222C23.3084 20.9839 24.1049 18.5524 25.2009 16.2433C26.8729 12.7134 28.9169 9.4419 31.5137 6.56149C32.5571 5.40185 33.6564 4.30001 34.9861 3.49064C35.3021 3.2968 35.6444 3.13698 35.9932 3.01796C37.0794 2.64388 38.1129 2.97034 38.8238 3.89873C39.3142 4.54147 39.5808 5.27603 39.5973 6.099C39.6038 6.38466 39.5084 6.6227 39.2648 6.78593C38.8205 7.08519 38.3005 6.84034 38.2577 6.29623C38.2149 5.75211 38.1063 5.23861 37.7804 4.78972C37.3855 4.249 36.9576 4.10957 36.3454 4.35782C35.6016 4.65708 34.9696 5.14339 34.3739 5.6841C33.788 6.21462 33.2219 6.76554 32.6492 7.30965C32.6163 7.34026 32.5933 7.38107 32.5275 7.45929C33.0541 7.30285 33.528 7.15662 34.0053 7.02739C34.9565 6.76553 35.9241 6.66011 36.8984 6.78934C38.7711 7.03759 40.0251 8.26525 40.4234 10.2173C40.5024 10.6083 40.5452 11.0096 40.5814 11.4109C40.5978 11.5809 40.6439 11.6728 40.7887 11.7714C41.5062 12.2475 41.8354 12.965 41.9177 13.8152C41.9506 14.1621 41.7399 14.3253 41.3976 14.2165C41.1903 14.1519 41.0027 14.0193 40.8019 13.9138C40.6768 14.2165 40.5616 14.526 40.4234 14.8252C40.272 15.1517 40.0712 15.1891 39.8112 14.951C39.5709 14.7266 39.3372 14.4953 39.1003 14.2641C38.916 14.0873 38.7448 14.0805 38.5309 14.2403C38.4222 14.3219 38.2445 14.3797 38.1162 14.3491C37.9088 14.3015 37.8166 14.1077 37.8134 13.8866C37.7969 12.9412 38.1853 12.2203 38.9851 11.7612C39.1694 11.6558 39.2451 11.5435 39.2023 11.3361C39.1068 10.86 39.0608 10.3669 38.9094 9.90778C38.5407 8.78895 37.7245 8.23805 36.6054 8.13943C35.3975 8.03401 34.2488 8.31966 33.1265 8.74474C32.8862 8.83656 32.6459 8.92158 32.4254 8.9998C32.8434 9.15963 33.2878 9.28547 33.6893 9.49631C34.7458 10.0506 35.3547 10.9994 35.674 12.1421C35.8287 12.6998 35.878 13.2881 35.9867 13.8594C36.0097 13.9716 36.0722 14.1179 36.1578 14.1689C36.8194 14.5736 37.2176 15.1789 37.4019 15.9305C37.448 16.1175 37.4118 16.3896 37.3065 16.5358C37.1617 16.7364 36.9148 16.6106 36.714 16.5324C36.6285 16.4984 36.5495 16.4508 36.4442 16.3963C36.3092 16.7024 36.1841 16.9983 36.0492 17.2907C35.8978 17.6206 35.7661 17.6376 35.5028 17.3996C35.2461 17.1683 34.9762 16.9473 34.703 16.733C34.5418 16.6072 34.3739 16.5868 34.206 16.7602C34.0579 16.9133 33.844 17.0561 33.663 16.903C33.528 16.7874 33.4326 16.5562 33.4194 16.3658C33.3569 15.4612 33.7025 14.7504 34.443 14.2437C34.522 14.1893 34.5944 14.0465 34.5878 13.9512C34.5418 13.1997 34.3969 12.4719 34.0645 11.7952C33.324 10.2921 31.4084 9.87037 30.1873 10.9892C29.6442 11.4857 29.2065 12.1013 28.726 12.659C28.7885 12.7338 28.8049 12.7678 28.8247 12.7746C29.9306 13.0296 30.5889 13.8016 31.0398 14.815C31.3623 15.536 31.517 16.3045 31.573 17.0901C31.5861 17.2669 31.6355 17.3519 31.8001 17.42C32.5307 17.7226 32.9553 18.5796 32.8072 19.3584C32.7941 19.4366 32.8829 19.5726 32.9586 19.6236C33.4918 19.9569 33.8736 20.4262 34.1435 20.9975C34.1797 21.0757 34.2126 21.1539 34.2324 21.239C34.3114 21.5858 34.1995 21.7355 33.8572 21.7185C33.6465 21.7083 33.4359 21.6742 33.1923 21.6436C33.1758 21.7491 33.1561 21.8579 33.1364 21.9667C33.0969 22.1912 33.0804 22.4258 33.0179 22.6435C32.9323 22.9427 32.7546 23.0107 32.4847 22.8781C32.2016 22.7387 31.9186 22.5924 31.6388 22.4462C31.4973 22.3714 31.3952 22.3714 31.2767 22.5142C31.1286 22.6945 30.9608 22.8951 30.6909 22.7965C30.4276 22.7013 30.3552 22.453 30.3223 22.2014C30.2531 21.6811 30.3815 21.2117 30.7106 20.8105C30.8357 20.6574 30.9805 20.5248 31.1418 20.3616C30.8686 20.1711 30.6119 19.9943 30.3387 19.8073C30.2498 19.9297 30.1774 20.0351 30.0984 20.1405C29.8549 20.45 29.5521 20.4126 29.4171 20.0419C29.2164 19.4944 29.2624 18.9537 29.5027 18.4266C29.5422 18.3416 29.585 18.2599 29.6311 18.1681C28.4166 18.1409 27.077 18.9843 26.7084 20.0147C26.4418 20.7629 26.5471 21.5076 26.7775 22.2388C26.8038 22.3238 26.9486 22.3952 27.0507 22.4258C27.7846 22.6332 28.308 23.0957 28.647 23.7929C28.693 23.8847 28.7292 23.9867 28.749 24.0888C28.8017 24.3812 28.6733 24.5274 28.3869 24.5104C28.1763 24.4798 27.9689 24.456 27.732 24.4322ZM7.51984 12.8562C7.49351 12.982 7.47047 13.0671 7.4573 13.1521C7.05247 16.0801 6.8517 19.0149 7.28286 21.9633C7.52313 23.6093 8.01025 25.1668 8.9022 26.5679C9.60984 27.6765 10.5643 28.5403 11.5452 29.3803C12.4634 30.1658 13.3784 30.9616 14.277 31.7744C14.5699 32.0396 14.8069 32.3763 15.1097 32.7232C15.0965 32.6143 15.0965 32.5599 15.0866 32.5089C14.9122 31.6009 14.5238 30.7916 14.0169 30.0366C13.2665 28.9178 12.312 27.9962 11.3444 27.0882C10.5972 26.3842 9.86328 25.6701 9.29716 24.7927C8.57965 23.6807 8.20444 22.4564 8.17811 21.1199C8.17482 20.9261 8.2209 20.7357 8.46446 20.7527C8.67181 20.7697 8.78042 20.8887 8.78701 21.1335C8.8265 22.3816 9.18197 23.5208 9.88631 24.5411C10.5281 25.4728 11.374 26.1904 12.2265 26.9011C13.2468 27.7513 14.2473 28.6185 14.9418 29.7918C15.0076 29.904 15.0768 30.0162 15.1887 30.1964C15.1722 30.0706 15.1689 30.023 15.159 29.9788C14.9418 29.0946 14.6357 28.2478 14.1618 27.4691C14.0005 27.2038 14.0433 26.9794 14.2441 26.8331C14.4613 26.6733 14.7279 26.7039 14.9023 26.9521C15.0438 27.1494 15.1492 27.3772 15.2545 27.6017C15.3796 27.8704 15.4849 28.1492 15.6264 28.4893C15.6429 28.3771 15.6527 28.3397 15.6495 28.3056C15.6034 27.1324 15.4553 25.9795 15.0471 24.8743C15.0044 24.7587 14.9846 24.6091 15.0142 24.4934C15.0702 24.2826 15.2183 24.1636 15.4454 24.1602C15.7054 24.1568 15.8733 24.2928 15.9457 24.5342C16.0576 24.9083 16.1563 25.2892 16.2419 25.6701C16.5974 27.2854 16.5776 28.9178 16.4624 30.5569C16.3077 32.7878 15.9555 34.9846 15.2973 37.1203C15.271 37.2019 15.2545 37.2869 15.2347 37.3685C15.3368 37.2835 15.396 37.1883 15.4355 37.0829C15.8272 36.0491 16.2616 35.0323 16.6007 33.9814C17.5025 31.2031 17.8876 28.3601 17.4597 25.4388C17.1865 23.5787 16.6336 21.8069 15.7284 20.1677C14.8233 18.5286 13.5364 17.2635 12.0356 16.2161C10.8606 15.3965 9.68883 14.5736 8.53028 13.7336C8.17811 13.4785 7.87531 13.1691 7.51984 12.8562ZM21.9919 34.784C21.9985 34.801 22.0017 34.818 22.0083 34.8316C23.4104 34.58 24.8257 34.3827 26.2147 34.0596C27.9064 33.6618 29.3118 32.764 30.2564 31.203C30.2893 31.1452 30.3321 31.0942 30.3782 31.05C30.5592 30.88 30.8127 30.9276 30.8522 31.169C30.8785 31.3323 30.8192 31.5465 30.7271 31.6894C30.0425 32.764 29.1242 33.5563 28.0019 34.1107C26.8038 34.7058 25.5169 34.988 24.2267 35.2465C22.6238 35.5662 21.0374 35.9402 19.5365 36.6272C19.451 36.668 19.3654 36.7088 19.2403 36.7666C20.1323 36.6782 20.9683 36.5592 21.8076 36.5218C23.0648 36.4673 24.3287 36.498 25.586 36.4435C26.1554 36.4197 26.7347 36.3415 27.2811 36.1783C28.7819 35.7328 29.9503 34.7568 30.9509 33.5495C32.7611 31.3663 33.9526 28.826 34.9268 26.1598C34.94 26.1224 34.9301 26.0782 34.9301 26.0272C34.6866 26.0986 34.4693 26.1802 34.2422 26.2244C32.906 26.4965 31.573 26.7719 30.2334 27.0304C26.241 27.8023 22.9365 29.7646 20.3989 33.0666C20.3363 33.1483 20.2804 33.2299 20.2211 33.3115C20.3495 33.2605 20.4384 33.1789 20.5239 33.0938C21.6364 31.9852 22.8739 31.0636 24.3386 30.5297C25.0923 30.2542 25.8855 30.0808 26.6689 29.8938C26.9486 29.8258 27.1955 30.0604 27.2119 30.3291C27.2284 30.6079 27.0572 30.7984 26.761 30.8324C25.8427 30.9412 24.9639 31.203 24.1345 31.6315C22.3111 32.5667 20.8333 33.9508 19.4937 35.5049C19.4674 35.5322 19.4575 35.5764 19.4279 35.6342C20.0434 35.1819 20.6095 34.7092 21.225 34.3283C21.8503 33.944 22.5218 33.6346 23.1833 33.3217C23.4433 33.1993 23.6507 33.3319 23.7593 33.6039C23.8614 33.859 23.7692 34.0971 23.5158 34.2195C23.4071 34.2705 23.2887 34.3045 23.1768 34.3453C22.7851 34.4949 22.3868 34.6378 21.9919 34.784ZM30.76 17.3179C31.02 17.3077 31.0365 17.3043 31.0233 17.1241C30.9476 16.0223 30.6744 14.9884 29.9931 14.1145C29.6377 13.6622 29.1966 13.3527 28.5976 13.3323C28.4363 13.3289 28.275 13.2541 28.1236 13.1895C27.9393 13.1147 27.8932 12.9922 28.0282 12.812C28.512 12.1591 28.9728 11.4857 29.4764 10.8498C30.4967 9.55752 32.4485 9.4725 33.7058 10.4451C34.4463 11.0198 34.7787 11.8428 34.9828 12.7338C35.0848 13.1759 35.1309 13.635 35.2033 14.0907C35.2889 14.0907 35.3745 14.0907 35.4831 14.0907C35.3975 13.0195 35.2066 11.9992 34.6273 11.1082C33.8901 9.97581 32.8434 9.47589 31.5368 9.56771C31.2438 9.58812 30.9575 9.69014 30.6678 9.75815C30.5099 9.79556 30.3552 9.79556 30.3157 9.59492C30.2828 9.42149 30.3354 9.29227 30.5263 9.22085C30.9246 9.07122 31.3195 8.90457 31.7046 8.71753C32.9981 8.0952 34.341 7.63271 35.7727 7.53069C36.8918 7.45247 37.9351 7.68033 38.7645 8.54071C39.3109 9.10863 39.5248 9.84319 39.6532 10.6049C39.7092 10.9416 39.7454 11.2817 39.7882 11.6048C40.012 11.666 40.0712 11.5707 40.0449 11.3871C39.9889 10.9892 39.956 10.5879 39.8671 10.1969C39.5084 8.63933 38.5901 7.67351 37.0465 7.35725C36.1874 7.18041 35.3514 7.28583 34.5121 7.46267C33.3865 7.69732 32.3366 8.14962 31.3162 8.68013C31.1583 8.76175 31.0431 8.74815 30.9312 8.60192C30.8127 8.44549 30.8884 8.33325 30.997 8.22783C32.0535 7.18381 33.0936 6.11599 34.1797 5.10598C34.7754 4.54826 35.4469 4.06877 36.2203 3.79331C37.0893 3.48384 37.8989 3.7729 38.3268 4.61628C38.544 5.04477 38.6263 5.55147 38.7711 6.02077C38.804 6.12619 38.8271 6.23161 38.8567 6.33704C38.8962 6.33363 38.9357 6.33365 38.9752 6.33025C38.9982 6.20782 39.0476 6.08539 39.0377 5.96637C38.9719 5.21821 38.7185 4.54487 38.2017 4.01096C37.527 3.31041 36.668 3.19818 35.6937 3.74569C35.0717 4.09597 34.4726 4.51425 33.923 4.97675C32.2839 6.35744 30.9147 8.00339 29.6673 9.76496C27.9426 12.1965 26.4319 14.7538 25.2536 17.522C24.2958 19.7699 23.5849 22.1061 22.8114 24.4186C21.5377 28.2206 19.9545 31.8662 17.7855 35.2295C15.0866 39.4158 12.1705 43.415 8.57965 46.8463C8.51053 46.9109 8.52699 47.0708 8.50395 47.1864C8.60598 47.1524 8.73435 47.1456 8.80346 47.0776C9.3992 46.4859 9.98506 45.8873 10.5676 45.2854C12.8386 42.9321 14.7937 40.3067 16.6829 37.627C18.9276 34.4439 20.909 31.1044 22.3506 27.4487C23.3216 24.9865 24.2859 22.521 25.2009 20.0317C25.8065 18.3824 26.8663 17.3281 28.5416 16.9575C29.0748 16.8418 29.608 16.7466 30.161 16.6378C30.0919 16.0461 29.8944 15.4952 29.608 14.9749C29.3184 14.4477 28.9004 14.1077 28.2948 14.0261C28.0512 13.9921 27.9295 14.0635 27.8143 14.2777C26.6491 16.4576 25.5432 18.6646 24.671 20.9907C24.569 21.2662 24.4011 21.3648 24.1938 21.273C23.9206 21.154 24.0226 20.9635 24.1049 20.7799C24.9245 18.9877 25.7341 17.1921 26.5668 15.4101C26.8433 14.8184 27.1856 14.2539 27.5114 13.686C27.5674 13.5874 27.6958 13.4751 27.7978 13.4717C28.9695 13.4105 29.7561 13.9172 30.2564 15.0157C30.5757 15.7434 30.6942 16.512 30.76 17.3179ZM40.012 14.2607C40.1502 13.9682 40.216 13.6078 40.4267 13.4547C40.6242 13.3119 40.973 13.3901 41.2528 13.3697C41.2034 12.7678 40.6439 12.1761 40.0811 12.1761C39.1365 12.1761 38.4914 12.6896 38.4091 13.5568C39.1496 13.2881 39.5512 13.8492 40.012 14.2607ZM31.6684 19.8923C31.6882 19.8821 31.7112 19.8753 31.7178 19.8617C31.8955 19.5556 32.0765 19.2529 32.2444 18.9401C32.2707 18.8925 32.2477 18.8075 32.2345 18.7462C32.1127 18.1715 31.6947 17.8655 31.0891 17.8961C30.2959 17.9369 29.687 18.7224 29.901 19.44C30.6284 19.0115 31.1056 19.627 31.6684 19.8923ZM28.0052 23.8575C27.7616 23.2352 27.021 22.8577 26.4648 23.0549C25.6222 23.3542 25.1845 24.0309 25.3885 24.7689C25.9711 24.3676 26.5109 24.7655 27.0704 24.8845C27.1856 23.9901 27.2416 23.9323 28.0052 23.8575ZM36.7897 15.8965C36.7371 15.4986 36.533 15.2299 36.2993 14.985C36.0887 14.764 35.855 14.577 35.516 14.7232C35.4304 14.7606 35.3152 14.7402 35.2132 14.7266C34.5516 14.6246 33.8539 15.4237 34.0053 16.0495C34.2455 16.0495 34.4759 16.0223 34.6964 16.0597C34.861 16.0869 34.9828 16.0937 35.1309 15.9883C35.2198 15.9236 35.4173 15.9134 35.493 15.9747C35.5687 16.0359 35.5687 16.2195 35.5687 16.3453C35.5687 16.4269 35.5061 16.5086 35.46 16.6242C35.7497 16.6004 35.7563 16.3929 35.799 16.2297C35.9142 15.8148 36.0426 15.7264 36.4573 15.8114C36.5528 15.8352 36.6515 15.8624 36.7897 15.8965ZM33.5609 21.0451C33.3437 20.6302 33.0771 20.3412 32.7315 20.1235C32.5735 20.0215 32.4814 20.0589 32.3596 20.1949C32.0831 20.5078 31.8198 20.8275 31.3985 20.9873C31.0101 21.1335 30.8456 21.5858 30.9838 21.9599C31.5433 21.5314 32.0041 22.0211 32.5044 22.1436C32.5637 21.8511 32.5669 21.5382 32.692 21.29C32.8566 20.9771 33.2055 21.0417 33.5609 21.0451ZM25.688 21.1335C25.744 21.4226 25.8296 21.9089 25.9382 22.3918C25.9514 22.4564 26.0731 22.4938 26.1423 22.5448C26.1686 22.47 26.2245 22.3918 26.218 22.3204C26.1982 22.1707 26.1423 22.0245 26.1093 21.8749C25.6946 20.0759 26.4747 18.5354 28.1664 17.9301C28.7457 17.7226 29.3711 17.658 29.9767 17.5186C30.0524 17.5016 30.1215 17.437 30.1906 17.3962C30.1149 17.3621 30.0359 17.2975 29.9602 17.3043C28.9794 17.3723 28.0282 17.573 27.1922 18.1341C26.2212 18.787 25.7275 19.729 25.688 21.1335Z" fill="#FFEB61"/>
<path d="M11.2588 37.6372C11.1337 37.542 11.0481 37.508 11.0086 37.4434C10.9592 37.3652 10.9428 37.2598 10.9165 37.1679C10.6861 36.3552 10.2055 35.7805 9.41231 35.5152C9.24775 35.4608 9.08976 35.4064 9.08647 35.1819C9.08318 34.9507 9.26091 34.9405 9.40902 34.8861C10.2121 34.5902 10.7683 34.0495 10.9856 33.1755C11.0251 33.0157 11.0876 32.866 11.2785 32.8694C11.4661 32.8728 11.5221 33.0157 11.5583 33.1823C11.7459 34.0631 12.2922 34.6004 13.1019 34.8725C13.2731 34.9303 13.3915 35.0119 13.3981 35.2057C13.4047 35.4064 13.2434 35.4336 13.1085 35.4744C12.2429 35.7396 11.7393 36.362 11.4924 37.236C11.4497 37.3618 11.3509 37.4774 11.2588 37.6372ZM11.2127 36.1885C11.5484 35.8485 11.9039 35.4812 12.2725 35.1071C11.838 34.8861 11.4957 34.5426 11.3015 34.1175C10.9494 34.4882 10.6038 34.8521 10.2911 35.1819C10.5939 35.5118 10.9099 35.8587 11.2127 36.1885Z" fill="#FFEB61"/>
<path d="M13.1219 11.4383C13.0923 11.4655 13.0297 11.5641 12.9508 11.5879C12.1806 11.8327 11.6803 12.3292 11.5091 13.1624C11.4894 13.2542 11.3512 13.3665 11.2524 13.3801C11.18 13.3903 11.0582 13.2746 11.0154 13.1828C10.9068 12.955 10.8509 12.6965 10.7324 12.4755C10.5053 12.0606 10.163 11.7817 9.70549 11.6661C9.54092 11.6253 9.38623 11.5641 9.38623 11.3465C9.38952 11.1424 9.53434 11.0948 9.68574 11.0336C10.3144 10.7819 10.7719 10.3568 10.9365 9.65629C10.9463 9.60868 10.9529 9.55086 10.9825 9.52366C11.0648 9.44544 11.157 9.33323 11.2458 9.32983C11.3314 9.32983 11.4466 9.43524 11.496 9.52366C11.5684 9.65288 11.5717 9.81952 11.6342 9.95555C11.8942 10.5133 12.3122 10.8839 12.8915 11.0574C13.1022 11.1186 13.1219 11.1492 13.1219 11.4383ZM11.9074 11.3669C11.6869 11.1322 11.4236 10.8533 11.2425 10.6595C11.0549 10.8601 10.7883 11.1424 10.5514 11.3975C10.7258 11.5811 10.9924 11.8634 11.1998 12.081C11.4532 11.8225 11.7231 11.5505 11.9074 11.3669Z" fill="#FFEB61"/>
<path d="M37.4744 21.8613C37.4152 21.7865 37.3263 21.7219 37.3 21.6335C37.1486 21.1574 36.9281 20.7323 36.5134 20.45C36.3587 20.3446 36.1744 20.2868 36.0197 20.1814C35.9242 20.1168 35.809 20.0011 35.8057 19.9025C35.8024 19.8107 35.9144 19.6611 36.0098 19.6271C36.6483 19.3856 37.0926 18.9571 37.3099 18.2804C37.3428 18.1818 37.4843 18.0423 37.56 18.0525C37.6522 18.0627 37.774 18.1988 37.8003 18.3042C37.9747 18.9707 38.4092 19.372 39.0049 19.6169C39.1399 19.6713 39.2551 19.7189 39.2518 19.8957C39.2485 20.0623 39.1464 20.1406 39.0082 20.1916C38.3467 20.433 37.9451 20.9227 37.7707 21.6131C37.7312 21.7593 37.6785 21.8409 37.4744 21.8613ZM38.1097 19.8923C37.9583 19.7189 37.7279 19.4536 37.5106 19.202C37.2835 19.4264 37.04 19.6645 36.8688 19.8379C37.0894 20.076 37.3296 20.3344 37.5238 20.5453C37.6983 20.348 37.9319 20.0896 38.1097 19.8923Z" fill="#FFEB61"/>
<path d="M21.3634 22.9529C21.3634 23.4188 21.0409 23.7691 20.6097 23.7725C20.1555 23.7759 19.8066 23.4188 19.8066 22.9563C19.8066 22.4904 20.1489 22.1368 20.5867 22.1402C21.0442 22.1436 21.3634 22.4768 21.3634 22.9529ZM20.952 22.9563C20.9553 22.7421 20.7908 22.5687 20.5834 22.5687C20.3925 22.5687 20.2345 22.7387 20.2279 22.9529C20.2213 23.1604 20.3793 23.3338 20.5768 23.3372C20.7809 23.3372 20.9487 23.1706 20.952 22.9563Z" fill="#FFEB61"/>
<path d="M20.2871 42.2044C19.4412 42.201 18.7764 41.4767 18.7862 40.5687C18.7961 39.6437 19.4346 38.9976 20.3365 38.9942C21.1889 38.9908 21.8604 39.6811 21.8636 40.5619C21.8669 41.4903 21.179 42.2078 20.2871 42.2044ZM21.0276 40.5551C21.0276 40.1708 20.7084 39.8613 20.3068 39.8613C19.9283 39.8613 19.6222 40.1878 19.6255 40.5959C19.6255 41.004 19.8987 41.2964 20.2838 41.3032C20.715 41.3134 21.0244 41.0006 21.0276 40.5551Z" fill="#FFEB61"/>
<path d="M28.7885 4.98024C28.6635 4.88502 28.5779 4.85101 28.5384 4.7864C28.489 4.70818 28.4726 4.60276 28.4462 4.51094C28.2158 3.69817 27.7353 3.12346 26.9421 2.8582C26.7775 2.80379 26.6195 2.74939 26.6163 2.52494C26.613 2.29369 26.7907 2.28349 26.9388 2.22908C27.7419 1.93322 28.2981 1.39249 28.5154 0.518511C28.5549 0.358677 28.6174 0.209059 28.8083 0.212459C28.9959 0.21586 29.0518 0.358684 29.0881 0.525319C29.2757 1.4061 29.822 1.94341 30.6317 2.21546C30.8028 2.27327 30.9213 2.35491 30.9279 2.54875C30.9345 2.74939 30.7732 2.77659 30.6383 2.81739C29.7727 3.08265 29.2691 3.70498 29.0222 4.57896C28.9794 4.70479 28.8807 4.82041 28.7885 4.98024ZM28.7425 3.53154C29.0782 3.19146 29.4336 2.82419 29.8023 2.45011C29.3678 2.22907 29.0255 1.8856 28.8313 1.46051C28.4792 1.83119 28.1336 2.19507 27.8209 2.52494C28.1237 2.85481 28.443 3.20167 28.7425 3.53154Z" fill="#FFEB61"/>
</svg>
