<svg width="48" height="48" viewBox="0 0 48 48" fill="none" xmlns="http://www.w3.org/2000/svg">
<path d="M24.9488 35.2347C25.0468 34.8091 25.1484 34.3808 25.2464 33.9552C25.7001 31.969 26.4876 30.0658 27.8703 28.3125C28.7376 27.2123 29.9244 26.3049 31.1546 25.4322C32.1417 24.7309 33.1071 24.0162 33.8148 23.1409C33.8583 23.0874 33.9781 23.0713 34.0615 23.0365C34.1123 23.1088 34.2067 23.1837 34.1994 23.256C34.1922 23.347 34.1269 23.4461 34.0506 23.5237C33.4736 24.1072 32.9401 24.7202 32.2905 25.2582C30.4651 26.768 29.0679 28.4597 27.9792 30.312C26.8832 32.1751 25.8489 34.0462 25.3553 36.0564C25.0323 37.3814 25.0287 38.7225 25.0323 40.0609C25.0323 40.4062 25.0323 40.7488 25.0323 41.0942C25.0686 41.0995 25.1049 41.1022 25.1412 41.1075C25.1884 41.0406 25.2464 40.979 25.2864 40.9095C26.542 38.7011 28.44 36.8461 30.8969 35.2882C31.4377 34.9456 31.9748 34.5869 32.4212 34.18C32.7877 33.8454 33.0055 33.4278 33.303 33.0531C33.3684 32.9674 33.4881 32.9058 33.5861 32.8336C33.6551 32.946 33.8002 33.0664 33.7785 33.1655C33.6079 33.9605 33.1651 34.6725 32.3994 35.2507C31.4522 35.9654 30.4651 36.6507 29.4961 37.3493C27.413 38.8537 25.9142 40.6204 25.123 42.6976C25.0795 42.8073 25.0577 42.9251 25.0577 43.0402C25.0904 44.3251 25.1339 45.6126 25.1702 46.8974C25.1739 47.058 25.1847 47.2213 25.1593 47.3793C25.1303 47.5613 25.0577 47.7433 24.7529 47.7674C24.4589 47.7888 24.2521 47.6684 24.1758 47.473C24.0887 47.2535 23.998 47.0179 24.0089 46.7931C24.0742 45.7063 24.1722 44.6195 24.2593 43.5327C24.2666 43.4605 24.2702 43.3882 24.292 43.3186C24.5134 42.5771 24.2158 41.9454 23.6424 41.3324C22.6843 40.3045 22.0456 39.1508 21.4068 38.0025C20.7463 36.8113 19.6794 35.8771 18.2858 35.1062C17.0882 34.4423 15.9341 33.7303 14.7982 33.0076C13.9889 32.4909 13.3611 31.8512 12.8567 31.1499C12.7877 31.0562 12.7042 30.9598 12.6788 30.8581C12.6571 30.7671 12.7006 30.668 12.7151 30.5717C12.8494 30.6038 13.0563 30.6038 13.1107 30.6707C14.116 31.8833 15.7091 32.598 17.2733 33.3288C18.7757 34.0301 20.2092 34.7823 21.2326 35.8851C21.9839 36.6962 22.4702 37.5983 22.9129 38.5164C23.2831 39.2873 23.6968 40.0448 24.0924 40.8104C24.1432 40.8024 24.1904 40.7944 24.2412 40.7863C24.1541 36.0993 24.067 31.4149 23.9835 26.7171C23.7658 26.9794 23.2359 27.0249 23.1089 27.4318C22.9855 27.828 22.7387 28.2027 22.5137 28.5775C22.3976 28.7702 22.3468 28.9415 22.4593 29.1396C22.5173 29.244 22.5427 29.3645 22.5609 29.4796C22.5899 29.6883 22.5028 29.865 22.2452 29.9828C21.9802 30.1032 21.7153 30.1059 21.4576 29.9828C20.9205 29.7258 20.3617 29.4876 19.8681 29.1931C19.4798 28.9603 19.1604 28.6604 18.8302 28.3767C18.6015 28.1786 18.3693 28.1117 18.0064 28.1706C17.7124 28.2188 17.3785 28.2 17.0809 28.1492C16.4858 28.0475 16.3007 27.6593 16.6418 27.2846C16.7688 27.1454 16.9394 27.0303 17.1245 26.875C16.5692 26.6421 16.0249 26.428 15.3644 26.5163C15.1321 26.5485 14.9434 26.5779 14.8454 26.3584C14.82 26.2995 14.6386 26.2594 14.5224 26.246C14.0289 26.1898 13.7748 26.064 13.7712 25.8498C13.7676 25.6383 14.0652 25.4938 14.5732 25.4617C14.5841 25.4617 14.5986 25.459 14.6095 25.459C15.212 25.5045 15.7418 25.4697 15.9704 24.9451C16.0176 24.8353 16.2535 24.763 16.4204 24.6961C16.6309 24.6105 16.8523 24.5328 17.0773 24.4793C17.2443 24.4391 17.4366 24.4151 17.6035 24.4365C18.039 24.4873 18.0935 24.6506 17.7632 24.9397C17.4838 24.6854 17.2043 24.7068 16.9576 24.9745C16.9503 24.9825 16.9394 24.9906 16.9285 24.9906C16.3188 24.9451 16.2608 25.3171 16.043 25.5928C15.9559 25.7026 15.6983 25.7749 15.5059 25.7909C15.143 25.823 14.7692 25.799 14.399 25.823C15.4551 26.1148 16.6455 26.1148 17.5781 26.6662C17.9265 26.503 18.2967 26.3263 18.6669 26.1523C18.5144 25.997 18.3548 25.8338 18.1951 25.6705C18.2241 25.6437 18.2568 25.6143 18.2858 25.5875C18.4781 25.6544 18.7757 25.6865 18.8447 25.7963C19.0552 26.1309 19.3891 26.1389 19.8354 26.0827C19.4072 25.5714 18.9463 25.1003 18.3366 24.7122C18.1552 24.5971 17.9882 24.4365 17.9156 24.2732C17.7596 23.9172 17.658 23.5478 17.5636 23.1811C17.5019 22.9401 17.491 22.6751 17.8576 22.5493C18.2023 22.4316 18.489 22.5413 18.7177 22.7501C18.7866 22.8117 18.8701 22.8625 18.9572 22.9134C19.262 23.0874 19.4399 23.0713 19.6903 22.8491C19.8427 22.7099 19.9697 22.552 20.1475 22.4369C20.2455 22.3753 20.456 22.3486 20.5758 22.3834C20.6919 22.4182 20.8262 22.5574 20.8189 22.643C20.7717 23.1195 21.2689 23.3631 21.5738 23.7245C21.7008 23.6067 21.7879 23.5076 21.8968 23.43C22.1073 23.2828 22.3105 23.1222 22.5536 23.0151C23.2613 22.7073 23.7839 22.8786 23.998 23.4621C24.0271 23.5371 24.0561 23.612 24.1686 23.6816C24.1359 23.2212 24.1142 22.7581 24.0633 22.2977C24.0561 22.2281 23.9254 22.1558 23.8347 22.1023C23.2831 21.7811 22.9238 21.3715 22.746 20.8683C22.7169 20.7853 22.5936 20.7023 22.4847 20.6595C21.9585 20.4561 21.3959 20.3945 20.8008 20.4293C20.1475 20.4668 19.5814 20.2553 19.2294 19.8725C18.5798 19.1659 17.7814 19.0829 16.7725 19.3747C16.21 19.5353 15.7164 19.3425 15.5313 18.9651C15.4043 18.7028 15.564 18.4886 15.9341 18.5074C16.6237 18.5448 17.1426 18.3253 17.6289 18.0041C17.8721 17.8435 18.1406 17.7043 18.4201 17.5785C18.8338 17.3938 19.1858 17.4233 19.556 17.6481C19.6504 17.7043 19.7375 17.7659 19.8173 17.8328C20.104 18.0818 20.3762 18.237 20.906 18.2129C21.4105 18.1915 21.9367 18.3923 22.4556 18.4967C22.3649 18.4244 22.256 18.328 22.1327 18.245C21.621 17.8917 21.258 17.4929 21.2145 16.9521C21.2036 16.7996 21.0367 16.647 20.9169 16.5078C20.8262 16.4034 20.6883 16.3231 20.583 16.2267C20.2455 15.9189 20.2673 15.5977 20.6338 15.3434C21.0004 15.0891 21.4903 15.0971 21.8641 15.3728C21.9839 15.4585 22.0746 15.5656 22.1907 15.6807C22.3395 15.6191 22.4847 15.5442 22.648 15.4933C23.0109 15.3782 23.2795 15.4505 23.4718 15.7048C23.6061 15.8841 23.7149 16.0768 23.8746 16.2401C23.9581 16.3231 24.1359 16.3552 24.2738 16.4088C24.3464 16.307 24.4807 16.2053 24.4807 16.1009C24.4843 15.3595 24.4662 14.618 24.4517 13.8765C24.448 13.7346 24.4299 13.5901 24.4299 13.4482C24.4263 13.1886 24.3537 12.9771 23.9436 12.9102C23.6968 12.87 23.646 12.7121 23.6714 12.5515C23.7186 12.2651 23.577 12.0322 23.2649 11.8796C22.6008 11.5531 21.9258 11.2452 21.2435 10.9374C21.1709 10.9053 21.033 10.924 20.9387 10.9454C20.2165 11.1274 19.5415 11.0605 18.9499 10.7125C18.5544 10.4823 18.206 10.2066 17.8358 9.95234C17.5273 9.74088 17.208 9.5401 16.9104 9.32061C16.7688 9.21621 16.6709 9.08238 16.5547 8.96193C16.7325 8.91107 16.9067 8.85485 17.0882 8.80667C17.1426 8.79328 17.2043 8.80399 17.3023 8.80399C17.2261 8.6755 17.1245 8.56308 17.0991 8.44263C17.0737 8.32217 17.0664 8.14014 17.1608 8.08393C17.2769 8.01433 17.5346 7.99828 17.6797 8.04379C17.9846 8.14283 18.2568 8.29808 18.558 8.43995C18.7177 8.34358 18.91 8.2499 19.0552 8.12677C19.135 8.05717 19.1786 7.93404 19.1641 7.84035C19.135 7.61817 19.0552 7.40135 19.0116 7.18185C18.9572 6.92488 19.0044 6.69735 19.3927 6.61169C19.3745 6.47785 19.3165 6.35205 19.3455 6.23695C19.4108 5.93983 19.9371 5.81669 20.3 6.01745C20.8625 6.33064 21.2617 6.72412 21.3052 7.26483C21.3234 7.49503 21.3742 7.65298 21.777 7.62889C22.0637 7.61283 22.2452 7.77342 22.3105 7.96883C22.4012 8.24454 22.4339 8.53363 22.5355 8.80667C22.6081 8.9994 22.6988 9.21354 22.873 9.35541C23.4137 9.80243 23.8383 10.2923 24.1033 10.8571C24.125 10.9026 24.165 10.9428 24.223 11.0231C24.223 10.6831 24.2303 10.386 24.223 10.0915C24.2049 9.36879 24.223 8.64338 24.1432 7.92333C24.0488 7.06943 23.4899 6.34402 22.7895 5.67749C22.6843 5.57578 22.4738 5.51957 22.2996 5.47139C21.8968 5.36432 21.6427 5.17693 21.6028 4.85572C21.5339 4.32571 21.4468 3.79304 21.4105 3.26304C21.4032 3.13187 21.5411 2.89632 21.6609 2.87758C21.9476 2.83475 21.9621 3.07031 22.0056 3.21218C22.1327 3.63243 22.3722 3.98041 22.8113 4.29092C23.0399 4.45152 23.0617 4.77007 23.1742 5.01901C23.2359 5.15821 23.2686 5.3081 23.3666 5.43123C23.6061 5.73371 23.8746 6.0228 24.2267 6.31189C24.2267 5.5731 24.2303 4.83699 24.2194 4.0982C24.2194 4.01789 24.1432 3.93759 24.0924 3.86264C24.0162 3.75289 23.8964 3.65384 23.8456 3.53874C23.7331 3.28444 23.5553 3.12383 23.1851 3.03282C22.9746 2.98196 22.7532 2.77586 22.6952 2.6099C22.5282 2.13611 22.423 1.6516 22.3323 1.16442C22.3141 1.06003 22.4484 0.939567 22.5137 0.824465C22.6407 0.904769 22.8186 0.969024 22.8911 1.07074C23.3085 1.6409 23.7004 2.21909 24.1033 2.7946C24.1432 2.78389 24.1831 2.77318 24.223 2.7598C24.194 2.64202 24.1577 2.52692 24.1359 2.40914C24.096 2.17626 24.0053 1.93534 24.0525 1.71316C24.1323 1.30897 24.2847 0.912798 24.4408 0.521986C24.4843 0.409561 24.6549 0.326589 24.7674 0.230225C24.8654 0.331943 25.0323 0.428311 25.0468 0.535383C25.1085 1.02256 25.1521 1.51241 25.1484 2.00226C25.1484 2.11736 24.9525 2.23514 24.8472 2.35024C24.8001 2.4011 24.7093 2.45732 24.7166 2.5055C24.7855 2.99803 24.869 3.49055 25.0142 3.98844C25.0831 3.65651 25.1702 3.32728 25.221 2.99268C25.2682 2.66076 25.4424 2.45999 25.9106 2.3315C26.3134 2.22175 26.6255 1.94336 26.9957 1.76134C27.1699 1.67569 27.3876 1.63821 27.5836 1.57664C27.5872 1.7426 27.6453 1.92196 27.5836 2.07454C27.3731 2.5751 27.1263 3.06762 26.8795 3.55748C26.836 3.64581 26.7453 3.72879 26.6509 3.79304C26.4549 3.9242 26.2553 4.05804 26.0303 4.16244C25.3589 4.46759 24.9815 4.90658 24.9706 5.48477C24.9488 6.3467 24.9634 7.2113 24.9634 8.11873C25.3553 7.67706 25.7218 7.27822 26.0702 6.86867C26.2698 6.63311 26.5348 6.54478 26.9122 6.52337C27.1372 6.51266 27.413 6.42433 27.5618 6.30387C27.8594 6.06028 28.0735 5.76584 28.3421 5.50351C28.4292 5.41785 28.6034 5.29739 28.7013 5.31345C28.9517 5.35628 28.8828 5.52224 28.7993 5.64269C28.5925 5.94517 28.3747 6.2423 28.1425 6.53407C27.9211 6.81246 27.667 7.07211 27.4529 7.35317C27.2352 7.63959 26.934 7.80287 26.4876 7.77343C26.1319 7.74934 25.9323 7.85373 25.7872 8.08661C25.5767 8.43191 25.3335 8.76383 25.1267 9.07167C25.6565 9.25369 26.1065 9.41162 26.6327 9.59097C26.709 9.42768 26.7852 9.22692 26.9013 9.04223C26.9811 8.91642 27.09 8.75314 27.2352 8.71566C27.3513 8.68622 27.5545 8.81203 27.7033 8.88162C27.7795 8.9191 27.8231 8.99136 27.8957 9.03955C28.2005 9.24834 28.5017 9.20016 28.6578 8.90839C28.7122 8.80934 28.7122 8.69156 28.7884 8.60591C28.8646 8.51757 28.988 8.40783 29.1114 8.39445C29.2094 8.38374 29.409 8.4801 29.438 8.55773C29.5433 8.81738 29.6449 9.09041 29.6485 9.35809C29.6594 9.7837 30.0296 10.0889 30.6103 10.0648C30.7808 10.0567 30.9478 10.0407 31.1183 10.0326C31.6228 10.0059 31.9929 10.1665 32.1962 10.5011C32.2942 10.659 32.4139 10.6938 32.6389 10.6911C33.0345 10.6831 33.441 10.6831 33.8293 10.7393C34.0724 10.7741 34.3192 10.8972 34.4934 11.0311C34.5986 11.1114 34.6422 11.3095 34.5805 11.4112C34.5297 11.4942 34.2865 11.545 34.1232 11.5557C33.7748 11.5798 33.4192 11.5477 33.0744 11.5825C32.4139 11.6467 31.8587 11.8609 31.4667 12.2785C31.2163 12.5435 30.9369 12.7897 30.6865 13.0521C30.3635 13.3947 29.9352 13.6062 29.3764 13.6597C29.1368 13.6838 29.0062 13.7695 28.9554 13.9354C28.8247 14.353 28.5453 14.6903 28.0336 14.9178C27.8485 15.0008 27.707 15.1293 27.8267 15.338C28.1171 15.2149 28.3784 15.0891 28.6578 14.9901C29.1441 14.8161 29.4852 14.9553 29.576 15.3488C29.6522 15.6887 29.4816 15.9724 29.2312 16.2508C28.6977 16.8344 28.1824 17.4286 27.6634 18.0202C27.6162 18.0764 27.5872 18.1406 27.5727 18.2236C28.0263 18.047 28.4219 17.7605 28.9844 17.8569C29.0388 17.8676 29.0642 17.9693 29.1042 18.0363C29.4526 17.8944 29.8046 17.7391 30.1748 17.608C30.4361 17.517 30.7119 17.442 30.9913 17.3911C31.5139 17.2975 31.9349 17.434 32.1744 17.79C32.4357 18.1835 32.7405 18.5234 33.2922 18.7402C33.5172 18.8286 33.6841 19.032 33.8039 19.2114C33.8728 19.3131 33.793 19.471 33.7821 19.6022C33.6152 19.5888 33.4373 19.5995 33.2849 19.5593C32.8893 19.463 32.5119 19.3104 32.1054 19.2462C31.6046 19.1659 31.1764 19.3104 30.8752 19.6263C30.7699 19.736 30.6683 19.8458 30.5667 19.9555C30.1058 20.4561 29.5687 20.5792 28.8102 20.3517C28.5743 20.2821 28.3384 20.2098 28.1207 20.1108C27.5001 19.8297 26.8106 19.9395 26.1247 19.8699C26.1755 20.1134 26.3461 20.2152 26.6255 20.2071C27.0465 20.1938 27.4638 20.167 27.8812 20.1456C28.0844 20.8442 27.1445 21.7838 26.1864 21.8587C25.6493 21.9015 24.9779 22.3968 24.9525 22.7849C24.9234 23.2212 24.9053 23.6602 24.9053 24.0965C24.9053 24.1554 25.0251 24.2304 25.1122 24.2705C25.3771 24.3936 25.6819 24.4766 25.9142 24.6238C26.3207 24.8862 26.3497 25.293 25.9759 25.5768C25.6093 25.8579 25.2501 26.1255 25.1775 26.5324C25.1738 26.5485 25.163 26.5726 25.1448 26.5806C24.6549 26.8188 24.7928 27.1909 24.7964 27.5255C24.8146 29.9908 24.84 32.4561 24.8654 34.9215C24.8654 35.0178 24.8654 35.1169 24.8654 35.2132C24.898 35.2293 24.9234 35.232 24.9488 35.2347ZM26.3352 18.9812C26.3787 18.9999 26.4223 19.016 26.4658 19.0347C26.6582 18.7965 26.8614 18.5636 27.0392 18.32C27.384 17.8516 27.6997 17.3697 28.0626 16.9093C28.3167 16.5854 28.6433 16.2937 28.9191 15.9805C29.1151 15.7583 29.184 15.5201 29.0316 15.2925C28.8538 15.4639 28.705 15.6352 28.509 15.769C28.4727 15.7931 28.255 15.678 28.1171 15.6245C28.1025 15.5923 28.0844 15.5602 28.0699 15.5308C27.7941 15.7181 27.5219 15.9109 27.2424 16.0956C26.9666 16.2776 26.7888 16.5587 26.3243 16.5613C26.6182 16.299 26.9122 16.0367 27.2062 15.7744C27.1807 15.7476 27.1553 15.7208 27.1299 15.6914C26.9884 15.7342 26.8069 15.7476 26.7162 15.8199C26.4114 16.0715 26.1283 16.3392 25.8706 16.6175C25.8162 16.6764 25.8706 16.8371 25.9505 16.9093C26.063 17.0164 26.2408 17.086 26.386 17.1663C26.0448 17.4661 26.0158 17.4661 25.7509 17.2412C25.5513 17.0726 25.3408 16.912 25.1448 16.7434C24.9561 16.5801 24.771 16.5774 24.5134 16.6738C23.9291 16.8933 23.7295 16.8397 23.3956 16.4168C23.2395 16.2214 23.1016 16.0153 22.9492 15.8092C22.844 15.844 22.775 15.86 22.7169 15.8895C22.129 16.1625 22.1435 16.1571 21.6972 15.7449C21.5883 15.6432 21.3742 15.5763 21.1964 15.5522C21.1093 15.5415 20.8951 15.6753 20.9024 15.7315C20.9205 15.868 20.9859 16.042 21.1201 16.1223C21.5193 16.3606 21.6899 16.6684 21.7407 17.0271C21.7915 17.3751 21.973 17.6749 22.3032 17.9319C22.5028 18.0871 22.7351 18.2424 22.8403 18.4324C23.029 18.7777 23.3593 18.949 23.8129 19.0775C24.4081 19.2488 24.5025 19.6129 24.1033 19.9796C23.6024 20.44 23.7004 20.9754 24.4008 21.3769C24.4408 21.2109 24.4988 21.0664 24.5025 20.9218C24.5097 20.2981 24.5025 19.6718 24.5025 19.0481C24.5025 18.9249 24.4843 18.7938 24.5242 18.676C24.6295 18.3387 25.0686 18.1781 25.3952 18.3575C25.6347 18.4886 25.8815 18.6332 25.8235 18.9035C25.8126 18.9598 25.8706 19.0267 25.896 19.0882C25.9396 19.0963 25.9831 19.1016 26.0267 19.1096C26.1501 18.8955 26.2698 18.6787 26.3932 18.4645C26.4186 18.4699 26.444 18.4753 26.4731 18.4806C26.4331 18.6519 26.3823 18.8179 26.3352 18.9812ZM24.1795 24.7871C24.0343 24.5757 23.9073 24.3936 23.7803 24.2116C23.7367 24.225 23.6968 24.2384 23.6533 24.2518C23.7585 24.4499 23.8601 24.6479 23.9726 24.8433C24.0633 25.0066 24.1323 25.1592 24.4589 25.1699C24.6767 25.1753 24.7238 25.3359 24.5896 25.4777C24.4408 25.6357 24.1867 25.6276 23.9327 25.4563C23.2795 25.0173 23.1198 24.2973 23.5444 23.7191C23.7186 23.4809 23.5553 23.2747 23.1851 23.264C22.7423 23.2533 22.4738 23.4702 22.227 23.6897C21.4032 24.4231 21.1528 25.2904 21.1818 26.2165C21.1855 26.2995 21.2653 26.3798 21.3089 26.4628C21.3451 26.4628 21.3814 26.4628 21.4141 26.4628C21.5883 26.1336 21.7552 25.8043 21.9403 25.4777C21.9875 25.3974 22.0819 25.3332 22.1544 25.2609C22.1944 25.3546 22.2996 25.4617 22.2669 25.5393C22.1544 25.8364 21.9984 26.1228 21.8931 26.3397C22.1181 26.262 22.4048 26.08 22.7024 26.0747C23.1234 26.0693 23.1633 26.4012 23.2722 26.6796C23.5916 26.3316 24.0125 26.2594 24.4988 26.2727C24.6113 26.2754 24.7565 26.1844 24.84 26.1095C25.0722 25.9007 25.2428 25.6491 25.5041 25.4617C25.8271 25.2261 25.8706 25.0066 25.486 24.83C25.1775 24.6881 24.8109 24.6131 24.4879 24.5114C24.3682 24.6158 24.2883 24.6881 24.1795 24.7871ZM33.0091 19.0668C32.9909 19.0722 32.9728 19.0775 32.9583 19.0856C32.6462 18.8125 32.2651 18.5689 32.0401 18.2638C31.63 17.7017 31.405 17.5892 30.6175 17.8676C30.0114 18.0818 29.4562 18.3735 28.8719 18.6251C28.7231 18.6894 28.5598 18.7376 28.4001 18.7938C28.3747 18.7697 28.3493 18.7456 28.3275 18.7215C28.44 18.5663 28.5525 18.411 28.665 18.2557C28.4981 18.2798 28.3675 18.3307 28.255 18.3923C27.7832 18.6546 27.315 18.925 26.8396 19.1846C26.5674 19.3345 26.2735 19.4443 25.8779 19.2729C25.9759 19.463 25.965 19.6664 26.2807 19.6343C27.2824 19.5299 28.1896 19.7093 29.0679 20.0572C29.4562 20.2125 29.8917 20.1027 30.1494 19.8297C30.2256 19.7494 30.2873 19.6611 30.3598 19.5808C30.9478 18.9276 31.7425 18.7295 32.7478 18.9919C32.8385 19.0106 32.922 19.0401 33.0091 19.0668ZM16.0249 18.8554C16.17 19.1016 16.3769 19.1311 16.6237 19.0802C16.8668 19.0293 17.1063 18.9651 17.3495 18.9089C17.9991 18.759 18.5689 18.8607 19.037 19.2274C19.2693 19.4094 19.4907 19.5995 19.7266 19.7788C20.133 20.0867 20.6193 20.1964 21.1818 20.0599C21.5048 19.9823 21.8314 19.9127 22.1363 19.8083C22.6625 19.6316 23.1778 19.4603 23.7658 19.6637C23.8964 19.463 23.7331 19.4068 23.5625 19.3479C23.0508 19.1712 22.55 18.9785 22.0347 18.8125C21.6028 18.6733 21.1564 18.5582 20.7173 18.4351C20.7028 18.4592 20.6846 18.4833 20.6701 18.5074C20.7681 18.6144 20.8661 18.7188 20.9641 18.8259C20.9532 18.85 20.9387 18.8741 20.9278 18.8955C20.808 18.8768 20.6629 18.8821 20.5685 18.8313C20.3145 18.6974 20.0641 18.5529 19.8463 18.3896C18.91 17.6936 18.9245 17.699 17.8902 18.2959C17.5418 18.4967 17.139 18.6492 16.7362 18.7884C16.5438 18.8554 16.2971 18.8339 16.0249 18.8554ZM18.0463 22.8358C18.0717 23.4862 18.1334 24.043 18.7104 24.4927C19.1459 24.8353 19.6576 25.1137 20.0205 25.5206C20.1802 25.6972 20.3689 25.8632 20.485 26.064C20.5213 26.1255 20.6012 26.1737 20.6629 26.2272C20.7173 25.4831 20.9205 24.7925 21.229 24.1126C21.2617 24.043 21.1746 23.9359 21.1201 23.8583C20.877 23.5157 20.2419 23.3524 20.3471 22.8304C20.0641 23.0178 19.8391 23.1677 19.6068 23.3229C19.654 23.3845 19.712 23.4594 19.7447 23.5023C19.5415 23.4541 19.3346 23.4113 19.135 23.3524C18.979 23.3069 18.8265 23.2533 18.6886 23.1864C18.4927 23.0954 18.3185 22.9883 18.0463 22.8358ZM28.3856 12.4739C28.7594 12.2169 29.0243 11.9867 29.351 11.8234C29.7973 11.6012 30.3453 11.529 30.8498 11.6146C31.2853 11.6896 31.6155 11.6012 31.9748 11.4754C32.628 11.2479 33.3212 11.1649 34.0543 11.1944C33.9236 11.1167 33.7894 11.0498 33.6478 11.0445C33.2885 11.0338 32.922 11.0284 32.5627 11.0579C32.2361 11.0846 32.0147 11.015 31.895 10.7955C31.7208 10.469 31.4014 10.3726 30.9441 10.402C30.4179 10.4342 29.8663 10.4797 29.4743 10.0594C29.2602 10.3726 29.0788 10.643 28.8973 10.908C29.3256 11.1703 29.4054 11.3416 29.1949 11.5557C28.9699 11.7833 28.7376 11.6601 28.4981 11.5209C28.3747 11.719 28.2731 11.8877 28.1679 12.059C27.9646 12.4016 27.9864 12.4257 28.3856 12.4739ZM27.0755 14.6207C27.3477 14.3289 27.4783 13.7373 27.3549 13.4723C27.3295 13.4161 27.2751 13.3626 27.2207 13.3171C26.8142 12.9852 26.4005 12.6532 25.9759 12.3079C26.0158 12.2678 26.0811 12.2142 26.1319 12.158C26.317 11.9573 26.259 11.6628 26.0013 11.4728C25.7364 11.28 25.446 11.3469 25.2174 11.4861C24.8763 11.6949 24.5605 11.9305 24.2593 12.1741C24.0525 12.3427 24.1287 12.4525 24.4371 12.4819C25.1484 12.5542 25.3589 12.6934 25.4642 13.2127C25.5005 13.3947 25.6057 13.5205 25.8235 13.6142C26.3678 13.8471 26.8832 14.0987 27.0755 14.6207ZM23.0508 39.9699C23.0726 39.9645 23.0944 39.9565 23.1198 39.9512C23.1125 39.9191 23.1125 39.8842 23.098 39.8548C22.8149 39.2659 22.5246 38.6824 22.2488 38.0908C21.4359 36.3562 19.9879 35.0018 17.8866 34.0114C16.787 33.4921 15.7345 32.9246 14.6567 32.3785C14.6458 32.3732 14.6168 32.3865 14.5805 32.3946C14.6748 32.4722 14.7547 32.5498 14.8527 32.6141C15.8216 33.219 16.7906 33.8213 17.7632 34.4236C18.5689 34.9215 19.4181 35.3846 20.1693 35.9253C21.0693 36.5704 21.5484 37.4243 22.0383 38.2621C22.3722 38.8323 22.7133 39.3997 23.0508 39.9699ZM24.5388 21.9631C24.84 21.9604 25.1739 21.84 25.613 21.5803C25.6819 21.5402 25.7726 21.492 25.8525 21.492C26.6654 21.4947 27.2424 21.1467 27.384 20.5417C27.1408 20.5417 26.8977 20.523 26.6654 20.5444C26.19 20.5899 25.8815 20.432 25.74 20.1188C25.5767 19.7574 25.4642 19.3827 25.3263 19.016C25.2827 18.9035 25.2319 18.7938 25.1847 18.6814C25.1339 18.6814 25.0831 18.6814 25.0359 18.6814C24.9997 18.8072 24.9343 18.933 24.9307 19.0588C24.9089 19.7815 24.9343 20.5043 24.8799 21.2243C24.8545 21.4733 24.6549 21.7169 24.5388 21.9631ZM27.5836 12.067C27.6162 12.0376 27.6416 12.0188 27.6562 11.9947C28.1025 11.3443 28.5852 10.7045 28.9808 10.038C29.1477 9.75426 29.1332 9.41162 29.2058 9.07435C28.8429 9.25904 28.5816 9.45177 28.2658 9.54011C27.8521 9.65788 27.6308 9.36612 27.3767 9.18142C27.2497 9.40627 27.159 9.63112 26.9957 9.82384C26.8759 9.96572 26.865 10.0808 26.9485 10.22C27.1082 10.4984 27.3186 10.7661 27.4166 11.0552C27.5255 11.3737 27.5291 11.711 27.5836 12.067ZM21.2544 9.94162C21.2834 9.92824 21.3125 9.91755 21.3415 9.90416C21.2617 9.70608 21.2109 9.49996 21.102 9.31258C20.8842 8.93783 20.6375 8.57647 19.9516 8.59789C19.8391 8.60056 19.712 8.56041 19.6104 8.5149C19.3201 8.38374 19.0697 8.4801 18.9753 8.65677C18.8411 8.90303 18.6269 9.02082 18.2604 9.04758C18.4745 9.40895 18.8737 9.57759 19.233 9.78102C19.5052 9.93628 19.8064 10.0996 19.977 10.311C20.1621 10.5439 20.3943 10.5787 20.6919 10.5734C20.975 10.5707 21.0766 10.4422 20.9859 10.2709C20.848 10.0139 20.6665 9.77032 20.2746 9.66324C20.0024 9.58829 19.7302 9.51067 19.4798 9.4036C19.3818 9.36077 19.3491 9.2403 19.2838 9.15465C19.4108 9.13323 19.5415 9.09576 19.6685 9.09309C19.7447 9.09041 19.8209 9.14128 19.8971 9.16804C20.4161 9.36077 20.9351 9.55081 21.2544 9.94162ZM21.3524 26.9446C21.2617 26.8616 21.2326 26.8161 21.1855 26.7974C20.4088 26.4708 19.2693 26.2272 18.2785 26.7305C17.912 26.9152 17.5564 27.1186 17.2152 27.3301C17.1027 27.3997 16.9612 27.5603 17.0011 27.6192C17.0773 27.7289 17.2551 27.8387 17.4185 27.8708C17.7995 27.9404 18.1261 27.8253 18.3947 27.6192C18.7757 27.3247 19.2403 27.1561 19.7883 27.1052C20.2854 27.0624 20.779 27.0035 21.3524 26.9446ZM20.9605 29.2493C20.4488 28.5239 20.9677 27.9297 21.1927 27.2658C20.3145 27.4184 19.3963 27.3247 18.656 27.8333C19.4689 28.2589 19.8608 29.0031 20.9605 29.2493ZM22.0129 29.5599C22.0129 29.4876 22.0274 29.434 22.0093 29.3859C21.8641 28.979 21.9294 28.6016 22.2234 28.2295C22.4194 27.9779 22.5536 27.6914 22.6589 27.4104C22.7823 27.0785 22.7932 26.7358 22.6516 26.3771C22.227 26.4922 22.0202 26.7091 21.8895 26.9419C21.6464 27.3863 21.4468 27.8467 21.2472 28.3018C21.0984 28.6364 21.4141 29.2975 21.8024 29.5036C21.8568 29.5358 21.9294 29.5411 22.0129 29.5599ZM25.3843 16.4168C25.7799 15.9644 26.2299 15.5843 26.8251 15.2925C26.8795 15.2658 26.8832 15.148 26.8614 15.0811C26.6509 14.5029 26.0485 14.195 25.3843 13.906C25.3843 14.7625 25.3843 15.5897 25.3843 16.4168ZM29.9897 26.8429C27.6562 28.5828 26.6908 30.8153 25.896 33.1066C27.1045 30.9652 28.215 28.7889 29.9897 26.8429ZM27.5291 14.8214C28.0154 14.6233 28.3566 14.3423 28.4945 13.9247C28.6142 13.5553 28.93 13.3224 29.478 13.2876C29.6631 13.2742 29.8409 13.1993 30.0151 13.1538C29.5832 13.0708 29.1804 12.9959 28.7775 12.9129C28.5453 12.8647 28.3275 12.7737 28.0917 12.7469C27.7759 12.7094 27.4493 12.7175 27.1263 12.7041C27.1045 12.7282 27.0864 12.7549 27.0646 12.779C28.2223 13.3519 27.9755 14.0693 27.5291 14.8214ZM19.7701 6.33063C19.8391 6.47518 19.9008 6.61972 19.9733 6.76159C20.1475 7.10154 20.3762 7.43079 20.4887 7.78145C20.6484 8.27666 21.1274 8.58449 21.5629 8.92445C21.6609 8.9994 21.8314 9.02081 22.0456 9.09041C21.9984 8.74778 21.9621 8.46136 21.9185 8.17495C21.8931 8.00363 21.7734 7.93671 21.5266 7.94207C21.1274 7.95277 20.9605 7.83232 20.8951 7.53787C20.8625 7.38797 20.8625 7.23272 20.8008 7.09085C20.6484 6.72413 20.3798 6.42432 19.7701 6.33063ZM21.7081 9.35541C21.7081 9.64985 21.748 9.91753 21.6972 10.1745C21.6536 10.386 21.7262 10.5171 21.9476 10.6296C22.4339 10.8732 22.9202 11.1194 23.4101 11.3657C23.4827 11.4005 23.5625 11.4272 23.7149 11.4861C23.1198 10.6938 22.8294 9.8292 21.7081 9.35541ZM27.1662 12.4203C26.9775 11.9492 26.8142 11.545 26.6473 11.1382C26.484 10.7393 25.9868 10.6483 25.5513 10.4422C25.5513 10.6617 25.5513 10.8196 25.5513 10.9802C26.3134 11.1408 26.6473 11.5156 26.6219 12.0777C26.611 12.3079 26.8432 12.34 27.1662 12.4203ZM25.5077 3.94294C25.6928 3.84925 25.8089 3.79304 25.9214 3.73148C26.2118 3.57087 26.6037 3.46915 26.4694 3.0944C26.4368 3.00071 26.5457 2.87489 26.5928 2.76514C26.6328 2.66342 26.6727 2.56439 26.709 2.47338C26.4114 2.56171 26.1464 2.63398 25.8924 2.71964C25.8271 2.74105 25.7545 2.79994 25.7436 2.8508C25.6638 3.19611 25.5948 3.54409 25.5077 3.94294ZM30.857 12.0456C30.251 11.901 29.7683 12.0295 29.3328 12.2651C29.2094 12.332 29.1622 12.4766 29.0788 12.5863C29.2312 12.6452 29.38 12.7175 29.5433 12.7549C29.634 12.7737 29.761 12.7442 29.8554 12.7121C30.2727 12.5756 30.5631 12.3374 30.857 12.0456ZM25.2464 9.52672C25.2029 10.0112 25.6166 10.311 26.4985 10.4556C26.4186 9.87204 25.9686 9.53208 25.2464 9.52672ZM28.4183 37.5046C28.4582 37.5313 28.4945 37.5608 28.5344 37.5876C29.7864 36.6962 31.0385 35.8021 32.2905 34.9108C32.2506 34.8813 32.2143 34.8519 32.1744 34.8224C30.9224 35.7165 29.6703 36.6105 28.4183 37.5046ZM19.6503 10.5305C18.9644 10.0407 18.2822 9.5535 17.5963 9.06364C18.0281 9.7382 18.91 10.3887 19.6503 10.5305ZM19.6939 6.99449C19.6503 7.0052 19.6104 7.01322 19.5669 7.02393C19.4217 7.57535 19.683 8.19101 20.1911 8.26597C20.0169 7.81894 19.8572 7.40671 19.6939 6.99449ZM21.846 20.1723C22.7932 20.5417 22.7786 20.4936 23.323 19.8351C22.804 19.9555 22.3613 20.0546 21.846 20.1723ZM22.1581 4.2588C22.1145 4.26683 22.071 4.27753 22.0238 4.28556C22.0855 4.52915 22.1327 4.7781 22.2234 5.01365C22.2488 5.0779 22.423 5.10735 22.5282 5.15285C22.5863 5.0779 22.6915 5.00294 22.6952 4.92799C22.7061 4.62819 22.4556 4.43011 22.1581 4.2588ZM24.5787 45.2405C24.3718 46.2443 24.4371 47.1812 24.7601 47.473C24.6948 46.686 24.6367 45.9632 24.5787 45.2405ZM27.1989 6.90347C26.5602 6.92221 26.4005 7.02393 26.3061 7.44151C26.8251 7.47898 26.9666 7.39868 27.1989 6.90347ZM23.9182 21.5857C23.7004 21.2377 23.4791 20.8924 23.2613 20.5444C23.2468 20.9727 23.4754 21.3153 23.9182 21.5857ZM25.0686 10.4475C25.0323 10.4449 24.996 10.4449 24.9597 10.4422C24.9597 10.6537 24.9597 10.8651 24.9597 11.0766C24.996 11.0766 25.0323 11.0766 25.0686 11.0766C25.0686 10.8705 25.0686 10.659 25.0686 10.4475ZM29.2276 11.2613C29.1078 11.1703 29.0243 11.1087 28.9409 11.0445C28.8719 11.1167 28.7594 11.1863 28.7449 11.264C28.7376 11.3175 28.8683 11.3818 28.9372 11.4433C29.0207 11.3925 29.1042 11.3416 29.2276 11.2613ZM24.6658 1.4776C24.39 1.79079 24.39 1.91928 24.6658 2.1361C24.6658 1.9059 24.6658 1.72655 24.6658 1.4776ZM23.2105 2.3101C23.1597 2.52692 23.1561 2.72231 23.6097 2.73034C23.45 2.56438 23.3303 2.43591 23.2105 2.3101Z" fill="#FFEB61"/>
<path d="M34.3123 16.912C34.1707 16.837 34.08 16.8103 34.0328 16.7567C33.9784 16.6952 33.9602 16.6122 33.9276 16.5372C33.6699 15.8921 33.1364 15.4371 32.2546 15.2256C32.0695 15.1828 31.8953 15.1399 31.8917 14.9606C31.888 14.7786 32.084 14.7705 32.2473 14.725C33.1401 14.4895 33.7606 14.0612 34.0002 13.3652C34.0437 13.2394 34.1163 13.1189 34.3231 13.1216C34.53 13.1243 34.5953 13.2367 34.6353 13.3706C34.8457 14.0692 35.4482 14.4975 36.3518 14.7116C36.5405 14.7571 36.6748 14.8214 36.6821 14.9766C36.6893 15.1372 36.5115 15.156 36.3591 15.1908C35.3937 15.4023 34.8385 15.8948 34.5627 16.5908C34.5264 16.6925 34.4175 16.7835 34.3123 16.912ZM34.2615 15.761C34.6316 15.4906 35.0308 15.1988 35.4409 14.9017C34.9582 14.7277 34.5772 14.452 34.3594 14.1147C33.9711 14.4092 33.5828 14.6983 33.238 14.9579C33.5719 15.2229 33.9276 15.5013 34.2615 15.761Z" fill="#FFEB61"/>
<path d="M18.9974 4.32013C18.9611 4.34422 18.8957 4.42185 18.805 4.44059C17.9377 4.63867 17.3751 5.03483 17.1792 5.70671C17.1574 5.78166 16.9977 5.87 16.8925 5.88339C16.8126 5.89142 16.6711 5.79772 16.6239 5.72545C16.5005 5.54075 16.4388 5.33463 16.3046 5.15529C16.0505 4.82069 15.6622 4.59584 15.1469 4.50483C14.9618 4.47271 14.7876 4.42454 14.7876 4.24787C14.7912 4.08458 14.9545 4.04711 15.1251 3.99625C15.8328 3.79549 16.3481 3.45286 16.5332 2.88805C16.5441 2.85058 16.5513 2.80239 16.5876 2.78097C16.6784 2.71941 16.7836 2.62573 16.8852 2.62573C16.9796 2.62573 17.1139 2.7087 17.1683 2.78097C17.2481 2.88537 17.2554 3.01922 17.3243 3.12629C17.6147 3.57599 18.0865 3.87312 18.7397 4.01231C18.9756 4.06317 19.001 4.08725 18.9974 4.32013ZM17.6328 4.26125C17.3824 4.0712 17.0885 3.84902 16.8852 3.69377C16.6747 3.85438 16.3735 4.0819 16.105 4.28801C16.3009 4.43523 16.6022 4.66276 16.8344 4.83675C17.1211 4.63064 17.4223 4.41115 17.6328 4.26125Z" fill="#FFEB61"/>
<path d="M29.3548 24.4713C29.2894 24.4124 29.1915 24.3588 29.1588 24.2919C28.9882 23.9145 28.7451 23.5772 28.2842 23.3524C28.1136 23.2694 27.9067 23.2239 27.7362 23.1382C27.6309 23.0874 27.5003 22.9937 27.4967 22.9187C27.493 22.8465 27.62 22.7287 27.7217 22.6992C28.433 22.5065 28.9229 22.1665 29.1697 21.6312C29.206 21.5509 29.362 21.4438 29.4491 21.4492C29.5507 21.4572 29.685 21.5669 29.7177 21.6499C29.91 22.1799 30.3927 22.4985 31.0568 22.6912C31.2092 22.734 31.3363 22.7715 31.3326 22.9134C31.329 23.0472 31.2165 23.1088 31.0641 23.1489C30.3274 23.3417 29.881 23.7298 29.685 24.2785C29.6415 24.3909 29.5834 24.4552 29.3548 24.4713ZM30.0624 22.908C29.8955 22.7715 29.6378 22.56 29.3983 22.3619C29.1443 22.5413 28.8757 22.7313 28.6834 22.8652C28.9302 23.0552 29.1951 23.2613 29.4128 23.4273C29.6052 23.2721 29.8628 23.0659 30.0624 22.908Z" fill="#FFEB61"/>
<path d="M13.4446 23.8474C12.2434 23.8394 11.3071 23.1273 11.318 22.2279C11.3289 21.3633 12.3196 20.662 13.5136 20.6727C14.7148 20.6861 15.6547 21.3928 15.6439 22.2734C15.6257 23.1648 14.664 23.8528 13.4446 23.8474ZM13.4736 23.2933C14.2321 23.2906 14.8854 22.8142 14.8781 22.2627C14.8709 21.7167 14.2285 21.2482 13.4882 21.2482C12.7261 21.2482 12.0656 21.722 12.0728 22.2681C12.0801 22.8356 12.7115 23.296 13.4736 23.2933Z" fill="#FFEB61"/>
<path d="M31.0785 3.27112C31.0785 3.81184 30.5523 4.2187 29.8483 4.22138C29.1115 4.22406 28.5454 3.81184 28.5454 3.2738C28.5454 2.73309 29.1007 2.32087 29.8156 2.32622C30.5596 2.33158 31.0785 2.72238 31.0785 3.27112ZM30.4071 3.27916C30.4108 3.03022 30.1458 2.82945 29.8083 2.82945C29.4999 2.82945 29.2386 3.02754 29.2277 3.2738C29.2168 3.51739 29.4708 3.71814 29.7938 3.71814C30.1313 3.71814 30.4035 3.52543 30.4071 3.27916Z" fill="#FFEB61"/>
<path d="M29.2531 34.1104C28.5672 34.1077 28.0265 33.6874 28.0338 33.1628C28.041 32.6274 28.56 32.2527 29.2931 32.25C29.9862 32.2473 30.5306 32.6489 30.5342 33.1575C30.5342 33.6955 29.9753 34.1104 29.2531 34.1104ZM29.8519 33.1548C29.8519 32.9326 29.5906 32.7533 29.2677 32.7533C28.9592 32.7533 28.7124 32.9433 28.7124 33.1789C28.7124 33.4144 28.9338 33.5831 29.2459 33.5884C29.6015 33.5911 29.8519 33.4117 29.8519 33.1548Z" fill="#FFEB61"/>
</svg>
