<svg width="48" height="48" viewBox="0 0 48 48" fill="none" xmlns="http://www.w3.org/2000/svg">
<path d="M22.9625 35.8363C22.6166 32.5334 22.5511 29.2333 22.9337 25.8707C22.8393 25.9495 22.7843 25.9956 22.7266 26.0418C22.4908 26.2374 22.2733 26.4601 22.0191 26.6231C21.4321 26.9979 20.8215 26.8404 20.452 26.2374C20.0118 25.5176 19.9934 24.7163 20.072 23.9069C20.1245 23.3637 20.2188 22.8259 20.3 22.2636C19.9672 22.5407 19.6764 22.834 19.3383 23.0432C18.9819 23.2632 18.5915 23.4615 18.1905 23.5647C17.4908 23.744 16.8698 23.2279 16.9012 22.4837C16.9169 22.0708 17.082 21.6634 17.2 21.2587C17.2419 21.1147 17.3388 20.9871 17.4096 20.8594C16.9851 21.0142 16.571 21.1989 16.1413 21.313C15.8661 21.3863 15.5595 21.4026 15.2791 21.3619C14.5663 21.2587 14.1261 20.5851 14.2676 19.8517C14.3777 19.2867 14.6109 18.787 15.0223 18.385C15.0669 18.3415 15.1088 18.2981 15.1481 18.2519C15.1586 18.2383 15.1559 18.2139 15.1638 18.1731C14.8362 18.1514 14.5061 18.165 14.189 18.1025C13.8771 18.0427 13.5574 17.9504 13.2823 17.7956C12.5433 17.3773 12.4201 16.6439 12.9547 15.9595C13.3373 15.4678 13.8562 15.169 14.4039 14.9164C14.6214 14.8159 14.8467 14.729 15.1533 14.6014C14.9227 14.5172 14.7629 14.4737 14.6161 14.4058C14.3331 14.2727 14.0317 14.1614 13.7854 13.9739C13.1879 13.5258 13.1644 12.8739 13.7068 12.3551C14.1104 11.9667 14.624 11.8064 15.1402 11.6598C15.2529 11.6272 15.3682 11.6082 15.5307 11.5701C15.3472 11.4479 15.1769 11.3719 15.0537 11.2442C14.7445 10.9237 14.396 10.6195 14.1706 10.2392C13.8116 9.63624 14.0239 9.04412 14.6423 8.73176C15.2136 8.44113 15.8268 8.41397 16.4426 8.49817C16.8095 8.54978 17.1685 8.65842 17.5328 8.73991C17.6088 8.75621 17.6848 8.76979 17.7922 8.79152C17.6166 8.44385 17.4463 8.13964 17.3074 7.82185C17.2026 7.57739 17.1161 7.31664 17.0637 7.05318C16.8907 6.19216 17.4961 5.55386 18.3425 5.67608C18.9374 5.76029 19.4484 6.04548 19.941 6.37685C20.0747 6.46648 20.2057 6.55884 20.3865 6.68649C20.3158 6.26549 20.2424 5.90696 20.1978 5.543C20.0956 4.69284 20.0275 3.83453 20.2345 2.99252C20.3131 2.67473 20.4415 2.35422 20.6171 2.08261C21.0547 1.40628 21.8252 1.2895 22.4672 1.77569C22.9677 2.15595 23.3058 2.67473 23.5547 3.25327C23.7486 3.70687 23.8954 4.18492 24.071 4.67654C24.1601 4.4511 24.2177 4.22837 24.3304 4.03824C24.5217 3.7123 24.7078 3.36735 24.9672 3.10117C25.452 2.60139 26.0495 2.64214 26.4452 3.21525C26.6705 3.54119 26.7832 3.95675 26.93 4.33973C26.9797 4.47282 26.9771 4.62493 27.0138 4.86124C27.0872 4.69012 27.1317 4.59234 27.171 4.49455C27.5039 3.69057 27.9362 2.9545 28.5416 2.34065C28.6988 2.18039 28.8718 2.031 29.0552 1.90878C29.8702 1.3574 30.7087 1.66432 31.0337 2.62041C31.2538 3.26685 31.1778 3.92145 31.0704 4.57061C30.9734 5.14372 30.8319 5.70597 30.7009 6.3171C30.7952 6.25735 30.8817 6.20302 30.9656 6.14869C31.5735 5.75485 32.2182 5.48324 32.9545 5.52126C33.7748 5.56472 34.2517 6.2166 34.008 7.02601C33.8927 7.40628 33.6647 7.75123 33.4813 8.10705C33.4131 8.24286 33.3267 8.3678 33.2061 8.57151C33.4629 8.51718 33.6437 8.46557 33.8246 8.44113C34.5006 8.35964 35.1767 8.25644 35.8555 8.22656C36.1201 8.21298 36.4084 8.3352 36.66 8.45472C37.247 8.73176 37.4409 9.25055 37.2181 9.8807C37.0242 10.4266 36.6469 10.8422 36.2171 11.1899C35.8214 11.5104 35.3864 11.7739 34.9671 12.0618C34.878 12.1242 34.781 12.1731 34.6605 12.241C34.9645 12.3524 35.2449 12.4257 35.4964 12.5588C35.7349 12.6838 35.9681 12.844 36.1594 13.0369C36.6207 13.4986 36.6207 14.1614 36.1699 14.6584C35.5908 15.2994 34.8177 15.4841 34.0211 15.6091C33.8743 15.6335 33.7276 15.6471 33.5258 15.6743C33.7119 15.8236 33.8822 15.9106 33.987 16.0518C34.1914 16.3261 34.4404 16.6086 34.5242 16.9264C34.7391 17.7576 34.2045 18.3741 33.2716 18.4094C32.8943 18.423 32.5169 18.3524 32.0871 18.3171C32.1789 18.4203 32.2496 18.4991 32.3178 18.5778C32.7606 19.083 33.1747 19.6127 33.366 20.2781C33.4472 20.5606 33.4813 20.8784 33.4446 21.1663C33.3764 21.696 32.9362 22.0246 32.3571 22.0626C31.4897 22.117 30.7454 21.7693 30.0405 21.3021C29.9567 21.2478 29.8754 21.188 29.7365 21.093C29.8047 21.5004 29.8649 21.8508 29.9226 22.2012C30.051 22.9889 30.0929 23.7765 29.8964 24.5615C29.7758 25.0396 29.5845 25.4986 29.0762 25.6317C28.5809 25.7621 28.1773 25.485 27.8891 25.1102C27.5536 24.6756 27.2863 24.1812 26.9955 23.7086C26.9378 23.6163 26.9011 23.5104 26.7937 23.418C26.7753 23.5484 26.7622 23.6788 26.7387 23.8064C26.5683 24.662 26.4452 25.5393 25.8346 26.2184C25.7874 26.27 25.7874 26.3732 25.7822 26.4547C25.6276 29.1138 25.6354 31.7729 25.832 34.4293C25.9184 35.6054 26.0049 36.7788 26.0914 37.9549C26.1045 38.126 26.1281 38.2971 26.2015 38.4764C26.3351 38.1667 26.4635 37.8544 26.6024 37.5502C27.9677 34.5706 30.0667 32.2673 32.7475 30.5371C33.9923 29.7331 35.313 29.0568 36.6049 28.337C36.7071 28.2799 36.901 28.2636 36.9744 28.3261C37.0819 28.4185 37.1945 28.6086 37.1762 28.739C36.6154 32.4682 35.6117 36.0454 33.6464 39.2668C31.8854 42.1513 29.333 43.9033 26.1621 44.7208C25.9473 44.7779 25.9027 44.8566 25.963 45.0604C26.1438 45.7014 26.3141 46.3424 26.4897 46.9861C26.5212 47.1056 26.5578 47.2251 26.584 47.3474C26.6312 47.5755 26.584 47.7711 26.3508 47.8526C26.115 47.934 25.942 47.8145 25.8739 47.5918C25.6511 46.8774 25.4336 46.1631 25.245 45.4406C25.1637 45.1283 25.0615 44.9897 24.713 44.9245C21.364 44.3025 18.809 42.442 17.0322 39.4488C15.9683 37.6561 15.4075 35.6597 15.0511 33.609C14.8258 32.308 14.6947 30.9879 14.5401 29.676C14.4746 29.1328 14.7655 28.9074 15.2581 29.1056C18.4657 30.3958 21.0888 32.4085 22.7502 35.6108C22.7948 35.6978 22.8498 35.7792 22.8996 35.8634C22.9101 35.8471 22.9363 35.8417 22.9625 35.8363ZM26.5421 43.686C26.55 43.705 26.5605 43.724 26.5683 43.743C26.7753 43.6833 26.9876 43.6317 27.192 43.561C29.8073 42.6348 31.7884 40.8965 33.214 38.4682C34.4902 36.2926 35.2711 33.9051 35.8659 31.4497C36.0284 30.7761 36.1621 30.0943 36.3193 29.3555C36.1856 29.4153 36.1123 29.4424 36.0468 29.4805C35.465 29.8091 34.878 30.1351 34.2989 30.4719C31.8592 31.8897 29.7523 33.696 28.2297 36.1649C27.0426 38.088 26.3037 40.1685 26.191 42.4664C26.1857 42.5696 26.191 42.6728 26.191 42.8603C26.322 42.7136 26.3875 42.6511 26.4452 42.5778C27.1579 41.6461 27.876 40.7199 28.573 39.7774C28.6778 39.6362 28.7329 39.4189 28.7276 39.2369C28.7145 38.6964 28.6543 38.1559 28.6228 37.6154C28.6097 37.3981 28.6805 37.2134 28.9163 37.1781C29.1391 37.1455 29.291 37.2813 29.3487 37.485C29.3985 37.6615 29.3932 37.8544 29.4064 38.0391C29.4142 38.1559 29.409 38.2727 29.409 38.3895C29.4352 38.3976 29.4614 38.4058 29.4902 38.4139C29.5531 38.327 29.6212 38.2428 29.6815 38.1532C30.0169 37.6588 30.334 37.1482 30.6852 36.6674C31.1831 35.9857 31.6941 35.3148 32.2208 34.6575C32.4409 34.3831 32.779 34.4619 32.8681 34.8041C32.8995 34.9237 32.834 35.1056 32.7554 35.217C32.0898 36.1459 31.4137 37.0667 30.7402 37.9902C30.659 38.1016 30.5908 38.2183 30.4703 38.4112C30.7297 38.3134 30.8948 38.2455 31.0651 38.1912C31.377 38.0907 31.5473 38.1586 31.639 38.4058C31.7334 38.6638 31.6574 38.8078 31.3403 38.9436C30.8372 39.1581 30.3288 39.3564 29.8335 39.5846C29.6867 39.6525 29.5479 39.772 29.4483 39.9051C28.7381 40.8503 28.0463 41.8118 27.3335 42.757C27.0819 43.0748 26.8042 43.3736 26.5421 43.686ZM20.5464 39.0549C20.2791 38.585 20.0563 38.1939 19.8336 37.7973C19.2413 36.7435 18.6439 35.6923 18.0595 34.633C17.9101 34.3641 17.9704 34.1821 18.2115 34.0246C18.4604 33.8616 18.6046 34.0056 18.7303 34.2066C18.7749 34.2772 18.8116 34.3505 18.8535 34.4212C19.7183 35.9857 20.5778 37.5556 21.4531 39.1147C22.2078 40.4592 23.0123 41.7711 24.0631 42.8983C24.1837 43.0287 24.3173 43.1455 24.5034 43.3274C24.3094 42.6077 24.1339 41.9802 23.9688 41.3501C23.7067 40.3451 23.5364 39.3021 23.1695 38.3379C22.5615 36.7435 21.7256 35.2604 20.6984 33.9105C19.3252 32.1097 17.5066 30.9445 15.5045 30.0454C15.4547 30.0237 15.3944 30.0237 15.3132 30.0101C15.321 30.1568 15.3184 30.2817 15.3315 30.404C15.5752 32.6258 15.9631 34.8123 16.7099 36.9227C17.787 39.9594 19.7261 42.1541 22.5746 43.4795C23.007 43.6805 23.4604 43.8326 23.9059 44.0092C23.7067 43.6833 23.4473 43.4497 23.2455 43.1699C22.5589 42.2192 21.8855 41.2577 21.2303 40.2853C21.0783 40.0599 20.9211 39.9295 20.659 39.9024C20.3184 39.8671 19.9803 39.81 19.6423 39.7611C19.4038 39.7285 19.202 39.647 19.2151 39.3428C19.2256 39.0984 19.4143 38.9599 19.7183 38.9762C19.9646 38.987 20.2109 39.0196 20.5464 39.0549ZM24.5636 10.777C22.42 10.7363 21.0547 12.7408 21.0652 14.4058C21.0757 16.1442 22.7293 17.6869 24.561 17.6706C26.419 17.6516 28.0908 15.9757 28.062 14.1614C28.0332 12.3388 26.3928 10.7553 24.5636 10.777ZM23.8482 25.1265C23.8194 25.1346 23.788 25.1428 23.7591 25.1482C23.5862 27.1799 23.332 29.2116 23.442 31.2568C23.5521 33.3048 23.7067 35.3555 23.9242 37.3954C24.1391 39.4189 24.7706 41.3501 25.2974 43.2976C25.3812 42.6647 25.4048 42.0373 25.5018 41.4207C25.5987 40.8177 25.6223 40.231 25.5044 39.6253C25.3943 39.0658 25.3367 38.49 25.3 37.9196C25.1716 35.9232 25.0458 33.9241 24.9488 31.925C24.9069 31.0423 24.9174 30.1541 24.9279 29.2686C24.9384 28.3397 24.975 27.4135 25.0065 26.4846C25.0117 26.3107 24.9882 26.2102 24.7916 26.1505C24.4274 26.0391 24.1968 25.7403 24.0107 25.4062C23.9583 25.3166 23.9033 25.2215 23.8482 25.1265ZM27.2182 10.9074C27.4305 10.6141 27.6558 10.3234 27.8629 10.0192C28.9871 8.37051 29.9016 6.61587 30.2737 4.61135C30.3655 4.11701 30.4021 3.59279 30.3602 3.09302C30.3026 2.39497 29.8099 2.19397 29.3277 2.67202C28.9268 3.07129 28.5521 3.52489 28.2612 4.0138C27.4305 5.41805 26.8828 6.95268 26.4347 8.52533C26.2748 9.09029 26.1543 9.66612 26.0233 10.2012C26.453 10.4565 26.8173 10.6711 27.2182 10.9074ZM22.5353 18.059C22.0951 19.3709 21.6182 20.7372 21.1832 22.1197C20.9185 22.9644 20.7927 23.8417 20.8268 24.7381C20.8425 25.1373 20.908 25.523 21.1491 25.8571C21.2722 26.0282 21.4216 26.0989 21.5841 25.9766C21.8723 25.7593 22.179 25.5421 22.4069 25.265C23.0725 24.461 23.4499 23.4941 23.7513 22.4945C24.1208 21.2723 24.3147 20.0228 24.3042 18.7408C24.3042 18.5914 24.3094 18.4692 24.105 18.4284C23.5914 18.3279 23.0804 18.1894 22.5353 18.059ZM22.593 10.4647C22.8734 10.356 23.1119 10.2419 23.3634 10.174C23.5547 10.1251 23.5967 10.0165 23.5967 9.83995C23.5967 9.28857 23.5914 8.73448 23.6124 8.1831C23.6569 7.08306 23.5967 5.9993 23.3032 4.93457C23.0778 4.11972 22.8105 3.32389 22.2864 2.65572C22.1161 2.43843 21.9248 2.20756 21.6103 2.26731C21.2906 2.32707 21.1465 2.59325 21.0757 2.88116C20.9866 3.24241 20.9054 3.6118 20.887 3.98392C20.7717 6.33068 21.6548 8.39496 22.593 10.4647ZM28.3581 12.3497C28.5442 12.5344 28.4813 12.825 28.7879 12.7598C29.8125 12.5507 30.8398 12.3497 31.867 12.1487C32.9991 11.926 34.1207 11.6543 35.0929 10.9889C35.5489 10.6792 35.9708 10.2881 36.3298 9.8644C36.7071 9.42167 36.5787 9.13647 36.0205 9.03326C35.7664 8.98708 35.4991 8.96263 35.2423 8.98708C34.0106 9.11202 32.8104 9.4108 31.7412 10.0654C30.6013 10.7607 29.519 11.5593 28.3581 12.3497ZM14.8205 17.418C14.8258 17.3963 14.831 17.3746 14.8362 17.3528C14.9568 17.3474 15.0773 17.342 15.1979 17.3338C16.5501 17.2415 17.7739 16.7145 18.9636 16.0953C19.3933 15.8698 19.7943 15.5901 20.2188 15.3538C20.5018 15.1962 20.3367 14.9708 20.3131 14.7806C20.3053 14.7263 20.1087 14.6584 20.0039 14.6638C19.3907 14.6964 18.7801 14.7372 18.1696 14.7969C17.0244 14.9083 15.8871 15.0876 14.8441 15.6118C14.3646 15.8535 13.9243 16.1958 13.505 16.5434C13.2587 16.7471 13.3085 16.9807 13.6098 17.0921C14.0003 17.236 14.4143 17.3121 14.8205 17.418ZM32.4566 14.8594C33.6542 14.8513 34.4849 14.7888 35.2554 14.4004C35.4886 14.2836 35.7978 14.1342 35.7375 13.8381C35.6956 13.6317 35.4571 13.409 35.2527 13.3058C34.4247 12.8793 33.5337 12.6973 32.6191 12.8332C31.5264 12.9934 30.4415 13.2188 29.3566 13.4226C28.7538 13.5339 28.746 13.5394 28.8141 14.194C28.822 14.2754 28.9373 14.3949 29.0185 14.4112C29.3146 14.4656 29.6186 14.4764 29.9174 14.5172C30.8791 14.6421 31.8434 14.7752 32.4566 14.8594ZM20.6931 16.0817C19.4457 16.7064 18.2193 17.2768 17.0322 17.9287C16.4819 18.2302 15.9762 18.6512 15.515 19.0885C15.2713 19.3193 15.1271 19.686 15.004 20.0201C14.8965 20.3053 15.0406 20.5009 15.3341 20.5633C15.4599 20.5905 15.5936 20.5905 15.722 20.5769C16.364 20.5036 16.9405 20.2374 17.4935 19.9142C18.7618 19.1754 19.713 18.0699 20.6564 16.959C21.0102 16.5434 21.0023 16.5353 20.6905 16.079C20.6853 16.0735 20.6748 16.0681 20.6931 16.0817ZM32.0321 21.2886C32.6034 21.2886 32.8288 21.0088 32.661 20.6312C32.475 20.2102 32.2496 19.792 31.964 19.4389C31.0416 18.3008 29.8649 17.5077 28.5756 16.8829C28.0594 16.6331 28.0725 16.6303 27.7214 17.0541C27.5982 17.2035 27.5982 17.3012 27.7135 17.4533C27.9205 17.7222 28.1092 18.0074 28.3005 18.2872C29.0395 19.3709 29.8571 20.3705 31.052 20.9409C31.4137 21.1147 31.8068 21.2098 32.0321 21.2886ZM26.9221 17.7195C26.8513 17.8472 26.7098 17.9857 26.7203 18.1106C26.7884 18.9499 26.8723 19.7919 26.985 20.6258C27.1422 21.7883 27.4121 22.921 27.9965 23.9422C28.1485 24.2084 28.3477 24.4529 28.5599 24.6702C28.8089 24.9201 29.0159 24.8521 29.1155 24.5126C29.1679 24.3361 29.202 24.1487 29.2229 23.964C29.3487 22.8856 29.1443 21.8454 28.8665 20.8187C28.78 20.5009 28.7014 20.1559 28.5232 19.8924C28.0358 19.1699 27.4934 18.4855 26.9221 17.7195ZM28.0044 11.6951C28.9399 11.0052 29.8309 10.3289 30.7402 9.6797C31.5264 9.11745 32.2024 8.44113 32.7921 7.66974C32.9886 7.41171 33.1511 7.11837 33.2821 6.81687C33.3974 6.55069 33.29 6.37685 33.0201 6.30352C32.9047 6.27364 32.7737 6.24919 32.6637 6.27907C31.5473 6.58328 30.5568 7.11022 29.8964 8.13149C29.3932 8.90831 28.9478 9.72587 28.4577 10.5136C28.2586 10.8341 28.0122 11.122 27.7816 11.4316C27.8681 11.5321 27.9389 11.6163 28.0044 11.6951ZM20.5306 12.9337C20.038 12.8114 19.5558 12.6811 19.0684 12.5724C18.0149 12.3388 16.9589 12.0536 15.8766 12.2954C15.3446 12.4149 14.8231 12.6294 14.3226 12.8576C14.0265 12.9934 14.0527 13.2379 14.3357 13.4171C14.4301 13.4769 14.5323 13.5258 14.6318 13.5692C15.5674 13.9685 16.5579 14.107 17.5537 14.0962C18.4054 14.0853 19.2571 13.9794 20.1087 13.906C20.1821 13.9006 20.2948 13.8408 20.3131 13.7811C20.3996 13.5122 20.4546 13.2379 20.5306 12.9337ZM25.0956 18.4312C25.0904 18.4963 25.0851 18.548 25.0851 18.5968C25.0982 20.1423 24.8755 21.6525 24.3776 23.1084C24.2439 23.5022 24.2282 23.8662 24.3881 24.2274C24.5531 24.6023 24.7287 24.9825 24.9619 25.3139C25.1716 25.61 25.4179 25.5502 25.5542 25.2134C25.6485 24.9852 25.7219 24.7435 25.7795 24.5018C26.1464 22.9834 26.2906 21.4488 26.1333 19.887C26.0783 19.3438 26.0075 18.8006 25.9446 18.241C25.6302 18.3116 25.3681 18.3714 25.0956 18.4312ZM21.5107 17.2279C20.5568 18.2437 19.5846 19.2378 18.6622 20.2809C18.18 20.8268 17.8184 21.4787 17.6795 22.2229C17.6481 22.3886 17.6585 22.6602 17.7529 22.7254C17.8787 22.815 18.1407 22.8177 18.2796 22.739C18.7068 22.4945 19.1391 22.2365 19.5086 21.9078C20.6695 20.8757 21.2985 19.4986 21.7728 18.0292C21.9326 17.5403 21.9326 17.5403 21.5107 17.2279ZM15.8766 9.2424C15.7115 9.26413 15.4494 9.28042 15.1979 9.34018C14.7367 9.45154 14.6397 9.73402 14.9568 10.1034C15.1664 10.3479 15.4101 10.5923 15.6879 10.7363C16.1596 10.9835 16.6575 11.2035 17.1659 11.3393C18.3032 11.6408 19.4536 11.8852 20.5988 12.146C20.6879 12.1677 20.7901 12.1297 20.887 12.1215C20.8556 12.0156 20.853 11.8798 20.7848 11.8119C20.4546 11.4751 20.1009 11.1654 19.7707 10.8341C18.712 9.77205 17.4096 9.35104 15.8766 9.2424ZM25.2921 10.0219C25.4258 9.43524 25.5306 8.88386 25.6826 8.34606C25.9787 7.29219 26.2801 6.24105 26.1883 5.12742C26.1543 4.70642 26.0835 4.27998 25.963 3.87799C25.8529 3.51403 25.5856 3.476 25.3524 3.77206C25.203 3.96219 25.1008 4.19849 25.0117 4.42665C24.3173 6.18944 24.2937 8.04186 24.3618 9.90242C24.3618 9.91872 24.3854 9.93502 24.4012 9.95403C24.6947 9.97848 24.9934 10.0002 25.2921 10.0219ZM21.4557 11.3746C21.5631 11.2659 21.6339 11.16 21.7335 11.0948C21.9745 10.9346 21.9483 10.7607 21.8252 10.5244C21.5579 10.0111 21.3063 9.48957 21.0705 8.95992C20.6224 7.95222 19.8755 7.24331 18.9636 6.71366C18.712 6.56699 18.4002 6.49636 18.1093 6.46377C17.8315 6.43389 17.6952 6.63217 17.7896 6.91193C17.9075 7.26232 18.0385 7.62085 18.2246 7.93593C19.0527 9.32932 20.3393 10.2555 21.4557 11.3746ZM28.4263 15.992C29.6448 16.5706 30.8319 17.1356 32.1081 17.4615C32.4566 17.5511 32.8209 17.5783 33.1799 17.6109C33.4341 17.6326 33.6699 17.5511 33.7852 17.2904C33.9058 17.016 33.7276 16.8259 33.552 16.6711C33.345 16.4918 33.1223 16.3289 32.8916 16.1795C31.6076 15.351 30.1506 15.313 28.7041 15.1881C28.6123 15.457 28.5259 15.7096 28.4263 15.992Z" fill="#FFEB61"/>
<path d="M11.7176 21.3701C11.6049 21.2859 11.5289 21.2533 11.4896 21.1935C11.445 21.1229 11.4293 21.0278 11.4057 20.9436C11.1961 20.2048 10.7611 19.6861 10.0457 19.4443C9.89629 19.3927 9.75478 19.3465 9.74954 19.1428C9.74692 18.9337 9.90677 18.9255 10.0404 18.8739C10.7663 18.605 11.2694 18.1134 11.466 17.3203C11.5027 17.1763 11.5603 17.0405 11.7307 17.0405C11.901 17.0432 11.9534 17.1736 11.9848 17.323C12.1552 18.1216 12.6478 18.6105 13.3816 18.8549C13.5362 18.9065 13.6436 18.9799 13.6489 19.1564C13.6541 19.3384 13.51 19.3628 13.3868 19.4009C12.6033 19.6426 12.1499 20.2049 11.9246 21.0007C11.8905 21.1229 11.8014 21.2234 11.7176 21.3701ZM11.6756 20.0555C11.977 19.7458 12.3019 19.4144 12.6347 19.0749C12.2417 18.8739 11.9324 18.5616 11.7569 18.1759C11.4398 18.51 11.1253 18.8413 10.8449 19.1401C11.1148 19.4416 11.4031 19.7594 11.6756 20.0555Z" fill="#FFEB61"/>
<path d="M19.2411 2.03376C19.2123 2.0582 19.1599 2.14784 19.0865 2.17228C18.3895 2.39501 17.9387 2.84318 17.7815 3.60099C17.7632 3.68519 17.6374 3.78568 17.5509 3.79926C17.4854 3.80741 17.3753 3.70148 17.336 3.61999C17.2364 3.41356 17.1893 3.17726 17.0792 2.97626C16.8748 2.59872 16.563 2.34612 16.1515 2.24291C16.0022 2.20488 15.8633 2.15056 15.8633 1.95228C15.8659 1.76758 15.9969 1.72412 16.1358 1.66979C16.7045 1.44164 17.1159 1.05866 17.2679 0.420361C17.2784 0.376902 17.2836 0.3253 17.3098 0.298139C17.3832 0.227519 17.467 0.124298 17.5483 0.121582C17.6243 0.121582 17.7317 0.216654 17.7763 0.298139C17.8392 0.414934 17.8444 0.564323 17.902 0.689266C18.1353 1.19719 18.5153 1.53127 19.0394 1.68881C19.2228 1.74585 19.2411 1.77301 19.2411 2.03376ZM18.1431 1.96857C17.944 1.754 17.7055 1.50139 17.543 1.32756C17.3727 1.50954 17.1342 1.76757 16.9167 1.99845C17.074 2.16685 17.3151 2.41945 17.5011 2.61773C17.7343 2.38414 17.978 2.13697 18.1431 1.96857Z" fill="#FFEB61"/>
<path d="M29.7731 47.5403C29.7181 47.4724 29.6395 47.4126 29.6133 47.3339C29.477 46.902 29.2779 46.5163 28.9031 46.261C28.7642 46.1659 28.5965 46.1143 28.4576 46.0165C28.3712 45.9568 28.2663 45.8536 28.2637 45.7639C28.2611 45.6797 28.3633 45.5466 28.4472 45.514C29.0263 45.294 29.4246 44.9056 29.6238 44.2918C29.6526 44.2021 29.781 44.0772 29.8491 44.0853C29.9304 44.0962 30.0431 44.2184 30.0666 44.3135C30.2239 44.9192 30.617 45.2832 31.1542 45.5032C31.2773 45.5548 31.3821 45.5955 31.3769 45.7558C31.3743 45.9079 31.2826 45.9785 31.1568 46.0247C30.5593 46.2447 30.195 46.6874 30.0378 47.3149C30.0064 47.4479 29.9566 47.5213 29.7731 47.5403ZM30.347 45.7531C30.2108 45.5955 30.0011 45.3538 29.8046 45.1284C29.5976 45.3321 29.3801 45.5494 29.2228 45.7042C29.422 45.9215 29.6395 46.1551 29.8151 46.3479C29.9775 46.1686 30.1872 45.935 30.347 45.7531Z" fill="#FFEB61"/>
<path d="M12.7289 35.437C12.0083 35.4316 11.4449 34.8313 11.4527 34.0735C11.4606 33.3456 12.0528 32.7534 12.7682 32.7643C13.4889 32.7752 14.0523 33.37 14.0444 34.1115C14.0366 34.8639 13.46 35.4451 12.7289 35.437ZM12.7473 34.9725C13.2032 34.9698 13.5937 34.5678 13.5884 34.1034C13.5832 33.6416 13.198 33.2478 12.7551 33.2478C12.2965 33.2478 11.9034 33.6471 11.9061 34.1061C11.9087 34.5841 12.2887 34.9753 12.7473 34.9725Z" fill="#FFEB61"/>
<path d="M36.6286 16.8042C36.6286 17.2252 36.3351 17.543 35.9446 17.5458C35.5358 17.5485 35.2188 17.2252 35.2188 16.807C35.2188 16.386 35.528 16.0627 35.9263 16.0654C36.3403 16.0709 36.6286 16.3724 36.6286 16.8042ZM36.2565 16.8097C36.2591 16.6168 36.1097 16.4593 35.9237 16.4593C35.7507 16.4593 35.6066 16.6141 35.6013 16.807C35.5961 16.9971 35.7376 17.1519 35.9158 17.1546C36.1019 17.1519 36.2539 17.0025 36.2565 16.8097Z" fill="#FFEB61"/>
<path d="M27.8681 29.4915C27.3099 29.4888 26.8697 29.008 26.8775 28.4078C26.8854 27.7966 27.3047 27.3675 27.8995 27.3648C28.463 27.362 28.9058 27.8211 28.9085 28.4023C28.9085 29.0189 28.4551 29.4942 27.8681 29.4915ZM28.3555 28.3996C28.3555 28.1443 28.1433 27.9406 27.8812 27.9406C27.6323 27.9406 27.4305 28.1579 27.4305 28.4268C27.4305 28.6957 27.6113 28.8885 27.8655 28.894C28.1511 28.8994 28.3555 28.6957 28.3555 28.3996Z" fill="#FFEB61"/>
<path d="M36.3191 7.238C36.2064 7.1538 36.1304 7.12121 36.0911 7.06145C36.0466 6.99083 36.0309 6.89576 36.0073 6.81156C35.7976 6.07277 35.3626 5.55399 34.6472 5.31225C34.4979 5.26064 34.3563 5.21446 34.3511 5.01075C34.3485 4.80161 34.5083 4.79346 34.642 4.74185C35.3679 4.47295 35.871 3.98133 36.0675 3.18821C36.1042 3.04425 36.1619 2.90845 36.3322 2.90845C36.5026 2.91116 36.555 3.04154 36.5864 3.19093C36.7567 3.98948 37.2494 4.47838 37.9832 4.72284C38.1378 4.77444 38.2452 4.84779 38.2504 5.02434C38.2557 5.20632 38.1116 5.23076 37.9884 5.26879C37.2049 5.51053 36.7515 6.07277 36.5261 6.86861C36.4921 6.99083 36.403 7.09404 36.3191 7.238ZM36.2772 5.92338C36.5786 5.61374 36.9035 5.28237 37.2363 4.94285C36.8432 4.74185 36.534 4.42949 36.3584 4.0438C36.0413 4.37789 35.7269 4.70926 35.4465 5.00804C35.719 5.30953 36.0073 5.62732 36.2772 5.92338Z" fill="#FFEB61"/>
<path d="M22.792 12.9554C23.2139 12.9554 23.2139 12.2764 22.792 12.2764C22.3727 12.2764 22.3701 12.9554 22.792 12.9554Z" fill="#FFEB61"/>
<path d="M23.5625 12.5235C23.9844 12.5235 23.9844 11.8445 23.5625 11.8445C23.1406 11.8445 23.1406 12.5235 23.5625 12.5235Z" fill="#FFEB61"/>
<path d="M24.7154 12.358C25.1373 12.358 25.1373 11.679 24.7154 11.679C24.2934 11.679 24.2934 12.358 24.7154 12.358Z" fill="#FFEB61"/>
<path d="M25.8682 12.8902C26.2901 12.8902 26.2901 12.2112 25.8682 12.2112C25.4463 12.2112 25.4463 12.8902 25.8682 12.8902Z" fill="#FFEB61"/>
<path d="M26.2852 14.2183C26.7071 14.2183 26.7071 13.5393 26.2852 13.5393C25.8633 13.5393 25.8633 14.2183 26.2852 14.2183Z" fill="#FFEB61"/>
<path d="M25.7085 15.4137C26.1304 15.4137 26.1304 14.7346 25.7085 14.7346C25.2866 14.7346 25.2866 15.4137 25.7085 15.4137Z" fill="#FFEB61"/>
<path d="M24.7154 16.2772C25.1373 16.2772 25.1373 15.5981 24.7154 15.5981C24.2934 15.5981 24.2934 16.2772 24.7154 16.2772Z" fill="#FFEB61"/>
<path d="M23.1143 16.4754C23.5362 16.4754 23.5362 15.7964 23.1143 15.7964C22.6924 15.7964 22.6924 16.4754 23.1143 16.4754Z" fill="#FFEB61"/>
<path d="M22.3125 15.4788C22.7344 15.4788 22.7344 14.7998 22.3125 14.7998C21.8906 14.7998 21.8906 15.4788 22.3125 15.4788Z" fill="#FFEB61"/>
<path d="M22.0557 14.2511C22.4776 14.2511 22.4776 13.572 22.0557 13.572C21.6338 13.572 21.6338 14.2511 22.0557 14.2511Z" fill="#FFEB61"/>
<path d="M23.3057 14.6178C23.7276 14.6178 23.7276 13.9387 23.3057 13.9387C22.8838 13.9387 22.8838 14.6178 23.3057 14.6178Z" fill="#FFEB61"/>
<path d="M23.5308 13.5882C23.9527 13.5882 23.9527 12.9092 23.5308 12.9092C23.1089 12.9092 23.1063 13.5882 23.5308 13.5882Z" fill="#FFEB61"/>
<path d="M24.4903 13.5203C24.9122 13.5203 24.9122 12.8413 24.4903 12.8413C24.071 12.8413 24.0683 13.5203 24.4903 13.5203Z" fill="#FFEB61"/>
<path d="M24.1704 14.8485C24.5923 14.8485 24.5923 14.1694 24.1704 14.1694C23.7485 14.1694 23.7485 14.8485 24.1704 14.8485Z" fill="#FFEB61"/>
<path d="M24.1387 15.6471C24.5606 15.6471 24.5606 14.968 24.1387 14.968C23.7168 14.968 23.7168 15.6471 24.1387 15.6471Z" fill="#FFEB61"/>
<path d="M25.3233 13.9198C25.7452 13.9198 25.7452 13.2407 25.3233 13.2407C24.9014 13.2407 24.9014 13.9198 25.3233 13.9198Z" fill="#FFEB61"/>
<path d="M26.9898 13.2542C27.4117 13.2542 27.4117 12.5752 26.9898 12.5752C26.5679 12.5752 26.5679 13.2542 26.9898 13.2542Z" fill="#FFEB61"/>
<path d="M27.0528 15.18C27.4747 15.18 27.4747 14.501 27.0528 14.501C26.6335 14.501 26.6308 15.18 27.0528 15.18Z" fill="#FFEB61"/>
<path d="M26.188 16.4102C26.6099 16.4102 26.6099 15.7312 26.188 15.7312C25.7687 15.7312 25.7661 16.4102 26.188 16.4102Z" fill="#FFEB61"/>
<path d="M25.0352 17.141C25.4571 17.141 25.4571 16.4619 25.0352 16.4619C24.6133 16.4619 24.6133 17.141 25.0352 17.141Z" fill="#FFEB61"/>
<path d="M23.9136 17.1737C24.3355 17.1737 24.3355 16.4946 23.9136 16.4946C23.4917 16.4946 23.4917 17.1737 23.9136 17.1737Z" fill="#FFEB61"/>
<path d="M25.6455 11.9259C26.0674 11.9259 26.0674 11.2468 25.6455 11.2468C25.2236 11.2468 25.221 11.9259 25.6455 11.9259Z" fill="#FFEB61"/>
<path d="M24.0733 11.7928C24.4952 11.7928 24.4952 11.1138 24.0733 11.1138C23.654 11.1138 23.6514 11.7928 24.0733 11.7928Z" fill="#FFEB61"/>
<path d="M22.792 13.7865C23.2139 13.7865 23.2139 13.1074 22.792 13.1074C22.3727 13.1074 22.3701 13.7865 22.792 13.7865Z" fill="#FFEB61"/>
<path d="M21.7671 15.0142C22.189 15.0142 22.189 14.3352 21.7671 14.3352C21.3452 14.3352 21.3452 15.0142 21.7671 15.0142Z" fill="#FFEB61"/>
</svg>
