<svg width="48" height="48" viewBox="0 0 48 48" fill="none" xmlns="http://www.w3.org/2000/svg">
<path d="M19.3849 31.1409C18.1143 32.0648 16.7322 32.1777 15.3129 32.0956C15.1766 32.0887 15.0371 32.0751 14.9008 32.0408C14.6838 31.9861 14.5816 31.8287 14.6033 31.5789C14.625 31.3189 14.7861 31.2607 14.9875 31.2573C15.6879 31.2436 16.3882 31.2709 17.0855 31.2025C17.5162 31.158 17.9563 31.0212 18.3591 30.8398C19.2888 30.4224 19.7041 29.5567 19.8156 28.513C19.9458 27.2915 19.608 26.1589 19.0936 25.105C18.7496 24.4036 18.3127 23.7569 17.9036 23.093C17.8695 23.0349 17.7239 23.0143 17.6526 23.0417C17.29 23.1717 17.2156 23.1581 17.0018 22.8125C16.6888 22.3095 16.2674 21.9605 15.7623 21.7209C15.5763 21.632 15.4369 21.632 15.3222 21.8407C15.2757 21.9297 15.2014 22.0049 15.1301 22.0699C14.8326 22.3471 14.6095 22.3266 14.3956 21.9707C14.061 21.413 13.5713 21.0948 13.0135 20.7868C12.8958 21.324 12.5859 21.3103 12.1861 21.2487C10.9094 21.0434 9.6326 21.1598 8.32176 21.2966C8.35275 21.3959 8.37445 21.4746 8.40234 21.5464C8.95704 22.898 9.59852 24.1983 10.4352 25.3651C10.5778 25.5635 10.5778 25.7415 10.46 25.9399C10.4228 26.0049 10.3794 26.0631 10.3299 26.1178C9.91461 26.5866 9.88672 26.6482 10.3392 27.0691C10.7172 27.4215 11.148 27.7158 11.588 27.9724C11.9475 28.1811 12.0374 28.2975 11.901 28.7218C11.8607 28.8484 11.8173 28.9716 11.7523 29.1734C12.2605 29.5293 12.7749 29.892 13.2924 30.2444C13.562 30.4258 13.6364 30.5798 13.5434 30.8432C13.4691 31.0588 13.3327 31.1512 13.1344 31.0588C12.3565 30.6824 11.6748 30.1486 11.0736 29.4917C10.8226 29.2179 11.0271 28.9647 11.1635 28.7115C11.1201 28.6739 11.0891 28.6294 11.0426 28.6089C10.2803 28.2496 9.74416 27.6063 9.27003 26.8911C8.98493 26.46 9.00972 26.3026 9.38469 25.9502C9.48385 25.8578 9.58302 25.7688 9.69458 25.6696C9.65429 25.5943 9.6264 25.5259 9.58612 25.4677C8.71842 24.2017 8.06456 22.8056 7.52225 21.3411C7.49126 21.2522 7.45717 21.1632 7.44477 21.0674C7.40139 20.8039 7.54394 20.5747 7.77016 20.5507C9.18326 20.3933 10.5964 20.2599 12.0188 20.4036C12.1582 20.4173 12.214 20.3762 12.2605 20.2325C12.3875 19.8492 12.4712 19.8013 12.8245 19.9108C13.593 20.1435 14.2562 20.5747 14.7768 21.235C14.8078 21.2248 14.8295 21.2248 14.8388 21.2145C15.1735 20.6978 15.3222 20.6534 15.8645 20.8895C16.4719 21.1529 16.9801 21.5738 17.3985 22.1144C17.8416 21.8954 17.8478 21.8886 18.1794 22.2787C19.3818 23.6987 20.2216 25.3343 20.5005 27.2744C20.6585 28.3625 20.5253 29.4061 19.9892 30.3642C19.9489 30.4326 19.9179 30.5627 19.952 30.6174C20.1968 31.0246 20.4602 31.4215 20.7453 31.8663C20.9591 31.0041 21.1544 30.2034 21.3558 29.4095C22.301 25.6662 23.5529 22.0494 24.9846 18.5079C25.0745 18.2889 25.0404 18.1418 24.9536 17.9297C24.6933 17.3001 24.4516 16.6568 24.2533 15.9998C24.1882 15.7808 24.275 15.5037 24.2936 15.2539C24.3184 15.247 24.34 15.2402 24.3648 15.2333C24.2843 15.1683 24.2037 15.0965 24.1231 15.0349C23.6862 14.7098 23.2399 14.3984 22.8123 14.0563C21.9415 13.3617 21.613 12.4002 21.6936 11.2334C21.771 10.0905 21.8361 8.94764 21.8702 7.80137C21.8826 7.34628 21.8175 6.88777 21.7494 6.4361C21.644 5.7415 21.3434 5.14269 20.9436 4.59864C20.8786 4.50967 20.8104 4.42071 20.7701 4.31806C20.6678 4.05459 20.7453 3.79112 20.9622 3.76374C22.2638 3.59608 23.5498 3.55502 24.6499 4.53363C25.3472 5.15296 25.8554 5.95022 26.2769 6.81592C26.3203 6.9083 26.3636 7.00069 26.4349 7.15124C26.469 7.02806 26.4907 6.95621 26.5062 6.88093C26.6921 5.95364 27.0888 5.16664 27.8077 4.61575C27.9317 4.51994 28.0866 4.44124 28.2323 4.42413C28.474 4.39676 28.5515 4.61575 28.6351 4.8279C28.9016 5.50198 29.1806 6.16579 29.4533 6.83645C29.5183 6.99727 29.602 7.05201 29.7539 6.95278C30.3272 6.58324 30.9128 6.23764 31.4769 5.84757C31.8394 5.59436 32.0904 5.63884 32.2547 6.08367C32.6018 7.03491 32.5336 7.98957 32.2609 8.94423C32.2361 9.03319 32.202 9.12215 32.1462 9.29324C32.2857 9.21112 32.3724 9.16664 32.4561 9.11531C33.2401 8.63285 34.0644 8.27699 34.9476 8.08537C35.6728 7.92797 36.37 8.00667 37.0239 8.35226C37.5755 8.64311 38.0992 9.0024 38.6168 9.36168C38.7376 9.44722 38.8616 9.68332 38.8368 9.82019C38.812 9.96048 38.6291 10.1316 38.4866 10.176C37.7119 10.4224 37.1324 10.963 36.6334 11.6269C35.9424 12.5473 35.4744 13.6149 34.9786 14.6653C34.7803 15.0896 34.5789 15.5105 34.3619 15.9245C33.8878 16.8244 33.1534 17.2932 32.2299 17.3309C31.5326 17.3582 30.8323 17.2932 30.135 17.2419C29.9615 17.2282 29.8809 17.2659 29.7848 17.4233C29.2456 18.3095 28.4492 18.8159 27.5629 19.1683C27.3894 19.2368 27.2995 19.3291 27.2282 19.5105C26.1498 22.3847 25.0745 25.2624 24.2006 28.2256C23.4259 30.8569 22.896 33.5498 22.6171 36.3009C22.614 36.318 22.6233 36.3385 22.6295 36.3762C22.6604 36.3591 22.6914 36.3488 22.7069 36.3283C23.3329 35.4523 23.9527 34.5729 24.588 33.7038C24.715 33.5293 24.7584 33.4198 24.6406 33.194C24.1851 32.3112 24.1138 31.3394 24.2409 30.3574C24.4113 29.0366 24.8421 27.8116 25.5083 26.6961C25.5982 26.5456 25.7625 26.395 25.9174 26.3505C26.1777 26.2752 26.3698 26.5524 26.2707 26.833C26.2118 27.0006 26.1157 27.1512 26.029 27.3052C25.2821 28.626 24.8483 30.0426 24.935 31.62C24.9939 32.7218 25.5641 33.5601 26.5279 33.8886C27.721 34.2923 28.9419 34.3505 30.1753 34.1589C30.3705 34.1281 30.5658 34.0631 30.7021 34.3163C30.8664 34.6208 30.7548 34.9253 30.4294 34.9733C29.5679 35.093 28.7064 35.1341 27.8418 35.028C26.9245 34.9151 26.0321 34.6995 25.2356 34.0699C24.7646 34.7064 24.2843 35.3086 23.8535 35.9519C23.3949 36.6362 22.9827 37.3548 22.5582 38.0631C22.5179 38.1281 22.5024 38.2239 22.5024 38.3026C22.4776 41.0947 22.8061 43.8252 23.7048 46.4531C23.8783 46.9561 23.7791 47.1717 23.3143 47.3257C22.8681 47.4762 22.4249 47.6405 21.9787 47.7944C21.5479 47.945 21.4209 47.88 21.2752 47.4146C20.7112 45.6217 20.3579 43.7739 20.1627 41.892C19.8652 39.0075 20.0821 36.1503 20.5067 33.3034C20.5191 33.2248 20.5284 33.1187 20.4912 33.0571C20.141 32.4138 19.7661 31.7842 19.3849 31.1409ZM25.6447 18.833C25.6137 18.9049 25.5796 18.9699 25.5548 19.0417C24.8483 21.0024 24.1014 22.9459 23.4414 24.9237C22.3103 28.3249 21.3837 31.7842 20.9839 35.4044C20.6306 38.5969 20.7019 41.7517 21.3837 44.8791C21.5355 45.5703 21.7308 46.2512 21.9136 46.9595C22.2824 46.8329 22.6109 46.7234 22.9455 46.6105C22.9269 46.5284 22.9207 46.4737 22.9022 46.4223C22.1894 44.1161 21.833 41.7414 21.7865 39.3086C21.7308 36.5472 22.1181 33.8441 22.7131 31.1717C23.5374 27.4797 24.7522 23.9382 26.1095 20.4515C26.2521 20.0853 26.3946 19.7192 26.531 19.3702C26.2242 19.1854 25.9484 19.0178 25.6447 18.833ZM36.7016 9.0503C36.6458 9.01608 36.6241 8.99555 36.5994 8.98871C36.5498 8.96817 36.5002 8.95449 36.4506 8.93738C35.6635 8.71155 34.9043 8.86895 34.1605 9.15979C32.9798 9.62515 31.9107 10.3334 30.8354 11.0281C30.7641 11.0725 30.7114 11.182 30.6835 11.2744C30.4263 12.1983 29.9367 12.9476 29.2797 13.5704C29.0721 13.7688 28.849 13.9502 28.6135 14.1555C29.0535 14.4053 29.4223 14.7064 29.6857 15.1546C29.7167 15.206 29.8406 15.2197 29.915 15.206C30.7579 15.0486 31.5574 14.7269 32.1617 14.0494C32.9054 13.2111 33.5841 12.3044 34.2876 11.4284C35.0065 10.5387 35.6387 9.55329 36.7016 9.0503ZM22.9362 4.45493C22.9238 4.48914 22.9145 4.52336 22.9022 4.55758C23.2492 4.99556 23.4507 5.33431 23.5467 5.93311C23.7141 6.97331 23.8194 8.0272 23.9775 9.07083C24.1262 10.046 24.2812 11.0246 24.4919 11.9861C24.6375 12.6534 24.997 13.2111 25.4712 13.6867C25.8554 13.3685 26.2831 13.4198 26.7076 13.4951C26.7107 13.4506 26.7169 13.4404 26.7138 13.4335C26.658 13.2727 26.6054 13.1119 26.5496 12.9511C26.1591 11.8082 26.0507 10.6756 26.5899 9.54303C26.6302 9.46091 26.6178 9.31719 26.5775 9.22823C26.2676 8.53362 25.9701 7.83558 25.623 7.16493C25.1706 6.29239 24.6685 5.44723 23.8597 4.91344C23.5715 4.72867 23.2461 4.6089 22.9362 4.45493ZM29.2301 8.04089C28.4151 8.43097 27.7458 8.98529 27.2902 9.80992C26.72 10.8364 26.9184 12.7047 27.6838 13.6286C27.7272 13.6799 27.8635 13.7004 27.9162 13.6662C28.4895 13.2659 29.0349 12.8245 29.4409 12.2154C29.8592 11.5892 30.104 10.898 29.9925 10.1008C29.8902 9.35825 29.6237 8.69102 29.2301 8.04089ZM30.0328 16.4652C30.7052 16.4891 31.3684 16.5404 32.0316 16.5336C32.8745 16.5233 33.4942 16.0717 33.8909 15.2539C34.0706 14.8843 34.238 14.5045 34.4177 14.1384C34.7896 13.3856 35.146 12.6192 35.555 11.8903C36.0292 11.0417 36.6025 10.2855 37.4485 9.79966C37.1324 9.72438 36.9154 9.74491 36.5808 10.0529C36.1159 10.4772 35.6666 10.9322 35.2668 11.425C34.5324 12.3249 33.8475 13.2761 33.1224 14.1863C32.3476 15.1581 31.3715 15.7569 30.2094 15.9724C30.135 15.9861 30.0668 16.0169 29.9894 16.0443C30.0018 16.1709 30.0142 16.2838 30.0328 16.4652ZM24.6344 14.4464C24.8359 14.1966 24.8421 14.1897 24.6592 13.9502C24.0766 13.1872 23.6893 12.3215 23.5529 11.3394C23.3794 10.0871 23.2616 8.82446 23.0788 7.57211C22.9796 6.89803 22.8216 6.2308 22.6449 5.57725C22.5489 5.22823 22.3444 4.92028 21.9973 4.77999C22.1181 5.07426 22.2576 5.34458 22.3475 5.63542C22.679 6.71669 22.6573 7.83559 22.5923 8.95107C22.5458 9.73122 22.4714 10.5114 22.4187 11.2915C22.3846 11.8356 22.4528 12.3659 22.7596 12.8142C23.2585 13.5396 23.9837 13.9399 24.6344 14.4464ZM29.1372 17.1427C28.5329 16.8621 28.0092 16.5644 27.4545 16.3694C26.7169 16.1127 25.9577 15.9348 25.2047 15.7363C25.0342 15.6919 24.9041 15.7569 24.9784 15.9998C25.2046 16.715 25.4681 17.4061 25.9174 17.9913C26.2645 18.4429 26.6704 18.6482 27.2251 18.4224C27.9131 18.1384 28.5453 17.7791 29.1372 17.1427ZM25.2976 14.8193C25.3131 14.8501 25.3286 14.8775 25.3472 14.9083C26.7324 15.1067 28.0092 15.6679 29.2673 16.3557C29.3107 15.8561 29.0969 15.5139 28.7777 15.2436C28.1734 14.7269 27.4823 14.4121 26.7324 14.2513C26.3884 14.176 26.0352 14.2103 25.7253 14.4087C25.5641 14.5114 25.4371 14.6825 25.2976 14.8193ZM30.0049 7.74662C30.2683 8.50282 30.5348 9.25902 30.7951 10.005C31.6349 9.24191 32.0099 7.4284 31.6597 6.77485C31.0988 7.10334 30.5379 7.43183 30.0049 7.74662ZM28.0742 5.49855C27.3522 5.86468 26.875 7.73294 27.2313 8.46861C27.7705 8.07853 28.3129 7.68503 28.8459 7.29837C28.6042 6.73037 28.3407 6.11446 28.0742 5.49855Z" fill="#FFEB61"/>
<path d="M36.8193 23.2883C36.2212 23.3602 35.6665 23.3876 35.1242 23.4971C34.0705 23.7092 33.0231 23.9556 31.9757 24.2053C31.7742 24.2533 31.6069 24.2464 31.4953 24.0616C31.3497 23.8221 31.1885 23.8666 31.0057 23.9761C30.5037 24.2738 30.0729 24.6639 29.7413 25.1805C29.3943 25.7212 29.2331 25.7349 28.7838 25.2935C28.4274 24.941 28.4088 24.9136 28.0059 25.225C27.7054 25.4577 27.4574 25.7725 27.1878 26.0497C27.1073 26.1318 27.0329 26.2755 26.9461 26.2892C26.8005 26.3131 26.6176 26.2926 26.4999 26.2071C26.4286 26.1557 26.4038 25.9196 26.4441 25.8136C26.5247 25.6083 26.6517 25.4201 26.7912 25.2524C27.2095 24.7562 27.724 24.4072 28.2849 24.1335C28.6753 23.9453 28.759 23.9624 29.0534 24.308C29.1123 24.3764 29.168 24.4483 29.2486 24.5441C29.3106 24.4722 29.3695 24.4072 29.4222 24.3388C29.9552 23.6545 30.6276 23.1994 31.3838 22.8914C31.7216 22.7545 31.9137 22.888 31.9788 23.326C32.1182 23.2918 32.2577 23.2644 32.3971 23.2267C33.9776 22.7716 35.589 22.5663 37.219 22.4945C37.6095 22.4774 37.7737 22.7237 37.6405 23.1344C37.2686 24.2977 36.7976 25.4132 36.2243 26.474C36.1189 26.669 36.0972 26.8093 36.2739 26.9564C36.5094 27.1549 36.4536 27.4012 36.3513 27.6544C35.8989 28.7905 35.245 29.7417 34.2596 30.4295C34.4021 30.6553 34.5323 30.8777 34.6748 31.0864C34.8019 31.2712 34.7833 31.4286 34.6593 31.6031C34.148 32.3217 33.5065 32.8657 32.7721 33.2763C32.5428 33.4064 32.3413 33.3311 32.236 33.1121C32.1337 32.9068 32.2081 32.6981 32.4281 32.5338C32.8372 32.2327 33.24 31.9248 33.646 31.6168C33.7606 31.5313 33.866 31.4354 33.9528 31.367C33.7637 31.0112 33.5995 30.7511 33.4879 30.4671C33.3547 30.1352 33.4322 29.8991 33.708 29.7793C34.2906 29.5261 34.6996 29.0574 35.0498 28.5167C35.2264 28.2464 35.3876 27.959 35.5301 27.6681C35.5673 27.5894 35.5239 27.4526 35.496 27.3499C35.4805 27.2917 35.4186 27.2507 35.3783 27.1994C35.1304 26.8914 35.1489 26.8332 35.3256 26.4774C35.809 25.4988 36.2739 24.5065 36.7418 23.5176C36.7728 23.4663 36.7821 23.4081 36.8193 23.2883Z" fill="#FFEB61"/>
<path d="M27.3271 30.4634C28.0957 29.9331 28.8115 29.4506 29.5119 28.9476C29.5987 28.886 29.6606 28.7218 29.6668 28.5986C29.7195 27.8013 29.8776 27.0315 30.1503 26.2924C30.206 26.135 30.2804 25.9468 30.3982 25.8715C30.5128 25.7962 30.7081 25.7962 30.8413 25.8441C30.9994 25.9023 31.0489 26.0665 30.987 26.2718C30.8134 26.8398 30.6554 27.4147 30.4942 27.9895C30.4787 28.0409 30.4787 28.0956 30.4695 28.1983C30.5593 28.1435 30.6182 28.1127 30.6709 28.0751C31.5448 27.4249 32.4187 26.7714 33.2957 26.1178C33.3669 26.0631 33.4413 26.0152 33.5188 25.9707C33.6954 25.8749 33.8628 25.8818 33.9712 26.0802C34.0766 26.2753 34.1045 26.4771 33.9092 26.6414C33.8411 26.6995 33.7698 26.7509 33.6954 26.8056C32.7472 27.5071 31.7989 28.2085 30.8506 28.9134C30.7731 28.9716 30.7019 29.0366 30.5841 29.1358C31.0056 29.2966 31.3867 29.4438 31.7679 29.5875C31.8826 29.632 31.9972 29.6696 32.115 29.7072C32.335 29.7791 32.3815 29.9536 32.3412 30.1794C32.2978 30.4224 32.146 30.5319 31.9445 30.484C31.6253 30.4087 31.3062 30.3163 30.9994 30.1863C30.6771 30.0494 30.3765 29.8578 30.0635 29.7004C30.0015 29.6696 29.9054 29.6491 29.8559 29.6833C29.0285 30.2684 28.2041 30.8638 27.3612 31.4728C28.1484 31.8663 28.9448 32.0785 29.7908 32.0101C30.0511 31.9895 30.1782 32.0716 30.206 32.3283C30.237 32.5917 30.1193 32.7936 29.8807 32.8142C29.6142 32.8381 29.3445 32.8381 29.078 32.8142C28.3498 32.7457 27.6432 32.561 26.9832 32.2051C26.8065 32.1093 26.633 31.9861 26.4935 31.8355C26.3324 31.661 26.289 31.4489 26.4688 31.2265C26.5276 31.1512 26.5617 31.0246 26.5617 30.9219C26.5617 29.8441 26.7415 28.7936 27.0018 27.7603C27.0328 27.6405 27.0699 27.5208 27.1257 27.4147C27.2249 27.2333 27.3581 27.0999 27.572 27.1854C27.7796 27.2676 27.8509 27.4523 27.7951 27.7192C27.6494 28.4172 27.5069 29.1119 27.3736 29.8133C27.3334 30.0118 27.3426 30.2205 27.3271 30.4634Z" fill="#FFEB61"/>
<path d="M17.4726 28.4413C16.732 27.846 15.9975 27.2472 15.2507 26.6621C15.1949 26.6176 15.074 26.6484 14.9966 26.6792C14.4574 26.8845 13.9274 27.1171 13.3851 27.3088C13.0659 27.4217 12.8583 27.2882 12.8118 27.0179C12.7684 26.7681 12.9203 26.5868 13.2116 26.4944C13.6361 26.3575 14.0576 26.2035 14.5348 26.0359C14.4264 25.9332 14.3799 25.8785 14.3241 25.8374C13.3758 25.1189 12.4276 24.4003 11.4793 23.6852C11.3058 23.5551 11.2314 23.3909 11.3305 23.1719C11.4328 22.9426 11.6497 22.8503 11.8512 22.9803C12.127 23.1582 12.3873 23.3669 12.6538 23.5586C12.7746 23.6441 12.8955 23.7296 13.069 23.7741C13.0288 23.6236 12.9885 23.473 12.9451 23.3225C12.911 23.2061 12.8645 23.0898 12.8304 22.9734C12.7591 22.7305 12.8459 22.556 13.0535 22.4704C13.255 22.3883 13.4285 22.4704 13.4967 22.6894C13.6392 23.1582 13.7849 23.6304 13.8748 24.1129C13.9336 24.4174 14.0421 24.6227 14.2745 24.7938C14.6185 25.047 14.9439 25.331 15.2755 25.6013C15.3065 25.5979 15.3344 25.5911 15.3653 25.5876C15.3746 25.1976 15.387 24.8075 15.3932 24.4174C15.3963 24.1163 15.5141 23.976 15.7806 23.9692C15.982 23.9657 16.1215 24.0547 16.1339 24.2942C16.1618 24.9136 16.1804 25.5363 15.9727 26.1625C16.4995 26.5936 17.0356 27.035 17.6337 27.5312C17.6058 27.1548 17.5966 26.8468 17.5532 26.5457C17.5005 26.1796 17.423 25.8169 17.3486 25.4508C17.2898 25.1668 17.3703 24.9649 17.5811 24.9033C17.8197 24.8314 17.9839 24.9375 18.0552 25.2455C18.2752 26.183 18.4085 27.1343 18.3155 28.1094C18.3093 28.1881 18.3527 28.2874 18.3992 28.3558C18.5572 28.6056 18.5572 28.8006 18.3217 28.9683C18.0335 29.1702 17.7236 29.3584 17.4044 29.4884C16.5987 29.8135 15.7651 29.9572 14.9067 29.8306C14.5534 29.7792 14.4109 29.5705 14.51 29.2626C14.5844 29.0333 14.7239 28.9854 14.9377 29.0162C15.8085 29.1394 16.6359 28.9443 17.4261 28.5543C17.4478 28.5098 17.4602 28.4756 17.4726 28.4413Z" fill="#FFEB61"/>
<path d="M38.5363 16.4995C38.4154 16.4037 38.3379 16.3695 38.2976 16.3011C38.2512 16.2224 38.2357 16.1163 38.2078 16.0205C37.9878 15.1924 37.5322 14.6141 36.7792 14.3438C36.6211 14.2891 36.4724 14.2343 36.4693 14.0051C36.4662 13.7724 36.6335 13.7587 36.7761 13.704C37.5384 13.4028 38.0683 12.8554 38.2729 11.9657C38.31 11.8049 38.372 11.6509 38.5487 11.6544C38.7253 11.6578 38.7811 11.8015 38.8152 11.9726C38.9949 12.8656 39.5124 13.4131 40.281 13.6869C40.4421 13.745 40.5568 13.8271 40.563 14.0256C40.5692 14.2309 40.4173 14.2549 40.2871 14.2993C39.4628 14.5697 38.9887 15.1993 38.7501 16.0889C38.716 16.2223 38.623 16.3387 38.5363 16.4995ZM38.4898 15.0316C38.8059 14.686 39.1467 14.313 39.4969 13.9332C39.0848 13.7108 38.7563 13.3584 38.5734 12.9272C38.2388 13.3036 37.9103 13.6732 37.6159 14.0051C37.9041 14.3438 38.2047 14.6963 38.4898 15.0316Z" fill="#FFEB61"/>
<path d="M27.5258 2.12474C27.4979 2.15211 27.4452 2.2445 27.3739 2.26845C26.6922 2.50113 26.249 2.9699 26.0972 3.76032C26.0817 3.84929 25.9546 3.95194 25.871 3.96563C25.809 3.97589 25.6974 3.86639 25.6602 3.78085C25.5642 3.56528 25.5146 3.31892 25.4092 3.1102C25.2078 2.7167 24.9041 2.45322 24.5012 2.34373C24.3556 2.30609 24.2192 2.24792 24.2192 2.04262C24.2223 1.85101 24.3494 1.80652 24.4857 1.74835C25.0436 1.51225 25.4464 1.10849 25.5952 0.444673C25.6045 0.400191 25.6107 0.345445 25.6354 0.318071C25.7067 0.246215 25.7904 0.136723 25.8679 0.133301C25.9422 0.133301 26.0476 0.232528 26.091 0.318071C26.153 0.441253 26.1592 0.598653 26.2149 0.725257C26.4443 1.25562 26.8161 1.60464 27.3274 1.76888C27.5072 1.82363 27.5258 1.851 27.5258 2.12474ZM26.4505 2.05631C26.2552 1.83389 26.0228 1.57042 25.8617 1.38565C25.6943 1.57726 25.4588 1.84416 25.2481 2.08368C25.403 2.25819 25.6385 2.52166 25.8214 2.73039C26.0476 2.49087 26.2893 2.23424 26.4505 2.05631Z" fill="#FFEB61"/>
<path d="M18.0803 47.5548C18.0493 47.4659 17.9935 47.3769 17.9935 47.2879C17.9997 46.7986 17.9316 46.3333 17.6527 45.9364C17.5504 45.7892 17.4048 45.6763 17.3025 45.5258C17.2405 45.4334 17.1723 45.2897 17.1971 45.1973C17.2219 45.1117 17.3614 45.0091 17.4512 45.0091C18.0741 44.9954 18.5792 44.7456 18.9635 44.1913C19.0193 44.1092 19.1804 44.0305 19.2455 44.0613C19.3199 44.1023 19.3881 44.2666 19.3819 44.3726C19.3385 45.0467 19.6019 45.56 20.045 45.9809C20.1473 46.0767 20.2341 46.1588 20.1783 46.3196C20.1256 46.4736 20.0171 46.5112 19.8839 46.5146C19.2424 46.5215 18.7528 46.8431 18.4026 47.4248C18.3344 47.5446 18.2662 47.6027 18.0803 47.5548ZM19.199 45.9432C19.1185 45.7345 18.9945 45.4128 18.8798 45.1083C18.6164 45.2418 18.3406 45.3821 18.1423 45.4847C18.2631 45.7756 18.3964 46.0972 18.5049 46.3538C18.7125 46.2306 18.9852 46.0698 19.199 45.9432Z" fill="#FFEB61"/>
<path d="M17.4327 36.6842C16.4566 36.6773 15.6973 35.8116 15.7066 34.7201C15.7159 33.6696 16.5185 32.8176 17.4854 32.8347C18.4616 32.8518 19.2239 33.7073 19.2115 34.7748C19.2022 35.8561 18.4213 36.691 17.4327 36.6842ZM17.4575 36.0135C18.0742 36.0101 18.601 35.4318 18.5948 34.7612C18.5886 34.0973 18.068 33.5293 17.4668 33.5293C16.847 33.5293 16.314 34.1042 16.3202 34.768C16.3264 35.4558 16.8377 36.0135 17.4575 36.0135Z" fill="#FFEB61"/>
<path d="M18.6563 7.82185C18.6563 8.45486 18.2442 8.9339 17.6926 8.93732C17.1162 8.94075 16.6699 8.45828 16.6699 7.82527C16.6699 7.19225 17.1038 6.70636 17.6647 6.71321C18.2504 6.72005 18.6563 7.17514 18.6563 7.82185ZM18.1295 7.82869C18.1326 7.53784 17.925 7.30174 17.6616 7.30174C17.4199 7.30174 17.2153 7.53442 17.206 7.82527C17.1967 8.10927 17.3982 8.34537 17.6492 8.34537C17.9157 8.34879 18.1264 8.11953 18.1295 7.82869Z" fill="#FFEB61"/>
<path d="M25.5828 37.5773C25.0529 37.5773 24.6345 37.088 24.6407 36.4824C24.6469 35.863 25.0466 35.4285 25.6137 35.4285C26.1468 35.4251 26.5713 35.8904 26.5713 36.479C26.5713 37.0983 26.1406 37.5807 25.5828 37.5773ZM26.0445 36.4721C26.0445 36.2155 25.8431 36.0068 25.5952 36.0068C25.3565 36.0068 25.1675 36.2257 25.1675 36.4995C25.1675 36.7732 25.341 36.9683 25.5797 36.9717C25.8524 36.9785 26.0445 36.7698 26.0445 36.4721Z" fill="#FFEB61"/>
</svg>
