<svg width="48" height="48" viewBox="0 0 48 48" fill="none" xmlns="http://www.w3.org/2000/svg">
<path d="M23.4549 35.7385C23.528 35.195 23.7474 34.6581 23.5629 34.0846C22.6298 31.1871 21.2928 28.4896 19.2839 26.1255C16.9407 23.368 14.0161 21.4474 10.4126 20.5271C9.03735 20.177 7.63772 19.9436 6.21023 19.9336C6.11971 19.9336 6.0257 19.9336 5.93169 19.9336C6.18934 20.197 6.43306 20.4471 6.68026 20.6905C7.41489 21.4174 7.96847 22.271 8.5325 23.1179C9.07564 23.9348 9.63271 24.7417 10.1654 25.562C10.2594 25.7054 10.3186 25.8988 10.3082 26.0621C10.2907 26.3356 10.0227 26.4423 9.7859 26.2822C9.64315 26.1855 9.51782 26.0455 9.42033 25.9054C8.6857 24.8284 7.96499 23.7414 7.23036 22.6644C6.39824 21.4474 5.35375 20.4337 4.06901 19.6568C3.89145 19.5501 3.73825 19.4334 3.787 19.2C3.83226 18.9866 3.98544 18.8799 4.2013 18.8366C6.17889 18.4098 8.15649 17.9696 10.1376 17.5595C11.2517 17.3294 12.3972 17.2828 13.5252 17.3828C15.663 17.5695 17.5814 18.2764 19.1237 19.7702C19.1481 19.7935 19.1829 19.8102 19.2108 19.8269C19.2386 19.8136 19.2665 19.7969 19.2943 19.7835C19.1168 19.4301 18.974 19.0533 18.7512 18.7265C18.1106 17.7729 17.2158 17.0394 16.3419 16.2858C15.5341 15.5889 14.7264 14.892 13.9743 14.1451C13.3685 13.5449 12.9542 12.818 13.1213 11.9444C13.2049 11.5043 13.3894 11.0742 13.5774 10.6574C13.7132 10.3573 13.7446 10.0839 13.654 9.76376C13.3511 8.69676 13.09 7.6231 13.1596 6.49942C13.2153 5.62248 13.5983 4.90225 14.2181 4.28539C14.5245 3.98197 14.8274 4.03198 14.9597 4.42877C15.3148 5.48576 16.1016 6.19932 16.979 6.84952C17.0591 6.90954 17.1531 6.97291 17.2506 6.98958C18.7408 7.27634 19.8514 8.11659 20.781 9.2136C21.5261 10.0905 22.0692 11.0875 22.494 12.1378C22.5358 12.2379 22.581 12.3379 22.6855 12.4413C22.6959 12.3612 22.7203 12.2845 22.7203 12.2045C22.7064 11.4476 22.7551 10.6807 22.6437 9.93381C22.581 9.50368 22.299 9.08355 22.0414 8.70343C21.923 8.52671 21.6201 8.47004 21.4147 8.33999C20.6348 7.84651 20.3005 7.09293 20.5582 6.28601C20.6452 6.0126 20.8437 5.75585 21.0456 5.53578C21.258 5.30571 21.5539 5.18235 21.8812 5.29905C21.9822 4.92894 22.0553 4.56215 22.1876 4.21205C22.4801 3.43514 23.0267 2.82828 23.6638 2.29145C23.925 2.07138 24.0433 2.08138 24.3079 2.30812C25.2445 3.10836 25.9443 4.04198 26.0522 5.30571C26.7172 5.179 27.0967 5.52913 27.3335 6.03262C27.6399 6.67949 27.626 7.33634 27.1002 7.87318C26.8147 8.16327 26.4248 8.36667 26.0662 8.58673C25.9304 8.67009 25.8503 8.74345 25.8016 8.9035C25.725 9.15358 25.6136 9.40366 25.4534 9.61373C25.3176 9.79378 25.2445 9.96049 25.248 10.1839C25.2549 10.8774 25.241 11.571 25.2375 12.2679C25.2375 12.3546 25.2375 12.4413 25.3037 12.5413C25.4534 12.1912 25.5996 11.8411 25.7563 11.4943C26.4317 10.0005 27.3718 8.70343 28.7958 7.76981C29.3598 7.3997 29.9726 7.13962 30.6411 6.98624C30.8117 6.94623 30.9893 6.87286 31.1216 6.76616C31.7274 6.29268 32.3332 5.81255 32.7127 5.13567C32.8345 4.92227 32.9285 4.68886 33.0086 4.45879C33.1409 4.07533 33.4369 3.9853 33.7398 4.26205C34.45 4.91225 34.7878 5.7225 34.8226 6.65946C34.8609 7.67978 34.6485 8.65675 34.3351 9.62038C34.2098 10.0038 34.2551 10.3339 34.4257 10.6974C34.6102 11.0942 34.7669 11.5143 34.8469 11.9378C34.9758 12.6213 34.7007 13.2248 34.2934 13.7817C33.7015 14.5886 32.9146 15.2188 32.1695 15.8857C31.3757 16.5959 30.5749 17.2994 29.8055 18.0363C29.3181 18.5032 28.9594 19.0633 28.7923 19.7402C28.8376 19.7269 28.8689 19.7269 28.8828 19.7135C30.2337 18.4031 31.9084 17.7562 33.7746 17.4795C35.4388 17.2361 37.0822 17.3828 38.7116 17.7096C40.3619 18.043 41.9983 18.4265 43.6416 18.7866C43.7356 18.8066 43.8505 18.8099 43.9132 18.8666C44.0385 18.9766 44.1883 19.1067 44.2196 19.2467C44.2405 19.3501 44.1117 19.5335 43.9968 19.6001C42.6111 20.4004 41.5213 21.4874 40.6474 22.7678C40.1008 23.568 39.6168 24.4116 39.1015 25.2319C38.8787 25.582 38.6454 25.9288 38.4122 26.2722C37.4895 27.616 36.1526 28.3128 34.5336 28.6063C33.3812 28.813 32.2566 29.1164 31.1842 29.5999C29.513 30.3502 28.2736 31.4905 27.3753 33.051C26.0697 35.325 25.1366 37.7224 24.5029 40.2332C24.4228 40.5466 24.395 40.8801 24.3915 41.2035C24.3811 43.3042 24.3811 45.4048 24.3811 47.5055C24.3811 47.8056 24.2383 47.9723 23.9876 47.9689C23.7474 47.9656 23.6046 47.8056 23.6081 47.5155C23.6151 45.2048 23.636 42.8941 23.6221 40.5833C23.6186 40.1232 23.4828 39.6664 23.4062 39.2062C23.0719 37.1856 22.4452 35.2517 21.6584 33.3511C21.2197 32.2974 20.5164 31.5005 19.5485 30.8703C18.0375 29.8833 16.3628 29.2765 14.6185 28.8197C13.5252 28.5329 12.432 28.2428 11.4327 27.706C11.3004 27.636 11.1612 27.5626 11.0567 27.4626C10.9035 27.3159 10.8896 27.1358 11.0358 26.9691C11.1681 26.8191 11.3283 26.719 11.5337 26.8424C12.6757 27.5259 13.9639 27.826 15.2417 28.1628C16.7632 28.5663 18.215 29.1198 19.5694 29.9167C20.9969 30.7536 22.0518 31.8573 22.5776 33.4044C22.8317 34.188 23.1555 34.9582 23.4549 35.7385ZM24.0816 38.2926C24.106 38.296 24.1304 38.2959 24.1547 38.2993C24.1687 38.2859 24.1861 38.2759 24.193 38.2593C24.2418 38.1292 24.2905 38.0025 24.3323 37.8725C25.1052 35.4584 26.188 33.181 27.713 31.1104C27.8941 30.867 28.0925 30.6169 28.3362 30.4402C28.9664 29.9867 29.6105 29.5399 30.286 29.1498C31.5951 28.3995 33.0609 28.0428 34.544 27.7794C36.0029 27.5226 37.117 26.8124 37.883 25.602C38.2694 24.9951 38.6489 24.3816 39.0249 23.7681C39.6586 22.7278 40.2783 21.6741 41.1627 20.8005C41.4586 20.5104 41.7789 20.247 42.0923 19.9669C42.0714 19.9536 42.0575 19.9369 42.0435 19.9369C41.9669 19.9336 41.8904 19.9269 41.8138 19.9303C39.6342 19.9569 37.5383 20.3837 35.5259 21.174C32.368 22.4144 29.896 24.4817 27.9741 27.1392C25.8608 30.0601 24.6004 33.3177 24.1687 36.8555C24.1095 37.3323 24.1095 37.8125 24.0816 38.2926ZM24.1547 32.6209C24.1826 32.6275 24.2139 32.6342 24.2418 32.6442C24.2836 32.5575 24.3253 32.4708 24.3636 32.3808C24.7327 31.5005 25.0669 30.6069 25.4778 29.7466C27.0062 26.5623 29.2345 23.9248 32.281 21.9475C34.6659 20.4004 37.298 19.5168 40.1634 19.2734C40.5743 19.2367 40.9851 19.22 41.396 19.1934C41.2811 19.0933 41.1627 19.0433 41.0373 19.0133C40.4733 18.8866 39.9058 18.7599 39.3383 18.6399C37.7541 18.3064 36.163 18.0363 34.5266 18.1797C32.7962 18.3331 31.226 18.8666 29.8542 19.9136C28.3119 21.0906 27.2604 22.6244 26.4039 24.2916C25.1087 26.819 24.4751 29.5266 24.1513 32.3074C24.1408 32.4108 24.1547 32.5175 24.1547 32.6209ZM6.66633 19.1067C6.66981 19.1267 6.66981 19.15 6.67329 19.17C7.05279 19.1967 7.4323 19.2134 7.80832 19.2534C8.19478 19.2934 8.58472 19.3401 8.96771 19.4068C13.5391 20.197 17.2402 22.3677 20.116 25.8454C21.4634 27.4759 22.4731 29.2931 23.3435 31.1871C23.3888 31.2871 23.4445 31.3838 23.4967 31.4838C23.528 31.4738 23.5594 31.4672 23.5907 31.4572C23.5559 31.007 23.5698 30.5502 23.4828 30.1067C23.0928 28.0694 22.4452 26.1055 21.5087 24.2383C20.7218 22.6678 19.7121 21.244 18.316 20.107C16.2548 18.4265 13.8316 17.8963 11.2064 18.2264C9.75457 18.4064 8.33057 18.7599 6.89264 19.0367C6.81952 19.0467 6.74293 19.0833 6.66633 19.1067ZM26.5884 22.0709C26.6476 22.0909 26.7033 22.1109 26.7625 22.1309C27.0759 21.5141 27.4937 20.9239 27.6782 20.2737C28.0577 18.9166 28.7401 17.7629 29.8229 16.8226C30.5297 16.2091 31.2539 15.6156 31.9363 14.9787C32.5421 14.4152 33.1305 13.8284 33.6806 13.2115C34.1088 12.7314 34.1715 12.1578 33.8895 11.5677C33.792 11.3609 33.705 11.1475 33.6075 10.9375C33.4404 10.5773 33.3638 10.2106 33.4647 9.82046C33.5587 9.45034 33.6493 9.07688 33.7363 8.70343C33.9104 7.95653 34.1402 7.21297 33.9939 6.43606C33.9417 6.16265 33.8477 5.8959 33.7711 5.62582C33.7433 5.62915 33.7119 5.63581 33.6841 5.63915C33.6423 5.87922 33.6249 6.12264 33.5553 6.35604C33.2837 7.27633 32.9947 8.19328 32.7127 9.11023C32.5839 9.53036 32.4516 9.94382 32.5525 10.3973C32.5908 10.5673 32.5595 10.7641 32.5177 10.9375C32.2949 11.9144 31.6403 12.6113 30.8744 13.2448C30.3277 13.695 29.7742 14.1518 29.3111 14.6786C28.2805 15.8523 27.6921 17.2527 27.3126 18.7265C27.0341 19.8369 26.8287 20.9572 26.5884 22.0709ZM21.3694 22.2143C21.3694 22.1743 21.3729 22.1343 21.3694 22.0943C21.2127 20.8305 20.9133 19.5968 20.5303 18.3831C19.8653 16.2858 18.8348 14.4252 16.9372 13.0881C16.5264 12.798 16.1922 12.3812 15.8858 11.9811C15.4889 11.461 15.2939 10.8741 15.3879 10.2039C15.4262 9.93381 15.374 9.63705 15.2974 9.3703C15.0328 8.47669 14.7264 7.5931 14.4618 6.69615C14.3643 6.36272 14.333 6.01261 14.2633 5.60915C14.1833 5.75919 14.0962 5.85589 14.0823 5.96259C14.0231 6.38272 13.9012 6.81952 13.9569 7.22965C14.0718 8.0599 14.2668 8.88016 14.4618 9.69708C14.5523 10.0805 14.5419 10.4373 14.3922 10.7941C14.2564 11.1242 14.1136 11.4543 13.9848 11.7877C13.8386 12.1678 13.8316 12.558 14.0649 12.8947C14.3643 13.3249 14.6707 13.7683 15.0572 14.1218C16.0564 15.0354 17.1148 15.8923 18.128 16.7926C18.981 17.5495 19.7191 18.3931 20.0533 19.4968C20.1404 19.7869 20.2414 20.0703 20.3249 20.3604C20.5199 21.0473 20.9412 21.6274 21.3694 22.2143ZM25.1018 24.9485C25.1401 24.9551 25.1784 24.9652 25.2167 24.9718C25.3733 24.5284 25.5787 24.0915 25.6693 23.6381C25.7702 23.1379 25.7563 22.6211 25.812 22.1109C26.0174 20.2704 26.3969 18.4698 27.1246 16.7459C27.7548 15.2588 28.6217 13.9384 29.9517 12.9248C30.3173 12.648 30.6655 12.3479 30.9893 12.0245C31.5045 11.511 31.804 10.9108 31.703 10.1639C31.6751 9.96049 31.6926 9.73709 31.7552 9.54036C32.0372 8.62341 32.3436 7.71314 32.6396 6.79952C32.6779 6.68282 32.7162 6.56278 32.751 6.44608C32.7301 6.43274 32.7092 6.41939 32.6918 6.40938C32.469 6.61945 32.2427 6.82285 32.0303 7.03958C31.884 7.18963 31.7134 7.34302 31.6334 7.52975C31.4837 7.87319 31.3653 8.23328 31.2782 8.59673C31.0345 9.60037 30.4566 10.3806 29.6244 11.0242C29.137 11.4009 28.6357 11.7844 28.2353 12.2379C27.4449 13.1315 26.9714 14.2085 26.5292 15.2888C26.0174 16.5492 25.5091 17.8196 25.4151 19.18C25.2793 21.104 25.2027 23.0279 25.1018 24.9485ZM15.1651 6.35604C15.2103 6.50275 15.2312 6.56943 15.2556 6.63946C15.5446 7.5264 15.844 8.41336 16.1191 9.30363C16.1887 9.5337 16.2409 9.79378 16.2096 10.0272C16.1399 10.5407 16.2339 11.0075 16.509 11.4443C16.8293 11.9511 17.2576 12.3646 17.7554 12.7113C18.9044 13.5216 19.7261 14.5819 20.3458 15.7956C21.6027 18.2631 22.1737 20.8839 22.2781 23.6181C22.2955 24.0882 22.5567 24.5517 22.7064 25.0185C22.7307 25.0118 22.7551 25.0051 22.7795 24.9985C22.7795 24.9351 22.7795 24.8718 22.7795 24.8084C22.7412 23.4747 22.7133 22.1443 22.6646 20.8105C22.6263 19.7835 22.6054 18.7466 22.2677 17.7562C21.9752 16.8993 21.6828 16.0391 21.3416 15.1988C20.6626 13.5216 19.8027 11.9645 18.1872 10.9041C17.4386 10.4106 17.0069 9.67707 16.7492 8.85014C16.6796 8.63007 16.5821 8.42002 16.5403 8.19662C16.3976 7.39637 15.8301 6.89621 15.1651 6.35604ZM23.9006 28.4462C23.9563 28.4462 24.012 28.4462 24.0677 28.4429C24.1582 27.7994 24.3253 27.1558 24.3288 26.509C24.3811 21.1673 24.4019 15.8256 24.4333 10.484C24.4333 10.424 24.4159 10.3639 24.4089 10.3139C24.1095 10.3139 23.8275 10.3139 23.5106 10.3139C23.5106 10.424 23.5106 10.5507 23.5106 10.6741C23.5176 13.2949 23.5246 15.9157 23.535 18.5365C23.5489 21.2207 23.5489 23.9048 23.5977 26.589C23.6116 27.2125 23.7961 27.8294 23.9006 28.4462ZM23.9807 3.08837C23.2217 3.72856 22.8282 4.51214 22.6611 5.42242C22.588 5.83255 22.682 6.16599 22.9118 6.5261C23.2739 7.08961 23.4549 7.70646 23.1277 8.37333C22.9571 8.7201 23.0685 9.08355 23.3679 9.30695C23.7335 9.5837 24.1756 9.59037 24.5586 9.33029C24.8929 9.10356 25.0391 8.74678 24.8754 8.39667C24.5064 7.6131 24.7606 6.94289 25.2132 6.28935C25.2724 6.20266 25.342 6.0993 25.342 6.0026C25.335 4.85558 24.8859 3.89528 23.9807 3.08837ZM22.6402 16.2625C22.6681 16.2558 22.6959 16.2524 22.7203 16.2458C22.6715 15.7423 22.675 15.2255 22.5601 14.7353C22.2189 13.2549 21.5783 11.8777 20.7706 10.5807C20.2031 9.66706 19.4823 8.88016 18.5144 8.33332C18.1384 8.11992 17.7276 7.95988 17.3307 7.77649C17.3133 7.80316 17.2959 7.82649 17.275 7.85317C17.5465 8.77346 17.8529 9.6704 18.7129 10.2873C19.1551 10.604 19.5798 10.9475 19.9628 11.3276C20.8228 12.1812 21.3764 13.2248 21.8534 14.3052C22.1423 14.9487 22.3791 15.6089 22.6402 16.2625ZM25.2932 16.2591C25.4499 15.8423 25.5996 15.4189 25.7633 15.0054C26.4944 13.1515 27.4623 11.4543 29.2241 10.2973C29.2798 10.2606 29.325 10.2139 29.3772 10.1739C30.1119 9.59705 30.3765 8.7768 30.6237 7.94654C30.6306 7.92654 30.6063 7.89985 30.5854 7.85317C30.4566 7.88985 30.3243 7.91653 30.2059 7.96321C29.1544 8.37 28.2944 9.02354 27.6399 9.90381C26.6929 11.1775 26.0488 12.598 25.537 14.0751C25.2898 14.7787 25.2132 15.5122 25.2932 16.2591ZM22.4766 7.9732C22.5845 7.45971 22.0414 6.41607 21.5679 6.15265C21.3799 6.31603 21.2301 6.75616 21.3102 6.99957C21.4843 7.53974 21.9996 7.70979 22.4766 7.9732ZM25.5161 7.97654C25.7563 7.82649 25.9652 7.70313 26.1637 7.57309C26.7242 7.19965 26.7973 7.01626 26.6163 6.40607C26.5884 6.31604 26.4979 6.20599 26.4109 6.18265C26.3482 6.16598 26.2229 6.25269 26.1672 6.32271C26.007 6.52277 25.8642 6.73615 25.7285 6.95289C25.5335 7.24965 25.4499 7.57308 25.5161 7.97654Z" fill="#FFEB61"/>
<path d="M9.2847 16.2392C9.1524 16.1459 9.06188 16.1125 9.0201 16.0492C8.96788 15.9725 8.95047 15.8724 8.92261 15.7791C8.6789 14.9822 8.17056 14.422 7.33496 14.1619C7.16088 14.1085 6.99376 14.0552 6.99028 13.8351C6.9868 13.6084 7.17481 13.5984 7.328 13.545C8.17753 13.255 8.76245 12.7248 8.99224 11.8712C9.03402 11.7145 9.10017 11.5678 9.29863 11.5711C9.49708 11.5744 9.55627 11.7145 9.59457 11.8779C9.79303 12.7381 10.3675 13.2683 11.224 13.5317C11.405 13.5884 11.5304 13.6684 11.5373 13.8585C11.5443 14.0552 11.3772 14.0785 11.231 14.1219C10.3153 14.382 9.78606 14.9888 9.52494 15.8458C9.48664 15.9725 9.38219 16.0825 9.2847 16.2392ZM9.23596 14.8221C9.58761 14.4887 9.96711 14.1319 10.3536 13.7618C9.89399 13.545 9.5319 13.2083 9.32648 12.7915C8.95742 13.1516 8.59185 13.5084 8.26109 13.8318C8.5814 14.1586 8.91913 14.502 9.23596 14.8221Z" fill="#FFEB61"/>
<path d="M39.4115 14.8055C39.3802 14.8322 39.314 14.9289 39.2305 14.9522C38.4192 15.1923 37.89 15.6758 37.709 16.4927C37.6881 16.5827 37.5419 16.6928 37.4374 16.7061C37.3608 16.7161 37.232 16.6028 37.1867 16.5127C37.0718 16.2893 37.0126 16.0359 36.8873 15.8192C36.6471 15.4124 36.285 15.139 35.8045 15.0289C35.6304 14.9889 35.4668 14.9289 35.4703 14.7155C35.4738 14.5154 35.6269 14.4687 35.7871 14.4121C36.4521 14.1686 36.9326 13.7519 37.1066 13.065C37.1171 13.0183 37.1241 12.9616 37.1554 12.9349C37.2424 12.8582 37.3399 12.7482 37.4339 12.7449C37.5244 12.7449 37.6463 12.8482 37.6985 12.9349C37.7751 13.0616 37.7786 13.225 37.8448 13.3551C38.1163 13.9019 38.5585 14.2653 39.1713 14.4321C39.3906 14.4954 39.4115 14.5254 39.4115 14.8055ZM38.1303 14.7355C37.897 14.5054 37.6185 14.232 37.427 14.0453C37.2285 14.242 36.95 14.5188 36.6958 14.7688C36.8803 14.9489 37.1624 15.2223 37.3782 15.439C37.6498 15.1856 37.9353 14.9189 38.1303 14.7355Z" fill="#FFEB61"/>
<path d="M16.3732 33.9845C16.3105 33.9112 16.2165 33.8478 16.1887 33.7611C16.0285 33.2976 15.7952 32.8808 15.3565 32.6041C15.1929 32.5007 14.9979 32.444 14.8343 32.3407C14.7333 32.2773 14.6115 32.164 14.608 32.0706C14.6045 31.9806 14.7229 31.8339 14.8204 31.8005C15.4958 31.5638 15.9623 31.1436 16.1921 30.4834C16.227 30.3867 16.3767 30.25 16.4567 30.26C16.5542 30.27 16.6831 30.4034 16.7109 30.5068C16.892 31.1603 17.3515 31.5504 17.9817 31.7905C18.1245 31.8439 18.2463 31.8905 18.2428 32.0639C18.2394 32.2273 18.1314 32.304 17.9852 32.354C17.2854 32.5908 16.8641 33.0709 16.6761 33.7445C16.6448 33.8878 16.5891 33.9645 16.3732 33.9845ZM17.0452 32.0573C16.885 31.8872 16.6413 31.6271 16.4115 31.3837C16.1713 31.6038 15.9136 31.8372 15.7326 32.0039C15.9658 32.2373 16.22 32.4907 16.4254 32.6975C16.6134 32.5074 16.8571 32.254 17.0452 32.0573Z" fill="#FFEB61"/>
<path d="M32.7718 31.3807C32.7718 31.8375 32.4306 32.1776 31.9745 32.1809C31.4975 32.1843 31.1284 31.8375 31.1284 31.384C31.1284 30.9305 31.487 30.5804 31.9536 30.5838C32.4375 30.5871 32.7718 30.9139 32.7718 31.3807ZM32.3366 31.384C32.34 31.174 32.1659 31.0039 31.9466 31.0039C31.7447 31.0039 31.5775 31.1706 31.5706 31.3773C31.5636 31.5807 31.7273 31.7508 31.9362 31.7508C32.159 31.7541 32.3331 31.5908 32.3366 31.384Z" fill="#FFEB61"/>
<path d="M20.6941 42.224C19.8028 42.2207 19.0995 41.5104 19.11 40.6235C19.1204 39.7199 19.7924 39.0864 20.7464 39.083C21.6446 39.0797 22.3584 39.7566 22.3584 40.6168C22.3619 41.5238 21.6342 42.2273 20.6941 42.224ZM21.474 40.6101C21.474 40.2334 21.1363 39.9299 20.715 39.9299C20.3146 39.9299 19.9943 40.25 19.9943 40.6502C19.9943 41.0469 20.2833 41.3337 20.6907 41.3404C21.1468 41.3504 21.474 41.0469 21.474 40.6101Z" fill="#FFEB61"/>
<path d="M18.7232 4.69894C18.5909 4.60558 18.5003 4.57223 18.4586 4.50888C18.4063 4.43219 18.3889 4.33216 18.3611 4.2388C18.1174 3.44188 17.609 2.8817 16.7734 2.62162C16.5994 2.56827 16.4322 2.51492 16.4288 2.29486C16.4253 2.06812 16.6133 2.05812 16.7665 2.00477C17.616 1.71468 18.2009 1.18451 18.4307 0.330909C18.4725 0.174193 18.5386 0.0274831 18.7371 0.0308175C18.9356 0.0341519 18.9947 0.1742 19.033 0.337584C19.2315 1.19785 19.806 1.728 20.6625 1.99142C20.8435 2.0481 20.9689 2.12814 20.9758 2.3182C20.9828 2.51493 20.8122 2.53826 20.6694 2.58161C19.7537 2.84169 19.2245 3.44854 18.9634 4.30547C18.9251 4.42884 18.8207 4.54223 18.7232 4.69894ZM18.6744 3.28184C19.0261 2.9484 19.4056 2.5916 19.7921 2.22149C19.3325 2.00476 18.9704 1.668 18.765 1.25453C18.3959 1.61465 18.0303 1.97142 17.6996 2.29486C18.0199 2.61829 18.3576 2.9584 18.6744 3.28184Z" fill="#FFEB61"/>
</svg>
