<svg width="48" height="48" viewBox="0 0 48 48" fill="none" xmlns="http://www.w3.org/2000/svg">
<path d="M24.9717 38.9924C25.2982 37.9434 25.6776 36.9255 26.2592 36.0099C26.7723 35.203 27.3632 34.4396 27.9727 33.6978C28.3926 33.1889 28.433 33.2199 28.8902 33.6916C29.3816 33.4464 29.8605 33.1733 30.3643 32.9623C32.1898 32.2019 34.0869 32.0437 36.0337 32.354C36.2358 32.3851 36.438 32.4161 36.6401 32.4533C37.3026 32.5806 37.4394 32.8475 37.0569 33.3999C36.4846 34.2223 35.8782 35.023 35.2718 35.8175C35.1318 36.0006 35.0074 36.1186 35.1909 36.3606C35.2593 36.4506 35.2158 36.7237 35.1256 36.8199C34.3201 37.6517 33.4991 38.4679 32.5039 39.0793C32.1992 39.2655 31.885 39.4331 31.5616 39.6162C31.5989 39.6534 31.6487 39.7031 31.6922 39.7559C31.9317 40.0352 31.9037 40.2679 31.5927 40.451C30.1279 41.3262 28.5325 41.8228 26.8438 42.0121C26.2561 42.0773 25.6621 42.0835 25.0339 42.1176C25.0276 42.2169 25.0152 42.3256 25.0183 42.4311C25.0774 43.7687 25.1365 45.1063 25.1987 46.4439C25.2236 46.9963 24.953 47.3656 24.4181 47.496C23.9329 47.6139 23.5038 47.4122 23.3234 46.9436C23.1866 46.5929 23.0964 46.2236 22.9875 45.8604C22.7387 45.0163 22.4837 44.1752 22.2443 43.3311C22.1852 43.1201 22.0856 43.0518 21.8648 43.0363C19.4764 42.8656 17.3026 42.1083 15.3744 40.6745C14.9701 40.3735 14.9483 40.271 15.1847 39.8086C15.2065 39.7652 15.2251 39.7186 15.2531 39.6565C14.0838 39.1724 13.3405 38.1917 12.4417 37.391C12.2551 37.2265 12.3111 37.0775 12.4573 36.9131C12.0748 36.3886 11.6922 35.8734 11.319 35.352C11.1293 35.0851 10.9365 34.8182 10.7748 34.5358C10.5789 34.1944 10.7002 33.9523 11.092 33.9027C13.4929 33.5985 15.7725 33.9337 17.8623 35.2154C18.0334 35.321 18.1516 35.3923 18.3226 35.1844C18.4781 34.9951 18.6772 35.141 18.8016 35.2682C19.5168 35.9975 20.2508 36.7113 20.7981 37.5896C21.5352 38.772 22.0701 40.0383 22.4371 41.3759C22.5397 41.7483 22.6703 42.1114 22.8009 42.4745C22.7076 36.9099 22.5304 31.3454 23.8552 25.8243C23.3638 25.8274 22.9657 25.7094 22.5428 25.9391C21.7498 26.3674 21.1091 26.2246 20.5027 25.5667C20.4622 25.5232 20.4156 25.486 20.3472 25.4239C20.285 25.5511 20.2321 25.6567 20.1793 25.7653C19.8714 26.4077 19.153 26.687 18.5279 26.3363C18.0023 26.0415 17.4829 25.7901 16.892 25.6318C16.183 25.4456 15.8471 24.8839 15.9186 24.257C15.9839 23.6984 16.581 23.1521 17.2372 23.118C17.598 23.0994 17.965 23.1925 18.3288 23.2111C18.4221 23.2173 18.5745 23.1677 18.6118 23.0963C19.5821 21.2497 20.7079 19.5117 22.1665 18.0065C22.1914 17.9786 22.21 17.9445 22.2847 17.8358C22.011 17.9476 21.812 18.019 21.6223 18.109C20.963 18.4286 20.3658 18.8352 19.8496 19.3597C19.5697 19.6452 19.3831 19.6638 19.1965 19.4652C19.0161 19.2728 19.0441 18.9966 19.2991 18.7638C19.6879 18.4069 20.0953 18.0655 20.512 17.6993C19.9398 17.8855 19.4049 18.1027 18.9322 18.4534C18.8015 18.5497 18.6772 18.6893 18.531 18.7297C18.3755 18.77 18.1578 18.7669 18.0365 18.6831C17.8561 18.559 17.881 18.3324 18.0178 18.1648C18.1267 18.0314 18.2542 17.8917 18.4035 17.8203C19.0286 17.5224 19.663 17.2431 20.3005 16.9669C20.4498 16.9017 20.6146 16.88 20.8634 16.8148C20.6644 16.7465 20.5493 16.6969 20.4312 16.6689C18.5154 16.2003 16.5686 16.0606 14.6062 16.1165C14.5161 16.1196 14.401 16.2127 14.3481 16.2996C14.1926 16.551 14.09 16.8396 13.9127 17.0724C13.5084 17.6062 12.8305 17.7521 12.2645 17.4634C11.6518 17.1531 11.3812 16.5665 11.6052 15.89C11.7762 15.3779 11.8695 14.8875 11.8197 14.3382C11.7544 13.6306 12.2023 13.1123 12.874 12.9571C13.44 12.8268 14.0496 13.1341 14.3015 13.761C14.4507 14.1303 14.5161 14.5492 14.5347 14.9496C14.5503 15.2444 14.6373 15.3034 14.9079 15.3003C17.2559 15.2662 19.5697 15.5393 21.8462 16.1165C22.1105 16.1848 22.3718 16.2562 22.6641 16.281C20.6644 14.4748 18.5092 12.8734 16.3043 11.123C16.2421 11.2347 16.211 11.3588 16.1332 11.4302C15.6823 11.8585 15.1536 12.023 14.5503 11.8058C13.8567 11.5544 13.58 10.7971 13.9718 10.1764C14.2362 9.75744 14.5347 9.35709 14.8395 8.96605C15.1318 8.59363 15.5361 8.46018 15.9933 8.57811C16.466 8.69915 16.8081 8.99088 16.8889 9.48434C16.9294 9.73572 16.892 10.0088 16.8361 10.2602C16.7956 10.4309 16.8205 10.5178 16.9511 10.6202C18.7362 12.0106 20.5182 13.4041 22.3033 14.7975C22.3313 14.8192 22.3686 14.8317 22.4713 14.8068C21.557 12.6282 20.6426 10.4495 19.747 8.31742C19.3271 8.3888 18.9602 8.45397 18.5901 8.50984C18.4906 8.52536 18.3848 8.50673 18.2853 8.48811C17.5669 8.35466 17.0227 7.78362 17.0258 7.17843C17.0289 6.55153 17.6198 5.96497 18.363 5.8129C18.5932 5.76634 18.8109 5.64531 19.0317 5.5491C19.3396 5.41565 19.6288 5.20151 19.946 5.14875C20.9039 4.99047 21.5912 5.9091 21.218 6.85257C21.0905 7.17223 20.8354 7.44844 20.6084 7.71844C20.4996 7.84569 20.4685 7.93259 20.5369 8.09086C21.4232 10.2012 22.3033 12.3178 23.1834 14.4313C23.2021 14.4748 23.2332 14.512 23.2674 14.5679C23.2674 13.9906 23.2674 13.4351 23.2674 12.8827C23.2674 11.5233 23.2643 10.1609 23.2705 8.80156C23.2736 8.44776 23.4074 8.32052 23.7246 8.32673C24.0138 8.33293 24.1164 8.45087 24.1164 8.7488C24.1164 10.4681 24.1164 12.1844 24.1164 13.9037C24.1164 13.9906 24.1289 14.0775 24.2004 14.1706C24.2346 14.0589 24.2657 13.9503 24.2999 13.8385C24.642 12.7461 24.9717 11.6506 25.3324 10.5644C25.435 10.2571 25.4319 10.0709 25.1147 9.8971C24.7011 9.67054 24.4305 9.30433 24.415 8.81087C24.4025 8.36707 24.5487 7.97914 24.9374 7.72775C25.3449 7.46396 25.7709 7.5012 26.2001 7.69362C26.4675 7.81155 26.735 7.92948 27.0087 8.035C27.4565 8.20879 27.7986 8.4788 27.8546 8.99088C27.9137 9.51226 27.7115 9.92813 27.2481 10.164C27.0024 10.2912 26.7101 10.3471 26.4333 10.3875C26.2809 10.4092 26.2094 10.434 26.1628 10.5923C25.7523 11.9733 25.3293 13.3513 24.9126 14.7292C24.8566 14.9124 24.8255 15.1017 24.8442 15.3344C25.0587 15.1079 25.2733 14.8782 25.491 14.6548C25.6123 14.5306 25.7243 14.3754 25.8767 14.3103C26.0104 14.2513 26.2467 14.2327 26.3338 14.3134C26.424 14.3972 26.4458 14.633 26.4022 14.7696C26.3525 14.9217 26.1907 15.0396 26.0788 15.1699C25.802 15.4927 25.5221 15.8155 25.2453 16.1382C25.264 16.1631 25.2858 16.1848 25.3044 16.2096C25.3853 16.1631 25.463 16.1165 25.5439 16.07C26.4116 15.5703 27.2823 15.0706 28.15 14.571C28.2215 14.5306 28.2993 14.4996 28.377 14.4748C28.6072 14.4096 28.7782 14.481 28.8808 14.7013C28.9866 14.9248 28.9337 15.1048 28.7129 15.2165C28.2744 15.4399 27.8266 15.6417 27.3943 15.8744C27.0678 16.0513 26.7568 16.2593 26.3929 16.4827C28.2309 16.6255 29.988 16.7651 31.742 16.9017C31.8135 16.6162 31.8633 16.312 31.969 16.0296C32.0499 15.8155 32.1743 15.6013 32.3267 15.4306C32.6781 15.0365 33.1228 14.8441 33.6515 15.021C34.1864 15.201 34.5378 15.6075 34.5378 16.1569C34.5378 16.8955 34.5005 17.6248 34.6405 18.3665C34.7369 18.8724 34.3015 19.4342 33.8505 19.6079C33.3218 19.8128 32.6874 19.6948 32.3515 19.2262C32.109 18.8879 31.9659 18.469 31.8197 18.0717C31.7575 17.901 31.6922 17.8172 31.5212 17.7893C29.6459 17.4634 27.7613 17.3145 25.858 17.4169C25.7958 17.42 25.7336 17.4262 25.6745 17.4386C25.6465 17.4448 25.6248 17.4665 25.5657 17.5007C27.3819 18.4224 28.8777 19.7414 30.3083 21.0045C30.781 20.7407 31.1884 20.4614 31.6331 20.2814C32.1463 20.0766 32.6656 20.1511 33.1041 20.5297C33.5489 20.9145 33.667 21.5321 33.356 22.0256C33.213 22.2521 33.014 22.4694 32.7931 22.6183C32.4604 22.8387 32.252 23.118 32.0872 23.4718C31.7513 24.2011 31.0236 24.4773 30.355 24.1608C29.8418 23.9187 29.5184 23.3539 29.6024 22.7704C29.6428 22.4818 29.7703 22.2056 29.8387 21.9201C29.8605 21.8332 29.8574 21.6873 29.8045 21.6376C28.6165 20.6011 27.4378 19.5521 26.0757 18.739C25.8269 18.59 25.5532 18.4814 25.292 18.351C25.2733 18.3728 25.2547 18.3914 25.236 18.4131C25.3138 18.5714 25.4102 18.7266 25.463 18.8941C25.5905 19.3224 25.7211 19.7507 25.802 20.1883C25.8238 20.3124 25.6869 20.4645 25.6216 20.6042C25.4848 20.5173 25.2889 20.4614 25.2204 20.3373C25.0681 20.0642 24.9779 19.7538 24.8597 19.459C24.8255 19.3721 24.7819 19.2883 24.7011 19.22C24.7508 19.6079 24.6171 20.0021 24.9343 20.3652C25.124 20.5824 25.2173 20.9331 25.2422 21.2342C25.2671 21.5445 25.0961 21.6004 24.8286 21.4297C24.7882 21.4049 24.7509 21.3738 24.6482 21.2994C24.7446 23.5804 24.8379 25.7932 24.9343 28.006C24.9592 28.5584 25.0214 29.1109 25.009 29.6602C24.9996 29.9798 24.8721 30.2964 24.754 30.6067C24.2377 30.0171 24.3123 29.3002 24.2315 28.6236C24.2066 28.6236 24.1817 28.6236 24.1537 28.6236C24.0729 29.2009 23.9796 29.7812 23.9081 30.3585C23.6375 32.6178 23.6188 34.8896 23.6126 37.1613C23.6064 39.0327 23.6064 40.9073 23.6686 42.7756C23.709 43.958 23.8614 45.1373 23.9765 46.3167C24.0107 46.6736 24.0387 46.686 24.3186 46.8163C24.3403 46.6674 24.3839 46.5308 24.3714 46.4004C24.0045 42.6142 24.1724 38.8155 24.1973 35.023C24.2035 34.0609 24.2377 33.102 24.2657 32.1399C24.2782 31.7426 24.3963 31.6154 24.7135 31.6309C25.0214 31.6464 25.1209 31.8047 25.1116 32.1895C25.0587 34.4303 25.0152 36.6679 24.9654 38.9086C24.9561 38.9365 24.9654 38.9645 24.9717 38.9924ZM14.9017 36.0844C14.712 35.9044 14.5223 35.7244 14.3108 35.5227C14.8613 35.3241 15.2842 35.6996 15.7631 35.8423C15.6512 35.0851 15.6543 35.082 14.9888 34.8958C14.684 34.812 14.3761 34.7344 14.0651 34.6754C13.8381 34.632 13.6017 34.6289 13.3685 34.6072C13.6608 34.8958 14.0309 35.0479 14.1771 35.4358C13.4587 35.2154 12.7652 35.0044 12.0685 34.7903C12.053 34.8182 12.0405 34.8461 12.025 34.8741C12.0654 34.9392 12.0996 35.0106 12.1463 35.0727C12.4417 35.4761 12.7527 35.8703 13.0326 36.283C13.1788 36.5003 13.3125 36.5282 13.5582 36.4444C13.9998 36.2924 14.457 36.1961 14.9079 36.0751C14.6467 36.6834 14.1087 36.9627 13.5115 37.1955C13.5769 37.2855 13.608 37.3507 13.6577 37.3972C14.1926 37.8565 14.7182 38.3313 15.2687 38.7689C15.9871 39.34 16.7645 39.3648 17.5669 38.9303C17.7131 38.8527 17.8623 38.7814 18.0116 38.71C17.9712 38.8683 17.9245 39.0079 17.825 39.0824C17.2901 39.4796 16.7428 39.8583 16.1985 40.2462C17.8064 41.3014 19.5759 42.0773 21.6876 42.2107C21.0842 41.4411 20.5307 40.7397 20.0238 40.0941C19.5977 40.3704 19.24 40.6559 18.8358 40.8545C18.4159 41.0593 17.9587 41.0593 17.4891 40.8638C18.2418 40.4728 18.9601 40.1003 19.7065 39.7155C18.8482 38.7193 17.9308 37.9031 16.8703 37.2575C16.3665 37.8627 15.0323 38.2289 14.4383 37.7355C15.1411 37.512 15.8347 37.2917 16.6184 37.0403C16.0275 36.6834 15.5237 36.3761 15.0168 36.072C14.9888 36.0565 14.939 36.0813 14.9017 36.0844ZM28.3801 37.9124C28.3988 37.8876 28.4206 37.8658 28.4392 37.841C28.5201 37.8969 28.5978 37.9589 28.6787 38.0117C29.1576 38.3251 29.6397 38.6355 30.1186 38.9458C30.3425 39.0917 30.5664 39.0886 30.8183 38.9955C31.7886 38.6386 32.5879 38.021 33.3778 37.3817C33.6111 37.1924 33.8287 36.9813 34.1055 36.73C33.1197 36.4755 32.3111 36.0658 31.7264 35.1906C31.8882 35.2496 31.9815 35.2837 32.0748 35.3179C32.6128 35.5103 33.1539 35.6965 33.6919 35.8982C33.9376 35.9882 34.1242 35.9386 34.2828 35.7306C34.8768 34.9485 35.477 34.1727 36.0741 33.3906C36.1021 33.3533 36.1052 33.3037 36.1332 33.2292C35.9311 33.2416 35.7569 33.2416 35.5859 33.2633C34.7275 33.372 33.8941 33.5985 33.1166 33.9802C30.0066 35.5165 27.5809 37.81 25.7025 40.7024C25.5905 40.8731 25.5097 41.0655 25.3915 41.2921C27.301 41.289 29.027 40.8452 30.7095 40.001C29.7703 39.4207 28.7658 38.9893 28.3801 37.9124ZM20.3316 24.6604C20.5835 24.1453 20.9972 23.779 21.501 23.4966C21.5974 23.4439 21.6627 23.2794 21.6813 23.1552C21.8368 22.1466 21.9643 21.1349 22.1323 20.1262C22.1945 19.7414 22.3375 19.3721 22.4433 18.9935C22.4184 18.981 22.3966 18.9717 22.3718 18.9593C21.1216 20.3528 20.1637 21.9449 19.3054 23.5215C19.6692 23.9249 19.9927 24.2849 20.3316 24.6604ZM23.7588 18.4969C23.0559 18.8321 22.4246 22.4135 22.577 23.1708C22.9937 23.1956 23.4074 23.2173 23.7588 23.2359C23.7588 21.6718 23.7588 20.1014 23.7588 18.4969ZM27.9043 35.1316C27.1859 35.6996 25.7709 38.6169 25.774 39.4486C26.5422 38.5983 27.3601 37.6982 28.1656 36.792C28.2247 36.7237 28.2557 36.5903 28.2371 36.4972C28.1407 36.0441 28.0194 35.5941 27.9043 35.1316ZM32.4293 17.1686C32.5319 17.6031 32.5879 17.9662 32.7061 18.3107C32.8616 18.77 33.1788 18.9655 33.4929 18.8538C33.8132 18.739 33.9065 18.4069 33.7323 17.9352C33.58 17.5193 33.5333 17.1065 33.6795 16.6813C33.7075 16.5944 33.7355 16.5044 33.7386 16.4144C33.7541 16.16 33.7261 15.9055 33.4431 15.8093C33.1694 15.7162 32.9393 15.8434 32.8305 16.0824C32.6656 16.4424 32.5506 16.8303 32.4293 17.1686ZM13.8536 14.993C13.751 14.6672 13.6764 14.3413 13.5458 14.0403C13.4525 13.8292 13.2503 13.6803 12.9953 13.7547C12.731 13.8323 12.6034 14.0372 12.6252 14.3165C12.6314 14.4065 12.6314 14.5027 12.6532 14.5896C12.7621 14.9837 12.6905 15.3562 12.535 15.7224C12.4728 15.8713 12.3578 16.0265 12.364 16.1755C12.3733 16.371 12.4355 16.6069 12.563 16.7341C12.647 16.8179 12.9269 16.8055 13.0544 16.7279C13.2348 16.6193 13.412 16.4331 13.4867 16.2406C13.6453 15.8465 13.7323 15.4244 13.8536 14.993ZM32.1743 20.9828C31.3657 20.9828 30.2803 22.1901 30.3736 22.969C30.4047 23.2421 30.554 23.4221 30.8308 23.4749C31.1013 23.5277 31.2755 23.3787 31.3439 23.1428C31.5118 22.5439 31.885 22.1342 32.4355 21.8518C32.6221 21.7556 32.7931 21.5973 32.7123 21.3335C32.6252 21.0604 32.4013 21.0045 32.1743 20.9828ZM17.5047 23.8846C17.3616 23.9342 17.1097 23.9839 16.892 24.1018C16.6308 24.2446 16.6153 24.5642 16.8578 24.7349C17.0164 24.8467 17.2248 24.918 17.4176 24.946C17.8406 25.008 18.2355 25.1136 18.5559 25.4177C18.6492 25.5077 18.7736 25.576 18.8948 25.6225C19.2649 25.7715 19.6039 25.5232 19.5355 25.1353C19.5044 24.9553 19.408 24.7629 19.2867 24.6294C18.842 24.1453 18.2573 23.9528 17.5047 23.8846ZM18.758 7.70603C19.3644 7.65948 19.9522 7.36775 20.3658 6.77498C20.5649 6.49256 20.5555 6.18221 20.3627 6.01772C20.1046 5.79738 19.8869 5.95876 19.6754 6.11083C19.324 6.36842 18.9664 6.57635 18.5123 6.6198C18.0707 6.66015 17.7815 6.95188 17.8188 7.22499C17.8592 7.51672 18.1889 7.70603 18.758 7.70603ZM23.8894 25.0173C23.8894 24.738 23.9018 24.4742 23.8801 24.2166C23.8738 24.1484 23.7557 24.0397 23.6872 24.0366C23.2519 24.018 22.8134 23.987 22.3842 24.0335C21.9115 24.0832 21.5196 24.3346 21.2397 24.7256C21.0314 25.0173 21.0967 25.2036 21.4294 25.3401C21.7031 25.4518 21.9519 25.3836 22.1883 25.2408C22.6299 24.9739 23.0995 24.9056 23.6033 25.0018C23.681 25.0173 23.7619 25.0111 23.8894 25.0173ZM21.2802 40.6435C20.8417 39.1165 20.0953 37.7789 18.9415 36.6213C18.8886 37.0465 18.8264 37.3972 18.8046 37.7541C18.7984 37.8627 18.87 38.0055 18.9477 38.0893C19.324 38.4927 19.7252 38.8714 20.0984 39.2779C20.5058 39.7217 20.8883 40.1872 21.2802 40.6435ZM28.8404 36.0937C29.4095 35.6654 29.904 35.2279 30.4576 34.8927C30.9801 34.5761 30.8526 34.0951 30.9303 33.6327C30.1995 33.9585 29.5028 34.3123 28.8124 34.6847C28.7471 34.7189 28.7067 34.8585 28.7129 34.9454C28.7409 35.3085 28.7907 35.6717 28.8404 36.0937ZM16.3198 35.3054C16.3789 35.5941 16.4349 35.7803 16.4504 35.9665C16.466 36.1961 16.5655 36.3265 16.7645 36.4444C17.1253 36.6555 17.4643 36.9037 17.8126 37.1365C17.9152 37.2048 18.0178 37.2762 18.1671 37.3786C18.1671 37.1675 18.1453 37.0217 18.1702 36.8882C18.2542 36.4661 18.0521 36.2272 17.6944 36.0472C17.2559 35.8237 16.8267 35.5785 16.3198 35.3054ZM16.1208 9.85055C16.0928 9.6302 16.0368 9.40985 15.7663 9.35088C15.4864 9.28881 15.449 9.53399 15.3433 9.69847C15.1691 9.96537 14.9608 10.2137 14.7897 10.4837C14.7089 10.6078 14.5969 10.825 14.6436 10.8871C14.7275 10.9988 14.9297 11.0857 15.0758 11.0764C15.5517 11.0423 16.1332 10.3409 16.1208 9.85055ZM26.3307 9.54951C26.8127 9.55571 27.0211 9.42537 27.0429 9.1864C27.0647 8.95053 26.9154 8.79225 26.5422 8.77984C26.2623 8.77053 26.0974 8.61225 25.9015 8.47259C25.7118 8.33604 25.4972 8.27087 25.3231 8.4757C25.1489 8.68363 25.208 8.90087 25.3915 9.07777C25.6901 9.3664 26.0415 9.53709 26.3307 9.54951ZM31.6176 34.0951C32.4168 33.732 33.2068 33.3751 33.9936 33.0213C33.4711 33.0461 32.9518 33.0989 32.4448 33.2075C31.5865 33.3968 31.7824 33.1827 31.6052 34.0609C31.6052 34.0703 31.6114 34.0796 31.6176 34.0951Z" fill="#FFEB61"/>
<path d="M35.754 7.71223C35.0263 8.12189 34.3172 8.52535 33.6082 8.9257C33.2598 9.12122 32.9146 9.31674 32.5601 9.50605C32.4544 9.56191 32.3237 9.63329 32.218 9.61778C32.0812 9.59915 31.9008 9.52777 31.8417 9.42225C31.7857 9.31984 31.8137 9.11501 31.8853 9.00949C31.9786 8.87604 32.1434 8.78294 32.2927 8.69914C33.2661 8.15603 34.2426 7.61602 35.2222 7.08532C35.4119 6.9829 35.499 6.87428 35.4865 6.63531C35.4586 6.06427 35.838 5.58013 36.3822 5.42495C36.9016 5.27909 37.3649 5.48081 37.6822 5.98978C37.8781 6.30013 38.0709 6.61049 38.2637 6.92394C38.5405 7.37084 38.5405 7.92016 38.2637 8.28017C37.9403 8.70224 37.4551 8.84811 36.9202 8.70535C36.5284 8.59983 36.2205 8.37637 35.9872 8.05051C35.9157 7.94188 35.8411 7.83637 35.754 7.71223ZM36.2889 6.70359C36.3791 7.22498 36.5781 7.64705 37.0446 7.88602C37.1597 7.94499 37.3245 7.9512 37.4551 7.92327C37.6728 7.87672 37.7537 7.66257 37.6417 7.46705C37.4271 7.10084 37.2126 6.73462 36.9824 6.37772C36.8083 6.10461 36.5813 6.10462 36.4102 6.38393C36.3418 6.48014 36.3231 6.60738 36.2889 6.70359Z" fill="#FFEB61"/>
<path d="M31.758 3.34261C31.7175 3.34261 31.6771 3.34571 31.6336 3.34261C31.1329 3.30847 31.1298 3.30847 30.9152 3.75537C30.4518 4.72366 29.9946 5.69506 29.5313 6.66335C29.4753 6.78439 29.4317 6.93336 29.3353 7.00474C29.2234 7.09163 29.0306 7.17853 28.9217 7.13818C28.7942 7.08853 28.6511 6.90542 28.6418 6.77197C28.6263 6.60438 28.7227 6.41817 28.8004 6.25679C29.2731 5.27298 29.7458 4.28297 30.2434 3.31157C30.402 3.00122 30.3958 2.79949 30.1284 2.55121C29.7489 2.19431 29.6463 1.72569 29.8205 1.22602C30.0537 0.558771 30.769 0.28566 31.4003 0.602217C31.7362 0.769806 32.069 0.937398 32.4079 1.10499C32.9397 1.36568 33.1823 1.85914 33.0486 2.42397C32.9242 2.96709 32.3986 3.3395 31.758 3.34261ZM31.7704 2.5357C32.0658 2.5326 32.2618 2.45501 32.296 2.19431C32.3302 1.92741 32.1405 1.78465 31.9166 1.76914C31.6211 1.74431 31.3972 1.62017 31.1888 1.42775C31.0396 1.28809 30.8592 1.19499 30.6695 1.35947C30.4673 1.53327 30.5109 1.7412 30.6415 1.93672C30.9214 2.35259 31.3692 2.45811 31.7704 2.5357Z" fill="#FFEB61"/>
<path d="M25.4411 21.6315C26.0693 21.4919 26.1315 21.5198 26.3741 22.0474C26.5669 22.4664 26.7659 22.8791 26.9463 23.3043C27.021 23.4812 27.0987 23.534 27.3071 23.5185C27.5839 23.4998 27.8855 23.5309 28.1436 23.6302C28.6475 23.8226 28.9647 24.3502 28.9336 24.8374C28.9056 25.2999 28.4888 25.7716 27.9259 25.9113C27.5745 25.9981 27.2542 26.1037 26.9525 26.3178C26.5669 26.5909 26.1253 26.5754 25.7397 26.3147C25.3105 26.0261 25.2172 25.5699 25.2763 25.0888C25.3261 24.6916 25.5095 24.3502 25.8236 24.0895C25.9667 23.9747 26.1129 23.866 26.2746 23.7388C25.9822 23.0498 25.55 22.4136 25.4411 21.6315ZM27.5372 24.254C27.3133 24.3005 27.108 24.3223 26.9152 24.3874C26.5016 24.5271 26.1533 24.7567 26.0631 25.2161C26.0382 25.3402 26.1004 25.5326 26.1937 25.6102C26.2683 25.6723 26.4954 25.6599 26.5762 25.5916C26.9401 25.2812 27.3568 25.1323 27.8171 25.0485C27.9322 25.0268 28.1125 24.8778 28.1094 24.7909C28.1032 24.6543 27.9944 24.4992 27.8855 24.3967C27.7953 24.3161 27.6461 24.2974 27.5372 24.254Z" fill="#FFEB61"/>
<path d="M29.5405 13.6307C29.0957 13.8448 28.595 14.0962 28.0881 14.3352C27.8829 14.4314 27.6652 14.5462 27.5097 14.2545C27.3853 14.0186 27.4599 13.7424 27.7274 13.6028C28.1876 13.3607 28.6635 13.1372 29.1362 12.9231C29.3041 12.8455 29.3818 12.7617 29.385 12.56C29.3974 11.8679 29.8079 11.3931 30.4486 11.2969C30.9835 11.2162 31.5184 11.5979 31.7547 12.2C31.8356 12.4048 31.9786 12.5848 32.103 12.771C32.4576 13.3141 32.4576 13.8759 32.0968 14.2731C31.7019 14.7076 31.0301 14.8286 30.4983 14.4873C30.1624 14.2731 29.895 13.9535 29.5405 13.6307ZM31.2789 13.8572C31.3287 13.8231 31.4811 13.7641 31.5308 13.6586C31.5744 13.5655 31.5433 13.3793 31.4717 13.3048C31.2012 13.0162 31.0021 12.7058 30.8902 12.321C30.8591 12.2124 30.6756 12.0883 30.5543 12.0789C30.4517 12.0727 30.2993 12.2 30.2371 12.3086C29.9354 12.8424 30.5761 13.8728 31.2789 13.8572Z" fill="#FFEB61"/>
<path d="M14.8366 19.7758C15.1165 19.7664 15.4462 19.8937 15.7229 20.142C15.8536 20.2568 15.95 20.263 16.0899 20.142C16.348 19.9123 16.6279 19.7013 16.8985 19.484C17.0665 19.3475 17.2437 19.2916 17.4179 19.4654C17.5982 19.6485 17.6511 19.8751 17.4614 20.0644C17.1971 20.3313 16.9078 20.5765 16.6124 20.8123C16.4507 20.9427 16.3916 21.0482 16.4507 21.2685C16.5191 21.5261 16.5378 21.8148 16.5098 22.0817C16.4693 22.5037 16.205 22.783 15.8131 22.9351C15.4182 23.0872 15.0512 23.0375 14.7278 22.752C14.6749 22.7055 14.6158 22.6589 14.5754 22.603C14.2768 22.181 13.9503 21.7713 13.6984 21.3244C13.291 20.6044 13.8663 19.782 14.8366 19.7758ZM15.8038 21.8427C15.7167 21.2747 15.4928 20.8992 15.073 20.6696C14.9579 20.6044 14.7962 20.5827 14.6625 20.6013C14.3577 20.6385 14.3079 20.8216 14.4883 21.0637C14.6967 21.3492 14.8646 21.6627 15.0854 21.9358C15.1756 22.0475 15.3746 22.1717 15.4897 22.1437C15.6234 22.1158 15.723 21.9265 15.8038 21.8427Z" fill="#FFEB61"/>
<path d="M23.5757 6.28481C23.4855 6.14515 23.4139 6.07999 23.3984 6.0024C23.3766 5.90619 23.3984 5.80067 23.4077 5.70136C23.4793 4.82927 23.2149 4.09374 22.5245 3.53511C22.3814 3.41718 22.2446 3.30546 22.3224 3.08821C22.4032 2.86476 22.5836 2.92373 22.7515 2.92683C23.6627 2.94855 24.4185 2.64441 24.9596 1.88405C25.0591 1.7475 25.1773 1.62646 25.3639 1.70095C25.5505 1.77543 25.5536 1.93371 25.5287 2.10751C25.3888 3.02614 25.7309 3.75546 26.4368 4.32651C26.5861 4.44754 26.6763 4.57168 26.6079 4.761C26.5394 4.95652 26.3715 4.91928 26.2191 4.90686C25.255 4.82928 24.5273 5.23583 23.952 5.98378C23.868 6.0955 23.7281 6.16688 23.5757 6.28481ZM24.067 4.87272C24.5273 4.6741 25.0187 4.45685 25.5256 4.23961C25.1742 3.86098 24.9596 3.39545 24.9254 2.91441C24.4402 3.13476 23.9582 3.35201 23.5259 3.55063C23.7032 3.98512 23.8929 4.44134 24.067 4.87272Z" fill="#FFEB61"/>
<path d="M38.7768 13.0814C38.7457 13.1093 38.6866 13.2025 38.6058 13.2273C37.8407 13.4631 37.34 13.938 37.169 14.7418C37.1503 14.8318 37.0104 14.9373 36.914 14.9528C36.8424 14.9621 36.7211 14.8504 36.6776 14.7635C36.5687 14.5432 36.5159 14.2949 36.3946 14.0838C36.1707 13.6835 35.8286 13.4166 35.3714 13.308C35.2066 13.2676 35.0542 13.2118 35.0542 13.0007C35.0573 12.8052 35.2004 12.7587 35.3528 12.7028C35.9779 12.4607 36.4319 12.0542 36.5967 11.3776C36.6092 11.3341 36.6123 11.2752 36.6434 11.2472C36.7242 11.1728 36.8175 11.0641 36.9046 11.061C36.9886 11.061 37.1068 11.1603 37.1565 11.2472C37.228 11.3714 37.2343 11.5297 37.2965 11.66C37.5546 12.1969 37.9713 12.5538 38.5467 12.7183C38.755 12.7742 38.7768 12.8052 38.7768 13.0814ZM37.567 13.0131C37.3462 12.7866 37.085 12.5197 36.9046 12.3335C36.718 12.5259 36.4537 12.799 36.2142 13.0442C36.3884 13.2211 36.6527 13.4911 36.858 13.7021C37.1161 13.4538 37.3835 13.19 37.567 13.0131Z" fill="#FFEB61"/>
<path d="M13.288 6.747C13.2258 6.67251 13.1356 6.60734 13.1077 6.52044C12.9522 6.04871 12.7251 5.62663 12.2991 5.34421C12.1405 5.23869 11.9508 5.18283 11.7922 5.07731C11.6958 5.01214 11.5745 4.89731 11.5714 4.8011C11.5682 4.708 11.6833 4.56214 11.7797 4.528C12.4359 4.28592 12.8931 3.86385 13.117 3.19039C13.1512 3.09108 13.2943 2.95452 13.3751 2.96383C13.4684 2.97314 13.5959 3.10969 13.6239 3.21521C13.8012 3.87936 14.249 4.27661 14.8617 4.51869C15.0016 4.57455 15.1198 4.6211 15.1167 4.7949C15.1136 4.95938 15.0078 5.03697 14.8679 5.08662C14.1868 5.32559 13.7763 5.81284 13.5959 6.49872C13.5524 6.64768 13.4995 6.72527 13.288 6.747ZM13.9442 4.79179C13.7887 4.6211 13.5524 4.3542 13.3285 4.10902C13.0921 4.33247 12.8464 4.56834 12.6661 4.73903C12.8931 4.9749 13.1388 5.23249 13.3409 5.44353C13.5213 5.2449 13.7607 4.99042 13.9442 4.79179Z" fill="#FFEB61"/>
<path d="M20.1359 34.8122C19.0412 34.8029 18.1859 33.9246 18.1984 32.8167C18.2077 31.7491 19.1127 30.8863 20.1981 30.9018C21.2928 30.9173 22.1511 31.7894 22.1387 32.8725C22.1262 33.9681 21.2461 34.8215 20.1359 34.8122ZM20.1639 34.1295C20.8574 34.1264 21.4483 33.5367 21.442 32.8601C21.4358 32.1867 20.8511 31.6094 20.1732 31.6094C19.4766 31.6094 18.8794 32.196 18.8857 32.8663C18.8919 33.5646 19.4672 34.1326 20.1639 34.1295Z" fill="#FFEB61"/>
<path d="M11.453 20.3652C11.453 21.0107 10.9896 21.4948 10.3707 21.4979C9.72075 21.501 9.22005 21.0107 9.22316 20.3683C9.22316 19.7258 9.71142 19.2324 10.3427 19.2386C10.9958 19.2448 11.453 19.7072 11.453 20.3652ZM10.8621 20.3714C10.8652 20.0765 10.632 19.8376 10.3334 19.8345C10.0597 19.8345 9.8327 20.0703 9.82337 20.3652C9.81404 20.6538 10.038 20.8927 10.321 20.8959C10.6195 20.8959 10.859 20.6662 10.8621 20.3714Z" fill="#FFEB61"/>
<path d="M27.4256 45.1746C26.8316 45.1715 26.362 44.6781 26.3682 44.0605C26.3744 43.4305 26.8254 42.9898 27.4598 42.9898C28.06 42.9867 28.5359 43.4584 28.5359 44.0543C28.539 44.6905 28.0538 45.1777 27.4256 45.1746ZM27.9481 44.0543C27.9481 43.7936 27.7211 43.5825 27.4412 43.5825C27.1737 43.5825 26.9591 43.806 26.9591 44.0822C26.9591 44.3584 27.1519 44.557 27.4225 44.5632C27.7273 44.5663 27.945 44.3553 27.9481 44.0543Z" fill="#FFEB61"/>
</svg>
