<svg width="48" height="49" viewBox="0 0 48 49" fill="none" xmlns="http://www.w3.org/2000/svg">
<path d="M14.2568 33.8219C14.3348 33.7096 14.3934 33.6246 14.4559 33.5429C14.7643 33.1279 15.2953 33.1075 15.5998 33.5429C15.8926 33.9613 16.1113 34.4171 16.3572 34.8559C16.4158 34.9614 16.4587 35.0736 16.5251 35.2165C16.7125 35.026 16.857 34.8593 17.0248 34.7131C17.427 34.3627 17.9345 34.4171 18.1414 34.8696C18.731 36.1622 19.4181 37.4378 19.625 38.8324C19.7226 39.4787 19.6406 40.1488 19.6445 40.8087C19.6445 40.8972 19.6602 41.0196 19.7265 41.0706C20.2419 41.4686 20.7729 41.8496 21.3741 42.2918C21.3546 38.2269 21.6708 34.2471 22.2057 30.189C22.0886 30.2774 22.0534 30.2978 22.03 30.325C21.3195 31.1516 20.2341 31.1006 19.6055 30.2094C19.2268 29.6753 19.1917 29.0698 19.1409 28.4712C19.1253 28.2773 19.137 28.08 19.137 27.8827C19.0745 27.8487 19.0121 27.8147 18.9496 27.7806C18.9106 27.8657 18.8988 27.9745 18.8286 28.029C18.3796 28.3691 17.9579 28.7535 17.4504 29.0154C16.6969 29.41 15.8458 29.1141 15.6154 28.3691C15.4632 27.8759 15.4827 27.3418 15.4358 26.8248C15.4241 26.7091 15.4593 26.5867 15.4827 26.3928C15.307 26.4846 15.1899 26.5527 15.0688 26.6105C14.3622 26.9405 13.6438 27.2398 12.8083 27.1037C11.9377 26.9643 11.4301 26.3146 11.5707 25.556C11.6839 24.9369 12.004 24.3893 12.4179 23.8926C12.9723 23.2293 13.5696 22.5932 14.1513 21.9435C14.1826 21.9061 14.2177 21.8721 14.2841 21.7973C13.7844 21.8313 13.3432 21.8891 12.902 21.8823C12.1134 21.8687 11.3052 21.8993 10.54 21.7632C9.61467 21.6 9.15007 20.9741 9.34528 20.3006C9.43118 20.0046 9.63419 19.7053 9.86845 19.474C10.4502 18.8923 11.2037 18.4943 11.9962 18.161C12.1055 18.1133 12.3476 18.161 12.4335 18.2426C12.5858 18.3821 12.5311 18.5726 12.3398 18.6814C12.0353 18.8583 11.6956 18.9978 11.4028 19.1916C11.0046 19.4604 10.5985 19.7325 10.2706 20.0624C9.80207 20.5285 9.94263 20.906 10.6024 21.1203C11.313 21.3516 12.047 21.3074 12.7849 21.2972C14.7877 21.27 16.4665 20.5081 18.0868 19.5964C18.3484 19.4502 18.5943 19.2801 18.8637 19.1474C19.1019 19.0284 19.1604 18.8923 19.1019 18.6576C18.9886 18.2052 19.0082 18.1712 18.4811 18.1508C17.2552 18.1031 16.0254 18.0793 14.7955 18.0589C14.452 18.0521 14.2763 17.9739 14.2802 17.746C14.2841 17.4636 14.5027 17.399 14.7721 17.4024C16.1854 17.4296 17.5988 17.4602 19.0511 17.4908C19.1526 17.2289 19.2932 16.8956 19.4103 16.552C19.4259 16.5044 19.3361 16.3955 19.2659 16.3649C17.9111 15.705 16.5837 14.9907 15.1821 14.4226C14.3309 14.0757 13.3666 13.926 12.4413 13.7423C11.598 13.5756 10.7352 13.4804 9.87234 13.6096C9.57172 13.6539 9.2711 13.7457 9.00171 13.8716C8.62691 14.045 8.56834 14.29 8.79869 14.5995C8.93143 14.773 9.09931 14.9295 9.275 15.0689C9.93871 15.5928 10.7274 15.9465 11.5394 16.2629C11.6488 16.3071 11.7971 16.3649 11.8323 16.45C11.8791 16.5554 11.8752 16.7255 11.801 16.8105C11.7346 16.8888 11.516 16.9568 11.4223 16.9194C10.1808 16.4262 8.94314 15.9091 8.17792 14.8614C7.72113 14.2355 7.93196 13.5824 8.71279 13.2831C9.1852 13.1028 9.73179 12.9667 10.2393 12.9769C11.2115 12.994 12.1797 13.13 13.1519 13.2151C13.2182 13.2219 13.2807 13.2321 13.3471 13.2389C13.3822 13.2015 13.4174 13.1674 13.4525 13.13C13.3237 13.062 13.1792 13.011 13.0738 12.9259C12.1953 12.2252 11.3755 11.4768 10.8874 10.5108C10.7781 10.2931 10.6961 10.0584 10.6298 9.82708C10.3369 8.8066 11.352 8.17391 12.2851 8.33719C12.8552 8.43583 13.4252 8.5889 13.96 8.78279C14.5105 8.98009 15.022 9.26241 15.549 9.50733C15.6467 9.55155 15.7443 9.59917 15.9238 9.68761C15.8106 9.34405 15.7169 9.08213 15.6349 8.81341C15.389 8.01744 15.1469 7.22147 15.2523 6.38468C15.3851 5.35059 16.3533 4.90498 17.3957 5.39481C18.0243 5.69075 18.5279 6.12615 18.9379 6.62618C19.465 7.26908 19.9491 7.9426 20.4371 8.60931C20.5191 8.72156 20.5777 8.87464 20.5659 9.00049C20.5464 9.225 20.1599 9.31004 19.9725 9.12975C19.8437 9.00729 19.75 8.85082 19.6524 8.70455C19.0628 7.81674 18.4382 6.94934 17.5636 6.24861C17.3333 6.06492 17.0444 5.91866 16.7515 5.81661C16.4548 5.71456 16.1776 5.84042 16.0956 6.10574C16.0097 6.40168 15.9473 6.71803 15.9824 7.01737C16.1074 8.18411 16.4587 9.30323 17.0326 10.3645C17.1537 10.5856 17.0561 10.6877 16.8999 10.8237C16.7281 10.97 16.6032 10.9224 16.4314 10.8101C15.3187 10.072 14.1553 9.40528 12.7966 9.05832C12.4843 8.98008 12.1407 8.95627 11.8127 8.95627C11.4887 8.95627 11.274 9.15697 11.3208 9.42909C11.3794 9.76925 11.4653 10.123 11.6488 10.4224C12.3281 11.5313 13.3354 12.3987 14.4637 13.1572C16.041 14.2151 17.7588 15.0655 19.5782 15.7628C19.7383 15.8241 19.832 15.8241 19.9569 15.6948C20.3903 15.2492 20.4254 15.2356 20.0467 14.7662C19.4025 13.9736 18.7271 13.2015 18.0516 12.4259C17.8174 12.1606 17.794 12.0347 18.0282 11.8748C18.2937 11.6911 18.4928 11.8306 18.6412 12.0075C19.3517 12.8579 20.0467 13.7185 20.7455 14.5757C20.8236 14.6709 20.8939 14.773 20.9642 14.8648C21.3155 14.7254 21.6318 14.5859 21.9597 14.4736C22.1706 14.3988 22.1159 14.2798 22.073 14.1573C21.7684 13.3273 21.46 12.4973 21.1516 11.6707C21.1125 11.5653 21.0227 11.4564 21.0383 11.3612C21.054 11.2523 21.136 11.1129 21.2375 11.0619C21.3195 11.021 21.5264 11.0585 21.5888 11.1231C21.7138 11.2489 21.7997 11.4122 21.8621 11.5721C22.1745 12.3987 22.4829 13.2287 22.764 14.0655C22.8304 14.2661 22.8967 14.3444 23.1466 14.3376C23.8298 14.3172 23.7986 14.3206 23.9275 13.7389C24.1968 12.5415 24.4975 11.3476 24.802 10.1536C24.8371 10.0176 24.9308 9.8679 25.0558 9.78626C25.1299 9.73524 25.3564 9.76585 25.4267 9.83048C25.5048 9.90532 25.5282 10.0686 25.5008 10.1774C25.3095 10.9292 25.0792 11.6775 24.8996 12.4327C24.7669 13.0008 24.6888 13.579 24.5834 14.1539C24.5443 14.3614 24.6068 14.477 24.8567 14.5553C25.5945 14.7866 25.6102 14.807 26.0396 14.2151C26.9454 12.9599 27.8785 11.7184 28.7062 10.4224C29.448 9.26241 29.8189 7.98002 29.8462 6.6466C29.854 6.24181 29.7838 5.82341 29.6588 5.43563C29.4909 4.91859 29.163 4.81314 28.6008 5.05125C27.9019 5.35059 27.3749 5.83362 26.9142 6.36086C26.5472 6.78266 26.2309 7.24187 25.9186 7.69769C25.8015 7.86777 25.6765 7.99022 25.4618 7.91539C25.3447 7.87457 25.2315 7.74191 25.1963 7.62966C24.9035 6.69082 24.6263 5.74518 24.029 4.90839C23.8142 4.60905 23.5331 4.33012 23.2325 4.092C22.9319 3.85049 22.6313 3.88791 22.4712 4.21446C22.1667 4.84716 21.9051 5.50026 21.6942 6.16357C21.5615 6.57516 21.5342 7.01397 21.4951 7.44257C21.4717 7.68748 21.3468 7.78273 21.0813 7.77592C20.8002 7.76912 20.7729 7.60244 20.7963 7.41875C20.9368 6.2282 21.1008 5.04445 21.788 3.97295C22.2565 3.24841 23.0061 3.11915 23.7479 3.6498C24.5092 4.19745 24.9464 4.9356 25.2822 5.72137C25.4189 6.03431 25.5399 6.35406 25.6453 6.62279C26.2622 6.05812 26.84 5.46965 27.492 4.95941C27.8277 4.69749 28.2845 4.5138 28.7218 4.39135C29.3504 4.21446 29.8696 4.45937 30.182 4.97301C30.5451 5.56489 30.5529 6.20439 30.5334 6.85069C30.5295 7.00716 30.5177 7.16364 30.506 7.39495C30.6895 7.2895 30.8067 7.22147 30.9238 7.15003C31.6617 6.69422 32.4425 6.32004 33.3483 6.17718C34.5117 5.99689 35.4956 6.78946 35.2184 7.78613C35.0193 8.49706 34.6523 9.18078 34.2814 9.84409C33.9651 10.4087 33.5591 10.9394 33.1609 11.4666C32.9501 11.749 32.708 11.7354 32.5284 11.4462C32.4737 11.3578 32.5245 11.1877 32.587 11.0823C33.1492 10.1638 33.7387 9.25902 34.2931 8.33719C34.4337 8.10248 34.5 7.82694 34.5547 7.56162C34.6445 7.13302 34.3282 6.76905 33.8363 6.79967C33.3756 6.83028 32.9032 6.92893 32.4776 7.0786C31.689 7.35753 31.0292 7.81334 30.4397 8.34739C30.385 8.39501 30.3342 8.45624 30.3147 8.52087C29.694 10.3815 28.6164 12.0449 27.3827 13.6369C26.9844 14.1505 26.5784 14.6607 26.1802 15.171C26.188 15.1948 26.188 15.222 26.2036 15.2322C26.8048 15.6982 26.5355 15.7152 27.2265 15.324C28.6242 14.5383 29.9165 13.6369 31.119 12.6368C31.201 12.5688 31.283 12.4939 31.3728 12.4327C31.5211 12.3272 31.6812 12.283 31.8296 12.4293C31.9701 12.562 32.017 12.715 31.8647 12.8613C31.6539 13.062 31.4391 13.2559 31.2088 13.4396C29.9477 14.443 28.6008 15.3479 27.1172 16.1472C27.2421 16.3921 27.3592 16.6473 27.5115 16.8922C27.5388 16.9364 27.7145 16.9534 27.8004 16.9296C29.0341 16.5758 30.2601 16.2119 31.4899 15.8479C31.6968 15.7867 31.9037 15.6812 32.0794 15.8887C32.2512 16.0894 32.2161 16.2595 31.9232 16.3581C30.994 16.6779 30.057 16.9874 29.1161 17.2731C28.6632 17.4126 28.183 17.4909 27.6833 17.6031C27.6833 17.916 27.6833 18.2324 27.6833 18.6066C28.8116 18.8583 29.979 19.1202 31.1424 19.3821C31.2556 19.4059 31.3689 19.423 31.4782 19.4536C31.6929 19.5114 31.9232 19.5726 31.8334 19.8379C31.7554 20.0693 31.568 20.1441 31.2947 20.0795C31.0175 20.0114 30.7364 19.9604 30.4592 19.8958C29.4948 19.6713 28.5305 19.4434 27.5427 19.2121C27.4022 19.474 27.2538 19.7189 27.1367 19.9774C27.1133 20.0318 27.1718 20.1441 27.2343 20.1917C28.3743 21.0557 29.5885 21.8313 30.9628 22.3993C31.1658 22.481 31.322 22.5524 31.2361 22.7973C31.1229 23.1171 31.0917 23.1443 30.7442 23.0014C29.3582 22.4334 28.1245 21.668 26.9571 20.8142C26.8634 20.7462 26.7697 20.6747 26.6643 20.5999C26.4457 20.77 26.2348 20.9094 26.063 21.0795C26.0045 21.1339 26.0045 21.2904 26.0552 21.3619C26.5394 22.0762 27.043 22.7803 27.531 23.4947C27.6091 23.6069 27.7106 23.7532 27.6833 23.862C27.613 24.1682 27.2655 24.226 27.0508 23.9471C26.5081 23.2531 26.0045 22.5354 25.4891 21.8245C25.4267 21.7428 25.3837 21.6476 25.333 21.566C24.7434 21.7054 24.1695 21.8381 23.5527 21.9843C23.5487 22.015 23.5292 22.0932 23.5331 22.168C23.783 24.777 24.7122 27.1446 26.758 29.1175C27.1484 29.4916 27.5818 29.8182 28.144 29.9849C28.5969 30.1175 28.9092 30.0257 29.1161 29.6515C29.2333 29.4406 29.3192 29.1957 29.3309 28.9644C29.366 27.9473 29.1278 26.9745 28.6476 26.0458C28.6281 26.0084 28.5852 25.9676 28.593 25.937C28.6359 25.7839 28.6437 25.5934 28.753 25.4914C28.917 25.3451 29.1044 25.4404 29.2489 25.59C29.9946 26.3554 30.8652 26.9983 31.9115 27.4235C32.4464 27.6412 33.032 27.8079 33.6138 27.8725C34.4219 27.9643 34.8006 27.5834 34.6015 26.8928C34.4532 26.3758 34.2189 25.8622 33.9339 25.3893C33.6138 24.8587 33.196 24.3757 32.8212 23.8722C32.7822 23.8212 32.7158 23.777 32.708 23.7226C32.6885 23.5865 32.6377 23.413 32.708 23.3144C32.7627 23.2361 32.9852 23.2123 33.1257 23.2259C33.9808 23.3076 34.8319 23.4368 35.6869 23.481C36.05 23.5015 36.4443 23.4028 36.784 23.2769C37.2642 23.1001 37.3501 22.8075 37.0729 22.4231C36.4873 21.6102 35.6244 21.0659 34.6796 20.6033C34.4336 20.4808 34.0628 20.4298 34.1721 20.0659C34.2775 19.7189 34.6289 19.8345 34.8943 19.8141C36.2842 19.7155 37.6234 19.4468 38.8532 18.8583C39.189 18.6984 39.5091 18.4773 39.7668 18.229C40.1572 17.8548 40.1299 17.4092 39.6809 17.0861C39.3217 16.8275 38.9118 16.603 38.4823 16.4466C37.1197 15.9397 35.6869 15.722 34.2072 15.7458C34.0823 15.7492 33.9495 15.7492 33.8324 15.722C33.5357 15.654 33.4537 15.3615 33.6879 15.188C33.8012 15.1029 33.9378 15.0451 34.0666 14.9839C35.0739 14.4838 35.9914 13.8852 36.702 13.0722C37.1861 12.5211 36.9987 12.0959 36.1983 12.0517C35.5424 12.0177 34.8748 12.1027 34.215 12.1606C33.7543 12.2014 33.606 12.1504 33.5669 11.8272C33.5591 11.7592 33.6411 11.6299 33.7075 11.6129C34.7382 11.3476 35.7845 11.2285 36.8269 11.5585C37.5921 11.8 37.9279 12.4157 37.5414 13.0348C37.233 13.5246 36.7723 13.9498 36.3311 14.3648C36.0305 14.6471 35.6479 14.8614 35.2574 15.137C35.722 15.1948 36.1359 15.2356 36.5497 15.3002C37.5765 15.4601 38.5565 15.7424 39.474 16.1812C41.0786 16.9466 41.1684 18.2154 39.6848 19.1576C38.6541 19.8141 37.4477 20.0727 36.2257 20.2938C36.0695 20.321 35.9094 20.3448 35.6713 20.3856C35.7923 20.4706 35.8704 20.5183 35.9368 20.5693C36.417 20.9401 36.9245 21.2904 37.3696 21.6918C37.5921 21.8925 37.7405 22.1782 37.8459 22.447C38.0802 23.032 37.842 23.5525 37.1978 23.8008C36.8074 23.9539 36.3662 24.0219 35.9407 24.0831C35.6127 24.1273 35.2731 24.1001 34.9412 24.1001C34.6211 24.1001 34.3009 24.1001 33.9417 24.1001C34.0237 24.2328 34.1096 24.3655 34.1877 24.5049C34.5391 25.1342 34.91 25.7567 35.2262 26.3996C35.3394 26.6309 35.3511 26.9098 35.355 27.1684C35.3707 27.9269 34.8631 28.4031 33.9925 28.495C33.2155 28.5732 32.5011 28.3861 31.8334 28.0834C31.2751 27.8283 30.752 27.5153 30.2132 27.2262C30.1078 27.1718 30.0063 27.1105 29.9165 27.0561C29.9555 27.6956 30.018 28.3181 30.0258 28.944C30.0297 29.2263 29.9633 29.5257 29.8462 29.791C29.5065 30.5768 28.6789 30.8659 27.7926 30.5393C26.9493 30.2264 26.3285 29.6821 25.7819 29.063C25.536 28.7875 25.3017 28.5052 25.005 28.1548C24.4077 32.9136 23.8962 37.5908 23.8611 42.3769C24.0758 42.2442 24.2164 42.1489 24.3647 42.0605C24.9035 41.7374 25.454 41.421 25.985 41.0842C26.0826 41.023 26.1685 40.8768 26.1646 40.7713C26.1021 39.6182 26.4066 38.5467 27.0313 37.533C27.5115 36.7574 27.9761 35.9717 28.4446 35.1927C28.4876 35.1213 28.5305 35.0498 28.5813 34.9852C28.8389 34.6451 29.1474 34.5974 29.5026 34.8627C29.6588 34.9784 29.7759 35.1315 29.9087 35.2675C29.9946 35.356 30.0805 35.4512 30.2132 35.5941C30.3342 35.4002 30.4201 35.2403 30.5294 35.0975C30.8301 34.6995 31.0956 34.2641 31.4665 33.9239C31.8803 33.5463 32.2004 33.594 32.5362 34.0362C32.7431 34.3117 32.911 34.2845 33.196 34.1552C34.34 33.6314 35.5073 33.1518 36.7996 32.9783C37.2173 32.9238 37.6819 32.9306 38.0841 33.0259C38.6931 33.1688 38.9547 33.645 38.7361 34.1654C38.5838 34.526 38.3847 34.9002 38.0997 35.1859C37.3501 35.9308 36.5419 36.6282 35.7572 37.3459C35.6947 37.4037 35.6205 37.4514 35.5541 37.5092C35.5307 37.5296 35.5229 37.5602 35.4956 37.6044C35.5776 37.6827 35.6596 37.7643 35.7416 37.8425C36.3116 38.3732 36.2881 38.7712 35.5463 39.1147C34.4922 39.6012 33.3912 40.0162 32.3098 40.4584C32.1146 40.5366 31.9076 40.5944 31.6578 40.6761C31.7593 40.7475 31.8256 40.8019 31.8959 40.8427C32.2278 41.0366 32.2863 41.3258 32.2512 41.6387C32.22 41.9312 32.0013 42.1081 31.7085 42.2102C30.9433 42.4755 30.1468 42.4313 29.3543 42.3632C28.9444 42.3292 28.5383 42.2408 28.1245 42.2068C27.9839 42.1932 27.8043 42.234 27.6911 42.302C26.5003 43.0198 25.3213 43.7545 24.1266 44.4688C23.9392 44.5811 23.8728 44.6967 23.8884 44.8906C23.9509 45.5811 24.0094 46.2717 24.0407 46.9622C24.0524 47.2071 24.0368 47.469 23.9509 47.7003C23.7635 48.2004 23.2052 48.4725 22.5844 48.4147C22.0534 48.3671 21.6123 48.0133 21.5498 47.5064C21.4795 46.918 21.4288 46.3227 21.46 45.7376C21.4951 45.0743 21.3156 44.6287 20.605 44.2273C19.6289 43.6763 18.7934 42.9313 17.9111 42.2612C17.7588 42.1455 17.6378 42.0979 17.427 42.1285C16.4587 42.2612 15.4983 42.2476 14.5691 41.9312C14.4403 41.887 14.3153 41.836 14.1943 41.7782C13.8546 41.6115 13.597 41.3904 13.6009 41.0264C13.6009 40.6625 13.9054 40.5128 14.2841 40.3903C14.1826 40.3325 14.1123 40.2917 14.042 40.2509C13.0738 39.6896 12.1094 39.1317 11.1412 38.5671C11.0748 38.5297 11.0163 38.4786 10.9538 38.431C10.2862 37.9106 10.3096 37.5466 11.0397 37.084C11.1022 37.0432 11.1607 36.9955 11.231 36.9411C10.864 36.5669 10.5009 36.2064 10.1534 35.8356C9.48973 35.1281 8.85335 34.4001 8.49416 33.5259C8.40436 33.3014 8.3458 33.0633 8.31066 32.8252C8.20915 32.0803 8.77527 31.553 9.62639 31.6653C10.1378 31.7333 10.6727 31.8694 11.1178 32.0905C12.086 32.5667 13.0074 33.1177 13.9483 33.6416C14.0615 33.6892 14.1474 33.7538 14.2568 33.8219ZM20.2302 20.9026C20.1911 20.9537 20.1365 21.0421 20.0662 21.1203C19.4376 21.8381 18.8012 22.549 18.1805 23.2701C17.833 23.6715 17.5168 24.0899 17.1576 24.4811C17.0795 24.5661 16.8687 24.5627 16.7203 24.6002C16.6774 24.4573 16.6149 24.3178 16.5993 24.175C16.5915 24.1103 16.6813 24.0355 16.7359 23.9709C17.5948 22.9538 18.446 21.9333 19.3244 20.9265C19.8515 20.3244 19.871 20.338 19.3752 19.7223C19.3635 19.7087 19.34 19.6985 19.3049 19.6781C19.2658 19.6951 19.2151 19.7155 19.1682 19.7393C18.1063 20.2801 17.0444 20.821 15.9824 21.3653C15.8067 21.4571 15.6193 21.5455 15.471 21.6646C14.5652 22.4129 13.7492 23.2293 13.1011 24.1614C12.8005 24.5934 12.5155 25.0526 12.3398 25.5322C12.1016 26.1683 12.6209 26.6547 13.3705 26.5085C13.8195 26.4234 14.2646 26.2465 14.6667 26.0458C15.0727 25.8451 15.4202 25.5526 15.8106 25.3213C15.9082 25.2635 16.1386 25.2397 16.1971 25.2907C16.3065 25.3893 16.4314 25.5866 16.3846 25.6887C16.0917 26.369 16.1503 27.0697 16.162 27.7704C16.1659 27.8895 16.1972 28.0086 16.2401 28.1242C16.3846 28.5188 16.693 28.6344 17.1263 28.4542C17.2513 28.4031 17.3879 28.3487 17.4777 28.2637C18.0243 27.7364 18.5631 27.2058 19.0902 26.6683C19.1643 26.5935 19.1721 26.4642 19.1956 26.3554C19.2502 26.0799 19.2815 25.7975 19.3478 25.5254C19.6485 24.2464 19.9452 22.9674 20.6987 21.8177C20.8002 21.6646 20.9056 21.5115 21.0149 21.3551C20.7963 21.2088 20.5972 21.0727 20.3942 20.9401C20.3707 20.9367 20.3473 20.9367 20.2302 20.9026ZM15.061 33.8559C14.9244 34.0362 14.8385 34.1552 14.7526 34.2675C14.4832 34.6144 14.3856 34.6178 13.9835 34.3831C13.0894 33.8559 12.1953 33.3218 11.274 32.832C10.8367 32.6007 10.3448 32.4306 9.85283 32.3082C9.20082 32.1449 8.91582 32.4 9.07199 32.9715C9.14617 33.2402 9.25939 33.5089 9.40775 33.7572C10.0129 34.7709 10.8718 35.6247 11.7347 36.4751C12.371 37.1044 12.3749 37.101 11.5433 37.5534C11.1607 37.7609 11.1451 37.8187 11.5277 38.0534C12.2344 38.4854 12.9371 38.9242 13.6789 39.3052C14.3817 39.6624 15.1313 39.9481 15.8692 40.2543C16.0527 40.3291 16.1425 40.4073 16.1034 40.5944C16.0644 40.7815 15.9395 40.8427 15.7403 40.8325C15.5569 40.8223 15.3695 40.8053 15.1899 40.8291C14.9283 40.8631 14.6745 40.9346 14.4168 40.989C14.409 41.0366 14.4012 41.0842 14.3895 41.1353C14.6238 41.2339 14.8463 41.37 15.0962 41.4312C15.9082 41.6285 16.7359 41.6319 17.5558 41.4652C17.8525 41.404 18.0282 41.4686 18.2508 41.6421C19.1097 42.3224 19.9959 42.9755 20.8783 43.6354C21.011 43.7341 21.1711 43.8055 21.3741 43.9212C21.3741 43.6524 21.3897 43.4518 21.3663 43.2545C21.3546 43.166 21.2921 43.064 21.2101 43.0061C18.6685 41.2203 16.3533 39.227 14.0147 37.2507C13.1987 36.5601 12.4179 35.8356 11.6331 35.1179C11.5238 35.0192 11.352 34.8696 11.5707 34.7403C11.7464 34.6348 11.9338 34.526 12.1719 34.7369C13.4369 35.8458 14.7214 36.9411 15.998 38.0398C16.0566 38.0909 16.1308 38.1317 16.2674 38.2235C16.1659 36.669 15.8653 35.2505 15.061 33.8559ZM30.0922 38.4174C30.1781 38.3698 30.264 38.3256 30.3459 38.2711C31.2127 37.7099 32.0794 37.1452 32.9461 36.5806C33.5357 36.1996 34.1291 35.8152 34.7265 35.441C35.0583 35.2335 35.2262 35.2403 35.398 35.458C35.6088 35.7267 35.2848 35.7948 35.1559 35.9308C35.1208 35.9683 35.07 35.9955 35.0232 36.0261C32.544 37.6418 30.0727 39.2644 27.5857 40.8666C26.4769 41.5809 25.3252 42.2476 24.2047 42.9483C23.8455 43.1728 23.7986 43.4075 23.9704 43.8123C24.0719 43.7613 24.1734 43.7205 24.2671 43.6627C25.2822 43.0368 26.3129 42.4313 27.2968 41.7748C27.6677 41.5299 27.98 41.4584 28.4212 41.5707C29.245 41.7816 30.0922 41.8666 30.9472 41.7203C31.1775 41.6795 31.4001 41.5911 31.6929 41.5026C31.5445 41.3836 31.486 41.3088 31.4079 41.2849C31.1112 41.1965 30.8106 41.1047 30.5021 41.0536C30.2249 41.0094 29.9946 40.921 29.9477 40.6761C29.897 40.4243 30.1898 40.4311 30.3616 40.3563C30.424 40.3291 30.4943 40.3223 30.5568 40.2985C31.8998 39.8291 33.2429 39.363 34.582 38.8834C34.8631 38.7848 35.1208 38.6351 35.4448 38.4786C35.195 38.2507 34.9959 38.0636 34.785 37.8834C34.3946 37.5534 34.4102 37.5126 34.8163 37.186C35.6166 36.5397 36.4248 35.9002 37.1783 35.2097C37.5375 34.8832 37.8069 34.4682 38.0567 34.0668C38.2324 33.7878 38.088 33.5838 37.7249 33.5599C37.3852 33.5395 37.0338 33.5565 36.702 33.6178C35.3941 33.8593 34.1994 34.3525 33.0359 34.9104C32.6299 35.1043 32.505 35.077 32.2629 34.7267C32.177 34.6042 32.0989 34.475 31.9701 34.2811C30.8769 35.5465 30.4162 36.9479 30.0922 38.4174ZM19.7383 18.0997C19.7617 19.9536 21.3077 21.3346 23.3418 21.3142C25.3408 21.2938 27.0118 19.8039 26.9922 18.0555C26.9727 16.3071 25.3095 14.9158 23.2403 14.9499C21.0813 14.9839 19.8007 16.467 19.7383 18.0997ZM24.0016 26.5459C23.9001 26.8282 23.8142 27.0527 23.7361 27.284C23.5175 27.9065 23.1857 28.5154 23.0998 29.1515C22.7913 31.4305 22.518 33.713 22.3228 36.0023C22.1706 37.7915 22.1393 39.5875 22.073 41.3802C21.9949 43.3463 22.0808 45.309 22.2369 47.2717C22.2682 47.6561 22.4634 47.833 22.8109 47.8126C23.1544 47.7956 23.377 47.5541 23.3692 47.2037C23.3652 47.0234 23.3496 46.8431 23.334 46.6628C23.0724 43.7069 23.0959 40.7509 23.3223 37.7983C23.4511 36.1179 23.5956 34.441 23.7635 32.764C23.9353 31.0768 24.1266 29.3896 24.353 27.7092C24.4038 27.2772 24.271 26.9439 24.0016 26.5459ZM19.8202 27.6412C19.8202 27.8725 19.8007 28.1038 19.8241 28.3317C19.8749 28.8794 19.9296 29.4338 20.2497 29.927C20.5386 30.3727 20.972 30.4475 21.3663 30.0699C21.6552 29.7944 21.9324 29.4746 22.0925 29.1311C22.5883 28.0664 23.0373 26.9847 23.4785 25.8996C23.5566 25.7091 23.5331 25.471 23.4902 25.2635C23.3145 24.4097 23.1076 23.5593 22.928 22.7021C22.8772 22.4674 22.967 22.1578 22.8226 22.0048C22.6703 21.8449 22.315 21.8347 22.0456 21.7598C22.0339 21.7564 22.0222 21.7564 22.0144 21.753C21.7255 21.6102 21.5732 21.7122 21.4288 21.9503C20.3278 23.726 19.9608 25.6615 19.8202 27.6412ZM26.879 40.489C26.9844 40.4482 27.0313 40.4379 27.0664 40.4141C27.695 40.0093 28.3236 39.608 28.9443 39.193C29.0302 39.1351 29.081 39.0161 29.1122 38.9174C29.3348 38.2235 29.5339 37.5262 29.7642 36.8357C29.9243 36.3458 29.6861 35.7574 29.1708 35.4512C29.1474 35.4682 29.1122 35.4852 29.0966 35.5091C28.5188 36.4649 27.9293 37.4139 27.3788 38.38C27.0079 39.0263 26.8751 39.7236 26.879 40.489ZM19.016 40.54C19.2112 38.5365 18.2781 36.8833 17.4504 35.1179C17.2552 35.3526 17.1342 35.5159 16.9897 35.6689C16.7828 35.89 16.6969 36.1213 16.7594 36.4173C16.8491 36.8391 16.9507 37.2745 16.9311 37.6963C16.8843 38.6963 17.4114 39.3971 18.3015 39.9549C18.5358 40.1046 18.731 40.3019 19.016 40.54Z" fill="#FFEB61"/>
<path d="M12.012 6.76873C11.8793 6.68369 11.7895 6.65308 11.7465 6.59525C11.6919 6.52382 11.6763 6.43198 11.6489 6.34694C11.403 5.619 10.8954 5.10535 10.0521 4.86724C9.87644 4.81622 9.70855 4.7686 9.70465 4.56791C9.70075 4.36381 9.88815 4.35361 10.0443 4.30258C10.8954 4.03726 11.485 3.55424 11.7153 2.77187C11.7583 2.629 11.8246 2.49634 12.0237 2.49634C12.2229 2.49974 12.2853 2.6256 12.3205 2.77527C12.5196 3.56104 13.0974 4.04406 13.9602 4.28558C14.1398 4.3366 14.2687 4.41143 14.2765 4.58151C14.2843 4.7618 14.1125 4.78221 13.968 4.82303C13.0466 5.06114 12.5157 5.6156 12.2541 6.40136C12.215 6.52382 12.1096 6.62587 12.012 6.76873ZM11.9613 5.47273C12.3166 5.16658 12.6953 4.84003 13.0857 4.50328C12.625 4.30598 12.2619 3.99644 12.055 3.61886C11.6841 3.94882 11.3171 4.27537 10.9852 4.57131C11.3054 4.86725 11.645 5.18019 11.9613 5.47273Z" fill="#FFEB61"/>
<path d="M40.1222 9.66708C40.0909 9.69089 40.0324 9.77253 39.9504 9.79294C39.189 9.99704 38.6932 10.412 38.5253 11.106C38.5058 11.1842 38.3692 11.276 38.2716 11.2862C38.2013 11.2964 38.0803 11.1978 38.0373 11.123C37.928 10.9325 37.8772 10.7182 37.7562 10.5311C37.5337 10.1841 37.194 9.95281 36.7411 9.85757C36.5771 9.82355 36.4249 9.77253 36.4288 9.59224C36.4288 9.42217 36.5771 9.38475 36.7255 9.33373C37.3463 9.12623 37.7992 8.76906 37.9631 8.18399C37.9748 8.14657 37.9787 8.09555 38.01 8.07173C38.092 8.0071 38.1818 7.91187 38.2716 7.91187C38.3575 7.91187 38.4707 8.00031 38.5214 8.07514C38.5917 8.18399 38.5956 8.32005 38.6581 8.43571C38.9158 8.90172 39.3296 9.21127 39.8996 9.35413C40.1026 9.40176 40.1222 9.42557 40.1222 9.66708ZM38.9236 9.60585C38.7049 9.40856 38.4473 9.17726 38.2677 9.01738C38.0803 9.18406 37.8187 9.42217 37.5844 9.63307C37.7562 9.78614 38.0217 10.0208 38.2247 10.2045C38.4746 9.99023 38.7401 9.76233 38.9236 9.60585Z" fill="#FFEB61"/>
<path d="M8.96648 25.3212C8.90401 25.2565 8.81421 25.1987 8.78688 25.1273C8.63071 24.7191 8.40817 24.3517 7.98262 24.1068C7.82645 24.0149 7.63515 23.9673 7.47898 23.8755C7.38138 23.8177 7.26425 23.719 7.26035 23.6374C7.25644 23.5591 7.37357 23.4299 7.46727 23.3993C8.11927 23.1884 8.57216 22.821 8.7947 22.2393C8.82593 22.1543 8.97038 22.0352 9.04847 22.042C9.14217 22.0522 9.2671 22.1679 9.29443 22.2597C9.47012 22.8346 9.9152 23.1816 10.5243 23.3891C10.6609 23.4367 10.7819 23.4775 10.778 23.6306C10.7741 23.7734 10.6726 23.8415 10.5321 23.8857C9.85663 24.0932 9.44669 24.515 9.2671 25.1103C9.22806 25.2327 9.1734 25.3007 8.96648 25.3212ZM9.61458 23.6238C9.46232 23.4741 9.22416 23.2462 9.00162 23.0285C8.76737 23.2224 8.5214 23.4265 8.34572 23.5761C8.57216 23.7802 8.81812 24.0047 9.01724 24.185C9.19683 24.0183 9.43108 23.7938 9.61458 23.6238Z" fill="#FFEB61"/>
<path d="M26.8009 3.97285C25.7116 3.96605 24.8644 3.20409 24.8761 2.24144C24.8878 1.31621 25.7858 0.564456 26.8633 0.578063C27.9526 0.591669 28.8037 1.34682 28.792 2.28906C28.7764 3.2415 27.9058 3.97965 26.8009 3.97285ZM26.8282 3.38097C27.5153 3.37757 28.1049 2.86733 28.0971 2.27886C28.0893 1.69378 27.5075 1.19375 26.836 1.19375C26.145 1.19375 25.5476 1.70059 25.5554 2.28566C25.5632 2.89114 26.1372 3.38437 26.8282 3.38097Z" fill="#FFEB61"/>
<path d="M27.66 31.7979C27.66 32.3557 27.1993 32.7775 26.5863 32.7809C25.9421 32.7843 25.4463 32.3591 25.4463 31.8013C25.4463 31.2434 25.9304 30.8148 26.559 30.8216C27.2032 30.825 27.66 31.2264 27.66 31.7979ZM27.0704 31.8047C27.0743 31.5496 26.8401 31.3387 26.5473 31.3387C26.2779 31.3387 26.0514 31.5427 26.0397 31.7979C26.028 32.0496 26.2545 32.2571 26.5356 32.2571C26.8323 32.2605 27.0665 32.0598 27.0704 31.8047Z" fill="#FFEB61"/>
<path d="M19.0743 46.707C18.4847 46.707 18.0162 46.2784 18.024 45.7409C18.0318 45.1967 18.4769 44.8123 19.1094 44.8123C19.7067 44.8089 20.1791 45.2171 20.1791 45.7375C20.1791 46.2852 19.695 46.7104 19.0743 46.707ZM19.5896 45.7341C19.5896 45.5062 19.3671 45.3259 19.086 45.3259C18.8205 45.3259 18.6057 45.5198 18.6097 45.7579C18.6097 45.9994 18.801 46.1695 19.0704 46.1763C19.3749 46.1797 19.5896 45.996 19.5896 45.7341Z" fill="#FFEB61"/>
</svg>
