<svg width="48" height="48" viewBox="0 0 48 48" fill="none" xmlns="http://www.w3.org/2000/svg">
<path d="M18.8358 39.9941C18.1092 39.678 17.4317 39.4062 16.7707 39.0901C11.9249 36.7857 8.27555 32.9546 5.84719 27.5746C5.76798 27.4007 5.68603 27.2269 5.60955 27.0498C5.39375 26.5472 5.60681 26.1521 6.0903 26.2248C6.70763 26.3165 7.32497 26.4398 7.93137 26.601C11.0044 27.4323 13.6895 29.1013 15.9676 31.6364C17.4454 33.2833 18.5025 35.2526 19.2646 37.4432C19.3111 37.5791 19.3575 37.7182 19.4039 37.8573C19.4121 37.8826 19.4313 37.9047 19.4777 37.9774C20.5594 34.5762 21.3679 31.1307 21.917 27.6062C21.8924 27.5935 21.8705 27.5777 21.8459 27.5651C21.6957 27.7832 21.5291 27.9918 21.3925 28.2226C20.9145 29.0507 20.4365 29.8821 19.9776 30.7261C19.6853 31.2603 19.1881 31.4752 18.7265 31.2192C18.2458 30.9505 18.0218 30.2835 18.2485 29.7114C18.5435 28.9654 18.8986 28.2479 19.1526 27.4861C19.4203 26.6895 19.6225 25.8581 19.8027 25.03C19.9011 24.5779 19.7645 24.461 19.3575 24.5242C18.131 24.7139 17.0439 25.3397 15.9731 26.0035C15.7628 26.1331 15.5606 26.2849 15.353 26.424C14.875 26.7401 14.356 26.6263 14.0528 26.1458C13.7469 25.6622 13.8015 24.9952 14.2249 24.6032C14.5445 24.3092 14.9051 24.0753 15.252 23.8256C16.0824 23.225 16.8472 22.5359 17.541 21.733C17.582 21.6856 17.6175 21.6319 17.6667 21.5655C17.1886 21.1735 16.6669 20.9428 16.1288 20.7468C15.1208 20.377 14.0829 20.1999 13.0312 20.1146C12.4275 20.064 12.0205 19.5646 12.056 18.9197C12.0943 18.2117 12.4904 17.8039 13.1295 17.8134C14.2495 17.8292 15.3667 17.8545 16.4866 17.845C16.8827 17.8418 17.2788 17.7565 17.735 17.7028C17.653 17.5668 17.6066 17.4783 17.5519 17.3993C16.8226 16.3246 15.9704 15.4047 14.9952 14.6334C14.7248 14.4216 14.5035 14.1751 14.4598 13.7736C14.4106 13.3216 14.5363 12.9486 14.8586 12.6863C15.1864 12.4176 15.5442 12.386 15.8993 12.6135C16.6587 13.1067 17.4099 13.6187 18.172 14.1087C18.7484 14.4754 19.3548 14.7599 20.0704 14.959C20.0131 14.6081 19.9912 14.3047 19.912 14.0234C19.5869 12.8791 19.2455 11.7411 18.9095 10.6C18.874 10.4799 18.8248 10.3629 18.7893 10.2396C18.6227 9.65801 18.8221 9.08587 19.2756 8.83931C19.77 8.57063 20.2698 8.75397 20.5566 9.30398C20.9855 10.1227 21.3789 10.9698 21.8596 11.7474C22.3021 12.465 22.8839 13.0434 23.5778 13.4512C23.7553 13.5555 23.881 13.5334 24.0394 13.4006C24.7714 12.8 25.2795 11.9813 25.6865 11.0836C26.0662 10.2428 26.3858 9.3672 26.7245 8.50425C26.8884 8.087 27.1206 7.7867 27.5385 7.75509C28.2815 7.69819 28.7623 8.45051 28.5519 9.30398C28.2487 10.5273 27.9455 11.7538 27.6696 12.9865C27.5631 13.467 27.4648 13.9665 27.5658 14.5354C29.0163 13.9665 30.1226 12.9138 31.0595 11.5925C31.0431 11.5483 31.0404 11.5135 31.024 11.4946C30.3029 10.7075 30.2182 9.73071 30.3875 8.67494C30.6498 7.05019 31.2999 5.61825 32.0565 4.24322C32.5537 3.34233 33.059 2.45093 33.5671 1.55953C33.6545 1.40464 33.761 1.25291 33.8839 1.13596C34.2008 0.841983 34.5532 0.747152 34.9329 0.968422C35.3016 1.18337 35.4928 1.53108 35.4928 2.01155C35.4928 3.49406 35.5256 4.97973 35.4819 6.46224C35.4437 7.66342 35.4136 8.87408 35.1323 10.05C35.1268 10.0753 35.135 10.1069 35.135 10.0942C35.6677 9.71491 36.1839 9.26921 36.7548 8.95311C38.1889 8.16286 39.6448 7.42318 41.0953 6.67719C41.5214 6.45908 41.9339 6.59816 42.2261 6.99961C42.5048 7.38209 42.5676 7.90682 42.319 8.32407C41.1881 10.208 40.1365 12.1584 38.768 13.8337C38.1862 14.5449 37.5442 15.155 36.7384 15.4995C36.0829 15.7809 35.4382 15.7967 34.799 15.4237C34.7417 15.3889 34.6351 15.4016 34.5778 15.4426C33.6463 16.0843 32.7203 16.7355 31.7916 17.3867C31.7151 17.4404 31.6386 17.4973 31.5758 17.6142C31.6905 17.6301 31.8052 17.6553 31.9199 17.6553C32.7831 17.6459 33.6463 17.6459 34.5095 17.6142C35.3235 17.5826 35.8753 18.2496 35.695 19.0841C35.5884 19.5741 35.2361 19.8522 34.7198 19.9249C33.72 20.064 32.7203 20.2031 31.7287 20.3991C31.0459 20.535 30.4039 20.8416 29.7566 21.2652C29.8986 21.477 30.0215 21.673 30.1554 21.8563C30.9421 22.9311 31.9063 23.7656 32.9115 24.5432C33.0399 24.6412 33.171 24.736 33.2939 24.8435C33.7119 25.2133 33.8075 25.8044 33.5398 26.3228C33.2721 26.8444 32.7394 27.053 32.2751 26.7811C31.7479 26.4745 31.2507 26.1015 30.7153 25.817C30.0352 25.4535 29.3332 25.1374 28.6311 24.8371C28.4263 24.7486 28.1777 24.7581 27.9537 24.7708C27.7024 24.7866 27.5276 24.9762 27.5303 25.2702C27.5331 25.7001 27.5249 26.1521 27.6232 26.5599C27.9619 27.957 28.3471 29.3384 28.7049 30.7292C28.765 30.96 28.8715 30.9126 29.0163 30.8652C30.6607 30.3151 32.3351 29.9959 34.0506 30.0907C34.9793 30.1413 35.9026 30.2962 36.8313 30.391C37.4049 30.4511 37.4677 31.0042 37.1673 31.4183C34.4876 35.1167 31.1387 37.4969 27.0168 38.3789C25.2986 38.7455 23.5696 38.7929 21.8323 38.6128C21.5974 38.5875 21.4663 38.657 21.3379 38.8909C19.7536 41.7453 17.918 44.3721 15.954 46.8851C15.6808 47.236 15.3967 47.2391 15.241 46.9167C15.1427 46.7113 15.2028 46.5469 15.3066 46.3699C16.0905 45.0391 16.8882 43.7178 17.6475 42.368C18.0737 41.6062 18.4342 40.8002 18.8358 39.9941ZM6.71037 27.3154C7.86855 29.9706 9.40095 32.1959 11.2693 34.1147C13.1459 36.0429 15.3121 37.4021 17.6475 38.4358C17.6175 38.3283 17.5683 38.2493 17.5137 38.1734C16.5631 36.8584 15.4951 35.6762 14.3478 34.592C14.1539 34.4086 14.0992 34.1589 14.214 33.9408C14.3287 33.7227 14.5882 33.6437 14.8013 33.767C14.8695 33.8081 14.9351 33.8586 14.9897 33.9155C15.689 34.671 16.3965 35.417 17.0794 36.1914C17.5465 36.7225 17.9753 37.2978 18.4206 37.8541C17.7022 35.417 16.4757 33.3813 14.8013 31.6965C12.4822 29.3637 9.80522 27.9223 6.71037 27.3154ZM36.1238 31.2666C33.5589 30.8683 31.1005 31.0169 28.7076 32.0158C26.7983 32.8123 23.2227 35.9164 22.8184 37.1239C22.9085 37.0765 22.985 37.0418 23.0588 36.9975C24.5065 36.1472 25.9515 35.2937 27.3992 34.4434C27.6833 34.2759 27.9046 34.3517 28.0247 34.6362C28.1422 34.9207 28.0602 35.1736 27.7789 35.3348C26.5005 36.0713 25.2222 36.8015 23.9438 37.5349C23.881 37.5696 23.8209 37.6139 23.7608 37.6518C23.769 37.6771 23.7744 37.6992 23.7826 37.7245C26.0498 37.7593 28.2378 37.2757 30.3275 36.2452C32.581 35.1388 34.4849 33.4698 36.1238 31.2666ZM22.3813 36.1282C22.3977 36.1472 22.4169 36.1693 22.4332 36.1883C22.4633 36.1282 22.4851 36.0618 22.5234 36.0113C23.7225 34.3897 25.102 33.0178 26.7327 32.0031C26.8693 31.9178 26.8829 31.8324 26.8392 31.6712C26.4677 30.3499 25.987 29.0887 25.3478 27.9096C25.1785 27.5998 24.9818 27.309 24.7769 26.9803C23.9684 30.0717 23.1735 33.1 22.3813 36.1282ZM31.8189 6.71828C31.4064 7.66026 31.1141 8.62436 31.136 9.67382C31.1578 10.6474 31.6386 11.2606 32.4089 11.3523C32.8869 11.4092 33.3076 11.2164 33.649 10.8371C34.3866 10.0184 34.5149 8.94046 34.616 7.7867C34.3319 8.01429 34.0451 8.09964 33.8238 7.85308C33.6354 7.64129 33.5288 7.33152 33.3895 7.07231C32.7831 7.69819 32.2204 7.62233 31.8189 6.71828ZM38.3582 12.936C38.1943 12.8696 38.0687 12.8348 37.9567 12.7684C37.6125 12.5725 37.5661 12.2405 37.8174 11.8992C37.9021 11.7822 38.0468 11.5989 38.0168 11.5167C37.9321 11.2828 37.7327 11.4282 37.5852 11.4535C36.9624 11.5546 36.6155 11.0836 36.8149 10.3882C36.8422 10.2934 36.8668 10.1985 36.9132 10.0373C36.1238 10.4419 35.4273 10.8971 34.9656 11.6747C34.7444 12.0446 34.5778 12.4966 34.4958 12.936C34.2746 14.1024 35.0804 14.9811 36.0883 14.7219C37.0362 14.4785 37.7136 13.7736 38.3582 12.936ZM26.4159 19.9787C26.3148 19.8428 26.2356 19.7384 26.1618 19.6341C25.9051 19.2675 25.7739 18.847 25.8941 18.3919C25.9897 18.0252 25.9569 17.7755 25.7138 17.4941C25.5417 17.295 25.4735 16.9726 25.356 16.6944C25.0309 16.9726 24.6758 17.2476 24.2606 17.1622C23.8782 17.0864 23.5149 16.8904 23.1926 16.7671C23.0779 17.0579 22.985 17.4151 22.8075 17.6996C22.6272 17.9841 22.3595 18.1927 22.1136 18.4519C22.2256 19.0304 21.9716 19.4887 21.6384 19.8428C21.906 20.1178 22.2038 20.3295 22.3813 20.6362C22.5616 20.9459 22.6217 21.3505 22.7419 21.7299C23.504 21.1103 24.3071 20.9902 25.1047 21.8089C25.2276 20.8701 25.5909 20.2189 26.4159 19.9787ZM20.0295 39.2766C20.0595 39.2892 20.0896 39.3019 20.1196 39.3145C20.3709 38.7677 20.6714 38.2429 20.8626 37.6708C21.4335 35.948 21.9989 34.219 22.4988 32.4646C23.026 30.6186 23.474 28.741 23.9656 26.8791C24.1104 26.3354 24.1186 26.3481 23.7362 25.9846C23.6105 25.8645 23.5204 25.8645 23.4057 25.9846C23.2227 26.1774 23.0205 26.3481 22.8484 26.5536C22.7747 26.6421 22.7201 26.7811 22.7064 26.9044C22.6217 27.6567 22.5917 28.4217 22.4715 29.1677C22.0126 32.0094 21.3215 34.7785 20.5211 37.5127C20.3491 38.0975 20.1934 38.6886 20.0295 39.2766ZM33.8402 11.9339C33.5534 12.0477 33.2939 12.1426 33.0454 12.2564C32.9743 12.288 32.9142 12.3733 32.8678 12.4492C32.5864 12.9202 32.3242 13.407 32.0292 13.8653C31.3818 14.8705 30.7181 15.8631 30.0652 16.8619C29.9669 17.0137 29.8904 17.1875 29.7757 17.4056C30.1663 17.4088 30.434 17.2413 30.6853 17.0453C31.5211 16.3941 32.3488 15.7335 33.1819 15.0791C33.4387 14.8768 33.6955 14.6714 33.9659 14.4564C33.4469 13.6472 33.6436 12.8064 33.8402 11.9339ZM38.8554 11.9592C38.88 11.9719 38.9046 11.9845 38.9291 11.9972C39.0029 11.9244 39.093 11.8676 39.1477 11.7822C39.9589 10.4862 40.7648 9.18386 41.5678 7.88153C41.6061 7.82147 41.6006 7.72348 41.6143 7.64129C41.5351 7.63181 41.4449 7.59072 41.3793 7.61917C41.1554 7.714 40.9396 7.83728 40.721 7.94791C39.7732 8.42522 38.8253 8.89937 37.8802 9.37668C37.7901 9.42094 37.7109 9.48732 37.6262 9.54422C37.6562 9.55686 37.6863 9.57266 37.7163 9.58531C37.6945 9.86032 37.6699 10.1322 37.648 10.4103C38.0277 10.1796 38.3555 10.3408 38.6259 10.7011C38.8882 11.0583 38.9346 11.4946 38.8554 11.9592ZM34.5368 7.05019C34.5614 7.0407 34.5887 7.03122 34.6133 7.01858C34.6324 6.91426 34.6652 6.81311 34.6652 6.7088C34.6761 5.18836 34.687 3.66792 34.6898 2.14748C34.6898 2.05581 34.6297 1.96098 34.5969 1.86931C34.504 1.91988 34.3729 1.94201 34.3237 2.02736C33.7037 3.12422 33.0918 4.23057 32.4854 5.34009C32.4444 5.41595 32.4198 5.53291 32.4389 5.61193C32.4963 5.85217 32.5783 6.08292 32.6602 6.34528C32.9853 5.99441 33.3486 5.93751 33.7392 6.10189C34.1298 6.26942 34.3702 6.61397 34.5368 7.05019ZM27.9865 31.2919C27.9646 31.1939 27.9483 31.118 27.9264 31.0422C27.656 30.1065 27.3582 29.1772 27.1151 28.232C26.7901 26.9613 26.5142 25.6748 26.8802 24.344C26.0935 24.6664 25.315 24.9857 24.4956 25.3208C26.1946 26.9107 26.9458 29.1551 27.6396 31.4563C27.768 31.3962 27.8745 31.3456 27.9865 31.2919ZM18.2594 20.8385C18.3933 20.5951 18.6009 20.3833 18.6227 20.1494C18.6746 19.5867 18.6391 19.0146 18.6391 18.4329C18.426 18.4898 18.1884 18.5657 17.948 18.6131C16.798 18.8502 15.6398 18.8628 14.4789 18.8059C14.0255 18.7838 13.5748 18.768 13.1213 18.768C13.0367 18.768 12.9493 18.8723 12.8646 18.9261C12.9465 19.0082 13.0257 19.0936 13.1131 19.1663C13.1432 19.1916 13.1951 19.1789 13.2388 19.1821C14.9843 19.3654 16.697 19.6847 18.2594 20.8385ZM22.8266 25.2038C22.1655 24.8877 21.4171 24.5305 20.7069 24.1923C20.6632 24.6443 20.6605 25.1248 20.5703 25.58C20.2644 27.1415 19.6907 28.5829 19.0324 29.9832C18.956 30.1445 18.9232 30.2962 19.0925 30.3689C19.139 30.3878 19.2674 30.2709 19.3083 30.1855C19.8191 29.0982 20.3682 28.0361 21.0948 27.1257C21.6493 26.424 22.2803 25.8012 22.8266 25.2038ZM29.1338 18.199C29.1338 19.0209 29.1338 19.8143 29.1338 20.5919C29.4479 20.3991 29.7757 20.1683 30.1226 19.9945C31.1906 19.4571 32.327 19.239 33.4769 19.0999C33.8839 19.0493 34.2937 19.0335 34.7007 18.983C34.7635 18.9735 34.8154 18.8534 34.8728 18.7838C34.8127 18.7206 34.7608 18.6289 34.6925 18.6068C34.5969 18.5752 34.4903 18.5973 34.3865 18.6005C32.622 18.6384 30.8546 18.6922 29.1338 18.199ZM27.686 23.7403C29.5599 23.8288 31.1169 24.9762 32.7312 25.9941C32.7859 25.8739 32.8268 25.7854 32.8733 25.6843C31.3955 24.5368 29.9641 23.3768 28.9671 21.6919C28.5355 22.381 28.1149 23.0575 27.686 23.7403ZM20.0814 15.9231C18.833 15.6165 17.8032 14.9685 16.7734 14.33C16.3746 14.0834 16.0031 13.78 15.6071 13.5271C15.5306 13.4765 15.3995 13.5429 15.2929 13.5555C15.3448 13.6535 15.3776 13.78 15.4514 13.8463C15.7873 14.153 16.1425 14.4248 16.473 14.7377C17.2323 15.4553 17.8633 16.3119 18.4615 17.2065C18.6364 17.4688 18.8358 17.5415 19.0024 17.3424C19.363 16.9093 19.6962 16.4352 20.0814 15.9231ZM25.6237 23.7339C25.3123 23.3546 25.031 22.9405 24.684 22.6213C24.471 22.4253 24.165 22.2925 23.8919 22.2736C23.2582 22.2325 22.4032 23.067 22.2366 23.8098C23.2445 24.5368 24.8097 24.5242 25.6237 23.7339ZM20.8762 15.0854C21.5591 14.763 22.2065 14.4596 22.8812 14.1435C22.7719 14.0423 22.6736 13.9348 22.5644 13.8495C21.9334 13.3595 21.3898 12.7558 20.98 12.0193C20.6031 11.3397 20.2726 10.6253 19.9339 9.92037C19.8628 9.77497 19.7918 9.64537 19.6498 9.72439C19.6061 9.74968 19.6252 9.93934 19.6252 10.0563C19.6252 10.1037 19.6552 10.148 19.6689 10.1954C20.024 11.4313 20.3955 12.661 20.7287 13.9032C20.8271 14.2794 20.8298 14.6935 20.8762 15.0854ZM27.5522 8.68126C26.8857 10.5873 26.2164 12.4681 24.8561 13.9032C25.4844 14.1719 26.0881 14.4311 26.6863 14.6903C26.7245 14.1909 26.7109 13.6978 26.8092 13.2363C27.0905 11.8865 27.4156 10.5463 27.7297 9.20599C27.7789 8.99104 27.8308 8.80138 27.5522 8.68126ZM19.9011 23.4937C19.5514 22.8583 19.1909 22.2103 18.8248 21.5465C18.7866 21.5939 18.7456 21.6445 18.7047 21.6919C18.2403 22.2293 17.8196 22.8331 17.3034 23.2914C16.5276 23.9837 15.6863 24.5748 14.8723 25.2101C14.7657 25.2923 14.621 25.3682 14.7193 25.5515C14.8149 25.7317 14.9406 25.6211 15.0526 25.5484C15.5224 25.2481 15.984 24.9225 16.4675 24.6506C17.5574 24.0374 18.6719 23.5032 19.9011 23.4937ZM31.9391 12.3638C31.7916 12.1584 31.7042 12.2184 31.5922 12.3638C30.5432 13.7231 29.3577 14.861 27.8417 15.4679C27.8035 15.4837 27.7734 15.5153 27.7297 15.547C28.022 16.0021 28.3088 16.4415 28.5929 16.8872C28.7268 17.0927 28.8524 17.1148 28.9917 16.8904C29.2649 16.4605 29.5435 16.0337 29.8194 15.6102C30.5241 14.5291 31.2316 13.4512 31.9391 12.3638ZM21.4772 23.4558C21.6192 23.0259 21.805 22.6308 21.8787 22.2103C22.0017 21.4865 21.5946 20.8638 20.9882 20.6741C20.4938 20.5192 20.0786 20.8037 19.5869 20.8859C19.9202 22.0302 20.4747 22.9026 21.4772 23.4558ZM26.3011 23.4431C27.137 23.1713 28.1914 21.7077 28.1422 20.8732C27.7762 20.829 27.4074 20.7594 27.0359 20.7436C26.5989 20.7247 26.14 21.1324 26.0143 21.6161C25.8368 22.2862 26.0471 22.871 26.3011 23.4431ZM19.4941 19.9692C19.9721 19.8364 20.4392 19.7511 20.8271 19.4192C20.98 19.2896 21.1084 19.1031 21.2095 18.9166C21.2942 18.7554 21.2805 18.5625 21.103 18.4614C20.7506 18.2623 20.3955 18.0694 20.0349 17.8861C19.983 17.8608 19.8656 17.8829 19.841 17.9303C19.5105 18.5373 19.2974 19.1789 19.4941 19.9692ZM24.0449 14.6303C23.7225 14.7599 23.4166 14.8737 23.1216 15.0159C23.0861 15.0317 23.0642 15.2214 23.0997 15.2846C23.3729 15.7809 23.7826 16.078 24.2798 16.1096C24.7742 16.1412 25.1703 15.8283 25.4926 15.4047C25.5199 15.3668 25.4899 15.1961 25.4543 15.1834C24.9927 14.9906 24.5229 14.8136 24.0449 14.6303ZM28.3334 20.0071C28.4618 19.337 28.3744 18.7459 28.1367 18.1801C28.104 18.1042 27.9974 18.0094 27.9373 18.0189C27.6696 18.0631 27.3937 18.1105 27.1397 18.2148C26.689 18.3982 26.6043 18.8913 26.9458 19.2833C27.3227 19.7163 27.8117 19.8807 28.3334 20.0071ZM20.3272 16.9884C20.7861 17.2381 21.1767 17.4594 21.6165 17.4688C21.7531 17.472 21.9334 17.3519 22.0235 17.2223C22.3486 16.7671 22.3923 16.2424 22.2256 15.6892C22.1737 15.5217 22.0918 15.4679 21.9552 15.5628C21.6274 15.7935 21.2887 16.0053 20.98 16.2645C20.7533 16.4605 20.5676 16.7197 20.3272 16.9884ZM27.7243 17.1275C27.3774 16.6185 27.0851 16.1602 26.7655 15.7271C26.6098 15.5185 26.4514 15.5501 26.3776 15.8093C26.3039 16.0717 26.2492 16.3657 26.2711 16.6375C26.3066 17.0674 26.5497 17.2729 26.9267 17.2476C27.1725 17.2286 27.4129 17.1749 27.7243 17.1275Z" fill="#FFEB61" stroke="#FFEB61" stroke-width="0.1" stroke-miterlimit="10"/>
<path d="M34.4004 25.6749C34.3239 25.5137 34.2584 25.4346 34.2474 25.3461C34.2338 25.2387 34.2611 25.1217 34.2775 25.0111C34.4059 24.047 34.201 23.2061 33.5727 22.5297C33.4416 22.3874 33.3187 22.2515 33.4088 22.0176C33.5017 21.7774 33.6711 21.8532 33.8322 21.8722C34.7036 21.967 35.4521 21.6857 36.0202 20.8828C36.124 20.7374 36.2469 20.611 36.4218 20.7089C36.5938 20.8069 36.5884 20.984 36.5529 21.1768C36.3589 22.1883 36.6348 23.026 37.2767 23.7182C37.4106 23.8636 37.4898 24.009 37.4133 24.2145C37.3341 24.4263 37.1757 24.3725 37.0309 24.3473C36.1104 24.1892 35.3838 24.5843 34.7828 25.3714C34.6927 25.4852 34.5534 25.5548 34.4004 25.6749ZM34.9658 24.1418C35.422 23.9553 35.9082 23.753 36.4081 23.5475C36.0967 23.0987 35.9219 22.5645 35.9219 22.0271C35.4384 22.2357 34.9631 22.4412 34.5342 22.6277C34.6763 23.124 34.8265 23.6455 34.9658 24.1418Z" fill="#FFEB61" stroke="#FFEB61" stroke-width="0.1" stroke-miterlimit="10"/>
<path d="M25.3858 8.93099C25.3558 8.9626 25.2984 9.06691 25.2219 9.0922C24.4844 9.35456 24.0036 9.88561 23.8397 10.7833C23.8206 10.8813 23.6868 11.0014 23.5939 11.0172C23.5256 11.0267 23.4081 10.9035 23.3644 10.8055C23.2579 10.5589 23.2087 10.2839 23.0913 10.0468C22.8755 9.60112 22.545 9.30083 22.1079 9.17755C21.9495 9.13329 21.802 9.07007 21.8047 8.833C21.8075 8.61489 21.9468 8.56431 22.0915 8.49793C22.6952 8.22925 23.1323 7.77406 23.2907 7.01858C23.3016 6.96801 23.3071 6.90479 23.3371 6.87318C23.4164 6.79099 23.5038 6.66771 23.5884 6.66455C23.6704 6.66455 23.7824 6.77519 23.8288 6.87318C23.8971 7.01226 23.9026 7.18928 23.9627 7.33468C24.2112 7.93527 24.6128 8.33356 25.1673 8.5169C25.3667 8.5896 25.3885 8.62437 25.3858 8.93099ZM24.2249 8.85512C24.0118 8.60224 23.7605 8.30511 23.5884 8.09648C23.4082 8.31143 23.1541 8.61489 22.9247 8.88989C23.0913 9.08904 23.3453 9.38933 23.5447 9.62325C23.7878 9.34508 24.0473 9.05427 24.2249 8.85512Z" fill="#FFEB61" stroke="#FFEB61" stroke-width="0.1" stroke-miterlimit="10"/>
<path d="M11.9057 16.8968C11.8729 16.7956 11.8101 16.6945 11.8129 16.5933C11.8183 16.0401 11.7446 15.5091 11.4441 15.0602C11.3321 14.8927 11.1764 14.7631 11.0644 14.5956C10.9961 14.4912 10.9224 14.3269 10.9497 14.2257C10.9743 14.1277 11.1272 14.0139 11.2256 14.0108C11.9003 13.995 12.4466 13.7105 12.8618 13.0814C12.9219 12.9898 13.0967 12.8981 13.1677 12.936C13.2497 12.9803 13.3207 13.1699 13.3152 13.2901C13.2688 14.055 13.5529 14.6367 14.0336 15.114C14.1429 15.2214 14.2385 15.3163 14.1784 15.4996C14.1238 15.6735 14.0036 15.7177 13.8588 15.7177C13.165 15.7272 12.6378 16.0907 12.2581 16.7482C12.1789 16.8841 12.1024 16.9505 11.9057 16.8968ZM13.1131 15.0665C13.0257 14.8295 12.8918 14.4628 12.7662 14.1214C12.4821 14.2731 12.1816 14.4343 11.9658 14.5481C12.0969 14.88 12.2417 15.2404 12.3592 15.5344C12.5859 15.3953 12.8836 15.2088 13.1131 15.0665Z" fill="#FFEB61" stroke="#FFEB61" stroke-width="0.1" stroke-miterlimit="10"/>
<path d="M14.6236 43.5787C13.5692 43.5692 12.747 42.5893 12.7579 41.3501C12.7688 40.1584 13.6375 39.1943 14.6837 39.2102C15.7381 39.2291 16.563 40.1995 16.5521 41.4134C16.5384 42.6367 15.6916 43.5881 14.6236 43.5787ZM14.6509 42.8169C15.3174 42.8137 15.8883 42.1562 15.8828 41.3976C15.8774 40.6452 15.3119 40.0004 14.6618 40.0004C13.9926 40.0004 13.4135 40.6547 13.4217 41.4039C13.4272 42.1847 13.9789 42.82 14.6509 42.8169Z" fill="#FFEB61" stroke="#FFEB61" stroke-width="0.1" stroke-miterlimit="10"/>
<path d="M9.09769 24.4674C9.09769 25.1881 8.65244 25.7286 8.05696 25.7318C7.43144 25.7349 6.95068 25.1881 6.95068 24.4705C6.95068 23.753 7.42051 23.203 8.02965 23.2093C8.65791 23.2156 9.09769 23.734 9.09769 24.4674ZM8.52953 24.4737C8.53499 24.1449 8.30827 23.8763 8.02146 23.8763C7.75923 23.8763 7.53797 24.1418 7.52977 24.4674C7.51885 24.7898 7.73737 25.0585 8.0078 25.0585C8.29461 25.0616 8.52406 24.8024 8.52953 24.4737Z" fill="#FFEB61" stroke="#FFEB61" stroke-width="0.1" stroke-miterlimit="10"/>
<path d="M22.7802 41.7074C22.2065 41.7042 21.7558 41.1542 21.7613 40.4651C21.7695 39.7634 22.2011 39.2703 22.8129 39.2703C23.392 39.2671 23.8482 39.7918 23.8482 40.4588C23.8509 41.1669 23.3866 41.7106 22.7802 41.7074ZM23.2828 40.4557C23.2828 40.1648 23.0642 39.9278 22.7938 39.9278C22.537 39.9278 22.3294 40.1775 22.3322 40.4841C22.3322 40.7939 22.5179 41.0151 22.7802 41.0215C23.0724 41.031 23.2828 40.7939 23.2828 40.4557Z" fill="#FFEB61" stroke="#FFEB61" stroke-width="0.1" stroke-miterlimit="10"/>
</svg>
