<svg width="48" height="48" viewBox="0 0 48 48" fill="none" xmlns="http://www.w3.org/2000/svg">
<path d="M18.7157 19.5789C17.8722 21.0806 17.3436 21.2181 14.9921 20.5456C15.0504 20.8399 15.1204 21.1226 15.1631 21.4092C15.3497 22.6587 14.7122 23.6865 13.5268 24.0533C12.2713 24.4431 10.9614 23.9311 10.4056 22.8306C10.1025 22.2307 10.0092 21.585 10.0247 20.9239C10.0247 20.8399 10.0247 20.752 10.0247 20.6985C9.58162 20.8513 9.15019 21.0385 8.69931 21.1532C7.9958 21.3289 7.36613 21.1417 6.89971 20.5915C6.1068 19.6592 5.9008 18.5855 6.30891 17.443C6.62763 16.5527 7.3739 16.1247 8.27565 16.0368C8.87033 15.9795 9.47668 16.0789 10.0791 16.1132C10.1374 16.1171 10.1919 16.1324 10.2385 16.14C10.1491 15.6051 10.0053 15.0854 9.98974 14.5619C9.9742 14.0652 10.0208 13.5417 10.1685 13.0717C10.6 11.6885 11.8166 11.0351 13.2508 11.3637C13.5345 11.4287 13.8183 11.5166 14.0787 11.6388C15.1787 12.147 15.5868 13.0985 15.2098 14.3518C15.0348 14.9287 14.7783 15.479 14.5412 16.0865C14.6501 16.0521 14.7472 16.0215 14.8444 15.9948C15.8355 15.7273 16.7995 15.7808 17.7245 16.247C18.6846 16.7284 18.9139 17.5805 18.9256 18.5434C18.9256 18.6542 18.9722 18.8109 19.0499 18.8644C20.3132 19.6821 21.4015 20.6717 22.2566 21.9021C22.2721 21.9212 22.2993 21.9327 22.3343 21.9556C22.5559 21.3939 22.758 20.836 22.999 20.2934C23.2788 19.6591 23.5975 19.0363 23.8891 18.4059C23.9357 18.3027 23.9668 18.1422 23.9201 18.0582C23.1778 16.8049 23.1855 15.5057 23.6753 14.1875C24.0018 13.3086 24.5343 12.5521 25.2106 11.8948C25.3544 11.7573 25.4904 11.6121 25.7353 11.7305C25.9802 11.849 25.9802 12.0324 25.9607 12.254C25.8869 13.0068 25.8713 13.7595 26.1473 14.4855C26.1706 14.5505 26.1978 14.6154 26.2289 14.6766C26.2406 14.7033 26.2639 14.7224 26.2911 14.753C27.0724 13.9314 27.8536 13.1137 28.5882 12.3419C28.2656 11.7535 27.8886 11.188 27.6321 10.5728C27.1812 9.48378 27.2278 8.34129 27.4455 7.20263C27.7254 5.73536 28.2773 4.36744 29.0274 3.07594C29.0819 2.98041 29.144 2.88872 29.214 2.80466C29.5094 2.43402 29.8553 2.45694 30.073 2.86961C30.3567 3.40455 30.6055 3.9586 30.897 4.48972C31.1574 4.96734 31.4567 5.42968 31.7754 5.96462C32.0669 5.39911 32.3312 4.89475 32.5839 4.37892C32.6072 4.32924 32.5567 4.22988 32.5178 4.17257C32.1486 3.61852 32.168 2.93075 32.5645 2.49133C32.992 2.02135 33.575 1.94874 34.2164 2.26588C34.2941 2.30409 34.4301 2.29647 34.5118 2.25826C34.8188 2.10542 35.1181 1.94109 35.4057 1.75768C35.4796 1.71183 35.5379 1.59339 35.5495 1.5055C35.6389 0.733658 36.187 0.259846 36.9371 0.328624C37.6718 0.393581 38.1732 1.01259 38.0993 1.76533C38.0527 2.22767 37.8156 2.56775 37.3841 2.75498C36.9294 2.95368 36.4824 2.92691 36.0626 2.64416C35.981 2.58684 35.9032 2.52189 35.8216 2.46076C35.7439 2.49897 35.6739 2.54483 35.6001 2.56776C35.087 2.73206 34.811 3.00716 34.8616 3.60706C34.9043 4.1229 34.2436 4.79922 33.3418 4.63874C33.0192 5.24246 32.6888 5.85382 32.3701 6.47283C32.3351 6.5416 32.3468 6.67916 32.3934 6.7403C32.5878 6.99249 32.8054 7.22556 33.0192 7.46628C33.7966 6.95426 34.5506 6.46137 35.2969 5.95317C35.3746 5.89968 35.4096 5.75446 35.4174 5.6513C35.4563 5.08197 35.8488 4.60818 36.428 4.45534C36.9371 4.31778 37.5007 4.53176 37.8078 4.97499C38.1382 5.4488 38.1032 6.04105 37.7184 6.5225C37.3841 6.94281 36.7894 7.11476 36.2764 6.93518C36.2103 6.91225 36.1248 6.89695 36.0859 6.8511C35.8061 6.52632 35.5612 6.68298 35.293 6.87403C34.7294 7.27141 34.1581 7.65734 33.5478 8.07383C33.8121 8.33748 34.0337 8.57821 34.2785 8.79601C34.7061 9.17429 35.1414 9.54492 35.5845 9.90409C35.6545 9.96141 35.81 9.99198 35.8877 9.95377C36.9177 9.50289 37.9438 9.03291 38.9738 8.58203C39.1643 8.49797 39.2654 8.39861 39.312 8.18463C39.4325 7.60384 39.9417 7.19882 40.5364 7.16825C41.1038 7.13768 41.6519 7.50067 41.8268 8.02033C42.0133 8.5782 41.8112 9.20104 41.337 9.53346C40.8706 9.86207 40.1788 9.8506 39.7357 9.45704C39.5219 9.26599 39.3548 9.26982 39.1215 9.37299C38.2392 9.75891 37.353 10.1334 36.428 10.5307C36.5213 10.6186 36.5718 10.6759 36.634 10.718C37.1587 11.0657 37.6834 11.421 38.2198 11.7573C38.6124 12.0018 38.6357 12.2846 38.2353 12.5291C36.9022 13.3468 35.4757 13.9009 33.9132 14.1416C32.2185 14.4014 30.7143 14.0117 29.3578 13.0106C29.319 12.98 29.2723 12.9609 29.2023 12.9189C28.9458 13.1558 28.6737 13.3774 28.4366 13.6296C27.9158 14.1836 27.4183 14.7568 26.8975 15.3108C26.742 15.4751 26.7692 15.5783 26.9208 15.7273C27.9547 16.7705 29.1868 17.3169 30.691 17.2366C30.9126 17.2252 31.1963 17.1105 31.309 17.443C31.414 17.7563 31.173 17.8939 30.9709 18.0391C29.7854 18.8759 28.5183 19.4872 27.0141 19.4949C26.2017 19.4987 25.4632 19.2847 24.8063 18.8033C24.7597 18.7689 24.7092 18.7383 24.6159 18.6772C22.241 23.1592 21.5842 27.9317 21.864 32.8799C21.8912 32.8875 21.9184 32.8951 21.9495 32.9028C21.9806 32.7767 22.0156 32.6506 22.0428 32.5245C22.6958 29.7275 24.0951 27.3585 26.3494 25.5282C28.3978 23.8623 30.7726 23.0369 33.439 23.0369C33.8277 23.0369 33.9793 23.1974 33.9715 23.6254C33.9443 25.6658 33.5051 27.6145 32.6111 29.4639C31.4256 31.9131 29.6182 33.8466 27.4649 35.4935C26.0035 36.613 24.4293 37.5606 22.8085 38.428C22.587 38.5464 22.5287 38.6534 22.5831 38.9094C23.1739 41.7179 24.0484 44.4308 25.3116 47.0176C25.3505 47.0979 25.4166 47.1934 25.401 47.266C25.366 47.4036 25.3116 47.5793 25.2028 47.6481C25.1095 47.7054 24.8957 47.6749 24.8063 47.6023C24.682 47.5029 24.612 47.331 24.5382 47.1819C23.3177 44.641 22.4587 41.9854 21.8796 39.238C21.8407 39.0508 21.7707 38.9897 21.5764 38.9591C18.5058 38.5121 15.5673 37.6867 12.9476 35.9787C10.1413 34.1446 8.38448 31.6037 7.64209 28.3749C7.4633 27.5954 7.51772 27.4579 8.29897 27.2974C12.6172 26.43 16.2203 27.6489 19.1005 30.9273C19.9361 31.8788 20.593 32.9448 21.1916 34.072C21.1683 33.7396 21.1488 33.4033 21.1216 33.0709C20.9662 31.3056 21.0011 29.5441 21.1722 27.7826C21.3237 26.2313 21.6308 24.7067 22.0156 23.1936C22.0506 23.0637 22.0428 22.8803 21.9728 22.7733C21.1566 21.5467 20.1383 20.5151 18.9061 19.6859C18.8439 19.6324 18.7856 19.6133 18.7157 19.5789ZM33.2291 23.7706C33.0659 23.7706 32.9959 23.7668 32.9259 23.7706C29.6105 23.9731 26.9596 25.4174 24.9696 28.0004C22.9212 30.6637 22.2449 33.7434 22.2877 37.018C22.2877 37.0486 22.311 37.0792 22.3421 37.1518C22.4159 37.0027 22.4704 36.8996 22.517 36.7926C23.994 33.3613 26.1395 30.3695 28.7554 27.6909C28.8603 27.584 28.973 27.4578 29.1052 27.4158C29.2334 27.3738 29.4239 27.3852 29.5366 27.454C29.696 27.5495 29.7193 27.7368 29.5988 27.9011C29.5055 28.0272 29.4006 28.1495 29.284 28.2603C26.8158 30.6713 24.9113 33.4645 23.4615 36.5672C23.3527 36.8002 23.2633 37.041 23.135 37.3466C24.9035 36.3494 26.5438 35.3253 28.0091 34.0491C30.5394 31.8444 32.3662 29.2232 32.9648 25.8874C33.0931 25.2034 33.1397 24.5042 33.2291 23.7706ZM21.5375 37.5071C21.5142 37.3963 21.5103 37.339 21.4909 37.2855C21.1255 36.0895 20.7174 34.9088 20.1188 33.8007C19.0927 31.9017 17.7867 30.2472 15.8783 29.1353C13.6589 27.84 11.2646 27.4731 8.73818 27.9469C8.33395 28.0234 8.33784 28.0425 8.43112 28.4322C9.18128 31.5081 10.9537 33.8619 13.6667 35.5431C15.4896 36.6703 17.4952 37.3466 19.5786 37.8204C20.0022 37.916 20.4298 37.9962 20.8573 38.0841C20.8262 37.9389 20.7718 37.8548 20.7057 37.7899C19.4892 36.6168 18.2998 35.4094 17.0405 34.2822C15.7345 33.113 14.2925 32.1042 12.7455 31.2521C12.4734 31.0993 12.4035 30.9121 12.5317 30.6904C12.6561 30.4726 12.8466 30.4306 13.1264 30.5911C13.5034 30.8012 13.8727 31.0229 14.2342 31.2598C16.6518 32.8187 18.7895 34.7025 20.7718 36.762C21.0089 37.0028 21.2538 37.232 21.5375 37.5071ZM10.7671 20.9507C10.7438 20.9583 10.7244 20.9659 10.701 20.9698C10.8293 21.4665 10.9031 21.9823 11.0975 22.4485C11.4123 23.2165 12.2946 23.5872 13.1342 23.3808C14.001 23.1668 14.444 22.5746 14.413 21.6843C14.3896 21.0233 14.1409 20.4348 13.861 19.8464C13.8066 19.7318 13.8066 19.5216 13.8805 19.4452C13.9543 19.3688 14.1525 19.3879 14.2925 19.4032C14.4091 19.4184 14.5101 19.5025 14.6228 19.5407C15.2098 19.747 15.7889 19.9763 16.3875 20.1444C16.8111 20.2667 17.2465 20.217 17.5691 19.8808C18.156 19.2732 18.2687 18.5281 18.0744 17.7486C17.9072 17.08 17.3514 16.7972 16.7217 16.6635C15.8278 16.4724 14.9843 16.652 14.1681 17.0379C13.7911 17.2175 13.5967 17.1144 13.62 16.6979C13.6395 16.3502 13.7289 15.9948 13.8455 15.6624C14.0282 15.1504 14.2964 14.6651 14.4713 14.1493C14.79 13.2131 14.4402 12.5406 13.5034 12.1891C12.349 11.7535 11.2879 12.1853 10.9031 13.2437C10.701 13.8015 10.6933 14.3785 10.8021 14.9478C10.9031 15.4828 11.0509 16.0101 11.218 16.5259C11.3152 16.8278 11.1675 17.0188 10.9809 17.1717C10.9032 17.2366 10.6816 17.1831 10.5572 17.1258C9.96253 16.8507 9.34453 16.7055 8.68377 16.7361C7.70429 16.7819 7.03575 17.2634 6.91526 18.0543C6.81031 18.723 6.95024 19.3573 7.33115 19.9305C7.55659 20.2667 7.88308 20.4425 8.30286 20.431C8.84702 20.4157 9.32509 20.2247 9.76431 19.9228C9.90423 19.8273 10.0325 19.6974 10.1841 19.6401C10.3279 19.5866 10.5456 19.5484 10.6466 19.6171C10.7632 19.6974 10.841 19.9075 10.8448 20.0604C10.8565 20.3584 10.7982 20.6564 10.7671 20.9507ZM29.6221 3.66819C29.5522 3.7255 29.5288 3.73315 29.5211 3.74844C28.8292 5.05141 28.3356 6.4155 28.1218 7.87513C28.0907 8.07382 28.1995 8.11969 28.3667 8.17318C28.9419 8.35659 29.5288 8.52089 30.073 8.76926C31.1108 9.24307 32.4051 10.2327 32.9648 11.4707C33.1358 11.8452 33.3768 12.5177 33.3807 13.4424C34.7061 13.2819 36.906 12.5444 37.3725 12.1165C34.0259 9.98817 31.2779 7.3249 29.6221 3.66819ZM28.1024 8.89916C28.0169 11.3981 30.4811 13.45 32.5489 13.4042C32.6344 11.1383 30.7338 9.44557 28.1024 8.89916ZM29.7115 17.9015C28.2656 17.7295 27.1346 17.0914 26.2095 16.0139C25.8169 16.6329 25.4788 17.1946 25.1134 17.741C24.9813 17.9397 25.0162 18.0314 25.2028 18.1651C26.5476 19.1166 28.631 18.6619 29.7115 17.9015ZM25.1056 13.2016C24.1378 14.2295 23.7647 16.545 24.4604 17.336C24.7131 16.9424 24.9191 16.5145 25.2261 16.1706C25.6614 15.6815 25.7508 15.2382 25.436 14.6307C25.2183 14.2104 25.2106 13.6869 25.1056 13.2016ZM41.1272 8.46741C41.131 8.15026 40.9056 7.91717 40.5908 7.90571C40.2915 7.89806 40.0388 8.1426 40.0311 8.44828C40.0233 8.76543 40.2526 9.00234 40.5674 9.00234C40.8901 9.00616 41.1233 8.78455 41.1272 8.46741ZM34.1231 3.41601C34.127 3.11415 33.8627 2.84668 33.5517 2.83903C33.233 2.83139 33.0153 3.01864 33.0076 3.30904C32.9998 3.63382 33.2369 3.89365 33.5478 3.90511C33.8627 3.91276 34.1192 3.69495 34.1231 3.41601ZM37.2481 5.71245C37.2481 5.40294 37.0071 5.15457 36.7078 5.15074C36.4357 5.14692 36.1559 5.43352 36.1637 5.71627C36.1714 5.99138 36.4591 6.24739 36.7506 6.24357C37.0265 6.23593 37.252 5.9952 37.2481 5.71245ZM36.8089 2.09776C37.1121 2.11304 37.3453 1.91818 37.3608 1.6316C37.3764 1.33739 37.1509 1.07374 36.8672 1.05845C36.5757 1.04317 36.3153 1.27243 36.2997 1.559C36.2803 1.86851 36.4785 2.07865 36.8089 2.09776Z" fill="#FFEB61"/>
<path d="M13.6273 17.9281C13.6273 18.6045 13.1259 19.0859 12.4146 19.0974C11.7227 19.105 11.2019 18.5624 11.2136 17.8441C11.2252 17.1334 11.6878 16.694 12.4224 16.6978C13.1648 16.7016 13.6273 17.1754 13.6273 17.9281ZM12.3874 18.3141C12.6711 18.3179 12.881 18.1307 12.8849 17.8708C12.8888 17.611 12.7061 17.4467 12.4185 17.4467C12.1348 17.4467 11.9326 17.6225 11.9326 17.8632C11.9326 18.1154 12.1309 18.3102 12.3874 18.3141Z" fill="#FFEB61"/>
<path d="M11.7817 15.4331C11.8945 14.9631 11.9916 14.4931 12.1277 14.0308C12.1743 13.8703 12.2948 13.6831 12.4347 13.6105C12.5591 13.5417 12.7807 13.5646 12.9245 13.6258C13.0877 13.6945 13.1071 13.8779 13.01 14.0384C12.6524 14.6383 12.5863 15.2917 12.6485 15.9642C12.6757 16.2584 12.5125 16.354 12.2715 16.3922C11.9955 16.438 11.9139 16.2584 11.8867 16.0444C11.8595 15.8496 11.8556 15.6509 11.84 15.4522C11.8206 15.4446 11.8012 15.4407 11.7817 15.4331Z" fill="#FFEB61"/>
<path d="M12.5083 19.4336C12.5511 19.4833 12.6715 19.5712 12.691 19.6743C12.8192 20.301 12.9397 20.9314 13.0253 21.5619C13.0408 21.6765 12.9242 21.8714 12.8154 21.9287C12.7065 21.986 12.5044 21.9593 12.3839 21.8943C12.2868 21.8447 12.2207 21.688 12.1974 21.5696C12.0924 21.027 11.9875 20.4882 11.9292 19.938C11.8981 19.5979 12.0808 19.4451 12.5083 19.4336Z" fill="#FFEB61"/>
<path d="M10.0715 17.9013C10.604 17.8593 10.7828 17.9549 10.8294 18.3026C10.8566 18.5127 10.7906 18.6617 10.5496 18.6579C9.97821 18.6503 9.43406 18.7764 8.90156 18.9751C8.70722 19.0477 8.48178 19.0438 8.38461 18.8108C8.29521 18.5891 8.42737 18.4248 8.61005 18.314C9.05315 18.0389 9.55066 17.9281 10.0715 17.9013Z" fill="#FFEB61"/>
<path d="M15.163 17.7754C15.5128 17.848 15.9442 17.9206 16.3718 18.0237C16.6011 18.0772 16.7372 18.2377 16.6789 18.4899C16.6283 18.7154 16.5001 18.8147 16.2435 18.7765C15.6722 18.6886 15.093 18.6389 14.5217 18.551C14.4128 18.5358 14.2574 18.4326 14.234 18.3447C14.1835 18.146 14.2301 17.9359 14.475 17.8747C14.6694 17.8251 14.8715 17.8136 15.163 17.7754Z" fill="#FFEB61"/>
<path d="M35.9965 19.9877C35.8916 19.9151 35.8255 19.8845 35.7905 19.8349C35.7478 19.7737 35.7361 19.6935 35.7128 19.6209C35.5223 18.9866 35.1298 18.5357 34.4768 18.3294C34.3407 18.2874 34.2125 18.2453 34.2086 18.0695C34.2047 17.89 34.3524 17.8823 34.4729 17.8403C35.1336 17.6072 35.5884 17.1869 35.7672 16.5029C35.7983 16.3768 35.8527 16.2622 36.0082 16.2622C36.1636 16.2622 36.2103 16.3768 36.2375 16.5068C36.393 17.1945 36.84 17.6149 37.5046 17.8288C37.6445 17.8747 37.7417 17.9358 37.7495 18.0887C37.7534 18.2453 37.6251 18.2644 37.5124 18.2988C36.8011 18.509 36.3891 18.9942 36.1831 19.6782C36.152 19.7737 36.0704 19.8654 35.9965 19.9877ZM35.9576 18.8567C36.2336 18.5892 36.5251 18.3026 36.8283 18.0122C36.4707 17.8403 36.1909 17.569 36.0315 17.2404C35.7439 17.5308 35.4601 17.8135 35.2036 18.0695C35.4485 18.3294 35.7089 18.6007 35.9576 18.8567Z" fill="#FFEB61"/>
<path d="M21.3741 8.80742C21.343 8.83417 21.2808 8.92969 21.1992 8.95262C20.4141 9.18952 19.9049 9.67097 19.73 10.481C19.7106 10.5689 19.5667 10.6797 19.4696 10.6912C19.3957 10.7026 19.2713 10.588 19.2247 10.5001C19.112 10.2785 19.0576 10.0263 18.9371 9.81235C18.7078 9.41114 18.3579 9.13985 17.8915 9.02904C17.7244 8.98701 17.565 8.9297 17.5689 8.71954C17.5689 8.52085 17.7205 8.47501 17.876 8.41769C18.5173 8.17315 18.9837 7.7643 19.1509 7.08033C19.1625 7.03448 19.1664 6.97716 19.1975 6.95041C19.2791 6.87781 19.3763 6.76318 19.4657 6.76318C19.5512 6.76318 19.6717 6.86253 19.7222 6.95041C19.7961 7.0765 19.8 7.237 19.866 7.36691C20.1303 7.9095 20.5579 8.26867 21.1487 8.43679C21.3547 8.49793 21.3741 8.52848 21.3741 8.80742ZM20.1381 8.73864C19.9127 8.50938 19.6445 8.24192 19.4618 8.05469C19.2713 8.24956 18.9993 8.52468 18.7544 8.77304C18.9332 8.95263 19.2014 9.22391 19.4152 9.43407C19.6756 9.18188 19.9515 8.91823 20.1381 8.73864Z" fill="#FFEB61"/>
<path d="M17.3319 46.0779C17.2658 46.0014 17.1726 45.9326 17.1415 45.8448C16.9782 45.3557 16.7411 44.9201 16.2941 44.6297C16.127 44.5227 15.9288 44.4616 15.7616 44.3546C15.6606 44.2858 15.5362 44.1674 15.5323 44.068C15.5284 43.9725 15.6489 43.8196 15.75 43.7853C16.4379 43.5369 16.916 43.0975 17.1531 42.4059C17.1881 42.3027 17.3397 42.1613 17.4213 42.1728C17.5185 42.1842 17.6506 42.3256 17.6817 42.4326C17.8683 43.1166 18.3386 43.5292 18.9799 43.7776C19.1276 43.8349 19.252 43.8846 19.2481 44.0642C19.2442 44.2361 19.1354 44.3164 18.9877 44.366C18.2764 44.6144 17.8411 45.115 17.6506 45.8257C17.6079 45.9747 17.5535 46.0549 17.3319 46.0779ZM18.0199 44.0565C17.8566 43.8808 17.6079 43.6057 17.3747 43.3497C17.1298 43.5827 16.8694 43.8273 16.6828 43.9992C16.9199 44.2438 17.1803 44.5112 17.3902 44.7252C17.5768 44.5265 17.8256 44.2629 18.0199 44.0565Z" fill="#FFEB61"/>
<path d="M29.8008 40.4912C28.623 40.4836 27.7096 39.5551 27.7213 38.382C27.733 37.2548 28.7008 36.3416 29.8668 36.3569C31.0445 36.3722 31.9618 37.293 31.9463 38.4393C31.9346 39.6009 30.994 40.4989 29.8008 40.4912ZM29.8319 39.769C30.5742 39.7652 31.2117 39.1424 31.2039 38.4279C31.1961 37.7172 30.5704 37.1058 29.8435 37.1058C29.0972 37.1058 28.452 37.7248 28.4598 38.4355C28.4676 39.173 29.0856 39.7729 29.8319 39.769Z" fill="#FFEB61"/>
<path d="M17.9581 25.4212C17.9581 26.1128 17.4528 26.6286 16.7804 26.6324C16.073 26.6362 15.5327 26.1089 15.5327 25.425C15.5327 24.7372 16.0652 24.2061 16.7493 24.2137C17.4606 24.2213 17.9581 24.7181 17.9581 25.4212ZM17.3129 25.4288C17.3168 25.1116 17.0602 24.8556 16.7415 24.8556C16.4461 24.8556 16.1974 25.1078 16.1857 25.425C16.174 25.7345 16.4189 25.9905 16.726 25.9905C17.0486 25.9943 17.309 25.7459 17.3129 25.4288Z" fill="#FFEB61"/>
<path d="M26.1359 23.9041C25.4829 23.9041 24.9659 23.3692 24.9737 22.7005C24.9815 22.0204 25.4751 21.5466 26.1709 21.5427C26.8277 21.5389 27.3486 22.0471 27.3525 22.6929C27.3563 23.3807 26.8238 23.908 26.1359 23.9041ZM26.7072 22.6929C26.7072 22.4101 26.4585 22.1808 26.1514 22.1808C25.8599 22.1808 25.6228 22.4216 25.6228 22.7196C25.6228 23.0177 25.8366 23.2355 26.132 23.2393C26.4663 23.2469 26.7072 23.0177 26.7072 22.6929Z" fill="#FFEB61"/>
</svg>
