<svg width="48" height="48" viewBox="0 0 48 48" fill="none" xmlns="http://www.w3.org/2000/svg">
<path d="M24.0522 35.5041C24.1436 35.1814 24.2317 34.8587 24.3231 34.536C24.6822 33.2605 25.1801 32.0342 26.0032 30.9401C26.6671 30.0549 27.6359 29.4894 28.6317 28.9546C29.4887 28.4936 30.3186 27.9957 31.1417 27.4886C31.4194 27.3165 31.6227 27.0522 31.8835 26.8586C32.0088 26.7633 32.1917 26.7264 32.3475 26.6649C32.4187 26.8186 32.5576 26.9754 32.5508 27.126C32.4898 28.1771 32.0698 29.1114 31.3449 29.9351C30.6065 30.7741 29.6242 31.3396 28.6758 31.9512C27.6291 32.6274 26.6875 33.4111 25.905 34.3424C25.8644 34.3885 25.8305 34.4407 25.8406 34.5298C26.0507 34.3577 26.2607 34.1918 26.4639 34.0135C27.5309 33.0884 28.7842 32.4307 30.1154 31.8805C30.3152 31.7976 30.5489 31.6746 30.6979 31.9359C30.8571 32.2186 30.6268 32.3416 30.3863 32.4368C28.5335 33.1622 26.9517 34.2317 25.634 35.6117C25.0514 36.2202 24.5162 36.8718 24.0285 37.5479C23.8693 37.7692 23.9336 38.1227 23.8964 38.4177C23.5441 41.2422 23.1884 44.0636 22.8362 46.8881C22.8192 47.0141 22.7921 47.1401 22.7515 47.263C22.6126 47.7056 22.2502 47.93 21.8166 47.8531C21.3627 47.7732 21.0816 47.4044 21.1493 46.9434C21.217 46.4916 21.3119 46.0398 21.383 45.588C21.5625 44.417 21.715 43.243 21.9148 42.0751C21.986 41.654 21.7929 41.3467 21.5727 41.0117C20.7259 39.7331 19.7368 38.5683 18.4869 37.5879C17.4674 36.7857 16.3496 36.1311 15.0997 35.6639C15.0015 35.627 14.8693 35.6055 14.8219 35.5348C14.7508 35.4334 14.6763 35.2705 14.7203 35.1814C14.761 35.0984 14.9811 35.0062 15.0726 35.0369C15.5739 35.2121 16.0955 35.375 16.546 35.6332C17.5419 36.2079 18.4971 36.838 19.5437 37.4895C18.9544 36.9548 18.4497 36.4231 17.8637 35.9866C16.939 35.2982 15.9499 34.6835 15.0082 34.0135C13.8633 33.199 13.0335 32.1971 12.8641 30.8325C12.8404 30.642 12.8133 30.4453 12.8438 30.2609C12.8607 30.1533 12.9725 30.015 13.0775 29.9812C13.1825 29.9474 13.3824 29.9812 13.4535 30.0549C14.3071 30.9308 15.4181 31.481 16.5393 31.982C18.9815 33.073 20.2991 34.9109 21.0104 37.2068C21.2577 38.0028 21.5795 38.7773 21.8742 39.561C21.908 39.6502 21.9724 39.7301 22.0266 39.813C22.0368 39.8253 22.0639 39.8284 22.1181 39.8499C22.1757 38.9617 22.2637 38.0889 22.2874 37.2099C22.3281 35.71 22.3552 34.2071 22.3382 32.7073C22.3111 30.5129 22.2569 28.3184 22.1858 26.1271C22.1519 25.0514 22.0605 23.9788 21.9961 22.9062C21.9927 22.8324 22.0063 22.7463 21.9724 22.6849C21.505 21.8243 21.698 20.8869 21.5727 19.9864C21.5659 19.9341 21.5592 19.8788 21.5693 19.8266C21.6303 19.3871 21.505 19.092 21.007 18.8707C20.7123 18.7386 20.4854 18.3821 20.3431 18.0839C20.0925 17.5615 19.686 17.251 19.0899 17.0666C19.0052 17.1773 18.934 17.2818 18.8494 17.3801C18.619 17.6383 18.3447 17.7643 17.9551 17.6905C17.7892 17.6598 17.5419 17.6967 17.42 17.795C16.8103 18.2806 16.0176 18.127 15.6315 17.5615C15.4723 17.331 15.2453 17.2295 14.9608 17.2203C14.4188 17.2049 14.0835 16.9376 13.9412 16.4827C13.8701 16.2553 13.7448 16.1538 13.4941 16.0678C13.1994 15.9694 12.898 15.8004 12.6947 15.5883C12.4034 15.2779 12.5355 14.9091 12.7015 14.5618C12.7625 14.4389 12.7964 14.2821 12.7726 14.1499C12.627 13.3447 12.9014 12.9329 13.7516 12.6563C14.0022 12.5733 14.2529 12.4319 14.4459 12.2629C14.7406 12.0078 15.015 11.7834 15.4587 11.7496C15.6992 11.7312 15.9397 11.5929 16.1565 11.4699C16.4512 11.3009 16.7323 11.2609 17.088 11.304C17.3793 11.3378 17.6909 11.1964 17.9958 11.1749C18.2634 11.1564 18.5581 11.1472 18.8053 11.2271C19.2287 11.3624 19.3913 11.3593 19.7741 10.9997C19.4557 10.9198 19.1576 10.8491 18.8629 10.7692C17.3386 10.3512 15.8178 9.91171 14.2156 9.80721C14.1242 9.80107 13.9954 9.79491 13.9514 9.74267C13.86 9.63817 13.782 9.50294 13.7719 9.37385C13.7685 9.32775 13.9819 9.21096 14.0801 9.22326C14.9269 9.32775 15.7839 9.40766 16.6138 9.58284C17.5487 9.77647 18.4564 10.0623 19.3778 10.3051C19.4421 10.3205 19.5065 10.3328 19.6521 10.3666C19.4862 10.0469 19.4421 9.77955 19.0763 9.61359C18.5682 9.38615 18.3311 8.95279 18.409 8.40879C18.1651 8.292 17.928 8.18136 17.6875 8.06765C17.237 7.85865 16.8678 7.57283 16.6714 7.13641C16.5562 6.88131 16.3428 6.77987 16.0346 6.77373C15.5366 6.76451 15.0963 6.62007 14.7677 6.25434C14.5814 6.04842 13.7516 5.9808 13.5246 6.15291C13.4535 6.20516 13.4128 6.30965 13.3891 6.3957C13.2231 7.00731 12.942 7.17329 12.2781 7.03806C12.1528 7.01347 12.0275 6.97965 11.8987 6.96735C11.5329 6.93662 11.2823 7.1702 11.4584 7.44988C11.8107 8.00617 11.4652 8.28894 11.0451 8.57784C11.0079 8.60243 10.974 8.63316 10.9401 8.66389C10.9232 8.67926 10.913 8.6977 10.9266 8.68233C11.0655 8.95587 11.2992 9.21097 11.289 9.45992C11.2789 9.70579 11.018 9.94243 10.8351 10.2313C10.9029 10.2836 11.0248 10.3912 11.1603 10.4834C11.499 10.7139 11.6007 11.0058 11.5194 11.3839C11.4855 11.5375 11.5092 11.7773 11.6176 11.8603C11.726 11.9463 11.9733 11.9125 12.1562 11.891C12.6676 11.8264 13.0199 11.5775 13.3349 11.1872C13.7482 10.6801 14.3714 10.4926 15.0624 10.6893C15.4757 10.8061 15.7907 10.6186 16.1328 10.4926C16.5122 10.3512 16.7831 10.4004 16.9051 10.6801C16.9322 10.7446 16.8678 10.9044 16.8001 10.9321C16.4681 11.0673 16.1328 11.2025 15.7805 11.2794C15.5265 11.3347 15.2386 11.3501 14.9879 11.2947C14.5476 11.1964 14.2054 11.2855 13.904 11.5775C13.8566 11.6236 13.7922 11.6636 13.7583 11.7158C13.3823 12.2875 12.7523 12.4381 12.0986 12.561C11.2619 12.7147 10.6455 12.186 10.8182 11.4238C10.8826 11.138 10.8182 10.9813 10.5506 10.8214C10.1035 10.5541 10.0154 10.1422 10.3237 9.74267C10.5269 9.47835 10.5709 9.28165 10.3372 9.00811C10.0933 8.72843 10.1916 8.38421 10.5913 8.09224C10.8284 7.92013 10.8995 7.76646 10.7911 7.50215C10.6488 7.15485 10.7911 6.8598 11.0858 6.61392C11.4482 6.31273 11.8649 6.24511 12.3289 6.35882C12.417 6.38034 12.4983 6.42336 12.583 6.4541C12.9081 5.61198 13.2773 5.36303 14.1479 5.39376C14.114 5.20014 14.0463 5.00345 14.0564 4.8129C14.0767 4.35189 14.4155 4.00766 14.9574 3.92775C15.2352 3.88472 15.3131 3.78023 15.3436 3.54357C15.4316 2.83669 15.872 2.51089 16.6612 2.49245C16.7967 2.48937 16.9694 2.40948 17.0609 2.3142C17.4911 1.87778 17.9721 1.61345 18.6427 1.80093C18.8832 1.86854 19.0526 1.78864 19.2355 1.63497C19.9265 1.05102 20.5532 1.00185 21.1459 1.44749C21.5084 1.72103 21.593 2.06525 21.5693 2.47708C21.5558 2.683 21.6066 2.91659 21.715 3.09485C21.881 3.36223 21.9758 3.60812 21.8471 3.90931C21.7488 4.13982 21.7116 4.39798 21.9555 4.55472C22.5618 4.94812 22.4365 5.46753 22.3145 5.99616C22.301 6.05763 22.2806 6.11603 22.2569 6.19286C22.5042 6.19286 22.7312 6.19286 22.9784 6.19286C22.9445 6.01153 22.9242 5.85478 22.8836 5.7011C22.765 5.28619 22.8226 4.92046 23.2088 4.63464C23.5068 4.41335 23.6051 4.1644 23.4086 3.82632C23.2528 3.56201 23.4052 3.3192 23.5305 3.07025C23.6186 2.89814 23.6897 2.69529 23.6796 2.51089C23.6491 1.93616 23.8591 1.52125 24.3638 1.28152C24.9024 1.02642 25.4105 1.12171 25.8203 1.48437C26.1523 1.77942 26.4775 1.86547 26.9246 1.74253C27.3988 1.61345 27.7748 1.84397 28.0627 2.16053C28.2896 2.40948 28.5267 2.52626 28.8993 2.51396C29.4481 2.49552 29.9189 2.93809 29.9358 3.45136C29.946 3.76792 30.0645 3.92774 30.4304 3.97384C30.9723 4.04146 31.3077 4.55472 31.206 5.08642C31.1823 5.20628 31.1586 5.32922 31.1349 5.45523C32.063 5.4245 32.2832 5.56281 32.6964 6.42645C32.9437 6.38342 33.1944 6.29121 33.4382 6.3035C34.1733 6.34038 34.6035 6.8813 34.4578 7.58512C34.4104 7.8187 34.4409 7.94471 34.6576 8.08609C35.1048 8.37806 35.1624 8.71613 34.8643 9.13719C34.7491 9.29701 34.7118 9.41689 34.8439 9.59515C35.2572 10.1453 35.1996 10.5049 34.6373 10.9198C34.4646 11.0489 34.4036 11.1534 34.451 11.3685C34.6407 12.2321 33.9192 12.7362 32.9742 12.4965C32.3238 12.3336 31.8428 12.0385 31.4465 11.556C31.1993 11.2548 30.7928 11.1626 30.3931 11.2917C29.6378 11.5345 29.0518 11.1442 28.4421 10.8798C28.2354 10.7907 28.3438 10.4772 28.6216 10.4403C28.835 10.4127 29.0992 10.4496 29.2855 10.5479C29.6039 10.7169 29.902 10.7538 30.2576 10.6831C31.1756 10.4987 31.7345 10.7262 32.2324 11.43C32.3171 11.5498 32.4763 11.642 32.6253 11.7097C32.8353 11.8049 33.0589 11.8848 33.2858 11.9248C33.4145 11.9494 33.5941 11.9186 33.6923 11.848C33.777 11.7896 33.8346 11.6205 33.8041 11.5252C33.6618 11.0796 33.8041 10.7354 34.18 10.4403C34.302 10.3451 34.3968 10.2252 34.5052 10.1207C33.8176 9.53981 33.8142 9.50602 34.3867 8.71C34.2647 8.6178 34.1428 8.52251 34.0141 8.43338C33.6313 8.16292 33.5432 7.957 33.7804 7.58204C34.0547 7.14254 33.716 6.91818 33.2926 6.97043C33.2113 6.97965 33.13 6.99195 33.0521 7.01039C32.483 7.13947 32.124 6.97044 31.9343 6.47561C31.7649 6.03304 31.0502 5.85785 30.6742 6.20207C30.2237 6.61084 29.7089 6.81676 29.0721 6.81676C28.9467 6.81676 28.7571 6.93662 28.7062 7.04419C28.4183 7.65887 27.9001 8.02155 27.2362 8.24899C27.0194 8.32275 26.9008 8.41187 26.9279 8.66697C26.9754 9.11876 26.6163 9.38923 26.2471 9.59515C25.949 9.76419 25.8169 9.99469 25.6848 10.3266C25.9727 10.2559 26.2031 10.1914 26.4368 10.1422C27.9204 9.83179 29.404 9.52752 30.8876 9.22018C30.9791 9.20174 31.0773 9.15871 31.162 9.17715C31.3043 9.20788 31.538 9.26628 31.5482 9.33697C31.5685 9.46606 31.4804 9.62895 31.3856 9.74267C31.328 9.81028 31.1756 9.83794 31.0604 9.84102C29.5802 9.89019 28.1846 10.299 26.7789 10.6708C26.4741 10.7508 26.1658 10.8184 25.861 10.8983C25.7458 10.929 25.634 10.9751 25.4376 11.0396C25.8948 11.2087 26.2065 11.5068 26.657 11.1749C26.9415 10.9659 27.287 11.0888 27.5919 11.221C27.8357 11.3255 28.0661 11.3747 28.3608 11.3255C28.5945 11.2855 28.8688 11.43 29.1195 11.5037C29.4176 11.5898 29.719 11.6728 30.0002 11.7896C30.2474 11.8941 30.471 12.0447 30.7047 12.1768C30.9859 12.3366 31.2433 12.5579 31.5515 12.6532C32.3746 12.9114 32.6626 13.3386 32.4627 14.1131C32.4424 14.196 32.4763 14.2944 32.5067 14.3805C32.5677 14.5526 32.6659 14.7155 32.71 14.8876C32.859 15.4685 32.4864 15.9817 31.8394 16.0493C31.5956 16.077 31.4872 16.1692 31.4194 16.3567C31.2094 16.9345 30.7522 17.1957 30.095 17.2357C29.946 17.2449 29.7631 17.3463 29.675 17.457C29.1161 18.1669 28.5809 18.2468 27.8019 17.7305C27.7002 17.6629 27.5207 17.6537 27.3886 17.6752C26.9009 17.7489 26.6366 17.6659 26.3826 17.2818C26.2674 17.1097 26.1489 17.0666 25.9558 17.1465C25.5629 17.3094 25.2242 17.5123 25.0514 17.9026C24.8448 18.3728 24.5738 18.8031 24.0285 19.0336C23.9268 19.0767 23.8489 19.2488 23.8388 19.3686C23.7981 19.9219 23.7947 20.4751 23.7609 21.0283C23.6423 23.0291 23.937 25.0207 23.9709 27.0184C24.0014 28.9792 24.0386 30.937 24.0556 32.8978C24.0623 33.6201 24.0081 34.3454 23.9844 35.0677C23.981 35.2091 23.9844 35.3535 23.9844 35.4949C23.998 35.498 24.0251 35.501 24.0522 35.5041ZM25.8914 14.8046C26.0269 14.402 25.8745 14.193 25.634 14.0055C24.9837 13.5045 24.4417 12.9237 24.0251 12.2475C23.7812 11.848 23.2968 11.7681 22.887 12.0508C22.704 12.1799 22.5787 12.1737 22.3924 12.0508C21.9352 11.7465 21.5321 11.8019 21.2713 12.2414C20.8546 12.9421 20.2551 13.483 19.6115 13.9994C19.4794 14.1038 19.3202 14.276 19.327 14.4112C19.3507 14.906 19.1474 15.3117 18.8866 15.7266C18.636 16.1169 18.7748 16.3597 19.2694 16.4765C20.106 16.6702 20.6446 17.1527 20.9867 17.8596C21.0816 18.0563 21.2475 18.2407 21.4338 18.3728C21.5422 18.4497 21.7861 18.4681 21.9114 18.4097C22.4534 18.1546 22.9649 18.2069 23.4899 18.4343C23.578 18.4712 23.7473 18.4743 23.8083 18.422C24.0014 18.2561 24.2148 18.0839 24.3164 17.8719C24.6483 17.1896 25.1835 16.7224 25.9457 16.4612C26.5655 16.2491 26.6434 16.0647 26.2878 15.5668C26.2505 15.5146 26.1963 15.4654 26.1692 15.4101C26.0608 15.1888 25.9592 14.9613 25.8914 14.8046ZM20.9969 11.5929C20.4143 11.4546 20.0112 11.5437 19.642 11.8295C19.2863 12.1061 18.9103 12.1676 18.4869 11.9002C18.3616 11.8203 18.1381 11.8326 17.9687 11.8572C17.718 11.891 17.4233 12.0754 17.2337 12.0047C16.7967 11.8449 16.4986 12.0508 16.1565 12.186C15.9838 12.2537 15.811 12.3336 15.6315 12.3612C15.3232 12.4073 15.0827 12.5333 14.9066 12.7638C14.6593 13.0804 14.3071 13.2156 13.904 13.2986C13.4806 13.3877 13.3959 13.5353 13.4535 13.9194C13.5077 14.2698 13.5382 14.614 13.2672 14.9245C13.1283 15.0843 13.2502 15.3271 13.484 15.4101C13.5822 15.4439 13.6906 15.4531 13.7922 15.4715C14.1919 15.5391 14.5001 15.8065 14.5848 16.1538C14.6797 16.5503 14.866 16.6794 15.3029 16.6087C15.6247 16.5564 15.8483 16.6702 16.0142 16.9037C16.1091 17.039 16.1768 17.1865 16.2751 17.3187C16.4139 17.5031 16.7459 17.5676 16.8848 17.4047C17.1896 17.0482 17.5554 16.9437 18.033 17.0328C18.1313 17.0513 18.304 16.9498 18.3684 16.8607C18.4056 16.8054 18.3311 16.6456 18.26 16.5718C18.0364 16.3474 17.9992 16.0954 18.0974 15.828C18.1719 15.6283 18.304 15.4469 18.3785 15.2472C18.47 15.0013 18.575 14.7493 18.5852 14.4942C18.5987 14.2084 18.6766 13.9809 18.9036 13.7842C19.3473 13.4031 19.8046 13.0343 20.211 12.6225C20.4956 12.3243 20.7124 11.9678 20.9969 11.5929ZM24.2961 11.4607C24.5027 11.7803 24.628 12.0662 24.8346 12.2844C25.3156 12.7915 25.8508 13.2525 26.3318 13.7566C26.4876 13.9194 26.64 14.1592 26.6366 14.362C26.6299 14.7032 26.7146 14.9829 26.9178 15.2564C27.016 15.3885 27.0838 15.5391 27.1447 15.6867C27.2667 15.9756 27.2464 16.2399 27.0025 16.4888C26.928 16.5657 26.8907 16.7685 26.9483 16.8361C27.0296 16.9283 27.2396 17.0236 27.348 16.9898C27.768 16.8576 28.0491 17.0021 28.3032 17.2818C28.5267 17.5246 28.8248 17.5061 29.0179 17.2388C29.0551 17.1865 29.0856 17.1281 29.1161 17.0697C29.2956 16.7224 29.5802 16.5657 30.0171 16.6056C30.4371 16.6425 30.5862 16.5288 30.7352 16.1446C30.9012 15.7143 31.2128 15.4531 31.7277 15.3978C32.0427 15.367 32.1714 15.1857 32.0122 14.9337C31.792 14.5772 31.7582 14.2145 31.8191 13.8242C31.8733 13.4707 31.7345 13.3109 31.3381 13.2556C30.9114 13.1941 30.576 13.0097 30.2881 12.7208C30.1696 12.601 30.007 12.4965 29.8444 12.4288C29.4481 12.2721 29.0416 12.143 28.6385 12.0078C28.5775 11.9863 28.4929 11.9647 28.4421 11.9832C28.0695 12.1307 27.7273 12.0416 27.4022 11.8695C27.1989 11.7619 27.0262 11.7619 26.8162 11.8848C26.4639 12.0938 26.0811 12.1276 25.739 11.8603C25.3529 11.556 24.8821 11.5129 24.2961 11.4607ZM26.2844 6.79524C27.0804 5.77487 27.9204 4.86822 29.2008 4.40413C29.3735 4.34266 29.421 4.25659 29.3498 4.08448C29.2821 3.90929 29.255 3.71261 29.2448 3.52513C29.2211 3.17784 29.1602 3.15016 28.7672 3.16245C28.5403 3.1686 28.2829 3.10714 28.0864 3.00265C27.8628 2.87971 27.6833 2.67994 27.5004 2.50168C27.3276 2.33264 27.1481 2.28346 26.9042 2.36029C26.3521 2.53855 25.8677 2.44328 25.468 2.03759C25.3969 1.9669 25.3122 1.90544 25.2276 1.85319C25.0108 1.71796 24.7974 1.71796 24.5738 1.85011C24.3503 1.9792 24.3435 2.16666 24.4045 2.35722C24.5298 2.75062 24.374 3.08255 24.1741 3.42063C24.1199 3.51283 24.0928 3.65421 24.1301 3.74949C24.2859 4.13981 24.1978 4.48096 23.9404 4.80059C23.849 4.91124 23.7372 5.00652 23.6491 5.12024C23.5001 5.31079 23.3781 5.50441 23.6525 5.7011C23.7067 5.74106 23.7338 5.83019 23.7439 5.89781C23.8185 6.33116 23.9743 6.46025 24.4553 6.34654C25.1632 6.1775 25.7729 6.27583 26.2844 6.79524ZM19.0932 6.69997C19.2491 6.61699 19.3981 6.53401 19.5505 6.4541C19.9502 6.24818 20.3668 6.24818 20.8106 6.31887C21.007 6.3496 21.3424 6.32502 21.4169 6.21438C21.5897 5.95929 21.6608 5.64271 21.7319 5.34152C21.7489 5.26468 21.6303 5.15711 21.5659 5.07106C21.5185 5.00959 21.4609 4.95735 21.4033 4.9051C21.068 4.58239 20.9799 4.21665 21.1324 3.78637C21.173 3.67572 21.1459 3.50975 21.0782 3.41448C20.8377 3.08255 20.7632 2.75063 20.8614 2.35416C20.8987 2.20663 20.797 1.98226 20.6751 1.8624C20.4448 1.63497 20.1501 1.67492 19.8588 1.97611C19.415 2.43098 18.8798 2.54163 18.2701 2.36645C18.0703 2.30805 17.9822 2.3726 17.8569 2.48939C17.4538 2.86435 17.0846 3.30691 16.3767 3.16861C16.2886 3.15016 16.1463 3.35301 16.0312 3.45443C16.231 3.61732 16.0854 3.77101 16.0041 3.90931C15.8415 4.18592 15.9465 4.36109 16.2412 4.45637C16.922 4.67766 17.4708 5.07721 17.9619 5.53515C18.3616 5.91318 18.7308 6.32808 19.0932 6.69997ZM23.3273 32.778C23.3612 32.778 23.3917 32.778 23.4255 32.778C23.3578 30.3838 23.2934 27.9896 23.2257 25.5923C23.2121 25.1036 23.1342 24.6119 23.1579 24.1263C23.1986 23.2411 22.9073 22.3744 23.0563 21.477C23.1783 20.7332 23.1071 19.9679 23.141 19.2119C23.1512 18.9353 23.0191 18.8154 22.7312 18.8154C22.3823 18.8123 22.1993 18.9537 22.2095 19.2273C22.2332 19.8757 22.2536 20.5273 22.2874 21.1758C22.3078 21.5661 22.3213 21.9657 22.6194 22.2945C22.6803 22.3621 22.6905 22.4759 22.6939 22.5681C22.7447 23.6315 22.8057 24.6949 22.8362 25.7583C22.887 27.5132 22.931 29.2712 22.9581 31.0292C22.9987 33.7338 23.0597 36.4415 22.7684 39.14C22.5211 41.4389 22.2197 43.7317 21.9351 46.0244C21.8945 46.3625 21.8064 46.6945 21.7726 47.0325C21.7658 47.1155 21.8809 47.2108 21.9385 47.303C22.0063 47.2323 22.0943 47.1678 22.1316 47.0848C22.1756 46.9895 22.1824 46.8789 22.1994 46.7713C22.3992 45.4436 22.6329 44.1159 22.7887 42.7851C22.9987 41.0086 23.2054 39.226 23.3036 37.4404C23.3951 35.8883 23.3273 34.3301 23.3273 32.778ZM18.6529 35.7746C18.68 35.7561 18.7071 35.7346 18.7342 35.7162C18.5852 35.5133 18.4361 35.3105 18.2803 35.1076C18.1685 34.9601 18.0025 34.8249 17.9517 34.662C17.9111 34.536 18.0059 34.3731 18.0398 34.2256C18.1685 34.2686 18.3447 34.2778 18.4124 34.3608C18.7613 34.7849 19.0899 35.2244 19.4083 35.6701C19.5336 35.8483 19.6996 36.0481 19.4862 36.2786C19.4625 36.3032 19.4794 36.3862 19.5099 36.4231C19.7741 36.7673 20.0451 37.1084 20.316 37.4527C20.2009 36.964 20.0078 36.5091 19.8215 36.0543C19.2728 34.7296 18.409 33.6324 17.0236 32.9224C16.3089 32.5567 15.5874 32.2002 14.8829 31.816C14.4392 31.5732 14.0192 31.2935 13.5686 31.0169C13.572 31.0784 13.5686 31.1091 13.5754 31.1368C13.8735 32.2125 14.595 33.0085 15.5536 33.657C16.5223 34.3116 17.4775 34.9786 18.4429 35.6393C18.5039 35.6916 18.5784 35.7316 18.6529 35.7746ZM31.809 27.7591C30.8064 28.6412 29.5361 29.1421 28.3743 29.7906C26.6739 30.7372 25.3597 32.5751 25.1158 34.3977C25.3868 33.8906 26.054 33.5525 25.9016 32.861C25.8881 32.8026 25.9084 32.7257 25.9457 32.6766C26.3047 32.1449 26.6604 31.6101 27.0499 31.0937C27.1075 31.02 27.3378 31.0538 27.4868 31.0415C27.4902 31.1644 27.5444 31.312 27.4835 31.4011C27.2938 31.6808 27.0601 31.9359 26.8534 32.2063C26.7823 32.2985 26.7484 32.4123 26.6637 32.5844C26.7992 32.526 26.8467 32.5137 26.8805 32.4891C27.9577 31.7361 29.0517 31.0016 30.1052 30.224C30.9723 29.5878 31.5549 28.7702 31.809 27.7591ZM23.7406 9.62587C23.4696 10.1637 23.3002 10.2467 22.6668 10.1637C22.5889 10.1545 22.5076 10.1791 22.4331 10.1637C22.2366 10.1238 22.0232 10.1023 21.8572 10.0131C21.6947 9.924 21.5829 9.76111 21.4711 9.65047C21.0545 9.68735 20.6548 9.72423 20.2077 9.76726C20.2788 9.90864 20.3838 10.0531 20.4177 10.2098C20.4549 10.3789 20.4244 10.5571 20.4244 10.7354C21.4372 10.468 21.4372 10.468 21.6743 11.0827C22.3111 10.7354 22.9716 10.8307 23.6694 11.0458C23.6728 10.7569 23.7744 10.5448 24.103 10.5571C24.3503 10.5664 24.5941 10.6094 24.777 10.6309C24.8685 10.3451 24.9633 10.0561 25.065 9.73344C24.8448 9.73344 24.628 9.74882 24.4112 9.73038C24.191 9.71194 23.9641 9.65968 23.7406 9.62587ZM16.1836 5.04954C15.8483 5.20321 15.6924 5.13867 15.4384 4.82211C15.3402 4.69917 15.1268 4.65 14.9676 4.57009C14.8897 4.72068 14.7237 4.88973 14.7542 5.02189C14.8626 5.51056 15.225 5.85785 15.6755 6.12524C15.7466 6.16827 15.8754 6.14984 15.9736 6.13447C16.5528 6.04534 17.1862 6.41107 17.3624 6.91511C17.4132 7.05956 17.4945 7.23168 17.6232 7.30852C17.9382 7.50214 18.2905 7.64658 18.636 7.81255C18.68 7.76952 18.7206 7.73571 18.7579 7.69575C18.8019 7.64658 18.8426 7.59742 18.8866 7.53903C18.1143 6.58626 17.3658 5.63349 16.1836 5.04954ZM29.299 6.19286C29.4616 6.14984 29.6716 6.15291 29.7732 6.05763C30.0374 5.81791 30.2847 5.55359 30.471 5.26468C30.5794 5.09565 30.7217 4.83749 30.4507 4.65923C30.1729 4.4779 30.0036 4.68381 29.8342 4.8467C29.7936 4.88666 29.7428 4.91739 29.7157 4.96349C29.5802 5.16634 29.4142 5.22781 29.1534 5.1356C29.0619 5.10487 28.9027 5.16018 28.8079 5.21857C28.6182 5.34151 28.4285 5.47675 28.2761 5.6335C27.6935 6.22974 27.121 6.83214 26.5587 7.44375C26.5045 7.50215 26.5012 7.64044 26.5384 7.71727C26.5689 7.77874 26.7349 7.85252 26.7755 7.82793C27.2328 7.54825 27.9103 7.47141 27.9814 6.81063C27.9882 6.7553 28.0424 6.6969 28.0864 6.6508C28.4014 6.32194 28.7943 6.13754 29.299 6.19286ZM20.8106 7.14869C20.5701 6.85979 20.1365 6.82907 19.7639 7.04113C19.5912 7.13948 19.537 7.23782 19.6318 7.43452C19.6996 7.5759 19.703 7.78489 19.6386 7.92934C19.5641 8.0953 19.3337 8.20287 19.2592 8.36884C19.1915 8.52251 19.1949 8.7315 19.2524 8.89132C19.2863 8.9866 19.4828 9.03578 19.6047 9.10646C19.625 9.0788 19.6488 9.05114 19.6691 9.02348C19.6149 8.92205 19.5336 8.8237 19.5133 8.71613C19.493 8.61471 19.4963 8.43954 19.5573 8.40573C19.6928 8.33197 19.8892 8.27664 20.0281 8.31659C20.1297 8.34425 20.1806 8.53174 20.2483 8.6516C20.316 8.77147 20.3533 8.91899 20.4515 9.01119C20.5091 9.06651 20.7259 9.08495 20.7598 9.04499C21.0172 8.73458 21.2645 8.89747 21.5659 9.08803C21.6337 8.87289 21.6913 8.6977 21.7217 8.60549C21.2441 8.42109 20.8174 8.30123 20.4549 8.09224C20.2923 7.99696 20.2144 7.72649 20.1738 7.52364C20.1263 7.29621 20.3804 7.31774 20.5362 7.26856C20.6243 7.24398 20.7022 7.19787 20.8106 7.14869ZM25.7424 9.13413C26.1963 8.94051 26.2912 8.63009 26.01 8.3289C25.9186 8.23362 25.8102 8.1537 25.7119 8.06457C25.5019 7.87709 25.424 7.68039 25.651 7.45296C25.7018 7.40071 25.739 7.33618 25.8271 7.21017C25.5493 7.09338 25.3088 6.96429 25.0514 6.90282C24.9159 6.87209 24.7398 6.94892 24.5941 7.00731C24.5535 7.02268 24.5332 7.13947 24.5433 7.20094C24.5535 7.24397 24.6585 7.31158 24.6856 7.29929C24.9193 7.19787 25.0887 7.31774 25.1259 7.47755C25.1564 7.61278 25.065 7.79412 24.9735 7.9232C24.6924 8.31046 24.2182 8.3965 23.7677 8.50407C23.5441 8.55631 23.5136 8.64238 23.6017 8.82064C23.6999 9.02041 23.8286 9.08495 24.0352 8.95279C24.208 8.84215 24.3502 8.80219 24.5128 8.9866C24.5603 9.04192 24.7635 9.06345 24.8245 9.02042C24.9396 8.93744 25.0887 8.78989 25.0785 8.67618C25.0548 8.33503 25.1564 8.24283 25.5121 8.31967C25.8474 8.39036 25.9931 8.50715 25.8135 8.82064C25.7593 8.90362 25.7627 9.01734 25.7424 9.13413ZM23.727 7.72958C23.8117 7.72036 23.9099 7.72343 23.9912 7.6927C24.1131 7.6466 24.2249 7.5759 24.3401 7.51443C24.2724 7.40994 24.2317 7.26856 24.1301 7.20709C23.9201 7.07801 23.6694 7.00732 23.4526 6.88746C23.2494 6.77374 23.08 6.77989 22.8632 6.86902C22.7176 6.92742 22.5245 6.88746 22.3518 6.88746C22.1215 6.89053 21.8776 6.85058 21.6608 6.90282C21.488 6.94278 21.3492 7.09952 21.1832 7.18865C20.9461 7.31773 20.8648 7.56668 21.0545 7.62815C21.2543 7.69576 21.4745 7.81255 21.654 7.5298C21.8369 7.23782 22.1452 7.2409 22.4263 7.44067C22.5144 7.50214 22.721 7.5175 22.8124 7.46525C23.3002 7.19171 23.5305 7.24398 23.727 7.72958ZM23.3409 7.97852C22.9107 8.23054 22.4636 8.21518 22.0131 8.05843C21.9724 8.04307 21.8539 8.11682 21.8403 8.16292C21.82 8.23976 21.8267 8.39037 21.8708 8.40573C22.2535 8.55633 22.2197 8.86367 22.2637 9.15257C22.2908 9.34313 22.3416 9.54905 22.6295 9.53675C22.8565 9.52753 23.0699 9.24784 23.0394 9.02348C22.992 8.65467 23.0428 8.59013 23.4086 8.53174C23.3849 8.36577 23.368 8.19981 23.3409 7.97852Z" fill="#FFEB61"/>
<path d="M37.1506 16.5472C36.9813 16.4366 36.8661 16.3935 36.8119 16.3167C36.7442 16.2214 36.7204 16.1016 36.6866 15.9879C36.3749 15.0197 35.7246 14.3405 34.6508 14.0239C34.4273 13.9594 34.2139 13.8949 34.2105 13.6275C34.2071 13.3539 34.4442 13.3416 34.6441 13.2771C35.7314 12.9236 36.4833 12.2813 36.778 11.2425C36.8322 11.055 36.9169 10.8737 37.171 10.8767C37.425 10.8798 37.5029 11.0489 37.5503 11.2486C37.8044 12.2936 38.5428 12.9359 39.6403 13.2556C39.8706 13.3232 40.0332 13.4215 40.0433 13.652C40.0501 13.8918 39.8367 13.9194 39.6504 13.9717C38.4784 14.2883 37.801 15.0259 37.4623 16.0678C37.4081 16.2214 37.276 16.3567 37.1506 16.5472ZM37.0863 14.8261C37.5368 14.4204 38.0245 13.987 38.5191 13.5414C37.9297 13.2802 37.4656 12.8683 37.2048 12.3643C36.7306 12.8038 36.2598 13.2371 35.8398 13.6275C36.2496 14.0209 36.6798 14.4358 37.0863 14.8261Z" fill="#FFEB61"/>
<path d="M13.142 2.70459C13.0979 2.7384 13.0166 2.85827 12.9049 2.88901C11.8345 3.18713 11.1401 3.79259 10.903 4.8099C10.8759 4.92361 10.6828 5.05884 10.5473 5.07421C10.4491 5.0865 10.2764 4.94511 10.2154 4.83447C10.063 4.55479 9.98845 4.2413 9.82247 3.97084C9.50746 3.46372 9.03325 3.12566 8.39644 2.98428C8.16611 2.93511 7.95271 2.86134 7.95609 2.59395C7.95948 2.345 8.16272 2.28968 8.37273 2.21285C9.24664 1.90858 9.88006 1.38916 10.1104 0.531675C10.1273 0.476354 10.1341 0.402601 10.1747 0.368794C10.2865 0.276591 10.4152 0.135207 10.5406 0.132134C10.6591 0.12906 10.8217 0.25815 10.8895 0.368794C10.9877 0.525538 10.9945 0.728391 11.0825 0.894356C11.4416 1.57666 12.0208 2.02845 12.827 2.23744C13.1149 2.31735 13.1454 2.35422 13.142 2.70459ZM11.4585 2.61854C11.1503 2.33271 10.7878 1.99157 10.5372 1.75799C10.2764 2.00386 9.90715 2.34808 9.5752 2.6585C9.81908 2.88286 10.1849 3.224 10.4728 3.49138C10.8285 3.1779 11.2011 2.84598 11.4585 2.61854Z" fill="#FFEB61"/>
<path d="M28.4621 27.8452C28.3741 27.75 28.2487 27.667 28.2081 27.5594C27.9879 26.9601 27.6729 26.4192 27.0767 26.0626C26.8532 25.9305 26.5856 25.8567 26.3654 25.7215C26.2299 25.6385 26.0606 25.4941 26.0572 25.3711C26.0538 25.2543 26.2164 25.0669 26.3485 25.0208C27.2698 24.7134 27.9066 24.1725 28.2216 23.3181C28.269 23.1921 28.4723 23.0169 28.5807 23.0292C28.7128 23.0415 28.8889 23.2167 28.9262 23.3488C29.1734 24.194 29.8035 24.7011 30.6604 25.0085C30.8569 25.0792 31.0229 25.1376 31.0161 25.3619C31.0093 25.574 30.8637 25.6723 30.6672 25.7338C29.7154 26.0411 29.1362 26.6589 28.8821 27.5318C28.8313 27.7162 28.7568 27.8176 28.4621 27.8452ZM29.3767 25.3558C29.1599 25.1375 28.8279 24.7995 28.5129 24.4829C28.1844 24.7687 27.8355 25.0699 27.5882 25.2851C27.9066 25.5863 28.2521 25.9151 28.5333 26.1794C28.7873 25.9336 29.1192 25.6078 29.3767 25.3558Z" fill="#FFEB61"/>
<path d="M17.3322 31.4779C16.0891 31.4686 15.117 30.562 15.1305 29.4187C15.1407 28.3184 16.167 27.424 17.4 27.4394C18.6431 27.4548 19.6186 28.3553 19.6017 29.4771C19.5915 30.6081 18.5923 31.4871 17.3322 31.4779ZM17.3627 30.7741C18.1485 30.771 18.8226 30.1624 18.8158 29.4617C18.8091 28.7671 18.1452 28.1678 17.3763 28.1709C16.587 28.1709 15.9062 28.7763 15.913 29.4679C15.9197 30.1901 16.5735 30.7771 17.3627 30.7741Z" fill="#FFEB61"/>
<path d="M19.9437 20.8471C19.9437 21.6155 19.3374 22.1933 18.5244 22.1963C17.6743 22.1994 17.0171 21.6155 17.0205 20.8502C17.0205 20.0849 17.6607 19.4948 18.4872 19.504C19.3442 19.5132 19.9437 20.0634 19.9437 20.8471ZM19.168 20.8563C19.1748 20.5029 18.8666 20.217 18.477 20.217C18.1214 20.217 17.8199 20.4998 17.8064 20.8502C17.7928 21.1944 18.0875 21.4802 18.4601 21.4802C18.8496 21.4802 19.1646 21.2067 19.168 20.8563Z" fill="#FFEB61"/>
<path d="M26.3252 39.7241C25.5292 39.721 24.8991 39.1217 24.9093 38.3718C24.9195 37.6065 25.519 37.0717 26.3692 37.0686C27.172 37.0655 27.8054 37.6372 27.8088 38.3656C27.8122 39.1309 27.1652 39.7241 26.3252 39.7241ZM27.0229 38.3595C27.0229 38.0429 26.7215 37.7847 26.3455 37.7847C25.9898 37.7847 25.7019 38.0552 25.7019 38.3933C25.7019 38.7283 25.9593 38.9711 26.3218 38.9772C26.7316 38.9834 27.0229 38.7252 27.0229 38.3595Z" fill="#FFEB61"/>
</svg>
