<svg width="48" height="49" viewBox="0 0 48 49" fill="none" xmlns="http://www.w3.org/2000/svg">
<path d="M20.3266 11.0449C20.9209 8.06119 22.385 5.69816 24.6624 3.85557C24.8657 3.69071 25.0096 3.68747 25.2255 3.84587C26.8647 5.0581 28.1786 6.54833 28.9606 8.49436C29.1014 8.84348 29.1953 9.21523 29.3298 9.63871C29.4142 9.49647 29.4737 9.39949 29.5331 9.30252C29.9085 8.67216 30.2902 8.04503 30.653 7.40497C30.7031 7.31446 30.7187 7.13343 30.6656 7.05585C29.7458 5.71432 29.8929 4.36309 30.6249 3.01832C31.5102 1.38909 32.9429 0.593866 34.6604 0.251209C35.9148 0.00229846 37.1755 -0.0688188 38.4456 0.0701834C38.4644 0.073416 38.4863 0.0734159 38.505 0.0766485C39.0024 0.141301 39.0619 0.222116 38.9368 0.716705C38.8617 1.00764 38.7678 1.29534 38.6771 1.61214C38.9461 1.6477 39.187 1.67033 39.4216 1.71235C40.4102 1.89661 40.5197 2.02914 40.4665 3.05065C40.3883 4.58937 40.113 6.08607 39.2777 7.39204C38.2798 8.95339 36.8971 9.84559 35.0295 9.75831C33.9252 9.70659 32.993 9.27019 32.3048 8.34566C32.2798 8.31334 32.2579 8.28101 32.2297 8.25192C32.2172 8.23899 32.1953 8.23252 32.139 8.20343C31.7323 8.77883 31.3194 9.3607 30.872 9.99106C31.2193 9.9458 31.4977 9.88439 31.7761 9.88115C33.1588 9.86499 34.3945 10.3499 35.5363 11.1192C37.1724 12.2183 38.4769 13.6407 39.4717 15.3766C39.6782 15.7354 39.7595 16.0813 39.6625 16.4983C39.09 19.0036 37.9795 21.1694 35.9899 22.7825C35.017 23.5713 33.9096 24.0367 32.6551 24.0788C32.6301 24.0788 32.602 24.0917 32.5488 24.1079C32.7959 24.4247 33.0368 24.7253 33.2652 25.0356C33.8908 25.8826 34.2318 26.8394 34.2881 27.9062C34.3069 28.2844 34.188 28.4266 33.8283 28.3814C33.1463 28.3006 32.4549 28.2424 31.7855 28.0904C31.1786 27.9514 30.5967 27.6993 30.0274 27.5053C29.5206 29.8748 27.9752 31.433 26.0263 32.6581C25.7823 32.8101 25.507 32.9103 25.2724 33.0719C24.947 33.2949 24.6686 33.2529 24.3527 33.046C23.8834 32.7357 23.3954 32.4577 22.873 32.1441C22.7416 32.8488 22.6071 33.518 22.4882 34.1904C22.2098 35.7808 21.8657 37.3551 21.1993 38.8292C20.1952 41.0597 18.703 42.899 16.9136 44.4992C16.8917 44.5186 16.8698 44.538 16.8448 44.5574C16.5789 44.7869 16.4006 45.0035 16.363 45.4302C16.2754 46.4484 15.7217 47.1919 14.7488 47.5055C14.217 47.6801 13.6602 47.7706 13.1158 47.8999C12.8718 47.9581 12.7467 47.8191 12.7405 47.5992C12.7279 47.1531 12.7248 46.707 12.7561 46.2642C12.8061 45.6047 12.9375 44.9582 13.2285 44.3602C13.4975 43.8106 13.8979 43.4098 14.4735 43.2191C14.9553 43.0607 15.4214 43.0477 15.8468 43.4453C17.3234 42.1555 18.5904 40.6976 19.4319 38.9197C18.7968 39.0748 18.1587 39.272 17.508 39.3755C16.0502 39.6115 14.5861 39.4886 13.1284 39.3399C12.2994 39.2526 11.4766 39.0975 10.6539 38.952C10.2503 38.8809 10.1596 38.6417 10.4474 38.3443C12.0178 36.7118 13.0908 34.7173 14.2796 32.8068C14.6644 32.1894 15.1023 31.6204 15.6529 31.1453C16.6758 30.266 18.4433 29.988 19.6665 30.8769C19.6821 30.8866 19.704 30.8866 19.704 30.8866C19.948 30.5505 20.192 30.2207 20.4235 29.8845C20.4611 29.8296 20.4798 29.7197 20.4548 29.6583C20.1482 28.9342 19.8448 28.21 19.8667 27.3405C19.6946 27.4084 19.5789 27.4504 19.4663 27.5021C18.6091 27.903 17.7176 28.1616 16.7728 28.2262C16.4506 28.2488 16.1315 28.3329 15.8093 28.3523C15.3745 28.3814 15.265 28.2424 15.3119 27.7963C15.4339 26.639 15.8437 25.5981 16.4756 24.6445C16.5976 24.4635 16.7165 24.2792 16.8698 24.0432C16.6539 24.0012 16.4881 23.9656 16.3223 23.9365C14.777 23.6682 13.5913 22.7825 12.6122 21.58C11.3546 20.038 10.6195 18.2374 10.2816 16.2623C10.2597 16.1233 10.2785 15.9455 10.3473 15.8292C11.6706 13.6213 13.3505 11.7916 15.6623 10.6699C16.6352 10.1979 17.6613 9.96197 18.7249 10.2529C19.1816 10.379 19.6008 10.644 20.0356 10.8509C20.142 10.8994 20.2233 10.9738 20.3266 11.0449ZM13.3818 21.6349C13.6602 21.8774 13.8885 22.0649 14.1044 22.2685C14.2671 22.4204 14.3672 22.3849 14.5079 22.22C15.0397 21.5961 15.5622 20.9561 16.1378 20.3807C16.5695 19.9507 17.0825 19.6081 17.558 19.2299C17.7614 19.4529 17.7426 19.5693 17.5643 19.7083C17.1451 20.0283 16.7322 20.358 16.3317 20.7007C15.6842 21.2535 15.1962 21.9517 14.6706 22.6758C14.9897 22.831 15.2712 22.97 15.5528 23.109C15.7123 23.1898 15.8124 23.151 15.9125 22.9894C16.191 22.5465 16.4631 22.0972 16.7853 21.6899C17.9303 20.2449 19.3443 19.1846 21.0648 18.5866C21.2056 18.5381 21.3526 18.5058 21.4965 18.4637C21.3902 18.4152 21.2932 18.412 21.1962 18.3991C19.8855 18.1987 18.5716 18.0047 17.264 17.7881C16.1878 17.6103 15.118 17.4002 14.0449 17.1965C13.9636 17.1804 13.901 17.0769 13.8291 17.0123C13.9167 16.9864 14.0105 16.9315 14.0919 16.9444C15.1273 17.1254 16.1597 17.3323 17.1951 17.5004C18.7374 17.7526 20.2828 17.9821 21.825 18.2245C22.1941 18.2827 22.5633 18.3506 22.9324 18.412C22.8198 18.2827 22.6947 18.2116 22.5727 18.1308C22.5257 18.1017 22.4444 18.0435 22.4507 18.0176C22.507 17.7978 22.3412 17.8237 22.2286 17.7881C21.0117 17.4293 19.7947 17.0737 18.5778 16.7117C18.4433 16.6729 18.3119 16.6114 18.1649 16.5565C18.2744 16.3043 18.4277 16.3852 18.5747 16.4337C19.8855 16.8604 21.1931 17.2871 22.5038 17.7138C22.5383 17.7235 22.5789 17.7202 22.6102 17.7235C22.6603 17.6426 22.7041 17.5748 22.7103 17.5683C23.0294 17.759 23.3203 17.9336 23.6113 18.1081C23.63 18.0823 23.6488 18.0532 23.6676 18.0273C23.6488 17.9853 23.6363 17.9368 23.6081 17.9013C23.3391 17.578 23.0732 17.2547 22.7979 16.9379C22.6822 16.8022 22.5602 16.5953 22.4194 16.5727C22.1222 16.5274 22.0596 16.2882 21.9814 16.0942C21.8844 15.8518 22.0283 15.6449 22.2379 15.5091C22.4444 15.3766 22.5664 15.5382 22.6884 15.6643C22.751 15.7289 22.7823 15.8195 22.8386 15.8906C23.2609 16.4369 23.6738 16.9864 24.1118 17.5198C24.1775 17.6006 24.3464 17.6168 24.4653 17.62C24.7656 17.6297 25.069 17.5974 25.3725 17.6168C25.5477 17.6265 25.6634 17.5942 25.7698 17.4422C26.0044 17.1028 26.2359 16.7601 26.5081 16.4563C27.0524 15.8453 27.4591 15.1665 27.6123 14.3422C27.6593 14.0965 27.7875 14.0383 28.019 14.1223C28.2255 14.1967 28.3068 14.3228 28.2505 14.5329C28.1973 14.7268 28.1567 14.9305 28.0722 15.1115C27.6061 16.0845 27.0555 16.9929 26.2171 17.6717C26.1483 17.7267 26.0545 17.7461 25.9731 17.7849C26.0044 17.8366 26.0326 17.8851 26.0638 17.9368C26.1577 17.9465 26.2672 17.995 26.3485 17.9659C26.8897 17.7687 27.4246 17.5554 27.9658 17.3517C29.3392 16.8313 30.7125 16.314 32.0889 15.8001C32.1984 15.758 32.3204 15.758 32.4393 15.7386C32.4518 15.7742 32.4674 15.8065 32.48 15.8421C32.3736 15.9067 32.2735 15.994 32.1577 16.036C30.4998 16.6308 28.8386 17.2224 27.1775 17.8172C26.9961 17.8819 26.824 17.9659 26.6457 18.0403C27.6718 17.9594 28.6728 17.8269 29.6739 17.6911C30.8908 17.5295 32.1108 17.3808 33.3246 17.1998C34.3444 17.0446 35.358 16.8474 36.3747 16.6761C36.528 16.6502 36.7313 16.5306 36.8283 16.8539C36.7219 16.9024 36.6187 16.98 36.5029 16.9994C35.2548 17.2127 34.0066 17.4422 32.7521 17.6233C30.6968 17.9174 28.6353 18.176 26.5769 18.4508C26.5675 18.4508 26.5612 18.4831 26.5018 18.593C26.8459 18.5736 27.1368 18.5672 27.4278 18.5413C29.4893 18.3668 31.3444 18.9939 33.0775 20.0962C33.1651 20.1512 33.237 20.2449 33.2933 20.3354C33.3215 20.3807 33.3121 20.4841 33.2808 20.5229C33.2526 20.5552 33.1588 20.5488 33.1056 20.5294C33.0431 20.5067 32.9899 20.455 32.9336 20.4162C31.8637 19.6921 30.7 19.1781 29.4549 18.8937C28.9231 18.7708 28.3663 18.7482 27.8219 18.6803C28.457 19.0327 29.1139 19.2719 29.7239 19.6081C31.3194 20.4906 32.7521 21.6058 34.016 22.9506C34.0879 23.0282 34.2381 23.1284 34.2975 23.0993C34.6854 22.9215 35.0608 22.7114 35.4769 22.4916C35.383 22.4075 35.3517 22.3687 35.3111 22.3429C35.1609 22.2491 34.9951 22.1715 34.8606 22.0584C34.7918 22.0002 34.7824 21.8709 34.748 21.7739C34.8449 21.7739 34.9544 21.7416 35.0326 21.7804C35.236 21.8806 35.4206 22.0196 35.6208 22.1263C35.6865 22.1618 35.8085 22.1812 35.8491 22.1457C36.1713 21.858 36.4842 21.5541 36.8252 21.2276C36.6281 21.0789 36.4904 20.969 36.3465 20.8688C35.1171 19.9992 33.8095 19.2848 32.4143 18.7417C32.2798 18.69 32.1577 18.606 32.0295 18.5348C32.042 18.4993 32.0545 18.467 32.067 18.4314C32.1734 18.4443 32.2891 18.4379 32.3892 18.4767C32.9492 18.6932 33.5311 18.871 34.0597 19.1555C34.9888 19.6566 35.8867 20.2223 36.797 20.7621C36.9034 20.8235 36.9972 20.9496 37.1192 20.7783C37.31 20.51 37.5103 20.2481 37.7042 19.9863C37.6635 19.9281 37.6448 19.8893 37.6166 19.8634C37.5322 19.7923 37.4539 19.7115 37.357 19.663C36.5467 19.2557 35.7334 18.8516 34.92 18.4573C34.7824 18.3894 34.6322 18.3635 34.7198 18.1114C35.8616 18.3764 36.8909 18.9098 37.9075 19.5531C38.0452 19.2816 38.1672 19.0327 38.308 18.7579C37.9482 18.606 37.6104 18.4734 37.2819 18.315C37.2037 18.2762 37.163 18.1502 37.1067 18.0629C37.2068 18.0209 37.3038 17.9497 37.407 17.9465C37.4946 17.9433 37.5853 18.0209 37.6729 18.0629C37.9263 18.1922 38.1797 18.3215 38.4894 18.4767C38.674 17.8689 38.8273 17.2935 39.0275 16.7375C39.2027 16.2494 39.1213 15.8389 38.821 15.438C38.4706 14.966 38.1422 14.4779 37.7918 13.9801C37.4852 14.2484 37.2256 14.4779 36.9628 14.701C36.8439 14.8012 36.7125 14.9014 36.5812 14.7365C36.4435 14.562 36.6187 14.4909 36.7157 14.4036C36.9816 14.1676 37.2506 13.9413 37.5321 13.6956C37.407 13.5502 37.2975 13.4435 37.2131 13.3239C37.0629 13.1105 36.944 13.1558 36.7626 13.311C36.2808 13.7247 35.774 14.1126 35.2798 14.5135C35.0608 14.6913 34.9169 14.6363 34.8324 14.4133C35.4581 13.8928 36.065 13.3853 36.7063 12.8519C36.5248 12.6838 36.3966 12.5642 36.2558 12.4381C35.2454 13.4597 34.1849 14.3583 32.8835 14.9305C32.8898 14.7947 32.9242 14.6719 33.0024 14.6137C33.3371 14.3648 33.6875 14.1385 34.0253 13.8928C34.7136 13.3982 35.3486 12.8455 35.9117 12.1601C35.7365 12.0276 35.5613 11.9145 35.4143 11.7722C35.2078 11.575 35.0452 11.6203 34.87 11.8143C34.6979 12.0082 34.5102 12.1892 34.3225 12.367C32.8428 13.7732 31.2255 14.9951 29.5832 16.1847C29.0545 16.5662 28.4789 16.8798 27.9158 17.2127C27.8188 17.2709 27.6874 17.2677 27.5717 17.2935C27.5654 17.2644 27.5592 17.2353 27.5498 17.203C30.1713 15.5576 32.5644 13.618 34.8074 11.3746C34.5008 11.2195 34.2693 11.1063 34.0472 10.9835C33.8752 10.8865 33.7719 10.9156 33.628 11.0772C32.9398 11.8563 32.2328 12.6192 31.5196 13.3756C31.4289 13.4693 31.2599 13.4855 31.1285 13.5372C31.1786 13.3982 31.1974 13.2301 31.2881 13.1267C31.7104 12.645 32.1577 12.186 32.5863 11.7108C32.8522 11.4166 33.0962 11.1031 33.3528 10.7992C33.3465 10.7604 33.3371 10.7249 33.3309 10.6861C32.8272 10.6311 32.3267 10.5794 31.823 10.5244C31.6259 10.505 31.529 10.602 31.4601 10.7927C31.2537 11.3617 31.0378 11.9306 30.8032 12.4866C30.1744 13.9801 29.3736 15.3572 28.1535 16.4272C27.922 16.6308 27.6687 16.8086 27.4246 16.9961C27.3871 16.9573 27.3527 16.9153 27.3152 16.8765C27.6374 16.3722 28.1567 16.0425 28.5102 15.5673C28.8824 15.0695 29.2735 14.5846 29.5957 14.0545C29.9116 13.5308 30.1682 12.9651 30.4153 12.4026C30.6656 11.8369 30.8752 11.2518 31.1285 10.6117C29.9554 10.9091 29.0576 11.4425 28.629 12.603C28.579 12.7355 28.5352 12.8713 28.482 13.0006C28.4069 13.1784 28.2881 13.2883 28.0878 13.214C27.9033 13.1461 27.8313 12.9974 27.8908 12.8002C27.9314 12.6644 27.9658 12.5222 28.0378 12.4058C28.2818 12.0017 28.5508 11.6138 28.7917 11.2098C28.8668 11.0805 28.945 10.9091 28.9262 10.7734C28.8543 10.2723 28.7917 9.76155 28.6384 9.28635C28.0722 7.49549 27.0023 6.06021 25.5946 4.89C24.8438 4.26611 25.0033 4.28551 24.3057 4.93526C23.3641 5.8113 22.5257 6.77138 22.1535 8.07412C21.8782 9.03744 21.7562 10.0169 21.7155 11.0158C21.7093 11.1386 21.6874 11.2615 21.6717 11.394C21.3464 11.3261 21.3839 11.0901 21.3964 10.9027C21.4402 10.2594 21.5028 9.61608 21.5622 8.94046C21.5184 9.03098 21.4746 9.09886 21.4559 9.17321C21.2713 9.87792 21.0899 10.5826 20.9053 11.2841C20.824 11.5944 20.8302 11.8692 21.0742 12.1181C21.1712 12.2183 21.2181 12.38 21.265 12.5254C21.3276 12.7258 21.2369 12.8552 21.0461 12.9166C20.8333 12.9845 20.752 12.8745 20.6832 12.6838C20.3923 11.8627 19.7728 11.3875 19.0127 10.9996C19.0221 11.0901 19.0189 11.1192 19.0314 11.1451C19.5163 12.2345 19.9543 13.3465 20.5017 14.3971C20.8834 15.1309 21.4183 15.7807 21.8813 16.4692C21.9595 16.5888 22.019 16.7214 22.0878 16.8474C22.5789 17.1448 22.629 17.2159 22.4225 17.5166C19.3818 16.2946 16.5976 14.6557 14.2952 12.186C13.9793 12.4543 13.6883 12.7 13.3724 12.9683C13.5569 13.1364 13.6977 13.2786 13.8541 13.4015C14.4516 13.8637 15.0554 14.3195 15.6498 14.785C15.7686 14.8788 15.8625 15.0081 15.9657 15.1212C15.9376 15.1535 15.9094 15.1891 15.8781 15.2214C14.8208 14.798 14.0012 13.9963 13.0877 13.2883C12.8531 13.5502 12.6247 13.8055 12.3682 14.0965C13.0595 14.5006 13.7446 14.9046 14.4235 15.3022C14.3202 15.5447 14.1857 15.5027 14.0418 15.4251C13.4756 15.118 12.9063 14.8206 12.3494 14.4973C12.1523 14.3842 12.0272 14.3712 11.8896 14.5846C11.68 14.9046 11.4641 15.2214 11.2138 15.5059C10.8791 15.8938 10.7978 16.2979 10.9761 16.786C11.12 17.1868 11.2201 17.6039 11.3515 18.0629C11.5173 17.9207 11.6111 17.814 11.73 17.7493C11.827 17.6976 11.949 17.6976 12.0585 17.675C12.0178 17.7849 11.9865 17.898 11.9334 17.9982C11.9021 18.0564 11.8364 18.0952 11.7832 18.1437C11.4547 18.4346 11.4547 18.4346 11.7206 18.8646C12.0522 18.6545 12.3838 18.4476 12.7154 18.2342C12.9438 18.0855 13.0939 18.1211 13.144 18.4088C12.7686 18.6383 12.3932 18.8581 12.0303 19.0973C11.9615 19.1426 11.8833 19.2848 11.9052 19.3462C12.0147 19.6242 12.1555 19.8893 12.2962 20.1835C12.4151 20.1091 12.4996 20.0606 12.5809 20.0057C13.241 19.5661 13.8979 19.12 14.5642 18.69C14.6487 18.6351 14.7895 18.6771 14.9021 18.6738C14.852 18.7741 14.8239 18.9066 14.7457 18.968C14.4391 19.204 14.1169 19.4174 13.7978 19.6372C13.3849 19.9216 12.9688 20.2029 12.534 20.497C12.7498 20.7977 12.9375 21.0627 13.1471 21.3537C13.3755 21.1759 13.5663 21.0207 13.7634 20.8753C14.5642 20.2902 15.3682 19.7083 16.1753 19.1296C16.2879 19.0488 16.4099 18.9809 16.5382 18.9292C16.5976 18.9066 16.679 18.9454 16.7509 18.9551C16.7322 19.0359 16.729 19.1296 16.6884 19.1943C16.6477 19.2557 16.5632 19.2913 16.4975 19.3365C16.0314 19.6566 15.5559 19.9637 15.1023 20.2999C14.5423 20.7136 13.9949 21.1565 13.3818 21.6349ZM21.118 29.6389C21.1399 29.6195 21.1649 29.6001 21.1868 29.5807C20.9553 28.876 21.1837 28.2618 21.5403 27.6831C21.8219 27.2209 21.9814 27.2403 22.2129 27.7252C22.2254 27.751 22.2223 27.7801 22.2254 27.8157C21.6967 28.1745 21.6029 28.7079 21.6436 29.3091C21.653 29.4643 21.5685 29.6259 21.5278 29.7876C21.5059 29.8781 21.4402 29.9977 21.4715 30.0526C21.7093 30.4535 22.0252 30.78 22.4444 31.1065C22.3318 30.7573 22.2192 30.4955 22.166 30.2207C22.1066 29.9169 22.0784 29.6001 22.0784 29.2865C22.0784 29.0893 22.2004 28.9406 22.4225 28.9535C22.6603 28.9665 22.5914 29.1572 22.5914 29.2962C22.5914 29.8005 22.6321 30.2983 22.9762 30.6959C23.1389 30.8866 23.1764 31.0741 23.0795 31.3069C23.0513 31.378 23.045 31.5267 23.0826 31.5493C23.508 31.8209 23.946 32.073 24.3777 32.3316C24.3996 32.3058 24.4215 32.2799 24.4434 32.254C24.409 32.1409 24.3777 32.0278 24.3433 31.9146C24.1931 31.433 24.0336 30.9513 23.8928 30.4664C23.677 29.71 23.6863 28.9438 23.8678 28.1777C23.9053 28.0193 23.9522 27.8318 24.165 27.8803C24.3808 27.9256 24.4684 28.0904 24.4309 28.3167C24.4184 28.3975 24.3808 28.4719 24.3746 28.5527C24.3495 29.0053 24.2619 29.4675 24.3308 29.9039C24.4246 30.4987 24.6436 31.0741 24.8125 31.656C24.8157 31.6657 24.8438 31.6689 24.8782 31.6851C24.8907 31.6398 24.9126 31.5946 24.9158 31.5493C24.9815 30.7412 25.0471 29.9363 25.1097 29.1281C25.1254 28.9374 25.1066 28.7402 25.1441 28.5527C25.1598 28.4687 25.2724 28.3394 25.3381 28.3458C25.4351 28.3523 25.5539 28.4331 25.6102 28.5204C25.6634 28.6044 25.6665 28.737 25.6634 28.8436C25.6228 29.6033 25.5915 30.363 25.5195 31.1194C25.482 31.5138 25.3725 31.9017 25.288 32.3316C25.4851 32.2217 25.6478 32.1053 25.8261 32.031C26.9585 31.5558 27.2025 30.1787 27.1149 29.3059C27.0962 29.1249 27.0868 28.9762 27.3058 28.9438C27.5154 28.9115 27.6061 29.0538 27.6092 29.2283C27.6186 29.5613 27.6061 29.8942 27.5811 30.2272C27.5654 30.4179 27.5122 30.6054 27.4747 30.7961C27.8501 30.447 27.9909 30.0074 28.0315 29.5257C28.0753 28.9988 27.9815 28.501 27.7406 28.0226C27.6874 27.9191 27.7813 27.7413 27.8063 27.5959C27.9314 27.6443 28.1066 27.6573 28.1661 27.751C28.2912 27.9482 28.3913 28.181 28.4413 28.4137C28.5133 28.7499 28.5352 29.0958 28.579 29.4384C28.6071 29.4417 28.6353 29.4481 28.6634 29.4514C28.7135 29.2542 28.8042 29.057 28.8074 28.8598C28.8136 28.2262 28.6228 27.667 28.1661 27.2144C27.8094 26.8588 27.8219 26.82 28.263 26.5097C28.7542 26.959 29.1014 27.4989 29.2516 28.1777C29.4236 27.6605 29.6363 27.1465 28.9888 26.7715C29.3642 26.5065 29.3047 26.2091 29.1483 25.8923C29.0983 25.8955 29.0576 25.9084 29.0232 25.902C28.8793 25.8761 28.6885 25.8923 28.604 25.8018C28.5446 25.7371 28.6384 25.5302 28.6353 25.388C28.6322 25.2748 28.6228 25.1229 28.554 25.0518C28.0159 24.4893 27.3089 24.3438 26.58 24.1984C26.7458 24.9354 26.971 25.5755 27.775 25.7274C27.8345 25.7403 27.922 25.9117 27.9033 25.9828C27.8751 26.0895 27.7781 26.2091 27.678 26.2511C27.5967 26.2899 27.4622 26.2479 27.3683 26.2091C26.7145 25.9343 26.2953 25.4494 26.1483 24.7221C26.1076 24.5249 26.0795 24.2921 25.9575 24.1564C25.7166 23.8881 25.5571 23.6133 25.5539 23.2448C25.5539 23.1963 25.482 23.1122 25.4382 23.109C25.3694 23.1025 25.2786 23.1316 25.2348 23.1801C25.1973 23.2221 25.2036 23.3126 25.2004 23.3838C25.1848 23.7393 25.1785 24.0949 25.1504 24.4473C25.1316 24.6639 25.0346 24.8643 24.7938 24.8481C24.5654 24.832 24.5904 24.6057 24.5967 24.4376C24.6092 24.1434 24.6436 23.8525 24.6749 23.5583C24.7312 23.0476 24.7343 23.0476 24.2713 22.8795C24.2275 23.0217 24.1837 23.1607 24.1337 23.3256C24.2463 23.3256 24.3276 23.3256 24.4403 23.3256C24.4058 23.4452 24.3902 23.5486 24.3464 23.6327C24.0461 24.2016 23.7583 24.777 23.4204 25.3201C23.289 25.5302 23.0544 25.6789 22.8448 25.8276C22.6822 25.944 22.5383 25.8535 22.4569 25.6918C22.3787 25.5302 22.3975 25.4203 22.5789 25.3007C22.7948 25.1585 23.0044 24.958 23.1326 24.7318C23.3641 24.3212 23.5331 23.8751 23.7208 23.4419C23.7458 23.387 23.7427 23.3191 23.7583 23.2286C23.5643 23.2868 23.4079 23.3353 23.2484 23.3805C22.4819 23.6003 21.4465 23.1639 21.3777 22.1069C21.3589 21.7998 21.4308 21.4862 21.4465 21.1727C21.4527 21.0757 21.4121 20.9755 21.3933 20.8785C21.3057 20.927 21.19 20.9528 21.1337 21.0272C20.8146 21.4507 20.4986 21.8806 20.2046 22.3235C20.1295 22.4366 20.0794 22.6144 20.1013 22.7502C20.142 22.9991 20.0732 23.1639 19.8823 23.2965C19.6634 23.4484 19.4444 23.6036 19.2285 23.762C19.0314 23.9074 18.825 24.0432 18.6435 24.2048C18.2462 24.5637 17.8615 24.9354 17.4798 25.2975C17.289 25.1649 17.289 25.055 17.4204 24.9063C17.7019 24.5863 17.971 24.2533 18.2337 23.9365C18.0398 23.998 17.6957 23.998 17.558 24.1693C16.8072 25.1035 16.1659 26.1121 15.9782 27.3502C15.9657 27.4407 15.9907 27.5377 16.0001 27.6314C16.0909 27.5926 16.2035 27.5765 16.266 27.5086C16.5413 27.2209 16.7978 26.9105 17.0763 26.6228C17.1357 26.5582 17.2452 26.5485 17.3328 26.5097C17.314 26.6099 17.3265 26.736 17.2702 26.8039C17.0512 27.0819 16.8135 27.3437 16.5413 27.6573C17.777 27.5797 18.8594 27.2306 19.8417 26.5679C19.9011 26.5259 19.9355 26.4256 19.9605 26.3448C20.3923 24.8999 21.3683 24.0691 22.7572 23.7103C22.9449 23.6618 23.1608 23.6424 23.2108 23.8977C23.2609 24.1499 23.0607 24.2372 22.8699 24.3115C22.4788 24.4699 22.0909 24.6315 21.703 24.7899C21.5278 24.8611 21.459 24.9677 21.4809 25.1843C21.5059 25.4268 21.4089 25.6175 21.1086 25.6078C21.0367 25.6046 20.9334 25.6918 20.8928 25.763C20.7802 25.9537 20.6801 26.1509 20.5987 26.3578C20.436 26.7812 20.3453 27.2176 20.4141 27.6896C20.7489 27.0657 21.1243 26.4838 21.6561 26.0313C21.9877 26.3254 21.9939 26.4321 21.7499 26.736C21.5091 27.0301 21.2338 27.3081 21.0586 27.6411C20.7583 28.2068 20.6175 28.8178 20.9491 29.4384C20.9898 29.5257 21.0617 29.5774 21.118 29.6389ZM12.3932 37.3583C12.5903 37.5685 12.6278 37.7333 12.3901 37.9014C12.1367 38.0824 11.8927 38.2764 11.6205 38.48C11.6831 38.5091 11.705 38.5285 11.73 38.5318C13.4224 38.7839 15.118 39.0134 16.8354 38.8809C17.7207 38.813 18.5966 38.6611 19.3881 38.2117C20.4642 37.6008 21.19 36.6956 21.3339 35.4058C21.4402 34.4522 21.1837 33.5503 20.7395 32.7163C20.5643 32.3866 20.3234 32.0924 20.1138 31.7853C19.704 32.0956 19.5069 32.073 19.4162 31.7562C19.2598 31.2261 18.8844 31.003 18.3589 31.1323C17.8271 31.2649 17.3922 31.5687 17.0106 31.9599C16.8823 32.0892 16.7572 32.2605 16.5132 32.1247C16.6446 31.6075 17.0606 31.3489 17.4235 31.0321C17.2452 31.0257 17.0763 31.0353 16.923 31.0871C16.3943 31.2584 15.9282 31.5558 15.5935 32.0051C15.0773 32.7066 14.5768 33.4242 14.1232 34.1677C13.3567 35.422 12.6435 36.7086 11.6925 37.8271C11.6143 37.9176 11.5486 38.0178 11.4766 38.1148C11.4891 38.1245 11.5017 38.1342 11.5142 38.1471C11.7988 37.8949 12.0866 37.6363 12.3932 37.3583ZM30.7688 4.22732C30.409 5.13891 30.6656 6.38347 31.3506 6.9718C31.8355 7.38558 32.3986 7.55044 32.993 7.23041C35.2923 5.99879 36.9096 4.09478 38.0421 1.71558C38.0546 1.68649 38.0452 1.64446 38.0452 1.58628C37.3789 1.74467 36.7595 1.95156 36.1932 2.31038C36.1025 2.36857 36.0087 2.45908 35.9117 2.46555C35.7959 2.47201 35.6427 2.43969 35.5676 2.35887C35.5269 2.31685 35.5957 2.13259 35.6489 2.03238C35.6896 1.96126 35.7866 1.92247 35.8616 1.87398C36.5186 1.44727 37.2381 1.1919 37.992 1.0238C38.1828 0.981779 38.3299 0.917127 38.2767 0.674681C38.2391 0.658518 38.2141 0.642355 38.186 0.63589C38.139 0.626192 38.089 0.616494 38.0389 0.613262C36.6969 0.506585 35.3736 0.613262 34.0723 0.99471C32.7865 1.37292 31.7761 2.11643 31.1004 3.32219C31.0191 3.46442 30.9534 3.61636 30.8814 3.76182C30.9972 3.72303 31.0472 3.64222 31.1129 3.57433C31.4007 3.25754 31.6854 2.93428 31.9888 2.63688C32.0483 2.57546 32.1953 2.60778 32.3016 2.59808C32.2829 2.70476 32.3016 2.84376 32.2422 2.91488C31.8449 3.39977 31.432 3.87173 31.0065 4.36632C30.969 4.34693 30.8783 4.29197 30.7688 4.22732ZM39.7282 3.07004C39.6969 3.03125 39.6688 2.99246 39.6375 2.95367C39.212 3.05388 38.7866 3.15086 38.3611 3.2543C37.9044 3.36421 37.6104 3.68424 37.3445 4.06569C36.4591 5.3361 35.4049 6.44166 34.1223 7.2886C33.7 7.5666 33.2339 7.77672 32.7396 8.04503C32.9523 8.23899 33.1463 8.45557 33.3747 8.62043C34.5071 9.43505 36.1494 9.3801 37.3757 8.54608C38.6896 7.65388 39.334 6.34468 39.6563 4.81565C39.7157 4.52795 39.7564 4.23702 39.8033 3.94608C39.6031 4.27581 39.456 4.61523 39.2871 4.94496C39.2089 5.09689 39.1589 5.39429 38.9242 5.26822C38.6802 5.13568 38.9086 4.93526 38.9774 4.77686C39.2214 4.20146 39.4748 3.63575 39.7282 3.07004ZM22.0002 17.0705C21.6811 16.8022 21.3745 16.5242 21.0461 16.2688C19.9042 15.3863 18.7812 14.4812 17.7801 13.4241C17.6049 13.2398 17.5893 13.0944 17.7801 12.9554C18.7874 13.8831 19.7791 14.7947 20.7708 15.7063C20.6801 15.4283 20.5236 15.2053 20.4141 14.9628C19.8323 13.6762 19.2661 12.3832 18.6873 11.0998C18.6342 10.9867 18.5372 10.8348 18.4371 10.8121C17.705 10.644 17.0043 10.8024 16.2786 11.0837C16.3849 11.2195 16.4662 11.3261 16.5538 11.4328C16.8823 11.8369 17.2139 12.2377 17.5361 12.6483C17.583 12.7065 17.6018 12.8099 17.5893 12.8842C17.583 12.923 17.4736 12.9812 17.4266 12.9683C17.3578 12.9489 17.2952 12.881 17.2452 12.8228C16.8416 12.3509 16.4443 11.8757 16.0377 11.4069C15.9751 11.3358 15.8375 11.2453 15.7874 11.2712C15.3995 11.4748 15.0241 11.7043 14.6268 11.9371C16.7103 14.2872 19.3036 15.7451 22.0002 17.0705ZM32.9461 27.6961C32.9648 27.667 32.9836 27.6379 33.0055 27.6088C32.8178 27.4342 32.6239 27.2629 32.4487 27.0754C32.4018 27.0269 32.4111 26.9202 32.3955 26.8394C32.4737 26.8556 32.5738 26.8491 32.627 26.8976C32.8366 27.0786 33.0305 27.2855 33.237 27.4698C33.3402 27.5635 33.4654 27.6282 33.6093 27.7284C33.628 27.6217 33.6437 27.5797 33.6406 27.5441C33.6343 27.4536 33.628 27.3631 33.6093 27.2726C33.3747 26.0151 32.7115 25.0389 31.7511 24.263C31.5853 24.1273 31.3475 24.0852 31.1411 24.0012C31.1285 24.0303 31.116 24.0561 31.1035 24.0852C31.4914 24.4117 31.8793 24.7415 32.2641 25.068C32.1233 25.2748 31.9888 25.2522 31.8543 25.1455C31.676 25.0033 31.4977 24.8611 31.3288 24.7059C30.8282 24.2501 30.3308 23.7975 29.6739 23.5777C29.2797 23.4452 28.995 23.1381 28.798 22.7566C28.7291 22.6241 28.6728 22.4851 28.6384 22.414C28.3506 22.6726 28.0847 22.97 27.7656 23.1866C27.3934 23.4355 26.9648 23.4193 26.5456 23.2577C26.3704 23.1898 26.1952 23.2092 26.1483 23.4161C26.1358 23.4646 26.3204 23.6003 26.433 23.6327C26.6676 23.6973 26.9116 23.7361 27.1556 23.7587C28.5352 23.8977 29.7677 25.2942 29.9148 26.4774C29.9273 26.5873 30.0211 26.7133 30.115 26.778C30.9753 27.3631 31.9419 27.5959 32.9461 27.6961ZM33.7751 23.2609C33.6218 23.0896 33.5217 22.9668 33.4122 22.8568C32.3642 21.8062 31.2067 20.8947 29.9523 20.1318C29.4268 19.8117 28.8355 19.5984 28.2662 19.3656C27.922 19.2266 27.556 19.1458 27.1994 19.0391C27.0274 18.9874 26.8522 18.9389 26.6801 18.8904C26.6613 18.9228 26.6426 18.9551 26.6238 18.9842C26.7364 19.0973 26.8365 19.2363 26.971 19.3107C27.1681 19.4238 27.384 19.4917 27.5967 19.5725C27.8908 19.6857 27.994 19.9313 27.8814 20.2546C27.7938 20.5067 27.5904 20.5811 27.3026 20.4712C27.2244 20.4421 27.1525 20.4033 27.0367 20.3483C27.4309 21.1888 27.5685 21.9905 27.0743 22.8181C27.2119 22.8148 27.3245 22.8051 27.4215 22.7566C28.0534 22.4334 28.31 21.6705 28.0065 21.0078C27.9095 20.7944 27.8689 20.5682 28.0785 20.4421C28.2067 20.3645 28.4226 20.3483 28.5665 20.4001C28.7855 20.4809 28.8418 20.7007 28.7855 20.9334C28.7604 21.0401 28.6916 21.15 28.7041 21.2535C28.7166 21.3892 28.7542 21.5897 28.8418 21.6382C29.1953 21.8353 29.3548 22.1457 29.458 22.5207C29.4956 22.65 29.555 22.8051 29.6551 22.8795C30.2088 23.3094 30.8595 23.4129 31.5821 23.4581C31.5164 23.3223 31.4883 23.2254 31.432 23.1478C30.9158 22.4463 30.4215 21.7254 29.8678 21.0595C29.5206 20.6393 29.0764 20.3031 28.6853 19.9152C28.5915 19.8214 28.5477 19.6792 28.4789 19.5596C28.5039 19.5434 28.5321 19.5273 28.5571 19.5111C28.6259 19.5467 28.6947 19.5822 28.7636 19.621C28.8386 19.6663 28.9168 19.7148 28.9857 19.7665C30.2339 20.7266 31.238 21.9 31.9482 23.3385C31.9826 23.4096 32.067 23.5131 32.1233 23.5098C32.652 23.4904 33.1932 23.4937 33.7751 23.2609ZM17.8177 23.3482C17.8333 23.3838 17.8521 23.4161 17.8677 23.4516C18.2681 23.3644 18.6748 23.2997 19.0659 23.1866C19.3255 23.1122 19.4788 22.928 19.4882 22.6047C19.4944 22.4075 19.607 22.2006 19.7165 22.0261C20.0262 21.5444 20.361 21.0821 20.6832 20.6102C20.9428 20.2255 21.1055 19.7277 21.7593 19.7923C21.6029 19.621 21.5059 19.5143 21.3683 19.3656C22.0158 19.1103 22.629 18.8678 23.239 18.6286C23.1483 18.593 23.0607 18.5898 22.9762 18.593C21.8751 18.6157 20.8459 18.9034 19.8949 19.4788C18.4652 20.3419 17.2327 21.4183 16.3974 22.9247C16.3317 23.0411 16.2785 23.1672 16.2066 23.3126C16.3849 23.3482 16.5163 23.3805 16.6508 23.3967C16.826 23.4161 17.0043 23.4387 17.1795 23.429C17.2577 23.4226 17.3641 23.3547 17.4016 23.2836C18.1399 21.858 19.2536 20.7783 20.436 19.76C20.6363 19.5887 20.7927 19.5984 20.9553 19.8214C19.7384 20.8397 18.5747 21.9065 17.8177 23.3482ZM13.8792 47.1337C13.8948 47.1661 13.9073 47.1984 13.9229 47.2307C14.2921 47.0594 14.6831 46.9172 15.0304 46.707C15.6498 46.3321 15.9219 45.637 15.8124 44.9065C15.7968 44.8095 15.8594 44.6608 15.9344 44.5929C16.3974 44.1565 16.8917 43.746 17.3484 43.3031C18.9658 41.7321 20.2202 39.8927 21.0461 37.7559C21.0867 37.6557 21.1118 37.5491 21.143 37.4456C21.1055 37.4262 21.0648 37.4068 21.0273 37.3907C20.6738 37.9822 20.289 38.5544 19.9762 39.1654C19.0721 40.9304 17.8677 42.4368 16.435 43.7654C16.2942 43.8947 16.1784 44.0531 16.0877 44.1533C15.9751 44.1856 15.8844 44.1856 15.8218 44.2309C15.7123 44.3149 15.6154 44.4184 15.5184 44.5186C15.3807 44.6673 15.2462 44.7028 15.0929 44.5347C14.9365 44.3602 14.9772 44.2082 15.1273 44.0595C15.2024 43.9884 15.2806 43.9173 15.3682 43.8365C14.9052 43.6328 14.436 43.7621 14.0575 44.2147C13.4193 44.9744 13.3724 45.9215 13.2723 46.9366C13.413 46.8331 13.4975 46.7879 13.5663 46.7232C13.7759 46.5228 13.973 46.3094 14.192 46.1219C14.2639 46.0605 14.3922 46.0637 14.4923 46.0411C14.5142 46.1607 14.5799 46.2933 14.5486 46.3935C14.5111 46.5196 14.4016 46.6327 14.3077 46.7329C14.1763 46.8719 14.0231 47.0012 13.8792 47.1337ZM24.9815 20.691C25.6697 20.691 26.142 20.1932 26.142 19.4594C26.142 18.7029 25.7103 18.2245 25.0221 18.2181C24.3308 18.2116 23.7958 18.7385 23.799 19.4141C23.8052 20.2126 24.2494 20.691 24.9815 20.691ZM21.556 31.0612C21.3589 31.3327 21.1556 31.6108 20.9366 31.9082C21.4215 32.6549 21.6936 33.5245 21.8563 34.4393C22.0346 33.6247 22.1816 32.8197 22.3161 32.0116C22.3318 31.9211 22.2943 31.7918 22.2317 31.7239C22.0158 31.4944 21.7812 31.281 21.556 31.0612ZM29.5237 10.4566C29.5644 10.4889 29.6051 10.518 29.6426 10.5503C30.5185 9.82297 31.0128 8.78853 31.6635 7.85754C31.4852 7.73793 31.3506 7.64742 31.238 7.57307C30.6593 8.54932 30.0899 9.50294 29.5237 10.4566ZM22.8542 20.4259C22.4194 20.7072 22.1285 21.0531 21.9846 21.5121C21.7718 22.1877 22.2067 22.8342 22.9043 22.873C22.5195 22.0746 22.6884 21.2696 22.8542 20.4259ZM25.3694 21.7966C25.3631 21.7545 25.3819 21.6058 25.3193 21.525C25.2223 21.3989 25.0753 21.2567 24.9377 21.2373C24.7531 21.2147 24.628 21.3698 24.6123 21.5864C24.5998 21.7965 24.5685 22.0067 24.5497 22.22C24.5341 22.3881 24.5967 22.4786 24.7781 22.4883C25.2567 22.5207 25.3506 22.4301 25.3694 21.7966ZM21.8031 20.4712C22.2129 20.2126 22.629 19.9346 23.0607 19.6824C23.2797 19.5564 23.3547 19.3883 23.336 19.0973C23.0169 19.2137 22.7197 19.3107 22.4319 19.4238C21.9564 19.6145 21.6404 19.9119 21.8031 20.4712ZM25.9825 22.692C26.483 22.6209 26.7427 22.3526 26.824 21.8968C26.9116 21.3989 26.6926 20.6845 26.3704 20.5067C26.4862 21.2729 26.3954 21.9905 25.9825 22.692ZM23.9648 22.5853C23.4361 21.9873 23.4486 21.302 23.6425 20.5876C23.2359 20.9852 23.0669 21.8256 23.2453 22.3526C23.386 22.776 23.5268 22.8278 23.9648 22.5853ZM20.9147 30.3177C20.4579 30.6959 20.239 31.1808 20.0106 31.7368C20.5893 31.5655 21.0992 30.7509 20.9147 30.3177ZM39.5749 2.41382C39.5749 2.3912 39.5781 2.3718 39.5781 2.34917C39.5249 2.33301 39.4748 2.30715 39.4216 2.29745C39.2402 2.27159 39.0556 2.2425 38.8711 2.22957C38.4143 2.19401 38.4081 2.20047 38.2485 2.6692C38.6896 2.58515 39.1307 2.49787 39.5749 2.41382ZM22.6196 18.0758C22.9731 18.2148 23.264 18.328 23.555 18.4411C23.5643 18.4152 23.5737 18.3861 23.5831 18.3603C23.3203 18.0823 22.8886 17.9271 22.6196 18.0758Z" fill="#FFEB61"/>
<path d="M9.08974 24.2147C8.96774 24.1242 8.88953 24.0886 8.84886 24.0272C8.80194 23.9496 8.78317 23.8526 8.75814 23.7621C8.53603 22.9798 8.07617 22.4303 7.31287 22.1749C7.15333 22.1232 7.00317 22.0715 7.00004 21.8549C6.99691 21.6351 7.16584 21.6221 7.30974 21.5704C8.0793 21.286 8.61424 20.7655 8.82071 19.9283C8.85825 19.7763 8.92081 19.6309 9.09913 19.6341C9.27744 19.6373 9.33375 19.7731 9.36816 19.9347C9.5496 20.7784 10.072 21.2989 10.851 21.5575C11.0136 21.6124 11.1294 21.69 11.1356 21.8775C11.1419 22.0715 10.9886 22.0941 10.8572 22.1361C10.0251 22.3915 9.54334 22.9895 9.30559 23.8268C9.27118 23.9529 9.17733 24.0628 9.08974 24.2147ZM9.04282 22.8247C9.3619 22.4982 9.70601 22.1458 10.0595 21.787C9.64345 21.5769 9.31185 21.2439 9.12728 20.8366C8.78943 21.1922 8.45783 21.5413 8.15751 21.8581C8.45157 22.1749 8.75501 22.5111 9.04282 22.8247Z" fill="#FFEB61"/>
<path d="M41.026 10.9932C40.9978 11.019 40.9384 11.1128 40.8602 11.1386C40.1219 11.3746 39.6402 11.8498 39.4744 12.6515C39.4556 12.7388 39.3211 12.8487 39.2303 12.8616C39.1615 12.8713 39.0427 12.7582 39.002 12.6741C38.8956 12.4543 38.8456 12.2054 38.7298 11.9953C38.514 11.5977 38.1824 11.3294 37.7444 11.2194C37.5849 11.1807 37.4378 11.1225 37.441 10.9123C37.4441 10.7152 37.5849 10.6731 37.7288 10.6149C38.3325 10.3757 38.7705 9.96843 38.93 9.29281C38.9394 9.24756 38.9457 9.1926 38.9738 9.16351C39.052 9.08916 39.1396 8.97925 39.2272 8.97925C39.3086 8.97925 39.4212 9.07946 39.4681 9.16674C39.5369 9.28958 39.5432 9.45121 39.6026 9.58051C39.8497 10.1171 40.2533 10.4727 40.8101 10.6376C41.0072 10.6861 41.0291 10.7152 41.026 10.9932ZM39.8623 10.922C39.6495 10.6958 39.3993 10.4275 39.2241 10.2432C39.0427 10.4372 38.7893 10.7087 38.5609 10.9544C38.7298 11.1322 38.9832 11.4005 39.1834 11.6106C39.4274 11.3617 39.6871 11.1031 39.8623 10.922Z" fill="#FFEB61"/>
<path d="M11.236 35.9102C11.1797 35.839 11.0953 35.7744 11.0671 35.6936C10.9201 35.2378 10.7105 34.8305 10.3132 34.5589C10.1662 34.4587 9.98784 34.4038 9.84081 34.3003C9.75009 34.2389 9.63747 34.1258 9.63434 34.0352C9.63121 33.948 9.74071 33.8057 9.8283 33.7702C10.4414 33.5374 10.8669 33.1269 11.0765 32.4771C11.1078 32.3802 11.2423 32.2508 11.3174 32.2573C11.405 32.267 11.5238 32.3995 11.5489 32.4998C11.7147 33.1398 12.1338 33.5245 12.7032 33.7572C12.8346 33.809 12.9441 33.8542 12.9409 34.0256C12.9378 34.1872 12.8408 34.2615 12.7095 34.31C12.0744 34.5428 11.6896 35.0115 11.5207 35.6742C11.4832 35.8132 11.4331 35.8908 11.236 35.9102ZM11.846 34.0191C11.7021 33.8542 11.48 33.5988 11.2704 33.3564C11.0515 33.573 10.82 33.8025 10.6542 33.9641C10.8669 34.1936 11.0953 34.4426 11.283 34.643C11.4519 34.4587 11.674 34.213 11.846 34.0191Z" fill="#FFEB61"/>
<path d="M31.7483 30.1786C31.7483 30.6247 31.4386 30.9609 31.0225 30.9641C30.5877 30.9673 30.2529 30.6247 30.2529 30.1818C30.2529 29.7357 30.5814 29.393 31.0037 29.3995C31.4417 29.3995 31.7483 29.7228 31.7483 30.1786ZM31.3541 30.1818C31.3572 29.9781 31.1977 29.81 31.0006 29.81C30.8191 29.81 30.6659 29.9749 30.6596 30.1786C30.6534 30.379 30.8035 30.5438 30.9943 30.5471C31.1914 30.5471 31.351 30.3855 31.3541 30.1818Z" fill="#FFEB61"/>
<path d="M24.6781 37.2744C23.8679 37.2711 23.2266 36.5761 23.2359 35.7033C23.2453 34.8176 23.8585 34.1937 24.7219 34.1904C25.5384 34.1872 26.1859 34.8499 26.189 35.6936C26.1922 36.589 25.5321 37.2776 24.6781 37.2744ZM25.3882 35.6936C25.3882 35.3251 25.0816 35.0277 24.6969 35.0277C24.334 35.0277 24.0399 35.3413 24.043 35.7324C24.043 36.1235 24.3058 36.4048 24.675 36.4112C25.091 36.4177 25.3851 36.1203 25.3882 35.6936Z" fill="#FFEB61"/>
<path d="M19.1815 7.35337C19.0595 7.26285 18.9813 7.22729 18.9407 7.16587C18.8937 7.08829 18.875 6.99131 18.8499 6.9008C18.6278 6.11851 18.168 5.56897 17.4047 5.31359C17.2451 5.26187 17.095 5.21015 17.0918 4.99356C17.0887 4.77374 17.2576 4.76081 17.4015 4.70909C18.1711 4.42462 18.706 3.90417 18.9125 3.06693C18.95 2.91499 19.0126 2.76953 19.1909 2.77276C19.3692 2.77599 19.4255 2.91176 19.46 3.07339C19.6414 3.9171 20.1638 4.43755 20.9428 4.69616C21.1054 4.75112 21.2212 4.8287 21.2274 5.01619C21.2337 5.21015 21.0804 5.23277 20.949 5.2748C20.1169 5.53017 19.6351 6.12821 19.3974 6.96545C19.363 7.09152 19.2691 7.1982 19.1815 7.35337ZM19.1346 5.96334C19.4537 5.63685 19.7978 5.2845 20.1513 4.92568C19.7352 4.71556 19.4036 4.3826 19.2191 3.97529C18.8812 4.33088 18.5496 4.68 18.2493 4.99679C18.5434 5.31359 18.8468 5.64655 19.1346 5.96334Z" fill="#FFEB61"/>
</svg>
