<svg width="48" height="48" viewBox="0 0 48 48" fill="none" xmlns="http://www.w3.org/2000/svg">
<path d="M25.437 19.5559C25.2108 25.0141 24.8989 30.4285 24.288 35.8148C24.5453 35.8649 24.6077 35.7054 24.6571 35.4772C25.5904 31.135 27.4387 27.4525 30.1995 24.4452C31.4993 23.029 32.9915 21.9412 34.5175 20.9189C34.9386 20.6376 35.3597 20.3531 35.7887 20.0967C35.8953 20.0342 36.111 19.9998 36.1552 20.0686C36.2384 20.1937 36.2904 20.425 36.254 20.5782C36.0902 21.2753 35.9161 21.9755 35.7029 22.6508C34.4317 26.6803 32.5288 30.1972 29.7914 33.0138C28.3798 34.4675 26.8356 35.6804 25.0678 36.4307C24.9197 36.4932 24.7689 36.5495 24.6181 36.5995C24.1554 36.7527 24.1684 36.7558 24.0904 37.3247C23.7082 40.0757 23.3235 42.8267 22.931 45.5746C22.8634 46.0404 22.7646 46.4999 22.6528 46.9532C22.5046 47.5565 22.1381 47.8129 21.6805 47.6784C21.2308 47.544 21.0098 47.0939 21.1164 46.4749C21.301 45.4026 21.5272 44.3397 21.6857 43.2644C22.0315 40.8791 22.3876 38.4939 22.6606 36.0993C22.9517 33.5672 23.1987 31.0225 23.3781 28.4747C23.5653 25.8207 23.651 23.1572 23.7758 20.4969C23.794 20.1311 23.7784 19.7654 23.7784 19.3559C23.5575 19.4184 23.3261 19.4653 23.1077 19.5528C22.4604 19.8154 21.8261 19.7716 21.2178 19.4153C20.3521 18.912 19.4864 18.9151 18.5922 19.309C18.3062 19.4371 17.9839 19.484 17.6745 19.4903C17.3678 19.4997 17.1182 19.2777 16.892 19.0276C16.7074 18.8213 16.5099 18.6244 16.2941 18.4712C15.7794 18.0992 15.5194 17.5583 15.548 16.8487C15.561 16.4986 15.4882 16.2141 15.3349 15.9328C14.7213 14.8167 14.9371 13.8758 15.5116 13.1036C15.8262 12.6785 16.2447 12.4628 16.723 12.4503C16.9908 12.444 17.2586 12.4503 17.5991 12.4503C17.269 11.7344 17.074 11.0529 16.5255 10.6528C16.0653 10.3183 15.6624 9.89625 15.366 9.34293C14.8435 8.36758 14.9787 7.32658 15.73 6.58882C16.1381 6.18868 16.6061 5.94797 17.1208 5.80416C17.3184 5.74789 17.5393 5.67287 17.6875 5.51657C18.7949 4.34428 19.827 4.74129 20.6719 5.66037C21.0046 6.02299 21.2906 6.44815 21.6051 6.85454C21.6285 6.36687 21.6337 5.87919 21.6753 5.39152C21.7429 4.60686 21.9275 3.85972 22.3096 3.20637C22.8296 2.3123 23.5367 1.91529 24.4465 2.11536C24.7429 2.18101 25.0288 2.17476 25.281 1.97156C25.8477 1.51827 26.4612 1.55891 27.0799 1.72146C28.3434 2.05283 29.4768 2.70619 30.4673 3.7128C30.5348 3.78157 30.5972 3.8566 30.6622 3.92538C31.1874 4.49433 31.3719 5.19145 31.1666 6.01049C31.0522 6.46065 30.9014 6.90143 30.761 7.34222C30.7038 7.52353 30.6258 7.69546 30.5478 7.89553C30.9664 7.70171 31.3381 7.49539 31.7281 7.35784C32.3494 7.14214 32.9863 7.09838 33.6232 7.3047C34.4187 7.56105 34.8528 8.14563 34.923 9.13035C34.9594 9.63366 35.1102 10.0369 35.4299 10.3652C35.5807 10.5215 35.7185 10.7028 35.8485 10.8872C36.3528 11.6062 36.371 12.3409 35.8589 13.0536C35.6613 13.3318 35.6613 13.5163 35.8147 13.8133C36.189 14.5354 36.3112 15.3294 36.2124 16.1766C36.124 16.9581 35.7939 17.5583 35.2116 17.8835C34.6033 18.2211 33.9559 18.4524 33.3268 18.7431C33.2281 18.79 33.1085 18.8838 33.0695 18.9932C32.6223 20.2968 31.7645 20.8564 30.6518 20.9783C28.8945 21.1753 27.2593 20.7095 25.7281 19.6747C25.6735 19.6372 25.619 19.6059 25.5644 19.5778C25.5228 19.5684 25.489 19.5684 25.437 19.5559ZM26.6562 12.9067C26.3624 12.7222 26.0817 12.4878 25.7723 12.369C25.346 12.2096 24.9015 12.2283 24.4439 12.419C24.5193 12.5941 24.5817 12.7348 24.6519 12.8973C24.8287 12.5659 25.008 12.5284 25.2134 12.791C25.359 12.9786 25.4682 12.9661 25.6112 12.8129C25.658 12.7629 25.7567 12.6941 25.7827 12.716C26.0271 12.9192 26.2845 12.9505 26.5652 12.8598C26.5938 12.8504 26.6302 12.8848 26.664 12.8973C26.8486 13.3162 26.7108 13.6663 26.3209 13.6976C26.1571 13.7101 25.9881 13.6257 25.8217 13.5882C25.7593 13.5757 25.6787 13.5475 25.632 13.5757C25.3356 13.7632 25.0964 13.707 24.9457 13.4288C24.7845 13.4819 24.6363 13.5976 24.5323 13.5538C24.197 13.4194 24.0228 13.1036 24.028 12.5785C23.7758 12.8035 23.5705 12.9911 23.3521 13.188C24.4959 14.2947 26.5288 14.3697 27.3737 13.707C27.1761 13.385 26.989 13.0567 26.6562 12.9067ZM26.8278 12.0189C26.8564 12.0251 26.885 12.0314 26.9136 12.0376C26.9318 12.0157 26.9552 12.0001 26.9682 11.9751C27.5895 10.7153 28.4213 9.6868 29.3676 8.78023C29.4482 8.70208 29.5418 8.62079 29.586 8.51138C29.9109 7.69546 30.2359 6.87955 30.5426 6.05426C30.7922 5.37902 30.6466 4.83194 30.1761 4.3474C29.2168 3.35642 28.1224 2.71869 26.8928 2.39358C26.4664 2.28104 26.0583 2.30605 25.6735 2.57177C25.2316 2.87813 24.7585 2.89376 24.2698 2.80623C23.6484 2.69369 23.1701 2.98442 22.8192 3.5815C22.684 3.80971 22.5644 4.06605 22.4864 4.32864C22.1303 5.5447 22.0471 6.82328 22.3772 8.02683C22.7334 9.32417 23.2845 10.5402 23.7498 11.7938C23.7758 11.7907 23.8044 11.7907 23.8304 11.7875C23.8382 11.6938 23.8616 11.5969 23.8512 11.5062C23.8174 11.2061 23.7524 10.906 23.7342 10.6027C23.7212 10.4183 23.7446 10.162 23.9474 10.1807C24.0566 10.1901 24.1944 10.3902 24.2412 10.5402C24.3191 10.7934 24.3295 11.0748 24.3815 11.3405C24.3971 11.4187 24.4543 11.4843 24.4907 11.5531C24.5167 11.4749 24.5661 11.3968 24.5609 11.3217C24.5427 11.0279 24.4985 10.7372 24.4803 10.4433C24.4491 9.88686 24.4179 9.33042 24.4101 8.77397C24.4075 8.53326 24.5297 8.3707 24.7507 8.40509C24.9535 8.43635 25.0444 8.58015 25.0392 8.84275C25.0262 9.30228 25.0236 9.76495 25.0418 10.2245C25.0574 10.5934 25.1068 10.9591 25.1432 11.328C25.1978 11.2311 25.203 11.1373 25.2108 11.0467C25.268 10.3871 25.3226 9.72744 25.3902 9.07095C25.411 8.87714 25.502 8.73959 25.6943 8.77085C25.8893 8.80211 25.9361 8.96466 25.9257 9.15536C25.9075 9.51173 25.8789 9.86811 25.8425 10.2245C25.8035 10.609 25.7515 10.9935 25.7047 11.378C25.7957 11.1561 25.8321 10.9216 25.8789 10.6903C26.0141 10.0369 26.1441 9.38044 26.3027 8.73646C26.3339 8.60516 26.4742 8.46448 26.586 8.4301C26.6692 8.40509 26.8252 8.51138 26.8798 8.61455C26.9292 8.70833 26.9084 8.88026 26.8798 9.00218C26.7004 9.74932 26.508 10.4933 26.3235 11.2405C26.3001 11.3374 26.2871 11.4374 26.2715 11.5343C26.5314 10.9748 26.7524 10.4183 26.9968 9.87437C27.0462 9.76495 27.1761 9.66804 27.2775 9.65241C27.3503 9.64303 27.4803 9.76183 27.5037 9.85561C27.5323 9.97128 27.5011 10.1276 27.4569 10.2464C27.2775 10.7372 27.0825 11.2186 26.898 11.7094C26.859 11.8063 26.8512 11.9157 26.8278 12.0189ZM26.3313 31.9853C26.7472 31.9853 27.1137 31.9853 27.4829 31.9853C27.6415 31.9853 27.7818 32.026 27.8234 32.2479C27.8754 32.5168 27.7714 32.6918 27.5141 32.7012C27.1215 32.7169 26.7264 32.7106 26.3313 32.6919C26.1337 32.6825 26.0271 32.7544 25.9647 32.9826C25.7541 33.7391 25.5306 34.4925 25.3148 35.249C25.294 35.324 25.294 35.4084 25.281 35.5397C25.4422 35.4647 25.5722 35.4147 25.6943 35.3459C27.4023 34.3737 28.9231 33.0701 30.3035 31.5258C30.3711 31.4508 30.4361 31.3476 30.4543 31.2445C30.4907 31.0194 30.501 30.788 30.5114 30.5567C30.5452 29.7908 30.566 29.0249 30.6128 28.2622C30.6206 28.1465 30.722 27.9808 30.8078 27.9495C30.8936 27.9183 31.0392 27.9933 31.112 28.0808C31.1744 28.1559 31.1978 28.309 31.1926 28.4278C31.1744 28.9968 31.138 29.5626 31.112 30.1284C31.1094 30.2097 31.1198 30.291 31.125 30.416C32.7029 28.6216 35.4143 22.8477 35.4845 21.1471C31.4603 23.5574 28.216 26.8929 26.3313 31.9853ZM22.4942 14.5416C21.7143 14.1478 20.9734 13.7789 20.2351 13.4037C20.0402 13.3037 19.97 13.1349 20.0662 12.8973C20.1623 12.6566 20.3131 12.6847 20.4873 12.7691C21.0462 13.0442 21.6077 13.3131 22.1693 13.5788C22.2706 13.6257 22.3772 13.6507 22.4838 13.6882C22.4942 13.6632 22.5046 13.6413 22.515 13.6163C22.437 13.5444 22.3642 13.4631 22.281 13.3975C21.9925 13.1787 21.6961 12.9723 21.4128 12.7441C21.3062 12.6597 21.1814 12.5472 21.145 12.4159C21.1086 12.2815 21.1502 12.097 21.1996 11.9563C21.2126 11.922 21.4024 11.9376 21.4882 11.9876C21.6935 12.1033 21.8859 12.2533 22.0809 12.3909C22.2966 12.5441 22.5072 12.7004 22.723 12.8567C22.736 12.8348 22.749 12.816 22.762 12.7942C22.4968 12.4972 22.2265 12.2064 21.9717 11.9001C21.8495 11.7532 21.7403 11.5843 21.6649 11.3999C21.6337 11.3217 21.6805 11.1498 21.7403 11.0779C21.7897 11.0185 21.9197 11.006 21.9977 11.0342C22.0913 11.0717 22.1771 11.1623 22.2524 11.2467C22.5072 11.5343 22.7542 11.8344 23.0141 12.1189C23.0661 12.1752 23.1597 12.1783 23.2325 12.2064C23.2247 12.1127 23.2403 12.0064 23.2065 11.9282C22.7698 10.8747 22.3356 9.8181 21.8807 8.77085C21.4492 7.77362 20.9006 6.86705 20.1987 6.12303C19.3877 5.26648 18.7742 5.29149 18.0645 6.07302C17.9007 6.25433 17.6615 6.36999 17.4405 6.43252C16.931 6.57319 16.4371 6.73888 16.0471 7.18591C15.7794 7.4954 15.5766 7.87053 15.6468 8.33007C15.7612 9.08033 16.2369 9.4961 16.7256 9.89937C16.697 9.63053 16.6373 9.38044 16.5801 9.13035C16.5385 8.94279 16.5359 8.77397 16.723 8.68957C16.9154 8.60204 17.048 8.69269 17.1364 8.89276C17.1806 8.9928 17.2118 9.10534 17.2352 9.21788C17.3002 9.54612 17.3444 9.87749 17.4171 10.2026C17.4847 10.5027 17.5601 10.8059 17.6641 11.0904C17.7993 11.4656 17.9813 11.8188 18.1086 12.1971C18.4388 13.1693 19.0029 13.8789 19.814 14.2228C20.5107 14.5198 21.2438 14.6917 21.9613 14.9074C22.1147 14.9543 22.2784 14.9637 22.437 14.9918C22.4656 14.7886 22.4838 14.6354 22.4942 14.5416ZM17.2482 18.3586C17.5237 18.79 17.7629 18.8901 18.1138 18.7244C19.2863 18.1711 20.4431 18.1117 21.5947 18.8088C21.9977 19.0526 22.4266 19.0151 22.8504 18.8651C24.119 18.4118 25.3174 18.5337 26.4976 19.3246C27.7351 20.153 29.0921 20.4344 30.5062 20.2968C31.4681 20.203 32.2038 19.7498 32.5262 18.5775C32.5963 18.318 32.6899 18.0679 32.7653 17.8084C32.9993 17.0113 33.3502 16.3392 33.9949 15.9171C34.3641 15.6764 34.4421 15.2575 34.3121 14.7761C34.0417 14.8793 33.7766 15.0293 33.4984 15.0762C32.6925 15.2169 31.884 15.3138 31.0756 15.4357C30.8468 15.4701 30.6206 15.5358 30.3945 15.5858C30.8676 16.0484 31.3589 16.286 31.9386 16.0328C32.1362 15.9453 32.3338 15.8609 32.5366 15.8046C32.6041 15.7858 32.7185 15.839 32.7549 15.9046C32.7913 15.9703 32.7861 16.1297 32.7445 16.1829C32.5989 16.3736 32.4508 16.5799 32.2636 16.7018C31.6085 17.1238 30.9586 16.9863 30.3815 16.4986C29.9291 16.1172 29.5392 16.1235 29.0661 16.4392C28.5019 16.8143 27.9014 17.1051 27.2801 17.4552C27.3997 17.6271 27.4829 17.749 27.5661 17.8647C27.7922 18.1742 28.0184 18.4774 28.2446 18.7869C28.372 18.962 28.3902 19.1308 28.2264 19.3058C28.0704 19.4778 27.9586 19.3809 27.8442 19.2496C27.7247 19.112 27.6051 18.9713 27.4881 18.8307C26.8278 18.046 26.1649 17.2645 25.5072 16.4767C25.3564 16.2954 25.1874 16.2266 24.9847 16.2641C23.9214 16.458 22.8426 16.5767 21.7975 16.8706C20.2871 17.2895 18.8001 17.8428 17.2482 18.3586ZM28.2784 13.8852C28.2914 13.9164 28.307 13.9508 28.32 13.9821C29.1986 13.6476 30.0773 13.3131 30.956 12.9755C31.0626 12.9348 31.177 12.8192 31.2705 12.841C31.4057 12.8723 31.5643 12.9661 31.6449 13.0943C31.7489 13.2599 31.6319 13.41 31.4993 13.5006C31.3771 13.5819 31.2523 13.6663 31.1198 13.7132C30.1735 14.0446 29.2246 14.3635 28.2784 14.6886C28.268 14.6604 28.2576 14.6354 28.2446 14.6073C28.2316 14.7136 28.216 14.8199 28.1978 14.9449C29.118 14.8605 30.0097 14.7855 30.8962 14.6917C31.6969 14.6042 32.5002 14.5135 33.2956 14.3822C33.5504 14.3384 33.826 14.2103 34.0313 14.0258C34.4369 13.6632 34.806 13.2381 35.1804 12.8254C35.3026 12.691 35.4065 12.5316 35.5053 12.3721C35.6613 12.1127 35.6613 11.8344 35.5001 11.5812C35.3571 11.3561 35.2064 11.1311 35.0348 10.9404C34.5955 10.4589 34.3797 9.86499 34.3303 9.16161C34.2887 8.55828 34.0131 8.18314 33.5296 8.01433C32.8615 7.77987 32.2064 7.87678 31.5747 8.17063C29.807 8.9928 28.5149 10.4965 27.4829 12.3596C27.4361 12.4409 27.4413 12.566 27.4205 12.6691C27.4491 12.6816 27.4777 12.6941 27.5063 12.7097C27.5687 12.6128 27.6285 12.5128 27.6987 12.4253C27.956 12.097 28.216 11.7719 28.4811 11.4531C28.6137 11.2936 28.7671 11.2405 28.9127 11.4374C29.0531 11.6281 29.0011 11.8094 28.8737 11.9689C28.7229 12.1595 28.5591 12.3346 28.4058 12.5222C28.242 12.7254 28.0834 12.938 27.9248 13.1474C27.9456 13.1755 27.9664 13.2005 27.9846 13.2287C28.0496 13.1724 28.1172 13.1161 28.1822 13.063C28.4421 12.8473 28.6969 12.6285 28.9621 12.419C29.1103 12.3034 29.2532 12.2877 29.3676 12.5003C29.4846 12.7129 29.4768 12.8942 29.2948 13.0411C29.0687 13.2224 28.8399 13.3975 28.6163 13.5819C28.5019 13.6757 28.3902 13.7851 28.2784 13.8852ZM19.1537 14.7261C18.6 14.351 18.1944 13.8351 17.8253 13.2631C17.7759 13.188 17.6875 13.0974 17.6225 13.1005C17.2144 13.1349 16.7958 13.1474 16.4007 13.2568C15.7638 13.4319 15.3634 14.5479 15.6936 15.2138C15.9796 15.7952 16.1979 16.361 16.1589 17.0738C16.1277 17.6209 16.6321 17.9522 17.0688 17.7803C18.8105 17.0957 20.5003 16.186 22.3642 16.0391C22.4162 16.0359 22.463 15.9328 22.5124 15.8765C22.463 15.8202 22.4214 15.7264 22.3668 15.7139C22.0315 15.642 21.6935 15.5858 21.3556 15.5295C20.9942 15.467 20.6277 15.3388 20.2715 15.3638C19.5852 15.4107 18.9015 15.5389 18.2152 15.6389C18.0229 15.6671 17.8825 15.5951 17.8305 15.3669C17.7811 15.145 17.8825 15.0012 18.0437 14.923C18.1242 14.8855 18.2126 14.8636 18.2984 14.8511C18.5844 14.8074 18.8703 14.7667 19.1537 14.7261ZM24.8443 20.6595C24.8391 20.6595 24.8339 20.6563 24.8313 20.6563C24.8313 20.2874 24.8209 19.9186 24.8365 19.5497C24.8443 19.3496 24.7481 19.2902 24.6363 19.309C24.5453 19.3246 24.4231 19.409 24.3919 19.5028C24.3451 19.6278 24.3711 19.7935 24.3659 19.9404C24.288 22.0131 24.2646 24.0888 24.1164 26.1552C23.885 29.3844 23.599 32.6106 23.2767 35.8273C22.9179 39.413 22.372 42.9611 21.7221 46.4874C21.6883 46.6749 21.5895 46.9125 21.8365 46.9782C22.0601 47.0376 22.0991 46.7969 22.1459 46.6062C22.1537 46.5749 22.1641 46.5468 22.1693 46.5155C22.5098 44.3772 22.9205 42.2515 23.1727 40.0976C23.6094 36.3557 23.9838 32.6043 24.3139 28.8467C24.5505 26.1239 24.6701 23.3885 24.8443 20.6595ZM35.17 13.9039C34.936 14.0446 34.8762 14.2322 34.897 14.4948C34.9204 14.7761 34.949 15.07 34.9022 15.3419C34.8502 15.6608 34.7644 15.9984 34.6111 16.2548C34.4655 16.5017 34.2289 16.6924 34.0027 16.8425C33.6258 17.0988 33.5192 17.549 33.3554 17.9772C33.9897 17.7522 34.6137 17.5333 35.1544 17.0738C35.4091 16.855 35.5495 16.5517 35.6119 16.186C35.7575 15.3451 35.5183 14.6198 35.17 13.9039ZM27.9638 16.2391C28.3824 15.9984 28.7879 15.7671 29.1934 15.5295C29.2064 15.5232 29.2116 15.4951 29.2376 15.442C28.9881 15.4982 28.7619 15.5764 28.5331 15.592C28.1952 15.617 28.0002 15.7983 27.9638 16.2391ZM23.2403 14.8105C23.2143 14.823 23.1883 14.8355 23.1623 14.848C23.1389 15.1262 23.1077 15.4076 23.0921 15.6858C23.0895 15.739 23.1467 15.7952 23.1779 15.8515C23.2169 15.8202 23.2819 15.7921 23.2871 15.7546C23.3157 15.4951 23.3417 15.2325 23.3495 14.9699C23.3495 14.923 23.2793 14.8668 23.2403 14.8105ZM27.2229 15.7452C27.1969 15.739 27.1709 15.7358 27.1449 15.7296C27.0799 16.0859 27.015 16.4455 26.9448 16.8362C27.1813 16.7737 27.3243 16.0453 27.2229 15.7452ZM26.573 15.7264C26.5496 15.7233 26.5262 15.7171 26.5002 15.7139C26.3079 16.0234 26.2897 16.2704 26.4924 16.4548C26.521 16.1922 26.547 15.9609 26.573 15.7264ZM23.8174 15.1981C23.8564 15.3763 23.8902 15.517 23.9214 15.6577C23.9682 15.6264 24.054 15.5951 24.054 15.5639C24.054 15.4138 24.1216 15.2075 23.8174 15.1981Z" fill="#FFEB61"/>
<path d="M33.6832 35.646C33.5714 35.5491 33.496 35.5116 33.4596 35.4428C33.4154 35.3616 33.3998 35.2522 33.3764 35.1552C33.171 34.3081 32.7421 33.7141 32.0324 33.439C31.8842 33.3827 31.7438 33.3265 31.7412 33.092C31.7386 32.8544 31.8972 32.8419 32.0272 32.7856C32.7447 32.4762 33.2412 31.9166 33.4336 31.0069C33.47 30.8412 33.5246 30.6849 33.6936 30.688C33.8599 30.6912 33.9119 30.8381 33.9431 31.0131C34.1121 31.926 34.5982 32.4887 35.3209 32.77C35.4743 32.8294 35.5809 32.9138 35.5861 33.117C35.5913 33.3265 35.4483 33.3515 35.3261 33.3952C34.5514 33.6735 34.1043 34.3174 33.8833 35.2271C33.8547 35.3616 33.7663 35.4804 33.6832 35.646ZM33.6416 34.1424C33.9405 33.7891 34.2603 33.4077 34.5878 33.017C34.2005 32.7888 33.8937 32.4293 33.7196 31.9885C33.4076 32.373 33.0982 32.7512 32.8175 33.092C33.0905 33.439 33.3738 33.7985 33.6416 34.1424Z" fill="#FFEB61"/>
<path d="M22.4551 22.9353C22.4265 22.9635 22.3746 23.0666 22.3018 23.0917C21.6129 23.348 21.1683 23.8607 21.0124 24.7297C20.9942 24.8266 20.8694 24.9423 20.7836 24.9579C20.7186 24.9673 20.6094 24.8485 20.5704 24.7547C20.4716 24.5172 20.4248 24.2483 20.3182 24.017C20.1155 23.5856 19.8087 23.2948 19.4006 23.1761C19.2524 23.1323 19.1146 23.0729 19.1172 22.8447C19.1198 22.6321 19.2498 22.5852 19.385 22.5196C19.9465 22.2601 20.3546 21.8193 20.5028 21.0878C20.5132 21.0378 20.5184 20.9784 20.5444 20.9471C20.6172 20.869 20.7004 20.7471 20.781 20.7471C20.8564 20.7471 20.9604 20.8565 21.0046 20.9503C21.0669 21.0847 21.0721 21.2566 21.1293 21.3973C21.3607 21.9788 21.735 22.3633 22.2524 22.5415C22.4395 22.604 22.4577 22.6352 22.4551 22.9353ZM21.3737 22.8603C21.1761 22.6165 20.9422 22.3258 20.781 22.1257C20.612 22.3351 20.3754 22.629 20.1623 22.8947C20.3182 23.0854 20.5548 23.3761 20.7394 23.6043C20.9682 23.3355 21.2073 23.0541 21.3737 22.8603Z" fill="#FFEB61"/>
<path d="M18.5271 46.8375C18.4725 46.7594 18.3945 46.6906 18.3711 46.6031C18.2359 46.1092 18.0383 45.6684 17.6692 45.3745C17.5314 45.2651 17.365 45.2057 17.2299 45.0963C17.1467 45.0275 17.0427 44.9087 17.0401 44.8087C17.0375 44.7118 17.1389 44.5586 17.2221 44.5211C17.794 44.2679 18.1891 43.824 18.3841 43.1206C18.4127 43.0174 18.5401 42.8736 18.6077 42.883C18.6882 42.8924 18.7974 43.0362 18.8234 43.1456C18.9768 43.8396 19.3667 44.2554 19.8971 44.5086C20.0193 44.5649 20.1206 44.6149 20.118 44.7993C20.1154 44.9744 20.0245 45.0525 19.9023 45.1057C19.3122 45.3589 18.9534 45.8653 18.7974 46.5843C18.7558 46.7344 18.709 46.8157 18.5271 46.8375ZM19.0938 44.7931C18.9586 44.6118 18.7532 44.3366 18.5583 44.0772C18.3529 44.3116 18.1371 44.5586 17.9838 44.7368C18.1813 44.9837 18.3945 45.2526 18.5687 45.4714C18.7298 45.2682 18.9352 44.9994 19.0938 44.7931Z" fill="#FFEB61"/>
<path d="M33.6075 5.31351C32.8952 5.30726 32.3415 4.61951 32.3467 3.75046C32.3545 2.91578 32.9394 2.23742 33.6465 2.24993C34.3588 2.26243 34.9151 2.94392 34.9073 3.79423C34.8995 4.65391 34.3276 5.31976 33.6075 5.31351ZM33.6257 4.77895C34.0755 4.77582 34.4602 4.31629 34.4576 3.78485C34.4524 3.25653 34.0729 2.80325 33.6335 2.80637C33.1812 2.80637 32.7912 3.26591 32.7964 3.7911C32.799 4.33504 33.1708 4.78207 33.6257 4.77895Z" fill="#FFEB61"/>
<path d="M27.1294 21.7162C27.1294 22.2007 26.8409 22.5634 26.4561 22.5665C26.0506 22.5696 25.7412 22.2007 25.7412 21.7193C25.7412 21.2348 26.0454 20.8659 26.4379 20.8721C26.8434 20.8753 27.1294 21.2223 27.1294 21.7162ZM26.7603 21.7225C26.7629 21.5005 26.6173 21.3192 26.4327 21.3192C26.2637 21.3192 26.1208 21.4974 26.1156 21.7162C26.1104 21.9319 26.2481 22.1132 26.4249 22.1132C26.6095 22.1163 26.7577 21.9413 26.7603 21.7225Z" fill="#FFEB61"/>
<path d="M19.8218 2.72188C19.2707 2.71875 18.8365 2.16856 18.8443 1.48081C18.8521 0.780563 19.2655 0.289761 19.853 0.286635C20.4093 0.283509 20.846 0.808692 20.8486 1.47455C20.8512 2.18105 20.4041 2.72188 19.8218 2.72188ZM20.3053 1.47143C20.3053 1.18071 20.0974 0.946249 19.8374 0.946249C19.5904 0.946249 19.3929 1.19321 19.3929 1.5027C19.3929 1.81218 19.5722 2.03413 19.8218 2.03726C20.1026 2.04351 20.3027 1.80905 20.3053 1.47143Z" fill="#FFEB61"/>
<path d="M13.6763 14.2479C13.5645 14.1509 13.4891 14.1134 13.4528 14.0447C13.4086 13.9634 13.393 13.854 13.3696 13.7571C13.1642 12.9099 12.7353 12.3159 12.0256 12.0408C11.8774 11.9846 11.737 11.9283 11.7344 11.6938C11.7318 11.4562 11.8904 11.4437 12.0204 11.3875C12.7379 11.078 13.2344 10.5184 13.4268 9.60871C13.4632 9.44303 13.5178 9.28671 13.6867 9.28984C13.8531 9.29297 13.9051 9.4399 13.9363 9.61496C14.1053 10.5278 14.5914 11.0905 15.3141 11.3718C15.4675 11.4312 15.5741 11.5156 15.5793 11.7188C15.5845 11.9283 15.4415 11.9533 15.3193 11.9971C14.5446 12.2753 14.0975 12.9193 13.8765 13.829C13.8453 13.9634 13.7595 14.0822 13.6763 14.2479ZM13.6347 12.7442C13.9337 12.3909 14.2534 12.0096 14.581 11.6188C14.1936 11.3906 13.8869 11.0311 13.7127 10.5903C13.4008 10.9748 13.0914 11.3531 12.8106 11.6938C13.081 12.0377 13.367 12.4003 13.6347 12.7442Z" fill="#FFEB61"/>
</svg>
