<svg width="48" height="48" viewBox="0 0 48 48" fill="none" xmlns="http://www.w3.org/2000/svg">
<path d="M29.7048 15.5863C29.7016 19.0652 26.7932 21.9047 23.2318 21.8986C19.7278 21.8925 16.8863 19.1379 16.8736 15.7378C16.8608 12.3529 19.7564 9.61343 23.3401 9.61646C26.9589 9.61949 29.7048 12.1953 29.7048 15.5863ZM23.2 21.2562C26.4301 21.2652 29.0485 18.7712 29.0613 15.6712C29.074 12.5923 26.6085 10.2195 23.3433 10.2407C20.024 10.2619 17.5393 12.6741 17.5425 15.7712C17.5489 18.8288 20.0304 21.2471 23.2 21.2562Z" fill="#FFEB61"/>
<path d="M33.3907 18.4046C34.152 18.8349 34.7477 19.3168 35.181 19.9471C35.4549 20.3501 35.6779 20.7895 35.869 21.235C36.0538 21.6683 35.9327 21.8168 35.4549 21.8986C34.3304 22.0865 33.2187 22.0411 32.1133 21.7623C32.0241 21.7411 31.9349 21.7229 31.8266 21.7017C32.0432 22.0926 32.2567 22.4502 32.4446 22.8199C32.8555 23.6169 32.9798 24.4714 32.9766 25.3472C32.9766 25.7472 32.8778 25.826 32.4573 25.7987C31.3806 25.729 30.4123 25.3866 29.5522 24.7654C29.4598 24.6987 29.3674 24.6381 29.2018 24.5229C29.2368 24.7199 29.2527 24.8502 29.2814 24.9805C29.5044 26.0412 29.4566 27.0866 29.0712 28.1079C28.9055 28.5443 28.7781 28.6018 28.3353 28.42C27.2905 27.9927 26.4941 27.2867 25.8602 26.3988C25.7805 26.2866 25.6945 26.1775 25.5353 26.0897C25.5353 30.5504 25.5353 35.0081 25.5353 39.5082C25.6181 39.4476 25.6945 39.4021 25.7551 39.3445C26.6374 38.5112 27.6536 37.8657 28.7558 37.3324C28.8991 37.2627 29.0043 37.1021 29.1062 36.9718C29.3929 36.602 29.6605 36.2172 29.9567 35.8505C30.0873 35.6899 30.2753 35.6566 30.4569 35.8111C30.648 35.9717 30.5875 36.1445 30.4632 36.2929C30.304 36.4869 30.1192 36.6657 29.944 36.8505C29.9599 36.8778 29.9758 36.9081 29.9886 36.9354C30.4123 36.8111 30.8391 36.696 31.2596 36.5566C31.3297 36.5323 31.3679 36.4142 31.4125 36.3354C31.6928 35.8444 32.1101 35.4778 32.6039 35.1838C32.7886 35.0747 32.9543 35.0626 33.1008 35.2505C33.2537 35.4475 33.1677 35.5899 33.0053 35.7172C32.7886 35.8869 32.5657 36.0475 32.2726 36.2657C33.9482 35.9808 35.5186 35.7141 37.1655 35.4353C37.0158 35.3293 36.9298 35.2444 36.8215 35.196C36.264 34.9535 35.7097 34.6959 35.1395 34.4868C34.5375 34.2687 34.5056 34.2353 34.8433 33.6414C34.4738 33.5626 34.1265 33.4474 33.7698 33.4201C33.1996 33.3747 32.6262 33.3777 32.056 33.3777C31.6928 33.3777 31.6132 33.3383 31.6196 32.9929C31.6227 32.7504 31.559 32.6565 31.2915 32.7323C30.6926 32.8989 30.0873 33.0444 29.4916 33.2171C29.0584 33.3414 29.0616 33.3565 28.9246 32.9353C28.8991 32.8595 28.8641 32.7868 28.8163 32.6656C28.4882 32.7929 28.1665 32.911 27.8511 33.0413C27.5612 33.1626 27.2841 33.3201 26.9847 33.4141C26.87 33.4505 26.6438 33.3959 26.5928 33.3111C26.5387 33.2232 26.6311 33.0504 26.6597 32.9171C26.6629 32.908 26.6725 32.902 26.682 32.8959C27.4784 32.5716 28.2716 32.2413 29.0712 31.9322C29.1317 31.908 29.2814 32.0019 29.3356 32.0777C29.4279 32.208 29.4789 32.3656 29.5426 32.4959C30.2466 32.3262 30.9442 32.1625 31.6387 31.9898C32.1993 31.8534 32.3013 31.9262 32.2981 32.4716C32.2981 32.5413 32.2981 32.611 32.2981 32.6777C32.8492 32.7171 33.3875 32.7353 33.9163 32.802C34.3463 32.8565 34.7668 32.9626 35.1905 33.0535C35.4676 33.1141 35.5823 33.2808 35.5059 33.5474C35.4358 33.7929 35.5186 33.9141 35.7734 34.0293C36.624 34.4141 37.4554 34.8384 38.2964 35.2414C38.5193 35.3475 38.513 35.4717 38.4015 35.6505C37.8918 36.4627 37.2802 37.193 36.5475 37.8294C36.3691 37.9839 36.35 38.0839 36.5125 38.2445C36.6749 38.4051 36.8247 38.5748 36.968 38.7476C37.1368 38.9476 37.14 39.1415 36.8852 39.2779C36.1461 39.6688 35.4039 40.0537 34.6617 40.4415C34.5725 40.49 34.477 40.5264 34.375 40.5718C34.4515 40.787 34.5311 40.9749 34.5853 41.1658C34.6617 41.4537 34.5757 41.5628 34.2667 41.5749C33.6009 41.6052 32.932 41.6264 32.263 41.6537C32.1484 41.6598 32.0337 41.6688 31.9349 41.6749C31.9094 41.7143 31.8871 41.7295 31.8903 41.7446C31.9126 42.4295 31.8967 42.4477 31.18 42.3658C30.6321 42.3022 30.0873 42.2234 29.5426 42.1567C29.4407 42.1446 29.3387 42.1416 29.2527 42.1355C29.2241 42.181 29.2081 42.1961 29.205 42.2143C29.1604 42.8962 29.068 42.9689 28.3704 42.7871C27.4434 42.5446 26.5196 42.2901 25.5416 42.0234C25.5416 42.1355 25.5416 42.2689 25.5416 42.4022C25.5416 43.8235 25.5448 45.2477 25.5353 46.669C25.5321 47.266 25.204 47.7175 24.6975 47.8599C23.8916 48.0872 23.1876 47.5811 23.1748 46.7478C23.1653 46.0508 23.178 45.3568 23.178 44.6598C23.1812 43.4083 23.1876 42.1567 23.1812 40.9082C23.1812 40.8022 23.1366 40.6597 23.057 40.5931C21.375 39.1415 19.4637 38.1051 17.2052 37.7233C16.9567 37.6809 16.6668 37.7112 16.4311 37.793C15.8641 37.99 15.3194 38.2385 14.7619 38.4627C14.6536 38.5051 14.5326 38.5869 14.437 38.5657C14.3 38.5385 14.1439 38.4597 14.0707 38.3536C14.0292 38.293 14.1025 38.1051 14.1822 38.0354C14.2936 37.9354 14.4561 37.8869 14.5995 37.8263C14.8065 37.7354 15.0168 37.6506 15.227 37.5597C15.2238 37.5293 15.2174 37.499 15.2143 37.4687C13.3316 37.4687 11.449 37.4687 9.52177 37.4687C9.65556 37.5809 9.76387 37.7021 9.90085 37.7839C10.4296 38.1021 10.9616 38.4082 11.5 38.7142C11.8122 38.89 11.8472 38.9657 11.672 39.2627C11.5286 39.5082 11.363 39.7415 11.191 40.0021C11.9045 40.3476 12.634 40.6052 13.4081 40.7355C13.6151 40.7719 13.8254 40.8143 14.0356 40.8294C14.3032 40.8476 14.3542 40.9779 14.2905 41.1961C14.2522 41.3204 14.214 41.4416 14.1567 41.6264C14.5326 41.6082 14.867 41.5991 15.1983 41.5719C15.5583 41.5416 15.9151 41.4961 16.2718 41.4446C16.7528 41.3779 16.756 41.3749 16.8962 41.8143C16.9089 41.8507 16.9249 41.8901 16.9567 41.9749C17.425 41.8779 17.8996 41.781 18.3679 41.6779C18.5431 41.6416 18.7151 41.587 18.8903 41.5476C19.2312 41.4719 19.3458 41.5476 19.4159 41.881C19.435 41.9779 19.4605 42.0749 19.4924 42.2264C19.7727 42.1446 20.0307 42.0749 20.2856 41.9961C20.5277 41.9204 20.7666 41.8416 21.0055 41.7598C21.2348 41.681 21.3463 41.8083 21.4196 41.978C21.5024 42.1719 21.3909 42.287 21.2062 42.3446C20.6455 42.5264 20.0849 42.7113 19.521 42.884C19.1483 42.9992 19.0337 42.9568 18.9477 42.5901C18.8712 42.2689 18.7088 42.2537 18.4284 42.3234C17.906 42.4537 17.3772 42.5598 16.8516 42.678C16.3037 42.7992 16.2846 42.7871 16.1858 42.278C16.1763 42.2295 16.1635 42.181 16.1476 42.0992C15.7813 42.1355 15.4149 42.1749 15.0518 42.2083C14.6409 42.2446 14.2299 42.284 13.8158 42.3113C13.4304 42.3355 13.3348 42.2295 13.3921 41.8719C13.4144 41.7325 13.4463 41.5961 13.4814 41.4204C13.287 41.3719 13.0927 41.3416 12.9111 41.2779C12.1849 41.0294 11.4554 40.787 10.745 40.5052C10.3436 40.3476 10.3309 40.2446 10.5411 39.8809C10.6749 39.6446 10.8215 39.4142 10.9298 39.2355C10.1875 38.687 9.48036 38.1657 8.77637 37.6384C8.62665 37.5263 8.48967 37.396 8.35588 37.2687C8.13927 37.0627 8.13609 36.9172 8.38137 36.7415C9.19367 36.1626 10.0187 35.596 10.8374 35.0263C10.8788 34.9959 10.9202 34.9687 10.9584 34.9414C10.7673 34.2626 10.7578 34.2384 11.4681 34.0202C12.1498 33.808 12.8506 33.6505 13.5451 33.4656C13.6056 33.4504 13.6629 33.4262 13.7394 33.3989C13.7171 33.2868 13.6916 33.1807 13.6789 33.0747C13.6374 32.6353 13.8063 32.4777 14.2682 32.5262C15.004 32.6019 15.7367 32.6807 16.498 32.7595C16.4916 32.7686 16.5171 32.7474 16.5235 32.7201C16.6477 32.1262 16.67 32.111 17.2912 32.2322C17.6225 32.2959 17.957 32.3595 18.2851 32.4383C18.61 32.5171 18.9317 32.611 19.2471 32.6959C19.2789 32.6656 19.2981 32.6535 19.3044 32.6353C19.4988 32.0595 19.537 32.0534 20.1167 32.305C21.2348 32.7898 22.2096 33.4444 22.9646 34.3808C22.9996 34.4262 23.0506 34.4596 23.1493 34.5474C23.1589 34.3868 23.1684 34.2838 23.1684 34.1808C23.1684 32.8595 23.1716 31.5383 23.1653 30.217C23.1653 30.0898 23.127 29.9231 23.0378 29.8413C22.1682 29.0625 21.7541 28.0836 21.5821 26.9867C21.5407 26.7109 21.5215 26.4291 21.4833 26.0806C21.3623 26.226 21.2699 26.326 21.1902 26.4351C20.5245 27.3412 19.6931 28.0776 18.6737 28.617C18.0653 28.9382 17.9379 28.8958 17.7117 28.2776C17.3581 27.3139 17.3708 26.3381 17.6448 25.3593C17.6735 25.2563 17.6989 25.1533 17.7404 24.9866C17.3963 25.2078 17.1224 25.4078 16.8261 25.5745C16.0457 26.0109 15.1983 26.2533 14.2905 26.2684C13.8763 26.2745 13.7808 26.1745 13.7967 25.7866C13.8445 24.7533 14.2108 23.8169 14.7556 22.9381C14.8097 22.8532 14.867 22.7684 14.9562 22.632C14.8256 22.6593 14.7492 22.6684 14.6823 22.6926C13.6406 23.0775 12.5735 23.0956 11.4904 22.9017C11.0763 22.8259 10.9998 22.7047 11.1145 22.3077C11.398 21.3289 12.0479 20.5804 12.8092 19.9016C12.9111 19.8107 13.0163 19.7289 13.1214 19.644C13.1341 19.6319 13.1373 19.6107 13.1628 19.5592C13.0386 19.5592 12.9303 19.5531 12.822 19.5592C11.672 19.6289 10.6176 19.341 9.65238 18.7561C9.26693 18.5228 9.24146 18.3804 9.50904 18.0198C10.1334 17.1743 10.9744 16.6046 11.981 16.2409C12.1657 16.1742 12.3537 16.1106 12.5544 16.0379C11.9682 15.7894 11.3789 15.6045 10.8629 15.3045C10.3532 15.0106 9.89448 14.6287 9.46125 14.2348C9.14588 13.9469 9.1873 13.7833 9.52815 13.5105C10.2736 12.9196 11.14 12.5923 12.0957 12.4711C12.3983 12.4317 12.7009 12.4105 13.0832 12.3711C12.9303 12.259 12.8251 12.1863 12.7232 12.1105C11.8536 11.4862 11.2419 10.6771 10.8278 9.72862C10.7928 9.64377 10.7546 9.55892 10.7323 9.47104C10.6494 9.16497 10.7514 9.01649 11.0763 8.95588C12.2963 8.7286 13.5005 8.75587 14.6759 9.18012C14.6918 9.18618 14.7173 9.17709 14.7619 9.17103C14.6313 8.92557 14.5007 8.69223 14.3765 8.45283C13.9464 7.61342 13.733 6.72855 13.7617 5.79216C13.7744 5.34063 13.9209 5.21335 14.3988 5.28305C15.5424 5.44669 16.5904 5.82852 17.4728 6.55581C17.5301 6.60127 17.5874 6.64369 17.6448 6.68915C17.6512 6.69521 17.6639 6.68915 17.7181 6.68915C17.7053 6.574 17.6958 6.46187 17.6766 6.34975C17.4919 5.26487 17.5556 4.19817 17.9187 3.15269C18.1131 2.59207 18.2437 2.55268 18.7979 2.8345C19.8014 3.34664 20.6073 4.05878 21.1711 5.00729C21.2285 5.10426 21.2858 5.1982 21.3463 5.29517C21.3559 5.31032 21.3782 5.31639 21.4451 5.35578C21.4738 5.1982 21.5024 5.05881 21.5215 4.91941C21.6872 3.82544 22.13 2.84662 22.9136 2.01933C23.35 1.55871 23.4519 1.56175 23.8947 2.00418C24.7421 2.84966 25.0702 3.89816 25.2072 5.01941C25.2167 5.0891 25.2231 5.15578 25.2422 5.31942C25.3441 5.17396 25.4078 5.09517 25.4588 5.01032C26.0545 4.01332 26.8636 3.21937 27.9371 2.68602C28.6061 2.35268 28.7176 2.40722 28.9278 3.09815C29.2145 4.04059 29.2145 4.98607 29.0011 5.94064C28.9852 6.01034 28.9692 6.08004 28.9565 6.14671C28.9533 6.16489 28.9629 6.1861 28.9724 6.25883C29.0966 6.16792 29.1986 6.0952 29.3005 6.01944C30.116 5.41336 31.0143 4.98002 32.0528 4.84668C32.8173 4.74971 32.9479 4.86183 32.9001 5.58912C32.8428 6.4255 32.5943 7.2134 32.1643 7.94676C32.1165 8.02555 32.0751 8.10737 32.0305 8.18616C32.0273 8.19222 32.0337 8.20434 32.04 8.25888C32.1611 8.22252 32.2758 8.18918 32.3873 8.15282C33.3429 7.8316 34.3241 7.72857 35.3307 7.86191C35.7289 7.91342 35.8053 8.01948 35.7097 8.38919C35.4358 9.44073 34.8433 10.3074 33.9991 11.0226C33.9163 11.0923 33.8303 11.159 33.7443 11.2287C33.7538 11.2559 33.7602 11.2832 33.7698 11.3105C34.1648 11.3105 34.563 11.2862 34.9548 11.3165C35.748 11.3741 36.4838 11.6105 37.1528 12.0378C37.4108 12.2014 37.4203 12.3651 37.2547 12.5893C36.5125 13.5863 35.5027 14.2409 34.3336 14.6984C34.2285 14.7378 34.1266 14.7833 33.9864 14.8439C34.3973 14.9682 34.7636 15.0621 35.1172 15.1894C35.9168 15.4742 36.5921 15.9348 37.1305 16.5712C37.4172 16.9106 37.4108 17.0197 37.0349 17.2834C36.0856 17.9379 35.0249 18.3076 33.8526 18.3834C33.7092 18.3895 33.6041 18.3925 33.3907 18.4046ZM23.401 2.42238C23.2576 2.57693 23.1398 2.68905 23.0442 2.81632C22.5887 3.40422 22.3211 4.0709 22.1873 4.78304C21.9452 6.06186 22.0567 7.33462 22.2861 8.60132C22.3307 8.84678 22.2319 8.94072 22.0185 8.98921C21.6999 9.05891 21.5598 8.91345 21.5215 8.46495C21.426 7.33462 21.0979 6.26793 20.5277 5.27093C20.069 4.46788 19.3873 3.88302 18.5176 3.43149C18.4603 3.57998 18.4029 3.69513 18.3743 3.81938C18.1449 4.72546 18.1322 5.63761 18.3456 6.54672C18.5813 7.55584 19.126 8.43465 19.6612 9.31649C19.7791 9.51044 19.8523 9.6771 19.5943 9.82256C19.3427 9.96499 19.2121 9.84681 19.0814 9.65286C18.7438 9.15285 18.4061 8.6498 18.0494 8.16191C17.2275 7.03461 16.1572 6.24066 14.7078 5.97398C14.3892 5.91641 14.3542 5.9467 14.3765 6.24974C14.4657 7.42856 14.9467 8.4498 15.7462 9.34377C16.2687 9.9256 16.8962 10.3832 17.5747 10.7862C17.8359 10.9438 17.9028 11.1771 17.7435 11.3438C17.5556 11.5408 17.3517 11.5014 17.1574 11.3378C17.1192 11.3044 17.0746 11.2741 17.03 11.2468C16.1349 10.6529 15.2557 10.0286 14.2045 9.69832C13.3061 9.41649 12.3919 9.3468 11.4426 9.52256C11.4586 9.5862 11.4586 9.62862 11.4777 9.66195C11.5446 9.79832 11.6115 9.93469 11.6911 10.068C12.2549 11.0226 13.08 11.7196 14.1025 12.1923C14.8065 12.5166 15.5424 12.7802 16.2559 13.0863C16.3674 13.1348 16.5044 13.259 16.5139 13.362C16.5554 13.7045 16.3833 13.8105 16.0234 13.7075C15.3958 13.5257 14.7778 13.2954 14.1407 13.1742C12.8251 12.9257 11.5446 13.0348 10.3627 13.7015C10.2513 13.7651 10.1557 13.853 10.041 13.9348C10.1079 14.0106 10.1461 14.059 10.1907 14.1015C10.9552 14.8348 11.9141 15.2136 12.9526 15.3621C13.8604 15.4924 14.7874 15.4985 15.7048 15.5591C15.9119 15.5712 16.0998 15.6197 16.103 15.8561C16.1062 16.0833 15.9437 16.1742 15.7303 16.1864C15.4341 16.2015 15.1346 16.1955 14.8416 16.2136C13.303 16.3197 11.8918 16.7561 10.6909 17.7016C10.4902 17.8591 10.3213 18.0501 10.1079 18.2561C10.2927 18.3592 10.4201 18.444 10.5602 18.5076C11.7835 19.0713 13.0386 19.0743 14.3 18.6592C14.9084 18.4592 15.4946 18.1955 16.0935 17.9622C16.3961 17.844 16.6318 17.9834 16.5808 18.2804C16.5617 18.3925 16.4025 18.5076 16.2782 18.5743C15.4118 19.0592 14.5166 19.4986 13.6789 20.0228C12.9749 20.4653 12.427 21.0774 12.016 21.7865C11.93 21.938 11.879 22.1077 11.7994 22.3047C12.7296 22.4471 13.5769 22.3956 14.3988 22.1229C15.5041 21.7562 16.3833 21.0562 17.2307 20.3168C17.4537 20.1228 17.7149 20.0774 17.8741 20.238C18.1099 20.4713 17.8933 20.6228 17.7404 20.7683C17.2402 21.235 16.7178 21.6774 16.2304 22.1562C15.3194 23.0502 14.6664 24.0835 14.4529 25.3351C14.437 25.426 14.437 25.5199 14.4274 25.6351C15.9055 25.4442 17.0905 24.8351 18.0016 23.7714C18.4889 23.2017 18.9349 22.5987 19.3968 22.0077C19.5338 21.835 19.6771 21.6835 19.9224 21.835C20.1072 21.9502 20.1136 22.1805 19.9511 22.3986C19.7918 22.6108 19.6262 22.8199 19.4796 23.0411C18.8648 23.9532 18.301 24.8866 18.1417 25.9866C18.0557 26.5775 18.0143 27.1715 18.1895 27.7564C18.25 27.9564 18.3583 28.0261 18.5558 27.9018C18.7948 27.7503 19.0464 27.62 19.2694 27.4503C20.7156 26.3412 21.4865 24.8593 21.8719 23.1653C21.9134 22.9896 21.9357 22.7956 22.0312 22.6502C22.0917 22.5593 22.2956 22.4714 22.388 22.5047C22.4995 22.5441 22.5823 22.7047 22.6333 22.829C22.6619 22.8987 22.6046 23.0017 22.5823 23.0926C22.2574 24.4139 21.9962 25.7381 22.2446 27.1018C22.3848 27.8685 22.7065 28.5534 23.229 29.1867C24.1145 28.2594 24.6656 27.226 24.793 26.0078C24.9013 24.9836 24.7771 23.9744 24.535 22.9775C24.4809 22.7562 24.3694 22.5017 24.7038 22.3956C24.9746 22.3108 25.1084 22.4562 25.1944 22.8381C25.2836 23.2411 25.3664 23.6502 25.4875 24.0441C25.8761 25.3078 26.4909 26.4442 27.6058 27.2715C27.8734 27.4685 28.1888 27.6079 28.4914 27.7806C28.5328 27.6806 28.5487 27.6564 28.5583 27.6261C28.571 27.5867 28.5838 27.5473 28.5902 27.5079C28.8769 26.1351 28.7271 24.8169 28.0008 23.5835C27.6695 23.0199 27.3255 22.4653 26.9847 21.9077C26.8764 21.732 26.7967 21.5592 27.0388 21.4138C27.2618 21.2804 27.402 21.3592 27.5358 21.5501C27.8352 21.9774 28.1378 22.4047 28.4564 22.8199C29.2591 23.8623 30.2402 24.6805 31.5845 25.026C31.8234 25.0866 32.0719 25.1108 32.3522 25.1563C32.2121 23.7078 31.782 22.4411 30.6639 21.4865C30.1925 21.0865 29.6477 20.7653 29.1285 20.4168C28.8068 20.2016 28.7176 20.041 28.8482 19.838C28.9724 19.641 29.1667 19.6501 29.5171 19.8562C29.8867 20.0713 30.2625 20.2804 30.6384 20.4895C31.5208 20.9804 32.4669 21.2956 33.4926 21.335C34.0437 21.3562 34.598 21.338 35.1459 21.338C35.1523 21.2289 35.1587 21.2077 35.1523 21.1895C35.1268 21.1229 35.0981 21.0592 35.0663 20.9956C34.5789 20.0228 33.8367 19.2743 32.8014 18.8379C31.9509 18.4804 31.0717 18.1864 30.202 17.8743C30.0109 17.8046 29.893 17.7319 29.9727 17.5015C30.0459 17.2864 30.151 17.2106 30.39 17.2743C30.8296 17.3894 31.2723 17.4894 31.7151 17.5864C33.2856 17.9228 34.7891 17.7591 36.2162 17.0349C36.5093 16.8864 36.5443 16.7894 36.2736 16.6076C35.7926 16.2864 35.3052 15.9439 34.7637 15.7379C33.722 15.3409 32.6134 15.3318 31.5049 15.3985C31.2723 15.4136 31.0398 15.4257 30.8073 15.4348C30.562 15.4439 30.4123 15.3227 30.4154 15.0954C30.4154 14.8833 30.5875 14.8257 30.7913 14.8136C31.1832 14.7863 31.5781 14.7742 31.9604 14.7045C33.5022 14.4257 34.9357 13.9015 36.1143 12.8742C36.2576 12.7499 36.3851 12.6045 36.5443 12.4438C36.3914 12.3651 36.2959 12.3044 36.1907 12.265C35.3689 11.9529 34.5184 11.8378 33.636 11.9529C32.658 12.0832 31.7534 12.4135 30.8773 12.8378C30.7181 12.9136 30.5492 13.0014 30.3804 13.0226C30.2753 13.0348 30.0969 12.956 30.0523 12.8711C30.0077 12.7832 30.0523 12.6196 30.1128 12.5196C30.167 12.4348 30.2976 12.3923 30.3995 12.3438C30.855 12.1287 31.3169 11.9256 31.7693 11.7044C32.7823 11.2105 33.6838 10.5771 34.34 9.68013C34.6044 9.31952 34.7987 8.91042 35.044 8.49525C34.9102 8.46495 34.8688 8.4498 34.8274 8.4498C33.7252 8.41647 32.6517 8.55586 31.7183 9.14073C30.8805 9.66498 30.0969 10.2711 29.2941 10.8499C29.0903 10.9953 28.8832 11.1074 28.6857 10.8802C28.4755 10.6408 28.7048 10.4892 28.8641 10.3529C29.205 10.065 29.5649 9.79832 29.9058 9.51043C30.648 8.88315 31.3265 8.20737 31.7342 7.32553C31.9986 6.75279 32.1611 6.1558 32.1866 5.51639C32.1069 5.5073 32.0687 5.49821 32.0273 5.50124C31.9445 5.51033 31.8585 5.5164 31.7757 5.53761C30.5556 5.83459 29.5267 6.43459 28.759 7.38613C28.2652 8.0013 27.8479 8.67102 27.4052 9.32255C27.2077 9.61044 27.0452 9.69528 26.8254 9.58316C26.6088 9.46801 26.6088 9.32255 26.8126 8.98921C27.0516 8.59526 27.2873 8.20131 27.5166 7.80433C28.0423 6.89218 28.4118 5.93459 28.4564 4.88304C28.4787 4.33758 28.4404 3.8012 28.2334 3.283C28.176 3.29513 28.1442 3.29512 28.1155 3.30724C28.0486 3.34058 27.9849 3.37391 27.9212 3.41331C26.6406 4.17393 25.8251 5.28305 25.3632 6.62248C25.1434 7.26189 25.0351 7.93463 24.8727 8.5892C24.809 8.85284 24.6178 8.94376 24.3534 8.85285C24.0699 8.75587 24.0922 8.56496 24.1591 8.33768C24.5223 7.06795 24.6561 5.78307 24.4108 4.47697C24.2738 3.72544 23.9616 3.0527 23.401 2.42238ZM17.1192 37.0869C17.1383 37.0657 17.1542 37.0415 17.1733 37.0202C17.0045 36.8596 16.8421 36.693 16.6668 36.5384C16.5108 36.402 16.463 36.2475 16.5872 36.0839C16.7306 35.899 16.9249 35.9596 17.0587 36.0808C17.3836 36.3808 17.7149 36.6839 17.9888 37.0233C18.1385 37.2112 18.2787 37.3384 18.5176 37.4021C19.8141 37.7506 21.0087 38.3051 22.0981 39.0567C22.4358 39.29 22.7671 39.5385 23.1302 39.7991C23.143 39.7143 23.1557 39.6688 23.1557 39.6233C23.1557 38.3415 23.1589 37.0627 23.1525 35.7808C23.1525 35.696 23.127 35.5899 23.0729 35.5323C22.5122 34.9323 21.9803 34.299 21.3623 33.7535C20.9641 33.402 20.4417 33.1777 19.9575 32.8868C19.7377 33.5474 19.7408 33.5383 19.1133 33.3444C18.6004 33.1868 18.078 33.0565 17.562 32.908C17.3454 32.8474 17.2339 32.8807 17.2147 33.1323C17.1861 33.5232 17.1192 33.5414 16.7083 33.4717C16.052 33.3626 15.3926 33.2717 14.7332 33.1777C14.6186 33.1626 14.4975 33.1747 14.3414 33.1747C14.3956 33.305 14.4274 33.3777 14.4593 33.4505C14.609 33.7989 14.5166 33.9535 14.1185 34.008C13.9624 34.0293 13.8031 34.0383 13.6438 34.0626C12.9207 34.1717 12.2326 34.3778 11.5669 34.6565C11.7676 35.2263 11.7548 35.2081 11.2292 35.5263C10.6845 35.8535 10.1652 36.2233 9.63963 36.5748C9.57911 36.6142 9.5377 36.6808 9.48355 36.7324C9.49311 36.7596 9.49948 36.7899 9.50904 36.8172C11.2642 36.8172 13.0226 36.8172 14.8639 36.8172C14.5612 36.6627 14.3191 36.5475 14.0866 36.4172C13.9209 36.3263 13.7872 36.1929 13.8795 35.996C13.9719 35.8051 14.1535 35.7505 14.3605 35.8232C14.4688 35.8596 14.5835 35.902 14.6759 35.9626C15.0645 36.2233 15.4436 36.496 15.8322 36.7566C15.9405 36.8293 16.0584 36.9142 16.1826 36.9384C16.4916 37.0112 16.807 37.0415 17.1192 37.0869ZM30.1893 37.6142C30.4441 37.6536 30.7053 37.6809 30.9538 37.7384C31.1704 37.79 31.3169 37.9112 31.2437 38.1566C31.1736 38.39 31.0334 38.49 30.7722 38.4142C30.2753 38.2688 29.7815 38.1172 29.2782 38.0021C29.1094 37.9627 28.8768 37.9657 28.7431 38.0475C28.0168 38.4991 27.2968 38.9597 26.612 39.4627C26.2552 39.7233 25.9526 40.0627 25.6595 40.3931C25.3091 40.7931 25.4429 41.2446 25.9366 41.4173C26.3635 41.5688 26.7903 41.7234 27.2236 41.8476C27.6441 41.9658 28.0741 42.0476 28.536 42.1567C28.536 42.0264 28.5328 41.9567 28.536 41.8901C28.5551 41.5173 28.6698 41.4204 29.0489 41.4658C29.2496 41.4901 29.4471 41.5294 29.6446 41.5537C30.1415 41.6113 30.6384 41.6658 31.1449 41.7234C31.1449 41.6234 31.1481 41.584 31.1449 41.5446C31.1099 41.0961 31.1449 41.0567 31.61 41.0507C31.9381 41.0446 32.2694 41.0507 32.5943 41.0294C32.9638 41.0022 33.3334 40.9507 33.7284 40.9082C33.6933 40.8082 33.6806 40.7719 33.6646 40.7355C33.4289 40.2446 33.448 40.2294 33.9673 40.0082C34.6139 39.7294 35.2478 39.4264 35.8818 39.1233C36.0155 39.0597 36.1238 38.9536 36.2991 38.8263C36.1461 38.7082 36.0378 38.6263 35.9359 38.5415C35.8244 38.4475 35.7161 38.3536 35.611 38.2506C35.3466 37.9991 35.3498 37.9354 35.6365 37.696C35.8818 37.49 36.1525 37.3051 36.3819 37.0809C36.6909 36.7778 36.9712 36.4475 37.2643 36.1293C37.2451 36.1111 37.2292 36.096 37.2101 36.0778C35.5855 36.3445 33.9609 36.6111 32.3363 36.8778C32.572 37.0051 32.8078 37.0627 33.0276 37.1475C33.1932 37.2112 33.4257 37.2627 33.3302 37.5203C33.241 37.7627 33.0562 37.8384 32.7982 37.7597C32.5179 37.6718 32.2344 37.5809 31.9509 37.5051C31.3615 37.3506 30.7722 37.3324 30.1893 37.6142ZM24.8376 28.2867C24.4649 28.7655 24.1241 29.1958 23.7928 29.6322C23.7609 29.6716 23.7769 29.7473 23.7769 29.8079C23.7896 35.3657 23.8024 40.9234 23.8151 46.4781C23.8151 46.6084 23.8087 46.7417 23.8246 46.872C23.8597 47.1447 24.0317 47.2781 24.3184 47.2811C24.6242 47.2841 24.8249 47.1447 24.8695 46.8872C24.8918 46.7478 24.8918 46.6053 24.8918 46.4659C24.8822 40.5143 24.8695 34.5656 24.8568 28.614C24.8568 28.52 24.8472 28.4261 24.8376 28.2867Z" fill="#FFEB61"/>
<path d="M26.9688 15.665C26.9752 17.5529 25.4207 19.0954 23.503 19.1075C21.4483 19.1196 19.7887 17.5681 19.776 15.6195C19.7632 13.7104 21.3464 12.1801 23.3437 12.171C25.3633 12.1588 26.9624 13.7013 26.9688 15.665ZM26.3317 15.6589C26.3285 14.0468 24.9906 12.7801 23.3023 12.7922C21.6841 12.8043 20.4162 14.071 20.4258 15.662C20.4354 17.2166 21.8051 18.4984 23.4457 18.4893C25.0511 18.4772 26.3317 17.2196 26.3317 15.6589Z" fill="#FFEB61"/>
<path d="M19.2278 14.5832C19.2278 15.1923 19.231 15.8014 19.2246 16.4136C19.2246 16.4681 19.1577 16.5742 19.1291 16.5711C18.9889 16.559 18.8424 16.5378 18.7181 16.4833C18.664 16.459 18.6226 16.3469 18.6226 16.2742C18.6257 15.7469 18.6321 15.2166 18.664 14.6893C18.6703 14.5772 18.7691 14.4438 18.8678 14.3681C18.9379 14.3135 19.0908 14.3105 19.18 14.3468C19.2533 14.3741 19.2947 14.4893 19.3489 14.565C19.3043 14.5711 19.266 14.5772 19.2278 14.5832Z" fill="#FFEB61"/>
<path d="M28.2651 16.0349C28.2173 16.2803 28.1791 16.5713 28.0963 16.85C28.0517 16.9955 27.9497 17.144 27.8287 17.241C27.7554 17.3016 27.5802 17.3076 27.4847 17.2652C27.4114 17.2319 27.3413 17.0804 27.354 16.9925C27.4273 16.5379 27.5165 16.0834 27.6312 15.6349C27.6503 15.5561 27.8191 15.45 27.9083 15.4621C28.0198 15.4743 28.1472 15.5743 28.2109 15.6682C28.2683 15.75 28.246 15.8803 28.2651 16.0349Z" fill="#FFEB61"/>
<path d="M19.1191 13.4439C19.1637 13.3105 19.1733 13.2105 19.2274 13.1439C19.5014 12.8136 19.769 12.4802 20.078 12.1832C20.1672 12.0984 20.3933 12.1014 20.5431 12.1317C20.6896 12.162 20.7565 12.2954 20.6386 12.4378C20.3264 12.8166 20.0238 13.2045 19.6925 13.5681C19.6193 13.6469 19.4472 13.6984 19.3389 13.6772C19.2497 13.659 19.186 13.5196 19.1191 13.4439Z" fill="#FFEB61"/>
<path d="M27.5039 17.9228C27.453 18.0622 27.4434 18.1743 27.3797 18.2471C27.1089 18.5501 26.835 18.8531 26.5292 19.1228C26.4591 19.1834 26.2234 19.1471 26.1214 19.0774C25.9781 18.9834 25.9876 18.8228 26.1182 18.6834C26.3922 18.3925 26.6502 18.0864 26.9337 17.8016C27.0038 17.7319 27.1599 17.6864 27.2555 17.7076C27.3478 17.7289 27.4243 17.8501 27.5039 17.9228Z" fill="#FFEB61"/>
<path d="M19.4667 17.2136C19.5208 17.256 19.6419 17.3197 19.7151 17.4136C19.884 17.6318 20.0273 17.8652 20.1834 18.0924C20.3076 18.2743 20.3809 18.4803 20.1866 18.6379C19.9827 18.8076 19.7661 18.6864 19.6387 18.5197C19.4253 18.247 19.2309 17.9591 19.0685 17.6561C18.9442 17.4318 19.1258 17.2136 19.4667 17.2136Z" fill="#FFEB61"/>
<path d="M28.1058 14.4743C28.1281 14.7713 28.0612 14.9319 27.8286 14.9652C27.5833 14.9986 27.5101 14.8471 27.4496 14.6531C27.3635 14.3683 27.217 14.0955 27.1565 13.8076C27.1278 13.6804 27.2043 13.4955 27.2998 13.3955C27.3508 13.344 27.5865 13.3773 27.6757 13.444C28.0421 13.7319 28.0516 14.1652 28.1058 14.4743Z" fill="#FFEB61"/>
<path d="M24.6019 20.2561C24.4841 20.147 24.3694 20.0864 24.3439 20.0015C24.3152 19.9015 24.3312 19.7076 24.3917 19.6803C24.7102 19.5348 25.0447 19.4136 25.3856 19.3167C25.4525 19.2985 25.6213 19.4106 25.6372 19.4833C25.6595 19.5803 25.6181 19.7561 25.5416 19.7985C25.2486 19.9712 24.9332 20.0985 24.6019 20.2561Z" fill="#FFEB61"/>
<path d="M23.2163 19.6562C23.3628 19.6744 23.5093 19.6896 23.6558 19.7078C23.8438 19.735 23.9648 19.8502 23.9075 20.0169C23.8693 20.1351 23.7387 20.2926 23.6304 20.3078C23.3851 20.3472 23.1239 20.326 22.8722 20.2987C22.6811 20.2775 22.5314 20.1805 22.5505 19.9593C22.5696 19.7381 22.7321 19.6835 22.9264 19.6714C23.0219 19.6653 23.1175 19.6714 23.2131 19.6714C23.2131 19.6684 23.2163 19.6623 23.2163 19.6562Z" fill="#FFEB61"/>
<path d="M21.7666 11.1711C21.9163 11.2893 22.0851 11.3621 22.1234 11.4742C22.152 11.559 22.0469 11.7378 21.9482 11.8015C21.7379 11.9318 21.5022 12.0318 21.2601 12.1015C21.1613 12.1318 20.9479 12.0863 20.9256 12.0257C20.881 11.9045 20.8778 11.6893 20.9543 11.6287C21.1868 11.453 21.4671 11.3318 21.7666 11.1711Z" fill="#FFEB61"/>
<path d="M23.022 11.6316C22.9901 11.6316 22.9583 11.6316 22.9264 11.6316C22.7225 11.6286 22.4518 11.6255 22.4773 11.3831C22.4932 11.2346 22.7066 11.071 22.8691 10.9801C22.9901 10.9134 23.1781 10.9407 23.3342 10.9558C23.5476 10.974 23.726 11.1013 23.6782 11.3043C23.6463 11.4316 23.4679 11.5437 23.331 11.6255C23.2545 11.671 23.1271 11.6316 23.022 11.6316Z" fill="#FFEB61"/>
<path d="M9.71916 6.89815C9.58218 6.80421 9.48981 6.76784 9.44521 6.7042C9.39106 6.62541 9.37194 6.52239 9.34327 6.42845C9.09162 5.61328 8.5692 5.04053 7.70593 4.77083C7.52755 4.71628 7.35553 4.66173 7.34916 4.43748C7.34597 4.20718 7.5371 4.19505 7.69956 4.1405C8.57238 3.84353 9.18081 3.30109 9.41336 2.42531C9.45477 2.2647 9.52485 2.11621 9.73191 2.11621C9.93578 2.11924 9.99948 2.26167 10.0377 2.42834C10.2448 3.31018 10.8341 3.84959 11.7165 4.12232C11.9012 4.1799 12.0318 4.26172 12.0382 4.45567C12.0446 4.65567 11.8726 4.68294 11.7228 4.72537C10.7799 4.99204 10.2352 5.61327 9.96445 6.49208C9.92622 6.62542 9.8211 6.73754 9.71916 6.89815ZM9.6682 5.4466C10.0313 5.10416 10.42 4.73749 10.8213 4.36173C10.3499 4.14051 9.97401 3.79504 9.76376 3.37078C9.3815 3.74049 9.00561 4.10717 8.66476 4.43748C8.99605 4.7678 9.34328 5.11932 9.6682 5.4466Z" fill="#FFEB61"/>
<path d="M40.6504 10.0893C40.6185 10.1165 40.558 10.2075 40.4752 10.2317C39.6947 10.462 39.1851 10.9226 39.0131 11.7014C38.9939 11.7863 38.8506 11.8923 38.755 11.9045C38.6818 11.9136 38.5575 11.8045 38.5129 11.7226C38.4014 11.5105 38.3473 11.2681 38.2262 11.062C37.9969 10.6741 37.6497 10.4135 37.1846 10.3075C37.0157 10.2681 36.8597 10.2135 36.8628 10.0075C36.866 9.81654 37.0126 9.77411 37.1686 9.71653C37.8089 9.48319 38.2708 9.08621 38.4397 8.42862C38.4524 8.3862 38.4556 8.32862 38.4874 8.30437C38.5703 8.23164 38.6626 8.12559 38.755 8.12256C38.841 8.12256 38.9589 8.21952 39.0099 8.30437C39.0831 8.42559 39.0863 8.58014 39.15 8.70742C39.4112 9.22865 39.8381 9.57713 40.4242 9.73471C40.6313 9.79229 40.6536 9.81957 40.6504 10.0893ZM39.4208 10.0226C39.1978 9.80139 38.9302 9.54381 38.7455 9.36198C38.5543 9.54987 38.2868 9.81351 38.0415 10.0529C38.2199 10.2256 38.4874 10.4863 38.6977 10.6923C38.9589 10.4499 39.2328 10.1953 39.4208 10.0226Z" fill="#FFEB61"/>
<path d="M31.1766 3.76175C31.1129 3.68902 31.0205 3.62538 30.9919 3.54356C30.8326 3.08598 30.6032 2.67385 30.1668 2.40111C30.0044 2.29808 29.8101 2.24353 29.6508 2.1405C29.552 2.07686 29.431 1.96473 29.4278 1.87382C29.4246 1.78594 29.5425 1.64049 29.6412 1.60715C30.3102 1.37382 30.7753 0.961681 31.0046 0.307118C31.0397 0.210146 31.1862 0.0798365 31.2658 0.0858973C31.3614 0.0949884 31.4888 0.228331 31.5175 0.328333C31.6991 0.973805 32.1546 1.35866 32.7789 1.59503C32.9223 1.64958 33.0433 1.69503 33.037 1.86473C33.0338 2.02534 32.9255 2.1011 32.7821 2.14959C32.0877 2.38293 31.6672 2.85567 31.4824 3.52235C31.4442 3.66175 31.3901 3.74054 31.1766 3.76175ZM31.8424 1.85867C31.6863 1.692 31.441 1.43442 31.2149 1.19502C30.9759 1.41321 30.7211 1.64352 30.5395 1.80716C30.7721 2.03747 31.0237 2.28899 31.2276 2.49202C31.4124 2.30111 31.6545 2.05262 31.8424 1.85867Z" fill="#FFEB61"/>
<path d="M15.4209 29.3351C14.72 29.3291 14.1753 28.7957 14.1817 28.1199C14.1881 27.4714 14.7646 26.9441 15.4591 26.9532C16.1599 26.9623 16.7046 27.4926 16.6982 28.1533C16.6887 28.82 16.128 29.3382 15.4209 29.3351ZM15.4368 28.92C15.8796 28.9169 16.2586 28.5593 16.2523 28.1472C16.2491 27.7381 15.8732 27.3866 15.4431 27.3866C15.0004 27.3866 14.6149 27.7442 14.6213 28.1533C14.6245 28.5745 14.994 28.92 15.4368 28.92Z" fill="#FFEB61"/>
<path d="M36.3057 24.25C36.3057 24.8773 35.8342 25.347 35.2035 25.3501C34.5409 25.3531 34.0312 24.8743 34.0312 24.2531C34.0312 23.6288 34.5282 23.15 35.1717 23.1561C35.8406 23.1621 36.3057 23.6137 36.3057 24.25ZM35.7036 24.2591C35.7068 23.9712 35.4679 23.7379 35.1653 23.7379C34.8881 23.7379 34.6556 23.9682 34.6429 24.2531C34.6333 24.5349 34.8627 24.7652 35.1494 24.7682C35.4584 24.7682 35.7004 24.544 35.7036 24.2591Z" fill="#FFEB61"/>
<path d="M27.8509 47.1902C27.2457 47.1872 26.7647 46.7084 26.7711 46.1084C26.7774 45.4962 27.2361 45.069 27.8828 45.0659C28.4944 45.0629 28.9786 45.5205 28.9786 46.1023C28.985 46.7175 28.4912 47.1902 27.8509 47.1902ZM28.3797 46.0993C28.3797 45.8447 28.1504 45.6417 27.8637 45.6417C27.5929 45.6417 27.3731 45.8569 27.3731 46.1266C27.3731 46.3963 27.5706 46.5902 27.8478 46.5932C28.1568 46.5993 28.3797 46.3932 28.3797 46.0993Z" fill="#FFEB61"/>
</svg>
