<svg width="48" height="48" viewBox="0 0 48 48" fill="none" xmlns="http://www.w3.org/2000/svg">
<path d="M23.0512 38.6959C23.0512 34.2758 23.0512 29.9212 23.0512 25.6287C22.5833 25.6582 22.1253 25.7302 21.6738 25.704C21.2223 25.6778 20.8002 25.4848 20.5123 25.1216C20.3945 24.9744 20.3095 24.7421 20.3258 24.5556C20.3422 24.3331 20.6007 24.3626 20.7741 24.2939C21.2288 24.1041 21.6509 23.8391 21.9061 23.2927C21.7163 23.3484 21.5789 23.3876 21.4448 23.4334C20.532 23.7279 19.6519 23.6461 18.8667 23.0932C18.232 22.6449 17.6398 22.1378 17.0378 21.6471C16.8611 21.5031 16.7728 21.3068 16.8677 21.0778C16.9625 20.8521 17.1621 20.8488 17.378 20.8521C17.8034 20.8651 18.2254 20.8553 18.6507 20.8455C18.7652 20.8422 18.8798 20.803 19.0073 20.7114C18.7194 20.5609 18.4315 20.4136 18.1469 20.2566C16.2002 19.1933 14.6952 17.721 13.9264 15.601C13.7301 15.0546 13.6254 14.469 13.5338 13.8931C13.3702 12.856 13.8446 11.9956 14.4172 11.1973C14.7443 10.7425 15.1664 10.3532 15.5295 9.92131C15.6179 9.81661 15.6997 9.66612 15.7062 9.53525C15.8109 7.06184 17.7052 5.04974 20.1623 4.85671C20.5254 4.82726 20.8035 4.72257 21.098 4.53608C23.0217 3.33536 25.6064 3.42698 27.4582 4.73566C27.5661 4.81091 27.7264 4.8109 27.8671 4.84362C28.4364 4.97122 29.0482 5.00066 29.5651 5.23623C31.43 6.09341 32.4246 7.56895 32.4998 9.64321C32.5031 9.74136 32.5849 9.85914 32.6667 9.92785C33.4061 10.5691 33.9427 11.3543 34.3713 12.2279C34.7148 12.928 34.6984 13.6543 34.5479 14.3904C34.0768 16.6806 32.8172 18.4343 30.8967 19.7299C30.3634 20.0897 29.7909 20.394 29.1791 20.7572C29.5815 20.8782 29.961 20.9044 30.3438 20.8815C30.5139 20.8717 30.684 20.803 30.8509 20.8063C30.985 20.8095 31.1846 20.8488 31.237 20.9371C31.3057 21.0614 31.2991 21.261 31.2566 21.4082C31.2206 21.5326 31.1028 21.6471 30.9949 21.7321C30.4223 22.1935 29.8563 22.6711 29.2543 23.0964C28.4397 23.6755 27.5465 23.7148 26.6206 23.3876C26.5388 23.3582 26.4537 23.332 26.3589 23.2993C26.4407 23.6755 27.0394 24.2056 27.4811 24.307C27.8671 24.3953 27.9685 24.608 27.7624 24.958C27.4614 25.4652 26.9609 25.668 26.4079 25.6974C25.9924 25.7204 25.5737 25.6386 25.1418 25.6026C25.1418 29.9179 25.1418 34.2693 25.1418 38.6174C25.4591 38.2935 25.819 38.0743 25.7765 37.4886C25.6849 36.2683 26.1364 35.1625 26.83 34.1679C27.926 32.5942 29.5062 31.8515 31.3482 31.5734C32.3559 31.4229 33.357 31.4818 34.3549 31.6618C34.4923 31.6879 34.6297 31.7337 34.7671 31.7632C35.006 31.8123 35.0976 31.966 35.1074 32.195C35.2055 34.5932 34.067 37.6326 31.5412 38.9151C29.8203 39.7887 28.0471 39.8148 26.2476 39.167C26.156 39.1343 26.071 39.0754 25.9597 39.0198C25.7078 39.2946 25.4428 39.5596 25.2105 39.8476C25.1385 39.9359 25.1287 40.0929 25.1287 40.2173C25.1222 42.3929 25.1287 44.5686 25.1189 46.741C25.1189 46.9668 25.0927 47.2154 24.9946 47.4117C24.7721 47.86 24.2911 48.0563 23.8495 47.945C23.3751 47.824 23.0544 47.4052 23.0544 46.8915C23.0512 44.7158 23.0414 42.5402 23.0512 40.3678C23.0512 40.07 22.9399 39.8704 22.7731 39.6382C22.4099 39.1343 22.0239 38.8889 21.4448 39.2914C18.2091 40.2074 14.6625 38.9217 13.4062 34.8811C13.1575 34.0828 13.0594 33.2616 13.0659 32.4273C13.0725 31.8744 13.1183 31.7926 13.6581 31.6977C15.824 31.315 17.931 31.4295 19.822 32.6727C21.6771 33.8931 22.5637 35.6402 22.4066 37.8845C22.4034 37.9434 22.4394 38.0089 22.4623 38.0677C22.4688 38.0841 22.4917 38.0972 22.5048 38.1103C22.6717 38.2935 22.8385 38.4702 23.0512 38.6959ZM17.1523 15.264C17.1261 15.2705 17.0967 15.2738 17.0705 15.2804C17.1457 15.673 17.1981 16.0754 17.2995 16.4614C17.7248 18.1104 18.5035 19.5466 20.0118 20.4333C22.0991 21.6602 24.3271 21.899 26.6402 21.1694C27.9751 20.7474 29.094 20.0014 29.804 18.7713C30.1868 18.1104 30.4976 17.4037 30.7757 16.6937C30.9556 16.2357 31.0145 15.7318 31.1454 15.1822C30.6513 15.7351 30.2522 16.2422 29.7876 16.6839C28.4331 17.9762 26.8136 18.7058 24.9324 18.7124C24.3402 18.7124 23.7415 18.5128 23.1526 18.3787C22.2561 18.1725 21.3532 17.9926 20.4796 17.7145C19.112 17.2696 17.9833 16.4614 17.1523 15.264ZM28.0274 13.5856C28.0634 13.5987 28.1027 13.6085 28.1387 13.6216C28.2041 13.494 28.2892 13.3697 28.3317 13.2355C28.5803 12.434 28.8323 11.6357 29.058 10.8308C29.1758 10.4055 29.3263 9.96384 29.3165 9.53197C29.2968 8.45558 28.9337 7.47407 28.2826 6.60707C27.1964 5.15771 25.7438 4.36268 23.9313 4.44775C21.8864 4.54263 20.4044 5.61247 19.4523 7.41191C19.3247 7.65401 19.2495 7.92557 19.148 8.19385C19.4229 8.27564 19.6453 8.33453 19.8645 8.40651C20.0837 8.48176 20.3291 8.67479 20.5091 8.62244C20.7021 8.56682 20.8264 8.28872 20.9802 8.1055C21.9617 6.94405 23.5877 6.52201 24.8408 7.12073C25.3773 7.37592 25.8256 7.70963 25.6816 8.42614C25.7798 8.44904 25.8583 8.46867 25.9335 8.48502C26.6926 8.66497 27.3862 8.97578 27.9522 9.53197C28.1125 9.69229 28.2008 9.86241 28.1387 10.1012C28.083 10.3106 28.0405 10.5331 28.0372 10.749C28.0242 11.567 28.0274 12.3882 28.0274 13.2061C28.0274 13.3304 28.0274 13.458 28.0274 13.5856ZM21.6116 36.9914C21.6345 36.9783 21.6542 36.9652 21.6771 36.9554C21.6672 36.8474 21.664 36.7394 21.6411 36.6347C21.4546 35.7121 21.0522 34.8909 20.4404 34.1842C18.762 32.2409 15.8109 32.002 13.9853 32.4437C13.9133 32.4601 13.8184 32.6171 13.825 32.6989C13.8937 33.3009 13.9329 33.9127 14.0802 34.495C14.7836 37.276 17.1032 39.0035 19.8809 38.817C20.4763 38.7777 21.062 38.6174 21.6869 38.5094C21.5364 38.2215 21.3826 38.1495 21.1503 38.1626C19.8056 38.2346 18.533 38.0023 17.3944 37.2302C16.7172 36.7689 16.1348 36.216 15.7258 35.4995C15.5622 35.2148 15.644 34.9662 15.9123 34.8844C16.1773 34.8026 16.2722 35.012 16.3834 35.1756C17.2406 36.4417 18.4544 37.132 19.9463 37.3545C20.2408 37.3971 20.5516 37.3611 20.9049 37.3611C19.8449 36.1309 18.6998 35.1069 17.3486 34.3184C17.2177 34.2431 17.0607 34.1679 16.992 34.0501C16.9265 33.9323 16.9036 33.7295 16.9625 33.6215C17.0116 33.5332 17.221 33.4808 17.3453 33.5005C17.5056 33.5266 17.6594 33.6346 17.8066 33.7164C19.0924 34.4362 20.1753 35.4013 21.1536 36.4941C21.3008 36.6609 21.4546 36.8245 21.6116 36.9914ZM26.5094 38.4865C26.7744 38.5585 27.0034 38.6239 27.2389 38.6828C28.8781 39.0787 30.4354 38.866 31.7997 37.8616C33.537 36.5857 34.2469 34.7601 34.3582 32.6629C34.368 32.4764 34.2796 32.4273 34.1161 32.3979C33.2425 32.231 32.369 32.2212 31.4922 32.3325C29.3067 32.6138 27.6904 33.6804 26.8463 35.7677C26.6828 36.1702 26.601 36.602 26.4799 37.0208C26.5126 37.0372 26.5421 37.0503 26.5748 37.0666C26.7253 36.8965 26.8758 36.7264 27.0296 36.5562C28.0798 35.3817 29.2314 34.3282 30.6088 33.543C30.9 33.3761 31.0996 33.4023 31.2141 33.6084C31.3318 33.8244 31.2533 34.0566 30.9883 34.2137C29.6207 35.0349 28.4757 36.1113 27.4123 37.2825C27.3894 37.3087 27.3796 37.3447 27.3502 37.4036C27.4156 37.4101 27.4549 37.4167 27.4909 37.4167C29.1954 37.4396 30.5695 36.7754 31.6067 35.4209C31.7179 35.277 31.8128 35.1199 31.9338 34.9825C32.1072 34.7862 32.333 34.7993 32.441 35.0382C32.4966 35.1625 32.4998 35.3719 32.4311 35.4831C32.2217 35.8234 31.9895 36.1636 31.7179 36.4581C30.4419 37.8453 28.8094 38.2837 26.987 38.1659C26.7351 38.1463 26.6075 38.2346 26.5094 38.4865ZM19.3509 10.4055C19.3509 11.8451 19.3476 13.2094 19.3607 14.5704C19.3607 14.6391 19.5046 14.7536 19.593 14.7634C20.3651 14.8616 21.1372 14.9434 21.9126 15.0284C23.5877 15.2149 25.2432 14.9826 26.8954 14.7601C27.1244 14.7307 27.3436 14.6391 27.5661 14.5802C27.5694 14.5442 27.5694 14.5082 27.5727 14.469C24.8539 13.1276 22.1318 11.7829 19.3509 10.4055ZM18.0487 15.2444C18.8732 16.0917 19.7991 16.7232 20.9049 17.0471C21.7654 17.299 22.6586 17.4528 23.519 17.7014C24.5365 17.9959 25.5278 18.0613 26.5519 17.708C28.0209 17.2008 29.2445 16.3796 30.1213 15.0808C30.2391 14.9074 30.3274 14.7143 30.4648 14.469C26.3654 16.1801 22.2627 16.0819 18.0487 15.2444ZM17.5285 18.9806C17.4991 18.8923 17.4925 18.8629 17.4795 18.84C16.7237 17.672 16.3442 16.3862 16.2918 15.0055C16.2624 14.217 16.246 13.4253 16.6877 12.7088C16.7237 12.6499 16.6812 12.5256 16.6419 12.4438C16.4423 12.0348 16.2264 11.6357 16.0301 11.2267C15.9516 11.0599 15.9058 10.8766 15.8338 10.6574C15.1696 11.338 14.6429 12.0512 14.3746 12.9149C14.2765 13.2323 14.2405 13.5987 14.2863 13.9259C14.584 16.0852 15.7455 17.6981 17.5285 18.9806ZM30.5499 19.0264C30.6579 18.9676 30.7004 18.9512 30.7364 18.9217C32.1956 17.8225 33.2491 16.4385 33.7202 14.6555C33.9001 13.9815 34.0964 13.2781 33.7169 12.6172C33.3701 12.0152 32.9644 11.4492 32.5784 10.8701C32.5358 10.8047 32.454 10.7621 32.4181 10.7327C32.1203 11.3707 31.8324 11.9792 31.5314 12.6237C32.2806 14.1549 31.9502 16.4582 30.5499 19.0264ZM18.5788 13.3664C18.5788 12.5092 18.5951 11.6946 18.5722 10.8799C18.5591 10.4317 18.5231 9.97366 18.4283 9.53525C18.1502 8.23638 18.5395 7.124 19.3116 6.10323C19.4065 5.9789 19.5014 5.85458 19.6192 5.70081C18.0913 6.04107 16.8644 7.38573 16.5568 8.86127C16.2068 10.556 17.1163 12.3031 18.5788 13.3664ZM28.865 13.9128C28.9533 13.8768 28.9926 13.8702 29.0253 13.8473C29.8367 13.2813 30.5532 12.6237 31.0767 11.7698C32.2937 9.78062 31.8193 7.52642 29.8858 6.24064C29.5193 5.99526 29.094 5.83495 28.6981 5.6321C28.6752 5.66482 28.6556 5.69753 28.6327 5.73352C28.721 5.8513 28.8159 5.96908 28.8977 6.09014C29.8269 7.42499 30.2653 8.87109 29.9185 10.5037C29.6731 11.6488 29.3852 12.784 28.865 13.9128ZM23.8004 40.1976C23.8364 40.2074 23.8724 40.2173 23.9051 40.2271C24.0981 40.0013 24.3926 39.8639 24.3926 39.4877C24.3893 34.747 24.3893 30.0063 24.3926 25.2656C24.3926 25.0398 24.3173 24.8795 24.0392 24.7258C23.9607 24.9286 23.8298 25.1085 23.8298 25.2917C23.8135 29.9801 23.8069 34.6717 23.8004 39.3601C23.8004 39.6414 23.8004 39.9195 23.8004 40.1976ZM27.2422 11.2954C26.758 11.7927 26.3032 11.7109 25.8419 11.4132C25.7503 11.3543 25.6424 11.315 25.5377 11.2758C23.6597 10.5887 21.7818 9.90167 19.9005 9.22116C19.6682 9.13609 19.4294 9.06412 19.1611 8.97578C19.1807 9.29313 19.2298 9.50253 19.5243 9.64321C21.965 10.8374 24.3958 12.0512 26.8333 13.2552C26.9543 13.3141 27.0852 13.3599 27.2389 13.422C27.2422 12.7153 27.2422 12.0512 27.2422 11.2954ZM26.7482 24.9155C26.4243 24.6047 26.1364 24.3986 25.9466 24.127C25.6064 23.6297 25.3054 23.0997 25.0273 22.5664C24.9226 22.3636 24.8212 22.2949 24.5987 22.3047C24.2682 22.3178 23.9313 22.3047 23.6008 22.2687C23.3653 22.2425 23.2507 22.2916 23.1559 22.5304C22.7927 23.4269 22.3445 24.271 21.5004 24.8272C21.484 24.837 21.484 24.8795 21.4579 24.9875C21.7981 24.958 22.1155 24.9777 22.4034 24.8959C23.0348 24.7159 23.483 24.2906 23.8004 23.7181C23.8626 23.6101 23.9934 23.4498 24.0719 23.4596C24.1865 23.476 24.314 23.6068 24.3795 23.7213C24.7492 24.3495 25.2334 24.8272 25.9793 24.9515C26.2051 24.9842 26.4439 24.9319 26.7482 24.9155ZM23.0806 9.65956C23.2213 9.70864 23.3162 9.74136 23.4111 9.77407C24.2552 10.0522 25.1025 10.3172 25.9401 10.6116C26.6566 10.8636 26.6958 10.8603 27.2193 10.3106C27.3862 10.1372 27.3502 10.0227 27.1866 9.89513C26.0808 9.01177 24.3958 8.9496 23.0806 9.65956ZM24.3762 41.1039C23.8135 41.5096 23.8004 41.5325 23.8004 42.1214C23.8004 43.1127 23.8004 44.104 23.8037 45.0954C23.8037 45.6319 23.8037 46.1685 23.8135 46.7018C23.8167 46.9111 23.7546 47.1958 24.0948 47.1991C24.4253 47.2023 24.3893 46.9341 24.3958 46.7116C24.3958 46.6919 24.3958 46.6723 24.3958 46.6494C24.3958 44.8991 24.3958 43.1487 24.3926 41.4016C24.3958 41.3165 24.3828 41.2315 24.3762 41.1039ZM22.3576 22.2098C22.2561 22.1607 22.1874 22.1215 22.1122 22.092C21.4579 21.8532 20.8035 21.6176 20.1492 21.3821C20.1034 21.3657 20.0477 21.3461 20.0052 21.3559C19.4294 21.4737 18.8536 21.5947 18.2876 21.7125C19.5046 22.9492 20.7446 23.1193 22.3576 22.2098ZM29.9087 21.6962C29.3754 21.5816 28.8552 21.4671 28.3317 21.3657C28.2335 21.3461 28.119 21.3788 28.0209 21.4148C27.4712 21.6144 26.9281 21.8237 26.3785 22.0201C26.2149 22.0789 26.0382 22.1051 25.8517 22.1509C26.7122 23.1324 28.8421 22.874 29.9087 21.6962ZM21.3728 8.95942C21.6018 9.0543 21.8014 9.14919 22.0108 9.21789C22.0827 9.24407 22.2005 9.23752 22.2594 9.19499C23.0381 8.63553 23.9378 8.44576 24.867 8.3607C24.8833 8.02044 24.7034 7.83396 24.229 7.69328C23.2115 7.38901 21.929 7.94847 21.3728 8.95942ZM17.257 13.3566C17.2275 13.3631 17.1981 13.3664 17.1687 13.3729C17.1817 13.5234 17.1392 13.7198 17.221 13.8179C17.5678 14.2301 18.0226 14.469 18.5984 14.4853C18.1502 14.1091 17.7052 13.7328 17.257 13.3566ZM30.9098 13.3206C30.5663 13.6183 30.2424 13.8997 29.8759 14.2171C30.8476 14.0044 31.1715 13.7165 30.9098 13.3206Z" fill="#FFEB61"/>
<path d="M33.4388 7.7031C33.3079 7.60822 33.2229 7.57223 33.1803 7.51007C33.128 7.43155 33.1116 7.32685 33.0822 7.23524C32.8434 6.42058 32.3461 5.84804 31.5281 5.58303C31.358 5.52741 31.1944 5.47507 31.1912 5.24932C31.1879 5.0203 31.3711 5.00722 31.5216 4.95487C32.3526 4.65715 32.9252 4.11731 33.1509 3.24377C33.1902 3.08346 33.2589 2.93296 33.4519 2.93623C33.6449 2.9395 33.7038 3.08346 33.7431 3.24704C33.9394 4.12713 34.4988 4.66695 35.3364 4.93523C35.5131 4.99085 35.6374 5.07265 35.6439 5.26895C35.6505 5.46853 35.4869 5.4947 35.3429 5.53723C34.4465 5.80224 33.9296 6.42386 33.6744 7.30068C33.6351 7.42827 33.5337 7.53951 33.4388 7.7031ZM33.3897 6.25373C33.7333 5.91347 34.103 5.54704 34.4825 5.1708C34.0343 4.95159 33.6776 4.6048 33.4781 4.18275C33.1149 4.55245 32.7583 4.91561 32.4344 5.24605C32.7518 5.57649 33.0789 5.92656 33.3897 6.25373Z" fill="#FFEB61"/>
<path d="M22.014 1.9907C21.9846 2.01687 21.9257 2.10849 21.8472 2.13139C21.1045 2.36041 20.6236 2.82171 20.46 3.59711C20.4404 3.68217 20.3062 3.78686 20.2146 3.79995C20.1459 3.80976 20.0281 3.7018 19.9856 3.61674C19.8809 3.40407 19.8285 3.16197 19.714 2.95586C19.4948 2.56979 19.1644 2.30806 18.726 2.20337C18.5657 2.16411 18.4184 2.10849 18.4217 1.90564C18.425 1.71588 18.5657 1.67335 18.7096 1.61446C19.3149 1.38217 19.7533 0.986292 19.9136 0.32868C19.9234 0.286148 19.93 0.230527 19.9594 0.204354C20.0379 0.132376 20.1263 0.0244141 20.2146 0.0244141C20.2964 0.0244141 20.4076 0.122561 20.4567 0.204354C20.5254 0.325407 20.532 0.47918 20.5909 0.606776C20.8395 1.12698 21.2419 1.47377 21.8014 1.63409C21.9977 1.69298 22.0173 1.72242 22.014 1.9907ZM20.846 1.92527C20.6334 1.70607 20.3815 1.4476 20.2048 1.26766C20.0249 1.45414 19.7697 1.71916 19.5374 1.95799C19.7042 2.13139 19.9627 2.38985 20.1623 2.59597C20.4109 2.35059 20.6694 2.09867 20.846 1.92527Z" fill="#FFEB61"/>
<path d="M20.1164 43.7834C20.0837 43.6951 20.0215 43.6068 20.0215 43.5217C20.0281 43.0407 19.9528 42.5827 19.6518 42.1901C19.5406 42.0429 19.3835 41.9316 19.2723 41.7844C19.2036 41.6961 19.1316 41.5521 19.1578 41.4638C19.184 41.3787 19.3345 41.2806 19.4359 41.2773C20.1131 41.2609 20.6628 41.0156 21.0816 40.4725C21.1437 40.3907 21.3171 40.3121 21.3891 40.3449C21.4709 40.3841 21.5429 40.5477 21.5363 40.6524C21.4905 41.3166 21.7752 41.8204 22.2594 42.2359C22.3706 42.3308 22.4655 42.4093 22.4066 42.5696C22.351 42.7201 22.2299 42.7594 22.086 42.7594C21.3891 42.7659 20.8591 43.0833 20.4763 43.6526C20.3912 43.7736 20.316 43.8292 20.1164 43.7834ZM21.3302 42.1934C21.2419 41.9873 21.1077 41.6699 20.9834 41.3722C20.6988 41.5031 20.3945 41.6437 20.1818 41.7419C20.316 42.0298 20.4599 42.3439 20.5777 42.5991C20.8035 42.478 21.1012 42.3177 21.3302 42.1934Z" fill="#FFEB61"/>
<path d="M20.1688 31.9268C19.1088 31.917 18.2843 31.0663 18.2941 29.9932C18.304 28.9594 19.1775 28.1218 20.2277 28.1349C21.2878 28.1512 22.1155 28.9953 22.1057 30.0455C22.0926 31.1089 21.2419 31.9333 20.1688 31.9268ZM20.195 31.2659C20.8657 31.2626 21.4383 30.6933 21.4317 30.0357C21.4252 29.3814 20.8592 28.8219 20.2048 28.8219C19.5308 28.8219 18.9518 29.3879 18.9583 30.0423C18.9648 30.7163 19.521 31.2692 20.195 31.2659Z" fill="#FFEB61"/>
<path d="M14.5153 9.12301C14.5153 9.74791 14.0671 10.2158 13.4683 10.219C12.8402 10.2223 12.356 9.74464 12.356 9.12629C12.356 8.50139 12.8271 8.02372 13.4389 8.03026C14.0736 8.04008 14.5153 8.4883 14.5153 9.12301ZM13.946 9.12955C13.9493 8.84164 13.7235 8.60935 13.4356 8.60935C13.1739 8.60935 12.9514 8.83837 12.9416 9.12301C12.9318 9.40438 13.1477 9.6334 13.4225 9.63667C13.7104 9.63994 13.9395 9.41746 13.946 9.12955Z" fill="#FFEB61"/>
<path d="M27.0688 42.9753C26.4929 42.9753 26.0382 42.4944 26.0447 41.8956C26.0513 41.2871 26.4864 40.8585 27.1015 40.8585C27.6838 40.8552 28.1419 41.3133 28.1419 41.8924C28.1451 42.5042 27.6773 42.9753 27.0688 42.9753ZM27.5726 41.8858C27.5726 41.6339 27.3534 41.4278 27.0818 41.4278C26.8234 41.4278 26.6173 41.6437 26.6173 41.912C26.6173 42.1803 26.8037 42.3733 27.0655 42.3766C27.3632 42.3864 27.5726 42.1803 27.5726 41.8858Z" fill="#FFEB61"/>
</svg>
