<svg width="23" height="49" viewBox="0 0 23 49" fill="none" xmlns="http://www.w3.org/2000/svg">
<g clip-path="url(#clip0_266_1357)">
<path d="M17.4164 17.2877C17.6078 17.7503 17.7954 18.1625 17.9443 18.5885C18.0143 18.7901 18.0343 19.017 18.0356 19.2325C18.0381 19.7632 17.6616 20.1224 17.1524 20.0027C16.7784 19.9144 16.3894 19.7506 16.0904 19.5136C15.6651 19.1758 15.3148 18.741 14.937 18.344C14.847 18.2494 14.7707 18.1436 14.6719 18.0238C14.7682 18.5393 14.887 19.0195 14.9395 19.5073C14.9796 19.8905 14.9833 20.29 14.9195 20.6682C14.8195 21.2593 14.2816 21.5151 13.7312 21.2845C13.3922 21.1433 13.1632 20.8799 12.9906 20.5661C12.8543 20.3165 12.7279 20.0606 12.6116 19.801C12.4965 19.5426 12.3989 19.2754 12.2926 19.012C12.2651 19.012 12.2388 19.0095 12.2113 19.0082C12.1913 19.3359 12.0974 19.68 12.1637 19.9901C13.0507 24.1065 13.0832 28.2797 13.0144 32.4605C12.9906 33.9453 12.9606 35.4288 12.9331 36.9135C12.9318 36.9891 12.9331 37.0648 12.9881 37.158C13.0281 37.0522 13.0869 36.9513 13.1069 36.8417C13.2808 35.8976 13.4459 34.9523 13.6173 34.0083C13.6836 33.644 13.7512 33.2785 13.8412 32.9193C13.9626 32.4366 14.224 32.3723 14.5843 32.7239C14.6981 32.8348 14.8019 32.9558 14.9671 33.1361C14.9671 32.9672 14.9608 32.8689 14.9671 32.7718C15.0246 32.042 15.0859 31.3135 15.1447 30.585C15.1447 30.5749 15.1447 30.5636 15.1485 30.5573C15.241 30.4262 15.3111 30.2422 15.4374 30.1855C15.51 30.1527 15.6738 30.3241 15.8189 30.4174C15.879 30.2296 15.9403 29.9977 16.0291 29.7758C16.1655 29.4317 16.3018 29.0864 16.4694 28.7587C16.6258 28.4537 16.871 28.4663 17.0336 28.7726C17.1036 28.9036 17.1474 29.0486 17.2162 29.22C17.5615 28.76 17.8842 28.3201 18.217 27.8865C18.5234 27.4882 18.8362 27.0937 19.1514 26.703C19.2577 26.5719 19.3741 26.4206 19.578 26.5089C19.7781 26.5958 19.7769 26.7887 19.7331 26.9513C19.5242 27.7189 19.3015 28.4839 19.0789 29.2477C19.0401 29.3813 18.9725 29.5061 18.8962 29.6876C19.0276 29.6523 19.1051 29.612 19.1789 29.617C19.309 29.6271 19.4929 29.6246 19.5517 29.704C19.6092 29.7821 19.588 29.9926 19.5192 30.0809C19.1764 30.522 18.8074 30.9417 18.4446 31.3665C18.3783 31.4446 18.297 31.5089 18.1569 31.6438C18.3433 31.6438 18.4496 31.6475 18.5547 31.6438C18.9675 31.6236 19.1439 31.853 18.9312 32.2097C18.7011 32.5966 18.4296 32.9735 18.1119 33.2911C17.6653 33.7373 17.1599 34.1255 16.6571 34.5566C16.8022 34.612 16.9473 34.6612 17.0874 34.7217C17.6365 34.9586 18.0881 35.3317 18.4759 35.7791C18.5572 35.8737 18.5935 36.0703 18.5522 36.1863C18.5259 36.2606 18.3095 36.3249 18.1995 36.2997C16.7334 35.9657 15.4649 36.4232 14.3491 37.3332C13.8262 37.7592 13.4034 38.3113 12.9443 38.8129C12.888 38.8747 12.8555 38.9831 12.8543 39.0701C12.8242 41.4106 12.798 43.7512 12.7754 46.0918C12.7729 46.3363 12.803 46.5821 12.8205 46.8871C12.8943 46.8014 12.9356 46.7598 12.9681 46.7132C13.3321 46.1825 13.6999 45.6544 14.0539 45.1162C14.1239 45.0091 14.164 44.8679 14.1765 44.7394C14.2553 43.9176 14.3341 43.0945 14.3866 42.2715C14.4104 41.8934 14.7782 41.8656 14.9808 42.066C15.1284 42.2123 15.251 42.3824 15.3849 42.5412C15.4199 42.5828 15.4574 42.6244 15.5325 42.7101C15.6175 42.3383 15.6826 42.0081 15.7714 41.6829C15.8777 41.2896 15.9866 40.8939 16.1279 40.512C16.2405 40.2082 16.4194 40.1918 16.6233 40.4502C16.7384 40.5977 16.8234 40.7691 16.9035 40.9014C17.1587 40.4489 17.4151 39.9801 17.6891 39.5226C17.7854 39.3625 17.9117 39.21 18.0556 39.0915C18.1532 39.0108 18.3183 38.9377 18.4234 38.9667C18.5034 38.9894 18.5647 39.1747 18.586 39.2957C18.6135 39.4482 18.5922 39.6095 18.5922 39.8591C19.0376 39.4759 19.4254 39.1507 19.8031 38.8129C20.1059 38.5407 20.3898 38.247 20.6963 37.9786C20.7726 37.9118 20.904 37.9092 21.0103 37.8777C21.0453 38.005 21.1379 38.15 21.1066 38.2571C20.8902 38.9919 20.5512 39.67 20.0959 40.2864C20.0408 40.3607 19.9895 40.4376 19.9407 40.5057C19.962 40.5397 19.9683 40.5624 19.982 40.5699C20.4349 40.8006 20.4524 40.9077 20.0921 41.2884C19.9945 41.3917 19.8882 41.4863 19.7794 41.5783C19.673 41.669 19.558 41.7522 19.4241 41.8568C19.7206 42.0723 19.5867 42.2312 19.3666 42.3585C18.8912 42.632 18.4121 42.8967 17.9343 43.1651C17.8442 43.2155 17.7566 43.271 17.6165 43.3542C17.9455 43.4134 18.2282 43.4449 18.4984 43.5231C18.6323 43.5621 18.7424 43.6857 18.8624 43.7714C18.7486 43.881 18.6523 44.0398 18.5172 44.0903C17.9493 44.2995 17.3688 44.4772 16.8072 44.6612C17.2713 44.9347 17.6053 45.3771 17.7779 45.9431C17.7942 45.9973 17.8204 46.0527 17.8217 46.1082C17.8254 46.2456 17.8667 46.4598 17.8017 46.5014C17.7016 46.567 17.5127 46.5518 17.3851 46.5052C16.537 46.1977 15.6776 46.2014 14.8195 46.4195C14.0164 46.6237 13.4047 47.114 12.9356 47.7958C12.823 47.9584 12.6979 48.116 12.559 48.2559C12.3239 48.4941 12.0274 48.5584 11.7222 48.4437C11.4094 48.3265 11.2118 48.0832 11.1793 47.7379C11.1367 47.2929 11.0829 46.8468 11.0779 46.4006C11.0579 44.8125 11.0054 43.2218 11.0679 41.635C11.1067 40.6367 10.6664 39.9372 9.95712 39.3978C9.05145 38.7096 8.00317 38.5999 6.91487 38.9213C6.83356 38.9453 6.756 38.9957 6.67469 39.0033C6.51708 39.0159 6.35821 39.007 6.19934 39.007C6.20435 38.8457 6.16682 38.6667 6.22186 38.5243C6.51207 37.7756 6.91612 37.1101 7.73798 36.7244C7.27639 36.4925 6.87234 36.2909 6.46954 36.0879C6.18308 35.943 5.89912 35.7918 5.61016 35.6518C5.36998 35.5359 5.3362 35.3557 5.49382 35.1716C5.69397 34.9397 5.92914 34.7393 6.13054 34.5452C5.79404 34.2957 5.42502 34.0247 5.0585 33.7486C4.98344 33.6919 4.91714 33.6226 4.85335 33.552C4.64569 33.3239 4.65695 33.2281 4.88087 32.9937C4.65695 32.6937 4.41302 32.4151 4.22663 32.1025C4.05651 31.8152 4.1128 31.7358 4.4443 31.6488C4.33547 31.2795 4.20537 30.9152 4.12406 30.5396C4.03274 30.1136 3.97145 29.68 3.92892 29.2465C3.91891 29.1368 4.00272 28.9679 4.09529 28.9099C4.25416 28.8104 4.35173 28.9478 4.45305 29.0801C4.81957 29.5628 5.19985 30.0342 5.58013 30.5069C5.64268 30.585 5.72774 30.6455 5.80155 30.7136C6.42951 30.0935 6.52208 30.1313 6.76976 31.0854C7.3627 30.759 7.45902 30.8195 7.54534 31.5064C7.63415 32.2122 7.75174 32.913 8.08073 33.6213C8.16454 33.5054 8.21958 33.4235 8.27963 33.3478C8.47477 33.1046 8.65616 32.8462 8.87507 32.6269C8.96388 32.5374 9.16904 32.4681 9.26536 32.5122C9.35793 32.555 9.42673 32.7605 9.41922 32.8878C9.39045 33.3617 9.30664 33.8318 9.28162 34.3045C9.2566 34.767 9.27662 35.2321 9.27662 35.696C9.31164 35.7048 9.34792 35.7136 9.38294 35.7224C9.46175 35.6266 9.52805 35.5157 9.62312 35.4388C9.80451 35.2939 9.98714 35.1338 10.196 35.0431C10.465 34.9246 10.5826 35.0393 10.5776 35.3292C10.5651 36.0136 10.5501 36.6992 10.5588 37.3836C10.5663 37.9723 10.7289 38.5281 10.9829 39.0575C11.0054 39.1041 11.0379 39.1444 11.1042 39.181C11.2293 33.4348 11.5833 27.6886 10.8027 21.9651C10.0797 21.9828 9.76948 21.7294 9.65815 21.0223C9.5981 20.6417 9.59185 20.2535 9.55932 19.8438C9.3917 20.0493 9.25285 20.2648 9.07021 20.4287C8.84755 20.6291 8.60612 20.827 8.33842 20.9517C7.78426 21.2101 7.26388 20.9127 7.1613 20.3026C7.12753 20.0984 7.13628 19.8867 7.13879 19.6787C7.13879 19.5489 7.1638 19.4191 7.18257 19.2313C6.95865 19.4405 6.79853 19.6485 6.58963 19.7695C6.31067 19.9308 6.0017 20.0909 5.69022 20.13C5.1961 20.1917 4.79455 19.7985 4.83083 19.3019C4.8571 18.9414 4.98595 18.586 5.09478 18.2368C5.14982 18.0591 5.2624 17.899 5.38749 17.6596C5.24239 17.7175 5.16358 17.7528 5.08227 17.7818C4.74327 17.8978 4.41052 18.0402 4.06401 18.1184C3.64245 18.2129 3.2359 18.1247 2.97946 17.7428C2.72177 17.3571 2.79558 16.9374 3.06453 16.5983C3.31346 16.2832 3.63745 16.0261 3.93017 15.7463C3.99396 15.6845 4.06777 15.6341 4.13282 15.5812C3.63495 15.5812 3.15459 15.6089 2.67924 15.5749C2.07004 15.5307 1.63722 15.1967 1.55967 14.7745C1.47961 14.3359 1.74605 13.896 2.29521 13.6023C2.53413 13.4738 2.79057 13.3792 3.06953 13.2557C2.73678 13.1687 2.4228 13.112 2.12758 13.0036C1.8111 12.8864 1.49086 12.7553 1.21191 12.5688C0.774085 12.2764 0.751568 11.8567 1.13435 11.4911C1.28071 11.3512 1.47585 11.258 1.65599 11.1584C1.77607 11.0916 1.91117 11.05 2.05503 10.9895C1.88115 10.8383 1.72229 10.7059 1.57217 10.5647C1.34701 10.3543 1.23693 10.0946 1.34075 9.79338C1.44208 9.49844 1.67725 9.32955 1.97872 9.2993C2.35275 9.26275 2.72928 9.26149 3.12082 9.24384C2.98822 9.14931 2.83686 9.06234 2.71052 8.94765C2.41655 8.6817 2.11508 8.41954 1.85488 8.12208C1.61471 7.84731 1.49837 7.50196 1.65849 7.14149C1.81986 6.77471 2.17012 6.71169 2.51787 6.70539C2.76931 6.7016 3.02074 6.75076 3.33348 6.78227C3.25342 6.66631 3.17961 6.58691 3.13708 6.49238C2.97071 6.12434 2.75305 5.76512 2.66673 5.37818C2.52413 4.74041 3.06828 4.27659 3.68874 4.48203C3.99772 4.58412 4.28168 4.76184 4.53561 4.88536C4.48558 4.60429 4.3855 4.27533 4.378 3.9451C4.36299 3.26952 4.86711 2.90905 5.47631 3.19138C5.90538 3.39052 6.2794 3.71192 6.67469 3.98291C6.74725 4.03207 6.80479 4.10265 6.8886 4.18205C6.79103 3.71444 6.68095 3.29347 6.6209 2.86619C6.58588 2.61789 6.59964 2.34943 6.64967 2.10365C6.76101 1.55411 7.31141 1.26674 7.77676 1.56798C8.13827 1.80115 8.4385 2.15154 8.7112 2.49437C8.93136 2.7704 9.07021 3.11197 9.24909 3.43085C9.24909 3.10819 9.21657 2.79183 9.2566 2.48429C9.30789 2.0923 9.37043 1.68897 9.51429 1.32598C9.74946 0.729806 10.3749 0.636536 10.8178 1.09406C11.2431 1.53394 11.4094 2.10113 11.5658 2.67209C11.5883 2.7515 11.6096 2.8309 11.6484 2.97207C11.771 2.59521 11.841 2.26624 11.9824 1.9713C12.1688 1.58184 12.3589 1.17347 12.6391 0.854586C13.1145 0.311351 13.6361 0.403361 13.9225 1.06633C14.0664 1.39782 14.1627 1.77972 14.1627 2.13894C14.1627 2.8788 14.0839 3.61739 14.0351 4.35725C14.0264 4.49716 14.0076 4.63706 14.0489 4.79965C14.0989 4.71647 14.144 4.62824 14.2015 4.55009C14.6531 3.93123 15.0934 3.30229 15.5688 2.70234C15.7276 2.50067 15.9666 2.35321 16.1917 2.21834C16.5295 2.01542 16.8922 1.98391 17.235 2.21456C17.574 2.4427 17.6578 2.80695 17.6065 3.17247C17.554 3.55059 17.4176 3.91737 17.3126 4.31188C17.3864 4.26398 17.4627 4.20348 17.5477 4.16189C17.8605 4.01064 18.1669 3.83166 18.4959 3.73083C18.8299 3.62874 19.1802 3.65269 19.4266 3.96527C19.6693 4.27406 19.6793 4.62194 19.5092 4.95846C19.3816 5.20929 19.2065 5.43742 19.0488 5.67185C18.9925 5.7563 18.9212 5.8294 18.8337 5.93654C19.2452 5.8042 19.6117 5.66555 19.9908 5.57102C20.2059 5.51682 20.4411 5.50926 20.6638 5.52691C21.2492 5.57606 21.5569 6.08149 21.3493 6.63354C21.1666 7.12132 20.8014 7.47045 20.4324 7.81328C20.3435 7.89521 20.251 7.97335 20.1697 8.10444C20.2635 8.09183 20.3561 8.06914 20.4499 8.07041C20.8814 8.07797 21.3155 8.06536 21.7421 8.11704C21.9322 8.13973 22.1311 8.26703 22.2825 8.39937C22.594 8.67162 22.624 9.01949 22.3525 9.33081C22.1686 9.5413 21.9472 9.73792 21.7045 9.87026C21.2755 10.1047 20.8176 10.2875 20.3698 10.4879C20.281 10.5269 20.1859 10.5496 20.0371 10.5975C20.5825 10.7059 21.0641 10.7778 21.5319 10.9025C21.8384 10.9845 22.1461 11.108 22.4138 11.2744C23.033 11.66 23.0155 12.4075 22.345 12.6847C21.7596 12.9267 21.1154 13.0238 20.4962 13.1788C20.3723 13.2103 20.241 13.2103 20.1096 13.2721C20.3623 13.3717 20.6187 13.4612 20.8652 13.5746C21.2655 13.7586 21.622 14.0082 21.8647 14.3901C22.3325 15.1262 21.9397 15.9114 21.0716 15.9114C20.5975 15.9114 20.1234 15.7891 19.6493 15.7211C19.5892 15.7122 19.5317 15.6959 19.4291 15.6744C19.6443 15.9492 19.8619 16.1672 20.007 16.4269C20.1859 16.7458 20.3598 17.0848 20.4361 17.4377C20.58 18.1045 20.0333 18.6112 19.3991 18.378C18.8562 18.1776 18.3571 17.8574 17.8417 17.5814C17.7016 17.5058 17.5777 17.3999 17.4176 17.2877H17.4164ZM5.79654 31.5694C5.42377 31.132 5.05224 30.6947 4.67947 30.2561L4.57314 30.3241C4.74577 30.7905 4.93841 31.2505 5.08477 31.7257C5.16608 31.9904 5.29743 32.1756 5.62392 32.3256C5.50383 32.1404 5.42877 32.0168 5.34496 31.8996C5.23363 31.7459 5.2649 31.6387 5.40876 31.5139C5.57763 31.3665 5.67646 31.519 5.80405 31.5631C5.84408 31.6564 5.8766 31.7547 5.92664 31.8429C6.77602 33.3529 7.84181 34.7128 8.85881 36.1056C8.89258 36.1522 8.94387 36.1863 9.04519 36.2795C8.68243 35.3103 8.72746 34.3814 8.78625 33.4411C8.60862 33.6793 8.47477 33.9276 8.33342 34.1721C8.27588 34.2717 8.20457 34.3637 8.13953 34.4595C8.01443 34.3688 7.84931 34.3045 7.773 34.1822C7.64916 33.9843 7.5666 33.7549 7.49905 33.5293C7.33143 32.971 7.18257 32.4076 7.0187 31.8215C6.9549 31.9891 6.91612 32.1567 6.82981 32.2954C6.77977 32.3748 6.65343 32.4076 6.56211 32.4605C6.51583 32.3786 6.43577 32.2979 6.42951 32.2122C6.41325 31.9324 6.42326 31.6513 6.42326 31.3703C6.39198 31.3564 6.36196 31.3413 6.33069 31.3274C6.22811 31.4686 6.12429 31.6085 6.02046 31.7509C5.91038 31.6614 5.85284 31.6148 5.79529 31.5694H5.79654ZM13.7562 14.1594C13.7174 14.0409 13.6611 13.9124 13.6323 13.7763C13.5623 13.4536 13.7324 13.2771 14.0526 13.3276C14.0989 13.3351 14.1465 13.3591 14.1902 13.354C14.2603 13.3465 14.3591 13.3414 14.3879 13.2973C14.4167 13.2519 14.3841 13.1587 14.3641 13.0906C14.3479 13.0377 14.3078 12.9923 14.2828 12.9419C14.1327 12.6381 14.2215 12.4541 14.5518 12.381C14.6643 12.357 14.7769 12.3369 14.8908 12.3142C14.7644 12.1755 14.6256 12.1239 14.5055 12.0419C14.4042 11.9714 14.2428 11.8516 14.2553 11.7798C14.2753 11.6676 14.4029 11.5504 14.5142 11.4848C14.6631 11.3966 14.8395 11.3563 15.0822 11.2681C14.872 11.2164 14.7306 11.205 14.6131 11.1445C14.4892 11.0815 14.3904 10.9706 14.2803 10.8811C14.3841 10.7828 14.4842 10.6807 14.593 10.5887C14.6256 10.561 14.6894 10.571 14.7256 10.5446C14.8207 10.4727 14.9083 10.3908 15.0471 10.2698C14.7532 10.1929 14.5368 10.1614 14.3391 10.0795C14.0389 9.95597 14.2128 9.72532 14.2716 9.54508C14.0652 9.55768 13.8362 9.63835 13.7074 9.55768C13.6198 9.50349 13.6699 9.22241 13.6574 9.02579C12.9756 9.30182 12.9756 8.81656 13.0144 8.25316C12.868 8.41323 12.7917 8.4939 12.7179 8.57835C12.4314 8.90479 12.2476 8.89471 12.0124 8.52793C11.9236 8.38929 11.8485 8.2393 11.7372 8.04268C11.6409 8.23804 11.5671 8.37668 11.502 8.51911C11.3006 8.95269 11.0016 8.99806 10.6701 8.64389C10.6126 8.58213 10.5463 8.52667 10.4675 8.45231C10.3612 8.68926 10.5063 9.01319 10.1898 9.06234C9.98339 9.09385 9.76322 9.03335 9.55057 9.01445C9.54431 9.48584 9.44674 9.5602 8.93261 9.45181C8.83879 9.43164 8.74247 9.42786 8.6474 9.41778C8.63364 9.44046 8.61988 9.46441 8.60487 9.4871C8.69368 9.6018 8.79251 9.71145 8.86881 9.83371C8.92511 9.92446 9.01017 10.0757 8.97639 10.1249C8.9176 10.2093 8.78125 10.2585 8.66867 10.2812C8.50354 10.3152 8.32841 10.2975 8.16329 10.3328C7.97816 10.3719 7.93062 10.4904 8.06947 10.6404C8.12577 10.7021 8.21333 10.7349 8.27087 10.7954C8.38596 10.9177 8.48978 11.05 8.59861 11.1773C8.47602 11.2807 8.35468 11.3853 8.23209 11.4874C8.14328 11.5617 8.05071 11.6323 7.96064 11.7054C8.04696 11.7861 8.12451 11.8806 8.22209 11.9436C8.49229 12.1188 8.53232 12.2134 8.38346 12.5007C8.28463 12.6898 8.15704 12.8637 8.00693 13.1019C8.18081 13.0578 8.29714 13.0339 8.40973 12.9998C8.75123 12.8978 8.82628 12.9482 8.80252 13.3011C8.78875 13.4927 8.74622 13.6817 8.70369 13.9515C8.88132 13.8468 8.99015 13.7838 9.09898 13.7195C9.38294 13.5494 9.57434 13.6515 9.59435 13.9855C9.60186 14.1153 9.59435 14.2451 9.59435 14.4329C9.75197 14.346 9.87456 14.2855 9.99089 14.2136C10.2886 14.0321 10.4225 14.08 10.54 14.4153C10.5588 14.4695 10.5626 14.5338 10.5963 14.5754C10.6476 14.6409 10.7177 14.6901 10.7802 14.7468C10.8215 14.6674 10.8966 14.588 10.8978 14.5073C10.9016 14.3069 10.8966 14.0964 11.1355 14.0535C11.3907 14.0069 11.4457 14.2325 11.487 14.4153C11.5458 14.6724 11.6959 14.777 11.8848 14.7682C12.0487 14.5728 12.17 14.2993 12.3251 14.2779C12.484 14.2565 12.6754 14.4821 12.8242 14.5791C12.9005 14.4216 12.9493 14.133 13.0944 14.0699C13.2621 13.9968 13.5147 14.1203 13.7599 14.1632L13.7562 14.1594ZM11.8548 20.7135C11.8298 20.7123 11.8035 20.711 11.7785 20.7097C11.6496 20.9517 11.542 21.2076 11.3857 21.4294C11.2643 21.5996 11.2443 21.7382 11.2656 21.9525C11.437 23.6553 11.6421 25.3581 11.7134 27.066C11.8798 31.0804 11.7272 35.0947 11.5983 39.1079C11.517 41.6476 11.4245 44.1861 11.5746 46.7258C11.5921 47.0295 11.6108 47.3333 11.6484 47.6358C11.6759 47.8538 11.7922 48.0202 12.0362 48.0063C12.2738 47.9925 12.3376 47.8097 12.3526 47.6043C12.3576 47.5286 12.3539 47.4518 12.3526 47.3761C12.3276 46.359 12.2676 45.3406 12.2838 44.3234C12.3314 41.2884 12.4227 38.2546 12.4727 35.2208C12.5403 31.1686 12.6716 27.1139 12.1988 23.0743C12.1062 22.2853 11.9711 21.5 11.856 20.7135H11.8548ZM7.00244 10.8584C6.71973 10.7752 6.4783 10.6996 6.23437 10.6341C5.18734 10.3505 4.14407 10.0518 3.0908 9.79716C2.77681 9.72154 2.43406 9.74422 2.10632 9.76313C1.85989 9.77699 1.7423 9.98496 1.8824 10.1236C2.27519 10.5105 2.7518 10.7803 3.3022 10.8105C4.13031 10.8559 4.96218 10.813 5.79029 10.8609C6.33694 10.8937 6.90862 10.9076 7.35019 11.2618C7.49405 11.1735 7.61914 11.0966 7.74423 11.0198C7.52907 10.8055 7.23261 10.5673 7.45277 10.2534C7.60663 10.0354 7.91936 9.93076 8.1683 9.77069C8.03945 9.61818 7.84556 9.44046 8.00568 9.15687C8.01944 9.13293 7.94938 9.04974 7.9056 9.00815C7.52657 8.63885 7.12753 8.28719 6.76726 7.90025C6.1468 7.23602 5.56262 6.53649 4.93716 5.87604C4.56564 5.48405 4.14532 5.13744 3.61243 4.97485C3.24716 4.86393 3.03325 5.05047 3.15084 5.41221C3.24216 5.69454 3.39727 5.96679 3.5699 6.21131C4.0415 6.88184 4.74202 7.27383 5.41501 7.69606C6.15181 8.15863 6.88485 8.62876 7.62039 9.09385C7.78426 9.19721 7.91311 9.29804 7.77676 9.52491C7.62164 9.78077 7.48404 9.59297 7.3577 9.51735C6.91237 9.24888 6.4758 8.96403 6.03547 8.68926C5.11979 8.1183 4.20287 7.54734 3.14459 7.27509C2.91066 7.21459 2.65923 7.19064 2.4178 7.1982C2.08755 7.20829 1.98123 7.41373 2.15886 7.69985C2.27644 7.89017 2.43031 8.06788 2.59918 8.21535C3.43105 8.93882 4.38425 9.45181 5.42127 9.81102C5.98043 10.0039 6.5421 10.1904 7.12628 10.3883C7.08875 10.5332 7.05122 10.6757 7.00244 10.8609V10.8584ZM14.4342 13.838C14.4042 13.8594 14.3741 13.8809 14.3441 13.9036C14.4292 14.0548 14.4817 14.2413 14.6043 14.3523C15.1872 14.8791 15.7839 15.3908 16.3831 15.8988C17.26 16.6412 18.1782 17.3205 19.2227 17.8096C19.3491 17.8688 19.4879 17.9091 19.6255 17.9318C19.8519 17.9696 19.9883 17.8461 19.957 17.6268C19.9245 17.3974 19.8857 17.1352 19.7556 16.9588C19.4129 16.4975 19.0613 16.0273 18.6373 15.6467C17.6903 14.7972 16.627 14.1052 15.4975 13.5204C15.4174 13.4788 15.3774 13.3616 15.3186 13.2797C15.4174 13.2229 15.5212 13.112 15.6138 13.1208C15.7864 13.1385 15.9666 13.199 16.1167 13.2872C16.7596 13.6666 17.3989 14.0535 18.0281 14.4556C18.6648 14.8615 19.3378 15.1791 20.0771 15.3215C20.4161 15.3871 20.7701 15.4123 21.1154 15.3959C21.2667 15.3883 21.4831 15.2648 21.5369 15.1362C21.5907 15.0102 21.5182 14.7833 21.4268 14.6522C21.3068 14.4783 21.1316 14.3321 20.954 14.2111C20.3248 13.7838 19.6117 13.5443 18.8762 13.4221C17.7604 13.2355 16.6346 13.107 15.5125 12.9646C15.3036 12.9381 15.0884 12.9608 14.8645 12.9608C15.0809 13.7044 14.9771 13.901 14.4329 13.8405L14.4342 13.838ZM15.5025 12.4112C15.824 12.4604 16.2418 12.5234 16.6596 12.5877C18.1632 12.8184 19.6668 12.865 21.1641 12.5511C21.4931 12.4818 21.8196 12.3709 22.1286 12.236C22.4764 12.0835 22.4776 11.9071 22.1586 11.6903C22.0498 11.6172 21.9297 11.5579 21.8071 11.5088C20.8627 11.1294 19.8732 11.0966 18.88 11.1597C17.9293 11.2202 16.9823 11.3676 16.0316 11.3903C15.6038 11.4004 15.4136 11.66 15.176 11.8352C15.2798 12.0193 15.3686 12.1793 15.5 12.4125L15.5025 12.4112ZM11.6796 7.57255C11.9457 7.54818 12.1129 7.607 12.1813 7.749C12.3151 8.02755 12.4915 8.0641 12.6554 7.80698C12.8055 7.57128 12.9356 7.30282 12.9906 7.03057C13.232 5.82058 13.4822 4.61059 13.6461 3.388C13.7274 2.77544 13.6511 2.13768 13.5998 1.51378C13.586 1.34993 13.4259 1.12305 13.2808 1.06885C13.1807 1.0323 12.9218 1.20876 12.853 1.34992C12.6078 1.84778 12.3239 2.35321 12.2175 2.88888C12.0049 3.9577 11.8885 5.04669 11.7572 6.13064C11.7009 6.59951 11.7047 7.07594 11.6809 7.57128L11.6796 7.57255ZM13.6724 8.56196C13.9601 8.46743 14.2115 8.25442 14.4042 7.96075C14.6919 7.52591 15.0033 7.10493 15.2698 6.65749C15.8502 5.68068 16.4181 4.6963 16.9685 3.70184C17.0786 3.50396 17.1224 3.24936 17.1312 3.0187C17.1462 2.61789 16.8159 2.42253 16.4807 2.63302C16.243 2.78175 16.0203 2.96955 15.8315 3.17625C14.6531 4.46691 13.9013 6.00208 13.3671 7.65447C13.3484 7.71245 13.3396 7.78933 13.3609 7.84353C13.4547 8.08049 13.5623 8.31114 13.6724 8.56322V8.56196ZM15.5087 9.97236C16.0566 9.71397 16.6833 9.42912 17.3013 9.12536C18.3458 8.61364 19.3803 8.08049 20.2397 7.27131C20.4649 7.05956 20.6688 6.81504 20.8439 6.56044C21.0553 6.2529 20.9227 6.03485 20.5474 6.02477C20.4811 6.02351 20.4148 6.02603 20.3498 6.03107C19.7694 6.07014 19.259 6.31718 18.7549 6.57935C17.3901 7.28517 16.2493 8.30232 15.0909 9.29174C14.9858 9.38123 14.9045 9.4997 14.8257 9.58919C15.0371 9.70767 15.231 9.81733 15.51 9.97362L15.5087 9.97236ZM13.875 36.9803C14.4054 36.6413 14.8845 36.3362 15.3786 36.0211C15.226 35.827 15.0046 35.6191 15.2836 35.372C15.5187 35.1641 15.7264 35.3657 15.9565 35.43C15.864 35.6153 15.7877 35.7678 15.7064 35.9279C16.3593 35.8245 16.9723 35.7275 17.6753 35.6153C17.3088 35.4376 17.0161 35.2914 16.7184 35.154C16.5195 35.062 16.3431 34.9473 16.0854 35.0469C15.8577 35.1338 15.6713 34.8931 15.7677 34.6712C15.8114 34.5729 15.899 34.4872 15.9853 34.4166C16.4544 34.0335 16.9298 33.6579 17.4014 33.2785C17.4602 33.2319 17.5114 33.1777 17.5903 33.1046C17.3989 33.0882 17.2575 33.0882 17.1199 33.0617C16.896 33.0189 16.851 32.8865 17.0186 32.7302C17.1011 32.6533 17.2275 32.6143 17.3413 32.584C17.6491 32.5034 17.948 32.4164 18.1619 32.1063C18.0931 32.1 18.0556 32.1038 18.0243 32.0912C17.8755 32.0332 17.6541 32.0068 17.6028 31.8996C17.5527 31.7937 17.6415 31.5782 17.7316 31.4572C17.9355 31.185 18.1794 30.943 18.4046 30.6871C18.5447 30.5283 18.6798 30.367 18.8612 30.1565C18.7286 30.1565 18.6836 30.159 18.6385 30.1565C18.3208 30.1351 18.2195 29.9825 18.3358 29.6838C18.3908 29.5427 18.4747 29.4128 18.5297 29.2717C18.7273 28.7637 18.9175 28.252 19.1101 27.7415C19.0851 27.7289 19.0601 27.7163 19.0363 27.7037C19.0013 27.7289 18.9575 27.7491 18.9325 27.7819C18.5134 28.344 18.0931 28.9062 17.6803 29.4721C17.6203 29.554 17.5965 29.6624 17.5477 29.7532C17.4902 29.859 17.4226 29.9586 17.3588 30.0607C17.2237 29.975 17.0649 29.912 16.9598 29.7985C16.8597 29.6901 16.8147 29.5301 16.7459 29.3914C16.7159 29.3927 16.6871 29.3952 16.6571 29.3965C16.5145 29.9107 16.3731 30.4249 16.2305 30.9379L16.3193 30.9682C16.3418 30.9417 16.3669 30.9152 16.3881 30.8875C16.4982 30.7463 16.5683 30.4842 16.7972 30.6191C16.8722 30.6632 16.866 30.9468 16.8184 31.0942C16.2017 32.9697 15.4086 34.7595 14.2565 36.3715C14.1277 36.5518 14.0176 36.7471 13.8713 36.9791L13.875 36.9803ZM11.0467 8.16872C11.088 8.01747 11.1643 7.85236 11.1743 7.68346C11.2356 6.65875 11.3019 5.6353 11.3244 4.60933C11.3444 3.69932 11.188 2.80947 10.8102 1.97509C10.7189 1.77216 10.5888 1.57302 10.4337 1.41673C10.2261 1.20624 9.9959 1.26548 9.91334 1.54781C9.83078 1.82762 9.76823 2.12129 9.75572 2.41119C9.67191 4.26146 10.1523 6.04493 10.3824 7.8095C10.6139 7.93428 10.8077 8.04015 11.0479 8.16872H11.0467ZM10.8253 15.3833C10.6264 16.3525 10.4137 17.3067 10.2373 18.2671C10.0835 19.109 9.99214 19.9611 10.1135 20.8181C10.1498 21.0765 10.1823 21.3979 10.4975 21.4509C10.8077 21.5038 10.9691 21.2278 11.0729 20.9883C11.2556 20.5635 11.4395 20.13 11.542 19.6813C11.7472 18.7864 11.9799 17.8877 11.7935 16.9512C11.6896 16.4294 11.6046 15.9051 11.507 15.382C11.4945 15.3127 11.4645 15.2472 11.4395 15.1728C11.2143 15.2497 11.0129 15.319 10.824 15.3833H10.8253ZM13.4472 14.8652C13.4835 14.9825 13.5147 15.1262 13.571 15.2598C14.2003 16.7483 15.186 17.9759 16.3431 19.0725C16.542 19.2603 16.8134 19.3926 17.0736 19.4884C17.4251 19.6182 17.6115 19.472 17.529 19.1065C17.4326 18.6767 17.2938 18.2431 17.0936 17.8537C16.4382 16.5832 15.3711 15.6782 14.3053 14.7795C14.2716 14.7506 14.219 14.719 14.1815 14.7253C13.9488 14.7632 13.7174 14.8123 13.4459 14.8652H13.4472ZM10.3099 15.4602C10.2736 15.2295 10.2611 15.077 10.2198 14.9333C10.2035 14.8753 10.1022 14.7871 10.0735 14.7984C9.82952 14.8968 9.53055 14.8854 9.39295 15.1904C8.96013 16.1496 8.49729 17.0949 8.07948 18.0604C7.80803 18.6868 7.59287 19.3422 7.61414 20.0392C7.61914 20.198 7.7042 20.4362 7.81929 20.4892C7.95314 20.5497 8.19206 20.4955 8.32967 20.4047C8.75873 20.1249 9.07772 19.7228 9.2566 19.2452C9.51179 18.5633 9.73695 17.8675 9.93335 17.1655C10.096 16.5832 10.1973 15.9832 10.3111 15.4614L10.3099 15.4602ZM9.04645 8.85564C8.94262 8.48382 8.90759 8.14225 8.75873 7.86244C8.36844 7.12762 7.95939 6.39785 7.4978 5.70715C6.99118 4.94712 6.37697 4.2728 5.60015 3.77368C5.39875 3.64386 5.13105 3.44472 4.94091 3.66781C4.82833 3.80141 4.83583 4.13668 4.9209 4.32196C5.13481 4.79335 5.37248 5.26978 5.68897 5.67311C6.40574 6.58943 7.16506 7.47297 7.93187 8.34643C8.18706 8.63633 8.52731 8.83925 9.04519 8.8569L9.04645 8.85564ZM11.9849 15.2749C12.0849 15.8005 12.17 16.2656 12.2613 16.7294C12.4827 17.8486 12.7392 18.959 13.2433 19.9888C13.3809 20.2711 13.5835 20.5396 13.8125 20.7539C14.1039 21.0261 14.4267 20.8723 14.4667 20.4728C14.4842 20.2938 14.4867 20.1123 14.4767 19.9321C14.3866 18.2242 13.6549 16.718 13.0281 15.2119C12.6616 15.2333 12.3289 15.2535 11.9849 15.2749ZM20.7751 8.45735C20.3085 8.57079 19.7081 8.64263 19.1664 8.86446C17.9793 9.34972 16.8209 9.90808 15.6551 10.4463C15.5625 10.4891 15.5025 10.6063 15.4274 10.6895C15.56 10.7752 15.6838 10.895 15.829 10.934C15.9565 10.9693 16.1067 10.9101 16.248 10.8988C17.7904 10.774 19.2953 10.4879 20.7001 9.80346C21.0978 9.60936 21.4769 9.37492 21.8534 9.14049C21.9447 9.08377 22.0623 8.93 22.041 8.86068C22.011 8.76237 21.8734 8.65775 21.7633 8.63002C21.4819 8.55818 21.1904 8.52667 20.7726 8.45735H20.7751ZM7.07999 2.55865C7.2301 3.77368 7.63916 4.89292 8.28338 5.93024C8.73246 6.65371 9.20156 7.36962 9.42047 8.21031C9.47927 8.43844 9.6644 8.40315 9.80951 8.37164C9.8658 8.35904 9.93335 8.19771 9.92209 8.11452C9.86205 7.66329 9.77573 7.21585 9.70193 6.76589C9.47426 5.37692 9.0502 4.05349 8.34718 2.83342C8.18456 2.55109 7.95689 2.29775 7.72172 2.07214C7.6304 1.98391 7.41024 1.94988 7.2914 1.99777C7.19007 2.03811 7.14004 2.22843 7.085 2.35951C7.06123 2.41623 7.08124 2.49059 7.08124 2.55739L7.07999 2.55865ZM7.26013 11.5781C7.13754 11.5781 6.98993 11.6058 6.85733 11.5743C5.64143 11.2744 4.40927 11.2227 3.17336 11.3739C2.65547 11.4382 2.14885 11.6084 1.64348 11.7533C1.5434 11.7823 1.3983 11.9197 1.40455 11.9966C1.41331 12.1012 1.52839 12.2423 1.63097 12.2852C1.98623 12.4327 2.349 12.5839 2.72302 12.6621C3.76004 12.8776 4.80957 12.8322 5.85033 12.6898C6.46954 12.6053 7.08124 12.4629 7.65792 12.3533C7.50406 12.0545 7.37021 11.7962 7.25762 11.5794L7.26013 11.5781ZM3.80632 17.6281C4.33296 17.5764 4.86085 17.3772 5.35247 17.0873C6.43076 16.4508 7.32768 15.6001 8.12326 14.6384C8.20082 14.5451 8.30715 14.4317 8.3084 14.3258C8.30965 14.138 8.2421 13.9502 8.20207 13.7624C8.07573 13.7964 7.93312 13.8015 7.82679 13.867C6.73974 14.5325 5.64143 15.1829 4.5844 15.895C4.13907 16.195 3.74628 16.6008 3.40603 17.0205C3.14584 17.3407 3.34348 17.6306 3.80632 17.6281ZM7.53533 12.8978C7.06748 12.9923 6.60089 13.0944 6.13179 13.1826C5.20611 13.3565 4.27417 13.4952 3.35724 13.7057C2.97196 13.7939 2.59418 13.9893 2.26143 14.2098C1.88491 14.4594 1.95621 14.8804 2.39028 14.9925C2.74804 15.0846 3.13583 15.1211 3.5061 15.0972C5.01722 14.9989 6.29566 14.293 7.52157 13.4675C7.57161 13.4347 7.61789 13.349 7.61414 13.291C7.60663 13.1637 7.56535 13.0377 7.53533 12.8965V12.8978ZM19.0251 40.7212C19.4504 40.2347 19.892 39.8099 20.1334 39.2377C20.0408 39.2768 19.967 39.3322 19.8982 39.394C19.4729 39.7696 19.0501 40.1502 18.6223 40.5233C18.4121 40.7073 18.3321 40.6909 18.242 40.4263C18.1769 40.2385 18.1507 40.0368 18.0956 39.791C17.7441 40.3796 17.4189 40.9191 17.3 41.6073C17.6015 41.3476 17.8517 41.117 18.1206 40.9115C18.1857 40.8611 18.3683 40.8535 18.4009 40.8977C18.4609 40.9808 18.4697 41.117 18.4609 41.2266C18.4559 41.2871 18.3746 41.3476 18.3195 41.398C16.7421 42.8374 15.3123 44.4167 13.9413 46.0514C13.875 46.1309 13.8175 46.2178 13.7549 46.3023C15.0234 45.7376 15.4437 45.6872 17.265 45.9204C16.9773 45.3784 16.6095 45.0028 15.9928 44.936C15.9003 44.9259 15.7501 44.8679 15.7389 44.8099C15.7214 44.7192 15.7714 44.5616 15.844 44.5188C16.0904 44.3713 16.3481 44.2264 16.6208 44.147C16.9523 44.0499 17.3025 44.0197 17.6453 43.9604C17.6453 43.9302 17.6428 43.8999 17.6415 43.8709C17.4602 43.8709 17.2775 43.8873 17.0986 43.8646C16.9973 43.852 16.8497 43.7991 16.8209 43.7247C16.7847 43.6302 16.8122 43.4701 16.876 43.387C16.9886 43.2382 17.1337 43.1034 17.29 43.0038C17.8279 42.661 18.3771 42.3358 18.8549 42.0434C18.7749 41.9753 18.6473 41.8669 18.5184 41.7585C18.6185 41.6426 18.7061 41.514 18.8199 41.4144C19.0051 41.2543 19.2077 41.1132 19.4241 40.9481C19.2677 40.8586 19.1702 40.8044 19.0251 40.7212ZM14.4017 8.86572C14.5718 9.03588 14.6844 8.98168 14.8182 8.86824C15.5312 8.26199 16.2693 7.68346 16.9635 7.05578C17.5452 6.53145 18.0881 5.96175 18.6285 5.3933C18.8137 5.19794 18.9638 4.95468 19.0801 4.71017C19.2502 4.35221 19.0851 4.11651 18.7086 4.21609C18.3533 4.30936 18.0006 4.47573 17.6966 4.68496C17.0936 5.10215 16.602 5.64286 16.1855 6.25038C15.5925 7.11754 15.0008 7.98722 14.4017 8.86572ZM9.09148 14.559C8.9914 14.5766 8.94762 14.5829 8.90509 14.593C8.60112 14.6611 8.5123 14.9522 8.32967 15.1488C7.78802 15.7311 7.23261 16.2996 6.68845 16.8794C6.16807 17.434 5.68396 18.0175 5.40375 18.7397C5.29743 19.0158 5.12105 19.3472 5.43503 19.5741C5.72899 19.7871 6.04047 19.5943 6.24688 19.3813C6.6134 19.0044 6.99618 18.6162 7.25387 18.1637C7.88183 17.0609 8.44225 15.9177 9.02643 14.7909C9.0552 14.7367 9.06021 14.6699 9.09023 14.5602L9.09148 14.559ZM8.89508 38.1613C8.88257 38.1298 8.86881 38.097 8.85631 38.0655C8.68618 38.0164 8.51605 37.9622 8.34468 37.9168C8.17205 37.8714 8.03945 37.7895 8.06947 37.5866C8.0995 37.3748 8.25711 37.3156 8.4435 37.3244C8.87257 37.3446 9.17154 37.584 9.43423 37.9193C9.31039 38.0756 9.19656 38.2206 9.08522 38.363C9.44924 38.5281 9.79325 38.6831 10.2136 38.8734C8.67117 36.7156 7.17256 34.6183 5.67395 32.521C5.64894 32.5349 5.62392 32.5487 5.60015 32.5613C5.72024 32.7806 5.83908 33.0012 5.97418 33.2483C5.81531 33.3163 5.68271 33.3743 5.52384 33.4424C5.59515 33.4953 5.65144 33.5407 5.71023 33.581C6.03922 33.8028 6.37197 34.0196 6.69846 34.2452C6.86358 34.3599 7.06873 34.5087 6.97241 34.7179C6.90862 34.8565 6.69096 34.9284 6.53334 35.0128C6.45203 35.0557 6.35195 35.062 6.25939 35.0847C6.26189 35.1086 6.26564 35.1326 6.26814 35.1578C6.46829 35.1578 6.66969 35.1439 6.86859 35.1653C6.94239 35.1729 7.06123 35.2573 7.06623 35.3141C7.07249 35.3935 7.00369 35.4918 6.94364 35.5611C6.90361 35.6077 6.8223 35.6178 6.78853 35.6317C7.29765 35.909 7.81429 36.18 8.31841 36.4736C8.44475 36.5467 8.52731 36.6967 8.62989 36.8114C8.49604 36.9236 8.37095 37.0484 8.22584 37.1429C8.12577 37.2072 7.99067 37.2147 7.88434 37.2715C7.59788 37.4215 7.33518 37.603 7.17131 37.9054H7.87683C7.84181 38.0315 7.80678 38.1575 7.77175 38.2886C8.05446 38.3012 8.35343 38.3264 8.65115 38.3189C8.73497 38.3163 8.81628 38.2168 8.89884 38.1613H8.89508ZM14.3166 33.2508C14.2903 33.2533 14.2628 33.2571 14.2365 33.2596C14.0727 34.2213 13.9088 35.1817 13.7437 36.1434C13.7699 36.156 13.7962 36.1686 13.8237 36.1812C14.2315 35.5019 14.6393 34.8225 14.9846 34.2465C14.7206 33.852 14.518 33.552 14.3166 33.2508ZM15.9991 42.8488C16.2805 42.6042 16.5958 42.3307 16.871 42.0925C16.7221 41.7497 16.5908 41.4484 16.4244 41.064C16.263 41.7409 16.1229 42.3295 15.9991 42.8488ZM14.8833 42.7681C14.8582 42.7706 14.832 42.7731 14.8069 42.7769C14.7457 43.3239 14.6844 43.8709 14.6243 44.4167C14.9008 44.1873 15.1084 43.9453 15.3098 43.6983C15.3411 43.6592 15.3761 43.5811 15.3586 43.5508C15.2072 43.2861 15.0434 43.029 14.8833 42.7694V42.7681ZM15.4912 31.0438V33.155C15.6976 32.6407 15.8815 32.182 16.0654 31.7219C16.0254 31.7295 15.9853 31.737 15.9465 31.7446C15.8139 31.5404 15.6813 31.335 15.4912 31.0425V31.0438ZM10.0184 35.8472C9.68317 36.0829 9.80325 36.6261 9.30914 36.6728C9.55057 36.9917 9.77824 37.2929 10.0184 37.6093V35.8472Z" fill="#FFEB61"/>
</g>
<defs>
<clipPath id="clip0_266_1357">
<rect width="22" height="48" fill="white" transform="translate(0.863281 0.499023)"/>
</clipPath>
</defs>
</svg>
