<svg width="37" height="48" viewBox="0 0 37 48" fill="none" xmlns="http://www.w3.org/2000/svg">
<g clip-path="url(#clip0_266_1359)">
<path d="M25.6158 32.5629C26.7114 32.2957 27.7726 32.0374 28.8339 31.7803C28.9154 31.7601 28.9957 31.7387 29.0772 31.7248C29.3358 31.6807 29.5371 31.7614 29.6263 32.0159C29.7218 32.2882 29.5766 32.4734 29.3358 32.5478C28.7982 32.7116 28.2517 32.8452 27.7077 32.9864C26.7089 33.2447 25.7088 33.4968 24.71 33.7564C24.6348 33.7766 24.5508 33.8169 24.4998 33.8724C23.9584 34.4736 23.422 35.0798 22.887 35.686C22.864 35.7125 22.8564 35.7528 22.8233 35.8272C23.4424 35.623 24.0208 35.4276 24.6017 35.2424C25.3164 35.0142 26.0311 34.7849 26.7522 34.582C26.9153 34.5366 27.1471 34.5404 27.2771 34.6261C27.3905 34.7004 27.4758 34.9411 27.4414 35.0747C27.4032 35.2235 27.2363 35.4012 27.0872 35.4503C25.5215 35.9544 23.9545 36.4535 22.3748 36.9136C21.8754 37.0585 21.5315 37.3206 21.2295 37.7265C20.7785 38.3327 20.2715 38.8986 19.7899 39.4821C19.7453 39.5363 19.7058 39.5943 19.6906 39.709C19.8014 39.6774 19.9148 39.651 20.0231 39.6144C21.8359 38.9931 23.6488 38.3692 25.4617 37.7479C25.5891 37.7038 25.7177 37.6597 25.8502 37.6332C26.142 37.5752 26.3815 37.7025 26.4541 37.9382C26.5292 38.184 26.4133 38.4121 26.1165 38.5154C25.5075 38.7284 24.8871 38.9137 24.2781 39.1254C22.6156 39.7039 20.9569 40.2963 19.2931 40.8697C19.0306 40.9605 18.9542 41.0978 18.9555 41.365C18.9631 43.2139 18.9555 45.0628 18.9504 46.9117C18.9504 47.2822 18.8319 47.465 18.5771 47.4965C18.2624 47.5356 18.0573 47.3465 18.0573 46.9999C18.0561 46.0912 18.0599 45.1825 18.0611 44.2738C18.0637 43.282 18.0573 42.2914 18.0726 41.2995C18.0764 41.0575 18.0115 40.9327 17.7656 40.8495C15.6431 40.1349 13.5258 39.4077 11.4072 38.6818C11.2199 38.6175 11.0365 38.5457 10.853 38.4701C10.5944 38.3629 10.5371 38.1613 10.6008 37.9105C10.6657 37.6559 10.8645 37.5992 11.0861 37.6307C11.2913 37.6584 11.4951 37.7101 11.6913 37.7769C13.494 38.397 15.2941 39.0233 17.0968 39.6459C17.1796 39.6749 17.2662 39.6888 17.4356 39.7316C16.8789 39.0687 16.3387 38.5041 15.8967 37.8727C15.4775 37.2765 14.9386 36.9551 14.2494 36.7648C12.8047 36.3641 11.3741 35.9154 9.93575 35.4907C9.55865 35.3797 9.4045 35.1756 9.49495 34.8718C9.58031 34.5845 9.84275 34.4673 10.2109 34.5794C11.4263 34.95 12.6404 35.3281 13.8545 35.7036C13.922 35.7251 13.9895 35.744 14.122 35.7843C14.057 35.6784 14.0328 35.6192 13.9908 35.5738C13.5041 35.0344 13.0226 34.4925 12.5219 33.9644C12.4162 33.8535 12.2544 33.769 12.1028 33.7287C10.7154 33.3519 9.32297 32.9902 7.93306 32.6196C7.46934 32.4961 7.30627 32.3235 7.37379 32.055C7.45023 31.755 7.71649 31.6517 8.17894 31.7677C9.2185 32.0273 10.2555 32.2945 11.3384 32.51C11.2811 32.4381 11.2288 32.36 11.1651 32.2932C10.1421 31.232 9.12295 30.167 8.08721 29.1197C7.95472 28.9861 7.73814 28.8891 7.5496 28.8651C7.18906 28.8185 6.82088 28.8374 6.45525 28.8261C6.3406 28.8223 6.22594 28.8172 6.11383 28.7933C5.86031 28.7404 5.69214 28.5828 5.70106 28.3232C5.71125 28.0497 5.89853 27.8909 6.16479 27.8606C6.36862 27.8367 6.57883 27.8556 6.87057 27.8556C6.74954 27.7157 6.67947 27.6224 6.59666 27.5418C5.56984 26.5575 4.54175 25.5744 3.51238 24.5939C3.30981 24.4011 3.27159 24.1376 3.42957 23.9599C3.6334 23.728 4.00795 23.7104 4.24236 23.9385C4.54684 24.236 4.83731 24.5473 5.13542 24.851C7.19798 26.9431 9.26182 29.034 11.3193 31.1299C11.4161 31.2295 11.4696 31.3706 11.5435 31.4929C11.5855 31.4564 11.6276 31.4198 11.6684 31.3833C11.4543 30.4506 11.2403 29.5167 11.0275 28.5841C10.9358 28.182 10.8517 27.7775 10.7587 27.3754C10.6963 27.1082 10.7587 26.899 11.0301 26.7957C11.2658 26.7049 11.5435 26.8196 11.6416 27.0881C11.7397 27.3565 11.7766 27.6477 11.8378 27.9287C12.1665 29.4524 12.499 30.9749 12.8175 32.4999C12.871 32.7595 12.9691 32.9637 13.1538 33.1641C13.6252 33.6745 14.0634 34.2152 14.5144 34.7433C14.5743 34.8126 14.6278 34.8882 14.6838 34.96L14.7781 34.9197C14.7577 34.7987 14.7374 34.6777 14.7157 34.5567C14.4711 33.2057 14.2227 31.8559 13.9832 30.5035C13.9207 30.1494 14.0392 29.9465 14.2978 29.9024C14.5514 29.8608 14.7972 30.0523 14.8584 30.3737C14.9909 31.0732 15.103 31.7765 15.2355 32.4772C15.4864 33.8056 15.7451 35.1327 16.0037 36.4598C16.0151 36.5178 16.0394 36.5808 16.0763 36.6249C16.6776 37.3244 17.2828 38.0226 17.8879 38.7196C17.907 38.741 17.9376 38.7524 18.014 38.8028C17.9809 38.6074 17.9605 38.4537 17.9274 38.3012C17.3477 35.5852 16.7528 32.873 16.1948 30.1532C16.0075 29.2407 15.4864 28.6698 14.6393 28.332C14.2341 28.1707 13.8239 28.0056 13.4545 27.7812C12.8493 27.4145 12.5054 26.841 12.313 26.1718C12.1474 25.5984 11.8123 25.156 11.197 25.0363C10.9129 24.9808 10.56 24.9594 10.3128 25.0766C9.41214 25.5038 8.63247 25.1031 8.05664 24.522C8.01969 24.4855 7.98275 24.4464 7.95727 24.4023C7.51265 23.631 6.79413 23.2869 5.9635 23.0386C4.48697 22.5963 3.03336 22.0808 1.56957 21.5981C1.4944 21.5729 1.41542 21.5578 1.26636 21.5187C1.44599 22.0455 1.60524 22.5181 1.76958 22.9895C2.34032 24.6178 2.90979 26.2449 3.48817 27.8707C3.59901 28.1833 3.62194 28.482 3.55442 28.8097C3.32001 29.9603 3.72768 30.9245 4.71883 31.2118C5.4934 31.4362 5.95968 31.9189 6.39792 32.5049C6.64635 32.8364 6.89987 33.1641 7.15976 33.488C7.42602 33.822 7.5152 34.1938 7.48972 34.6172C7.47188 34.9008 7.4859 35.2008 7.56488 35.4717C7.74324 36.0906 8.31016 36.4309 8.95988 36.3628C9.3459 36.3225 9.5561 36.4636 9.5905 36.7837C9.62108 37.0723 9.43253 37.2727 9.07582 37.3295C8.16747 37.4757 7.05275 36.7598 6.73425 35.7793C6.62214 35.4327 6.62979 35.0483 6.56099 34.6866C6.51768 34.461 6.48583 34.2064 6.35843 34.0274C5.98261 33.4956 5.57239 32.9851 5.1507 32.486C5.03223 32.3449 4.83986 32.239 4.66023 32.1798C3.16203 31.6819 2.36707 30.4229 2.62314 28.879C2.68684 28.4933 2.63079 28.1493 2.50211 27.7913C1.70079 25.5656 0.909648 23.3361 0.115963 21.1078C0.0955794 21.0499 0.0700999 20.9919 0.0548122 20.9326C0.00640123 20.7411 -0.0713111 20.5155 0.145264 20.4021C0.300689 20.3201 0.526182 20.2735 0.689251 20.3176C1.24088 20.4688 1.77977 20.6667 2.32248 20.8495C3.9124 21.3838 5.4985 21.9283 7.09224 22.4501C7.6426 22.6303 8.07702 22.924 8.37768 23.4205C8.49998 23.6222 8.65031 23.8163 8.8223 23.9763C9.16499 24.2939 9.54591 24.4023 10.0262 24.2246C11.318 23.7495 12.7334 24.4351 13.1296 25.7408C13.3857 26.5865 13.9131 27.1246 14.7412 27.412C15.3985 27.6401 16.033 27.935 16.447 28.5097C16.6891 28.845 16.9031 29.2382 16.9948 29.6352C17.3388 31.1123 17.6254 32.6032 17.935 34.0892C17.949 34.1534 17.9758 34.2152 18.0446 34.2744C18.0497 34.2404 18.0586 34.2064 18.0586 34.1723C18.0586 31.9517 18.0408 29.731 18.0701 27.5115C18.079 26.8675 17.8637 26.3709 17.4114 25.9412C16.791 25.3513 16.2088 24.73 15.8508 23.9436C15.6584 23.5214 15.4941 23.0853 15.3489 22.6467C15.2546 22.3631 15.3884 22.101 15.6202 22.038C15.9107 21.9585 16.0763 22.1123 16.1769 22.3593C16.2432 22.5219 16.3018 22.687 16.3566 22.8534C16.6419 23.7066 17.1452 24.4187 17.8051 25.0274C17.8471 25.0665 17.9006 25.093 17.9822 25.1472C17.9949 25.0363 18.0115 24.9594 18.0115 24.8825C18.0115 23.5087 18.0025 22.135 18.0089 20.7612C18.0102 20.5054 17.9414 20.4021 17.6624 20.3844C17.1579 20.3529 16.6763 20.2143 16.2598 19.9105C15.7361 19.5286 15.5183 19.0258 15.6903 18.3944C15.7578 18.1473 15.8776 17.9142 15.9642 17.6722C16.1311 17.2096 16.2916 16.7446 16.4534 16.2795C16.4801 16.2014 16.4865 16.1169 16.5158 16.0401C16.605 15.7993 16.777 15.6645 17.0432 15.7023C17.2904 15.7376 17.3643 15.943 17.3528 16.1396C17.335 16.456 17.307 16.7837 17.2101 17.0824C17.0662 17.5222 16.8662 17.9444 16.6725 18.3666C16.447 18.8569 16.5566 19.1518 17.0713 19.3358C17.2267 19.3913 17.3949 19.4379 17.5579 19.4392C18.2344 19.4467 18.9122 19.4543 19.5874 19.4215C19.7925 19.4114 20.0103 19.3043 20.1874 19.1896C20.46 19.0132 20.5148 18.7548 20.3811 18.4561C20.2842 18.2393 20.1403 18.0402 20.0626 17.8184C19.8931 17.3344 19.7504 16.8404 19.6027 16.3488C19.5848 16.2921 19.5874 16.2253 19.595 16.1648C19.6205 15.9544 19.6574 15.7389 19.9161 15.6935C20.1836 15.6456 20.3747 15.8195 20.4091 16.0287C20.5339 16.8101 20.9531 17.4693 21.2372 18.1839C21.5569 18.9867 21.2257 19.7265 20.418 20.0744C19.967 20.2685 19.4676 20.3479 18.9606 20.4878V25.2417C19.0816 25.1396 19.167 25.0766 19.2408 25.0022C19.8982 24.3443 20.376 23.5806 20.6422 22.6895C20.6855 22.5421 20.7403 22.3946 20.8129 22.2598C20.9314 22.0392 21.1301 21.9611 21.3697 22.0392C21.5901 22.111 21.7009 22.3014 21.6334 22.5055C21.4385 23.0903 21.2728 23.6978 20.976 24.2309C20.6894 24.7464 20.26 25.1862 19.8817 25.6513C19.7517 25.8114 19.5835 25.9399 19.4396 26.0886C19.1033 26.4365 18.9275 26.8284 18.9287 27.3364C18.9376 29.5974 18.9122 31.8597 18.8994 34.1207C18.8994 34.1799 18.8994 34.2391 18.9606 34.3097C19.0587 33.8623 19.1568 33.4162 19.2536 32.9687C19.4995 31.8395 19.7339 30.7077 19.9938 29.581C20.1441 28.9307 20.5212 28.4076 21.0805 28.0434C21.4525 27.8014 21.855 27.5909 22.2665 27.4258C23.0398 27.1158 23.5634 26.6205 23.8272 25.8139C24.2756 24.4426 25.5814 23.8049 26.9586 24.2586C27.4682 24.4263 27.8784 24.3267 28.2364 23.9524C28.3154 23.8705 28.4122 23.7923 28.458 23.694C28.8288 22.8988 29.532 22.5748 30.3219 22.3177C32.2443 21.6926 34.1527 21.0297 36.0675 20.3819C36.0777 20.3781 36.0866 20.3743 36.0968 20.3718C36.3643 20.3025 36.642 20.1462 36.8854 20.4058C37.1083 20.644 36.9516 20.8948 36.8688 21.1318C36.07 23.4142 35.2611 25.6916 34.475 27.9779C34.3846 28.2387 34.3578 28.5475 34.396 28.821C34.6253 30.4443 33.8151 31.7336 32.2316 32.2441C32.0774 32.2932 31.9296 32.4142 31.8226 32.539C31.4914 32.9246 31.1882 33.3317 30.8633 33.7224C30.5818 34.0614 30.4429 34.4232 30.4467 34.8806C30.4569 36.1536 29.5575 37.1757 28.3026 37.3458C28.0835 37.3761 27.8287 37.303 27.621 37.211C27.3828 37.1051 27.3217 36.8694 27.421 36.6287C27.5166 36.3968 27.7051 36.325 27.9574 36.3691C28.7256 36.5027 29.4556 35.9368 29.5396 35.1516C29.5498 35.0596 29.5626 34.9626 29.5473 34.8731C29.425 34.1913 29.7104 33.6455 30.1206 33.1376C30.4849 32.6852 30.8544 32.2378 31.2098 31.779C31.3767 31.5622 31.5831 31.4475 31.8494 31.3782C32.7552 31.1438 33.3641 30.6006 33.5068 29.6541C33.5476 29.3869 33.4597 29.1033 33.4571 28.8261C33.4546 28.5337 33.4189 28.2198 33.5093 27.9527C34.1833 25.9676 34.8852 23.9915 35.577 22.0127C35.6241 21.8791 35.656 21.7418 35.7082 21.5565C35.5821 21.583 35.5057 21.5905 35.433 21.6145C33.6915 22.1879 31.9526 22.7677 30.2085 23.3348C29.8951 23.4369 29.6734 23.6209 29.4721 23.873C29.1957 24.2183 28.9065 24.5649 28.574 24.8548C28.0924 25.2745 27.5229 25.3715 26.9063 25.1434C26.5191 24.9997 26.1203 24.9241 25.7126 25.064C25.1967 25.2417 24.8247 25.5782 24.6858 26.105C24.4259 27.0906 23.7978 27.7409 22.8742 28.1417C22.6067 28.2576 22.3391 28.3736 22.0729 28.4933C21.3951 28.7983 20.9505 29.281 20.7989 30.0271C20.2244 32.849 19.6345 35.6671 19.051 38.4877C19.0306 38.5847 19.0217 38.6843 18.9962 38.8608C19.1211 38.7473 19.1937 38.6944 19.2498 38.6289C19.7759 38.0138 20.3021 37.4 20.8206 36.7787C20.9034 36.6791 20.976 36.5518 20.9989 36.4271C21.306 34.8151 21.6028 33.2006 21.9022 31.5874C21.9646 31.2522 22.0194 30.9169 22.0831 30.5817C22.1035 30.4708 22.1251 30.3561 22.1697 30.2527C22.2755 30.0082 22.4857 29.9225 22.7341 29.9692C22.9978 30.0183 23.0386 30.225 23.0003 30.4494C22.8513 31.324 22.6997 32.1987 22.543 33.0721C22.4347 33.6707 22.3149 34.2681 22.2028 34.8655C22.1965 34.9008 22.2067 34.9399 22.2143 35.047C22.5799 34.6298 22.8857 34.2391 23.2335 33.8913C23.831 33.2926 24.1648 32.5982 24.3176 31.7613C24.5877 30.2805 24.9495 28.8147 25.282 27.3452C25.3164 27.1914 25.3852 26.9998 25.5037 26.923C25.6362 26.836 25.8884 26.7843 26.0031 26.8536C26.1343 26.9331 26.2643 27.1826 26.235 27.325C25.9611 28.6269 25.6515 29.9225 25.3534 31.2194C25.3432 31.266 25.347 31.3152 25.3394 31.4362C25.4604 31.3253 25.5368 31.2623 25.6056 31.1929C27.8096 28.9496 30.0123 26.7049 32.215 24.459C32.3819 24.2889 32.5322 24.1024 32.7016 23.9347C32.9297 23.7091 33.3221 23.7003 33.517 23.9058C33.6953 24.0935 33.6291 24.4036 33.3845 24.6456C32.373 25.645 31.3652 26.6482 30.3575 27.6514C30.2722 27.7359 30.2008 27.8342 30.0709 27.9892C30.3448 27.9539 30.5346 27.9211 30.7257 27.9085C31.0429 27.8871 31.2417 28.0308 31.2722 28.2879C31.3041 28.5576 31.099 28.8008 30.7869 28.8248C30.3193 28.8601 29.8479 28.8626 29.3804 28.9029C29.2479 28.9143 29.0874 28.971 28.9969 29.0617C27.8758 30.1859 26.7649 31.3202 25.6515 32.4533C25.6387 32.4659 25.64 32.4911 25.6171 32.568L25.6158 32.5629Z" fill="#FFEB61"/>
<path d="M26.7203 7.7547C27.1267 7.77487 27.4835 7.84418 27.7879 7.57447C28.0911 7.30729 28.2058 7.00481 28.0593 6.63175C27.7395 5.81758 27.2312 5.13197 26.5522 4.57238C26.319 4.38081 26.0451 4.36317 25.8413 4.56734C25.612 4.79546 25.3903 5.06013 25.2642 5.35126C24.9814 6.00663 24.6323 6.60781 24.0858 7.08043C23.9698 7.18125 23.8348 7.30729 23.6972 7.32241C23.5354 7.34005 23.3023 7.29972 23.208 7.1926C23.1137 7.08547 23.1061 6.85105 23.1469 6.69477C23.1812 6.56243 23.3252 6.44522 23.4437 6.34818C23.8666 6.00537 24.1635 5.58694 24.3457 5.07273C24.5419 4.51441 24.8756 4.04809 25.3954 3.72545C25.8196 3.46204 26.2706 3.39902 26.7025 3.64478C27.9663 4.36569 28.7612 5.44831 29.002 6.87121C29.146 7.71689 28.2415 8.67222 27.3688 8.69742C27.1917 8.70246 27.0121 8.70246 26.8376 8.676C26.3178 8.5966 25.8464 8.72263 25.3929 8.96461C25.2298 9.05157 25.0489 9.15492 24.8744 9.1587C24.7228 9.16248 24.5024 9.07174 24.4348 8.95453C24.3686 8.83984 24.4081 8.6029 24.4934 8.48317C24.6005 8.33193 24.7865 8.22102 24.961 8.13658C25.5305 7.85805 26.1343 7.71311 26.7216 7.75596L26.7203 7.7547Z" fill="#FFEB61"/>
<path d="M7.97893 6.75904C8.03625 6.11376 8.41972 5.4294 8.91784 4.81184C9.20067 4.46021 9.5319 4.13253 9.89498 3.86156C10.6517 3.29694 11.3792 3.36625 12.0085 4.06825C12.2646 4.35309 12.4761 4.7085 12.606 5.06769C12.7869 5.56552 13.0799 5.95496 13.4774 6.28642C13.5882 6.37969 13.7054 6.47169 13.7946 6.58386C13.9335 6.75904 13.987 6.95818 13.8214 7.14848C13.657 7.33627 13.4328 7.39803 13.2353 7.24805C12.9411 7.02245 12.6429 6.78299 12.4174 6.49438C12.1601 6.16417 11.9767 5.77599 11.7677 5.40924C11.6964 5.28447 11.6556 5.14205 11.583 5.01728C11.2034 4.37703 10.7001 4.30267 10.1612 4.80806C9.65675 5.28194 9.28475 5.84657 8.97517 6.46413C8.58661 7.23671 9.31532 7.87695 9.94339 7.7673C10.6989 7.63497 11.4148 7.80889 12.0939 8.14162C12.5436 8.36218 12.7054 8.67222 12.5436 8.95831C12.3971 9.21668 12.0378 9.22298 11.6314 8.97091C11.2072 8.70877 10.7473 8.60542 10.2542 8.68608C9.49623 8.81085 8.87962 8.56509 8.37895 8.00551C8.10632 7.70051 7.95854 7.34509 7.9802 6.76156L7.97893 6.75904Z" fill="#FFEB61"/>
<path d="M11.0721 10.8967C10.3383 10.8853 9.70388 10.5577 9.04014 10.3132C8.79554 10.2224 8.48214 10.1959 8.23245 10.2615C7.68846 10.4026 7.47825 10.753 7.54068 11.3101C7.62094 12.0146 7.83369 12.6838 8.18531 13.3014C8.4796 13.8194 8.91275 13.8824 9.3752 13.4967C9.6542 13.2648 9.8988 12.9737 10.2122 12.8073C10.6364 12.583 11.1053 12.4217 11.5715 12.3007C11.7257 12.2604 11.983 12.3839 12.1066 12.5149C12.2646 12.6826 12.1996 12.9069 11.9983 13.0493C11.9155 13.1073 11.8149 13.1615 11.7155 13.1766C11.0326 13.2863 10.5396 13.6782 10.0479 14.1357C9.14971 14.9713 8.01077 14.776 7.38525 13.7211C6.96357 13.009 6.72916 12.2301 6.62469 11.4122C6.40684 9.70694 8.11779 8.90916 9.49623 9.49899C10.1383 9.77374 10.7536 10.0245 11.476 9.93506C11.7957 9.89473 12.0009 10.0913 12.0149 10.3308C12.0289 10.5816 11.8391 10.8034 11.5397 10.8589C11.3868 10.8879 11.2288 10.8866 11.0734 10.8979L11.0721 10.8967Z" fill="#FFEB61"/>
<path d="M21.0741 0.510359C22.0895 0.640172 23.1711 1.09515 24.0565 1.93452C24.6285 2.47646 24.654 3.23266 24.1546 3.87164C23.9405 4.14513 23.6666 4.37955 23.3953 4.60263C22.9736 4.94796 22.6525 5.34622 22.5137 5.88186C22.4321 6.19946 22.1366 6.3696 21.8792 6.2839C21.6346 6.20198 21.5085 5.91589 21.6041 5.60837C21.8448 4.83327 22.3098 4.21319 22.9672 3.73175C23.0347 3.68259 23.1061 3.63974 23.1711 3.58933C23.7201 3.1709 23.7303 2.79281 23.1902 2.3706C22.608 1.91436 21.9455 1.61818 21.2244 1.45686C20.2779 1.24513 19.7836 1.96603 19.9798 2.66551C20.181 3.38264 20.111 4.11867 19.8766 4.83201C19.7568 5.1975 19.502 5.35882 19.2039 5.258C18.8956 5.15465 18.7567 4.861 18.9415 4.52323C19.2676 3.9271 19.1848 3.33853 19.0447 2.72223C18.7746 1.5413 19.6664 0.47507 21.0741 0.51414V0.510359Z" fill="#FFEB61"/>
<path d="M16.8318 3.74057C16.8967 3.28811 16.9324 2.96043 16.991 2.63653C17.1413 1.81227 16.684 1.31571 15.8457 1.44552C15.0214 1.57281 14.3055 1.95595 13.671 2.47646C13.3207 2.76382 13.3181 3.15074 13.6379 3.47842C13.8035 3.64857 13.9972 3.79224 14.1819 3.94222C14.6507 4.32032 15.0253 4.77277 15.261 5.3248C15.3323 5.49116 15.3922 5.68525 15.3743 5.86043C15.3603 6.01167 15.2622 6.22467 15.1425 6.27634C15.0189 6.32927 14.8061 6.25239 14.666 6.17425C14.5628 6.11628 14.4711 5.97134 14.4469 5.85161C14.3386 5.29581 13.9768 4.92779 13.564 4.57868C13.3041 4.35813 13.0417 4.12875 12.834 3.86156C12.2939 3.16586 12.355 2.43109 13.006 1.84378C13.8417 1.09137 14.8329 0.641433 15.9489 0.511619C17.2152 0.365422 18.214 1.46694 17.9146 2.6882C17.749 3.36373 17.6853 4.00146 18.0357 4.63918C18.158 4.86226 18.0025 5.13449 17.7465 5.24035C17.5146 5.3374 17.2356 5.26052 17.1503 5.00089C17.0025 4.556 16.9171 4.08968 16.8318 3.73931V3.74057Z" fill="#FFEB61"/>
<path d="M25.8146 9.92372C26.3471 9.99808 26.77 9.82415 27.179 9.60864C27.6351 9.36792 28.1141 9.27591 28.6275 9.3175C29.6123 9.39816 30.3575 10.1695 30.3448 11.145C30.3308 12.1053 30.0378 12.9989 29.5269 13.8068C28.8848 14.8239 27.7867 14.96 26.9038 14.1256C26.4337 13.6807 25.9521 13.2938 25.2973 13.1716C25.2565 13.164 25.2183 13.1451 25.1814 13.1262C24.9495 13.0103 24.7775 12.8527 24.8552 12.5666C24.9215 12.3234 25.2005 12.1784 25.4897 12.2503C26.0617 12.3927 26.5955 12.6195 27.0414 13.0166C27.2274 13.1817 27.4019 13.3606 27.5956 13.5182C28.0389 13.8774 28.4912 13.8043 28.7689 13.3089C29.1409 12.6435 29.3702 11.9239 29.4441 11.1664C29.5027 10.5602 28.8632 10.0674 28.2096 10.2086C27.9586 10.2627 27.7166 10.3724 27.4809 10.4783C26.9229 10.7303 26.3471 10.8942 25.7279 10.8614C25.6247 10.8564 25.5177 10.8501 25.4196 10.8211C25.1699 10.7492 24.9801 10.6182 25.0145 10.3195C25.0438 10.0611 25.2336 9.92372 25.5547 9.92246C25.6591 9.92246 25.7636 9.92246 25.8158 9.92246L25.8146 9.92372Z" fill="#FFEB61"/>
<path d="M13.1194 19.4694C12.9984 19.4379 12.741 19.4102 12.5206 19.3068C11.6225 18.8859 10.8314 18.3187 10.2211 17.5336C9.38794 16.461 9.74083 15.1944 11.0275 14.7331C11.634 14.5163 12.1627 14.2328 12.5805 13.7425C12.7487 13.5446 12.9818 13.4589 13.2213 13.6291C13.4468 13.7891 13.457 14.0614 13.3232 14.2403C13.1003 14.5403 12.8289 14.8239 12.527 15.0457C12.2557 15.2448 11.9168 15.3545 11.6059 15.4981C11.4454 15.5725 11.2721 15.6229 11.1193 15.7073C10.6963 15.9392 10.5651 16.3791 10.825 16.7799C10.9804 17.0193 11.1715 17.2525 11.3944 17.4315C11.8225 17.7743 12.2633 18.112 12.7359 18.3881C13.3296 18.7359 13.8609 18.475 13.9984 17.802C14.0647 17.4794 14.0367 17.1328 14.1386 16.8253C14.2966 16.3501 14.494 15.88 14.7424 15.4465C14.9157 15.144 15.2406 15.1415 15.4622 15.3582C15.6342 15.5271 15.6635 15.7389 15.5361 15.9241C15.1004 16.5606 14.9896 17.2878 14.8533 18.0226C14.6915 18.8859 13.9984 19.4669 13.1207 19.4694H13.1194Z" fill="#FFEB61"/>
<path d="M23.7609 19.4669C22.8475 19.4366 22.0844 18.712 22.0334 17.7289C22.0041 17.1504 21.8372 16.64 21.5467 16.1522C21.4996 16.0728 21.4588 15.9871 21.4283 15.9002C21.348 15.6771 21.3531 15.4628 21.5824 15.3305C21.8257 15.1894 22.078 15.2335 22.2105 15.4691C22.4207 15.846 22.6105 16.2405 22.7481 16.6475C22.8602 16.9752 22.8857 17.3332 22.9443 17.6785C23.0742 18.4536 23.631 18.7649 24.2934 18.354C24.8705 17.9961 25.4336 17.5827 25.905 17.1C26.5394 16.4509 26.3636 15.8876 25.5101 15.5763C24.947 15.3708 24.4106 15.1226 23.98 14.7003C23.8412 14.5642 23.6883 14.4067 23.6386 14.2315C23.5927 14.0702 23.6157 13.8156 23.7189 13.7072C23.808 13.6139 24.0552 13.6644 24.2323 13.6593C24.2679 13.6593 24.3164 13.6883 24.338 13.7186C24.7928 14.3374 25.4973 14.5466 26.156 14.8579C27.2452 15.3721 27.5064 16.4824 26.8032 17.4529C26.1878 18.3036 25.3495 18.8947 24.3941 19.322C24.2004 19.4089 23.9724 19.4203 23.7596 19.4669H23.7609Z" fill="#FFEB61"/>
<path d="M18.4382 13.2333C17.6853 13.1665 16.9439 12.9296 16.3234 12.3889C15.9158 12.0335 15.7718 11.5848 15.9387 11.0744C16.2789 10.0346 16.9439 9.25953 17.9401 8.77178C18.307 8.59156 18.6637 8.62811 19.0217 8.79573C19.9288 9.22172 20.5798 9.89347 20.9594 10.8097C21.2435 11.4953 21.083 12.06 20.4932 12.5137C19.9071 12.9636 19.2358 13.1917 18.437 13.2333H18.4382ZM18.3312 12.3662C19.0663 12.2994 19.5886 12.1053 20.0358 11.7499C20.1275 11.6768 20.1836 11.4651 20.1517 11.3466C19.9301 10.5438 19.409 9.97539 18.6497 9.63384C18.53 9.57965 18.33 9.59855 18.2115 9.66283C17.5694 10.0132 17.1159 10.535 16.856 11.2206C16.74 11.5269 16.8254 11.7651 17.1095 11.8911C17.5503 12.0864 18.0089 12.244 18.3312 12.3675V12.3662Z" fill="#FFEB61"/>
<path d="M20.2091 7.06152C20.0957 7.25813 20.0192 7.49129 19.8613 7.64253C19.5886 7.90342 19.1338 7.72445 19.0829 7.35014C19.0612 7.19134 19.074 7.01867 19.116 6.86491C19.2103 6.51832 19.46 6.3507 19.7492 6.40741C20.0052 6.45657 20.1492 6.68216 20.2091 7.06152Z" fill="#FFEB61"/>
<path d="M17.9732 7.17747C17.9401 7.46987 17.8318 7.6816 17.5439 7.74588C17.2573 7.80889 17.0432 7.669 16.9553 7.40937C16.8891 7.2115 16.842 6.97834 16.8865 6.78299C16.9197 6.63805 17.0993 6.44774 17.2382 6.42506C17.3961 6.39985 17.628 6.49816 17.7401 6.62041C17.8688 6.76157 17.8994 6.98842 17.9732 7.17747Z" fill="#FFEB61"/>
<path d="M22.9672 10.8072C22.5799 10.8047 22.2805 10.5791 22.2729 10.2854C22.2653 10.0006 22.585 9.74853 22.9545 9.74727C23.3227 9.74601 23.622 9.99304 23.622 10.298C23.622 10.6018 23.3532 10.8097 22.9672 10.8072Z" fill="#FFEB61"/>
<path d="M22.3353 8.46174C22.3239 8.82345 22.0474 9.10703 21.7073 9.10451C21.3888 9.10199 21.1467 8.85748 21.162 8.54996C21.1798 8.19077 21.492 7.84544 21.7952 7.85175C22.0895 7.85679 22.3455 8.1454 22.3353 8.46048V8.46174Z" fill="#FFEB61"/>
<path d="M14.6698 8.42015C14.6698 8.08491 14.889 7.8215 15.168 7.81898C15.4992 7.81646 15.8088 8.15548 15.8139 8.52602C15.819 8.86883 15.6177 9.07174 15.2801 9.0667C14.9297 9.06166 14.6698 8.78438 14.6698 8.42015Z" fill="#FFEB61"/>
<path d="M13.987 9.75609C14.3488 9.75105 14.7144 10.0119 14.7284 10.2842C14.7424 10.535 14.4048 10.7858 14.0507 10.7908C13.6901 10.7959 13.3831 10.5665 13.3767 10.2867C13.3704 10.0031 13.6507 9.75988 13.9857 9.75484L13.987 9.75609Z" fill="#FFEB61"/>
<path d="M22.9086 11.8722C23.2628 11.8722 23.515 12.089 23.5201 12.3952C23.5265 12.7191 23.2806 12.9699 22.9583 12.9674C22.6245 12.9649 22.3366 12.7053 22.3315 12.4028C22.3277 12.1192 22.5978 11.8709 22.9086 11.8722Z" fill="#FFEB61"/>
<path d="M13.4838 12.4154C13.4787 12.0789 13.708 11.8659 14.0838 11.8583C14.4163 11.852 14.6201 12.036 14.6278 12.3536C14.6367 12.704 14.3857 12.9598 14.0316 12.9624C13.7271 12.9649 13.4889 12.7279 13.4838 12.4154Z" fill="#FFEB61"/>
<path d="M19.5249 14.1597C19.8332 14.1622 20.06 14.4029 20.0562 14.723C20.0524 15.0507 19.8205 15.3204 19.5479 15.3154C19.2625 15.3103 19.0115 15.0242 19.0115 14.7041C19.0115 14.4004 19.2396 14.1571 19.5249 14.1597Z" fill="#FFEB61"/>
<path d="M16.0763 13.9517C16.0699 14.2844 15.8342 14.5214 15.5119 14.5189C15.2189 14.5163 14.9871 14.2769 14.9934 13.982C14.9998 13.6719 15.289 13.4047 15.6087 13.4136C15.9005 13.4211 16.0814 13.6291 16.075 13.9505L16.0763 13.9517Z" fill="#FFEB61"/>
<path d="M16.9222 14.7596C16.9184 14.4092 17.1362 14.1584 17.4433 14.1584C17.7261 14.1584 17.9618 14.4042 17.9669 14.7016C17.972 15.0192 17.7439 15.2713 17.4445 15.2788C17.1273 15.2864 16.9248 15.0847 16.9209 14.7596H16.9222Z" fill="#FFEB61"/>
<path d="M21.9595 14.0147C21.957 14.297 21.7468 14.5214 21.483 14.5214C21.1798 14.5214 20.8868 14.2 20.8957 13.8761C20.9034 13.6152 21.1187 13.3846 21.3582 13.3808C21.6639 13.3757 21.9608 13.6883 21.9595 14.0135V14.0147Z" fill="#FFEB61"/>
<path d="M31.6863 29.465C31.9653 29.4613 32.215 29.7158 32.2163 30.007C32.2188 30.2767 32.0022 30.496 31.7232 30.5061C31.4366 30.5174 31.1984 30.2906 31.2035 30.0082C31.2073 29.7058 31.4188 29.4676 31.6863 29.4638V29.465Z" fill="#FFEB61"/>
<path d="M5.2437 29.4663C5.5278 29.4688 5.75712 29.702 5.75457 29.9818C5.75202 30.2767 5.52907 30.5098 5.25644 30.5048C4.96725 30.4998 4.76979 30.2817 4.77616 29.9729C4.78125 29.6717 4.9749 29.4625 5.2437 29.465V29.4663Z" fill="#FFEB61"/>
</g>
<defs>
<clipPath id="clip0_266_1359">
<rect width="37" height="47" fill="white" transform="translate(0 0.499023)"/>
</clipPath>
</defs>
</svg>
