<svg width="41" height="49" viewBox="0 0 41 49" fill="none" xmlns="http://www.w3.org/2000/svg">
<mask id="path-1-outside-1_266_1355" maskUnits="userSpaceOnUse" x="7.60815" y="1.07959" width="25" height="48" fill="black">
<rect fill="white" x="7.60815" y="1.07959" width="25" height="48"/>
<path d="M28.1927 9.2214C28.4397 9.53015 28.3899 9.73014 28.0028 9.90894C26.4582 10.6232 25.7559 11.9743 25.2278 13.5521C25.426 13.4885 25.5633 13.4268 25.7061 13.4019C26.2766 13.3051 26.8499 13.2268 27.4194 13.13C28.1964 12.9973 28.9456 12.778 29.5991 12.3162C29.7926 12.1789 29.9567 12.1789 30.1014 12.3623C30.2534 12.5549 30.2221 12.7494 30.0368 12.8978C29.8949 13.0111 29.7364 13.1088 29.5733 13.1899C28.6987 13.6268 27.7724 13.8802 26.7946 13.9328C26.1771 13.9659 25.5965 14.1318 25.0462 14.4046C24.9513 14.4516 24.8444 14.5447 24.8131 14.6387C24.5679 15.3806 24.3394 16.1281 24.108 16.8737C24.1007 16.8958 24.1154 16.9253 24.1237 16.9714C24.4158 16.6294 24.685 16.2912 24.979 15.976C25.7024 15.1972 26.5319 14.5549 27.4987 14.1042C27.8406 13.9447 28.107 14.1457 28.0471 14.5171C28.0305 14.6212 27.9355 14.7585 27.8425 14.7972C26.2057 15.4774 25.1467 16.7926 24.1246 18.151C23.9689 18.3584 23.8076 18.5621 23.6113 18.8165C24.1237 18.6469 24.5762 18.4957 25.0297 18.3474C25.1485 18.3086 25.2693 18.2727 25.3919 18.2515C25.6674 18.2045 25.8361 18.3059 25.8785 18.5317C25.9227 18.7667 25.7799 18.9372 25.5329 19.0211C24.8324 19.2579 24.1348 19.5068 23.4426 19.7667C23.3422 19.8044 23.2306 19.9224 23.2021 20.0247C22.8758 21.1961 22.5643 22.3712 22.25 23.5453C22.2463 23.5592 22.262 23.5776 22.2768 23.6163C22.3265 23.5592 22.3708 23.5131 22.4086 23.4624C23.1901 22.4348 24.1394 21.5942 25.2407 20.9242C25.2656 20.9095 25.2905 20.8938 25.3154 20.8791C25.6428 20.6929 25.9156 20.7503 26.1338 21.0514C26.4609 20.9076 26.7872 20.7491 27.1254 20.6201C27.3909 20.5187 27.542 20.6044 27.6489 20.8625C27.7402 21.0818 27.6766 21.2348 27.46 21.3316C26.9236 21.5694 26.3927 21.8191 25.849 22.0385C25.7623 22.0735 25.5845 22.0127 25.5163 21.9362C25.3393 21.7389 25.2131 21.7666 25.014 21.915C23.8675 22.7675 22.9394 23.82 22.1385 24.9932C22.0805 25.078 22.0334 25.1711 21.9422 25.325C22.0823 25.2614 22.156 25.2301 22.2288 25.1941C22.462 25.078 22.697 24.9646 22.9274 24.843C23.5173 24.5296 24.1136 24.4365 24.7873 24.5858C25.9365 24.8402 27.0757 24.7517 28.154 24.2292C28.3567 24.1306 28.4941 24.2412 28.5604 24.3803C28.6157 24.4964 28.624 24.7001 28.5549 24.7951C28.4618 24.9232 28.2867 25.0126 28.1282 25.0679C26.8609 25.5084 25.5725 25.5093 24.2702 25.2402C24.1311 25.2116 23.9596 25.2236 23.8297 25.2789C23.1468 25.5711 22.4712 25.8807 21.7966 26.1941C21.721 26.2291 21.6381 26.3176 21.6206 26.3941C21.3717 27.5148 21.133 28.6382 20.8925 29.7617C20.8897 29.7764 20.9035 29.7949 20.9035 29.7949C21.4325 29.1995 21.9321 28.5617 22.5109 28.0078C23.0924 27.4512 23.7541 26.9784 24.4066 26.4475C24.5476 26.6383 24.637 26.759 24.7421 26.9028C24.8969 26.8263 25.0527 26.7544 25.2048 26.6752C26.0812 26.2236 26.9946 25.9028 27.9927 25.8835C28.1346 25.8807 28.2839 25.9019 28.4185 25.9462C28.6885 26.0356 28.7346 26.1618 28.6277 26.4245C29.0848 26.5185 29.5502 26.5849 29.9981 26.7139C30.3373 26.8116 30.658 26.9802 30.9797 27.1323C31.258 27.2641 31.3668 27.5037 31.235 27.7811C31.0294 28.2134 30.8424 28.6751 30.5428 29.0364C29.9889 29.7046 29.3115 30.2327 28.424 30.4179C28.3687 30.4299 28.2922 30.5368 28.2941 30.5976C28.3024 30.8787 28.1448 30.9819 27.9024 31.0492C27.7549 31.0898 27.624 31.1911 27.4849 31.2658C27.4978 31.3017 27.5098 31.3377 27.5227 31.3736C27.8415 31.4188 28.1678 31.4363 28.4784 31.5146C28.859 31.6105 29.236 31.7377 29.5982 31.8888C29.9263 32.0261 29.9908 32.2022 29.8839 32.5423C29.5991 33.4408 28.9963 34.0878 28.2323 34.6039C28.1549 34.6565 28.0738 34.7044 27.9761 34.7661C28.2259 35.0491 28.0305 35.1947 27.8323 35.3293C26.9245 35.9467 25.9043 36.2518 24.8269 36.3817C24.0859 36.4711 23.344 36.4914 22.6076 36.3237C22.5136 36.3025 22.391 36.3292 22.3026 36.3753C21.5321 36.7753 20.7653 37.1817 20.0003 37.5937C19.9423 37.625 19.8768 37.7024 19.8732 37.7623C19.7967 38.8296 19.7285 39.8968 19.7239 40.9807C19.9367 40.7291 20.145 40.4729 20.3635 40.2268C21.0869 39.413 21.9118 38.7181 22.8168 38.1144C23.1366 37.9015 23.2196 37.9209 23.3993 38.2738C23.4205 38.3162 23.438 38.3605 23.4657 38.425C23.7818 38.3328 24.0905 38.2342 24.4039 38.1531C25.1716 37.9522 25.9485 37.9061 26.7282 38.0674C26.9245 38.108 27.1153 38.1844 27.3042 38.2573C27.5429 38.3494 27.6803 38.4996 27.5319 38.7854C27.6793 38.86 27.8157 38.9264 27.9494 38.9982C28.6 39.3457 29.0747 39.8655 29.436 40.5023C29.565 40.73 29.5438 40.9171 29.3696 41.1051C28.6148 41.9189 27.6812 42.4119 26.6066 42.6488C26.3218 42.7115 26.1218 42.5898 26.0904 42.3659C26.0508 42.0885 26.2305 41.9972 26.46 41.9428C27.3337 41.7373 28.0941 41.3217 28.7696 40.7069C28.2812 40.0397 27.7116 39.5208 26.8738 39.3743C26.4351 39.2978 26.3181 39.1015 26.4683 38.719C26.0084 38.5863 25.5393 38.6112 25.096 38.7365C24.5145 38.9006 23.9458 39.119 23.3846 39.3457C23.1864 39.4259 23.0592 39.471 22.9357 39.2545C22.8583 39.119 22.7413 39.0416 22.5781 39.1706C21.4888 40.036 20.5376 41.0304 19.7497 42.1788C19.7285 42.2092 19.7183 42.2461 19.6833 42.3262C19.7884 42.2931 19.8566 42.2765 19.9202 42.2497C20.0271 42.2055 20.134 42.1603 20.2372 42.1078C21.0584 41.6922 21.862 41.5465 22.7827 41.9097C23.4131 42.1576 24.1375 42.176 24.8232 42.27C25.2278 42.3253 25.4296 42.5686 25.2214 42.8497C25.1402 42.9585 24.9255 43.0248 24.778 43.0165C23.8279 42.9603 22.9062 42.7428 22.0076 42.4359C21.7413 42.3447 21.5081 42.3557 21.2584 42.4765C20.7717 42.7115 20.2796 42.9373 19.7865 43.1566C19.6335 43.2248 19.569 43.3124 19.5792 43.4856C19.652 44.681 19.7146 45.8763 19.7828 47.0717C19.7939 47.2643 19.8114 47.4569 19.8308 47.6496C19.8492 47.8311 19.7828 47.9583 19.5985 47.9896C19.3994 48.0237 19.2123 47.9832 19.1764 47.7482C19.1091 47.3095 19.0372 46.8689 19.0142 46.4266C18.9534 45.2791 18.922 44.1299 18.8649 42.9824C18.8584 42.8433 18.8022 42.6765 18.711 42.576C18.3202 42.1484 17.9147 41.7327 17.4963 41.3327C17.3884 41.2295 17.217 41.1595 17.0668 41.1392C16.5018 41.0645 15.9341 41.0175 15.3673 40.9576C15.301 40.9502 15.2328 40.9392 15.1692 40.918C14.9572 40.8489 14.8429 40.7069 14.8908 40.4793C14.936 40.2673 15.0816 40.1706 15.2973 40.2001C15.7083 40.2572 16.1212 40.3853 16.5286 40.3696C17.4898 40.3318 18.1165 40.859 18.6898 41.518C18.7396 41.5751 18.7902 41.6304 18.9027 41.6756C18.8833 41.4157 18.9211 41.1346 18.8345 40.8996C18.4096 39.7438 17.8041 38.6812 17.0981 37.6287C16.8336 38.0112 16.6281 37.7974 16.4161 37.5955C15.7903 36.9974 15.0392 36.6066 14.2439 36.2924C14.2107 36.2794 14.172 36.2794 14.1369 36.273C14.0457 36.7578 13.9849 36.8094 13.501 36.7375C12.8513 36.6407 12.2098 36.6767 11.5739 36.8278C11.1767 36.9218 11.1389 36.9882 11.3131 37.3633C11.6992 38.1909 12.2651 38.86 13.0798 39.2978C13.3093 39.4213 13.5471 39.5291 13.7803 39.6452C14.0162 39.7623 14.077 39.9272 13.9729 40.1669C13.8807 40.3798 13.7167 40.4166 13.5195 40.3337C12.0255 39.7061 10.9352 38.6969 10.4882 37.0932C10.3629 36.6426 10.4643 36.4656 10.9057 36.2896C11.5721 36.0242 12.2679 35.9421 12.9812 35.9753C13.0577 35.979 13.1342 35.9753 13.1821 35.9753C13.2291 35.8251 13.2328 35.6389 13.3241 35.5698C13.4273 35.4915 13.6153 35.4832 13.7582 35.5034C14.6918 35.6417 15.5378 36.003 16.3046 36.5513C16.4687 36.6684 16.6134 36.8214 16.7562 36.5154C16.7765 36.473 17.0216 36.473 17.0981 36.5338C17.2769 36.6748 17.4474 36.8472 17.5682 37.0398C17.9976 37.7264 18.4059 38.4268 18.8207 39.1236C18.8833 39.2286 18.9359 39.3402 19.0437 39.4388C19.0677 39.0895 19.0907 38.7402 19.1165 38.3918C19.1405 38.0646 19.1801 37.7375 19.1865 37.4094C19.1893 37.2785 19.1644 37.1098 19.0833 37.0195C18.6133 36.4951 18.123 35.9882 17.6391 35.4767C17.4843 35.3127 17.2981 35.2555 17.0677 35.2601C16.0502 35.2804 15.0438 35.1855 14.0494 34.9486C13.1278 34.7293 12.313 34.3136 11.5951 33.7007C11.3979 33.5321 11.197 33.368 11.3481 33.1118C10.9214 32.7634 10.4919 32.4621 10.1223 32.1008C9.36753 31.3626 8.84866 30.4796 8.64498 29.4299C8.54268 28.9009 8.63576 28.7286 9.15095 28.5654C10.5306 28.1295 11.8937 28.2226 13.2439 28.7037C13.3526 28.7424 13.4596 28.7866 13.5674 28.8272C13.819 28.3396 13.9812 28.2871 14.442 28.5995C15.2162 29.1249 15.8816 29.7663 16.4143 30.5396C16.4585 30.6031 16.4982 30.6686 16.5433 30.7313C16.5535 30.7451 16.5747 30.7515 16.5912 30.7607C16.9184 30.4981 17.0198 30.5064 17.3249 30.852C18.2041 31.851 18.7967 33.0215 19.3303 34.2261C19.3709 34.3173 19.4096 34.4095 19.5174 34.4897C19.5976 33.9413 19.6787 33.3929 19.757 32.8445C19.7874 32.6344 19.7847 32.4151 19.8437 32.2142C19.9635 31.804 19.8612 31.4639 19.6004 31.1451C19.2391 30.7055 18.9036 30.2419 18.5211 29.8216C18.3396 29.6216 18.0907 29.4585 17.8428 29.346C16.5728 28.771 15.3858 28.0825 14.4531 27.0189C14.3581 26.9102 14.2687 26.7959 14.1913 26.6743C14.0789 26.4991 14.1471 26.3544 14.3075 26.2577C14.4687 26.16 14.6503 26.0826 14.7978 26.278C15.5535 27.2752 16.5452 27.9765 17.6778 28.4576C18.5451 28.8263 19.2372 29.3645 19.7552 30.1414C19.7921 30.1967 19.8409 30.2456 19.887 30.2944C19.8971 30.3045 19.9211 30.3018 19.9865 30.3147C19.687 28.6475 19.3156 27.0226 18.6317 25.4605C18.3101 25.6144 18.1986 25.4301 18.0935 25.196C17.6834 24.2863 17.0613 23.5297 16.3765 22.7924C16.3258 22.8661 16.2936 22.9122 16.2631 22.9601C16.1157 23.1923 15.936 23.2329 15.7028 23.0762C15.0752 22.6541 14.3757 22.4191 13.6356 22.2836C13.4043 22.2412 13.3259 22.3103 13.3112 22.5417C13.254 23.4209 13.454 24.2283 13.9416 24.9637C14.125 25.2402 14.1231 25.419 13.9397 25.5434C13.736 25.6807 13.4688 25.5978 13.3038 25.3407C12.6135 24.267 12.4651 23.0965 12.6974 21.8634C12.7444 21.6118 12.9481 21.4763 13.2844 21.5242C13.7701 21.5933 14.254 21.6882 14.7296 21.8099C15.0632 21.8956 15.3802 22.044 15.7231 22.1712C15.747 22.1343 15.7793 22.0901 15.8079 22.0422C15.9701 21.7666 16.159 21.7131 16.4244 21.9242C16.7184 22.1583 17.0078 22.4071 17.2502 22.6928C17.6373 23.1481 17.9783 23.6421 18.3506 24.1094C18.4133 24.1877 18.5405 24.2126 18.6326 24.2706C18.7285 24.3306 18.8492 24.3822 18.9036 24.4716C19.4483 25.3609 19.7957 26.3314 20.0464 27.3387C20.1672 27.8235 20.2805 28.3101 20.4455 28.7949C20.5644 28.1461 20.6833 27.4982 20.8022 26.8494C20.8077 26.8208 20.804 26.7895 20.8151 26.7637C21.0833 26.1213 20.863 25.595 20.534 25.0181C20.0658 24.1969 19.5423 23.5352 18.6428 23.1039C17.4788 22.5454 16.6714 21.5334 15.9857 20.4533C15.7139 20.0238 15.6991 19.9676 16.0954 19.6865C15.9148 19.1353 15.6807 18.61 15.5793 18.0607C15.4862 17.5557 15.5203 17.0239 15.5314 16.5041C15.5378 16.2424 15.7037 16.0534 15.9784 16.0073C16.7157 15.8829 17.4216 15.9898 18.0907 16.3198C18.2806 16.4138 18.3515 16.5723 18.2585 16.7797C18.1617 16.9972 18.017 17.0746 17.7709 16.9972C17.3599 16.8681 16.9424 16.7585 16.523 16.6608C16.2807 16.6046 16.1654 16.7299 16.1728 16.9797C16.1986 17.8856 16.3986 18.7437 16.9193 19.4985C17.2954 20.0431 17.3073 20.0349 16.782 20.421C17.5027 21.3989 18.3396 22.2587 19.4649 22.7435C20.1303 23.0301 20.5487 23.479 20.8261 24.1121C20.8906 24.2596 20.9736 24.3988 21.0851 24.6135C21.1109 24.4771 21.1321 24.42 21.1312 24.3628C21.0998 22.973 21.1284 21.5786 20.8178 20.21C20.769 19.9961 20.8565 19.868 21.0455 19.8081C21.2796 19.7335 21.4436 19.8671 21.4869 20.0699C21.5865 20.5399 21.662 21.0173 21.7173 21.4947C21.7496 21.7767 21.7229 22.0643 21.7229 22.35C21.757 22.3527 21.7911 22.3555 21.8252 22.3583C21.9063 22.0311 21.9855 21.7039 22.0694 21.3786C22.1726 20.9768 22.2583 20.5685 22.3929 20.1768C22.4657 19.9657 22.4279 19.8201 22.3182 19.6459C21.7855 18.799 21.1948 18.0165 20.3699 17.4128C19.487 16.7668 18.8658 15.8949 18.4548 14.8774C18.4078 14.7613 18.3626 14.6433 18.3294 14.5226C18.2824 14.3503 18.2456 14.1742 18.4686 14.0821C18.6916 13.9899 18.911 14.0553 18.9958 14.2904C19.4474 15.5511 20.3349 16.4516 21.3468 17.2773C21.7736 17.6257 22.0924 18.105 22.4574 18.5271C22.5256 18.6063 22.58 18.6966 22.7118 18.7759C22.7274 18.4091 22.7615 18.0423 22.7551 17.6764C22.7311 16.3133 22.5007 14.9834 22.0141 13.7097C21.8537 13.2904 21.6113 12.9005 21.3846 12.5107C21.2372 12.2572 21.2353 12.0849 21.4408 11.9347C21.6353 11.7918 21.8731 11.8195 22.0003 12.0784C22.3376 12.7706 22.6943 13.4618 22.9302 14.1908C23.1689 14.9281 23.2703 15.7087 23.4306 16.4635C23.4454 16.4258 23.4767 16.3557 23.5007 16.282C23.6712 15.7493 23.8269 15.2101 24.0159 14.6839C24.0914 14.4738 24.0656 14.3438 23.9209 14.1715C23.0767 13.1595 22.3145 12.0923 21.8427 10.8462C21.6537 10.3467 21.6971 10.1255 21.9901 10.0352C22.2399 9.95778 22.3938 10.1246 22.5468 10.6011C22.9118 11.7365 23.6251 12.6526 24.3781 13.5429C24.4094 13.5429 24.4407 13.5429 24.4711 13.5429C24.6011 12.9558 24.7744 12.3734 24.8481 11.7789C24.9264 11.1504 24.9135 10.5098 24.9338 9.87484C24.9412 9.63982 25.0509 9.47577 25.2702 9.42969C25.4951 9.38177 25.5624 9.56978 25.6149 9.7412C25.6481 9.85087 25.6665 9.96516 25.7117 10.1698C25.7605 9.92184 25.7799 9.75226 25.8278 9.59005C26.1485 8.49608 26.3181 7.38552 26.2232 6.24363C26.2001 5.96806 26.401 5.90816 26.5955 5.84272C26.801 5.7736 26.9006 5.87866 26.9485 6.06575C26.9568 6.09893 26.9909 6.12658 27.0314 6.18188C27.3125 5.51646 27.6784 4.93492 28.1623 4.43079C29.1604 3.39211 30.3631 2.89259 31.8128 3.03821C32.3013 3.08706 32.3713 3.14604 32.3879 3.63635C32.4478 5.44366 31.8165 6.92379 30.2968 7.96615C30.1392 8.0749 29.9253 8.13573 29.7336 8.14771C29.6276 8.15416 29.4442 8.03066 29.4194 7.93389C29.3899 7.81961 29.4885 7.66846 29.541 7.53759C29.5521 7.50902 29.6028 7.49428 29.6369 7.47677C31.0387 6.74684 31.5714 5.50264 31.6949 4.01237C31.7161 3.75339 31.6267 3.67782 31.3677 3.6898C29.859 3.76445 28.801 4.55705 28.0277 5.78742C27.4886 6.64546 27.1641 7.59658 26.8987 8.56889C26.8231 8.84722 26.7448 9.12463 26.6434 9.48683C26.7706 9.37347 26.837 9.30251 26.9144 9.24721C27.2489 9.0039 27.5724 8.74216 27.9272 8.53203C28.2471 8.34217 28.4747 8.40208 28.5724 8.62972C28.6701 8.85736 28.5521 9.05182 28.2314 9.19376C28.2166 9.20021 28.2056 9.21587 28.1927 9.22786V9.2214ZM19.1183 35.8887C18.6833 34.3486 17.958 32.9487 17.0189 31.6335C16.9507 31.6962 16.9267 31.7128 16.9092 31.734C16.6023 32.1128 16.4097 32.0602 16.1728 31.6344C15.8982 31.1405 15.5784 30.6667 15.2291 30.2225C14.9848 29.9128 14.6586 29.6686 14.3526 29.3792C14.2008 29.7172 13.9717 29.8096 13.6651 29.6566C12.6494 29.1433 11.5721 28.9249 10.4403 29.0226C10.0634 29.0557 9.69194 29.1608 9.33896 29.229C9.32882 29.3147 9.32329 29.3341 9.32514 29.3525C9.32882 29.3811 9.3362 29.4096 9.34449 29.4364C9.80991 30.9875 10.8366 32.0446 12.2716 32.7284C12.7527 32.9579 12.7997 33.1395 12.3407 33.5422C12.9554 33.7818 13.5231 34.039 14.113 34.227C15.053 34.5256 16.0318 34.5523 17.0097 34.5274C17.3977 34.5173 17.7322 34.6141 18.0179 34.8777C18.3838 35.215 18.7506 35.5514 19.1165 35.8878L19.1183 35.8887ZM20.851 31.2391C20.9284 31.2105 20.9883 31.193 21.0455 31.1663C21.5192 30.9497 21.9966 30.7432 22.462 30.5119C22.7754 30.3562 23.074 30.3571 23.4085 30.4455C24.8241 30.8216 26.2333 30.8372 27.613 30.2833C27.8351 30.1939 28.0378 30.0714 28.2812 30.3525C28.1656 30.0268 28.2443 29.7964 28.5171 29.6612C28.6295 29.6059 28.742 29.5497 28.8507 29.488C29.5862 29.0659 30.1834 28.512 30.5401 27.712C30.4783 27.665 30.4304 27.6152 30.3723 27.5876C29.6885 27.2632 28.9751 27.0973 28.212 27.1655C28.048 27.1802 27.8369 27.1968 27.7245 27.1111C27.6084 27.0226 27.5862 26.8107 27.5144 26.6309C27.4526 26.642 27.3577 26.654 27.2646 26.6752C26.4185 26.8687 25.6379 27.2125 24.9181 27.6991C24.4748 27.9986 24.4711 27.9922 24.1007 27.6687C23.2979 28.0668 21.2215 30.3377 20.8501 31.2381L20.851 31.2391ZM22.8565 32.8436C21.7422 33.9966 20.7966 35.25 20.075 36.661C20.7874 36.3135 21.4666 35.9716 22.156 35.6546C22.2915 35.5919 22.4749 35.5873 22.627 35.6131C24.1145 35.8702 25.5393 35.6638 26.919 35.0703C26.7771 34.7413 26.8112 34.626 27.131 34.4537C27.8037 34.0897 28.3761 33.6086 28.8424 33.0031C28.9613 32.8482 29.0562 32.674 29.1807 32.4796C28.4498 32.2188 27.7595 32.0556 27.0351 32.0925C26.4416 32.1229 26.425 32.1183 26.2674 31.5792C26.249 31.5745 26.2287 31.5644 26.2121 31.5672C26.1559 31.5782 26.0997 31.593 26.0444 31.6096C25.1854 31.8722 24.4066 32.287 23.6942 32.8326C23.2832 33.1468 23.2795 33.1413 22.8565 32.8436ZM20.1736 35.0279C20.2529 34.9173 20.2989 34.8574 20.3404 34.7947C21.0713 33.6952 21.9182 32.6971 22.9256 31.839C23.1532 31.6455 23.262 31.651 23.4491 31.8778C23.4896 31.9275 23.5237 31.9828 23.5597 32.0344C23.9163 31.8105 24.2583 31.5976 24.5919 31.3884C24.1237 31.2916 23.673 31.1902 23.2187 31.111C23.0942 31.0898 22.944 31.1054 22.8297 31.1561C22.1422 31.4621 21.4593 31.7782 20.7828 32.1072C20.6906 32.1524 20.6003 32.2833 20.5828 32.3874C20.44 33.2427 20.3146 34.1016 20.1736 35.0279Z"/>
<path d="M23.3975 6.81319C23.3007 6.5238 23.2011 6.22427 23.1007 5.92475C23.0371 5.73213 23.0703 5.5819 23.2804 5.50725C23.5016 5.42891 23.6574 5.5008 23.7495 5.71277C23.9025 6.06668 24.0435 6.42611 24.2076 6.77448C24.4168 7.21963 24.6463 7.65464 24.861 8.09702C24.9154 8.20854 24.9568 8.32835 24.9909 8.44816C25.0462 8.64447 25.0619 8.83801 24.837 8.94492C24.6195 9.04906 24.3744 8.96151 24.238 8.74585C24.0785 8.49424 23.9348 8.22973 23.7486 7.99933C23.4491 7.62883 23.0509 7.40396 22.579 7.30258C22.3754 7.25926 22.251 7.30995 22.2288 7.51916C22.1809 7.96799 22.1247 8.41775 22.1136 8.86842C22.1081 9.09238 22.0851 9.25827 21.8371 9.28776C21.5994 9.31541 21.4298 9.20205 21.4077 8.96151C21.3404 8.23066 21.3929 7.51547 21.7735 6.86112C21.9265 6.59753 22.1551 6.47956 22.4556 6.55145C22.7717 6.62795 23.0841 6.7238 23.3975 6.81135V6.81319Z"/>
<path d="M26.6738 4.99022C26.5909 5.06671 26.5052 5.20219 26.3854 5.24643C26.1937 5.31647 26.0637 5.20035 25.9881 5.01141C25.8204 4.59115 25.6785 4.15522 25.4582 3.76353C25.2868 3.45939 25.0168 3.20963 24.7808 2.94328C24.6546 2.80043 24.5255 2.82347 24.3836 2.95526C23.9808 3.33129 23.7274 3.78381 23.6306 4.32572C23.5762 4.63355 23.4527 4.74967 23.2076 4.72294C22.9975 4.6999 22.8546 4.48609 22.9044 4.21421C23.0647 3.33774 23.4712 2.6115 24.2702 2.16727C24.4168 2.08525 24.673 2.0447 24.8057 2.1175C25.9098 2.71933 26.4167 3.72943 26.6729 4.99114L26.6738 4.99022Z"/>
<path d="M29.1171 20.3851C29.6212 20.5067 30.1309 20.6099 30.6276 20.7574C30.9806 20.8625 31.0599 21.0099 31.0202 21.3657C30.9096 22.3463 30.4442 23.1334 29.6922 23.7591C29.5235 23.9002 29.3373 23.9591 29.1355 23.8209C28.9244 23.6762 28.9152 23.4145 29.13 23.2375C29.6092 22.844 29.9806 22.3703 30.2285 21.8016C30.3944 21.4228 30.3686 21.3574 29.9567 21.2883C29.6452 21.2357 29.3263 21.2007 29.0111 21.209C28.6166 21.2191 28.424 21.1371 28.4111 20.8791C28.3991 20.6358 28.6129 20.4653 28.9585 20.4422C29.0065 20.4394 29.0553 20.4422 29.1032 20.4422L29.1171 20.3851Z"/>
<path d="M29.9447 13.7936C30.4295 13.906 30.917 14.0046 31.3963 14.1355C31.6654 14.2093 31.7667 14.4341 31.7409 14.7023C31.6617 15.5456 31.3557 16.2875 30.7401 16.8866C30.7124 16.9133 30.6838 16.9391 30.6534 16.9631C30.4064 17.1621 30.1742 17.1806 30.0387 17.0128C29.9005 16.8423 29.9419 16.6064 30.1714 16.4036C30.5908 16.0322 30.8331 15.5604 30.9907 15.0341C31.0488 14.8387 31.0082 14.7051 30.788 14.6894C30.3484 14.659 29.9078 14.6083 29.4691 14.6277C29.0636 14.6452 28.8756 14.5991 28.8433 14.3493C28.8092 14.0913 29.0056 13.918 29.3807 13.8793C29.5051 13.8664 29.6304 13.86 29.7558 13.8526C29.8138 13.8489 29.871 13.8526 29.929 13.8526C29.9336 13.8332 29.9382 13.8139 29.9438 13.7945L29.9447 13.7936Z"/>
<path d="M31.3548 9.54858C30.9059 9.33661 30.447 9.34214 29.9843 9.37163C29.8977 9.37716 29.812 9.4002 29.7263 9.40112C29.5272 9.40204 29.3576 9.34859 29.3244 9.11634C29.2931 8.89423 29.3871 8.7182 29.6028 8.67396C29.8452 8.62419 30.1041 8.59009 30.3465 8.62142C30.7834 8.67672 31.2165 8.77534 31.6469 8.87487C31.9068 8.93478 32.0174 9.11542 32.0045 9.39098C31.9621 10.2785 31.6165 11.0333 31.0285 11.684C30.8755 11.8536 30.6719 11.9596 30.4728 11.7697C30.2903 11.5955 30.3161 11.366 30.482 11.1983C30.9299 10.7439 31.188 10.1956 31.3557 9.54766L31.3548 9.54858Z"/>
<path d="M17.9552 12.3227C18.0354 11.8785 18.0935 11.4278 18.2022 10.9909C18.3027 10.59 18.5525 10.3909 18.9478 10.4702C19.4999 10.5808 20.0344 10.779 20.5745 10.9476C20.6427 10.9688 20.7026 11.0342 20.7542 11.0905C20.8814 11.2278 20.9542 11.3789 20.816 11.554C20.686 11.7181 20.5386 11.755 20.3321 11.6757C19.9211 11.5181 19.4999 11.3835 19.0806 11.2471C18.899 11.1882 18.8013 11.2776 18.7921 11.4582C18.77 11.8619 18.7534 12.2655 18.7396 12.6692C18.7368 12.7457 18.7589 12.8231 18.7607 12.8996C18.7654 13.107 18.7331 13.295 18.4723 13.319C18.2151 13.3429 18.0649 13.224 18.0382 12.9678C18.0161 12.7568 18.0078 12.5448 17.994 12.3328C17.9811 12.3291 17.9672 12.3264 17.9552 12.3227Z"/>
<path d="M27.2001 18.8819C26.8877 18.8939 26.6849 18.7566 26.6858 18.5473C26.6877 18.3031 26.8407 18.1971 27.0747 18.1722C27.7549 18.1013 28.3862 17.8755 28.9724 17.5299C29.188 17.4027 29.3779 17.3354 29.5447 17.5833C29.6728 17.7732 29.6028 18.0036 29.3447 18.1649C28.671 18.587 27.9208 18.7778 27.2001 18.8819Z"/>
<path d="M20.8496 20.3264C20.8119 20.2932 20.7252 20.2379 20.6653 20.1623C20.2663 19.6563 19.8727 19.1458 19.4764 18.637C19.3483 18.473 19.2073 18.3154 19.423 18.1145C19.6561 17.8979 19.811 17.8721 20.0082 18.1163C20.4487 18.6619 20.8782 19.2176 21.269 19.7992C21.4505 20.0701 21.2506 20.3273 20.8496 20.3264Z"/>
<path d="M10.8643 29.4502C10.9721 29.4944 11.102 29.5138 11.1859 29.5866C12.5388 30.7654 14.1231 31.5727 15.6899 32.4068C15.8908 32.5137 16.1166 32.5994 15.8899 32.9395C14.148 31.8731 12.2319 31.0824 10.773 29.6023C10.8034 29.5516 10.8338 29.5018 10.8633 29.4511L10.8643 29.4502Z"/>
</mask>
<path d="M28.1927 9.2214C28.4397 9.53015 28.3899 9.73014 28.0028 9.90894C26.4582 10.6232 25.7559 11.9743 25.2278 13.5521C25.426 13.4885 25.5633 13.4268 25.7061 13.4019C26.2766 13.3051 26.8499 13.2268 27.4194 13.13C28.1964 12.9973 28.9456 12.778 29.5991 12.3162C29.7926 12.1789 29.9567 12.1789 30.1014 12.3623C30.2534 12.5549 30.2221 12.7494 30.0368 12.8978C29.8949 13.0111 29.7364 13.1088 29.5733 13.1899C28.6987 13.6268 27.7724 13.8802 26.7946 13.9328C26.1771 13.9659 25.5965 14.1318 25.0462 14.4046C24.9513 14.4516 24.8444 14.5447 24.8131 14.6387C24.5679 15.3806 24.3394 16.1281 24.108 16.8737C24.1007 16.8958 24.1154 16.9253 24.1237 16.9714C24.4158 16.6294 24.685 16.2912 24.979 15.976C25.7024 15.1972 26.5319 14.5549 27.4987 14.1042C27.8406 13.9447 28.107 14.1457 28.0471 14.5171C28.0305 14.6212 27.9355 14.7585 27.8425 14.7972C26.2057 15.4774 25.1467 16.7926 24.1246 18.151C23.9689 18.3584 23.8076 18.5621 23.6113 18.8165C24.1237 18.6469 24.5762 18.4957 25.0297 18.3474C25.1485 18.3086 25.2693 18.2727 25.3919 18.2515C25.6674 18.2045 25.8361 18.3059 25.8785 18.5317C25.9227 18.7667 25.7799 18.9372 25.5329 19.0211C24.8324 19.2579 24.1348 19.5068 23.4426 19.7667C23.3422 19.8044 23.2306 19.9224 23.2021 20.0247C22.8758 21.1961 22.5643 22.3712 22.25 23.5453C22.2463 23.5592 22.262 23.5776 22.2768 23.6163C22.3265 23.5592 22.3708 23.5131 22.4086 23.4624C23.1901 22.4348 24.1394 21.5942 25.2407 20.9242C25.2656 20.9095 25.2905 20.8938 25.3154 20.8791C25.6428 20.6929 25.9156 20.7503 26.1338 21.0514C26.4609 20.9076 26.7872 20.7491 27.1254 20.6201C27.3909 20.5187 27.542 20.6044 27.6489 20.8625C27.7402 21.0818 27.6766 21.2348 27.46 21.3316C26.9236 21.5694 26.3927 21.8191 25.849 22.0385C25.7623 22.0735 25.5845 22.0127 25.5163 21.9362C25.3393 21.7389 25.2131 21.7666 25.014 21.915C23.8675 22.7675 22.9394 23.82 22.1385 24.9932C22.0805 25.078 22.0334 25.1711 21.9422 25.325C22.0823 25.2614 22.156 25.2301 22.2288 25.1941C22.462 25.078 22.697 24.9646 22.9274 24.843C23.5173 24.5296 24.1136 24.4365 24.7873 24.5858C25.9365 24.8402 27.0757 24.7517 28.154 24.2292C28.3567 24.1306 28.4941 24.2412 28.5604 24.3803C28.6157 24.4964 28.624 24.7001 28.5549 24.7951C28.4618 24.9232 28.2867 25.0126 28.1282 25.0679C26.8609 25.5084 25.5725 25.5093 24.2702 25.2402C24.1311 25.2116 23.9596 25.2236 23.8297 25.2789C23.1468 25.5711 22.4712 25.8807 21.7966 26.1941C21.721 26.2291 21.6381 26.3176 21.6206 26.3941C21.3717 27.5148 21.133 28.6382 20.8925 29.7617C20.8897 29.7764 20.9035 29.7949 20.9035 29.7949C21.4325 29.1995 21.9321 28.5617 22.5109 28.0078C23.0924 27.4512 23.7541 26.9784 24.4066 26.4475C24.5476 26.6383 24.637 26.759 24.7421 26.9028C24.8969 26.8263 25.0527 26.7544 25.2048 26.6752C26.0812 26.2236 26.9946 25.9028 27.9927 25.8835C28.1346 25.8807 28.2839 25.9019 28.4185 25.9462C28.6885 26.0356 28.7346 26.1618 28.6277 26.4245C29.0848 26.5185 29.5502 26.5849 29.9981 26.7139C30.3373 26.8116 30.658 26.9802 30.9797 27.1323C31.258 27.2641 31.3668 27.5037 31.235 27.7811C31.0294 28.2134 30.8424 28.6751 30.5428 29.0364C29.9889 29.7046 29.3115 30.2327 28.424 30.4179C28.3687 30.4299 28.2922 30.5368 28.2941 30.5976C28.3024 30.8787 28.1448 30.9819 27.9024 31.0492C27.7549 31.0898 27.624 31.1911 27.4849 31.2658C27.4978 31.3017 27.5098 31.3377 27.5227 31.3736C27.8415 31.4188 28.1678 31.4363 28.4784 31.5146C28.859 31.6105 29.236 31.7377 29.5982 31.8888C29.9263 32.0261 29.9908 32.2022 29.8839 32.5423C29.5991 33.4408 28.9963 34.0878 28.2323 34.6039C28.1549 34.6565 28.0738 34.7044 27.9761 34.7661C28.2259 35.0491 28.0305 35.1947 27.8323 35.3293C26.9245 35.9467 25.9043 36.2518 24.8269 36.3817C24.0859 36.4711 23.344 36.4914 22.6076 36.3237C22.5136 36.3025 22.391 36.3292 22.3026 36.3753C21.5321 36.7753 20.7653 37.1817 20.0003 37.5937C19.9423 37.625 19.8768 37.7024 19.8732 37.7623C19.7967 38.8296 19.7285 39.8968 19.7239 40.9807C19.9367 40.7291 20.145 40.4729 20.3635 40.2268C21.0869 39.413 21.9118 38.7181 22.8168 38.1144C23.1366 37.9015 23.2196 37.9209 23.3993 38.2738C23.4205 38.3162 23.438 38.3605 23.4657 38.425C23.7818 38.3328 24.0905 38.2342 24.4039 38.1531C25.1716 37.9522 25.9485 37.9061 26.7282 38.0674C26.9245 38.108 27.1153 38.1844 27.3042 38.2573C27.5429 38.3494 27.6803 38.4996 27.5319 38.7854C27.6793 38.86 27.8157 38.9264 27.9494 38.9982C28.6 39.3457 29.0747 39.8655 29.436 40.5023C29.565 40.73 29.5438 40.9171 29.3696 41.1051C28.6148 41.9189 27.6812 42.4119 26.6066 42.6488C26.3218 42.7115 26.1218 42.5898 26.0904 42.3659C26.0508 42.0885 26.2305 41.9972 26.46 41.9428C27.3337 41.7373 28.0941 41.3217 28.7696 40.7069C28.2812 40.0397 27.7116 39.5208 26.8738 39.3743C26.4351 39.2978 26.3181 39.1015 26.4683 38.719C26.0084 38.5863 25.5393 38.6112 25.096 38.7365C24.5145 38.9006 23.9458 39.119 23.3846 39.3457C23.1864 39.4259 23.0592 39.471 22.9357 39.2545C22.8583 39.119 22.7413 39.0416 22.5781 39.1706C21.4888 40.036 20.5376 41.0304 19.7497 42.1788C19.7285 42.2092 19.7183 42.2461 19.6833 42.3262C19.7884 42.2931 19.8566 42.2765 19.9202 42.2497C20.0271 42.2055 20.134 42.1603 20.2372 42.1078C21.0584 41.6922 21.862 41.5465 22.7827 41.9097C23.4131 42.1576 24.1375 42.176 24.8232 42.27C25.2278 42.3253 25.4296 42.5686 25.2214 42.8497C25.1402 42.9585 24.9255 43.0248 24.778 43.0165C23.8279 42.9603 22.9062 42.7428 22.0076 42.4359C21.7413 42.3447 21.5081 42.3557 21.2584 42.4765C20.7717 42.7115 20.2796 42.9373 19.7865 43.1566C19.6335 43.2248 19.569 43.3124 19.5792 43.4856C19.652 44.681 19.7146 45.8763 19.7828 47.0717C19.7939 47.2643 19.8114 47.4569 19.8308 47.6496C19.8492 47.8311 19.7828 47.9583 19.5985 47.9896C19.3994 48.0237 19.2123 47.9832 19.1764 47.7482C19.1091 47.3095 19.0372 46.8689 19.0142 46.4266C18.9534 45.2791 18.922 44.1299 18.8649 42.9824C18.8584 42.8433 18.8022 42.6765 18.711 42.576C18.3202 42.1484 17.9147 41.7327 17.4963 41.3327C17.3884 41.2295 17.217 41.1595 17.0668 41.1392C16.5018 41.0645 15.9341 41.0175 15.3673 40.9576C15.301 40.9502 15.2328 40.9392 15.1692 40.918C14.9572 40.8489 14.8429 40.7069 14.8908 40.4793C14.936 40.2673 15.0816 40.1706 15.2973 40.2001C15.7083 40.2572 16.1212 40.3853 16.5286 40.3696C17.4898 40.3318 18.1165 40.859 18.6898 41.518C18.7396 41.5751 18.7902 41.6304 18.9027 41.6756C18.8833 41.4157 18.9211 41.1346 18.8345 40.8996C18.4096 39.7438 17.8041 38.6812 17.0981 37.6287C16.8336 38.0112 16.6281 37.7974 16.4161 37.5955C15.7903 36.9974 15.0392 36.6066 14.2439 36.2924C14.2107 36.2794 14.172 36.2794 14.1369 36.273C14.0457 36.7578 13.9849 36.8094 13.501 36.7375C12.8513 36.6407 12.2098 36.6767 11.5739 36.8278C11.1767 36.9218 11.1389 36.9882 11.3131 37.3633C11.6992 38.1909 12.2651 38.86 13.0798 39.2978C13.3093 39.4213 13.5471 39.5291 13.7803 39.6452C14.0162 39.7623 14.077 39.9272 13.9729 40.1669C13.8807 40.3798 13.7167 40.4166 13.5195 40.3337C12.0255 39.7061 10.9352 38.6969 10.4882 37.0932C10.3629 36.6426 10.4643 36.4656 10.9057 36.2896C11.5721 36.0242 12.2679 35.9421 12.9812 35.9753C13.0577 35.979 13.1342 35.9753 13.1821 35.9753C13.2291 35.8251 13.2328 35.6389 13.3241 35.5698C13.4273 35.4915 13.6153 35.4832 13.7582 35.5034C14.6918 35.6417 15.5378 36.003 16.3046 36.5513C16.4687 36.6684 16.6134 36.8214 16.7562 36.5154C16.7765 36.473 17.0216 36.473 17.0981 36.5338C17.2769 36.6748 17.4474 36.8472 17.5682 37.0398C17.9976 37.7264 18.4059 38.4268 18.8207 39.1236C18.8833 39.2286 18.9359 39.3402 19.0437 39.4388C19.0677 39.0895 19.0907 38.7402 19.1165 38.3918C19.1405 38.0646 19.1801 37.7375 19.1865 37.4094C19.1893 37.2785 19.1644 37.1098 19.0833 37.0195C18.6133 36.4951 18.123 35.9882 17.6391 35.4767C17.4843 35.3127 17.2981 35.2555 17.0677 35.2601C16.0502 35.2804 15.0438 35.1855 14.0494 34.9486C13.1278 34.7293 12.313 34.3136 11.5951 33.7007C11.3979 33.5321 11.197 33.368 11.3481 33.1118C10.9214 32.7634 10.4919 32.4621 10.1223 32.1008C9.36753 31.3626 8.84866 30.4796 8.64498 29.4299C8.54268 28.9009 8.63576 28.7286 9.15095 28.5654C10.5306 28.1295 11.8937 28.2226 13.2439 28.7037C13.3526 28.7424 13.4596 28.7866 13.5674 28.8272C13.819 28.3396 13.9812 28.2871 14.442 28.5995C15.2162 29.1249 15.8816 29.7663 16.4143 30.5396C16.4585 30.6031 16.4982 30.6686 16.5433 30.7313C16.5535 30.7451 16.5747 30.7515 16.5912 30.7607C16.9184 30.4981 17.0198 30.5064 17.3249 30.852C18.2041 31.851 18.7967 33.0215 19.3303 34.2261C19.3709 34.3173 19.4096 34.4095 19.5174 34.4897C19.5976 33.9413 19.6787 33.3929 19.757 32.8445C19.7874 32.6344 19.7847 32.4151 19.8437 32.2142C19.9635 31.804 19.8612 31.4639 19.6004 31.1451C19.2391 30.7055 18.9036 30.2419 18.5211 29.8216C18.3396 29.6216 18.0907 29.4585 17.8428 29.346C16.5728 28.771 15.3858 28.0825 14.4531 27.0189C14.3581 26.9102 14.2687 26.7959 14.1913 26.6743C14.0789 26.4991 14.1471 26.3544 14.3075 26.2577C14.4687 26.16 14.6503 26.0826 14.7978 26.278C15.5535 27.2752 16.5452 27.9765 17.6778 28.4576C18.5451 28.8263 19.2372 29.3645 19.7552 30.1414C19.7921 30.1967 19.8409 30.2456 19.887 30.2944C19.8971 30.3045 19.9211 30.3018 19.9865 30.3147C19.687 28.6475 19.3156 27.0226 18.6317 25.4605C18.3101 25.6144 18.1986 25.4301 18.0935 25.196C17.6834 24.2863 17.0613 23.5297 16.3765 22.7924C16.3258 22.8661 16.2936 22.9122 16.2631 22.9601C16.1157 23.1923 15.936 23.2329 15.7028 23.0762C15.0752 22.6541 14.3757 22.4191 13.6356 22.2836C13.4043 22.2412 13.3259 22.3103 13.3112 22.5417C13.254 23.4209 13.454 24.2283 13.9416 24.9637C14.125 25.2402 14.1231 25.419 13.9397 25.5434C13.736 25.6807 13.4688 25.5978 13.3038 25.3407C12.6135 24.267 12.4651 23.0965 12.6974 21.8634C12.7444 21.6118 12.9481 21.4763 13.2844 21.5242C13.7701 21.5933 14.254 21.6882 14.7296 21.8099C15.0632 21.8956 15.3802 22.044 15.7231 22.1712C15.747 22.1343 15.7793 22.0901 15.8079 22.0422C15.9701 21.7666 16.159 21.7131 16.4244 21.9242C16.7184 22.1583 17.0078 22.4071 17.2502 22.6928C17.6373 23.1481 17.9783 23.6421 18.3506 24.1094C18.4133 24.1877 18.5405 24.2126 18.6326 24.2706C18.7285 24.3306 18.8492 24.3822 18.9036 24.4716C19.4483 25.3609 19.7957 26.3314 20.0464 27.3387C20.1672 27.8235 20.2805 28.3101 20.4455 28.7949C20.5644 28.1461 20.6833 27.4982 20.8022 26.8494C20.8077 26.8208 20.804 26.7895 20.8151 26.7637C21.0833 26.1213 20.863 25.595 20.534 25.0181C20.0658 24.1969 19.5423 23.5352 18.6428 23.1039C17.4788 22.5454 16.6714 21.5334 15.9857 20.4533C15.7139 20.0238 15.6991 19.9676 16.0954 19.6865C15.9148 19.1353 15.6807 18.61 15.5793 18.0607C15.4862 17.5557 15.5203 17.0239 15.5314 16.5041C15.5378 16.2424 15.7037 16.0534 15.9784 16.0073C16.7157 15.8829 17.4216 15.9898 18.0907 16.3198C18.2806 16.4138 18.3515 16.5723 18.2585 16.7797C18.1617 16.9972 18.017 17.0746 17.7709 16.9972C17.3599 16.8681 16.9424 16.7585 16.523 16.6608C16.2807 16.6046 16.1654 16.7299 16.1728 16.9797C16.1986 17.8856 16.3986 18.7437 16.9193 19.4985C17.2954 20.0431 17.3073 20.0349 16.782 20.421C17.5027 21.3989 18.3396 22.2587 19.4649 22.7435C20.1303 23.0301 20.5487 23.479 20.8261 24.1121C20.8906 24.2596 20.9736 24.3988 21.0851 24.6135C21.1109 24.4771 21.1321 24.42 21.1312 24.3628C21.0998 22.973 21.1284 21.5786 20.8178 20.21C20.769 19.9961 20.8565 19.868 21.0455 19.8081C21.2796 19.7335 21.4436 19.8671 21.4869 20.0699C21.5865 20.5399 21.662 21.0173 21.7173 21.4947C21.7496 21.7767 21.7229 22.0643 21.7229 22.35C21.757 22.3527 21.7911 22.3555 21.8252 22.3583C21.9063 22.0311 21.9855 21.7039 22.0694 21.3786C22.1726 20.9768 22.2583 20.5685 22.3929 20.1768C22.4657 19.9657 22.4279 19.8201 22.3182 19.6459C21.7855 18.799 21.1948 18.0165 20.3699 17.4128C19.487 16.7668 18.8658 15.8949 18.4548 14.8774C18.4078 14.7613 18.3626 14.6433 18.3294 14.5226C18.2824 14.3503 18.2456 14.1742 18.4686 14.0821C18.6916 13.9899 18.911 14.0553 18.9958 14.2904C19.4474 15.5511 20.3349 16.4516 21.3468 17.2773C21.7736 17.6257 22.0924 18.105 22.4574 18.5271C22.5256 18.6063 22.58 18.6966 22.7118 18.7759C22.7274 18.4091 22.7615 18.0423 22.7551 17.6764C22.7311 16.3133 22.5007 14.9834 22.0141 13.7097C21.8537 13.2904 21.6113 12.9005 21.3846 12.5107C21.2372 12.2572 21.2353 12.0849 21.4408 11.9347C21.6353 11.7918 21.8731 11.8195 22.0003 12.0784C22.3376 12.7706 22.6943 13.4618 22.9302 14.1908C23.1689 14.9281 23.2703 15.7087 23.4306 16.4635C23.4454 16.4258 23.4767 16.3557 23.5007 16.282C23.6712 15.7493 23.8269 15.2101 24.0159 14.6839C24.0914 14.4738 24.0656 14.3438 23.9209 14.1715C23.0767 13.1595 22.3145 12.0923 21.8427 10.8462C21.6537 10.3467 21.6971 10.1255 21.9901 10.0352C22.2399 9.95778 22.3938 10.1246 22.5468 10.6011C22.9118 11.7365 23.6251 12.6526 24.3781 13.5429C24.4094 13.5429 24.4407 13.5429 24.4711 13.5429C24.6011 12.9558 24.7744 12.3734 24.8481 11.7789C24.9264 11.1504 24.9135 10.5098 24.9338 9.87484C24.9412 9.63982 25.0509 9.47577 25.2702 9.42969C25.4951 9.38177 25.5624 9.56978 25.6149 9.7412C25.6481 9.85087 25.6665 9.96516 25.7117 10.1698C25.7605 9.92184 25.7799 9.75226 25.8278 9.59005C26.1485 8.49608 26.3181 7.38552 26.2232 6.24363C26.2001 5.96806 26.401 5.90816 26.5955 5.84272C26.801 5.7736 26.9006 5.87866 26.9485 6.06575C26.9568 6.09893 26.9909 6.12658 27.0314 6.18188C27.3125 5.51646 27.6784 4.93492 28.1623 4.43079C29.1604 3.39211 30.3631 2.89259 31.8128 3.03821C32.3013 3.08706 32.3713 3.14604 32.3879 3.63635C32.4478 5.44366 31.8165 6.92379 30.2968 7.96615C30.1392 8.0749 29.9253 8.13573 29.7336 8.14771C29.6276 8.15416 29.4442 8.03066 29.4194 7.93389C29.3899 7.81961 29.4885 7.66846 29.541 7.53759C29.5521 7.50902 29.6028 7.49428 29.6369 7.47677C31.0387 6.74684 31.5714 5.50264 31.6949 4.01237C31.7161 3.75339 31.6267 3.67782 31.3677 3.6898C29.859 3.76445 28.801 4.55705 28.0277 5.78742C27.4886 6.64546 27.1641 7.59658 26.8987 8.56889C26.8231 8.84722 26.7448 9.12463 26.6434 9.48683C26.7706 9.37347 26.837 9.30251 26.9144 9.24721C27.2489 9.0039 27.5724 8.74216 27.9272 8.53203C28.2471 8.34217 28.4747 8.40208 28.5724 8.62972C28.6701 8.85736 28.5521 9.05182 28.2314 9.19376C28.2166 9.20021 28.2056 9.21587 28.1927 9.22786V9.2214ZM19.1183 35.8887C18.6833 34.3486 17.958 32.9487 17.0189 31.6335C16.9507 31.6962 16.9267 31.7128 16.9092 31.734C16.6023 32.1128 16.4097 32.0602 16.1728 31.6344C15.8982 31.1405 15.5784 30.6667 15.2291 30.2225C14.9848 29.9128 14.6586 29.6686 14.3526 29.3792C14.2008 29.7172 13.9717 29.8096 13.6651 29.6566C12.6494 29.1433 11.5721 28.9249 10.4403 29.0226C10.0634 29.0557 9.69194 29.1608 9.33896 29.229C9.32882 29.3147 9.32329 29.3341 9.32514 29.3525C9.32882 29.3811 9.3362 29.4096 9.34449 29.4364C9.80991 30.9875 10.8366 32.0446 12.2716 32.7284C12.7527 32.9579 12.7997 33.1395 12.3407 33.5422C12.9554 33.7818 13.5231 34.039 14.113 34.227C15.053 34.5256 16.0318 34.5523 17.0097 34.5274C17.3977 34.5173 17.7322 34.6141 18.0179 34.8777C18.3838 35.215 18.7506 35.5514 19.1165 35.8878L19.1183 35.8887ZM20.851 31.2391C20.9284 31.2105 20.9883 31.193 21.0455 31.1663C21.5192 30.9497 21.9966 30.7432 22.462 30.5119C22.7754 30.3562 23.074 30.3571 23.4085 30.4455C24.8241 30.8216 26.2333 30.8372 27.613 30.2833C27.8351 30.1939 28.0378 30.0714 28.2812 30.3525C28.1656 30.0268 28.2443 29.7964 28.5171 29.6612C28.6295 29.6059 28.742 29.5497 28.8507 29.488C29.5862 29.0659 30.1834 28.512 30.5401 27.712C30.4783 27.665 30.4304 27.6152 30.3723 27.5876C29.6885 27.2632 28.9751 27.0973 28.212 27.1655C28.048 27.1802 27.8369 27.1968 27.7245 27.1111C27.6084 27.0226 27.5862 26.8107 27.5144 26.6309C27.4526 26.642 27.3577 26.654 27.2646 26.6752C26.4185 26.8687 25.6379 27.2125 24.9181 27.6991C24.4748 27.9986 24.4711 27.9922 24.1007 27.6687C23.2979 28.0668 21.2215 30.3377 20.8501 31.2381L20.851 31.2391ZM22.8565 32.8436C21.7422 33.9966 20.7966 35.25 20.075 36.661C20.7874 36.3135 21.4666 35.9716 22.156 35.6546C22.2915 35.5919 22.4749 35.5873 22.627 35.6131C24.1145 35.8702 25.5393 35.6638 26.919 35.0703C26.7771 34.7413 26.8112 34.626 27.131 34.4537C27.8037 34.0897 28.3761 33.6086 28.8424 33.0031C28.9613 32.8482 29.0562 32.674 29.1807 32.4796C28.4498 32.2188 27.7595 32.0556 27.0351 32.0925C26.4416 32.1229 26.425 32.1183 26.2674 31.5792C26.249 31.5745 26.2287 31.5644 26.2121 31.5672C26.1559 31.5782 26.0997 31.593 26.0444 31.6096C25.1854 31.8722 24.4066 32.287 23.6942 32.8326C23.2832 33.1468 23.2795 33.1413 22.8565 32.8436ZM20.1736 35.0279C20.2529 34.9173 20.2989 34.8574 20.3404 34.7947C21.0713 33.6952 21.9182 32.6971 22.9256 31.839C23.1532 31.6455 23.262 31.651 23.4491 31.8778C23.4896 31.9275 23.5237 31.9828 23.5597 32.0344C23.9163 31.8105 24.2583 31.5976 24.5919 31.3884C24.1237 31.2916 23.673 31.1902 23.2187 31.111C23.0942 31.0898 22.944 31.1054 22.8297 31.1561C22.1422 31.4621 21.4593 31.7782 20.7828 32.1072C20.6906 32.1524 20.6003 32.2833 20.5828 32.3874C20.44 33.2427 20.3146 34.1016 20.1736 35.0279Z" fill="#FFEB61"/>
<path d="M23.3975 6.81319C23.3007 6.5238 23.2011 6.22427 23.1007 5.92475C23.0371 5.73213 23.0703 5.5819 23.2804 5.50725C23.5016 5.42891 23.6574 5.5008 23.7495 5.71277C23.9025 6.06668 24.0435 6.42611 24.2076 6.77448C24.4168 7.21963 24.6463 7.65464 24.861 8.09702C24.9154 8.20854 24.9568 8.32835 24.9909 8.44816C25.0462 8.64447 25.0619 8.83801 24.837 8.94492C24.6195 9.04906 24.3744 8.96151 24.238 8.74585C24.0785 8.49424 23.9348 8.22973 23.7486 7.99933C23.4491 7.62883 23.0509 7.40396 22.579 7.30258C22.3754 7.25926 22.251 7.30995 22.2288 7.51916C22.1809 7.96799 22.1247 8.41775 22.1136 8.86842C22.1081 9.09238 22.0851 9.25827 21.8371 9.28776C21.5994 9.31541 21.4298 9.20205 21.4077 8.96151C21.3404 8.23066 21.3929 7.51547 21.7735 6.86112C21.9265 6.59753 22.1551 6.47956 22.4556 6.55145C22.7717 6.62795 23.0841 6.7238 23.3975 6.81135V6.81319Z" fill="#FFEB61"/>
<path d="M26.6738 4.99022C26.5909 5.06671 26.5052 5.20219 26.3854 5.24643C26.1937 5.31647 26.0637 5.20035 25.9881 5.01141C25.8204 4.59115 25.6785 4.15522 25.4582 3.76353C25.2868 3.45939 25.0168 3.20963 24.7808 2.94328C24.6546 2.80043 24.5255 2.82347 24.3836 2.95526C23.9808 3.33129 23.7274 3.78381 23.6306 4.32572C23.5762 4.63355 23.4527 4.74967 23.2076 4.72294C22.9975 4.6999 22.8546 4.48609 22.9044 4.21421C23.0647 3.33774 23.4712 2.6115 24.2702 2.16727C24.4168 2.08525 24.673 2.0447 24.8057 2.1175C25.9098 2.71933 26.4167 3.72943 26.6729 4.99114L26.6738 4.99022Z" fill="#FFEB61"/>
<path d="M29.1171 20.3851C29.6212 20.5067 30.1309 20.6099 30.6276 20.7574C30.9806 20.8625 31.0599 21.0099 31.0202 21.3657C30.9096 22.3463 30.4442 23.1334 29.6922 23.7591C29.5235 23.9002 29.3373 23.9591 29.1355 23.8209C28.9244 23.6762 28.9152 23.4145 29.13 23.2375C29.6092 22.844 29.9806 22.3703 30.2285 21.8016C30.3944 21.4228 30.3686 21.3574 29.9567 21.2883C29.6452 21.2357 29.3263 21.2007 29.0111 21.209C28.6166 21.2191 28.424 21.1371 28.4111 20.8791C28.3991 20.6358 28.6129 20.4653 28.9585 20.4422C29.0065 20.4394 29.0553 20.4422 29.1032 20.4422L29.1171 20.3851Z" fill="#FFEB61"/>
<path d="M29.9447 13.7936C30.4295 13.906 30.917 14.0046 31.3963 14.1355C31.6654 14.2093 31.7667 14.4341 31.7409 14.7023C31.6617 15.5456 31.3557 16.2875 30.7401 16.8866C30.7124 16.9133 30.6838 16.9391 30.6534 16.9631C30.4064 17.1621 30.1742 17.1806 30.0387 17.0128C29.9005 16.8423 29.9419 16.6064 30.1714 16.4036C30.5908 16.0322 30.8331 15.5604 30.9907 15.0341C31.0488 14.8387 31.0082 14.7051 30.788 14.6894C30.3484 14.659 29.9078 14.6083 29.4691 14.6277C29.0636 14.6452 28.8756 14.5991 28.8433 14.3493C28.8092 14.0913 29.0056 13.918 29.3807 13.8793C29.5051 13.8664 29.6304 13.86 29.7558 13.8526C29.8138 13.8489 29.871 13.8526 29.929 13.8526C29.9336 13.8332 29.9382 13.8139 29.9438 13.7945L29.9447 13.7936Z" fill="#FFEB61"/>
<path d="M31.3548 9.54858C30.9059 9.33661 30.447 9.34214 29.9843 9.37163C29.8977 9.37716 29.812 9.4002 29.7263 9.40112C29.5272 9.40204 29.3576 9.34859 29.3244 9.11634C29.2931 8.89423 29.3871 8.7182 29.6028 8.67396C29.8452 8.62419 30.1041 8.59009 30.3465 8.62142C30.7834 8.67672 31.2165 8.77534 31.6469 8.87487C31.9068 8.93478 32.0174 9.11542 32.0045 9.39098C31.9621 10.2785 31.6165 11.0333 31.0285 11.684C30.8755 11.8536 30.6719 11.9596 30.4728 11.7697C30.2903 11.5955 30.3161 11.366 30.482 11.1983C30.9299 10.7439 31.188 10.1956 31.3557 9.54766L31.3548 9.54858Z" fill="#FFEB61"/>
<path d="M17.9552 12.3227C18.0354 11.8785 18.0935 11.4278 18.2022 10.9909C18.3027 10.59 18.5525 10.3909 18.9478 10.4702C19.4999 10.5808 20.0344 10.779 20.5745 10.9476C20.6427 10.9688 20.7026 11.0342 20.7542 11.0905C20.8814 11.2278 20.9542 11.3789 20.816 11.554C20.686 11.7181 20.5386 11.755 20.3321 11.6757C19.9211 11.5181 19.4999 11.3835 19.0806 11.2471C18.899 11.1882 18.8013 11.2776 18.7921 11.4582C18.77 11.8619 18.7534 12.2655 18.7396 12.6692C18.7368 12.7457 18.7589 12.8231 18.7607 12.8996C18.7654 13.107 18.7331 13.295 18.4723 13.319C18.2151 13.3429 18.0649 13.224 18.0382 12.9678C18.0161 12.7568 18.0078 12.5448 17.994 12.3328C17.9811 12.3291 17.9672 12.3264 17.9552 12.3227Z" fill="#FFEB61"/>
<path d="M27.2001 18.8819C26.8877 18.8939 26.6849 18.7566 26.6858 18.5473C26.6877 18.3031 26.8407 18.1971 27.0747 18.1722C27.7549 18.1013 28.3862 17.8755 28.9724 17.5299C29.188 17.4027 29.3779 17.3354 29.5447 17.5833C29.6728 17.7732 29.6028 18.0036 29.3447 18.1649C28.671 18.587 27.9208 18.7778 27.2001 18.8819Z" fill="#FFEB61"/>
<path d="M20.8496 20.3264C20.8119 20.2932 20.7252 20.2379 20.6653 20.1623C20.2663 19.6563 19.8727 19.1458 19.4764 18.637C19.3483 18.473 19.2073 18.3154 19.423 18.1145C19.6561 17.8979 19.811 17.8721 20.0082 18.1163C20.4487 18.6619 20.8782 19.2176 21.269 19.7992C21.4505 20.0701 21.2506 20.3273 20.8496 20.3264Z" fill="#FFEB61"/>
<path d="M10.8643 29.4502C10.9721 29.4944 11.102 29.5138 11.1859 29.5866C12.5388 30.7654 14.1231 31.5727 15.6899 32.4068C15.8908 32.5137 16.1166 32.5994 15.8899 32.9395C14.148 31.8731 12.2319 31.0824 10.773 29.6023C10.8034 29.5516 10.8338 29.5018 10.8633 29.4511L10.8643 29.4502Z" fill="#FFEB61"/>
<path d="M28.1927 9.2214C28.4397 9.53015 28.3899 9.73014 28.0028 9.90894C26.4582 10.6232 25.7559 11.9743 25.2278 13.5521C25.426 13.4885 25.5633 13.4268 25.7061 13.4019C26.2766 13.3051 26.8499 13.2268 27.4194 13.13C28.1964 12.9973 28.9456 12.778 29.5991 12.3162C29.7926 12.1789 29.9567 12.1789 30.1014 12.3623C30.2534 12.5549 30.2221 12.7494 30.0368 12.8978C29.8949 13.0111 29.7364 13.1088 29.5733 13.1899C28.6987 13.6268 27.7724 13.8802 26.7946 13.9328C26.1771 13.9659 25.5965 14.1318 25.0462 14.4046C24.9513 14.4516 24.8444 14.5447 24.8131 14.6387C24.5679 15.3806 24.3394 16.1281 24.108 16.8737C24.1007 16.8958 24.1154 16.9253 24.1237 16.9714C24.4158 16.6294 24.685 16.2912 24.979 15.976C25.7024 15.1972 26.5319 14.5549 27.4987 14.1042C27.8406 13.9447 28.107 14.1457 28.0471 14.5171C28.0305 14.6212 27.9355 14.7585 27.8425 14.7972C26.2057 15.4774 25.1467 16.7926 24.1246 18.151C23.9689 18.3584 23.8076 18.5621 23.6113 18.8165C24.1237 18.6469 24.5762 18.4957 25.0297 18.3474C25.1485 18.3086 25.2693 18.2727 25.3919 18.2515C25.6674 18.2045 25.8361 18.3059 25.8785 18.5317C25.9227 18.7667 25.7799 18.9372 25.5329 19.0211C24.8324 19.2579 24.1348 19.5068 23.4426 19.7667C23.3422 19.8044 23.2306 19.9224 23.2021 20.0247C22.8758 21.1961 22.5643 22.3712 22.25 23.5453C22.2463 23.5592 22.262 23.5776 22.2768 23.6163C22.3265 23.5592 22.3708 23.5131 22.4086 23.4624C23.1901 22.4348 24.1394 21.5942 25.2407 20.9242C25.2656 20.9095 25.2905 20.8938 25.3154 20.8791C25.6428 20.6929 25.9156 20.7503 26.1338 21.0514C26.4609 20.9076 26.7872 20.7491 27.1254 20.6201C27.3909 20.5187 27.542 20.6044 27.6489 20.8625C27.7402 21.0818 27.6766 21.2348 27.46 21.3316C26.9236 21.5694 26.3927 21.8191 25.849 22.0385C25.7623 22.0735 25.5845 22.0127 25.5163 21.9362C25.3393 21.7389 25.2131 21.7666 25.014 21.915C23.8675 22.7675 22.9394 23.82 22.1385 24.9932C22.0805 25.078 22.0334 25.1711 21.9422 25.325C22.0823 25.2614 22.156 25.2301 22.2288 25.1941C22.462 25.078 22.697 24.9646 22.9274 24.843C23.5173 24.5296 24.1136 24.4365 24.7873 24.5858C25.9365 24.8402 27.0757 24.7517 28.154 24.2292C28.3567 24.1306 28.4941 24.2412 28.5604 24.3803C28.6157 24.4964 28.624 24.7001 28.5549 24.7951C28.4618 24.9232 28.2867 25.0126 28.1282 25.0679C26.8609 25.5084 25.5725 25.5093 24.2702 25.2402C24.1311 25.2116 23.9596 25.2236 23.8297 25.2789C23.1468 25.5711 22.4712 25.8807 21.7966 26.1941C21.721 26.2291 21.6381 26.3176 21.6206 26.3941C21.3717 27.5148 21.133 28.6382 20.8925 29.7617C20.8897 29.7764 20.9035 29.7949 20.9035 29.7949C21.4325 29.1995 21.9321 28.5617 22.5109 28.0078C23.0924 27.4512 23.7541 26.9784 24.4066 26.4475C24.5476 26.6383 24.637 26.759 24.7421 26.9028C24.8969 26.8263 25.0527 26.7544 25.2048 26.6752C26.0812 26.2236 26.9946 25.9028 27.9927 25.8835C28.1346 25.8807 28.2839 25.9019 28.4185 25.9462C28.6885 26.0356 28.7346 26.1618 28.6277 26.4245C29.0848 26.5185 29.5502 26.5849 29.9981 26.7139C30.3373 26.8116 30.658 26.9802 30.9797 27.1323C31.258 27.2641 31.3668 27.5037 31.235 27.7811C31.0294 28.2134 30.8424 28.6751 30.5428 29.0364C29.9889 29.7046 29.3115 30.2327 28.424 30.4179C28.3687 30.4299 28.2922 30.5368 28.2941 30.5976C28.3024 30.8787 28.1448 30.9819 27.9024 31.0492C27.7549 31.0898 27.624 31.1911 27.4849 31.2658C27.4978 31.3017 27.5098 31.3377 27.5227 31.3736C27.8415 31.4188 28.1678 31.4363 28.4784 31.5146C28.859 31.6105 29.236 31.7377 29.5982 31.8888C29.9263 32.0261 29.9908 32.2022 29.8839 32.5423C29.5991 33.4408 28.9963 34.0878 28.2323 34.6039C28.1549 34.6565 28.0738 34.7044 27.9761 34.7661C28.2259 35.0491 28.0305 35.1947 27.8323 35.3293C26.9245 35.9467 25.9043 36.2518 24.8269 36.3817C24.0859 36.4711 23.344 36.4914 22.6076 36.3237C22.5136 36.3025 22.391 36.3292 22.3026 36.3753C21.5321 36.7753 20.7653 37.1817 20.0003 37.5937C19.9423 37.625 19.8768 37.7024 19.8732 37.7623C19.7967 38.8296 19.7285 39.8968 19.7239 40.9807C19.9367 40.7291 20.145 40.4729 20.3635 40.2268C21.0869 39.413 21.9118 38.7181 22.8168 38.1144C23.1366 37.9015 23.2196 37.9209 23.3993 38.2738C23.4205 38.3162 23.438 38.3605 23.4657 38.425C23.7818 38.3328 24.0905 38.2342 24.4039 38.1531C25.1716 37.9522 25.9485 37.9061 26.7282 38.0674C26.9245 38.108 27.1153 38.1844 27.3042 38.2573C27.5429 38.3494 27.6803 38.4996 27.5319 38.7854C27.6793 38.86 27.8157 38.9264 27.9494 38.9982C28.6 39.3457 29.0747 39.8655 29.436 40.5023C29.565 40.73 29.5438 40.9171 29.3696 41.1051C28.6148 41.9189 27.6812 42.4119 26.6066 42.6488C26.3218 42.7115 26.1218 42.5898 26.0904 42.3659C26.0508 42.0885 26.2305 41.9972 26.46 41.9428C27.3337 41.7373 28.0941 41.3217 28.7696 40.7069C28.2812 40.0397 27.7116 39.5208 26.8738 39.3743C26.4351 39.2978 26.3181 39.1015 26.4683 38.719C26.0084 38.5863 25.5393 38.6112 25.096 38.7365C24.5145 38.9006 23.9458 39.119 23.3846 39.3457C23.1864 39.4259 23.0592 39.471 22.9357 39.2545C22.8583 39.119 22.7413 39.0416 22.5781 39.1706C21.4888 40.036 20.5376 41.0304 19.7497 42.1788C19.7285 42.2092 19.7183 42.2461 19.6833 42.3262C19.7884 42.2931 19.8566 42.2765 19.9202 42.2497C20.0271 42.2055 20.134 42.1603 20.2372 42.1078C21.0584 41.6922 21.862 41.5465 22.7827 41.9097C23.4131 42.1576 24.1375 42.176 24.8232 42.27C25.2278 42.3253 25.4296 42.5686 25.2214 42.8497C25.1402 42.9585 24.9255 43.0248 24.778 43.0165C23.8279 42.9603 22.9062 42.7428 22.0076 42.4359C21.7413 42.3447 21.5081 42.3557 21.2584 42.4765C20.7717 42.7115 20.2796 42.9373 19.7865 43.1566C19.6335 43.2248 19.569 43.3124 19.5792 43.4856C19.652 44.681 19.7146 45.8763 19.7828 47.0717C19.7939 47.2643 19.8114 47.4569 19.8308 47.6496C19.8492 47.8311 19.7828 47.9583 19.5985 47.9896C19.3994 48.0237 19.2123 47.9832 19.1764 47.7482C19.1091 47.3095 19.0372 46.8689 19.0142 46.4266C18.9534 45.2791 18.922 44.1299 18.8649 42.9824C18.8584 42.8433 18.8022 42.6765 18.711 42.576C18.3202 42.1484 17.9147 41.7327 17.4963 41.3327C17.3884 41.2295 17.217 41.1595 17.0668 41.1392C16.5018 41.0645 15.9341 41.0175 15.3673 40.9576C15.301 40.9502 15.2328 40.9392 15.1692 40.918C14.9572 40.8489 14.8429 40.7069 14.8908 40.4793C14.936 40.2673 15.0816 40.1706 15.2973 40.2001C15.7083 40.2572 16.1212 40.3853 16.5286 40.3696C17.4898 40.3318 18.1165 40.859 18.6898 41.518C18.7396 41.5751 18.7902 41.6304 18.9027 41.6756C18.8833 41.4157 18.9211 41.1346 18.8345 40.8996C18.4096 39.7438 17.8041 38.6812 17.0981 37.6287C16.8336 38.0112 16.6281 37.7974 16.4161 37.5955C15.7903 36.9974 15.0392 36.6066 14.2439 36.2924C14.2107 36.2794 14.172 36.2794 14.1369 36.273C14.0457 36.7578 13.9849 36.8094 13.501 36.7375C12.8513 36.6407 12.2098 36.6767 11.5739 36.8278C11.1767 36.9218 11.1389 36.9882 11.3131 37.3633C11.6992 38.1909 12.2651 38.86 13.0798 39.2978C13.3093 39.4213 13.5471 39.5291 13.7803 39.6452C14.0162 39.7623 14.077 39.9272 13.9729 40.1669C13.8807 40.3798 13.7167 40.4166 13.5195 40.3337C12.0255 39.7061 10.9352 38.6969 10.4882 37.0932C10.3629 36.6426 10.4643 36.4656 10.9057 36.2896C11.5721 36.0242 12.2679 35.9421 12.9812 35.9753C13.0577 35.979 13.1342 35.9753 13.1821 35.9753C13.2291 35.8251 13.2328 35.6389 13.3241 35.5698C13.4273 35.4915 13.6153 35.4832 13.7582 35.5034C14.6918 35.6417 15.5378 36.003 16.3046 36.5513C16.4687 36.6684 16.6134 36.8214 16.7562 36.5154C16.7765 36.473 17.0216 36.473 17.0981 36.5338C17.2769 36.6748 17.4474 36.8472 17.5682 37.0398C17.9976 37.7264 18.4059 38.4268 18.8207 39.1236C18.8833 39.2286 18.9359 39.3402 19.0437 39.4388C19.0677 39.0895 19.0907 38.7402 19.1165 38.3918C19.1405 38.0646 19.1801 37.7375 19.1865 37.4094C19.1893 37.2785 19.1644 37.1098 19.0833 37.0195C18.6133 36.4951 18.123 35.9882 17.6391 35.4767C17.4843 35.3127 17.2981 35.2555 17.0677 35.2601C16.0502 35.2804 15.0438 35.1855 14.0494 34.9486C13.1278 34.7293 12.313 34.3136 11.5951 33.7007C11.3979 33.5321 11.197 33.368 11.3481 33.1118C10.9214 32.7634 10.4919 32.4621 10.1223 32.1008C9.36753 31.3626 8.84866 30.4796 8.64498 29.4299C8.54268 28.9009 8.63576 28.7286 9.15095 28.5654C10.5306 28.1295 11.8937 28.2226 13.2439 28.7037C13.3526 28.7424 13.4596 28.7866 13.5674 28.8272C13.819 28.3396 13.9812 28.2871 14.442 28.5995C15.2162 29.1249 15.8816 29.7663 16.4143 30.5396C16.4585 30.6031 16.4982 30.6686 16.5433 30.7313C16.5535 30.7451 16.5747 30.7515 16.5912 30.7607C16.9184 30.4981 17.0198 30.5064 17.3249 30.852C18.2041 31.851 18.7967 33.0215 19.3303 34.2261C19.3709 34.3173 19.4096 34.4095 19.5174 34.4897C19.5976 33.9413 19.6787 33.3929 19.757 32.8445C19.7874 32.6344 19.7847 32.4151 19.8437 32.2142C19.9635 31.804 19.8612 31.4639 19.6004 31.1451C19.2391 30.7055 18.9036 30.2419 18.5211 29.8216C18.3396 29.6216 18.0907 29.4585 17.8428 29.346C16.5728 28.771 15.3858 28.0825 14.4531 27.0189C14.3581 26.9102 14.2687 26.7959 14.1913 26.6743C14.0789 26.4991 14.1471 26.3544 14.3075 26.2577C14.4687 26.16 14.6503 26.0826 14.7978 26.278C15.5535 27.2752 16.5452 27.9765 17.6778 28.4576C18.5451 28.8263 19.2372 29.3645 19.7552 30.1414C19.7921 30.1967 19.8409 30.2456 19.887 30.2944C19.8971 30.3045 19.9211 30.3018 19.9865 30.3147C19.687 28.6475 19.3156 27.0226 18.6317 25.4605C18.3101 25.6144 18.1986 25.4301 18.0935 25.196C17.6834 24.2863 17.0613 23.5297 16.3765 22.7924C16.3258 22.8661 16.2936 22.9122 16.2631 22.9601C16.1157 23.1923 15.936 23.2329 15.7028 23.0762C15.0752 22.6541 14.3757 22.4191 13.6356 22.2836C13.4043 22.2412 13.3259 22.3103 13.3112 22.5417C13.254 23.4209 13.454 24.2283 13.9416 24.9637C14.125 25.2402 14.1231 25.419 13.9397 25.5434C13.736 25.6807 13.4688 25.5978 13.3038 25.3407C12.6135 24.267 12.4651 23.0965 12.6974 21.8634C12.7444 21.6118 12.9481 21.4763 13.2844 21.5242C13.7701 21.5933 14.254 21.6882 14.7296 21.8099C15.0632 21.8956 15.3802 22.044 15.7231 22.1712C15.747 22.1343 15.7793 22.0901 15.8079 22.0422C15.9701 21.7666 16.159 21.7131 16.4244 21.9242C16.7184 22.1583 17.0078 22.4071 17.2502 22.6928C17.6373 23.1481 17.9783 23.6421 18.3506 24.1094C18.4133 24.1877 18.5405 24.2126 18.6326 24.2706C18.7285 24.3306 18.8492 24.3822 18.9036 24.4716C19.4483 25.3609 19.7957 26.3314 20.0464 27.3387C20.1672 27.8235 20.2805 28.3101 20.4455 28.7949C20.5644 28.1461 20.6833 27.4982 20.8022 26.8494C20.8077 26.8208 20.804 26.7895 20.8151 26.7637C21.0833 26.1213 20.863 25.595 20.534 25.0181C20.0658 24.1969 19.5423 23.5352 18.6428 23.1039C17.4788 22.5454 16.6714 21.5334 15.9857 20.4533C15.7139 20.0238 15.6991 19.9676 16.0954 19.6865C15.9148 19.1353 15.6807 18.61 15.5793 18.0607C15.4862 17.5557 15.5203 17.0239 15.5314 16.5041C15.5378 16.2424 15.7037 16.0534 15.9784 16.0073C16.7157 15.8829 17.4216 15.9898 18.0907 16.3198C18.2806 16.4138 18.3515 16.5723 18.2585 16.7797C18.1617 16.9972 18.017 17.0746 17.7709 16.9972C17.3599 16.8681 16.9424 16.7585 16.523 16.6608C16.2807 16.6046 16.1654 16.7299 16.1728 16.9797C16.1986 17.8856 16.3986 18.7437 16.9193 19.4985C17.2954 20.0431 17.3073 20.0349 16.782 20.421C17.5027 21.3989 18.3396 22.2587 19.4649 22.7435C20.1303 23.0301 20.5487 23.479 20.8261 24.1121C20.8906 24.2596 20.9736 24.3988 21.0851 24.6135C21.1109 24.4771 21.1321 24.42 21.1312 24.3628C21.0998 22.973 21.1284 21.5786 20.8178 20.21C20.769 19.9961 20.8565 19.868 21.0455 19.8081C21.2796 19.7335 21.4436 19.8671 21.4869 20.0699C21.5865 20.5399 21.662 21.0173 21.7173 21.4947C21.7496 21.7767 21.7229 22.0643 21.7229 22.35C21.757 22.3527 21.7911 22.3555 21.8252 22.3583C21.9063 22.0311 21.9855 21.7039 22.0694 21.3786C22.1726 20.9768 22.2583 20.5685 22.3929 20.1768C22.4657 19.9657 22.4279 19.8201 22.3182 19.6459C21.7855 18.799 21.1948 18.0165 20.3699 17.4128C19.487 16.7668 18.8658 15.8949 18.4548 14.8774C18.4078 14.7613 18.3626 14.6433 18.3294 14.5226C18.2824 14.3503 18.2456 14.1742 18.4686 14.0821C18.6916 13.9899 18.911 14.0553 18.9958 14.2904C19.4474 15.5511 20.3349 16.4516 21.3468 17.2773C21.7736 17.6257 22.0924 18.105 22.4574 18.5271C22.5256 18.6063 22.58 18.6966 22.7118 18.7759C22.7274 18.4091 22.7615 18.0423 22.7551 17.6764C22.7311 16.3133 22.5007 14.9834 22.0141 13.7097C21.8537 13.2904 21.6113 12.9005 21.3846 12.5107C21.2372 12.2572 21.2353 12.0849 21.4408 11.9347C21.6353 11.7918 21.8731 11.8195 22.0003 12.0784C22.3376 12.7706 22.6943 13.4618 22.9302 14.1908C23.1689 14.9281 23.2703 15.7087 23.4306 16.4635C23.4454 16.4258 23.4767 16.3557 23.5007 16.282C23.6712 15.7493 23.8269 15.2101 24.0159 14.6839C24.0914 14.4738 24.0656 14.3438 23.9209 14.1715C23.0767 13.1595 22.3145 12.0923 21.8427 10.8462C21.6537 10.3467 21.6971 10.1255 21.9901 10.0352C22.2399 9.95778 22.3938 10.1246 22.5468 10.6011C22.9118 11.7365 23.6251 12.6526 24.3781 13.5429C24.4094 13.5429 24.4407 13.5429 24.4711 13.5429C24.6011 12.9558 24.7744 12.3734 24.8481 11.7789C24.9264 11.1504 24.9135 10.5098 24.9338 9.87484C24.9412 9.63982 25.0509 9.47577 25.2702 9.42969C25.4951 9.38177 25.5624 9.56978 25.6149 9.7412C25.6481 9.85087 25.6665 9.96516 25.7117 10.1698C25.7605 9.92184 25.7799 9.75226 25.8278 9.59005C26.1485 8.49608 26.3181 7.38552 26.2232 6.24363C26.2001 5.96806 26.401 5.90816 26.5955 5.84272C26.801 5.7736 26.9006 5.87866 26.9485 6.06575C26.9568 6.09893 26.9909 6.12658 27.0314 6.18188C27.3125 5.51646 27.6784 4.93492 28.1623 4.43079C29.1604 3.39211 30.3631 2.89259 31.8128 3.03821C32.3013 3.08706 32.3713 3.14604 32.3879 3.63635C32.4478 5.44366 31.8165 6.92379 30.2968 7.96615C30.1392 8.0749 29.9253 8.13573 29.7336 8.14771C29.6276 8.15416 29.4442 8.03066 29.4194 7.93389C29.3899 7.81961 29.4885 7.66846 29.541 7.53759C29.5521 7.50902 29.6028 7.49428 29.6369 7.47677C31.0387 6.74684 31.5714 5.50264 31.6949 4.01237C31.7161 3.75339 31.6267 3.67782 31.3677 3.6898C29.859 3.76445 28.801 4.55705 28.0277 5.78742C27.4886 6.64546 27.1641 7.59658 26.8987 8.56889C26.8231 8.84722 26.7448 9.12463 26.6434 9.48683C26.7706 9.37347 26.837 9.30251 26.9144 9.24721C27.2489 9.0039 27.5724 8.74216 27.9272 8.53203C28.2471 8.34217 28.4747 8.40208 28.5724 8.62972C28.6701 8.85736 28.5521 9.05182 28.2314 9.19376C28.2166 9.20021 28.2056 9.21587 28.1927 9.22786V9.2214ZM19.1183 35.8887C18.6833 34.3486 17.958 32.9487 17.0189 31.6335C16.9507 31.6962 16.9267 31.7128 16.9092 31.734C16.6023 32.1128 16.4097 32.0602 16.1728 31.6344C15.8982 31.1405 15.5784 30.6667 15.2291 30.2225C14.9848 29.9128 14.6586 29.6686 14.3526 29.3792C14.2008 29.7172 13.9717 29.8096 13.6651 29.6566C12.6494 29.1433 11.5721 28.9249 10.4403 29.0226C10.0634 29.0557 9.69194 29.1608 9.33896 29.229C9.32882 29.3147 9.32329 29.3341 9.32514 29.3525C9.32882 29.3811 9.3362 29.4096 9.34449 29.4364C9.80991 30.9875 10.8366 32.0446 12.2716 32.7284C12.7527 32.9579 12.7997 33.1395 12.3407 33.5422C12.9554 33.7818 13.5231 34.039 14.113 34.227C15.053 34.5256 16.0318 34.5523 17.0097 34.5274C17.3977 34.5173 17.7322 34.6141 18.0179 34.8777C18.3838 35.215 18.7506 35.5514 19.1165 35.8878L19.1183 35.8887ZM20.851 31.2391C20.9284 31.2105 20.9883 31.193 21.0455 31.1663C21.5192 30.9497 21.9966 30.7432 22.462 30.5119C22.7754 30.3562 23.074 30.3571 23.4085 30.4455C24.8241 30.8216 26.2333 30.8372 27.613 30.2833C27.8351 30.1939 28.0378 30.0714 28.2812 30.3525C28.1656 30.0268 28.2443 29.7964 28.5171 29.6612C28.6295 29.6059 28.742 29.5497 28.8507 29.488C29.5862 29.0659 30.1834 28.512 30.5401 27.712C30.4783 27.665 30.4304 27.6152 30.3723 27.5876C29.6885 27.2632 28.9751 27.0973 28.212 27.1655C28.048 27.1802 27.8369 27.1968 27.7245 27.1111C27.6084 27.0226 27.5862 26.8107 27.5144 26.6309C27.4526 26.642 27.3577 26.654 27.2646 26.6752C26.4185 26.8687 25.6379 27.2125 24.9181 27.6991C24.4748 27.9986 24.4711 27.9922 24.1007 27.6687C23.2979 28.0668 21.2215 30.3377 20.8501 31.2381L20.851 31.2391ZM22.8565 32.8436C21.7422 33.9966 20.7966 35.25 20.075 36.661C20.7874 36.3135 21.4666 35.9716 22.156 35.6546C22.2915 35.5919 22.4749 35.5873 22.627 35.6131C24.1145 35.8702 25.5393 35.6638 26.919 35.0703C26.7771 34.7413 26.8112 34.626 27.131 34.4537C27.8037 34.0897 28.3761 33.6086 28.8424 33.0031C28.9613 32.8482 29.0562 32.674 29.1807 32.4796C28.4498 32.2188 27.7595 32.0556 27.0351 32.0925C26.4416 32.1229 26.425 32.1183 26.2674 31.5792C26.249 31.5745 26.2287 31.5644 26.2121 31.5672C26.1559 31.5782 26.0997 31.593 26.0444 31.6096C25.1854 31.8722 24.4066 32.287 23.6942 32.8326C23.2832 33.1468 23.2795 33.1413 22.8565 32.8436ZM20.1736 35.0279C20.2529 34.9173 20.2989 34.8574 20.3404 34.7947C21.0713 33.6952 21.9182 32.6971 22.9256 31.839C23.1532 31.6455 23.262 31.651 23.4491 31.8778C23.4896 31.9275 23.5237 31.9828 23.5597 32.0344C23.9163 31.8105 24.2583 31.5976 24.5919 31.3884C24.1237 31.2916 23.673 31.1902 23.2187 31.111C23.0942 31.0898 22.944 31.1054 22.8297 31.1561C22.1422 31.4621 21.4593 31.7782 20.7828 32.1072C20.6906 32.1524 20.6003 32.2833 20.5828 32.3874C20.44 33.2427 20.3146 34.1016 20.1736 35.0279Z" stroke="#FFEB61" stroke-width="0.3" mask="url(#path-1-outside-1_266_1355)"/>
<path d="M23.3975 6.81319C23.3007 6.5238 23.2011 6.22427 23.1007 5.92475C23.0371 5.73213 23.0703 5.5819 23.2804 5.50725C23.5016 5.42891 23.6574 5.5008 23.7495 5.71277C23.9025 6.06668 24.0435 6.42611 24.2076 6.77448C24.4168 7.21963 24.6463 7.65464 24.861 8.09702C24.9154 8.20854 24.9568 8.32835 24.9909 8.44816C25.0462 8.64447 25.0619 8.83801 24.837 8.94492C24.6195 9.04906 24.3744 8.96151 24.238 8.74585C24.0785 8.49424 23.9348 8.22973 23.7486 7.99933C23.4491 7.62883 23.0509 7.40396 22.579 7.30258C22.3754 7.25926 22.251 7.30995 22.2288 7.51916C22.1809 7.96799 22.1247 8.41775 22.1136 8.86842C22.1081 9.09238 22.0851 9.25827 21.8371 9.28776C21.5994 9.31541 21.4298 9.20205 21.4077 8.96151C21.3404 8.23066 21.3929 7.51547 21.7735 6.86112C21.9265 6.59753 22.1551 6.47956 22.4556 6.55145C22.7717 6.62795 23.0841 6.7238 23.3975 6.81135V6.81319Z" stroke="#FFEB61" stroke-width="0.3" mask="url(#path-1-outside-1_266_1355)"/>
<path d="M26.6738 4.99022C26.5909 5.06671 26.5052 5.20219 26.3854 5.24643C26.1937 5.31647 26.0637 5.20035 25.9881 5.01141C25.8204 4.59115 25.6785 4.15522 25.4582 3.76353C25.2868 3.45939 25.0168 3.20963 24.7808 2.94328C24.6546 2.80043 24.5255 2.82347 24.3836 2.95526C23.9808 3.33129 23.7274 3.78381 23.6306 4.32572C23.5762 4.63355 23.4527 4.74967 23.2076 4.72294C22.9975 4.6999 22.8546 4.48609 22.9044 4.21421C23.0647 3.33774 23.4712 2.6115 24.2702 2.16727C24.4168 2.08525 24.673 2.0447 24.8057 2.1175C25.9098 2.71933 26.4167 3.72943 26.6729 4.99114L26.6738 4.99022Z" stroke="#FFEB61" stroke-width="0.3" mask="url(#path-1-outside-1_266_1355)"/>
<path d="M29.1171 20.3851C29.6212 20.5067 30.1309 20.6099 30.6276 20.7574C30.9806 20.8625 31.0599 21.0099 31.0202 21.3657C30.9096 22.3463 30.4442 23.1334 29.6922 23.7591C29.5235 23.9002 29.3373 23.9591 29.1355 23.8209C28.9244 23.6762 28.9152 23.4145 29.13 23.2375C29.6092 22.844 29.9806 22.3703 30.2285 21.8016C30.3944 21.4228 30.3686 21.3574 29.9567 21.2883C29.6452 21.2357 29.3263 21.2007 29.0111 21.209C28.6166 21.2191 28.424 21.1371 28.4111 20.8791C28.3991 20.6358 28.6129 20.4653 28.9585 20.4422C29.0065 20.4394 29.0553 20.4422 29.1032 20.4422L29.1171 20.3851Z" stroke="#FFEB61" stroke-width="0.3" mask="url(#path-1-outside-1_266_1355)"/>
<path d="M29.9447 13.7936C30.4295 13.906 30.917 14.0046 31.3963 14.1355C31.6654 14.2093 31.7667 14.4341 31.7409 14.7023C31.6617 15.5456 31.3557 16.2875 30.7401 16.8866C30.7124 16.9133 30.6838 16.9391 30.6534 16.9631C30.4064 17.1621 30.1742 17.1806 30.0387 17.0128C29.9005 16.8423 29.9419 16.6064 30.1714 16.4036C30.5908 16.0322 30.8331 15.5604 30.9907 15.0341C31.0488 14.8387 31.0082 14.7051 30.788 14.6894C30.3484 14.659 29.9078 14.6083 29.4691 14.6277C29.0636 14.6452 28.8756 14.5991 28.8433 14.3493C28.8092 14.0913 29.0056 13.918 29.3807 13.8793C29.5051 13.8664 29.6304 13.86 29.7558 13.8526C29.8138 13.8489 29.871 13.8526 29.929 13.8526C29.9336 13.8332 29.9382 13.8139 29.9438 13.7945L29.9447 13.7936Z" stroke="#FFEB61" stroke-width="0.3" mask="url(#path-1-outside-1_266_1355)"/>
<path d="M31.3548 9.54858C30.9059 9.33661 30.447 9.34214 29.9843 9.37163C29.8977 9.37716 29.812 9.4002 29.7263 9.40112C29.5272 9.40204 29.3576 9.34859 29.3244 9.11634C29.2931 8.89423 29.3871 8.7182 29.6028 8.67396C29.8452 8.62419 30.1041 8.59009 30.3465 8.62142C30.7834 8.67672 31.2165 8.77534 31.6469 8.87487C31.9068 8.93478 32.0174 9.11542 32.0045 9.39098C31.9621 10.2785 31.6165 11.0333 31.0285 11.684C30.8755 11.8536 30.6719 11.9596 30.4728 11.7697C30.2903 11.5955 30.3161 11.366 30.482 11.1983C30.9299 10.7439 31.188 10.1956 31.3557 9.54766L31.3548 9.54858Z" stroke="#FFEB61" stroke-width="0.3" mask="url(#path-1-outside-1_266_1355)"/>
<path d="M17.9552 12.3227C18.0354 11.8785 18.0935 11.4278 18.2022 10.9909C18.3027 10.59 18.5525 10.3909 18.9478 10.4702C19.4999 10.5808 20.0344 10.779 20.5745 10.9476C20.6427 10.9688 20.7026 11.0342 20.7542 11.0905C20.8814 11.2278 20.9542 11.3789 20.816 11.554C20.686 11.7181 20.5386 11.755 20.3321 11.6757C19.9211 11.5181 19.4999 11.3835 19.0806 11.2471C18.899 11.1882 18.8013 11.2776 18.7921 11.4582C18.77 11.8619 18.7534 12.2655 18.7396 12.6692C18.7368 12.7457 18.7589 12.8231 18.7607 12.8996C18.7654 13.107 18.7331 13.295 18.4723 13.319C18.2151 13.3429 18.0649 13.224 18.0382 12.9678C18.0161 12.7568 18.0078 12.5448 17.994 12.3328C17.9811 12.3291 17.9672 12.3264 17.9552 12.3227Z" stroke="#FFEB61" stroke-width="0.3" mask="url(#path-1-outside-1_266_1355)"/>
<path d="M27.2001 18.8819C26.8877 18.8939 26.6849 18.7566 26.6858 18.5473C26.6877 18.3031 26.8407 18.1971 27.0747 18.1722C27.7549 18.1013 28.3862 17.8755 28.9724 17.5299C29.188 17.4027 29.3779 17.3354 29.5447 17.5833C29.6728 17.7732 29.6028 18.0036 29.3447 18.1649C28.671 18.587 27.9208 18.7778 27.2001 18.8819Z" stroke="#FFEB61" stroke-width="0.3" mask="url(#path-1-outside-1_266_1355)"/>
<path d="M20.8496 20.3264C20.8119 20.2932 20.7252 20.2379 20.6653 20.1623C20.2663 19.6563 19.8727 19.1458 19.4764 18.637C19.3483 18.473 19.2073 18.3154 19.423 18.1145C19.6561 17.8979 19.811 17.8721 20.0082 18.1163C20.4487 18.6619 20.8782 19.2176 21.269 19.7992C21.4505 20.0701 21.2506 20.3273 20.8496 20.3264Z" stroke="#FFEB61" stroke-width="0.3" mask="url(#path-1-outside-1_266_1355)"/>
<path d="M10.8643 29.4502C10.9721 29.4944 11.102 29.5138 11.1859 29.5866C12.5388 30.7654 14.1231 31.5727 15.6899 32.4068C15.8908 32.5137 16.1166 32.5994 15.8899 32.9395C14.148 31.8731 12.2319 31.0824 10.773 29.6023C10.8034 29.5516 10.8338 29.5018 10.8633 29.4511L10.8643 29.4502Z" stroke="#FFEB61" stroke-width="0.3" mask="url(#path-1-outside-1_266_1355)"/>
</svg>
