<svg width="46" height="42" viewBox="0 0 46 42" fill="none" xmlns="http://www.w3.org/2000/svg">
<g clip-path="url(#clip0_266_1351)">
<mask id="path-1-outside-1_266_1351" maskUnits="userSpaceOnUse" x="6.99719" y="-0.99707" width="34" height="44" fill="black">
<rect fill="white" x="6.99719" y="-0.99707" width="34" height="44"/>
<path d="M24.3569 19.0008C24.5497 22.5206 24.739 25.9871 24.9283 29.4306C25.2512 28.9245 25.5519 28.3663 25.9317 27.8735C26.5785 27.0369 27.2684 26.2365 27.9547 25.435C28.0906 25.2752 28.1556 25.1468 28.1602 24.918C28.1672 24.5499 28.2288 24.1673 28.3461 23.821C29.4644 20.5313 32.8938 18.4778 36.1826 19.105C37.3091 19.3193 38.3949 19.6631 39.4343 20.1656C40.0625 20.4695 40.1253 20.5955 39.8268 21.2614C38.6469 23.8997 36.7098 25.59 33.9668 26.1942C32.4153 26.5356 30.8382 26.5574 29.3111 26.0658C28.7932 25.8999 28.4947 25.9738 28.1811 26.3927C27.4251 27.4001 26.6459 28.3881 25.8771 29.3858C25.8562 29.4137 25.8469 29.4524 25.8063 29.5444C26.1221 29.3773 26.3799 29.2236 26.6505 29.0989C27.3926 28.7562 28.0836 28.3784 28.6933 27.7682C29.4899 26.9715 30.5549 26.7184 31.6535 26.6422C34.0818 26.4739 35.9585 27.5345 37.4473 29.4464C37.8816 30.0045 38.259 30.6123 38.633 31.2177C38.835 31.5459 38.7387 31.8147 38.3821 31.9394C36.2279 32.6889 34.0411 33.1017 31.7777 32.5508C30.4585 32.23 29.2426 31.6791 28.245 30.6959C27.9431 30.398 27.6806 30.0554 27.3822 29.7115C26.6854 30.0348 26.0257 30.4525 25.3905 30.9272C24.912 31.2843 24.7146 31.7081 24.6624 32.3305C24.4138 35.2812 23.7322 38.1326 22.7056 40.8944C22.6533 41.0361 22.6115 41.2007 22.5128 41.2976C22.4129 41.3957 22.2259 41.4962 22.1191 41.4598C21.9937 41.4175 21.8682 41.2431 21.8276 41.099C21.7916 40.9707 21.8508 40.8 21.9008 40.6607C22.4988 38.9947 22.9901 37.2947 23.3698 35.5609C23.4186 35.3381 23.3896 35.1855 23.2223 35.0257C22.6428 34.4724 22.0169 33.9953 21.2829 33.6902C21.1157 33.62 20.9369 33.58 20.772 33.5279C20.6779 34.0462 20.6152 34.5293 20.5002 34.9966C20.0682 36.7523 18.9986 38.0478 17.6724 39.1412C15.6575 40.8036 13.3663 41.7214 10.7974 41.886C10.3991 41.9115 10.0031 41.9647 9.60477 41.995C9.0845 42.0338 8.92076 41.8667 8.97069 41.3267C9.0996 39.9173 9.34115 38.5334 9.80916 37.1966C10.3805 35.5657 11.2085 34.114 12.4872 32.9758C13.8087 31.7989 15.3254 31.116 17.0801 31.1657C18.4261 31.2032 19.6664 31.6185 20.7116 32.5545C20.7905 32.6247 20.8904 32.6876 20.9891 32.7107C21.9472 32.9286 22.7659 33.4165 23.4918 34.0897C23.5127 34.1091 23.5405 34.1212 23.5882 34.1515C23.6114 34.0825 23.6439 34.0244 23.652 33.9626C23.9075 32.1101 24.0585 30.2491 24.0039 28.376C24.0004 28.2731 23.9714 28.1448 23.9064 28.0757C23.1213 27.2451 22.327 26.4242 21.5199 25.5863C21.3259 25.7522 21.1912 25.8794 21.0449 25.992C19.9184 26.8565 18.6259 27.1616 17.2555 27.2209C14.2802 27.3493 11.896 26.0598 9.88349 23.8864C9.19134 23.1381 8.58746 22.3148 8.16823 21.3619C8.09971 21.2069 8.04513 21.041 8.01145 20.8739C7.96267 20.6342 8.03816 20.4429 8.25184 20.3061C10.2238 19.0456 12.3443 18.232 14.6565 18.0031C14.9933 17.9705 15.3347 17.9983 15.668 17.9983C15.56 17.7852 15.4462 17.5358 15.3068 17.3033C15.2697 17.2416 15.1605 17.2149 15.0792 17.1943C14.1618 16.9594 13.3999 16.4473 12.7415 15.7608C11.9669 14.9532 11.8879 13.9724 12.1562 12.9311C12.3838 12.0473 12.8797 11.3159 13.4499 10.6415C13.5974 10.466 13.6009 10.3558 13.4673 10.1778C13.0887 9.67652 12.8077 9.11713 12.7043 8.48389C12.479 7.10479 13.0608 6.10589 14.1107 5.3443C14.6867 4.92658 15.3359 4.682 16.0094 4.5028C16.2022 4.45074 16.2823 4.36114 16.3195 4.14077C16.3857 3.74363 16.4844 3.34407 16.6272 2.97115C16.9721 2.07032 17.6538 1.60779 18.5643 1.63564C19.1345 1.6538 19.4806 1.51819 19.7941 0.97697C20.3051 0.0955125 21.1494 -0.155122 22.0877 0.0943018C22.601 0.231121 23.0923 0.469648 23.5812 0.692434C23.7682 0.777189 23.8971 0.79414 24.0875 0.68759C24.4382 0.492653 24.8064 0.318299 25.1861 0.19843C26.4334 -0.196289 27.3845 0.15242 28.144 1.26998C28.2845 1.47703 28.4239 1.56178 28.6701 1.53757C28.929 1.51214 29.1961 1.53272 29.4563 1.56299C30.1426 1.6417 30.6571 2.01825 30.9218 2.67087C31.1239 3.16972 31.2424 3.70852 31.3539 4.24006C31.4038 4.4798 31.4398 4.62267 31.7081 4.68442C32.3572 4.83456 32.9692 5.09367 33.5174 5.50292C34.9179 6.54783 35.2222 8.1594 34.292 9.67168C34.1979 9.82545 34.098 9.97801 33.9831 10.1148C33.8402 10.2868 33.8635 10.4187 33.9982 10.5907C34.3361 11.0229 34.681 11.4528 34.9713 11.9189C35.4219 12.6405 35.5729 13.453 35.5067 14.309C35.4533 15.0016 35.1072 15.5368 34.623 15.9714C33.9134 16.6083 33.14 17.1241 32.1668 17.2064C32.0866 17.2137 31.9972 17.3251 31.9438 17.4099C31.3794 18.2998 30.6942 19.0674 29.8743 19.7079C28.7514 20.5858 27.5575 20.7734 26.2824 20.1317C25.7226 19.8496 25.1896 19.5118 24.6449 19.197C24.5555 19.1449 24.4731 19.082 24.3546 19.0021L24.3569 19.0008ZM32.4385 16.3407C33.1899 16.0344 33.8124 15.6021 34.3396 15.0185C34.6857 14.6359 34.8018 14.1782 34.7182 13.6673C34.5312 12.5316 33.9598 11.6198 33.104 10.9309C32.6476 10.564 32.73 10.3243 33.0052 9.95742C33.2271 9.66199 33.464 9.37382 33.6498 9.05538C34.2084 8.09765 34.0771 7.21619 33.2956 6.44854C32.7138 5.87705 31.9972 5.60704 31.2331 5.44238C30.6931 5.32614 30.6803 5.29103 30.606 4.7159C30.5502 4.28607 30.4887 3.85018 30.3609 3.43972C30.088 2.55827 29.2647 2.15265 28.4181 2.54495C28.2125 2.6406 28.0848 2.59217 27.9524 2.40328C27.712 2.05942 27.4635 1.71676 27.1824 1.41043C26.7516 0.943068 26.2127 0.743287 25.6112 0.974549C25.0944 1.17312 24.5985 1.43344 24.1038 1.69013C23.9424 1.77367 23.8343 1.79789 23.6578 1.70708C23.1178 1.43223 22.5615 1.18765 22.0053 0.947911C21.4757 0.720282 21.0182 0.909166 20.6523 1.30994C20.3864 1.60053 20.1692 1.94439 19.9556 2.28099C19.6722 2.72536 19.6397 2.74957 19.1694 2.57643C18.3762 2.28584 17.7235 2.54979 17.3949 3.35134C17.2242 3.76664 17.1173 4.21463 17.0221 4.65657C16.9257 5.11183 16.8746 5.19901 16.4461 5.2995C16.3508 5.3213 16.2556 5.34067 16.1615 5.3661C15.4032 5.56346 14.7076 5.894 14.142 6.47034C13.379 7.24646 13.2536 8.17271 13.7948 9.12682C13.9771 9.44768 14.2117 9.73706 14.4393 10.0264C14.6971 10.3558 14.6948 10.6924 14.401 10.9321C13.609 11.5799 13.1514 12.448 12.9029 13.4421C12.7473 14.0656 12.8518 14.6589 13.3349 15.0863C13.7913 15.4907 14.3011 15.831 14.79 16.1954C14.8469 16.2378 14.9247 16.2487 15.0072 16.2802C15.0606 15.9375 15.0827 15.6203 15.1605 15.32C15.3417 14.6275 15.4775 13.907 15.7667 13.2641C16.2045 12.2906 17.1533 11.9383 18.1288 12.264C18.2089 12.2906 18.2902 12.31 18.4284 12.35C18.2124 11.9238 18.0127 11.5557 17.8362 11.1767C17.5249 10.5059 17.2091 9.8085 17.3205 9.05175C17.4007 8.50326 17.3519 8.02984 17.2253 7.4862C16.957 6.32626 17.4436 5.33704 18.2415 4.5367C18.3936 4.38414 18.7106 4.34298 18.9441 4.35872C19.275 4.38051 19.6002 4.50159 19.9509 4.58635C19.9904 4.50643 20.0369 4.40836 20.0868 4.31028C20.6733 3.16366 22.1388 2.37786 23.2537 2.68177C23.6741 2.79679 24.0294 2.79921 24.4498 2.67935C25.5833 2.35727 27.1197 3.23389 27.626 4.42289C27.6597 4.50159 27.698 4.57787 27.7155 4.61783C28.0697 4.53065 28.3867 4.41926 28.7107 4.38293C29.1346 4.3345 29.4098 4.56576 29.5225 4.99801C29.5585 5.13483 29.5678 5.27892 29.5991 5.41695C29.692 5.83104 29.7826 6.24634 29.8906 6.65559C29.9092 6.7234 30.016 6.81178 30.0834 6.81299C30.7906 6.81784 31.1901 7.11811 31.3631 7.83369C31.5037 8.41245 31.4259 8.98274 31.2284 9.53728C30.9207 10.4054 30.4306 11.161 29.8964 11.8886C29.8337 11.9734 29.7756 12.0618 29.6909 12.1841C29.778 12.1841 29.8163 12.1901 29.8523 12.1841C30.7523 11.9903 31.5118 12.6551 31.7789 13.3295C31.938 13.7303 32.0727 14.1492 32.161 14.5718C32.2783 15.1348 32.3386 15.7099 32.4327 16.3431L32.4385 16.3407ZM19.649 13.855C19.0869 13.591 18.5132 13.2641 17.9035 13.051C17.1661 12.7931 16.6667 13.0631 16.4089 13.8356C16.215 14.4168 16.1325 15.0379 15.9595 15.6288C15.7725 16.2681 15.9328 16.796 16.2812 17.3275C16.863 18.2162 17.4738 19.059 18.4157 19.576C18.8314 19.8048 19.2541 19.8666 19.714 19.7673C20.7847 19.5372 21.7173 18.996 22.6185 18.3833C23.0493 18.0903 23.472 17.7864 23.8994 17.4873C24.7286 18.209 25.6077 18.7998 26.5541 19.2926C27.5691 19.8205 28.4854 19.668 29.3715 18.9887C30.1275 18.4088 30.7128 17.6714 31.2691 16.8941C31.5269 16.5345 31.65 16.2039 31.5362 15.7595C31.3724 15.1239 31.2853 14.4652 31.0972 13.8392C30.9033 13.1951 30.347 12.8379 29.8093 13.0462C29.1439 13.3028 28.5191 13.6758 27.8618 14.0051C28.4111 14.7013 28.4436 15.2474 27.9919 15.9448C27.4518 16.779 26.6854 17.1544 25.7319 17.0333C24.6914 16.9001 23.659 16.8856 22.6196 17.0381C22.0192 17.1265 21.413 17.0987 20.8254 16.9025C19.9114 16.5962 19.2564 15.6748 19.3714 14.8042C19.4097 14.51 19.5375 14.2267 19.649 13.8574V13.855ZM16.8479 23.5159C16.8502 23.4808 16.8525 23.4445 16.856 23.4093C16.3253 23.2665 15.7957 23.1224 15.2639 22.9843C15.2313 22.9759 15.1895 23.0037 15.1535 23.017C14.3557 23.3101 13.5567 23.5946 12.7635 23.8997C12.5243 23.9917 12.3652 23.9239 12.2433 23.7181C12.1132 23.4989 12.1631 23.3064 12.3617 23.1635C12.4651 23.0897 12.5801 23.0291 12.6973 22.9819C12.9993 22.8621 13.3047 22.7531 13.609 22.6393C13.4336 22.5315 13.2525 22.4637 13.0655 22.4334C12.1713 22.2845 11.2736 22.1562 10.3817 21.9915C10.2272 21.9624 10.0333 21.828 9.9671 21.6876C9.83471 21.4031 10.0763 21.0616 10.463 21.1343C11.7648 21.3788 13.069 21.6137 14.372 21.8583C14.7029 21.9201 15.0281 22.0084 15.416 22.098C15.3382 21.9443 15.2999 21.8523 15.2488 21.7687C14.9642 21.3086 14.6681 20.8546 14.3929 20.3884C14.2024 20.0663 14.257 19.7915 14.5055 19.6474C14.7471 19.507 14.9828 19.5857 15.1559 19.9053C15.5588 20.6475 15.9444 21.3982 16.3416 22.1441C16.3868 22.2288 16.4391 22.3426 16.5134 22.3717C17.0267 22.5703 17.547 22.7482 18.1137 22.9504C18.0382 22.7943 17.9755 22.6913 17.9372 22.5799C17.878 22.4104 17.7816 22.2264 17.8013 22.0617C17.8187 21.9128 17.943 21.7312 18.0707 21.6549C18.2322 21.5592 18.411 21.6331 18.5086 21.8305C18.5933 22.0012 18.7071 22.161 18.7699 22.3402C19.0207 23.0691 19.4306 23.6176 20.1878 23.8246C20.3423 23.867 20.477 23.9893 20.6233 24.0716C20.6918 24.1104 20.765 24.1407 20.837 24.1746C20.8614 24.1516 20.8869 24.1273 20.9113 24.1043C20.5223 23.4275 20.175 22.718 19.7303 22.0847C19.3366 21.5241 18.9022 20.9393 18.3588 20.564C17.7049 20.1123 17.0894 19.6329 16.5111 19.088C16.4426 19.0238 16.3462 18.9572 16.2603 18.9536C15.589 18.9306 14.905 18.8265 14.25 18.9282C12.4755 19.2055 10.794 19.8109 9.21457 20.7117C8.95443 20.8606 8.91495 20.9865 9.0694 21.2493C10.8044 24.2048 13.1967 26.113 16.6087 26.36C17.9709 26.4581 19.2623 26.1482 20.4305 25.3781C20.5397 25.3067 20.6338 25.2098 20.772 25.0936C20.398 24.8974 20.0833 24.7182 19.7558 24.5656C19.3203 24.3622 18.8779 24.177 18.4331 23.9954C18.3588 23.9651 18.2589 23.9711 18.1799 23.9954C17.7398 24.1261 17.2903 24.2339 16.8676 24.4119C16.1825 24.7 15.5147 25.033 14.8423 25.3514C14.4869 25.5198 14.1397 25.3527 14.1873 25.0015C14.2105 24.8308 14.3522 24.608 14.4985 24.5366C15.1466 24.2145 15.8155 23.9372 16.4786 23.6467C16.5982 23.5946 16.7259 23.5607 16.849 23.5195L16.8479 23.5159ZM23.0969 14.774C23.2769 14.7364 23.4871 14.7485 23.63 14.6517C24.1897 14.2715 24.8145 14.223 25.4497 14.1879C25.5484 14.1831 25.689 14.1129 25.7319 14.0293C25.934 13.637 26.1547 13.2447 26.2824 12.8246C26.5669 11.8947 26.107 11.0835 25.207 10.8316C24.8006 10.7178 24.3953 10.7142 23.9981 10.8486C23.6822 10.9563 23.4709 10.9031 23.3129 10.5677C23.1167 10.1512 22.7578 9.92594 22.3351 9.81213C21.7684 9.65957 21.2179 9.73585 20.6709 9.92837C19.7628 10.248 19.6919 10.219 19.1008 9.42831C18.9754 9.26122 18.8465 9.08565 18.6839 8.96579C18.5829 8.89072 18.4017 8.86408 18.2844 8.90403C18.2124 8.92825 18.1613 9.12077 18.159 9.23821C18.1555 9.40772 18.1904 9.58208 18.2345 9.74675C18.7315 11.5678 19.7268 13.0098 21.2516 14.0499C21.8137 14.4337 22.4001 14.7388 23.0969 14.7727V14.774ZM9.77897 41.1051C10.1564 41.076 10.4247 41.053 10.6941 41.0336C13.4847 40.8387 15.8875 39.7187 17.9326 37.7379C18.8883 36.8128 19.527 35.6977 19.8081 34.3682C19.8592 34.1261 19.8824 33.8766 19.9312 33.5449C19.2042 33.7858 18.5515 34.0062 17.8942 34.2157C17.7235 34.2702 17.6875 34.3476 17.7038 34.5414C17.7839 35.5076 17.7293 36.469 17.5098 37.4146C17.4506 37.6713 17.2021 37.8529 16.9896 37.7766C16.7643 37.6955 16.6539 37.5066 16.6876 37.2511C16.7062 37.1107 16.755 36.9739 16.7678 36.8334C16.8258 36.2038 16.8769 35.5742 16.9303 34.9434C16.899 34.9325 16.8676 34.9216 16.8351 34.9107C16.7631 34.9543 16.6876 34.9906 16.6214 35.0414C16.0175 35.5052 15.4206 35.9774 14.8098 36.4314C14.5717 36.6082 14.4985 36.8177 14.4881 37.1204C14.4602 37.9207 14.401 38.721 14.322 39.5177C14.286 39.8798 13.9852 40.0456 13.7135 39.8943C13.4812 39.7647 13.4545 39.5371 13.487 39.2877C13.5614 38.7113 13.6299 38.135 13.7007 37.5575C13.5672 37.5998 13.494 37.6616 13.429 37.7318C12.5533 38.6847 11.6777 39.6388 10.8044 40.5941C10.7022 40.7055 10.6244 40.8084 10.4386 40.7152C10.0693 40.5324 9.97523 40.243 10.2586 39.9367C11.2109 38.9075 12.1782 37.8928 13.1386 36.8721C13.1746 36.8334 13.2048 36.7886 13.2374 36.7474C13.2304 36.7135 13.2246 36.6784 13.2176 36.6445C12.5394 36.6445 11.86 36.6554 11.1818 36.6385C10.9658 36.6324 10.8648 36.7111 10.8021 36.9145C10.607 37.5514 10.3654 38.1762 10.2087 38.8227C10.0321 39.5456 9.92878 40.2878 9.77781 41.1014L9.77897 41.1051ZM32.2655 23.6939C32.6046 23.884 32.8775 24.0196 33.1307 24.1842C33.3455 24.3235 33.421 24.5354 33.2991 24.7896C33.1725 25.0548 32.9704 25.0754 32.7323 24.9749C32.3259 24.8042 31.9043 24.6649 31.5176 24.453C31.1471 24.2496 30.8382 24.2751 30.4968 24.5063C30.1693 24.7291 29.8151 24.9083 29.4377 25.1262C29.5283 25.1795 29.5596 25.2049 29.5956 25.2183C29.6874 25.251 29.7803 25.2812 29.8755 25.3067C30.9033 25.5742 31.9403 25.5355 32.982 25.4229C35.7007 25.1275 37.6435 23.6454 38.9581 21.1948C39.0615 21.0023 39.0336 20.8969 38.835 20.8364C37.8665 20.5361 36.9084 20.1935 35.9283 19.9477C34.9504 19.7031 33.9633 19.8254 33.0273 20.1959C31.751 20.7008 30.6989 21.5387 29.8883 22.6925C29.5318 23.1999 29.2565 23.7496 29.0277 24.4131C29.2472 24.2654 29.3901 24.1273 29.5573 24.0656C30.1124 23.8622 30.3447 23.4311 30.4701 22.8645C30.5502 22.5037 30.7082 22.1562 30.8766 21.828C30.9288 21.7263 31.1692 21.6258 31.2505 21.6694C31.3759 21.7372 31.4688 21.9213 31.5176 22.075C31.549 22.1731 31.4804 22.3099 31.4456 22.4262C31.3748 22.6635 31.297 22.8972 31.1982 23.2047C31.6721 22.9904 32.0727 22.793 32.4861 22.6308C32.6685 22.5581 32.7614 22.4552 32.8218 22.2651C33.0029 21.6973 33.1992 21.1343 33.4059 20.5773C33.486 20.363 33.6428 20.2262 33.8902 20.3085C34.1201 20.3848 34.2606 20.6354 34.1979 20.8909C34.1549 21.0665 34.0853 21.2372 34.0191 21.4055C33.9227 21.6525 33.8182 21.8946 33.6939 22.1973C33.8669 22.1368 33.968 22.1029 34.0678 22.0654C35.3813 21.5726 36.7249 21.2021 38.1011 20.9623C38.2846 20.9308 38.4611 20.9151 38.5343 21.1464C38.6051 21.3704 38.5691 21.5823 38.3682 21.7094C38.2393 21.7917 38.0837 21.8389 37.9339 21.8765C37.1012 22.0835 36.2662 22.2821 35.4324 22.4879C35.3406 22.5109 35.2535 22.5606 35.1653 22.5969C35.4486 22.7495 35.7216 22.8209 35.9852 22.9214C36.3185 23.0473 36.4114 23.2544 36.2987 23.5558C36.1965 23.8295 35.9933 23.8997 35.6705 23.7762C35.3046 23.637 34.9249 23.5316 34.5753 23.3573C33.7485 22.9468 33.0621 23.4093 32.2643 23.6939H32.2655ZM32.615 28.5855C32.7521 28.6242 32.8299 28.6521 32.9112 28.669C34.1038 28.9148 35.221 29.3931 36.3266 29.9028C36.466 29.967 36.6204 30.0518 36.7052 30.174C36.7818 30.2866 36.8387 30.4997 36.7853 30.6002C36.7226 30.7213 36.5403 30.7988 36.3951 30.8388C36.3092 30.863 36.1931 30.7855 36.0943 30.7455C35.4045 30.4683 34.7159 30.1861 34.0249 29.9125C33.8948 29.8604 33.7543 29.8374 33.5441 29.7805C33.716 30.0542 33.8518 30.2503 33.968 30.4574C34.1189 30.725 34.0795 30.9841 33.8844 31.1039C33.6811 31.2299 33.457 31.1596 33.2805 30.9114C33.2224 30.8303 33.1713 30.7431 33.1191 30.6571C32.9588 30.3908 32.8067 30.1171 32.6383 29.8568C32.3433 29.4028 31.5327 29.1037 30.9997 29.2393C31.0786 29.6558 31.168 30.0699 31.2319 30.4888C31.2656 30.7044 31.1622 30.8836 30.9497 30.9199C30.7395 30.955 30.5421 30.8993 30.4643 30.6426C30.376 30.352 30.2808 30.0639 30.1937 29.7733C30.0079 29.1521 30.0091 29.1449 29.3785 29.2042C29.0289 29.2369 28.6805 29.2986 28.2775 29.3543C28.583 29.8617 28.9221 30.2092 29.3204 30.484C30.8313 31.5277 32.5059 32.0241 34.3048 31.9006C35.2988 31.8328 36.2801 31.5689 37.2661 31.3885C37.3938 31.3655 37.5169 31.3073 37.6691 31.2553C36.4218 29.2756 34.9458 27.7149 32.5686 27.4861C31.3631 27.3698 29.7106 27.813 29.3622 28.3361C30.2576 28.3252 31.182 28.5322 31.9705 27.8735C32.0506 27.8069 32.1633 27.7742 32.2666 27.7464C32.4165 27.7064 32.5709 27.6604 32.723 27.6616C32.9716 27.6629 33.1051 27.8372 33.169 28.0709C33.2329 28.3082 33.0331 28.3542 32.9019 28.4438C32.8322 28.491 32.7498 28.5201 32.615 28.5855ZM23.9737 26.8105C23.8169 24.1697 23.6613 21.5435 23.5022 18.8592C22.3363 19.7176 21.125 20.3472 19.7349 20.6257C19.7953 20.7165 19.8243 20.7686 19.8603 20.8122C20.8033 21.9382 21.4943 23.2035 21.8357 24.6637C21.8508 24.7279 21.8915 24.7957 21.9391 24.8405C22.6045 25.4883 23.2734 26.1336 23.9725 26.808L23.9737 26.8105ZM21.3259 6.0623C21.3538 6.04777 21.3886 6.03082 21.4211 6.01024C22.997 5.03313 24.8273 5.47144 25.8539 7.06847C25.8934 7.12901 25.9863 7.18713 26.0548 7.18713C26.2174 7.18713 26.3788 7.15202 26.5356 7.13264C26.5472 7.07816 26.56 7.04789 26.5588 7.01883C26.5356 6.32141 26.5832 5.63731 26.9002 5.00165C26.9304 4.94232 26.9211 4.83577 26.8898 4.77281C26.4345 3.84292 25.0572 3.1455 24.1862 3.67341C23.9122 3.83929 23.6683 3.79933 23.3861 3.68309C23.141 3.58139 22.8507 3.48937 22.601 3.52932C21.7835 3.6613 21.1715 4.14077 20.7731 4.89994C20.7394 4.96411 20.7371 5.08277 20.772 5.14452C20.9415 5.44843 21.1285 5.74144 21.3247 6.06351L21.3259 6.0623ZM11.3386 35.7461C11.3885 35.774 11.3967 35.7824 11.4048 35.7836C12.2793 35.8175 13.1549 35.8527 14.0305 35.8781C14.0967 35.8805 14.1699 35.8224 14.2303 35.7776C14.9398 35.2436 15.6482 34.7072 16.3566 34.1709C16.4368 34.1103 16.5157 34.0486 16.6609 33.9372C16.4786 33.9142 16.3857 33.8972 16.2928 33.8912C15.8852 33.8657 15.4764 33.8464 15.0688 33.8197C14.7807 33.8004 14.6216 33.6333 14.6228 33.3645C14.6228 33.1199 14.8167 32.9371 15.0908 32.9274C15.1582 32.925 15.2279 32.9274 15.2952 32.9383C16.0338 33.0666 16.7712 33.1986 17.5087 33.3269C17.5737 33.3378 17.6469 33.3548 17.7073 33.3354C18.303 33.1417 18.8964 32.9395 19.5212 32.73C18.5864 32.2082 17.619 31.9188 16.5703 32.0326C15.5042 32.1476 14.5357 32.5569 13.6473 33.1756C12.6915 33.8403 11.9704 34.7327 11.3398 35.7473L11.3386 35.7461ZM26.8538 11.19C27.1604 10.8425 27.4333 10.4369 27.7944 10.1499C28.2079 9.82182 28.2415 9.36535 28.3484 8.9222C28.3623 8.8665 28.3019 8.76479 28.2485 8.7212C27.2277 7.8797 26.0629 7.74652 25.0526 8.54322C24.6124 8.89072 24.2768 9.32297 24.0782 9.91626C25.2883 9.79518 26.2894 10.0567 26.8549 11.1888L26.8538 11.19ZM23.4 9.32297C23.6636 8.93309 23.868 8.55896 24.1409 8.25021C24.4115 7.94266 24.7506 7.70051 25.1002 7.39418C24.8389 7.18108 24.5811 6.93528 24.2919 6.74035C23.3687 6.11921 22.2643 6.26087 21.4955 7.083C21.4235 7.15928 21.3317 7.26583 21.3317 7.35785C21.3364 7.85185 21.3677 8.34586 21.3909 8.87013C22.1226 8.81201 22.7985 8.95852 23.4 9.32418V9.32297ZM18.8093 5.18448C18.7745 5.21354 18.6746 5.25712 18.6386 5.33219C18.4308 5.76566 18.2066 6.19549 18.0498 6.64954C17.9233 7.01762 17.9511 7.41718 18.1416 7.76952C18.1927 7.86396 18.3228 7.96083 18.4238 7.97051C18.8581 8.00926 19.203 8.20541 19.4829 8.54201C19.6292 8.71757 19.7558 8.91735 19.923 9.0687C20.0043 9.14256 20.1658 9.16193 20.2807 9.14377C20.4387 9.11713 20.5676 9.01543 20.549 8.80838C20.5374 8.67762 20.5409 8.54443 20.5246 8.41366C20.4584 7.89786 20.4015 7.3857 20.5989 6.88322C20.6256 6.81542 20.614 6.72218 20.5966 6.6459C20.4062 5.80198 19.6896 5.19901 18.8105 5.18448H18.8093ZM26.8538 13.5547C26.8805 13.5753 26.9072 13.5946 26.9327 13.6152C26.9676 13.5995 27.0059 13.5898 27.0373 13.568C28.6921 12.4371 29.8151 10.8655 30.5073 8.95247C30.5978 8.70062 30.5955 8.38702 30.5514 8.11581C30.5247 7.95114 30.3621 7.76347 30.2123 7.6775C30.0114 7.56248 29.8221 7.70656 29.6758 7.87244C29.3924 8.19209 29.2077 8.54201 29.1857 8.99969C29.1439 9.88478 28.7618 10.5895 28.0499 11.0919C27.9547 11.1597 27.842 11.2372 27.7968 11.3389C27.4727 12.0727 27.165 12.8149 26.8526 13.5547H26.8538ZM25.6332 16.1506C26.4531 16.1676 27.0849 15.8625 27.3775 15.3721C27.4751 15.2086 27.5912 15.0161 27.4158 14.8478C27.2498 14.688 27.0825 14.5451 26.7969 14.6795C26.2476 14.9386 25.6774 15.1227 25.0491 15.0754C24.8075 15.0573 24.5509 15.1881 24.3093 15.2764C24.1363 15.3394 23.9853 15.4641 23.8123 15.5259C22.8739 15.8661 22.0332 15.5779 21.2342 15.0646C21.0193 14.9265 20.8161 14.7667 20.6071 14.619C20.4422 14.5027 20.2889 14.5306 20.2378 14.7292C20.1925 14.9035 20.1472 15.1372 20.2227 15.2716C20.3597 15.515 20.556 15.7499 20.7801 15.9048C21.3027 16.2657 21.9019 16.2414 22.5023 16.1857C23.1887 16.1228 23.8762 16.0586 24.5648 16.0441C24.9701 16.0356 25.3777 16.1216 25.6332 16.1494V16.1506ZM28.6492 5.25834C27.8118 5.34551 27.4402 5.74992 27.4193 6.61321C27.4158 6.78515 27.4089 6.9595 27.4263 7.13022C27.4344 7.2065 27.4832 7.30821 27.5424 7.34211C27.8711 7.52978 28.209 7.70172 28.5353 7.87365C28.7246 7.64723 28.9244 7.41476 29.1172 7.17502C29.1497 7.13507 29.1776 7.06242 29.1648 7.01762C28.9999 6.43765 28.8268 5.86131 28.6492 5.25712V5.25834Z"/>
</mask>
<path d="M24.3569 19.0008C24.5497 22.5206 24.739 25.9871 24.9283 29.4306C25.2512 28.9245 25.5519 28.3663 25.9317 27.8735C26.5785 27.0369 27.2684 26.2365 27.9547 25.435C28.0906 25.2752 28.1556 25.1468 28.1602 24.918C28.1672 24.5499 28.2288 24.1673 28.3461 23.821C29.4644 20.5313 32.8938 18.4778 36.1826 19.105C37.3091 19.3193 38.3949 19.6631 39.4343 20.1656C40.0625 20.4695 40.1253 20.5955 39.8268 21.2614C38.6469 23.8997 36.7098 25.59 33.9668 26.1942C32.4153 26.5356 30.8382 26.5574 29.3111 26.0658C28.7932 25.8999 28.4947 25.9738 28.1811 26.3927C27.4251 27.4001 26.6459 28.3881 25.8771 29.3858C25.8562 29.4137 25.8469 29.4524 25.8063 29.5444C26.1221 29.3773 26.3799 29.2236 26.6505 29.0989C27.3926 28.7562 28.0836 28.3784 28.6933 27.7682C29.4899 26.9715 30.5549 26.7184 31.6535 26.6422C34.0818 26.4739 35.9585 27.5345 37.4473 29.4464C37.8816 30.0045 38.259 30.6123 38.633 31.2177C38.835 31.5459 38.7387 31.8147 38.3821 31.9394C36.2279 32.6889 34.0411 33.1017 31.7777 32.5508C30.4585 32.23 29.2426 31.6791 28.245 30.6959C27.9431 30.398 27.6806 30.0554 27.3822 29.7115C26.6854 30.0348 26.0257 30.4525 25.3905 30.9272C24.912 31.2843 24.7146 31.7081 24.6624 32.3305C24.4138 35.2812 23.7322 38.1326 22.7056 40.8944C22.6533 41.0361 22.6115 41.2007 22.5128 41.2976C22.4129 41.3957 22.2259 41.4962 22.1191 41.4598C21.9937 41.4175 21.8682 41.2431 21.8276 41.099C21.7916 40.9707 21.8508 40.8 21.9008 40.6607C22.4988 38.9947 22.9901 37.2947 23.3698 35.5609C23.4186 35.3381 23.3896 35.1855 23.2223 35.0257C22.6428 34.4724 22.0169 33.9953 21.2829 33.6902C21.1157 33.62 20.9369 33.58 20.772 33.5279C20.6779 34.0462 20.6152 34.5293 20.5002 34.9966C20.0682 36.7523 18.9986 38.0478 17.6724 39.1412C15.6575 40.8036 13.3663 41.7214 10.7974 41.886C10.3991 41.9115 10.0031 41.9647 9.60477 41.995C9.0845 42.0338 8.92076 41.8667 8.97069 41.3267C9.0996 39.9173 9.34115 38.5334 9.80916 37.1966C10.3805 35.5657 11.2085 34.114 12.4872 32.9758C13.8087 31.7989 15.3254 31.116 17.0801 31.1657C18.4261 31.2032 19.6664 31.6185 20.7116 32.5545C20.7905 32.6247 20.8904 32.6876 20.9891 32.7107C21.9472 32.9286 22.7659 33.4165 23.4918 34.0897C23.5127 34.1091 23.5405 34.1212 23.5882 34.1515C23.6114 34.0825 23.6439 34.0244 23.652 33.9626C23.9075 32.1101 24.0585 30.2491 24.0039 28.376C24.0004 28.2731 23.9714 28.1448 23.9064 28.0757C23.1213 27.2451 22.327 26.4242 21.5199 25.5863C21.3259 25.7522 21.1912 25.8794 21.0449 25.992C19.9184 26.8565 18.6259 27.1616 17.2555 27.2209C14.2802 27.3493 11.896 26.0598 9.88349 23.8864C9.19134 23.1381 8.58746 22.3148 8.16823 21.3619C8.09971 21.2069 8.04513 21.041 8.01145 20.8739C7.96267 20.6342 8.03816 20.4429 8.25184 20.3061C10.2238 19.0456 12.3443 18.232 14.6565 18.0031C14.9933 17.9705 15.3347 17.9983 15.668 17.9983C15.56 17.7852 15.4462 17.5358 15.3068 17.3033C15.2697 17.2416 15.1605 17.2149 15.0792 17.1943C14.1618 16.9594 13.3999 16.4473 12.7415 15.7608C11.9669 14.9532 11.8879 13.9724 12.1562 12.9311C12.3838 12.0473 12.8797 11.3159 13.4499 10.6415C13.5974 10.466 13.6009 10.3558 13.4673 10.1778C13.0887 9.67652 12.8077 9.11713 12.7043 8.48389C12.479 7.10479 13.0608 6.10589 14.1107 5.3443C14.6867 4.92658 15.3359 4.682 16.0094 4.5028C16.2022 4.45074 16.2823 4.36114 16.3195 4.14077C16.3857 3.74363 16.4844 3.34407 16.6272 2.97115C16.9721 2.07032 17.6538 1.60779 18.5643 1.63564C19.1345 1.6538 19.4806 1.51819 19.7941 0.97697C20.3051 0.0955125 21.1494 -0.155122 22.0877 0.0943018C22.601 0.231121 23.0923 0.469648 23.5812 0.692434C23.7682 0.777189 23.8971 0.79414 24.0875 0.68759C24.4382 0.492653 24.8064 0.318299 25.1861 0.19843C26.4334 -0.196289 27.3845 0.15242 28.144 1.26998C28.2845 1.47703 28.4239 1.56178 28.6701 1.53757C28.929 1.51214 29.1961 1.53272 29.4563 1.56299C30.1426 1.6417 30.6571 2.01825 30.9218 2.67087C31.1239 3.16972 31.2424 3.70852 31.3539 4.24006C31.4038 4.4798 31.4398 4.62267 31.7081 4.68442C32.3572 4.83456 32.9692 5.09367 33.5174 5.50292C34.9179 6.54783 35.2222 8.1594 34.292 9.67168C34.1979 9.82545 34.098 9.97801 33.9831 10.1148C33.8402 10.2868 33.8635 10.4187 33.9982 10.5907C34.3361 11.0229 34.681 11.4528 34.9713 11.9189C35.4219 12.6405 35.5729 13.453 35.5067 14.309C35.4533 15.0016 35.1072 15.5368 34.623 15.9714C33.9134 16.6083 33.14 17.1241 32.1668 17.2064C32.0866 17.2137 31.9972 17.3251 31.9438 17.4099C31.3794 18.2998 30.6942 19.0674 29.8743 19.7079C28.7514 20.5858 27.5575 20.7734 26.2824 20.1317C25.7226 19.8496 25.1896 19.5118 24.6449 19.197C24.5555 19.1449 24.4731 19.082 24.3546 19.0021L24.3569 19.0008ZM32.4385 16.3407C33.1899 16.0344 33.8124 15.6021 34.3396 15.0185C34.6857 14.6359 34.8018 14.1782 34.7182 13.6673C34.5312 12.5316 33.9598 11.6198 33.104 10.9309C32.6476 10.564 32.73 10.3243 33.0052 9.95742C33.2271 9.66199 33.464 9.37382 33.6498 9.05538C34.2084 8.09765 34.0771 7.21619 33.2956 6.44854C32.7138 5.87705 31.9972 5.60704 31.2331 5.44238C30.6931 5.32614 30.6803 5.29103 30.606 4.7159C30.5502 4.28607 30.4887 3.85018 30.3609 3.43972C30.088 2.55827 29.2647 2.15265 28.4181 2.54495C28.2125 2.6406 28.0848 2.59217 27.9524 2.40328C27.712 2.05942 27.4635 1.71676 27.1824 1.41043C26.7516 0.943068 26.2127 0.743287 25.6112 0.974549C25.0944 1.17312 24.5985 1.43344 24.1038 1.69013C23.9424 1.77367 23.8343 1.79789 23.6578 1.70708C23.1178 1.43223 22.5615 1.18765 22.0053 0.947911C21.4757 0.720282 21.0182 0.909166 20.6523 1.30994C20.3864 1.60053 20.1692 1.94439 19.9556 2.28099C19.6722 2.72536 19.6397 2.74957 19.1694 2.57643C18.3762 2.28584 17.7235 2.54979 17.3949 3.35134C17.2242 3.76664 17.1173 4.21463 17.0221 4.65657C16.9257 5.11183 16.8746 5.19901 16.4461 5.2995C16.3508 5.3213 16.2556 5.34067 16.1615 5.3661C15.4032 5.56346 14.7076 5.894 14.142 6.47034C13.379 7.24646 13.2536 8.17271 13.7948 9.12682C13.9771 9.44768 14.2117 9.73706 14.4393 10.0264C14.6971 10.3558 14.6948 10.6924 14.401 10.9321C13.609 11.5799 13.1514 12.448 12.9029 13.4421C12.7473 14.0656 12.8518 14.6589 13.3349 15.0863C13.7913 15.4907 14.3011 15.831 14.79 16.1954C14.8469 16.2378 14.9247 16.2487 15.0072 16.2802C15.0606 15.9375 15.0827 15.6203 15.1605 15.32C15.3417 14.6275 15.4775 13.907 15.7667 13.2641C16.2045 12.2906 17.1533 11.9383 18.1288 12.264C18.2089 12.2906 18.2902 12.31 18.4284 12.35C18.2124 11.9238 18.0127 11.5557 17.8362 11.1767C17.5249 10.5059 17.2091 9.8085 17.3205 9.05175C17.4007 8.50326 17.3519 8.02984 17.2253 7.4862C16.957 6.32626 17.4436 5.33704 18.2415 4.5367C18.3936 4.38414 18.7106 4.34298 18.9441 4.35872C19.275 4.38051 19.6002 4.50159 19.9509 4.58635C19.9904 4.50643 20.0369 4.40836 20.0868 4.31028C20.6733 3.16366 22.1388 2.37786 23.2537 2.68177C23.6741 2.79679 24.0294 2.79921 24.4498 2.67935C25.5833 2.35727 27.1197 3.23389 27.626 4.42289C27.6597 4.50159 27.698 4.57787 27.7155 4.61783C28.0697 4.53065 28.3867 4.41926 28.7107 4.38293C29.1346 4.3345 29.4098 4.56576 29.5225 4.99801C29.5585 5.13483 29.5678 5.27892 29.5991 5.41695C29.692 5.83104 29.7826 6.24634 29.8906 6.65559C29.9092 6.7234 30.016 6.81178 30.0834 6.81299C30.7906 6.81784 31.1901 7.11811 31.3631 7.83369C31.5037 8.41245 31.4259 8.98274 31.2284 9.53728C30.9207 10.4054 30.4306 11.161 29.8964 11.8886C29.8337 11.9734 29.7756 12.0618 29.6909 12.1841C29.778 12.1841 29.8163 12.1901 29.8523 12.1841C30.7523 11.9903 31.5118 12.6551 31.7789 13.3295C31.938 13.7303 32.0727 14.1492 32.161 14.5718C32.2783 15.1348 32.3386 15.7099 32.4327 16.3431L32.4385 16.3407ZM19.649 13.855C19.0869 13.591 18.5132 13.2641 17.9035 13.051C17.1661 12.7931 16.6667 13.0631 16.4089 13.8356C16.215 14.4168 16.1325 15.0379 15.9595 15.6288C15.7725 16.2681 15.9328 16.796 16.2812 17.3275C16.863 18.2162 17.4738 19.059 18.4157 19.576C18.8314 19.8048 19.2541 19.8666 19.714 19.7673C20.7847 19.5372 21.7173 18.996 22.6185 18.3833C23.0493 18.0903 23.472 17.7864 23.8994 17.4873C24.7286 18.209 25.6077 18.7998 26.5541 19.2926C27.5691 19.8205 28.4854 19.668 29.3715 18.9887C30.1275 18.4088 30.7128 17.6714 31.2691 16.8941C31.5269 16.5345 31.65 16.2039 31.5362 15.7595C31.3724 15.1239 31.2853 14.4652 31.0972 13.8392C30.9033 13.1951 30.347 12.8379 29.8093 13.0462C29.1439 13.3028 28.5191 13.6758 27.8618 14.0051C28.4111 14.7013 28.4436 15.2474 27.9919 15.9448C27.4518 16.779 26.6854 17.1544 25.7319 17.0333C24.6914 16.9001 23.659 16.8856 22.6196 17.0381C22.0192 17.1265 21.413 17.0987 20.8254 16.9025C19.9114 16.5962 19.2564 15.6748 19.3714 14.8042C19.4097 14.51 19.5375 14.2267 19.649 13.8574V13.855ZM16.8479 23.5159C16.8502 23.4808 16.8525 23.4445 16.856 23.4093C16.3253 23.2665 15.7957 23.1224 15.2639 22.9843C15.2313 22.9759 15.1895 23.0037 15.1535 23.017C14.3557 23.3101 13.5567 23.5946 12.7635 23.8997C12.5243 23.9917 12.3652 23.9239 12.2433 23.7181C12.1132 23.4989 12.1631 23.3064 12.3617 23.1635C12.4651 23.0897 12.5801 23.0291 12.6973 22.9819C12.9993 22.8621 13.3047 22.7531 13.609 22.6393C13.4336 22.5315 13.2525 22.4637 13.0655 22.4334C12.1713 22.2845 11.2736 22.1562 10.3817 21.9915C10.2272 21.9624 10.0333 21.828 9.9671 21.6876C9.83471 21.4031 10.0763 21.0616 10.463 21.1343C11.7648 21.3788 13.069 21.6137 14.372 21.8583C14.7029 21.9201 15.0281 22.0084 15.416 22.098C15.3382 21.9443 15.2999 21.8523 15.2488 21.7687C14.9642 21.3086 14.6681 20.8546 14.3929 20.3884C14.2024 20.0663 14.257 19.7915 14.5055 19.6474C14.7471 19.507 14.9828 19.5857 15.1559 19.9053C15.5588 20.6475 15.9444 21.3982 16.3416 22.1441C16.3868 22.2288 16.4391 22.3426 16.5134 22.3717C17.0267 22.5703 17.547 22.7482 18.1137 22.9504C18.0382 22.7943 17.9755 22.6913 17.9372 22.5799C17.878 22.4104 17.7816 22.2264 17.8013 22.0617C17.8187 21.9128 17.943 21.7312 18.0707 21.6549C18.2322 21.5592 18.411 21.6331 18.5086 21.8305C18.5933 22.0012 18.7071 22.161 18.7699 22.3402C19.0207 23.0691 19.4306 23.6176 20.1878 23.8246C20.3423 23.867 20.477 23.9893 20.6233 24.0716C20.6918 24.1104 20.765 24.1407 20.837 24.1746C20.8614 24.1516 20.8869 24.1273 20.9113 24.1043C20.5223 23.4275 20.175 22.718 19.7303 22.0847C19.3366 21.5241 18.9022 20.9393 18.3588 20.564C17.7049 20.1123 17.0894 19.6329 16.5111 19.088C16.4426 19.0238 16.3462 18.9572 16.2603 18.9536C15.589 18.9306 14.905 18.8265 14.25 18.9282C12.4755 19.2055 10.794 19.8109 9.21457 20.7117C8.95443 20.8606 8.91495 20.9865 9.0694 21.2493C10.8044 24.2048 13.1967 26.113 16.6087 26.36C17.9709 26.4581 19.2623 26.1482 20.4305 25.3781C20.5397 25.3067 20.6338 25.2098 20.772 25.0936C20.398 24.8974 20.0833 24.7182 19.7558 24.5656C19.3203 24.3622 18.8779 24.177 18.4331 23.9954C18.3588 23.9651 18.2589 23.9711 18.1799 23.9954C17.7398 24.1261 17.2903 24.2339 16.8676 24.4119C16.1825 24.7 15.5147 25.033 14.8423 25.3514C14.4869 25.5198 14.1397 25.3527 14.1873 25.0015C14.2105 24.8308 14.3522 24.608 14.4985 24.5366C15.1466 24.2145 15.8155 23.9372 16.4786 23.6467C16.5982 23.5946 16.7259 23.5607 16.849 23.5195L16.8479 23.5159ZM23.0969 14.774C23.2769 14.7364 23.4871 14.7485 23.63 14.6517C24.1897 14.2715 24.8145 14.223 25.4497 14.1879C25.5484 14.1831 25.689 14.1129 25.7319 14.0293C25.934 13.637 26.1547 13.2447 26.2824 12.8246C26.5669 11.8947 26.107 11.0835 25.207 10.8316C24.8006 10.7178 24.3953 10.7142 23.9981 10.8486C23.6822 10.9563 23.4709 10.9031 23.3129 10.5677C23.1167 10.1512 22.7578 9.92594 22.3351 9.81213C21.7684 9.65957 21.2179 9.73585 20.6709 9.92837C19.7628 10.248 19.6919 10.219 19.1008 9.42831C18.9754 9.26122 18.8465 9.08565 18.6839 8.96579C18.5829 8.89072 18.4017 8.86408 18.2844 8.90403C18.2124 8.92825 18.1613 9.12077 18.159 9.23821C18.1555 9.40772 18.1904 9.58208 18.2345 9.74675C18.7315 11.5678 19.7268 13.0098 21.2516 14.0499C21.8137 14.4337 22.4001 14.7388 23.0969 14.7727V14.774ZM9.77897 41.1051C10.1564 41.076 10.4247 41.053 10.6941 41.0336C13.4847 40.8387 15.8875 39.7187 17.9326 37.7379C18.8883 36.8128 19.527 35.6977 19.8081 34.3682C19.8592 34.1261 19.8824 33.8766 19.9312 33.5449C19.2042 33.7858 18.5515 34.0062 17.8942 34.2157C17.7235 34.2702 17.6875 34.3476 17.7038 34.5414C17.7839 35.5076 17.7293 36.469 17.5098 37.4146C17.4506 37.6713 17.2021 37.8529 16.9896 37.7766C16.7643 37.6955 16.6539 37.5066 16.6876 37.2511C16.7062 37.1107 16.755 36.9739 16.7678 36.8334C16.8258 36.2038 16.8769 35.5742 16.9303 34.9434C16.899 34.9325 16.8676 34.9216 16.8351 34.9107C16.7631 34.9543 16.6876 34.9906 16.6214 35.0414C16.0175 35.5052 15.4206 35.9774 14.8098 36.4314C14.5717 36.6082 14.4985 36.8177 14.4881 37.1204C14.4602 37.9207 14.401 38.721 14.322 39.5177C14.286 39.8798 13.9852 40.0456 13.7135 39.8943C13.4812 39.7647 13.4545 39.5371 13.487 39.2877C13.5614 38.7113 13.6299 38.135 13.7007 37.5575C13.5672 37.5998 13.494 37.6616 13.429 37.7318C12.5533 38.6847 11.6777 39.6388 10.8044 40.5941C10.7022 40.7055 10.6244 40.8084 10.4386 40.7152C10.0693 40.5324 9.97523 40.243 10.2586 39.9367C11.2109 38.9075 12.1782 37.8928 13.1386 36.8721C13.1746 36.8334 13.2048 36.7886 13.2374 36.7474C13.2304 36.7135 13.2246 36.6784 13.2176 36.6445C12.5394 36.6445 11.86 36.6554 11.1818 36.6385C10.9658 36.6324 10.8648 36.7111 10.8021 36.9145C10.607 37.5514 10.3654 38.1762 10.2087 38.8227C10.0321 39.5456 9.92878 40.2878 9.77781 41.1014L9.77897 41.1051ZM32.2655 23.6939C32.6046 23.884 32.8775 24.0196 33.1307 24.1842C33.3455 24.3235 33.421 24.5354 33.2991 24.7896C33.1725 25.0548 32.9704 25.0754 32.7323 24.9749C32.3259 24.8042 31.9043 24.6649 31.5176 24.453C31.1471 24.2496 30.8382 24.2751 30.4968 24.5063C30.1693 24.7291 29.8151 24.9083 29.4377 25.1262C29.5283 25.1795 29.5596 25.2049 29.5956 25.2183C29.6874 25.251 29.7803 25.2812 29.8755 25.3067C30.9033 25.5742 31.9403 25.5355 32.982 25.4229C35.7007 25.1275 37.6435 23.6454 38.9581 21.1948C39.0615 21.0023 39.0336 20.8969 38.835 20.8364C37.8665 20.5361 36.9084 20.1935 35.9283 19.9477C34.9504 19.7031 33.9633 19.8254 33.0273 20.1959C31.751 20.7008 30.6989 21.5387 29.8883 22.6925C29.5318 23.1999 29.2565 23.7496 29.0277 24.4131C29.2472 24.2654 29.3901 24.1273 29.5573 24.0656C30.1124 23.8622 30.3447 23.4311 30.4701 22.8645C30.5502 22.5037 30.7082 22.1562 30.8766 21.828C30.9288 21.7263 31.1692 21.6258 31.2505 21.6694C31.3759 21.7372 31.4688 21.9213 31.5176 22.075C31.549 22.1731 31.4804 22.3099 31.4456 22.4262C31.3748 22.6635 31.297 22.8972 31.1982 23.2047C31.6721 22.9904 32.0727 22.793 32.4861 22.6308C32.6685 22.5581 32.7614 22.4552 32.8218 22.2651C33.0029 21.6973 33.1992 21.1343 33.4059 20.5773C33.486 20.363 33.6428 20.2262 33.8902 20.3085C34.1201 20.3848 34.2606 20.6354 34.1979 20.8909C34.1549 21.0665 34.0853 21.2372 34.0191 21.4055C33.9227 21.6525 33.8182 21.8946 33.6939 22.1973C33.8669 22.1368 33.968 22.1029 34.0678 22.0654C35.3813 21.5726 36.7249 21.2021 38.1011 20.9623C38.2846 20.9308 38.4611 20.9151 38.5343 21.1464C38.6051 21.3704 38.5691 21.5823 38.3682 21.7094C38.2393 21.7917 38.0837 21.8389 37.9339 21.8765C37.1012 22.0835 36.2662 22.2821 35.4324 22.4879C35.3406 22.5109 35.2535 22.5606 35.1653 22.5969C35.4486 22.7495 35.7216 22.8209 35.9852 22.9214C36.3185 23.0473 36.4114 23.2544 36.2987 23.5558C36.1965 23.8295 35.9933 23.8997 35.6705 23.7762C35.3046 23.637 34.9249 23.5316 34.5753 23.3573C33.7485 22.9468 33.0621 23.4093 32.2643 23.6939H32.2655ZM32.615 28.5855C32.7521 28.6242 32.8299 28.6521 32.9112 28.669C34.1038 28.9148 35.221 29.3931 36.3266 29.9028C36.466 29.967 36.6204 30.0518 36.7052 30.174C36.7818 30.2866 36.8387 30.4997 36.7853 30.6002C36.7226 30.7213 36.5403 30.7988 36.3951 30.8388C36.3092 30.863 36.1931 30.7855 36.0943 30.7455C35.4045 30.4683 34.7159 30.1861 34.0249 29.9125C33.8948 29.8604 33.7543 29.8374 33.5441 29.7805C33.716 30.0542 33.8518 30.2503 33.968 30.4574C34.1189 30.725 34.0795 30.9841 33.8844 31.1039C33.6811 31.2299 33.457 31.1596 33.2805 30.9114C33.2224 30.8303 33.1713 30.7431 33.1191 30.6571C32.9588 30.3908 32.8067 30.1171 32.6383 29.8568C32.3433 29.4028 31.5327 29.1037 30.9997 29.2393C31.0786 29.6558 31.168 30.0699 31.2319 30.4888C31.2656 30.7044 31.1622 30.8836 30.9497 30.9199C30.7395 30.955 30.5421 30.8993 30.4643 30.6426C30.376 30.352 30.2808 30.0639 30.1937 29.7733C30.0079 29.1521 30.0091 29.1449 29.3785 29.2042C29.0289 29.2369 28.6805 29.2986 28.2775 29.3543C28.583 29.8617 28.9221 30.2092 29.3204 30.484C30.8313 31.5277 32.5059 32.0241 34.3048 31.9006C35.2988 31.8328 36.2801 31.5689 37.2661 31.3885C37.3938 31.3655 37.5169 31.3073 37.6691 31.2553C36.4218 29.2756 34.9458 27.7149 32.5686 27.4861C31.3631 27.3698 29.7106 27.813 29.3622 28.3361C30.2576 28.3252 31.182 28.5322 31.9705 27.8735C32.0506 27.8069 32.1633 27.7742 32.2666 27.7464C32.4165 27.7064 32.5709 27.6604 32.723 27.6616C32.9716 27.6629 33.1051 27.8372 33.169 28.0709C33.2329 28.3082 33.0331 28.3542 32.9019 28.4438C32.8322 28.491 32.7498 28.5201 32.615 28.5855ZM23.9737 26.8105C23.8169 24.1697 23.6613 21.5435 23.5022 18.8592C22.3363 19.7176 21.125 20.3472 19.7349 20.6257C19.7953 20.7165 19.8243 20.7686 19.8603 20.8122C20.8033 21.9382 21.4943 23.2035 21.8357 24.6637C21.8508 24.7279 21.8915 24.7957 21.9391 24.8405C22.6045 25.4883 23.2734 26.1336 23.9725 26.808L23.9737 26.8105ZM21.3259 6.0623C21.3538 6.04777 21.3886 6.03082 21.4211 6.01024C22.997 5.03313 24.8273 5.47144 25.8539 7.06847C25.8934 7.12901 25.9863 7.18713 26.0548 7.18713C26.2174 7.18713 26.3788 7.15202 26.5356 7.13264C26.5472 7.07816 26.56 7.04789 26.5588 7.01883C26.5356 6.32141 26.5832 5.63731 26.9002 5.00165C26.9304 4.94232 26.9211 4.83577 26.8898 4.77281C26.4345 3.84292 25.0572 3.1455 24.1862 3.67341C23.9122 3.83929 23.6683 3.79933 23.3861 3.68309C23.141 3.58139 22.8507 3.48937 22.601 3.52932C21.7835 3.6613 21.1715 4.14077 20.7731 4.89994C20.7394 4.96411 20.7371 5.08277 20.772 5.14452C20.9415 5.44843 21.1285 5.74144 21.3247 6.06351L21.3259 6.0623ZM11.3386 35.7461C11.3885 35.774 11.3967 35.7824 11.4048 35.7836C12.2793 35.8175 13.1549 35.8527 14.0305 35.8781C14.0967 35.8805 14.1699 35.8224 14.2303 35.7776C14.9398 35.2436 15.6482 34.7072 16.3566 34.1709C16.4368 34.1103 16.5157 34.0486 16.6609 33.9372C16.4786 33.9142 16.3857 33.8972 16.2928 33.8912C15.8852 33.8657 15.4764 33.8464 15.0688 33.8197C14.7807 33.8004 14.6216 33.6333 14.6228 33.3645C14.6228 33.1199 14.8167 32.9371 15.0908 32.9274C15.1582 32.925 15.2279 32.9274 15.2952 32.9383C16.0338 33.0666 16.7712 33.1986 17.5087 33.3269C17.5737 33.3378 17.6469 33.3548 17.7073 33.3354C18.303 33.1417 18.8964 32.9395 19.5212 32.73C18.5864 32.2082 17.619 31.9188 16.5703 32.0326C15.5042 32.1476 14.5357 32.5569 13.6473 33.1756C12.6915 33.8403 11.9704 34.7327 11.3398 35.7473L11.3386 35.7461ZM26.8538 11.19C27.1604 10.8425 27.4333 10.4369 27.7944 10.1499C28.2079 9.82182 28.2415 9.36535 28.3484 8.9222C28.3623 8.8665 28.3019 8.76479 28.2485 8.7212C27.2277 7.8797 26.0629 7.74652 25.0526 8.54322C24.6124 8.89072 24.2768 9.32297 24.0782 9.91626C25.2883 9.79518 26.2894 10.0567 26.8549 11.1888L26.8538 11.19ZM23.4 9.32297C23.6636 8.93309 23.868 8.55896 24.1409 8.25021C24.4115 7.94266 24.7506 7.70051 25.1002 7.39418C24.8389 7.18108 24.5811 6.93528 24.2919 6.74035C23.3687 6.11921 22.2643 6.26087 21.4955 7.083C21.4235 7.15928 21.3317 7.26583 21.3317 7.35785C21.3364 7.85185 21.3677 8.34586 21.3909 8.87013C22.1226 8.81201 22.7985 8.95852 23.4 9.32418V9.32297ZM18.8093 5.18448C18.7745 5.21354 18.6746 5.25712 18.6386 5.33219C18.4308 5.76566 18.2066 6.19549 18.0498 6.64954C17.9233 7.01762 17.9511 7.41718 18.1416 7.76952C18.1927 7.86396 18.3228 7.96083 18.4238 7.97051C18.8581 8.00926 19.203 8.20541 19.4829 8.54201C19.6292 8.71757 19.7558 8.91735 19.923 9.0687C20.0043 9.14256 20.1658 9.16193 20.2807 9.14377C20.4387 9.11713 20.5676 9.01543 20.549 8.80838C20.5374 8.67762 20.5409 8.54443 20.5246 8.41366C20.4584 7.89786 20.4015 7.3857 20.5989 6.88322C20.6256 6.81542 20.614 6.72218 20.5966 6.6459C20.4062 5.80198 19.6896 5.19901 18.8105 5.18448H18.8093ZM26.8538 13.5547C26.8805 13.5753 26.9072 13.5946 26.9327 13.6152C26.9676 13.5995 27.0059 13.5898 27.0373 13.568C28.6921 12.4371 29.8151 10.8655 30.5073 8.95247C30.5978 8.70062 30.5955 8.38702 30.5514 8.11581C30.5247 7.95114 30.3621 7.76347 30.2123 7.6775C30.0114 7.56248 29.8221 7.70656 29.6758 7.87244C29.3924 8.19209 29.2077 8.54201 29.1857 8.99969C29.1439 9.88478 28.7618 10.5895 28.0499 11.0919C27.9547 11.1597 27.842 11.2372 27.7968 11.3389C27.4727 12.0727 27.165 12.8149 26.8526 13.5547H26.8538ZM25.6332 16.1506C26.4531 16.1676 27.0849 15.8625 27.3775 15.3721C27.4751 15.2086 27.5912 15.0161 27.4158 14.8478C27.2498 14.688 27.0825 14.5451 26.7969 14.6795C26.2476 14.9386 25.6774 15.1227 25.0491 15.0754C24.8075 15.0573 24.5509 15.1881 24.3093 15.2764C24.1363 15.3394 23.9853 15.4641 23.8123 15.5259C22.8739 15.8661 22.0332 15.5779 21.2342 15.0646C21.0193 14.9265 20.8161 14.7667 20.6071 14.619C20.4422 14.5027 20.2889 14.5306 20.2378 14.7292C20.1925 14.9035 20.1472 15.1372 20.2227 15.2716C20.3597 15.515 20.556 15.7499 20.7801 15.9048C21.3027 16.2657 21.9019 16.2414 22.5023 16.1857C23.1887 16.1228 23.8762 16.0586 24.5648 16.0441C24.9701 16.0356 25.3777 16.1216 25.6332 16.1494V16.1506ZM28.6492 5.25834C27.8118 5.34551 27.4402 5.74992 27.4193 6.61321C27.4158 6.78515 27.4089 6.9595 27.4263 7.13022C27.4344 7.2065 27.4832 7.30821 27.5424 7.34211C27.8711 7.52978 28.209 7.70172 28.5353 7.87365C28.7246 7.64723 28.9244 7.41476 29.1172 7.17502C29.1497 7.13507 29.1776 7.06242 29.1648 7.01762C28.9999 6.43765 28.8268 5.86131 28.6492 5.25712V5.25834Z" fill="#FFEB61"/>
<path d="M24.3569 19.0008C24.5497 22.5206 24.739 25.9871 24.9283 29.4306C25.2512 28.9245 25.5519 28.3663 25.9317 27.8735C26.5785 27.0369 27.2684 26.2365 27.9547 25.435C28.0906 25.2752 28.1556 25.1468 28.1602 24.918C28.1672 24.5499 28.2288 24.1673 28.3461 23.821C29.4644 20.5313 32.8938 18.4778 36.1826 19.105C37.3091 19.3193 38.3949 19.6631 39.4343 20.1656C40.0625 20.4695 40.1253 20.5955 39.8268 21.2614C38.6469 23.8997 36.7098 25.59 33.9668 26.1942C32.4153 26.5356 30.8382 26.5574 29.3111 26.0658C28.7932 25.8999 28.4947 25.9738 28.1811 26.3927C27.4251 27.4001 26.6459 28.3881 25.8771 29.3858C25.8562 29.4137 25.8469 29.4524 25.8063 29.5444C26.1221 29.3773 26.3799 29.2236 26.6505 29.0989C27.3926 28.7562 28.0836 28.3784 28.6933 27.7682C29.4899 26.9715 30.5549 26.7184 31.6535 26.6422C34.0818 26.4739 35.9585 27.5345 37.4473 29.4464C37.8816 30.0045 38.259 30.6123 38.633 31.2177C38.835 31.5459 38.7387 31.8147 38.3821 31.9394C36.2279 32.6889 34.0411 33.1017 31.7777 32.5508C30.4585 32.23 29.2426 31.6791 28.245 30.6959C27.9431 30.398 27.6806 30.0554 27.3822 29.7115C26.6854 30.0348 26.0257 30.4525 25.3905 30.9272C24.912 31.2843 24.7146 31.7081 24.6624 32.3305C24.4138 35.2812 23.7322 38.1326 22.7056 40.8944C22.6533 41.0361 22.6115 41.2007 22.5128 41.2976C22.4129 41.3957 22.2259 41.4962 22.1191 41.4598C21.9937 41.4175 21.8682 41.2431 21.8276 41.099C21.7916 40.9707 21.8508 40.8 21.9008 40.6607C22.4988 38.9947 22.9901 37.2947 23.3698 35.5609C23.4186 35.3381 23.3896 35.1855 23.2223 35.0257C22.6428 34.4724 22.0169 33.9953 21.2829 33.6902C21.1157 33.62 20.9369 33.58 20.772 33.5279C20.6779 34.0462 20.6152 34.5293 20.5002 34.9966C20.0682 36.7523 18.9986 38.0478 17.6724 39.1412C15.6575 40.8036 13.3663 41.7214 10.7974 41.886C10.3991 41.9115 10.0031 41.9647 9.60477 41.995C9.0845 42.0338 8.92076 41.8667 8.97069 41.3267C9.0996 39.9173 9.34115 38.5334 9.80916 37.1966C10.3805 35.5657 11.2085 34.114 12.4872 32.9758C13.8087 31.7989 15.3254 31.116 17.0801 31.1657C18.4261 31.2032 19.6664 31.6185 20.7116 32.5545C20.7905 32.6247 20.8904 32.6876 20.9891 32.7107C21.9472 32.9286 22.7659 33.4165 23.4918 34.0897C23.5127 34.1091 23.5405 34.1212 23.5882 34.1515C23.6114 34.0825 23.6439 34.0244 23.652 33.9626C23.9075 32.1101 24.0585 30.2491 24.0039 28.376C24.0004 28.2731 23.9714 28.1448 23.9064 28.0757C23.1213 27.2451 22.327 26.4242 21.5199 25.5863C21.3259 25.7522 21.1912 25.8794 21.0449 25.992C19.9184 26.8565 18.6259 27.1616 17.2555 27.2209C14.2802 27.3493 11.896 26.0598 9.88349 23.8864C9.19134 23.1381 8.58746 22.3148 8.16823 21.3619C8.09971 21.2069 8.04513 21.041 8.01145 20.8739C7.96267 20.6342 8.03816 20.4429 8.25184 20.3061C10.2238 19.0456 12.3443 18.232 14.6565 18.0031C14.9933 17.9705 15.3347 17.9983 15.668 17.9983C15.56 17.7852 15.4462 17.5358 15.3068 17.3033C15.2697 17.2416 15.1605 17.2149 15.0792 17.1943C14.1618 16.9594 13.3999 16.4473 12.7415 15.7608C11.9669 14.9532 11.8879 13.9724 12.1562 12.9311C12.3838 12.0473 12.8797 11.3159 13.4499 10.6415C13.5974 10.466 13.6009 10.3558 13.4673 10.1778C13.0887 9.67652 12.8077 9.11713 12.7043 8.48389C12.479 7.10479 13.0608 6.10589 14.1107 5.3443C14.6867 4.92658 15.3359 4.682 16.0094 4.5028C16.2022 4.45074 16.2823 4.36114 16.3195 4.14077C16.3857 3.74363 16.4844 3.34407 16.6272 2.97115C16.9721 2.07032 17.6538 1.60779 18.5643 1.63564C19.1345 1.6538 19.4806 1.51819 19.7941 0.97697C20.3051 0.0955125 21.1494 -0.155122 22.0877 0.0943018C22.601 0.231121 23.0923 0.469648 23.5812 0.692434C23.7682 0.777189 23.8971 0.79414 24.0875 0.68759C24.4382 0.492653 24.8064 0.318299 25.1861 0.19843C26.4334 -0.196289 27.3845 0.15242 28.144 1.26998C28.2845 1.47703 28.4239 1.56178 28.6701 1.53757C28.929 1.51214 29.1961 1.53272 29.4563 1.56299C30.1426 1.6417 30.6571 2.01825 30.9218 2.67087C31.1239 3.16972 31.2424 3.70852 31.3539 4.24006C31.4038 4.4798 31.4398 4.62267 31.7081 4.68442C32.3572 4.83456 32.9692 5.09367 33.5174 5.50292C34.9179 6.54783 35.2222 8.1594 34.292 9.67168C34.1979 9.82545 34.098 9.97801 33.9831 10.1148C33.8402 10.2868 33.8635 10.4187 33.9982 10.5907C34.3361 11.0229 34.681 11.4528 34.9713 11.9189C35.4219 12.6405 35.5729 13.453 35.5067 14.309C35.4533 15.0016 35.1072 15.5368 34.623 15.9714C33.9134 16.6083 33.14 17.1241 32.1668 17.2064C32.0866 17.2137 31.9972 17.3251 31.9438 17.4099C31.3794 18.2998 30.6942 19.0674 29.8743 19.7079C28.7514 20.5858 27.5575 20.7734 26.2824 20.1317C25.7226 19.8496 25.1896 19.5118 24.6449 19.197C24.5555 19.1449 24.4731 19.082 24.3546 19.0021L24.3569 19.0008ZM32.4385 16.3407C33.1899 16.0344 33.8124 15.6021 34.3396 15.0185C34.6857 14.6359 34.8018 14.1782 34.7182 13.6673C34.5312 12.5316 33.9598 11.6198 33.104 10.9309C32.6476 10.564 32.73 10.3243 33.0052 9.95742C33.2271 9.66199 33.464 9.37382 33.6498 9.05538C34.2084 8.09765 34.0771 7.21619 33.2956 6.44854C32.7138 5.87705 31.9972 5.60704 31.2331 5.44238C30.6931 5.32614 30.6803 5.29103 30.606 4.7159C30.5502 4.28607 30.4887 3.85018 30.3609 3.43972C30.088 2.55827 29.2647 2.15265 28.4181 2.54495C28.2125 2.6406 28.0848 2.59217 27.9524 2.40328C27.712 2.05942 27.4635 1.71676 27.1824 1.41043C26.7516 0.943068 26.2127 0.743287 25.6112 0.974549C25.0944 1.17312 24.5985 1.43344 24.1038 1.69013C23.9424 1.77367 23.8343 1.79789 23.6578 1.70708C23.1178 1.43223 22.5615 1.18765 22.0053 0.947911C21.4757 0.720282 21.0182 0.909166 20.6523 1.30994C20.3864 1.60053 20.1692 1.94439 19.9556 2.28099C19.6722 2.72536 19.6397 2.74957 19.1694 2.57643C18.3762 2.28584 17.7235 2.54979 17.3949 3.35134C17.2242 3.76664 17.1173 4.21463 17.0221 4.65657C16.9257 5.11183 16.8746 5.19901 16.4461 5.2995C16.3508 5.3213 16.2556 5.34067 16.1615 5.3661C15.4032 5.56346 14.7076 5.894 14.142 6.47034C13.379 7.24646 13.2536 8.17271 13.7948 9.12682C13.9771 9.44768 14.2117 9.73706 14.4393 10.0264C14.6971 10.3558 14.6948 10.6924 14.401 10.9321C13.609 11.5799 13.1514 12.448 12.9029 13.4421C12.7473 14.0656 12.8518 14.6589 13.3349 15.0863C13.7913 15.4907 14.3011 15.831 14.79 16.1954C14.8469 16.2378 14.9247 16.2487 15.0072 16.2802C15.0606 15.9375 15.0827 15.6203 15.1605 15.32C15.3417 14.6275 15.4775 13.907 15.7667 13.2641C16.2045 12.2906 17.1533 11.9383 18.1288 12.264C18.2089 12.2906 18.2902 12.31 18.4284 12.35C18.2124 11.9238 18.0127 11.5557 17.8362 11.1767C17.5249 10.5059 17.2091 9.8085 17.3205 9.05175C17.4007 8.50326 17.3519 8.02984 17.2253 7.4862C16.957 6.32626 17.4436 5.33704 18.2415 4.5367C18.3936 4.38414 18.7106 4.34298 18.9441 4.35872C19.275 4.38051 19.6002 4.50159 19.9509 4.58635C19.9904 4.50643 20.0369 4.40836 20.0868 4.31028C20.6733 3.16366 22.1388 2.37786 23.2537 2.68177C23.6741 2.79679 24.0294 2.79921 24.4498 2.67935C25.5833 2.35727 27.1197 3.23389 27.626 4.42289C27.6597 4.50159 27.698 4.57787 27.7155 4.61783C28.0697 4.53065 28.3867 4.41926 28.7107 4.38293C29.1346 4.3345 29.4098 4.56576 29.5225 4.99801C29.5585 5.13483 29.5678 5.27892 29.5991 5.41695C29.692 5.83104 29.7826 6.24634 29.8906 6.65559C29.9092 6.7234 30.016 6.81178 30.0834 6.81299C30.7906 6.81784 31.1901 7.11811 31.3631 7.83369C31.5037 8.41245 31.4259 8.98274 31.2284 9.53728C30.9207 10.4054 30.4306 11.161 29.8964 11.8886C29.8337 11.9734 29.7756 12.0618 29.6909 12.1841C29.778 12.1841 29.8163 12.1901 29.8523 12.1841C30.7523 11.9903 31.5118 12.6551 31.7789 13.3295C31.938 13.7303 32.0727 14.1492 32.161 14.5718C32.2783 15.1348 32.3386 15.7099 32.4327 16.3431L32.4385 16.3407ZM19.649 13.855C19.0869 13.591 18.5132 13.2641 17.9035 13.051C17.1661 12.7931 16.6667 13.0631 16.4089 13.8356C16.215 14.4168 16.1325 15.0379 15.9595 15.6288C15.7725 16.2681 15.9328 16.796 16.2812 17.3275C16.863 18.2162 17.4738 19.059 18.4157 19.576C18.8314 19.8048 19.2541 19.8666 19.714 19.7673C20.7847 19.5372 21.7173 18.996 22.6185 18.3833C23.0493 18.0903 23.472 17.7864 23.8994 17.4873C24.7286 18.209 25.6077 18.7998 26.5541 19.2926C27.5691 19.8205 28.4854 19.668 29.3715 18.9887C30.1275 18.4088 30.7128 17.6714 31.2691 16.8941C31.5269 16.5345 31.65 16.2039 31.5362 15.7595C31.3724 15.1239 31.2853 14.4652 31.0972 13.8392C30.9033 13.1951 30.347 12.8379 29.8093 13.0462C29.1439 13.3028 28.5191 13.6758 27.8618 14.0051C28.4111 14.7013 28.4436 15.2474 27.9919 15.9448C27.4518 16.779 26.6854 17.1544 25.7319 17.0333C24.6914 16.9001 23.659 16.8856 22.6196 17.0381C22.0192 17.1265 21.413 17.0987 20.8254 16.9025C19.9114 16.5962 19.2564 15.6748 19.3714 14.8042C19.4097 14.51 19.5375 14.2267 19.649 13.8574V13.855ZM16.8479 23.5159C16.8502 23.4808 16.8525 23.4445 16.856 23.4093C16.3253 23.2665 15.7957 23.1224 15.2639 22.9843C15.2313 22.9759 15.1895 23.0037 15.1535 23.017C14.3557 23.3101 13.5567 23.5946 12.7635 23.8997C12.5243 23.9917 12.3652 23.9239 12.2433 23.7181C12.1132 23.4989 12.1631 23.3064 12.3617 23.1635C12.4651 23.0897 12.5801 23.0291 12.6973 22.9819C12.9993 22.8621 13.3047 22.7531 13.609 22.6393C13.4336 22.5315 13.2525 22.4637 13.0655 22.4334C12.1713 22.2845 11.2736 22.1562 10.3817 21.9915C10.2272 21.9624 10.0333 21.828 9.9671 21.6876C9.83471 21.4031 10.0763 21.0616 10.463 21.1343C11.7648 21.3788 13.069 21.6137 14.372 21.8583C14.7029 21.9201 15.0281 22.0084 15.416 22.098C15.3382 21.9443 15.2999 21.8523 15.2488 21.7687C14.9642 21.3086 14.6681 20.8546 14.3929 20.3884C14.2024 20.0663 14.257 19.7915 14.5055 19.6474C14.7471 19.507 14.9828 19.5857 15.1559 19.9053C15.5588 20.6475 15.9444 21.3982 16.3416 22.1441C16.3868 22.2288 16.4391 22.3426 16.5134 22.3717C17.0267 22.5703 17.547 22.7482 18.1137 22.9504C18.0382 22.7943 17.9755 22.6913 17.9372 22.5799C17.878 22.4104 17.7816 22.2264 17.8013 22.0617C17.8187 21.9128 17.943 21.7312 18.0707 21.6549C18.2322 21.5592 18.411 21.6331 18.5086 21.8305C18.5933 22.0012 18.7071 22.161 18.7699 22.3402C19.0207 23.0691 19.4306 23.6176 20.1878 23.8246C20.3423 23.867 20.477 23.9893 20.6233 24.0716C20.6918 24.1104 20.765 24.1407 20.837 24.1746C20.8614 24.1516 20.8869 24.1273 20.9113 24.1043C20.5223 23.4275 20.175 22.718 19.7303 22.0847C19.3366 21.5241 18.9022 20.9393 18.3588 20.564C17.7049 20.1123 17.0894 19.6329 16.5111 19.088C16.4426 19.0238 16.3462 18.9572 16.2603 18.9536C15.589 18.9306 14.905 18.8265 14.25 18.9282C12.4755 19.2055 10.794 19.8109 9.21457 20.7117C8.95443 20.8606 8.91495 20.9865 9.0694 21.2493C10.8044 24.2048 13.1967 26.113 16.6087 26.36C17.9709 26.4581 19.2623 26.1482 20.4305 25.3781C20.5397 25.3067 20.6338 25.2098 20.772 25.0936C20.398 24.8974 20.0833 24.7182 19.7558 24.5656C19.3203 24.3622 18.8779 24.177 18.4331 23.9954C18.3588 23.9651 18.2589 23.9711 18.1799 23.9954C17.7398 24.1261 17.2903 24.2339 16.8676 24.4119C16.1825 24.7 15.5147 25.033 14.8423 25.3514C14.4869 25.5198 14.1397 25.3527 14.1873 25.0015C14.2105 24.8308 14.3522 24.608 14.4985 24.5366C15.1466 24.2145 15.8155 23.9372 16.4786 23.6467C16.5982 23.5946 16.7259 23.5607 16.849 23.5195L16.8479 23.5159ZM23.0969 14.774C23.2769 14.7364 23.4871 14.7485 23.63 14.6517C24.1897 14.2715 24.8145 14.223 25.4497 14.1879C25.5484 14.1831 25.689 14.1129 25.7319 14.0293C25.934 13.637 26.1547 13.2447 26.2824 12.8246C26.5669 11.8947 26.107 11.0835 25.207 10.8316C24.8006 10.7178 24.3953 10.7142 23.9981 10.8486C23.6822 10.9563 23.4709 10.9031 23.3129 10.5677C23.1167 10.1512 22.7578 9.92594 22.3351 9.81213C21.7684 9.65957 21.2179 9.73585 20.6709 9.92837C19.7628 10.248 19.6919 10.219 19.1008 9.42831C18.9754 9.26122 18.8465 9.08565 18.6839 8.96579C18.5829 8.89072 18.4017 8.86408 18.2844 8.90403C18.2124 8.92825 18.1613 9.12077 18.159 9.23821C18.1555 9.40772 18.1904 9.58208 18.2345 9.74675C18.7315 11.5678 19.7268 13.0098 21.2516 14.0499C21.8137 14.4337 22.4001 14.7388 23.0969 14.7727V14.774ZM9.77897 41.1051C10.1564 41.076 10.4247 41.053 10.6941 41.0336C13.4847 40.8387 15.8875 39.7187 17.9326 37.7379C18.8883 36.8128 19.527 35.6977 19.8081 34.3682C19.8592 34.1261 19.8824 33.8766 19.9312 33.5449C19.2042 33.7858 18.5515 34.0062 17.8942 34.2157C17.7235 34.2702 17.6875 34.3476 17.7038 34.5414C17.7839 35.5076 17.7293 36.469 17.5098 37.4146C17.4506 37.6713 17.2021 37.8529 16.9896 37.7766C16.7643 37.6955 16.6539 37.5066 16.6876 37.2511C16.7062 37.1107 16.755 36.9739 16.7678 36.8334C16.8258 36.2038 16.8769 35.5742 16.9303 34.9434C16.899 34.9325 16.8676 34.9216 16.8351 34.9107C16.7631 34.9543 16.6876 34.9906 16.6214 35.0414C16.0175 35.5052 15.4206 35.9774 14.8098 36.4314C14.5717 36.6082 14.4985 36.8177 14.4881 37.1204C14.4602 37.9207 14.401 38.721 14.322 39.5177C14.286 39.8798 13.9852 40.0456 13.7135 39.8943C13.4812 39.7647 13.4545 39.5371 13.487 39.2877C13.5614 38.7113 13.6299 38.135 13.7007 37.5575C13.5672 37.5998 13.494 37.6616 13.429 37.7318C12.5533 38.6847 11.6777 39.6388 10.8044 40.5941C10.7022 40.7055 10.6244 40.8084 10.4386 40.7152C10.0693 40.5324 9.97523 40.243 10.2586 39.9367C11.2109 38.9075 12.1782 37.8928 13.1386 36.8721C13.1746 36.8334 13.2048 36.7886 13.2374 36.7474C13.2304 36.7135 13.2246 36.6784 13.2176 36.6445C12.5394 36.6445 11.86 36.6554 11.1818 36.6385C10.9658 36.6324 10.8648 36.7111 10.8021 36.9145C10.607 37.5514 10.3654 38.1762 10.2087 38.8227C10.0321 39.5456 9.92878 40.2878 9.77781 41.1014L9.77897 41.1051ZM32.2655 23.6939C32.6046 23.884 32.8775 24.0196 33.1307 24.1842C33.3455 24.3235 33.421 24.5354 33.2991 24.7896C33.1725 25.0548 32.9704 25.0754 32.7323 24.9749C32.3259 24.8042 31.9043 24.6649 31.5176 24.453C31.1471 24.2496 30.8382 24.2751 30.4968 24.5063C30.1693 24.7291 29.8151 24.9083 29.4377 25.1262C29.5283 25.1795 29.5596 25.2049 29.5956 25.2183C29.6874 25.251 29.7803 25.2812 29.8755 25.3067C30.9033 25.5742 31.9403 25.5355 32.982 25.4229C35.7007 25.1275 37.6435 23.6454 38.9581 21.1948C39.0615 21.0023 39.0336 20.8969 38.835 20.8364C37.8665 20.5361 36.9084 20.1935 35.9283 19.9477C34.9504 19.7031 33.9633 19.8254 33.0273 20.1959C31.751 20.7008 30.6989 21.5387 29.8883 22.6925C29.5318 23.1999 29.2565 23.7496 29.0277 24.4131C29.2472 24.2654 29.3901 24.1273 29.5573 24.0656C30.1124 23.8622 30.3447 23.4311 30.4701 22.8645C30.5502 22.5037 30.7082 22.1562 30.8766 21.828C30.9288 21.7263 31.1692 21.6258 31.2505 21.6694C31.3759 21.7372 31.4688 21.9213 31.5176 22.075C31.549 22.1731 31.4804 22.3099 31.4456 22.4262C31.3748 22.6635 31.297 22.8972 31.1982 23.2047C31.6721 22.9904 32.0727 22.793 32.4861 22.6308C32.6685 22.5581 32.7614 22.4552 32.8218 22.2651C33.0029 21.6973 33.1992 21.1343 33.4059 20.5773C33.486 20.363 33.6428 20.2262 33.8902 20.3085C34.1201 20.3848 34.2606 20.6354 34.1979 20.8909C34.1549 21.0665 34.0853 21.2372 34.0191 21.4055C33.9227 21.6525 33.8182 21.8946 33.6939 22.1973C33.8669 22.1368 33.968 22.1029 34.0678 22.0654C35.3813 21.5726 36.7249 21.2021 38.1011 20.9623C38.2846 20.9308 38.4611 20.9151 38.5343 21.1464C38.6051 21.3704 38.5691 21.5823 38.3682 21.7094C38.2393 21.7917 38.0837 21.8389 37.9339 21.8765C37.1012 22.0835 36.2662 22.2821 35.4324 22.4879C35.3406 22.5109 35.2535 22.5606 35.1653 22.5969C35.4486 22.7495 35.7216 22.8209 35.9852 22.9214C36.3185 23.0473 36.4114 23.2544 36.2987 23.5558C36.1965 23.8295 35.9933 23.8997 35.6705 23.7762C35.3046 23.637 34.9249 23.5316 34.5753 23.3573C33.7485 22.9468 33.0621 23.4093 32.2643 23.6939H32.2655ZM32.615 28.5855C32.7521 28.6242 32.8299 28.6521 32.9112 28.669C34.1038 28.9148 35.221 29.3931 36.3266 29.9028C36.466 29.967 36.6204 30.0518 36.7052 30.174C36.7818 30.2866 36.8387 30.4997 36.7853 30.6002C36.7226 30.7213 36.5403 30.7988 36.3951 30.8388C36.3092 30.863 36.1931 30.7855 36.0943 30.7455C35.4045 30.4683 34.7159 30.1861 34.0249 29.9125C33.8948 29.8604 33.7543 29.8374 33.5441 29.7805C33.716 30.0542 33.8518 30.2503 33.968 30.4574C34.1189 30.725 34.0795 30.9841 33.8844 31.1039C33.6811 31.2299 33.457 31.1596 33.2805 30.9114C33.2224 30.8303 33.1713 30.7431 33.1191 30.6571C32.9588 30.3908 32.8067 30.1171 32.6383 29.8568C32.3433 29.4028 31.5327 29.1037 30.9997 29.2393C31.0786 29.6558 31.168 30.0699 31.2319 30.4888C31.2656 30.7044 31.1622 30.8836 30.9497 30.9199C30.7395 30.955 30.5421 30.8993 30.4643 30.6426C30.376 30.352 30.2808 30.0639 30.1937 29.7733C30.0079 29.1521 30.0091 29.1449 29.3785 29.2042C29.0289 29.2369 28.6805 29.2986 28.2775 29.3543C28.583 29.8617 28.9221 30.2092 29.3204 30.484C30.8313 31.5277 32.5059 32.0241 34.3048 31.9006C35.2988 31.8328 36.2801 31.5689 37.2661 31.3885C37.3938 31.3655 37.5169 31.3073 37.6691 31.2553C36.4218 29.2756 34.9458 27.7149 32.5686 27.4861C31.3631 27.3698 29.7106 27.813 29.3622 28.3361C30.2576 28.3252 31.182 28.5322 31.9705 27.8735C32.0506 27.8069 32.1633 27.7742 32.2666 27.7464C32.4165 27.7064 32.5709 27.6604 32.723 27.6616C32.9716 27.6629 33.1051 27.8372 33.169 28.0709C33.2329 28.3082 33.0331 28.3542 32.9019 28.4438C32.8322 28.491 32.7498 28.5201 32.615 28.5855ZM23.9737 26.8105C23.8169 24.1697 23.6613 21.5435 23.5022 18.8592C22.3363 19.7176 21.125 20.3472 19.7349 20.6257C19.7953 20.7165 19.8243 20.7686 19.8603 20.8122C20.8033 21.9382 21.4943 23.2035 21.8357 24.6637C21.8508 24.7279 21.8915 24.7957 21.9391 24.8405C22.6045 25.4883 23.2734 26.1336 23.9725 26.808L23.9737 26.8105ZM21.3259 6.0623C21.3538 6.04777 21.3886 6.03082 21.4211 6.01024C22.997 5.03313 24.8273 5.47144 25.8539 7.06847C25.8934 7.12901 25.9863 7.18713 26.0548 7.18713C26.2174 7.18713 26.3788 7.15202 26.5356 7.13264C26.5472 7.07816 26.56 7.04789 26.5588 7.01883C26.5356 6.32141 26.5832 5.63731 26.9002 5.00165C26.9304 4.94232 26.9211 4.83577 26.8898 4.77281C26.4345 3.84292 25.0572 3.1455 24.1862 3.67341C23.9122 3.83929 23.6683 3.79933 23.3861 3.68309C23.141 3.58139 22.8507 3.48937 22.601 3.52932C21.7835 3.6613 21.1715 4.14077 20.7731 4.89994C20.7394 4.96411 20.7371 5.08277 20.772 5.14452C20.9415 5.44843 21.1285 5.74144 21.3247 6.06351L21.3259 6.0623ZM11.3386 35.7461C11.3885 35.774 11.3967 35.7824 11.4048 35.7836C12.2793 35.8175 13.1549 35.8527 14.0305 35.8781C14.0967 35.8805 14.1699 35.8224 14.2303 35.7776C14.9398 35.2436 15.6482 34.7072 16.3566 34.1709C16.4368 34.1103 16.5157 34.0486 16.6609 33.9372C16.4786 33.9142 16.3857 33.8972 16.2928 33.8912C15.8852 33.8657 15.4764 33.8464 15.0688 33.8197C14.7807 33.8004 14.6216 33.6333 14.6228 33.3645C14.6228 33.1199 14.8167 32.9371 15.0908 32.9274C15.1582 32.925 15.2279 32.9274 15.2952 32.9383C16.0338 33.0666 16.7712 33.1986 17.5087 33.3269C17.5737 33.3378 17.6469 33.3548 17.7073 33.3354C18.303 33.1417 18.8964 32.9395 19.5212 32.73C18.5864 32.2082 17.619 31.9188 16.5703 32.0326C15.5042 32.1476 14.5357 32.5569 13.6473 33.1756C12.6915 33.8403 11.9704 34.7327 11.3398 35.7473L11.3386 35.7461ZM26.8538 11.19C27.1604 10.8425 27.4333 10.4369 27.7944 10.1499C28.2079 9.82182 28.2415 9.36535 28.3484 8.9222C28.3623 8.8665 28.3019 8.76479 28.2485 8.7212C27.2277 7.8797 26.0629 7.74652 25.0526 8.54322C24.6124 8.89072 24.2768 9.32297 24.0782 9.91626C25.2883 9.79518 26.2894 10.0567 26.8549 11.1888L26.8538 11.19ZM23.4 9.32297C23.6636 8.93309 23.868 8.55896 24.1409 8.25021C24.4115 7.94266 24.7506 7.70051 25.1002 7.39418C24.8389 7.18108 24.5811 6.93528 24.2919 6.74035C23.3687 6.11921 22.2643 6.26087 21.4955 7.083C21.4235 7.15928 21.3317 7.26583 21.3317 7.35785C21.3364 7.85185 21.3677 8.34586 21.3909 8.87013C22.1226 8.81201 22.7985 8.95852 23.4 9.32418V9.32297ZM18.8093 5.18448C18.7745 5.21354 18.6746 5.25712 18.6386 5.33219C18.4308 5.76566 18.2066 6.19549 18.0498 6.64954C17.9233 7.01762 17.9511 7.41718 18.1416 7.76952C18.1927 7.86396 18.3228 7.96083 18.4238 7.97051C18.8581 8.00926 19.203 8.20541 19.4829 8.54201C19.6292 8.71757 19.7558 8.91735 19.923 9.0687C20.0043 9.14256 20.1658 9.16193 20.2807 9.14377C20.4387 9.11713 20.5676 9.01543 20.549 8.80838C20.5374 8.67762 20.5409 8.54443 20.5246 8.41366C20.4584 7.89786 20.4015 7.3857 20.5989 6.88322C20.6256 6.81542 20.614 6.72218 20.5966 6.6459C20.4062 5.80198 19.6896 5.19901 18.8105 5.18448H18.8093ZM26.8538 13.5547C26.8805 13.5753 26.9072 13.5946 26.9327 13.6152C26.9676 13.5995 27.0059 13.5898 27.0373 13.568C28.6921 12.4371 29.8151 10.8655 30.5073 8.95247C30.5978 8.70062 30.5955 8.38702 30.5514 8.11581C30.5247 7.95114 30.3621 7.76347 30.2123 7.6775C30.0114 7.56248 29.8221 7.70656 29.6758 7.87244C29.3924 8.19209 29.2077 8.54201 29.1857 8.99969C29.1439 9.88478 28.7618 10.5895 28.0499 11.0919C27.9547 11.1597 27.842 11.2372 27.7968 11.3389C27.4727 12.0727 27.165 12.8149 26.8526 13.5547H26.8538ZM25.6332 16.1506C26.4531 16.1676 27.0849 15.8625 27.3775 15.3721C27.4751 15.2086 27.5912 15.0161 27.4158 14.8478C27.2498 14.688 27.0825 14.5451 26.7969 14.6795C26.2476 14.9386 25.6774 15.1227 25.0491 15.0754C24.8075 15.0573 24.5509 15.1881 24.3093 15.2764C24.1363 15.3394 23.9853 15.4641 23.8123 15.5259C22.8739 15.8661 22.0332 15.5779 21.2342 15.0646C21.0193 14.9265 20.8161 14.7667 20.6071 14.619C20.4422 14.5027 20.2889 14.5306 20.2378 14.7292C20.1925 14.9035 20.1472 15.1372 20.2227 15.2716C20.3597 15.515 20.556 15.7499 20.7801 15.9048C21.3027 16.2657 21.9019 16.2414 22.5023 16.1857C23.1887 16.1228 23.8762 16.0586 24.5648 16.0441C24.9701 16.0356 25.3777 16.1216 25.6332 16.1494V16.1506ZM28.6492 5.25834C27.8118 5.34551 27.4402 5.74992 27.4193 6.61321C27.4158 6.78515 27.4089 6.9595 27.4263 7.13022C27.4344 7.2065 27.4832 7.30821 27.5424 7.34211C27.8711 7.52978 28.209 7.70172 28.5353 7.87365C28.7246 7.64723 28.9244 7.41476 29.1172 7.17502C29.1497 7.13507 29.1776 7.06242 29.1648 7.01762C28.9999 6.43765 28.8268 5.86131 28.6492 5.25712V5.25834Z" stroke="#FFEB61" stroke-width="0.3" mask="url(#path-1-outside-1_266_1351)"/>
</g>
<defs>
<clipPath id="clip0_266_1351">
<rect width="32" height="42" fill="white" transform="translate(8)"/>
</clipPath>
</defs>
</svg>
