<svg width="325" height="237" viewBox="0 0 325 237" fill="none" xmlns="http://www.w3.org/2000/svg">
<g clip-path="url(#clip0_722_2105)">
<path d="M289.864 126.985C288.447 143.19 281.317 158.849 271.144 171.8C270.719 172.341 270.289 172.878 269.853 173.41C268.874 174.606 267.869 175.779 266.839 176.93C265.578 178.349 264.281 179.734 262.947 181.087C261.861 182.2 260.749 183.29 259.613 184.356C258.736 185.187 257.849 186.002 256.951 186.801C246.156 196.464 233.755 204.438 220.978 211.412C196.044 225.018 168.713 235.324 140.285 236.825C111.86 238.322 82.1868 230.257 61.3413 211.051C33.2473 185.168 25.4065 141.997 36.8127 105.71C44.3991 81.5687 59.8833 59.7293 80.9566 45.4657C101.848 31.3262 128.203 24.9617 153.145 29.1219C173.057 17.134 199.123 16.9045 220.77 25.7779C232.32 30.5137 242.686 37.5552 251.78 46.0638C255.944 49.9685 259.841 54.1443 263.444 58.5633C263.812 59.0109 264.177 59.4623 264.538 59.9174C266.049 61.8095 267.511 63.7404 268.923 65.7101C270.951 68.535 272.876 71.4226 274.698 74.3729C275.2 75.1854 275.697 76.0016 276.183 76.8254C276.51 77.3784 276.84 77.9351 277.163 78.4955C277.17 78.507 277.175 78.5198 277.178 78.5331C282.232 87.3388 286.363 96.7351 288.516 106.556C288.895 108.294 289.214 110.04 289.461 111.8V111.804C289.678 113.297 289.841 114.798 289.951 116.306C290.211 119.862 290.181 123.434 289.864 126.985Z" fill="#1B1D1F"/>
<path opacity="0.3" d="M215.686 151.482L159.315 104.961L214.079 153.346C214.185 153.523 214.332 153.672 214.508 153.782C214.684 153.891 214.883 153.957 215.09 153.975C215.297 153.993 215.506 153.961 215.698 153.883C215.89 153.805 216.061 153.683 216.196 153.526C216.331 153.37 216.426 153.184 216.474 152.983C216.522 152.783 216.521 152.574 216.471 152.375C216.421 152.175 216.324 151.99 216.187 151.834C216.051 151.679 215.879 151.559 215.686 151.482Z" fill="#F0F0F0"/>
<path d="M86.4129 127.809C105.076 127.809 120.206 112.821 120.206 94.3314C120.206 75.8424 105.076 60.854 86.4129 60.854C67.7494 60.854 52.6196 75.8424 52.6196 94.3314C52.6196 112.821 67.7494 127.809 86.4129 127.809Z" fill="#3F3D56"/>
<path d="M116.409 92.0745C116.409 96.0757 115.614 100.038 114.069 103.735C112.523 107.431 110.258 110.79 107.402 113.619C104.546 116.449 101.155 118.693 97.4235 120.224C93.6919 121.755 89.6924 122.543 85.6534 122.543C82.0535 122.541 78.4815 121.917 75.0978 120.7C69.8071 118.79 65.1466 115.479 61.6237 111.128C58.1008 106.776 55.8505 101.551 55.1178 96.0199C54.3851 90.4891 55.198 84.8652 57.4682 79.7604C59.7383 74.6557 63.3786 70.2657 67.9928 67.0686C72.6069 63.8714 78.018 61.9895 83.637 61.6278C89.256 61.2661 94.8674 62.4384 99.8604 65.0172C104.853 67.5959 109.037 71.4823 111.954 76.2531C114.872 81.0239 116.413 86.4963 116.409 92.0745Z" fill="#1B1D1F"/>
<path d="M80.3377 91.3222C85.5803 91.3222 89.8302 87.112 89.8302 81.9184C89.8302 76.7249 85.5803 72.5146 80.3377 72.5146C75.0951 72.5146 70.8452 76.7249 70.8452 81.9184C70.8452 87.112 75.0951 91.3222 80.3377 91.3222Z" fill="#3F3D56"/>
<path d="M115.209 83.6225C113.152 84.603 110.807 84.8162 108.604 84.2229C106.401 83.6297 104.487 82.2698 103.214 80.3925C101.941 78.5152 101.393 76.2462 101.672 74.0014C101.95 71.7567 103.036 69.6864 104.73 68.1702C109.764 72.1126 113.428 77.5153 115.209 83.6225Z" fill="#3F3D56"/>
<path d="M95.9053 105.616C97.7927 105.616 99.3226 104.1 99.3226 102.231C99.3226 100.361 97.7927 98.8452 95.9053 98.8452C94.018 98.8452 92.488 100.361 92.488 102.231C92.488 104.1 94.018 105.616 95.9053 105.616Z" fill="#3F3D56"/>
<path d="M81.8564 121.414C81.8562 121.712 81.8166 122.007 81.7387 122.295C79.4713 122.014 77.2434 121.478 75.0978 120.7C75.276 119.883 75.7528 119.16 76.4365 118.671C77.1202 118.181 77.9625 117.959 78.8013 118.048C79.6401 118.137 80.4162 118.53 80.9802 119.151C81.5442 119.773 81.8563 120.579 81.8564 121.414Z" fill="#3F3D56"/>
<path d="M61.7324 90.5699C61.7323 92.2874 61.0733 93.9407 59.8889 95.195C58.7046 96.4493 57.0833 97.2109 55.3535 97.3255C54.5705 92.8542 54.7987 88.2665 56.0217 83.8932C57.6172 84.1567 59.0666 84.9722 60.1122 86.1947C61.1579 87.4172 61.732 88.9675 61.7324 90.5699Z" fill="#3F3D56"/>
<path d="M230.271 79.8137C231.048 79.8137 231.677 79.1902 231.677 78.4211C231.677 77.6519 231.048 77.0284 230.271 77.0284C229.495 77.0284 228.866 77.6519 228.866 78.4211C228.866 79.1902 229.495 79.8137 230.271 79.8137Z" fill="#FFEB62"/>
<path d="M217.303 45.9323C217.757 45.9323 218.124 45.5681 218.124 45.1187C218.124 44.6693 217.757 44.3051 217.303 44.3051C216.849 44.3051 216.482 44.6693 216.482 45.1187C216.482 45.5681 216.849 45.9323 217.303 45.9323Z" fill="#F0F0F0"/>
<path d="M85.5473 205.42C86.0009 205.42 86.3686 205.056 86.3686 204.607C86.3686 204.157 86.0009 203.793 85.5473 203.793C85.0937 203.793 84.726 204.157 84.726 204.607C84.726 205.056 85.0937 205.42 85.5473 205.42Z" fill="#F0F0F0"/>
<path d="M221.965 125.543C222.419 125.543 222.787 125.179 222.787 124.729C222.787 124.28 222.419 123.916 221.965 123.916C221.512 123.916 221.144 124.28 221.144 124.729C221.144 125.179 221.512 125.543 221.965 125.543Z" fill="#F0F0F0"/>
<path d="M115.982 133.227C116.758 133.227 117.387 132.604 117.387 131.835C117.387 131.065 116.758 130.442 115.982 130.442C115.205 130.442 114.576 131.065 114.576 131.835C114.576 132.604 115.205 133.227 115.982 133.227Z" fill="#FFEB62"/>
<path d="M65.1019 163.237C68.7682 163.237 71.7402 160.292 71.7402 156.66C71.7402 153.029 68.7682 150.084 65.1019 150.084C61.4357 150.084 58.4636 153.029 58.4636 156.66C58.4636 160.292 61.4357 163.237 65.1019 163.237Z" fill="#FFEB62"/>
<path d="M101.495 164.796C101.948 164.796 102.316 164.432 102.316 163.982C102.316 163.533 101.948 163.169 101.495 163.169C101.041 163.169 100.673 163.533 100.673 163.982C100.673 164.432 101.041 164.796 101.495 164.796Z" fill="#F0F0F0"/>
<path d="M185.029 37.6571C185.482 37.6571 185.85 37.2928 185.85 36.8434C185.85 36.3941 185.482 36.0298 185.029 36.0298C184.575 36.0298 184.207 36.3941 184.207 36.8434C184.207 37.2928 184.575 37.6571 185.029 37.6571Z" fill="#F0F0F0"/>
<path d="M136.047 211.063C136.501 211.063 136.869 210.698 136.869 210.249C136.869 209.8 136.501 209.435 136.047 209.435C135.594 209.435 135.226 209.8 135.226 210.249C135.226 210.698 135.594 211.063 136.047 211.063Z" fill="#F0F0F0"/>
<path d="M123.897 45.1801C124.35 45.1801 124.718 44.8159 124.718 44.3665C124.718 43.9171 124.35 43.5529 123.897 43.5529C123.443 43.5529 123.076 43.9171 123.076 44.3665C123.076 44.8159 123.443 45.1801 123.897 45.1801Z" fill="#F0F0F0"/>
<path d="M145.16 84.676C145.614 84.676 145.981 84.3117 145.981 83.8623C145.981 83.413 145.614 83.0487 145.16 83.0487C144.706 83.0487 144.339 83.413 144.339 83.8623C144.339 84.3117 144.706 84.676 145.16 84.676Z" fill="#F0F0F0"/>
<path d="M112.612 181.59C113.065 181.59 113.433 181.225 113.433 180.776C113.433 180.327 113.065 179.962 112.612 179.962C112.158 179.962 111.791 180.327 111.791 180.776C111.791 181.225 112.158 181.59 112.612 181.59Z" fill="#F0F0F0"/>
<path d="M208.676 186.856C209.13 186.856 209.497 186.491 209.497 186.042C209.497 185.593 209.13 185.228 208.676 185.228C208.222 185.228 207.855 185.593 207.855 186.042C207.855 186.491 208.222 186.856 208.676 186.856Z" fill="#F0F0F0"/>
<path d="M166.15 139.461C166.603 139.461 166.971 139.096 166.971 138.647C166.971 138.198 166.603 137.833 166.15 137.833C165.696 137.833 165.328 138.198 165.328 138.647C165.328 139.096 165.696 139.461 166.15 139.461Z" fill="#F0F0F0"/>
<path d="M187.792 84.5426C188.246 84.5426 188.614 84.1783 188.614 83.7289C188.614 83.2796 188.246 82.9153 187.792 82.9153C187.339 82.9153 186.971 83.2796 186.971 83.7289C186.971 84.1783 187.339 84.5426 187.792 84.5426Z" fill="#F0F0F0"/>
<path d="M227.141 111.696C228.04 111.696 228.769 110.973 228.769 110.082C228.769 109.191 228.04 108.469 227.141 108.469C226.242 108.469 225.512 109.191 225.512 110.082C225.512 110.973 226.242 111.696 227.141 111.696Z" fill="#FF6584"/>
<path d="M161.073 58.2822C161.973 58.2822 162.702 57.5599 162.702 56.6689C162.702 55.7779 161.973 55.0557 161.073 55.0557C160.174 55.0557 159.445 55.7779 159.445 56.6689C159.445 57.5599 160.174 58.2822 161.073 58.2822Z" fill="#FF6584"/>
<path d="M161.073 169.247C161.973 169.247 162.702 168.525 162.702 167.634C162.702 166.743 161.973 166.02 161.073 166.02C160.174 166.02 159.445 166.743 159.445 167.634C159.445 168.525 160.174 169.247 161.073 169.247Z" fill="#FF6584"/>
<path d="M262.533 176.93C261.898 176.931 261.282 177.136 260.775 177.515C260.269 177.894 259.901 178.425 259.727 179.029C259.65 179.288 259.612 179.557 259.613 179.827V184.356C260.748 183.291 261.859 182.202 262.947 181.087C264.279 179.733 265.577 178.347 266.838 176.93H262.533Z" fill="#FFEB62"/>
<path d="M272.872 200.463C267.969 200.463 262.595 200.279 256.751 199.912C226.522 198.01 187.365 191.399 146.495 181.295C105.625 171.192 67.9238 158.804 40.3366 146.413C26.8981 140.377 16.5841 134.664 9.68145 129.431C2.37335 123.891 -0.823323 119.063 0.179871 115.08C2.13456 107.32 19.4424 105.623 33.6177 105.565L33.6226 106.693C14.1561 106.773 2.67185 109.848 1.28524 115.353C-0.481066 122.365 13.9242 133.311 40.807 145.386C68.3336 157.749 105.966 170.113 146.771 180.201C187.576 190.288 226.66 196.888 256.823 198.786C286.28 200.639 304.188 197.681 305.954 190.669C307.421 184.848 297.753 176.272 278.734 166.521L279.257 165.519C293.077 172.604 309.119 182.766 307.06 190.942C306.056 194.925 300.944 197.7 291.866 199.189C286.691 200.037 280.334 200.463 272.872 200.463Z" fill="#FFEB62"/>
<path d="M271.327 116.336C292.402 116.336 309.486 99.4111 309.486 78.533C309.486 57.6549 292.402 40.7299 271.327 40.7299C250.251 40.7299 233.167 57.6549 233.167 78.533C233.167 99.4111 250.251 116.336 271.327 116.336Z" fill="#1B1D1F"/>
<path d="M271.327 40.1657C263.667 40.1657 256.179 42.4159 249.81 46.6317C243.441 50.8476 238.477 56.8398 235.545 63.8505C232.614 70.8612 231.847 78.5756 233.341 86.0182C234.836 93.4607 238.524 100.297 243.941 105.663C249.357 111.029 256.258 114.683 263.771 116.163C271.284 117.644 279.071 116.884 286.148 113.98C293.225 111.076 299.273 106.158 303.529 99.8488C307.784 93.5394 310.056 86.1214 310.056 78.5331C310.074 73.4895 309.085 68.4922 307.145 63.829C305.205 59.1659 302.353 54.9291 298.753 51.3628C295.153 47.7964 290.876 44.971 286.169 43.0492C281.462 41.1275 276.418 40.1475 271.327 40.1657ZM271.327 115.772C263.892 115.772 256.624 113.588 250.443 109.496C244.261 105.404 239.443 99.5883 236.598 92.7838C233.753 85.9793 233.008 78.4917 234.459 71.2681C235.909 64.0444 239.489 57.4091 244.746 52.2011C250.003 46.9932 256.701 43.4465 263.993 42.0096C271.285 40.5728 278.843 41.3102 285.712 44.1288C292.58 46.9473 298.451 51.7203 302.582 57.8442C306.712 63.9681 308.917 71.1679 308.917 78.5331C308.936 83.4287 307.977 88.2796 306.095 92.8063C304.212 97.3329 301.444 101.446 297.95 104.907C294.455 108.369 290.304 111.111 285.734 112.976C281.165 114.841 276.268 115.791 271.327 115.772Z" fill="#2F2E41"/>
<path d="M237.839 87.5873C237.664 87.5871 237.495 87.5272 237.36 87.4177C237.224 87.3083 237.131 87.1559 237.096 86.9864C236.004 81.4783 236.201 75.7957 237.672 70.3749C239.142 64.954 241.847 59.9391 245.579 55.715C245.713 55.5667 245.901 55.4773 246.102 55.4661C246.302 55.455 246.499 55.5232 246.649 55.6556C246.799 55.7881 246.89 55.9741 246.902 56.1728C246.914 56.3716 246.846 56.5669 246.713 56.716C243.137 60.7639 240.545 65.5698 239.136 70.7646C237.726 75.9594 237.538 81.405 238.583 86.6833C238.606 86.7927 238.604 86.9058 238.577 87.0142C238.55 87.1226 238.499 87.2238 238.428 87.3103C238.356 87.3968 238.267 87.4666 238.165 87.5145C238.063 87.5624 237.952 87.5873 237.839 87.5873Z" fill="#2F2E41"/>
<path d="M271.303 113.654C284.698 113.654 295.557 102.897 295.557 89.6269C295.557 76.3569 284.698 65.5995 271.303 65.5995C257.908 65.5995 247.049 76.3569 247.049 89.6269C247.049 102.897 257.908 113.654 271.303 113.654Z" fill="#FFEB62"/>
<path d="M263.594 98.6982C262.022 98.6549 260.065 98.6009 258.558 97.51C258.109 97.1719 257.74 96.7406 257.477 96.2464C257.215 95.7521 257.064 95.207 257.036 94.649C257.009 94.2525 257.075 93.8551 257.228 93.4878C257.382 93.1206 257.619 92.7935 257.921 92.5322C258.708 91.8731 259.858 91.7185 261.097 92.0792L259.813 82.786L260.756 82.6581L262.265 93.5835L261.478 93.2257C260.565 92.8112 259.313 92.6002 258.535 93.2517C258.344 93.422 258.195 93.6337 258.1 93.8703C258.005 94.1069 257.966 94.3621 257.987 94.6159C258.01 95.0311 258.123 95.4366 258.318 95.8047C258.514 96.1728 258.787 96.4949 259.119 96.7491C260.292 97.5979 261.852 97.7074 263.621 97.7564L263.594 98.6982Z" fill="#2F2E41"/>
<path d="M255.153 83.5874H250.03V84.5297H255.153V83.5874Z" fill="#2F2E41"/>
<path d="M271.322 83.5874H266.2V84.5297H271.322V83.5874Z" fill="#2F2E41"/>
<path d="M272.321 119.594H250.337C249.517 119.594 248.732 119.917 248.152 120.491C247.573 121.065 247.247 121.844 247.246 122.656V170.927C247.248 174.198 248.154 177.406 249.864 180.204C251.575 183.002 254.026 185.283 256.951 186.801C257.851 186.003 258.738 185.188 259.613 184.356C260.748 183.291 261.859 182.202 262.947 181.087C264.279 179.733 265.577 178.347 266.839 176.93C267.871 175.779 268.876 174.606 269.853 173.41C270.29 172.879 270.72 172.343 271.144 171.8C281.317 158.849 288.447 143.19 289.864 126.985C287.593 124.646 284.868 122.786 281.854 121.516C278.84 120.246 275.597 119.592 272.321 119.594Z" fill="#2F2E41"/>
<path d="M273.123 129.667C272.599 129.16 271.98 128.76 271.301 128.491C270.621 128.221 269.894 128.088 269.162 128.098C267.89 128.108 266.661 128.555 265.684 129.362C265.528 129.488 265.38 129.622 265.24 129.765L247.246 148.046L234.196 161.305C233.998 161.503 233.833 161.732 233.71 161.982C233.514 162.37 233.414 162.798 233.417 163.231C233.421 163.587 233.496 163.939 233.639 164.267C233.781 164.594 233.987 164.89 234.245 165.138L234.758 165.635L238.479 169.227L238.483 169.223C238.982 169.625 239.608 169.842 240.252 169.836C240.612 169.832 240.967 169.758 241.297 169.617C241.628 169.476 241.927 169.272 242.177 169.016L242.781 168.407L247.102 164.017L247.246 163.87L273.221 137.48C274.254 136.431 274.823 135.018 274.805 133.553C274.786 132.088 274.181 130.69 273.123 129.667Z" fill="#FFEB62"/>
<path d="M272.94 78.4173C273.742 76.7372 272.92 74.9426 271.511 73.8694C269.736 72.517 267.44 72.7406 265.42 73.3807C263.21 74.0816 261.049 75.3428 258.66 75.2703C257.809 75.2552 256.982 74.9858 256.288 74.4973C255.594 74.0089 255.065 73.3241 254.771 72.5328C253.492 69.2832 254.936 65.6512 257.163 63.1866C258.42 61.7753 259.973 60.6538 261.714 59.9009C263.456 59.148 265.342 58.782 267.241 58.8286C269.409 58.9351 271.517 59.5714 273.377 60.6808C275.236 61.7901 276.79 63.338 277.899 65.1865C277.978 65.3127 278.103 65.4041 278.248 65.4417C278.393 65.4794 278.547 65.4605 278.678 65.3889C280.368 64.6405 282.191 64.2313 284.042 64.1852C285.892 64.1391 287.733 64.4569 289.459 65.1202C292.048 66.1657 294.255 67.9667 295.786 70.2841C297.318 72.6014 298.101 75.3254 298.033 78.0944C298.014 78.8208 299.153 78.8204 299.172 78.0944C299.243 74.2234 297.801 70.475 295.148 67.6327C293.8 66.2155 292.18 65.0802 290.382 64.2941C288.584 63.508 286.645 63.0869 284.68 63.0558C282.412 63.008 280.163 63.4726 278.103 64.4145L278.882 64.6169C277.856 62.9048 276.476 61.4261 274.834 60.2772C273.192 59.1282 271.325 58.3348 269.352 57.9485C267.4 57.5876 265.391 57.6469 263.464 58.1225C261.536 58.598 259.734 59.4788 258.18 60.7049C255.256 62.972 253.04 66.4901 253.178 70.2631C253.237 71.8958 253.727 73.5718 254.871 74.7884C256.337 76.3468 258.525 76.6163 260.546 76.217C263.233 75.6864 265.686 73.9359 268.486 73.9898C269.035 73.9901 269.577 74.1058 270.078 74.3292C270.578 74.5526 271.024 74.8786 271.388 75.2857C272.005 75.9754 272.377 76.9673 271.956 77.8478C271.645 78.5007 272.626 79.0741 272.94 78.4173Z" fill="#2F2E41"/>
<path d="M91.1522 214.164C77.6352 214.164 65.069 213.705 53.8193 212.778C39.1148 211.565 27.4626 209.617 19.1867 206.986C10.4245 204.201 5.77594 200.717 5.3701 196.631C4.57919 188.673 20.3052 181.313 33.637 176.54L34.0241 177.602C15.7162 184.156 5.94263 190.874 6.50364 196.521C7.21817 203.713 24.4984 209.228 53.9136 211.653C84.0334 214.136 123.671 213.256 165.525 209.174C207.38 205.093 246.43 198.301 275.483 190.048C303.857 181.989 319.72 173.242 319.005 166.05C318.412 160.079 306.398 155.22 285.177 152.366L285.33 151.248C300.75 153.321 319.306 157.553 320.139 165.94C320.545 170.025 316.671 174.34 308.625 178.764C301.026 182.943 289.981 187.104 275.797 191.133C246.68 199.404 207.558 206.21 165.637 210.297C139.339 212.861 113.905 214.164 91.1522 214.164Z" fill="#FFEB62"/>
<path d="M318.362 170.008C322.028 170.008 325 167.063 325 163.431C325 159.799 322.028 156.855 318.362 156.855C314.695 156.855 311.723 159.799 311.723 163.431C311.723 167.063 314.695 170.008 318.362 170.008Z" fill="#FFEB62"/>
<path d="M125.854 13.1525C129.52 13.1525 132.492 10.2082 132.492 6.57627C132.492 2.94429 129.52 0 125.854 0C122.188 0 119.216 2.94429 119.216 6.57627C119.216 10.2082 122.188 13.1525 125.854 13.1525Z" fill="#3F3D56"/>
<path d="M7.3877 169.631C11.0539 169.631 14.026 166.687 14.026 163.055C14.026 159.423 11.0539 156.479 7.3877 156.479C3.72146 156.479 0.74939 159.423 0.74939 163.055C0.74939 166.687 3.72146 169.631 7.3877 169.631Z" fill="#3F3D56"/>
<path d="M48.3952 44.8317C50.6395 44.8317 52.4589 43.0293 52.4589 40.806C52.4589 38.5826 50.6395 36.7803 48.3952 36.7803C46.1509 36.7803 44.3315 38.5826 44.3315 40.806C44.3315 43.0293 46.1509 44.8317 48.3952 44.8317Z" fill="#FF6584"/>
<path d="M29.4102 197.549C31.6545 197.549 33.4739 195.747 33.4739 193.523C33.4739 191.3 31.6545 189.498 29.4102 189.498C27.1659 189.498 25.3466 191.3 25.3466 193.523C25.3466 195.747 27.1659 197.549 29.4102 197.549Z" fill="#FF6584"/>
<path d="M306.591 131.723C308.835 131.723 310.655 129.92 310.655 127.697C310.655 125.474 308.835 123.671 306.591 123.671C304.347 123.671 302.527 125.474 302.527 127.697C302.527 129.92 304.347 131.723 306.591 131.723Z" fill="#FF6584"/>
<path d="M245.08 231.696C248.746 231.696 251.718 228.752 251.718 225.12C251.718 221.488 248.746 218.544 245.08 218.544C241.413 218.544 238.441 221.488 238.441 225.12C238.441 228.752 241.413 231.696 245.08 231.696Z" fill="#3F3D56"/>
</g>
<defs>
<clipPath id="clip0_722_2105">
<rect width="325" height="237" fill="white"/>
</clipPath>
</defs>
</svg>
