<?xml version="1.0" encoding="UTF-8"?>
<svg id="_Слой_2" data-name="Слой 2" xmlns="http://www.w3.org/2000/svg" xmlns:xlink="http://www.w3.org/1999/xlink" viewBox="0 0 671 913.97">
  <defs>
    <style>
      .cls-1, .cls-2, .cls-3, .cls-4, .cls-5, .cls-6, .cls-7 {
        fill: none;
      }

      .cls-1, .cls-2, .cls-3, .cls-4, .cls-6, .cls-7 {
        stroke-miterlimit: 10;
      }

      .cls-1, .cls-3, .cls-4, .cls-6 {
        stroke: #938337;
      }

      .cls-1, .cls-6 {
        stroke-width: 2px;
      }

      .cls-8 {
        fill: #393960;
        opacity: .22;
      }

      .cls-2 {
        stroke-width: 5px;
      }

      .cls-2, .cls-3, .cls-4, .cls-6, .cls-7 {
        stroke-linecap: round;
      }

      .cls-2, .cls-7 {
        stroke: #333;
      }

      .cls-9 {
        fill: #353544;
      }

      .cls-10 {
        fill: #ffeb62;
        opacity: .47;
      }

      .cls-11 {
        fill: #585959;
      }

      .cls-12 {
        fill: #4d4d4d;
      }

      .cls-3, .cls-4, .cls-7 {
        stroke-width: 3px;
      }

      .cls-13 {
        opacity: .64;
      }

      .cls-14 {
        opacity: .44;
      }

      .cls-14, .cls-15 {
        fill: #111010;
      }

      .cls-16 {
        fill: #1b1d1f;
      }

      .cls-17 {
        fill: #31313f;
      }

      .cls-18 {
        fill: gray;
      }

      .cls-19 {
        fill: #3f3d56;
        opacity: .3;
      }

      .cls-4 {
        stroke-dasharray: 0 0 4.92 9.85;
      }

      .cls-20 {
        fill: #2a2a35;
      }

      .cls-21 {
        clip-path: url(#clippath);
      }

      .cls-22 {
        fill: #999;
      }

      .cls-23 {
        fill: #ccc;
      }

      .cls-24 {
        fill: #23232d;
      }

      .cls-25 {
        fill: #b3b3b3;
      }

      .cls-26 {
        fill: #2c2e30;
      }

      .cls-27 {
        fill: #1a1a1a;
      }

      .cls-28 {
        fill: #938337;
      }

      .cls-29 {
        fill: #242628;
      }

      .cls-30 {
        fill: #5b5b5b;
      }

      .cls-31 {
        fill: #1e1e1e;
      }

      .cls-32 {
        fill: #3a3c3d;
      }

      .cls-33 {
        fill: #666;
      }
    </style>
    <clipPath id="clippath">
      <rect class="cls-5" width="671" height="913.97"/>
    </clipPath>
  </defs>
  <g id="_Слой_2-2" data-name="Слой 2">
    <g class="cls-21">
      <rect class="cls-16" width="671" height="913.97"/>
      <path class="cls-29" d="M35.63,827.74c460.04,12.76,596.33,12.91,598.84,8.56,.04-.07,4.54-7.95,4.53-7.95h0c-.8-4.08-7.58-6.25-12.3-7.34,4.67-2.46,13.9-8.19,19.42-18.95,7.71-15.05,5.02-33.79-6.47-48.91,.21-1.56,1.54-12.71-5.83-18.95-8.37-7.11-25.63-5.87-37.55,6.73-1.33-4.11-8.76-25.54-31.72-36.07-21.86-10.03-49.09-6.19-69.27,9.78,5.86-20.39-6.58-38.16-20.72-40.35-9.59-1.48-20.28,4.15-27.19,13.45-.44-.38-8.68-7.19-18.77-4.28-6.93,2-10.25,7.28-11.01,8.56,1.65-7.2,2.37-16.44-.65-26.29-6.89-22.45-30.48-39.15-60.21-44.02,8.52-1.56,15.05-8.01,16.18-15.9,1.24-8.55-4.11-17.01-12.95-20.18-.38-6.96-2.11-16.1-7.77-25.07-18.86-29.93-62.95-28.83-65.39-28.74,.09-.94,.98-13.46-9.71-21.4-7.47-5.55-17.7-6.72-26.54-3.06,4.31-16.5-4.35-29.7-13.6-31.18-8.71-1.4-16.81,7.78-17.48,8.56-7.35-7.46-26.9-25.35-46.61-22.01-26.47,4.48-50.25,46.75-40.79,105.16-.88-.56-12.14-7.53-24.6-3.06-10.23,3.68-16.91,13.5-16.25,24.32-1.43-.15-8.65-.77-15.2,3.88-6.71,4.76-7.74,11.51-7.9,12.76-4.91,2.73-19.36,11.58-26.15,28.85-10.29,26.19,6,49.03,7.9,51.6-3.77-1.72-23.32-10.23-43.78-2.77-22.1,8.05-36.25,31.42-32.84,57.15-5.18-3.79-13.49-8.37-23.71-8.32-19.2,.09-38.3,16.47-44.39,41.06-4.61-.84-11.11-1.33-18.24,.55-22.27,5.88-29.27,29.21-29.8,31.07,6.45,5.81,13.03,10.55,19.46,14.43,59.67,36,135.57,15.56,159.04,8.33Z"/>
      <g>
        <g>
          <path class="cls-2" d="M380.84,412.85c49.92,65.28,37.47,158.67-27.81,208.58-49.76,38.05-114.81,40.58-165.54,10.37"/>
          <path class="cls-7" d="M375.93,422.81c44.44,60.82,31.26,144.81-28.88,190.8-46.36,35.45-106.94,37.94-154.26,9.93"/>
          <circle class="cls-4" cx="163.46" cy="607.53" r="11.76" transform="translate(-463.83 559.33) rotate(-70.55)"/>
          <circle class="cls-2" cx="162.07" cy="607.83" r="34.55"/>
          <circle class="cls-22" cx="128.97" cy="600.87" r="6.46"/>
          <circle class="cls-17" cx="194.52" cy="593.39" r="6.46"/>
          <circle class="cls-12" cx="177.01" cy="579.29" r="8.69"/>
          <circle class="cls-18" cx="171.88" cy="641.57" r="5.57"/>
          <g>
            <path class="cls-3" d="M177.65,596.39c1.87-1.45,3.74-2.89,5.6-4.35"/>
            <path class="cls-3" d="M142.89,622.92c2-1.53,4.01-3.06,6.01-4.59"/>
          </g>
          <g>
            <path class="cls-3" d="M151,593.12c-1.45-1.87-2.89-3.74-4.35-5.6"/>
            <path class="cls-3" d="M177.52,627.89l-4.59-6.01"/>
          </g>
          <g>
            <path class="cls-3" d="M164.53,589.53c.3-2.34,.59-4.69,.88-7.04"/>
            <path class="cls-3" d="M158.76,632.88c.33-2.5,.66-5,.99-7.5"/>
          </g>
          <g>
            <path class="cls-3" d="M143.92,605.29c-2.34-.33-4.68-.66-7.02-1"/>
            <path class="cls-3" d="M187.26,611.08l-7.5-1.01"/>
          </g>
          <path class="cls-28" d="M365.44,421.14h-.01c-.12,.18-.24,.34-.36,.5-.2,.26-.57,.32-.83,.12-.26-.2-.33-.55-.12-.83,.12-.16,.23-.32,.35-.48,.19-.27,.56-.33,.83-.13,.26,.19,.32,.55,.14,.81Zm3.24-5.03c-.17,.25-.51,.34-.78,.18-.28-.16-.38-.53-.22-.81,.1-.17,.19-.34,.29-.52,.16-.28,.52-.39,.81-.23s.39,.52,.23,.81c-.1,.18-.2,.35-.3,.53,0,.01-.02,.03-.02,.04Zm-7.41,10.11s-.04,.05-.06,.07c-.14,.15-.28,.3-.42,.44-.23,.24-.6,.25-.84,.02-.24-.23-.25-.6-.02-.84,.14-.14,.27-.29,.4-.43,.22-.24,.6-.25,.84-.03,.22,.2,.25,.53,.09,.77Zm10.3-16.02c-.15,.23-.45,.32-.72,.21-.3-.13-.45-.47-.32-.78l.22-.55c.12-.3,.47-.45,.77-.33,.3,.12,.45,.47,.33,.77l-.23,.56s-.04,.07-.06,.11Zm-15.07,20.55s-.07,.09-.11,.12l-.47,.39c-.25,.21-.63,.17-.84-.08-.21-.25-.18-.63,.08-.84l.46-.38c.25-.21,.63-.18,.84,.07,.17,.21,.18,.5,.04,.71Zm17.21-26.77c-.14,.2-.4,.31-.65,.24-.32-.09-.5-.41-.41-.73,.05-.19,.1-.38,.15-.57,.09-.32,.41-.51,.73-.42s.51,.41,.42,.73c-.05,.19-.1,.39-.16,.58-.02,.06-.05,.12-.08,.18Zm-22.51,30.68c-.04,.06-.1,.12-.17,.17-.17,.11-.34,.22-.51,.33-.28,.17-.64,.09-.82-.19-.17-.28-.09-.64,.19-.82,.17-.11,.33-.21,.5-.32,.28-.18,.64-.1,.82,.18,.13,.21,.12,.46,0,.66Zm23.86-37.12c-.12,.18-.34,.29-.58,.25-.32-.05-.55-.35-.5-.67l.08-.58c.04-.33,.34-.55,.67-.51,.33,.04,.55,.34,.51,.67l-.08,.6c-.01,.09-.05,.18-.1,.25Zm-29.6,40.34c-.06,.08-.14,.15-.23,.2-.18,.09-.37,.18-.55,.26-.3,.14-.65,.01-.79-.29-.14-.3-.01-.65,.29-.79,.18-.08,.36-.17,.54-.25,.3-.14,.65-.02,.79,.28,.1,.2,.07,.42-.04,.59Zm30.15-46.89c-.11,.16-.3,.26-.5,.26-.33,0-.59-.28-.58-.61,0-.2,0-.39,0-.59,0-.33,.27-.59,.6-.59,.33,0,.59,.27,.59,.6,0,.2,0,.4,0,.6,0,.12-.04,.23-.1,.32Zm-36.24,49.38c-.07,.1-.17,.19-.3,.23-.19,.06-.38,.13-.58,.19-.31,.1-.65-.07-.75-.38-.1-.31,.07-.65,.38-.75,.19-.06,.37-.12,.56-.19,.31-.11,.65,.06,.75,.37,.06,.18,.03,.38-.07,.52Zm35.98-55.95c-.1,.14-.25,.24-.43,.26-.33,.03-.62-.2-.65-.53-.02-.2-.04-.39-.06-.59-.04-.33,.2-.62,.52-.66,.33-.04,.62,.2,.66,.52,.02,.2,.04,.4,.06,.6,.01,.14-.02,.28-.1,.39Zm-42.33,57.68c-.08,.12-.21,.21-.37,.25-.2,.04-.4,.08-.59,.12-.32,.06-.63-.15-.7-.47-.06-.32,.15-.63,.47-.7,.19-.04,.39-.08,.58-.12,.32-.07,.64,.14,.7,.46,.03,.16,0,.33-.09,.45Zm41.27-64.17c-.08,.12-.21,.21-.36,.24-.32,.07-.64-.13-.71-.45-.04-.19-.09-.38-.13-.58-.08-.32,.12-.64,.44-.71,.32-.08,.64,.12,.71,.44,.05,.2,.09,.39,.14,.59,.04,.17,0,.33-.09,.47Zm-47.78,65.11c-.1,.14-.26,.24-.44,.26-.2,.02-.4,.03-.6,.05-.33,.02-.61-.22-.63-.55-.02-.33,.22-.61,.55-.63,.2-.01,.39-.03,.59-.04,.33-.03,.61,.22,.64,.54,.01,.14-.03,.27-.1,.38Zm45.94-71.42c-.07,.1-.17,.18-.29,.22-.31,.11-.65-.05-.76-.36-.07-.19-.13-.37-.2-.56-.11-.31,.04-.65,.35-.76,.31-.11,.65,.04,.76,.35,.07,.19,.14,.38,.21,.57,.07,.19,.04,.38-.07,.53Zm-52.51,71.55c-.11,.16-.3,.27-.52,.26l-.6-.03c-.33-.02-.58-.3-.56-.62,.02-.33,.3-.58,.62-.56l.59,.03c.33,.01,.58,.29,.57,.62,0,.11-.04,.22-.1,.31Zm49.9-77.6c-.05,.08-.13,.15-.22,.2-.29,.15-.65,.03-.8-.26-.09-.18-.18-.35-.27-.53-.15-.29-.04-.65,.25-.8,.29-.15,.65-.04,.8,.25,.09,.18,.19,.36,.28,.54,.1,.2,.08,.43-.04,.6Zm-56.44,76.92c-.13,.19-.35,.29-.59,.25-.2-.03-.4-.07-.6-.1-.32-.06-.54-.37-.48-.69,.06-.32,.37-.54,.69-.48,.19,.03,.39,.07,.58,.1,.32,.05,.54,.36,.49,.68-.01,.09-.05,.17-.09,.24Zm53.11-82.6c-.04,.06-.09,.11-.16,.16-.27,.18-.64,.11-.82-.16l-.34-.49c-.19-.27-.12-.64,.15-.83,.27-.19,.64-.12,.83,.15l.34,.5c.14,.21,.13,.47,0,.67Zm-59.52,81.12c-.14,.21-.41,.31-.66,.24-.19-.06-.39-.12-.58-.18-.31-.1-.49-.43-.39-.74,.1-.31,.43-.49,.74-.39,.19,.06,.38,.12,.57,.17,.31,.09,.49,.42,.4,.74-.02,.06-.04,.12-.08,.17Zm55.51-86.35s-.06,.08-.1,.11c-.25,.22-.62,.19-.84-.05l-.39-.45c-.22-.25-.2-.62,.05-.84,.24-.22,.62-.2,.84,.05l.4,.45c.18,.21,.19,.51,.05,.72Zm-61.69,84.09c-.16,.23-.46,.33-.73,.21-.18-.08-.37-.16-.55-.25-.3-.13-.43-.49-.3-.78,.14-.3,.49-.43,.78-.3,.18,.08,.36,.16,.54,.24,.3,.13,.44,.48,.31,.78-.01,.03-.03,.07-.05,.1Zm57.07-88.77s-.03,.04-.05,.06c-.22,.24-.59,.26-.84,.05-.15-.13-.29-.26-.44-.39-.25-.22-.28-.58-.06-.84,.22-.25,.59-.27,.84-.06,.15,.13,.3,.27,.45,.4,.22,.2,.26,.53,.09,.78Zm-62.92,85.77c-.18,.26-.52,.34-.79,.18-.17-.1-.35-.21-.52-.31-.28-.17-.37-.54-.2-.82,.17-.28,.54-.37,.82-.2,.17,.1,.34,.2,.51,.31,.28,.17,.37,.53,.21,.81,0,.01-.01,.02-.02,.03Zm57.76-89.85h0c-.19,.27-.56,.34-.83,.15-.16-.11-.32-.22-.49-.34l-.09-.06c-.27-.18-.34-.55-.16-.82s.55-.34,.82-.16l.09,.06c.17,.11,.33,.23,.5,.34,.27,.19,.33,.55,.15,.82Zm-63.21,86.15s-.01,.02-.02,.03c-.2,.26-.57,.31-.83,.11-.16-.12-.32-.25-.48-.37-.26-.2-.3-.58-.1-.83,.2-.26,.58-.3,.83-.1,.15,.12,.31,.24,.47,.36,.25,.19,.3,.55,.13,.8Zm57.49-89.63c-.17,.25-.5,.33-.77,.19-.17-.09-.35-.18-.52-.27-.29-.15-.41-.51-.26-.8,.15-.29,.51-.41,.8-.26,.18,.09,.36,.18,.54,.28,.29,.15,.4,.51,.25,.8-.01,.02-.02,.04-.03,.06Zm-62.45,85.3s-.04,.06-.07,.08c-.23,.23-.61,.24-.84,0-.14-.14-.29-.28-.43-.43-.23-.23-.23-.61,0-.84,.23-.23,.61-.23,.84,0,.14,.14,.28,.28,.42,.42,.21,.2,.23,.52,.07,.76Zm56.45-88c-.15,.22-.44,.32-.7,.22l-.56-.21c-.31-.11-.47-.45-.35-.76,.11-.31,.45-.47,.76-.35l.56,.21c.31,.11,.46,.46,.35,.76-.02,.05-.04,.09-.07,.13Zm-60.83,83.09s-.08,.09-.12,.13c-.26,.2-.63,.16-.83-.1-.13-.16-.25-.32-.37-.48-.2-.26-.15-.63,.11-.83,.26-.2,.63-.15,.83,.11,.12,.16,.24,.31,.37,.47,.16,.21,.17,.49,.02,.7Zm54.55-85.03c-.13,.2-.38,.3-.63,.24l-.58-.14c-.32-.07-.52-.39-.45-.71,.07-.32,.39-.52,.71-.45l.59,.14c.32,.08,.52,.4,.44,.72-.02,.07-.05,.14-.09,.2Zm-58.29,79.61c-.05,.07-.11,.13-.18,.17-.28,.17-.65,.08-.82-.2-.1-.17-.21-.35-.31-.52-.17-.28-.07-.65,.21-.81s.65-.07,.81,.21c.1,.17,.2,.34,.3,.51,.12,.21,.11,.46-.02,.64Zm51.81-80.76c-.12,.18-.33,.28-.56,.26-.2-.02-.39-.04-.59-.06-.33-.03-.56-.32-.53-.65,.03-.33,.33-.56,.65-.53,.2,.02,.4,.04,.6,.06,.33,.04,.56,.33,.52,.66-.01,.1-.05,.19-.1,.27Zm-54.86,74.92c-.06,.09-.14,.16-.25,.21-.3,.13-.65,0-.78-.3-.08-.18-.16-.37-.24-.56-.13-.3,0-.65,.31-.78,.3-.13,.65,0,.78,.31,.08,.18,.16,.36,.24,.54,.09,.19,.06,.41-.05,.58Zm48.29-75.26c-.11,.16-.28,.26-.49,.26-.2,0-.39,0-.59,0-.33,0-.6-.25-.61-.58,0-.33,.25-.6,.58-.61,.2,0,.4,0,.6,0,.33,0,.6,.26,.6,.59,0,.13-.04,.24-.1,.34Zm-50.6,69.09c-.07,.11-.18,.19-.32,.23-.31,.1-.65-.08-.74-.39l-.17-.58c-.09-.31,.09-.64,.4-.74,.31-.09,.64,.09,.74,.4l.17,.57c.05,.18,.02,.36-.08,.51Zm44.04-68.62c-.09,.13-.24,.23-.41,.25-.2,.03-.39,.05-.59,.08-.32,.05-.63-.18-.67-.5-.05-.32,.18-.63,.5-.67,.2-.03,.4-.06,.6-.08,.33-.04,.62,.18,.67,.51,.02,.15-.02,.3-.1,.41Zm-45.57,62.22c-.09,.13-.22,.22-.39,.25-.32,.06-.63-.16-.69-.48-.03-.2-.07-.4-.1-.6-.05-.32,.16-.63,.49-.68,.32-.05,.63,.17,.68,.49,.03,.19,.07,.39,.1,.58,.03,.16-.01,.31-.09,.44Zm39.12-60.95c-.08,.12-.2,.2-.34,.24-.19,.05-.38,.1-.57,.15-.32,.09-.64-.1-.73-.42-.09-.32,.1-.64,.42-.73,.19-.05,.39-.1,.59-.16,.32-.08,.64,.11,.72,.43,.04,.17,0,.35-.08,.48Zm-39.86,54.42c-.1,.15-.27,.25-.46,.26-.33,.02-.61-.23-.62-.56-.01-.2-.02-.4-.03-.6-.01-.33,.24-.6,.57-.62,.33-.01,.6,.24,.62,.57,0,.2,.02,.39,.03,.59,0,.13-.03,.26-.1,.36Zm33.6-52.37c-.06,.09-.16,.17-.27,.22l-.55,.22c-.3,.12-.65-.02-.77-.32-.12-.3,.02-.65,.32-.77l.56-.23c.3-.12,.65,.03,.77,.33,.08,.19,.05,.4-.06,.55Zm-33.54,45.79c-.12,.17-.31,.27-.53,.26-.33-.02-.57-.31-.55-.63l.05-.6c.03-.33,.31-.57,.64-.54,.33,.03,.57,.31,.54,.64l-.05,.59c0,.11-.04,.21-.1,.29Zm27.58-42.99c-.05,.08-.12,.14-.21,.19-.17,.1-.35,.19-.52,.29-.29,.16-.65,.06-.81-.23s-.06-.65,.23-.81c.18-.1,.35-.2,.53-.29,.29-.16,.65-.05,.81,.24,.11,.2,.09,.44-.03,.62Zm-26.71,36.48c-.13,.19-.37,.3-.61,.25-.32-.06-.53-.38-.47-.7,.04-.2,.08-.39,.12-.59,.07-.32,.38-.53,.7-.46,.32,.07,.53,.38,.46,.7-.04,.19-.08,.38-.12,.58-.02,.08-.05,.15-.09,.22Zm21.15-32.96c-.04,.06-.09,.11-.14,.15-.16,.12-.32,.23-.48,.35-.26,.19-.64,.14-.83-.12-.19-.26-.14-.64,.12-.83,.16-.12,.33-.24,.49-.36,.27-.19,.64-.13,.83,.13,.15,.21,.15,.48,0,.68Zm-19.48,26.6c-.15,.21-.42,.31-.68,.23-.31-.1-.48-.44-.38-.75,.06-.19,.13-.38,.19-.57,.11-.31,.44-.48,.75-.37,.31,.11,.48,.44,.37,.75-.06,.19-.13,.37-.19,.56-.02,.05-.04,.1-.07,.15Zm14.39-22.43s-.05,.07-.09,.1c-.14,.13-.29,.27-.43,.41-.24,.23-.61,.22-.84-.02-.23-.24-.22-.61,.02-.84,.15-.14,.29-.28,.44-.41,.24-.22,.62-.21,.84,.03,.19,.21,.21,.51,.06,.74Zm-11.94,16.32c-.16,.24-.48,.33-.74,.2-.3-.14-.42-.49-.28-.79,.09-.18,.17-.36,.26-.55,.15-.3,.5-.42,.79-.27,.29,.14,.42,.5,.27,.79-.09,.18-.17,.35-.26,.53-.01,.03-.03,.06-.05,.08Zm7.41-11.55s-.02,.03-.04,.05c-.13,.15-.25,.3-.38,.46-.21,.25-.58,.29-.84,.08-.25-.21-.28-.58-.08-.84,.13-.16,.26-.31,.39-.47,.21-.25,.59-.28,.84-.07,.24,.2,.28,.54,.11,.79Zm-4.23,5.79c-.18,.26-.54,.34-.81,.17-.28-.18-.36-.54-.18-.82,.11-.17,.22-.34,.33-.51,.2-.26,.55-.35,.82-.17,.27,.18,.35,.55,.17,.82-.11,.16-.21,.33-.32,.5,0,0,0,.01-.01,.02Z"/>
          <circle class="cls-2" cx="321.65" cy="389.45" r="63.61"/>
          <circle class="cls-1" cx="320.07" cy="388.8" r="47.25"/>
          <path class="cls-6" d="M273.43,397.53c.89-10.57,8.13-19.42,17.89-22.1,11.09-3.04,23.32,2.47,28.75,13.37,5.69,9.92,16.72,15,26.6,12.77,12.32-2.78,20.44-16.02,17.1-30.47"/>
          <circle class="cls-1" cx="296.76" cy="394.28" r="8.47"/>
          <circle class="cls-18" cx="298.74" cy="448.6" r="5.57"/>
          <circle class="cls-17" cx="258.12" cy="395.49" r="7.36"/>
          <circle class="cls-12" cx="342.38" cy="328.81" r="7.8"/>
          <circle class="cls-17" cx="320.77" cy="326.25" r="4.68"/>
          <path class="cls-2" d="M137.16,583.23c-42.52-64.64-27.32-150.46,35.1-198.19,29.27-22.38,61.69-31.97,95.81-30.13"/>
          <path class="cls-7" d="M145.33,578.04c-39.64-60.35-25.34-140.63,32.91-185.18,26.05-19.92,56.9-29.21,87.33-28.55"/>
        </g>
        <circle class="cls-1" cx="343.97" cy="379.96" r="9.36"/>
      </g>
      <g>
        <path class="cls-19" d="M668.83,203.5c-5.6-1.27-11.62-2.05-22.24-2.05-43.16,0-78.15,34.99-78.15,78.15,0,43.16,34.99,78.15,78.15,78.15,7.65,0,15.05-1.1,22.04-3.15l.2-151.1Z"/>
        <circle class="cls-14" cx="601.2" cy="286.22" r="16.8"/>
        <circle class="cls-14" cx="628.32" cy="317.08" r="7.73"/>
      </g>
      <path class="cls-33" d="M483.8,419.6c7.25-.15,13.41-.1,18.11,0,0,0,16.18,.33,34.28,4.53,0,0,5.92,1.37,5.82,2.59-.07,.87-3.19,.66-5.82,2.59-2.55,1.87-3.49,4.92-3.88,7.11,3.62-.18,8.77-.19,14.87,.65,7.53,1.03,15.1,2.07,22.63,7.11,8.71,5.83,13.45,14.38,12.93,14.87-.21,.2-1.29-.93-4.53-2.59-2.24-1.14-3.99-1.76-4.53-1.94-1.35-.46-3.09-.95-5.17-1.29-2.99-1.67-7.19-3.94-12.29-6.47-7.52-3.73-16.01-7.52-30.4-12.93-10.73-4.04-24.88-9.04-42.04-14.23Z"/>
      <path class="cls-30" d="M413.95,807.62c3.58,.94,8.67,2.63,14.23,5.82,3.5,2.01,11.15,6.52,17.46,15.52,5.32,7.6,7.12,14.71,8.41,20.05,1.84,7.59,2.08,14.15,1.94,18.75,1.65-.06,4.56-.37,7.76-1.94,3.34-1.64,5.42-3.87,6.47-5.17,.89-4.98,1.67-12.77,0-21.99-1.25-6.89-3.22-17.71-12.29-26.52-8.75-8.5-19.3-10.45-23.93-10.99-6.68,2.16-13.37,4.31-20.05,6.47Z"/>
      <path class="cls-30" d="M340.23,734.55c1.93,2.95,4.84,6.71,9.05,10.35,5.79,5,11.6,7.64,15.52,9.05-3.62,.64-9.35,1.22-16.17,0-3.19-.57-15.85-3.02-25.22-13.58-1.64-1.84-4.97-9.21-11.64-23.93-2.84-6.27-4.23-9.56-3.23-10.35,1.43-1.13,7.02,3.53,11.64,7.76,6.68,6.9,13.37,13.8,20.05,20.69Z"/>
      <path class="cls-32" d="M266.5,748.77c2.5,4.81,6.25,11.2,11.64,18.11,4.43,5.67,16.72,20.35,37.51,31.69,24.82,13.53,48.32,14.97,60.14,14.87,11.78-2.14,24.08-4.11,36.86-5.82,9.51-1.27,18.78-2.34,27.81-3.23,4.07,2.1,9.71,5.68,14.87,11.64,10.49,12.1,11.99,25.87,12.29,31.04-.22,4.1-.43,8.19-.65,12.29-2.39,2.28-5.38,4.76-9.05,7.11-6.8,4.35-13.3,6.57-18.11,7.76h72.43c1.97-.89,5.8-2.94,9.05-7.11,2.97-3.81,4.08-7.62,4.53-9.7-.82-10.45-3.2-24.37-9.7-39.45-14.32-33.21-39.6-51.11-51.09-58.2-16.16-6.11-29.53-7.91-38.8-8.41-12.38-.67-19.07,.88-38.16,1.29-13.77,.3-25.01-.19-32.34-.65-4.96-1.21-14.58-4.24-23.93-12.29-9.13-7.85-13.55-16.65-15.52-21.34-16.6,10.13-33.2,20.26-49.8,30.4Z"/>
      <path class="cls-30" d="M399.08,634.95c-.99,2.3-5.71,.95-14.23,2.59-8.81,1.69-15.58,5.4-20.05,8.41-1.88,3.31-4.02,6.78-6.47,10.35-4.11,5.99-8.31,11.14-12.29,15.52-1.53,4.85-3.04,9.81-4.53,14.87-1.6,5.48-3.11,10.87-4.53,16.17-.28,3.9-.34,8.24,0,12.93,.87,12.03,4.05,21.92,7.11,29.1-9.27-8.84-18.54-17.68-27.81-26.52-1.75-5.03-3.38-10.88-4.53-17.46-2.37-13.58-1.83-25.43-.65-34.28,1.77-6.04,5.11-14.6,11.64-23.28,11.48-15.26,26.06-21.94,32.98-24.58,3.98-1.47,12.7-4.05,22.63-1.29,12.12,3.36,22.35,13.64,20.69,17.46Z"/>
      <path class="cls-30" d="M474.1,503.02c3.93,1.12,8.03,2.2,12.29,3.23,3.99,.96,7.87,1.82,11.64,2.59,1.08,3.08,2.36,6.33,3.88,9.7,3.05,6.76,6.43,12.58,9.7,17.46,1.66,4.69,3.39,9.44,5.17,14.23,2.55,6.84,5.14,13.52,7.76,20.05-1.83,4.1-3.65,8.86-5.17,14.23-2.5,8.81-3.53,16.77-3.88,23.28-.65,2.37-1.29,4.74-1.94,7.11-4.91-4.26-11.64-9.73-20.05-15.52-5.23-3.6-18.94-12.73-41.39-22.63-25.71-11.35-41.1-18.14-62.73-19.4-17.19-1-31.4,1.89-40.74,4.53,17.36,1.77,38.19,5.61,60.79,13.58,15.41,5.43,31.21,11,49.15,23.28,18.75,12.83,27.27,24.39,49.8,36.86,6.03,3.34,17.11,8.98,31.04,7.76,4.13-.36,7.48-1.24,9.7-1.94,6.16-6.47,12.84-14.79,18.75-25.22,16.73-29.49,17.57-58.56,16.81-73.73-.84-7.74-3.56-22.9-14.23-38.16-7.51-10.74-16.12-17.48-21.99-21.34-9.1-3.22-22.18-6.68-38.16-7.11-23.06-.63-41.24,5.32-51.74,9.7,5.17,5.82,10.35,11.64,15.52,17.46Z"/>
      <path class="cls-32" d="M479.27,602.62c-24.86-16.54-55.37-36.37-97.01-40.74-14.07-1.48-25.82-.82-33.63,0-12.79,6.25-28.53,15.49-44.62,29.1-23.46,19.83-38.29,40.99-47.21,56.26-1.93,10.07-3.34,22.07-3.23,35.57,.23,27.96,6.92,50.7,12.93,65.96,16.6-10.13,33.2-20.26,49.8-30.4-2.05-5.97-4.04-13.37-5.17-21.99-1.56-11.81-1.02-22.03,0-29.75,2.55-6.37,6.72-14.73,13.58-23.28,10.24-12.77,21.74-20.06,29.1-23.93,2.62-.74,6.16-1.42,10.35-1.29,8.67,.26,15.07,3.83,18.11,5.82,14.79,9.48,29.88,18.97,45.27,28.46,20.72,12.77,41.21,25.05,61.44,36.86,5.23,1.65,14.44,3.81,25.87,2.59,3.29-.35,6.34-.94,9.15-1.67-4.85-21.15-9.63-42.31-13.19-63.76-12.21-10.41-23.16-18.25-31.53-23.81Z"/>
      <path class="cls-26" d="M609.26,543.12c-11.21,.43-22.42,.86-33.63,1.29-.6,10.13-2.19,22.25-5.82,35.57-6.34,23.27-16.4,41.07-24.58,53.03-2.64,1.12-7.17,2.64-12.93,2.59-7.78-.07-13.53-2.97-16.17-4.53-1.8-1.6-3.58-3.15-5.33-4.64,3.56,21.45,8.33,42.61,13.19,63.76,7.9-2.05,13.83-5.21,17.37-7.38,5.75-4.02,13.37-9.94,21.34-18.11,19.32-19.79,28.09-39.83,32.34-49.8,12.19-28.59,14.34-54.79,14.23-71.78Z"/>
      <path class="cls-26" d="M355.1,506.26c1.28-6.92,3.54-16.39,7.76-27.16,2.89-7.39,5.87-14.72,11.64-23.28,4.84-7.19,14.57-19.37,31.04-27.81,7.4-3.79,14.36-5.9,20.05-7.11,8.41-2.07,19.41-3.91,32.34-3.88,9.99,.02,18.73,1.17,25.87,2.59,14.99,4.08,31.56,9.51,49.15,16.81,13.04,5.41,24.9,11.12,35.57,16.81,7.9,9.23,17.65,22.53,25.87,40.1,9.09,19.42,13.04,37.08,14.87,49.8-11.21,.43-22.42,.86-33.63,1.29-2.21-8.23-6.17-19.32-13.58-31.04-5.17-8.18-10.71-14.59-15.52-19.4-7.95-2.48-18.24-4.9-30.4-5.82-14.31-1.09-26.51,.25-35.57,1.94-.76,2.62-1.96,5.75-3.88,9.05-4.11,7.05-9.5,11.31-12.93,13.58-18.97,2.8-37.94,5.6-56.91,8.41-17.25-4.96-34.49-9.92-51.74-14.87Z"/>
      <path class="cls-20" d="M452.11,699.62c.74,5.3,1.6,10.69,2.59,16.17,4.48,24.93,10.87,47.61,18.11,67.9,.99,3.01,4.07,11.06,12.29,16.81,10.47,7.33,21.79,5.72,25.22,5.17,2.89-.46,12.08-2.28,24.58-14.23,19.77-18.91,26.62-42.9,31.69-61.44,3.32-12.15,4.96-22.37,5.82-29.1-40.1-.43-80.19-.86-120.29-1.29Z"/>
      <path class="cls-25" d="M468.28,589.04c-.4-1.33-.84-3.36-.65-5.82,.33-4.19,2.27-7.14,3.23-8.41,2.01-1.96,4.99-4.42,9.05-6.47,6.29-3.17,12.11-3.79,15.52-3.88,1.21-1.59,3.9-4.67,8.41-6.47,2.16-.86,8.2-3.27,13.58,0,4.19,2.54,5.48,7.02,5.82,8.41,1.38-.1,4.7-.15,7.76,1.94,5.2,3.55,5.18,10.22,5.17,11.64-.02,7.96-6.22,12.89-7.11,13.58,.37,3.53,.21,6.43,0,8.41-.46,4.2-.89,8.26-3.88,11.64-.8,.9-2.22,2.48-4.53,3.23-3.48,1.14-6.9-.26-9.05-1.29-6.11-2.93-22.24-12.62-43.33-26.52Z"/>
      <path class="cls-23" d="M468.28,586.45c.12,3.08,.33,6.32,.65,9.7,.34,3.63,.79,7.09,1.29,10.35-.49,1.05-1.07,2.59-1.29,4.53-.14,1.25-.1,2.35,0,3.23,1.35,2.11,3.24,4.62,5.82,7.11,4.22,4.07,8.57,6.42,11.64,7.76,1.64,.26,2.99,.14,3.88,0,1.67-.27,2.87-.82,3.88-1.29,1.36-.64,2.44-1.35,3.23-1.94,.99,8.2,1.69,17.06,1.94,26.52,.13,5.14,.12,10.11,0,14.87,2.35,.91,5.67,1.85,9.7,1.94,9.01,.2,15.59-4.01,18.11-5.82-2.92-5.66-5.82-12.14-8.41-19.4-5.02-14.1-7.35-27-8.41-37.51,2.43-1.6,3.8-3.41,4.53-4.53,.88-1.37,3.3-5.11,1.94-8.41-.12-.29-.95-2.32-2.59-2.59-1.29-.21-2.55,.77-3.23,1.29-.61,.47-1.03,.95-1.29,1.29-2.47-.28-5.06-.69-7.76-1.29-12.2-2.71-21.73-8.09-28.46-12.93-1.02,1.02-2.14,2.31-3.23,3.88-.79,1.14-1.43,2.23-1.94,3.23Z"/>
      <path class="cls-9" d="M498.67,655c1.24,.61,2.92,1.6,4.53,3.23,4.62,4.7,5.09,11.13,5.82,10.99,.43-.08-.04-2.29,.65-5.82,.37-1.9,.85-4.26,2.59-6.47,1.12-1.43,2.31-2.21,3.88-3.23,2-1.31,3.85-2.11,5.17-2.59,1,2.31,2.07,4.69,3.23,7.11,1.07,2.24,2.15,4.4,3.23,6.47,.78,1.26,2.01,2.93,3.88,4.53,1.4,1.2,2.77,2.02,3.88,2.59,3.3,1.75,7.19,3.56,11.64,5.17,3.96,1.44,7.67,2.48,10.99,3.23,1.98,1.39,4.26,3.28,6.47,5.82,4.79,5.51,6.84,11.31,7.76,14.87-2.89,.49-7.43,1.62-12.29,4.53-4.33,2.59-7.27,5.61-9.05,7.76-2.44,3.51-5.95,8.44-10.35,14.23-3.9,5.14-6.49,8.55-9.7,12.29-7.66,8.91-13.1,15.23-21.99,20.05-4.95,2.68-11.97,6.4-20.69,5.17-2.31-.32-7.47-1.12-11.64-5.17-2.83-2.75-4.16-6-5.17-9.7-3.31-12.14-2.17-25.53-1.29-32.34-.68-2.33-2.1-6.05-5.17-9.7-4.7-5.58-10.44-7.67-12.93-8.41,0-1.87,.2-4.64,1.29-7.76,1.44-4.12,3.73-6.9,5.17-8.41,1.47-1.26,3.85-2.97,7.11-3.88,2.15-.6,3.68-.58,5.17-.65,2.59-.12,10.07-1.65,17.46-4.53,2.6-1.01,5.94-2.47,9.7-4.53,.34-3.24,.58-6.69,.65-10.35,.03-1.55,.03-3.06,0-4.53Z"/>
      <path class="cls-23" d="M560.12,740.86c0,.53,0,1.2-.01,2.09,0,1.38,0,2.5,0,3.23-.51,1.39-1.14,2.92-1.94,4.53-.85,1.71-1.73,3.22-2.59,4.53,.51,.99,1.15,2.09,1.94,3.23,.88,1.27,1.76,2.34,2.59,3.23v34.92c-2.73-7.63-6.62-16.28-12.29-25.22-1.91-3.02-3.87-5.82-5.82-8.41-2.05-.51-4.21-1.15-6.47-1.94-5.37-1.89-9.9-4.22-13.58-6.47-.95-.94-2.22-2.43-3.23-4.53-.7-1.46-1.08-2.82-1.29-3.88-.37-1.99-.66-4.39-.65-7.11,.01-3.9,.63-7.2,1.29-9.7,.22-.86,.43-1.72,.65-2.59,.04-.12,.38-.98,1.29-1.29,.59-.2,1.1-.06,1.29,0,.33-.26,1.07-.76,1.94-.65,1.36,.17,2.59,1.75,2.59,3.88l1.94,11.64c.85,.61,1.71,1.26,2.59,1.94,1.39,1.09,2.68,2.17,3.88,3.23-.74-1.45-1.6-2.97-2.59-4.53-.43-.67-.86-1.32-1.29-1.94-.16-1.23-.37-2.53-.65-3.88-.38-1.87-.82-3.6-1.29-5.17,0-.49,.05-1.67,.65-1.94,.7-.32,2.05,.65,3.23,2.59,.43,1.29,.86,2.59,1.29,3.88s.86,2.59,1.29,3.88c1.61,1.28,3.34,2.58,5.17,3.88,1.99,1.41,3.94,2.7,5.82,3.88h1.94c.92-.39,2.07-.99,3.23-1.94,2.23-1.81,3.35-3.93,3.88-5.17v-4.53c.05-.25,.46-1.97,1.94-2.59,.32-.13,1.22-.5,1.94,0,.55,.39,.8,1.15,.65,1.94-.17,.85-.1,1.5,0,1.94,.18,.79,.66,4.58,.66,5.02Z"/>
      <path class="cls-25" d="M519.37,616.2c.79,2.57,2.74,7.96,4.53,12.93,4.34,12.07,8.95,24.67,18.11,38.16,1.78,2.62,4.57,6.51,8.41,10.99-3.57-1.12-7.78-2.75-12.29-5.17-3.55-1.91-6.56-3.93-9.05-5.82-1.75-3.12-4.07-7.51-6.47-12.93-5.57-12.58-7.92-22.47-8.41-24.58-.9-3.88-1.93-9.15-2.59-15.52,2.8,1.08,4.96,.86,7.76,1.94Z"/>
      <path class="cls-20" d="M545.88,768.82v60.14c.14,2.73,.35,6.75,.65,11.64,.33,5.48,.5,8.22,.65,9.7,.81,8.2,3.51,20.11,5.82,20.05,2.13-.06,3.6-10.02,4.53-18.75,.23-3.44,.44-6.88,.65-10.35,.89-15.1,1.53-29.98,1.94-44.62-1.42-4.53-3.47-9.84-6.47-15.52-2.55-4.83-5.25-8.92-7.76-12.29Z"/>
      <path class="cls-17" d="M486.39,615.55c-2.82-1.84-6.07-1.7-7.76,0-1.07,1.08-1.26,2.52-1.29,3.23,1.06,.04,2.68-.04,4.53-.65,2.17-.71,3.68-1.84,4.53-2.59Z"/>
      <path class="cls-24" d="M484.17,681.04c.32-4.99,.63-10.01,.92-15.05,.74-12.64,.74-24.5,1.29-36.86-1.08-.22-2.59-1.29-2.59-1.29-.15,2-.37,4.91-.65,8.41-.19,2.34-1.5,18.92-2.59,29.75-.4,3.93-.92,8.67-1.62,14.17,1.64,.86,3.42,1.06,5.23,.88Z"/>
      <path class="cls-28" d="M478.94,680.16c-.87,6.83-2.02,14.84-3.55,23.99,.29,.35,1.36,1.57,3.23,1.94,1.98,.39,3.5-.43,3.88-.65,.59-8.07,1.14-16.21,1.66-24.4-1.8,.18-3.58-.02-5.23-.88Z"/>
      <path class="cls-24" d="M518.75,680.61c-.26-5-.53-10.01-.82-15.05-.72-12.64-4.16-48.65-5.03-61,0,0-1.29,1.29-2.59,1.94,.08,2,2.13,26.22,2.26,29.73,.09,2.35,.7,18.97,.86,29.85,.06,3.95,.09,8.72,.02,14.26,1.73,.66,3.52,.66,5.29,.27Z"/>
      <path class="cls-28" d="M513.46,680.34c-.08,6.89-.3,14.98-.76,24.24,.33,.32,1.53,1.4,3.44,1.55,2.01,.16,3.43-.83,3.78-1.09-.35-8.08-.74-16.23-1.16-24.43-1.77,.39-3.56,.39-5.29-.27Z"/>
      <path class="cls-20" d="M435.94,756.53c2.17,1.5,4.62,3.41,7.11,5.82,3.06,2.96,5.38,5.89,7.11,8.41v42.68c.05,2.75,.09,6.77,0,11.64-.12,6.24-.18,9.71-.65,13.58-.79,6.59-3.13,17.52-5.17,17.46-2-.06-3.47-10.61-5.17-32.34-1.29-16.51-2.7-39.37-3.23-67.26Z"/>
      <path class="cls-23" d="M450.17,770.76c-1.6-2.33-3.72-5.02-6.47-7.76-2-2-4.57-4.26-7.76-6.47-1.08-.86-2.16-1.72-3.23-2.59-2.75,.16-5.78,.18-9.05,0-5.15-.29-9.71-1.05-13.58-1.94-1.72-1.94-3.45-3.88-5.17-5.82-1.72-.65-3.45-1.29-5.17-1.94-1.91-1.29-3.85-2.59-5.82-3.88-3.04-2-6.06-3.94-9.05-5.82-.15-.39-.42-1.29,0-1.94,.61-.94,2.56-1.2,4.53,0-.23-.72,.03-1.52,.65-1.94,.58-.4,1.35-.4,1.94,0,1.6,.51,3.34,1.14,5.17,1.94,1.93,.84,3.65,1.72,5.17,2.59-.22-2.37-.43-4.74-.65-7.11-.07-.88,.16-1.71,.65-1.94,.64-.3,1.92,.34,2.59,1.94,.22,.86,.43,1.72,.65,2.59,.65,1.94,1.29,3.88,1.94,5.82v-5.82c.6-1.23,1.15-1.29,1.29-1.29,.93-.02,1.72,1.89,1.94,3.23,.13,.81,.07,1.49,0,1.94l3.88,1.94,3.88,1.94c1.94,.22,3.88,.43,5.82,.65,1.17,.15,2.77,.49,4.53,1.29,2.57,1.18,4.25,2.82,5.17,3.88,5.17,2.8,10.35,5.6,15.52,8.41,.22,6.04,.43,12.07,.65,18.11Z"/>
      <path class="cls-26" d="M476.04,508.84c-4.28,1.23-8.38,2.54-12.29,3.88,1.29-2.04,2.62-4.41,3.88-7.11,1.42-3.03,2.46-5.88,3.23-8.41-1.66,1.46-3.6,3-5.82,4.53-2.76,1.89-5.4,3.37-7.76,4.53-17.03,2.59-34.06,5.17-51.09,7.76-17.03-2.59-34.06-5.17-51.09-7.76-2.36-1.16-5-2.64-7.76-4.53-2.22-1.52-4.16-3.07-5.82-4.53,.78,2.53,1.82,5.37,3.23,8.41,1.26,2.7,2.59,5.07,3.88,7.11-3.91-1.34-8.01-2.65-12.29-3.88-7.47-2.15-14.62-3.85-21.34-5.17,3.43,2.77,7.09,5.59,10.99,8.41,2.85,2.06,5.66,4,8.41,5.82,1.99,3.79,4.88,8.35,9.05,12.93,7.84,8.61,16.46,13.17,21.99,15.52,2.84,3.56,5.77,7.85,8.41,12.93,7.89,15.2,9.12,29.76,9.05,38.8-2.08,1.1-4.94,2.92-7.76,5.82-2.51,2.58-4.14,5.16-5.17,7.11,.37,2.56,1.38,7.06,4.53,11.64,4.68,6.8,11.12,9.47,13.58,10.35,5,.39,10.18,.61,15.52,.65,.87,0,1.73,0,2.59,0,.86,0,1.72,0,2.59,0,5.34-.03,10.52-.26,15.52-.65,2.46-.88,8.9-3.55,13.58-10.35,3.15-4.58,4.16-9.08,4.53-11.64-1.03-1.95-2.66-4.53-5.17-7.11-2.82-2.9-5.69-4.72-7.76-5.82-.07-9.04,1.17-23.6,9.05-38.8,2.64-5.09,5.57-9.38,8.41-12.93,5.53-2.35,14.15-6.91,21.99-15.52,4.17-4.58,7.06-9.15,9.05-12.93,2.75-1.82,5.56-3.76,8.41-5.82,3.9-2.82,7.56-5.63,10.99-8.41-6.73,1.33-13.87,3.02-21.34,5.17Z"/>
      <path class="cls-26" d="M388.09,633.01c.36,1.1,1.23,3.22,3.23,5.17,2.24,2.18,4.69,2.95,5.82,3.23h18.11c1.33-.76,2.91-1.8,4.53-3.23,2.06-1.82,3.52-3.68,4.53-5.17h-36.22Z"/>
      <path class="cls-15" d="M421.07,534.06c6.47-3.02,12.93-6.04,19.4-9.05-1.3,2.26-3.17,5-5.82,7.76-1.8,1.87-3.58,3.36-5.17,4.53h-6.47c-.65-1.08-1.29-2.16-1.94-3.23Z"/>
      <path class="cls-15" d="M413.95,624.6c-.63-.43-.41-1.83,0-4.53,.3-1.95,.85-3.5,1.29-4.53,.6-1.13,1.44-2.48,2.59-3.88,1.13-1.37,2.26-2.43,3.23-3.23,1.07-.29,2.38-.55,3.88-.65,.94-.06,1.81-.05,2.59,0-.29,1.48-.84,3.54-1.94,5.82-3.38,6.99-10.07,12.07-11.64,10.99Z"/>
      <path class="cls-33" d="M435.94,500.44c-2.08,1.98-4.29,4.34-6.47,7.11-4.38,5.59-7.21,11.07-9.05,15.52-.25,.71-.5,1.58-.65,2.59-.23,1.55-.14,2.89,0,3.88,2.35-1.24,4.72-2.54,7.11-3.88,7.14-4.02,13.82-8.14,20.05-12.29,4.76-4.07,9.79-8.79,14.87-14.23,7.39-7.89,13.34-15.63,18.11-22.63h-3.23c-6.74,5.61-13.66,11.64-20.69,18.11-6.65,6.12-12.9,12.18-18.75,18.11,.67-2.05,1.32-4.2,1.94-6.47,.48-1.77,.91-3.5,1.29-5.17-1.51-.22-3.02-.43-4.53-.65Z"/>
      <path class="cls-15" d="M391.57,533.42c-6.47-3.02-12.93-6.04-19.4-9.05,1.3,2.26,3.17,5,5.82,7.76,1.8,1.87,3.58,3.36,5.17,4.53,2.16,0,4.31,0,6.47,0,.65-1.08,1.29-2.16,1.94-3.23Z"/>
      <path class="cls-15" d="M398.69,623.96c.63-.43,.41-1.83,0-4.53-.3-1.95-.85-3.5-1.29-4.53-.6-1.13-1.44-2.48-2.59-3.88-1.13-1.37-2.26-2.43-3.23-3.23-1.07-.29-2.38-.55-3.88-.65-.94-.06-1.81-.05-2.59,0,.29,1.48,.84,3.54,1.94,5.82,3.38,6.99,10.07,12.07,11.64,10.99Z"/>
      <path class="cls-33" d="M376.7,499.79c2.08,1.98,4.29,4.34,6.47,7.11,4.38,5.59,7.21,11.07,9.05,15.52,.25,.71,.5,1.58,.65,2.59,.23,1.55,.14,2.89,0,3.88-2.35-1.24-4.72-2.54-7.11-3.88-7.14-4.02-13.82-8.14-20.05-12.29-4.76-4.07-9.79-8.79-14.87-14.23-7.39-7.89-13.34-15.63-18.11-22.63h3.23c6.74,5.61,13.66,11.64,20.69,18.11,6.65,6.12,12.9,12.18,18.75,18.11-.67-2.05-1.32-4.2-1.94-6.47-.48-1.77-.91-3.5-1.29-5.17,1.51-.22,3.02-.43,4.53-.65Z"/>
      <path class="cls-33" d="M391.32,488.79c1.16-5.26,2.98-12.41,5.82-20.69,2.97-8.65,5.82-16.98,11.64-26.52,3.35-5.49,8.66-12.98,16.81-20.69,6.73-1.47,14.55-2.71,23.28-3.23,13.63-.82,25.51,.32,34.92,1.94,1.51-2.22,3.03-4.59,4.53-7.11,.91-1.53,1.78-3.04,2.59-4.53,.17-.23,1.12-1.56,.65-2.59-.43-.94-1.81-1.11-3.23-1.29-1.1-.14-2.01-.07-2.59,0-5,.1-11.46,.69-18.75,2.59-6.89,1.79-12.54,4.24-16.81,6.47,1.54-2.7,3.26-5.51,5.17-8.41,2.17-3.28,4.34-6.3,6.47-9.05,1.02-.88,1.46-1.53,1.29-1.94-.29-.73-2.44-.73-6.47,0-3.97,1.37-8.98,3.56-14.23,7.11-8.06,5.46-13.19,11.79-16.17,16.17,.5-4.16,.94-8.47,1.29-12.93,.28-3.54,.49-6.99,.65-10.35,.17-.53,.62-2.06,0-2.59-.68-.57-2.52,.13-4.53,1.94-3.55,4.77-7.54,11.01-10.99,18.75-4.8,10.76-6.84,20.56-7.76,27.81-1.38-4.88-2.69-10.06-3.88-15.52-1.74-7.99-2.99-15.57-3.88-22.63-.33-1.2-.76-1.85-1.29-1.94-1.09-.19-2.6,1.96-4.53,6.47-.39,6.4-.62,13.09-.65,20.05-.05,13.7,.71,26.47,1.94,38.16-1.44-1.16-3.44-3.04-5.17-5.82-1.37-2.19-2.14-4.26-2.59-5.82-.43-1.3-.86-1.94-1.29-1.94-.65,0-1.3,1.51-1.94,4.53,.5,4.82,1.45,10.53,3.23,16.81,1.89,6.65,4.23,12.28,6.47,16.81Z"/>
      <ellipse class="cls-26" cx="579.84" cy="544.41" rx="4.2" ry="5.17"/>
      <ellipse class="cls-26" cx="588.24" cy="544.41" rx="4.2" ry="5.17"/>
      <ellipse class="cls-26" cx="596.65" cy="544.41" rx="4.2" ry="5.17"/>
      <ellipse class="cls-26" cx="605.06" cy="544.41" rx="4.2" ry="5.17"/>
      <path class="cls-33" d="M379.68,552.82c-1.79-.72-3.95-1.43-6.47-1.94-3.8-.77-7.15-.81-9.7-.65-2.08,1.36-7.98,4.81-16.17,4.53-1.51-.05-9.59-.46-16.81-6.47-10.54-8.77-10.4-22.11-10.35-23.93-.34-1.42-1.59-5.84-5.82-9.05-6.14-4.67-13.34-2.83-14.23-2.59-.95,.59-1.47,1.63-1.29,2.59,.23,1.27,1.01,1.61,2.59,1.29,1.82,.11,5.98,.58,8.41,2.59,2.7,2.23,5.17,6.47,5.17,6.47,.65,16.81,5.2,25.89,10.35,31.04,7.02,7.02,18.23,6.62,22.63,6.47,7.72-.27,13.62-2.84,16.81-4.53,2.31-.18,5.45-.16,9.05,.65,1.14,.26,2.19,.56,3.16,.89,2.29,.78,4.71-.98,4.61-3.4,0-.03,0-.05,0-.08-.13-2.28-1.66-3.64-1.94-3.88Z"/>
      <path class="cls-33" d="M429.45,552.82c1.79-.72,3.95-1.43,6.47-1.94,3.8-.77,7.15-.81,9.7-.65,2.08,1.36,7.98,4.81,16.17,4.53,1.51-.05,9.59-.46,16.81-6.47,10.54-8.77,10.4-22.11,10.35-23.93,.34-1.42,1.59-5.84,5.82-9.05,6.14-4.67,13.34-2.83,14.23-2.59,.95,.59,1.47,1.63,1.29,2.59-.23,1.27-1.01,1.61-2.59,1.29-1.82,.11-5.98,.58-8.41,2.59-2.7,2.23-5.17,6.47-5.17,6.47-.65,16.81-5.2,25.89-10.35,31.04-7.02,7.02-18.23,6.62-22.63,6.47-7.72-.27-13.62-2.84-16.81-4.53-2.31-.18-5.45-.16-9.05,.65-1.14,.26-2.19,.56-3.16,.89-2.29,.78-4.71-.98-4.61-3.4,0-.03,0-.05,0-.08,.13-2.28,1.66-3.64,1.94-3.88Z"/>
      <path class="cls-10" d="M642.26,686.11c-1.96-.06-4.33-.29-6.98-.87-2.28-.5-4.26-1.17-5.92-1.83-2.53-6.4-3.29-17.64-3.17-20.57-.09,2.98-.44,6.61-1.33,10.65-.85,3.86-2,7.15-3.13,9.83-1.53,.58-3.3,1.15-5.3,1.59-2.65,.59-5.03,.81-6.98,.87,1.76-.07,8.08,.34,12.36,1.68,1.1,2.65,2.22,5.88,3.05,9.65,.89,4.04,1.24,7.67,1.33,10.65-.12-2.8,.57-13.16,2.83-19.67,4.23-1.59,11.36-2.06,13.24-1.98Z"/>
      <path class="cls-10" d="M552.22,230.61c-1.96-.06-4.33-.29-6.98-.87-2.28-.5-4.26-1.17-5.92-1.83-2.53-6.4-3.29-17.64-3.17-20.57-.09,2.98-.44,6.61-1.33,10.65-.85,3.86-2,7.15-3.13,9.83-1.53,.58-3.3,1.15-5.3,1.59-2.65,.59-5.03,.81-6.98,.87,1.76-.07,8.08,.34,12.36,1.68,1.1,2.65,2.22,5.88,3.05,9.65,.89,4.04,1.24,7.67,1.33,10.65-.12-2.8,.57-13.16,2.83-19.67,4.23-1.59,11.36-2.06,13.24-1.98Z"/>
      <path class="cls-10" d="M83.49,525.53c-3.69-.11-8.17-.54-13.17-1.65-4.3-.95-8.05-2.2-11.18-3.46-4.78-12.08-6.21-33.28-5.98-38.81-.17,5.63-.83,12.47-2.51,20.09-1.61,7.27-3.77,13.49-5.9,18.55-2.88,1.1-6.22,2.16-10,3-5,1.11-9.48,1.53-13.17,1.65,3.32-.14,15.25,.63,23.31,3.17,2.08,5,4.18,11.1,5.75,18.21,1.69,7.62,2.34,14.46,2.51,20.09-.22-5.27,1.07-24.83,5.34-37.1,7.98-2.99,21.43-3.89,24.98-3.74Z"/>
      <path class="cls-8" d="M483.46,269.45c0,13.45-10.9,24.35-24.35,24.35-13.45,0-24.35-10.9-24.35-24.35s10.9-24.35,24.35-24.35c13.45,0,24.35,10.9,24.35,24.35Z"/>
      <circle class="cls-8" cx="631.91" cy="450.35" r="13.04"/>
      <circle class="cls-15" cx="407.41" cy="343.6" r="13.04"/>
      <path class="cls-18" d="M596.42,382.87c-1.53-.05-3.39-.22-5.46-.68-1.78-.39-3.33-.91-4.63-1.43-1.98-5.01-2.58-13.8-2.48-16.09-.07,2.33-.34,5.17-1.04,8.33-.67,3.02-1.56,5.59-2.44,7.69-1.19,.46-2.58,.9-4.15,1.24-2.07,.46-3.93,.63-5.46,.68,1.37-.06,6.32,.26,9.66,1.31,.86,2.07,1.73,4.6,2.39,7.55,.7,3.16,.97,5.99,1.04,8.33-.09-2.19,.44-10.29,2.21-15.38,3.31-1.24,8.88-1.61,10.36-1.55Z"/>
      <path class="cls-26" d="M492.52,354.38c-1.08-.03-2.38-.16-3.84-.48-1.25-.28-2.35-.64-3.26-1.01-1.39-3.52-1.81-9.7-1.74-11.31-.05,1.64-.24,3.63-.73,5.86-.47,2.12-1.1,3.93-1.72,5.41-.84,.32-1.81,.63-2.92,.87-1.46,.32-2.76,.45-3.84,.48,.97-.04,4.44,.18,6.8,.92,.61,1.46,1.22,3.24,1.68,5.31,.49,2.22,.68,4.21,.73,5.86-.07-1.54,.31-7.24,1.56-10.81,2.33-.87,6.25-1.13,7.28-1.09Z"/>
      <path class="cls-26" d="M311.5,391.23c-1.08-.03-2.38-.16-3.84-.48-1.25-.28-2.35-.64-3.26-1.01-1.39-3.52-1.81-9.7-1.74-11.31-.05,1.64-.24,3.63-.73,5.86-.47,2.12-1.1,3.93-1.72,5.41-.84,.32-1.81,.63-2.92,.87-1.46,.32-2.76,.45-3.84,.48,.97-.04,4.44,.18,6.8,.92,.61,1.46,1.22,3.24,1.68,5.31,.49,2.22,.68,4.21,.73,5.86-.07-1.54,.31-7.24,1.56-10.81,2.33-.87,6.25-1.13,7.28-1.09Z"/>
      <path class="cls-26" d="M358.22,270.66c-1.08-.03-2.38-.16-3.84-.48-1.25-.28-2.35-.64-3.26-1.01-1.39-3.52-1.81-9.7-1.74-11.31-.05,1.64-.24,3.63-.73,5.86-.47,2.12-1.1,3.93-1.72,5.41-.84,.32-1.81,.63-2.92,.87-1.46,.32-2.76,.45-3.84,.48,.97-.04,4.44,.18,6.8,.92,.61,1.46,1.22,3.24,1.68,5.31,.49,2.22,.68,4.21,.73,5.86-.07-1.54,.31-7.24,1.56-10.81,2.33-.87,6.25-1.13,7.28-1.09Z"/>
      <path class="cls-26" d="M92.08,415.49c-2.22-.07-4.92-.33-7.93-.99-2.59-.57-4.85-1.33-6.73-2.08-2.88-7.27-3.74-20.05-3.6-23.38-.11,3.39-.5,7.51-1.51,12.1-.97,4.38-2.27,8.13-3.55,11.17-1.73,.66-3.75,1.3-6.02,1.81-3.01,.67-5.71,.92-7.93,.99,2-.08,9.18,.38,14.04,1.91,1.25,3.01,2.52,6.69,3.47,10.97,1.02,4.59,1.41,8.71,1.51,12.1-.13-3.18,.64-14.96,3.22-22.35,4.81-1.8,12.91-2.34,15.05-2.25Z"/>
      <path class="cls-15" d="M455.29,695.12c6.42,1.11,11.25,5.85,14.38,11.32,.24,.42,.89,.04,.65-.38-3.22-5.62-8.23-10.53-14.83-11.67-.47-.08-.67,.64-.2,.72h0Z"/>
      <path class="cls-15" d="M471.3,709.08c.27,.75,.58,1.49,.95,2.19,.09,.17,.35,.24,.51,.13,.18-.12,.23-.33,.13-.51-.35-.69-.62-1.3-.87-2.02-.07-.18-.26-.33-.46-.26-.18,.06-.33,.26-.26,.46h0Z"/>
      <path class="cls-15" d="M474.19,717c-.54,6.1-1.06,12.25-1.16,18.38-.09,5.24,.34,10.68,2.7,15.45,1.9,3.84,5.03,7.22,9.12,8.7,5.01,1.81,10.73,.42,15.62-1.16,5.46-1.76,10.6-4.51,14.78-8.49,.35-.33-.18-.86-.53-.53-3.62,3.45-7.99,5.97-12.67,7.69s-10.56,3.42-15.67,2.17c-4.4-1.08-7.78-4.49-9.82-8.42-2.37-4.58-2.83-9.87-2.77-14.94,.08-6.28,.62-12.58,1.17-18.84,.04-.48-.71-.48-.75,0h0Z"/>
      <path class="cls-15" d="M534.02,727.67c5.83-9.29,12.43-18.2,20.97-25.19,.37-.31-.16-.83-.53-.53-8.58,7.02-15.23,16-21.09,25.34-.26,.41,.39,.79,.65,.38h0Z"/>
      <path class="cls-15" d="M558.27,699.73c2.94-1.83,6.2-3.05,9.62-3.6,.48-.08,.27-.8-.2-.72-3.48,.55-6.81,1.81-9.8,3.67-.41,.26-.03,.9,.38,.65h0Z"/>
      <path class="cls-15" d="M500.3,659.34c1.47,1.32,2.69,2.86,3.64,4.59,.23,.42,.88,.05,.65-.38-.97-1.78-2.25-3.39-3.76-4.74-.36-.32-.89,.21-.53,.53h0Z"/>
      <path class="cls-15" d="M504.79,666.44c.53,1.59,1.07,3.19,1.6,4.78,.15,.46,.88,.26,.72-.2l-1.6-4.78c-.15-.46-.88-.26-.72,.2h0Z"/>
      <path class="cls-15" d="M512.55,661.67c-.95,3.07-1.46,6.25-1.53,9.46-.01,.48,.74,.48,.75,0,.07-3.14,.58-6.25,1.51-9.26,.14-.46-.58-.66-.72-.2h0Z"/>
      <path class="cls-15" d="M499.84,670.78c1,.65,2.07,1.17,3.19,1.59,.19,.07,.41-.08,.46-.26,.06-.21-.07-.39-.26-.46-1.06-.39-2.06-.9-3.01-1.51-.17-.11-.41-.03-.51,.13-.11,.18-.04,.4,.13,.51h0Z"/>
      <path class="cls-15" d="M507.59,673.91c2.07,.27,4.17,.15,6.21-.34,.47-.11,.27-.84-.2-.72-1.97,.47-4,.57-6.01,.31-.2-.03-.37,.19-.38,.38,0,.22,.17,.35,.38,.38h0Z"/>
      <path class="cls-15" d="M519.85,671.97c3.04-1.02,5.85-2.58,8.32-4.61,.37-.31-.16-.83-.53-.53-2.37,1.95-5.09,3.45-7.99,4.42-.46,.15-.26,.88,.2,.72h0Z"/>
      <path class="cls-15" d="M528.07,729.96c.47,3.04,1.06,6.06,1.8,9.05,.11,.47,.84,.27,.72-.2-.73-2.99-1.33-6.01-1.8-9.05-.07-.48-.8-.27-.72,.2h0Z"/>
      <path class="cls-15" d="M529.73,738.84c.51,2.02,1.73,3.72,3.03,5.31,1.47,1.81,3.06,3.53,4.72,5.16,.35,.34,.88-.19,.53-.53-1.58-1.54-3.07-3.16-4.48-4.86-1.3-1.58-2.57-3.26-3.08-5.28-.12-.47-.84-.27-.72,.2h0Z"/>
      <path class="cls-15" d="M521.57,725.42c-.51,5.41-.33,10.86,.52,16.23,.07,.48,.8,.27,.72-.2-.84-5.3-.99-10.69-.49-16.03,.05-.48-.7-.48-.75,0h0Z"/>
      <path class="cls-15" d="M522.41,743.16c2.2,4.11,6.47,6.32,10.48,8.3,.43,.21,.81-.43,.38-.65-3.9-1.93-8.08-4.03-10.21-8.03-.23-.43-.88-.05-.65,.38h0Z"/>
      <path class="cls-15" d="M518.25,727.88c-.64,5.25-.69,10.54-.14,15.8,.05,.48,.8,.48,.75,0-.55-5.26-.5-10.55,.14-15.8,.06-.48-.69-.47-.75,0h0Z"/>
      <path class="cls-15" d="M518.07,743.89c2.51,3.99,6.04,7.29,10.2,9.53,.43,.23,.8-.42,.38-.65-4.05-2.17-7.48-5.37-9.93-9.26-.26-.41-.91-.03-.65,.38h0Z"/>
      <path class="cls-15" d="M409.31,729.77c1.87,3.09,1.58,6.86,1.28,10.31-.04,.48,.71,.48,.75,0,.32-3.59,.57-7.48-1.38-10.68-.25-.41-.9-.04-.65,.38h0Z"/>
      <path class="cls-15" d="M410.8,740.44c.44,.58,1.02,.95,1.63,1.34s1.16,.8,1.69,1.27c1.05,.95,1.93,2.06,2.61,3.3,.23,.42,.88,.05,.65-.38-.68-1.24-1.55-2.36-2.59-3.32-.52-.48-1.07-.92-1.66-1.31s-1.25-.71-1.68-1.28c-.29-.38-.94,0-.65,.38h0Z"/>
      <path class="cls-15" d="M422.65,745.71c3.56-1.1,7.68,.27,9.82,3.32,.28,.39,.93,.02,.65-.38-2.34-3.33-6.78-4.88-10.67-3.67-.46,.14-.26,.87,.2,.72h0Z"/>
      <path class="cls-15" d="M406.8,735.12c-.01,2.19-.02,4.39-.03,6.58,0,.48,.75,.48,.75,0,.01-2.19,.02-4.39,.03-6.58,0-.48-.75-.48-.75,0h0Z"/>
      <path class="cls-15" d="M406.85,742.08c1.17,1.37,2.35,2.73,3.54,4.07,.6,.67,1.19,1.36,1.8,2.01,.22,.23,.59,.46,.85,.14,.21-.26,.05-.6-.24-.7-.17-.06-.33,.04-.42,.17l-.02,.03c-.28,.4,.37,.77,.65,.38l.02-.03-.42,.17-.19-.18,.04-.29-.02,.03,.32-.19c.08,0,.04,.02-.03-.07-.05-.06-.11-.12-.16-.18-.12-.14-.25-.27-.37-.41-.23-.26-.46-.52-.7-.78-.46-.52-.92-1.04-1.38-1.56-.92-1.04-1.83-2.1-2.73-3.15-.31-.37-.84,.16-.53,.53h0Z"/>
      <path class="cls-15" d="M401.55,734.45c.26,2.63,.57,5.25,.94,7.86,.07,.48,.79,.27,.72-.2-.36-2.55-.66-5.1-.92-7.66-.05-.48-.8-.48-.75,0h0Z"/>
      <path class="cls-15" d="M402.51,742.44c1.19,2.71,2.83,5.21,4.84,7.38,.33,.36,.86-.18,.53-.53-1.97-2.13-3.56-4.58-4.72-7.23-.19-.44-.84-.06-.65,.38h0Z"/>
      <path class="cls-15" d="M389.11,732.51c3.91,1.88,7.56,4.25,10.85,7.08,.36,.31,.9-.22,.53-.53-3.34-2.87-7.04-5.29-11-7.2-.43-.21-.81,.44-.38,.65h0Z"/>
      <path class="cls-15" d="M400.42,739.72c.08-.03,.17-.05,.25-.07,.04,0,.09-.02,.13-.02-.09,.01,.05,0,.06,0,.08,0,.15,0,.23,0,.04,0,.09,0,.13,0,.02,0,.15,.02,.06,0,.16,.02,.32,.06,.48,.12,.01,0,.14,.06,.06,.02,.04,.02,.08,.04,.12,.06,.08,.04,.15,.09,.23,.13,.16,.11,.42,.04,.51-.13,.1-.19,.04-.4-.13-.51-.68-.45-1.56-.57-2.33-.32-.19,.06-.33,.26-.26,.46,.06,.19,.26,.33,.46,.26h0Z"/>
      <path class="cls-15" d="M410.45,739.76c1.44,.49,2.87,.99,4.31,1.48,1.35,.46,2.7,.98,4.15,.76,.48-.07,.27-.8-.2-.72-1.38,.21-2.78-.43-4.06-.87s-2.67-.92-4-1.38c-.46-.16-.65,.57-.2,.72h0Z"/>
      <path class="cls-15" d="M530.57,672.46c6.77,5.08,14.84,8.18,23.26,8.99,.48,.05,.48-.7,0-.75-8.29-.8-16.22-3.89-22.88-8.89-.39-.29-.76,.36-.38,.65h0Z"/>
      <path class="cls-15" d="M555.91,681.64c-4.02,1.78-7.32,5.05-9.14,9.05-.2,.44,.45,.82,.65,.38,1.78-3.9,4.95-7.04,8.87-8.78,.44-.2,.06-.84-.38-.65h0Z"/>
      <path class="cls-15" d="M469.25,682.47c.5,4.73,1.25,9.44,2.25,14.09,.1,.47,.82,.27,.72-.2-.99-4.59-1.73-9.22-2.22-13.89-.05-.48-.8-.48-.75,0h0Z"/>
      <path class="cls-28" d="M479.07,678.42c1.77,.92,3.8,1.2,5.75,.8,.47-.1,.27-.82-.2-.72-1.75,.36-3.59,.1-5.17-.72-.43-.22-.81,.42-.38,.65h0Z"/>
      <path class="cls-28" d="M479.33,676.65c1.86,.69,3.88,.83,5.82,.44,.47-.1,.27-.82-.2-.72-1.81,.37-3.69,.21-5.42-.44-.45-.17-.65,.56-.2,.72h0Z"/>
      <path class="cls-28" d="M513.88,678.83c1.89,.31,3.8,.24,5.66-.22,.47-.12,.27-.84-.2-.72-1.72,.43-3.51,.51-5.26,.22-.47-.08-.68,.64-.2,.72h0Z"/>
      <path class="cls-28" d="M513.43,676.68c1.94,.57,4.05,.49,5.94-.24,.45-.17,.25-.9-.2-.72-1.78,.69-3.72,.77-5.54,.24-.46-.14-.66,.59-.2,.72h0Z"/>
      <path class="cls-15" d="M509.43,598.31c1.07-1.59,2.36-3.02,3.82-4.26,.37-.31-.16-.84-.53-.53-1.51,1.28-2.83,2.77-3.93,4.42-.27,.4,.38,.78,.65,.38h0Z"/>
      <path class="cls-15" d="M510.02,597.52c.32-.23,.72-.23,1.06-.04,.38,.21,.6,.61,.63,1.04,.08,1.1-.74,1.93-1.53,2.57-.16,.13-.13,.4,0,.53,.16,.16,.37,.13,.53,0,1.04-.85,1.98-2.03,1.7-3.46-.12-.6-.51-1.14-1.08-1.39s-1.2-.26-1.69,.11c-.16,.12-.24,.33-.13,.51,.09,.16,.35,.25,.51,.13h0Z"/>
      <path class="cls-31" d="M480.57,603.91c1.14-.79,2.74-1.72,4.8-2.4,3.34-1.1,6.27-1,8.01-.8,1.33-1.33,2.67-2.67,4-4-1.87,.53-3.74,1.07-5.6,1.6-.86-.17-3.51-.58-6.41,.8-3.09,1.48-4.44,4.04-4.8,4.8Z"/>
      <path class="cls-31" d="M475.89,605.27c-.99-.06-2.31-.02-3.74,.36-2.33,.62-3.86,1.86-4.69,2.68-1.36-.33-2.72-.66-4.08-.99,1.26-.4,2.52-.8,3.79-1.2,.38-.46,1.61-1.78,3.83-2.04,2.37-.28,4.33,.84,4.9,1.19Z"/>
      <path class="cls-31" d="M480.57,594.86c.61-.37,1.49-.84,2.59-1.29,1.13-.46,2.86-1.15,5.17-1.29,2.05-.13,3.82,.22,5.17,.65-1.45-1.07-3.93-2.5-7.11-2.59-1.24-.03-4.82-.13-5.82,1.94-.44,.92-.22,1.94,0,2.59Z"/>
      <path class="cls-31" d="M474.11,597.54c-.62-.04-1.48-.06-2.49,.05-1.03,.11-2.6,.29-4.28,1.19-1.49,.8-2.53,1.87-3.24,2.83,.43-1.54,1.38-3.84,3.54-5.32,.84-.57,3.27-2.23,5.07-.93,.8,.58,1.2,1.54,1.39,2.18Z"/>
      <path class="cls-15" d="M477.31,610.79c.08-.72,.75-1.24,1.4-1.44,.95-.29,1.98-.04,2.92,.18,.47,.11,.67-.61,.2-.72-1.13-.26-2.39-.55-3.51-.12-.92,.35-1.65,1.1-1.76,2.1-.02,.2,.19,.38,.38,.38,.22,0,.35-.17,.38-.38h0Z"/>
      <path class="cls-18" d="M316.81,664.06c4.15-.94,8.45-.99,12.63-.16,.47,.09,.67-.63,.2-.72-4.31-.86-8.74-.8-13.03,.16-.47,.11-.27,.83,.2,.72h0Z"/>
      <path class="cls-18" d="M334.49,664.9c4.55,1.04,8.81,3.12,12.4,6.11,.37,.31,.9-.22,.53-.53-3.69-3.07-8.05-5.24-12.73-6.3-.47-.11-.67,.62-.2,.72h0Z"/>
      <path class="cls-18" d="M315.26,701.65c7.16-.98,14.44-.43,21.37,1.6,.46,.14,.66-.59,.2-.72-7.07-2.06-14.47-2.6-21.77-1.6-.48,.07-.27,.79,.2,.72h0Z"/>
      <path class="cls-18" d="M347.98,626.84c1.9,.78,3.38,2.23,4.79,3.69s2.72,2.85,4.02,4.32c2.63,3,5.01,6.28,6.35,10.07,.16,.45,.88,.26,.72-.2-1.39-3.92-3.82-7.3-6.54-10.4-1.4-1.59-2.86-3.14-4.34-4.66s-2.91-2.77-4.79-3.55c-.45-.18-.64,.54-.2,.72h0Z"/>
      <path class="cls-18" d="M312.92,667c3.91-1.28,8.02-1.77,12.12-1.46,.48,.04,.48-.71,0-.75-4.16-.32-8.35,.19-12.32,1.49-.46,.15-.26,.87,.2,.72h0Z"/>
      <path class="cls-18" d="M354.9,635.24c3.03,3.07,5.39,6.76,6.9,10.81,.17,.45,.89,.25,.72-.2-1.55-4.17-3.96-7.98-7.09-11.15-.34-.34-.87,.19-.53,.53h0Z"/>
      <path class="cls-18" d="M333.84,738.18c2.27-1.46,4.97-2.08,7.65-1.78,.48,.05,.48-.7,0-.75-2.8-.31-5.66,.37-8.03,1.89-.41,.26-.03,.91,.38,.65h0Z"/>
      <path class="cls-18" d="M500.57,509.06c13.86-1.69,26.95-6.71,39.89-11.74,.45-.17,.25-.9-.2-.72-12.86,5-25.9,10.03-39.69,11.71-.47,.06-.48,.81,0,.75h0Z"/>
      <path class="cls-18" d="M529.9,503.15c5.78-1.89,11.49-3.98,17.13-6.26,.44-.18,.25-.9-.2-.72-5.64,2.28-11.35,4.37-17.13,6.26-.46,.15-.26,.87,.2,.72h0Z"/>
      <path class="cls-18" d="M519.22,550.53c17.16,2.6,34.19-2.02,50.6-6.6,.46-.13,.27-.85-.2-.72-16.26,4.53-33.19,9.17-50.2,6.6-.47-.07-.68,.65-.2,.72h0Z"/>
      <path class="cls-18" d="M553.86,551.78c6.82-1.25,13.58-2.79,20.28-4.6,.47-.13,.27-.85-.2-.72-6.69,1.82-13.46,3.35-20.28,4.6-.47,.09-.27,.81,.2,.72h0Z"/>
      <path class="cls-18" d="M532.6,600.21c2.08-.29,4.37,.37,6.4,.76s4.16,.83,6.22,1.33c4.05,.97,8.05,2.13,11.99,3.47,.46,.16,.65-.57,.2-.72-4.24-1.44-8.54-2.68-12.91-3.68-2.14-.49-4.3-.94-6.46-1.32-1.84-.33-3.77-.81-5.64-.54-.48,.07-.27,.79,.2,.72h0Z"/>
      <path class="cls-18" d="M542.29,604.03c4.65,1.03,9.23,2.3,13.75,3.8,.46,.15,.66-.57,.2-.72-4.52-1.5-9.11-2.77-13.75-3.8-.47-.1-.67,.62-.2,.72h0Z"/>
      <g class="cls-13">
        <path class="cls-33" d="M395.22,634.93c6.65,.69,13.34,.7,19.99,.02,.48-.05,.48-.8,0-.75-6.65,.68-13.34,.67-19.99-.02-.48-.05-.48,.7,0,.75h0Z"/>
      </g>
      <g class="cls-13">
        <path class="cls-33" d="M400,636.43c4.1,.54,8.25,.45,12.33-.24,.47-.08,.27-.8-.2-.72-4.01,.68-8.1,.74-12.13,.21-.48-.06-.47,.69,0,.75h0Z"/>
      </g>
      <g class="cls-13">
        <path class="cls-33" d="M423.27,540.07c1.39,0,2.79,0,4.18,0,.48,0,.48-.75,0-.75-1.39,0-2.79,0-4.18,0-.48,0-.48,.75,0,.75h0Z"/>
      </g>
      <g class="cls-13">
        <path class="cls-33" d="M431.3,539.55c2.95-1.75,5.6-3.96,7.84-6.56,1.07-1.25,2.05-2.59,2.92-3.99,.99-1.6,1.89-3.27,3.24-4.6,.34-.34-.19-.87-.53-.53-1.21,1.2-2.09,2.65-2.96,4.1s-1.9,2.96-3.04,4.3c-2.23,2.63-4.88,4.87-7.85,6.63-.41,.25-.04,.89,.38,.65h0Z"/>
      </g>
      <g class="cls-13">
        <path class="cls-33" d="M437.28,539.67c7.33-8.04,16.53-14.24,26.75-17.98,.45-.16,.26-.89-.2-.72-10.34,3.79-19.66,10.03-27.08,18.17-.32,.36,.2,.89,.53,.53h0Z"/>
      </g>
      <g class="cls-13">
        <path class="cls-33" d="M444.07,536.9c3.19-3.23,6.74-6.09,10.59-8.49,1.83-1.14,3.71-2.18,5.65-3.12,1.09-.53,2.2-1.06,3.34-1.48,.7-.26,1.66-.58,2.33-.08,.92,.7,.42,1.77-.09,2.57-.26,.41,.39,.78,.65,.38,.54-.84,1.11-1.88,.58-2.87-.41-.78-1.31-1.11-2.15-1.08-1.3,.05-2.63,.8-3.8,1.33-1.31,.59-2.59,1.23-3.85,1.92-5.08,2.76-9.72,6.29-13.78,10.39-.34,.34,.19,.87,.53,.53h0Z"/>
      </g>
      <g class="cls-13">
        <path class="cls-33" d="M445.36,539.39c1.61-1.67,3.34-3.23,5.2-4.62s3.81-2.81,5.9-3.73c1.57-.69,2.17,.84,1.44,2.04-.55,.9-1.48,1.66-2.27,2.35-1.62,1.42-3.42,2.65-5.34,3.65-2.21,1.16-4.57,1.99-7.01,2.52l.36,.63c.39-.5,.81-.93,1.32-1.3,.39-.28,.01-.93-.38-.65-.56,.41-1.05,.87-1.47,1.42-.22,.29-.03,.71,.36,.63,4.97-1.06,9.61-3.47,13.32-6.94,1.16-1.09,3.43-3.44,1.49-4.97-.89-.7-2-.16-2.86,.31-1.21,.66-2.38,1.38-3.52,2.16-2.56,1.74-4.93,3.75-7.08,5.98-.34,.35,.19,.88,.53,.53h0Z"/>
      </g>
      <g class="cls-13">
        <path class="cls-33" d="M390,539.32h-4.18c-.48,0-.48,.75,0,.75h4.18c.48,0,.48-.75,0-.75h0Z"/>
      </g>
      <g class="cls-13">
        <path class="cls-33" d="M382.35,538.9c-2.97-1.76-5.62-4-7.85-6.63-1.11-1.31-2.08-2.72-2.97-4.19s-1.78-2.98-3.03-4.21c-.34-.34-.87,.19-.53,.53,1.32,1.31,2.21,2.93,3.18,4.5,.89,1.44,1.88,2.81,2.98,4.1,2.23,2.6,4.89,4.81,7.84,6.56,.42,.25,.79-.4,.38-.65h0Z"/>
      </g>
      <g class="cls-13">
        <path class="cls-33" d="M376.52,539.14c-7.42-8.14-16.74-14.38-27.08-18.17-.45-.17-.65,.56-.2,.72,10.22,3.74,19.42,9.93,26.75,17.98,.33,.36,.86-.17,.53-.53h0Z"/>
      </g>
      <g class="cls-13">
        <path class="cls-33" d="M369.74,536.37c-4.07-4.11-8.71-7.62-13.78-10.39-1.26-.69-2.55-1.33-3.85-1.92-1.11-.5-2.36-1.2-3.59-1.32-.85-.08-1.81,.18-2.29,.94-.64,1-.04,2.13,.52,3,.26,.41,.91,.03,.65-.38-.45-.7-.94-1.58-.39-2.4,.49-.73,1.79-.39,2.43-.17,1.15,.4,2.27,.94,3.36,1.46,2,.96,3.95,2.03,5.83,3.2,3.85,2.41,7.39,5.27,10.59,8.49,.34,.34,.87-.19,.53-.53h0Z"/>
      </g>
      <g class="cls-13">
        <path class="cls-33" d="M368.44,538.86c-1.87-1.94-3.91-3.72-6.1-5.29-1.15-.83-2.35-1.61-3.57-2.32-.91-.53-2.09-1.41-3.22-1.12-.85,.22-1.3,1.1-1.28,1.93,.02,1.06,.79,1.91,1.49,2.62,1.77,1.78,3.79,3.32,5.97,4.57,2.51,1.43,5.23,2.46,8.06,3.07,.39,.08,.59-.34,.36-.63-.43-.55-.91-1.01-1.47-1.42-.39-.29-.76,.36-.38,.65,.51,.37,.93,.8,1.32,1.3l.36-.63c-4.27-.91-8.31-2.83-11.68-5.6-.79-.65-1.56-1.34-2.26-2.09-.62-.66-1.73-2.28-.5-2.98,.6-.34,1.39,.16,1.91,.44,.55,.3,1.08,.61,1.61,.93,.95,.58,1.88,1.19,2.78,1.83,2.18,1.56,4.2,3.33,6.06,5.25,.34,.35,.87-.18,.53-.53h0Z"/>
      </g>
      <g class="cls-13">
        <path class="cls-33" d="M412.2,617.11c.86-6.34,5.57-11.86,11.72-13.66,.46-.14,.27-.86-.2-.72-6.38,1.87-11.34,7.59-12.24,14.19-.06,.47,.66,.68,.72,.2h0Z"/>
      </g>
      <g class="cls-13">
        <path class="cls-33" d="M419.95,603.25c.94-.73,2.01-1.29,3.13-1.68,.19-.07,.32-.26,.26-.46-.05-.19-.27-.33-.46-.26-1.25,.43-2.41,1.06-3.46,1.87-.16,.12-.13,.4,0,.53,.16,.16,.37,.12,.53,0h0Z"/>
      </g>
      <g class="cls-13">
        <path class="cls-33" d="M388.25,603.6c6.96,1.51,12.59,7.57,13.5,14.65,.06,.47,.81,.48,.75,0-.95-7.4-6.74-13.79-14.05-15.38-.47-.1-.67,.62-.2,.72h0Z"/>
      </g>
      <g class="cls-13">
        <path class="cls-33" d="M389.68,600.58c1.5,.89,2.99,1.78,4.49,2.66,.42,.25,.79-.4,.38-.65-1.5-.89-2.99-1.78-4.49-2.66-.42-.25-.79,.4-.38,.65h0Z"/>
      </g>
      <g class="cls-13">
        <path class="cls-33" d="M409.02,586.13c.82-4.96,3.33-9.56,7.11-12.88,.57-.5,1.15-.84,1.59-.03,.29,.54,.32,1.17,.35,1.77,.08,1.37,.03,2.75-.17,4.11-.4,2.68-1.33,5.25-2.72,7.57-.25,.41,.4,.79,.65,.38,1.26-2.09,2.16-4.38,2.63-6.77,.23-1.17,.37-2.36,.4-3.55,.03-1.04,.07-2.19-.22-3.2-.19-.67-.6-1.45-1.36-1.58-.94-.17-1.76,.82-2.37,1.4-1.61,1.55-2.99,3.34-4.08,5.3-1.26,2.26-2.12,4.73-2.54,7.29-.08,.47,.64,.68,.72,.2h0Z"/>
      </g>
      <g class="cls-13">
        <path class="cls-33" d="M400.23,577.47c-.81-2.4-1.47-4.85-1.98-7.33-.41-2.03-1.39-5.35,.69-6.83,1.04-.74,2.35-.28,3.21,.51s1.32,1.85,1.81,2.84c1.09,2.19,2.14,4.41,2.49,6.86,.07,.48,.79,.27,.72-.2-.31-2.19-1.18-4.23-2.15-6.2-.83-1.69-1.65-3.76-3.47-4.6-1.56-.73-3.24-.16-4.06,1.35-.99,1.8-.43,4.02-.07,5.91,.52,2.67,1.22,5.3,2.09,7.88,.15,.46,.88,.26,.72-.2h0Z"/>
      </g>
      <g class="cls-13">
        <path class="cls-33" d="M409.92,565.89c.38-.74,.86-1.42,1.44-2.02,.29-.3,.59-.58,.92-.83,.1-.08,.32-.27,.46-.21,.13,.05,.17,.27,.2,.38,.09,.41,.08,.86,.08,1.27,0,.46-.03,.92-.09,1.38-.12,.93-.37,1.85-.71,2.72-.18,.45,.55,.64,.72,.2,.42-1.07,.68-2.19,.78-3.33,.05-.57,.06-1.15,.02-1.72-.03-.43-.05-.89-.3-1.25-.67-.98-1.75,.03-2.32,.57-.75,.71-1.37,1.55-1.85,2.47-.22,.43,.43,.81,.65,.38h0Z"/>
      </g>
      <g class="cls-13">
        <path class="cls-33" d="M400.35,556.32c-.67-2.49-1.36-5.16-.52-7.69,.38-1.16,1.12-2.3,2.22-2.89,1.33-.71,2.59-.08,3.55,.91,3.32,3.41,4.68,8.73,4.26,13.37-.04,.48,.71,.48,.75,0,.39-4.37-.77-8.84-3.3-12.43-1.01-1.44-2.47-3.13-4.42-2.89s-3.33,2.18-3.85,3.97c-.76,2.61-.09,5.32,.59,7.86,.13,.47,.85,.27,.72-.2h0Z"/>
      </g>
      <g class="cls-13">
        <path class="cls-33" d="M413.72,556.18c0-.09,.07-.23,.13-.31,.11-.12,.24-.2,.35-.25,.18-.07,.28-.08,.46-.06,0,0,.03,0,.08,.02,.04,0,.08,.02,.12,.04-.04-.01,.05,.03,.06,.03,.03,.01,.1,.06,.11,.07,.58,.45,.54,1.36,.07,1.91-.31,.36-.73,.6-1.18,.74s-.27,.86,.2,.72c1.09-.32,2.13-1.23,2.09-2.45-.02-.55-.24-1.11-.67-1.46s-.98-.46-1.5-.28c-.58,.19-1.02,.66-1.07,1.29-.02,.2,.18,.38,.38,.38,.22,0,.36-.17,.38-.38h0Z"/>
      </g>
      <g class="cls-13">
        <path class="cls-33" d="M403.25,590.97c-.26-1.02-.29-2.09-.06-3.12,.11-.49,.28-.98,.5-1.43,.12-.24,.4-.97,.73-.62,.31,.33,.4,.9,.52,1.32,.17,.56,.32,1.12,.47,1.69,.31,1.17,.57,2.36,.79,3.55,.09,.47,.81,.27,.72-.2-.21-1.13-.45-2.25-.74-3.36-.14-.54-.29-1.09-.45-1.62-.14-.47-.26-.97-.47-1.41-.34-.73-1.19-1.17-1.8-.44-.57,.68-.89,1.7-1.06,2.56-.21,1.09-.18,2.21,.1,3.29,.12,.47,.84,.27,.72-.2h0Z"/>
      </g>
      <path class="cls-18" d="M423,524.56c2.4-7.18,6.36-13.76,11.56-19.26,.33-.35-.2-.88-.53-.53-5.29,5.6-9.3,12.29-11.75,19.59-.15,.46,.57,.66,.72,.2h0Z"/>
      <path class="cls-18" d="M432.29,511.54c1.06-2.17,2.43-4.16,4.09-5.9,.33-.35-.2-.88-.53-.53-1.7,1.79-3.13,3.84-4.21,6.06-.21,.43,.44,.81,.65,.38h0Z"/>
      <path class="cls-18" d="M440.02,511.92c12.1-10.55,23.99-21.34,35.67-32.36,.35-.33-.18-.86-.53-.53-11.67,11.02-23.57,21.81-35.67,32.36-.36,.32,.17,.85,.53,.53h0Z"/>
      <path class="cls-18" d="M376.67,502.4c2.33,2.77,4.66,5.54,6.98,8.32,2.07,2.48,4.11,5.07,5.02,8.22,.13,.46,.86,.27,.72-.2-.89-3.09-2.82-5.67-4.85-8.12-2.43-2.93-4.89-5.84-7.34-8.75-.31-.37-.84,.16-.53,.53h0Z"/>
      <path class="cls-18" d="M375.17,503.47c.99,1.76,2.09,3.45,3.3,5.06,.12,.16,.32,.24,.51,.13,.16-.09,.26-.35,.13-.51-1.21-1.61-2.31-3.3-3.3-5.06-.24-.42-.88-.04-.65,.38h0Z"/>
      <path class="cls-18" d="M343.96,484.96c10.6,10.95,21.94,21.17,33.91,30.59,.38,.3,.91-.23,.53-.53-11.98-9.42-23.31-19.64-33.91-30.59-.34-.35-.87,.18-.53,.53h0Z"/>
      <path class="cls-18" d="M382.93,455.81c-.52,4.45,1.27,9.07,2.49,13.29,1.34,4.63,2.8,9.22,4.36,13.77,.16,.45,.88,.26,.72-.2-1.51-4.4-2.93-8.84-4.23-13.3s-3.14-9.04-2.6-13.56c.06-.48-.69-.47-.75,0h0Z"/>
      <path class="cls-18" d="M392.44,410.42c-.37,16.1,.55,32.21,2.73,48.17,.06,.48,.79,.27,.72-.2-2.17-15.89-3.07-31.94-2.7-47.97,.01-.48-.74-.48-.75,0h0Z"/>
      <path class="cls-18" d="M423.27,396.51c-7.72,12.06-13.21,25.47-16.16,39.49-.1,.47,.62,.67,.72,.2,2.93-13.96,8.39-27.3,16.08-39.31,.26-.41-.39-.78-.65-.38h0Z"/>
      <path class="cls-18" d="M429.97,415.93c8.07-8.34,17.83-14.93,28.59-19.29,.44-.18,.25-.9-.2-.72-10.88,4.4-20.75,11.04-28.92,19.48-.34,.35,.19,.88,.53,.53h0Z"/>
      <path class="cls-18" d="M457.2,411.93c9.17-3.9,19.13-5.66,29.08-5.17,.48,.02,.48-.73,0-.75-10.09-.5-20.16,1.32-29.46,5.27-.44,.19-.06,.83,.38,.65h0Z"/>
      <path class="cls-27" d="M499.19,624.71c.47-.39,.86-.9,1.1-1.47,.04-.1,.07-.18,.04-.29-.02-.09-.09-.18-.17-.22-.16-.09-.43-.06-.51,.13-.11,.27-.26,.52-.43,.75,0,0-.04,.05,0,0,.04-.05,0,0-.01,.02-.02,.03-.04,.05-.07,.08-.05,.06-.1,.11-.15,.16-.1,.11-.21,.21-.32,.3-.15,.13-.14,.4,0,.53,.16,.15,.37,.13,.53,0h0Z"/>
      <path class="cls-27" d="M502.81,620.16c2.29-2.87,3.68-6.32,4-9.98,.04-.48-.71-.48-.75,0-.31,3.43-1.63,6.75-3.78,9.44-.3,.37,.23,.91,.53,.53h0Z"/>
      <path class="cls-27" d="M477.33,577.84c10.01,6.12,20.98,10.57,32.42,13.15,.47,.11,.67-.62,.2-.72-11.39-2.58-22.28-6.99-32.24-13.08-.41-.25-.79,.4-.38,.65h0Z"/>
      <path class="cls-27" d="M501.53,582.32c3.32,2.05,6.37,4.5,9.08,7.31,.34,.35,.87-.18,.53-.53-2.75-2.85-5.85-5.35-9.23-7.43-.41-.25-.79,.39-.38,.65h0Z"/>
      <path class="cls-27" d="M511.42,590.7l.35,.17s.09,.04,.14,.04c.05,.01,.1,0,.15,0,.05-.01,.09-.03,.13-.07,.04-.03,.07-.06,.1-.11l.04-.09c.02-.07,.02-.13,0-.2l-.04-.09c-.03-.06-.08-.1-.13-.13l-.35-.17s-.09-.04-.14-.04c-.05-.01-.1,0-.15,0-.05,.01-.09,.03-.13,.07-.04,.03-.07,.06-.1,.11l-.04,.09c-.02,.07-.02,.13,0,.2l.04,.09c.03,.06,.08,.1,.13,.13h0Z"/>
      <path class="cls-27" d="M501.25,566.78c4.07,.78,7.75,2.94,10.49,6.03,2.91,3.28,5.35,8.35,4.13,12.79-.13,.47,.59,.66,.72,.2,1.25-4.54-1.07-9.65-3.96-13.1s-6.82-5.81-11.19-6.65c-.47-.09-.67,.63-.2,.72h0Z"/>
      <path class="cls-27" d="M504.28,561.93c2.35-1.46,5.25-2.55,8.04-2.44,2.41,.09,4.91,1.34,5.83,3.69,.17,.44,.9,.25,.72-.2-.94-2.4-3.27-3.86-5.77-4.18-3.16-.4-6.55,.82-9.21,2.48-.41,.25-.03,.9,.38,.65h0Z"/>
      <path class="cls-27" d="M506.09,566.48c1.9-2.07,4.13-4.45,7.17-4.4,.48,0,.48-.74,0-.75-3.26-.05-5.66,2.39-7.7,4.62-.33,.36,.2,.89,.53,.53h0Z"/>
      <path class="cls-27" d="M515,562.45c1.3,.29,2.32,1.37,2.53,2.69,.23,1.43-.47,2.93-1.68,3.7-1.15,.73-2.68,.75-3.72-.2-.97-.89-1.12-2.54-.11-3.47,.58-.53,1.49-.88,2.25-1.07s1.77-.08,1.97,.81c.11,.47,.83,.27,.72-.2-.18-.82-.95-1.34-1.75-1.43-.97-.11-1.98,.34-2.83,.76-.79,.39-1.4,1-1.67,1.85-.24,.77-.17,1.63,.18,2.36,.77,1.57,2.74,2.22,4.35,1.7,1.73-.56,2.93-2.18,3.06-3.99,.13-1.95-1.19-3.81-3.11-4.23-.47-.1-.67,.62-.2,.72h0Z"/>
      <path class="cls-27" d="M515.64,566.46l-.36,1.21c-.06,.19,.07,.42,.26,.46s.4-.06,.46-.26l.36-1.21c.06-.19-.07-.42-.26-.46s-.4,.06-.46,.26h0Z"/>
      <path class="cls-27" d="M519.62,572.93c2.11-1.42,4.82-1.76,7.21-.91s4.02,2.76,4.7,5.11,.24,4.82-1.18,6.84c-1.51,2.16-4.36,4.61-7.18,4.16-.47-.07-.68,.65-.2,.72,2.41,.38,4.6-.97,6.31-2.55s2.92-3.46,3.24-5.69c.6-4.21-2.01-8.45-6.17-9.52-2.42-.62-5.04-.21-7.11,1.19-.4,.27-.02,.92,.38,.65h0Z"/>
      <path class="cls-27" d="M517.65,579.37c.31,1.3,.66,2.65,1.45,3.76s2.03,1.75,3.38,2.07c2.35,.55,5.13,.27,6.69-1.77,.29-.38-.36-.76-.65-.38-1.37,1.78-3.98,1.89-5.99,1.39-1.22-.31-2.28-.86-2.96-1.95-.63-1-.92-2.18-1.2-3.32-.11-.47-.84-.27-.72,.2h0Z"/>
      <path class="cls-27" d="M529.83,579.93s-.01,.1-.02,.15c0-.07,0,.03,0,.05-.01,.09-.03,.17-.05,.26-.04,.18-.08,.35-.14,.53-.03,.08-.06,.17-.09,.25-.02,.04-.03,.08-.05,.12-.02,.04-.02,.05,0,.01,0,.02-.01,.03-.02,.05-.07,.17-.16,.33-.25,.48-.1,.17-.05,.42,.13,.51s.41,.05,.51-.13c.4-.7,.64-1.48,.72-2.28,.02-.2-.19-.38-.38-.38-.22,0-.35,.17-.38,.38h0Z"/>
      <path class="cls-27" d="M520.16,575.79c1.21-1.27,3.01-1.97,4.76-1.76,1.66,.2,3.05,1.3,3.64,2.86,.65,1.69,.24,3.41-1.09,4.63-.82,.75-1.76,1.26-2.85,.77-.84-.38-1.58-1.09-1.97-1.93-.44-.94-.37-2.15,.34-2.95,.67-.75,1.91-.94,2.7-.28,.37,.31,.9-.22,.53-.53-.81-.68-1.92-.8-2.88-.37-1.02,.46-1.6,1.51-1.7,2.59s.38,2.22,1.14,3.03,1.94,1.53,3.1,1.37,2.23-1.14,2.89-2.06c.61-.84,.9-1.88,.84-2.92-.12-2.01-1.38-3.88-3.27-4.63-2.3-.91-5.04-.13-6.72,1.63-.33,.35,.2,.88,.53,.53h0Z"/>
      <path class="cls-27" d="M520.63,591.77c2.81,2.52,4.17,6.2,4.17,9.93s-1.39,8.23-4.83,10.29c-.41,.25-.04,.9,.38,.65,3.59-2.15,5.12-6.63,5.2-10.63s-1.36-8.05-4.39-10.76c-.36-.32-.89,.21-.53,.53h0Z"/>
      <path class="cls-27" d="M521.59,600.17c.71,4.15-.4,8.86-4.3,11.05-.42,.24-.04,.88,.38,.65,4.21-2.36,5.42-7.42,4.65-11.9-.08-.47-.8-.27-.72,.2h0Z"/>
      <path class="cls-27" d="M515.92,618.64c4.23,17.96,11.26,35.21,20.8,51.01,.25,.41,.9,.04,.65-.38-9.5-15.75-16.5-32.92-20.72-50.83-.11-.47-.83-.27-.72,.2h0Z"/>
      <path class="cls-27" d="M527.57,646.12c.93,2.26,1.86,4.52,2.79,6.78,.18,.44,.91,.25,.72-.2-.93-2.26-1.86-4.52-2.79-6.78-.18-.44-.91-.25-.72,.2h0Z"/>
      <path class="cls-27" d="M531.73,656.32c2.82,5.57,6.34,10.76,10.46,15.45,.32,.36,.85-.17,.53-.53-4.08-4.65-7.55-9.79-10.34-15.3-.22-.43-.87-.05-.65,.38h0Z"/>
      <path class="cls-15" d="M449.12,753.17c.51,21.57,.51,43.14-.02,64.71-.15,6.14-.34,12.27-.57,18.41-.07,1.93,2.93,1.93,3,0,.81-21.56,1.11-43.13,.9-64.7-.06-6.14-.17-12.28-.31-18.42-.05-1.93-3.05-1.93-3,0h0Z"/>
      <path class="cls-15" d="M447.81,847.52c-.9,2.98-2.02,5.48-3.64,8.2-.4,.67-.17,1.68,.54,2.05s1.62,.18,2.05-.54c1.68-2.79,3-5.8,3.95-8.91,.23-.75-.27-1.67-1.05-1.85s-1.6,.24-1.85,1.05h0Z"/>
      <path class="cls-15" d="M559.35,762.48c.9,28.66,0,57.38-2.73,85.92-.68,7.16-.93,14.96-4.58,21.36-.96,1.68,1.63,3.19,2.59,1.51,3.25-5.71,3.93-12.28,4.58-18.69,.74-7.3,1.37-14.6,1.87-21.92,1-14.47,1.53-28.97,1.6-43.47,.04-8.24-.07-16.48-.33-24.72-.06-1.93-3.06-1.93-3,0h0Z"/>
      <g>
        <path class="cls-18" d="M109.06,727.65c-1.06-.04-2.34-.18-3.77-.53-1.23-.31-2.3-.71-3.2-1.12-1.37-3.91-1.78-10.77-1.71-12.56-.05,1.82-.24,4.04-.72,6.5-.46,2.35-1.08,4.37-1.69,6-.82,.36-1.78,.7-2.86,.97-1.43,.36-2.71,.5-3.77,.53,.95-.05,4.37,.21,6.68,1.03,.6,1.62,1.2,3.59,1.65,5.89,.48,2.47,.67,4.68,.72,6.5-.06-1.71,.31-8.04,1.53-12.01,2.29-.97,6.14-1.26,7.15-1.21Z"/>
        <path class="cls-33" d="M183.32,735.68c-7.96-8.18-14.48-8.35-16.48-8.22-12.64,.78-25.57,18.82-26.37,45.44-.71-.22-13.05-3.78-22.6,5.55-8.73,8.52-7.66,20.5-7.53,21.71-6.3,.24-9.75,2.4-11.77,4.54,0,0-1.6,1.7-6.12,12.12,0,0-38.14-25.75-67.81,31.81-2.77,5.37-2.95,18.65-2.35,20.7,.78,2.71,3.31,3.95,6.12,6.06,0,0,6.37,4.79,14.13,7.07,8.92,2.62,30.66,.91,57.45-9.09,8.4,5.23,15.29,6.38,19.78,6.56,15.48,.62,27.26-9.32,41.44-9.09,6.03,.1,12.24,1.01,12.24,1.01,3.23,.47,9.05,8.14,9.05,8.14,0-.02,0-.04,0-.06,11.18,8.5,24.11,14.51,37.52,12.12,11.33-2.02,11.96-8.08,28.03-12.62,7.34-2.08,23.31-6.34,39.78,1.51,6.23,2.97,10.75,6.83,13.56,9.59,2.47,1.95,13.76,10.44,27.57,7.07,4.89-1.19,8.68-3.53,11.3-5.55,6.05,1.72,31.89,8.26,51.99-8.58,3.87-3.25,6.99-6.91,9.49-10.6,10.15,3.78,24.81,7.65,42.49,7.07,8.36-.28,15.81-1.49,22.15-3.03,1.87-1.89,3.41-4.26,3.62-7.07,.66-9.03-12.89-17.42-22.15-20.2-13.81-4.15-25.97,1.81-30.74,4.54-.09-15.87-7.7-30.42-19.89-37.87-16.57-10.12-33.05-1.92-34.81-1.01-1.65-15.36-14.28-23.89-23.05-21.21-8.63,2.64-15.54,16.77-10.4,30.8-2.39-6.23-7.41-10.52-13.11-11.11-6.01-.62-10.33,3.15-11.3,4.04,18.99-34.84-4.07-54.03-17.18-50.49,2.15-13.59-5.02-25.11-13.56-26.76-8.48-1.63-15.39,7.02-15.82,7.57,.95-5.96,1.89-16.76-1.81-28.78-4.28-13.91-17.43-37.69-37.97-36.35-16.98,1.11-34.87,22.27-34.87,52.66"/>
        <path class="cls-27" d="M203.19,736.2c11.23-4.3,24.28-3.56,33.65,4.5,8.16,7.02,12.24,17.96,10.12,28.57-1.13,5.65-3.89,11.05-8.49,14.64-.38,.3,.15,.82,.53,.53,8.51-6.65,11.04-19.2,8.11-29.23-3.12-10.67-12-19.22-22.88-21.65-7.09-1.58-14.5-.67-21.24,1.91-.45,.17-.25,.9,.2,.72h0Z"/>
        <path class="cls-27" d="M251.6,760.37c2.32,7.76-.23,17.38-7.07,22.1-.39,.27-.02,.92,.38,.65,7.11-4.9,9.83-14.85,7.41-22.94-.14-.46-.86-.26-.72,.2h0Z"/>
        <path class="cls-27" d="M210.2,726.73c8.01-2.81,16.93-1.92,24.2,2.47,6.57,3.97,11.45,10.35,14.15,17.48,.17,.45,.89,.25,.72-.2-2.77-7.31-7.75-13.86-14.5-17.93-7.43-4.49-16.59-5.42-24.78-2.55-.45,.16-.26,.88,.2,.72h0Z"/>
        <path class="cls-27" d="M191.76,745.37c9.45-3.29,20.11-2.52,27.87,4.27,7.82,6.85,11.54,18.16,8.81,28.26-2.47,9.13-10.62,16.93-20.6,15.42-4.49-.68-9.18-3.15-11.85-6.9-3.22-4.52-2.29-10.44,.55-14.9,3.12-4.91,9.21-8.58,15.15-7.11,2.3,.57,4.54,1.87,5.91,3.85,1.64,2.38,1.72,5.93-.3,8.11-.33,.35,.2,.88,.53,.53,3.36-3.61,1.52-9.06-2.18-11.56-4.25-2.87-9.78-2.4-14.05,.18-4.71,2.86-8.11,8.16-8.39,13.71s2.99,9.66,7.48,12.28c4.13,2.41,9.03,3.39,13.71,2.25s8.74-4.29,11.44-8.29c6.41-9.53,5.19-22.57-1.4-31.66-3.65-5.03-8.87-8.8-14.92-10.34s-12.21-.84-17.95,1.16c-.45,.16-.26,.88,.2,.72h0Z"/>
        <path class="cls-27" d="M160.59,766.66c4.03-4.4,8.49-8.37,13.35-11.83,.39-.28,.02-.93-.38-.65-4.91,3.5-9.43,7.51-13.5,11.95-.33,.36,.2,.89,.53,.53h0Z"/>
        <path class="cls-27" d="M201.9,837.42c4.02-10.99,12.13-19.82,21.24-26.93,9.74-7.6,21.13-13.53,33.17-16.43s25.46-1.63,34.35,7.7c7.47,7.84,10.37,19.59,8.99,30.16-1.57,12.04-8.74,23.22-19.03,29.66-.41,.26-.03,.9,.38,.65,9.27-5.8,16.02-15.33,18.6-25.94s.76-22.75-5.68-31.76c-7.14-9.99-19.39-13.76-31.25-12.38-12.77,1.48-25.26,7.33-35.73,14.61-11,7.65-21.08,17.65-25.76,30.45-.17,.45,.56,.65,.72,.2h0Z"/>
        <path class="cls-27" d="M289.13,848.5c-10.64,9.68-24.61,15.51-39.05,15.62-4.01,.03-8-.39-11.91-1.23-.47-.1-.67,.62-.2,.72,14.17,3.05,29.1,.31,41.54-7.04,3.64-2.15,7.03-4.7,10.16-7.54,.36-.33-.17-.85-.53-.53h0Z"/>
        <path class="cls-27" d="M215.64,853.1c.49-8.54,3.17-16.98,7.98-24.08s12.2-13.18,21.16-13.89c8.18-.65,16.96,3.14,20.66,10.76,1.84,3.79,2.36,8.38,.99,12.4-1.24,3.66-4.08,6.5-7.51,8.18-6.94,3.4-17.11,2.44-20.72-5.25-.2-.44-.85-.06-.65,.38,3.21,6.84,11.6,8.68,18.39,6.79,3.6-1,6.95-3.03,9.19-6.05,2.46-3.32,3.22-7.55,2.59-11.59-1.35-8.75-8.89-14.89-17.39-16.18-9.45-1.43-18.14,3.01-24.25,10.02-6.85,7.86-10.59,18.16-11.19,28.5-.03,.48,.72,.48,.75,0h0Z"/>
        <path class="cls-27" d="M240.25,832.83c2.88-5.15,9.1-8.23,14.87-6.25,.46,.16,.65-.57,.2-.72-6.07-2.08-12.67,1.17-15.71,6.6-.24,.42,.41,.8,.65,.38h0Z"/>
        <path class="cls-27" d="M264.5,766.81c4.52-3.22,10.79-3.07,15.02,.61,3.91,3.4,5.65,8.88,5.07,13.95-.05,.48,.7,.47,.75,0,.62-5.43-1.39-11.39-5.74-14.85-4.46-3.56-10.85-3.65-15.48-.36-.39,.28-.02,.93,.38,.65h0Z"/>
        <path class="cls-27" d="M281.05,775.66c.68,3.11,1.22,6.4,.57,9.57-.51,2.49-1.78,4.99-4.07,6.27-.42,.24-.04,.88,.38,.65,2.37-1.33,3.77-3.89,4.36-6.48,.77-3.38,.22-6.89-.52-10.22-.1-.47-.83-.27-.72,.2h0Z"/>
        <path class="cls-27" d="M309.23,844.9c8.93-9.44,21.95-15.61,35.12-14.35,12.14,1.16,23.79,9.02,26.9,21.25,.98,3.87,1.01,8.19-.81,11.82-1.59,3.16-4.55,5.88-8.25,5.92-.48,0-.48,.75,0,.75,6.65-.06,10.38-7.18,10.47-13.06,.11-6.86-3.3-13.58-8.1-18.34-9.21-9.1-23.18-11.11-35.26-7.45-7.88,2.38-14.96,6.97-20.61,12.94-.33,.35,.2,.88,.53,.53h0Z"/>
        <path class="cls-27" d="M306.03,865.06c1.53-7.61,6.36-13.93,12.56-18.44,6.65-4.84,15.51-8.79,23.86-6.97,.47,.1,.67-.62,.2-.72-6.91-1.51-13.96,.87-19.98,4.21-5.24,2.91-9.99,6.89-13.31,11.92-1.96,2.98-3.34,6.3-4.05,9.8-.09,.47,.63,.67,.72,.2h0Z"/>
        <path class="cls-27" d="M347.8,842.28c2.41,.34,4.5,1.83,5.8,3.86,.26,.41,.91,.03,.65-.38-1.4-2.18-3.65-3.84-6.25-4.2-.2-.03-.4,.05-.46,.26-.05,.18,.06,.43,.26,.46h0Z"/>
        <path class="cls-27" d="M353.07,853.68c1.62,4.26-.35,9.15-3.92,11.77-3.66,2.69-8.81,3.51-13.25,3.42s-9.12-2.03-11.33-6.23c-1.35-2.56-1.29-5.31,.64-7.56,1.36-1.59,3.29-2.56,5.24-3.24,4.85-1.68,11.24-3.01,14.92,1.59,.3,.38,.83-.16,.53-.53-3.63-4.54-9.71-3.6-14.63-2.11-4.01,1.22-9.07,4.12-8.41,9.09s5.18,8.48,9.81,9.41c2.7,.54,5.49,.38,8.2-.03,2.53-.38,5.05-1.03,7.29-2.28,4.6-2.59,7.59-8.31,5.62-13.49-.17-.45-.9-.25-.72,.2h0Z"/>
        <path class="cls-27" d="M368.69,822.94c2.1-1.36,4.49-1.75,6.94-1.84,2.32-.09,4.66-.08,6.97,.11,4.39,.35,8.44,1.73,11.97,4.39,7.02,5.29,10.75,13.91,11.45,22.5,.43,5.32-.21,10.67-1.73,15.78-.14,.46,.59,.66,.72,.2,2.76-9.29,2.7-19.75-1.56-28.59-3.71-7.7-10.56-13.74-19.2-14.86-2.84-.37-5.76-.39-8.63-.28-2.58,.1-5.12,.51-7.32,1.94-.4,.26-.03,.91,.38,.65h0Z"/>
        <path class="cls-27" d="M397.49,843.05c1.66,6.39,.56,13.46-3.01,19.02s-9.21,9.05-15.54,9.83c-.47,.06-.48,.81,0,.75,6.48-.79,12.34-4.45,15.97-9.87,3.86-5.77,5.05-13.23,3.3-19.93-.12-.47-.85-.27-.72,.2h0Z"/>
        <path class="cls-27" d="M386.47,862.73c-4.15,3.6-9.17,6.1-14.58,7.1-.47,.09-.27,.81,.2,.72,5.54-1.02,10.66-3.61,14.91-7.29,.37-.32-.17-.85-.53-.53h0Z"/>
        <path class="cls-27" d="M342.42,806.36c9.35,1.72,14.4,11.55,13.19,20.45-.06,.47,.66,.68,.72,.2,1.26-9.28-3.93-19.57-13.72-21.38-.47-.09-.67,.64-.2,.72h0Z"/>
        <path class="cls-27" d="M349.53,820.39c1.55,1.95,2.35,4.43,2.38,6.91,0,.48,.76,.48,.75,0-.03-2.69-.92-5.33-2.6-7.44-.3-.38-.83,.16-.53,.53h0Z"/>
        <path class="cls-27" d="M419.6,864.64c6.17-7.68,16.04-9.57,25.37-8,.47,.08,.68-.64,.2-.72-9.57-1.61-19.75,.3-26.1,8.19-.3,.37,.23,.91,.53,.53h0Z"/>
        <path class="cls-27" d="M441.64,860.03c4.76-1.45,9.88,.65,12.73,4.61,.28,.39,.93,.01,.65-.38-3.05-4.23-8.49-6.51-13.58-4.96-.46,.14-.26,.86,.2,.72h0Z"/>
        <path class="cls-27" d="M256.39,781.71c2.07-4.44,6.24-7.99,11.22-8.48,2.58-.25,5.34,.35,7.14,2.34s2.46,4.67,2.12,7.25c-.06,.48,.69,.47,.75,0,.36-2.67-.39-5.48-2.14-7.55s-4.55-2.95-7.27-2.83c-5.47,.24-10.2,4.04-12.46,8.89-.2,.43,.44,.82,.65,.38h0Z"/>
        <path class="cls-27" d="M262.59,784.63c.52,1.58,1.91,2.7,3.54,3,2.02,.37,3.99-.53,5.77-1.39,.43-.21,.05-.86-.38-.65-1.55,.74-3.31,1.59-5.08,1.33-1.41-.21-2.67-1.12-3.13-2.49-.15-.46-.88-.26-.72,.2h0Z"/>
        <path class="cls-27" d="M156.31,773.46c-4.06,5.11-4.9,12.57-5.15,18.89-.28,7.09,.76,14.22,3.08,20.93,.16,.45,.88,.26,.72-.2-2.2-6.37-3.23-13.09-3.08-19.83,.08-3.42,.46-6.84,1.17-10.18s1.71-6.46,3.79-9.08c.3-.37-.23-.91-.53-.53h0Z"/>
        <path class="cls-27" d="M160.73,780.11c-2.2,9.79,.43,20.83,7.54,28.07,.34,.34,.87-.19,.53-.53-6.92-7.04-9.48-17.81-7.34-27.34,.11-.47-.62-.67-.72-.2h0Z"/>
        <path class="cls-27" d="M191.52,809.7c2,2.74,5.45,4.27,8.81,3.42,.47-.12,.27-.84-.2-.72-3.01,.76-6.16-.62-7.96-3.08-.28-.39-.93-.01-.65,.38h0Z"/>
        <path class="cls-27" d="M32.66,850.57c5.97-7.23,13.99-13.22,23.35-15.01s18.85,1.1,25.36,7.77c4.08,4.18,6.87,9.89,6.15,15.83-.06,.48,.69,.47,.75,0,1.23-10.08-6.93-19.02-15.7-22.65-8.98-3.72-18.96-2.43-27.31,2.28-5.06,2.85-9.45,6.79-13.14,11.25-.31,.37,.22,.9,.53,.53h0Z"/>
        <path class="cls-27" d="M70.85,843.68c3.97,1.61,7.26,4.62,9.43,8.3,1.99,3.38,3.48,8.43,.81,11.87-.29,.38,.23,.91,.53,.53,2.75-3.54,1.62-8.58-.36-12.2-2.26-4.12-5.84-7.45-10.21-9.22-.45-.18-.64,.54-.2,.72h0Z"/>
        <path class="cls-27" d="M42.58,849.21c-2.66,3.42-5.4,7.23-5.13,11.79,.25,4.15,3.3,6.73,6.57,8.8,.41,.26,.79-.39,.38-.65-3.15-1.99-6.12-4.46-6.22-8.49-.11-4.23,2.44-7.74,4.92-10.93,.29-.38-.23-.91-.53-.53h0Z"/>
        <path class="cls-27" d="M47.82,853.38c1.93-5.68,8.39-6.4,13.46-5.06,4.25,1.13,8.25,3.77,10.3,7.75,1.23,2.38,2.14,5.84,.25,8.12-1.58,1.9-4.48,2.9-6.81,3.43-5.17,1.18-11.11-.87-13.1-6.13-1.02-2.7-.78-6.26,2.05-7.75,3.07-1.61,6.43,.24,9.12,1.75,.42,.24,.8-.41,.38-.65-2.65-1.49-5.7-3.14-8.82-2.18-2.46,.76-3.91,2.92-4.04,5.45-.29,5.86,5.14,10.33,10.64,10.61,3.13,.16,6.43-.81,9.12-2.39,2.41-1.43,3.56-3.66,3.2-6.46-.72-5.53-5.14-9.73-10.16-11.64-5.8-2.22-13.98-1.89-16.31,4.96-.16,.46,.57,.65,.72,.2h0Z"/>
        <path class="cls-27" d="M91.48,829.86c3.17-12.88,13.9-24.65,28.1-23.48s22.44,14.85,26.04,26.9c2.31,7.73,2.84,16.13,.2,23.84-.16,.46,.57,.65,.72,.2,4.63-13.53,.05-29.75-8.54-40.77-4.09-5.24-9.63-9.49-16.3-10.66s-13.73,.73-19.14,4.88c-6.04,4.63-10.01,11.56-11.81,18.88-.12,.47,.61,.67,.72,.2h0Z"/>
        <path class="cls-27" d="M97.97,834.64c-.91,6.62,.08,13.47,3,19.5s7.37,10.71,14.11,11.57c3.58,.46,7.22-.11,10.65-1.19,.46-.14,.26-.87-.2-.72-3.68,1.16-7.64,1.74-11.46,1-4.21-.82-7.46-3.29-9.92-6.74-4.73-6.64-6.57-15.19-5.46-23.22,.06-.47-.66-.68-.72-.2h0Z"/>
        <path class="cls-27" d="M102.94,827.24c1.47-3.54,4.78-5.86,8.56-6.25s7.51,.94,10.64,2.86c5.66,3.47,9.71,9.31,11.65,15.6,1.01,3.27,1.57,6.84,1.25,10.26-.2,2.07-.89,4.18-2.74,5.33-1.51,.95-3.42,1.18-5.17,1.24-7.22,.26-14.02-3.94-16.05-11.05-1.03-3.63-.89-7.79,1.07-11.1,.73-1.23,1.61-2.17,3.14-2.14,1.03,.02,2.08,.27,3.06,.57,2.26,.68,4.3,1.9,6.06,3.47,.36,.32,.89-.21,.53-.53-1.55-1.38-3.29-2.51-5.24-3.26-1.65-.64-4.11-1.45-5.87-.79-1.5,.56-2.41,2.28-3.01,3.66-.75,1.74-1.1,3.63-1.12,5.52-.08,8.01,5.58,14.71,13.44,16.12,3.3,.59,7.9,.66,10.51-1.8,2.75-2.6,2.41-7.31,1.96-10.72-1.02-7.66-5-15.07-11.21-19.75-3.56-2.68-8.14-4.62-12.67-4.26-4.23,.33-7.88,2.9-9.5,6.83-.18,.45,.54,.64,.72,.2h0Z"/>
      </g>
      <path class="cls-11" d="M500.24,872.23c1.57,3.43,4.7,8.99,10.25,12.76,7.12,4.85,17.93,6.55,25.93-.75,4.3-3.93,6.33-9.14,7.24-12.01,2.05,2.16,5.06,4.66,9.05,6.01,12.56,4.24,23.38-6.83,24.73-8.26,.92-1.27,3.75-4.83,8.44-6.01,5.51-1.38,9.78,1.48,10.86,2.25,1.46,1.16,3.72,2.56,6.63,3,7.84,1.19,13.58-5.65,14.47-6.76-.32-2.93-1.41-4.12-1.81-4.5-2.36-2.25-7.06-1.16-10.86,3.75-1.31-1.68-3.3-3.93-6.03-6.01-2.91-2.2-7.65-5.81-13.87-5.25-6.14,.54-10.39,4.85-12.06,6.76-1.81-.5-3.62-1-5.43-1.5,.01-.69,.06-7.45-4.22-11.26-2.12-1.89-4.34-2.2-5.43-2.25-1.7-4.01-4.92-6.61-8.44-6.76-4.17-.17-8.09,3.14-9.65,8.26-.91-2.41-2.71-6.32-6.03-9.76-1.27-1.31-6.9-7.13-12.06-6.01-6.02,1.31-11.34,12.05-10.86,26.27-1.73-.73-4.46-1.61-7.84-1.5-2.27,.07-7.21,.24-11.46,4.5-5.55,5.58-5.98,14.18-6.03,15.76,.86,.94,2.49,2.44,4.82,3,5.16,1.25,9.15-3.18,9.65-3.75Z"/>
    </g>
  </g>
</svg>