<?xml version="1.0" encoding="UTF-8"?>
<svg id="_Слой_2" data-name="Слой 2" xmlns="http://www.w3.org/2000/svg" xmlns:xlink="http://www.w3.org/1999/xlink" viewBox="0 0 680 916">
  <defs>
    <style>
      .cls-1 {
        opacity: .68;
      }

      .cls-2 {
        opacity: .3;
      }

      .cls-2, .cls-3, .cls-4, .cls-5, .cls-6 {
        fill: gray;
      }

      .cls-3 {
        opacity: .62;
      }

      .cls-7 {
        fill: #3a3a4c;
      }

      .cls-8 {
        fill: #383847;
      }

      .cls-9 {
        fill: #333;
        opacity: .19;
      }

      .cls-10 {
        fill: #353544;
      }

      .cls-11 {
        fill: #ffeb62;
      }

      .cls-11, .cls-5 {
        opacity: .47;
      }

      .cls-12 {
        fill: #4d4d4d;
      }

      .cls-13 {
        opacity: .35;
      }

      .cls-14 {
        fill: #1a1a1e;
      }

      .cls-15 {
        fill: #202223;
      }

      .cls-16 {
        opacity: .44;
      }

      .cls-16, .cls-17 {
        fill: #111010;
      }

      .cls-18 {
        fill: #1b1d1f;
      }

      .cls-19 {
        fill: #817636;
      }

      .cls-20 {
        fill: #222228;
      }

      .cls-21 {
        opacity: .4;
      }

      .cls-21, .cls-22, .cls-23, .cls-24, .cls-25 {
        fill: none;
      }

      .cls-21, .cls-22, .cls-24, .cls-25 {
        stroke-miterlimit: 10;
      }

      .cls-21, .cls-24 {
        stroke: #817636;
        stroke-width: 3px;
      }

      .cls-26 {
        fill: #2d2d38;
      }

      .cls-27 {
        fill: #3f3f51;
      }

      .cls-28, .cls-29 {
        fill: #2a2a35;
      }

      .cls-30 {
        fill: #3f3d56;
        opacity: .54;
      }

      .cls-22 {
        opacity: .49;
        stroke-width: 4px;
      }

      .cls-22, .cls-25 {
        stroke: #999;
      }

      .cls-31 {
        clip-path: url(#clippath);
      }

      .cls-29 {
        opacity: .59;
      }

      .cls-24, .cls-25 {
        opacity: .34;
      }

      .cls-32 {
        fill: #3c3c4c;
      }

      .cls-33 {
        fill: #242628;
      }

      .cls-34 {
        fill: #5b5b5b;
      }

      .cls-25 {
        stroke-width: 2px;
      }

      .cls-35 {
        fill: #666;
      }

      .cls-6 {
        opacity: .38;
      }
    </style>
    <clipPath id="clippath">
      <rect class="cls-23" width="680" height="916"/>
    </clipPath>
  </defs>
  <g id="_Слой_1-2" data-name="Слой 1">
    <g class="cls-31">
      <rect class="cls-18" width="680" height="916"/>
      <circle class="cls-22" cx="345.18" cy="583.29" r="247.9"/>
      <circle class="cls-25" cx="345.18" cy="583.29" r="233.95"/>
      <g>
        <circle class="cls-21" cx="345.18" cy="583.29" r="138.08"/>
        <circle class="cls-24" cx="345.18" cy="583.29" r="130.31"/>
      </g>
      <path class="cls-15" d="M21.97,838.7c-5.02,.01-7.83-5.87-4.57-9.69,.03-.04,.07-.08,.1-.12,3.68-4.22,10.06-6.11,16.4-4.92-.29-.45-4.18-6.66-.78-12.64,3.03-5.34,10.55-8.19,17.96-6.32-.34-.8-1.53-3.84,0-7.02,1.7-3.54,6.05-5.81,10.94-5.62-3.11-.85-9.95-3.15-15.62-9.13-7.75-8.16-7.91-17.49-7.81-20.37,.11-3.43,.33-9.98,5.47-15.45,8.94-9.51,24.71-7.2,25.78-7.02-.18-3.74-.18-15.14,8.59-25.29,9.66-11.18,26.19-16.47,42.96-14.05-7.81-14.92-5.36-32.54,6.25-44.96,10.77-11.53,27.85-16.9,44.52-14.05,3.68-7.34,11.27-11.8,18.75-11.24,5.72,.43,9.57,3.65,10.94,4.92-.93-6.2-2.81-24.93,10.15-40.04,17.38-20.25,54.78-26.23,89.04-10.54,2.97-2.37,9.66-7.01,19.53-8.43,17.2-2.47,29.97,6.87,32.02,8.43,2.87-2.55,9.73-7.93,20.31-9.83,17.27-3.12,30.57,5.52,32.81,7.02,3.22-1.41,12.26-4.87,23.43-2.81,17.94,3.31,25.7,17.99,26.56,19.67,4.42,.12,11.63,.84,19.53,4.21,11.48,4.9,17.74,12.57,20.31,16.16v217.77c-157.85,.46-315.7,.92-473.55,1.38Z"/>
      <path class="cls-33" d="M904.01,823.62c-.26-2.81-1.51-16.32-11.24-19.67-7.14-2.46-16.42,1.38-21.78,9.83-.38-8.55-2.23-23.64-11.24-39.34-5.59-9.73-12.54-21.84-23.18-23.18-12.72-1.6-27.97,12.53-35.83,35.12,.76-20.23-4.21-35.24-7.73-43.55-5.21-12.32-10.31-24.37-23.18-30.91-15.69-7.97-32.24-2.32-36.53-.7,1.6-5.48,3.69-15.45,1.4-27.4-.81-4.21-4.76-24.86-22.48-35.12-11.39-6.6-19.43-7.57-28.3-4.4-39.71,11.9-85.07,69.55-87.61,75-.54-1.23-4.06-20.54-22.99-23.18-12.86-1.79-22.55,4.59-25,6.32,10.5-29.04,1.87-56.5-15.28-65.33-10.7-5.51-22.58-2.67-28.48-.7-.3-.48-6.05-9.33-16.67-9.13-10.18,.18-15.58,8.5-15.97,9.13-2.11-10.39-9.27-18.78-18.75-21.78-10.21-3.23-18.93,1.1-20.84,2.11-.61-1.86-5.38-15.83-16.67-18.97-12.79-3.55-30.81,7.68-36.12,29.5-2-2.13-8.38-8.34-18.06-9.13-11.59-.95-23.18,6.27-29.17,18.26-3.68-3.32-21.38-18.6-45.15-16.16-26.12,2.68-48.92,25.68-54.18,56.9-6.92-1.14-13.35,2.67-15.28,8.43-2.19,6.55,2.53,12.35,2.78,12.64-5.91,3.49-12.37,8.06-18.75,14.05-21.41,20.09-28.75,42.28-31.95,55.5-3.21,.21-13.09,3.36-19.45,10.54-8.59,9.7-8.66,26.8,1.39,40.74-.37-.18-4.17-1.98-7.64,0-3.27,1.86-4.87,6.29-3.47,10.54-2.36-2.29-8.71-7.79-18.06-8.43-7.5-.52-19.53,1.92-23.61,11.24-.02,.05-.04,.1-.06,.14-2.39,5.6,1.84,11.81,7.93,11.83,181.91,.57,401.1-6.09,581.81-5.29v-.25c70.86,.27,141.71-.07,212.57,.24,1.36-2.91,3.45-8.49,2.81-15.45Z"/>
      <path class="cls-20" d="M348.93,302.1c6.12,2.41,15.43,5.13,26.91,4.96,17.26-.25,30.25-6.91,36.78-10.91,5.64,17.87,19.45,30.9,35.88,33.73,21.6,3.73,36.84-12.04,38.57-13.89,1.31,3.58,5.62,14.08,16.15,20.84,2.31,1.49,17.4,10.8,28.7,3.97,11.44-6.91,8.81-24.2,21.53-30.76,4.56-2.35,9.05-2.26,11.66-1.98,1.35,6.17,4.54,16.09,12.56,23.81,16.18,15.59,38.66,9.39,43.95,7.94,11.55-3.18,19.7-9.65,24.22-13.89,.39,.92,5.37,12.16,16.15,13.89,9.43,1.52,19.24-4.9,23.32-15.87,4.27,2.96,9.98,6.08,17.04,7.94,21.27,5.59,39.16-4.41,44.85-7.94,3.65,.47,7.55,.82,11.66,.99,8.27,.34,15.8-.14,22.42-.99-.92-3.05-2.9-8.2-7.18-12.9-2.46-2.7-8.82-9.67-17.94-8.93-10.84,.88-16.56,11.93-17.04,12.9-2.3-1.61-6.28-3.95-11.66-4.96-6.4-1.2-11.61,.09-14.35,.99,1.54-2.79,4.23-8.64,3.59-15.87-1.46-16.41-18.62-23.38-19.73-23.81-10.72-4.15-20.27-.38-23.32,.99,2.27-3.35,8.68-13.74,7.18-26.79-2.17-18.74-19.62-33.79-37.67-32.74-14.7,.85-27.89,12.26-33.19,28.77-7.19-15.34-21.15-25.06-35.88-24.8-18.27,.31-34.79,15.9-38.57,37.7-2.96-15.76-14.79-23.5-22.42-20.84-5.12,1.79-8.73,8.4-9.87,15.87-5.65-4.5-12.78-4.68-17.04-.99-5.7,4.93-6.55,17,.9,24.8-.07,.53-1.13,7.4-6.28,9.92-5.01,2.45-11.86-.2-15.25-6.95-.39-1-7.71-19.05-25.11-21.83-13.13-2.09-26.44,5.4-33.19,18.85-6.72-13.06-11.37-15.26-14.35-14.88-3.83,.49-5.56,5.35-12.56,14.88-4.48,6.11-8.65,10.75-11.66,13.89-4.63-2.91-12.36-6.89-22.42-7.94-7.37-.77-20.51-.44-21.53,3.97-.49,2.14,1.43,7.1,24.22,18.85Z"/>
      <g class="cls-1">
        <circle class="cls-30" cx="171.97" cy="291.82" r="75.67"/>
        <circle class="cls-16" cx="211.84" cy="272.24" r="16.26"/>
        <circle class="cls-16" cx="207.09" cy="311.74" r="7.49"/>
        <circle class="cls-17" cx="129.02" cy="287.26" r="3.59"/>
      </g>
      <path class="cls-35" d="M478.94,659.86c-7.76,29.55-12.19,60-13.15,90.54-.27,8.49-.26,16.99,.01,25.48,.12,3.85,6.12,3.87,6,0-.95-30.02,1.44-60.12,7.22-89.6,1.64-8.34,3.54-16.62,5.7-24.84,.98-3.74-4.8-5.33-5.79-1.6h0Z"/>
      <path class="cls-35" d="M369.23,484.32c-1.52,16.4-2.29,32.88-2.81,49.34-.64,20.01-.82,40.04-.25,60.05,.48,16.73,1.21,33.7,4.25,50.2,2.38,12.93,5.81,25.66,8.69,38.49,3.03,13.48,5.54,27.07,7.64,40.73,4.24,27.51,6.8,55.26,8.8,83.01,.25,3.45,.49,6.9,.72,10.36,.26,3.83,6.26,3.86,6,0-1.88-27.88-4.24-55.74-8.06-83.43-1.89-13.68-4.14-27.31-6.88-40.85-2.81-13.85-6.33-27.54-9.36-41.34-1.78-8.11-3.03-15.67-3.84-23.72-.88-8.81-1.39-17.66-1.74-26.5-.77-19.89-.7-39.81-.19-59.7,.44-17.28,1.18-34.57,2.6-51.8,.13-1.61,.27-3.22,.42-4.83s-1.49-3-3-3c-1.75,0-2.85,1.38-3,3h0Z"/>
      <path class="cls-4" d="M336.1,726.77c.83,1.09,2.18,2.56,4.18,3.77,4.11,2.5,8.26,2.27,9.83,2.11,2.05,3.08,4.78,7.37,7.73,12.64,1.8,3.21,9.02,16.35,16.16,37.93,3.95,11.96,9.67,34.05,12.64,53.39,1.38-.19,2.13-1.21,3.51-1.4-2.99-15.78-6.89-34.37-9.57-44.47-2.91-10.99-6.05-21.89-11.06-33.92-2.84-6.82-5.5-12.1-6.72-14.49-2.41-4.72-4.74-8.81-6.79-12.21,.87-1.04,3.02-3.88,3.23-8.01,.11-2.08-.31-3.78-.7-4.92-2.16,1.9-5.42,4.35-9.83,6.32-5.02,2.25-9.55,2.99-12.6,3.25Z"/>
      <path class="cls-11" d="M76.03,707.24c-2.13-.07-4.71-.31-7.58-.95-2.48-.55-4.63-1.27-6.43-1.99-2.75-6.95-3.58-19.16-3.44-22.35-.1,3.24-.48,7.18-1.45,11.57-.93,4.19-2.17,7.77-3.4,10.68-1.66,.63-3.58,1.24-5.76,1.73-2.88,.64-5.46,.88-7.58,.95,1.91-.08,8.78,.37,13.42,1.83,1.2,2.88,2.41,6.39,3.31,10.49,.97,4.39,1.35,8.33,1.45,11.57-.13-3.04,.62-14.3,3.08-21.36,4.6-1.72,12.34-2.24,14.38-2.15Z"/>
      <path class="cls-11" d="M126.24,436.52c-1.77-.05-3.92-.26-6.31-.79-2.06-.46-3.85-1.05-5.35-1.66-2.29-5.79-2.98-15.95-2.86-18.59-.08,2.7-.4,5.97-1.2,9.63-.77,3.48-1.81,6.46-2.83,8.89-1.38,.53-2.98,1.04-4.79,1.44-2.39,.53-4.54,.73-6.31,.79,1.59-.07,7.3,.3,11.17,1.52,1,2.4,2,5.32,2.76,8.72,.81,3.65,1.12,6.93,1.2,9.63-.11-2.53,.51-11.9,2.56-17.78,3.83-1.43,10.27-1.87,11.97-1.79Z"/>
      <path class="cls-3" d="M591.99,129.65c-1.77-.05-3.92-.26-6.31-.79-2.06-.46-3.85-1.05-5.35-1.66-2.29-5.79-2.98-15.95-2.86-18.59-.08,2.7-.4,5.97-1.2,9.63-.77,3.48-1.81,6.46-2.83,8.89-1.38,.53-2.98,1.04-4.79,1.44-2.39,.53-4.54,.73-6.31,.79,1.59-.07,7.3,.3,11.17,1.52,1,2.4,2,5.32,2.76,8.72,.81,3.65,1.12,6.93,1.2,9.63-.11-2.53,.51-11.9,2.56-17.78,3.83-1.43,10.27-1.87,11.97-1.79Z"/>
      <path class="cls-11" d="M643.04,455.57c-3.67-.11-8.12-.54-13.08-1.63-4.27-.95-7.99-2.19-11.1-3.43-4.75-11.99-6.17-33.05-5.94-38.54-.17,5.59-.82,12.38-2.49,19.95-1.6,7.22-3.75,13.39-5.86,18.42-2.86,1.09-6.18,2.15-9.93,2.98-4.96,1.1-9.41,1.52-13.08,1.63,3.29-.14,15.14,.63,23.15,3.15,2.06,4.96,4.15,11.02,5.71,18.08,1.67,7.57,2.32,14.36,2.49,19.95-.22-5.24,1.06-24.66,5.31-36.84,7.93-2.97,21.28-3.87,24.81-3.72Z"/>
      <path class="cls-4" d="M73.68,324.98c-1.82-.06-4.03-.27-6.49-.81-2.12-.47-3.96-1.08-5.5-1.7-2.35-5.95-3.06-16.39-2.94-19.11-.09,2.77-.41,6.14-1.24,9.89-.79,3.58-1.86,6.64-2.9,9.14-1.42,.54-3.07,1.06-4.93,1.48-2.46,.54-4.67,.75-6.49,.81,1.63-.07,7.51,.31,11.48,1.56,1.02,2.46,2.06,5.47,2.83,8.97,.83,3.75,1.15,7.12,1.24,9.89-.11-2.6,.53-12.23,2.63-18.27,3.93-1.47,10.55-1.92,12.3-1.84Z"/>
      <path class="cls-5" d="M404.55,404.52c-1.23-.04-2.73-.18-4.39-.55-1.44-.32-2.68-.73-3.73-1.15-1.6-4.03-2.07-11.1-1.99-12.95-.06,1.88-.28,4.16-.84,6.7-.54,2.43-1.26,4.5-1.97,6.19-.96,.37-2.08,.72-3.34,1-1.67,.37-3.16,.51-4.39,.55,1.11-.05,5.09,.21,7.78,1.06,.69,1.67,1.39,3.7,1.92,6.08,.56,2.54,.78,4.82,.84,6.7-.07-1.76,.36-8.28,1.78-12.38,2.66-1,7.15-1.3,8.33-1.25Z"/>
      <path class="cls-6" d="M226.12,441.05c-1.23-.04-2.73-.18-4.39-.55-1.44-.32-2.68-.73-3.73-1.15-1.6-4.03-2.07-11.1-1.99-12.95-.06,1.88-.28,4.16-.84,6.7-.54,2.43-1.26,4.5-1.97,6.19-.96,.37-2.08,.72-3.34,1-1.67,.37-3.16,.51-4.39,.55,1.11-.05,5.09,.21,7.78,1.06,.69,1.67,1.39,3.7,1.92,6.08,.56,2.54,.78,4.82,.84,6.7-.07-1.76,.36-8.28,1.78-12.38,2.66-1,7.15-1.3,8.33-1.25Z"/>
      <path class="cls-5" d="M655.33,620.19c-1.23-.04-2.73-.18-4.39-.55-1.44-.32-2.68-.73-3.73-1.15-1.6-4.03-2.07-11.1-1.99-12.95-.06,1.88-.28,4.16-.84,6.7-.54,2.43-1.26,4.5-1.97,6.19-.96,.37-2.08,.72-3.34,1-1.67,.37-3.16,.51-4.39,.55,1.11-.05,5.09,.21,7.78,1.06,.69,1.67,1.39,3.7,1.92,6.08,.56,2.54,.78,4.82,.84,6.7-.07-1.76,.36-8.28,1.78-12.38,2.66-1,7.15-1.3,8.33-1.25Z"/>
      <path class="cls-2" d="M151.65,588.57c-1.23-.04-2.73-.18-4.39-.55-1.44-.32-2.68-.73-3.73-1.15-1.6-4.03-2.07-11.1-1.99-12.95-.06,1.88-.28,4.16-.84,6.7-.54,2.43-1.26,4.5-1.97,6.19-.96,.37-2.08,.72-3.34,1-1.67,.37-3.16,.51-4.39,.55,1.11-.05,5.09,.21,7.78,1.06,.69,1.67,1.39,3.7,1.92,6.08,.56,2.54,.78,4.82,.84,6.7-.07-1.76,.36-8.28,1.78-12.38,2.66-1,7.15-1.3,8.33-1.25Z"/>
      <g>
        <path class="cls-34" d="M286.14,581.32c1.65,17.52,3.43,35.03,4.9,52.57s2.02,34.32,1.61,51.53c-.81,34.24-4.71,68.3-6.65,102.48-1.1,19.3-1.56,38.65-.52,57.96,.09,1.62,1.32,3,3,3,1.56,0,3.09-1.37,3-3-1.86-34.38,1.09-68.74,3.78-102.99,2.69-34.21,4.83-68.41,2.27-102.7-1.46-19.64-3.55-39.25-5.4-58.86-.15-1.61-1.27-3-3-3-1.5,0-3.15,1.38-3,3h0Z"/>
        <path class="cls-35" d="M292.85,686.63c-.82-4.83-1.61-8.38-2.11-10.54-2.19-9.43-3.35-14.23-6.32-18.26-1.92-2.6-2.87-2.81-7.73-7.02-3.76-3.26-8.39-7.65-13.35-13.35,1.42-6.59,1.21-8.24,.7-8.43-1-.36-4.18,4.62-5.62,9.83-1.18,4.26-1.02,8.03-.7,10.54,2.67,3.84,6.12,8.2,10.54,12.64,3.67,3.69,7.27,6.7,10.54,9.13,1.89,3.14,3.76,6.42,5.62,9.83,4.09,7.53,7.57,14.83,10.54,21.78-.36-4.04-.99-9.59-2.11-16.16Z"/>
        <g>
          <path class="cls-4" d="M292.15,586.88c.85-.66,1.85-1.58,2.81-2.81,1.64-2.11,2.42-4.22,2.81-5.62,2.29,.85,5.37,2.32,8.43,4.92,6.21,5.28,8.38,11.88,9.13,14.75-1.17,1.8-2.46,4.15-3.51,7.02-1.52,4.14-1.99,7.85-2.11,10.54,.92,1.3,2.08,2.74,3.51,4.21,1.72,1.77,3.43,3.15,4.92,4.21-.23-2.34-.47-4.68-.7-7.02,.78-2.23,1.71-4.58,2.81-7.02,1.8-3.99,3.73-7.5,5.62-10.54,.52-2.66,.77-6.06,0-9.83-2.69-13.23-15.58-19.45-17.56-20.37-12.64,3.98-25.29,7.96-37.93,11.94-1.74,1.74-4.06,3.75-7.02,5.62-4.24,2.68-8.26,4.12-11.24,4.92-3.35-.56-7.66-.97-12.64-.7-5.06,.27-9.34,1.17-12.64,2.11-.47,.7-.94,1.4-1.4,2.11,.12,1.73,.34,3.62,.7,5.62,.69,3.82,1.74,7.12,2.81,9.83,.19-1.53,.58-3.47,1.4-5.62,.65-1.69,1.41-3.1,2.11-4.21,3.89,.06,7.87,.06,11.94,0,6.31-.1,12.4-.34,18.26-.7,2.22-1.54,4.6-3.4,7.02-5.62,4.25-3.89,7.46-7.83,9.83-11.24,.67,.77,1.81,1.89,3.51,2.81,1.67,.91,3.21,1.26,4.21,1.4"/>
          <path class="cls-7" d="M231.04,519.44c-1.58-.42-2.98-.59-3.91-.66-1.21-.1-2.27-.09-3.12-.04-.43-.03-3.34-.18-5.62,2.11-2.28,2.28-2.14,5.19-2.11,5.62-.12,2.34-.15,4.93,0,7.73,.13,2.54,.39,4.89,.7,7.02-1.65-.04-3.84,.08-6.32,.7-1.96,.49-3.65,1.18-5.03,1.9-1.66,.85-2.8,2.45-3.03,4.3-.12,.98-.24,1.95-.37,2.93,3.49,1.87,7.01,4.45,10.54,6.32,4.46,2.37,8.91,4.01,13.35,6.32,7.89,3.14,20.61,7.08,36.53,7.02,7.21-.02,13.84-.04,21.78-2.81,16.04-5.59,30.93-20.15,35.12-39.34,2.46-11.27,.57-21.08-1.4-27.4-.83-1.37-2.16-3.21-4.21-4.92-3.52-2.92-7.21-3.87-9.13-4.21-1.14-.19-2.87-.35-4.92,0-1.82,.31-3.25,.91-4.21,1.4-1.43,1.2-4,3.7-5.62,7.73-1.14,2.83-1.38,5.36-1.4,7.02-2-2.55-4.75-5.55-8.43-8.43-2.22-1.74-4.37-3.12-6.32-4.21-.7-.02-2.03,.04-3.51,.7-1.44,.65-2.35,1.57-2.81,2.11-1.13,1.48-2.38,3.35-3.51,5.62-1.45,2.9-2.3,5.58-2.81,7.73-1.16-1.38-3.66-3.98-7.73-5.62-3.54-1.43-6.68-1.5-8.43-1.4-.7,.03-2.46,.18-4.21,1.4-1.79,1.24-2.55,2.86-2.81,3.51-.34,2.34-.6,4.93-.7,7.73-.06,1.72-.05,3.37,0,4.92-2.55-1.64-4.84-2.42-6.32-2.81Z"/>
          <path class="cls-28" d="M305.88,527.45c-.37-1.81-.75-4.48-.63-7.7,.12-3.23,.39-10.64,5.68-16.68,1.15-1.31,3.05-3.14,5.96-4.72,1.51,.34,4.02,1.11,6.59,2.99,3.17,2.32,4.77,5.13,5.47,6.6,.18,3.1,.23,6.39,.1,9.86-.39,10.86-2.41,20.28-4.77,27.88-6.14-6.08-12.27-12.15-18.41-18.23Z"/>
          <path class="cls-28" d="M202.23,551.05c.14,1.64,.49,3.85,1.4,6.32,1.04,2.81,2.43,4.92,3.51,6.32,2.29,2.32,5.07,4.75,8.43,7.02,11.19,7.59,22.68,9.39,29.5,9.83-5.39-5.15-10.77-10.3-16.16-15.45-2.79-1.36-5.6-2.76-8.43-4.21-6.33-3.24-12.42-6.53-18.26-9.83Z"/>
          <path class="cls-4" d="M250.15,532.55c2.82,11.63,8.93,22.31,17.53,30.63,.35,.34,.88-.19,.53-.53-8.51-8.24-14.55-18.79-17.34-30.3-.11-.47-.84-.27-.72,.2h0Z"/>
          <path class="cls-19" d="M250.75,532.57c-.8-.25-1.96-.73-3.1-1.65-1.85-1.49-3.37-3.9-2.84-4.53,.13-.16,.75-.63,4.49,1.43,.87-4.26,1.53-5.31,2.01-5.29,.88,.03,2.02,3.68,1.09,6.94-.4,1.38-1.09,2.42-1.65,3.1Z"/>
          <path class="cls-4" d="M278.95,514.28c2.82,11.63,8.93,22.31,17.53,30.63,.35,.34,.88-.19,.53-.53-8.51-8.24-14.55-18.79-17.34-30.3-.11-.47-.84-.27-.72,.2h0Z"/>
          <path class="cls-19" d="M279.55,514.3c-.8-.25-1.96-.73-3.1-1.65-1.85-1.49-3.37-3.9-2.84-4.53,.13-.16,.75-.63,4.49,1.43,.87-4.26,1.53-5.31,2.01-5.29,.88,.03,2.02,3.68,1.09,6.94-.4,1.38-1.09,2.42-1.65,3.1Z"/>
          <path class="cls-4" d="M240.19,547.12c7.33,9.51,17.25,16.79,28.54,20.92,.45,.17,.65-.56,.2-.72-11.08-4.05-20.89-11.23-28.09-20.57-.29-.38-.94,0-.65,.38h0Z"/>
          <path class="cls-19" d="M240.79,546.95c-.84,.09-2.08,.13-3.5-.24-2.3-.61-4.67-2.2-4.44-2.98,.06-.2,.43-.88,4.68-.52-.94-4.24-.76-5.47-.31-5.65,.82-.34,3.34,2.54,3.82,5.9,.2,1.43,0,2.65-.24,3.5Z"/>
          <g>
            <path class="cls-4" d="M256.85,520.74c6.66,9.79,10.43,21.35,10.82,33.18,.02,.48,.77,.48,.75,0-.4-11.96-4.2-23.66-10.92-33.56-.27-.4-.92-.02-.65,.38h0Z"/>
            <path class="cls-19" d="M257.1,520.81c.35-.77,.78-1.94,.86-3.4,.14-2.37-.63-5.12-1.45-5.15-.21,0-.97,.14-1.96,4.29-3.74-2.21-4.96-2.43-5.27-2.06-.57,.67,1.37,3.97,4.41,5.47,1.29,.64,2.52,.82,3.4,.86Z"/>
          </g>
          <g>
            <path class="cls-4" d="M298.44,520.86c-.67,11.82-4.73,23.28-11.62,32.91-.28,.39,.37,.77,.65,.38,6.96-9.74,11.04-21.34,11.72-33.29,.03-.48-.72-.48-.75,0h0Z"/>
            <path class="cls-19" d="M298.6,521.02c.74-.39,1.8-1.07,2.76-2.18,1.56-1.8,2.61-4.45,1.98-4.97-.16-.13-.85-.48-4.16,2.21-1.62-4.03-2.46-4.95-2.93-4.85-.86,.18-1.33,3.99,.18,7.02,.64,1.29,1.51,2.18,2.18,2.76Z"/>
          </g>
          <path class="cls-28" d="M290.75,577.05c-1.46-1.84-3.7-5.16-4.92-9.83-1.55-5.95-.62-10.94,0-13.35,.74-3.66,2.7-10.76,8.43-17.56,3.98-4.72,8.3-7.54,11.24-9.13,2.34-.6,6.05-1.23,10.54-.7,5.61,.66,9.73,2.83,11.94,4.21,.52,3.77,.4,7.07,0,9.83-2.89,20.06-22.8,30.97-26.69,33.02l-6.32,2.11c-1.4,.47-2.81,.94-4.21,1.4Z"/>
          <path class="cls-28" d="M287.23,577.05c-6.74-4.53-12.08-8.2-15.45-10.54-12.38-8.57-16.94-12.04-24.59-14.05-5.43-1.43-9.79-1.43-11.24-1.4-4.06,.07-7.43,.75-9.83,1.4-.57,1.66-1.48,5.03-.7,9.13,.46,2.45,1.37,4.35,2.11,5.62,1.47,2.31,3.91,5.53,7.73,8.43,6.08,4.62,12.3,5.9,15.45,6.32,5.38-.09,11.01-.31,16.86-.7,5.37-.36,10.52-.84,15.45-1.4,1.4-.94,2.81-1.87,4.21-2.81Z"/>
          <path class="cls-28" d="M271.78,566.51c-4.16-5.21-4.98-6.56-5.62-7.73-4.17-7.66-4.28-14.97-4.21-17.56,.08-3.47,.31-9.52,4.21-15.45,1.24-1.89,2.54-3.28,3.51-4.21,.84-.65,2.26-1.57,4.21-2.11,2.82-.77,5.2-.3,6.32,0,3.44,2.19,5.98,4.5,7.73,6.32,4.48,4.66,6.79,9.22,7.73,11.24,1.03,2.22,1.68,4.17,2.11,5.62,.3,4.36,.37,9.32,0,14.75-.47,6.97-1.56,13.12-2.81,18.26-1.14,.89-2.78,1.96-4.92,2.81-2.83,1.12-5.36,1.37-7.02,1.4-3.64-4.11-7.41-8.55-11.24-13.35Z"/>
          <path class="cls-28" d="M216.61,523.6c-1.82,9.19-.33,18.8,4.2,27,.23,.42,.88,.04,.65-.38-4.43-8.02-5.91-17.44-4.13-26.43,.09-.47-.63-.67-.72-.2h0Z"/>
          <path class="cls-28" d="M222.64,552.82l.56,1.03c.09,.17,.35,.24,.51,.13s.24-.33,.13-.51l-.56-1.03c-.09-.17-.35-.24-.51-.13s-.24,.33-.13,.51h0Z"/>
          <path class="cls-28" d="M218.5,538.77c.48,0,.48-.75,0-.75s-.48,.75,0,.75h0Z"/>
          <path class="cls-28" d="M220.44,545.32c1.4,3.02,3.05,5.91,4.94,8.64,.27,.39,.92,.02,.65-.38-1.89-2.73-3.55-5.62-4.94-8.64-.2-.44-.85-.06-.65,.38h0Z"/>
          <path class="cls-28" d="M217.23,529.16c-.08,1.64,.03,3.28,.3,4.89,.03,.2,.28,.31,.46,.26,.21-.06,.3-.26,.26-.46-.26-1.55-.35-3.12-.27-4.69,.02-.48-.73-.48-.75,0h0Z"/>
          <path class="cls-28" d="M217.74,522.42c.72-1.53,2.02-2.76,3.62-3.33,.19-.07,.32-.25,.26-.46-.05-.18-.27-.33-.46-.26-1.77,.64-3.26,1.97-4.06,3.68-.09,.18-.05,.4,.13,.51,.16,.1,.43,.05,.51-.13h0Z"/>
          <path class="cls-28" d="M223.16,518.78l.7-.18c.09-.02,.18-.09,.22-.17s.07-.2,.04-.29-.09-.18-.17-.22-.19-.06-.29-.04l-.7,.18c-.09,.02-.18,.09-.22,.17s-.07,.2-.04,.29,.09,.18,.17,.22,.19,.06,.29,.04h0Z"/>
          <path class="cls-28" d="M226.01,518.65c3.99,.38,8.16,1.27,11.29,3.94,.37,.31,.9-.22,.53-.53-3.29-2.81-7.61-3.76-11.82-4.16-.48-.05-.48,.7,0,.75h0Z"/>
          <path class="cls-28" d="M239.77,506.53c-1.29,1.3-2.07,3.02-2.22,4.85-.04,.48,.71,.48,.75,0,.13-1.62,.85-3.16,2-4.31,.34-.34-.19-.87-.53-.53h0Z"/>
          <path class="cls-28" d="M237.39,514.11c-1.29,12.19,2.03,24.65,9.22,34.58,.28,.39,.93,.01,.65-.38-7.12-9.84-10.39-22.13-9.12-34.21,.05-.48-.7-.48-.75,0h0Z"/>
          <path class="cls-28" d="M242,538.37c.62,1.76,1.38,3.48,2.27,5.13,.23,.42,.88,.05,.65-.38-.86-1.59-1.59-3.24-2.19-4.95-.16-.45-.88-.26-.72,.2h0Z"/>
          <path class="cls-28" d="M246.47,546.74c2.16,3.48,4.4,7.01,7.71,9.53,.38,.29,.76-.36,.38-.65-3.19-2.43-5.35-5.9-7.44-9.26-.25-.41-.9-.03-.65,.38h0Z"/>
          <path class="cls-28" d="M223.37,524.02c.49,2.66,1.13,5.29,1.91,7.88,.14,.46,.86,.26,.72-.2-.78-2.59-1.42-5.22-1.91-7.88-.09-.47-.81-.27-.72,.2h0Z"/>
          <path class="cls-28" d="M226.23,534.28c2.12,5.83,5.13,11.27,8.93,16.17,.3,.38,.82-.15,.53-.53-3.72-4.79-6.67-10.14-8.74-15.84-.16-.45-.89-.26-.72,.2h0Z"/>
          <path class="cls-28" d="M228.48,543.01c.88,1.89,1.93,3.69,3.13,5.39,.28,.39,.93,.02,.65-.38-1.2-1.7-2.25-3.51-3.13-5.39-.2-.44-.85-.06-.65,.38h0Z"/>
          <path class="cls-28" d="M243.74,505.38c6.28-1.17,12.03,2.33,16.71,6.12,.37,.3,.91-.23,.53-.53-4.92-3.98-10.86-7.53-17.44-6.31-.47,.09-.27,.81,.2,.72h0Z"/>
          <path class="cls-28" d="M265.17,500.94c-3.69,5.91-5.1,13.02-4,19.89,.08,.48,.8,.27,.72-.2-1.07-6.68,.35-13.58,3.93-19.32,.26-.41-.39-.79-.65-.38h0Z"/>
          <path class="cls-28" d="M261.78,523.35c.32,2.5,1.02,4.93,2.07,7.22,.2,.44,.85,.06,.65-.38-.99-2.16-1.66-4.48-1.97-6.84-.06-.47-.81-.48-.75,0h0Z"/>
          <path class="cls-28" d="M266.98,499.33c1.47-2.32,4.6-4.87,7.41-3.12,.41,.26,.79-.39,.38-.65-3.18-1.99-6.75,.72-8.44,3.39-.26,.41,.39,.79,.65,.38h0Z"/>
          <path class="cls-28" d="M276.58,497.66c2.13,1.48,4.11,3.15,5.94,4.99,.34,.34,.87-.19,.53-.53-1.87-1.88-3.91-3.59-6.09-5.11-.4-.28-.77,.37-.38,.65h0Z"/>
          <path class="cls-28" d="M284.71,504.67c1.22,.98,2.34,2.07,3.36,3.25,.13,.15,.39,.14,.53,0,.15-.15,.13-.38,0-.53-1.02-1.19-2.14-2.27-3.36-3.25-.16-.13-.38-.15-.53,0-.13,.13-.16,.4,0,.53h0Z"/>
          <path class="cls-28" d="M289.9,501.34c-1.61,6.33-2.06,12.89-1.33,19.38,.05,.47,.8,.48,.75,0-.72-6.43-.28-12.91,1.31-19.18,.12-.47-.6-.67-.72-.2h0Z"/>
          <path class="cls-28" d="M288.8,522.43v1.14c0,.2,.17,.38,.38,.38s.38-.16,.38-.38v-1.14c0-.2-.17-.38-.38-.38s-.38,.16-.38,.38h0Z"/>
          <path class="cls-28" d="M294.27,495.78c1.72-2.64,4.9-4.13,8.02-3.8,.48,.05,.48-.7,0-.75-3.39-.35-6.82,1.32-8.67,4.17-.26,.41,.39,.78,.65,.38h0Z"/>
          <path class="cls-28" d="M305.51,492.43c3.92,1.51,7.39,4.02,10.07,7.25,.31,.37,.84-.16,.53-.53-2.77-3.33-6.37-5.88-10.4-7.44-.45-.17-.65,.55-.2,.72h0Z"/>
          <path class="cls-28" d="M202.91,549.21c.22-1.55,.82-3,1.77-4.25,.12-.16,.03-.42-.13-.51-.19-.11-.39-.03-.51,.13-.98,1.29-1.61,2.83-1.84,4.43-.03,.2,.05,.4,.26,.46,.18,.05,.43-.06,.46-.26h0Z"/>
          <path class="cls-28" d="M206.18,544.35c3.35-1.71,7.11-2.45,10.85-2.14,.48,.04,.48-.71,0-.75-3.88-.32-7.77,.47-11.23,2.24-.43,.22-.05,.87,.38,.65h0Z"/>
          <path class="cls-10" d="M292.17,575.31c-2.69-4.39-3.35-9.53-3.18-14.59,.2-5.55,1.2-11.11,2.46-16.51,.11-.47-.61-.67-.72-.2-1.3,5.6-2.34,11.37-2.49,17.13-.13,5.05,.61,10.18,3.29,14.55,.25,.41,.9,.03,.65-.38h0Z"/>
          <path class="cls-10" d="M295.34,534.86c-1.62,2.12-2.89,4.49-3.78,7.01-.16,.46,.56,.65,.72,.2,.87-2.46,2.12-4.76,3.7-6.83,.29-.38-.36-.76-.65-.38h0Z"/>
          <path class="cls-10" d="M307.87,526.11c4.13-2.28,8.95-3.14,13.61-2.4,.47,.07,.68-.65,.2-.72-4.87-.77-9.87,.09-14.19,2.48-.42,.23-.04,.88,.38,.65h0Z"/>
          <path class="cls-10" d="M323.08,525.31c.26,.11,.5,.24,.72,.4,.03,.02,.06,.04,.08,.06,.04,.03-.01,0-.02-.02,.01,.01,.03,.02,.04,.04,.05,.04,.1,.09,.16,.13,.1,.09,.2,.19,.3,.3,.13,.15,.4,.14,.53,0,.14-.16,.14-.37,0-.53-.39-.44-.89-.8-1.43-1.03-.1-.04-.18-.07-.29-.04-.09,.02-.18,.09-.22,.17-.05,.09-.07,.19-.04,.29,.03,.09,.09,.19,.17,.22h0Z"/>
          <path class="cls-10" d="M317.21,527.29l-4.84,8.38c-.24,.42,.41,.8,.65,.38l4.84-8.38c.24-.42-.41-.8-.65-.38h0Z"/>
          <path class="cls-10" d="M309.72,540.51c-4.49,10.26-8.39,20.76-11.68,31.46-.14,.46,.58,.66,.72,.2,3.27-10.64,7.14-21.08,11.6-31.28,.19-.44-.45-.82-.65-.38h0Z"/>
          <path class="cls-10" d="M310.88,549.48l-.91,2.01c-.08,.18-.06,.41,.13,.51,.16,.09,.43,.06,.51-.13l.91-2.01c.08-.18,.06-.41-.13-.51-.16-.09-.43-.06-.51,.13h0Z"/>
          <path class="cls-10" d="M306.7,558.1c-2.62,5.46-5.82,10.63-9.54,15.41-.29,.38,.23,.91,.53,.53,3.77-4.83,7.01-10.04,9.66-15.56,.21-.43-.44-.81-.65-.38h0Z"/>
          <path class="cls-10" d="M297.56,543.14c-3.06,9.77-3.81,20.12-2.22,30.24,.07,.48,.8,.27,.72-.2-1.57-9.98-.8-20.2,2.22-29.84,.14-.46-.58-.66-.72-.2h0Z"/>
          <path class="cls-10" d="M320.98,538.77c-2.33,10.6-5.68,21.35-12.83,29.75-.31,.37,.22,.9,.53,.53,7.24-8.51,10.66-19.35,13.02-30.08,.1-.47-.62-.67-.72-.2h0Z"/>
          <path class="cls-10" d="M268.9,530.88l.29,6.32c.02,.48,.77,.48,.75,0l-.29-6.32c-.02-.48-.77-.48-.75,0h0Z"/>
          <path class="cls-10" d="M270.83,545.18c3.16,12.11,8.08,24.05,16.76,33.27,.33,.35,.86-.18,.53-.53-8.6-9.13-13.44-20.96-16.57-32.94-.12-.47-.85-.27-.72,.2h0Z"/>
          <path class="cls-10" d="M273.11,524.85c-.93,18.47,6.05,36.13,14.41,52.24,.22,.43,.87,.05,.65-.38-8.3-16-15.23-33.52-14.31-51.87,.02-.48-.73-.48-.75,0h0Z"/>
          <path class="cls-10" d="M280,525.87c3.81,8.7,6.62,17.81,8.39,27.15,.09,.47,.81,.27,.72-.2-1.78-9.4-4.63-18.56-8.47-27.33-.19-.44-.84-.06-.65,.38h0Z"/>
          <path class="cls-10" d="M284.74,547.7c.35,.76,.63,1.57,.82,2.4,.05,.2,.27,.31,.46,.26,.2-.06,.31-.26,.26-.46-.2-.89-.51-1.75-.89-2.58-.09-.18-.35-.23-.51-.13-.19,.11-.22,.33-.13,.51h0Z"/>
          <path class="cls-10" d="M286.49,554.1l1.52,5.86c.12,.47,.84,.27,.72-.2l-1.52-5.86c-.12-.47-.84-.27-.72,.2h0Z"/>
          <path class="cls-10" d="M225.48,564.08c4.47,8.93,12.91,15.58,22.63,17.86,.47,.11,.67-.61,.2-.72-9.55-2.23-17.79-8.74-22.18-17.51-.22-.43-.86-.05-.65,.38h0Z"/>
          <path class="cls-10" d="M234.16,566.2c7.29,6.16,16.02,10.44,25.37,12.42,.47,.1,.67-.62,.2-.72-9.22-1.94-17.84-6.14-25.03-12.22-.37-.31-.9,.22-.53,.53h0Z"/>
          <path class="cls-10" d="M229.2,558.21c12.95,11.43,29.63,18.27,46.88,19.21,.48,.03,.48-.72,0-.75-17.04-.93-33.55-7.69-46.35-18.99-.36-.32-.89,.21-.53,.53h0Z"/>
          <path class="cls-10" d="M255.56,569.59c2.07,.91,4.22,1.63,6.42,2.13,.47,.11,.67-.62,.2-.72-2.14-.49-4.23-1.18-6.25-2.06-.44-.19-.82,.45-.38,.65h0Z"/>
          <path class="cls-10" d="M268.13,573.63l6.95,1.63c.47,.11,.67-.61,.2-.72l-6.95-1.63c-.47-.11-.67,.61-.2,.72h0Z"/>
          <path class="cls-10" d="M279.39,575.9l6.78,1.41c.47,.1,.67-.62,.2-.72l-6.78-1.41c-.47-.1-.67,.62-.2,.72h0Z"/>
          <path class="cls-10" d="M234.6,554.79c10.48,4.55,20.89,9.25,31.24,14.11,.43,.2,.82-.44,.38-.65-10.34-4.85-20.76-9.55-31.24-14.11-.44-.19-.82,.46-.38,.65h0Z"/>
          <path class="cls-10" d="M207.65,558.04l2.33,4c.24,.42,.89,.04,.65-.38l-2.33-4c-.24-.42-.89-.04-.65,.38h0Z"/>
          <path class="cls-10" d="M213.39,566.92c1.44,1.75,3.13,3.28,5,4.55,.4,.27,.78-.38,.38-.65-1.82-1.24-3.45-2.74-4.85-4.43-.13-.16-.4-.13-.53,0-.16,.15-.13,.38,0,.53h0Z"/>
          <path class="cls-10" d="M215.71,564.31c2.84,5.29,7.62,9.12,12.48,12.46,.4,.27,.77-.38,.38-.65-4.76-3.27-9.43-7.02-12.21-12.19-.23-.43-.88-.05-.65,.38h0Z"/>
          <path class="cls-10" d="M316.29,505.79c3.39,5.21,6.83,10.56,8.2,16.71,.11,.47,.83,.27,.72-.2-1.39-6.21-4.86-11.62-8.28-16.89-.26-.4-.91-.03-.65,.38h0Z"/>
          <path class="cls-10" d="M319.69,505.33c.95,1.34,1.81,2.73,2.59,4.18,.23,.43,.87,.05,.65-.38-.77-1.45-1.64-2.84-2.59-4.18-.12-.16-.33-.24-.51-.13-.16,.1-.25,.35-.13,.51h0Z"/>
          <path class="cls-10" d="M325.11,514.56c1.9,2.83,3.02,6.13,3.2,9.54,.03,.48,.78,.48,.75,0-.19-3.54-1.33-6.97-3.31-9.91-.27-.4-.92-.02-.65,.38h0Z"/>
          <path class="cls-17" d="M228.84,603.71c-.31-1.36-.35-2.78-.1-4.16,.04-.2-.05-.4-.26-.46-.18-.05-.43,.06-.46,.26-.27,1.52-.24,3.06,.1,4.56,.11,.47,.83,.27,.72-.2h0Z"/>
          <path class="cls-17" d="M229.35,597.99l.76-.95c.06-.08,.11-.16,.11-.27,0-.09-.04-.2-.11-.27s-.17-.11-.27-.11c-.09,0-.2,.03-.27,.11l-.76,.95c-.06,.08-.11,.16-.11,.27,0,.09,.04,.2,.11,.27s.17,.11,.27,.11c.09,0,.2-.03,.27-.11h0Z"/>
          <path class="cls-17" d="M233.44,595.86c6.51,.39,12.98,.98,19.45-.17,.47-.08,.27-.81-.2-.72-6.39,1.14-12.82,.53-19.25,.15-.48-.03-.48,.72,0,.75h0Z"/>
          <path class="cls-17" d="M258.19,594.01l.19-.19s.06-.07,.08-.12c.02-.04,.03-.09,.03-.14,0-.05,0-.1-.03-.14-.02-.05-.04-.09-.08-.12l-.08-.06c-.06-.03-.12-.05-.19-.05h-.1c-.06,.03-.12,.06-.17,.11l-.19,.19s-.06,.07-.08,.12c-.02,.04-.03,.09-.03,.14,0,.05,0,.1,.03,.14,.02,.05,.04,.09,.08,.12l.08,.06c.06,.03,.12,.05,.19,.05h.1c.06-.03,.12-.06,.17-.11h0Z"/>
          <path class="cls-17" d="M261.15,592.8c2.31-2.13,4.63-4.26,7.1-6.2s5.3-3.91,8.35-5.06c.45-.17,.25-.89-.2-.72-6.1,2.3-11.07,7.12-15.78,11.46-.36,.33,.18,.86,.53,.53h0Z"/>
          <path class="cls-17" d="M231.57,601.12c-1.69,3.1-2.65,6.54-2.81,10.07-.02,.48,.73,.48,.75,0,.15-3.39,1.07-6.71,2.7-9.69,.23-.42-.42-.8-.65-.38h0Z"/>
          <path class="cls-17" d="M234.5,601.12l1.52-.38c.19-.05,.32-.27,.26-.46s-.26-.31-.46-.26l-1.52,.38c-.19,.05-.32,.27-.26,.46s.26,.31,.46,.26h0Z"/>
          <path class="cls-17" d="M240.25,601.13c4.32,.43,8.67,.86,13.01,.92,3.79,.06,7.61-.36,11-2.17,.43-.23,.05-.88-.38-.65-3.52,1.89-7.52,2.17-11.44,2.05s-8.14-.5-12.19-.91c-.48-.05-.48,.7,0,.75h0Z"/>
          <path class="cls-17" d="M266.91,597.23c4.37-4.08,8.2-8.71,11.4-13.76,.26-.41-.39-.79-.65-.38-3.17,5-6.96,9.57-11.28,13.61-.35,.33,.18,.86,.53,.53h0Z"/>
          <path class="cls-17" d="M269.56,586.21c-1.97,1.69-3.93,3.39-5.9,5.08l-2.86,2.46c-.9,.78-1.81,1.76-2.96,2.15-.46,.15-.26,.88,.2,.72,1.05-.35,1.85-1.09,2.67-1.8l3.13-2.69,6.25-5.39c.37-.32-.17-.84-.53-.53h0Z"/>
          <path class="cls-17" d="M279.37,583.72c1.94,2.66,4.82,4.57,8.05,5.28,.47,.1,.67-.62,.2-.72-3.03-.66-5.77-2.42-7.6-4.93-.28-.39-.93-.01-.65,.38h0Z"/>
          <path class="cls-17" d="M287.14,587.97c1.77,.1,3.54-.33,5.07-1.21,.42-.24,.04-.89-.38-.65-1.42,.82-3.05,1.2-4.7,1.11-.48-.03-.48,.72,0,.75h0Z"/>
          <path class="cls-17" d="M300.8,573.61c1.71,.06,3.21,1,4.62,1.89s2.72,1.84,3.98,2.89c2.45,2.04,4.64,4.38,6.51,6.95,.28,.39,.93,.01,.65-.38-2.02-2.77-4.37-5.27-7.03-7.43-1.29-1.05-2.64-2.01-4.06-2.89s-2.94-1.73-4.67-1.79c-.48-.02-.48,.73,0,.75h0Z"/>
          <path class="cls-17" d="M317.17,588.05l1.73,3.59c.09,.18,.35,.23,.51,.13,.19-.11,.22-.33,.13-.51l-1.73-3.59c-.09-.18-.35-.23-.51-.13-.19,.11-.22,.33-.13,.51h0Z"/>
          <path class="cls-17" d="M320.31,597.86c-1.06,2.94-2.72,5.6-3.93,8.47s-1.82,6.06-1.74,9.23c.01,.48,.76,.48,.75,0-.08-3.3,.59-6.5,1.93-9.51,1.19-2.69,2.72-5.22,3.72-7.99,.16-.45-.56-.65-.72-.2h0Z"/>
          <path class="cls-17" d="M313.54,611.96c-.17,2.06-.04,4.14,.39,6.16,.1,.47,.82,.27,.72-.2-.41-1.96-.53-3.97-.36-5.96,.04-.48-.71-.48-.75,0h0Z"/>
          <path class="cls-17" d="M307.43,575.31c6.8,4.07,11.74,10.85,13.53,18.57,.11,.47,.83,.27,.72-.2-1.84-7.9-6.91-14.86-13.87-19.02-.42-.25-.79,.4-.38,.65h0Z"/>
          <path class="cls-17" d="M295.11,578.14c2.79,.18,5.25,1.57,7.5,3.14,1.97,1.37,3.81,2.93,5.47,4.67,3.3,3.44,5.83,7.6,6.96,12.26,.11,.47,.84,.27,.72-.2-1.19-4.88-3.88-9.24-7.38-12.82-1.72-1.76-3.63-3.34-5.66-4.74-2.29-1.58-4.79-2.88-7.62-3.06-.48-.03-.48,.72,0,.75h0Z"/>
        </g>
      </g>
      <g>
        <path class="cls-4" d="M372.53,484.48c-1.21-.71-2.66-1.73-4.1-3.16-2.48-2.46-3.84-5.04-4.57-6.79-2.81,1.48-6.55,3.89-10.06,7.77-7.13,7.86-8.83,16.75-9.32,20.59,1.81,2.13,3.87,4.94,5.71,8.48,2.65,5.09,3.88,9.81,4.49,13.26-.97,1.83-2.23,3.89-3.83,6.03-1.93,2.58-3.9,4.65-5.64,6.27-.09-3.06-.18-6.13-.27-9.19-1.38-2.74-2.98-5.63-4.81-8.6-2.99-4.85-6.08-9.06-9.03-12.67-1.11-3.35-2.01-7.7-1.65-12.7,1.26-17.54,16.86-27.74,19.27-29.26,17,3.02,34,6.04,51,9.06,2.54,1.96,5.87,4.16,10.02,6.08,5.93,2.75,11.36,3.93,15.34,4.47,4.24-1.28,9.73-2.54,16.22-3.03,6.58-.49,12.27-.05,16.69,.6,.72,.83,1.45,1.66,2.17,2.49,.13,2.26,.17,4.73,.04,7.38-.25,5.05-1.05,9.49-1.98,13.17-.5-1.94-1.34-4.39-2.76-7.02-1.12-2.08-2.34-3.77-3.43-5.09-5.01,.73-10.15,1.4-15.43,2-8.16,.93-16.07,1.64-23.71,2.16-3.12-1.62-6.51-3.62-10.02-6.08-6.15-4.32-10.95-8.87-14.59-12.87-.74,1.1-2.03,2.74-4.07,4.22-2.01,1.45-3.94,2.16-5.21,2.52"/>
        <path class="cls-7" d="M440.16,385.72c1.97-.8,3.75-1.26,4.94-1.51,1.55-.33,2.92-.49,4.02-.57,.55-.11,4.28-.79,7.61,1.78s3.63,6.34,3.66,6.91c.55,3.01,1.02,6.35,1.3,9.98,.25,3.3,.32,6.38,.27,9.19,2.13-.33,4.98-.54,8.28-.15,2.62,.31,4.91,.92,6.82,1.61,2.29,.82,4.03,2.7,4.64,5.05,.32,1.24,.64,2.48,.97,3.73-4.2,3.01-8.3,6.92-12.55,9.93-5.37,3.81-10.84,6.67-16.18,10.4-9.67,5.38-25.44,12.6-46.01,15.2-9.32,1.18-17.89,2.26-28.6,.02-21.66-4.53-43.34-20.84-51.97-44.92-5.07-14.14-4.26-27.13-2.78-35.62,.84-1.91,2.25-4.51,4.62-7.06,4.05-4.37,8.67-6.21,11.09-6.98,1.44-.44,3.64-.93,6.35-.82,2.4,.1,4.35,.63,5.68,1.11,2.04,1.31,5.79,4.11,8.55,9.04,1.94,3.46,2.68,6.69,2.99,8.84,2.16-3.63,5.21-7.96,9.47-12.3,2.57-2.62,5.12-4.76,7.46-6.5,.91-.14,2.63-.29,4.65,.32,1.98,.6,3.31,1.64,3.98,2.25,1.71,1.73,3.63,3.93,5.48,6.67,2.36,3.5,3.91,6.82,4.93,9.51,1.26-1.97,4.06-5.75,9.04-8.55,4.34-2.44,8.38-3.05,10.65-3.23,.91-.08,3.2-.17,5.68,1.11,2.52,1.3,3.77,3.27,4.22,4.07,.84,2.97,1.61,6.27,2.2,9.86,.37,2.22,.64,4.34,.82,6.35,3.02-2.55,5.85-3.94,7.7-4.69Z"/>
        <path class="cls-28" d="M344.82,408.61c.17-2.4,.22-5.91-.48-10.05-.7-4.15-2.3-13.68-10.14-20.59-1.71-1.5-4.46-3.54-8.49-5.09-1.9,.69-5.01,2.1-8.01,4.96-3.7,3.53-5.3,7.43-5.96,9.44,.29,4.03,.78,8.3,1.52,12.75,2.33,13.96,6.52,25.79,10.83,35.21,6.91-8.88,13.81-17.76,20.72-26.63Z"/>
        <path class="cls-28" d="M482.66,421.72c.1,2.15,.01,5.06-.75,8.4-.87,3.81-2.31,6.76-3.48,8.76-2.57,3.38-5.76,6.98-9.71,10.49-13.18,11.68-27.72,15.94-36.46,17.65,6.09-7.56,12.19-15.11,18.28-22.67,3.37-2.22,6.77-4.51,10.18-6.86,7.63-5.25,14.94-10.51,21.94-15.77Z"/>
        <path class="cls-4" d="M416.81,405.78c-1.66,15.29-7.71,29.98-17.3,42.01-.3,.37,.23,.91,.53,.53,9.73-12.2,15.84-27.02,17.52-42.54,.05-.48-.7-.48-.75,0h0Z"/>
        <path class="cls-19" d="M416.89,405.98c.99-.46,2.41-1.27,3.73-2.65,2.15-2.24,3.7-5.61,2.91-6.33-.2-.18-1.07-.68-5.56,2.6-1.84-5.35-2.87-6.6-3.49-6.5-1.13,.18-2,5.09-.24,9.15,.74,1.72,1.81,2.94,2.65,3.73Z"/>
        <path class="cls-4" d="M376.54,387.02c-1.66,15.29-7.71,29.98-17.3,42.01-.3,.37,.23,.91,.53,.53,9.73-12.2,15.84-27.02,17.52-42.54,.05-.48-.7-.48-.75,0h0Z"/>
        <path class="cls-19" d="M376.63,387.22c.99-.46,2.41-1.27,3.73-2.65,2.15-2.24,3.7-5.61,2.91-6.33-.2-.18-1.07-.68-5.56,2.6-1.84-5.35-2.87-6.6-3.49-6.5-1.13,.18-2,5.09-.24,9.15,.74,1.72,1.81,2.94,2.65,3.73Z"/>
        <path class="cls-4" d="M432.2,422.63c-7.75,13.34-19.26,24.3-32.96,31.41-.43,.22-.05,.87,.38,.65,13.8-7.16,25.41-18.23,33.23-31.68,.24-.42-.4-.8-.65-.38h0Z"/>
        <path class="cls-19" d="M432.18,422.88c1.1-.02,2.71-.18,4.49-.9,2.87-1.17,5.66-3.62,5.24-4.6-.11-.25-.7-1.06-6.14,.11,.5-5.64,.06-7.2-.54-7.36-1.11-.3-3.89,3.84-3.94,8.26-.02,1.88,.46,3.43,.9,4.49Z"/>
        <g>
          <path class="cls-4" d="M406.27,391.35c-7.03,13.88-10,29.63-8.5,45.12,.05,.48,.8,.48,.75,0-1.49-15.36,1.43-30.97,8.4-44.74,.22-.43-.43-.81-.65-.38h0Z"/>
          <path class="cls-19" d="M406.73,391.86c-.58-.93-1.33-2.37-1.69-4.25-.58-3.04-.04-6.72,1.01-6.9,.26-.04,1.27,.01,3.25,5.21,4.46-3.49,6-3.97,6.47-3.55,.85,.77-1.1,5.36-4.78,7.8-1.56,1.04-3.12,1.48-4.25,1.69Z"/>
        </g>
        <g>
          <path class="cls-4" d="M352.49,399.01c2.86,15.29,10.11,29.59,20.72,40.97,.33,.35,.86-.18,.53-.53-10.53-11.28-17.68-25.47-20.53-40.64-.09-.47-.81-.27-.72,.2h0Z"/>
          <path class="cls-19" d="M353.16,399.09c-1.03-.38-2.5-1.08-3.93-2.35-2.31-2.06-4.12-5.31-3.4-6.09,.18-.2,1.02-.76,5.75,2.16,1.42-5.48,2.35-6.8,2.98-6.75,1.14,.09,2.38,4.92,.95,9.1-.61,1.77-1.58,3.07-2.35,3.93Z"/>
        </g>
        <path class="cls-28" d="M372.69,470.14c1.58-2.63,3.92-7.28,4.7-13.53,1-7.95-1.04-14.24-2.24-17.24-1.57-4.61-5.29-13.45-13.83-21.27-5.93-5.43-11.98-8.35-16.05-9.91-3.12-.38-8.02-.58-13.73,.86-7.14,1.8-12.1,5.29-14.72,7.45-.05,4.95,.67,9.2,1.65,12.7,7.09,25.43,34.64,36.18,40.02,38.17,2.84,.55,5.68,1.11,8.52,1.66,1.89,.37,3.79,.74,5.68,1.11Z"/>
        <path class="cls-28" d="M377.23,469.55c7.95-6.98,14.23-12.62,18.2-16.2,14.55-13.14,19.86-18.39,29.4-22.27,6.77-2.75,12.4-3.49,14.28-3.7,5.25-.59,9.72-.28,12.94,.17,1.02,2.05,2.75,6.25,2.44,11.68-.19,3.24-1.03,5.85-1.78,7.61-1.51,3.23-4.12,7.8-8.57,12.18-7.08,6.98-14.9,9.68-18.9,10.76-6.96,.79-14.27,1.45-21.89,1.92-6.99,.43-13.73,.68-20.2,.78-1.97-.97-3.94-1.95-5.92-2.92Z"/>
        <path class="cls-28" d="M395.43,453.35c4.5-7.42,5.34-9.31,5.96-10.92,4.1-10.59,3.01-20.06,2.5-23.39-.69-4.46-1.99-12.24-8.04-19.26-1.92-2.23-3.83-3.82-5.24-4.86-1.19-.7-3.18-1.66-5.8-2.02-3.77-.52-6.77,.48-8.17,1.06-4.07,3.41-6.97,6.82-8.92,9.46-5,6.76-7.23,13.05-8.1,15.81-.95,3.03-1.48,5.67-1.78,7.61,.35,5.68,1.09,12.1,2.47,19.06,1.78,8.93,4.22,16.68,6.69,23.12,1.62,.95,3.92,2.07,6.82,2.8,3.84,.97,7.15,.88,9.31,.64,4.02-5.92,8.14-12.29,12.28-19.13Z"/>
        <path class="cls-28" d="M458.67,388.97c3.84,11.36,3.51,23.85-.9,35.01-.18,.45,.55,.64,.72,.2,4.46-11.26,4.77-23.93,.9-35.41-.15-.45-.88-.26-.72,.2h0Z"/>
        <path class="cls-28" d="M455.78,427.14l-.55,1.42c-.03,.09,0,.21,.04,.29s.13,.15,.22,.17c.22,.05,.38-.07,.46-.26l.55-1.42c.03-.09,0-.21-.04-.29s-.13-.15-.22-.17c-.22-.05-.38,.07-.46,.26h0Z"/>
        <path class="cls-28" d="M459.53,408.47c.48,0,.48-.75,0-.75s-.48,.75,0,.75h0Z"/>
        <path class="cls-28" d="M457.38,417.08c-1.29,4.1-2.93,8.08-4.9,11.9-.22,.43,.43,.81,.65,.38,2-3.88,3.67-7.92,4.97-12.08,.15-.46-.58-.66-.72-.2h0Z"/>
        <path class="cls-28" d="M458.78,396.12c.36,2.03,.5,4.08,.42,6.14-.02,.48,.73,.48,.75,0,.08-2.12-.08-4.25-.45-6.34-.08-.47-.81-.27-.72,.2h0Z"/>
        <path class="cls-28" d="M458.54,386.85c-1.31-2.04-3.4-3.53-5.77-4.06-.47-.1-.67,.62-.2,.72,2.18,.49,4.12,1.83,5.32,3.71,.26,.41,.91,.03,.65-.38h0Z"/>
        <path class="cls-28" d="M450.3,382.69l-.93-.11c-.09-.01-.2,.05-.27,.11-.07,.07-.11,.17-.11,.27s.04,.2,.11,.27l.08,.06c.06,.03,.12,.05,.19,.05l.93,.11c.09,.01,.2-.05,.27-.11,.07-.07,.11-.17,.11-.27s-.04-.2-.11-.27l-.08-.06c-.06-.03-.12-.05-.19-.05h0Z"/>
        <path class="cls-28" d="M446.36,383.01c-5.28,1.21-10.69,3.14-14.41,7.27-.32,.36,.21,.89,.53,.53,3.64-4.04,8.91-5.89,14.08-7.07,.47-.11,.27-.83-.2-.72h0Z"/>
        <path class="cls-28" d="M426.16,371.16c1.73,1.34,2.94,3.25,3.39,5.4,.1,.47,.82,.27,.72-.2-.48-2.25-1.76-4.32-3.59-5.73-.16-.12-.37-.15-.53,0-.13,.13-.16,.41,0,.53h0Z"/>
        <path class="cls-28" d="M430.21,380.06c3.68,15.34,1.5,31.82-6.04,45.68-.23,.42,.42,.8,.65,.38,7.64-14.04,9.84-30.71,6.11-46.25-.11-.47-.84-.27-.72,.2h0Z"/>
        <path class="cls-28" d="M428.33,411.84c-.5,2.34-1.18,4.64-2.03,6.88-.17,.45,.55,.65,.72,.2,.86-2.24,1.54-4.54,2.03-6.88,.1-.47-.62-.67-.72-.2h0Z"/>
        <path class="cls-28" d="M424.02,423.19c-2.16,4.75-4.39,9.6-8.15,13.33-.34,.34,.19,.87,.53,.53,3.8-3.77,6.08-8.67,8.27-13.48,.2-.44-.45-.82-.65-.38h0Z"/>
        <path class="cls-28" d="M449.97,390.28c-.19,3.48-.57,6.95-1.13,10.39-.08,.47,.64,.68,.72,.2,.58-3.51,.97-7.04,1.16-10.59,.03-.48-.72-.48-.75,0h0Z"/>
        <path class="cls-28" d="M448.01,403.91c-1.74,7.76-4.67,15.2-8.69,22.06-.24,.42,.4,.8,.65,.38,4.06-6.92,7.02-14.42,8.77-22.24,.11-.47-.62-.67-.72-.2h0Z"/>
        <path class="cls-28" d="M446.6,415.44c-.81,2.56-1.85,5.03-3.1,7.4-.23,.43,.42,.81,.65,.38,1.28-2.43,2.34-4.96,3.17-7.58,.15-.46-.58-.66-.72-.2h0Z"/>
        <path class="cls-28" d="M421.45,368.83c-8.6-.48-15.67,5.11-21.28,11-.33,.35,.2,.88,.53,.53,5.48-5.75,12.34-11.24,20.75-10.78,.48,.03,.48-.72,0-.75h0Z"/>
        <path class="cls-28" d="M392.32,368.11c5.61,6.83,8.56,15.56,8.3,24.39-.01,.48,.74,.48,.75,0,.27-9.04-2.78-17.94-8.52-24.92-.31-.37-.83,.16-.53,.53h0Z"/>
        <path class="cls-28" d="M400.25,395.98c0,3.17-.48,6.3-1.42,9.32-.14,.46,.58,.66,.72,.2,.96-3.08,1.44-6.3,1.44-9.52,0-.48-.75-.48-.75,0h0Z"/>
        <path class="cls-28" d="M391.02,365.21c-2.61-3.14-7.59-5.93-11.31-2.87-.37,.31,.16,.83,.53,.53,3.39-2.78,7.95,.1,10.25,2.87,.31,.37,.84-.16,.53-.53h0Z"/>
        <path class="cls-28" d="M377.12,364.57c-2.55,2.32-4.88,4.87-6.98,7.6-.29,.38,.36,.76,.65,.38,2.06-2.69,4.36-5.18,6.86-7.45,.36-.33-.17-.85-.53-.53h0Z"/>
        <path class="cls-28" d="M367.69,375.07c-1.43,1.49-2.72,3.11-3.85,4.84-.27,.4,.38,.78,.65,.38,1.1-1.68,2.35-3.24,3.73-4.69,.33-.35-.2-.88-.53-.53h0Z"/>
        <path class="cls-28" d="M360.28,372.5c3.11,7.84,4.78,16.15,4.93,24.59,0,.48,.76,.48,.75,0-.15-8.49-1.82-16.89-4.95-24.79-.18-.44-.9-.25-.72,.2h0Z"/>
        <path class="cls-28" d="M365.18,399.34l.19,1.47c.01,.1,.03,.19,.11,.27,.07,.07,.17,.11,.27,.11s.2-.04,.27-.11c.06-.07,.12-.17,.11-.27l-.19-1.47c-.01-.1-.03-.19-.11-.27-.07-.07-.17-.11-.27-.11s-.2,.04-.27,.11c-.06,.07-.12,.17-.11,.27h0Z"/>
        <path class="cls-28" d="M355.16,365.2c-2.85-3.35-7.54-4.86-11.81-3.84-.47,.11-.27,.83,.2,.72,4.03-.95,8.4,.5,11.08,3.65,.31,.37,.84-.16,.53-.53h0Z"/>
        <path class="cls-28" d="M339.05,362.54c-4.93,2.68-9.12,6.6-12.13,11.34-.26,.41,.39,.79,.65,.38,2.94-4.64,7.03-8.45,11.86-11.07,.42-.23,.05-.88-.38-.65h0Z"/>
        <path class="cls-28" d="M482.3,419.17c-.57-2.06-1.66-3.95-3.16-5.47-.34-.35-.87,.19-.53,.53,1.41,1.43,2.43,3.21,2.96,5.14,.13,.46,.85,.27,.72-.2h0Z"/>
        <path class="cls-28" d="M476.74,412.91c-4.75-1.7-9.89-2.03-14.83-.98-.47,.1-.27,.82,.2,.72,4.81-1.03,9.8-.68,14.43,.98,.46,.16,.65-.56,.2-.72h0Z"/>
        <path class="cls-10" d="M371.33,468.52c2.77-6.17,2.84-12.98,1.79-19.56-1.17-7.3-3.45-14.49-6.03-21.4-.17-.45-.89-.25-.72,.2,2.44,6.51,4.57,13.25,5.81,20.1s1.38,13.9-1.49,20.28c-.2,.44,.45,.82,.65,.38h0Z"/>
        <path class="cls-10" d="M359.03,416.98c2.4,2.42,4.4,5.19,5.93,8.23,.22,.43,.87,.05,.65-.38-1.56-3.09-3.61-5.92-6.05-8.39-.34-.34-.87,.19-.53,.53h0Z"/>
        <path class="cls-10" d="M342.32,406.41c-5.91-2.32-12.47-2.6-18.56-.82-.46,.14-.27,.86,.2,.72,5.97-1.75,12.37-1.46,18.16,.82,.45,.18,.64-.55,.2-.72h0Z"/>
        <path class="cls-10" d="M321.77,408.03c-.69,.4-1.28,.96-1.72,1.62-.11,.16-.04,.42,.13,.51,.19,.1,.4,.04,.51-.13,.05-.07,.1-.14,.15-.22s-.05,.06,0,0c.01-.01,.02-.03,.03-.04,.03-.03,.06-.07,.08-.1,.12-.14,.24-.27,.37-.39,.06-.06,.13-.12,.2-.18,.03-.03,.07-.06,.1-.08,.02-.01,.06-.06,0,0,.02-.01,.04-.03,.05-.04,.15-.11,.3-.21,.45-.3,.17-.1,.24-.34,.13-.51s-.33-.24-.51-.13h0Z"/>
        <path class="cls-10" d="M329.46,410.8c2.55,3.34,5.1,6.67,7.65,10.01,.29,.38,.94,0,.65-.38-2.55-3.34-5.1-6.67-7.65-10.01-.29-.38-.94,0-.65,.38h0Z"/>
        <path class="cls-10" d="M341.35,426.61c7.5,12.46,14.27,25.33,20.3,38.57,.2,.44,.85,.06,.65-.38-6.02-13.23-12.8-26.11-20.3-38.57-.25-.41-.9-.04-.65,.38h0Z"/>
        <path class="cls-10" d="M341.36,438.4l1.51,2.44c.11,.17,.34,.24,.51,.13s.24-.34,.13-.51l-1.51-2.44c-.11-.17-.34-.24-.51-.13s-.24,.34-.13,.51h0Z"/>
        <path class="cls-10" d="M348.19,448.84c4.34,6.68,9.39,12.87,15.06,18.46,.34,.34,.87-.19,.53-.53-5.62-5.55-10.63-11.69-14.94-18.31-.26-.4-.91-.03-.65,.38h0Z"/>
        <path class="cls-10" d="M357.43,427.87c5.54,11.95,8.22,25.08,7.85,38.24-.01,.48,.74,.48,.75,0,.38-13.3-2.36-26.55-7.95-38.62-.2-.44-.85-.06-.65,.38h0Z"/>
        <path class="cls-10" d="M326.41,426.06c4.83,13.44,11.04,26.9,21.81,36.64,.36,.32,.89-.21,.53-.53-10.67-9.66-16.82-22.99-21.61-36.31-.16-.45-.89-.26-.72,.2h0Z"/>
        <path class="cls-10" d="M392.31,406.91c.23,2.74,.46,5.47,.69,8.21,.04,.48,.79,.48,.75,0-.23-2.74-.46-5.47-.69-8.21-.04-.48-.79-.48-.75,0h0Z"/>
        <path class="cls-10" d="M392.22,425.57c-2.03,16.01-6.34,32.13-15.92,45.36-.28,.39,.37,.77,.65,.38,9.67-13.34,13.98-29.6,16.03-45.74,.06-.48-.69-.47-.75,0h0Z"/>
        <path class="cls-10" d="M385.87,399.92c3.33,18.28,.37,36.96-4.87,54.58-1.49,5.01-3.17,9.96-4.95,14.87-.17,.45,.56,.65,.72,.2,6.37-17.47,11.47-35.84,11.27-54.58-.05-5.12-.53-10.23-1.45-15.27-.09-.47-.81-.27-.72,.2h0Z"/>
        <path class="cls-10" d="M377.18,401.94c-3.49,11.95-5.62,24.27-6.34,36.7-.03,.48,.72,.48,.75,0,.72-12.36,2.84-24.61,6.31-36.5,.14-.46-.59-.66-.72-.2h0Z"/>
        <path class="cls-10" d="M374.71,430.94c-.36,1.13-.59,2.28-.7,3.46-.02,.2,.19,.38,.38,.38,.22,0,.36-.17,.38-.38,.11-1.11,.34-2.2,.67-3.26,.15-.46-.58-.66-.72-.2h0Z"/>
        <path class="cls-10" d="M373.48,439.73l-.97,7.83c-.06,.48,.69,.47,.75,0l.97-7.83c.06-.48-.69-.47-.75,0h0Z"/>
        <path class="cls-10" d="M454.01,442.15c-4.18,12.03-13.78,21.87-25.71,26.34-.45,.17-.25,.89,.2,.72,12.19-4.56,21.96-14.56,26.23-26.86,.16-.46-.57-.65-.72-.2h0Z"/>
        <path class="cls-10" d="M443.32,446.08c-8.27,9.07-18.72,15.99-30.32,20.04-.45,.16-.26,.88,.2,.72,11.71-4.09,22.29-11.06,30.65-20.23,.32-.36-.2-.89-.53-.53h0Z"/>
        <path class="cls-10" d="M448.38,434.92c-11.45,13.12-26.35,23.1-42.82,28.73-4.58,1.56-9.26,2.78-14.01,3.66-.47,.09-.27,.81,.2,.72,17.12-3.16,33.29-10.89,46.57-22.13,3.79-3.21,7.33-6.71,10.6-10.45,.32-.36-.21-.89-.53-.53h0Z"/>
        <path class="cls-10" d="M416.41,453.89c-2.46,1.48-5.05,2.73-7.74,3.73-.45,.17-.25,.89,.2,.72,2.75-1.02,5.41-2.29,7.92-3.81,.41-.25,.04-.9-.38-.65h0Z"/>
        <path class="cls-10" d="M401.04,461.13c-2.9,1.09-5.8,2.18-8.7,3.27-.45,.17-.25,.89,.2,.72,2.9-1.09,5.8-2.18,8.7-3.27,.45-.17,.25-.89-.2-.72h0Z"/>
        <path class="cls-10" d="M386.88,465.94c-2.84,.99-5.68,1.97-8.52,2.96-.45,.16-.26,.88,.2,.72l8.52-2.96c.45-.16,.26-.88-.2-.72h0Z"/>
        <path class="cls-10" d="M441,431.27c-12.77,7.63-25.44,15.46-37.98,23.46-.41,.26-.03,.91,.38,.65,12.55-8,25.21-15.82,37.98-23.46,.41-.25,.04-.9-.38-.65h0Z"/>
        <path class="cls-10" d="M476.03,431.37l-2.33,5.55c-.08,.19,.09,.41,.26,.46,.22,.06,.38-.08,.46-.26l2.33-5.55c.08-.19-.09-.41-.26-.46-.22-.06-.38,.08-.46,.26h0Z"/>
        <path class="cls-10" d="M470.2,443.6c-1.53,2.44-3.4,4.64-5.55,6.55-.36,.32,.17,.85,.53,.53,2.19-1.95,4.1-4.22,5.67-6.71,.26-.41-.39-.79-.65-.38h0Z"/>
        <path class="cls-10" d="M466.67,440.81c-2.73,7.17-8.17,12.79-13.78,17.83-.36,.32,.17,.85,.53,.53,5.72-5.13,11.2-10.86,13.98-18.16,.17-.45-.55-.65-.72-.2h0Z"/>
        <path class="cls-10" d="M326.98,382.01c-3.55,7.41-7.12,14.98-7.88,23.27-.04,.48,.71,.48,.75,0,.75-8.14,4.29-15.61,7.78-22.89,.21-.43-.44-.81-.65-.38h0Z"/>
        <path class="cls-10" d="M322.51,381.99c-1.02,1.91-1.91,3.89-2.68,5.92-.17,.45,.55,.65,.72,.2,.74-1.97,1.61-3.88,2.6-5.74,.23-.43-.42-.81-.65-.38h0Z"/>
        <path class="cls-10" d="M317.05,394.81c-2.05,4.11-2.97,8.71-2.62,13.3,.04,.48,.79,.48,.75,0-.33-4.45,.53-8.92,2.52-12.92,.21-.43-.43-.81-.65-.38h0Z"/>
        <path class="cls-17" d="M457.98,494.26c.18-1.94-.03-3.9-.61-5.75-.15-.46-.87-.26-.72,.2,.57,1.8,.77,3.67,.59,5.55-.05,.48,.7,.48,.75,0h0Z"/>
        <path class="cls-17" d="M456.07,486.25l-1.14-1.1c-.14-.14-.39-.15-.53,0s-.15,.38,0,.53l1.14,1.1c.14,.14,.39,.15,.53,0s.15-.38,0-.53h0Z"/>
        <path class="cls-17" d="M449.71,483.99c-8.26,1.58-16.46,3.43-24.92,3.03-.48-.02-.48,.73,0,.75,8.53,.41,16.79-1.46,25.12-3.05,.47-.09,.27-.81-.2-.72h0Z"/>
        <path class="cls-17" d="M418.08,485.88l-.28-.21s-.09-.04-.14-.04c-.05-.01-.1,0-.15,0-.05,.01-.09,.03-.13,.07-.04,.03-.07,.06-.1,.11l-.04,.09c-.02,.07-.02,.13,0,.2l.04,.09c.03,.06,.08,.1,.13,.13l.28,.21s.09,.04,.14,.04c.05,.01,.1,0,.15,0,.05-.01,.09-.03,.13-.07,.04-.03,.07-.06,.1-.11l.04-.09c.02-.07,.02-.13,0-.2l-.04-.09c-.03-.06-.08-.1-.13-.13h0Z"/>
        <path class="cls-17" d="M414.05,484.81c-6.77-4.78-13.96-10.16-22.17-12.1-.47-.11-.67,.61-.2,.72,8.14,1.92,15.27,7.28,21.99,12.02,.4,.28,.77-.37,.38-.65h0Z"/>
        <path class="cls-17" d="M452.46,491.8c2.64,3.62,4.41,7.79,5.18,12.21,.08,.47,.81,.27,.72-.2-.78-4.47-2.58-8.72-5.25-12.39-.28-.39-.93-.01-.65,.38h0Z"/>
        <path class="cls-17" d="M449.46,490.95l-2.02-.24c-.2-.02-.38,.19-.38,.38,0,.22,.17,.35,.38,.38l2.02,.24c.2,.02,.38-.19,.38-.38,0-.22-.17-.35-.38-.38h0Z"/>
        <path class="cls-17" d="M441.79,491.93c-5.12,1.2-10.28,2.35-15.48,3.19s-10.38,1.13-15.29-.75c-.45-.17-.65,.55-.2,.72,4.75,1.82,9.85,1.63,14.8,.89,5.5-.82,10.95-2.07,16.37-3.33,.47-.11,.27-.83-.2-.72h0Z"/>
        <path class="cls-17" d="M407.35,491.5c-6.27-4.49-11.94-9.78-16.87-15.72-.31-.37-.84,.16-.53,.53,4.97,5.98,10.7,11.3,17.02,15.83,.39,.28,.77-.37,.38-.65h0Z"/>
        <path class="cls-17" d="M401.11,479.13l8.75,5.76,4.23,2.79c1.29,.85,2.56,1.83,4.1,2.14,.47,.09,.67-.63,.2-.72-1.57-.32-2.89-1.39-4.2-2.25l-4.23-2.79c-2.82-1.86-5.65-3.72-8.47-5.58-.4-.27-.78,.38-.38,.65h0Z"/>
        <path class="cls-17" d="M387.73,476.47c-1.95,3.57-5.19,6.36-9.02,7.73-.45,.16-.26,.89,.2,.72,4.01-1.44,7.42-4.33,9.47-8.08,.23-.42-.42-.8-.65-.38h0Z"/>
        <path class="cls-17" d="M358.96,466.55c-2.12,.34-3.85,1.62-5.48,2.94-1.75,1.41-3.41,2.95-4.96,4.59-3.02,3.19-5.61,6.77-7.72,10.63-.23,.42,.42,.8,.65,.38,2.03-3.71,4.5-7.16,7.39-10.26,1.4-1.5,2.9-2.91,4.47-4.23,1.73-1.44,3.57-2.95,5.85-3.32,.48-.08,.27-.8-.2-.72h0Z"/>
        <path class="cls-17" d="M339.6,488.5c-.54,1.64-1.09,3.29-1.63,4.93-.15,.46,.57,.66,.72,.2,.54-1.64,1.09-3.29,1.63-4.93,.15-.46-.57-.66-.72-.2h0Z"/>
        <path class="cls-17" d="M337.22,502.36c1.79,3.47,4.24,6.53,6.25,9.87,2.16,3.6,3.52,7.56,3.96,11.73,.05,.48,.8,.48,.75,0-.43-4.04-1.66-7.92-3.68-11.45s-4.73-6.83-6.64-10.53c-.22-.43-.87-.05-.65,.38h0Z"/>
        <path class="cls-17" d="M348.25,519.22c.55,2.56,.72,5.18,.52,7.8-.04,.48,.71,.48,.75,0,.21-2.68,.02-5.37-.54-8-.1-.47-.82-.27-.72,.2h0Z"/>
        <path class="cls-17" d="M350.29,470.04c-8.28,6.54-13.61,16.35-14.66,26.84-.05,.48,.7,.48,.75,0,1.03-10.3,6.32-19.9,14.44-26.31,.38-.3-.16-.83-.53-.53h0Z"/>
        <path class="cls-17" d="M367.08,471.44c-3.31,.64-6.13,2.52-8.64,4.69s-4.8,4.59-6.81,7.22c-4.05,5.29-6.89,11.46-7.62,18.12-.05,.48,.7,.48,.75,0,.7-6.38,3.43-12.33,7.27-17.42,1.91-2.54,4.1-4.87,6.48-6.99,2.54-2.26,5.37-4.25,8.77-4.91,.47-.09,.27-.81-.2-.72h0Z"/>
      </g>
      <g>
        <path class="cls-7" d="M397.06,588.37c-.86-4.15-1.16-8.48-1.16-8.48-1.2-17.06,4.6-30.45,9.1-38.38,2.78-1.2,6.69-2.5,11.56-3.01,8.8-.91,16.04,1.28,19.87,2.74,1.36-2.94,4.09-7.74,9.29-12.08,4.49-3.74,9.06-5.66,12.08-6.66,3.22-.31,8.57-.41,14.9,1.4,7.59,2.17,12.83,6.02,15.5,8.27,3-1.62,6.67-3.27,11-4.62,8.37-2.61,15.97-3.08,21.48-2.95,3.35,1.16,8.22,3.26,13.28,7.09,6.06,4.58,9.7,9.59,11.67,12.78,2.88-.22,6.21-.27,9.93,.05,7.25,.63,13.29,2.47,17.67,4.19,3.1,3.04,6.86,7.4,10.02,13.21,6.46,11.88,6.6,22.87,6.26,28.24,2.25,.56,5.14,1.5,8.29,3.11,3.68,1.89,6.43,4.04,8.31,5.74,1.2,2.12,2.74,5.44,3.38,9.66,.95,6.27-.59,11.16-1.56,13.58-3.94,7.23-10.96,17.79-22.97,27.05-33.17,25.59-75.64,19.06-84.79,17.65-59.15-9.1-98.64-56.94-103.11-78.6Z"/>
        <ellipse class="cls-4" cx="494.58" cy="625.59" rx="24.8" ry="35.38" transform="translate(-252.39 904.9) rotate(-72.17)"/>
        <path class="cls-26" d="M485.54,702.4c-4.05-1.29-8.11-2.58-12.16-3.87-3.56-1.56-8.64-4.24-13.85-8.7-5.19-4.44-8.53-8.97-10.56-12.19-6.81-2.47-14.99-6.31-23.25-12.4-25.24-18.64-32.9-44.9-35.12-54.12-.23-3.21-.19-8.6,2.1-14.6,2.87-7.5,7.75-12.02,10.38-14.12,4.87,.96,10.29,2.41,16.02,4.62,19.3,7.43,32.19,19.53,39.34,27.54,2.33,4.62,4.74,10.22,6.73,16.7,1.69,5.49,2.75,10.53,3.41,14.92,5.85-4.74,11.7-9.48,17.54-14.22,3.06-1.46,7.12-3.02,12.1-4.03,7.62-1.53,14.26-1.12,18.74-.48,3.91,2.7,9.73,7.37,14.99,14.55,5.12,6.99,7.65,13.56,8.95,17.88,.02,3.51,.05,7.01,.07,10.52-1.54,4.96-4.92,13.36-12.56,21.3-9.52,9.9-20.53,13.78-25.95,15.3-5.65-1.54-11.3-3.07-16.95-4.61Z"/>
        <path class="cls-4" d="M518.25,513.27c-18.33,17.27-25.22,42.77-24.7,67.32,.17,7.84,1.03,15.65,2.34,23.38,.08,.47,.8,.27,.72-.2-4.27-25.1-3.46-52.25,9.9-74.65,3.37-5.65,7.48-10.82,12.27-15.32,.35-.33-.18-.86-.53-.53h0Z"/>
        <path class="cls-4" d="M528.22,525.11c-7.32,9.5-13.27,20.01-17.66,31.18s-7.07,23.21-8.41,35.34c-.8,7.29-1.54,14.67-4.22,21.56-.17,.45,.55,.65,.72,.2,2.28-5.88,3.17-12.13,3.87-18.37s1.43-12.6,2.78-18.81c2.55-11.74,6.75-23.1,12.47-33.66,3.23-5.97,6.95-11.67,11.1-17.06,.29-.38-.36-.76-.65-.38h0Z"/>
        <path class="cls-4" d="M531.88,556.67c-4.48,16.91-11.14,33.21-19.86,48.38-2.47,4.29-5.09,8.48-7.87,12.58-.27,.4,.38,.78,.65,.38,9.8-14.46,17.69-30.19,23.41-46.7,1.65-4.76,3.11-9.58,4.4-14.44,.12-.47-.6-.67-.72-.2h0Z"/>
        <path class="cls-4" d="M561.46,555.44c-5.92,22.76-18.03,44.56-36.79,59.17-5.28,4.11-11.05,7.58-17.15,10.32-.44,.2-.06,.84,.38,.65,22-9.88,38.21-29.05,47.73-50.88,2.69-6.17,4.86-12.55,6.56-19.05,.12-.47-.6-.67-.72-.2h0Z"/>
        <path class="cls-4" d="M531.51,592.61c-2.99,4.77-6.5,9.19-10.5,13.16-1.95,1.93-4,3.75-6.15,5.46s-4.91,4.26-7.98,3.89c-.48-.06-.47,.69,0,.75,2.89,.35,5.28-1.62,7.44-3.27,2.32-1.77,4.53-3.68,6.62-5.71,4.29-4.16,8.05-8.84,11.22-13.9,.26-.41-.39-.79-.65-.38h0Z"/>
        <path class="cls-4" d="M519.4,623.81c12.95,1.86,27.55,3.98,39.36-3.16,.41-.25,.04-.9-.38-.65-11.62,7.03-26.04,4.92-38.78,3.09-.47-.07-.68,.65-.2,.72h0Z"/>
        <path class="cls-4" d="M445.46,554.08c2.46,19.3,13.89,36.84,29.39,48.32,4.57,3.38,9.51,6.23,14.73,8.48,.44,.19,.82-.46,.38-.65-17.83-7.68-32.58-22.62-39.74-40.71-1.96-4.96-3.34-10.15-4.01-15.44-.06-.47-.81-.48-.75,0h0Z"/>
        <path class="cls-19" d="M518.31,516.13c-.58-1.33-1.28-3.36-1.36-5.82-.14-3.99,1.33-8.45,2.77-8.38,.36,.02,1.69,.38,3.24,7.47,6.66-3.11,8.82-3.28,9.35-2.62,.98,1.21-2.58,6.42-7.99,8.44-2.3,.86-4.47,.97-6.01,.91Z"/>
        <path class="cls-19" d="M523.37,530.63c-.58-1.33-1.28-3.36-1.36-5.82-.14-3.99,1.33-8.45,2.77-8.38,.36,.02,1.69,.38,3.24,7.47,6.66-3.11,8.82-3.28,9.35-2.62,.98,1.21-2.58,6.42-7.99,8.44-2.3,.86-4.47,.97-6.01,.91Z"/>
        <path class="cls-19" d="M530.98,556.64c-.95-1.14-2.23-2.92-3.07-5.3-1.36-3.85-1.35-8.63,.02-8.95,.34-.08,1.7-.11,5.33,6.38,5.28-4.91,7.25-5.67,7.95-5.18,1.29,.91-.44,6.99-4.88,10.48-1.89,1.48-3.88,2.2-5.35,2.58Z"/>
        <path class="cls-19" d="M532.51,594.36c-.83-1.22-1.9-3.11-2.46-5.55-.92-3.94-.36-8.65,1.04-8.83,.35-.05,1.71,.07,4.61,6.85,5.85-4.29,7.91-4.84,8.55-4.28,1.18,1.03-1.24,6.85-6.09,9.83-2.06,1.27-4.14,1.77-5.65,1.98Z"/>
        <path class="cls-19" d="M561.82,560.72c-1.14-.97-2.72-2.52-3.99-4.75-2.05-3.6-2.95-8.36-1.68-8.92,.32-.14,1.63-.4,6.39,5.43,4.2-5.8,5.96-6.91,6.73-6.54,1.42,.68,.9,7.04-2.75,11.28-1.55,1.81-3.35,2.87-4.71,3.49Z"/>
        <path class="cls-19" d="M557.68,621.4c0-1.41,.19-3.48,1.13-5.71,1.52-3.61,4.77-7.03,6.1-6.41,.33,.15,1.44,.98-.04,7.89,7.59-.25,9.7,.43,9.93,1.21,.42,1.45-5.11,4.74-11.06,4.49-2.53-.1-4.63-.83-6.06-1.47Z"/>
        <path class="cls-19" d="M447.32,556.75c-1.39-.57-3.39-1.56-5.33-3.3-3.15-2.82-5.65-7.12-4.68-8.07,.24-.24,1.36-.91,7.78,3.18,1.82-6.95,3.05-8.58,3.89-8.47,1.54,.2,3.3,6.5,1.44,11.77-.79,2.24-2.07,3.84-3.1,4.88Z"/>
        <path class="cls-26" d="M537.7,671.26c.51-5.4,1.03-10.81,1.54-16.21,.94-1.98,2.38-4.84,4.35-8.16,3.59-6.05,10.95-18.17,25.16-28.5,5.26-3.82,13.6-8.96,25.27-12.72,2.71,1.8,7.32,5.34,11.11,11.17,4.35,6.7,5.35,12.97,5.63,16.11-1.29,4.71-3.03,9.93-5.4,15.46-2.91,6.77-6.15,12.55-9.25,17.34-3.02,5.34-7.49,11.81-14.06,18.14-12.34,11.87-25.97,17.34-34.35,19.92-3.65,.17-7.91,.13-12.65-.37-6.63-.7-12.34-2.1-16.89-3.55,3.24-1.52,19.38-25.32,19.54-28.61Z"/>
        <path class="cls-28" d="M439.68,537.2c-7.92,12.5-9.77,28.08-5.73,42.25,.13,.46,.86,.27,.72-.2-3.99-13.98-2.16-29.33,5.66-41.67,.26-.41-.39-.79-.65-.38h0Z"/>
        <path class="cls-28" d="M436.64,584.01l1.33,2.37c.1,.17,.34,.24,.51,.13s.24-.33,.13-.51l-1.33-2.37c-.1-.17-.34-.24-.51-.13s-.24,.33-.13,.51h0Z"/>
        <path class="cls-28" d="M441.07,588.96c7.16,7.19,15.25,13.4,24.03,18.48,.42,.24,.8-.41,.38-.65-8.73-5.05-16.76-11.22-23.88-18.36-.34-.34-.87,.19-.53,.53h0Z"/>
        <path class="cls-28" d="M435.06,567.28c1,6.48,3.69,12.6,7.65,17.82,.29,.38,.94,0,.65-.38-3.92-5.18-6.58-11.21-7.57-17.64-.07-.48-.8-.27-.72,.2h0Z"/>
        <path class="cls-28" d="M449.93,591.39c5.42,4.31,10.85,8.63,16.27,12.94,.37,.3,.91-.23,.53-.53-5.42-4.31-10.85-8.63-16.27-12.94-.37-.3-.91,.23-.53,.53h0Z"/>
        <path class="cls-28" d="M491.15,530.42c-9.09,6.15-16.08,15.03-19.79,25.38-.16,.46,.56,.65,.72,.2,3.63-10.16,10.52-18.89,19.44-24.93,.4-.27,.02-.92-.38-.65h0Z"/>
        <path class="cls-28" d="M471.02,560.55c-.11,13.79,2.46,27.5,7.37,40.38,.17,.45,.9,.25,.72-.2-4.89-12.82-7.46-26.45-7.35-40.18,0-.48-.75-.48-.75,0h0Z"/>
        <path class="cls-28" d="M478.96,548.07c-4.74,6.76-3.83,15.63-3.33,23.41,.59,9.34,1.55,18.72,4.63,27.61,.16,.45,.88,.26,.72-.2-3.01-8.68-3.99-17.83-4.58-26.95-.5-7.78-1.54-16.73,3.2-23.5,.28-.4-.37-.77-.65-.38h0Z"/>
        <path class="cls-28" d="M592.99,590.74c-10.22-1.04-20.58,.01-30.32,3.29-.46,.15-.26,.88,.2,.72,9.68-3.26,19.97-4.3,30.12-3.27,.48,.05,.48-.7,0-.75h0Z"/>
        <path class="cls-28" d="M551.02,600.78c-5.69,3.3-11.38,6.6-17.06,9.89-.42,.24-.04,.89,.38,.65,5.69-3.3,11.38-6.6,17.06-9.89,.42-.24,.04-.89-.38-.65h0Z"/>
        <path class="cls-28" d="M557.9,601.3c-10.93,5.29-21.87,10.57-32.8,15.86-.43,.21-.05,.86,.38,.65,10.93-5.29,21.87-10.57,32.8-15.86,.43-.21,.05-.86-.38-.65h0Z"/>
        <path class="cls-28" d="M571.03,596.68c5.72-1.22,11.59-1.47,17.41-.82,.48,.05,.48-.7,0-.75-5.88-.66-11.82-.39-17.61,.84-.47,.1-.27,.82,.2,.72h0Z"/>
        <path class="cls-28" d="M520.15,562.66c-4.48,5.26-7.74,11.44-9.54,18.12-.13,.47,.6,.67,.72,.2,1.76-6.55,4.95-12.63,9.34-17.79,.31-.37-.22-.9-.53-.53h0Z"/>
        <path class="cls-28" d="M508.17,589.19l-3.49,13.44c-.12,.47,.6,.67,.72,.2l3.49-13.44c.12-.47-.6-.67-.72-.2h0Z"/>
        <path class="cls-28" d="M468.18,605.46c10.18-5.63,22.48-6.51,33.55-3.19,.46,.14,.66-.58,.2-.72-11.26-3.38-23.78-2.46-34.13,3.26-.42,.23-.04,.88,.38,.65h0Z"/>
        <path class="cls-28" d="M525.75,619.84c.62,1.09,1.23,2.19,1.85,3.28,.24,.42,.88,.04,.65-.38-.62-1.09-1.23-2.19-1.85-3.28-.24-.42-.88-.04-.65,.38h0Z"/>
        <path class="cls-28" d="M529.33,627.74c.65,1.96,.64,4.12-.17,6.04-.19,.44,.46,.82,.65,.38,.89-2.1,.97-4.45,.25-6.62-.15-.46-.88-.26-.72,.2h0Z"/>
        <path class="cls-28" d="M462.83,610.91c-.83,1.48-1.49,3.06-1.96,4.7-.13,.46,.59,.66,.72,.2,.45-1.58,1.08-3.09,1.89-4.52,.24-.42-.41-.8-.65-.38h0Z"/>
        <path class="cls-32" d="M486.21,631.36c-11.62,9.36-23.69,19.14-31.27,32.24-2.07,3.57-3.73,7.35-4.92,11.3-.14,.46,.58,.66,.72,.2,4.37-14.43,15.08-25.57,26.25-35.17,3.2-2.75,6.47-5.4,9.75-8.04,.38-.3-.16-.83-.53-.53h0Z"/>
        <path class="cls-32" d="M494.58,633.36c-1.31,1.32-2.47,2.78-3.47,4.35-.26,.41,.39,.79,.65,.38,.96-1.52,2.08-2.92,3.35-4.2,.34-.34-.19-.87-.53-.53h0Z"/>
        <path class="cls-32" d="M484.78,648.45c-7.46,11.36-12.99,23.89-16.38,37.04-.12,.47,.6,.67,.72,.2,3.38-13.1,8.88-25.56,16.31-36.87,.27-.4-.38-.78-.65-.38h0Z"/>
        <path class="cls-32" d="M498.25,634.38c-7.02,16.95-12.72,34.42-17.07,52.23-.11,.47,.61,.67,.72,.2,4.35-17.82,10.06-35.29,17.07-52.23,.18-.45-.54-.64-.72-.2h0Z"/>
        <path class="cls-32" d="M504.68,633.89c.49,2.22,.68,4.48,.54,6.75-.03,.48,.72,.48,.75,0,.14-2.33-.06-4.67-.57-6.95-.1-.47-.83-.27-.72,.2h0Z"/>
        <path class="cls-32" d="M504.5,657.85c-1.16,6.91-2.15,13.84-2.96,20.8-.06,.48,.69,.47,.75,0,.81-6.89,1.78-13.76,2.93-20.6,.08-.47-.64-.68-.72-.2h0Z"/>
        <path class="cls-32" d="M513.93,637.9c1.56,12.12,2.63,24.29,3.18,36.5,.02,.48,.77,.48,.75,0-.56-12.2-1.62-24.38-3.18-36.5-.06-.47-.81-.48-.75,0h0Z"/>
        <path class="cls-32" d="M538.75,653.71c1.95,4.99,2.96,10.28,2.9,15.64,0,.48,.74,.48,.75,0,.06-5.42-.96-10.79-2.93-15.84-.17-.44-.9-.25-.72,.2h0Z"/>
        <path class="cls-32" d="M445.8,604.59c-3.33-.11-6.13,1.63-8.57,3.75-2.69,2.34-5.2,4.93-7.61,7.55-4.74,5.15-9.03,10.83-11.97,17.21-1.63,3.54-2.82,7.26-3.46,11.1-.08,.47,.64,.68,.72,.2,1.43-8.57,5.64-16.29,11-23.04,2.62-3.3,5.49-6.38,8.49-9.33s6.64-6.86,11.39-6.7c.48,.02,.48-.73,0-.75h0Z"/>
        <path class="cls-32" d="M430.52,623.15c-5.01,9.75-8.92,20.03-11.67,30.64-.12,.47,.6,.67,.72,.2,2.73-10.55,6.62-20.76,11.6-30.46,.22-.43-.43-.81-.65-.38h0Z"/>
        <path class="cls-32" d="M424.29,603.21c-9.46,4.09-17.38,11.37-21.99,20.62-.21,.43,.43,.81,.65,.38,4.56-9.15,12.37-16.3,21.72-20.35,.44-.19,.06-.84-.38-.65h0Z"/>
        <path class="cls-32" d="M449.09,625.91c-3.15,13.17-7.96,25.9-14.32,37.85-.23,.43,.42,.81,.65,.38,6.4-12.01,11.23-24.8,14.4-38.03,.11-.47-.61-.67-.72-.2h0Z"/>
        <path class="cls-32" d="M588.05,613.26c-1.67,16.26-6.12,32.18-13.2,46.92-.21,.43,.44,.81,.65,.38,7.14-14.87,11.61-30.89,13.3-47.3,.05-.48-.7-.48-.75,0h0Z"/>
        <path class="cls-32" d="M592.1,627.84c-1.88,11.2-4.97,22.16-9.24,32.68-.18,.45,.54,.64,.72,.2,4.27-10.52,7.36-21.48,9.24-32.68,.08-.47-.64-.68-.72-.2h0Z"/>
        <path class="cls-32" d="M566.2,628.54c-4.4,10.33-7.64,21.1-9.68,32.14-.09,.47,.64,.67,.72,.2,2.03-10.97,5.24-21.7,9.61-31.96,.19-.44-.46-.82-.65-.38h0Z"/>
      </g>
      <path class="cls-28" d="M297.18,756.78l.79,.79c.07,.07,.17,.11,.27,.11s.2-.04,.27-.11,.11-.17,.11-.27-.04-.19-.11-.27l-.79-.79c-.07-.07-.17-.11-.27-.11s-.2,.04-.27,.11-.11,.17-.11,.27,.04,.19,.11,.27h0Z"/>
      <path class="cls-28" d="M303.2,764.1c1.79,3.07,3.57,6.15,5.36,9.22,.24,.42,.89,.04,.65-.38-1.79-3.07-3.57-6.15-5.36-9.22-.24-.42-.89-.04-.65,.38h0Z"/>
      <g>
        <path class="cls-8" d="M282.58,740.18c-.97-4.87-2.57-10.52-5.22-16.53-6.72-15.23-16.84-25.05-23.49-30.45-5.21-4.26-12.72-9.34-22.62-13.05-4.37-1.64-8.49-2.74-12.18-3.48-.84-.32-3.18-1.1-5.22,0-1.52,.82-2.2,2.33-2.61,3.48-3.07,8.54-.87,22.62-.87,22.62,.53,3.36,1.34,7.83,2.61,13.05-3.23-.38-7.06-.5-11.31,0-12.6,1.49-21.6,7.66-26.1,11.31-.8,.75-2.73,2.79-3.48,6.09-.87,3.83,.43,6.89,.87,7.83,1.73,3.49,4.24,7.75,7.83,12.18,3.33,4.1,6.7,7.24,9.57,9.57-1.8,1.65-4.15,4.21-6.09,7.83-3.26,6.09-3.55,11.85-3.48,14.79,0,1.47,.22,4.14,1.74,6.96,.83,1.55,1.81,2.69,2.61,3.48,2.59,1.74,5.78,3.58,9.57,5.22,5.97,2.58,11.44,3.78,15.66,4.35-.64,1.34-1.32,3.1-1.74,5.22-.73,3.64-.39,6.73,0,8.7,.02,.3,.14,2.18,1.74,3.48,1.88,1.53,4.14,.93,4.35,.87,3.48-.51,7.29-1.32,11.31-2.61,13.97-4.47,23.74-12.44,29.58-18.27,5.15-6.53,10.57-14.34,15.66-23.49,2.68-4.82,4.98-9.49,6.96-13.92,1.45-8.41,2.9-16.82,4.35-25.23Z"/>
        <path class="cls-28" d="M212.27,682.54l-.4,4.91c-.04,.48,.71,.48,.75,0l.4-4.91c.04-.48-.71-.48-.75,0h0Z"/>
        <path class="cls-28" d="M212.39,695.31c.36,7.22,1.79,14.35,4.25,21.15,.16,.45,.89,.26,.72-.2-2.44-6.74-3.86-13.79-4.22-20.95-.02-.48-.77-.48-.75,0h0Z"/>
        <path class="cls-28" d="M211.46,708.41c.71,9.2,6.82,16.91,14.32,21.83,8.94,5.87,19.8,8.68,30.05,11.28,6.44,1.63,12.94,3,19.49,4.11,.47,.08,.67-.64,.2-.72-10.78-1.83-21.46-4.34-31.89-7.61-9.36-2.94-18.91-6.91-25.33-14.65-3.36-4.05-5.68-8.96-6.09-14.24-.04-.48-.79-.48-.75,0h0Z"/>
        <path class="cls-28" d="M232.79,712.8c2.6,.64,5.1,1.6,7.45,2.87,.42,.23,.8-.42,.38-.65-2.4-1.31-4.97-2.3-7.63-2.95-.47-.11-.67,.61-.2,.72h0Z"/>
        <path class="cls-28" d="M248.19,718.82c10.16,6.6,19.29,14.68,27.1,23.94,.31,.37,.84-.16,.53-.53-7.85-9.31-17.04-17.42-27.25-24.06-.41-.26-.78,.39-.38,.65h0Z"/>
        <path class="cls-28" d="M218.86,687.68c18.19,10.3,34.42,23.94,47.69,40.09,3.83,4.65,7.39,9.51,10.7,14.55,.26,.4,.91,.03,.65-.38-11.53-17.54-26.29-32.91-43.36-45.14-4.92-3.53-10.03-6.78-15.3-9.77-.42-.24-.8,.41-.38,.65h0Z"/>
        <path class="cls-28" d="M189.65,736.36c19.54,7.34,40.04,12.06,60.83,13.98,5.93,.55,11.87,.86,17.83,.96,.48,0,.48-.74,0-.75-20.89-.34-41.7-3.48-61.75-9.34-5.64-1.65-11.21-3.51-16.71-5.58-.45-.17-.65,.55-.2,.72h0Z"/>
        <path class="cls-28" d="M214.13,748.76c1.86,.53,3.72,1.06,5.59,1.59,.47,.13,.66-.59,.2-.72-1.86-.53-3.72-1.06-5.59-1.59-.47-.13-.66,.59-.2,.72h0Z"/>
        <path class="cls-28" d="M227.58,752.31c2.62,.56,5.24,1.12,7.86,1.68,.47,.1,.67-.62,.2-.72-2.62-.56-5.24-1.12-7.86-1.68-.47-.1-.67,.62-.2,.72h0Z"/>
        <path class="cls-28" d="M174.21,732.26c-.64,2.12-.61,4.41,.08,6.51,.15,.46,.87,.26,.72-.2-.65-1.98-.68-4.11-.08-6.11,.14-.46-.58-.66-.72-.2h0Z"/>
        <path class="cls-28" d="M276.87,760.45c1.56,3.39,3.72,6.49,6.36,9.13,.34,.34,.87-.19,.53-.53-2.6-2.6-4.71-5.64-6.25-8.98-.2-.44-.85-.06-.65,.38h0Z"/>
        <path class="cls-28" d="M185.1,758.87c6.33,5.82,14.29,9.67,22.79,10.98,.47,.07,.68-.65,.2-.72-8.38-1.29-16.22-5.05-22.46-10.79-.35-.33-.89,.2-.53,.53h0Z"/>
        <path class="cls-28" d="M212.83,770.63c16.03,2.32,32.53,.99,47.98-3.9,4.3-1.36,8.51-3,12.6-4.89,.44-.2,.06-.85-.38-.65-14.45,6.66-30.36,10.02-46.28,9.8-4.59-.06-9.18-.43-13.72-1.09-.47-.07-.68,.65-.2,.72h0Z"/>
        <path class="cls-28" d="M242.16,767.99c9.93-2.07,19.67-4.91,29.16-8.5,.45-.17,.25-.89-.2-.72-9.48,3.59-19.23,6.43-29.16,8.5-.47,.1-.27,.82,.2,.72h0Z"/>
        <path class="cls-28" d="M191.74,791.82c2.53-.68,5.12-1.06,7.74-1.13,.48-.01,.48-.76,0-.75-2.68,.08-5.35,.46-7.94,1.16-.47,.13-.27,.85,.2,.72h0Z"/>
        <path class="cls-28" d="M205.37,790.32l3.96-.44c.2-.02,.38-.16,.38-.38,0-.19-.17-.4-.38-.38l-3.96,.44c-.2,.02-.38,.16-.38,.38,0,.19,.17,.4,.38,.38h0Z"/>
        <path class="cls-28" d="M218.87,788.17c14.43-2.56,28.43-7.4,41.34-14.34,3.69-1.98,7.28-4.14,10.78-6.44,.4-.26,.03-.91-.38-.65-15.69,10.36-33.42,17.43-51.94,20.71-.47,.08-.27,.81,.2,.72h0Z"/>
        <path class="cls-28" d="M323.19,799.23c1.24-.52,2.47-1.05,3.71-1.57,.19-.08,.23-.35,.13-.51-.11-.19-.33-.21-.51-.13l-3.71,1.57c-.19,.08-.23,.35-.13,.51,.11,.19,.33,.21,.51,.13h0Z"/>
        <path class="cls-28" d="M273.87,764.93c-9.29,13.72-22.35,24.53-36.23,33.37-4.11,2.61-8.46,4.94-13.33,5.65-.48,.07-.27,.79,.2,.72,4.2-.61,8.05-2.42,11.66-4.58s7.29-4.7,10.78-7.25c6.78-4.94,13.22-10.41,18.9-16.6,3.15-3.43,6.06-7.08,8.67-10.94,.27-.4-.38-.78-.65-.38h0Z"/>
        <path class="cls-28" d="M208,805.76c4.76-.01,9.51-.41,14.21-1.18,.48-.08,.27-.8-.2-.72-4.63,.76-9.31,1.14-14.01,1.15-.48,0-.48,.75,0,.75h0Z"/>
        <path class="cls-28" d="M212.96,820.1c2.09-.83,4.18-1.67,6.27-2.5,.44-.18,.25-.9-.2-.72-2.09,.83-4.18,1.67-6.27,2.5-.44,.18-.25,.9,.2,.72h0Z"/>
        <path class="cls-28" d="M225.49,815.71c.87-.34,1.73-.69,2.6-1.03,.19-.07,.32-.25,.26-.46-.05-.18-.27-.34-.46-.26l-2.6,1.03c-.19,.07-.32,.25-.26,.46,.05,.18,.27,.34,.46,.26h0Z"/>
        <path class="cls-28" d="M238.32,810.32c14.36-8.62,26.38-20.89,34.69-35.43,.24-.42-.41-.8-.65-.38-8.25,14.43-20.16,26.6-34.42,35.16-.41,.25-.04,.9,.38,.65h0Z"/>
        <path class="cls-4" d="M292.16,753.74c-.48-3.33-2.17-5.53-3.48-7.23-1.04-1.35-2.87-3.4-5.74-5.2-.21-.13-.48-.12-.67,.04-1.7,1.45-4.16,3.99-5.78,7.87-3.2,7.68-.79,15.06,.4,17.92,.25,.61,.91,.91,1.51,.69,1.52-.56,3.24-1.32,5.05-2.35,2.11-1.19,3.84-2.47,5.22-3.61,2.16,1.13,4.19,2.34,6.09,3.61,26.07,17.48,35.46,64.52,38.13,82.72h4.92c-2.42-19.19-11.24-67.44-39.34-87.11-1.88-1.32-4.16-2.62-6.32-3.74,.12-.84,.22-2.11,0-3.61Z"/>
        <ellipse class="cls-4" cx="279.17" cy="754.34" rx="13.62" ry="7.83" transform="translate(-516.71 870.68) rotate(-78.01)"/>
      </g>
      <circle class="cls-29" cx="65.6" cy="616.74" r="15.1"/>
      <circle class="cls-17" cx="43.47" cy="555.97" r="7.02"/>
      <circle class="cls-9" cx="267.92" cy="389.84" r="10.89"/>
      <circle class="cls-13" cx="435.64" cy="212.82" r="17.56"/>
      <circle class="cls-14" cx="585.08" cy="311.51" r="4.21"/>
      <circle class="cls-14" cx="453.37" cy="313.27" r="5.27"/>
      <g>
        <path class="cls-27" d="M273.49,661.36c-.13-3.82,.1-7,.38-9.35,.47-4.03,1.09-5.84,1.56-6.98,1.05-2.56,2.27-4.06,2.73-4.61,1.16-1.35,2.16-2.53,3.8-3.07,1.91-.63,3.61-.04,6.03,.84,1.81,.66,4.46,1.85,7.33,4.04,.27-2.03,.88-4.83,2.27-7.93,1.52-3.38,3.43-5.85,4.87-7.45,.9-.72,2.5-1.82,4.74-2.36,3.17-.76,5.78,.03,7.69,.61,1.5,.46,3.88,1.38,6.38,3.33,.2-1.27,.52-2.76,1.08-4.38,.77-2.25,1.75-4.07,2.62-5.44,.62-.85,1.82-2.23,3.8-3.07,4.59-1.95,9.04,.92,9.47,1.21,2.78,1.06,5.9,2.54,9.1,4.64,9.54,6.25,14.63,14.58,17.12,19.57-1.12,5.76-4.24,17.22-13.92,27.31-17.05,17.77-40.31,16.53-46.79,15.86-6.65-.69-17.07-1.76-24.24-10.12-3.87-4.51-5.36-9.48-6.01-12.68Z"/>
        <path class="cls-26" d="M304.69,727.13c-1.81,.09-4.19-.01-6.86-.73-5.81-1.56-9.48-5.09-11.11-6.89-2.9-2.98-6-6.48-9.09-10.56-3.53-4.65-6.35-9.13-8.61-13.16-1.11-3.08-2.24-7.27-2.57-12.32-.52-7.88,1.17-14.25,2.53-18.1,.37-.68,1.71-2.91,4.51-4.01,3.82-1.5,7.23,.35,7.69,.61,2.8,1.4,5.94,3.18,9.22,5.47,3.87,2.7,7.04,5.46,9.57,7.95,.29-1.8,.79-3.9,1.67-6.15,2.13-5.45,5.45-9.12,7.72-11.23,.9-.49,2.27-1.11,4.03-1.41,2.18-.38,4-.12,5.09,.13,4.26,2.22,8.51,4.44,12.77,6.66-.41-2.83-.69-6.23-.57-10.06,.15-4.75,.88-8.83,1.69-12.07,.25-.68,.99-2.43,2.85-3.78,2.04-1.48,4.16-1.54,4.86-1.53,3.27-.29,7.7-.32,12.78,.74,8.06,1.69,13.87,5.31,17.14,7.74,3.02,3.44,5.07,6.88,6.49,10.08,12.52,28.29-13.98,62.06-16.97,65.77-5.29,2.43-10.59,4.87-15.88,7.3-6.33,1.31-14.62,2.34-24.27,1.72-5.52-.36-10.45-1.18-14.67-2.17Z"/>
        <path class="cls-19" d="M297.88,654.5c-.97,.25-2.44,.5-4.17,.29-2.81-.34-5.87-1.82-5.73-2.79,.03-.24,.36-1.1,5.44-1.39-1.8-4.85-1.8-6.33-1.3-6.62,.91-.53,4.37,2.45,5.48,6.33,.47,1.65,.43,3.13,.29,4.17Z"/>
        <path class="cls-19" d="M315.46,652.92c-.8-.61-1.9-1.61-2.8-3.11-1.47-2.42-2.18-5.75-1.34-6.23,.21-.12,1.09-.4,4.45,3.43,2.71-4.41,3.88-5.32,4.41-5.11,.98,.39,.77,4.95-1.61,8.21-1.01,1.39-2.2,2.27-3.11,2.8Z"/>
        <path class="cls-19" d="M323.55,638.26c-.8-.61-1.9-1.61-2.8-3.11-1.47-2.42-2.18-5.75-1.34-6.23,.21-.12,1.09-.4,4.45,3.43,2.71-4.41,3.88-5.32,4.41-5.11,.98,.39,.77,4.95-1.61,8.21-1.01,1.39-2.2,2.27-3.11,2.8Z"/>
        <path class="cls-4" d="M296.45,653.1c2.71,3.08,5,6.51,6.83,10.18,.22,.43,.86,.05,.65-.38-1.86-3.73-4.2-7.2-6.95-10.33-.32-.36-.85,.17-.53,.53h0Z"/>
        <path class="cls-4" d="M316.28,655.5c-.48-2.17-.57-4.42-.25-6.62,.07-.47-.65-.68-.72-.2-.34,2.34-.26,4.71,.25,7.02,.1,.47,.83,.27,.72-.2h0Z"/>
        <path class="cls-4" d="M323.28,637.51c1.22,8.34,3.41,16.51,6.54,24.34,.18,.44,.9,.25,.72-.2-3.12-7.83-5.32-16-6.54-24.34-.07-.48-.79-.27-.72,.2h0Z"/>
        <path class="cls-32" d="M299.53,674.39c-.17,16.99,4.84,33.85,14.27,47.98,.27,.4,.92,.02,.65-.38-9.36-14.03-14.34-30.74-14.17-47.6,0-.48-.75-.48-.75,0h0Z"/>
        <path class="cls-32" d="M305,678.13c1.7,17.11,9.23,33.39,21.19,45.75,.34,.35,.87-.18,.53-.53-11.81-12.2-19.29-28.32-20.97-45.22-.05-.48-.8-.48-.75,0h0Z"/>
        <path class="cls-32" d="M310.99,685.56l1.9,5.78c.15,.46,.87,.26,.72-.2-.63-1.93-1.26-3.85-1.9-5.78-.15-.46-.87-.26-.72,.2h0Z"/>
        <path class="cls-32" d="M316.64,700.62c1.6,2.76,3.2,5.53,4.8,8.29,.24,.42,.89,.04,.65-.38-1.6-2.76-3.2-5.53-4.8-8.29-.24-.42-.89-.04-.65,.38h0Z"/>
        <path class="cls-32" d="M324.86,713.91c2.52,3.42,5.24,6.7,8.15,9.79,.33,.35,.86-.18,.53-.53-2.87-3.05-5.56-6.27-8.04-9.64-.28-.38-.93-.01-.65,.38h0Z"/>
        <path class="cls-32" d="M316.04,660.43c8.03,13.88,15.42,28.14,22.12,42.71,1.92,4.18,3.79,8.4,5.6,12.63,.19,.44,.84,.06,.65-.38-6.31-14.75-13.3-29.2-20.96-43.29-2.2-4.05-4.46-8.06-6.76-12.05-.24-.42-.89-.04-.65,.38h0Z"/>
        <path class="cls-32" d="M329.47,696.73c3.77,6.17,7.06,12.62,9.81,19.31,.18,.44,.91,.25,.72-.2-2.78-6.75-6.08-13.26-9.89-19.49-.25-.41-.9-.03-.65,.38h0Z"/>
        <path class="cls-32" d="M330.11,659.97c2.46,16.52,8,32.54,16.27,47.05,2.37,4.15,4.96,8.17,7.76,12.05,.28,.39,.93,.01,.65-.38-9.77-13.56-16.98-28.91-21.16-45.09-1.18-4.56-2.11-9.18-2.8-13.84-.07-.48-.79-.27-.72,.2h0Z"/>
        <path class="cls-32" d="M337.93,642.05c2.17,1.41,3.93,3.39,5.09,5.71,.22,.43,.86,.05,.65-.38-1.22-2.43-3.08-4.5-5.36-5.98-.41-.26-.78,.39-.38,.65h0Z"/>
        <path class="cls-32" d="M347.73,655.45c7.87,15.81,13.71,32.59,17.38,49.87,.1,.47,.82,.27,.72-.2-3.68-17.34-9.55-34.18-17.45-50.05-.22-.43-.86-.05-.65,.38h0Z"/>
        <path class="cls-32" d="M347.49,645.27c1.18,1.79,2.23,3.67,3.13,5.62,.2,.44,.85,.06,.65-.38-.91-1.95-1.95-3.82-3.13-5.62-.26-.4-.91-.03-.65,.38h0Z"/>
        <path class="cls-32" d="M355.89,661.6c4.22,11.03,7.67,22.34,10.3,33.84,.11,.47,.83,.27,.72-.2-2.64-11.51-6.08-22.82-10.3-33.84-.17-.45-.9-.25-.72,.2h0Z"/>
        <path class="cls-32" d="M276.02,669.88c2.62,15.16,10.22,28.81,19.1,41.17,2.53,3.52,5.18,6.95,7.88,10.34,.3,.38,.83-.16,.53-.53-9.44-11.84-18.43-24.48-23.55-38.86-1.43-4.01-2.52-8.12-3.24-12.31-.08-.47-.8-.27-.72,.2h0Z"/>
        <path class="cls-32" d="M289.41,688.67l1.51,3.21c.09,.18,.35,.23,.51,.13,.19-.11,.22-.33,.13-.51l-1.51-3.21c-.09-.18-.35-.23-.51-.13-.19,.11-.22,.33-.13,.51h0Z"/>
        <path class="cls-32" d="M295.83,702.5c4.04,6.04,8.08,12.07,12.12,18.11,.27,.4,.92,.02,.65-.38-4.04-6.04-8.08-12.07-12.12-18.11-.27-.4-.92-.02-.65,.38h0Z"/>
        <path class="cls-32" d="M276.48,690.49c3.42,5.38,6.85,10.76,10.27,16.14,.26,.41,.91,.03,.65-.38-3.42-5.38-6.85-10.76-10.27-16.14-.26-.41-.91-.03-.65,.38h0Z"/>
        <path class="cls-28" d="M296.13,656.22c.59,5.49,1.99,10.84,4.16,15.91,.19,.44,.84,.06,.65-.38-2.11-4.94-3.48-10.19-4.06-15.53-.05-.47-.8-.48-.75,0h0Z"/>
        <path class="cls-28" d="M302.28,632.83c.84,2.86,1.68,5.73,2.52,8.59,.14,.46,.86,.27,.72-.2l-2.52-8.59c-.14-.46-.86-.27-.72,.2h0Z"/>
        <path class="cls-28" d="M307.17,648.01c1.27,2.8,2.54,5.61,3.81,8.41,.2,.44,.85,.06,.65-.38-1.27-2.8-2.54-5.61-3.81-8.41-.2-.44-.85-.06-.65,.38h0Z"/>
        <path class="cls-28" d="M303.96,628.41c1.67,4.19,3.16,8.45,4.48,12.77,.14,.46,.86,.26,.72-.2-1.31-4.32-2.81-8.58-4.48-12.77-.18-.44-.9-.25-.72,.2h0Z"/>
        <path class="cls-28" d="M327.6,637.25c1.52,1.25,2.95,2.61,4.27,4.07,.33,.36,.85-.17,.53-.53-1.32-1.46-2.75-2.82-4.27-4.07-.16-.13-.38-.15-.53,0-.13,.13-.16,.4,0,.53h0Z"/>
        <path class="cls-28" d="M339.85,619.77c5.71,4.79,10.69,10.39,14.76,16.63,.26,.4,.91,.03,.65-.38-4.1-6.3-9.12-11.96-14.88-16.79-.37-.31-.9,.22-.53,.53h0Z"/>
        <path class="cls-28" d="M345.99,621.56c7.73,4.41,14.82,10.47,18.59,18.69,.2,.44,.85,.06,.65-.38-3.82-8.33-11.03-14.49-18.86-18.96-.42-.24-.8,.41-.38,.65h0Z"/>
        <path class="cls-28" d="M278.98,642.98c-.92,5.65-.76,11.41,.48,17,.1,.47,.83,.27,.72-.2-1.21-5.45-1.38-11.09-.48-16.6,.08-.47-.65-.68-.72-.2h0Z"/>
        <path class="cls-28" d="M281.26,645.94c-.16,2.36-.1,4.73,.19,7.08,.06,.47,.81,.48,.75,0-.29-2.35-.35-4.72-.19-7.08,.03-.48-.72-.48-.75,0h0Z"/>
        <path class="cls-28" d="M283.14,659.02c.8,1.38,1.43,2.85,1.88,4.38,.14,.46,.86,.27,.72-.2-.47-1.59-1.13-3.13-1.96-4.56-.24-.42-.89-.04-.65,.38h0Z"/>
      </g>
      <g>
        <path class="cls-26" d="M108.52,805.41c-1.97-2.81-6.49-10.07-6.82-20.38-.1-3.09-.26-12.15,5.73-21.09,7.16-10.69,18.07-13.71,20.89-14.4,2.87-.47,7.21-.82,12.29,.25,8.3,1.74,13.78,6.24,16.22,8.52,1.29,2.96,2.89,7.71,2.98,13.68,.15,10.11-4.11,17.5-6.08,20.48-3.44,3.3-8.84,7.67-16.37,11-4.61,2.04-8.88,3.19-12.37,3.85-1.44,.6-4.79,1.78-9.06,1.14-3.62-.54-6.16-2.14-7.41-3.04Z"/>
        <path class="cls-28" d="M148.94,796.82c1.78,.2,4.14,.68,6.71,1.82,4.65,2.07,7.49,5.23,8.9,7.05,1.3,1.46,3.1,3.89,4.19,7.31,.52,1.62,.77,3.11,.88,4.36-1.21,1.66-3.03,3.76-5.66,5.67-4.95,3.6-10,4.52-12.63,4.81-3.69-.1-8.27-.6-13.33-2.08-10.61-3.1-17.87-8.89-21.8-12.61,.81-2.35,1.62-4.71,2.43-7.06,10.1-3.09,20.21-6.18,30.31-9.27Z"/>
        <path class="cls-28" d="M108.52,805.41c-.18-5.03-1.1-9.06-1.93-11.85-2.3-7.69-6.09-13.03-8.82-16.81-2.05-2.84-3.98-5.07-5.41-6.62-2.11-1.45-5.15-3.2-9.07-4.52-4.31-1.45-8.11-1.84-10.81-1.9-.52,.76-1.35,2.2-1.65,4.18-.38,2.47,.26,4.43,.62,5.31,.79,2.53,2.04,5.98,4.02,9.84,1.45,2.82,4.36,8.4,9.25,13.32,7.2,7.24,15.81,10.15,21.1,11.39,.9-.79,1.8-1.57,2.7-2.36Z"/>
        <path class="cls-12" d="M103.9,807.24c.27-.24,4.07-3.64,8.36-2.36,4.39,1.31,7.24,6.89,5.59,9.75-.27,.47-1.11,1.64-3.66,2.1,.16,2.8,.51,5.84,1.14,9.06,1.99,10.15,5.65,17.51,9.18,23.08-1.31,1.02-2.96,1.43-4.27,2.44-3.94-5.61-8.23-13.23-10.22-24.91-.62-3.61-.86-6.98-.88-10.02-.84-.49-2.73-1.75-4.01-4.18-1.1-2.07-1.23-4-1.23-4.97Z"/>
        <path class="cls-10" d="M154.16,758.76c-13.97,10.4-25.57,23.77-33.87,39.08-.23,.42,.42,.8,.65,.38,8.23-15.19,19.74-28.5,33.6-38.81,.38-.28,0-.94-.38-.65h0Z"/>
        <path class="cls-10" d="M139.12,762.43c-1.38,1.48-2.75,2.96-4.13,4.45-.33,.35,.2,.88,.53,.53,1.38-1.48,2.75-2.96,4.13-4.45,.33-.35-.2-.88-.53-.53h0Z"/>
        <path class="cls-10" d="M128.82,774.71c-6,8.05-10.62,17.06-13.67,26.63-.15,.46,.58,.66,.72,.2,3.03-9.51,7.63-18.45,13.6-26.45,.29-.39-.36-.76-.65-.38h0Z"/>
        <path class="cls-10" d="M114.62,775.95c-1.86,7.03-2.53,14.32-1.98,21.57,.04,.48,.79,.48,.75,0-.55-7.19,.11-14.4,1.96-21.37,.12-.47-.6-.67-.72-.2h0Z"/>
        <path class="cls-10" d="M121.32,758.03c-.87,1.45-1.74,2.9-2.61,4.35-.25,.41,.4,.79,.65,.38,.87-1.45,1.74-2.9,2.61-4.35,.25-.41-.4-.79-.65-.38h0Z"/>
        <path class="cls-10" d="M153.18,783.68c-10.14,8.06-20.46,16.21-32.52,21.21-.44,.18-.25,.91,.2,.72,12.19-5.05,22.6-13.26,32.85-21.4,.38-.3-.16-.83-.53-.53h0Z"/>
        <path class="cls-10" d="M131.85,795.33c-.79,.83-1.69,1.53-2.69,2.09-.18,.1-.24,.34-.13,.51s.34,.23,.51,.13c1.05-.58,2.01-1.33,2.84-2.2,.14-.15,.15-.38,0-.53s-.39-.15-.53,0h0Z"/>
        <path class="cls-10" d="M122.68,801.92l-3.81,2.18c-.42,.24-.04,.89,.38,.65l3.81-2.18c.42-.24,.04-.89-.38-.65h0Z"/>
        <path class="cls-10" d="M86.11,772.43c6.63,9.09,12.11,18.98,16.27,29.44,.18,.44,.9,.25,.72-.2-4.19-10.52-9.67-20.47-16.35-29.62-.28-.39-.93-.01-.65,.38h0Z"/>
        <path class="cls-10" d="M76.12,768.4c1.38,1.13,2.54,2.49,3.43,4.04,.24,.42,.89,.04,.65-.38-.91-1.6-2.12-3.03-3.55-4.19-.16-.13-.38-.15-.53,0-.13,.13-.16,.4,0,.53h0Z"/>
        <path class="cls-10" d="M85.13,782.03c3.77,5.4,7.54,10.8,11.31,16.2,.27,.39,.92,.02,.65-.38-3.77-5.4-7.54-10.8-11.31-16.2-.27-.39-.92-.02-.65,.38h0Z"/>
        <path class="cls-10" d="M80.51,780.69c3.05,5.6,7.05,10.65,11.81,14.91,.36,.32,.89-.21,.53-.53-4.71-4.21-8.67-9.2-11.69-14.75-.23-.42-.88-.05-.65,.38h0Z"/>
        <path class="cls-10" d="M158.71,811.93c-9.32-3.56-19.36-4.89-29.29-3.9-.48,.05-.48,.8,0,.75,9.87-.99,19.82,.34,29.09,3.87,.45,.17,.65-.55,.2-.72h0Z"/>
        <path class="cls-10" d="M150.98,793.81c-9.48,7.98-20.47,14.02-32.28,17.77-.46,.15-.26,.87,.2,.72,11.94-3.78,23.03-9.9,32.61-17.96,.37-.31-.16-.84-.53-.53h0Z"/>
        <path class="cls-10" d="M101.1,782.48c4.19,6.41,6.8,13.75,7.56,21.37,.05,.48,.8,.48,.75,0-.78-7.76-3.39-15.22-7.66-21.75-.26-.4-.91-.03-.65,.38h0Z"/>
        <path class="cls-10" d="M141.93,812.72c-6.01-.3-11.98-1.09-17.86-2.38-.47-.1-.67,.62-.2,.72,5.94,1.3,11.98,2.11,18.06,2.41,.48,.02,.48-.73,0-.75h0Z"/>
        <path class="cls-10" d="M155.87,819c-11.67-.07-23.67-.21-34.62-4.73-.45-.18-.64,.54-.2,.72,11.01,4.55,23.09,4.69,34.82,4.76,.48,0,.48-.75,0-.75h0Z"/>
      </g>
      <path class="cls-4" d="M370.83,763.2c-.23-3.96,.61-7.31,2.11-11.24,3.31-8.71,8.2-16.11,11.94-21.07,2.63-.36,6.79-.9,11.94-1.4,9.64-.95,11.38-.67,14.05-2.11,7.35-3.98,8.9-14.13,9.13-14.05,.13,.05-.77,3.24-6.32,19.67-4.04,2.79-8.48,5.63-13.35,8.43-3.62,2.08-7.15,3.95-10.54,5.62-2.81,2.66-6.02,6.14-9.13,10.54-3.65,5.16-6.09,10.06-7.73,14.05-.84-1.86-1.9-4.77-2.11-8.43Z"/>
      <path class="cls-4" d="M358.18,744.24c-3.72-5.62-10.8-6.65-13.35-7.02-7.27-1.06-13.07,1.55-15.45,2.81-4.32-3.64-6.66-5.28-7.02-4.92-.45,.45,2.12,3.96,7.73,10.54,3.35-.78,7.64-1.44,12.64-1.4,7.06,.05,12.85,1.47,16.86,2.81-.25-.71-.68-1.72-1.4-2.81Z"/>
      <path class="cls-26" d="M505.63,668.32l-.25,2.46c-.02,.2,.19,.38,.38,.38,.22,0,.35-.17,.38-.38l.25-2.46c.02-.2-.19-.38-.38-.38-.22,0-.35,.17-.38,.38h0Z"/>
      <path class="cls-35" d="M376.34,812.18c.27-2.86,.21-5.58-.12-8.09-.36,3.73-.07,6.66,.12,8.09Z"/>
      <path class="cls-35" d="M665.77,824.18c-7.1-.52-13.07,1.34-17.07,3.04,2.34-7.52,.71-15.61-4.1-20.52-4.86-4.96-11.01-4.65-12.29-4.56-.58-.74-4.25-5.25-10.24-5.32-7.19-.09-11.28,6.31-11.61,6.84,5.37-17.97-3.57-35.41-15.7-38.76-8.7-2.4-18.88,2.48-25.26,12.16,8.62-13.4,6.98-30.68-2.05-39.52-9.83-9.63-23.9-4.8-24.58-4.56-1.18-.91-8.55-6.38-17.75-3.8-5.95,1.67-9.56,5.84-10.92,7.6-3.86-11.38-11.14-19.18-19.12-19.76-5.91-.43-10.5,3.23-15.02,6.84-8.94,7.14-13.2,16.4-17.07,25.08-2.13,4.77-4.8,11.68-6.83,20.52,1.45-12.59-3.22-23.64-10.92-27.36-4.12-1.99-8.24-1.47-10.92-.76-2.61-1.37-9.24-4.33-17.07-2.28-10.05,2.63-17.99,12.44-20.48,25.08-2.72,1.55-9.16,5.75-13.65,14.44-2.73,5.27-3.83,10.45-4.22,14.7,.34,2.76,.4,5.73,.12,8.86-.19-1.57-.49-4.78-.12-8.86-1.09-8.81-5.06-15.33-10.12-16.98-4.59-1.49-9.26,1.29-10.92,2.28-8.33,4.96-10.53,14.81-10.92,16.72-2.18,1.84-6.15,5.71-8.88,12.16-2.07,4.9-2.6,9.35-2.73,12.16-1.53-1.11-3.84-2.59-6.83-3.8-2.95-1.2-14.21-5.76-23.89,.76-1.89,1.27-5.42,4.11-8.19,9.88-2.43,.48-4.23,1.43-5.46,2.28-5.99,4.11-9.22,12.92-7.51,19.76,0,0,.63,2.51,2.05,4.56,6.86,9.9,104.54-.71,131.76-3.8,.89,1.14,2.9,3.39,6.14,4.56,4.95,1.79,9.19-.22,10.24-.76,3.56,10.96,13.41,17.22,22.53,15.2,7.21-1.6,13.1-8.17,15.02-16.72,4.97,13.26,16.72,20.59,27.31,18.24,10.78-2.39,15.79-13.79,16.39-15.2,23.12,34.53,54,45.36,69.64,34.2,2.25-1.61,10.6-8.25,12.97-28.12,8.01,9.52,20.11,11.73,28.67,6.08,8.87-5.84,10.11-17.58,10.24-19-.16,0,26.09,6.31,36.99,0,6-3.47,.8-22.94-7.63-23.56Z"/>
      <path class="cls-35" d="M219.8,862.96c-1.83,3.21-5.48,8.41-11.94,11.94-8.3,4.53-20.89,6.13-30.21-.7-5.01-3.68-7.38-8.55-8.43-11.24-2.38,2.02-5.89,4.36-10.54,5.62-14.63,3.96-27.23-6.39-28.8-7.73-1.07-1.19-4.37-4.52-9.83-5.62-6.42-1.29-11.4,1.39-12.64,2.11-1.7,1.08-4.33,2.4-7.73,2.81-9.13,1.11-15.81-5.29-16.86-6.32,.37-2.74,1.65-3.86,2.11-4.21,2.75-2.11,8.22-1.08,12.64,3.51,1.52-1.57,3.84-3.68,7.02-5.62,3.39-2.06,8.91-5.43,16.16-4.92,7.16,.51,12.11,4.54,14.05,6.32,2.11-.47,4.21-.94,6.32-1.4-.02-.65-.07-6.97,4.92-10.54,2.47-1.77,5.05-2.06,6.32-2.11,1.98-3.75,5.74-6.19,9.83-6.32,4.86-.16,9.42,2.94,11.24,7.73,1.06-2.25,3.15-5.92,7.02-9.13,1.48-1.23,8.03-6.67,14.05-5.62,7.01,1.23,13.21,11.27,12.64,24.59,2.01-.69,5.2-1.51,9.13-1.4,2.64,.07,8.39,.22,13.35,4.21,6.47,5.22,6.96,13.27,7.02,14.75-1,.88-2.9,2.28-5.62,2.81-6.01,1.17-10.66-2.97-11.24-3.51Z"/>
      <path class="cls-17" d="M294.81,834.73c1.62-3.52,4.85-6.16,8.67-6.92,4.08-.81,8.38,.74,11.17,3.77,.33,.36,.86-.18,.53-.53-2.91-3.17-7.35-4.75-11.6-4.02s-7.69,3.55-9.42,7.32c-.2,.44,.45,.82,.65,.38h0Z"/>
      <path class="cls-17" d="M310.45,822.96c9.48,1.86,16.97,10.54,17.37,20.21,.02,.48,.77,.48,.75,0-.41-9.98-8.11-19.01-17.92-20.93-.47-.09-.67,.63-.2,.72h0Z"/>
      <path class="cls-17" d="M328.05,827.43c4.76,4.03,7.54,10.07,7.5,16.31,0,.48,.75,.48,.75,0,.04-6.42-2.82-12.68-7.72-16.84-.37-.31-.9,.22-.53,.53h0Z"/>
      <path class="cls-17" d="M344.85,820.89c2.51-6.05,4.66-12.54,8.26-18.05,3.26-4.98,8.39-9.1,14.63-8.82s11.57,4.24,15.67,8.52c3.99,4.17,7.11,9.18,9.17,14.57,2.27,5.93,3.24,12.3,2.8,18.63-.03,.48,.72,.48,.75,0,.82-11.92-3.38-24.01-11.39-32.87-4.01-4.43-9.23-8.49-15.29-9.43s-11.45,2.02-15.19,6.57c-2.34,2.84-4,6.14-5.46,9.49-1.62,3.7-3.12,7.45-4.67,11.18-.18,.45,.54,.64,.72,.2h0Z"/>
      <path class="cls-17" d="M383.28,812.2c2.41,4.03,4.86,8.28,5.45,13.02,.52,4.14-.52,8.58-3.71,11.44-.36,.32,.17,.85,.53,.53,3.2-2.87,4.37-7.29,3.99-11.47-.47-5.06-3.05-9.62-5.61-13.9-.25-.41-.9-.04-.65,.38h0Z"/>
      <path class="cls-17" d="M354.51,815.31c-3.89,4.53-5.7,11.04-3.97,16.85,1.61,5.41,6.37,9.39,12.17,7.76,5.93-1.66,11.01-7.44,13.33-12.97s2.3-12.82-2.15-17.04c-2.45-2.33-5.77-1.79-8.47-.15s-4.63,4.35-5.32,7.43c-.11,.47,.62,.67,.72,.2,.6-2.65,2.13-5.02,4.37-6.59,2.44-1.72,5.77-2.63,8.17-.37,4.13,3.89,4.07,10.94,2.15,15.85s-6.12,9.82-10.99,12.15c-2.64,1.26-5.72,1.63-8.36,.16-2.16-1.2-3.68-3.35-4.55-5.62-2.2-5.76-.51-12.55,3.43-17.14,.31-.36-.22-.9-.53-.53h0Z"/>
      <path class="cls-17" d="M369.43,824.01c-1.58,2.49-3.94,4.45-6.69,5.53-.44,.17-.25,.9,.2,.72,2.93-1.15,5.44-3.21,7.13-5.88,.26-.41-.39-.79-.65-.38h0Z"/>
      <path class="cls-17" d="M380.09,791.5c6.06,3.94,11.04,9.38,14.44,15.76,.23,.43,.87,.05,.65-.38-3.46-6.49-8.54-12.02-14.71-16.02-.41-.26-.78,.39-.38,.65h0Z"/>
      <path class="cls-17" d="M391.79,789.87c4.66-9.85,13.23-20,24.37-22.36,11.24-2.38,21.25,5.58,26,15.19,3.02,6.11,4.36,12.89,5.21,19.6,.06,.47,.81,.48,.75,0-1.46-11.59-4.69-23.97-14.55-31.3-4.3-3.2-9.58-5.07-14.98-4.61-5.59,.47-10.72,3.2-14.98,6.73-5.32,4.4-9.54,10.15-12.48,16.37-.21,.43,.44,.82,.65,.38h0Z"/>
      <path class="cls-17" d="M441.52,774.97c8.22,1.1,14.5,9.45,13.43,17.63-.06,.48,.69,.47,.75,0,1.13-8.64-5.58-17.23-14.18-18.38-.48-.06-.47,.69,0,.75h0Z"/>
      <path class="cls-17" d="M467.84,785.29c10.97,1.55,22.17,4.92,30.52,12.53,7.48,6.81,12.25,16.8,10.23,27.01-1.08,5.44-3.95,10.5-8.48,13.79-.39,.28-.01,.93,.38,.65,8.01-5.82,10.94-16.66,8.46-26.03-2.82-10.67-11.5-18.77-21.28-23.27-6.2-2.85-12.89-4.45-19.63-5.4-.47-.07-.68,.66-.2,.72h0Z"/>
      <path class="cls-17" d="M498.74,811.52c4.48,1.85,6.78,6.96,6.34,11.62-.5,5.4-4.29,9.92-8.53,12.98-.39,.28-.01,.93,.38,.65,4.55-3.28,8.56-8.14,8.93-13.96,.31-4.94-2.23-10.07-6.92-12.01-.45-.18-.64,.54-.2,.72h0Z"/>
      <path class="cls-17" d="M417.62,825.46c1.61,5.84,5.98,10.73,11.55,13.09s12.24,1.76,17.53-1.42c3.04-1.84,5.56-4.44,7.24-7.57,.23-.43-.42-.8-.65-.38-3.63,6.78-11.49,11-19.17,9.98s-13.81-6.7-15.78-13.89c-.13-.46-.85-.27-.72,.2h0Z"/>
      <path class="cls-17" d="M426.42,791.28c4.63,2.2,8.58,5.65,11.41,9.93s4.93,9.91,4.56,15.2c-.2,2.92-1.47,5.96-4.14,7.43-2.81,1.54-5.99,.46-8.48-1.17-4.63-3.04-9.82-8.66-8.84-14.65,.14-.84,.4-1.67,.81-2.42,.12-.22,.26-.44,.4-.65,.53-.75,1.58-.79,2.34-.42,1.26,.62,2.48,1.79,3.52,2.72,2.3,2.05,4.25,4.59,4.5,7.77,.04,.48,.79,.48,.75,0-.22-2.91-1.73-5.35-3.75-7.39-1.05-1.06-2.22-2-3.42-2.88-.93-.68-2.18-1.89-3.43-1.33-1.1,.49-1.77,2.03-2.13,3.1-.48,1.43-.56,2.98-.35,4.48,.46,3.19,2.33,5.94,4.5,8.24,3.88,4.11,10.87,9.13,15.86,3.72,4.35-4.71,2.62-12.49,.31-17.76-2.77-6.33-7.82-11.59-14.06-14.57-.43-.21-.81,.44-.38,.65h0Z"/>
      <path class="cls-17" d="M463.01,805.05c5.07,4.19,9.79,9.54,11.18,16.16,1.24,5.91-.59,12.78-5.82,16.2-.4,.26-.03,.91,.38,.65,5.22-3.42,7.26-10.03,6.36-16.01-1.08-7.17-6.15-13.05-11.56-17.52-.37-.31-.9,.22-.53,.53h0Z"/>
      <path class="cls-17" d="M466.46,820.29c2.18,5.37,1.62,11.58-1.5,16.47-.26,.41,.39,.78,.65,.38,3.21-5.04,3.82-11.5,1.58-17.04-.18-.44-.9-.25-.72,.2h0Z"/>
      <path class="cls-17" d="M491.98,834.48c-3.26,4.73-9.92,6.65-15.19,4.36-.44-.19-.82,.46-.38,.65,5.67,2.46,12.7,.47,16.21-4.62,.27-.4-.38-.77-.65-.38h0Z"/>
      <path class="cls-17" d="M466.97,769.62c3.72-11.32,11.6-22.55,24.08-24.73,5.75-1.01,12.03,.05,16.62,3.82,4.97,4.09,8.05,10.71,10.13,16.66,2.48,7.07,3.38,14.77,1.05,22-.15,.46,.58,.66,.72,.2,2.13-6.64,1.61-13.73-.38-20.34-1.01-3.35-2.38-6.58-4-9.68s-3.35-5.9-5.76-8.26c-4.3-4.21-10.35-5.93-16.27-5.43s-11.66,3.25-16.07,7.43c-5.19,4.91-8.63,11.4-10.85,18.13-.15,.46,.57,.66,.72,.2h0Z"/>
      <path class="cls-17" d="M428.24,748.78c7.29,2.15,12.65,9.22,12.77,16.82,0,.48,.76,.48,.75,0-.12-7.93-5.71-15.29-13.32-17.54-.46-.14-.66,.59-.2,.72h0Z"/>
      <path class="cls-17" d="M503.86,759.03c8.22,9.81,10.24,24.18,5.01,35.87-.2,.44,.45,.82,.65,.38,5.37-12.02,3.33-26.69-5.13-36.78-.31-.37-.84,.16-.53,.53h0Z"/>
      <path class="cls-17" d="M526.82,779.23c5.57-4.29,13.13-4.25,19.63-2.41,6.12,1.73,11.71,5.09,16.3,9.47,10.17,9.71,14.63,23.69,13.39,37.56-.37,4.16-1.23,8.28-2.53,12.25-.68,2.09-1.48,4.16-2.41,6.15-.83,1.77-1.89,3.61-3.85,4.25-.46,.15-.26,.87,.2,.72,3.09-1.01,4.34-4.5,5.45-7.24,1.5-3.7,2.6-7.56,3.29-11.5,1.34-7.68,1.08-15.67-1.12-23.18-3.78-12.9-13.63-24.08-26.43-28.55-7.18-2.5-15.97-3.05-22.3,1.83-.38,.29,0,.94,.38,.65h0Z"/>
      <path class="cls-17" d="M546.24,786.26c6.68,3.3,13.01,7.73,17.27,13.94s6.18,14.27,3.84,21.61c-.15,.46,.58,.66,.72,.2,2.35-7.38,.54-15.5-3.69-21.85s-10.85-11.14-17.76-14.55c-.43-.21-.81,.43-.38,.65h0Z"/>
      <path class="cls-17" d="M518.78,825.54c4.29,7.67,8.26,15.7,13.35,22.88,4.21,5.93,9.86,11.79,17.29,13.23,3.6,.7,7.29,.19,10.18-2.17,.37-.31-.16-.83-.53-.53-5.92,4.84-14.37,1.19-19.4-3.15-5.59-4.83-9.4-11.31-12.98-17.68-2.43-4.32-4.84-8.64-7.26-12.97-.24-.42-.88-.04-.65,.38h0Z"/>
      <path class="cls-17" d="M520.7,811c3.53,8.88,7.84,17.43,12.9,25.54,.26,.41,.9,.03,.65-.38-5.03-8.05-9.32-16.54-12.83-25.36-.18-.44-.9-.25-.72,.2h0Z"/>
      <path class="cls-17" d="M545.83,842.09c1.16,2.8,4.16,4.66,7.2,4.35,.48-.05,.48-.8,0-.75-2.68,.27-5.44-1.3-6.48-3.8-.18-.44-.91-.25-.72,.2h0Z"/>
      <path class="cls-17" d="M581.2,798.35c8.37-.25,16.62,4.9,19.69,12.78,1.53,3.93,1.77,8.32,.78,12.41-.5,2.08-1.31,4.08-2.43,5.9s-2.69,3.89-4.96,4.48c-.47,.12-.27,.84,.2,.72,3.26-.84,5.37-4.31,6.66-7.19,1.43-3.21,2.06-6.77,1.83-10.28-.45-7.04-4.46-13.27-10.57-16.76-3.4-1.94-7.28-2.93-11.19-2.82-.48,.01-.48,.76,0,.75h0Z"/>
      <path class="cls-17" d="M612.52,820.44c2.27,2.41,1.97,6.6-.56,8.71-.37,.31,.16,.84,.53,.53,2.84-2.37,3.08-7.08,.56-9.77-.33-.35-.86,.18-.53,.53h0Z"/>
      <path class="cls-17" d="M573.55,780.96c1.9-2.35,3.84-4.78,6.41-6.44s5.79-2.43,8.64-1.22c.44,.19,.82-.46,.38-.65-2.87-1.22-6.08-.67-8.74,.83-2.95,1.66-5.13,4.36-7.22,6.95-.3,.37,.23,.91,.53,.53h0Z"/>
      <path class="cls-17" d="M581.36,778.55c6.95-3.52,15.98-1.54,20.88,4.5,.3,.37,.83-.16,.53-.53-5.12-6.31-14.55-8.27-21.79-4.61-.43,.22-.05,.87,.38,.65h0Z"/>
      <path class="cls-17" d="M530.21,749.79c4.2-4.19,9.88-7.03,15.89-7.04,5.67,0,11.31,2.64,14.6,7.32,.28,.39,.93,.02,.65-.38-3.37-4.79-9.04-7.58-14.87-7.68-6.34-.12-12.37,2.84-16.8,7.26-.34,.34,.19,.87,.53,.53h0Z"/>
      <path class="cls-17" d="M548.43,749.8c6.07,.02,11.81,3.71,14.38,9.2,.2,.44,.85,.06,.65-.38-2.68-5.73-8.71-9.55-15.03-9.57-.48,0-.48,.75,0,.75h0Z"/>
      <path class="cls-17" d="M628.21,807.72c5.24,3.97,7.41,11.27,5.31,17.47-.16,.46,.57,.65,.72,.2,2.22-6.55-.15-14.15-5.65-18.32-.38-.29-.76,.36-.38,.65h0Z"/>
      <path class="cls-17" d="M534.93,814.26c-1.8-2.84-3.14-5.92-3.94-9.19s-1.23-6.72,.22-9.72c1.37-2.83,4.32-4.6,7.45-3.6,2.85,.92,4.99,3.44,6.64,5.82,3.57,5.12,6.25,10.86,7.94,16.87,.88,3.12,1.5,6.33,1.83,9.56,.14,1.42,.24,2.84,.27,4.27,.02,.73,.13,1.57-.04,2.29-.34,1.43-1.62,1.51-2.79,1.2-3.14-.84-5.61-3.6-7.01-6.41-1.76-3.54-2.04-7.6-1.92-11.49,.01-.48-.74-.48-.75,0-.21,6.63,1.21,14.52,7.7,17.89,2.29,1.19,5.43,1.51,5.58-1.83,.16-3.61-.34-7.35-1.01-10.89-1.4-7.31-4.23-14.37-8.31-20.59-1.8-2.74-3.93-5.62-6.99-7.03-2.59-1.19-5.47-.79-7.53,1.21-2.65,2.56-3.01,6.4-2.53,9.86,.59,4.33,2.21,8.49,4.55,12.17,.26,.41,.91,.03,.65-.38h0Z"/>
      <path class="cls-17" d="M170.58,848.45c2.22-3.68,4.91-7.04,8.06-9.96s6.97-6.32,11.41-5.03c3.82,1.11,6.51,4.75,8.22,8.14s2.7,7.53,2.74,11.49c.04,4.51-1.06,8.96-3.27,12.89-.24,.42,.41,.8,.65,.38,4.11-7.32,4.46-16.45,1.03-24.1-1.64-3.65-4.25-7.46-8.04-9.12-4.1-1.79-7.83,.27-11.02,2.86-4.15,3.38-7.66,7.48-10.42,12.07-.25,.41,.4,.79,.65,.38h0Z"/>
      <path class="cls-17" d="M176.3,851.66c-1.51,4.3,.03,8.82,2.16,12.63,1.74,3.11,4.5,7.31,8.61,6.87,.47-.05,.48-.8,0-.75-3.93,.42-6.5-3.83-8.12-6.78-1.96-3.57-3.33-7.76-1.92-11.76,.16-.46-.56-.65-.72-.2h0Z"/>
      <path class="cls-17" d="M180.4,853.02c.73,2.34,1.71,4.59,2.96,6.69,.6,1.01,1.26,1.98,1.97,2.91,.57,.74,1.17,1.63,2.09,1.96,1.76,.62,3.89-.99,5.07-2.15,1.41-1.39,2.4-3.19,2.98-5.08,1.42-4.66,.25-10.16-1.66-14.52-.67-1.53-1.71-3.08-3.43-3.49s-3.38,.57-4.39,1.92c-1.53,2.05-1.29,4.68-.56,6.99,1,3.18,2.48,6.26,3.74,9.34,.18,.44,.91,.25,.72-.2-.83-2.03-1.66-4.05-2.49-6.08s-1.78-4.09-1.81-6.28c-.03-2.04,1.04-4.3,3.14-4.91s3.48,1.07,4.26,2.73c1.75,3.71,2.79,8.47,2.15,12.54-.51,3.25-2.59,7.38-6.03,8.37-1.83,.53-2.7-.9-3.63-2.18-.61-.84-1.17-1.71-1.68-2.6-1.12-1.95-2-4.01-2.67-6.16-.14-.46-.87-.26-.72,.2h0Z"/>
      <path class="cls-17" d="M141.41,855.55c1.86-2.31,3.82-4.54,5.9-6.64,1.92-1.94,4.02-3.83,6.54-4.96s5.14-1.35,7.6-.13c2.18,1.08,3.84,3.1,3.67,5.62-.03,.48,.72,.48,.75,0,.34-5.23-5.72-8-10.16-6.93-2.89,.7-5.37,2.52-7.52,4.51-2.65,2.45-5.04,5.2-7.3,8-.3,.37,.23,.91,.53,.53h0Z"/>
      <path class="cls-17" d="M151.41,854.41c2.8-4.21,9.05-5.38,13.21-2.54,.4,.27,.78-.38,.38-.65-4.51-3.08-11.22-1.72-14.23,2.81-.27,.4,.38,.78,.65,.38h0Z"/>
      <path class="cls-17" d="M210.22,852.98c4.68-1.51,10.12,.82,12.26,5.24,.21,.43,.86,.05,.65-.38-2.29-4.7-8.14-7.18-13.11-5.58-.46,.15-.26,.87,.2,.72h0Z"/>
    </g>
  </g>
</svg>