<?xml version="1.0" encoding="UTF-8"?>
<svg id="_Слой_2" data-name="Слой 2" xmlns="http://www.w3.org/2000/svg" xmlns:xlink="http://www.w3.org/1999/xlink" viewBox="0 0 680 916">
  <defs>
    <style>
      .cls-1 {
        opacity: .68;
      }

      .cls-2 {
        fill: #242428;
      }

      .cls-3 {
        opacity: .18;
      }

      .cls-4 {
        opacity: .59;
      }

      .cls-4, .cls-5, .cls-6, .cls-7 {
        fill: gray;
      }

      .cls-8 {
        stroke: #ffeb62;
        stroke-linecap: round;
      }

      .cls-8, .cls-9, .cls-10, .cls-11, .cls-12 {
        stroke-miterlimit: 10;
      }

      .cls-8, .cls-9, .cls-10, .cls-11, .cls-12, .cls-13 {
        fill: none;
      }

      .cls-9 {
        opacity: .7;
        stroke-width: 2px;
      }

      .cls-9, .cls-12 {
        stroke: gray;
      }

      .cls-14 {
        fill: #353544;
      }

      .cls-5 {
        opacity: .51;
      }

      .cls-15 {
        opacity: .47;
      }

      .cls-15, .cls-16 {
        fill: #ffeb62;
      }

      .cls-10 {
        stroke: #817636;
        stroke-width: 3px;
      }

      .cls-11 {
        stroke: #4d4c63;
        stroke-width: 7px;
      }

      .cls-17 {
        opacity: .44;
      }

      .cls-17, .cls-18 {
        fill: #111010;
      }

      .cls-19 {
        fill: #1b1d1f;
      }

      .cls-20 {
        fill: #333;
      }

      .cls-21 {
        fill: #817636;
      }

      .cls-22 {
        fill: #222228;
      }

      .cls-23 {
        fill: #4d4c63;
      }

      .cls-24 {
        fill: #2a2a35;
      }

      .cls-25 {
        fill: #3f3d56;
        opacity: .54;
      }

      .cls-12 {
        opacity: .48;
        stroke-width: 4px;
      }

      .cls-26 {
        clip-path: url(#clippath);
      }

      .cls-27 {
        fill: #353535;
      }

      .cls-28 {
        fill: #242628;
      }

      .cls-29 {
        fill: #666;
      }

      .cls-7 {
        opacity: .38;
      }
    </style>
    <clipPath id="clippath">
      <rect class="cls-13" width="680" height="916"/>
    </clipPath>
  </defs>
  <g id="_Слой_1-2" data-name="Слой 1">
    <g class="cls-26">
      <rect class="cls-19" width="680" height="916"/>
      <path class="cls-28" d="M659.6,797.72c-8.12-5.52-21-5.82-32.6-1.77,12.35-11.39,11.77-27.53,1.42-35.91-7.28-5.89-18.9-7.55-29.77-4.71,1.84-6.31,3.68-15.5,2.84-26.49-1.94-25.07-18.04-61.28-48-65.49-5.39-.76-15.51-1.09-29.23,5.34,4.01-13.2,1.22-27.41-7.01-36.02-8.32-8.7-18.85-8.17-21.04-8-.99-1.29-7.29-9.21-17.54-9.34-12.32-.15-19.31,11.07-19.88,12.01,9.2-31.55-6.12-62.16-26.89-68.04-14.9-4.22-32.34,4.35-43.26,21.35,14.75-23.53,11.95-53.86-3.51-69.37-16.84-16.9-40.93-8.43-42.09-8-2.02-1.6-14.64-11.21-30.4-6.67-10.19,2.93-16.37,10.25-18.71,13.34-6.6-19.98-19.07-33.67-32.74-34.69-10.12-.75-17.98,5.67-25.72,12.01-15.31,12.53-22.6,28.8-29.23,44.03-3.64,8.37-8.21,20.51-11.69,36.02,2.49-22.1-5.52-41.49-18.71-48.03-7.05-3.49-14.12-2.58-18.71-1.33-4.48-2.4-15.82-7.59-29.23-4-17.22,4.61-30.82,21.83-35.07,44.03-4.66,2.73-15.69,10.1-23.38,25.35-4.66,9.24-6.57,18.33-7.23,25.78-1.87-15.47-8.66-26.89-17.33-29.78-7.86-2.62-15.86,2.26-18.71,4-14.26,8.71-18.03,26-18.71,29.35-3.73,3.23-10.54,10.03-15.2,21.35-3.54,8.6-4.45,16.42-4.68,21.35-.99-.74-2.83-12.97-3.53-22.11-12.52-37.2-37.01-62.91-63.22-63.93-5.08-.2-11.5,.48-18.97,3.51-2-5.85-7.4-9.79-13.35-9.83-5.24-.04-10.13,2.96-12.64,7.73-.69-23.2-14.62-40.03-29.5-41.45-9.62-.91-17.58,4.8-21.07,7.73-3.06,.19-13.69,1.25-22.48,9.83-5.89,5.75-8.21,12.2-9.13,15.45-2.89-.24-8.03-.22-12.64,2.81-6.03,3.96-7.68,10.78-9.83,19.67-1.12,4.62-2.35,11.6-2.11,20.37-2.18-14.45-9.89-25.29-19.67-27.4-7.82-1.68-14.7,2.71-20.37,6.32-15.14,9.65-22.16,24.41-25.29,33.02-5.69,7.14-15.8,22.06-17.56,42.85-.59,6.92-.13,13.1,.7,18.26-.41-1.6-2.09-7.29-7.73-11.24-4.32-3.03-8.7-3.44-10.54-3.51-3.56-3.85-11.34-10.99-21.07-10.54-14.69,.68-23.7,18.16-28.1,26.69-5.87,11.39-7.38,21.43-7.73,23.88-5.58,39.37,1.73,130.89,2.11,135.58,24.02-.05,286.61,2.21,286.61,2.21,144.7-.68,261.13-.44,343.17-.06,76.8,.36,342.73-9.87,342.73-9.87,16.16,14.05,64.63,14.05,70.37,9.34,16.66-14.54,15.01-34.69,2.84-42.97Z"/>
      <g class="cls-1">
        <circle class="cls-25" cx="521.8" cy="282.82" r="77.63"/>
        <circle class="cls-17" cx="562.7" cy="262.73" r="16.68"/>
        <circle class="cls-17" cx="557.83" cy="303.25" r="7.68"/>
        <circle class="cls-18" cx="477.74" cy="278.14" r="3.69"/>
      </g>
      <path class="cls-22" d="M-172.03,349.7c2.57-.64,3.95-.28,9.35-.23,1.43,.01,5.47,.05,8.57-.21,5.98-.5,6.75-1.97,15.49-4.14,6.46-1.6,9.76-2.38,13.22-1.58,4.64,1.08,7.39,4.2,8.72,6.05,.86-2.07,2.74-5.62,6.8-8.93,6.2-5.06,13.52-6.31,16.21-6.66,8.82-.63,17.64-1.27,26.46-1.9,1.91-.2,4.75-.7,7.75-2.07,5.78-2.65,8.31-6.79,9.15-8.36,2.71-5.91,5.43-11.82,8.14-17.73,.13-.95,.9-5.65,6.02-8.91,4.14-2.64,8.61-2.74,10.07-2.75,6.62-.07,12.55,3.02,15.77,7.13,3.78,4.81,2.91,9.81,2.61,11.2,1.05-1.59,2.92-3.79,6.11-5.16,5.79-2.49,12.13-.62,18.75,1.42,7.68,2.37,17.52,5.4,22.95,13.84,3.31,5.14,3.59,10.13,3.44,13.06,5.57-1.93,13.82-3.97,23.32-3.08,10.17,.96,15.04,4.67,29.93,12.41,11.77,6.13,25.32,13.1,42.55,18.36,19.76,6.04,28.32,4.93,32.07,4.22,10.02-1.88,16.99-6.71,20.81-9.9,.72-.97,13.05-17,30.01-16.39,5.63,.2,10.96,2.21,12.54,2.82,7.98,3.07,12.73,7.65,15.07,10.27,.39-2.53,1.28-6.39,3.64-10.73,2.84-5.25,7.3-13.48,16.77-15.44,9.98-2.07,19.05,4.18,20.4,5.13,7.65,5.98,16.89,6.87,21.15,3.86,.61-.43,2.86-2.18,2.96-6.33-.94-2.66-2.02-6.78-1.85-11.85,.14-4.28,.34-10.36,5.07-15.78,4.56-5.22,11.09-7.24,15.39-8.52,17.4-5.17,34.22,.15,39.82,2.15-.48-2.58-.84-6.61,.5-11.28,2.74-9.53,10.7-15.24,14.38-17.88,16.67-11.97,54.83-21.7,75.49-5.61,12.26,9.54,12.64,23.71,12.41,29.12,2.17-.74,10.2-3.23,17.92-.44,9.76,3.53,15.33,14.13,11.54,25.39-.04,2.14,.23,7.64,4.98,12.4,6.13,6.14,15.5,6.81,18.89,7.05,13.15,.93,18.8-4.81,30.24-7,8.67-1.66,21.89-1.52,40.73,7.77,4.25-.53,11.3-.95,19.51,.77,5.8,1.22,10.3,3.11,13.37,4.68,6.03-1.47,11.37-.83,13.29,1.55,2.29,2.85-.91,7.43-2.12,8.82-9.42,10.76-49.63,.83-59.3-1.68-1.05,.18-4.33,.84-6.94,3.3-3.08,2.9-2.99,6.22-2.95,6.96-1.37,3.85-3.73,5.94-5.29,7.02-7.42,5.15-21.13,4.47-33.58-2.31,.17,4.14-.53,10.61-5.85,15.79-10.71,10.43-32.78,8.51-45.91,3.63-11.4-4.24-17.75-11.33-20.64-15.15-1.63,1.62-8.54,8.09-20.05,9.26-11.51,1.16-23.1-3.44-29.92-11.79-5.73,2.86-14.52,6.22-24.81,5.62-12.7-.74-18.28-6.96-29.89-10.54-8.86-2.73-22.7-4.37-43.62,1.69-1.63,3.22-4.73,8.04-10.62,12.16-11.6,8.11-25.99,7.9-35.68,7.76-23.27-.34-40.77-8.79-49.46-13.81-.22,1.68-1.2,7.22-6.75,10.81-7.12,4.6-18.97,4.2-28.11-1.82-4.54,1.01-11.29,2.05-19.45,1.73-7.2-.29-13.08-1.54-17.22-2.71-3.14-.45-10.03-1.42-18.78-2.67-48.45-6.91-57.25-8.33-71.12-7.02-15,1.41-13.47,3.9-27.94,5.07-21.14,1.7-38.95-2.43-50.83-6.27-3.73,2.02-9.51,4.51-17.02,5.43-20.2,2.47-35.31-8.56-37.68-10.35-2.6-.94-8.6-2.77-16.42-2.1-7.74,.66-13.14,3.41-15.48,4.76-1.05,.81-8.42,6.3-19.36,5.48-11.55-.87-17.45-8.06-18.15-8.95-9.16,1.36-16.34,.7-21.05-.11-2.76-.47-13.25-2.27-13.38-5.31-.09-1.93,4.05-3.84,6.91-4.55Z"/>
      <path class="cls-20" d="M-8.19,695.77c7.8-1.22,12.54,.84,14.75,2.11,11.19,6.4,15.72,25.45,8.43,46.36,1.13-.36,10.99-3.37,19.67,2.81,6.2,4.42,7.99,10.81,8.43,12.64,6.2-1.05,35.97-5.39,64.63,14.05,29.38,19.93,36.05,50.25,37.23,56.2,1.38-1.09,10.78-8.23,22.48-5.62,11.25,2.51,19.97,13.01,21.07,25.99H-8.19v-154.55Z"/>
      <g>
        <circle class="cls-12" cx="369.04" cy="582.51" r="251.49"/>
        <circle class="cls-9" cx="368.54" cy="582.12" r="240.69"/>
        <circle class="cls-23" cx="366.49" cy="577.9" r="157.36"/>
        <g>
          <path class="cls-14" d="M502.28,499.65c1.02,0,1.86,1.87,1.86,4.18s-.83,4.18-1.86,4.18h-18.97c-.86-1.32-1.76-2.63-2.68-3.93-1.08-1.51-2.18-2.99-3.3-4.43h24.95Z"/>
          <path class="cls-14" d="M483.31,508.01c23.96,36.65,21.36,75.26,19.04,90.53-.08,.52-.26,1.01-.52,1.45-1.49-3.68-3.8-6.94-6.7-9.56,1.63-17.83,.73-50.86-21.13-81.64-.18-.26-.37-.52-.56-.77h9.87Z"/>
          <path class="cls-14" d="M501.83,599.99c1.24,3.03,1.91,6.34,1.91,9.8,0,9.37-4.97,17.61-12.41,22.21,.37-3.84,.46-7.52,.3-10.95,2.49-3.08,3.98-7,3.98-11.26,0-3.4-.95-6.59-2.6-9.31l1.81-.49c.6,1.02,1.64,1.77,2.9,1.96,.2,.03,.41,.04,.61,.04,1.46,0,2.78-.79,3.5-2Z"/>
          <path class="cls-14" d="M501.83,599.99c-.72,1.22-2.05,2-3.5,2-.2,0-.41,0-.61-.04-1.26-.2-2.3-.94-2.9-1.96-.46-.78-.66-1.71-.52-2.68,.29-1.92,.59-4.24,.83-6.89,2.9,2.63,5.21,5.88,6.7,9.56Z"/>
          <path class="cls-14" d="M494.82,599.99l-1.81,.49c-3.16-5.18-8.86-8.65-15.36-8.65-9.9,0-17.96,8.05-17.96,17.96,0,1.74,.25,3.44,.72,5.03-1.45,3.14-2.75,6.61-3.85,10.32-3.14-4.32-5-9.63-5-15.35,0-13.83,10.81-25.19,24.43-26.05l-.02,.37c-.15,2.24,1.55,4.17,3.8,4.32,.09,0,.18,0,.27,0,2.13,0,3.91-1.64,4.05-3.8,0-.05,0-.09,0-.14,4.17,1.06,7.94,3.12,11.04,5.92-.24,2.65-.53,4.97-.83,6.89-.15,.97,.06,1.9,.52,2.68Z"/>
          <path class="cls-14" d="M491.63,621.04c.16,3.44,.07,7.12-.3,10.95-3.98,2.46-8.67,3.89-13.69,3.89-1.57,0-3.12-.14-4.61-.41-6.73-1.2-12.58-5.01-16.48-10.33,1.1-3.71,2.41-7.18,3.85-10.32,2.18,7.47,9.08,12.93,17.24,12.93,5.64,0,10.69-2.62,13.99-6.71Z"/>
          <path class="cls-14" d="M491.63,621.04c-3.3,4.09-8.34,6.71-13.99,6.71-8.16,0-15.06-5.46-17.24-12.93,5.44-11.83,12.91-19.1,19.63-17.81,6.75,1.31,10.99,10.94,11.59,24.03Z"/>
          <path class="cls-14" d="M491.33,632c-.26,2.85-.68,5.78-1.26,8.75-5.8-1.12-11.61-2.24-17.41-3.36l.37-1.91c1.5,.27,3.04,.41,4.61,.41,5.01,0,9.7-1.42,13.69-3.89Z"/>
          <path class="cls-14" d="M490.07,640.75c.32,2.54-1.18,4.95-3.52,5.75-2.18,.75-4.66-.04-6.05-1.97-.22,.52-1.86,4.22-5.85,5.3-2.12,.57-3.93,.15-4.79-.12,.79-4.13,1.6-8.27,2.4-12.4,.14,.02,.27,.05,.41,.08,5.8,1.12,11.61,2.24,17.41,3.36Z"/>
          <path class="cls-14" d="M474.2,533.14c9.61,20.08,10.68,38.99,9.88,51.36-2.06-.53-4.22-.81-6.44-.81-.56,0-1.11,.02-1.66,.05,.7-11.4-.34-28.71-9.12-47.09-6.05-12.64-14.01-22.05-21.1-28.64h11.43c6.87,7.49,12.63,15.98,17.01,25.13Z"/>
          <path class="cls-14" d="M484.08,584.5s0,.09,0,.14c-.14,2.15-1.92,3.8-4.05,3.8-.09,0-.18,0-.27,0-2.24-.15-3.94-2.08-3.8-4.32l.02-.37c.55-.03,1.1-.05,1.66-.05,2.22,0,4.38,.28,6.44,.81Z"/>
          <path class="cls-14" d="M483.31,508.01h-9.87c-2.09-2.91-4.31-5.69-6.65-8.36h10.54c1.12,1.43,2.22,2.91,3.3,4.43,.92,1.31,1.82,2.62,2.68,3.93Z"/>
          <path class="cls-14" d="M477.33,499.65h-10.54c-11.74-13.42-26.4-23.76-43.77-30.87-2.79-2.26-6.31-3.62-10.15-3.68-.74-.24-1.47-.47-2.22-.7-16.52-5-30.51-5.95-36.99-6.09-1.01-.8-2.09-1.19-3.06-1.38,.62-.69,1-1.59,1.02-2.59,.05-1.82-1.1-3.38-2.72-3.94,.38-.13,.8-.21,1.24-.22,7.06-.16,68.55-.11,107.2,49.48Z"/>
          <path class="cls-14" d="M473.44,508.01h-16.25c-2.37-2.6-4.88-5.07-7.51-7.42v-.94h17.11c2.34,2.67,4.56,5.45,6.65,8.36Z"/>
          <path class="cls-14" d="M473.03,635.47l-.37,1.91c-.14-.03-.27-.06-.41-.08-5.24-1.01-10.46-2.02-15.69-3.03-.29-1.47-.72-2.93-1.28-4.35,.39-1.64,.82-3.23,1.28-4.78,3.89,5.33,9.74,9.13,16.48,10.33Z"/>
          <path class="cls-14" d="M472.25,637.31c-.8,4.13-1.6,8.27-2.4,12.4-.91-.07-2.75-.35-4.5-1.68-3.3-2.49-3.44-6.53-3.45-7.09-1.54,.97-3.42,1.09-5.01,.41,.08-.79,.12-1.6,.12-2.41,0-1.58-.16-3.13-.46-4.66,5.23,1.01,10.45,2.03,15.69,3.03Z"/>
          <path class="cls-14" d="M457.19,508.01h-11.43c-2.42-2.27-4.74-4.2-6.86-5.82-.17-.13-.33-.28-.47-.43,3.78-.08,7.56-.44,11.25-1.17,2.63,2.35,5.14,4.82,7.51,7.42Z"/>
          <path class="cls-14" d="M457.02,638.94c0,.81-.04,1.62-.12,2.41-.48-.2-.94-.48-1.35-.83-1.87-1.62-2.36-4.42-1.12-6.65,.71,.14,1.42,.28,2.14,.41,.3,1.53,.46,3.08,.46,4.66Z"/>
          <path class="cls-14" d="M456.56,634.27c-.71-.13-1.42-.27-2.14-.41,.26-1.33,.54-2.65,.85-3.94,.56,1.42,.99,2.88,1.28,4.35Z"/>
          <path class="cls-24" d="M455.55,640.51c.41,.35,.87,.63,1.35,.83-2,19.63-28.2,35.51-64.27,40.4v-6.46c11.95-1.63,22.93-4.47,32.12-8.39,16.66-7.11,25.83-17.15,25.83-28.3s-9.18-21.2-25.83-28.3c-15.1-6.44-35.05-9.99-56.18-9.99s-41.08,3.55-56.18,9.99c-16.66,7.11-25.83,17.16-25.83,28.3s9.17,21.2,25.83,28.3c9.36,3.99,20.57,6.87,32.79,8.49v6.36c-36.08-4.89-62.29-20.79-64.26-40.43,.47-.2,.9-.47,1.29-.81,1.88-1.62,2.37-4.42,1.13-6.65-.25-1.31-.53-2.6-.83-3.86,7.4-18.99,38.13-33.26,77.12-35.23,3.91,1.82,7.96,.64,8.59,.44,.64,.2,5.71,1.38,9.87-.45,38.97,1.95,69.71,16.19,77.18,35.15-.31,1.29-.59,2.61-.85,3.94-1.24,2.23-.75,5.03,1.12,6.65Z"/>
          <path class="cls-14" d="M455.62,533.43c.48,17.48-11.98,32.89-29.66,36.62-.28,.06-.56,.08-.84,.08-1.88,0-3.57-1.31-3.98-3.22-.47-2.2,.94-4.35,3.14-4.82,13.6-2.87,23.58-15.1,23.21-28.44-.32-11.4-7.89-21.56-19-25.64h15.35c7.11,6.5,11.51,15.59,11.78,25.42Z"/>
          <path class="cls-14" d="M449.68,499.65v.94c-3.69,.73-7.47,1.09-11.25,1.17,.15,.16,.3,.3,.47,.43,2.11,1.62,4.43,3.55,6.86,5.82h-1.92c-3.94-3.62-8.72-6.45-14.1-8.16l-.61-.2h20.55Z"/>
          <path class="cls-14" d="M424.75,610.29c16.66,7.11,25.83,17.16,25.83,28.3s-9.18,21.2-25.83,28.3c-9.19,3.92-20.17,6.77-32.12,8.39v-1.8c32.2-4.7,56.25-18.63,56.25-34.55,0-5.23-2.59-10.23-7.19-14.77-12.74-12.54-40.95-21.5-72.78-21.5-43.35,0-79.97,16.61-79.97,36.26,0,15.93,24.05,29.85,56.25,34.55v1.9c-12.21-1.62-23.43-4.5-32.79-8.49-16.66-7.11-25.83-17.15-25.83-28.3s9.17-21.2,25.83-28.3c15.09-6.44,35.05-9.99,56.18-9.99s41.07,3.55,56.18,9.99Z"/>
          <path class="cls-14" d="M443.84,508.01h-15.35l-.61-.22c-6.94,.11-13.96,.05-20.75,0-6.98-.06-14.19-.11-21.25,0h-.07c-1.16,0-2.21-.48-2.95-1.27-.27-.73-.43-1.66-.43-2.68,0-1.23,.24-2.33,.61-3.09,.71-.66,1.66-1.07,2.71-1.09h21.45c6.97,.06,14.19,.11,21.25,0h.69l.61,.2c5.37,1.72,10.15,4.54,14.1,8.16Z"/>
          <path class="cls-14" d="M443.42,532.82c.02,1.1-.42,2.15-1.19,2.92-3.83,3.82-14.48,12.71-30.66,12.71h-.02c-15.62,0-26.11-8.36-29.9-11.96-.79-.76-1.25-1.8-1.27-2.9,0-1.1,.42-2.15,1.19-2.93,3.73-3.73,14.1-12.43,29.92-12.71,16.04-.29,26.78,8.27,30.66,11.97,.79,.75,1.25,1.8,1.26,2.9Zm-27.94,7.27c7.88-.9,13.9-4.38,17.57-7.15-3.72-2.68-9.82-6-17.7-6.72-1.37-.95-3.02-1.5-4.8-1.5-2.17,0-4.14,.81-5.64,2.15-6.23,1.36-11.06,4.24-14.17,6.59,3.26,2.36,8.14,5.08,14.39,6.25,1.47,1.22,3.35,1.96,5.42,1.96,1.84,0,3.54-.59,4.93-1.59Z"/>
          <path class="cls-14" d="M441.69,624.17c4.61,4.53,7.19,9.54,7.19,14.77,0,15.93-24.05,29.85-56.25,34.55v-9.82c10.31-1.51,19.72-4.01,27.59-7.36,4.4-1.87,8.14-3.98,11.09-6.18h8.75v-24.4l1.62-1.55Z"/>
          <path class="cls-14" d="M441.69,624.17l-1.62,1.55h-10.7c-2.59-1.71-5.66-3.34-9.15-4.83-13.7-5.85-32.05-9.06-51.65-9.06s-37.96,3.21-51.66,9.06c-3.48,1.49-6.55,3.12-9.15,4.83h-9.34v10.54c-.23,.79-.34,1.57-.34,2.34s.11,1.55,.34,2.34v9.19h7.4c2.96,2.21,6.69,4.31,11.09,6.18,8.05,3.43,17.7,5.96,28.27,7.46v9.73c-32.2-4.7-56.25-18.63-56.25-34.55,0-19.66,36.62-36.26,79.97-36.26,31.83,0,60.05,8.96,72.78,21.5Z"/>
          <path class="cls-14" d="M440.07,638.59v11.53h-8.75c4.97-3.71,7.74-7.73,7.74-11.53h1.01Z"/>
          <path class="cls-14" d="M440.07,625.72v12.88h-1.01c0-4.26-3.49-8.81-9.69-12.88h10.7Z"/>
          <path class="cls-23" d="M429.37,625.72c6.19,4.07,9.69,8.61,9.69,12.88,0,3.8-2.77,7.81-7.74,11.53h-125.5c-3.96-2.95-6.52-6.1-7.4-9.19v-4.68c1.01-3.56,4.28-7.21,9.34-10.54h121.6Z"/>
          <path class="cls-2" d="M392.63,650.12h38.69c-2.95,2.21-6.69,4.31-11.09,6.18-7.88,3.35-17.29,5.85-27.59,7.36v-13.55Z"/>
          <path class="cls-2" d="M429.37,625.72h-121.6c2.59-1.71,5.66-3.34,9.15-4.83,13.7-5.85,32.05-9.06,51.66-9.06s37.95,3.21,51.65,9.06c3.48,1.49,6.55,3.12,9.15,4.83Z"/>
          <polygon class="cls-14" points="429.13 499.65 428.45 499.65 429.11 499.64 429.13 499.65"/>
          <path class="cls-14" d="M428.5,508.01h-44.22c-.57,0-1.08-.58-1.42-1.5,.74,.79,1.79,1.27,2.95,1.27h.07c7.07-.11,14.28-.06,21.25,0,6.8,.06,13.82,.11,20.75,0l.61,.22Z"/>
          <path class="cls-14" d="M412.59,499.65h15.86c-7.07,.11-14.28,.06-21.25,0h5.39Z"/>
          <path class="cls-14" d="M423.02,468.78c3.76,3.04,6.18,7.7,6.18,12.91,0,9.16-7.45,16.61-16.61,16.61s-16.61-7.44-16.61-16.61,7.44-16.6,16.61-16.6c.09,0,.19,0,.28,0,3.48,1.1,6.86,2.34,10.15,3.68Zm-1.96,12.91c0-4.67-3.8-8.47-8.47-8.47s-8.48,3.8-8.48,8.47,3.8,8.48,8.48,8.48,8.47-3.8,8.47-8.48Z"/>
          <path class="cls-14" d="M415.35,526.22c2.22,1.52,3.67,4.08,3.67,6.98s-1.4,5.35-3.54,6.89c-1.26,.15-2.57,.23-3.92,.23h0c-2.27,0-4.42-.22-6.42-.6-1.87-1.55-3.05-3.9-3.05-6.52s1.1-4.77,2.83-6.32c2.09-.47,4.34-.75,6.72-.79,1.28-.02,2.52,.02,3.71,.14Z"/>
          <path class="cls-14" d="M412.86,465.1c3.84,.06,7.36,1.42,10.15,3.68-3.29-1.34-6.68-2.58-10.15-3.68Z"/>
          <path class="cls-14" d="M415.35,526.22c-1.19-.11-2.44-.16-3.71-.14-2.39,.04-4.64,.33-6.72,.79,1.5-1.34,3.47-2.15,5.64-2.15,1.78,0,3.44,.55,4.8,1.5Z"/>
          <path class="cls-14" d="M411.56,540.32c1.35,0,2.66-.08,3.92-.23-1.39,1-3.09,1.59-4.93,1.59-2.06,0-3.94-.74-5.42-1.96,2,.38,4.15,.6,6.42,.6h0Z"/>
          <path class="cls-14" d="M406.86,499.65h-21.11c7.05-.11,14.2-.06,21.11,0Z"/>
          <path class="cls-24" d="M398.01,578.95c.15,3.09-1.2,5.54-2.03,6.78-1.33,1.03-3.62,2.52-6.78,3.39-2.45,.68-4.6,.75-6.09,.68-.52,1.06-1.52,2.73-3.39,4.07-.52,.37-1.06,.66-1.62,.91-3.01-.16-6.08-.23-9.19-.23-.22,0-.45,0-.67,0,.12-9.47,.24-18.95,.35-28.43,.19-7.97,.36-15.94,.29-23.91l.02-1.89c1.22-.02,6.44,.04,10.81,4.07,3.65,3.36,4.52,7.48,4.74,8.81,.23,3.62,.46,7.23,.68,10.85,3.59,1.79,6,3.93,7.46,5.42,2.52,2.59,5.23,5.38,5.42,9.48Z"/>
          <path class="cls-23" d="M392.63,681.75v6.32c0,13.11-10.62,37.96-23.72,37.96s-23.72-24.85-23.72-37.96v-6.32c1.59,.22,3.2,.42,4.83,.59,.88,10.81,9.01,28.5,18.9,28.5s18.01-17.69,18.9-28.5c1.63-.17,3.24-.37,4.83-.59Z"/>
          <path class="cls-23" d="M392.63,675.29v6.46c-1.59,.22-3.2,.42-4.83,.59,.06-.65,.08-1.28,.08-1.87v-4.61c1.6-.17,3.18-.36,4.74-.58Z"/>
          <path class="cls-23" d="M392.63,673.49v1.8c-1.56,.22-3.15,.41-4.74,.58v-1.76c1.6-.18,3.18-.39,4.74-.62Z"/>
          <path class="cls-23" d="M392.63,663.67v9.82c-1.56,.23-3.15,.44-4.74,.62v-9.83c1.6-.18,3.18-.38,4.74-.61Z"/>
          <path class="cls-23" d="M392.63,650.12v13.55c-1.56,.23-3.14,.43-4.74,.61v-14.16h4.74Z"/>
          <path class="cls-14" d="M387.89,675.87v4.61c0,.59-.02,1.22-.08,1.87-6.07,.65-12.39,.98-18.9,.98s-12.83-.34-18.9-.98c-.06-.65-.08-1.28-.08-1.87v-4.53c6.04,.62,12.29,.94,18.64,.94s13.06-.34,19.31-1.01Z"/>
          <path class="cls-14" d="M387.89,674.11v1.76c-6.25,.67-12.73,1.01-19.31,1.01s-12.61-.32-18.64-.94v-1.83c6.11,.7,12.47,1.08,18.98,1.08s12.87-.38,18.98-1.08Z"/>
          <path class="cls-14" d="M387.89,664.28v9.83c-6.11,.7-12.47,1.08-18.98,1.08s-12.87-.38-18.98-1.08v-9.75c6,.66,12.25,1.01,18.64,1.01s13.11-.37,19.31-1.09Z"/>
          <path class="cls-14" d="M387.89,650.12v14.16c-6.21,.72-12.69,1.09-19.31,1.09s-12.64-.34-18.64-1.01v-14.24h37.96Z"/>
          <path class="cls-24" d="M387.21,474.57c.07,1.96,.03,7.92-4.07,13.56-4.97,6.84-12.39,8.39-14.91,8.74v-38.62c.23-.03,.45-.09,.66-.17,.44,.16,.92,.25,1.42,.24,.61-.02,1.75-.03,3.34,0,2.23,1.75,2.63,4.21,2.71,4.74,.49-.52,1.95-1.91,4.07-2.04,2.81-.16,5.68,2.01,6.77,5.42v8.13Z"/>
          <path class="cls-14" d="M384.28,499.65h1.46c-1.05,.02-2,.43-2.71,1.09,.33-.68,.77-1.09,1.24-1.09Z"/>
          <path class="cls-14" d="M383.04,500.74c-.38,.76-.61,1.87-.61,3.09,0,1.02,.16,1.96,.43,2.68-.68-.71-1.1-1.67-1.11-2.73-.02-1.2,.48-2.28,1.29-3.04Z"/>
          <path class="cls-14" d="M387.81,682.34c-.88,10.81-9.01,28.5-18.9,28.5s-18.01-17.69-18.9-28.5c6.07,.65,12.39,.98,18.9,.98s12.83-.34,18.9-.98Z"/>
          <path class="cls-24" d="M378.1,594.77c-4.16,1.83-9.23,.65-9.87,.45,0-.22,0-.45,0-.67,.22,0,.45,0,.67,0,3.11,0,6.18,.07,9.19,.23Z"/>
          <path class="cls-24" d="M373.65,458.31c-1.59-.03-2.72-.02-3.34,0-.5,0-.98-.07-1.42-.24,.66-.23,1.25-.63,1.7-1.15,.97,.19,2.05,.58,3.06,1.38Z"/>
          <path class="cls-14" d="M368.89,450.4c1.63,.56,2.77,2.13,2.72,3.94-.02,1-.4,1.9-1.02,2.59-1.17-.21-2.18-.12-2.7-.04-.2-.02-.48-.07-.82-.08-.56-.67-.89-1.53-.92-2.46-.05-1.82,1.1-3.38,2.73-3.94Z"/>
          <path class="cls-24" d="M367.89,456.88c.52-.08,1.53-.17,2.7,.04-.45,.52-1.04,.92-1.7,1.15-.23-.07-.45-.17-.66-.3v-.82c-.06,0-.17-.03-.34-.07Z"/>
          <path class="cls-24" d="M368.91,540.32l-.02,1.89c0-.63,0-1.26-.02-1.89h.04Z"/>
          <path class="cls-14" d="M368.87,540.32c0,.63,.02,1.26,.02,1.89-.1,7.97-.2,15.94-.29,23.91-.22,9.47-.47,18.95-.37,28.43-2.9,0-5.77,.08-8.58,.23-.53-.25-1.06-.55-1.58-.92-1.87-1.33-2.87-3.01-3.39-4.07-1.5,.07-3.64,0-6.09-.68-3.17-.87-5.45-2.36-6.78-3.39-.83-1.24-2.18-3.69-2.03-6.78,.19-4.1,2.9-6.89,5.42-9.48,1.46-1.5,3.87-3.63,7.46-5.42,.22-3.62,.45-7.23,.68-10.85,.22-1.33,1.09-5.45,4.74-8.81,4.37-4.02,9.59-4.09,10.81-4.07Z"/>
          <path class="cls-24" d="M368.59,566.12c-.11,9.47-.23,18.95-.35,28.43,0,0-.02,0-.02,0-.1-9.47,.15-18.95,.37-28.43Z"/>
          <path class="cls-24" d="M368.23,457.77c.21,.13,.43,.23,.66,.3-.21,.08-.43,.14-.66,.17v-.47Z"/>
          <path class="cls-24" d="M368.24,594.55c0,.22,0,.45,0,.67,0-.22,0-.45,0-.67,0,0,0,0,.02,0Z"/>
          <path class="cls-24" d="M368.23,496.86v.08c-.08,0-.2-.02-.33-.04,.1,0,.2-.02,.33-.04Z"/>
          <path class="cls-24" d="M368.23,458.24v38.62c-.12,.02-.23,.03-.33,.04h-.02c-.1,0-.21-.02-.34-.04v-38.56c.23,0,.46-.02,.68-.07Z"/>
          <path class="cls-24" d="M368.23,457.77v.47c-.22,.04-.45,.07-.68,.07v-1.01c.2,.19,.43,.34,.68,.47Z"/>
          <path class="cls-24" d="M368.23,456.95v.82c-.25-.13-.47-.29-.68-.47v-.34c.07,0,.18-.03,.34-.07,.16,.03,.28,.06,.34,.07Z"/>
          <path class="cls-24" d="M368.22,594.55c0,.22,0,.45,0,.67-.63,.2-4.68,1.37-8.59-.44,2.81-.15,5.68-.23,8.58-.23Z"/>
          <path class="cls-14" d="M367.65,450.18c.43,0,.86,.09,1.24,.22-1.63,.56-2.78,2.13-2.73,3.94,.02,.93,.36,1.79,.92,2.46-1.22-.06-3.17,.12-4.94,1.51-.02,.02-.06,.04-.08,.07-7.12,.29-19.98,1.51-34.92,6.02-.74,.23-1.48,.46-2.22,.7-3.84,.06-7.37,1.43-10.16,3.69-17.38,7.12-32.04,17.45-43.77,30.87h-10.54c38.65-49.58,100.13-49.64,107.2-49.48Z"/>
          <path class="cls-24" d="M367.89,496.9c-.14,.02-.25,.03-.34,.04v-.08c.12,.02,.24,.03,.34,.04Z"/>
          <path class="cls-24" d="M367.89,456.88c-.16,.03-.28,.06-.34,.07v.34c-.17-.15-.34-.31-.47-.49,.34,.02,.61,.06,.82,.08Z"/>
          <path class="cls-14" d="M367.55,458.31v38.56c-2.52-.36-9.94-1.9-14.91-8.74-4.11-5.64-4.14-11.59-4.07-13.56v-8.13c1.1-3.41,3.95-5.58,6.77-5.42,2.13,.12,3.58,1.52,4.07,2.04,.07-.52,.47-2.93,2.63-4.67,2.68-.11,4.55-.1,5.41-.07h.09Z"/>
          <path class="cls-24" d="M367.55,457.29v1.01h-.09c-.86-.02-2.72-.04-5.41,.07,.02-.03,.06-.05,.08-.07,1.77-1.38,3.72-1.56,4.94-1.51,.14,.18,.3,.34,.47,.49Z"/>
          <path class="cls-14" d="M356.2,530.67c.78,.78,1.2,1.83,1.19,2.93-.02,1.1-.47,2.14-1.27,2.9-3.79,3.6-14.28,11.96-29.9,11.96h-.02c-16.18,0-26.83-8.89-30.66-12.71-.77-.77-1.2-1.82-1.19-2.92,0-1.1,.47-2.14,1.26-2.9,3.88-3.7,14.62-12.25,30.66-11.97,15.81,.28,26.19,8.98,29.92,12.71Zm-9.16,2.81c-3.11-2.36-7.94-5.24-14.17-6.59-1.5-1.34-3.47-2.15-5.64-2.15-1.78,0-3.44,.55-4.8,1.5-7.89,.72-13.98,4.04-17.7,6.72,3.67,2.77,9.69,6.25,17.57,7.15,1.39,1,3.09,1.59,4.93,1.59,2.06,0,3.94-.74,5.42-1.96,6.25-1.17,11.13-3.89,14.39-6.25Z"/>
          <path class="cls-14" d="M354.75,500.76c.8,.75,1.3,1.83,1.28,3.03-.02,1.04-.43,1.97-1.07,2.68,.25-.72,.39-1.62,.39-2.6,0-1.23-.23-2.34-.61-3.11Z"/>
          <path class="cls-14" d="M355.35,503.87c0,.98-.15,1.88-.39,2.6-.74,.81-1.81,1.32-2.99,1.32h-.07c-7.07-.11-14.28-.06-21.25,0-6.8,.06-13.82,.11-20.75,0-.28,.1-.55,.2-.82,.29h-15.22c3.96-3.66,8.77-6.51,14.18-8.24l.61-.2h.69c7.07,.11,14.28,.06,21.25,0h21.45c1.06,.02,2,.43,2.72,1.1,.38,.77,.61,1.88,.61,3.11Z"/>
          <path class="cls-14" d="M351.97,507.78c1.19,0,2.25-.51,2.99-1.32-.34,.99-.87,1.62-1.46,1.62h-44.43c.27-.1,.54-.2,.82-.29,6.94,.11,13.96,.05,20.75,0,6.98-.06,14.19-.11,21.25,0h.07Z"/>
          <path class="cls-14" d="M353.51,499.65c.47,0,.92,.42,1.24,1.1-.71-.67-1.66-1.09-2.72-1.1h1.47Z"/>
          <path class="cls-14" d="M352.03,499.65h-21.12c6.91-.06,14.07-.11,21.12,0Z"/>
          <path class="cls-23" d="M349.93,680.48c0,.59,.02,1.22,.08,1.87-1.63-.17-3.24-.37-4.83-.59v-6.36c1.56,.2,3.15,.39,4.74,.56v4.53Z"/>
          <path class="cls-23" d="M349.93,674.11v1.83c-1.6-.16-3.18-.35-4.74-.56v-1.9c1.56,.23,3.15,.44,4.74,.62Z"/>
          <path class="cls-23" d="M349.93,664.36v9.75c-1.6-.18-3.18-.39-4.74-.62v-9.73c1.56,.22,3.14,.42,4.74,.6Z"/>
          <path class="cls-23" d="M349.93,650.12v14.24c-1.6-.18-3.18-.38-4.74-.6v-13.65h4.74Z"/>
          <path class="cls-2" d="M345.19,650.12v13.65c-10.57-1.51-20.22-4.03-28.27-7.46-4.4-1.87-8.13-3.98-11.09-6.18h39.36Z"/>
          <path class="cls-14" d="M325.19,465.09c9.16,0,16.61,7.44,16.61,16.6s-7.44,16.61-16.61,16.61-16.61-7.44-16.61-16.61c0-5.2,2.41-9.86,6.17-12.9,3.29-1.35,6.68-2.58,10.16-3.69,.09,0,.19,0,.28,0Zm8.48,16.6c0-4.67-3.8-8.47-8.48-8.47s-8.47,3.8-8.47,8.47,3.8,8.48,8.47,8.48,8.48-3.8,8.48-8.48Z"/>
          <path class="cls-14" d="M332.87,526.88c1.73,1.55,2.83,3.81,2.83,6.32s-1.19,4.97-3.05,6.52c-2,.38-4.15,.6-6.42,.6h0c-1.35,0-2.66-.08-3.92-.23-2.14-1.54-3.54-4.05-3.54-6.89s1.46-5.46,3.67-6.98c1.19-.11,2.44-.16,3.71-.14,2.4,.04,4.64,.33,6.72,.79Z"/>
          <path class="cls-14" d="M325.19,499.65h5.39c-6.97,.06-14.19,.11-21.25,0h15.86Z"/>
          <path class="cls-14" d="M327.23,524.73c2.17,0,4.14,.81,5.64,2.15-2.09-.47-4.33-.75-6.72-.79-1.28-.02-2.52,.02-3.71,.14,1.37-.95,3.02-1.5,4.8-1.5Z"/>
          <path class="cls-14" d="M332.64,539.72c-1.47,1.22-3.35,1.96-5.42,1.96-1.84,0-3.54-.59-4.93-1.59,1.26,.15,2.57,.23,3.92,.23h0c2.27,0,4.42-.22,6.42-.6Z"/>
          <path class="cls-14" d="M313.49,562.1c2.2,.47,3.61,2.62,3.14,4.82-.41,1.91-2.09,3.22-3.98,3.22-.28,0-.56-.02-.84-.08-17.68-3.74-30.15-19.14-29.66-36.62,.27-9.78,4.64-18.84,11.7-25.34h15.22c-10.99,4.13-18.47,14.23-18.79,25.56-.37,13.34,9.6,25.57,23.21,28.44Z"/>
          <path class="cls-14" d="M314.75,468.79c2.79-2.26,6.32-3.63,10.16-3.69-3.48,1.11-6.87,2.34-10.16,3.69Z"/>
          <polygon class="cls-14" points="309.33 499.65 308.64 499.65 308.67 499.64 309.33 499.65"/>
          <path class="cls-14" d="M308.64,499.65l-.61,.2c-5.41,1.73-10.22,4.58-14.18,8.24h-1.92c2.45-2.29,4.81-4.25,6.94-5.89,.17-.13,.33-.28,.47-.43-3.78-.08-7.56-.44-11.25-1.17v-.94h20.55Z"/>
          <path class="cls-14" d="M298.43,625.72h9.34c-5.06,3.33-8.33,6.98-9.34,10.54v-10.54Z"/>
          <path class="cls-14" d="M305.82,650.12h-7.4v-9.19c.88,3.08,3.44,6.23,7.4,9.19Z"/>
          <path class="cls-14" d="M299.34,501.76c-.15,.16-.3,.3-.47,.43-2.13,1.64-4.48,3.6-6.94,5.89h-11.41c2.39-2.63,4.92-5.13,7.58-7.49,3.69,.73,7.47,1.09,11.25,1.17Z"/>
          <path class="cls-14" d="M280.52,508.09h11.41c-7.07,6.59-15,15.98-21.02,28.57-8.79,18.37-9.82,35.68-9.12,47.09-.55-.03-1.1-.05-1.66-.05-2.22,0-4.38,.28-6.44,.81-.8-12.37,.27-31.28,9.88-51.36,4.36-9.11,10.09-17.58,16.94-25.06Z"/>
          <path class="cls-14" d="M288.09,499.65v.94c-2.66,2.36-5.19,4.87-7.58,7.49h-16.23c2.11-2.94,4.34-5.75,6.7-8.43h17.11Z"/>
          <path class="cls-14" d="M283.35,633.86c1.24,2.23,.75,5.03-1.13,6.65-.39,.34-.83,.61-1.29,.81-.08-.79-.12-1.59-.12-2.39,0-1.58,.16-3.13,.47-4.67,.7-.13,1.38-.27,2.08-.4Z"/>
          <path class="cls-14" d="M283.35,633.86c-.7,.13-1.38,.27-2.08,.4,.28-1.44,.7-2.86,1.25-4.26,.29,1.26,.57,2.55,.83,3.86Z"/>
          <path class="cls-14" d="M282.52,630c-.55,1.4-.97,2.82-1.25,4.26-5.17,1-10.34,2-15.52,3l-.37-1.91c6.46-1.33,12.07-5.06,15.84-10.21,.47,1.58,.9,3.2,1.3,4.86Z"/>
          <path class="cls-14" d="M286.22,609.79c0,5.73-1.86,11.04-5,15.35-1.1-3.71-2.41-7.18-3.85-10.32,.47-1.6,.72-3.29,.72-5.03,0-9.91-8.06-17.96-17.96-17.96-6.5,0-12.21,3.47-15.36,8.65l-2-.2c.59-.83,.87-1.88,.7-2.97-.29-1.92-.59-4.24-.83-6.89,3.1-2.8,6.87-4.87,11.04-5.92,0,.05,0,.09,0,.14,.14,2.15,1.92,3.8,4.05,3.8,.09,0,.18,0,.27,0,2.24-.15,3.94-2.08,3.8-4.32l-.02-.37c13.61,.86,24.43,12.21,24.43,26.05Z"/>
          <path class="cls-14" d="M265.75,637.27c5.18-1,10.35-2,15.52-3-.31,1.54-.47,3.09-.47,4.67,0,.8,.04,1.6,.12,2.39-1.59,.7-3.49,.6-5.06-.38,0,.56-.15,4.61-3.45,7.09-1.75,1.33-3.59,1.6-4.5,1.68-.79-4.13-1.6-8.27-2.4-12.4,.07-.02,.16-.03,.23-.04Z"/>
          <path class="cls-14" d="M281.22,625.14c-3.77,5.15-9.37,8.88-15.84,10.21-1.7,.35-3.45,.53-5.25,.53-5.01,0-9.71-1.42-13.69-3.89-.37-3.84-.46-7.52-.3-10.95,3.3,4.09,8.34,6.71,13.99,6.71,8.16,0,15.06-5.46,17.24-12.93,1.45,3.14,2.75,6.61,3.85,10.32Z"/>
          <path class="cls-14" d="M277.37,614.82c-2.18,7.47-9.08,12.93-17.24,12.93-5.64,0-10.69-2.62-13.99-6.71,.61-13.1,4.84-22.73,11.59-24.03,6.72-1.29,14.19,5.98,19.63,17.81Z"/>
          <path class="cls-14" d="M260.45,499.65h10.54c-2.36,2.68-4.59,5.5-6.7,8.43h-9.86c.87-1.34,1.78-2.68,2.72-4.01,1.08-1.51,2.18-2.99,3.3-4.43Z"/>
          <path class="cls-14" d="M265.52,637.31c.8,4.13,1.6,8.27,2.4,12.4-.86,.27-2.68,.7-4.79,.12-3.99-1.08-5.63-4.78-5.85-5.3-1.39,1.93-3.87,2.72-6.05,1.97-2.34-.8-3.84-3.21-3.52-5.75,5.94-1.15,11.88-2.29,17.82-3.44Z"/>
          <path class="cls-14" d="M265.38,635.35l.37,1.91c-.07,0-.16,.02-.23,.04-5.94,1.15-11.88,2.3-17.82,3.44-.58-2.98-1-5.91-1.26-8.75,3.98,2.46,8.67,3.89,13.69,3.89,1.8,0,3.55-.18,5.25-.53Z"/>
          <path class="cls-14" d="M264.29,508.09c-.17,.23-.34,.46-.51,.7-21.86,30.78-22.76,63.82-21.13,81.64-2.9,2.63-5.21,5.88-6.7,9.56-.25-.43-.43-.92-.52-1.45-2.32-15.26-4.92-53.83,19-90.45h9.86Z"/>
          <path class="cls-14" d="M261.82,584.11c.15,2.24-1.55,4.17-3.8,4.32-.09,0-.18,0-.27,0-2.13,0-3.91-1.64-4.05-3.8,0-.05,0-.09,0-.14,2.06-.53,4.22-.81,6.44-.81,.56,0,1.11,.02,1.66,.05l.02,.37Z"/>
          <path class="cls-14" d="M235.94,499.65h24.51c-1.12,1.43-2.22,2.91-3.3,4.43-.95,1.33-1.86,2.67-2.72,4.01h-18.49c-1.02,0-1.86-1.89-1.86-4.22s.83-4.21,1.86-4.21Z"/>
          <path class="cls-14" d="M246.14,621.04c-.16,3.44-.07,7.12,.3,10.95-7.44-4.6-12.41-12.84-12.41-22.21,0-3.46,.68-6.77,1.91-9.8,.72,1.22,2.05,2,3.5,2,.2,0,.41,0,.61-.04,1.14-.17,2.09-.8,2.71-1.67l2,.2c-1.65,2.72-2.6,5.91-2.6,9.31,0,4.25,1.49,8.18,3.98,11.26Z"/>
          <path class="cls-14" d="M243.48,597.31c.16,1.09-.11,2.14-.7,2.97-.62,.87-1.57,1.5-2.71,1.67-.2,.03-.41,.04-.61,.04-1.46,0-2.78-.79-3.5-2,1.49-3.68,3.8-6.94,6.7-9.56,.24,2.65,.53,4.97,.83,6.89Z"/>
        </g>
        <path class="cls-2" d="M369.67,755.63c-97.27,0-176.4-79.13-176.4-176.4s79.13-176.4,176.4-176.4,176.4,79.13,176.4,176.4-79.13,176.4-176.4,176.4Zm0-328.55c-83.9,0-152.15,68.26-152.15,152.15s68.26,152.15,152.15,152.15,152.15-68.25,152.15-152.15-68.26-152.15-152.15-152.15Z"/>
        <path class="cls-14" d="M369.23,795.52c-58.15,0-112.82-22.64-153.94-63.76-41.12-41.12-63.76-95.79-63.76-153.94s22.64-112.82,63.76-153.94c41.12-41.12,95.79-63.76,153.94-63.76s112.82,22.64,153.94,63.76c41.12,41.12,63.76,95.79,63.76,153.94s-22.64,112.82-63.76,153.94c-41.12,41.12-95.79,63.76-153.94,63.76Zm0-392.69c-96.49,0-174.99,78.5-174.99,174.99s78.5,174.99,174.99,174.99,174.99-78.5,174.99-174.99-78.5-174.99-174.99-174.99Z"/>
        <g>
          <path class="cls-23" d="M338.22,406.09c-.23,0-.46,0-.69-.01-7.92-.29-15.11-5.57-17.89-13.12-2.48-6.76-1.97-15.71,4.79-20.49,6.22-4.39,14.81-3.69,20.44,1.67,.17,.16,.33,.32,.48,.49l11.06-38.34c1.26-4.36,5.81-6.87,10.16-5.61,4.36,1.26,6.87,5.81,5.61,10.17l-13.54,46.94c-1.76,10.44-10.55,18.3-20.42,18.3Zm-3.22-18.95s.03,.1,.05,.15c.46,1.25,1.87,2.34,3.09,2.38,.85,.02,2.03-.51,2.94-1.59-2.04,.48-4.23,.17-6.08-.94Z"/>
          <path class="cls-23" d="M391.78,406.09c-9.88,0-18.66-7.87-20.42-18.3l-13.54-46.94c-1.26-4.36,1.26-8.91,5.61-10.17,4.36-1.26,8.91,1.26,10.16,5.61l11.06,38.34c.15-.17,.31-.33,.48-.49,5.63-5.36,14.22-6.07,20.44-1.67,6.76,4.78,7.28,13.73,4.79,20.49-2.78,7.56-9.97,12.83-17.89,13.13-.23,0-.46,.01-.69,.01Zm-2.87-18.03c.92,1.09,2.07,1.63,2.95,1.6,1.22-.04,2.63-1.14,3.09-2.39,.02-.05,.03-.1,.05-.15-1.86,1.11-4.05,1.41-6.09,.93Z"/>
        </g>
        <g>
          <path class="cls-23" d="M609.96,590.13c-.75,0-1.52-.1-2.28-.32l-46.94-13.54c-10.68-1.8-18.66-10.95-18.29-21.11,.29-7.92,5.57-15.11,13.13-17.89,6.76-2.49,15.71-1.97,20.49,4.79,4.39,6.22,3.69,14.81-1.67,20.44-.16,.17-.32,.33-.49,.48l38.33,11.06c4.36,1.26,6.87,5.81,5.61,10.16-1.04,3.6-4.32,5.94-7.89,5.94Zm-48.57-37.51s-.1,.03-.15,.05c-1.25,.46-2.34,1.87-2.38,3.09-.03,.86,.51,2.03,1.59,2.94-.48-2.04-.17-4.23,.94-6.08Z"/>
          <path class="cls-23" d="M563.17,629.34c-2.62,0-5.24-.5-7.59-1.37-7.56-2.78-12.83-9.97-13.13-17.89-.37-10.15,7.61-19.31,18.29-21.11l46.94-13.54c4.36-1.26,8.91,1.26,10.16,5.61,1.26,4.36-1.26,8.91-5.61,10.16l-38.33,11.06c.17,.15,.33,.31,.49,.48,5.36,5.63,6.07,14.22,1.67,20.44-3.11,4.4-8,6.16-12.9,6.16Zm-.65-15.25h0Zm-2.05-7.57c-1.09,.92-1.63,2.09-1.6,2.95,.04,1.22,1.14,2.63,2.38,3.09,.05,.02,.1,.03,.15,.05-1.11-1.86-1.41-4.05-.93-6.09Z"/>
        </g>
        <path class="cls-23" d="M513.44,470.5c-1.54,0-3.1-.43-4.49-1.34-3.79-2.48-4.86-7.57-2.37-11.37l11.22-17.13-19.34,10.21c-4.01,2.12-8.98,.58-11.09-3.43-2.12-4.01-.58-8.98,3.43-11.09l47.46-25.06c3.31-1.75,7.39-1.03,9.91,1.73,2.52,2.77,2.85,6.89,.8,10.02l-28.64,43.74c-1.58,2.41-4.2,3.71-6.88,3.71Z"/>
        <g>
          <path class="cls-23" d="M127.34,586.48c-3.57,0-6.85-2.34-7.89-5.94-1.26-4.36,1.26-8.91,5.61-10.16l38.33-11.06c-.17-.15-.33-.31-.49-.48-5.36-5.63-6.07-14.22-1.67-20.44,4.78-6.76,13.73-7.28,20.49-4.79,7.56,2.78,12.83,9.97,13.13,17.89,.37,10.15-7.61,19.31-18.29,21.11l-46.94,13.54c-.76,.22-1.53,.32-2.28,.32Zm48.56-37.51c1.11,1.86,1.41,4.05,.93,6.09,1.09-.92,1.63-2.09,1.6-2.95-.04-1.22-1.14-2.63-2.38-3.09-.05-.02-.1-.03-.15-.05Z"/>
          <path class="cls-23" d="M174.14,625.69c-4.9,0-9.78-1.75-12.9-6.16-4.39-6.22-3.69-14.81,1.67-20.44,.16-.17,.32-.33,.49-.48l-38.33-11.06c-4.36-1.26-6.87-5.81-5.61-10.16,1.26-4.36,5.81-6.87,10.16-5.61l46.94,13.54c10.68,1.8,18.66,10.95,18.29,21.11-.29,7.92-5.57,15.11-13.13,17.89-2.35,.87-4.97,1.37-7.59,1.37Zm2.71-22.81c.48,2.04,.17,4.23-.94,6.08,.05-.02,.1-.03,.15-.05,1.25-.46,2.34-1.87,2.38-3.09,.03-.86-.51-2.03-1.59-2.94Z"/>
        </g>
        <path class="cls-23" d="M225.5,472.48c-2.6,0-5.15-1.23-6.75-3.52l-29.87-42.91c-2.14-3.07-1.93-7.2,.51-10.04,2.44-2.84,6.49-3.67,9.85-2.02l48.16,23.7c4.07,2,5.74,6.92,3.74,10.99-2,4.07-6.92,5.74-10.99,3.74l-19.62-9.65,11.7,16.81c2.59,3.72,1.67,8.84-2.05,11.43-1.43,1-3.06,1.47-4.68,1.47Z"/>
        <g>
          <path class="cls-23" d="M366.12,827.99c-3.57,0-6.85-2.34-7.89-5.94l-11.06-38.33c-.15,.17-.31,.33-.48,.49-5.63,5.36-14.22,6.07-20.44,1.67-6.76-4.78-7.28-13.73-4.79-20.49,2.78-7.56,9.97-12.83,17.89-13.13,10.2-.37,19.31,7.61,21.11,18.29l13.54,46.94c1.26,4.36-1.26,8.91-5.61,10.16-.76,.22-1.53,.32-2.28,.32Zm-26.08-59.31s-.05,0-.07,0c-1.22,.04-2.63,1.14-3.09,2.39-.02,.05-.03,.1-.05,.15,1.86-1.1,4.05-1.41,6.09-.93-.89-1.05-2.02-1.6-2.88-1.6Z"/>
          <path class="cls-23" d="M367.53,827.99c-.75,0-1.52-.1-2.28-.32-4.36-1.26-6.87-5.81-5.61-10.16l13.54-46.94c1.8-10.68,10.91-18.66,21.11-18.29,7.92,.29,15.11,5.57,17.89,13.12,2.48,6.76,1.97,15.71-4.79,20.49-6.21,4.39-14.81,3.69-20.44-1.67-.17-.16-.33-.32-.48-.49l-11.06,38.33c-1.04,3.6-4.32,5.94-7.89,5.94Zm25.09-57.93c1.45,0,2.91,.38,4.2,1.16-.02-.05-.03-.1-.05-.15-.46-1.25-1.87-2.34-3.09-2.38-.83-.04-2.03,.51-2.94,1.59,.62-.14,1.25-.22,1.88-.22Z"/>
        </g>
        <path class="cls-23" d="M538.28,746.6c-1.3,0-2.62-.31-3.83-.95l-47.46-25.06c-4.01-2.12-5.54-7.08-3.43-11.09,2.12-4.01,7.09-5.54,11.09-3.43l19.34,10.21-11.22-17.13c-2.48-3.79-1.42-8.88,2.37-11.37,3.8-2.49,8.88-1.42,11.37,2.37l28.64,43.74c2.05,3.13,1.72,7.26-.8,10.02-1.6,1.75-3.82,2.68-6.08,2.68Z"/>
        <path class="cls-23" d="M185.63,732.64c-2.33-.17-4.55-1.33-6-3.31-2.23-3.01-2.14-7.15,.22-10.05l32.93-40.61c2.86-3.52,8.03-4.06,11.55-1.21,3.52,2.86,4.06,8.03,1.21,11.55l-12.9,15.91,20.27-8.2c4.21-1.7,8.99,.33,10.69,4.53,1.7,4.2-.33,8.99-4.53,10.69l-49.76,20.12c-1.19,.48-2.45,.67-3.67,.58Z"/>
        <path class="cls-27" d="M365.48,337.22c4.5,16.4,9.01,32.81,13.51,49.21,.13,.46,.85,.27,.72-.2-4.5-16.4-9.01-32.81-13.51-49.21-.13-.46-.85-.27-.72,.2h0Z"/>
        <path class="cls-27" d="M389.64,380.55c2.04-2.43,5.09-4.26,8.36-4,2.92,.23,5.68,2.3,6.29,5.22,.1,.47,.82,.27,.72-.2-.66-3.13-3.55-5.36-6.65-5.74-3.57-.44-7.02,1.52-9.26,4.19-.31,.37,.22,.9,.53,.53h0Z"/>
        <path class="cls-27" d="M383.55,395.05c3.02,5.42,10.13,5.83,14.97,2.74,2.42-1.55,4.79-3.95,5.28-6.9s-.62-5.88-2.73-7.83-5.66-2.57-7.96-.38c-.35,.33,.18,.86,.53,.53,2.78-2.65,6.74-.59,8.4,2.24,1.88,3.21,1.26,6.82-1.23,9.47-2.24,2.39-5.39,4.09-8.71,4.13s-6.32-1.57-7.89-4.38c-.23-.42-.88-.04-.65,.38h0Z"/>
        <path class="cls-27" d="M361.64,340.76c-3.76,14.53-8.02,28.92-12.77,43.15-.15,.46,.57,.66,.72,.2,4.76-14.23,9.02-28.62,12.77-43.15,.12-.47-.6-.67-.72-.2h0Z"/>
        <path class="cls-27" d="M340.17,378.81c-4.44-3.88-11.18-2.03-13.81,3.01-2.83,5.41-.26,12.14,4.81,15.19,2.8,1.69,6.21,2.25,9.36,1.33,.46-.14,.27-.86-.2-.72-6.86,2.01-14.19-3.55-14.41-10.64-.1-3.32,1.57-6.68,4.45-8.4s6.73-1.44,9.27,.77c.36,.32,.89-.21,.53-.53h0Z"/>
        <path class="cls-27" d="M343.98,384.4c-2.45-2.44-6.45-3.76-9.69-2.1-2.78,1.42-4.39,4.94-3.12,7.88,.19,.44,.84,.06,.65-.38-1.12-2.62,.54-5.77,3-6.92,2.93-1.37,6.46-.11,8.63,2.05,.34,.34,.87-.19,.53-.53h0Z"/>
        <path class="cls-27" d="M493.68,444.8c14.2-7.94,28.4-15.89,42.61-23.83,.42-.24,.04-.88-.38-.65-14.2,7.94-28.4,15.89-42.61,23.83-.42,.24-.04,.88,.38,.65h0Z"/>
        <path class="cls-27" d="M523.29,431.62l11.21-6.17c.42-.23,.04-.88-.38-.65l-11.21,6.17c-.42,.23-.04,.88,.38,.65h0Z"/>
        <path class="cls-27" d="M528.36,434.21c-6.77,10.22-13.54,20.45-20.31,30.67-.27,.4,.38,.78,.65,.38,6.77-10.22,13.54-20.45,20.31-30.67,.27-.4-.38-.78-.65-.38h0Z"/>
        <path class="cls-27" d="M565.58,543c3.26,2.47,5.09,6.72,4.47,10.79-.6,3.91-3.34,7.33-6.98,8.83-.44,.18-.25,.91,.2,.72,3.98-1.65,6.97-5.35,7.54-9.65s-1.39-8.73-4.85-11.35c-.38-.29-.76,.36-.38,.65h0Z"/>
        <path class="cls-27" d="M554.61,545.31c-5.82,3.51-7.96,10.93-4.95,17.03,.21,.43,.86,.05,.65-.38-2.83-5.73-.78-12.71,4.68-16,.41-.25,.04-.9-.38-.65h0Z"/>
        <path class="cls-27" d="M552.39,558.75c1.19,6.95,8.44,9.65,14.34,11.51,7.85,2.48,15.75,4.82,23.69,7.02,4.56,1.26,9.13,2.48,13.71,3.65,.47,.12,.67-.6,.2-.72-9.64-2.46-19.22-5.13-28.75-8-4.52-1.36-9.18-2.57-13.54-4.37-4.12-1.7-8.12-4.62-8.92-9.29-.08-.47-.8-.27-.72,.2h0Z"/>
        <path class="cls-27" d="M561.32,598.23c13.81-5.54,27.97-10.19,42.37-13.92,.47-.12,.27-.84-.2-.72-14.41,3.73-28.56,8.38-42.37,13.92-.44,.18-.25,.9,.2,.72h0Z"/>
        <path class="cls-27" d="M589.64,591.54c6.33-2.34,12.76-4.42,19.26-6.23,.46-.13,.27-.85-.2-.72-6.5,1.81-12.93,3.89-19.26,6.23-.45,.17-.25,.89,.2,.72h0Z"/>
        <path class="cls-27" d="M553.15,602.58c-3.48,1.99-4.4,6.69-3.35,10.3,1.11,3.81,4.32,6.62,7.93,8.05,3.79,1.5,8.5,1.62,11.7-1.24,2.67-2.39,3.9-6.41,2.7-9.83-1.38-3.92-5.54-6.52-9.65-6.11-.48,.05-.48,.8,0,.75,3.33-.33,6.67,1.41,8.35,4.32s1.12,6.81-1.04,9.41c-4.96,5.99-15.33,2.32-18.54-3.74-1.88-3.55-1.54-9.08,2.27-11.26,.42-.24,.04-.89-.38-.65h0Z"/>
        <path class="cls-27" d="M569.36,613.02c.2,2.82-2.46,5.4-5.27,5.12-.48-.05-.48,.7,0,.75,3.2,.31,6.25-2.67,6.02-5.87-.03-.48-.78-.48-.75,0h0Z"/>
        <path class="cls-27" d="M494.15,714.03c14.18,6.52,27.7,14.41,40.37,23.53,.39,.28,.77-.37,.38-.65-12.67-9.12-26.19-17.01-40.37-23.53-.44-.2-.82,.45-.38,.65h0Z"/>
        <path class="cls-27" d="M530.09,731.65c2.4,1.63,4.79,3.27,7.19,4.9,.4,.27,.78-.38,.38-.65-2.4-1.63-4.79-3.27-7.19-4.9-.4-.27-.78,.38-.38,.65h0Z"/>
        <path class="cls-27" d="M507.86,691.49c7,11.88,14.48,23.48,22.42,34.76,.28,.39,.93,.02,.65-.38-7.94-11.28-15.42-22.87-22.42-34.76-.24-.42-.89-.04-.65,.38h0Z"/>
        <path class="cls-27" d="M383.32,765.15c-6.24,15.37-11.51,31.12-15.79,47.14-.12,.47,.6,.67,.72,.2,4.28-16.03,9.55-31.77,15.79-47.14,.18-.45-.54-.64-.72-.2h0Z"/>
        <path class="cls-27" d="M375.15,797.73c-1.71,6.43-3.41,12.87-5.12,19.3-.12,.47,.6,.67,.72,.2,1.71-6.43,3.41-12.87,5.12-19.3,.12-.47-.6-.67-.72-.2h0Z"/>
        <path class="cls-27" d="M390.54,761.09c7.17-1.05,13.66,4.43,14.18,11.58,.22,3.02-.73,6.16-2.9,8.32-2.59,2.58-6.24,2.59-9.26,.72-1.64-1.01-3.06-2.45-3.94-4.17-.45-.87-.77-1.83-.84-2.81-.06-.81,.06-3.35,1.41-3.04,.47,.11,.67-.62,.2-.72-1.59-.36-2.24,1.47-2.35,2.73-.18,1.94,.57,3.88,1.68,5.44,2.19,3.07,6.24,5.48,10.09,4.46,3.39-.9,5.69-4.19,6.41-7.48,.83-3.81-.27-7.99-2.68-11.02-2.9-3.66-7.63-5.42-12.22-4.75-.48,.07-.27,.79,.2,.72h0Z"/>
        <path class="cls-27" d="M394.54,778.44c.94,1.63,3.15,2.27,4.83,1.43,.43-.22,.05-.86-.38-.65-1.32,.66-3.07,.11-3.8-1.16-.24-.42-.89-.04-.65,.38h0Z"/>
        <path class="cls-27" d="M348.71,765.89c3.25,12.78,6.25,25.63,8.98,38.53,.1,.47,.82,.27,.72-.2-2.74-12.9-5.73-25.75-8.98-38.53-.12-.47-.84-.27-.72,.2h0Z"/>
        <path class="cls-27" d="M358.2,792.33c1.5,5.45,2.79,10.96,3.87,16.5,.09,.47,.82,.27,.72-.2-1.08-5.55-2.37-11.05-3.87-16.5-.13-.46-.85-.27-.72,.2h0Z"/>
        <path class="cls-27" d="M169.43,599.66c-4.18,2.52-5.33,7.74-3.97,12.2,1.2,3.92,4.64,8.23,9.22,7.39,.47-.09,.27-.81-.2-.72-4.27,.78-7.39-3.59-8.39-7.18-1.13-4.06-.07-8.75,3.72-11.03,.41-.25,.04-.9-.38-.65h0Z"/>
        <path class="cls-27" d="M172.44,615.05c1.31,1.73,3.63,2.07,5.67,1.75,2.25-.36,4.34-1.62,5.76-3.39,3.09-3.87,2.49-9.62-.72-13.22-1.81-2.02-4.29-3.34-6.93-3.86-.47-.09-.67,.63-.2,.72,5.43,1.07,9.8,5.82,9.06,11.56-.35,2.71-1.91,5.09-4.29,6.45-2.16,1.23-5.96,1.91-7.7-.39-.29-.38-.94,0-.65,.38h0Z"/>
        <path class="cls-27" d="M125.28,580.41c14.32,6.95,30.53,7.96,45.34,13.48,.45,.17,.65-.56,.2-.72-14.75-5.49-30.9-6.49-45.16-13.4-.43-.21-.81,.44-.38,.65h0Z"/>
        <path class="cls-27" d="M145.42,572.47c11.3-3.04,22.61-6.07,33.91-9.11,.47-.13,.27-.85-.2-.72-11.3,3.04-22.61,6.07-33.91,9.11-.47,.13-.27,.85,.2,.72h0Z"/>
        <path class="cls-27" d="M166.8,548.97c-.66-3.03,1.28-5.97,4.01-7.18,2.92-1.3,6.43-.9,9.28,.41,5.67,2.61,8.91,9.33,5.99,15.18-.22,.43,.43,.81,.65,.38,2.47-4.93,.91-10.9-3.29-14.34-3.89-3.19-10.34-4.61-14.6-1.31-2.14,1.65-3.33,4.4-2.75,7.07,.1,.47,.83,.27,.72-.2h0Z"/>
        <path class="cls-27" d="M201.76,433.73c3.33,5.04,6.66,10.08,9.99,15.12s6.74,9.71,9.39,14.95c.22,.43,.86,.05,.65-.38-2.65-5.24-6.16-10.06-9.39-14.95s-6.66-10.08-9.99-15.12c-.26-.4-.91-.03-.65,.38h0Z"/>
        <path class="cls-27" d="M200.92,428.06c3.26,4.23,6.53,8.46,9.78,12.7s6.15,8.15,8.68,12.59c.24,.42,.89,.04,.65-.38-2.53-4.44-5.57-8.54-8.68-12.59s-6.52-8.47-9.78-12.7c-.29-.38-.94,0-.65,.38h0Z"/>
        <path class="cls-27" d="M202.12,423.08c13.59,6.67,27.12,13.47,40.59,20.4,.43,.22,.81-.43,.38-.65-13.47-6.92-27-13.72-40.59-20.4-.43-.21-.81,.43-.38,.65h0Z"/>
        <path class="cls-27" d="M233.96,442.01c4.04,2.16,8.09,4.33,12.13,6.49,.43,.23,.8-.42,.38-.65-4.04-2.16-8.09-4.33-12.13-6.49-.43-.23-.8,.42-.38,.65h0Z"/>
        <path class="cls-14" d="M427.18,575.23c9.14-1.18,17.51-6.07,23.03-13.45,.29-.39-.36-.76-.65-.38-5.34,7.14-13.53,11.94-22.38,13.08-.47,.06-.48,.81,0,.75h0Z"/>
        <path class="cls-14" d="M430.03,579.66c4.19-.53,8.22-1.87,11.88-3.97,.42-.24,.04-.89-.38-.65-3.54,2.03-7.45,3.35-11.5,3.87-.47,.06-.48,.81,0,.75h0Z"/>
        <path class="cls-14" d="M286.65,560.38c6.08,7.75,14.52,14.41,24.82,14.43,.48,0,.48-.75,0-.75-10.1-.02-18.33-6.61-24.29-14.21-.3-.38-.83,.15-.53,.53h0Z"/>
        <path class="cls-14" d="M302.8,577.75c2.16,.84,4.4,1.46,6.69,1.86,.47,.08,.67-.64,.2-.72-2.29-.4-4.53-1.02-6.69-1.86-.45-.17-.65,.55-.2,.72h0Z"/>
        <path class="cls-14" d="M337.54,573.7c-2.98,4.06-3.23,9.78-.66,14.11,.25,.41,.89,.04,.65-.38-2.44-4.11-2.16-9.5,.66-13.35,.29-.39-.36-.76-.65-.38h0Z"/>
        <path class="cls-14" d="M399.58,574.15c3.08,4.01,2.47,10.17-1.35,13.48-.37,.32,.17,.85,.53,.53,4.05-3.51,4.73-10.14,1.47-14.39-.29-.38-.94,0-.65,.38h0Z"/>
        <path class="cls-14" d="M405.29,585.68c-.61,1.17-1.39,2.24-2.33,3.17-.34,.34,.19,.87,.53,.53,.98-.97,1.81-2.1,2.44-3.32,.22-.43-.43-.81-.65-.38h0Z"/>
        <path class="cls-14" d="M332.21,584.57c.33,1.63,1.11,3.15,2.22,4.38,.32,.36,.85-.17,.53-.53-1.03-1.15-1.72-2.55-2.03-4.05-.1-.47-.82-.27-.72,.2h0Z"/>
        <path class="cls-14" d="M385.89,522.68c5.13-5.46,11.42-9.75,18.39-12.5,.44-.18,.25-.9-.2-.72-7.09,2.81-13.5,7.14-18.72,12.7-.33,.35,.2,.88,.53,.53h0Z"/>
        <path class="cls-14" d="M329.68,510.12c7.64,2.06,14.57,6.26,19.94,12.08,.33,.36,.86-.18,.53-.53-5.45-5.91-12.51-10.18-20.27-12.28-.47-.13-.67,.6-.2,.72h0Z"/>
        <path class="cls-14" d="M259.39,494.42c10.07-12.28,22.52-22.53,36.51-30.05,4.03-2.17,8.19-4.1,12.44-5.8,.44-.18,.25-.9-.2-.72-14.84,5.93-28.46,14.74-39.93,25.87-3.31,3.21-6.43,6.61-9.35,10.18-.3,.37,.22,.9,.53,.53h0Z"/>
        <path class="cls-14" d="M323.83,453.85c8.05-2.93,16.43-4.86,24.96-5.71,.48-.05,.48-.8,0-.75-8.59,.87-17.04,2.79-25.16,5.74-.45,.16-.26,.89,.2,.72h0Z"/>
        <path class="cls-14" d="M361.87,446.83l3.52-.43c.2-.02,.38-.15,.38-.38,0-.18-.17-.4-.38-.38l-3.52,.43c-.2,.02-.38,.15-.38,.38,0,.18,.17,.4,.38,.38h0Z"/>
        <path class="cls-14" d="M428.53,457.61c2.46,.59,4.79,1.57,6.94,2.91,.41,.26,.79-.39,.38-.65-2.19-1.37-4.6-2.38-7.11-2.98-.47-.11-.67,.61-.2,.72h0Z"/>
        <path class="cls-14" d="M441.14,463.64c14.73,8.44,27.92,19.39,38.93,32.31,.31,.37,.84-.16,.53-.53-11.04-12.97-24.3-23.96-39.08-32.43-.42-.24-.8,.41-.38,.65h0Z"/>
        <path class="cls-14" d="M345.19,692.29c1.28,5.36,3.24,10.54,5.83,15.41,.23,.43,.87,.05,.65-.38-2.56-4.81-4.49-9.92-5.75-15.23-.11-.47-.84-.27-.72,.2h0Z"/>
        <path class="cls-14" d="M355.51,715.33c2.32,5.22,7.54,8.95,13.27,9.31s11.6-2.9,14.48-7.97c.24-.42-.41-.8-.65-.38-2.76,4.85-8.22,7.95-13.83,7.6s-10.42-3.96-12.62-8.94c-.2-.44-.84-.06-.65,.38h0Z"/>
        <path class="cls-14" d="M385.8,712.37c.65-1.59,1.5-3.09,2.52-4.47,.12-.16,.03-.42-.13-.51-.19-.11-.39-.03-.51,.13-1.06,1.44-1.92,3-2.59,4.65-.08,.19,.08,.41,.26,.46,.21,.06,.38-.07,.46-.26h0Z"/>
        <path class="cls-14" d="M390.72,702.12c1.87-4.64,3-9.54,3.39-14.53,.04-.48-.71-.48-.75,0-.38,4.92-1.52,9.75-3.36,14.33-.18,.45,.55,.64,.72,.2h0Z"/>
        <path class="cls-14" d="M261.36,654.04c2.57,1.95,6.11,2.55,9.16,1.41,2.81-1.05,4.99-3.41,5.88-6.26,.14-.46-.58-.66-.72-.2-.83,2.66-2.91,4.89-5.56,5.81-2.83,.98-6.01,.39-8.38-1.41-.38-.29-.76,.36-.38,.65h0Z"/>
        <path class="cls-14" d="M271.11,659.69c1.39-.12,2.69-.65,3.78-1.53,.16-.13,.13-.4,0-.53-.16-.16-.37-.13-.53,0-.92,.74-2.07,1.2-3.25,1.31-.2,.02-.38,.16-.38,.38,0,.19,.17,.39,.38,.38h0Z"/>
        <path class="cls-14" d="M461.94,650.64c1.39,2.74,4.14,4.7,7.21,5.06s6.43-1.05,8.38-3.57c.29-.38-.24-.91-.53-.53-1.79,2.32-4.69,3.66-7.63,3.38s-5.48-2.15-6.78-4.72c-.22-.43-.87-.05-.65,.38h0Z"/>
        <path class="cls-14" d="M465.09,657.97c1.99,1.34,4.68,1.42,6.76,.23,.42-.24,.04-.89-.38-.65-1.86,1.06-4.23,.96-6-.23-.4-.27-.78,.38-.38,.65h0Z"/>
        <circle class="cls-11" cx="370.45" cy="578.45" r="174.57"/>
      </g>
      <path class="cls-15" d="M523.26,132.9c-2.01-.06-4.45-.29-7.17-.9-2.34-.52-4.38-1.2-6.08-1.88-2.6-6.57-3.38-18.11-3.25-21.12-.09,3.06-.45,6.79-1.37,10.93-.88,3.96-2.05,7.34-3.21,10.1-1.57,.6-3.39,1.18-5.44,1.63-2.72,.6-5.16,.83-7.17,.9,1.8-.08,8.3,.35,12.69,1.73,1.13,2.72,2.28,6.04,3.13,9.91,.92,4.15,1.27,7.87,1.37,10.93-.12-2.87,.58-13.51,2.91-20.19,4.34-1.63,11.66-2.12,13.6-2.04Z"/>
      <path class="cls-15" d="M665.23,715.07c-3.33-.1-7.38-.49-11.9-1.49-3.89-.86-7.27-1.99-10.1-3.13-4.32-10.91-5.61-30.07-5.4-35.06-.16,5.09-.75,11.26-2.27,18.15-1.45,6.57-3.41,12.19-5.33,16.76-2.6,.99-5.62,1.95-9.04,2.71-4.51,1-8.56,1.38-11.9,1.49,3-.13,13.77,.57,21.06,2.86,1.88,4.52,3.78,10.03,5.2,16.45,1.52,6.89,2.11,13.06,2.27,18.15-.2-4.76,.97-22.43,4.83-33.52,7.21-2.7,19.36-3.52,22.57-3.38Z"/>
      <path class="cls-5" d="M640.9,466.88c-1.82-.06-4.03-.27-6.49-.81-2.12-.47-3.96-1.08-5.5-1.7-2.35-5.95-3.06-16.39-2.94-19.11-.09,2.77-.41,6.14-1.24,9.89-.79,3.58-1.86,6.64-2.9,9.14-1.42,.54-3.07,1.06-4.93,1.48-2.46,.54-4.67,.75-6.49,.81,1.63-.07,7.51,.31,11.48,1.56,1.02,2.46,2.06,5.47,2.83,8.97,.83,3.75,1.15,7.12,1.24,9.89-.11-2.6,.53-12.23,2.63-18.27,3.93-1.47,10.55-1.92,12.3-1.84Z"/>
      <path class="cls-4" d="M324.79,258.18c-1.32-.04-2.91-.19-4.69-.59-1.53-.34-2.87-.78-3.98-1.23-1.7-4.3-2.21-11.86-2.13-13.83-.06,2.01-.29,4.44-.89,7.16-.57,2.59-1.34,4.81-2.1,6.61-1.03,.39-2.22,.77-3.56,1.07-1.78,.39-3.38,.55-4.69,.59,1.18-.05,5.43,.23,8.31,1.13,.74,1.78,1.49,3.96,2.05,6.49,.6,2.72,.83,5.15,.89,7.16-.08-1.88,.38-8.85,1.9-13.22,2.84-1.07,7.64-1.39,8.9-1.33Z"/>
      <path class="cls-15" d="M88.13,474.09c-1.86-.06-4.13-.27-6.65-.83-2.17-.48-4.06-1.11-5.65-1.75-2.42-6.1-3.14-16.81-3.02-19.6-.09,2.84-.42,6.3-1.27,10.15-.81,3.67-1.91,6.81-2.98,9.37-1.45,.55-3.14,1.09-5.05,1.51-2.52,.56-4.79,.77-6.65,.83,1.68-.07,7.7,.32,11.78,1.6,1.05,2.53,2.11,5.61,2.91,9.2,.85,3.85,1.18,7.3,1.27,10.15-.11-2.66,.54-12.54,2.7-18.74,4.03-1.51,10.82-1.97,12.62-1.89Z"/>
      <path class="cls-7" d="M628.26,375.72c-1.23-.04-2.73-.18-4.39-.55-1.44-.32-2.68-.73-3.73-1.15-1.6-4.03-2.07-11.1-1.99-12.95-.06,1.88-.28,4.16-.84,6.7-.54,2.43-1.26,4.5-1.97,6.19-.96,.37-2.08,.72-3.34,1-1.67,.37-3.16,.51-4.39,.55,1.11-.05,5.09,.21,7.78,1.06,.69,1.67,1.39,3.7,1.92,6.08,.56,2.54,.78,4.82,.84,6.7-.07-1.76,.36-8.28,1.78-12.38,2.66-1,7.15-1.3,8.33-1.25Z"/>
      <path class="cls-7" d="M574.87,189.57c-1.23-.04-2.73-.18-4.39-.55-1.44-.32-2.68-.73-3.73-1.15-1.6-4.03-2.07-11.1-1.99-12.95-.06,1.88-.28,4.16-.84,6.7-.54,2.43-1.26,4.5-1.97,6.19-.96,.37-2.08,.72-3.34,1-1.67,.37-3.16,.51-4.39,.55,1.11-.05,5.09,.21,7.78,1.06,.69,1.67,1.39,3.7,1.92,6.08,.56,2.54,.78,4.82,.84,6.7-.07-1.76,.36-8.28,1.78-12.38,2.66-1,7.15-1.3,8.33-1.25Z"/>
      <path class="cls-6" d="M-528.73,849.61c-4.48-3.89-8.5-7.38-7.73-11.24,.69-3.44,5-6.11,10.54-7.02-2.5-4.05-2.35-7-2.11-8.43,1.24-7.32,11.65-13.57,25.99-13.35-.32-.59-1.77-3.38-.7-6.32,1.23-3.39,5.31-5.62,9.83-4.92,.18-1,1.62-8.17,8.43-11.94,5.41-3,12.16-2.71,17.56,.7,1.37-5.24,3.82-12.52,8.43-20.37,2.66-4.53,11.43-19.08,28.8-28.8,24.06-13.46,48.36-8.54,54.79-7.02,4.06-3.25,10.81-7.38,18.97-7.02,14.8,.65,29.19,15.86,32.31,37.93,2.54-.52,14.76-2.71,26.69,4.92,13.21,8.45,15.78,22.36,16.16,24.59,2.46-1.06,13.28-5.39,25.29-.7,6.99,2.73,11.29,7.3,13.35,9.83,3.26-.9,16.56-4.18,30.91,2.81,15.14,7.37,20.64,20.9,21.78,23.88,3.36-1.34,7.37-2.46,11.94-2.81,19.47-1.49,33.83,12.07,37.23,15.45,7.95,2.37,17.38,4.5,28.1,5.62,21.55,2.26,39.81-.43,52.69-3.51,.55-1.16,7.31-14.99,21.78-16.86,7.13-.92,12.83,1.48,15.45,2.81,.54-1.68,4.37-13.1,14.05-16.16,11.1-3.5,26.7,5.01,32.31,22.48,11.14-.86,18.99,6.3,18.97,12.64-.02,6.09-7.26,10.28-7.73,10.54-5.76,2.35-17.39,6.19-32.31,4.92-14.4-1.23-24.92-6.64-30.21-9.83-2.76,1.75-11.12,6.56-22.48,5.62-8.62-.71-14.75-4.38-17.56-6.32h-70.25c-7.1,3.71-19.21,8.93-35.12,10.54-16.3,1.65-29.49-1.21-37.23-3.51-10.66,6.44-37.84,20.87-74.46,18.97-25.12-1.3-44.2-9.74-54.79-15.45-1.65,1.34-17.43,13.79-37.23,8.43-13.83-3.74-21.18-13.89-23.18-16.86-1.44,1.47-26.38,26.09-57.6,18.26-15.2-3.81-24.74-13.52-28.8-18.26-2.28,1.46-13.26,8.12-26.69,4.92-7.77-1.85-12.7-6.13-16.16-9.13Z"/>
      <path class="cls-29" d="M9.2,789.08c7.68-9.14,17.96-15.89,29.41-19.28,.46-.14,.27-.86-.2-.72-11.57,3.42-21.98,10.23-29.74,19.47-.31,.37,.22,.9,.53,.53h0Z"/>
      <path class="cls-29" d="M27.11,781.15c13.01-8.65,28.99-12.49,44.52-10.83,14.64,1.56,28.43,8.25,38.99,18.47,5.76,5.58,10.51,12.14,13.95,19.39,.21,.44,.85,.06,.65-.38-6.21-13.07-16.71-23.96-29.46-30.79-13.52-7.24-29.26-9.45-44.31-6.57-8.8,1.69-17.25,5.1-24.71,10.06-.4,.27-.03,.92,.38,.65h0Z"/>
      <path class="cls-29" d="M116.49,802.57c2.87,3.19,4.93,7.04,6,11.2,.12,.47,.84,.27,.72-.2-1.1-4.28-3.23-8.25-6.19-11.53-.32-.36-.85,.17-.53,.53h0Z"/>
      <path class="cls-29" d="M7,826.98c.39-9.01,6.44-16.69,13.05-22.31s13.82-9.16,21.72-11.56c7.91-2.41,16.2-3.46,24.45-3.41,7.95,.05,15.97,1.06,23.54,3.57s14.28,6.35,19.11,12.42c2.71,3.4,4.98,7.62,5.18,12.03s-2.28,8.17-6.21,10.25c-3.44,1.83-7.36,2.53-11.18,3.1-4.52,.68-9.07,1.15-13.64,1.26-8.92,.23-18.1-.95-26.09-5.16-1.89-1-3.9-2.11-5.28-3.77-1.73-2.08-1.43-4.5,.53-6.3,1.55-1.43,3.6-2.4,5.5-3.28,2.04-.95,4.15-1.72,6.31-2.32,8.45-2.37,17.63-2.15,25.94,.69,2.13,.73,4.18,1.63,6.17,2.69,.43,.23,.8-.42,.38-.65-8.15-4.35-17.59-5.93-26.74-4.69-4.56,.62-9.03,1.95-13.17,3.97-3.01,1.47-7.82,3.93-6.73,8.08,.48,1.82,1.97,3.21,3.46,4.27,1.91,1.36,4.06,2.43,6.2,3.35,4.19,1.79,8.65,2.86,13.16,3.41,9.31,1.14,19.19,.39,28.35-1.56,3.75-.8,7.71-2.08,10.52-4.82,3.07-2.99,3.8-7.25,2.87-11.32-1.83-8.02-8.41-14.45-15.33-18.38s-15.54-6.21-23.78-7.09c-8.82-.94-17.82-.62-26.53,1.12-8.53,1.7-16.85,4.83-24.1,9.67s-14.19,11.67-17.14,20.07c-.75,2.15-1.18,4.38-1.28,6.65-.02,.48,.73,.48,.75,0h0Z"/>
      <path class="cls-29" d="M130.41,826.58c.95,1.55,1.89,3.09,2.84,4.64,.25,.41,.9,.03,.65-.38-.95-1.55-1.89-3.09-2.84-4.64-.25-.41-.9-.03-.65,.38h0Z"/>
      <path class="cls-29" d="M1.71,759.07c8.83-7.93,22.82-8.89,32.67-2.3,.4,.27,.78-.38,.38-.65-10.14-6.78-24.51-5.73-33.58,2.41-.36,.32,.17,.85,.53,.53h0Z"/>
      <path class="cls-29" d="M14.26,761.04c7.31,.16,14.43,2.34,20.58,6.28,.41,.26,.78-.39,.38-.65-6.26-4.01-13.53-6.22-20.96-6.38-.48-.01-.48,.74,0,.75h0Z"/>
      <path class="cls-10" d="M172.44,758.31c-.47-6.75-.89-12.71,1.91-19.14,4.68-10.73,14.91-14.94,18.16-16.12,16.25-3.44,29.54-2.97,38.23-2.01,14.73,1.61,24.3,2.81,31.54,11.08,7.99,9.12,8.49,21.53,8.6,24.17,.15,3.59,.35,10.19-2.87,17.12-6.49,13.99-21.45,17.59-23.89,18.13-7.38,1.18-16.07,2.04-25.8,2.01-9.34-.03-17.7-.87-24.85-2.01-3.79-1.48-10.46-4.82-15.29-12.09-4.75-7.15-5.26-14.39-5.73-21.15Z"/>
      <path class="cls-10" d="M180.97,760.19c-.38-5.11-.71-9.62,1.53-14.49,3.73-8.12,11.9-11.31,14.49-12.2,12.97-2.6,23.57-2.25,30.5-1.53,11.75,1.22,19.39,2.13,25.17,8.39,6.37,6.9,6.78,16.3,6.86,18.3,.12,2.72,.28,7.72-2.29,12.96-5.18,10.59-17.12,13.31-19.06,13.73-5.89,.89-12.82,1.55-20.59,1.53-7.45-.02-14.12-.66-19.83-1.53-3.03-1.12-8.35-3.65-12.2-9.15-3.79-5.41-4.2-10.9-4.58-16.01Z"/>
      <path class="cls-21" d="M182.09,756.31c3.52,.19,7.04,.37,10.56,.56,1.33,.07,2.87-.1,3.51,1.29,.57,1.23,.85,2.56,1.48,3.77,2.45,4.7,7.24,7.9,12.21,9.42,6.39,1.95,13.24,1.28,19.75,.42,5.42-.72,11.67-2.27,13.76-8.01,.52-1.42,.47-2.91,.56-4.39,.1-1.74,.71-2.51,2.39-3.02,3.76-1.16,7.68-1.68,11.6-1.72,1.93-.02,1.93-3.02,0-3-3.49,.03-6.98,.44-10.36,1.27-2.7,.66-5.53,1.46-6.35,4.46-.34,1.26-.26,2.6-.35,3.88s-.59,2.49-1.44,3.5c-1.9,2.26-4.79,3.17-7.6,3.69-6.44,1.19-13.67,1.97-20.09,.33-4.92-1.25-9.8-4.33-11.86-9.14-.58-1.37-.8-2.89-1.8-4.05-1.09-1.26-2.65-1.53-4.23-1.64-3.9-.25-7.81-.41-11.72-.62-1.93-.1-1.92,2.9,0,3h0Z"/>
      <path class="cls-21" d="M192.03,766.93c2.69,4.24,6.54,7.74,11.1,9.86,5.31,2.47,11.19,2.95,16.98,2.89,6.25-.07,12.5-.69,18.64-1.82,4.18-.77,8.94-2.02,11.78-5.44,.75-.91,1.34-1.94,1.67-3.08,.41-1.38,.12-2.88,.55-4.23,.71-2.21,3.87-2.33,5.78-2.4s1.93-3.07,0-3c-2.06,.08-4.26,.29-6.08,1.35-2.08,1.21-2.76,3.2-2.88,5.49-.11,2.11-.8,3.73-2.49,5.06-1.59,1.25-3.56,2.01-5.48,2.55-5.49,1.55-11.42,2.08-17.09,2.38s-11.64,.4-17.15-1.31-9.8-5.18-12.75-9.82c-1.03-1.63-3.63-.12-2.59,1.51h0Z"/>
      <path class="cls-21" d="M210.15,732.75c-.77,3.99-1.14,8.13,.68,11.89,1.46,3.03,4.26,5.39,7.63,5.89,3.6,.53,7.57-.83,10.46-2.98s4.7-5.39,4.99-9.06c.16-2.01-.14-4.12-.92-5.97-.4-.95-1.14-1.84-2.3-1.59-1.09,.24-1.58,1.38-1.32,2.38,.48,1.87,3.37,1.08,2.89-.8l-.05-.18v.8l-.73,.69-1.16-.15c-.23-.3-.27-.32-.11-.06,.08,.2,.15,.4,.22,.61,.14,.42,.25,.85,.33,1.28,.17,.87,.21,1.76,.16,2.65-.08,1.62-.57,3.19-1.44,4.55-1.65,2.57-4.7,4.12-7.61,4.75-3.17,.68-6.14-.51-7.87-3.25-2.03-3.22-1.66-7.09-.97-10.66,.36-1.89-2.53-2.69-2.89-.8h0Z"/>
      <path class="cls-21" d="M214.83,732.33c-.83,1.85-.87,3.85-.04,5.71,.75,1.67,2.29,2.91,4.02,3.45,2,.63,3.94,.09,5.77-.78,1.65-.78,3.37-1.81,4.28-3.46,.98-1.77,.93-4.27-.68-5.67-.61-.53-1.52-.6-2.12,0-.54,.54-.61,1.59,0,2.12,.08,.06,.15,.13,.22,.2-.07-.12-.06-.1,.03,.04,.05,.08,.1,.17,.14,.25-.05-.11-.05-.12-.02-.02,.02,.06,.1,.53,.08,.26,.02,.18,.01,.35,0,.53,0,.11,0,.1,0-.02-.02,.1-.04,.2-.07,.3-.03,.1-.06,.2-.09,.29,.06-.12,.05-.1-.03,.06-.18,.34-.34,.56-.58,.81-.55,.56-1.21,.95-1.93,1.33s-1.53,.76-2.36,.95c-1.26,.29-2.58-.17-3.49-1.19-.83-.93-1.05-2.56-.55-3.67,.33-.74,.21-1.61-.54-2.05-.64-.37-1.72-.21-2.05,.54h0Z"/>
      <g class="cls-3">
        <g>
          <path class="cls-16" d="M101.87,441.98c-.11,0-.21,0-.32,0-5.68-.02-11.4-.51-17.01-1.47l-.23-.07c-3.17-1.32-7.63-3.98-10.85-9.17-3.36-5.4-3.72-10.93-4.04-15.8h0s1.05-.07,1.05-.07l-1.05,.07c-.32-4.85-.62-9.44,1.37-14.32,3.06-7.49,9.39-10.89,12.9-12.25l.15-.05c8.81-1.99,17.64-2.49,26.26-1.48,9.75,1.14,16.79,1.96,22.07,8.4,3.63,4.43,5.79,10.87,6.07,18.13,.09,2.44,.29,7.52-2.03,12.86-4.36,10.04-14.05,13.05-16.91,13.73-5.79,.99-11.62,1.49-17.41,1.49Zm-16.86-3.53c5.46,.93,11.03,1.41,16.55,1.42,5.77,.01,11.6-.47,17.31-1.44,2.56-.61,11.43-3.36,15.4-12.51,2.13-4.9,1.94-9.65,1.86-11.94-.26-6.8-2.25-12.79-5.59-16.87-4.53-5.52-10.2-6.42-20.68-7.64-8.36-.98-16.93-.5-25.48,1.42-3.2,1.25-8.9,4.34-11.64,11.05-1.81,4.43-1.54,8.58-1.22,13.38l-1.05,.07,1.05-.07c.32,4.85,.65,9.87,3.73,14.83,2.9,4.66,6.89,7.07,9.76,8.29Z"/>
          <path class="cls-16" d="M101.31,436.87c-.08,0-.17,0-.25,0-4.54-.01-9.12-.41-13.61-1.18l-.23-.07c-2.56-1.06-6.15-3.21-8.76-7.4-2.71-4.35-3-8.79-3.26-12.71-.26-3.9-.5-7.58,1.11-11.52,2.47-6.05,7.59-8.8,10.41-9.89l.15-.05c7.05-1.59,14.13-1.99,21.03-1.18,7.83,.92,13.48,1.58,17.75,6.78,2.93,3.57,4.67,8.76,4.89,14.59,.08,1.96,.23,6.05-1.64,10.35-3.52,8.1-11.33,10.53-13.64,11.08-4.64,.8-9.31,1.19-13.95,1.19Zm-13.39-3.24c4.34,.73,8.76,1.11,13.14,1.13,4.62,.02,9.23-.37,13.77-1.15,2-.48,9-2.65,12.13-9.85,1.68-3.87,1.53-7.62,1.46-9.43-.21-5.38-1.77-10.12-4.41-13.34-3.56-4.34-8.06-5.05-16.36-6.02-6.64-.78-13.45-.4-20.24,1.13-2.53,.99-7,3.42-9.15,8.7-1.42,3.49-1.21,6.78-.96,10.59h0c.25,3.85,.51,7.83,2.94,11.73,2.27,3.66,5.4,5.56,7.67,6.52Z"/>
          <path class="cls-16" d="M78.48,423.13c-.3-2.42,.25-4.93,1.71-6.91,.72-.98,1.71-1.84,2.85-2.28,1.32-.52,2.62-.32,3.84,.36,2.07,1.15,3.57,3.2,4.04,5.51,.44,2.14-.2,4.75-1.93,6.18-.46,.38-1.1,.78-1.72,.71s-1.3-.56-1.81-.91c-1.2-.82-2.18-1.92-2.94-3.15-.72-1.15-2.54-.09-1.82,1.06,.9,1.45,2.03,2.7,3.41,3.7s2.87,1.77,4.52,1.18c2.96-1.04,4.5-4.42,4.53-7.37,.03-3.11-1.6-6.08-4.03-7.95-1.33-1.02-2.98-1.82-4.7-1.75s-3.29,.85-4.56,1.96c-2.68,2.33-3.93,6.18-3.5,9.65,.07,.57,.43,1.05,1.05,1.05,.52,0,1.12-.49,1.05-1.05h0Z"/>
          <path class="cls-16" d="M88.49,428.65c6.59,2.41,13.68,3.11,20.62,2.09,3.03-.45,6.33-1.1,8.99-2.7,2.84-1.71,4.03-4.47,4.28-7.69,.32-4.09,0-8.25-.66-12.29-.22-1.34-2.25-.77-2.03,.56,.54,3.35,.76,6.75,.66,10.14-.09,2.93-.54,5.73-3.21,7.39-2.38,1.48-5.39,2.05-8.12,2.48-3.09,.5-6.26,.59-9.38,.35-3.62-.29-7.18-1.11-10.59-2.36-1.28-.47-1.83,1.57-.56,2.03h0Z"/>
          <path class="cls-16" d="M104.03,424.15c.17-4.91,.34-9.82,.51-14.73,.05-1.36-2.06-1.35-2.11,0l-.51,14.73c-.05,1.36,2.06,1.35,2.11,0h0Z"/>
          <path class="cls-16" d="M103.23,410.15l4.92,5.99c.52,.63,1.56,.24,1.76-.46,1.22-4.41,2.45-8.82,3.67-13.22l-1.55,.63c2.87,1.41,5.51,3.21,7.87,5.37,1,.91,2.5-.57,1.49-1.49-2.49-2.27-5.27-4.21-8.3-5.7-.6-.3-1.36-.06-1.55,.63-1.22,4.41-2.45,8.82-3.67,13.22l1.76-.46c-1.64-2-3.28-3.99-4.92-5.99-.86-1.05-2.34,.45-1.49,1.49h0Z"/>
        </g>
      </g>
      <g>
        <path class="cls-14" d="M104.32,751.07h-.21c-3.61-.01-7.26-.33-10.83-.94l-.23-.07c-2.06-.86-4.95-2.58-7.05-5.96-2.18-3.5-2.41-7.05-2.62-10.18l1.05-.07-1.05,.07c-.21-3.12-.4-6.06,.9-9.24,1.99-4.88,6.11-7.09,8.38-7.97l.15-.05c5.62-1.27,11.25-1.59,16.75-.94,6.26,.73,10.78,1.26,14.22,5.46,2.35,2.87,3.75,7.03,3.93,11.7,.06,1.57,.19,4.85-1.32,8.31-2.83,6.52-9.11,8.47-10.97,8.91-3.71,.64-7.42,.95-11.1,.95Zm-10.57-3c3.42,.58,6.91,.88,10.37,.89,.07,0,.14,0,.21,0,3.56,0,7.16-.31,10.68-.91,1.55-.37,7.02-2.07,9.46-7.69,1.31-3.02,1.2-5.97,1.14-7.39-.16-4.22-1.39-7.93-3.45-10.45-2.77-3.38-6.31-3.93-12.84-4.7-5.24-.61-10.61-.31-15.97,.89-1.97,.78-5.45,2.67-7.12,6.77-1.11,2.72-.94,5.31-.74,8.3h0c.2,3.03,.4,6.15,2.3,9.2,1.77,2.84,4.2,4.32,5.96,5.08Z"/>
        <path class="cls-14" d="M103.95,747.84h-.16c-2.89,0-5.81-.26-8.68-.75l-.23-.07c-1.67-.69-4.02-2.1-5.72-4.84-1.77-2.84-1.95-5.7-2.12-8.22h0c-.17-2.51-.32-4.89,.73-7.47,1.62-3.97,4.96-5.76,6.81-6.48l.15-.05c4.51-1.02,9.03-1.27,13.44-.76,4.85,.57,8.69,1.02,11.49,4.43,1.91,2.33,3.04,5.69,3.18,9.47,.05,1.27,.15,3.91-1.07,6.72-2.3,5.29-7.39,6.87-8.9,7.23-2.98,.51-5.96,.77-8.92,.77Zm-8.37-2.81c2.71,.46,5.47,.69,8.21,.7,2.86,0,5.8-.23,8.65-.72,1.2-.29,5.48-1.62,7.39-6.01,1.03-2.37,.94-4.69,.89-5.8-.13-3.32-1.09-6.24-2.71-8.21-2.16-2.63-4.95-3.07-10.1-3.67-4.15-.49-8.41-.25-12.65,.7-1.54,.61-4.25,2.09-5.55,5.28-.87,2.13-.73,4.17-.58,6.53h0c.16,2.39,.32,4.86,1.81,7.25,1.37,2.21,3.26,3.37,4.64,3.96Z"/>
        <path class="cls-14" d="M89.89,738.75c-.18-1.47,.13-2.98,1.03-4.18,.4-.53,.95-1.01,1.58-1.27,.74-.3,1.45-.19,2.13,.19,1.23,.68,2.1,1.88,2.38,3.26,.25,1.22-.13,2.74-1.12,3.53-.17,.14-.49,.35-.76,.34-.33-.02-.74-.35-1-.53-.7-.48-1.28-1.14-1.72-1.85-.72-1.15-2.54-.09-1.82,1.06,.61,.97,1.37,1.81,2.3,2.48s2.01,1.18,3.16,.79c2.04-.7,3.13-2.99,3.15-5.04s-1.09-4.11-2.74-5.37c-.9-.69-2.02-1.2-3.17-1.16s-2.27,.58-3.16,1.35c-1.76,1.53-2.61,4.09-2.33,6.38,.07,.56,.43,1.05,1.05,1.05,.52,0,1.12-.49,1.05-1.05h0Z"/>
        <path class="cls-14" d="M95.74,742.62c5.37,1.95,11.53,2.26,16.99,.47,2.35-.77,4.29-2.25,4.78-4.79,.58-2.97,.21-6.24-.26-9.19-.21-1.34-2.24-.77-2.03,.56,.41,2.57,.74,5.5,.26,8.07-.42,2.27-2.32,3.08-4.34,3.61-4.91,1.28-10.07,.96-14.83-.77-1.28-.46-1.83,1.57-.56,2.03h0Z"/>
        <path class="cls-14" d="M106.06,739.4c.11-3.11,.22-6.22,.32-9.32,.05-1.36-2.06-1.35-2.11,0-.11,3.11-.22,6.22-.32,9.32-.05,1.36,2.06,1.35,2.11,0h0Z"/>
        <path class="cls-14" d="M104.9,730.81c1.04,1.26,2.08,2.53,3.12,3.79,.52,.63,1.56,.24,1.76-.46,.77-2.79,1.55-5.58,2.32-8.37l-1.55,.63c1.79,.88,3.43,1.99,4.9,3.34,1,.91,2.5-.57,1.49-1.49-1.6-1.46-3.38-2.71-5.33-3.67-.6-.3-1.36-.06-1.55,.63-.77,2.79-1.55,5.58-2.32,8.37l1.76-.46c-1.04-1.26-2.08-2.53-3.12-3.79-.36-.44-1.12-.37-1.49,0-.44,.44-.36,1.05,0,1.49h0Z"/>
      </g>
      <path class="cls-29" d="M650.03,823.32c-.26-5.65-9.45-9.41-14.44-10.59-14.75-3.49-27.88,7.14-30.81,9.63-2.86,1.55-7.54,3.59-13.48,3.85-4.81,.21-9.23-.79-16.37-3.85-15.93-6.84-17.83-12.12-27.93-15.41-4.72-1.54-12.01-2.9-22.15-.96-.63-1.92-4.39-12.83-14.44-16.37-10.93-3.85-22.45,3.42-23.11,3.85-4.27,2.78-5.78,5.53-10.59,6.74-4.53,1.14-8.72,.09-11.56-.96,.22-3.37,.35-12.04-4.81-21.19-5.4-9.56-13.37-13.94-16.37-15.41-2.06-3.17-6.94-9.58-15.41-12.52-12.39-4.3-27.34,.63-37.56,12.52-1.65-3.17-6.42-11.3-16.37-16.37-13.88-7.08-27.27-2.81-29.85-1.93-3.78-2.26-15.76-8.73-27.93-4.81-16.62,5.35-28.28,28.41-22.15,54.89-1.52-.7-13.23-5.84-23.11,0-10.38,6.14-11.24,19.96-11.56,25.04-.3,4.78,.33,8.78,.96,11.56-3.02,2.52-6.84,5-11.56,6.74-19.88,7.33-39.12-4.65-42.37-6.74,.35-15.22-8.87-26.28-18.3-26.96-7.22-.53-12.95,5.16-14.44,6.74-.04-1.06-.84-17.46-10.59-22.15-10-4.81-28.42,3.17-36.59,24.07-3.29-2.66-8.96-6.29-16.37-6.74-13.41-.82-27.04,9.11-33.7,25.04-1.78,2.14-4.89,5.31-9.63,7.7-7.88,3.98-15.33,3.32-18.3,2.89-3.79,1.38-6.53,4.45-6.74,7.7-.31,4.69,4.61,9.91,11.56,9.63,4.49,1.11,12.03,2.36,21.19,.96,10.54-1.61,18.14-5.97,22.15-8.67,.66,.83,6.58,7.97,16.37,7.7,8.41-.23,13.55-5.75,14.44-6.74,3.09,3.56,8.78,8.95,17.33,11.56,14.49,4.42,31.13-.98,43.33-13.48,5.3-1.87,13.45-3.95,23.11-2.89,7.7,.84,10.17,3,18.3,4.81,13.45,3,24.7,1.09,30.81,0,14.31-2.56,25.11-8.24,31.78-12.52,1.7,1.63,4.89,4.25,9.63,5.78,7.06,2.28,13.12,.72,15.41,0,2.98,4.03,7.9,9.45,15.41,13.48,19.92,10.7,40.85,2.4,44.3,.96,6.67,6.6,16.49,14.31,29.85,19.26,42.64,15.8,83.07-10.7,88.59-14.44,3.25,2.88,15.33,12.85,32.74,12.52,17.99-.35,34.66-11.58,43.33-28.89,5.61-.1,13.4-.89,22.15-3.85,12.49-4.23,21.13-10.95,26-15.41,1.36,1.33,6.34,5.86,13.48,5.78,7.99-.09,16.63-5.93,16.37-11.56Z"/>
      <path class="cls-18" d="M-10.23,821.6c3.81-2.41,8.62-1.48,12.49,.31,3.48,1.6,6.57,4.04,8.97,7.02,5.62,6.98,6.83,16.72,3.35,24.94-.19,.44,.46,.82,.65,.38,2.86-6.77,2.77-14.61-.5-21.22-2.88-5.84-8.13-10.53-14.3-12.66-3.59-1.24-7.73-1.52-11.05,.58-.41,.26-.03,.91,.38,.65h0Z"/>
      <path class="cls-18" d="M4.4,830.83c4.34,2.82,6.64,8.31,5.58,13.38-.1,.47,.62,.67,.72,.2,1.12-5.41-1.29-11.22-5.93-14.23-.41-.26-.78,.39-.38,.65h0Z"/>
      <path class="cls-18" d="M118.63,815.85c-6.2-2.25-13.16-1.95-19.17,.75s-10.37,7.55-12.76,13.47c-1.38,3.42-1.99,7.1-1.8,10.77,.03,.48,.78,.48,.75,0-.42-7.95,3.15-15.95,9.49-20.81s15.56-6.27,23.28-3.47c.45,.16,.65-.56,.2-.72h0Z"/>
      <path class="cls-18" d="M103.74,822.7c-6.24,2.99-11.67,8.49-13.84,15.15-1.03,3.16-1.2,6.75,.43,9.75,1.35,2.48,3.85,4.46,6.74,4.63,3.34,.19,6.78-2.02,9.67-3.47s5.93-3.19,8.54-5.31,4.75-4.62,6.09-7.63c1.16-2.62,1.52-6.13-1.03-8.09-1.53-1.18-3.45-.86-5.18-.37s-3.54,1.25-5.16,2.19c-3.26,1.89-6,4.55-8.02,7.73-.26,.41,.39,.79,.65,.38,1.67-2.64,3.86-4.91,6.45-6.65,2.39-1.6,5.56-3.26,8.5-3.35,1.99-.07,3.45,1.33,3.86,3.23,.38,1.8-.25,3.68-1.05,5.28-1.28,2.55-3.17,4.71-5.34,6.53s-4.75,3.38-7.32,4.73-5.33,2.94-8.15,3.75c-3.15,.9-6.17-.4-8.03-3.04-1.99-2.83-2.01-6.43-1.05-9.65,2-6.67,7.44-12.16,13.62-15.12,.44-.21,.06-.86-.38-.65h0Z"/>
      <path class="cls-18" d="M113.59,850.51c2.83-2.33,5.46-4.9,7.86-7.68,.31-.36-.21-.9-.53-.53-2.4,2.78-5.03,5.35-7.86,7.68-.37,.31,.16,.84,.53,.53h0Z"/>
      <path class="cls-18" d="M152.09,796.07c-6.74,2.31-10.99,8.52-13.58,14.86-3.28,8.02-4.59,16.88-4.01,25.51,.33,4.87,1.27,9.69,2.79,14.33,.15,.46,.87,.26,.72-.2-2.58-7.85-3.45-16.19-2.55-24.4,.83-7.59,3.03-15.59,7.46-21.91,2.34-3.34,5.46-6.12,9.36-7.46,.45-.16,.26-.88-.2-.72h0Z"/>
      <path class="cls-18" d="M140.78,820.45c-4.7,9.17-4.21,20.54,1.32,29.25,.26,.41,.91,.03,.65-.38-5.37-8.48-5.9-19.56-1.32-28.5,.22-.43-.43-.81-.65-.38h0Z"/>
      <path class="cls-18" d="M146.76,847.94c2.43,3.55,6.34,5.92,10.64,6.3,4.47,.4,8.97-1.5,11.94-4.84,.32-.36-.21-.89-.53-.53-2.77,3.12-6.88,4.91-11.07,4.65s-8-2.55-10.33-5.96c-.27-.4-.92-.02-.65,.38h0Z"/>
      <path class="cls-18" d="M151.7,814.76c-3.17,6.87-3.58,14.9-.98,22.03,1.96,5.36,6.94,12.12,13.5,9.47,3.32-1.34,5.52-4.54,7.41-7.42,.27-.4-.38-.78-.65-.38-1.99,3.04-4.49,6.72-8.32,7.49-4.12,.84-7.55-2.38-9.5-5.65-4.45-7.47-4.41-17.38-.82-25.16,.2-.44-.45-.82-.65-.38h0Z"/>
      <path class="cls-18" d="M158.43,803.16c7.71,4.27,12.59,12.81,12.36,21.62-.01,.48,.74,.48,.75,0,.24-9.06-4.8-17.87-12.73-22.27-.42-.23-.8,.41-.38,.65h0Z"/>
      <path class="cls-18" d="M164.72,820.28c1.92,3.62,2.43,7.87,1.43,11.84-.12,.47,.61,.67,.72,.2,1.05-4.17,.51-8.62-1.5-12.42-.23-.43-.87-.05-.65,.38h0Z"/>
      <path class="cls-18" d="M191.81,817.44c5.54,3.53,8.43,10.54,6.99,16.95-.11,.47,.62,.67,.72,.2,1.52-6.75-1.51-14.08-7.34-17.8-.41-.26-.78,.39-.38,.65h0Z"/>
      <path class="cls-18" d="M288.47,801.82c-6.16-.75-11.52,3.83-13.92,9.18-3.17,7.09-1.34,15.3,.26,22.54,.1,.47,.83,.27,.72-.2-1.52-6.87-3.27-14.57-.58-21.38,2.14-5.41,7.4-10.14,13.51-9.39,.48,.06,.47-.69,0-.75h0Z"/>
      <path class="cls-18" d="M278.88,821.91c-.34,3.76,.18,7.55,1.51,11.08,.17,.45,.89,.25,.72-.2-1.31-3.47-1.82-7.18-1.49-10.88,.04-.48-.71-.48-.75,0h0Z"/>
      <path class="cls-18" d="M303.8,810.41c-1.76-14.83-2.06-31.29,6.97-44,3.77-5.31,9.02-9.78,15.25-11.89,7.31-2.48,15.16-1.14,21.97,2.19,8.02,3.91,14.44,10.28,20.7,16.49,.34,.34,.87-.19,.53-.53-10.69-10.6-24.36-23.3-40.82-19.6-13.66,3.07-22.43,16.17-25.09,29.18-1.9,9.27-1.37,18.83-.27,28.17,.06,.47,.81,.48,.75,0h0Z"/>
      <path class="cls-18" d="M379.93,789.54c-9.89-12.56-27.63-20.64-43.38-15.01-7.06,2.53-13.21,7.63-17.02,14.09-4.13,7.01-4.93,15.03-2.37,22.75,1.43,4.31,3.55,8.5,6.05,12.29,2.34,3.56,5.3,6.76,9.14,8.71,7.41,3.76,16.39,2.61,23.82-.47,3.83-1.59,7.74-3.69,10.51-6.85s3.87-6.98,3.87-11-1.13-8.18-2.78-11.92-4.1-7.31-7.84-9.44c-3.38-1.93-7.28-2.71-11.12-3.05-2.1-.19-4.2-.24-6.31-.23-1.9,0-3.9,.07-5.45,1.3-2.63,2.08-2.66,6.06-2.13,9.07,.77,4.37,2.53,8.66,4.79,12.46,1.1,1.84,2.36,3.58,3.73,5.22,.31,.37,.84-.16,.53-.53-2.81-3.35-5.06-7.15-6.6-11.25-1.3-3.44-2.59-7.53-1.71-11.23,.46-1.9,1.6-3.45,3.54-4s4.17-.32,6.15-.26c3.81,.11,7.69,.5,11.29,1.81,3.86,1.41,6.92,3.96,8.98,7.52s3.51,7.68,4.01,11.78-.01,8.12-2.21,11.53-5.92,5.75-9.57,7.5c-6.97,3.34-15.48,5.03-22.95,2.33-8.18-2.95-12.98-11.35-16.1-18.99-1.55-3.79-2.58-7.83-2.45-11.95,.11-3.6,1.03-7.15,2.58-10.39,3.06-6.41,8.41-11.69,14.79-14.8,14.18-6.92,31.29-1.24,41.98,9.37,1.32,1.31,2.55,2.71,3.7,4.17,.3,.38,.83-.15,.53-.53h0Z"/>
      <path class="cls-18" d="M315.76,821.41c7.6,11.68,17.45,25.7,33.07,25.43,.48,0,.48-.76,0-.75-15.34,.27-24.98-13.61-32.43-25.06-.26-.4-.91-.03-.65,.38h0Z"/>
      <path class="cls-18" d="M341.62,852.73c2.8,1.26,5.77,2.02,8.83,2.27,.48,.04,.48-.71,0-.75-2.92-.23-5.79-.96-8.46-2.16-.44-.2-.82,.45-.38,.65h0Z"/>
      <path class="cls-18" d="M383.92,814.85c-5.17,16.31,1.65,33.61,13.72,44.96,3.3,3.11,6.96,5.81,10.85,8.13,.42,.25,.79-.4,.38-.65-13.72-8.2-24.68-21.78-25.85-38.18-.34-4.75,.18-9.52,1.62-14.06,.15-.46-.58-.66-.72-.2h0Z"/>
      <path class="cls-18" d="M393.49,839.87c3.06,12.81,12.15,23.85,23.92,29.67,3.31,1.64,6.82,2.84,10.44,3.58,.47,.1,.67-.63,.2-.72-12.67-2.59-23.76-11.1-29.9-22.44-1.76-3.25-3.07-6.7-3.93-10.29-.11-.47-.84-.27-.72,.2h0Z"/>
      <path class="cls-18" d="M428.14,770.91c-8.25-3.05-17.66-.76-24.88,3.85s-10.98,12.53-11.92,20.8c-.64,5.59-.04,11.22,1,16.72,.09,.47,.81,.27,.72-.2-1.64-8.71-2.1-18.06,1.7-26.3,3.6-7.82,10.86-12.75,19.11-14.74,4.67-1.12,9.55-1.09,14.08,.59,.45,.17,.65-.56,.2-.72h0Z"/>
      <path class="cls-18" d="M397.4,803.53c1.29,14.38,8.03,28.12,18.65,37.92,5.5,5.07,12.19,9.33,19.63,10.74,6.72,1.28,13.49-.2,18.86-4.47,5.08-4.04,8.56-10.05,9.82-16.4,1.43-7.23-.01-14.77-3.04-21.4-5.27-11.52-18.32-26.25-32.56-21.17-5.78,2.06-10.24,7.12-9.83,13.48,.26,4.07,1.62,8.19,2.94,12.03s2.91,7.57,4.77,11.17c.96,1.85,1.99,3.67,3.08,5.44,.25,.41,.9,.03,.65-.38-4.03-6.58-7.16-13.69-9.22-21.13-1.02-3.67-2.17-7.7-.99-11.47,.91-2.89,3.04-5.26,5.57-6.85,12.95-8.16,26.73,4.65,32.93,15.33,3.65,6.3,5.88,13.56,5.48,20.89-.36,6.42-2.98,12.7-7.38,17.4s-10.81,7.58-17.51,7.21c-7.38-.41-14.31-4.06-19.96-8.64-10.57-8.57-17.88-20.99-20.38-34.35-.33-1.77-.57-3.56-.73-5.36-.04-.48-.79-.48-.75,0h0Z"/>
      <path class="cls-18" d="M478.44,811.74c2.91-4.42,6.61-9.79,12.33-10.47,6.95-.83,11.9,5.2,14.93,10.61,.24,.42,.88,.04,.65-.38-3.14-5.62-8.28-11.72-15.45-11-6.09,.61-10.01,6.17-13.11,10.86-.27,.4,.38,.78,.65,.38h0Z"/>
      <path class="cls-18" d="M503.69,814.71c4.04,2.87,6.77,7.43,7.38,12.35,.06,.47,.81,.48,.75,0-.64-5.21-3.47-9.96-7.75-13-.39-.28-.77,.37-.38,.65h0Z"/>
      <path class="cls-18" d="M567.28,832.7c-1.13-1.54-2.27-3.09-3.4-4.63-.12-.16-.33-.24-.51-.13-.16,.09-.26,.35-.13,.51,1.13,1.54,2.27,3.09,3.4,4.63,.12,.16,.33,.24,.51,.13,.16-.09,.26-.35,.13-.51h0Z"/>
      <path class="cls-18" d="M545.38,817.7c-6.6-4.6-15.93-2.63-21.46,2.75-6.55,6.37-8.32,16.01-7.97,24.79,.25,6.13,1.39,12.18,2.25,18.24,.07,.48,.79,.27,.72-.2-1.35-9.51-3.49-19.31-1.43-28.88,1.73-8.04,6.59-15.67,14.91-17.93,4.28-1.16,8.91-.7,12.6,1.87,.4,.28,.77-.37,.38-.65h0Z"/>
      <path class="cls-18" d="M529.35,829.58c-4.95,4.67-6.11,11.75-5.4,18.27,.55,5.08,2.23,13.69,8.62,14.24,.48,.04,.48-.71,0-.75-3.17-.27-5.07-3.17-6.14-5.88s-1.61-5.78-1.84-8.72c-.45-5.99,.76-12.35,5.28-16.62,.35-.33-.18-.86-.53-.53h0Z"/>
      <path class="cls-18" d="M532.91,849.59c2.11,4.14,5.49,8.27,10.55,8.26s10.2-3.42,13.35-7.13c2.93-3.45,4.42-7.95,3.18-12.4s-4.85-7.48-9.47-7.43c-5.89,.06-10.28,4.44-13.22,9.11-.26,.41,.39,.79,.65,.38,2.45-3.88,5.81-7.55,10.49-8.51,4.65-.96,8.97,1.38,10.58,5.85,3.14,8.7-5.25,17.35-13.32,19.13-5.78,1.27-9.72-2.9-12.13-7.63-.22-.43-.87-.05-.65,.38h0Z"/>
      <path class="cls-18" d="M485.71,823.68c-11.57,9.76-10.13,26.29-8.31,39.74,.06,.48,.79,.27,.72-.2-1.79-13.19-3.24-29.42,8.11-39.01,.37-.31-.16-.84-.53-.53h0Z"/>
      <path class="cls-18" d="M483.91,840.06c-3.46,7.31-2.82,16.18,1.71,22.88,.27,.4,.92,.02,.65-.38-4.38-6.48-5.06-15.05-1.71-22.13,.21-.43-.44-.81-.65-.38h0Z"/>
      <g>
        <path class="cls-8" d="M72.05,666.66h27.92"/>
        <path class="cls-8" d="M-16.05,666.66H56.7"/>
        <path class="cls-8" d="M35.28,602.03c-11.53,4.33-23.11,8.54-34.85,12.3"/>
        <path class="cls-8" d="M27.33,637.38c-27.22,6.06-55.49,11.11-82.24,17.67"/>
        <path class="cls-8" d="M67.23,628.81c-8.58,.5-16.66,4.54-24.86,5.34"/>
        <path class="cls-8" d="M37.3,740.38c-11.53-4.33-23.11-8.54-34.85-12.3"/>
        <path class="cls-8" d="M29.35,705.02c-27.22-6.06-55.49-11.11-82.24-17.67"/>
        <path class="cls-8" d="M69.25,713.6c-8.58-.5-16.66-4.54-24.86-5.34"/>
      </g>
    </g>
  </g>
</svg>