<svg width="48" height="48" viewBox="0 0 48 48" fill="none" xmlns="http://www.w3.org/2000/svg">
<mask id="path-1-outside-1_784_3323" maskUnits="userSpaceOnUse" x="1.38428" y="10.8438" width="44" height="26" fill="black">
<rect fill="white" x="1.38428" y="10.8438" width="44" height="26"/>
<path d="M36.2476 27.8496C37.7694 28.2439 38.8693 29.1427 39.4331 30.5975C39.918 31.8473 40.0797 33.1641 39.851 34.5006C39.5672 36.1407 40.0087 36.0895 37.9704 36.0776C37.111 36.0737 36.2476 36.0697 35.3881 36.0619C35.2935 36.0619 35.2028 36.0027 35.0806 35.9594C34.9544 35.506 34.8282 35.0447 34.6587 34.4297C34.3118 34.8555 34.0397 35.1709 33.7953 35.506C33.4996 35.9081 33.1448 36.0973 32.6204 36.0816C31.3036 36.0461 29.9868 36.0697 28.5123 36.0697C28.7252 35.2812 28.9342 34.6071 29.084 33.925C29.2299 33.2509 29.36 32.5688 29.1195 31.7921C26.1232 32.5412 23.1071 32.6989 20.0241 32.2297C19.4603 33.4598 19.5628 34.6544 19.8703 35.9751C19.5786 36.0224 19.3105 36.0973 19.0385 36.1013C17.9779 36.1289 16.9174 36.188 15.8647 36.1289C15.4035 36.1052 14.887 35.9239 14.5125 35.6518C13.6451 35.0171 13.1799 34.1103 13.1326 33.0182C13.1168 32.6871 13.1286 32.3598 13.1286 32.005C11.9065 32.8329 11.4452 33.9605 11.8946 36.0027C11.6029 36.0343 11.323 36.0855 11.0391 36.0973C10.3768 36.1249 9.71441 36.1249 9.05601 36.1525C7.64459 36.2117 6.68262 35.5296 6.23317 34.1773C5.89806 33.1799 6.05576 32.2218 6.35539 31.2599C6.45001 30.9524 6.56434 30.6527 6.69839 30.2664C6.28048 30.1875 5.9296 30.1244 5.58266 30.0535C3.95834 29.7223 2.60212 28.3148 2.40499 26.7615C2.31825 26.0912 2.49173 25.9059 3.15801 26.0045C4.07267 26.1425 4.9834 26.2095 5.95325 25.9454C5.67334 25.1529 4.78233 24.7587 4.84146 23.8006C5.20812 23.7454 5.55506 23.6666 5.90594 23.6429C6.61165 23.5956 7.14784 23.2802 7.59334 22.7322C8.59474 21.4982 9.6198 20.2839 10.6291 19.0617C12.4821 16.8184 14.7608 15.1705 17.5088 14.1967C21.333 12.8404 25.0626 13.2505 28.6897 14.9181C29.5532 15.3163 30.3495 15.8683 31.1735 16.3532C31.3943 16.4833 31.6033 16.6213 31.828 16.7632C32.376 15.4464 32.376 15.4504 33.5036 16.3532C33.6494 16.4715 33.819 16.5661 34.0437 16.7199C34.2329 16.3848 34.3749 16.097 34.5523 15.8289C35.0569 15.0561 35.5024 14.2243 36.1056 13.5422C37.6274 11.8233 40.127 11.3738 42.1929 12.3555C43.5688 13.01 44.2627 14.1533 44.4914 15.616C44.5465 15.9747 44.5032 16.3493 44.5623 16.7041C44.8856 18.7384 43.691 19.4639 42.2441 20.1026C41.5542 20.4061 41.1442 20.7412 40.8406 21.4351C39.922 23.5523 38.55 25.3737 36.9217 27.0059C36.6891 27.2385 36.4013 27.408 36.1372 27.6091C36.1687 27.684 36.2081 27.7668 36.2476 27.8496ZM5.84286 24.3802C6.63531 25.6339 7.62882 26.4027 8.65388 27.1242C11.6462 29.2334 14.9895 30.5305 18.5575 31.248C22.5828 32.0602 26.5766 32.0326 30.4757 30.5423C32.2498 29.8642 33.8978 28.9693 35.2816 27.6367C35.9716 26.9744 36.4407 26.1937 36.563 25.2318C37.0282 21.6953 35.5458 19.0065 32.8885 16.8342C32.8452 16.7987 32.7624 16.8145 32.7032 16.8027C32.5574 17.1811 32.4075 17.5596 32.2341 18.0091C31.9502 17.8396 31.7846 17.7489 31.6309 17.6424C30.7556 17.051 29.9316 16.369 29.0051 15.8801C25.6895 14.1257 22.2004 13.5737 18.5457 14.6106C14.7727 15.683 12.0405 18.1392 9.78538 21.309C10.0416 21.6007 10.294 21.9043 10.566 22.1881C13.1365 24.8691 16.3221 26.4934 19.8506 27.4632C22.3423 28.1453 24.8655 28.2951 27.3966 27.55C30.1564 26.7378 32.5298 24.7942 32.5731 21.443C32.5771 21.2695 32.6835 21.1 32.7505 20.9029C33.3735 21.0488 33.271 21.4982 33.2512 21.8609C33.1014 24.5773 31.6427 26.4145 29.289 27.6012C26.9511 28.78 24.4161 28.922 21.9126 28.5711C17.2249 27.9166 13.1444 25.9335 9.82875 22.4838C9.65528 22.3025 9.46998 22.1369 9.27285 21.9516C8.2478 22.953 7.5894 24.325 5.84286 24.3802ZM43.7778 18.0958C44.0143 16.917 43.8211 15.9866 43.5925 15.064C43.3283 13.9838 42.6502 13.2623 41.6133 12.8956C39.8865 12.2845 38.2858 12.5014 36.9099 13.7551C35.8139 14.7486 35.1831 16.0536 34.568 17.3586C36.6103 19.6058 37.6905 22.1369 37.4579 25.1923C38.7589 23.7849 39.7485 22.2473 40.4227 20.5323C40.0836 20.2918 39.8313 20.1104 39.4962 19.8739C40.1743 19.2746 40.8564 19.8423 41.4596 19.6255C42.0706 19.4047 42.6896 19.251 43.0681 18.6517C42.1653 17.9342 42.1653 17.9342 42.4886 17.3665C42.867 17.5833 43.2495 17.8001 43.7778 18.0958ZM9.10332 28.3937C7.8496 29.5488 7.02562 30.9287 6.79301 32.6319C6.69051 33.381 6.89946 34.0906 7.32919 34.6978C7.54603 35.0013 7.89691 35.3798 8.21626 35.4114C9.11515 35.502 10.0338 35.4271 11.0076 35.4192C10.7395 33.2154 11.8355 31.7842 13.3691 30.5463C11.9104 29.809 10.5384 29.1191 9.10332 28.3937ZM38.9206 35.364C39.3148 33.9447 39.2951 32.5648 38.889 31.2126C38.5421 30.0574 37.8403 29.1427 36.6339 28.7524C36.1845 28.6066 35.7035 28.4055 35.1988 28.7603C35.5773 29.9431 35.7981 31.1455 35.4157 32.2968C35.049 33.4085 35.4433 34.3469 35.6759 35.3601C36.7995 35.364 37.8482 35.364 38.9206 35.364ZM29.6478 35.3995C30.2825 35.3995 30.9133 35.3246 31.5244 35.4153C32.786 35.5966 33.5154 34.9698 34.0358 33.9447C34.1265 33.7673 34.2448 33.6057 34.3197 33.4204C34.8558 32.1075 35.0293 30.771 34.5602 29.3951C32.995 30.152 31.4889 30.8814 30.0736 31.5674C29.9316 32.8527 29.7937 34.0827 29.6478 35.3995ZM19.0897 32.1469C17.5167 31.729 15.9042 31.3032 14.3074 30.8814C13.5741 32.2376 13.6609 33.6766 14.5755 34.7135C14.8436 35.021 15.2458 35.368 15.6124 35.3995C16.6848 35.4902 17.7729 35.4311 18.8059 35.4311C18.9084 34.2483 18.999 33.2075 19.0897 32.1469ZM8.4331 27.9127C7.91268 27.479 7.46718 27.0887 7.00196 26.7339C6.86003 26.6274 6.6432 26.5525 6.46972 26.5683C5.40524 26.6708 4.34471 26.8048 3.28417 26.9271C3.51678 28.2557 4.37625 29.0521 6.00451 29.4266C6.70233 29.5883 7.29371 29.5725 7.68796 28.8392C7.85749 28.5238 8.13741 28.2715 8.4331 27.9127Z"/>
</mask>
<path d="M36.2476 27.8496C37.7694 28.2439 38.8693 29.1427 39.4331 30.5975C39.918 31.8473 40.0797 33.1641 39.851 34.5006C39.5672 36.1407 40.0087 36.0895 37.9704 36.0776C37.111 36.0737 36.2476 36.0697 35.3881 36.0619C35.2935 36.0619 35.2028 36.0027 35.0806 35.9594C34.9544 35.506 34.8282 35.0447 34.6587 34.4297C34.3118 34.8555 34.0397 35.1709 33.7953 35.506C33.4996 35.9081 33.1448 36.0973 32.6204 36.0816C31.3036 36.0461 29.9868 36.0697 28.5123 36.0697C28.7252 35.2812 28.9342 34.6071 29.084 33.925C29.2299 33.2509 29.36 32.5688 29.1195 31.7921C26.1232 32.5412 23.1071 32.6989 20.0241 32.2297C19.4603 33.4598 19.5628 34.6544 19.8703 35.9751C19.5786 36.0224 19.3105 36.0973 19.0385 36.1013C17.9779 36.1289 16.9174 36.188 15.8647 36.1289C15.4035 36.1052 14.887 35.9239 14.5125 35.6518C13.6451 35.0171 13.1799 34.1103 13.1326 33.0182C13.1168 32.6871 13.1286 32.3598 13.1286 32.005C11.9065 32.8329 11.4452 33.9605 11.8946 36.0027C11.6029 36.0343 11.323 36.0855 11.0391 36.0973C10.3768 36.1249 9.71441 36.1249 9.05601 36.1525C7.64459 36.2117 6.68262 35.5296 6.23317 34.1773C5.89806 33.1799 6.05576 32.2218 6.35539 31.2599C6.45001 30.9524 6.56434 30.6527 6.69839 30.2664C6.28048 30.1875 5.9296 30.1244 5.58266 30.0535C3.95834 29.7223 2.60212 28.3148 2.40499 26.7615C2.31825 26.0912 2.49173 25.9059 3.15801 26.0045C4.07267 26.1425 4.9834 26.2095 5.95325 25.9454C5.67334 25.1529 4.78233 24.7587 4.84146 23.8006C5.20812 23.7454 5.55506 23.6666 5.90594 23.6429C6.61165 23.5956 7.14784 23.2802 7.59334 22.7322C8.59474 21.4982 9.6198 20.2839 10.6291 19.0617C12.4821 16.8184 14.7608 15.1705 17.5088 14.1967C21.333 12.8404 25.0626 13.2505 28.6897 14.9181C29.5532 15.3163 30.3495 15.8683 31.1735 16.3532C31.3943 16.4833 31.6033 16.6213 31.828 16.7632C32.376 15.4464 32.376 15.4504 33.5036 16.3532C33.6494 16.4715 33.819 16.5661 34.0437 16.7199C34.2329 16.3848 34.3749 16.097 34.5523 15.8289C35.0569 15.0561 35.5024 14.2243 36.1056 13.5422C37.6274 11.8233 40.127 11.3738 42.1929 12.3555C43.5688 13.01 44.2627 14.1533 44.4914 15.616C44.5465 15.9747 44.5032 16.3493 44.5623 16.7041C44.8856 18.7384 43.691 19.4639 42.2441 20.1026C41.5542 20.4061 41.1442 20.7412 40.8406 21.4351C39.922 23.5523 38.55 25.3737 36.9217 27.0059C36.6891 27.2385 36.4013 27.408 36.1372 27.6091C36.1687 27.684 36.2081 27.7668 36.2476 27.8496ZM5.84286 24.3802C6.63531 25.6339 7.62882 26.4027 8.65388 27.1242C11.6462 29.2334 14.9895 30.5305 18.5575 31.248C22.5828 32.0602 26.5766 32.0326 30.4757 30.5423C32.2498 29.8642 33.8978 28.9693 35.2816 27.6367C35.9716 26.9744 36.4407 26.1937 36.563 25.2318C37.0282 21.6953 35.5458 19.0065 32.8885 16.8342C32.8452 16.7987 32.7624 16.8145 32.7032 16.8027C32.5574 17.1811 32.4075 17.5596 32.2341 18.0091C31.9502 17.8396 31.7846 17.7489 31.6309 17.6424C30.7556 17.051 29.9316 16.369 29.0051 15.8801C25.6895 14.1257 22.2004 13.5737 18.5457 14.6106C14.7727 15.683 12.0405 18.1392 9.78538 21.309C10.0416 21.6007 10.294 21.9043 10.566 22.1881C13.1365 24.8691 16.3221 26.4934 19.8506 27.4632C22.3423 28.1453 24.8655 28.2951 27.3966 27.55C30.1564 26.7378 32.5298 24.7942 32.5731 21.443C32.5771 21.2695 32.6835 21.1 32.7505 20.9029C33.3735 21.0488 33.271 21.4982 33.2512 21.8609C33.1014 24.5773 31.6427 26.4145 29.289 27.6012C26.9511 28.78 24.4161 28.922 21.9126 28.5711C17.2249 27.9166 13.1444 25.9335 9.82875 22.4838C9.65528 22.3025 9.46998 22.1369 9.27285 21.9516C8.2478 22.953 7.5894 24.325 5.84286 24.3802ZM43.7778 18.0958C44.0143 16.917 43.8211 15.9866 43.5925 15.064C43.3283 13.9838 42.6502 13.2623 41.6133 12.8956C39.8865 12.2845 38.2858 12.5014 36.9099 13.7551C35.8139 14.7486 35.1831 16.0536 34.568 17.3586C36.6103 19.6058 37.6905 22.1369 37.4579 25.1923C38.7589 23.7849 39.7485 22.2473 40.4227 20.5323C40.0836 20.2918 39.8313 20.1104 39.4962 19.8739C40.1743 19.2746 40.8564 19.8423 41.4596 19.6255C42.0706 19.4047 42.6896 19.251 43.0681 18.6517C42.1653 17.9342 42.1653 17.9342 42.4886 17.3665C42.867 17.5833 43.2495 17.8001 43.7778 18.0958ZM9.10332 28.3937C7.8496 29.5488 7.02562 30.9287 6.79301 32.6319C6.69051 33.381 6.89946 34.0906 7.32919 34.6978C7.54603 35.0013 7.89691 35.3798 8.21626 35.4114C9.11515 35.502 10.0338 35.4271 11.0076 35.4192C10.7395 33.2154 11.8355 31.7842 13.3691 30.5463C11.9104 29.809 10.5384 29.1191 9.10332 28.3937ZM38.9206 35.364C39.3148 33.9447 39.2951 32.5648 38.889 31.2126C38.5421 30.0574 37.8403 29.1427 36.6339 28.7524C36.1845 28.6066 35.7035 28.4055 35.1988 28.7603C35.5773 29.9431 35.7981 31.1455 35.4157 32.2968C35.049 33.4085 35.4433 34.3469 35.6759 35.3601C36.7995 35.364 37.8482 35.364 38.9206 35.364ZM29.6478 35.3995C30.2825 35.3995 30.9133 35.3246 31.5244 35.4153C32.786 35.5966 33.5154 34.9698 34.0358 33.9447C34.1265 33.7673 34.2448 33.6057 34.3197 33.4204C34.8558 32.1075 35.0293 30.771 34.5602 29.3951C32.995 30.152 31.4889 30.8814 30.0736 31.5674C29.9316 32.8527 29.7937 34.0827 29.6478 35.3995ZM19.0897 32.1469C17.5167 31.729 15.9042 31.3032 14.3074 30.8814C13.5741 32.2376 13.6609 33.6766 14.5755 34.7135C14.8436 35.021 15.2458 35.368 15.6124 35.3995C16.6848 35.4902 17.7729 35.4311 18.8059 35.4311C18.9084 34.2483 18.999 33.2075 19.0897 32.1469ZM8.4331 27.9127C7.91268 27.479 7.46718 27.0887 7.00196 26.7339C6.86003 26.6274 6.6432 26.5525 6.46972 26.5683C5.40524 26.6708 4.34471 26.8048 3.28417 26.9271C3.51678 28.2557 4.37625 29.0521 6.00451 29.4266C6.70233 29.5883 7.29371 29.5725 7.68796 28.8392C7.85749 28.5238 8.13741 28.2715 8.4331 27.9127Z" fill="#FFEB61"/>
<path d="M36.2476 27.8496C37.7694 28.2439 38.8693 29.1427 39.4331 30.5975C39.918 31.8473 40.0797 33.1641 39.851 34.5006C39.5672 36.1407 40.0087 36.0895 37.9704 36.0776C37.111 36.0737 36.2476 36.0697 35.3881 36.0619C35.2935 36.0619 35.2028 36.0027 35.0806 35.9594C34.9544 35.506 34.8282 35.0447 34.6587 34.4297C34.3118 34.8555 34.0397 35.1709 33.7953 35.506C33.4996 35.9081 33.1448 36.0973 32.6204 36.0816C31.3036 36.0461 29.9868 36.0697 28.5123 36.0697C28.7252 35.2812 28.9342 34.6071 29.084 33.925C29.2299 33.2509 29.36 32.5688 29.1195 31.7921C26.1232 32.5412 23.1071 32.6989 20.0241 32.2297C19.4603 33.4598 19.5628 34.6544 19.8703 35.9751C19.5786 36.0224 19.3105 36.0973 19.0385 36.1013C17.9779 36.1289 16.9174 36.188 15.8647 36.1289C15.4035 36.1052 14.887 35.9239 14.5125 35.6518C13.6451 35.0171 13.1799 34.1103 13.1326 33.0182C13.1168 32.6871 13.1286 32.3598 13.1286 32.005C11.9065 32.8329 11.4452 33.9605 11.8946 36.0027C11.6029 36.0343 11.323 36.0855 11.0391 36.0973C10.3768 36.1249 9.71441 36.1249 9.05601 36.1525C7.64459 36.2117 6.68262 35.5296 6.23317 34.1773C5.89806 33.1799 6.05576 32.2218 6.35539 31.2599C6.45001 30.9524 6.56434 30.6527 6.69839 30.2664C6.28048 30.1875 5.9296 30.1244 5.58266 30.0535C3.95834 29.7223 2.60212 28.3148 2.40499 26.7615C2.31825 26.0912 2.49173 25.9059 3.15801 26.0045C4.07267 26.1425 4.9834 26.2095 5.95325 25.9454C5.67334 25.1529 4.78233 24.7587 4.84146 23.8006C5.20812 23.7454 5.55506 23.6666 5.90594 23.6429C6.61165 23.5956 7.14784 23.2802 7.59334 22.7322C8.59474 21.4982 9.6198 20.2839 10.6291 19.0617C12.4821 16.8184 14.7608 15.1705 17.5088 14.1967C21.333 12.8404 25.0626 13.2505 28.6897 14.9181C29.5532 15.3163 30.3495 15.8683 31.1735 16.3532C31.3943 16.4833 31.6033 16.6213 31.828 16.7632C32.376 15.4464 32.376 15.4504 33.5036 16.3532C33.6494 16.4715 33.819 16.5661 34.0437 16.7199C34.2329 16.3848 34.3749 16.097 34.5523 15.8289C35.0569 15.0561 35.5024 14.2243 36.1056 13.5422C37.6274 11.8233 40.127 11.3738 42.1929 12.3555C43.5688 13.01 44.2627 14.1533 44.4914 15.616C44.5465 15.9747 44.5032 16.3493 44.5623 16.7041C44.8856 18.7384 43.691 19.4639 42.2441 20.1026C41.5542 20.4061 41.1442 20.7412 40.8406 21.4351C39.922 23.5523 38.55 25.3737 36.9217 27.0059C36.6891 27.2385 36.4013 27.408 36.1372 27.6091C36.1687 27.684 36.2081 27.7668 36.2476 27.8496ZM5.84286 24.3802C6.63531 25.6339 7.62882 26.4027 8.65388 27.1242C11.6462 29.2334 14.9895 30.5305 18.5575 31.248C22.5828 32.0602 26.5766 32.0326 30.4757 30.5423C32.2498 29.8642 33.8978 28.9693 35.2816 27.6367C35.9716 26.9744 36.4407 26.1937 36.563 25.2318C37.0282 21.6953 35.5458 19.0065 32.8885 16.8342C32.8452 16.7987 32.7624 16.8145 32.7032 16.8027C32.5574 17.1811 32.4075 17.5596 32.2341 18.0091C31.9502 17.8396 31.7846 17.7489 31.6309 17.6424C30.7556 17.051 29.9316 16.369 29.0051 15.8801C25.6895 14.1257 22.2004 13.5737 18.5457 14.6106C14.7727 15.683 12.0405 18.1392 9.78538 21.309C10.0416 21.6007 10.294 21.9043 10.566 22.1881C13.1365 24.8691 16.3221 26.4934 19.8506 27.4632C22.3423 28.1453 24.8655 28.2951 27.3966 27.55C30.1564 26.7378 32.5298 24.7942 32.5731 21.443C32.5771 21.2695 32.6835 21.1 32.7505 20.9029C33.3735 21.0488 33.271 21.4982 33.2512 21.8609C33.1014 24.5773 31.6427 26.4145 29.289 27.6012C26.9511 28.78 24.4161 28.922 21.9126 28.5711C17.2249 27.9166 13.1444 25.9335 9.82875 22.4838C9.65528 22.3025 9.46998 22.1369 9.27285 21.9516C8.2478 22.953 7.5894 24.325 5.84286 24.3802ZM43.7778 18.0958C44.0143 16.917 43.8211 15.9866 43.5925 15.064C43.3283 13.9838 42.6502 13.2623 41.6133 12.8956C39.8865 12.2845 38.2858 12.5014 36.9099 13.7551C35.8139 14.7486 35.1831 16.0536 34.568 17.3586C36.6103 19.6058 37.6905 22.1369 37.4579 25.1923C38.7589 23.7849 39.7485 22.2473 40.4227 20.5323C40.0836 20.2918 39.8313 20.1104 39.4962 19.8739C40.1743 19.2746 40.8564 19.8423 41.4596 19.6255C42.0706 19.4047 42.6896 19.251 43.0681 18.6517C42.1653 17.9342 42.1653 17.9342 42.4886 17.3665C42.867 17.5833 43.2495 17.8001 43.7778 18.0958ZM9.10332 28.3937C7.8496 29.5488 7.02562 30.9287 6.79301 32.6319C6.69051 33.381 6.89946 34.0906 7.32919 34.6978C7.54603 35.0013 7.89691 35.3798 8.21626 35.4114C9.11515 35.502 10.0338 35.4271 11.0076 35.4192C10.7395 33.2154 11.8355 31.7842 13.3691 30.5463C11.9104 29.809 10.5384 29.1191 9.10332 28.3937ZM38.9206 35.364C39.3148 33.9447 39.2951 32.5648 38.889 31.2126C38.5421 30.0574 37.8403 29.1427 36.6339 28.7524C36.1845 28.6066 35.7035 28.4055 35.1988 28.7603C35.5773 29.9431 35.7981 31.1455 35.4157 32.2968C35.049 33.4085 35.4433 34.3469 35.6759 35.3601C36.7995 35.364 37.8482 35.364 38.9206 35.364ZM29.6478 35.3995C30.2825 35.3995 30.9133 35.3246 31.5244 35.4153C32.786 35.5966 33.5154 34.9698 34.0358 33.9447C34.1265 33.7673 34.2448 33.6057 34.3197 33.4204C34.8558 32.1075 35.0293 30.771 34.5602 29.3951C32.995 30.152 31.4889 30.8814 30.0736 31.5674C29.9316 32.8527 29.7937 34.0827 29.6478 35.3995ZM19.0897 32.1469C17.5167 31.729 15.9042 31.3032 14.3074 30.8814C13.5741 32.2376 13.6609 33.6766 14.5755 34.7135C14.8436 35.021 15.2458 35.368 15.6124 35.3995C16.6848 35.4902 17.7729 35.4311 18.8059 35.4311C18.9084 34.2483 18.999 33.2075 19.0897 32.1469ZM8.4331 27.9127C7.91268 27.479 7.46718 27.0887 7.00196 26.7339C6.86003 26.6274 6.6432 26.5525 6.46972 26.5683C5.40524 26.6708 4.34471 26.8048 3.28417 26.9271C3.51678 28.2557 4.37625 29.0521 6.00451 29.4266C6.70233 29.5883 7.29371 29.5725 7.68796 28.8392C7.85749 28.5238 8.13741 28.2715 8.4331 27.9127Z" stroke="#FFEB61" stroke-width="0.5" mask="url(#path-1-outside-1_784_3323)"/>
<path d="M41.0683 15.6415L41.0683 15.6415L41.0683 15.6406C41.0729 15.0922 40.6083 14.6382 40.0542 14.6511C39.5243 14.6562 39.0293 15.1009 38.9971 15.6236C38.9607 16.1568 39.4148 16.6355 39.9654 16.6711L39.9657 16.6711C40.5465 16.7071 41.0594 16.2282 41.0683 15.6415Z" fill="#FFEB61" stroke="#FFEB61" stroke-width="0.25"/>
</svg>
