<svg width="48" height="48" viewBox="0 0 48 48" fill="none" xmlns="http://www.w3.org/2000/svg">
<path d="M34.2131 21.8509C34.1841 22.081 34.2454 22.2943 34.4029 22.4523C34.5586 22.6086 34.7966 22.6993 35.1003 22.7119L35.1507 22.7139L35.1823 22.6747C35.2077 22.6432 35.2421 22.6071 35.2843 22.5634C35.2885 22.5591 35.2927 22.5548 35.297 22.5504C35.3351 22.5111 35.3777 22.4672 35.4196 22.4201C35.5125 22.316 35.6102 22.1883 35.6622 22.0389L35.6622 22.0389L35.6627 22.0376C35.7345 21.8221 35.6538 21.5967 35.5197 21.434C35.3859 21.2715 35.1807 21.1487 34.9676 21.1536C34.7585 21.1579 34.5807 21.2206 34.4481 21.3443C34.316 21.4675 34.239 21.6419 34.2131 21.8509ZM34.2131 21.8509L34.3124 21.8634L34.2131 21.8512C34.2131 21.8511 34.2131 21.851 34.2131 21.8509Z" fill="#FFEB61" stroke="#FFEB61" stroke-width="0.2"/>
<mask id="path-2-outside-1_784_3313" maskUnits="userSpaceOnUse" x="1.49268" y="11.0498" width="45" height="26" fill="black">
<rect fill="white" x="1.49268" y="11.0498" width="45" height="26"/>
<path d="M5.93998 33.297C6.27662 33.3564 6.62513 33.3762 6.94196 33.4831C7.66276 33.7168 8.09839 34.3623 7.97562 34.9604C7.85681 35.5505 7.34196 35.9109 6.56176 35.9227C6.03106 35.9307 5.49641 35.9386 4.96572 35.9188C3.16374 35.8435 2.08652 34.299 2.63702 32.5841C2.81919 32.0178 3.05285 31.4713 3.23503 30.9089C3.74196 29.3406 3.87266 27.7326 3.74989 26.0891C3.58751 23.895 3.90037 21.7604 4.89443 19.796C6.5578 16.5049 9.29839 14.7821 12.9736 14.5564C14.9895 14.4336 16.9618 14.7346 18.9103 15.2336C21.54 15.9069 24.1618 16.6198 26.8113 17.2138C29.0727 17.7208 31.1598 17.297 32.9063 15.6455C33.5875 15 34.3162 14.4059 35.0093 13.7762C35.1915 13.6138 35.3499 13.4118 35.4766 13.2019C36.0984 12.1604 36.542 11.9346 37.6944 12.101C37.8766 12.1287 38.0667 12.1564 38.241 12.1287C40.3796 11.7762 42.0628 12.6277 43.3538 14.2316C44.1539 15.2217 44.7796 16.3584 45.4172 17.4673C45.5598 17.7128 45.5162 18.1524 45.4014 18.4376C44.9934 19.4514 44.1974 20.1089 43.1875 20.4693C42.8588 20.5881 42.4469 20.5326 42.0826 20.4891C41.6826 20.4415 41.2905 20.3227 40.7796 20.2039C40.1301 22.3346 39.7499 24.5089 39.4766 26.6871C39.2033 28.8772 38.8232 31.0633 38.8311 33.2772C39.2746 33.3683 39.6548 33.4 39.9994 33.5227C40.6766 33.7604 41.0568 34.3782 40.9499 34.9643C40.843 35.5386 40.3637 35.899 39.6311 35.9227C39.1954 35.9386 38.7558 35.9267 38.3162 35.9267C36.5222 35.9188 35.4489 34.8653 35.4251 33.0831C35.4132 32.1406 35.3935 31.2019 34.9935 30.3227C34.9024 30.1247 34.8034 29.9307 34.6964 29.7406C34.5222 29.4316 34.2568 29.3049 33.9083 29.396C32.9618 29.6455 32.0628 29.9386 31.5202 30.8851C31.0885 31.6415 30.5697 32.3505 30.3202 33.2891C30.5578 33.3247 30.7598 33.3287 30.9499 33.3881C31.3024 33.499 31.6865 33.5742 31.9835 33.7802C32.3875 34.0574 32.5855 34.501 32.4786 35.0118C32.3796 35.499 31.9558 35.8792 31.4014 35.9109C30.6845 35.9505 29.9558 35.9782 29.243 35.9029C27.8331 35.7564 26.9261 34.6 26.9261 33.0712C26.9261 32.6039 26.8984 32.1326 26.8548 31.6693C26.839 31.4911 26.74 31.3208 26.6489 31.0673C26.2449 31.1346 25.8568 31.198 25.4727 31.2693C23.3618 31.6376 21.2984 31.297 19.243 30.8574C18.2212 30.6396 18.2014 30.6079 17.6746 31.5069C17.3618 32.0376 17.1439 32.6198 16.843 33.2613C17.1796 33.3168 17.3935 33.3247 17.5875 33.392C17.9677 33.5227 18.3717 33.6257 18.6964 33.8435C19.1162 34.1287 19.2548 34.596 19.1162 35.095C18.9776 35.6019 18.6093 35.895 18.0905 35.9188C17.3736 35.9465 16.6449 35.9821 15.936 35.895C14.5618 35.7247 13.734 34.6831 13.7618 33.1821C13.7855 32.0178 13.734 30.8732 13.4647 29.7485C10.5657 28.8336 6.83107 30.6594 5.93998 33.297ZM43.8806 19.2495C43.8053 18.8019 43.6113 18.394 43.734 18.1287C43.8608 17.8475 44.2885 17.7049 44.637 17.4673C44.0905 16.5881 43.6113 15.7049 43.0291 14.901C42.2133 13.7722 41.1162 13.0237 39.7182 12.7782C39.1519 12.6792 38.6014 12.6475 38.2251 13.198C38.0944 13.1386 38.0073 13.1069 37.9281 13.0633C37.2628 12.6713 36.8826 12.6396 36.4786 12.996C36.0509 13.3683 35.9637 13.8198 36.2014 14.3505C36.2647 14.4891 36.2093 14.6831 36.2093 14.9802C35.841 14.798 35.5796 14.6713 35.2746 14.5208C34.4865 15.2019 33.6944 15.9029 32.8786 16.5841C31.2865 17.9109 29.4172 18.3584 27.4291 18.0019C25.2826 17.6178 23.1558 17.095 21.0489 16.5287C18.843 15.9346 16.6489 15.3089 14.3519 15.2217C12.039 15.1346 9.86474 15.5821 8.00731 17.0594C5.11622 19.3604 4.27265 22.5247 4.43503 26.0138C4.52216 27.8237 4.4073 29.5703 3.84097 31.2851C3.65483 31.8475 3.41325 32.394 3.25087 32.9643C2.96176 33.9623 3.57563 35.0277 4.58949 35.1663C5.32612 35.2653 6.09048 35.2059 6.83899 35.1782C6.99345 35.1742 7.24691 35.0118 7.26276 34.893C7.29048 34.7109 7.20334 34.4059 7.06869 34.3346C6.77958 34.1841 6.43503 34.101 6.11028 34.0732C5.15582 33.9901 4.89048 33.5663 5.34592 32.7109C6.18553 31.1386 7.41721 29.9901 9.09642 29.3406C11.0449 28.5841 13.0172 28.699 15.0014 29.1227C17.1994 29.594 19.3895 30.101 21.5915 30.5406C23.0806 30.8376 24.5776 30.7623 26.0627 30.4178C27.0568 30.1881 27.2231 30.2435 27.4568 31.2217C27.6073 31.8514 27.6192 32.5168 27.6469 33.1703C27.6905 34.295 28.34 35.1188 29.334 35.1901C29.9558 35.2336 30.5895 35.2257 31.2113 35.1742C31.4093 35.1584 31.7222 34.9564 31.7459 34.8059C31.7737 34.6198 31.5994 34.3029 31.4251 34.2158C31.1638 34.0851 30.8271 34.0891 30.5222 34.0653C29.8014 34.0059 29.4925 33.6376 29.6905 32.9524C29.8291 32.4772 29.9875 31.9703 30.2687 31.5782C31.0885 30.4415 31.9241 29.3049 32.8548 28.2594C34.9974 25.8435 37.037 23.3564 38.6529 20.5485C39.1479 19.6891 39.8727 19.3564 40.8548 19.5109C41.1954 19.5663 41.5321 19.6376 41.8608 19.7287C42.6529 19.9584 43.342 19.8237 43.8806 19.2495ZM39.9202 20.4376C39.8449 20.4099 39.7697 20.3821 39.6944 20.3544C38.7439 21.7683 37.837 23.2138 36.8271 24.5841C35.8172 25.9465 34.7043 27.2336 33.5122 28.7029C34.7875 28.4217 35.239 29.1267 35.5915 29.9465C35.738 30.2871 35.8727 30.6514 35.9241 31.0158C36.0192 31.7247 36.0707 32.4455 36.1063 33.1623C36.1618 34.1841 36.7519 35.0594 37.6152 35.1703C38.3242 35.2574 39.0529 35.2099 39.7697 35.1861C39.9202 35.1821 40.1737 35.0198 40.1895 34.9049C40.2133 34.7227 40.134 34.4138 39.9994 34.3465C39.7103 34.196 39.3657 34.1287 39.037 34.0891C38.4033 34.0138 38.2133 33.8554 38.1578 33.2297C38.142 33.0435 38.1578 32.8534 38.1657 32.6673C38.34 29.7604 38.6568 26.8732 39.1994 24.0099C39.4291 22.8138 39.6786 21.6257 39.9202 20.4376ZM14.3241 29.7089C14.3835 31.1425 14.4033 32.4772 14.5063 33.8039C14.5578 34.4772 15.2033 35.1029 15.8766 35.1703C16.5895 35.2376 17.3142 35.2059 18.0311 35.1782C18.1736 35.1742 18.3875 35 18.4271 34.8653C18.4667 34.7227 18.3796 34.4376 18.2687 34.3821C17.9439 34.2316 17.5875 34.1128 17.2311 34.0732C16.4033 33.9901 16.0746 33.6455 16.3123 32.8495C16.5063 32.2 16.8628 31.6019 17.1479 30.9841C17.2311 30.8019 17.3103 30.6158 17.4212 30.3742C16.3439 30.1445 15.3538 29.9307 14.3241 29.7089Z"/>
</mask>
<path d="M5.93998 33.297C6.27662 33.3564 6.62513 33.3762 6.94196 33.4831C7.66276 33.7168 8.09839 34.3623 7.97562 34.9604C7.85681 35.5505 7.34196 35.9109 6.56176 35.9227C6.03106 35.9307 5.49641 35.9386 4.96572 35.9188C3.16374 35.8435 2.08652 34.299 2.63702 32.5841C2.81919 32.0178 3.05285 31.4713 3.23503 30.9089C3.74196 29.3406 3.87266 27.7326 3.74989 26.0891C3.58751 23.895 3.90037 21.7604 4.89443 19.796C6.5578 16.5049 9.29839 14.7821 12.9736 14.5564C14.9895 14.4336 16.9618 14.7346 18.9103 15.2336C21.54 15.9069 24.1618 16.6198 26.8113 17.2138C29.0727 17.7208 31.1598 17.297 32.9063 15.6455C33.5875 15 34.3162 14.4059 35.0093 13.7762C35.1915 13.6138 35.3499 13.4118 35.4766 13.2019C36.0984 12.1604 36.542 11.9346 37.6944 12.101C37.8766 12.1287 38.0667 12.1564 38.241 12.1287C40.3796 11.7762 42.0628 12.6277 43.3538 14.2316C44.1539 15.2217 44.7796 16.3584 45.4172 17.4673C45.5598 17.7128 45.5162 18.1524 45.4014 18.4376C44.9934 19.4514 44.1974 20.1089 43.1875 20.4693C42.8588 20.5881 42.4469 20.5326 42.0826 20.4891C41.6826 20.4415 41.2905 20.3227 40.7796 20.2039C40.1301 22.3346 39.7499 24.5089 39.4766 26.6871C39.2033 28.8772 38.8232 31.0633 38.8311 33.2772C39.2746 33.3683 39.6548 33.4 39.9994 33.5227C40.6766 33.7604 41.0568 34.3782 40.9499 34.9643C40.843 35.5386 40.3637 35.899 39.6311 35.9227C39.1954 35.9386 38.7558 35.9267 38.3162 35.9267C36.5222 35.9188 35.4489 34.8653 35.4251 33.0831C35.4132 32.1406 35.3935 31.2019 34.9935 30.3227C34.9024 30.1247 34.8034 29.9307 34.6964 29.7406C34.5222 29.4316 34.2568 29.3049 33.9083 29.396C32.9618 29.6455 32.0628 29.9386 31.5202 30.8851C31.0885 31.6415 30.5697 32.3505 30.3202 33.2891C30.5578 33.3247 30.7598 33.3287 30.9499 33.3881C31.3024 33.499 31.6865 33.5742 31.9835 33.7802C32.3875 34.0574 32.5855 34.501 32.4786 35.0118C32.3796 35.499 31.9558 35.8792 31.4014 35.9109C30.6845 35.9505 29.9558 35.9782 29.243 35.9029C27.8331 35.7564 26.9261 34.6 26.9261 33.0712C26.9261 32.6039 26.8984 32.1326 26.8548 31.6693C26.839 31.4911 26.74 31.3208 26.6489 31.0673C26.2449 31.1346 25.8568 31.198 25.4727 31.2693C23.3618 31.6376 21.2984 31.297 19.243 30.8574C18.2212 30.6396 18.2014 30.6079 17.6746 31.5069C17.3618 32.0376 17.1439 32.6198 16.843 33.2613C17.1796 33.3168 17.3935 33.3247 17.5875 33.392C17.9677 33.5227 18.3717 33.6257 18.6964 33.8435C19.1162 34.1287 19.2548 34.596 19.1162 35.095C18.9776 35.6019 18.6093 35.895 18.0905 35.9188C17.3736 35.9465 16.6449 35.9821 15.936 35.895C14.5618 35.7247 13.734 34.6831 13.7618 33.1821C13.7855 32.0178 13.734 30.8732 13.4647 29.7485C10.5657 28.8336 6.83107 30.6594 5.93998 33.297ZM43.8806 19.2495C43.8053 18.8019 43.6113 18.394 43.734 18.1287C43.8608 17.8475 44.2885 17.7049 44.637 17.4673C44.0905 16.5881 43.6113 15.7049 43.0291 14.901C42.2133 13.7722 41.1162 13.0237 39.7182 12.7782C39.1519 12.6792 38.6014 12.6475 38.2251 13.198C38.0944 13.1386 38.0073 13.1069 37.9281 13.0633C37.2628 12.6713 36.8826 12.6396 36.4786 12.996C36.0509 13.3683 35.9637 13.8198 36.2014 14.3505C36.2647 14.4891 36.2093 14.6831 36.2093 14.9802C35.841 14.798 35.5796 14.6713 35.2746 14.5208C34.4865 15.2019 33.6944 15.9029 32.8786 16.5841C31.2865 17.9109 29.4172 18.3584 27.4291 18.0019C25.2826 17.6178 23.1558 17.095 21.0489 16.5287C18.843 15.9346 16.6489 15.3089 14.3519 15.2217C12.039 15.1346 9.86474 15.5821 8.00731 17.0594C5.11622 19.3604 4.27265 22.5247 4.43503 26.0138C4.52216 27.8237 4.4073 29.5703 3.84097 31.2851C3.65483 31.8475 3.41325 32.394 3.25087 32.9643C2.96176 33.9623 3.57563 35.0277 4.58949 35.1663C5.32612 35.2653 6.09048 35.2059 6.83899 35.1782C6.99345 35.1742 7.24691 35.0118 7.26276 34.893C7.29048 34.7109 7.20334 34.4059 7.06869 34.3346C6.77958 34.1841 6.43503 34.101 6.11028 34.0732C5.15582 33.9901 4.89048 33.5663 5.34592 32.7109C6.18553 31.1386 7.41721 29.9901 9.09642 29.3406C11.0449 28.5841 13.0172 28.699 15.0014 29.1227C17.1994 29.594 19.3895 30.101 21.5915 30.5406C23.0806 30.8376 24.5776 30.7623 26.0627 30.4178C27.0568 30.1881 27.2231 30.2435 27.4568 31.2217C27.6073 31.8514 27.6192 32.5168 27.6469 33.1703C27.6905 34.295 28.34 35.1188 29.334 35.1901C29.9558 35.2336 30.5895 35.2257 31.2113 35.1742C31.4093 35.1584 31.7222 34.9564 31.7459 34.8059C31.7737 34.6198 31.5994 34.3029 31.4251 34.2158C31.1638 34.0851 30.8271 34.0891 30.5222 34.0653C29.8014 34.0059 29.4925 33.6376 29.6905 32.9524C29.8291 32.4772 29.9875 31.9703 30.2687 31.5782C31.0885 30.4415 31.9241 29.3049 32.8548 28.2594C34.9974 25.8435 37.037 23.3564 38.6529 20.5485C39.1479 19.6891 39.8727 19.3564 40.8548 19.5109C41.1954 19.5663 41.5321 19.6376 41.8608 19.7287C42.6529 19.9584 43.342 19.8237 43.8806 19.2495ZM39.9202 20.4376C39.8449 20.4099 39.7697 20.3821 39.6944 20.3544C38.7439 21.7683 37.837 23.2138 36.8271 24.5841C35.8172 25.9465 34.7043 27.2336 33.5122 28.7029C34.7875 28.4217 35.239 29.1267 35.5915 29.9465C35.738 30.2871 35.8727 30.6514 35.9241 31.0158C36.0192 31.7247 36.0707 32.4455 36.1063 33.1623C36.1618 34.1841 36.7519 35.0594 37.6152 35.1703C38.3242 35.2574 39.0529 35.2099 39.7697 35.1861C39.9202 35.1821 40.1737 35.0198 40.1895 34.9049C40.2133 34.7227 40.134 34.4138 39.9994 34.3465C39.7103 34.196 39.3657 34.1287 39.037 34.0891C38.4033 34.0138 38.2133 33.8554 38.1578 33.2297C38.142 33.0435 38.1578 32.8534 38.1657 32.6673C38.34 29.7604 38.6568 26.8732 39.1994 24.0099C39.4291 22.8138 39.6786 21.6257 39.9202 20.4376ZM14.3241 29.7089C14.3835 31.1425 14.4033 32.4772 14.5063 33.8039C14.5578 34.4772 15.2033 35.1029 15.8766 35.1703C16.5895 35.2376 17.3142 35.2059 18.0311 35.1782C18.1736 35.1742 18.3875 35 18.4271 34.8653C18.4667 34.7227 18.3796 34.4376 18.2687 34.3821C17.9439 34.2316 17.5875 34.1128 17.2311 34.0732C16.4033 33.9901 16.0746 33.6455 16.3123 32.8495C16.5063 32.2 16.8628 31.6019 17.1479 30.9841C17.2311 30.8019 17.3103 30.6158 17.4212 30.3742C16.3439 30.1445 15.3538 29.9307 14.3241 29.7089Z" fill="#FFEB61"/>
<path d="M5.93998 33.297C6.27662 33.3564 6.62513 33.3762 6.94196 33.4831C7.66276 33.7168 8.09839 34.3623 7.97562 34.9604C7.85681 35.5505 7.34196 35.9109 6.56176 35.9227C6.03106 35.9307 5.49641 35.9386 4.96572 35.9188C3.16374 35.8435 2.08652 34.299 2.63702 32.5841C2.81919 32.0178 3.05285 31.4713 3.23503 30.9089C3.74196 29.3406 3.87266 27.7326 3.74989 26.0891C3.58751 23.895 3.90037 21.7604 4.89443 19.796C6.5578 16.5049 9.29839 14.7821 12.9736 14.5564C14.9895 14.4336 16.9618 14.7346 18.9103 15.2336C21.54 15.9069 24.1618 16.6198 26.8113 17.2138C29.0727 17.7208 31.1598 17.297 32.9063 15.6455C33.5875 15 34.3162 14.4059 35.0093 13.7762C35.1915 13.6138 35.3499 13.4118 35.4766 13.2019C36.0984 12.1604 36.542 11.9346 37.6944 12.101C37.8766 12.1287 38.0667 12.1564 38.241 12.1287C40.3796 11.7762 42.0628 12.6277 43.3538 14.2316C44.1539 15.2217 44.7796 16.3584 45.4172 17.4673C45.5598 17.7128 45.5162 18.1524 45.4014 18.4376C44.9934 19.4514 44.1974 20.1089 43.1875 20.4693C42.8588 20.5881 42.4469 20.5326 42.0826 20.4891C41.6826 20.4415 41.2905 20.3227 40.7796 20.2039C40.1301 22.3346 39.7499 24.5089 39.4766 26.6871C39.2033 28.8772 38.8232 31.0633 38.8311 33.2772C39.2746 33.3683 39.6548 33.4 39.9994 33.5227C40.6766 33.7604 41.0568 34.3782 40.9499 34.9643C40.843 35.5386 40.3637 35.899 39.6311 35.9227C39.1954 35.9386 38.7558 35.9267 38.3162 35.9267C36.5222 35.9188 35.4489 34.8653 35.4251 33.0831C35.4132 32.1406 35.3935 31.2019 34.9935 30.3227C34.9024 30.1247 34.8034 29.9307 34.6964 29.7406C34.5222 29.4316 34.2568 29.3049 33.9083 29.396C32.9618 29.6455 32.0628 29.9386 31.5202 30.8851C31.0885 31.6415 30.5697 32.3505 30.3202 33.2891C30.5578 33.3247 30.7598 33.3287 30.9499 33.3881C31.3024 33.499 31.6865 33.5742 31.9835 33.7802C32.3875 34.0574 32.5855 34.501 32.4786 35.0118C32.3796 35.499 31.9558 35.8792 31.4014 35.9109C30.6845 35.9505 29.9558 35.9782 29.243 35.9029C27.8331 35.7564 26.9261 34.6 26.9261 33.0712C26.9261 32.6039 26.8984 32.1326 26.8548 31.6693C26.839 31.4911 26.74 31.3208 26.6489 31.0673C26.2449 31.1346 25.8568 31.198 25.4727 31.2693C23.3618 31.6376 21.2984 31.297 19.243 30.8574C18.2212 30.6396 18.2014 30.6079 17.6746 31.5069C17.3618 32.0376 17.1439 32.6198 16.843 33.2613C17.1796 33.3168 17.3935 33.3247 17.5875 33.392C17.9677 33.5227 18.3717 33.6257 18.6964 33.8435C19.1162 34.1287 19.2548 34.596 19.1162 35.095C18.9776 35.6019 18.6093 35.895 18.0905 35.9188C17.3736 35.9465 16.6449 35.9821 15.936 35.895C14.5618 35.7247 13.734 34.6831 13.7618 33.1821C13.7855 32.0178 13.734 30.8732 13.4647 29.7485C10.5657 28.8336 6.83107 30.6594 5.93998 33.297ZM43.8806 19.2495C43.8053 18.8019 43.6113 18.394 43.734 18.1287C43.8608 17.8475 44.2885 17.7049 44.637 17.4673C44.0905 16.5881 43.6113 15.7049 43.0291 14.901C42.2133 13.7722 41.1162 13.0237 39.7182 12.7782C39.1519 12.6792 38.6014 12.6475 38.2251 13.198C38.0944 13.1386 38.0073 13.1069 37.9281 13.0633C37.2628 12.6713 36.8826 12.6396 36.4786 12.996C36.0509 13.3683 35.9637 13.8198 36.2014 14.3505C36.2647 14.4891 36.2093 14.6831 36.2093 14.9802C35.841 14.798 35.5796 14.6713 35.2746 14.5208C34.4865 15.2019 33.6944 15.9029 32.8786 16.5841C31.2865 17.9109 29.4172 18.3584 27.4291 18.0019C25.2826 17.6178 23.1558 17.095 21.0489 16.5287C18.843 15.9346 16.6489 15.3089 14.3519 15.2217C12.039 15.1346 9.86474 15.5821 8.00731 17.0594C5.11622 19.3604 4.27265 22.5247 4.43503 26.0138C4.52216 27.8237 4.4073 29.5703 3.84097 31.2851C3.65483 31.8475 3.41325 32.394 3.25087 32.9643C2.96176 33.9623 3.57563 35.0277 4.58949 35.1663C5.32612 35.2653 6.09048 35.2059 6.83899 35.1782C6.99345 35.1742 7.24691 35.0118 7.26276 34.893C7.29048 34.7109 7.20334 34.4059 7.06869 34.3346C6.77958 34.1841 6.43503 34.101 6.11028 34.0732C5.15582 33.9901 4.89048 33.5663 5.34592 32.7109C6.18553 31.1386 7.41721 29.9901 9.09642 29.3406C11.0449 28.5841 13.0172 28.699 15.0014 29.1227C17.1994 29.594 19.3895 30.101 21.5915 30.5406C23.0806 30.8376 24.5776 30.7623 26.0627 30.4178C27.0568 30.1881 27.2231 30.2435 27.4568 31.2217C27.6073 31.8514 27.6192 32.5168 27.6469 33.1703C27.6905 34.295 28.34 35.1188 29.334 35.1901C29.9558 35.2336 30.5895 35.2257 31.2113 35.1742C31.4093 35.1584 31.7222 34.9564 31.7459 34.8059C31.7737 34.6198 31.5994 34.3029 31.4251 34.2158C31.1638 34.0851 30.8271 34.0891 30.5222 34.0653C29.8014 34.0059 29.4925 33.6376 29.6905 32.9524C29.8291 32.4772 29.9875 31.9703 30.2687 31.5782C31.0885 30.4415 31.9241 29.3049 32.8548 28.2594C34.9974 25.8435 37.037 23.3564 38.6529 20.5485C39.1479 19.6891 39.8727 19.3564 40.8548 19.5109C41.1954 19.5663 41.5321 19.6376 41.8608 19.7287C42.6529 19.9584 43.342 19.8237 43.8806 19.2495ZM39.9202 20.4376C39.8449 20.4099 39.7697 20.3821 39.6944 20.3544C38.7439 21.7683 37.837 23.2138 36.8271 24.5841C35.8172 25.9465 34.7043 27.2336 33.5122 28.7029C34.7875 28.4217 35.239 29.1267 35.5915 29.9465C35.738 30.2871 35.8727 30.6514 35.9241 31.0158C36.0192 31.7247 36.0707 32.4455 36.1063 33.1623C36.1618 34.1841 36.7519 35.0594 37.6152 35.1703C38.3242 35.2574 39.0529 35.2099 39.7697 35.1861C39.9202 35.1821 40.1737 35.0198 40.1895 34.9049C40.2133 34.7227 40.134 34.4138 39.9994 34.3465C39.7103 34.196 39.3657 34.1287 39.037 34.0891C38.4033 34.0138 38.2133 33.8554 38.1578 33.2297C38.142 33.0435 38.1578 32.8534 38.1657 32.6673C38.34 29.7604 38.6568 26.8732 39.1994 24.0099C39.4291 22.8138 39.6786 21.6257 39.9202 20.4376ZM14.3241 29.7089C14.3835 31.1425 14.4033 32.4772 14.5063 33.8039C14.5578 34.4772 15.2033 35.1029 15.8766 35.1703C16.5895 35.2376 17.3142 35.2059 18.0311 35.1782C18.1736 35.1742 18.3875 35 18.4271 34.8653C18.4667 34.7227 18.3796 34.4376 18.2687 34.3821C17.9439 34.2316 17.5875 34.1128 17.2311 34.0732C16.4033 33.9901 16.0746 33.6455 16.3123 32.8495C16.5063 32.2 16.8628 31.6019 17.1479 30.9841C17.2311 30.8019 17.3103 30.6158 17.4212 30.3742C16.3439 30.1445 15.3538 29.9307 14.3241 29.7089Z" stroke="#FFEB61" stroke-width="0.4" mask="url(#path-2-outside-1_784_3313)"/>
<path d="M41.0407 15.9594L40.94 16.0375C40.8256 16.1262 40.7303 16.2098 40.641 16.2881C40.5935 16.3297 40.5478 16.3698 40.5019 16.4083C40.3742 16.5155 40.247 16.6084 40.0994 16.6523C40.0993 16.6523 40.0993 16.6523 40.0992 16.6524L40.0707 16.5565C39.7539 16.6515 39.4173 16.2515 39.4609 15.8991L41.0407 15.9594ZM41.0407 15.9594L40.9408 15.8801C40.8259 15.789 40.73 15.6999 40.6395 15.6158C40.5962 15.5756 40.5542 15.5366 40.5119 15.4991C40.3873 15.3883 40.2587 15.2889 40.1086 15.255L40.1086 15.255L40.1064 15.2545C39.9088 15.2145 39.7309 15.2691 39.598 15.3899C39.4674 15.5088 39.3856 15.6862 39.3616 15.887L41.0407 15.9594Z" fill="#FFEB61" stroke="#FFEB61" stroke-width="0.2"/>
<path d="M8.04674 21.8348C7.97764 21.8401 7.92008 21.8749 7.87396 21.9142C7.82753 21.9538 7.78414 22.0054 7.74319 22.0588C7.71225 22.0992 7.68259 22.1404 7.65258 22.1822C7.59823 22.2578 7.54272 22.335 7.47627 22.4115L7.42008 22.4762L7.47537 22.5416C7.53773 22.6154 7.58935 22.6907 7.64048 22.7653C7.66679 22.8036 7.69297 22.8418 7.72043 22.8795C7.75866 22.932 7.79943 22.9832 7.84384 23.0241C7.88827 23.0649 7.94235 23.1011 8.00786 23.1138L8.00785 23.1139L8.01057 23.1143C8.09817 23.1289 8.17886 23.1206 8.25016 23.0898C8.32119 23.0592 8.37672 23.009 8.41863 22.9496C8.50071 22.8332 8.5346 22.6763 8.53885 22.5275L8.53886 22.5273C8.54274 22.3837 8.54276 22.2061 8.48256 22.0678C8.45096 21.9953 8.40111 21.9291 8.32413 21.8852C8.24787 21.8418 8.15491 21.8258 8.04674 21.8348ZM8.04674 21.8348C8.04691 21.8348 8.04709 21.8348 8.04726 21.8348L8.05474 21.9345M8.04674 21.8348C8.04661 21.8348 8.04648 21.8348 8.04634 21.8348L8.05474 21.9345M8.05474 21.9345C8.43097 21.9028 8.44682 22.2315 8.43889 22.5246C8.43097 22.8018 8.31216 23.0632 8.02701 23.0157C7.91937 22.9947 7.83087 22.8658 7.72691 22.7143C7.67404 22.6373 7.61717 22.5545 7.55176 22.4771C7.6208 22.3976 7.6817 22.313 7.73798 22.2348C7.85281 22.0753 7.94842 21.9425 8.05474 21.9345Z" fill="#FFEB61" stroke="#FFEB61" stroke-width="0.2"/>
<path d="M10.2222 21.5638L10.2864 21.4885L10.2117 21.4235C10.1432 21.3638 10.0868 21.3057 10.032 21.2493C10.0029 21.2194 9.97431 21.1899 9.9446 21.1609C9.86774 21.086 9.77595 21.0065 9.66408 20.9918L9.66408 20.9918L9.66383 20.9918C9.55923 20.9783 9.46711 20.987 9.3884 21.0199C9.3086 21.0533 9.24984 21.1085 9.20824 21.1752C9.1285 21.3032 9.11143 21.4745 9.11143 21.6296C9.11143 21.7721 9.13594 21.9332 9.20931 22.0531C9.24702 22.1147 9.29995 22.1689 9.37209 22.2003C9.44484 22.2319 9.52731 22.2359 9.61589 22.2137L9.59163 22.1167L9.61542 22.2138C9.75138 22.1805 9.8516 22.0635 9.93566 21.9507C9.96734 21.9083 9.99775 21.8649 10.0286 21.821C10.0876 21.7369 10.1482 21.6505 10.2222 21.5638Z" fill="#FFEB61" stroke="#FFEB61" stroke-width="0.2"/>
<path d="M9.03722 23.21L9.03222 23.1101C8.9185 23.1158 8.82499 23.1456 8.75187 23.1995C8.67844 23.2536 8.63366 23.3259 8.60747 23.4023C8.55723 23.5489 8.57169 23.7238 8.58529 23.854L8.58528 23.854L8.58545 23.8554C8.5983 23.9633 8.65342 24.0601 8.70666 24.1394C8.72899 24.1727 8.75284 24.2055 8.77494 24.2359C8.7796 24.2423 8.78418 24.2486 8.78866 24.2548C8.81512 24.2914 8.83808 24.3239 8.85642 24.3545L8.89597 24.4204L8.96984 24.3991C9.25475 24.3171 9.40439 24.1726 9.46855 23.9925C9.52548 23.8328 9.50847 23.6582 9.49526 23.5225C9.49456 23.5154 9.49387 23.5083 9.49321 23.5014L9.49327 23.5014L9.49279 23.4977C9.48566 23.4443 9.45802 23.3942 9.42903 23.3541C9.39868 23.3121 9.35997 23.2717 9.31879 23.2367C9.27764 23.2018 9.23145 23.1701 9.18494 23.1472C9.14063 23.1254 9.08576 23.1065 9.03057 23.1102L9.03722 23.21ZM9.03722 23.21C9.15603 23.202 9.37782 23.3921 9.39366 23.5109C9.39415 23.516 9.39464 23.5211 9.39513 23.5262C9.42274 23.8123 9.45581 24.1552 8.94217 24.303C8.91769 24.2622 8.88704 24.22 8.85545 24.1766C8.77974 24.0725 8.69872 23.961 8.68475 23.8436C8.65703 23.5783 8.64118 23.2298 9.03722 23.21Z" fill="#FFEB61" stroke="#FFEB61" stroke-width="0.2"/>
<path d="M37.0783 14.3624L37.1796 14.4857L37.2464 14.3408C37.2923 14.2415 37.336 14.1604 37.3764 14.0855C37.3985 14.0446 37.4195 14.0056 37.4394 13.9664C37.4915 13.8637 37.5368 13.7574 37.5286 13.6461L37.5286 13.6461L37.5286 13.6454C37.5238 13.5857 37.4866 13.5358 37.456 13.5029C37.4219 13.4663 37.3784 13.432 37.3331 13.4031C37.2875 13.3741 37.2367 13.3486 37.1867 13.3312C37.1391 13.3145 37.0832 13.3021 37.0299 13.3084C36.9752 13.3139 36.9228 13.34 36.8804 13.3676C36.8357 13.3968 36.7923 13.4343 36.7549 13.4736C36.7178 13.5127 36.6838 13.5566 36.6598 13.6001C36.639 13.6377 36.6131 13.6971 36.6262 13.7578L36.6263 13.758C36.6501 13.8662 36.7194 13.9572 36.7962 14.045C36.8262 14.0792 36.8572 14.1129 36.8898 14.1483C36.947 14.2105 37.009 14.2779 37.0783 14.3624Z" fill="#FFEB61" stroke="#FFEB61" stroke-width="0.2"/>
</svg>
