<svg width="48" height="48" viewBox="0 0 48 48" fill="none" xmlns="http://www.w3.org/2000/svg">
<mask id="path-1-outside-1_784_3322" maskUnits="userSpaceOnUse" x="0.464844" y="3.93164" width="47" height="40" fill="black">
<rect fill="white" x="0.464844" y="3.93164" width="47" height="40"/>
<path d="M45.1048 16.344C43.5042 13.1127 40.1532 10.8017 36.3891 10.3157C36.1206 9.60218 35.9193 8.81632 35.5372 8.13386C35.1499 7.45141 34.582 6.86718 34.1121 6.26745C33.9262 6.35534 33.8436 6.37085 33.8023 6.42255C32.9968 7.41004 33.0071 7.3997 31.99 6.71208C31.5769 6.43289 31.1638 6.10717 30.4978 6.20023C30.3429 7.27045 30.6475 8.22176 31.1483 9.11102C31.4117 9.5815 31.7628 10.0313 32.1604 10.388C32.6044 10.7861 32.6818 11.2101 32.6044 11.7581C32.2584 14.2398 30.2138 16.4681 27.7354 16.9386C26.553 17.1609 25.3448 17.2178 24.1572 17.4039C20.2227 18.014 17.2073 19.989 15.4002 23.5874C14.2694 25.8364 13.9028 28.2509 14.5327 30.7274C14.8115 31.8183 15.2401 32.873 15.6119 33.938C15.7668 34.3826 15.9681 34.8066 16.1747 35.3081C15.9423 35.4684 15.7616 35.6648 15.5396 35.732C14.2952 36.125 13.0302 36.1974 11.7704 35.7941C10.5157 35.3908 9.64306 34.5894 9.12156 33.3641C8.30059 31.446 8.15602 29.4607 8.58974 27.4547C8.84274 26.2862 9.30745 25.1591 9.736 24.0372C10.0355 23.2513 10.3762 23.0083 10.6809 23.2462C11.1507 23.6081 10.8513 24.0217 10.6964 24.425C10.3659 25.3142 10.0355 26.2035 9.736 27.1031C9.14222 28.9075 9.26097 30.7067 9.85992 32.4852C10.3969 34.0776 11.5277 34.941 13.1954 34.9979C13.6911 35.0134 14.192 34.9462 14.8012 34.91C14.4501 33.938 14.1093 33.1056 13.846 32.2474C12.5758 28.1526 13.2058 24.3578 15.8236 20.9661C17.3054 19.0429 19.2314 17.6883 21.5858 16.9851C21.7924 16.9231 21.9834 16.8145 22.1848 16.7266C20.7184 14.3897 17.3364 12.6422 14.3159 13.3505C9.54496 14.4673 6.31271 17.4143 4.27836 21.7417C2.29047 25.9708 1.88773 30.3603 3.35928 34.8635C4.54685 38.5032 6.91682 40.8453 10.7377 41.5381C12.0285 41.7708 13.34 41.9104 14.6463 41.9724C16.1747 42.05 17.7133 42.0138 19.2469 41.9983C20.6771 41.9827 21.8698 41.4347 22.7631 40.2973C23.0109 39.9819 23.1968 39.5786 23.7648 39.8888C23.7854 40.0646 23.8267 40.2766 23.8267 40.4834C23.8422 41.595 24.2088 41.9879 25.3344 41.9983C27.0848 42.0138 28.8403 42.0034 30.5907 42.0034C31.706 42.0034 32.8264 42.0034 33.9778 42.0034C33.5235 40.5248 32.6354 39.8682 31.1122 39.8061C30.5287 39.7803 29.9453 39.7751 29.3618 39.7544C29.2999 39.7544 29.2431 39.682 29.052 39.558C29.2018 39.2012 29.3257 38.8031 29.5219 38.4464C30.2396 37.1693 30.9057 35.8716 31.1896 34.4188C31.8402 31.1358 29.6923 28.0285 26.4497 27.6149C24.8078 27.4081 23.3672 28.0079 22.0505 28.9437C21.875 29.0677 21.7304 29.2745 21.5342 29.3418C21.3638 29.3986 21.0747 29.378 20.9611 29.2642C20.8475 29.1505 20.8217 28.8713 20.863 28.6903C20.8991 28.5352 21.0643 28.3905 21.2038 28.2767C23.5737 26.4155 26.9144 25.7123 29.7955 27.92C31.7473 29.4193 32.9865 32.5162 32.0054 35.4374C31.6492 36.5024 31.1742 37.5313 30.7198 38.6635C30.9883 38.6997 31.2516 38.7411 31.5201 38.7721C33.3686 38.9737 34.711 40.1577 35.1189 41.9517C35.31 42.7893 35.1396 43.053 34.3083 43.053C31.2774 43.0633 28.2465 43.0478 25.2157 43.0581C24.214 43.0633 23.4911 42.5721 22.887 41.7501C21.4206 42.903 19.7529 43.0736 18.0077 43.0685C15.6687 43.0633 13.3348 43.0426 11.0217 42.6549C6.80322 41.9466 4.00469 39.5993 2.49184 35.5459C0.0444188 28.985 2.06328 20.3923 7.5674 15.5995C9.56044 13.8624 11.8736 12.6991 14.4811 12.2596C17.3054 11.784 19.7219 12.7715 21.7924 14.6793C22.1951 15.0463 22.5669 15.4548 22.9025 15.8891C23.1968 16.2717 23.4911 16.4526 24.0074 16.3751C24.8697 16.2406 25.7578 16.2665 26.6201 16.1321C28.8765 15.7805 30.5442 14.6534 31.3549 12.4251C31.6027 11.7478 31.5872 11.2463 31.0141 10.6672C29.7387 9.3747 29.2224 7.76678 29.5064 5.94173C29.6716 4.90253 29.9091 4.7526 30.8902 5.09899C31.5046 5.31614 32.0932 5.59016 32.6922 5.83832C33.8333 4.89219 33.9159 4.9077 35.0363 5.90554C35.9038 6.68106 36.5234 7.60651 36.89 8.70258C37.0294 9.11619 37.1998 9.40055 37.68 9.48327C40.2823 9.9279 42.3166 11.36 44.0412 13.273C44.6763 13.9761 45.2701 14.7206 45.8277 15.4858C46.4215 16.3027 46.3905 16.5198 45.6986 17.285C45.3836 17.6314 45.0325 17.9468 44.6401 18.3397C44.826 18.5052 44.9706 18.6499 45.1255 18.7792C46.4215 19.8546 46.4679 21.3798 46.5351 22.8688C46.5454 23.0549 46.2098 23.3961 46.0032 23.4271C44.6763 23.6133 43.783 24.4353 42.9104 25.3504C41.7745 26.5395 40.5766 27.6666 39.451 28.8609C38.2376 30.1535 36.3272 30.1845 35.0002 29.5641C34.804 29.471 34.5561 29.3728 34.4632 29.2073C34.3393 28.9902 34.2463 28.6593 34.3238 28.4473C34.4425 28.1113 34.7627 28.132 35.057 28.3129C35.2738 28.4473 35.4907 28.5818 35.7282 28.6748C36.7609 29.0884 37.7367 29.0109 38.5629 28.2095C39.482 27.3202 40.3649 26.3948 41.2788 25.5004C42.4664 24.3371 43.468 22.936 45.27 22.5379C44.5833 21.7779 43.7675 21.5866 42.7555 21.8502C41.981 22.0519 41.4079 22.543 40.8709 23.1066C40.0189 24.0062 39.1567 24.9058 38.2789 25.7847C36.1619 27.9045 32.8884 27.7597 30.8953 26.0897C30.7301 25.9502 30.5236 25.8054 30.4564 25.6244C30.3945 25.4538 30.4203 25.154 30.5339 25.035C30.6423 24.9213 30.9418 24.8954 31.1122 24.9575C31.3394 25.0454 31.5201 25.2522 31.7266 25.4021C33.5493 26.7257 35.7747 26.6223 37.4424 25.0971C38.1705 24.4353 38.8314 23.7011 39.5181 22.9877C41.6299 20.7955 42.3166 20.537 45.1874 20.8627C44.8002 19.4978 43.4732 18.6396 42.0326 18.8516C40.9122 19.017 39.9673 19.5185 39.1773 20.3457C38.0207 21.5555 35.6869 21.4728 34.5871 20.1855C34.4735 20.0562 34.4219 19.715 34.5097 19.6116C34.6439 19.4565 34.9589 19.3065 35.1293 19.3634C35.5372 19.503 35.8883 19.8029 36.291 19.9683C37.334 20.3871 37.7006 20.3767 38.439 19.6116C39.6265 18.3759 41.0877 17.709 42.8536 17.8175C43.6643 17.8641 44.1135 17.5332 45.1048 16.344Z"/>
</mask>
<path d="M45.1048 16.344C43.5042 13.1127 40.1532 10.8017 36.3891 10.3157C36.1206 9.60218 35.9193 8.81632 35.5372 8.13386C35.1499 7.45141 34.582 6.86718 34.1121 6.26745C33.9262 6.35534 33.8436 6.37085 33.8023 6.42255C32.9968 7.41004 33.0071 7.3997 31.99 6.71208C31.5769 6.43289 31.1638 6.10717 30.4978 6.20023C30.3429 7.27045 30.6475 8.22176 31.1483 9.11102C31.4117 9.5815 31.7628 10.0313 32.1604 10.388C32.6044 10.7861 32.6818 11.2101 32.6044 11.7581C32.2584 14.2398 30.2138 16.4681 27.7354 16.9386C26.553 17.1609 25.3448 17.2178 24.1572 17.4039C20.2227 18.014 17.2073 19.989 15.4002 23.5874C14.2694 25.8364 13.9028 28.2509 14.5327 30.7274C14.8115 31.8183 15.2401 32.873 15.6119 33.938C15.7668 34.3826 15.9681 34.8066 16.1747 35.3081C15.9423 35.4684 15.7616 35.6648 15.5396 35.732C14.2952 36.125 13.0302 36.1974 11.7704 35.7941C10.5157 35.3908 9.64306 34.5894 9.12156 33.3641C8.30059 31.446 8.15602 29.4607 8.58974 27.4547C8.84274 26.2862 9.30745 25.1591 9.736 24.0372C10.0355 23.2513 10.3762 23.0083 10.6809 23.2462C11.1507 23.6081 10.8513 24.0217 10.6964 24.425C10.3659 25.3142 10.0355 26.2035 9.736 27.1031C9.14222 28.9075 9.26097 30.7067 9.85992 32.4852C10.3969 34.0776 11.5277 34.941 13.1954 34.9979C13.6911 35.0134 14.192 34.9462 14.8012 34.91C14.4501 33.938 14.1093 33.1056 13.846 32.2474C12.5758 28.1526 13.2058 24.3578 15.8236 20.9661C17.3054 19.0429 19.2314 17.6883 21.5858 16.9851C21.7924 16.9231 21.9834 16.8145 22.1848 16.7266C20.7184 14.3897 17.3364 12.6422 14.3159 13.3505C9.54496 14.4673 6.31271 17.4143 4.27836 21.7417C2.29047 25.9708 1.88773 30.3603 3.35928 34.8635C4.54685 38.5032 6.91682 40.8453 10.7377 41.5381C12.0285 41.7708 13.34 41.9104 14.6463 41.9724C16.1747 42.05 17.7133 42.0138 19.2469 41.9983C20.6771 41.9827 21.8698 41.4347 22.7631 40.2973C23.0109 39.9819 23.1968 39.5786 23.7648 39.8888C23.7854 40.0646 23.8267 40.2766 23.8267 40.4834C23.8422 41.595 24.2088 41.9879 25.3344 41.9983C27.0848 42.0138 28.8403 42.0034 30.5907 42.0034C31.706 42.0034 32.8264 42.0034 33.9778 42.0034C33.5235 40.5248 32.6354 39.8682 31.1122 39.8061C30.5287 39.7803 29.9453 39.7751 29.3618 39.7544C29.2999 39.7544 29.2431 39.682 29.052 39.558C29.2018 39.2012 29.3257 38.8031 29.5219 38.4464C30.2396 37.1693 30.9057 35.8716 31.1896 34.4188C31.8402 31.1358 29.6923 28.0285 26.4497 27.6149C24.8078 27.4081 23.3672 28.0079 22.0505 28.9437C21.875 29.0677 21.7304 29.2745 21.5342 29.3418C21.3638 29.3986 21.0747 29.378 20.9611 29.2642C20.8475 29.1505 20.8217 28.8713 20.863 28.6903C20.8991 28.5352 21.0643 28.3905 21.2038 28.2767C23.5737 26.4155 26.9144 25.7123 29.7955 27.92C31.7473 29.4193 32.9865 32.5162 32.0054 35.4374C31.6492 36.5024 31.1742 37.5313 30.7198 38.6635C30.9883 38.6997 31.2516 38.7411 31.5201 38.7721C33.3686 38.9737 34.711 40.1577 35.1189 41.9517C35.31 42.7893 35.1396 43.053 34.3083 43.053C31.2774 43.0633 28.2465 43.0478 25.2157 43.0581C24.214 43.0633 23.4911 42.5721 22.887 41.7501C21.4206 42.903 19.7529 43.0736 18.0077 43.0685C15.6687 43.0633 13.3348 43.0426 11.0217 42.6549C6.80322 41.9466 4.00469 39.5993 2.49184 35.5459C0.0444188 28.985 2.06328 20.3923 7.5674 15.5995C9.56044 13.8624 11.8736 12.6991 14.4811 12.2596C17.3054 11.784 19.7219 12.7715 21.7924 14.6793C22.1951 15.0463 22.5669 15.4548 22.9025 15.8891C23.1968 16.2717 23.4911 16.4526 24.0074 16.3751C24.8697 16.2406 25.7578 16.2665 26.6201 16.1321C28.8765 15.7805 30.5442 14.6534 31.3549 12.4251C31.6027 11.7478 31.5872 11.2463 31.0141 10.6672C29.7387 9.3747 29.2224 7.76678 29.5064 5.94173C29.6716 4.90253 29.9091 4.7526 30.8902 5.09899C31.5046 5.31614 32.0932 5.59016 32.6922 5.83832C33.8333 4.89219 33.9159 4.9077 35.0363 5.90554C35.9038 6.68106 36.5234 7.60651 36.89 8.70258C37.0294 9.11619 37.1998 9.40055 37.68 9.48327C40.2823 9.9279 42.3166 11.36 44.0412 13.273C44.6763 13.9761 45.2701 14.7206 45.8277 15.4858C46.4215 16.3027 46.3905 16.5198 45.6986 17.285C45.3836 17.6314 45.0325 17.9468 44.6401 18.3397C44.826 18.5052 44.9706 18.6499 45.1255 18.7792C46.4215 19.8546 46.4679 21.3798 46.5351 22.8688C46.5454 23.0549 46.2098 23.3961 46.0032 23.4271C44.6763 23.6133 43.783 24.4353 42.9104 25.3504C41.7745 26.5395 40.5766 27.6666 39.451 28.8609C38.2376 30.1535 36.3272 30.1845 35.0002 29.5641C34.804 29.471 34.5561 29.3728 34.4632 29.2073C34.3393 28.9902 34.2463 28.6593 34.3238 28.4473C34.4425 28.1113 34.7627 28.132 35.057 28.3129C35.2738 28.4473 35.4907 28.5818 35.7282 28.6748C36.7609 29.0884 37.7367 29.0109 38.5629 28.2095C39.482 27.3202 40.3649 26.3948 41.2788 25.5004C42.4664 24.3371 43.468 22.936 45.27 22.5379C44.5833 21.7779 43.7675 21.5866 42.7555 21.8502C41.981 22.0519 41.4079 22.543 40.8709 23.1066C40.0189 24.0062 39.1567 24.9058 38.2789 25.7847C36.1619 27.9045 32.8884 27.7597 30.8953 26.0897C30.7301 25.9502 30.5236 25.8054 30.4564 25.6244C30.3945 25.4538 30.4203 25.154 30.5339 25.035C30.6423 24.9213 30.9418 24.8954 31.1122 24.9575C31.3394 25.0454 31.5201 25.2522 31.7266 25.4021C33.5493 26.7257 35.7747 26.6223 37.4424 25.0971C38.1705 24.4353 38.8314 23.7011 39.5181 22.9877C41.6299 20.7955 42.3166 20.537 45.1874 20.8627C44.8002 19.4978 43.4732 18.6396 42.0326 18.8516C40.9122 19.017 39.9673 19.5185 39.1773 20.3457C38.0207 21.5555 35.6869 21.4728 34.5871 20.1855C34.4735 20.0562 34.4219 19.715 34.5097 19.6116C34.6439 19.4565 34.9589 19.3065 35.1293 19.3634C35.5372 19.503 35.8883 19.8029 36.291 19.9683C37.334 20.3871 37.7006 20.3767 38.439 19.6116C39.6265 18.3759 41.0877 17.709 42.8536 17.8175C43.6643 17.8641 44.1135 17.5332 45.1048 16.344Z" fill="#FFEB61"/>
<path d="M45.1048 16.344C43.5042 13.1127 40.1532 10.8017 36.3891 10.3157C36.1206 9.60218 35.9193 8.81632 35.5372 8.13386C35.1499 7.45141 34.582 6.86718 34.1121 6.26745C33.9262 6.35534 33.8436 6.37085 33.8023 6.42255C32.9968 7.41004 33.0071 7.3997 31.99 6.71208C31.5769 6.43289 31.1638 6.10717 30.4978 6.20023C30.3429 7.27045 30.6475 8.22176 31.1483 9.11102C31.4117 9.5815 31.7628 10.0313 32.1604 10.388C32.6044 10.7861 32.6818 11.2101 32.6044 11.7581C32.2584 14.2398 30.2138 16.4681 27.7354 16.9386C26.553 17.1609 25.3448 17.2178 24.1572 17.4039C20.2227 18.014 17.2073 19.989 15.4002 23.5874C14.2694 25.8364 13.9028 28.2509 14.5327 30.7274C14.8115 31.8183 15.2401 32.873 15.6119 33.938C15.7668 34.3826 15.9681 34.8066 16.1747 35.3081C15.9423 35.4684 15.7616 35.6648 15.5396 35.732C14.2952 36.125 13.0302 36.1974 11.7704 35.7941C10.5157 35.3908 9.64306 34.5894 9.12156 33.3641C8.30059 31.446 8.15602 29.4607 8.58974 27.4547C8.84274 26.2862 9.30745 25.1591 9.736 24.0372C10.0355 23.2513 10.3762 23.0083 10.6809 23.2462C11.1507 23.6081 10.8513 24.0217 10.6964 24.425C10.3659 25.3142 10.0355 26.2035 9.736 27.1031C9.14222 28.9075 9.26097 30.7067 9.85992 32.4852C10.3969 34.0776 11.5277 34.941 13.1954 34.9979C13.6911 35.0134 14.192 34.9462 14.8012 34.91C14.4501 33.938 14.1093 33.1056 13.846 32.2474C12.5758 28.1526 13.2058 24.3578 15.8236 20.9661C17.3054 19.0429 19.2314 17.6883 21.5858 16.9851C21.7924 16.9231 21.9834 16.8145 22.1848 16.7266C20.7184 14.3897 17.3364 12.6422 14.3159 13.3505C9.54496 14.4673 6.31271 17.4143 4.27836 21.7417C2.29047 25.9708 1.88773 30.3603 3.35928 34.8635C4.54685 38.5032 6.91682 40.8453 10.7377 41.5381C12.0285 41.7708 13.34 41.9104 14.6463 41.9724C16.1747 42.05 17.7133 42.0138 19.2469 41.9983C20.6771 41.9827 21.8698 41.4347 22.7631 40.2973C23.0109 39.9819 23.1968 39.5786 23.7648 39.8888C23.7854 40.0646 23.8267 40.2766 23.8267 40.4834C23.8422 41.595 24.2088 41.9879 25.3344 41.9983C27.0848 42.0138 28.8403 42.0034 30.5907 42.0034C31.706 42.0034 32.8264 42.0034 33.9778 42.0034C33.5235 40.5248 32.6354 39.8682 31.1122 39.8061C30.5287 39.7803 29.9453 39.7751 29.3618 39.7544C29.2999 39.7544 29.2431 39.682 29.052 39.558C29.2018 39.2012 29.3257 38.8031 29.5219 38.4464C30.2396 37.1693 30.9057 35.8716 31.1896 34.4188C31.8402 31.1358 29.6923 28.0285 26.4497 27.6149C24.8078 27.4081 23.3672 28.0079 22.0505 28.9437C21.875 29.0677 21.7304 29.2745 21.5342 29.3418C21.3638 29.3986 21.0747 29.378 20.9611 29.2642C20.8475 29.1505 20.8217 28.8713 20.863 28.6903C20.8991 28.5352 21.0643 28.3905 21.2038 28.2767C23.5737 26.4155 26.9144 25.7123 29.7955 27.92C31.7473 29.4193 32.9865 32.5162 32.0054 35.4374C31.6492 36.5024 31.1742 37.5313 30.7198 38.6635C30.9883 38.6997 31.2516 38.7411 31.5201 38.7721C33.3686 38.9737 34.711 40.1577 35.1189 41.9517C35.31 42.7893 35.1396 43.053 34.3083 43.053C31.2774 43.0633 28.2465 43.0478 25.2157 43.0581C24.214 43.0633 23.4911 42.5721 22.887 41.7501C21.4206 42.903 19.7529 43.0736 18.0077 43.0685C15.6687 43.0633 13.3348 43.0426 11.0217 42.6549C6.80322 41.9466 4.00469 39.5993 2.49184 35.5459C0.0444188 28.985 2.06328 20.3923 7.5674 15.5995C9.56044 13.8624 11.8736 12.6991 14.4811 12.2596C17.3054 11.784 19.7219 12.7715 21.7924 14.6793C22.1951 15.0463 22.5669 15.4548 22.9025 15.8891C23.1968 16.2717 23.4911 16.4526 24.0074 16.3751C24.8697 16.2406 25.7578 16.2665 26.6201 16.1321C28.8765 15.7805 30.5442 14.6534 31.3549 12.4251C31.6027 11.7478 31.5872 11.2463 31.0141 10.6672C29.7387 9.3747 29.2224 7.76678 29.5064 5.94173C29.6716 4.90253 29.9091 4.7526 30.8902 5.09899C31.5046 5.31614 32.0932 5.59016 32.6922 5.83832C33.8333 4.89219 33.9159 4.9077 35.0363 5.90554C35.9038 6.68106 36.5234 7.60651 36.89 8.70258C37.0294 9.11619 37.1998 9.40055 37.68 9.48327C40.2823 9.9279 42.3166 11.36 44.0412 13.273C44.6763 13.9761 45.2701 14.7206 45.8277 15.4858C46.4215 16.3027 46.3905 16.5198 45.6986 17.285C45.3836 17.6314 45.0325 17.9468 44.6401 18.3397C44.826 18.5052 44.9706 18.6499 45.1255 18.7792C46.4215 19.8546 46.4679 21.3798 46.5351 22.8688C46.5454 23.0549 46.2098 23.3961 46.0032 23.4271C44.6763 23.6133 43.783 24.4353 42.9104 25.3504C41.7745 26.5395 40.5766 27.6666 39.451 28.8609C38.2376 30.1535 36.3272 30.1845 35.0002 29.5641C34.804 29.471 34.5561 29.3728 34.4632 29.2073C34.3393 28.9902 34.2463 28.6593 34.3238 28.4473C34.4425 28.1113 34.7627 28.132 35.057 28.3129C35.2738 28.4473 35.4907 28.5818 35.7282 28.6748C36.7609 29.0884 37.7367 29.0109 38.5629 28.2095C39.482 27.3202 40.3649 26.3948 41.2788 25.5004C42.4664 24.3371 43.468 22.936 45.27 22.5379C44.5833 21.7779 43.7675 21.5866 42.7555 21.8502C41.981 22.0519 41.4079 22.543 40.8709 23.1066C40.0189 24.0062 39.1567 24.9058 38.2789 25.7847C36.1619 27.9045 32.8884 27.7597 30.8953 26.0897C30.7301 25.9502 30.5236 25.8054 30.4564 25.6244C30.3945 25.4538 30.4203 25.154 30.5339 25.035C30.6423 24.9213 30.9418 24.8954 31.1122 24.9575C31.3394 25.0454 31.5201 25.2522 31.7266 25.4021C33.5493 26.7257 35.7747 26.6223 37.4424 25.0971C38.1705 24.4353 38.8314 23.7011 39.5181 22.9877C41.6299 20.7955 42.3166 20.537 45.1874 20.8627C44.8002 19.4978 43.4732 18.6396 42.0326 18.8516C40.9122 19.017 39.9673 19.5185 39.1773 20.3457C38.0207 21.5555 35.6869 21.4728 34.5871 20.1855C34.4735 20.0562 34.4219 19.715 34.5097 19.6116C34.6439 19.4565 34.9589 19.3065 35.1293 19.3634C35.5372 19.503 35.8883 19.8029 36.291 19.9683C37.334 20.3871 37.7006 20.3767 38.439 19.6116C39.6265 18.3759 41.0877 17.709 42.8536 17.8175C43.6643 17.8641 44.1135 17.5332 45.1048 16.344Z" stroke="#FFEB61" stroke-width="0.4" mask="url(#path-1-outside-1_784_3322)"/>
<path d="M37.7363 12.7335C36.751 12.7337 36.0088 13.4469 36.0308 14.3921L36.0309 14.3921L37.7779 15.9356L37.7785 16.0356C37.7785 16.0356 37.7785 16.0356 37.7785 16.0356C38.7697 16.0301 39.4902 15.3317 39.4682 14.3668C39.4462 13.4047 38.7276 12.7282 37.7363 12.7335ZM37.7363 12.7335C37.7364 12.7335 37.7365 12.7335 37.7366 12.7335V12.8335L37.7361 12.7335C37.7362 12.7335 37.7362 12.7335 37.7363 12.7335ZM37.6832 13.9413L37.6833 13.9413C37.7681 13.9339 37.8687 13.9723 38.0213 14.0581C38.0682 14.0845 38.1199 14.1153 38.1763 14.1489C38.2583 14.1978 38.35 14.2524 38.4505 14.3075C38.3641 14.3867 38.2885 14.4612 38.2219 14.527C38.1836 14.5648 38.1483 14.5996 38.1156 14.6307C37.9982 14.7425 37.9169 14.8037 37.8363 14.8252C37.6867 14.8601 37.5476 14.8301 37.4508 14.7585C37.3557 14.6882 37.294 14.5729 37.3045 14.4175C37.3102 14.3417 37.3674 14.2231 37.4552 14.1157C37.4975 14.0638 37.5431 14.0195 37.5862 13.988C37.6311 13.9553 37.6644 13.943 37.6832 13.9413Z" fill="#FFEB61" stroke="#FFEB61" stroke-width="0.2"/>
</svg>
