<svg width="48" height="48" viewBox="0 0 48 48" fill="none" xmlns="http://www.w3.org/2000/svg">
<path d="M23.4891 26.0612C24.0917 25.9809 24.3722 26.2366 24.625 26.635C24.6388 26.4982 24.6492 26.4209 24.6492 26.3436C24.6492 25.5587 24.6492 24.7738 24.6492 23.9888C24.6492 23.5161 24.6458 23.528 24.1367 23.3823C23.6831 23.2545 23.2363 23.1088 22.7965 22.9512C22.6753 22.9096 22.5922 22.7936 22.4918 22.7134C22.6165 22.6569 22.7377 22.5736 22.8692 22.5498C23.3021 22.4725 23.7419 22.416 24.2406 22.3417C24.0501 22.0117 23.8874 21.7203 23.7177 21.4319C23.6277 21.2773 23.5064 21.1346 23.4303 20.977C23.3783 20.87 23.3852 20.7451 23.3645 20.6291C23.503 20.65 23.645 20.6589 23.7766 20.6946C23.9566 20.7481 24.1298 20.8165 24.2995 20.8878C24.5592 20.9978 24.6977 20.9057 24.7116 20.6856C24.7358 20.198 24.7393 19.7104 24.7427 19.2199C24.7427 19.095 24.7046 18.9701 24.6735 18.7977C24.528 18.8839 24.4172 18.9582 24.296 19.0236C23.9843 19.1931 23.6796 19.3774 23.3506 19.5172C23.2502 19.5618 23.0805 19.4874 22.942 19.4696C22.9835 19.3745 23.0147 19.2704 23.0736 19.1842C23.3679 18.7352 23.6692 18.2922 23.9843 17.8254C23.3956 17.9087 22.8762 17.986 22.3567 18.0514C21.4875 18.1614 20.6391 18.0603 19.8183 17.8076C19.6937 17.7689 19.6106 17.6381 19.5101 17.5489C19.6348 17.4835 19.7595 17.3705 19.8876 17.3646C20.6148 17.3259 21.2797 17.1475 21.9204 16.7372C21.768 16.6837 21.6607 16.6481 21.5533 16.6094C19.4409 15.8512 17.6782 14.7333 16.5146 13C16.4454 12.8989 16.3934 12.7859 16.3415 12.6789C16.2757 12.5421 16.2411 12.3875 16.4454 12.3369C16.5285 12.3161 16.6878 12.4113 16.7536 12.4886C17.0756 12.8721 17.4635 13.1873 18.0107 13.4251C17.9622 13.3121 17.9379 13.2408 17.9033 13.1694C17.7994 12.9494 17.6436 12.7383 17.602 12.5094C17.4462 11.6115 16.764 10.9752 16.1649 10.2973C16.0506 10.1665 15.9467 10.0327 16.1164 9.93163C16.1926 9.88406 16.4177 9.95244 16.525 10.0238C16.712 10.1487 16.8609 10.3181 17.0479 10.4549C16.8575 9.82757 16.6081 9.22104 16.1891 8.68289C15.8497 8.24583 15.448 7.8385 15.0602 7.42821C14.9528 7.31522 14.8593 7.20819 15.0117 7.1071C15.0913 7.05358 15.2749 7.04169 15.3649 7.08332C16.2722 7.52335 16.9441 8.17745 17.5293 8.90291C17.5639 8.9475 17.5951 8.99507 17.6609 9.08724C17.6782 8.97724 17.699 8.91183 17.699 8.84939C17.6782 8.18934 17.5258 7.56497 17.0099 7.04169C16.906 6.93763 16.7259 6.81276 16.9371 6.67896C17.131 6.55706 17.2938 6.64626 17.415 6.80384C17.4289 6.82465 17.4531 6.83952 17.4739 6.85735C17.5016 6.84546 17.5293 6.83357 17.557 6.82168C17.3527 6.45895 17.1553 6.09325 16.9441 5.73349C16.8644 5.59672 16.7328 5.4778 16.6636 5.33806C16.6185 5.24291 16.6428 5.12399 16.6358 5.01398C16.7605 5.03479 16.899 5.02885 17.0064 5.07939C17.1345 5.13885 17.2453 5.23102 17.3423 5.32616C17.7856 5.7662 18.2219 6.21217 18.6998 6.6522C18.5959 6.42624 18.4886 6.20325 18.3847 5.97729C18.2808 5.74836 18.163 5.52239 18.0799 5.28751C18.0522 5.21021 18.0868 5.04966 18.1457 5.02885C18.2358 4.99614 18.4193 5.00803 18.4782 5.0675C18.8487 5.42725 19.1985 5.80485 19.5448 6.17947C19.6348 6.27758 19.7006 6.38759 19.8253 6.56004C19.7283 5.69781 19.434 4.96344 19.0946 4.23798C19.0253 4.08932 18.8348 3.89606 19.0807 3.78605C19.1742 3.74443 19.4443 3.8693 19.5413 3.97634C19.943 4.41637 20.3101 4.87721 20.6945 5.33508C20.5386 4.86829 20.3794 4.38069 20.2097 3.89606C20.1612 3.75632 20.0608 3.62847 20.0261 3.48874C20.0019 3.39062 20.0538 3.27764 20.0711 3.1706C20.1924 3.20331 20.3586 3.20628 20.4278 3.27764C20.6114 3.46198 20.788 3.66713 20.9092 3.88417C21.1793 4.35988 21.4148 4.84748 21.6607 5.32914C21.7091 5.42428 21.7472 5.52537 21.8303 5.61456C21.8719 4.88019 21.9169 4.14878 21.484 3.4709C21.4183 3.36683 21.252 3.23304 21.4737 3.12006C21.678 3.016 21.8303 3.12303 21.9273 3.2598C22.2528 3.71767 22.5645 4.18149 22.8796 4.6453C22.9247 4.71071 22.9558 4.78504 23.0216 4.84748C23.122 4.28852 23.2883 3.73848 23.0597 3.17655C23.0286 3.09925 22.9731 3.016 22.987 2.94167C23.0043 2.84653 23.0563 2.72463 23.1394 2.68003C23.1913 2.6503 23.3714 2.71571 23.4233 2.78112C23.5272 2.90302 23.6069 3.05168 23.6554 3.19736C23.8805 3.90795 24.0882 4.62152 24.3133 5.37671C24.3618 5.27859 24.4276 5.19832 24.4449 5.11209C24.5696 4.48475 24.6908 3.85741 24.8016 3.22709C24.8397 3.01897 24.8466 2.81085 24.8778 2.60273C24.9055 2.40947 24.9332 2.19243 25.231 2.18945C25.5115 2.18945 25.5531 2.39758 25.5739 2.58191C25.6431 3.1706 25.6812 3.76524 25.7678 4.35096C25.8163 4.68693 25.9375 5.01695 26.0275 5.34698C26.0621 5.344 26.0933 5.34103 26.1279 5.33806C26.2665 4.86829 26.3946 4.39853 26.5435 3.93471C26.6578 3.57496 26.779 3.2152 26.9383 2.86734C26.9833 2.7722 27.1738 2.65327 27.2811 2.66516C27.5028 2.68598 27.4231 2.86734 27.4127 2.99816C27.3677 3.64037 27.3261 4.28258 27.2811 4.92181C27.3227 4.92776 27.3642 4.9337 27.4058 4.93965C27.4404 4.88019 27.4716 4.8237 27.5062 4.76423C27.7417 4.36582 27.9633 3.96444 28.2161 3.57496C28.3166 3.42035 28.4724 3.28061 28.6351 3.16763C28.7287 3.10222 28.8914 3.10519 29.0195 3.07844C29.0161 3.18844 29.0576 3.32224 28.9988 3.40251C28.5382 4.02688 28.5624 4.71963 28.5763 5.41536C28.5763 5.46888 28.5867 5.52537 28.6005 5.57888C28.6075 5.60267 28.6282 5.62646 28.6559 5.66808C28.888 5.18642 29.0923 4.71071 29.3416 4.25582C29.5251 3.91985 29.7502 3.59874 29.9961 3.28953C30.0654 3.20331 30.2558 3.18547 30.3909 3.1379C30.4047 3.25683 30.4567 3.38765 30.4221 3.49765C30.2489 4.03877 30.055 4.57395 29.868 5.11209C29.8992 5.12399 29.9338 5.13588 29.965 5.1448C30.0204 5.06452 30.0723 4.98127 30.1381 4.90397C30.4498 4.53827 30.7649 4.16959 31.087 3.81281C31.1909 3.69686 31.3536 3.57793 31.5094 3.72362C31.5718 3.78308 31.551 3.95553 31.5025 4.05067C31.1424 4.7345 30.7961 5.41833 30.7199 6.17649C30.713 6.26569 30.706 6.35191 30.7649 6.46787C30.8203 6.39056 30.8653 6.30731 30.9277 6.23299C31.2359 5.86431 31.5268 5.48077 31.8661 5.13588C31.97 5.02884 32.209 5.01695 32.3821 4.96046C32.3821 5.11507 32.4237 5.27859 32.3752 5.41833C32.2436 5.78403 32.0705 6.13784 31.9215 6.49463C31.8938 6.56004 31.8938 6.63437 31.9181 6.71464C32.1155 6.45895 32.2921 6.19433 32.5103 5.95351C32.7527 5.68889 33.0228 5.44509 33.2929 5.19832C33.3725 5.12696 33.473 5.05263 33.5769 5.03182C33.6738 5.01101 33.7985 5.04074 33.8955 5.07642C33.9162 5.08534 33.892 5.22508 33.8574 5.29049C33.6184 5.72457 33.3656 6.15568 33.1232 6.58977C33.0886 6.64923 33.0747 6.72059 33.0332 6.83654C33.2825 6.71167 33.4626 6.44111 33.7292 6.77411C33.144 7.42523 32.7146 8.1388 32.8912 9.0694C32.9639 8.97723 33.0089 8.92669 33.0436 8.8702C33.4799 8.21907 34.0478 7.67201 34.7681 7.24684C34.8824 7.17846 35.0002 7.09818 35.1283 7.07737C35.2772 7.05061 35.4919 7.03277 35.5785 7.10413C35.7586 7.24684 35.5577 7.35982 35.44 7.45496C34.4738 8.2488 33.8851 9.22104 33.5561 10.3211C33.5457 10.3538 33.5526 10.3925 33.6011 10.4609C33.6842 10.3687 33.7673 10.2765 33.8539 10.1843C33.9405 10.0922 34.0132 9.97623 34.1275 9.92271C34.2244 9.87811 34.3699 9.90487 34.4946 9.9019C34.4876 10 34.5257 10.1219 34.4703 10.1933C34.2002 10.5322 33.9197 10.8652 33.6219 11.1833C33.3275 11.4955 33.144 11.8315 33.0539 12.2329C32.9674 12.6253 32.77 13.0029 32.6557 13.44C32.957 13.214 33.2652 12.991 33.5595 12.7591C33.6981 12.6491 33.802 12.5005 33.9474 12.3964C34.0236 12.3429 34.1552 12.3488 34.2625 12.328C34.2764 12.4172 34.3387 12.5272 34.3006 12.5956C34.124 12.9048 33.9439 13.217 33.7188 13.5054C32.8981 14.5579 31.783 15.3369 30.5156 15.9583C29.9303 16.2437 29.3174 16.4845 28.694 16.7551C29.0819 16.99 29.539 17.1594 30.0342 17.2546C30.242 17.2932 30.4602 17.2903 30.661 17.3408C30.7857 17.3735 30.8896 17.4776 31.0004 17.5489C30.9034 17.6322 30.8238 17.7541 30.706 17.7927C29.6013 18.1584 28.4759 18.2179 27.3331 17.9295C27.0422 17.8552 26.7513 17.7779 26.4258 17.6916C26.3323 18.4112 26.2388 19.1128 26.1522 19.8175C26.1141 20.1356 26.0968 20.4537 26.0656 20.7719C26.0414 21.0127 26.1764 21.1138 26.4431 21.087C26.7894 21.0543 27.1357 20.9919 27.482 20.974C27.6205 20.9681 27.7625 21.0454 27.9045 21.084C27.8421 21.2 27.811 21.3397 27.714 21.426C27.5824 21.5419 27.4127 21.6311 27.243 21.7025C26.3703 22.0711 25.9721 22.7104 25.8994 23.5012C25.8474 24.0899 25.8855 24.6816 25.8786 25.2733C25.8717 26.1206 25.8682 26.968 25.8509 27.8183C25.837 28.3446 25.799 28.8708 25.7712 29.3971C25.8093 29.4 25.844 29.409 25.8474 29.403C26.1453 28.966 26.4638 28.5378 26.7236 28.0829C26.8898 27.7915 26.824 27.4942 26.4881 27.2802C26.4361 27.2475 26.3807 27.2118 26.353 27.1642C26.2942 27.0691 26.2561 26.965 26.2076 26.8639C26.3426 26.855 26.4985 26.8045 26.6128 26.8431C27.2015 27.0453 27.5339 27.6845 27.243 28.1602C26.8344 28.8262 26.353 29.4625 25.8959 30.1077C25.844 30.182 25.7574 30.2474 25.6743 30.3039C25.4804 30.4377 25.3245 30.3871 25.2726 30.1909C25.2276 30.0333 25.2241 29.8668 25.2276 29.7033C25.2622 27.9432 25.2934 26.186 25.3522 24.4259C25.3695 23.8907 25.4215 23.3526 25.5427 22.8293C25.6639 22.3001 26.024 21.866 26.5608 21.527C26.45 21.5211 26.3426 21.5152 26.2318 21.5062C25.7089 21.4706 25.515 21.3189 25.5323 20.87C25.5531 20.3616 25.6189 19.8531 25.6812 19.3447C25.747 18.8096 25.8197 18.2744 25.9167 17.7452C25.9583 17.5222 25.8163 17.4389 25.6397 17.3438C25.4492 17.2397 25.2587 17.1565 25.0544 17.2962C24.8986 17.4032 24.7323 17.5162 24.6319 17.6589C24.4137 17.9681 24.2371 18.2952 24.0155 18.6579C24.2718 18.5331 24.4692 18.426 24.6769 18.3338C24.8674 18.2506 25.0302 18.3041 25.0752 18.4766C25.2934 19.315 25.5081 20.1564 25.1306 21.0008C24.9574 21.3873 24.7878 21.4557 24.2856 21.4022C24.4034 21.6222 24.5176 21.8214 24.6215 22.0236C24.8847 22.5379 24.8051 22.6688 24.1575 22.7966C24.0952 22.8085 24.0363 22.8234 23.9739 22.8828C24.1021 22.9036 24.2302 22.9244 24.3549 22.9482C24.8986 23.0553 25.1202 23.2664 25.1237 23.745C25.1341 24.6281 25.1375 25.5141 25.1133 26.4001C25.0821 27.6667 25.0336 28.9333 24.9817 30.1998C24.9574 30.8004 24.9263 31.404 24.8536 31.9986C24.8328 32.174 24.6873 32.3643 24.5419 32.4981C24.4138 32.617 24.2371 32.5724 24.1125 32.4208C23.5688 31.7518 23.1047 31.0472 22.8589 30.2533C22.6511 29.5755 22.7758 28.9362 23.2536 28.3565C22.9731 28.3267 22.6996 28.3208 22.4398 28.2673C21.9723 28.1721 21.8026 27.9908 21.768 27.5805C21.7265 27.1107 21.8823 26.6796 22.1489 26.2723C22.1905 26.2128 22.2286 26.1504 22.2944 26.0522C21.7853 26.1741 21.3144 26.2544 20.8572 25.9541C20.8919 26.0403 20.9265 26.1266 20.9611 26.2098C21.7923 28.1513 22.5853 30.1047 23.4718 32.0254C24.0086 33.1849 23.7281 34.1958 23.0182 35.1888C22.9627 35.2661 22.9039 35.3434 22.8485 35.4207C22.845 35.4267 22.8485 35.4386 22.8485 35.4951C23.1463 35.3761 23.4233 35.2602 23.7038 35.1532C24.2198 34.954 24.5523 35.0937 24.6631 35.5694C25.1791 37.7993 25.5392 40.047 25.6916 42.3126C25.7435 43.1005 25.6258 43.8943 25.5739 44.6852C25.5669 44.7803 25.5184 44.8844 25.4561 44.9617C25.2656 45.1877 25.0128 45.2055 24.8293 44.9766C24.2648 44.2719 23.7073 43.5584 23.174 42.8359C23.0493 42.6664 22.987 42.4464 22.9558 42.2442C22.9247 42.042 22.9731 41.8339 22.987 41.605C22.89 41.6228 22.8104 41.6347 22.7342 41.6525C22.1247 41.7953 21.8442 41.7179 21.6226 41.2125C21.4529 40.829 21.4079 40.4008 21.3144 39.9935C21.2936 39.9103 21.297 39.8211 21.2867 39.6843C21.0546 39.8627 20.878 40.0143 20.6806 40.1451C20.1335 40.5019 19.7629 40.4841 19.2781 40.0678C19.098 39.9132 18.9387 39.7408 18.7968 39.5594C18.6548 39.381 18.5474 39.1818 18.4228 38.9945C18.395 38.9975 18.3639 38.9945 18.357 39.0034C17.9483 39.5564 17.9345 39.5564 17.2592 39.2591C16.6081 38.9737 15.9432 38.7061 15.2922 38.4237C15.1156 38.3464 14.9563 38.2423 14.745 38.1769C14.7866 38.2423 14.8212 38.3107 14.8697 38.3701C15.3164 38.9142 15.7528 39.4672 16.4004 39.8597C16.6635 40.0203 16.5008 40.1838 16.383 40.3235C16.3138 40.4038 16.1857 40.4484 16.0437 40.5346C16.7813 40.7071 17.4046 40.8498 18.021 40.9984C18.163 41.0341 18.3016 41.0817 18.4401 41.1322C19.1327 41.385 19.2296 41.5515 19.0392 42.152C19.3785 42.1283 19.7179 42.0777 20.0573 42.0807C20.8399 42.0866 21.0789 42.3185 21.0339 42.9875C21.0304 43.0559 21.0339 43.1272 21.0339 43.2016C21.3248 42.9905 21.6053 42.7913 21.9342 42.5504C21.4356 42.2145 20.9577 41.819 20.4071 41.5306C19.285 40.942 18.1215 40.4097 16.9787 39.8567C16.8506 39.7943 16.7086 39.7408 16.6047 39.6546C16.5423 39.601 16.5042 39.4732 16.5389 39.4137C16.57 39.3602 16.712 39.3335 16.809 39.3305C16.8886 39.3275 16.9718 39.3662 17.0479 39.3959C19.0807 40.2254 21.0616 41.1233 22.6234 42.5564C23.5099 43.371 24.3133 44.2541 24.6977 45.3423C24.8466 45.7615 24.8224 46.2223 24.8813 46.6653C24.9055 46.8467 24.8085 47.1024 25.096 47.1529C25.3834 47.2035 25.4457 46.9418 25.515 46.7783C25.7228 46.2818 25.9305 45.7823 26.0656 45.2709C26.3496 44.2035 26.869 43.2581 27.8248 42.5118C27.8629 42.4821 27.8906 42.4464 27.9841 42.3453C27.7001 42.3988 27.5027 42.4404 27.3054 42.4702C26.8863 42.5326 26.734 42.3839 26.8829 42.045C27.1149 41.5158 27.3573 40.9925 27.5962 40.4662C28.5313 38.4118 29.4524 36.3543 30.4082 34.3088C30.8099 33.4465 31.2878 32.6111 31.7311 31.7637C31.783 31.6656 31.8315 31.5675 31.828 31.4426C31.6895 31.5913 31.5614 31.7459 31.4125 31.8886C31.0489 32.2335 30.8619 32.2543 30.3944 32.0105C30.2593 31.9391 30.1312 31.8589 29.9788 31.7667C30.0723 32.1116 30.19 32.4267 30.2316 32.7508C30.2697 33.0362 30.2697 33.3365 30.2039 33.619C30.01 34.4396 29.2862 34.7756 28.2888 34.502C28.4274 34.7875 28.5798 35.0432 28.6767 35.3107C28.7945 35.6378 28.9157 35.9767 28.9434 36.3157C28.9884 36.8865 28.6317 37.1749 27.9737 37.1868C27.9252 37.1868 27.8768 37.1868 27.7867 37.1868C28.4412 37.7398 28.4343 38.3612 28.1088 38.9975C27.5963 39.9965 27.0595 40.9895 26.5158 41.9796C26.4569 42.0896 26.2734 42.2145 26.1487 42.2174C25.9132 42.2174 25.9236 42.0093 25.9098 41.8607C25.7712 40.5079 25.6639 39.1521 25.4977 37.8023C25.3799 36.833 25.1687 35.8727 25.0302 34.9064C24.8501 33.6249 24.8501 32.3554 25.605 31.175C26.1522 30.3188 26.6335 29.4328 27.2326 28.6062C28.6248 26.6766 30.0654 24.7738 31.4887 22.862C31.7796 22.4695 32.0774 22.083 32.3787 21.6965C32.4791 21.5687 32.5761 21.426 32.718 21.3368C32.8323 21.2654 33.047 21.2 33.1509 21.2446C33.3829 21.3457 33.1752 21.4765 33.099 21.5746C31.4887 23.6886 29.868 25.7936 28.2646 27.9135C27.9183 28.3713 27.6447 28.8649 27.3192 29.3673C27.6101 29.5368 27.8768 29.6884 28.1746 29.8609C28.3235 28.8797 28.7668 28.1781 30.1139 28.2464C30.0377 28.1632 29.9961 28.1186 29.9511 28.074C29.3589 27.5269 29.4594 26.8193 30.19 26.4179C30.7407 26.1147 31.364 26.0106 32.0705 25.9868C31.9042 25.7936 31.7588 25.636 31.6237 25.4725C31.132 24.8719 31.1632 24.5567 31.8246 24.0929C32.3267 23.7421 32.8669 23.4329 33.3864 23.1028C33.4764 23.0463 33.5595 22.9809 33.6669 22.9036C33.5803 22.8471 33.5249 22.8055 33.466 22.7728C32.9985 22.5082 32.957 22.4695 33.1821 22.0206C33.5007 21.3784 33.8643 20.751 34.2037 20.1297C34.1621 20.1505 34.079 20.1951 33.9993 20.2397C33.6357 20.4448 33.2756 20.6559 32.9085 20.8581C32.673 20.9859 32.4237 21.1286 32.2297 20.8135C32.0047 21.2951 31.8038 21.7619 31.5683 22.2168C31.2774 22.7728 31.1112 22.7847 30.6645 22.306C30.5848 22.2228 30.5086 22.1366 30.3493 22.0592C30.3493 22.3714 30.3909 22.6896 30.339 22.9958C30.2697 23.418 30.1797 23.8461 30.0065 24.2416C29.6152 25.1276 28.8741 25.3506 27.856 24.9551C27.8317 25.2614 27.8456 25.5765 27.7729 25.8798C27.6032 26.5666 26.8621 26.8134 26.2249 26.409C26.1418 26.3555 26.121 26.2336 26.0725 26.1444C26.173 26.1176 26.2838 26.0552 26.3773 26.0671C27.0941 26.1712 27.3815 26.0136 27.3331 25.2554C27.3158 24.9819 27.243 24.7143 27.2188 24.4408C27.2049 24.304 27.2465 24.1613 27.2673 23.9561C27.43 24.0572 27.5339 24.1108 27.6274 24.1791C27.7001 24.2327 27.7555 24.301 27.8248 24.3575C28.5174 24.9284 29.1685 24.8213 29.5425 24.0632C29.8195 23.5072 29.8749 22.9185 29.8576 22.3209C29.8507 22.092 29.8195 21.863 29.8334 21.6371C29.8403 21.5152 29.9269 21.3962 29.9788 21.2773C30.1173 21.3249 30.2766 21.3487 30.3874 21.426C30.6333 21.5984 30.8515 21.7946 31.1493 22.0355C31.2878 21.6727 31.4298 21.3278 31.5441 20.974C31.6307 20.7124 31.6687 20.4389 31.7484 20.1743C31.7726 20.094 31.8627 19.9721 31.9215 19.9721C32.0185 19.975 32.1363 20.0434 32.202 20.1148C32.3059 20.2278 32.3717 20.3616 32.4722 20.5221C32.6626 20.4329 32.8462 20.3675 33.0089 20.2724C33.7812 19.8056 34.543 19.3239 35.3188 18.8601C35.6408 18.6668 35.9802 18.4974 36.323 18.3338C36.6832 18.1644 36.6901 18.1763 36.9013 18.5212C36.6105 18.7323 36.3092 18.9493 36.0148 19.1663C34.9309 19.9632 34.176 20.9473 33.7327 22.1098C33.6427 22.3506 33.7085 22.4666 33.982 22.532C34.124 22.5677 34.2625 22.6212 34.3907 22.6836C34.692 22.8323 34.6885 22.9542 34.3941 23.1147C33.8851 23.3942 33.3691 23.6677 32.8704 23.9591C32.5726 24.1345 32.299 24.3397 32.0254 24.5389C31.7969 24.7054 31.7519 24.9076 31.9562 25.1127C32.1605 25.3208 32.3752 25.523 32.5934 25.7192C32.6938 25.8114 32.8323 25.8798 32.9189 25.9779C33.002 26.0701 33.0436 26.192 33.1024 26.302C32.9812 26.3406 32.86 26.3971 32.7319 26.412C32.2055 26.4625 31.6757 26.4834 31.1528 26.5517C30.9277 26.5815 30.706 26.6736 30.5052 26.7718C30.0585 26.9858 29.9615 27.2921 30.2281 27.6667C30.3632 27.8599 30.5467 28.0294 30.7303 28.1929C30.8965 28.3416 31.0939 28.4694 31.2809 28.6121C31.0454 28.8351 30.8342 28.7995 30.6091 28.7697C30.3182 28.7311 30.0204 28.6835 29.7295 28.6895C29.3104 28.7013 28.9849 28.8857 28.888 29.2484C28.791 29.6171 28.7633 30.0006 28.6906 30.3752C28.6663 30.5001 28.5901 30.6161 28.5347 30.735C28.4066 30.6755 28.2577 30.6369 28.1503 30.5566C27.8179 30.2979 27.4993 30.0214 27.1738 29.7509C26.0275 31.1721 25.2137 32.6141 25.463 34.3355C25.6674 35.7567 25.8925 37.172 26.0898 38.5931C26.1903 39.3156 26.2491 40.044 26.3288 40.7725C26.3392 40.8765 26.353 40.9806 26.3669 41.0847C26.405 41.0936 26.4431 41.1025 26.4846 41.1084C26.9175 40.2403 27.3919 39.387 27.7659 38.5039C27.9772 38.0044 27.6863 37.5585 27.1426 37.279C26.9348 37.172 26.7236 37.0738 26.5089 36.9668C26.5781 36.7676 26.7097 36.7141 26.9244 36.726C27.2638 36.7438 27.6032 36.7527 27.9425 36.7379C28.3616 36.7171 28.5555 36.5268 28.4585 36.173C28.3547 35.7954 28.1884 35.4267 28.0187 35.0669C27.8871 34.7904 27.6967 34.5318 27.5478 34.2612C27.5028 34.178 27.4647 34.0115 27.4993 33.9966C27.6066 33.9431 27.7556 33.9104 27.8733 33.9282C28.1746 33.9758 28.4655 34.0769 28.7667 34.1155C29.2862 34.1839 29.6637 33.9877 29.7018 33.5447C29.7399 33.0987 29.6602 32.6408 29.5736 32.1978C29.5078 31.8589 29.3416 31.5348 29.2446 31.2018C29.2169 31.1096 29.2654 30.9996 29.2758 30.8956C29.3935 30.9193 29.5321 30.9164 29.6221 30.9699C29.9546 31.1661 30.2766 31.3772 30.5883 31.5943C30.8065 31.7489 30.9623 31.7221 31.0939 31.517C31.5268 30.8361 31.9735 30.1642 32.3891 29.4773C32.86 28.7013 33.2998 27.9105 33.7673 27.1345C33.8435 27.0066 33.8989 26.7747 34.1586 26.8699C34.4149 26.962 34.2625 27.1553 34.2244 27.301C33.9647 28.2494 33.6634 29.1919 33.4522 30.1463C33.3483 30.6131 33.3933 31.1067 33.3829 31.5883C33.376 31.844 33.5492 31.9867 33.8331 32.0462C33.9682 32.0729 34.1067 32.0997 34.2244 32.1532C34.4703 32.2632 34.4807 32.4743 34.2383 32.5903C33.5526 32.9173 32.8669 33.2473 32.1674 33.5506C31.8973 33.6666 31.828 33.8063 32.0047 33.9877C32.254 34.2434 32.5172 34.4931 32.8185 34.7042C33.1405 34.9272 33.1578 35.0164 32.8011 35.2156C32.2332 35.5337 31.6445 35.831 31.1077 36.1878C30.2281 36.7735 30.19 37.169 30.9173 37.8944C31.1909 38.168 31.5441 38.3791 31.8454 38.6348C31.9423 38.718 32.067 38.8696 32.0358 38.9529C31.97 39.1461 31.7692 39.0688 31.6064 39.0242C31.2428 38.9261 30.8826 38.8131 30.5121 38.7358C29.9615 38.6199 29.4628 38.7388 29.0957 39.1045C28.836 39.3632 28.5936 39.6546 28.4308 39.9638C28.0776 40.6208 27.7833 41.3017 27.4647 41.9736C27.4889 41.9945 27.5131 42.0153 27.5339 42.0391C28.088 41.938 28.6421 41.828 29.1996 41.7417C29.3208 41.7239 29.4559 41.7923 29.5875 41.822C29.5217 41.929 29.4593 42.042 29.3866 42.1461C29.3658 42.1728 29.3139 42.1818 29.2793 42.2026C28.836 42.485 28.372 42.7437 27.9564 43.0529C27.1564 43.6475 26.8379 44.4681 26.5712 45.3155C26.3669 45.9607 26.1141 46.5999 25.8197 47.2213C25.6604 47.5573 25.3557 47.6405 24.9817 47.584C24.6181 47.5305 24.438 47.367 24.4103 47.0518C24.393 46.8437 24.393 46.6326 24.3895 46.4245C24.3583 45.1758 23.6034 44.2184 22.6961 43.3235C22.2355 42.8686 22.1801 42.8656 21.7161 43.3235C21.4667 43.5702 21.2832 43.8616 21.0442 44.1173C20.9438 44.2243 20.7845 44.2868 20.6495 44.37C20.5941 44.2243 20.4971 44.0787 20.4971 43.933C20.4971 43.6059 20.5594 43.2789 20.5698 42.9518C20.5802 42.6159 20.4694 42.5296 20.0815 42.5296C19.5309 42.5296 19.0565 42.7378 18.582 42.9459C18.4331 43.0113 18.2704 43.1629 18.1076 42.9816C17.9483 42.8032 18.0834 42.6575 18.2219 42.5237C18.2358 42.5088 18.2496 42.4969 18.2635 42.4821C18.8141 41.9082 18.7691 41.6882 17.9552 41.4801C17.1137 41.266 16.248 41.1203 15.3926 40.9449C15.2991 40.9271 15.1987 40.9301 15.1121 40.8974C15.0359 40.8676 14.932 40.8111 14.9251 40.7546C14.9182 40.6952 14.9874 40.5971 15.0532 40.5644C15.2541 40.4662 15.4723 40.386 15.6835 40.3057C15.777 40.27 15.874 40.2433 15.9225 40.2284C15.4307 39.7021 14.8766 39.2175 14.4715 38.6496C13.9659 37.948 13.578 37.1838 13.159 36.4376C13.1105 36.3543 13.1417 36.1521 13.204 36.1254C13.3702 36.054 13.5468 36.0778 13.6403 36.2711C14.1667 37.3682 15.1779 38.0044 16.4142 38.4296C16.7986 38.5604 17.1657 38.7269 17.5501 38.8577C17.6332 38.8845 17.8029 38.8518 17.8514 38.7953C17.9968 38.6288 18.0938 38.4326 18.2288 38.2601C18.2877 38.1858 18.4054 38.0817 18.4712 38.0936C18.5717 38.1115 18.6859 38.2066 18.731 38.2899C18.8972 38.6139 19.0045 38.9618 19.1985 39.271C19.7144 40.0916 20.04 40.1243 20.7811 39.4583C21.0165 39.2472 21.2209 39.0124 21.4667 38.8102C21.5672 38.7269 21.7299 38.7031 21.865 38.6526C21.8996 38.7775 21.9931 38.9142 21.9585 39.0213C21.7923 39.5713 21.7576 40.1184 21.9169 40.6714C21.9481 40.7755 21.9862 40.8825 22.0416 40.9806C22.1905 41.2393 22.3775 41.3106 22.6892 41.2095C22.8658 41.153 23.0286 41.0549 23.2086 41.0014C23.3437 40.9598 23.4961 40.939 23.638 40.9449C23.8285 40.9509 23.9012 41.049 23.8147 41.2095C23.8043 41.2274 23.7973 41.2422 23.7869 41.2571C23.2571 41.9588 23.451 42.604 23.9913 43.2283C24.348 43.6416 24.6839 44.0727 25.0786 44.48C25.3834 41.4385 24.7497 38.4802 24.1367 35.4564C23.8458 35.5783 23.5999 35.6735 23.361 35.7835C22.8277 36.0302 22.3048 36.2919 21.768 36.5268C21.6641 36.5743 21.5014 36.5268 21.3698 36.5238C21.4044 36.4227 21.4079 36.3038 21.4737 36.2205C21.8234 35.7864 22.194 35.3613 22.5507 34.9331C23.3368 33.9847 23.503 32.9917 22.8554 31.9362C22.8312 31.8975 22.8138 31.8529 22.7896 31.8113C22.7792 31.7964 22.7584 31.7845 22.6857 31.7251C22.5126 31.8351 22.3186 31.9481 22.1386 32.0729C22.0485 32.1354 22 32.2394 21.91 32.2989C21.8096 32.3643 21.6745 32.4386 21.5672 32.4267C21.5014 32.4208 21.4252 32.2632 21.4079 32.1681C21.3213 31.7102 21.2936 31.2434 21.1689 30.7945C20.9611 30.0482 20.5906 29.8371 19.7006 29.8995C19.3855 29.9233 19.0703 29.9798 18.7552 30.0185C18.6513 30.0304 18.537 30.0571 18.4401 30.0363C18.35 30.0185 18.2323 29.956 18.208 29.8906C18.1838 29.8312 18.2461 29.7182 18.3085 29.6676C18.4054 29.5874 18.5509 29.5517 18.6548 29.4744C19.0149 29.2068 19.3993 28.96 19.711 28.6538C20.0919 28.2792 20.0227 27.9818 19.5725 27.6726C19.1119 27.3575 18.5647 27.2564 17.9968 27.2148C17.8998 27.2088 17.8029 27.2177 17.7128 27.1969C17.6297 27.1791 17.5051 27.1434 17.4843 27.0899C17.46 27.0185 17.4912 26.9085 17.5466 26.8461C17.7198 26.6617 17.9241 26.5012 18.1042 26.3198C18.2184 26.2009 18.3258 26.0731 18.4124 25.9393C18.7067 25.4844 18.6548 25.2733 18.1803 24.9551C17.6436 24.5984 17.0964 24.2535 16.5562 23.8967C16.1441 23.6261 16.1614 23.5221 16.622 23.2991C16.8021 23.2128 16.9821 23.1207 17.2038 23.0107C16.8817 22.8025 16.5977 22.6271 16.3311 22.4398C16.0021 22.2109 16.0367 22.0563 16.4315 21.9165C17.0583 21.6906 17.0583 21.6906 16.8852 21.1138C16.5908 20.1297 15.9467 19.3061 15.261 18.5003C15.1779 18.4052 15.0671 18.319 15.0255 18.2119C14.9944 18.1346 15.029 18.0098 15.0913 17.9444C15.1294 17.9057 15.2887 17.9235 15.3684 17.9563C15.4584 17.9949 15.5277 18.0752 15.5969 18.1436C16.0575 18.5955 16.5181 19.0504 16.9787 19.5053C17.0306 19.5588 17.0964 19.6004 17.1484 19.645C17.1484 19.0058 17.1103 18.3755 17.1622 17.7481C17.1899 17.4032 17.3596 17.0643 17.4912 16.7283C17.5189 16.657 17.6574 16.6153 17.744 16.5618C17.7856 16.6391 17.8618 16.7164 17.8652 16.7937C17.8791 17.0673 17.8617 17.3408 17.8721 17.6143C17.8998 18.3695 17.931 19.1247 17.9726 19.8799C17.9795 19.9929 18.0245 20.1148 18.0903 20.2129C18.2011 20.3735 18.3396 20.4656 18.537 20.2694C18.6028 20.204 18.7725 20.1237 18.821 20.1505C18.9076 20.1951 18.963 20.314 18.9872 20.4121C19.0669 20.7035 19.1257 20.9949 19.2019 21.3338C19.4062 21.2268 19.5621 21.1376 19.7248 21.0632C19.8461 21.0097 19.9742 20.9562 20.1058 20.9324C20.3517 20.8878 20.4694 21.0216 20.4105 21.2297C20.2374 21.8214 20.0573 22.4101 19.9153 23.0077C19.8218 23.3972 19.9465 23.4715 20.3586 23.302C20.6529 23.1801 20.9265 23.0196 21.2139 22.8798C21.3594 22.8085 21.5048 22.7193 21.6711 22.865C21.8338 23.0077 21.7091 23.1177 21.626 23.2247C21.2797 23.6737 21.0477 24.1553 20.9958 24.6965C20.9888 24.7767 20.9785 24.86 20.9785 24.9432C20.9715 25.636 21.2867 25.8352 22.0554 25.6241C22.2459 25.5706 22.4364 25.4992 22.6338 25.4725C22.7758 25.4546 22.9281 25.5022 23.0736 25.52C23.0493 25.6449 23.0597 25.7847 22.9974 25.8917C22.8173 26.2009 22.5784 26.4834 22.4156 26.7985C22.3082 27.0096 22.2805 27.2534 22.2424 27.4853C22.2044 27.7053 22.3498 27.854 22.5922 27.8629C22.9593 27.8748 23.3264 27.8332 23.6934 27.8302C23.825 27.8302 23.9601 27.8718 24.0917 27.8926C24.0571 28.0116 24.0709 28.1721 23.9843 28.2464C23.0112 29.0908 23.0978 30.1017 23.6657 30.961C23.8805 31.285 24.109 31.6002 24.3687 31.9748C24.393 31.8529 24.4138 31.7964 24.4138 31.7399C24.4345 30.5715 24.438 29.406 24.4761 28.2375C24.4969 27.5269 24.2233 26.9174 23.7315 26.3615C23.69 26.3079 23.6138 26.2128 23.4891 26.0612ZM21.9031 6.8187C21.8581 6.8187 21.813 6.8187 21.768 6.81573C21.5568 6.17055 21.4113 5.49861 20.8088 5.00506C20.8607 5.38563 20.9785 5.74836 21.0754 6.11406C21.162 6.43219 21.2451 6.75032 21.2901 7.0744C21.3005 7.14575 21.1655 7.2736 21.065 7.3063C20.8988 7.36279 20.8192 7.25576 20.7949 7.11899C20.7811 7.03872 20.7672 6.95547 20.736 6.87817C20.5213 6.36975 20.3066 5.86134 20.0885 5.3559C20.0469 5.36779 20.0088 5.37968 19.9672 5.39157C19.9984 5.48374 20.0469 5.57591 20.0608 5.67105C20.1439 6.23893 20.227 6.80384 20.2824 7.37469C20.2893 7.45794 20.1681 7.58876 20.0711 7.62741C20.0157 7.64822 19.853 7.54416 19.7941 7.46388C19.6971 7.33604 19.6521 7.17846 19.569 7.04169C19.382 6.73248 19.1846 6.42624 18.9907 6.11703C18.963 6.12892 18.9353 6.14082 18.9076 6.15271C18.9387 6.23596 18.9803 6.31623 19.0011 6.39948C19.1361 6.9406 19.2747 7.48172 19.3889 8.02582C19.427 8.20123 19.3266 8.35881 19.098 8.39152C18.8522 8.4272 18.8764 8.22799 18.8383 8.11204C18.6617 7.57984 18.3396 7.11602 17.9414 6.61355C17.9518 6.71167 17.9449 6.74735 17.9587 6.78005C18.2946 7.68687 18.3535 8.60261 18.1076 9.53025C18.0834 9.61944 18.0141 9.76216 17.9587 9.76513C17.8375 9.7681 17.6921 9.72053 17.5951 9.65512C17.5016 9.58971 17.4566 9.47673 17.3908 9.38159C17.1934 9.10508 16.9995 8.83155 16.7744 8.51342C16.7501 8.59667 16.7363 8.61451 16.7432 8.6264C17.0687 9.31618 17.4116 10.003 17.7163 10.6987C18.073 11.5104 18.6167 12.1823 19.5067 12.6194C19.6556 12.6907 19.8183 12.7413 20.0261 12.8216C19.995 12.6224 19.9569 12.4886 19.9603 12.3577C19.9776 11.9326 19.9984 11.5044 20.0504 11.0822C20.0608 10.9931 20.2166 10.9158 20.3066 10.8355C20.362 10.9276 20.4625 11.0168 20.4625 11.109C20.4763 11.775 20.7672 12.3518 21.1897 12.8899C21.3317 13.0683 21.5325 13.2111 21.6641 13.3359C21.8511 12.9583 22 12.6015 22.2078 12.2715C22.3117 12.108 22.3533 11.9772 22.3082 11.7899C22.2009 11.3201 22.2009 10.8444 22.4433 10.3984C22.5126 10.2676 22.5922 10.11 22.8727 10.1903C22.523 10.9544 22.6823 11.6828 22.9385 12.435C23.1982 13.1992 23.5757 13.8473 24.4692 14.2576C24.5142 14.1208 24.5557 14.0198 24.5765 13.9157C24.722 13.2824 24.8536 12.6432 25.0163 12.0129C25.0544 11.8642 25.1895 11.7334 25.3037 11.558C25.4042 11.668 25.4665 11.7036 25.4769 11.7512C25.6881 12.5837 25.8925 13.4162 26.1072 14.2755C26.1937 14.2368 26.2976 14.2011 26.3877 14.1446C27.101 13.7076 27.4889 13.0981 27.6343 12.3667C27.7833 11.6382 27.9183 10.9098 27.6413 10.1754C27.8837 10.0773 27.9529 10.2111 28.0187 10.336C28.2715 10.7968 28.1954 11.2785 28.1642 11.7631C28.1573 11.8761 28.133 12.0307 28.2057 12.0991C28.6074 12.4767 28.7529 12.9227 28.7564 13.4786C28.9641 13.2705 29.1408 13.1159 29.2897 12.9435C29.7883 12.3786 30.1173 11.7601 30.0827 11.0287C30.0792 10.9455 30.2143 10.8563 30.3182 10.7284C30.7511 11.445 30.6679 12.1258 30.5779 12.8602C30.7857 12.771 30.9381 12.7175 31.08 12.6402C31.9527 12.1704 32.5137 11.4955 32.8669 10.6749C33.1301 10.0595 33.4106 9.45294 33.6877 8.84047C33.7292 8.75127 33.7812 8.66802 33.8297 8.5818C33.5734 8.83155 33.3899 9.114 33.1855 9.38753C33.092 9.51538 32.9812 9.6462 32.8462 9.73837C32.725 9.81865 32.5587 9.83946 32.5103 9.64323C32.3094 8.8375 32.1536 8.03176 32.3717 7.20819C32.396 7.11899 32.4064 7.0298 32.4237 6.93763C32.441 6.84843 32.4583 6.76221 32.4756 6.67302C32.4375 6.6641 32.396 6.65518 32.3579 6.64626C32.1259 7.14873 31.8973 7.65417 31.6514 8.15366C31.6099 8.23691 31.4887 8.32313 31.3917 8.33503C31.3259 8.34395 31.2116 8.23691 31.1631 8.16258C31.1216 8.09717 31.1147 7.99906 31.1285 7.92175C31.2151 7.51145 31.3086 7.10115 31.4056 6.69383C31.4298 6.59571 31.4714 6.50057 31.4991 6.40543C31.5268 6.31921 31.5475 6.23299 31.5752 6.14676C31.5372 6.13487 31.5025 6.12595 31.4644 6.11406C31.2255 6.54517 30.9935 6.98223 30.7407 7.41037C30.6887 7.50254 30.5606 7.55903 30.4671 7.63336C30.3978 7.54119 30.2835 7.45199 30.2697 7.35388C30.2004 6.73545 30.2074 6.11703 30.3978 5.50753C30.4186 5.43914 30.4359 5.36779 30.4532 5.29941C30.4151 5.29049 30.3736 5.28157 30.3355 5.27265C30.1485 5.78998 29.958 6.30434 29.7745 6.82168C29.7399 6.91682 29.7468 7.02683 29.6948 7.11305C29.6533 7.18143 29.5459 7.27063 29.4767 7.26765C29.397 7.26468 29.2966 7.17548 29.2585 7.10413C29.2204 7.02682 29.2169 6.91979 29.2412 6.83654C29.3555 6.43219 29.4559 6.01892 29.6221 5.62646C29.7398 5.34698 29.6671 5.11209 29.5494 4.84451C29.2723 5.39752 29.0507 5.9654 28.8152 6.52733C28.7771 6.61653 28.6767 6.68788 28.604 6.76518C28.5382 6.69086 28.4412 6.62247 28.4101 6.53625C28.2023 5.92972 28.0464 5.31724 28.2231 4.67801C28.2404 4.61855 28.2265 4.55314 28.2265 4.48773C28.1953 4.48475 28.1677 4.48178 28.1365 4.47881C27.7798 5.14183 27.2811 5.77214 27.5755 6.58085C27.5962 6.64328 27.5443 6.72356 27.5235 6.79492C27.437 6.77708 27.3261 6.77708 27.2707 6.73248C27.1911 6.66707 27.1149 6.56895 27.101 6.47679C27.0491 6.18244 27.0179 5.88215 26.9972 5.58483C26.966 5.1448 26.9487 4.70179 26.9279 4.25879C26.9036 4.25879 26.8794 4.25582 26.8552 4.25582C26.6682 4.83559 26.4777 5.41536 26.2907 5.9981C26.2457 6.01 26.2007 6.01892 26.1591 6.03081C26.0137 5.8762 25.8059 5.74241 25.7366 5.56699C25.56 5.12101 25.4215 4.66314 25.3107 4.2023C25.2414 3.91985 25.2553 3.6255 25.231 3.33413C25.1583 3.55117 25.1375 3.76821 25.1167 3.98228C25.0579 4.58881 24.9124 5.17453 24.5523 5.70376C24.4588 5.84052 24.2787 5.93269 24.1402 6.0427C24.064 5.90296 23.9601 5.7662 23.9151 5.62051C23.78 5.16561 23.6692 4.70774 23.548 4.24987C23.5064 4.25284 23.4614 4.25582 23.4199 4.26176C23.4199 4.78207 23.4337 5.30535 23.4164 5.82566C23.406 6.10514 23.3679 6.38462 23.2987 6.65815C23.2779 6.7414 23.1151 6.80086 23.0182 6.86925C22.9801 6.76816 22.9108 6.66707 22.9039 6.56598C22.8935 6.39651 22.9731 6.2092 22.9212 6.05459C22.7446 5.55213 22.5264 5.05858 22.3186 4.56205C22.2979 4.51448 22.2321 4.48178 22.1386 4.39258C22.1524 4.50259 22.1663 4.54422 22.1628 4.58881C22.1524 5.1775 22.1559 5.76917 22.1143 6.35786C22.1282 6.51841 21.9862 6.66707 21.9031 6.8187ZM17.041 20.094C17.1934 20.5221 17.3527 20.9413 17.4947 21.3665C17.6713 21.8957 17.6193 21.9849 17.0583 22.2257C17.0272 22.2406 16.9995 22.2674 16.9475 22.309C17.1934 22.4577 17.4219 22.5855 17.6436 22.7252C17.9622 22.9304 17.9656 23.1207 17.6505 23.3347C17.4773 23.4507 17.2903 23.5518 17.0791 23.6796C17.2211 23.7807 17.3319 23.861 17.4462 23.9353C17.8583 24.2089 18.2842 24.4675 18.6756 24.7589C19.1985 25.1484 19.2781 25.523 18.9664 26.0522C18.821 26.299 18.6167 26.522 18.4262 26.7747C18.5232 26.7985 18.6236 26.8163 18.7171 26.852C19.1292 27.0155 19.5759 27.1404 19.9361 27.3634C20.5871 27.7648 20.6702 28.3297 20.2201 28.8976C20.0642 29.0938 19.853 29.2603 19.6764 29.4298C19.9811 29.4655 20.3066 29.4595 20.5941 29.5457C21.2867 29.7509 21.6018 30.2415 21.7576 30.8183C21.8338 31.0948 21.8788 31.3802 21.9412 31.6716C22.1732 31.5348 22.381 31.4129 22.5957 31.285C21.252 27.9194 19.659 24.637 17.9587 21.4022C18.4124 21.1703 18.4435 21.1762 18.5994 21.5033C18.7794 21.8838 18.9526 22.2644 19.1327 22.645C19.2089 22.8085 19.292 22.969 19.3959 23.1831C19.5032 22.6569 19.5967 22.199 19.6971 21.7084C19.5552 21.7471 19.427 21.7768 19.3058 21.8214C19.0703 21.9046 18.9249 21.8541 18.8556 21.6311C18.7864 21.4141 18.6929 21.203 18.6098 20.9949C17.8306 21.0038 17.5986 20.3467 17.041 20.094ZM30.0377 12.8037C30.0204 12.8364 30.0134 12.8781 29.9857 12.9048C29.4594 13.4013 28.9364 13.9008 28.3962 14.3884C28.2438 14.5252 28.0499 14.6114 27.8352 14.4063C28.3373 13.8741 28.4585 13.3062 28.0638 12.6432C27.5928 13.8146 27.4577 13.9781 26.4015 14.7333C26.3496 14.772 26.3046 14.8552 26.3149 14.9117C26.3426 15.0871 26.4015 15.2625 26.4604 15.4885C26.7721 15.2358 27.0491 15.0039 27.3331 14.7779C27.7036 14.4836 27.8802 14.5252 28.0291 14.9414C28.0534 15.0098 28.0811 15.0842 28.0776 15.1555C28.0672 15.4618 28.043 15.765 28.0257 16.0623C29.5251 15.3934 30.01 14.216 30.0377 12.8037ZM20.5283 12.7532C20.4798 14.1922 21.2035 15.432 22.6961 16.0772C22.6649 15.9583 22.6234 15.8661 22.613 15.7739C22.5887 15.5599 22.5299 15.3339 22.5749 15.1288C22.7099 14.5044 22.9212 14.4538 23.4614 14.882C23.6727 15.0515 23.877 15.2269 24.1055 15.4201C24.1367 15.3042 24.1506 15.2298 24.1783 15.1644C24.2822 14.9058 24.2302 14.7274 23.9393 14.549C23.316 14.1654 22.8589 13.6541 22.613 13.0178C22.5749 12.9227 22.516 12.8364 22.4398 12.6878C22.0797 13.3835 22.3533 13.9306 22.7758 14.5103C22.3983 14.4152 22.0035 14.549 21.8996 14.1536C21.8927 14.1327 21.8581 14.1119 21.8338 14.0971C21.252 13.77 20.8261 13.33 20.5283 12.7532ZM33.0782 29.516C33.0609 29.5101 33.047 29.5071 33.0297 29.5011C32.6557 30.0868 32.2852 30.6726 31.9285 31.2315C32.1051 31.2672 32.351 31.2583 32.4133 31.3445C32.4791 31.4367 32.3717 31.621 32.3336 31.7637C32.3198 31.8143 32.2748 31.8618 32.2505 31.9094C32.0254 32.3554 31.7969 32.8014 31.5718 33.2473C31.5995 33.2711 31.6237 33.2919 31.6514 33.3157C32.2921 33.0392 32.9362 32.7627 33.5769 32.4862C32.9708 32.3019 32.8566 31.9243 32.8669 31.4842C32.8739 31.1661 32.8808 30.845 32.9154 30.5299C32.9501 30.185 33.0228 29.852 33.0782 29.516ZM25.3695 13.1902C25.3488 13.1902 25.328 13.1902 25.3072 13.1873C25.1029 13.8919 24.8951 14.5966 24.6943 15.3012C24.6631 15.4053 24.6423 15.5153 24.6354 15.6253C24.625 15.8185 25.0752 16.2913 25.2864 16.3061C25.3522 16.3091 25.4249 16.2705 25.4873 16.2407C25.9721 16.0058 26.0067 15.6372 25.8959 15.2269C25.7401 14.662 25.5842 14.0941 25.4319 13.5292C25.3972 13.4162 25.3869 13.3032 25.3695 13.1902ZM31.3986 33.7498C31.3675 33.7468 31.3363 33.7439 31.3017 33.7409C30.8584 34.6715 30.4117 35.6021 29.9684 36.5327C30.5883 35.831 31.4748 35.4386 32.3336 34.9748C31.8211 34.6566 31.5302 34.2493 31.3986 33.7498ZM21.9516 16.321C21.484 15.875 21.0442 15.4528 20.601 15.0336C20.5698 15.0039 20.5179 14.9801 20.4694 14.9682C19.7352 14.8195 19.1396 14.4598 18.5994 14.0287C18.3708 13.8473 18.1561 13.7403 17.8202 13.8473C18.963 14.9652 20.3932 15.7056 21.9516 16.321ZM17.9552 12.0277C18.2635 13.2527 19.3612 14.3528 20.2755 14.4063C20.2097 14.109 20.1473 13.8087 20.0677 13.5113C20.0504 13.443 19.995 13.3478 19.9292 13.324C19.1396 13.0416 18.492 12.5986 17.9552 12.0277ZM32.5934 12.1407C32.2921 12.3756 32.022 12.6343 31.6999 12.8305C31.3675 13.0327 30.9796 13.1694 30.6229 13.3389C30.5744 13.3627 30.5225 13.4132 30.5121 13.4578C30.4359 13.7938 30.3667 14.1298 30.2974 14.4628C31.3779 14.2219 32.5518 13.0386 32.5934 12.1407ZM28.694 16.2496C30.2247 15.6996 31.5995 14.9593 32.7111 13.8622C32.4514 13.886 32.157 13.9097 31.9943 14.0495C31.5198 14.4509 30.9692 14.7155 30.3563 14.9117C30.2316 14.9533 30.0688 14.995 30.003 15.0782C29.6533 15.5361 29.2204 15.9256 28.694 16.2496ZM24.6354 17.0227C23.9082 17.1148 23.3368 16.8086 22.755 16.5172C22.4606 17.1803 21.8026 17.4211 21.1274 17.656C22.3567 17.6976 23.5515 17.6203 24.6354 17.0227ZM26.1764 17.0792C26.8794 17.543 28.6178 17.873 29.5355 17.6084C28.8291 17.427 28.1607 17.2219 27.856 16.654C27.2603 16.8056 26.6959 16.9483 26.1764 17.0792ZM25.7955 16.6035C26.4119 16.651 26.9071 16.5618 27.2777 16.1813C27.5582 15.8899 27.6724 15.548 27.6066 15.1079C26.9764 15.6283 26.4154 16.0921 25.7955 16.6035ZM29.7883 37.0025C29.5529 37.4931 29.3104 38.0015 29.0819 38.4742C29.6083 38.388 30.0931 38.3077 30.5225 38.2364C30.2939 37.8498 30.0411 37.4276 29.7883 37.0025ZM24.8743 16.6183C24.2752 16.1248 23.6865 15.6401 23.084 15.1436C22.8623 15.9999 23.8597 16.7997 24.8743 16.6183ZM19.8426 23.9918C20.0434 24.4051 20.2512 24.8243 20.4763 25.2852C20.5837 24.7054 20.6806 24.1851 20.7741 23.6767C20.4867 23.7748 20.1854 23.8788 19.8426 23.9918Z" fill="#FFEB61"/>
<path d="M35.0799 5.97448C34.9448 5.89123 34.8583 5.8615 34.8132 5.80204C34.7613 5.73365 34.7405 5.64149 34.7128 5.55824C34.4669 4.83873 33.9579 4.33626 33.1164 4.10138C32.9398 4.05381 32.7735 4.00623 32.7701 3.80703C32.7666 3.60485 32.9536 3.59296 33.1129 3.54539C33.9648 3.28375 34.557 2.80804 34.7855 2.03501C34.8271 1.89527 34.8964 1.76148 35.0938 1.76445C35.2911 1.76743 35.3535 1.8923 35.3916 2.04096C35.5924 2.81696 36.1707 3.29267 37.0296 3.53052C37.2096 3.58107 37.3378 3.65243 37.3447 3.82487C37.3516 4.00326 37.1819 4.02407 37.0365 4.06273C36.1153 4.29761 35.5855 4.84467 35.3188 5.6177C35.2808 5.73366 35.1769 5.83474 35.0799 5.97448ZM35.0314 4.69601C35.3846 4.39572 35.7656 4.07164 36.1569 3.74162C35.6963 3.54836 35.3292 3.24213 35.1249 2.8675C34.7509 3.19456 34.3838 3.51566 34.0514 3.80406C34.3734 4.0984 34.7128 4.40761 35.0314 4.69601Z" fill="#FFEB61"/>
<path d="M19.3616 2.13005C19.3304 2.15384 19.2715 2.23411 19.1919 2.25493C18.43 2.4571 17.9348 2.86443 17.7651 3.55123C17.7478 3.62854 17.6058 3.72071 17.5123 3.72963C17.4431 3.73855 17.3184 3.6434 17.2768 3.56907C17.1695 3.38176 17.1141 3.16769 16.9963 2.98633C16.7712 2.64441 16.4319 2.41548 15.9782 2.32034C15.8155 2.28763 15.6631 2.23709 15.6631 2.0587C15.6665 1.8922 15.8085 1.85355 15.9609 1.803C16.5843 1.59785 17.0344 1.24702 17.2007 0.670218C17.211 0.631567 17.218 0.583996 17.2457 0.56021C17.3253 0.497773 17.4188 0.402631 17.5054 0.399658C17.5885 0.399658 17.7063 0.485881 17.7547 0.56021C17.824 0.667245 17.8309 0.804011 17.8933 0.914019C18.1495 1.37486 18.5651 1.67813 19.1365 1.82084C19.3408 1.86841 19.3616 1.89517 19.3616 2.13005ZM18.1599 2.07356C17.9417 1.8803 17.682 1.65137 17.5019 1.49082C17.3149 1.65732 17.0518 1.88922 16.8163 2.10032C16.9894 2.25195 17.2526 2.48386 17.4569 2.66225C17.7097 2.44818 17.9764 2.22519 18.1599 2.07356Z" fill="#FFEB61"/>
<path d="M16.7814 37.8855C16.7467 37.8082 16.6844 37.7309 16.6844 37.6536C16.6913 37.2285 16.6151 36.8241 16.3035 36.4792C16.1892 36.3514 16.0264 36.2533 15.9122 36.1224C15.8429 36.0422 15.7667 35.9173 15.7944 35.837C15.8221 35.7627 15.978 35.6735 16.0784 35.6735C16.7744 35.6616 17.3389 35.4446 17.7683 34.9629C17.8307 34.8915 18.0107 34.8232 18.0835 34.8499C18.1666 34.8856 18.2428 35.0283 18.2358 35.1205C18.1873 35.7062 18.4817 36.1522 18.9769 36.5179C19.0912 36.6011 19.1882 36.6725 19.1258 36.8122C19.0669 36.946 18.9457 36.9787 18.7968 36.9817C18.08 36.9876 17.5328 37.2671 17.1415 37.7726C17.0619 37.8766 16.9857 37.9242 16.7814 37.8855ZM18.0315 36.4822C17.9415 36.3008 17.803 36.0214 17.6748 35.7567C17.3805 35.8727 17.0723 35.9946 16.8506 36.0838C16.9857 36.3365 17.1381 36.616 17.2558 36.839C17.4844 36.7349 17.7926 36.5922 18.0315 36.4822Z" fill="#FFEB61"/>
<path d="M12.5843 23.0999C11.4934 23.094 10.645 22.3418 10.6554 21.3933C10.6658 20.4806 11.5627 19.7402 12.6431 19.7551C13.734 19.77 14.5859 20.5133 14.572 21.4439C14.5616 22.3804 13.689 23.1089 12.5843 23.0999ZM12.612 22.5172C13.3011 22.5142 13.8898 22.0118 13.8829 21.429C13.876 20.8522 13.2942 20.3587 12.6224 20.3587C11.9298 20.3587 11.3341 20.8611 11.341 21.435C11.348 22.0326 11.9194 22.5202 12.612 22.5172Z" fill="#FFEB61"/>
<path d="M15.5035 11.2546C15.5035 11.8047 15.0429 12.2209 14.4265 12.2239C13.7824 12.2269 13.2837 11.8076 13.2837 11.2576C13.2837 10.7076 13.7685 10.2854 14.3988 10.2913C15.0498 10.2943 15.5035 10.6927 15.5035 11.2546ZM14.9148 11.2606C14.9182 11.0079 14.6862 10.8027 14.3919 10.8027C14.1217 10.8027 13.8932 11.0049 13.8828 11.2576C13.8724 11.5044 14.0975 11.7095 14.378 11.7095C14.6758 11.7095 14.9113 11.5103 14.9148 11.2606Z" fill="#FFEB61"/>
<path d="M34.9903 31.1514C34.3981 31.1514 33.9306 30.7262 33.9376 30.1999C33.9445 29.6618 34.3912 29.2842 35.025 29.2842C35.6206 29.2812 36.095 29.6856 36.095 30.197C36.095 30.7351 35.6137 31.1514 34.9903 31.1514ZM35.5063 30.191C35.5063 29.968 35.2812 29.7867 35.0007 29.7867C34.7341 29.7867 34.5228 29.9769 34.5228 30.2148C34.5228 30.4527 34.7167 30.6221 34.9834 30.6251C35.2881 30.631 35.5063 30.4497 35.5063 30.191Z" fill="#FFEB61"/>
</svg>
