<svg width="48" height="48" viewBox="0 0 48 48" fill="none" xmlns="http://www.w3.org/2000/svg">
<path d="M21.7374 33.8035C21.437 34.0643 21.1718 34.3391 20.8663 34.5505C20.0825 35.0917 19.2575 35.1014 18.4719 34.5823C17.9752 34.2536 17.5036 34.2013 16.9736 34.4098C16.7031 34.5168 16.4263 34.6153 16.1432 34.668C15.3696 34.8166 14.8261 34.3292 14.7963 33.4767C14.7876 33.1891 14.8101 32.9002 14.8165 32.6107C14.8218 32.4057 14.7322 32.3206 14.5379 32.3199C13.8751 32.3174 13.2593 32.1266 12.7085 31.7152C12.6142 31.644 12.5222 31.5717 12.4368 31.4902C12.1397 31.2058 12.1114 31.1333 12.2855 30.7451C12.7934 29.5965 13.6157 28.8596 14.7723 28.5936C14.9471 28.555 15.0591 28.4813 15.1443 28.32C15.5404 27.5687 16.4363 27.3269 16.9779 27.5492C17.3101 27.6859 17.5698 27.914 17.7712 28.2292C18.0046 28.5948 18.0077 28.6019 18.3831 28.4046C18.8537 28.1566 19.3154 28.13 19.775 28.434C19.7931 28.4452 19.8168 28.4448 19.8501 28.4541C19.7856 28.1916 19.7262 27.9409 19.6607 27.676C19.5021 27.6719 19.3434 27.6735 19.1871 27.6624C18.629 27.619 18.1566 27.3908 17.8233 26.8787C17.5897 26.519 17.532 26.1172 17.5968 25.6971C17.6268 25.5 17.5804 25.3729 17.4586 25.2375C17.1428 24.8844 16.8754 24.4953 16.7541 24.0069C16.7374 23.943 16.7207 23.8791 16.7094 23.8154C16.5442 22.9385 16.8998 22.5025 17.7077 22.6575C18.0257 22.7175 18.2144 22.6863 18.4206 22.3919C18.6784 22.0253 18.8922 22.022 19.2551 22.2676C19.67 22.5478 19.9893 22.9339 20.1307 23.4382C20.2908 24.0112 20.6315 24.2796 21.1455 24.4435C22.1178 24.7531 22.559 25.7719 22.2083 26.8097C22.1511 26.9743 22.1745 27.0724 22.2726 27.2024C22.5828 27.6104 22.8752 28.0331 23.1764 28.4514C23.1731 28.4559 23.2005 28.4393 23.1998 28.4252C23.1594 27.02 23.1276 25.6163 23.0677 24.2151C23.0437 23.6807 22.9592 23.1478 22.8941 22.6167C22.7907 21.7723 22.3546 21.1008 21.902 20.4405C21.7105 20.1608 21.5047 19.897 21.3198 19.614C21.2346 19.4833 21.1409 19.4755 21.0078 19.4874C20.7059 19.5148 20.4006 19.5467 20.1011 19.5237C19.6379 19.4846 19.2854 19.2135 19.0603 18.7743C18.9862 18.6323 18.9244 18.5997 18.7791 18.6265C17.8831 18.7874 17.1488 18.4624 16.5656 17.7145C16.3325 17.4181 16.2783 17.0926 16.4336 16.7225C16.4704 16.6346 16.4452 16.4825 16.3957 16.3917C16.1997 16.0391 16.0624 15.6686 16.0267 15.2557C15.9951 14.8899 16.0481 14.7592 16.3596 14.6548C16.6014 14.5738 16.8649 14.5686 17.1147 14.5125C17.2048 14.4933 17.3012 14.4391 17.3603 14.366C17.4572 14.2508 17.5309 14.1126 17.6067 13.9791C17.7809 13.6718 18.0199 13.6154 18.3328 13.7069C19.0206 13.9107 19.5196 14.3626 19.8553 15.0354C19.9456 15.2155 20.0249 15.407 20.0912 15.5992C20.2425 16.0523 20.5337 16.3166 20.9594 16.4295C21.1299 16.474 21.3002 16.5243 21.4637 16.5896C22.2407 16.8961 22.6302 17.5331 22.5759 18.425C22.5656 18.6123 22.5976 18.7553 22.7038 18.9043C22.8675 19.1314 23.0091 19.3755 23.1865 19.6535C23.2021 19.5532 23.213 19.5043 23.2154 19.454C23.2761 16.8935 23.34 14.3343 23.3931 11.7747C23.3954 11.6869 23.3513 11.5529 23.2887 11.512C22.7103 11.1231 22.4102 10.5395 22.2857 9.83867C22.2422 9.60031 22.1313 9.42182 21.9716 9.25342C21.3197 8.57468 20.7575 7.81334 20.3065 6.96429C20.0326 6.44841 19.8734 5.88363 19.8954 5.28274C19.9046 5.04967 19.9606 4.80761 20.0406 4.591C20.1709 4.23066 20.4425 4.1202 20.7773 4.20069C20.8906 3.99341 20.9845 3.7843 21.108 3.60082C21.3292 3.27287 21.6411 3.10747 22.0072 3.23006C22.3668 3.35009 22.7063 3.54097 23.054 3.7075C23.1211 3.74026 23.1813 3.79389 23.2566 3.84569C23.5656 3.29435 23.9248 2.80451 24.4287 2.47906C24.6516 2.33529 24.9094 2.21732 25.1633 2.17076C25.7219 2.06646 26.107 2.41369 26.4117 2.86493C26.5636 3.08936 26.6833 3.34437 26.7857 3.60232C26.8636 3.80314 26.9396 3.86904 27.1375 3.77251C27.3004 3.69356 27.485 3.65288 27.6651 3.62025C28.3853 3.48973 28.9823 3.90978 29.1941 4.69682C29.4473 5.63655 29.2863 6.52126 28.8516 7.34396C28.4428 8.1218 27.8686 8.74276 27.1727 9.22828C27.0496 9.31326 26.9308 9.43943 26.8647 9.57676C26.4799 10.3859 25.9569 11.0332 25.1722 11.4043C25.1077 11.4338 25.0669 11.5931 25.0621 11.6938C25.0107 12.8907 24.9561 14.0862 24.9209 15.2836C24.8972 16.1167 24.9037 16.9519 24.8973 17.7879C24.8965 17.8606 24.9054 17.9312 24.9096 18.0217C24.9446 18.0041 24.9695 18.0002 24.9796 17.9865C25.2762 17.5368 25.5664 17.0845 25.8705 16.6397C25.9603 16.5079 25.9637 16.4165 25.9017 16.2655C25.7921 15.9967 25.6893 15.713 25.6449 15.423C25.5473 14.7723 25.793 14.3279 26.3622 14.1114C26.5814 14.0273 26.6421 13.9332 26.5837 13.6849C26.3427 12.6928 27.0935 12.1306 27.7458 12.1643C27.9334 12.1742 28.1271 12.1983 28.3081 12.2548C28.5275 12.3267 28.6862 12.2875 28.8643 12.1199C29.2206 11.7848 29.6009 11.481 30.0799 11.3705C30.4861 11.2763 30.8947 11.2561 31.2998 11.3706C31.6835 11.4785 31.7843 11.6332 31.7764 12.0622C31.7741 12.1934 31.7578 12.3231 31.7514 12.4448C31.7662 12.4606 31.7702 12.4701 31.7766 12.4726C32.4082 12.725 32.5471 13.0745 32.2137 13.8173C32.0751 14.1269 31.805 14.3841 31.5551 14.6137C31.2854 14.8591 31.2656 14.8315 31.438 15.1786C31.4985 15.3014 31.5535 15.4299 31.6041 15.5606C31.9076 16.3507 31.6112 16.9565 30.8339 17.0839C30.4761 17.1422 30.1058 17.1402 29.7435 17.1257C29.4943 17.1149 29.3163 17.1957 29.1863 17.42C29.1468 17.4891 29.0986 17.5566 29.0558 17.6244C28.8081 18.0206 28.4646 18.2366 28.0238 18.2498C27.6748 18.2604 27.3255 18.2392 26.9755 18.2473C26.8891 18.2503 26.7726 18.2886 26.7244 18.3561C26.1492 19.1858 25.5824 20.0228 25.022 20.8624C24.9681 20.9415 24.9445 21.0603 24.943 21.1623C24.8954 23.0454 24.8501 24.9273 24.808 26.8106C24.8075 26.8715 24.8156 26.9339 24.8238 27.0339C25.1168 26.6814 25.3906 26.3646 25.6485 26.0355C25.6886 25.9865 25.6743 25.8722 25.6612 25.792C25.6185 25.5244 25.5303 25.2622 25.5253 24.9958C25.5129 24.3023 25.8261 23.8789 26.4509 23.7241C26.6259 23.6796 26.685 23.6065 26.6314 23.4253C26.6274 23.4099 26.6279 23.3923 26.6262 23.3758C26.4917 22.3099 26.9757 21.6707 27.9701 21.7089C28.4889 21.7287 28.863 21.6217 29.2665 21.2167C29.9836 20.495 30.8922 20.345 31.8506 20.6095C32.1046 20.6814 32.2346 20.8301 32.2628 21.1195C32.3312 21.8138 32.1652 22.4321 31.7723 22.9735C31.6536 23.1372 31.6341 23.2656 31.7387 23.4357C31.8558 23.6284 31.965 23.828 32.0721 24.0286C32.489 24.8167 32.1779 25.5368 31.3495 25.6754C31.0198 25.7312 30.6837 25.7468 30.3497 25.7613C30.0568 25.7726 29.8672 25.9257 29.7435 26.2018C29.6839 26.3358 29.6275 26.4711 29.5605 26.6002C29.3046 27.1018 28.8991 27.3778 28.3843 27.3299C27.906 27.2868 27.5324 27.3329 27.2423 27.8227C27.039 28.1676 26.6706 28.3065 26.2814 28.2852C26.055 28.2717 25.8908 28.36 25.7489 28.544C25.4798 28.8903 25.1895 29.2182 24.9331 29.5755C24.848 29.6934 24.8228 29.8767 24.8101 30.0334C24.681 31.6451 24.6122 33.2671 24.4315 34.8701C24.0472 38.2582 23.3119 41.5652 22.3354 44.8055C22.1736 45.3466 21.9903 45.8811 21.8198 46.4206C21.6787 46.8674 21.3538 47.1145 20.9476 47.0843C20.5252 47.0537 20.1884 46.7573 20.139 46.2877C20.113 46.0406 20.1676 45.7645 20.2493 45.5268C20.6463 44.3674 21.1064 43.2313 21.4682 42.0578C22.1552 39.8245 22.4807 37.504 22.7332 35.1682C22.7532 34.9788 22.6993 34.8468 22.5689 34.7158C22.2849 34.4247 22.0145 34.1095 21.7374 33.8035ZM12.7386 31.009C12.8665 31.1153 12.975 31.2199 13.0949 31.3013C13.5407 31.5978 14.034 31.7259 14.5503 31.7585C15.1614 31.7956 15.3566 32.0156 15.3587 32.6853C15.359 32.9656 15.3334 33.2474 15.3369 33.529C15.3434 33.9045 15.5355 34.1174 15.88 34.1149C16.0441 34.1134 16.2105 34.0674 16.3704 34.0189C16.5674 33.9575 16.7576 33.8677 16.9526 33.8016C17.5506 33.5966 18.1143 33.6719 18.6623 34.027C19.4862 34.5614 20.1638 34.4928 20.8828 33.8251C21.0675 33.6542 21.2292 33.4544 21.3992 33.2678C21.6547 32.9891 21.7907 32.9902 22.0445 33.279C22.4191 33.701 22.7857 34.1355 23.167 34.5483C23.2709 34.6609 23.3115 34.7619 23.2914 34.9137C23.2121 35.5608 23.1414 36.2093 23.0621 36.8563C22.6791 39.9806 21.9642 42.9998 20.7041 45.8506C20.6812 45.9026 20.6615 45.9559 20.646 46.0128C20.5886 46.2267 20.6535 46.3907 20.8323 46.4917C20.9898 46.5803 21.1753 46.5045 21.2763 46.312C21.3319 46.206 21.3771 46.0879 21.4125 45.9718C21.7389 44.871 22.0813 43.7766 22.383 42.668C23.1746 39.7721 23.7409 36.8217 24.0302 33.8139C24.1541 32.5257 24.2103 31.2282 24.2815 29.9347C24.2994 29.6163 24.3668 29.3453 24.577 29.1096C24.8973 28.7463 25.2039 28.3696 25.501 27.9833C25.6741 27.7604 25.8616 27.6518 26.131 27.7101C26.4627 27.7835 26.7242 27.6492 26.9302 27.3665C26.9872 27.2887 27.059 27.2266 27.1119 27.1451C27.3504 26.7708 27.6682 26.6314 28.0797 26.7485C28.1676 26.7737 28.2616 26.7699 28.3521 26.7765C28.6798 26.7969 28.9286 26.6516 29.0931 26.3464C29.1656 26.2116 29.234 26.0732 29.2949 25.9298C29.5061 25.442 29.8549 25.1888 30.3561 25.1799C30.6067 25.1754 30.8594 25.1699 31.1076 25.1348C31.6429 25.0567 31.9734 24.8415 31.5325 24.1465C31.3945 23.9295 31.2633 23.7034 31.1702 23.4611C31.0661 23.1866 31.0512 22.9281 31.2877 22.6734C31.5931 22.3436 31.7157 21.9032 31.7611 21.438C31.7803 21.2405 31.7173 21.1304 31.5227 21.0981C30.6808 20.963 29.9413 21.1726 29.3861 21.8939C29.1259 22.2299 28.8262 22.3371 28.4429 22.2983C28.2232 22.2757 27.9989 22.2669 27.7833 22.2972C27.2599 22.3722 27.103 22.5956 27.1402 23.1609C27.1457 23.2421 27.1554 23.3268 27.1532 23.4088C27.148 23.8625 27.0833 24.1958 26.5666 24.305C26.1106 24.401 25.9759 24.6451 26.0557 25.1486C26.0992 25.4304 26.186 25.7077 26.2739 25.9816C26.3239 26.1357 26.3028 26.2417 26.2015 26.3591C25.7125 26.9431 25.2308 27.5379 24.7385 28.1205C24.684 28.1856 24.5622 28.2612 24.512 28.2372C24.3905 28.1768 24.2153 28.1463 24.2453 27.9057C24.2829 27.6208 24.2829 27.3288 24.2903 27.0417C24.3407 25.004 24.3901 22.9638 24.4428 20.925C24.4456 20.8137 24.4683 20.6866 24.5245 20.6005C25.0692 19.7862 25.6106 18.9706 26.1763 18.1746C26.5875 17.5951 26.6087 17.57 27.2774 17.6793C27.988 17.7936 28.5305 17.6078 28.9098 16.9228C29.0537 16.6626 29.2927 16.5628 29.5733 16.5664C29.8539 16.57 30.1376 16.5807 30.4166 16.562C30.6026 16.5495 30.7978 16.515 30.9671 16.4387C31.2128 16.3297 31.256 16.1634 31.1528 15.8972C31.0697 15.6845 30.9725 15.476 30.8873 15.2644C30.6559 14.6925 30.7268 14.4544 31.2207 14.1427C31.4994 13.968 31.7148 13.7383 31.8218 13.3983C31.8854 13.1929 31.8236 13.0794 31.6324 13.0424C31.5196 13.021 31.4054 13.009 31.2973 12.9737C31.1121 12.9135 31.0386 12.7914 31.1207 12.5795C31.1739 12.4429 31.21 12.2976 31.245 12.1557C31.2847 11.9998 31.2216 11.9332 31.0776 11.9073C30.5692 11.8186 30.0881 11.8868 29.6537 12.1946C29.458 12.3335 29.2787 12.5045 29.1027 12.671C28.8837 12.8735 28.6487 12.9453 28.3636 12.863C28.16 12.8034 27.9452 12.7609 27.7337 12.7573C27.2739 12.7512 27.0562 13.0312 27.104 13.5218C27.1118 13.596 27.1196 13.6701 27.1274 13.7443C27.1887 14.2976 27.0647 14.4986 26.5741 14.6439C26.239 14.7429 26.1163 14.897 26.179 15.2674C26.2343 15.5953 26.315 15.9393 26.4685 16.2236C26.6221 16.5079 26.542 16.6811 26.396 16.899C25.8794 17.6732 25.3745 18.456 24.8579 19.2302C24.8174 19.291 24.7135 19.3462 24.6435 19.3379C24.3808 19.308 24.3417 19.2351 24.3461 18.8975C24.3602 17.8495 24.3625 16.7988 24.3895 15.7501C24.4307 14.2808 24.4902 12.811 24.539 11.3408C24.5434 11.1709 24.589 11.0352 24.7546 10.9751C25.2124 10.8088 25.5769 10.4868 25.9166 10.1253C25.9533 10.0867 25.9816 10.0349 26.012 9.9878C25.9092 9.99606 25.8348 10.0334 25.7604 10.0708C25.4827 10.2045 25.2081 10.3454 24.9254 10.4672C24.7823 10.5304 24.669 10.4456 24.6144 10.2995C24.5579 10.1487 24.5956 10.0256 24.74 9.9531C24.8844 9.88057 25.033 9.8117 25.1743 9.73203C25.6849 9.44081 26.2131 9.17833 26.7 8.84409C27.2594 8.46186 27.4577 7.8505 27.2881 7.26777C27.166 6.85201 26.8688 6.65434 26.4769 6.73847C26.1306 6.81123 25.8607 6.98156 25.7084 7.35875C25.5965 7.63761 25.4557 7.90495 25.297 8.15526C25.2048 8.29992 25.0469 8.35324 24.8995 8.20753C24.7668 8.07757 24.7404 7.92891 24.8621 7.77234C25.2854 7.2272 25.4274 6.57758 25.4506 5.88643C25.4785 5.05704 25.2118 4.34673 24.6797 3.75529C24.3344 3.3707 24.196 3.38245 23.9276 3.82375C23.5194 4.49723 23.3823 5.25139 23.5101 6.02856C23.6117 6.65122 23.8208 7.25169 23.9788 7.86335C24.0318 8.06803 24.1063 8.27929 24.1042 8.48563C24.1035 8.59585 23.9774 8.75461 23.8761 8.79107C23.8096 8.8158 23.6762 8.67174 23.5965 8.57875C23.5504 8.52676 23.5519 8.42478 23.5313 8.34551C23.4685 8.09946 23.4233 7.84461 23.3355 7.60827C23.1658 7.15572 22.8293 6.93444 22.3927 6.90799C21.9066 6.87752 21.6891 7.14579 21.7426 7.66831C21.79 8.13315 22.036 8.47217 22.328 8.78811C22.7723 9.26752 23.3102 9.59293 23.8581 9.9046C23.9847 9.97689 24.0585 10.255 23.9891 10.391C23.9198 10.5271 23.7124 10.5705 23.566 10.4706C23.4897 10.4164 23.4246 10.345 23.3483 10.2908C23.2009 10.1885 23.0477 10.0977 22.898 10.0024C23.0339 10.5066 23.2492 10.9102 23.7111 11.083C23.879 11.1461 23.9625 11.2545 23.9569 11.4712C23.8883 13.4603 23.8175 15.4505 23.7727 17.4392C23.7473 18.5044 23.7566 19.5696 23.7766 20.6351C23.78 20.8358 23.7008 20.9363 23.5805 20.9534C23.4786 20.9699 23.3174 20.8976 23.2582 20.8088C22.8758 20.2318 22.5198 19.6357 22.1417 19.0565C22.0327 18.8887 21.9901 18.7395 22.0365 18.5311C22.1687 17.9269 21.8603 17.3301 21.3204 17.1242C21.1707 17.0664 21.0107 17.034 20.8561 17.0019C20.4384 16.9139 20.1033 16.6774 19.8602 16.308C19.7241 16.1017 19.6299 15.8628 19.5355 15.6297C19.2907 15.0328 18.9413 14.5577 18.367 14.3026C18.1802 14.2201 18.048 14.2403 17.9583 14.453C17.8964 14.594 17.811 14.7237 17.749 14.8647C17.663 15.0611 17.5399 15.1461 17.3315 15.1062C17.1833 15.0766 17.0287 15.082 16.8764 15.0862C16.6117 15.0949 16.4987 15.247 16.6097 15.5064C16.7227 15.7706 16.877 16.0256 17.0571 16.2416C17.2047 16.419 17.2271 16.5581 17.1111 16.7407C17.0729 16.8004 17.0335 16.8636 16.992 16.922C16.8557 17.1003 16.872 17.2627 17.0168 17.4271C17.5433 18.0242 18.1829 18.2147 18.9109 18.034C19.2663 17.9451 19.4289 18.0022 19.5237 18.3854C19.6139 18.7391 19.8415 18.8734 20.1245 18.951C20.4912 19.0501 20.8462 18.973 21.1994 18.8418C21.2703 18.8149 21.41 18.8372 21.4474 18.8936C21.9719 19.6536 22.5096 20.4071 22.989 21.1985C23.4798 22.0101 23.5404 22.9657 23.5747 23.8968C23.6436 25.7041 23.6627 27.5131 23.7035 29.3229C23.7067 29.4919 23.7173 29.6658 23.5257 29.7274C23.3319 29.79 23.2351 29.6507 23.1396 29.5021C22.7317 28.8656 22.3405 28.2121 21.8973 27.6049C21.6513 27.2659 21.5412 26.9713 21.7107 26.5536C21.864 26.1788 21.8264 25.7929 21.6023 25.4429C21.4165 25.1516 21.134 25.0131 20.8334 24.9502C20.2192 24.8192 19.8652 24.439 19.6986 23.7825C19.5799 23.3188 19.2813 22.9686 18.8715 22.7003C18.7284 22.8878 18.5816 23.0541 18.4634 23.2436C18.3552 23.4194 18.2441 23.4579 18.0625 23.3814C17.8938 23.31 17.7137 23.2617 17.5341 23.2334C17.2664 23.1915 17.2064 23.2563 17.2192 23.5535C17.2389 24.0467 17.454 24.4562 17.783 24.7593C18.1204 25.0698 18.1948 25.4112 18.142 25.8657C18.0741 26.4462 18.2941 26.7926 18.8029 26.988C19.006 27.0652 19.234 27.1011 19.4499 27.1025C20.022 27.1042 20.1426 27.1997 20.2218 27.8134C20.2742 28.2092 20.4157 28.54 20.7515 28.7472C21.1554 28.9954 21.5704 28.9777 21.9823 28.7911C22.1352 28.72 22.2167 28.7427 22.2926 28.8954C22.3993 29.1136 22.5179 29.3287 22.6267 29.5458C23.2224 30.7269 23.2546 32.0321 23.3172 33.3278C23.3215 33.4124 23.2007 33.5772 23.1348 33.5785C23.0278 33.5831 22.8937 33.5059 22.8161 33.4177C22.6797 33.2665 22.5933 33.0583 22.4523 32.9152C21.9148 32.3669 21.3673 31.8266 20.812 31.2989C20.6329 31.1286 20.5179 30.9406 20.4433 30.6918C20.2784 30.1386 20.0392 29.6169 19.6736 29.1847C19.3499 28.8008 19.0695 28.748 18.624 28.9429C18.5191 28.9898 18.4133 29.0343 18.3062 29.0823C17.9938 29.2218 17.7407 29.1148 17.5293 28.8567C17.4236 28.7276 17.3423 28.5748 17.2366 28.4457C16.8003 27.9044 16.066 27.9524 15.6955 28.5462C15.6178 28.6691 15.5444 28.7956 15.487 28.9285C15.4306 29.0638 15.3537 29.114 15.212 29.1245C14.0545 29.2145 13.3027 29.942 12.7386 31.009ZM25.963 6.32004C26.4282 6.11525 26.8929 6.01482 27.3251 6.37888C27.7446 6.73196 27.8776 7.22315 27.8691 7.80573C28.1014 7.50395 28.3208 7.20292 28.4838 6.86948C28.8066 6.20133 28.8993 5.49258 28.6612 4.76212C28.5043 4.27716 28.1406 4.06083 27.6857 4.20264C27.073 4.3919 26.5174 4.70858 26.0453 5.18288C25.9954 5.23397 25.9522 5.3193 25.9503 5.3896C25.9447 5.69316 25.9574 5.99617 25.963 6.32004ZM22.9921 6.43916C22.9959 6.417 23.0041 6.39265 23.0035 6.37269C22.9309 5.75571 22.9015 5.14018 23.0426 4.52571C23.0557 4.47573 23.0106 4.38273 22.9662 4.34722C22.799 4.21727 22.6284 4.09189 22.4464 3.98959C21.7504 3.59903 21.5054 3.72212 21.3147 4.54367C21.243 4.85438 21.1272 4.95016 20.858 4.83671C20.5643 4.71539 20.4463 4.81227 20.4292 5.18229C20.3881 6.06166 20.7758 6.76902 21.2309 7.49742C21.311 6.48567 21.6869 6.27082 22.9921 6.43916ZM20.3665 29.1517C20.5935 29.6825 20.796 30.1619 21.005 30.6381C21.0386 30.7166 21.1039 30.7821 21.1661 30.8405C21.5852 31.2487 22.0055 31.6534 22.4269 32.0605C22.5132 32.1444 22.5996 32.2282 22.7071 32.3303C22.6709 31.3076 22.491 30.3715 22.025 29.5185C21.9972 29.4659 21.8882 29.4224 21.8284 29.4379C21.3221 29.5651 20.8487 29.5022 20.3665 29.1517ZM24.7029 2.98322C24.9242 3.23345 25.1583 3.45127 25.3383 3.71066C25.5247 3.97847 25.6614 4.28566 25.8265 4.58442C25.9981 4.45768 26.1783 4.33828 26.3439 4.19726C26.3792 4.16796 26.396 4.05829 26.3747 4.00831C26.2513 3.7262 26.1402 3.42926 25.974 3.17737C25.5873 2.59671 25.2375 2.55559 24.7029 2.98322Z" fill="#FFEB61"/>
<path d="M15.4567 29.9693C15.3661 29.7697 15.4318 29.6012 15.6082 29.5616C15.7316 29.5342 15.865 29.5363 15.9916 29.5476C17.3862 29.6683 18.6686 30.1771 19.8682 30.9321C20.423 31.2817 20.9404 31.705 21.4782 32.0892C21.6345 32.2009 21.5743 32.3263 21.5194 32.4519C21.4611 32.5821 21.3585 32.6395 21.2389 32.5641C21.062 32.454 20.8932 32.3256 20.7242 32.2029C19.8678 31.5753 18.9886 30.9936 18.0073 30.619C17.3169 30.3548 16.6113 30.179 15.8783 30.1437C15.7107 30.1357 15.5375 30.1334 15.4567 29.9693Z" fill="#FFEB61"/>
<path d="M26.1316 26.9443C26.1713 26.8531 26.198 26.7684 26.2426 26.6947C27.0757 25.3043 28.0077 24.0041 29.2624 23.0213C29.5532 22.7928 29.8717 22.6103 30.1861 22.4184C30.3271 22.3306 30.4503 22.3915 30.5264 22.5444C30.5963 22.6891 30.5674 22.8177 30.4298 22.8952C28.8916 23.7863 27.8381 25.2016 26.8736 26.7206C26.8436 26.767 26.8104 26.8121 26.7794 26.8562C26.5147 27.2314 26.5094 27.2312 26.1316 26.9443Z" fill="#FFEB61"/>
<path d="M30.1474 13.2641C30.1269 13.3144 30.1133 13.467 30.0404 13.5178C28.7746 14.3873 27.9357 15.6826 27.1084 16.9864C27.0616 17.0613 27.0127 17.1315 26.9659 17.2064C26.8858 17.3324 26.7831 17.3811 26.6595 17.283C26.535 17.1826 26.4123 17.0557 26.5269 16.8752C27.406 15.4712 28.3133 14.0901 29.6394 13.1218C29.867 12.9533 30.0148 12.9792 30.1474 13.2641Z" fill="#FFEB61"/>
<path d="M21.802 27.7761C21.7641 27.8561 21.7366 27.9918 21.6625 28.0435C21.5861 28.0963 21.4315 28.1099 21.3621 28.0605C21.2405 27.9704 21.1531 27.8226 21.0597 27.6923C20.2762 26.5953 19.436 25.553 18.4394 24.6704C18.3172 24.5603 18.2336 24.4338 18.3293 24.2639C18.4158 24.1102 18.6257 24.063 18.772 24.2046C19.2057 24.6231 19.646 25.0384 20.0372 25.5014C20.6045 26.1753 21.1282 26.8914 21.67 27.5868C21.7057 27.6327 21.7371 27.6809 21.802 27.7761Z" fill="#FFEB61"/>
<path d="M17.7447 15.5216C17.8017 15.5365 17.9284 15.5337 18.0046 15.5997C18.8856 16.3508 19.759 17.1086 20.6311 17.8699C20.7634 17.986 20.8138 18.1287 20.671 18.293C20.5316 18.4528 20.4093 18.4099 20.2738 18.2926C19.4153 17.5505 18.5555 16.8119 17.6992 16.0688C17.4949 15.8903 17.49 15.6611 17.7447 15.5216Z" fill="#FFEB61"/>
<path d="M19.0441 11.3844C18.9221 11.3587 18.849 11.3607 18.8003 11.3272C18.7378 11.2862 18.6933 11.2131 18.6431 11.1515C18.2092 10.6142 17.6766 10.3518 17.0193 10.4324C16.8813 10.4494 16.7509 10.4656 16.6752 10.2953C16.5975 10.1203 16.7205 10.05 16.8087 9.95379C17.2899 9.43803 17.5132 8.82592 17.3827 8.07872C17.3589 7.94318 17.3556 7.80607 17.4935 7.73985C17.6293 7.67472 17.7176 7.76351 17.7978 7.87658C18.2227 8.47916 18.7907 8.6949 19.4611 8.60776C19.6034 8.58853 19.7157 8.61032 19.7834 8.7557C19.8531 8.90585 19.746 8.9826 19.6625 9.06493C19.1254 9.57975 18.9678 10.2341 19.0765 10.9922C19.0911 11.1064 19.0572 11.2303 19.0441 11.3844ZM18.5354 10.2975C18.6654 9.91718 18.8014 9.50784 18.9441 9.08939C18.5586 9.07721 18.1984 8.93954 17.9204 8.68554C17.7888 9.0927 17.6582 9.49639 17.5426 9.86084C17.8682 10.0042 18.213 10.1554 18.5354 10.2975Z" fill="#FFEB61"/>
<path d="M31.1822 8.37404C31.1686 8.40397 31.1591 8.49257 31.1129 8.53882C30.6702 8.97166 30.4866 9.49151 30.6256 10.1417C30.6412 10.2149 30.5814 10.3402 30.5203 10.3824C30.4755 10.4135 30.3572 10.3716 30.2992 10.3226C30.1559 10.1978 30.0415 10.0296 29.8915 9.91392C29.6128 9.69506 29.2977 9.61295 28.9555 9.68317C28.8324 9.71014 28.7097 9.71958 28.6455 9.56381C28.5854 9.41756 28.6689 9.33526 28.7527 9.24125C29.0977 8.85157 29.2745 8.39583 29.1709 7.84059C29.1632 7.804 29.1491 7.759 29.1627 7.72907C29.1935 7.64712 29.2219 7.53464 29.2795 7.50287C29.336 7.47456 29.4459 7.50913 29.5083 7.55596C29.5959 7.62482 29.6503 7.73924 29.7334 7.81612C30.0778 8.12642 30.4715 8.25012 30.9126 8.1766C31.0721 8.15451 31.0965 8.1683 31.1822 8.37404ZM30.3479 8.73126C30.1286 8.63872 29.8668 8.52701 29.6869 8.45234C29.6221 8.65827 29.5307 8.94981 29.4474 9.21123C29.6209 9.28332 29.8849 9.39393 30.0904 9.47893C30.1813 9.21078 30.2812 8.92658 30.3479 8.73126Z" fill="#FFEB61"/>
<path d="M33.8647 19.6858C33.7999 19.6518 33.7187 19.6347 33.6715 19.5802C33.4149 19.2837 33.129 19.0482 32.7532 18.9848C32.614 18.962 32.4674 18.9834 32.3272 18.9583C32.2415 18.9433 32.1243 18.8979 32.0915 18.8276C32.0608 18.7621 32.0921 18.6134 32.146 18.5546C32.5129 18.1539 32.6846 17.6862 32.6243 17.115C32.6144 17.0303 32.6694 16.8813 32.7268 16.8613C32.7929 16.8368 32.9215 16.8967 32.9738 16.9631C33.3037 17.3934 33.7325 17.5372 34.2221 17.5088C34.3329 17.5025 34.4286 17.4979 34.4816 17.6275C34.5325 17.7523 34.4875 17.8443 34.4072 17.9279C34.0251 18.3361 33.901 18.8349 33.9968 19.4028C34.0103 19.5204 33.9989 19.5984 33.8647 19.6858ZM33.6851 18.0178C33.5267 17.9439 33.2811 17.8269 33.0524 17.7188C32.9652 17.9649 32.8724 18.2225 32.807 18.4085C33.0337 18.506 33.2838 18.615 33.4849 18.7022C33.5444 18.496 33.6235 18.225 33.6851 18.0178Z" fill="#FFEB61"/>
<path d="M27.6199 32.5988C26.8782 32.9617 26.024 32.6007 25.6816 31.7781C25.3503 30.9876 25.6841 30.043 26.4212 29.6882C27.1649 29.3301 28.0193 29.6852 28.3546 30.4911C28.6928 31.3042 28.3692 32.2292 27.6199 32.5988ZM27.4231 32.0848C27.8891 31.8484 28.1021 31.2129 27.8802 30.7143C27.6616 30.217 27.0835 29.9893 26.6295 30.2167C26.1603 30.4518 25.942 31.0871 26.1596 31.582C26.3854 32.096 26.9549 32.3222 27.4231 32.0848Z" fill="#FFEB61"/>
<path d="M21.5873 36.2296C21.7915 36.7054 21.6327 37.2214 21.2166 37.4327C20.7809 37.6539 20.288 37.4586 20.0848 36.9852C19.8807 36.5094 20.0548 35.98 20.4805 35.7725C20.9236 35.5563 21.3791 35.7443 21.5873 36.2296ZM21.1918 36.4336C21.1 36.2136 20.8659 36.117 20.665 36.2148C20.4825 36.3062 20.4038 36.5595 20.4901 36.7793C20.5755 36.9967 20.8031 37.0965 20.9931 37.0042C21.193 36.9041 21.2803 36.6522 21.1918 36.4336Z" fill="#FFEB61"/>
<path d="M21.9291 23.5417C21.5272 23.743 21.055 23.5345 20.8634 23.0756C20.6687 22.6095 20.8308 22.1324 21.26 21.9145C21.6631 21.7097 22.1315 21.897 22.3235 22.3384C22.5246 22.807 22.3538 23.3318 21.9291 23.5417ZM21.9237 22.5386C21.8411 22.3459 21.6216 22.2651 21.4326 22.3598C21.2523 22.4501 21.1793 22.6861 21.2671 22.8907C21.3549 23.0953 21.5485 23.1775 21.732 23.0884C21.9404 22.9898 22.0186 22.7599 21.9237 22.5386Z" fill="#FFEB61"/>
</svg>
