<svg width="48" height="48" viewBox="0 0 48 48" fill="none" xmlns="http://www.w3.org/2000/svg">
<path d="M26.4654 19.235C26.4419 19.4928 26.4185 19.732 26.3979 19.9713C26.3569 20.447 26.2073 20.8989 25.914 21.2896C25.2541 22.1694 24.9931 23.1555 24.8934 24.1948C24.8699 24.4473 24.8406 24.7025 24.8083 25.0161C24.9315 24.9125 25.0136 24.8407 25.0957 24.7769C26.2806 23.844 27.225 22.7489 27.9318 21.4757C28.4392 20.564 29.1226 19.7613 29.9584 19.0676C30.674 18.4748 31.504 18.0814 32.4572 17.9193C32.9499 17.8369 33.3576 17.6269 33.7359 17.3319C34.6158 16.6435 35.6218 16.2395 36.8096 16.3458C37.1557 16.3777 37.5164 16.4441 37.8273 16.577C38.8157 17.0023 39.7835 17.4648 40.7866 17.9273C40.6956 18.0283 40.637 18.0974 40.5724 18.1638C39.7249 19.033 39.106 20.0297 38.5605 21.0717C37.9534 22.2279 36.9474 22.9668 35.5719 23.2805C34.7859 23.4585 34.0644 23.7616 33.4632 24.2586C32.337 25.1889 31.0289 25.3723 29.5889 25.0852C28.5418 24.8779 27.5095 24.8806 26.5035 25.2686C25.9903 25.4653 25.6061 25.8002 25.2336 26.1617C25.0517 26.3371 24.8582 26.5046 24.6646 26.6667C24.0164 27.209 23.6968 27.9054 23.5765 28.6709C23.4563 29.4417 23.4211 30.2231 23.3507 30.9993C23.3419 31.0843 22.2743 46.8861 22.2685 46.9711C22.2333 47.3725 21.9664 47.5824 21.5206 47.5638C21.107 47.5479 20.8431 47.3007 20.8578 46.9126C20.9018 45.7431 21.9898 28.8516 22.4444 27.7353C22.6145 27.3179 22.855 26.9246 23.0721 26.5259C23.1718 26.3425 23.3096 26.1723 23.3947 25.9836C23.6528 25.4281 23.4885 24.9683 22.9225 24.6493C22.4532 24.3835 21.9253 24.2746 21.3798 24.2639C20.934 24.2559 20.4853 24.2692 20.0453 24.3144C17.9659 24.5164 16.13 24.0194 14.5257 22.7994C13.5872 22.0844 12.5255 21.5634 11.3699 21.1966C10.5839 20.9467 9.85952 20.6065 9.30814 20.0218C8.78023 19.4636 8.46348 18.8018 8.20538 18.1107C8.15846 17.9884 8.20245 17.9246 8.32563 17.8821C8.45468 17.8342 8.58373 17.7784 8.71277 17.7253C9.41079 17.4409 10.1117 17.1591 10.8098 16.8721C11.411 16.6222 12.0357 16.4494 12.6956 16.6009C12.9918 16.6674 13.3203 16.7711 13.5285 16.9571C14.2529 17.603 15.1387 17.8475 16.1065 17.9645C16.9248 18.0628 17.7137 18.2648 18.4557 18.6051C19.5204 19.0968 20.3064 19.8517 20.9399 20.7527C21.4238 21.4385 21.8901 22.1375 22.4004 22.8073C22.6439 23.1236 22.9723 23.3868 23.2686 23.6685C23.3272 23.7244 23.4005 23.7695 23.4739 23.8067C23.6733 23.9104 23.7584 23.8812 23.8023 23.6765C23.8522 23.4399 23.8639 23.1981 23.9079 22.9615C24.1103 21.8691 23.8639 20.8165 23.5501 19.7719C23.5061 19.6204 23.4533 19.4716 23.4123 19.3201C23.3771 19.1872 23.2979 19.1287 23.1425 19.1473C22.8726 19.1792 22.5999 19.2191 22.3271 19.2297C21.5 19.2616 20.7082 19.0808 19.9398 18.839C17.4204 18.0522 15.0683 16.9784 13.0123 15.4208C11.323 14.1423 9.89178 12.6565 8.73037 10.9634C8.65998 10.8623 8.59839 10.7534 8.5456 10.6444C8.22005 9.97989 8.61012 9.36856 9.41666 9.32603C9.73634 9.31008 10.0678 9.36856 10.3874 9.43235C10.8743 9.52804 11.3553 9.65827 11.8392 9.76991C11.8891 9.78054 11.9418 9.77789 12.0269 9.78054C11.1676 8.05551 11.5342 6.24808 11.4462 4.45659C14.8219 4.54962 17.7079 5.557 19.9867 7.84287C21.2772 5.16893 23.2246 2.83522 25.1544 0.435059C26.9757 2.75814 28.8351 5.01743 30.2341 7.55847C30.2488 7.55315 30.2781 7.5505 30.2898 7.53455C31.0377 6.63881 32.0378 6.01684 33.0849 5.456C34.1788 4.87124 35.3197 4.3742 36.5163 3.98613C36.7011 3.925 36.9152 3.90373 37.1117 3.92234C37.4314 3.95157 37.6601 4.18282 37.6631 4.52038C37.6748 5.28588 37.6748 6.05139 37.6337 6.81689C37.5809 7.82161 37.3404 8.79443 36.88 9.76726C37.2202 9.70878 37.5164 9.66891 37.8068 9.60778C38.1558 9.53335 38.5019 9.44564 38.8421 9.34729C39.2087 9.24097 39.5753 9.19844 39.9507 9.28881C40.4757 9.41374 40.769 9.83902 40.6311 10.3148C40.5637 10.5514 40.461 10.7879 40.3261 11.0006C39.2673 12.6645 38.0003 14.1795 36.3785 15.4314C35.2258 16.3219 33.8797 16.8402 32.4191 17.1591C31.1462 17.4382 29.9056 17.805 28.7618 18.3977C28.4568 18.5546 28.1694 18.7433 27.8908 18.9373C27.4714 19.2217 27.0138 19.3546 26.4654 19.235ZM8.6981 18.1851C8.85354 18.4828 8.99432 18.7486 9.13217 19.017C9.50171 19.7374 10.1059 20.2424 10.8977 20.5693C11.2116 20.6969 11.5371 20.8032 11.8568 20.9122C13.0123 21.3029 14.0359 21.8957 14.9891 22.6C16.3206 23.5861 17.8574 24.0087 19.5732 23.9237C20.2448 23.8891 20.9164 23.836 21.588 23.8413C22.245 23.8466 22.8433 24.0725 23.3771 24.4128C23.9842 24.7982 24.1572 25.6035 23.7789 26.2734C23.6322 26.5312 23.4533 26.7731 23.2979 27.0282C22.7289 27.9559 22.5236 28.9686 22.4503 30.0105C22.4239 30.4065 21.3417 46.5192 21.327 46.9179C21.3211 47.0562 21.3857 47.1545 21.5528 47.1651C21.7171 47.1758 21.7963 47.0907 21.808 46.9498C21.8139 46.8781 22.8902 31.0923 22.8932 31.0205C22.9313 30.4118 22.943 29.8005 23.0163 29.1945C23.1278 28.2908 23.3478 27.403 24.0106 26.688C24.4476 26.2175 24.9491 25.7949 25.4447 25.3723C25.8495 25.0268 26.351 24.8221 26.8848 24.6865C27.8116 24.45 28.7413 24.4686 29.671 24.6626C30.8852 24.9151 32.0261 24.8274 33.0027 24.0513C33.7359 23.4692 34.5689 23.0731 35.5103 22.8552C36.6952 22.5814 37.5516 21.9382 38.1059 20.9521C38.4139 20.4019 38.7159 19.849 39.065 19.3201C39.3524 18.8842 39.7043 18.4855 40.0504 18.0389C39.2087 17.6588 38.3699 17.2654 37.5135 16.904C37.2788 16.8056 37.0002 16.7737 36.7392 16.7551C35.7303 16.6887 34.8563 17.0182 34.1114 17.603C33.5952 18.0044 33.0321 18.2675 32.3692 18.3818C31.5715 18.52 30.894 18.8762 30.2957 19.3679C29.4628 20.051 28.7765 20.8458 28.2838 21.7574C27.5476 23.121 26.5094 24.2533 25.2482 25.2367C25.0253 25.4122 24.8259 25.6142 24.6265 25.8135C24.5356 25.9065 24.4622 26.0155 24.3009 25.9491C24.1426 25.8826 24.1455 25.7657 24.1719 25.6248C24.2892 24.9523 24.4007 24.2799 24.5033 23.6074C24.6382 22.7356 24.8758 21.8983 25.4506 21.1647C25.8876 20.6039 25.9668 19.9606 25.9551 19.2988C25.9551 19.2828 25.9316 19.2669 25.9111 19.2377C25.2482 19.5992 24.5766 19.5646 23.8727 19.227C23.9578 19.5619 24.0135 19.8623 24.1132 20.1493C24.5326 21.3667 24.4916 22.5974 24.2305 23.8307C24.125 24.3277 23.685 24.4845 23.2598 24.1603C22.8316 23.836 22.4004 23.4904 22.0661 23.0864C21.5382 22.4459 21.0894 21.7521 20.6143 21.077C20.1656 20.4391 19.6641 19.8463 18.9866 19.3918C18.0451 18.7619 16.9658 18.4801 15.8279 18.3366C14.992 18.2303 14.1943 18.0389 13.5637 17.4993C12.7924 16.8375 11.9008 16.8667 11.0884 17.2176C10.4314 17.502 9.76566 17.7625 9.0999 18.0309C8.98259 18.0788 8.85941 18.1213 8.6981 18.1851ZM25.1573 1.16601C25.0928 1.23777 25.0547 1.27498 25.0224 1.31485C24.1748 2.4126 23.3067 3.49972 22.4884 4.61342C21.7552 5.61016 21.0689 6.63349 20.5498 7.74187C20.2096 8.47016 20.0453 9.21971 20.192 10.0038C20.2506 10.3148 20.3768 10.6152 20.4941 10.9128C20.5469 11.0457 20.6583 11.059 20.7551 10.9341C21.0337 10.5726 21.4443 10.3812 21.8843 10.243C23.3008 9.79383 24.7438 9.72207 26.2044 10.0331C27.7705 10.3653 28.9202 11.1255 29.3601 12.6007C29.3719 12.6379 29.3983 12.6698 29.4364 12.7309C29.5244 12.614 29.6006 12.5262 29.6622 12.4279C30.2986 11.4258 30.4482 10.3494 30.2664 9.22236C30.1227 8.32396 29.7209 7.51062 29.2399 6.72652C28.2075 5.04401 26.9698 3.48378 25.7498 1.91025C25.5621 1.66571 25.3685 1.42915 25.1573 1.16601ZM11.9418 4.87656C11.9301 4.94301 11.9184 4.97491 11.9184 5.00946C11.9096 5.66067 11.8949 6.31453 11.9008 6.96574C11.9096 7.87211 12.0504 8.75988 12.4463 9.60246C12.5226 9.7646 12.6105 9.83636 12.8217 9.84168C14.209 9.8656 15.341 10.3892 16.171 11.3833C16.5494 11.8378 16.8515 12.3482 17.1448 12.8558C17.57 13.5974 17.9542 14.3576 18.3648 15.1072C18.4117 15.1922 18.5144 15.2932 18.6082 15.3092C19.057 15.3916 19.5116 15.45 19.9691 15.5165C19.9222 15.2188 19.887 14.9105 19.8254 14.6074C19.8019 14.4985 19.7433 14.3789 19.6611 14.3018C19.1948 13.8765 18.7901 13.4087 18.5115 12.8611C18.1214 12.0877 17.7489 11.3089 17.3647 10.5328C16.5523 8.89012 15.3528 7.54518 13.6986 6.52717C13.2176 6.22948 12.807 5.84141 12.3642 5.49056C12.2381 5.39221 12.2205 5.29652 12.3935 5.20881C12.4228 5.22476 12.4551 5.23539 12.4698 5.25665C12.9625 5.83078 13.6341 6.21884 14.2647 6.64677C15.0947 7.21293 15.8543 7.84287 16.4409 8.62698C17.1946 9.62904 17.746 10.7241 18.2592 11.8378C18.5994 12.5714 18.9631 13.2917 19.5732 13.8845C19.6318 13.9403 19.6993 13.9908 19.7814 14.0626C19.7931 13.9988 19.799 13.9802 19.799 13.9589C19.7755 13.1668 19.9251 12.4066 20.2976 11.6863C20.3269 11.6305 20.3122 11.5322 20.277 11.4763C19.7638 10.6789 19.5644 9.8151 19.7403 8.9167C19.8283 8.45952 19.6494 8.15385 19.362 7.84287C19.2476 7.71794 19.1274 7.59568 18.9925 7.4867C17.3413 6.16036 15.4437 5.30449 13.2499 5.01477C12.8158 4.9563 12.3818 4.92175 11.9418 4.87656ZM23.7349 18.6848C22.7641 17.898 21.8168 17.0395 20.6876 16.383C20.0776 16.0295 19.4206 15.8009 18.6962 15.7451C17.7782 15.676 17.0098 15.3065 16.4057 14.6978C15.9775 14.2672 15.5845 13.8047 15.2296 13.321C14.6548 12.5342 13.8629 12.0584 12.8716 11.8139C12.3671 11.689 11.8627 11.5561 11.3787 11.378C10.6455 11.1095 10.1117 10.655 9.93284 9.92408C9.91818 9.8656 9.88298 9.79915 9.83312 9.76726C9.69234 9.67423 9.27001 9.72473 9.09698 9.84699C8.90047 9.98255 8.86528 10.1713 8.95033 10.3626C9.04712 10.5779 9.15856 10.7906 9.29641 10.9873C10.1059 12.1408 11.0649 13.1881 12.1413 14.145C14.4817 16.2182 17.265 17.6136 20.368 18.5094C21.0015 18.6928 21.6526 18.831 22.3271 18.8018C22.7934 18.7778 23.2627 18.7247 23.7349 18.6848ZM24.21 13.7542C24.43 13.7011 24.4622 13.7835 24.4505 13.9376C24.3567 15.3145 24.3596 16.6887 24.5121 18.0602C24.5356 18.2834 24.5972 18.5041 24.6411 18.7273C24.6705 18.7247 24.6998 18.722 24.7291 18.7194C25.0693 17.0767 25.3186 15.4288 24.9051 13.7542C25.0547 13.6958 25.1339 13.7489 25.1603 13.8792C25.2277 14.2141 25.3304 14.5463 25.348 14.8839C25.4066 15.9285 25.3128 16.9677 25.128 17.999C25.0693 18.3313 24.9872 18.6635 24.9139 19.0038C25.1573 19.0038 25.1955 18.8363 25.2541 18.6981C25.6676 17.7014 25.8788 16.6674 25.9756 15.6095C26.0284 15.0248 26.0049 14.448 25.7615 13.8925C25.7351 13.8313 25.7674 13.7489 25.7732 13.6745C25.8436 13.7197 25.9639 13.7569 25.9815 13.8154C26.0812 14.1769 26.222 14.5437 26.2337 14.9105C26.2777 16.0986 26.0284 17.2522 25.6354 18.3818C25.6207 18.427 25.6061 18.4748 25.5914 18.5227C25.6647 18.4828 25.7087 18.4323 25.741 18.3791C25.7908 18.2914 25.8348 18.2011 25.8729 18.108C26.1868 17.3452 26.3686 16.5584 26.4713 15.753C26.5504 15.1258 26.5504 14.5064 26.2806 13.9111C26.2366 13.8154 26.1926 13.7223 26.1457 13.624C26.3569 13.5097 26.4185 13.6479 26.4713 13.7596C26.7059 14.2593 26.788 14.7855 26.7499 15.3198C26.6766 16.3218 26.4918 17.3053 26.0431 18.2329C26.0313 18.2595 26.0313 18.2888 26.0255 18.318C26.1076 18.2515 26.1662 18.1745 26.2161 18.0974C26.7088 17.3213 27.0549 16.4946 27.2103 15.6122C27.3452 14.8493 27.2925 14.1024 26.8173 13.4246C27.0256 13.313 27.0813 13.3263 27.1957 13.5575C27.5388 14.246 27.5828 14.9689 27.442 15.7025C27.2514 16.7073 26.8261 17.6243 26.1985 18.4722C26.5123 18.2675 26.8173 18.0549 27.005 17.7332C27.3834 17.082 27.6297 16.3883 27.7852 15.668C27.9641 14.8414 27.9289 14.0333 27.4479 13.2811C27.5681 13.1615 27.6737 13.1721 27.7382 13.313C27.8438 13.5549 27.9612 13.7994 28.0286 14.0519C28.2368 14.844 28.0667 15.6148 27.835 16.3803C27.7441 16.6754 27.6327 16.9651 27.5183 17.2867C27.5652 17.2495 27.5887 17.2389 27.6004 17.2229C27.6297 17.1804 27.6561 17.1379 27.6825 17.0927C28.0403 16.4415 28.2808 15.753 28.448 15.0434C28.5741 14.5091 28.6034 13.9748 28.4568 13.4406C28.4099 13.2678 28.3424 13.1004 28.2984 12.9303C28.2867 12.8877 28.3277 12.8346 28.3453 12.7867C28.3893 12.808 28.448 12.8213 28.4715 12.8558C28.5242 12.9329 28.5682 13.018 28.6005 13.1057C28.7735 13.5841 28.8263 14.0759 28.7589 14.5756C28.6562 15.3411 28.3952 16.0667 28.1019 16.787C28.0814 16.8402 28.0638 16.8933 28.0315 16.9864C29.1401 16.0959 29.4921 13.2147 28.6474 12.2153C27.5066 13.1509 26.1252 13.4565 24.6353 13.406C23.1571 13.3555 21.7787 13.0313 20.6613 12.0133C20.1363 13.1588 20.1861 14.3151 20.3914 15.4819C20.4208 15.4421 20.4208 15.3995 20.4208 15.3597C20.4237 14.8786 20.3768 14.3922 20.4442 13.919C20.5029 13.5124 20.6876 13.119 20.8314 12.7256C20.8812 12.59 20.9927 12.5369 21.1158 12.6538C21.0044 12.8798 20.8783 13.0844 20.7991 13.305C20.5234 14.0971 20.5498 14.8972 20.7463 15.6999C20.7932 15.8913 20.7932 15.8939 20.9809 15.9258C20.9516 15.4208 20.8988 14.9051 20.9017 14.3922C20.9047 13.8738 21.0396 13.3768 21.3065 12.9143C21.5147 12.9701 21.4531 13.0738 21.4091 13.1748C20.9868 14.1476 21.0455 15.1337 21.3182 16.1198C21.3475 16.2288 21.4795 16.3139 21.5646 16.4096C21.588 16.3963 21.6144 16.383 21.6379 16.3697C21.6291 16.3112 21.6232 16.2501 21.6115 16.1916C21.4707 15.5351 21.3475 14.8759 21.459 14.2061C21.5088 13.9137 21.6086 13.6293 21.7024 13.3449C21.72 13.2917 21.808 13.2598 21.8637 13.2173C21.8755 13.2785 21.9136 13.3502 21.8931 13.4007C21.4766 14.44 21.6555 15.4713 21.9341 16.4999C21.9928 16.7126 22.1599 16.8402 22.4034 16.9412C22.3916 16.8694 22.3887 16.8269 22.374 16.7897C22.1453 16.0454 22.0338 15.2879 22.0749 14.5171C22.0925 14.1795 22.1629 13.8419 22.2303 13.5097C22.2655 13.3396 22.3066 13.3369 22.4855 13.414C22.4767 13.4459 22.4679 13.4805 22.4591 13.515C22.1541 14.7111 22.2949 15.8806 22.7055 17.0342C22.7524 17.1698 22.8726 17.284 22.9577 17.409C22.9782 17.3983 22.9958 17.3877 23.0163 17.3771C22.9929 17.3027 22.9753 17.2282 22.9489 17.1565C22.6497 16.3537 22.5266 15.5271 22.5881 14.6845C22.6145 14.3284 22.7319 13.9775 22.8169 13.6267C22.8462 13.507 22.9225 13.4379 23.031 13.4964C22.9547 13.9855 22.8404 14.4506 22.814 14.9211C22.7641 15.8408 22.9929 16.7259 23.3272 17.5871C23.3947 17.7598 23.5648 17.9007 23.688 18.0575C23.7085 18.0469 23.7261 18.0362 23.7466 18.0256C23.7408 17.9857 23.7378 17.9459 23.732 17.9087C23.6088 17.2389 23.4533 16.5717 23.3712 15.8966C23.2862 15.1975 23.295 14.4932 23.4709 13.8021C23.4827 13.7516 23.5736 13.7144 23.6264 13.6718C23.6498 13.7277 23.7026 13.7861 23.6968 13.8393C23.6704 14.0865 23.6176 14.331 23.597 14.5782C23.5003 15.8089 23.6821 17.0129 24.0722 18.1904C24.1074 18.2967 24.2012 18.3898 24.2657 18.4881C24.125 16.8907 24.0898 15.3225 24.21 13.7542ZM29.6387 14.8334C29.7209 14.751 29.7766 14.7031 29.8206 14.6473C30.413 13.9004 31.026 13.1615 31.592 12.3987C32.1082 11.7049 32.5511 10.9687 33.0731 10.2802C33.6098 9.57322 34.3548 9.01504 34.8182 8.24157C35.0939 7.78439 35.3549 7.36177 35.352 6.8222C35.3461 6.1072 35.4898 5.41081 35.8271 4.75695C35.8388 4.73568 35.8329 4.7091 35.8388 4.63734C35.088 4.98553 34.3636 5.30449 33.6597 5.65269C32.4719 6.2401 31.3633 6.92587 30.5421 7.93059C30.4599 8.02893 30.4394 8.10867 30.4717 8.23625C30.5861 8.66951 30.7239 9.10276 30.7708 9.54399C30.9145 10.8942 30.5802 12.1329 29.6417 13.2173C29.5889 13.2785 29.5772 13.3795 29.5801 13.4619C29.5889 13.6958 29.627 13.927 29.6387 14.1609C29.6475 14.3656 29.6387 14.5756 29.6387 14.8334ZM26.4654 18.823C26.9874 18.8921 27.1487 18.8735 27.4215 18.6848C28.6885 17.813 30.1256 17.2734 31.6448 16.8933C32.5481 16.6674 33.4691 16.4946 34.3225 16.1198C35.4546 15.6255 36.4049 14.9184 37.2466 14.0838C38.3288 13.0127 39.2791 11.8538 40.0387 10.57C40.1706 10.3494 40.3173 10.0995 40.112 9.85231C39.9038 9.5998 39.587 9.64233 39.2908 9.66094C39.2761 9.66094 39.2556 9.66094 39.2439 9.66891C39.1647 9.72473 39.0474 9.76726 39.0122 9.84168C38.6338 10.6205 38.0355 11.2212 37.2613 11.6863C36.8771 11.9176 36.484 12.1382 36.1028 12.3747C35.5661 12.7043 35.1496 13.1323 34.8944 13.6772C34.2404 15.0779 33.0937 15.9923 31.5187 16.4707C30.108 16.8986 28.7677 17.4488 27.5476 18.2276C27.2191 18.4349 26.8613 18.6051 26.4654 18.823ZM28.6152 17.0847C28.624 17.0927 28.6328 17.098 28.6445 17.106C29.0346 16.9305 29.4158 16.7365 29.8176 16.5877C30.4248 16.3617 31.0465 16.1703 31.6595 15.9551C32.9265 15.5085 33.865 14.7536 34.4164 13.6054C34.5953 13.2359 34.8651 12.8904 35.1437 12.5714C35.5602 12.0983 36.1497 11.8112 36.7099 11.5029C37.3316 11.1574 37.8713 10.7348 38.3024 10.2005C38.3728 10.1155 38.4197 10.0171 38.4989 9.88686C38.3992 9.89749 38.364 9.90015 38.3259 9.90547C37.6367 10.0331 36.9474 10.1633 36.2582 10.2909C35.3784 10.453 34.566 10.7348 33.8914 11.2983C33.3107 11.782 32.8796 12.3641 32.554 13.002C31.9 14.2752 30.9615 15.3331 29.7443 16.1969C29.3543 16.476 28.9906 16.7897 28.6152 17.0847ZM29.234 16.0188C29.2457 16.0268 29.2545 16.0374 29.2663 16.0454C29.366 15.9683 29.4657 15.8886 29.5654 15.8142C30.5039 15.1098 31.2929 14.2938 31.8501 13.305C32.0202 13.002 32.1874 12.6964 32.3692 12.3987C33.1728 11.0909 34.3401 10.2111 35.9854 9.9161C36.2553 9.86826 36.3931 9.75397 36.4958 9.52538C37.2173 7.93324 37.2525 6.26403 37.2085 4.58418C37.2026 4.33433 36.9797 4.22535 36.7275 4.36622C36.572 4.45394 36.4371 4.60544 36.3491 4.75429C35.9591 5.41879 35.7978 6.13644 35.8124 6.88865C35.8242 7.52125 35.569 8.04753 35.0821 8.49142C34.8944 8.66153 34.7243 8.84494 34.5425 9.02036C33.4515 10.0782 32.5951 11.2876 31.7739 12.5236C31.2753 13.2758 30.6858 13.9802 30.0904 14.6712C29.7795 15.0327 29.4158 15.349 29.3337 15.8301C29.3249 15.8992 29.2692 15.9577 29.234 16.0188ZM24.2628 10.3759C24.2599 10.352 24.254 10.3281 24.2511 10.3042C23.8346 10.344 23.4181 10.3626 23.0075 10.4291C22.3975 10.5274 21.7992 10.6763 21.3035 11.0404C20.9545 11.2956 20.9281 11.6278 21.2625 11.8963C21.5176 12.101 21.8051 12.2844 22.113 12.4173C23.3067 12.9382 24.5678 13.0605 25.8671 12.8691C26.6531 12.7522 27.4068 12.5449 28.0462 12.085C28.4187 11.8166 28.4245 11.6571 28.0902 11.3594C27.5153 10.8464 26.7792 10.6311 26.0225 10.461C25.8348 10.4185 25.6413 10.4078 25.4477 10.3813C25.5063 10.4371 25.5738 10.453 25.6383 10.4769C25.8114 10.5381 25.9257 10.6444 25.9375 10.8225C25.9492 11.0085 25.8759 11.16 25.6999 11.2557C25.2482 11.495 24.7702 11.4817 24.2951 11.3248C24.0604 11.2478 23.861 11.1149 23.8434 10.857C23.8346 10.5966 24.0135 10.4583 24.2628 10.3759ZM17.7343 15.1311C17.7518 15.1125 17.7724 15.0939 17.79 15.0779C17.7782 15.046 17.7665 15.0141 17.7518 14.9849C17.3706 14.246 17.0069 13.4991 16.5992 12.7761C16.3617 12.3561 16.0889 11.9415 15.7575 11.58C15.0214 10.764 14.0682 10.2882 12.8804 10.2537C12.1266 10.2297 11.3846 10.1367 10.6631 9.93205C10.5869 9.91079 10.5048 9.89484 10.3904 9.86826C10.5282 10.3228 10.8068 10.6444 11.2145 10.8251C11.6955 11.0378 12.1999 11.2318 12.7191 11.3381C14.0799 11.6225 15.0888 12.2844 15.8191 13.3662C16.1417 13.8419 16.5963 14.2486 17.0216 14.6606C17.221 14.852 17.4938 14.9769 17.7343 15.1311ZM24.3655 10.8783C24.5444 11.0192 25.1955 11.0271 25.3978 10.8996C25.2189 10.671 24.647 10.6524 24.3655 10.8783Z" fill="#FFEB61"/>
<path d="M27.8405 29.8801C27.7291 29.8056 27.6528 29.7791 27.6147 29.7259C27.5707 29.6648 27.556 29.5824 27.5297 29.5079C27.3214 28.8674 26.8932 28.4182 26.1805 28.2082C26.0339 28.1657 25.8902 28.1231 25.8872 27.9477C25.8843 27.767 26.0427 27.759 26.1747 27.7165C26.8932 27.4826 27.3918 27.0599 27.5854 26.3715C27.6206 26.2466 27.6763 26.1296 27.8464 26.1296C28.0136 26.1323 28.0664 26.2439 28.0986 26.3742C28.2687 27.0653 28.7556 27.4905 29.4829 27.7005C29.6354 27.7457 29.744 27.8095 29.7498 27.961C29.7557 28.1178 29.612 28.1391 29.4888 28.171C28.7116 28.381 28.2629 28.8674 28.04 29.5558C28.0106 29.6648 27.9256 29.7551 27.8405 29.8801ZM27.7995 28.7424C28.0986 28.474 28.4183 28.1869 28.7497 27.8919C28.3596 27.7191 28.0517 27.448 27.8787 27.1131C27.5648 27.4028 27.254 27.6899 26.9753 27.9477C27.2452 28.2109 27.5296 28.4846 27.7995 28.7424Z" fill="#FFEB61"/>
<path d="M21.0422 4.14301C21.0159 4.16428 20.9601 4.24136 20.8868 4.26262C20.1976 4.45665 19.7489 4.84472 19.5934 5.49859C19.5758 5.57036 19.4497 5.65806 19.3646 5.6687C19.3001 5.67667 19.1887 5.58364 19.1506 5.51454C19.0508 5.33645 19.0039 5.13179 18.8954 4.95902C18.693 4.63209 18.3851 4.41413 17.9745 4.32376C17.8249 4.29186 17.6871 4.24402 17.69 4.0739C17.6929 3.91442 17.822 3.87722 17.9598 3.82937C18.5229 3.63268 18.9306 3.29777 19.0802 2.74757C19.089 2.71036 19.0948 2.66518 19.1212 2.64125C19.1945 2.58012 19.2767 2.48975 19.3559 2.48975C19.4321 2.48975 19.5377 2.57215 19.5817 2.64125C19.6462 2.74226 19.6491 2.8725 19.7078 2.97881C19.9395 3.41738 20.3149 3.70976 20.834 3.84532C21.0247 3.89051 21.0422 3.91709 21.0422 4.14301ZM19.9542 4.08454C19.7547 3.89848 19.5201 3.68053 19.3588 3.52902C19.1887 3.68584 18.9541 3.90911 18.74 4.11112C18.8954 4.25731 19.133 4.47526 19.3207 4.64803C19.5494 4.44602 19.7899 4.23073 19.9542 4.08454Z" fill="#FFEB61"/>
<path d="M30.5388 4.77826C30.486 4.71978 30.4068 4.66663 30.3804 4.60018C30.2455 4.22806 30.0461 3.89315 29.6765 3.66988C29.5387 3.58748 29.3715 3.5423 29.2337 3.4599C29.1486 3.4094 29.046 3.31902 29.043 3.24194C29.0401 3.17017 29.1398 3.05323 29.2249 3.02399C29.7968 2.83262 30.1927 2.49771 30.3892 1.96611C30.4186 1.88637 30.5447 1.78005 30.6121 1.78802C30.6942 1.796 30.8028 1.90497 30.8292 1.98737C30.9846 2.51099 31.3747 2.8273 31.9055 3.01867C32.0258 3.0612 32.1313 3.09841 32.1284 3.23929C32.1255 3.36953 32.0346 3.43066 31.9114 3.47053C31.3189 3.66191 30.9611 4.04465 30.8027 4.58688C30.7676 4.69852 30.7206 4.76231 30.5388 4.77826ZM31.1078 3.23131C30.9729 3.09576 30.7646 2.88577 30.5711 2.68908C30.3658 2.86717 30.1487 3.05323 29.9962 3.18879C30.1927 3.37484 30.4097 3.57951 30.5828 3.7443C30.7412 3.59014 30.9494 3.38814 31.1078 3.23131Z" fill="#FFEB61"/>
<path d="M39.7539 8.00489C39.0382 7.99958 38.4839 7.47861 38.4898 6.82475C38.4957 6.19215 39.0852 5.68182 39.7949 5.68979C40.5105 5.70042 41.0678 6.21607 41.059 6.85664C41.0502 7.50519 40.4753 8.01021 39.7539 8.00489ZM39.7715 7.60088C40.2231 7.59822 40.6102 7.25002 40.6044 6.84867C40.5985 6.44997 40.2173 6.10709 39.7773 6.10709C39.3227 6.10709 38.9327 6.45263 38.9356 6.85133C38.9415 7.26597 39.3169 7.60088 39.7715 7.60088Z" fill="#FFEB61"/>
<path d="M23.2598 20.9708C23.2598 21.3376 22.9695 21.6113 22.5823 21.614C22.1776 21.6166 21.8638 21.3376 21.8638 20.9734C21.8638 20.6093 22.1688 20.3275 22.5647 20.3328C22.9753 20.3328 23.2627 20.596 23.2598 20.9708ZM22.8932 20.9734C22.8961 20.806 22.7495 20.6704 22.5647 20.6704C22.3946 20.6704 22.2509 20.806 22.245 20.9708C22.2392 21.1356 22.3799 21.2711 22.5559 21.2711C22.7407 21.2711 22.8903 21.1409 22.8932 20.9734Z" fill="#FFEB61"/>
<path d="M39.8951 16.5637C39.1384 16.561 38.5401 15.9922 38.5489 15.2772C38.5577 14.5516 39.1296 14.0412 39.9362 14.0386C40.6987 14.0359 41.3029 14.5782 41.3029 15.2692C41.3087 16.0002 40.6928 16.5637 39.8951 16.5637ZM40.5579 15.2666C40.5579 14.9662 40.2705 14.7217 39.9127 14.7217C39.5725 14.7217 39.2997 14.9795 39.3027 15.2985C39.3027 15.6174 39.549 15.8487 39.8922 15.854C40.2793 15.862 40.5579 15.6174 40.5579 15.2666Z" fill="#FFEB61"/>
<path d="M8.65108 16.8268C8.53963 16.7524 8.46338 16.7258 8.42525 16.6727C8.38126 16.6115 8.36659 16.5291 8.3402 16.4547C8.13197 15.8141 7.70377 15.3649 6.99108 15.155C6.84444 15.1124 6.70073 15.0699 6.69779 14.8945C6.69486 14.7137 6.85324 14.7058 6.98522 14.6632C7.70377 14.4293 8.20236 14.0067 8.39592 13.3183C8.43112 13.1934 8.48685 13.0764 8.65695 13.0764C8.82413 13.0791 8.87691 13.1907 8.90917 13.321C9.07928 14.012 9.56614 14.4373 10.2935 14.6473C10.446 14.6925 10.5545 14.7563 10.5604 14.9078C10.5662 15.0646 10.4225 15.0859 10.2994 15.1178C9.52215 15.3277 9.07342 15.8141 8.85052 16.5026C8.82413 16.6115 8.73613 16.7019 8.65108 16.8268ZM8.61003 15.6892C8.90918 15.4208 9.22886 15.1337 9.56027 14.8387C9.1702 14.6659 8.86225 14.3948 8.68921 14.0599C8.37539 14.3496 8.06451 14.6367 7.78589 14.8945C8.05572 15.1576 8.3402 15.4314 8.61003 15.6892Z" fill="#FFEB61"/>
</svg>
