<svg width="48" height="49" viewBox="0 0 48 49" fill="none" xmlns="http://www.w3.org/2000/svg">
<path d="M13.8093 20.3655C13.697 20.2512 13.6409 20.1941 13.5847 20.1941C12.0688 19.2797 11.5635 17.7939 11.395 16.1367C11.395 15.851 11.4512 15.5652 11.7319 15.4509C13.1356 14.8795 15.213 14.7652 16.5605 16.1938C17.4027 17.051 17.7957 18.0797 17.908 19.2797C17.908 19.394 17.908 19.5655 18.1325 19.6226C20.0415 19.9083 21.5575 20.8798 22.905 22.2513C23.0734 22.4227 23.2418 22.5942 23.4103 22.8228C23.4103 22.6513 23.4103 22.5942 23.4103 22.4799C23.4103 22.0227 23.4103 21.6227 23.4103 21.1655C23.5226 19.3369 22.8488 17.6796 22.3435 16.0224C22.2874 15.851 22.1751 15.851 22.0066 15.7938C21.2206 15.7367 20.4345 15.7367 19.6485 15.5652C17.7395 15.2224 16.7289 13.908 16.3359 12.0222C16.2236 11.5079 16.1113 11.0507 15.8306 10.5935C15.2129 9.5649 15.1568 8.42198 15.2129 7.22191C15.2129 6.87904 15.4937 6.76474 15.7744 6.7076C17.9641 6.42187 19.8731 7.96481 20.0977 10.1935C20.1538 10.5364 20.0977 10.8793 20.1538 11.2221C20.1538 11.2793 20.2099 11.3936 20.2661 11.4507C21.3329 12.1365 22.0066 13.2222 22.5681 14.3652C22.7365 14.708 22.9611 14.8795 23.298 14.7652C23.4103 14.708 23.5787 14.7652 23.691 14.708C23.8033 14.6509 23.9156 14.5937 23.9156 14.5366C24.1963 13.7937 24.4209 13.0508 24.6455 12.2508C24.6455 12.1936 24.5893 12.0222 24.5332 11.965C24.1402 11.6222 23.691 11.2793 23.3541 10.9364C21.7259 9.22202 21.3329 7.27906 22.0628 4.99322C22.2874 4.30746 22.5681 3.67886 23.0173 3.16455C23.298 2.82167 23.4664 2.76452 23.8595 2.99311C24.7016 3.45027 25.4877 4.02174 26.0491 4.76464C26.6668 5.56468 27.0036 6.53616 27.0598 7.50764C27.0598 7.62193 27.0598 7.67908 27.0598 7.85052C27.1721 7.73622 27.2844 7.67908 27.3405 7.62194C28.4634 6.82189 29.6425 6.47901 30.99 6.59331C31.4392 6.65045 31.6076 6.76474 31.5515 7.22191C31.4953 8.02196 31.383 8.87915 31.2707 9.67919C31.1023 10.4792 30.7093 11.165 30.1478 11.7364C30.0917 11.7936 30.0355 11.8507 29.9794 11.965C30.204 12.0793 30.4285 12.1365 30.597 12.2508C29.4741 13.6223 28.0704 14.5366 26.4422 15.0509C25.9368 15.2224 25.3754 15.3938 24.8139 15.5081C24.5332 15.5652 24.4771 15.6795 24.4209 15.9652C24.1963 17.5082 24.1402 19.0511 24.1402 20.5941C24.1402 21.1084 24.1402 21.6798 24.1402 22.3085C25.0385 21.4513 25.8807 20.7655 26.8913 20.3083C27.902 19.794 28.9687 19.4512 29.9794 19.2797C30.1478 18.7083 30.2039 18.0797 30.4285 17.5653C31.2707 15.5652 32.9551 14.708 35.0887 15.1652C35.4255 15.2224 35.7624 15.3366 36.0993 15.4509C36.38 15.5652 36.5485 15.7938 36.4923 16.0795C36.4362 17.1082 36.2116 18.1368 35.6501 19.0511C35.5378 19.2797 35.3694 19.4512 35.2571 19.6226C35.8747 19.6797 36.5485 19.6797 37.1661 19.794C37.5591 19.8512 37.9521 20.0226 38.3451 20.1941C38.6259 20.3083 38.7382 20.5369 38.7382 20.8227C38.7943 22.8799 37.2784 24.8229 35.3132 25.2229C34.3026 25.4515 33.292 25.2229 32.3375 24.8229C32.1129 24.7086 32.0006 24.5371 31.9445 24.3086C31.8883 23.0514 32.2252 21.9084 33.0674 20.9941C33.1236 20.937 33.1797 20.8798 33.292 20.7655C32.8428 20.7084 32.3937 20.7084 32.0006 20.6512C31.5515 20.5941 31.1584 20.4226 30.7093 20.3655C30.4847 20.3084 30.2601 20.2512 30.0355 20.3083C27.7897 20.7084 25.8807 21.7941 24.3086 23.4514C24.084 23.68 24.0279 23.9085 24.0279 24.2514C24.0279 26.423 24.0279 28.5374 24.0279 30.6518C24.0279 30.7661 24.0279 30.8232 24.0279 30.9946C25.4877 28.766 27.3966 27.2802 29.9232 26.7658C29.8671 26.423 29.7548 26.1372 29.6986 25.7944C29.3618 24.1943 29.5302 22.5942 30.204 21.1084C30.4285 20.6512 30.4285 20.6512 30.8216 20.8798C30.99 20.937 31.1584 20.9941 31.2707 21.0512C31.0461 21.737 30.7654 22.4228 30.597 23.0514C30.3163 24.1371 30.4847 25.2229 30.8216 26.3087C30.8777 26.5373 30.99 26.6516 31.2707 26.6516C32.4498 26.6516 33.5166 26.9944 34.3588 27.7945C35.0887 28.4802 35.5378 29.3374 35.5378 30.4232C35.5378 31.1089 35.3132 31.3375 34.5833 31.2232C33.5166 30.9947 32.5059 30.5375 31.776 29.7374C31.2707 29.2231 30.8216 28.5374 30.4285 27.9659C30.3162 27.7945 30.204 27.7373 29.9794 27.7945C27.1159 28.5945 25.0947 30.4232 24.0279 33.2805C23.9717 33.4519 23.9717 33.6234 23.9717 33.7948C23.9717 37.795 23.9717 41.7952 23.9717 45.7955C23.9717 45.9098 23.9717 46.024 23.9717 46.1383C23.8594 46.1383 23.7471 46.1383 23.6349 46.1383C21.1083 46.1383 18.5817 46.1383 16.1113 46.1383C15.4937 46.1383 15.4937 46.1383 15.2691 45.5097C15.3814 45.4526 15.5498 45.3954 15.6621 45.3383C19.0309 43.9096 21.2206 41.3952 22.2874 37.8522C22.6242 36.7664 22.8488 35.6806 23.0734 34.5377C23.1295 34.252 23.0734 33.9091 23.0173 33.5662C22.5681 31.5661 21.6698 29.8517 20.0977 28.5945C19.1993 27.9088 18.1887 27.5087 17.0096 27.3373C16.7289 27.2802 16.6727 27.3944 16.6166 27.6802C16.2797 29.1088 15.5498 30.3089 14.2585 31.1089C13.6409 31.509 12.911 31.7376 12.1811 31.7947C11.6757 31.8518 11.395 31.6233 11.4512 31.1089C11.5073 29.3374 12.2933 27.9659 13.8093 27.1087C14.3146 26.823 14.9322 26.6516 15.4937 26.4801C15.7183 26.423 15.8306 26.3087 15.8306 26.0801C15.9428 24.9372 15.7183 23.9085 15.1568 22.8799C14.7076 22.137 14.09 21.6798 13.304 21.3941C13.0794 21.337 12.8548 21.2227 12.8548 20.8798C13.2478 20.4226 13.4724 20.3084 13.8093 20.3655ZM23.4103 30.5946C23.4103 28.5374 23.4103 26.5373 23.4103 24.48C23.4103 24.3657 23.3541 24.1943 23.2418 24.0228C22.4558 22.8228 21.4452 21.8513 20.21 21.1655C19.1432 20.5941 17.9641 20.1369 16.6727 20.3655C16.3359 20.4226 15.9428 20.4798 15.5498 20.5369C15.3252 20.5941 15.1007 20.5941 14.7638 20.5941C15.7744 21.2227 16.3359 22.0227 16.6727 22.9942C17.0096 23.9657 17.1219 24.9943 17.0096 26.0229C20.0977 26.3658 22.0066 28.0231 23.4103 30.5946ZM25.1508 11.0507C25.4315 10.4221 25.7123 9.85063 25.9368 9.27917C26.2176 8.53627 26.2737 7.79337 26.1053 6.99333C25.8246 5.56468 24.9262 4.65034 23.8033 3.90745C23.6349 3.79315 23.5787 3.90744 23.5226 4.02174C23.0734 4.93607 22.7365 5.85041 22.7365 6.87904C22.7365 8.76485 23.691 10.0221 25.1508 11.0507ZM23.4103 38.195C22.5119 40.9381 20.9399 43.2239 18.4694 44.8811C20.1538 44.8811 21.782 44.8811 23.4103 44.8811C23.4103 42.6524 23.4103 40.4237 23.4103 38.195ZM36.3239 20.4226C34.5833 20.4798 33.2358 21.7941 33.2358 23.5657C33.2358 23.7371 33.2358 23.9085 33.4604 23.9657C34.1903 24.1943 34.9202 24.2514 35.6501 24.0228C37.2222 23.6228 37.8398 22.0799 38.0083 20.937C38.0083 20.8798 37.896 20.7084 37.8398 20.7084C37.2784 20.5941 36.8292 20.4798 36.3239 20.4226ZM30.7654 7.4505C28.7442 7.3362 26.4422 9.27917 26.1053 11.4507C26.8352 11.7364 27.6212 11.7936 28.4073 11.6222C29.1372 11.4507 29.7548 11.0507 30.1478 10.3649C30.597 9.45061 30.7093 8.47912 30.7654 7.4505ZM15.7183 19.6226C16.0552 19.5655 16.392 19.5083 16.785 19.4512C16.9535 19.394 17.0658 19.3369 17.0096 19.1083C16.8973 18.3082 16.6166 17.5653 16.1113 16.9367C15.1007 15.7367 13.5847 15.7938 12.4618 16.1367C12.4056 16.1367 12.3495 16.3081 12.3495 16.3653C12.4618 16.7653 12.5179 17.1653 12.6302 17.5653C12.9671 18.5368 13.6409 19.2797 14.7076 19.5083C15.0445 19.5083 15.3814 19.5655 15.7183 19.6226ZM35.9309 16.0795C35.3133 16.0224 34.8079 15.9081 34.2465 15.9081C33.4043 15.851 32.6182 16.1938 32.0568 16.8796C31.5515 17.5082 31.3269 18.1939 31.2146 18.994C31.2146 19.0511 31.2707 19.2226 31.383 19.2226C31.6638 19.3369 31.9445 19.4512 32.2814 19.5083C33.685 19.794 34.8641 19.1654 35.3694 17.8511C35.6501 17.2796 35.7624 16.7082 35.9309 16.0795ZM17.2904 11.6222C17.5149 12.8794 18.0203 13.8508 19.2555 14.308C19.7608 14.4795 20.3784 14.5937 20.9399 14.708C21.2206 14.7652 21.5013 14.708 21.8382 14.708C20.8276 12.5365 19.4801 11.4507 17.2904 11.6222ZM19.3116 10.8221C19.4239 9.10773 18.0203 7.56479 16.392 7.62194C16.1674 7.62194 16.1674 7.73622 16.1674 7.85052C16.1674 8.65056 16.3359 9.39346 16.785 10.0792C16.8973 10.2506 17.1219 10.4792 17.3465 10.5364C17.9641 10.6507 18.6379 10.7078 19.3116 10.8221ZM12.7987 30.4232C14.09 30.5375 16.0552 28.4802 15.999 27.1659C14.4269 27.3373 12.7425 29.0517 12.7987 30.4232ZM24.9824 14.4223C26.386 14.1937 28.4073 13.2794 28.9126 12.5936C28.8003 12.5936 28.6319 12.6508 28.5196 12.6508C27.6212 12.7651 26.779 12.7079 25.9368 12.4793C25.8807 12.4793 25.6561 12.4793 25.6561 12.5365C25.4315 13.108 25.207 13.7366 24.9824 14.4223ZM34.9202 29.966C34.9202 28.7088 33.0674 27.223 31.8322 27.4516C32.1691 28.5374 33.7973 29.8517 34.9202 29.966ZM23.2418 15.6795C23.3541 15.9652 23.4664 16.1938 23.5787 16.4224H23.6349C23.6349 16.1938 23.691 15.9081 23.691 15.6795C23.5787 15.6795 23.4664 15.6795 23.2418 15.6795Z" fill="#FFEB61" stroke="#FFEB61" stroke-width="0.5" stroke-miterlimit="10"/>
<path d="M9.76666 19.7368C11.0019 19.794 12.2932 20.194 13.1916 21.394C13.8653 22.3655 14.2022 23.4513 14.2022 24.7085C14.2022 25.6229 14.3706 25.5657 13.36 25.7943C12.0686 26.1372 10.7773 26.08 9.54208 25.4514C8.25072 24.7657 7.57696 23.6227 7.18394 22.2512C7.07165 21.8512 7.0155 21.394 6.95936 20.994C6.90321 20.5369 7.0155 20.3654 7.40852 20.194C8.13842 19.8511 8.86832 19.7368 9.76666 19.7368ZM11.7879 25.0514C12.1809 24.9943 12.574 24.9371 12.967 24.88C13.1916 24.8228 13.2477 24.7085 13.1916 24.5371C13.0231 23.9085 12.967 23.2799 12.7424 22.7084C12.3494 21.6798 11.5633 21.0512 10.4966 20.8226C9.93509 20.7083 9.31748 20.7083 8.75602 20.8226C7.74539 20.9369 7.85769 20.8226 8.08228 21.8512C8.53145 23.8513 9.87896 24.9943 11.7879 25.0514Z" fill="#FFEB61" stroke="#FFEB61" stroke-width="0.5" stroke-miterlimit="10"/>
<path d="M36.7725 29.7946C38.0638 29.7946 39.299 29.566 40.422 28.8802C39.7482 27.2801 38.7937 25.9086 37.3339 24.9372C37.5585 24.7657 37.7269 24.5371 37.9515 24.4228C38.0077 24.3657 38.2322 24.4228 38.2884 24.48C39.3552 25.28 40.1974 26.2515 40.815 27.3944C41.0957 27.9087 41.2641 28.4231 41.4887 28.9374C41.601 29.166 41.5449 29.2803 41.3764 29.4517C40.4781 30.1946 39.4113 30.6518 38.2884 30.766C37.8954 30.8232 37.5023 30.8232 37.1655 30.8232C36.997 30.8232 36.9409 30.766 36.8847 30.5946C36.8286 30.3089 36.7725 30.0803 36.7725 29.7946Z" fill="#FFEB61" stroke="#FFEB61" stroke-width="0.5" stroke-miterlimit="10"/>
<path d="M8.58717 25.5085C8.8679 25.68 9.14862 25.8514 9.37321 25.9657C8.92404 26.6515 8.47488 27.3372 8.02571 28.023C7.85727 28.3087 7.74498 28.5944 7.57655 28.8802C7.46425 29.0516 7.52039 29.1659 7.68883 29.223C8.69946 29.7945 9.76624 30.0231 10.9453 29.9659C11.0015 29.9659 11.0014 29.9659 11.0576 29.9659C11.0576 30.2517 11.0576 30.5374 11.0576 30.766C11.0576 30.8231 10.9453 30.9374 10.8892 30.9374C9.31707 30.9946 7.91342 30.6517 6.67821 29.6802C6.45362 29.5088 6.39746 29.2802 6.50976 28.9944C6.95893 27.6801 7.63268 26.5372 8.58717 25.5085Z" fill="#FFEB61" stroke="#FFEB61" stroke-width="0.5" stroke-miterlimit="10"/>
</svg>
