<svg width="48" height="48" viewBox="0 0 48 48" fill="none" xmlns="http://www.w3.org/2000/svg">
<path d="M20.0832 27.8383C20.2513 27.1145 20.4273 26.3908 20.5823 25.6614C20.6007 25.5727 20.5245 25.444 20.4641 25.3582C19.6472 24.1682 18.888 22.9353 18.2628 21.6108C17.8846 20.807 17.5457 19.9803 17.4091 19.0792C17.3303 18.5643 17.325 18.0437 17.4774 17.5403C17.6298 17.0339 17.8846 16.9167 18.3285 17.1455C18.9379 17.4602 19.3608 17.9894 19.6971 18.6101C20.2566 19.6399 20.535 20.7813 20.7898 21.9284C20.8844 22.3603 20.9737 22.7922 21.1156 23.2328C21.1418 23.1212 21.1681 23.0068 21.1918 22.8952C21.4439 21.7567 21.6909 20.6182 21.9562 19.4854C22.0087 19.2566 21.9588 19.1393 21.7959 18.9934C21.4649 18.7016 21.1445 18.3898 20.8608 18.0466C20.5666 17.6947 20.4326 17.2428 20.4063 16.7679C20.3459 15.741 20.782 15.1031 21.7486 14.8113C21.4833 14.1991 21.3861 13.5669 21.6147 12.9233C21.8458 12.2711 22.3607 11.9221 23.02 11.9422C22.9622 11.7219 22.9018 11.5016 22.844 11.2785C22.5393 10.0799 23.288 8.94715 24.4201 9.09876C24.3361 8.72403 24.231 8.34929 24.1732 7.96597C24.0498 7.13355 24.4464 6.3469 25.1189 6.10948C25.3605 6.02366 25.6311 6.02939 25.9279 5.98934C26.1039 5.14261 26.4349 4.38456 27.4095 4.35024C27.2991 3.87252 27.1678 3.39481 27.0837 2.90851C27.0102 2.48515 27.0759 2.07037 27.3123 1.70422C27.7588 1.01483 28.6021 1.00053 29.0644 1.67848C29.1668 1.82723 29.2404 1.99599 29.3376 2.17335C29.4164 1.9445 29.4689 1.70994 29.574 1.51256C29.7132 1.25511 29.8734 0.997667 30.0652 0.785986C30.3358 0.491349 30.672 0.354037 31.0529 0.557136C31.4128 0.751654 31.6308 1.1979 31.5704 1.65559C31.531 1.95023 31.4417 2.23914 31.3707 2.54236C31.5625 2.40792 31.7438 2.23057 31.9565 2.14475C32.2271 2.03605 32.5239 1.94165 32.805 1.95595C33.3356 1.98456 33.6456 2.53092 33.467 3.08015C33.3776 3.3519 33.2174 3.59791 33.0887 3.8525C33.2647 3.95262 33.467 4.04416 33.6456 4.1786C34.2103 4.60196 34.276 5.28278 33.8295 5.84631C33.3724 6.42128 32.7866 6.5071 32.1457 6.36979C31.4154 6.21532 30.7613 5.86919 30.1519 5.41723C29.9916 5.29994 29.9023 5.30852 29.7815 5.45441C29.6607 5.59743 29.5188 5.72044 29.3665 5.86919C29.6528 5.88349 29.8918 5.87205 30.123 5.91496C30.5091 5.98934 30.8191 6.23249 31.0608 6.56145C31.418 7.04202 31.3865 7.66276 30.9767 8.11758C30.5774 8.56669 30.0783 8.69256 29.5293 8.57527C29.0118 8.46371 28.5521 8.21484 28.1555 7.75143C27.8876 8.21484 27.6354 8.65537 27.3806 9.0959C27.3911 9.1102 27.4016 9.1245 27.4121 9.1388C27.5303 9.07301 27.6406 8.98148 27.7667 8.94429C28.1108 8.83845 28.4576 8.68112 28.8069 8.6754C29.5687 8.66395 30.0888 9.41628 29.9391 10.2315C29.8235 10.8523 29.5031 11.31 28.9724 11.5674C28.6756 11.7105 28.3604 11.8048 28.0583 11.9193C28.4707 12.7174 27.9874 13.6785 26.9156 13.8473C27.0102 13.9331 27.089 14.0018 27.1678 14.0761C27.8088 14.6797 27.8771 15.6838 27.3175 16.3789C26.9419 16.848 26.4586 17.114 25.9069 17.2485C25.8596 17.2599 25.815 17.2714 25.7467 17.2914C25.9227 17.6118 26.0251 17.9322 25.9542 18.2926C25.8176 18.9906 25.3001 19.4969 24.5909 19.5541C24.2126 19.5856 23.8265 19.5255 23.393 19.5055C23.0227 21.1818 22.6418 22.9181 22.2582 24.6516C22.2766 24.6602 22.295 24.6688 22.3134 24.6773C22.492 24.4371 22.6602 24.1853 22.8519 23.9565C23.5165 23.167 24.1653 22.3546 24.8693 21.608C25.4183 21.0273 26.0645 20.5725 26.8237 20.3551C27.4909 20.1634 27.7221 20.3808 27.6065 21.1074C27.4804 21.9026 27.0811 22.5462 26.582 23.1183C25.6968 24.1396 24.6277 24.8862 23.5165 25.5698C23.0174 25.8788 22.5025 26.1563 21.9982 26.4566C21.9194 26.5024 21.8274 26.5882 21.8064 26.674C21.6488 27.3377 21.507 28.007 21.3572 28.6735C21.373 28.6936 21.3914 28.7136 21.4072 28.7336C21.4728 28.6421 21.5332 28.5448 21.6068 28.4619C22.5472 27.372 23.5559 26.3594 24.6618 25.4669C25.3527 24.9091 26.0934 24.4542 26.9498 24.2597C27.5855 24.1138 27.7457 24.2855 27.6616 24.9891C27.5356 26.0476 26.9971 26.8342 26.2694 27.495C25.5759 28.1243 24.8063 28.6221 23.9815 29.0082C23.0095 29.4659 22.0192 29.8693 21.0368 30.3012C20.979 30.327 20.9107 30.3899 20.8949 30.4499C20.5088 32.029 20.1279 33.6109 19.7496 35.1928C19.747 35.1985 19.7549 35.2099 19.7733 35.2528C19.9755 35.0841 20.1778 34.9296 20.3696 34.7579C21.7355 33.5537 23.0988 32.3465 24.4674 31.1451C25.2266 30.4814 26.0251 29.8807 26.9629 29.5575C27.3044 29.4402 27.6643 29.3744 28.0215 29.3372C28.3761 29.3029 28.539 29.4945 28.5364 29.8807C28.5285 30.8333 28.1791 31.6542 27.6643 32.3951C26.8184 33.608 25.6784 34.4147 24.4411 35.0669C22.915 35.8707 21.2916 36.3427 19.6419 36.726C19.395 36.7832 19.2978 36.8976 19.2426 37.1551C18.8329 39.0116 18.4073 40.8652 18.0369 42.7532C18.1052 42.6645 18.1709 42.573 18.2392 42.4843C19.5868 40.7766 21.0289 39.1775 22.7363 37.8874C23.6636 37.1866 24.6749 36.6659 25.8018 36.5C26.8211 36.3513 26.8894 36.4943 26.7895 37.5756C26.716 38.3708 26.3509 39.0459 25.878 39.6495C25.2686 40.4276 24.5173 41.0197 23.7398 41.5775C22.0087 42.8133 20.1174 43.6743 18.1525 44.3437C17.7427 44.4838 17.5562 44.6812 17.5194 45.1532C17.4748 45.7282 17.3566 46.3003 17.2515 46.8695C17.1543 47.393 16.8548 47.6247 16.4346 47.5361C16.0432 47.4531 15.8094 47.0355 15.8908 46.5463C16.0169 45.7911 16.1403 45.0331 16.2796 44.2807C16.3163 44.0891 16.2848 43.9747 16.1456 43.8459C15.1133 42.8934 14.1571 41.8664 13.4006 40.6364C12.9566 39.9184 12.5836 39.1546 12.539 38.2707C12.5179 37.8502 12.5757 37.4154 12.6624 37.0035C12.736 36.6545 12.954 36.5601 13.2745 36.6631C13.9364 36.8776 14.404 37.3754 14.8112 37.9503C15.4679 38.8771 15.8383 39.9613 16.1981 41.0455C16.3452 41.4888 16.4713 41.9408 16.6263 42.4528C16.7971 41.6576 16.9442 40.9196 17.1097 40.1873C17.3487 39.1375 17.5956 38.0905 17.8478 37.0464C17.8872 36.8805 17.8636 36.7861 17.7427 36.6574C16.0116 34.7808 14.3042 32.8786 13.1615 30.4871C12.7465 29.6204 12.4785 28.7021 12.5127 27.7124C12.5232 27.4149 12.5836 27.1088 12.6729 26.8256C12.7728 26.5052 12.9671 26.4137 13.2771 26.4623C14.0625 26.5882 14.672 27.0716 15.2183 27.6523C16.101 28.5934 16.7445 29.7177 17.1832 30.9649C17.5904 32.1148 17.9135 33.2962 18.2707 34.4662C18.297 34.5549 18.3206 34.6435 18.3994 34.7322C18.4861 34.3746 18.5728 34.0171 18.6621 33.6624C18.9563 32.4809 19.2479 31.2995 19.55 30.121C19.5894 29.9665 19.5342 29.9007 19.4475 29.8063C18.1893 28.4333 17.0414 26.9658 16.2349 25.218C15.8855 24.4657 15.6859 23.6704 15.7989 22.8094C15.9092 21.9798 16.227 21.7968 16.9074 22.1858C17.5693 22.5663 18.029 23.167 18.4178 23.8421C19.0955 25.0178 19.5474 26.2993 19.944 27.6123C19.9676 27.6867 19.9887 27.7639 20.0123 27.8383C20.0386 27.8383 20.0622 27.8383 20.0832 27.8383ZM23.154 18.0666C23.1382 18.0609 23.1225 18.058 23.1067 18.0523C23.0883 17.8378 23.0778 17.6232 23.0515 17.4115C22.9649 16.7536 22.7836 16.1386 22.3581 15.638C22.0034 15.2203 21.5175 15.2261 21.1786 15.6523C20.9238 15.9727 20.845 16.3646 20.8687 16.7794C20.9028 17.3744 21.2128 17.8091 21.6068 18.1839C21.8301 18.3956 22.0691 18.5872 22.3003 18.7846C22.4763 18.9362 22.5472 19.105 22.4737 19.3653C22.3502 19.7915 22.2661 20.2292 22.1663 20.6611C21.2154 24.7489 20.2881 28.8423 19.3109 32.9215C18.3075 37.0979 17.2568 41.2571 16.5318 45.5051C16.4608 45.917 16.3846 46.3318 16.3426 46.7465C16.3321 46.8381 16.4556 46.9468 16.516 47.0469C16.6079 46.9782 16.7209 46.9268 16.7839 46.8352C16.8365 46.758 16.8312 46.6321 16.8496 46.5263C17.3986 43.1909 18.0973 39.8927 18.9117 36.623C19.5447 34.08 20.1936 31.5398 20.7898 28.9882C21.4702 26.0704 22.1059 23.1384 22.7495 20.212C22.9018 19.5026 23.02 18.7817 23.154 18.0666ZM26.3509 36.9377C26.1722 36.9549 26.0251 36.9606 25.8833 36.9835C24.6933 37.1894 23.6583 37.7816 22.7074 38.5482C20.8844 40.0128 19.3346 41.7835 17.9213 43.7029C17.8819 43.7573 17.8609 43.8288 17.8005 43.9575C18.2418 43.7887 18.6122 43.6486 18.9826 43.5084C20.8266 42.8018 22.5761 41.8893 24.1627 40.6364C24.8247 40.1158 25.4446 39.5437 25.8859 38.7799C26.2011 38.2335 26.385 37.6442 26.3509 36.9377ZM18.0422 36.1882C18.0422 36.0366 18.0579 35.9251 18.0396 35.8192C17.6876 33.8283 17.1674 31.8945 16.2848 30.0981C15.8724 29.2571 15.3654 28.4876 14.7113 27.8468C14.3173 27.4578 13.8839 27.146 13.3638 26.9887C13.1825 26.9343 13.0591 26.9915 13.0486 27.1975C13.0276 27.6151 12.9855 28.0385 13.0354 28.4504C13.1694 29.5775 13.6265 30.5844 14.2333 31.474C15.0213 32.6268 15.8829 33.7196 16.7445 34.8123C17.1228 35.2843 17.5746 35.6933 18.0422 36.1882ZM28.0898 29.8435C28.0268 29.8321 28.0031 29.8206 27.9795 29.8235C27.9296 29.8263 27.8823 29.8378 27.8324 29.8435C26.9393 29.9865 26.146 30.3985 25.4499 30.9935C23.5086 32.6583 21.5884 34.3489 19.6603 36.0338C19.6209 36.0681 19.592 36.1224 19.529 36.2111C19.6498 36.1911 19.7207 36.1825 19.789 36.1653C20.2435 36.0481 20.7005 35.9422 21.1524 35.8106C22.7626 35.3444 24.3151 34.7265 25.6941 33.6767C26.4612 33.0931 27.1599 32.4323 27.6249 31.5312C27.8902 31.0163 28.0583 30.4614 28.0898 29.8435ZM16.34 22.489C16.3058 22.6835 16.2664 22.8466 16.2559 23.0096C16.2008 23.7276 16.3873 24.3913 16.6762 25.0235C17.396 26.5939 18.4388 27.9012 19.5368 29.1627C19.5762 29.2085 19.6367 29.2342 19.7234 29.2914C19.7234 29.1341 19.7391 29.0197 19.7207 28.9138C19.5342 27.7553 19.1691 26.654 18.7357 25.5813C18.3915 24.7288 17.9791 23.9164 17.3907 23.2242C17.1097 22.8981 16.7839 22.6549 16.34 22.489ZM20.6559 24.8004C20.6821 24.7889 20.7058 24.7775 20.7321 24.766C20.7321 24.5744 20.761 24.377 20.7268 24.1911C20.5823 23.3586 20.4379 22.5233 20.2566 21.6995C20.0359 20.6897 19.7549 19.7 19.2531 18.8046C18.9826 18.3241 18.649 17.915 18.184 17.6461C17.9607 17.5174 17.9213 17.5403 17.8741 17.8034C17.769 18.407 17.8347 18.9991 17.9949 19.577C18.3311 20.7956 18.9012 21.8912 19.5185 22.9582C19.8862 23.5818 20.2776 24.1853 20.6559 24.8004ZM27.2151 24.746C27.0969 24.766 27.0181 24.7803 26.9366 24.7975C26.3272 24.9262 25.7992 25.2495 25.2896 25.6156C24.1601 26.4309 23.1987 27.4578 22.2399 28.4905C21.8852 28.8709 21.5096 29.2314 21.1445 29.6004C21.1681 29.6318 21.1918 29.6633 21.2154 29.6919C21.3651 29.6261 21.5149 29.566 21.662 29.4974C22.6523 29.0254 23.6583 28.582 24.6277 28.0642C25.3816 27.6609 26.0593 27.1145 26.5952 26.3937C26.9472 25.9246 27.1731 25.4011 27.2151 24.746ZM16.2691 43.2509C16.2691 43.1966 16.2743 43.1708 16.2691 43.148C15.9197 41.6462 15.4968 40.173 14.777 38.8228C14.4329 38.1792 14.0074 37.6185 13.4006 37.2523C13.1379 37.0922 13.0643 37.1379 13.0092 37.4612C13.0013 37.5041 13.0013 37.5499 12.996 37.5956C12.9093 38.5139 13.1983 39.3205 13.6265 40.0814C14.2963 41.2686 15.1789 42.2469 16.1377 43.1565C16.1719 43.1851 16.2139 43.208 16.2691 43.2509ZM27.1626 20.7755C27.0154 20.8213 26.9209 20.8471 26.8289 20.8814C26.0777 21.1531 25.442 21.6423 24.914 22.2545C24.0891 23.2099 23.3142 24.2197 22.5236 25.2094C22.3948 25.3696 22.2871 25.5498 22.1716 25.7215C23.2249 25.1579 24.2625 24.5887 25.1556 23.782C25.6836 23.3043 26.1643 22.7636 26.6293 22.2144C26.9524 21.8311 27.1021 21.3448 27.1626 20.7755ZM25.681 11.0497C26.209 10.1171 26.5925 9.13881 26.6424 8.04035C26.6582 7.6742 26.5663 7.3338 26.3745 7.03058C26.1092 6.61294 25.7283 6.42414 25.371 6.5357C24.956 6.66442 24.6565 7.10209 24.6382 7.59697C24.6198 8.10043 24.7537 8.5667 24.9402 9.01867C25.2108 9.67945 25.5864 10.2973 25.681 11.0497ZM23.485 16.8766C23.5428 16.7364 23.5769 16.6678 23.6006 16.5934C23.8685 15.7581 24.0077 14.9 23.992 14.0161C23.9841 13.5641 23.8501 13.1579 23.5874 12.806C23.2275 12.3255 22.5814 12.3226 22.2188 12.8032C21.7959 13.3638 21.8931 14.5338 22.4237 15.0058C22.8913 15.4234 23.2013 15.9441 23.3825 16.5648C23.4062 16.6478 23.4351 16.7307 23.485 16.8766ZM24.428 14.1791C24.4648 14.182 24.5016 14.1848 24.5383 14.1877C24.7485 13.3495 24.9928 12.5171 25.1583 11.6675C25.2817 11.0325 25.1215 10.4261 24.7196 9.91974C24.4569 9.58792 24.0944 9.52498 23.7477 9.74239C23.4298 9.94263 23.2696 10.2516 23.2591 10.6435C23.2433 11.1898 23.3825 11.7019 23.7083 12.1109C24.1837 12.7088 24.4884 13.361 24.428 14.1791ZM23.9315 16.9825C24.5804 16.8938 25.1951 16.8137 25.8071 16.7279C26.2143 16.6706 26.5479 16.4504 26.8447 16.1586C27.1021 15.904 27.2282 15.5779 27.1967 15.2003C27.1599 14.7627 26.9261 14.4594 26.5741 14.2706C26.2747 14.1105 26.0645 14.3393 25.8807 14.5281C25.3999 15.0258 24.9271 15.5321 24.4832 16.0671C24.2625 16.3388 24.1102 16.6792 23.9315 16.9825ZM26.1801 11.1841C26.6451 11.2156 27.1074 11.2327 27.5697 11.2871C28.187 11.3586 28.7518 11.2728 29.1957 10.7493C29.398 10.5119 29.5267 10.2373 29.4847 9.89971C29.4032 9.27611 28.8674 8.96717 28.2895 9.26181C27.4226 9.69947 26.6556 10.283 26.1801 11.1841ZM28.581 5.46013C28.7203 4.84797 28.8621 4.30161 28.9646 3.7438C29.0696 3.18313 29.0486 2.62246 28.7781 2.10756C28.6099 1.78718 28.3814 1.64987 28.1213 1.70136C27.8061 1.76429 27.5723 2.00458 27.5539 2.37645C27.5382 2.68253 27.5671 3.00005 27.6222 3.30041C27.772 4.08706 28.2028 4.72783 28.581 5.46013ZM27.0759 8.50376C27.0969 8.51234 27.1179 8.51807 27.1389 8.52665C27.4673 7.95454 27.8455 7.40817 28.0136 6.74738C28.145 6.23248 28.1082 5.72044 27.8482 5.24845C27.7221 5.0196 27.5434 4.85655 27.2913 4.87658C26.913 4.90804 26.6897 5.18552 26.5531 5.54023C26.427 5.86633 26.343 6.20102 26.6083 6.51568C27.0154 6.99911 27.1652 7.57695 27.1021 8.22343C27.0916 8.31497 27.0837 8.40936 27.0759 8.50376ZM30.3226 4.89374C30.8244 5.31424 31.3707 5.62318 31.9723 5.77193C32.3006 5.85203 32.6526 5.88349 32.9889 5.84916C33.333 5.81484 33.6456 5.36859 33.6535 5.01961C33.6613 4.77074 33.4564 4.5705 33.0572 4.43891C33.0178 4.42461 32.9784 4.41603 32.9363 4.40745C32.0169 4.2301 31.1816 4.5991 30.3226 4.89374ZM29.7841 8.08612C30.1519 8.08612 30.4487 7.98314 30.6851 7.71997C30.869 7.51401 30.9005 7.28802 30.7823 7.03629C30.5669 6.57002 30.0731 6.32116 29.6055 6.44702C29.1905 6.56144 28.8411 6.79315 28.5338 7.11639C28.4129 7.24511 28.4339 7.32522 28.5364 7.44536C28.8858 7.85156 29.3166 8.05466 29.7841 8.08612ZM26.4454 13.4354C26.8289 13.381 27.1783 13.3066 27.4725 13.0492C27.8455 12.7202 27.8298 12.2425 27.4279 11.9565C27.1783 11.7791 26.8946 11.7133 26.6057 11.7963C26.0672 11.9507 25.7309 12.3684 25.4919 12.8861C25.463 12.9462 25.5287 13.1293 25.5865 13.1522C25.8675 13.2666 26.1591 13.3467 26.4454 13.4354ZM29.9995 4.2444C30.0547 4.1643 30.0967 4.12139 30.1204 4.06704C30.4093 3.4177 30.7088 2.77407 30.9767 2.11328C31.0634 1.9016 31.0818 1.64415 31.0923 1.40672C31.1028 1.16071 30.9294 0.971918 30.7167 1.03199C30.5275 1.08634 30.3279 1.22078 30.1939 1.37811C29.9076 1.71852 29.8104 2.15905 29.7841 2.61388C29.7526 3.16024 29.7946 3.69231 29.9995 4.2444ZM24.1364 19.085C24.7196 19.0621 25.1556 18.919 25.4157 18.4184C25.6232 18.0208 25.4866 17.6289 25.0952 17.463C24.7642 17.3257 24.4569 17.3572 24.1732 17.6061C23.8291 17.9036 23.6636 18.3212 23.5218 18.7503C23.506 18.8018 23.5769 18.9362 23.6295 18.9534C23.8212 19.022 24.0235 19.0564 24.1364 19.085ZM30.6641 4.13569C31.1527 4.02699 31.5783 3.91829 32.0117 3.84106C32.495 3.75524 32.7997 3.43772 33.0099 2.98575C33.1307 2.72544 33.0335 2.49946 32.7682 2.49088C32.5502 2.48515 32.3059 2.53093 32.1168 2.64535C31.531 2.99434 31.1291 3.56644 30.6641 4.13569ZM24.696 14.9343C25.1162 14.5338 25.4866 14.182 25.8675 13.8215C25.6495 13.7386 25.4446 13.6613 25.2213 13.5755C25.0506 14.0132 24.8825 14.4451 24.696 14.9343ZM29.0434 5.40865C29.2693 5.18838 29.4926 4.97098 29.7474 4.71925C29.5714 4.66776 29.4374 4.62771 29.285 4.58194C29.1983 4.8823 29.1169 5.15692 29.0434 5.40865Z" fill="#FFEB61"/>
<path d="M33.488 12.1624C33.3698 12.0709 33.291 12.0337 33.2516 11.9708C33.2043 11.8936 33.1885 11.7906 33.1649 11.699C32.9495 10.8952 32.4977 10.3317 31.7569 10.0685C31.6019 10.0142 31.4548 9.95982 31.4522 9.73956C31.4496 9.51357 31.615 9.50213 31.7543 9.44778C32.5055 9.156 33.0283 8.62107 33.2305 7.76005C33.2673 7.60272 33.3277 7.45397 33.5037 7.45683C33.6797 7.45969 33.7323 7.59986 33.7664 7.76577C33.9424 8.63252 34.452 9.16744 35.2112 9.43347C35.3714 9.49068 35.4844 9.57078 35.4896 9.76244C35.4949 9.95981 35.3451 9.98557 35.2191 10.0285C34.4074 10.2916 33.9398 10.9038 33.706 11.7677C33.6666 11.8936 33.5747 12.0051 33.488 12.1624ZM33.4433 10.735C33.7559 10.3975 34.0921 10.0371 34.4363 9.66804C34.0291 9.45064 33.7086 9.11023 33.5274 8.69259C33.199 9.05588 32.8759 9.41631 32.5817 9.74242C32.8654 10.0657 33.1649 10.4089 33.4433 10.735Z" fill="#FFEB61"/>
<path d="M25.216 2.38215C25.1897 2.4079 25.1372 2.49657 25.0662 2.52231C24.3938 2.7483 23.9577 3.20313 23.808 3.96976C23.7922 4.05557 23.6687 4.15856 23.5847 4.17C23.5216 4.17858 23.4139 4.07274 23.3772 3.98978C23.28 3.78096 23.2353 3.54067 23.1303 3.33758C22.9332 2.95426 22.6338 2.69967 22.2345 2.59383C22.09 2.55664 21.9561 2.50229 21.9561 2.29919C21.9587 2.11039 22.0848 2.06749 22.2187 2.01314C22.7677 1.78429 23.167 1.3924 23.3115 0.745912C23.322 0.703003 23.3273 0.648655 23.3535 0.62291C23.4245 0.551396 23.5059 0.445557 23.5847 0.445557C23.6582 0.445557 23.7607 0.542814 23.8053 0.62291C23.8684 0.743053 23.871 0.894664 23.9262 1.01767C24.1521 1.53257 24.5172 1.87297 25.0242 2.0303C25.2002 2.08751 25.2186 2.11612 25.216 2.38215ZM24.1573 2.31635C23.963 2.09895 23.7344 1.84437 23.5768 1.66701C23.4113 1.85295 23.1802 2.11326 22.9726 2.34783C23.125 2.5166 23.3562 2.77405 23.5374 2.97715C23.7607 2.73686 23.9971 2.48799 24.1573 2.31635Z" fill="#FFEB61"/>
<path d="M19.6921 13.3324C19.6369 13.2609 19.5581 13.198 19.5344 13.1179C19.3978 12.6659 19.1982 12.2626 18.8252 11.9937C18.686 11.8936 18.5179 11.8392 18.3813 11.7391C18.2972 11.6762 18.1921 11.5675 18.1895 11.4759C18.1869 11.3873 18.2893 11.2471 18.3734 11.2128C18.9487 10.9811 19.3479 10.5777 19.545 9.9341C19.5738 9.83971 19.7026 9.70813 19.7709 9.71671C19.8523 9.72529 19.9626 9.85687 19.9889 9.95699C20.1439 10.592 20.5379 10.9725 21.0738 11.2042C21.1972 11.2557 21.2997 11.3014 21.297 11.4702C21.2944 11.6276 21.2025 11.7019 21.079 11.7506C20.4827 11.9794 20.1202 12.4457 19.9626 13.1007C19.9232 13.2352 19.8759 13.3124 19.6921 13.3324ZM20.2647 11.4616C20.1281 11.2957 19.9206 11.044 19.7262 10.8066C19.5213 11.0211 19.3033 11.2471 19.1457 11.4102C19.3453 11.6361 19.5607 11.8821 19.7367 12.0824C19.8943 11.8964 20.1045 11.6504 20.2647 11.4616Z" fill="#FFEB61"/>
<path d="M29.0725 28.6622C28.5077 28.6565 28.069 28.1645 28.0743 27.5409C28.0795 26.943 28.5445 26.4538 29.104 26.4653C29.6688 26.4739 30.1101 26.963 30.1022 27.5723C30.0969 28.1873 29.6451 28.6651 29.0725 28.6622ZM29.0882 28.2789C29.4455 28.276 29.7502 27.9471 29.7476 27.5637C29.7449 27.1861 29.4429 26.86 29.0961 26.86C28.7389 26.86 28.4289 27.189 28.4315 27.5666C28.4341 27.9614 28.7284 28.2789 29.0882 28.2789Z" fill="#FFEB61"/>
<path d="M15.3968 25.0007C15.3968 25.6157 14.9896 26.082 14.4485 26.0848C13.8784 26.0877 13.4398 25.6185 13.4424 25.0064C13.4424 24.3914 13.8706 23.9194 14.4248 23.9251C14.9975 23.928 15.3968 24.3713 15.3968 25.0007ZM14.8793 25.0064C14.8845 24.7232 14.677 24.4943 14.4169 24.4943C14.1779 24.4943 13.9783 24.7203 13.9678 25.0007C13.9599 25.2781 14.1569 25.507 14.4038 25.507C14.6665 25.5098 14.8766 25.2896 14.8793 25.0064Z" fill="#FFEB61"/>
<path d="M14.1754 46.1114C13.6526 46.1085 13.2428 45.6366 13.2481 45.0473C13.2534 44.4466 13.6474 44.0232 14.2043 44.0232C14.7296 44.0203 15.1473 44.4695 15.1473 45.0444C15.1499 45.6451 14.727 46.1143 14.1754 46.1114ZM14.6324 45.0387C14.6324 44.7898 14.4354 44.5867 14.1885 44.5867C13.9547 44.5867 13.7656 44.8013 13.7682 45.0644C13.7682 45.3305 13.939 45.5193 14.1754 45.525C14.4407 45.5307 14.6324 45.3276 14.6324 45.0387Z" fill="#FFEB61"/>
</svg>
