<svg width="48" height="48" viewBox="0 0 48 48" fill="none" xmlns="http://www.w3.org/2000/svg">
<path d="M38.5045 41.4355C35.5673 41.4355 32.6797 41.4355 29.7529 41.4355C29.7243 41.0576 29.6982 40.6979 29.6669 40.2861C30.3576 40.2861 31.0195 40.2861 31.705 40.2861C31.705 39.7284 31.705 39.2202 31.705 38.6833C30.9492 38.6833 30.209 38.6833 29.4193 38.6833C29.3672 39.6007 29.3177 40.5024 29.2656 41.4355C28.945 41.4355 28.6323 41.4355 28.2309 41.4355C28.1736 39.5147 28.1162 37.5757 28.0563 35.6367C28.0302 35.6341 28.0042 35.6341 27.9781 35.6315C27.8009 37.5549 27.6211 39.4756 27.4412 41.4302C27.0764 41.4302 26.7167 41.4302 26.391 41.4302C26.4509 38.8553 26.5082 36.2882 26.5682 33.7212C26.5239 33.7186 26.4796 33.716 26.4353 33.7134C26.1356 36.2752 25.8384 38.8397 25.5335 41.4615C25.2938 41.4615 25.054 41.4615 24.8142 41.4615C24.2122 41.4615 23.6128 41.4563 23.0107 41.4667C22.7944 41.4693 22.685 41.4224 22.6537 41.1722C22.4973 39.9213 22.3175 38.6755 22.1168 37.4298C22.1351 37.8207 22.1742 38.2116 22.169 38.6025C22.1559 39.4469 22.1168 40.2939 22.0986 41.1383C22.0934 41.3625 22.0256 41.4615 21.7806 41.4719C20.7851 41.5189 20.7825 41.5267 20.6886 40.4138C20.5218 38.4097 20.1883 36.4368 19.7504 34.4744C19.052 31.3443 17.8349 28.4385 16.1122 25.7411C15.4346 24.6777 14.7387 23.6275 14.0533 22.5693C13.996 22.4807 13.9491 22.3895 13.8761 22.2618C14.6423 22.5172 17.7645 26.3222 18.8461 28.3081C20.1023 30.6146 21.1213 33.0201 21.8249 35.5637C21.9031 35.0399 21.1369 31.1567 20.5297 28.9128C19.9302 26.6897 19.0702 24.5683 17.9496 22.5693C16.8419 20.5965 15.6301 18.6809 14.5146 16.7054C16.7794 19.1996 18.9373 21.7745 20.5375 24.7611C22.1377 27.7478 23.3678 30.8804 24.1809 34.1981C24.3399 33.6169 24.4963 33.0357 24.6605 32.4546C24.8429 31.8082 24.9967 31.1489 25.2286 30.5182C25.4606 29.8875 25.4866 29.2698 25.4058 28.6105C24.9133 24.537 23.9333 20.5939 22.2419 16.8488C21.3715 14.9202 20.3811 13.0438 19.4507 11.1413C19.3829 11.0031 19.3699 10.8416 19.4116 10.6643C22.7684 15.3372 25.385 20.3541 26.7532 25.9704C27.1337 24.9149 27.4908 23.8516 27.8947 22.8065C28.9554 20.0648 30.1699 17.3909 31.5277 14.7821C31.5616 14.7169 31.5851 14.6414 31.6346 14.5918C31.6867 14.5423 31.7649 14.5189 31.8327 14.485C31.8509 14.558 31.9056 14.644 31.8848 14.7039C31.7831 15.0166 31.6633 15.3268 31.546 15.6343C29.9536 19.8146 28.7105 24.1018 27.595 28.428C27.509 28.7668 27.5689 29.1525 27.6106 29.5122C27.7905 31.0889 27.9911 32.6657 28.197 34.3649C29.3907 29.9344 31.46 26.0303 33.8576 22.2801C33.902 22.2853 33.9437 22.2905 33.988 22.2957C33.9723 22.413 33.9854 22.5407 33.941 22.6423C33.4407 23.7604 32.9168 24.8654 32.4295 25.986C31.2749 28.6574 30.3602 31.4043 29.9301 34.2919C29.7738 35.3318 29.6695 36.3795 29.534 37.4897C30.1751 37.4897 30.8293 37.6356 31.3792 37.4584C32.505 37.0962 33.6309 37.3907 34.7464 37.2734C34.7828 37.2708 34.8167 37.2604 34.8793 37.2473C34.8793 28.8841 34.8793 20.5183 34.8793 12.0951C33.7925 12.0951 32.7214 12.0951 31.6085 12.0951C31.6085 10.6096 31.6085 9.18142 31.6085 7.71414C26.5604 7.71414 21.5539 7.71414 16.4927 7.71414C16.4927 7.85227 16.4927 7.993 16.4927 8.13373C16.4927 9.29869 16.4823 10.4637 16.5005 11.6286C16.5057 11.9831 16.4302 12.1212 16.0366 12.1055C15.1662 12.0743 14.2957 12.0977 13.4252 12.1003C13.3184 12.1003 13.2115 12.1108 13.0916 12.116C13.0916 20.4922 13.0916 28.8476 13.0916 37.2395C13.2167 37.2499 13.321 37.263 13.4252 37.263C14.1367 37.2656 14.856 37.1926 15.5571 37.2812C16.9905 37.461 18.4239 37.4767 19.8625 37.4636C19.9407 37.4636 20.0658 37.5627 20.0892 37.6409C20.1804 37.9432 20.2378 38.2533 20.316 38.5999C19.0389 38.5999 17.7932 38.5999 16.5188 38.5999C16.5188 39.1629 16.5188 39.6919 16.5188 40.2757C16.6699 40.2757 16.8133 40.2757 16.9566 40.2757C17.973 40.2757 18.992 40.2809 20.0084 40.2679C20.2378 40.2653 20.3394 40.3356 20.3733 40.5624C20.4176 40.8491 20.4932 41.1279 20.5583 41.4198C16.8602 41.4198 13.2037 41.4198 9.49512 41.4198C9.49512 31.2375 9.49512 21.1047 9.49512 10.9249C11.4419 10.9249 13.3575 10.9249 15.3121 10.9249C15.3121 9.429 15.3121 7.97737 15.3121 6.5127C21.1421 6.5127 26.9356 6.5127 32.75 6.5127C32.7604 6.62997 32.7787 6.72379 32.7787 6.81761C32.7813 8.03209 32.7969 9.24657 32.7735 10.4584C32.7683 10.8051 32.8438 10.9223 33.2087 10.9197C34.8402 10.9041 36.469 10.9171 38.1005 10.9197C38.2204 10.9197 38.3429 10.9197 38.5019 10.9197C38.5045 21.1021 38.5045 31.2479 38.5045 41.4355ZM37.389 40.2705C37.389 30.8752 37.389 21.5086 37.389 12.1264C36.9382 12.1264 36.516 12.1264 36.0416 12.1264C36.0416 20.9144 36.0416 29.679 36.0416 38.48C34.9653 38.48 33.9411 38.48 32.9116 38.48C32.9116 39.0951 32.9116 39.6711 32.9116 40.2705C34.4128 40.2705 35.88 40.2705 37.389 40.2705ZM10.621 12.1108C10.621 21.5191 10.621 30.8804 10.621 40.2653C12.2081 40.2653 13.7692 40.2653 15.3616 40.2653C15.3616 39.9864 15.3668 39.7284 15.359 39.473C15.3486 39.1472 15.4502 38.6938 15.2782 38.5296C15.101 38.3602 14.6553 38.4592 14.327 38.4566C13.5451 38.4514 12.7659 38.454 11.9241 38.454C11.9241 29.6503 11.9241 20.8936 11.9241 12.1108C11.4732 12.1108 11.0614 12.1108 10.621 12.1108Z" fill="#FFEB61"/>
</svg>
