<svg width="48" height="48" viewBox="0 0 48 48" fill="none" xmlns="http://www.w3.org/2000/svg">
<path d="M6.38648 36.1211C4.86731 36.6978 3.40529 36.7087 1.9147 36.3442C0.971774 36.1103 0.633653 35.2398 0.96225 34.1299C1.6623 31.7742 3.10527 30.5392 5.11018 29.9625C5.57212 29.8319 6.0293 29.6687 6.50077 29.6089C7.12939 29.5273 7.49132 29.1954 7.7723 28.5208C9.54862 24.2717 12.1298 20.7898 15.5681 18.1675C17.9207 16.3721 20.5114 15.2296 23.2735 14.5713C24.1783 14.3537 25.0593 14.0654 25.8117 13.4016C25.9356 13.2874 26.0927 13.2221 26.2499 13.1187C25.7641 11.862 25.326 10.7847 24.9355 9.68575C24.5545 8.61942 25.1212 7.60749 26.0832 7.65101C26.4118 7.66733 26.7547 7.85775 27.0499 8.04273C29.5978 9.64224 31.9503 11.5518 33.9743 13.9457C34.5696 14.6529 35.222 15.1099 36.0363 15.3874C38.0651 16.0729 39.9414 17.1229 41.5368 18.7442C44.2179 21.4753 45.5466 24.9464 45.6752 29.0213C45.6942 29.6252 45.8133 30.0931 46.1228 30.6099C46.5419 31.3172 46.8181 32.1496 47.0562 32.9711C47.2801 33.7436 47.161 34.5108 46.5324 35.0167C45.8847 35.539 45.1894 35.6369 44.4798 35.1419C43.3178 34.3258 42.1606 33.4988 40.9843 32.7045C38.6365 31.1159 36.2697 29.5599 33.9219 27.9604C33.4885 27.6666 33.1361 27.5687 32.717 27.9495C32.5218 28.1291 32.2742 28.227 32.0551 28.3739C30.8693 29.1791 29.7121 29.1519 28.5739 28.2324C28.1596 27.9005 27.7214 27.6068 27.1928 27.2259C27.7738 26.6547 28.3119 26.1269 28.931 25.523C28.6739 25.3816 28.4929 25.2565 28.3024 25.1912C22.6639 23.238 17.5111 24.4132 12.8393 28.412C12.0679 29.0757 11.4773 30.0223 10.8154 30.8493C10.1772 31.649 10.1439 32.5195 10.6297 33.439C10.844 33.8416 11.0202 34.2714 11.2059 34.6903C11.9059 36.3007 11.7012 37.9492 11.3107 39.5759C11.1297 40.3267 10.4058 40.566 9.74387 40.1417C8.52473 39.3746 7.53419 38.3191 6.80556 36.9535C6.67222 36.7142 6.55316 36.4585 6.38648 36.1211ZM10.2391 39.0209C10.3439 38.602 10.4153 38.4007 10.4439 38.1885C10.6392 36.8883 10.482 35.6587 9.84864 34.5325C8.82951 32.7208 9.04382 31.0778 10.2582 29.4674C11.5012 27.8135 12.9489 26.4915 14.63 25.4958C17.5302 23.7766 20.6018 22.9225 23.8878 23.0259C26.0451 23.0911 28.1072 23.5427 30.0645 24.5818C30.3978 24.7559 30.7121 24.9736 31.1074 25.2184C30.3931 25.8984 29.7787 26.4806 29.1501 27.079C29.874 27.7809 30.5693 27.7972 31.2741 27.3837C31.7503 27.1062 32.2027 26.758 32.6599 26.4316C32.9028 26.2575 33.1266 26.0562 33.3742 25.893C33.7457 25.6482 34.1553 25.7624 34.2314 26.1922C34.3505 26.8505 34.7791 27.0301 35.1791 27.3021C38.2889 29.413 41.4034 31.5185 44.5179 33.6294C44.6798 33.7382 44.837 33.896 45.0132 33.9504C45.237 34.0211 45.5894 34.119 45.6942 33.9939C45.8561 33.8035 45.9561 33.4118 45.9085 33.1452C45.7561 32.2747 45.4323 31.475 44.7275 30.9962C44.3132 30.7133 44.1512 30.3052 43.975 29.8156C43.456 28.3793 42.9369 26.9213 42.2559 25.5774C41.1558 23.4012 39.6033 21.682 37.6555 20.4906C35.1315 18.9509 32.4123 18.0641 29.5692 17.8465C23.5259 17.3786 18.0874 19.3481 13.2775 23.5373C11.244 25.3109 9.43908 27.3456 8.31519 30.0387C8.12946 30.4793 7.85325 30.6534 7.43893 30.7405C6.53887 30.9309 5.64356 31.1866 4.75778 31.4478C3.18623 31.9048 2.46236 33.2268 2.06233 34.9841C2.41474 35.0874 2.74334 35.2289 3.0767 35.267C4.2625 35.3921 5.41496 35.3486 6.43409 34.4618C6.89603 34.0592 7.31511 34.2115 7.37226 34.7501C7.59132 36.7794 8.86285 37.8349 10.2391 39.0209ZM26.1832 9.03833C26.1261 9.10906 26.0689 9.17435 26.0165 9.24508C26.3832 10.1591 26.7261 11.0894 27.1214 11.9871C27.4928 12.8304 27.3357 13.5431 26.769 14.147C26.4689 14.4625 26.1356 14.7835 25.7689 14.9576C25.0117 15.3167 24.2354 15.6594 23.4354 15.8607C19.6922 16.7911 16.3729 18.6354 13.568 21.644C13.3489 21.8834 13.1489 22.1445 12.9346 22.3948C13.3822 22.2424 13.7204 21.9758 14.0632 21.7147C17.5349 19.076 21.359 17.4929 25.4975 17.0141C28.5548 16.6605 31.5598 17.0576 34.5362 18.0315C38.9366 19.4732 42.0939 22.4764 43.9798 27.2368C44.0751 27.4708 44.1989 27.6884 44.3132 27.9169C44.4132 27.5415 44.4227 27.2151 44.3655 26.8995C43.8036 23.8474 42.4987 21.2903 40.37 19.3209C38.7365 17.8084 36.8078 16.9869 34.8172 16.3123C34.4457 16.1871 34.0505 15.9478 33.7885 15.6268C31.8789 13.2547 29.6597 11.3288 27.25 9.68575C26.9023 9.45181 26.5404 9.25595 26.1832 9.03833Z" fill="#FFEB61"/>
<path d="M39.0035 24.7722C39.5416 24.7885 39.894 25.2075 39.875 25.8005C39.8559 26.3772 39.4654 26.7961 38.9464 26.7852C38.432 26.7743 38.0701 26.3336 38.0844 25.7406C38.0987 25.1422 38.4654 24.7559 39.0035 24.7722Z" fill="#FFEB61"/>
</svg>
