<svg width="48" height="48" viewBox="0 0 48 48" fill="none" xmlns="http://www.w3.org/2000/svg">
<path d="M40.0246 44.777C40.1002 44.1866 40.1758 43.5963 40.2481 43.0024C40.2514 42.9675 40.2547 42.9291 40.258 42.8941C40.2842 42.6322 40.373 42.3911 40.6589 42.4261C40.9448 42.461 40.9448 42.73 40.9185 42.9605C40.8626 43.46 40.8133 43.9665 40.718 44.4591C40.5964 45.0913 40.4551 45.7236 40.2744 46.3419C40.1528 46.7611 39.8998 46.8309 39.6106 46.5375C38.2665 45.1787 36.6399 44.2739 35.046 43.3203C33.5311 42.4121 32.049 41.441 30.9843 39.9494C30.2087 38.863 29.5548 37.6754 28.8548 36.5261C28.4638 35.8834 28.0859 35.2267 27.6685 34.5141C27.2282 34.8494 26.8174 35.1568 26.4099 35.4712C26.3277 35.5341 26.2587 35.6214 26.17 35.6738C25.4405 36.0965 25.1874 36.7916 25.125 37.6265C25.0856 38.1749 24.9804 38.7198 24.9048 39.2648C24.8949 39.3241 24.8917 39.4115 24.8555 39.4324C24.5368 39.6211 24.6386 39.9424 24.6321 40.2219C24.5828 42.2863 24.2706 44.3089 23.7546 46.2965C23.6988 46.513 23.6166 46.782 23.3274 46.6842C23.0514 46.5899 23.058 46.3314 23.127 46.0834C23.6232 44.2739 23.8861 42.4295 23.9912 40.5502C24.0997 38.5591 23.6002 36.816 22.2298 35.3978C21.9472 35.1044 21.7106 34.7621 21.4543 34.4442C21.4083 34.4687 21.3656 34.4966 21.3196 34.5211C21.2538 34.6538 21.1848 34.783 21.1224 34.9193C20.3666 36.5331 19.6304 38.1574 18.5657 39.5826C18.2864 39.9599 17.9742 40.3092 17.6719 40.6655C17.501 40.8681 17.3104 40.8996 17.1198 40.69C16.9292 40.4804 17.1001 40.3476 17.2217 40.2079C18.316 38.9539 19.1638 37.5252 19.8769 36.0022C20.0248 35.6843 20.176 35.3699 20.3008 35.0311C19.453 35.4956 18.7136 36.1 18.1352 36.8929C17.7705 37.3924 17.4813 37.9548 17.1724 38.4963C17.0541 38.7024 16.9292 38.863 16.6893 38.7478C16.456 38.6395 16.4823 38.4299 16.5611 38.2273C16.9325 37.2632 17.5306 36.4737 18.2141 35.7437C18.2732 35.6808 18.3554 35.6389 18.4277 35.5865C18.4047 35.555 18.3817 35.5201 18.3587 35.4887C17.9972 35.6738 17.6292 35.8485 17.2775 36.0476C15.5227 37.0361 14.0965 38.4509 12.7557 39.9774C11.5924 41.2978 10.7544 42.8173 10.3173 44.5743C10.2911 44.6826 10.2713 44.7944 10.245 44.9342C10.8629 44.5045 11.4281 44.0888 12.0163 43.7115C13.2585 42.9221 14.5105 42.1571 15.7593 41.3816C15.9663 41.2524 16.1832 41.2104 16.3245 41.4585C16.4658 41.71 16.2752 41.8707 16.1011 41.9824C15.2368 42.5274 14.3692 43.0688 13.4951 43.5998C12.2562 44.3543 11.06 45.1717 9.98873 46.1812C9.62067 46.527 9.38077 46.4886 9.2559 45.9786C9.01272 44.9831 8.83198 43.97 8.64138 42.9605C8.59537 42.716 8.60523 42.4575 8.60523 42.206C8.60523 41.9789 8.64466 41.7379 8.91413 41.7379C9.1836 41.7379 9.21318 41.9824 9.23947 42.2025C9.31177 42.8103 9.37749 43.4181 9.45307 44.0259C9.4695 44.1656 9.51222 44.3054 9.54509 44.4556C11.4018 39.2578 14.9838 36.0231 19.798 34.1089C19.2262 33.7735 18.6216 33.5674 17.9972 33.4382C15.7494 32.9666 13.8204 33.7526 12.1116 35.2337C11.4774 35.7821 10.9614 36.4842 10.3896 37.1165C10.2911 37.2248 10.1859 37.354 10.061 37.4064C9.9723 37.4413 9.81126 37.3994 9.73568 37.3261C9.67324 37.2667 9.66996 37.1095 9.6831 37.0012C9.69296 36.9139 9.76198 36.83 9.81456 36.7532C11.2441 34.783 13.012 33.3404 15.3321 32.757C16.8207 32.3832 18.247 32.6103 19.6403 33.2216C19.7422 33.267 19.8441 33.3124 19.9886 33.2845C19.7882 33.1587 19.6009 33.0085 19.3873 32.9177C18.1286 32.3832 16.8667 31.8663 15.6081 31.3423C15.4405 31.2724 15.2401 31.2445 15.1119 31.1292C15.01 31.0349 14.9377 30.8218 14.964 30.6821C14.9805 30.5947 15.2204 30.469 15.3255 30.4969C18.5887 31.475 21.5529 32.9701 23.5805 36.0301C23.6002 36.0581 23.6133 36.0895 23.6298 36.1209C23.6692 36.1069 23.7053 36.093 23.7448 36.0825C23.4852 34.2486 23.2223 32.4147 22.9561 30.5389C22.8444 30.5948 22.7951 30.6157 22.7458 30.6402C22.1674 30.9336 21.7435 30.8882 21.2933 30.4096C20.9679 30.0673 20.6853 29.676 20.3863 29.3093C20.1661 29.5782 19.9394 29.8961 19.6732 30.1686C18.9403 30.9231 18.3915 30.9231 17.6423 30.193C17.2085 29.7704 17.2019 29.7704 16.6499 30.1022C15.9565 30.5179 15.2138 30.4341 14.7866 29.8263C14.5894 29.5468 14.4711 29.1905 14.3659 28.8517C14.2772 28.5652 14.1228 28.3976 13.8862 28.2404C13.4951 27.9854 13.1139 27.6989 12.7721 27.3776C12.5553 27.1715 12.4107 27.3601 12.2529 27.4125C12.1872 27.4334 12.1149 27.65 12.1445 27.7478C12.2332 28.0552 12.3548 28.3522 12.483 28.6456C12.5717 28.8447 12.6505 29.0228 12.4468 29.187C12.2233 29.3687 12.0656 29.187 11.967 29.0333C11.7797 28.7434 11.6351 28.4185 11.4609 28.0867C10.646 28.0657 10.3798 27.7828 10.2911 26.8606C10.268 26.6265 10.1399 26.403 10.0479 26.1794C9.97558 26.0048 9.88028 25.8441 9.79812 25.6729C9.71925 25.5052 9.66668 25.3201 9.56809 25.1664C9.20661 24.6145 8.80898 24.0905 8.45735 23.5281C7.76396 22.4208 7.58979 21.2576 8.17802 20.0175C8.23389 19.8987 8.18789 19.6332 8.09916 19.5494C7.3992 18.9032 7.43534 17.981 7.28089 17.1356C7.21188 16.7619 7.38604 16.43 7.61937 16.1541C7.77053 15.9759 7.97099 15.8362 8.09258 15.6406C8.29632 15.3052 8.5165 14.9559 8.61837 14.5821C8.80897 13.8905 9.12774 13.3351 9.7324 12.9823C9.82113 12.9299 9.91314 12.7727 9.90985 12.6644C9.88685 11.599 10.3009 10.8445 11.2375 10.4113C11.4116 10.331 11.5431 10.1179 11.668 9.94673C11.8684 9.66029 12.0032 9.30748 12.2431 9.07344C12.6966 8.62981 13.2421 8.54248 13.8139 8.84987C13.9946 8.94768 14.1753 9.05248 14.3692 9.11536C14.4875 9.15378 14.6288 9.12235 14.7702 9.12235C14.688 8.80447 14.5894 8.56695 14.5763 8.32243C14.5533 7.90674 14.7241 7.5679 15.033 7.28845C15.3058 7.04043 15.5588 6.76448 15.779 6.46407C16.2325 5.84229 16.7714 5.50344 17.5404 5.68508C17.6686 5.71652 17.8362 5.66762 17.9611 5.60125C18.7727 5.18556 19.4727 5.36721 20.0905 6.02393C20.1201 6.05537 20.1595 6.07981 20.2154 6.12172C20.1727 5.79337 20.1135 5.49296 20.1004 5.18906C20.0708 4.61618 20.3468 4.22494 20.8266 4.00488C21.3031 3.7883 21.7895 3.59618 22.2726 3.39357C22.3251 3.37261 22.381 3.34117 22.4336 3.34816C23.1894 3.43898 23.9978 3.21893 24.6879 3.76037C24.7471 3.80928 24.8851 3.76736 24.9804 3.73941C25.3353 3.64161 25.6836 3.51236 26.0418 3.43201C26.2817 3.37612 26.5348 3.38311 26.7845 3.36914C26.8732 3.36215 26.9718 3.34467 27.054 3.37611C27.6784 3.61714 28.3192 3.82674 28.914 4.13064C29.4792 4.41708 29.6468 4.93406 29.5022 5.58728C29.4562 5.79338 29.4003 5.99597 29.3248 6.29638C29.4693 6.17063 29.5449 6.10776 29.6172 6.03789C30.1693 5.47899 30.82 5.36022 31.5265 5.66412C31.6908 5.73399 31.888 5.75495 32.0687 5.73749C32.7786 5.67461 33.3471 5.89118 33.7677 6.54091C33.9747 6.86228 34.2409 7.14873 34.5235 7.40373C35.0296 7.86133 35.1183 8.24558 34.8456 9.1538C35.0526 9.34243 35.2366 9.36686 35.5028 9.19919C36.5347 8.54248 37.3792 8.86036 37.9182 10.0131C38.0661 10.3275 38.3158 10.6488 38.6017 10.8165C39.4003 11.2881 39.7223 11.9867 39.696 12.9264C39.6927 13.0556 39.7946 13.2338 39.8998 13.3141C40.4223 13.7124 40.7772 14.2189 40.8593 14.9035C40.9119 15.3227 41.0861 15.651 41.3687 15.9305C41.4837 16.0458 41.5954 16.1645 41.7105 16.2798C42.1705 16.7304 42.3841 17.2579 42.1935 17.9286C42.1278 18.1556 42.118 18.4002 42.0884 18.6412C42.0358 19.0674 41.8518 19.4376 41.5363 19.6821C41.2373 19.9162 41.2405 20.1572 41.3917 20.4506C41.7039 21.055 41.7203 21.7082 41.6086 22.3474C41.533 22.7736 41.3621 23.1997 41.1452 23.57C40.7903 24.1813 40.3533 24.7367 39.9688 25.3306C39.8307 25.5437 39.7683 25.8091 39.6467 26.0327C39.4101 26.4589 39.2688 26.8955 39.2195 27.4055C39.1637 28.0098 38.7594 28.2613 38.0891 28.2613C37.9346 28.5408 37.7966 28.8272 37.629 29.0927C37.5304 29.2429 37.4055 29.4176 37.1854 29.2499C36.9882 29.0997 36.9816 28.925 37.0868 28.7189C37.1854 28.5303 37.3069 28.3487 37.3694 28.1461C37.4121 28.0098 37.4351 27.7863 37.3628 27.7024C37.2675 27.5941 37.0736 27.5627 36.9192 27.5487C36.8337 27.5417 36.7319 27.6221 36.6497 27.6815C36.2356 27.9889 35.8084 28.2823 35.424 28.6246C35.2399 28.7888 35.0756 29.0333 35.0066 29.2778C34.816 29.9485 34.4677 30.448 33.7874 30.4935C33.4489 30.5144 33.0776 30.3887 32.7588 30.242C32.1673 29.973 32.1772 29.9485 31.7073 30.4201C30.8528 31.2794 29.6961 30.993 29.2886 29.8193C29.2295 29.6446 29.167 29.47 29.0783 29.2115C27.6915 30.9336 26.6728 32.7815 25.9137 34.8529C26.2982 34.6154 26.6399 34.3778 27.0047 34.1822C28.007 33.6443 29.0553 33.2461 30.1496 32.9666C30.4421 32.8933 30.5571 33.047 30.6491 33.253C30.7575 33.4941 30.6031 33.6443 30.4125 33.7281C30.2055 33.8189 29.982 33.8713 29.7684 33.9412C29.5679 34.0076 29.3642 34.0739 29.1473 34.2032C31.6152 35.0485 33.8006 36.3515 35.6803 38.2448C37.5403 40.1206 39.1965 42.1222 39.9392 44.8154C39.9589 44.7874 39.9918 44.7804 40.0246 44.777ZM32.8344 25.4109C33.1433 25.7148 33.4522 25.9908 33.725 26.3052C33.7907 26.3785 33.7809 26.6265 33.7118 26.7069C33.6461 26.7872 33.4424 26.8117 33.3339 26.7663C33.1729 26.6964 33.0415 26.5462 32.9067 26.4204C32.7293 26.2528 32.5584 26.0711 32.3251 25.8336C32.3251 26.4449 32.3283 26.9479 32.3218 27.4474C32.3185 27.6535 32.2626 27.8806 32.0326 27.8387C31.8946 27.8142 31.7467 27.643 31.6678 27.4963C31.6087 27.388 31.6448 27.2169 31.6448 27.0737C31.6415 26.7418 31.6448 26.4134 31.6448 26.0571C31.5692 26.0816 31.5265 26.0886 31.4871 26.1061C31.0763 26.3087 30.6721 26.5252 30.258 26.7104C30.051 26.8047 29.7947 26.885 29.6797 26.5706C29.5712 26.2702 29.7717 26.155 30.0017 26.0502C30.5275 25.8022 31.0402 25.5332 31.5397 25.2817C31.3819 25.0302 31.1946 24.8345 31.1354 24.6005C31.096 24.4503 31.2505 24.2442 31.3162 24.0626C31.4476 24.1429 31.6152 24.1918 31.7073 24.3106C31.8716 24.5132 31.9964 24.7577 32.1443 24.9987C32.8509 24.5551 33.3208 23.9613 33.4884 23.1194C33.5607 22.7631 33.4358 22.5326 33.1302 22.4068C32.8903 22.3055 32.6438 22.2112 32.3941 22.1448C32.2922 22.1204 32.1312 22.1448 32.0655 22.2147C31.7927 22.5186 31.5331 22.8365 31.2899 23.1683C31.1354 23.3814 30.9909 23.4233 30.7411 23.3255C30.4158 23.1962 30.0707 23.1089 29.7257 23.0565C29.1309 22.9692 28.6675 23.3045 28.5656 23.9368C28.5032 24.321 28.4901 24.7367 28.5689 25.1105C28.6642 25.5576 28.6609 25.893 28.398 26.3156C27.8427 27.2064 28.1647 28.1565 29.1013 28.5058C29.6074 28.6945 29.7618 29.1067 29.9294 29.5573C30.2219 30.3398 30.705 30.4445 31.2702 29.8612C31.9143 29.1905 32.1509 29.1521 32.9396 29.5748C33.0086 29.6132 33.0809 29.6481 33.1565 29.6795C33.7874 29.9625 34.1686 29.7948 34.3264 29.0857C34.4545 28.5094 34.7437 28.1216 35.2465 27.8841C35.4305 27.7967 35.6047 27.6745 35.7624 27.5417C36.1469 27.2239 36.2948 26.8187 36.2554 26.2807C36.2225 25.8161 35.8873 25.6764 35.6671 25.3935C35.1709 24.7507 34.5695 24.3874 33.7907 24.3281C33.4851 24.6809 33.1532 25.0546 32.8344 25.4109ZM26.0747 17.1286C25.8907 16.9575 25.7559 16.8317 25.6212 16.7025C25.0954 16.1995 24.632 16.189 24.08 16.6571C23.6298 17.0378 23.6068 17.5688 23.6758 18.0998C23.7316 18.5154 23.6363 18.8124 23.3373 19.0848C23.0284 19.3643 22.7162 19.6542 22.4763 19.9965C22.3251 20.2061 22.2036 20.5345 22.2397 20.779C22.3613 21.544 22.8772 21.9492 23.6035 21.9387C24.0438 21.9317 24.3659 22.1239 24.5795 22.5256C24.6452 22.6513 24.7076 22.7806 24.7635 22.9098C24.9672 23.3814 25.3024 23.6119 25.8052 23.6154C26.1043 23.6154 26.4033 23.7132 26.7057 23.7447C26.8601 23.7587 27.054 23.7796 27.169 23.6958C27.3333 23.5805 27.4845 23.3919 27.5699 23.2032C27.9117 22.4417 28.1943 21.6453 29.0487 21.3414C29.1999 21.2855 29.3248 21.1388 29.4595 21.0235C29.706 20.8139 29.8243 20.5205 29.683 20.2271C29.4956 19.8393 29.2689 19.4621 28.9994 19.1337C28.8384 18.9381 28.7628 18.7774 28.8252 18.5294C28.9468 18.0369 28.9074 17.5548 28.7365 17.0798C28.6478 16.8317 28.5032 16.7025 28.2469 16.6571C27.4483 16.5174 26.6859 16.5034 26.0747 17.1286ZM22.9988 18.5015C22.9988 18.2115 23.012 18.0264 22.9955 17.8447C22.8904 16.451 23.6988 15.8502 24.6321 15.6965C25.0297 15.6301 25.1808 15.4939 25.2761 15.1061C25.4405 14.4424 25.4667 14.4459 24.9278 14.1001C24.0701 13.5552 23.7086 12.591 24.2081 11.606C24.2377 11.5501 24.2574 11.4662 24.241 11.4069C24.1358 11.0121 23.38 10.579 23.0119 10.7292C22.5617 10.9143 22.1312 11.1449 21.6778 11.3615C21.2111 10.9388 20.6689 10.6523 20.0018 10.7292C19.7027 10.7641 19.5253 10.9248 19.5319 11.2672C19.5384 11.5082 19.5187 11.7492 19.5417 11.9867C19.5943 12.5282 19.4201 12.888 18.9305 13.136C18.6052 13.3002 18.3028 13.5691 18.0596 13.8556C17.6817 14.3062 17.7212 14.7079 18.1352 15.1166C18.3488 15.3262 18.5822 15.5358 18.8385 15.6755C19.4267 16.0004 19.7225 16.458 19.7225 17.1915C19.7225 17.8482 20.2745 18.1976 20.8529 17.9915C20.9482 17.9565 21.0468 17.9251 21.1388 17.8832C21.7073 17.6317 22.197 17.7749 22.6308 18.2115C22.7195 18.2989 22.8214 18.3617 22.9988 18.5015ZM28.914 35.2895C29.2722 35.9183 29.6107 36.4702 29.9097 37.0466C31.0303 39.2089 32.5222 40.9729 34.5498 42.22C36.1042 43.1736 37.629 44.1796 39.1702 45.1612C39.2195 45.1926 39.2787 45.2031 39.3871 45.245C39.2622 44.8678 39.1735 44.5499 39.0552 44.239C38.9008 43.8408 38.7529 43.4321 38.5524 43.0583C37.0473 40.2289 34.8784 38.0911 32.2955 36.4074C31.7533 36.0545 31.1552 35.8031 30.5834 35.5061C30.5702 35.6109 30.5965 35.6458 30.6195 35.6843C31.1716 36.5471 31.727 37.4029 32.2659 38.2727C32.3941 38.4788 32.4499 38.7513 32.1739 38.891C31.9176 39.0202 31.7828 38.8141 31.6744 38.6011C31.5397 38.3391 31.4115 38.0701 31.2636 37.8151C30.6754 36.8021 29.9886 35.8939 28.914 35.2895ZM22.4763 18.9206C22.174 18.725 21.9275 18.4351 21.6975 18.4456C21.2965 18.4665 20.9022 18.6691 20.5112 18.8054C20.4651 18.8193 20.4323 18.8892 20.406 18.9416C20.1628 19.4236 19.9196 19.9057 19.6863 20.3913C19.5943 20.5834 19.499 20.8035 19.2755 20.7022C19.1737 20.6567 19.1309 20.4297 19.0915 20.2725C19.0718 20.1886 19.0981 20.0769 19.1342 19.993C19.3281 19.5459 19.5286 19.1023 19.7422 18.6272C19.2591 18.3128 19.0192 17.7924 19.0718 17.1182C19.0817 17.0029 19.0488 16.8771 19.0094 16.7654C18.9009 16.4545 18.3488 16.1401 18.1418 16.2624C17.363 16.7165 16.5743 17.0797 15.6739 16.6012C15.5588 16.5418 15.3814 16.5663 15.2467 16.6082C15.1579 16.6361 15.033 16.7654 15.033 16.8492C15.0429 17.3278 14.7603 17.492 14.4054 17.6666C13.735 17.9915 13.6758 19.0394 14.2772 19.4865C14.7997 19.8708 14.8655 20.1433 14.6519 20.7685C14.5697 21.0096 14.5631 21.282 14.5335 21.5405C14.527 21.6069 14.5434 21.7117 14.5861 21.7396C14.8293 21.9003 15.0823 22.0435 15.2236 22.1308C15.6081 21.8724 15.9138 21.6453 16.2424 21.4602C16.5809 21.268 16.939 21.1213 17.3827 20.9117C17.662 21.275 18.0005 21.7187 18.3488 22.1518C18.4178 22.2356 18.5591 22.3474 18.6249 22.3195C19.1605 22.1029 19.7093 22.1239 20.2647 22.1518C20.3731 22.1588 20.5309 22.075 20.5867 21.9806C20.8496 21.5475 21.1027 21.1074 21.3228 20.6463C21.6186 20.035 21.8552 19.3922 22.4763 18.9206ZM23.2453 25.5856C22.8509 25.3341 22.4894 25.0965 22.1214 24.8695C22.0688 24.838 21.9834 24.8345 21.9275 24.8555C21.4017 25.0791 20.8726 25.2921 20.4914 25.7742C20.1792 26.1689 20.1727 26.2353 20.4421 26.644C20.5473 26.8012 20.6459 26.9619 20.7478 27.1191C21.0172 27.5348 21.0862 27.9679 20.9088 28.45C20.8661 28.5687 20.8956 28.7678 20.9646 28.8691C21.2111 29.2255 21.4937 29.5573 21.7632 29.8961C21.9472 30.1302 22.1641 30.1476 22.3942 29.9904C22.6209 29.8367 22.8444 29.6691 23.0711 29.5084C23.5345 29.187 23.8039 29.2639 24.126 29.7215C24.3034 29.973 24.54 30.2 24.7964 30.3572C25.148 30.5773 25.5489 30.4236 25.7592 30.0463C25.8381 29.9031 25.9038 29.7459 25.963 29.5922C26.239 28.8936 26.6629 28.3591 27.3662 28.1321C27.5436 28.0762 27.5699 27.9714 27.5568 27.7863C27.5338 27.395 27.5042 26.9898 27.5666 26.6091C27.6126 26.3191 27.6159 26.1305 27.3727 25.9454C27.0244 25.6764 26.8141 25.3026 26.7221 24.8415C26.6103 24.2756 26.2489 24.087 25.7658 24.3595C25.2104 24.6704 24.8687 25.2048 24.5039 25.8441C24.9705 26.0257 25.3879 26.1899 25.8085 26.3506C25.9794 26.4169 26.1864 26.4693 26.1404 26.7243C26.0944 26.9863 25.8808 27.0667 25.6705 27.0283C25.4273 26.9828 25.194 26.8885 24.964 26.7907C24.7602 26.7069 24.5663 26.5916 24.2969 26.4519C24.264 26.9758 24.2476 27.4265 24.1983 27.8771C24.1786 28.0413 24.1194 28.2963 24.0175 28.3382C23.7941 28.429 23.6166 28.2299 23.5805 28.0063C23.5279 27.6815 23.5147 27.3391 23.5345 27.0073C23.5509 26.7139 23.6396 26.4274 23.6955 26.1375C23.5476 26.1724 23.4622 26.2598 23.3702 26.3331C23.0974 26.5462 22.8345 26.7767 22.542 26.9444C22.4434 27.0003 22.2627 26.8955 22.1181 26.8641C22.1674 26.7243 22.1838 26.5462 22.2758 26.4554C22.5585 26.1759 22.8739 25.9174 23.2453 25.5856ZM17.7442 25.9593C17.7014 26.3646 17.6653 26.7697 17.616 27.1715C17.593 27.3706 17.6522 27.6675 17.3531 27.6675C17.0409 27.6675 16.9982 27.3846 16.9818 27.1226C16.9686 26.9444 16.9686 26.7628 16.9851 26.5811C17.0113 26.2912 17.0606 26.0013 17.1066 25.638C16.9391 25.7742 16.8207 25.858 16.7156 25.9628C16.525 26.1515 16.3607 26.375 16.1536 26.5357C16.0419 26.623 15.8579 26.6056 15.71 26.6335C15.687 26.4659 15.6114 26.2842 15.6509 26.134C15.6903 25.9873 15.8349 25.865 15.9499 25.7567C16.1471 25.5751 16.3607 25.4109 16.5776 25.2293C16.4297 25.1245 16.2982 25.0511 16.1865 24.9498C16.0748 24.8485 15.9729 24.7333 15.8842 24.611C15.503 24.094 15.4537 24.0416 14.8753 24.2582C14.5697 24.3735 14.3101 24.625 14.0406 24.8345C13.8894 24.9533 13.781 25.1384 13.6233 25.2467C13.3571 25.4249 13.2585 25.6624 13.2322 25.9908C13.1665 26.7383 13.4557 27.2518 14.0866 27.5382C14.6453 27.7897 14.9476 28.2159 15.0856 28.8412C15.2631 29.6272 15.7232 29.8088 16.3738 29.4106C17.2217 28.8936 17.5108 28.9425 18.1615 29.7005C18.5066 30.1022 18.8056 30.1511 19.1309 29.7354C19.5549 29.1975 19.8999 28.5897 20.2647 28.0028C20.314 27.9225 20.3173 27.7548 20.2745 27.6675C19.8638 26.8641 19.292 26.2633 18.4178 26.0676C18.2141 26.0222 18.0038 26.0013 17.7442 25.9593ZM28.6708 22.4068C28.6971 22.4522 28.7234 22.4976 28.7497 22.543C29.3806 22.2147 30.0149 22.2426 30.6622 22.4767C30.7608 22.5116 30.9449 22.4278 31.027 22.337C31.3261 22.0121 31.5988 21.6558 31.8847 21.3135C32.026 21.1458 32.1706 21.0794 32.3875 21.2121C32.7128 21.4147 33.071 21.565 33.3996 21.7606C33.61 21.8863 33.794 22.061 33.9912 22.2112C34.0405 22.2496 34.093 22.3195 34.1456 22.323C34.5531 22.3439 35.0395 21.6488 34.908 21.2401C34.7174 20.6358 34.6878 20.0804 35.2794 19.6856C35.3517 19.6367 35.4108 19.5529 35.4601 19.4726C35.7986 18.9695 35.585 18.0893 35.0559 17.8692C34.747 17.7399 34.5662 17.5618 34.4972 17.1915C34.4019 16.685 34.208 16.5907 33.7743 16.7933C33.002 17.1566 32.2791 17.1391 31.6021 16.5523C31.5199 16.4824 31.3951 16.451 31.2866 16.437C30.7608 16.3706 30.4519 16.685 30.3566 17.3732C30.2778 17.9565 30.2153 18.5469 29.7815 19.0115C29.8867 19.1547 29.982 19.2874 30.0806 19.4167C30.4782 19.9546 30.5801 20.5659 30.2153 21.1213C29.9754 21.4881 29.5679 21.7291 29.2229 22.0121C29.052 22.1693 28.8581 22.2811 28.6708 22.4068ZM24.6485 12.3081C24.6748 12.9928 24.9377 13.3491 25.3682 13.5237C25.894 13.7368 26.1897 14.1071 26.4132 14.6555C26.6991 15.3576 27.0638 16.0598 27.9938 15.8991C28.0891 15.8816 28.1943 15.927 28.2929 15.948C28.4605 15.9864 28.5295 15.9095 28.6248 15.7523C28.7924 15.4799 29.0027 15.2004 29.259 15.0398C29.5285 14.8651 29.8736 14.8127 30.189 14.7254C30.636 14.6031 30.9054 14.2887 30.8726 13.8311C30.843 13.4434 30.728 13.0696 30.4092 12.8286C29.9623 12.4897 29.8078 12.0531 29.9261 11.4802C30.0214 11.0087 29.8735 10.82 29.4135 10.834C28.4703 10.8585 27.5403 10.8794 26.6794 10.3554C26.5019 10.2472 26.2752 10.2506 26.0944 10.4672C25.7757 10.848 25.4142 11.1903 25.102 11.5815C24.8917 11.8295 24.7504 12.1404 24.6485 12.3081ZM29.5515 17.6491C29.5778 17.6386 29.6041 17.6282 29.6337 17.6177C29.6665 17.443 29.7092 17.2684 29.7257 17.0937C29.8341 15.8711 31.0533 15.5113 31.8091 15.8956C32.003 15.9934 32.2002 16.0877 32.3941 16.1785C32.9954 16.4545 33.7118 16.2658 34.0766 15.6965C34.2475 15.431 34.4512 15.2633 34.7371 15.1865C34.8653 15.1515 35.0066 15.0991 35.1019 15.0083C35.2991 14.8197 35.5653 14.5717 35.3714 14.2852C34.9606 13.6809 34.9212 13.0556 35.1052 12.3745C35.1676 12.1439 35.2169 11.8889 34.9836 11.7178C34.7437 11.5431 34.4742 11.4348 34.1883 11.5885C33.4325 12.0007 32.6668 12.2103 31.8058 11.9483C31.635 11.8959 31.3425 12.102 31.1847 12.2697C31.1059 12.357 31.1716 12.633 31.2176 12.8076C31.2768 13.0382 31.3983 13.2478 31.4641 13.4748C31.6974 14.2678 31.3491 15.0188 30.6162 15.3017C30.3829 15.3926 30.1364 15.4345 29.8998 15.5183C29.7191 15.5847 29.5384 15.6615 29.3806 15.7698C29.144 15.927 29.0651 16.1401 29.19 16.4475C29.3149 16.7514 29.3806 17.0833 29.4726 17.4046C29.4989 17.485 29.5252 17.5653 29.5515 17.6491ZM34.4348 10.8305C34.6714 10.8899 34.8752 10.9213 35.0658 10.9877C35.7854 11.2392 36.045 11.7946 35.815 12.5666C35.769 12.7273 35.7066 12.8845 35.677 13.0486C35.608 13.4434 35.9497 14.0128 36.2587 13.9604C36.7417 13.88 37.0802 14.0756 37.4121 14.4075C37.6421 14.638 37.7736 14.5961 37.8787 14.2747C38.0365 13.7997 38.3027 13.4294 38.7134 13.1849C38.9829 13.0242 39.0388 12.7832 39.0092 12.4828C38.9698 12.088 38.812 11.7597 38.4801 11.5711C37.8689 11.2217 37.4384 10.7257 37.1722 10.0341C36.9783 9.53454 36.4854 9.39481 36.0319 9.64283C35.8413 9.74762 35.6507 9.85942 35.4897 10.0061C35.3221 10.1598 35.1972 10.1912 34.9935 10.055C34.5531 9.76858 34.0799 9.83147 33.6855 10.1354C33.5212 10.2646 33.4161 10.5685 33.3964 10.8026C33.3734 11.0855 33.5705 11.1624 33.8236 11.0471C34.0306 10.9598 34.2475 10.8969 34.4348 10.8305ZM15.963 10.9283C16.433 10.0236 15.8152 9.69872 15.2467 9.7092C15.0922 9.71269 14.9279 9.75461 14.7899 9.82448C14.458 9.99914 14.1984 9.95372 13.9026 9.69174C13.4064 9.2516 12.6834 9.13283 12.3384 10.1004C12.1576 10.6104 11.8224 10.9842 11.3131 11.1833C10.7774 11.3964 10.5835 11.8785 10.6 12.4513C10.6032 12.598 10.7084 12.7971 10.8267 12.8775C11.2408 13.1674 11.5365 13.5342 11.6943 14.0372C11.7961 14.3551 11.9046 14.3865 12.1149 14.156C12.4402 13.7997 12.8346 13.6879 13.2881 13.7193C13.3735 13.7263 13.5017 13.7054 13.5477 13.646C13.781 13.3281 13.9125 12.9613 13.735 12.5736C13.3407 11.7143 13.7777 10.9842 14.619 10.7327C15.0889 10.5895 15.5293 10.6803 15.963 10.9283ZM24.4907 37.0711C25.2236 34.053 26.5216 31.3458 28.4243 28.8517C28.1483 28.7923 27.9314 28.6665 27.7868 28.7294C27.2183 28.9704 26.7188 29.2848 26.515 30.0044C26.1338 31.3493 24.7043 31.4541 23.8697 30.5703C23.7875 30.483 23.6988 30.3991 23.6068 30.3048C23.9025 32.5893 24.195 34.832 24.4907 37.0711ZM17.8395 25.1769C18.4573 25.39 19.0389 25.5891 19.6305 25.7917C19.8736 25.5157 20.1135 25.2118 20.3863 24.9463C20.9384 24.4084 21.0271 23.8146 20.6097 23.1439C20.544 23.0391 20.4421 22.9168 20.337 22.8958C19.752 22.7666 19.1638 22.7491 18.6479 23.1404C18.4441 23.2941 18.3094 23.2836 18.1615 23.0845C17.9118 22.7456 17.6587 22.4033 17.3958 22.075C17.3334 21.9981 17.2052 21.9003 17.1362 21.9213C16.8339 22.0051 16.5184 22.0959 16.2489 22.2601C16.1011 22.3509 15.9598 22.5885 15.9433 22.7701C15.8612 23.7482 16.6006 24.6739 17.3498 24.8974C17.4386 24.6529 17.5076 24.3944 17.6259 24.1674C17.7442 23.9438 17.9676 23.7796 18.1911 23.9228C18.4178 24.0661 18.3094 24.328 18.2108 24.5376C18.1549 24.6529 18.0728 24.7577 18.0071 24.8695C17.9512 24.9638 17.8986 25.0616 17.8395 25.1769ZM28.0366 7.1068C28.0366 7.09981 28.0366 7.09282 28.0333 7.08234C27.9314 7.08234 27.8164 7.11379 27.7309 7.07537C27.5962 7.01249 27.3727 6.88325 27.3826 6.81338C27.4056 6.6527 27.5239 6.47804 27.6488 6.37674C27.7408 6.30688 27.9117 6.32783 28.0431 6.34879C28.306 6.38372 28.4802 6.27544 28.5919 6.03092C28.6807 5.8353 28.7792 5.64667 28.8417 5.44058C28.9764 5.00044 28.891 4.84324 28.4802 4.66858C28.0398 4.48345 27.6028 4.28782 27.1624 4.11316C27.0408 4.06426 26.9028 4.05728 26.7714 4.05728C26.4789 4.06077 26.1864 4.09919 25.8972 4.0957C25.3813 4.08871 25.0395 4.49742 25.102 5.03886C25.1283 5.27988 25.2433 5.40215 25.4372 5.479C25.7855 5.61523 26.1437 5.73051 26.4822 5.89818C27.0408 6.17064 27.1197 6.6492 26.7155 7.13824C26.6268 7.24653 26.5348 7.35481 26.469 7.48057C26.2752 7.82988 26.3277 7.99406 26.6728 8.15474C26.8272 8.2246 27.0047 8.26304 27.1394 8.36085C27.8032 8.8429 28.4342 8.69618 29.0914 8.3259C29.6337 8.0185 29.6961 7.61679 29.2229 7.19063C29.0389 7.02296 28.8515 6.94611 28.6018 7.02296C28.421 7.08235 28.2239 7.08234 28.0366 7.1068ZM21.4017 6.30687C21.4247 6.27543 21.4477 6.24748 21.4707 6.21605C21.6055 6.23351 21.7632 6.20905 21.8684 6.27542C21.9965 6.35577 22.1181 6.50248 22.1641 6.64919C22.1838 6.70858 21.9998 6.91816 21.8979 6.92864C21.543 6.96008 21.1848 6.93563 20.8299 6.92864C20.7248 6.92864 20.567 6.87974 20.5243 6.93563C20.3501 7.16269 20.199 7.41769 20.0642 7.67618C20.0347 7.73207 20.0774 7.89276 20.13 7.92071C20.6097 8.18269 21.0961 8.4377 21.589 8.67174C21.6613 8.70667 21.7862 8.65077 21.8782 8.61234C22.2331 8.45864 22.588 8.29796 22.9397 8.13728C23.2387 8.00105 23.3044 7.71462 23.104 7.44564C22.9988 7.30592 22.8772 7.17667 22.7786 7.02996C22.4467 6.53044 22.4993 6.25097 23.0152 5.96802C23.3866 5.76542 23.7743 5.59777 24.1621 5.43708C24.3757 5.34975 24.4513 5.21352 24.4579 4.97948C24.4743 4.38215 24.2147 4.08873 23.6166 4.06777C23.357 4.05729 23.0974 4.0468 22.8411 4.05378C22.657 4.05728 22.4632 4.05029 22.2956 4.11316C21.8716 4.27035 21.4609 4.47296 21.0402 4.64063C20.8365 4.72097 20.728 4.8607 20.7806 5.07728C20.8529 5.38817 20.9416 5.69907 21.0665 5.989C21.1224 6.11825 21.2834 6.20208 21.4017 6.30687ZM16.4494 13.8626C16.2654 13.7613 16.1339 13.7124 16.0288 13.625C15.8414 13.4678 15.8546 13.2443 16.0025 13.0906C16.0879 12.9997 16.2785 12.9543 16.4001 12.9858C16.548 13.0242 16.6729 13.1674 16.8076 13.2617C16.8963 13.1045 16.9719 12.9369 17.0738 12.7937C17.1461 12.6958 17.2479 12.6015 17.3564 12.5561C17.7113 12.4024 17.9249 12.5666 17.9611 13.0102C18.1286 12.86 18.3653 12.6854 18.3784 12.4967C18.408 12.0636 17.9413 11.6723 17.547 11.8051C16.8339 12.0426 16.2259 11.847 15.6147 11.4732C15.4241 11.358 15.1579 11.323 14.9345 11.344C14.4448 11.3894 14.2608 11.7422 14.412 12.2243C14.5894 12.7971 14.5598 13.3561 14.2542 13.8835C14.0045 14.3097 14.1063 14.6695 14.5368 14.8721C14.9115 15.0502 15.2729 15.2284 15.48 15.6441C15.5326 15.7523 15.6607 15.8187 15.7593 15.8991C16.3081 16.3357 17.0836 16.0633 17.708 15.6371C17.547 15.41 17.3465 15.2004 17.2414 14.9489C17.1362 14.7044 17.1296 14.4145 17.0771 14.1245C17.0409 14.1735 17.0146 14.2084 16.9883 14.2468C16.8273 14.4913 16.6926 14.7603 16.4987 14.9664C16.318 15.162 16.0682 15.1376 15.9006 14.9175C15.7264 14.6904 15.8415 14.5053 16.0255 14.3341C16.1668 14.2049 16.2917 14.0372 16.4494 13.8626ZM35.9563 24.7717C36.2619 24.3106 36.63 24.1149 37.0868 24.0241C37.4515 23.9508 37.7604 23.3954 37.6454 23.081C37.4877 22.6478 37.5863 22.3474 37.8985 22.0365C38.2534 21.6837 38.2107 21.4672 37.8065 21.1388C37.5797 20.9537 37.4581 20.7336 37.537 20.4227C37.6126 20.1258 37.4844 19.9371 37.2478 19.8114C37.0572 19.7066 36.8699 19.5844 36.6661 19.525C36.5511 19.49 36.377 19.5215 36.2849 19.5983C36.0746 19.773 35.8906 19.9826 35.7131 20.1956C35.6343 20.29 35.5455 20.4297 35.5587 20.538C35.5784 20.7196 35.6737 20.8943 35.7099 20.9956C36.1108 20.9956 36.469 20.9711 36.8206 21.0096C36.9553 21.0235 37.1656 21.1702 37.1854 21.2855C37.2314 21.544 36.9948 21.5964 36.8042 21.6383C36.676 21.6663 36.5445 21.6767 36.3934 21.6977C36.4361 21.9387 36.4755 22.1343 36.5018 22.3335C36.5347 22.578 36.4492 22.805 36.2192 22.819C36.068 22.8295 35.8939 22.6828 35.7591 22.5675C35.677 22.4976 35.654 22.3509 35.608 22.2426C35.1709 22.5151 34.7536 22.7526 34.3625 23.0286C34.2541 23.1054 34.2015 23.2941 34.1588 23.4443C34.1456 23.4827 34.2475 23.605 34.3132 23.6224C34.9573 23.7936 35.5225 24.094 35.9563 24.7717ZM13.689 20.9851C13.7547 20.8489 13.7974 20.7511 13.85 20.6602C14.0176 20.3528 14.0143 20.1118 13.6693 19.9372C13.5543 19.8813 13.4655 19.7485 13.3899 19.6333C13.0876 19.1652 13.0909 19.1617 12.6013 19.4027C12.4665 19.4691 12.3384 19.5459 12.2069 19.6053C11.9539 19.7241 11.8126 19.9476 11.9013 20.2096C12.0426 20.6323 11.8323 20.8489 11.5694 21.0794C11.3426 21.2785 11.3722 21.6767 11.6055 21.8444C11.9933 22.1239 12.0327 22.2426 11.898 22.7002C11.7501 23.1928 11.9835 23.7167 12.4337 23.8809C12.8181 24.0206 13.2059 24.1499 13.6364 24.3001C13.9157 23.825 14.4021 23.5665 14.9936 23.4862C15.0955 23.4722 15.2664 23.3534 15.2664 23.2836C15.2664 23.1473 15.2072 22.9517 15.1086 22.8819C14.6913 22.5885 14.2476 22.3334 13.8073 22.061C13.7942 22.1308 13.8073 22.2426 13.7613 22.2915C13.6265 22.4313 13.4787 22.6199 13.3209 22.6374C13.2256 22.6478 13.0778 22.3893 12.9989 22.2252C12.9529 22.1343 12.9792 21.9841 13.0087 21.8724C13.0843 21.5859 13.0087 21.4287 12.7163 21.4148C12.6505 21.4113 12.5684 21.4148 12.5191 21.3763C12.4369 21.3135 12.3186 21.2191 12.3154 21.1388C12.3154 21.034 12.3942 20.8559 12.4731 20.8314C12.8773 20.7161 13.3045 20.545 13.689 20.9851ZM9.99201 18.3198C9.72582 17.8413 9.6141 17.436 9.88685 17.0448C10.1267 16.7025 10.4094 16.3951 10.8661 16.3986C10.807 16.2274 10.7577 16.0947 10.7215 15.955C10.6854 15.8187 10.6262 15.6685 10.6427 15.5358C10.6755 15.2598 10.7347 14.9804 10.8201 14.7149C10.8694 14.5577 11.1619 14.5193 11.0403 14.2573C10.9614 14.0861 10.899 13.901 10.7906 13.7543C10.531 13.398 10.3009 13.3735 9.946 13.625C9.55495 13.901 9.33476 14.2922 9.26247 14.7778C9.19346 15.2458 8.99629 15.6371 8.68738 15.9724C8.51321 16.161 8.33904 16.3532 8.18459 16.5558C8.09258 16.6746 7.96113 16.8352 7.97756 16.954C8.06957 17.5513 8.19117 18.1417 8.32919 18.725C8.37519 18.9137 8.52636 18.9416 8.67095 18.7984C9.01272 18.4561 9.40049 18.236 9.99201 18.3198ZM38.6839 16.6117C39.4693 16.7584 39.7552 17.2893 39.7059 18.3722C40.1659 18.6307 40.6063 18.8752 41.1222 19.1652C41.2044 18.9835 41.3391 18.7565 41.4147 18.5084C41.487 18.2709 41.4706 18.0054 41.5429 17.7679C41.6776 17.3382 41.5297 17.0274 41.2438 16.7479C41.1452 16.6501 41.0499 16.5453 40.9546 16.444C40.5439 16.0248 40.2448 15.5497 40.1824 14.928C40.1397 14.4948 39.903 14.1804 39.5876 13.9219C39.2852 13.6739 39.0388 13.6984 38.7956 14.0128C38.7036 14.1315 38.6017 14.2643 38.5656 14.4075C38.5327 14.5263 38.5426 14.7114 38.6083 14.7987C38.8843 15.1515 38.9632 15.5428 38.8712 15.9759C38.8252 16.182 38.7529 16.3846 38.6839 16.6117ZM8.48364 21.6977C8.70381 22.8819 9.37091 23.7028 10.0117 24.5481C10.0512 24.4119 10.0512 24.2931 10.0512 24.1744C10.0577 23.4408 10.2582 23.1543 10.922 22.9343C11.1422 22.8609 11.2243 22.6234 11.1159 22.3858C10.9483 22.0191 10.7873 21.6488 10.6032 21.2366C10.5178 21.2017 10.3535 21.1562 10.2056 21.0759C10.0052 20.9641 9.81127 20.793 9.96572 20.538C10.0972 20.3214 10.3141 20.1956 10.5769 20.3773C10.7413 20.4925 10.9286 20.6078 11.0797 20.3703C11.2276 20.1328 11.2802 19.8778 11.0337 19.6612C10.8234 19.4795 10.6361 19.228 10.3962 19.1372C10.1202 19.0324 9.77512 18.994 9.4958 19.0708C9.18361 19.1582 9.02915 19.4865 8.97 19.8463C8.93385 20.0594 8.86812 20.283 8.75968 20.4646C8.53622 20.8384 8.52637 21.0061 8.90099 21.2191C9.56809 21.6034 9.75869 22.2811 9.946 22.9692C9.97558 23.0775 9.90328 23.2661 9.81784 23.3395C9.75211 23.3954 9.5418 23.3779 9.48922 23.3115C9.3512 23.1404 9.19018 22.9273 9.17703 22.7212C9.15074 22.2287 8.88784 21.9667 8.48364 21.6977ZM40.9316 21.8689C40.5011 22.2042 40.3237 22.6443 40.2777 23.1543C40.2514 23.4443 40.1627 23.6748 39.8538 23.6189C39.5547 23.563 39.5909 23.2941 39.6106 23.046C39.6632 22.2706 40.0542 21.7291 40.6556 21.3379C40.8593 21.2052 40.9349 21.0235 40.787 20.8349C40.5603 20.5485 40.5209 20.2131 40.488 19.8743C40.4453 19.4516 40.1364 19.3503 39.8308 19.249C39.5547 19.1582 39.2885 19.1232 39.0684 19.4202C38.9599 19.5634 38.7923 19.6647 38.6379 19.759C38.3947 19.9092 38.2665 20.2795 38.4045 20.5554C38.5689 20.8838 38.7759 20.7301 39.0026 20.6218C39.1209 20.5659 39.3312 20.5659 39.4233 20.6463C39.5218 20.7301 39.5941 20.9536 39.5613 21.0794C39.5251 21.2052 39.3543 21.31 39.2195 21.3693C39.1176 21.4148 38.9796 21.3798 38.858 21.3798C38.8843 21.4078 38.9106 21.4322 38.9369 21.4602C38.766 21.806 38.5951 22.1553 38.421 22.5011C38.2862 22.7701 38.3552 23.0216 38.5951 23.1089C39.2097 23.336 39.4364 23.6923 39.4167 24.3979C39.4134 24.5306 39.4167 24.6634 39.4167 24.8345C40.0214 24.4189 41.0565 22.4068 40.9316 21.8689ZM27.8788 10.0935C27.8065 9.59743 27.6126 9.28654 27.1756 9.1538C26.8634 9.05948 26.5742 8.87783 26.262 8.77304C26.1076 8.72064 25.9104 8.71365 25.7592 8.76604C25.0954 9.00008 24.4415 9.08742 23.7875 8.73112C23.7152 8.6927 23.6068 8.66825 23.5345 8.6927C23.1171 8.84291 22.6833 8.96166 22.3021 9.18523C22.0524 9.33194 21.8618 9.61489 21.6909 9.86989C21.6317 9.96071 21.6646 10.2017 21.7435 10.2856C21.8158 10.3659 22.0097 10.3764 22.1312 10.3415C22.3481 10.2821 22.5486 10.1598 22.7589 10.0725C23.4096 9.807 23.7941 9.90482 24.2673 10.4532C24.3199 10.5161 24.3659 10.586 24.4152 10.6489C24.6682 10.9632 24.9311 10.9667 25.1776 10.6419C25.2564 10.5406 25.3156 10.4218 25.3747 10.3065C25.7198 9.61838 26.1634 9.42277 26.8634 9.67427C27.1953 9.79304 27.5141 9.94325 27.8788 10.0935ZM36.9487 26.8466C37.1788 26.8745 37.3825 26.8536 37.5534 26.9269C37.7374 27.0038 37.8919 27.1645 38.0529 27.2972C38.1449 27.3741 38.2238 27.4684 38.306 27.5557C38.3947 27.43 38.5689 27.2902 38.5557 27.175C38.4998 26.6545 38.7364 26.2493 38.9468 25.8266C39.0026 25.7148 39.0519 25.5122 38.9961 25.4389C38.743 25.1 38.7496 24.7018 38.7167 24.3106C38.7003 24.1115 38.7134 23.8984 38.4571 23.8285C38.2074 23.7621 38.1088 23.9333 38.0069 24.108C37.7539 24.5411 37.4121 24.8136 36.9159 24.8555C36.7779 24.866 36.6464 24.9673 36.4361 25.0651C37.0572 25.5681 36.9225 26.2143 36.9487 26.8466ZM12.5454 26.5706C12.5092 25.9838 12.506 25.4598 12.8806 25.0057C13.0186 24.838 12.8576 24.7088 12.6933 24.7018C12.1478 24.6739 11.7698 24.3595 11.4708 23.9089C11.3591 23.7412 11.2276 23.5246 11.0173 23.6643C10.8859 23.7517 10.8037 23.9647 10.7544 24.1394C10.669 24.4468 10.6755 24.7856 10.5572 25.0721C10.4324 25.369 10.4389 25.5891 10.646 25.8196C10.9286 26.1375 11.0272 26.5183 10.9647 26.9444C10.9352 27.1505 11.0107 27.3007 11.1882 27.3042C11.2933 27.3077 11.4445 27.1959 11.4938 27.0911C11.6285 26.8047 11.8126 26.637 12.1182 26.623C12.2529 26.6195 12.3844 26.5916 12.5454 26.5706ZM34.2541 8.79399C34.3132 8.46913 34.3888 8.22811 34.1358 7.99057C33.8466 7.71811 33.5837 7.4072 33.3471 7.08234C33.0907 6.72604 32.818 6.36276 32.3711 6.41865C31.8617 6.48502 31.3951 6.38721 30.912 6.25447C30.4486 6.12522 30.051 6.36974 29.913 6.80289C29.8867 6.88673 29.9064 7.02647 29.959 7.07887C30.0083 7.12777 30.1496 7.12776 30.2153 7.08584C30.9646 6.61426 31.9307 7.04392 32.1213 7.94166C32.141 8.03249 32.164 8.1233 32.1936 8.23857C33.002 7.87878 33.5705 8.47612 34.2541 8.79399ZM19.5844 7.06138C19.7685 6.81686 19.7093 6.62475 19.5384 6.43612C19.2295 6.09029 18.7925 6.00296 18.3554 6.14968C18.0498 6.25098 17.7179 6.34878 17.4057 6.31734C16.9292 6.26844 16.6137 6.43961 16.3311 6.82735C16.0781 7.17317 15.7856 7.49454 15.48 7.79146C15.1579 8.10584 15.1283 8.31892 15.4274 8.67871C16.0091 8.24556 16.548 7.68667 17.3597 8.01503C17.4977 6.91469 18.776 6.35926 19.5844 7.06138ZM26.3014 6.60728C25.7888 6.36974 25.309 6.14618 24.8259 5.92961C24.7997 5.91563 24.7569 5.92262 24.7273 5.9331C24.2541 6.14269 23.7809 6.35578 23.2157 6.61427C23.3537 6.72605 23.4786 6.78542 23.541 6.88673C23.6823 7.12426 23.9058 7.38974 23.8894 7.63426C23.8664 8.03947 24.057 8.15825 24.3297 8.18969C24.6353 8.22462 24.9541 8.20016 25.2597 8.16173C25.516 8.1268 25.6836 8.01851 25.6738 7.65173C25.6672 7.41419 25.8644 7.16269 25.9925 6.93214C26.0616 6.80638 26.1831 6.72604 26.3014 6.60728ZM24.8719 24.1499C24.6748 23.8914 24.4152 23.6504 24.2771 23.3465C24.0701 22.8889 23.8729 22.5081 23.3077 22.7247C23.2979 22.7282 23.2847 22.7282 23.2749 22.7247C22.8772 22.5291 22.7359 22.8225 22.6472 23.1299C22.5617 23.4268 22.5223 23.7377 22.4862 24.0451C22.4763 24.1324 22.5223 24.2722 22.588 24.3211C23.0415 24.6739 23.5049 25.0057 23.965 25.3445C24.2673 24.9463 24.5762 24.5376 24.8719 24.1499ZM35.0165 16.5488C35.0789 16.458 35.1183 16.4021 35.1578 16.3462C35.493 15.8537 35.7066 15.8222 36.1699 16.175C36.3342 16.3008 36.5084 16.4126 36.6924 16.4964C36.7516 16.5243 36.86 16.4615 36.9356 16.4195C37.0441 16.3637 37.1689 16.21 37.2412 16.2379C37.3628 16.2833 37.445 16.444 37.5534 16.5418C37.629 16.6082 37.7572 16.713 37.7999 16.6885C38.0923 16.5208 38.3158 15.7489 38.1811 15.417C38.1515 15.3472 38.0431 15.2493 38.0003 15.2633C37.5173 15.431 37.2116 15.155 36.8962 14.8302C36.6497 14.5752 36.1765 14.5821 36.0582 14.8546C35.7821 15.4938 35.3319 15.8362 34.6944 15.948C34.6813 15.9515 34.6747 15.9864 34.655 16.0283C34.7634 16.182 34.8752 16.3462 35.0165 16.5488ZM11.4511 15.0607C11.2638 15.6441 11.4215 16.203 11.8257 16.4999C12.1839 15.8711 12.2431 15.8606 12.828 16.3532C13.8303 15.6022 13.8303 15.6021 14.5631 16.2728C14.6387 16.2134 14.7143 16.1506 14.8655 16.0318C14.6913 15.8886 14.5631 15.7 14.4087 15.6685C13.9946 15.5882 13.804 15.3157 13.6528 14.9385C13.4458 14.418 12.8707 14.2678 12.5092 14.6904C12.2036 15.0432 11.8881 15.1795 11.4511 15.0607ZM36.3671 18.7146C36.5248 18.732 36.6694 18.7145 36.7844 18.7669C37.0802 18.9102 37.3792 19.0674 37.6487 19.256C37.8755 19.4167 38.0266 19.4621 38.1942 19.1757C38.2698 19.0429 38.421 18.9311 38.5623 18.8787C38.812 18.7879 38.9106 18.6098 38.9665 18.3582C39.1505 17.5234 39.0059 17.3208 38.2008 17.3208C37.5863 17.3208 37.5863 17.3208 37.583 17.9915C37.583 18.2639 37.3924 18.3862 37.1919 18.4002C37.0835 18.4071 36.9422 18.2674 36.86 18.1556C36.7746 18.0439 36.745 17.8867 36.6924 17.7469C36.2784 17.9426 36.2258 18.1137 36.3671 18.7146ZM11.9769 17.1112C11.8224 17.1112 11.7107 17.1112 11.6023 17.1112C11.3656 17.1112 11.1258 17.0937 10.8924 17.1217C10.784 17.1356 10.6493 17.209 10.5835 17.3033C10.4258 17.5304 10.5474 18.3897 10.7577 18.5609C11.0403 18.7879 11.3426 18.9905 11.5924 19.1687C12.082 18.8159 12.5487 18.491 13.1402 18.4072C13.2782 17.8867 13.2256 17.705 12.8642 17.4954C12.667 17.7225 12.7459 18.2919 12.2661 18.1661C11.7436 18.0299 11.9342 17.5513 11.9769 17.1112ZM21.1881 9.27255C20.6097 9.01057 20.1234 8.45166 19.4333 8.87433C18.7037 8.75556 18.4408 9.49611 17.9381 9.72316C18.362 9.91878 18.7662 10.1074 19.2131 10.3135C19.6633 9.89083 20.2745 9.91878 20.8891 10.076C20.9909 9.79652 21.083 9.55201 21.1881 9.27255ZM31.635 9.8594C31.1387 9.57646 30.7838 8.82892 29.9919 9.02453C29.5712 8.74508 29.2196 9.01756 28.8483 9.17126C28.5656 9.29003 28.4079 9.46468 28.5131 9.80002C28.6117 10.1144 28.8285 10.2157 29.1276 10.1458C29.5416 10.048 29.9294 10.0899 30.2843 10.3799C30.3566 10.4393 30.5275 10.4183 30.6261 10.3729C30.9679 10.2192 31.2998 10.0341 31.635 9.8594ZM21.612 24.356C21.7008 24.1883 21.7928 24.073 21.8256 23.9438C21.9735 23.35 22.105 22.7526 22.2528 22.1099C22.128 21.9247 21.9472 21.6593 21.7566 21.3728C21.5397 21.7745 21.3261 22.1763 21.1487 22.5116C21.2966 23.1054 21.4379 23.6678 21.612 24.356ZM33.8137 9.2481C33.4818 9.11536 33.186 8.98262 32.8771 8.88132C32.6373 8.80447 32.4828 8.91276 32.3941 9.18173C32.3053 9.44721 32.164 9.69522 32.0589 9.92227C32.2922 9.97118 32.5847 10.0341 32.7753 10.076C33.14 9.78604 33.4457 9.54152 33.8137 9.2481ZM17.524 9.71969C17.4024 9.44722 17.3038 9.18173 17.1658 8.94769C17.0968 8.82893 16.9489 8.6892 16.8339 8.68221C16.4691 8.66824 16.1569 8.84988 15.9138 9.05598C16.1931 9.30749 16.4494 9.54501 16.7189 9.76858C16.7846 9.82447 16.893 9.85941 16.9752 9.84893C17.1691 9.82099 17.3597 9.75811 17.524 9.71969ZM18.5822 11.5117C18.6249 11.5047 18.6676 11.4977 18.7136 11.4942C18.6972 11.344 18.7202 11.1728 18.6577 11.0506C18.3455 10.4428 17.1592 10.3484 16.7452 10.8899C16.7024 10.9458 16.709 11.0715 16.7386 11.1484C16.7583 11.2043 16.8569 11.2671 16.9095 11.2602C17.0738 11.2357 17.2381 11.1868 17.3991 11.1379C17.9479 10.9598 18.224 11.0471 18.5822 11.5117ZM30.774 11.6619C31.2505 11.1693 31.7335 11.0645 32.2725 11.3719C32.3218 11.3999 32.3776 11.4313 32.4302 11.4278C32.5452 11.4243 32.657 11.3999 32.772 11.3859C32.726 11.2602 32.7095 11.0645 32.6274 11.0261C32.3448 10.8864 32.0457 10.7362 31.7434 10.7117C31.2308 10.6663 30.8397 11.0645 30.774 11.6619ZM31.4016 8.97914C31.4542 8.97215 31.5068 8.96517 31.5594 8.95818C31.5364 8.65079 31.5627 8.32592 31.4772 8.03948C31.3852 7.73907 31.1124 7.55393 30.8101 7.59934C30.659 7.62379 30.5111 7.80544 30.3993 7.94866C30.3566 8.00105 30.3862 8.15825 30.4289 8.2351C30.4519 8.27352 30.5932 8.277 30.659 8.24557C30.935 8.11632 31.0862 8.24556 31.1913 8.50056C31.2603 8.66124 31.3326 8.81846 31.4016 8.97914ZM18.1747 8.80796C18.1944 8.75905 18.2108 8.71713 18.224 8.67522C18.4178 8.09186 18.4671 8.06742 19.0389 8.11982C19.0915 8.12331 19.2131 7.98009 19.2065 7.92071C19.1572 7.53297 18.7859 7.34084 18.4376 7.50502C17.9315 7.73906 17.8099 8.32241 18.1747 8.80796ZM13.482 17.3802C13.827 17.3557 14.034 17.2509 14.0768 16.9784C14.1326 16.6082 13.827 16.692 13.643 16.6431C13.3899 16.5767 13.1665 16.7165 13.1599 16.9435C13.1566 17.1007 13.3899 17.2649 13.482 17.3802ZM36.3737 17.1811C36.1305 16.9994 35.9366 16.7549 35.8084 16.7863C35.6408 16.8282 35.424 17.0902 35.4108 17.2684C35.3911 17.5967 35.7493 17.4885 35.9333 17.5583C36.0089 17.5898 36.1765 17.3557 36.3737 17.1811ZM27.9084 25.624C27.9314 25.6065 27.9511 25.5891 27.9741 25.5716C27.9018 25.1804 27.8295 24.7926 27.754 24.3734C27.6291 24.4398 27.5009 24.5027 27.3136 24.6005C27.5206 24.9568 27.7145 25.2887 27.9084 25.624ZM26.4296 16.2309C26.446 16.1925 26.4625 16.1576 26.4789 16.1191C26.3146 15.8711 26.1503 15.6231 25.9893 15.3751C25.9465 15.3856 25.9071 15.3961 25.8644 15.41C25.9005 15.6336 25.894 15.8851 25.9958 16.0737C26.0484 16.1785 26.2784 16.182 26.4296 16.2309Z" fill="#FFEB61"/>
<path d="M40.8859 40.938C40.8235 41.0009 40.7314 41.1721 40.6066 41.2105C40.3667 41.2804 40.2779 41.0743 40.2254 40.8577C40.0709 40.2219 39.9888 39.5478 39.7423 38.9539C38.602 36.1943 36.5777 34.5316 33.86 33.7771C33.5018 33.6758 33.1305 33.6199 32.7624 33.557C32.5258 33.5151 32.4239 33.3754 32.4633 33.1308C32.4995 32.9003 32.6342 32.8095 32.8511 32.8444C36.1472 33.3823 38.6513 35.1324 40.2089 38.3077C40.6 39.0902 40.784 39.946 40.8859 40.938Z" fill="#FFEB61"/>
<path d="M15.2991 35.1324C15.1512 35.2616 15.0822 35.3594 14.9869 35.4013C13.9024 35.8939 13.002 36.6309 12.2988 37.6404C12.1805 37.8081 12.026 37.9618 11.8157 37.7837C11.5922 37.595 11.6613 37.368 11.796 37.1759C12.4532 36.2537 13.2584 35.5096 14.2508 35.0171C14.4512 34.9193 14.6813 34.8529 14.8982 34.8494C15.0099 34.8459 15.1282 35.0066 15.2991 35.1324Z" fill="#FFEB61"/>
<path d="M34.4613 35.0764C34.6847 35.1568 34.849 35.2022 35.0002 35.272C36.0616 35.7611 36.8931 36.5575 37.5733 37.5356C37.6785 37.6858 37.8001 37.8465 37.57 38.0211C37.3696 38.1713 37.2381 38.1294 37.0837 37.9443C36.7682 37.5705 36.4461 37.2003 36.0978 36.8579C35.6246 36.3899 35.0889 36.0091 34.458 35.8205C34.2181 35.7471 34.1524 35.5655 34.2049 35.3559C34.2345 35.2441 34.3791 35.1637 34.4613 35.0764Z" fill="#FFEB61"/>
<path d="M15.2204 38.87C15.4603 38.863 15.6509 39.1774 15.5293 39.401C15.2105 39.9948 14.8786 40.5816 14.5237 41.151C14.4613 41.2523 14.2608 41.2558 14.1228 41.3082C14.0768 41.1615 13.9486 40.9694 13.9979 40.8785C14.3364 40.2288 14.7077 39.6036 15.0758 38.9713C15.1054 38.9189 15.1842 38.8944 15.2204 38.87Z" fill="#FFEB61"/>
<path d="M9.79806 38.0948C9.66004 38.6572 9.53846 39.1392 9.42015 39.6248C9.39058 39.74 9.40043 39.8763 9.34457 39.9706C9.28213 40.0789 9.15726 40.2291 9.0751 40.2186C8.96009 40.2046 8.81878 40.0824 8.76291 39.9636C8.71033 39.8518 8.72348 39.6771 8.75634 39.5479C8.89436 39.0344 9.03567 38.5174 9.2197 38.0214C9.25585 37.9166 9.46945 37.8328 9.59761 37.8398C9.67977 37.8467 9.75206 38.0319 9.79806 38.0948Z" fill="#FFEB61"/>
<path d="M10.5871 39.6282C10.8796 39.6282 11.0209 39.8867 10.896 40.1417C10.7153 40.5084 10.5247 40.8752 10.3012 41.2141C10.2289 41.3258 10.0482 41.3608 9.91672 41.4306C9.851 41.2874 9.69983 41.1093 9.73598 41.0114C9.90029 40.5783 10.1139 40.1661 10.3308 39.7574C10.3768 39.6771 10.5247 39.6561 10.5871 39.6282Z" fill="#FFEB61"/>
<path d="M38.3818 40.1416C38.6907 39.7748 38.855 39.7539 39.1377 40.1591C39.3513 40.463 39.5057 40.8158 39.6733 41.1546C39.7883 41.3887 39.7062 41.5843 39.5024 41.7031C39.2855 41.8288 39.1935 41.6332 39.1081 41.483C38.8616 41.0428 38.625 40.5957 38.3818 40.1416Z" fill="#FFEB61"/>
<path d="M31.4116 33.5744C31.1388 33.5744 30.9844 33.4417 30.9844 33.1867C30.9844 32.9142 31.1618 32.778 31.4083 32.7745C31.6613 32.771 31.8322 32.9177 31.8256 33.1832C31.8191 33.4521 31.6252 33.5639 31.4116 33.5744Z" fill="#FFEB61"/>
<path d="M25.6936 19.0045C25.9368 18.6342 26.1372 18.2744 26.3936 17.9635C26.5677 17.7504 26.8832 17.5164 27.1001 17.726C27.34 17.9565 27.0508 18.2185 26.8898 18.4246C26.2555 19.249 26.2555 19.256 27.1724 19.5773C27.3301 19.6332 27.5076 19.6961 27.6193 19.8149C27.7113 19.9127 27.7705 20.1188 27.7376 20.241C27.7146 20.3214 27.4846 20.4087 27.3728 20.3773C27.0146 20.2829 26.6663 20.1397 26.3114 20.0175C26.272 20.0035 26.226 20.0105 26.1734 20.007C26.0584 20.524 26.2128 20.9571 26.4757 21.3693C26.5644 21.5091 26.7386 21.6558 26.5381 21.8339C26.3508 21.9981 26.1175 21.9771 25.9959 21.7815C25.802 21.4706 25.6607 21.1213 25.5161 20.7755C25.4603 20.6358 25.4603 20.4716 25.4241 20.2585C25.2762 20.3458 25.1481 20.4262 25.0134 20.503C24.895 20.5694 24.7702 20.6812 24.6486 20.6812C24.5007 20.6777 24.3528 20.5764 24.2017 20.5205C24.2542 20.3843 24.2674 20.1921 24.3627 20.1258C24.6847 19.8917 25.0364 19.7031 25.388 19.49C25.2795 19.4341 25.1481 19.3712 25.0199 19.2979C24.9115 19.235 24.7965 19.1756 24.7044 19.0918C24.5171 18.9171 24.2805 18.7006 24.4777 18.4281C24.6683 18.1696 24.9148 18.3687 25.1054 18.5119C25.3223 18.6691 25.5161 18.8508 25.6936 19.0045Z" fill="#FFEB61"/>
<path d="M22.0198 14.5858C21.9311 15.0434 21.8555 15.4241 21.7832 15.8119C21.7372 16.0599 21.6551 16.2555 21.3626 16.2031C21.08 16.1507 21.0767 15.9271 21.1161 15.7071C21.1884 15.2879 21.2804 14.8722 21.3757 14.4076C21.1391 14.5194 20.9387 14.6451 20.7218 14.715C20.5345 14.7779 20.3241 14.8198 20.1303 14.8023C20.0317 14.7919 19.8969 14.6451 19.8739 14.5369C19.8542 14.453 19.9627 14.2819 20.0547 14.2399C20.403 14.0723 20.7678 13.9395 21.126 13.7928C21.1654 13.7753 21.2016 13.7544 21.3396 13.681C21.057 13.4156 20.8105 13.192 20.5772 12.9579C20.4359 12.8182 20.288 12.654 20.4457 12.4305C20.6199 12.186 20.8335 12.3082 20.9748 12.4515C21.2443 12.7204 21.4743 13.0313 21.7471 13.3527C21.8062 13.2514 21.8588 13.1186 21.9508 13.0278C22.217 12.7623 22.4865 12.4969 22.7822 12.2663C22.8512 12.2104 23.0747 12.2558 23.1306 12.3327C23.1897 12.4095 23.17 12.6121 23.1108 12.7134C23.0254 12.8636 22.8742 12.9684 22.7592 13.0977C22.6212 13.2549 22.4766 13.4086 22.355 13.5797C22.217 13.7754 22.2137 13.9221 22.4733 14.0478C22.7789 14.198 23.055 14.4146 23.3409 14.6067C23.6136 14.7919 23.5085 15.0364 23.3705 15.2215C23.331 15.2774 23.101 15.2215 22.9827 15.1586C22.6705 14.991 22.3714 14.7989 22.0198 14.5858Z" fill="#FFEB61"/>
<path d="M35.4602 41.1581C35.4504 41.4236 35.1678 41.5668 34.9805 41.4166C34.8753 41.3327 34.7833 41.2175 34.7143 41.0952C34.4448 40.6376 34.1951 40.166 33.9256 39.7084C33.7843 39.4709 33.85 39.2613 34.0406 39.1635C34.1326 39.1146 34.3758 39.2194 34.4448 39.3277C34.78 39.8551 35.079 40.4035 35.388 40.9485C35.4241 41.0253 35.4405 41.1092 35.4602 41.1581Z" fill="#FFEB61"/>
<path d="M17.317 19.0743C17.2546 19.5074 17.2053 19.9057 17.133 20.3039C17.1133 20.4157 17.0475 20.5379 16.9654 20.6078C16.8898 20.6707 16.7583 20.7091 16.6663 20.6881C16.5973 20.6707 16.5152 20.5379 16.5086 20.4541C16.4889 20.1327 16.502 19.8113 16.502 19.5528C16.2786 19.6611 16.019 19.8183 15.7429 19.9057C15.6279 19.9406 15.3749 19.8463 15.3551 19.7625C15.319 19.6227 15.3814 19.4131 15.4734 19.2944C15.5655 19.1791 15.7429 19.1337 15.8842 19.0708C16.0354 19.0044 16.1898 18.9555 16.3443 18.8996C16.3476 18.8612 16.3509 18.8263 16.3541 18.7878C16.1767 18.7075 15.9828 18.6551 15.8251 18.5433C15.7002 18.456 15.6147 18.2988 15.5096 18.173C15.6476 18.0857 15.7823 17.9285 15.9204 17.9285C16.157 17.9251 16.3936 18.0194 16.6368 18.0753C16.7123 17.8936 16.7814 17.6805 16.8832 17.4849C17.0015 17.2613 17.1987 17.1531 17.4287 17.2613C17.6785 17.3766 17.6095 17.6246 17.5536 17.8237C17.501 18.0019 17.3992 18.1661 17.3006 18.3757C17.5766 18.4805 17.8461 18.5818 18.1123 18.6901C18.247 18.7459 18.3784 18.8228 18.5066 18.8961C18.7104 19.0114 18.9437 19.1302 18.7826 19.4376C18.6348 19.7205 18.4146 19.6402 18.1944 19.5249C17.9052 19.3677 17.6095 19.221 17.317 19.0743Z" fill="#FFEB61"/>
<path d="M32.8837 18.2885C33.1663 18.2151 33.4128 18.1208 33.6625 18.0999C33.771 18.0929 33.9583 18.2186 33.9879 18.3269C34.0175 18.4282 33.9189 18.6308 33.8203 18.6972C33.6428 18.8159 33.4259 18.8649 33.1565 18.9696C33.3898 19.0989 33.5804 19.2107 33.7743 19.312C34.1128 19.4866 34.2836 19.7381 34.1982 19.9547C34.0996 20.1923 33.8071 20.2202 33.4489 20.0106C33.2846 19.9128 33.1302 19.7975 32.9429 19.6683C32.9626 19.9512 33.0053 20.2027 32.9889 20.4472C32.9823 20.5765 32.8739 20.6988 32.8114 20.8245C32.6833 20.7512 32.4664 20.7022 32.4401 20.6009C32.3513 20.2516 32.3316 19.8814 32.2856 19.5216C32.279 19.4762 32.2856 19.4307 32.2856 19.312C32.026 19.4237 31.8026 19.5181 31.5824 19.6194C31.4476 19.6788 31.3195 19.7591 31.1815 19.8115C30.9711 19.8953 30.7313 19.8849 30.682 19.6299C30.6557 19.4936 30.7937 19.2351 30.9218 19.1653C31.3195 18.9557 31.75 18.8089 32.1805 18.6308C32.1115 18.4003 32.0359 18.1522 31.9603 17.9007C31.8913 17.6632 31.934 17.4187 32.1575 17.3698C32.2889 17.3418 32.5091 17.4955 32.6044 17.6318C32.7457 17.8274 32.8016 18.0859 32.8837 18.2885Z" fill="#FFEB61"/>
<path d="M27.5044 12.2522C27.6588 12.0147 27.7804 11.7771 27.948 11.592C28.0663 11.4628 28.2372 11.358 28.4048 11.3161C28.5034 11.2916 28.6611 11.3894 28.7367 11.4837C28.7761 11.5291 28.7235 11.7038 28.671 11.7911C28.5395 12.0217 28.3818 12.2382 28.2109 12.4967C28.4179 12.5945 28.5724 12.6574 28.717 12.7413C28.8649 12.8251 29.0292 12.9054 29.1376 13.0347C29.2263 13.143 29.2461 13.3176 29.2953 13.4608C29.154 13.5028 28.993 13.6111 28.8747 13.5761C28.6184 13.5028 28.3851 13.3526 28.0564 13.1884C28.0893 13.4469 28.109 13.6669 28.1485 13.887C28.1846 14.0966 28.2898 14.3236 28.0203 14.4389C27.7738 14.5437 27.6095 14.3691 27.5339 14.1735C27.4321 13.9045 27.3861 13.6076 27.3401 13.3176C27.3203 13.1954 27.3598 13.0626 27.3762 12.8705C27.1593 12.9229 26.9917 12.9928 26.8208 12.9963C26.6598 13.0033 26.4988 12.9439 26.3345 12.9159C26.4035 12.7168 26.4199 12.4304 26.5514 12.343C26.742 12.2173 27.018 12.2278 27.2579 12.1928C27.3335 12.1928 27.4156 12.2313 27.5044 12.2522Z" fill="#FFEB61"/>
<path d="M33.0578 14.1385C33.1729 14.2503 33.3109 14.3271 33.3602 14.4459C33.4259 14.6031 33.485 14.8301 33.4259 14.9629C33.3634 15.0991 33.1531 15.2249 33.0085 15.2249C32.9067 15.2249 32.7982 15.0083 32.7128 14.8721C32.532 14.5926 32.3677 14.3027 32.1903 14.0232C31.9997 13.7193 31.7762 13.4329 31.6251 13.1115C31.5725 12.9997 31.6415 12.7273 31.7401 12.6574C31.8387 12.5875 32.0654 12.6295 32.1903 12.7063C32.3152 12.7797 32.3907 12.9543 32.4729 13.094C32.5419 13.2128 32.5945 13.3421 32.6536 13.4748C33.1499 13.0242 33.3109 12.9788 33.508 13.2303C33.6855 13.4608 33.5869 13.6704 33.0578 14.1385Z" fill="#FFEB61"/>
<path d="M37.9476 7.80544C37.78 7.6762 37.6682 7.62729 37.6124 7.53996C37.5466 7.43167 37.5236 7.29196 37.4875 7.16272C37.1819 6.05189 36.5411 5.26942 35.4895 4.90264C35.2693 4.82579 35.059 4.75243 35.0557 4.44853C35.0524 4.13415 35.2857 4.12018 35.4829 4.04333C36.5509 3.63813 37.2903 2.90107 37.5762 1.70292C37.6288 1.48634 37.7142 1.28024 37.964 1.28374C38.2137 1.28723 38.2893 1.48286 38.3386 1.70991C38.5884 2.91156 39.3113 3.64861 40.3892 4.01888C40.616 4.09573 40.777 4.2075 40.7836 4.47298C40.7901 4.74545 40.5798 4.78038 40.3991 4.83976C39.2456 5.20305 38.5818 6.05189 38.2532 7.25004C38.2006 7.43169 38.0691 7.58538 37.9476 7.80544ZM37.8851 5.82483C38.3288 5.35675 38.8053 4.85724 39.2916 4.34724C38.7132 4.04683 38.2565 3.57525 38.0001 2.99539C37.5335 3.4984 37.0734 3.99791 36.6594 4.44853C37.0636 4.89915 37.4842 5.37771 37.8851 5.82483Z" fill="#FFEB61"/>
<path d="M22.3481 43.8233C22.3053 43.8617 22.2232 43.9979 22.1147 44.0364C21.0664 44.3822 20.3829 45.0738 20.1496 46.244C20.1233 46.3733 19.9327 46.5305 19.8012 46.5514C19.7027 46.5654 19.5351 46.4012 19.4759 46.2755C19.3247 45.9541 19.2525 45.5908 19.0881 45.2834C18.7792 44.7001 18.3126 44.3088 17.6882 44.1516C17.4615 44.0923 17.2511 44.0119 17.2544 43.7045C17.2577 43.4181 17.4582 43.3517 17.6652 43.2679C18.5229 42.9185 19.144 42.3212 19.3707 41.3361C19.3872 41.2698 19.3938 41.1894 19.4365 41.1475C19.5482 41.0392 19.6731 40.8786 19.7947 40.8751C19.9097 40.8716 20.0707 41.0218 20.1364 41.1475C20.2317 41.3292 20.2416 41.5597 20.327 41.7518C20.6787 42.5343 21.2505 43.0548 22.0391 43.2958C22.3218 43.3762 22.3513 43.4216 22.3481 43.8233ZM20.6951 43.722C20.3928 43.3936 20.0378 43.0024 19.7881 42.7299C19.5318 43.0129 19.1703 43.4076 18.845 43.7674C19.0848 44.0259 19.4463 44.4171 19.7289 44.7245C20.0773 44.3647 20.4453 43.984 20.6951 43.722Z" fill="#FFEB61"/>
<path d="M39.2555 34.8459C39.1701 34.7377 39.0452 34.6399 39.0058 34.5176C38.7922 33.8259 38.48 33.2077 37.8951 32.7955C37.6782 32.6418 37.4153 32.5579 37.1984 32.4042C37.0636 32.3099 36.8993 32.1422 36.896 31.999C36.8928 31.8663 37.0505 31.6497 37.182 31.5973C38.0857 31.2445 38.71 30.6227 39.0222 29.6411C39.0682 29.4944 39.2687 29.2953 39.3771 29.3093C39.5053 29.3233 39.6795 29.5259 39.7189 29.6761C39.9621 30.6472 40.5799 31.2305 41.4212 31.5833C41.6118 31.6637 41.7761 31.7336 41.7728 31.9886C41.7662 32.2331 41.6249 32.3448 41.431 32.4182C40.4977 32.771 39.9292 33.4801 39.6795 34.4861C39.617 34.6992 39.5447 34.818 39.2555 34.8459ZM40.1527 31.9851C39.9391 31.7336 39.6137 31.3458 39.3048 30.9825C38.9828 31.3109 38.641 31.6567 38.3946 31.9047C38.7068 32.2505 39.0452 32.6278 39.3213 32.9352C39.5743 32.6487 39.8996 32.275 40.1527 31.9851Z" fill="#FFEB61"/>
<path d="M7.89872 11.5119C6.67625 11.5014 5.72655 10.4604 5.7364 9.1435C5.74626 7.87898 6.75513 6.8485 7.96445 6.86945C9.18692 6.88692 10.1399 7.9209 10.1268 9.20987C10.1169 10.5128 9.13762 11.5223 7.89872 11.5119ZM7.93159 10.705C8.70384 10.7015 9.36437 10.0028 9.3578 9.19591C9.35123 8.39597 8.69728 7.71132 7.94473 7.71132C7.16919 7.71132 6.50209 8.40644 6.50866 9.20288C6.51524 10.0308 7.15604 10.7084 7.93159 10.705Z" fill="#FFEB61"/>
<path d="M12.46 31.8593C12.46 32.7431 11.8619 33.4068 11.0667 33.4103C10.232 33.4137 9.58789 32.743 9.58789 31.8628C9.58789 30.9825 10.2156 30.3048 11.0272 30.3153C11.8718 30.3258 12.46 30.9616 12.46 31.8593ZM11.7009 31.8698C11.7075 31.4646 11.4019 31.1362 11.024 31.1362C10.6723 31.1362 10.3799 31.4611 10.3667 31.8628C10.3536 32.2575 10.6428 32.5859 11.0075 32.5894C11.3887 32.5894 11.6943 32.2715 11.7009 31.8698Z" fill="#FFEB61"/>
<path d="M27.5141 40.8366C26.732 40.8331 26.1175 40.1414 26.1241 39.2786C26.1339 38.3983 26.7222 37.7835 27.5569 37.78C28.3456 37.7766 28.9666 38.4333 28.9699 39.2716C28.9732 40.1554 28.3357 40.84 27.5141 40.8366ZM28.1977 39.2681C28.1977 38.9013 27.9019 38.6079 27.5339 38.6079C27.1822 38.6079 26.9029 38.9188 26.9029 39.3065C26.9029 39.6943 27.1559 39.9703 27.5141 39.9807C27.9085 39.9877 28.1944 39.6908 28.1977 39.2681Z" fill="#FFEB61"/>
</svg>
