<svg width="48" height="48" viewBox="0 0 48 48" fill="none" xmlns="http://www.w3.org/2000/svg">
<path d="M38.2847 32.7043C39.2322 32.5892 40.1798 32.4741 41.1233 32.3554C41.4051 32.3194 41.691 32.2763 41.9728 32.2547C42.4139 32.2223 42.6753 32.4489 42.5446 32.823C42.3731 33.3194 42.1852 33.8302 41.887 34.2726C40.1839 36.7976 37.6843 38.3047 34.3597 38.6716C32.3665 38.891 30.4346 38.5313 28.5313 38.0458C28.0453 37.9199 27.5634 37.7832 27.0896 37.6285C26.8486 37.5494 26.7016 37.5746 26.5913 37.7904C26.1093 38.7543 25.6274 39.7219 25.125 40.6823C24.8309 41.247 24.786 41.8297 24.7901 42.4376C24.8024 43.7973 24.786 45.1533 24.7819 46.5129C24.7819 46.5705 24.7819 46.6281 24.7779 46.6892C24.7574 47.0669 24.5859 47.2431 24.2551 47.2288C23.9161 47.2144 23.7649 47.0417 23.7649 46.6604C23.7731 44.9627 23.7976 43.2649 23.7895 41.5672C23.7854 41.1967 23.7282 40.8082 23.5975 40.4593C23.2585 39.5673 22.8623 38.6968 22.4988 37.812C22.409 37.5926 22.2905 37.553 22.0332 37.6357C20.4036 38.1573 18.7412 38.5457 17.0054 38.6896C14.4895 38.9018 12.2635 38.2975 10.2336 37.0098C8.64483 36.0027 7.4277 34.751 6.80688 33.0928C6.78646 33.0388 6.76605 32.9813 6.74971 32.9273C6.63535 32.4993 6.87632 32.2259 7.37052 32.2727C8.15879 32.3446 8.94298 32.4489 9.73125 32.5389C10.1683 32.5892 10.6012 32.6396 11.0913 32.6971C11.0342 32.6324 11.0219 32.6 10.9892 32.582C8.73469 31.3231 7.16631 29.5426 5.9696 27.4744C5.42231 26.5248 5.0588 25.5212 4.80557 24.4853C4.68713 23.9961 4.85867 23.7767 5.41005 23.7407C7.81163 23.5789 10.205 23.5429 12.5739 24.0465C16.7849 24.9457 19.9012 27.0751 21.8903 30.4634C22.4457 31.4094 22.8991 32.4022 23.3974 33.3733C23.43 33.4345 23.4586 33.4956 23.4872 33.5568C23.5158 33.5532 23.5444 33.5496 23.5689 33.546C23.5281 33.3014 23.524 33.0496 23.4464 32.8158C22.9808 31.4202 22.5274 30.0246 22.0209 28.6434C21.5227 27.2909 20.9631 25.9529 20.4322 24.6148C20.0237 24.6867 19.6316 24.7982 19.2314 24.8126C17.2872 24.8918 15.5146 23.8343 14.6896 22.1437C14.1791 21.0934 14.032 19.9784 13.8932 18.8561C13.7706 17.8526 13.644 16.8526 13.5052 15.8527C13.4398 15.3707 13.6726 15.1405 14.2199 15.2304C14.5957 15.2915 14.9592 15.403 15.3554 15.4966C15.3554 15.0002 15.3472 14.5254 15.3594 14.0506C15.3635 13.8995 15.388 13.7376 15.4615 13.601C15.5841 13.3708 15.9149 13.3096 16.2008 13.4535C17.7978 14.2448 19.3376 15.1117 20.6241 16.2807C20.6976 16.349 20.7793 16.4102 20.9304 16.4426C20.7957 16.1728 20.6935 15.8886 20.5261 15.6368C19.2599 13.7017 18.1654 11.6946 17.1729 9.64075C17.1239 9.54004 16.9646 9.4537 16.8339 9.42133C16.1355 9.24148 15.4329 9.08322 14.7345 8.90697C14.2648 8.78827 14.175 8.63001 14.2975 8.21636C14.6937 6.88549 15.0899 5.55463 15.4901 4.22377C15.6208 3.79214 15.9108 3.65904 16.3519 3.87485C17.4874 4.42878 18.6105 5.0079 19.7419 5.57262C19.9747 5.68772 20.0646 5.83878 19.991 6.07618C19.8032 6.69485 19.6235 7.31352 19.456 7.93579C19.4233 8.05808 19.4152 8.21997 19.4846 8.31708C19.8726 8.89259 20.2892 9.45371 20.6976 10.0148C20.7385 10.0688 20.7997 10.112 20.8447 10.1587C20.8447 9.47889 20.8406 8.80985 20.8487 8.14082C20.8487 7.95737 20.861 7.77034 20.8978 7.5905C20.9794 7.15886 21.3103 7.0006 21.7636 7.19124C22.2007 7.37469 22.6213 7.58329 23.0543 7.78112C23.1115 7.8063 23.1727 7.83148 23.2667 7.87465C23.3688 7.72358 23.4668 7.57611 23.5689 7.43223C23.7895 7.1193 24.0018 6.80275 24.2387 6.49701C24.5369 6.10854 24.8718 6.11216 25.1618 6.51502C25.4273 6.8819 25.6601 7.26676 25.9092 7.64804C25.9623 7.73077 26.0154 7.8135 26.0889 7.92501C26.5423 7.7056 26.9793 7.50776 27.4 7.28834C27.645 7.16245 27.8779 7.04376 28.1678 7.18404C28.466 7.32792 28.4537 7.57251 28.4537 7.81711C28.4456 8.50772 28.4374 9.19473 28.4292 9.88534C28.4292 9.96088 28.4374 10.0364 28.4456 10.1731C28.5395 10.0688 28.6049 10.0112 28.6498 9.94289C29.0296 9.41054 29.4176 8.8782 29.7811 8.33506C29.8506 8.23435 29.871 8.07607 29.8424 7.96097C29.6872 7.34589 29.5116 6.73442 29.3359 6.12294C29.2583 5.84957 29.34 5.66974 29.63 5.52586C30.6879 5.0079 31.7375 4.47555 32.7913 3.9468C32.9056 3.88925 33.0241 3.83528 33.1507 3.79931C33.4325 3.72377 33.6653 3.83169 33.7429 4.07628C34.1799 5.47909 34.6129 6.8819 35.0417 8.2847C35.1397 8.60843 35.0376 8.77747 34.6578 8.88178C33.9553 9.07242 33.2446 9.25948 32.5299 9.41415C32.2766 9.4681 32.1664 9.5832 32.0643 9.77024C31.182 11.3745 30.2958 12.9787 29.3972 14.5793C29.1481 15.0218 28.8581 15.4462 28.6008 15.8886C28.4987 16.0649 28.4333 16.2555 28.3516 16.4426C28.4047 16.4821 28.4578 16.5181 28.5109 16.5577C28.5558 16.4677 28.5804 16.3634 28.6539 16.2951C29.8996 15.1081 31.4353 14.2772 33.0159 13.4967C33.4815 13.2665 33.845 13.4643 33.8573 13.9427C33.8695 14.4355 33.8614 14.9319 33.8614 15.4858C34.1514 15.4138 34.3842 15.3491 34.621 15.2951C34.8008 15.252 34.9845 15.2052 35.1683 15.18C35.5073 15.1333 35.8014 15.3851 35.7647 15.6836C35.5768 17.2051 35.4093 18.7302 35.1888 20.2517C35.0336 21.3128 34.6292 22.302 33.9022 23.1796C32.922 24.363 31.0554 25.2766 29.001 24.64C28.9724 24.6328 28.9398 24.6364 28.8989 24.6328C27.6164 27.6326 26.3789 30.6433 25.4599 33.7546C25.5335 33.5999 25.607 33.4453 25.6764 33.2906C26.5423 31.4562 27.5388 29.6865 28.9929 28.1506C30.9329 26.0967 33.4284 24.827 36.3365 24.1328C38.5052 23.6149 40.7067 23.5681 42.9285 23.694C43.292 23.7156 43.6555 23.7407 44.015 23.7731C44.4356 23.8127 44.6113 24.0177 44.5337 24.3918C44.2723 25.6327 43.7781 26.8017 43.1042 27.9096C41.9565 29.8016 40.4044 31.3735 38.3786 32.5712C38.3378 32.5964 38.2969 32.6252 38.2561 32.654C38.2642 32.6611 38.2724 32.6827 38.2847 32.7043ZM25.0025 38.2256C25.0352 38.2436 25.0678 38.2616 25.1005 38.2832C25.1577 38.1861 25.219 38.0889 25.2761 37.9918C25.8234 37.0422 26.481 36.1646 27.4041 35.456C28.6865 34.4704 30.2182 33.9524 31.8396 33.6179C32.8444 33.4093 33.8859 33.3014 34.8661 33.028C38.0805 32.1288 40.3963 30.2584 42.0545 27.7154C42.6794 26.7622 43.1287 25.7442 43.4472 24.6472C43.2512 24.6256 43.0797 24.604 42.9081 24.5896C41.0661 24.4601 39.2281 24.4817 37.4147 24.8198C34.4046 25.3773 31.807 26.5751 29.8138 28.6901C28.1392 30.4706 26.9915 32.5029 26.1951 34.6898C25.7744 35.8588 25.4028 37.0458 25.0025 38.2256ZM23.7772 38.0242C23.7895 38.0206 23.8058 38.017 23.818 38.0134C23.8099 37.9379 23.814 37.8623 23.7976 37.7904C23.2136 35.4955 22.3844 33.269 21.1959 31.1576C19.7909 28.6686 17.7242 26.7658 14.7999 25.6399C12.3452 24.6939 9.76801 24.4134 7.11321 24.5572C6.71294 24.5788 6.31269 24.6004 5.89609 24.622C5.90834 24.7119 5.90426 24.7587 5.92059 24.8054C6.67619 27.1974 8.03626 29.2728 10.1642 30.9202C11.7244 32.1288 13.5215 32.9201 15.5677 33.2942C16.6746 33.4956 17.7855 33.7187 18.8556 34.0352C21.0611 34.6862 22.752 35.8876 23.6669 37.83C23.6914 37.8947 23.7364 37.9594 23.7772 38.0242ZM27.3551 36.7617C28.1515 36.9775 28.8663 37.1897 29.5973 37.3659C31.3332 37.7868 33.1017 38.0026 34.8906 37.7113C37.0798 37.3552 38.8238 36.3084 40.2574 34.8373C40.7108 34.3733 41.0824 33.8625 41.3479 33.2403C41.1028 33.269 40.8986 33.2906 40.6944 33.3158C38.2683 33.6251 35.8341 33.9237 33.4121 34.2546C32.1051 34.4308 30.8226 34.715 29.6259 35.2366C28.7764 35.6034 28.033 36.0926 27.3551 36.7617ZM7.93416 33.2546C7.9995 33.3877 8.03627 33.4777 8.08936 33.5604C9.40451 35.679 11.463 36.9739 14.0565 37.6249C15.2777 37.9307 16.5439 37.8551 17.7937 37.7004C19.1619 37.535 20.4648 37.1717 21.7963 36.7581C21.7228 36.6753 21.686 36.6034 21.6248 36.5602C21.0693 36.1789 20.5424 35.7617 19.9502 35.438C18.7821 34.7977 17.4506 34.5208 16.1232 34.3121C14.175 34.0028 12.2145 33.7582 10.2581 33.4992C9.50662 33.4021 8.75102 33.341 7.93416 33.2546ZM14.9061 17.9785C14.8612 17.9856 14.8162 17.9928 14.7754 18C14.8366 18.4389 14.8897 18.8813 14.9633 19.3201C15.1225 20.2697 15.29 21.2229 15.8046 22.0862C16.3805 23.0537 17.275 23.6904 18.5044 23.8702C20.1013 24.104 21.5267 23.2192 21.9638 21.7696C22.3395 20.5323 21.9597 19.4064 21.2408 18.3489C20.33 17.0073 18.9904 16.0505 17.5323 15.2088C17.177 15.0038 16.8135 14.8095 16.3601 14.5578C16.3601 14.975 16.3723 15.3095 16.356 15.644C16.3478 15.8383 16.4214 15.9282 16.6215 16.0181C17.2137 16.2735 17.81 16.5289 18.3614 16.8454C19.9134 17.7339 20.8242 19.0108 21.1306 20.615C21.2082 21.0214 21.1796 21.4423 21.1755 21.8595C21.1755 22.0358 21.0611 22.1905 20.8283 22.1761C20.6119 22.1617 20.5057 22.0322 20.4975 21.838C20.4852 21.6257 20.4689 21.4099 20.4567 21.1977C20.3954 20.3488 20.1095 19.5647 19.5622 18.8561C18.6636 17.6943 17.3893 17.0109 15.9067 16.59C15.5473 16.4893 15.1716 16.4282 14.7305 16.3347C14.804 16.4677 14.8366 16.5289 14.8693 16.5864C15.1225 17.0468 15.437 17.4929 15.6127 17.9749C15.9476 18.8957 16.2212 19.8381 16.4826 20.7769C16.7399 21.6941 17.2709 22.4135 18.2593 22.8271C18.5207 22.935 18.5125 23.1041 18.4268 23.2839C18.3328 23.4854 18.149 23.4314 17.9775 23.3703C17.4547 23.1832 17.0381 22.8775 16.6787 22.4962C16.1273 21.9063 15.9149 21.1977 15.6984 20.4819C15.4411 19.651 15.1716 18.8165 14.9061 17.9785ZM34.4536 17.9749C34.4291 18.0144 34.3923 18.0504 34.376 18.0936C34.135 18.7986 33.89 19.4999 33.6653 20.2121C33.4284 20.9675 33.2365 21.7408 32.7178 22.4027C32.3461 22.8775 31.8641 23.2372 31.2433 23.435C30.9819 23.5177 30.741 23.4134 30.7818 23.2336C30.8104 23.1113 30.9288 22.9638 31.0554 22.9027C32.0847 22.4027 32.5626 21.5934 32.8239 20.6294C33.216 19.187 33.5673 17.7339 34.474 16.4462C34.4822 16.4354 34.4699 16.4102 34.4658 16.367C34.2494 16.4102 34.0288 16.4318 33.8287 16.4929C33.2487 16.6728 32.6565 16.8346 32.1051 17.0684C30.4714 17.7662 29.3564 18.8633 28.9439 20.4459C28.8254 20.8956 28.8213 21.3668 28.7764 21.8308C28.756 22.0358 28.6416 22.1653 28.4211 22.1869C28.1964 22.2049 28.0862 22.0682 28.0535 21.8847C28.0371 21.7876 28.0167 21.6905 28.0208 21.597C28.0494 20.1258 28.5477 18.8165 29.7076 17.7303C30.5408 16.9533 31.5537 16.421 32.6442 15.9857C32.7382 15.9498 32.8689 15.8598 32.873 15.7879C32.8975 15.4246 32.8852 15.0577 32.8852 14.6621C32.7545 14.6944 32.7096 14.698 32.6728 14.716C30.9166 15.6045 29.3564 16.7015 28.2005 18.1871C27.3796 19.2374 26.9752 20.3956 27.2652 21.6833C27.5756 23.0789 29.1562 24.0932 30.7124 23.9062C31.9948 23.7551 32.8852 23.1077 33.4774 22.1293C34.2535 20.8308 34.3229 19.3956 34.4536 17.9749ZM24.7002 17.09C24.6676 22.3847 24.6308 27.6326 24.5981 32.8878C24.6226 32.823 24.6553 32.7655 24.6757 32.7043C25.5825 29.8771 26.771 27.1326 27.9146 24.3738C27.9922 24.1868 27.9187 24.0968 27.7717 23.9853C26.9875 23.3954 26.4524 22.6653 26.2441 21.766C25.95 20.4819 26.2809 19.2913 27.0038 18.1871C27.3796 17.6116 27.257 17.0181 27.351 16.3526C26.5055 16.8598 25.6437 17.0828 24.7002 17.09ZM22.6091 10.2522C22.0414 11.2018 21.539 12.173 21.4451 13.2557C21.3348 14.4966 21.9924 15.4642 23.2177 15.9174C23.8099 16.1368 24.4307 16.1764 25.0638 16.144C26.6852 16.0613 27.9514 14.8455 27.8574 13.4211C27.7839 12.3061 27.2652 11.3097 26.7056 10.3278C26.8486 10.8241 27.0242 11.3097 27.1508 11.8061C27.3183 12.4571 27.4776 13.119 27.3142 13.7916C27.1754 14.3743 26.9221 14.9103 26.3258 15.2484C26.2155 15.3095 25.9786 15.3167 25.8847 15.252C25.7213 15.1405 25.7949 14.9786 25.9337 14.8491C26.5872 14.2448 26.7465 13.5111 26.6158 12.7161C26.3299 10.9824 25.6478 9.3602 24.7615 7.79912C24.7288 7.74157 24.6757 7.6948 24.5981 7.60488C24.496 7.75235 24.4062 7.87106 24.3327 7.99695C23.5771 9.30264 23.091 10.6875 22.7439 12.1118C22.4988 13.1118 22.5233 14.0578 23.3647 14.8743C23.4423 14.9498 23.3647 15.1513 23.3606 15.2951C23.2217 15.2807 23.0175 15.3167 22.9522 15.2484C22.6663 14.9498 22.3518 14.6477 22.1721 14.2988C21.7922 13.5614 21.8698 12.7809 22.07 12.0147C22.2293 11.4248 22.4294 10.8421 22.6091 10.2522ZM21.9066 16.3922C21.9147 16.4965 21.9107 16.6296 21.9311 16.7627C21.9883 17.1224 22.0046 17.4965 22.1312 17.8346C22.3477 18.4029 22.6989 18.9316 22.8827 19.5036C23.4382 21.2121 23.0257 22.7264 21.5431 23.9709C21.3675 24.1184 21.3266 24.2371 21.4083 24.4457C22.1108 26.1903 22.8011 27.9384 23.4954 29.6829C23.5117 29.726 23.5526 29.762 23.6138 29.8411C23.622 29.7296 23.6261 29.6721 23.6261 29.6145C23.6343 26.8485 23.6465 24.086 23.6506 21.32C23.6547 19.9927 23.6506 18.6619 23.6424 17.3346C23.6424 17.2267 23.6016 17.054 23.5199 17.0181C23.0012 16.7986 22.4539 16.6008 21.9066 16.3922ZM20.424 13.6082C20.5588 13.0003 20.6895 12.4356 20.7997 11.8673C20.8161 11.7809 20.7671 11.6622 20.7058 11.5831C20.1177 10.7882 19.5581 9.97167 18.9128 9.21272C18.3941 8.60124 18.2348 8.01133 18.6187 7.31353C18.7331 7.1085 18.7576 6.87111 18.8229 6.6445C18.7903 6.63731 18.7576 6.62651 18.7249 6.61932C18.5901 6.8819 18.4594 7.14447 18.3246 7.40345C18.1531 7.74516 17.9652 7.83868 17.5445 7.78472C17.4057 7.76674 17.23 7.68402 17.132 7.72718C16.7685 7.89264 16.4336 8.10126 16.0579 8.30628C16.4785 8.39621 16.8747 8.5041 17.2832 8.56525C17.6344 8.61561 17.8304 8.7631 17.9734 9.05445C18.3736 9.87096 18.8066 10.6803 19.2436 11.4824C19.6235 12.1946 20.0278 12.8924 20.424 13.6082ZM28.8581 13.583C28.8908 13.5398 28.9275 13.4967 28.952 13.4463C29.728 12.0111 30.5122 10.5796 31.276 9.14078C31.4475 8.81705 31.6517 8.60123 32.0806 8.55087C32.4604 8.50771 32.828 8.3962 33.261 8.29908C33.069 8.20556 32.9424 8.14442 32.8199 8.08327C32.391 7.87465 31.9867 7.60487 31.4394 7.78112C31.3658 7.8063 31.2025 7.70559 31.133 7.62646C31.0268 7.50416 30.9656 7.3531 30.8921 7.21282C30.7859 7.01139 30.6879 6.80997 30.5857 6.60854C30.5531 6.61933 30.5163 6.63011 30.4836 6.6409C30.6225 7.1049 30.7491 7.5725 30.9084 8.03291C30.9778 8.22715 30.9656 8.37822 30.8349 8.54727C30.0956 9.52204 29.3645 10.504 28.6416 11.4896C28.5558 11.6083 28.4823 11.7773 28.5068 11.9068C28.6049 12.4607 28.7356 13.0075 28.8581 13.583ZM16.3356 4.89999C16.1028 5.7129 15.8863 6.48264 15.6658 7.24878C15.6984 7.27036 15.7352 7.29194 15.7679 7.31353C15.9721 7.17324 16.1845 7.04736 16.3723 6.89269C16.6501 6.66608 16.9564 6.59415 17.3117 6.69846C17.4138 6.72724 17.5119 6.75601 17.6099 6.78479C17.7937 6.45387 17.9652 6.14453 18.149 5.81361C17.5731 5.52226 16.9809 5.22732 16.3356 4.89999ZM32.9424 4.89999C32.3216 5.22012 31.7498 5.51507 31.1698 5.81721C31.3618 6.14093 31.5456 6.44666 31.7375 6.76678C31.8846 6.73441 32.0357 6.66247 32.1786 6.67686C32.4033 6.69844 32.6442 6.73801 32.8321 6.83513C33.0976 6.97181 33.3222 7.16965 33.5632 7.34231C33.5877 7.32073 33.6163 7.29555 33.6408 7.27396C33.4121 6.50422 33.1875 5.73448 32.9424 4.89999ZM21.8576 9.86016C21.8821 9.86376 21.9066 9.86735 21.9311 9.87094C22.1843 9.48247 22.4375 9.094 22.703 8.68036C22.4171 8.55087 22.1516 8.42857 21.8576 8.29548C21.8576 8.85301 21.8576 9.35659 21.8576 9.86016ZM26.6117 8.66958C26.8649 9.07963 27.0977 9.46449 27.3346 9.84936C27.3591 9.84217 27.3836 9.83497 27.4081 9.82778C27.4081 9.3314 27.4081 8.83864 27.4081 8.2919C27.1263 8.42499 26.8731 8.54368 26.6117 8.66958Z" fill="#FFEB61"/>
<path d="M9.84547 22.3954C9.66168 22.2767 9.53915 22.2336 9.47789 22.1508C9.40437 22.0537 9.37987 21.9242 9.33902 21.8056C9.00003 20.7912 8.29752 20.0754 7.13757 19.7445C6.8966 19.6761 6.6638 19.6078 6.65972 19.3273C6.65563 19.0395 6.91294 19.0251 7.12941 18.9568C8.30569 18.5863 9.11847 17.9136 9.43704 16.8202C9.49422 16.6223 9.58817 16.4353 9.8659 16.4353C10.1396 16.4389 10.2253 16.6188 10.2784 16.8238C10.5561 17.9208 11.3526 18.5971 12.537 18.9316C12.7862 19.0035 12.9618 19.1042 12.97 19.3452C12.9781 19.597 12.7453 19.6258 12.5452 19.6797C11.275 20.0107 10.5439 20.7876 10.1804 21.8811C10.1232 22.0537 9.98026 22.194 9.84547 22.3954ZM9.77605 20.5862C10.2662 20.1617 10.789 19.7049 11.3281 19.2373C10.6909 18.964 10.1886 18.5323 9.90674 18.0036C9.39211 18.464 8.88566 18.9208 8.42822 19.3309C8.86932 19.7409 9.33903 20.1761 9.77605 20.5862Z" fill="#FFEB61"/>
<path d="M11.2052 3.46821C11.1602 3.50418 11.0704 3.63009 10.9479 3.66246C9.79199 3.97539 9.04047 4.61204 8.78316 5.67674C8.75457 5.79543 8.5422 5.9393 8.39925 5.95729C8.29305 5.97167 8.10517 5.82062 8.03983 5.70552C7.87645 5.41417 7.79476 5.08324 7.61505 4.79908C7.27606 4.26674 6.76143 3.91064 6.07118 3.76316C5.82204 3.70921 5.58923 3.63367 5.59331 3.35311C5.5974 3.09053 5.81796 3.03298 6.04668 2.95385C6.99016 2.63372 7.67632 2.09058 7.92547 1.19134C7.9418 1.1302 7.94996 1.05467 7.99489 1.0187C8.11742 0.92158 8.25629 0.774105 8.39107 0.770508C8.51768 0.770508 8.69331 0.903595 8.77091 1.0187C8.8771 1.18416 8.88527 1.39639 8.97921 1.56904C9.36722 2.28483 9.9962 2.75962 10.8662 2.97903C11.1766 3.06176 11.2052 3.10132 11.2052 3.46821ZM9.38355 3.37829C9.05273 3.07614 8.65656 2.72006 8.38699 2.47187C8.10518 2.73085 7.70491 3.09053 7.34549 3.41785C7.60688 3.65525 8.00715 4.01136 8.31756 4.29192C8.70148 3.9646 9.10582 3.61569 9.38355 3.37829Z" fill="#FFEB61"/>
<path d="M36.2219 14.1042C36.128 14.0035 35.9932 13.9172 35.9482 13.8021C35.7113 13.1726 35.3683 12.6079 34.7229 12.2302C34.482 12.0899 34.192 12.0144 33.9551 11.8741C33.8081 11.7878 33.6284 11.6331 33.6202 11.5072C33.6161 11.3849 33.7917 11.1871 33.9347 11.1403C34.9312 10.8166 35.6215 10.2519 35.9605 9.35264C36.0095 9.21956 36.2301 9.03972 36.3485 9.05051C36.4915 9.0649 36.6793 9.24834 36.7243 9.38503C36.9938 10.2699 37.6718 10.8022 38.599 11.126C38.8113 11.1979 38.991 11.2626 38.9829 11.4964C38.9788 11.7194 38.8195 11.8202 38.603 11.8885C37.5738 12.2086 36.9489 12.8597 36.6752 13.7769C36.6221 13.9711 36.5405 14.079 36.2219 14.1042ZM37.2144 11.4892C36.9816 11.259 36.6181 10.9065 36.2832 10.5756C35.9278 10.8742 35.5521 11.1907 35.2825 11.4173C35.6256 11.7338 36.0013 12.0791 36.3036 12.3597C36.5772 12.0971 36.9366 11.7554 37.2144 11.4892Z" fill="#FFEB61"/>
<path d="M30.3568 44.1928C29.009 44.182 27.9634 43.2324 27.9757 42.031C27.9879 40.8764 29.0989 39.9376 30.4344 39.9556C31.7823 39.9736 32.8319 40.916 32.8156 42.0922C32.7993 43.2791 31.721 44.2036 30.3568 44.1928ZM30.3895 43.4554C31.2391 43.4518 31.9701 42.8116 31.9579 42.0778C31.9497 41.3476 31.2309 40.7217 30.4018 40.7217C29.5482 40.7217 28.8089 41.3548 28.8171 42.085C28.8293 42.8403 29.5359 43.459 30.3895 43.4554Z" fill="#FFEB61"/>
<path d="M39.9344 21.3917C39.9344 22.1975 39.2768 22.8053 38.3987 22.8089C37.4797 22.8125 36.769 22.1975 36.769 21.3953C36.769 20.5896 37.4634 19.9746 38.3578 19.9818C39.2891 19.9889 39.9344 20.5716 39.9344 21.3917ZM39.0971 21.3989C39.1053 21.0285 38.7704 20.7299 38.3497 20.7299C37.9617 20.7299 37.639 21.0249 37.6268 21.3917C37.6145 21.755 37.9331 22.0536 38.3333 22.0536C38.754 22.0572 39.093 21.7694 39.0971 21.3989Z" fill="#FFEB61"/>
<path d="M4.98091 31.8482C4.11912 31.8446 3.44112 31.2151 3.44929 30.4274C3.46154 29.6253 4.11096 29.0606 5.02993 29.0606C5.89989 29.057 6.58605 29.6576 6.58605 30.4238C6.59014 31.2259 5.89171 31.8482 4.98091 31.8482ZM5.73651 30.413C5.73651 30.0785 5.40977 29.8087 5.00134 29.8087C4.61333 29.8087 4.30292 30.0929 4.307 30.4454C4.307 30.7979 4.58473 31.0533 4.98091 31.0605C5.41793 31.0713 5.73242 30.8015 5.73651 30.413Z" fill="#FFEB61"/>
</svg>
