<svg width="48" height="48" viewBox="0 0 48 48" fill="none" xmlns="http://www.w3.org/2000/svg">
<path d="M18.064 45.189C19.0281 44.1528 19.6378 42.9966 19.9141 41.576C18.6947 41.576 17.5415 41.528 16.3972 41.585C12.7512 41.7592 10.2164 39.0773 9.53769 36.5635C8.75082 33.6473 9.66983 30.3046 12.6371 28.5177C12.7933 28.4246 12.9464 28.3315 13.1807 28.1873C12.9254 28.0041 12.7182 27.8479 12.5049 27.7008C10.1083 26.04 8.90399 23.1298 9.48663 20.4028C10.1263 17.4025 12.3007 15.2281 15.2349 14.6575C17.6316 14.192 18.8029 12.8825 18.8569 10.543C18.6377 10.5159 18.4124 10.4679 18.1872 10.4649C16.8837 10.4559 15.5803 10.4438 14.2769 10.4679C13.7904 10.4769 13.4059 10.3628 13.0696 9.99335C12.2947 9.14642 11.4928 8.32352 10.6459 7.43454C11.61 5.70765 12.6131 3.91768 13.6582 2.04363C14.376 2.22082 15.0788 2.37399 15.7665 2.57521C16.3161 2.73439 16.7636 2.70736 17.2802 2.36798C18.2803 1.71026 19.3675 1.84841 20.4036 2.34095C21.7551 2.98366 22.6411 4.07686 23.2057 5.43735C24.386 8.27246 23.9775 10.9454 22.3497 13.4862C22.1605 13.7835 21.9593 14.0748 21.704 14.4593C23.2567 14.4593 24.6923 14.4593 26.266 14.4593C26.0108 14.1049 25.8035 13.8286 25.6083 13.5402C23.9115 11.0505 23.5961 8.37157 24.6743 5.57851C25.35 3.83059 26.5574 2.5632 28.4434 2.05564C29.2874 1.82739 30.0922 1.91148 30.78 2.42204C31.2335 2.75841 31.651 2.74039 32.1315 2.60824C32.8523 2.41003 33.5761 2.22983 34.3179 2.03762C35.369 3.91468 36.3691 5.70465 37.3152 7.39851C36.3691 8.3926 35.4892 9.35064 34.5672 10.2666C34.408 10.4258 34.0716 10.4559 33.8163 10.4589C32.5429 10.4769 31.2695 10.4679 29.9961 10.4709C29.6988 10.4709 29.4015 10.4709 29.1072 10.4709C29.1072 12.6633 30.2965 14.1709 32.3147 14.5463C35.1678 15.0809 37.186 16.6276 38.1981 19.3726C39.2733 22.2888 38.2642 25.6285 35.7985 27.5296C35.5132 27.7518 35.2129 27.9531 34.8555 28.2113C35.0687 28.3405 35.2339 28.4426 35.4021 28.5447C39.4775 31.0915 39.5526 36.2992 37.0238 39.2394C36.5794 39.756 36.4502 40.2065 36.5193 40.8582C36.7686 43.1918 35.5402 45.1469 33.4229 45.8227C32.9694 45.9668 32.4709 46.0209 31.9933 46.0239C27.6566 46.0479 23.3228 46.0419 18.9861 46.078C18.3584 46.0719 18.2472 45.6845 18.064 45.189ZM24.0166 40.3447C24.0166 40.3477 24.0166 40.3477 24.0166 40.3447C26.5904 40.3477 29.1672 40.2936 31.7411 40.3627C34.0145 40.4258 36.5553 38.9601 37.3152 36.0379C38.093 33.0466 36.4172 29.4787 32.7772 28.9171C32.5099 28.8751 32.2336 28.8601 31.9633 28.8601C26.6925 28.8571 21.4217 28.842 16.1509 28.8631C13.9495 28.8721 12.2407 29.8031 11.1625 31.7703C9.06016 35.6145 11.9043 40.4468 16.202 40.3537C18.8059 40.2996 21.4097 40.3447 24.0166 40.3447ZM24.0016 27.6467C24.0016 27.6437 24.0016 27.6407 24.0016 27.6377C25.275 27.6377 26.5484 27.6377 27.8218 27.6377C29.1252 27.6377 30.4286 27.6437 31.732 27.6467C34.9966 27.6467 37.3002 24.8657 37.3963 22.0155C37.5104 18.5527 34.8314 15.7657 31.3566 15.7537C26.4763 15.7357 21.5929 15.7447 16.7096 15.7537C16.2891 15.7537 15.8626 15.8077 15.4512 15.8888C12.3638 16.4925 10.3185 19.2585 10.6009 22.3819C10.8081 24.6494 12.8263 27.7188 16.5414 27.6557C19.0281 27.6137 21.5148 27.6467 24.0016 27.6467ZM29.4015 14.5554C28.5516 13.4531 27.9359 12.381 27.8668 11.1586C27.8097 10.1615 27.3472 9.47078 26.7135 8.80705C26.6505 8.74098 26.5994 8.66289 26.5363 8.59982C26.188 8.25745 26.1249 7.89105 26.4462 7.44055C26.7286 7.41652 27.0229 7.38949 27.2661 7.36847C27.6476 7.89405 27.9839 8.35655 28.3173 8.82206C28.5305 9.11639 28.8068 9.22751 29.1732 9.2215C30.5968 9.20649 32.0204 9.22751 33.4409 9.21249C33.6662 9.20949 33.9455 9.14943 34.1016 9.00827C34.7053 8.46768 35.2669 7.88203 35.8526 7.3024C35.0987 5.97794 34.387 4.72557 33.6572 3.44316C33.0024 3.60835 32.4288 3.7525 31.8972 3.88765C31.6119 5.53045 31.0413 6.16715 29.882 6.07405C29.4585 6.04101 28.996 5.85181 28.6477 5.59953C27.9809 5.113 27.9899 4.32613 28.092 3.46419C27.3412 3.80356 26.8997 4.24504 26.5213 4.7556C24.6323 7.31741 24.9926 11.4019 27.3022 13.5943C27.8338 14.0989 28.4164 14.5223 29.4015 14.5554ZM19.9651 3.37108C19.878 5.25715 19.3915 5.97794 18.2773 6.09507C17.7787 6.14913 17.3282 6.04101 16.8988 5.7617C16.205 5.31121 16.1269 4.59042 16.0488 3.8366C15.4602 3.70745 14.9076 3.58732 14.3039 3.45518C13.5681 4.77362 12.8623 6.03201 12.1265 7.34745C12.7062 7.90006 13.2498 8.47068 13.8504 8.96923C14.0546 9.13741 14.397 9.19448 14.6823 9.20048C15.6824 9.22751 16.6825 9.21249 17.6796 9.21249C19.4576 9.21249 19.4576 9.2125 20.4306 7.73187C20.4637 7.68082 20.4907 7.62675 20.5237 7.5757C20.5748 7.50062 20.6259 7.42854 20.6769 7.35946C20.9862 7.3925 21.2505 7.42253 21.4878 7.44956C21.7521 8.13732 21.7581 8.14032 21.3827 8.61784C21.1574 8.90316 20.9382 9.19448 20.6799 9.44976C20.3616 9.7651 20.2174 10.1225 20.1814 10.573C20.0732 11.8974 19.6348 13.1108 18.8239 14.1799C18.7578 14.264 18.7308 14.3782 18.6617 14.5283C19.4185 14.5854 19.9501 14.24 20.4216 13.8195C22.7552 11.7383 23.6352 7.44055 21.2295 4.50933C20.9172 4.13392 20.4907 3.8396 19.9651 3.37108ZM35.1978 40.8522C35.0297 40.9063 34.8645 40.9513 34.7083 41.0174C33.7473 41.4168 32.7562 41.603 31.705 41.588C29.6478 41.558 27.5905 41.576 25.5332 41.582C25.2329 41.582 24.9236 41.576 24.6323 41.6391C23.8934 41.8013 23.4099 42.4019 23.3859 43.1197C23.3649 43.8225 23.8214 44.4982 24.5121 44.7024C24.8245 44.7955 25.1668 44.8286 25.4942 44.8316C27.5515 44.8406 29.6087 44.8376 31.666 44.8226C32.0564 44.8196 32.4558 44.7865 32.8343 44.6994C34.4921 44.315 35.6153 42.516 35.1978 40.8522ZM22.566 44.7895C21.9863 43.2428 21.9863 43.1918 22.5329 41.6241C22.1125 41.6241 21.707 41.6241 21.3316 41.6241C20.9052 42.6962 20.4967 43.7174 20.0702 44.7895C20.9022 44.7895 21.701 44.7895 22.566 44.7895ZM29.9601 4.86372C30.3325 4.8397 30.6208 4.49432 30.5818 4.12191C30.5397 3.73749 30.1853 3.41613 29.843 3.4822C29.4616 3.55729 29.2874 3.83359 29.2693 4.19699C29.2513 4.58442 29.5847 4.88775 29.9601 4.86372ZM18.7007 4.206C18.7067 3.80055 18.4214 3.50923 18.025 3.51524C17.6346 3.52125 17.3523 3.82758 17.3703 4.22402C17.3883 4.59643 17.6346 4.85171 18.001 4.86672C18.4034 4.88474 18.6947 4.60844 18.7007 4.206Z" fill="#FFEB61"/>
<path d="M21.6742 32.1428C21.6742 32.5963 21.6742 32.9206 21.6742 33.3531C21.2147 33.3531 20.7972 33.3531 20.3828 33.3531C19.3226 33.3561 18.2595 33.3831 17.2023 33.3501C16.4755 33.3261 15.8598 33.8847 15.8508 34.5334C15.8418 35.2332 16.4034 35.7677 17.2413 35.7707C21.0916 35.7828 24.9388 35.7798 28.789 35.7798C29.4257 35.7798 30.0654 35.8098 30.6961 35.7647C31.0114 35.7437 31.3568 35.6446 31.6181 35.4734C32.0236 35.2091 32.2248 34.7887 32.0866 34.2901C31.9545 33.8186 31.6391 33.4942 31.1526 33.3951C30.8883 33.3411 30.609 33.3531 30.3387 33.3501C28.4286 33.3471 26.5215 33.3471 24.6114 33.3471C24.3141 33.3471 24.0168 33.3471 23.6504 33.3471C23.6504 32.9266 23.6504 32.5842 23.6504 32.1908C23.8216 32.1698 23.9958 32.1307 24.1669 32.1307C26.4404 32.1247 28.7139 32.1157 30.9844 32.1277C31.9034 32.1338 32.6152 32.5482 33.0447 33.3771C33.5042 34.2631 33.4501 35.134 32.8885 35.957C32.408 36.6597 31.7052 36.9751 30.8733 37.0051C30.3898 37.0231 29.9032 37.0081 29.4197 37.0081C25.4794 37.0051 21.5391 37.0111 17.6017 36.9931C17.1242 36.9901 16.6257 36.945 16.1752 36.7979C15.127 36.4585 14.5204 35.4284 14.6225 34.3021C14.7186 33.236 15.5925 32.2148 16.6497 32.1638C18.2985 32.0857 19.9623 32.1428 21.6742 32.1428Z" fill="#FFEB61"/>
<path d="M23.9683 24.1179C22.4817 24.1179 20.9951 24.1359 19.5114 24.1119C18.3492 24.0938 17.4572 23.3851 17.1689 22.3189C16.8385 21.1026 17.5233 19.8021 18.7216 19.4177C19.061 19.3096 19.4334 19.2495 19.7938 19.2495C22.6439 19.2345 25.494 19.2285 28.3441 19.2405C29.5935 19.2465 30.5426 19.9253 30.8459 20.9674C31.3084 22.5562 30.2212 24.0398 28.5183 24.1089C27.7615 24.1389 27.0017 24.1179 26.2448 24.1209C25.485 24.1209 24.7252 24.1209 23.9683 24.1179ZM24.0134 22.9045C24.8633 22.9015 25.7103 22.9045 26.5602 22.9015C27.2269 22.8985 27.8966 22.9226 28.5604 22.8745C29.1971 22.8295 29.7197 22.2468 29.7227 21.6792C29.7227 21.0936 29.2181 20.556 28.5724 20.4719C28.3922 20.4478 28.209 20.4569 28.0288 20.4569C25.3619 20.4569 22.6919 20.4569 20.025 20.4569C19.8418 20.4569 19.6586 20.4478 19.4814 20.4719C18.8417 20.556 18.3462 21.0815 18.3251 21.6852C18.3041 22.2558 18.8207 22.8054 19.4724 22.8835C19.7127 22.9136 19.9559 22.9015 20.1992 22.9015C21.4666 22.9045 22.74 22.9045 24.0134 22.9045Z" fill="#FFEB61"/>
<path d="M14.9015 25.0099C14.8144 25.3372 14.7303 25.6496 14.6462 25.9589C12.3607 25.3673 11.0813 22.1027 12.2646 19.9253C12.3667 19.9703 12.4778 20.0004 12.5739 20.0634C12.7721 20.1926 12.9613 20.3367 13.1656 20.4839C12.7391 22.376 13.2737 23.8926 14.9015 25.0099Z" fill="#FFEB61"/>
<path d="M33.8672 24.4061C34.627 23.421 34.9604 22.3399 35.0054 21.1055C35.3869 21.0755 35.7082 21.0514 36.0986 21.0244C36.2758 22.6041 35.8043 23.8956 34.7832 25.1059C34.4528 24.8506 34.1735 24.6374 33.8672 24.4061Z" fill="#FFEB61"/>
<path d="M15.0335 18.8441C14.595 19.0213 14.2917 19.1444 13.8893 19.3066C13.7001 18.9943 13.5138 18.6819 13.2676 18.2765C13.7661 18.0392 14.1776 17.844 14.6941 17.5947C14.8263 18.0813 14.9224 18.4417 15.0335 18.8441Z" fill="#FFEB61"/>
<path d="M33.8497 5.01392C33.9879 5.39834 34.105 5.7257 34.2612 6.16418C33.8287 6.29032 33.4473 6.40144 32.9667 6.54259C32.8526 6.15517 32.7565 5.82781 32.6304 5.40134C33.0478 5.26919 33.4232 5.14906 33.8497 5.01392Z" fill="#FFEB61"/>
<path d="M14.9405 6.5816C14.487 6.44345 14.1266 6.32932 13.7031 6.20018C13.8653 5.79774 13.9944 5.47339 14.1446 5.09497C14.541 5.18807 14.8804 5.26616 15.3339 5.37127C15.1958 5.80074 15.0756 6.17315 14.9405 6.5816Z" fill="#FFEB61"/>
</svg>
