<svg width="48" height="48" viewBox="0 0 48 48" fill="none" xmlns="http://www.w3.org/2000/svg">
<mask id="path-1-outside-1_784_3318" maskUnits="userSpaceOnUse" x="1.9165" y="8.03101" width="44" height="32" fill="black">
<rect fill="white" x="1.9165" y="8.03101" width="44" height="32"/>
<path d="M16.171 29.9523C15.4154 30.8054 14.7263 31.5882 13.95 32.462C14.0621 32.6153 14.1991 32.8513 14.3776 33.0501C14.9671 33.7169 15.5773 34.3713 16.171 35.0381C16.9182 35.8788 17.1839 36.8479 17.0137 38.0448C15.9343 38.5253 15.1373 38.3844 14.3776 37.4899C13.0616 35.9327 11.7788 34.3423 10.4794 32.7685C10.2968 32.549 10.0975 32.3419 9.84427 32.0603C9.6284 32.2881 9.38347 32.4579 9.26723 32.6898C8.85209 33.514 8.4245 34.3382 8.12145 35.2037C7.98861 35.5889 8.08409 36.0817 8.17127 36.5042C8.2875 37.0633 8.51583 37.5975 8.65698 38.1525C8.81888 38.7903 8.69849 38.9311 8.01767 38.956C7.60253 38.9725 7.18739 38.9725 6.77226 38.9601C5.8631 38.9353 5.51024 38.5957 5.48948 37.6638C5.46457 36.6119 5.48533 35.5599 5.48533 34.5038C5.48533 33.6092 5.47703 32.7188 5.48533 31.8242C5.48948 31.3397 5.44797 30.9504 5.00792 30.5652C4.3354 29.9813 4.36446 29.2772 5.00377 28.3288C5.52684 27.5502 5.52684 26.7674 5.12831 25.9805C4.88338 25.5043 4.52221 25.0901 4.20671 24.6511C3.98253 24.3405 3.721 24.0589 3.53003 23.7317C2.04799 21.2468 3.37228 18.1655 6.19937 17.4862C6.95907 17.304 7.70632 17.2295 8.46602 17.4738C8.91021 17.6146 9.29214 17.5525 9.72803 17.304C10.9527 16.6041 12.3185 16.4177 13.705 16.4798C15.2701 16.5503 16.831 16.6455 18.392 16.7905C20.5963 16.9975 22.7883 16.9313 24.9843 16.6455C26.7279 16.4219 28.4134 15.9953 30.0947 15.3409C30.2317 15.635 30.3479 15.8835 30.4849 16.1775C29.007 16.8567 27.4918 17.2212 25.9641 17.4655C22.6263 18.0039 19.2803 17.859 15.9302 17.5359C14.7263 17.42 13.4975 17.3951 12.2936 17.4987C9.05551 17.7761 6.84283 20.7746 7.35345 24.1293C7.43232 24.6552 7.63574 25.1688 7.80595 25.6782C8.33317 27.2271 8.44526 28.7347 7.42402 30.1469C7.31194 30.3002 7.204 30.4989 7.04625 30.5694C6.436 30.8386 6.37787 31.3231 6.38618 31.8988C6.40693 33.5885 6.38203 35.2824 6.38203 36.9722C6.38203 37.2828 6.41109 37.5893 6.43184 37.9413C6.83037 37.9413 7.13757 37.9413 7.54856 37.9413C7.46553 37.5934 7.42402 37.2579 7.30778 36.9515C6.99643 36.1356 7.02964 35.3321 7.31608 34.5287C7.99691 32.6194 8.99739 30.9462 10.8614 29.9564C11.2765 29.7369 11.7456 29.6127 12.2023 29.476C13.539 29.066 14.5436 28.3371 14.801 26.8585C14.8591 26.5148 15.0127 26.2166 15.4237 26.2953C15.9011 26.3864 15.8679 26.7384 15.7766 27.1153C15.4569 28.482 14.6474 29.4553 13.3937 30.0475C12.9661 30.2505 12.4804 30.3292 12.0403 30.5114C11.5256 30.7267 11.0357 30.9959 10.5002 31.2569C12.0403 33.1495 13.485 34.9304 14.938 36.7071C15.2203 37.055 15.515 37.4112 16.0713 37.1461C15.9925 36.4876 15.7558 35.9409 15.2867 35.4564C14.5104 34.6571 13.7839 33.8039 13.045 32.9715C12.5095 32.3709 12.5095 32.1597 13.1612 31.6627C14.0621 30.9752 14.8384 30.2008 15.3075 29.1488C15.515 28.6767 15.9094 28.6974 16.2706 28.9086C17.5285 29.6458 18.9026 30.0268 20.314 30.325C22.2818 30.7433 24.2454 30.7143 26.209 30.3043C26.5536 30.2339 26.8898 30.1386 27.2344 30.0641C27.882 29.9274 28.0563 30.0641 27.9858 30.735C27.9194 31.3687 27.799 31.9941 27.691 32.6236C27.4212 34.1932 27.1389 35.7628 26.8732 37.3325C26.8441 37.5106 26.8691 37.6969 26.8691 37.9289C27.2676 37.9289 27.608 37.9289 27.965 37.9289C27.9775 37.8212 28.0231 37.7218 27.9941 37.6472C27.5914 36.6408 27.7574 35.6635 28.0854 34.6778C28.4092 33.7128 28.8949 32.7312 28.9115 31.7497C28.924 30.8137 28.4051 29.8694 28.156 28.921C27.9858 28.2749 27.8695 27.6123 27.7325 26.9579C27.6661 26.639 27.7367 26.3698 28.0854 26.287C28.459 26.1959 28.6043 26.4444 28.6666 26.755C29.3474 30.3706 30.9291 33.7211 31.8382 37.2704C31.8922 37.4816 31.9918 37.6804 32.0873 37.9247C32.4111 37.9247 32.7183 37.9247 33.1044 37.9247C32.9384 37.2579 32.8304 36.6036 32.6146 35.9865C31.7428 33.4767 32.2368 31.1409 33.5154 28.9252C34.0924 27.9229 34.5325 26.9 34.7857 25.7569C35.0929 24.3736 35.6907 23.1146 36.9195 22.2407C37.6751 21.7023 38.385 21.5946 39.2277 22.0254C40.1576 22.5016 41.1373 22.8909 42.1793 23.3589C42.8186 22.6217 43.4372 21.9053 44.118 21.1225C43.1217 19.8262 42.1212 18.385 40.9754 17.0721C39.921 15.8586 38.4555 15.5397 36.9403 15.9746C34.4329 16.6952 32.3821 14.6824 32.6478 12.123C32.6727 11.8745 32.7266 11.626 32.7889 11.2408C32.1039 11.7295 31.8341 12.3549 31.6763 13.001C31.0827 15.4693 33.0089 17.4407 35.5413 16.9975C35.7945 16.952 36.0477 16.9106 36.301 16.8981C36.5708 16.8816 36.8822 16.9396 36.8365 17.2709C36.8116 17.4655 36.5833 17.6602 36.4006 17.801C36.2885 17.888 36.0934 17.8507 35.9357 17.888C34.1921 18.2938 32.6727 17.8797 31.5394 16.4881C30.3479 15.022 30.3271 13.3654 31.1367 11.7212C31.7179 10.545 32.6519 9.67944 33.9056 9.20317C33.9638 9.18246 34.0177 9.14518 34.08 9.12448C34.3955 9.01265 34.7193 8.93397 34.9227 9.29843C35.1095 9.63389 34.8521 9.80783 34.6321 10.0066C33.9264 10.6403 33.615 11.4644 33.5694 12.3839C33.478 14.1937 34.9393 15.7095 36.7659 15.0552C37.6211 14.7487 38.522 14.815 39.4062 15.051C40.5893 15.3658 41.5774 14.7611 41.8389 13.5932C42.0423 12.6779 42.3744 12.5081 43.2421 12.8601C44.9981 13.5725 45.3344 15.8959 43.8399 17.0762C43.5451 17.3082 43.1964 17.4697 42.7522 17.7347C43.3251 18.5051 43.8897 19.2878 44.4833 20.0499C45.3095 21.1059 45.297 21.5739 44.3588 22.5099C43.9312 22.9365 43.4787 23.3424 43.047 23.7731C42.5322 24.2866 41.9842 24.3943 41.3158 24.0547C40.5188 23.653 39.676 23.3465 38.8873 22.9324C38.1982 22.5679 37.6792 22.7584 37.1769 23.2554C36.575 23.8476 36.081 24.531 35.89 25.3469C35.5122 26.9414 34.9269 28.4199 34.1007 29.8487C32.8927 31.9319 32.9135 34.1601 33.6815 36.4131C33.8973 37.0426 34.026 37.7052 34.1713 38.3555C34.2004 38.4921 34.1257 38.6536 34.0758 38.927C33.3992 38.927 32.7349 38.9601 32.0749 38.9187C31.4314 38.8773 31.1865 38.3844 31.0204 37.8378C30.6551 36.616 30.2815 35.3984 29.912 34.1808C29.8373 33.9406 29.7543 33.7004 29.6214 33.311C29.4761 33.6134 29.3723 33.7832 29.3059 33.9696C29.2146 34.2388 29.1814 34.537 29.0651 34.7937C28.6168 35.7753 28.6251 36.7485 29.0029 37.7508C29.1191 38.0614 29.1108 38.4176 29.1814 38.898C28.2805 38.898 27.4918 38.956 26.7113 38.8773C26.1509 38.8193 25.8229 38.1608 25.9267 37.4319C26.0761 36.3592 26.2671 35.2907 26.4415 34.2222C26.5992 33.2572 26.7528 32.2922 26.9313 31.1947C23.0913 31.8201 19.4796 31.6793 16.171 29.9523ZM8.15881 18.3932C7.02134 18.0785 6.13709 18.4057 5.31512 18.9068C4.04065 19.6895 3.50928 21.4 4.11538 22.7584C4.33125 23.243 4.67581 23.6737 4.98301 24.1168C5.29022 24.56 5.6929 24.9534 5.92122 25.4339C6.4692 26.5811 6.58129 27.7448 5.78008 28.8672C5.64308 29.0577 5.5476 29.3228 5.54345 29.5588C5.53515 30.002 5.89632 30.2049 6.24503 29.944C6.51487 29.7452 6.7598 29.4594 6.9051 29.1612C7.39496 28.159 7.3576 27.1443 6.93001 26.1131C6.01256 23.8849 6.12049 21.7023 7.32024 19.5984C7.54026 19.2174 7.8267 18.8695 8.15881 18.3932ZM41.2121 15.8172C41.5898 16.3929 41.897 16.8691 42.636 16.6372C43.2836 16.4343 43.7278 15.9456 43.7901 15.2747C43.8606 14.5416 43.6531 14.2186 42.8269 13.821C42.5695 14.67 42.1171 15.3823 41.2121 15.8172Z"/>
</mask>
<path d="M16.171 29.9523C15.4154 30.8054 14.7263 31.5882 13.95 32.462C14.0621 32.6153 14.1991 32.8513 14.3776 33.0501C14.9671 33.7169 15.5773 34.3713 16.171 35.0381C16.9182 35.8788 17.1839 36.8479 17.0137 38.0448C15.9343 38.5253 15.1373 38.3844 14.3776 37.4899C13.0616 35.9327 11.7788 34.3423 10.4794 32.7685C10.2968 32.549 10.0975 32.3419 9.84427 32.0603C9.6284 32.2881 9.38347 32.4579 9.26723 32.6898C8.85209 33.514 8.4245 34.3382 8.12145 35.2037C7.98861 35.5889 8.08409 36.0817 8.17127 36.5042C8.2875 37.0633 8.51583 37.5975 8.65698 38.1525C8.81888 38.7903 8.69849 38.9311 8.01767 38.956C7.60253 38.9725 7.18739 38.9725 6.77226 38.9601C5.8631 38.9353 5.51024 38.5957 5.48948 37.6638C5.46457 36.6119 5.48533 35.5599 5.48533 34.5038C5.48533 33.6092 5.47703 32.7188 5.48533 31.8242C5.48948 31.3397 5.44797 30.9504 5.00792 30.5652C4.3354 29.9813 4.36446 29.2772 5.00377 28.3288C5.52684 27.5502 5.52684 26.7674 5.12831 25.9805C4.88338 25.5043 4.52221 25.0901 4.20671 24.6511C3.98253 24.3405 3.721 24.0589 3.53003 23.7317C2.04799 21.2468 3.37228 18.1655 6.19937 17.4862C6.95907 17.304 7.70632 17.2295 8.46602 17.4738C8.91021 17.6146 9.29214 17.5525 9.72803 17.304C10.9527 16.6041 12.3185 16.4177 13.705 16.4798C15.2701 16.5503 16.831 16.6455 18.392 16.7905C20.5963 16.9975 22.7883 16.9313 24.9843 16.6455C26.7279 16.4219 28.4134 15.9953 30.0947 15.3409C30.2317 15.635 30.3479 15.8835 30.4849 16.1775C29.007 16.8567 27.4918 17.2212 25.9641 17.4655C22.6263 18.0039 19.2803 17.859 15.9302 17.5359C14.7263 17.42 13.4975 17.3951 12.2936 17.4987C9.05551 17.7761 6.84283 20.7746 7.35345 24.1293C7.43232 24.6552 7.63574 25.1688 7.80595 25.6782C8.33317 27.2271 8.44526 28.7347 7.42402 30.1469C7.31194 30.3002 7.204 30.4989 7.04625 30.5694C6.436 30.8386 6.37787 31.3231 6.38618 31.8988C6.40693 33.5885 6.38203 35.2824 6.38203 36.9722C6.38203 37.2828 6.41109 37.5893 6.43184 37.9413C6.83037 37.9413 7.13757 37.9413 7.54856 37.9413C7.46553 37.5934 7.42402 37.2579 7.30778 36.9515C6.99643 36.1356 7.02964 35.3321 7.31608 34.5287C7.99691 32.6194 8.99739 30.9462 10.8614 29.9564C11.2765 29.7369 11.7456 29.6127 12.2023 29.476C13.539 29.066 14.5436 28.3371 14.801 26.8585C14.8591 26.5148 15.0127 26.2166 15.4237 26.2953C15.9011 26.3864 15.8679 26.7384 15.7766 27.1153C15.4569 28.482 14.6474 29.4553 13.3937 30.0475C12.9661 30.2505 12.4804 30.3292 12.0403 30.5114C11.5256 30.7267 11.0357 30.9959 10.5002 31.2569C12.0403 33.1495 13.485 34.9304 14.938 36.7071C15.2203 37.055 15.515 37.4112 16.0713 37.1461C15.9925 36.4876 15.7558 35.9409 15.2867 35.4564C14.5104 34.6571 13.7839 33.8039 13.045 32.9715C12.5095 32.3709 12.5095 32.1597 13.1612 31.6627C14.0621 30.9752 14.8384 30.2008 15.3075 29.1488C15.515 28.6767 15.9094 28.6974 16.2706 28.9086C17.5285 29.6458 18.9026 30.0268 20.314 30.325C22.2818 30.7433 24.2454 30.7143 26.209 30.3043C26.5536 30.2339 26.8898 30.1386 27.2344 30.0641C27.882 29.9274 28.0563 30.0641 27.9858 30.735C27.9194 31.3687 27.799 31.9941 27.691 32.6236C27.4212 34.1932 27.1389 35.7628 26.8732 37.3325C26.8441 37.5106 26.8691 37.6969 26.8691 37.9289C27.2676 37.9289 27.608 37.9289 27.965 37.9289C27.9775 37.8212 28.0231 37.7218 27.9941 37.6472C27.5914 36.6408 27.7574 35.6635 28.0854 34.6778C28.4092 33.7128 28.8949 32.7312 28.9115 31.7497C28.924 30.8137 28.4051 29.8694 28.156 28.921C27.9858 28.2749 27.8695 27.6123 27.7325 26.9579C27.6661 26.639 27.7367 26.3698 28.0854 26.287C28.459 26.1959 28.6043 26.4444 28.6666 26.755C29.3474 30.3706 30.9291 33.7211 31.8382 37.2704C31.8922 37.4816 31.9918 37.6804 32.0873 37.9247C32.4111 37.9247 32.7183 37.9247 33.1044 37.9247C32.9384 37.2579 32.8304 36.6036 32.6146 35.9865C31.7428 33.4767 32.2368 31.1409 33.5154 28.9252C34.0924 27.9229 34.5325 26.9 34.7857 25.7569C35.0929 24.3736 35.6907 23.1146 36.9195 22.2407C37.6751 21.7023 38.385 21.5946 39.2277 22.0254C40.1576 22.5016 41.1373 22.8909 42.1793 23.3589C42.8186 22.6217 43.4372 21.9053 44.118 21.1225C43.1217 19.8262 42.1212 18.385 40.9754 17.0721C39.921 15.8586 38.4555 15.5397 36.9403 15.9746C34.4329 16.6952 32.3821 14.6824 32.6478 12.123C32.6727 11.8745 32.7266 11.626 32.7889 11.2408C32.1039 11.7295 31.8341 12.3549 31.6763 13.001C31.0827 15.4693 33.0089 17.4407 35.5413 16.9975C35.7945 16.952 36.0477 16.9106 36.301 16.8981C36.5708 16.8816 36.8822 16.9396 36.8365 17.2709C36.8116 17.4655 36.5833 17.6602 36.4006 17.801C36.2885 17.888 36.0934 17.8507 35.9357 17.888C34.1921 18.2938 32.6727 17.8797 31.5394 16.4881C30.3479 15.022 30.3271 13.3654 31.1367 11.7212C31.7179 10.545 32.6519 9.67944 33.9056 9.20317C33.9638 9.18246 34.0177 9.14518 34.08 9.12448C34.3955 9.01265 34.7193 8.93397 34.9227 9.29843C35.1095 9.63389 34.8521 9.80783 34.6321 10.0066C33.9264 10.6403 33.615 11.4644 33.5694 12.3839C33.478 14.1937 34.9393 15.7095 36.7659 15.0552C37.6211 14.7487 38.522 14.815 39.4062 15.051C40.5893 15.3658 41.5774 14.7611 41.8389 13.5932C42.0423 12.6779 42.3744 12.5081 43.2421 12.8601C44.9981 13.5725 45.3344 15.8959 43.8399 17.0762C43.5451 17.3082 43.1964 17.4697 42.7522 17.7347C43.3251 18.5051 43.8897 19.2878 44.4833 20.0499C45.3095 21.1059 45.297 21.5739 44.3588 22.5099C43.9312 22.9365 43.4787 23.3424 43.047 23.7731C42.5322 24.2866 41.9842 24.3943 41.3158 24.0547C40.5188 23.653 39.676 23.3465 38.8873 22.9324C38.1982 22.5679 37.6792 22.7584 37.1769 23.2554C36.575 23.8476 36.081 24.531 35.89 25.3469C35.5122 26.9414 34.9269 28.4199 34.1007 29.8487C32.8927 31.9319 32.9135 34.1601 33.6815 36.4131C33.8973 37.0426 34.026 37.7052 34.1713 38.3555C34.2004 38.4921 34.1257 38.6536 34.0758 38.927C33.3992 38.927 32.7349 38.9601 32.0749 38.9187C31.4314 38.8773 31.1865 38.3844 31.0204 37.8378C30.6551 36.616 30.2815 35.3984 29.912 34.1808C29.8373 33.9406 29.7543 33.7004 29.6214 33.311C29.4761 33.6134 29.3723 33.7832 29.3059 33.9696C29.2146 34.2388 29.1814 34.537 29.0651 34.7937C28.6168 35.7753 28.6251 36.7485 29.0029 37.7508C29.1191 38.0614 29.1108 38.4176 29.1814 38.898C28.2805 38.898 27.4918 38.956 26.7113 38.8773C26.1509 38.8193 25.8229 38.1608 25.9267 37.4319C26.0761 36.3592 26.2671 35.2907 26.4415 34.2222C26.5992 33.2572 26.7528 32.2922 26.9313 31.1947C23.0913 31.8201 19.4796 31.6793 16.171 29.9523ZM8.15881 18.3932C7.02134 18.0785 6.13709 18.4057 5.31512 18.9068C4.04065 19.6895 3.50928 21.4 4.11538 22.7584C4.33125 23.243 4.67581 23.6737 4.98301 24.1168C5.29022 24.56 5.6929 24.9534 5.92122 25.4339C6.4692 26.5811 6.58129 27.7448 5.78008 28.8672C5.64308 29.0577 5.5476 29.3228 5.54345 29.5588C5.53515 30.002 5.89632 30.2049 6.24503 29.944C6.51487 29.7452 6.7598 29.4594 6.9051 29.1612C7.39496 28.159 7.3576 27.1443 6.93001 26.1131C6.01256 23.8849 6.12049 21.7023 7.32024 19.5984C7.54026 19.2174 7.8267 18.8695 8.15881 18.3932ZM41.2121 15.8172C41.5898 16.3929 41.897 16.8691 42.636 16.6372C43.2836 16.4343 43.7278 15.9456 43.7901 15.2747C43.8606 14.5416 43.6531 14.2186 42.8269 13.821C42.5695 14.67 42.1171 15.3823 41.2121 15.8172Z" fill="#FFEB61"/>
<path d="M16.171 29.9523C15.4154 30.8054 14.7263 31.5882 13.95 32.462C14.0621 32.6153 14.1991 32.8513 14.3776 33.0501C14.9671 33.7169 15.5773 34.3713 16.171 35.0381C16.9182 35.8788 17.1839 36.8479 17.0137 38.0448C15.9343 38.5253 15.1373 38.3844 14.3776 37.4899C13.0616 35.9327 11.7788 34.3423 10.4794 32.7685C10.2968 32.549 10.0975 32.3419 9.84427 32.0603C9.6284 32.2881 9.38347 32.4579 9.26723 32.6898C8.85209 33.514 8.4245 34.3382 8.12145 35.2037C7.98861 35.5889 8.08409 36.0817 8.17127 36.5042C8.2875 37.0633 8.51583 37.5975 8.65698 38.1525C8.81888 38.7903 8.69849 38.9311 8.01767 38.956C7.60253 38.9725 7.18739 38.9725 6.77226 38.9601C5.8631 38.9353 5.51024 38.5957 5.48948 37.6638C5.46457 36.6119 5.48533 35.5599 5.48533 34.5038C5.48533 33.6092 5.47703 32.7188 5.48533 31.8242C5.48948 31.3397 5.44797 30.9504 5.00792 30.5652C4.3354 29.9813 4.36446 29.2772 5.00377 28.3288C5.52684 27.5502 5.52684 26.7674 5.12831 25.9805C4.88338 25.5043 4.52221 25.0901 4.20671 24.6511C3.98253 24.3405 3.721 24.0589 3.53003 23.7317C2.04799 21.2468 3.37228 18.1655 6.19937 17.4862C6.95907 17.304 7.70632 17.2295 8.46602 17.4738C8.91021 17.6146 9.29214 17.5525 9.72803 17.304C10.9527 16.6041 12.3185 16.4177 13.705 16.4798C15.2701 16.5503 16.831 16.6455 18.392 16.7905C20.5963 16.9975 22.7883 16.9313 24.9843 16.6455C26.7279 16.4219 28.4134 15.9953 30.0947 15.3409C30.2317 15.635 30.3479 15.8835 30.4849 16.1775C29.007 16.8567 27.4918 17.2212 25.9641 17.4655C22.6263 18.0039 19.2803 17.859 15.9302 17.5359C14.7263 17.42 13.4975 17.3951 12.2936 17.4987C9.05551 17.7761 6.84283 20.7746 7.35345 24.1293C7.43232 24.6552 7.63574 25.1688 7.80595 25.6782C8.33317 27.2271 8.44526 28.7347 7.42402 30.1469C7.31194 30.3002 7.204 30.4989 7.04625 30.5694C6.436 30.8386 6.37787 31.3231 6.38618 31.8988C6.40693 33.5885 6.38203 35.2824 6.38203 36.9722C6.38203 37.2828 6.41109 37.5893 6.43184 37.9413C6.83037 37.9413 7.13757 37.9413 7.54856 37.9413C7.46553 37.5934 7.42402 37.2579 7.30778 36.9515C6.99643 36.1356 7.02964 35.3321 7.31608 34.5287C7.99691 32.6194 8.99739 30.9462 10.8614 29.9564C11.2765 29.7369 11.7456 29.6127 12.2023 29.476C13.539 29.066 14.5436 28.3371 14.801 26.8585C14.8591 26.5148 15.0127 26.2166 15.4237 26.2953C15.9011 26.3864 15.8679 26.7384 15.7766 27.1153C15.4569 28.482 14.6474 29.4553 13.3937 30.0475C12.9661 30.2505 12.4804 30.3292 12.0403 30.5114C11.5256 30.7267 11.0357 30.9959 10.5002 31.2569C12.0403 33.1495 13.485 34.9304 14.938 36.7071C15.2203 37.055 15.515 37.4112 16.0713 37.1461C15.9925 36.4876 15.7558 35.9409 15.2867 35.4564C14.5104 34.6571 13.7839 33.8039 13.045 32.9715C12.5095 32.3709 12.5095 32.1597 13.1612 31.6627C14.0621 30.9752 14.8384 30.2008 15.3075 29.1488C15.515 28.6767 15.9094 28.6974 16.2706 28.9086C17.5285 29.6458 18.9026 30.0268 20.314 30.325C22.2818 30.7433 24.2454 30.7143 26.209 30.3043C26.5536 30.2339 26.8898 30.1386 27.2344 30.0641C27.882 29.9274 28.0563 30.0641 27.9858 30.735C27.9194 31.3687 27.799 31.9941 27.691 32.6236C27.4212 34.1932 27.1389 35.7628 26.8732 37.3325C26.8441 37.5106 26.8691 37.6969 26.8691 37.9289C27.2676 37.9289 27.608 37.9289 27.965 37.9289C27.9775 37.8212 28.0231 37.7218 27.9941 37.6472C27.5914 36.6408 27.7574 35.6635 28.0854 34.6778C28.4092 33.7128 28.8949 32.7312 28.9115 31.7497C28.924 30.8137 28.4051 29.8694 28.156 28.921C27.9858 28.2749 27.8695 27.6123 27.7325 26.9579C27.6661 26.639 27.7367 26.3698 28.0854 26.287C28.459 26.1959 28.6043 26.4444 28.6666 26.755C29.3474 30.3706 30.9291 33.7211 31.8382 37.2704C31.8922 37.4816 31.9918 37.6804 32.0873 37.9247C32.4111 37.9247 32.7183 37.9247 33.1044 37.9247C32.9384 37.2579 32.8304 36.6036 32.6146 35.9865C31.7428 33.4767 32.2368 31.1409 33.5154 28.9252C34.0924 27.9229 34.5325 26.9 34.7857 25.7569C35.0929 24.3736 35.6907 23.1146 36.9195 22.2407C37.6751 21.7023 38.385 21.5946 39.2277 22.0254C40.1576 22.5016 41.1373 22.8909 42.1793 23.3589C42.8186 22.6217 43.4372 21.9053 44.118 21.1225C43.1217 19.8262 42.1212 18.385 40.9754 17.0721C39.921 15.8586 38.4555 15.5397 36.9403 15.9746C34.4329 16.6952 32.3821 14.6824 32.6478 12.123C32.6727 11.8745 32.7266 11.626 32.7889 11.2408C32.1039 11.7295 31.8341 12.3549 31.6763 13.001C31.0827 15.4693 33.0089 17.4407 35.5413 16.9975C35.7945 16.952 36.0477 16.9106 36.301 16.8981C36.5708 16.8816 36.8822 16.9396 36.8365 17.2709C36.8116 17.4655 36.5833 17.6602 36.4006 17.801C36.2885 17.888 36.0934 17.8507 35.9357 17.888C34.1921 18.2938 32.6727 17.8797 31.5394 16.4881C30.3479 15.022 30.3271 13.3654 31.1367 11.7212C31.7179 10.545 32.6519 9.67944 33.9056 9.20317C33.9638 9.18246 34.0177 9.14518 34.08 9.12448C34.3955 9.01265 34.7193 8.93397 34.9227 9.29843C35.1095 9.63389 34.8521 9.80783 34.6321 10.0066C33.9264 10.6403 33.615 11.4644 33.5694 12.3839C33.478 14.1937 34.9393 15.7095 36.7659 15.0552C37.6211 14.7487 38.522 14.815 39.4062 15.051C40.5893 15.3658 41.5774 14.7611 41.8389 13.5932C42.0423 12.6779 42.3744 12.5081 43.2421 12.8601C44.9981 13.5725 45.3344 15.8959 43.8399 17.0762C43.5451 17.3082 43.1964 17.4697 42.7522 17.7347C43.3251 18.5051 43.8897 19.2878 44.4833 20.0499C45.3095 21.1059 45.297 21.5739 44.3588 22.5099C43.9312 22.9365 43.4787 23.3424 43.047 23.7731C42.5322 24.2866 41.9842 24.3943 41.3158 24.0547C40.5188 23.653 39.676 23.3465 38.8873 22.9324C38.1982 22.5679 37.6792 22.7584 37.1769 23.2554C36.575 23.8476 36.081 24.531 35.89 25.3469C35.5122 26.9414 34.9269 28.4199 34.1007 29.8487C32.8927 31.9319 32.9135 34.1601 33.6815 36.4131C33.8973 37.0426 34.026 37.7052 34.1713 38.3555C34.2004 38.4921 34.1257 38.6536 34.0758 38.927C33.3992 38.927 32.7349 38.9601 32.0749 38.9187C31.4314 38.8773 31.1865 38.3844 31.0204 37.8378C30.6551 36.616 30.2815 35.3984 29.912 34.1808C29.8373 33.9406 29.7543 33.7004 29.6214 33.311C29.4761 33.6134 29.3723 33.7832 29.3059 33.9696C29.2146 34.2388 29.1814 34.537 29.0651 34.7937C28.6168 35.7753 28.6251 36.7485 29.0029 37.7508C29.1191 38.0614 29.1108 38.4176 29.1814 38.898C28.2805 38.898 27.4918 38.956 26.7113 38.8773C26.1509 38.8193 25.8229 38.1608 25.9267 37.4319C26.0761 36.3592 26.2671 35.2907 26.4415 34.2222C26.5992 33.2572 26.7528 32.2922 26.9313 31.1947C23.0913 31.8201 19.4796 31.6793 16.171 29.9523ZM8.15881 18.3932C7.02134 18.0785 6.13709 18.4057 5.31512 18.9068C4.04065 19.6895 3.50928 21.4 4.11538 22.7584C4.33125 23.243 4.67581 23.6737 4.98301 24.1168C5.29022 24.56 5.6929 24.9534 5.92122 25.4339C6.4692 26.5811 6.58129 27.7448 5.78008 28.8672C5.64308 29.0577 5.5476 29.3228 5.54345 29.5588C5.53515 30.002 5.89632 30.2049 6.24503 29.944C6.51487 29.7452 6.7598 29.4594 6.9051 29.1612C7.39496 28.159 7.3576 27.1443 6.93001 26.1131C6.01256 23.8849 6.12049 21.7023 7.32024 19.5984C7.54026 19.2174 7.8267 18.8695 8.15881 18.3932ZM41.2121 15.8172C41.5898 16.3929 41.897 16.8691 42.636 16.6372C43.2836 16.4343 43.7278 15.9456 43.7901 15.2747C43.8606 14.5416 43.6531 14.2186 42.8269 13.821C42.5695 14.67 42.1171 15.3823 41.2121 15.8172Z" stroke="#FFEB61" stroke-width="0.2" stroke-miterlimit="10" mask="url(#path-1-outside-1_784_3318)"/>
</svg>
