<svg width="48" height="48" viewBox="0 0 48 48" fill="none" xmlns="http://www.w3.org/2000/svg">
<mask id="path-1-outside-1_784_3314" maskUnits="userSpaceOnUse" x="3.61182" y="8.03101" width="40" height="32" fill="black">
<rect fill="white" x="3.61182" y="8.03101" width="40" height="32"/>
<path d="M38.3503 19.3093C38.3503 19.9585 38.3462 20.5464 38.3503 21.1342C38.3711 24.1743 37.1841 26.5915 34.9345 28.4296C34.4448 28.8288 34.1335 29.2851 33.9094 29.8729C33.2827 31.518 32.6227 33.1455 31.9753 34.7818C31.9089 34.9485 31.8508 35.124 31.7678 35.3477C31.9919 35.3916 32.1579 35.4179 32.3239 35.453C33.5815 35.7382 34.4904 36.9226 34.4489 38.2255C34.4323 38.7958 34.3078 38.9494 33.7724 38.9538C32.3737 38.9669 30.975 38.9801 29.5763 38.9538C28.4225 38.9362 27.6713 38.1422 27.6505 36.9226C27.6256 35.4443 27.6381 33.9659 27.6339 32.4875C27.6298 30.4432 27.6256 28.3989 27.6215 26.359C27.6215 26.144 27.6256 25.9291 27.6298 25.7141C27.6381 25.4158 27.746 25.1658 28.0573 25.1526C28.3893 25.1395 28.5595 25.3676 28.5761 25.7141C28.5844 25.9291 28.5844 26.144 28.5844 26.359C28.5844 27.2452 28.5844 28.1313 28.5844 29.0657C29.3813 29.3421 30.1698 29.2368 30.9294 29.1184C34.0671 28.6139 36.5532 26.1616 37.1799 22.8934C37.3708 21.9019 37.3293 20.8622 37.3625 19.8445C37.3667 19.6734 37.2297 19.4628 37.1052 19.3268C36.6984 18.8662 36.769 18.5152 37.3459 18.3617C38.3296 18.1029 39.3091 18.1292 40.2678 18.5065C40.4546 18.581 40.6455 18.6337 40.8862 18.7126C41.3884 17.9581 41.8782 17.2167 42.397 16.4358C42.2517 16.2472 42.1231 16.0893 42.0027 15.927C41.625 15.4225 41.1684 14.9619 40.8904 14.4003C40.4587 13.5361 39.803 12.979 39.0019 12.6105C38.4292 12.3473 37.7983 12.0928 37.1882 12.0709C36.0593 12.0314 35.2043 11.6629 34.7561 10.4127C34.175 11.1584 33.9011 11.9481 33.955 12.8254C33.9841 13.2773 33.8347 13.5624 33.5939 13.9046C33.1457 14.5451 32.6684 15.2075 32.3945 15.9445C31.2572 18.9934 29.0658 20.4104 26.0983 20.7613C23.9318 21.0202 21.7902 20.814 19.6444 20.485C17.067 20.0901 14.7967 20.7964 12.9954 22.8451C11.8416 24.1568 11.4722 25.7229 11.8499 27.482C11.9329 27.8725 12.0201 28.2717 12.0325 28.6709C12.0616 29.4518 11.8167 30.1537 11.3145 30.7371C10.4595 31.7286 9.62113 32.7419 8.71219 33.6807C8.37185 34.0317 7.86135 34.2072 7.38405 34.4835C7.86135 35.4092 8.36355 36.4006 8.8782 37.3876C9.05252 37.7167 9.3306 37.8834 9.69583 37.879C10.941 37.8746 12.1819 37.879 13.4312 37.879C13.3648 37.0806 12.7796 36.4927 11.9786 36.4181C11.576 36.3831 11.1651 36.405 10.7583 36.4006C10.5799 36.3962 10.3807 36.4445 10.2312 36.3743C10.0694 36.2997 9.8577 36.1286 9.83695 35.9751C9.8162 35.8215 9.97391 35.6022 10.1109 35.475C10.3308 35.2732 10.6297 35.1591 10.8289 34.9398C13.1075 32.4831 15.3695 30.0089 17.6397 27.5435C17.7103 27.4645 17.785 27.3899 17.8597 27.3197C18.0672 27.1311 18.3204 27.1179 18.4615 27.3373C18.5694 27.504 18.6109 27.8023 18.5404 27.9821C18.4491 28.2147 18.2291 28.3989 18.0506 28.5875C16.764 29.965 15.4732 31.3381 14.1824 32.7112C13.9874 32.9218 13.8006 33.1367 13.5723 33.3956C14.2488 34.7204 14.9171 36.0409 15.5936 37.3569C15.7637 37.6903 16.0543 37.8658 16.4071 37.8658C17.7269 37.879 19.0426 37.8702 20.3707 37.8702C20.2005 36.9709 19.6651 36.4532 18.8641 36.3962C18.4574 36.3655 18.0506 36.3874 17.6439 36.383C17.4654 36.383 17.2869 36.3962 17.1085 36.3699C16.5108 36.2865 16.3033 35.8917 16.544 35.3039C17.482 33.0139 18.4242 30.7196 19.3622 28.4296C19.412 28.3068 19.4535 28.1796 19.5157 28.0129C19.4244 27.9339 19.3124 27.8725 19.2376 27.7804C18.8973 27.3285 19.0301 26.9644 19.5697 26.8854C20.5658 26.7407 21.566 26.7714 22.5165 27.0916C23.9152 27.5698 25.2848 28.1401 26.6669 28.6753C26.7624 28.7104 26.8952 28.7542 26.9242 28.8332C26.9989 29.0394 27.0944 29.2763 27.0612 29.4781C27.0155 29.7545 26.7582 29.8334 26.5133 29.7588C26.2228 29.6667 25.9406 29.5395 25.6625 29.4123C24.3302 28.82 23.0021 28.2015 21.566 27.9339C21.2962 27.8813 21.0182 27.8637 20.6737 27.8198C19.6776 30.2984 18.6898 32.7507 17.6646 35.3039C17.9593 35.317 18.171 35.3346 18.3868 35.339C19.0841 35.3521 19.7481 35.4881 20.3334 35.9268C21.068 36.4752 21.4623 37.2209 21.4747 38.1773C21.483 38.7388 21.3419 38.9406 20.8356 38.945C19.3622 38.9625 17.8846 38.9669 16.4112 38.9494C15.6019 38.9406 15.0499 38.4449 14.5684 37.5544C14.5684 37.8307 14.5643 37.9185 14.5684 38.0018C14.6099 38.8178 14.502 38.9538 13.7425 38.9538C12.4725 38.9582 11.1983 38.9494 9.92826 38.9581C8.96951 38.9669 8.28054 38.5502 7.8572 37.6202C7.51686 36.87 7.12673 36.1462 6.75734 35.4092C6.4087 34.7204 6.01441 34.0931 5.46656 33.5403C4.40405 32.4743 4.34179 30.8205 5.22583 29.5834C5.3462 29.4123 5.48316 29.25 5.62842 29.1008C7.99001 26.6178 10.3101 24.091 12.7256 21.665C14.6639 19.7216 17.0255 19.0022 19.6817 19.4189C21.4415 19.6953 23.2137 19.9454 24.9943 19.7874C25.9489 19.6997 26.9201 19.5549 27.8332 19.2698C29.4186 18.7741 30.5932 17.6861 31.2573 16.0586C31.6598 15.0671 32.133 14.124 32.7265 13.2422C32.8884 13.0009 32.9631 12.6587 32.988 12.3517C33.0751 11.2637 33.4736 10.3249 34.1542 9.52211C34.7602 8.80705 35.1918 8.87285 35.5861 9.71952C35.6774 9.91254 35.7439 10.1143 35.8352 10.3074C36.1132 10.882 36.2295 10.9391 36.989 10.8601C36.989 10.5793 36.989 10.2854 36.989 9.99589C36.989 9.63617 37.0927 9.35102 37.4787 9.31593C37.8066 9.28522 37.9975 9.53966 38.0266 10.0266C38.039 10.2152 38.0266 10.4039 38.0307 10.5925C38.0349 10.7504 38.0473 10.9128 38.0556 11.1189C38.3088 11.2154 38.5703 11.3032 38.8235 11.4041C40.1433 11.9349 41.2432 12.7202 41.8823 14.1371C42.094 14.6021 42.4924 14.9882 42.8535 15.3611C43.4927 16.0279 43.5591 16.4797 43.0486 17.2694C42.5464 18.0458 42.04 18.8223 41.5254 19.5856C41.1269 20.1735 40.9568 20.1954 40.4255 19.7699C39.8445 19.3049 39.1846 19.2259 38.3503 19.3093ZM33.4113 37.8878C33.154 36.9621 32.6269 36.4708 31.8466 36.4094C31.4191 36.3743 30.9833 36.4006 30.5517 36.3918C30.3732 36.3874 30.1615 36.4357 30.0287 36.348C29.8586 36.2383 29.6718 36.0321 29.6344 35.8391C29.5805 35.5539 29.8171 35.4355 30.0744 35.4135C30.2736 35.396 30.4687 35.3697 30.6845 35.3434C31.415 33.457 32.2118 31.6233 32.9423 29.6053C31.4606 30.2326 30.0536 30.2984 28.5802 30.2633C28.5802 31.3513 28.5802 32.3383 28.5802 33.3254C28.5802 34.4265 28.5719 35.5232 28.5802 36.6243C28.5885 37.5807 28.8708 37.8834 29.7548 37.8878C30.643 37.8921 31.5312 37.8878 32.4194 37.8878C32.7472 37.8834 33.0668 37.8878 33.4113 37.8878ZM10.8331 25.1175C10.6712 25.2447 10.5633 25.3105 10.4803 25.3983C9.08987 26.881 7.69534 28.3638 6.31325 29.8597C6.10573 30.0879 5.9231 30.3598 5.79029 30.6406C5.40015 31.496 5.68238 32.5357 6.41701 33.0578C7.09768 33.5447 7.63723 33.4044 8.3843 32.5533C9.05667 31.7856 9.71659 31.0091 10.4056 30.2589C11.0115 29.5965 11.19 28.8332 10.9617 27.969C10.721 27.0609 10.6504 26.144 10.8331 25.1175ZM11.9371 35.2732C12.6302 35.589 13.2444 35.8698 13.8919 36.1637C13.5516 35.5188 13.2237 34.9047 12.8668 34.2291C12.5015 34.6414 12.211 34.9661 11.9371 35.2732Z"/>
</mask>
<path d="M38.3503 19.3093C38.3503 19.9585 38.3462 20.5464 38.3503 21.1342C38.3711 24.1743 37.1841 26.5915 34.9345 28.4296C34.4448 28.8288 34.1335 29.2851 33.9094 29.8729C33.2827 31.518 32.6227 33.1455 31.9753 34.7818C31.9089 34.9485 31.8508 35.124 31.7678 35.3477C31.9919 35.3916 32.1579 35.4179 32.3239 35.453C33.5815 35.7382 34.4904 36.9226 34.4489 38.2255C34.4323 38.7958 34.3078 38.9494 33.7724 38.9538C32.3737 38.9669 30.975 38.9801 29.5763 38.9538C28.4225 38.9362 27.6713 38.1422 27.6505 36.9226C27.6256 35.4443 27.6381 33.9659 27.6339 32.4875C27.6298 30.4432 27.6256 28.3989 27.6215 26.359C27.6215 26.144 27.6256 25.9291 27.6298 25.7141C27.6381 25.4158 27.746 25.1658 28.0573 25.1526C28.3893 25.1395 28.5595 25.3676 28.5761 25.7141C28.5844 25.9291 28.5844 26.144 28.5844 26.359C28.5844 27.2452 28.5844 28.1313 28.5844 29.0657C29.3813 29.3421 30.1698 29.2368 30.9294 29.1184C34.0671 28.6139 36.5532 26.1616 37.1799 22.8934C37.3708 21.9019 37.3293 20.8622 37.3625 19.8445C37.3667 19.6734 37.2297 19.4628 37.1052 19.3268C36.6984 18.8662 36.769 18.5152 37.3459 18.3617C38.3296 18.1029 39.3091 18.1292 40.2678 18.5065C40.4546 18.581 40.6455 18.6337 40.8862 18.7126C41.3884 17.9581 41.8782 17.2167 42.397 16.4358C42.2517 16.2472 42.1231 16.0893 42.0027 15.927C41.625 15.4225 41.1684 14.9619 40.8904 14.4003C40.4587 13.5361 39.803 12.979 39.0019 12.6105C38.4292 12.3473 37.7983 12.0928 37.1882 12.0709C36.0593 12.0314 35.2043 11.6629 34.7561 10.4127C34.175 11.1584 33.9011 11.9481 33.955 12.8254C33.9841 13.2773 33.8347 13.5624 33.5939 13.9046C33.1457 14.5451 32.6684 15.2075 32.3945 15.9445C31.2572 18.9934 29.0658 20.4104 26.0983 20.7613C23.9318 21.0202 21.7902 20.814 19.6444 20.485C17.067 20.0901 14.7967 20.7964 12.9954 22.8451C11.8416 24.1568 11.4722 25.7229 11.8499 27.482C11.9329 27.8725 12.0201 28.2717 12.0325 28.6709C12.0616 29.4518 11.8167 30.1537 11.3145 30.7371C10.4595 31.7286 9.62113 32.7419 8.71219 33.6807C8.37185 34.0317 7.86135 34.2072 7.38405 34.4835C7.86135 35.4092 8.36355 36.4006 8.8782 37.3876C9.05252 37.7167 9.3306 37.8834 9.69583 37.879C10.941 37.8746 12.1819 37.879 13.4312 37.879C13.3648 37.0806 12.7796 36.4927 11.9786 36.4181C11.576 36.3831 11.1651 36.405 10.7583 36.4006C10.5799 36.3962 10.3807 36.4445 10.2312 36.3743C10.0694 36.2997 9.8577 36.1286 9.83695 35.9751C9.8162 35.8215 9.97391 35.6022 10.1109 35.475C10.3308 35.2732 10.6297 35.1591 10.8289 34.9398C13.1075 32.4831 15.3695 30.0089 17.6397 27.5435C17.7103 27.4645 17.785 27.3899 17.8597 27.3197C18.0672 27.1311 18.3204 27.1179 18.4615 27.3373C18.5694 27.504 18.6109 27.8023 18.5404 27.9821C18.4491 28.2147 18.2291 28.3989 18.0506 28.5875C16.764 29.965 15.4732 31.3381 14.1824 32.7112C13.9874 32.9218 13.8006 33.1367 13.5723 33.3956C14.2488 34.7204 14.9171 36.0409 15.5936 37.3569C15.7637 37.6903 16.0543 37.8658 16.4071 37.8658C17.7269 37.879 19.0426 37.8702 20.3707 37.8702C20.2005 36.9709 19.6651 36.4532 18.8641 36.3962C18.4574 36.3655 18.0506 36.3874 17.6439 36.383C17.4654 36.383 17.2869 36.3962 17.1085 36.3699C16.5108 36.2865 16.3033 35.8917 16.544 35.3039C17.482 33.0139 18.4242 30.7196 19.3622 28.4296C19.412 28.3068 19.4535 28.1796 19.5157 28.0129C19.4244 27.9339 19.3124 27.8725 19.2376 27.7804C18.8973 27.3285 19.0301 26.9644 19.5697 26.8854C20.5658 26.7407 21.566 26.7714 22.5165 27.0916C23.9152 27.5698 25.2848 28.1401 26.6669 28.6753C26.7624 28.7104 26.8952 28.7542 26.9242 28.8332C26.9989 29.0394 27.0944 29.2763 27.0612 29.4781C27.0155 29.7545 26.7582 29.8334 26.5133 29.7588C26.2228 29.6667 25.9406 29.5395 25.6625 29.4123C24.3302 28.82 23.0021 28.2015 21.566 27.9339C21.2962 27.8813 21.0182 27.8637 20.6737 27.8198C19.6776 30.2984 18.6898 32.7507 17.6646 35.3039C17.9593 35.317 18.171 35.3346 18.3868 35.339C19.0841 35.3521 19.7481 35.4881 20.3334 35.9268C21.068 36.4752 21.4623 37.2209 21.4747 38.1773C21.483 38.7388 21.3419 38.9406 20.8356 38.945C19.3622 38.9625 17.8846 38.9669 16.4112 38.9494C15.6019 38.9406 15.0499 38.4449 14.5684 37.5544C14.5684 37.8307 14.5643 37.9185 14.5684 38.0018C14.6099 38.8178 14.502 38.9538 13.7425 38.9538C12.4725 38.9582 11.1983 38.9494 9.92826 38.9581C8.96951 38.9669 8.28054 38.5502 7.8572 37.6202C7.51686 36.87 7.12673 36.1462 6.75734 35.4092C6.4087 34.7204 6.01441 34.0931 5.46656 33.5403C4.40405 32.4743 4.34179 30.8205 5.22583 29.5834C5.3462 29.4123 5.48316 29.25 5.62842 29.1008C7.99001 26.6178 10.3101 24.091 12.7256 21.665C14.6639 19.7216 17.0255 19.0022 19.6817 19.4189C21.4415 19.6953 23.2137 19.9454 24.9943 19.7874C25.9489 19.6997 26.9201 19.5549 27.8332 19.2698C29.4186 18.7741 30.5932 17.6861 31.2573 16.0586C31.6598 15.0671 32.133 14.124 32.7265 13.2422C32.8884 13.0009 32.9631 12.6587 32.988 12.3517C33.0751 11.2637 33.4736 10.3249 34.1542 9.52211C34.7602 8.80705 35.1918 8.87285 35.5861 9.71952C35.6774 9.91254 35.7439 10.1143 35.8352 10.3074C36.1132 10.882 36.2295 10.9391 36.989 10.8601C36.989 10.5793 36.989 10.2854 36.989 9.99589C36.989 9.63617 37.0927 9.35102 37.4787 9.31593C37.8066 9.28522 37.9975 9.53966 38.0266 10.0266C38.039 10.2152 38.0266 10.4039 38.0307 10.5925C38.0349 10.7504 38.0473 10.9128 38.0556 11.1189C38.3088 11.2154 38.5703 11.3032 38.8235 11.4041C40.1433 11.9349 41.2432 12.7202 41.8823 14.1371C42.094 14.6021 42.4924 14.9882 42.8535 15.3611C43.4927 16.0279 43.5591 16.4797 43.0486 17.2694C42.5464 18.0458 42.04 18.8223 41.5254 19.5856C41.1269 20.1735 40.9568 20.1954 40.4255 19.7699C39.8445 19.3049 39.1846 19.2259 38.3503 19.3093ZM33.4113 37.8878C33.154 36.9621 32.6269 36.4708 31.8466 36.4094C31.4191 36.3743 30.9833 36.4006 30.5517 36.3918C30.3732 36.3874 30.1615 36.4357 30.0287 36.348C29.8586 36.2383 29.6718 36.0321 29.6344 35.8391C29.5805 35.5539 29.8171 35.4355 30.0744 35.4135C30.2736 35.396 30.4687 35.3697 30.6845 35.3434C31.415 33.457 32.2118 31.6233 32.9423 29.6053C31.4606 30.2326 30.0536 30.2984 28.5802 30.2633C28.5802 31.3513 28.5802 32.3383 28.5802 33.3254C28.5802 34.4265 28.5719 35.5232 28.5802 36.6243C28.5885 37.5807 28.8708 37.8834 29.7548 37.8878C30.643 37.8921 31.5312 37.8878 32.4194 37.8878C32.7472 37.8834 33.0668 37.8878 33.4113 37.8878ZM10.8331 25.1175C10.6712 25.2447 10.5633 25.3105 10.4803 25.3983C9.08987 26.881 7.69534 28.3638 6.31325 29.8597C6.10573 30.0879 5.9231 30.3598 5.79029 30.6406C5.40015 31.496 5.68238 32.5357 6.41701 33.0578C7.09768 33.5447 7.63723 33.4044 8.3843 32.5533C9.05667 31.7856 9.71659 31.0091 10.4056 30.2589C11.0115 29.5965 11.19 28.8332 10.9617 27.969C10.721 27.0609 10.6504 26.144 10.8331 25.1175ZM11.9371 35.2732C12.6302 35.589 13.2444 35.8698 13.8919 36.1637C13.5516 35.5188 13.2237 34.9047 12.8668 34.2291C12.5015 34.6414 12.211 34.9661 11.9371 35.2732Z" fill="#FFEB61"/>
<path d="M38.3503 19.3093C38.3503 19.9585 38.3462 20.5464 38.3503 21.1342C38.3711 24.1743 37.1841 26.5915 34.9345 28.4296C34.4448 28.8288 34.1335 29.2851 33.9094 29.8729C33.2827 31.518 32.6227 33.1455 31.9753 34.7818C31.9089 34.9485 31.8508 35.124 31.7678 35.3477C31.9919 35.3916 32.1579 35.4179 32.3239 35.453C33.5815 35.7382 34.4904 36.9226 34.4489 38.2255C34.4323 38.7958 34.3078 38.9494 33.7724 38.9538C32.3737 38.9669 30.975 38.9801 29.5763 38.9538C28.4225 38.9362 27.6713 38.1422 27.6505 36.9226C27.6256 35.4443 27.6381 33.9659 27.6339 32.4875C27.6298 30.4432 27.6256 28.3989 27.6215 26.359C27.6215 26.144 27.6256 25.9291 27.6298 25.7141C27.6381 25.4158 27.746 25.1658 28.0573 25.1526C28.3893 25.1395 28.5595 25.3676 28.5761 25.7141C28.5844 25.9291 28.5844 26.144 28.5844 26.359C28.5844 27.2452 28.5844 28.1313 28.5844 29.0657C29.3813 29.3421 30.1698 29.2368 30.9294 29.1184C34.0671 28.6139 36.5532 26.1616 37.1799 22.8934C37.3708 21.9019 37.3293 20.8622 37.3625 19.8445C37.3667 19.6734 37.2297 19.4628 37.1052 19.3268C36.6984 18.8662 36.769 18.5152 37.3459 18.3617C38.3296 18.1029 39.3091 18.1292 40.2678 18.5065C40.4546 18.581 40.6455 18.6337 40.8862 18.7126C41.3884 17.9581 41.8782 17.2167 42.397 16.4358C42.2517 16.2472 42.1231 16.0893 42.0027 15.927C41.625 15.4225 41.1684 14.9619 40.8904 14.4003C40.4587 13.5361 39.803 12.979 39.0019 12.6105C38.4292 12.3473 37.7983 12.0928 37.1882 12.0709C36.0593 12.0314 35.2043 11.6629 34.7561 10.4127C34.175 11.1584 33.9011 11.9481 33.955 12.8254C33.9841 13.2773 33.8347 13.5624 33.5939 13.9046C33.1457 14.5451 32.6684 15.2075 32.3945 15.9445C31.2572 18.9934 29.0658 20.4104 26.0983 20.7613C23.9318 21.0202 21.7902 20.814 19.6444 20.485C17.067 20.0901 14.7967 20.7964 12.9954 22.8451C11.8416 24.1568 11.4722 25.7229 11.8499 27.482C11.9329 27.8725 12.0201 28.2717 12.0325 28.6709C12.0616 29.4518 11.8167 30.1537 11.3145 30.7371C10.4595 31.7286 9.62113 32.7419 8.71219 33.6807C8.37185 34.0317 7.86135 34.2072 7.38405 34.4835C7.86135 35.4092 8.36355 36.4006 8.8782 37.3876C9.05252 37.7167 9.3306 37.8834 9.69583 37.879C10.941 37.8746 12.1819 37.879 13.4312 37.879C13.3648 37.0806 12.7796 36.4927 11.9786 36.4181C11.576 36.3831 11.1651 36.405 10.7583 36.4006C10.5799 36.3962 10.3807 36.4445 10.2312 36.3743C10.0694 36.2997 9.8577 36.1286 9.83695 35.9751C9.8162 35.8215 9.97391 35.6022 10.1109 35.475C10.3308 35.2732 10.6297 35.1591 10.8289 34.9398C13.1075 32.4831 15.3695 30.0089 17.6397 27.5435C17.7103 27.4645 17.785 27.3899 17.8597 27.3197C18.0672 27.1311 18.3204 27.1179 18.4615 27.3373C18.5694 27.504 18.6109 27.8023 18.5404 27.9821C18.4491 28.2147 18.2291 28.3989 18.0506 28.5875C16.764 29.965 15.4732 31.3381 14.1824 32.7112C13.9874 32.9218 13.8006 33.1367 13.5723 33.3956C14.2488 34.7204 14.9171 36.0409 15.5936 37.3569C15.7637 37.6903 16.0543 37.8658 16.4071 37.8658C17.7269 37.879 19.0426 37.8702 20.3707 37.8702C20.2005 36.9709 19.6651 36.4532 18.8641 36.3962C18.4574 36.3655 18.0506 36.3874 17.6439 36.383C17.4654 36.383 17.2869 36.3962 17.1085 36.3699C16.5108 36.2865 16.3033 35.8917 16.544 35.3039C17.482 33.0139 18.4242 30.7196 19.3622 28.4296C19.412 28.3068 19.4535 28.1796 19.5157 28.0129C19.4244 27.9339 19.3124 27.8725 19.2376 27.7804C18.8973 27.3285 19.0301 26.9644 19.5697 26.8854C20.5658 26.7407 21.566 26.7714 22.5165 27.0916C23.9152 27.5698 25.2848 28.1401 26.6669 28.6753C26.7624 28.7104 26.8952 28.7542 26.9242 28.8332C26.9989 29.0394 27.0944 29.2763 27.0612 29.4781C27.0155 29.7545 26.7582 29.8334 26.5133 29.7588C26.2228 29.6667 25.9406 29.5395 25.6625 29.4123C24.3302 28.82 23.0021 28.2015 21.566 27.9339C21.2962 27.8813 21.0182 27.8637 20.6737 27.8198C19.6776 30.2984 18.6898 32.7507 17.6646 35.3039C17.9593 35.317 18.171 35.3346 18.3868 35.339C19.0841 35.3521 19.7481 35.4881 20.3334 35.9268C21.068 36.4752 21.4623 37.2209 21.4747 38.1773C21.483 38.7388 21.3419 38.9406 20.8356 38.945C19.3622 38.9625 17.8846 38.9669 16.4112 38.9494C15.6019 38.9406 15.0499 38.4449 14.5684 37.5544C14.5684 37.8307 14.5643 37.9185 14.5684 38.0018C14.6099 38.8178 14.502 38.9538 13.7425 38.9538C12.4725 38.9582 11.1983 38.9494 9.92826 38.9581C8.96951 38.9669 8.28054 38.5502 7.8572 37.6202C7.51686 36.87 7.12673 36.1462 6.75734 35.4092C6.4087 34.7204 6.01441 34.0931 5.46656 33.5403C4.40405 32.4743 4.34179 30.8205 5.22583 29.5834C5.3462 29.4123 5.48316 29.25 5.62842 29.1008C7.99001 26.6178 10.3101 24.091 12.7256 21.665C14.6639 19.7216 17.0255 19.0022 19.6817 19.4189C21.4415 19.6953 23.2137 19.9454 24.9943 19.7874C25.9489 19.6997 26.9201 19.5549 27.8332 19.2698C29.4186 18.7741 30.5932 17.6861 31.2573 16.0586C31.6598 15.0671 32.133 14.124 32.7265 13.2422C32.8884 13.0009 32.9631 12.6587 32.988 12.3517C33.0751 11.2637 33.4736 10.3249 34.1542 9.52211C34.7602 8.80705 35.1918 8.87285 35.5861 9.71952C35.6774 9.91254 35.7439 10.1143 35.8352 10.3074C36.1132 10.882 36.2295 10.9391 36.989 10.8601C36.989 10.5793 36.989 10.2854 36.989 9.99589C36.989 9.63617 37.0927 9.35102 37.4787 9.31593C37.8066 9.28522 37.9975 9.53966 38.0266 10.0266C38.039 10.2152 38.0266 10.4039 38.0307 10.5925C38.0349 10.7504 38.0473 10.9128 38.0556 11.1189C38.3088 11.2154 38.5703 11.3032 38.8235 11.4041C40.1433 11.9349 41.2432 12.7202 41.8823 14.1371C42.094 14.6021 42.4924 14.9882 42.8535 15.3611C43.4927 16.0279 43.5591 16.4797 43.0486 17.2694C42.5464 18.0458 42.04 18.8223 41.5254 19.5856C41.1269 20.1735 40.9568 20.1954 40.4255 19.7699C39.8445 19.3049 39.1846 19.2259 38.3503 19.3093ZM33.4113 37.8878C33.154 36.9621 32.6269 36.4708 31.8466 36.4094C31.4191 36.3743 30.9833 36.4006 30.5517 36.3918C30.3732 36.3874 30.1615 36.4357 30.0287 36.348C29.8586 36.2383 29.6718 36.0321 29.6344 35.8391C29.5805 35.5539 29.8171 35.4355 30.0744 35.4135C30.2736 35.396 30.4687 35.3697 30.6845 35.3434C31.415 33.457 32.2118 31.6233 32.9423 29.6053C31.4606 30.2326 30.0536 30.2984 28.5802 30.2633C28.5802 31.3513 28.5802 32.3383 28.5802 33.3254C28.5802 34.4265 28.5719 35.5232 28.5802 36.6243C28.5885 37.5807 28.8708 37.8834 29.7548 37.8878C30.643 37.8921 31.5312 37.8878 32.4194 37.8878C32.7472 37.8834 33.0668 37.8878 33.4113 37.8878ZM10.8331 25.1175C10.6712 25.2447 10.5633 25.3105 10.4803 25.3983C9.08987 26.881 7.69534 28.3638 6.31325 29.8597C6.10573 30.0879 5.9231 30.3598 5.79029 30.6406C5.40015 31.496 5.68238 32.5357 6.41701 33.0578C7.09768 33.5447 7.63723 33.4044 8.3843 32.5533C9.05667 31.7856 9.71659 31.0091 10.4056 30.2589C11.0115 29.5965 11.19 28.8332 10.9617 27.969C10.721 27.0609 10.6504 26.144 10.8331 25.1175ZM11.9371 35.2732C12.6302 35.589 13.2444 35.8698 13.8919 36.1637C13.5516 35.5188 13.2237 34.9047 12.8668 34.2291C12.5015 34.6414 12.211 34.9661 11.9371 35.2732Z" stroke="#FFEB61" stroke-width="0.2" stroke-miterlimit="10" mask="url(#path-1-outside-1_784_3314)"/>
</svg>
