<svg width="48" height="48" viewBox="0 0 48 48" fill="none" xmlns="http://www.w3.org/2000/svg">
<mask id="path-1-outside-1_784_3316" maskUnits="userSpaceOnUse" x="1.78955" y="8.03101" width="44" height="32" fill="black">
<rect fill="white" x="1.78955" y="8.03101" width="44" height="32"/>
<path d="M5.5573 36.5338C6.62043 36.9977 7.05191 37.7538 6.74053 38.9136C5.5573 38.9136 4.37851 38.9136 3.11521 38.9136C3.08853 38.6859 3.05295 38.4411 3.0307 38.1919C2.93729 37.1266 3.20863 36.0441 2.82164 34.9788C2.71488 34.6824 2.9017 34.2743 2.98622 33.922C3.2798 32.7407 3.43104 31.4993 3.92924 30.4039C4.88561 28.3076 4.97013 26.237 4.36962 24.0591C3.98262 22.6673 3.74242 21.2369 3.43549 19.8236C3.19084 18.6895 3.61342 17.6757 4.07604 16.6877C5.24592 14.1876 7.13642 12.2761 9.47175 10.7726C10.3658 10.1969 11.3622 9.73731 12.3631 9.3464C13.8444 8.77078 15.2456 9.08437 16.4955 9.99075C17.2828 10.5621 18.0257 11.1935 18.7774 11.8078C19.8717 12.7056 21.0149 13.5304 22.4028 13.9643C22.7408 14.0717 23.1723 14.1447 23.4792 14.0287C25.6811 13.2082 27.3892 14.0201 28.9105 15.4892C29.3687 15.9317 29.7868 16.4085 30.2316 16.8639C30.3962 17.0314 30.5608 17.1946 30.7388 17.3493C31.7663 18.2471 32.2645 18.2084 33.1586 17.1474C34.0838 16.0563 34.6221 14.789 34.969 13.4359C35.1603 12.6841 35.3694 11.9882 34.8178 11.2021C34.3329 10.5105 35.0758 9.59555 35.9966 9.62562C36.2946 9.63421 36.5926 9.7416 36.9707 9.81892C37.1353 9.71153 37.3444 9.55259 37.5757 9.42801C38.5098 8.92542 39.4662 8.86958 40.3781 9.43661C40.7072 9.6385 41.0142 9.72872 41.3967 9.78886C42.1663 9.90484 42.918 10.1239 43.6698 10.3172C44.1635 10.4418 44.5149 10.7253 44.6662 11.215C44.8397 11.7821 45.071 12.3319 45.1911 12.9075C45.3423 13.6335 44.5995 14.5227 43.7543 14.5055C42.9669 14.4883 42.3086 14.7718 41.6013 14.9737C40.9875 15.1499 40.3514 15.2487 39.6486 15.399C39.4751 15.9403 39.2972 16.5331 39.097 17.1216C38.234 19.6303 37.1442 22.0316 35.4272 24.1193C34.9868 24.6562 34.4797 25.1588 33.9326 25.5927C32.6381 26.6279 31.2281 27.1262 29.5066 26.1339C28.8661 27.8436 28.2477 29.5104 28.0565 31.2544C27.8652 32.977 27.9186 34.7253 27.8741 36.2245C28.4746 36.7615 28.9683 37.1008 29.3153 37.5476C29.6 37.917 29.5778 38.411 29.3554 38.9136C27.9986 38.9136 26.6553 38.9136 25.2051 38.9136C24.956 34.4203 24.7069 29.9743 24.4489 25.3822C20.6679 26.8771 17.0782 26.0781 13.484 24.9097C13.355 25.5755 13.2572 26.1597 13.1282 26.731C12.8035 28.1572 12.2296 29.4932 11.4156 30.7131C10.9797 31.3661 10.824 31.9632 11.0865 32.7407C11.4912 33.9564 11.7581 35.215 12.0473 36.3147C12.6167 36.7056 13.1994 36.9591 13.5374 37.3886C13.8043 37.7323 13.7643 38.295 13.8888 38.9093C13.0971 38.9308 12.4654 38.9566 11.8338 38.9651C11.2243 38.9737 10.6149 38.9651 9.90767 38.9651C9.00913 36.5725 8.11503 34.2055 7.14087 31.6109C6.32684 33.3163 6.01547 34.9143 5.5573 36.5338ZM24.3867 24.4286C24.3867 24.2009 24.3911 24.0376 24.3867 23.8787C24.3644 23.3546 24.3422 22.8306 24.32 22.3022C24.3066 21.9757 24.4 21.6535 24.7781 21.6836C24.9383 21.6965 25.0984 22.0144 25.214 22.2206C25.2719 22.3237 25.2274 22.4783 25.2363 22.6115C25.4409 26.8127 25.6455 31.0138 25.859 35.215C25.908 36.1601 25.9969 37.1051 26.0726 38.0888C26.9266 38.179 27.714 38.2134 28.5191 37.99C28.3234 37.1696 27.5049 37.7581 27.1179 37.2855C27.109 37.2254 27.0734 37.1008 27.0734 36.9763C27.0734 35.2666 27.069 33.5569 27.0956 31.8472C27.1001 31.4563 27.1624 31.0568 27.2691 30.6831C28.0298 28.024 28.8082 25.3736 29.5822 22.7189C29.6267 22.5642 29.6801 22.3881 29.7868 22.2721C29.8802 22.1647 30.076 22.0487 30.1872 22.0788C30.3162 22.1089 30.4808 22.2979 30.4852 22.4182C30.4941 22.6716 30.4229 22.9337 30.3518 23.1871C30.1605 23.8787 29.9559 24.5617 29.7646 25.2276C30.9345 25.9922 31.922 26.0437 33.0029 25.2018C33.8392 24.5488 34.6087 23.7713 35.2404 22.9337C36.7972 20.8674 37.7314 18.5005 38.5321 16.082C38.621 15.8071 38.6877 15.5279 38.7411 15.3389C38.1628 14.8964 37.6068 14.57 37.1798 14.1232C36.775 13.6936 36.5037 13.1438 36.1078 12.5467C36.0055 12.9075 35.9565 13.1266 35.8854 13.3457C35.5962 14.2177 35.356 15.1112 34.9957 15.9575C34.6043 16.8724 34.0171 17.6886 33.2298 18.3416C32.4469 18.9859 31.7663 19.0632 30.9033 18.5134C30.3695 18.174 29.9114 17.7187 29.4488 17.2891C28.8349 16.7221 28.2744 16.0949 27.6428 15.5494C26.5396 14.5957 25.2585 14.2993 23.8618 14.8277C23.3102 15.0339 22.8209 14.9952 22.2871 14.832C20.4856 14.2907 19.0666 13.1696 17.6609 12.014C17.0649 11.5243 16.4688 11.0303 15.8327 10.5964C14.9253 9.97786 13.9378 9.79315 12.8346 10.111C11.6069 10.4676 10.5126 11.0475 9.51622 11.7992C7.4211 13.3715 5.61513 15.1799 4.64986 17.6328C4.36073 18.3716 4.1828 19.1148 4.37852 19.9353C4.72993 21.4044 4.97013 22.8993 5.31264 24.3727C5.70409 26.0566 5.95764 27.7362 5.24147 29.3944C4.43634 31.2587 3.96038 33.2046 3.6668 35.1893C3.52445 36.1386 3.21308 37.1008 3.47553 38.1275C4.32069 38.1748 5.11692 38.2607 5.9176 38.0373C5.85533 37.0965 4.84558 37.7795 4.56089 37.1137C4.63651 36.7744 4.72103 36.3276 4.83223 35.8852C5.38381 33.7158 5.93985 31.5508 7.29656 29.6736C9.15592 27.0962 9.73864 24.2267 9.27602 21.1381C9.25378 20.9748 9.2093 20.8159 9.18706 20.6526C9.14702 20.3777 9.15147 20.1028 9.50733 20.0298C9.92547 19.9439 10.0456 20.236 10.0945 20.541C10.1746 21.0264 10.2368 21.5161 10.2947 22.0058C10.3303 22.2936 10.3391 22.59 10.3658 22.9337C12.8391 23.7928 15.2722 24.7078 17.8478 25.1932C20.063 25.597 22.2248 25.4209 24.3867 24.4286ZM12.8702 38.0459C12.5588 37.2211 11.8293 37.6765 11.429 37.3758C11.3934 37.3199 11.34 37.2727 11.3222 37.2125C10.8774 35.4642 10.4148 33.7201 10.01 31.9632C9.9477 31.684 10.0767 31.3231 10.219 31.0439C10.5927 30.3093 11.0464 29.6134 11.429 28.8832C12.1273 27.5515 12.4432 26.1253 12.5499 24.5531C11.8071 24.3083 11.0954 24.0763 10.2991 23.8186C10.1078 26.5077 9.06695 28.7586 7.68355 30.7389C8.67106 33.2906 9.60519 35.709 10.5616 38.179C11.3445 38.1318 12.0651 38.0931 12.8702 38.0459ZM35.6896 10.6308C35.5517 11.1162 35.8587 11.4255 36.2412 11.5415C36.8462 11.7262 37.0375 12.1601 37.2599 12.6455C37.9493 14.1662 39.0169 14.6988 40.6894 14.3466C41.1832 14.2435 41.6547 14.0545 42.1396 13.9084C42.6111 13.7624 43.0337 13.4617 43.5941 13.6421C43.7543 13.6936 44.0123 13.4531 44.377 13.2684C43.732 13.0665 43.2783 12.9591 42.8602 12.7787C42.7312 12.7228 42.5933 12.4436 42.6333 12.3147C42.6734 12.1815 42.9225 12.0269 43.0826 12.0226C43.3851 12.014 43.6876 12.1085 44.0657 12.173C43.9055 11.593 43.7765 11.1721 43.2561 11.0733C42.5666 10.9401 41.8727 10.7855 41.1743 10.7339C40.8184 10.7081 40.5471 10.648 40.2624 10.4289C39.3016 9.68146 38.4564 9.72442 37.5579 10.5363C37.4155 10.6652 37.3399 10.8671 37.2954 10.9358C36.6193 10.8671 36.259 10.2743 35.6896 10.6308Z"/>
</mask>
<path d="M5.5573 36.5338C6.62043 36.9977 7.05191 37.7538 6.74053 38.9136C5.5573 38.9136 4.37851 38.9136 3.11521 38.9136C3.08853 38.6859 3.05295 38.4411 3.0307 38.1919C2.93729 37.1266 3.20863 36.0441 2.82164 34.9788C2.71488 34.6824 2.9017 34.2743 2.98622 33.922C3.2798 32.7407 3.43104 31.4993 3.92924 30.4039C4.88561 28.3076 4.97013 26.237 4.36962 24.0591C3.98262 22.6673 3.74242 21.2369 3.43549 19.8236C3.19084 18.6895 3.61342 17.6757 4.07604 16.6877C5.24592 14.1876 7.13642 12.2761 9.47175 10.7726C10.3658 10.1969 11.3622 9.73731 12.3631 9.3464C13.8444 8.77078 15.2456 9.08437 16.4955 9.99075C17.2828 10.5621 18.0257 11.1935 18.7774 11.8078C19.8717 12.7056 21.0149 13.5304 22.4028 13.9643C22.7408 14.0717 23.1723 14.1447 23.4792 14.0287C25.6811 13.2082 27.3892 14.0201 28.9105 15.4892C29.3687 15.9317 29.7868 16.4085 30.2316 16.8639C30.3962 17.0314 30.5608 17.1946 30.7388 17.3493C31.7663 18.2471 32.2645 18.2084 33.1586 17.1474C34.0838 16.0563 34.6221 14.789 34.969 13.4359C35.1603 12.6841 35.3694 11.9882 34.8178 11.2021C34.3329 10.5105 35.0758 9.59555 35.9966 9.62562C36.2946 9.63421 36.5926 9.7416 36.9707 9.81892C37.1353 9.71153 37.3444 9.55259 37.5757 9.42801C38.5098 8.92542 39.4662 8.86958 40.3781 9.43661C40.7072 9.6385 41.0142 9.72872 41.3967 9.78886C42.1663 9.90484 42.918 10.1239 43.6698 10.3172C44.1635 10.4418 44.5149 10.7253 44.6662 11.215C44.8397 11.7821 45.071 12.3319 45.1911 12.9075C45.3423 13.6335 44.5995 14.5227 43.7543 14.5055C42.9669 14.4883 42.3086 14.7718 41.6013 14.9737C40.9875 15.1499 40.3514 15.2487 39.6486 15.399C39.4751 15.9403 39.2972 16.5331 39.097 17.1216C38.234 19.6303 37.1442 22.0316 35.4272 24.1193C34.9868 24.6562 34.4797 25.1588 33.9326 25.5927C32.6381 26.6279 31.2281 27.1262 29.5066 26.1339C28.8661 27.8436 28.2477 29.5104 28.0565 31.2544C27.8652 32.977 27.9186 34.7253 27.8741 36.2245C28.4746 36.7615 28.9683 37.1008 29.3153 37.5476C29.6 37.917 29.5778 38.411 29.3554 38.9136C27.9986 38.9136 26.6553 38.9136 25.2051 38.9136C24.956 34.4203 24.7069 29.9743 24.4489 25.3822C20.6679 26.8771 17.0782 26.0781 13.484 24.9097C13.355 25.5755 13.2572 26.1597 13.1282 26.731C12.8035 28.1572 12.2296 29.4932 11.4156 30.7131C10.9797 31.3661 10.824 31.9632 11.0865 32.7407C11.4912 33.9564 11.7581 35.215 12.0473 36.3147C12.6167 36.7056 13.1994 36.9591 13.5374 37.3886C13.8043 37.7323 13.7643 38.295 13.8888 38.9093C13.0971 38.9308 12.4654 38.9566 11.8338 38.9651C11.2243 38.9737 10.6149 38.9651 9.90767 38.9651C9.00913 36.5725 8.11503 34.2055 7.14087 31.6109C6.32684 33.3163 6.01547 34.9143 5.5573 36.5338ZM24.3867 24.4286C24.3867 24.2009 24.3911 24.0376 24.3867 23.8787C24.3644 23.3546 24.3422 22.8306 24.32 22.3022C24.3066 21.9757 24.4 21.6535 24.7781 21.6836C24.9383 21.6965 25.0984 22.0144 25.214 22.2206C25.2719 22.3237 25.2274 22.4783 25.2363 22.6115C25.4409 26.8127 25.6455 31.0138 25.859 35.215C25.908 36.1601 25.9969 37.1051 26.0726 38.0888C26.9266 38.179 27.714 38.2134 28.5191 37.99C28.3234 37.1696 27.5049 37.7581 27.1179 37.2855C27.109 37.2254 27.0734 37.1008 27.0734 36.9763C27.0734 35.2666 27.069 33.5569 27.0956 31.8472C27.1001 31.4563 27.1624 31.0568 27.2691 30.6831C28.0298 28.024 28.8082 25.3736 29.5822 22.7189C29.6267 22.5642 29.6801 22.3881 29.7868 22.2721C29.8802 22.1647 30.076 22.0487 30.1872 22.0788C30.3162 22.1089 30.4808 22.2979 30.4852 22.4182C30.4941 22.6716 30.4229 22.9337 30.3518 23.1871C30.1605 23.8787 29.9559 24.5617 29.7646 25.2276C30.9345 25.9922 31.922 26.0437 33.0029 25.2018C33.8392 24.5488 34.6087 23.7713 35.2404 22.9337C36.7972 20.8674 37.7314 18.5005 38.5321 16.082C38.621 15.8071 38.6877 15.5279 38.7411 15.3389C38.1628 14.8964 37.6068 14.57 37.1798 14.1232C36.775 13.6936 36.5037 13.1438 36.1078 12.5467C36.0055 12.9075 35.9565 13.1266 35.8854 13.3457C35.5962 14.2177 35.356 15.1112 34.9957 15.9575C34.6043 16.8724 34.0171 17.6886 33.2298 18.3416C32.4469 18.9859 31.7663 19.0632 30.9033 18.5134C30.3695 18.174 29.9114 17.7187 29.4488 17.2891C28.8349 16.7221 28.2744 16.0949 27.6428 15.5494C26.5396 14.5957 25.2585 14.2993 23.8618 14.8277C23.3102 15.0339 22.8209 14.9952 22.2871 14.832C20.4856 14.2907 19.0666 13.1696 17.6609 12.014C17.0649 11.5243 16.4688 11.0303 15.8327 10.5964C14.9253 9.97786 13.9378 9.79315 12.8346 10.111C11.6069 10.4676 10.5126 11.0475 9.51622 11.7992C7.4211 13.3715 5.61513 15.1799 4.64986 17.6328C4.36073 18.3716 4.1828 19.1148 4.37852 19.9353C4.72993 21.4044 4.97013 22.8993 5.31264 24.3727C5.70409 26.0566 5.95764 27.7362 5.24147 29.3944C4.43634 31.2587 3.96038 33.2046 3.6668 35.1893C3.52445 36.1386 3.21308 37.1008 3.47553 38.1275C4.32069 38.1748 5.11692 38.2607 5.9176 38.0373C5.85533 37.0965 4.84558 37.7795 4.56089 37.1137C4.63651 36.7744 4.72103 36.3276 4.83223 35.8852C5.38381 33.7158 5.93985 31.5508 7.29656 29.6736C9.15592 27.0962 9.73864 24.2267 9.27602 21.1381C9.25378 20.9748 9.2093 20.8159 9.18706 20.6526C9.14702 20.3777 9.15147 20.1028 9.50733 20.0298C9.92547 19.9439 10.0456 20.236 10.0945 20.541C10.1746 21.0264 10.2368 21.5161 10.2947 22.0058C10.3303 22.2936 10.3391 22.59 10.3658 22.9337C12.8391 23.7928 15.2722 24.7078 17.8478 25.1932C20.063 25.597 22.2248 25.4209 24.3867 24.4286ZM12.8702 38.0459C12.5588 37.2211 11.8293 37.6765 11.429 37.3758C11.3934 37.3199 11.34 37.2727 11.3222 37.2125C10.8774 35.4642 10.4148 33.7201 10.01 31.9632C9.9477 31.684 10.0767 31.3231 10.219 31.0439C10.5927 30.3093 11.0464 29.6134 11.429 28.8832C12.1273 27.5515 12.4432 26.1253 12.5499 24.5531C11.8071 24.3083 11.0954 24.0763 10.2991 23.8186C10.1078 26.5077 9.06695 28.7586 7.68355 30.7389C8.67106 33.2906 9.60519 35.709 10.5616 38.179C11.3445 38.1318 12.0651 38.0931 12.8702 38.0459ZM35.6896 10.6308C35.5517 11.1162 35.8587 11.4255 36.2412 11.5415C36.8462 11.7262 37.0375 12.1601 37.2599 12.6455C37.9493 14.1662 39.0169 14.6988 40.6894 14.3466C41.1832 14.2435 41.6547 14.0545 42.1396 13.9084C42.6111 13.7624 43.0337 13.4617 43.5941 13.6421C43.7543 13.6936 44.0123 13.4531 44.377 13.2684C43.732 13.0665 43.2783 12.9591 42.8602 12.7787C42.7312 12.7228 42.5933 12.4436 42.6333 12.3147C42.6734 12.1815 42.9225 12.0269 43.0826 12.0226C43.3851 12.014 43.6876 12.1085 44.0657 12.173C43.9055 11.593 43.7765 11.1721 43.2561 11.0733C42.5666 10.9401 41.8727 10.7855 41.1743 10.7339C40.8184 10.7081 40.5471 10.648 40.2624 10.4289C39.3016 9.68146 38.4564 9.72442 37.5579 10.5363C37.4155 10.6652 37.3399 10.8671 37.2954 10.9358C36.6193 10.8671 36.259 10.2743 35.6896 10.6308Z" fill="#FFEB61"/>
<path d="M5.5573 36.5338C6.62043 36.9977 7.05191 37.7538 6.74053 38.9136C5.5573 38.9136 4.37851 38.9136 3.11521 38.9136C3.08853 38.6859 3.05295 38.4411 3.0307 38.1919C2.93729 37.1266 3.20863 36.0441 2.82164 34.9788C2.71488 34.6824 2.9017 34.2743 2.98622 33.922C3.2798 32.7407 3.43104 31.4993 3.92924 30.4039C4.88561 28.3076 4.97013 26.237 4.36962 24.0591C3.98262 22.6673 3.74242 21.2369 3.43549 19.8236C3.19084 18.6895 3.61342 17.6757 4.07604 16.6877C5.24592 14.1876 7.13642 12.2761 9.47175 10.7726C10.3658 10.1969 11.3622 9.73731 12.3631 9.3464C13.8444 8.77078 15.2456 9.08437 16.4955 9.99075C17.2828 10.5621 18.0257 11.1935 18.7774 11.8078C19.8717 12.7056 21.0149 13.5304 22.4028 13.9643C22.7408 14.0717 23.1723 14.1447 23.4792 14.0287C25.6811 13.2082 27.3892 14.0201 28.9105 15.4892C29.3687 15.9317 29.7868 16.4085 30.2316 16.8639C30.3962 17.0314 30.5608 17.1946 30.7388 17.3493C31.7663 18.2471 32.2645 18.2084 33.1586 17.1474C34.0838 16.0563 34.6221 14.789 34.969 13.4359C35.1603 12.6841 35.3694 11.9882 34.8178 11.2021C34.3329 10.5105 35.0758 9.59555 35.9966 9.62562C36.2946 9.63421 36.5926 9.7416 36.9707 9.81892C37.1353 9.71153 37.3444 9.55259 37.5757 9.42801C38.5098 8.92542 39.4662 8.86958 40.3781 9.43661C40.7072 9.6385 41.0142 9.72872 41.3967 9.78886C42.1663 9.90484 42.918 10.1239 43.6698 10.3172C44.1635 10.4418 44.5149 10.7253 44.6662 11.215C44.8397 11.7821 45.071 12.3319 45.1911 12.9075C45.3423 13.6335 44.5995 14.5227 43.7543 14.5055C42.9669 14.4883 42.3086 14.7718 41.6013 14.9737C40.9875 15.1499 40.3514 15.2487 39.6486 15.399C39.4751 15.9403 39.2972 16.5331 39.097 17.1216C38.234 19.6303 37.1442 22.0316 35.4272 24.1193C34.9868 24.6562 34.4797 25.1588 33.9326 25.5927C32.6381 26.6279 31.2281 27.1262 29.5066 26.1339C28.8661 27.8436 28.2477 29.5104 28.0565 31.2544C27.8652 32.977 27.9186 34.7253 27.8741 36.2245C28.4746 36.7615 28.9683 37.1008 29.3153 37.5476C29.6 37.917 29.5778 38.411 29.3554 38.9136C27.9986 38.9136 26.6553 38.9136 25.2051 38.9136C24.956 34.4203 24.7069 29.9743 24.4489 25.3822C20.6679 26.8771 17.0782 26.0781 13.484 24.9097C13.355 25.5755 13.2572 26.1597 13.1282 26.731C12.8035 28.1572 12.2296 29.4932 11.4156 30.7131C10.9797 31.3661 10.824 31.9632 11.0865 32.7407C11.4912 33.9564 11.7581 35.215 12.0473 36.3147C12.6167 36.7056 13.1994 36.9591 13.5374 37.3886C13.8043 37.7323 13.7643 38.295 13.8888 38.9093C13.0971 38.9308 12.4654 38.9566 11.8338 38.9651C11.2243 38.9737 10.6149 38.9651 9.90767 38.9651C9.00913 36.5725 8.11503 34.2055 7.14087 31.6109C6.32684 33.3163 6.01547 34.9143 5.5573 36.5338ZM24.3867 24.4286C24.3867 24.2009 24.3911 24.0376 24.3867 23.8787C24.3644 23.3546 24.3422 22.8306 24.32 22.3022C24.3066 21.9757 24.4 21.6535 24.7781 21.6836C24.9383 21.6965 25.0984 22.0144 25.214 22.2206C25.2719 22.3237 25.2274 22.4783 25.2363 22.6115C25.4409 26.8127 25.6455 31.0138 25.859 35.215C25.908 36.1601 25.9969 37.1051 26.0726 38.0888C26.9266 38.179 27.714 38.2134 28.5191 37.99C28.3234 37.1696 27.5049 37.7581 27.1179 37.2855C27.109 37.2254 27.0734 37.1008 27.0734 36.9763C27.0734 35.2666 27.069 33.5569 27.0956 31.8472C27.1001 31.4563 27.1624 31.0568 27.2691 30.6831C28.0298 28.024 28.8082 25.3736 29.5822 22.7189C29.6267 22.5642 29.6801 22.3881 29.7868 22.2721C29.8802 22.1647 30.076 22.0487 30.1872 22.0788C30.3162 22.1089 30.4808 22.2979 30.4852 22.4182C30.4941 22.6716 30.4229 22.9337 30.3518 23.1871C30.1605 23.8787 29.9559 24.5617 29.7646 25.2276C30.9345 25.9922 31.922 26.0437 33.0029 25.2018C33.8392 24.5488 34.6087 23.7713 35.2404 22.9337C36.7972 20.8674 37.7314 18.5005 38.5321 16.082C38.621 15.8071 38.6877 15.5279 38.7411 15.3389C38.1628 14.8964 37.6068 14.57 37.1798 14.1232C36.775 13.6936 36.5037 13.1438 36.1078 12.5467C36.0055 12.9075 35.9565 13.1266 35.8854 13.3457C35.5962 14.2177 35.356 15.1112 34.9957 15.9575C34.6043 16.8724 34.0171 17.6886 33.2298 18.3416C32.4469 18.9859 31.7663 19.0632 30.9033 18.5134C30.3695 18.174 29.9114 17.7187 29.4488 17.2891C28.8349 16.7221 28.2744 16.0949 27.6428 15.5494C26.5396 14.5957 25.2585 14.2993 23.8618 14.8277C23.3102 15.0339 22.8209 14.9952 22.2871 14.832C20.4856 14.2907 19.0666 13.1696 17.6609 12.014C17.0649 11.5243 16.4688 11.0303 15.8327 10.5964C14.9253 9.97786 13.9378 9.79315 12.8346 10.111C11.6069 10.4676 10.5126 11.0475 9.51622 11.7992C7.4211 13.3715 5.61513 15.1799 4.64986 17.6328C4.36073 18.3716 4.1828 19.1148 4.37852 19.9353C4.72993 21.4044 4.97013 22.8993 5.31264 24.3727C5.70409 26.0566 5.95764 27.7362 5.24147 29.3944C4.43634 31.2587 3.96038 33.2046 3.6668 35.1893C3.52445 36.1386 3.21308 37.1008 3.47553 38.1275C4.32069 38.1748 5.11692 38.2607 5.9176 38.0373C5.85533 37.0965 4.84558 37.7795 4.56089 37.1137C4.63651 36.7744 4.72103 36.3276 4.83223 35.8852C5.38381 33.7158 5.93985 31.5508 7.29656 29.6736C9.15592 27.0962 9.73864 24.2267 9.27602 21.1381C9.25378 20.9748 9.2093 20.8159 9.18706 20.6526C9.14702 20.3777 9.15147 20.1028 9.50733 20.0298C9.92547 19.9439 10.0456 20.236 10.0945 20.541C10.1746 21.0264 10.2368 21.5161 10.2947 22.0058C10.3303 22.2936 10.3391 22.59 10.3658 22.9337C12.8391 23.7928 15.2722 24.7078 17.8478 25.1932C20.063 25.597 22.2248 25.4209 24.3867 24.4286ZM12.8702 38.0459C12.5588 37.2211 11.8293 37.6765 11.429 37.3758C11.3934 37.3199 11.34 37.2727 11.3222 37.2125C10.8774 35.4642 10.4148 33.7201 10.01 31.9632C9.9477 31.684 10.0767 31.3231 10.219 31.0439C10.5927 30.3093 11.0464 29.6134 11.429 28.8832C12.1273 27.5515 12.4432 26.1253 12.5499 24.5531C11.8071 24.3083 11.0954 24.0763 10.2991 23.8186C10.1078 26.5077 9.06695 28.7586 7.68355 30.7389C8.67106 33.2906 9.60519 35.709 10.5616 38.179C11.3445 38.1318 12.0651 38.0931 12.8702 38.0459ZM35.6896 10.6308C35.5517 11.1162 35.8587 11.4255 36.2412 11.5415C36.8462 11.7262 37.0375 12.1601 37.2599 12.6455C37.9493 14.1662 39.0169 14.6988 40.6894 14.3466C41.1832 14.2435 41.6547 14.0545 42.1396 13.9084C42.6111 13.7624 43.0337 13.4617 43.5941 13.6421C43.7543 13.6936 44.0123 13.4531 44.377 13.2684C43.732 13.0665 43.2783 12.9591 42.8602 12.7787C42.7312 12.7228 42.5933 12.4436 42.6333 12.3147C42.6734 12.1815 42.9225 12.0269 43.0826 12.0226C43.3851 12.014 43.6876 12.1085 44.0657 12.173C43.9055 11.593 43.7765 11.1721 43.2561 11.0733C42.5666 10.9401 41.8727 10.7855 41.1743 10.7339C40.8184 10.7081 40.5471 10.648 40.2624 10.4289C39.3016 9.68146 38.4564 9.72442 37.5579 10.5363C37.4155 10.6652 37.3399 10.8671 37.2954 10.9358C36.6193 10.8671 36.259 10.2743 35.6896 10.6308Z" stroke="#FFEB61" stroke-width="0.4" mask="url(#path-1-outside-1_784_3316)"/>
</svg>
