<svg width="48" height="48" viewBox="0 0 48 48" fill="none" xmlns="http://www.w3.org/2000/svg">
<path d="M5.91339 24.6548L6.60613 25.5885C6.2396 25.8882 6.23227 25.8916 6.51817 26.2568C6.92135 26.7736 7.26955 27.3352 7.81934 27.7417C7.87432 27.7831 7.87432 27.9485 7.834 28.0243C7.78636 28.1173 7.6654 28.1793 7.57743 28.2516C7.90364 28.8649 8.68801 29.3541 9.59701 29.4747C9.48338 29.7641 9.37342 30.0363 9.25247 30.3464C9.98186 30.8804 10.7406 31.4247 11.8695 31.0699C11.7375 31.4385 11.7669 31.7865 11.437 32.0552C12.8115 32.9475 14.3106 33.1129 15.916 32.7718C15.9673 33.044 16.0076 33.2714 16.0516 33.5126C14.8237 33.7399 13.6178 33.7916 12.4633 33.3334C11.8475 33.0888 11.2647 32.7581 10.6819 32.4411C10.3667 32.2688 10.3777 32.1689 10.6819 31.9002C9.59334 31.6556 8.81264 31.0079 8.05392 30.2706C8.19687 30.1638 8.32149 30.0707 8.45344 29.9743C7.58477 29.5333 6.97266 28.8305 6.28358 28.1448C6.45219 28.0449 6.5878 27.9622 6.77473 27.8485C6.20661 27.1629 5.64582 26.4946 5.06671 25.7986C5.19499 25.6987 5.3636 25.5712 5.55053 25.4265C5.02272 24.5342 4.48393 23.6488 3.58594 22.9976C3.80952 22.8185 4.00377 22.66 4.18704 22.5118C4.74783 22.7496 5.28663 23.0286 5.86208 23.2078C6.75641 23.4834 7.67273 23.697 8.58538 23.9209C8.64769 23.9347 8.76499 23.8658 8.80897 23.8073C9.01056 23.5075 9.09852 23.4799 9.35143 23.7246C9.79126 24.1552 10.4144 24.2241 10.9642 24.5101C11.0008 24.3447 11.0301 24.2138 11.0668 24.0622C11.8402 24.3929 12.5915 24.7168 13.3466 25.0441C13.6068 24.6238 13.6068 24.6238 14.1456 24.8512C14.2776 24.9063 14.4132 24.9649 14.5378 25.02V23.0148C14.0686 22.9873 13.6398 22.97 13.211 22.939C12.5659 22.8908 12.5366 22.8839 12.5732 22.281C12.6062 21.6953 12.7052 21.1131 12.7785 20.5067C12.5439 20.4447 12.2617 20.3723 11.9171 20.2862C11.8512 20.8409 11.7852 21.3818 11.7192 21.933C11.5176 21.9193 11.2977 21.902 11.0081 21.8814C11.0301 21.4955 10.9751 21.0889 11.0924 20.7306C11.261 20.2069 11.1951 19.8555 10.6416 19.6144C10.473 19.542 10.3411 19.3835 10.2128 19.2492C10.0039 19.0321 10.0698 18.8357 10.3814 18.7875C10.55 18.7599 10.7259 18.7841 10.8505 18.7841C11.1034 18.3947 11.3527 18.0123 11.5653 17.685C10.9055 17.2165 10.2421 16.741 9.56402 16.2552C10.0185 15.4869 10.5976 14.9116 11.2757 14.4086C10.9825 14.1502 10.6599 13.9297 10.4254 13.6437C10.0662 13.2096 9.75828 12.7342 9.4394 12.2691C9.30745 12.0761 9.3441 11.8763 9.53469 11.7316C9.95253 11.4043 10.3704 11.077 10.8102 10.7773C10.9678 10.6705 11.0155 10.5912 10.9825 10.4052C10.8799 9.83325 10.8175 9.25446 10.7332 8.6791C10.7113 8.51717 10.7772 8.44481 10.9422 8.40347C11.415 8.28977 11.8841 8.15886 12.3606 8.0555C12.5366 8.01761 12.6099 7.95903 12.6025 7.78333C12.5915 7.59384 12.6282 7.4009 12.6172 7.21141C12.6062 7.00469 12.7088 6.93235 12.9068 6.92546C13.4749 6.90134 14.0467 6.87033 14.6074 6.84276C14.6404 6.42589 14.6698 5.9849 14.7137 5.54735C14.7394 5.32341 14.8017 5.10291 14.8384 4.87897C14.864 4.7136 14.952 4.63091 15.1353 4.64813C15.6557 4.69981 16.1799 4.75149 16.7003 4.80661C16.7883 4.81695 16.8763 4.84796 16.9386 4.86518C17.0705 4.39663 17.1732 3.93841 17.3271 3.49741C17.4774 3.0702 17.5617 3.04264 18.0198 3.17356C18.3204 3.25625 18.6173 3.35616 18.9068 3.46986C19.1927 3.58355 19.4713 3.72135 19.7755 3.85916C19.8305 3.69379 19.8818 3.53187 19.9331 3.36994C20.0614 2.98752 20.252 2.62232 20.4976 2.29157C20.8641 1.78856 20.9264 1.57151 21.227 1.72999C21.9124 2.09519 22.6088 2.43972 23.0083 2.95995C23.2685 2.72912 23.5324 2.49484 23.8586 2.20544C24.2032 2.55686 24.4634 2.82215 24.7383 3.10466C24.8226 3.01853 24.8996 2.94273 24.9692 2.86694C25.4384 2.34326 26.0651 2.0194 26.6846 1.68865C26.7395 1.65764 26.8898 1.71277 26.9521 1.7679C27.4433 2.2399 27.7035 2.83593 27.9234 3.44919C27.9674 3.57322 28.0077 3.69724 28.0554 3.84194C28.213 3.76959 28.301 3.71103 28.4916 3.70758C28.8984 3.69725 29.2943 3.5801 29.6095 3.33549C30.0456 2.99441 30.3242 2.99785 30.4232 3.31826C30.5588 3.75926 30.6871 4.20025 30.819 4.64469C30.841 4.71704 30.852 4.79283 30.8703 4.88586C31.4971 4.68948 32.1092 4.60335 32.747 4.66536C32.9119 4.68259 32.9925 4.72737 33.0072 4.89274C33.0658 5.54734 33.1318 6.20195 33.1941 6.85655C33.8172 6.88411 34.4916 6.91167 35.199 6.93923V8.00383C35.7562 8.13819 36.2693 8.26566 36.7861 8.3828C37.0354 8.44137 37.1306 8.5654 37.094 8.81002C37.0134 9.35092 36.9584 9.89527 36.8704 10.4327C36.8448 10.5843 36.8961 10.636 37.0134 10.7187C37.4715 11.0391 37.9333 11.3595 38.3659 11.7109C38.7031 11.9865 38.6921 12.0486 38.4721 12.4275C38.0763 13.1097 37.5522 13.6885 36.9217 14.1812C36.8081 14.2708 36.6945 14.3569 36.5479 14.4706C37.2553 14.915 37.7537 15.5076 38.1972 16.176C37.6108 16.7755 36.9547 17.2785 36.1447 17.6058C36.4196 18.0123 36.6835 18.4051 36.962 18.8185C37.0353 18.7944 37.1306 18.7289 37.2186 18.7393C37.3432 18.753 37.4935 18.7909 37.5705 18.8702C37.6181 18.9184 37.5961 19.1045 37.5375 19.163C37.2626 19.418 36.9767 19.666 36.6688 19.8831C36.5185 19.9865 36.4819 20.0554 36.5149 20.2345C36.5992 20.7031 36.6322 21.1785 36.6871 21.654C36.7055 21.8297 36.6395 21.9124 36.4379 21.8951C36.2913 21.8813 36.1447 21.8917 35.9944 21.8917C35.9358 21.3715 35.8808 20.8616 35.8221 20.3172C35.4886 20.393 35.2137 20.4516 34.9131 20.5205C35.155 21.1889 35.1954 21.8676 35.188 22.5566C35.1844 22.8219 35.0818 22.9253 34.8105 22.9459C34.2974 22.9838 33.7842 23.0355 33.2161 23.0906V24.9649C33.546 24.8684 33.9052 24.7616 34.2827 24.6548C34.3267 24.7926 34.3633 24.9028 34.4073 25.0303C35.166 24.7099 35.9101 24.3929 36.6908 24.0622C36.7165 24.2035 36.7421 24.324 36.7714 24.486C37.2553 24.2965 37.7244 24.1208 38.1826 23.9244C38.2999 23.8727 38.3732 23.7383 38.4795 23.6591C38.7654 23.4455 38.901 23.4834 39.0256 23.8004C39.0366 23.8314 39.0513 23.8624 39.0769 23.9209C39.3482 23.8589 39.612 23.79 39.8796 23.7383C41.0781 23.4972 42.2364 23.1458 43.3103 22.5773C43.369 22.5463 43.4936 22.5497 43.5486 22.5876C43.7318 22.7185 43.8968 22.8701 44.0837 23.0321C43.292 23.6005 42.7312 24.3275 42.273 25.1337C42.0861 25.4644 42.0751 25.4575 42.394 25.6642C42.4673 25.7125 42.5406 25.7607 42.5882 25.7917C42.0238 26.4808 41.4667 27.1629 40.8876 27.8692C41.0378 27.9588 41.1734 28.038 41.3237 28.1276C40.686 28.8201 40.0519 29.4919 39.1979 29.9639C39.3481 30.0397 39.4801 30.1017 39.6304 30.1741C38.901 30.9424 38.1056 31.5867 37.0463 31.8795C37.2772 32.2447 37.2736 32.2447 36.9034 32.4997C35.4703 33.4919 33.8795 33.8881 32.1129 33.6125C31.9883 33.5918 31.86 33.578 31.7097 33.5608C31.7573 33.3127 31.805 33.0785 31.8563 32.8235C32.2228 32.8614 32.571 32.8959 32.9156 32.9303C34.0848 33.0474 35.1184 32.6788 36.1044 32.1482C36.1593 32.1172 36.1813 31.9691 36.163 31.8864C36.1007 31.628 36.0091 31.3765 35.9174 31.0733C36.9437 31.3145 37.6841 30.8425 38.4171 30.3774C38.3035 30.057 38.1972 29.7607 38.0799 29.4334C39.0293 29.4161 39.5571 28.8649 40.0775 28.324C40.0665 28.2826 40.0702 28.2585 40.0592 28.2516C39.678 27.8796 39.7147 27.9106 40.0849 27.535C40.565 27.0458 40.9792 26.5014 41.4044 26.0019C41.386 25.9364 41.3897 25.9158 41.3787 25.9054C41.0525 25.5816 41.0562 25.5816 41.3457 25.2164C41.463 25.0717 41.573 24.9201 41.6829 24.7719C41.7086 24.7375 41.7306 24.6996 41.7122 24.6134C41.2321 24.9649 40.7556 25.3197 40.2718 25.6642C39.788 26.0122 39.2968 26.3533 38.7984 26.7047C39.1502 26.7702 39.4911 26.8322 39.8759 26.9045C39.7587 27.1009 39.678 27.2663 39.5644 27.4076C39.5204 27.4627 39.3921 27.4971 39.3115 27.4868C38.901 27.4213 38.4978 27.3318 38.0873 27.2594C37.9993 27.2456 37.8784 27.2491 37.8087 27.2904C37.0793 27.7211 36.3573 28.1586 35.6352 28.5962C35.6132 28.61 35.5985 28.6306 35.5582 28.6754C36.1117 28.7305 36.6395 28.796 37.1673 28.827C37.4239 28.8408 37.5155 28.92 37.4679 29.1578C37.4385 29.299 37.4422 29.4472 37.4275 29.6229C37.0097 29.5608 36.6212 29.5023 36.2327 29.4472C35.7305 29.3748 35.2284 29.3024 34.7226 29.237C34.6529 29.2266 34.5686 29.2267 34.5136 29.2542C33.7916 29.6229 33.0695 29.9949 32.3511 30.3705C32.3291 30.3843 32.3071 30.398 32.2301 30.4463C33.0658 30.5875 33.8392 30.715 34.6089 30.8425V31.5763C34.0921 31.4833 33.6156 31.4041 33.1392 31.311C32.5967 31.2077 32.0579 31.0595 31.5118 31.001C31.2772 30.9769 31.0243 31.1284 30.7787 31.2042C30.7824 31.2456 30.7824 31.2387 30.7824 31.2835C31.7427 31.4592 32.703 31.6383 33.6999 31.8209C33.6596 32.0587 33.6156 32.2929 33.5717 32.5617C33.2125 32.4893 32.8826 32.417 32.5527 32.3515C31.6657 32.1758 30.7824 31.9966 29.8917 31.8278C29.8111 31.8106 29.7011 31.8244 29.6315 31.8657C28.0114 32.7787 26.472 33.7813 25.3687 35.2628C25.0792 35.6521 24.8299 36.0724 24.566 36.4824C24.2911 36.9096 24.1592 37.3678 24.1775 37.8708C24.1995 38.46 24.0712 47.0042 24.0712 47.6175H23.3235C23.3198 47.5279 23.3089 47.4349 23.3125 47.3419C23.3162 46.7768 23.4518 38.2567 23.4225 37.6951C23.4078 37.4195 23.3528 37.1232 23.2282 36.8717C22.1763 34.7701 20.4866 33.2301 18.379 32.0656C18.0821 31.9036 17.8109 31.8278 17.4664 31.9036C16.4768 32.1207 15.4761 32.2964 14.4865 32.51C14.2446 32.5617 14.1383 32.5134 14.1273 32.2826C14.12 32.1207 14.109 31.9622 14.1016 31.8313C15.0693 31.6452 15.9929 31.4695 16.9716 31.2835C16.66 31.0974 16.4401 30.9424 16.0552 31.032C15.1352 31.2456 14.1933 31.3868 13.189 31.5694C13.189 31.3317 13.1743 31.125 13.2 30.9252C13.2073 30.8666 13.3209 30.7839 13.3942 30.7736C14.0833 30.653 14.7724 30.5462 15.4908 30.4325C15.4321 30.3911 15.3955 30.3601 15.3515 30.336C14.6917 29.9846 14.032 29.6332 13.3649 29.2956C13.244 29.237 13.079 29.2129 12.9434 29.2335C12.1664 29.3403 11.393 29.4678 10.616 29.585C10.5536 29.5953 10.4913 29.6022 10.4034 29.6125C10.3777 29.3713 10.352 29.1405 10.3227 28.8718C10.9348 28.7857 11.5249 28.7064 12.1737 28.6134C11.8731 28.4377 11.6202 28.2861 11.3637 28.1379C10.9165 27.8761 10.4657 27.6177 10.0185 27.3524C9.84624 27.2491 9.68863 27.2077 9.47605 27.2629C9.10219 27.3593 8.71734 27.4213 8.33615 27.4833C8.27384 27.4937 8.16754 27.4627 8.13822 27.4179C8.02093 27.2422 7.92563 27.0561 7.79735 26.8287C8.1932 26.7736 8.5524 26.7254 8.98124 26.6634C7.95129 25.9605 6.96166 25.2853 5.97203 24.61C5.93538 24.6341 5.94271 24.6272 5.91339 24.6548ZM24.632 26.6324C24.4048 26.939 24.1848 27.1767 24.1885 27.5764C24.2032 30.1052 24.1885 32.6375 24.1812 35.1663C24.1812 35.3007 24.1812 35.4316 24.1812 35.5659C24.2068 35.5728 24.2325 35.5763 24.2618 35.5832C24.9436 34.3532 25.3174 33.0061 25.9295 31.7451C26.5489 30.4704 27.2784 29.2645 28.1654 28.1069C28.257 28.2103 28.3156 28.2792 28.3706 28.3412C28.8764 27.8382 29.3712 27.3524 29.8367 26.8908C29.2063 26.5945 28.5759 26.2982 27.9344 25.995C27.9234 26.0294 27.9051 26.1018 27.8721 26.1707C27.6046 26.7805 27.337 27.3869 27.0658 27.9967C26.9851 28.1793 26.8752 28.231 26.6589 28.1345C26.0212 27.8554 25.4787 27.4558 24.9912 26.9838C24.8776 26.877 24.764 26.7633 24.632 26.6324ZM23.3272 35.559C23.3492 35.5556 23.3748 35.5487 23.3968 35.5453C23.4041 35.404 23.4188 35.2593 23.4188 35.1181C23.4261 32.6065 23.4188 30.0914 23.4481 27.5798C23.4518 27.1526 23.1916 26.9321 22.9497 26.6427C22.3412 27.3455 21.6082 27.8451 20.7468 28.2206C20.2263 27.5454 19.9661 26.7667 19.6729 26.0363C19.0461 26.3326 18.4413 26.6186 17.8439 26.9011C18.335 27.3834 18.8518 27.8864 19.3796 28.3998C19.4383 28.3274 19.4859 28.2654 19.5409 28.1965C19.5886 28.2448 19.6252 28.2758 19.6509 28.3102C20.5599 29.5195 21.3846 30.7736 21.9234 32.1758C22.3009 33.1577 22.6931 34.1293 23.0853 35.1043C23.1549 35.2593 23.2465 35.404 23.3272 35.559ZM33.2748 28.9924C35.9578 27.5557 38.5418 25.995 40.9902 24.2379C40.5027 24.3275 40.0225 24.4412 39.5424 24.5549C39.3591 24.5997 39.2198 24.6651 39.1245 24.8512C39.0659 24.9683 38.8716 25.0234 38.7397 25.1096C38.6774 24.9993 38.6187 24.8925 38.5564 24.7823C38.5454 24.7616 38.5235 24.7444 38.4941 24.7134C37.7794 24.8684 37.0867 25.0407 36.8191 25.809C36.7971 25.871 36.6615 25.9399 36.5845 25.9364C36.5112 25.933 36.4086 25.8434 36.3829 25.7745C36.2986 25.5402 36.2436 25.2991 36.1813 25.0648C36.1374 25.0682 36.1153 25.0648 36.1007 25.0682C36.042 25.0923 35.9834 25.1165 35.9248 25.1406C35.188 25.4541 34.6676 25.9709 34.2717 26.6255C33.8245 27.3731 33.524 28.169 33.2748 28.9924ZM9.39175 24.7134C9.25247 24.8615 9.1645 25.0338 9.04354 25.0579C8.84928 25.0992 8.71001 24.9545 8.6477 24.765C8.63304 24.7237 8.57439 24.6789 8.53041 24.6686C7.95496 24.5135 7.3795 24.3619 6.80772 24.2138C6.79672 24.2379 6.78573 24.262 6.77473 24.2861C9.29645 25.9468 11.7925 27.6453 14.5525 29.0062C14.2409 28.2344 13.9147 27.4799 13.5115 26.7633C13.167 26.1535 12.6942 25.6229 12.0308 25.2784C11.8658 25.1922 11.6899 25.1268 11.481 25.0372C11.459 25.1922 11.4553 25.2922 11.4296 25.3921C11.3967 25.5333 11.3747 25.6849 11.3014 25.8124C11.2647 25.8813 11.1401 25.9295 11.0521 25.9399C11.0008 25.9468 10.9055 25.8675 10.8872 25.809C10.6379 25.1096 10.0149 24.8891 9.39175 24.7134ZM23.9319 3.36305C23.899 3.35961 23.8696 3.35616 23.8366 3.35272C23.7157 3.59389 23.5691 3.82471 23.4848 4.07622C23.0889 5.25794 23.0413 6.47068 23.1842 7.69031C23.3088 8.74456 23.4958 9.78846 23.668 10.8358C23.6864 10.9564 23.8037 11.0632 23.8733 11.1769C23.9026 11.1666 23.9356 11.1597 23.9649 11.1493C23.9906 11.0529 24.0236 10.9564 24.0419 10.8565C24.1445 10.3363 24.2398 9.81259 24.3461 9.29235C24.6394 7.87635 24.786 6.45345 24.5404 5.01678C24.4414 4.43453 24.2508 3.8764 23.9319 3.36305ZM23.822 26.3912C23.8843 26.2878 23.9246 26.2293 23.9539 26.1673C24.0016 26.0742 24.0492 25.9778 24.0896 25.8813C24.621 24.6789 24.6943 23.4145 24.5697 22.1432C24.4781 21.2267 24.3131 20.3206 24.1775 19.4076C24.1629 19.3077 24.1958 19.163 23.9979 19.1768C23.833 19.1872 23.7157 19.2044 23.6827 19.4111C23.5654 20.1036 23.4188 20.7961 23.2722 21.4851C23.0449 22.567 22.946 23.6522 23.1476 24.7478C23.2575 25.3232 23.4371 25.8744 23.822 26.3912ZM27.436 4.42764C27.4103 4.4173 27.3846 4.40352 27.3627 4.39319C27.2087 4.55167 27.0255 4.68948 26.9082 4.86863C26.5526 5.42332 26.1824 5.978 25.8855 6.5637C25.3907 7.54215 25.2991 8.62052 25.0902 9.66789C24.9765 10.2329 24.8813 10.8014 24.7823 11.3664C24.775 11.4077 24.8006 11.4663 24.8336 11.5008C24.8556 11.5249 24.9326 11.5456 24.9509 11.5318C25.0865 11.425 25.2661 11.3319 25.3394 11.1941C25.651 10.605 25.9405 10.0021 26.2228 9.39916C26.6553 8.47927 27.1354 7.57316 27.3443 6.57403C27.4983 5.86086 27.5533 5.14426 27.436 4.42764ZM20.3986 4.37595C20.373 4.4862 20.3546 4.55167 20.3473 4.62057C20.2263 5.68861 20.4096 6.72563 20.8348 7.70753C21.3333 8.86514 21.883 10.0055 22.4328 11.1425C22.5135 11.3078 22.7261 11.4181 22.891 11.5387C22.924 11.5628 23.0193 11.5111 23.0853 11.4939C22.8287 11.3319 22.8067 11.139 22.8653 10.9116C22.8763 10.8737 22.858 10.8255 22.8544 10.7841C22.7517 10.1054 22.6527 9.42671 22.5391 8.74799C22.3632 7.66963 22.092 6.61882 21.4872 5.66793C21.194 5.20626 20.8861 4.75493 20.3986 4.37595ZM20.2887 25.3576C20.4096 25.2508 20.4756 25.1991 20.5342 25.1371C21.161 24.517 21.6301 23.8038 21.9673 23.0148C22.4658 21.8434 22.6454 20.6032 22.8727 19.3698C22.913 19.1561 22.9203 18.9356 22.9497 18.6876C22.6344 18.7117 22.5208 18.8943 22.4255 19.0631C22.0626 19.697 21.7071 20.3379 21.3626 20.9821C20.8568 21.933 20.3876 22.8977 20.2923 23.9761C20.2557 24.4102 20.2887 24.8512 20.2887 25.3576ZM25.9479 33.4781C25.9992 33.4609 26.0212 33.4609 26.0322 33.4505C26.9741 32.6375 28.0077 31.9381 29.0963 31.3076C29.1476 31.2766 29.1916 31.2077 29.2063 31.1491C29.5252 29.771 30.0346 28.4687 30.8887 27.2973C30.9363 27.2353 30.9803 27.1698 31.0243 27.1078C29.7891 27.8554 28.8068 28.7719 28.5172 30.243C28.3266 30.0397 28.1764 29.8847 28.0114 29.7124C27.1244 30.8632 26.549 32.162 25.9479 33.4781ZM27.2674 25.3576C27.2967 25.337 27.3297 25.3163 27.359 25.2956C27.4653 24.5032 27.3993 23.7211 27.1721 22.9563C26.7725 21.6195 26.0871 20.393 25.464 19.1458C25.3687 18.9529 25.1232 18.8254 24.9472 18.6669C24.9252 18.6876 24.8996 18.7083 24.8776 18.7255C24.8776 18.7944 24.8702 18.8633 24.8776 18.9288C25.0059 19.7625 25.1268 20.5963 25.2661 21.4266C25.4897 22.7668 26.0468 23.9726 26.9741 25.02C27.0694 25.1371 27.1684 25.2474 27.2674 25.3576ZM16.7223 27.1905C16.737 27.2215 16.748 27.2525 16.7663 27.2766C17.6386 28.417 18.1445 29.7055 18.5183 31.0526C18.555 31.187 18.6759 31.3248 18.7969 31.4144C19.7169 32.0966 20.6478 32.7649 21.5788 33.4368C21.5935 33.4471 21.6191 33.4471 21.6741 33.4609C21.1537 32.1517 20.5709 30.9079 19.7535 29.7434C19.5996 29.9054 19.475 30.0397 19.3064 30.2189C18.8812 28.8477 17.9209 27.9278 16.7223 27.1905ZM17.7926 5.94011C17.7669 5.96078 17.7449 5.98145 17.7193 6.00212C17.7963 6.88066 18.0602 7.71442 18.588 8.43792C19.1524 9.21655 19.7828 9.95729 20.4023 10.7049C20.6845 11.046 20.9961 11.3698 21.3186 11.6799C21.4066 11.7626 21.5752 11.7695 21.7108 11.8143C21.7071 11.6937 21.7364 11.5593 21.6924 11.456C21.4359 10.8703 21.1573 10.2915 20.8861 9.71268C20.373 8.61708 19.7682 7.57661 18.8189 6.75319C18.4927 6.47068 18.1371 6.21228 17.7926 5.94011ZM12.6245 17.0063C12.6392 17.0339 12.6539 17.0614 12.6685 17.0924C12.8151 17.1062 12.9581 17.1303 13.1047 17.1372C15.3515 17.2612 17.4114 16.5205 19.4896 15.8797C19.5519 15.859 19.6399 15.7729 19.6362 15.7247C19.6289 15.6695 19.5409 15.611 19.4749 15.5765C19.4126 15.5421 19.3357 15.5283 19.2624 15.5214C18.2214 15.4456 17.1768 15.3767 16.1359 15.5248C15.0766 15.6799 14.065 15.9693 13.1743 16.5584C12.9764 16.6859 12.8078 16.8547 12.6245 17.0063ZM27.9234 15.6971C27.9308 15.7247 27.9344 15.7522 27.9418 15.7798C28.0261 15.8142 28.1067 15.8521 28.191 15.8797C28.8471 16.0864 29.5032 16.2931 30.1629 16.4895C31.6327 16.9236 33.1281 17.2234 34.6822 17.1441C34.8215 17.1372 34.9608 17.1131 35.1001 17.0959C35.1147 17.0649 35.1294 17.0373 35.1477 17.0063C35.0524 16.9408 34.9535 16.8754 34.8618 16.8065C34.1654 16.2793 33.3664 15.9521 32.5124 15.7316C31.2002 15.3905 29.855 15.4628 28.5172 15.4904C28.3156 15.4904 28.1214 15.6247 27.9234 15.6971ZM30.086 5.98834C29.9797 6.02624 29.9357 6.04002 29.899 6.06069C29.7964 6.11926 29.6938 6.17783 29.5985 6.24674C28.6931 6.89789 27.9931 7.71442 27.4836 8.65843C26.9778 9.59209 26.5306 10.5568 26.0615 11.5111C26.0175 11.5972 26.0102 11.7006 25.9845 11.7936C26.0102 11.8177 26.0358 11.8418 26.0578 11.866C26.2301 11.7729 26.4207 11.6937 26.5746 11.58C26.7102 11.4801 26.8092 11.3354 26.9191 11.2079C27.6669 10.3156 28.4476 9.44394 29.1476 8.51717C29.6974 7.78333 29.9467 6.92546 30.086 5.98834ZM34.7922 12.8582C34.7849 12.8238 34.7812 12.7859 34.7739 12.7514C34.2717 12.779 33.7622 12.779 33.2638 12.8375C32.0176 12.9857 30.8483 13.4025 29.6754 13.7988C29.144 13.9779 28.6199 14.1708 28.103 14.3741C28.0224 14.4051 27.9784 14.5223 27.9161 14.6015C28.0041 14.636 28.092 14.698 28.18 14.698C28.7261 14.7014 29.2723 14.7049 29.8147 14.6773C30.7311 14.6325 31.6437 14.5602 32.516 14.2708C33.3957 13.9779 34.1764 13.53 34.7922 12.8582ZM15.5898 7.8419C15.6484 8.01072 15.6741 8.0934 15.707 8.17264C16.0846 9.16143 16.7187 9.99863 17.5873 10.6429C18.4817 11.3113 19.442 11.9039 20.3766 12.524C20.4573 12.5791 20.5525 12.6239 20.6478 12.6515C20.7102 12.6687 20.8091 12.6687 20.8421 12.6343C20.8751 12.5998 20.8714 12.5033 20.8458 12.4482C20.7908 12.3311 20.7285 12.2105 20.6405 12.1106C19.9881 11.3802 19.3357 10.6463 18.6686 9.92628C17.9722 9.17521 17.1915 8.51717 16.2238 8.07617C16.0406 8.00038 15.8537 7.94181 15.5898 7.8419ZM32.1605 7.89358C32.1385 7.8729 32.1202 7.85223 32.0982 7.82811C31.7537 8.00038 31.3908 8.15197 31.0609 8.35179C29.3932 9.35781 28.268 10.8668 27.0218 12.2622C26.9411 12.3517 26.9485 12.5033 26.9118 12.6274C26.9375 12.6411 26.9631 12.6584 26.9888 12.6722C27.1317 12.6033 27.2857 12.5481 27.4213 12.462C28.2386 11.9383 29.0597 11.4181 29.8624 10.8772C30.5881 10.3845 31.2112 9.79191 31.6584 9.05118C31.8819 8.68943 32.0689 8.30701 32.1605 7.89358ZM30.0933 30.6874C30.119 30.7012 30.1446 30.715 30.1703 30.7288C30.2032 30.715 30.2399 30.7081 30.2692 30.6909C30.9216 30.3119 31.5814 29.9398 32.2265 29.5505C32.3181 29.4954 32.3878 29.3645 32.4098 29.2577C32.681 28.038 33.1611 26.8977 33.8942 25.8537C33.9492 25.7745 33.9968 25.6884 34.0884 25.5437C33.4617 25.7159 32.9742 25.9468 32.5784 26.3292C31.794 27.094 31.1929 27.9795 30.7567 28.9579C30.5075 29.5264 30.3132 30.1121 30.0933 30.6874ZM30.086 23.8658C30.0676 23.7349 30.0713 23.6557 30.0456 23.5868C29.8147 22.9838 29.6498 22.3499 29.3309 21.7883C28.6675 20.6238 27.6669 19.6867 26.7579 18.691C26.6003 18.5188 26.34 18.4258 26.1238 18.2948C26.1018 18.3086 26.0835 18.3224 26.0615 18.3396C26.0981 18.4671 26.1165 18.6049 26.1714 18.7255C26.6149 19.6419 27.0364 20.5721 27.5239 21.4679C28.0371 22.405 28.8214 23.1285 29.7524 23.7142C29.8404 23.7659 29.9393 23.8004 30.086 23.8658ZM13.0974 12.7204C13.0864 12.7548 13.0754 12.7893 13.0644 12.8237C13.123 12.8892 13.178 12.9547 13.2403 13.0167C13.7351 13.5162 14.3362 13.8642 15.007 14.1123C16.4071 14.6291 17.8805 14.7221 19.3613 14.7462C19.5299 14.7496 19.6985 14.6635 19.8635 14.6187C19.7205 14.5085 19.5996 14.3569 19.4383 14.2983C18.511 13.9572 17.58 13.6162 16.6344 13.3199C15.9966 13.12 15.3405 12.9581 14.6808 12.8444C14.164 12.748 13.6288 12.7583 13.0974 12.7204ZM17.6093 23.9037C17.701 23.8589 17.7413 23.8451 17.7779 23.821C18.544 23.3387 19.2367 22.7771 19.7682 22.064C20.5855 20.9718 21.1317 19.7418 21.7108 18.5291C21.7218 18.5015 21.7108 18.4636 21.7071 18.4154C21.4396 18.3947 21.2306 18.4705 21.0657 18.6531C20.362 19.4249 19.6436 20.1828 18.9582 20.9683C18.2288 21.809 17.8073 22.784 17.6093 23.9037ZM17.58 30.777C17.5983 30.7563 17.613 30.7357 17.6313 30.7185C17.1622 29.3128 16.5611 27.9691 15.5678 26.8046C15.1682 26.3361 14.6954 25.9571 14.0906 25.74C13.9587 25.6918 13.8194 25.6642 13.6288 25.6126C13.6765 25.709 13.6838 25.7538 13.7095 25.7848C14.5818 26.8529 15.0839 28.0759 15.3882 29.3782C15.4028 29.4403 15.4395 29.5195 15.4945 29.5505C16.1872 29.9639 16.8836 30.3705 17.58 30.777ZM33.7549 19.7694C33.2198 19.0321 32.6626 18.4223 31.9076 18.0089C30.7494 17.3749 29.4519 17.0614 28.1837 16.6997C28.0664 16.6652 27.9271 16.6755 27.7988 16.6928C27.7072 16.7066 27.6229 16.7617 27.5349 16.7996C27.5936 16.8685 27.6376 16.9581 27.7145 17.0063C28.3633 17.4059 29.012 17.809 29.6718 18.1915C30.3315 18.5739 30.9876 18.9632 31.6767 19.2974C32.2925 19.5971 32.9742 19.7281 33.7549 19.7694ZM20.197 16.7893C20.186 16.7686 20.175 16.7479 20.164 16.7238C19.9111 16.7238 19.6399 16.6687 19.4053 16.7341C18.6246 16.9477 17.8586 17.2061 17.0852 17.4439C15.883 17.8125 14.919 18.4809 14.2153 19.4731C14.1566 19.5558 14.109 19.6419 14.0283 19.7694C14.8127 19.6798 15.5421 19.5903 16.1689 19.2423C17.4187 18.5463 18.6356 17.8056 19.8635 17.0752C19.9844 17.0029 20.0834 16.8857 20.197 16.7893ZM32.2411 22.0984C32.1202 21.8262 32.0432 21.6126 31.9369 21.4162C31.4898 20.5653 30.8447 19.8659 30.0163 19.3284C29.199 18.8013 28.3706 18.2983 27.5386 17.7918C27.381 17.6953 27.2124 17.5748 26.9631 17.6712C27.0584 17.809 27.1244 17.9331 27.216 18.0364C27.9711 18.8599 28.7078 19.6971 29.4922 20.4964C30.2252 21.2405 31.1086 21.7814 32.2411 22.0984ZM27.4836 13.3784C27.4946 13.4094 27.5019 13.4404 27.5129 13.4749C27.7438 13.4749 27.9931 13.53 28.1983 13.4646C29.0487 13.1993 29.8917 12.9099 30.7237 12.6067C31.8123 12.207 32.7433 11.5972 33.4507 10.7084C33.5203 10.6222 33.5827 10.5326 33.6706 10.4086C32.7066 10.3879 31.8673 10.6016 31.1122 11.0598C29.954 11.7592 28.8178 12.4896 27.6705 13.2096C27.6045 13.251 27.5459 13.3199 27.4836 13.3784ZM14.1786 10.3983C14.4572 10.8703 14.7651 11.2424 15.1609 11.549C16.5061 12.5895 18.1261 13.0753 19.7498 13.5473C19.8635 13.5783 20.0174 13.4818 20.1494 13.4473C20.0797 13.3474 20.0321 13.2165 19.9368 13.1545C19.1671 12.6446 18.3937 12.1381 17.6057 11.6524C17.1218 11.3526 16.6234 11.0632 16.1065 10.8186C15.5274 10.543 14.9043 10.3914 14.1786 10.3983ZM15.6191 22.0571C16.4951 21.7883 17.2428 21.4162 17.8256 20.8409C18.7566 19.9244 19.6326 18.9632 20.5306 18.0192C20.5599 17.9882 20.5965 17.9503 20.6039 17.9124C20.6185 17.8401 20.6405 17.7436 20.6039 17.7022C20.5709 17.6643 20.4536 17.6575 20.3876 17.6781C20.285 17.7091 20.1897 17.7677 20.0981 17.8263C19.2477 18.3603 18.3717 18.8702 17.5543 19.449C17.0962 19.7728 16.693 20.1828 16.3301 20.6066C15.9893 21.0063 15.7657 21.4886 15.6191 22.0571ZM32.6627 14.9874C32.725 15.0115 32.7653 15.0322 32.8056 15.0459C33.9822 15.3974 35.0818 15.8625 35.8698 16.8099C35.9064 16.8513 36.0604 16.8616 36.119 16.8237C36.4159 16.648 36.6945 16.4516 36.9877 16.2656C37.2003 16.1278 37.1893 15.9934 37.028 15.8211C36.3206 15.0666 35.4519 14.5774 34.3963 14.3948C34.301 14.3776 34.1874 14.381 34.1031 14.4155C33.6303 14.5912 33.1685 14.7841 32.6627 14.9874ZM15.0583 14.977C15.0583 14.9529 15.0546 14.9288 15.0546 14.9047C14.7504 14.7841 14.4352 14.6807 14.1456 14.536C13.8634 14.3948 13.5922 14.3569 13.2733 14.4223C12.236 14.6291 11.4003 15.1286 10.7332 15.8935C10.6453 15.9968 10.5793 16.0968 10.7259 16.2036C11.0595 16.4413 11.3967 16.679 11.7522 16.9305C12.5769 15.8005 13.7828 15.3388 15.0583 14.977ZM32.9925 17.8745C33.6083 18.3947 34.1178 18.9977 34.532 19.6729C34.5649 19.7281 34.6932 19.7797 34.7555 19.7625C35.21 19.6281 35.6572 19.48 36.1044 19.325C36.2583 19.2733 36.2876 19.1665 36.1997 19.0356C36.0127 18.7496 35.8258 18.4568 35.6352 18.1708C35.4556 17.8986 35.2357 17.7298 34.8618 17.8538C34.7446 17.8917 34.6053 17.8745 34.477 17.8745C33.9895 17.8745 33.502 17.8745 32.9925 17.8745ZM11.4187 19.1803C11.9391 19.5282 12.4266 19.7143 12.9727 19.7487C13.0607 19.7556 13.189 19.6764 13.2476 19.6006C13.5152 19.2698 13.7534 18.9184 14.0247 18.5911C14.2373 18.3327 14.4755 18.0985 14.7174 17.8332C14.6588 17.8228 14.6331 17.8125 14.6111 17.8125C13.9587 17.8125 13.3063 17.8125 12.6539 17.8228C12.5732 17.8228 12.4633 17.8573 12.4193 17.9124C12.0857 18.3224 11.7632 18.7393 11.4187 19.1803ZM13.3173 7.61106C13.3063 8.27255 13.4346 8.89959 13.6508 9.51284C13.6728 9.58175 13.8084 9.64377 13.9001 9.6541C14.2006 9.692 14.5085 9.68856 14.809 9.72646C15.1426 9.7678 15.4725 9.83326 15.8097 9.89183C15.806 9.84359 15.8133 9.82292 15.8023 9.80914C15.3149 9.19589 14.974 8.51717 14.8017 7.7661C14.787 7.70409 14.6844 7.61795 14.6184 7.61795C14.1969 7.60761 13.7754 7.61106 13.3173 7.61106ZM32.0396 9.82293C32.681 9.77125 33.3041 9.7299 33.9272 9.66789C34.0041 9.661 34.1141 9.55075 34.1288 9.47495C34.2497 8.92371 34.3524 8.36902 34.4623 7.81778C34.4953 7.64896 34.4183 7.56972 34.2387 7.58006C33.8795 7.60073 33.5203 7.60762 33.1611 7.64207C33.0842 7.64896 32.9705 7.74887 32.9522 7.82122C32.7909 8.54817 32.4941 9.22345 32.0396 9.82293ZM17.2941 7.73853C17.1841 7.10461 17.0669 6.41555 16.9386 5.7265C16.9276 5.66104 16.8506 5.56457 16.792 5.55424C16.4034 5.48533 16.0113 5.42677 15.6191 5.38542C15.5604 5.37853 15.4358 5.48189 15.4321 5.53702C15.4102 5.99524 15.4028 6.45345 15.4065 6.91167C15.4065 6.97713 15.4798 7.07704 15.5421 7.10116C16.1505 7.33199 16.759 7.54905 17.2941 7.73853ZM30.4525 7.77299C31.0279 7.5456 31.6254 7.31477 32.2155 7.07705C32.2705 7.05293 32.3438 6.98746 32.3474 6.93923C32.3694 6.4879 32.3841 6.03657 32.3914 5.58524C32.3951 5.43021 32.2961 5.36819 32.1385 5.38886C31.8636 5.42331 31.5887 5.45088 31.3175 5.50256C30.83 5.59903 30.83 5.60591 30.7934 6.07791C30.7897 6.12959 30.786 6.18128 30.775 6.23296C30.6687 6.75664 30.5551 7.28376 30.4525 7.77299ZM25.3577 24.1587C25.2404 24.6789 25.1268 25.1681 25.0242 25.6608C25.0059 25.7469 25.0022 25.8606 25.0462 25.9295C25.4274 26.5118 25.9588 26.939 26.6406 27.287C26.7799 26.9011 26.9191 26.5462 27.0328 26.181C27.0511 26.119 26.9741 26.0157 26.9155 25.9536C26.6223 25.6539 26.3034 25.3748 26.0285 25.0648C25.7829 24.7892 25.5886 24.4756 25.3577 24.1587ZM17.2758 22.2121C16.6783 22.4085 16.0516 22.6083 15.4285 22.8219C15.3625 22.846 15.2782 22.9356 15.2782 22.9976C15.2635 23.4317 15.2672 23.8658 15.2709 24.2999C15.2709 24.4446 15.3442 24.5032 15.5018 24.4756C15.7913 24.4274 16.0846 24.3723 16.3778 24.3482C16.7077 24.324 16.825 24.1931 16.8763 23.8727C16.9606 23.3077 17.1402 22.7496 17.2758 22.2121ZM34.9095 13.7126C35.6682 14.0571 35.7342 14.0537 36.3646 13.6127C36.8887 13.2441 37.3212 12.7962 37.6474 12.2622C37.6841 12.2002 37.7244 12.0761 37.6951 12.0555C37.3652 11.8039 37.0207 11.5662 36.6688 11.3147C36.196 12.2381 35.7232 13.0684 34.9095 13.7126ZM30.4781 22.2362C30.5991 22.8357 30.7274 23.48 30.8667 24.1208C30.8777 24.1759 30.9693 24.2448 31.0353 24.2551C31.4421 24.3309 31.849 24.3964 32.2558 24.4619C32.4024 24.486 32.4831 24.4274 32.4794 24.2793C32.4721 23.8727 32.483 23.4627 32.4611 23.0562C32.4574 22.9735 32.3511 22.8564 32.2631 22.8254C31.662 22.6152 31.0499 22.4223 30.4781 22.2362ZM25.409 5.6197C25.42 5.61281 25.4494 5.60247 25.4604 5.58524C25.8855 4.85485 26.3767 4.17613 27.0878 3.65934C27.1281 3.63178 27.1574 3.5422 27.1427 3.5043C26.9998 3.18045 26.8422 2.86349 26.6846 2.5293C26.0065 2.84971 25.5044 3.26314 25.1012 3.78338C25.0645 3.82817 25.0315 3.90051 25.0425 3.94874C25.1598 4.50343 25.2881 5.06157 25.409 5.6197ZM28.0957 23.3731C28.114 23.8865 28.1287 24.3964 28.1543 24.9063C28.158 25.0028 28.1837 25.1233 28.2496 25.1819C28.6748 25.5816 29.1843 25.8503 29.7708 25.995C29.9174 26.0329 30.0017 25.9984 30.0237 25.8503C30.0713 25.5333 30.1336 25.2164 30.1666 24.8994C30.1739 24.8202 30.1043 24.6927 30.031 24.6582C29.3089 24.3103 28.6455 23.8934 28.0957 23.3731ZM22.2606 24.1793C22.2019 24.2551 22.1579 24.324 22.103 24.3895C21.7657 24.7995 21.4286 25.2129 21.0877 25.6195C20.9154 25.8227 20.6149 26.0019 20.5855 26.2155C20.5526 26.4463 20.7688 26.7082 20.8751 26.9597C20.8861 26.9838 20.9007 27.0045 20.9117 27.0286C20.996 27.2284 21.1133 27.2284 21.2966 27.1216C21.8244 26.8115 22.2129 26.3774 22.5795 25.9123C22.6088 25.8744 22.6308 25.8124 22.6198 25.7676C22.5061 25.2508 22.3852 24.7306 22.2606 24.1793ZM13.255 22.2397C13.7571 22.2397 14.142 22.2397 14.5305 22.2397C14.7137 22.2397 14.7981 22.1639 14.8457 21.9882C14.919 21.7125 15.0253 21.4404 15.1499 21.1785C15.2965 20.8719 15.4798 20.5825 15.6484 20.2793C15.6154 20.2724 15.5898 20.2621 15.5641 20.2655C14.9703 20.3379 14.3765 20.4102 13.7828 20.4895C13.7241 20.4964 13.6325 20.5515 13.6215 20.5963C13.4932 21.1268 13.3832 21.6574 13.255 22.2397ZM21.2086 2.54997C21.029 2.86004 20.8494 3.14944 20.6955 3.45262C20.6662 3.51119 20.6992 3.649 20.7541 3.6869C21.4029 4.17268 21.8684 4.78939 22.2679 5.46466C22.2936 5.50945 22.3412 5.54045 22.3815 5.5818C22.4951 5.02022 22.6051 4.48621 22.7077 3.95219C22.7224 3.87984 22.7187 3.78682 22.6784 3.72825C22.3155 3.22524 21.8317 2.8497 21.2086 2.54997ZM32.2192 20.3138C32.4721 20.9029 32.7433 21.5334 33.0182 22.1604C33.0402 22.2121 33.1245 22.2707 33.1795 22.2741C33.59 22.2844 33.9968 22.281 34.499 22.281C34.3743 21.6884 34.2754 21.1716 34.1508 20.6617C34.1361 20.5928 34.0005 20.517 33.9125 20.5067C33.3297 20.4274 32.747 20.3723 32.2192 20.3138ZM19.5336 23.4317C19.5299 23.4317 19.4969 23.4455 19.4749 23.4662C18.9142 23.9347 18.3387 24.3792 17.6533 24.6858C17.591 24.7134 17.5324 24.8374 17.5397 24.9097C17.5653 25.2129 17.6167 25.5127 17.6533 25.8124C17.6753 25.9812 17.7449 26.0294 17.9282 25.9812C18.489 25.8296 18.9765 25.5574 19.4236 25.2129C19.4749 25.175 19.5263 25.1027 19.5299 25.0441C19.5373 24.5135 19.5336 23.9761 19.5336 23.4317ZM11.1804 11.3836C10.9128 11.5731 10.6673 11.7419 10.4254 11.9108C10.2348 12.0451 10.2274 12.1898 10.3447 12.3828C10.7259 13.0201 11.2794 13.499 11.9208 13.8952C11.9794 13.9297 12.0637 13.9607 12.1261 13.9469C12.3973 13.878 12.6612 13.7919 12.9727 13.6988C12.159 13.0684 11.6569 12.2587 11.1804 11.3836ZM19.5959 6.42934C19.5959 5.89188 19.6032 5.33718 19.5886 4.78594C19.5886 4.7067 19.5153 4.59645 19.442 4.562C19.0131 4.35184 18.5733 4.15891 18.1335 3.96253C17.9978 3.90051 17.9172 3.95908 17.8879 4.07966C17.8292 4.32428 17.7926 4.57234 17.7339 4.81696C17.6826 5.02712 17.7156 5.17871 17.9612 5.26829C18.1225 5.32685 18.2691 5.42677 18.4047 5.52668C18.8152 5.83331 19.2184 6.14338 19.5959 6.42934ZM33.0988 12.1312C33.8135 12.1312 34.4477 12.1381 35.0854 12.1244C35.199 12.1209 35.3567 12.052 35.4116 11.9659C35.6022 11.6799 35.7525 11.3733 35.9248 11.0735C36.0127 10.922 35.9797 10.8324 35.7965 10.7876C35.43 10.698 35.0671 10.605 34.7006 10.512C34.5356 10.4706 34.4476 10.5258 34.345 10.6636C34.0042 11.1011 33.634 11.5214 33.2711 11.9452C33.2344 11.9934 33.1904 12.0348 33.0988 12.1312ZM28.18 6.41555C28.6308 6.08481 29.0267 5.78851 29.4262 5.49911C29.6461 5.34063 29.9943 5.23727 30.075 5.034C30.1666 4.80661 30.02 4.49655 29.976 4.22437C29.9687 4.18303 29.9467 4.14168 29.943 4.10034C29.921 3.94185 29.8257 3.88329 29.6718 3.95219C29.2319 4.14857 28.7884 4.3415 28.3669 4.562C28.279 4.60679 28.2313 4.77216 28.224 4.88241C28.2057 5.17525 28.224 5.47156 28.2203 5.7644C28.213 5.96768 28.1947 6.17094 28.18 6.41555ZM14.5891 12.1312C14.1603 11.5835 13.7644 11.0736 13.3576 10.574C13.3173 10.5258 13.2036 10.4913 13.145 10.5085C12.7748 10.6119 12.4083 10.729 12.0417 10.8496C11.9061 10.8944 11.8622 10.9943 11.9355 11.1218C12.1004 11.4112 12.2507 11.7109 12.4339 11.99C12.4816 12.0658 12.6245 12.1244 12.7235 12.1278C13.3393 12.1381 13.955 12.1312 14.5891 12.1312ZM36.207 10.1571C36.2473 9.78503 36.2913 9.43705 36.3169 9.08219C36.3206 9.03395 36.2363 8.94438 36.1777 8.93404C35.8918 8.87203 35.5985 8.8238 35.3053 8.7859C35.2503 8.77901 35.1477 8.82035 35.1331 8.86169C35.0341 9.17521 34.9498 9.48873 34.8618 9.80569C35.309 9.92283 35.7342 10.0331 36.207 10.1571ZM12.6355 8.72389C12.302 8.79279 12.0051 8.84447 11.7119 8.92371C11.6349 8.94438 11.5213 9.04429 11.5286 9.09942C11.5579 9.44739 11.6166 9.79536 11.6642 10.1606C12.126 10.0296 12.5256 9.91938 12.9397 9.80225C12.8371 9.43705 12.7418 9.09942 12.6355 8.72389ZM16.9276 26.3912C16.9496 26.3774 16.9716 26.3602 16.9936 26.3464C16.9239 25.9054 16.8543 25.4679 16.7846 25.0131C16.2422 25.0992 15.7254 25.1819 15.2085 25.2646C15.2049 25.2922 15.2012 25.3163 15.1976 25.3438C15.773 25.6953 16.3521 26.0432 16.9276 26.3912ZM30.9363 24.9993C30.8703 25.4644 30.808 25.9089 30.7457 26.3533C30.7714 26.3636 30.7934 26.374 30.819 26.3843C31.3725 26.0432 31.9296 25.7056 32.483 25.3645C32.4684 25.3369 32.4574 25.3094 32.4427 25.2818C31.9516 25.1888 31.4568 25.0958 30.9363 24.9993ZM26.472 17.6747C26.494 17.654 26.5123 17.6299 26.5343 17.6092C26.4573 17.4645 26.3803 17.3198 26.2997 17.1786C26.2631 17.1097 26.2191 17.0476 26.1788 16.9856C25.8746 17.0855 25.7903 17.2509 25.9735 17.3922C26.1201 17.5093 26.3034 17.5817 26.472 17.6747ZM20.5599 16.6135C20.5965 16.586 20.6369 16.5619 20.6735 16.5343C20.8641 16.4585 21.062 16.3896 21.2453 16.3C21.2819 16.2828 21.3076 16.1691 21.2856 16.1312C21.2636 16.0933 21.161 16.0623 21.1097 16.0761C20.9264 16.1278 20.7468 16.1967 20.5745 16.2725C20.5342 16.2897 20.5049 16.362 20.5049 16.4103C20.5049 16.4757 20.5379 16.5446 20.5599 16.6135ZM21.1207 17.6023C21.1536 17.6368 21.1903 17.6712 21.2233 17.7022C21.4029 17.5817 21.5935 17.4749 21.7511 17.3336C21.7987 17.2888 21.7511 17.1441 21.7254 17.0511C21.7218 17.0339 21.5825 17.0166 21.5605 17.0408C21.4066 17.2199 21.2636 17.4128 21.1207 17.6023ZM22.1543 13.468C21.8501 13.3199 21.6191 13.1752 21.3039 13.251C21.4615 13.4267 21.6301 13.5783 21.8317 13.6851C21.872 13.7057 22.0113 13.5645 22.1543 13.468ZM23.8586 11.6627C23.8257 11.6627 23.7927 11.6592 23.756 11.6592C23.7157 11.8522 23.6607 12.0451 23.6497 12.2415C23.6461 12.307 23.7707 12.3759 23.8366 12.4413C23.899 12.3586 24.0236 12.2691 24.0162 12.1898C23.9979 12.0107 23.9173 11.8384 23.8586 11.6627ZM26.461 13.3233C26.4317 13.282 26.406 13.2372 26.3767 13.1958C26.1861 13.2682 25.9845 13.3302 25.8049 13.4232C25.7609 13.4473 25.7499 13.5817 25.7792 13.6472C25.7976 13.6851 25.9442 13.7195 25.9845 13.692C26.1531 13.5817 26.3034 13.4473 26.461 13.3233ZM24.8043 17.778C24.8336 17.4817 24.7713 17.2716 24.544 17.1097C24.3315 17.2888 24.3791 17.4921 24.4598 17.6575C24.4891 17.7264 24.6723 17.7367 24.8043 17.778ZM23.5361 15.4766C23.2649 15.2699 23.0486 15.2975 22.9276 15.5179C22.902 15.5696 22.902 15.6626 22.935 15.704C22.968 15.7419 23.0779 15.7729 23.1182 15.7488C23.2612 15.6799 23.3822 15.5834 23.5361 15.4766ZM22.891 14.6497C22.9093 14.6118 22.924 14.5774 22.9423 14.5395C22.8177 14.4327 22.7004 14.3087 22.5575 14.2329C22.5025 14.2053 22.3778 14.288 22.2862 14.319C22.3265 14.3982 22.3449 14.5188 22.4108 14.5429C22.5575 14.6084 22.7261 14.6187 22.891 14.6497ZM22.4072 12.1381C22.3742 12.1588 22.3412 12.1795 22.3082 12.2002C22.3925 12.4172 22.4732 12.6343 22.5685 12.8823C22.6931 12.7927 22.7884 12.7238 22.913 12.6377C22.7261 12.4551 22.5648 12.2966 22.4072 12.1381ZM25.7903 15.0976C25.673 15.2492 25.552 15.3353 25.5557 15.418C25.5593 15.5042 25.6839 15.5834 25.7536 15.6661C25.8452 15.5869 25.9808 15.5179 26.0138 15.418C26.0358 15.3629 25.9039 15.2527 25.7903 15.0976ZM22.8324 17.4921C22.935 17.6058 23.0046 17.685 23.0743 17.7608C23.1549 17.6471 23.2685 17.5438 23.3015 17.4197C23.3162 17.3577 23.1769 17.2612 23.1073 17.1786C23.023 17.275 22.9423 17.368 22.8324 17.4921ZM23.8 14.7497C23.8366 14.7497 23.8733 14.7531 23.91 14.7531C23.9686 14.605 24.0529 14.4637 24.0749 14.3121C24.0822 14.257 23.9503 14.1812 23.8843 14.1157C23.822 14.1743 23.7047 14.2363 23.7047 14.2949C23.7084 14.4499 23.7633 14.5981 23.8 14.7497ZM22.3119 15.4422C22.1469 15.3388 22.0443 15.2217 21.96 15.232C21.8684 15.2458 21.7951 15.3732 21.7108 15.4525C21.7951 15.5283 21.8721 15.6592 21.96 15.6626C22.048 15.6695 22.1469 15.5524 22.3119 15.4422ZM22.946 13.3784C23.0743 13.4956 23.1622 13.6299 23.2172 13.6162C23.3162 13.5955 23.4555 13.4921 23.4628 13.4129C23.4701 13.3199 23.3528 13.22 23.2905 13.1235C23.1952 13.1958 23.0963 13.2682 22.946 13.3784ZM27.1647 16.4068C26.9961 16.269 26.8825 16.1381 26.7359 16.0726C26.6552 16.0382 26.5196 16.1174 26.3877 16.1519C26.6406 16.4413 26.7799 16.493 27.1647 16.4068ZM24.8483 14.6256C25.1232 14.6187 25.3284 14.5705 25.442 14.3638C25.5154 14.2294 25.442 14.1467 25.2991 14.1812C25.0792 14.2329 24.9106 14.3569 24.8483 14.6256ZM24.5184 15.1803C24.4048 15.3181 24.2948 15.4318 24.3095 15.4456C24.4048 15.5524 24.5221 15.6489 24.643 15.7281C24.6577 15.7384 24.8116 15.611 24.8043 15.5972C24.7383 15.4732 24.6467 15.3595 24.5184 15.1803ZM25.563 16.5929C25.5667 16.5584 25.5703 16.524 25.574 16.493C25.464 16.4206 25.3614 16.331 25.2441 16.2828C25.2185 16.2725 25.0645 16.4309 25.0792 16.4585C25.1305 16.5584 25.2185 16.6618 25.3211 16.71C25.3687 16.7341 25.4823 16.6377 25.563 16.5929ZM24.5477 13.089C24.5111 13.089 24.4781 13.0856 24.4414 13.0856C24.3901 13.1821 24.2948 13.2785 24.2948 13.375C24.2948 13.4577 24.4011 13.5404 24.4598 13.6231C24.5367 13.5438 24.6687 13.4715 24.6833 13.3819C24.698 13.2923 24.5954 13.1855 24.5477 13.089ZM26.494 14.319C26.3657 14.4189 26.2704 14.4913 26.1751 14.5636C26.2557 14.6222 26.34 14.7324 26.4133 14.7255C26.5306 14.7152 26.6406 14.6256 26.7579 14.5705C26.6846 14.5016 26.6076 14.4292 26.494 14.319ZM23.5801 16.5446C23.69 16.6618 23.7487 16.7238 23.8073 16.7858C23.9063 16.6859 24.0089 16.5929 24.0896 16.4826C24.0969 16.4688 23.9429 16.3069 23.9063 16.3172C23.7963 16.3517 23.712 16.4447 23.5801 16.5446ZM25.431 12.2553C25.4054 12.2415 25.3834 12.2243 25.3577 12.2105C25.2331 12.3311 25.0902 12.4413 24.9985 12.5826C24.9656 12.6377 25.0572 12.7652 25.0938 12.8582C25.1525 12.81 25.2368 12.7721 25.2661 12.7135C25.3357 12.5654 25.3797 12.4069 25.431 12.2553ZM21.007 14.474C21.062 14.7049 21.205 14.7875 21.4139 14.7117C21.4689 14.6945 21.5239 14.5671 21.5055 14.5119C21.4579 14.3569 21.2233 14.3397 21.007 14.474ZM22.5281 16.238C22.4915 16.2346 22.4585 16.2311 22.4219 16.2277C22.3559 16.3241 22.2606 16.4137 22.2313 16.5171C22.2166 16.5688 22.3229 16.6514 22.3742 16.7203C22.4658 16.6273 22.5758 16.5446 22.6418 16.4378C22.6674 16.4068 22.5721 16.3104 22.5281 16.238ZM24.0749 18.3362C23.9979 18.2087 23.9393 18.1157 23.8843 18.0261C23.8257 18.1467 23.745 18.2638 23.7194 18.3913C23.7084 18.4533 23.8 18.5326 23.8476 18.6049C23.9209 18.5222 23.9869 18.4395 24.0749 18.3362ZM26.9485 15.1872C27.1427 15.4766 27.4616 15.4869 27.7365 15.2423C27.4433 15.2217 27.1977 15.2044 26.9485 15.1872ZM20.8604 15.3595C20.6332 15.139 20.4169 15.1562 20.1714 15.2251C20.34 15.4663 20.5489 15.4835 20.8604 15.3595ZM20.2007 13.8057C20.3766 13.9745 20.5232 14.0847 20.7798 14.0055C20.6075 13.8573 20.5086 13.6403 20.2007 13.8057ZM22.4988 17.8917C22.3412 17.9641 22.2129 18.064 22.2606 18.2604C22.2679 18.2914 22.3449 18.3052 22.3852 18.3258C22.4365 18.1915 22.4842 18.0537 22.5355 17.9193C22.5355 17.9159 22.5208 17.909 22.4988 17.8917ZM25.486 18.2569C25.5117 18.0502 25.4494 17.9193 25.2698 17.8642C25.2404 17.8538 25.1525 17.9193 25.1488 17.9572C25.1232 18.1605 25.2771 18.2121 25.486 18.2569ZM26.9741 13.8608C27.2234 14.1157 27.3553 14.0916 27.5056 13.7815C27.326 13.8091 27.1794 13.8332 26.9741 13.8608Z" fill="#FFEB61"/>
<path d="M41.6938 22.0741C41.5326 21.9638 41.4263 21.9225 41.375 21.8501C41.3127 21.7571 41.2907 21.6399 41.2577 21.5297C40.9644 20.5891 40.3524 19.9277 39.3444 19.6176C39.1355 19.5521 38.9339 19.4901 38.9302 19.2317C38.9266 18.9664 39.1501 18.9526 39.3407 18.8906C40.3633 18.5461 41.0707 17.9225 41.3456 16.9096C41.3969 16.727 41.4776 16.5513 41.7158 16.5547C41.9541 16.5582 42.0274 16.7236 42.0714 16.9165C42.3133 17.9328 43.0024 18.5599 44.036 18.87C44.2522 18.9354 44.4062 19.0319 44.4135 19.2558C44.4208 19.4867 44.2192 19.5177 44.0433 19.5659C42.94 19.876 42.3059 20.5926 41.9871 21.6055C41.9357 21.7571 41.8111 21.888 41.6938 22.0741ZM41.6352 20.3997C42.0604 20.0034 42.5149 19.5831 42.984 19.149C42.4306 18.8941 41.9944 18.4944 41.7488 18.0052C41.3017 18.4324 40.8618 18.8562 40.466 19.2352C40.8472 19.6141 41.254 20.0172 41.6352 20.3997Z" fill="#FFEB61"/>
<path d="M37.6329 2.88408C37.5926 2.91853 37.5156 3.03222 37.4093 3.06323C36.4051 3.35608 35.7526 3.94178 35.5291 4.93057C35.5034 5.04082 35.3201 5.17174 35.1955 5.18896C35.1039 5.20274 34.9426 5.06149 34.884 4.95469C34.741 4.68251 34.6714 4.37588 34.5138 4.11404C34.2206 3.62137 33.7697 3.29062 33.1759 3.15626C32.9597 3.10802 32.7581 3.03567 32.7618 2.77728C32.7654 2.53611 32.956 2.48098 33.154 2.40863C33.975 2.11234 34.5688 1.60588 34.785 0.772129C34.7997 0.717005 34.807 0.648103 34.8473 0.61365C34.9536 0.524073 35.0746 0.386258 35.1919 0.382812C35.3018 0.382812 35.4558 0.506847 35.5217 0.61365C35.6134 0.765242 35.6207 0.965071 35.705 1.12355C36.0422 1.78504 36.5883 2.22603 37.3434 2.4293C37.6073 2.50854 37.6329 2.543 37.6329 2.88408ZM36.0495 2.8014C35.76 2.52233 35.4191 2.19158 35.1809 1.96419C34.9353 2.20191 34.5908 2.53955 34.2792 2.84274C34.5065 3.06323 34.8546 3.39398 35.1222 3.65238C35.4594 3.34575 35.8113 3.02189 36.0495 2.8014Z" fill="#FFEB61"/>
<path d="M6.4449 17.7987C6.36426 17.7056 6.24331 17.6264 6.20665 17.5196C6.0014 16.9339 5.70451 16.4102 5.14372 16.0622C4.9348 15.9313 4.68189 15.8624 4.47664 15.7315C4.34835 15.6523 4.19074 15.5076 4.18708 15.3904C4.18341 15.2767 4.33369 15.0941 4.46197 15.0493C5.32698 14.7496 5.92443 14.2259 6.22132 13.3922C6.2653 13.2681 6.45589 13.0993 6.55852 13.1131C6.67947 13.1269 6.84808 13.2957 6.88473 13.4232C7.11931 14.2466 7.70943 14.7393 8.51212 15.039C8.69539 15.1079 8.85298 15.1665 8.84565 15.3835C8.84199 15.5902 8.70271 15.6833 8.51578 15.7453C7.62145 16.045 7.07899 16.6445 6.84074 17.4955C6.79309 17.6712 6.71979 17.7711 6.4449 17.7987ZM7.30624 15.3732C7.10098 15.1596 6.78944 14.8323 6.49622 14.5257C6.18833 14.8047 5.85845 15.0976 5.62753 15.3077C5.92442 15.6006 6.25064 15.921 6.51454 16.1794C6.74912 15.9348 7.06433 15.6178 7.30624 15.3732Z" fill="#FFEB61"/>
<path d="M17.6938 37.9052C16.5246 37.8948 15.6156 37.0129 15.6266 35.9C15.6376 34.8286 16.6015 33.9569 17.7598 33.9741C18.929 33.9914 19.8417 34.8665 19.8307 35.9552C19.816 37.0576 18.8777 37.9155 17.6938 37.9052ZM17.7231 37.2196C18.4598 37.2161 19.0939 36.6235 19.0866 35.9414C19.0793 35.2627 18.4562 34.6839 17.7341 34.6839C16.9901 34.6839 16.3523 35.273 16.3596 35.9483C16.367 36.6511 16.9791 37.223 17.7231 37.2196Z" fill="#FFEB61"/>
<path d="M13.8598 4.24139C13.8598 4.98901 13.288 5.55059 12.5256 5.55403C11.7266 5.55748 11.1108 4.98901 11.1108 4.24484C11.1108 3.49721 11.7119 2.9253 12.489 2.93219C13.299 2.94253 13.8598 3.47998 13.8598 4.24139ZM13.1341 4.24827C13.1414 3.90375 12.8482 3.62813 12.4853 3.62813C12.1518 3.62813 11.8696 3.90375 11.8549 4.24484C11.8439 4.57903 12.1188 4.85809 12.467 4.85809C12.8335 4.85809 13.1267 4.58936 13.1341 4.24827Z" fill="#FFEB61"/>
<path d="M29.0308 36.6614C28.283 36.6579 27.6929 36.0757 27.7003 35.3453C27.7076 34.6011 28.272 34.0774 29.0711 34.0774C29.8261 34.074 30.4236 34.6321 30.4236 35.3384C30.4272 36.086 29.8188 36.6648 29.0308 36.6614ZM29.6832 35.3349C29.6832 35.0249 29.4009 34.7768 29.0454 34.7768C28.7082 34.7768 28.4407 35.0421 28.4407 35.3694C28.4407 35.6967 28.6826 35.931 29.0234 35.9378C29.4119 35.9413 29.6832 35.6898 29.6832 35.3349Z" fill="#FFEB61"/>
</svg>
