<svg width="48" height="48" viewBox="0 0 48 48" fill="none" xmlns="http://www.w3.org/2000/svg">
<path d="M26.0856 24.2124C26.4368 24.2166 26.7784 24.2174 27.1202 24.2277C27.2724 24.2322 27.4265 24.2426 27.5759 24.2832C27.8312 24.3524 28.039 24.6032 28.031 24.8819C28.0079 25.6762 28.3548 26.3371 28.7492 26.9867C28.9527 27.3223 28.9147 27.5782 28.6296 27.7817C28.0851 28.1712 27.6585 28.6721 27.3998 29.3429C27.2259 29.7885 27.0168 29.9268 26.609 29.7537C26.1283 29.5484 25.6604 29.2846 25.221 28.9766C25.0013 28.8226 24.8619 28.5186 24.6598 28.25C24.6426 28.2585 24.579 28.2909 24.5116 28.3117C24.0601 28.4572 23.6131 28.6078 23.1551 28.7329C23.0221 28.7706 22.9351 28.8103 22.8958 28.9638C22.1929 31.8051 21.4891 34.6436 20.7863 37.4849C20.7374 37.6799 20.6955 37.8791 20.6392 38.131C20.8749 37.9331 21.0438 37.7044 21.2638 37.6269C21.639 37.492 21.7811 37.143 21.9957 36.852C23.779 34.4649 26.0005 32.9097 28.9934 32.8485C29.539 32.8378 30.0942 32.9109 30.6432 32.9827C31.0703 33.0374 31.1472 33.1808 31.0349 33.6234C30.8172 34.4679 30.412 35.1968 29.9468 35.8799C28.7642 37.6161 27.2195 38.7956 25.2398 39.2515C24.5452 39.4109 23.8155 39.4687 23.0935 39.4791C22.7147 39.4866 22.3843 39.5209 22.0293 39.6657C21.5355 39.866 20.9794 39.9153 20.4435 40.0097C20.3171 40.0326 20.2382 40.0441 20.2087 40.2106C19.8789 42.0342 19.5297 43.851 19.2034 45.6767C19.0969 46.2718 18.7561 46.6756 18.2343 46.7432C17.7125 46.8108 17.2088 46.5419 16.9916 46.0113C16.8908 45.7661 16.8634 45.4565 16.8953 45.1992C17.0047 44.372 17.1507 43.5528 17.2906 42.7322C17.3859 42.1824 17.4943 41.6381 17.6053 41.0931C17.6416 40.9213 17.5739 40.8426 17.4557 40.7215C17.0719 40.329 16.7 39.9199 16.3492 39.4883C16.2368 39.3494 16.2147 39.1281 16.1405 38.9486C16.1067 38.8691 16.0587 38.781 15.9985 38.7257C14.0413 36.9289 13.0285 34.6579 12.8369 31.9733C12.8117 31.6084 12.7927 31.2448 12.7998 30.8828C12.8058 30.4279 12.9911 30.313 13.379 30.5308C14.4354 31.1241 15.2992 31.9792 16.0106 33.0258C17.0558 34.5671 17.632 36.2883 17.9272 38.1185C17.9561 38.2896 17.9936 38.4611 18.0276 38.6305C18.0511 38.6329 18.0772 38.6345 18.1007 38.6369C18.2127 38.0948 18.3114 37.5471 18.4426 37.012C19.046 34.5193 19.6282 32.0139 20.2842 29.5436C20.4894 28.7672 20.5514 28.0862 20.0876 27.3617C19.9537 27.1556 19.8772 26.9061 19.7623 26.6524C19.6703 26.7835 19.6158 26.916 19.5181 26.9846C19.2981 27.1424 19.078 27.3355 18.8237 27.3946C18.4527 27.48 18.0572 27.4797 17.6714 27.483C17.15 27.4894 16.8821 27.1929 16.7716 26.6133C16.6669 26.0608 16.5406 25.5118 16.3857 24.9716C16.3153 24.7235 16.1506 24.5011 16.0284 24.2689C15.8762 23.9785 15.9143 23.7675 16.157 23.6093C16.2701 23.5358 16.3915 23.4792 16.5084 23.4174C16.9707 23.1722 17.3291 22.8144 17.5766 22.314C17.8649 21.7272 18.1695 21.6655 18.6795 22.1059C19.0318 22.4086 19.3631 22.7434 19.6764 23.0934C20.3636 23.8584 20.4331 24.7204 20.1088 25.6139C20.0366 25.8161 20.0542 25.952 20.1627 26.1499C20.3542 26.4924 20.5012 26.8648 20.667 27.2249C20.7016 27.2978 20.7371 27.3736 20.806 27.5098C20.9739 26.9023 21.1223 26.3586 21.2733 25.8141C21.6251 24.533 21.9778 23.2549 22.3261 21.9718C22.343 21.9087 22.3515 21.8194 22.3251 21.7632C22.1443 21.3917 21.954 21.0262 21.7636 20.6512C21.0954 20.947 20.4112 20.7723 19.7373 20.5945C19.3772 20.4998 19.1502 20.1618 19.1681 19.7354C19.2046 18.876 19.0231 18.0644 18.6717 17.2732C18.5321 16.9596 18.6124 16.7292 18.8797 16.5858C19.0567 16.4895 19.2393 16.4108 19.4181 16.3203C19.7758 16.1394 20.0656 15.8702 20.277 15.5063C20.3248 15.4241 20.3627 15.3289 20.4255 15.2581C20.6478 15.0001 20.7294 14.7115 20.6933 14.321C20.6478 13.8114 20.9458 13.5589 21.415 13.5943C21.7875 13.6208 22.105 13.7961 22.4 14.0618C22.4753 14.1285 22.6178 14.165 22.7068 14.1408C23.2358 14.0066 23.5709 14.1925 23.7916 14.7607C23.9119 15.0673 24.0495 15.3655 24.242 15.6756C24.3609 15.2984 24.4824 14.9205 24.5943 14.539C24.6064 14.4967 24.5535 14.4199 24.5177 14.3699C23.8857 13.5461 23.68 12.6136 23.7683 11.613C23.7866 11.4113 23.769 11.2754 23.5701 11.16C23.4231 11.0736 23.3219 10.8895 23.1889 10.7666C23.0355 10.6243 22.8736 10.4911 22.7075 10.3624C22.5484 10.2379 22.3832 10.1924 22.2062 10.2887C22.1254 10.3297 22.0329 10.3518 21.9399 10.3547C21.7037 10.3633 21.5561 10.1228 21.6892 9.92439C21.8131 9.74164 21.9801 9.58736 22.1539 9.46312C22.3167 9.34873 22.4112 9.21679 22.4439 8.99788C22.5255 8.45871 22.8925 8.26211 23.3671 8.51103C23.5279 8.59639 23.6844 8.72166 23.8091 8.86315C23.9347 9.00757 24.0605 9.03629 24.2195 9.03548C24.4124 9.03387 24.6122 9.02693 24.7976 9.08223C25.164 9.1878 25.2797 9.47984 25.1254 9.82617C25.0972 9.88948 25.0569 9.95971 25.0558 10.0275C25.0577 10.4896 24.8044 10.7572 24.5088 10.9992C24.4593 11.0402 24.3866 11.0979 24.3869 11.1525C24.3784 11.7783 24.2248 12.404 24.4737 13.0341C24.5656 13.2692 24.6851 13.4926 24.8271 13.7958C24.9156 13.5822 24.976 13.4415 25.0294 13.2965C25.1925 12.8704 25.3494 12.443 25.7237 12.1799C25.7656 12.1509 25.7858 12.0354 25.7679 11.9703C25.4528 10.8015 25.7063 9.80139 26.3113 8.90495C26.4234 8.73869 26.5019 8.54743 26.6149 8.38411C26.7709 8.15933 26.9533 8.15133 27.115 8.40028C27.2973 8.67823 27.4473 8.98862 27.5851 9.29635C27.72 9.59531 27.8249 9.90678 27.9767 10.3034C28.1332 9.98202 28.2609 9.73065 28.3709 9.46864C28.3925 9.42023 28.3362 9.30586 28.2889 9.24655C27.3864 8.08214 27.736 6.82105 28.1958 6.00469C28.3901 5.65888 28.569 5.64876 28.8014 5.99479C29.0186 6.3198 29.187 6.67914 29.3717 7.02704C29.4278 7.13183 29.4625 7.24966 29.5166 7.38398C29.801 6.98151 30.0669 6.61043 30.3023 6.27766C30.1536 5.94439 29.9692 5.65101 29.8886 5.33529C29.7435 4.76316 29.9479 4.27931 30.2202 3.83881C30.3799 3.58078 30.5642 3.33765 30.7398 3.09399C30.9939 2.7394 31.2277 2.74124 31.4614 3.14472C31.6861 3.5381 31.8595 3.96659 32.0578 4.38417C32.2946 4.19876 32.5621 3.98461 32.8315 3.77632C32.9529 3.68427 33.0744 3.59223 33.1996 3.51189C33.54 3.29454 33.8523 3.34612 34.0926 3.65438C34.3231 3.9496 34.3403 4.43263 34.101 4.70875C33.849 4.99844 33.5677 5.25861 33.2998 5.53393C33.2573 5.57915 33.1993 5.62917 33.1875 5.69061C32.9906 6.8147 31.9711 7.34731 30.9994 6.81462C30.8341 6.7242 30.7454 6.72261 30.6454 6.88195C30.394 7.28069 30.1301 7.6672 29.8742 8.06088C29.8406 8.11621 29.823 8.18591 29.7874 8.27076C30.4058 8.37257 30.9536 8.38688 31.279 7.74688C31.33 7.64766 31.4031 7.52877 31.4928 7.4979C31.6058 7.45986 31.7573 7.47101 31.8689 7.52659C31.9093 7.54627 31.9287 7.76837 31.8943 7.86573C31.5858 8.72863 30.9981 9.08963 30.1214 8.98065C30.0709 8.97374 30.0203 8.96683 29.9688 8.95699C29.4121 8.85225 29.4156 8.85438 29.163 9.40128C29.0881 9.55928 28.9957 9.70664 28.9069 9.86571C29.2051 9.82845 29.4845 9.76805 29.7713 9.76642C29.9955 9.76481 30.2278 9.81532 30.4499 9.87861C30.7752 9.97114 30.85 10.0991 30.7536 10.4308C30.5077 11.2937 30.0089 11.8714 29.1558 11.9705C28.7613 12.0181 28.3491 11.9652 27.9205 11.9591C27.7869 12.2188 27.6297 12.5114 27.4805 12.8112C27.4514 12.8715 27.4229 12.9606 27.4441 13.0184C27.6264 13.5019 27.4587 13.9134 27.3215 14.3316C27.2994 14.3962 27.2818 14.4659 27.2494 14.5787C27.3458 14.5329 27.4045 14.5116 27.4568 14.4794C27.8191 14.2682 28.1741 14.0431 28.542 13.8495C28.7414 13.7431 28.843 13.6154 28.8112 13.3457C28.7911 13.1752 28.8176 12.9903 28.8593 12.8264C29.0253 12.2131 29.5305 12.0574 30.0047 12.4928C30.1775 12.6516 30.3311 12.6782 30.5212 12.6678C30.6471 12.6611 30.7767 12.6661 30.9006 12.689C31.2591 12.752 31.512 13.1174 31.4305 13.496C31.3657 13.8019 31.4515 14.0357 31.6243 14.2748C31.7048 14.3849 31.7832 14.5149 31.8138 14.6469C31.8414 14.7604 31.8419 14.9498 31.7846 14.9932C31.7033 15.0504 31.5448 15.035 31.4412 14.9866C31.3104 14.9241 31.2033 14.7932 31.0839 14.6951C31.037 14.6549 30.9815 14.5788 30.9408 14.585C30.6685 14.6143 30.3754 14.605 30.1318 14.7154C29.4801 15.0094 29.4499 15.0219 28.9522 14.4234C28.6996 14.5591 28.449 14.7102 28.1839 14.8337C27.8526 14.9904 27.5104 15.1215 27.1772 15.2724C27.1075 15.3035 27.0259 15.3511 26.9935 15.419C26.8757 15.6834 26.778 15.9576 26.6561 16.2715C26.8546 16.1268 27.0101 15.9985 27.1791 15.8951C27.5961 15.6413 27.9999 15.7032 28.4146 16.0412C28.5986 16.1902 28.8206 16.2888 29.0355 16.3832C29.5723 16.613 29.6696 16.9814 29.4624 17.5368C29.3546 17.8238 29.3842 18.2387 29.4806 18.5592C29.6067 18.9734 29.847 19.362 30.0645 19.7415C30.282 20.1211 30.2846 20.3259 29.9821 20.5733C29.4167 21.0399 28.9337 21.587 28.5886 22.2813C28.3894 22.6832 28.1252 22.7647 27.7144 22.5732C27.0314 22.2503 26.364 21.8873 26.0201 21.1195C25.7018 21.2368 25.4041 21.3382 25.113 21.46C25.038 21.4927 24.9571 21.5691 24.9309 21.6478C24.5321 23.0044 24.1403 24.3652 23.7485 25.7261C23.7354 25.7654 23.7355 25.8104 23.7285 25.8511C23.9266 25.7676 24.1217 25.701 24.3003 25.601C24.3673 25.5611 24.4048 25.4467 24.435 25.3539C24.5791 24.895 24.7837 24.5011 25.2006 24.2827M17.9576 46.0703C18.3185 46.1229 18.5362 45.9755 18.6264 45.5975C18.6607 45.4552 18.6706 45.3076 18.6927 45.1626C19.1786 41.9255 19.8833 38.7591 20.6063 35.5967C21.6841 30.8857 22.9767 26.2595 24.3324 21.662C25.127 18.9658 26.0409 16.3229 26.9022 13.6576C27.0066 13.3331 26.9356 13.1011 26.6607 12.8807C26.4237 12.6902 26.1401 12.6748 25.945 12.902C25.8101 13.0592 25.7014 13.263 25.6311 13.471C24.6536 16.2717 23.712 19.087 22.9408 21.9815C22.0246 25.4219 21.0638 28.8472 20.1933 32.3056C19.5327 34.9316 18.9625 37.5907 18.3948 40.249C18.0424 41.9126 17.7697 43.603 17.4655 45.2838C17.384 45.7426 17.5548 46.0113 17.9576 46.0703ZM30.4155 33.554C29.9552 33.5288 29.542 33.473 29.1329 33.4834C26.1771 33.5717 23.9961 35.1112 22.2856 37.5305C22.2029 37.646 22.2153 37.7385 22.2877 37.8769C22.4226 38.1309 22.5146 38.4109 22.6426 38.6703C22.6817 38.7482 22.7766 38.841 22.8472 38.8482C23.0414 38.8687 23.2358 38.8537 23.4285 38.8426C26.62 38.6816 28.8948 37.0522 30.2672 33.982C30.3161 33.8674 30.3516 33.7376 30.4155 33.554ZM13.4008 31.2695C13.3986 31.4147 13.3942 31.5349 13.3985 31.6557C13.422 32.5962 13.5979 33.5155 13.8969 34.4193C14.375 35.859 15.1375 37.1019 16.2217 38.1043C16.2899 38.1668 16.438 38.2208 16.4946 38.1841C16.7457 38.0168 17.0105 37.9641 17.308 38.0587C17.3587 35.9388 15.0952 31.9907 13.4008 31.2695ZM28.2413 27.2588C27.8216 26.5657 27.5076 25.8561 27.4133 25.0594C27.4051 24.9977 27.2544 24.8996 27.1735 24.8956C26.7757 24.8704 26.3803 24.8701 25.9837 24.8574C25.441 24.8415 25.0944 25.1378 25.0339 25.7251C25.0011 26.0244 24.8823 26.1606 24.616 26.2266C23.7929 26.4288 23.2497 27.1263 23.1889 28.0703C23.4903 27.9806 23.7745 27.8995 24.0534 27.8103C24.2795 27.7342 24.4757 27.6449 24.4825 27.3086C24.4875 27.0919 24.6758 26.9953 24.8637 27.0048C25.0552 27.0165 25.0576 27.2118 25.0982 27.3663C25.1502 27.5655 25.2032 27.7677 25.263 27.9645C25.3521 28.2712 25.5256 28.5036 25.7895 28.6536C26.0455 28.7964 26.3031 28.9355 26.559 29.0783C26.7278 29.1709 26.8324 29.1419 26.9046 28.9397C27.0943 28.4186 27.406 27.9949 27.7914 27.6416C27.9252 27.5168 28.0705 27.4014 28.2413 27.2588ZM19.2851 17.1805C19.5918 17.992 19.8009 18.8368 19.756 19.7148C19.7506 19.7872 19.8816 19.9396 19.9611 19.9569C20.3113 20.0385 20.6656 20.106 21.021 20.1411C21.317 20.1687 21.5482 20.0461 21.6975 19.7463C21.7458 19.6479 21.9468 19.5377 21.998 19.5734C22.1092 19.6548 22.2462 19.8439 22.2322 19.9606C22.1953 20.3543 22.472 20.5711 22.5994 20.9269C22.7074 20.5692 22.7793 20.2675 22.8854 19.9842C23.0145 19.6392 22.9741 19.2887 22.7196 19.0522C22.381 18.7389 22.4525 18.4631 22.544 18.1072C22.7023 17.4962 22.5729 16.9289 22.0724 16.4823C21.726 16.1714 21.372 15.8725 21.0347 15.5812C20.7729 15.9028 20.5516 16.2441 20.2694 16.5014C19.9786 16.7676 19.627 16.9499 19.2851 17.1805ZM26.4318 19.9195C26.4561 20.1209 26.4719 20.2959 26.4991 20.4707C26.5585 20.8539 26.6766 21.2159 27.0028 21.4367C27.2779 21.6218 27.5655 21.7837 27.8589 21.9279C27.9265 21.9617 28.081 21.9108 28.117 21.8451C28.4698 21.1839 28.9266 20.6351 29.4721 20.1682C29.5865 20.0719 29.5475 19.994 29.4865 19.865C29.2839 19.4519 29.0934 19.0319 28.921 18.6064C28.8384 18.4005 28.8031 18.1736 28.7699 18.0425C28.2278 17.93 27.729 17.8107 27.2275 17.7275C27.0923 17.7049 26.9319 17.7639 26.811 17.8397C26.5047 18.0305 26.4473 18.3952 26.3922 18.7495C26.3607 18.9455 26.2706 19.0375 26.1024 19.099C25.9436 19.1543 25.7375 19.2307 25.6771 19.3714C25.4995 19.7699 25.3889 20.2088 25.2501 20.6306C25.5574 20.5327 25.9047 20.5157 25.9063 20.0558C25.9071 20.0137 25.9736 19.9547 26.0195 19.947C26.1495 19.9262 26.2833 19.9267 26.4318 19.9195ZM16.63 24.1125C16.7253 24.3048 16.8069 24.4628 16.8842 24.6253C17.1573 25.2062 17.2747 25.8254 17.354 26.4499C17.3867 26.7225 17.5114 26.864 17.7631 26.8507C18.0304 26.8326 18.2978 26.8145 18.5677 26.7956C18.8575 26.7769 19.0963 26.6423 19.2015 26.3561C19.3898 25.8483 19.5962 25.3349 19.689 24.7955C19.8205 24.0289 18.9765 22.8336 18.1726 22.5512C17.842 23.2731 17.3075 23.7655 16.63 24.1125ZM27.0424 12.355C27.2476 11.9095 27.4639 11.4541 27.6645 10.9939C27.6927 10.9306 27.6686 10.8191 27.6357 10.7425C27.4924 10.4172 27.3292 10.1013 27.1859 9.77597C27.0974 9.57835 27.0339 9.36982 26.9416 9.11554C26.7888 9.4132 26.6786 9.66564 26.5374 9.89227C26.2944 10.282 26.214 10.7084 26.293 11.198C26.3322 11.4462 26.3306 11.7005 26.3646 11.9503C26.373 12.0215 26.4334 12.1218 26.4931 12.1484C26.66 12.2351 26.8436 12.2845 27.0424 12.355ZM21.3137 14.1877C21.3328 14.5159 21.3457 14.7529 21.3646 14.9912C21.3662 15.0229 21.3931 15.0628 21.4196 15.0835C21.7614 15.3798 22.1048 15.6724 22.4482 15.9649C22.9178 15.5279 23.0973 15.1802 23.035 14.8235C23.0019 14.8177 22.9659 14.803 22.9365 14.8089C22.5435 14.9236 22.2247 14.7712 21.9105 14.4632C21.7659 14.3214 21.5383 14.2856 21.3137 14.1877ZM23.2735 18.4061C23.3055 18.3994 23.3375 18.3928 23.3721 18.3853C23.5563 17.7664 23.7414 17.1503 23.922 16.5292C23.9351 16.4898 23.9391 16.4308 23.9192 16.3952C23.7949 16.1475 23.6654 15.9015 23.5277 15.6387C23.3237 15.9361 23.1246 16.2223 22.9173 16.5272C23.1595 16.9666 23.1908 17.4581 23.1677 17.9664C23.1585 18.1074 23.2356 18.2603 23.2735 18.4061ZM31.0574 6.0225C31.5503 6.56135 32.4449 6.36922 32.604 5.7162C32.6105 5.69173 32.6124 5.66221 32.6076 5.638C32.5384 5.28664 32.2042 5.05871 31.8879 5.10156C31.3696 5.1713 31.3245 5.70887 31.0574 6.0225ZM23.9872 10.5849C24.1142 10.4654 24.2732 10.3393 24.4064 10.1859C24.4692 10.1151 24.4971 9.99727 24.5158 9.89513C24.5536 9.70999 24.4727 9.62568 24.3058 9.66426C23.9988 9.73638 23.7438 9.5965 23.5012 9.38852C23.4339 9.32894 23.3778 9.22414 23.3052 9.20154C23.2056 9.17442 23.0171 9.18109 23.0066 9.21966C22.9686 9.39522 22.7711 9.58781 22.9704 9.76733C23.2842 10.0562 23.6257 10.2979 23.9872 10.5849ZM28.2778 11.2675C28.9529 11.5029 29.996 11.0176 30.1231 10.3712C29.752 10.4117 29.3975 10.4599 29.0434 10.4823C28.5808 10.5124 28.4304 10.88 28.2778 11.2675ZM30.8686 13.6434C30.8835 13.3593 30.7911 13.2657 30.5368 13.3248C30.2359 13.3982 29.9746 13.3277 29.748 13.0538C29.7035 13.0032 29.5858 12.9463 29.561 12.9668C29.4997 13.0243 29.4443 13.1184 29.441 13.2062C29.4284 13.435 29.4455 13.6674 29.4513 13.9002C29.4565 14.1845 29.5546 14.2603 29.7839 14.1318C30.0382 13.9924 30.2917 13.8951 30.5933 13.9402C30.7826 13.9719 30.8579 13.833 30.8686 13.6434ZM28.972 17.0775C28.5989 16.8615 28.2723 16.6666 27.9391 16.4865C27.867 16.4477 27.7692 16.4264 27.6958 16.4459C27.3456 16.5345 27.0641 16.7401 26.8247 17.0516C27.5415 16.9978 28.2727 17.5885 28.972 17.0775ZM28.5967 6.62972C28.2262 7.39607 28.3011 8.26611 28.7528 8.82731C28.8832 8.58471 29.013 8.34877 29.1356 8.10857C29.1591 8.06601 29.1767 7.99632 29.1601 7.95323C28.9861 7.53139 28.8051 7.11487 28.5967 6.62972ZM20.5979 39.2168C20.6098 39.2453 20.6217 39.2737 20.6326 39.2993C21.0651 39.2013 21.5013 39.1151 21.9282 38.9996C21.9888 38.9842 22.0514 38.8235 22.0366 38.7413C22.0082 38.5895 21.9431 38.4296 21.8537 38.3094C21.8009 38.2421 21.6407 38.1855 21.578 38.2209C21.1639 38.448 20.8711 38.8242 20.5979 39.2168ZM17.6826 40.1922C17.922 39.5948 17.628 39.1713 17.3619 38.7554C17.2369 38.5593 17.0622 38.6003 16.9181 38.7283C16.7807 38.8509 16.6803 38.9911 16.8471 39.1935C17.1156 39.5188 17.3883 39.8395 17.6826 40.1922ZM30.6488 5.52514C30.726 5.35676 30.7776 5.20594 30.8592 5.07799C30.9398 4.94712 31.0407 4.82608 31.1497 4.72181C31.437 4.4534 31.4457 4.08766 31.1542 3.74376C30.5031 4.27208 30.2783 5.02245 30.6488 5.52514ZM32.9927 4.94426C33.2094 4.71363 33.4188 4.50454 33.6148 4.28029C33.6479 4.24119 33.6383 4.1574 33.65 4.09596C33.5985 4.08612 33.5309 4.05235 33.5009 4.07443C33.241 4.2766 32.9883 4.49261 32.7149 4.715C32.8158 4.79958 32.8927 4.86261 32.9927 4.94426Z" fill="#FFEB61"/>
<path d="M17.9403 46.07C17.5376 46.011 17.3669 45.7424 17.451 45.2829C17.7551 43.6025 18.0277 41.9125 18.3799 40.2494C18.9439 37.5895 19.5165 34.9303 20.1777 32.3079C21.048 28.8503 22.0084 25.4259 22.9243 21.9864C23.6953 19.0925 24.6365 16.2779 25.6136 13.4779C25.6849 13.2728 25.7926 13.0662 25.9274 12.909C26.1224 12.6819 26.406 12.6973 26.6428 12.8877C26.9151 13.1089 26.9887 13.34 26.8843 13.6644C26.0233 16.3291 25.1071 18.9722 24.3154 21.6669C22.9602 26.2632 21.6707 30.8875 20.5907 35.5982C19.867 38.7569 19.1661 41.9246 18.6778 45.1618C18.6556 45.3067 18.6432 45.4551 18.6114 45.5966C18.5186 45.9752 18.302 46.1255 17.9403 46.07Z" fill="#FFEB61"/>
<path d="M30.3927 33.5352C30.3287 33.7191 30.2932 33.8492 30.2426 33.9678C28.868 37.0443 26.5887 38.6741 23.3931 38.8383C23.2001 38.8496 23.0054 38.8645 22.8108 38.844C22.7402 38.8368 22.645 38.7438 22.606 38.6657C22.4777 38.4058 22.3856 38.1252 22.2505 37.8707C22.1779 37.7321 22.1655 37.6393 22.2484 37.5236C23.9615 35.0993 26.146 33.5567 29.1064 33.4682C29.517 33.4511 29.9308 33.507 30.3927 33.5352Z" fill="#FFEB61"/>
<path d="M13.358 31.2899C15.0491 32.0104 17.3081 35.9547 17.255 38.0734C16.959 37.9818 16.6946 38.0344 16.4431 38.1986C16.3866 38.2353 16.2389 38.1814 16.1708 38.119C15.0878 37.1146 14.3277 35.8758 13.8506 34.4375C13.5521 33.5345 13.3765 32.6162 13.3532 31.6766C13.3515 31.5551 13.3559 31.435 13.358 31.2899Z" fill="#FFEB61"/>
<path d="M28.2368 27.256C28.0659 27.3987 27.9205 27.5142 27.784 27.6398C27.3957 27.9941 27.0864 28.4174 26.8965 28.9388C26.8243 29.1411 26.7196 29.1702 26.5507 29.0775C26.2929 28.9384 26.0351 28.7992 25.7806 28.6525C25.5165 28.5024 25.3454 28.269 25.2537 27.9629C25.1965 27.7652 25.1409 27.5637 25.0888 27.3643C25.0491 27.2126 25.0457 27.0143 24.8541 27.0026C24.6661 26.9931 24.4776 27.0897 24.4727 27.3066C24.4659 27.6431 24.2695 27.7325 24.0432 27.8087C23.7651 27.9008 23.4797 27.9791 23.1781 28.0688C23.239 27.1242 23.7826 26.4262 24.6063 26.2239C24.8728 26.1578 24.9926 26.0245 25.0244 25.7221C25.0876 25.1336 25.4335 24.8341 25.9749 24.8538C26.3718 24.8665 26.7692 24.863 27.1656 24.892C27.2475 24.8989 27.4 24.9934 27.4056 25.0559C27.5016 25.8493 27.8159 26.5595 28.2368 27.256Z" fill="#FFEB61"/>
<path d="M19.2944 17.1978C19.6362 16.9672 19.9876 16.7851 20.2792 16.5218C20.5613 16.2646 20.7825 15.9234 21.0441 15.6019C21.3787 15.8939 21.7326 16.1927 22.0814 16.5027C22.5817 16.9492 22.7101 17.5134 22.5528 18.1271C22.4604 18.48 22.3924 18.7579 22.7283 19.0719C22.9827 19.3083 23.0231 19.6587 22.894 20.0036C22.788 20.2868 22.7152 20.5855 22.6082 20.9461C22.4817 20.5932 22.2017 20.3744 22.2411 19.98C22.2526 19.8641 22.1156 19.675 22.007 19.5929C21.955 19.5543 21.7549 19.6674 21.7066 19.7658C21.5575 20.0655 21.3264 20.1881 21.0304 20.1604C20.6762 20.1283 20.322 20.0608 19.971 19.9763C19.8916 19.959 19.7632 19.8058 19.7661 19.7343C19.809 18.8507 19.5983 18.0099 19.2944 17.1978Z" fill="#FFEB61"/>
<path d="M26.4474 19.9193C26.2972 19.9302 26.165 19.9259 26.0359 19.9496C25.99 19.9574 25.9208 20.0172 25.9226 20.0585C25.9201 20.5156 25.5736 20.5356 25.2661 20.6336C25.405 20.2115 25.5166 19.7754 25.6933 19.3738C25.7564 19.2323 25.9635 19.1588 26.1188 19.1013C26.288 19.0427 26.3773 18.9477 26.4088 18.7516C26.4639 18.3972 26.5204 18.0294 26.8277 17.8415C26.9461 17.7665 27.1066 17.7074 27.2445 17.7292C27.7453 17.8095 28.2444 17.9289 28.7877 18.0444C28.8209 18.1755 28.8561 18.4025 28.9387 18.6085C29.1112 19.0342 29.3019 19.4544 29.5046 19.8676C29.5681 19.9959 29.6037 20.0717 29.4901 20.171C28.947 20.6372 28.4873 21.187 28.1344 21.8486C28.0984 21.9143 27.9438 21.9652 27.8762 21.9314C27.5827 21.7872 27.2949 21.6252 27.0197 21.44C26.6933 21.2191 26.5751 20.857 26.5157 20.4735C26.4876 20.2958 26.4717 20.1207 26.4474 19.9193Z" fill="#FFEB61"/>
<path d="M16.6166 24.1312C17.2949 23.7873 17.8293 23.2949 18.158 22.5673C18.9617 22.8496 19.8055 24.0447 19.6741 24.8112C19.5812 25.3505 19.3749 25.8638 19.1866 26.3715C19.0815 26.6577 18.8428 26.7923 18.5529 26.811C18.2857 26.8291 18.0159 26.848 17.7486 26.8661C17.4952 26.8831 17.3723 26.7379 17.3395 26.4653C17.2629 25.8401 17.1455 25.221 16.8699 24.641C16.7926 24.4785 16.711 24.3205 16.6166 24.1312Z" fill="#FFEB61"/>
<path d="M27.0821 12.3636C26.8834 12.2932 26.7017 12.24 26.529 12.1616C26.4719 12.1342 26.4116 12.034 26.4006 11.9636C26.3666 11.7139 26.3717 11.4619 26.3291 11.2117C26.2501 10.7223 26.3305 10.2962 26.5732 9.90666C26.7143 9.68015 26.8245 9.42784 26.9771 9.13034C27.0693 9.38449 27.1353 9.59211 27.2212 9.79043C27.3644 10.1156 27.5274 10.4314 27.6706 10.7565C27.7026 10.8301 27.7276 10.9444 27.6994 11.0077C27.5016 11.4669 27.2871 11.9183 27.0821 12.3636Z" fill="#FFEB61"/>
<path d="M21.3337 14.2051C21.5583 14.303 21.7885 14.3381 21.9306 14.4806C22.2458 14.7916 22.5645 14.944 22.9567 14.8264C22.9852 14.8176 23.022 14.8351 23.0552 14.841C23.1175 15.1977 22.938 15.5454 22.4683 15.9825C22.1249 15.6899 21.7814 15.3973 21.4396 15.101C21.4157 15.0795 21.3888 15.0396 21.3846 15.0087C21.3666 14.7733 21.3537 14.5363 21.3337 14.2051Z" fill="#FFEB61"/>
<path d="M23.2908 18.4174C23.253 18.2717 23.1795 18.121 23.1861 17.9809C23.2092 17.4729 23.1779 16.9817 22.9359 16.5425C23.1457 16.2371 23.3419 15.9518 23.5458 15.6546C23.6824 15.9143 23.8117 16.1602 23.9369 16.4106C23.9541 16.447 23.9492 16.5031 23.9397 16.5446C23.7583 17.1624 23.5743 17.781 23.3903 18.3996C23.3548 18.4041 23.3228 18.4108 23.2908 18.4174Z" fill="#FFEB61"/>
<path d="M31.1197 6.02403C31.3871 5.71011 31.4323 5.17203 31.951 5.10223C32.2676 5.05933 32.6031 5.2904 32.6714 5.63917C32.6763 5.6634 32.6743 5.69295 32.6678 5.71744C32.5086 6.37108 31.6131 6.56339 31.1197 6.02403Z" fill="#FFEB61"/>
<path d="M24.0239 10.6036C23.6631 10.3195 23.3232 10.074 23.0085 9.79167C22.8091 9.61209 23.0067 9.41943 23.0447 9.24381C23.0543 9.2023 23.2428 9.19563 23.3435 9.22569C23.4152 9.24537 23.4696 9.35393 23.5396 9.41272C23.7822 9.62077 24.0383 9.76363 24.3445 9.68857C24.514 9.64917 24.5924 9.73431 24.5546 9.9195C24.5333 10.0225 24.5053 10.1404 24.4451 10.2103C24.309 10.3551 24.1509 10.4842 24.0239 10.6036Z" fill="#FFEB61"/>
<path d="M28.3209 11.2716C28.4738 10.8832 28.6244 10.5147 29.0878 10.4845C29.4425 10.4621 29.7941 10.4116 30.1694 10.3732C30.042 11.0211 28.9972 11.5075 28.3209 11.2716Z" fill="#FFEB61"/>
<path d="M30.9082 13.6418C30.8974 13.8316 30.8221 13.9706 30.6326 13.9389C30.3298 13.8908 30.0735 13.989 29.8226 14.1307C29.5895 14.2571 29.4949 14.1834 29.4897 13.8988C29.4839 13.6659 29.4694 13.4325 29.4794 13.2044C29.4827 13.1165 29.5407 13.0215 29.5995 12.9648C29.6234 12.9414 29.7412 12.9983 29.7867 13.0518C30.016 13.3252 30.274 13.3936 30.5761 13.323C30.8306 13.2639 30.923 13.3576 30.9082 13.6418Z" fill="#FFEB61"/>
<path d="M28.9994 17.0785C28.2975 17.5941 27.5677 17.0016 26.849 17.0525C27.0852 16.7384 27.3707 16.5345 27.7213 16.4458C27.7949 16.4263 27.8928 16.4476 27.965 16.4865C28.2987 16.6669 28.6257 16.8621 28.9994 17.0785Z" fill="#FFEB61"/>
<path d="M28.6486 6.63807C28.8567 7.1228 29.0373 7.53896 29.2111 7.96044C29.2267 8.00057 29.2091 8.0702 29.1866 8.11565C29.0642 8.35564 28.9347 8.59138 28.8045 8.83377C28.3561 8.27226 28.2778 7.40084 28.6486 6.63807Z" fill="#FFEB61"/>
<path d="M20.551 39.215C20.8246 38.8218 21.1178 38.4451 21.5324 38.2175C21.5952 38.1821 21.7573 38.2351 21.8085 38.3062C21.898 38.4266 21.9641 38.5897 21.9917 38.7388C22.0065 38.8212 21.9437 38.9821 21.8831 38.9975C21.4557 39.1132 21.0198 39.2025 20.5858 39.2976C20.5739 39.2691 20.562 39.2406 20.551 39.215Z" fill="#FFEB61"/>
<path d="M17.6272 40.1987C17.3332 39.8463 17.0608 39.5257 16.7925 39.2006C16.6268 39.0012 16.7262 38.8582 16.8634 38.7357C17.0074 38.6078 17.182 38.5668 17.3068 38.7627C17.5717 39.1755 17.8629 39.5995 17.6272 40.1987Z" fill="#FFEB61"/>
<path d="M30.7133 5.52971C30.3428 5.02705 30.5702 4.27591 31.2177 3.7455C31.5066 4.09017 31.5004 4.45509 31.2133 4.72349C31.1033 4.82484 31.0034 4.94879 30.9227 5.07965C30.8421 5.21052 30.7905 5.36134 30.7133 5.52971Z" fill="#FFEB61"/>
<path d="M33.0612 4.94337C32.9612 4.86161 32.8841 4.7985 32.7831 4.71382C33.0559 4.48821 33.3098 4.27486 33.5701 4.07242C33.6001 4.05031 33.6687 4.08706 33.7193 4.09398C33.7085 4.15843 33.7181 4.24233 33.6841 4.27855C33.4852 4.50388 33.2782 4.71244 33.0612 4.94337Z" fill="#FFEB61"/>
<path d="M34.3392 12.9697C34.2229 12.8546 34.1444 12.8048 34.1073 12.7327C34.0619 12.6439 34.0536 12.5372 34.0332 12.4375C33.8575 11.5726 33.4238 10.9159 32.674 10.5268C32.5176 10.4464 32.3673 10.3675 32.3772 10.1395C32.3879 9.90484 32.5577 9.91998 32.703 9.88486C33.4954 9.70176 34.0626 9.23139 34.3208 8.37105C34.3679 8.21516 34.4388 8.07122 34.6184 8.09941C34.799 8.13051 34.8484 8.2856 34.872 8.45825C35.0047 9.38452 35.4988 10.0163 36.2677 10.4123C36.4303 10.494 36.5403 10.5982 36.5349 10.7959C36.5298 11.0031 36.3733 11.0031 36.2391 11.0284C35.3859 11.1724 34.8702 11.733 34.5797 12.5904C34.5381 12.7189 34.4359 12.8178 34.3392 12.9697ZM34.3755 11.4838C34.7186 11.1852 35.083 10.8641 35.4593 10.5361C35.0516 10.2472 34.7405 9.84184 34.5769 9.38137C34.217 9.70754 33.8613 10.0292 33.5432 10.3168C33.8156 10.6988 34.1031 11.1018 34.3755 11.4838Z" fill="#FFEB61"/>
<path d="M27.4634 4.51865C27.4334 4.54074 27.3752 4.62614 27.2999 4.63971C26.595 4.76695 26.1176 5.1711 25.9183 5.93942C25.8966 6.02322 25.7629 6.11262 25.6768 6.11023C25.6116 6.11104 25.508 5.98229 25.473 5.89024C25.3846 5.6572 25.3523 5.40368 25.2545 5.17676C25.0733 4.7506 24.7772 4.43697 24.3728 4.26595C24.2255 4.20531 24.0891 4.12525 24.1029 3.91854C24.1153 3.72513 24.2496 3.69984 24.3887 3.66338C24.9688 3.51035 25.4015 3.17139 25.5877 2.52278C25.5998 2.48048 25.6073 2.42355 25.6373 2.40147C25.7142 2.33921 25.8035 2.24423 25.8837 2.25486C25.9613 2.26629 26.0611 2.38333 26.0987 2.47458C26.1554 2.60812 26.1518 2.76668 26.2008 2.90262C26.404 3.46978 26.7622 3.87997 27.275 4.12361C27.462 4.21059 27.481 4.24331 27.4634 4.51865ZM26.3752 4.28199C26.189 4.02768 25.9679 3.72628 25.813 3.51693C25.6322 3.68188 25.379 3.91416 25.1505 4.12594C25.299 4.32439 25.5211 4.62871 25.6965 4.86706C25.9424 4.65633 26.1984 4.43285 26.3752 4.28199Z" fill="#FFEB61"/>
<path d="M30.3325 32.04C30.2803 31.9565 30.2022 31.8809 30.1821 31.7907C30.0665 31.3026 29.8857 30.8507 29.5144 30.5152C29.3779 30.3902 29.2066 30.308 29.0692 30.1801C28.985 30.1032 28.883 29.9707 28.8845 29.8771C28.887 29.7864 28.9989 29.6555 29.0889 29.6342C29.696 29.4857 30.1317 29.1297 30.3713 28.4968C30.4067 28.4024 30.5468 28.2885 30.6159 28.309C30.6998 28.3313 30.8057 28.4851 30.8253 28.5915C30.951 29.2725 31.3328 29.73 31.8733 30.0519C31.9966 30.1263 32.1013 30.1872 32.0885 30.3615C32.0755 30.5262 31.9786 30.5881 31.8453 30.6164C31.2173 30.7617 30.8168 31.1839 30.6151 31.8373C30.5772 31.9775 30.5231 32.0488 30.3325 32.04ZM31.0314 30.1956C30.9022 30.0041 30.7004 29.7096 30.5128 29.4332C30.2882 29.6213 30.0508 29.823 29.88 29.9656C30.0725 30.2308 30.2812 30.5199 30.4505 30.757C30.6242 30.5877 30.8551 30.3656 31.0314 30.1956Z" fill="#FFEB61"/>
<path d="M13.4381 42.2773C12.4479 42.1164 11.7237 41.1281 11.7935 40.0333C11.8615 38.9776 12.7266 38.2451 13.7074 38.4121C14.6968 38.5796 15.4244 39.5605 15.3532 40.6332C15.2832 41.7184 14.4404 42.4408 13.4381 42.2773ZM13.5003 41.6058C14.1274 41.6986 14.6957 41.1957 14.7267 40.5242C14.7586 39.8556 14.2605 39.2025 13.6483 39.1116C13.0177 39.0166 12.444 39.5116 12.4147 40.1793C12.3815 40.8708 12.8698 41.5109 13.5003 41.6058Z" fill="#FFEB61"/>
<path d="M17.6253 19.0309C17.5892 19.6686 17.1443 20.0853 16.5862 20.0034C15.9984 19.9178 15.5737 19.361 15.608 18.727C15.6441 18.0893 16.1133 17.6684 16.6813 17.7633C17.2753 17.8598 17.6628 18.3799 17.6253 19.0309ZM17.0925 18.9573C17.1133 18.6649 16.9137 18.3954 16.6442 18.3531C16.3991 18.3162 16.1791 18.5189 16.1539 18.8062C16.1278 19.0906 16.3187 19.3596 16.576 19.3992C16.8438 19.4452 17.0709 19.2467 17.0925 18.9573Z" fill="#FFEB61"/>
<path d="M23.0959 43.0599C22.5569 42.9753 22.1618 42.4223 22.201 41.8125C22.2417 41.1894 22.6719 40.8158 23.2458 40.9025C23.7891 40.9825 24.1916 41.5141 24.1616 42.1081C24.127 42.7326 23.662 43.149 23.0959 43.0599ZM23.6277 42.022C23.6422 41.7637 23.4494 41.5242 23.1947 41.4838C22.9522 41.4461 22.7459 41.6382 22.7334 41.9119C22.7184 42.1865 22.883 42.4089 23.1274 42.4525C23.4014 42.4998 23.6114 42.3194 23.6277 42.022Z" fill="#FFEB61"/>
</svg>
