<svg width="48" height="49" viewBox="0 0 48 49" fill="none" xmlns="http://www.w3.org/2000/svg">
<mask id="path-1-outside-1_784_3372" maskUnits="userSpaceOnUse" x="9.19038" y="2.56876" width="29.1277" height="46.0804" fill="black">
<rect fill="white" x="9.19038" y="2.56876" width="29.1277" height="46.0804"/>
<path d="M18.9275 39.0614C17.7555 39.9896 16.6342 40.9697 16.3249 42.5214C16.0673 43.7109 16.3184 44.8501 16.7731 45.8863C16.8237 45.9899 16.8742 46.0936 16.9248 46.1972C17.0256 46.508 16.9232 46.7665 16.6685 46.921C16.363 47.0754 16.0583 46.9711 15.9066 46.6601C14.8456 44.225 14.7004 41.5853 16.9439 39.3146C17.7087 38.5405 18.5749 37.8701 19.4915 37.3552C20.3573 36.8401 20.9692 36.2208 21.3786 35.2387C21.9926 33.8432 22.7589 32.5516 23.4237 31.1562C24.0886 29.7608 24.4995 28.2612 24.8087 26.7613C24.809 26.6578 24.8096 26.4508 24.759 26.3472C24.1008 25.3621 23.4934 24.3772 22.7844 23.392C22.3252 23.96 21.6632 24.3204 20.9508 24.5254C19.4754 24.8835 18.1546 24.4659 17.1407 23.3763C16.583 22.8055 16.6352 22.3399 17.2974 21.876C18.6728 20.9484 20.0454 21.0039 21.4669 21.7841C21.7715 21.9402 22.0758 22.1998 22.431 22.4595C22.3808 22.2524 22.3302 22.1488 22.2798 21.9934C21.7248 20.4393 21.119 18.8852 21.0219 17.2289C20.973 16.5561 20.7196 16.2448 20.1102 15.9844C18.3835 15.2551 17.0652 13.9577 15.8488 12.5571C15.6462 12.2978 15.4435 12.0385 15.241 11.7274C14.2228 12.1903 13.2063 12.084 12.2414 11.6673C11.2765 11.2507 10.6684 10.5245 10.3662 9.48865C10.165 8.71185 10.4204 8.29857 11.1835 8.14544C12.6586 7.89079 13.8777 8.30818 14.8406 9.44934C15.4487 10.1755 15.955 10.9532 16.5122 11.6792C17.4241 12.872 18.489 13.9099 19.758 14.6379C20.0625 14.8458 20.4181 14.9503 20.8243 15.1584C20.8257 14.6409 20.827 14.1752 20.8283 13.7094C20.8286 13.6059 20.6765 13.4503 20.5243 13.3463C19.5094 12.619 18.6475 11.7369 17.9386 10.6999C17.6348 10.2333 17.382 9.71515 17.0276 9.19667C16.977 9.09303 16.8248 8.98911 16.7233 8.93708C14.9439 8.88038 13.7262 7.94551 13.019 6.28756C12.7664 5.71761 12.6664 5.09634 12.6681 4.47535C12.6699 3.85437 13.0268 3.49311 13.6366 3.59831C15.5172 3.81053 16.9882 5.0566 17.3898 6.9207C17.791 8.94004 19.007 10.4442 20.4269 11.7936C20.5792 11.8975 20.6806 12.0013 20.8835 12.1571C20.9869 11.5364 21.0395 10.9155 21.1936 10.3467C21.3994 9.46756 21.6052 8.5884 21.862 7.65762C21.965 7.19216 22.3213 7.0379 22.626 7.194C22.9307 7.29834 22.981 7.50548 22.8783 7.86744C22.5698 9.10857 22.2106 10.2978 22.0546 11.5394C21.6917 14.0741 21.8881 16.5586 22.4914 19.0442C22.4911 19.1477 22.5418 19.1996 22.5923 19.3033C23.5102 18.3226 24.3773 17.3418 25.2952 16.3611C26.3664 15.1221 27.3866 13.9347 28.4577 12.6956C28.6107 12.5408 28.7637 12.386 28.9676 12.1796C29.1716 11.9731 29.3749 11.9737 29.6286 12.1814C29.8314 12.389 29.8815 12.6479 29.7284 12.8544C29.6771 13.0095 29.5243 13.1126 29.4222 13.2676C28.4531 14.3516 27.5349 15.4358 26.5658 16.5716C27.1733 17.5048 27.8828 18.3347 28.7961 19.01C29.608 19.5815 30.4711 20.0497 31.283 20.6212C31.8919 21.0368 32.5009 21.4525 33.0589 21.9198C33.9718 22.7504 33.7661 23.5778 32.5958 23.885C30.9677 24.2945 29.5454 23.8248 28.2775 22.6828C28.1254 22.5271 28.0242 22.3198 27.923 22.1643C27.7209 21.698 27.8239 21.2325 28.2822 20.9751C28.5877 20.8207 28.8932 20.6663 29.3004 20.5122C27.9804 19.784 26.8138 18.7975 25.953 17.5014L25.9022 17.5012C24.9337 18.3783 23.9653 19.2553 23.3011 20.392C23.1989 20.5987 23.1474 20.8055 23.2484 21.0646C23.8541 22.6705 24.6635 24.1217 25.7274 25.5219C26.9433 27.0778 27.4977 28.8388 26.9838 30.8038C26.5732 32.1999 25.8072 33.3881 24.889 34.4722C23.9708 35.5564 22.9512 36.5368 21.83 37.4652C21.6262 37.6199 21.575 37.775 21.5744 37.982C21.4171 39.6893 21.7686 41.2945 22.7815 42.6945C23.744 43.9909 25.0126 44.8742 26.4854 45.4993C28.1612 46.2284 29.8888 46.5955 31.6678 46.8074C32.9385 46.9662 34.2091 47.125 35.4798 47.2838C35.9372 47.3368 36.3949 47.2863 36.8017 47.2874C36.9542 47.2879 37.2086 47.2368 37.2079 47.4956C37.2072 47.7543 36.9529 47.7536 36.8004 47.7532C34.7157 47.7992 32.5801 47.845 30.4957 47.7874C27.4451 47.7789 24.395 47.5635 21.3966 47.0894C20.4818 46.9316 19.618 46.7222 18.8568 46.2026C17.6387 45.423 17.0839 43.8172 17.4441 42.2657C17.7015 41.1279 18.3142 40.1982 18.9776 39.3203C19.0288 39.2169 19.1307 39.1137 19.2327 39.0105C18.9783 39.0615 18.9784 39.0615 18.9275 39.0614ZM20.2994 39.3757C20.1465 39.5305 20.0445 39.6337 19.9424 39.7887C19.2283 40.6147 18.6158 41.441 18.3079 42.4751C17.8974 43.8195 18.4024 45.0628 19.6208 45.739C20.0776 45.999 20.5348 46.1555 20.992 46.312C23.2779 47.0429 25.6673 47.153 28.0565 47.3149C28.0058 47.263 27.9041 47.2627 27.8534 47.2108C27.0914 46.95 26.2787 46.689 25.517 46.3246C22.5719 44.9709 20.6458 42.7921 20.2994 39.3757ZM25.6699 27.9022C25.1543 30.4883 23.826 32.7615 22.6503 35.0353C23.109 34.6225 23.5169 34.2097 23.925 33.7451C24.7412 32.7641 25.4559 31.7311 25.7644 30.49C26.0209 29.6627 26.0234 28.7829 25.6699 27.9022ZM13.7351 4.73707C13.7815 6.34143 15.0486 7.79393 16.3706 7.74586C16.3747 6.29689 15.1075 4.89613 13.7351 4.73707ZM14.3791 10.8453C14.3793 10.7935 14.3794 10.7418 14.3794 10.7418C14.0262 9.75757 12.7066 8.92592 11.6385 9.0782C11.3333 9.1291 11.3835 9.33623 11.4849 9.44001C11.7383 9.75121 11.9406 10.114 12.245 10.3736C12.9045 10.8929 13.6159 11.0502 14.3791 10.8453ZM18.0579 22.6544C18.6146 23.5874 20.8003 23.8005 21.4636 22.9743C20.7539 22.1961 18.9241 21.984 18.0579 22.6544ZM28.8899 21.8565C29.447 22.6343 31.2758 23.2086 32.09 22.9521C32.3445 22.8493 32.294 22.7457 32.1419 22.59C31.8374 22.3822 31.5839 22.1227 31.2284 21.9665C30.4669 21.5504 29.7041 21.6 28.8899 21.8565Z"/>
</mask>
<path d="M18.9275 39.0614C17.7555 39.9896 16.6342 40.9697 16.3249 42.5214C16.0673 43.7109 16.3184 44.8501 16.7731 45.8863C16.8237 45.9899 16.8742 46.0936 16.9248 46.1972C17.0256 46.508 16.9232 46.7665 16.6685 46.921C16.363 47.0754 16.0583 46.9711 15.9066 46.6601C14.8456 44.225 14.7004 41.5853 16.9439 39.3146C17.7087 38.5405 18.5749 37.8701 19.4915 37.3552C20.3573 36.8401 20.9692 36.2208 21.3786 35.2387C21.9926 33.8432 22.7589 32.5516 23.4237 31.1562C24.0886 29.7608 24.4995 28.2612 24.8087 26.7613C24.809 26.6578 24.8096 26.4508 24.759 26.3472C24.1008 25.3621 23.4934 24.3772 22.7844 23.392C22.3252 23.96 21.6632 24.3204 20.9508 24.5254C19.4754 24.8835 18.1546 24.4659 17.1407 23.3763C16.583 22.8055 16.6352 22.3399 17.2974 21.876C18.6728 20.9484 20.0454 21.0039 21.4669 21.7841C21.7715 21.9402 22.0758 22.1998 22.431 22.4595C22.3808 22.2524 22.3302 22.1488 22.2798 21.9934C21.7248 20.4393 21.119 18.8852 21.0219 17.2289C20.973 16.5561 20.7196 16.2448 20.1102 15.9844C18.3835 15.2551 17.0652 13.9577 15.8488 12.5571C15.6462 12.2978 15.4435 12.0385 15.241 11.7274C14.2228 12.1903 13.2063 12.084 12.2414 11.6673C11.2765 11.2507 10.6684 10.5245 10.3662 9.48865C10.165 8.71185 10.4204 8.29857 11.1835 8.14544C12.6586 7.89079 13.8777 8.30818 14.8406 9.44934C15.4487 10.1755 15.955 10.9532 16.5122 11.6792C17.4241 12.872 18.489 13.9099 19.758 14.6379C20.0625 14.8458 20.4181 14.9503 20.8243 15.1584C20.8257 14.6409 20.827 14.1752 20.8283 13.7094C20.8286 13.6059 20.6765 13.4503 20.5243 13.3463C19.5094 12.619 18.6475 11.7369 17.9386 10.6999C17.6348 10.2333 17.382 9.71515 17.0276 9.19667C16.977 9.09303 16.8248 8.98911 16.7233 8.93708C14.9439 8.88038 13.7262 7.94551 13.019 6.28756C12.7664 5.71761 12.6664 5.09634 12.6681 4.47535C12.6699 3.85437 13.0268 3.49311 13.6366 3.59831C15.5172 3.81053 16.9882 5.0566 17.3898 6.9207C17.791 8.94004 19.007 10.4442 20.4269 11.7936C20.5792 11.8975 20.6806 12.0013 20.8835 12.1571C20.9869 11.5364 21.0395 10.9155 21.1936 10.3467C21.3994 9.46756 21.6052 8.5884 21.862 7.65762C21.965 7.19216 22.3213 7.0379 22.626 7.194C22.9307 7.29834 22.981 7.50548 22.8783 7.86744C22.5698 9.10857 22.2106 10.2978 22.0546 11.5394C21.6917 14.0741 21.8881 16.5586 22.4914 19.0442C22.4911 19.1477 22.5418 19.1996 22.5923 19.3033C23.5102 18.3226 24.3773 17.3418 25.2952 16.3611C26.3664 15.1221 27.3866 13.9347 28.4577 12.6956C28.6107 12.5408 28.7637 12.386 28.9676 12.1796C29.1716 11.9731 29.3749 11.9737 29.6286 12.1814C29.8314 12.389 29.8815 12.6479 29.7284 12.8544C29.6771 13.0095 29.5243 13.1126 29.4222 13.2676C28.4531 14.3516 27.5349 15.4358 26.5658 16.5716C27.1733 17.5048 27.8828 18.3347 28.7961 19.01C29.608 19.5815 30.4711 20.0497 31.283 20.6212C31.8919 21.0368 32.5009 21.4525 33.0589 21.9198C33.9718 22.7504 33.7661 23.5778 32.5958 23.885C30.9677 24.2945 29.5454 23.8248 28.2775 22.6828C28.1254 22.5271 28.0242 22.3198 27.923 22.1643C27.7209 21.698 27.8239 21.2325 28.2822 20.9751C28.5877 20.8207 28.8932 20.6663 29.3004 20.5122C27.9804 19.784 26.8138 18.7975 25.953 17.5014L25.9022 17.5012C24.9337 18.3783 23.9653 19.2553 23.3011 20.392C23.1989 20.5987 23.1474 20.8055 23.2484 21.0646C23.8541 22.6705 24.6635 24.1217 25.7274 25.5219C26.9433 27.0778 27.4977 28.8388 26.9838 30.8038C26.5732 32.1999 25.8072 33.3881 24.889 34.4722C23.9708 35.5564 22.9512 36.5368 21.83 37.4652C21.6262 37.6199 21.575 37.775 21.5744 37.982C21.4171 39.6893 21.7686 41.2945 22.7815 42.6945C23.744 43.9909 25.0126 44.8742 26.4854 45.4993C28.1612 46.2284 29.8888 46.5955 31.6678 46.8074C32.9385 46.9662 34.2091 47.125 35.4798 47.2838C35.9372 47.3368 36.3949 47.2863 36.8017 47.2874C36.9542 47.2879 37.2086 47.2368 37.2079 47.4956C37.2072 47.7543 36.9529 47.7536 36.8004 47.7532C34.7157 47.7992 32.5801 47.845 30.4957 47.7874C27.4451 47.7789 24.395 47.5635 21.3966 47.0894C20.4818 46.9316 19.618 46.7222 18.8568 46.2026C17.6387 45.423 17.0839 43.8172 17.4441 42.2657C17.7015 41.1279 18.3142 40.1982 18.9776 39.3203C19.0288 39.2169 19.1307 39.1137 19.2327 39.0105C18.9783 39.0615 18.9784 39.0615 18.9275 39.0614ZM20.2994 39.3757C20.1465 39.5305 20.0445 39.6337 19.9424 39.7887C19.2283 40.6147 18.6158 41.441 18.3079 42.4751C17.8974 43.8195 18.4024 45.0628 19.6208 45.739C20.0776 45.999 20.5348 46.1555 20.992 46.312C23.2779 47.0429 25.6673 47.153 28.0565 47.3149C28.0058 47.263 27.9041 47.2627 27.8534 47.2108C27.0914 46.95 26.2787 46.689 25.517 46.3246C22.5719 44.9709 20.6458 42.7921 20.2994 39.3757ZM25.6699 27.9022C25.1543 30.4883 23.826 32.7615 22.6503 35.0353C23.109 34.6225 23.5169 34.2097 23.925 33.7451C24.7412 32.7641 25.4559 31.7311 25.7644 30.49C26.0209 29.6627 26.0234 28.7829 25.6699 27.9022ZM13.7351 4.73707C13.7815 6.34143 15.0486 7.79393 16.3706 7.74586C16.3747 6.29689 15.1075 4.89613 13.7351 4.73707ZM14.3791 10.8453C14.3793 10.7935 14.3794 10.7418 14.3794 10.7418C14.0262 9.75757 12.7066 8.92592 11.6385 9.0782C11.3333 9.1291 11.3835 9.33623 11.4849 9.44001C11.7383 9.75121 11.9406 10.114 12.245 10.3736C12.9045 10.8929 13.6159 11.0502 14.3791 10.8453ZM18.0579 22.6544C18.6146 23.5874 20.8003 23.8005 21.4636 22.9743C20.7539 22.1961 18.9241 21.984 18.0579 22.6544ZM28.8899 21.8565C29.447 22.6343 31.2758 23.2086 32.09 22.9521C32.3445 22.8493 32.294 22.7457 32.1419 22.59C31.8374 22.3822 31.5839 22.1227 31.2284 21.9665C30.4669 21.5504 29.7041 21.6 28.8899 21.8565Z" fill="#FFEB61"/>
<path d="M18.9275 39.0614C17.7555 39.9896 16.6342 40.9697 16.3249 42.5214C16.0673 43.7109 16.3184 44.8501 16.7731 45.8863C16.8237 45.9899 16.8742 46.0936 16.9248 46.1972C17.0256 46.508 16.9232 46.7665 16.6685 46.921C16.363 47.0754 16.0583 46.9711 15.9066 46.6601C14.8456 44.225 14.7004 41.5853 16.9439 39.3146C17.7087 38.5405 18.5749 37.8701 19.4915 37.3552C20.3573 36.8401 20.9692 36.2208 21.3786 35.2387C21.9926 33.8432 22.7589 32.5516 23.4237 31.1562C24.0886 29.7608 24.4995 28.2612 24.8087 26.7613C24.809 26.6578 24.8096 26.4508 24.759 26.3472C24.1008 25.3621 23.4934 24.3772 22.7844 23.392C22.3252 23.96 21.6632 24.3204 20.9508 24.5254C19.4754 24.8835 18.1546 24.4659 17.1407 23.3763C16.583 22.8055 16.6352 22.3399 17.2974 21.876C18.6728 20.9484 20.0454 21.0039 21.4669 21.7841C21.7715 21.9402 22.0758 22.1998 22.431 22.4595C22.3808 22.2524 22.3302 22.1488 22.2798 21.9934C21.7248 20.4393 21.119 18.8852 21.0219 17.2289C20.973 16.5561 20.7196 16.2448 20.1102 15.9844C18.3835 15.2551 17.0652 13.9577 15.8488 12.5571C15.6462 12.2978 15.4435 12.0385 15.241 11.7274C14.2228 12.1903 13.2063 12.084 12.2414 11.6673C11.2765 11.2507 10.6684 10.5245 10.3662 9.48865C10.165 8.71185 10.4204 8.29857 11.1835 8.14544C12.6586 7.89079 13.8777 8.30818 14.8406 9.44934C15.4487 10.1755 15.955 10.9532 16.5122 11.6792C17.4241 12.872 18.489 13.9099 19.758 14.6379C20.0625 14.8458 20.4181 14.9503 20.8243 15.1584C20.8257 14.6409 20.827 14.1752 20.8283 13.7094C20.8286 13.6059 20.6765 13.4503 20.5243 13.3463C19.5094 12.619 18.6475 11.7369 17.9386 10.6999C17.6348 10.2333 17.382 9.71515 17.0276 9.19667C16.977 9.09303 16.8248 8.98911 16.7233 8.93708C14.9439 8.88038 13.7262 7.94551 13.019 6.28756C12.7664 5.71761 12.6664 5.09634 12.6681 4.47535C12.6699 3.85437 13.0268 3.49311 13.6366 3.59831C15.5172 3.81053 16.9882 5.0566 17.3898 6.9207C17.791 8.94004 19.007 10.4442 20.4269 11.7936C20.5792 11.8975 20.6806 12.0013 20.8835 12.1571C20.9869 11.5364 21.0395 10.9155 21.1936 10.3467C21.3994 9.46756 21.6052 8.5884 21.862 7.65762C21.965 7.19216 22.3213 7.0379 22.626 7.194C22.9307 7.29834 22.981 7.50548 22.8783 7.86744C22.5698 9.10857 22.2106 10.2978 22.0546 11.5394C21.6917 14.0741 21.8881 16.5586 22.4914 19.0442C22.4911 19.1477 22.5418 19.1996 22.5923 19.3033C23.5102 18.3226 24.3773 17.3418 25.2952 16.3611C26.3664 15.1221 27.3866 13.9347 28.4577 12.6956C28.6107 12.5408 28.7637 12.386 28.9676 12.1796C29.1716 11.9731 29.3749 11.9737 29.6286 12.1814C29.8314 12.389 29.8815 12.6479 29.7284 12.8544C29.6771 13.0095 29.5243 13.1126 29.4222 13.2676C28.4531 14.3516 27.5349 15.4358 26.5658 16.5716C27.1733 17.5048 27.8828 18.3347 28.7961 19.01C29.608 19.5815 30.4711 20.0497 31.283 20.6212C31.8919 21.0368 32.5009 21.4525 33.0589 21.9198C33.9718 22.7504 33.7661 23.5778 32.5958 23.885C30.9677 24.2945 29.5454 23.8248 28.2775 22.6828C28.1254 22.5271 28.0242 22.3198 27.923 22.1643C27.7209 21.698 27.8239 21.2325 28.2822 20.9751C28.5877 20.8207 28.8932 20.6663 29.3004 20.5122C27.9804 19.784 26.8138 18.7975 25.953 17.5014L25.9022 17.5012C24.9337 18.3783 23.9653 19.2553 23.3011 20.392C23.1989 20.5987 23.1474 20.8055 23.2484 21.0646C23.8541 22.6705 24.6635 24.1217 25.7274 25.5219C26.9433 27.0778 27.4977 28.8388 26.9838 30.8038C26.5732 32.1999 25.8072 33.3881 24.889 34.4722C23.9708 35.5564 22.9512 36.5368 21.83 37.4652C21.6262 37.6199 21.575 37.775 21.5744 37.982C21.4171 39.6893 21.7686 41.2945 22.7815 42.6945C23.744 43.9909 25.0126 44.8742 26.4854 45.4993C28.1612 46.2284 29.8888 46.5955 31.6678 46.8074C32.9385 46.9662 34.2091 47.125 35.4798 47.2838C35.9372 47.3368 36.3949 47.2863 36.8017 47.2874C36.9542 47.2879 37.2086 47.2368 37.2079 47.4956C37.2072 47.7543 36.9529 47.7536 36.8004 47.7532C34.7157 47.7992 32.5801 47.845 30.4957 47.7874C27.4451 47.7789 24.395 47.5635 21.3966 47.0894C20.4818 46.9316 19.618 46.7222 18.8568 46.2026C17.6387 45.423 17.0839 43.8172 17.4441 42.2657C17.7015 41.1279 18.3142 40.1982 18.9776 39.3203C19.0288 39.2169 19.1307 39.1137 19.2327 39.0105C18.9783 39.0615 18.9784 39.0615 18.9275 39.0614ZM20.2994 39.3757C20.1465 39.5305 20.0445 39.6337 19.9424 39.7887C19.2283 40.6147 18.6158 41.441 18.3079 42.4751C17.8974 43.8195 18.4024 45.0628 19.6208 45.739C20.0776 45.999 20.5348 46.1555 20.992 46.312C23.2779 47.0429 25.6673 47.153 28.0565 47.3149C28.0058 47.263 27.9041 47.2627 27.8534 47.2108C27.0914 46.95 26.2787 46.689 25.517 46.3246C22.5719 44.9709 20.6458 42.7921 20.2994 39.3757ZM25.6699 27.9022C25.1543 30.4883 23.826 32.7615 22.6503 35.0353C23.109 34.6225 23.5169 34.2097 23.925 33.7451C24.7412 32.7641 25.4559 31.7311 25.7644 30.49C26.0209 29.6627 26.0234 28.7829 25.6699 27.9022ZM13.7351 4.73707C13.7815 6.34143 15.0486 7.79393 16.3706 7.74586C16.3747 6.29689 15.1075 4.89613 13.7351 4.73707ZM14.3791 10.8453C14.3793 10.7935 14.3794 10.7418 14.3794 10.7418C14.0262 9.75757 12.7066 8.92592 11.6385 9.0782C11.3333 9.1291 11.3835 9.33623 11.4849 9.44001C11.7383 9.75121 11.9406 10.114 12.245 10.3736C12.9045 10.8929 13.6159 11.0502 14.3791 10.8453ZM18.0579 22.6544C18.6146 23.5874 20.8003 23.8005 21.4636 22.9743C20.7539 22.1961 18.9241 21.984 18.0579 22.6544ZM28.8899 21.8565C29.447 22.6343 31.2758 23.2086 32.09 22.9521C32.3445 22.8493 32.294 22.7457 32.1419 22.59C31.8374 22.3822 31.5839 22.1227 31.2284 21.9665C30.4669 21.5504 29.7041 21.6 28.8899 21.8565Z" stroke="#FFEB61" stroke-width="0.6" mask="url(#path-1-outside-1_784_3372)"/>
<path d="M27.3626 12.0115L27.3774 12.0145L27.3925 12.0146C29.3552 12.02 31.048 10.4091 31.2126 8.42124C31.2405 8.14323 31.2028 7.88265 31.0606 7.68051C30.9154 7.47399 30.68 7.3548 30.3698 7.32491C29.9031 7.27095 29.3786 7.26858 28.9005 7.37484C27.1567 7.69368 26.0417 8.93373 25.7736 10.6463C25.7194 10.9727 25.7398 11.2617 25.8816 11.4877C26.0257 11.7173 26.2743 11.8493 26.6026 11.9063C26.7361 11.9338 26.8686 11.9476 26.9928 11.9606L26.9961 11.9609C27.1243 11.9743 27.244 11.987 27.3626 12.0115ZM27.1923 10.598C27.2286 10.134 27.5756 9.63613 28.0816 9.25642C28.583 8.8801 29.1995 8.65191 29.7264 8.6902C29.6374 9.23414 29.2991 9.74619 28.8312 10.107C28.3569 10.4727 27.7646 10.6714 27.1923 10.598Z" fill="#FFEB61" stroke="#FFEB61" stroke-width="0.3"/>
<path d="M17.9352 7.43269L17.9352 7.43272L17.9376 7.43544C18.1749 7.70533 18.4301 7.87759 18.708 7.8698C18.988 7.86194 19.229 7.67347 19.4426 7.37662C20.0733 6.52535 20.3914 5.564 20.3943 4.54844C20.3975 3.37157 19.9792 2.35786 19.3592 1.45861L19.3598 1.45823L19.3507 1.44744C19.1878 1.25285 18.9663 1.07737 18.7026 1.04409C18.4263 1.00923 18.1502 1.13508 17.8988 1.44605L18.0155 1.54035L17.8991 1.44568C16.4269 3.25496 16.3672 5.56018 17.9352 7.43269ZM18.1316 4.55625C18.1112 3.93241 18.2507 3.29309 18.5382 2.82009C18.8063 3.16688 18.97 3.72365 18.9955 4.33771C19.0214 4.96346 18.9021 5.615 18.6348 6.10971C18.3262 5.74303 18.1517 5.17239 18.1316 4.55625Z" fill="#FFEB61" stroke="#FFEB61" stroke-width="0.3"/>
<path d="M27.0074 2.47119L27.0076 2.47117L27.0062 2.46482C26.9504 2.20563 26.833 1.9985 26.6405 1.86711C26.4497 1.7369 26.2075 1.69633 25.9317 1.72357C24.8327 1.82709 23.9306 2.25228 23.3025 2.94215C22.6743 3.63207 22.3312 4.57454 22.3281 5.69227C22.3281 5.6994 22.3265 5.71052 22.3244 5.72503C22.3146 5.79393 22.2938 5.93929 22.3782 6.09631C22.3828 6.4552 22.4624 6.74883 22.6621 6.94536C22.8703 7.15025 23.1747 7.21635 23.5472 7.19114C23.7675 7.19084 23.9845 7.13627 24.1805 7.08696L24.1891 7.0848L24.1891 7.08492L24.1951 7.08315C25.1046 6.81365 25.8836 6.11335 26.3959 5.26314C26.9081 4.4129 27.1648 3.39422 27.0074 2.47119ZM24.9916 4.8206C24.632 5.2983 24.1502 5.64526 23.666 5.73505C23.5916 5.20033 23.8176 4.57318 24.2037 4.06752C24.5893 3.56248 25.0968 3.2264 25.5501 3.20842C25.5742 3.74795 25.3545 4.33859 24.9916 4.8206Z" fill="#FFEB61" stroke="#FFEB61" stroke-width="0.3"/>
<path d="M10.6616 13.9309L10.6616 13.9309L10.661 13.9314C10.4328 14.1335 10.3045 14.3785 10.3037 14.644C10.303 14.9076 10.428 15.1636 10.6497 15.3905C11.4396 16.1989 12.342 16.5785 13.5498 16.5819C14.5665 16.5847 15.4662 16.0968 16.2454 15.4134L16.2456 15.4137L16.2531 15.4061C16.473 15.1835 16.6121 14.9317 16.6284 14.6705C16.645 14.4037 16.5318 14.1541 16.3012 13.9474C15.3871 13.1189 14.3723 12.7639 13.3836 12.7949C12.3969 12.8259 11.4483 13.2408 10.6616 13.9309ZM13.4548 14.2012C14.0423 14.2028 14.6159 14.3687 15.0123 14.6832C14.6407 15.0132 14.1123 15.1838 13.5474 15.1822C12.9817 15.1806 12.3925 15.006 11.9117 14.6613C12.3091 14.3576 12.8756 14.1995 13.4548 14.2012Z" fill="#FFEB61" stroke="#FFEB61" stroke-width="0.3"/>
<path d="M33.0695 15.1351L33.0773 15.1355L33.0851 15.1352C34.1369 15.0846 35.0386 14.7107 35.7808 13.9595C36.0478 13.6893 36.2098 13.4048 36.1946 13.1037C36.1794 12.8012 35.9882 12.5322 35.6691 12.2869C34.19 11.0982 32.0786 11.1511 30.5505 12.3776L30.5504 12.3776L30.5487 12.3791C30.2554 12.6219 30.0645 12.8894 30.0477 13.1901C30.0308 13.4934 30.1934 13.7798 30.4873 14.0532L30.4873 14.0533L30.4905 14.0562C31.2235 14.6992 32.0671 15.0786 33.0695 15.1351ZM33.1054 13.6905C32.5574 13.6945 32.0184 13.5315 31.6267 13.2167C31.987 12.9114 32.564 12.7388 33.1506 12.7292C33.7411 12.7195 34.2888 12.8752 34.6008 13.1707C34.2058 13.5114 33.6598 13.6864 33.1054 13.6905Z" fill="#FFEB61" stroke="#FFEB61" stroke-width="0.3"/>
<path d="M34.7521 16.1855L34.7521 16.1851L34.742 16.1858C33.9479 16.2375 33.0535 16.5573 32.2657 17.1949C32.0123 17.3946 31.8669 17.6389 31.8582 17.9078C31.8495 18.1742 31.9761 18.4315 32.1967 18.6577C33.5152 20.0601 35.9024 20.3935 37.5496 18.5676C37.786 18.3278 37.9261 18.0942 37.9097 17.8413C37.8934 17.5918 37.7272 17.3756 37.4939 17.1634L37.4941 17.1632L37.487 17.1574C36.7537 16.5677 35.909 16.1887 34.7521 16.1855ZM34.8499 17.5984C35.3602 17.5998 35.8566 17.7398 36.2022 18.0031C35.8558 18.3031 35.359 18.4503 34.8491 18.4433C34.3425 18.4364 33.8464 18.2775 33.4997 17.9923C33.8465 17.733 34.3417 17.597 34.8499 17.5984Z" fill="#FFEB61" stroke="#FFEB61" stroke-width="0.3"/>
<path d="M14.7962 22.2775L14.8047 22.278L14.8132 22.2776C15.816 22.2267 16.7691 21.7997 17.4597 21.0481C17.7447 20.7591 17.9252 20.474 17.9097 20.1747C17.894 19.8711 17.6808 19.615 17.3425 19.3746C15.859 18.2377 13.5861 18.4486 12.3111 19.8466L12.3111 19.8466L12.3099 19.848C12.0708 20.1168 11.9245 20.3874 11.9397 20.6728C11.955 20.9601 12.1313 21.2155 12.4235 21.4602L12.4234 21.4602L12.427 21.463C13.118 22.0072 13.9129 22.2221 14.7962 22.2775ZM14.8324 20.0454C15.3373 19.9971 15.8842 20.0831 16.3542 20.3133C16.0411 20.6292 15.5505 20.8252 15.0301 20.8729C14.4994 20.9216 13.9703 20.8128 13.6037 20.5531C13.8874 20.2723 14.3299 20.0935 14.8324 20.0454Z" fill="#FFEB61" stroke="#FFEB61" stroke-width="0.3"/>
</svg>
