<svg width="48" height="48" viewBox="0 0 48 48" fill="none" xmlns="http://www.w3.org/2000/svg">
<path d="M24.9321 4.1229C28.9497 4.08042 33.2221 4.37068 37.4379 5.26268C39.3175 5.65913 41.19 6.1016 42.9598 6.85909C44.2731 7.42191 45.5828 8.03428 46.5562 9.15283C47.5367 10.282 47.5367 11.6412 46.5243 12.7385C46.1527 13.1421 45.7243 13.5067 45.2748 13.8288C43.558 15.0535 41.6077 15.7862 39.6113 16.4021C36.1459 17.4747 32.5849 18.0835 28.9709 18.2605C25.9869 18.4056 22.9888 18.4835 20.0048 18.4092C15.3041 18.2888 10.6883 17.5632 6.22827 16.0128C4.90796 15.5562 3.63366 14.9827 2.50804 14.1474C2.02664 13.7898 1.56647 13.3615 1.22312 12.8731C0.4904 11.8253 0.557655 10.6961 1.35055 9.68379C2.09389 8.7316 3.1027 8.12985 4.16462 7.60597C6.84772 6.28212 9.72196 5.58125 12.6422 5.03968C16.6102 4.29634 20.6207 4.11582 24.9321 4.1229ZM18.7518 17.0499C19.2119 17.0499 19.6721 17.0641 20.1322 17.0464C24.5427 16.8871 28.9355 16.526 33.2893 15.7933C35.8379 15.365 38.3653 14.827 40.8112 13.9704C42.0147 13.5491 43.1864 13.0713 44.1598 12.2041C45.3208 11.1705 45.0695 9.92802 44.3332 9.11389C43.8306 8.56169 43.243 8.04489 42.5988 7.67322C39.8803 6.10867 36.9176 5.36179 33.792 5.37241C31.3036 5.38303 28.8152 5.53878 26.3232 5.58834C21.8738 5.67329 17.4668 6.14053 13.0988 6.98652C10.7874 7.43252 8.4689 7.87853 6.27782 8.76699C5.46015 9.09972 4.6531 9.52449 3.95224 10.0519C2.87971 10.8554 2.74166 11.9881 3.50977 13.089C3.81419 13.5244 4.20355 13.9314 4.62832 14.25C6.01942 15.3013 7.60168 15.9632 9.30074 16.3278C12.4157 17.0004 15.5802 17.0889 18.7518 17.0499Z" fill="#FFEB61"/>
<path d="M23.98 19.6551C22.4934 19.6551 21.0067 19.648 19.52 19.6587C18.7767 19.6657 18.0333 19.7011 17.29 19.733C17.1449 19.7401 16.9785 19.7542 16.8617 19.8286C16.7378 19.9064 16.6068 20.0516 16.5856 20.1861C16.5714 20.2781 16.7201 20.4693 16.8298 20.4976C17.5448 20.6923 18.2669 20.8551 18.9855 21.025C19.0457 21.0391 19.1129 21.0356 19.1731 21.0887C16.3484 21.2728 13.5308 21.2091 10.6849 20.94C10.8477 21.0285 11.0035 21.1276 11.1698 21.2055C14.1609 22.5895 17.3183 23.301 20.589 23.6302C24.1252 23.9842 27.6153 23.6975 31.0984 23.1134C33.2895 22.7453 35.339 21.9595 37.3389 21.0144C37.3849 20.9931 37.4203 20.9542 37.4557 20.8799C35.0593 21.5382 32.6346 21.8391 30.1497 21.5772C30.4011 21.5559 30.6524 21.5347 30.9002 21.5135C31.1692 21.4887 31.4382 21.4675 31.7108 21.4427C33.1514 21.3082 34.5248 20.9188 35.8593 20.3808C36.0646 20.2994 36.2026 20.0587 36.3726 19.8887C36.1566 19.8144 35.9372 19.6658 35.7248 19.6728C33.0204 19.779 30.3161 19.9064 27.6118 20.0303C26.4437 20.0834 25.272 20.1436 24.1004 20.1153C24.6844 20.0728 25.272 20.0162 25.8561 19.9914C29.5621 19.818 33.1833 19.1065 36.7725 18.2109C38.9282 17.6729 41.0839 17.1172 43.0414 16.0411C44.1033 15.457 45.0944 14.7491 46.0749 14.1226C46.036 14.1721 45.9581 14.3031 45.8554 14.4057C44.4006 15.896 42.9529 17.3968 41.4768 18.8658C40.5459 19.7896 39.5654 20.6639 38.6132 21.5701C36.861 23.2338 34.7124 24.101 32.4152 24.6886C30.0046 25.3045 27.5516 25.6266 25.0738 25.6974C23.5907 25.7399 22.1004 25.6762 20.6208 25.5594C17.9059 25.347 15.237 24.8797 12.7025 23.8072C11.3079 23.2161 10.1221 22.3312 9.03184 21.3082C6.87969 19.287 4.74525 17.2552 2.60373 15.2234C2.4586 15.0854 2.32763 14.9296 2.22852 14.7349C2.61788 15.0004 3.00372 15.273 3.40016 15.5314C5.15586 16.6782 7.11686 17.3295 9.12741 17.8463C11.7291 18.5153 14.3839 18.8728 17.0599 19.0675C19.3147 19.2304 21.5695 19.3472 23.8278 19.4852C23.8809 19.4888 23.934 19.4994 23.9871 19.5065C23.98 19.556 23.98 19.6056 23.98 19.6551Z" fill="#FFEB61"/>
<path d="M22.7413 43.8811C21.8811 42.9112 20.9891 41.959 20.5502 40.7166C20.2175 39.7786 20.3236 38.8795 20.9573 38.0972C20.8475 37.8636 20.7166 37.6583 20.6528 37.4353C20.5679 37.1486 20.6281 36.8937 20.8652 36.6636C21.5484 36.0123 21.382 35.3575 20.4936 34.9752C20.1042 34.8088 19.7007 34.6141 19.3856 34.3345C18.844 33.8531 18.9007 33.3292 19.4458 32.8478C19.5661 32.7416 19.6476 32.5894 19.7467 32.4584C19.6015 32.3735 19.46 32.2708 19.3077 32.2142C18.9184 32.0655 18.4972 31.9841 18.129 31.7965C17.545 31.4992 17.5096 30.9434 18.0122 30.5222C18.2246 30.3452 18.4653 30.2001 18.7449 30.0019C18.568 29.9736 18.4582 29.9453 18.3449 29.9382C17.6193 29.8957 17.06 29.5559 16.5503 29.0462C14.9999 27.4993 13.4212 25.9772 11.8567 24.441C11.7469 24.3313 11.6549 24.2038 11.5947 24.0269C11.9629 24.2109 12.3274 24.4056 12.6991 24.5826C14.5291 25.4498 16.4937 25.8356 18.4759 26.1294C21.2015 26.533 23.9377 26.6746 26.688 26.3985C28.9641 26.1684 31.2366 25.8958 33.4347 25.2374C34.3834 24.9543 35.2931 24.526 36.2169 24.0835C36.1745 24.1472 36.1461 24.2251 36.0931 24.2782C34.5958 25.7861 33.0843 27.2763 31.6047 28.8019C31.0136 29.4107 30.3481 29.8107 29.4986 29.8922C29.4242 29.8992 29.3499 29.9311 29.2366 29.9629C29.4809 30.1576 29.7039 30.3098 29.8915 30.4939C30.2171 30.816 30.2242 31.2302 29.8313 31.4602C29.3853 31.7222 28.8827 31.8992 28.3871 32.0655C28.0579 32.1753 27.7004 32.2071 27.3995 32.2638C27.5022 32.5682 27.7393 32.9115 27.6756 33.1841C27.6084 33.4708 27.2473 33.6867 26.9995 33.9522C27.3889 34.7699 26.996 35.3079 26.0474 35.7327C25.7146 35.8813 25.4916 35.9981 25.5022 36.4335C25.5093 36.6565 25.3111 36.961 25.1129 37.0955C24.5005 37.5132 23.8457 37.8671 23.205 38.2423C22.8333 38.4618 22.451 38.6671 22.0864 38.8972C21.3962 39.3326 21.1873 39.9697 21.3254 40.7555C21.4953 41.736 21.9413 42.5962 22.4616 43.4245C22.5466 43.5767 22.6457 43.7289 22.7413 43.8811ZM29.7711 27.6692C25.9022 27.7117 22.0475 27.7542 18.1821 27.7966C18.2246 28.494 18.6635 28.855 19.2299 28.9577C20.2104 29.1347 21.205 29.2373 22.1997 29.3152C22.8722 29.3683 23.5483 29.3258 24.2244 29.3258C24.2244 29.3789 24.2279 29.432 24.2279 29.4886C24.0757 29.5099 23.92 29.5382 23.7678 29.5559C22.8829 29.6656 21.9979 29.7683 21.113 29.8922C20.9325 29.9169 20.759 30.0231 20.5856 30.0904C20.5927 30.1364 20.6033 30.1824 20.6104 30.2284C21.7643 30.6319 23.0032 30.4656 24.189 30.6815C23.7324 30.7629 23.2793 30.8054 22.8227 30.855C22.0581 30.9399 21.29 31.0178 20.5254 31.1204C20.3874 31.1381 20.2635 31.2585 20.1325 31.3328C20.2493 31.4284 20.3555 31.5664 20.49 31.6089C20.7166 31.6833 20.9643 31.7328 21.205 31.7293C22.1501 31.7151 23.1023 31.7257 24.0403 31.6302C24.9607 31.5381 25.8775 31.354 26.7836 31.1558C27.0703 31.0921 27.5093 30.9611 27.4243 30.5682C27.3889 30.3983 26.9712 30.2567 26.7057 30.2001C26.196 30.0939 25.6721 30.055 25.0385 29.9736C25.7642 29.8178 26.4013 29.7399 26.996 29.5382C27.7677 29.2727 28.5216 28.9329 29.2543 28.5718C29.5835 28.4126 29.8101 28.1011 29.7711 27.6692ZM23.6404 33.7186C23.6333 33.6973 23.6297 33.6796 23.6227 33.6584C23.92 33.5947 24.2209 33.5416 24.5147 33.4602C25.0421 33.308 25.5695 33.1487 26.0898 32.9646C26.1925 32.9292 26.2491 32.7735 26.327 32.6708C26.2137 32.5894 26.104 32.5045 25.9872 32.4337C25.9447 32.4089 25.881 32.4195 25.8279 32.4124C24.3908 32.2071 23.0032 32.5186 21.6192 32.8443C21.4422 32.8867 21.2687 32.9965 21.1272 33.1133C20.7413 33.4354 20.7944 33.9168 21.2475 34.1327C21.4882 34.246 21.7572 34.3309 22.0192 34.3557C22.6599 34.4159 23.3005 34.4371 23.9696 34.4725C23.5979 34.9398 22.8864 34.6106 22.4829 35.0283C22.9607 35.4106 24.8332 35.2371 25.2969 34.9115C25.4633 34.7947 25.658 34.5575 25.6403 34.3982C25.6226 34.2389 25.3713 34.0301 25.1872 33.9841C24.681 33.8531 24.1572 33.8 23.6404 33.7186ZM22.2209 37.2937C22.267 37.3291 22.3165 37.3645 22.3625 37.4034C22.8545 37.1592 23.3643 36.9433 23.8315 36.6636C24.0262 36.5468 24.143 36.2919 24.2952 36.1008C24.0828 36.0123 23.8775 35.8849 23.6545 35.8424C22.9643 35.715 22.8864 35.7681 22.5784 36.3911C22.5076 36.5362 22.4156 36.6742 22.3554 36.8229C22.2953 36.9751 22.2634 37.1379 22.2209 37.2937Z" fill="#FFEB61"/>
<path d="M35.7957 6.67505C35.9868 6.71753 36.178 6.75646 36.3656 6.80602C37.7142 7.16353 39.0558 7.54936 40.2628 8.26792C40.6769 8.51216 41.0592 8.83073 41.399 9.17054C42.0539 9.81831 42.0751 10.6395 41.4911 11.3616C40.8893 12.105 40.0469 12.4908 39.1867 12.82C37.3355 13.5244 35.4028 13.9385 33.4524 14.2571C30.6985 14.7066 27.9375 15.1066 25.1447 15.1633C22.589 15.2128 20.0263 15.2057 17.4777 15.0642C14.8194 14.919 12.161 14.6571 9.58768 13.889C8.66382 13.6129 7.76473 13.2801 6.98599 12.689C5.89576 11.8643 5.89222 10.8944 6.98599 10.0696C7.26563 9.86079 7.57005 9.65901 7.8957 9.5422C8.9116 9.17761 9.93103 8.80595 10.9717 8.5334C12.9398 8.0166 14.9574 7.82191 16.9857 7.75111C17.8777 7.71926 18.7661 7.71571 19.6582 7.69448C19.7997 7.69094 19.9413 7.6697 20.0971 7.73342C19.5484 7.80421 18.9998 7.86438 18.4511 7.94934C15.9131 8.34224 13.3681 8.73516 10.9363 9.59177C10.331 9.80415 9.72927 10.0909 9.20185 10.4555C8.22489 11.1351 8.15764 11.8572 9.27265 12.6182C9.86024 13.0217 10.5753 13.2731 11.269 13.4819C13.2336 14.073 15.2583 14.3987 17.3042 14.4341C19.8741 14.4801 22.4474 14.4872 25.0137 14.3456C28.3765 14.1615 31.7427 13.8713 35.0028 12.9616C36.139 12.643 37.2717 12.2218 38.316 11.6766C39.969 10.8165 40.061 9.30504 38.546 8.21481C37.8416 7.70864 37.0027 7.39006 36.224 6.99008C36.0753 6.9122 35.9125 6.85911 35.7567 6.79185C35.7674 6.76 35.7815 6.71753 35.7957 6.67505Z" fill="#FFEB61"/>
<path d="M13.7432 11.652C19.8102 10.0131 25.9268 9.81484 32.0859 11.0573C25.9622 10.8909 19.835 10.7458 13.7432 11.652Z" fill="#FFEB61"/>
<path d="M23.1699 7.66612C27.6406 7.62364 32.1183 7.55639 36.3766 9.25899C36.373 9.31208 36.366 9.36872 36.3624 9.42181C35.92 9.37934 35.4739 9.3581 35.0386 9.29084C32.4723 8.89086 29.9131 8.44485 27.3432 8.0838C26.0866 7.90682 24.8088 7.88204 23.5381 7.79001C23.4106 7.77939 23.2832 7.77585 23.1558 7.76877C23.1593 7.73692 23.1664 7.70152 23.1699 7.66612Z" fill="#FFEB61"/>
</svg>
