<svg width="48" height="48" viewBox="0 0 48 48" fill="none" xmlns="http://www.w3.org/2000/svg">
<mask id="path-1-outside-1_784_3310" maskUnits="userSpaceOnUse" x="5.18604" y="8.03101" width="37" height="32" fill="black">
<rect fill="white" x="5.18604" y="8.03101" width="37" height="32"/>
<path d="M8.02138 19.3664C8.82963 18.0867 9.99125 17.2796 11.4799 16.9036C13.0137 16.5139 14.5889 16.4311 16.164 16.5966C18.0888 16.8001 19.9985 17.1037 21.9233 17.2934C23.7165 17.4728 25.4946 17.3555 27.1901 16.7139C28.9231 16.0586 30.1336 14.9134 30.9118 13.3198C30.6749 13.1129 30.4569 12.9266 30.2464 12.7369C29.378 11.9608 28.9381 11.0123 28.9306 9.90162C28.9269 9.21176 29.081 9.06344 29.8178 9.03585C31.205 8.98411 32.4606 9.34628 33.5245 10.1603C33.953 10.488 34.3553 10.5949 34.9117 10.588C36.859 10.557 38.7875 10.7122 40.5544 11.5814C40.8702 11.7366 41.1784 11.9298 41.4265 12.1643C41.9265 12.6369 41.9566 13.2509 41.4378 13.7269C41.0619 14.0718 40.5995 14.396 40.1108 14.5685C39.0431 14.9444 37.9304 15.2169 36.8327 15.5308C36.6898 15.5722 36.547 15.6136 36.3815 15.6619C36.2612 16.1551 36.1522 16.6415 36.0282 17.1209C35.3402 19.7769 33.8403 21.9878 31.5696 23.7332C31.0734 24.1126 30.8967 24.5368 30.8215 25.0784C30.4494 27.7378 30.72 30.3523 31.4907 32.922C31.9869 34.5811 32.5508 36.2195 33.0734 37.8717C33.1636 38.1546 33.2049 38.4477 33.2876 38.834C32.9042 38.8823 32.6147 38.9479 32.329 38.9479C30.3591 38.9582 28.393 38.9651 26.4232 38.9582C25.551 38.9548 25.4457 38.841 25.4194 38.0338C25.3593 36.2575 25.348 34.4776 25.2202 32.7047C25.0886 30.9249 24.5661 29.2209 23.7089 27.586C22.3969 27.7585 21.1376 27.6515 19.8932 27.3963C19.5211 27.3204 19.288 27.4032 19.0474 27.6895C18.491 28.3448 17.9008 28.983 17.2768 29.5831C16.9685 29.8832 16.961 30.1281 17.1414 30.4696C17.788 31.6941 18.4083 32.9324 19.0474 34.1603C19.6978 35.4124 20.3669 36.661 21.006 37.9166C21.1376 38.1752 21.1827 38.4719 21.288 38.8237C20.2504 39.0307 19.3218 38.941 18.4008 38.8823C18.2655 38.872 18.1113 38.6961 18.0211 38.5616C16.3971 36.2161 14.7806 33.8706 13.1641 31.5216C13.0513 31.356 12.9611 31.1801 12.8709 31.0042C12.5325 30.342 12.5438 30.2592 13.1867 29.8418C14.3821 29.0623 15.4234 28.1448 16.2806 26.9375C15.7505 26.9341 15.3783 27.1376 15.0513 27.379C14.5814 27.7274 14.149 28.1172 13.7092 28.5C13.2468 28.9002 12.8521 29.39 12.3295 29.7038C11.6002 30.1419 11.4574 30.7214 11.5927 31.4147C11.9123 33.0531 12.2506 34.6846 12.5964 36.3195C12.7694 37.1267 12.9724 37.9269 13.1791 38.8099C12.1679 39.0376 11.2619 38.972 10.3747 38.9099C10.1792 38.8961 9.93486 38.5581 9.84464 38.327C9.43487 37.2819 9.07398 36.223 8.68677 35.1709C8.16047 33.7498 7.6492 32.3253 7.08531 30.918C6.86727 30.3765 6.91238 30.0143 7.44244 29.628C8.51384 28.8484 9.25443 27.8412 9.51382 26.5823C9.70179 25.6751 9.66419 24.768 8.97624 24.054C7.92363 22.964 7.44996 21.7429 7.69808 20.2839C6.93118 19.8493 6.37104 19.2871 6.23571 18.4558C6.20187 18.2385 6.14924 17.9936 6.22443 17.8004C6.2921 17.628 6.49886 17.4555 6.69058 17.3969C6.77705 17.3693 7.00637 17.5969 7.09283 17.7452C7.17177 17.8832 7.1417 18.0695 7.16801 18.235C7.25448 18.7904 7.29959 18.8525 8.02138 19.3664ZM40.8739 12.9542C40.5356 12.4196 39.9604 12.2161 39.4078 12.0195C37.9153 11.4848 36.3402 11.3814 34.765 11.4641C34.047 11.5021 33.517 11.371 32.9794 10.9122C32.1411 10.1983 31.1185 9.83263 29.8667 9.92921C29.9043 10.2258 29.893 10.4776 29.9682 10.7087C30.205 11.4572 30.7163 12.0264 31.393 12.4886C32.0508 12.9404 32.0508 12.9577 31.7614 13.6648C31.2163 14.9789 30.299 16.0275 29.0208 16.7967C27.487 17.7142 25.7954 18.1523 23.9646 18.1936C22.1676 18.2316 20.4083 17.9867 18.6376 17.7625C17.2317 17.5866 15.8182 17.4003 14.4047 17.3693C13.01 17.3382 11.6303 17.5797 10.4123 18.2902C9.29202 18.9456 8.6379 19.8562 8.59655 21.1014C8.57023 21.9292 8.93489 22.6156 9.4875 23.2296C10.0176 23.8194 10.4273 24.4575 10.5025 25.237C10.6153 26.3753 10.4085 27.4722 9.73937 28.438C9.24315 29.1554 8.62286 29.8039 7.99506 30.5593C8.87098 32.9737 9.78449 35.4952 10.6905 37.9993C11.1829 37.9993 11.5927 37.9993 12.0551 37.9993C11.7393 36.6921 11.416 35.4538 11.1378 34.2051C10.8596 32.9531 10.5927 31.6975 10.6717 30.4075C10.6905 30.0936 10.7318 29.8211 11.0138 29.5866C11.9085 28.8381 12.7807 28.0654 13.6641 27.3066C15.1302 26.0407 16.758 25.5854 18.7391 26.2649C20.2842 26.7961 21.912 26.941 23.5661 26.7168C24.2653 26.6202 24.3029 26.665 24.6037 27.2549C25.2691 28.5449 25.7766 29.8936 25.9269 31.3043C26.1337 33.2083 26.1863 35.1261 26.3029 37.0404C26.3217 37.3612 26.3292 37.6854 26.3405 37.9993C27.3329 37.9993 28.2201 37.9993 29.1487 37.9993C28.8366 36.5679 28.5096 35.2123 28.2502 33.8464C27.8667 31.8148 27.6111 29.7763 27.957 27.7102C28.2427 26.0062 28.8066 24.4644 30.5058 23.4848C30.7351 23.3537 30.923 23.164 31.126 22.995C33.4944 21.0117 34.9493 18.5765 35.4041 15.655C35.5282 14.8686 35.5432 14.8927 36.3665 14.7064C37.4492 14.4615 38.5168 14.1615 39.5732 13.8303C40.0657 13.6682 40.5619 13.4268 40.8739 12.9542ZM17.4535 26.9203C16.4648 28.4242 15.1941 29.5969 13.6904 30.6283C13.9009 30.9835 14.0701 31.3078 14.2806 31.6078C15.6415 33.5739 17.0023 35.54 18.3858 37.4957C18.867 38.1787 18.9647 38.1821 19.976 37.9062C19.8632 37.6786 19.7542 37.4543 19.6376 37.2336C18.476 35.0088 17.3031 32.784 16.1527 30.5558C15.7279 29.7383 15.7731 29.7487 16.4873 29.0795C17.0775 28.5276 17.6076 27.9206 18.1565 27.3308C18.2053 27.2756 18.2091 27.1824 18.2467 27.0721C17.991 27.0238 17.7617 26.9789 17.4535 26.9203ZM29.8291 25.6682C29.7501 25.6544 29.6674 25.6372 29.5885 25.6234C29.4607 25.92 29.3065 26.2063 29.2088 26.5098C28.8329 27.6653 28.69 28.8484 28.7238 30.0488C28.8066 32.7564 29.4644 35.3779 30.1674 38.0614C30.5471 38.0614 30.9042 38.0649 31.2651 38.0614C31.532 38.058 31.7952 38.0407 32.1448 38.0235C30.7802 33.9602 29.299 29.9729 29.8291 25.6682Z"/>
</mask>
<path d="M8.02138 19.3664C8.82963 18.0867 9.99125 17.2796 11.4799 16.9036C13.0137 16.5139 14.5889 16.4311 16.164 16.5966C18.0888 16.8001 19.9985 17.1037 21.9233 17.2934C23.7165 17.4728 25.4946 17.3555 27.1901 16.7139C28.9231 16.0586 30.1336 14.9134 30.9118 13.3198C30.6749 13.1129 30.4569 12.9266 30.2464 12.7369C29.378 11.9608 28.9381 11.0123 28.9306 9.90162C28.9269 9.21176 29.081 9.06344 29.8178 9.03585C31.205 8.98411 32.4606 9.34628 33.5245 10.1603C33.953 10.488 34.3553 10.5949 34.9117 10.588C36.859 10.557 38.7875 10.7122 40.5544 11.5814C40.8702 11.7366 41.1784 11.9298 41.4265 12.1643C41.9265 12.6369 41.9566 13.2509 41.4378 13.7269C41.0619 14.0718 40.5995 14.396 40.1108 14.5685C39.0431 14.9444 37.9304 15.2169 36.8327 15.5308C36.6898 15.5722 36.547 15.6136 36.3815 15.6619C36.2612 16.1551 36.1522 16.6415 36.0282 17.1209C35.3402 19.7769 33.8403 21.9878 31.5696 23.7332C31.0734 24.1126 30.8967 24.5368 30.8215 25.0784C30.4494 27.7378 30.72 30.3523 31.4907 32.922C31.9869 34.5811 32.5508 36.2195 33.0734 37.8717C33.1636 38.1546 33.2049 38.4477 33.2876 38.834C32.9042 38.8823 32.6147 38.9479 32.329 38.9479C30.3591 38.9582 28.393 38.9651 26.4232 38.9582C25.551 38.9548 25.4457 38.841 25.4194 38.0338C25.3593 36.2575 25.348 34.4776 25.2202 32.7047C25.0886 30.9249 24.5661 29.2209 23.7089 27.586C22.3969 27.7585 21.1376 27.6515 19.8932 27.3963C19.5211 27.3204 19.288 27.4032 19.0474 27.6895C18.491 28.3448 17.9008 28.983 17.2768 29.5831C16.9685 29.8832 16.961 30.1281 17.1414 30.4696C17.788 31.6941 18.4083 32.9324 19.0474 34.1603C19.6978 35.4124 20.3669 36.661 21.006 37.9166C21.1376 38.1752 21.1827 38.4719 21.288 38.8237C20.2504 39.0307 19.3218 38.941 18.4008 38.8823C18.2655 38.872 18.1113 38.6961 18.0211 38.5616C16.3971 36.2161 14.7806 33.8706 13.1641 31.5216C13.0513 31.356 12.9611 31.1801 12.8709 31.0042C12.5325 30.342 12.5438 30.2592 13.1867 29.8418C14.3821 29.0623 15.4234 28.1448 16.2806 26.9375C15.7505 26.9341 15.3783 27.1376 15.0513 27.379C14.5814 27.7274 14.149 28.1172 13.7092 28.5C13.2468 28.9002 12.8521 29.39 12.3295 29.7038C11.6002 30.1419 11.4574 30.7214 11.5927 31.4147C11.9123 33.0531 12.2506 34.6846 12.5964 36.3195C12.7694 37.1267 12.9724 37.9269 13.1791 38.8099C12.1679 39.0376 11.2619 38.972 10.3747 38.9099C10.1792 38.8961 9.93486 38.5581 9.84464 38.327C9.43487 37.2819 9.07398 36.223 8.68677 35.1709C8.16047 33.7498 7.6492 32.3253 7.08531 30.918C6.86727 30.3765 6.91238 30.0143 7.44244 29.628C8.51384 28.8484 9.25443 27.8412 9.51382 26.5823C9.70179 25.6751 9.66419 24.768 8.97624 24.054C7.92363 22.964 7.44996 21.7429 7.69808 20.2839C6.93118 19.8493 6.37104 19.2871 6.23571 18.4558C6.20187 18.2385 6.14924 17.9936 6.22443 17.8004C6.2921 17.628 6.49886 17.4555 6.69058 17.3969C6.77705 17.3693 7.00637 17.5969 7.09283 17.7452C7.17177 17.8832 7.1417 18.0695 7.16801 18.235C7.25448 18.7904 7.29959 18.8525 8.02138 19.3664ZM40.8739 12.9542C40.5356 12.4196 39.9604 12.2161 39.4078 12.0195C37.9153 11.4848 36.3402 11.3814 34.765 11.4641C34.047 11.5021 33.517 11.371 32.9794 10.9122C32.1411 10.1983 31.1185 9.83263 29.8667 9.92921C29.9043 10.2258 29.893 10.4776 29.9682 10.7087C30.205 11.4572 30.7163 12.0264 31.393 12.4886C32.0508 12.9404 32.0508 12.9577 31.7614 13.6648C31.2163 14.9789 30.299 16.0275 29.0208 16.7967C27.487 17.7142 25.7954 18.1523 23.9646 18.1936C22.1676 18.2316 20.4083 17.9867 18.6376 17.7625C17.2317 17.5866 15.8182 17.4003 14.4047 17.3693C13.01 17.3382 11.6303 17.5797 10.4123 18.2902C9.29202 18.9456 8.6379 19.8562 8.59655 21.1014C8.57023 21.9292 8.93489 22.6156 9.4875 23.2296C10.0176 23.8194 10.4273 24.4575 10.5025 25.237C10.6153 26.3753 10.4085 27.4722 9.73937 28.438C9.24315 29.1554 8.62286 29.8039 7.99506 30.5593C8.87098 32.9737 9.78449 35.4952 10.6905 37.9993C11.1829 37.9993 11.5927 37.9993 12.0551 37.9993C11.7393 36.6921 11.416 35.4538 11.1378 34.2051C10.8596 32.9531 10.5927 31.6975 10.6717 30.4075C10.6905 30.0936 10.7318 29.8211 11.0138 29.5866C11.9085 28.8381 12.7807 28.0654 13.6641 27.3066C15.1302 26.0407 16.758 25.5854 18.7391 26.2649C20.2842 26.7961 21.912 26.941 23.5661 26.7168C24.2653 26.6202 24.3029 26.665 24.6037 27.2549C25.2691 28.5449 25.7766 29.8936 25.9269 31.3043C26.1337 33.2083 26.1863 35.1261 26.3029 37.0404C26.3217 37.3612 26.3292 37.6854 26.3405 37.9993C27.3329 37.9993 28.2201 37.9993 29.1487 37.9993C28.8366 36.5679 28.5096 35.2123 28.2502 33.8464C27.8667 31.8148 27.6111 29.7763 27.957 27.7102C28.2427 26.0062 28.8066 24.4644 30.5058 23.4848C30.7351 23.3537 30.923 23.164 31.126 22.995C33.4944 21.0117 34.9493 18.5765 35.4041 15.655C35.5282 14.8686 35.5432 14.8927 36.3665 14.7064C37.4492 14.4615 38.5168 14.1615 39.5732 13.8303C40.0657 13.6682 40.5619 13.4268 40.8739 12.9542ZM17.4535 26.9203C16.4648 28.4242 15.1941 29.5969 13.6904 30.6283C13.9009 30.9835 14.0701 31.3078 14.2806 31.6078C15.6415 33.5739 17.0023 35.54 18.3858 37.4957C18.867 38.1787 18.9647 38.1821 19.976 37.9062C19.8632 37.6786 19.7542 37.4543 19.6376 37.2336C18.476 35.0088 17.3031 32.784 16.1527 30.5558C15.7279 29.7383 15.7731 29.7487 16.4873 29.0795C17.0775 28.5276 17.6076 27.9206 18.1565 27.3308C18.2053 27.2756 18.2091 27.1824 18.2467 27.0721C17.991 27.0238 17.7617 26.9789 17.4535 26.9203ZM29.8291 25.6682C29.7501 25.6544 29.6674 25.6372 29.5885 25.6234C29.4607 25.92 29.3065 26.2063 29.2088 26.5098C28.8329 27.6653 28.69 28.8484 28.7238 30.0488C28.8066 32.7564 29.4644 35.3779 30.1674 38.0614C30.5471 38.0614 30.9042 38.0649 31.2651 38.0614C31.532 38.058 31.7952 38.0407 32.1448 38.0235C30.7802 33.9602 29.299 29.9729 29.8291 25.6682Z" fill="#FFEB61"/>
<path d="M8.02138 19.3664C8.82963 18.0867 9.99125 17.2796 11.4799 16.9036C13.0137 16.5139 14.5889 16.4311 16.164 16.5966C18.0888 16.8001 19.9985 17.1037 21.9233 17.2934C23.7165 17.4728 25.4946 17.3555 27.1901 16.7139C28.9231 16.0586 30.1336 14.9134 30.9118 13.3198C30.6749 13.1129 30.4569 12.9266 30.2464 12.7369C29.378 11.9608 28.9381 11.0123 28.9306 9.90162C28.9269 9.21176 29.081 9.06344 29.8178 9.03585C31.205 8.98411 32.4606 9.34628 33.5245 10.1603C33.953 10.488 34.3553 10.5949 34.9117 10.588C36.859 10.557 38.7875 10.7122 40.5544 11.5814C40.8702 11.7366 41.1784 11.9298 41.4265 12.1643C41.9265 12.6369 41.9566 13.2509 41.4378 13.7269C41.0619 14.0718 40.5995 14.396 40.1108 14.5685C39.0431 14.9444 37.9304 15.2169 36.8327 15.5308C36.6898 15.5722 36.547 15.6136 36.3815 15.6619C36.2612 16.1551 36.1522 16.6415 36.0282 17.1209C35.3402 19.7769 33.8403 21.9878 31.5696 23.7332C31.0734 24.1126 30.8967 24.5368 30.8215 25.0784C30.4494 27.7378 30.72 30.3523 31.4907 32.922C31.9869 34.5811 32.5508 36.2195 33.0734 37.8717C33.1636 38.1546 33.2049 38.4477 33.2876 38.834C32.9042 38.8823 32.6147 38.9479 32.329 38.9479C30.3591 38.9582 28.393 38.9651 26.4232 38.9582C25.551 38.9548 25.4457 38.841 25.4194 38.0338C25.3593 36.2575 25.348 34.4776 25.2202 32.7047C25.0886 30.9249 24.5661 29.2209 23.7089 27.586C22.3969 27.7585 21.1376 27.6515 19.8932 27.3963C19.5211 27.3204 19.288 27.4032 19.0474 27.6895C18.491 28.3448 17.9008 28.983 17.2768 29.5831C16.9685 29.8832 16.961 30.1281 17.1414 30.4696C17.788 31.6941 18.4083 32.9324 19.0474 34.1603C19.6978 35.4124 20.3669 36.661 21.006 37.9166C21.1376 38.1752 21.1827 38.4719 21.288 38.8237C20.2504 39.0307 19.3218 38.941 18.4008 38.8823C18.2655 38.872 18.1113 38.6961 18.0211 38.5616C16.3971 36.2161 14.7806 33.8706 13.1641 31.5216C13.0513 31.356 12.9611 31.1801 12.8709 31.0042C12.5325 30.342 12.5438 30.2592 13.1867 29.8418C14.3821 29.0623 15.4234 28.1448 16.2806 26.9375C15.7505 26.9341 15.3783 27.1376 15.0513 27.379C14.5814 27.7274 14.149 28.1172 13.7092 28.5C13.2468 28.9002 12.8521 29.39 12.3295 29.7038C11.6002 30.1419 11.4574 30.7214 11.5927 31.4147C11.9123 33.0531 12.2506 34.6846 12.5964 36.3195C12.7694 37.1267 12.9724 37.9269 13.1791 38.8099C12.1679 39.0376 11.2619 38.972 10.3747 38.9099C10.1792 38.8961 9.93486 38.5581 9.84464 38.327C9.43487 37.2819 9.07398 36.223 8.68677 35.1709C8.16047 33.7498 7.6492 32.3253 7.08531 30.918C6.86727 30.3765 6.91238 30.0143 7.44244 29.628C8.51384 28.8484 9.25443 27.8412 9.51382 26.5823C9.70179 25.6751 9.66419 24.768 8.97624 24.054C7.92363 22.964 7.44996 21.7429 7.69808 20.2839C6.93118 19.8493 6.37104 19.2871 6.23571 18.4558C6.20187 18.2385 6.14924 17.9936 6.22443 17.8004C6.2921 17.628 6.49886 17.4555 6.69058 17.3969C6.77705 17.3693 7.00637 17.5969 7.09283 17.7452C7.17177 17.8832 7.1417 18.0695 7.16801 18.235C7.25448 18.7904 7.29959 18.8525 8.02138 19.3664ZM40.8739 12.9542C40.5356 12.4196 39.9604 12.2161 39.4078 12.0195C37.9153 11.4848 36.3402 11.3814 34.765 11.4641C34.047 11.5021 33.517 11.371 32.9794 10.9122C32.1411 10.1983 31.1185 9.83263 29.8667 9.92921C29.9043 10.2258 29.893 10.4776 29.9682 10.7087C30.205 11.4572 30.7163 12.0264 31.393 12.4886C32.0508 12.9404 32.0508 12.9577 31.7614 13.6648C31.2163 14.9789 30.299 16.0275 29.0208 16.7967C27.487 17.7142 25.7954 18.1523 23.9646 18.1936C22.1676 18.2316 20.4083 17.9867 18.6376 17.7625C17.2317 17.5866 15.8182 17.4003 14.4047 17.3693C13.01 17.3382 11.6303 17.5797 10.4123 18.2902C9.29202 18.9456 8.6379 19.8562 8.59655 21.1014C8.57023 21.9292 8.93489 22.6156 9.4875 23.2296C10.0176 23.8194 10.4273 24.4575 10.5025 25.237C10.6153 26.3753 10.4085 27.4722 9.73937 28.438C9.24315 29.1554 8.62286 29.8039 7.99506 30.5593C8.87098 32.9737 9.78449 35.4952 10.6905 37.9993C11.1829 37.9993 11.5927 37.9993 12.0551 37.9993C11.7393 36.6921 11.416 35.4538 11.1378 34.2051C10.8596 32.9531 10.5927 31.6975 10.6717 30.4075C10.6905 30.0936 10.7318 29.8211 11.0138 29.5866C11.9085 28.8381 12.7807 28.0654 13.6641 27.3066C15.1302 26.0407 16.758 25.5854 18.7391 26.2649C20.2842 26.7961 21.912 26.941 23.5661 26.7168C24.2653 26.6202 24.3029 26.665 24.6037 27.2549C25.2691 28.5449 25.7766 29.8936 25.9269 31.3043C26.1337 33.2083 26.1863 35.1261 26.3029 37.0404C26.3217 37.3612 26.3292 37.6854 26.3405 37.9993C27.3329 37.9993 28.2201 37.9993 29.1487 37.9993C28.8366 36.5679 28.5096 35.2123 28.2502 33.8464C27.8667 31.8148 27.6111 29.7763 27.957 27.7102C28.2427 26.0062 28.8066 24.4644 30.5058 23.4848C30.7351 23.3537 30.923 23.164 31.126 22.995C33.4944 21.0117 34.9493 18.5765 35.4041 15.655C35.5282 14.8686 35.5432 14.8927 36.3665 14.7064C37.4492 14.4615 38.5168 14.1615 39.5732 13.8303C40.0657 13.6682 40.5619 13.4268 40.8739 12.9542ZM17.4535 26.9203C16.4648 28.4242 15.1941 29.5969 13.6904 30.6283C13.9009 30.9835 14.0701 31.3078 14.2806 31.6078C15.6415 33.5739 17.0023 35.54 18.3858 37.4957C18.867 38.1787 18.9647 38.1821 19.976 37.9062C19.8632 37.6786 19.7542 37.4543 19.6376 37.2336C18.476 35.0088 17.3031 32.784 16.1527 30.5558C15.7279 29.7383 15.7731 29.7487 16.4873 29.0795C17.0775 28.5276 17.6076 27.9206 18.1565 27.3308C18.2053 27.2756 18.2091 27.1824 18.2467 27.0721C17.991 27.0238 17.7617 26.9789 17.4535 26.9203ZM29.8291 25.6682C29.7501 25.6544 29.6674 25.6372 29.5885 25.6234C29.4607 25.92 29.3065 26.2063 29.2088 26.5098C28.8329 27.6653 28.69 28.8484 28.7238 30.0488C28.8066 32.7564 29.4644 35.3779 30.1674 38.0614C30.5471 38.0614 30.9042 38.0649 31.2651 38.0614C31.532 38.058 31.7952 38.0407 32.1448 38.0235C30.7802 33.9602 29.299 29.9729 29.8291 25.6682Z" stroke="#FFEB61" stroke-width="0.2" stroke-miterlimit="10" mask="url(#path-1-outside-1_784_3310)"/>
</svg>
