<svg width="48" height="49" viewBox="0 0 48 49" fill="none" xmlns="http://www.w3.org/2000/svg">
<path d="M23.4938 46.1827C23.4938 41.9815 23.4938 37.7186 23.432 33.4556C23.432 33.3938 23.432 33.2702 23.432 33.2085C22.8142 33.8263 22.2582 34.4441 21.7021 35.0619C19.5397 37.1007 17.0067 38.4599 14.1647 39.2631C13.238 39.5102 12.373 39.3867 11.4463 39.0778C9.09855 38.3364 7.05973 37.039 5.20626 35.4944C4.65022 35.0001 4.09419 34.5059 3.53815 34.0734C3.29102 33.8263 3.22923 33.6409 3.3528 33.3938C3.47636 33.1467 3.66171 33.0849 4.03241 33.1467C6.5037 33.6409 8.97498 33.8263 11.4463 33.8881C13.2997 33.9498 15.1532 33.7645 16.9449 33.5174C18.7366 33.2702 20.4665 32.8378 22.1346 32.2199C22.5053 32.0964 22.876 31.911 23.3085 31.7257C23.3703 31.6639 23.4938 31.6021 23.4938 31.5403C23.4938 30.6136 23.4938 29.7487 23.4938 28.7601C23.1849 28.8837 22.876 29.0073 22.6289 29.1308C19.9104 30.1811 17.0684 30.9225 14.1029 31.0461C12.6201 31.1079 11.1991 30.9843 9.90172 30.2429C9.40746 29.9958 8.97498 29.6869 8.5425 29.378C8.17181 29.1308 8.17182 28.8219 8.35716 28.4512C8.85142 27.7098 9.53103 27.092 10.2724 26.5978C10.396 26.536 10.5195 26.536 10.6431 26.536C12.4966 27.0302 14.4118 26.9685 16.3271 26.7213C18.7366 26.4124 21.0225 25.671 23.1849 24.6825C23.3702 24.5589 23.432 24.4972 23.432 24.25C23.432 22.9526 23.432 21.6552 23.432 20.4195C23.432 20.3578 23.432 20.2342 23.432 20.1106C22.9995 20.3578 22.5671 20.5431 22.1964 20.7902C20.7136 21.5316 19.169 22.1494 17.5627 22.4583C17.1302 22.5201 16.636 22.5201 16.2035 22.3966C15.0297 22.1494 13.9793 21.6552 12.9908 21.0374C12.6201 20.7902 12.5584 20.4195 12.929 20.1106C13.8558 19.3075 14.8443 18.5661 15.771 17.7629C16.6978 16.9597 17.5627 16.0948 18.4894 15.2916C18.613 15.168 18.7366 15.1063 18.9219 15.2298C19.1691 15.3534 19.3544 15.4152 19.6633 15.5387C18.613 16.5273 17.5627 17.5158 16.5124 18.5661C16.7596 18.5661 16.9449 18.5661 17.1302 18.5661C19.0455 18.4425 20.7754 17.7629 22.4435 16.8362C22.7524 16.6508 23.0613 16.5273 23.3702 16.3419C23.432 16.2801 23.4938 16.2183 23.4938 16.0948C23.4938 15.2298 23.4938 14.4267 23.4938 13.4999C23.3702 13.6235 23.2467 13.6853 23.1231 13.7471C22.5671 14.1177 21.9493 14.4884 21.3932 14.8591C21.0843 15.0445 20.7754 15.1063 20.4665 14.9827C19.6015 14.6738 18.7366 14.3031 17.8716 13.9942C17.5009 13.8706 17.5009 13.5617 17.7481 13.191C18.4277 12.2643 19.1073 11.3375 19.7251 10.4108C21.1461 8.31021 22.2582 6.08606 23.1231 3.73833C23.2467 3.42942 23.3702 3.12051 23.432 2.8116C23.4938 2.56447 23.6792 2.50269 23.9263 2.50269C24.1734 2.50269 24.297 2.62625 24.3588 2.87338C25.2855 5.65358 26.5829 8.24843 28.251 10.6579C28.8071 11.4611 29.4249 12.2643 29.9809 13.0674C30.3516 13.6235 30.3516 13.8706 29.7338 14.1177C28.9924 14.4267 28.1893 14.7356 27.3861 14.9827C27.0772 15.1063 26.7065 15.0445 26.3976 14.8591C25.718 14.4267 25.0384 13.9942 24.3588 13.5617C24.3588 13.5617 24.3588 13.6853 24.3588 13.7471C24.3588 14.4884 24.3588 15.168 24.3588 15.9094C24.3588 16.033 24.4205 16.1566 24.4823 16.2183C25.9033 17.0215 27.3243 17.8865 28.9306 18.1954C29.672 18.3807 30.4134 18.3807 31.2166 18.5043C31.2784 18.5043 31.2784 18.5043 31.4019 18.5043C30.3516 17.454 29.3013 16.5273 28.251 15.477C28.56 15.3534 28.8071 15.2298 29.116 15.168C29.1778 15.168 29.3013 15.2298 29.4249 15.2916C30.3516 16.1566 31.2784 17.0215 32.2669 17.8865C33.1318 18.6278 33.9968 19.3075 34.8617 20.0488C34.9853 20.1724 35.1089 20.296 35.1706 20.4195C35.2324 20.6667 35.2324 20.852 34.9853 21.0374C33.8732 21.717 32.7611 22.273 31.5255 22.4583C31.1548 22.5201 30.7223 22.5201 30.3516 22.4583C28.3128 22.0877 26.4594 21.2227 24.6677 20.1724C24.6059 20.1724 24.6059 20.1106 24.5441 20.1106C24.5441 20.2342 24.5441 20.3578 24.5441 20.4195C24.5441 21.717 24.5441 22.9526 24.5441 24.25C24.5441 24.4354 24.6059 24.5589 24.7295 24.6207C27.8803 26.1035 31.2166 26.9685 34.7382 26.8449C35.5414 26.8449 36.3445 26.6595 37.2095 26.4742C37.4566 26.4124 37.5802 26.4742 37.7655 26.5978C38.4451 27.092 39.0012 27.6481 39.5572 28.3277C39.8661 28.7601 39.8043 29.069 39.3719 29.378C37.6419 30.7372 35.6649 31.1696 33.5643 31.0461C30.4752 30.8607 27.5714 30.0576 24.7295 28.8837C24.6677 28.8837 24.6059 28.8219 24.6059 28.8219H24.5441C24.5441 28.8837 24.5441 28.9455 24.5441 29.0073C24.5441 29.8104 24.5441 30.6136 24.5441 31.355C24.5441 31.5403 24.6059 31.6639 24.7912 31.7875C26.8918 32.776 29.1778 33.2702 31.4637 33.5791C33.3172 33.8263 35.2324 33.9498 37.0859 33.8881C39.3101 33.8263 41.596 33.5792 43.8202 33.1467C44.1291 33.0849 44.438 33.0231 44.6233 33.332C44.8087 33.5791 44.6851 33.8263 44.3144 34.1352C42.5845 35.7415 40.7928 37.1625 38.6922 38.2128C37.7037 38.7071 36.7152 39.1396 35.6031 39.3249C35.0471 39.4485 34.491 39.3867 33.935 39.2631C30.4752 38.3364 27.5714 36.5447 25.1619 33.8881C24.9766 33.6409 24.7912 33.3938 24.5441 33.1467C24.5441 37.595 24.5441 42.0433 24.5441 46.4916M5.39161 34.2588C5.4534 34.3205 5.4534 34.3823 5.4534 34.3823C5.70053 34.6294 6.00944 34.8766 6.25657 35.0619C8.04825 36.4829 9.96351 37.6568 12.1877 38.2746C12.8055 38.4599 13.3615 38.4599 13.9793 38.2746C17.1302 37.4096 19.7869 35.7415 21.9493 33.332C21.9493 33.2702 22.011 33.2702 22.0728 33.1467C21.7639 33.2702 21.5168 33.332 21.2079 33.4556C19.1073 34.1352 17.0067 34.4441 14.7825 34.5677C12.1877 34.753 9.5928 34.6294 7.05973 34.3823C6.56547 34.4441 6.00944 34.3205 5.39161 34.2588ZM25.7798 33.2085C25.7798 33.2702 25.7797 33.332 25.8415 33.332C27.9421 35.5562 30.4134 37.2243 33.3172 38.151C34.1821 38.3982 34.9853 38.5835 35.912 38.2746C38.3215 37.4714 40.4839 36.174 42.3374 34.4441C42.3374 34.4441 42.3992 34.3823 42.461 34.3205C42.3374 34.3205 42.2756 34.3205 42.1521 34.3205C40.4839 34.4441 38.8158 34.6912 37.1477 34.753C35.4178 34.8148 33.6879 34.6912 32.0198 34.5677C30.1045 34.4441 28.1893 34.0734 26.3358 33.3938C26.1504 33.332 26.0269 33.2702 25.7798 33.2085ZM9.2839 28.6366C9.34568 28.6984 9.34568 28.6984 9.34568 28.7601L9.40747 28.8219C10.7667 29.8104 12.373 30.1193 14.0411 30.0576C17.0685 29.934 19.9104 29.1926 22.6289 28.0187C23.3702 27.7098 23.3702 27.7098 23.3702 26.9067C23.3702 26.4742 23.3702 26.0417 23.3702 25.5475C23.2467 25.6092 23.1849 25.6092 23.1231 25.671C21.3932 26.4124 19.6633 27.0302 17.8098 27.4009C15.4003 27.8952 13.0526 28.0187 10.6431 27.5863C10.5813 27.5863 10.4578 27.5863 10.396 27.6481C10.0871 27.8952 9.71637 28.2659 9.2839 28.6366ZM24.4205 25.5475C24.4205 26.1653 24.4205 26.7831 24.4205 27.4009C24.4205 27.6481 24.4823 27.7098 24.6677 27.8334C27.5714 29.069 30.537 29.8722 33.6879 30.0576C35.4178 30.1811 37.0859 29.8722 38.5687 28.6984C38.198 28.3277 37.8273 27.957 37.3948 27.6481C37.333 27.5863 37.1477 27.5245 37.0241 27.5245C36.6534 27.5863 36.2827 27.6481 35.912 27.7098C33.8114 27.8952 31.7726 27.7716 29.7338 27.2774C27.8804 26.9067 26.1504 26.2888 24.4205 25.5475ZM24.3588 17.2069C24.3588 17.7629 24.3588 18.2572 24.3588 18.7514C24.3588 18.8132 24.4205 18.9368 24.5441 18.9985C26.1505 19.9871 27.9421 20.7902 29.7956 21.3463C30.6606 21.5934 31.4637 21.5316 32.3287 21.2227C32.8229 21.0374 33.2554 20.7902 33.7497 20.6049C33.8114 20.6049 33.8732 20.5431 33.935 20.4813C33.5643 20.1724 33.1936 19.8635 32.8229 19.6164C32.6994 19.4928 32.514 19.4928 32.3287 19.4928C31.2784 19.5546 30.2899 19.4928 29.3013 19.3075C27.695 18.9985 26.1504 18.3189 24.7295 17.454C24.6059 17.3304 24.5441 17.2686 24.3588 17.2069ZM23.4938 17.2069C22.9996 17.454 22.6289 17.7011 22.1964 17.9482C20.0958 19.0603 17.8716 19.6164 15.4621 19.431C15.4003 19.431 15.2768 19.431 15.2768 19.431C14.8443 19.7399 14.4736 20.1106 13.9793 20.4813C14.4736 20.6667 14.8443 20.9138 15.2768 21.0991C16.0799 21.4081 16.8831 21.6552 17.7481 21.4081C19.7251 20.9138 21.5786 20.0488 23.3085 18.9985C23.3703 18.9368 23.432 18.875 23.432 18.8132C23.4938 18.3189 23.4938 17.7629 23.4938 17.2069ZM27.8186 11.8936L27.8804 11.8318C26.274 9.48408 24.853 7.07457 23.8645 4.35615C22.876 7.13635 21.455 9.54586 19.8487 11.8936C19.9722 11.8318 19.9722 11.8318 20.034 11.8318C21.1461 11.0904 22.1964 10.349 23.3085 9.60764C23.3703 9.54586 23.432 9.4223 23.432 9.29873C23.432 8.74269 23.432 8.18665 23.432 7.56883C23.432 7.19814 23.6174 7.01279 23.9263 7.01279C24.2352 7.01279 24.3588 7.19814 24.3588 7.56883C24.3588 8.12487 24.3588 8.68091 24.3588 9.23695C24.3588 9.36051 24.4823 9.54586 24.5441 9.66943C24.853 9.91655 25.1619 10.1637 25.4708 10.349C26.274 10.8433 27.0772 11.3375 27.8186 11.8936ZM19.1073 13.3764V13.4381C19.6015 13.6235 20.0958 13.8088 20.59 13.9324C20.7754 13.9942 20.899 13.9942 21.0843 13.8706C21.6403 13.4381 22.2582 13.0674 22.8142 12.6968C23.3702 12.3878 23.5556 12.0172 23.432 11.3993C23.3702 11.1522 23.432 10.9051 23.432 10.5344C22.1346 11.77 20.59 12.5732 19.1073 13.3764ZM24.4205 10.6579C24.4205 10.6579 24.3588 10.6579 24.3588 10.7197C24.3588 11.214 24.3588 11.7082 24.3588 12.2025C24.3588 12.2643 24.4205 12.3261 24.4205 12.3261C25.1619 12.8203 25.9033 13.3764 26.7065 13.8706C26.8301 13.9324 27.0772 13.9942 27.2007 13.9324C27.695 13.8088 28.1275 13.6235 28.6217 13.4381C28.6217 13.4381 28.6835 13.3764 28.7453 13.3146C27.2625 12.5732 25.718 11.77 24.4205 10.6579Z" fill="#FFEB61"/>
<path d="M23.4938 46.1827C23.4938 41.9815 23.4938 37.7186 23.432 33.4556C23.432 33.3938 23.432 33.2702 23.432 33.2085C22.8142 33.8263 22.2582 34.4441 21.7021 35.0619C19.5398 37.1007 17.0067 38.4599 14.1647 39.2631C13.238 39.5102 12.373 39.3867 11.4463 39.0778C9.09855 38.3364 7.05973 37.039 5.20626 35.4944C4.65022 35.0001 4.09419 34.5059 3.53815 34.0734C3.29102 33.8263 3.22923 33.6409 3.3528 33.3938C3.47636 33.1467 3.66171 33.0849 4.03241 33.1467C6.5037 33.6409 8.97498 33.8263 11.4463 33.8881C13.2997 33.9498 15.1532 33.7645 16.9449 33.5174C18.7366 33.2702 20.4665 32.8378 22.1346 32.2199C22.5053 32.0964 22.876 31.911 23.3085 31.7257C23.3703 31.6639 23.4938 31.6021 23.4938 31.5403C23.4938 30.6136 23.4938 29.7487 23.4938 28.7601C23.1849 28.8837 22.876 29.0073 22.6289 29.1308C19.9104 30.1811 17.0684 30.9225 14.1029 31.0461C12.6201 31.1079 11.1991 30.9843 9.90172 30.2429C9.40746 29.9958 8.97498 29.6869 8.5425 29.378C8.17181 29.1308 8.17182 28.8219 8.35716 28.4512C8.85142 27.7098 9.53103 27.092 10.2724 26.5978C10.396 26.536 10.5195 26.536 10.6431 26.536C12.4966 27.0302 14.4118 26.9685 16.3271 26.7213C18.7366 26.4124 21.0225 25.671 23.1849 24.6825C23.3702 24.5589 23.432 24.4972 23.432 24.25C23.432 22.9526 23.432 21.6552 23.432 20.4195C23.432 20.3578 23.432 20.2342 23.432 20.1106C22.9995 20.3578 22.5671 20.5431 22.1964 20.7902C20.7136 21.5316 19.169 22.1494 17.5627 22.4583C17.1302 22.5201 16.636 22.5201 16.2035 22.3966C15.0297 22.1494 13.9793 21.6552 12.9908 21.0374C12.6201 20.7902 12.5584 20.4195 12.929 20.1106C13.8558 19.3075 14.8443 18.5661 15.771 17.7629C16.6978 16.9597 17.5627 16.0948 18.4894 15.2916C18.613 15.168 18.7366 15.1063 18.9219 15.2298C19.1691 15.3534 19.3544 15.4152 19.6633 15.5387C18.613 16.5273 17.5627 17.5158 16.5124 18.5661C16.7596 18.5661 16.9449 18.5661 17.1302 18.5661C19.0455 18.4425 20.7754 17.7629 22.4435 16.8362C22.7524 16.6508 23.0613 16.5273 23.3702 16.3419C23.432 16.2801 23.4938 16.2183 23.4938 16.0948C23.4938 15.2298 23.4938 14.4267 23.4938 13.4999C23.3702 13.6235 23.2467 13.6853 23.1231 13.7471C22.5671 14.1177 21.9493 14.4884 21.3932 14.8591C21.0843 15.0445 20.7754 15.1063 20.4665 14.9827C19.6015 14.6738 18.7366 14.3031 17.8716 13.9942C17.5009 13.8706 17.5009 13.5617 17.7481 13.191C18.4277 12.2643 19.1073 11.3375 19.7251 10.4108C21.1461 8.31022 22.2582 6.08606 23.1231 3.73833C23.2467 3.42942 23.3702 3.12051 23.432 2.8116C23.4938 2.56447 23.6792 2.50269 23.9263 2.50269C24.1734 2.50269 24.297 2.62625 24.3588 2.87338C25.2855 5.65358 26.5829 8.24843 28.251 10.6579C28.8071 11.4611 29.4249 12.2643 29.9809 13.0674C30.3516 13.6235 30.3516 13.8706 29.7338 14.1177C28.9924 14.4267 28.1893 14.7356 27.3861 14.9827C27.0772 15.1063 26.7065 15.0445 26.3976 14.8591C25.718 14.4267 25.0384 13.9942 24.3588 13.5617C24.3588 13.5617 24.3588 13.6853 24.3588 13.7471C24.3588 14.4884 24.3588 15.168 24.3588 15.9094C24.3588 16.033 24.4205 16.1566 24.4823 16.2183C25.9033 17.0215 27.3243 17.8865 28.9306 18.1954C29.672 18.3807 30.4134 18.3807 31.2166 18.5043C31.2784 18.5043 31.2784 18.5043 31.4019 18.5043C30.3516 17.454 29.3013 16.5273 28.251 15.477C28.56 15.3534 28.8071 15.2298 29.116 15.168C29.1778 15.168 29.3013 15.2298 29.4249 15.2916C30.3516 16.1566 31.2784 17.0215 32.2669 17.8865C33.1318 18.6278 33.9968 19.3075 34.8617 20.0488C34.9853 20.1724 35.1089 20.296 35.1706 20.4195C35.2324 20.6667 35.2324 20.852 34.9853 21.0374C33.8732 21.717 32.7611 22.273 31.5255 22.4583C31.1548 22.5201 30.7223 22.5201 30.3516 22.4583C28.3128 22.0877 26.4594 21.2227 24.6677 20.1724C24.6059 20.1724 24.6059 20.1106 24.5441 20.1106C24.5441 20.2342 24.5441 20.3578 24.5441 20.4195C24.5441 21.717 24.5441 22.9526 24.5441 24.25C24.5441 24.4354 24.6059 24.5589 24.7295 24.6207C27.8803 26.1035 31.2166 26.9685 34.7382 26.8449C35.5414 26.8449 36.3445 26.6595 37.2095 26.4742C37.4566 26.4124 37.5802 26.4742 37.7655 26.5978C38.4451 27.092 39.0012 27.6481 39.5572 28.3277C39.8661 28.7601 39.8043 29.069 39.3719 29.378C37.6419 30.7372 35.6649 31.1696 33.5643 31.0461C30.4752 30.8607 27.5714 30.0576 24.7295 28.8837C24.6677 28.8837 24.6059 28.8219 24.6059 28.8219H24.5441C24.5441 28.8837 24.5441 28.9455 24.5441 29.0073C24.5441 29.8104 24.5441 30.6136 24.5441 31.355C24.5441 31.5403 24.6059 31.6639 24.7912 31.7875C26.8918 32.776 29.1778 33.2702 31.4637 33.5791C33.3172 33.8263 35.2324 33.9498 37.0859 33.8881C39.3101 33.8263 41.596 33.5792 43.8202 33.1467C44.1291 33.0849 44.438 33.0231 44.6233 33.332C44.8087 33.5791 44.6851 33.8263 44.3144 34.1352C42.5845 35.7415 40.7928 37.1625 38.6922 38.2128C37.7037 38.7071 36.7152 39.1396 35.6031 39.3249C35.0471 39.4485 34.491 39.3867 33.935 39.2631C30.4752 38.3364 27.5714 36.5447 25.1619 33.8881C24.9766 33.6409 24.7912 33.3938 24.5441 33.1467C24.5441 37.595 24.5441 42.0433 24.5441 46.4916M5.39161 34.2588C5.4534 34.3205 5.4534 34.3823 5.4534 34.3823C5.70053 34.6294 6.00944 34.8766 6.25657 35.0619C8.04825 36.4829 9.96351 37.6568 12.1877 38.2746C12.8055 38.4599 13.3615 38.4599 13.9793 38.2746C17.1302 37.4096 19.7869 35.7415 21.9493 33.332C21.9493 33.2702 22.011 33.2702 22.0728 33.1467C21.7639 33.2702 21.5168 33.332 21.2079 33.4556C19.1073 34.1352 17.0067 34.4441 14.7825 34.5677C12.1877 34.753 9.5928 34.6294 7.05973 34.3823C6.56547 34.4441 6.00944 34.3205 5.39161 34.2588ZM25.7798 33.2085C25.7798 33.2702 25.7797 33.332 25.8415 33.332C27.9421 35.5562 30.4134 37.2243 33.3172 38.151C34.1821 38.3982 34.9853 38.5835 35.912 38.2746C38.3215 37.4714 40.4839 36.174 42.3374 34.4441C42.3374 34.4441 42.3992 34.3823 42.461 34.3205C42.3374 34.3205 42.2756 34.3205 42.1521 34.3205C40.4839 34.4441 38.8158 34.6912 37.1477 34.753C35.4178 34.8148 33.6879 34.6912 32.0198 34.5677C30.1045 34.4441 28.1893 34.0734 26.3358 33.3938C26.1504 33.332 26.0269 33.2702 25.7798 33.2085ZM9.2839 28.6366C9.34568 28.6984 9.34568 28.6984 9.34568 28.7601L9.40747 28.8219C10.7667 29.8104 12.373 30.1193 14.0411 30.0576C17.0685 29.934 19.9104 29.1926 22.6289 28.0187C23.3702 27.7098 23.3702 27.7098 23.3702 26.9067C23.3702 26.4742 23.3702 26.0417 23.3702 25.5475C23.2467 25.6092 23.1849 25.6092 23.1231 25.671C21.3932 26.4124 19.6633 27.0302 17.8098 27.4009C15.4003 27.8952 13.0526 28.0187 10.6431 27.5863C10.5813 27.5863 10.4578 27.5863 10.396 27.6481C10.0871 27.8952 9.71637 28.2659 9.2839 28.6366ZM24.4205 25.5475C24.4205 26.1653 24.4205 26.7831 24.4205 27.4009C24.4205 27.6481 24.4823 27.7098 24.6677 27.8334C27.5714 29.069 30.537 29.8722 33.6879 30.0576C35.4178 30.1811 37.0859 29.8722 38.5687 28.6984C38.198 28.3277 37.8273 27.957 37.3948 27.6481C37.333 27.5863 37.1477 27.5245 37.0241 27.5245C36.6534 27.5863 36.2827 27.6481 35.912 27.7098C33.8114 27.8952 31.7726 27.7716 29.7338 27.2774C27.8804 26.9067 26.1504 26.2888 24.4205 25.5475ZM24.3588 17.2069C24.3588 17.7629 24.3588 18.2572 24.3588 18.7514C24.3588 18.8132 24.4206 18.9368 24.5441 18.9985C26.1505 19.9871 27.9421 20.7902 29.7956 21.3463C30.6606 21.5934 31.4637 21.5316 32.3287 21.2227C32.8229 21.0374 33.2554 20.7902 33.7497 20.6049C33.8114 20.6049 33.8732 20.5431 33.935 20.4813C33.5643 20.1724 33.1936 19.8635 32.8229 19.6164C32.6994 19.4928 32.514 19.4928 32.3287 19.4928C31.2784 19.5546 30.2899 19.4928 29.3013 19.3075C27.695 18.9985 26.1504 18.3189 24.7295 17.454C24.6059 17.3304 24.5441 17.2686 24.3588 17.2069ZM23.4938 17.2069C22.9996 17.454 22.6289 17.7011 22.1964 17.9482C20.0958 19.0603 17.8716 19.6164 15.4621 19.431C15.4003 19.431 15.2768 19.431 15.2768 19.431C14.8443 19.7399 14.4736 20.1106 13.9793 20.4813C14.4736 20.6667 14.8443 20.9138 15.2768 21.0991C16.0799 21.4081 16.8831 21.6552 17.7481 21.4081C19.7251 20.9138 21.5786 20.0488 23.3085 18.9985C23.3703 18.9368 23.432 18.875 23.432 18.8132C23.4938 18.3189 23.4938 17.7629 23.4938 17.2069ZM27.8186 11.8936L27.8804 11.8318C26.274 9.48408 24.853 7.07457 23.8645 4.35615C22.876 7.13635 21.455 9.54586 19.8487 11.8936C19.9722 11.8318 19.9722 11.8318 20.034 11.8318C21.1461 11.0904 22.1964 10.349 23.3085 9.60764C23.3703 9.54586 23.432 9.4223 23.432 9.29873C23.432 8.74269 23.432 8.18665 23.432 7.56883C23.432 7.19814 23.6174 7.01279 23.9263 7.01279C24.2352 7.01279 24.3588 7.19814 24.3588 7.56883C24.3588 8.12487 24.3588 8.68091 24.3588 9.23695C24.3588 9.36051 24.4823 9.54586 24.5441 9.66943C24.853 9.91656 25.1619 10.1637 25.4708 10.349C26.274 10.8433 27.0772 11.3375 27.8186 11.8936ZM19.1073 13.3764V13.4381C19.6015 13.6235 20.0958 13.8088 20.59 13.9324C20.7754 13.9942 20.899 13.9942 21.0843 13.8706C21.6403 13.4381 22.2582 13.0674 22.8142 12.6968C23.3702 12.3878 23.5556 12.0172 23.432 11.3993C23.3702 11.1522 23.432 10.9051 23.432 10.5344C22.1346 11.77 20.59 12.5732 19.1073 13.3764ZM24.4205 10.6579C24.4205 10.6579 24.3588 10.6579 24.3588 10.7197C24.3588 11.214 24.3588 11.7082 24.3588 12.2025C24.3588 12.2643 24.4205 12.3261 24.4205 12.3261C25.1619 12.8203 25.9033 13.3764 26.7065 13.8706C26.8301 13.9324 27.0772 13.9942 27.2007 13.9324C27.695 13.8088 28.1275 13.6235 28.6217 13.4381C28.6217 13.4381 28.6835 13.3764 28.7453 13.3146C27.2625 12.5732 25.718 11.77 24.4205 10.6579Z" stroke="#FFEB61" stroke-width="0.5" stroke-miterlimit="10"/>
<path d="M14.1652 7.56879C13.7327 7.07453 13.7327 3.55295 14.2269 3.18225C14.9683 2.62621 16.5129 3.18225 15.8333 5.71532C15.339 7.25988 14.6594 8.18661 14.1652 7.56879Z" fill="#FFEB61"/>
<path d="M12.682 10.4108C12.1877 10.7198 9.03684 10.0402 8.8515 9.48411C8.54259 8.68095 9.40754 7.32174 11.4464 8.43382C12.7438 9.23699 13.3616 10.0402 12.682 10.4108Z" fill="#FFEB61"/>
<path d="M13.9796 11.1521C13.9178 10.5342 15.7095 8.31009 16.2038 8.37187C17.0069 8.55721 17.7483 9.97821 16.0184 11.0903C14.9063 11.8317 14.0414 11.9552 13.9796 11.1521Z" fill="#FFEB61"/>
<path d="M9.77836 13.3145C10.1491 12.882 12.9293 12.7584 13.1764 13.2527C13.5471 13.9941 12.991 15.6004 11.0758 14.9208C9.90193 14.4883 9.2841 13.8705 9.77836 13.3145Z" fill="#FFEB61"/>
</svg>
