<svg width="48" height="49" viewBox="0 0 48 49" fill="none" xmlns="http://www.w3.org/2000/svg">
<path d="M26.414 14.9823C26.0772 17.2681 25.7403 19.554 25.4034 21.7827L25.4596 21.8398C26.8632 20.754 28.2669 19.7254 29.5582 18.6968C29.3336 17.9539 29.109 17.3253 28.9406 16.6395C28.8283 16.1823 28.9968 15.7252 29.3336 15.3823C30.4004 14.2965 31.6918 13.6108 33.0393 13.0393C34.3868 12.4679 35.8466 12.125 37.3064 11.9535C37.4187 11.9535 37.5871 11.9535 37.8117 11.9535C37.6994 12.7536 37.5871 13.5536 37.4187 14.2965C36.8572 16.6967 35.7904 18.8682 34.3306 20.8683C34.0499 21.2683 33.6569 21.3826 33.2077 21.2683C32.1971 20.9826 31.2987 20.5826 30.5688 19.8397C30.4004 19.6683 30.2881 19.6111 30.0635 19.7825C28.4353 20.9826 26.8632 22.1827 25.235 23.4399C25.1227 23.497 25.0665 23.6685 25.0665 23.8399C24.8981 25.0971 24.7297 26.4115 24.6174 27.6687C24.5612 28.2973 24.7297 28.9831 24.842 29.6117C25.0665 31.2118 25.2911 32.8118 25.4596 34.4119C25.4596 34.4691 25.4596 34.5262 25.5157 34.6405C25.628 34.5834 25.7403 34.5262 25.7964 34.4119C26.8071 33.3833 27.8177 32.3547 28.8283 31.326C28.9968 31.1546 29.0529 30.9832 28.9406 30.7546C28.3791 29.4402 28.5476 29.0973 29.3336 28.2402C30.6811 26.8115 32.3655 25.9543 34.2183 25.44C34.4991 25.3829 34.7798 25.4972 35.1167 25.5543C34.7798 24.64 35.1728 23.9542 35.7904 23.3256C37.8678 21.3255 40.226 19.7825 43.0894 19.2111C43.2017 19.2111 43.3701 19.1539 43.5947 19.1539C43.5386 20.2969 43.4824 21.3826 43.3702 22.4684C43.0333 24.8685 42.1911 27.0401 40.8436 29.0402C40.5629 29.4402 40.2821 29.6117 39.8329 29.4402C38.9907 29.0974 38.1486 28.8116 37.2502 28.4687C36.9134 28.8116 36.5203 29.3259 36.1273 29.726C35.0605 30.8117 33.9376 31.8404 32.6463 32.6404C31.5795 33.269 31.2426 33.269 30.2881 32.469C30.1758 32.3547 30.0074 32.2404 29.7828 32.0689C29.3898 32.469 29.0529 32.9261 28.6599 33.269C27.8177 34.1262 26.9755 34.9834 26.1333 35.7834C25.7964 36.1263 25.6841 36.4692 25.7403 36.9835C25.9087 38.9836 26.0772 40.9266 26.1895 42.9267C26.1895 43.3267 26.2456 43.7267 26.2456 44.1267C26.2456 44.7554 26.021 44.9839 25.4034 44.9839C24.4489 44.9839 23.4944 44.9839 22.5961 44.9839C21.9785 44.9839 21.7539 44.7554 21.7539 44.1267C21.9224 41.6123 22.0908 39.0979 22.2592 36.5835C22.2592 36.412 22.2592 36.1835 22.1469 36.1263C20.7994 34.812 19.4519 33.4976 18.1606 32.1832C17.7676 32.4118 17.3745 32.6975 16.9254 32.9833C16.5885 33.2119 16.2516 33.1547 15.8586 32.9261C13.8935 31.8404 12.2652 30.4117 10.8616 28.6973C10.637 28.4116 10.4124 28.3545 10.1317 28.583C9.40178 29.0402 8.67189 29.3831 7.77356 29.4402C7.60512 29.4402 7.32437 29.3259 7.26823 29.2116C5.5277 26.6972 4.51708 24.0114 4.40479 20.9255C4.40479 20.354 4.40479 19.7826 4.40479 19.1539C4.74166 19.2111 4.96625 19.2682 5.24698 19.3254C8.16658 19.954 10.5247 21.6112 12.546 23.7828C13.0513 24.2971 13.1074 24.8685 12.8267 25.6114C13.5005 25.2114 14.0619 25.4972 14.5672 25.7257C15.9709 26.2401 17.2622 26.9829 18.3852 28.0687C18.4413 28.1259 18.4974 28.183 18.6097 28.2973C19.4519 29.2116 19.5642 29.6688 19.0028 30.8117C18.8905 31.0403 18.8343 31.1546 19.0589 31.326C20.1257 32.4118 21.2486 33.4976 22.3154 34.5834C22.3154 34.5834 22.3715 34.5834 22.4277 34.6405C22.4838 34.2405 22.4838 33.8405 22.54 33.4404C22.7645 31.6118 23.0453 29.7831 23.2137 27.9544C23.2699 27.383 23.1576 26.7544 23.1014 26.1829C23.0453 25.3829 22.933 24.64 22.8207 23.8399C22.8207 23.7256 22.7084 23.497 22.5961 23.4399C20.9679 22.2398 19.3396 21.0398 17.6552 19.7825C17.5991 19.7254 17.543 19.7254 17.4868 19.6683C17.0376 20.0111 16.6446 20.354 16.1955 20.5826C15.634 20.8683 15.0164 21.0398 14.3988 21.2683C14.0058 21.3826 13.725 21.2683 13.4443 20.9255C11.6476 18.4682 10.4124 15.7823 10.1317 12.7536C10.1317 12.525 10.0755 12.2964 10.0755 11.9535C10.7493 12.0678 11.3108 12.1821 11.9284 12.2964C14.3426 12.8107 16.5323 13.8394 18.3852 15.4395C18.8343 15.8395 19.0028 16.2395 18.8905 16.7538C18.722 17.3253 18.5536 17.8967 18.329 18.4682C18.2729 18.6968 18.2167 18.8111 18.4413 18.9254C19.7888 19.8968 21.1363 20.9255 22.4838 21.897C22.4838 21.897 22.54 21.897 22.6523 21.897C22.54 21.3255 22.4838 20.8112 22.3715 20.2397C22.0908 18.6968 21.8662 17.1538 21.6416 15.6109C21.5855 15.2109 21.4732 15.0966 21.024 15.0966C20.2941 15.0394 19.5642 14.9251 18.8343 14.8108C18.2729 14.6966 18.1044 14.3537 18.1044 13.7822C18.0483 12.0678 18.1044 10.3535 18.4413 8.63908C18.722 7.21043 19.1151 5.83892 19.7327 4.52456C19.7888 4.41027 19.9011 4.23884 19.9572 4.0674C21.6416 5.32461 22.933 6.9247 23.9436 8.86766C25.0104 6.86755 26.3579 5.26747 28.1546 4.01025C28.2107 4.12455 28.2669 4.18169 28.323 4.29598C29.6144 7.43901 30.1758 10.6392 29.9512 14.0108C29.9512 14.3537 29.7828 14.468 29.5021 14.6394C28.4914 14.9823 27.4808 15.0966 26.414 14.9823ZM22.8207 43.7267C23.4944 43.7267 24.0559 43.7267 24.5612 43.7267C24.9542 43.7267 25.0104 43.6124 25.0104 43.2124C24.6735 39.4408 24.3928 35.612 24.0559 31.8404C24.0559 31.7261 23.9998 31.5546 23.9998 31.3832C23.9436 31.3832 23.8875 31.3832 23.8875 31.3832C23.4944 35.4977 23.1576 39.6122 22.8207 43.7267ZM25.2911 14.6394C24.8981 14.4108 24.5051 14.1822 24.112 13.9537C23.9998 13.8965 23.8313 13.8965 23.719 14.0108C23.3822 14.1822 23.0453 14.468 22.7084 14.6394C22.4838 14.7537 22.4277 14.9251 22.4838 15.1537C22.8768 17.4967 23.2699 19.8397 23.6629 22.1827C23.719 22.5256 23.7752 22.9256 23.8875 23.2685H23.9436C24.4489 20.354 24.8419 17.4967 25.2911 14.6394ZM11.3669 27.4401C11.423 27.4973 11.423 27.5544 11.4792 27.6116C12.7144 29.0402 14.0619 30.4117 15.6901 31.4403C16.3077 31.8404 16.7008 31.7261 17.1499 31.0975C15.5778 29.4402 14.0058 27.7258 12.4337 26.0686C12.0968 26.5829 11.7599 26.9829 11.3669 27.4401ZM30.6811 31.1546C31.2426 31.7261 31.4672 31.7832 32.1409 31.3832C33.8253 30.3546 35.1728 28.8688 36.4642 27.383C36.0712 26.9258 35.7343 26.5258 35.3413 26.1258C33.7692 27.8401 32.1971 29.4974 30.6811 31.1546ZM16.42 18.9254C14.7918 17.4396 13.1636 16.0109 11.5915 14.5823C12.0968 16.4681 12.939 18.2396 14.0058 19.8397C14.0619 19.954 14.2865 20.0683 14.3426 20.0111C15.1848 19.7826 15.8586 19.4968 16.42 18.9254ZM36.3519 14.468C36.3519 14.468 36.2957 14.468 36.2957 14.4108C34.6675 15.8966 32.9831 17.3824 31.3549 18.8682C31.7479 19.3254 32.3655 19.7254 33.0393 19.954C33.3762 20.0683 33.6007 20.0111 33.713 19.6683C34.3868 18.3539 35.1167 17.0395 35.7343 15.7823C36.015 15.3823 36.1835 14.9251 36.3519 14.468ZM37.9801 27.3258C38.5416 27.6116 39.103 27.8401 39.6084 28.0687C39.8891 28.183 40.0014 28.0687 40.1137 27.8401C41.2366 25.9543 41.9104 23.8399 42.3034 21.6684C40.8436 23.497 39.4399 25.3829 37.9801 27.3258ZM6.65064 20.9255C6.65064 20.9826 6.59449 20.9826 6.59449 21.0398C7.94199 22.8113 9.28949 24.64 10.7493 26.5258C11.0862 25.9543 11.3669 25.4972 11.6476 25.04C11.8161 24.8114 11.7599 24.5828 11.5353 24.3542C10.3563 23.097 9.00877 22.0112 7.43668 21.2683C7.15595 21.0969 6.87522 21.0398 6.65064 20.9255ZM9.7948 27.3258C8.39115 25.3829 6.98751 23.5542 5.52771 21.6112C5.58386 21.897 5.58385 22.0684 5.64 22.2398C5.92073 24.2971 6.76293 26.1258 7.77356 27.8401C7.88585 28.0116 7.99813 28.183 8.22272 28.0687C8.72803 27.783 9.28949 27.5544 9.7948 27.3258ZM37.0256 26.3543C37.0818 26.3543 37.1379 26.3543 37.1941 26.3543C38.5416 24.5828 39.8891 22.8113 41.2927 20.9826C41.1805 20.9826 41.1243 20.9255 41.1243 20.9826C39.2153 21.7827 37.6433 22.9827 36.2957 24.5257C36.2396 24.64 36.1835 24.8685 36.2396 24.9828C36.4642 25.44 36.7449 25.8972 37.0256 26.3543ZM26.5825 13.8394C27.2562 13.7822 27.8177 13.7251 28.323 13.6679C28.6037 13.6108 28.716 13.4393 28.716 13.1536C28.7722 11.2678 28.4914 9.38198 28.0984 7.5533C28.0984 7.43901 28.0423 7.38187 27.9861 7.32472C27.93 7.32472 27.93 7.32472 27.8738 7.32472C27.4808 9.43912 27.0317 11.5535 26.5825 13.8394ZM21.1363 13.9537C21.1925 13.8965 21.1925 13.8394 21.2486 13.7822C20.7994 11.6678 20.3503 9.55341 19.9011 7.32472C19.7888 7.43901 19.7327 7.49616 19.7327 7.49616C19.2273 9.38198 19.0028 11.3249 19.1151 13.2679C19.1151 13.3822 19.2273 13.4965 19.3396 13.5536C19.9011 13.7251 20.5187 13.8394 21.1363 13.9537ZM25.5157 13.3251C25.9649 11.0964 26.414 8.86766 26.8071 6.63897C26.3018 7.15328 25.9087 7.78189 25.4596 8.35335C24.842 9.32483 24.2805 10.3535 23.9998 11.4392C23.9436 11.6107 23.8875 11.8964 23.9436 12.0107C24.3366 12.6393 24.8981 13.0393 25.5157 13.3251ZM17.2061 18.011C17.3745 17.6681 17.4868 17.3824 17.5991 17.0967C17.7676 16.6967 17.7114 16.4109 17.3745 16.1252C16.0832 14.9823 14.5672 14.2394 12.939 13.7251C12.7705 13.6679 12.6021 13.6679 12.4337 13.6108C12.4337 13.6679 12.4337 13.6679 12.3775 13.7251C14.0058 15.1537 15.5779 16.5252 17.2061 18.011ZM35.3413 13.6679C33.8815 13.8394 31.2987 15.2109 30.2881 16.2395C30.1758 16.3538 30.0635 16.5252 30.1197 16.6967C30.232 17.1538 30.4004 17.5539 30.5688 18.0682C32.1971 16.5252 33.713 15.0966 35.3413 13.6679ZM21.024 6.63897L20.9679 6.69611C21.417 8.92481 21.8662 11.1535 22.3715 13.4393C22.6523 13.2679 22.8768 13.1536 23.1014 13.0393C22.7084 11.8964 22.7084 11.7821 22.933 10.9249C22.9891 10.6963 23.1014 10.4677 23.1576 10.2392C23.2137 10.1249 23.2137 9.89629 23.1576 9.782C22.5961 8.81052 21.9785 7.89618 21.3609 6.9247C21.2486 6.86755 21.1363 6.75326 21.024 6.63897ZM17.936 30.0117C18.2167 29.5545 18.2729 29.5545 17.8237 29.1545C17.0377 28.5259 16.2516 27.9544 15.4656 27.3258C15.4094 27.2687 15.2971 27.2687 15.1848 27.2115C15.1848 27.2687 15.1287 27.2687 15.1287 27.3258C16.0832 28.2402 17.0376 29.0974 17.936 30.0117ZM32.5901 27.383C32.5901 27.3258 32.534 27.3258 32.534 27.3258C31.5233 27.8973 30.625 28.5259 29.8951 29.4402C29.7267 29.6688 29.6705 29.9545 29.9512 30.2403C30.8496 29.2116 31.7479 28.2973 32.5901 27.383Z" fill="#FFEB61" stroke="#FFEB61" stroke-width="0.5" stroke-miterlimit="10"/>
</svg>
