<svg width="48" height="48" viewBox="0 0 48 48" fill="none" xmlns="http://www.w3.org/2000/svg">
<path d="M44.2129 30.2135C43.1678 32.0542 42.2913 34.0096 41.0506 35.702C38.893 38.6418 35.9734 40.7253 32.6358 42.1952C32.3998 42.2963 32.157 42.4649 31.9143 42.4649C28.6778 42.5323 25.4481 43.3482 22.2048 42.4851C16.8849 41.0691 13.0213 36.0796 13.1831 30.6113C13.2169 29.5392 13.5675 28.4671 13.8709 27.422C14.1608 26.4173 14.4238 25.4666 14.0867 24.4013C13.9451 23.936 14.1608 23.3629 14.2283 22.7561C15.1453 22.9111 15.9274 23.0392 16.6893 23.1674C17.7007 21.0906 16.7433 19.3915 14.4845 19.2499C12.1987 19.1015 10.6074 20.295 9.44771 22.1155C7.02709 25.9116 6.63601 29.9977 7.79575 34.2928C8.36214 36.4032 9.2724 38.3384 10.7356 40.0038C8.63184 38.7025 6.97989 36.9494 5.45604 35.0345C1.9094 30.6045 2.5095 24.5361 5.34142 20.3894C5.72575 19.823 5.96849 19.0408 5.97523 18.3531C5.99546 16.7416 6.07637 16.5123 7.6137 15.9662C7.0608 13.9434 4.64692 13.9097 1.97683 16.0201C1.92963 14.6514 2.5095 13.613 2.98823 12.5409C3.3321 12.5409 3.68946 12.5814 4.01986 12.5274C6.84503 12.0824 8.75995 13.0264 9.93992 15.5751C10.2905 16.337 10.8772 16.5056 11.5784 16.7079C11.6526 16.2426 11.72 15.8583 11.7739 15.4807C11.8751 14.8132 12.0436 14.1929 12.819 14.0243C13.6349 13.849 13.7495 14.5705 14.0125 15.0424C14.6463 16.1685 15.4824 16.2494 16.2915 15.2312C17.1815 14.112 17.2287 13.2219 16.4061 12.0554C14.6126 9.49997 12.0032 9.10889 9.178 9.44603C6.74389 9.73596 4.76829 10.9968 2.96126 12.5611C4.08054 9.83036 5.76621 7.48391 7.87666 5.44762C8.11266 5.21837 8.58464 5.08352 8.91503 5.13072C11.2075 5.48808 13.5001 5.8859 15.5026 7.19397C18.5099 9.16283 19.4808 11.9004 18.3615 15.3189C18.2334 15.7167 18.0986 16.1145 17.9098 16.4921C17.4782 17.3754 17.5457 18.0969 18.0851 19.0004C18.8133 20.2208 19.2111 21.6435 19.7505 22.9786C19.791 22.8437 19.8719 22.6077 19.9326 22.365C20.2629 21.0232 20.5124 19.6477 20.9372 18.3329C21.6182 16.2561 23.0949 14.948 25.2121 14.3547C26.21 14.0782 27.1742 14.1659 27.9496 14.8536C29.7364 16.4314 31.4962 18.0429 33.2291 19.6814C33.8022 20.2276 33.6269 21.0232 32.9324 21.6165C32.3188 22.1425 31.7794 22.0683 31.267 21.4547C30.9838 21.1108 30.6601 20.8007 30.3567 20.477C29.379 21.3064 29.1161 22.3582 29.5409 23.5517C30.4444 26.1072 32.6829 27.3478 35.4407 26.9433C40.882 26.1409 45.2445 21.3266 45.1367 15.3256C45.2917 15.9594 45.4738 16.5865 45.5952 17.2271C46.3975 21.3806 46.0806 25.4531 44.6242 29.4313C44.5163 29.7212 44.3208 29.9707 44.1657 30.2472C44.2938 29.7482 44.4152 29.2425 44.604 28.5143C44.2803 28.784 44.159 28.8851 44.0444 28.993C38.4142 34.05 31.0175 34.4816 24.848 30.0584C24.0119 29.4583 23.3039 29.0942 22.333 29.6673C22.1037 29.8021 21.7666 29.8089 21.4834 29.7954C20.6675 29.7549 20.3843 29.3032 20.6338 28.5076C20.8024 27.9681 20.9709 27.4287 21.153 26.8623C19.7505 26.8893 18.584 27.6917 18.0648 29.047C17.3299 30.9619 17.6872 32.7487 18.7728 34.4411C19.6831 33.9489 20.472 33.4364 21.3283 33.0723C22.3599 32.6408 23.4118 33.0858 24.0726 34.1107C24.6187 34.9468 24.4839 35.6008 23.6073 36.5111C23.3241 36.801 23.0544 37.1112 22.7847 37.4079C23.4522 38.4935 24.3558 39.0531 25.4953 39.2419C31.9682 40.3207 41.3001 37.0707 44.1927 30.2135H44.2129ZM28.017 17.2608C27.0528 16.4382 26.3044 16.3505 25.7987 17.1057C24.9626 18.3531 24.2816 19.7286 24.4501 21.2659C24.9154 25.379 26.8775 28.5682 30.7545 30.2404C34.6316 31.9126 38.2187 30.8877 41.5091 28.5345C42.5205 27.8131 43.188 26.7949 43.4712 25.4127C43.1611 25.5543 42.9723 25.6419 42.7835 25.7363C40.8146 26.6938 38.9064 27.8265 36.8567 28.5817C32.6964 30.1123 28.6441 27.8131 27.6259 23.5247C27.4911 22.9583 27.3225 22.4054 27.1405 21.8525C26.5808 20.1601 26.4392 18.5419 28.017 17.2675V17.2608ZM6.31911 34.7715C5.44256 30.0921 6.25842 25.6284 8.2138 21.0906C4.47836 23.0527 4.01985 31.4878 6.31911 34.7715ZM18.1795 26.4443C14.6868 28.0221 14.3227 32.7554 16.9388 34.9738C16.305 31.9531 16.278 29.1211 18.1795 26.4443ZM23.9849 25.3992C23.5803 23.464 23.196 21.6031 22.7915 19.6679C21.807 21.1985 22.0228 24.0372 23.9849 25.3992ZM11.0255 7.85476C8.96898 7.07935 7.54627 7.40974 6.47419 8.7785C8.05197 8.4616 9.5421 8.15818 11.0255 7.85476Z" fill="#FFEB61"/>
</svg>
