<svg width="48" height="49" viewBox="0 0 48 49" fill="none" xmlns="http://www.w3.org/2000/svg">
<path d="M32.8303 8.86049C33.2794 8.40332 33.6163 8.0033 34.0094 7.60328C35.6937 8.68905 36.5921 11.6035 35.0761 13.9465C33.3917 16.4609 30.5283 16.5752 28.7878 15.4323C29.1246 15.0894 29.4054 14.8037 29.7422 14.5179C29.7984 14.4608 29.9668 14.4608 30.0791 14.5179C32.0442 15.1466 34.0655 14.0036 34.4585 11.9464C34.627 11.1463 34.4585 10.4034 34.0655 9.66054C33.9532 9.77483 33.8409 9.83197 33.7848 9.88912C32.4373 11.2606 31.1459 12.6321 29.7984 14.0036C28.4509 15.4323 27.0472 16.8038 25.6997 18.2324C25.5313 18.4039 25.4751 18.5182 25.4751 18.7467C25.5313 19.4325 25.5874 20.1183 25.5874 20.804C25.5874 20.8612 25.5874 20.9183 25.6436 21.0326C26.935 19.7754 28.1702 18.5182 29.4054 17.261C29.7422 17.6038 30.0791 17.8896 30.4721 18.2896C30.1353 18.6325 29.7984 18.9753 29.4615 19.3182C28.3386 20.4611 27.2157 21.5469 26.0366 22.6898C25.8682 22.8041 25.812 22.9756 25.812 23.2041C25.812 23.547 25.812 23.8899 25.812 24.2328C25.812 24.2328 25.8682 24.2328 25.8682 24.2899C28.3386 21.7183 30.809 19.1468 33.3356 16.5181C33.6163 16.8609 33.9532 17.1467 34.2339 17.5467C33.7286 18.1181 33.2233 18.6325 32.718 19.1468C30.416 21.5469 28.1702 23.947 25.8682 26.3472C25.7559 26.4615 25.6997 26.69 25.6436 26.8615C25.6997 26.8615 25.6997 26.9186 25.7559 26.9186C25.8682 26.8615 25.9243 26.7472 26.0366 26.6329C28.9001 23.6613 31.7074 20.6326 34.5708 17.661C34.627 17.6038 34.6831 17.6038 34.6831 17.5467C34.6269 17.1467 34.9638 16.9752 35.1884 16.7466C36.5359 15.318 37.9396 13.8893 39.2871 12.4607C39.4555 12.2892 39.5678 12.3464 39.7362 12.4607C40.803 13.2036 41.3645 14.2322 41.4206 15.5466C41.6452 18.0039 40.1293 19.8897 37.7711 20.2897C36.8166 20.404 35.8622 20.2325 35.02 19.7182C34.7954 19.6039 34.7393 19.6611 34.5708 19.7754C31.8197 22.6898 29.0123 25.5471 26.2612 28.4616C25.9805 28.7473 25.6997 29.033 25.8682 29.5473C25.9243 29.4902 26.0366 29.4331 26.0928 29.4331C29.5177 27.0329 32.8864 24.6328 36.3113 22.1755C36.4798 22.0612 36.7044 22.0041 36.9289 22.0041C38.6133 22.0041 40.3539 22.0041 42.0382 22.0041C42.319 22.0041 42.3751 22.0612 42.4313 22.3469C42.8243 24.1756 41.9821 26.1186 40.41 27.0901C38.8941 28.0616 36.9289 27.8901 35.4692 26.69C35.02 26.29 34.627 25.89 34.1778 25.4328C33.7286 25.7757 33.2794 26.0614 32.7741 26.4043C30.5283 28.0044 28.2263 29.6045 25.9805 31.2046C25.812 31.3189 25.6997 31.4903 25.6997 31.7189C25.6997 32.4046 25.6997 33.0904 25.7559 33.8333C28.0579 31.6046 30.416 29.3759 32.7741 27.0901C33.0549 27.4329 33.3917 27.7758 33.7286 28.1187C33.2795 28.5187 32.8303 28.9759 32.3811 29.4331C30.2476 31.4332 28.1702 33.4333 26.0366 35.4334C25.812 35.6048 25.7559 35.8334 25.7559 36.1191C25.7559 38.9764 25.7559 41.8337 25.7559 44.6339C25.7559 44.7482 25.7559 44.9196 25.7559 45.0911C24.6891 45.0911 23.6785 45.0911 22.6117 45.0911C22.6117 44.9768 22.6117 44.8625 22.6117 44.7482C22.6117 41.148 22.6117 37.5478 22.6117 33.9476C22.6117 33.6047 22.5556 33.3761 22.2748 33.1475C19.4675 30.6903 16.6602 28.233 13.8529 25.8329C13.7968 25.7757 13.6845 25.6614 13.5722 25.6043C13.2915 25.89 13.0669 26.1757 12.7861 26.4615C10.3157 28.7473 6.77852 27.7187 5.71174 24.7471C5.43101 23.947 5.431 23.0898 5.5433 22.2898C5.59944 22.1184 5.65559 22.0041 5.88018 22.0041C7.733 22.0041 9.64196 22.0041 11.4948 22.0041C11.6071 22.0041 11.7755 22.0612 11.8878 22.1755C15.3127 25.2042 18.7376 28.233 22.1064 31.2617C22.2748 31.376 22.3871 31.4903 22.6117 31.7189C22.6117 31.2617 22.6117 30.8617 22.6117 30.5188C22.6117 30.4045 22.4994 30.2902 22.3871 30.1759C20.7027 28.4044 19.0745 26.69 17.3901 24.9757C16.8287 24.4042 16.3233 23.8327 15.7619 23.2041C16.0988 22.9184 16.4356 22.5755 16.7725 22.2898C18.6815 24.2899 20.5904 26.3472 22.4994 28.3473C22.5556 28.3473 22.5555 28.2901 22.6117 28.2901C22.6117 27.8901 22.5555 27.4901 22.6117 27.0901C22.6678 26.4043 22.4433 25.9471 21.9941 25.49C19.7483 23.2613 17.6147 21.0326 15.3689 18.861C14.9758 18.461 14.5828 18.1181 14.1898 17.7181C14.5267 17.3181 14.8074 16.9752 15.0881 16.6323C17.6147 19.1468 20.0851 21.604 22.6678 24.1756C22.724 23.7756 22.724 23.4899 22.7801 23.147C22.8924 21.7183 23.0609 20.2325 23.1732 18.8039C23.1732 18.6896 23.117 18.5182 23.0609 18.461C20.5343 15.8894 18.0639 13.3179 15.5373 10.7463C15.3127 10.5177 15.0881 10.2891 14.8635 10.1177C14.639 9.88912 14.5828 9.94627 14.4705 10.232C14.0775 11.2606 14.1336 12.2321 14.639 13.2036C15.425 14.6322 16.941 15.318 18.5692 14.8037C18.8499 14.7465 18.9622 14.8037 19.1306 14.9751C19.3552 15.2037 19.636 15.4323 19.9167 15.6609C18.4007 16.9752 15.3127 16.3466 13.8529 14.5179C12.2247 12.4607 12.6177 9.3748 14.639 7.88901C15.032 8.28903 15.3689 8.68905 15.7619 9.08908C15.7619 9.08908 15.818 9.08907 15.818 9.03193C15.818 8.91763 15.818 8.86049 15.818 8.7462C15.818 8.23188 15.818 7.66043 15.818 7.14611C15.818 6.91753 15.8742 6.80323 16.0988 6.74609C17.8393 6.28892 19.3552 6.68894 20.5904 8.0033C21.8257 9.37481 22.1064 10.9749 21.5449 12.7464C21.4326 13.1464 21.2642 13.5465 21.0958 13.9465C20.7589 13.6036 20.4782 13.375 20.1974 13.0321C20.1413 12.975 20.1413 12.8036 20.1974 12.6893C20.422 11.9464 20.4781 11.2035 20.3659 10.4034C20.0851 8.86049 18.5692 7.71757 17.0532 7.94616C17.0532 8.68905 17.0532 9.3748 17.0532 10.1177C17.0532 10.2891 17.2217 10.4606 17.3901 10.5749C18.9622 12.2321 20.5343 13.8893 22.1625 15.5466C22.4994 15.8895 22.7801 16.2323 23.117 16.5752C23.1732 16.6323 23.2854 16.7466 23.4539 16.8609C23.4539 16.6895 23.51 16.5752 23.51 16.5181C23.5662 14.8037 23.6223 13.0321 23.6223 11.3178C23.6223 11.2035 23.51 11.032 23.3978 10.9749C21.7695 9.77483 21.2642 7.43184 22.2748 5.66032C22.724 4.91742 23.3977 4.34596 24.1276 3.94594C24.2399 3.88879 24.3522 3.88879 24.4645 3.94594C27.4964 5.37459 27.4403 9.26051 25.1944 10.9177C24.9698 11.0892 24.9137 11.2035 24.9137 11.4892C24.9698 13.1464 25.026 14.8037 25.026 16.5181C25.026 16.6323 25.026 16.7466 25.026 16.8609C25.026 16.8609 25.0821 16.9181 25.1383 16.9181C25.3628 16.6895 25.5874 16.4038 25.812 16.1752C27.4964 14.3465 29.2369 12.5178 30.9775 10.7463C31.2582 10.4606 31.3705 10.232 31.3143 9.83197C31.3143 9.3748 31.3143 8.86049 31.3143 8.34618C31.3143 8.06045 31.202 8.0033 30.9213 8.06045C28.7316 8.34618 27.4403 10.232 28.0579 12.4035C28.2263 12.975 28.1702 13.3179 27.721 13.6608C27.6087 13.775 27.4964 13.9465 27.3841 14.0608C27.328 14.0036 27.2718 13.9465 27.2718 13.9465C25.7559 11.1463 26.9911 8.46047 28.7316 7.31755C29.8545 6.57465 31.0898 6.46036 32.3811 6.86038C32.5496 6.91753 32.6057 6.97467 32.6057 7.20326C32.6057 7.71757 32.6057 8.28903 32.6057 8.80335C32.8303 8.63191 32.8303 8.7462 32.8303 8.86049ZM7.0031 23.2613C6.8908 24.3471 7.95758 25.6614 9.24894 26.0614C10.4842 26.4615 12.1124 25.4328 12.6739 24.4613C12.2808 24.1185 11.8317 23.7185 11.4386 23.3756C11.3263 23.2613 11.1579 23.2041 10.9895 23.2041C9.75426 23.2041 8.51904 23.2041 7.33998 23.2041C7.17154 23.2613 7.11539 23.2613 7.0031 23.2613ZM35.5814 24.4042C35.8622 24.6899 36.0868 25.0328 36.4236 25.3185C38.108 26.8615 39.9608 26.0614 40.8592 24.6899C41.1399 24.2899 41.3083 23.7756 41.2522 23.2613C41.196 23.2613 41.1399 23.2041 41.0838 23.2041C39.8485 23.2041 38.6133 23.2041 37.322 23.2041C37.2097 23.2041 37.0974 23.2613 37.0412 23.3184C36.5359 23.7185 36.0306 24.1185 35.5814 24.4042ZM35.6937 18.3467C36.9851 19.1468 38.5572 18.9182 39.5117 17.8324C40.4661 16.7466 40.2977 15.0894 39.6801 14.2322C38.2203 15.4894 37.0412 16.9752 35.6937 18.3467ZM24.4645 23.547C24.4084 23.547 24.4084 23.547 24.3522 23.547C24.3522 23.6613 24.2961 23.7756 24.2961 23.8899C24.2399 30.4617 24.2399 37.0335 24.1838 43.6053C24.5768 43.7196 24.5768 43.5481 24.5768 43.3195C24.5768 39.4907 24.5768 35.662 24.5768 31.8903C24.5768 29.3188 24.5768 26.69 24.5207 24.1185C24.5207 23.8899 24.4645 23.7185 24.4645 23.547ZM24.4084 5.26029C22.8924 6.34607 22.7801 8.40332 24.2399 9.60339C24.2961 9.66053 24.5207 9.66053 24.5768 9.60339C25.9805 8.28903 25.9243 6.28892 24.4084 5.26029Z" fill="#FFEB61"/>
<path d="M16.8852 20.6896C16.4922 21.0324 16.1553 21.3182 15.8184 21.6039C15.1447 20.861 14.4709 20.1752 13.8533 19.4895C11.3829 20.9753 8.74401 20.061 7.67724 17.7751C6.72276 15.775 7.45265 13.0891 9.30547 12.1748C10.8776 13.832 12.5058 15.4893 14.134 17.2037C14.0217 17.2608 13.9656 17.3179 13.8533 17.3751C14.8639 18.518 15.8746 19.6038 16.8852 20.6896ZM13.1234 18.3466C11.7759 16.9179 10.5968 15.4321 9.13702 14.1749C8.35098 15.1464 8.40713 16.8036 9.24932 17.8323C10.2038 18.918 11.8882 19.1466 13.1234 18.3466Z" fill="#FFEB61"/>
</svg>
