<svg width="48" height="48" viewBox="0 0 48 48" fill="none" xmlns="http://www.w3.org/2000/svg">
<path d="M16.0178 19.2263C15.7785 18.9768 15.5445 18.7179 15.2939 18.4785C14.5623 17.7828 13.8191 17.0942 13.0875 16.3985C12.9459 16.265 12.8018 16.2105 12.5988 16.2123C11.46 16.2317 10.3195 16.23 9.17992 16.2404C9.02832 16.2409 8.96129 16.2011 8.97203 16.0398C8.98478 15.8662 8.988 15.6873 8.97364 15.516C8.95324 15.3088 9.0235 15.2424 9.23585 15.2429C10.2157 15.2458 11.1974 15.2335 12.1793 15.2242C12.2581 15.2237 12.3409 15.2349 12.4185 15.2194C13.007 15.1127 13.4406 15.3641 13.8561 15.7622C15.5745 17.4108 17.3121 19.0365 19.0445 20.6717C19.097 20.7188 19.1495 20.7659 19.2054 20.8187C19.3809 20.7042 19.5545 20.6049 19.7111 20.4829C19.7736 20.4323 19.8255 20.328 19.825 20.2494C19.8271 19.7316 19.8232 19.2143 19.8012 18.6985C19.7969 18.6111 19.7173 18.4936 19.6404 18.4456C18.3631 17.6804 17.0778 16.9281 15.7949 16.1695C14.3906 15.3362 12.989 14.4997 11.5902 13.66C11.4976 13.6042 11.4089 13.5238 11.356 13.4344C10.5139 11.9639 9.67763 10.49 8.84436 9.01579C8.71603 8.78737 8.58469 8.55921 8.47091 8.32352C8.3933 8.15746 8.28837 8.09963 8.10062 8.10319C6.96185 8.12258 5.82183 8.12694 4.67904 8.13456C4.60926 8.13433 4.53898 8.12809 4.42954 8.12512C4.4292 7.83153 4.41757 7.54797 4.43329 7.26515C4.43579 7.22256 4.55474 7.15815 4.62125 7.15562C5.19653 7.14392 5.76956 7.14149 6.34284 7.14206C7.04337 7.1411 7.74717 7.14288 8.4472 7.1359C8.53505 7.13462 8.63494 7.09601 8.70972 7.04739C9.86908 6.26046 11.0214 5.46201 12.1838 4.67482C13.4383 3.82849 14.6965 2.99093 15.9545 2.15036C16.0408 2.09472 16.1309 2.04785 16.2524 1.97717C16.3895 2.23815 16.5314 2.4836 16.6381 2.74409C16.6575 2.79393 16.5596 2.92923 16.4851 2.98086C15.6562 3.5495 14.8266 4.10913 13.9905 4.66325C13.8439 4.76024 13.8043 4.86646 13.8094 5.03554C13.832 6.02953 13.8366 7.02501 13.8502 8.01975C13.8507 8.09841 13.8573 8.17656 13.8641 8.29405C13.9356 8.24267 13.9875 8.2111 14.03 8.17426C14.3654 7.8708 14.6939 7.55581 15.0392 7.26062C15.1325 7.18018 15.2758 7.11676 15.4001 7.11546C16.5875 7.09806 17.7765 7.0987 18.9647 7.09032C19.1224 7.08927 19.1982 7.12531 19.1917 7.30142C19.179 7.54766 19.1904 7.7919 19.1932 8.07923C19.075 8.08001 18.9841 8.08154 18.89 8.08032C17.8378 8.0834 16.7854 8.08347 15.7314 8.10184C15.6072 8.10313 15.4584 8.17307 15.3623 8.25676C14.9668 8.60458 14.5909 8.96892 14.2053 9.325C14.1124 9.41145 14.0095 9.48664 13.9104 9.57059C15.1373 11.3267 16.3334 13.04 17.5638 14.8019C17.5626 14.3177 17.5605 13.8941 17.5584 13.4705C17.5565 13.1589 17.5549 12.8503 17.541 12.5397C17.5344 12.3889 17.5803 12.3215 17.7415 12.3262C17.9787 12.3336 18.2176 12.3258 18.4844 12.3247C18.4915 12.4452 18.5006 12.5534 18.5036 12.6621C18.5151 13.9204 18.5262 15.1756 18.5286 16.4346C18.5297 16.6283 18.5995 16.7375 18.7619 16.8299C19.3481 17.1654 19.9295 17.5164 20.513 17.8551C20.6977 17.9608 20.7786 18.0933 20.7701 18.318C20.7527 18.7614 20.7686 19.205 20.7693 19.7195C20.9538 19.6042 21.0928 19.526 21.2245 19.4333C21.6396 19.1383 22.0547 18.8434 22.4627 18.5369C22.5967 18.4349 22.6853 18.4426 22.8148 18.5408C23.3222 18.9131 23.8349 19.2759 24.3478 19.6418C24.3834 19.6691 24.4246 19.6898 24.5137 19.7399C24.5136 19.4493 24.511 19.2013 24.5084 18.9533C24.5079 18.8747 24.5162 18.7923 24.4976 18.7151C24.3799 18.1801 24.6585 17.8844 25.0991 17.6418C25.5805 17.3776 26.0334 17.0643 26.504 16.7799C26.6513 16.6919 26.6997 16.5819 26.7004 16.4093C26.6859 15.1513 26.6838 13.8953 26.6784 12.6365C26.6783 12.5276 26.6873 12.4178 26.6946 12.2871C26.9704 12.2852 27.2222 12.2854 27.4767 12.2823C27.6403 12.2808 27.6173 12.4038 27.6163 12.5007C27.6165 13.1545 27.6134 13.8056 27.6136 14.4594C27.6147 14.5441 27.6154 14.6257 27.6627 14.7186C28.8574 12.9783 30.0523 11.241 31.2608 9.48431C30.9565 9.21913 30.6585 8.95644 30.3608 8.69676C30.2822 8.62765 30.1896 8.57181 30.1283 8.49217C29.7755 8.04639 29.3114 7.97314 28.7707 8.00011C27.9435 8.04495 27.1134 8.02041 26.2836 8.0352C26.0625 8.03852 25.9538 7.97192 25.9793 7.73369C25.9963 7.57487 25.986 7.4153 25.9817 7.25523C25.9789 7.1132 26.0464 7.05005 26.1829 7.05076C27.3777 7.04789 28.5764 7.02046 29.7714 7.05691C29.9966 7.06536 30.2241 7.3188 30.4317 7.48006C30.7106 7.6959 30.9702 7.93455 31.287 8.20475C31.287 7.98681 31.2862 7.8325 31.2854 7.67819C31.2848 6.7308 31.2843 5.7834 31.2717 4.83701C31.2704 4.74934 31.1938 4.63163 31.1195 4.57729C30.3312 4.0377 29.5349 3.51089 28.7411 2.97782C28.6351 2.90797 28.535 2.8346 28.4124 2.74796C28.5677 2.4656 28.715 2.19601 28.8755 1.90413C29.4025 2.25667 29.9038 2.59319 30.4052 2.92971C32.3742 4.23947 34.3434 5.55225 36.3176 6.85249C36.4462 6.93862 36.6261 6.98716 36.781 6.98937C37.9856 6.99476 39.1888 6.98512 40.3926 6.98149C40.4805 6.98021 40.5655 6.98218 40.6808 6.98165C40.6819 7.28425 40.6935 7.56782 40.6745 7.84788C40.6723 7.89347 40.5237 7.96642 40.4449 7.96694C39.3204 7.97606 38.1957 7.98216 37.0727 7.97299C36.8574 7.97281 36.7374 8.0252 36.6298 8.22488C35.7092 9.90603 34.779 11.5819 33.8395 13.2556C33.763 13.3921 33.6436 13.5232 33.5108 13.6039C31.5973 14.7655 29.6765 15.9127 27.7631 17.0743C27.0358 17.5164 26.3161 17.9761 25.6029 18.4412C25.5223 18.4934 25.4543 18.6231 25.4504 18.7203C25.434 19.2121 25.4512 19.7071 25.441 20.2013C25.4363 20.3621 25.4788 20.4706 25.6221 20.5524C25.7655 20.6343 25.9013 20.735 26.0524 20.8374C26.3972 20.4999 26.7332 20.1661 27.0754 19.8348C28.6414 18.3268 30.2074 16.8188 31.7702 15.3081C31.8936 15.1888 32.0163 15.1331 32.1923 15.1336C33.4119 15.1377 34.6335 15.1296 35.8526 15.1277C35.9618 15.1277 36.072 15.1396 36.1967 15.1444C36.1968 15.4349 36.1951 15.7045 36.2027 15.9763C36.2058 16.1213 36.1147 16.1198 36.0115 16.1194C35.493 16.1203 34.9744 16.1212 34.4558 16.1221C33.801 16.1253 33.1487 16.1223 32.4948 16.1375C32.3919 16.14 32.2662 16.1959 32.1904 16.2689C31.2592 17.1729 30.3346 18.0826 29.4067 18.9894C29.3505 19.0425 29.2812 19.0846 29.2185 19.1322C29.2328 19.1583 29.2499 19.1811 29.2642 19.2071C29.3804 19.1823 29.4971 19.1635 29.6125 19.1296C30.4528 18.8779 31.2933 18.6291 32.1263 18.3628C32.3125 18.3049 32.4513 18.2963 32.5891 18.4574C32.7403 18.6324 32.8217 18.8072 32.7382 19.0412C32.4232 19.9151 32.1115 20.7917 31.7998 21.6683C31.6307 22.1485 31.468 22.6313 31.302 23.1113C31.1894 23.4325 31.1028 23.4851 30.7539 23.484C29.9562 23.484 29.1593 23.493 28.3616 23.493C28.2374 23.4943 28.1604 23.5158 28.1175 23.6556C27.6383 25.1395 27.1558 26.6206 26.6611 28.0997C26.6051 28.2648 26.6366 28.3863 26.7117 28.5223C27.7439 30.4521 28.7673 32.3856 29.811 34.3084C29.9687 34.598 29.953 34.8081 29.7851 35.0855C28.1635 37.7393 26.5519 40.4044 24.9431 43.0662C24.256 44.2042 23.5784 45.3474 22.8943 46.4852C22.8519 46.5583 22.8032 46.629 22.7365 46.7375C22.462 46.2852 22.2054 45.8646 21.949 45.4471C20.4153 42.9629 18.8787 40.4789 17.3421 37.9949C16.7105 36.973 16.0759 35.9514 15.4559 34.9226C15.4067 34.8419 15.4152 34.6899 15.4593 34.6014C16.0305 33.4913 16.6142 32.3861 17.1949 31.2813C17.6763 30.3663 18.1672 29.4566 18.6421 28.5361C18.697 28.4316 18.7078 28.2703 18.6678 28.1556C18.2744 26.9716 17.8659 25.7888 17.4667 24.6083C17.3657 24.308 17.2705 24.0042 17.181 23.6968C17.1421 23.5578 17.0655 23.5128 16.9232 23.5156C16.0932 23.5273 15.2646 23.5208 14.4356 23.5446C14.1966 23.5525 14.0889 23.4616 14.0143 23.2589C13.6189 22.1599 13.2175 21.0613 12.819 19.9625C12.7206 19.6922 12.6339 19.4179 12.5035 19.1655C12.3664 18.9045 12.5689 18.5334 12.7955 18.4146C12.871 18.375 12.9975 18.4008 13.0906 18.4263C13.9793 18.679 14.8656 18.941 15.7545 19.1968C15.8353 19.2203 15.9154 19.2348 15.996 19.2553C15.9992 19.2581 16.007 19.2423 16.0178 19.2263ZM26.2341 29.6277C26.2043 29.7058 26.1834 29.7469 26.1689 29.7905C25.8605 30.7425 25.5646 31.6995 25.2376 32.647C24.5665 34.5919 23.8801 36.535 23.2028 38.4773C23.1732 38.5585 23.1471 38.6454 23.1482 38.7301C23.1513 39.2383 23.1635 39.7459 23.1727 40.2536C23.1735 40.3353 23.1861 40.4129 23.1984 40.5602C23.2885 40.4407 23.3409 40.3788 23.3811 40.3149C24.2034 38.9447 25.0225 37.5717 25.8418 36.2017C26.483 35.1311 27.121 34.0577 27.7717 32.9924C27.8545 32.8584 27.8653 32.7697 27.793 32.6304C27.3123 31.708 26.8401 30.7788 26.3652 29.8528C26.332 29.7829 26.2904 29.7198 26.2341 29.6277ZM22.1545 40.5535C22.1723 40.549 22.1871 40.5448 22.2049 40.5402C22.2107 40.4641 22.2197 40.3907 22.2194 40.315C22.2181 39.9005 22.2199 39.4886 22.2155 39.0743C22.2152 38.926 22.2411 38.7634 22.1933 38.6282C21.8388 37.5832 21.4665 36.5427 21.103 35.4985C20.5076 33.7865 19.9182 32.074 19.3289 30.3615C19.2565 30.1496 19.193 29.9339 19.1136 29.6742C19.0516 29.7672 19.0155 29.8065 18.9891 29.8541C18.5133 30.7989 18.0404 31.7434 17.5583 32.6857C17.4881 32.8248 17.526 32.9154 17.5966 33.0336C19.0606 35.448 20.5219 37.8657 21.983 40.2803C22.0392 40.3725 22.0983 40.4614 22.1545 40.5535ZM22.6041 19.5724C22.5496 19.6103 22.4949 19.6451 22.4465 19.6824C21.9243 20.0741 21.4091 20.4773 20.8766 20.8548C20.7135 20.9713 20.6934 21.0577 20.7572 21.2401C21.1688 22.4589 21.5923 23.6767 21.9506 24.9121C22.0612 25.2903 22.3421 25.4212 22.5813 25.6343C22.5977 25.6481 22.6348 25.6571 22.6461 25.6471C22.8539 25.4844 23.1706 25.3551 23.2441 25.1461C23.6942 23.8221 24.0914 22.4813 24.4978 21.1427C24.5219 21.0681 24.489 20.9285 24.434 20.8877C23.8325 20.4415 23.2201 20.0114 22.6041 19.5724ZM16.7634 15.565C16.7829 15.5452 16.8028 15.5284 16.8193 15.5088C16.7171 15.3388 16.6267 15.1647 16.5162 15.0044C16.3364 14.7409 16.1423 14.4877 15.9628 14.2273C15.0593 12.9285 14.1588 11.6294 13.2611 10.3271C13.1785 10.2098 13.0898 10.1658 12.9475 10.1686C12.2937 10.1838 11.6418 10.1868 10.9872 10.193C10.8873 10.1953 10.7872 10.1946 10.666 10.1956C10.6871 10.2665 10.6929 10.2993 10.7072 10.3253C11.1497 11.1178 11.5862 11.9107 12.0372 12.6964C12.0937 12.7916 12.1919 12.8772 12.2908 12.9356C13.2899 13.5302 14.2913 14.1156 15.293 14.7039C15.778 14.9904 16.2693 15.2793 16.7634 15.565ZM34.4811 10.0903C34.3538 10.0918 34.278 10.0921 34.2022 10.0924C33.5504 10.0953 32.8965 10.1106 32.2437 10.1015C32.0434 10.1001 31.9242 10.1615 31.8136 10.3251C30.7425 11.9128 29.6652 13.4981 28.5912 15.0861C28.5022 15.2176 28.4292 15.3599 28.3499 15.4997C28.4593 15.5027 28.5238 15.4761 28.5846 15.4408C30.0423 14.5593 31.4968 13.6751 32.9511 12.7879C33.0261 12.7423 33.0921 12.6611 33.137 12.5817C33.493 11.9435 33.8427 11.3029 34.1921 10.6593C34.2867 10.4849 34.3722 10.3113 34.4811 10.0903ZM28.3904 33.752C28.3184 33.87 28.265 33.9562 28.2146 34.0421C27.3702 35.4748 26.5255 36.9044 25.6811 38.337C24.9057 39.6519 24.1207 40.9615 23.3518 42.2819C23.2617 42.4377 23.2239 42.6376 23.2149 42.82C23.1942 43.188 23.2129 43.5557 23.2135 43.9249C23.3648 43.7761 23.4702 43.622 23.5658 43.4597C24.4453 42.012 25.3249 40.5643 26.2011 39.1139C27.0774 37.6635 27.954 36.2161 28.827 34.7629C28.8563 34.715 28.8857 34.6308 28.8643 34.5933C28.7232 34.3205 28.5675 34.0551 28.3904 33.752ZM16.958 33.8104C16.8055 34.0895 16.6941 34.3167 16.5572 34.528C16.4631 34.672 16.4746 34.774 16.5653 34.9147C16.9591 35.5236 17.344 36.1362 17.7232 36.7523C19.0959 38.9806 20.4688 41.2119 21.8414 43.4402C21.9501 43.6157 22.0674 43.7845 22.2138 44.0114C22.2127 43.6362 22.1872 43.3326 22.2138 43.0337C22.25 42.6342 22.0983 42.3078 21.9014 41.9852C20.6207 39.8764 19.3402 37.7706 18.0625 35.6615C17.7026 35.0589 17.346 34.4591 16.958 33.8104ZM12.8863 5.38503C12.7172 5.50207 12.5882 5.59154 12.4562 5.68126C11.4579 6.36393 10.4629 7.04936 9.46116 7.72627C9.30608 7.83003 9.29532 7.9187 9.393 8.07098C9.60896 8.40408 9.80208 8.75422 10.0208 9.08406C10.0695 9.1587 10.1935 9.22705 10.2816 9.22877C11.0705 9.23254 11.8579 9.21827 12.6458 9.21001C12.7306 9.20898 12.8147 9.19893 12.899 9.19189C12.8986 7.9206 12.8942 6.67386 12.8863 5.38503ZM32.2299 5.34122C32.2371 6.62103 32.241 7.86176 32.2474 9.09623C32.2851 9.11125 32.2981 9.12227 32.3132 9.12101C33.1713 9.11899 34.0322 9.11372 34.8899 9.10569C34.9444 9.10417 35.0237 9.07333 35.0505 9.03174C35.3147 8.60104 35.5723 8.16484 35.8435 7.70935C34.6304 6.91463 33.4432 6.13894 32.2299 5.34122ZM26.9277 24.1878C26.9086 24.1773 26.8893 24.1638 26.8702 24.1533C26.835 24.1683 26.7967 24.1806 26.765 24.2014C25.7382 24.8683 24.7118 25.5412 23.6784 26.2026C23.5459 26.2863 23.5768 26.3655 23.6197 26.4799C23.9712 27.4162 24.3198 28.3557 24.6655 29.2955C24.7753 29.592 24.87 29.8899 24.9876 30.2433C25.6493 28.1872 26.2885 26.1875 26.9277 24.1878ZM22.6796 37.2285C23.2395 35.5865 23.7945 33.9571 24.3567 32.3058C23.2046 32.3112 22.11 32.3148 20.9944 32.3202C21.5599 33.965 22.1176 35.5894 22.6796 37.2285ZM21.6837 26.2511C20.5851 25.5558 19.4607 24.8414 18.2978 24.1031C18.9827 26.1587 19.6475 28.1555 20.324 30.1846C20.7782 28.8723 21.2246 27.5759 21.6837 26.2511ZM16.6543 22.5875C16.3783 21.7903 16.1278 21.0454 15.8627 20.3077C15.8431 20.2549 15.7606 20.2103 15.7016 20.194C15.1267 20.0301 14.5527 19.8753 13.9753 19.7176C13.8947 19.6971 13.8144 19.6796 13.7002 19.6558C14.0022 20.4721 14.2795 21.2481 14.5744 22.0165C14.7919 22.5856 14.8007 22.5818 15.4019 22.5892C15.6659 22.5913 15.927 22.5938 16.1908 22.5929C16.3331 22.5901 16.4724 22.5876 16.6543 22.5875ZM28.6784 22.5312C29.221 22.5283 29.7544 22.5231 30.2855 22.5272C30.4404 22.5294 30.5109 22.466 30.5568 22.326C30.8434 21.4757 31.1393 20.6276 31.4289 19.7771C31.4488 19.724 31.4497 19.6634 31.4595 19.599C30.7894 19.7821 30.1456 19.9539 29.5026 20.1347C29.4582 20.1475 29.4078 20.1971 29.3933 20.2407C29.1458 20.9787 28.9045 21.7193 28.6633 22.4598C28.6615 22.4751 28.6691 22.4926 28.6784 22.5312ZM18.1258 22.9187C19.0524 23.4801 19.9441 24.0231 20.8358 24.5662C20.8529 24.5527 20.8702 24.5421 20.8873 24.5286C20.5697 23.5623 20.2494 22.5992 19.924 21.6123C19.3065 22.0604 18.7205 22.4877 18.1258 22.9187ZM24.4103 24.4767C24.4296 24.4902 24.4489 24.5037 24.4682 24.5172C25.3511 23.9774 26.2369 23.4373 27.1459 22.8831C26.5527 22.4635 25.9624 22.0436 25.3368 21.5994C25.0236 22.5669 24.7184 23.5217 24.4103 24.4767ZM22.6896 26.6726C22.6535 26.6756 22.6203 26.6784 22.5842 26.6814C22.2714 27.5096 21.9587 28.3379 21.6487 29.1629C22.3183 29.552 22.9653 29.5282 23.6273 29.14C23.3161 28.3214 23.0013 27.4971 22.6896 26.6726ZM18.4516 21.487C18.2236 21.1186 17.02 20.1112 16.751 20.0852C17.0032 20.7786 17.2514 21.4601 17.5116 22.1769C17.8461 21.9341 18.1488 21.7091 18.4516 21.487ZM28.4946 20.013C28.463 19.9975 28.4344 19.9817 28.4025 19.9632C27.8645 20.4561 27.3235 20.9492 26.7657 21.4589C27.1224 21.6985 27.428 21.9061 27.7686 22.1349C28.0222 21.3964 28.2584 20.7047 28.4946 20.013ZM21.5478 29.9129C21.5149 29.9187 21.482 29.9245 21.4494 29.9332C21.249 30.401 21.0459 30.872 20.8377 31.3555C21.3562 31.3546 21.8351 31.351 22.3718 31.3485C22.0805 30.8401 21.8143 30.378 21.5478 29.9129ZM24.4932 31.3289C24.2835 30.853 24.082 30.4036 23.8806 29.9543C23.85 29.9508 23.8191 29.9443 23.7885 29.9408C23.5105 30.3878 23.2328 30.8378 22.9257 31.3356C23.4804 31.3317 23.9626 31.3308 24.4932 31.3289Z" fill="#FFEB61"/>
</svg>
