<svg width="50" height="48" viewBox="0 0 50 48" fill="none" xmlns="http://www.w3.org/2000/svg">
<path d="M35.267 24.8856C35.267 24.8855 35.267 24.8855 35.267 24.8854L35.067 24.8885M35.267 24.8856L35.2665 23.3391C35.2014 23.2921 35.1348 23.2434 35.0668 23.1927C35.0665 23.3962 35.0658 23.5825 35.0652 23.7565C35.0637 24.1828 35.0625 24.5357 35.067 24.8885M35.267 24.8856C35.267 24.8857 35.267 24.8858 35.267 24.886L35.067 24.8885M35.267 24.8856L35.067 24.8885M33.5631 23.4571C33.4954 23.5144 33.4296 23.57 33.3654 23.6241C32.9967 23.9351 32.6831 24.1996 32.3978 24.4948L32.3968 24.4957C31.0038 25.9176 29.3772 26.9302 27.3888 27.2944C26.2361 27.5076 25.4585 28.2867 24.7465 29.1889C24.2083 29.8749 23.7251 30.6103 23.2368 31.3534C23.1445 31.4939 23.052 31.6348 22.9588 31.7756C21.7089 33.6688 19.9924 34.6571 17.6631 34.6571C14.1256 34.6571 10.5846 34.6714 7.05167 34.8203C7.05164 34.8203 7.05162 34.8203 7.05159 34.8203L7.04317 34.6205L33.5631 23.4571ZM33.5631 23.4571C33.5875 23.6747 33.6104 23.8796 33.6323 24.0761C33.6795 24.4986 33.7222 24.8819 33.7672 25.2667C33.8574 26.0473 33.8188 26.7502 33.5917 27.3689C33.366 27.9839 32.9489 28.5299 32.2567 28.9914C32.047 29.1312 31.8799 29.3577 31.7603 29.5941C31.6395 29.8327 31.5574 30.1005 31.5296 30.3426L31.5294 30.3439C31.3865 31.6665 31.3366 33.0018 31.294 34.3228M33.5631 23.4571L9.34426 38.3701C9.34442 38.3701 9.34458 38.3701 9.34475 38.3701C15.1341 38.3559 20.9161 38.3417 26.7053 38.3204L26.706 38.3204C26.9127 38.3204 27.1151 38.3204 27.3098 38.3134L27.3117 38.3134C28.7986 38.2747 29.7524 37.9844 30.3531 37.3804C30.9545 36.7758 31.2447 35.8142 31.294 34.3228M31.294 34.3228C31.294 34.3228 31.294 34.3227 31.294 34.3227L31.4939 34.3293L31.294 34.3228ZM42.031 19.7411C41.863 19.5831 41.6952 19.43 41.5292 19.2786C41.1013 18.888 40.6855 18.5086 40.3099 18.0855L40.3092 18.0848C38.497 16.0623 36.2157 15.0017 33.5272 14.8857C31.1849 14.7814 29.2167 13.8794 27.4771 12.3564C27.2933 12.1954 27.1096 12.0336 26.9258 11.8716C26.1394 11.1787 25.3489 10.4821 24.5213 9.82819L24.5211 9.82798C22.9744 8.61013 21.4157 8.02102 19.8655 8.08753C18.3156 8.15403 16.8058 8.87457 15.3537 10.2146L15.3537 10.2147C14.6196 10.8927 13.8993 11.5861 13.1927 12.2663C12.9461 12.5037 12.7012 12.7395 12.4579 12.9725C12.0172 12.7674 11.5967 12.4995 11.1719 12.217C11.1024 12.1708 11.0326 12.1241 10.9626 12.0773C10.571 11.8151 10.172 11.548 9.76049 11.328C9.27287 11.0673 8.75554 10.8656 8.18733 10.8085C7.61672 10.7511 7.00649 10.8407 6.33546 11.1456C5.23803 11.6418 4.32313 12.288 3.6397 13.1557C2.95543 14.0244 2.51191 15.104 2.34105 16.4527L2.26963 17.0165L2.6784 16.6217C2.99574 16.3152 3.29657 16.0193 3.58781 15.7328C4.25435 15.0772 4.87071 14.4709 5.52005 13.9003L5.5201 13.9002C6.42017 13.1087 7.14281 12.7825 7.80413 12.8385C8.46678 12.8946 9.13406 13.34 9.90909 14.2623L9.90908 14.2623L9.91036 14.2638C10.0523 14.4294 10.1747 14.6072 10.3102 14.8041C10.3405 14.8481 10.3714 14.893 10.4033 14.939C7.64843 17.5683 4.94079 20.1503 2.23326 22.7323L2.20964 22.7548L2.20901 22.7554C1.65042 23.2928 1.30445 23.6922 1.19193 24.1842C1.08037 24.672 1.20715 25.2146 1.46103 26.0079L1.56574 26.3352L1.79858 26.0825C1.90585 25.9661 2.00733 25.8523 2.10634 25.7412C2.32498 25.4959 2.53152 25.2642 2.76149 25.0486L2.76162 25.0485C3.57816 24.2817 4.39422 23.5147 5.21015 22.7478C9.05833 19.131 12.9037 15.5168 16.7829 11.9364C17.1828 11.5676 17.6336 11.2479 18.1281 10.923C18.3054 10.8065 18.4897 10.6884 18.6791 10.5671C18.9267 10.4085 19.1829 10.2444 19.4434 10.071C19.4709 10.2921 19.4979 10.5027 19.5239 10.7051C19.6132 11.4 19.6902 11.9994 19.7296 12.6051C19.7772 13.3655 19.9499 14.0499 20.3058 14.6283C20.6633 15.2092 21.1977 15.67 21.9453 15.9936L42.031 19.7411ZM46.4793 31.8109C46.354 31.7013 46.229 31.5946 46.1052 31.4889C45.7287 31.1674 45.3632 30.8553 45.0308 30.4993C43.3226 28.6589 41.6303 26.8108 39.9357 24.9601C39.3546 24.3255 38.7732 23.6906 38.1908 23.0556L38.1888 23.0534C38.1297 22.9908 38.072 22.9279 38.0142 22.8648L38.0058 22.8556C37.9511 22.7959 37.8961 22.7358 37.841 22.6772L37.8407 22.6769C36.6803 21.4487 35.6643 20.7736 34.6146 20.762C33.5628 20.7504 32.5523 21.4052 31.4049 22.6277L31.4048 22.6277C29.68 24.4671 27.5127 25.1928 24.7677 25.4114C24.7671 24.7736 24.7635 24.1456 24.76 23.5246C24.7511 21.9469 24.7425 20.4147 24.782 18.884V18.884C24.8073 17.8963 24.6816 17.0017 24.2934 16.2356C23.9029 15.465 23.2559 14.8423 22.2724 14.3856C21.7921 14.1619 21.5039 13.8558 21.3614 13.4886C21.2172 13.1167 21.2126 12.6563 21.3517 12.1097C21.4529 11.728 21.5975 11.3685 21.7703 10.9387C21.8295 10.7915 21.892 10.636 21.9573 10.4686C22.3401 10.7733 22.7176 11.0652 23.0882 11.3517C24.0308 12.0804 24.9282 12.7742 25.7515 13.5543C27.9485 15.643 30.4663 16.854 33.5492 16.9264C35.5898 16.9747 37.3086 17.8618 38.6903 19.3891C39.3281 20.098 39.9663 20.8063 40.6043 21.5145C42.5182 23.6388 44.4316 25.7626 46.3332 27.8985C46.7283 28.3433 47.0142 28.6948 47.202 29.0048C47.3878 29.3117 47.4704 29.5666 47.4715 29.8193C47.4726 30.0742 47.3912 30.3506 47.2058 30.7007C47.0411 31.0118 46.8006 31.3698 46.4793 31.8109Z" fill="#FFEB61" stroke="#FFEB61" stroke-width="0.4"/>
</svg>
