<svg width="48" height="48" viewBox="0 0 48 48" fill="none" xmlns="http://www.w3.org/2000/svg">
<path d="M13.2475 30.1092C13.275 29.8631 13.3143 29.6279 13.3222 29.389C13.4756 25.3211 15.6814 22.4113 19.3813 20.3737C20.7182 19.6391 22.173 19.1975 23.7379 18.9804C25.5073 18.7379 27.139 18.0575 28.7354 17.3264C29.7616 16.8559 30.8036 16.4144 31.9989 15.8896C32.05 15.7738 32.1522 15.4517 32.3252 15.1694C32.8875 14.2538 34.0199 13.9679 34.94 14.5831C35.3764 14.8763 35.7224 14.8944 36.2021 14.7677C37.7356 14.366 39.2258 14.7098 40.657 15.1658C42.2416 15.6652 43.775 16.3058 45.3321 16.8776C45.7606 17.0333 45.9258 17.2975 45.8865 17.7245C45.7252 19.5522 44.9074 21.1157 43.5863 22.4511C43.3779 22.661 42.9532 22.7624 42.619 22.7768C41.699 22.8203 40.771 22.813 39.847 22.7877C39.3516 22.7732 39.0803 22.9469 38.8719 23.3704C38.0737 25.0026 37.1812 26.595 36.4302 28.2454C36.1235 28.9221 36.0802 29.7003 35.8954 30.5254C36.3476 30.605 36.6661 30.6485 36.9728 30.7172C38.4355 31.043 39.3005 32.2337 39.0331 33.6451C38.7736 33.6705 38.4905 33.7211 38.2035 33.7247C36.5874 33.732 34.9675 33.703 33.3554 33.7428C32.7381 33.7573 32.3331 33.551 32.0697 33.0878C31.6568 32.3639 31.2675 31.6293 30.894 30.8873C30.7171 30.5363 30.607 30.1563 30.4418 29.7292C29.7066 30.102 29.0303 30.4458 28.3068 30.8113C29.4274 31.4483 30.2924 32.2228 30.0408 33.656C29.683 33.6777 29.3606 33.7139 29.0421 33.7139C22.0786 33.7247 15.1191 33.7356 8.15565 33.732C6.46099 33.732 4.80565 33.4859 3.23681 32.867C2.9655 32.7584 2.69027 32.6462 2.44256 32.4979C1.98252 32.2192 1.99432 31.7994 2.4976 31.6003C3.00875 31.3976 3.5435 31.2022 4.09004 31.119C5.97343 30.8294 7.86076 30.5652 9.75595 30.3445C10.8962 30.2178 12.0522 30.1888 13.2475 30.1092ZM25.1927 31.4049C25.1573 31.242 25.0983 31.1443 25.1259 31.0683C25.2045 30.8403 25.3185 30.6195 25.4129 30.3951C26.0263 28.9077 26.1324 27.4347 25.177 26.0232C24.3159 24.7493 23.0301 24.0978 21.4338 23.9313C21.0484 23.8915 20.6592 23.8481 20.7457 23.3704C20.8243 22.9288 21.245 23.0338 21.5439 23.07C22.9869 23.251 24.2687 23.7468 25.2871 24.7457C26.7851 26.215 26.9975 27.9631 26.5925 29.845C26.5532 30.0296 26.5532 30.2214 26.5099 30.6159C27.6462 30.0911 28.6174 29.6568 29.5729 29.1936C30.088 28.9402 30.3082 28.5494 30.1548 27.9812C30.0604 27.6337 30.0486 27.2537 30.084 26.8954C30.0998 26.747 30.3435 26.5082 30.4851 26.5082C30.6424 26.5046 30.8822 26.6964 30.9491 26.8556C31.0395 27.0728 30.9962 27.3333 31.0238 27.5758C31.2007 29.1936 31.6489 30.7317 32.51 32.1649C32.8049 32.6535 33.1391 32.9358 33.8194 32.9032C35.0383 32.8417 36.2611 32.8851 37.48 32.8742C37.6884 32.8706 37.8968 32.8163 38.1406 32.7765C37.8024 31.8826 37.1301 31.5315 36.2454 31.4519C36.0488 31.4338 35.8522 31.4628 35.6516 31.4664C35.2978 31.47 35.0383 31.3072 35.0776 30.985C35.1955 29.9934 35.1602 28.9366 35.5455 28.0355C36.3555 26.1499 37.4131 24.3548 38.3332 22.509C38.5495 22.0783 38.8365 21.9336 39.3241 21.9481C40.2795 21.9698 41.2389 21.9734 42.1944 21.9408C42.4971 21.93 42.8943 21.854 43.0751 21.6658C44.0738 20.6343 44.758 19.4436 44.9467 18.1154C44.4906 17.768 44.1407 17.3916 43.7003 17.1925C42.1039 16.4687 40.4368 15.8896 38.6832 15.5675C37.7356 15.3938 36.7722 15.3359 35.8758 15.763C35.3646 16.0054 35.0186 16.0851 34.6765 15.5096C34.4328 15.1007 33.8429 15.0572 33.4498 15.2707C33.0566 15.4879 32.8914 15.9367 33.0487 16.3927C33.0762 16.4759 33.1824 16.5483 33.1863 16.6315C33.1981 16.8197 33.2453 17.0984 33.1391 17.178C33.0094 17.2721 32.7184 17.2396 32.5258 17.1817C32.3606 17.131 32.2387 16.9609 32.0303 16.7908C31.1063 17.2106 30.2099 17.663 29.278 18.0285C27.8271 18.5931 26.3644 19.1468 24.8742 19.6137C23.9148 19.9141 22.8729 19.9901 21.9095 20.276C17.4154 21.6115 13.967 25.5346 14.2266 30.1128C14.2737 30.9344 14.1715 30.9814 13.3065 31.0357C11.3012 31.1588 9.29198 31.2673 7.29456 31.4555C6.17396 31.5605 5.06909 31.8138 3.95635 32.002C3.93276 32.0708 3.90917 32.1432 3.88557 32.2119C3.97601 32.2481 4.06644 32.2988 4.16081 32.3133C5.42689 32.5087 6.68511 32.8236 7.95512 32.867C10.5266 32.9502 13.102 32.8887 15.6735 32.8851C15.9566 32.8851 16.2397 32.8598 16.6565 32.838C16.452 32.5883 16.3105 32.4327 16.1965 32.2626C16.0942 32.1106 15.9763 31.9405 15.9645 31.774C15.9566 31.6184 16.047 31.3506 16.1571 31.3216C16.3341 31.2746 16.57 31.3578 16.7548 31.4374C16.857 31.4809 16.8924 31.6401 16.971 31.7342C17.8007 32.7222 19.2634 32.8489 20.2817 32.0237C22.0472 30.5906 21.4023 27.7857 19.1336 27.051C18.8269 26.9497 18.4927 26.9135 18.1781 26.8339C17.899 26.7651 17.6906 26.6204 17.7574 26.3164C17.8282 26.0051 18.0956 25.9834 18.3747 26.0015C18.4416 26.0051 18.5084 26.0087 18.5713 26.0232C20.1362 26.3055 21.3119 27.0583 21.8978 28.4517C22.4797 29.8342 22.2674 31.1298 21.2726 32.3097C21.1468 32.4617 21.0327 32.6209 20.8872 32.8163C22.9476 32.9828 28.3186 32.914 29.0421 32.715C29.0224 32.6318 29.0303 32.534 28.9831 32.4617C28.5152 31.7559 27.835 31.4012 26.9306 31.4085C26.3448 31.4085 25.7668 31.4049 25.1927 31.4049Z" fill="#FFEB61" stroke="#FFEB61" stroke-width="0.25" stroke-miterlimit="10"/>
<path d="M39.3244 17.2251C39.3086 17.5834 38.9587 17.9091 38.5655 17.9163C38.1409 17.9272 37.7595 17.5653 37.7713 17.1672C37.7831 16.7908 38.1212 16.4831 38.5223 16.4795C38.9626 16.4759 39.3401 16.827 39.3244 17.2251Z" fill="#FFEB61" stroke="#FFEB61" stroke-width="0.25" stroke-miterlimit="10"/>
</svg>
