<svg width="48" height="49" viewBox="0 0 48 49" fill="none" xmlns="http://www.w3.org/2000/svg">
<mask id="path-1-outside-1_784_3371" maskUnits="userSpaceOnUse" x="3.90283" y="2.82983" width="40" height="43" fill="black">
<rect fill="white" x="3.90283" y="2.82983" width="40" height="43"/>
<path d="M10.4699 19.8484C10.0769 19.1627 9.96462 18.4769 9.96462 17.6769C9.90848 14.8767 12.042 12.648 14.737 12.5337C15.1301 12.5337 15.3546 12.4195 15.5231 12.0766C17.2075 9.21928 21.4184 8.76211 23.552 11.1622C23.8327 11.448 24.0011 11.7908 24.2819 12.1909C23.945 12.248 23.6643 12.3623 23.3835 12.3623C23.3274 12.3623 23.2151 12.3052 23.1589 12.248C22.2045 10.5908 19.734 10.0765 17.9374 11.048C17.2636 11.448 16.7022 11.9051 16.3091 12.5909C19.341 13.5624 20.6324 15.7339 20.4639 18.9912C21.25 18.9341 21.9799 18.877 22.7659 18.8198C22.6536 18.6484 22.5975 18.5341 22.5413 18.4198C21.643 17.1626 20.7447 15.8482 19.8463 14.5339C19.7902 14.4196 19.6217 14.3624 19.6217 14.2481C19.6217 14.0767 19.6217 13.8481 19.6779 13.6767C19.7902 13.5624 20.0148 13.5624 20.1832 13.5624C20.2955 13.5624 20.4078 13.6767 20.4639 13.791C21.3623 15.0482 22.2045 16.3054 23.0467 17.5626C23.552 18.3055 23.945 19.1055 24.4503 19.9627C24.4503 19.6199 24.5064 19.3341 24.5064 19.0484C24.5064 15.3339 24.5064 11.6766 24.5064 7.96207C24.5064 7.84777 24.5064 7.73348 24.5064 7.61919C24.5626 7.27631 24.731 7.10488 25.0118 7.10488C25.2925 7.10488 25.4609 7.27631 25.4609 7.61919C25.5171 9.79074 25.5171 12.0194 25.5171 14.191C25.5171 14.3053 25.5171 14.4196 25.5171 14.6482C25.9101 14.3053 26.3031 14.0195 26.64 13.6767C27.6506 12.7623 28.4928 11.7337 28.942 10.4193C29.728 7.90492 28.3244 5.3905 25.7978 4.81904C23.552 4.36187 21.3623 5.96196 21.0254 8.2478C21.0254 8.30494 21.0254 8.41923 20.9693 8.53353C20.6324 8.47638 20.3516 8.47638 20.0148 8.41924C20.0709 7.73348 20.2955 7.10488 20.6324 6.53342C21.8114 4.30472 24.2257 3.33324 26.5839 4.07614C28.8297 4.76189 30.2895 7.04773 30.0649 9.50501C29.8965 11.2194 29.0543 12.5909 27.9314 13.7338C27.2576 14.4196 26.4154 15.0482 25.6855 15.7339C25.5732 15.8482 25.5171 15.9625 25.5171 16.0768C25.4048 19.1055 25.2925 22.1343 25.1802 25.163C25.1802 25.2773 25.1802 25.3916 25.1802 25.563C26.9769 24.9344 28.3244 23.7344 29.6719 22.4772C29.5035 22.3057 29.335 22.1343 29.2227 21.9628C27.6506 20.0199 27.0892 16.8197 28.8858 14.5339C30.2333 12.7623 32.0862 12.0766 34.2197 12.5909C36.3533 13.0481 37.7008 14.4196 38.1499 16.5911C38.3745 17.5626 38.2061 18.5341 37.8692 19.5056C37.8131 19.6198 37.8131 19.677 37.7569 19.7913V19.8484C38.4307 19.7341 39.1044 19.7913 39.7782 19.9627C41.7994 20.5913 43.2031 22.5343 43.0908 24.6487C42.9785 26.8774 41.4626 28.7061 39.329 29.0489C37.3078 29.3918 35.7357 28.5346 34.5004 26.9345C34.332 26.706 34.2197 26.706 33.9951 26.7631C32.1985 27.2203 30.4018 27.6774 28.6051 27.8489C28.3805 27.8489 28.1559 27.9632 27.9875 28.0775C26.9769 28.7061 26.3593 29.6776 25.6855 30.5919C25.5171 30.8205 25.4048 31.0491 25.1802 31.2776C24.5626 31.9634 24.5626 32.7634 24.8995 33.5063C26.4716 36.9922 27.3138 40.7067 27.9875 44.4212C28.0998 44.9927 27.9314 45.1641 27.3699 45.1641C25.1802 45.1641 22.9905 45.1641 20.8008 45.1641C20.1832 45.1641 20.0148 44.9355 20.1832 44.3641C21.1938 40.6496 22.2606 36.9922 23.4958 33.3349C23.6081 32.992 23.6081 32.7063 23.4397 32.3634C22.7098 31.1062 21.8676 29.849 20.857 28.8204C20.2393 28.1918 19.5656 27.7917 18.6673 27.6203C17.1513 27.3917 15.6354 26.9917 14.1194 26.6488C13.8948 26.5917 13.7264 26.6488 13.558 26.8202C12.8281 27.7346 11.9297 28.4775 10.8068 28.8204C8.72941 29.449 6.42742 28.4775 5.41679 26.5917C4.40616 24.5344 4.91148 22.02 6.70815 20.6485C7.71878 19.8484 8.8417 19.5627 10.1331 19.677C10.1892 19.677 10.2454 19.677 10.2454 19.677C10.4138 19.9056 10.4138 19.8484 10.4699 19.8484ZM35.3988 26.4202C36.241 27.906 38.1499 28.5918 39.7782 28.0775C41.2941 27.6203 42.3609 26.0202 42.3048 24.4201C42.1925 22.6486 41.0134 21.1628 39.2729 20.8771C38.4868 20.7056 37.7008 20.8199 36.9709 21.2199C36.0725 21.6771 35.4549 22.4771 35.1742 23.5058C34.8373 23.4486 34.5566 23.3915 34.2759 23.3915C34.2759 23.3343 34.2759 23.2772 34.2759 23.2772C34.2759 23.2201 34.332 23.1058 34.332 23.0486C34.6127 22.0771 35.1742 21.3342 35.9603 20.7628C36.9709 20.0199 37.3078 18.9912 37.3639 17.8483C37.42 16.1339 36.6901 14.8196 35.1181 14.0195C33.4898 13.2195 31.9177 13.3338 30.4579 14.4767C28.0437 16.3625 28.2682 19.7341 30.1211 21.7343C30.3456 21.9628 30.4579 21.9628 30.6264 21.7343C31.8616 20.477 32.9845 19.1055 33.8828 17.5626C34.0513 17.2769 34.3882 17.2197 34.6689 17.3912C34.9496 17.5626 34.9496 17.7912 34.7812 18.0769C33.2652 20.3627 31.5247 22.42 29.5035 24.1344C28.2682 25.2202 26.9207 26.1345 25.3486 26.706C25.2363 26.7631 25.1241 26.9345 25.1241 27.0488C25.0679 28.0775 25.0118 29.1061 24.9556 30.1347C24.9556 30.1919 24.9556 30.3062 25.0118 30.4204C25.1241 30.249 25.1802 30.1347 25.2363 30.0776C25.7978 29.1632 26.4716 28.3632 27.3138 27.7346C27.7068 27.506 28.0998 27.2203 28.549 27.1631C29.5596 26.9345 30.6264 26.8774 31.5809 26.5917C33.546 26.0774 35.4549 25.4487 37.42 24.8773C37.9815 24.7058 38.543 24.4773 39.1044 24.3058C39.4413 24.1915 39.7782 24.363 39.8343 24.6487C39.8905 24.8773 39.722 25.1059 39.3852 25.2202C39.329 25.2202 39.2729 25.2202 39.2167 25.2773C37.9815 25.563 36.6901 25.9631 35.3988 26.4202ZM23.8888 31.3348C23.945 31.3348 23.945 31.3348 24.0011 31.3348C23.945 30.8205 24.1696 30.249 23.8888 29.7347C23.1589 28.3632 22.3168 27.106 21.0815 26.0773C20.2394 25.3916 19.3972 24.6487 18.555 23.9058C16.5899 22.1914 14.9055 20.2485 13.4457 18.0769C13.3334 17.9626 13.2772 17.6769 13.3334 17.5626C13.3895 17.3912 13.6141 17.2769 13.7826 17.2197C14.0633 17.1626 14.2317 17.334 14.344 17.5626C14.9616 18.4769 15.5231 19.3341 16.1968 20.1913C16.7022 20.8199 17.2636 21.3914 17.7689 21.9628C17.8812 21.9057 17.8812 21.9057 17.9374 21.8485C18.6673 21.1628 19.1726 20.3056 19.3972 19.3341C19.8463 17.4483 19.3972 15.7911 17.8812 14.5339C16.4214 13.2766 14.737 13.1624 12.9965 14.0767C10.4138 15.391 10.0769 18.9912 12.3228 20.8199C12.9404 21.3342 13.4457 21.9057 13.7264 22.7057C13.7826 22.9343 13.8387 23.1629 13.8948 23.4486C13.6703 23.4486 13.4457 23.4486 13.2772 23.5058C13.0527 23.5629 12.9404 23.4486 12.8842 23.22C12.7158 22.7629 12.4912 22.3629 12.2105 22.02C11.0314 20.7628 9.23472 20.5913 7.71878 21.5628C6.48357 22.42 5.86596 23.6772 6.0344 25.163C6.20284 26.7631 7.10118 27.7917 8.61712 28.2489C10.3576 28.8204 12.042 27.7917 12.8842 26.6488C12.8842 26.6488 12.8842 26.5917 12.8842 26.5345C12.2105 26.3059 11.5929 26.0774 10.9191 25.9059C10.2454 25.6773 9.51545 25.4487 8.78555 25.2202C8.50482 25.163 8.33639 24.9916 8.39253 24.7058C8.44868 24.4773 8.72941 24.2487 9.01014 24.2487C9.17858 24.2487 9.29087 24.3058 9.45931 24.363C10.0208 24.5916 10.5822 24.763 11.1437 24.9916C13.8387 25.9059 16.5337 26.706 19.2849 27.0488C19.7902 27.106 20.2394 27.2774 20.6885 27.6203C21.7553 28.4203 22.5975 29.3918 23.2712 30.4776C23.4958 30.649 23.7204 30.9919 23.8888 31.3348ZM24.1134 28.2489C24.1134 28.0203 24.1696 27.906 24.1696 27.7917C24.2257 25.9631 24.338 24.1344 24.3942 22.3057C24.3942 22.1914 24.3942 22.0771 24.338 22.02C23.945 21.2199 23.552 20.4199 23.1589 19.6199C22.2045 19.9056 21.3061 19.9627 20.3516 19.8484C20.2955 19.8484 20.1271 19.9627 20.0709 20.077C19.734 20.7056 19.341 21.3914 19.0041 22.02C18.8919 22.2486 18.6673 22.42 18.4988 22.6486C19.0603 23.1629 19.6217 23.6201 20.1271 24.0772C21.1938 24.9916 22.3168 25.7916 23.1028 26.8774C23.4958 27.2774 23.7766 27.7346 24.1134 28.2489ZM27.1453 44.4212C26.5277 41.2782 25.854 38.2495 24.6749 35.335C24.6187 35.3922 24.6187 35.4493 24.6187 35.5064C24.6187 37.3923 24.6187 39.3352 24.6187 41.221C24.6187 42.1925 24.6187 43.164 24.6187 44.1355C24.6187 44.2498 24.731 44.4784 24.7872 44.4784C25.5732 44.4212 26.3593 44.4212 27.1453 44.4212ZM23.7204 44.4212C23.7204 41.7925 23.7204 39.1638 23.7204 36.5351H23.6643C22.8782 39.1638 22.1483 41.7925 21.3623 44.4212C22.1483 44.4212 22.8782 44.4212 23.7204 44.4212Z"/>
</mask>
<path d="M10.4699 19.8484C10.0769 19.1627 9.96462 18.4769 9.96462 17.6769C9.90848 14.8767 12.042 12.648 14.737 12.5337C15.1301 12.5337 15.3546 12.4195 15.5231 12.0766C17.2075 9.21928 21.4184 8.76211 23.552 11.1622C23.8327 11.448 24.0011 11.7908 24.2819 12.1909C23.945 12.248 23.6643 12.3623 23.3835 12.3623C23.3274 12.3623 23.2151 12.3052 23.1589 12.248C22.2045 10.5908 19.734 10.0765 17.9374 11.048C17.2636 11.448 16.7022 11.9051 16.3091 12.5909C19.341 13.5624 20.6324 15.7339 20.4639 18.9912C21.25 18.9341 21.9799 18.877 22.7659 18.8198C22.6536 18.6484 22.5975 18.5341 22.5413 18.4198C21.643 17.1626 20.7447 15.8482 19.8463 14.5339C19.7902 14.4196 19.6217 14.3624 19.6217 14.2481C19.6217 14.0767 19.6217 13.8481 19.6779 13.6767C19.7902 13.5624 20.0148 13.5624 20.1832 13.5624C20.2955 13.5624 20.4078 13.6767 20.4639 13.791C21.3623 15.0482 22.2045 16.3054 23.0467 17.5626C23.552 18.3055 23.945 19.1055 24.4503 19.9627C24.4503 19.6199 24.5064 19.3341 24.5064 19.0484C24.5064 15.3339 24.5064 11.6766 24.5064 7.96207C24.5064 7.84777 24.5064 7.73348 24.5064 7.61919C24.5626 7.27631 24.731 7.10488 25.0118 7.10488C25.2925 7.10488 25.4609 7.27631 25.4609 7.61919C25.5171 9.79074 25.5171 12.0194 25.5171 14.191C25.5171 14.3053 25.5171 14.4196 25.5171 14.6482C25.9101 14.3053 26.3031 14.0195 26.64 13.6767C27.6506 12.7623 28.4928 11.7337 28.942 10.4193C29.728 7.90492 28.3244 5.3905 25.7978 4.81904C23.552 4.36187 21.3623 5.96196 21.0254 8.2478C21.0254 8.30494 21.0254 8.41923 20.9693 8.53353C20.6324 8.47638 20.3516 8.47638 20.0148 8.41924C20.0709 7.73348 20.2955 7.10488 20.6324 6.53342C21.8114 4.30472 24.2257 3.33324 26.5839 4.07614C28.8297 4.76189 30.2895 7.04773 30.0649 9.50501C29.8965 11.2194 29.0543 12.5909 27.9314 13.7338C27.2576 14.4196 26.4154 15.0482 25.6855 15.7339C25.5732 15.8482 25.5171 15.9625 25.5171 16.0768C25.4048 19.1055 25.2925 22.1343 25.1802 25.163C25.1802 25.2773 25.1802 25.3916 25.1802 25.563C26.9769 24.9344 28.3244 23.7344 29.6719 22.4772C29.5035 22.3057 29.335 22.1343 29.2227 21.9628C27.6506 20.0199 27.0892 16.8197 28.8858 14.5339C30.2333 12.7623 32.0862 12.0766 34.2197 12.5909C36.3533 13.0481 37.7008 14.4196 38.1499 16.5911C38.3745 17.5626 38.2061 18.5341 37.8692 19.5056C37.8131 19.6198 37.8131 19.677 37.7569 19.7913V19.8484C38.4307 19.7341 39.1044 19.7913 39.7782 19.9627C41.7994 20.5913 43.2031 22.5343 43.0908 24.6487C42.9785 26.8774 41.4626 28.7061 39.329 29.0489C37.3078 29.3918 35.7357 28.5346 34.5004 26.9345C34.332 26.706 34.2197 26.706 33.9951 26.7631C32.1985 27.2203 30.4018 27.6774 28.6051 27.8489C28.3805 27.8489 28.1559 27.9632 27.9875 28.0775C26.9769 28.7061 26.3593 29.6776 25.6855 30.5919C25.5171 30.8205 25.4048 31.0491 25.1802 31.2776C24.5626 31.9634 24.5626 32.7634 24.8995 33.5063C26.4716 36.9922 27.3138 40.7067 27.9875 44.4212C28.0998 44.9927 27.9314 45.1641 27.3699 45.1641C25.1802 45.1641 22.9905 45.1641 20.8008 45.1641C20.1832 45.1641 20.0148 44.9355 20.1832 44.3641C21.1938 40.6496 22.2606 36.9922 23.4958 33.3349C23.6081 32.992 23.6081 32.7063 23.4397 32.3634C22.7098 31.1062 21.8676 29.849 20.857 28.8204C20.2393 28.1918 19.5656 27.7917 18.6673 27.6203C17.1513 27.3917 15.6354 26.9917 14.1194 26.6488C13.8948 26.5917 13.7264 26.6488 13.558 26.8202C12.8281 27.7346 11.9297 28.4775 10.8068 28.8204C8.72941 29.449 6.42742 28.4775 5.41679 26.5917C4.40616 24.5344 4.91148 22.02 6.70815 20.6485C7.71878 19.8484 8.8417 19.5627 10.1331 19.677C10.1892 19.677 10.2454 19.677 10.2454 19.677C10.4138 19.9056 10.4138 19.8484 10.4699 19.8484ZM35.3988 26.4202C36.241 27.906 38.1499 28.5918 39.7782 28.0775C41.2941 27.6203 42.3609 26.0202 42.3048 24.4201C42.1925 22.6486 41.0134 21.1628 39.2729 20.8771C38.4868 20.7056 37.7008 20.8199 36.9709 21.2199C36.0725 21.6771 35.4549 22.4771 35.1742 23.5058C34.8373 23.4486 34.5566 23.3915 34.2759 23.3915C34.2759 23.3343 34.2759 23.2772 34.2759 23.2772C34.2759 23.2201 34.332 23.1058 34.332 23.0486C34.6127 22.0771 35.1742 21.3342 35.9603 20.7628C36.9709 20.0199 37.3078 18.9912 37.3639 17.8483C37.42 16.1339 36.6901 14.8196 35.1181 14.0195C33.4898 13.2195 31.9177 13.3338 30.4579 14.4767C28.0437 16.3625 28.2682 19.7341 30.1211 21.7343C30.3456 21.9628 30.4579 21.9628 30.6264 21.7343C31.8616 20.477 32.9845 19.1055 33.8828 17.5626C34.0513 17.2769 34.3882 17.2197 34.6689 17.3912C34.9496 17.5626 34.9496 17.7912 34.7812 18.0769C33.2652 20.3627 31.5247 22.42 29.5035 24.1344C28.2682 25.2202 26.9207 26.1345 25.3486 26.706C25.2363 26.7631 25.1241 26.9345 25.1241 27.0488C25.0679 28.0775 25.0118 29.1061 24.9556 30.1347C24.9556 30.1919 24.9556 30.3062 25.0118 30.4204C25.1241 30.249 25.1802 30.1347 25.2363 30.0776C25.7978 29.1632 26.4716 28.3632 27.3138 27.7346C27.7068 27.506 28.0998 27.2203 28.549 27.1631C29.5596 26.9345 30.6264 26.8774 31.5809 26.5917C33.546 26.0774 35.4549 25.4487 37.42 24.8773C37.9815 24.7058 38.543 24.4773 39.1044 24.3058C39.4413 24.1915 39.7782 24.363 39.8343 24.6487C39.8905 24.8773 39.722 25.1059 39.3852 25.2202C39.329 25.2202 39.2729 25.2202 39.2167 25.2773C37.9815 25.563 36.6901 25.9631 35.3988 26.4202ZM23.8888 31.3348C23.945 31.3348 23.945 31.3348 24.0011 31.3348C23.945 30.8205 24.1696 30.249 23.8888 29.7347C23.1589 28.3632 22.3168 27.106 21.0815 26.0773C20.2394 25.3916 19.3972 24.6487 18.555 23.9058C16.5899 22.1914 14.9055 20.2485 13.4457 18.0769C13.3334 17.9626 13.2772 17.6769 13.3334 17.5626C13.3895 17.3912 13.6141 17.2769 13.7826 17.2197C14.0633 17.1626 14.2317 17.334 14.344 17.5626C14.9616 18.4769 15.5231 19.3341 16.1968 20.1913C16.7022 20.8199 17.2636 21.3914 17.7689 21.9628C17.8812 21.9057 17.8812 21.9057 17.9374 21.8485C18.6673 21.1628 19.1726 20.3056 19.3972 19.3341C19.8463 17.4483 19.3972 15.7911 17.8812 14.5339C16.4214 13.2766 14.737 13.1624 12.9965 14.0767C10.4138 15.391 10.0769 18.9912 12.3228 20.8199C12.9404 21.3342 13.4457 21.9057 13.7264 22.7057C13.7826 22.9343 13.8387 23.1629 13.8948 23.4486C13.6703 23.4486 13.4457 23.4486 13.2772 23.5058C13.0527 23.5629 12.9404 23.4486 12.8842 23.22C12.7158 22.7629 12.4912 22.3629 12.2105 22.02C11.0314 20.7628 9.23472 20.5913 7.71878 21.5628C6.48357 22.42 5.86596 23.6772 6.0344 25.163C6.20284 26.7631 7.10118 27.7917 8.61712 28.2489C10.3576 28.8204 12.042 27.7917 12.8842 26.6488C12.8842 26.6488 12.8842 26.5917 12.8842 26.5345C12.2105 26.3059 11.5929 26.0774 10.9191 25.9059C10.2454 25.6773 9.51545 25.4487 8.78555 25.2202C8.50482 25.163 8.33639 24.9916 8.39253 24.7058C8.44868 24.4773 8.72941 24.2487 9.01014 24.2487C9.17858 24.2487 9.29087 24.3058 9.45931 24.363C10.0208 24.5916 10.5822 24.763 11.1437 24.9916C13.8387 25.9059 16.5337 26.706 19.2849 27.0488C19.7902 27.106 20.2394 27.2774 20.6885 27.6203C21.7553 28.4203 22.5975 29.3918 23.2712 30.4776C23.4958 30.649 23.7204 30.9919 23.8888 31.3348ZM24.1134 28.2489C24.1134 28.0203 24.1696 27.906 24.1696 27.7917C24.2257 25.9631 24.338 24.1344 24.3942 22.3057C24.3942 22.1914 24.3942 22.0771 24.338 22.02C23.945 21.2199 23.552 20.4199 23.1589 19.6199C22.2045 19.9056 21.3061 19.9627 20.3516 19.8484C20.2955 19.8484 20.1271 19.9627 20.0709 20.077C19.734 20.7056 19.341 21.3914 19.0041 22.02C18.8919 22.2486 18.6673 22.42 18.4988 22.6486C19.0603 23.1629 19.6217 23.6201 20.1271 24.0772C21.1938 24.9916 22.3168 25.7916 23.1028 26.8774C23.4958 27.2774 23.7766 27.7346 24.1134 28.2489ZM27.1453 44.4212C26.5277 41.2782 25.854 38.2495 24.6749 35.335C24.6187 35.3922 24.6187 35.4493 24.6187 35.5064C24.6187 37.3923 24.6187 39.3352 24.6187 41.221C24.6187 42.1925 24.6187 43.164 24.6187 44.1355C24.6187 44.2498 24.731 44.4784 24.7872 44.4784C25.5732 44.4212 26.3593 44.4212 27.1453 44.4212ZM23.7204 44.4212C23.7204 41.7925 23.7204 39.1638 23.7204 36.5351H23.6643C22.8782 39.1638 22.1483 41.7925 21.3623 44.4212C22.1483 44.4212 22.8782 44.4212 23.7204 44.4212Z" fill="#FFEB61"/>
<path d="M10.4699 19.8484C10.0769 19.1627 9.96462 18.4769 9.96462 17.6769C9.90848 14.8767 12.042 12.648 14.737 12.5337C15.1301 12.5337 15.3546 12.4195 15.5231 12.0766C17.2075 9.21928 21.4184 8.76211 23.552 11.1622C23.8327 11.448 24.0011 11.7908 24.2819 12.1909C23.945 12.248 23.6643 12.3623 23.3835 12.3623C23.3274 12.3623 23.2151 12.3052 23.1589 12.248C22.2045 10.5908 19.734 10.0765 17.9374 11.048C17.2636 11.448 16.7022 11.9051 16.3091 12.5909C19.341 13.5624 20.6324 15.7339 20.4639 18.9912C21.25 18.9341 21.9799 18.877 22.7659 18.8198C22.6536 18.6484 22.5975 18.5341 22.5413 18.4198C21.643 17.1626 20.7447 15.8482 19.8463 14.5339C19.7902 14.4196 19.6217 14.3624 19.6217 14.2481C19.6217 14.0767 19.6217 13.8481 19.6779 13.6767C19.7902 13.5624 20.0148 13.5624 20.1832 13.5624C20.2955 13.5624 20.4078 13.6767 20.4639 13.791C21.3623 15.0482 22.2045 16.3054 23.0467 17.5626C23.552 18.3055 23.945 19.1055 24.4503 19.9627C24.4503 19.6199 24.5064 19.3341 24.5064 19.0484C24.5064 15.3339 24.5064 11.6766 24.5064 7.96207C24.5064 7.84777 24.5064 7.73348 24.5064 7.61919C24.5626 7.27631 24.731 7.10488 25.0118 7.10488C25.2925 7.10488 25.4609 7.27631 25.4609 7.61919C25.5171 9.79074 25.5171 12.0194 25.5171 14.191C25.5171 14.3053 25.5171 14.4196 25.5171 14.6482C25.9101 14.3053 26.3031 14.0195 26.64 13.6767C27.6506 12.7623 28.4928 11.7337 28.942 10.4193C29.728 7.90492 28.3244 5.3905 25.7978 4.81904C23.552 4.36187 21.3623 5.96196 21.0254 8.2478C21.0254 8.30494 21.0254 8.41923 20.9693 8.53353C20.6324 8.47638 20.3516 8.47638 20.0148 8.41924C20.0709 7.73348 20.2955 7.10488 20.6324 6.53342C21.8114 4.30472 24.2257 3.33324 26.5839 4.07614C28.8297 4.76189 30.2895 7.04773 30.0649 9.50501C29.8965 11.2194 29.0543 12.5909 27.9314 13.7338C27.2576 14.4196 26.4154 15.0482 25.6855 15.7339C25.5732 15.8482 25.5171 15.9625 25.5171 16.0768C25.4048 19.1055 25.2925 22.1343 25.1802 25.163C25.1802 25.2773 25.1802 25.3916 25.1802 25.563C26.9769 24.9344 28.3244 23.7344 29.6719 22.4772C29.5035 22.3057 29.335 22.1343 29.2227 21.9628C27.6506 20.0199 27.0892 16.8197 28.8858 14.5339C30.2333 12.7623 32.0862 12.0766 34.2197 12.5909C36.3533 13.0481 37.7008 14.4196 38.1499 16.5911C38.3745 17.5626 38.2061 18.5341 37.8692 19.5056C37.8131 19.6198 37.8131 19.677 37.7569 19.7913V19.8484C38.4307 19.7341 39.1044 19.7913 39.7782 19.9627C41.7994 20.5913 43.2031 22.5343 43.0908 24.6487C42.9785 26.8774 41.4626 28.7061 39.329 29.0489C37.3078 29.3918 35.7357 28.5346 34.5004 26.9345C34.332 26.706 34.2197 26.706 33.9951 26.7631C32.1985 27.2203 30.4018 27.6774 28.6051 27.8489C28.3805 27.8489 28.1559 27.9632 27.9875 28.0775C26.9769 28.7061 26.3593 29.6776 25.6855 30.5919C25.5171 30.8205 25.4048 31.0491 25.1802 31.2776C24.5626 31.9634 24.5626 32.7634 24.8995 33.5063C26.4716 36.9922 27.3138 40.7067 27.9875 44.4212C28.0998 44.9927 27.9314 45.1641 27.3699 45.1641C25.1802 45.1641 22.9905 45.1641 20.8008 45.1641C20.1832 45.1641 20.0148 44.9355 20.1832 44.3641C21.1938 40.6496 22.2606 36.9922 23.4958 33.3349C23.6081 32.992 23.6081 32.7063 23.4397 32.3634C22.7098 31.1062 21.8676 29.849 20.857 28.8204C20.2393 28.1918 19.5656 27.7917 18.6673 27.6203C17.1513 27.3917 15.6354 26.9917 14.1194 26.6488C13.8948 26.5917 13.7264 26.6488 13.558 26.8202C12.8281 27.7346 11.9297 28.4775 10.8068 28.8204C8.72941 29.449 6.42742 28.4775 5.41679 26.5917C4.40616 24.5344 4.91148 22.02 6.70815 20.6485C7.71878 19.8484 8.8417 19.5627 10.1331 19.677C10.1892 19.677 10.2454 19.677 10.2454 19.677C10.4138 19.9056 10.4138 19.8484 10.4699 19.8484ZM35.3988 26.4202C36.241 27.906 38.1499 28.5918 39.7782 28.0775C41.2941 27.6203 42.3609 26.0202 42.3048 24.4201C42.1925 22.6486 41.0134 21.1628 39.2729 20.8771C38.4868 20.7056 37.7008 20.8199 36.9709 21.2199C36.0725 21.6771 35.4549 22.4771 35.1742 23.5058C34.8373 23.4486 34.5566 23.3915 34.2759 23.3915C34.2759 23.3343 34.2759 23.2772 34.2759 23.2772C34.2759 23.2201 34.332 23.1058 34.332 23.0486C34.6127 22.0771 35.1742 21.3342 35.9603 20.7628C36.9709 20.0199 37.3078 18.9912 37.3639 17.8483C37.42 16.1339 36.6901 14.8196 35.1181 14.0195C33.4898 13.2195 31.9177 13.3338 30.4579 14.4767C28.0437 16.3625 28.2682 19.7341 30.1211 21.7343C30.3456 21.9628 30.4579 21.9628 30.6264 21.7343C31.8616 20.477 32.9845 19.1055 33.8828 17.5626C34.0513 17.2769 34.3882 17.2197 34.6689 17.3912C34.9496 17.5626 34.9496 17.7912 34.7812 18.0769C33.2652 20.3627 31.5247 22.42 29.5035 24.1344C28.2682 25.2202 26.9207 26.1345 25.3486 26.706C25.2363 26.7631 25.1241 26.9345 25.1241 27.0488C25.0679 28.0775 25.0118 29.1061 24.9556 30.1347C24.9556 30.1919 24.9556 30.3062 25.0118 30.4204C25.1241 30.249 25.1802 30.1347 25.2363 30.0776C25.7978 29.1632 26.4716 28.3632 27.3138 27.7346C27.7068 27.506 28.0998 27.2203 28.549 27.1631C29.5596 26.9345 30.6264 26.8774 31.5809 26.5917C33.546 26.0774 35.4549 25.4487 37.42 24.8773C37.9815 24.7058 38.543 24.4773 39.1044 24.3058C39.4413 24.1915 39.7782 24.363 39.8343 24.6487C39.8905 24.8773 39.722 25.1059 39.3852 25.2202C39.329 25.2202 39.2729 25.2202 39.2167 25.2773C37.9815 25.563 36.6901 25.9631 35.3988 26.4202ZM23.8888 31.3348C23.945 31.3348 23.945 31.3348 24.0011 31.3348C23.945 30.8205 24.1696 30.249 23.8888 29.7347C23.1589 28.3632 22.3168 27.106 21.0815 26.0773C20.2394 25.3916 19.3972 24.6487 18.555 23.9058C16.5899 22.1914 14.9055 20.2485 13.4457 18.0769C13.3334 17.9626 13.2772 17.6769 13.3334 17.5626C13.3895 17.3912 13.6141 17.2769 13.7826 17.2197C14.0633 17.1626 14.2317 17.334 14.344 17.5626C14.9616 18.4769 15.5231 19.3341 16.1968 20.1913C16.7022 20.8199 17.2636 21.3914 17.7689 21.9628C17.8812 21.9057 17.8812 21.9057 17.9374 21.8485C18.6673 21.1628 19.1726 20.3056 19.3972 19.3341C19.8463 17.4483 19.3972 15.7911 17.8812 14.5339C16.4214 13.2766 14.737 13.1624 12.9965 14.0767C10.4138 15.391 10.0769 18.9912 12.3228 20.8199C12.9404 21.3342 13.4457 21.9057 13.7264 22.7057C13.7826 22.9343 13.8387 23.1629 13.8948 23.4486C13.6703 23.4486 13.4457 23.4486 13.2772 23.5058C13.0527 23.5629 12.9404 23.4486 12.8842 23.22C12.7158 22.7629 12.4912 22.3629 12.2105 22.02C11.0314 20.7628 9.23472 20.5913 7.71878 21.5628C6.48357 22.42 5.86596 23.6772 6.0344 25.163C6.20284 26.7631 7.10118 27.7917 8.61712 28.2489C10.3576 28.8204 12.042 27.7917 12.8842 26.6488C12.8842 26.6488 12.8842 26.5917 12.8842 26.5345C12.2105 26.3059 11.5929 26.0774 10.9191 25.9059C10.2454 25.6773 9.51545 25.4487 8.78555 25.2202C8.50482 25.163 8.33639 24.9916 8.39253 24.7058C8.44868 24.4773 8.72941 24.2487 9.01014 24.2487C9.17858 24.2487 9.29087 24.3058 9.45931 24.363C10.0208 24.5916 10.5822 24.763 11.1437 24.9916C13.8387 25.9059 16.5337 26.706 19.2849 27.0488C19.7902 27.106 20.2394 27.2774 20.6885 27.6203C21.7553 28.4203 22.5975 29.3918 23.2712 30.4776C23.4958 30.649 23.7204 30.9919 23.8888 31.3348ZM24.1134 28.2489C24.1134 28.0203 24.1696 27.906 24.1696 27.7917C24.2257 25.9631 24.338 24.1344 24.3942 22.3057C24.3942 22.1914 24.3942 22.0771 24.338 22.02C23.945 21.2199 23.552 20.4199 23.1589 19.6199C22.2045 19.9056 21.3061 19.9627 20.3516 19.8484C20.2955 19.8484 20.1271 19.9627 20.0709 20.077C19.734 20.7056 19.341 21.3914 19.0041 22.02C18.8919 22.2486 18.6673 22.42 18.4988 22.6486C19.0603 23.1629 19.6217 23.6201 20.1271 24.0772C21.1938 24.9916 22.3168 25.7916 23.1028 26.8774C23.4958 27.2774 23.7766 27.7346 24.1134 28.2489ZM27.1453 44.4212C26.5277 41.2782 25.854 38.2495 24.6749 35.335C24.6187 35.3922 24.6187 35.4493 24.6187 35.5064C24.6187 37.3923 24.6187 39.3352 24.6187 41.221C24.6187 42.1925 24.6187 43.164 24.6187 44.1355C24.6187 44.2498 24.731 44.4784 24.7872 44.4784C25.5732 44.4212 26.3593 44.4212 27.1453 44.4212ZM23.7204 44.4212C23.7204 41.7925 23.7204 39.1638 23.7204 36.5351H23.6643C22.8782 39.1638 22.1483 41.7925 21.3623 44.4212C22.1483 44.4212 22.8782 44.4212 23.7204 44.4212Z" stroke="#FFEB61" stroke-miterlimit="10" mask="url(#path-1-outside-1_784_3371)"/>
</svg>
