<svg width="48" height="49" viewBox="0 0 48 49" fill="none" xmlns="http://www.w3.org/2000/svg">
<path d="M25.98 26.7881C25.9238 27.9882 25.98 29.0739 26.4291 30.1026C28.7311 29.0168 31.0331 27.8739 33.3351 26.731C33.3912 26.9024 33.3912 27.0167 33.4474 27.1881C33.7843 26.9595 34.1211 26.6738 34.5142 26.5024C34.851 26.3309 35.3002 26.2738 35.6932 26.1595C34.7387 24.6737 34.5142 23.0736 35.3563 21.4735C35.9178 20.3878 36.8723 19.7591 38.0514 19.4163C40.3534 18.8448 42.7676 20.4449 43.1607 22.9022C43.5537 25.188 42.0377 27.8739 38.7251 27.8739C39.1181 28.9597 39.062 29.9883 38.3882 30.9598C37.8829 31.6455 37.153 32.0455 36.3108 32.1598C34.7949 32.3884 32.7175 31.1312 32.8298 28.6739C32.7175 28.7311 32.6613 28.7311 32.549 28.7882C30.9208 29.5883 29.2364 30.3883 27.6082 31.1883C27.2713 31.3598 27.1029 31.5312 26.9906 31.8741C26.4291 33.3599 26.0361 34.9028 26.2045 36.5029C26.5414 39.8174 28.1135 42.2175 31.2015 43.6462C31.763 43.8748 31.763 43.8748 31.763 44.5034C31.763 44.6748 31.763 44.8462 31.763 45.0748C31.6507 45.0748 31.5384 45.132 31.4261 45.132C26.5414 45.132 21.6567 45.132 16.772 45.1891C16.4913 45.1891 16.4351 45.132 16.379 44.8462C16.3228 44.2176 16.4913 43.9319 17.1089 43.6462C20.5338 42.1032 22.5551 38.103 21.769 34.4457C21.6006 33.5313 21.2637 32.6741 20.9268 31.817C20.8707 31.7027 20.7584 31.5312 20.5899 31.4741C18.8494 30.6169 17.0527 29.7597 15.3122 28.8454C15.2561 28.8454 15.2561 28.8454 15.1438 28.7882C15.2561 30.1026 14.8069 31.1312 13.7401 31.817C13.0102 32.2741 12.168 32.3884 11.3258 32.217C9.8099 31.8741 8.46239 30.1597 9.36073 27.9882C8.01322 28.0453 6.83416 27.6453 5.87968 26.6738C5.31822 26.0452 4.92519 25.3023 4.8129 24.4451C4.58832 22.5593 5.48665 20.7306 7.11489 19.9877C8.85541 19.1305 10.7082 19.4734 12.0557 20.8449C13.4594 22.2736 13.5155 23.988 12.3365 26.3881C13.2348 26.4452 13.9086 26.8453 14.5823 27.4739C14.6385 27.3024 14.6385 27.131 14.6946 26.9595C16.9966 28.1025 19.2424 29.2454 21.4883 30.3312C21.9936 29.2454 21.9936 28.1025 21.9936 26.9595C21.9374 27.0167 21.8252 27.0738 21.769 27.0738C19.86 28.5025 17.3896 28.1025 16.0421 26.1595C14.7508 24.3308 15.1999 21.645 17.0527 20.3878C19.1301 18.9591 21.769 19.5306 22.9481 21.7021C23.1727 22.1593 23.3972 22.7307 23.3972 23.2451C23.4534 24.9594 23.4534 26.731 23.3411 28.4453C23.285 29.3597 22.8919 30.274 22.7235 31.1312C22.6673 31.3026 22.6673 31.4741 22.6112 31.7027C22.8358 31.6455 23.0042 31.5884 23.1165 31.5312C23.678 31.3026 24.1833 31.0741 24.7447 30.8455C24.9132 30.7883 25.0255 30.7312 24.9132 30.5026C24.464 29.3025 24.4079 28.1025 24.4079 26.7881C24.4079 25.6452 24.3517 24.5023 24.4079 23.3593C24.464 20.6735 26.9906 18.902 29.5733 19.702C31.4823 20.3306 32.6052 21.9307 32.549 23.8737C32.4368 25.8166 31.1454 27.3596 29.2364 27.7596C28.1697 27.9882 27.159 27.7596 26.2607 27.131C26.2607 26.9595 26.1484 26.9024 25.98 26.7881ZM28.3942 43.6462C24.857 40.446 24.071 36.6172 25.3624 32.217C24.5763 32.5598 23.7903 32.8456 23.0604 33.1313C24.0149 37.303 23.0042 40.7889 19.86 43.6462C22.6673 43.6462 25.5308 43.6462 28.3942 43.6462ZM41.8693 23.6451C41.8693 22.1021 40.5779 20.8449 39.0058 20.8449C37.4899 20.8449 36.3108 22.045 36.3108 23.5308C36.3108 25.0737 37.6583 26.4452 39.1743 26.4452C40.6341 26.4452 41.8693 25.188 41.8693 23.6451ZM6.32884 23.5879C6.32884 25.1309 7.56406 26.3881 9.08 26.4452C10.5398 26.4452 11.8873 25.0737 11.8873 23.5308C11.8873 22.1021 10.5959 20.7878 9.13614 20.7878C7.6202 20.7878 6.32884 22.1021 6.32884 23.5879ZM19.4109 26.3881C20.8707 26.3881 22.1059 25.1309 22.1059 23.6451C22.1059 22.1021 21.0953 20.9592 19.5793 20.9592C18.1195 20.9592 16.772 22.1593 16.772 23.5879C16.772 25.1309 17.9511 26.3309 19.4109 26.3881ZM31.2577 23.7022C31.2577 22.2164 29.9663 20.9592 28.4504 20.9592C26.9906 20.9592 25.9238 22.045 25.9238 23.5879C25.9238 25.1309 27.1029 26.4452 28.6188 26.4452C30.0225 26.3309 31.2577 25.1309 31.2577 23.7022ZM35.974 27.5881C35.0756 27.5881 34.3457 28.2739 34.3457 29.1882C34.3457 30.0454 35.1318 30.7883 35.974 30.7883C36.8162 30.7883 37.6022 29.9883 37.6022 29.1311C37.6022 28.2739 36.8723 27.5881 35.974 27.5881ZM12.168 30.7883C13.0664 30.7883 13.7963 30.1026 13.7963 29.1882C13.7963 28.3882 13.0664 27.5881 12.2242 27.5881C11.3258 27.5881 10.6521 28.2739 10.6521 29.1882C10.6521 30.1026 11.3258 30.7883 12.168 30.7883Z" fill="#FFEB61"/>
<path d="M30.0788 18.1019C27.4961 19.5877 24.9695 18.9591 23.6782 16.6161C22.5553 14.5017 23.3413 11.873 25.4749 10.7301C27.8891 9.47285 30.9772 10.6158 31.8194 13.4159C33.1669 12.7302 34.5144 12.7302 35.8057 13.4731C36.5918 13.9302 37.0971 14.616 37.3778 15.4732C37.9954 17.3018 37.2094 19.2448 35.4127 20.1592C34.4021 20.6735 33.3353 20.7306 32.3247 20.2734C31.314 19.8163 30.5841 19.0734 30.0788 18.1019ZM27.5523 11.6444C26.2609 11.6444 25.138 12.3873 24.745 13.5874C24.3519 14.7874 24.8011 16.2161 25.8117 16.959C27.4961 18.2162 29.6858 17.1876 29.9665 15.6446C30.0227 15.2446 30.3034 14.9017 30.4157 14.5017C30.4719 14.3303 30.528 14.1588 30.4719 13.9874C30.1911 12.6159 29.0121 11.7015 27.5523 11.6444ZM33.7283 19.1305C35.0758 19.1305 36.1988 17.9876 36.1426 16.6161C36.1426 15.3589 35.0197 14.3303 33.6722 14.3303C32.3808 14.3303 31.3141 15.3589 31.2579 16.6161C31.3141 17.9876 32.437 19.1305 33.7283 19.1305Z" fill="#FFEB61"/>
<path d="M17.9511 16.7875C17.9511 18.9019 16.1544 20.6163 14.077 20.6163C12.0558 20.6163 10.2591 18.7876 10.3152 16.6732C10.3714 14.5588 12.0558 12.9587 14.1893 12.9587C16.3229 12.9587 17.9511 14.616 17.9511 16.7875ZM16.5475 16.6732C16.5475 15.416 15.4807 14.3874 14.2455 14.3874C12.898 14.3874 11.775 15.416 11.775 16.6732C11.775 17.9876 12.898 19.1305 14.1893 19.1305C15.4245 19.1305 16.5475 17.9876 16.5475 16.6732Z" fill="#FFEB61"/>
<path d="M37.9389 21.7022C38.388 21.7022 38.7249 22.1023 38.7249 22.5023C38.7249 22.9023 38.2757 23.3023 37.8266 23.3023C37.3774 23.3023 37.0967 22.9594 37.0967 22.5023C37.0967 22.0451 37.4897 21.6451 37.9389 21.7022Z" fill="#FFEB61"/>
<path d="M9.86612 23.2451C9.41695 23.2451 9.02393 22.9022 9.02393 22.4451C9.02393 21.9879 9.41695 21.645 9.86612 21.645C10.3153 21.645 10.6522 22.045 10.596 22.5022C10.6522 22.9022 10.3153 23.2451 9.86612 23.2451Z" fill="#FFEB61"/>
<path d="M20.1967 23.2451C19.7475 23.2451 19.4106 22.9022 19.4106 22.5022C19.4106 22.045 19.7475 21.7021 20.1967 21.7021C20.6459 21.7021 20.9827 22.045 20.9827 22.445C20.9827 22.9022 20.6459 23.2451 20.1967 23.2451Z" fill="#FFEB61"/>
<path d="M27.4398 21.645C27.889 21.645 28.2259 21.9879 28.2259 22.3879C28.2259 22.8451 27.889 23.2451 27.4398 23.2451C26.9907 23.2451 26.5977 22.9022 26.5977 22.5022C26.6538 22.045 26.9907 21.7022 27.4398 21.645Z" fill="#FFEB61"/>
<path d="M25.5312 13.873C25.5312 13.4159 25.8681 13.073 26.3173 13.073C26.7665 13.073 27.1033 13.4159 27.1033 13.873C27.1033 14.3302 26.7665 14.6731 26.2612 14.6731C25.9243 14.6731 25.5312 14.3302 25.5312 13.873Z" fill="#FFEB61"/>
<path d="M34.5707 15.3589C35.0199 15.3589 35.3568 15.7589 35.3568 16.2161C35.3568 16.6161 34.9637 16.959 34.5707 16.959C34.1777 16.959 33.7847 16.559 33.7847 16.1018C33.7847 15.7018 34.1777 15.3589 34.5707 15.3589Z" fill="#FFEB61"/>
<path d="M13.4032 16.959C12.9541 16.959 12.6172 16.6161 12.6172 16.2161C12.6172 15.8161 13.0664 15.3589 13.4594 15.3589C13.8524 15.3589 14.2454 15.7018 14.2454 16.1589C14.1893 16.6161 13.8524 16.959 13.4032 16.959Z" fill="#FFEB61"/>
<path d="M37.2093 8.0442C37.6023 7.58703 37.6023 4.32971 37.1531 3.98683C36.4794 3.47252 35.0757 3.98683 35.6933 6.32982C36.1425 7.75847 36.7601 8.61566 37.2093 8.0442Z" fill="#FFEB61"/>
<path d="M38.557 10.6729C39.0062 10.9586 41.8696 10.33 42.0381 9.81569C42.3188 9.07279 41.5328 7.81557 39.6799 8.8442C38.5009 9.52995 37.9394 10.2729 38.557 10.6729Z" fill="#FFEB61"/>
<path d="M37.3777 11.3586C37.4339 10.7872 35.8056 8.72991 35.3565 8.78706C34.6266 8.95849 33.9528 10.2729 35.5249 11.3015C36.5355 11.9872 37.3216 12.1015 37.3777 11.3586Z" fill="#FFEB61"/>
<path d="M41.1959 13.3017C40.859 12.9017 38.3325 12.7874 38.1079 13.2445C37.771 13.9303 38.2763 15.4161 40.0168 14.7875C41.0836 14.4446 41.6451 13.8731 41.1959 13.3017Z" fill="#FFEB61"/>
</svg>
