<svg width="48" height="48" viewBox="0 0 48 48" fill="none" xmlns="http://www.w3.org/2000/svg">
<path d="M19.7553 45.5181C20.2112 45.5181 20.5531 45.3471 20.8381 45.0052C21.6359 44.0934 22.1488 43.0106 22.4907 41.8709C23.2315 39.3634 23.0036 36.9699 21.5219 34.7474C21.18 34.2345 20.7241 33.8356 20.3252 33.3227C19.2994 35.3173 17.8747 36.742 15.8231 37.3688C14.3415 37.8247 12.8028 37.8247 11.3781 37.2549C8.87065 36.343 6.76211 33.7216 6.99006 30.4163C7.10403 28.7637 7.73089 27.282 8.92763 26.0853C10.1244 24.8885 11.5491 24.2047 13.3157 24.0907C12.2329 22.9509 11.2071 21.8682 10.1244 20.7284C10.5233 20.3295 10.9222 20.0446 11.3211 19.6457C12.2899 20.6714 13.2587 21.6972 14.2845 22.723C15.1393 21.4123 15.0823 20.1016 14.8543 18.6769C15.2533 18.6769 15.6522 18.6769 16.0511 18.6769C16.1651 18.107 16.1651 17.5371 16.336 17.0242C17.0769 13.8899 19.6983 11.6674 22.8326 11.3824C26.0809 11.1545 28.9873 12.9211 30.241 15.9415C32.2356 20.7284 28.8733 26.0283 23.6874 26.1992C23.1745 26.1992 23.1176 26.3132 23.1746 26.7121C23.6305 28.3648 24.3143 29.8465 25.0551 31.3281C25.511 30.9292 25.853 30.4733 26.3089 30.2454C26.9927 29.9034 27.3347 29.4475 27.5056 28.7067C27.6766 27.8519 28.3604 27.282 28.9873 26.6551C30.0131 25.6864 30.9819 24.7176 32.0076 23.7488C32.1786 23.5778 32.2356 23.4638 32.0646 23.2359C31.4378 22.0391 31.3238 20.7854 31.5517 19.4747C31.6087 19.1898 31.6657 18.9618 31.6657 18.6769C32.1786 18.6769 32.6915 18.6769 33.2614 18.6769C33.2044 19.0188 33.1474 19.3607 33.0904 19.6457C32.9194 20.5575 32.9194 21.4123 33.4323 22.3811C34.4581 21.4123 35.4269 20.5575 36.4527 19.5887C36.8516 19.9876 37.2505 20.3295 37.6494 20.6714C37.5354 20.7854 37.4785 20.8424 37.4215 20.9564C34.8 23.4638 32.1786 25.9143 29.5002 28.4218C29.1583 28.7637 29.0443 28.9916 28.9873 29.5045C29.3292 29.5045 29.6142 29.5615 29.8991 29.5615C30.0701 29.3336 30.1271 29.1626 30.298 29.0486C31.2098 28.1368 32.1216 27.282 33.0334 26.3702C33.1474 26.2562 33.3184 26.1992 33.4893 26.1992C34.4011 26.2562 34.4011 26.2562 34.6291 27.168C34.6861 27.396 34.743 27.6239 34.8 27.8519C34.6861 27.8519 34.5721 27.9089 34.5151 27.9089C33.9452 27.7949 33.5463 28.0798 33.1474 28.4218C32.6915 28.8777 32.1786 29.3336 31.6657 29.7895C31.6087 29.7895 31.6087 29.8465 31.6087 29.9034C33.0904 30.5303 34.5151 31.3281 36.2247 30.9292C36.2247 31.5561 36.2247 32.012 36.2247 32.5819C35.142 32.4679 34.0592 32.7528 33.0334 32.2399C31.8937 31.6131 30.6399 31.3281 29.3862 31.1572C29.2722 31.1572 29.1583 31.1572 29.0443 31.1572C29.0443 31.1572 28.9873 31.1572 28.9303 31.2142C28.9873 31.3851 28.9873 31.5561 29.0443 31.727C29.8991 35.1463 33.6033 36.9129 36.7376 35.4882C38.7892 34.5194 39.9859 32.2399 39.644 29.9604C39.644 29.8465 39.644 29.7895 39.587 29.6755C39.2451 28.9347 39.53 28.4788 40.2139 28.1368C40.3848 28.0798 40.4988 27.9089 40.6698 27.7949C41.1257 28.8207 41.2966 29.8465 41.2966 30.8722C41.2396 33.7786 39.53 36.2291 36.8516 37.1979C33.7173 38.2806 30.127 37.0269 28.4174 34.1775C27.9045 33.3227 27.5626 32.4109 27.1067 31.4421C26.7648 31.5561 26.4798 31.898 26.2519 32.2969C25.91 32.9808 25.91 33.6076 26.1379 34.3485C26.5368 35.6022 26.9927 36.799 27.2207 38.0527C27.6766 40.4462 27.2207 42.7257 26.3089 44.8912C26.2519 45.0052 26.1949 45.1192 26.1379 45.2901M23.4025 24.7176C25.796 24.7176 28.7593 22.894 29.1013 19.4177C29.3862 16.2834 27.1067 13.434 24.0864 13.1491C20.7811 12.8641 18.0457 15.0866 17.7037 18.3349C17.3618 21.0134 19.5273 24.2617 21.8069 24.5466C22.0348 23.6348 22.2058 22.723 22.4337 21.8112C22.4907 21.5263 22.4337 21.3553 22.2627 21.1843C21.6359 20.5575 21.009 19.9306 20.3252 19.2467C20.2112 19.1328 20.0972 19.0188 20.2682 18.8478C20.6101 18.5629 20.895 18.221 21.294 17.879C21.4079 17.993 21.4649 18.164 21.5219 18.221C22.0348 18.7339 22.5477 19.3037 23.1176 19.8166C23.2885 19.9876 23.4025 19.9876 23.5735 19.8166C23.9154 19.4177 24.3143 19.0758 24.7132 18.7339C24.9982 18.4489 25.2831 18.221 25.5111 17.993C25.91 18.3919 26.3089 18.7339 26.7078 19.0758C26.0809 19.6457 25.511 20.2155 24.8842 20.7854C24.3143 21.2413 23.9154 21.8112 23.8584 22.609C23.8014 23.0079 23.6874 23.3499 23.6305 23.6918C23.5735 24.0337 23.4595 24.3756 23.4025 24.7176ZM19.1284 30.6443C19.1284 30.5303 19.1284 30.4733 19.1284 30.4733C18.6725 27.396 15.7092 25.3444 13.1447 25.7433C10.9792 26.0853 9.21258 27.6239 8.69969 29.7895C8.24378 31.898 9.15559 34.2345 10.9792 35.3743C13.6576 37.0839 17.3048 35.9441 18.7295 32.9238C19.0145 32.2969 19.0145 32.2969 18.3876 32.012C16.678 31.2711 14.9113 30.9862 13.0877 30.9862C12.8028 30.9862 12.5179 30.9862 12.1759 30.9862C12.1759 30.4163 12.1759 29.9034 12.1759 29.3906C14.5694 29.2196 16.8489 29.6755 19.1284 30.6443ZM22.6617 45.5181C23.1746 45.5181 23.6305 45.5181 24.0864 45.5181C24.1433 45.5181 24.3143 45.4041 24.3143 45.2901C25.3401 43.3525 25.853 41.244 25.625 39.0785C25.4541 37.1979 24.7702 35.4882 24.0864 33.7786C23.2315 31.6131 22.3767 29.5045 21.5219 27.396C21.4079 27.111 21.294 26.7691 21.294 26.4842C21.294 26.1423 21.18 26.0283 20.895 25.9143C19.1284 25.2305 17.8177 24.0907 16.8489 22.4381C16.7349 22.2101 16.621 21.9822 16.507 21.7542C16.1081 22.609 15.7092 23.4068 15.3103 24.2617C15.3672 24.2617 15.4242 24.3187 15.5382 24.3187C18.0457 24.9455 20.5531 27.453 20.6101 30.4733C20.6101 31.3281 20.952 31.841 21.5219 32.3539C23.4025 34.0635 24.3713 36.1721 24.4853 38.7365C24.5992 41.073 23.9724 43.2386 22.7186 45.2901C22.7756 45.3471 22.7756 45.4041 22.6617 45.5181Z" fill="#FFEB61"/>
<path d="M31.6654 16.4544C31.4375 15.9415 31.2665 15.4856 31.0386 15.0297C32.0074 14.4598 33.0901 14.1179 34.1729 14.0609C38.504 13.8899 41.9802 17.3092 41.6953 21.6402C41.5243 24.0907 40.3846 26.0853 38.162 27.282C37.7061 27.51 37.1932 27.6239 36.7373 27.7379C36.6234 27.7379 36.4524 27.6239 36.3954 27.567C36.2814 27.168 36.1675 26.7691 36.0535 26.3702C37.8201 25.9143 39.0738 24.8315 39.7577 23.1789C40.2706 21.9252 40.2136 20.6714 39.8147 19.4747C39.2448 17.8221 38.105 16.6823 36.4524 16.0554C34.7998 15.4286 33.2041 15.6565 31.6654 16.4544Z" fill="#FFEB61"/>
<path d="M8.8705 24.4896C8.47158 24.8315 8.07268 25.1735 7.67376 25.5154C5.73618 23.5208 5.85015 19.1898 7.90171 16.6823C10.1242 13.9469 13.8284 13.491 16.0509 14.6877C15.823 15.1436 15.5381 15.5425 15.3101 15.9984C12.8026 15.3146 10.6371 15.7705 9.04146 17.936C7.5028 20.0446 7.55978 22.2671 8.8705 24.4896Z" fill="#FFEB61"/>
<path d="M28.8158 6.70946C29.2148 6.25356 29.2148 2.94827 28.7589 2.66333C28.075 2.15044 26.6503 2.66333 27.2772 4.99983C27.6761 6.42452 28.303 7.27934 28.8158 6.70946Z" fill="#FFEB61"/>
<path d="M30.1267 9.33089C30.5826 9.61583 33.489 8.98896 33.66 8.47607C33.9449 7.73523 33.1471 6.4815 31.2665 7.50728C30.0698 8.19114 29.4999 8.93198 30.1267 9.33089Z" fill="#FFEB61"/>
<path d="M28.9877 10.0147C29.0447 9.44487 27.3921 7.39332 26.9362 7.4503C26.1953 7.62127 25.5115 8.93198 27.1071 9.95776C28.0759 10.6416 28.9307 10.7556 28.9877 10.0147Z" fill="#FFEB61"/>
<path d="M32.8052 11.9523C32.4633 11.5534 29.8988 11.4394 29.6709 11.8953C29.329 12.5792 29.8418 14.0609 31.6085 13.434C32.6912 13.0921 33.3181 12.5222 32.8052 11.9523Z" fill="#FFEB61"/>
</svg>
