<svg width="48" height="49" viewBox="0 0 48 49" fill="none" xmlns="http://www.w3.org/2000/svg">
<path d="M14.3666 41.8152C14.4527 41.6429 14.5388 41.4277 14.5388 41.2124C14.668 38.0263 14.7972 34.8832 14.9263 31.6971C14.9263 31.2666 14.8402 30.9652 14.5388 30.6638C13.0319 29.1568 11.568 27.6068 10.0611 26.0568C10.018 26.0138 9.97494 25.9707 9.88883 25.8846C8.42494 27.4777 7.00411 29.1138 5.54022 30.7068C7.13328 31.8263 10.3194 32.2568 12.8597 29.8457C13.0749 30.061 13.2902 30.3193 13.5486 30.5346C12.9888 31.1374 12.3861 31.611 11.6541 31.9124C7.43467 33.936 2.268 31.3096 1.40689 26.7027C0.804109 23.6027 2.18189 20.5457 4.80828 19.0388C8.03744 17.1874 13.3333 18.436 14.6249 23.129C15.0986 24.8943 14.9694 26.6596 14.2374 28.3388C14.1513 28.511 14.1513 28.5971 14.2805 28.7263C14.4958 28.9415 14.668 29.1568 14.8833 29.3721C14.8833 29.3721 14.9263 29.3721 14.9694 29.4152C14.9694 29.329 15.0124 29.2429 15.0124 29.1568C15.1416 26.3582 15.0986 23.5596 14.9694 20.761C14.9694 20.6318 14.8833 20.4596 14.7972 20.3304C13.2472 17.9193 11.7402 15.5513 10.1902 13.1402C10.018 12.8818 9.88883 12.6235 9.71661 12.3221C9.97494 12.1499 10.2333 11.9777 10.5347 11.8054C11.9555 14.0443 13.3763 16.2401 14.7972 18.436C14.8402 18.436 14.8833 18.3929 14.8833 18.3929C14.8402 15.7665 14.7972 13.1402 14.7541 10.5138C15.0986 10.5138 15.443 10.5138 15.7874 10.4707C15.8305 14.3888 15.9166 18.3068 15.9597 22.354C16.0458 22.2679 16.0888 22.2249 16.1319 22.2249C17.5527 19.986 18.9736 17.7902 20.3944 15.5513C20.5666 15.2929 20.6958 15.0346 20.8249 14.7763C20.9111 14.604 20.9972 14.604 21.1694 14.6902C21.3847 14.8193 21.643 14.9485 21.9013 15.0777C21.4708 15.7235 21.0833 16.3693 20.6958 17.0152C19.1888 19.3402 17.6819 21.6651 16.218 23.9901C16.1319 24.1193 16.0888 24.2915 16.0888 24.4638C16.0027 27.5638 15.9597 30.6207 15.8736 33.7207C15.7874 36.0027 15.7013 38.2846 15.6152 40.6096C15.6152 40.954 15.6152 41.3415 15.5722 41.686C15.5722 41.8152 15.4861 41.9443 15.443 42.0304M13.2902 27.8652C13.3333 27.736 13.3763 27.6929 13.4194 27.6068C13.9791 26.2721 14.0222 24.8943 13.5916 23.5596C12.3861 19.4263 7.77911 18.3929 5.02355 20.2443C3.21522 21.4499 2.268 23.2152 2.268 25.454C2.268 27.3054 2.99994 28.8124 4.33466 30.061C4.50689 30.1902 4.593 30.3193 4.80828 30.061C6.09994 28.5971 7.43467 27.1332 8.72633 25.7124C8.76939 25.6693 8.81244 25.5832 8.8555 25.4971C6.96105 25.5401 5.10967 25.6263 3.30133 25.6693C3.30133 25.3249 3.30133 25.0235 3.25828 24.679C4.93744 24.636 6.57355 24.5929 8.29578 24.5068C7.47772 23.6027 6.74578 22.7415 5.97078 21.8804C6.18605 21.7082 6.40133 21.536 6.61661 21.4499C6.70272 21.4068 6.87494 21.4068 6.918 21.4929C7.21939 21.7943 7.52078 22.0957 7.82217 22.3971C9.58744 24.1624 11.3527 25.9707 13.118 27.736C13.118 27.736 13.2041 27.779 13.2902 27.8652Z" fill="#FFEB61"/>
<path d="M23.6669 18.6943C23.4946 19.1249 23.4085 19.4693 23.2794 19.8138C23.2363 19.8568 23.1502 19.8999 23.0641 19.9429C20.7391 20.4166 18.8016 22.6124 18.5863 24.9805C18.4571 26.3152 18.6724 27.6068 19.3613 28.8555C21.471 26.6166 23.5377 24.3777 25.6474 22.1388C25.9057 22.3541 26.121 22.6124 26.4224 22.8707C25.346 24.0332 24.3127 25.1957 23.1933 26.3582C25.0877 26.3582 26.896 26.3582 28.7044 26.3582C28.7044 26.6596 28.7044 26.961 28.6613 27.2193C28.6613 27.3054 28.4891 27.3916 28.3599 27.3916C26.896 27.3916 25.4321 27.4346 23.9682 27.4346C23.4516 27.4346 22.8919 27.4346 22.3752 27.4346C22.246 27.4346 22.1169 27.4777 22.0307 27.5207C21.3419 28.2096 20.696 28.8985 20.0071 29.6304C20.653 30.3624 21.3849 30.8791 22.2891 31.1804C25.4321 32.2568 28.7044 30.4054 29.5655 27.0902C30.3405 24.0763 29.0488 21.1916 26.2502 19.7707C26.1641 19.7277 26.121 19.6846 26.0349 19.6416C26.121 19.3402 26.2071 19.0388 26.3363 18.6943C26.4655 18.7374 26.5946 18.7804 26.6807 18.8235C29.0919 19.986 30.4696 21.9666 30.771 24.593C31.0724 27.0471 30.2974 29.1999 28.446 30.836C26.5516 32.5582 24.3127 32.9888 21.9016 32.1277C19.4905 31.2235 17.9835 29.4582 17.596 26.8749C17.1655 23.861 18.2849 21.4499 20.7821 19.7277C21.6002 19.1679 22.5474 18.9096 23.6669 18.6943Z" fill="#FFEB61"/>
<path d="M23.8818 20.2012C24.3554 18.9526 24.5707 17.704 24.5276 16.4123C24.4415 12.5804 21.3415 9.1359 17.5526 8.53312C12.6874 7.75812 8.3818 11.3317 7.86514 15.9387C7.82208 16.2831 7.82208 16.6276 7.73597 16.929C7.73597 17.0151 7.6068 17.1442 7.52069 17.1442C7.26236 17.1873 7.00403 17.1873 6.70264 17.1873C6.74569 16.6706 6.74569 16.154 6.8318 15.6804C7.26236 12.5804 8.85541 10.1692 11.5679 8.57618C17.036 5.34702 24.1401 8.61924 25.3457 14.8192C25.6901 16.6276 25.561 18.3498 25.0013 20.072C24.9151 20.2873 24.8721 20.3734 24.6138 20.2873C24.3985 20.2012 24.1832 20.2012 23.9249 20.1581C23.9679 20.2442 23.9679 20.2442 23.8818 20.2012Z" fill="#FFEB61"/>
<path d="M33.3973 41.5567C33.3112 41.3845 33.2681 41.1692 33.2681 40.9539C33.182 37.7678 33.0959 34.6247 33.0098 31.4386C33.0098 31.0081 33.0959 30.7067 33.3973 30.4053C34.9043 28.8983 36.4112 27.3914 37.9612 25.8845C38.0043 25.8414 38.0473 25.7983 38.1334 25.7122C39.5543 27.3483 40.9751 28.9845 42.3959 30.5775C40.8029 31.6539 37.5737 32.0414 35.0765 29.6303C34.8612 29.8456 34.6029 30.0608 34.3876 30.3192C34.9043 30.922 35.5501 31.3956 36.239 31.74C40.4154 33.8067 45.6251 31.2664 46.5723 26.7025C47.2181 23.6025 45.8834 20.5456 43.3001 18.9956C40.0709 17.1011 34.8181 18.2636 33.4404 22.9567C32.9237 24.722 33.0098 26.4872 33.7848 28.1664C33.8709 28.3386 33.8709 28.4247 33.7418 28.5539C33.5265 28.7692 33.3543 28.9845 33.139 29.1997C33.139 29.1997 33.0959 29.1997 33.0529 29.2428C33.0529 29.1567 33.0098 29.0706 33.0098 28.9845C32.9237 26.1858 33.0098 23.3872 33.182 20.5886C33.182 20.4595 33.2681 20.2872 33.3543 20.1581C34.9043 17.79 36.4973 15.4219 38.0473 13.0108C38.2195 12.7525 38.3487 12.4942 38.564 12.1928C38.3056 12.0206 38.0473 11.8483 37.7459 11.6761C36.282 13.872 34.8181 16.0678 33.3543 18.2636C33.3112 18.2636 33.2681 18.2206 33.2681 18.2206C33.3543 15.5942 33.3973 12.9678 33.4834 10.3414C33.139 10.3414 32.7945 10.2983 32.4501 10.2983C32.3209 14.2164 32.2348 18.1345 32.1056 22.1386C32.0195 22.0525 31.9765 22.0095 31.9334 22.0095C30.5556 19.7706 29.1348 17.5317 27.757 15.2928C27.5848 15.0345 27.4556 14.7761 27.3265 14.5178C27.2404 14.3456 27.1543 14.3456 26.982 14.4317C26.7237 14.5608 26.5084 14.69 26.207 14.8192C26.5945 15.465 26.982 16.1108 27.4126 16.7567C28.8765 19.0817 30.3404 21.4497 31.8043 23.7747C31.8904 23.9039 31.9334 24.0761 31.9334 24.2483C31.9765 27.3483 31.9765 30.4053 32.0195 33.5053C32.0626 35.7872 32.1487 38.1122 32.1918 40.3942C32.1918 40.7386 32.1918 41.1261 32.1918 41.4706C32.1918 41.5997 32.2348 41.7289 32.3209 41.815M34.689 27.6067C34.6459 27.4775 34.6029 27.3914 34.5598 27.3053C34.0431 25.9706 34.0001 24.5928 34.4306 23.2581C35.7223 19.1247 40.3293 18.1775 43.0848 20.072C44.8931 21.3206 45.7973 23.0858 45.7543 25.2817C45.7543 27.1331 44.9793 28.64 43.6445 29.8886C43.4723 30.0178 43.3862 30.147 43.1709 29.8886C41.8793 28.4247 40.5876 26.9178 39.339 25.4539C39.2959 25.4108 39.2529 25.3247 39.2098 25.2386C41.1043 25.3247 42.9556 25.4108 44.764 25.497C44.764 25.1525 44.807 24.8511 44.807 24.5067C43.1279 24.4206 41.4918 24.3775 39.7695 24.2914C40.5876 23.3872 41.3626 22.5692 42.1376 21.7081C41.9223 21.5358 41.707 21.3636 41.5348 21.2775C41.4487 21.2345 41.2765 21.2345 41.2334 21.3206C40.932 21.622 40.6306 21.9233 40.3293 22.2247C38.5209 23.99 36.7556 25.7553 34.9473 27.4775C34.8181 27.4775 34.7751 27.5206 34.689 27.6067Z" fill="#FFEB61"/>
<path d="M41.5774 15.7234C41.276 12.5804 39.8121 10.1262 37.1857 8.44704C32.5788 5.43315 26.508 7.24148 24.0107 11.8054C24.2691 12.1068 24.4844 12.4082 24.6996 12.7526C25.9052 10.2554 28.4024 8.36092 31.2441 8.05953C36.1524 7.54287 40.2857 11.2887 40.5871 15.8957C40.6302 16.2401 40.6302 16.5845 40.6732 16.8859C40.6732 16.972 40.8024 17.1012 40.8885 17.1012C41.1469 17.1443 41.3621 17.1873 41.7066 17.1873C41.6205 16.7137 41.6205 16.2401 41.5774 15.7234Z" fill="#FFEB61"/>
</svg>
