<svg width="48" height="49" viewBox="0 0 48 49" fill="none" xmlns="http://www.w3.org/2000/svg">
<path d="M15.1431 48.3705C16.1877 48.4358 16.9711 47.9787 17.5587 47.1953C18.4075 46.0854 18.9298 44.7797 19.2562 43.4739C20.2355 39.3608 20.105 35.3782 18.4728 31.3957C17.8199 29.7635 16.9059 28.3272 15.6001 27.152C15.339 26.8908 15.1431 26.8256 14.8167 27.0867C11.7481 28.9148 7.70031 28.523 5.08881 26.1727C2.73845 23.9529 2.21615 20.5579 3.91363 17.9464C4.76237 16.6407 5.93755 15.792 7.50445 15.4655C7.56974 15.4655 7.70031 15.4002 7.7656 15.4002C7.11272 13.0499 7.43916 10.8954 9.00606 9.00204C10.573 7.17399 12.5969 6.39054 14.8819 6.45583C15.0778 5.67237 15.2084 4.95421 15.4695 4.30134C17.2976 -0.00764352 23.0429 -0.791098 26.1114 2.86501C26.242 2.99558 26.3726 3.19145 26.5031 3.32202C26.6337 3.51789 26.7643 3.90961 27.0254 3.9749C27.2213 4.04019 27.5477 3.84432 27.8089 3.77904C30.6163 3.12616 33.4236 4.17076 34.86 6.45583C35.9046 8.1533 36.0351 9.98136 35.5128 11.8747C35.4475 12.0053 35.4475 12.1358 35.3823 12.2664C38.1243 11.8747 40.4747 12.6582 42.4333 14.4862C43.7391 15.7267 44.5878 17.2283 44.9142 18.991C45.6324 22.5166 44.0002 26.1074 41.0623 27.8049C37.9938 29.5676 34.1418 29.1759 31.2691 26.695C30.4857 27.7396 29.7675 28.8495 29.2452 30.0899C27.2213 34.8559 27.0254 39.6872 28.6576 44.5838C28.9188 45.4325 29.4411 46.2813 29.8981 46.9994C30.4857 47.9135 31.3344 48.3705 32.4443 48.3705M21.6719 16.3143C22.1289 15.9878 22.4553 15.792 22.39 15.1391C21.9983 12.3317 20.4967 10.3078 18.081 8.93676C16.4489 8.02273 14.7514 7.76158 12.9233 8.21859C9.98538 9.06733 8.41847 12.0706 9.3325 14.8779C9.39779 15.0738 9.46308 15.2697 9.78952 15.3349C11.2911 15.6614 12.5969 16.3143 13.8373 17.163C16.0571 18.6646 17.8852 20.4927 19.6479 22.5166C21.0843 24.2141 22.5206 25.9768 24.0222 27.7396C24.1528 27.9354 24.3486 28.066 24.5445 28.2619C24.6098 28.1966 24.6098 28.1966 24.6751 28.1966C25.785 26.7603 26.8949 25.3239 28.0048 23.9529C28.07 23.8223 28.1353 23.5612 28.07 23.4306C27.7436 22.0596 27.6783 20.6885 27.9395 19.3175C28.5271 16.4448 30.2245 14.3556 32.7708 12.9846C33.0972 12.854 33.3583 12.5929 33.5542 12.2664C35.1864 9.52434 33.6848 5.47651 30.0287 5.15007C29.2452 5.08479 28.4618 5.15007 27.7436 5.41123C27.7436 5.5418 27.8089 5.67238 27.8089 5.73766C28.3312 7.95744 28.2659 10.1772 27.2866 12.2664C26.1767 14.7474 24.3487 16.5754 22.1942 18.077C21.933 18.2729 21.8677 18.4035 21.8024 18.7299C21.7371 19.5133 21.6066 20.2968 21.476 21.0802C21.3454 21.7331 21.019 22.3207 20.8231 23.0389C20.4314 22.5166 20.105 22.1901 19.7785 21.7331C19.7132 21.6026 19.6479 21.3414 19.7132 21.2108C19.8438 20.6232 20.0397 20.0356 20.105 19.4481C20.3661 17.6853 20.3008 15.9878 19.5174 14.3556C18.9298 13.2457 18.1463 12.3317 16.9059 11.94C16.6447 11.8747 16.1877 11.8094 16.0571 11.6135C15.9266 11.4177 15.9918 11.026 15.9918 10.6995C15.9918 10.4384 16.1224 10.3078 16.3836 10.3078C17.2323 10.2425 18.0158 10.5037 18.7339 10.9607C20.1702 11.8747 20.9537 13.1805 21.476 14.8126C21.476 15.3349 21.5413 15.792 21.6719 16.3143ZM29.3758 22.4513C29.5717 22.3207 29.6369 22.1901 29.7675 22.1249C31.1386 20.9497 32.5096 19.7745 33.9459 18.7299C34.7947 18.077 35.7087 17.4894 36.688 17.0324C38.059 16.3795 39.6912 17.5547 39.6259 19.0563C39.5607 20.0356 39.1036 20.6885 38.1243 21.0802C36.0351 21.9943 34.2071 23.3653 32.6402 24.9975C32.5096 25.1281 32.4443 25.2587 32.379 25.3892C34.9252 27.8049 39.0384 27.9355 41.5846 25.3892C43.6085 23.3653 44.0655 20.1009 42.6945 17.5547C41.2581 14.8779 38.2549 13.3763 35.317 13.9639C32.3137 14.5515 30.1592 16.706 29.4411 19.7745C29.3105 20.5579 29.3105 21.4067 29.3758 22.4513ZM6.52514 25.1281C6.65571 24.9975 6.721 24.8669 6.78628 24.8016C9.00606 22.4513 11.6176 21.472 14.7514 22.386C16.7753 22.9736 18.3422 24.2141 19.6479 25.781C21.4107 28.0007 22.7165 30.4164 23.7611 33.0279C25.0015 36.1617 25.785 39.3608 25.4585 42.821C25.2627 44.7797 24.8709 46.673 23.7611 48.3052V48.3705C25.4585 48.3705 27.156 48.3705 28.8535 48.3705C28.3965 47.6523 27.9395 46.9341 27.613 46.1507C26.5684 43.8656 26.1114 41.45 26.0461 38.969C25.9156 34.0725 27.0907 29.5676 30.0287 25.6504C32.0526 22.9736 34.4029 20.8191 37.5367 19.5134C37.602 19.4481 37.6673 19.4481 37.7326 19.3828C37.9938 19.1869 38.059 18.9258 37.9285 18.6646C37.7979 18.534 37.5367 18.4035 37.3409 18.4687C36.9492 18.5993 36.6227 18.7952 36.2963 18.991C31.9873 21.8637 28.2006 25.3892 25.4585 29.8288C25.0015 30.6122 24.2834 30.6122 23.6958 29.9594C22.2595 28.2619 20.7578 26.4991 19.3215 24.8016C17.6893 22.843 15.9918 20.9497 13.9679 19.3175C12.7275 18.3382 11.487 17.4894 9.92009 17.0977C8.61434 16.706 7.37387 16.8366 6.26399 17.6853C3.91363 19.5133 3.97892 23.2347 6.52514 25.1281ZM18.6686 48.4358C19.3868 48.4358 20.0397 48.3705 20.6273 48.4358C21.6719 48.5663 22.2594 48.044 22.6512 47.1953C22.7165 46.9994 22.847 46.8036 22.9123 46.6077C23.6305 45.0408 23.8263 43.4086 23.8916 41.7764C23.9569 39.1649 23.4346 36.6187 22.4553 34.2031C21.2801 31.1998 19.9091 28.3925 17.6893 26.0421C15.1431 23.3 11.8787 22.9083 9.00606 24.9975C8.61434 25.2587 8.2879 25.5851 7.89618 25.9115C8.61434 26.3033 9.3325 26.4338 10.0507 26.4991C11.6176 26.6297 13.0539 26.1727 14.4249 25.4545C15.2084 24.9975 15.796 25.1281 16.3836 25.6504C17.9505 27.0214 19.1256 28.7189 19.9091 30.6122C21.4107 34.3336 21.7371 38.2509 21.1496 42.2334C20.8884 44.4532 20.1702 46.5424 18.6686 48.4358ZM25.5238 4.56248C24.3486 2.93029 22.847 2.01627 20.8884 2.14685C18.7339 2.27742 17.1017 3.90961 16.71 6.0641C16.6447 6.45583 16.71 6.65169 17.167 6.78226C18.9298 7.36985 20.4967 8.34917 21.7372 9.85078C21.8024 9.91607 21.8677 10.0466 21.8677 10.1119C21.933 10.1119 21.933 10.0466 21.9983 10.0466C22.1289 8.93676 22.5206 7.89216 23.1082 6.91284C23.6958 5.93353 24.4792 5.21536 25.5238 4.56248ZM23.8916 14.3556C25.8503 12.7887 27.156 8.02273 26.1114 6.12939C25.9156 6.25996 25.7197 6.39054 25.5891 6.52111C24.871 7.17399 24.3487 7.95744 24.0222 8.80618C23.3041 10.6342 23.5652 12.4623 23.8916 14.3556Z" fill="#FFEB61"/>
<path d="M12.7277 9.3938C13.9682 9.3938 14.9475 10.3731 14.9475 11.6136C14.9475 12.854 14.0335 13.7681 12.793 13.7681C11.5526 13.7681 10.5732 12.7888 10.5732 11.5483C10.5732 10.3731 11.5526 9.3938 12.7277 9.3938ZM13.3806 11.6136C13.3806 11.2871 13.1195 11.026 12.793 11.026C12.5319 11.026 12.2054 11.2871 12.2054 11.5483C12.2054 11.8747 12.4013 12.0706 12.793 12.1359C13.1195 12.1359 13.3806 11.94 13.3806 11.6136Z" fill="#FFEB61"/>
<path d="M30.6818 6.3252C31.9223 6.3252 32.9016 7.30451 32.8363 8.54497C32.8363 9.78544 31.857 10.6995 30.6818 10.6995C29.4414 10.6995 28.5273 9.78544 28.5273 8.54497C28.5273 7.23922 29.4414 6.3252 30.6818 6.3252ZM30.6165 7.8921C30.2901 7.8921 30.0942 8.15324 30.0942 8.47968C30.0942 8.80612 30.2901 9.06727 30.6165 9.06727C30.943 9.06727 31.2041 8.74083 31.2041 8.47968C31.2041 8.15324 30.943 7.8921 30.6165 7.8921Z" fill="#FFEB61"/>
<path d="M9.98574 20.3621C9.98574 21.6026 9.00643 22.5166 7.83125 22.5166C6.59079 22.5166 5.67676 21.5373 5.67676 20.3621C5.67676 19.0564 6.59079 18.1423 7.83125 18.1423C9.07171 18.2076 9.98574 19.1216 9.98574 20.3621ZM7.83125 19.7745C7.50481 19.7745 7.24366 20.0357 7.17837 20.2968C7.17837 20.6233 7.43952 20.8191 7.70067 20.8191C8.02711 20.8191 8.22297 20.6233 8.28826 20.2968C8.35355 20.0357 8.15769 19.7745 7.83125 19.7745Z" fill="#FFEB61"/>
<path d="M18.6035 5.41119C18.6035 4.17072 19.5828 3.19141 20.8233 3.19141C22.0638 3.19141 22.9778 4.04015 22.9778 5.28061C22.9778 6.52108 21.9332 7.63096 20.758 7.63096C19.5828 7.56568 18.6035 6.58636 18.6035 5.41119ZM20.758 4.8236C20.4316 4.8236 20.1704 5.01946 20.1704 5.3459C20.1704 5.67234 20.4316 5.93349 20.758 5.93349C21.0844 5.93349 21.3456 5.67234 21.3456 5.3459C21.3456 5.01946 21.0844 4.8236 20.758 4.8236Z" fill="#FFEB61"/>
</svg>
