<svg width="48" height="49" viewBox="0 0 48 49" fill="none" xmlns="http://www.w3.org/2000/svg">
<path d="M22.5827 46.4503C22.8926 46.4503 22.9546 46.3883 22.9546 46.0784C22.9546 40.0046 22.9546 33.9308 22.9546 27.919C22.9546 27.7951 22.8926 27.6091 22.7687 27.4852C21.7151 26.5555 20.6615 25.6878 19.6078 24.8201C19.5459 24.7582 19.4219 24.6962 19.2979 24.6962C15.8892 24.4483 12.4184 24.2004 9.00968 24.0144C7.95607 23.9525 6.90246 23.7665 6.03477 23.1467C4.54731 22.0931 3.98951 20.6057 4.05149 18.8083C4.05149 18.1886 4.42335 17.8787 4.98115 17.6927C6.03476 17.3828 7.02642 17.5688 7.95608 18.0026C9.75342 18.7463 10.807 20.0479 11.3029 21.9072C11.3648 22.2171 11.5508 22.341 11.7987 22.341C13.4101 22.465 15.0835 22.589 16.7569 22.7129C16.8188 22.6509 16.8188 22.6509 16.8188 22.589C16.1371 22.0931 15.5173 21.5353 14.8356 21.1015C13.2861 20.1718 11.7367 19.3661 10.3732 18.2505C9.00969 17.1349 8.20398 15.7714 8.08002 13.9741C8.08002 13.6642 8.08002 13.3543 8.08002 13.0444C8.142 12.3007 8.57584 11.9288 9.25759 11.8668C11.1789 11.6189 13.3481 12.8585 14.0918 14.6558C14.6496 15.9574 14.7736 17.2589 14.7116 18.6844C14.7116 18.8703 14.7116 18.9943 14.8975 19.1182C16.7569 19.9239 18.1823 21.4114 19.7938 22.6509C20.7234 23.3947 21.6531 24.2004 22.5827 25.0061C22.6447 25.0681 22.7687 25.13 22.8926 25.192C22.8926 25.0681 22.8926 24.9441 22.8926 24.8821C22.8926 24.2004 22.8926 23.4566 22.8926 22.7749C22.8926 22.465 22.8307 22.341 22.5827 22.1551C21.1573 20.7296 19.6078 19.3041 18.2443 17.7547C16.5709 15.8954 15.2694 13.7881 14.2158 11.557C14.0299 11.1231 13.72 10.7513 13.534 10.3174C12.7903 8.95391 12.6664 7.52843 13.1622 6.04097C13.4101 5.17328 13.9059 4.98735 14.7736 5.17328C16.6329 5.60712 18.1204 6.59876 18.8021 8.45809C19.298 9.75961 18.9881 11.0611 18.4303 12.2387C18.2443 12.6726 17.9344 13.1064 17.6865 13.5402C18.8641 16.0193 20.8474 17.8787 22.8926 19.8C22.8926 19.676 22.8926 19.614 22.8926 19.4901C22.8926 16.7011 22.8926 13.9121 22.8926 11.1231C22.8926 10.8752 22.8307 10.7513 22.5827 10.6273C21.5291 9.94555 20.5375 9.2638 19.7318 8.21018C18.6782 6.90865 18.2443 5.42119 18.6162 3.68582C18.6162 3.56187 18.6782 3.43791 18.7402 3.31396C19.05 2.6322 19.4839 2.32232 20.2276 2.44627C21.5911 2.6322 22.6447 3.31396 23.4504 4.3056C23.5124 4.36757 23.6364 4.49153 23.6984 4.61548C23.7603 4.55351 23.8223 4.49153 23.8843 4.36757C24.752 3.31396 25.8056 2.6322 27.1691 2.38429C28.0368 2.26034 28.5326 2.57023 28.7805 3.37593C29.2143 4.73944 29.0284 6.04097 28.3467 7.28052C27.541 8.76798 26.2394 9.75961 24.8759 10.6273C24.69 10.7513 24.628 10.8752 24.628 11.0611C24.628 13.7262 24.628 16.4532 24.628 19.1182C24.628 19.1802 24.628 19.1802 24.628 19.2422C24.8139 19.0562 24.9999 18.9323 25.1858 18.7463C26.7972 17.1969 28.2227 15.5235 29.4622 13.6642C29.6482 13.4163 29.6482 13.2923 29.4622 13.0444C28.4706 11.557 28.0368 9.94555 28.7185 8.27215C29.4623 6.28888 31.0737 5.29724 33.1189 4.98735C33.6147 4.92537 33.9866 5.23526 34.2345 5.6691C34.7303 6.53679 34.6684 7.40447 34.6064 8.33413C34.5444 9.13984 34.1725 9.82159 33.8007 10.5033C32.3752 12.9824 30.8258 15.3376 28.9664 17.5068C27.6649 18.9943 26.1774 20.3578 24.8139 21.7832C24.752 21.8452 24.628 21.9692 24.628 22.0931C24.628 23.5186 24.628 24.8821 24.628 26.3076C24.628 26.3076 24.628 26.3696 24.69 26.4316C24.814 26.3696 24.9379 26.3076 24.9999 26.2456C27.417 24.3863 29.8961 22.589 32.3132 20.7916C32.871 20.4197 33.057 19.9239 33.057 19.3041C33.057 18.5604 33.057 17.8167 33.057 17.1349C33.1189 15.9574 33.3668 14.7798 34.1106 13.8501C35.1642 12.4866 36.5897 11.8049 38.325 11.9288C39.1307 11.9908 39.5026 12.3627 39.5646 13.1684C39.7505 15.0277 39.1927 16.5771 37.8912 17.9406C37.0855 18.7464 36.1558 19.4281 35.1642 19.9859C34.9783 20.1099 34.8543 20.2958 34.7923 20.4817C34.5444 21.2254 34.1725 21.7832 33.5528 22.2171C33.4288 22.341 33.3049 22.403 33.1809 22.589C33.6147 22.527 34.0486 22.527 34.4204 22.465C34.9163 22.403 35.4121 22.341 35.9699 22.341C36.1558 22.341 36.2798 22.2791 36.3418 22.0312C36.7756 20.0479 37.8912 18.6224 39.8125 17.9406C40.6182 17.6308 41.4859 17.5068 42.3536 17.6927C43.2832 17.8787 43.5311 18.2505 43.5931 19.1802C43.5931 21.3494 42.3536 23.2707 40.4323 23.8285C39.5646 24.0764 38.573 24.0764 37.7053 24.1384C35.3501 24.3243 32.933 24.5722 30.5779 24.7582C30.4539 24.7582 30.268 24.8821 30.144 24.9441C28.3467 26.1836 26.5493 27.4852 24.8139 28.7867C24.69 28.8487 24.628 29.0966 24.628 29.2825C24.628 32.0715 24.628 34.9225 24.628 37.7115C24.628 40.5624 24.628 43.3514 24.628 46.2024C24.628 46.3263 24.628 46.4503 24.628 46.6362M16.6949 11.7429C17.2527 10.8752 17.5006 10.0695 17.1907 9.07786C16.8189 8.02424 16.0131 7.40447 14.9595 7.03261C14.7736 7.83831 14.8356 8.52006 15.2074 9.20182C15.6413 9.94555 16.0751 10.6893 16.509 11.495C16.509 11.557 16.5709 11.6189 16.6949 11.7429ZM32.933 7.03261C32.871 7.03261 32.871 7.03261 32.809 6.97063C31.7554 7.34249 30.9497 8.02424 30.5779 9.07786C30.268 10.0075 30.4539 10.8132 30.9497 11.6809C31.6315 10.6273 32.4372 9.69764 32.7471 8.58204C32.995 8.1482 32.933 7.5904 32.933 7.03261ZM35.1022 17.8167C36.5277 17.073 37.5813 16.0813 37.8912 14.5319C37.9532 14.284 37.8912 14.0361 37.9532 13.7882C37.7053 13.7882 37.3954 13.7882 37.1475 13.9121C35.598 14.4079 34.9782 16.0813 35.1022 17.8167ZM9.93935 13.7882C9.69144 15.0897 11.4268 17.3828 12.9143 17.6927C13.1622 15.5855 11.6747 13.6642 9.93935 13.7882ZM24.8759 8.58204C25.1858 8.33413 25.4957 8.1482 25.7436 7.90029C26.6733 7.09458 27.293 6.10294 27.355 4.86339C27.355 4.36757 27.355 4.36757 26.9212 4.55351C25.4337 5.17328 24.628 6.66074 24.8759 8.58204ZM9.50551 22.0931C9.2576 20.6677 7.27432 19.1182 6.03477 19.4281C5.91082 20.9775 7.70817 22.403 9.50551 22.0931ZM38.511 22.0931C40.3703 22.2791 42.1057 20.9775 41.9197 19.4281C40.5562 19.1802 38.6969 20.6677 38.511 22.0931ZM22.9546 8.45809C23.2025 6.59876 21.839 4.42955 20.4755 4.49153C20.2276 5.79306 21.4672 7.83831 22.9546 8.45809Z" fill="#FFEB61"/>
<path d="M38.6969 26.1837C38.9448 25.9358 39.1928 25.7499 39.4407 25.502C40.3084 24.6343 41.362 24.0145 42.6015 23.9526C44.3369 23.8286 45.6384 24.5723 46.6301 25.9978C46.878 26.3697 46.878 26.7415 46.6301 27.1134C45.4525 29.1587 42.7255 29.9024 40.6802 28.6628C40.3703 28.4769 40.0604 28.291 39.7506 28.0431C39.8125 28.6009 39.9365 29.1587 39.9985 29.7165C39.9985 29.9644 40.0604 30.2123 39.9985 30.4602C39.9985 31.2039 39.6266 31.5758 38.8829 31.7617C37.9532 31.9477 37.0235 31.8237 36.2178 31.4518C34.1106 30.5222 32.933 28.353 33.2429 25.8739C33.3049 25.3161 33.6148 24.9442 34.1726 24.8202C35.784 24.4484 37.1475 24.9442 38.449 25.9358C38.573 26.0598 38.635 26.1218 38.6969 26.1837ZM35.1642 26.6796C34.8543 28.167 36.6517 30.0883 38.1391 29.9024C38.2011 28.0431 36.8996 26.6176 35.1642 26.6796ZM41.0521 26.6796C42.1677 27.6712 44.089 27.6092 44.6468 26.4936C43.5932 25.502 41.9817 25.564 41.0521 26.6796Z" fill="#FFEB61"/>
<path d="M9.13319 26.2456C9.87692 25.5019 10.6826 25.068 11.6743 24.8821C12.356 24.7582 12.9758 24.6962 13.6575 24.8821C14.2153 25.0061 14.5872 25.4399 14.6492 25.9977C14.9591 28.5388 13.3477 31.2038 10.7446 31.7616C10.0629 31.8856 9.3811 31.9475 8.76132 31.6996C8.14155 31.5137 7.83167 31.1418 7.89364 30.5221C7.95562 29.8403 8.01759 29.0966 8.14155 28.4148C8.14155 28.2909 8.20353 28.2289 8.20353 28.043C7.89364 28.2289 7.58376 28.4148 7.33585 28.6008C5.35257 29.8403 2.81148 29.3445 1.50995 27.3612C1.07611 26.7414 1.07611 26.4316 1.50995 25.8118C2.56357 24.3863 4.60883 23.3327 6.84002 24.3863C7.64573 24.7582 8.38945 25.254 8.94725 25.9357C8.94725 25.9977 9.07122 26.1217 9.13319 26.2456ZM9.81495 29.9023C11.3024 29.9643 12.9138 28.2909 12.7899 26.8034C12.7899 26.7414 12.6659 26.6175 12.542 26.6175C10.6826 26.6795 9.69099 28.2909 9.81495 29.9023ZM6.84002 26.6175C5.97233 25.5019 3.98907 25.5019 3.30731 26.6175C4.29895 27.6091 5.7864 27.6091 6.84002 26.6175Z" fill="#FFEB61"/>
<path d="M17.9962 31.8235C17.5624 31.3277 17.5624 27.733 18.0582 27.4231C18.802 26.8653 20.3514 27.4231 19.6696 29.9642C19.1738 31.5136 18.554 32.4433 17.9962 31.8235Z" stroke="#FFEB61" stroke-width="1.5" stroke-miterlimit="10"/>
<path d="M16.5088 34.6745C16.0129 34.9844 12.8521 34.3027 12.6661 33.7449C12.3563 32.9392 13.2239 31.5757 15.2692 32.6912C16.5707 33.435 17.1905 34.2407 16.5088 34.6745Z" stroke="#FFEB61" stroke-width="1.5" stroke-miterlimit="10"/>
<path d="M17.8102 35.4182C17.7482 34.7984 19.5455 32.5672 20.0414 32.6292C20.8471 32.8151 21.5908 34.2406 19.8554 35.3562C18.7398 36.0999 17.8721 36.2239 17.8102 35.4182Z" stroke="#FFEB61" stroke-width="1.5" stroke-miterlimit="10"/>
<path d="M13.5963 37.5874C13.9682 37.1536 16.7571 37.0296 17.005 37.5254C17.3769 38.2692 16.8191 39.8806 14.8978 39.1988C13.7202 38.765 13.1005 38.1452 13.5963 37.5874Z" stroke="#FFEB61" stroke-width="1.5" stroke-miterlimit="10"/>
<path d="M29.5238 32.0716C29.9576 31.5757 29.9576 27.981 29.4618 27.6712C28.7181 27.1134 27.1686 27.6712 27.8504 30.2122C28.3462 31.8236 29.028 32.6913 29.5238 32.0716Z" stroke="#FFEB61" stroke-width="1.5" stroke-miterlimit="10"/>
<path d="M31.0116 34.9226C31.5074 35.2325 34.6683 34.5507 34.8542 33.9929C35.1641 33.1872 34.2964 31.8237 32.2512 32.9393C30.9496 33.745 30.3299 34.5507 31.0116 34.9226Z" stroke="#FFEB61" stroke-width="1.5" stroke-miterlimit="10"/>
<path d="M29.7722 35.7282C29.8341 35.1085 28.0368 32.8773 27.541 32.9393C26.7353 33.1252 25.9915 34.5507 27.7269 35.6663C28.7805 36.41 29.7102 36.472 29.7722 35.7282Z" stroke="#FFEB61" stroke-width="1.5" stroke-miterlimit="10"/>
<path d="M33.9248 37.8355C33.5529 37.4016 30.7639 37.2777 30.516 37.7735C30.1442 38.5172 30.702 40.1286 32.6233 39.4469C33.8008 39.075 34.4826 38.3932 33.9248 37.8355Z" stroke="#FFEB61" stroke-width="1.5" stroke-miterlimit="10"/>
</svg>
