<svg width="48" height="49" viewBox="0 0 48 49" fill="none" xmlns="http://www.w3.org/2000/svg">
<path d="M8.15552 26.3024C9.06744 26.0174 9.97936 25.6184 10.7203 25.0485C11.4612 24.4785 12.0312 24.4785 12.7151 24.9915C12.7151 24.9915 12.7721 24.9915 12.7721 25.0485C12.8291 25.1625 12.9431 25.2765 12.8861 25.3905C12.7721 26.0174 12.6011 26.5873 12.6011 27.2143C12.5441 27.6703 12.3732 28.0122 12.0312 28.2402C11.9742 28.2972 11.9172 28.3542 11.8032 28.4112C10.4353 29.5511 10.3783 31.1469 11.7462 32.3438C12.7721 33.2558 13.5701 33.2558 14.596 32.2869C14.71 32.1729 14.824 32.0589 14.9379 31.8879C15.6789 30.976 15.7359 29.7791 14.9949 28.8672C14.7669 28.5822 14.482 28.3542 14.197 28.0692C14.083 27.9552 13.969 27.7842 13.969 27.6703C14.026 26.9293 14.197 26.1314 14.311 25.2765C15.4509 25.6754 16.4768 26.0744 17.5597 26.4164C18.5856 26.8153 19.2696 27.4993 19.6115 28.5822C19.7255 28.8102 19.7825 29.0951 19.8965 29.3231C20.8654 32.4578 21.0364 35.6496 21.0934 38.8413C21.1504 41.1211 20.4665 43.1729 19.4975 45.1677C19.4405 45.2247 19.4405 45.2817 19.3835 45.3387C19.8395 45.3387 20.2955 45.3387 20.6944 45.3957C20.7514 45.3957 20.8654 45.3957 20.9224 45.3957C21.9483 43.4579 22.4613 41.3491 22.4613 39.0693C22.4613 35.8205 22.2903 32.5718 21.3784 29.4371C21.1504 28.7532 20.9224 28.0692 20.6374 27.4423C20.2385 26.4734 19.5545 25.7324 18.5856 25.3905C17.1607 24.8205 15.6789 24.3645 14.197 23.8516C13.855 23.7376 13.5131 23.6806 13.1711 23.5666C12.9431 23.4526 12.7721 23.3386 12.4871 23.1677C13.2281 22.7687 13.912 22.7687 14.596 22.9397C15.8499 23.3386 17.1607 23.7376 18.4146 24.1936C20.1245 24.7635 21.1504 26.0174 21.7773 27.6703C22.7463 30.292 23.2592 33.0278 23.3732 35.8205C23.4302 37.5304 23.4302 39.2972 23.2592 41.0071C23.0882 42.6029 22.6893 44.0848 22.0623 45.4527C22.5753 45.4527 23.0882 45.4527 23.6012 45.4527C23.7722 45.0537 24.0001 44.6548 24.1711 44.1988C24.3421 44.5978 24.5701 44.9967 24.7411 45.4527C25.254 45.4527 25.767 45.3957 26.2799 45.3957C25.482 43.6859 24.9691 41.919 24.9121 39.9812C24.7981 36.9604 24.8551 33.9397 25.539 31.033C25.938 29.4371 26.3369 27.8982 27.1349 26.4734C27.5908 25.6184 28.2748 24.9345 29.1867 24.5925C30.7256 24.0226 32.2074 23.4526 33.7463 22.9967C34.2023 22.8827 34.6582 22.9397 35.1142 22.9397C35.3422 22.9397 35.5131 23.1107 35.6841 23.2246C35.6841 23.2816 35.6841 23.3386 35.6841 23.3956C35.4561 23.5096 35.2282 23.6236 35.0002 23.6806C33.6323 24.0796 32.3214 24.5355 30.9535 24.8775C28.7877 25.5044 27.5908 26.9863 27.0209 29.0951C26.4509 31.1469 26.052 33.2558 25.938 35.3646C25.824 37.0744 25.767 38.7843 25.881 40.4371C25.995 42.204 26.5079 43.8568 27.3058 45.3957C27.8188 45.3957 28.3318 45.3387 28.8447 45.3387C27.9328 43.8568 27.4198 42.261 27.2488 40.5511C27.0779 38.1573 27.1349 35.7065 27.4768 33.3128C27.7048 31.5459 28.0468 29.7221 28.8447 28.1262C29.0727 27.7273 29.3577 27.2713 29.7566 26.9863C30.9535 26.1314 32.4354 25.7894 33.9173 25.3905C34.0313 25.9604 34.0883 26.4734 34.2022 26.9863C34.3162 27.5563 34.2593 27.9552 33.7463 28.3542C32.3784 29.4941 32.3784 31.09 33.6323 32.2299C34.0883 32.6858 34.6582 33.0278 35.2851 32.9138C36.482 32.6858 37.508 31.2039 37.337 30.0071C37.223 29.0951 36.653 28.5252 35.9691 27.9552C35.7981 27.8412 35.6841 27.6133 35.6271 27.3853C35.5131 26.6443 35.3991 25.8464 35.2851 25.0485C35.5701 24.9345 35.9121 24.8205 36.2541 24.6495C36.539 24.5355 36.71 24.5355 36.938 24.7635C37.337 25.0485 37.7359 25.3335 38.1919 25.6184C40.0727 26.6443 42.0106 27.0433 44.0054 26.1314C45.2023 25.5614 46.2852 24.8775 47.1971 23.9656C47.2541 23.9086 47.3111 23.7946 47.4251 23.6806C47.0831 23.3956 46.7981 23.0537 46.4562 22.8257C44.8033 21.6288 43.0365 20.8309 40.9847 21.3438C40.2437 21.5148 39.5598 21.8568 38.8758 22.1987C38.4769 22.3697 38.0779 22.5977 37.6789 22.8257C37.622 22.7687 37.6219 22.7117 37.5649 22.6547C37.337 21.9138 37.337 21.9138 36.539 22.0278C36.4251 22.0278 36.3111 22.0277 36.1971 21.9708C35.2852 21.5718 34.3732 21.4578 33.4613 21.6858C31.6945 22.1417 29.9276 22.6547 28.2748 23.5096C28.2178 23.5666 28.1038 23.5666 27.9328 23.6236C28.1608 22.8827 28.3888 22.1987 28.5597 21.5718C28.6167 21.4008 28.7877 21.2298 28.9587 21.1158C30.2696 20.2039 30.8395 18.95 31.0105 17.4112C31.1815 16.2143 30.9535 15.1883 29.9846 14.3904C29.7566 14.2194 29.7566 14.0484 29.9846 13.8775C30.2696 13.6495 30.5546 13.4785 30.8395 13.3075C33.9743 11.3127 35.0572 8.00697 34.3732 4.53028C34.3162 4.2453 34.2022 4.13132 33.8603 4.18831C32.2644 4.58728 30.8396 5.32821 29.7566 6.5821C28.3318 8.17796 27.8188 10.1728 27.8758 12.2816C27.8758 12.7376 27.9328 13.1365 27.9898 13.5925C27.3059 13.7065 27.3058 13.7065 27.3058 14.4474C27.3058 14.9604 27.2489 15.4733 27.3058 15.9293C27.3628 17.0692 26.9639 17.8671 26.1089 18.5511C25.368 19.121 24.969 19.9189 24.6841 20.7739C24.5131 21.3438 24.3991 21.9708 24.2281 22.5407C24.1711 22.7117 24.1141 22.8827 24.0571 23.1107C23.7152 22.0847 23.5442 21.0588 23.0882 20.1469C22.6323 19.292 21.9483 18.4941 21.3214 17.6961C21.3214 17.6961 21.4354 17.6391 21.4924 17.5821C22.6323 16.9552 23.6582 16.1573 24.4561 15.1314C26.109 13.0795 26.3939 10.6857 25.938 8.17796C25.881 7.779 25.71 7.66501 25.311 7.722C22.7462 8.34895 20.9794 9.88781 19.8395 12.2246C19.7825 12.3386 19.7255 12.5096 19.6685 12.6236C19.6115 11.8256 19.6685 11.0277 19.6115 10.2868C19.4405 6.86708 16.9897 4.13131 13.57 3.56136C13.2851 3.50437 13.1711 3.56136 13.1141 3.84634C12.8291 5.61318 12.9431 7.32304 13.684 8.97589C14.482 10.7997 15.9639 11.9966 17.7307 12.7946C18.3006 13.0795 18.4716 13.9345 18.0157 14.3904C17.5027 14.9034 17.1037 15.4733 17.0467 16.1573C16.9328 17.1832 17.1038 18.2091 17.5027 19.178C17.8447 19.9189 18.4146 20.4889 18.9846 21.0018C19.7825 21.6288 19.8395 22.5977 20.0105 23.5096C19.8965 23.5096 19.8395 23.4526 19.8395 23.4526C18.1866 22.5407 16.3628 22.0278 14.539 21.5718C13.6271 21.3438 12.7721 21.4578 11.9172 21.7998C11.6892 21.9138 11.4612 21.9138 11.2333 21.9138C10.6633 21.8568 10.4923 21.9708 10.3783 22.5407C10.3783 22.5977 10.3213 22.7117 10.2643 22.8257C8.66849 21.9138 7.12963 20.9448 5.24879 21.1158C3.36796 21.3438 1.94308 22.3697 0.575195 23.6806C1.60111 24.7065 2.68401 25.5044 3.9379 26.0744C5.47676 26.5873 6.84464 26.7583 8.15552 26.3024ZM13.855 29.7221C13.969 29.8931 14.083 30.121 14.14 30.178C14.14 30.634 13.627 31.2609 13.3421 31.3179C12.8861 31.4319 12.6581 31.09 12.3732 30.805C12.0882 30.463 12.1452 30.121 12.4301 29.7221C13.0001 28.9811 13.2281 28.9811 13.855 29.7221ZM36.1401 30.349C36.1401 30.634 35.6841 31.2039 35.3421 31.3179C34.9432 31.4319 34.7152 31.2039 34.4872 30.976C34.2022 30.691 34.0883 30.292 34.3162 29.9501C34.3162 29.8931 34.3732 29.8361 34.4302 29.8361C34.7152 29.6081 34.9432 29.2661 35.2281 29.1521C35.5131 29.0951 36.1401 30.064 36.1401 30.349ZM41.3836 22.5977C42.6375 22.1987 44.3473 22.7117 45.3733 23.5666C44.1764 25.3335 40.1867 25.5614 38.3059 23.8516C39.4458 23.3956 40.4147 22.9397 41.3836 22.5977ZM18.4716 11.2557C15.8499 10.2868 14.425 7.665 14.653 5.10023C16.8188 5.67018 18.6996 7.94998 18.4716 11.2557ZM33.2333 5.78418C33.5753 8.63393 31.8654 11.1987 29.5287 12.2246C28.9017 9.77382 31.1245 5.89817 33.2333 5.78418ZM24.8551 9.31786C25.653 11.1987 23.3162 15.3593 21.0934 16.0433C20.4665 12.9655 22.1763 10.2298 24.8551 9.31786ZM20.0105 19.577C18.8136 18.722 18.5286 17.5251 18.6426 16.2143C18.6426 16.0433 18.6996 15.8153 18.8136 15.7583C18.9846 15.5873 19.2126 15.5303 19.4405 15.4163C19.4975 15.5873 19.6115 15.8153 19.6115 15.9863C19.4975 17.2402 19.8395 18.2091 20.8654 19.007C21.8343 19.7479 22.2333 20.8879 22.5183 22.0278C22.6323 22.5977 22.7463 23.2246 22.8602 23.7946C22.8602 23.9086 23.0882 24.0796 23.2022 24.0796C23.8862 24.0796 24.5701 24.0796 25.254 24.0796C25.482 24.0796 25.539 23.9656 25.596 23.7376C25.824 22.7687 25.995 21.7998 26.2799 20.8879C26.5079 20.0899 26.9639 19.463 27.6478 18.95C28.7877 18.0951 29.0727 17.0122 28.8447 15.6443C28.8447 15.5873 28.8447 15.5303 28.8447 15.4163C29.4147 15.3023 29.7566 15.5303 29.8706 16.0433C30.0416 17.2972 29.8136 18.4941 28.7307 19.292C27.5338 20.2039 27.0779 21.4008 26.9069 22.8257C26.8499 23.2816 26.8499 23.7376 26.7929 24.2506C26.7929 24.3645 26.7359 24.5355 26.6789 24.6495C25.539 26.3594 24.9121 28.2402 24.4561 30.178C24.4561 30.292 24.3991 30.406 24.2851 30.52C24.2281 30.292 24.1711 30.007 24.1141 29.7791C23.6582 28.0122 23.0882 26.3024 22.1193 24.7065C22.0053 24.4785 21.9483 24.1936 21.8913 23.9086C21.8343 22.8827 21.7203 21.9138 21.3214 21.0018C20.9224 20.4889 20.5235 19.9759 20.0105 19.577ZM6.90164 22.5407C7.98455 22.8257 8.95346 23.3956 9.97937 23.9656C7.69957 25.5614 4.56485 25.3905 2.96899 23.5666C4.16589 22.7117 5.41977 22.1987 6.90164 22.5407Z" fill="#FFEB61"/>
<path d="M32.4349 19.0639C32.4349 17.2971 32.7769 15.5872 33.8598 14.1054C35.0567 12.4525 36.7096 11.4266 38.7044 11.0846C38.8754 11.0276 38.9894 11.0846 39.1603 11.0276C39.5023 10.9707 39.6733 11.1416 39.6733 11.4836C39.8443 14.2194 39.2173 16.6702 37.1085 18.608C35.9686 19.6339 34.6007 20.2608 33.0049 20.4888C32.4349 20.5458 32.4349 20.4888 32.3779 19.9759C32.4349 19.6909 32.4349 19.4059 32.4349 19.0639ZM38.2484 12.6805C35.7976 13.0795 33.5178 16.3282 33.9738 18.836C36.2536 18.494 38.6474 15.0743 38.2484 12.6805Z" fill="#FFEB61"/>
<path d="M15.8496 19.064C15.8496 19.406 15.8496 19.691 15.8496 19.9759C15.8496 20.3749 15.6786 20.4319 15.3366 20.4319C13.9687 20.3179 12.7718 19.805 11.6889 19.064C9.6371 17.5821 8.66819 15.5303 8.5542 13.0226C8.5542 12.5096 8.5542 11.9966 8.5542 11.5407C8.5542 11.1987 8.66819 11.0847 9.06715 11.0847C10.492 11.1417 11.7459 11.6547 12.8858 12.5096C14.8237 13.9345 15.6216 15.8723 15.7926 18.2091C15.8496 18.4371 15.7926 18.779 15.8496 19.064ZM9.97907 12.6806C9.6371 15.0174 12.2589 18.6081 14.3677 18.7221C14.4817 15.8723 12.7718 13.1935 9.97907 12.6806Z" fill="#FFEB61"/>
</svg>
