<svg width="48" height="49" viewBox="0 0 48 49" fill="none" xmlns="http://www.w3.org/2000/svg">
<path d="M24.9462 21.8159C25.1508 21.5035 25.3554 21.1911 25.5088 20.9308C27.7084 17.2864 30.8798 15.0477 35.0231 14.2667C36.3531 14.0064 37.683 13.9544 39.013 14.3188C39.7803 14.5271 40.3941 14.1626 40.7521 13.4858C41.0591 12.9131 41.4171 12.2883 41.7752 11.6636C42.2867 11.976 42.7982 12.2883 43.3097 12.6528C42.7982 13.4337 42.389 14.2667 41.8263 14.9436C41.0079 15.9328 39.8314 16.3493 38.5526 16.0369C37.2227 15.7245 35.8927 15.8286 34.5627 16.141C30.266 17.2864 27.4015 20.0457 25.8157 24.2108C24.9973 26.3454 24.7415 28.532 24.895 30.8749C24.9973 30.7187 25.0485 30.6145 25.1508 30.4584C25.8669 29.1568 26.7365 27.9073 27.8618 27.0222C28.3222 26.6057 28.578 26.2412 28.6291 25.6165C28.8337 24.0546 29.601 22.9092 30.9821 22.1803C31.9028 21.6597 32.2097 20.7746 32.2609 19.7854C32.312 19.2648 32.2098 18.6921 32.1586 18.1715C32.1586 17.9632 32.1586 17.8591 32.3632 17.807C32.7724 17.7029 33.1305 17.5467 33.5397 17.4426C33.5909 17.4426 33.7443 17.4946 33.7955 17.5467C34.3581 19.421 34.2047 21.6076 32.619 23.1695C32.3121 23.4819 31.9028 23.6381 31.5448 23.8463C31.0333 24.1587 30.6752 24.6273 30.5729 25.3041C30.624 25.3041 30.6752 25.3041 30.7263 25.3041C32.1074 24.7314 33.5397 24.6793 34.972 24.9397C35.0743 24.9397 35.2277 24.9397 35.2789 24.8876C35.5346 24.4711 35.9438 24.1587 36.4042 24.0025C37.9388 23.534 38.6549 22.2845 39.2687 20.8787C39.5245 20.3581 39.6268 19.7854 39.8314 19.1607C40.3429 19.2648 40.8544 19.3689 41.4683 19.473C40.9567 22.1803 39.678 24.3149 37.2227 25.6686C37.325 25.7206 37.3761 25.7727 37.4273 25.8247C38.1434 26.2933 38.7061 26.9181 39.1153 27.699C39.6268 28.6361 40.3941 29.0006 41.366 29.0527C41.724 29.1047 42.0821 29.0527 42.4913 29.0527C42.4913 29.6774 42.4913 30.3022 42.4913 30.9269C41.7752 30.9269 41.1102 30.8228 40.3941 30.6666C39.1664 30.3022 38.2457 29.6253 37.5807 28.48C36.9669 27.3866 35.995 26.9181 34.8185 26.6577C32.6701 26.1892 30.7775 26.8139 29.0895 28.2196C27.2992 29.7295 26.225 31.7599 25.56 33.9986C25.0996 35.6126 24.8439 37.2786 24.8439 38.9446C24.8439 40.9751 24.8439 43.0576 24.8439 45.0881C24.8439 45.1922 24.8439 45.3484 24.8439 45.4525C24.23 45.4525 23.6674 45.4525 23.1047 45.4525C23.1047 45.2963 23.1047 45.1922 23.1047 45.036C23.1047 43.0056 23.1047 40.9751 23.1047 38.9967C23.1047 36.4977 22.6443 34.0507 21.5701 31.7599C20.7005 29.9898 19.524 28.4279 17.836 27.4387C15.7388 26.1892 13.6416 26.0851 11.4932 27.3866C11.1351 27.5949 10.777 27.9593 10.5724 28.3238C9.80515 29.6774 8.62865 30.4584 7.1964 30.7707C6.68488 30.8749 6.12221 30.9269 5.55953 30.979C5.55953 30.3022 5.55953 29.6774 5.55953 29.0527C6.0199 29.0006 6.53142 29.0526 6.94064 29.0006C7.81022 28.8965 8.52635 28.48 8.93556 27.6469C9.39593 26.8139 10.0098 26.1371 10.8793 25.6686C8.37289 24.3149 7.14525 22.1803 6.58257 19.473C7.14525 19.3689 7.70791 19.2648 8.27059 19.1086C8.32174 19.2648 8.32174 19.3689 8.3729 19.473C8.67981 20.8267 9.24248 22.0241 10.2144 23.0133C10.4701 23.2736 10.777 23.4819 11.1351 23.6381C11.8001 23.8984 12.4139 24.2108 12.8231 24.7835C12.8743 24.8355 12.9766 24.8876 13.0277 24.8876C14.5111 24.5752 15.9945 24.7314 17.478 25.3562C17.3757 24.9397 17.2222 24.5752 16.9664 24.2628C16.813 24.0546 16.5572 23.8984 16.3526 23.7943C14.9715 23.1175 14.2554 21.92 13.9996 20.4622C13.795 19.421 13.9485 18.3797 14.3065 17.3385C14.8692 17.4946 15.3807 17.7029 15.8922 17.8591C15.8411 18.3277 15.7388 18.6921 15.6876 19.1086C15.5853 19.8375 15.7388 20.5143 16.0457 21.1391C16.2503 21.5035 16.4549 21.8159 16.813 21.9721C18.501 22.8571 19.3194 24.2628 19.4217 26.1371C19.4217 26.2412 19.4729 26.4495 19.5752 26.5016C20.9563 27.5428 21.9282 28.8965 22.7978 30.4063C22.8489 30.5104 22.9001 30.6145 23.0024 30.7187C23.0535 30.7187 23.0535 30.7187 23.1047 30.7187C23.1047 30.3022 23.1047 29.8336 23.1047 29.4171C23.0535 26.866 22.542 24.419 21.2632 22.1803C19.0637 18.2756 15.6876 16.141 11.2374 15.8286C10.5213 15.7766 9.80515 15.9848 9.08902 16.0369C7.65676 16.141 6.53142 15.6204 5.76414 14.3709C5.45723 13.7982 5.04801 13.2255 4.68994 12.6528C5.20146 12.3404 5.66184 12.028 6.17336 11.7156C6.53142 12.3404 6.88948 12.9131 7.24754 13.5379C7.60561 14.1626 8.21943 14.5271 8.93556 14.3709C11.2886 13.7982 13.5393 14.2147 15.7388 15.0997C18.7056 16.2972 20.9051 18.3797 22.5932 21.1391C22.6955 21.2953 22.7978 21.5035 22.9001 21.6597C22.9001 21.6597 22.9512 21.7118 23.0024 21.7638C23.0024 21.6597 23.0535 21.5556 23.0535 21.4514C23.0535 19.9937 23.0535 18.5359 23.0535 17.0781C23.0535 16.2972 22.7466 15.7245 22.1328 15.308C21.0586 14.5791 20.2402 13.5899 19.9333 12.2883C19.831 11.9239 19.831 11.5595 19.831 11.195C19.7798 10.2579 19.2171 9.42488 18.3987 9.16456C16.6084 8.59187 15.6365 7.23822 15.2273 5.41601C15.125 4.89538 15.125 4.37475 15.0227 3.85412C14.9715 3.64587 15.0738 3.54175 15.2784 3.54175C15.6876 3.54175 16.0969 3.54175 16.5061 3.54175C16.7107 3.54175 16.813 3.64587 16.813 3.85412C16.8641 4.63507 16.9153 5.46808 17.2734 6.19696C17.5803 6.76965 17.9895 7.18616 18.6545 7.34235C20.2402 7.81092 21.519 9.58106 21.5701 11.3512C21.5701 12.3925 22.0305 13.1734 22.8489 13.7461C22.9001 13.7982 22.9512 13.7982 23.0535 13.8502C23.0535 12.0801 23.0535 10.4141 23.0535 8.69599C23.0535 6.97791 23.0535 5.25983 23.0535 3.54175C23.6162 3.54175 24.23 3.54175 24.7927 3.54175C24.7927 6.97791 24.7927 10.4141 24.7927 13.8502C25.6623 13.4858 26.3273 12.4445 26.3273 11.5074C26.3273 9.94551 26.9922 8.74805 28.2199 7.81092C28.4756 7.60267 28.8337 7.44648 29.1918 7.34235C30.0102 7.1341 30.5217 6.5614 30.7775 5.7284C30.9821 5.10364 31.0333 4.42682 31.1356 3.75C31.1356 3.69793 31.1356 3.59381 31.1356 3.54175C31.7494 3.54175 32.3121 3.54175 32.9259 3.54175C32.9259 4.47888 32.8236 5.31189 32.5167 6.19696C31.954 7.60266 31.0844 8.64393 29.601 9.11249C28.7826 9.37281 28.1687 10.2058 28.1687 11.0909C28.1687 12.9131 27.3503 14.2667 25.8669 15.2559C25.2019 15.6724 24.8439 16.2972 24.8439 17.1302C24.8439 18.588 24.8439 20.0457 24.8439 21.5556C24.895 21.6076 24.895 21.6597 24.9462 21.8159Z" fill="#FFEB61"/>
</svg>
