<svg width="47" height="39" viewBox="0 0 47 39" fill="none" xmlns="http://www.w3.org/2000/svg">
<path d="M25.3346 38.4633C23.8991 38.4633 22.5113 38.4633 21.1236 38.4633C21.0279 38.4633 20.8843 38.3172 20.8843 38.2198C20.5972 36.2229 20.5972 34.2259 20.7886 32.229C20.9322 30.7192 21.1714 29.1606 21.4586 27.6507C21.5543 27.115 21.7457 26.5792 21.9849 26.0435C22.1285 25.7025 22.0806 25.459 21.8414 25.2155C20.645 23.803 19.1616 22.9263 17.3911 22.488C15.6683 22.0496 13.8499 22.0009 12.0794 22.1958C10.3567 22.3906 8.63396 22.6828 6.91125 22.975C6.52843 23.0238 6.09775 23.0725 5.71493 23.0725C5.47566 23.0725 5.28425 22.9263 5.04499 22.8289C4.90143 22.7802 4.71002 22.6828 4.56646 22.6341C3.03516 22.3906 1.79098 21.7087 0.881777 20.345C0.546806 19.8579 0.546805 19.3709 0.929629 18.8351C1.69528 17.7636 2.79589 17.1791 4.04007 16.9356C4.13578 16.9356 4.23149 16.8869 4.37504 16.8869C4.37504 16.546 4.37504 16.205 4.37504 15.8641C4.4229 15.1335 4.71002 14.5003 5.04499 13.9159C5.37996 13.4288 5.81063 13.3314 6.33702 13.4288C8.25113 13.8185 9.78243 15.4257 10.1174 17.4227C10.2131 17.861 10.3567 18.1532 10.7873 18.348C11.9837 19.0299 13.1321 19.7118 14.3285 20.4424C14.7113 20.6859 15.142 20.7833 15.5726 20.832C17.8696 20.9781 19.9273 21.7574 21.7457 23.2673C21.7935 23.316 21.8892 23.3647 21.9371 23.4134C21.9371 23.4134 21.9849 23.4134 22.0806 23.4621C22.0806 22.8776 22.3199 22.2932 22.0328 21.66C20.1665 18.0071 18.3481 14.4029 16.5297 10.75C16.3383 10.3117 16.099 9.87334 15.8598 9.38629C15.8119 9.87334 15.7641 10.263 15.7162 10.6526C15.7162 10.75 15.764 10.8474 15.8598 10.8961C16.4818 11.2371 16.6733 11.8703 16.7211 12.5034C16.769 13.0879 16.6733 13.7211 16.6733 14.3542C16.6733 14.7439 16.434 14.9387 16.099 14.9874C14.8548 15.2309 13.7542 14.9874 12.845 14.0133C12.7493 13.9159 12.51 13.8185 12.3665 13.8672C10.7873 14.0133 9.3996 13.5749 8.29899 12.406C7.24622 11.2858 7.34193 10.263 8.5861 9.38629C8.92107 9.14277 9.3039 8.94794 9.63887 8.85053C9.87813 8.75312 9.92599 8.65571 9.92599 8.36348C9.92599 7.68161 9.87813 6.99974 10.0217 6.31786C10.3567 4.71059 10.883 4.22354 12.7972 4.71059C13.7542 4.95411 14.5199 5.58729 15.0941 6.46398C15.142 6.51268 15.1898 6.61009 15.2377 6.6588C15.3334 6.02563 15.3812 5.44117 15.5726 4.85671C15.7162 4.32095 16.0033 3.83389 16.2904 3.34684C16.7211 2.76238 17.1996 2.66497 17.9174 3.00591C18.6831 3.34684 19.353 3.8826 19.9273 4.61318C19.9751 4.02872 19.9751 3.49296 20.023 3.00591C20.2144 2.0318 20.5972 1.20382 21.315 0.473237C21.8414 -0.0138151 22.1285 -0.0625248 22.7506 0.278412C23.9948 0.960285 24.6647 2.08051 24.8561 3.49296C24.9518 4.12613 24.8561 4.808 24.8083 5.44117C24.8083 5.58728 24.7604 5.7334 24.8083 5.87951C25.2389 7.38937 24.7126 8.60701 23.8512 9.72723C23.7555 9.82464 23.7076 10.0195 23.7076 10.1656C23.6598 13.1366 23.6119 16.0589 23.5641 19.0299C23.5641 19.0786 23.5641 19.1273 23.5641 19.2734C23.6598 19.1273 23.7076 19.0786 23.7555 18.9812C24.8083 16.8382 25.861 14.6952 26.9616 12.5034C27.0574 12.3086 27.1052 12.1625 26.9616 11.9677C25.5739 10.3604 25.1432 8.46089 25.5261 6.31786C25.7653 5.00282 26.3874 3.9313 27.488 3.20072C28.5408 2.51885 29.2107 2.66497 29.8807 3.73648C30.3113 4.41836 30.5506 5.14894 30.5985 5.97693C30.5985 6.12304 30.5985 6.31786 30.6463 6.56139C30.8377 6.31786 30.9813 6.17174 31.1249 6.02563C31.9384 5.10023 32.9433 4.56447 34.1874 4.56447C34.8574 4.56447 35.3359 4.8567 35.623 5.53858C36.0537 6.56139 36.0059 7.6329 35.9101 8.75312C36.0059 8.80183 36.1494 8.80183 36.293 8.85053C37.0108 9.09406 37.6329 9.5324 38.0635 10.1656C38.3506 10.6039 38.3985 11.0423 38.2071 11.4806C37.4893 13.1366 35.4316 14.1594 33.6611 13.8185C33.4696 13.7698 33.3261 13.8185 33.1825 13.9646C32.2733 15.0361 31.077 15.2796 29.785 14.89C29.5936 14.8413 29.4021 14.5977 29.3543 14.4516C29.0672 13.5262 29.1629 12.5521 29.45 11.6267C29.5457 11.3345 29.8328 11.1397 30.0242 10.9449C30.0721 10.8474 30.2156 10.75 30.2156 10.6526C30.2156 10.263 30.1678 9.92205 30.1199 9.4837C29.9764 9.77593 29.9285 9.97075 29.8328 10.1656C29.2107 11.4319 28.5408 12.6495 27.9187 13.9159C26.6267 16.5947 25.3346 19.2734 24.0426 21.9035C23.7555 22.4393 23.5162 22.975 23.5162 23.5595C23.5162 23.7056 23.5162 23.8517 23.4684 24.0953C23.6598 23.9491 23.7076 23.8517 23.8033 23.803C25.6218 22.0496 27.7751 21.0755 30.3114 20.8807C30.6942 20.832 31.077 20.7346 31.412 20.5398C32.8954 19.7605 34.331 18.9325 35.8144 18.1532C35.9101 18.1045 35.958 17.9584 35.958 17.8123C36.1016 15.7667 37.6329 13.9159 39.4991 13.4775C40.4083 13.2827 40.7911 13.4288 41.2697 14.3055C41.6525 14.9874 41.7961 15.7667 41.7004 16.546C41.7004 16.8382 41.7482 16.9356 42.0832 16.9843C43.2795 17.2278 44.2844 17.7636 45.0501 18.7377C45.5286 19.3709 45.5286 19.8092 45.0501 20.4424C44.093 21.7087 42.8967 22.488 41.3175 22.6341C41.2218 22.6341 41.0783 22.6828 41.0304 22.7315C40.6476 23.0237 40.2648 23.0725 39.8341 23.0238C38.4464 22.8289 37.0108 22.6341 35.623 22.4393C33.4218 22.1471 31.2684 21.9035 29.0672 22.3906C26.1481 23.0725 24.1383 24.7771 22.9898 27.5533C22.942 27.6507 22.942 27.8456 22.942 27.943C23.1334 31.4497 23.8512 34.8591 25.4303 38.025C25.2389 38.1711 25.2868 38.3172 25.3346 38.4633ZM20.5972 7.58419C20.5972 7.73031 20.5493 7.87643 20.5493 8.02254C20.4058 9.4837 19.9751 10.8474 19.0659 12.0164C18.8745 12.2599 18.8745 12.406 18.9702 12.6495C19.9751 14.5977 20.9322 16.546 21.9371 18.4942C21.9849 18.5916 22.0328 18.689 22.1285 18.8351C22.1763 18.7377 22.1763 18.7377 22.1763 18.689C22.2721 15.8641 22.3678 13.0392 22.4156 10.2143C22.4156 10.1169 22.3678 10.0195 22.3199 9.97075C21.4585 9.38629 20.98 8.5583 20.5972 7.58419ZM11.5051 9.77593C11.218 9.82463 11.0266 9.82464 10.7873 9.87334C10.2131 10.0195 9.63887 10.2143 9.20819 10.6526C8.96893 10.8961 8.92108 11.1397 9.16034 11.3832C9.97384 12.3086 10.9788 12.6495 12.1751 12.5521C12.2708 12.5521 12.4143 12.406 12.4622 12.3086C12.7015 11.4806 13.2757 10.9449 14.0892 10.75C14.3285 10.7013 14.4242 10.5552 14.472 10.3117C14.6634 9.14276 14.4242 8.02254 13.8021 7.04844C13.3714 6.31786 12.7015 5.92822 11.8401 5.92822C11.6008 5.92822 11.4573 5.97692 11.4094 6.26915C11.3616 6.99973 11.3137 7.77902 11.3137 8.5096C11.3137 8.94794 11.4573 9.33758 11.5051 9.77593ZM34.2831 9.77593C34.331 9.58111 34.3789 9.43499 34.3789 9.28888C34.6181 8.31477 34.666 7.34067 34.4267 6.36656C34.3788 6.02563 34.1874 5.92822 33.9003 5.97693C33.5175 6.07434 33.1347 6.17174 32.7997 6.36656C31.3163 7.24326 31.077 9.43499 31.3163 10.5065C31.3641 10.6039 31.5077 10.75 31.6512 10.7987C32.4169 11.0423 32.9911 11.4319 33.3261 12.2112C33.5653 12.7469 33.5654 12.7469 34.1396 12.6982C34.2353 12.6982 34.331 12.6982 34.4267 12.6495C35.2402 12.5034 35.958 12.2112 36.5322 11.5293C36.8672 11.1397 36.8672 10.9449 36.4365 10.6526C36.1494 10.4578 35.8144 10.263 35.4795 10.1169C35.1445 9.92205 34.7138 9.87334 34.2831 9.77593ZM27.7273 10.9449C28.3972 9.82464 28.9236 8.75312 29.115 7.53549C29.3064 6.6588 29.3064 5.7821 28.9715 4.90541C28.5886 4.02871 28.3972 3.98001 27.7751 4.66188C26.7224 5.7821 26.4831 7.14585 26.7224 8.60701C26.8659 9.4837 27.1531 10.2143 27.7273 10.9449ZM17.3432 4.17483C16.9125 4.71059 16.7211 5.29505 16.7211 5.92822C16.6254 7.73031 17.2475 9.33759 18.1567 10.8474C18.1567 10.8962 18.2046 10.8962 18.3003 10.9449C19.0181 9.53241 19.5444 8.07125 19.1616 6.41527C18.9223 5.44117 18.3481 4.66188 17.3432 4.17483ZM8.92108 18.1532C8.96893 16.7408 7.72475 15.1335 6.33702 14.8413C6.1456 14.7926 5.95419 14.8413 5.90634 15.0361C5.52351 16.0102 5.52352 16.9356 6.0499 17.8123C6.19346 18.0558 6.43272 18.348 6.67198 18.4942C6.81554 18.5916 7.10266 18.3968 7.34193 18.348C7.86831 18.2993 8.39469 18.2506 8.92108 18.1532ZM37.0586 17.7149C37.4893 17.7636 37.8243 17.7636 38.2071 17.861C38.5899 17.9584 38.877 18.1532 39.212 18.2506C39.3077 18.2993 39.4991 18.2506 39.547 18.2019C40.2648 17.4714 40.4562 15.9615 39.9776 15.0361C39.8341 14.7926 39.7384 14.7439 39.4513 14.8413C38.1114 15.2796 37.3936 16.3024 37.0586 17.7149ZM4.75787 21.3678C5.04498 20.7346 5.3321 20.1501 5.57137 19.5657C5.61922 19.4683 5.52351 19.3222 5.47566 19.2247C5.28425 18.9325 5.09284 18.689 4.85357 18.4455C4.75787 18.348 4.56646 18.2506 4.4229 18.2506C3.56154 18.3968 2.84375 18.8351 2.22166 19.4196C2.0781 19.5657 2.0781 19.7118 2.17381 19.8579C2.8916 20.7346 3.75295 21.2217 4.75787 21.3678ZM41.0783 21.3678C42.0832 21.173 42.9445 20.7833 43.6145 19.9553C43.8059 19.7118 43.8059 19.517 43.5666 19.2734C42.9924 18.689 42.2267 18.348 41.4132 18.2019C41.3175 18.2019 41.174 18.2506 41.1261 18.2993C40.839 18.5916 40.5997 18.9325 40.3605 19.176C40.5997 19.9553 40.839 20.6372 41.0783 21.3678ZM21.5543 5.24635C22.0806 5.19764 22.5113 5.14893 22.9898 5.14893C23.6598 5.14893 23.7555 5.05153 23.7076 4.36965C23.7076 4.22354 23.6598 4.07742 23.6598 3.9313C23.5162 3.15202 23.1813 2.42145 22.607 1.83698C22.2721 1.54475 22.1763 1.54475 21.9371 1.88569C21.5543 2.42144 21.3628 3.00591 21.315 3.63908C21.2671 4.22354 21.2671 4.7593 21.5543 5.24635ZM39.547 21.5626C39.8341 20.1988 38.5421 18.8838 37.2979 19.2734C37.2979 20.3937 38.4942 21.6113 39.547 21.5626ZM33.6132 20.7833C33.6132 20.832 33.6132 20.832 33.6611 20.8807C34.7138 21.0268 35.7666 21.173 36.8194 21.3191C36.4844 20.6859 36.1973 20.1501 35.9101 19.517C35.0966 19.9553 34.3788 20.345 33.6132 20.7833ZM6.28916 21.5626C7.15052 21.6113 8.53825 20.6372 8.5861 19.6144C7.00696 19.4683 6.24131 20.4911 6.28916 21.5626ZM22.7506 6.46398C22.5113 6.51268 22.3199 6.51268 22.0806 6.61009C21.9849 6.65879 21.8414 6.90232 21.8892 6.99973C22.0806 7.43808 22.272 7.92513 22.5592 8.31477C22.7506 8.607 23.0377 8.5583 23.2291 8.21736C23.3727 7.97384 23.4684 7.73031 23.5162 7.48678C23.7076 6.7075 23.5641 6.51268 22.7506 6.46398ZM12.2229 20.8807C12.2229 20.832 12.2708 20.832 12.2708 20.7833C11.553 20.3937 10.8352 19.9553 10.1653 19.5657C9.83028 20.1501 9.54316 20.6859 9.25605 21.2217C10.261 21.1242 11.218 20.9781 12.2229 20.8807ZM30.3592 13.7698C30.9813 13.7211 31.5555 13.6723 31.8905 13.1853C31.9862 13.0392 32.0819 12.7957 32.0341 12.6495C31.9383 12.2112 31.1727 11.8703 30.7899 12.0651C30.6463 12.1138 30.5028 12.2599 30.5028 12.406C30.4071 12.8444 30.4071 13.2827 30.3592 13.7698ZM15.4769 13.7698C15.4769 13.6724 15.4769 13.6236 15.4769 13.5749C15.4769 13.2827 15.4291 12.9905 15.4291 12.6982C15.3812 12.406 15.3334 12.1138 14.9505 12.0651C14.5677 12.0164 14.0892 12.2112 13.9456 12.5034C13.7542 12.8444 13.8499 13.0879 14.0892 13.3314C14.472 13.6723 14.9506 13.7698 15.4769 13.7698Z" fill="#FFEB61"/>
</svg>
