<svg width="42" height="47" viewBox="0 0 42 47" fill="none" xmlns="http://www.w3.org/2000/svg">
<g clip-path="url(#clip0_266_1337)">
<path d="M20.4685 24.0925C20.4141 23.3718 20.5716 22.6305 20.2172 21.9378C18.7188 19.0213 16.7236 16.5802 13.5488 15.3971C12.5568 15.0283 11.4616 14.9366 10.4115 14.7213C10.3008 14.6989 10.1846 14.6932 10.0458 14.6783V13.5139C10.8015 13.6505 11.5216 13.7816 12.2399 13.9108C12.253 13.8845 12.268 13.8565 12.2811 13.8303C11.9098 13.63 11.5404 13.4222 11.1653 13.2293C10.779 13.0309 10.3721 12.8662 9.99518 12.6528C9.01067 12.0968 8.59624 10.9961 8.9788 10.0151C9.38197 8.98555 10.4677 8.39775 11.5591 8.67106C13.0762 9.05107 14.3908 9.85041 15.6434 10.7583C17.3874 12.0219 18.8632 13.5495 20.0878 15.3204C20.1684 15.4364 20.2584 15.545 20.4591 15.6442C20.4591 15.384 20.431 15.1219 20.4647 14.8673C20.5922 13.8546 20.2209 13.0085 19.6659 12.1923C18.8014 10.9231 17.8262 9.75307 16.6017 8.82643C15.3828 7.90542 15.049 7.02184 16.5679 5.85372C16.1029 5.52612 15.6378 5.20788 15.184 4.8728C14.6533 4.48155 14.4283 3.95365 14.4545 3.28722C14.507 1.94688 15.8516 1.10448 17.0686 1.67918C17.9912 2.11536 18.642 2.86228 19.2195 3.66724C19.574 4.15957 19.8553 4.70432 20.1684 5.2266C20.2378 5.34266 20.2997 5.46247 20.3653 5.58228C20.4028 5.57292 20.4385 5.56543 20.476 5.55607C20.476 5.34641 20.476 5.13675 20.476 4.92708C20.476 3.5493 20.4741 2.17152 20.476 0.793734C20.476 0.222778 20.626 -0.00186039 20.9842 1.15948e-05C21.3536 0.00375557 21.5242 0.260218 21.528 0.82743C21.5355 2.26325 21.5392 3.69906 21.5486 5.13487C21.5486 5.28651 21.5692 5.43814 21.6742 5.61036C21.8393 5.31271 21.9799 4.99635 22.1768 4.72116C22.7338 3.94616 23.2776 3.15618 23.9002 2.43734C24.2021 2.08915 24.6409 1.82707 25.0666 1.62677C25.9142 1.22804 26.8537 1.56499 27.3225 2.36808C27.7988 3.18426 27.6263 4.25878 26.9118 4.80353C26.4318 5.17044 25.9311 5.50927 25.451 5.85559C25.7023 6.07836 25.9611 6.24683 26.1411 6.47522C26.5949 7.05928 26.5086 7.89231 25.9648 8.38839C25.4191 8.88634 24.8172 9.33374 24.3183 9.87475C23.6526 10.5992 23.0732 11.4004 22.4412 12.1548C21.6349 13.1152 21.5073 14.2365 21.6199 15.4233C21.6255 15.4888 21.6611 15.5506 21.708 15.6873C22.0287 15.2567 22.3081 14.8767 22.595 14.5023C24.4852 12.0369 26.8068 10.1162 29.7078 8.93501C30.276 8.70288 30.8592 8.51381 31.4856 8.64485C32.4007 8.83579 33.0833 9.56213 33.2014 10.4476C33.3271 11.3929 32.9032 12.1998 32.0163 12.6715C31.388 13.0047 30.7505 13.3173 30.1185 13.6431C29.9947 13.7067 29.8785 13.7891 29.781 13.9351C30.4992 13.8003 31.2174 13.6655 31.9712 13.5251V14.7138C31.3805 14.7775 30.788 14.8037 30.2123 14.9104C27.5813 15.4046 25.4885 16.7955 23.8439 18.8603C23.2044 19.6634 22.6756 20.5526 22.1056 21.4081C21.5599 22.2261 21.5449 23.1378 21.6517 24.2048C21.8374 23.9633 21.9612 23.8192 22.0643 23.6601C23.4632 21.4998 25.1528 19.6222 27.4181 18.3455C30.9324 16.3649 34.6191 15.8164 38.4765 17.2242C39.9842 17.7745 41.1825 18.7236 41.8444 20.2493C42.0714 20.7716 42.0788 21.2377 41.7526 21.7263C41.1375 22.6473 40.3386 23.3343 39.3091 23.7443C38.5609 24.0438 37.8277 23.9484 37.1132 23.6151C35.6486 22.9337 34.1409 22.3721 32.5526 22.052C31.088 21.7563 29.6103 21.745 28.1289 21.8948C27.645 21.9435 27.5344 22.1044 27.5682 22.5874C27.5719 22.6305 27.5775 22.6735 27.5832 22.7166C27.7013 23.6544 27.7013 23.6432 28.6258 23.6357C30.6454 23.617 32.5263 24.173 34.3097 25.0772C36.9857 26.4344 39.0409 28.4467 40.5636 31.0226C40.7699 31.3708 40.7324 31.5524 40.3968 31.792C37.5707 33.8081 34.4297 34.7198 30.968 34.5232C28.6446 34.3903 26.9625 33.3289 26.1936 31.0638C25.9798 30.4367 25.811 29.7796 25.7342 29.1244C25.6048 28.0049 25.5654 26.8761 25.4829 25.6725C25.1866 25.8671 24.8622 26.0412 24.5846 26.2715C23.3376 27.3086 22.3906 28.5797 21.6949 30.0398C21.6049 30.2307 21.5449 30.4554 21.543 30.665C21.5299 32.9114 21.4492 35.1616 21.7924 37.3948C22.0155 38.8494 22.3962 40.2534 23.0938 41.5638C24.1571 43.5593 25.7248 44.7443 28.0407 45.0045C29.5334 45.1711 30.998 45.5885 32.4757 45.8955C32.5713 45.9161 32.6632 45.9592 32.7795 46.0004C32.7157 46.3392 32.6557 46.6612 32.592 47C24.8978 45.0962 17.228 45.0737 9.55825 46.9925C9.53012 46.9495 9.49449 46.9195 9.48324 46.8802C9.21695 46.0116 9.21133 45.9817 10.0871 45.7982C11.5048 45.4987 12.9262 45.1935 14.3589 44.9783C16.6504 44.6357 18.1113 43.286 19.0845 41.2905C19.8909 39.6356 20.2809 37.8666 20.3859 36.0489C20.4891 34.2705 20.4703 32.4846 20.4947 30.7025C20.4966 30.519 20.461 30.3243 20.3953 30.1521C19.6996 28.312 18.4769 26.8967 16.8624 25.7979C16.8061 25.7586 16.7348 25.7398 16.6129 25.6837C16.6129 25.8597 16.6129 25.9944 16.6129 26.1292C16.6223 27.7915 16.4498 29.4295 15.9379 31.017C15.259 33.1173 13.7438 34.2106 11.6079 34.4427C7.92678 34.8415 4.59071 33.8774 1.56968 31.7676C1.36528 31.6254 1.26401 31.5149 1.41966 31.2472C3.61745 27.4976 6.68161 24.8619 11.0078 23.9053C11.9454 23.6975 12.9337 23.7087 13.8976 23.6208C13.9838 23.6133 14.102 23.6563 14.1526 23.6133C14.5652 23.2669 14.4827 22.7821 14.4789 22.3291C14.4752 21.9715 14.2464 21.8461 13.9032 21.8218C11.111 21.6177 8.4331 22.0576 5.879 23.2145C5.64085 23.3231 5.39331 23.4111 5.16266 23.5328C4.00938 24.1524 2.89736 23.997 1.88284 23.2669C1.30339 22.8495 0.797074 22.316 0.31326 21.7843C-0.0561649 21.3781 -0.0655411 20.8802 0.151988 20.3598C0.740817 18.9558 1.79096 18.0198 3.14301 17.402C5.81525 16.1815 8.57374 16.1515 11.3566 16.934C15.1859 18.0123 17.935 20.5039 20.0953 23.7331C20.1815 23.8622 20.2716 23.9914 20.3597 24.1206C20.3991 24.1112 20.4385 24.1 20.4778 24.0906L20.4685 24.0925ZM2.74358 31.206C2.80172 31.2603 2.83735 31.3071 2.88423 31.339C5.54333 33.0687 8.46685 33.7463 11.6041 33.3794C13.4531 33.1623 14.6252 32.0709 15.0771 30.2495C15.4597 28.7051 15.5478 27.1289 15.5347 25.5452C15.5309 25.1988 15.2946 25.1277 15.0246 25.0416C14.9815 25.1165 14.9421 25.1745 14.9121 25.2382C14.1451 26.9005 13.0293 28.297 11.6173 29.4539C10.224 30.5958 8.6525 31.2716 6.81288 31.1686C5.78712 31.1106 5.74586 30.9983 6.20717 30.0566C6.88789 28.6714 8.0693 27.8627 9.42323 27.2599C10.0514 26.9791 10.7059 26.7563 11.4316 26.4755V28.2333C12.5043 27.1682 13.3688 26.0899 13.9032 24.7514C10.4359 24.1112 4.45944 27.5838 2.74358 31.2098V31.206ZM36.1306 31.002C34.6472 31.309 33.2539 31.1667 31.9244 30.4872C30.6454 29.8339 29.6047 28.8885 28.7496 27.7578C28.1082 26.908 27.5588 25.9888 26.9081 25.0116C26.8143 25.1502 26.6137 25.3112 26.608 25.4778C26.5593 27.0746 26.638 28.6676 27.0225 30.2251C27.5044 32.1776 28.5883 33.1978 30.5611 33.4113C33.6252 33.7426 36.47 33.05 39.0634 31.3745C39.1685 31.3071 39.2585 31.2173 39.3447 31.1461C39.3222 31.0788 39.3185 31.0488 39.3035 31.0263C37.0832 27.7541 34.1522 25.5152 30.1785 24.8244C29.539 24.714 28.8752 24.729 28.1439 24.6822C28.7196 26.1199 29.5597 27.1813 30.6192 28.2408V26.6459C32.035 26.7844 34.5685 28.179 35.3786 29.2461C35.7686 29.7609 36.0424 30.3243 36.1306 31.0039V31.002ZM36.6613 22.2448C37.4957 22.681 38.2515 23.1322 39.101 22.6417C39.6579 22.3216 40.1642 21.9004 40.6537 21.4773C41.0006 21.1778 41.0137 20.7978 40.7662 20.3841C40.1248 19.3171 39.1891 18.6113 38.0489 18.177C35.8718 17.3458 33.6365 17.329 31.4143 17.9018C26.7862 19.0924 23.7877 22.1793 21.798 26.367C21.603 26.7788 21.6386 27.2992 21.5655 27.7691C21.6124 27.7841 21.6592 27.7972 21.7061 27.8121C23.0394 26.0843 24.5059 24.5268 26.6249 23.9072C26.5724 23.3006 26.4824 22.754 26.4899 22.2093C26.5011 21.3463 27.0581 20.8109 27.9263 20.7959C28.8546 20.7809 29.7847 20.8128 30.713 20.8015C30.9024 20.7997 31.1293 20.7585 31.2718 20.648C32.2244 19.918 33.3046 19.4855 34.4578 19.2047C34.7166 19.1411 34.9773 19.0924 35.2736 19.0288V20.0995C34.4222 20.3803 33.6046 20.6499 32.6782 20.9569C32.8507 21.0374 32.8957 21.0655 32.9445 21.0786C33.6458 21.262 34.3453 21.4455 35.0485 21.6177C35.1329 21.6383 35.2361 21.6009 35.3261 21.5728C36.2206 21.2845 37.1113 20.9813 38.0114 20.7079C38.3452 20.6069 38.7822 20.912 38.8534 21.277C38.9359 21.6907 38.5346 21.6308 38.3358 21.7095C37.8183 21.9116 37.2763 22.052 36.6594 22.243L36.6613 22.2448ZM6.77913 19.0568C6.88976 19.0568 6.9629 19.0437 7.03041 19.0587C8.32433 19.3601 9.5695 19.7738 10.6721 20.547C10.8672 20.6836 11.141 20.7678 11.381 20.7753C12.2811 20.8015 13.1812 20.7678 14.0814 20.7884C14.9796 20.809 15.5928 21.4118 15.5853 22.3047C15.5816 22.8158 15.4615 23.3269 15.3865 23.8997C17.5037 24.5549 19.0864 26.015 20.5078 27.756C20.4591 27.1607 20.4253 26.5579 20.1759 26.0637C19.7352 25.1876 19.2139 24.3415 18.6382 23.5477C16.6354 20.7903 14.0795 18.7686 10.7265 17.8962C8.38997 17.2878 6.06653 17.2991 3.81435 18.2706C2.75671 18.7274 1.84721 19.377 1.28839 20.4384C1.08961 20.8146 1.11774 21.1217 1.36528 21.4399C1.9091 22.1419 2.61044 22.6305 3.47306 22.8195C4.15752 22.9693 4.72948 22.6024 5.38019 22.2579C4.69197 22.0502 4.10689 21.8873 3.53119 21.6907C3.38867 21.6421 3.20115 21.5035 3.17677 21.3781C3.10551 21.0187 3.5987 20.5956 3.95312 20.6911C4.68072 20.8839 5.42519 21.0449 6.12466 21.3163C6.70787 21.5447 7.23106 21.6028 7.82552 21.3744C8.26807 21.204 8.75189 21.1441 9.21883 21.0355L9.2357 20.8877C8.38247 20.5956 7.5311 20.3036 6.67786 20.0116C6.71162 19.6989 6.74725 19.3863 6.78288 19.0606L6.77913 19.0568ZM20.4385 19.9891C20.4441 19.0812 20.5641 18.3006 20.1628 17.548C18.9476 15.2736 17.2993 13.3735 15.244 11.8216C14.1057 10.9624 12.8906 10.2304 11.5329 9.76243C11.1672 9.63513 10.7997 9.5771 10.449 9.81672C10.0889 10.0619 9.87329 10.3764 9.91267 10.8351C9.95768 11.3517 10.2858 11.6251 10.719 11.8216C14.0457 13.3304 16.7423 15.6573 19.1727 18.323C19.6077 18.8004 19.9603 19.3526 20.4403 19.9891H20.4385ZM21.6349 19.8131C21.6705 19.8262 21.7061 19.8375 21.7436 19.8506C21.8261 19.742 21.9068 19.6315 21.9893 19.523C22.3943 18.9932 22.76 18.426 23.2138 17.9411C25.4791 15.5225 27.9882 13.4109 31.0092 11.9714C31.2193 11.8722 31.4274 11.7673 31.6225 11.6438C32.125 11.3255 32.2807 10.8538 32.0706 10.3334C31.8587 9.80736 31.4293 9.57336 30.8423 9.69504C30.5742 9.7512 30.3023 9.8242 30.0529 9.93652C26.3436 11.6157 23.5514 14.2458 21.7718 17.9206C21.4698 18.5439 21.6761 19.1823 21.6349 19.8131ZM21.0292 39.4222C20.3897 41.3372 19.4764 43.0651 18.0681 44.5402H24.0352C22.5294 43.0726 21.6442 41.3354 21.0292 39.4222ZM19.7652 6.8103C19.7615 6.8309 19.7802 6.7972 19.7709 6.77848C19.1445 5.44937 18.4188 4.18203 17.3387 3.1618C17.1024 2.93716 16.808 2.75371 16.5098 2.61892C16.0879 2.42798 15.6472 2.67508 15.5347 3.12623C15.4315 3.54181 15.5928 3.86754 15.9285 4.10715C17.2093 5.01507 18.4957 5.91737 19.7652 6.81218V6.8103ZM21.6724 11.3143C21.7624 11.2319 21.8374 11.187 21.8824 11.1215C22.7938 9.81484 23.857 8.65421 25.1397 7.69763C25.4904 7.43742 25.4416 7.02371 25.0309 6.89267C24.7872 6.81405 24.4177 6.81966 24.2246 6.95632C23.6245 7.37939 23.0582 7.85862 22.52 8.36031C21.678 9.14467 21.4098 10.1275 21.6742 11.3143H21.6724ZM20.3334 11.2507C20.3747 11.2357 20.416 11.2207 20.4591 11.2057C20.4216 10.4176 20.5491 9.60705 20.0034 8.89944C19.4033 8.1207 18.7038 7.45801 17.8675 6.94321C17.408 6.66054 17.0161 6.70547 16.7948 7.05928C16.5192 7.49732 16.8867 7.69763 17.1549 7.89418C18.1225 8.60554 18.9383 9.46104 19.664 10.4101C19.8815 10.6947 20.1103 10.9717 20.3353 11.2525L20.3334 11.2507ZM22.2218 6.97129C22.3006 6.95819 22.3362 6.96381 22.3493 6.94883C23.3338 5.83874 24.5959 5.08433 25.811 4.27002C25.9911 4.15021 26.1711 4.02104 26.3249 3.87128C26.6118 3.59236 26.6249 3.18801 26.383 2.83982C26.1467 2.49724 25.8317 2.413 25.4341 2.62454C25.1941 2.75371 24.9522 2.90346 24.7572 3.09066C23.6301 4.18578 22.91 5.54671 22.2218 6.96942V6.97129ZM34.5103 30.0754C33.9084 28.9466 32.7795 28.5909 31.7181 28.0929C31.7275 28.458 31.6768 28.9297 31.8775 29.0926C32.6238 29.6991 33.524 30.0136 34.5103 30.0754ZM10.2896 28.0162C9.25633 28.5778 8.12743 28.9185 7.59111 30.0978C8.2437 29.963 8.85878 29.7478 9.47574 29.5381C10.1733 29.3022 10.4227 28.8118 10.2896 28.0143V28.0162Z" fill="#FFEB61"/>
</g>
<defs>
<clipPath id="clip0_266_1337">
<rect width="42" height="47" fill="white"/>
</clipPath>
</defs>
</svg>
