<svg width="1440" height="800" viewBox="0 0 1440 800" fill="none" xmlns="http://www.w3.org/2000/svg">
<g clip-path="url(#clip0_2084_23320)">
<path d="M197.081 409.541C201.049 409.541 204.266 406.318 204.266 402.343C204.266 398.367 201.049 395.144 197.081 395.144C193.113 395.144 189.896 398.367 189.896 402.343C189.896 406.318 193.113 409.541 197.081 409.541Z" fill="#3F3D56"/>
<path d="M389.641 428.257C393.609 428.257 396.826 425.034 396.826 421.059C396.826 417.083 393.609 413.86 389.641 413.86C385.673 413.86 382.456 417.083 382.456 421.059C382.456 425.034 385.673 428.257 389.641 428.257Z" fill="#3F3D56"/>
<path d="M304.14 439.055C306.521 439.055 308.451 437.121 308.451 434.736C308.451 432.35 306.521 430.417 304.14 430.417C301.759 430.417 299.829 432.35 299.829 434.736C299.829 437.121 301.759 439.055 304.14 439.055Z" fill="#E6E6E6"/>
<path d="M4.31101 653.627C6.69191 653.627 8.62201 651.694 8.62201 649.308C8.62201 646.923 6.69191 644.989 4.31101 644.989C1.9301 644.989 0 646.923 0 649.308C0 651.694 1.9301 653.627 4.31101 653.627Z" fill="#E6E6E6"/>
<path d="M227.26 691C229.641 691 231.571 689.066 231.571 686.681C231.571 684.296 229.641 682.362 227.26 682.362C224.879 682.362 222.949 684.296 222.949 686.681C222.949 689.066 224.879 691 227.26 691Z" fill="#E6E6E6"/>
<path d="M294.799 562.893L292.648 565.035L290.511 562.879L289.077 564.306L291.213 566.462L289.061 568.603L290.486 570.041L292.638 567.899L294.776 570.055L296.21 568.628L294.072 566.472L296.224 564.331L294.799 562.893Z" fill="#3F3D56"/>
<path d="M106.383 585.964L104.231 588.105L102.094 585.949L100.659 587.377L102.797 589.533L100.645 591.673L102.07 593.111L104.221 590.969L106.358 593.125L107.793 591.698L105.656 589.542L107.808 587.401L106.383 585.964Z" fill="#E6E6E6"/>
<path d="M26.7997 508.186L24.6478 510.326L22.511 508.171L21.0762 509.598L23.2136 511.754L21.0616 513.895L22.4865 515.332L24.6378 513.191L26.7752 515.347L28.21 513.92L26.0727 511.764L28.2246 509.622L26.7997 508.186Z" fill="#E6E6E6"/>
<path d="M402.575 375.015L400.423 377.155L398.286 375L396.852 376.427L398.989 378.583L396.837 380.724L398.262 382.161L400.414 380.02L402.551 382.176L403.985 380.749L401.848 378.593L404 376.451L402.575 375.015Z" fill="#E6E6E6"/>
<path d="M233.009 434.761L230.857 436.903L228.719 434.747L227.285 436.174L229.422 438.33L227.271 440.471L228.695 441.909L230.847 439.767L232.984 441.923L234.418 440.496L232.282 438.34L234.433 436.199L233.009 434.761Z" fill="#E6E6E6"/>
<path d="M165.826 523.636L166.013 524.01L165.826 524.356V523.636Z" fill="black"/>
<g clip-path="url(#clip1_2084_23320)">
<path d="M959 705C1074.98 705 1169 611.204 1169 495.5C1169 379.796 1074.98 286 959 286C843.02 286 749 379.796 749 495.5C749 611.204 843.02 705 959 705Z" fill="#FFEB62"/>
<path opacity="0.1" d="M938.344 375.295C951.653 375.295 962.442 364.532 962.442 351.254C962.442 337.977 951.653 327.213 938.344 327.213C925.035 327.213 914.246 337.977 914.246 351.254C914.246 364.532 925.035 375.295 938.344 375.295Z" fill="#222222"/>
<path opacity="0.1" d="M979.656 615.705C992.965 615.705 1003.75 604.941 1003.75 591.664C1003.75 578.386 992.965 567.623 979.656 567.623C966.346 567.623 955.557 578.386 955.557 591.664C955.557 604.941 966.346 615.705 979.656 615.705Z" fill="#3A1616"/>
<path opacity="0.2" d="M1072.61 474.894C1082.11 474.894 1089.82 467.205 1089.82 457.722C1089.82 448.238 1082.11 440.549 1072.61 440.549C1063.1 440.549 1055.39 448.238 1055.39 457.722C1055.39 467.205 1063.1 474.894 1072.61 474.894Z" fill="black"/>
<path opacity="0.2" d="M876.375 567.623C906.796 567.623 931.457 543.021 931.457 512.672C931.457 482.324 906.796 457.721 876.375 457.721C845.955 457.721 821.293 482.324 821.293 512.672C821.293 543.021 845.955 567.623 876.375 567.623Z" fill="black"/>
<path d="M602.995 685.376C664.834 621.327 769.279 616.534 851.726 650.214C878.683 661.43 904.335 675.596 928.219 692.457C942.106 702.114 955.559 712.511 968.657 723.456C971.88 726.138 975.1 728.856 978.279 731.618C980.449 733.48 982.608 735.361 984.757 737.261C1011.68 761.022 1037.26 786.655 1062.38 812.106C1125.08 875.641 1189.48 941.105 1270.97 977.059C1287.75 984.463 1309.95 989.496 1322.25 975.88C1332.92 964.058 1329.15 945.256 1322.72 930.619C1298.86 876.399 1249.16 838.378 1198.64 807.794C1148.11 777.21 1093.94 750.983 1051.57 709.711C1009.19 668.44 980.001 607.017 995.579 549.941C1009.01 500.755 1053.97 464.518 1103.13 451.958C1152.28 439.41 1204.76 447.647 1252.7 464.529C1300.64 481.422 1345.19 506.62 1390.8 529.127C1418.3 542.71 1454.93 554.029 1476.43 532.182C1494.59 513.723 1488.74 480.831 1471 461.875C1453.25 442.918 1427.43 434.394 1402.76 426.581C1326.15 402.31 1249.55 378.043 1172.94 353.78C1149.44 346.347 1125.4 338.627 1105.83 323.534C1086.26 308.452 1071.75 284.256 1074.94 259.714C1078.1 235.527 1098.02 216.03 1120.8 207.659C1143.57 199.298 1168.72 200.377 1192.7 204.17C1282.56 218.396 1526.29 390.966 1586.45 416.199C1625.1 432.4 1666.9 454.561 1679.69 494.653C1695.62 544.564 1655.07 598.406 1605.71 615.007C1556.36 631.621 1502.32 620.836 1451.81 607.903C1401.3 594.97 1349.31 579.856 1297.92 588.313C1246.54 596.769 1196.02 637.13 1195.47 689.505C1195 735.078 1231.83 773.484 1272.78 793.114C1304.83 808.486 1339.91 815.549 1374.33 824.654C1383.88 827.169 1393.38 829.857 1402.75 832.912C1426.73 840.761 1449.84 851.098 1471.7 863.756C1494.65 877.016 1516.12 892.709 1535.76 910.565C1551.42 924.788 1565.81 940.361 1578.77 957.105C1580.75 959.663 1582.7 962.27 1584.62 964.926C1586.44 967.467 1588.24 970.054 1589.98 972.682C1612.68 1006.75 1627.83 1047.3 1617.89 1086.29C1607.97 1125.18 1573.87 1154.73 1535.72 1166.54C1513.59 1173.08 1490.41 1175.28 1467.43 1173.04C1450.56 1171.54 1433.86 1168.48 1417.54 1163.91C1341.98 1143.14 1275.5 1097.9 1213.27 1049.97C1151.04 1002.05 1090.93 950.342 1021.68 913.457C952.434 876.559 871.423 855.284 795.307 873.476C719.192 891.655 651.391 956.559 646.728 1035.12C602.521 987.684 566.764 930.228 554.981 866.371C543.197 802.515 558.088 731.896 602.995 685.376Z" fill="#1B1D1F"/>
<path d="M1385.98 338.527C1388.63 337.917 1390.27 335.266 1389.66 332.607C1389.04 329.947 1386.4 328.287 1383.76 328.897C1381.12 329.508 1379.47 332.158 1380.09 334.818C1380.7 337.477 1383.34 339.138 1385.98 338.527Z" fill="#FF6584"/>
<path d="M1240.41 318.547C1243.12 317.922 1244.8 315.211 1244.17 312.491C1243.54 309.772 1240.84 308.073 1238.14 308.698C1235.43 309.322 1233.75 312.033 1234.38 314.753C1235.01 317.472 1237.71 319.171 1240.41 318.547Z" fill="#F0F0F0"/>
<path d="M1176.08 241.009C1178.79 240.384 1180.47 237.673 1179.84 234.954C1179.21 232.234 1176.51 230.535 1173.81 231.16C1171.1 231.784 1169.42 234.495 1170.05 237.215C1170.68 239.935 1173.38 241.633 1176.08 241.009Z" fill="#F0F0F0"/>
<path d="M1342.72 554.387C1345.42 553.763 1347.11 551.052 1346.48 548.332C1345.85 545.612 1343.15 543.914 1340.45 544.538C1337.74 545.163 1336.06 547.874 1336.69 550.593C1337.32 553.313 1340.02 555.012 1342.72 554.387Z" fill="#F0F0F0"/>
<path d="M1106.33 654.836C1109.04 654.212 1110.72 651.501 1110.09 648.781C1109.46 646.061 1106.76 644.363 1104.06 644.987C1101.36 645.612 1099.67 648.323 1100.3 651.042C1100.93 653.762 1103.63 655.461 1106.33 654.836Z" fill="#F0F0F0"/>
<path d="M1131.34 507.368C1134.05 506.743 1135.73 504.032 1135.1 501.313C1134.47 498.593 1131.77 496.894 1129.07 497.519C1126.37 498.143 1124.68 500.854 1125.31 503.574C1125.94 506.293 1128.64 507.992 1131.34 507.368Z" fill="#F0F0F0"/>
<path opacity="0.3" d="M650.761 702.335C662.008 700.291 686.303 700.534 712.898 701.961C739.479 703.398 768.537 705.931 797.228 708.447C847.449 712.84 897.667 717.229 947.882 721.613C954.785 722.213 961.71 722.827 968.656 723.455C971.88 726.138 975.1 728.856 978.279 731.618C972.137 730.91 965.988 730.273 959.876 729.724C933.769 727.395 911.496 727.026 886.27 725.247C847.451 722.519 805.835 716.773 765.604 711.764C725.373 706.743 679.438 701.946 650.761 702.335Z" fill="#111010"/>
</g>
</g>
<defs>
<clipPath id="clip0_2084_23320">
<rect width="1440" height="800" fill="white"/>
</clipPath>
<clipPath id="clip1_2084_23320">
<rect width="1297.36" height="1131.16" fill="white" transform="translate(369 328.022) rotate(-13.0081)"/>
</clipPath>
</defs>
</svg>
