<?xml version="1.0" encoding="UTF-8"?>
<svg id="_Слой_2" data-name="Слой 2" xmlns="http://www.w3.org/2000/svg" xmlns:xlink="http://www.w3.org/1999/xlink" viewBox="0 0 2456.08 861">
  <defs>
    <style>
      .cls-1 {
        fill: #55556d;
      }

      .cls-2 {
        fill: #292a2d;
      }

      .cls-3 {
        fill: #ffeb62;
        opacity: .47;
      }

      .cls-4 {
        stroke: #938337;
      }

      .cls-4, .cls-5, .cls-6 {
        fill: none;
      }

      .cls-4, .cls-6 {
        stroke-miterlimit: 10;
        stroke-width: 3px;
      }

      .cls-7, .cls-8 {
        fill: #222228;
      }

      .cls-9 {
        fill: gray;
      }

      .cls-10 {
        fill: #4d4c63;
      }

      .cls-11 {
        clip-path: url(#clippath);
      }

      .cls-6 {
        stroke: #3d3d4f;
      }

      .cls-12 {
        fill: #999;
      }

      .cls-13 {
        fill: #2c2e30;
      }

      .cls-14 {
        fill: #1a1a1a;
      }

      .cls-15 {
        fill: #938337;
      }

      .cls-8 {
        opacity: .45;
      }

      .cls-16 {
        fill: #111010;
      }

      .cls-17 {
        fill: #242628;
      }

      .cls-18 {
        fill: #666;
      }

      .cls-19 {
        fill: #3d3d4f;
      }
    </style>
    <clipPath id="clippath">
      <path class="cls-5" d="M1934.86,294.09c-.24,1.68,6.18,4.13,12.97,6.73,9.08,3.47,17.11,4.64,22.7,5.05,1.46,1.51,3.6,3.4,6.49,5.05,3.82,2.17,7.37,3.01,9.73,3.36,.43,1.65,1.91,6.5,6.49,10.09,6.29,4.94,13.43,3.6,14.59,3.36,2.12,4.15,4.77,8.72,8.11,13.46,4.95,7.04,10.08,12.58,14.59,16.82,1.51,4.9,3.08,11.82,3.24,20.19,.13,6.7-.68,12.43-1.62,16.82-1.84,1.65-4.43,4.38-6.49,8.41-3.23,6.32-3.36,12.27-3.24,15.14-.79,1.71-2.26,4.31-4.86,6.73-1.76,1.63-3.51,2.69-4.86,3.36-1.41-2.37-3.95-3.68-6.49-3.36-3.09,.39-4.67,3.03-4.86,3.36-.43,2.02-.94,5.69,0,10.09,1.08,5.06,3.53,8.48,4.86,10.09-.24-.06-4.01-.95-6.49,1.68-.01,.01-.02,.02-.03,.04-1.32,1.43-.56,3.33,.52,4.97,1.14,1.73,1.51,4.91,1.14,6.77-3.16,.67-1.64,3.33-.5,5.69,.17,.35,.33,.69,.5,1.04,.54,1.12,1.08,2.24,1.62,3.36,.54,3.36,1.08,6.73,1.62,10.09-1.11,1.99-2.76,4.92-4.86,8.41-2.75,4.57-4.77,7.9-6.49,10.09-4.29,5.45-9.87,7.74-16.21,10.09-19.6,7.28-29.4,10.92-37.29,11.77-8.25,.89-26.56,2.64-47.02-6.73-12.42-5.69-20.98-13.35-25.94-18.5-2.16-2.8-15.43-18.32-16.37-17.57-2.54,2.04,7.96,24.93,8.85,26.54,6.85,12.39,17.72,20.06,20.49,22.99,16.67,17.7,55.71,36.48,103.77,25.23,51.02-11.94,93.74-60.87,98.9-119.43,5.83-66.13-37.97-124.51-84.31-139.62-26.91-8.78-62.69-5.52-63.23-1.68Z"/>
    </clipPath>
  </defs>
  <g id="_Слой_1-2" data-name="Слой 1">
    <path class="cls-14" d="M2045.74,545.62c4.46-16.06,9.27-32.99,21.34-45.16,3.07-3.1,6.55-5.75,10.39-7.82,.43-.23,.05-.88-.38-.65-14.58,7.84-22.58,23.19-27.6,38.32-1.66,4.99-3.06,10.05-4.47,15.11-.13,.47,.59,.66,.72,.2h0Z"/>
  </g>
  <g id="_Слой_5" data-name="Слой 5">
    <circle class="cls-2" cx="1902" cy="541" r="246"/>
    <circle class="cls-8" cx="1766.5" cy="482.5" r="61.5"/>
    <circle class="cls-8" cx="1806" cy="385" r="15"/>
    <circle class="cls-8" cx="1990.5" cy="417.5" r="26.5"/>
  </g>
  <g id="_Слой_3" data-name="Слой 3">
    <circle class="cls-4" cx="1898" cy="537" r="320.5"/>
    <path class="cls-7" d="M2411,553c6.71-20.13,.88-41.45-14-53-14.91-11.58-32.81-8.59-36-8,.67-3.35,2.95-16.61-5-26-7.79-9.2-20.64-9.07-28-9-40.89,.41-82.76,52.76-90,62-.55-.56-8.62-8.41-20-6-11.65,2.47-15.77,13.36-16,14-3.26-2.5-11.31-7.96-23-9-14.29-1.27-24.75,4.9-28,7-14.41-53.13-40.98-67.35-49-71-51.71-23.55-142.75,23.03-204,133-7.92-13-21.26-21.4-35-21-19.68,.58-38.13,19.13-39,44-4.82-1.81-12.59-3.91-22-3-21.83,2.11-34.58,18.71-37,22-3.48-3.5-15.07-14.22-31-14-20.9,.29-41.26,19.29-46,47-7.99-4.88-19.06-10.41-33-14-26.43-6.82-48.96-3.01-61,0-.64-4.09-3.42-18.53-16-28-14.57-10.97-36.33-10.77-54,1-12.13-40.9-50.24-64.54-84-58-36.36,7.04-51.24,45.91-52,48-4.1,.42-9.21,1.68-14,5-10.72,7.44-15.55,22.25-13,38-.46-.12-7.02-1.65-12,3-4.19,3.92-4.04,9.22-4,10-3.35-8.98-10.47-23.33-25-31-36.99-19.53-94.66,18.67-93,40,.78,10.06,15.02,19.82,28,22,9.98,1.67,18.18-1.31,22-3,11.34,27.09,32.06,46.3,54,47,13.68,.44,26.87-6.36,32-9,14.01-7.21,23.03-16.8,28-23,8.79-5.67,26.09-15.17,50-18,25.78-3.05,46.1,3.21,56,7,23.86,27.23,53.59,38.49,73,29,3.96-1.94,9.23-5.59,14-13,1.74,1.69,13.83,13.01,31,11,10.23-1.2,17.17-6.53,20-9,9.97,2.4,23.37,4.34,39,3,36.52-3.13,61.72-22.18,72-31,9.67,5.24,23.38,12.56,40,21,53.17,27.02,65.46,29.75,73,31,17.25,2.87,45.39,7.55,65-10,15.36-13.75,17.57-34.06,18-42,3.27,4.48,9.01,11.24,18,17,5.75,3.69,10.03,6.43,15,6,8.75-.76,16.41-11.08,20-25,2.07,5.26,5.67,12.67,12,20,17.86,20.66,43.21,24.21,56,26,46.24,6.47,83.76-18.03,95-26,8.92,3.9,28.3,10.91,53,8,17.76-2.09,31.16-8.47,39-13,15.22,24.56,42.59,38.86,71,37,30.66-2.01,57.51-22.51,68-52,.82,.46,7.03,3.8,14,1,8.48-3.4,9.95-12.62,10-13,7.54-4.27,22.17-13.96,32-32,1.54-2.82,23.5-44.51,1-72-10.84-13.25-26.84-16.87-35-18Z"/>
    <g>
      <g>
        <path class="cls-6" d="M1862,733c.29-15.54,.31-31.55,0-48.01-.2-10.87-.54-21.54-1-31.99"/>
        <circle class="cls-10" cx="1862" cy="693" r="7"/>
        <path class="cls-10" d="M1894,822h-62l13-73.5c0-10.22,8.28-18.5,18.5-18.5h0c10.22,0,18.5,8.28,18.5,18.5l12,73.5Z"/>
        <ellipse class="cls-10" cx="1863" cy="822" rx="31" ry="7"/>
      </g>
      <path class="cls-19" d="M1817,483v-12.16c0-5.1,3.74-9.43,8.79-10.16,10.44-1.51,22.26-2.88,35.21-2.68,12.16,.19,23.28,1.19,33.16,2.59,5.07,.72,8.84,5.05,8.84,10.17v13.24c-28.67-.33-57.33-.67-86-1Z"/>
      <path class="cls-19" d="M1818,653.98v12.16c0,5.1,3.74,9.43,8.79,10.16,10.44,1.51,22.26,2.88,35.21,2.68,12.16-.19,23.28-1.19,33.16-2.59,5.07-.72,8.84-5.05,8.84-10.17v-13.24c-28.67,.33-57.33,.67-86,1Z"/>
      <ellipse class="cls-10" cx="1860.5" cy="571" rx="111.5" ry="95"/>
      <path class="cls-19" d="M1859.9,472.07c.96,10.56,1.39,21.15,1.28,31.75,0,.97,1.49,.97,1.5,0,.11-10.6-.32-21.2-1.28-31.75-.09-.95-1.59-.96-1.5,0h0Z"/>
      <path class="cls-19" d="M1861.21,515.88c-.28,2.01-.13,4.04,.49,5.98,.12,.39,.52,.63,.92,.52,.38-.1,.65-.54,.52-.92-.54-1.66-.73-3.45-.49-5.18,.06-.4-.1-.81-.52-.92-.35-.1-.87,.12-.92,.52h0Z"/>
      <path class="cls-19" d="M1861.84,532.79c-.28,31.72-.57,63.44-.85,95.15-.08,8.97-.16,17.93-.24,26.9,0,.97,1.49,.97,1.5,0,.28-31.72,.57-63.44,.85-95.15,.08-8.97,.16-17.93,.24-26.9,0-.97-1.49-.97-1.5,0h0Z"/>
      <path class="cls-19" d="M1827.93,478.76c-17.67,19.99-29.78,44.74-34.81,70.94-1.4,7.3-2.25,14.69-2.54,22.11-.04,.97,1.46,.96,1.5,0,1.03-26.27,9.27-52.11,23.47-74.22,4.02-6.26,8.51-12.2,13.44-17.77,.64-.72-.42-1.79-1.06-1.06h0Z"/>
      <path class="cls-19" d="M1791.5,584.63c0,3.16,0,6.32,0,9.47,0,.97,1.5,.97,1.5,0,0-3.16,0-6.32,0-9.47,0-.97-1.5-.97-1.5,0h0Z"/>
      <path class="cls-19" d="M1793.64,605.81c1,13.69,4.14,27.16,9.34,39.86,.36,.88,1.81,.5,1.45-.4-5.15-12.58-8.3-25.91-9.29-39.46-.07-.96-1.57-.96-1.5,0h0Z"/>
      <path class="cls-19" d="M1891.09,476.57c10.43,7.12,18.68,17.15,23.72,28.73,.38,.88,1.68,.12,1.3-.76-5.14-11.81-13.62-22-24.25-29.26-.8-.55-1.55,.75-.76,1.3h0Z"/>
      <path class="cls-19" d="M1923.21,522.9c1.07,2.8,2.13,5.61,3.2,8.41,.14,.38,.51,.64,.92,.52,.36-.1,.67-.54,.52-.92-1.07-2.8-2.13-5.61-3.2-8.41-.14-.38-.51-.64-.92-.52-.36,.1-.67,.54-.52,.92h0Z"/>
      <path class="cls-19" d="M1932.59,553.24c2.95,25.52,3.03,52.19-7.01,76.28-2.62,6.3-5.95,12.3-9.94,17.83-.57,.78,.73,1.53,1.3,.76,14.89-20.63,19.43-46.59,18.87-71.55-.17-7.8-.82-15.57-1.72-23.31-.11-.95-1.61-.96-1.5,0h0Z"/>
      <path class="cls-19" d="M1862.51,110.24c0-20.58,0-41.16,0-61.74,0-1.93-3-1.93-3,0,0,20.58-.01,41.16,0,61.74,0,1.93,3,1.93,3,0h0Z"/>
      <path class="cls-19" d="M1862.51,173.99c0-10.22,0-20.45,0-30.67,0-1.93-3-1.93-3,0,0,10.22,0,20.45,0,30.67,0,1.93,3,1.93,3,0h0Z"/>
      <path class="cls-19" d="M1862.51,243.66c0-12.07,0-24.14,0-36.2,0-1.93-3-1.93-3,0,0,12.07,0,24.14,0,36.2,0,1.93,3,1.93,3,0h0Z"/>
      <path class="cls-19" d="M1862.82,460.9c-.13-24.09-.2-48.18-.25-72.27-.05-24-.06-48-.07-72,0-13.66,0-27.32,0-40.98,0-1.93-3-1.93-3,0,0,24.2,0,48.39,.01,72.59,.02,23.97,.06,47.94,.13,71.91,.04,13.58,.1,27.17,.17,40.75,.01,1.93,3.01,1.93,3,0h0Z"/>
    </g>
    <g>
      <g>
        <path class="cls-6" d="M1171.04,757.2c.2-10.73,.21-21.79,0-33.16-.14-7.51-.37-14.87-.69-22.09"/>
        <circle class="cls-10" cx="1171.04" cy="729.58" r="4.83"/>
        <path class="cls-10" d="M1193.13,818.67h-42.82l8.98-50.76c0-7.06,5.72-12.78,12.78-12.78h0c7.06,0,12.78,5.72,12.78,12.78l8.29,50.76Z"/>
        <ellipse class="cls-10" cx="1171.73" cy="818.67" rx="21.41" ry="4.83"/>
      </g>
      <path class="cls-19" d="M1139.96,584.56v-8.4c0-3.52,2.58-6.51,6.07-7.02,7.21-1.04,15.37-1.99,24.32-1.85,8.4,.13,16.08,.82,22.9,1.79,3.5,.5,6.1,3.49,6.1,7.02v9.14c-19.8-.23-39.59-.46-59.39-.69Z"/>
      <path class="cls-19" d="M1140.65,702.63v8.4c0,3.52,2.58,6.51,6.07,7.02,7.21,1.04,15.37,1.99,24.32,1.85,8.4-.13,16.08-.82,22.9-1.79,3.5-.5,6.1-3.49,6.1-7.02v-9.14c-19.8,.23-39.59,.46-59.39,.69Z"/>
      <ellipse class="cls-10" cx="1170" cy="645.33" rx="77" ry="65.61"/>
      <path class="cls-19" d="M1169.36,577.01c.66,7.29,.96,14.61,.89,21.93,0,.97,1.49,.97,1.5,0,.07-7.32-.22-14.64-.89-21.93-.09-.95-1.59-.96-1.5,0h0Z"/>
      <path class="cls-19" d="M1170.27,607.21c-.2,1.43-.11,2.87,.34,4.25,.12,.37,.53,.65,.92,.52,.37-.12,.65-.52,.52-.92-.09-.29-.18-.59-.24-.89-.03-.16-.06-.33-.09-.49-.04-.23,.01,.15-.01-.08,0-.08-.02-.16-.03-.25-.03-.31-.04-.61-.03-.92,0-.15,.01-.31,.02-.46,0-.07,.01-.14,.02-.21,0-.03,.04-.31,.02-.15,.03-.21,.04-.39-.08-.58-.09-.16-.27-.3-.45-.34-.35-.08-.87,.11-.92,.52h0Z"/>
      <path class="cls-19" d="M1170.7,618.95c-.2,21.95-.39,43.89-.59,65.84-.06,6.15-.11,12.3-.17,18.45,0,.97,1.49,.97,1.5,0,.2-21.95,.39-43.89,.59-65.84,.06-6.15,.11-12.3,.17-18.45,0-.97-1.49-.97-1.5,0h0Z"/>
      <path class="cls-19" d="M1147.35,581.47c-12.2,13.81-20.58,30.88-24.07,48.97-.98,5.1-1.58,10.27-1.78,15.45-.04,.97,1.46,.96,1.5,0,.72-18.09,6.38-35.87,16.15-51.11,2.77-4.32,5.87-8.41,9.27-12.26,.64-.72-.42-1.79-1.06-1.06h0Z"/>
      <path class="cls-19" d="M1122.11,654.74v6.54c0,.97,1.5,.97,1.5,0v-6.54c0-.97-1.5-.97-1.5,0h0Z"/>
      <path class="cls-19" d="M1123.6,669.37c.7,9.48,2.87,18.79,6.46,27.59,.36,.88,1.81,.5,1.45-.4-3.54-8.67-5.72-17.84-6.41-27.19-.07-.96-1.57-.96-1.5,0h0Z"/>
      <path class="cls-19" d="M1191.01,580.32c7.17,4.9,12.82,11.79,16.29,19.75,.38,.88,1.68,.12,1.3-.76-3.57-8.2-9.45-15.25-16.83-20.29-.8-.55-1.55,.75-.76,1.3h0Z"/>
      <path class="cls-19" d="M1213.08,612.18l2.21,5.81c.14,.38,.51,.64,.92,.52,.36-.1,.67-.54,.52-.92l-2.21-5.81c-.14-.38-.51-.64-.92-.52-.36,.1-.67,.54-.52,.92h0Z"/>
      <path class="cls-19" d="M1219.55,633.07c2.03,17.6,2.1,36.01-4.84,52.63-1.81,4.33-4.09,8.44-6.83,12.25-.56,.78,.74,1.53,1.3,.76,10.27-14.26,13.44-32.16,13.06-49.42-.12-5.42-.57-10.83-1.19-16.21-.11-.95-1.61-.96-1.5,0h0Z"/>
      <path class="cls-19" d="M1171.85,327.14c0-14.21,0-28.42,0-42.64,0-1.93-3-1.93-3,0,0,14.21,0,28.42,0,42.64,0,1.93,3,1.93,3,0h0Z"/>
      <path class="cls-19" d="M1171.85,371.16c0-7.06,0-14.12,0-21.18,0-1.93-3-1.93-3,0,0,7.06,0,14.12,0,21.18,0,1.93,3,1.93,3,0h0Z"/>
      <path class="cls-19" d="M1171.85,419.28c0-8.33,0-16.67,0-25,0-1.93-3-1.93-3,0,0,8.33,0,16.67,0,25,0,1.93,3,1.93,3,0h0Z"/>
      <path class="cls-19" d="M1172.07,569.3c-.09-16.61-.14-33.21-.17-49.82-.03-16.6-.04-33.2-.05-49.8,0-9.44,0-18.87,0-28.31,0-1.93-3-1.93-3,0,0,16.68,0,33.36,0,50.04,.01,16.58,.04,33.16,.09,49.74,.03,9.38,.07,18.77,.12,28.15,.01,1.93,3.01,1.93,3,0h0Z"/>
    </g>
    <g class="cls-11">
      <path class="cls-12" d="M1855.41,487.54c.93-.75,3.06,.43,4.86,1.68,2.16,2.8,4.32,5.61,6.49,8.41,4.96,5.15,13.52,12.81,25.94,18.5,20.45,9.37,38.77,7.62,47.02,6.73,7.89-.86,17.69-4.5,37.29-11.77,6.35-2.36,11.93-4.64,16.21-10.09,1.72-2.19,3.73-5.53,6.49-10.09,2.1-3.49,3.76-6.42,4.86-8.41-.54-3.36-1.08-6.73-1.62-10.09-.54-1.12-1.08-2.24-1.62-3.36-.09-.19-.18-.37-.27-.56-1.34-2.79-.04-6.46,3.59-7.37-.08-.48-3.32-3.84-4.57-5.65-1.11-1.61-1.7-3.5-.38-4.92,2.47-2.63,6.25-1.74,6.49-1.68-1.33-1.62-3.78-5.03-4.86-10.09-.94-4.4-.43-8.07,0-10.09,.05-.09,.22-.36,.48-.71,.92,.54,1.87,1.03,2.89,1.34,2.63,.81,5.47,.64,7.75-.96,.08,.11,.16,.21,.23,.33,1.36-.67,3.1-1.73,4.86-3.36,2.6-2.41,4.07-5.02,4.86-6.73-.12-2.87,.01-8.82,3.24-15.14,2.06-4.03,4.64-6.76,6.49-8.41,.94-4.39,1.75-10.12,1.62-16.82-.16-8.37-1.73-15.28-3.24-20.19-4.52-4.24-9.64-9.79-14.59-16.82-3.33-4.74-5.99-9.31-8.11-13.46-1.16,.24-8.3,1.58-14.59-3.36-4.58-3.6-6.06-8.45-6.49-10.09-2.36-.35-5.91-1.19-9.73-3.36-2.89-1.64-5.02-3.53-6.49-5.05-5.59-.41-13.62-1.58-22.7-5.05-6.79-2.6-13.21-5.05-12.97-6.73,.54-3.84,36.32-7.09,63.23,1.68,46.34,15.11,90.14,73.49,84.31,139.62-5.16,58.56-47.88,107.49-98.9,119.43-48.06,11.25-91.01-13.25-103.77-25.23-2.94-2.76-10.98-11.16-17.83-23.55-.89-1.61-9.03-16.46-6.49-18.5Z"/>
      <path class="cls-9" d="M2082.4,400.07c-2.13-2.24-8.75-10.82-12.97-15.14-9.06-9.26-11.08-10.94-12.97-15.14-1.35-3-1.98-6.48-3.24-13.46-1.62-8.91-1.02-10.91-3.24-13.46-2.95-3.37-7.93-4.37-11.35-5.05-4.48-.89-6.12-.17-8.11-1.68-2.89-2.2-3.32-6.69-3.24-10.09-.02-.93-.18-3.07-1.62-5.05-2.81-3.86-7.78-3.4-8.11-3.36-1.35,1.01-4.84,3.34-9.73,3.36-1.45,0-5.91-.17-9.73-3.36-1.34-1.12-3.64-3.04-3.24-5.05,.37-1.86,2.98-3.38,6.49-3.36-.11-1.07-.59-4.39-3.24-6.73-2.35-2.07-6.54-3.49-8.11-1.68-.32,.37-.49,.84-.57,1.33-.36,2.31-2.14,4.08-4.39,4-.98-.03-2.03-.12-3.14-.29-4.71-.72-7.72-2.47-9.73-3.36-3.77-1.67-9.81-2.85-19.46,0-3.35-1.44-7.74-3.22-12.97-5.05-6.2-2.16-9.28-2.9-9.73-5.05-.61-2.96,4.28-6.33,4.86-6.73,7.43-5.02,16.51-2.78,22.7-1.68,17.44,3.09,18.75-1.74,35.67,0,33.47,3.44,57.53,25.3,64.85,31.96,12.35,11.22,21.82,19.83,25.94,35.32,5.29,19.9,1.36,42.44-1.62,48.78Z"/>
      <path class="cls-9" d="M2074.29,470.72c-1.85-1.07-4.63-.09-4.86,0-5.1,1.87-6.34,9.15-6.49,10.09-1.37-.67-3.63-1.55-6.49-1.68-2.09-.09-7.68-.34-9.73,3.36-1.41,2.56-.41,5.65,0,6.73-.71,2.8-2.08,7.11-4.86,11.77-2.33,3.9-5.42,9.09-11.35,11.77-3.66,1.66-10.62,3.36-12.97,0-1.46-2.09-.53-5.26,0-6.73,1.47-2.85,.78-6.4-1.62-8.41-2.34-1.96-5.73-1.97-8.11,0-4.87,2.88-10.46,6.7-16.21,11.77-7.98,7.04-13.77,14.25-17.83,20.19-.25-1.84-1.63-3.22-3.24-3.36-1.25-.11-2.49,.55-3.24,1.68,.35-4.54-.69-6.1-1.62-6.73-1.79-1.21-9.1-.43-21.08,10.09-4.55,3.99-6.72,4.26-9.73,5.05-1.87,.49-10.45,2.72-14.59-1.68-2.69-2.86-1.32-6.21-4.86-10.09-1.66-1.82-3.54-2.81-4.86-3.36-16.3-14.57-30.25-25.75-40.53-33.64-10.03-7.7-17.06-12.64-21.08-10.09-5.35,3.4-2.12,18.04-1.62,20.19,2.81,12.13,9.8,20.09,12.97,23.55,18.72,20.47,35.17,38.46,64.85,47.1,24.4,7.1,44.2,3.94,58.37,1.68,15.07-2.41,36.06-5.75,56.75-21.87,19.41-15.11,27.36-32.74,29.18-37.01,6.71-15.68,10.42-37.14,4.86-40.37Z"/>
    </g>
    <g>
      <path class="cls-16" d="M2001.85,470.01c1.88,3.87,2.54,8.26,1.86,12.51-.08,.47,.65,.68,.72,.2,.71-4.46,.04-9.03-1.94-13.09-.21-.43-.86-.05-.65,.38h0Z"/>
      <path class="cls-16" d="M2016.77,497.04c-.65-.65-1.51-1.05-2.42-1.16-.2-.02-.38,.19-.38,.38,0,.22,.17,.35,.38,.38,.03,0,.04,0,0,0,.02,0,.05,0,.07,.01,.05,0,.1,.02,.15,.03,.09,.02,.18,.04,.27,.07,.09,.03,.19,.06,.28,.09,.02,0,.04,.02,.06,.03-.04-.01-.02,0,0,0,.05,.02,.1,.04,.14,.07,.17,.08,.34,.18,.49,.29,.02,.01,.11,.08,.06,.05,.04,.03,.07,.06,.11,.09,.08,.07,.16,.14,.23,.21,.14,.14,.39,.15,.53,0s.15-.38,0-.53h0Z"/>
      <path class="cls-16" d="M2011.11,495.67c-16.49,5.77-27.67,19.97-36.19,34.56-.24,.42,.4,.8,.65,.38,8.41-14.41,19.45-28.51,35.75-34.21,.45-.16,.26-.88-.2-.72h0Z"/>
      <path class="cls-16" d="M1975.69,530.76c-.18-1.73-1.2-3.33-2.75-4.16-1.64-.88-3.7-.79-5.28,.19-.41,.25-.03,.9,.38,.65,1.35-.83,3.11-.94,4.52-.19,1.3,.7,2.22,2.05,2.37,3.51,.05,.47,.8,.48,.75,0h0Z"/>
      <path class="cls-16" d="M1967.82,527.13c1.04-3.05-1.69-6.04-4.63-6.5-4.15-.65-7.99,2.38-11.14,4.64-6.58,4.73-13.28,10.65-21.62,11.75-4.98,.66-11.89-.97-12.29-7.06-.03-.48-.78-.48-.75,0,.24,3.67,3.06,6.4,6.47,7.42,3.74,1.12,7.92,.48,11.53-.82,7.68-2.77,13.6-8.62,20.37-12.93,2.22-1.41,5.02-2.86,7.73-2.18,2.35,.58,4.46,2.99,3.61,5.48-.16,.46,.57,.65,.72,.2h0Z"/>
      <path class="cls-16" d="M1916.76,526.55c-.96-2.04-2.7-3.64-4.78-4.48-.19-.08-.41,.08-.46,.26-.06,.21,.07,.38,.26,.46,1.9,.78,3.46,2.29,4.33,4.14,.09,.18,.35,.23,.51,.13,.19-.11,.22-.33,.13-.51h0Z"/>
      <path class="cls-16" d="M1913.99,527.3c-2.02-2.27-4.98-3.6-8.02-3.62-.48,0-.48,.75,0,.75,2.85,.02,5.59,1.28,7.49,3.4,.32,.36,.85-.17,.53-.53h0Z"/>
      <path class="cls-16" d="M2007.88,501.04c-12.4,7.05-22.08,18.41-27.09,31.75-.17,.45,.55,.65,.72,.2,4.95-13.16,14.53-24.36,26.75-31.31,.42-.24,.04-.89-.38-.65h0Z"/>
      <path class="cls-16" d="M1987,526.71c-.95,1.2-1.75,2.49-2.38,3.88-.08,.18-.05,.4,.13,.51,.16,.09,.43,.05,.51-.13,.6-1.33,1.36-2.59,2.27-3.73,.13-.16,.15-.38,0-.53-.13-.13-.4-.16-.53,0h0Z"/>
      <path class="cls-16" d="M1972.09,534.23c.13-1.22-.44-2.46-1.42-3.19-1.03-.77-2.44-.85-3.6-.33-.18,.08-.23,.35-.13,.51,.11,.19,.33,.22,.51,.13,.91-.42,2.05-.29,2.84,.33s1.15,1.59,1.05,2.54c-.02,.2,.19,.38,.38,.38,.22,0,.35-.17,.38-.38h0Z"/>
      <g>
        <path d="M2026.46,432.87c1.06,2.41,3.96,3.32,9.73,5.05,5.39,1.61,9.43,2.8,11.35,3.36,1.62,1.12,3.24,2.24,4.86,3.36-.77-1.91-2.2-4.62-4.86-6.73-2.37-1.87-4.77-2.51-8.11-3.36-6.25-1.6-9.13-.82-11.35-3.36-1-1.15-1.42-2.46-1.62-3.36-.41,1.29-.79,3.24,0,5.05Z"/>
        <path d="M2053.22,428.66c-1.62-1.68-3.24-3.36-4.86-5.05-1.08-1.12-2.16-2.24-3.24-3.36-2.54-.92-5.26-2.02-8.11-3.36-2.34-1.1-4.5-2.23-6.49-3.36-.1-.22-.76-1.77,0-3.36,.49-1.03,1.31-1.51,1.62-1.68,1.45,.33,3.11,.85,4.86,1.68,5.03,2.4,8.12,6.1,9.73,8.41,2.16,3.36,4.32,6.73,6.49,10.09Z"/>
        <path class="cls-16" d="M2029.99,357.92c4,11.46,4.92,23.84,2.64,35.76-.09,.47,.63,.67,.72,.2,2.31-12.05,1.4-24.57-2.64-36.16-.16-.45-.88-.26-.72,.2h0Z"/>
        <path class="cls-16" d="M2033.17,393.43c-7.48,5.68-11.75,15.02-11.06,24.4,.04,.48,.79,.48,.75,0-.67-9.1,3.41-18.23,10.69-23.75,.38-.29,0-.94-.38-.65h0Z"/>
        <path class="cls-16" d="M2037.54,373.25c1.24,5.59,1.52,11.34,.86,17.03-.06,.48,.7,.47,.75,0,.67-5.76,.36-11.58-.89-17.23-.1-.47-.83-.27-.72,.2h0Z"/>
        <path class="cls-16" d="M2037.82,394.76s0,.02,.01,.03l-.04-.09s.03,.09,.04,.14v-.1c0,.06,0,.11-.01,.17v-.1c0,.06-.01,.12-.03,.17l.04-.09s-.05,.09-.08,.14l.06-.08s-.06,.07-.1,.1l.08-.06s-.04,.03-.06,.04c-.08,.05-.15,.13-.17,.22s-.01,.21,.04,.29,.13,.15,.22,.17,.2,.01,.29-.04c.22-.13,.37-.34,.44-.58,.02-.07,.03-.13,.04-.2,0-.04,0-.08,0-.13,0-.15-.04-.27-.11-.4-.04-.08-.14-.15-.22-.17-.09-.02-.21-.01-.29,.04s-.15,.13-.17,.22v.1c-.01,.07,0,.13,.04,.19h0Z"/>
        <path class="cls-16" d="M2030.31,357.2c-9.06-8.2-16.55-18.02-22.06-28.93-.22-.43-.87-.05-.65,.38,5.54,10.96,13.08,20.84,22.18,29.08,.36,.32,.89-.21,.53-.53h0Z"/>
        <path class="cls-16" d="M2010.58,326.97c-5,1.64-10.59,1.18-15.17-1.46-1.99-1.15-3.76-2.68-5.19-4.47-.75-.93-1.4-1.93-1.96-2.99-.2-.39-1.74-3.2-1.28-3.54,.38-.29,0-.94-.38-.65-.77,.58-.29,1.55,0,2.3,.44,1.18,.99,2.32,1.66,3.39,1.42,2.3,3.32,4.29,5.54,5.83,4.93,3.4,11.33,4.18,16.99,2.32,.46-.15,.26-.87-.2-.72h0Z"/>
        <path class="cls-16" d="M2013.16,328.81c5.05,4.02,9.41,8.86,12.88,14.31,.26,.41,.91,.03,.65-.38-3.5-5.5-7.89-10.4-12.99-14.46-.37-.3-.91,.23-.53,.53h0Z"/>
        <path class="cls-16" d="M2056.5,450.62c-6.91,.94-13.3,4.71-17.41,10.35-4.34,5.97-5.8,13.74-4.16,20.91,.11,.47,.83,.27,.72-.2-1.6-6.98-.14-14.53,4.09-20.33,4-5.49,10.26-9.1,16.97-10.01,.48-.06,.27-.79-.2-.72h0Z"/>
        <path class="cls-16" d="M2035.69,486.01c.37,.71,.73,1.42,1.1,2.13,.09,.17,.35,.24,.51,.13,.18-.11,.23-.33,.13-.51-.37-.71-.73-1.42-1.1-2.13-.09-.17-.35-.24-.51-.13-.18,.11-.23,.33-.13,.51h0Z"/>
        <path class="cls-16" d="M2045.15,460.67c-5.74,5.34-8.3,13.59-6.62,21.24,.1,.47,.83,.27,.72-.2-1.62-7.4,.89-15.36,6.43-20.51,.35-.33-.18-.86-.53-.53h0Z"/>
        <path class="cls-16" d="M2035.06,446.64c-4.35-1.28-8.23-3.87-11.09-7.38-.31-.37-.83,.16-.53,.53,2.94,3.61,6.95,6.26,11.42,7.57,.46,.14,.66-.59,.2-.72h0Z"/>
        <path class="cls-16" d="M2024.79,444.07c-.89-.89-1.78-1.78-2.68-2.68-.34-.34-.87,.19-.53,.53,.89,.89,1.78,1.78,2.68,2.68,.34,.34,.87-.19,.53-.53h0Z"/>
        <path class="cls-16" d="M2080.05,396.39c-5.96-5.48-11.94-11.02-16.84-17.49-2.37-3.14-4.47-6.5-6.1-10.09-1.82-4.01-2.87-8.28-3.71-12.59-.96-4.93-1.7-9.9-3.21-14.71-.14-.46-.87-.26-.72,.2,2.69,8.56,2.94,17.73,6.39,26.07,3.04,7.35,8.02,13.67,13.49,19.37,3.26,3.39,6.71,6.59,10.17,9.77,.35,.33,.89-.2,.53-.53h0Z"/>
        <path class="cls-16" d="M2046.89,339.64c-3.78-1.05-7.75-.76-11.56-1.65-3.54-.83-7.29-3.15-7.52-7.16-.03-.48-.78-.48-.75,0,.21,3.67,3.16,6.27,6.45,7.42,4.25,1.48,8.87,.92,13.18,2.12,.47,.13,.66-.59,.2-.72h0Z"/>
        <path class="cls-16" d="M2027.54,327.59c.35-.7,.33-1.55-.08-2.22-.1-.17-.34-.25-.51-.13s-.24,.33-.13,.51c.04,.07,.08,.14,.11,.21,.02,.04,.02,.04,0,0,0,.02,.01,.04,.02,.05,.01,.04,.03,.07,.04,.11,.02,.07,.03,.13,.05,.2,0,.02,0,.04,0,.06,0-.05,0-.06,0-.01,0,.04,0,.08,0,.12,0,.08,0,.16,0,.23,0,.01,0,.08,0,.09,0-.05,0-.06,0-.01,0,.02,0,.04-.01,.06-.02,.08-.03,.15-.06,.23-.01,.04-.02,.08-.04,.11,.05-.09-.01,.03-.02,.04-.09,.18-.05,.41,.13,.51,.17,.09,.42,.05,.51-.13h0Z"/>
        <path class="cls-16" d="M2025.81,322.3c-.32-2.72-3.1-4.14-5.64-4.08-1.98,.05-3.83,.94-5.63,1.68-2.02,.84-4.03,1.42-6.24,1.42-4.2,0-8.64-1.75-11.91-4.36-1.71-1.37-3.27-3.55-1.82-5.69s4.14-2.31,6.41-2.48c.48-.04,.48-.79,0-.75-2.73,.21-6.12,.63-7.4,3.46-1.14,2.52,.76,4.87,2.69,6.31,2.73,2.04,6.08,3.52,9.44,4.04s6.46-.15,9.63-1.48c1.8-.75,3.74-1.6,5.73-1.35,1.81,.23,3.75,1.3,3.99,3.28,.06,.47,.81,.48,.75,0h0Z"/>
        <path class="cls-16" d="M2014.18,317.2c-3.93,1.79-8.78,1.12-12.08-1.65-.37-.31-.9,.22-.53,.53,3.59,3.01,8.73,3.7,12.99,1.77,.44-.2,.06-.85-.38-.65h0Z"/>
        <path class="cls-16" d="M1999.54,312.31c-.12,.03-.22,.09-.31,.17-.04,.04-.08,.09-.11,.13-.02,.02-.03,.05-.05,.08-.05,.11-.08,.22-.09,.35s.03,.24,.08,.35c.02,.04,.06,.08,.1,.11,.04,.03,.08,.06,.13,.07,.05,.02,.1,.02,.15,0,.05,0,.1-.02,.14-.04,.08-.05,.15-.13,.17-.22v-.1c.01-.07,0-.13-.04-.19,0,0,0-.01,0-.02l.04,.09s-.02-.05-.02-.08v.1s0-.07,.01-.1v.1s0-.07,.02-.11l-.04,.09s.03-.06,.05-.09l-.06,.08s.04-.05,.07-.07l-.08,.06s.05-.03,.07-.04l-.09,.04s.03-.01,.05-.02c.09-.02,.18-.09,.22-.17,.03-.04,.04-.09,.04-.14,.01-.05,0-.1,0-.15-.03-.09-.09-.18-.17-.22s-.19-.06-.29-.04h0Z"/>
        <path class="cls-16" d="M2000.49,304.95c-1.42-1.76-2.94-3.63-5.06-4.58-1.84-.82-4.12-.91-5.77,.37-.38,.29,0,.94,.38,.65,1.57-1.21,3.75-1.05,5.44-.16,1.85,.98,3.19,2.66,4.48,4.25,.3,.38,.83-.16,.53-.53h0Z"/>
        <path class="cls-16" d="M1988.64,301.05c.48,1.68-.62,3.35-2.12,4.08-1.74,.84-3.82,.52-5.62,.06-3.43-.88-6.62-2.48-9.43-4.63-.38-.29-.76,.36-.38,.65,3.29,2.52,7.36,4.54,11.51,5.08,1.8,.24,3.77,.07,5.22-1.12,1.27-1.05,2-2.69,1.53-4.32-.13-.46-.86-.27-.72,.2h0Z"/>
        <path class="cls-16" d="M1970.33,300.65c-5.61-.98-11.38-.5-16.75,1.42-.45,.16-.26,.89,.2,.72,5.23-1.87,10.87-2.37,16.35-1.42,.47,.08,.67-.64,.2-.72h0Z"/>
        <path class="cls-16" d="M2021.92,418.55c-.34,1.8-1.47,3.21-2.72,4.49s-2.67,2.58-4.16,3.67c-3.01,2.19-6.73,3.63-10.47,2.76-.47-.11-.67,.61-.2,.72,3.94,.91,7.87-.53,11.05-2.84,1.59-1.15,3.05-2.49,4.42-3.89s2.46-2.84,2.81-4.72c.09-.47-.63-.67-.72-.2h0Z"/>
        <path class="cls-16" d="M2004.13,429.28c-.76-.42-1.95-1.45-2.88-1.28-.77,.13-1.06,.93-1.19,1.61-.47,2.36-.4,4.88-.05,7.25s1.1,4.78,2.17,6.97c.55,1.13,1.2,2.21,1.93,3.23,.38,.53,.85,1.46,1.63,1.03,.22-.12,.23-.41,.08-.59l-.06-.07c-.32-.36-.85,.17-.53,.53l.06,.07,.08-.59c-.35,.2-2.59-4.11-2.8-4.57-.77-1.69-1.33-3.47-1.67-5.29s-.46-3.58-.36-5.38c.04-.86,.08-1.79,.3-2.62,.13-.48,.11-.55,.67-.6,.49-.05,.53-.01,.92,.2l1.34,.75c.42,.24,.8-.41,.38-.65h0Z"/>
        <path class="cls-16" d="M2004.46,439.51c2.72,2.15,4.78,5.07,5.86,8.37l.55-.42c-3.02-1.68-5.18-4.64-5.88-8.03-.1-.47-.82-.27-.72,.2,.73,3.56,3.05,6.71,6.23,8.47,.27,.15,.66-.1,.55-.42-1.12-3.42-3.23-6.47-6.06-8.7-.37-.3-.91,.23-.53,.53h0Z"/>
        <path class="cls-16" d="M2005.47,441.04c.86,1.13,1.59,2.36,2.21,3.63,.15,.31,.3,.63,.43,.94,.11,.24,.24,.53,.54,.57,.34,.04,.5-.29,.39-.57-.06-.14-.15-.28-.24-.4-.27-.39-.93-.02-.65,.38,.04,.06,.08,.12,.12,.18,.02,.03,.04,.07,.06,.11,.06,.08,0,0,0-.06l.19-.32h0c.1,0,.19-.02,.29-.03,.1,.03,.05,0,.01-.1-.05-.1-.09-.21-.14-.31-.1-.22-.2-.45-.31-.67-.21-.44-.43-.87-.67-1.29-.47-.84-.99-1.65-1.58-2.42-.12-.16-.32-.25-.51-.13-.16,.09-.26,.35-.13,.51h0Z"/>
        <path class="cls-16" d="M2015.09,443.73c.63,1.12,1.42,2.57,.84,3.87-.42,.94-1.41,1.41-2.37,1.61-2.43,.53-5.18-.34-7.27-1.55-.42-.24-.8,.41-.38,.65,1.38,.8,2.88,1.36,4.46,1.62,1.3,.22,2.65,.28,3.91-.13,1.06-.34,2.01-1.01,2.41-2.09,.55-1.5-.23-3.07-.95-4.36-.24-.42-.88-.04-.65,.38h0Z"/>
        <path class="cls-16" d="M1999.42,450.87c3.96,5.68,9.32,10.3,15.54,13.34,.43,.21,.81-.44,.38-.65-6.11-2.98-11.39-7.49-15.27-13.07-.27-.39-.92-.02-.65,.38h0Z"/>
        <path class="cls-16" d="M2013.35,462.55c-2.88-.81-5.72-1.75-8.52-2.83-.45-.17-.65,.55-.2,.72,2.79,1.08,5.64,2.02,8.52,2.83,.47,.13,.66-.59,.2-.72h0Z"/>
        <path class="cls-16" d="M2000.13,452.81c1.7,3.01,4.01,5.62,6.76,7.7,.39,.29,.76-.36,.38-.65-2.65-2-4.86-4.55-6.49-7.43-.24-.42-.89-.04-.65,.38h0Z"/>
        <path class="cls-16" d="M2053.17,372.09c4.11,9.09,10.17,17.21,17.7,23.75,.36,.32,.9-.21,.53-.53-7.49-6.5-13.49-14.56-17.58-23.6-.2-.44-.85-.06-.65,.38h0Z"/>
        <path class="cls-16" d="M2077.05,400.5c.54,.36,1.07,.71,1.61,1.07,.16,.11,.42,.04,.51-.13,.1-.19,.04-.4-.13-.51-.54-.36-1.07-.71-1.61-1.07-.16-.11-.42-.04-.51,.13-.1,.19-.04,.4,.13,.51h0Z"/>
        <path class="cls-16" d="M2064.04,362.58c.61,1.48,1.4,3.43,.15,4.81s-3.02-.08-4.07-1c-1.13-1-2.09-2.22-2.71-3.6-.59-1.3-.96-2.99-.55-4.4,.25-.85,1.74-.38,2.34-.16,.87,.32,1.61,.87,2.19,1.58,.31,.37,.84-.16,.53-.53-.61-.74-1.4-1.32-2.29-1.68-.76-.31-1.79-.58-2.61-.37-.9,.23-.99,1.23-1.04,2.01-.06,.9,.05,1.81,.31,2.67,.54,1.83,1.66,3.47,3.05,4.77,1.19,1.11,3.11,2.75,4.8,1.71,2.19-1.34,1.41-4.11,.62-6.02-.18-.44-.91-.25-.72,.2h0Z"/>
        <path class="cls-16" d="M2037.96,329.02c.39,.83-.57,1.72-1.35,1.78-1.04,.08-1.92-.8-2.41-1.61-.9-1.49-1.24-4.3,.87-4.94,.8-.24,1.77-.09,2.18,.7,.22,.43,.87,.05,.65-.38-.52-.98-1.67-1.31-2.7-1.13-1.17,.21-2.02,1.08-2.33,2.21-.36,1.32,0,2.81,.71,3.96,.65,1.05,1.8,2.06,3.12,1.93s2.53-1.57,1.91-2.9c-.2-.44-.85-.06-.65,.38h0Z"/>
        <path class="cls-16" d="M1984.23,300.21c-2.11,2.11-6.07,1.88-7.88-.53-.29-.38-.94,0-.65,.38,2.09,2.79,6.57,3.16,9.05,.68,.34-.34-.19-.87-.53-.53h0Z"/>
        <path class="cls-16" d="M1983.21,296.19c-1.23-1.15-3.19-1.21-4.5-.18-.16,.12-.13,.4,0,.53,.16,.16,.37,.12,.53,0,.99-.77,2.54-.67,3.44,.18,.35,.33,.88-.2,.53-.53h0Z"/>
        <path class="cls-16" d="M2040.04,342.48c-4.41,.31-8.79-1.39-11.84-4.59-.33-.35-.86,.18-.53,.53,3.17,3.33,7.78,5.13,12.37,4.81,.48-.03,.48-.78,0-.75h0Z"/>
        <path class="cls-16" d="M2004.35,460c-2.18,.56-3.99,2.36-4.47,4.57s.47,4.75,2.34,6.17c.38,.29,.76-.36,.38-.65-1.63-1.24-2.46-3.46-1.97-5.46s2.02-3.43,3.91-3.91c.47-.12,.27-.84-.2-.72h0Z"/>
        <path class="cls-16" d="M2074.19,469.69c-2.53-.78-5.37-.12-7.34,1.63-2.4,2.13-2.9,5.69-3.67,8.63-.12,.47,.6,.67,.72,.2,.39-1.49,.74-2.99,1.2-4.45,.43-1.34,1.03-2.65,2.06-3.65,1.78-1.72,4.47-2.37,6.83-1.64,.46,.14,.66-.58,.2-.72h0Z"/>
        <path class="cls-16" d="M2063.77,479.88c-4.13-2.32-9.26-2.29-13.34,.12-1.9,1.13-3.76,2.61-4.5,4.77-.68,1.96-.43,4.16,.66,5.92,.25,.41,.9,.03,.65-.38-1.02-1.67-1.21-3.75-.5-5.58,.78-2,2.75-3.39,4.58-4.38,3.75-2.02,8.37-1.92,12.07,.17,.42,.24,.8-.41,.38-.65h0Z"/>
        <path class="cls-16" d="M2046.75,490.55c-1.14,3.61-2.96,6.94-5.11,10.05-2.03,2.95-4.29,5.82-6.88,8.3s-5.52,4.46-8.98,5.22c-3.66,.81-8.98-.46-8.88-5.11,.07-3.24,2.61-6.21,1.19-9.47-.19-.44-.84-.06-.65,.38,1.46,3.36-1.85,6.76-1.21,10.24s4.13,5.05,7.28,4.99c7.55-.13,13.22-6.7,17.37-12.25,2.78-3.71,5.17-7.72,6.57-12.16,.15-.46-.58-.66-.72-.2h0Z"/>
        <path class="cls-16" d="M2059.42,482.22c-2.42-.56-5.07,.17-6.82,1.95s-2.42,4.45-1.81,6.86c.12,.47,.84,.27,.72-.2-.54-2.14,.06-4.54,1.62-6.13s3.93-2.26,6.09-1.76c.47,.11,.67-.61,.2-.72h0Z"/>
        <path class="cls-16" d="M2074.68,451.41c-3.29-.71-6.64-1.13-10.01-1.23-.48-.01-.48,.74,0,.75,3.3,.1,6.58,.5,9.81,1.2,.47,.1,.67-.62,.2-.72h0Z"/>
        <path class="cls-16" d="M2004.32,459.4c-1.37-1-2.56-2.26-3.48-3.69-.44-.68-.84-1.41-1.14-2.17-.27-.68-.52-1.61,.04-2.21,.33-.35-.2-.89-.53-.53-1.29,1.4-.03,3.61,.77,4.94,1.02,1.69,2.38,3.15,3.97,4.32,.39,.29,.76-.37,.38-.65h0Z"/>
        <path class="cls-16" d="M1943.82,291.79c23.47-3.73,47.52,.24,68.66,11.03,13.09,6.68,24.97,15.71,35.04,26.41,14.89,15.82,24.99,35.52,30.25,56.52,3.54,14.14,5.04,28.85,4.46,43.41-.43,10.95-2.11,21.9-4.99,32.47-5.73,21.04-16.49,40.57-31.66,56.29-9.3,9.63-20.1,17.88-31.81,24.37-18.82,10.44-39.97,15.82-61.51,15.22-17.11-.47-34.08-3.91-49.49-11.56-21.44-10.64-38.37-28.83-48.12-50.62-1.47-3.29-2.77-6.66-3.92-10.07-.15-.46-.88-.26-.72,.2,6.76,20.19,19.29,38.31,36.32,51.2,16.57,12.54,36.72,19.41,57.32,21.14,19.51,1.64,39.01-.96,57.16-8.44,14.91-6.15,28.63-15.15,40.42-26.13,14.09-13.13,25.03-29.4,32.06-47.32,5.19-13.24,8.2-27.22,9.35-41.37,.98-12.13,.35-24.44-1.59-36.45-3.26-20.2-10.62-39.82-22.5-56.55-9.19-12.94-20.99-24.07-34.27-32.74-19.32-12.6-41.98-19.65-65.11-19.16-5.22,.11-10.42,.6-15.57,1.42-.48,.08-.27,.8,.2,.72h0Z"/>
        <path class="cls-16" d="M1986.32,313.64c-5.73-.29-11.18-2.92-14.99-7.2-.32-.36-.85,.17-.53,.53,3.94,4.43,9.6,7.12,15.52,7.42,.48,.02,.48-.73,0-.75h0Z"/>
        <path class="cls-16" d="M1971.31,306.81c-7.4-1.11-14.7-2.77-21.85-4.99-3.47-1.08-7.02-2.18-10.34-3.68-1.4-.63-3.12-1.52-3.88-2.93s.46-1.69,1.48-1.94,1.96-.48,2.94-.72c.47-.12,.27-.84-.2-.72-1.13,.28-2.26,.55-3.39,.83-.59,.15-1.25,.3-1.65,.79-.84,1.01,.19,2.31,.9,3.06,2.39,2.55,6.49,3.53,9.67,4.63,8.49,2.93,17.23,5.05,26.11,6.39,.47,.07,.68-.65,.2-.72h0Z"/>
      </g>
      <path class="cls-16" d="M1912.42,522.16c-9.53-1.41-18.61-5.55-26.75-10.59-8.33-5.16-15.56-11.77-22.11-19.02-3.86-4.27-7.49-8.74-11.06-13.26-.3-.38-.83,.16-.53,.53,6.43,8.14,13.1,16.15,20.86,23.07,7.19,6.4,15.39,11.69,24.24,15.49,4.85,2.09,9.92,3.73,15.16,4.5,.47,.07,.68-.65,.2-.72h0Z"/>
      <path class="cls-16" d="M2003.18,482.75c-4.11,6.78-8.23,13.56-12.34,20.34-.25,.41,.4,.79,.65,.38,4.11-6.78,8.23-13.56,12.34-20.34,.25-.41-.4-.79-.65-.38h0Z"/>
      <path class="cls-16" d="M1990.52,503.66c-9.11,4.25-18.4,8.16-27.79,11.74-4.36,1.66-8.76,3.3-13.26,4.53-5.3,1.44-10.84,2.28-16.3,2.87-6.81,.73-14.06,1.15-20.74-.64-.47-.12-.67,.6-.2,.72,5.87,1.57,12.15,1.42,18.15,.93,5.92-.49,11.84-1.4,17.63-2.75,4.45-1.03,8.78-2.64,13.05-4.24,5.25-1.96,10.44-4.07,15.6-6.25,4.78-2.02,9.54-4.08,14.24-6.27,.44-.2,.06-.85-.38-.65h0Z"/>
    </g>
    <path class="cls-18" d="M2104,616c1.39,1.71,12.14,14.56,29,14,8.61-.29,14.97-3.94,18-6,11.02,6.89,29.86,16.58,55,20,41.62,5.65,73.92-9.53,86-16,5.59,1.61,16.63,3.89,29,0,14.19-4.46,32.02-17.61,30-31-1.67-11.04-16.05-16.96-21-19-15.5-6.38-29.89-2.61-35-1-.14-1.03-1.53-10.34-10-15-6.82-3.75-15.49-2.97-22,2,.03-1.25,.26-19.15-13-28-12.76-8.52-32.8-5.2-45,10-3.5-3.47-15.93-14.94-35-16-10.13-.56-18.24,2.02-23,4,.36-2.34,3.58-25.45-13-41-8.57-8.03-18.39-10.27-23-11-6.44-5.17-12.06-6.64-16-7-19.52-1.78-41.66,19.6-53,54-6.59-13.26-21.95-17.72-32-12-7.5,4.26-11.66,13.97-10,24-4.41-.39-16.73-.88-28,7-13.68,9.56-20.28,27.57-17,46-.88-.97-11.45-12.22-27-10-11.69,1.67-21.49,10.29-25,22-6.83-.38-12.86,2.92-15,8-3.01,7.15,2.96,14.88,8,18,7.66,4.74,19.36,2.65,28-6,7.57,1.69,20.02,3.48,35,1,12.77-2.11,22.64-6.53,29-10,.23,.78,2.32,7.52,9,10,5.81,2.15,12.68,.18,17-5,1.5,2.47,14.12,22.52,38,25,21.03,2.18,42.07-10.17,52-31Z"/>
    <path class="cls-12" d="M2210.5,708.04c-.17-6.53-.08-13.66,0-20.56,.08-6.87,.17-13.97,0-20.44l3-.08c.17,6.53,.08,13.66,0,20.56-.08,6.87-.17,13.97,0,20.44l-3,.08Z"/>
    <path class="cls-12" d="M2213.5,586.03l-3-.06c.3-15.92,.3-32.05,0-47.95-.2-10.59-.53-21.34-1-31.95l3-.13c.46,10.63,.8,21.41,1,32.03,.3,15.94,.3,32.11,0,48.07Z"/>
    <path class="cls-12" d="M2276.08,665.1c-1.06,0-2.19-.16-3.38-.49-2.57-.7-5.14-2.12-6.72-3.7l-88.39-88.39c-1.58-1.58-3-4.16-3.7-6.72-1-3.67-.44-6.81,1.58-8.83s5.16-2.58,8.83-1.58c2.57,.7,5.14,2.12,6.72,3.7l88.39,88.39c1.58,1.58,3,4.16,3.7,6.72,1,3.67,.44,6.81-1.58,8.83-1.37,1.37-3.24,2.07-5.45,2.07Zm-94.65-102.17c.19,1.19,.98,3.1,1.81,3.94l88.39,88.39c.84,.84,2.74,1.63,3.94,1.81-.19-1.19-.98-3.1-1.81-3.94l-88.39-88.39c-.84-.84-2.74-1.63-3.94-1.81Z"/>
    <path class="cls-12" d="M2243.08,698.1c-1.06,0-2.19-.16-3.38-.49-2.57-.7-5.14-2.12-6.72-3.7l-88.39-88.39c-1.58-1.58-3-4.16-3.7-6.72-1-3.67-.44-6.81,1.58-8.83,2.02-2.02,5.16-2.58,8.83-1.58,2.57,.7,5.14,2.12,6.72,3.7l88.39,88.39c1.58,1.58,3,4.16,3.7,6.72,1,3.67,.44,6.81-1.58,8.83-1.37,1.37-3.24,2.07-5.45,2.07Zm-94.65-102.17c.19,1.19,.98,3.1,1.81,3.94l88.39,88.39c.84,.84,2.74,1.63,3.94,1.81-.19-1.19-.98-3.1-1.81-3.94l-88.39-88.39c-.84-.84-2.74-1.63-3.94-1.81Z"/>
    <path class="cls-12" d="M2145.92,667.1c-2.21,0-4.08-.7-5.45-2.07-2.02-2.02-2.58-5.16-1.58-8.83,.7-2.57,2.12-5.14,3.7-6.72l88.39-88.39c1.58-1.58,4.16-3,6.72-3.7,3.67-1,6.81-.44,8.83,1.58,2.02,2.02,2.58,5.16,1.58,8.83-.7,2.57-2.12,5.14-3.7,6.72l-88.39,88.39c-1.58,1.58-4.16,3-6.72,3.7-1.19,.33-2.33,.49-3.38,.49Zm94.65-102.17c-1.19,.19-3.1,.98-3.94,1.81l-88.39,88.39c-.84,.84-1.63,2.74-1.81,3.94,1.19-.19,3.1-.98,3.94-1.81l88.39-88.39c.84-.84,1.63-2.74,1.81-3.94Z"/>
    <path class="cls-12" d="M2178.92,700.1c-2.21,0-4.08-.7-5.45-2.07-2.02-2.02-2.58-5.16-1.58-8.83,.7-2.57,2.12-5.14,3.7-6.72l88.39-88.39c1.58-1.58,4.16-3,6.72-3.7,3.67-1,6.81-.44,8.83,1.58,2.02,2.02,2.58,5.16,1.58,8.83-.7,2.57-2.12,5.14-3.7,6.72l-88.39,88.39c-1.58,1.58-4.16,3-6.72,3.7-1.19,.33-2.33,.49-3.38,.49Zm94.65-102.17c-1.19,.19-3.1,.98-3.94,1.81l-88.39,88.39c-.84,.84-1.63,2.74-1.81,3.94,1.19-.19,3.1-.98,3.94-1.81l88.39-88.39c.84-.84,1.63-2.74,1.81-3.94Z"/>
    <path class="cls-12" d="M2292.53,653.17c-20.92,0-34.99-16.19-36.61-18.14-1.41-1.7-1.18-4.22,.52-5.63,1.7-1.41,4.22-1.18,5.63,.52,1.44,1.73,14.6,16.89,33.54,15.1,9.52-.9,20.22-6.15,25.43-12.48,1.51-1.83,3.24-4.61,2.96-7.44-.72-7.22-14.51-13.64-26.44-14.89-17.67-1.85-31.16,9.16-34.88,12.58-1.63,1.5-4.16,1.39-5.65-.24-1.5-1.63-1.39-4.16,.24-5.65,4.34-3.99,20.14-16.84,41.12-14.64,12.26,1.28,32.21,8.4,33.56,22.05,.44,4.41-1.2,9.01-4.75,13.32-6.54,7.95-19.23,14.26-30.86,15.36-1.31,.12-2.59,.18-3.85,.18Z"/>
    <path class="cls-12" d="M2281.34,646.17c-14.54,0-24.3-11.21-25.42-12.56-1.41-1.7-1.18-4.22,.52-5.63,1.7-1.41,4.22-1.18,5.63,.52,.91,1.1,9.29,10.71,21.19,9.58,6.03-.57,12.77-3.87,16.04-7.84,1.19-1.45,1.79-2.86,1.68-3.98-.4-3.98-9.15-7.96-16.42-8.72-11.21-1.18-19.82,5.85-22.19,8.03-1.62,1.5-4.16,1.39-5.65-.24-1.5-1.63-1.39-4.16,.24-5.65,3.84-3.53,14.3-11.58,28.44-10.1,8.58,.9,22.57,6.01,23.55,15.89,.33,3.3-.87,6.71-3.46,9.85-4.64,5.63-13.26,9.94-21.46,10.72-.91,.09-1.81,.13-2.68,.13Z"/>
    <path class="cls-12" d="M2130.44,651.17c-1.57,0-3.17-.08-4.8-.25-12.26-1.28-32.21-8.41-33.56-22.05-.44-4.41,1.2-9.01,4.75-13.32,6.54-7.95,19.23-14.26,30.86-15.36,23.03-2.16,38.74,15.89,40.46,17.96,1.41,1.7,1.18,4.22-.52,5.63-1.7,1.41-4.22,1.18-5.63-.52-1.44-1.73-14.6-16.88-33.54-15.1-9.52,.9-20.22,6.15-25.43,12.48-1.51,1.83-3.24,4.61-2.96,7.44,.72,7.22,14.51,13.64,26.44,14.89,17.67,1.85,31.16-9.16,34.88-12.58,1.63-1.5,4.16-1.39,5.65,.24,1.5,1.63,1.39,4.16-.24,5.65-4,3.68-17.74,14.89-36.32,14.89Z"/>
    <path class="cls-12" d="M2141.99,643.76c-1.09,0-2.2-.05-3.34-.17-8.58-.9-22.57-6.01-23.55-15.89-.33-3.3,.87-6.71,3.46-9.85,4.64-5.63,13.26-9.94,21.46-10.72,16.02-1.5,26.91,11,28.1,12.44,1.41,1.7,1.18,4.22-.52,5.63s-4.22,1.18-5.63-.52c-.91-1.1-9.29-10.71-21.19-9.58-6.03,.57-12.77,3.87-16.04,7.84-1.19,1.45-1.79,2.86-1.68,3.98,.4,3.98,9.15,7.96,16.42,8.72,11.21,1.18,19.82-5.85,22.19-8.03,1.63-1.5,4.16-1.39,5.65,.24,1.5,1.63,1.39,4.16-.24,5.65-2.76,2.54-12.24,10.27-25.1,10.27Z"/>
    <circle class="cls-12" cx="2212.5" cy="543.5" r="11.5"/>
    <path class="cls-10" d="M2243,798h-62l13-73.5c0-10.22,8.28-18.5,18.5-18.5h0c10.22,0,18.5,8.28,18.5,18.5l12,73.5Z"/>
    <ellipse class="cls-10" cx="2212" cy="798" rx="31" ry="7"/>
    <path class="cls-3" d="M2365.63,242.47c-4.75-.15-10.51-.7-16.94-2.12-5.54-1.22-10.35-2.83-14.37-4.45-6.15-15.53-7.99-42.8-7.69-49.91-.22,7.24-1.06,16.03-3.23,25.84-2.07,9.35-4.85,17.35-7.58,23.86-3.7,1.41-8.01,2.78-12.86,3.85-6.43,1.42-12.19,1.97-16.94,2.12,4.27-.18,19.61,.82,29.98,4.08,2.67,6.43,5.38,14.27,7.4,23.42,2.17,9.8,3.01,18.6,3.23,25.84-.29-6.78,1.37-31.93,6.87-47.71,10.27-3.85,27.56-5.01,32.13-4.81Z"/>
    <path class="cls-3" d="M128.63,656.47c-4.75-.15-10.51-.7-16.94-2.12-5.54-1.22-10.35-2.83-14.37-4.45-6.15-15.53-7.99-42.8-7.69-49.91-.22,7.24-1.06,16.03-3.23,25.84-2.07,9.35-4.85,17.35-7.58,23.86-3.7,1.41-8.01,2.78-12.86,3.85-6.43,1.42-12.19,1.97-16.94,2.12,4.27-.18,19.61,.82,29.98,4.08,2.67,6.43,5.38,14.27,7.4,23.42,2.17,9.8,3.01,18.6,3.23,25.84-.29-6.78,1.37-31.93,6.87-47.71,10.27-3.85,27.56-5.01,32.13-4.81Z"/>
    <path class="cls-3" d="M1275,745.06c-3.34-.1-7.39-.49-11.91-1.49-3.89-.86-7.28-1.99-10.11-3.13-4.32-10.92-5.62-30.1-5.41-35.09-.16,5.09-.75,11.28-2.27,18.17-1.46,6.58-3.41,12.2-5.33,16.78-2.6,.99-5.63,1.95-9.04,2.71-4.52,1-8.57,1.39-11.91,1.49,3-.13,13.79,.57,21.08,2.87,1.88,4.52,3.78,10.04,5.2,16.47,1.52,6.89,2.11,13.08,2.27,18.17-.2-4.77,.97-22.45,4.83-33.55,7.22-2.71,19.38-3.52,22.59-3.38Z"/>
    <path class="cls-13" d="M2074,180.62c-2.38-.07-5.28-.35-8.51-1.06-2.78-.62-5.2-1.42-7.22-2.23-3.09-7.8-4.01-21.49-3.86-25.06-.11,3.64-.53,8.05-1.62,12.98-1.04,4.7-2.44,8.71-3.81,11.98-1.86,.71-4.02,1.4-6.46,1.94-3.23,.71-6.12,.99-8.51,1.06,2.14-.09,9.85,.41,15.06,2.05,1.34,3.23,2.7,7.17,3.72,11.76,1.09,4.92,1.51,9.34,1.62,12.98-.14-3.41,.69-16.04,3.45-23.96,5.16-1.93,13.84-2.51,16.13-2.42Z"/>
    <path class="cls-13" d="M1578,385.62c-2.38-.07-5.28-.35-8.51-1.06-2.78-.62-5.2-1.42-7.22-2.23-3.09-7.8-4.01-21.49-3.86-25.06-.11,3.64-.53,8.05-1.62,12.98-1.04,4.7-2.44,8.71-3.81,11.98-1.86,.71-4.02,1.4-6.46,1.94-3.23,.71-6.12,.99-8.51,1.06,2.14-.09,9.85,.41,15.06,2.05,1.34,3.23,2.7,7.17,3.72,11.76,1.09,4.92,1.51,9.34,1.62,12.98-.14-3.41,.69-16.04,3.45-23.96,5.16-1.93,13.84-2.51,16.13-2.42Z"/>
    <path class="cls-13" d="M49,725.62c-2.38-.07-5.28-.35-8.51-1.06-2.78-.62-5.2-1.42-7.22-2.23-3.09-7.8-4.01-21.49-3.86-25.06-.11,3.64-.53,8.05-1.62,12.98-1.04,4.7-2.44,8.71-3.81,11.98-1.86,.71-4.02,1.4-6.46,1.94-3.23,.71-6.12,.99-8.51,1.06,2.14-.09,9.85,.41,15.06,2.05,1.34,3.23,2.7,7.17,3.72,11.76,1.09,4.92,1.51,9.34,1.62,12.98-.14-3.41,.69-16.04,3.45-23.96,5.16-1.93,13.84-2.51,16.13-2.42Z"/>
    <path class="cls-13" d="M2385,78.62c-2.38-.07-5.28-.35-8.51-1.06-2.78-.62-5.2-1.42-7.22-2.23-3.09-7.8-4.01-21.49-3.86-25.06-.11,3.64-.53,8.05-1.62,12.98-1.04,4.7-2.44,8.71-3.81,11.98-1.86,.71-4.02,1.4-6.46,1.94-3.23,.71-6.12,.99-8.51,1.06,2.14-.09,9.85,.41,15.06,2.05,1.34,3.23,2.7,7.17,3.72,11.76,1.09,4.92,1.51,9.34,1.62,12.98-.14-3.41,.69-16.04,3.45-23.96,5.16-1.93,13.84-2.51,16.13-2.42Z"/>
    <path class="cls-13" d="M2049.96,783.24c-1.79-.06-3.95-.26-6.37-.8-2.08-.46-3.89-1.06-5.41-1.67-2.31-5.84-3.01-16.1-2.89-18.77-.08,2.72-.4,6.03-1.21,9.72-.78,3.52-1.82,6.53-2.85,8.97-1.39,.53-3.01,1.05-4.84,1.45-2.42,.53-4.59,.74-6.37,.8,1.6-.07,7.38,.31,11.28,1.53,1.01,2.42,2.02,5.37,2.78,8.81,.82,3.69,1.13,6.99,1.21,9.72-.11-2.55,.52-12.01,2.58-17.95,3.86-1.45,10.37-1.88,12.08-1.81Z"/>
    <path class="cls-13" d="M1495.34,824.5c-3.3-.1-7.3-.48-11.77-1.47-3.85-.85-7.19-1.97-9.99-3.09-4.27-10.79-5.55-29.74-5.34-34.68-.16,5.03-.74,11.14-2.24,17.95-1.44,6.5-3.37,12.05-5.27,16.58-2.57,.98-5.56,1.93-8.94,2.68-4.47,.99-8.47,1.37-11.77,1.47,2.96-.13,13.62,.57,20.83,2.83,1.86,4.47,3.74,9.92,5.14,16.27,1.51,6.81,2.09,12.92,2.24,17.95-.2-4.71,.96-22.19,4.77-33.15,7.13-2.67,19.15-3.48,22.32-3.34Z"/>
    <path class="cls-13" d="M981,659.15c-4.05-.13-8.98-.59-14.46-1.81-4.73-1.05-8.84-2.42-12.27-3.8-5.25-13.26-6.82-36.55-6.57-42.62-.19,6.18-.91,13.69-2.76,22.06-1.77,7.99-4.14,14.81-6.48,20.37-3.16,1.21-6.84,2.37-10.98,3.29-5.49,1.21-10.41,1.68-14.46,1.81,3.64-.15,16.74,.7,25.6,3.48,2.28,5.49,4.59,12.19,6.32,20,1.85,8.37,2.57,15.88,2.76,22.06-.25-5.79,1.17-27.27,5.87-40.74,8.77-3.29,23.53-4.28,27.43-4.11Z"/>
    <circle class="cls-17" cx="2257" cy="159" r="21"/>
    <circle class="cls-16" cx="2381.5" cy="424.5" r="16.5"/>
    <circle class="cls-17" cx="1529" cy="478" r="29"/>
    <circle class="cls-17" cx="29" cy="538" r="29"/>
    <circle class="cls-17" cx="1048.5" cy="693.5" r="20.5"/>
    <circle class="cls-17" cx="1285.5" cy="589.5" r="20.5"/>
    <path class="cls-7" d="M314.09,707.9c-9.56-1.27-24.02-1.93-40.38,2.61-28.67,7.95-56.91,30.14-53.41,41.69,2.83,9.35,25.99,10.12,35.17,10.42,19.86,.66,35.54-5.11,44.29-9.12,5.8,3.68,22.04,12.88,44.29,11.72,17.72-.92,30.56-7.95,36.48-11.72,10.86,8.46,53.29,39.46,114.64,36.48,56.06-2.72,93.09-32.12,104.22-41.69,1.95,3.15,35.38,55.23,95.1,54.71,39.57-.34,66.11-23.58,72.95-29.96,4.26,1.2,11.73,2.7,20.84,1.3,6.83-1.05,12.15-3.36,15.63-5.21,4.08,3.98,12.49,10.94,24.75,13.03,18.52,3.16,38.12-6.09,50.81-23.45,8.55,12.25,22.31,17.18,32.57,13.03,6.88-2.79,10.37-8.93,11.72-11.72,57.18,36.69,106.52,51.3,123.76,33.87,2.95-2.98,5.48-7.43,6.51-14.33,57.49-3.17,71.83-11.04,72.95-18.24,1.51-9.72-20.61-21.29-33.87-26.05-33.73-12.11-65.28,.04-76.86,5.21-.67-1.14-6.45-10.7-16.94-11.72-10.51-1.03-21.46,6.93-24.75,19.54-12.18-19.68-26.56-30.82-35.17-36.48-11.58-7.6-37.03-24.31-66.44-16.94-14.39,3.61-24.43,11.65-29.96,16.94-2.68-2.12-8.1-5.74-15.63-6.51-16.47-1.69-27.66,11.79-28.66,13.03,1.08-1.23,14.66-17.23,9.12-33.87-5.92-17.79-28.67-21.18-35.17-22.15-29.55-4.4-52.29,17.19-56.02,20.84-.63-12.18-4.29-54.39-37.78-88.58-9.63-9.84-48.73-49.76-99.01-37.78-49.47,11.79-67.73,63.81-69.04,67.74-10.13-6.68-54.54-34.37-109.43-22.15-9.32,2.08-73.94,17.55-87.28,67.74-3.97,14.92-2.22,28.49,0,37.78Z"/>
    <path class="cls-19" d="M2165,312v-12.16c0-5.1,3.74-9.43,8.79-10.16,10.44-1.51,22.26-2.88,35.21-2.68,12.16,.19,23.28,1.19,33.16,2.59,5.07,.72,8.84,5.05,8.84,10.17v13.24c-28.67-.33-57.33-.67-86-1Z"/>
    <path class="cls-19" d="M2166,482.98v12.16c0,5.1,3.74,9.43,8.79,10.16,10.44,1.51,22.26,2.88,35.21,2.68,12.16-.19,23.28-1.19,33.16-2.59,5.07-.72,8.84-5.05,8.84-10.17v-13.24c-28.67,.33-57.33,.67-86,1Z"/>
    <ellipse class="cls-1" cx="2208.5" cy="400" rx="111.5" ry="95"/>
    <path class="cls-19" d="M2207.9,301.07c.96,10.56,1.39,21.15,1.28,31.75,0,.97,1.49,.97,1.5,0,.11-10.6-.32-21.2-1.28-31.75-.09-.95-1.59-.96-1.5,0h0Z"/>
    <path class="cls-19" d="M2209.21,344.88c-.28,2.01-.13,4.04,.49,5.98,.12,.39,.52,.63,.92,.52,.38-.1,.65-.54,.52-.92-.54-1.66-.73-3.45-.49-5.18,.06-.4-.1-.81-.52-.92-.35-.1-.87,.12-.92,.52h0Z"/>
    <path class="cls-19" d="M2209.84,361.79c-.28,31.72-.57,63.44-.85,95.15-.08,8.97-.16,17.93-.24,26.9,0,.97,1.49,.97,1.5,0,.28-31.72,.57-63.44,.85-95.15,.08-8.97,.16-17.93,.24-26.9,0-.97-1.49-.97-1.5,0h0Z"/>
    <path class="cls-19" d="M2175.93,307.76c-17.67,19.99-29.78,44.74-34.81,70.94-1.4,7.3-2.25,14.69-2.54,22.11-.04,.97,1.46,.96,1.5,0,1.03-26.27,9.27-52.11,23.47-74.22,4.02-6.26,8.51-12.2,13.44-17.77,.64-.72-.42-1.79-1.06-1.06h0Z"/>
    <path class="cls-19" d="M2139.5,413.63c0,3.16,0,6.32,0,9.47,0,.97,1.5,.97,1.5,0,0-3.16,0-6.32,0-9.47,0-.97-1.5-.97-1.5,0h0Z"/>
    <path class="cls-19" d="M2141.64,434.81c1,13.69,4.14,27.16,9.34,39.86,.36,.88,1.81,.5,1.45-.4-5.15-12.58-8.3-25.91-9.29-39.46-.07-.96-1.57-.96-1.5,0h0Z"/>
    <path class="cls-19" d="M2239.09,305.57c10.43,7.12,18.68,17.15,23.72,28.73,.38,.88,1.68,.12,1.3-.76-5.14-11.81-13.62-22-24.25-29.26-.8-.55-1.55,.75-.76,1.3h0Z"/>
    <path class="cls-19" d="M2271.21,351.9c1.07,2.8,2.13,5.61,3.2,8.41,.14,.38,.51,.64,.92,.52,.36-.1,.67-.54,.52-.92-1.07-2.8-2.13-5.61-3.2-8.41-.14-.38-.51-.64-.92-.52-.36,.1-.67,.54-.52,.92h0Z"/>
    <path class="cls-19" d="M2280.59,382.24c2.95,25.52,3.03,52.19-7.01,76.28-2.62,6.3-5.95,12.3-9.94,17.83-.57,.78,.73,1.53,1.3,.76,14.89-20.63,19.43-46.59,18.87-71.55-.17-7.8-.82-15.57-1.72-23.31-.11-.95-1.61-.96-1.5,0h0Z"/>
    <path class="cls-19" d="M2210.19,13.06c.29-3.87,.23-7.7-.19-11.56-.09-.81-.63-1.5-1.5-1.5-.74,0-1.59,.69-1.5,1.5,.42,3.86,.48,7.69,.19,11.56-.06,.81,.73,1.5,1.5,1.5,.86,0,1.44-.69,1.5-1.5h0Z"/>
    <path class="cls-19" d="M2210.46,113.12c-.02-18.64-.04-37.28-.07-55.93,0-5.33-.01-10.65-.02-15.98,0-1.93-3-1.93-3,0,.03,18.64,.05,37.28,.07,55.93,0,5.33,.01,10.65,.02,15.98,0,1.93,3,1.93,3,0h0Z"/>
    <path class="cls-19" d="M2210.5,162.41c0-6.88,0-13.77,0-20.65,0-1.93-3-1.93-3,0,0,6.88,0,13.77,0,20.65,0,1.93,3,1.93,3,0h0Z"/>
    <path class="cls-19" d="M2210.82,289.9c-.25-25.75-.31-51.5-.31-77.26,0-7.31,0-14.62,0-21.92,0-1.93-3-1.93-3,0,0,25.82-.01,51.63,.14,77.45,.04,7.24,.1,14.49,.17,21.73,.02,1.93,3.02,1.93,3,0h0Z"/>
    <circle class="cls-15" cx="2083" cy="274" r="33"/>
    <circle class="cls-15" cx="1661.5" cy="754.5" r="21.5"/>
  </g>
  <g id="_Слой_2-2" data-name="Слой 2">
    <path class="cls-14" d="M2047.22,546.05c3.69-11.42,8.18-22.82,15.4-32.53,6.84-9.2,16.3-16.48,27.54-19.3,6.16-1.55,12.62-1.57,18.72,.3,.46,.14,.66-.58,.2-.72-10.93-3.35-22.71-.59-32.24,5.35-10.31,6.43-17.59,16.51-22.8,27.31-3.02,6.25-5.4,12.79-7.53,19.39-.15,.46,.58,.66,.72,.2h0Z"/>
    <path class="cls-14" d="M2119.24,500.43c12.12,4.8,19.36,17.7,17.05,30.54-1.24,6.9-5.2,12.48-9.94,17.47-4.31,4.53-9.23,8.59-14.87,11.35s-11.42,3.99-17.41,3.1c-5.3-.79-10.49-3.16-14.12-7.16-9.16-10.1-3.76-25.85,4.06-35.01,4.32-5.06,10.1-8.99,16.73-10.17s13.96,.38,19.05,5.03c.36,.33,.89-.2,.53-.53-4.51-4.13-10.65-5.95-16.71-5.59s-12,3.08-16.64,7.17c-4.84,4.27-8.53,9.94-10.7,16.01s-2.82,13.62,.39,19.73c5.55,10.54,19.29,13.5,29.95,10.19,6.32-1.97,11.95-5.74,16.81-10.18,5.1-4.66,10.06-10.15,12.41-16.75,4.51-12.67-.7-27.01-12.23-33.88-1.33-.79-2.72-1.46-4.16-2.03-.45-.18-.64,.55-.2,.72h0Z"/>
    <path class="cls-14" d="M2124.65,520.49c1.42,2.41,2.35,5.06,2.76,7.83,.07,.48,.79,.27,.72-.2-.42-2.83-1.39-5.55-2.84-8.01-.24-.42-.89-.04-.65,.38h0Z"/>
    <path class="cls-14" d="M2085.83,534.3c1.29-4.79,5.05-8.91,9.96-10.06s10.52,.82,13.15,5.21c2.6,4.34,2.07,10.04-1.58,13.61-3.33,3.25-8.62,4.74-13.17,4.99-1.28,.07-2.77,0-3.79-.88-1.55-1.33-.96-3.53-.19-5.11,1.35-2.8,3.46-5.21,5.95-7.05,.38-.28,0-.94-.38-.65-2.45,1.81-4.51,4.1-5.95,6.8-1.13,2.11-1.98,5.2,.39,6.82,2.05,1.4,5.01,.79,7.27,.37,2.76-.52,5.53-1.37,7.94-2.85,4.76-2.93,7.04-8.38,5.35-13.79s-6.94-8.68-12.47-8.54c-6.32,.15-11.58,4.96-13.19,10.93-.13,.47,.6,.67,.72,.2h0Z"/>
    <path class="cls-14" d="M2012.01,536.34c1.06-3.74,2.74-7.47,6.37-9.31,3.1-1.57,6.86-1.56,10.1-.45,7.28,2.48,10.81,10.31,11.78,17.41,.07,.48,.79,.27,.72-.2-.84-6.13-3.43-12.44-8.65-16.1-4.44-3.11-11.07-3.75-15.63-.53-3,2.11-4.45,5.56-5.42,8.97-.13,.47,.59,.66,.72,.2h0Z"/>
    <path class="cls-14" d="M2032.69,538.43c2.43,1.77,3.65,4.99,3.03,7.92-.1,.47,.62,.67,.72,.2,.7-3.29-.66-6.79-3.37-8.77-.39-.28-.77,.37-.38,.65h0Z"/>
    <path class="cls-14" d="M1964.73,594.59c.96-8.94,3.46-17.97,8.98-25.22,5-6.56,12.36-11.39,20.71-12.02,8.5-.65,16.97,2.68,23.14,8.48,5.94,5.6,9.9,13.3,11.4,21.3,.95,5.04,.81,10.58-1.73,15.16-2.13,3.84-5.76,6.81-10.18,7.43-.48,.07-.27,.79,.2,.72,8.65-1.23,13.08-10.07,12.99-18.06-.1-8.72-3.86-17.67-9.49-24.27-5.65-6.63-13.74-11.01-22.49-11.54-8.65-.53-16.75,3.17-22.65,9.4-7.32,7.73-10.53,18.23-11.64,28.62-.05,.48,.7,.48,.75,0h0Z"/>
    <path class="cls-14" d="M2018.78,592.87c1.44,6.98-3.91,13.65-10.23,15.97-7.55,2.78-16.57,.78-23.69-2.43-2.88-1.3-5.84-3.1-7.49-5.89-2.23-3.77-.77-8,.97-11.65,1.6-3.37,3.68-6.7,6.77-8.9s7.25-3.02,11.07-2.31c4.07,.76,7.64,3.22,10.09,6.52,2.29,3.09,4.53,8.16,1.82,11.65-.29,.38,.23,.91,.53,.53,2.23-2.88,1.5-6.73,0-9.78-1.72-3.47-4.54-6.45-8.02-8.21s-7.93-2.24-11.82-1.04-6.8,3.98-8.95,7.3-4.66,8.03-4.35,12.26c.26,3.46,2.51,6.18,5.28,8.08,3.34,2.29,7.37,3.64,11.26,4.65,4.41,1.14,9.07,1.66,13.58,.78,8.04-1.55,15.71-9.03,13.91-17.76-.1-.47-.82-.27-.72,.2h0Z"/>
    <path class="cls-14" d="M1997.73,591.17c2.98,1.4,4.89,4.6,4.69,7.89-.03,.48,.72,.48,.75,0,.21-3.53-1.86-7.04-5.07-8.54-.43-.2-.82,.44-.38,.65h0Z"/>
    <path class="cls-14" d="M1919.81,601.82c4.31-6.13,12.79-6.98,19.23-4.06,6.54,2.95,13.12,9.64,14,17.01,.06,.47,.81,.48,.75,0-.5-4.13-2.64-7.73-5.36-10.8s-5.9-5.55-9.6-7.11c-6.73-2.83-15.27-1.68-19.68,4.59-.28,.4,.37,.77,.65,.38h0Z"/>
    <path class="cls-14" d="M1939.73,608.3c4.24,1.83,7.04,6.3,6.79,10.92-.03,.48,.72,.48,.75,0,.26-4.85-2.7-9.64-7.16-11.56-.44-.19-.82,.46-.38,.65h0Z"/>
    <path class="cls-14" d="M2035.17,566.05c7.6-4.78,16.86-6.68,25.73-5.28,8.1,1.28,15.54,5.41,21.1,11.41,3.14,3.39,5.62,7.34,7.31,11.64,.17,.44,.9,.25,.72-.2-3-7.66-8.49-14.22-15.48-18.55-7.54-4.67-16.57-6.38-25.32-5.05-5.13,.78-10.05,2.61-14.44,5.37-.41,.26-.03,.91,.38,.65h0Z"/>
    <path class="cls-14" d="M2077.02,579.03c6.23,5.23,10.56,12.54,12.05,20.54,1.6,8.63-.26,17.7-4.93,25.1-.26,.41,.39,.79,.65,.38,7.33-11.61,7.4-26.67,.02-38.28-1.98-3.11-4.43-5.9-7.26-8.27-.37-.31-.9,.22-.53,.53h0Z"/>
    <path class="cls-14" d="M2120.74,567.31c14.96-14.82,35.66-27.67,57.64-23.92,5.26,.9,10.6,3.03,13.78,7.52,.28,.39,.93,.02,.65-.38-5.9-8.36-18.18-9.18-27.44-8.16-11.19,1.23-21.69,5.89-30.85,12.3-5.13,3.59-9.86,7.7-14.3,12.1-.34,.34,.19,.87,.53,.53h0Z"/>
    <path class="cls-14" d="M2139.95,573.99c6.02-2.25,12.82-2.84,18.9-.45,5.26,2.06,9.65,6.35,11.34,11.79,.14,.46,.87,.26,.72-.2-1.73-5.55-6.11-9.93-11.44-12.14-6.29-2.61-13.45-2.07-19.73,.28-.45,.17-.25,.89,.2,.72h0Z"/>
    <path class="cls-14" d="M2175.3,584.44c1.7,2.31,1.87,5.52,.39,7.98-.25,.41,.4,.79,.65,.38,1.6-2.67,1.45-6.23-.39-8.74-.28-.38-.93-.01-.65,.38h0Z"/>
    <path class="cls-14" d="M2236.34,542.05c4.35,1.58,8.53,3.85,11.7,7.26s5.2,8.08,4.86,12.85c-.03,.48,.72,.48,.75,0,.35-4.84-1.63-9.56-4.85-13.13-3.28-3.65-7.69-6.05-12.26-7.71-.45-.16-.65,.56-.2,.72h0Z"/>
    <path class="cls-14" d="M2295.75,584.48c6.87-3.36,15-3.72,22.18-1.13,3.55,1.28,7.13,3.31,9.58,6.24,2.59,3.09,3.64,7.86,.74,11.13-.32,.36,.21,.89,.53,.53,1.93-2.17,2.39-5.19,1.61-7.95-.86-3.05-3.17-5.46-5.69-7.26-5.36-3.84-12.17-5.54-18.72-5.07-3.69,.27-7.28,1.24-10.61,2.86-.43,.21-.05,.86,.38,.65h0Z"/>
    <path class="cls-14" d="M2315.66,590.16c2.56,.85,4.57,3.07,5.09,5.73s-.62,5.59-2.76,7.33c-.38,.3,.16,.83,.53,.53,2.35-1.91,3.53-5.08,2.95-8.06s-2.82-5.33-5.61-6.25c-.46-.15-.66,.57-.2,.72h0Z"/>
    <path class="cls-19" d="M1852.78,747.39c-1.36,17.28-3.01,34.54-4.95,51.77-.56,4.92-1.13,9.84-1.74,14.76-.12,.96,1.38,.95,1.5,0,2.11-17.21,3.93-34.45,5.45-51.72,.44-4.93,.85-9.87,1.24-14.81,.08-.96-1.42-.96-1.5,0h0Z"/>
    <path class="cls-19" d="M1856.83,757.74c-.36,3.27-.73,6.55-1.09,9.82-.04,.4,.38,.75,.75,.75,.44,0,.7-.35,.75-.75,.36-3.27,.73-6.55,1.09-9.82,.04-.4-.38-.75-.75-.75-.44,0-.7,.35-.75,.75h0Z"/>
    <path class="cls-19" d="M1855.49,787.2c-.37,11.46-.73,22.93-1.1,34.39-.03,.97,1.47,.96,1.5,0,.37-11.46,.73-22.93,1.1-34.39,.03-.97-1.47-.96-1.5,0h0Z"/>
    <path class="cls-19" d="M1863.4,744.62c-.29,19.27-.11,38.54,.56,57.79,.19,5.48,.42,10.95,.69,16.43,.05,.96,1.55,.97,1.5,0-.95-19.24-1.41-38.51-1.39-57.78,0-5.48,.05-10.96,.14-16.44,.01-.97-1.49-.97-1.5,0h0Z"/>
    <path class="cls-19" d="M1869.79,757.72c0,2.55,0,5.09,0,7.64,0,.97,1.5,.97,1.5,0,0-2.55,0-5.09,0-7.64,0-.97-1.5-.97-1.5,0h0Z"/>
    <path class="cls-19" d="M1871.24,777.94c1.1,13.44,1.89,26.9,2.35,40.38,.03,.96,1.53,.97,1.5,0-.46-13.48-1.25-26.94-2.35-40.38-.08-.96-1.58-.96-1.5,0h0Z"/>
    <path class="cls-19" d="M1875.51,749.7c3.26,20.38,6.52,40.76,9.78,61.14,.15,.95,1.6,.55,1.45-.4-3.26-20.38-6.52-40.76-9.78-61.14-.15-.95-1.6-.55-1.45,.4h0Z"/>
    <path class="cls-19" d="M2201.49,724.75c-.31,2.01-.62,4.02-.93,6.03-.06,.4,.1,.81,.52,.92,.36,.1,.86-.12,.92-.52,.31-2.01,.62-4.02,.93-6.03,.06-.4-.1-.81-.52-.92-.36-.1-.86,.12-.92,.52h0Z"/>
    <path class="cls-19" d="M2199.5,742.51c-.94,7.91-1.88,15.82-2.82,23.74l-1.41,11.87c-.47,3.93-1.17,7.91-1.08,11.87,.02,.96,1.52,.97,1.5,0-.1-3.96,.61-7.95,1.08-11.87l1.41-11.87c.94-7.91,1.88-15.82,2.82-23.74,.11-.96-1.39-.95-1.5,0h0Z"/>
    <path class="cls-19" d="M2208.13,720.6l-.95,17.47c-.05,.96,1.45,.96,1.5,0l.95-17.47c.05-.96-1.45-.96-1.5,0h0Z"/>
    <path class="cls-19" d="M2205.19,770.27c-.25,8.19-.49,16.38-.74,24.57-.03,.97,1.47,.96,1.5,0,.25-8.19,.49-16.38,.74-24.57,.03-.97-1.47-.96-1.5,0h0Z"/>
    <path class="cls-19" d="M2216.04,722.25c-.45,16.95-.6,33.9-.42,50.86,.05,4.88,.13,9.76,.23,14.64,.02,.96,1.52,.97,1.5,0-.35-16.95-.4-33.91-.12-50.86,.08-4.88,.18-9.76,.32-14.64,.03-.97-1.47-.96-1.5,0h0Z"/>
    <path class="cls-19" d="M2220.77,724.97v10.92c0,.97,1.5,.97,1.5,0v-10.92c0-.97-1.5-.97-1.5,0h0Z"/>
    <path class="cls-19" d="M2224.68,769.18c.4,8.19,.8,16.37,1.19,24.56,.05,.96,1.55,.97,1.5,0-.4-8.19-.8-16.37-1.19-24.56-.05-.96-1.55-.97-1.5,0h0Z"/>
    <path class="cls-19" d="M2228.34,741.9c.19,2.55,.39,5.09,.58,7.64,.03,.4,.32,.75,.75,.75,.38,0,.78-.34,.75-.75-.19-2.55-.39-5.09-.58-7.64-.03-.4-.32-.75-.75-.75-.38,0-.78,.34-.75,.75h0Z"/>
    <path class="cls-19" d="M1165.96,770.27c-.32,13.86-1.07,27.7-2.26,41.51-.08,.96,1.42,.96,1.5,0,1.19-13.81,1.94-27.65,2.26-41.51,.02-.97-1.48-.97-1.5,0h0Z"/>
    <path class="cls-19" d="M1170.58,777.37v12.55c0,.97,1.5,.97,1.5,0v-12.55c0-.97-1.5-.97-1.5,0h0Z"/>
    <path class="cls-19" d="M1172.1,807.95c.21,4,.42,8,.62,12,.05,.96,1.55,.97,1.5,0-.21-4-.42-8-.62-12-.05-.96-1.55-.97-1.5,0h0Z"/>
    <path class="cls-19" d="M1178.44,769.91c2.07,14.42,4.43,28.79,7.05,43.12,.17,.95,1.62,.55,1.45-.4-2.63-14.33-4.98-28.7-7.05-43.12-.14-.95-1.58-.55-1.45,.4h0Z"/>
  </g>
</svg>