<?xml version="1.0" encoding="UTF-8"?>
<svg id="_Слой_2" data-name="Слой 2" xmlns="http://www.w3.org/2000/svg" viewBox="0 0 2574.93 883.62">
  <defs>
    <style>
      .cls-1 {
        opacity: .68;
      }

      .cls-2 {
        opacity: .46;
      }

      .cls-2, .cls-3, .cls-4, .cls-5, .cls-6 {
        fill: #2e2e35;
      }

      .cls-7 {
        fill: #323238;
      }

      .cls-8, .cls-9 {
        opacity: .58;
        stroke-linecap: round;
      }

      .cls-8, .cls-9, .cls-10 {
        stroke: #999;
        stroke-miterlimit: 10;
      }

      .cls-8, .cls-9, .cls-10, .cls-11 {
        fill: none;
      }

      .cls-8, .cls-10 {
        stroke-width: 1.14px;
      }

      .cls-12 {
        opacity: .47;
      }

      .cls-12, .cls-13, .cls-14, .cls-15 {
        fill: #ffeb62;
      }

      .cls-9 {
        stroke-width: 2.29px;
      }

      .cls-16 {
        fill: #7a6922;
      }

      .cls-17 {
        opacity: .44;
      }

      .cls-17, .cls-18 {
        fill: #111010;
      }

      .cls-19 {
        fill: #292930;
      }

      .cls-20 {
        fill: #31313f;
      }

      .cls-21 {
        fill: #222228;
      }

      .cls-22 {
        fill: #464660;
      }

      .cls-3 {
        opacity: .32;
      }

      .cls-23 {
        fill: gray;
      }

      .cls-24 {
        opacity: .45;
      }

      .cls-25 {
        fill: #18181e;
      }

      .cls-13 {
        opacity: .21;
      }

      .cls-26 {
        fill: #36363d;
      }

      .cls-27 {
        fill: #4d4c63;
      }

      .cls-28 {
        fill: #3f3d56;
        opacity: .54;
      }

      .cls-29 {
        fill: #a3a3a3;
      }

      .cls-14 {
        opacity: .15;
      }

      .cls-30 {
        fill: #282830;
      }

      .cls-31 {
        fill: #585959;
        opacity: .59;
      }

      .cls-32 {
        fill: #575777;
      }

      .cls-15, .cls-4 {
        opacity: .22;
      }

      .cls-33 {
        fill: #23232d;
      }

      .cls-34 {
        fill: #b3b3b3;
      }

      .cls-35 {
        fill: #2c2e30;
      }

      .cls-36 {
        fill: #1a1a1a;
      }

      .cls-37 {
        fill: #938337;
      }

      .cls-38 {
        fill: #3b3b4f;
      }

      .cls-39 {
        fill: #303038;
      }

      .cls-40 {
        fill: #1e1e1e;
      }

      .cls-41 {
        fill: #666;
      }

      .cls-6 {
        opacity: .23;
      }
    </style>
  </defs>
  <g id="_Слой_3" data-name="Слой 3">
    <path class="cls-21" d="M74.45,707.84c-5.4-15.91-1.84-32.6,9-42.3,8.19-7.32,18-8.38,22-8.57-.09-2.71-.33-17.84,12-29.51,8.68-8.21,23.58-14.71,35-10.47,15.25,5.66,25.04,30.78,13,58.07,2.07,.8,5.05,2.23,8,4.76,4.04,3.47,6.05,7.3,7,9.52,2.57-11.36,7.8-18.92,11-22.85,2.96-3.64,18.7-22.01,42-20.94,8.05,.37,14.34,2.93,18,4.76,3.35-5.36,9.34-12.66,19-16.18,18.09-6.6,42.34,2.48,58,23.8-4.74-20.95-6.91-38.63-8-51.4-3.28-38.38-4.79-59.96,10-75.2,10.71-11.03,24.97-13.61,29-14.28,24.91-4.16,43.84,9.94,47,12.37-5.01-19.56,2.76-37.29,16-42.84,8.28-3.47,16.82-1.38,21,0-2.73-47.42,18.32-82.64,44-87.58,4.9-.94,15.78-1.9,31,6.66,.46-1.52,2.3-6.82,8-10.47,6.65-4.26,13.62-3.11,15-2.86,4.8-7.11,22.88-33.23,43-31.41,26.51,2.39,42.74,52.05,44,86.62,.5,13.66-1.34,24.92-3,32.37,1.14-5.17,4.31-15.63,14-23.8,3.92-3.31,12.22-10.3,19-7.62,5.89,2.33,9.25,11.39,7,21.89,6.85-1.98,16.82-4.23,29-4.76,15.63-.68,31.43-1.37,37,6.66,5.74,8.29-.27,24.64-15,39.03,3.01-.72,6.36-1.39,10-1.9,3.59-.51,6.94-.8,10-.95,.3-1.35,4.56-18.99,19-23.8,15.06-5.01,36.66,5.45,44,27.61,2.3-4.92,6.22-10.9,13-14.28,19.25-9.61,49.43,7.83,64,27.61,12.1,16.42,13.27,34.22,13,43.79,43.16-3.98,74.16,8.9,78,25.7,.71,3.13,1.53,10.99-8,22.85,3.35,1.28,11.48,4.9,17,13.33,9.57,14.62,2.75,30.67,2,32.37,15.06-10.94,27.21-11.66,33-11.42,29.75,1.24,59.44,34.9,66,84.72,6.62-2.56,17.81-5.76,31-3.81,25.32,3.74,49.05,25.08,45,37.12-3.13,9.31-22.94,13.33-46,12.37-12.82,5.51-28.22,10.53-46,13.33-68.52,10.78-124.32-18.94-145-31.41-11.04,3.72-22.38,7.22-34,10.47-116.49,32.59-227.14,30.31-321,14.83-14.64,3.92-33.66,7.51-56,8-16.41,.36-30.92-1.04-43-3-34.68,6.1-61.65,5.1-80,3-14.02-1.6-25.36-4.11-44-4-22.19,.13-40.25,3.87-52,7-19.29,5.92-54.28,13.79-97,7-28.46-4.52-50.87-14.04-66-22-3.62,2.1-50.07,28.15-90,5-14.58-8.45-36.91-28.46-33-49,3.98-20.88,34.48-39.23,74-34Z"/>
    <path class="cls-19" d="M413.12,753.35c-8.74-.86-21.92-.9-36.57,4.37-25.67,9.25-50.26,32.81-46.53,44.29,3.02,9.3,24.1,9.06,32.46,8.97,18.08-.2,32.05-6.68,39.81-11.1,5.45,3.45,32.17,18.95,73.17,3.95,10.27,8.05,50.28,26.08,106.14,24.31,72.86-2.31,97.86-24.31,97.86-19.31,1.92,3.09,29.64,26.9,83.87,23.79,35.94-2.06,58.94-26.61,64.85-33.33,3.93,1.03,10.79,2.21,19,.41,6.16-1.35,10.88-3.91,13.95-5.92,3.9,3.83,11.87,10.47,23.12,12.05,16.98,2.38,34.35-7.78,45.04-25.81,8.36,11.96,21.1,16.33,30.22,11.71,6.11-3.1,9-9.44,10.09-12.31,53.72,34.47,99.25,47.04,114.08,28.74,2.53-3.13,4.63-7.71,5.23-14.71,52.09-5.69,64.74-14.23,65.41-21.53,.91-9.85-19.75-20.55-32.03-24.77-31.23-10.74-59.31,2.87-69.59,8.58-.66-1.12-6.37-10.49-15.95-11.07-9.6-.58-19.17,7.91-21.55,20.75-12.01-19.29-25.61-29.88-33.71-35.21-10.89-7.16-34.81-22.88-61.18-14.17-12.9,4.26-21.64,12.79-26.41,18.35-2.54-2.02-7.63-5.43-14.52-5.88-15.04-.99-24.57,13.07-25.42,14.36,.92-1.29,12.49-17.99,6.66-34.5-6.24-17.66-27.07-20.08-33.02-20.78-27.06-3.15-46.68,19.58-49.9,23.42-1.15-12.24-6.51-54.58-38.58-87.57-9.22-9.49-46.67-47.99-91.78-33.75-44.38,14.01-58.48,67.19-59.48,71.21-9.52-6.29-51.2-32.25-100.49-17.56-8.37,2.49-66.34,20.88-76.05,72-2.89,15.2-.65,28.78,1.81,38.04Z"/>
    <g class="cls-24">
      <circle class="cls-28" cx="2200.65" cy="363.89" r="178.55"/>
      <circle class="cls-17" cx="2294.73" cy="317.69" r="38.38"/>
      <circle class="cls-17" cx="2283.52" cy="410.9" r="17.67"/>
      <circle class="cls-18" cx="2099.31" cy="353.13" r="8.48"/>
    </g>
    <g class="cls-1">
      <ellipse class="cls-28" cx="347.44" cy="351.49" rx="116.76" ry="117.14" transform="translate(-137.9 258.2) rotate(-34.45)"/>
      <ellipse class="cls-17" cx="408.98" cy="321.3" rx="25.1" ry="25.18" transform="translate(-110.03 287.73) rotate(-34.45)"/>
      <ellipse class="cls-17" cx="401.73" cy="382.37" rx="11.55" ry="11.59" transform="translate(-145.85 294.34) rotate(-34.45)"/>
      <ellipse class="cls-18" cx="281.09" cy="344.33" rx="5.54" ry="5.56" transform="translate(-145.49 219.42) rotate(-34.45)"/>
    </g>
    <path class="cls-21" d="M2217.62,775.57c16.39,9.4,30.97,15.73,42.3,20.01,33.12,12.52,72.33,27.34,98.02,7.78,7.61-5.79,6.88-4.18,9.29-8.89-4.13,0,7.22,8.89,36.11,12.23,25.13,2.9,63.97-13.34,63.97-13.34,21.71,18.16,46.91,22.5,62.94,11.12,3.46-2.46,8.43-7.02,12.38-15.56,16.68,2.41,29.89-3.84,31.99-12.23,2.84-11.39-15.44-24.14-17.54-25.57-13.25-9.04-27.15-8.43-33.02-7.78,0-.75-.15-10.99-8.25-16.68-7.01-4.92-14.45-2.57-15.48-2.22,3.89-4.32,14.08-16.82,15.48-35.57,.34-4.57,1.68-22.54-6.19-27.79-8.94-5.97-28.32,5.47-47.46,28.9-2.07-1.38-7.25-4.45-14.45-4.45-2.43,0-8.33,.35-14.45,4.45,.29-.82,3.51-10.51-2.06-18.9-3.97-5.98-9.87-7.46-11.35-7.78,23.85-20.13,27.36-51.38,15.48-66.7-10.78-13.89-31.69-11.43-34.05-11.12-.37-3.25-7.07-57.1-36.11-66.7-31.79-10.5-67.64,39.51-81.51,66.7-11.17,21.87-15,42.46-16.51,55.58-.55-8.2-2.58-21.33-10.32-34.46-18.68-31.69-53.98-35.18-58.81-35.57,1.18-5.25,2.52-13.99,1.03-24.46-.93-6.52-4.53-31.77-21.67-37.8-11.9-4.19-23.54,3.28-26.83,5.56-1.48-.47-9.92-3.01-18.57,2.22-8.46,5.12-10.92,13.9-11.35,15.56,1.96-10.37,3.53-23.59,3.1-38.91-.5-17.67-.92-32.17-9.29-46.69-3.35-5.81-10.76-16.46-25.8-24.46-.76-5.04-4.64-27.63-20.64-36.69-20.01-11.33-53.91,1.37-72.23,37.8,.2-2.31,.62-10.14-4.13-17.79-3.92-6.31-9.2-9.04-11.35-10.01-1.06-9.91-4.3-25.83-15.48-38.91-25.15-29.44-69.26-19.63-82.55-16.68-39.6,8.81-80.55,40.39-91.83,85.6-2.72,10.9-3.16,20.36-3.1,26.68-9.52-1.01-20.28-1.26-31.99,0-43.06,4.64-74.4,27.04-90.8,41.13-21.27-9.52-45.25-3.75-58.81,13.34-16.57,20.88-14.96,55.32,6.19,76.71-5.94-6.42-17.19-16.88-34.05-23.35-8.94-3.43-23.95-9.18-41.27-4.45-26.64,7.28-39.08,33.98-41.27,38.91-12.91-2.59-50.96-8.44-89.77,12.23-18.78,10-31.42,22.85-39.12,32.24-17.58-9.22-47.6-21.64-86-22-56.84-.53-97.5,25.7-113,36-15.57,10.35-27.17,20.99-35,29-.91,4.81-1.99,11.84-2.38,20.36-.75,16.64-1.73,31.47,5.16,38.91,11.97,12.92,36.65,12.54,59.85-3.34,14.58,7.53,31.09,14.53,49.53,20.01,80.7,24.01,152.4,5.5,191.92-8.89,11.09,6.45,23.82,12.65,38.18,17.79,54.31,19.42,103.48,13.43,133.11,6.67,61.28,13.93,137.41,25.37,224.94,25.57,115.62,.26,213.16-19.19,285.82-40.02,5.22,5.56,24.07,24.23,53.66,26.68,21.64,1.79,38.18-6.01,45.4-10.01Z"/>
    <g>
      <path class="cls-16" d="M1252.29,766.37c-23.61,0-47.19-2.21-70.6-6.63-48.65-9.19-94.53-27.5-136.35-54.43-41.82-26.92-77.48-61.1-105.99-101.59-29.52-41.92-50.04-88.79-60.98-139.31-.13-.58,.24-1.15,.82-1.28,.58-.12,1.15,.24,1.28,.82,21.54,99.41,80.51,184.49,166.04,239.55,85.53,55.06,187.38,73.52,286.79,51.98,153.21-33.2,268.86-153.15,294.62-305.59,.1-.58,.64-.99,1.24-.88,.58,.1,.98,.65,.88,1.24-25.91,153.31-142.21,273.95-296.28,307.33-27.04,5.86-54.27,8.79-81.46,8.79Z"/>
      <path class="cls-16" d="M1250.09,741.31c-66.07,0-130.66-18.02-187.36-52.99-79.25-48.88-134.91-125.93-156.72-216.95-.14-.58,.22-1.16,.8-1.3,.58-.14,1.16,.22,1.3,.79,44.82,187.04,229.24,301.21,419.84,259.9,142.71-30.93,250.66-142.51,275.02-284.29,.1-.58,.65-.98,1.24-.88,.58,.1,.98,.66,.88,1.24-24.51,142.64-133.12,254.91-276.69,286.02-26.07,5.65-52.31,8.44-78.31,8.44Z"/>
      <path class="cls-16" d="M1617.37,394.24c-.07,0-.15,0-.22-.02-1.83-.25-3.64-.67-5.4-1.23-.85-.27-1.31-1.18-1.04-2.03,.27-.85,1.18-1.31,2.03-1.04,1.58,.51,3.21,.88,4.85,1.11,.88,.12,1.5,.94,1.38,1.82-.11,.81-.8,1.39-1.6,1.39Zm10.39-.39c-.73,0-1.37-.52-1.54-1.27-.19-.87,.4-1.74,1.27-1.93,.01,0,.03,0,.05-.01,1.61-.35,3.2-.84,4.72-1.46,.83-.33,1.77,.06,2.1,.89,.33,.83-.06,1.77-.89,2.1-1.69,.69-3.46,1.23-5.26,1.62l-.1,.02c-.12,.03-.23,.04-.35,.04Zm-24.78-5.67c-.35,0-.69-.11-.99-.34-1.46-1.13-2.83-2.4-4.07-3.76-.6-.66-.55-1.68,.11-2.28,.66-.6,1.68-.55,2.28,.11,1.11,1.23,2.34,2.36,3.66,3.38,.7,.55,.83,1.56,.29,2.26-.32,.41-.79,.63-1.28,.63Zm38.75-1.47c-.44,0-.88-.18-1.2-.53-.6-.66-.55-1.68,.11-2.28,1.23-1.11,2.36-2.34,3.38-3.65,.54-.7,1.56-.83,2.26-.29,.7,.55,.83,1.56,.29,2.26-1.13,1.46-2.4,2.83-3.76,4.06-.31,.28-.7,.42-1.08,.42Zm-48.2-10.96c-.64,0-1.24-.38-1.5-1.01-.69-1.7-1.24-3.48-1.63-5.29l-.02-.11c-.19-.87,.37-1.73,1.24-1.91,.86-.19,1.73,.37,1.92,1.24l.02,.1c.35,1.62,.85,3.22,1.47,4.76,.33,.83-.06,1.77-.89,2.1-.2,.08-.41,.12-.61,.12Zm56.67-2.16c-.16,0-.33-.03-.5-.08-.85-.27-1.31-1.18-1.04-2.03,.51-1.58,.88-3.21,1.11-4.85,.12-.88,.94-1.5,1.82-1.38,.88,.12,1.5,.94,1.38,1.82-.25,1.83-.67,3.64-1.24,5.4-.22,.68-.85,1.12-1.54,1.12Zm-58.62-13.44c-.07,0-.15,0-.23-.02-.88-.12-1.5-.94-1.37-1.82,.25-1.82,.67-3.64,1.25-5.4,.28-.85,1.18-1.31,2.03-1.03,.85,.28,1.31,1.19,1.03,2.03-.51,1.58-.89,3.21-1.12,4.85-.11,.81-.8,1.39-1.6,1.39Zm57.81-3.43l1.58-.33-1.59,.29c-.35-1.61-.84-3.19-1.45-4.71-.33-.83,.06-1.77,.89-2.1,.83-.33,1.77,.06,2.1,.89,.68,1.68,1.22,3.44,1.61,5.24l-1.57,.4-1.58,.33Zm-51.72-10.94c-.35,0-.7-.11-.99-.34-.7-.55-.83-1.56-.28-2.26,1.13-1.46,2.4-2.82,3.77-4.06,.66-.6,1.68-.54,2.28,.12,.6,.66,.55,1.68-.12,2.28-1.23,1.11-2.37,2.34-3.39,3.65-.32,.41-.79,.62-1.27,.62Zm46.19-1.67c-.44,0-.88-.18-1.2-.53-1.11-1.23-2.34-2.37-3.65-3.38-.7-.55-.83-1.56-.28-2.26s1.56-.83,2.26-.28c1.46,1.13,2.82,2.4,4.06,3.77,.6,.66,.55,1.68-.11,2.28-.31,.28-.7,.42-1.08,.42Zm-33.73-7.74c-.64,0-1.24-.38-1.5-1.01-.33-.83,.07-1.77,.89-2.1,1.68-.68,3.43-1.22,5.21-1.6l.42,1.56,.27,1.59c-1.61,.35-3.18,.83-4.69,1.44-.2,.08-.4,.12-.6,.12Zm20.62-.75c-.17,0-.33-.03-.5-.08-1.58-.51-3.21-.89-4.85-1.12-.88-.12-1.5-.94-1.38-1.82,.12-.88,.94-1.5,1.82-1.38,1.83,.25,3.64,.67,5.4,1.24,.85,.27,1.31,1.19,1.04,2.03-.22,.68-.85,1.12-1.54,1.12Z"/>
      <path class="cls-16" d="M1624.17,450.26c-17.04,0-33.73-4.87-48.4-14.32-20.16-12.98-34.05-33.02-39.13-56.45h0c-10.48-48.36,20.34-96.23,68.7-106.72,48.36-10.48,96.23,20.34,106.72,68.7,5.08,23.43,.73,47.43-12.25,67.59-12.98,20.16-33.02,34.05-56.45,39.13-6.38,1.38-12.81,2.07-19.19,2.07Zm-85.43-71.22c4.96,22.87,18.52,42.43,38.19,55.1,19.67,12.66,43.1,16.91,65.97,11.95,47.2-10.23,77.28-56.95,67.05-104.16-10.23-47.2-56.95-77.28-104.16-67.05-47.2,10.23-77.28,56.95-67.05,104.16Z"/>
      <g>
        <path class="cls-16" d="M1558.28,377.3c-.75,0-1.42-.52-1.58-1.29-.18-.87,.38-1.73,1.25-1.91,5.94-1.23,11.87-2.48,17.81-3.73,.87-.18,1.73,.37,1.91,1.25,.18,.87-.37,1.73-1.25,1.91-5.94,1.25-11.88,2.5-17.82,3.73-.11,.02-.22,.03-.33,.03Z"/>
        <path class="cls-16" d="M1666.78,353.78c-.74,0-1.41-.52-1.58-1.27-.19-.87,.36-1.73,1.24-1.92l18.97-4.11c.87-.19,1.73,.36,1.92,1.24,.19,.87-.36,1.73-1.24,1.92l-18.97,4.11c-.12,.02-.23,.04-.34,.04Z"/>
      </g>
      <g>
        <path class="cls-16" d="M1614,316.01c-.75,0-1.42-.52-1.58-1.28-1.25-5.94-2.5-11.88-3.73-17.82-.18-.87,.38-1.73,1.25-1.91,.86-.18,1.73,.38,1.91,1.25,1.23,5.94,2.48,11.87,3.73,17.81,.18,.87-.37,1.73-1.25,1.91-.11,.02-.22,.04-.33,.04Z"/>
        <path class="cls-16" d="M1637.9,425.66c-.74,0-1.41-.52-1.58-1.27l-4.11-18.97c-.19-.87,.36-1.73,1.24-1.92,.87-.19,1.73,.36,1.92,1.24l4.11,18.97c.19,.87-.36,1.73-1.24,1.92-.12,.02-.23,.04-.34,.04Z"/>
      </g>
      <g>
        <path class="cls-16" d="M1584.49,336.49c-.3,0-.61-.08-.88-.26-5.08-3.32-10.15-6.65-15.22-9.98-.75-.49-.95-1.49-.46-2.23,.49-.74,1.49-.95,2.23-.46,5.07,3.33,10.14,6.66,15.21,9.97,.75,.49,.96,1.49,.47,2.23-.31,.47-.83,.73-1.35,.73Z"/>
        <path class="cls-16" d="M1678.84,397.26c-.3,0-.6-.08-.87-.26l-16.31-10.53c-.75-.48-.96-1.48-.48-2.23,.48-.75,1.48-.96,2.23-.48l16.31,10.53c.75,.48,.96,1.48,.48,2.23-.31,.48-.83,.74-1.36,.74Z"/>
      </g>
      <g>
        <path class="cls-16" d="M1649.56,322.39c-.29,0-.59-.08-.86-.25-.75-.48-.98-1.47-.5-2.23,3.25-5.12,6.49-10.25,9.72-15.38,.47-.75,1.47-.98,2.23-.51,.75,.47,.98,1.47,.5,2.23-3.23,5.13-6.48,10.26-9.73,15.39-.31,.48-.83,.75-1.36,.75Z"/>
        <path class="cls-16" d="M1588.83,416.77c-.3,0-.6-.08-.87-.26-.75-.48-.97-1.48-.49-2.23l10.49-16.34c.48-.75,1.48-.97,2.23-.49,.75,.48,.97,1.48,.49,2.23l-10.49,16.34c-.31,.48-.83,.74-1.36,.74Z"/>
      </g>
      <path class="cls-16" d="M919.87,446.21c.07-.84,.8-1.47,1.64-1.4,.5,.04,1.01,.08,1.51,.11,.89,.06,1.48,.78,1.42,1.62-.05,.84-.78,1.48-1.62,1.42-.52-.03-1.04-.07-1.55-.11h-.05c-.82-.09-1.42-.81-1.35-1.64Zm-13.98-.42c-.51-.1-1.02-.2-1.53-.3-.83-.17-1.36-.97-1.2-1.79,.17-.82,.98-1.36,1.79-1.2,.5,.1,.99,.2,1.49,.29,.83,.16,1.37,.95,1.22,1.78-.15,.79-.88,1.32-1.66,1.23-.04,0-.08-.01-.12-.02Zm30.86,.88c-.04-.84,.61-1.55,1.46-1.59,.5-.02,1.01-.05,1.51-.08,.85-.05,1.56,.59,1.61,1.43,.05,.84-.59,1.56-1.43,1.61-.52,.03-1.04,.06-1.56,.08-.08,0-.16,0-.23,0-.74-.08-1.32-.69-1.36-1.45Zm-47.4-5.1l-1.47-.48c-.8-.27-1.23-1.13-.97-1.93,.27-.8,1.13-1.23,1.93-.97l1.45,.47c.8,.26,1.24,1.12,.98,1.92-.23,.7-.91,1.12-1.61,1.05-.1-.01-.2-.03-.31-.06Zm64.21,3.49c-.14-.83,.42-1.62,1.24-1.76l1.5-.26c.84-.16,1.62,.4,1.77,1.23,.15,.83-.4,1.62-1.23,1.77l-1.53,.27c-.14,.02-.28,.03-.42,.01-.66-.07-1.22-.57-1.34-1.26Zm-80.11-9.72c-.47-.22-.94-.44-1.4-.66-.76-.36-1.08-1.27-.72-2.03s1.27-1.07,2.03-.72c.46,.22,.91,.44,1.37,.65,.76,.35,1.09,1.26,.74,2.02-.28,.61-.91,.94-1.54,.87-.16-.02-.32-.06-.48-.13Zm96.59,6.04c-.24-.8,.21-1.66,1.02-1.9,.49-.15,.97-.3,1.46-.45,.81-.26,1.66,.2,1.91,1,.25,.8-.19,1.66-1,1.91-.49,.16-.99,.31-1.49,.46-.2,.06-.41,.08-.6,.06-.59-.06-1.11-.47-1.3-1.07Zm-111.6-14.19l-1.31-.83c-.71-.45-.91-1.4-.46-2.11,.45-.71,1.39-.92,2.1-.46l1.28,.81c.71,.45,.93,1.39,.48,2.1-.32,.51-.89,.77-1.46,.7-.22-.02-.44-.1-.64-.22Zm127.51,8.5c-.34-.77,0-1.67,.77-2.01,.47-.21,.93-.41,1.39-.62,.76-.35,1.67-.01,2.02,.75,.35,.76,.01,1.67-.75,2.02-.47,.22-.95,.43-1.42,.64-.25,.11-.52,.15-.78,.12-.52-.06-1-.38-1.23-.9Zm-141.38-18.42c-.4-.33-.8-.65-1.2-.98-.65-.54-.73-1.5-.2-2.15,.54-.65,1.5-.74,2.15-.2,.39,.32,.78,.64,1.17,.96,.65,.53,.75,1.49,.22,2.14-.34,.42-.85,.61-1.35,.55-.28-.03-.56-.14-.8-.33Zm156.46,10.82c-.43-.72-.2-1.66,.52-2.09,.44-.26,.87-.52,1.3-.79,.72-.44,1.65-.22,2.1,.5,.44,.72,.22,1.65-.5,2.1-.44,.27-.89,.54-1.33,.81-.3,.18-.63,.24-.95,.21-.46-.05-.89-.31-1.15-.73Zm-169.02-22.37c-.36-.37-.71-.75-1.07-1.13-.58-.61-.55-1.58,.07-2.15,.61-.58,1.58-.55,2.15,.07,.35,.37,.7,.73,1.05,1.1,.58,.61,.56,1.57-.05,2.15-.34,.32-.79,.46-1.22,.41-.34-.04-.68-.19-.93-.46Zm183.05,12.98c-.52-.66-.4-1.62,.27-2.14,.4-.31,.8-.62,1.19-.94,.66-.52,1.61-.42,2.14,.24,.52,.66,.42,1.62-.24,2.14-.4,.32-.81,.64-1.22,.96-.32,.25-.72,.35-1.1,.31s-.77-.24-1.04-.58Zm-194.1-25.99c-.31-.41-.62-.83-.92-1.25-.5-.68-.35-1.63,.33-2.13,.68-.49,1.63-.35,2.13,.33,.3,.41,.6,.82,.91,1.22,.51,.67,.37,1.63-.31,2.13-.32,.24-.71,.34-1.08,.3-.41-.04-.79-.25-1.06-.6Zm206.89,14.96c-.59-.6-.59-1.56,0-2.15,.36-.36,.71-.72,1.07-1.08,.59-.6,1.55-.61,2.15-.02,.6,.59,.61,1.55,.02,2.15-.36,.37-.72,.74-1.09,1.1-.34,.34-.8,.48-1.24,.44-.33-.04-.66-.18-.91-.44Zm-216.27-29.22c-.26-.45-.51-.9-.77-1.35-.41-.74-.15-1.66,.59-2.07,.74-.41,1.66-.15,2.07,.59,.25,.44,.5,.88,.75,1.32,.42,.73,.17,1.66-.56,2.08-.29,.17-.61,.23-.92,.19-.47-.05-.91-.32-1.16-.76Zm227.6,16.71c-.66-.52-.78-1.47-.26-2.14l.93-1.2c.51-.67,1.47-.79,2.14-.28,.67,.51,.79,1.47,.28,2.14l-.95,1.22c-.34,.43-.86,.63-1.37,.58-.27-.03-.54-.13-.77-.31Zm-235.16-32.01c-.2-.48-.4-.96-.6-1.44-.32-.78,.06-1.67,.84-1.98,.78-.32,1.67,.06,1.98,.84,.19,.47,.38,.94,.58,1.4,.33,.78-.04,1.67-.81,2-.25,.1-.51,.14-.75,.11-.53-.06-1.02-.39-1.24-.92Zm244.87,18.21c-.72-.43-.96-1.37-.52-2.09,.26-.43,.52-.86,.77-1.3,.42-.73,1.35-.97,2.08-.55,.73,.42,.97,1.36,.55,2.08-.26,.45-.52,.89-.79,1.33-.32,.53-.9,.79-1.47,.73-.21-.02-.42-.09-.62-.21Zm-250.5-34.34l-.41-1.5c-.22-.81,.26-1.65,1.08-1.87,.82-.22,1.65,.26,1.87,1.08l.4,1.47c.23,.81-.25,1.65-1.06,1.88-.19,.05-.38,.07-.57,.05-.6-.06-1.13-.49-1.3-1.11Zm258.43,19.45c-.77-.34-1.12-1.24-.78-2.01,.2-.46,.41-.93,.61-1.39,.33-.77,1.23-1.13,2-.8,.77,.33,1.13,1.23,.8,2-.2,.48-.41,.95-.62,1.43-.28,.62-.91,.97-1.56,.9-.15-.02-.31-.06-.45-.12Zm-262.02-36.15l-.22-1.53c-.12-.83,.46-1.6,1.3-1.72,.84-.12,1.6,.46,1.72,1.3l.22,1.51c.12,.83-.45,1.61-1.29,1.73-.13,.02-.26,.02-.39,0-.67-.07-1.24-.59-1.34-1.29Zm268.05,20.38c-.81-.24-1.26-1.09-1.02-1.9,.15-.48,.29-.97,.43-1.46,.23-.81,1.07-1.27,1.89-1.04,.81,.23,1.27,1.08,1.04,1.89-.14,.5-.29,.99-.44,1.49-.21,.71-.91,1.15-1.62,1.08-.09,0-.18-.03-.28-.06Zm-269.54-37.38c-.01-.52-.02-1.04-.03-1.55-.01-.84,.66-1.53,1.5-1.55,.87,0,1.53,.66,1.55,1.5,0,.51,.02,1.01,.03,1.52,.02,.84-.64,1.54-1.48,1.56-.07,0-.14,0-.21,0-.75-.08-1.34-.7-1.36-1.47Zm273.58,20.99c-.83-.14-1.39-.93-1.25-1.76,.08-.5,.17-1,.25-1.5,.13-.83,.93-1.4,1.74-1.26,.83,.13,1.4,.91,1.26,1.74-.08,.51-.17,1.02-.25,1.53-.14,.8-.87,1.34-1.66,1.26-.03,0-.06,0-.09-.01Zm-272.97-38.05c.05-.52,.1-1.03,.16-1.55l.03-.28c.09-.84,.84-1.44,1.68-1.35s1.44,.84,1.35,1.68l-.03,.28c-.05,.5-.11,1.01-.15,1.51-.08,.84-.83,1.45-1.66,1.37h-.02c-.83-.09-1.43-.83-1.35-1.66Zm273.53,19.69c.02-.51,.05-1.01,.06-1.52,.03-.84,.74-1.5,1.58-1.47,.84,.03,1.5,.74,1.47,1.58-.02,.52-.04,1.03-.07,1.55-.04,.84-.75,1.49-1.59,1.45-.03,0-.06,0-.09,0-.8-.09-1.4-.78-1.36-1.59Zm-269.65-35c-.82-.18-1.34-1-1.16-1.82,.11-.51,.23-1.01,.35-1.52,.19-.82,1.01-1.33,1.83-1.13,.82,.19,1.33,1.02,1.13,1.83-.12,.49-.23,.98-.34,1.47-.17,.77-.89,1.27-1.65,1.19-.05,0-.11-.02-.17-.03Zm269.42,18.31c-.04-.51-.08-1.01-.12-1.51-.07-.84,.55-1.58,1.39-1.65,.85-.08,1.58,.55,1.65,1.39,.04,.52,.09,1.03,.12,1.55,.06,.84-.57,1.57-1.4,1.63-.1,0-.19,0-.28,0-.72-.08-1.3-.66-1.35-1.4Zm-264.91-34.58c-.79-.29-1.2-1.16-.91-1.95l.53-1.45c.29-.79,1.17-1.19,1.96-.9,.79,.29,1.19,1.17,.9,1.96l-.52,1.43c-.24,.67-.91,1.07-1.59,1-.12-.01-.24-.04-.36-.08Zm262.63,18.04c-.1-.5-.2-1-.31-1.49-.18-.82,.35-1.63,1.17-1.81,.82-.17,1.63,.35,1.81,1.17,.11,.51,.21,1.02,.32,1.53,.17,.82-.37,1.63-1.19,1.8-.16,.03-.31,.04-.47,.02-.64-.07-1.19-.55-1.33-1.21Zm-256.14-33.62c-.75-.38-1.05-1.3-.67-2.05l.71-1.38c.39-.75,1.31-1.04,2.05-.65,.75,.39,1.04,1.31,.65,2.05l-.69,1.35c-.3,.58-.91,.89-1.52,.83-.18-.02-.36-.07-.53-.16Zm251.82,17.48c-.16-.48-.33-.96-.49-1.44-.27-.8,.15-1.66,.94-1.94,.79-.28,1.66,.15,1.94,.94,.17,.49,.34,.98,.5,1.47,.27,.8-.16,1.66-.96,1.93-.21,.07-.43,.09-.65,.07-.57-.06-1.09-.45-1.28-1.03Zm-243.45-32.15c-.7-.47-.88-1.42-.41-2.11,.29-.43,.58-.85,.87-1.28,.48-.69,1.42-.87,2.12-.39,.69,.48,.87,1.43,.39,2.12-.29,.42-.57,.83-.85,1.25-.33,.49-.88,.72-1.43,.66-.24-.03-.47-.11-.69-.25Zm237.17,16.66c-.22-.46-.44-.91-.66-1.37-.37-.75-.06-1.67,.69-2.04,.75-.37,1.67-.06,2.04,.69,.23,.47,.46,.93,.68,1.4,.36,.76,.04,1.67-.72,2.03-.27,.13-.55,.17-.82,.14-.51-.05-.98-.36-1.21-.86Zm-227.06-30.17c-.64-.55-.7-1.51-.15-2.15,.34-.39,.68-.78,1.02-1.16,.56-.63,1.52-.69,2.15-.13,.63,.56,.69,1.52,.13,2.15-.34,.38-.67,.76-1,1.14-.34,.39-.84,.57-1.32,.52-.3-.03-.59-.15-.83-.36Zm218.93,15.59l-.83-1.28c-.46-.7-.26-1.65,.44-2.11,.71-.46,1.65-.26,2.11,.44l.84,1.3c.45,.71,.25,1.65-.46,2.11-.3,.19-.65,.27-.98,.23-.44-.05-.86-.29-1.12-.69Zm-207.24-27.76c-.56-.63-.51-1.59,.12-2.15,.38-.35,.77-.69,1.16-1.03,.63-.56,1.59-.49,2.15,.14,.56,.63,.5,1.59-.14,2.15-.38,.33-.76,.67-1.14,1.01-.33,.3-.77,.43-1.18,.38-.36-.04-.71-.21-.97-.5Zm197.39,14.28c-.32-.39-.65-.78-.98-1.17-.54-.64-.46-1.6,.18-2.15,.65-.54,1.6-.46,2.15,.18,.33,.39,.67,.79,1,1.19,.54,.65,.45,1.61-.2,2.15-.33,.27-.74,.38-1.14,.34s-.75-.22-1.01-.54Zm-184.29-24.93c-.48-.69-.32-1.64,.37-2.12,.43-.3,.85-.59,1.28-.89,.69-.47,1.64-.3,2.12,.4,.47,.69,.3,1.64-.4,2.12-.42,.28-.83,.57-1.25,.86-.31,.22-.68,.31-1.04,.27-.42-.05-.82-.27-1.08-.64Zm172.87,12.76c-.37-.35-.74-.69-1.11-1.03-.62-.57-.66-1.53-.09-2.15,.57-.62,1.53-.66,2.15-.09,.38,.35,.76,.7,1.13,1.06,.61,.58,.64,1.54,.06,2.15-.34,.36-.81,.52-1.27,.47-.32-.03-.63-.17-.88-.41Zm-158.57-21.74c-.39-.74-.11-1.67,.64-2.06l1.37-.72c.75-.39,1.67-.09,2.05,.65,.39,.75,.09,1.67-.65,2.05l-1.35,.71c-.28,.15-.58,.2-.87,.17-.49-.05-.94-.34-1.19-.8Zm145.75,11.06l-1.23-.89c-.68-.49-.84-1.44-.35-2.13,.49-.68,1.44-.84,2.13-.35l1.25,.91c.68,.5,.83,1.45,.33,2.13-.33,.45-.87,.67-1.39,.61-.26-.03-.51-.12-.74-.29Zm-130.45-18.21c-.3-.79,.09-1.67,.88-1.97,.48-.19,.97-.37,1.46-.55,.79-.29,1.67,.11,1.96,.9,.29,.79-.11,1.67-.9,1.96-.48,.18-.95,.35-1.43,.53-.23,.09-.47,.12-.71,.09-.55-.06-1.05-.42-1.26-.97Zm116.41,9.19c-.44-.25-.88-.49-1.32-.73-.74-.4-1.01-1.33-.61-2.07,.4-.74,1.33-1.01,2.07-.61,.46,.25,.91,.5,1.36,.75,.73,.41,1,1.34,.59,2.07-.31,.55-.9,.84-1.49,.77-.2-.02-.4-.08-.58-.19Zm-100.34-14.41c-.2-.82,.3-1.64,1.12-1.84,.5-.12,1.01-.25,1.51-.36,.82-.2,1.64,.32,1.83,1.13,.19,.82-.32,1.64-1.14,1.83-.49,.12-.99,.24-1.48,.36-.18,.04-.35,.05-.53,.04-.62-.07-1.16-.51-1.32-1.15Zm85.3,7.19c-.47-.19-.94-.38-1.41-.56-.78-.31-1.17-1.19-.86-1.98,.31-.79,1.2-1.17,1.98-.86,.48,.19,.96,.38,1.44,.58,.78,.32,1.16,1.21,.84,1.98-.26,.65-.92,1.01-1.57,.94-.14-.01-.28-.05-.41-.1Zm-68.71-10.38c-.1-.84,.5-1.59,1.33-1.69,.51-.06,1.03-.12,1.54-.17,.84-.09,1.59,.52,1.68,1.35,.09,.84-.52,1.59-1.35,1.68-.5,.05-1.01,.11-1.51,.17-.12,.01-.23,.01-.34,0-.69-.07-1.26-.62-1.35-1.34Zm52.88,5.07c-.49-.13-.98-.26-1.47-.39-.81-.21-1.31-1.04-1.1-1.85,.21-.81,1.02-1.31,1.85-1.1,.5,.13,1,.26,1.5,.39,.81,.22,1.29,1.05,1.08,1.87-.2,.74-.9,1.2-1.63,1.12-.08,0-.15-.02-.23-.04Zm-36.03-6.19c0-.84,.69-1.52,1.53-1.51,.52,0,1.03,.01,1.55,.02,.82,.03,1.51,.71,1.5,1.55-.01,.84-.71,1.51-1.55,1.5-.51,0-1.01-.02-1.52-.02-.05,0-.1,0-.15,0-.77-.08-1.36-.74-1.36-1.52Zm19.67,2.86c-.5-.07-1-.14-1.5-.2-.83-.11-1.42-.87-1.32-1.71,.11-.83,.87-1.36,1.71-1.32,.51,.07,1.02,.14,1.54,.21,.83,.12,1.41,.89,1.3,1.72-.11,.82-.86,1.39-1.67,1.3-.02,0-.03,0-.05,0Z"/>
      <path class="cls-16" d="M932.01,473.87c-75.65,0-143.9-52.66-160.56-129.54-9.3-42.9-1.33-86.85,22.43-123.75,23.76-36.91,60.47-62.35,103.36-71.65,88.56-19.19,176.21,37.24,195.4,125.79s-37.24,176.21-125.79,195.4c-11.67,2.53-23.35,3.75-34.83,3.75Zm-158.46-130c18.94,87.39,105.45,143.08,192.84,124.15,87.39-18.94,143.09-105.45,124.15-192.84-18.94-87.39-105.45-143.09-192.84-124.15-42.33,9.17-78.56,34.29-102.01,70.71-23.45,36.42-31.31,79.8-22.13,122.13Z"/>
      <path class="cls-16" d="M933.17,427.74c-23.22,0-45.99-6.65-65.98-19.52-27.48-17.69-46.42-45.02-53.35-76.96-6.92-31.94-.99-64.66,16.7-92.14,17.69-27.48,45.02-46.42,76.96-53.35,65.94-14.29,131.2,27.73,145.49,93.66,14.29,65.93-27.73,131.2-93.66,145.49-8.7,1.88-17.46,2.82-26.16,2.82Zm.27-242.61c-8.41,0-16.94,.89-25.48,2.74-31.38,6.8-58.23,25.41-75.61,52.41-17.38,27-23.21,59.14-16.41,90.52,6.8,31.38,25.41,58.23,52.41,75.61,27,17.38,59.14,23.21,90.52,16.41,64.77-14.04,106.05-78.16,92.02-142.93-12.19-56.23-62.11-94.76-117.45-94.76Z"/>
      <path class="cls-16" d="M880.13,390.84c-2.98,0-5.98-.22-9-.65-17.99-2.6-34.27-12.61-45.84-28.17-.35-.48-.26-1.15,.22-1.5,.48-.35,1.15-.26,1.5,.22,11.22,15.1,27,24.81,44.42,27.33,15.32,2.22,30.27-1.45,42.09-10.33,20.76-15.59,28.53-45.21,18.88-72.02-12.41-28.98-3.15-62.52,22.04-79.69,21.94-14.96,51.76-14.26,74.19,1.76,.48,.35,.6,1.02,.25,1.5-.34,.48-1.02,.6-1.5,.25-21.7-15.5-50.53-16.19-71.73-1.74-24.34,16.6-33.28,49.04-21.25,77.13,9.99,27.75,1.92,58.37-19.59,74.52-9.95,7.47-22.01,11.39-34.68,11.39Z"/>
      <path class="cls-16" d="M883.03,368.29c-4.76,0-9.44-1.36-13.54-4-5.64-3.63-9.52-9.24-10.94-15.79h0c-1.42-6.55-.2-13.27,3.43-18.9s9.24-9.52,15.79-10.94c13.53-2.94,26.92,5.69,29.85,19.22,2.93,13.53-5.69,26.92-19.22,29.85-1.79,.39-3.58,.58-5.37,.58Zm-22.38-20.25c2.68,12.37,14.92,20.25,27.29,17.57,12.37-2.68,20.25-14.92,17.57-27.29-2.68-12.37-14.92-20.25-27.29-17.57-5.99,1.3-11.12,4.85-14.44,10.01-3.32,5.15-4.43,11.29-3.13,17.28h0Z"/>
      <path class="cls-16" d="M986.84,293.37c-11.56,0-21.98-8.04-24.53-19.79h0c-1.42-6.55-.2-13.27,3.43-18.9s9.24-9.52,15.79-10.94c6.55-1.42,13.27-.2,18.9,3.43,5.64,3.63,9.52,9.24,10.94,15.79,2.93,13.53-5.69,26.92-19.22,29.85-1.78,.39-3.57,.57-5.32,.57Zm-22.43-20.24c2.68,12.37,14.92,20.25,27.29,17.57,12.37-2.68,20.25-14.92,17.57-27.29-2.68-12.37-14.92-20.25-27.29-17.57-5.99,1.3-11.12,4.85-14.44,10.01-3.32,5.15-4.43,11.29-3.13,17.28h0Z"/>
      <path class="cls-16" d="M1617.67,271.97c-.46,0-.89-.3-1.03-.77C1560.77,80.09,1369.61-31.72,1171.99,11.11c-90.08,19.52-163.28,65.57-217.56,136.87-.36,.47-1.03,.56-1.51,.2-.47-.36-.56-1.04-.2-1.51,54.61-71.72,128.23-118.04,218.82-137.67,95.59-20.72,193.87-5.43,276.74,43.04,82.88,48.48,143.4,126.09,170.43,218.54,.17,.57-.16,1.17-.73,1.33-.1,.03-.2,.04-.3,.04Z"/>
      <path class="cls-16" d="M1593.94,279.31c-.46,0-.89-.3-1.03-.77-52.29-178.38-230.95-282.72-415.57-242.72-80.16,17.37-146.12,57.31-196.05,118.7-.38,.46-1.05,.53-1.51,.16-.46-.38-.53-1.05-.16-1.51,50.25-61.78,116.62-101.97,197.27-119.45,89.24-19.34,181.09-5.06,258.62,40.22,77.55,45.28,134.18,117.73,159.47,204,.17,.57-.16,1.17-.73,1.33-.1,.03-.2,.04-.3,.04Z"/>
    </g>
    <g>
      <path class="cls-38" d="M2008.56,791.21c64.93-1.81,129.8-2.57,194.66-2.2,26.6-38.36,42.24-85.28,42.24-135.94,0-129.67-102.45-234.79-228.83-234.79s-228.83,105.12-228.83,234.79c0,52.8,16.99,101.53,45.67,140.76,58.37,.67,116.75-.99,175.1-2.61Z"/>
      <path class="cls-27" d="M1889.94,793.83c39.54-.4,79.08-1.51,118.61-2.61,45.95-1.28,91.86-2.04,137.77-2.25,34.57-34.77,56.03-83.22,56.03-136.81,0-105.8-83.6-191.58-186.72-191.58s-186.72,85.77-186.72,191.58c0,56.14,23.53,106.63,61.03,141.67Z"/>
      <path class="cls-8" d="M1962.71,468.55c28.67,106.4,57.46,212.98,86.65,318.99"/>
      <path class="cls-8" d="M2061.88,466.13c-26.69,107.54-56.73,215.4-83.28,322.8"/>
      <line class="cls-10" x1="2144.51" y1="514.58" x2="1883.61" y2="788.32"/>
      <line class="cls-8" x1="2196.46" y1="604.21" x2="1834.03" y2="698.69"/>
      <line class="cls-8" x1="2194.1" y1="709.59" x2="1836.39" y2="599.37"/>
      <path class="cls-8" d="M2133.35,786.09c-5.6-6.09-11.19-12.17-16.79-18.26-8.03-8.73-16.05-17.46-24.08-26.19-9.77-10.62-19.54-21.25-29.31-31.87-10.82-11.77-21.64-23.54-32.47-35.31-11.19-12.17-22.38-24.33-33.56-36.5-10.87-11.82-21.73-23.63-32.6-35.45-9.85-10.72-19.71-21.43-29.56-32.15-8.12-8.83-16.25-17.67-24.37-26.5-5.78-6.29-11.56-12.57-17.34-18.86-2.71-2.95-5.42-5.89-8.13-8.84l-.35-.38"/>
      <ellipse class="cls-38" cx="2013.13" cy="650.87" rx="101.99" ry="104.64"/>
      <path class="cls-9" d="M1889.94,793.83c39.54-.4,79.08-1.51,118.61-2.61,45.95-1.28,91.86-2.04,137.77-2.25,34.57-34.77,56.03-83.22,56.03-136.81,0-105.8-83.6-191.58-186.72-191.58s-186.72,85.77-186.72,191.58c0,56.14,23.53,106.63,61.03,141.67Z"/>
      <path class="cls-9" d="M2008.56,791.21c61.13-1.7,122.2-2.48,183.27-2.27,28.03-37.87,44.68-85.09,44.68-136.31,0-124.59-98.44-225.59-219.87-225.59s-219.87,101-219.87,225.59c0,53.49,18.16,102.62,48.48,141.29,54.44,.34,108.89-1.2,163.31-2.72Z"/>
      <path class="cls-11" d="M2008.56,791.21c64.93-1.81,129.8-2.57,194.66-2.2,26.6-38.36,42.24-85.28,42.24-135.94,0-129.67-102.45-234.79-228.83-234.79s-228.83,105.12-228.83,234.79c0,52.8,16.99,101.53,45.67,140.76,58.37,.67,116.75-.99,175.1-2.61Z"/>
    </g>
    <path class="cls-37" d="M1957.42,633.45c1.57,.16,3.14,.33,4.79,.5-.06,.28-.06,.55-.14,.57-1.5,.48-1.15,1.74-1.15,2.84-.01,1.98,0,3.95,0,6.08h25.36v4.93h-25.27v9.09h19.81v4.91h-19.8v10.11h29.8v5.27h-64.24v-5.18h29.34v-10.08h-19.04c0-1.54-.06-2.94,.05-4.33,.02-.24,.73-.61,1.12-.62,3.94-.05,7.88-.03,11.81-.03,1.99,0,3.97,0,6.04,0v-8.97c-.23-.04-.43-.11-.63-.11-5.02,0-10.04-.03-15.06,.03-.46,0-1.07,.46-1.34,.89-2.22,3.47-4.37,6.99-6.56,10.48-.25,.4-.59,.73-.93,1.14-1.21-1.1-2.33-2.12-3.56-3.25,5.78-7.14,9.61-15.38,12.5-24.22,1.87,.77,3.65,1.5,5.55,2.28-3.08,1.64-2.44,5.15-4.4,7.59h14.45v-10.06h-20.59v-30.9h46.75v30.78h-24.67c0,.09,0,.17,0,.26Zm-17.49-5.14h37.25v-8.16h-37.25v8.16Zm0-12.95h37.27v-8.03h-37.27v8.03Z"/>
    <path class="cls-37" d="M2007.77,672.49h1.72c7.4,0,14.8-.02,22.2,.02,1.06,0,1.42-.28,1.4-1.41-.06-4.15-.02-8.3-.02-12.6h-20v-5.31h19.94v-35.55c2.1,.16,4.01,.31,5.97,.46-.07,.26-.07,.46-.15,.49-1.54,.66-1.16,2.04-1.16,3.25,0,9.86,0,19.73,0,29.59v1.69h20.67v5.33h-20.59v14.01h24.88v5.17c-.44,.03-.89,.08-1.35,.08-17.35,0-34.71,0-52.06,.03-1.11,0-1.57-.24-1.47-1.46,.1-1.22,.02-2.45,.02-3.8Z"/>
    <path class="cls-37" d="M2000.72,680.27c-1.46-1.2-2.73-2.26-3.88-3.21,1.03-3.61,2.18-7.12,3.04-10.7,1.78-7.45,2.47-15.07,2.58-22.72,.16-11.18,.15-22.37,.22-33.55,0-.44,0-.88,0-1.57,.57,0,1.06,0,1.56,0,8.09,0,16.18-.02,24.27,.03,1.14,0,1.5-.3,1.46-1.48-.08-2.82-.03-5.64-.03-8.66,2.15,.17,4.14,.32,6.11,.47,0,.24,.03,.38,0,.4-1.58,.79-1.24,2.28-1.25,3.63,0,1.81,0,3.61,0,5.57h27.56v5.52h-54.94c-.03,.58-.06,1.01-.06,1.44-.03,7.56,.04,15.12-.11,22.68-.23,11.94-1.03,23.83-4.29,35.38-.64,2.27-1.48,4.47-2.25,6.77Z"/>
    <path class="cls-37" d="M2049.13,619.35c1.79,.38,3.53,.74,5.26,1.1,.05,.1,.1,.19,.14,.29-2.02,.88-1.58,2.82-1.99,4.37-.4,1.49-.66,3.02-1.14,4.48-.35,1.03-.06,1.63,.63,2.39,3.46,3.83,6.83,7.74,10.25,11.6,.68,.77,.84,1.39,.02,2.22-.79,.8-1.41,1.77-2.11,2.67-3.57-4.25-7.1-8.44-10.81-12.85-2.14,4.7-4.47,8.93-8.09,12.07-1.11-1.06-2.14-2.06-3.25-3.13,7.16-6.74,9.46-15.72,11.08-25.21Z"/>
    <path class="cls-37" d="M2020.75,635.9c-2.07,5.11-4.44,9.64-8.18,13.18-1.07-1.12-2.11-2.21-3.22-3.37,7.06-7.06,9.26-16.49,10.83-26.35,1.84,.34,3.58,.66,5.28,.98,.04,.17,.06,.24,.05,.25-1.9,1.13-1.48,3.24-1.96,4.95-.35,1.27-.45,2.62-.9,3.85-.49,1.36-.08,2.19,.81,3.23,2.81,3.28,5.48,6.69,8.2,10.05-1.14,1.47-2.09,2.7-3,3.88-2.62-3.53-5.19-6.99-7.92-10.66Z"/>
    <path class="cls-19" d="M1222.45,690.84c-7.74-1.19-17.73-1.75-29.03,.14-3.58,.6-6.91,1.39-9.96,2.26,9.96-28.32-.24-55.67-18.76-64.37-14.35-6.74-29.88-.48-34.03,1.34-2.05-7.54-6.81-20.32-18.42-30.36-23.09-19.97-64.96-21.92-89.08,3.28-16.26,16.99-21.13,42.85-13.29,66.76-5.76,2.75-13.1,7.47-17.31,15.67-4.84,9.43-3.45,19.41-6.38,19.88-2.06,.33-3.93-4.39-6.83-9.13-6.59-10.79-16.8-19.17-25.57-22.5-2.71-1.03-23.21-8.81-35.07,3.32-8.34,8.54-9.4,23.86-1.71,36.97-5.28-2.75-13.78-6.5-24.84-8.48-10.71-1.92-17.79-3.19-24.01,.54-8.86,5.3-10.89,17.68-12.54,27.76-2.72,16.58,1.02,26.49-5.62,31.9-2.89,2.35-6.46,2.81-9.06,2.83-9.59-3.96-25.56-8.9-44.88-6.87-19.44,2.04-44.53,11.38-44.42,21.15,.04,3.16,.14,20.18,36.8,22.91,48.4,3.6,74-4,74.85-3.75,58.15,12.75,120.87-8.64,124.15-6.61,39.14,24.31,123.18,10.28,127.84,9.47,14.94-2.61,35.7-7.59,59.36-17.86,9.35,5.6,34.54,18.86,63.78,12.23,6.07-1.38,11.45-3.41,16.11-5.69,1.88,1.45,10.16,7.49,21.88,6.42,13.54-1.23,21.07-11,22.25-12.57,9.98-.91,21.42-1.24,34.01-.34,24.42,1.74,44.72,7.48,59.76,13.16,4.81,3.09,12.61,7.12,22.84,8.44,23.82,3.07,41.58-11.05,45.28-14.13,2.16,.42,8.25,1.31,15.04-1.71,6.63-2.95,27.86,13.93,87.75,13.7,48.1,1.24,80.33-10.15,80.22-10.45s41.32,8.71,63.89,10.69c59.56,5.22,126,2,194-11,16,7,39-.15,51.19-.73,15.71-.74,26.45-8.43,30.23-11.42,2.59-9.91,.82-16.5-.61-20.02-7.06-17.29-33.69-27.27-65.6-21.27,3.18-6.16,2.98-13.45-.63-19.02-4.46-6.87-13.42-10.01-21.86-7.42-1.66-5.09-8.26-23.24-26.38-32.52-21.44-10.98-50.26-5.07-70.31,15.65,2.92-5,6.83-13.29,7.46-23.86,1.64-27.46-19.99-51.47-41.81-61.82-6.39-3.03-19.51-8.07-37.88-6.73-4.24-6.09-11.53-9.33-18.84-8.37-7.58,1-13.93,6.35-16.27,13.69-2.89-1.73-6.19-3.5-9.9-5.19-3.9-1.77-7.58-3.15-10.92-4.21-1.7-3.77-4.66-9.1-9.73-14.19-11.15-11.19-29.16-17.85-43.74-13.85-20.7,5.68-36.56,33.38-29.25,64.45-4.35-6.24-11.54-14.48-22.61-20.44-31.47-16.94-65.85,.05-71.06,2.63-38.94,19.25-48.13,61.26-49.3,67.06-8.55-25.4-27.8-42.92-45.16-42.43-22.84,.65-49.53,32.71-42,76h0c-.06-.08-6.19-13.56-16-18-2.81-1.27-7.28-2.41-14-1-12.82-24.94-35.61-40.76-58-40-19.19,.65-33,12-33,12-6.85,5.63-10.83,11.9-13,16Z"/>
    <path class="cls-23" d="M2066.37,425.19c.98,.76,3.03,2.57,4.34,5.72,1.23,2.95,1.19,5.59,1.09,6.87,6.6,58.75,11.1,123.08,11.94,192.28,.5,41.18-.34,80.53-2.17,117.89-1.8,.59-6.92,2.52-10.86,8.01-3.73,5.2-4.25,10.58-4.34,12.59-3.29-5.14-9.11-12.66-18.46-18.31-1.96-1.19-27.7-16.37-39.09-4.58-7.67,7.95-7.24,26.51,4.34,42.35-9.57-7.14-18.2-8.74-22.8-9.16-5.24-.48-15.12-1.38-18.46,4.58-1.97,3.52-.82,7.96,0,10.3-11.23-11.75-26.71-15.81-39.09-10.3-8.71,3.87-13.33,11.35-15.2,14.88-1.35,.08-6.16,.52-9.77,4.58-1.72,1.93-4.62,6.32-3.26,9.16,1.41,2.94,7.27,3.97,14.11,1.14,4.46,2.88,8.84,5.12,13.03,6.87,37.3,15.56,75.26-1.41,90.12-9.16,5.22,4.57,10.39,7.88,15.2,10.3,38.55,19.44,81.55-3.67,91.2-9.16,7.67,7.39,15.1,10.23,19.54,11.45,3.91,1.07,14.83,4.07,18.46-1.14,1.19-1.71,1.29-3.87,1.09-5.72,3.95,2.19,12.54,6.21,23.89,5.72,14.86-.63,24.93-8.59,28.23-11.45,3.85,3.75,9.22,8.06,16.29,11.45,18.77,8.99,36.62,5.26,43.43,3.43,3.37,.58,8.97,1.03,15.2-1.14,6.09-2.13,13.77-7.11,13.03-10.3-.92-3.95-14.33-3.47-15.2-3.43,0-4.36-1.16-7.32-2.17-9.16-4.79-8.7-17.42-12.48-31.49-9.16,1.51-2.03,7.64-10.67,5.43-19.46-2.81-11.15-18.4-19.85-36.91-14.88-2.67-1.45-8.15-3.92-15.2-3.43-12.85,.89-20.44,10.86-21.71,12.59h-9.77c.64-.62,5.37-5.32,4.34-10.3-1.44-7-12.89-7.93-14.11-8.01-8.85-.61-15.39,5.01-17.37,6.87,2.48-2.28,9.56-9.4,10.86-20.6,1.49-12.9-4.82-30.17-18.46-33.19-9.29-2.06-19.6,3.03-26.06,12.59-1.12-37.46-3.5-77.24-7.6-119.03-5.59-56.97-13.58-109.76-22.8-157.94-.14-1.02-.69-4.16-3.26-6.87-.69-.73-2.92-2.89-6.51-3.43-4.34-.76-8.69-1.53-13.03-2.29Z"/>
    <path class="cls-14" d="M2521.08,444.31c-4.75-.15-10.51-.7-16.94-2.12-5.54-1.22-10.35-2.83-14.37-4.45-6.15-15.53-7.99-42.8-7.69-49.91-.22,7.24-1.06,16.03-3.23,25.84-2.07,9.35-4.85,17.35-7.58,23.86-3.7,1.41-8.01,2.78-12.86,3.85-6.43,1.42-12.19,1.97-16.94,2.12,4.27-.18,19.61,.82,29.98,4.08,2.67,6.43,5.38,14.27,7.4,23.42,2.17,9.8,3.01,18.6,3.23,25.84-.29-6.78,1.37-31.93,6.87-47.71,10.27-3.85,27.56-5.01,32.13-4.81Z"/>
    <path class="cls-12" d="M1892.45,258.34c-6.14-.19-13.6-.9-21.91-2.74-7.16-1.58-13.38-3.66-18.59-5.75-7.95-20.09-10.34-55.36-9.95-64.56-.29,9.37-1.37,20.74-4.18,33.42-2.68,12.1-6.28,22.44-9.81,30.86-4.79,1.83-10.36,3.6-16.64,4.99-8.31,1.84-15.77,2.55-21.91,2.74,5.52-.23,25.36,1.06,38.78,5.27,3.46,8.32,6.96,18.46,9.57,30.29,2.81,12.68,3.89,24.06,4.18,33.42-.37-8.77,1.78-41.31,8.89-61.72,13.28-4.98,35.65-6.48,41.56-6.23Z"/>
    <path class="cls-35" d="M2084.45,123.09c-3.99-.12-8.84-.59-14.25-1.78-4.66-1.03-8.71-2.38-12.09-3.74-5.17-13.07-6.72-36.01-6.47-41.99-.19,6.09-.89,13.49-2.72,21.74-1.74,7.87-4.08,14.6-6.38,20.07-3.11,1.19-6.74,2.34-10.82,3.24-5.41,1.2-10.26,1.66-14.25,1.78,3.59-.15,16.5,.69,25.23,3.43,2.25,5.41,4.52,12.01,6.23,19.7,1.82,8.25,2.53,15.65,2.72,21.74-.24-5.71,1.16-26.87,5.78-40.14,8.64-3.24,23.19-4.21,27.03-4.05Z"/>
    <path class="cls-35" d="M277.45,578.09c-3.99-.12-8.84-.59-14.25-1.78-4.66-1.03-8.71-2.38-12.09-3.74-5.17-13.07-6.72-36.01-6.47-41.99-.19,6.09-.89,13.49-2.72,21.74-1.74,7.87-4.08,14.6-6.38,20.07-3.11,1.19-6.74,2.34-10.82,3.24-5.41,1.2-10.26,1.66-14.25,1.78,3.59-.15,16.5,.69,25.23,3.43,2.25,5.41,4.52,12.01,6.23,19.7,1.82,8.25,2.53,15.65,2.72,21.74-.24-5.71,1.16-26.87,5.78-40.14,8.64-3.24,23.19-4.21,27.03-4.05Z"/>
    <path class="cls-35" d="M609.58,272.46c-2.15-.07-4.77-.32-7.68-.96-2.51-.56-4.69-1.28-6.52-2.02-2.79-7.04-3.62-19.41-3.49-22.64-.1,3.28-.48,7.27-1.46,11.72-.94,4.24-2.2,7.87-3.44,10.82-1.68,.64-3.63,1.26-5.83,1.75-2.91,.64-5.53,.89-7.68,.96,1.93-.08,8.89,.37,13.6,1.85,1.21,2.92,2.44,6.47,3.36,10.62,.98,4.45,1.36,8.44,1.46,11.72-.13-3.08,.62-14.48,3.12-21.64,4.66-1.75,12.5-2.27,14.57-2.18Z"/>
    <path class="cls-35" d="M420.42,137.07c-3.63-.11-8.05-.53-12.97-1.62-4.24-.94-7.92-2.17-11-3.41-4.71-11.89-6.12-32.76-5.89-38.21-.17,5.54-.81,12.27-2.47,19.78-1.58,7.16-3.71,13.28-5.81,18.26-2.83,1.08-6.13,2.13-9.85,2.95-4.92,1.09-9.33,1.51-12.97,1.62,3.27-.14,15.01,.62,22.95,3.12,2.05,4.92,4.12,10.93,5.67,17.93,1.66,7.5,2.3,14.24,2.47,19.78-.22-5.19,1.05-24.45,5.26-36.53,7.86-2.95,21.1-3.83,24.59-3.68Z"/>
    <path class="cls-35" d="M820.45,122.24c-2.44-.08-5.41-.36-8.72-1.09-2.85-.63-5.33-1.46-7.4-2.29-3.17-7.99-4.11-22.03-3.96-25.69-.12,3.73-.55,8.25-1.66,13.3-1.07,4.82-2.5,8.93-3.9,12.28-1.91,.73-4.12,1.43-6.62,1.98-3.31,.73-6.28,1.01-8.72,1.09,2.2-.09,10.09,.42,15.43,2.1,1.38,3.31,2.77,7.35,3.81,12.06,1.12,5.05,1.55,9.57,1.66,13.3-.15-3.49,.71-16.44,3.54-24.56,5.29-1.98,14.19-2.58,16.54-2.48Z"/>
    <path class="cls-35" d="M216.45,256.24c-2.44-.08-5.41-.36-8.72-1.09-2.85-.63-5.33-1.46-7.4-2.29-3.17-7.99-4.11-22.03-3.96-25.69-.12,3.73-.55,8.25-1.66,13.3-1.07,4.82-2.5,8.93-3.9,12.28-1.91,.73-4.12,1.43-6.62,1.98-3.31,.73-6.28,1.01-8.72,1.09,2.2-.09,10.09,.42,15.43,2.1,1.38,3.31,2.77,7.35,3.81,12.06,1.12,5.05,1.55,9.57,1.66,13.3-.15-3.49,.71-16.44,3.54-24.56,5.29-1.98,14.19-2.58,16.54-2.48Z"/>
    <path class="cls-35" d="M2126.45,156.76c-1.13-.04-2.51-.17-4.04-.5-1.32-.29-2.47-.67-3.43-1.06-1.47-3.7-1.91-10.2-1.83-11.9-.05,1.73-.25,3.82-.77,6.16-.49,2.23-1.16,4.14-1.81,5.69-.88,.34-1.91,.66-3.07,.92-1.53,.34-2.91,.47-4.04,.5,1.02-.04,4.67,.19,7.15,.97,.64,1.53,1.28,3.4,1.76,5.58,.52,2.34,.72,4.43,.77,6.16-.07-1.62,.33-7.61,1.64-11.38,2.45-.92,6.57-1.19,7.66-1.15Z"/>
    <path class="cls-35" d="M2542.45,527.25c-1.51-.05-3.34-.22-5.39-.67-1.76-.39-3.29-.9-4.57-1.41-1.96-4.94-2.54-13.61-2.45-15.87-.07,2.3-.34,5.1-1.03,8.22-.66,2.98-1.54,5.52-2.41,7.59-1.18,.45-2.55,.88-4.09,1.23-2.04,.45-3.88,.63-5.39,.67,1.36-.06,6.24,.26,9.54,1.3,.85,2.04,1.71,4.54,2.35,7.45,.69,3.12,.96,5.91,1.03,8.22-.09-2.16,.44-10.16,2.19-15.18,3.27-1.22,8.76-1.59,10.22-1.53Z"/>
    <path class="cls-35" d="M1511.45,263.25c-1.51-.05-3.34-.22-5.39-.67-1.76-.39-3.29-.9-4.57-1.41-1.96-4.94-2.54-13.61-2.45-15.87-.07,2.3-.34,5.1-1.03,8.22-.66,2.98-1.54,5.52-2.41,7.59-1.18,.45-2.55,.88-4.09,1.23-2.04,.45-3.88,.63-5.39,.67,1.36-.06,6.24,.26,9.54,1.3,.85,2.04,1.71,4.54,2.35,7.45,.69,3.12,.96,5.91,1.03,8.22-.09-2.16,.44-10.16,2.19-15.18,3.27-1.22,8.76-1.59,10.22-1.53Z"/>
    <path class="cls-35" d="M34.45,339.25c-1.51-.05-3.34-.22-5.39-.67-1.76-.39-3.29-.9-4.57-1.41-1.96-4.94-2.54-13.61-2.45-15.87-.07,2.3-.34,5.1-1.03,8.22-.66,2.98-1.54,5.52-2.41,7.59-1.18,.45-2.55,.88-4.09,1.23-2.04,.45-3.88,.63-5.39,.67,1.36-.06,6.24,.26,9.54,1.3,.85,2.04,1.71,4.54,2.35,7.45,.69,3.12,.96,5.91,1.03,8.22-.09-2.16,.44-10.16,2.19-15.18,3.27-1.22,8.76-1.59,10.22-1.53Z"/>
    <path class="cls-35" d="M2324.45,78.24c-2.44-.08-5.41-.36-8.72-1.09-2.85-.63-5.33-1.46-7.4-2.29-3.17-7.99-4.11-22.03-3.96-25.69-.12,3.73-.55,8.25-1.66,13.3-1.07,4.82-2.5,8.93-3.9,12.28-1.91,.73-4.12,1.43-6.62,1.98-3.31,.73-6.28,1.01-8.72,1.09,2.2-.09,10.09,.42,15.43,2.1,1.38,3.31,2.77,7.35,3.81,12.06,1.12,5.05,1.55,9.57,1.66,13.3-.15-3.49,.71-16.44,3.54-24.56,5.29-1.98,14.19-2.58,16.54-2.48Z"/>
    <path class="cls-35" d="M2481.45,293.24c-2.44-.08-5.41-.36-8.72-1.09-2.85-.63-5.33-1.46-7.4-2.29-3.17-7.99-4.11-22.03-3.96-25.69-.12,3.73-.55,8.25-1.66,13.3-1.07,4.82-2.5,8.93-3.9,12.28-1.91,.73-4.12,1.43-6.62,1.98-3.31,.73-6.28,1.01-8.72,1.09,2.2-.09,10.09,.42,15.43,2.1,1.38,3.31,2.77,7.35,3.81,12.06,1.12,5.05,1.55,9.57,1.66,13.3-.15-3.49,.71-16.44,3.54-24.56,5.29-1.98,14.19-2.58,16.54-2.48Z"/>
    <path class="cls-35" d="M1154.45,134.24c-2.44-.08-5.41-.36-8.72-1.09-2.85-.63-5.33-1.46-7.4-2.29-3.17-7.99-4.11-22.03-3.96-25.69-.12,3.73-.55,8.25-1.66,13.3-1.07,4.82-2.5,8.93-3.9,12.28-1.91,.73-4.12,1.43-6.62,1.98-3.31,.73-6.28,1.01-8.72,1.09,2.2-.09,10.09,.42,15.43,2.1,1.38,3.31,2.77,7.35,3.81,12.06,1.12,5.05,1.55,9.57,1.66,13.3-.15-3.49,.71-16.44,3.54-24.56,5.29-1.98,14.19-2.58,16.54-2.48Z"/>
    <path class="cls-35" d="M1784.45,144.24c-2.44-.08-5.41-.36-8.72-1.09-2.85-.63-5.33-1.46-7.4-2.29-3.17-7.99-4.11-22.03-3.96-25.69-.12,3.73-.55,8.25-1.66,13.3-1.07,4.82-2.5,8.93-3.9,12.28-1.91,.73-4.12,1.43-6.62,1.98-3.31,.73-6.28,1.01-8.72,1.09,2.2-.09,10.09,.42,15.43,2.1,1.38,3.31,2.77,7.35,3.81,12.06,1.12,5.05,1.55,9.57,1.66,13.3-.15-3.49,.71-16.44,3.54-24.56,5.29-1.98,14.19-2.58,16.54-2.48Z"/>
    <path class="cls-35" d="M1993.45,235.24c-2.44-.08-5.41-.36-8.72-1.09-2.85-.63-5.33-1.46-7.4-2.29-3.17-7.99-4.11-22.03-3.96-25.69-.12,3.73-.55,8.25-1.66,13.3-1.07,4.82-2.5,8.93-3.9,12.28-1.91,.73-4.12,1.43-6.62,1.98-3.31,.73-6.28,1.01-8.72,1.09,2.2-.09,10.09,.42,15.43,2.1,1.38,3.31,2.77,7.35,3.81,12.06,1.12,5.05,1.55,9.57,1.66,13.3-.15-3.49,.71-16.44,3.54-24.56,5.29-1.98,14.19-2.58,16.54-2.48Z"/>
    <path class="cls-15" d="M1662.1,68.36c-4.33-.13-9.59-.63-15.45-1.93-5.05-1.12-9.44-2.58-13.11-4.06-5.61-14.17-7.29-39.05-7.01-45.53-.2,6.61-.97,14.63-2.95,23.57-1.89,8.53-4.43,15.83-6.92,21.77-3.38,1.29-7.3,2.54-11.73,3.52-5.86,1.3-11.12,1.8-15.45,1.93,3.89-.17,17.89,.74,27.35,3.72,2.44,5.87,4.91,13.02,6.75,21.37,1.98,8.94,2.74,16.97,2.95,23.57-.26-6.19,1.25-29.13,6.27-43.53,9.37-3.51,25.14-4.57,29.31-4.39Z"/>
    <path class="cls-12" d="M502.45,252.22c-2.74-.08-6.07-.4-9.78-1.22-3.2-.71-5.98-1.63-8.3-2.57-3.55-8.97-4.62-24.72-4.44-28.83-.13,4.18-.61,9.26-1.87,14.92-1.2,5.4-2.8,10.02-4.38,13.78-2.14,.82-4.62,1.61-7.43,2.23-3.71,.82-7.04,1.14-9.78,1.22,2.46-.1,11.32,.47,17.32,2.35,1.54,3.71,3.11,8.24,4.27,13.53,1.25,5.66,1.74,10.74,1.87,14.92-.17-3.92,.79-18.44,3.97-27.56,5.93-2.22,15.92-2.89,18.56-2.78Z"/>
    <path class="cls-13" d="M56.32,542.56c-2.08-.06-4.6-.3-7.42-.93-2.42-.54-4.53-1.24-6.29-1.95-2.69-6.8-3.5-18.74-3.37-21.85-.1,3.17-.46,7.02-1.41,11.31-.91,4.1-2.12,7.59-3.32,10.44-1.62,.62-3.5,1.22-5.63,1.69-2.81,.62-5.34,.86-7.42,.93,1.87-.08,8.58,.36,13.13,1.78,1.17,2.81,2.35,6.25,3.24,10.25,.95,4.29,1.32,8.14,1.41,11.31-.13-2.97,.6-13.98,3.01-20.89,4.49-1.68,12.06-2.19,14.06-2.11Z"/>
    <circle class="cls-3" cx="707.45" cy="283.84" r="34"/>
    <circle class="cls-6" cx="191.45" cy="451.84" r="21"/>
    <circle class="cls-4" cx="2362.95" cy="145.34" r="30.5"/>
    <path class="cls-36" d="M1131.28,641.08c6.48-5.34,14.64-8.39,23.03-8.61,.48-.01,.48-.76,0-.75-8.6,.23-16.92,3.36-23.56,8.83-.37,.31,.16,.84,.53,.53h0Z"/>
    <path class="cls-36" d="M1135.05,644.16c5.67-4.76,13.46-6.88,20.75-5.42,6.84,1.37,12.88,5.69,16.47,11.65,.25,.41,.9,.04,.65-.38-3.74-6.22-10.12-10.75-17.29-12.07s-15.31,.82-21.11,5.68c-.37,.31,.16,.84,.53,.53h0Z"/>
    <path class="cls-36" d="M1164.1,640.87c6.19,9.58,8.96,21.19,7.82,32.54-1.07,10.62-5.73,20.68-12.92,28.53-4.01,4.37-8.75,8.01-14.02,10.74-.43,.22-.05,.87,.38,.65,9.47-4.89,17.27-12.79,22.12-22.28,5.11-10,6.62-21.53,4.49-32.55-1.24-6.4-3.69-12.53-7.22-18.01-.26-.4-.91-.03-.65,.38h0Z"/>
    <path class="cls-36" d="M997.44,736.35c.48,0,.48-.75,0-.75s-.48,.75,0,.75h0Z"/>
    <path class="cls-36" d="M952.42,754.82c2.34,2.11,3.53,5.36,3.05,8.48-.07,.47,.65,.68,.72,.2,.53-3.38-.68-6.91-3.24-9.21-.36-.32-.89,.21-.53,.53h0Z"/>
    <path class="cls-36" d="M2081.36,445.68c1.51,13.52,3.02,27.03,4.53,40.55,.06,.54,.91,.54,.85,0-1.51-13.52-3.02-27.03-4.53-40.55-.06-.54-.91-.54-.85,0h0Z"/>
    <path class="cls-36" d="M2090.51,486.13c4.23,32.56,7.75,65.22,10.55,97.94,2.78,32.57,4.85,65.21,6.19,97.87,.76,18.41,1.29,36.83,1.59,55.25,0,.54,.86,.55,.85,0-.55-32.86-1.81-65.71-3.8-98.51-1.98-32.62-4.68-65.2-8.09-97.71-1.92-18.3-4.07-36.58-6.45-54.84-.07-.53-.92-.54-.85,0h0Z"/>
    <path class="cls-36" d="M2098.85,740.88c0,2.35,0,4.71,0,7.06,0,.53,.83,.53,.83,0,0-2.35,0-4.71,0-7.06,0-.53-.83-.53-.83,0h0Z"/>
    <path class="cls-36" d="M2090.99,689.78c1.21,18.68,1.73,37.4,1.55,56.12-.05,5.3-.16,10.6-.32,15.9-.02,.53,.81,.53,.83,0,.57-18.71,.45-37.44-.37-56.14-.23-5.29-.52-10.59-.86-15.88-.03-.53-.86-.53-.83,0h0Z"/>
    <path class="cls-36" d="M2117.26,744.08c2.47-6.96,10.25-12.04,17.64-9.86s11.66,10.59,10.7,17.93c-.07,.53,.76,.52,.83,0,.81-6.25-1.94-12.85-7.04-16.59s-11.73-3.33-16.75,.19c-2.86,2-5,4.82-6.17,8.11-.18,.5,.62,.72,.8,.22h0Z"/>
    <path class="cls-36" d="M2130.4,751.29c7.1,1.25,11.1,9.84,9.01,16.38-.16,.51,.64,.72,.8,.22,2.21-6.94-2.06-16.06-9.59-17.39-.52-.09-.74,.7-.22,.8h0Z"/>
    <path class="cls-36" d="M2084.78,764.31c-11.1,3.08-18.78,13.87-20.4,24.95-.47,3.24-.42,6.51,.15,9.73,.09,.52,.89,.3,.8-.22-2.46-13.75,5.74-29.81,19.67-33.67,.51-.14,.29-.94-.22-.8h0Z"/>
    <path class="cls-36" d="M2037.21,773.65c-.2-5.62-5.65-9.31-10.99-8.92-6.54,.47-9.88,6.95-10.1,12.89-.15,3.89,.83,7.82,2.75,11.19,.26,.46,.98,.05,.71-.42-2.97-5.23-3.81-12.39-.78-17.79,1.35-2.42,3.43-4.29,6.18-4.88,2.38-.51,4.97-.07,7.08,1.12,2.53,1.42,4.22,3.88,4.32,6.81,.02,.53,.84,.53,.83,0h0Z"/>
    <path class="cls-36" d="M2101.82,787.35c3.82-1.28,8.17,.21,10.51,3.48s2.63,8.18,.66,11.82c-.25,.47,.46,.88,.71,.42,2.14-3.95,1.91-9.2-.8-12.84-2.57-3.44-7.2-5.05-11.3-3.67-.5,.17-.29,.97,.22,.8h0Z"/>
    <path class="cls-36" d="M2161.8,784.49c8.44-5.93,19-10.46,29.46-10.58,4.7-.06,9.59,1.01,13.2,4.2,2.86,2.53,4.23,6.25,4.23,10.03s-1.59,8.24-5.56,9.61c-.5,.17-.28,.97,.22,.8,7.41-2.56,7.54-13.37,3.64-18.88-6.06-8.55-18.66-7.18-27.39-4.67-6.52,1.88-12.67,4.88-18.21,8.78-.43,.3-.02,1.02,.42,.71h0Z"/>
    <path class="cls-36" d="M2219.36,784.25c4.92-1.17,9.83,2.85,10.63,7.64,.85,5.05-2.99,10.84-8.3,11.15-.53,.03-.53,.86,0,.83,4.44-.25,8.01-3.99,8.97-8.2s-1.05-8.84-4.86-11.11c-2.01-1.2-4.37-1.65-6.66-1.1-.52,.12-.3,.92,.22,.8h0Z"/>
    <path class="cls-36" d="M2037.94,797.32c-2.9,2.95-3.83,7.53-2.73,11.47s4.39,6.81,8.43,7.34c2.22,.29,4.47-.17,6.37-1.38,.45-.28,.03-1-.42-.71-4.06,2.58-9.74,1.26-12.37-2.75s-2.08-9.97,1.3-13.39c.37-.38-.21-.96-.58-.58h0Z"/>
    <path class="cls-36" d="M2082.25,793.2c-2.68,2.05-5.47,4.53-6.6,7.81-.92,2.67-.31,5.8,2.03,7.52,2,1.47,4.78,1.67,7.09,.9,2.86-.96,4.67-3.4,5.59-6.2,1.28-3.89,.85-8.2-.15-12.09-.13-.51-.93-.3-.8,.22,.81,3.15,1.22,6.51,.63,9.73-.5,2.75-1.8,5.65-4.35,7.04-1.95,1.06-4.47,1.25-6.51,.33-2.43-1.1-3.53-3.71-3-6.28,.72-3.51,3.76-6.19,6.48-8.27,.42-.32,0-1.04-.42-.71h0Z"/>
    <path class="cls-36" d="M1990.32,806.64c-4.83-4.9-11.81-6.97-18.57-6.02-3.33,.47-6.57,1.65-9.39,3.5s-5.54,4.39-6.84,7.45c-1.01,2.36-1.61,6.93,1.75,7.69,.52,.12,.74-.68,.22-.8-3.15-.71-1.86-5.62-.74-7.51,1.59-2.68,4.04-4.94,6.69-6.54,5.16-3.13,11.61-4.04,17.43-2.42,3.37,.94,6.41,2.73,8.87,5.22,.37,.38,.96-.2,.58-.58h0Z"/>
    <path class="cls-36" d="M2145.3,805.15c4.76-3.43,10.78-4.8,16.54-3.52l-.29-.51c-1.11,4.56-4.42,8.56-8.97,9.98-.51,.16-.29,.96,.22,.8,4.81-1.51,8.36-5.72,9.54-10.56,.05-.21-.07-.46-.29-.51-5.96-1.32-12.23,.04-17.17,3.6-.43,.31-.02,1.02,.42,.71h0Z"/>
    <path class="cls-36" d="M2247.02,801.29c4.07-2.08,9.19,.78,10.37,4.99,1.26,4.5-2.11,10.21-7.01,10.38-.53,.02-.53,.84,0,.83,4.19-.14,7.43-3.93,8.01-7.9s-1.86-7.9-5.67-9.31c-2-.74-4.21-.67-6.11,.3-.47,.24-.06,.95,.42,.71h0Z"/>
    <path class="cls-23" d="M1531.52,782.29c-4.58-.61-11.51-.93-19.34,1.25-13.73,3.81-27.26,14.44-25.58,19.97,1.36,4.48,12.45,4.85,16.85,4.99,9.51,.31,17.02-2.45,21.22-4.37,2.78,1.76,10.56,6.17,21.22,5.62,8.49-.44,14.64-3.81,17.47-5.62,5.2,4.05,25.52,18.9,54.91,17.47,26.85-1.3,44.59-15.39,49.92-19.97,.93,1.51,16.95,26.46,45.55,26.21,18.96-.16,31.67-11.29,34.94-14.35,2.04,.58,5.62,1.29,9.98,.62,3.27-.5,5.82-1.61,7.49-2.5,1.95,1.91,5.98,5.24,11.86,6.24,8.87,1.51,18.26-2.92,24.34-11.23,4.1,5.87,10.69,8.23,15.6,6.24,3.29-1.33,4.97-4.28,5.62-5.62,27.39,17.58,51.02,24.57,59.28,16.22,1.41-1.43,2.63-3.56,3.12-6.86,27.54-1.52,34.41-5.29,34.94-8.74,.73-4.66-9.87-10.2-16.22-12.48-16.16-5.8-31.27,.02-36.82,2.5-.32-.55-3.09-5.12-8.11-5.62-5.03-.49-10.28,3.32-11.86,9.36-5.83-9.43-12.72-14.76-16.85-17.47-5.55-3.64-17.74-11.65-31.82-8.11-6.89,1.73-11.7,5.58-14.35,8.11-1.29-1.02-3.88-2.75-7.49-3.12-7.89-.81-13.25,5.65-13.73,6.24,.52-.59,7.02-8.25,4.37-16.22-2.84-8.52-13.73-10.14-16.85-10.61-14.15-2.11-25.05,8.23-26.83,9.98-.3-5.83-2.05-26.05-18.1-42.43-4.61-4.71-23.34-23.83-47.42-18.1-23.69,5.65-32.44,30.56-33.07,32.45-4.85-3.2-26.12-16.46-52.42-10.61-4.47,.99-35.42,8.41-41.81,32.45-1.9,7.15-1.07,13.65,0,18.1Z"/>
    <path class="cls-36" d="M1365.08,751.01c9.79-2.56,20.79,5.02,21.81,15.11,.05,.48,.8,.48,.75,0-1.08-10.57-12.46-18.53-22.76-15.84-.47,.12-.27,.85,.2,.72h0Z"/>
    <path class="cls-23" d="M539.45,839.84c9.31,2.38,26.81,6.85,46-1,10.63-4.35,17.83-10.87,21.91-15.22,8.41,8.31,20.78,18.03,37.61,24.26,53.72,19.91,104.66-13.48,111.61-18.2,4.1,3.62,19.32,16.19,41.25,15.77,22.67-.44,43.66-14.58,54.59-36.4,1.22,1.03,15.78,12.92,34.02,7.78,14.2-4,24.78-16.68,26.64-32.04,1.72,1.67,7.99,7.38,16.98,7.28,10.06-.12,20.96-7.47,20.62-14.56-.33-7.12-11.9-11.85-18.2-13.35-18.58-4.4-35.12,8.99-38.82,12.13-3.6,1.95-9.5,4.52-16.98,4.85-6.06,.27-11.63-.99-20.62-4.85-20.07-8.62-22.46-15.27-35.18-19.41-5.94-1.94-15.13-3.65-27.9-1.21-.79-2.42-5.54-16.16-18.2-20.62-13.77-4.85-28.28,4.31-29.12,4.85-5.38,3.5-7.28,6.97-13.35,8.49-5.7,1.43-10.99,.12-14.56-1.21,.28-4.24,.45-15.17-6.07-26.69-6.8-12.04-16.84-17.56-20.62-19.41-2.6-3.99-8.74-12.07-19.41-15.77-15.62-5.42-34.44,.79-47.31,15.77-2.08-3.99-8.09-14.23-20.62-20.62-17.49-8.92-34.35-3.54-37.61-2.43-4.77-2.84-19.86-11-35.18-6.07-20.94,6.74-35.63,35.79-27.9,69.15-1.92-.88-16.67-7.36-29.12,0-13.08,7.73-14.16,25.15-14.56,31.54-.37,6.02,.41,11.06,1.21,14.56-3.88-3.65-11.66-9.9-23.12-12.39-23.7-5.15-42.34,10.27-44.82,12.39,.44-19.18-11.18-33.1-23.05-33.97-9.1-.66-16.31,6.5-18.2,8.49-.05-1.34-1.05-22-13.35-27.9-12.6-6.06-35.81,4-46.1,30.33-4.15-3.35-11.29-7.92-20.62-8.49-16.9-1.03-34.07,11.48-42.46,31.54-.74-.37-13.86-6.75-25.4,.61-6.48,4.14-8.98,10.4-9.78,12.73-4.78,1.74-8.22,5.6-8.49,9.71-.39,5.9,5.81,12.48,14.56,12.13,5.66,1.4,15.16,2.98,26.69,1.21,13.28-2.03,22.86-7.52,27.9-10.92,.84,1.05,8.29,10.04,20.62,9.71,10.59-.29,17.08-7.25,18.2-8.49,5.86,5.53,13.07,10.73,21.84,14.56,40.6,17.73,83.08-7.69,89.46-11.63,.06,.01,15.31,4.05,27,6,9.69,1.62,25.57,4.38,44,0,9.37-2.23,16.56-5.61,21-8,6.92,7,21.25,19.44,43,25Z"/>
  </g>
  <g id="_Слой_4" data-name="Слой 4">
    <path class="cls-31" d="M1258.92,212.92c.91-.93,2.9-2.68,5.96-3.38,6.39-1.46,11.49,2.99,11.93,3.38,1.76-2.85,4.48-6.86,8.35-11.27,7.41-8.43,13.11-14.91,20.28-14.65,7.23,.26,12.41,7.25,14.31,10.14,3.73-5.85,9.16-9.02,13.12-7.89,2.99,.86,4.58,4.02,5.96,6.76,2.32,4.62,2.48,8.9,2.39,11.27,.65-.36,4.07-2.18,8.35-1.13,4.84,1.19,6.88,5.08,7.16,5.63,3.35-2.27,9.02-5.46,16.7-6.76,4.54-.77,14.91-2.53,17.89,2.25,2.49,4-1.66,10.21-2.39,11.27,2.39-.47,6.22-.9,10.73,0,7.77,1.55,12.56,6.06,14.31,7.89,.62,.74,3.45,3.91,8.35,4.51,3.4,.42,6.06-.62,7.16-1.13,1.67-2.41,4.47-3.74,7.16-3.38,3.84,.52,6.61,4.36,5.96,6.76-1.08,4.01-11.91,4.63-16.7,4.51-3.55-.09-6.45-.66-8.35-1.13-5.17,1.51-11.61,2.89-19.08,3.38-14.85,.98-26.98-1.97-34.59-4.51-1.53,1.41-5.13,4.36-10.73,5.63-6.85,1.55-12.41-.37-14.31-1.13-4,5.07-8.35,7.06-10.73,7.89-10.85,3.79-24.76-1.08-34.59-12.39-4.18,2.67-7.93,4.46-10.73,5.63-5.84,2.45-8.49,2.62-10.73,2.25-1.56-.26-2.78-.75-3.58-1.13-3.18-9.77-6.36-19.53-9.54-29.3Z"/>
    <ellipse class="cls-22" cx="1278.18" cy="521.82" rx="338.75" ry="72.68"/>
    <ellipse class="cls-32" cx="1278.18" cy="516.19" rx="333.97" ry="60.28"/>
    <ellipse class="cls-2" cx="1418.59" cy="125.23" rx="32.85" ry="31.03"/>
    <path class="cls-29" d="M914.93,785.3c-4.42-1.21-18.68-4.52-34.46,2.13-11.83,4.99-18.65,13.1-21.54,17.02-4.59,.97-9.76,2.8-10.77,6.38-1.98,7.07,13.18,17.4,23.69,22.34,4.24,1.99,35.91,16.34,56,0,5.11-4.16,8.02-9.13,9.69-12.77,2.57,.03,5.91-.17,9.69-1.06,4.63-1.09,8.26-2.81,10.77-4.26,.98,2.23,3.98,8.21,10.77,11.7,7.9,4.06,17.8,3.17,25.85-2.13,4.62,.37,10.08,.49,16.15,0,5.25-.42,9.95-1.22,14-2.13,.91,2.64,3.19,7.96,8.62,11.7,3.93,2.71,10.81,5.5,12.92,3.19,1.77-1.94,.02-7.28-4.31-12.77,5.2,2.88,13.26,6.79,23.69,9.58,3.83,1.02,28.75,7.69,32.31,1.06,2.86-5.31-9.22-16.92-14-21.28,3.47,2.57,10.5,7.03,20.46,8.51,14.35,2.13,25.41-3.31,29.08-5.32-1.88,2.95-1.23,6.67,1.08,8.51,2.73,2.18,7.48,1.48,9.69-2.13-.85,2.11-2.65,7.43-1.08,13.83,.59,2.43,1.55,6.32,4.31,8.51,8.18,6.5,27.57-5.56,32.31-8.51,6.01-3.74,15.17-10.54,23.69-22.34,2.47,3.49,6.58,8.45,12.92,12.77,1.6,1.09,15.02,10.24,19.39,6.38,3.22-2.85-.07-11.38-1.08-13.83,2.18,2.31,7.28,7.05,15.08,8.51,8.19,1.54,20.02-.4,21.54-6.38,1.07-4.21-3.38-8.79-5.38-10.64,2.86,1.2,6.88,2.55,11.85,3.19,4.76,.62,8.84,.39,11.85,0-.56,3.27,.67,6.56,3.23,8.51,3.04,2.32,7.46,2.36,10.77,0,1.2,2.11,4.48,7.19,10.77,9.58,8.4,3.19,18.7,.27,25.85-7.45,6.49,2.07,17.65,4.74,31.23,3.19,12.97-1.48,30.28-7.05,30.15-12.77-.05-2.02-2.28-5.01-14-8.51,1.35,.56,4.54,1.66,8.62,1.06,3.79-.56,6.38-2.3,7.54-3.19,2.15,3.31,5.57,7.21,10.77,9.58,10.94,4.98,25.51,1.2,36.62-9.58,4.06,1.35,9.99,2.88,17.23,3.19,18.96,.83,39.89-6.98,39.85-13.83-.02-2.63-3.13-6.29-17.23-10.64,.3-1.77,.96-7-2.15-10.64-4.33-5.06-14.73-5.64-23.69,1.06-9.83-5.65-18.47-9.34-24.77-11.7-20.68-7.77-26.31-5.17-28-4.26-5.13,2.77-7.49,8.13-8.62,11.7-3.16-6.88-9.93-10.14-15.08-8.51-4.12,1.3-6.02,5.37-6.46,6.38-.77-2.67-3.43-10.64-9.69-12.77-8.36-2.84-21.92,5.12-28,22.34-1.91-1.13-8.68-4.81-17.23-3.19-4.53,.86-7.81,2.87-9.69,4.26,5.27-4.02,7.9-9.3,6.46-12.77-2.06-4.97-11.75-4.44-15.08-4.26-9.4,.52-16.49,5.22-20.46,8.51,.46-1.12,2.52-6.4,0-11.7-2.84-5.97-10.68-10.26-17.23-7.45-4.35,1.87-7.21,6.48-7.54,11.7-.11-1.28-.71-6.92-5.38-10.64-5.11-4.07-13-4.17-19.39,0,.91-.45,10.48-5.46,11.85-15.96,1.1-8.46-3.73-15.82-8.62-19.15-9.84-6.7-28.13-2.72-42,12.77-2.26-24.94-4.09-50.85-5.38-77.67-1.46-30.18-2.12-59.3-2.15-87.24,.19-1.5,.7-3.87,2.15-6.38,2.1-3.62,5.01-5.55,6.46-6.38,10.41-5.67,123.49-62.75,130.31-66.66-3.95,0-28.36-2.03-32.31-2.03,0,0-52.51,22.1-77.54,30.39-29.27,9.69-55.87,20.25-79.7,30.85-1.72,1.05-4.12,2.74-6.46,5.32-4.62,5.1-6.1,10.49-7.54,15.96-1.26,4.78-2.62,12.09-2.15,21.28-3.23,39.99-6.46,79.98-9.68,119.98l.54-.06c-1.85,.25-3.46,.75-4.85,1.37-14.6,6.53-15.06,31.39-15.08,34.05-3.98-1.6-9.95-3.36-17.23-3.19-17.78,.4-29.47,11.93-32.31,14.9-1.52-3.2-4.97-9.28-11.85-13.83-1.74-1.15-14.26-9.42-20.46-4.26-5.03,4.19-2.34,14.23-2.15,14.9-2.86-2.17-8.47-5.73-16.15-6.38-17.68-1.51-29.34,13.78-30.15,14.9-1.76-3.38-6.23-10.74-15.08-14.9-10.19-4.78-27.4-5.88-33.39,4.26-3.79,6.41-2.09,15.63,3.23,23.41-4.98-2.96-10.02-3.95-11.85-2.13-2.09,2.09-.66,8.62,5.38,14.9Z"/>
    <path class="cls-36" d="M1150.44,552.01c-2.45,3.48-4.21,7.4-5.14,11.55-.11,.49,.65,.7,.76,.21,.92-4.09,2.65-7.93,5.06-11.36,.29-.41-.39-.81-.68-.4h0Z"/>
    <path class="cls-36" d="M1141.64,577.52c.06,18.44,.29,36.88,.72,55.32s1.03,37.04,1.83,55.55c.45,10.38,.95,20.75,1.51,31.12,.03,.5,.81,.51,.79,0-1-18.42-1.81-36.84-2.44-55.28-.63-18.51-1.08-37.04-1.34-55.56-.15-10.38-.24-20.77-.27-31.15,0-.51-.79-.51-.79,0h0Z"/>
    <path class="cls-36" d="M1151.47,646.09c1.17,18.6,2.34,37.2,3.52,55.8,.33,5.31,.67,10.63,1,15.94,.03,.5,.82,.51,.79,0-1.17-18.6-2.34-37.2-3.52-55.8-.33-5.31-.67-10.63-1-15.94-.03-.5-.82-.51-.79,0h0Z"/>
    <path class="cls-36" d="M1172.92,561.82c-2.16,4.06-3.1,8.68-2.61,13.25,.05,.5,.84,.5,.79,0-.47-4.44,.4-8.91,2.5-12.86,.24-.45-.44-.84-.68-.4h0Z"/>
    <path class="cls-36" d="M1175.25,576.7c0,32.74,.63,65.48,1.89,98.2,.35,9.13,.75,18.27,1.2,27.4,.02,.5,.81,.51,.79,0-1.61-32.7-2.6-65.44-2.95-98.18-.1-9.14-.15-18.28-.15-27.42,0-.51-.79-.51-.79,0h0Z"/>
    <path class="cls-36" d="M1163.35,571.81c-.31,24.64,.24,49.28,1.68,73.88,.41,6.93,.88,13.86,1.43,20.79,.04,.5,.82,.5,.79,0-1.93-24.57-2.99-49.2-3.17-73.84-.05-6.94-.03-13.89,.06-20.83,0-.51-.78-.51-.79,0h0Z"/>
    <path class="cls-36" d="M1186.01,712.15c-.37,9.24-.73,18.49-1.1,27.73-.02,.51,.77,.5,.79,0,.37-9.24,.73-18.49,1.1-27.73,.02-.51-.77-.5-.79,0h0Z"/>
    <path class="cls-36" d="M1115.9,729.17c6.06-4.21,14.5-3.4,20.56,.41,6.44,4.05,10.33,11.08,12.5,18.18,1.47,4.83,2.2,9.98,.68,14.89-.15,.48,.61,.69,.76,.21,1.36-4.36,1-8.94-.11-13.31-1.02-4-2.55-7.92-4.69-11.46-3.98-6.59-10.29-11.57-18.1-12.4-4.19-.45-8.49,.38-11.98,2.81-.41,.29-.02,.97,.4,.68h0Z"/>
    <path class="cls-36" d="M1157,762.82c2.25-3.6,5.68-6.39,9.65-7.89,2.16-.82,4.62-1.35,6.89-.68,2.13,.63,4.06,2.73,3.42,5.07-.13,.49,.62,.7,.76,.21,.56-2.04-.52-4.03-2.2-5.2-2.15-1.49-5.03-1.35-7.44-.69-4.84,1.32-9.1,4.55-11.75,8.79-.27,.43,.41,.82,.68,.4h0Z"/>
    <path class="cls-36" d="M1181.32,764.53c4.44-8.22,9.64-16.17,16.62-22.48s15.56-10.72,24.85-11.57c2.59-.24,5.35-.33,7.86,.48,2.72,.88,5.37,3.34,4.66,6.45-.11,.49,.64,.7,.76,.21,1.04-4.52-3.5-7.36-7.36-7.9-4.93-.69-10.25,.31-14.91,1.92-9.54,3.28-17.49,9.84-23.67,17.7-3.62,4.61-6.68,9.63-9.47,14.78-.24,.44,.44,.84,.68,.4h0Z"/>
    <path class="cls-36" d="M1219.71,745.38c2.91,1.14,5.26,3.71,5.85,6.81s-.85,6.55-3.38,8.58c-.39,.32,.16,.87,.56,.56,2.76-2.21,4.25-5.83,3.58-9.34s-3.24-6.12-6.4-7.36c-.47-.18-.67,.57-.21,.76h0Z"/>
    <path class="cls-36" d="M1129.42,774.93c-4.58-11.06-16.03-17.31-27.47-18.75s-24.97,1.02-34.94,7.68c-4.92,3.29-9,7.75-11.15,13.31-.18,.47,.58,.68,.76,.21,3.88-10.01,14-15.96,23.91-18.73,11.67-3.26,25.27-3.16,35.96,3.09,5.31,3.1,9.82,7.68,12.19,13.4,.19,.46,.95,.26,.76-.21h0Z"/>
    <path class="cls-36" d="M1068.87,777.01c-5.99,1.44-10.57,7.42-9.68,13.64,.07,.5,.83,.29,.76-.21-.83-5.8,3.6-11.35,9.13-12.68,.49-.12,.28-.88-.21-.76h0Z"/>
    <path class="cls-36" d="M1017.19,759.73c5.2-5.24,13.26-2.85,18.73,.54,5.14,3.19,11.92,8.51,10.78,15.38-.08,.49,.67,.71,.76,.21,1.21-7.29-5.64-12.86-11.14-16.27-5.78-3.58-14.23-5.91-19.68-.41-.36,.36,.2,.91,.56,.56h0Z"/>
    <path class="cls-36" d="M1031.43,772.04c4.92,2.52,8.54,7.31,9.28,12.82,.07,.5,.82,.29,.76-.21-.77-5.7-4.57-10.69-9.64-13.29-.45-.23-.85,.45-.4,.68h0Z"/>
    <path class="cls-36" d="M1152.88,802.84c6.02-8.12,12.6-16.74,22.58-20.05,4.64-1.54,9.79-1.9,14.44-.2,3.98,1.45,7.16,4.5,8.94,8.32,1.94,4.16,2.1,9.06,.04,13.2-.22,.45,.45,.85,.68,.4,3.76-7.55,.47-17.22-6.73-21.42-9.21-5.37-20.85-1.2-28.35,5.18-4.78,4.07-8.55,9.15-12.27,14.17-.3,.41,.38,.8,.68,.4h0Z"/>
    <path class="cls-36" d="M1208.16,797.81c-.01-5.73,6.33-9.99,11.7-8.83,.49,.11,.7-.65,.21-.76-5.86-1.26-12.71,3.33-12.7,9.59,0,.51,.79,.51,.79,0h0Z"/>
    <path class="cls-36" d="M1229.68,764.78c6.45-4.66,15.06-4.29,22.44-2.42,3.45,.88,7.49,2.19,9.53,5.34,2.26,3.48,.77,8.23-1.49,11.33-2.55,3.49-6.58,5.8-10.86,6.29-.5,.06-.5,.84,0,.79,7.42-.85,15.36-7.69,14.13-15.82-.61-4.03-4.18-6.33-7.73-7.65-4.05-1.51-8.53-2.29-12.85-2.35-4.79-.06-9.63,.98-13.56,3.82-.41,.29-.01,.97,.4,.68h0Z"/>
    <path class="cls-36" d="M1241.36,776.83l2.51,1.1-.19-.34c-.27,3.01-2.85,5.41-5.74,5.93-.5,.09-.29,.85,.21,.76,3.26-.59,6.02-3.35,6.32-6.69,.01-.12-.08-.29-.19-.34-.84-.37-1.68-.73-2.51-1.1-.46-.2-.86,.48-.4,.68h0Z"/>
    <path class="cls-36" d="M1133.86,796.91c-2.57-7.93-9.4-13.95-17.28-16.34s-17.1-.58-23.8,4.62c-3.63,2.82-6.48,6.53-8.07,10.85-.17,.47,.58,.68,.76,.21,2.78-7.57,9.66-13.14,17.37-15.17,7.98-2.11,16.58,0,22.88,5.29,3.4,2.84,6.03,6.53,7.4,10.75,.15,.48,.91,.27,.76-.21h0Z"/>
    <path class="cls-36" d="M1097.12,791.51c-6.28,1.24-10.97,8.28-8.7,14.51,.17,.47,.93,.27,.76-.21-2.13-5.84,2.26-12.38,8.15-13.54,.5-.1,.29-.85-.21-.76h0Z"/>
    <path class="cls-36" d="M1015.04,780.38c-4.06-8.69-14.38-11.71-23.28-10.8s-19.01,5.2-24.25,13.14c-2.8,4.24-4.1,9.39-3.19,14.42,.09,.5,.85,.29,.76-.21-1.67-9.2,4.35-17.51,12.02-21.9,7.88-4.51,18.42-6.57,27.1-3.26,4.35,1.66,8.18,4.75,10.17,9.01,.21,.46,.89,.06,.68-.4h0Z"/>
    <path class="cls-36" d="M954.23,778.78c-4.19-4.66-10.43-8.03-16.83-7.56-5.39,.4-10.24,3.99-11.75,9.28-.77,2.67-.44,5.49,1.15,7.8,.28,.41,.97,.02,.68-.4-3.8-5.53,.53-12.9,6.17-15.08,7.14-2.77,15.25,1.19,20.04,6.51,.34,.38,.89-.18,.56-.56h0Z"/>
    <path class="cls-36" d="M934.1,764.92c-.92-3.64,1.53-7.14,4.65-8.81,3.53-1.89,7.88-1.64,11.65-.75,6.81,1.62,13.53,5.4,17.19,11.54,.26,.43,.94,.04,.68-.4-4.09-6.86-12.03-11.12-19.78-12.32-3.97-.61-8.38-.31-11.66,2.25-2.63,2.06-4.33,5.34-3.48,8.7,.12,.49,.88,.28,.76-.21h0Z"/>
    <path class="cls-36" d="M956.4,767.71c2.58,2.17,4.55,5.01,5.6,8.23,.16,.48,.91,.27,.76-.21-1.08-3.34-3.12-6.31-5.8-8.57-.38-.32-.94,.23-.56,.56h0Z"/>
    <path class="cls-36" d="M973.17,788.5c-4.87,8.4-4.01,19.17,1.95,26.79,.31,.4,.86-.16,.56-.56-5.74-7.34-6.5-17.77-1.83-25.84,.25-.44-.42-.83-.68-.4h0Z"/>
    <path class="cls-36" d="M982.27,808.45c1.48,4.43,5.11,7.89,9.49,9.43,.48,.17,.68-.59,.21-.76-4.11-1.45-7.55-4.73-8.94-8.88-.16-.48-.92-.27-.76,.21h0Z"/>
    <path class="cls-36" d="M918.73,793.65c-8.12-2.4-16.87-2.38-25.01-.06-7.6,2.17-15.99,6.56-20.13,13.59-2.34,3.97-2.91,8.95-.61,13.07,.25,.44,.92,.05,.68-.4-4.61-8.26,2.68-16.42,9.3-20.61s14.52-6.44,22.38-6.59c4.46-.09,8.91,.5,13.19,1.77,.49,.14,.69-.61,.21-.76h0Z"/>
    <path class="cls-36" d="M883.28,815.38c-2.6,4.24,.25,10.09,4.91,11.27,.49,.12,.7-.63,.21-.76-4.18-1.06-6.78-6.3-4.44-10.12,.27-.43-.41-.83-.68-.4h0Z"/>
    <path class="cls-36" d="M906.37,809.2c4.84-2.18,10.54-2.65,15.62-1.05,2.04,.64,4.56,1.91,5.17,4.16s-1.59,4.88-3.9,4.01c-.47-.18-.68,.58-.21,.76,2.15,.8,4.29-.88,4.86-2.94,.68-2.48-1.28-4.6-3.29-5.72-5.54-3.07-13.06-2.41-18.65,.11-.46,.21-.06,.88,.4,.68h0Z"/>
    <path class="cls-36" d="M1016.93,796.91c-4.65-5.59-11.27-10.5-18.43-12.24-3.1-.75-6.62-.83-9.38,1-2.4,1.6-3.63,4.35-3.71,7.19-.22,7.17,6.28,12.07,11.5,15.86,2.69,1.95,5.87,3.74,9.3,3.04,2.88-.59,5.05-2.81,4.58-5.87-.29-1.93-1.23-3.85-2.04-5.62s-1.86-3.65-3.32-5.07c-2.47-2.42-6.36-3.59-9.53-1.9-.45,.24-.05,.92,.4,.68,3-1.6,6.65-.27,8.86,2.06s3.42,5.43,4.42,8.34c.58,1.67,.83,3.54-.43,4.96-1,1.13-2.57,1.69-4.04,1.79-3.2,.23-6.04-1.76-8.49-3.58-4.69-3.49-10.44-7.9-10.44-14.35,0-2.86,1.24-5.69,3.8-7.13,2.69-1.52,5.99-1.27,8.87-.49,6.82,1.86,13.05,6.51,17.52,11.89,.32,.39,.88-.17,.56-.56h0Z"/>
    <path class="cls-36" d="M1045.31,800.01c-6.65,3.92-8.27,13.78-2.87,19.43,.35,.37,.9-.19,.56-.56-5.05-5.28-3.5-14.53,2.72-18.19,.44-.26,.04-.94-.4-.68h0Z"/>
    <path class="cls-36" d="M1052.75,804.05c-4.84,6.42-.99,16.25,6.41,18.62,.48,.15,.69-.6,.21-.76-6.96-2.23-10.46-11.48-5.94-17.47,.3-.4-.38-.8-.68-.4h0Z"/>
    <path class="cls-36" d="M1252.61,793.33c3.3,1.11,5.92,4.24,5.93,7.8s-2.6,6.7-5.89,7.83c-.48,.16-.27,.92,.21,.76,3.61-1.23,6.48-4.67,6.46-8.58s-2.88-7.33-6.51-8.55c-.48-.16-.69,.6-.21,.76h0Z"/>
    <path class="cls-36" d="M1272.34,794.8c2.39,2.47,1.28,6.84-1.78,8.19-.46,.2-.06,.88,.4,.68,3.53-1.56,4.65-6.62,1.93-9.42-.35-.36-.91,.19-.56,.56h0Z"/>
    <path class="cls-36" d="M1175.03,792.87c-7.63,5.54-13.62,13.16-17.12,21.92-1.73,4.33-2.82,8.91-3.19,13.56-.16,2-.54,4.58,.72,6.32,1.06,1.47,2.95,1.95,4.68,2.01,4.26,.15,8.75-1.75,12.28-3.99,3.82-2.42,7.06-5.67,9.81-9.24s5.21-7.56,7.1-11.69c.93-2.02,1.63-4.33,.77-6.5-.67-1.68-2.14-2.94-3.99-3.02-2.59-.12-5.16,1.69-7.2,3.09-2.16,1.48-4.16,3.19-5.96,5.1-3.58,3.81-6.29,8.37-7.87,13.35-.15,.48,.6,.69,.76,.21,2.59-8.18,8.37-15.15,15.78-19.44,2.2-1.27,5.27-2.54,7.14-.08,1.64,2.15,.83,4.87-.2,7.09-1.72,3.68-3.86,7.24-6.27,10.51-4.78,6.49-11.34,12.14-19.48,13.59-1.9,.34-4.25,.48-5.91-.69-2-1.4-1.54-4.33-1.38-6.45,.32-4.2,1.25-8.34,2.7-12.29,3.33-9.07,9.43-17.03,17.24-22.7,.4-.29,.01-.98-.4-.68h0Z"/>
    <path class="cls-36" d="M1299.57,806.9c4.56-6.77,10.95-12.18,18.31-15.7,3.49-1.67,7.19-2.97,11.08-3.17,3.38-.17,7.14,.47,9.5,3.11,3.01,3.38,2.17,8.24,.53,12.05-1.71,3.96-4.29,7.62-7.17,10.81-2.73,3.02-5.88,6.02-9.68,7.62s-8.8,1.62-10.05-3c-1.31-4.86,2.99-8.92,6.09-12,3.37-3.35,7.29-6.63,12.23-6.99,.5-.04,.5-.82,0-.79-4.54,.33-8.27,2.96-11.5,5.98s-7.07,6.4-7.72,10.82c-.54,3.65,1.51,7.13,5.3,7.69,4.06,.61,8.13-1.75,11.13-4.23,3.77-3.12,7.05-6.86,9.63-11.02,2.3-3.7,4.5-8.16,3.94-12.65-1.12-8.86-11.67-9.14-18.31-7.09-9.69,2.99-18.36,9.78-23.99,18.15-.28,.42,.4,.81,.68,.4h0Z"/>
    <path class="cls-36" d="M1341.29,785.15c6.11,5.24,7.78,14.55,3.52,21.45-.27,.43,.41,.83,.68,.4,4.43-7.18,2.73-16.94-3.64-22.4-.38-.33-.94,.23-.56,.56h0Z"/>
    <path class="cls-36" d="M1285.09,793.15c5.23-9.83,17.2-15.1,28.05-13.24,.49,.08,.71-.67,.21-.76-11.18-1.92-23.52,3.44-28.93,13.6-.24,.45,.44,.84,.68,.4h0Z"/>
    <path class="cls-36" d="M1364.21,764.57c3.84-2.21,8,1.74,10.35,4.43,2.67,3.05,4.79,6.64,5.91,10.55,2.12,7.42,.06,15.7-6.04,20.64-.39,.32,.17,.87,.56,.56,5.01-4.07,7.57-10.59,7.05-16.99s-4.24-13.34-9.29-17.74c-2.39-2.08-5.88-3.88-8.93-2.12-.44,.25-.04,.93,.4,.68h0Z"/>
    <path class="cls-36" d="M1370.44,788.17c1.23,6-3.21,12-8.97,13.44-.49,.12-.28,.88,.21,.76,6.2-1.55,10.83-8,9.52-14.41-.1-.49-.86-.29-.76,.21h0Z"/>
    <path class="cls-36" d="M1396.1,784.61c3.3,.09,6.62,2.23,7.61,5.47s-.57,6.71-3.33,8.45c-.43,.27-.03,.95,.4,.68,3.05-1.93,4.77-5.81,3.69-9.34s-4.71-5.95-8.37-6.05c-.51-.01-.51,.77,0,.79h0Z"/>
    <path class="cls-36" d="M1416.24,769.23c9.97-.05,20.39-.15,29.82,3.56,7.58,2.98,14.97,8.91,16.85,17.19,.58,2.58,.61,5.57-.99,7.81-1.49,2.08-4.47,3.16-6.85,2-.45-.22-.85,.46-.4,.68,3.8,1.87,8.01-.93,9.04-4.73,1.17-4.32-.64-9.21-3.06-12.77-5.56-8.2-15.32-12.17-24.79-13.59-6.49-.97-13.08-.95-19.63-.92-.51,0-.51,.79,0,.79h0Z"/>
    <path class="cls-36" d="M1427.19,782.75c6.03-.48,12.17,.54,17.66,3.14,2.49,1.18,4.96,3.08,3.99,6.16-.82,2.63-3.26,4.69-5.41,6.26-.4,.3-.01,.98,.4,.68,2.27-1.66,4.69-3.73,5.67-6.44s-.22-4.92-2.44-6.35c-2.76-1.78-6.18-2.85-9.37-3.54-3.45-.74-6.98-.96-10.5-.68-.5,.04-.5,.83,0,.79h0Z"/>
    <path class="cls-36" d="M1428.49,796.17c1.4-.84,3.08-.2,4.07,.99,1.16,1.39,.91,3.17-.07,4.59-1.77,2.56-5.19,3.7-8.18,3.83-5.47,.23-11.21-2.69-13.46-7.81-.2-.46-.88-.06-.68,.4,2.14,4.85,7.29,7.8,12.46,8.17,2.7,.2,5.54-.33,7.87-1.75,2.06-1.26,4.24-3.69,3.54-6.31-.65-2.43-3.65-4.14-5.93-2.78-.43,.26-.04,.94,.4,.68h0Z"/>
    <path class="cls-26" d="M1271.96,197.4c-2.9-1.42-6.21-2.83-9.91-4.1-3.56-1.22-6.89-2.1-9.91-2.73-2.07,1.82-4.13,3.64-6.2,5.47-2.03-1.36-4.77-3.53-7.43-6.83-2.42-3.01-3.97-5.96-4.96-8.2-2.89-.46-5.78-.91-8.67-1.37,1.53,9.13,3.07,18.25,4.6,27.38,.81,4.82,1.62,9.63,2.43,14.45,5.39,2.73,10.79,5.62,16.18,8.57,5.4-6.66,11.21-13.33,16.61-19.99,4.32,3.11,8.97,5.49,13.74,7.6-2.65-8.35-4.89-15.31-6.49-20.24Z"/>
    <path class="cls-39" d="M1232.23,208c-1.2-4.89-2.39-9.78-3.63-14.7-3.25-12.93-6.55-25.68-9.91-38.26-1.54-.38-4.23-.79-7.43,0-4.64,1.15-7.54,4.16-8.67,5.47-2.07-4.55-4.13-9.11-6.2-13.66-2.89,.91-5.78,1.82-8.67,2.73-4.19,8.73-8.46,18.76-12.39,30.06-4.47,12.86-7.64,24.86-9.91,35.53-5.41,2.09-11.81,5.12-18.59,9.56-4.83,3.17-8.95,6.47-12.39,9.56-2.2,8.23-4.36,16.57-6.46,25.01-2.58,10.35-5.09,20.87-7.51,31.54,12.88-10.84,25.86-21.81,39.27-31.47,7.13-.77,14.01-1.44,21.17-1.72,12.89-11.47,26.86-21.07,40.03-31.42,6.82,2.13,12.88,6.32,18.32,11.18-2.27-9.74-4.6-19.54-7.02-29.41Z"/>
    <path class="cls-26" d="M1269.83,192.04c-2.79-1.27-5.98-2.53-9.54-3.67-3.43-1.09-6.64-1.87-9.54-2.44-1.99,1.63-3.98,3.26-5.96,4.89-1.96-1.22-4.6-3.16-7.16-6.11-2.33-2.69-3.83-5.33-4.77-7.33-2.78-.41-5.57-.81-8.35-1.22,1.48,8.16,2.96,16.32,4.43,24.48,.78,4.31,1.56,8.61,2.34,12.92,5.19,2.44,10.38,5.03,15.58,7.66,5.2-5.96,10.79-11.92,15.99-17.88,4.16,2.78,8.64,4.91,13.23,6.8-2.55-7.47-4.71-13.69-6.25-18.1Z"/>
    <path class="cls-5" d="M1427.94,329.14c-3.4-10.9-6.8-21.79-10.2-32.69-2.39-1.81-4.77-3.63-7.16-5.44-1.59,2.72-3.18,5.44-4.77,8.16-1.99,4.99-3.98,9.97-5.96,14.96-3.98-3.17-7.95-6.35-11.93-9.52-2.78,.45-5.57,.91-8.35,1.36-1.68,7.74-3.42,15.51-5.19,23.31-.56,2.49-1.14,4.98-1.71,7.47,4.4-.55,8.82-1.26,13.16-1.73,16.15,11.08,31.58,23.81,46.88,36.81,2.6-.83,5.15-1.81,7.66-2.86-4.15-13.28-8.29-26.56-12.44-39.84Z"/>
    <path class="cls-7" d="M1575.18,473.05c-2.77-4.24-5.55-8.31-8.35-12.22-3.5,.51-8.08,1.52-13.12,3.67-4.48,1.9-8.06,4.15-10.73,6.11-3.98-4.48-7.95-8.96-11.93-13.44-3.58,.81-7.16,1.63-10.73,2.44-3.98-1.36-11.58-4.62-17.89-12.22-2.89-3.48-4.76-6.96-5.96-9.77-4.77,.41-9.54,.81-14.31,1.22-4.77,.41-9.54,.81-14.31,1.22-9.15-26.34-18.3-52.68-27.46-79.01-4.15-11.93-8.29-23.86-12.44-35.79-3.4-9.79-6.8-19.58-10.2-29.37-2.39-1.63-4.77-3.26-7.16-4.89-1.59,2.44-3.18,4.89-4.77,7.33-1.99,4.48-3.98,8.96-5.96,13.44-3.98-2.85-7.95-5.7-11.93-8.55-2.78,.41-5.57,.81-8.35,1.22-1.68,6.95-3.42,13.94-5.19,20.94-.56,2.23-1.14,4.48-1.71,6.71-7.63,29.84-16.02,60.13-25.31,90.86-2.36,7.8-4.74,15.53-7.16,23.21-3.98-2.85-7.95-5.7-11.93-8.55-2.8-24.04-12.32-101.59-27.43-151.5-2.18-7.19-11.44-36.82-23.86-73.31-.31-.91-.61-1.8-.91-2.67-4.59-1.89-9.07-4.02-13.23-6.8-5.2,5.96-10.8,11.92-15.99,17.88-5.19-2.63-10.38-5.22-15.58-7.66,16.03,88.53,32.06,177.07,48.09,265.6,107.27,1.93,212.31,22.81,318.47,34.21-6.15-12.85-13.6-26.44-22.66-40.32Z"/>
    <path class="cls-29" d="M1244.78,255.58c2.85,13.72,5.63,27.56,8.35,41.54,7.58,39,14.32,77.3,20.28,114.85,6.76,4.07,13.52,8.15,20.28,12.22,2.39,4.89,4.77,9.77,7.16,14.66,6.36,2.44,12.72,4.89,19.08,7.33,5.57,8.55,12.69,19.75,18.25,28.3,6.76-4.07,9.4-6.96,16.15-11.03,0,1.1-5.94-11.18-10.55-14.83-18.87-14.89-37.65-25.94-54.87-34.21-2.87-14.81-5.66-29.89-8.35-45.21-2.54-14.44-4.92-28.69-7.16-42.76-2.51-14.1-5.97-29.26-10.73-45.21-1.9-6.35-3.9-12.46-5.96-18.33-.18-1.04-.7-3.12-2.39-4.89-3.64-3.83-9.2-2.53-9.54-2.44Z"/>
    <path class="cls-39" d="M1231.58,201.53c-1.15-4.37-2.3-8.74-3.49-13.15-3.12-11.56-6.31-22.96-9.54-34.21-1.48-.34-4.08-.71-7.16,0-4.47,1.03-7.26,3.72-8.35,4.89-1.99-4.07-3.98-8.15-5.96-12.22-2.78,.81-5.57,1.63-8.35,2.44-4.03,7.81-8.14,16.78-11.93,26.88-4.31,11.5-7.35,22.23-9.54,31.77-5.21,1.87-11.37,4.57-17.89,8.55-4.65,2.83-8.61,5.78-11.93,8.55-2.12,7.36-4.19,14.82-6.22,22.36-2.49,9.26-4.9,18.66-7.23,28.2,12.4-9.69,24.9-19.5,37.8-28.14,6.86-.69,13.49-1.29,20.38-1.54,12.4-10.25,25.86-18.84,38.54-28.1,6.56,1.91,12.4,5.66,17.63,9.99-2.18-8.71-4.43-17.47-6.76-26.3Z"/>
    <path class="cls-30" d="M1335.43,457.17c-4.84-6.12-9.7-11.39-14.31-15.88-4.77-2.04-9.54-4.07-14.31-6.11-1.19-3.67-2.39-7.33-3.58-11-3.38-2.83-6.96-5.69-10.73-8.55-5.31-4.03-10.49-7.68-15.51-11-2.9-26.78-7.12-55.4-13.12-85.52-3.3-16.57-6.91-32.46-10.73-47.65-2.39-4.07-4.77-8.15-7.16-12.22-2.44-10.37-4.99-20.86-7.64-31.42-5.23-4.34-11.07-8.09-17.63-9.99-12.68,9.26-26.13,17.85-38.54,28.1-6.89,.25-13.52,.84-20.38,1.54-12.91,8.64-25.4,18.45-37.8,28.14-6.57,26.85-12.49,54.8-17.56,83.83-1.72,9.87-3.31,19.65-4.77,29.32-3.98,31.36-7.95,62.72-11.93,94.08,77.93-.41,158.68-.22,236.61-.63,6.36-4.89,9.79-6.14,16.15-11.03-2.15-3.17-4.42-10.66-7.06-14Z"/>
    <path class="cls-21" d="M990.72,503.23c2.96-7.96,6.83-16.72,11.93-25.92,9.84-17.75,21.16-31.53,31.01-41.69,5.17-10.89,10.34-21.79,15.51-32.68,3.18-1.88,6.36-3.76,9.54-5.63,3.18,2.25,6.36,4.51,9.54,6.76,3.74-1.58,8.13-3.17,13.12-4.51,3.85-1.03,7.46-1.75,10.73-2.25,2.78,1.88,5.57,3.76,8.35,5.63,3.58,6.01,7.16,12.02,10.73,18.03,2.78,1.88,5.57,3.76,8.35,5.63,4.77,7.89,9.54,15.78,14.31,23.66,2.74-2.07,5.54-4.32,8.35-6.76,8.32-7.23,14.97-14.59,20.28-21.41,3.11-2.17,7.49-4.74,13.12-6.76,7.68-2.75,14.52-3.34,19.08-3.38,1.92,2.79,4.28,5.86,7.16,9.01,3.29,3.62,6.57,6.6,9.54,9.01,2.5-1.2,6.14-2.62,10.73-3.38,5.48-.9,10.1-.5,13.12,0,1.67,3.19,3.64,6.6,5.96,10.14,2.79,4.25,5.63,8,8.35,11.27,2.73,1.99,5.89,3.94,9.54,5.63,17.88,8.31,35.93,5.32,44.13,3.38,2.21,1.83,4.83,4.41,7.16,7.89,5.11,7.64,5.88,15.25,5.96,19.16-3.18,1.88-6.36,3.76-9.54,5.63-7.95-.38-17.09,1.02-17.09,1.02,0,0-35.92,11.01-35.54,11.19-39.76-2.25-76.98-4.32-116.74-6.57,.43,.47-46.96,16.75-47.71,16.9-16.59,.41-35.45-.07-56.06-2.25-15.65-1.66-30.01-4.05-42.94-6.76Z"/>
    <path class="cls-21" d="M1203.56,551.35c3.03-5.13,8.04-12.28,15.93-19.16,7.14-6.22,14.16-10.06,19.34-12.39,3.42-.54,7.23-.96,11.38-1.13,2.82-.11,5.48-.1,7.96,0,6.55-4.46,13.75-9.02,21.62-13.52,8.33-4.77,16.34-8.87,23.89-12.39h11.38c10.57-7.73,22.7-15.79,36.41-23.66,15.36-8.82,29.97-15.82,43.24-21.41,4.17,2.63,8.34,5.26,12.52,7.89,3.03-.75,6.07-1.5,9.1-2.25l17.07,3.38c3.45,6.37,7.58,13.2,12.52,20.28,3.43,4.92,6.87,9.42,10.24,13.52,3.79,.75,7.59,1.5,11.38,2.25,3.76-2.3,8.31-4.69,13.65-6.76,10.14-3.93,19.35-5.25,26.17-5.63,1.14,1.88,2.28,3.76,3.41,5.63,9.43,3.02,18.91,6.02,28.44,9.01,17.17,5.39,34.24,10.64,51.2,15.78,3.37,2.04,7.19,4.96,6.83,7.89-.47,3.72-7.71,7.58-43.24,11.27-15.99,1.66-38.47,3.37-65.99,3.38-1.14,2.25-2.28,4.51-3.41,6.76-19.79,3.39-47.02,7.4-79.64,10.14-34.29,2.88-59.92,3.14-91.02,3.38-28.58,.22-66.08-.11-110.36-2.25Z"/>
    <path class="cls-41" d="M1674.82,424.24c-2.06,3.07-6.93,9.41-15.02,12.63-13.47,5.36-25.05-2.25-27.04-3.61-6.02,3.49-13.57,6.93-22.53,9.02-24.82,5.8-45.48-2.25-55.57-7.22-3.16,.22-6.68,.27-10.51,0-4.47-.31-8.5-.99-12.02-1.8-4.35,2.88-11.64,6.72-21.03,7.22-20.51,1.1-34.6-14.61-37.55-18.04-4.51-1.2-9.01-2.41-13.52-3.61-.22,.81-2.88,10.02-10.51,12.63-6.57,2.25-14.01-1.35-18.02-9.02-1.35,1.44-4.41,4.31-9.01,5.41-5.83,1.4-10.45-.92-12.02-1.8-2.89,2.88-8.55,7.62-16.52,9.02-17.46,3.08-30.14-12.65-31.54-14.43-6.96,6.48-18.1,14.72-33.04,18.04-7.36,1.64-29.21,6.51-46.56-9.02-4.32-3.86-7.24-7.99-9.01-10.83-2.92,1.68-12.19,6.45-24.03,3.61-11.85-2.85-18.87-11.54-21.03-14.43-8.95,7.82-20.03,9.16-28.54,3.61-6.12-3.99-13.68-13.35-12.02-23.46,1.7-10.31,12.59-18.92,25.53-16.24-.93-7.48,2.16-14.78,7.51-18.04,6.03-3.68,13.74-1.49,18.02,5.41,1.27-1.6,8.83-10.83,21.03-10.83s19.76,9.23,21.03,10.83c1.3-4.04,9.4-28.03,30.04-36.09,5.21-2.04,20.87-8.15,33.04,3.61,13.09,12.64,10.67,34.81,10.51,36.09,1.43-.93,11.36-7.11,22.53-1.8,13.79,6.55,16.41,24.4,16.52,25.26,.75-.76,9.26-9.05,19.53-5.41,5.91,2.09,9.29,7.03,10.51,9.02,3.6-4.1,8.81-5.49,13.52-3.61s8.18,6.75,9.01,12.63c.13-.61,2.88-12.95,12.02-16.24,8.31-2.99,18.36,2.79,22.53,14.43,3,5.41,6.01,10.83,9.01,16.24,3.91,3.06,11.18,7.81,21.03,9.02,16.97,2.09,29.51-7.81,33.04-10.83-1.24-3.86-2.64-9.43-3-16.24-1.2-22.67,9.48-52.06,31.54-61.35,16.55-6.97,40.98-3.25,49.57,16.24,4.92,11.18,2.8,23.38,1.5,28.87,2.29-2.65,9.96-10.83,21.03-10.83,6.14,0,18.72,2.53,21.03,12.63,1.42,6.22-1.74,12.26-3,14.43,2.64-.61,9.12-1.66,16.52,1.8,7.71,3.61,11.96,10.02,13.52,12.63,4.68,3.06,11.51,6.29,18.02,3.61,7.47-3.08,8.47-11.44,15.02-12.63,7.46-1.36,17.23,7.47,16.52,14.43-.59,5.8-8.58,11.61-19.53,10.83-2.7,3.21-6.66,6.87-12.02,9.02-17.92,7.2-34.58-9.32-36.05-10.83Z"/>
    <path class="cls-41" d="M1028.27,328.2c.44-2.15,3.01-13.43,14.31-20.28,1.77-1.07,15.63-9.15,29.82-2.25,9.56,4.65,15.54,14.28,15.51,24.79,1.25-.32,6.41-1.49,11.93,1.13,5.94,2.81,7.96,7.96,8.35,9.01,.92,.02,6.56,.24,8.35,3.38,2.02,3.54-1.04,10.52-9.54,14.65,.84-.38,7.38-3.19,14.31,0,5.98,2.75,7.98,8,8.35,9.01,2.02-2.38,6.73-7.19,14.31-9.01,7.4-1.78,17.83-.79,19.08,3.38,.95,3.14-3.44,7.62-9.54,11.27-.38,1.57-1.29,4-3.58,5.63-4.09,2.93-11.07,2.26-16.7-2.25-.26,.65-2.28,5.45-7.16,6.76-5.19,1.39-11.62-1.71-14.31-7.89-1.48,1.82-5.93,6.76-13.12,7.89-9.51,1.49-19.95-4.31-25.05-14.65-.45,.69-3.04,4.53-8.35,5.63-5.77,1.2-10.11-1.81-10.73-2.25-.12,7.72-6.46,14.07-14.31,14.65-8.29,.61-15.89-5.39-16.7-13.52-1.96,2.01-8.13,7.83-17.89,9.01-10.76,1.31-21.69-3.52-28.63-12.39-.81,1.03-5.61,6.91-14.31,7.89-7.48,.84-12.94-2.49-14.31-3.38-2.65,.92-10.64,3.31-19.08,0-3.53-1.38-10.08-4.92-9.54-7.89,.41-2.29,5.14-4.76,23.86-5.63,1.08-2.14,5.08-9.42,14.31-13.52,7.96-3.54,15.24-2.69,17.89-2.25-.17-.58-3.21-11.22,3.58-18.03,6.62-6.65,20.09-7.11,29.82,1.13,.28-.56,2.43-4.65,7.16-5.63,4.48-.94,9.42,1.31,11.93,5.63Z"/>
  </g>
  <g id="_Слой_2-2" data-name="Слой 2">
    <g>
      <path class="cls-23" d="M602.55,499.35c-1.2,3.89-4.14,12.04-6.84,19.56-6.56,18.25-13.54,37.3-27.38,57.69-2.69,3.96-6.9,9.84-12.71,16.62,5.4-1.69,11.77-4.15,18.58-7.82,5.36-2.89,9.92-5.94,13.69-8.8,2.64-4.71,6.15-11.36,9.78-19.56,8.42-19.02,11.97-33.97,12.71-37.16,1.36-5.86,2.92-13.84,3.91-23.47-4.24,1.63-7.5,1.3-11.73,2.93Z"/>
      <path class="cls-18" d="M703.32,626.41c-1.12,8.01-2.42,16.16-3.91,24.44-6.78,37.7-16.44,71.98-27.38,102.67-1.49,4.56-6.15,16.72-18.58,25.42-15.82,11.08-32.95,8.64-38.13,7.82-4.37-.69-18.26-3.44-37.16-21.51-29.89-28.59-40.26-64.87-47.91-92.89-5.02-18.37-7.5-33.83-8.8-44,60.62-.65,121.25-1.3,181.87-1.96Z"/>
      <path class="cls-23" d="M679.8,458.29c.61-2.01,1.27-5.08,.98-8.8-.49-6.34-3.44-10.79-4.89-12.71-3.04-2.96-7.55-6.69-13.69-9.78-9.51-4.79-18.3-5.73-23.47-5.87-1.83-2.41-5.9-7.06-12.71-9.78-3.26-1.3-12.4-4.94-20.53,0-6.33,3.85-8.28,10.61-8.8,12.71-2.09-.15-7.11-.22-11.73,2.93-7.86,5.36-7.83,15.45-7.82,17.6,.03,12.03,9.4,19.49,10.76,20.53-.57,5.34-.32,9.72,0,12.71,.69,6.35,1.35,12.49,5.87,17.6,1.21,1.37,3.36,3.75,6.84,4.89,5.26,1.72,10.44-.39,13.69-1.96,9.24-4.43,33.62-19.08,65.51-40.09Z"/>
      <path class="cls-34" d="M679.8,454.38c-.18,4.66-.49,9.56-.98,14.67-.52,5.5-1.19,10.72-1.96,15.64,.75,1.58,1.62,3.92,1.96,6.84,.22,1.89,.15,3.56,0,4.89-2.04,3.2-4.89,6.99-8.8,10.76-6.39,6.16-12.95,9.71-17.6,11.73-2.48,.39-4.52,.22-5.87,0-2.53-.41-4.34-1.24-5.87-1.96-2.06-.97-3.69-2.04-4.89-2.93-1.49,12.4-2.56,25.8-2.93,40.09-.2,7.78-.19,15.28,0,22.49-3.55,1.37-8.57,2.8-14.67,2.93-13.63,.3-23.58-6.06-27.38-8.8,4.41-8.56,8.8-18.35,12.71-29.33,7.59-21.31,11.12-40.82,12.71-56.71-3.67-2.42-5.75-5.15-6.84-6.84-1.33-2.07-4.98-7.72-2.93-12.71,.18-.44,1.44-3.51,3.91-3.91,1.95-.31,3.86,1.16,4.89,1.96,.92,.71,1.56,1.44,1.96,1.96,3.73-.42,7.66-1.05,11.73-1.96,18.45-4.1,32.86-12.22,43.02-19.56,1.54,1.55,3.24,3.49,4.89,5.87,1.19,1.72,2.16,3.38,2.93,4.89Z"/>
      <path class="cls-38" d="M632.92,558.94c-1.87,.91-4.42,2.42-6.84,4.89-6.98,7.1-7.7,16.82-8.8,16.62-.65-.12,.06-3.46-.98-8.8-.56-2.88-1.29-6.45-3.91-9.78-1.7-2.16-3.5-3.34-5.87-4.89-3.03-1.99-5.82-3.19-7.82-3.91-1.51,3.5-3.14,7.09-4.89,10.76-1.62,3.39-3.25,6.65-4.89,9.78-1.18,1.9-3.05,4.43-5.87,6.84-2.12,1.81-4.18,3.06-5.87,3.91-5,2.65-10.87,5.38-17.6,7.82-5.99,2.18-11.59,3.75-16.62,4.89-2.99,2.09-6.44,4.96-9.78,8.8-7.25,8.34-10.34,17.1-11.73,22.49,4.37,.74,11.24,2.45,18.58,6.84,6.55,3.92,10.99,8.48,13.69,11.73,3.69,5.3,9,12.75,15.64,21.51,5.89,7.76,9.81,12.93,14.67,18.58,11.58,13.47,19.8,23.03,33.24,30.31,7.48,4.05,18.11,9.67,31.29,7.82,3.5-.49,11.3-1.69,17.6-7.82,4.28-4.16,6.29-9.07,7.82-14.67,5.01-18.35,3.28-38.6,1.96-48.89,1.03-3.52,3.17-9.14,7.82-14.67,7.1-8.44,15.79-11.59,19.56-12.71,.01-2.83-.3-7.01-1.96-11.73-2.18-6.22-5.64-10.43-7.82-12.71-2.23-1.91-5.82-4.49-10.76-5.87-3.26-.91-5.56-.87-7.82-.98-3.91-.18-15.23-2.49-26.4-6.84-3.92-1.53-8.98-3.73-14.67-6.84-.52-4.9-.87-10.12-.98-15.64-.04-2.34-.04-4.62,0-6.84Z"/>
      <path class="cls-34" d="M540.93,687.84c0,.79,.01,1.82,.02,3.16,0,2.08,0,3.78,0,4.89,.77,2.11,1.73,4.41,2.93,6.84,1.28,2.59,2.62,4.87,3.91,6.84-.78,1.5-1.74,3.16-2.93,4.89-1.32,1.92-2.67,3.54-3.91,4.89,0,17.6,0,35.2,0,52.8,4.12-11.53,10.01-24.62,18.58-38.13,2.9-4.57,5.85-8.8,8.8-12.71,3.09-.77,6.37-1.73,9.78-2.93,8.12-2.86,14.97-6.37,20.53-9.78,1.43-1.42,3.36-3.67,4.89-6.84,1.06-2.21,1.64-4.26,1.96-5.87,.56-3.01,.99-6.64,.98-10.76-.02-5.9-.95-10.89-1.96-14.67-.33-1.3-.65-2.61-.98-3.91-.07-.18-.57-1.49-1.96-1.96-.89-.3-1.67-.09-1.96,0-.5-.39-1.62-1.14-2.93-.98-2.05,.26-3.91,2.64-3.91,5.87-.98,5.87-1.96,11.73-2.93,17.6-1.28,.92-2.59,1.9-3.91,2.93-2.1,1.64-4.05,3.28-5.87,4.89,1.12-2.19,2.41-4.49,3.91-6.84,.65-1.02,1.3-2,1.96-2.93,.25-1.86,.56-3.82,.98-5.87,.57-2.82,1.24-5.44,1.96-7.82,0-.74-.07-2.52-.98-2.93-1.06-.48-3.1,.99-4.89,3.91-.65,1.96-1.3,3.91-1.96,5.87s-1.3,3.91-1.96,5.87c-2.44,1.93-5.04,3.9-7.82,5.87-3.02,2.14-5.96,4.09-8.8,5.87h-2.93c-1.39-.59-3.13-1.5-4.89-2.93-3.36-2.74-5.06-5.95-5.87-7.82v-6.84c-.08-.38-.69-2.98-2.93-3.91-.49-.2-1.85-.76-2.93,0-.83,.58-1.21,1.74-.98,2.93,.25,1.28,.15,2.27,0,2.93-.27,1.2-1,6.93-1,7.59Z"/>
      <path class="cls-18" d="M562.46,730.11c0,9.45,0,18.9,0,28.36,0,20.86,0,41.72,0,62.58-.21,4.12-.53,10.21-.98,17.6-.5,8.28-.76,12.42-.98,14.67-1.22,12.4-5.31,30.41-8.8,30.31-3.22-.09-5.44-15.16-6.84-28.36-.34-5.19-.67-10.41-.98-15.64-1.35-22.83-2.31-45.33-2.93-67.47,2.15-6.84,5.25-14.87,9.78-23.47,3.85-7.3,7.93-13.48,11.73-18.58Z"/>
      <path class="cls-20" d="M652.42,498.38c4.27-2.78,9.18-2.57,11.73,0,1.62,1.63,1.9,3.81,1.96,4.89-1.6,.05-4.05-.06-6.84-.98-3.28-1.08-5.56-2.79-6.84-3.91Z"/>
      <path class="cls-25" d="M655.77,597.39c-.48-7.55-.95-15.13-1.4-22.75-1.12-19.11-1.11-37.04-1.96-55.73,1.63-.33,3.91-1.96,3.91-1.96,.23,3.02,.56,7.42,.98,12.71,.28,3.54,2.26,28.61,3.91,44.98,.6,5.95,1.39,13.11,2.45,21.42-2.48,1.3-5.17,1.6-7.9,1.33Z"/>
      <path class="cls-37" d="M663.67,596.06c1.32,10.33,3.06,22.44,5.37,36.27-.44,.53-2.05,2.37-4.89,2.93-3,.59-5.3-.65-5.87-.98-.89-12.2-1.72-24.5-2.51-36.89,2.73,.27,5.42-.03,7.9-1.33Z"/>
      <path class="cls-33" d="M603.49,596.74c.39-7.56,.8-15.14,1.23-22.76,1.09-19.12,6.28-73.56,7.6-92.22,0,0,1.96,1.96,3.91,2.93-.12,3.03-3.22,39.64-3.41,44.95-.13,3.55-1.05,28.68-1.3,45.13-.09,5.98-.13,13.18-.03,21.56-2.62,1-5.32,.99-8,.41Z"/>
      <path class="cls-37" d="M611.49,596.33c.12,10.41,.45,22.65,1.15,36.65-.49,.48-2.31,2.12-5.19,2.35-3.04,.24-5.19-1.26-5.71-1.65,.53-12.22,1.12-24.54,1.76-36.94,2.68,.58,5.38,.59,8-.41Z"/>
      <path class="cls-18" d="M727.77,712.45c-3.29,2.26-6.98,5.15-10.76,8.8-4.62,4.47-8.14,8.9-10.76,12.71,0,21.51,0,43.02,0,64.53-.08,4.15-.14,10.24,0,17.6,.18,9.43,.27,14.68,.98,20.53,1.2,9.97,4.73,26.49,7.82,26.4,3.02-.09,5.25-16.04,7.82-48.89,1.95-24.96,4.09-59.53,4.89-101.69Z"/>
      <path class="cls-34" d="M706.25,733.96c2.43-3.52,5.63-7.58,9.78-11.73,3.02-3.02,6.9-6.44,11.73-9.78,1.63-1.3,3.26-2.61,4.89-3.91,4.16,.23,8.75,.28,13.69,0,7.78-.44,14.69-1.58,20.53-2.93,2.61-2.93,5.21-5.87,7.82-8.8,2.61-.98,5.21-1.96,7.82-2.93,2.89-1.95,5.82-3.91,8.8-5.87,4.6-3.03,9.17-5.96,13.69-8.8,.22-.59,.63-1.95,0-2.93-.92-1.42-3.87-1.82-6.84,0,.35-1.1-.05-2.29-.98-2.93-.87-.6-2.04-.6-2.93,0-2.42,.77-5.05,1.73-7.82,2.93-2.92,1.27-5.52,2.6-7.82,3.91,.33-3.59,.65-7.17,.98-10.76,.1-1.33-.24-2.59-.98-2.93-.97-.45-2.9,.52-3.91,2.93-.33,1.3-.65,2.61-.98,3.91l-2.93,8.8c0-2.93,0-5.87,0-8.8-.91-1.86-1.73-1.95-1.96-1.96-1.41-.03-2.6,2.86-2.93,4.89-.2,1.22-.11,2.25,0,2.93l-5.87,2.93c-1.96,.98-3.91,1.96-5.87,2.93-2.93,.33-5.87,.65-8.8,.98-1.77,.22-4.2,.73-6.84,1.96-3.88,1.79-6.42,4.27-7.82,5.87-7.82,4.24-15.64,8.47-23.47,12.71-.33,9.13-.65,18.25-.98,27.38Z"/>
      <path class="cls-18" d="M698.27,618.7c-9.93,1.71-17.45,9.09-22.3,17.55-.23,.4,.39,.77,.62,.36,4.77-8.31,12.11-15.53,21.87-17.22,.46-.08,.26-.77-.19-.7h0Z"/>
      <path class="cls-18" d="M673.41,640.46c-.38,1.06-.82,2.09-1.34,3.1-.21,.41,.41,.78,.62,.36,.54-1.06,1.01-2.15,1.41-3.27,.07-.18-.07-.4-.25-.44-.2-.05-.38,.07-.44,.25h0Z"/>
      <path class="cls-18" d="M669.92,651.77c.76,8.56,1.43,17.16,1.71,25.75,.26,8.02-.05,16.43-3.4,23.86-2.7,5.99-7.37,11.47-13.68,13.77-7.49,2.74-16.04,.6-23.35-1.78-8.04-2.62-15.64-6.67-21.77-12.55-.34-.32-.85,.19-.51,.51,5.46,5.23,12.08,9.05,19.14,11.7,3.71,1.39,7.54,2.49,11.43,3.26s8.24,1.19,12.31,.38c6.62-1.32,11.94-5.98,15.34-11.65,4.03-6.72,5.17-14.64,5.27-22.37,.13-10.28-.86-20.65-1.77-30.88-.04-.46-.76-.46-.72,0h0Z"/>
      <path class="cls-18" d="M581.2,667.43c-8.85-14.1-18.88-27.68-31.85-38.27-.36-.29-.87,.22-.51,.51,12.93,10.55,22.92,24.08,31.74,38.13,.25,.39,.87,.03,.62-.36h0Z"/>
      <path class="cls-18" d="M544.21,624.85c-4.5-2.81-9.52-4.7-14.76-5.53-.45-.07-.65,.62-.19,.7,5.18,.83,10.14,2.68,14.59,5.46,.4,.25,.76-.38,.36-.62h0Z"/>
      <path class="cls-18" d="M630.72,563.93c-2.27,2.04-4.18,4.45-5.65,7.13-.22,.41,.4,.77,.62,.36,1.44-2.62,3.31-4.98,5.54-6.98,.35-.31-.17-.82-.51-.51h0Z"/>
      <path class="cls-18" d="M623.69,575.08c-.81,2.41-1.62,4.82-2.43,7.23-.15,.44,.55,.63,.7,.19,.81-2.41,1.62-4.82,2.43-7.23,.15-.44-.55-.63-.7-.19h0Z"/>
      <path class="cls-18" d="M611.97,568.35c1.41,4.56,2.18,9.28,2.29,14.05,.01,.46,.73,.47,.72,0-.11-4.83-.89-9.63-2.31-14.24-.14-.44-.83-.25-.7,.19h0Z"/>
      <path class="cls-18" d="M631.61,581.08c-1.44,.93-2.98,1.71-4.6,2.31-.43,.16-.25,.86,.19,.7,1.67-.62,3.27-1.41,4.77-2.38,.39-.25,.03-.88-.36-.62h0Z"/>
      <path class="cls-18" d="M620.36,585.69c-3.05,.4-6.14,.24-9.14-.48-.45-.11-.64,.59-.19,.7,3.05,.73,6.21,.91,9.33,.5,.45-.06,.46-.78,0-.72h0Z"/>
      <path class="cls-18" d="M602.06,582.79c-4.43-1.48-8.56-3.77-12.17-6.73-.36-.29-.87,.22-.51,.51,3.71,3.05,7.94,5.4,12.49,6.92,.44,.15,.63-.55,.19-.7h0Z"/>
      <path class="cls-18" d="M585.99,684.53c-.78,3.09-2.72,5.66-4.71,8.07-2.12,2.57-4.39,5.02-6.77,7.35-.33,.33,.18,.84,.51,.51,2.52-2.47,4.91-5.07,7.14-7.8,1.94-2.38,3.77-4.92,4.52-7.94,.11-.45-.58-.64-.7-.19h0Z"/>
      <path class="cls-18" d="M598.29,664.49c.77,8.1,.52,16.26-.75,24.29-.07,.45,.62,.65,.7,.19,1.28-8.1,1.54-16.32,.77-24.49-.04-.46-.77-.46-.72,0h0Z"/>
      <path class="cls-18" d="M597.16,690.85c-3.25,6.08-9.59,9.29-15.51,12.22-.42,.21-.05,.83,.36,.62,6.04-2.99,12.47-6.29,15.77-12.48,.22-.41-.4-.77-.62-.36h0Z"/>
      <path class="cls-18" d="M603.31,668.21c.97,7.93,1.05,15.94,.22,23.89-.05,.46,.67,.46,.72,0,.83-7.95,.76-15.96-.22-23.89-.06-.46-.78-.46-.72,0h0Z"/>
      <path class="cls-18" d="M603.72,691.95c-3.72,5.91-8.93,10.77-15.08,14.07-.41,.22-.05,.84,.36,.62,6.26-3.36,11.56-8.32,15.34-14.33,.25-.39-.38-.76-.62-.36h0Z"/>
      <path class="cls-18" d="M767.24,671.51c-2.92,4.82-2.53,10.66-2.05,16.05,.04,.46,.76,.46,.72,0-.46-5.25-.9-10.98,1.96-15.69,.24-.4-.38-.76-.62-.36h0Z"/>
      <path class="cls-18" d="M764.98,687.66c-.68,.89-1.71,1.4-2.62,2s-1.7,1.23-2.47,1.94c-1.55,1.44-2.86,3.13-3.88,4.98-.22,.41,.4,.77,.62,.36,1.04-1.89,2.38-3.59,3.98-5.03,.81-.73,1.68-1.37,2.6-1.95s1.75-1.1,2.39-1.95c.28-.37-.35-.73-.62-.36h0Z"/>
      <path class="cls-18" d="M748.11,695.19c-5.8-1.8-12.42,.5-15.9,5.45-.27,.38,.36,.74,.62,.36,3.3-4.7,9.62-6.82,15.09-5.12,.44,.14,.63-.56,.19-.7h0Z"/>
      <path class="cls-18" d="M770.91,680.07c.02,3.32,.03,6.63,.05,9.95,0,.46,.72,.47,.72,0-.02-3.32-.03-6.63-.05-9.95,0-.46-.72-.47-.72,0h0Z"/>
      <path class="cls-18" d="M771.1,689.94c-1.36,1.6-2.74,3.19-4.13,4.77-.67,.77-1.35,1.53-2.03,2.29-.35,.39-.7,.78-1.05,1.17-.19,.21-.37,.41-.56,.62-.08,.09-.38,.52-.5,.51l.31,.18-.03-.05,.04,.28-.15,.13-.41-.17,.03,.04c.27,.38,.89,.02,.62-.36l-.03-.04c-.09-.13-.25-.22-.41-.17-.29,.1-.48,.42-.29,.7,.29,.42,.76,.07,1.01-.19,.93-1,1.82-2.02,2.72-3.04,1.81-2.03,3.59-4.09,5.35-6.16,.3-.35-.21-.86-.51-.51h0Z"/>
      <path class="cls-18" d="M778.84,679.06c-.38,3.89-.85,7.77-1.39,11.63-.06,.45,.63,.65,.7,.19,.56-3.93,1.03-7.87,1.42-11.83,.05-.46-.68-.46-.72,0h0Z"/>
      <path class="cls-18" d="M777.52,690.67c-1.77,4.03-4.19,7.74-7.17,10.97-.31,.34,.19,.85,.51,.51,3.03-3.28,5.49-7.03,7.28-11.12,.18-.42-.44-.79-.62-.36h0Z"/>
      <path class="cls-18" d="M798.11,675.33c-5.99,2.87-11.56,6.52-16.6,10.85-.35,.3,.16,.81,.51,.51,4.99-4.29,10.52-7.89,16.45-10.74,.42-.2,.05-.82-.36-.62h0Z"/>
      <path class="cls-18" d="M781.72,686.13c-1.12-.36-2.39-.18-3.36,.47-.16,.11-.23,.32-.13,.49,.09,.16,.33,.24,.49,.13,.83-.55,1.86-.7,2.81-.39,.44,.14,.63-.56,.19-.7h0Z"/>
      <path class="cls-18" d="M766.06,686.2c-2.02,.69-4.03,1.39-6.05,2.08s-4.11,1.64-6.25,1.31c-.45-.07-.65,.63-.19,.7,2.15,.33,4.17-.46,6.17-1.15,2.17-.75,4.34-1.49,6.52-2.24,.44-.15,.25-.85-.19-.7h0Z"/>
      <path class="cls-18" d="M585.14,583.62c-10.08,7.58-22.14,12.28-34.7,13.47-.46,.04-.46,.77,0,.72,12.68-1.2,24.88-5.91,35.06-13.57,.37-.28,0-.9-.36-.62h0Z"/>
      <path class="cls-18" d="M546.83,599.1c5.95,2.64,10.79,7.43,13.48,13.35,.19,.42,.81,.06,.62-.36-2.74-6.02-7.7-10.93-13.74-13.61-.42-.19-.79,.44-.36,.62h0Z"/>
      <path class="cls-18" d="M676.48,600.48c-.74,7.08-1.87,14.1-3.37,21.06-.1,.45,.6,.65,.7,.19,1.51-7.02,2.64-14.11,3.4-21.25,.05-.46-.67-.46-.72,0h0Z"/>
      <path class="cls-37" d="M663.01,592.63c-2.44,1.27-5.28,1.67-7.98,1.12-.45-.09-.65,.6-.19,.7,2.9,.6,5.91,.18,8.53-1.19,.41-.21,.05-.84-.36-.62h0Z"/>
      <path class="cls-37" d="M662.84,589.86c-2.65,.98-5.53,1.22-8.3,.66-.45-.09-.65,.6-.19,.7,2.9,.59,5.91,.37,8.69-.66,.43-.16,.25-.86-.19-.7h0Z"/>
      <path class="cls-37" d="M610.6,593.16c-2.68,.45-5.43,.33-8.06-.34-.45-.11-.64,.58-.19,.7,2.77,.69,5.63,.8,8.45,.34,.46-.08,.26-.77-.19-.7h0Z"/>
      <path class="cls-37" d="M611.28,589.9c-2.79,.82-5.77,.69-8.49-.36-.43-.17-.62,.53-.19,.7,2.83,1.09,5.97,1.21,8.87,.36,.44-.13,.26-.83-.19-.7h0Z"/>
      <path class="cls-18" d="M618.38,471.84c-1.66-2.47-3.65-4.71-5.92-6.63-.35-.3-.86,.21-.51,.51,2.22,1.89,4.18,4.07,5.8,6.49,.26,.38,.88,.02,.62-.36h0Z"/>
      <path class="cls-18" d="M617.15,470.32c-.67-.49-1.57-.5-2.31-.18-.83,.36-1.4,1.12-1.57,2-.41,2.08,1.01,3.8,2.52,5.03,.36,.29,.87-.22,.51-.51-1.24-1-2.49-2.32-2.37-4.03,.05-.72,.4-1.4,1.05-1.75,.58-.31,1.27-.33,1.81,.07,.38,.28,.74-.35,.36-.62h0Z"/>
      <path class="cls-40" d="M661.22,480.78c-1.72-1.2-4.15-2.61-7.26-3.63-5.05-1.66-9.48-1.51-12.11-1.21-2.02-2.02-4.04-4.04-6.05-6.05,2.82,.81,5.65,1.61,8.47,2.42,1.3-.26,5.31-.88,9.68,1.21,4.67,2.23,6.71,6.11,7.26,7.26Z"/>
      <path class="cls-40" d="M668.29,482.83c1.5-.09,3.49-.03,5.66,.55,3.52,.94,5.83,2.81,7.09,4.06,2.06-.5,4.12-1,6.17-1.5-1.91-.61-3.82-1.21-5.72-1.82-.58-.69-2.43-2.7-5.79-3.09-3.59-.42-6.55,1.28-7.41,1.8Z"/>
      <path class="cls-40" d="M661.22,467.09c-.92-.55-2.25-1.28-3.91-1.96-1.71-.7-4.32-1.74-7.82-1.96-3.1-.19-5.78,.33-7.82,.98,2.19-1.62,5.94-3.78,10.76-3.91,1.88-.05,7.29-.19,8.8,2.93,.67,1.39,.33,2.94,0,3.91Z"/>
      <path class="cls-40" d="M670.98,471.14c.94-.06,2.24-.09,3.76,.07,1.56,.16,3.93,.44,6.47,1.8,2.25,1.2,3.82,2.83,4.89,4.27-.65-2.33-2.08-5.81-5.35-8.04-1.27-.87-4.95-3.38-7.67-1.41-1.21,.88-1.81,2.33-2.1,3.3Z"/>
      <path class="cls-18" d="M667.08,491.18c-.15-1.42-1.21-2.47-2.5-2.98-1.66-.65-3.53-.21-5.2,.18-.45,.11-.26,.8,.19,.7,1.45-.34,3.05-.73,4.52-.28,1.08,.33,2.14,1.2,2.27,2.38,.05,.46,.77,.46,.72,0h0Z"/>
      <path class="cls-36" d="M633.72,511.57c-.17-.14-.32-.28-.47-.44-.08-.08-.15-.16-.22-.25-.03-.04-.07-.08-.1-.12-.02-.02-.04-.05-.05-.07,.03,.04,0,0-.02-.02-.26-.35-.48-.73-.65-1.13-.08-.17-.34-.23-.49-.13-.18,.12-.21,.31-.13,.49,.36,.84,.93,1.59,1.64,2.18,.15,.12,.37,.15,.51,0,.12-.13,.16-.38,0-.51h0Z"/>
      <path class="cls-36" d="M628.24,504.7c-3.29-4.12-5.31-9.17-5.78-14.43-.04-.46-.76-.46-.72,0,.49,5.46,2.57,10.65,5.99,14.94,.29,.36,.8-.15,.51-.51h0Z"/>
      <path class="cls-36" d="M665.63,440.56c-15.06,9.22-31.57,15.91-48.8,19.8-.45,.1-.26,.8,.19,.7,17.28-3.89,33.86-10.62,48.97-19.87,.4-.24,.03-.87-.36-.62h0Z"/>
      <path class="cls-36" d="M629.05,447.33c-5.09,3.13-9.77,6.9-13.91,11.2-.32,.33,.19,.85,.51,.51,4.1-4.26,8.73-7.99,13.77-11.09,.39-.24,.03-.87-.36-.62h0Z"/>
      <path class="cls-36" d="M614.1,460.01l-.53,.26s-.08,.05-.1,.09c-.03,.03-.05,.08-.06,.12-.02,.05-.02,.1,0,.14,0,.05,.02,.09,.04,.13,.05,.08,.12,.14,.22,.17h.1c.07,.01,.13,0,.18-.04l.53-.26s.08-.05,.1-.09c.03-.03,.05-.08,.06-.12,.02-.05,.02-.1,0-.14,0-.05-.02-.09-.04-.13-.05-.08-.12-.14-.22-.17h-.1c-.07-.01-.13,0-.18,.04h0Z"/>
      <path class="cls-36" d="M629.7,423.75c-6.56,1.26-12.53,4.88-16.81,9.99s-7.84,12.83-5.94,19.61c.13,.45,.82,.26,.7-.19-1.89-6.74,1.82-14.46,6.22-19.45s9.81-8.07,16.03-9.26c.46-.09,.26-.78-.19-.7h0Z"/>
      <path class="cls-36" d="M625.82,416.51c-3.98-2.49-9.07-4.32-13.82-3.72-3.68,.47-7.14,2.62-8.52,6.16-.17,.43,.53,.62,.7,.19,1.43-3.64,5.27-5.58,9.02-5.73,4.26-.17,8.69,1.49,12.27,3.72,.4,.25,.76-.38,.36-.62h0Z"/>
      <path class="cls-36" d="M623.28,423.52c-3.05-3.32-6.63-7-11.5-6.92-.46,0-.47,.73,0,.72,4.66-.07,8.08,3.53,10.99,6.71,.31,.34,.82-.17,.51-.51h0Z"/>
      <path class="cls-36" d="M608.9,417.2c-2.45,.54-4.28,2.69-4.53,5.17-.27,2.66,1.23,5.36,3.64,6.52,2.27,1.1,5.13,.64,6.71-1.42,1.47-1.92,1.14-4.85-.84-6.28-.61-.44-1.31-.74-2.01-1.02-.79-.33-1.61-.62-2.47-.65-1.32-.05-2.71,.68-3.02,2.04-.1,.45,.59,.65,.7,.19,.27-1.21,1.58-1.62,2.68-1.48s2.38,.69,3.37,1.28c1.88,1.13,2.35,3.68,1.05,5.44s-3.78,2.21-5.72,1.31c-2.07-.96-3.41-3.1-3.39-5.38,.02-2.39,1.69-4.52,4.03-5.03,.45-.1,.26-.8-.19-.7h0Z"/>
      <path class="cls-36" d="M607.29,424.4l.54,1.84c.05,.18,.26,.31,.44,.25s.31-.25,.25-.44l-.54-1.84c-.05-.18-.26-.31-.44-.25s-.31,.25-.25,.44h0Z"/>
      <path class="cls-36" d="M602.64,433.14c-5.37-3.63-13.13-2.67-17.15,2.52-1.9,2.46-2.9,5.62-2.74,8.73s1.69,6.19,3.87,8.56c2.61,2.83,6.38,5.51,10.42,4.87,.46-.07,.26-.77-.19-.7-4.37,.69-8.75-3.02-11.09-6.38-2.16-3.1-2.86-6.86-1.8-10.5s3.68-6.6,7.25-7.87,7.83-.8,11.07,1.39c.39,.26,.75-.36,.36-.62h0Z"/>
      <path class="cls-36" d="M604.25,443.42c-.41,1.7-.85,3.45-1.77,4.96-1.06,1.75-2.72,2.66-4.67,3.15-3.14,.79-7.16,.58-9.29-2.19-.28-.36-.91,0-.62,.36,2.3,2.99,6.43,3.39,9.88,2.57,1.94-.46,3.72-1.3,4.92-2.94s1.75-3.75,2.24-5.73c.11-.45-.59-.64-.7-.19h0Z"/>
      <path class="cls-36" d="M585.81,444.52c.11,1.18,.47,2.32,1.06,3.35,.23,.4,.85,.04,.62-.36-.52-.91-.86-1.93-.96-2.98-.02-.19-.15-.36-.36-.36-.18,0-.38,.17-.36,.36h0Z"/>
      <path class="cls-36" d="M602.01,437.6c-2.21-2.33-5.63-3.48-8.79-2.78-2.98,.67-5.25,3.14-5.83,6.12-.63,3.27,1.13,6.53,4.13,7.99,3.2,1.56,6.91-1.78,7.35-4.9,.24-1.68-.38-3.54-1.79-4.54s-3.42-.97-4.76,.15c-.36,.3,.16,.81,.51,.51,1.13-.95,2.87-.87,4,.05s1.58,2.59,1.28,4.02-1.27,2.68-2.46,3.5c-.66,.46-1.42,.83-2.23,.89-.86,.06-1.62-.29-2.31-.77-2.38-1.65-3.65-4.27-2.93-7.14,.63-2.47,2.48-4.47,4.95-5.12,2.98-.79,6.26,.32,8.36,2.52,.32,.34,.83-.17,.51-.51h0Z"/>
      <path class="cls-36" d="M599.99,461.77c-4.56,4.07-6.71,10.17-6.57,16.2s2.41,12.66,7.76,15.82c.4,.24,.76-.39,.36-.62-5.23-3.09-7.37-9.78-7.41-15.56s2.03-11.46,6.36-15.33c.35-.31-.16-.82-.51-.51h0Z"/>
      <path class="cls-36" d="M598.29,474.87c-1.15,6.68,.65,14.23,6.93,17.76,.41,.23,.77-.4,.36-.62-5.98-3.36-7.69-10.58-6.6-16.94,.08-.45-.62-.65-.7-.19h0Z"/>
      <path class="cls-36" d="M606.87,502.8c-4.97,21.13-12.5,41.64-22.44,60.95-2.79,5.42-5.76,10.73-8.91,15.95-.24,.4,.38,.76,.62,.36,11.21-18.57,20.16-38.49,26.57-59.22,1.82-5.89,3.43-11.85,4.85-17.85,.11-.45-.59-.64-.7-.19h0Z"/>
      <path class="cls-36" d="M589.26,544.34l-4.22,10.25c-.18,.43,.52,.62,.7,.19l4.22-10.25c.18-.43-.52-.62-.7-.19h0Z"/>
      <path class="cls-36" d="M583.06,559.55c-4.23,8.35-9.49,16.14-15.67,23.18-.31,.35,.2,.86,.51,.51,6.22-7.08,11.53-14.92,15.79-23.32,.21-.41-.41-.78-.62-.36h0Z"/>
    </g>
  </g>
</svg>