<?xml version="1.0" encoding="UTF-8"?>
<svg id="_Слой_2" data-name="Слой 2" xmlns="http://www.w3.org/2000/svg" viewBox="0 0 1515.82 766.62">
  <defs>
    <style>
      .cls-1 {
        fill: #6d6123;
      }

      .cls-2 {
        fill: #292a2d;
      }

      .cls-3 {
        fill: #4d4d4d;
      }

      .cls-4 {
        opacity: .35;
      }

      .cls-4, .cls-5, .cls-6 {
        fill: #2c2e30;
      }

      .cls-7 {
        fill: #232323;
      }

      .cls-8 {
        fill: #333;
      }

      .cls-9, .cls-10 {
        fill: #222228;
      }

      .cls-11 {
        opacity: .58;
      }

      .cls-12 {
        fill: #999;
      }

      .cls-13 {
        fill: #ccc;
      }

      .cls-10 {
        opacity: .45;
      }

      .cls-14 {
        fill: #111010;
      }

      .cls-6 {
        opacity: .54;
      }

      .cls-15 {
        opacity: .08;
      }

      .cls-15, .cls-16 {
        fill: #ffeb62;
      }

      .cls-16 {
        opacity: .28;
      }
    </style>
  </defs>
  <g id="_Слой_2-2" data-name="Слой 2">
    <path class="cls-16" d="M1443.61,206.21c-4.75-.15-10.51-.7-16.94-2.12-5.54-1.22-10.35-2.83-14.37-4.45-6.15-15.53-7.99-42.8-7.69-49.91-.22,7.24-1.06,16.03-3.23,25.84-2.07,9.35-4.85,17.35-7.58,23.86-3.7,1.41-8.01,2.78-12.86,3.85-6.43,1.42-12.19,1.97-16.94,2.12,4.27-.18,19.61,.82,29.98,4.08,2.67,6.43,5.38,14.27,7.4,23.42,2.17,9.8,3.01,18.6,3.23,25.84-.29-6.78,1.37-31.93,6.87-47.71,10.27-3.85,27.56-5.01,32.13-4.81Z"/>
    <path class="cls-16" d="M926.82,32.51c-2.73-.08-6.05-.4-9.75-1.22-3.19-.7-5.96-1.63-8.27-2.56-3.54-8.94-4.6-24.64-4.43-28.73-.13,4.17-.61,9.23-1.86,14.87-1.19,5.38-2.79,9.99-4.37,13.73-2.13,.81-4.61,1.6-7.4,2.22-3.7,.82-7.02,1.13-9.75,1.22,2.46-.1,11.29,.47,17.26,2.35,1.54,3.7,3.1,8.22,4.26,13.48,1.25,5.64,1.73,10.7,1.86,14.87-.17-3.9,.79-18.38,3.95-27.46,5.91-2.22,15.86-2.88,18.49-2.77Z"/>
    <path class="cls-15" d="M50.82,635.21c-3.03-.09-6.71-.44-10.81-1.35-3.53-.78-6.61-1.81-9.17-2.84-3.93-9.91-5.1-27.32-4.91-31.86-.14,4.62-.68,10.24-2.06,16.49-1.32,5.97-3.1,11.08-4.84,15.23-2.36,.9-5.11,1.77-8.21,2.46-4.1,.91-7.78,1.26-10.81,1.35,2.72-.12,12.52,.52,19.14,2.6,1.71,4.1,3.43,9.11,4.72,14.95,1.38,6.26,1.92,11.87,2.06,16.49-.18-4.33,.88-20.39,4.39-30.46,6.55-2.46,17.59-3.2,20.51-3.07Z"/>
    <path class="cls-6" d="M1015.22,194.6c-3.75-.12-8.29-.55-13.36-1.67-4.37-.97-8.16-2.23-11.34-3.51-4.85-12.25-6.3-33.77-6.07-39.38-.18,5.71-.84,12.65-2.55,20.39-1.63,7.38-3.83,13.69-5.98,18.82-2.92,1.11-6.32,2.19-10.15,3.04-5.07,1.12-9.62,1.55-13.36,1.67,3.37-.14,15.47,.64,23.66,3.22,2.11,5.07,4.24,11.26,5.84,18.48,1.71,7.73,2.37,14.67,2.55,20.39-.23-5.35,1.08-25.19,5.42-37.65,8.1-3.04,21.74-3.95,25.35-3.8Z"/>
    <path class="cls-6" d="M516.22,279.6c-3.75-.12-8.29-.55-13.36-1.67-4.37-.97-8.16-2.23-11.34-3.51-4.85-12.25-6.3-33.77-6.07-39.38-.18,5.71-.84,12.65-2.55,20.39-1.63,7.38-3.83,13.69-5.98,18.82-2.92,1.11-6.32,2.19-10.15,3.04-5.07,1.12-9.62,1.55-13.36,1.67,3.37-.14,15.47,.64,23.66,3.22,2.11,5.07,4.24,11.26,5.84,18.48,1.71,7.73,2.37,14.67,2.55,20.39-.23-5.35,1.08-25.19,5.42-37.65,8.1-3.04,21.74-3.95,25.35-3.8Z"/>
    <path class="cls-5" d="M1361.82,155.1c-2.89-.09-6.39-.42-10.3-1.29-3.37-.74-6.29-1.72-8.74-2.71-3.74-9.45-4.86-26.03-4.68-30.35-.14,4.4-.65,9.75-1.96,15.71-1.26,5.69-2.95,10.55-4.61,14.51-2.25,.86-4.87,1.69-7.82,2.34-3.91,.86-7.41,1.2-10.3,1.29,2.59-.11,11.93,.5,18.24,2.48,1.63,3.91,3.27,8.68,4.5,14.24,1.32,5.96,1.83,11.31,1.96,15.71-.18-4.13,.84-19.42,4.18-29.02,6.24-2.34,16.76-3.04,19.54-2.93Z"/>
    <path class="cls-5" d="M1102.82,116.68c-2.11-.07-4.68-.31-7.54-.94-2.46-.54-4.6-1.26-6.39-1.98-2.74-6.91-3.56-19.04-3.42-22.2-.1,3.22-.47,7.13-1.44,11.5-.92,4.16-2.16,7.72-3.37,10.61-1.65,.63-3.56,1.24-5.72,1.71-2.86,.63-5.42,.88-7.54,.94,1.9-.08,8.72,.36,13.34,1.81,1.19,2.86,2.39,6.35,3.29,10.42,.96,4.36,1.34,8.27,1.44,11.5-.13-3.02,.61-14.21,3.06-21.23,4.57-1.71,12.26-2.23,14.29-2.14Z"/>
    <path class="cls-5" d="M1245.82,39.68c-2.11-.07-4.68-.31-7.54-.94-2.46-.54-4.6-1.26-6.39-1.98-2.74-6.91-3.56-19.04-3.42-22.2-.1,3.22-.47,7.13-1.44,11.5-.92,4.16-2.16,7.72-3.37,10.61-1.65,.63-3.56,1.24-5.72,1.71-2.86,.63-5.42,.88-7.54,.94,1.9-.08,8.72,.36,13.34,1.81,1.19,2.86,2.39,6.35,3.29,10.42,.96,4.36,1.34,8.27,1.44,11.5-.13-3.02,.61-14.21,3.06-21.23,4.57-1.71,12.26-2.23,14.29-2.14Z"/>
    <path class="cls-4" d="M174.82,673.68c-2.11-.07-4.68-.31-7.54-.94-2.46-.54-4.6-1.26-6.39-1.98-2.74-6.91-3.56-19.04-3.42-22.2-.1,3.22-.47,7.13-1.44,11.5-.92,4.16-2.16,7.72-3.37,10.61-1.65,.63-3.56,1.24-5.72,1.71-2.86,.63-5.42,.88-7.54,.94,1.9-.08,8.72,.36,13.34,1.81,1.19,2.86,2.39,6.35,3.29,10.42,.96,4.36,1.34,8.27,1.44,11.5-.13-3.02,.61-14.21,3.06-21.23,4.57-1.71,12.26-2.23,14.29-2.14Z"/>
    <path class="cls-5" d="M360.82,568.68c-2.11-.07-4.68-.31-7.54-.94-2.46-.54-4.6-1.26-6.39-1.98-2.74-6.91-3.56-19.04-3.42-22.2-.1,3.22-.47,7.13-1.44,11.5-.92,4.16-2.16,7.72-3.37,10.61-1.65,.63-3.56,1.24-5.72,1.71-2.86,.63-5.42,.88-7.54,.94,1.9-.08,8.72,.36,13.34,1.81,1.19,2.86,2.39,6.35,3.29,10.42,.96,4.36,1.34,8.27,1.44,11.5-.13-3.02,.61-14.21,3.06-21.23,4.57-1.71,12.26-2.23,14.29-2.14Z"/>
    <path class="cls-5" d="M620.82,442.68c-2.11-.07-4.68-.31-7.54-.94-2.46-.54-4.6-1.26-6.39-1.98-2.74-6.91-3.56-19.04-3.42-22.2-.1,3.22-.47,7.13-1.44,11.5-.92,4.16-2.16,7.72-3.37,10.61-1.65,.63-3.56,1.24-5.72,1.71-2.86,.63-5.42,.88-7.54,.94,1.9-.08,8.72,.36,13.34,1.81,1.19,2.86,2.39,6.35,3.29,10.42,.96,4.36,1.34,8.27,1.44,11.5-.13-3.02,.61-14.21,3.06-21.23,4.57-1.71,12.26-2.23,14.29-2.14Z"/>
    <path class="cls-5" d="M1477.82,103.1c-2.89-.09-6.39-.42-10.3-1.29-3.37-.74-6.29-1.72-8.74-2.71-3.74-9.45-4.86-26.03-4.68-30.35-.14,4.4-.65,9.75-1.96,15.71-1.26,5.69-2.95,10.55-4.61,14.51-2.25,.86-4.87,1.69-7.82,2.34-3.91,.86-7.41,1.2-10.3,1.29,2.59-.11,11.93,.5,18.24,2.48,1.63,3.91,3.27,8.68,4.5,14.24,1.32,5.96,1.83,11.31,1.96,15.71-.18-4.13,.84-19.42,4.18-29.02,6.24-2.34,16.76-3.04,19.54-2.93Z"/>
    <path class="cls-16" d="M592.82,585.1c-2.89-.09-6.39-.42-10.3-1.29-3.37-.74-6.29-1.72-8.74-2.71-3.74-9.45-4.86-26.03-4.68-30.35-.14,4.4-.65,9.75-1.96,15.71-1.26,5.69-2.95,10.55-4.61,14.51-2.25,.86-4.87,1.69-7.82,2.34-3.91,.86-7.41,1.2-10.3,1.29,2.59-.11,11.93,.5,18.24,2.48,1.63,3.91,3.27,8.68,4.5,14.24,1.32,5.96,1.83,11.31,1.96,15.71-.18-4.13,.84-19.42,4.18-29.02,6.24-2.34,16.76-3.04,19.54-2.93Z"/>
    <path class="cls-6" d="M694.82,311.1c-2.89-.09-6.39-.42-10.3-1.29-3.37-.74-6.29-1.72-8.74-2.71-3.74-9.45-4.86-26.03-4.68-30.35-.14,4.4-.65,9.75-1.96,15.71-1.26,5.69-2.95,10.55-4.61,14.51-2.25,.86-4.87,1.69-7.82,2.34-3.91,.86-7.41,1.2-10.3,1.29,2.59-.11,11.93,.5,18.24,2.48,1.63,3.91,3.27,8.68,4.5,14.24,1.32,5.96,1.83,11.31,1.96,15.71-.18-4.13,.84-19.42,4.18-29.02,6.24-2.34,16.76-3.04,19.54-2.93Z"/>
  </g>
  <g id="_Слой_4" data-name="Слой 4">
    <g class="cls-11">
      <circle class="cls-2" cx="833.06" cy="259.09" r="109.77"/>
      <circle class="cls-10" cx="772.6" cy="232.98" r="27.44"/>
      <circle class="cls-10" cx="790.23" cy="189.47" r="6.69"/>
      <circle class="cls-10" cx="872.56" cy="203.98" r="11.83"/>
    </g>
    <path class="cls-9" d="M1515.82,341.08c-3.9-3.11-28.26-21.91-60.21-16.08-17.37,3.17-29.17,12.19-34.7,17.09-3.56-14.6-11-35.15-27.55-54.28-47.14-54.48-124.69-47.23-133.69-46.24-4.33-5.76-32.25-41.58-82.66-46.24-56.25-5.2-92.85,32.78-96.95,37.19-13.7,1.85-32.3,6.77-48.99,20.1-33.85,27.05-45.89,77.57-31.64,128.67-6.77-13.15-21.09-20.42-34.7-18.09-16.11,2.75-28.3,18.44-26.53,36.19-20.25-12.2-37.82-15.44-50.01-16.08-57.31-3.01-116.14,45.17-147.98,120.63-7.13-2.57-31.79-10.49-54.09,1.01-29.21,15.06-43.92,58.03-27.55,101.53-9.2,3.36-20.8,9.09-31.64,19.1-33.86,31.27-31.2,77.48-30.62,85.45-3.52-7-10.17-11.78-17.35-12.06-10.04-.4-19.96,8.02-21.43,20.1-.16-11.14-2.1-65.31-45.92-105.55-4.6-4.22-31.83-29.23-64.29-33.17-59.01-7.17-131.87,55.68-164.31,159.83-9.18-3.14-23.93-6.75-41.84-5.03-36.99,3.57-60.07,23.28-66.34,30.18,447-3.35,894,3.35,1341,0V341.08Z"/>
  </g>
  <g id="_Слой_3" data-name="Слой 3">
    <path class="cls-12" d="M1103.82,531.31c-11.26,5.23-29.64,15.03-47,26-22.31,14.1-54,33-87,77-11.39,15.19-27.43,37.59-38,72-6.88,22.41-8.69,45.09-9,59h378c-3.83-11.08-8.99-27.64-16-41-8.19-15.59-16.96-28.57-25-39-21.36-12.95-42.69-25.95-64-39-21.7-13.29-43.37-26.62-65-40-5.43-11.16-10.86-23.5-16-37-4.82-12.66-7.76-26.72-11-38Z"/>
    <path class="cls-12" d="M1338.82,765.31c17-11.54,40.62-32.16,60-53,36.56-39.3,56.29-79.95,67-108,.04,20.64-1.41,45-6,72-5.6,32.9-17.35,65.84-26,88-31.33,.33-63.67,.67-95,1Z"/>
    <path class="cls-3" d="M924.82,740.31c11.09-8.09,22.45-16.75,34-26,13.88-11.12,26.87-22.16,39-33,8.64-1.24,19.53-2,32-1,9.15,.74,17.22,2.27,24,4,6.14-2.98,12.49-6.3,19-10,13.21-7.51,24.85-15.36,35-23-6.08,2.12-12.76,4.17-20,6-6.7,1.7-13.06,3-19,4-8.13-2.73-17.87-5.32-29-7-16.85-2.54-31.58-2.17-43-1-9.96,3.53-24.39,10-39,22-11.05,9.08-18.79,18.53-24,26-1.78,5.15-3.5,10.83-5,17-1.93,7.93-3.19,15.32-4,22Z"/>
    <path class="cls-3" d="M969.82,634.31c5.32-1.64,10.65-3.31,16-5,13.51-4.27,26.84-8.61,40-13,7.44-.71,18.33-.89,31,2,11.13,2.54,19.91,6.59,26,10,2.62,.89,6.01,1.73,10,2,7.96,.53,14.33-1.49,18-3-3.33-1-6.67-2-10-3-5.18-4.3-11.16-8.73-18-13-15.74-9.83-30.83-15.55-43-19-5.67-.67-11.33-1.33-17-2-5.67,1.67-12.33,3.33-18,5-6.74,6.09-13.83,13.06-21,21-5.57,6.17-10,12-14,18Z"/>
    <path class="cls-3" d="M1027.82,576.31s10.47-7.31,16-11c4.48-2.99,8.84-5.64,13-8,3.73,.68,8.2,1.86,13,4,10.47,4.66,17.26,11.52,21,16,.71,2.16,1.68,4.53,3,7,3.93,7.35,9.19,12.14,13,15-3.95-.53-9.72-1.79-16-5-8.07-4.13-13.22-9.57-16-13-6.02-2.01-13.79-4.02-23-5-8.97-.95-17.8-.66-24,0Z"/>
    <path class="cls-3" d="M1073.82,547.31c1.98-.51,6.09-1.28,11,0,3.79,.99,6.49,2.8,8,4,2.55,2.25,5.26,4.91,8,8,3.73,4.22,6.68,8.32,9,12,.18-4.03,0-12.76-5-22-3.53-6.51-8.05-10.69-11-13-3.17,1.44-6.52,3.1-10,5-3.64,1.99-6.97,4.02-10,6Z"/>
    <path class="cls-13" d="M1169.82,397.31c3.24,4.49,6.79,11.16,10,18,2.74,5.83,4.65,11.27,6,16-8.37,3.77-17.07,8.07-26,13-22.6,12.47-41.51,26.07-57,39-.83,7.78-1.24,16.13-1,25,1.14,42.1,16.34,76.61,29,98,22.79,14.98,46.12,28.99,70,44,20.18,12.68,40.18,25.01,60,37,8.81,11.49,18.45,26.12,27,44,5.09,10.65,9.99,24.77,13,34h38c6.8-4.46,20.4-15,31-24,33-28,51.31-55.57,63-73,16.45-24.52,27.28-40.66,35-66,7.95-26.1,8.65-48.96,8-64-4.75-21.31-11.45-45.29-21-71-8.21-22.1-17.17-41.8-26-59-13.86-27-30.67-43.68-40-54-15.95-17.64-40.37-41.07-75-63-5.12,8.58-30.66,22.19-41,35-10.14,12.56-11.86,22.31-30,35-11.3,7.9-27.99,25.81-65,29,0,0-5.33,4.33-8,7Z"/>
    <path class="cls-12" d="M1323.82,262.31c-1.3-3.66-2.94-6.4-4-8-3.99-1.78-9.03-3.64-15-5-6.53-1.49-12.35-1.95-17-2,5.84-13.14,22.81-53.12,12-61-1.62-1.18-4.1-1.81-8-1-2.68,.68-5.73,1.64-9,3-3.07,1.28-5.74,2.67-8,4-25.73,6.22-62.32,17.82-99,40-29.95,18.11-48.14,36.12-52,40-9.16,9.2-16.14,17.66-21,24-1.28,3.96-2.51,9.03-3,15-.34,4.12-.26,7.83,0,11-20.67,18.93-34.98,35.75-42,46-7.41,10.82-12,21-12,21-1.86,4.13-3.17,7.63-4,10l6,9c2.68,2.39,7.71,6.19,15,8,3.44,.85,6.54,1.05,9,1-.33,1.33-.67,2.67-1,4l5,10c6.02,1.95,15,4.1,26,4,13.19-.12,23.63-3.42,30-6,9.53-7.58,19.21-15.57,29-24,5.83-5.02,11.49-10.02,17-15,5.68-.12,12.88,.26,21,2,6.26,1.34,11.62,3.18,16,5,1.88,1.79,3.98,4.1,6,7,3.11,4.46,4.92,8.73,6,12,7.48-4.97,16.38-11.33,25.83-19.15-7.05-9.1-14.48-17.79-23.15-25.63-1.55-1.09-3.11-2.17-4.68-3.22,1.57,1.05,3.13,2.13,4.68,3.22-1.2-1.09-2.43-2.16-3.68-3.22,1.25,1.06,2.48,2.13,3.68,3.22,9.5,6.69,18.58,14.18,27.24,22.18,14.88-12.77,30.78-29.04,44.49-49.07-7.69-6.27-15.66-12.15-24.48-16.51-1.3-.28-2.61-.56-3.93-.82,1.32,.25,2.63,.53,3.93,.82-1.29-.64-2.6-1.25-3.93-1.82,1.33,.57,2.64,1.18,3.93,1.82,10.14,2.21,19.85,5.3,29.29,8.91,5.94-10.26,18.16-34.08,19.78-58.73,.57-8.75-2-16-2-16Z"/>
    <path class="cls-1" d="M1057.82,368.31c.49,2.69,.86,5.71,1,9,.31,7.57-.74,14.05-2,19-.76,2.46-1.74,5.15-3,8-.97,2.19-1.99,4.2-3,6-1-.67-2-1.33-3-2l-6-9c1.58-4.34,3.55-9.05,6-14,3.25-6.55,6.71-12.22,10-17Z"/>
    <path class="cls-3" d="M1129.82,331.31c.84-.74,2.19-1.85,4-3,2.86-1.82,5.27-2.72,6-3,2.73-1.06,7.42-3.38,16-9,1.68-2.83,3.35-5.83,5-9,2.71-5.21,5.02-10.24,7-15,1.16,3.08,2.26,6.77,3,11,1.48,8.5,.89,15.83,0,21-2.73,1.4-6.44,2.97-11,4-5.65,1.28-10.53,1.28-14,1-2.67,.33-5.33,.67-8,1s-5.33,.67-8,1Z"/>
    <path class="cls-1" d="M1158.82,344.31c-.05-.8,7.27-1.57,14-3,7.92-1.68,19.03-5.13,32-13,8.81-8.45,12.9-16.29,15-22,1.32-3.58,2.58-8.27,6-16,1.42-3.2,5.52-12.46,7-12,.89,.27,.26,3.85,0,9-.46,9.14,.69,14.02,1,19,.4,6.36-.37,15.86-6,29-8.58,3.6-16.17,5.71-22,7-13.32,2.95-23.55,2.98-33,3-1.66,0-13.93,.04-14-1Z"/>
    <path class="cls-3" d="M1204.82,358.31c-.06-.25,5.66-1.43,10-3,7.26-2.62,16.76-8.5,26-23,2.78-6.1,5.51-13.83,7-23,.52-3.16,.83-6.17,1-9-.32-8.48-.19-15.3,0-20,.33-8.4,.79-8.99,1-9,.61-.03,1.28,4.64,2,9,2.28,13.83,3.99,17.79,5,24,1.14,7.04,1.55,17.94-3,33-5.25,4.66-10.2,7.86-14,10-8.21,4.62-15.23,6.65-20,8-7.71,2.18-14.93,3.28-15,3Z"/>
    <path class="cls-3" d="M1145.82,253.31c2.86-.26,6.24-.35,10,0,6.65,.62,12.1,2.37,16,4,3.59,1.13,8.15,2.96,13,6,3.73,2.34,6.71,4.81,9,7,1.69,.49,4.09,1,7,1,1.76,0,4.21-.19,7-1-2.33-.33-4.67-.67-7-1-2.42-2.63-5.08-5.31-8-8-7.24-6.68-14.44-11.91-21-16-1.95-.82-4.67-1.69-8-2-1.88-.17-3.57-.13-5,0-2.24,1.47-4.59,3.13-7,5-2.18,1.69-4.18,3.37-6,5Z"/>
    <path class="cls-3" d="M1164.82,239.31c2.65,.05,5.69,.32,9,1,1.42,.29,2.76,.63,4,1,3.82,1.43,7.84,3.08,12,5,6.31,2.91,11.98,5.98,17,9,1,1.33,2,2.67,3,4,1.66,.74,4.04,1.59,7,2,2.83,.39,5.25,.24,7,0-2.67-1.33-5.33-2.67-8-4-.87-1.84-2.16-4.29-4-7-5.7-8.4-12.33-12.9-14-14-6.55-4.3-12.83-6.15-17-7-2.67,1.67-5.33,3.33-8,5s-5.33,3.33-8,5Z"/>
    <path class="cls-3" d="M1186.82,226.31c2.16,.17,4.51,.48,7,1,6.62,1.38,12,3.77,16,6,1.15,1.55,2.81,3.67,5,6,2.92,3.11,4.92,5.24,8,7,1.91,1.09,5.23,2.62,10,3-1.78-.94-4.61-2.76-7-6-4.25-5.77-4.12-12.03-4-14-1.95-1.9-5.58-4.96-11-7-5.48-2.07-10.28-2.15-13-2-3.67,2-7.33,4-11,6Z"/>
    <path class="cls-3" d="M1271.82,193.31c.53,.6,1.33,1.6,2,3,.57,1.19,.9,2.23,1,3,.53,3.9,.91,8.25,1,13,.11,6.36-.33,12.08-1,17-.09,.94-.16,2.33,0,4,.15,1.54,.56,4.01,1,4,.38,0,.42-1.91,1-4,.52-1.89,1.59-4.35,4-7,2.09-3.57,4.23-7.9,6-13,3.88-11.15,4.32-21.15,4-28-3.13,.71-6.94,1.91-11,4-1.88,.97-3.54,1.99-5,3-1,.33-2,.67-3,1Z"/>
    <path class="cls-8" d="M1114.82,325.31c5.81-2.84,12.25-6.44,19-11,8-5.4,14.63-10.94,20-16-.66-1.75-1.61-3.82-3-6-2-3.15-4.22-5.44-6-7-4.39,2.17-10.94,6.12-17,13-9.2,10.43-12.02,21.66-13,27Z"/>
    <path class="cls-13" d="M1105.82,314.31c-1.02-1.77-2.31-4.48-3-8-.83-4.26-.42-7.82,0-10,2.88-6.35,6.47-10.52,9-13,9.87-9.68,22.11-11.92,28-13,3.68-.67,6.8-.91,9-1-2.23,1.74-5.75,4.51-10,8-19.17,15.76-24.07,22.28-26,25-1.8,2.53-4.43,6.56-7,12Z"/>
    <path class="cls-12" d="M783.66,485.16c-5.95,3.67-12.17,7.9-18.52,12.76-5.2,19.42-6.03,43.56,6.62,58.11,8.63-5.65,19.5-11.62,32.63-16.49-14.04-14.35-22.44-34.22-20.74-54.38Z"/>
    <path class="cls-3" d="M765.14,497.92c-3.41,2.61-6.86,5.4-10.32,8.39-3.07,2.66-5.98,5.33-8.74,8-1.52,17.34,7.94,35.74,23.15,43.42,.82-.56,1.67-1.13,2.53-1.69-12.65-14.55-11.82-38.69-6.62-58.11Z"/>
    <path class="cls-12" d="M744.82,587.31c2.04,.58,3.99,.65,5.89,.41,3.94-10.01,8.21-18.52,12.11-25.41,1.95-1.47,4.09-3.01,6.4-4.59-15.2-7.68-24.67-26.07-23.15-43.42-14.5,13.96-24.89,27.74-32.06,38.7,2.34,16.11,15.48,29.19,30.8,34.3Z"/>
    <path class="cls-12" d="M736.84,658.31c.17-12.46,1.53-28.25,5.98-46,.97-3.86,2.03-7.57,3.15-11.14-15.95,2.83-33.44-3.29-41.58-17.75-2.31,9.4-4.27,19.72-5.57,30.89-2.07,17.83-1.96,33.74-1,47,.57,3.11,1.23,6.37,2,9.77,13.7,1.34,28.26-2.98,37.02-12.77Z"/>
    <path class="cls-3" d="M699.82,671.08c2.35,10.43,5.7,22.15,10.5,34.65,13.39-5.66,24.1-19.02,28.22-32.96-.72-4.35-1.3-8.53-1.72-12.46,0-.65,0-1.33,.02-2-8.76,9.79-23.32,14.11-37.02,12.77Z"/>
    <path class="cls-12" d="M745.82,703.31c-3.43-10.91-5.73-21.17-7.28-30.54-4.12,13.95-14.83,27.3-28.22,32.96,2.68,6.98,5.81,14.2,9.5,21.58,7.05,14.14,15.73,28.11,23,38,11.33,.33,24.67-.33,36,0-9.89-14.21-24.7-35.63-33-62Z"/>
    <path class="cls-1" d="M745.97,601.17c1.49-4.74,3.08-9.24,4.74-13.45-1.89,.24-3.85,.17-5.89-.41-15.32-5.11-28.46-18.19-30.8-34.3-.06,.1-.13,.2-.2,.3-3.28,8.55-6.61,18.64-9.43,30.11,8.14,14.46,25.63,20.58,41.58,17.75Z"/>
    <path class="cls-1" d="M814.44,470.73c-1.67,.18-3.22,.38-4.62,.58-7.55,3.37-16.49,7.88-26.17,13.85-1.7,20.16,6.7,40.03,20.74,54.38,1.13-.42,2.27-.83,3.43-1.23,1.2-.41,2.38-.8,3.56-1.18-9.33-21.64-10.71-46.64,3.06-66.41Z"/>
    <path class="cls-3" d="M874.98,536.19c1.05-.85,2.03-1.79,2.84-2.88-.82,1.09-1.79,2.02-2.84,2.88-.43,1.35-.82,2.73-1.16,4.12,.34-1.4,.72-2.77,1.16-4.12-2.27,1.84-4.94,3.28-7.42,4.91,5.74,2.37,11.48,2.35,17.22,1.79,14.58-11.39,33.2-17.61,50.24-14.02-.39-.85-.79-1.7-1.2-2.56-4.44-9.11-9.49-16.42-14-22-1.17-1.04-2.47-2.16-3.87-3.32-19.26,1.99-34.86,16.16-40.97,35.19Z"/>
    <path class="cls-1" d="M882.82,616.31c-7.7-13.47-22.8-23.23-38.18-22.17-.62,.41-1.24,.81-1.82,1.17-27.48-10.15-55.74-1.53-68,18-10.19,16.24-7.64,37.33,1,51,18.37,29.07,67.61,29.95,99,16,1.83-.81,3.59-1.7,5.3-2.61,10.45-18.48,12.2-41.74,2.7-61.39Z"/>
    <path class="cls-12" d="M892.82,585.31c-10.67-5.75-24.72-6.77-36.04-.86-4.31,4.14-8.52,7.31-12.13,9.69,15.38-1.06,30.48,8.7,38.18,22.17,9.51,19.65,7.75,42.91-2.7,61.39,17.3-9.19,28.84-22.98,36.93-35.5,3.25-22.68-3.67-46.6-24.24-56.89Z"/>
    <path class="cls-1" d="M910.82,570.31c-14.89-4.38-30.54-3.39-44.27,2.97-1.67,2.28-3.56,4.65-5.73,7.03-1.35,1.48-2.7,2.85-4.04,4.14,11.33-5.91,25.37-4.88,36.04,.86,20.57,10.29,27.49,34.2,24.24,56.89,3.99-6.17,7.15-12.04,9.76-16.89,5.43-10.08,9.22-19.87,11.91-28.87-3.43-12.31-14.63-21.98-27.91-26.13Z"/>
    <path class="cls-12" d="M935.03,528.87c-17.04-3.58-35.66,2.63-50.24,14.02,1.68-.16,3.36-.37,5.04-.58-1.68,.21-3.36,.42-5.04,.58-1.01,.79-2,1.59-2.96,2.42,.96-.83,1.96-1.63,2.96-2.42-5.74,.56-11.48,.57-17.22-1.79-.59,.39-1.18,.79-1.74,1.21,.56-.42,1.15-.82,1.74-1.21-.58-.24-1.16-.5-1.74-.79,.58,.29,1.16,.55,1.74,.79,2.48-1.63,5.15-3.07,7.42-4.91,6.1-19.03,21.71-33.21,40.97-35.19-9.12-7.53-23.14-17.12-42.13-23.68-24.5-8.46-46.14-8.04-59.38-6.58-13.77,19.77-12.39,44.77-3.06,66.41,12.22-3.9,23.32-5.86,32.44-6.82,4.19,1.77,12.07,5.76,19,14,6.16,7.32,8.82,14.73,10,19-1.58,2.95-3.64,6.36-6.27,9.97,13.73-6.36,29.39-7.34,44.27-2.97,13.28,4.15,24.49,13.81,27.91,26.13,3.84-12.84,5.4-24.07,6.09-32.13-1.02-9.02-3.48-21.64-9.8-35.44Z"/>
    <path class="cls-1" d="M1100.82,497.31c8.44,2.4,17.1,4.74,26,7,13.36,3.39,26.38,6.37,39,9,4.08,1.03,9.35,2.82,15,6,7.54,4.25,12.75,9.29,16,13-1.62-4.86-4.34-11.28-9-18-6.16-8.89-13.13-14.62-18-18-8.94-4.74-18.95-9.51-30-14-8.74-3.55-17.11-6.52-25-9-4.33,3.67-8.67,7.33-13,11-.33,4.33-.67,8.67-1,13Z"/>
    <path class="cls-1" d="M1133.82,460.31c4.29,1.02,8.63,2.02,13,3,13.24,2.97,26.24,5.63,39,8,2.27,.1,6.46,.58,11,3,4.86,2.59,7.69,6.11,9,8-.16-2.57-.81-7.64-4-13-3.35-5.63-7.78-8.67-10-10-3.89-.55-11.58-2.19-19-8-4.4-3.45-7.25-7.22-9-10-5.41,2.89-11.11,6.2-17,10-4.66,3.01-9,6.03-13,9Z"/>
    <path class="cls-1" d="M1370.82,336.31c-.53,5.98-1.66,13.14-4,21-3.57,11.99-8.67,21.38-13,28-.42,1.71-.8,3.73-1,6-.24,2.66-.17,5.02,0,7,1.67-3,3.33-6,5-9,2.05-.71,4.93-1.91,8-4,6.06-4.12,9.12-9.15,12-14,2.56-4.31,5.9-11.02,8-20-2.33-3.11-5.29-6.56-9-10-2.05-1.9-4.08-3.56-6-5Z"/>
    <path class="cls-1" d="M1388.82,354.31c-1.09,4.9-2.92,11.9-6,20-2.23,5.85-8.4,20.92-27,45-9.22,11.94-22.62,27.53-41,44,7.42-4.06,15.13-8.7,23-14,22.68-15.29,40.42-31.93,54-47,2.68-5.14,5.35-10.47,8-16,2.11-4.4,4.1-8.74,6-13-2.54-3.48-5.52-7.2-9-11-2.73-2.98-5.42-5.64-8-8Z"/>
    <path class="cls-1" d="M1429.82,409.31c-.78,3.1-2.04,7.65-4,13-4.42,12.08-9.6,20.7-19,35-6.74,10.25-14.74,22.05-24,35-1,2.67-2,5.33-3,8l9-9c6.8-3.1,14.82-7.55,23-14,17.44-13.75,27.02-29.77,32-40-2.34-4.07-4.68-8.41-7-13-2.61-5.18-4.93-10.19-7-15Z"/>
    <path class="cls-1" d="M1450.82,457.31c-1.62,2.86-3.59,5.9-6,9-6.68,8.6-14.11,14.31-20,18l-24,12c9.04,.53,16.56-.18,22-1,7.72-1.17,16.41-2.57,26-8,4.91-2.78,8.58-5.78,11-8-3-7.33-6-14.67-9-22Z"/>
    <circle class="cls-9" cx="125.82" cy="539.31" r="31"/>
    <circle class="cls-9" cx="1453.82" cy="257.31" r="31"/>
    <circle class="cls-9" cx="1187.82" cy="115.31" r="22"/>
    <path class="cls-7" d="M1206.52,372.77c2.09,1.37,4.18,2.73,6.27,4.1,.41,.27,.78-.38,.38-.65-2.09-1.37-4.18-2.73-6.27-4.1-.41-.27-.78,.38-.38,.65h0Z"/>
    <path class="cls-7" d="M1218.24,381.91c7.54,6.79,13.86,14.83,18.68,23.75,.23,.42,.88,.05,.65-.38-4.85-8.98-11.21-17.08-18.79-23.91-.36-.32-.89,.21-.53,.53h0Z"/>
    <path class="cls-7" d="M1225.83,382.07c1.29,1.44,2.67,2.8,4.13,4.06,.15,.13,.38,.15,.53,0,.14-.14,.15-.4,0-.53-1.47-1.26-2.85-2.62-4.13-4.06-.32-.36-.85,.17-.53,.53h0Z"/>
    <path class="cls-7" d="M1233.3,389.65c3.54,3.85,6.56,8.14,9,12.77,.23,.43,.87,.05,.65-.38-2.47-4.68-5.54-9.02-9.12-12.92-.33-.36-.86,.18-.53,.53h0Z"/>
    <path class="cls-7" d="M1232.14,357.87c12.74,5.14,24.06,13.45,32.8,24.04,.31,.37,.84-.16,.53-.53-8.83-10.7-20.27-19.05-33.13-24.24-.45-.18-.64,.54-.2,.72h0Z"/>
    <path class="cls-7" d="M1257.01,364.39c1.55,1.4,3.11,2.8,4.66,4.2,.36,.32,.89-.21,.53-.53-1.55-1.4-3.11-2.8-4.66-4.2-.36-.32-.89,.21-.53,.53h0Z"/>
    <path class="cls-7" d="M1266.27,373.6c.41,.69,.98,1.27,1.66,1.7,.17,.11,.42,.04,.51-.13,.1-.19,.04-.4-.13-.51-.08-.05-.15-.1-.23-.15-.04-.03-.07-.05-.1-.08-.04-.03,.06,.05,0,0-.02-.02-.04-.03-.06-.05-.14-.11-.27-.23-.39-.36-.06-.06-.12-.13-.18-.19-.03-.04-.06-.07-.09-.11-.02-.02-.11-.12-.04-.05-.12-.13-.21-.3-.31-.45-.1-.17-.34-.25-.51-.13s-.24,.33-.13,.51h0Z"/>
    <path class="cls-7" d="M1261.06,343.88c8.28,5.18,15.85,11.39,22.55,18.49,.33,.35,.86-.18,.53-.53-6.74-7.15-14.37-13.4-22.7-18.61-.41-.26-.79,.39-.38,.65h0Z"/>
    <path class="cls-7" d="M1267.8,330.18c2.37,.85,4.75,1.71,7.12,2.56,.45,.16,.65-.56,.2-.72-2.37-.85-4.75-1.71-7.12-2.56-.45-.16-.65,.56-.2,.72h0Z"/>
    <path class="cls-7" d="M1283.43,338.18c2.05,1.72,4.09,3.44,6.14,5.17,.37,.31,.9-.22,.53-.53-2.05-1.72-4.09-3.44-6.14-5.17-.37-.31-.9,.22-.53,.53h0Z"/>
    <path class="cls-7" d="M1277.77,307.57c2.66,.45,5.31,.9,7.97,1.34,.47,.08,.68-.64,.2-.72-2.66-.45-5.31-.9-7.97-1.34-.47-.08-.68,.64-.2,.72h0Z"/>
    <path class="cls-7" d="M1300.69,313.56c2.3,1,4.6,2.01,6.9,3.01,.44,.19,.82-.45,.38-.65-2.3-1-4.6-2.01-6.9-3.01-.44-.19-.82,.45-.38,.65h0Z"/>
    <path class="cls-7" d="M1282.96,294.71c12.49-.24,24.96,1.08,37.12,3.95,.47,.11,.67-.61,.2-.72-12.22-2.88-24.76-4.22-37.31-3.98-.48,0-.48,.76,0,.75h0Z"/>
    <path class="cls-7" d="M1275.87,272.59c4.57-.3,9.16-.27,13.72,.09,.48,.04,.48-.71,0-.75-4.57-.37-9.15-.4-13.72-.09-.48,.03-.48,.78,0,.75h0Z"/>
    <path class="cls-7" d="M1297.79,273.14c7.66,.88,15.25,2.22,22.74,4,.47,.11,.67-.61,.2-.72-7.56-1.8-15.22-3.15-22.94-4.03-.48-.05-.47,.7,0,.75h0Z"/>
    <path class="cls-7" d="M1282.96,263.8c13.6-.84,27.27,.55,40.42,4.12,.47,.13,.67-.6,.2-.72-13.22-3.59-26.96-4.99-40.62-4.15-.48,.03-.48,.78,0,.75h0Z"/>
    <path class="cls-7" d="M1333.36,602.91c5.47,16.1,8.27,33.01,8.29,50.01,0,.48,.75,.48,.75,0-.02-17.06-2.83-34.06-8.32-50.21-.15-.45-.88-.26-.72,.2h0Z"/>
    <path class="cls-7" d="M1343.18,683.77c-1.03,18.79-3.72,37.49-8.07,55.8-1.22,5.13-2.57,10.23-4.04,15.29-.13,.46,.59,.66,.72,.2,5.25-18.06,8.89-36.58,10.86-55.29,.56-5.32,.98-10.66,1.27-16,.03-.48-.72-.48-.75,0h0Z"/>
    <path class="cls-7" d="M1367.1,667.63c-6.6,13.34-13.84,26.35-21.7,38.98-.26,.41,.39,.79,.65,.38,7.86-12.63,15.1-25.65,21.7-38.98,.21-.43-.43-.81-.65-.38h0Z"/>
    <path class="cls-7" d="M1107.54,692.69c.93,6.24,2.6,12.34,4.98,18.17,.18,.44,.91,.25,.72-.2-2.38-5.84-4.06-11.94-4.98-18.17-.07-.48-.79-.27-.72,.2h0Z"/>
    <path class="cls-7" d="M1117.75,725.16c7.03,14.45,15.31,28.28,24.74,41.3,.28,.39,.93,.01,.65-.38-9.42-13.02-17.7-26.84-24.74-41.3-.21-.43-.86-.05-.65,.38h0Z"/>
    <path class="cls-7" d="M1071.97,418.31c9.1-6.89,18.5-13.36,28.19-19.4,.41-.25,.03-.9-.38-.65-9.69,6.04-19.09,12.51-28.19,19.4-.38,.29,0,.94,.38,.65h0Z"/>
    <circle class="cls-14" cx="987.82" cy="85.31" r="22"/>
    <circle class="cls-14" cx="1361.82" cy="84.31" r="16"/>
    <circle class="cls-14" cx="707.32" cy="413.81" r="15.5"/>
    <circle class="cls-14" cx="478.82" cy="512.31" r="30"/>
  </g>
</svg>