<?xml version="1.0" encoding="UTF-8"?>
<svg id="_Слой_2" data-name="Слой 2" xmlns="http://www.w3.org/2000/svg" xmlns:xlink="http://www.w3.org/1999/xlink" viewBox="0 0 670 915">
  <defs>
    <style>
      .cls-1 {
        fill: #353544;
      }

      .cls-2 {
        fill: #3a3c3d;
        opacity: .42;
      }

      .cls-3 {
        fill: #ffeb62;
        opacity: .47;
      }

      .cls-4 {
        fill: #877836;
        font-family: KozGoPr6N-Regular-90ms-RKSJ-H, 'Kozuka Gothic Pr6N';
        font-size: 38.3px;
      }

      .cls-5 {
        fill: #a39040;
      }

      .cls-6, .cls-7 {
        opacity: .44;
      }

      .cls-6, .cls-8 {
        fill: #111010;
      }

      .cls-9, .cls-10 {
        fill: #1b1d1f;
      }

      .cls-11 {
        fill: #333;
      }

      .cls-12 {
        fill: #31313f;
      }

      .cls-13 {
        fill: #222228;
      }

      .cls-7, .cls-14, .cls-15 {
        fill: #666;
      }

      .cls-16 {
        fill: #2a2a35;
      }

      .cls-17 {
        clip-path: url(#clippath);
      }

      .cls-18 {
        fill: none;
      }

      .cls-19 {
        fill: #ccc;
      }

      .cls-14 {
        opacity: .31;
      }

      .cls-20 {
        fill: #938337;
      }

      .cls-10 {
        opacity: .54;
      }

      .cls-21 {
        fill: #919191;
      }

      .cls-22 {
        fill: #1e1e1e;
      }

      .cls-23 {
        fill: #3f3d56;
        isolation: isolate;
        opacity: .3;
      }
    </style>
    <clipPath id="clippath">
      <rect class="cls-18" width="670" height="915"/>
    </clipPath>
  </defs>
  <g id="_Слой_2-2" data-name="Слой 2">
    <g class="cls-17">
      <rect class="cls-9" width="670" height="915"/>
      <path class="cls-13" d="M36.86,444.16c.79,.42,5.15,2.65,10.11,.92,4.56-1.59,7.84-5.89,8.43-11.03-1.04-4.96-2.12-12.29-1.69-21.14,.42-8.55,.8-16.44,5.06-22.98,8.33-12.81,26.07-12.09,28.65-11.95,1.67-1.27,7.33-5.25,15.17-4.6,10.15,.85,15.93,8.8,16.86,10.11-.79-3.2-2.34-11.28,.84-20.22,5.51-15.51,20.33-19.79,21.91-20.22,2.72-4.69,7.47-11.41,15.17-16.54,18.11-12.07,45.93-10.93,58.15,5.51,3.85,5.18,5.3,10.73,5.9,13.79,1.89,1.13,7.63,4.89,10.96,12.87,.89,2.14,3.41,8.91,1.69,17.46,1.9,.02,12.87,.35,21.07,10.11,9.93,11.82,7.03,27.08,6.74,28.49-.19,.66-3.39,12.83,4.21,22.06,5.82,7.06,13.79,7.33,15.17,7.35,3.3-2.57,9.66-6.79,18.54-8.27,12.63-2.11,22.48,2.6,26.13,4.6,.63-.51,7.11-5.56,15.17-2.76,8.14,2.82,10.72,11.15,10.96,11.95,6.91-.13,14.54,.1,22.75,.92,10,.99,19.04,2.67,26.97,4.6,1.15,2.07,2.38,5.13,1.69,8.27-1.96,8.86-17.53,10.71-20.23,11.03-3.77,.45-9.68,.56-16.86-1.84-2.75,3.83-5.64,6.83-8.43,9.19-23.03,19.52-55.36,9.67-62.36,7.35-1.98,10.64-6.17,16.27-9.27,19.3-15.21,14.87-47.85,9.94-79.22-15.62-.74,1.14-8.78,12.97-22.75,12.87-10.19-.08-19.61-6.47-24.44-16.54-4.87,2.02-10.52,3.73-16.86,4.6-28.21,3.83-50.67-11.84-58.99-18.38-1.93-.89-4.37,9.54-28.33,5.38-2.68-.47-16.42,9.28-25.24,6.04-10.37-3.81-17.08-12.02-17.29-19.43-.26-9.18,9.35-19.77,23.68-23.23Z"/>
      <ellipse class="cls-2" cx="129.42" cy="793.74" rx="112.18" ry="110.01"/>
      <ellipse class="cls-6" cx="143.53" cy="839.23" rx="13.64" ry="13.38"/>
      <ellipse class="cls-6" cx="129.8" cy="719.47" rx="8.92" ry="8.74"/>
      <ellipse class="cls-6" cx="161.26" cy="810.64" rx="12.74" ry="12.5" transform="translate(-525.98 351.46) rotate(-45)"/>
      <ellipse class="cls-6" cx="83.38" cy="768.19" rx="31.72" ry="31.11"/>
      <circle class="cls-6" cx="636.24" cy="299.93" r="6.02"/>
      <path class="cls-3" d="M580.71,684.55c-2.48-.08-5.5-.36-8.86-1.11-2.9-.64-5.41-1.48-7.52-2.33-3.22-8.13-4.18-22.4-4.02-26.12-.12,3.79-.56,8.39-1.69,13.52-1.08,4.9-2.54,9.08-3.97,12.49-1.94,.74-4.19,1.45-6.73,2.02-3.36,.74-6.38,1.03-8.86,1.11,2.23-.09,10.26,.43,15.69,2.13,1.4,3.36,2.81,7.47,3.87,12.26,1.13,5.13,1.57,9.73,1.69,13.52-.15-3.55,.72-16.71,3.6-24.97,5.37-2.01,14.42-2.62,16.81-2.52Z"/>
      <path class="cls-3" d="M347.27,351.62c-1.76-.05-3.9-.26-6.28-.79-2.05-.45-3.84-1.05-5.33-1.65-2.28-5.76-2.96-15.88-2.85-18.51-.08,2.69-.39,5.95-1.2,9.58-.77,3.47-1.8,6.43-2.81,8.85-1.37,.52-2.97,1.03-4.77,1.43-2.38,.53-4.52,.73-6.28,.79,1.58-.07,7.27,.3,11.12,1.51,.99,2.38,1.99,5.29,2.74,8.69,.8,3.64,1.11,6.9,1.2,9.58-.11-2.52,.51-11.84,2.55-17.7,3.81-1.43,10.22-1.86,11.92-1.78Z"/>
      <path class="cls-3" d="M617,266.64c-4.37-.14-9.67-.64-15.59-1.95-5.09-1.13-9.52-2.6-13.22-4.09-5.66-14.29-7.35-39.38-7.08-45.92-.21,6.66-.98,14.75-2.97,23.77-1.9,8.61-4.46,15.96-6.98,21.95-3.41,1.3-7.37,2.56-11.84,3.55-5.91,1.31-11.22,1.81-15.59,1.95,3.92-.17,18.04,.75,27.59,3.75,2.46,5.92,4.95,13.14,6.81,21.55,2,9.02,2.77,17.11,2.97,23.77-.26-6.24,1.27-29.38,6.32-43.91,9.45-3.54,25.36-4.61,29.56-4.43Z"/>
      <path class="cls-14" d="M104.69,555.1c-1.98-.06-4.38-.29-7.05-.88-2.31-.51-4.31-1.18-5.99-1.85-2.56-6.47-3.33-17.83-3.2-20.79-.09,3.02-.44,6.68-1.35,10.76-.86,3.9-2.02,7.23-3.16,9.94-1.54,.59-3.33,1.16-5.36,1.61-2.68,.59-5.08,.82-7.05,.88,1.78-.08,8.17,.34,12.49,1.7,1.11,2.68,2.24,5.95,3.08,9.75,.9,4.08,1.25,7.75,1.35,10.76-.12-2.82,.57-13.3,2.86-19.87,4.28-1.6,11.48-2.09,13.38-2Z"/>
      <path class="cls-14" d="M225.45,674.79c-1.98-.06-4.38-.29-7.05-.88-2.31-.51-4.31-1.18-5.99-1.85-2.56-6.47-3.33-17.83-3.2-20.79-.09,3.02-.44,6.68-1.35,10.76-.86,3.9-2.02,7.23-3.16,9.94-1.54,.59-3.33,1.16-5.36,1.61-2.68,.59-5.08,.82-7.05,.88,1.78-.08,8.17,.34,12.49,1.7,1.11,2.68,2.24,5.95,3.08,9.75,.9,4.08,1.25,7.75,1.35,10.76-.12-2.82,.57-13.3,2.86-19.87,4.28-1.6,11.48-2.09,13.38-2Z"/>
      <path class="cls-14" d="M343.44,271.46c-1.98-.06-4.38-.29-7.05-.88-2.31-.51-4.31-1.18-5.99-1.85-2.56-6.47-3.33-17.83-3.2-20.79-.09,3.02-.44,6.68-1.35,10.76-.86,3.9-2.02,7.23-3.16,9.94-1.54,.59-3.33,1.16-5.36,1.61-2.68,.59-5.08,.82-7.05,.88,1.78-.08,8.17,.34,12.49,1.7,1.11,2.68,2.24,5.95,3.08,9.75,.9,4.08,1.25,7.75,1.35,10.76-.12-2.82,.57-13.3,2.86-19.87,4.28-1.6,11.48-2.09,13.38-2Z"/>
      <path class="cls-14" d="M441.96,373.74c-1.42-.04-3.14-.21-5.06-.63-1.65-.37-3.09-.85-4.29-1.33-1.84-4.64-2.39-12.78-2.3-14.91-.07,2.16-.32,4.79-.96,7.72-.62,2.79-1.45,5.18-2.27,7.13-1.11,.42-2.39,.83-3.84,1.15-1.92,.42-3.64,.59-5.06,.63,1.27-.05,5.86,.24,8.96,1.22,.8,1.92,1.61,4.26,2.21,7,.65,2.93,.9,5.55,.96,7.72-.09-2.03,.41-9.54,2.05-14.25,3.07-1.15,8.23-1.5,9.6-1.44Z"/>
      <path class="cls-14" d="M597.96,467.74c-1.42-.04-3.14-.21-5.06-.63-1.65-.37-3.09-.85-4.29-1.33-1.84-4.64-2.39-12.78-2.3-14.91-.07,2.16-.32,4.79-.96,7.72-.62,2.79-1.45,5.18-2.27,7.13-1.11,.42-2.39,.83-3.84,1.15-1.92,.42-3.64,.59-5.06,.63,1.27-.05,5.86,.24,8.96,1.22,.8,1.92,1.61,4.26,2.21,7,.65,2.93,.9,5.55,.96,7.72-.09-2.03,.41-9.54,2.05-14.25,3.07-1.15,8.23-1.5,9.6-1.44Z"/>
      <path class="cls-14" d="M644.85,632.11c-1.42-.04-3.14-.21-5.06-.63-1.65-.37-3.09-.85-4.29-1.33-1.84-4.64-2.39-12.78-2.3-14.91-.07,2.16-.32,4.79-.96,7.72-.62,2.79-1.45,5.18-2.27,7.13-1.11,.42-2.39,.83-3.84,1.15-1.92,.42-3.64,.59-5.06,.63,1.27-.05,5.86,.24,8.96,1.22,.8,1.92,1.61,4.26,2.21,7,.65,2.93,.9,5.55,.96,7.72-.09-2.03,.41-9.54,2.05-14.25,3.07-1.15,8.23-1.5,9.6-1.44Z"/>
      <path class="cls-14" d="M44.77,658.57c-1.42-.04-3.14-.21-5.06-.63-1.65-.37-3.09-.85-4.29-1.33-1.84-4.64-2.39-12.78-2.3-14.91-.07,2.16-.32,4.79-.96,7.72-.62,2.79-1.45,5.18-2.27,7.13-1.11,.42-2.39,.83-3.84,1.15-1.92,.42-3.64,.59-5.06,.63,1.27-.05,5.86,.24,8.96,1.22,.8,1.92,1.61,4.26,2.21,7,.65,2.93,.9,5.55,.96,7.72-.09-2.03,.41-9.54,2.05-14.25,3.07-1.15,8.23-1.5,9.6-1.44Z"/>
      <path class="cls-14" d="M542,311.03c-2.98-.09-6.59-.44-10.62-1.33-3.47-.77-6.49-1.78-9.01-2.79-3.86-9.74-5.01-26.85-4.82-31.3-.14,4.54-.67,10.06-2.03,16.21-1.3,5.87-3.04,10.88-4.76,14.96-2.32,.89-5.02,1.74-8.07,2.42-4.03,.89-7.65,1.24-10.62,1.33,2.68-.11,12.3,.51,18.81,2.56,1.68,4.03,3.37,8.95,4.64,14.69,1.36,6.15,1.88,11.66,2.03,16.21-.18-4.25,.86-20.03,4.31-29.93,6.44-2.41,17.28-3.14,20.15-3.02Z"/>
      <path class="cls-7" d="M476.43,255.04c-1.73-.05-3.84-.25-6.18-.77-2.02-.45-3.78-1.03-5.25-1.62-2.24-5.67-2.92-15.62-2.81-18.22-.08,2.64-.39,5.85-1.18,9.43-.76,3.41-1.77,6.33-2.77,8.71-1.35,.52-2.92,1.01-4.7,1.41-2.35,.52-4.45,.72-6.18,.77,1.56-.07,7.16,.3,10.95,1.49,.98,2.35,1.96,5.21,2.7,8.55,.79,3.58,1.1,6.79,1.18,9.43-.11-2.48,.5-11.66,2.51-17.42,3.75-1.4,10.06-1.83,11.73-1.76Z"/>
      <circle class="cls-8" cx="268.18" cy="315.62" r="17.91"/>
      <circle class="cls-8" cx="536.18" cy="216.62" r="17.91"/>
      <circle class="cls-8" cx="51.66" cy="635.87" r="17.91"/>
      <circle class="cls-8" cx="562.13" cy="394.06" r="49.06"/>
      <g>
        <path class="cls-11" d="M353.53,410.39c-10.22,1.85-15.46,10.3-17.29,13.98-6.49-7.27-16.31-9.95-25.04-6.84-12.28,4.37-15.37,17.69-15.53,18.43,.26,.68,.52,1.36,.78,2.04-7.46-5.3-17.07-5.89-24.82-1.42-10.88,6.28-12.13,19.05-12.25,20.82-8.44-4.57-18.58-3.61-25.83,2.45-8.42,7.04-8.94,17.6-8.82,21.44-8.7-2.63-18.07-.01-24.13,6.84-8.85,10-5.59,23.27-5.39,24,.48,.42,.96,.84,1.44,1.27-8.67-1.08-17.25,2.78-22.27,10.16-6.14,9.02-4.1,19.1-2.97,22.95-8.19,.83-15.48,5.94-19.13,13.65-5.29,11.15-.21,21.89,1.02,24.2-7.73,2.19-14.02,8.24-16.54,16.22-4.1,12.98,4.1,23.61,4.57,24.19,39.76,11.38,79.53,22.77,119.29,34.15,0,0,0-.02,0-.03,.18,.06,.35,.12,.54,.16,2.13,.51,4.26-.16,5.84-1.6,17.14,6.34,34.29,12.68,51.43,19.01-15.96-8.22-32.97-16.69-48.97-24.92-.05-2.89-1.66-5.49-4.12-6.58,.01-.03,.02-.07,.04-.1-27.56-15.6-55.12-31.2-82.68-46.8,28.11,12.81,56.21,25.61,84.32,38.42,0,0,0-.02,.01-.03,.17,.09,.33,.17,.51,.24,2.04,.83,4.24,.49,5.99-.71,16.12,8.85,32.23,17.69,48.35,26.54-14.69-10.53-30.39-21.47-45.12-32.01,.34-2.87-.9-5.68-3.2-7.13,.02-.03,.03-.06,.05-.1-21.88-17.01-43.76-34.02-65.64-51.03,22.76,15.27,45.52,30.53,68.27,45.8,0,0,.01-.02,.02-.02,.15,.11,.3,.22,.47,.32,1.89,1.16,4.12,1.19,6.02,.3,14.59,11.42,29.18,22.84,43.77,34.27-12.93-12.85-26.8-26.27-39.76-39.13,.76-2.78-.04-5.76-2.09-7.57,.02-.03,.04-.06,.06-.09-26.33-28.24-52.65-56.49-78.98-84.73,28.14,24.74,56.28,49.47,84.42,74.21,0,0,.01-.01,.02-.02,.14,.13,.28,.26,.43,.38,1.74,1.4,3.94,1.73,5.94,1.11,13.09,13.3,26.17,26.6,39.26,39.9-11.27-14.49-23.39-29.67-34.69-44.18,1.09-2.65,.66-5.72-1.15-7.79,.02-.03,.05-.05,.07-.08-21.04-29.28-42.08-58.55-63.12-87.83,23.33,27.71,46.65,55.43,69.98,83.14,0,0,.02-.01,.02-.02,.12,.15,.24,.3,.37,.45,1.52,1.66,3.65,2.33,5.71,2.04,11.06,15.21,22.11,30.43,33.17,45.64-9.09-16.1-18.93-33.02-28.04-49.15,1.46-2.45,1.46-5.55-.04-7.89,.03-.02,.06-.04,.08-.07-19.29-37.36-38.59-74.73-57.88-112.09,21.47,36.38,42.94,72.77,64.42,109.15,0,0,.02,0,.03-.01,.09,.17,.18,.34,.29,.5,1.23,1.91,3.22,2.95,5.31,3.02,8.47,16.96,16.94,33.92,25.41,50.89-6.39-17.49-13.39-35.92-19.8-53.44,1.83-2.15,2.33-5.21,1.22-7.78l.09-.05c-11.81-36.44-23.63-72.87-35.44-109.31,13.31,34.96,26.62,69.92,39.93,104.88,0,0,.02,0,.03,0,.06,.18,.12,.37,.2,.55,.9,2.1,2.69,3.5,4.73,3.95,5.54,18.26,11.09,36.52,16.63,54.78-3.41-18.4-7.26-37.83-10.68-56.26,2.15-1.79,3.15-4.7,2.48-7.44,.03-.01,.07-.02,.1-.03-5.49-37.13-10.98-74.27-16.47-111.4,8.15,37.35,16.31,74.69,24.46,112.04,0,0,.02,0,.03,0,.03,.19,.07,.38,.12,.58,.58,2.23,2.14,3.89,4.09,4.68,2.8,18.95,5.59,37.89,8.39,56.84-.67-18.73-1.62-38.56-2.29-57.33,2.39-1.41,3.8-4.13,3.55-6.94,.03,0,.07-.01,.1-.02,.03-43.22,.07-86.44,.1-129.66-5.33-8.3-14.67-12.59-23.79-10.94Z"/>
        <path class="cls-11" d="M627.26,586.15c-2.95-7.82-9.55-13.48-17.38-15.2,1.11-2.38,5.6-13.41-.28-24.22-4.07-7.48-11.62-12.14-19.84-12.48,.92-3.91,2.41-14.09-4.2-22.73-5.41-7.07-14.18-10.4-22.78-8.81,.46-.45,.91-.9,1.37-1.35,.15-.74,2.7-14.18-6.68-23.64-6.42-6.48-15.91-8.52-24.46-5.37-.09-3.83-1.16-14.36-9.96-20.89-7.56-5.61-17.74-5.96-25.92-.89-.21-1.76-2.15-14.44-13.35-20.05-7.98-4-17.53-2.83-24.7,2.91,.22-.69,.44-1.39,.66-2.08-.2-.73-4-13.84-16.5-17.47-8.89-2.58-18.55,.69-24.63,8.33-2.02-3.56-7.72-11.68-18.02-12.91-9.19-1.1-18.29,3.74-23.16,12.35,2.37,43.15,4.73,86.3,7.1,129.44,.03,0,.07,0,.1,0-.1,2.82,1.45,5.45,3.92,6.72,.34,18.78,.46,38.63,.8,57.37,1.77-19.08,3.54-38.17,5.31-57.25,1.9-.9,3.37-2.66,3.83-4.92,.04-.19,.06-.39,.09-.58,0,0,.02,0,.03,0,6.13-37.78,12.25-75.55,18.38-113.33-3.48,37.4-6.95,74.81-10.43,112.21,.03,0,.07,.02,.1,.03-.52,2.77,.63,5.62,2.88,7.28-2.42,18.61-5.22,38.24-7.63,56.81,4.55-18.56,9.1-37.13,13.65-55.69,2.01-.58,3.72-2.08,4.51-4.23,.07-.19,.12-.37,.17-.56,0,0,.02,0,.03,0,11.4-35.7,22.81-71.4,34.21-107.11-9.83,37.09-19.66,74.17-29.49,111.26,.03,.01,.06,.03,.09,.04-.97,2.63-.3,5.65,1.64,7.69-5.46,17.88-11.45,36.7-16.88,54.54,7.54-17.44,15.08-34.89,22.62-52.33,2.08-.2,4.01-1.36,5.13-3.34,.1-.17,.18-.35,.26-.52,0,0,.02,0,.03,.01,19.47-37.61,38.95-75.23,58.42-112.84-17.25,38.46-34.49,76.93-51.74,115.39,.03,.02,.06,.04,.09,.06-1.37,2.42-1.2,5.52,.39,7.88-8.23,16.65-17.14,34.14-25.35,50.76,10.22-15.85,20.43-31.71,30.65-47.56,2.08,.17,4.17-.63,5.59-2.38,.12-.15,.23-.31,.34-.47l.02,.02c21.79-29.07,43.59-58.14,65.38-87.22-19.43,30.49-38.85,60.98-58.28,91.48,.03,.02,.05,.05,.08,.07-1.7,2.18-1.97,5.27-.73,7.85-10.5,15.17-21.78,31.05-32.25,46.19,12.35-14.06,24.69-28.13,37.04-42.19,2.03,.5,4.21,.04,5.87-1.47,.14-.13,.27-.27,.4-.41,0,0,.01,.01,.02,.02,26.76-26.39,53.52-52.77,80.28-79.16-24.76,29.78-49.52,59.56-74.28,89.34,.02,.03,.04,.06,.07,.08-1.95,1.93-2.59,4.96-1.68,7.68-12.25,13.62-25.37,27.85-37.58,41.46,13.95-12.28,27.9-24.56,41.85-36.84,1.95,.77,4.17,.61,6-.66,.16-.11,.3-.23,.45-.35,0,0,.01,.02,.02,.02,21.9-16.61,43.8-33.22,65.69-49.83-20.93,18.3-41.85,36.6-62.78,54.89,.02,.03,.04,.06,.05,.09-2.21,1.58-3.3,4.46-2.81,7.31-14.13,11.41-29.22,23.28-43.31,34.67,15.61-9.8,31.23-19.6,46.84-29.4,1.81,1.08,4.03,1.29,6.02,.34,.17-.08,.33-.18,.5-.27,0,0,.01,.02,.02,.03,27.37-14.47,54.74-28.95,82.11-43.42-26.67,17.23-53.35,34.46-80.02,51.69l.04,.1c-2.4,1.23-3.87,3.92-3.76,6.81-15.53,9.18-32.05,18.66-47.54,27.82,16.77-7.36,33.55-14.72,50.32-22.07,1.65,1.35,3.81,1.88,5.91,1.24,.18-.06,.36-.12,.53-.19,0,0,0,.02,.01,.03,39.08-13.76,78.17-27.51,117.25-41.27,.43-.61,8.05-11.71,3.25-24.43Z"/>
      </g>
      <circle class="cls-10" cx="379.4" cy="499.46" r="65.05"/>
      <path class="cls-8" d="M216.8,793.47c-4.02-11.04,4.18-22.44,14.25-26.46,5.76-2.3,12.08-2.79,18.21-2.32,6.46,.49,12.92,1.94,18.98,4.24,11.4,4.34,20.66,12.36,27.62,22.28,3.25,4.63,6.02,9.6,8.4,14.74,2.67,5.75,5.03,11.76,6.44,17.95,1.6,7.02,1.78,14.56-1.27,21.22-2.53,5.52-7.06,10.18-13.05,11.74-.47,.12-.27,.85,.2,.72,5.2-1.36,9.4-4.99,12.14-9.54,3.16-5.23,4.21-11.33,3.77-17.37-.51-7.04-2.82-13.84-5.5-20.32-2.32-5.63-5.05-11.11-8.31-16.25-6.6-10.41-15.51-19.36-26.85-24.48-6.14-2.77-12.75-4.51-19.43-5.36-6.32-.8-12.89-.72-19.03,1.14s-11.57,5.6-15,11.12c-3.17,5.1-4.41,11.41-2.32,17.15,.16,.45,.89,.26,.72-.2h0Z"/>
      <path class="cls-20" d="M432.61,675.56l-.06,.02c-.66,.2-1.32,.39-1.98,.58-1.07,.3-2.19-.32-2.5-1.39-.3-1.07,.26-2.17,1.39-2.5,.64-.18,1.29-.37,1.93-.57,1.07-.32,2.19,.29,2.52,1.36,.31,1.05-.27,2.16-1.3,2.5Zm19.15-6.91c-.99,.33-2.08-.15-2.5-1.13-.43-1.03,.05-2.21,1.08-2.65,.62-.26,1.24-.53,1.85-.8,1.01-.44,2.21,.02,2.66,1.05,.45,1.02-.02,2.21-1.05,2.66-.63,.27-1.26,.55-1.89,.81-.05,.02-.1,.04-.15,.06Zm-40.95,12.01c-.1,.03-.2,.06-.3,.07-.68,.12-1.36,.23-2.04,.34-1.1,.17-2.14-.58-2.31-1.69-.17-1.1,.57-2.14,1.69-2.31,.66-.1,1.32-.21,1.98-.32,1.1-.19,2.15,.55,2.33,1.65,.17,1-.42,1.95-1.35,2.26Zm60.99-22.01c-.89,.3-1.89-.06-2.38-.9-.56-.96-.23-2.2,.74-2.76l1.74-1.02c.95-.57,2.2-.25,2.77,.71,.57,.96,.25,2.2-.71,2.77l-1.77,1.04c-.12,.07-.25,.13-.38,.17Zm-83.25,24.4c-.17,.06-.36,.09-.55,.1l-2.05,.08c-1.11,.04-2.05-.83-2.09-1.95-.04-1.11,.82-2.06,1.95-2.09l2.02-.08c1.11-.05,2.06,.81,2.11,1.93,.04,.92-.54,1.73-1.38,2.01Zm101.91-36.8c-.8,.27-1.71,.01-2.25-.7-.68-.89-.5-2.16,.39-2.83,.54-.41,1.07-.82,1.6-1.23,.89-.68,2.15-.52,2.84,.36,.68,.88,.52,2.15-.36,2.84-.54,.42-1.09,.84-1.63,1.25-.18,.14-.38,.24-.58,.31Zm-124.3,36.41c-.25,.08-.52,.12-.8,.1-.69-.06-1.37-.11-2.06-.18-1.11-.1-1.93-1.08-1.83-2.2,.1-1.11,1.07-1.93,2.2-1.83,.67,.06,1.34,.12,2.01,.17,1.11,.09,1.94,1.07,1.85,2.18-.07,.83-.63,1.51-1.38,1.76Zm141.28-51.02c-.71,.24-1.53,.07-2.08-.5-.78-.8-.77-2.08,.03-2.86l1.43-1.41c.79-.8,2.07-.78,2.86,0,.79,.79,.79,2.07,0,2.86l-1.46,1.44c-.23,.22-.49,.38-.77,.47Zm-163.46,47.87c-.33,.11-.68,.14-1.04,.06-.67-.14-1.35-.28-2.02-.43-1.09-.24-1.78-1.32-1.54-2.41,.24-1.09,1.32-1.78,2.41-1.54,.66,.14,1.31,.28,1.98,.42,1.09,.23,1.8,1.29,1.57,2.39-.15,.73-.68,1.29-1.34,1.51Zm178.5-64.45c-.63,.21-1.35,.11-1.9-.34-.87-.7-1.01-1.97-.32-2.84,.42-.52,.83-1.05,1.25-1.58,.69-.88,1.96-1.03,2.84-.35,.88,.69,1.04,1.96,.35,2.84-.42,.54-.85,1.08-1.27,1.61-.25,.32-.58,.54-.94,.66Zm-200.12,58.59c-.4,.13-.85,.14-1.28,0-.65-.22-1.3-.44-1.95-.67-1.05-.37-1.6-1.53-1.23-2.58,.37-1.05,1.52-1.6,2.58-1.23,.63,.22,1.27,.44,1.9,.66,1.06,.36,1.62,1.51,1.27,2.56-.21,.62-.7,1.08-1.28,1.27Zm213-76.89c-.55,.18-1.17,.13-1.7-.19-.95-.58-1.25-1.83-.66-2.78,.35-.57,.7-1.15,1.05-1.72,.58-.96,1.82-1.27,2.77-.69,.96,.57,1.27,1.82,.69,2.77-.35,.59-.71,1.17-1.07,1.76-.26,.42-.65,.71-1.08,.86Zm-233.74,68.43c-.48,.16-1.02,.14-1.51-.1-.62-.3-1.24-.6-1.85-.9-1-.5-1.41-1.71-.91-2.71,.5-1,1.71-1.41,2.71-.91,.6,.3,1.2,.59,1.81,.88,1,.48,1.43,1.69,.95,2.7-.25,.51-.68,.88-1.18,1.04Zm244.29-88.18c-.47,.16-.99,.14-1.48-.08-1.02-.47-1.46-1.66-1-2.68,.28-.61,.56-1.22,.83-1.84,.46-1.02,1.65-1.47,2.67-1.02,1.02,.45,1.48,1.65,1.02,2.67-.28,.62-.56,1.25-.85,1.87-.24,.53-.69,.91-1.2,1.08Zm-263.84,77.25c-.56,.19-1.2,.13-1.73-.22-.58-.37-1.15-.75-1.72-1.12-.93-.61-1.19-1.87-.58-2.8,.62-.93,1.87-1.19,2.8-.58,.56,.37,1.12,.73,1.69,1.1,.94,.6,1.21,1.85,.61,2.79-.26,.4-.64,.68-1.06,.82Zm271.9-98.14c-.39,.13-.83,.14-1.25,0-1.06-.34-1.65-1.47-1.31-2.54,.2-.64,.4-1.28,.6-1.92,.33-1.07,1.45-1.67,2.52-1.35,1.07,.33,1.67,1.45,1.35,2.52-.2,.66-.4,1.32-.62,1.97-.2,.64-.7,1.11-1.29,1.31Zm-289.96,84.91c-.64,.21-1.38,.1-1.93-.37l-1.57-1.32c-.85-.72-.96-2-.23-2.85,.72-.85,2-.95,2.85-.23l1.54,1.3c.86,.71,.97,1.99,.26,2.84-.25,.3-.57,.51-.91,.62Zm295.4-106.64c-.31,.1-.66,.13-1.01,.07-1.1-.21-1.82-1.26-1.61-2.36,.12-.66,.24-1.32,.36-1.98,.19-1.1,1.23-1.84,2.34-1.65,1.1,.19,1.84,1.23,1.65,2.34-.12,.68-.24,1.36-.37,2.04-.14,.75-.68,1.32-1.35,1.54Zm-311.7,91.29c-.72,.24-1.55,.06-2.11-.53-.47-.5-.94-1-1.4-1.51-.75-.82-.7-2.1,.13-2.86,.83-.75,2.1-.7,2.86,.13,.45,.49,.9,.98,1.36,1.47,.76,.81,.72,2.09-.09,2.86-.22,.21-.47,.36-.74,.44Zm314.43-113.53c-.24,.08-.49,.12-.76,.1-1.12-.06-1.97-1.02-1.9-2.13l.11-2.02c.06-1.11,1-1.97,2.12-1.92,1.11,.06,1.97,1,1.92,2.12l-.11,2.06c-.05,.85-.62,1.55-1.38,1.8Zm-328.71,96.29c-.81,.27-1.74,0-2.27-.73-.4-.56-.81-1.11-1.2-1.67-.65-.91-.43-2.17,.48-2.82,.91-.64,2.17-.43,2.82,.48,.39,.55,.78,1.09,1.18,1.63,.66,.9,.46,2.17-.44,2.82-.17,.13-.36,.22-.55,.29Zm328.67-118.7c-.16,.05-.33,.09-.5,.1-1.11,.08-2.08-.77-2.15-1.88l-.14-2.02c-.08-1.11,.75-2.08,1.87-2.16,1.11-.08,2.08,.75,2.16,1.87l.14,2.05c.06,.94-.52,1.77-1.38,2.05Zm-340.7,99.82c-.91,.3-1.93-.08-2.4-.94-.33-.6-.66-1.2-.99-1.81-.53-.98-.16-2.21,.82-2.74,1-.53,2.21-.16,2.74,.82,.32,.59,.64,1.18,.97,1.77,.54,.98,.19,2.21-.79,2.75-.11,.06-.23,.11-.34,.15Zm337.89-122.03c-.08,.03-.17,.05-.26,.07-1.1,.21-2.15-.51-2.36-1.61-.12-.66-.25-1.32-.38-1.98-.22-1.09,.46-2.14,1.58-2.38,1.09-.22,2.16,.49,2.38,1.58,.14,.67,.27,1.35,.4,2.02,.19,1.01-.4,1.98-1.35,2.29Zm-347.51,101.81c-1.01,.33-2.11-.17-2.51-1.17-.26-.64-.51-1.27-.76-1.91-.41-1.04,.11-2.21,1.15-2.62,1.02-.41,2.21,.11,2.62,1.15,.24,.63,.49,1.25,.74,1.88,.42,1.04-.09,2.21-1.12,2.63-.04,.02-.08,.03-.12,.04Zm341.98-123.51h-.02c-1.06,.35-2.2-.24-2.54-1.3-.2-.64-.41-1.28-.62-1.91l-.12-.36c-.35-1.06,.22-2.2,1.28-2.55s2.2,.22,2.55,1.28l.12,.36c.22,.65,.43,1.31,.64,1.96,.34,1.06-.24,2.18-1.29,2.53Zm-349.07,102.26s-.08,.02-.12,.03c-1.08,.29-2.19-.35-2.47-1.43-.18-.66-.35-1.33-.52-1.99-.28-1.08,.38-2.18,1.46-2.46,1.08-.28,2.18,.37,2.46,1.46,.17,.65,.34,1.3,.51,1.95,.28,1.04-.31,2.1-1.31,2.44Zm340.8-123.47c-.96,.32-2.04-.13-2.47-1.07-.28-.61-.57-1.21-.85-1.82-.48-1.01-.06-2.21,.95-2.69,1.01-.48,2.22-.05,2.69,.95,.3,.62,.59,1.24,.88,1.87,.47,1.01,.02,2.21-.99,2.68-.07,.03-.14,.06-.21,.08Zm-345.25,101.53c-.12,.04-.24,.07-.36,.08-1.1,.15-2.13-.62-2.28-1.72-.09-.68-.18-1.36-.27-2.04-.14-1.11,.63-2.12,1.75-2.26,1.11-.14,2.12,.64,2.26,1.75,.09,.67,.17,1.33,.27,2,.14,.98-.46,1.89-1.36,2.2Zm334.6-121.23c-.86,.29-1.84-.04-2.35-.84l-1.08-1.71c-.6-.94-.32-2.19,.62-2.79,.94-.6,2.19-.32,2.79,.62l1.1,1.73c.59,.95,.31,2.19-.64,2.79-.14,.09-.29,.16-.44,.21Zm-336.31,98.9c-.19,.06-.4,.1-.61,.1-1.12,.02-2.03-.88-2.05-1.99,0-.69-.02-1.38-.02-2.07,0-1.11,.9-2.02,2.01-2.03,1.12,0,2.02,.9,2.03,2.01,0,.67,0,1.35,.02,2.02,.01,.9-.57,1.68-1.38,1.95Zm323.32-117.13c-.77,.26-1.66,.03-2.21-.64l-1.28-1.56c-.71-.86-.59-2.13,.26-2.85,.85-.71,2.13-.6,2.85,.26l1.31,1.59c.7,.87,.57,2.14-.29,2.84-.2,.16-.41,.28-.64,.35Zm-322.25,94.74c-.27,.09-.56,.12-.86,.09-1.11-.12-1.91-1.12-1.79-2.23,.08-.68,.15-1.37,.24-2.05,.13-1.11,1.14-1.9,2.25-1.76,1.11,.13,1.9,1.14,1.76,2.25-.08,.67-.16,1.34-.23,2.01-.09,.81-.65,1.46-1.37,1.7Zm307.09-111.23c-.69,.23-1.48,.08-2.04-.46-.48-.46-.97-.93-1.46-1.38-.81-.76-.85-2.04-.09-2.86,.77-.82,2.05-.85,2.86-.09,.5,.47,.99,.94,1.49,1.41,.81,.77,.83,2.05,.06,2.86-.24,.25-.52,.42-.82,.52Zm-303.27,89.16c-.34,.11-.72,.14-1.1,.05-1.09-.26-1.76-1.35-1.5-2.43,.16-.67,.32-1.34,.49-2.01,.27-1.08,1.37-1.74,2.45-1.47,1.08,.27,1.74,1.37,1.47,2.45-.16,.65-.32,1.3-.48,1.96-.17,.71-.69,1.24-1.33,1.45Zm286.2-103.64c-.61,.2-1.3,.11-1.85-.3-.54-.4-1.08-.8-1.62-1.2-.9-.66-1.09-1.92-.44-2.82,.66-.9,1.92-1.1,2.82-.44,.55,.4,1.1,.81,1.65,1.22,.89,.67,1.08,1.94,.41,2.83-.26,.34-.6,.58-.98,.71Zm-279.69,82.21c-.42,.14-.89,.14-1.34-.02-1.04-.39-1.58-1.55-1.19-2.6l.73-1.92c.4-1.04,1.57-1.56,2.61-1.16,1.04,.4,1.56,1.57,1.16,2.61l-.71,1.89c-.22,.6-.7,1.03-1.26,1.21Zm260.98-94.5c-.52,.17-1.12,.13-1.64-.16-.59-.33-1.17-.66-1.76-.99-.98-.54-1.33-1.77-.78-2.75,.54-.97,1.77-1.32,2.75-.78,.6,.33,1.2,.67,1.79,1.01,.97,.55,1.31,1.79,.75,2.76-.26,.45-.66,.76-1.12,.92Zm-251.89,74.03c-.5,.17-1.06,.14-1.57-.12-.99-.51-1.38-1.73-.86-2.72,.32-.61,.64-1.22,.96-1.82,.52-.98,1.74-1.36,2.73-.83,.99,.52,1.36,1.75,.83,2.73-.31,.59-.63,1.19-.94,1.78-.25,.49-.68,.83-1.16,.99Zm231.81-83.94c-.45,.15-.95,.14-1.42-.06-.62-.26-1.24-.52-1.86-.77-1.03-.42-1.53-1.6-1.11-2.63,.42-1.04,1.6-1.53,2.63-1.11,.64,.26,1.27,.52,1.91,.79,1.03,.43,1.51,1.62,1.08,2.65-.23,.56-.69,.96-1.22,1.13Zm-220.3,64.74c-.58,.19-1.24,.12-1.78-.25-.92-.63-1.15-1.89-.52-2.81,.39-.56,.78-1.13,1.17-1.69,.65-.91,1.9-1.13,2.82-.49,.91,.64,1.13,1.9,.49,2.81-.39,.55-.77,1.1-1.15,1.65-.26,.38-.62,.64-1.03,.77Zm199.15-72.13c-.37,.12-.78,.14-1.18,.03l-1.95-.54c-1.08-.29-1.72-1.4-1.42-2.48,.29-1.08,1.4-1.71,2.48-1.42l1.98,.55c1.08,.3,1.7,1.42,1.4,2.49-.19,.67-.69,1.17-1.31,1.37Zm-185.38,54.48c-.66,.22-1.42,.09-1.98-.4-.84-.74-.91-2.02-.17-2.85l1.37-1.53c.75-.83,2.02-.89,2.85-.15,.83,.75,.89,2.02,.15,2.85l-1.34,1.5c-.24,.28-.55,.47-.87,.58Zm163.48-59.22c-.29,.1-.61,.13-.94,.08-.67-.1-1.33-.2-2-.29-1.1-.16-1.87-1.18-1.72-2.28,.16-1.11,1.17-1.88,2.28-1.72,.68,.1,1.36,.2,2.04,.3,1.1,.17,1.86,1.2,1.69,2.3-.12,.78-.67,1.38-1.36,1.61Zm-147.66,43.4c-.75,.25-1.6,.05-2.15-.58-.74-.84-.66-2.11,.18-2.85,.51-.45,1.03-.9,1.55-1.35,.84-.72,2.12-.63,2.85,.21,.73,.85,.63,2.12-.21,2.85-.51,.44-1.01,.88-1.51,1.32-.21,.19-.45,.32-.7,.4Zm125.34-45.41c-.22,.07-.45,.11-.69,.1-.68-.02-1.35-.03-2.02-.04-1.12-.02-2.01-.94-1.99-2.05,.02-1.12,.94-2.01,2.05-1.99,.69,.01,1.38,.03,2.07,.05,1.12,.03,2,.96,1.97,2.07-.03,.87-.6,1.6-1.38,1.86Zm-107.67,31.67c-.83,.28-1.78-.02-2.31-.78-.63-.92-.39-2.18,.53-2.81,.57-.39,1.14-.77,1.71-1.15,.93-.62,2.18-.37,2.8,.56,.62,.93,.37,2.18-.56,2.8-.56,.37-1.12,.75-1.67,1.13-.16,.11-.33,.19-.5,.25Zm85.28-30.89c-.14,.05-.29,.08-.44,.09-.67,.06-1.34,.13-2,.21-1.11,.12-2.11-.68-2.23-1.79-.12-1.11,.69-2.1,1.79-2.23,.68-.07,1.37-.14,2.05-.21,1.11-.11,2.1,.71,2.21,1.82,.09,.96-.5,1.82-1.37,2.11Zm-66.04,19.44c-.93,.31-1.97-.1-2.43-.99-.51-.99-.12-2.21,.87-2.72,.61-.31,1.22-.62,1.84-.93,1.02-.51,2.21-.09,2.71,.9,.5,1,.09,2.21-.9,2.71-.6,.3-1.2,.6-1.8,.91-.1,.05-.19,.09-.29,.12Zm43.92-15.9c-.06,.02-.13,.04-.2,.06-.65,.15-1.31,.3-1.96,.45-1.09,.25-2.17-.42-2.43-1.5-.26-1.09,.44-2.16,1.5-2.43,.67-.16,1.34-.31,2.01-.46,1.09-.24,2.17,.44,2.41,1.53,.23,1.02-.36,2.04-1.33,2.36Zm-23.43,6.9c-1.03,.34-2.15-.19-2.53-1.22-.39-1.05,.15-2.21,1.2-2.59,.64-.24,1.29-.47,1.93-.7,1.07-.29,2.21,.18,2.58,1.23,.37,1.05-.18,2.21-1.23,2.58-.63,.22-1.26,.45-1.89,.68-.02,0-.04,.02-.06,.02Z"/>
      <text class="cls-4" transform="translate(458.48 521.75)"><tspan x="0" y="0">干支</tspan></text>
      <path class="cls-13" d="M631.16,785.69c1-4.85,2.08-12.2,1.69-21.14-.42-9.56-.94-16.65-5.06-22.98-8.33-12.81-26.07-12.09-28.65-11.95-1.67-1.27-7.33-5.25-15.17-4.6-10.15,.85-15.93,8.8-16.86,10.11,.79-3.2,2.34-11.28-.84-20.22-5.51-15.51-20.33-19.79-21.91-20.22-2.72-4.69-7.47-11.41-15.17-16.54-18.11-12.07-45.93-10.93-58.15,5.51-3.85,5.18-5.3,10.73-5.9,13.79-1.89,1.13-7.63,4.89-10.96,12.87-.89,2.14-3.41,8.91-1.69,17.46-1.9,.02-12.87,.35-21.07,10.11-9.93,11.82-7.03,27.08-6.74,28.49,.19,.66,3.39,12.83-4.21,22.06-5.82,7.06-13.79,7.33-15.17,7.35-3.3-2.57-9.66-6.79-18.54-8.27-12.63-2.11-22.48,2.6-26.13,4.6-.63-.51-7.11-5.56-15.17-2.76-8.14,2.82-10.72,11.15-10.96,11.95-6.91-.13-14.54,.1-22.75,.92-10,.99-19.04,2.67-26.97,4.6-1.15,2.07-2.38,5.13-1.69,8.27,1.96,8.86,17.53,10.71,20.23,11.03,3.77,.45,9.68,.56,16.86-1.84,2.75,3.83,5.64,6.83,8.43,9.19,23.03,19.52,55.36,9.67,62.36,7.35,1.98,10.64,6.17,16.27,9.27,19.3,15.21,14.87,47.85,9.94,79.22-15.62,.74,1.14,8.78,12.97,22.75,12.87,10.19-.08,19.61-6.47,24.44-16.54,4.87,2.02,10.52,3.73,16.86,4.6,28.21,3.83,50.67-11.84,58.99-18.38,.84-.39,1.77,1.35,4.49,3.1,6.77,4.35,16.37,4.99,23.84,2.28,13.9-5.05,23.7-24.13,17-36.27-4.25-7.69-13.62-9.88-16.69-10.47Z"/>
      <path class="cls-21" d="M362.7,597.2c1.07-4.33,1.94-9.52,2.13-15.43,.42-13.58-3.01-24.54-5.85-31.39-1.18-2.89-3.01-7.34-5.32-12.77-5.03-11.81-6.02-13.44-7.45-18.09-1.21-3.95-3.11-10.29-3.19-18.62-.06-6.18-.13-13,3.72-20.22,4.47-8.37,11.7-12.57,15.43-14.36,4.27-1.5,11.27-3.25,19.68-2.13,19.53,2.61,30.15,18.53,31.92,21.28,12.59,18.52,27.8,42.8,43.09,72.35,1.95,3.76,23.92,46.51,38.3,88.31,29.04,84.37,29.36,171.22,27.66,214.39-17.02,.35-34.05,.71-51.07,1.06-36.35-88.13-72.7-176.26-109.06-264.39Z"/>
      <path class="cls-1" d="M488.78,685.51c-2.51-22.32-6.74-42.61-11.7-60.65-1.24-4.24-3.31-9.68-6.92-15.43-2.29-3.66-4.71-6.66-6.92-9.04-4.5-5.19-9.46-10.54-14.9-15.96-3.59-3.58-7.15-6.95-10.64-10.11-2.48-3.01-4.97-6.03-7.45-9.04-11.88,2.84-23.76,5.67-35.64,8.51-1.95,1.6-3.9,3.19-5.85,4.79-3.37,1.62-6.92,3.22-10.64,4.79-2.72,1.14-5.38,2.21-7.98,3.19-1.85,.42-4.59,1.28-7.45,3.19-1.87,1.25-3.26,2.6-4.26,3.72-6.73,6.93-15.46,16.41-25,28.2-22.05,27.23-36.4,51.92-44.69,67.56-7.51,14.18-16.09,32.38-23.94,54.26-1.74,15.99-2.84,34.01-2.66,53.73,.18,19.95,1.65,38.15,3.72,54.26,11.53,.18,23.05,.35,34.58,.53,57.1,.71,114.2,1.42,171.3,2.13,12.57-39.91,24.88-98.85,17.02-168.64Zm-56.16,12.85c-6.68,.21-13.54,.79-20.19,.94,6.52-14.78,14.88-28.7,25.84-40.82,1.57,10.66,2.66,21.35,3.28,32.23-3.65,1.85-6.56,4.51-8.93,7.65Z"/>
      <path class="cls-19" d="M347.8,500.38c.09,2.97,.39,6.38,1.06,10.11,.82,4.54,2,8.47,3.19,11.7,1.01,2.36,2.24,3.85,3.19,4.79,1.07,1.05,1.78,1.38,2.66,2.66,.86,1.24,.97,2.04,1.6,3.72,.34,.9,1.11,2.38,2.66,5.32,.8,1.53,1.87,3.52,3.19,5.85,1.34,1.35,3.1,2.86,5.32,4.26,4.28,2.7,8.4,3.78,11.17,4.26,.87,.52,2.53,1.37,4.79,1.6,2.14,.22,3.84-.22,4.79-.53,.58,1.99,1.12,4.12,1.6,6.38,.88,4.24,1.36,8.17,1.6,11.7,.19,5.12,.37,10.26,.53,15.43,.2,6.24,.38,12.45,.53,18.62,5.86-6.91,11.71-13.83,17.56-20.75,5.68-6.73,11.36-13.47,17.02-20.22-2.88-4.87-5.79-10.37-8.51-16.49-5.03-11.31-8.14-21.86-10.11-30.85,.6-.14,1.41-.43,2.13-1.06,.91-.81,1.65-2.15,1.6-7.45-.05-4.83-.1-7.28-1.6-9.04-.46-.54-2.09-2.46-4.26-2.13-2.03,.31-3.06,2.39-3.19,2.66-2.93-.28-6.38-.89-10.11-2.13-9.39-3.12-15.7-8.64-19.15-12.24-1.97-.52-4.49-1-7.45-1.06-4.49-.1-8.17,.78-10.64,1.6-1.53,.6-4.37,1.94-6.92,4.79-2.98,3.33-3.93,6.88-4.26,8.51Z"/>
      <path class="cls-5" d="M416.43,699.34c.41-1.32,.93-2.75,1.6-4.26,1.01-2.29,2.13-4.24,3.19-5.85,.09-.3,.32-1.14,0-2.13-.28-.87-.82-1.39-1.06-1.6-6.72-1.65-14.01-3.12-21.81-4.26-17.09-2.49-32.56-2.81-45.75-2.13,.4,.09,.07,.84,1.06,1.06,0,0,3.32-.09,3.72,0-2.84,7.09-5.14,14.19-7.98,21.28,8.07-.41,15.7-.76,23.94-1.06,14.61-.54,28.98-.88,43.09-1.06Z"/>
      <path class="cls-16" d="M357.38,680.19c-9.83,24.32-17.29,45.83-22.88,63.31-8.3,25.97-13.26,45.62-14.36,50.01-5.66,22.59-9.54,42.46-12.24,58.52h5.85c8.93-21.53,17.7-44.41,26.07-68.63,12.38-35.84,22.32-70.06,30.32-102.14-4.26-.35-8.51-.71-12.77-1.06Z"/>
      <path class="cls-19" d="M357.91,680.19l-6.92,17.56s5.16,.09,7.98,0c2.62-.08,5.1-.08,7.45,0,1.94,.04,4.29-.07,6.92-.53,3.5-.62,6.38-1.68,8.51-2.66,2.21-1.72,4.54-3.66,6.92-5.85,2.37-2.18,4.49-4.33,6.38-6.38,1.29-.88,2.89-1.82,4.79-2.66,2.61-1.16,5-1.78,6.92-2.13,1.15-.13,2.01-.82,2.13-1.6,.17-1.15-1.36-2-1.6-2.13-1.28-.71-2.59-.47-4.79,0-3.6,.76-5.39,1.14-6.92,1.6-1.65,.49-3.83,1.19-6.38,2.13,1.06-1.43,2.14-3.03,3.19-4.79,2.16-3.62,3.69-7.07,4.79-10.11,1.91-.83,3.87-1.72,5.85-2.66,2.59-1.23,5.07-2.47,7.45-3.72,1.54-.66,2.31-1.6,2.66-2.13,.33-.49,.75-1.11,.53-1.6-.25-.57-1.32-.82-2.66-.53,.41-.07,1.79-.37,2.66-1.6,.11-.15,1.26-1.8,.53-2.66-.47-.56-1.61-.63-2.66,0-1.24,.35-2.48,.71-3.72,1.06,.05-.11,.39-.92,0-1.6-.43-.74-1.59-1.07-2.66-.53-2.48,.96-4.51,1.67-5.85,2.13-3.27,1.11-6.51,2.07-9.04,3.72-1.13,.74-2.13,1.6-2.13,1.6-.92,.79-1.62,1.54-2.13,2.13-1.42,1.77-2.84,3.55-4.26,5.32l-4.79,1.6c-.59,.19-1.35,.51-2.13,1.06-1.53,1.08-2.31,2.44-2.66,3.19-1.92,2.33-3.9,4.98-5.85,7.98-1.19,1.83-1.71,3.08-2.66,4.79h-5.85Z"/>
      <path class="cls-16" d="M365.36,700.93c.99,4.93,2.06,9.9,3.19,14.9,10.23,45.08,24.76,86.04,41.49,122.89h-1.06c-14.36-29.26-18.62-41.56-27.13-65.43-5.72-16.05-10.31-33.28-14.9-48.41-1.6-7.45-3.19-14.9-4.79-22.34l3.19-1.6Z"/>
      <path class="cls-19" d="M364.83,703.06c-2.45,.62-6.16,1.3-10.64,1.06-4.61-.24-5.72-1.23-11.17-1.6-5.38-.36-9.52,.25-11.17,.53-4.32,.74-7.91,2-10.64,3.19-2.09,1.17-4.22,2.41-6.38,3.72-1.46,.89-2.88,1.77-4.26,2.66-.65,.7-1.34,1.61-1.06,2.13,.38,.71,2.4,.34,4.26,0,2.03-.37,3.35-.84,5.85-1.6,1.61-.48,2.91-.84,3.72-1.06,1.6-.35,3.19-.71,4.79-1.06-3.18,1.27-6.55,2.52-10.11,3.72-2.92,.99-4.7,1.34-7.45,2.13-4.79-6.92-6.92-7.45-8.51-8.51-1.06-.53-2.84-.52-3.19,.53-.18,.55,.28,1.13,1.06,2.13,1.25,1.59,2.47,3.2,3.72,4.79,.72,.91,1.71,2.31,2.66,4.26,.1,.45,.45,1.68,1.6,2.66,.82,.7,1.67,.96,2.13,1.06,.16,.55,.47,1.33,1.06,2.13,.93,1.24,2.06,1.86,2.66,2.13,.12,.47,.39,1.3,1.06,2.13,.77,.95,1.67,1.4,2.13,1.6,.26,.54,.74,1.36,1.6,2.13,.58,.52,1.15,.85,1.6,1.06,1.75,.33,3.91,.59,6.38,.53,3.75-.09,6.85-.85,9.04-1.6,3.37-1.62,6.92-3.22,10.64-4.79,2.72-1.14,5.38-2.21,7.98-3.19,4.97-.53,9.93-1.06,14.9-1.6-1.42-7.09-2.84-14.19-4.26-21.28Z"/>
      <path class="cls-5" d="M430.26,565.28c-13.67,14.65-27.81,30.94-42.03,48.94-17.64,22.34-33.31,45.62-46.28,65.97,1.72-.12,11.7,0,11.7,0,12.3-19.21,25.51-40.69,42.03-61.71,13.49-17.17,26.91-32.75,39.9-46.81-1.77-2.13-3.55-4.26-5.32-6.38Z"/>
      <path class="cls-5" d="M394.09,565.28c-.83,1.74-1.72,3.51-2.66,5.32-1.58,3.01-3.18,5.85-4.79,8.51-.06,4.35-.06,8.78,0,13.3,.12,9.02,.5,17.72,1.06,26.07,2.66-4.61,5.32-9.22,7.98-13.83-.25-7.72-.42-13.48-.53-17.02-.17-5.42-.27-8.9-.53-13.83-.19-3.56-.39-6.5-.53-8.51Z"/>
      <path class="cls-15" d="M66.98,834.6c5.48-4.18,11.59-3.95,15.23-3.81,8.84,.34,15.24,4.51,18.09,6.66,.82-5.86,3.2-9.51,4.76-11.42,6.93-8.53,20.54-11.17,34.27-6.66,.48-.37,8.13-6.14,17.13-2.86,7.39,2.69,10.08,9.44,10.47,10.47,1.72-2.32,6.29-7.8,14.28-10.47,12.41-4.14,23.04,1.85,24.75,2.86,2.01,1.05,4.42,.59,5.71-.95,1.55-1.85,1.26-4.96-.95-6.66-2.01-2.86-4.73-7.35-6.66-13.33-2.12-6.54-5.94-18.37,0-28.56,7.65-13.1,25.54-13.33,26.65-13.33-1.54-3.35-3.62-8.99-3.81-16.18-.1-3.91-.42-16.18,8.57-25.7,4.82-5.1,10.46-7.45,14.28-8.57,4.79-4.12,9.42-6.35,13.33-7.62,20.09-6.49,45.11,4.98,64.73,27.61,3.2,1.63,8.78,5.03,13.33,11.42,7.37,10.35,6.93,21.37,6.66,24.75,.46,1.4,2.11,5.81,6.66,8.57,7.51,4.54,15.76,.23,16.18,0,1.2-.77,14.59-9.09,29.51-2.86,1.72,.72,14.88,6.49,18.09,20.94,2.46,11.09-2.59,19.89-3.81,21.89,3.43-1.07,11.63-3.07,20.94,0,16.98,5.6,22.34,22.99,22.85,24.75,2.37,2.85,6.38,6.99,12.37,10.47,6.43,3.73,12.41,5.13,16.18,5.71,.54-1.35,2.55-5.91,7.62-8.57,7.24-3.79,14.44-.39,15.23,0,.15-1.91,.93-8.89,6.66-14.28,8.9-8.36,21.27-4.94,21.89-4.76,3.47-2.83,9.53-6.7,17.13-6.66,13.61,.06,27.11,12.6,31.41,31.41,3.17,1.27,6.35,2.54,9.52,3.81,2.66-3.94,7.27-5.82,11.42-4.76,4.41,1.13,6.37,5.1,6.66,5.71-.64,4.62-2.45,7.17-3.81,8.57-6.67,6.87-21.92,5.92-37.12-3.81-2.12,2.65-5.52,6.29-10.47,9.52-3.33,2.17-15.43,10.04-30.46,6.66-10.75-2.42-17.4-9.33-19.99-12.37-4.44-.32-8.88-.63-13.33-.95-2.16,1.39-5.38,3.05-9.52,3.81-10.45,1.92-18.75-3.28-20.94-4.76-2.24,1.07-5.47,2.3-9.52,2.86-5.78,.79-10.52-.15-13.33-.95-2.98,2.85-9.76,8.52-19.99,10.47-18.29,3.5-32.23-7.81-34.27-9.52-.82,2-2.93,6.31-7.62,9.52-7.91,5.41-16.68,3.23-18.09,2.86-.86,.58-15.19,9.84-30.46,2.86-11.49-5.26-15.47-16.04-16.18-18.09,.52,4.7,.74,13.32-3.81,21.89-9.66,18.19-32.52,20.56-36.17,20.94-23.44,2.43-42.67-12-57.11-22.85-6.35-4.76-11.15-9.25-14.28-12.37-3.76,.21-8.67,.12-14.28-.95-5-.95-9.17-2.42-12.37-3.81-4.97,3.36-9.44,4.41-12.37,4.76-12.64,1.5-25.81-6.48-34.27-19.99-2.85,3.08-6.6,6.21-11.42,8.57-20.01,9.76-41.68-2.08-44.74-3.81-7.34,3.47-13.17,3.25-16.18,2.86-2.58-.34-7.9-1.04-8.57-3.81-.54-2.25,2.12-5.44,6.66-7.62,.71-2.1,2.47-6.32,6.66-9.52Z"/>
      <path class="cls-8" d="M213.82,791.77c.91-7.36,4.67-14.27,10.4-18.98s13.81-7.13,21.44-6.37c.48,.05,.48-.7,0-.75-7.84-.78-15.87,1.58-21.97,6.59s-9.69,11.95-10.62,19.51c-.06,.48,.69,.47,.75,0h0Z"/>
      <path class="cls-8" d="M260.35,768.27c2.22,.64,4.44,1.28,6.66,1.92,.46,.13,.66-.59,.2-.72-2.22-.64-4.44-1.28-6.66-1.92-.46-.13-.66,.59-.2,.72h0Z"/>
      <path class="cls-8" d="M278.9,774.31c12.76,6.3,23.22,16.72,29.98,29.21,7.12,13.16,10.67,29.68,6.77,44.39s-17.22,26.03-32.57,27.05c-7.95,.53-16.04-1.51-22.7-5.91s-11.89-10.78-15.79-17.63c-7.5-13.2-10.04-29.21-6.85-44.06,.39-1.8,.86-3.57,1.41-5.33,.14-.46-.58-.66-.72-.2-4.61,14.81-3.37,31.17,3.09,45.24,3.31,7.22,8.04,13.97,14.03,19.22s13.44,8.56,21.42,9.33c15.29,1.47,30.2-6.97,36.91-20.79,3.74-7.7,4.52-16.54,3.77-24.98-.63-7.19-2.47-14.25-5.31-20.88-5.76-13.42-15.67-25.1-28.2-32.65-1.59-.96-3.21-1.84-4.87-2.66-.43-.21-.81,.43-.38,.65h0Z"/>
      <path class="cls-8" d="M255.09,787.01c-11.25,14.21-14.52,33.53-8.35,50.61,1.73,4.79,4.15,9.31,7.17,13.42,.28,.38,.93,.01,.65-.38-10.56-14.36-13.1-33.41-6.52-50,1.87-4.72,4.44-9.14,7.59-13.12,.3-.37-.23-.91-.53-.53h0Z"/>
      <path class="cls-8" d="M263.45,783.8c2.83-1.04,5.91-1.15,8.8-.3,.46,.14,.66-.59,.2-.72-3.01-.88-6.25-.78-9.2,.3-.45,.17-.26,.89,.2,.72h0Z"/>
      <path class="cls-8" d="M289.01,796.85c7.76,10.66,10.92,24.32,8.59,37.3-.09,.47,.64,.67,.72,.2,2.37-13.17-.78-27.05-8.66-37.88-.28-.39-.93-.01-.65,.38h0Z"/>
      <path class="cls-8" d="M241.28,747.11c.98-16.54,10.72-32.6,27.22-37.41,4.48-1.31,9.21-1.66,13.82-.92,.47,.08,.68-.65,.2-.72-8.22-1.32-16.68,.74-23.64,5.23-7.12,4.59-12.33,11.6-15.33,19.47-1.75,4.6-2.73,9.45-3.02,14.36-.03,.48,.72,.48,.75,0h0Z"/>
      <path class="cls-8" d="M246.04,756.47c-.79-4.84-.62-9.78,.46-14.56,.11-.47-.62-.67-.72-.2-1.12,4.92-1.27,9.98-.46,14.95,.08,.48,.8,.27,.72-.2h0Z"/>
      <path class="cls-8" d="M249.94,757.87c-2.01-8.06-1.08-16.77,2.8-24.15,3.41-6.49,8.9-11.72,15.49-14.91,.43-.21,.05-.86-.38-.65-6.81,3.29-12.49,8.78-15.93,15.52-3.82,7.48-4.73,16.25-2.7,24.38,.12,.47,.84,.27,.72-.2h0Z"/>
      <path class="cls-8" d="M300.74,716.16c9.45,2.33,15.29,11.28,19.37,19.47,4.72,9.49,7.56,20.2,6.09,30.83-.8,5.75-2.84,11.28-6.2,16.03-.28,.39,.37,.77,.65,.38,6.15-8.68,7.76-19.73,6.03-30.07-.91-5.46-2.71-10.73-5.04-15.74-2.14-4.6-4.67-9.1-7.92-13s-7.61-7.35-12.77-8.62c-.47-.12-.67,.61-.2,.72h0Z"/>
      <path class="cls-8" d="M331.93,771.23c-2.7,9.03-6.63,20.53-17.35,22.32-.48,.08-.27,.8,.2,.72,10.99-1.83,15.1-13.57,17.87-22.84,.14-.46-.59-.66-.72-.2h0Z"/>
      <path class="cls-8" d="M275.36,746.27c6.12-4.86,15.3-2.37,20.56,2.57,5.72,5.37,7.39,13.86,4.45,21.09-.18,.45,.54,.64,.72,.2,3.13-7.72,1.11-16.83-5.2-22.32-5.61-4.88-14.81-7.02-21.06-2.06-.38,.3,.16,.83,.53,.53h0Z"/>
      <path class="cls-8" d="M329.99,814.2c6.84-14.68,24.01-23.56,39.97-20.96,9.07,1.48,17.34,6.56,21.3,15.04,3.69,7.9,3.58,17.27,.35,25.29-3.89,9.68-11.67,17.31-20.4,22.74-.41,.25-.03,.9,.38,.65,8.02-4.99,15.21-11.76,19.45-20.3,3.94-7.93,4.95-17.22,2.1-25.68-1.37-4.08-3.64-7.87-6.78-10.83-3.58-3.39-8.14-5.64-12.87-6.92-8-2.15-16.63-1.26-24.24,1.92-8.6,3.6-15.95,10.16-19.91,18.67-.2,.43,.44,.82,.65,.38h0Z"/>
      <path class="cls-8" d="M379.24,846.82c-10.1,10.07-23.04,17.03-37.01,19.89-.47,.1-.27,.82,.2,.72,14.09-2.89,27.17-9.92,37.35-20.08,.34-.34-.19-.87-.53-.53h0Z"/>
      <path class="cls-8" d="M330.41,831.7c2.77-5.32,7.65-9.98,13.78-10.88,5.51-.81,11.55,1.85,13.9,7.05,.2,.44,.84,.06,.65-.38-2.44-5.4-8.7-8.18-14.43-7.44-6.44,.84-11.64,5.69-14.54,11.27-.22,.43,.42,.81,.65,.38h0Z"/>
      <path class="cls-8" d="M350.24,839.49c3.31,4.69,1.61,11.93-3.46,14.63-.43,.23-.05,.88,.38,.65,5.4-2.88,7.27-10.65,3.73-15.66-.28-.39-.93-.02-.65,.38h0Z"/>
      <path class="cls-8" d="M373.79,780.43c3.9-3.76,9.23-5.88,14.66-5.68,5.3,.2,10.33,2.62,13.92,6.49,.33,.35,.86-.18,.53-.53-3.72-4.02-8.96-6.5-14.45-6.71-5.62-.22-11.16,2.01-15.19,5.89-.35,.34,.18,.87,.53,.53h0Z"/>
      <path class="cls-8" d="M394.94,782.2c5.64,2.47,9.53,8.21,9.68,14.37,.01,.48,.76,.48,.75,0-.16-6.4-4.18-12.45-10.06-15.02-.44-.19-.82,.45-.38,.65h0Z"/>
      <path class="cls-8" d="M259.22,831.87c.77,4.15,2.13,8.17,4.07,11.92,1.68,3.24,3.83,6.67,7.23,8.32,7.24,3.52,14.61-1.89,17.98-8.13,.23-.42-.42-.8-.65-.38-1.66,3.09-4.01,5.89-7.18,7.49-3.36,1.7-7.57,1.87-10.8-.21-2.96-1.9-4.82-5.2-6.33-8.28-1.7-3.47-2.88-7.15-3.59-10.95-.09-.47-.81-.27-.72,.2h0Z"/>
      <path class="cls-8" d="M174.67,835.82c2.16-3.91,4.52-8.03,8.76-9.98s9.21-1.56,13.5-.05c7.89,2.77,14.12,9.6,17.06,17.33,1.73,4.56,2.38,10.01-.52,14.23-.27,.4,.38,.77,.65,.38,5.21-7.59,.14-18.28-5.13-24.4-5.72-6.63-15.31-11.58-24.17-8.83-5.35,1.67-8.23,6.29-10.8,10.93-.23,.42,.41,.8,.65,.38h0Z"/>
      <path class="cls-8" d="M206.66,842.54c2.14,3.18,2.69,7.28,1.31,10.88-1.29,3.38-4.21,5.99-7.65,7.03-.46,.14-.26,.86,.2,.72,3.62-1.1,6.65-3.79,8.08-7.3,1.56-3.82,1-8.3-1.29-11.71-.27-.4-.92-.02-.65,.38h0Z"/>
      <path class="cls-8" d="M223.22,864.75c8.67,10.65,20.29,18.7,33.29,23.11,.46,.16,.65-.57,.2-.72-12.89-4.37-24.37-12.36-32.96-22.91-.3-.37-.83,.16-.53,.53h0Z"/>
      <path class="cls-8" d="M251.2,881.48c4.02,3.67,9.09,6,14.48,6.7,.48,.06,.47-.69,0-.75-5.19-.68-10.09-2.96-13.95-6.48-.36-.32-.89,.2-.53,.53h0Z"/>
      <path class="cls-8" d="M422.68,817.85c7.43,2.35,14.42,7.68,17.24,15.13,3.19,8.43-.09,18-6.03,24.36-3.21,3.43-7.21,6.03-11.66,7.53-.46,.15-.26,.88,.2,.72,8.08-2.72,14.78-9.04,17.83-17.02,1.73-4.53,2.26-9.59,.89-14.29-1.13-3.88-3.42-7.35-6.32-10.15-3.36-3.25-7.51-5.61-11.95-7.01-.46-.15-.66,.58-.2,.72h0Z"/>
      <path class="cls-8" d="M448.31,833.82c3.05,6.64,2.04,14.81-2.54,20.51-.3,.37,.23,.91,.53,.53,4.8-5.99,5.85-14.44,2.65-21.42-.2-.44-.85-.06-.65,.38h0Z"/>
      <path class="cls-8" d="M454.22,839.68c1.09,1.89,1.17,4.28,.18,6.23-.22,.43,.43,.81,.65,.38,1.11-2.19,1.05-4.86-.18-6.99-.24-.42-.89-.04-.65,.38h0Z"/>
      <path class="cls-8" d="M517.5,842.84c1.16-2.9,2.45-5.93,4.67-8.19,2.63-2.69,6.22-3.26,9.74-2.11,6.42,2.09,12.03,7.86,14.77,13.93,1.62,3.58,2.27,7.53,1.6,11.42-.08,.47,.64,.67,.72,.2,1.26-7.29-1.93-14.44-6.94-19.64-4.62-4.79-12.95-10.25-19.29-5.34-3.02,2.34-4.6,6.08-5.99,9.53-.18,.45,.55,.64,.72,.2h0Z"/>
      <path class="cls-8" d="M545.36,835.86c5.47,4.99,8.37,12.39,7.75,19.77-.04,.48,.71,.48,.75,0,.63-7.56-2.37-15.19-7.97-20.3-.36-.32-.89,.2-.53,.53h0Z"/>
      <path class="cls-8" d="M550.18,836.26c3.69,2.99,6.04,7.46,6.35,12.21,.03,.48,.78,.48,.75,0-.33-4.94-2.72-9.62-6.57-12.74-.37-.3-.91,.23-.53,.53h0Z"/>
      <path class="cls-8" d="M549.11,826.39c3.36-1.67,7.2-1.25,10.67-.14,3.17,1.01,6.28,2.52,8.84,4.65s4.42,4.72,5.13,7.89,.19,6.66-1.97,9.2c-.31,.37,.22,.9,.53,.53,4.73-5.56,2.16-13.57-2.88-17.92-2.77-2.39-6.17-4.06-9.64-5.14s-7.57-1.46-11.05,.28c-.43,.22-.05,.86,.38,.65h0Z"/>
      <path class="cls-8" d="M570.23,841.43c2.01,1.36,.59,4.55-.28,6.16-1.22,2.27-2.94,4.24-5.03,5.76-.39,.28-.01,.93,.38,.65,2.41-1.75,4.37-4.06,5.66-6.75,.93-1.95,1.82-4.98-.36-6.46-.4-.27-.78,.38-.38,.65h0Z"/>
      <path class="cls-8" d="M543.39,857.51c-.38,3.35-2.51,6.38-5.51,7.91-.43,.22-.05,.87,.38,.65,3.25-1.66,5.47-4.95,5.88-8.56,.05-.48-.7-.48-.75,0h0Z"/>
      <path class="cls-8" d="M139.35,827.37c5.38-5.16,13.82-3.61,18.57,1.55,5.36,5.83,5.97,14.57,3.91,21.92-1.01,3.61-3,7.36-6.74,8.68-.45,.16-.26,.89,.2,.72,7.4-2.62,8.91-13.24,8.24-19.95-.75-7.55-5.63-15.4-13.62-16.7-3.98-.65-8.15,.42-11.09,3.24-.35,.33,.18,.86,.53,.53h0Z"/>
      <path class="cls-8" d="M166.35,850.37c-.28,3.63-2.2,7.05-5.16,9.17-.39,.28-.01,.93,.38,.65,3.19-2.28,5.23-5.91,5.53-9.82,.04-.48-.71-.48-.75,0h0Z"/>
      <path class="cls-8" d="M164.78,836.1c.98,2.23,1.41,4.68,1.27,7.11-.03,.48,.72,.48,.75,0,.15-2.57-.33-5.13-1.37-7.49-.19-.44-.84-.06-.65,.38h0Z"/>
      <path class="cls-8" d="M105.31,845.8c1.14-3.52,2.65-6.93,4.61-10.07,1.73-2.78,4.08-5.61,7.33-6.58,3.56-1.07,7.24,.6,9.73,3.15s4,6.07,5.34,9.4c.18,.44,.9,.25,.72-.2-1.41-3.52-2.94-7.16-5.67-9.88-2.49-2.48-6.05-4.12-9.6-3.38-3.34,.69-5.89,3.28-7.76,5.99-2.39,3.45-4.13,7.39-5.42,11.37-.15,.46,.58,.66,.72,.2h0Z"/>
      <path class="cls-8" d="M125.38,838.28c1.84,2.02,3.01,4.6,3.3,7.32,.05,.47,.8,.48,.75,0-.32-2.92-1.54-5.67-3.52-7.85-.33-.36-.85,.17-.53,.53h0Z"/>
      <path class="cls-8" d="M133.9,834.53c1.42,1.35,2.41,3.08,2.86,4.98,.11,.47,.83,.27,.72-.2-.48-2.02-1.55-3.88-3.05-5.31-.35-.33-.88,.2-.53,.53h0Z"/>
      <path class="cls-8" d="M375.41,680.85c-.21,2.54-.66,5.2-2.17,7.32-1.35,1.9-3.75,3.27-6.12,2.78-.47-.1-.67,.63-.2,.72,2.58,.53,5.14-.78,6.71-2.79,1.78-2.27,2.29-5.23,2.52-8.03,.04-.48-.71-.48-.75,0h0Z"/>
      <path class="cls-8" d="M376.59,676.82c.94-2.42,1.82-4.87,2.63-7.33,.15-.46-.57-.66-.72-.2-.81,2.47-1.69,4.91-2.63,7.33-.18,.45,.55,.65,.72,.2h0Z"/>
      <path class="cls-8" d="M378.79,668.62c.52,.14,1.08-.09,1.36-.54,.1-.17,.04-.42-.13-.51-.18-.1-.4-.04-.51,.13-.01,.02-.03,.04-.05,.07l.06-.08c-.04,.06-.09,.11-.15,.15l.08-.06c-.06,.05-.12,.08-.19,.11l.09-.04c-.07,.03-.15,.05-.23,.06h.1c-.07,0-.14,0-.21-.01h.1s-.07,0-.1,0c-.09-.02-.2-.01-.29,.04-.08,.05-.15,.13-.17,.22-.04,.2,.06,.41,.26,.46h0Z"/>
      <path class="cls-8" d="M381.25,667.69c2.04-.38,4.05-.99,5.94-1.86,1.51-.69,2.94-1.69,3.56-3.29,.17-.45-.55-.65-.72-.2-.58,1.49-2.08,2.35-3.47,2.95-1.76,.77-3.62,1.31-5.51,1.67-.47,.09-.27,.81,.2,.72h0Z"/>
      <path class="cls-8" d="M383.33,661.93c1.23-.26,2.48-.45,3.74-.56,.6-.05,1.2-.08,1.8-.09,.3,0,1.03-.08,1.15,.3,.15,.46,.87,.26,.72-.2-.16-.5-.59-.74-1.09-.82-.66-.1-1.37-.03-2.03,.01-1.51,.09-3.01,.3-4.49,.62-.47,.1-.27,.82,.2,.72h0Z"/>
      <path class="cls-8" d="M393.66,656.62c4.86-1.29,9.4-3.55,13.38-6.64,.38-.3-.15-.82-.53-.53-3.87,3-8.32,5.19-13.05,6.44-.47,.12-.27,.85,.2,.72h0Z"/>
      <path class="cls-23" d="M-40.01,356.8c6.99,2.05,14.39,3.15,22.04,3.15,43.16,0,78.15-34.99,78.15-78.15S25.19,203.65-17.97,203.65c-10.62,0-16.64,.78-22.24,2.05l.2,151.1Z"/>
      <path class="cls-8" d="M392.06,656.97c-.91,1.1-1.82,2.2-2.73,3.3-.13,.16-.15,.38,0,.53,.13,.13,.4,.16,.53,0,.91-1.1,1.82-2.2,2.73-3.3,.13-.16,.15-.38,0-.53-.13-.13-.4-.16-.53,0h0Z"/>
      <path class="cls-8" d="M395.89,659.13c3.49-1.05,6.9-2.32,10.22-3.82,1.67-.75,3.31-1.56,4.93-2.43,1.32-.71,2.67-1.4,3.52-2.68,.27-.4-.38-.78-.65-.38-.92,1.36-2.6,2.07-4.01,2.81s-2.97,1.49-4.48,2.17c-3.16,1.41-6.41,2.61-9.73,3.61-.46,.14-.26,.86,.2,.72h0Z"/>
      <path class="cls-8" d="M394.38,659.81c-1.36,2.95-3.14,5.69-5.3,8.12-.32,.36,.21,.89,.53,.53,2.2-2.48,4.03-5.26,5.42-8.28,.2-.44-.45-.82-.65-.38h0Z"/>
      <path class="cls-8" d="M384.99,667.85c.12-.05,.24-.09,.36-.12,.06-.02,.12-.03,.19-.04,.03,0,.05-.01,.08-.01-.11,0,0,0,.02,0,.12-.01,.24-.01,.37,0,.06,0,.13,0,.19,.01,.09,0-.08-.01,0,0,.04,0,.07,.01,.11,.02,.19,.04,.41-.05,.46-.26,.04-.19-.06-.42-.26-.46-.57-.11-1.17-.07-1.71,.14-.09,.04-.17,.08-.22,.17-.05,.08-.07,.2-.04,.29,.06,.18,.27,.34,.46,.26h0Z"/>
      <path class="cls-8" d="M387.99,668.88c.97,.15,1.9,.54,2.67,1.16,.16,.13,.38,.15,.53,0,.13-.13,.16-.4,0-.53-.87-.7-1.89-1.18-3-1.35-.2-.03-.4,.05-.46,.26-.05,.18,.06,.43,.26,.46h0Z"/>
      <path class="cls-8" d="M389.92,676.29c-1.02,1.01-1.82,2.21-2.36,3.54-.08,.19,.08,.41,.26,.46,.21,.06,.38-.07,.46-.26,.49-1.21,1.24-2.3,2.17-3.21,.34-.34-.19-.87-.53-.53h0Z"/>
      <path class="cls-8" d="M434.32,699.55c1.93,.82,3.72,1.94,5.28,3.35,.36,.32,.89-.21,.53-.53-1.61-1.45-3.44-2.62-5.44-3.46-.19-.08-.4-.05-.51,.13-.09,.16-.05,.43,.13,.51h0Z"/>
      <path class="cls-8" d="M442.86,705.28c8.7,9.54,12.71,22.08,16.48,34.15,.14,.46,.87,.26,.72-.2-3.81-12.21-7.89-24.85-16.68-34.48-.33-.36-.86,.17-.53,.53h0Z"/>
      <path class="cls-8" d="M442.84,691.03c5.64,.29,11.18,1.53,16.41,3.64,.45,.18,.64-.54,.2-.72-5.3-2.14-10.9-3.37-16.61-3.67-.48-.02-.48,.73,0,.75h0Z"/>
      <path class="cls-8" d="M452.15,690.57c3.2,.47,6.28,1.48,9.13,3.02,.42,.23,.8-.42,.38-.65-2.9-1.57-6.05-2.62-9.3-3.09-.47-.07-.68,.65-.2,.72h0Z"/>
      <path class="cls-8" d="M435.27,644.93c1.52,4.88,2.51,9.9,2.94,15,.04,.48,.79,.48,.75,0-.43-5.16-1.42-10.25-2.97-15.2-.14-.46-.87-.26-.72,.2h0Z"/>
      <path class="cls-8" d="M432.01,650.35c1.63,1.23,3.53,2.09,5.52,2.52,.47,.1,.67-.62,.2-.72-1.94-.42-3.76-1.25-5.34-2.45-.16-.12-.42-.02-.51,.13-.11,.19-.03,.39,.13,.51h0Z"/>
      <path class="cls-8" d="M453.66,622.68c3.02-4.82,7.03-9.73,13.03-10.54,.48-.06,.27-.79-.2-.72-6.18,.84-10.37,5.92-13.48,10.89-.26,.41,.39,.79,.65,.38h0Z"/>
      <path class="cls-8" d="M465.27,615.49c.63-.51,1.42-.84,2.26-.97,.19-.03,.32-.28,.26-.46-.07-.21-.25-.29-.46-.26-.95,.14-1.84,.56-2.59,1.17-.16,.13-.13,.4,0,.53,.16,.16,.37,.13,.53,0h0Z"/>
      <path class="cls-8" d="M429.67,565.87c-2.86,2.59-5.48,5.44-7.84,8.49-.29,.38,.36,.76,.65,.38,2.32-3,4.91-5.79,7.72-8.34,.36-.32-.17-.85-.53-.53h0Z"/>
      <path class="cls-8" d="M417.5,578.49c-15.32,16.75-28.85,35-42.63,53.02-7.25,9.49-13.9,19.44-20.6,29.32-4.29,6.33-8.58,12.68-12.64,19.17-.26,.41,.39,.79,.65,.38,7.39-11.81,15.36-23.27,23.3-34.71,8.85-12.77,18.39-25.03,27.94-37.28,7.84-10.06,15.9-19.94,24.51-29.36,.33-.36-.2-.89-.53-.53h0Z"/>
      <path class="cls-8" d="M326.11,673.52c3.85,1.26,7.4,3.32,10.39,6.04,.36,.32,.89-.2,.53-.53-3.09-2.81-6.75-4.94-10.72-6.24-.46-.15-.66,.57-.2,.72h0Z"/>
      <path class="cls-8" d="M328.65,680.56h35.64c.48,0,.48-.75,0-.75h-35.64c-.48,0-.48,.75,0,.75h0Z"/>
      <path class="cls-12" d="M384.47,537.18c-3.78-1.04-7.33,.26-8.59,2.75-.8,1.57-.5,3.24-.29,4.04,1.18-.34,2.95-.99,4.78-2.32,2.15-1.56,3.42-3.34,4.1-4.47Z"/>
      <path class="cls-22" d="M374.43,523.68c1.18-1.54,2.92-3.47,5.38-5.25,3.99-2.89,7.93-4,10.33-4.48,1.21-2.35,2.42-4.69,3.63-7.04-2.26,1.51-4.53,3.01-6.79,4.52-1.22,.14-4.93,.72-8.2,3.8-3.49,3.29-4.19,7.27-4.36,8.45Z"/>
      <path class="cls-22" d="M366.98,512.06c.55-.62,1.35-1.46,2.41-2.35,1.09-.91,2.76-2.29,5.27-3.26,2.22-.86,4.31-1.11,5.96-1.11-1.99-.67-5.23-1.38-8.79-.35-1.39,.4-5.39,1.56-5.76,4.21-.17,1.18,.45,2.23,.92,2.86Z"/>
      <path class="cls-22" d="M366.79,528.58c-1.36,.24-3.12,.72-4.89,1.71-2.88,1.6-4.44,3.76-5.23,5.15-1.97,0-3.94-.01-5.91-.02,1.54-.95,3.07-1.9,4.61-2.85,.33-.74,1.44-2.93,4.33-4,3.09-1.15,6.18-.27,7.09,.02Z"/>
      <path class="cls-22" d="M360.65,517.82c-.68,.17-1.61,.46-2.64,.92-1.06,.48-2.66,1.21-4.09,2.77-1.27,1.37-1.94,2.89-2.31,4.16-.16-1.81-.08-4.6,1.63-6.94,.67-.91,2.59-3.54,5.04-2.76,1.09,.34,1.9,1.24,2.36,1.86Z"/>
      <path class="cls-22" d="M409.73,502.11c-1.27,2.54-1.97,5.33-2.05,8.17-.01,.48,.74,.48,.75,0,.08-2.71,.74-5.37,1.95-7.79,.22-.43-.43-.81-.65-.38h0Z"/>
      <path class="cls-22" d="M408.58,505.87s.05,0,.08,0c-.03,0-.03,0,0,0,.04,0,.09,.02,.13,.03,.07,.02,.15,.04,.22,.07,.04,.02,.05,.02,.02,0,.02,.01,.05,.02,.07,.03,.03,.02,.07,.04,.1,.05,.07,.04,.13,.08,.19,.13-.04-.03,.06,.05,.07,.06,.03,.03,.06,.05,.08,.08,.06,.05,.11,.11,.16,.17,.06,.07,.18,.26,.25,.4,.13,.25,.2,.57,.2,.86,0,.31-.07,.57-.25,.84-.27,.41,.38,.78,.65,.38,.99-1.51-.2-3.74-1.96-3.86-.2-.01-.38,.18-.38,.38,0,.21,.17,.36,.38,.38h0Z"/>
      <path class="cls-22" d="M352.12,487.97c2.12-1.79,4.56-3.19,7.19-4.1,.45-.16,.26-.88-.2-.72-2.75,.96-5.29,2.41-7.52,4.3-.37,.31,.16,.84,.53,.53h0Z"/>
      <path class="cls-22" d="M353.02,485.01c3.41-3.08,8.49-4.53,12.97-4.97,4.48-.44,8.98,.17,13.18,1.78,.45,.17,.65-.55,.2-.72-4.52-1.73-9.43-2.32-14.23-1.71-4.42,.57-9.28,2.05-12.65,5.09-.36,.32,.17,.85,.53,.53h0Z"/>
      <path class="cls-22" d="M379.73,486.09c6.74,5.83,14.79,9.99,23.45,12.1,.47,.11,.67-.61,.2-.72-8.53-2.09-16.47-6.17-23.11-11.91-.36-.31-.9,.21-.53,.53h0Z"/>
      <path class="cls-22" d="M373.43,471.66c13.99,4.47,26.39,13.4,35.06,25.26,.28,.39,.93,.01,.65-.38-8.79-12.02-21.32-21.06-35.51-25.6-.46-.15-.66,.58-.2,.72h0Z"/>
      <path class="cls-22" d="M416.48,514.93c10.51,16.48,19.88,33.68,28,51.46,2.37,5.19,4.63,10.43,6.79,15.71,.18,.44,.91,.25,.72-.2-7.46-18.27-16.19-36.01-26.14-53.06-2.81-4.82-5.73-9.59-8.73-14.3-.26-.41-.91-.03-.65,.38h0Z"/>
      <path class="cls-22" d="M374.03,553.03c2.92,9.64,5.36,19.41,7.31,29.29,.09,.47,.82,.27,.72-.2-1.95-9.88-4.39-19.66-7.31-29.29-.14-.46-.86-.26-.72,.2h0Z"/>
      <path class="cls-22" d="M381.16,567.77l1.16,4.37c.12,.47,.85,.27,.72-.2l-1.16-4.37c-.12-.47-.85-.27-.72,.2h0Z"/>
      <path class="cls-22" d="M418.33,527.85c4.42,11.41,8.28,23.03,11.56,34.82,.13,.46,.85,.27,.72-.2-3.28-11.79-7.14-23.41-11.56-34.82-.17-.45-.9-.25-.72,.2h0Z"/>
      <path class="cls-22" d="M456.27,568.09c4.49,11.27,8.77,22.63,12.83,34.06,.16,.45,.89,.26,.72-.2-4.06-11.43-8.34-22.79-12.83-34.06-.18-.44-.9-.25-.72,.2h0Z"/>
    </g>
  </g>
</svg>