<?xml version="1.0" encoding="UTF-8"?>
<svg id="_Слой_2" data-name="Слой 2" xmlns="http://www.w3.org/2000/svg" xmlns:xlink="http://www.w3.org/1999/xlink" viewBox="0 0 1056 1408">
  <defs>
    <style>
      .cls-1, .cls-2, .cls-3, .cls-4, .cls-5 {
        fill: none;
      }

      .cls-1, .cls-2, .cls-4, .cls-5 {
        stroke-miterlimit: 10;
      }

      .cls-1, .cls-4 {
        stroke: #938337;
        stroke-width: 2px;
      }

      .cls-6 {
        fill: #393960;
        opacity: .22;
      }

      .cls-2 {
        stroke-width: 5px;
      }

      .cls-2, .cls-4, .cls-5 {
        stroke-linecap: round;
      }

      .cls-2, .cls-5 {
        stroke: #333;
      }

      .cls-7 {
        fill: #353544;
      }

      .cls-8 {
        fill: #ffeb62;
        opacity: .47;
      }

      .cls-9 {
        fill: #585959;
      }

      .cls-10 {
        fill: #4d4d4d;
      }

      .cls-11 {
        opacity: .64;
      }

      .cls-12 {
        opacity: .44;
      }

      .cls-12, .cls-13 {
        fill: #111010;
      }

      .cls-14 {
        fill: #1b1d1f;
      }

      .cls-15 {
        fill: #31313f;
      }

      .cls-16 {
        fill: gray;
      }

      .cls-17 {
        fill: #3f3d56;
        opacity: .3;
      }

      .cls-18 {
        fill: #2a2a35;
      }

      .cls-19 {
        clip-path: url(#clippath);
      }

      .cls-20 {
        fill: #ccc;
      }

      .cls-21 {
        fill: #23232d;
      }

      .cls-22 {
        fill: #b3b3b3;
      }

      .cls-23 {
        fill: #2c2e30;
      }

      .cls-24 {
        fill: #1a1a1a;
      }

      .cls-25 {
        fill: #938337;
      }

      .cls-5 {
        stroke-width: 3px;
      }

      .cls-26 {
        fill: #242628;
      }

      .cls-27 {
        fill: #5b5b5b;
      }

      .cls-28 {
        fill: #1e1e1e;
      }

      .cls-29 {
        fill: #3a3c3d;
      }

      .cls-30 {
        fill: #666;
      }
    </style>
    <clipPath id="clippath">
      <rect class="cls-3" width="1056" height="1408"/>
    </clipPath>
  </defs>
  <g id="_Слой_2-2" data-name="Слой 2">
    <g class="cls-19">
      <rect class="cls-14" width="1056" height="1408"/>
      <path class="cls-26" d="M18.54,1253.96c756.54,20.98,980.69,21.24,984.81,14.08,.07-.12,7.47-13.07,7.45-13.07h0c-1.32-6.71-12.46-10.28-20.23-12.07,7.68-4.04,22.86-13.46,31.94-31.17,12.68-24.75,8.25-55.57-10.65-80.44,.34-2.56,2.53-20.89-9.58-31.17-13.77-11.69-42.15-9.65-61.75,11.06-2.19-6.76-14.41-42-52.17-59.32-35.94-16.49-80.73-10.18-113.92,16.09,9.64-33.53-10.81-62.76-34.07-66.36-15.77-2.44-33.35,6.83-44.72,22.12-.73-.62-14.27-11.83-30.88-7.04-11.39,3.29-16.86,11.97-18.1,14.08,2.72-11.84,3.9-27.04-1.06-43.24-11.32-36.92-50.12-64.38-99.01-72.4,14.01-2.56,24.74-13.17,26.62-26.14,2.03-14.06-6.77-27.97-21.29-33.18-.63-11.45-3.48-26.47-12.78-41.23-31.02-49.22-103.53-47.41-107.53-47.26,.14-1.55,1.61-22.13-15.97-35.19-12.28-9.12-29.11-11.05-43.65-5.03,7.09-27.14-7.15-48.84-22.36-51.28-14.33-2.3-27.64,12.79-28.75,14.08-12.08-12.28-44.24-41.69-76.66-36.2-43.53,7.38-82.65,76.88-67.07,172.95-1.44-.93-19.96-12.39-40.46-5.03-16.83,6.04-27.81,22.2-26.72,40-2.35-.25-14.22-1.26-25,6.39-11.03,7.83-12.73,18.92-13,20.99-8.07,4.49-31.84,19.05-43,47.45-16.92,43.08,9.87,80.63,13,84.86-6.2-2.83-38.35-16.82-72-4.56-36.34,13.24-59.61,51.67-54,93.98-8.52-6.23-22.18-13.77-39-13.69-31.58,.15-62.98,27.09-73,67.52-7.58-1.39-18.27-2.18-30,.91-36.63,9.67-48.14,48.04-49,51.1,10.61,9.56,21.42,17.34,32,23.72,98.14,59.2,222.94,25.6,261.54,13.7Z"/>
      <path class="cls-2" d="M356.25,805.75c0,196.06-158.94,355-355,355-149.46,0-276.4-89.49-328.75-220.25"/>
      <path class="cls-5" d="M332.5,817.5c-3.92,179.68-150.63,319.75-331.25,319.75-139.24,0-257.65-83.09-306.75-204.75"/>
      <g>
        <path class="cls-17" d="M1059.87,227.37c-9.21-2.1-19.11-3.37-36.57-3.37-70.98,0-128.52,57.54-128.52,128.52,0,70.98,57.54,128.52,128.52,128.52,12.58,0,24.75-1.81,36.24-5.18l.33-248.5Z"/>
        <circle class="cls-12" cx="948.63" cy="363.41" r="27.62"/>
        <circle class="cls-12" cx="993.25" cy="414.17" r="12.72"/>
      </g>
      <path class="cls-30" d="M755.57,582.76c11.93-.24,22.06-.16,29.78,0,0,0,26.62,.54,56.37,7.44,0,0,9.73,2.26,9.57,4.25-.12,1.44-5.25,1.09-9.57,4.25-4.2,3.08-5.73,8.1-6.38,11.7,5.95-.29,14.43-.31,24.46,1.06,12.39,1.7,24.83,3.41,37.22,11.7,14.32,9.58,22.13,23.64,21.27,24.46-.35,.33-2.12-1.54-7.44-4.25-3.68-1.88-6.56-2.89-7.44-3.19-2.22-.76-5.09-1.57-8.51-2.13-4.92-2.75-11.82-6.48-20.21-10.64-12.37-6.13-26.33-12.37-49.99-21.27-17.65-6.65-40.92-14.86-69.13-23.4Z"/>
      <path class="cls-27" d="M640.71,1220.88c5.89,1.54,14.26,4.32,23.4,9.57,5.75,3.31,18.33,10.72,28.72,25.52,8.76,12.49,11.7,24.19,13.83,32.97,3.02,12.48,3.42,23.26,3.19,30.84,2.71-.09,7.5-.61,12.76-3.19,5.5-2.7,8.91-6.37,10.64-8.51,1.46-8.18,2.75-20.99,0-36.16-2.06-11.32-5.29-29.12-20.21-43.61-14.39-13.98-31.75-17.18-39.35-18.08-10.99,3.55-21.98,7.09-32.97,10.64Z"/>
      <path class="cls-27" d="M519.47,1100.7c3.18,4.86,7.96,11.04,14.89,17.02,9.53,8.22,19.08,12.57,25.52,14.89-5.95,1.05-15.38,2.01-26.59,0-5.25-.94-26.07-4.97-41.48-22.33-2.69-3.03-8.18-15.14-19.14-39.35-4.67-10.32-6.95-15.72-5.32-17.02,2.35-1.86,11.55,5.8,19.14,12.76,10.99,11.34,21.98,22.69,32.97,34.03Z"/>
      <path class="cls-29" d="M398.23,1124.1c4.12,7.9,10.28,18.42,19.14,29.78,7.28,9.33,27.49,33.47,61.69,52.11,40.81,22.25,79.47,24.62,98.91,24.46,19.37-3.52,39.59-6.75,60.62-9.57,15.63-2.1,30.89-3.85,45.73-5.32,6.69,3.45,15.97,9.35,24.46,19.14,17.25,19.9,19.72,42.55,20.21,51.05-.35,6.74-.71,13.47-1.06,20.21-3.92,3.74-8.85,7.83-14.89,11.7-11.18,7.16-21.87,10.81-29.78,12.76h119.12c3.24-1.46,9.54-4.83,14.89-11.7,4.89-6.27,6.71-12.53,7.44-15.95-1.35-17.19-5.26-40.07-15.95-64.88-23.55-54.62-65.13-84.05-84.02-95.72-26.58-10.05-48.57-13-63.81-13.83-20.36-1.1-31.36,1.45-62.75,2.13-22.64,.49-41.13-.31-53.18-1.06-8.16-1.98-23.98-6.98-39.35-20.21-15.01-12.91-22.29-27.38-25.52-35.1-27.3,16.66-54.59,33.32-81.89,49.99Z"/>
      <path class="cls-27" d="M616.25,936.91c-1.63,3.78-9.39,1.56-23.4,4.25-14.49,2.78-25.61,8.88-32.97,13.83-3.09,5.45-6.62,11.15-10.64,17.02-6.75,9.85-13.66,18.33-20.21,25.52-2.52,7.98-5.01,16.13-7.44,24.46-2.64,9.01-5.11,17.87-7.44,26.59-.46,6.41-.56,13.55,0,21.27,1.44,19.78,6.66,36.06,11.7,47.86-15.24-14.54-30.49-29.07-45.73-43.61-2.88-8.28-5.56-17.89-7.44-28.72-3.89-22.34-3.01-41.82-1.06-56.37,2.91-9.94,8.4-24,19.14-38.29,18.87-25.09,42.85-36.08,54.24-40.41,6.54-2.42,20.89-6.66,37.22-2.13,19.94,5.53,36.75,22.43,34.03,28.72Z"/>
      <path class="cls-27" d="M739.62,719.95c6.47,1.84,13.21,3.62,20.21,5.32,6.56,1.59,12.94,3,19.14,4.25,1.78,5.07,3.88,10.42,6.38,15.95,5.02,11.12,10.58,20.68,15.95,28.72,2.73,7.72,5.57,15.52,8.51,23.4,4.2,11.25,8.46,22.24,12.76,32.97-3.02,6.75-6,14.57-8.51,23.4-4.12,14.48-5.8,27.58-6.38,38.29-1.06,3.9-2.13,7.8-3.19,11.7-8.08-7.01-19.15-16-32.97-25.52-8.6-5.93-31.14-20.93-68.07-37.22-42.28-18.66-67.6-29.83-103.16-31.91-28.26-1.65-51.64,3.12-67,7.44,28.55,2.91,62.8,9.23,99.97,22.33,25.35,8.94,51.32,18.09,80.83,38.29,30.84,21.11,44.85,40.11,81.89,60.62,9.92,5.49,28.14,14.77,51.05,12.76,6.8-.6,12.31-2.04,15.95-3.19,10.13-10.63,21.11-24.32,30.84-41.48,27.51-48.5,28.9-96.3,27.65-121.24-1.38-12.72-5.86-37.66-23.4-62.75-12.35-17.67-26.51-28.75-36.16-35.1-14.97-5.29-36.48-10.98-62.75-11.7-37.92-1.04-67.82,8.75-85.08,15.95,8.51,9.57,17.02,19.14,25.52,28.72Z"/>
      <path class="cls-29" d="M748.13,883.74c-40.88-27.2-91.05-59.81-159.53-67-23.14-2.43-42.45-1.34-55.3,0-21.04,10.28-46.91,25.48-73.38,47.86-38.58,32.62-62.96,67.41-77.64,92.53-3.17,16.57-5.5,36.29-5.32,58.49,.38,45.98,11.38,83.37,21.27,108.48,27.3-16.66,54.59-33.32,81.89-49.99-3.37-9.82-6.64-21.99-8.51-36.16-2.57-19.42-1.67-36.23,0-48.92,4.2-10.48,11.06-24.23,22.33-38.29,16.84-21,35.75-32.98,47.86-39.35,4.31-1.22,10.13-2.34,17.02-2.13,14.26,.44,24.78,6.3,29.78,9.57,24.33,15.59,49.14,31.2,74.45,46.8,34.07,21,67.77,41.19,101.04,60.62,8.6,2.71,23.74,6.27,42.54,4.25,5.41-.58,10.42-1.55,15.04-2.75-7.98-34.79-15.83-69.58-21.69-104.86-20.09-17.12-38.09-30.01-51.85-39.16Z"/>
      <path class="cls-23" d="M961.9,785.89c-18.43,.71-36.87,1.42-55.3,2.13-.98,16.66-3.61,36.59-9.57,58.49-10.42,38.27-26.97,67.55-40.41,87.21-4.35,1.85-11.8,4.34-21.27,4.25-12.79-.12-22.24-4.88-26.59-7.44-2.96-2.63-5.89-5.18-8.77-7.63,5.85,35.28,13.71,70.07,21.69,104.86,12.99-3.37,22.75-8.57,28.56-12.14,9.46-6.61,21.98-16.35,35.1-29.78,31.77-32.54,46.19-65.51,53.18-81.89,20.05-47.02,23.58-90.1,23.4-118.05Z"/>
      <path class="cls-23" d="M543.93,725.27c2.11-11.38,5.83-26.96,12.76-44.67,4.76-12.15,9.66-24.21,19.14-38.29,7.97-11.82,23.96-31.86,51.05-45.73,12.16-6.23,23.61-9.7,32.97-11.7,13.83-3.4,31.93-6.43,53.18-6.38,16.43,.04,30.81,1.92,42.54,4.25,24.64,6.71,51.9,15.65,80.83,27.65,21.44,8.9,40.94,18.3,58.49,27.65,12.99,15.18,29.03,37.06,42.54,65.94,14.95,31.94,21.45,60.97,24.46,81.89-18.43,.71-36.87,1.42-55.3,2.13-3.63-13.53-10.15-31.77-22.33-51.05-8.51-13.46-17.61-23.99-25.52-31.91-13.07-4.07-29.99-8.05-49.99-9.57-23.53-1.79-43.59,.41-58.49,3.19-1.25,4.3-3.22,9.46-6.38,14.89-6.76,11.6-15.62,18.6-21.27,22.33-31.2,4.61-62.39,9.22-93.59,13.83-28.36-8.15-56.72-16.31-85.08-24.46Z"/>
      <path class="cls-18" d="M703.46,1043.27c1.22,8.71,2.63,17.58,4.25,26.59,7.38,41,17.88,78.3,29.78,111.67,1.62,4.96,6.69,18.19,20.21,27.65,17.21,12.05,35.84,9.4,41.48,8.51,4.75-.75,19.86-3.74,40.41-23.4,32.51-31.09,43.79-70.55,52.11-101.04,5.46-19.98,8.15-36.79,9.57-47.86-65.94-.71-131.88-1.42-197.82-2.13Z"/>
      <path class="cls-22" d="M730.05,861.4c-.67-2.18-1.38-5.52-1.06-9.57,.54-6.9,3.74-11.74,5.32-13.83,3.31-3.22,8.21-7.27,14.89-10.64,10.34-5.21,19.91-6.23,25.52-6.38,1.99-2.62,6.42-7.68,13.83-10.64,3.55-1.41,13.49-5.37,22.33,0,6.89,4.18,9.01,11.54,9.57,13.83,2.27-.17,7.74-.24,12.76,3.19,8.54,5.84,8.51,16.8,8.51,19.14-.04,13.09-10.22,21.2-11.7,22.33,.62,5.81,.35,10.58,0,13.83-.75,6.91-1.47,13.58-6.38,19.14-1.31,1.49-3.65,4.07-7.44,5.32-5.72,1.88-11.35-.43-14.89-2.13-10.05-4.82-36.57-20.76-71.26-43.61Z"/>
      <path class="cls-20" d="M730.05,857.15c.2,5.07,.54,10.4,1.06,15.95,.57,5.98,1.29,11.66,2.13,17.02-.81,1.72-1.76,4.26-2.13,7.44-.23,2.06-.16,3.87,0,5.32,2.22,3.48,5.32,7.6,9.57,11.7,6.95,6.7,14.09,10.56,19.14,12.76,2.7,.42,4.92,.24,6.38,0,2.75-.44,4.72-1.35,6.38-2.13,2.24-1.05,4.02-2.22,5.32-3.19,1.62,13.48,2.78,28.06,3.19,43.61,.22,8.46,.21,16.62,0,24.46,3.86,1.49,9.33,3.04,15.95,3.19,14.82,.33,25.64-6.59,29.78-9.57-4.8-9.32-9.57-19.96-13.83-31.91-8.25-23.18-12.09-44.4-13.83-61.69,3.99-2.64,6.26-5.6,7.44-7.44,1.45-2.25,5.42-8.4,3.19-13.83-.2-.48-1.57-3.82-4.25-4.25-2.12-.34-4.2,1.26-5.32,2.13-1,.77-1.69,1.56-2.13,2.13-4.06-.46-8.33-1.14-12.76-2.13-20.07-4.46-35.74-13.3-46.8-21.27-1.67,1.68-3.52,3.79-5.32,6.38-1.3,1.87-2.35,3.67-3.19,5.32Z"/>
      <path class="cls-7" d="M780.04,969.88c2.03,1,4.81,2.64,7.44,5.32,7.59,7.72,8.37,18.3,9.57,18.08,.71-.13-.06-3.77,1.06-9.57,.61-3.13,1.4-7.01,4.25-10.64,1.85-2.35,3.81-3.63,6.38-5.32,3.3-2.16,6.33-3.46,8.51-4.25,1.64,3.8,3.41,7.71,5.32,11.7,1.76,3.68,3.54,7.23,5.32,10.64,1.28,2.07,3.31,4.82,6.38,7.44,2.3,1.97,4.55,3.33,6.38,4.25,5.43,2.88,11.83,5.85,19.14,8.51,6.51,2.37,12.61,4.07,18.08,5.32,3.25,2.28,7,5.39,10.64,9.57,7.88,9.07,11.24,18.6,12.76,24.46-4.76,.8-12.23,2.67-20.21,7.44-7.13,4.26-11.95,9.23-14.89,12.76-4.01,5.77-9.79,13.87-17.02,23.4-6.41,8.45-10.67,14.06-15.95,20.21-12.59,14.65-21.54,25.05-36.16,32.97-8.14,4.41-19.69,10.52-34.03,8.51-3.81-.53-12.29-1.84-19.14-8.51-4.65-4.53-6.85-9.87-8.51-15.95-5.45-19.96-3.57-41.98-2.13-53.18-1.12-3.83-3.45-9.94-8.51-15.95-7.73-9.18-17.18-12.61-21.27-13.83-.02-3.08,.33-7.62,2.13-12.76,2.37-6.77,6.13-11.35,8.51-13.83,2.43-2.08,6.34-4.88,11.7-6.38,3.54-.99,6.05-.95,8.51-1.06,4.25-.19,16.57-2.71,28.72-7.44,4.27-1.66,9.76-4.05,15.95-7.44,.57-5.33,.95-11.01,1.06-17.02,.05-2.54,.05-5.03,0-7.44Z"/>
      <path class="cls-20" d="M881.09,1111.09c0,.86-.01,1.98-.02,3.44,0,2.26,0,4.11,0,5.32-.84,2.29-1.88,4.8-3.19,7.44-1.39,2.81-2.85,5.29-4.25,7.44,.84,1.64,1.89,3.44,3.19,5.32,1.44,2.08,2.9,3.85,4.25,5.32v57.43c-4.48-12.54-10.89-26.78-20.21-41.48-3.15-4.97-6.36-9.57-9.57-13.83-3.36-.84-6.93-1.88-10.64-3.19-8.83-3.11-16.28-6.93-22.33-10.64-1.56-1.54-3.66-3.99-5.32-7.44-1.16-2.41-1.78-4.63-2.13-6.38-.61-3.27-1.08-7.22-1.06-11.7,.02-6.41,1.03-11.85,2.13-15.95,.35-1.42,.71-2.84,1.06-4.25,.07-.2,.62-1.62,2.13-2.13,.97-.33,1.81-.1,2.13,0,.55-.43,1.76-1.24,3.19-1.06,2.23,.28,4.25,2.88,4.25,6.38,1.06,6.38,2.13,12.76,3.19,19.14,1.4,1,2.82,2.07,4.25,3.19,2.28,1.79,4.41,3.57,6.38,5.32-1.22-2.38-2.62-4.88-4.25-7.44-.71-1.11-1.42-2.17-2.13-3.19-.27-2.02-.61-4.15-1.06-6.38-.62-3.07-1.35-5.91-2.13-8.51,0-.8,.08-2.74,1.06-3.19,1.15-.52,3.37,1.07,5.32,4.25,.71,2.13,1.42,4.25,2.13,6.38s1.42,4.25,2.13,6.38c2.65,2.1,5.49,4.24,8.51,6.38,3.28,2.33,6.48,4.45,9.57,6.38h3.19c1.51-.64,3.4-1.63,5.32-3.19,3.66-2.98,5.5-6.47,6.38-8.51v-7.44c.09-.41,.75-3.25,3.19-4.25,.53-.22,2.01-.83,3.19,0,.9,.63,1.31,1.89,1.06,3.19-.28,1.4-.16,2.46,0,3.19,.29,1.3,1.09,7.54,1.08,8.26Z"/>
      <path class="cls-22" d="M814.07,906.07c1.3,4.23,4.51,13.1,7.44,21.27,7.14,19.86,14.73,40.57,29.78,62.75,2.92,4.31,7.51,10.71,13.83,18.08-5.87-1.84-12.8-4.52-20.21-8.51-5.83-3.14-10.79-6.46-14.89-9.57-2.87-5.13-6.69-12.35-10.64-21.27-9.15-20.69-13.02-36.95-13.83-40.41-1.48-6.38-3.17-15.05-4.25-25.52,4.61,1.77,8.15,1.42,12.76,3.19Z"/>
      <path class="cls-18" d="M857.67,1157.07v98.91c.22,4.48,.57,11.1,1.06,19.14,.55,9.01,.82,13.51,1.06,15.95,1.33,13.49,5.77,33.08,9.57,32.97,3.5-.1,5.92-16.49,7.44-30.84,.37-5.65,.73-11.32,1.06-17.02,1.46-24.84,2.51-49.3,3.19-73.38-2.34-7.45-5.71-16.18-10.64-25.52-4.19-7.94-8.63-14.67-12.76-20.21Z"/>
      <path class="cls-15" d="M759.83,905.01c-4.64-3.03-9.98-2.8-12.76,0-1.76,1.77-2.07,4.14-2.13,5.32,1.74,.06,4.4-.06,7.44-1.06,3.57-1.17,6.05-3.03,7.44-4.25Z"/>
      <path class="cls-21" d="M756.18,1012.71c.52-8.21,1.04-16.45,1.52-24.75,1.22-20.79,1.21-40.29,2.13-60.62-1.77-.35-4.25-2.13-4.25-2.13-.25,3.29-.61,8.07-1.06,13.83-.31,3.86-2.46,31.12-4.25,48.92-.65,6.47-1.51,14.26-2.67,23.3,2.7,1.41,5.63,1.74,8.59,1.45Z"/>
      <path class="cls-25" d="M747.59,1011.26c-1.44,11.24-3.33,24.41-5.84,39.45,.47,.58,2.23,2.58,5.32,3.19,3.26,.64,5.76-.71,6.38-1.06,.96-13.27,1.87-26.65,2.73-40.13-2.97,.29-5.89-.03-8.59-1.45Z"/>
      <path class="cls-21" d="M813.05,1012c-.43-8.22-.87-16.46-1.34-24.76-1.19-20.79-6.84-80.01-8.27-100.31,0,0-2.13,2.13-4.25,3.19,.14,3.3,3.5,43.12,3.71,48.89,.14,3.86,1.14,31.2,1.42,49.09,.1,6.5,.14,14.34,.04,23.45,2.85,1.09,5.79,1.08,8.7,.45Z"/>
      <path class="cls-25" d="M804.35,1011.55c-.13,11.33-.49,24.63-1.25,39.86,.54,.52,2.52,2.31,5.65,2.56,3.31,.26,5.64-1.37,6.22-1.79-.57-13.29-1.21-26.69-1.91-40.18-2.91,.63-5.86,.64-8.7-.45Z"/>
      <path class="cls-18" d="M676.87,1136.86c3.57,2.46,7.59,5.6,11.7,9.57,5.03,4.87,8.85,9.69,11.7,13.83v70.19c.09,4.52,.15,11.13,0,19.14-.19,10.26-.3,15.97-1.06,22.33-1.3,10.84-5.15,28.81-8.51,28.72-3.28-.09-5.71-17.45-8.51-53.18-2.12-27.15-4.45-64.75-5.32-110.61Z"/>
      <path class="cls-20" d="M700.27,1160.26c-2.64-3.82-6.12-8.25-10.64-12.76-3.29-3.29-7.51-7.01-12.76-10.64-1.77-1.42-3.55-2.84-5.32-4.25-4.52,.26-9.51,.3-14.89,0-8.46-.48-15.97-1.72-22.33-3.19-2.84-3.19-5.67-6.38-8.51-9.57-2.84-1.06-5.67-2.13-8.51-3.19-3.14-2.13-6.34-4.25-9.57-6.38-5.01-3.29-9.97-6.48-14.89-9.57-.24-.64-.69-2.12,0-3.19,1-1.55,4.21-1.98,7.44,0-.38-1.19,.06-2.49,1.06-3.19,.95-.66,2.22-.66,3.19,0,2.63,.84,5.49,1.88,8.51,3.19,3.17,1.38,6.01,2.83,8.51,4.25-.35-3.9-.71-7.8-1.06-11.7-.11-1.45,.26-2.81,1.06-3.19,1.06-.49,3.15,.56,4.25,3.19,.35,1.42,.71,2.84,1.06,4.25,1.06,3.19,2.13,6.38,3.19,9.57v-9.57c.99-2.02,1.88-2.12,2.13-2.13,1.54-.03,2.83,3.12,3.19,5.32,.22,1.32,.12,2.45,0,3.19l6.38,3.19,6.38,3.19c3.19,.35,6.38,.71,9.57,1.06,1.93,.24,4.56,.8,7.44,2.13,4.22,1.95,6.99,4.64,8.51,6.38,8.51,4.61,17.02,9.22,25.52,13.83,.35,9.93,.71,19.85,1.06,29.78Z"/>
      <path class="cls-23" d="M742.81,729.53c-7.04,2.03-13.78,4.17-20.21,6.38,2.11-3.36,4.31-7.26,6.38-11.7,2.33-4.99,4.04-9.67,5.32-13.83-2.73,2.4-5.92,4.94-9.57,7.44-4.54,3.11-8.88,5.54-12.76,7.44-28.01,4.25-56.01,8.51-84.02,12.76-28.01-4.25-56.01-8.51-84.02-12.76-3.89-1.9-8.23-4.33-12.76-7.44-3.65-2.51-6.84-5.04-9.57-7.44,1.28,4.16,2.99,8.84,5.32,13.83,2.07,4.44,4.27,8.34,6.38,11.7-6.43-2.21-13.17-4.35-20.21-6.38-12.29-3.54-24.04-6.32-35.1-8.51,5.64,4.56,11.67,9.19,18.08,13.83,4.69,3.39,9.3,6.57,13.83,9.57,3.28,6.23,8.03,13.73,14.89,21.27,12.9,14.16,27.07,21.66,36.16,25.52,4.67,5.85,9.49,12.91,13.83,21.27,12.97,25,15.01,48.95,14.89,63.81-3.41,1.81-8.13,4.8-12.76,9.57-4.13,4.25-6.81,8.49-8.51,11.7,.61,4.21,2.26,11.61,7.44,19.14,7.69,11.18,18.29,15.57,22.33,17.02,8.23,.64,16.74,1.01,25.52,1.06,1.43,0,2.84,0,4.25,0,1.41,0,2.83,0,4.25,0,8.78-.05,17.3-.43,25.52-1.06,4.04-1.44,14.64-5.84,22.33-17.02,5.18-7.53,6.84-14.94,7.44-19.14-1.7-3.21-4.38-7.45-8.51-11.7-4.63-4.77-9.35-7.76-12.76-9.57-.12-14.87,1.92-38.81,14.89-63.81,4.34-8.36,9.16-15.42,13.83-21.27,9.09-3.87,23.26-11.36,36.16-25.52,6.86-7.54,11.61-15.04,14.89-21.27,4.52-3,9.14-6.18,13.83-9.57,6.41-4.63,12.44-9.26,18.08-13.83-11.06,2.18-22.81,4.96-35.1,8.51Z"/>
      <path class="cls-23" d="M598.17,933.72c.6,1.81,2.02,5.3,5.32,8.51,3.68,3.58,7.71,4.85,9.57,5.32h29.78c2.19-1.25,4.79-2.97,7.44-5.32,3.39-3,5.79-6.05,7.44-8.51h-59.56Z"/>
      <path class="cls-13" d="M652.41,771c10.64-4.96,21.27-9.93,31.91-14.89-2.14,3.71-5.21,8.22-9.57,12.76-2.95,3.07-5.88,5.52-8.51,7.44h-10.64c-1.06-1.77-2.13-3.55-3.19-5.32Z"/>
      <path class="cls-13" d="M640.71,919.9c-1.03-.71-.68-3.02,0-7.44,.49-3.2,1.4-5.75,2.13-7.44,.99-1.86,2.36-4.08,4.25-6.38,1.85-2.25,3.72-4,5.32-5.32,1.76-.48,3.91-.9,6.38-1.06,1.55-.1,2.98-.08,4.25,0-.48,2.43-1.38,5.82-3.19,9.57-5.55,11.5-16.56,19.86-19.14,18.08Z"/>
      <path class="cls-30" d="M676.87,715.7c-3.42,3.25-7.06,7.13-10.64,11.7-7.2,9.19-11.85,18.2-14.89,25.52-.42,1.16-.82,2.59-1.06,4.25-.37,2.56-.24,4.76,0,6.38,3.86-2.04,7.77-4.17,11.7-6.38,11.74-6.6,22.73-13.39,32.97-20.21,7.82-6.7,16.09-14.46,24.46-23.4,12.15-12.98,21.94-25.7,29.78-37.22h-5.32c-11.09,9.22-22.47,19.13-34.03,29.78-10.94,10.07-21.21,20.03-30.84,29.78,1.11-3.37,2.18-6.91,3.19-10.64,.79-2.91,1.5-5.75,2.13-8.51-2.48-.35-4.96-.71-7.44-1.06Z"/>
      <path class="cls-13" d="M603.9,769.94c-10.64-4.96-21.27-9.93-31.91-14.89,2.14,3.71,5.21,8.22,9.57,12.76,2.95,3.07,5.88,5.52,8.51,7.44h10.64c1.06-1.77,2.13-3.55,3.19-5.32Z"/>
      <path class="cls-13" d="M615.6,918.83c1.03-.71,.68-3.02,0-7.44-.49-3.2-1.4-5.75-2.13-7.44-.99-1.86-2.36-4.08-4.25-6.38-1.85-2.25-3.72-4-5.32-5.32-1.76-.48-3.91-.9-6.38-1.06-1.55-.1-2.98-.08-4.25,0,.48,2.43,1.38,5.82,3.19,9.57,5.55,11.5,16.56,19.86,19.14,18.08Z"/>
      <path class="cls-30" d="M579.44,714.64c3.42,3.25,7.06,7.13,10.64,11.7,7.2,9.19,11.85,18.2,14.89,25.52,.42,1.16,.82,2.59,1.06,4.25,.37,2.56,.24,4.76,0,6.38-3.86-2.04-7.77-4.17-11.7-6.38-11.74-6.6-22.73-13.39-32.97-20.21-7.82-6.7-16.09-14.46-24.46-23.4-12.15-12.98-21.94-25.7-29.78-37.22h5.32c11.09,9.22,22.47,19.13,34.03,29.78,10.94,10.07,21.21,20.03,30.84,29.78-1.11-3.37-2.18-6.91-3.19-10.64-.79-2.91-1.5-5.75-2.13-8.51,2.48-.35,4.96-.71,7.44-1.06Z"/>
      <path class="cls-30" d="M603.49,696.56c1.91-8.65,4.9-20.41,9.57-34.03,4.88-14.22,9.58-27.93,19.14-43.61,5.51-9.03,14.25-21.34,27.65-34.03,11.07-2.42,23.93-4.45,38.29-5.32,22.42-1.35,41.95,.52,57.43,3.19,2.48-3.66,4.98-7.55,7.44-11.7,1.5-2.52,2.92-5.01,4.25-7.44,.27-.37,1.84-2.56,1.06-4.25-.71-1.54-2.97-1.83-5.32-2.13-1.8-.23-3.3-.12-4.25,0-8.22,.16-18.85,1.13-30.84,4.25-11.32,2.95-20.62,6.98-27.65,10.64,2.54-4.44,5.37-9.07,8.51-13.83,3.57-5.4,7.14-10.36,10.64-14.89,1.69-1.45,2.39-2.51,2.13-3.19-.47-1.21-4.02-1.21-10.64,0-6.53,2.25-14.77,5.85-23.4,11.7-13.26,8.98-21.69,19.39-26.59,26.59,.83-6.83,1.55-13.93,2.13-21.27,.46-5.82,.81-11.49,1.06-17.02,.29-.87,1.02-3.39,0-4.25-1.11-.94-4.14,.22-7.44,3.19-5.84,7.84-12.4,18.1-18.08,30.84-7.89,17.69-11.26,33.82-12.76,45.73-2.27-8.03-4.43-16.55-6.38-25.52-2.86-13.14-4.92-25.6-6.38-37.22-.55-1.97-1.26-3.04-2.13-3.19-1.79-.32-4.28,3.23-7.44,10.64-.64,10.53-1.02,21.53-1.06,32.97-.08,22.54,1.16,43.53,3.19,62.75-2.37-1.9-5.66-5-8.51-9.57-2.25-3.61-3.51-7-4.25-9.57-.71-2.13-1.42-3.19-2.13-3.19-1.07,0-2.14,2.49-3.19,7.44,.83,7.93,2.39,17.32,5.32,27.65,3.1,10.93,6.96,20.2,10.64,27.65Z"/>
      <ellipse class="cls-23" cx="913.51" cy="788.02" rx="6.91" ry="8.51"/>
      <ellipse class="cls-23" cx="927.34" cy="788.02" rx="6.91" ry="8.51"/>
      <ellipse class="cls-23" cx="941.16" cy="788.02" rx="6.91" ry="8.51"/>
      <ellipse class="cls-23" cx="954.99" cy="788.02" rx="6.91" ry="8.51"/>
      <path class="cls-30" d="M584.34,801.85c-2.94-1.18-6.5-2.36-10.64-3.19-6.26-1.26-11.75-1.34-15.95-1.06-3.42,2.23-13.12,7.92-26.59,7.44-2.48-.09-15.78-.76-27.65-10.64-17.34-14.42-17.1-36.37-17.02-39.35-.56-2.33-2.62-9.6-9.57-14.89-10.1-7.68-21.93-4.66-23.4-4.25-1.57,.96-2.41,2.69-2.13,4.25,.38,2.09,1.67,2.65,4.25,2.13,2.98,.19,9.83,.96,13.83,4.25,4.44,3.67,8.51,10.64,8.51,10.64,1.06,27.65,8.55,42.58,17.02,51.05,11.55,11.54,29.98,10.89,37.22,10.64,12.7-.45,22.4-4.67,27.65-7.44,3.79-.29,8.97-.26,14.89,1.06,1.87,.42,3.61,.92,5.19,1.46,3.76,1.28,7.75-1.62,7.58-5.59,0-.04,0-.09,0-.13-.22-3.75-2.73-5.98-3.19-6.38Z"/>
      <path class="cls-30" d="M666.19,801.85c2.94-1.18,6.5-2.36,10.64-3.19,6.26-1.26,11.75-1.34,15.95-1.06,3.42,2.23,13.12,7.92,26.59,7.44,2.48-.09,15.78-.76,27.65-10.64,17.34-14.42,17.1-36.37,17.02-39.35,.56-2.33,2.62-9.6,9.57-14.89,10.1-7.68,21.93-4.66,23.4-4.25,1.57,.96,2.41,2.69,2.13,4.25-.38,2.09-1.67,2.65-4.25,2.13-2.98,.19-9.83,.96-13.83,4.25-4.44,3.67-8.51,10.64-8.51,10.64-1.06,27.65-8.55,42.58-17.02,51.05-11.55,11.54-29.98,10.89-37.22,10.64-12.7-.45-22.4-4.67-27.65-7.44-3.79-.29-8.97-.26-14.89,1.06-1.87,.42-3.61,.92-5.19,1.46-3.76,1.28-7.75-1.62-7.58-5.59,0-.04,0-.09,0-.13,.22-3.75,2.73-5.98,3.19-6.38Z"/>
      <path class="cls-25" d="M315.04,799.15h-.04c-.46,.15-.93,.29-1.39,.42-.75,.21-1.54-.22-1.75-.98-.21-.75,.18-1.52,.98-1.75,.45-.13,.9-.26,1.35-.4,.75-.22,1.54,.2,1.76,.95,.22,.74-.19,1.51-.91,1.75Zm13.42-4.84c-.69,.23-1.46-.11-1.75-.79-.3-.72,.03-1.55,.75-1.86,.43-.18,.87-.37,1.3-.56,.71-.31,1.55,.02,1.86,.73,.31,.72-.01,1.55-.73,1.86-.44,.19-.88,.38-1.33,.57-.03,.01-.07,.03-.1,.04Zm-28.7,8.42c-.07,.02-.14,.04-.21,.05-.48,.08-.95,.16-1.43,.24-.77,.12-1.5-.41-1.62-1.18-.12-.77,.4-1.5,1.18-1.62,.46-.07,.93-.15,1.39-.23,.77-.13,1.5,.38,1.63,1.16,.12,.7-.29,1.37-.95,1.58Zm42.74-15.43c-.62,.21-1.33-.04-1.67-.63-.39-.68-.16-1.54,.52-1.94l1.22-.72c.67-.4,1.54-.18,1.94,.5,.4,.67,.18,1.54-.5,1.94l-1.24,.73c-.09,.05-.17,.09-.27,.12Zm-58.35,17.1c-.12,.04-.25,.07-.39,.07l-1.44,.06c-.78,.03-1.44-.58-1.46-1.37-.03-.78,.57-1.44,1.37-1.46l1.41-.06c.78-.04,1.44,.57,1.48,1.35,.03,.65-.38,1.21-.97,1.41Zm71.42-25.79c-.56,.19-1.2,0-1.57-.49-.47-.62-.35-1.51,.27-1.98,.38-.29,.75-.57,1.12-.86,.62-.47,1.51-.37,1.99,.25,.48,.62,.37,1.51-.25,1.99-.38,.29-.76,.59-1.14,.88-.13,.1-.27,.17-.41,.22Zm-87.12,25.52c-.18,.06-.37,.08-.56,.07-.48-.04-.96-.08-1.44-.12-.78-.07-1.35-.76-1.28-1.54,.07-.78,.75-1.35,1.54-1.28,.47,.04,.94,.08,1.41,.12,.78,.06,1.36,.75,1.3,1.53-.05,.58-.44,1.06-.97,1.23Zm99.01-35.76c-.5,.17-1.07,.05-1.46-.35-.55-.56-.54-1.46,.02-2l1-.99c.56-.56,1.45-.55,2,0,.55,.55,.55,1.45,0,2l-1.02,1.01c-.16,.15-.34,.26-.54,.33Zm-114.56,33.55c-.23,.08-.48,.09-.73,.04-.47-.1-.95-.2-1.42-.3-.76-.17-1.25-.92-1.08-1.69,.17-.76,.92-1.25,1.69-1.08,.46,.1,.92,.2,1.38,.29,.77,.16,1.26,.91,1.1,1.67-.1,.51-.48,.9-.94,1.06Zm125.1-45.17c-.44,.15-.94,.07-1.33-.24-.61-.49-.71-1.38-.22-1.99,.29-.37,.58-.74,.87-1.11,.48-.62,1.37-.72,1.99-.24,.62,.48,.73,1.37,.24,1.99-.3,.38-.59,.75-.89,1.13-.18,.22-.41,.38-.66,.46Zm-140.25,41.06c-.28,.09-.6,.1-.9,0-.46-.16-.91-.31-1.37-.47-.74-.26-1.12-1.07-.86-1.81,.26-.74,1.07-1.12,1.81-.86,.44,.16,.89,.31,1.33,.46,.74,.25,1.14,1.06,.89,1.8-.15,.44-.49,.75-.9,.89Zm149.28-53.89c-.38,.13-.82,.09-1.19-.14-.67-.41-.87-1.28-.47-1.95,.25-.4,.49-.8,.73-1.21,.4-.67,1.27-.89,1.94-.49,.67,.4,.89,1.27,.49,1.94-.25,.41-.5,.82-.75,1.23-.18,.3-.45,.5-.76,.6Zm-163.82,47.96c-.34,.11-.72,.1-1.06-.07-.43-.21-.87-.42-1.3-.63-.7-.35-.99-1.2-.64-1.9,.35-.7,1.2-.99,1.9-.64,.42,.21,.84,.41,1.27,.62,.7,.34,1,1.19,.66,1.89-.17,.36-.48,.61-.83,.73Zm171.21-61.8c-.33,.11-.7,.1-1.04-.06-.71-.33-1.02-1.17-.7-1.88,.2-.43,.39-.86,.58-1.29,.32-.72,1.16-1.03,1.87-.72,.71,.32,1.03,1.16,.72,1.87-.2,.44-.39,.88-.59,1.31-.17,.37-.48,.64-.84,.75Zm-184.91,54.14c-.39,.13-.84,.09-1.21-.15-.41-.26-.81-.52-1.21-.79-.65-.43-.83-1.31-.4-1.96,.43-.65,1.31-.83,1.96-.4,.39,.26,.79,.52,1.18,.77,.66,.42,.85,1.3,.43,1.96-.18,.28-.45,.48-.74,.58Zm190.56-68.78c-.27,.09-.58,.1-.87,0-.75-.24-1.16-1.03-.92-1.78,.14-.45,.28-.9,.42-1.35,.23-.75,1.02-1.17,1.77-.94,.75,.23,1.17,1.02,.94,1.77-.14,.46-.28,.92-.43,1.38-.14,.45-.49,.78-.9,.92Zm-203.22,59.51c-.45,.15-.96,.07-1.35-.26l-1.1-.92c-.6-.51-.67-1.4-.16-2,.51-.6,1.4-.67,2-.16l1.08,.91c.6,.5,.68,1.39,.18,1.99-.18,.21-.4,.36-.64,.44Zm207.04-74.74c-.22,.07-.46,.09-.71,.05-.77-.14-1.27-.88-1.13-1.65,.09-.46,.17-.92,.25-1.39,.13-.77,.86-1.29,1.64-1.15,.77,.13,1.29,.86,1.15,1.64-.08,.48-.17,.95-.26,1.43-.1,.52-.47,.93-.95,1.08Zm-218.45,63.98c-.51,.17-1.09,.04-1.48-.37-.33-.35-.66-.7-.98-1.06-.53-.58-.49-1.47,.09-2,.58-.53,1.47-.49,2,.09,.32,.35,.63,.69,.95,1.03,.54,.57,.51,1.47-.06,2-.15,.15-.33,.25-.52,.31Zm220.37-79.57c-.17,.06-.34,.08-.53,.07-.78-.04-1.38-.72-1.33-1.5l.08-1.42c.04-.78,.7-1.38,1.49-1.34,.78,.04,1.38,.7,1.34,1.49l-.08,1.44c-.04,.6-.43,1.08-.97,1.26Zm-230.37,67.48c-.57,.19-1.22,0-1.59-.51-.28-.39-.56-.78-.84-1.17-.45-.64-.3-1.52,.33-1.97,.64-.45,1.52-.3,1.97,.33,.27,.38,.55,.77,.82,1.15,.46,.63,.32,1.52-.31,1.98-.12,.09-.25,.16-.39,.2Zm230.35-83.19c-.11,.04-.23,.06-.35,.07-.78,.05-1.46-.54-1.51-1.32l-.1-1.42c-.06-.78,.52-1.46,1.31-1.52,.78-.06,1.46,.53,1.52,1.31l.1,1.43c.05,.66-.37,1.24-.96,1.44Zm-238.78,69.96c-.63,.21-1.35-.05-1.68-.66-.23-.42-.46-.84-.69-1.27-.37-.69-.11-1.55,.57-1.92,.7-.37,1.55-.11,1.92,.57,.22,.42,.45,.83,.68,1.24,.38,.68,.13,1.55-.55,1.92-.08,.04-.16,.08-.24,.11Zm236.81-85.53c-.06,.02-.12,.04-.19,.05-.77,.14-1.51-.36-1.65-1.13-.09-.46-.18-.92-.27-1.39-.16-.76,.32-1.5,1.11-1.67,.77-.15,1.51,.34,1.67,1.11,.1,.47,.19,.95,.28,1.42,.13,.71-.28,1.39-.94,1.61Zm-243.55,71.35c-.7,.23-1.48-.12-1.76-.82-.18-.45-.36-.89-.53-1.34-.28-.73,.08-1.55,.81-1.83,.72-.29,1.55,.08,1.83,.81,.17,.44,.35,.88,.52,1.31,.29,.73-.06,1.55-.79,1.84-.03,.01-.05,.02-.08,.03Zm239.68-86.56h-.02c-.74,.24-1.54-.17-1.78-.91-.14-.45-.29-.9-.44-1.34l-.08-.25c-.25-.74,.15-1.54,.9-1.79s1.54,.16,1.79,.9l.08,.25c.15,.46,.3,.91,.45,1.37,.24,.74-.17,1.53-.9,1.77Zm-244.64,71.67s-.05,.02-.08,.02c-.76,.2-1.53-.25-1.73-1-.12-.46-.25-.93-.37-1.4-.19-.76,.26-1.53,1.02-1.72,.76-.19,1.53,.26,1.72,1.02,.12,.46,.24,.91,.36,1.37,.2,.73-.21,1.47-.92,1.71Zm238.85-86.54c-.68,.22-1.43-.09-1.73-.75-.2-.43-.4-.85-.6-1.27-.34-.71-.04-1.55,.67-1.89,.71-.34,1.55-.04,1.89,.67,.21,.43,.41,.87,.62,1.31,.33,.71,.02,1.55-.69,1.88-.05,.02-.1,.04-.15,.06Zm-241.97,71.16c-.08,.03-.17,.05-.25,.06-.77,.11-1.49-.43-1.6-1.21-.07-.48-.13-.95-.19-1.43-.1-.78,.44-1.49,1.22-1.59,.78-.1,1.49,.45,1.59,1.22,.06,.47,.12,.93,.19,1.4,.1,.69-.32,1.33-.95,1.54Zm234.51-84.97c-.6,.2-1.29-.03-1.64-.59l-.76-1.2c-.42-.66-.23-1.53,.43-1.96,.66-.42,1.54-.23,1.96,.43l.77,1.21c.42,.66,.22,1.54-.45,1.95-.1,.06-.2,.11-.31,.15Zm-235.71,69.31c-.14,.04-.28,.07-.43,.07-.78,.01-1.42-.61-1.44-1.4,0-.48-.01-.97-.01-1.45,0-.78,.63-1.42,1.41-1.42,.78,0,1.42,.63,1.42,1.41,0,.47,0,.95,.01,1.42,0,.63-.4,1.17-.97,1.36Zm226.6-82.09c-.54,.18-1.16,.02-1.55-.45l-.9-1.09c-.5-.6-.42-1.49,.19-1.99,.6-.5,1.49-.42,1.99,.19l.92,1.11c.49,.61,.4,1.5-.2,1.99-.14,.11-.29,.19-.45,.25Zm-225.85,66.4c-.19,.06-.39,.09-.6,.06-.78-.09-1.34-.78-1.25-1.56,.05-.48,.11-.96,.17-1.44,.09-.78,.8-1.33,1.58-1.24,.78,.09,1.33,.8,1.24,1.58-.06,.47-.11,.94-.16,1.41-.06,.57-.45,1.02-.96,1.19Zm215.23-77.96c-.48,.16-1.04,.05-1.43-.32-.34-.33-.68-.65-1.02-.97-.57-.54-.6-1.43-.06-2,.54-.57,1.43-.6,2-.06,.35,.33,.7,.66,1.04,.99,.56,.54,.58,1.44,.04,2-.17,.17-.36,.29-.57,.36Zm-212.55,62.49c-.24,.08-.51,.1-.77,.03-.76-.18-1.23-.94-1.05-1.7,.11-.47,.22-.94,.34-1.41,.19-.76,.96-1.22,1.72-1.03,.76,.19,1.22,.96,1.03,1.72-.11,.46-.23,.91-.33,1.37-.12,.5-.48,.87-.93,1.02Zm200.59-72.64c-.43,.14-.91,.08-1.3-.21-.38-.28-.75-.56-1.13-.84-.63-.46-.77-1.35-.31-1.98,.46-.63,1.35-.77,1.98-.31,.39,.28,.77,.57,1.16,.86,.63,.47,.75,1.36,.28,1.98-.18,.24-.42,.41-.69,.49Zm-196.02,57.62c-.3,.1-.63,.1-.94-.02-.73-.27-1.11-1.09-.83-1.82l.51-1.35c.28-.73,1.1-1.1,1.83-.82,.73,.28,1.1,1.1,.82,1.83l-.5,1.32c-.16,.42-.49,.72-.88,.85Zm182.91-66.23c-.37,.12-.79,.09-1.15-.11-.41-.23-.82-.46-1.23-.69-.68-.38-.93-1.24-.55-1.93,.38-.68,1.24-.93,1.93-.55,.42,.23,.84,.47,1.26,.71,.68,.39,.92,1.25,.53,1.93-.18,.32-.46,.54-.78,.64Zm-176.54,51.88c-.35,.12-.75,.1-1.1-.09-.7-.36-.96-1.22-.61-1.91,.22-.43,.45-.85,.67-1.28,.37-.69,1.22-.95,1.92-.58,.69,.37,.95,1.23,.58,1.92-.22,.42-.44,.83-.66,1.25-.18,.34-.47,.58-.81,.69Zm162.47-58.83c-.31,.1-.67,.1-1-.04-.43-.18-.87-.36-1.3-.54-.72-.29-1.07-1.12-.78-1.84,.29-.73,1.12-1.07,1.85-.78,.45,.18,.89,.37,1.34,.55,.72,.3,1.06,1.13,.75,1.85-.16,.39-.49,.67-.86,.79Zm-154.4,45.37c-.41,.14-.87,.08-1.25-.18-.65-.44-.81-1.32-.37-1.97,.27-.4,.54-.79,.82-1.18,.45-.64,1.33-.8,1.97-.34,.64,.45,.79,1.33,.35,1.97-.27,.38-.54,.77-.81,1.16-.18,.26-.44,.45-.72,.54Zm139.58-50.55c-.26,.09-.54,.1-.83,.02l-1.37-.38c-.76-.2-1.2-.98-1-1.74,.2-.75,.98-1.2,1.74-1l1.39,.38c.75,.21,1.19,.99,.98,1.75-.13,.47-.49,.82-.92,.96Zm-129.92,38.18c-.46,.15-.99,.06-1.39-.28-.59-.52-.64-1.41-.12-2l.96-1.07c.52-.58,1.42-.63,2-.1,.58,.52,.63,1.42,.1,2l-.94,1.05c-.17,.19-.38,.33-.61,.4Zm114.58-41.5c-.21,.07-.43,.09-.66,.06-.47-.07-.93-.14-1.4-.21-.77-.11-1.31-.83-1.2-1.6,.11-.77,.82-1.31,1.6-1.2,.48,.07,.96,.14,1.43,.21,.77,.12,1.3,.84,1.19,1.61-.08,.54-.47,.97-.95,1.13Zm-103.49,30.42c-.52,.17-1.12,.03-1.51-.41-.52-.59-.46-1.48,.12-2,.36-.32,.72-.63,1.09-.95,.59-.51,1.49-.44,2,.15,.51,.59,.44,1.49-.15,2-.36,.31-.71,.61-1.06,.92-.15,.13-.31,.22-.49,.28Zm87.85-31.82c-.15,.05-.32,.08-.49,.07-.47-.01-.95-.02-1.42-.03-.78-.01-1.41-.66-1.39-1.44,.01-.78,.66-1.41,1.44-1.39,.48,0,.97,.02,1.45,.03,.78,.02,1.4,.67,1.38,1.45-.02,.61-.42,1.12-.97,1.31Zm-75.46,22.19c-.58,.19-1.25-.01-1.62-.55-.44-.65-.27-1.53,.37-1.97,.4-.27,.8-.54,1.2-.81,.65-.43,1.53-.26,1.97,.39,.43,.65,.26,1.53-.39,1.96-.39,.26-.78,.52-1.17,.79-.11,.08-.23,.13-.35,.18Zm59.77-21.65c-.1,.03-.2,.06-.31,.07-.47,.04-.94,.09-1.41,.14-.78,.08-1.48-.48-1.56-1.26-.08-.78,.48-1.47,1.26-1.56,.48-.05,.96-.1,1.44-.15,.78-.07,1.47,.5,1.55,1.27,.07,.67-.35,1.28-.96,1.48Zm-46.28,13.62c-.65,.22-1.38-.07-1.7-.7-.36-.7-.08-1.55,.61-1.91,.43-.22,.86-.44,1.29-.65,.71-.35,1.55-.07,1.9,.63,.35,.7,.06,1.55-.63,1.9-.42,.21-.84,.42-1.26,.64-.07,.03-.14,.06-.2,.09Zm30.78-11.15s-.09,.03-.14,.04c-.46,.1-.92,.21-1.38,.32-.76,.18-1.52-.29-1.7-1.05-.18-.76,.31-1.52,1.05-1.7,.47-.11,.94-.22,1.41-.32,.76-.17,1.52,.31,1.69,1.07,.16,.72-.25,1.43-.93,1.65Zm-16.42,4.84c-.72,.24-1.51-.14-1.77-.85-.27-.73,.1-1.55,.84-1.82,.45-.17,.9-.33,1.35-.49,.75-.2,1.55,.12,1.81,.86,.26,.74-.12,1.55-.86,1.81-.44,.16-.88,.32-1.32,.48-.01,0-.03,.01-.04,.02Z"/>
      <path class="cls-30" d="M2,1034c0-64,42.58-108.58,83-110.91,48.89-2.82,80.18,47.27,90.38,76.57,8.81,25.31,6.56,48.07,4.3,60.62,1.02-1.16,17.47-19.4,37.66-15.95,20.34,3.47,37.39,27.73,32.28,56.37,31.2-7.44,86.08,32.97,40.89,106.35,2.3-1.87,12.59-9.81,26.9-8.51,13.56,1.23,25.52,10.28,31.2,23.4-12.25-29.55,4.21-59.31,24.75-64.88,20.88-5.66,50.95,12.33,54.87,44.67,4.17-1.92,43.42-19.19,82.85,2.13,29.02,15.69,47.14,46.34,47.34,79.77,11.36-5.75,40.29-18.31,73.17-9.57,22.05,5.86,54.28,23.53,52.72,42.54-.49,5.92-4.17,10.9-8.61,14.89-15.08,3.24-32.82,5.8-52.72,6.38-42.1,1.23-76.98-6.93-101.14-14.89-5.97,7.79-13.38,15.49-22.6,22.33-47.83,35.48-109.33,21.69-123.74,18.08-6.23,4.27-15.26,9.19-26.9,11.7-32.88,7.1-59.75-10.77-65.63-14.89-6.69-5.81-17.45-13.94-32.28-20.21-39.19-16.56-77.21-7.57-94.69-3.19-38.24,9.58-39.75,22.33-66.71,26.59-31.91,5.04-62.69-7.61-89.31-25.52H0c1.08-108.13,.92-195.74,2-303.87Z"/>
      <circle class="cls-2" cx="277.99" cy="675.62" r="151.75"/>
      <circle class="cls-1" cx="275.92" cy="672.09" r="112.73"/>
      <path class="cls-4" d="M174.88,621.04c17.01-18.73,43.55-25.03,65.94-15.95,25.43,10.31,40.62,38.47,35.1,67-3.59,27.05,9.96,52.66,31.91,62.75,27.38,12.58,61.95-.73,76.57-32.97"/>
      <circle class="cls-1" cx="223.81" cy="648.7" r="20.21"/>
      <circle class="cls-1" cx="329.1" cy="696.56" r="22.33"/>
      <circle class="cls-16" cx="148.83" cy="754.52" r="13.29"/>
      <circle class="cls-15" cx="148.83" cy="594.99" r="17.55"/>
      <circle class="cls-10" cx="405.14" cy="590.73" r="18.61"/>
      <circle class="cls-15" cx="367.92" cy="554.57" r="11.17"/>
      <path class="cls-8" d="M1016.16,1021.05c-3.22-.1-7.13-.47-11.48-1.44-3.75-.83-7.01-1.92-9.74-3.02-4.17-10.53-5.42-29.01-5.21-33.83-.15,4.91-.72,10.87-2.19,17.51-1.4,6.34-3.29,11.76-5.14,16.17-2.51,.96-5.43,1.88-8.72,2.61-4.36,.96-8.26,1.34-11.48,1.44,2.89-.12,13.29,.55,20.32,2.76,1.81,4.36,3.65,9.68,5.02,15.88,1.47,6.64,2.04,12.61,2.19,17.51-.2-4.6,.93-21.65,4.66-32.34,6.96-2.61,18.68-3.39,21.78-3.26Z"/>
      <path class="cls-8" d="M868.09,271.96c-3.22-.1-7.13-.47-11.48-1.44-3.75-.83-7.01-1.92-9.74-3.02-4.17-10.53-5.42-29.01-5.21-33.83-.15,4.91-.72,10.87-2.19,17.51-1.4,6.34-3.29,11.76-5.14,16.17-2.51,.96-5.43,1.88-8.72,2.61-4.36,.96-8.26,1.34-11.48,1.44,2.89-.12,13.29,.55,20.32,2.76,1.81,4.36,3.65,9.68,5.02,15.88,1.47,6.64,2.04,12.61,2.19,17.51-.2-4.6,.93-21.65,4.66-32.34,6.96-2.61,18.68-3.39,21.78-3.26Z"/>
      <path class="cls-6" d="M607,395.04c0,22.11-17.93,40.04-40.04,40.04-22.11,0-40.04-17.93-40.04-40.04,0-22.11,17.93-40.04,40.04-40.04,22.11,0,40.04,17.93,40.04,40.04Z"/>
      <circle class="cls-6" cx="999.15" cy="633.32" r="21.45"/>
      <circle class="cls-13" cx="629.95" cy="457.78" r="21.45"/>
      <path class="cls-16" d="M940.79,522.36c-2.52-.08-5.57-.37-8.98-1.12-2.93-.65-5.48-1.5-7.62-2.36-3.26-8.23-4.24-22.69-4.08-26.45-.12,3.84-.56,8.5-1.71,13.7-1.1,4.96-2.57,9.2-4.02,12.65-1.96,.75-4.24,1.47-6.82,2.04-3.41,.75-6.46,1.04-8.98,1.12,2.26-.1,10.39,.43,15.89,2.16,1.42,3.41,2.85,7.57,3.92,12.41,1.15,5.2,1.59,9.86,1.71,13.7-.15-3.6,.73-16.93,3.64-25.29,5.44-2.04,14.61-2.65,17.03-2.55Z"/>
      <path class="cls-23" d="M769.91,475.5c-1.77-.05-3.92-.26-6.31-.79-2.06-.46-3.86-1.06-5.36-1.66-2.29-5.79-2.98-15.95-2.87-18.6-.08,2.7-.4,5.98-1.2,9.63-.77,3.49-1.81,6.47-2.83,8.89-1.38,.53-2.98,1.04-4.79,1.44-2.4,.53-4.54,.73-6.31,.79,1.59-.07,7.31,.3,11.18,1.52,1,2.4,2,5.32,2.76,8.73,.81,3.65,1.12,6.93,1.2,9.63-.11-2.53,.51-11.9,2.56-17.78,3.83-1.43,10.27-1.87,11.97-1.79Z"/>
      <path class="cls-23" d="M472.23,536.11c-1.77-.05-3.92-.26-6.31-.79-2.06-.46-3.86-1.06-5.36-1.66-2.29-5.79-2.98-15.95-2.87-18.6-.08,2.7-.4,5.98-1.2,9.63-.77,3.49-1.81,6.47-2.83,8.89-1.38,.53-2.98,1.04-4.79,1.44-2.4,.53-4.54,.73-6.31,.79,1.59-.07,7.31,.3,11.18,1.52,1,2.4,2,5.32,2.76,8.73,.81,3.65,1.12,6.93,1.2,9.63-.11-2.53,.51-11.9,2.56-17.78,3.83-1.43,10.27-1.87,11.97-1.79Z"/>
      <path class="cls-13" d="M708.75,1035.62c10.62,1.83,18.61,9.69,23.8,18.73,.24,.42,.89,.04,.65-.38-5.27-9.2-13.45-17.22-24.24-19.08-.47-.08-.67,.64-.2,.72h0Z"/>
      <path class="cls-13" d="M735.25,1058.76c.43,1.22,.94,2.4,1.53,3.55,.09,.18,.35,.23,.51,.13,.18-.11,.23-.33,.13-.51-.56-1.09-1.05-2.22-1.46-3.37-.07-.19-.26-.32-.46-.26-.18,.05-.33,.27-.26,.46h0Z"/>
      <path class="cls-13" d="M740.02,1071.85c-.87,9.85-1.69,19.76-1.9,29.66-.19,8.65,.43,17.65,4.25,25.56,3.09,6.38,8.25,12.06,15.04,14.5,8.25,2.96,17.69,.63,25.72-1.99,8.85-2.89,17.23-7.36,23.98-13.83,.35-.33-.18-.86-.53-.53-5.9,5.65-13.07,9.78-20.71,12.61-3.83,1.42-7.78,2.55-11.78,3.37-4.51,.92-9.23,1.4-13.77,.42-7.32-1.58-13.06-7.02-16.56-13.46-4.12-7.56-5-16.33-4.94-24.8,.08-10.51,1-21.06,1.93-31.52,.04-.48-.71-.48-.75,0h0Z"/>
      <path class="cls-13" d="M837.96,1089.27c9.59-15.28,20.46-30,34.53-41.47,.37-.31-.16-.83-.53-.53-14.11,11.51-25.03,26.29-34.64,41.62-.26,.41,.39,.79,.65,.38h0Z"/>
      <path class="cls-13" d="M877.92,1043.24c4.84-3.03,10.24-5.04,15.88-5.94,.48-.08,.27-.8-.2-.72-5.7,.91-11.16,2.96-16.06,6.02-.41,.26-.03,.9,.38,.65h0Z"/>
      <path class="cls-13" d="M782.89,976.85c2.42,2.18,4.46,4.74,6.03,7.6,.23,.42,.88,.05,.65-.38-1.59-2.91-3.67-5.53-6.14-7.75-.36-.32-.89,.21-.53,.53h0Z"/>
      <path class="cls-13" d="M790.33,988.64l2.64,7.87c.15,.46,.88,.26,.72-.2l-2.64-7.87c-.15-.46-.88-.26-.72,.2h0Z"/>
      <path class="cls-13" d="M803.08,980.92c-1.55,5.02-2.39,10.23-2.51,15.49-.01,.48,.74,.48,.75,0,.12-5.19,.96-10.33,2.49-15.29,.14-.46-.58-.66-.72-.2h0Z"/>
      <path class="cls-13" d="M782.07,995.63c1.63,1.05,3.37,1.91,5.18,2.59,.45,.17,.65-.56,.2-.72-1.76-.65-3.43-1.5-5-2.51-.41-.26-.78,.39-.38,.65h0Z"/>
      <path class="cls-13" d="M794.7,1000.75c3.39,.44,6.82,.25,10.14-.55,.47-.11,.27-.84-.2-.72-3.26,.78-6.62,.95-9.94,.52-.48-.06-.47,.69,0,.75h0Z"/>
      <path class="cls-13" d="M814.8,997.56c4.95-1.66,9.55-4.21,13.58-7.52,.37-.31-.16-.83-.53-.53-3.93,3.23-8.43,5.72-13.25,7.33-.46,.15-.26,.88,.2,.72h0Z"/>
      <path class="cls-13" d="M828.61,1093.09c.77,5,1.75,9.97,2.95,14.89,.11,.47,.84,.27,.72-.2-1.2-4.92-2.19-9.89-2.95-14.89-.07-.48-.8-.27-.72,.2h0Z"/>
      <path class="cls-13" d="M831.34,1107.69c.82,3.28,2.81,6.04,4.92,8.62,2.42,2.98,5.02,5.81,7.77,8.49,.35,.34,.88-.19,.53-.53-2.59-2.53-5.06-5.2-7.36-7.99-2.17-2.63-4.28-5.42-5.13-8.79-.12-.47-.84-.27-.72,.2h0Z"/>
      <path class="cls-13" d="M817.94,1085.69c-.84,8.88-.55,17.82,.84,26.63,.08,.48,.8,.27,.72-.2-1.38-8.74-1.65-17.62-.81-26.43,.05-.48-.7-.48-.75,0h0Z"/>
      <path class="cls-13" d="M819.27,1114.75c3.59,6.73,10.59,10.32,17.15,13.56,.43,.21,.81-.43,.38-.65-6.45-3.19-13.35-6.68-16.88-13.3-.23-.43-.88-.05-.65,.38h0Z"/>
      <path class="cls-13" d="M812.48,1089.74c-1.06,8.63-1.14,17.34-.24,25.99,.05,.48,.8,.48,.75,0-.9-8.65-.82-17.36,.24-25.99,.06-.48-.69-.47-.75,0h0Z"/>
      <path class="cls-13" d="M812.14,1115.95c4.11,6.53,9.88,11.93,16.68,15.58,.43,.23,.8-.42,.38-.65-6.69-3.59-12.37-8.88-16.41-15.31-.26-.41-.91-.03-.65,.38h0Z"/>
      <path class="cls-13" d="M633.28,1092.72c3.11,5.12,2.63,11.35,2.13,17.07-.04,.48,.71,.48,.75,0,.51-5.86,.95-12.21-2.23-17.45-.25-.41-.9-.04-.65,.38h0Z"/>
      <path class="cls-13" d="M635.73,1110.28c.69,.91,1.64,1.51,2.59,2.11s1.95,1.34,2.83,2.13c1.74,1.57,3.2,3.42,4.33,5.48,.23,.42,.88,.05,.65-.38-1.11-2.01-2.53-3.85-4.22-5.42-.83-.77-1.73-1.48-2.68-2.11-.99-.66-2.12-1.22-2.86-2.19-.29-.38-.94,0-.65,.38h0Z"/>
      <path class="cls-13" d="M654.95,1118.82c5.96-1.85,12.84,.46,16.43,5.58,.28,.39,.93,.02,.65-.38-3.78-5.38-10.98-7.88-17.28-5.92-.46,.14-.26,.87,.2,.72h0Z"/>
      <path class="cls-13" d="M629.18,1101.64c-.02,3.61-.04,7.21-.05,10.82,0,.48,.75,.48,.75,0,.02-3.61,.04-7.21,.05-10.82,0-.48-.75-.48-.75,0h0Z"/>
      <path class="cls-13" d="M629.2,1112.92c1.92,2.25,3.86,4.49,5.82,6.7,.98,1.11,1.95,2.23,2.96,3.3,.26,.27,.7,.64,1.04,.25,.25-.29,.05-.67-.27-.78-.17-.06-.33,.04-.42,.17l-.03,.04c-.28,.4,.37,.77,.65,.38l.03-.04-.42,.17-.15-.13,.04-.29-.04,.05,.32-.19c-.14,.02-.4-.39-.49-.48-.2-.22-.41-.45-.61-.67-.38-.42-.76-.85-1.15-1.28-.76-.85-1.52-1.71-2.27-2.57-1.51-1.72-3-3.45-4.49-5.19-.31-.37-.84,.16-.53,.53h0Z"/>
      <path class="cls-13" d="M620.55,1100.54c.42,4.3,.94,8.58,1.54,12.86,.07,.48,.79,.27,.72-.2-.59-4.21-1.1-8.43-1.51-12.66-.05-.48-.8-.48-.75,0h0Z"/>
      <path class="cls-13" d="M622.1,1113.56c1.95,4.44,4.63,8.53,7.92,12.09,.33,.36,.86-.18,.53-.53-3.25-3.52-5.88-7.55-7.8-11.94-.19-.44-.84-.06-.65,.38h0Z"/>
      <path class="cls-13" d="M599.97,1097.15c6.45,3.1,12.47,7.02,17.9,11.68,.36,.31,.9-.22,.53-.53-5.48-4.71-11.54-8.68-18.05-11.8-.43-.21-.81,.44-.38,.65h0Z"/>
      <path class="cls-13" d="M618.39,1108.97c1.04-.33,2.16-.17,3.07,.43,.4,.27,.78-.38,.38-.65-1.06-.7-2.43-.89-3.65-.51-.46,.15-.26,.87,.2,.72h0Z"/>
      <path class="cls-13" d="M635.02,1109.04c2.36,.81,4.73,1.62,7.09,2.44,2.17,.75,4.37,1.61,6.7,1.25,.48-.07,.27-.8-.2-.72-2.33,.36-4.65-.68-6.81-1.42s-4.39-1.51-6.58-2.26c-.46-.16-.65,.57-.2,.72h0Z"/>
      <path class="cls-13" d="M832.61,998.39c11.07,8.33,24.34,13.45,38.13,14.76,.48,.05,.48-.7,0-.75-13.66-1.29-26.79-6.4-37.75-14.65-.39-.29-.76,.36-.38,.65h0Z"/>
      <path class="cls-13" d="M874.29,1013.91c-6.58,2.92-11.96,8.25-14.94,14.8-.2,.44,.45,.82,.65,.38,2.94-6.45,8.2-11.66,14.67-14.53,.44-.2,.06-.84-.38-.65h0Z"/>
      <path class="cls-13" d="M731.88,1015.07c.82,7.76,2.05,15.48,3.69,23.11,.1,.47,.82,.27,.72-.2-1.63-7.57-2.86-15.21-3.67-22.91-.05-.48-.8-.48-.75,0h0Z"/>
      <path class="cls-25" d="M747.92,1008.19c2.85,1.48,6.12,1.94,9.27,1.29,.47-.1,.27-.82-.2-.72-2.94,.6-6.03,.17-8.69-1.21-.43-.22-.81,.42-.38,.65h0Z"/>
      <path class="cls-25" d="M748.29,1005.26c3.02,1.12,6.29,1.36,9.44,.72,.47-.1,.27-.82-.2-.72-3.02,.61-6.15,.35-9.04-.72-.45-.17-.65,.56-.2,.72h0Z"/>
      <path class="cls-25" d="M805.11,1008.85c3.06,.51,6.17,.39,9.18-.37,.47-.12,.27-.84-.2-.72-2.87,.72-5.86,.85-8.78,.37-.47-.08-.68,.64-.2,.72h0Z"/>
      <path class="cls-25" d="M804.36,1005.3c3.16,.93,6.57,.8,9.64-.39,.45-.17,.25-.9-.2-.72-2.96,1.14-6.2,1.28-9.24,.39-.46-.14-.66,.59-.2,.72h0Z"/>
      <path class="cls-13" d="M797.52,876.53c1.77-2.63,3.9-5.01,6.32-7.06,.37-.31-.16-.84-.53-.53-2.46,2.1-4.63,4.53-6.43,7.21-.27,.4,.38,.78,.65,.38h0Z"/>
      <path class="cls-13" d="M798.58,875.15c.59-.43,1.36-.42,1.99-.07,.71,.38,1.1,1.13,1.15,1.92,.13,1.87-1.23,3.31-2.58,4.4-.38,.3,.16,.83,.53,.53,1.64-1.33,3.18-3.19,2.73-5.45-.19-.94-.78-1.75-1.66-2.15-.82-.36-1.8-.37-2.54,.17-.39,.28-.01,.93,.38,.65h0Z"/>
      <path class="cls-28" d="M750.26,885.87c1.87-1.3,4.51-2.84,7.9-3.95,5.5-1.81,10.31-1.65,13.17-1.32,2.19-2.19,4.39-4.39,6.58-6.58-3.07,.88-6.14,1.76-9.22,2.63-1.42-.28-5.78-.96-10.53,1.32-5.08,2.43-7.3,6.64-7.9,7.9Z"/>
      <path class="cls-28" d="M742.57,888.1c-1.63-.1-3.79-.03-6.15,.6-3.83,1.03-6.34,3.06-7.72,4.41-2.24-.54-4.48-1.09-6.71-1.63,2.08-.66,4.15-1.32,6.23-1.98,.63-.75,2.65-2.93,6.3-3.36,3.9-.46,7.13,1.39,8.06,1.96Z"/>
      <path class="cls-28" d="M750.26,870.98c1.01-.6,2.45-1.39,4.25-2.13,1.86-.76,4.7-1.89,8.51-2.13,3.37-.21,6.28,.36,8.51,1.06-2.39-1.76-6.46-4.11-11.7-4.25-2.04-.05-7.93-.21-9.57,3.19-.73,1.51-.36,3.2,0,4.25Z"/>
      <path class="cls-28" d="M739.64,875.39c-1.02-.06-2.44-.09-4.09,.08-1.69,.18-4.27,.47-7.04,1.96-2.45,1.31-4.16,3.08-5.32,4.65,.71-2.54,2.26-6.32,5.82-8.75,1.38-.95,5.38-3.67,8.34-1.53,1.32,.96,1.97,2.54,2.28,3.59Z"/>
      <path class="cls-13" d="M744.65,897.18c.14-1.3,1.3-2.24,2.48-2.61,1.61-.49,3.34-.07,4.93,.3,.47,.11,.67-.61,.2-.72-1.81-.42-3.83-.89-5.64-.19-1.4,.54-2.55,1.68-2.71,3.22-.05,.48,.7,.48,.75,0h0Z"/>
      <path class="cls-16" d="M480.89,984.56c6.87-1.55,13.99-1.64,20.9-.27,.47,.09,.67-.63,.2-.72-7.05-1.4-14.29-1.31-21.3,.27-.47,.11-.27,.83,.2,.72h0Z"/>
      <path class="cls-16" d="M510.1,985.93c7.53,1.71,14.57,5.17,20.5,10.11,.37,.31,.9-.22,.53-.53-6.04-5.02-13.18-8.56-20.84-10.3-.47-.11-.67,.62-.2,.72h0Z"/>
      <path class="cls-16" d="M478.34,1046.37c11.8-1.63,23.84-.73,35.27,2.62,.46,.14,.66-.59,.2-.72-11.56-3.39-23.73-4.28-35.67-2.62-.48,.07-.27,.79,.2,.72h0Z"/>
      <path class="cls-16" d="M532.27,923.34c3.15,1.28,5.61,3.66,7.93,6.08s4.47,4.67,6.6,7.1c4.38,4.98,8.33,10.42,10.56,16.73,.16,.45,.88,.26,.72-.2-2.27-6.43-6.28-11.98-10.75-17.06-2.31-2.63-4.73-5.19-7.18-7.69-2.26-2.31-4.66-4.44-7.69-5.67-.45-.18-.64,.54-.2,.72h0Z"/>
      <path class="cls-16" d="M474.5,989.39c6.45-2.11,13.23-2.92,19.99-2.41,.48,.04,.48-.71,0-.75-6.83-.52-13.69,.31-20.19,2.43-.46,.15-.26,.87,.2,.72h0Z"/>
      <path class="cls-16" d="M543.77,937.22c5.02,5.09,8.92,11.19,11.4,17.89,.17,.45,.89,.25,.72-.2-2.53-6.82-6.49-13.04-11.6-18.22-.34-.34-.87,.19-.53,.53h0Z"/>
      <path class="cls-16" d="M508.83,1106.47c3.77-2.41,8.25-3.46,12.7-2.97,.48,.05,.48-.7,0-.75-4.56-.5-9.21,.59-13.08,3.07-.41,.26-.03,.91,.38,.65h0Z"/>
      <path class="cls-16" d="M783.16,729.63c17.64-2.13,34.61-7.6,51.19-13.79,4.8-1.79,9.57-3.65,14.34-5.5,.45-.17,.25-.9-.2-.72-16.41,6.38-32.91,12.78-50.13,16.63-5.02,1.12-10.09,2.02-15.2,2.63-.47,.06-.48,.81,0,.75h0Z"/>
      <path class="cls-16" d="M831.33,719.93c9.51-3.1,18.9-6.54,28.17-10.29,.44-.18,.25-.9-.2-.72-9.27,3.75-18.66,7.19-28.17,10.29-.46,.15-.26,.87,.2,.72h0Z"/>
      <path class="cls-16" d="M813.89,797.85c21.78,3.33,43.73-.56,64.85-5.93,6.1-1.55,12.16-3.23,18.22-4.92,.46-.13,.27-.85-.2-.72-20.95,5.84-42.29,11.75-64.19,12.08-6.19,.09-12.37-.29-18.49-1.22-.47-.07-.68,.65-.2,.72h0Z"/>
      <path class="cls-16" d="M870.73,799.91c11.22-2.06,22.34-4.58,33.34-7.57,.47-.13,.27-.85-.2-.72-11,2.99-22.13,5.52-33.34,7.57-.47,.09-.27,.81,.2,.72h0Z"/>
      <path class="cls-16" d="M835.76,879.55c2-.31,3.99,.09,5.96,.42,1.65,.27,3.29,.56,4.93,.87,3.36,.63,6.7,1.35,10.03,2.14,6.65,1.59,13.22,3.5,19.69,5.7,.46,.16,.65-.57,.2-.72-6.77-2.31-13.65-4.29-20.62-5.92-3.4-.8-6.83-1.51-10.27-2.14-3.25-.59-6.82-1.58-10.12-1.07-.48,.07-.27,.8,.2,.72h0Z"/>
      <path class="cls-16" d="M851.82,885.83c7.64,1.7,15.19,3.79,22.61,6.26,.46,.15,.66-.57,.2-.72-7.43-2.47-14.97-4.56-22.61-6.26-.47-.1-.67,.62-.2,.72h0Z"/>
      <g class="cls-11">
        <path class="cls-30" d="M609.9,936.64c10.93,1.14,21.94,1.16,32.87,.04,.48-.05,.48-.8,0-.75-10.93,1.12-21.94,1.11-32.87-.04-.48-.05-.48,.7,0,.75h0Z"/>
      </g>
      <g class="cls-11">
        <path class="cls-30" d="M617.76,939.11c6.72,.88,13.53,.75,20.21-.39,.47-.08,.27-.8-.2-.72-6.62,1.12-13.36,1.24-20.01,.36-.48-.06-.47,.69,0,.75h0Z"/>
      </g>
      <g class="cls-11">
        <path class="cls-30" d="M656.04,780.64h6.87c.48,0,.48-.75,0-.75h-6.87c-.48,0-.48,.75,0,.75h0Z"/>
      </g>
      <g class="cls-11">
        <path class="cls-30" d="M669.12,779.81c4.83-2.87,9.18-6.49,12.84-10.75,1.75-2.04,3.34-4.22,4.76-6.51,1.64-2.65,3.13-5.4,5.37-7.62,.34-.34-.19-.87-.53-.53-1.98,1.96-3.4,4.33-4.83,6.69-1.51,2.5-3.15,4.89-5.03,7.12-3.67,4.35-8.06,8.04-12.95,10.94-.41,.25-.04,.89,.38,.65h0Z"/>
      </g>
      <g class="cls-11">
        <path class="cls-30" d="M678.9,780.05c12.05-13.26,27.26-23.49,44.1-29.63,.45-.16,.26-.89-.2-.72-13.15,4.79-25.34,12.04-35.82,21.32-3.02,2.67-5.89,5.52-8.6,8.5-.32,.36,.2,.89,.53,.53h0Z"/>
      </g>
      <g class="cls-11">
        <path class="cls-30" d="M690.06,775.5c5.45-5.52,11.54-10.38,18.15-14.44,3.26-2,6.63-3.81,10.1-5.4,1.74-.8,3.57-1.78,5.46-2.19,1.2-.26,2.79-.12,3.48,1.08,.73,1.28-.25,2.77-.93,3.82-.26,.41,.39,.78,.65,.38,.75-1.16,1.56-2.54,1.17-3.98-.32-1.17-1.43-1.9-2.57-2.1-1.54-.28-3.04,.36-4.43,.94-1.53,.64-3.05,1.32-4.54,2.03-6.35,3.04-12.35,6.79-17.89,11.13-3.23,2.53-6.29,5.28-9.17,8.2-.34,.34,.19,.87,.53,.53h0Z"/>
      </g>
      <g class="cls-11">
        <path class="cls-30" d="M692.19,779.6c2.66-2.76,5.53-5.33,8.6-7.64s6.28-4.63,9.72-6.14c1.17-.51,2.54-.54,3.09,.81,.41,1,.11,2.01-.43,2.89-.91,1.5-2.46,2.76-3.77,3.91-2.69,2.36-5.66,4.38-8.82,6.04-3.65,1.91-7.55,3.3-11.58,4.16l.36,.63c.65-.84,1.37-1.55,2.22-2.18,.39-.28,.01-.93-.38-.65-.9,.66-1.69,1.41-2.37,2.3-.22,.29-.03,.71,.36,.63,8.13-1.74,15.72-5.67,21.79-11.35,1.79-1.67,5.52-5.41,2.48-7.81-1.38-1.09-3.12-.19-4.43,.53-1.98,1.09-3.92,2.28-5.79,3.55-4.2,2.85-8.08,6.15-11.6,9.8-.34,.35,.19,.88,.53,.53h0Z"/>
      </g>
      <g class="cls-11">
        <path class="cls-30" d="M601.31,779.89h-6.87c-.48,0-.48,.75,0,.75h6.87c.48,0,.48-.75,0-.75h0Z"/>
      </g>
      <g class="cls-11">
        <path class="cls-30" d="M588.61,779.16c-4.89-2.91-9.28-6.59-12.95-10.94-1.84-2.18-3.45-4.51-4.92-6.94s-2.91-4.87-4.94-6.87c-.34-.34-.87,.19-.53,.53,2.19,2.17,3.66,4.84,5.26,7.44,1.45,2.35,3.07,4.59,4.87,6.69,3.66,4.26,8.02,7.88,12.84,10.75,.42,.25,.79-.4,.38-.65h0Z"/>
      </g>
      <g class="cls-11">
        <path class="cls-30" d="M578.98,779.52c-9.48-10.43-20.92-19.03-33.59-25.22-3.53-1.72-7.15-3.25-10.84-4.6-.45-.17-.65,.56-.2,.72,16.84,6.14,32.04,16.37,44.1,29.63,.33,.36,.85-.17,.53-.53h0Z"/>
      </g>
      <g class="cls-11">
        <path class="cls-30" d="M567.82,774.97c-4.95-5.01-10.42-9.48-16.33-13.31-3.03-1.96-6.17-3.75-9.4-5.36-1.58-.79-3.19-1.53-4.81-2.23-1.41-.61-2.89-1.36-4.45-1.45-1.34-.08-2.83,.46-3.45,1.72-.75,1.52,.18,3.15,1,4.42,.26,.4,.91,.03,.65-.38-.68-1.05-1.66-2.53-.93-3.82,.68-1.2,2.28-1.34,3.48-1.08,1.88,.4,3.72,1.39,5.46,2.19,3.47,1.6,6.84,3.4,10.1,5.4,6.61,4.06,12.7,8.92,18.15,14.44,.34,.34,.87-.19,.53-.53h0Z"/>
      </g>
      <g class="cls-11">
        <path class="cls-30" d="M565.69,779.07c-3.06-3.18-6.4-6.09-9.98-8.67-1.9-1.37-3.86-2.64-5.88-3.82-1.42-.83-3.35-2.28-5.1-1.81-1.29,.35-1.96,1.68-1.93,2.94,.04,1.68,1.27,3.02,2.39,4.14,2.89,2.92,6.2,5.44,9.77,7.47,4.11,2.34,8.57,4.03,13.19,5.02,.39,.08,.59-.34,.36-.63-.69-.89-1.47-1.64-2.37-2.3-.39-.29-.76,.36-.38,.65,.86,.63,1.57,1.34,2.22,2.18l.36-.63c-7.06-1.51-13.73-4.68-19.32-9.28-1.3-1.07-2.56-2.21-3.72-3.44s-3-4.08-.77-5.27c1.11-.59,2.42,.2,3.39,.73,.9,.49,1.78,1,2.65,1.53,1.56,.95,3.08,1.95,4.57,3.02,3.6,2.58,6.94,5.49,10.01,8.68,.34,.35,.87-.18,.53-.53h0Z"/>
      </g>
      <g class="cls-11">
        <path class="cls-30" d="M637.59,907.52c1.43-10.51,9.25-19.65,19.43-22.64,.46-.14,.27-.86-.2-.72-10.41,3.05-18.5,12.4-19.96,23.16-.06,.47,.66,.68,.72,.2h0Z"/>
      </g>
      <g class="cls-11">
        <path class="cls-30" d="M650.4,884.61c1.58-1.22,3.36-2.18,5.25-2.83,.45-.16,.26-.88-.2-.72-2.02,.69-3.89,1.71-5.58,3.02-.16,.12-.13,.4,0,.53,.16,.16,.37,.12,.53,0h0Z"/>
      </g>
      <g class="cls-11">
        <path class="cls-30" d="M598.51,885.12c11.55,2.51,20.87,12.59,22.37,24.33,.06,.47,.81,.48,.75,0-1.55-12.07-11.02-22.47-22.92-25.05-.47-.1-.67,.62-.2,.72h0Z"/>
      </g>
      <g class="cls-11">
        <path class="cls-30" d="M600.91,880.18c2.46,1.46,4.92,2.92,7.39,4.38,.42,.25,.79-.4,.38-.65-2.46-1.46-4.92-2.92-7.39-4.38-.42-.25-.79,.4-.38,.65h0Z"/>
      </g>
      <g class="cls-11">
        <path class="cls-30" d="M632.37,856.57c1.35-8.19,5.51-15.81,11.76-21.29,1.05-.92,2.2-1.48,3,0,.5,.93,.55,2,.61,3.03,.14,2.28,.04,4.57-.3,6.83-.66,4.43-2.2,8.68-4.5,12.51-.25,.41,.4,.79,.65,.38,2.06-3.42,3.53-7.17,4.3-11.08,.38-1.9,.6-3.84,.65-5.78,.04-1.68,.11-3.56-.35-5.2-.29-1.01-.89-2.22-2.03-2.43-1.45-.27-2.77,1.36-3.69,2.23-2.64,2.53-4.9,5.47-6.67,8.66-2.06,3.71-3.46,7.75-4.15,11.93-.08,.47,.64,.68,.72,.2h0Z"/>
      </g>
      <g class="cls-11">
        <path class="cls-30" d="M617.91,842.45c-1.33-3.95-2.43-7.97-3.25-12.06-.7-3.46-2.31-9.02,1.24-11.5,1.82-1.27,4.08-.5,5.57,.88,1.38,1.28,2.19,3.07,3.02,4.72,1.81,3.62,3.55,7.29,4.12,11.33,.07,.48,.79,.27,.72-.2-.51-3.59-1.93-6.91-3.51-10.14-1.34-2.74-2.67-6.11-5.62-7.47-2.46-1.14-5.06-.23-6.35,2.13-1.59,2.89-.68,6.5-.09,9.54,.85,4.4,2,8.72,3.43,12.97,.15,.46,.88,.26,.72-.2h0Z"/>
      </g>
      <g class="cls-11">
        <path class="cls-30" d="M633.87,823.22c.64-1.23,1.44-2.37,2.4-3.37,.47-.49,.97-.95,1.51-1.37,.27-.21,.69-.56,1.05-.39,.27,.13,.37,.51,.43,.78,.15,.69,.14,1.45,.14,2.15,0,.77-.05,1.54-.15,2.31-.2,1.55-.61,3.06-1.18,4.51-.18,.45,.55,.64,.72,.2,.68-1.74,1.11-3.55,1.28-5.41,.08-.94,.1-1.89,.04-2.83-.04-.66-.08-1.38-.46-1.94-.99-1.41-2.63,.22-3.43,.98-1.22,1.15-2.23,2.52-3,4-.22,.43,.43,.81,.65,.38h0Z"/>
      </g>
      <g class="cls-11">
        <path class="cls-30" d="M618.11,807.66c-1.11-4.13-2.25-8.56-.86-12.77,.65-1.96,1.89-3.9,3.76-4.9,2.28-1.22,4.48-.18,6.14,1.53,5.5,5.66,7.77,14.47,7.08,22.16-.04,.48,.71,.48,.75,0,.65-7.15-1.25-14.45-5.39-20.33-1.6-2.27-3.9-5.01-7-4.64s-5.33,3.51-6.16,6.35c-1.24,4.24-.14,8.66,.97,12.8,.13,.47,.85,.27,.72-.2h0Z"/>
      </g>
      <g class="cls-11">
        <path class="cls-30" d="M640.08,807.37c.1-1.18,1.74-1.6,2.57-.93,1.07,.86,.95,2.52,.12,3.49-.54,.63-1.27,1.04-2.05,1.27-.46,.14-.27,.86,.2,.72,1.7-.5,3.32-1.89,3.26-3.8-.03-.84-.37-1.7-1.03-2.24s-1.46-.66-2.24-.4c-.85,.28-1.51,.97-1.59,1.89-.04,.48,.71,.48,.75,0h0Z"/>
      </g>
      <g class="cls-11">
        <path class="cls-30" d="M622.88,864.66c-.45-1.72-.49-3.52-.09-5.26,.19-.83,.47-1.65,.85-2.41,.27-.56,.85-1.84,1.58-1.07,.55,.58,.7,1.54,.92,2.27,.27,.92,.53,1.85,.78,2.77,.5,1.93,.93,3.88,1.29,5.84,.09,.47,.81,.27,.72-.2-.34-1.85-.74-3.69-1.21-5.52-.23-.89-.47-1.79-.73-2.67-.22-.76-.41-1.55-.74-2.27-.5-1.06-1.67-1.76-2.58-.68s-1.42,2.73-1.68,4.1c-.34,1.76-.28,3.56,.17,5.29,.12,.47,.84,.27,.72-.2h0Z"/>
      </g>
      <path class="cls-16" d="M655.35,755.3c3.96-11.84,10.48-22.72,19.07-31.78,.33-.35-.2-.88-.53-.53-8.67,9.16-15.26,20.15-19.26,32.11-.15,.46,.57,.66,.72,.2h0Z"/>
      <path class="cls-16" d="M670.66,733.84c1.75-3.58,4.03-6.87,6.77-9.76,.33-.35-.2-.88-.53-.53-2.78,2.93-5.11,6.28-6.89,9.91-.21,.43,.44,.81,.65,.38h0Z"/>
      <path class="cls-16" d="M683.4,734.41c15.48-13.49,30.75-27.22,45.8-41.19,4.3-3.99,8.58-8,12.85-12.03,.35-.33-.18-.86-.53-.53-14.93,14.1-30.08,27.96-45.44,41.59-4.39,3.89-8.79,7.77-13.22,11.62-.36,.32,.17,.85,.53,.53h0Z"/>
      <path class="cls-16" d="M579.57,718.76c3.85,4.59,7.71,9.17,11.55,13.77,3.4,4.08,6.74,8.35,8.24,13.53,.13,.46,.86,.27,.72-.2-1.45-5.03-4.6-9.24-7.89-13.22-4-4.83-8.06-9.61-12.09-14.42-.31-.37-.84,.16-.53,.53h0Z"/>
      <path class="cls-16" d="M577.15,720.56c1.63,2.89,3.44,5.67,5.43,8.32,.29,.38,.94,0,.65-.38-1.99-2.65-3.81-5.43-5.43-8.32-.24-.42-.88-.04-.65,.38h0Z"/>
      <path class="cls-16" d="M525.78,690.07c13.59,14.03,27.9,27.35,42.89,39.87,4.24,3.54,8.53,7.02,12.88,10.43,.38,.3,.91-.23,.53-.53-15.35-12.07-30.07-24.94-44.07-38.57-3.96-3.85-7.86-7.77-11.7-11.74-.34-.35-.87,.18-.53,.53h0Z"/>
      <path class="cls-16" d="M589.94,642.31c-.47,3.72,.2,7.4,1.11,11s2.02,7.49,3.1,11.22c2.17,7.46,4.52,14.87,7.05,22.22,.16,.45,.88,.26,.72-.2-2.48-7.2-4.79-14.45-6.92-21.75-1.04-3.57-2.05-7.15-3-10.75-1.01-3.84-1.83-7.75-1.33-11.74,.06-.48-.69-.47-.75,0h0Z"/>
      <path class="cls-16" d="M605.57,567.66c-.48,20.67,.31,41.37,2.41,61.94,.59,5.75,1.28,11.48,2.06,17.21,.07,.48,.79,.27,.72-.2-2.79-20.37-4.31-40.91-4.55-61.47-.07-5.83-.03-11.65,.11-17.48,.01-.48-.74-.48-.75,0h0Z"/>
      <path class="cls-16" d="M656.24,544.91c-9.88,15.41-17.57,32.2-22.75,49.77-1.47,4.99-2.73,10.03-3.8,15.12-.1,.47,.62,.67,.72,.2,3.74-17.86,9.99-35.16,18.58-51.26,2.45-4.59,5.08-9.07,7.89-13.45,.26-.41-.39-.78-.65-.38h0Z"/>
      <path class="cls-16" d="M666.89,576.55c10.28-10.65,22.27-19.6,35.42-26.41,3.81-1.98,7.72-3.76,11.7-5.37,.44-.18,.25-.9-.2-.72-13.82,5.57-26.7,13.37-38.02,23.07-3.29,2.82-6.43,5.79-9.44,8.9-.34,.35,.19,.88,.53,.53h0Z"/>
      <path class="cls-16" d="M711.71,569.94c15.09-6.45,31.56-9.37,47.95-8.54,.48,.02,.48-.73,0-.75-16.53-.84-33.11,2.14-48.32,8.64-.44,.19-.06,.84,.38,.65h0Z"/>
      <path class="cls-24" d="M780.71,919.9c.76-.63,1.38-1.45,1.78-2.36,.08-.18,.06-.41-.13-.51-.16-.09-.43-.06-.51,.13-.19,.44-.43,.85-.71,1.23-.04,.05-.1,.13-.18,.22s-.16,.18-.24,.27c-.17,.17-.34,.34-.53,.49-.15,.13-.14,.4,0,.53,.16,.15,.37,.13,.53,0h0Z"/>
      <path class="cls-24" d="M786.67,912.43c3.71-4.66,5.98-10.3,6.51-16.23,.04-.48-.71-.48-.75,0-.51,5.72-2.71,11.21-6.29,15.7-.3,.37,.23,.91,.53,.53h0Z"/>
      <path class="cls-24" d="M745.06,842.79c12.77,7.82,26.52,14,40.85,18.34,4.09,1.24,8.23,2.32,12.41,3.26,.47,.11,.67-.62,.2-.72-18.74-4.22-36.7-11.51-53.08-21.53-.41-.25-.79,.4-.38,.65h0Z"/>
      <path class="cls-24" d="M784.85,850.15c5.48,3.37,10.51,7.43,14.98,12.06,.34,.35,.87-.18,.53-.53-4.51-4.68-9.6-8.77-15.13-12.18-.41-.25-.79,.39-.38,.65h0Z"/>
      <path class="cls-24" d="M801.12,863.94l.57,.29c.09,.05,.19,.07,.29,.04,.09-.02,.18-.09,.22-.17,.05-.09,.07-.19,.04-.29-.03-.09-.09-.18-.17-.22l-.57-.29c-.09-.05-.19-.07-.29-.04-.09,.02-.18,.09-.22,.17-.05,.09-.07,.19-.04,.29,.03,.09,.09,.18,.17,.22h0Z"/>
      <path class="cls-24" d="M784.34,824.58c6.79,1.3,12.95,4.95,17.5,10.14s8.78,13.81,6.72,21.11c-.13,.47,.59,.66,.72,.2,2.08-7.35-1.77-15.72-6.44-21.3s-11.16-9.51-18.29-10.88c-.47-.09-.67,.63-.2,.72h0Z"/>
      <path class="cls-24" d="M789.14,816.63c3.89-2.43,8.71-4.23,13.35-4.05,4.09,.16,8.27,2.28,9.83,6.25,.17,.44,.9,.25,.72-.2-1.5-3.84-5.26-6.18-9.26-6.69-5.16-.65-10.69,1.34-15.02,4.04-.41,.25-.03,.9,.38,.65h0Z"/>
      <path class="cls-24" d="M792.06,824.13c3.17-3.46,6.89-7.38,11.97-7.3,.48,0,.48-.74,0-.75-5.29-.08-9.18,3.91-12.5,7.52-.33,.36,.2,.89,.53,.53h0Z"/>
      <path class="cls-24" d="M806.96,817.46c2.23,.49,3.96,2.34,4.33,4.59,.41,2.45-.79,5.03-2.87,6.36s-4.63,1.27-6.42-.37-1.93-4.43-.17-6.05c.99-.91,2.52-1.49,3.8-1.82s3.18-.1,3.54,1.5c.11,.47,.83,.27,.72-.2-.28-1.24-1.42-2.03-2.64-2.18-1.55-.19-3.17,.54-4.53,1.22-1.24,.62-2.21,1.56-2.63,2.9-.38,1.21-.28,2.56,.28,3.69,1.22,2.48,4.33,3.51,6.88,2.68,2.75-.89,4.66-3.47,4.85-6.33,.21-3.1-1.87-6.05-4.93-6.72-.47-.1-.67,.62-.2,.72h0Z"/>
      <path class="cls-24" d="M808.18,824.34l-.58,2c-.06,.19,.07,.42,.26,.46s.4-.06,.46-.26l.58-2c.06-.19-.07-.42-.26-.46s-.4,.06-.46,.26h0Z"/>
      <path class="cls-24" d="M814.36,834.72c3.46-2.34,7.9-2.91,11.86-1.58s6.92,4.63,8.08,8.62c1.18,4.05,.36,8.23-2.09,11.64-2.58,3.58-7.24,7.51-11.95,6.76-.47-.08-.68,.65-.2,.72,3.85,.61,7.35-1.57,10.08-4.07s4.83-5.7,5.33-9.38c.92-6.83-3.38-13.65-10.14-15.32-3.87-.96-8.06-.27-11.36,1.97-.4,.27-.02,.92,.38,.65h0Z"/>
      <path class="cls-24" d="M811.48,845.44c.51,2.11,1.07,4.32,2.35,6.12s3.26,2.79,5.42,3.3c3.75,.88,8.23,.46,10.73-2.79,.29-.38-.36-.76-.65-.38-2.32,3.03-6.7,3.25-10.12,2.39-2.07-.52-3.86-1.48-5.02-3.32-1.05-1.67-1.53-3.62-1.99-5.51-.11-.47-.84-.27-.72,.2h0Z"/>
      <path class="cls-24" d="M831.51,846.43c-.11,1.14-.48,2.26-1.05,3.25-.24,.42,.41,.8,.65,.38,.64-1.12,1.02-2.35,1.15-3.63,.02-.2-.19-.38-.38-.38-.22,0-.36,.17-.38,.38h0Z"/>
      <path class="cls-24" d="M815.2,839.44c2.04-2.14,5.05-3.31,8-2.96s5.21,2.21,6.22,4.89c1.09,2.86,.38,5.78-1.86,7.85-1.42,1.31-3.08,2.17-4.98,1.3-1.42-.65-2.66-1.84-3.32-3.26-.77-1.64-.65-3.76,.6-5.14s3.38-1.64,4.79-.46c.37,.31,.9-.22,.53-.53-1.24-1.04-2.97-1.23-4.45-.57-1.59,.72-2.52,2.36-2.68,4.06-.17,1.79,.6,3.52,1.8,4.81s3.05,2.43,4.9,2.19,3.53-1.83,4.58-3.27c.99-1.35,1.45-3.02,1.35-4.69-.19-3.19-2.2-6.19-5.2-7.38-3.71-1.48-8.12-.21-10.81,2.62-.33,.35,.2,.88,.53,.53h0Z"/>
      <path class="cls-24" d="M816.32,865.73c4.7,4.19,6.97,10.42,6.93,16.64-.04,6.3-2.35,13.62-8.07,16.98-.42,.24-.04,.89,.38,.65,5.84-3.44,8.31-10.8,8.43-17.26s-2.2-13.14-7.14-17.54c-.36-.32-.89,.21-.53,.53h0Z"/>
      <path class="cls-24" d="M817.96,879.64c1.19,6.93-.68,14.79-7.19,18.45-.42,.24-.04,.88,.38,.65,6.82-3.83,8.78-12.04,7.53-19.3-.08-.47-.8-.27-.72,.2h0Z"/>
      <path class="cls-24" d="M808.63,910.02c5.4,22.98,13.6,45.28,24.38,66.27,3.06,5.96,6.33,11.81,9.8,17.55,.25,.41,.9,.04,.65-.38-12.21-20.21-21.94-41.9-28.9-64.46-1.95-6.33-3.68-12.73-5.2-19.18-.11-.47-.83-.27-.72,.2h0Z"/>
      <path class="cls-24" d="M827.78,955.21c1.53,3.72,3.06,7.43,4.59,11.15,.18,.44,.91,.25,.72-.2-1.53-3.72-3.06-7.43-4.59-11.15-.18-.44-.91-.25-.72,.2h0Z"/>
      <path class="cls-24" d="M834.6,971.93c4.63,9.14,10.4,17.67,17.17,25.37,.32,.36,.85-.17,.53-.53-6.72-7.65-12.45-16.13-17.05-25.21-.22-.43-.87-.05-.65,.38h0Z"/>
      <path class="cls-13" d="M699.52,1131.32c.42,17.79,.63,35.59,.62,53.38s-.22,35.43-.65,53.14c-.24,10.06-.56,20.12-.94,30.17-.07,1.93,2.93,1.93,3,0,.67-17.78,1.13-35.58,1.38-53.37,.24-17.71,.28-35.43,.1-53.14-.1-10.06-.27-20.12-.51-30.18-.05-1.93-3.05-1.93-3,0h0Z"/>
      <path class="cls-13" d="M697.33,1286.74c-1.46,4.81-3.5,9.4-6.09,13.71-1,1.66,1.6,3.17,2.59,1.51,2.71-4.52,4.86-9.38,6.39-14.43,.56-1.85-2.33-2.64-2.89-.8h0Z"/>
      <path class="cls-13" d="M880.78,1146.64c.74,23.65,.74,47.32-.02,70.98-.76,23.73-2.28,47.44-4.55,71.08-1.12,11.7-1.59,24.43-7.59,34.87-.96,1.68,1.63,3.19,2.59,1.51,5.32-9.25,6.36-20.04,7.42-30.46,1.21-11.94,2.23-23.89,3.06-35.86,1.65-23.85,2.53-47.76,2.64-71.67,.06-13.49-.12-26.97-.54-40.45-.06-1.93-3.06-1.93-3,0h0Z"/>
      <path class="cls-24" d="M49.16,1034.69c25.8-8.82,55.84-7.98,78.65,8.16,9.66,6.84,17.71,16.1,22.59,26.92s6.17,22.72,3.76,34.24c-2.65,12.66-9.68,24.44-20.44,31.81-.4,.27-.02,.92,.38,.65,19.58-13.39,26.59-40.27,18.9-62.22-8.37-23.9-30.97-40.31-55.42-44.63-16.23-2.87-33.08-.97-48.62,4.34-.45,.16-.26,.88,.2,.72h0Z"/>
      <path class="cls-24" d="M165.02,1085.88c4.59,13.35,1.13,28.79-8.05,39.4-2.59,2.99-5.62,5.56-9.01,7.61-.41,.25-.04,.9,.38,.65,12.26-7.4,19.64-21.65,19.46-35.87-.05-4.08-.74-8.13-2.06-11.98-.16-.45-.88-.26-.72,.2h0Z"/>
      <path class="cls-24" d="M65.86,1014.74c14.73-4.64,30.78-4.63,45.51,0,13.36,4.2,25.32,12.28,34.4,22.92,4.98,5.83,9.05,12.42,12.05,19.48,.19,.44,.83,.06,.65-.38-5.38-12.66-14.23-23.72-25.33-31.83-12.07-8.82-26.66-13.78-41.59-14.37-8.75-.34-17.54,.82-25.89,3.45-.46,.14-.26,.87,.2,.72h0Z"/>
      <path class="cls-24" d="M21.97,1054.01c22.16-6.9,47.37-5.66,66.36,8.74,18.71,14.19,28.95,39.49,20.93,62.25-3.67,10.43-10.89,19.52-20.46,25.11-9.28,5.42-20.34,7.3-30.89,5.32-5.18-.97-10.21-2.8-14.84-5.31s-9.26-5.97-12.38-10.43c-7.16-10.23-3.48-23.53,3.98-32.5,7.88-9.47,20.84-15.31,33.2-13.42,8.99,1.37,19.81,7.62,19.13,18.03-.21,3.12-1.4,6.07-3.74,8.19-.36,.33,.17,.86,.53,.53,4.02-3.67,4.98-9.92,2.99-14.88-1.76-4.38-5.57-7.62-9.7-9.71-10.58-5.36-23.34-3.65-33.25,2.39-10.22,6.22-18.53,17.97-17.77,30.35,.71,11.5,10.28,19.38,20.1,23.8,10.2,4.58,21.71,5.83,32.53,2.75s19.69-9.84,25.76-18.92c6.73-10.07,9.47-22.42,7.93-34.41s-6.95-22.94-14.89-31.76-19.09-15.65-30.99-18.76-23.94-2.89-35.68-.46c-3.05,.63-6.07,1.43-9.05,2.35-.46,.14-.26,.87,.2,.72h0Z"/>
      <path class="cls-24" d="M45.73,1248.2c10.13-24.7,30.8-43.46,52.49-58.13,23.37-15.81,49.98-27.7,77.64-33.55,27.19-5.75,58.33-4.11,80.3,14.84,18.14,15.65,26.56,41.01,23.39,64.53-3.24,24.1-18.32,45.66-38.24,59.15-2.4,1.63-4.88,3.14-7.43,4.53-.42,.23-.05,.88,.38,.65,21.32-11.73,38.32-31.94,44.37-55.7s.33-49.03-15.39-67.14c-18.5-21.31-48.26-27.03-75.17-23.67-14.8,1.85-29.31,6.02-43.23,11.32-13.37,5.09-26.27,11.43-38.46,18.91-22.59,13.86-44.67,31.78-57.35,55.52-1.49,2.78-2.82,5.64-4.02,8.56-.18,.45,.54,.64,.72,.2h0Z"/>
      <path class="cls-24" d="M254.22,1271.93c-13.18,10.65-28.22,18.91-44.22,24.49-15.77,5.5-32.43,8.43-49.14,8.54-9.55,.06-19.09-.8-28.46-2.61-.47-.09-.67,.63-.2,.72,16.64,3.2,33.78,3.44,50.53,.9,16.77-2.55,33.13-7.9,48.14-15.8,8.45-4.44,16.45-9.71,23.87-15.71,.38-.3-.16-.83-.53-.53h0Z"/>
      <path class="cls-24" d="M78.43,1281.33c1.21-19.35,8.59-38.23,20.89-53.23,6.03-7.35,13.23-13.83,21.45-18.63,8.82-5.15,18.75-8.15,28.95-8.64,18.42-.89,39.73,6.47,48.64,23.77,4.25,8.26,5.3,18.53,1.36,27.11-3.6,7.84-10.77,13.34-18.64,16.48s-16.2,4.23-24.42,3.21c-7.81-.96-15.78-3.99-21.11-9.99-1.32-1.49-2.43-3.14-3.34-4.9-.22-.43-.87-.05-.65,.38,7.88,15.18,28.35,17.83,43.39,14.06,8.28-2.07,16.39-6.25,21.79-13.01,5.69-7.12,7.34-16.43,5.36-25.24-4.35-19.4-23.83-30.3-42.36-32.33-10.51-1.15-21.32,.33-31.1,4.36-9.16,3.77-17.34,9.63-24.29,16.65-14.04,14.18-23.21,33.04-25.96,52.78-.33,2.38-.57,4.76-.72,7.16-.03,.48,.72,.48,.75,0h0Z"/>
      <path class="cls-24" d="M137.07,1238.43c7.38-11.72,22.73-17.41,35.97-13.37,.46,.14,.66-.58,.2-.72-13.57-4.15-29.26,1.71-36.82,13.71-.26,.41,.39,.79,.65,.38h0Z"/>
      <path class="cls-24" d="M194.97,1099.22c8.16-5.2,18.57-6.34,27.72-3.25,8.97,3.03,15.96,10.29,19.18,19.13,1.76,4.84,2.37,10.03,1.69,15.14-.06,.48,.69,.47,.75,0,1.25-9.35-1.86-19.03-8.06-26.1-6.52-7.42-16.28-11.18-26.09-10.58-5.51,.34-10.89,2.02-15.55,4.99-.41,.26-.03,.91,.38,.65h0Z"/>
      <path class="cls-24" d="M235.12,1118.1c1.68,6.73,2.98,13.93,1.25,20.8-1.37,5.45-4.67,10.52-9.81,13.04-.43,.21-.05,.86,.38,.65,5.2-2.55,8.59-7.64,10.07-13.13,1.9-7.09,.58-14.58-1.16-21.56-.12-.47-.84-.27-.72,.2h0Z"/>
      <path class="cls-24" d="M301.34,1263.76c11.53-10.85,25.35-19.2,40.29-24.43,14.03-4.91,29.1-7.2,43.94-5.9,13.54,1.18,27.02,5.22,38.54,12.52s22.01,19.11,25.84,32.95c2.13,7.71,2.2,16.31-1.46,23.58-3.13,6.22-8.77,11.45-15.6,13.24-1.68,.44-3.39,.64-5.13,.64-.48,0-.48,.75,0,.75,6.94,.02,13.34-3.54,17.75-8.77,4.87-5.77,6.97-13.17,6.63-20.66-.7-15.03-9.95-28.81-21.45-37.96s-24.45-13.98-38.22-16.18c-14.87-2.38-30.1-1.1-44.55,3.02-15.54,4.42-30.14,12.14-42.49,22.56-1.58,1.33-3.11,2.71-4.62,4.12-.35,.33,.18,.86,.53,.53h0Z"/>
      <path class="cls-24" d="M293.59,1306.4c2.92-13.14,11.13-24.22,21.37-32.7,11.04-9.16,24.54-15.89,38.37-19.61,8.97-2.41,18.4-3.32,27.57-1.5,.47,.09,.67-.63,.2-.72-15.95-3.18-32.38,1.65-46.69,8.59-12.31,5.97-23.89,14.28-32.09,25.37-4.5,6.08-7.81,12.98-9.45,20.37-.1,.47,.62,.67,.72,.2h0Z"/>
      <path class="cls-24" d="M393.75,1258.14c5.57,.7,10.73,3.76,14.02,8.31,.28,.39,.93,.01,.65-.38-3.46-4.78-8.81-7.95-14.66-8.68-.48-.06-.47,.69,0,.75h0Z"/>
      <path class="cls-24" d="M406.59,1282.53c4.33,9.69-1.92,20.46-10.24,25.57-4.58,2.82-9.81,4.41-15.06,5.4-5.7,1.08-11.6,1.67-17.4,1.42-10.48-.45-21.8-4.64-26.8-14.55-1.31-2.6-2.23-5.62-1.56-8.53,.6-2.61,2.17-4.97,4.05-6.85,3.49-3.48,8.21-5.44,12.85-6.83,11.25-3.38,26.8-6.55,35.67,3.55,.32,.36,.85-.17,.53-.53-8.39-9.56-22.42-7.38-33.33-4.59-5.01,1.28-10.14,2.97-14.29,6.17s-7.29,8.07-6.22,13.41c2.22,11.02,13.69,17.49,23.97,19.02,6.18,.92,12.48,.54,18.65-.3,5.72-.78,11.45-2.09,16.65-4.67s9.95-6.73,12.54-12.2c2.36-4.99,2.92-10.75,.63-15.87-.2-.44-.84-.06-.65,.38h0Z"/>
      <path class="cls-24" d="M442.98,1217.44c4.61-2.72,9.92-3.59,15.2-3.86s10.88-.23,16.28,.04c10.22,.53,19.99,2.85,28.77,8.22,16.49,10.09,26.87,27.84,29.17,46.86,1.44,11.92-.05,24.09-3.9,35.44-.16,.46,.57,.65,.72,.2,6.79-20.01,6.23-43.07-4.62-61.58-4.62-7.88-10.95-14.78-18.49-19.95-8.27-5.66-17.66-8.72-27.6-9.65-6.37-.6-12.86-.63-19.25-.38-5.76,.22-11.6,1.04-16.64,4.01-.42,.25-.04,.89,.38,.65h0Z"/>
      <path class="cls-24" d="M512.28,1260.05c3.33,11.08,2.01,23.24-3.11,33.58-4.94,9.98-13.41,17.83-23.41,22.62-5.7,2.73-11.86,4.45-18.14,5.1-.48,.05-.48,.8,0,.75,11.24-1.17,22.08-5.7,30.61-13.14s14.61-18.36,16.2-29.93c.88-6.42,.44-12.97-1.43-19.18-.14-.46-.86-.26-.72,.2h0Z"/>
      <path class="cls-24" d="M486,1301.83c-10.22,7.85-22.29,13.06-35.01,15.12-.48,.08-.27,.8,.2,.72,12.78-2.07,24.92-7.31,35.19-15.19,.38-.29,0-.94-.38-.65h0Z"/>
      <path class="cls-24" d="M380.83,1182.47c15.52,2.46,28.19,14.37,31.41,29.78,.95,4.54,1.07,9.23,.35,13.82-.07,.47,.65,.68,.72,.2,2.54-16.14-5.38-32.46-19.76-40.26-3.9-2.12-8.14-3.56-12.53-4.25-.47-.07-.68,.65-.2,.72h0Z"/>
      <path class="cls-24" d="M398,1212.14c3.67,4.06,5.75,9.38,5.82,14.85,0,.48,.76,.48,.75,0-.08-5.67-2.24-11.17-6.04-15.38-.32-.36-.85,.17-.53,.53h0Z"/>
      <path class="cls-24" d="M564.03,1305.34c11.34-12.62,28.33-18,44.92-18.16,5.34-.05,10.68,.4,15.96,1.2,.47,.07,.68-.65,.2-.72-17.42-2.64-36.07-1.31-51.25,8.39-3.83,2.45-7.32,5.38-10.36,8.76-.32,.36,.21,.89,.53,.53h0Z"/>
      <path class="cls-24" d="M616.74,1295.51c11.17-3.04,23.66,1.01,30.95,9.98,.3,.37,.83-.16,.53-.53-7.46-9.18-20.28-13.28-31.68-10.18-.47,.13-.27,.85,.2,.72h0Z"/>
      <path class="cls-24" d="M175.49,1130.75c4.09-7.87,11.37-13.85,19.79-16.57s19.94-2.5,26.11,5.1c3.13,3.86,4.61,9.01,3.81,13.92-.08,.47,.65,.68,.72,.2,1.5-9.27-4.46-18.23-13.46-20.67s-19.71,.23-27.38,5.81c-4.27,3.11-7.81,7.14-10.25,11.83-.22,.43,.42,.81,.65,.38h0Z"/>
      <path class="cls-24" d="M191.18,1137c1.28,3.42,4.61,5.48,8.12,6.03,4.6,.72,9.12-1.13,13.27-2.89,.44-.19,.06-.83-.38-.65-3.82,1.62-7.97,3.34-12.21,2.88-3.39-.37-6.83-2.25-8.08-5.57-.17-.45-.89-.25-.72,.2h0Z"/>
      <path class="cls-24" d="M22.02,1189.78c4.84,5.87,12.9,8.6,20.32,6.95,.47-.11,.27-.83-.2-.72-7.17,1.6-14.92-1.09-19.59-6.75-.31-.37-.84,.16-.53,.53h0Z"/>
      <path class="cls-9" d="M782.6,1327.13c2.58,5.64,7.73,14.78,16.86,20.99,11.71,7.97,29.49,10.78,42.65-1.23,7.08-6.46,10.41-15.03,11.9-19.75,3.36,3.55,8.32,7.66,14.88,9.88,20.65,6.97,38.45-11.24,40.66-13.58,1.52-2.09,6.17-7.94,13.88-9.88,9.07-2.27,16.09,2.44,17.85,3.7,2.4,1.9,6.12,4.21,10.91,4.94,12.89,1.95,22.33-9.29,23.8-11.11-.53-4.81-2.32-6.78-2.98-7.41-3.88-3.7-11.6-1.9-17.85,6.17-2.15-2.76-5.43-6.47-9.92-9.88-4.78-3.63-12.59-9.55-22.81-8.64-10.1,.9-17.09,7.97-19.84,11.11-2.98-.82-5.95-1.65-8.93-2.47,.02-1.13,.09-12.25-6.94-18.52-3.48-3.1-7.13-3.61-8.93-3.7-2.79-6.59-8.1-10.87-13.88-11.11-6.86-.28-13.3,5.17-15.87,13.58-1.5-3.96-4.45-10.4-9.92-16.05-2.09-2.16-11.34-11.73-19.84-9.88-9.9,2.16-18.65,19.81-17.85,43.21-2.84-1.21-7.34-2.65-12.89-2.47-3.72,.12-11.85,.39-18.84,7.41-9.14,9.17-9.83,23.33-9.92,25.92,1.42,1.55,4.1,4.01,7.93,4.94,8.49,2.06,15.04-5.23,15.87-6.17Z"/>
      <path class="cls-2" d="M-352.5,775.5C-339.4,591.37-186.22,450.75,1.25,450.75c87.91,0,163.25,28.82,225.25,81.75"/>
      <path class="cls-5" d="M-329.5,777.5C-317.15,605.67-173.72,474.25,1.25,474.25c78.25,0,150.17,27.11,206.88,72.46"/>
    </g>
  </g>
</svg>