<?xml version="1.0" encoding="UTF-8"?>
<svg id="_Слой_2" data-name="Слой 2" xmlns="http://www.w3.org/2000/svg" xmlns:xlink="http://www.w3.org/1999/xlink" viewBox="0 0 680 916">
  <defs>
    <style>
      .cls-1 {
        opacity: .62;
      }

      .cls-1, .cls-2, .cls-3, .cls-4 {
        fill: gray;
      }

      .cls-5 {
        fill: #3a3a4c;
      }

      .cls-2 {
        opacity: .59;
      }

      .cls-6 {
        stroke: #ffeb62;
        stroke-linecap: round;
      }

      .cls-6, .cls-7 {
        stroke-miterlimit: 10;
      }

      .cls-6, .cls-7, .cls-8 {
        fill: none;
      }

      .cls-9 {
        fill: #353544;
      }

      .cls-10 {
        fill: #e2e2e2;
      }

      .cls-11 {
        fill: #ffeb62;
        opacity: .47;
      }

      .cls-12 {
        fill: #a0a0a0;
      }

      .cls-13 {
        opacity: .35;
      }

      .cls-14 {
        fill: #1a1a1e;
      }

      .cls-15 {
        fill: #1b1d1f;
      }

      .cls-16 {
        fill: #333;
      }

      .cls-7 {
        stroke: #111010;
        stroke-width: .5px;
      }

      .cls-17 {
        fill: #222228;
      }

      .cls-18 {
        fill: #2a2a35;
      }

      .cls-19 {
        clip-path: url(#clippath);
      }

      .cls-20 {
        fill: #bcbcbc;
      }

      .cls-21 {
        fill: #c9b243;
      }

      .cls-22 {
        fill: #111010;
      }

      .cls-23 {
        fill: #242628;
      }

      .cls-24 {
        fill: #666;
      }

      .cls-4 {
        opacity: .38;
      }
    </style>
    <clipPath id="clippath">
      <rect class="cls-8" width="680" height="916"/>
    </clipPath>
  </defs>
  <g id="_Слой_1-2" data-name="Слой 1">
    <g class="cls-19">
      <rect class="cls-15" width="680" height="916"/>
      <path class="cls-23" d="M220.01,823.62c-.26-2.81-1.51-16.32-11.24-19.67-7.14-2.46-16.42,1.38-21.78,9.83-.38-8.55-2.23-23.64-11.24-39.34-5.59-9.73-12.54-21.84-23.18-23.18-12.72-1.6-27.97,12.53-35.83,35.12,.76-20.23-4.21-35.24-7.73-43.55-5.21-12.32-10.31-24.37-23.18-30.91-15.69-7.97-32.24-2.32-36.53-.7,1.6-5.48,3.69-15.45,1.4-27.4-.81-4.21-4.76-24.86-22.48-35.12-11.39-6.6-19.43-7.57-28.3-4.4-39.71,11.9-85.07,69.55-87.61,75-.54-1.23-4.06-20.54-22.99-23.18-12.86-1.79-22.55,4.59-25,6.32,10.5-29.04,1.87-56.5-15.28-65.33-10.7-5.51-22.58-2.67-28.48-.7-.3-.48-6.05-9.33-16.67-9.13-10.18,.18-15.58,8.5-15.97,9.13-2.11-10.39-9.27-18.78-18.75-21.78-10.21-3.23-18.93,1.1-20.84,2.11-.61-1.86-5.38-15.83-16.67-18.97-12.79-3.55-30.81,7.68-36.12,29.5-2-2.13-8.38-8.34-18.06-9.13-11.59-.95-23.18,6.27-29.17,18.26-3.68-3.32-21.38-18.6-45.15-16.16-26.12,2.68-48.92,25.68-54.18,56.9-6.92-1.14-13.35,2.67-15.28,8.43-2.19,6.55,2.53,12.35,2.78,12.64-5.91,3.49-12.37,8.06-18.75,14.05-21.41,20.09-28.75,42.28-31.95,55.5-3.21,.21-13.09,3.36-19.45,10.54-8.59,9.7-8.66,26.8,1.39,40.74-.37-.18-4.17-1.98-7.64,0-3.27,1.86-4.87,6.29-3.47,10.54-2.36-2.29-8.71-7.79-18.06-8.43-7.5-.52-19.53,1.92-23.61,11.24-.02,.05-.04,.1-.06,.14-2.39,5.6,1.84,11.81,7.93,11.83,181.91,.57,401.1-6.09,581.81-5.29v-.25c70.86,.27,141.71-.07,212.57,.24,1.36-2.91,3.45-8.49,2.81-15.45Z"/>
      <path class="cls-23" d="M1341.6,797.72c-8.12-5.52-21-5.82-32.6-1.77,12.35-11.39,11.77-27.53,1.42-35.91-7.28-5.89-18.9-7.55-29.77-4.71,1.84-6.31,3.68-15.5,2.84-26.49-1.94-25.07-18.04-61.28-48-65.49-5.39-.76-15.51-1.09-29.23,5.34,4.01-13.2,1.22-27.41-7.01-36.02-8.32-8.7-18.85-8.17-21.04-8-.99-1.29-7.29-9.21-17.54-9.34-12.32-.15-19.31,11.07-19.88,12.01,9.2-31.55-6.12-62.16-26.89-68.04-14.9-4.22-32.34,4.35-43.26,21.35,14.75-23.53,11.95-53.86-3.51-69.37-16.84-16.9-40.93-8.43-42.09-8-2.02-1.6-14.64-11.21-30.4-6.67-10.19,2.93-16.37,10.25-18.71,13.34-6.6-19.98-19.07-33.67-32.74-34.69-10.12-.75-17.98,5.67-25.72,12.01-15.31,12.53-22.6,28.8-29.23,44.03-3.64,8.37-8.21,20.51-11.69,36.02,2.49-22.1-5.52-41.49-18.71-48.03-7.05-3.49-14.12-2.58-18.71-1.33-4.48-2.4-15.82-7.59-29.23-4-17.22,4.61-30.82,21.83-35.07,44.03-4.66,2.73-15.69,10.1-23.38,25.35-4.66,9.24-6.57,18.33-7.23,25.78-1.87-15.47-8.66-26.89-17.33-29.78-7.86-2.62-15.86,2.26-18.71,4-14.26,8.71-18.03,26-18.71,29.35-3.73,3.23-10.54,10.03-15.2,21.35-3.54,8.6-4.45,16.42-4.68,21.35-.99-.74-2.83-12.97-3.53-22.11-12.52-37.2-37.01-62.91-63.22-63.93-5.08-.2-11.5,.48-18.97,3.51-2-5.85-7.4-9.79-13.35-9.83-5.24-.04-10.13,2.96-12.64,7.73-.69-23.2-14.62-40.03-29.5-41.45-9.62-.91-17.58,4.8-21.07,7.73-3.06,.19-13.69,1.25-22.48,9.83-5.89,5.75-8.21,12.2-9.13,15.45-2.89-.24-8.03-.22-12.64,2.81-6.03,3.96-7.68,10.78-9.83,19.67-1.12,4.62-2.35,11.6-2.11,20.37-2.18-14.45-9.89-25.29-19.67-27.4-7.82-1.68-14.7,2.71-20.37,6.32-15.14,9.65-22.16,24.41-25.29,33.02-5.69,7.14-15.8,22.06-17.56,42.85-.59,6.92-.13,13.1,.7,18.26-.41-1.6-2.09-7.29-7.73-11.24-4.32-3.03-8.7-3.44-10.54-3.51-3.56-3.85-11.34-10.99-21.07-10.54-14.69,.68-23.7,18.16-28.1,26.69-5.87,11.39-7.38,21.43-7.73,23.88-5.58,39.37,1.73,130.89,2.11,135.58,24.02-.05,286.61,2.21,286.61,2.21,144.7-.68,261.13-.44,343.17-.06,76.8,.36,342.73-9.87,342.73-9.87,16.16,14.05,64.63,14.05,70.37,9.34,16.66-14.54,15.01-34.69,2.84-42.97Z"/>
      <path class="cls-17" d="M-335.07,302.1c6.12,2.41,15.43,5.13,26.91,4.96,17.26-.25,30.25-6.91,36.78-10.91,5.64,17.87,19.45,30.9,35.88,33.73,21.6,3.73,36.84-12.04,38.57-13.89,1.31,3.58,5.62,14.08,16.15,20.84,2.31,1.49,17.4,10.8,28.7,3.97,11.44-6.91,8.81-24.2,21.53-30.76,4.56-2.35,9.05-2.26,11.66-1.98,1.35,6.17,4.54,16.09,12.56,23.81,16.18,15.59,38.66,9.39,43.95,7.94,11.55-3.18,19.7-9.65,24.22-13.89,.39,.92,5.37,12.16,16.15,13.89,9.43,1.52,19.24-4.9,23.32-15.87,4.27,2.96,9.98,6.08,17.04,7.94,21.27,5.59,39.16-4.41,44.85-7.94,3.65,.47,7.55,.82,11.66,.99,8.27,.34,15.8-.14,22.42-.99-.92-3.05-2.9-8.2-7.18-12.9-2.46-2.7-8.82-9.67-17.94-8.93-10.84,.88-16.56,11.93-17.04,12.9-2.3-1.61-6.28-3.95-11.66-4.96-6.4-1.2-11.61,.09-14.35,.99,1.54-2.79,4.23-8.64,3.59-15.87-1.46-16.41-18.62-23.38-19.73-23.81-10.72-4.15-20.27-.38-23.32,.99,2.27-3.35,8.68-13.74,7.18-26.79-2.17-18.74-19.62-33.79-37.67-32.74-14.7,.85-27.89,12.26-33.19,28.77-7.19-15.34-21.15-25.06-35.88-24.8-18.27,.31-34.79,15.9-38.57,37.7-2.96-15.76-14.79-23.5-22.42-20.84-5.12,1.79-8.73,8.4-9.87,15.87-5.65-4.5-12.78-4.68-17.04-.99-5.7,4.93-6.55,17,.9,24.8-.07,.53-1.13,7.4-6.28,9.92-5.01,2.45-11.86-.2-15.25-6.95-.39-1-7.71-19.05-25.11-21.83-13.13-2.09-26.44,5.4-33.19,18.85-6.72-13.06-11.37-15.26-14.35-14.88-3.83,.49-5.56,5.35-12.56,14.88-4.48,6.11-8.65,10.75-11.66,13.89-4.63-2.91-12.36-6.89-22.42-7.94-7.37-.77-20.51-.44-21.53,3.97-.49,2.14,1.43,7.1,24.22,18.85Z"/>
      <path class="cls-17" d="M509.97,349.7c2.57-.64,3.95-.28,9.35-.23,1.43,.01,5.47,.05,8.57-.21,5.98-.5,6.75-1.97,15.49-4.14,6.46-1.6,9.76-2.38,13.22-1.58,4.64,1.08,7.39,4.2,8.72,6.05,.86-2.07,2.74-5.62,6.8-8.93,6.2-5.06,13.52-6.31,16.21-6.66,8.82-.63,17.64-1.27,26.46-1.9,1.91-.2,4.75-.7,7.75-2.07,5.78-2.65,8.31-6.79,9.15-8.36,2.71-5.91,5.43-11.82,8.14-17.73,.13-.95,.9-5.65,6.02-8.91,4.14-2.64,8.61-2.74,10.07-2.75,6.62-.07,12.55,3.02,15.77,7.13,3.78,4.81,2.91,9.81,2.61,11.2,1.05-1.59,2.92-3.79,6.11-5.16,5.79-2.49,12.13-.62,18.75,1.42,7.68,2.37,17.52,5.4,22.95,13.84,3.31,5.14,3.59,10.13,3.44,13.06,5.57-1.93,13.82-3.97,23.32-3.08,10.17,.96,15.04,4.67,29.93,12.41,11.77,6.13,25.32,13.1,42.55,18.36,19.76,6.04,28.32,4.93,32.07,4.22,10.02-1.88,16.99-6.71,20.81-9.9,.72-.97,13.05-17,30.01-16.39,5.63,.2,10.96,2.21,12.54,2.82,7.98,3.07,12.73,7.65,15.07,10.27,.39-2.53,1.28-6.39,3.64-10.73,2.84-5.25,7.3-13.48,16.77-15.44,9.98-2.07,19.05,4.18,20.4,5.13,7.65,5.98,16.89,6.87,21.15,3.86,.61-.43,2.86-2.18,2.96-6.33-.94-2.66-2.02-6.78-1.85-11.85,.14-4.28,.34-10.36,5.07-15.78,4.56-5.22,11.09-7.24,15.39-8.52,17.4-5.17,34.22,.15,39.82,2.15-.48-2.58-.84-6.61,.5-11.28,2.74-9.53,10.7-15.24,14.38-17.88,16.67-11.97,54.83-21.7,75.49-5.61,12.26,9.54,12.64,23.71,12.41,29.12,2.17-.74,10.2-3.23,17.92-.44,9.76,3.53,15.33,14.13,11.54,25.39-.04,2.14,.23,7.64,4.98,12.4,6.13,6.14,15.5,6.81,18.89,7.05,13.15,.93,18.8-4.81,30.24-7,8.67-1.66,21.89-1.52,40.73,7.77,4.25-.53,11.3-.95,19.51,.77,5.8,1.22,10.3,3.11,13.37,4.68,6.03-1.47,11.37-.83,13.29,1.55,2.29,2.85-.91,7.43-2.12,8.82-9.42,10.76-49.63,.83-59.3-1.68-1.05,.18-4.33,.84-6.94,3.3-3.08,2.9-2.99,6.22-2.95,6.96-1.37,3.85-3.73,5.94-5.29,7.02-7.42,5.15-21.13,4.47-33.58-2.31,.17,4.14-.53,10.61-5.85,15.79-10.71,10.43-32.78,8.51-45.91,3.63-11.4-4.24-17.75-11.33-20.64-15.15-1.63,1.62-8.54,8.09-20.05,9.26-11.51,1.16-23.1-3.44-29.92-11.79-5.73,2.86-14.52,6.22-24.81,5.62-12.7-.74-18.28-6.96-29.89-10.54-8.86-2.73-22.7-4.37-43.62,1.69-1.63,3.22-4.73,8.04-10.62,12.16-11.6,8.11-25.99,7.9-35.68,7.76-23.27-.34-40.77-8.79-49.46-13.81-.22,1.68-1.2,7.22-6.75,10.81-7.12,4.6-18.97,4.2-28.11-1.82-4.54,1.01-11.29,2.05-19.45,1.73-7.2-.29-13.08-1.54-17.22-2.71-3.14-.45-10.03-1.42-18.78-2.67-48.45-6.91-57.25-8.33-71.12-7.02-15,1.41-13.47,3.9-27.94,5.07-21.14,1.7-38.95-2.43-50.83-6.27-3.73,2.02-9.51,4.51-17.02,5.43-20.2,2.47-35.31-8.56-37.68-10.35-2.6-.94-8.6-2.77-16.42-2.1-7.74,.66-13.14,3.41-15.48,4.76-1.05,.81-8.42,6.3-19.36,5.48-11.55-.87-17.45-8.06-18.15-8.95-9.16,1.36-16.34,.7-21.05-.11-2.76-.47-13.25-2.27-13.38-5.31-.09-1.93,4.05-3.84,6.91-4.55Z"/>
      <path class="cls-24" d="M458.9,748.66c4.16-13.12,14.87-23.39,28.18-26.92,3.96-1.05,8.03-1.48,12.12-1.32,1.93,.07,1.93-2.93,0-3-15.13-.57-29.67,6.89-38.01,19.51-2.23,3.38-3.97,7.08-5.19,10.94-.59,1.84,2.31,2.63,2.89,.8h0Z"/>
      <path class="cls-16" d="M605.67,681.15c-19.11,6.8-33.88,20.47-44.81,37.29-6.71-3.68-15.97-2.62-22.63-.06-9.13,2.88-13.33,11.03-15.52,19.93-2.19-4.93-5.45-9.45-9.77-12.91-18.26-13.35-39.34-3.51-50.58,12.64-4.34,6.52-7.22,13.45-9.15,20.61-5.62-4.73-12.47-6.81-19.65-3.04-3.96,1.98-7.69,5.51-9.94,9.86-6.64-3.09-14.01-4.62-20.97-4.24-24.59,.7-41.45,18.97-49.88,40.04-6.44,15.36-5.88,33.51,.42,49.04,99.14-.19,221.47,.19,320.61,0v-154.55c-12.72-9.88-53.2-19.79-68.14-14.62Z"/>
      <path class="cls-24" d="M331.7,347.34c1.51-.49,3.18-1.17,4.92-2.11,4.78-2.58,7.94-5.96,9.83-8.43-.49-1.04-.97-2.21-1.4-3.51-.78-2.35-1.19-4.5-1.4-6.32-.7-2.58-1.4-5.15-2.11-7.73h4.21c.2,1.81,.6,3.97,1.4,6.32,1.54,4.51,3.87,7.78,5.62,9.83,1.28,.55,2.94,1.1,4.92,1.4,3.94,.6,7.21-.11,9.13-.7,.71-1.19,1.53-2.84,2.11-4.92,.45-1.6,.63-3.04,.7-4.21,1.4-.23,2.81-.47,4.21-.7,.28,1.66,.64,5.11-.7,9.13s-3.7,6.57-4.92,7.73c-1.93,.31-4.05,.56-6.32,.7-3.08,.19-5.91,.16-8.43,0-.84,1.15-1.77,2.33-2.81,3.51-3.53,4.03-7.25,6.98-10.54,9.13-2.81-3.04-5.62-6.09-8.43-9.13Z"/>
      <path class="cls-18" d="M378.77,502.58c-1.08,3.95-.95,7.16-.7,9.13,.34,2.77,1,8.06,4.21,9.13,1.56,.52,3.19-.14,4.21-.7-.05,1.27-.09,3.23,0,5.62,.55,15.12,5.29,23.52,6.32,25.29,1.67,2.86,3.48,5.95,4.92,5.62,2.08-.48,3.65-8.2,0-12.64-1.39-1.69-3.16-2.46-4.21-2.81-.87-1.17-2.4-3.6-2.81-7.02-.65-5.47,2.07-9.51,2.81-10.54,.27,2.22,.74,3.39,1.4,3.51,.98,.18,2.38-1.93,4.21-6.32,.07,1.77,.58,3.31,1.4,3.51,.98,.25,2.61-1.34,3.51-4.21-.26,1.68-.51,4.82,.7,8.43,1.8,5.34,5.65,8.2,7.02,9.13,0,2.31-.02,5.71,0,9.83,.08,20.13,.61,22.34,1.4,22.48,1.28,.23,3.17-4.9,4.21-7.73,1.41-3.82,3.49-10.77,3.51-20.37,0-4.19-.37-10.04-2.11-16.86,.75,.54,2.25,1.44,4.21,1.4,2.63-.04,5.51-1.74,5.62-3.51,.07-1.08-.91-1.91-.7-2.11,.33-.31,2.14,2.19,4.21,2.11,1.82-.07,3.7-2.11,4.21-4.21,.68-2.78-1.05-5.54-4.21-10.54-.56-.88-1.05-1.6-1.4-2.11-.23-.47-.47-.94-.7-1.4-17.09-.7-34.19-1.4-51.28-2.11Z"/>
      <path class="cls-24" d="M319.06,548.95c.16-.62,.52-1.72,1.4-2.81,1.02-1.25,2.2-1.85,2.81-2.11,2.26-1.2,4.62-2.59,7.02-4.21,7.4-5,12.89-10.58,16.86-15.45,.66-.28,1.62-.61,2.81-.7,1.91-.15,3.42,.36,4.21,.7,1,1.45,2.38,3.18,4.21,4.92,2.02,1.91,4,3.27,5.62,4.21,.73-.09,1.71-.28,2.81-.7,.21-.08,1.98-.78,3.51-2.11,2.42-2.1,3.29-4.96,3.51-5.62,.95-2.83,4.4-8,15.45-18.26-.94-.94-1.87-1.87-2.81-2.81-2.76,2.62-5.58,5.42-8.43,8.43-3.86,4.07-7.36,8.07-10.54,11.94-.13,.12-.94,.82-2.11,.7-1.38-.14-2.05-1.3-2.11-1.4-.79-.84-1.99-2.08-3.51-3.51-3.01-2.84-4.56-4.28-6.32-4.92-.41-.15-3.64-1.27-7.02,0-3.12,1.17-4.09,3.51-7.02,7.02,0,0-1.44,1.73-8.43,7.73-9.11,7.82-30.78,14.97-34.42,16.16,7.49,.94,14.99,1.87,22.48,2.81Z"/>
      <path class="cls-24" d="M177.16,506.8c-1.41,1.14-3.84,3.39-5.62,7.02-1.71,3.48-2.05,6.64-2.11,8.43,2.58,1.64,5.15,3.28,7.73,4.92,.11-1.24,.31-2.66,.7-4.21,.57-2.27,1.36-4.16,2.11-5.62,.56-.12,1.58-.27,2.81,0,1.41,.31,2.36,1.02,2.81,1.4,1.88,2.95,3.76,6,5.62,9.13,4.14,6.96,7.87,13.77,11.24,20.37,.19,.73,.57,1.79,1.4,2.81,1.99,2.46,4.95,2.76,5.62,2.81,2.43,1.18,5.03,2.57,7.73,4.21,2.31,1.41,4.42,2.83,6.32,4.21,.2,.28,.71,1.04,.7,2.11,0,1.66-1.23,2.67-1.4,2.81-1.96,1.48-4.13,3.33-6.32,5.62-3.1,3.23-5.38,6.43-7.02,9.13,.94,.7,1.87,1.4,2.81,2.11,.96-1.56,2.12-3.22,3.51-4.92,3.1-3.78,6.38-6.51,9.13-8.43,.7-.1,1.69-.29,2.81-.7,1.11-.4,2.08-.76,2.81-1.4,2.05-1.82,1.95-5.75,.7-8.43-.63-1.35-1.5-2.27-2.11-2.81-.62-.29-1.62-.76-2.81-1.4-4.08-2.19-5.84-3.83-9.83-6.32-1.11-.69-2.78-1.7-4.92-2.81-.58-.42-1.37-1.1-2.11-2.11-.78-1.07-1.19-2.1-1.4-2.81-4.92-9.37-9.83-18.73-14.75-28.1-2.13-1.18-4.47-2.37-7.02-3.51-3.23-1.45-6.3-2.59-9.13-3.51Z"/>
      <path class="cls-18" d="M181.37,445.68c2.22,1.77,4.41,3.5,7.73,4.92,8.81,3.76,17.31,1.83,21.07,.7-.78,1.44-1.85,3.87-2.11,7.02-.14,1.75-.36,4.38,.7,4.92,.86,.44,2.81-.36,7.73-6.32,.1,4.37,2.54,7.13,4.21,7.02,1.55-.1,3.36-2.7,3.51-6.32,1.16,1.93,2.47,2.94,3.51,3.51,5.16,2.83,13.42,.09,20.37-7.02l3.51,3.51c-4.09,1.56-5.41,5.66-4.21,7.73,.99,1.71,4.01,2.57,7.02,1.4,.28,1.25,1.2,4.53,4.21,7.02,5.29,4.38,12.12,2.28,12.64,2.11,.73-.48,2.47-1.79,3.51-4.21,.91-2.14,.81-4.04,.7-4.92,.11,.63,.69,3.69,3.51,5.62,1.68,1.15,7.6,2.77,8.43,2.81-.18,6.26,4.92,15.45,.7,26.69-5.3,14.14,.17,35.21,2.81,35.12,1.23-.04,2.83-4.8,4.21-27.4,1.04,.62,2.51,1.28,3.51,.7,1.31-.75,1.23-3.29,.7-7.02-1.43-10.11-3.96-13.45-4.21-20.37-.06-1.68-.02-4.36,.7-7.73,1.53,1.22,2.98,1.82,4.21,2.11,6.73,1.58,15.07-4.13,21.07-14.05-.76,7.46-.44,13.46,0,17.56,.81,7.57,2.1,9.39,3.51,9.83,1.46,.46,3.1-.52,4.21-1.4v18.26c-1.42,.77-4.88,2.9-6.32,7.02-.85,2.43-1.1,5.83,0,6.32,1.6,.72,5.75-4.84,6.32-5.62,.63-.85,1.1-1.59,1.4-2.11-1.82,6.04-1.51,10.69,.7,11.94,.84,.48,2.01,.49,2.81,0,3.45-2.1,.1-13.57-1.4-18.26-.29-3.41-.62-8.24-.7-14.05-.08-5.81-.19-17.29,2.11-30.91,2.32-13.75,4.45-14.03,4.21-18.26-1.27-23.37-67.77-47.68-127.85-37.93-19.19,3.11-43.06,10.57-43.55,20.37-.38,7.56,13.07,18.33,14.75,19.67Z"/>
      <path class="cls-24" d="M223.52,765.31c-.48-3.79-.77-8.03-.7-12.64,.16-10.44,2.11-19.29,4.21-25.99-2.59-3.38-5.2-7.12-7.73-11.24-7.47-12.16-11.96-23.89-14.75-33.72-.47-6.44-.49-14.31,.7-23.18,1.68-12.55,5.2-22.79,8.43-30.21-.25-2-.34-4.38,0-7.02,1.11-8.57,6.01-14.37,8.43-16.86,1.3-.48,3.87-1.21,7.02-.7,1.8,.29,3.23,.89,4.21,1.4,2.31-1.32,5.91-3.21,10.54-4.92,8.74-3.22,11.63-2.29,19.67-4.92,9.63-3.15,7.65-5.2,17.56-8.43,5.7-1.86,9.68-2.26,17.56-5.62,5.85-2.49,7.87-4.07,8.43-6.32,.94-3.75-2.6-7.51-3.51-8.43-2.6-.37-6.05-1.13-9.83-2.81-4.88-2.16-8.36-4.96-10.54-7.02-7.49-4.21-14.99-8.43-22.48-12.64-1.98-.06-4.63-.23-7.73-.7-1.52-.23-6.53-1.02-11.24-2.81-1.56-.59-6.44-2.56-14.05-9.13-9.75-8.42-10.14-12.43-18.26-18.97-4.93-3.96-9.59-6.36-12.64-7.73-.53,.18-2.39,.87-3.51,2.81-1.71,2.97-.11,6.11,0,6.32-6.32-.94-12.64-1.87-18.97-2.81,1.37-1.78,2.82-3.88,4.21-6.32,1.14-1.98,2.06-3.88,2.81-5.62-.7-2.58-1.4-5.15-2.11-7.73,1.11-.73,2.76-1.61,4.92-2.11,4.18-.96,7.65,.13,9.13,.7,1.46,.93,3.67,2.38,6.32,4.21,6.15,4.27,8.23,6.22,12.64,9.13,2.25,1.48,5.55,3.52,9.83,5.62,1.84,1.51,3.72,3.14,5.62,4.92,4.09,3.82,7.58,7.63,10.54,11.24,1.8,.84,5.29,2.18,9.83,2.11,4.17-.07,7.37-1.28,9.13-2.11,1.49-3.04,2.96-6.56,4.21-10.54,2.64-8.38,3.42-15.93,3.51-21.78-.85-1.77-2.23-4.51-4.21-7.73-2.23-3.62-3.51-5.08-5.62-8.43,0,0-2.18-3.47-4.92-9.13-3.17-6.55-8.19-20.84-12.64-40.04h8.43c.56,4.73,1.6,10.22,3.51,16.16,3.95,12.28,9.99,21.42,14.75,27.4,.47,.85,3.58,6.24,9.13,7.02,6.31,.89,16.39-7.28,18.26-16.16,2.34,.7,1.17,2.11,3.51,2.81-.56,2.33-2.42,7.13-4.92,10.54-5.08,6.93-10.83,9.87-13.35,10.54-.23,2.03-.65,5.24-1.4,9.13-2.17,11.11-4.61,14.93-4.92,22.48-.11,2.76,.03,6.86,1.4,11.94,.92,2.25,3.75,8.33,10.54,12.64,5.85,3.72,11.56,4.17,14.05,4.21,4.21-.94,8.43-1.87,12.64-2.81,.91-.04,4.03-.08,7.02,2.11,3.13,2.29,4.01,5.47,4.21,6.32,.69,2.21,2.21,6.09,5.62,9.83,3.91,4.31,8.29,6.22,10.54,7.02,3.98,.7,7.96,1.4,11.94,2.11,.87,.42,3.53,1.82,4.92,4.92,2.36,5.27-1.25,10.33-1.4,10.54-2.08,2.52-5.49,6.07-10.54,9.13-4.6,2.8-8.9,4.19-11.94,4.92-2.61-.4-5.68-.7-9.13-.7-2.64,0-5.72,.17-9.13,.7-9.81,3.22-19.89,6.72-30.21,10.54-9.96,3.68-19.56,7.44-28.8,11.24-2.22,1.4-5.48,3.83-8.43,7.73-3.52,4.64-4.97,9.22-5.62,11.94-1.08,4.58-2,10.28-2.11,16.86-.17,10.2,1.69,18.66,3.51,24.59,4.16,1.57,9.68,4.15,15.45,8.43,6.27,4.64,10.58,9.61,13.35,13.35,3.9-.95,8.63-1.79,14.05-2.11,6.27-.37,11.76,.06,16.16,.7,3.6,1.5,8.02,3.72,12.64,7.02,5.73,4.09,9.85,8.47,12.64,11.94-4.3,6.81-10.2,14.25-18.26,21.07-31.35,26.51-71.26,23.08-82.19,21.78Z"/>
      <path class="cls-18" d="M151.17,613.95c.77,3.77,1.48,7.7,2.11,11.77,2.45,15.95,3.11,30.71,2.81,43.71-.51,1.4-1.01,3.09-1.4,5.04-.59,2.93-.72,5.53-.7,7.56-1.04,1.35-2.51,3.58-3.51,6.72-.1,.33-2.06,6.53-.7,7.56,1.4,1.06,5.45-3.99,5.62-4.2-.76,2.97-1.57,7.33-1.4,12.61,.11,3.49,.73,9.93,2.11,10.09,.38,.04,1.56-.31,3.51-8.41-.33,2.27-.78,7.37,1.4,12.61,1.69,4.05,5.02,8.32,6.32,7.56,.95-.56,1.16-4.04-2.11-16.81-1.34-3.22-3.2-8.76-3.51-15.97-.41-9.49,2.1-16.74,3.51-20.17,.38-4.08,.7-10.25,0-17.65-.72-7.69-2.11-12.1-2.81-15.97-1.27-7-1.3-17.62,4.92-32.78,.91-.46,3.3-1.49,6.32-.84,2.98,.64,4.89,2.55,5.62,3.36-.6,4.17-1.29,8.67-2.11,13.45-3.16,18.54-5.34,25.04-2.81,33.62,1.17,3.97,3.21,7.88,4.21,7.56,1.86-.58-1.57-15.02,.7-33.62,.88-7.21,2.37-13,3.51-16.81,1.58-1.81,3.89-4.05,7.02-5.88,5.49-3.21,10.58-3.47,13.35-3.36-1.01-3.56-4.73-15.15-14.75-21.85-8.26-5.52-23.27-9.38-32.31,1.68-9.03,11.04-5.15,28.45-4.92,29.42Z"/>
      <path class="cls-1" d="M136.99,275.65c-1.77-.05-3.92-.26-6.31-.79-2.06-.46-3.85-1.05-5.35-1.66-2.29-5.79-2.98-15.95-2.86-18.59-.08,2.7-.4,5.97-1.2,9.63-.77,3.48-1.81,6.46-2.83,8.89-1.38,.53-2.98,1.04-4.79,1.44-2.39,.53-4.54,.73-6.31,.79,1.59-.07,7.3,.3,11.17,1.52,1,2.4,2,5.32,2.76,8.72,.81,3.65,1.12,6.93,1.2,9.63-.11-2.53,.51-11.9,2.56-17.78,3.83-1.43,10.27-1.87,11.97-1.79Z"/>
      <path class="cls-11" d="M627.04,214.57c-3.67-.11-8.12-.54-13.08-1.63-4.27-.95-7.99-2.19-11.1-3.43-4.75-11.99-6.17-33.05-5.94-38.54-.17,5.59-.82,12.38-2.49,19.95-1.6,7.22-3.75,13.39-5.86,18.42-2.86,1.09-6.18,2.15-9.93,2.98-4.96,1.1-9.41,1.52-13.08,1.63,3.29-.14,15.14,.63,23.15,3.15,2.06,4.96,4.15,11.02,5.71,18.08,1.67,7.57,2.32,14.36,2.49,19.95-.22-5.24,1.06-24.66,5.31-36.84,7.93-2.97,21.28-3.87,24.81-3.72Z"/>
      <path class="cls-3" d="M70.11,464.18c-3.27-.1-7.24-.48-11.66-1.46-3.81-.84-7.12-1.95-9.89-3.06-4.23-10.69-5.5-29.46-5.29-34.35-.15,4.98-.73,11.04-2.22,17.78-1.42,6.44-3.34,11.94-5.22,16.42-2.55,.97-5.51,1.91-8.85,2.65-4.42,.98-8.39,1.36-11.66,1.46,2.94-.12,13.5,.56,20.64,2.81,1.84,4.43,3.7,9.83,5.09,16.12,1.49,6.75,2.07,12.8,2.22,17.78-.2-4.67,.95-21.98,4.73-32.84,7.07-2.65,18.97-3.45,22.11-3.31Z"/>
      <path class="cls-2" d="M561.41,295.47c-1.82-.06-4.03-.27-6.49-.81-2.12-.47-3.96-1.08-5.5-1.7-2.35-5.95-3.06-16.39-2.94-19.11-.09,2.77-.41,6.14-1.24,9.89-.79,3.58-1.86,6.64-2.9,9.14-1.42,.54-3.07,1.06-4.93,1.48-2.46,.54-4.67,.75-6.49,.81,1.63-.07,7.51,.31,11.48,1.56,1.02,2.46,2.06,5.47,2.83,8.97,.83,3.75,1.15,7.12,1.24,9.89-.11-2.6,.53-12.23,2.63-18.27,3.93-1.47,10.55-1.92,12.3-1.84Z"/>
      <path class="cls-4" d="M632.36,512c-1.23-.04-2.73-.18-4.39-.55-1.44-.32-2.68-.73-3.73-1.15-1.6-4.03-2.07-11.1-1.99-12.95-.06,1.88-.28,4.16-.84,6.7-.54,2.43-1.26,4.5-1.97,6.19-.96,.37-2.08,.72-3.34,1-1.67,.37-3.16,.51-4.39,.55,1.11-.05,5.09,.21,7.78,1.06,.69,1.67,1.39,3.7,1.92,6.08,.56,2.54,.78,4.82,.84,6.7-.07-1.76,.36-8.28,1.78-12.38,2.66-1,7.15-1.3,8.33-1.25Z"/>
      <circle class="cls-13" cx="213.87" cy="284.44" r="23.88"/>
      <circle class="cls-14" cx="454.99" cy="342.77" r="7.38"/>
      <path class="cls-3" d="M153.27,849.61c-4.48-3.89-8.5-7.38-7.73-11.24,.69-3.44,5-6.11,10.54-7.02-2.5-4.05-2.35-7-2.11-8.43,1.24-7.32,11.65-13.57,25.99-13.35-.32-.59-1.77-3.38-.7-6.32,1.23-3.39,5.31-5.62,9.83-4.92,.18-1,1.62-8.17,8.43-11.94,5.41-3,12.16-2.71,17.56,.7,1.37-5.24,3.82-12.52,8.43-20.37,2.66-4.53,11.43-19.08,28.8-28.8,24.06-13.46,48.36-8.54,54.79-7.02,4.06-3.25,10.81-7.38,18.97-7.02,14.8,.65,29.19,15.86,32.31,37.93,2.54-.52,14.76-2.71,26.69,4.92,13.21,8.45,15.78,22.36,16.16,24.59,2.46-1.06,13.28-5.39,25.29-.7,6.99,2.73,11.29,7.3,13.35,9.83,3.26-.9,16.56-4.18,30.91,2.81,15.14,7.37,20.64,20.9,21.78,23.88,3.36-1.34,7.37-2.46,11.94-2.81,19.47-1.49,33.83,12.07,37.23,15.45,7.95,2.37,17.38,4.5,28.1,5.62,21.55,2.26,39.81-.43,52.69-3.51,.55-1.16,7.31-14.99,21.78-16.86,7.13-.92,12.83,1.48,15.45,2.81,.54-1.68,4.37-13.1,14.05-16.16,11.1-3.5,26.7,5.01,32.31,22.48,11.14-.86,18.99,6.3,18.97,12.64-.02,6.09-7.26,10.28-7.73,10.54-5.76,2.35-17.39,6.19-32.31,4.92-14.4-1.23-24.92-6.64-30.21-9.83-2.76,1.75-11.12,6.56-22.48,5.62-8.62-.71-14.75-4.38-17.56-6.32h-70.25c-7.1,3.71-19.21,8.93-35.12,10.54-16.3,1.65-29.49-1.21-37.23-3.51-10.66,6.44-37.84,20.87-74.46,18.97-25.12-1.3-44.2-9.74-54.79-15.45-1.65,1.34-17.43,13.79-37.23,8.43-13.83-3.74-21.18-13.89-23.18-16.86-1.44,1.47-26.38,26.09-57.6,18.26-15.2-3.81-24.74-13.52-28.8-18.26-2.28,1.46-13.26,8.12-26.69,4.92-7.77-1.85-12.7-6.13-16.16-9.13Z"/>
      <path class="cls-5" d="M201.04,351.55c-2.6-.41-7.97-.89-14.05,1.4-8.55,3.24-12.8,9.81-14.05,11.94-1.17,.06-3.75,.34-6.32,2.11-3.56,2.44-4.65,6.01-4.92,7.02-.59-.14-2.84-.58-4.92,.7-2.36,1.46-3.53,4.57-2.81,7.73-.37-.77-2.21-4.36-6.32-5.62-2.47-.76-6.31-.84-7.02,.7-.56,1.21,.64,3.8,8.43,9.83-.32,.2-2.56,1.66-2.81,4.21-.26,2.66,1.73,5.43,4.92,6.32-1.28,.94-5.61,4.37-7.02,10.54-2,8.73,3.58,15.42,4.21,16.16-.88,3.09-1.8,7.73-1.4,13.35,.58,8.28,3.7,14.4,5.62,17.56-2.95,15.65-2.95,24.08,0,25.29,1.04,.43,2.44-.04,4.21-1.4-.9,2.46-2.61,8.33,0,14.05,.36,.8,2.03,4.44,3.51,4.21,2.16-.32,2.59-8.62,2.81-13.35,.43-9.36,.99-23.59,1.4-42.85-.87,4.86-1.4,12.29,1.4,20.37,.62,1.8,1.35,3.44,2.11,4.92,.53,13.03,1.47,19.59,2.81,19.67,1.12,.07,2.53-4.38,4.21-13.35,1.82-.55,2.9-1.45,3.51-2.11,2.87-3.07,2.89-8.7,0-14.05,1.35,0,3.03-.25,4.21-1.4,3.21-3.11,.4-10.46-.7-13.35-.86-2.26-2.33-5.27-4.92-8.43,.59,.34,2.83,1.53,4.92,.7,2.72-1.08,4.42-5.28,2.81-9.83,.15,.35,1.52,3.38,4.92,4.21,2.51,.62,5.2-.19,7.02-2.11-1.18,4.97-1.18,7.78,0,8.43,1.6,.88,5.34-2.17,11.24-9.13-.05,2.64,.68,5.08,2.11,5.62,1.81,.69,5.21-1.53,7.02-6.32,2.41,1.1,5.74,2.29,9.83,2.81,7.55,.96,13.64-.87,16.86-2.11-2.39,3.97-1.82,5.65-1.4,6.32,2.52,4.06,16.7-1.09,17.56-1.4-5.54,4.4-7.68,9.24-6.32,11.24,1.5,2.21,7.19,.84,7.73,.7,.23,4.8,1.64,6.42,2.81,7.02,5.87,3.07,19.19-12.4,21.78-15.45-2.37,2.61-3.2,6.13-2.11,9.13,.89,2.43,2.74,3.74,3.51,4.21-.33,.93-2.72,7.94,1.4,14.75,3.53,5.84,9.35,7.43,10.54,7.73,.22,.53,3.16,7.26,6.32,7.02,2.77-.2,5.54-5.73,5.62-14.05,2.41,.78,3.95,.47,4.92,0,4.71-2.25,5.66-12.64,2.11-25.99,2.13,18.59,4.71,27.95,7.73,28.1,2.12,.1,4.46-4.35,7.02-13.35-1.08,12.59-.61,19.15,1.4,19.67,1.14,.29,2.78-1.35,4.92-4.92-.67,2.52-1.92,8.66,.7,15.45,1.2,3.11,2.85,5.44,4.21,7.02-1.07,2.93-4.07,11.51-2.11,12.64,1.49,.86,5.25-2.88,7.73-5.62,1.3,2,2.47,2.93,3.51,2.81,3.67-.44,5.78-14.02,6.32-40.74,1.23,3.85,3.64,5.98,4.92,5.62,1.25-.35,2.16-3.3,1.4-7.02,4.54,2.85,7.35,3.79,8.43,2.81,1.63-1.48-.71-7.33-7.02-17.56,.31,.03,2.91,.24,4.21-1.4,1.45-1.82,.93-5.44-2.11-7.73,.45-5.68,.47-15.49-3.51-26.69-3.23-9.07-7.87-15.63-11.24-19.67-.64-3.05-1.84-7.83-4.21-13.35-3.06-7.13-10.46-24.34-26.69-29.5-2.65-.84-6.68-1.73-11.94-1.4-2.73-1.53-7.05-3.49-12.64-4.21-9.65-1.25-17.21,1.94-20.37,3.51,.44-.31,5.65-4.01,4.92-5.62-.52-1.15-3.94-.9-6.32,0-3.19,1.21-4.92,3.74-5.62,4.92,.22-1.02,.64-3.64-.7-6.32-1.71-3.41-5.78-5.93-7.73-4.92-1.98,1.03-2.14,5.91,0,11.94-2.83-1.96-7.35-4.49-13.35-5.62-13.31-2.51-23.86,3.8-26.69,5.62,.04-.85,.06-3.88-2.11-6.32-2.87-3.24-8.23-3.93-9.83-2.11-1.66,1.88,.16,7.08,4.92,12.64-1.14-.47-3.79-1.35-7.02-.7-5.41,1.09-8.02,5.6-8.43,6.32Z"/>
      <path class="cls-9" d="M371.74,487.13c-.34-.47-1.7-2.24-4.21-2.81-1.5-.34-4.29-.46-4.92,.7-.55,1.02,.32,3.42,7.73,9.83-.63,2.55-1.37,6.45-1.4,11.24-.03,4.14-.06,7.84,1.4,8.43,1.23,.49,3.92-1.05,10.54-11.24,.11,.21,.99,1.79,2.81,2.11,1.62,.28,3.32-.55,4.21-2.11-2.61,5.4-1,10.3,1.4,11.24,1.9,.74,4.84-.78,7.02-3.51,.4,2.64,2.98,4.11,4.92,3.51,1.92-.59,3.22-3.22,2.11-5.62,.54,.36,4.03,2.58,8.43,1.4,4.97-1.32,6.83-5.84,7.02-6.32-.69,1.28-2.38,4.87-1.4,9.13,.46,2.01,1.84,5.62,3.51,5.62,.75,0,2.69-.72,4.92-10.54,.92,1.24,2.39,1.79,3.51,1.4,1.52-.52,2.51-2.82,1.4-4.92-.09-2.66-.37-6.88-1.4-11.94-1.18-5.77-5.3-25.96-16.16-28.1-1.32-.26-3.44-.39-6.32,.7-2.35-1.34-4.49-1.91-6.32-2.11-10.31-1.1-21.54,8.61-28.8,23.88Z"/>
      <path class="cls-5" d="M112.53,524.36c.36-1.73,.7-4.5,0-7.73-.95-4.36-3.77-9.44-5.62-9.13-1.29,.22-2.64,3.16-2.81,15.45-.44-.38-3.31-2.8-7.02-2.11-.45,.08-4.3,.85-4.92,3.51-.52,2.24,1.39,5.2,4.92,6.32-1.92,.63-5.21,2-8.43,4.92-3.13,2.85-4.79,5.9-5.62,7.73-2.14-.95-5.25-2.12-9.13-2.81-7.39-1.31-16.46-.7-16.86,1.4-.17,.87,.92,3.1,16.16,8.43-.95-.11-4.68-.42-7.73,2.11-1.54,1.28-3.49,3.78-2.81,4.92,.54,.9,2.86,1.18,10.54-1.4-3.75,2.21-9.64,6.34-14.75,13.35-6.98,9.58-8.64,19.24-9.13,23.88,.02,1.32,.26,3.91,2.11,5.62,1.99,1.84,4.81,1.72,7.73,1.4,4.22-.46,10.47-1.52,18.26-4.21-.84,.51-3.05,2.01-4.21,4.92-.69,1.72-.75,3.27-.7,4.21-.71-.08-5.3-.49-8.43,2.81-1.2,1.26-2.89,3.82-2.11,4.92,.68,.96,3.39,.97,11.94-2.81-.48,.88-3.28,6.07-2.11,7.02,.91,.74,3.94-1.28,5.62-2.81,1.4-1.28,2.28-2.6,2.81-3.51-.26,.47-1.26,2.42-.7,4.92,.57,2.56,2.38,3.91,2.81,4.21,.06,2.46,.51,6.45,2.81,10.54,3.07,5.45,10.67,13.28,19.67,11.24,6.16-1.4,11.04-6.98,12.64-14.05,2.26,3.22,4.28,3.48,4.92,3.51,3.88,.19,8.49-5.49,9.83-14.75,.19,4.39,.43,8.84,.7,13.35,.4,6.45,.87,12.78,1.4,18.97-1.44,1.31-3.37,3.37-4.92,6.32-2.58,4.92-3.55,11.27-2.11,11.94,.44,.21,2.11,.34,8.43-9.13-.8,.83-4.16,4.49-3.51,9.13,.29,2.1,1.48,4.91,2.81,4.92,1.36,0,2.69-2.9,3.51-7.02-.49,4.2-.8,10.02,0,16.86,.92,7.95,3.48,18.43,4.92,18.26,1.83-.2,1.3-17.47,.7-37.23-.53-17.33-1.38-31.78-2.11-42.15,.56,.75,2.49,3.17,4.21,2.81,1.95-.4,3.44-4.29,2.81-9.83,1.06-.55,2.37-1.42,3.51-2.81,3.66-4.47,2.33-10.34,2.11-11.24,1.21,.24,4,.59,7.02-.7,5.31-2.27,6.83-7.69,7.02-8.43-1.73,2.12-1.42,5.29,.7,7.02s5.29,1.42,7.02-.7c.78,.62,2.2,1.59,4.21,2.11,2.51,.65,4.6,.26,5.62,0v26.69c-.76,.73-3.54,3.57-3.51,7.73,.02,2.58,1.11,5.65,2.11,5.62,.79-.02,1.78-1.97,2.81-9.83-.17,2.47,.94,4.66,2.81,5.62,1.38,.71,3.54,.94,4.21,0,1.26-1.75-3.23-6.71-3.51-7.02-.23-3.04-.47-6.09-.7-9.13,.07,.3,.98,3.84,4.21,4.92,1.63,.54,4.16,.56,4.92-.7,1.18-1.97-2.56-6-3.51-7.02-2-2.16-4.13-3.46-5.62-4.21,1.17-4.68,2.34-9.37,3.51-14.05-1.07,4.22,1.19,8.48,4.92,9.83,3.16,1.15,6.9,.04,9.13-2.81,1.16,.34,5.38,1.42,9.83-.7,.65-.31,6.62-3.25,7.02-8.43,.5-6.34-7.72-10.79-9.83-11.94-3.9-2.12-7.59-2.66-9.83-2.81,.75-2.33,1.9-7.01,.7-12.64-1.97-9.29-8.83-14.29-10.54-15.45-.75-2.56-2.18-6.7-4.92-11.24-11.34-18.79-36.79-30.6-59.71-25.29-4.2,.97-10.89,3.12-18.26,8.43Z"/>
      <path class="cls-9" d="M349.97,267.25c-1.7-.23-4.11-.51-7.02-.7-9.35-.63-14.91-1-20.37,1.4-2.38,1.05-6.25,3.29-9.83,8.43-2.97,1.22-7.12,3.34-11.24,7.02-6.27,5.62-9.21,11.95-10.54,15.45-3.01-4.02-6.19-6.4-7.73-5.62-1.66,.84-1.33,5.35,0,8.43,1.99,4.61,6.39,6.5,7.73,7.02-3.21,.06-5.49,1.43-5.62,2.81-.15,1.55,2.42,3.02,4.21,3.51,2.64,.72,4.91-.34,5.62-.7,.16,.62,.52,1.72,1.4,2.81,1.02,1.25,2.2,1.85,2.81,2.11-6.03,.79-9.88,3.37-9.83,5.62,.04,2.02,3.23,4.16,6.32,4.21,3.93,.07,6.17-3.28,6.32-3.51,.62,.49,2.95,2.24,6.32,2.11,4.16-.16,6.64-3.04,7.02-3.51-.06,.52-.26,2.92,1.4,4.92,1.16,1.39,3.55,2.97,5.62,2.11,2.07-.86,3.32-3.94,2.11-7.02,1.01,.36,2.19,.64,3.51,.7,5.88,.3,10.15-3.8,11.24-4.92,2.2,.46,5.07,.84,8.43,.7,4.44-.18,8.06-1.19,10.54-2.11-.91,1.2-2.97,4.28-2.81,8.43,.04,1.02,.18,4.81,2.11,5.62,1.88,.79,5.16-1.39,7.73-5.62-.54,2.83,1.06,5.25,2.81,5.62,1.95,.42,4.76-1.57,4.92-4.92,.67,3.97,1.77,9.84,3.51,16.86,.55,2.23,7.69,30.75,11.24,30.21,1.33-.2,1.74-4.45,2.11-11.24,.57-10.49,.94-25.45,0-44.26,.84,.48,2.57,1.33,4.92,1.4,2.75,.09,4.78-.92,5.62-1.4-2.61,2.2-3.71,5.54-2.81,8.43,.8,2.56,2.89,3.86,3.51,4.21-.88,12.05-.93,25.77,.7,40.74,.56,5.14,1.28,10.06,2.11,14.75-.63,1.11-1.92,3.77-1.4,7.02,.62,3.94,3.67,7.47,4.92,7.02,.5-.18,1.48-1.29,0-9.83,1.02,.28,3.15,.71,5.62,0,2.07-.6,5.08-2.2,4.92-3.51-.12-.97-2.04-2.15-10.54-2.81-.54-3.43-1.02-6.94-1.4-10.54-2.91-26.89-.42-51.39,4.21-72.36,1.74-.41,4.29-1.2,7.02-2.81,.79-.46,7.01-4.12,6.32-6.32-.42-1.34-3.34-1.99-5.62-1.4-2.99,.77-4.76,3.65-4.92,3.51-.16-.14,2.58-2.43,2.81-5.62,.16-2.15-.82-4.7-2.11-4.92-2.17-.37-4.88,5.95-5.62,7.73,.17-1.33,.43-4.74-1.4-8.43-1.54-3.11-3.8-4.86-4.92-5.62,.29,.14,2.6,1.19,4.92,0,1.76-.91,3.24-2.96,2.81-4.21-.44-1.28-3.09-2.41-13.35-1.4,1.5-1.3,2.51-2.99,2.11-4.21-.54-1.66-3.8-2.86-7.73-1.4-.95-2.51-3.43-8.01-9.13-12.64-5.62-4.57-11.4-5.88-14.05-6.32-1.25-.85-5.04-3.2-9.13-2.11-6.13,1.64-7.92,9.66-8.43,11.94-.86,3.85-.43,7.14,0,9.13Z"/>
      <path class="cls-22" d="M238.06,789.78c14.24-10.76,31.1-18.42,48.92-20.51,16.45-1.93,33.34,1.23,47.66,9.67,7.84,4.62,14.74,10.79,19.98,18.24,.28,.39,.93,.02,.65-.38-9.36-13.31-23.79-22.39-39.44-26.42-17.01-4.39-35.03-2.51-51.33,3.75-9.6,3.68-18.61,8.81-26.81,15-.38,.29,0,.94,.38,.65h0Z"/>
      <path class="cls-22" d="M215.51,825.65c10.56-20.67,29.66-36.53,51.7-43.67,6.24-2.02,12.69-3.32,19.22-3.86,.48-.04,.48-.79,0-.75-23.32,1.91-45.46,13.62-60.57,31.43-4.28,5.05-7.98,10.57-10.99,16.47-.22,.43,.43,.81,.65,.38h0Z"/>
      <path class="cls-22" d="M303.49,780.19h1.1c.2,0,.38-.17,.38-.38s-.16-.38-.38-.38h-1.1c-.2,0-.38,.17-.38,.38s.16,.38,.38,.38h0Z"/>
      <path class="cls-22" d="M318.18,782.91c9.45,2.31,18.2,7.06,25.36,13.64s13.34,15.56,15.71,25.29c1.49,6.09,1.4,12.61-1.52,18.26-.22,.43,.43,.81,.65,.38,5.13-9.95,1.89-21.84-3.45-31-5.01-8.6-12.31-15.85-20.88-20.91-4.88-2.89-10.17-5.05-15.68-6.39-.47-.11-.67,.61-.2,.72h0Z"/>
      <path class="cls-22" d="M246.3,817.59c16.8-9.91,37.45-15.62,56.39-8.39,4.44,1.69,8.87,4.02,12.13,7.54,3.05,3.29,5.1,8.01,2.76,12.29-1.96,3.59-6.13,5.35-9.9,6.33-4.57,1.19-9.4,1.62-14.1,1.7-11.28,.19-22.53-2.26-32.7-7.14-.43-.21-.81,.44-.38,.65,9.49,4.56,19.9,7.04,30.43,7.24,5.1,.1,10.26-.3,15.26-1.33,3.87-.79,8.07-2.23,10.77-5.27s3.02-7.06,1.39-10.63c-1.9-4.16-5.68-7.19-9.59-9.37-8.9-4.95-19.38-6.67-29.47-5.8-11.88,1.03-23.17,5.53-33.36,11.54-.42,.24-.04,.89,.38,.65h0Z"/>
      <path class="cls-22" d="M172.22,824.77c11.65,.49,22.74,6.59,29.39,16.17,.27,.39,.92,.02,.65-.38-6.8-9.8-18.11-16.04-30.03-16.54-.48-.02-.48,.73,0,.75h0Z"/>
      <path class="cls-22" d="M187.48,823.62c7.24,2.82,13.34,8.2,17.06,15.02,.23,.42,.88,.05,.65-.38-3.82-7-10.08-12.48-17.51-15.37-.45-.18-.65,.55-.2,.72h0Z"/>
      <path class="cls-22" d="M195.3,805.23c2.36-4.78,5.93-9.4,11.06-11.38,4.66-1.81,10.45-1.06,13.83,2.84,.32,.37,.85-.17,.53-.53-3.46-3.99-9.39-4.88-14.23-3.15-5.47,1.95-9.34,6.79-11.83,11.85-.21,.43,.43,.81,.65,.38h0Z"/>
      <path class="cls-22" d="M218.19,801.51c1.43,.79,2.52,2.13,2.98,3.7,.14,.46,.86,.27,.72-.2-.52-1.75-1.73-3.26-3.33-4.15-.42-.23-.8,.41-.38,.65h0Z"/>
      <path class="cls-22" d="M287.48,751.78c6.93-4.79,15.32-8.31,23.89-7.89s16.15,5.98,21.55,12.79c3.15,3.98,5.62,8.63,6.03,13.77,.04,.48,.79,.48,.75,0-.7-8.74-7.04-16.64-13.77-21.81-3.55-2.73-7.64-4.62-12.09-5.26-4.33-.62-8.76-.13-12.96,1.07-4.94,1.41-9.57,3.77-13.79,6.68-.39,.27-.02,.92,.38,.65h0Z"/>
      <path class="cls-22" d="M327.92,761.76c1.48,3.88,2.49,7.92,3,12.04,.06,.47,.81,.48,.75,0-.51-4.19-1.52-8.29-3.02-12.24-.17-.45-.9-.25-.72,.2h0Z"/>
      <path class="cls-22" d="M362.26,773.75c10.03,2.43,18.43,9.08,24.41,17.34,6.43,8.88,11.89,20.82,7.56,31.7-2.31,5.79-6.58,10.6-11.13,14.75-.36,.33,.17,.86,.53,.53,4.15-3.79,8.03-8.09,10.49-13.19s3.08-10.96,1.68-16.64c-1.37-5.56-4.04-10.91-7.2-15.66-2.92-4.4-6.45-8.41-10.57-11.72-4.58-3.68-9.85-6.43-15.58-7.82-.47-.11-.67,.61-.2,.72h0Z"/>
      <path class="cls-22" d="M401.8,817.7c-.81,9.09-7.34,17.23-16.02,20.01-.46,.15-.26,.87,.2,.72,9.02-2.89,15.74-11.3,16.58-20.74,.04-.48-.71-.48-.75,0h0Z"/>
      <path class="cls-22" d="M410.25,833.85c10.97-11.47,28.5-14.47,42.6-7.15,3.82,1.98,7.24,4.62,10.14,7.8,.33,.36,.85-.17,.53-.53-10.83-11.89-28.46-15.39-42.98-8.48-4.05,1.93-7.72,4.59-10.82,7.83-.33,.35,.2,.88,.53,.53h0Z"/>
      <path class="cls-22" d="M407.32,847.38c7.48-12.29,22.42-19.34,36.66-17.25,.47,.07,.68-.65,.2-.72-14.59-2.14-29.84,4.99-37.51,17.59-.25,.41,.4,.79,.65,.38h0Z"/>
      <path class="cls-22" d="M469.7,814.61c7.32,7.33,10.72,18.11,8.89,28.32-.08,.47,.64,.67,.72,.2,1.87-10.47-1.57-21.51-9.09-29.05-.34-.34-.87,.19-.53,.53h0Z"/>
      <path class="cls-22" d="M481.1,830.43c1.22,4.41,1.42,9.05,.56,13.55-.09,.47,.63,.67,.72,.2,.89-4.63,.7-9.4-.56-13.95-.13-.46-.85-.27-.72,.2h0Z"/>
      <path class="cls-22" d="M500.15,832.16c8.03-2.03,16.68-.31,23.34,4.59,.39,.29,.76-.36,.38-.65-6.82-5.02-15.71-6.75-23.92-4.67-.47,.12-.27,.84,.2,.72h0Z"/>
      <path class="cls-22" d="M509.56,836.34c5.5-.75,11.23,1.71,14.5,6.19,.28,.39,.93,.01,.65-.38-3.48-4.79-9.48-7.34-15.34-6.54-.48,.06-.27,.79,.2,.72h0Z"/>
      <path class="cls-22" d="M413.88,799.03c5.29-1.37,11.1,.45,14.68,4.57,.32,.36,.85-.17,.53-.53-3.75-4.31-9.88-6.19-15.41-4.76-.47,.12-.27,.84,.2,.72h0Z"/>
      <path class="cls-22" d="M419.92,803.82c3.77,.46,7.26,2.41,9.69,5.32,.31,.37,.84-.16,.53-.53-2.56-3.07-6.25-5.05-10.22-5.54-.48-.06-.47,.69,0,.75h0Z"/>
      <path class="cls-22" d="M425.83,813.22l1.65,.54c.19,.06,.42-.07,.46-.26,.05-.21-.06-.4-.26-.46l-1.65-.54c-.19-.06-.42,.07-.46,.26-.05,.21,.06,.4,.26,.46h0Z"/>
      <path class="cls-22" d="M378.95,832.9c-3.26,6.47-8.64,11.71-15.19,14.8-.44,.21-.06,.85,.38,.65,6.65-3.14,12.15-8.5,15.46-15.07,.22-.43-.43-.81-.65-.38h0Z"/>
      <path class="cls-22" d="M213.7,846.89c3.65-12.28,11.61-23.08,22.26-30.2,.4-.27,.02-.92-.38-.65-10.82,7.23-18.9,18.17-22.61,30.65-.14,.46,.59,.66,.72,.2h0Z"/>
      <path class="cls-22" d="M218.19,634.73c-3.79,15.09-7.61,30.85-4.4,46.41,.1,.47,.82,.27,.72-.2-3.18-15.42,.65-31.06,4.4-46.02,.12-.47-.61-.67-.72-.2h0Z"/>
      <path class="cls-22" d="M215.85,687.09c.32,2.25,.85,4.46,1.58,6.6,.15,.45,.88,.26,.72-.2-.73-2.15-1.26-4.36-1.58-6.6-.07-.48-.79-.27-.72,.2h0Z"/>
      <path class="cls-22" d="M221.82,701.63c6.45,8.2,11.93,17.12,16.36,26.57,.2,.44,.85,.06,.65-.38-4.45-9.51-9.98-18.47-16.47-26.72-.3-.38-.83,.15-.53,.53h0Z"/>
      <path class="cls-22" d="M221.13,655.67c-1.41,10.59-.26,21.41,3.34,31.47,.16,.45,.89,.26,.72-.2-3.58-10.01-4.71-20.73-3.31-31.27,.06-.48-.69-.47-.75,0h0Z"/>
      <path class="cls-22" d="M228.75,697.45c9.51,10.42,17.33,22.3,23.15,35.16,.2,.44,.85,.06,.65-.38-5.85-12.91-13.72-24.84-23.27-35.31-.33-.36-.86,.17-.53,.53h0Z"/>
      <path class="cls-22" d="M220.92,614.3c-1.21,1.47-2.01,3.22-2.29,5.1-.21,1.42-.4,3.78,1.08,4.62,1.57,.9,3.37-.72,4.48-1.67,1.46-1.24,2.76-2.66,3.9-4.21,1.27-1.73,2.28-3.62,3.06-5.62,.18-.45-.55-.65-.72-.2-1.5,3.85-4,7.27-7.21,9.86-.73,.59-1.79,1.52-2.82,1.3-1.11-.23-1.14-1.75-1.14-2.63,0-2.19,.8-4.34,2.19-6.03,.3-.37-.22-.9-.53-.53h0Z"/>
      <path class="cls-22" d="M228.01,632.81c.77-1.44,1.55-2.89,2.32-4.33,.23-.43-.42-.8-.65-.38-.77,1.44-1.55,2.89-2.32,4.33-.23,.43,.42,.8,.65,.38h0Z"/>
      <path class="cls-22" d="M237.18,618.97c4.59-5.98,11.6-9.26,18.55-11.68,8.22-2.85,16.68-5.13,25.11-7.27,4.98-1.27,9.98-2.44,15-3.52,.47-.1,.27-.82-.2-.72-9.25,1.99-18.42,4.29-27.51,6.91-7.61,2.19-15.55,4.27-22.5,8.2-3.5,1.98-6.64,4.51-9.1,7.71-.29,.38,.36,.76,.65,.38h0Z"/>
      <path class="cls-22" d="M280.47,595.44c5.32-1.25,10.63-2.5,15.95-3.75,.47-.11,.27-.83-.2-.72-5.32,1.25-10.63,2.5-15.95,3.75-.47,.11-.27,.83,.2,.72h0Z"/>
      <path class="cls-22" d="M309.69,592.05c7.87-2.04,15.4-5.18,22.39-9.33,.41-.25,.04-.89-.38-.65-6.94,4.12-14.41,7.23-22.21,9.25-.47,.12-.27,.84,.2,.72h0Z"/>
      <path class="cls-22" d="M328.21,591.47c6.96-.55,13.38-4.72,16.68-10.88,.23-.43-.42-.8-.65-.38-3.17,5.92-9.33,9.98-16.03,10.51-.48,.04-.48,.79,0,.75h0Z"/>
      <path class="cls-22" d="M288.78,554.52c4.39,6.12,13.53,7.89,19.86,3.77,.4-.26,.03-.91-.38-.65-5.96,3.88-14.68,2.29-18.84-3.5-.28-.39-.93-.01-.65,.38h0Z"/>
      <path class="cls-22" d="M310.34,563.4c6.63,3.15,12.06,8.48,15.35,15.04,.22,.43,.86,.05,.65-.38-3.33-6.67-8.88-12.11-15.61-15.31-.43-.21-.81,.44-.38,.65h0Z"/>
      <path class="cls-22" d="M323.04,566.85c1.84,3.25,4.48,6.01,7.63,8.02,.41,.26,.78-.39,.38-.65-3.05-1.94-5.58-4.61-7.36-7.75-.24-.42-.89-.04-.65,.38h0Z"/>
      <path class="cls-22" d="M229.09,671.38c-1.72,1.57,.04,4.88,.68,6.6,.98,2.63,2.18,5.18,3.58,7.62,2.89,5.03,6.62,9.53,11,13.32,.36,.31,.9-.21,.53-.53-3.93-3.4-7.32-7.36-10.05-11.77-1.32-2.13-2.48-4.36-3.46-6.66-.52-1.21-.99-2.45-1.41-3.7-.4-1.18-1.44-3.33-.33-4.34,.36-.33-.17-.86-.53-.53h0Z"/>
      <path class="cls-22" d="M246.72,699.32c9.06,7,19.04,15.21,20.66,27.31,.06,.47,.81,.48,.75,0-1.67-12.41-11.72-20.77-21.03-27.96-.38-.29-.76,.36-.38,.65h0Z"/>
      <path class="cls-22" d="M254.3,710.94c4.04,3.29,7.37,7.37,9.79,11.99,.22,.43,.87,.05,.65-.38-2.44-4.67-5.82-8.82-9.91-12.15-.37-.3-.9,.23-.53,.53h0Z"/>
      <path class="cls-22" d="M277.14,707.25c9.04-1.06,18.23,.86,26.08,5.48,.42,.25,.79-.4,.38-.65-7.95-4.68-17.29-6.66-26.46-5.58-.47,.06-.48,.81,0,.75h0Z"/>
      <path class="cls-22" d="M289.75,711.62c4.77,.51,9.26,2.74,12.57,6.21,.33,.35,.86-.18,.53-.53-3.46-3.62-8.13-5.9-13.1-6.43-.48-.05-.48,.7,0,.75h0Z"/>
      <path class="cls-22" d="M287.92,716.98c3.05,2.14,5.62,4.92,7.52,8.12,.25,.41,.89,.04,.65-.38-1.97-3.32-4.63-6.18-7.79-8.39-.4-.28-.77,.37-.38,.65h0Z"/>
      <path class="cls-18" d="M92.88,576.43c-3.07-4.41-8.02-7.29-13.37-7.76-.36-.03-.44,.41-.27,.64,3.53,4.55,8.02,8.31,13.13,10.98,.43,.22,.81-.42,.38-.65-5.05-2.65-9.48-6.36-12.97-10.87l-.27,.64c5.07,.45,9.82,3.21,12.72,7.39,.27,.39,.92,.02,.65-.38h0Z"/>
      <path class="cls-18" d="M94.02,581.7c-1.92,1.2-3.58,2.78-4.86,4.65-1.04,1.51-2.19,3.48-1.8,5.4,.15,.74,.62,1.39,1.35,1.63,1.11,.35,2.18-.35,3.05-.97,1.91-1.37,3.66-2.96,5.22-4.72,1.77-2,3.29-4.22,4.51-6.6,.22-.43-.43-.81-.65-.38-1.85,3.59-4.37,6.81-7.44,9.45-.95,.81-4.2,3.95-5.18,1.85-.73-1.57,.48-3.57,1.29-4.84,1.24-1.95,2.92-3.59,4.87-4.82,.41-.26,.03-.9-.38-.65h0Z"/>
      <path class="cls-18" d="M108.81,569.98c-.93-2.35-1.48-4.83-1.58-7.36-.05-1.33,0-2.68,.19-4,.14-.98,.22-2.64,.98-3.37,1.15-1.11,2.15,1.08,2.39,1.94,.34,1.23,.53,2.5,.58,3.78,.1,2.61-.38,5.21-1.41,7.61-.19,.44,.46,.82,.65,.38,.92-2.15,1.45-4.43,1.52-6.77,.03-1.16-.05-2.33-.24-3.48-.17-1.04-.38-2.17-.92-3.09-.39-.66-1.01-1.34-1.82-1.41s-1.41,.48-1.73,1.16c-.45,.97-.59,2.13-.73,3.18-.16,1.16-.23,2.34-.22,3.51,.05,2.78,.6,5.53,1.62,8.11,.18,.44,.9,.25,.72-.2h0Z"/>
      <path class="cls-18" d="M109.33,599.95c-2.01,2.11-3.87,4.35-5.57,6.71-.84,1.17-1.64,2.36-2.4,3.59-.69,1.12-1.59,2.33-1.81,3.65-.15,.93,.1,1.97,.9,2.55,.89,.65,1.94,.28,2.76-.29,2.26-1.57,4.34-3.51,6.26-5.47,2.25-2.29,4.28-4.78,6.1-7.41,.27-.4-.37-.77-.65-.38-2.77,4.01-6.06,7.64-9.79,10.78-.89,.75-1.82,1.66-2.87,2.17-1.7,.82-2.28-1.14-1.84-2.4,.41-1.18,1.21-2.27,1.87-3.32s1.31-2.01,2.01-2.98c1.69-2.35,3.55-4.58,5.54-6.68,.33-.35-.2-.88-.53-.53h0Z"/>
      <path class="cls-18" d="M117.94,600.8c-.02,1.19,.23,2.37,.73,3.45,.45,.98,1.14,2.04,2.12,2.55,.86,.45,1.99,.39,2.64-.4,.82-.98,0-2.19-.46-3.13-.7-1.43-1.41-2.86-2.11-4.3-.21-.43-.86-.05-.65,.38,.65,1.32,1.3,2.64,1.95,3.96,.15,.31,.3,.62,.45,.93s.36,.66,.41,1.02c.08,.53-.32,.91-.8,1.03-1.16,.31-2.1-.94-2.6-1.81-.65-1.12-.96-2.4-.94-3.69,0-.48-.74-.48-.75,0h0Z"/>
      <path class="cls-18" d="M118.91,586.77c-2.87,.51-5.65,1.4-8.28,2.67-2.05,.99-5.04,2.3-5.92,4.6s1.35,3.15,3.19,2.9c2.92-.4,5.86-1.34,8.62-2.35,3.22-1.18,6.33-2.67,9.28-4.42,.41-.25,.04-.9-.38-.65-2.79,1.66-5.72,3.08-8.76,4.22-1.48,.55-2.98,1.04-4.5,1.46s-3.09,.9-4.65,1.04c-.74,.06-1.7,.02-2.1-.73-.47-.89,.32-1.93,.92-2.52,1.07-1.07,2.56-1.82,3.89-2.5,2.79-1.45,5.79-2.43,8.89-2.99,.47-.08,.27-.81-.2-.72h0Z"/>
      <path class="cls-18" d="M128.66,587.7c.59,1.24,1.46,2.33,2.54,3.17,.86,.66,2.4,1.76,3.53,1.18s.73-1.99,.27-2.86c-.71-1.34-1.67-2.59-2.63-3.75-1.13-1.37-2.38-2.63-3.74-3.78-.37-.31-.9,.22-.53,.53,1.25,1.05,2.41,2.2,3.47,3.45s2.12,2.59,2.84,4.04c.21,.43,.57,1.35,.01,1.69-.63,.38-1.71-.38-2.22-.7-1.27-.82-2.25-1.99-2.89-3.34-.21-.44-.85-.06-.65,.38h0Z"/>
      <path class="cls-18" d="M145.49,539.63c-2.26-2.39-3.69-5.46-4.1-8.72-.19-1.49-.16-3.02,.1-4.49,.24-1.36,.75-3.43,2.25-3.92,1.82-.6,2.9,2.07,3.56,3.31,.83,1.56,1.57,3.18,2.22,4.82,1.32,3.36,2.24,6.86,2.77,10.43,.07,.48,.79,.27,.72-.2-.5-3.35-1.34-6.63-2.53-9.8-.57-1.51-1.21-2.99-1.92-4.43-.64-1.31-1.29-2.76-2.25-3.87-1.74-2.02-4-.8-4.93,1.29-1.06,2.36-1.05,5.32-.61,7.82,.55,3.11,2.01,6,4.18,8.3,.33,.35,.86-.18,.53-.53h0Z"/>
      <path class="cls-18" d="M155.56,538.29c.71-1.97,2.4-3.81,4.56-4.07,.85-.1,1.91,.09,2.46,.82,.41,.55,.45,1.31,.26,1.94-.21,.7-.72,1.27-1.5,1.19-.48-.05-.48,.7,0,.75,1.96,.2,2.76-2.33,2.12-3.83-.43-1-1.47-1.53-2.51-1.63-1.23-.12-2.51,.33-3.5,1.05-1.22,.89-2.11,2.17-2.62,3.57-.17,.45,.56,.65,.72,.2h0Z"/>
      <path class="cls-18" d="M181.71,569.62c1.39-.27,3.08-.62,4.34,.24,.48,.32,.88,.81,1.03,1.37,.18,.67-.12,1.26-.57,1.75-1.87,1.99-4.59,3.29-7.23,3.89-.47,.11-.27,.83,.2,.72,2.47-.56,4.78-1.7,6.72-3.32,.89-.75,1.83-1.66,1.66-2.93-.14-1.05-.94-1.95-1.88-2.38-1.41-.64-3.01-.34-4.47-.06-.47,.09-.27,.82,.2,.72h0Z"/>
      <path class="cls-18" d="M92.32,557.78c-.95-1.27-2.01-2.45-3.19-3.52s-2.41-2.09-3.79-2.79c-.59-.3-1.31-.53-1.95-.24-.56,.26-.83,.82-.83,1.41,0,.67,.29,1.31,.6,1.89,.35,.65,.75,1.28,1.2,1.87,1.03,1.34,2.28,2.48,3.71,3.38,.41,.26,.79-.39,.38-.65-1.07-.67-2.04-1.49-2.88-2.44s-1.6-2-2.06-3.15c-.18-.45-.39-1.17,.05-1.54,.5-.42,1.29,.03,1.75,.31,1.15,.7,2.23,1.52,3.23,2.42,1.15,1.03,2.2,2.18,3.12,3.41,.29,.38,.94,0,.65-.38h0Z"/>
      <path class="cls-18" d="M175.89,408.72c-1.59-2.01-3.69-3.57-6.06-4.54-2.21-.9-4.91-1.45-7.28-.88s-3.7,2.63-2.9,5.02,2.87,4.33,4.89,5.72c2.43,1.66,5.28,2.63,8.22,2.82,.48,.03,.48-.72,0-.75-4.48-.29-9.18-2.65-11.65-6.5-.65-1.01-1.19-2.29-.87-3.51s1.4-1.81,2.52-2.08c2.09-.5,4.46-.03,6.44,.71,2.44,.91,4.57,2.49,6.18,4.52,.3,.38,.83-.16,.53-.53h0Z"/>
      <path class="cls-18" d="M164.89,423.72c-1.38,1.67-2.17,3.76-2.16,5.93,0,1.64,.61,3.68,2.25,4.39,.83,.36,1.7,.16,2.42-.35,1.01-.71,1.9-1.63,2.82-2.45,2.04-1.8,4.08-3.6,6.12-5.4,.36-.32-.17-.85-.53-.53-1.66,1.46-3.31,2.93-4.97,4.39-.83,.73-1.66,1.46-2.48,2.2-.69,.61-1.53,1.64-2.54,1.59-1.74-.08-2.33-2.46-2.34-3.84,0-1.96,.69-3.89,1.94-5.4,.31-.37-.22-.9-.53-.53h0Z"/>
      <path class="cls-18" d="M182.3,417.36c-1.19,1.53,.08,3.56,1.7,4.11,.88,.3,1.8,.08,2.51-.51s1.1-1.46,1.22-2.35c.14-1.03-.07-2.12-.65-2.99-.27-.4-.92-.02-.65,.38,.79,1.16,.84,2.92-.07,4.04-.42,.52-1.07,.88-1.75,.8s-1.27-.51-1.65-1.05-.59-1.33-.14-1.91c.13-.16,.15-.37,0-.53-.13-.13-.41-.16-.53,0h0Z"/>
      <path class="cls-18" d="M211.29,402.53c-4.11,3.39-7.51,8.06-9.06,13.2-.27,.88-.23,1.93,.73,2.34,.82,.35,1.82,0,2.56-.38,1.18-.62,2.25-1.62,3.28-2.45,1.17-.95,2.31-1.93,3.43-2.94,2.6-2.36,5.03-4.9,7.3-7.58,.31-.37-.22-.9-.53-.53-3.37,3.98-7.11,7.64-11.19,10.89-.93,.74-1.92,1.68-3.04,2.14-.4,.16-.9,.31-1.34,.21-.88-.21-.56-1.27-.34-1.89,.79-2.3,1.91-4.49,3.28-6.5,1.52-2.24,3.37-4.24,5.46-5.97,.37-.31-.16-.84-.53-.53h0Z"/>
      <path class="cls-18" d="M219.45,408.17c.41,1.11,.94,2.17,1.6,3.16,.58,.88,1.28,1.92,2.28,2.34,.89,.38,1.85,.11,2.57-.48,.79-.65,1.23-1.62,1.27-2.63,.06-1.43-.54-2.78-1.12-4.05-.2-.44-.85-.06-.65,.38,.55,1.2,1.13,2.5,1.01,3.86-.09,1.01-.82,2.06-1.84,2.31-1.18,.29-2.01-.88-2.61-1.71-.74-1.04-1.35-2.18-1.8-3.38-.17-.45-.89-.25-.72,.2h0Z"/>
      <path class="cls-18" d="M191.62,397.83c-1.7-1.19-3.67-1.93-5.74-2.14-1.54-.16-3.89-.14-4.55,1.61s1.01,3.26,2.3,4.08c1.77,1.11,3.77,1.89,5.82,2.28,2.34,.45,4.74,.42,7.06-.08,.47-.1,.27-.82-.2-.72-4.26,.92-9.28,.18-12.83-2.49-.82-.62-1.96-1.81-1.4-2.93,.47-.95,1.77-1.06,2.7-1.06,2.32,0,4.56,.77,6.46,2.1,.4,.28,.77-.37,.38-.65h0Z"/>
      <path class="cls-18" d="M173.55,383.05c-2.08-2.2-4.82-3.72-7.79-4.31-.29-.06-.52,.17-.46,.46,.68,3.22,2.58,6.1,5.25,8.03,.39,.28,.77-.37,.38-.65-2.51-1.82-4.26-4.55-4.91-7.58l-.46,.46c2.85,.57,5.46,2,7.46,4.12,.33,.35,.86-.18,.53-.53h0Z"/>
      <path class="cls-18" d="M253.47,400.45c-3.47,1.16-6.36,3.8-7.82,7.15-.58,1.34-1.49,3.59-.44,4.91,1.13,1.43,3.15,.41,4.26-.49,1.97-1.6,3.74-3.49,5.36-5.44,.3-.37-.22-.9-.53-.53-1.21,1.47-2.52,2.86-3.92,4.16-.64,.6-1.29,1.24-2.04,1.7-.61,.37-1.53,.82-2.23,.42-.78-.45-.64-1.54-.48-2.28,.17-.79,.43-1.57,.77-2.3,.66-1.43,1.58-2.73,2.72-3.81,1.3-1.24,2.85-2.19,4.55-2.76,.46-.15,.26-.88-.2-.72h0Z"/>
      <path class="cls-18" d="M266.76,412.41c1.23,5.85,4.98,11.01,10.14,14.01,.27,.15,.53-.05,.56-.32,.53-4.78,.28-9.6-.71-14.31-.1-.47-.82-.27-.72,.2,.98,4.64,1.21,9.4,.69,14.11l.56-.32c-5.01-2.91-8.61-7.89-9.8-13.56-.1-.47-.82-.27-.72,.2h0Z"/>
      <path class="cls-18" d="M300.41,428l-3.39,3.86c-.84,.95-1.97,1.96-2.18,3.28-.18,1.17,.8,1.98,1.93,1.65,.75-.21,1.4-.74,2.03-1.16,.73-.48,1.46-.96,2.18-1.44,1.65-1.09,3.3-2.17,4.95-3.26,.4-.26,.03-.91-.38-.65-1.57,1.03-3.13,2.06-4.7,3.09-.78,.52-1.57,1.03-2.35,1.55-.64,.42-1.48,1.21-2.29,1.19-.91-.02-.66-1.05-.4-1.57,.36-.71,.95-1.28,1.47-1.87l3.65-4.16c.32-.36-.21-.89-.53-.53h0Z"/>
      <path class="cls-18" d="M322.45,375.39c-.78,1.62-1.19,3.39-1.18,5.18,0,.89,.12,1.79,.33,2.66,.18,.73,.41,1.49,.91,2.06,1.15,1.32,2.6,.22,3.35-.91,.81-1.21,1.02-2.73,.93-4.16-.11-1.78-.61-3.51-1.2-5.18-.16-.45-.88-.26-.72,.2,.81,2.31,1.66,5.02,.94,7.46-.26,.87-1.5,3.26-2.64,2.21-.49-.45-.68-1.17-.84-1.79-.19-.75-.29-1.51-.32-2.28-.05-1.75,.31-3.49,1.07-5.07,.21-.43-.44-.81-.65-.38h0Z"/>
      <path class="cls-18" d="M326.76,373.62c1.36,1.99,3.18,3.62,5.33,4.72,2.01,1.03,4.49,1.78,6.78,1.49,2.14-.28,3.72-1.98,2.92-4.19-.43-1.18-1.28-2.16-2.15-3.04-.92-.93-1.86-1.84-2.87-2.66-2.11-1.72-4.61-3.09-7.42-2.86-.48,.04-.48,.79,0,.75,2.2-.18,4.19,.69,5.96,1.94s3.4,2.75,4.73,4.39c.7,.87,1.47,2.06,1.16,3.22-.29,1.09-1.35,1.57-2.38,1.71-2.02,.28-4.25-.37-6.05-1.24-2.15-1.04-4.01-2.62-5.35-4.59-.27-.4-.92-.02-.65,.38h0Z"/>
      <path class="cls-18" d="M204.4,391.52c-1.28-.83-3.08-1.36-4.59-.89-.57,.18-1.13,.51-1.4,1.06-.33,.67-.02,1.36,.36,1.93,1.59,2.41,4.3,3.94,7.14,4.31,1.64,.21,3.31,.03,4.84-.59,.44-.18,.25-.9-.2-.72-2.86,1.15-6.15,.71-8.71-.98-.61-.41-1.18-.89-1.67-1.43-.46-.51-1.51-1.6-1.01-2.32,.43-.63,1.42-.69,2.09-.65,1,.05,1.94,.4,2.78,.93,.41,.26,.78-.39,.38-.65h0Z"/>
      <path class="cls-18" d="M302.55,447.87c-1.52,2.29-2.7,4.79-3.48,7.43-.58,1.97-1.27,4.34-.51,6.35,.67,1.77,2.38,2.15,3.83,.97,2.05-1.66,3.74-3.96,5.15-6.18,.26-.41-.39-.79-.65-.38-1.21,1.92-2.63,3.7-4.24,5.3-.65,.64-1.62,1.64-2.61,1.08-.7-.4-.94-1.37-1.03-2.11-.22-1.92,.49-4.05,1.1-5.84,.75-2.21,1.79-4.3,3.08-6.25,.27-.4-.38-.78-.65-.38h0Z"/>
      <path class="cls-18" d="M347.09,278.84c-2.44-4.01-7.15-6.55-11.87-6.2-1.78,.13-4.18,1.23-3.2,3.43,.48,1.07,1.54,1.8,2.47,2.44,1.1,.75,2.27,1.37,3.5,1.88,2.81,1.16,5.86,1.64,8.89,1.42,.48-.04,.48-.79,0-.75-4.53,.34-9.14-.97-12.76-3.73-.8-.62-2.07-1.74-1.39-2.86,.52-.86,1.79-1.03,2.7-1.08,2.03-.11,4.08,.33,5.91,1.23,2.1,1.03,3.88,2.61,5.1,4.61,.25,.41,.9,.04,.65-.38h0Z"/>
      <path class="cls-18" d="M344.49,284.38c-2.86,.92-5.56,2.28-7.98,4.05-1.16,.85-2.25,1.78-3.26,2.8s-2.09,2.1-2.66,3.4c-.99,2.27,.58,4.33,2.94,4.53,1.38,.12,2.71-.5,3.84-1.22,1.43-.91,2.77-1.98,4.12-3.01,3.19-2.44,6.29-4.99,9.31-7.64,.36-.32-.17-.85-.53-.53-2.92,2.57-5.92,5.05-9.01,7.41-1.35,1.04-2.7,2.1-4.13,3.04s-3.25,1.72-4.9,.82c-3.68-2.03,1.81-6.65,3.58-8.1,2.62-2.15,5.65-3.77,8.87-4.81,.46-.15,.26-.87-.2-.72h0Z"/>
      <path class="cls-18" d="M361.88,280.96c-1.51-1.44-1.75-4.01-.45-5.67l-.59-.08c1.41,1.99,1.99,4.5,1.54,6.9-.09,.47,.63,.67,.72,.2,.49-2.6-.08-5.33-1.61-7.48-.12-.17-.43-.28-.59-.08-1.54,1.97-1.38,4.99,.45,6.73,.35,.33,.88-.2,.53-.53h0Z"/>
      <path class="cls-18" d="M371.36,271.25c-.15-4.31,2.52-8.51,6.54-10.13l-.46-.46c-1.08,4.43-2.25,8.84-3.53,13.22-.14,.46,.59,.66,.72,.2,1.28-4.38,2.45-8.79,3.53-13.22,.06-.25-.18-.57-.46-.46-4.32,1.75-7.25,6.19-7.09,10.86,.02,.48,.77,.48,.75,0h0Z"/>
      <path class="cls-18" d="M314.25,293.05c-5.28,1.93-9.35,6.44-10.7,11.9-.04,.18,.03,.32,.17,.42,2.95,2.16,6.95-1.36,9.33-2.9,3.81-2.46,7.63-4.91,11.44-7.37,.4-.26,.03-.91-.38-.65-3.36,2.17-6.73,4.33-10.09,6.5-1.63,1.05-3.24,2.16-4.91,3.15-1.49,.88-3.44,1.77-5.02,.62l.17,.42c1.28-5.2,5.14-9.54,10.17-11.38,.45-.16,.26-.89-.2-.72h0Z"/>
      <path class="cls-18" d="M320.91,304.17c-.56,1.58-.83,3.27-.75,4.95,.06,1.26,.14,3.18,1.26,4.01,1.22,.91,2.29-.6,2.9-1.49,.85-1.24,1.47-2.64,1.82-4.1,.4-1.67,.44-3.39,.14-5.08-.08-.47-.81-.27-.72,.2,.57,3.21-.28,6.65-2.32,9.19-.21,.26-.5,.69-.85,.78-.39,.11-.66-.19-.85-.49-.42-.68-.51-1.6-.59-2.38-.18-1.83,.06-3.67,.68-5.4,.16-.46-.56-.65-.72-.2h0Z"/>
      <path class="cls-18" d="M332.48,304.93c-1.22,.51-2.26,1.33-3.01,2.43-.66,.96-1.46,2.6-.7,3.7,.69,1,2.13,.78,3.09,.38,1.26-.53,2.42-1.34,3.4-2.28,1.15-1.1,2.07-2.42,2.71-3.87,.19-.44-.45-.82-.65-.38-.93,2.13-2.48,3.94-4.46,5.16-.82,.5-1.91,1.15-2.91,.92-1.31-.3-.52-2.08-.1-2.82,.64-1.12,1.64-2.02,2.84-2.51,.44-.18,.25-.91-.2-.72h0Z"/>
      <path class="cls-18" d="M308.68,287.68l-5.62,2.45-2.81,1.23c-.69,.3-1.57,.57-1.98,1.25-.9,1.5,1.23,2.28,2.29,2.51,1.75,.37,3.57,.22,5.24-.42,.45-.17,.25-.9-.2-.72-1.45,.56-3.03,.75-4.57,.47-.62-.11-1.41-.25-1.91-.68-.72-.61,.15-1.15,.7-1.4,3.06-1.4,6.17-2.69,9.25-4.04,.44-.19,.06-.84-.38-.65h0Z"/>
      <path class="cls-18" d="M152.48,429.77c-2.92,7.86,1.23,15.71,5.03,22.44,.24,.42,.89,.04,.65-.38-3.71-6.56-7.8-14.19-4.95-21.86,.17-.45-.56-.65-.72-.2h0Z"/>
      <path class="cls-18" d="M155.95,438.21c-.38,3.92,.58,7.9,2.7,11.22,.26,.41,.91,.03,.65-.38-2.05-3.22-2.96-7.04-2.6-10.84,.05-.48-.7-.48-.75,0h0Z"/>
      <path class="cls-18" d="M136.78,609.01c.06,12.71,.95,25.4,2.65,38,.06,.48,.79,.27,.72-.2-1.69-12.53-2.56-25.16-2.62-37.8,0-.48-.75-.48-.75,0h0Z"/>
      <path class="cls-18" d="M154.31,554.27c-3.38,3.13-3.45,8.13-3.71,12.4-.34,5.55-.45,11.18,1.1,16.58,.13,.46,.86,.27,.72-.2-1.45-5.03-1.42-10.27-1.13-15.45,.24-4.31,.12-9.63,3.55-12.8,.36-.33-.18-.86-.53-.53h0Z"/>
      <path class="cls-18" d="M303.69,383.65c9.16,7.87,14.8,19.42,15.33,31.49,.02,.48,.77,.48,.75,0-.54-12.26-6.24-24.02-15.55-32.02-.36-.31-.9,.22-.53,.53h0Z"/>
      <path class="cls-18" d="M321.82,404.25c1.42,4.31,2.56,8.7,3.4,13.16,.09,.47,.81,.27,.72-.2-.84-4.46-1.97-8.86-3.4-13.16-.15-.46-.88-.26-.72,.2h0Z"/>
      <path class="cls-18" d="M337.97,422.32c3.96,14.64,5.15,29.92,3.53,44.99-.05,.48,.7,.48,.75,0,1.63-15.14,.42-30.5-3.56-45.19-.13-.47-.85-.27-.72,.2h0Z"/>
      <path class="cls-18" d="M345.58,442.11c2.37,10.08,2.11,20.63-.75,30.59-.13,.46,.59,.66,.72,.2,2.9-10.08,3.15-20.77,.75-30.99-.11-.47-.83-.27-.72,.2h0Z"/>
      <path class="cls-18" d="M145.3,570.59c1.07,8.94,1.8,17.91,2.2,26.9,.02,.48,.77,.48,.75,0-.4-8.99-1.14-17.96-2.2-26.9-.06-.47-.81-.48-.75,0h0Z"/>
      <path class="cls-18" d="M414.69,480.12c2.91,6.09,3.97,12.9,3.1,19.58-.06,.48,.69,.47,.75,0,.89-6.82-.24-13.76-3.2-19.96-.21-.44-.85-.06-.65,.38h0Z"/>
      <path class="cls-18" d="M415.24,473.09c3.36,4.05,5.57,8.93,6.44,14.11,.08,.47,.8,.27,.72-.2-.89-5.31-3.2-10.3-6.63-14.44-.31-.37-.84,.16-.53,.53h0Z"/>
      <path class="cls-18" d="M389.71,481.24c-1.24-.06-2.25-1-3.48-1.08-1.14-.08-1.93,.97-1.67,2.05,.31,1.31,1.58,2.17,2.68,2.77,1.29,.71,2.7,1.15,4.16,1.32,1.68,.21,3.4,.03,5.01-.51,.45-.15,.26-.88-.2-.72-3.04,1.03-6.47,.64-9.18-1.09-.65-.42-1.3-.91-1.62-1.64-.28-.63-.09-1.44,.71-1.44,.6,0,1.21,.35,1.75,.58,.6,.25,1.19,.48,1.85,.51,.48,.02,.48-.73,0-.75h0Z"/>
      <path class="cls-18" d="M394.28,478.21c-.64-.9-.81-2.03-.54-3.1,.13-.53,.36-1.03,.7-1.46,.28-.36,1.03-1.17,1.55-.94s.64,1.25,.76,1.7c.23,.79,.43,1.6,.6,2.4,.34,1.58,.59,3.18,.73,4.79,.04,.48,.79,.48,.75,0-.14-1.53-.36-3.06-.67-4.56-.15-.75-.33-1.5-.53-2.24-.18-.66-.33-1.37-.63-1.99-.21-.43-.55-.82-1.05-.88-.59-.07-1.13,.3-1.56,.66-.78,.67-1.29,1.65-1.46,2.66-.2,1.16,.01,2.36,.69,3.33,.28,.39,.93,.02,.65-.38h0Z"/>
      <path class="cls-18" d="M375.28,294.91c4.24,16.75,7.19,33.81,8.81,51.01,.04,.48,.8,.48,.75,0-1.63-17.27-4.58-34.39-8.84-51.21-.12-.47-.84-.27-.72,.2h0Z"/>
      <path class="cls-18" d="M378.71,287.89l6.75,21.92c.14,.46,.87,.26,.72-.2-2.25-7.31-4.5-14.61-6.75-21.92-.14-.46-.87-.26-.72,.2h0Z"/>
      <path class="cls-18" d="M392.89,282.34c6.9,6.42,8.53,17.47,3.76,25.6-.24,.42,.4,.8,.65,.38,4.93-8.41,3.26-19.86-3.88-26.51-.35-.33-.88,.2-.53,.53h0Z"/>
      <path class="cls-18" d="M400.56,287.82c3.4,6.6,3.43,14.64,.07,21.27-.22,.43,.43,.81,.65,.38,3.49-6.87,3.46-15.17-.07-22.03-.22-.43-.87-.05-.65,.38h0Z"/>
      <path class="cls-18" d="M385.67,280.37c4.38,2.69,7.37,7.31,8.07,12.4,.07,.48,.79,.27,.72-.2-.73-5.28-3.88-10.06-8.41-12.85-.41-.25-.79,.4-.38,.65h0Z"/>
      <path class="cls-18" d="M361.98,298.25c-1.26-.68-2.77-.46-3.95,.29-1.32,.84-2.1,2.27-2.7,3.67-.37,.88-1.06,2.45-.08,3.21,.6,.47,1.3,.11,1.87-.23,.84-.5,1.67-1,2.5-1.49,1.89-1.13,3.78-2.26,5.67-3.38,.41-.25,.04-.9-.38-.65-1.72,1.03-3.45,2.06-5.17,3.08-.83,.5-1.67,1-2.5,1.49-.33,.2-.86,.66-1.28,.66-.36,0-.43-.33-.44-.63-.03-.69,.32-1.37,.59-1.99,.33-.75,.71-1.5,1.24-2.14,1-1.2,2.75-2.07,4.25-1.25,.42,.23,.8-.42,.38-.65h0Z"/>
      <path class="cls-22" d="M184.18,492.05c-.3,1.11-.59,2.28-.35,3.43,.19,.9,.8,1.7,1.64,2.08,.8,.36,1.73,.25,2.35-.4,.54-.58,.65-1.4,.65-2.16,0-.93-.17-1.89,0-2.81,.05-.26-.11-.45-.36-.47-1.67-.18-2.95,1.94-2.09,3.35,.25,.41,.9,.03,.65-.38-.59-.96,.34-2.34,1.44-2.22l-.36-.47c-.14,.74-.09,1.48-.06,2.23,.03,.65,.1,1.39-.15,2.01-.23,.56-.8,.89-1.4,.77-.7-.14-1.3-.73-1.51-1.4-.35-1.1-.02-2.27,.27-3.35,.13-.47-.6-.67-.72-.2h0Z"/>
      <path class="cls-22" d="M231.32,525.9c8.43,6.19,20.36,6.69,29.29,1.25,.41-.25,.04-.9-.38-.65-8.72,5.32-20.31,4.8-28.53-1.25-.39-.29-.76,.36-.38,.65h0Z"/>
      <path class="cls-22" d="M256.98,532.42c2.18-1.14,4.35-2.28,6.53-3.42,.43-.22,.05-.87-.38-.65-2.18,1.14-4.35,2.28-6.53,3.42-.43,.22-.05,.87,.38,.65h0Z"/>
      <path class="cls-22" d="M268.14,496.9c-1.09,7.98-2.86,15.85-5.3,23.53-.15,.46,.58,.66,.72,.2,2.44-7.68,4.22-15.55,5.3-23.53,.06-.47-.66-.68-.72-.2h0Z"/>
      <path class="cls-22" d="M249.64,537.88c6.42,.4,12.72,1.88,18.65,4.36,.44,.19,.64-.54,.2-.72-6-2.51-12.37-3.99-18.85-4.39-.48-.03-.48,.72,0,.75h0Z"/>
      <path class="cls-22" d="M273.28,545.73c1.51-.03,3.01,.47,4.18,1.42,.16,.13,.38,.15,.53,0,.13-.13,.16-.4,0-.53-1.33-1.08-3-1.67-4.71-1.64-.48,0-.48,.76,0,.75h0Z"/>
      <path class="cls-22" d="M276.9,542.94c6.04,3.75,12.56,6.67,19.38,8.66,.46,.14,.66-.59,.2-.72-6.76-1.98-13.22-4.86-19.2-8.59-.41-.26-.79,.39-.38,.65h0Z"/>
      <path class="cls-22" d="M300.19,555.63c3.14-.19,6.13-1.39,8.53-3.43,.37-.31-.16-.84-.53-.53-2.24,1.9-5.07,3.04-8,3.21-.48,.03-.48,.78,0,.75h0Z"/>
      <path class="cls-22" d="M181.99,506.12c-4.6,2.45-7.96,6.96-8.98,12.07-.09,.47,.63,.67,.72,.2,.99-4.93,4.2-9.26,8.64-11.63,.43-.23,.05-.87-.38-.65h0Z"/>
      <path class="cls-22" d="M181.26,509.86c-1.77,2.02-3.27,4.27-4.43,6.69-.21,.43,.44,.81,.65,.38,1.14-2.36,2.59-4.56,4.32-6.54,.32-.36-.21-.89-.53-.53h0Z"/>
      <path class="cls-22" d="M189.56,503.88c3.8-3.22,9.67-3.33,13.63-.35,.39,.29,.76-.36,.38-.65-4.24-3.19-10.51-2.95-14.54,.47-.37,.31,.16,.84,.53,.53h0Z"/>
      <path class="cls-22" d="M207.58,506.88c4.16,2.61,8.03,5.67,11.53,9.12,.34,.34,.87-.19,.53-.53-3.54-3.5-7.46-6.59-11.68-9.24-.41-.26-.79,.39-.38,.65h0Z"/>
      <path class="cls-22" d="M253.52,468.36c3.36,7.3,7.34,15.46,15.11,18.89,.44,.19,.82-.45,.38-.65-7.65-3.39-11.53-11.43-14.84-18.62-.2-.44-.85-.06-.65,.38h0Z"/>
      <path class="cls-22" d="M266.98,483.7l3.89,2.1c.42,.23,.8-.42,.38-.65-1.3-.7-2.6-1.4-3.89-2.1-.42-.23-.8,.42-.38,.65h0Z"/>
      <path class="cls-22" d="M229.81,655.68c-.19-6.31-.37-13.12,2.6-18.89,1.61-3.13,4.17-5.53,6.64-7.96,2.64-2.6,5.28-5.19,7.92-7.79,2.37-2.33,4.69-4.86,7.52-6.64,2.99-1.88,6.49-2.65,9.87-3.54,7.09-1.85,14.18-3.7,21.27-5.55,8.22-2.14,16.44-4.29,24.65-6.43,.47-.12,.27-.85-.2-.72-15.15,3.95-30.29,7.91-45.44,11.86-3.19,.83-6.49,1.54-9.42,3.09s-5.23,3.91-7.55,6.19c-2.76,2.71-5.52,5.43-8.27,8.14-2.41,2.37-5.01,4.68-6.83,7.56-3.86,6.11-3.72,13.74-3.51,20.7,.01,.48,.76,.48,.75,0h0Z"/>
      <path class="cls-22" d="M236.63,610.59c4.19-1.69,8.39-3.38,12.58-5.07,.44-.18,.25-.9-.2-.72-4.19,1.69-8.39,3.38-12.58,5.07-.44,.18-.25,.9,.2,.72h0Z"/>
      <path class="cls-22" d="M255.32,604.35c4.38-2.07,8.97-3.66,13.69-4.76,.47-.11,.27-.83-.2-.72-4.78,1.11-9.43,2.73-13.86,4.83-.44,.21-.06,.85,.38,.65h0Z"/>
      <path class="cls-24" d="M459.24,753.97c3.9-14.15,13.08-28.03,28.32-31.23,4.1-.86,8.34-.79,12.38,.35,.47,.13,.66-.59,.2-.72-7.18-2.02-14.87-.69-21.37,2.83-6.76,3.66-11.93,9.65-15.5,16.38-2.05,3.87-3.59,7.98-4.75,12.2-.13,.47,.6,.66,.72,.2h0Z"/>
      <path class="cls-24" d="M509.5,727.2c5.05,3.04,8.45,8.49,8.92,14.37,.04,.48,.79,.48,.75,0-.5-6.15-4-11.84-9.29-15.02-.41-.25-.79,.4-.38,.65h0Z"/>
      <path class="cls-24" d="M464.94,767.7c5.56-11.79,17.94-19.85,31.05-19.67,13.65,.19,26.36,8.72,31.28,21.5,2.78,7.21,3.13,15.24,.85,22.62-.14,.46,.58,.66,.72,.2,4.14-13.43-.39-28.81-11.51-37.52s-25.77-9.96-37.84-3.45c-6.59,3.55-12.01,9.16-15.2,15.93-.2,.43,.44,.82,.65,.38h0Z"/>
      <path class="cls-24" d="M458.97,785.62c3.83-7.02,10.68-12.3,18.65-13.59,4.24-.68,8.7-.25,12.71,1.32s7.4,4.28,10.2,7.52,5.31,7.05,6.13,11.29c.74,3.84-.14,8.28-3.23,10.91-3.54,3.01-8.61,2.6-12.69,1.09-3.8-1.4-7.96-3.55-10.84-6.45s-4.49-7.86-1.55-11.26c3.57-4.13,9.51-.58,12.94,1.83,.4,.28,.77-.37,.38-.65-3.27-2.29-7.88-5.12-11.95-3.16-3.26,1.58-4.19,5.61-3.32,8.89,1.07,4.05,4.76,6.74,8.22,8.69,4.07,2.3,8.67,4.47,13.46,3.96,4.18-.45,7.52-3.02,8.89-7.01,1.47-4.28,.38-8.84-1.73-12.71-4.51-8.29-12.5-14.65-22.11-15.26-10.32-.65-19.91,5.26-24.81,14.22-.23,.42,.42,.8,.65,.38h0Z"/>
      <path class="cls-24" d="M536.1,750.06c2.6-2.29,5.59-4.11,8.82-5.37,.44-.17,.25-.9-.2-.72-3.35,1.31-6.45,3.19-9.15,5.56-.36,.32,.17,.85,.53,.53h0Z"/>
      <path class="cls-24" d="M561.89,740.4c15.39-2.54,30.86,4.16,42.01,14.54,10.91,10.16,20,25.94,15.16,41.18-2.34,7.37-7.76,13.91-15.32,16.21-.46,.14-.26,.86,.2,.72,6.65-2.02,11.78-7.24,14.6-13.49,3.1-6.89,3.26-14.53,1.14-21.73-2.32-7.9-7.04-14.99-12.69-20.9-5.55-5.8-12.23-10.59-19.61-13.77-8.08-3.49-16.96-4.93-25.69-3.49-.48,.08-.27,.8,.2,.72h0Z"/>
      <path class="cls-24" d="M540.08,759.5c14.41-9.47,33.46-11.01,49.19-3.91,.44,.2,.82-.45,.38-.65-12.43-5.61-26.97-5.99-39.75-1.25-3.59,1.33-7.01,3.06-10.2,5.16-.4,.26-.03,.91,.38,.65h0Z"/>
      <path class="cls-24" d="M598.85,764.42c3.36,2.06,6.02,5.13,7.59,8.75,.19,.44,.84,.06,.65-.38-1.62-3.73-4.39-6.9-7.86-9.02-.41-.25-.79,.4-.38,.65h0Z"/>
      <path class="cls-24" d="M539.72,813.67c11.13,15.42,29.74,24.22,48.73,22.84,5.74-.42,11.38-1.72,16.72-3.87,.44-.18,.25-.9-.2-.72-18.08,7.27-39.04,4.32-54.3-7.82-3.91-3.11-7.38-6.75-10.3-10.8-.28-.39-.93-.01-.65,.38h0Z"/>
      <path class="cls-24" d="M587.98,828.97c12.18,2.28,23.39-4.18,32.19-11.98,.36-.32-.17-.85-.53-.53-8.57,7.6-19.57,14.01-31.46,11.78-.47-.09-.67,.63-.2,.72h0Z"/>
      <path class="cls-24" d="M545.42,789.84c3.91,7.93,10.42,14.71,18.59,18.27s16.71,3.39,24.43-.19c4.27-1.98,7.96-5.03,10.58-8.95,.27-.4-.38-.78-.65-.38-4.62,6.89-12.66,10.84-20.85,11.28s-16.77-3.14-22.97-8.92c-3.51-3.28-6.37-7.19-8.49-11.5-.21-.43-.86-.05-.65,.38h0Z"/>
      <path class="cls-24" d="M564.41,778.77c5.99-.13,13.46-.12,16.91,5.73,1.36,2.3,1.77,5.23,.25,7.56-1.62,2.48-4.67,3.56-7.34,4.49-.45,.16-.26,.88,.2,.72,4.17-1.45,9.17-3.76,8.87-8.98-.29-4.95-4.5-8.42-9.01-9.57-3.22-.82-6.58-.77-9.88-.69-.48,.01-.48,.76,0,.75h0Z"/>
      <path class="cls-24" d="M586.18,724.86c5.56-13.38,15.7-24.71,28.27-31.87,3.61-2.06,7.41-3.76,11.35-5.08,.46-.15,.26-.88-.2-.72-13.99,4.7-26.18,14.18-34.32,26.48-2.3,3.47-4.24,7.15-5.83,10.99-.18,.45,.54,.64,.72,.2h0Z"/>
      <path class="cls-24" d="M612.99,701c9.66-6.97,22.7-15.63,34.75-8.78,.42,.24,.8-.41,.38-.65-5.39-3.06-11.9-3.07-17.72-1.3-6.59,2-12.27,6.11-17.79,10.09-.39,.28-.01,.93,.38,.65h0Z"/>
      <path class="cls-24" d="M420.57,768.69c7.12,2.49,12.66,8.67,14.41,15.99,.11,.47,.83,.27,.72-.2-1.81-7.59-7.57-13.95-14.93-16.52-.46-.16-.65,.56-.2,.72h0Z"/>
      <path class="cls-24" d="M434.6,774.86c3.87,3.02,6.44,7.46,7.14,12.32,.07,.48,.79,.27,.72-.2-.71-4.97-3.38-9.56-7.33-12.65-.38-.29-.91,.23-.53,.53h0Z"/>
      <path class="cls-24" d="M614.91,757.05c-1.06-8.6,3.85-16.32,8.38-23.17,.27-.4-.38-.78-.65-.38-4.6,6.96-9.56,14.83-8.49,23.55,.06,.47,.81,.48,.75,0h0Z"/>
      <path class="cls-24" d="M646.18,717.67c-11.19,7.69-19.55,19.2-23.54,32.16-1.14,3.71-1.9,7.51-2.29,11.37-.05,.48,.7,.48,.75,0,1.37-13.3,7.4-25.98,16.73-35.54,2.66-2.73,5.58-5.18,8.72-7.34,.4-.27,.02-.92-.38-.65h0Z"/>
      <path class="cls-24" d="M625.34,768.72c-.58-5.04,.55-10.13,3.21-14.45,.25-.41-.39-.79-.65-.38-2.72,4.42-3.9,9.67-3.31,14.83,.05,.47,.8,.48,.75,0h0Z"/>
      <path class="cls-24" d="M586.93,733.35c3.18-7.56,8.12-14.28,14.36-19.6,.37-.31-.16-.84-.53-.53-6.35,5.41-11.33,12.25-14.56,19.93-.19,.44,.54,.64,.72,.2h0Z"/>
      <path class="cls-24" d="M468.7,753.38c1.61-6.75,4.19-13.23,7.67-19.24,.24-.42-.41-.8-.65-.38-3.51,6.07-6.11,12.61-7.74,19.42-.11,.47,.61,.67,.72,.2h0Z"/>
      <path class="cls-24" d="M479.74,731.3l3.81-3.71c.35-.34-.18-.87-.53-.53l-3.81,3.71c-.35,.34,.18,.87,.53,.53h0Z"/>
      <path class="cls-22" d="M67.26,832.5c3.23-.7,6.69,.51,8.83,3.02,.31,.37,.84-.16,.53-.53-2.31-2.72-6.08-3.96-9.56-3.21-.47,.1-.27,.82,.2,.72h0Z"/>
      <path class="cls-22" d="M222.38,787.04c2.19-15.04,9.51-29.15,20.42-39.71,3.1-3,6.49-5.7,10.11-8.05,.4-.26,.03-.91-.38-.65-12.82,8.34-22.63,20.97-27.72,35.38-1.47,4.16-2.52,8.46-3.16,12.83-.07,.47,.65,.68,.72,.2h0Z"/>
      <path class="cls-22" d="M248.52,745.19c7.23-7.25,16.96-11.69,27.18-12.39,.48-.03,.48-.78,0-.75-10.41,.71-20.34,5.22-27.71,12.61-.34,.34,.19,.87,.53,.53h0Z"/>
      <path class="cls-22" d="M317.11,729.85c1.37-.83,2.89-1.38,4.48-1.62,.2-.03,.31-.28,.26-.46-.06-.21-.26-.29-.46-.26-1.64,.26-3.23,.84-4.65,1.7-.41,.25-.04,.9,.38,.65h0Z"/>
      <path class="cls-22" d="M317.15,733.91c4.88-4.22,11.68-5.88,17.95-4.4,.47,.11,.67-.61,.2-.72-6.55-1.55-13.6,.18-18.68,4.59-.37,.32,.17,.85,.53,.53h0Z"/>
      <path class="cls-22" d="M348.18,745.83c3.43,10.04,2.37,21.29-2.88,30.51-.24,.42,.41,.8,.65,.38,5.35-9.39,6.44-20.86,2.96-31.09-.15-.45-.88-.26-.72,.2h0Z"/>
      <path class="cls-22" d="M352.87,760.8c1.01,7.32-1.87,14.88-7.44,19.72-.36,.32,.17,.85,.53,.53,5.79-5.03,8.68-12.87,7.63-20.45-.07-.48-.79-.27-.72,.2h0Z"/>
      <path class="cls-22" d="M324.59,751.93c7.73,5.7,12.39,15.01,12.37,24.6,0,.48,.75,.48,.75,0,.02-9.88-4.8-19.39-12.74-25.25-.39-.29-.76,.36-.38,.65h0Z"/>
      <path class="cls-3" d="M14.3,851.72c1.73,6.32,19.16,6.75,26.58,6.32,11.68-.68,20.7-4.78,25.99-7.73,10.53,4.16,27.39,9.26,48.47,9.13,13.93-.09,25.67-2.43,34.42-4.92,9.45,2.96,17.71,.38,19.67-4.21,2.55-6-6.22-14.03-7.02-14.75-6.95-6.23-15.53-6.38-18.26-6.32-3.26-8.25-10.29-14-18.26-14.75-6.5-.61-11.49,2.29-13.35,3.51-1.96-2.07-12.01-12.29-26.69-11.94-15.79,.38-30.48,12.82-35.12,30.91-2.46-1.57-5.78-3.12-9.83-3.51-13.96-1.35-28.35,11.82-26.58,18.26Z"/>
      <path class="cls-22" d="M64.56,828.02c3.91-8.71,12.62-15.01,22.16-15.83,9.63-.83,19.42,4.16,24.63,12.26,2.64,4.11,4.55,9.83,2.32,14.54s-7.35,5.67-11.95,5.47c-4.71-.21-9.62-1.36-13.99-3.1s-9.9-5.1-11.3-10.07c-.88-3.12,1.01-5.99,3.79-7.32,3.02-1.45,6.69-1.18,9.91-.69,6.08,.92,11.84,3.47,16.64,7.31,.37,.3,.91-.23,.53-.53-4.63-3.7-10.11-6.26-15.94-7.33-4.97-.91-11.71-1.33-14.87,3.5s1.27,9.84,4.95,12.57c4.45,3.29,10.02,4.85,15.39,5.83,4.51,.82,9.84,1.25,13.91-1.28,4.47-2.77,5.33-8.23,4.09-13.01-2.61-10.05-12.55-17.42-22.57-18.76-11.7-1.55-23.54,5.36-28.34,16.06-.2,.44,.45,.82,.65,.38h0Z"/>
      <path class="cls-22" d="M115.09,826.32c4.17,4.93,5.07,12.21,2.23,18.01-.21,.43,.43,.81,.65,.38,3-6.12,2.06-13.72-2.34-18.92-.31-.37-.84,.16-.53,.53h0Z"/>
      <path class="cls-22" d="M125.21,820.92c5.82,1.3,10.7,5.95,12.09,11.78s-1.01,12.42-5.8,16.18c-.38,.3,.15,.83,.53,.53,4.99-3.92,7.47-10.7,5.99-16.91s-6.55-10.95-12.62-12.31c-.47-.11-.67,.62-.2,.72h0Z"/>
      <path class="cls-22" d="M140.57,836.39c2,3.51-.08,8.55-3.97,9.64-.46,.13-.27,.85,.2,.72,4.36-1.22,6.66-6.81,4.42-10.74-.24-.42-.89-.04-.65,.38h0Z"/>
      <path class="cls-22" d="M632.11,844.48c1.31-6.49,7.7-10.92,14.13-11.15,7.15-.26,13.65,4.01,18,9.39,.3,.38,.83-.16,.53-.53-4.59-5.67-11.68-10.2-19.23-9.57-6.5,.54-12.82,5.06-14.15,11.66-.09,.47,.63,.67,.72,.2h0Z"/>
      <path class="cls-22" d="M634.72,847.43c1.82-3.01,4.09-5.71,6.75-8.01,.37-.32-.17-.85-.53-.53-2.7,2.34-5.02,5.1-6.87,8.16-.25,.41,.4,.79,.65,.38h0Z"/>
      <path class="cls-22" d="M664.66,833.67c2.7-4.77,8.34-7.6,13.78-6.82,.47,.07,.68-.66,.2-.72-5.77-.82-11.75,2.08-14.63,7.17-.24,.42,.41,.8,.65,.38h0Z"/>
      <g>
        <g>
          <path class="cls-10" d="M590.15,656.78c-1.72-1.69-3.54-3.26-5.42-4.76-4.17-4.57-8.77-8.67-13.8-12.33-1.2-.87-2.32-.54-3.04,.28-.17-.12-.34-.23-.51-.34-1.35-1.07-2.8-2.04-4.31-2.89-.42-.31-.83-.63-1.25-.94-.56-.41-1.1-.54-1.6-.5-1.16-.52-2.32-.97-3.46-1.35-.48-.92-1.41-1.27-2.35-1.16-.09-.06-.18-.12-.28-.18-1.07-.68-2.11-.49-2.85,.12-.93-.04-1.89,.02-2.71,.25-2.28-.76-4.68-1.22-7.24-1.25-3.91-.05-7.65,.77-11.23,2.09-.57-.66-1.45-1.01-2.56-.64-.56,.19-1.09,.41-1.62,.67-.53-.08-1.1,0-1.68,.3-3.59,1.87-6.78,4.31-9.82,6.95-.91-.45-2.06-.45-3.05,.38-3.04,2.54-5.94,5.21-8.73,7.98-1.9-1.09-4.75,1.2-3.65,3.76-.17,.19-.34,.38-.51,.56l-3,2.86c-.82,.21-1.56,.74-1.94,1.44-4.85,2.6-9.97,4.38-15.44,5.41-2.68,.51-2.42,4.51,0,5.17,5.76,1.58,11.65,1.85,17.6,1.99,1.01,.02,2.01,.04,3.02,.07,3.31,2.21,6.58,4.47,9.8,6.79,.68,.67,1.37,1.34,2.07,2,.03,.03,.06,.04,.09,.07,.11,.25,.22,.49,.33,.74,.54,1.21,1.82,1.51,2.96,1.2,.04,.03,.09,.07,.13,.1,1.03,.78,2.06,.58,2.81-.05,.94,.59,1.97,1.06,3.08,1.38,.6,.51,1.24,.96,1.91,1.37,.36,.34,.74,.66,1.13,.98,1.26,1,3.73,.83,4.42-.67,.35-.46,.55-1.01,.5-1.56-.43-4.31-2.47-8.21-5.61-10.86-.73-1.81-1.53-3.6-2.41-5.35,.4-5.99,.43-11.99,.07-18.01,1.95-1.97,3.85-3.99,5.7-6.06,7.61-1.86,16.38-4.22,21.58,2.49,.69,.89,2.34,1,3.25,.42,1.25-.8,2.44-1.46,3.81-2.02,1.97,1.41,3.94,2.83,5.91,4.24,.44,.32,.88,.46,1.3,.48,.34,.48,.66,.97,.96,1.47-.09,.8,.16,1.64,.75,2.23,.33,.33,.64,.67,.94,1.02,.83,1.93,1.41,3.93,1.74,5.98-.43,1.07-.91,2.11-1.46,3.14-.09,.17-.16,.35-.21,.53-.01-2.93-4.6-4-5.23-.82-.84,4.2-1.41,9.1,1.85,12.29-2.57,1.84-5.03,3.85-7.23,6.2-2.13,2.28,.54,5.56,3.25,4.21,2.01-1,4-2.04,5.97-3.1,.81,.64,1.94,.91,3.02,.36,3.62-1.84,7.17-3.8,10.64-5.88,.64,.25,1.38,.2,2.12-.36l12.7-9.61c.72-.54,1.05-1.27,1.12-2,.4-.46,.7-.96,.84-1.54,.6-2.42-1.67-4.27-3.18-5.75Zm-24.1,9.59c-.35,1.57-.69,3.03-.94,4.3-.02,.13-.03,.24-.04,.36-2.13-.87-1.17-6.09-.89-7.51,.03,1.18,.86,2.26,1.89,2.67,0,.06-.02,.12-.03,.18Z"/>
          <g>
            <g>
              <path class="cls-21" d="M488.76,647.58c-5.06-5.38-10.91-11.09-17.63-16.86-6.94-5.97-13.68-11.04-19.93-15.33,11.23,4.22,19.94,8.73,26.06,12.26,7.91,4.56,17.08,10.71,17.63,9.97,.28-.38-2.17-2.01-4.6-6.13-1.59-2.7-1.39-3.43-3.07-6.9-1.01-2.08-2.59-5.29-5.37-8.43-1.46-1.65-3.91-4.03-7.67-6.13,3.15,1.16,7.64,3.22,12.26,6.9,4.43,3.52,7.37,7.24,9.2,9.97,2.04,.77,4.09,1.53,6.13,2.3-1.43-2.82-3.5-6.81-6.13-11.5-10.53-18.74-19.16-29.28-18.4-29.9,.78-.63,10.32,9.59,20.7,20.7,0,0,12.56,13.45,13.03,13.03,.19-.17-2.17-2.36-3.07-6.13-.56-2.35-.35-4.49,0-6.13-.24-1.95-.69-4.3-1.53-6.9-.91-2.8-2.04-5.11-3.07-6.9,2.28,1.45,4.96,3.44,7.67,6.13,1.87,1.86,3.38,3.7,4.6,5.37-.19,.66-1.02,3.82,.77,6.9,.97,1.68,2.31,2.62,3.07,3.07-1.99-10.44-4.27-21.18-6.9-32.2-1.24-5.2-2.52-10.31-3.83-15.33,7.67,14.56,15.33,29.13,23,43.69,1.28-.51,2.56-1.02,3.83-1.53-1.01-3.29-1.96-7.43-2.3-12.26-.2-2.81-.16-5.39,0-7.67,.54-1.2,1.48-2.9,3.07-4.6,1.38-1.47,2.78-2.45,3.83-3.07,.77-1.79,1.53-3.58,2.3-5.37s1.53-3.58,2.3-5.37c-1.02-1.79-2.04-3.58-3.07-5.37-.06-1.38,.02-4.08,1.53-6.9,.73-1.35,1.58-2.36,2.3-3.07v6.13c1.28,3.07,2.56,6.13,3.83,9.2,.42,2.48,.85,7.02-.77,12.26-1.04,3.39-2.59,5.96-3.83,7.67,1.05,1.52,2.21,3.57,3.07,6.13,1.86,5.55,1.28,10.44,.77,13.03h5.37c1.69-4.03,3.47-8.12,5.37-12.26,5.41-11.84,11.09-22.82,16.86-32.96-3.63,13.17-6.08,23.93-7.67,31.43-3.02,14.29-2.88,16.68-2.3,16.86,.65,.21,2.29-2.24,3.07-4.6,.64-1.96,.35-2.84,.77-4.6,.63-2.63,2.16-4.31,3.83-6.13,3.16-3.44,6.78-5.22,9.2-6.13-1.4,1.63-3.26,4.17-4.6,7.67-.9,2.33-1.32,4.45-1.53,6.13,.13,1.83,.11,4.54-.77,7.67-.63,2.25-1.52,4.05-2.3,5.37,2.88-3.54,5.94-7.12,9.2-10.73,8.78-9.72,17.6-18.1,26.06-25.3-3.32,4.55-6.65,9.41-9.97,14.56-6.32,9.85-11.63,19.39-16.1,28.36,1.28-.26,2.56-.51,3.83-.77,1.48-1.97,3.25-4.06,5.37-6.13,6.17-6.05,12.73-9.5,17.63-11.5-5.53,3.44-8.38,7.16-9.97,9.97-1.84,3.26-2.39,6-5.37,10.73-1.73,2.75-3.43,4.81-4.6,6.13,5.77-3.57,12.16-7.2,19.16-10.73,8.66-4.36,16.92-7.88,24.53-10.73-7.18,5.28-14.63,11.14-22.23,17.63-5.44,4.65-10.55,9.26-15.33,13.8,.75,1.06,1.65,2.6,2.3,4.6,.93,2.86,.9,5.37,.77,6.9-3.32-.77-6.64-1.53-9.97-2.3-3.87-4.74-10.1-11.44-19.16-17.63-8.25-5.64-15.22-10.4-25.3-11.5-15.39-1.68-27.47,6.33-32.96,9.97-8.99,5.95-17.61,16.85-20.7,21.46-3.32,1.28-4.34,1.02-7.67,2.3,.32-1.35,1.57-5.21,2.3-6.9,.96-2.22,2.07-4,3.07-5.37Z"/>
              <path class="cls-21" d="M592.24,698.94c6.17,6.05,12.73,9.5,17.63,11.5-5.53-3.44-8.38-7.16-9.97-9.97-1.84-3.26-2.39-6-5.37-10.73-1.73-2.75-3.43-4.81-4.6-6.13,5.77,3.57,12.16,7.2,19.16,10.73,8.66,4.36,16.92,7.88,24.53,10.73-7.18-5.28-14.63-11.14-22.23-17.63-5.44-4.65-10.55-9.26-15.33-13.8,.75-1.06,1.65-2.6,2.3-4.6,.93-2.86,.9-5.37,.77-6.9-1.73,.4-3.45,.8-5.18,1.2-.13,.37-.37,.75-.73,1.1-4.36,4.22-9.47,7.41-14.45,10.82-2.57,2.26-5.48,4.57-8.76,6.82-8.25,5.64-15.22,10.4-25.3,11.5-15.39,1.68-27.47-6.33-32.96-9.97-5.67-3.76-9.97-7.95-13.15-11.7-3.79-.42-7.56-1-11.28-1.99,.49,.82,.97,1.55,1.44,2.19-5.06,5.38-10.91,11.09-17.63,16.86-6.94,5.97-13.68,11.04-19.93,15.33,11.23-4.22,19.94-8.73,26.06-12.26,7.91-4.56,17.08-10.71,17.63-9.97,.28,.38-2.17,2.01-4.6,6.13-1.59,2.7-1.39,3.43-3.07,6.9-1.01,2.08-2.59,5.29-5.37,8.43-1.46,1.65-3.91,4.03-7.67,6.13,3.15-1.16,7.64-3.22,12.26-6.9,4.43-3.52,7.37-7.24,9.2-9.97,2.04-.77,4.09-1.53,6.13-2.3-1.43,2.82-3.5,6.81-6.13,11.5-10.53,18.74-19.16,29.28-18.4,29.9,.78,.63,10.32-9.59,20.7-20.7,0,0,12.56-13.45,13.03-13.03,.19,.17-2.17,2.36-3.07,6.13-.56,2.35-.35,4.49,0,6.13-.24,1.95-.69,4.3-1.53,6.9-.91,2.8-2.04,5.11-3.07,6.9,2.28-1.45,4.96-3.44,7.67-6.13,1.87-1.86,3.38-3.7,4.6-5.37-.19-.66-1.02-3.82,.77-6.9,.97-1.68,2.31-2.62,3.07-3.07-1.99,10.44-4.27,21.18-6.9,32.2-1.24,5.2-2.52,10.31-3.83,15.33l23-43.69c1.28,.51,2.56,1.02,3.83,1.53-1.01,3.29-1.96,7.43-2.3,12.26-.2,2.81-.16,5.39,0,7.67,.54,1.2,1.48,2.9,3.07,4.6,1.38,1.47,2.78,2.45,3.83,3.07,.77,1.79,1.53,3.58,2.3,5.37s1.53,3.58,2.3,5.37c-1.02,1.79-2.04,3.58-3.07,5.37-.06,1.38,.02,4.08,1.53,6.9,.73,1.35,1.58,2.36,2.3,3.07v-6.13c1.28-3.07,2.56-6.13,3.83-9.2,.42-2.48,.85-7.02-.77-12.26-1.04-3.39-2.59-5.96-3.83-7.67,1.05-1.52,2.21-3.57,3.07-6.13,1.86-5.55,1.28-10.44,.77-13.03h5.37c1.69,4.03,3.47,8.12,5.37,12.26,5.41,11.84,11.09,22.82,16.86,32.96-3.63-13.17-6.08-23.93-7.67-31.43-3.02-14.29-2.88-16.68-2.3-16.86,.65-.21,2.29,2.24,3.07,4.6,.64,1.96,.35,2.84,.77,4.6,.63,2.63,2.16,4.31,3.83,6.13,3.16,3.44,6.78,5.22,9.2,6.13-1.4-1.63-3.26-4.17-4.6-7.67-.9-2.33-1.32-4.45-1.53-6.13,.13-1.83,.11-4.54-.77-7.67-.63-2.25-1.52-4.05-2.3-5.37,2.88,3.54,5.94,7.12,9.2,10.73,8.78,9.72,17.6,18.1,26.06,25.3-3.32-4.55-6.65-9.41-9.97-14.56-6.32-9.85-11.63-19.39-16.1-28.36,1.28,.26,2.56,.51,3.83,.77,1.48,1.97,3.25,4.06,5.37,6.13Z"/>
              <path class="cls-12" d="M616.44,661.52c-8.36-2.13-15.17-3.93-19.66-5.13,0,0-24.79-34.19-59.83-33.33-28.2,.69-45.42,30.98-46.15,32.48-5.98,2.28-11.97,4.56-17.95,6.84-.09,.07-1.83,1.3-1.71,3.42,.09,1.52,1.1,2.87,2.56,3.42,9.12,2.56,23.93,5.13,23.93,5.13,5.51,4.86,19.12,17.23,34.19,18.8,41.03,4.27,62.97-24.28,64.96-27.35,3.14-.04,7.89-.07,13.68,0,13.72,.17,20.4,.77,20.51,0,.09-.64-4.47-1.71-14.53-4.27Zm-30.77,6.84c-3.04,2.12-18.08,12.64-35.04,15.38-24.85,4.02-45.94-9.92-51.28-13.68-7.41-1.42-14.81-2.85-22.22-4.27,5.7-1.99,11.4-3.99,17.09-5.98,2.34-2.47,5.77-5.84,10.26-9.4,10.65-8.46,21.84-13.73,27.35-15.38,17.39-5.24,41.83,6.31,61.54,27.35-1.78,1.54-4.39,3.67-7.69,5.98Z"/>
              <path class="cls-20" d="M542.08,632.88c-14.87,0-26.92,12.05-26.92,26.92s12.05,26.92,26.92,26.92,26.92-12.05,26.92-26.92-12.05-26.92-26.92-26.92Zm0,39.32c-6.84,0-12.39-5.55-12.39-12.39s5.55-12.39,12.39-12.39,12.39,5.55,12.39,12.39-5.55,12.39-12.39,12.39Z"/>
            </g>
            <path class="cls-7" d="M555.79,640.55c6,4.37,9.63,11.48,9.63,18.91"/>
            <path class="cls-7" d="M532.41,638.22c6.61-3.06,14.66-2.72,21.02,.83"/>
            <path class="cls-7" d="M523.04,672.94c-6.46-9.24-4.99-22.23,2.89-30.16"/>
            <path class="cls-7" d="M549.13,681.58c-6.97,2.32-14.81,1.05-20.76-3.24"/>
            <path class="cls-7" d="M565.42,659.46c0,7.4-3.69,14.33-9.64,18.68"/>
            <path class="cls-7" d="M556.24,645.26c3.64,3.65,5.73,8.66,5.73,13.82"/>
            <path class="cls-7" d="M526.4,648.31c4.9-7.27,14.14-10.58,22.47-7.69"/>
            <path class="cls-7" d="M523.47,663.11c-.52-2.54-.54-5.17-.03-7.72"/>
            <path class="cls-7" d="M529.88,674.01c-1.21-1.01-2.29-2.18-3.2-3.47"/>
            <path class="cls-7" d="M554.23,674.47c-4.85,3.69-11.34,4.86-17.2,3.25"/>
            <path class="cls-7" d="M561.97,659.08c0,3.39-.91,6.74-2.63,9.66"/>
            <circle class="cls-7" cx="542.23" cy="659.66" r="12.46"/>
            <circle class="cls-7" cx="542.04" cy="660.23" r="26.83"/>
            <path class="cls-22" d="M495.32,659.64c7.84-7.54,16.53-14.14,25.91-19.65,.42-.24,.04-.89-.38-.65-9.43,5.54-18.18,12.18-26.06,19.77-.35,.34,.18,.87,.53,.53h0Z"/>
            <path class="cls-22" d="M496.54,655.82c9.07-9.04,19.86-16.24,31.69-21.13,.44-.18,.25-.91-.2-.72-11.96,4.95-22.86,12.19-32.02,21.33-.34,.34,.19,.87,.53,.53h0Z"/>
            <path class="cls-22" d="M534.28,632.85c4.63-1.05,9.38-1.43,14.11-1.14,.48,.03,.48-.72,0-.75-4.8-.3-9.62,.1-14.31,1.17-.47,.11-.27,.83,.2,.72h0Z"/>
            <path class="cls-22" d="M553.43,633.21c15.49,6.08,29.46,15.74,40.63,28.08,.32,.36,.85-.17,.53-.53-11.26-12.43-25.34-22.14-40.96-28.27-.45-.18-.64,.55-.2,.72h0Z"/>
            <path class="cls-22" d="M511.54,679.85c5.4,2.38,11.01,4.22,16.78,5.46,.47,.1,.67-.62,.2-.72-5.7-1.23-11.26-3.03-16.6-5.38-.44-.19-.82,.45-.38,.65h0Z"/>
            <path class="cls-22" d="M559.94,683.62c8.61-2.25,16.75-6,24.05-11.1,.39-.27,.02-.92-.38-.65-7.24,5.06-15.32,8.79-23.87,11.02-.47,.12-.27,.85,.2,.72h0Z"/>
            <path class="cls-22" d="M588.09,669.71c.48,0,.48-.75,0-.75s-.48,.75,0,.75h0Z"/>
            <path class="cls-22" d="M490.71,655.25c9.09-13.43,20.94-26.24,36.89-31.11,.46-.14,.26-.86-.2-.72-12.52,3.83-22.7,12.6-30.82,22.62-2.31,2.85-4.47,5.81-6.52,8.84-.27,.4,.38,.78,.65,.38h0Z"/>
            <path class="cls-22" d="M533.01,623.29c1.38-.14,2.76-.29,4.13-.43,.2-.02,.38-.16,.38-.38,0-.19-.17-.4-.38-.38-1.38,.14-2.76,.29-4.13,.43-.2,.02-.38,.16-.38,.38,0,.19,.17,.4,.38,.38h0Z"/>
            <path class="cls-22" d="M538.88,622.63l2.06,.29c.19,.03,.41-.05,.46-.26,.04-.18-.05-.43-.26-.46l-2.06-.29c-.19-.03-.41,.05-.46,.26-.04,.18,.05,.43,.26,.46h0Z"/>
            <path class="cls-22" d="M552.4,625.46c13.59,4.56,26.07,12.24,36.28,22.3,2.87,2.83,5.55,5.85,8.04,9.03,.3,.38,.82-.15,.53-.53-8.9-11.36-20.39-20.62-33.37-26.92-3.66-1.78-7.43-3.31-11.29-4.6-.46-.15-.66,.57-.2,.72h0Z"/>
            <path class="cls-22" d="M500.94,684.64c-2.39,1.51-4.77,3.01-7.16,4.52-.41,.26-.03,.91,.38,.65,2.39-1.51,4.77-3.01,7.16-4.52,.41-.26,.03-.91-.38-.65h0Z"/>
            <path class="cls-22" d="M491.56,692.87l-.23,.69c-.03,.09,0,.21,.04,.29s.13,.15,.22,.17c.1,.02,.2,.02,.29-.04s.14-.13,.17-.22l.23-.69c.03-.09,0-.21-.04-.29s-.13-.15-.22-.17c-.1-.02-.2-.02-.29,.04s-.14,.13-.17,.22h0Z"/>
            <path class="cls-22" d="M489.8,695.55c-1.63,2.65-3.73,4.99-6.2,6.88-.38,.29,0,.94,.38,.65,2.57-1.97,4.77-4.39,6.47-7.15,.25-.41-.39-.79-.65-.38h0Z"/>
            <path class="cls-22" d="M510.27,688.09c-7.59,11.01-15.48,21.8-23.66,32.38-.29,.38,.24,.91,.53,.53,8.22-10.62,16.15-21.47,23.78-32.53,.27-.4-.38-.77-.65-.38h0Z"/>
            <path class="cls-22" d="M520.07,694.44c-3.45,3.41-6.97,6.96-8.78,11.56-.18,.45,.55,.64,.72,.2,1.76-4.46,5.24-7.92,8.59-11.23,.34-.34-.19-.87-.53-.53h0Z"/>
            <path class="cls-22" d="M511.3,709.27v2.75c0,.48,.75,.48,.75,0v-2.75c0-.48-.75-.48-.75,0h0Z"/>
            <path class="cls-22" d="M510.24,714.15c-.87,1.5-1.87,2.91-3.01,4.22-.31,.36,.21,.9,.53,.53,1.17-1.36,2.22-2.82,3.12-4.38,.24-.42-.4-.8-.65-.38h0Z"/>
            <path class="cls-22" d="M527.92,695.89c-3.94,10.82-7.87,21.64-11.81,32.46-.17,.45,.56,.65,.72,.2,3.94-10.82,7.87-21.64,11.81-32.46,.17-.45-.56-.65-.72-.2h0Z"/>
            <path class="cls-22" d="M493.25,677.58c-6.16,3.96-12.17,8.15-18.01,12.57-.38,.29,0,.94,.38,.65,5.84-4.41,11.85-8.61,18.01-12.57,.4-.26,.03-.91-.38-.65h0Z"/>
            <path class="cls-22" d="M472.27,628.05c1.81,.81,3.33,2.17,4.88,3.38s3.26,2.53,4.89,3.8c3.26,2.53,6.52,5.07,9.79,7.6,.38,.29,.91-.23,.53-.53-3.36-2.61-6.73-5.22-10.09-7.84-1.63-1.27-3.26-2.53-4.89-3.8-1.51-1.17-2.98-2.47-4.73-3.26-.44-.2-.82,.45-.38,.65h0Z"/>
            <path class="cls-22" d="M489.44,622.65c1.13,2.24,2.13,4.53,3,6.88,.17,.45,.89,.25,.72-.2-.9-2.41-1.92-4.76-3.08-7.05-.22-.43-.86-.05-.65,.38h0Z"/>
            <path class="cls-22" d="M493.99,631.71c1.61,1.25,3.49,2.02,5.51,2.26,.2,.02,.37-.19,.38-.38,0-.22-.17-.35-.38-.38-1.8-.21-3.55-.93-4.98-2.04-.16-.13-.37-.15-.53,0-.13,.13-.16,.41,0,.53h0Z"/>
            <path class="cls-22" d="M490.65,604.5c.46,1.19,1.24,2.2,2.26,2.96,.16,.12,.42,.03,.51-.13,.11-.19,.03-.39-.13-.51-.84-.63-1.54-1.54-1.91-2.51-.07-.19-.25-.32-.46-.26-.18,.05-.34,.27-.26,.46h0Z"/>
            <path class="cls-22" d="M495.63,611.73c3.89,4.74,7.58,9.65,11.04,14.72,.27,.4,.92,.02,.65-.38-3.5-5.12-7.22-10.08-11.16-14.87-.31-.37-.83,.16-.53,.53h0Z"/>
            <path class="cls-22" d="M508.85,603.32c.88,.72,1.51,1.68,1.8,2.77,.13,.47,.85,.27,.72-.2-.33-1.21-1.03-2.31-2-3.1-.16-.13-.38-.15-.53,0-.13,.13-.16,.4,0,.53h0Z"/>
            <path class="cls-22" d="M511.22,609.44c-.61,5.2,.95,10.49,4.24,14.56,.3,.38,.83-.16,.53-.53-3.17-3.92-4.61-9.03-4.03-14.03,.06-.48-.69-.47-.75,0h0Z"/>
            <path class="cls-22" d="M515.46,587.28c.46,1.15,.92,2.29,1.38,3.44,.08,.19,.25,.32,.46,.26,.18-.05,.34-.27,.26-.46-.46-1.15-.92-2.29-1.38-3.44-.08-.19-.25-.32-.46-.26-.18,.05-.34,.27-.26,.46h0Z"/>
            <path class="cls-22" d="M519.47,598.73c2.1,7.23,4.5,14.36,7.19,21.39,.17,.45,.9,.25,.72-.2-2.69-7.03-5.09-14.16-7.19-21.39-.13-.46-.86-.27-.72,.2h0Z"/>
            <path class="cls-22" d="M546.1,574.56c-.57,5.51-3.44,10.38-6.23,15.04-.25,.42,.4,.79,.65,.38,2.86-4.79,5.75-9.76,6.33-15.42,.05-.48-.7-.48-.75,0h0Z"/>
            <path class="cls-22" d="M538.39,593.06l-.44,2.53c-.03,.2,.05,.4,.26,.46,.18,.05,.43-.06,.46-.26l.44-2.53c.03-.2-.05-.4-.26-.46-.18-.05-.43,.06-.46,.26h0Z"/>
            <path class="cls-22" d="M538.47,599.43c1.28,5.49,2.14,11.06,2.56,16.68,.04,.48,.79,.48,.75,0-.43-5.68-1.3-11.32-2.59-16.88-.11-.47-.83-.27-.72,.2h0Z"/>
            <path class="cls-22" d="M568.47,585.16c-4.67,11.02-8.67,22.32-11.97,33.82-.13,.46,.59,.66,.72,.2,3.28-11.44,7.25-22.68,11.89-33.65,.19-.44-.46-.82-.65-.38h0Z"/>
            <path class="cls-22" d="M574.01,604.77l-.63,3.91c-.03,.2,.05,.4,.26,.46,.18,.05,.43-.06,.46-.26l.63-3.91c.03-.2-.05-.4-.26-.46-.18-.05-.43,.06-.46,.26h0Z"/>
            <path class="cls-22" d="M571.56,615.28c-1.04,2.65-2.37,5.18-3.96,7.55-.27,.4,.38,.78,.65,.38,1.62-2.42,2.97-5.01,4.03-7.72,.18-.45-.55-.64-.72-.2h0Z"/>
            <path class="cls-22" d="M591.15,606.47c-3.58,5.37-7.15,10.73-10.73,16.1-.27,.4,.38,.78,.65,.38,3.58-5.37,7.15-10.73,10.73-16.1,.27-.4-.38-.78-.65-.38h0Z"/>
            <path class="cls-22" d="M578.34,626.23c-.4,.83-.8,1.67-1.2,2.5-.09,.18-.05,.41,.13,.51,.16,.1,.42,.05,.51-.13,.4-.83,.8-1.67,1.2-2.5,.09-.18,.05-.41-.13-.51-.16-.1-.42-.05-.51,.13h0Z"/>
            <path class="cls-22" d="M595.78,621.41c-.99,1.61-1.98,3.22-2.97,4.82-.25,.41,.39,.79,.65,.38,.99-1.61,1.98-3.22,2.97-4.82,.25-.41-.39-.79-.65-.38h0Z"/>
            <path class="cls-22" d="M589.49,631.14c-1.67,1.08-3.35,2.17-5.02,3.25-.4,.26-.03,.91,.38,.65,1.67-1.08,3.35-2.17,5.02-3.25,.4-.26,.03-.91-.38-.65h0Z"/>
            <path class="cls-22" d="M590.89,641.8c6.61-4.52,13.11-9.19,19.5-14.02,.38-.29,0-.94-.38-.65-6.39,4.83-12.89,9.5-19.5,14.02-.4,.27-.02,.92,.38,.65h0Z"/>
            <path class="cls-22" d="M592.83,677.61c6.46,5.46,14.12,9.23,20.59,14.66,.37,.31,.9-.22,.53-.53-6.48-5.43-14.14-9.21-20.59-14.66-.37-.31-.9,.22-.53,.53h0Z"/>
            <path class="cls-22" d="M585.17,685.46l3.85,2.82c.16,.12,.42,.03,.51-.13,.11-.19,.03-.39-.13-.51l-3.85-2.82c-.16-.12-.42-.03-.51,.13-.11,.19-.03,.39,.13,.51h0Z"/>
            <path class="cls-22" d="M590.43,690.25c1.26,3.45,3.27,6.59,5.88,9.18,.34,.34,.87-.19,.53-.53-2.52-2.49-4.47-5.52-5.69-8.85-.16-.45-.89-.26-.72,.2h0Z"/>
            <path class="cls-22" d="M576.61,693.11c4.61,7.98,9.85,15.58,15.68,22.72,.31,.37,.83-.16,.53-.53-5.79-7.09-10.99-14.64-15.56-22.56-.24-.42-.89-.04-.65,.38h0Z"/>
            <path class="cls-22" d="M569.11,698.71c.8,1.44,1.59,2.87,2.39,4.31,.23,.42,.88,.04,.65-.38-.8-1.44-1.59-2.87-2.39-4.31-.23-.42-.88-.04-.65,.38h0Z"/>
            <path class="cls-22" d="M572.53,706.98c.3,2.3,.56,4.61,.9,6.91,.25,1.75,.7,3.55,2.03,4.8,.35,.33,.88-.2,.53-.53-1.28-1.2-1.63-2.97-1.86-4.64-.3-2.18-.57-4.36-.85-6.54-.06-.47-.81-.48-.75,0h0Z"/>
            <path class="cls-22" d="M557.61,700.9c3.59,9.21,6.64,18.61,9.14,28.17,.12,.47,.85,.27,.72-.2-2.51-9.56-5.56-18.96-9.14-28.17-.17-.44-.9-.25-.72,.2h0Z"/>
            <path class="cls-22" d="M541.98,700.67c.9,3.06,1.1,6.28,.56,9.42-.08,.47,.64,.67,.72,.2,.56-3.28,.38-6.63-.56-9.82-.14-.46-.86-.27-.72,.2h0Z"/>
            <path class="cls-22" d="M541.95,714.4c-.89,2.25-1.77,4.51-2.66,6.76-.8,2.03-1.7,4.09-1.33,6.32,.08,.48,.8,.27,.72-.2-.37-2.21,.73-4.39,1.52-6.4s1.65-4.19,2.47-6.29c.18-.45-.55-.64-.72-.2h0Z"/>
            <path class="cls-22" d="M538.68,716.08c-1.51,3.82-2.3,7.9-2.34,12.01,0,.48,.75,.48,.75,0,.04-4.05,.83-8.04,2.31-11.81,.18-.45-.55-.64-.72-.2h0Z"/>
            <path class="cls-22" d="M542.52,720.76c-1.64,2.96-2.21,6.39-1.66,9.73,.08,.47,.8,.27,.72-.2-.52-3.13,.05-6.38,1.58-9.15,.23-.42-.41-.8-.65-.38h0Z"/>
            <path class="cls-22" d="M541.85,733.33c1.51,2.17,2.49,4.64,2.88,7.26,.07,.48,.79,.27,.72-.2-.4-2.67-1.42-5.22-2.96-7.43-.27-.39-.92-.02-.65,.38h0Z"/>
            <path class="cls-22" d="M537.81,730.17c.78,.83,1.55,1.66,2.33,2.49,.14,.15,.39,.14,.53,0,.15-.15,.14-.38,0-.53-.78-.83-1.55-1.66-2.33-2.49-.14-.15-.39-.14-.53,0-.15,.15-.14,.38,0,.53h0Z"/>
          </g>
        </g>
        <path class="cls-6" d="M544.07,435.48c0-12.33,0-24.67,0-37"/>
        <path class="cls-6" d="M544.07,523.58v-72.75"/>
        <g>
          <path class="cls-6" d="M497.66,523.56l8.07,22.4,.48,1.33"/>
          <path class="cls-6" d="M479.43,472.25c4.33,11.53,8.54,23.11,12.3,34.85"/>
        </g>
        <path class="cls-6" d="M514.79,480.2c6.06,27.22,11.11,55.49,17.67,82.24"/>
        <path class="cls-6" d="M506.21,440.3c.5,8.58,4.54,16.66,5.34,24.86"/>
        <g>
          <path class="cls-6" d="M599.56,521.54c-2.69,7.47-5.38,14.93-8.07,22.4l-.48,1.33"/>
          <path class="cls-6" d="M617.79,470.23c-4.33,11.53-8.54,23.11-12.3,34.85"/>
        </g>
        <path class="cls-6" d="M582.43,478.18c-6.06,27.22-11.11,55.49-17.67,82.24"/>
        <path class="cls-6" d="M591,438.28c-.5,8.58-4.54,16.66-5.34,24.86"/>
        <g>
          <path class="cls-6" d="M665.95,666.66h72.75"/>
          <path class="cls-6" d="M665.97,620.26c-7.47,2.69-14.93,5.38-22.4,8.07-.44,.16-.89,.32-1.33,.48"/>
          <path class="cls-6" d="M709.33,637.38c-27.22,6.06-55.49,11.11-82.24,17.67"/>
          <path class="cls-6" d="M667.99,722.15c-7.47-2.69-14.93-5.38-22.4-8.07l-1.33-.48"/>
          <path class="cls-6" d="M711.35,705.02c-27.22-6.06-55.49-11.11-82.24-17.67"/>
        </g>
        <g>
          <path class="cls-6" d="M331.32,658.72c-9.31,0-18.62,0-27.92,0"/>
          <path class="cls-6" d="M419.42,658.72c-24.23,0-48.45,0-72.75,0"/>
          <g>
            <path class="cls-6" d="M419.4,612.32c7.47,2.69,14.93,5.38,22.4,8.07l1.33,.48"/>
            <path class="cls-6" d="M368.09,594.09c11.53,4.33,23.11,8.54,34.85,12.3"/>
          </g>
          <path class="cls-6" d="M376.04,629.44c27.22,6.06,55.49,11.11,82.24,17.67"/>
          <path class="cls-6" d="M336.14,620.87c8.58,.5,16.66,4.54,24.86,5.34"/>
          <g>
            <path class="cls-6" d="M417.38,714.21c7.47-2.69,14.93-5.38,22.4-8.07l1.33-.48"/>
            <path class="cls-6" d="M366.07,732.44c11.53-4.33,23.11-8.54,34.85-12.3"/>
          </g>
          <path class="cls-6" d="M374.02,697.09c27.22-6.06,55.49-11.11,82.24-17.67"/>
          <path class="cls-6" d="M334.12,705.66c8.58-.5,16.66-4.54,24.86-5.34"/>
        </g>
      </g>
    </g>
  </g>
</svg>