<svg width="1336" height="262" viewBox="0 0 1336 262" fill="none" xmlns="http://www.w3.org/2000/svg">
<g clip-path="url(#clip0_2054_3956)">
<path d="M1105.97 34.0837C1106.15 34.276 1106.39 34.4094 1106.65 34.4669C1106.91 34.5244 1107.18 34.5036 1107.43 34.407C1107.68 34.3104 1107.89 34.1423 1108.05 33.9241C1108.2 33.7058 1108.28 33.447 1108.29 33.1804C1108.3 32.9137 1108.22 32.6511 1108.08 32.4256C1107.94 32.2001 1107.73 32.0218 1107.49 31.9132C1107.25 31.8046 1106.98 31.7706 1106.71 31.8154C1106.45 31.8601 1106.21 31.9817 1106.01 32.1648C1105.75 32.4138 1105.6 32.7552 1105.6 33.1146C1105.59 33.474 1105.72 33.8223 1105.97 34.0837Z" fill="#F1F0EF"/>
<path d="M1147.49 174.744C1147.81 175.076 1148.22 175.306 1148.66 175.406C1149.11 175.506 1149.58 175.471 1150 175.306C1150.43 175.141 1150.8 174.852 1151.06 174.477C1151.33 174.103 1151.47 173.658 1151.48 173.2C1151.49 172.742 1151.37 172.291 1151.12 171.904C1150.88 171.517 1150.52 171.212 1150.1 171.027C1149.68 170.842 1149.22 170.785 1148.77 170.863C1148.32 170.942 1147.9 171.153 1147.57 171.469C1147.35 171.679 1147.17 171.93 1147.05 172.209C1146.93 172.487 1146.86 172.787 1146.85 173.091C1146.85 173.395 1146.9 173.697 1147.01 173.981C1147.12 174.265 1147.28 174.524 1147.49 174.744Z" fill="#FDEA60"/>
<path d="M1234.14 90.9513C1234.33 91.1456 1234.56 91.2813 1234.83 91.3409C1235.09 91.4006 1235.36 91.3817 1235.61 91.2866C1235.86 91.1915 1236.07 91.0244 1236.23 90.8066C1236.38 90.5887 1236.47 90.3299 1236.48 90.0627C1236.48 89.7956 1236.41 89.5321 1236.27 89.3057C1236.13 89.0793 1235.92 88.9001 1235.68 88.7908C1235.43 88.6814 1235.16 88.6468 1234.9 88.6914C1234.64 88.736 1234.39 88.8577 1234.2 89.0411C1233.94 89.2887 1233.79 89.6277 1233.78 89.9849C1233.77 90.3422 1233.9 90.6892 1234.14 90.9513Z" fill="#F1F0EF"/>
<path d="M1146.48 148.574C1146.66 148.768 1146.9 148.904 1147.16 148.963C1147.42 149.023 1147.69 149.004 1147.94 148.909C1148.19 148.814 1148.41 148.647 1148.56 148.429C1148.72 148.211 1148.8 147.952 1148.81 147.685C1148.82 147.418 1148.75 147.155 1148.6 146.928C1148.46 146.702 1148.25 146.523 1148.01 146.413C1147.77 146.304 1147.5 146.269 1147.23 146.314C1146.97 146.358 1146.73 146.48 1146.53 146.664C1146.27 146.91 1146.12 147.249 1146.11 147.607C1146.1 147.965 1146.23 148.313 1146.48 148.574Z" fill="#F1F0EF"/>
<path d="M1082.74 117.265C1082.92 117.457 1083.16 117.591 1083.42 117.648C1083.68 117.706 1083.95 117.685 1084.2 117.588C1084.45 117.492 1084.66 117.324 1084.81 117.105C1084.97 116.887 1085.05 116.628 1085.06 116.362C1085.06 116.095 1084.99 115.833 1084.85 115.607C1084.71 115.382 1084.5 115.203 1084.26 115.095C1084.01 114.986 1083.74 114.952 1083.48 114.997C1083.22 115.042 1082.97 115.163 1082.78 115.346C1082.65 115.469 1082.55 115.616 1082.47 115.779C1082.4 115.942 1082.36 116.117 1082.36 116.296C1082.35 116.474 1082.39 116.652 1082.45 116.818C1082.51 116.985 1082.61 117.136 1082.74 117.265Z" fill="#F1F0EF"/>
<path d="M1071.91 44.4769C1072.28 44.8602 1072.75 45.1267 1073.26 45.2428C1073.78 45.3589 1074.32 45.3194 1074.81 45.1294C1075.31 44.9394 1075.73 44.6074 1076.04 44.1751C1076.34 43.7429 1076.51 43.2299 1076.52 42.7008C1076.54 42.1718 1076.39 41.6504 1076.11 41.2025C1075.83 40.7547 1075.42 40.4004 1074.94 40.1844C1074.46 39.9684 1073.92 39.9004 1073.4 39.9889C1072.88 40.0775 1072.39 40.3186 1072.01 40.6819C1071.5 41.1726 1071.2 41.8474 1071.18 42.5586C1071.16 43.2698 1071.42 43.9596 1071.91 44.4769Z" fill="#F06483"/>
<path d="M1226.8 200.371C1226.62 200.171 1226.39 200.028 1226.14 199.96C1225.88 199.892 1225.61 199.901 1225.35 199.987C1225.1 200.074 1224.88 200.233 1224.72 200.444C1224.56 200.656 1224.46 200.911 1224.44 201.177C1224.43 201.443 1224.49 201.709 1224.62 201.94C1224.75 202.171 1224.95 202.358 1225.19 202.477C1225.43 202.595 1225.7 202.64 1225.96 202.607C1226.23 202.573 1226.48 202.462 1226.68 202.287C1226.95 202.049 1227.11 201.714 1227.13 201.355C1227.16 200.996 1227.04 200.643 1226.8 200.371Z" fill="#F1F0EF"/>
<path d="M1191.16 58.103C1190.86 57.7586 1190.46 57.5115 1190.02 57.393C1189.58 57.2745 1189.11 57.29 1188.68 57.4373C1188.24 57.5847 1187.86 57.8574 1187.59 58.2209C1187.31 58.5845 1187.14 59.0226 1187.11 59.4798C1187.08 59.9369 1187.19 60.3927 1187.42 60.7894C1187.65 61.1862 1187.99 61.506 1188.4 61.7086C1188.81 61.9111 1189.27 61.9873 1189.73 61.9274C1190.18 61.8675 1190.61 61.6743 1190.95 61.3721C1191.18 61.1715 1191.37 60.9278 1191.5 60.6549C1191.64 60.3821 1191.71 60.0854 1191.73 59.7818C1191.75 59.4782 1191.71 59.1737 1191.62 58.8857C1191.52 58.5976 1191.36 58.3316 1191.16 58.103Z" fill="#FDEA60"/>
<path d="M1101.1 138.214C1100.93 138.012 1100.7 137.867 1100.44 137.796C1100.18 137.726 1099.91 137.733 1099.65 137.818C1099.4 137.903 1099.18 138.06 1099.02 138.272C1098.85 138.483 1098.75 138.738 1098.74 139.004C1098.72 139.271 1098.78 139.537 1098.91 139.769C1099.04 140.002 1099.24 140.189 1099.48 140.309C1099.72 140.428 1099.99 140.474 1100.25 140.44C1100.52 140.407 1100.77 140.295 1100.97 140.12C1101.24 139.883 1101.4 139.551 1101.43 139.194C1101.45 138.838 1101.33 138.486 1101.1 138.214Z" fill="#F1F0EF"/>
<path d="M988.998 68.9514C988.821 68.7512 988.588 68.608 988.33 68.5398C988.072 68.4717 987.799 68.4816 987.547 68.5685C987.294 68.6554 987.073 68.8154 986.912 69.028C986.75 69.2407 986.655 69.4966 986.639 69.7634C986.623 70.0301 986.686 70.2958 986.821 70.5267C986.955 70.7576 987.155 70.9434 987.395 71.0607C987.635 71.178 987.905 71.2214 988.169 71.1855C988.434 71.1496 988.682 71.0359 988.882 70.8589C989.014 70.7414 989.123 70.5988 989.2 70.4394C989.278 70.2799 989.324 70.1067 989.334 69.9295C989.345 69.7524 989.321 69.5748 989.263 69.407C989.205 69.2392 989.115 69.0844 988.998 68.9514Z" fill="#F1F0EF"/>
<path d="M1191.09 84.293C1190.91 84.0912 1190.68 83.9459 1190.42 83.8754C1190.17 83.805 1189.89 83.8125 1189.64 83.8972C1189.39 83.9818 1189.17 84.1397 1189 84.351C1188.84 84.5622 1188.74 84.8172 1188.72 85.0838C1188.7 85.3504 1188.77 85.6165 1188.9 85.8487C1189.03 86.0808 1189.23 86.2685 1189.47 86.3879C1189.71 86.5073 1189.98 86.5531 1190.24 86.5196C1190.51 86.486 1190.75 86.3745 1190.96 86.1993C1191.23 85.9644 1191.39 85.6315 1191.42 85.274C1191.44 84.9165 1191.32 84.5637 1191.09 84.293Z" fill="#F1F0EF"/>
<path d="M1253.47 118.23C1253.3 118.03 1253.07 117.887 1252.81 117.818C1252.55 117.75 1252.28 117.76 1252.03 117.846C1251.77 117.932 1251.55 118.091 1251.39 118.303C1251.23 118.514 1251.13 118.769 1251.12 119.036C1251.1 119.302 1251.16 119.567 1251.29 119.798C1251.43 120.03 1251.62 120.216 1251.86 120.335C1252.1 120.454 1252.37 120.499 1252.64 120.465C1252.9 120.431 1253.15 120.32 1253.35 120.145C1253.48 120.028 1253.59 119.886 1253.67 119.726C1253.75 119.566 1253.8 119.392 1253.81 119.214C1253.82 119.036 1253.8 118.857 1253.74 118.688C1253.68 118.519 1253.59 118.364 1253.47 118.23Z" fill="#F1F0EF"/>
<path d="M1261.26 191.406C1260.91 191.007 1260.45 190.722 1259.94 190.584C1259.43 190.447 1258.89 190.464 1258.39 190.633C1257.89 190.802 1257.45 191.116 1257.13 191.535C1256.81 191.955 1256.61 192.46 1256.58 192.988C1256.54 193.516 1256.66 194.043 1256.93 194.502C1257.19 194.961 1257.58 195.332 1258.06 195.568C1258.53 195.804 1259.06 195.895 1259.59 195.828C1260.11 195.761 1260.61 195.54 1261 195.193C1261.54 194.724 1261.87 194.063 1261.91 193.353C1261.96 192.643 1261.73 191.943 1261.26 191.406Z" fill="#F06483"/>
<path d="M1213.55 153.061C1213.73 153.253 1213.97 153.386 1214.23 153.444C1214.49 153.501 1214.76 153.481 1215.01 153.384C1215.26 153.287 1215.47 153.119 1215.63 152.901C1215.78 152.683 1215.86 152.424 1215.87 152.157C1215.88 151.891 1215.8 151.628 1215.66 151.403C1215.52 151.177 1215.31 150.999 1215.07 150.89C1214.83 150.782 1214.56 150.748 1214.29 150.792C1214.03 150.837 1213.79 150.959 1213.59 151.142C1213.33 151.391 1213.18 151.732 1213.18 152.092C1213.17 152.451 1213.3 152.799 1213.55 153.061Z" fill="#F1F0EF"/>
<path d="M1190.31 236.242C1190.5 236.435 1190.74 236.568 1191 236.625C1191.26 236.683 1191.53 236.662 1191.78 236.565C1192.03 236.469 1192.24 236.301 1192.39 236.083C1192.55 235.864 1192.63 235.606 1192.64 235.339C1192.64 235.072 1192.57 234.81 1192.43 234.584C1192.29 234.359 1192.08 234.18 1191.84 234.072C1191.59 233.963 1191.32 233.929 1191.06 233.974C1190.8 234.019 1190.55 234.14 1190.36 234.323C1190.23 234.446 1190.13 234.593 1190.05 234.756C1189.98 234.919 1189.94 235.095 1189.94 235.273C1189.93 235.451 1189.96 235.629 1190.03 235.795C1190.09 235.962 1190.19 236.113 1190.31 236.242Z" fill="#F1F0EF"/>
<path d="M1179.49 163.454C1179.86 163.837 1180.33 164.104 1180.84 164.22C1181.36 164.336 1181.9 164.296 1182.39 164.106C1182.89 163.916 1183.31 163.584 1183.62 163.152C1183.92 162.72 1184.09 162.207 1184.1 161.678C1184.12 161.149 1183.97 160.627 1183.69 160.18C1183.41 159.732 1183 159.377 1182.52 159.161C1182.04 158.945 1181.5 158.877 1180.98 158.966C1180.46 159.054 1179.97 159.296 1179.59 159.659C1179.08 160.15 1178.78 160.824 1178.76 161.536C1178.74 162.247 1179 162.937 1179.49 163.454Z" fill="#F06483"/>
<path d="M951.969 23.9591C952.153 24.1514 952.391 24.2847 952.651 24.3423C952.912 24.3998 953.183 24.379 953.431 24.2824C953.68 24.1858 953.894 24.0177 954.047 23.7994C954.2 23.5812 954.285 23.3224 954.291 23.0558C954.298 22.7891 954.225 22.5265 954.082 22.301C953.94 22.0755 953.734 21.8972 953.49 21.7886C953.247 21.68 952.976 21.646 952.714 21.6907C952.451 21.7355 952.207 21.857 952.014 22.0401C951.755 22.2892 951.605 22.6306 951.596 22.99C951.588 23.3494 951.722 23.6977 951.969 23.9591Z" fill="#F1F0EF"/>
<path d="M993.494 164.62C993.811 164.951 994.218 165.181 994.665 165.281C995.112 165.381 995.578 165.346 996.005 165.181C996.432 165.016 996.8 164.728 997.063 164.353C997.326 163.978 997.472 163.533 997.482 163.075C997.493 162.617 997.367 162.166 997.122 161.78C996.876 161.393 996.521 161.087 996.102 160.902C995.684 160.717 995.219 160.66 994.768 160.739C994.317 160.818 993.9 161.028 993.569 161.345C993.349 161.554 993.173 161.806 993.05 162.084C992.928 162.362 992.861 162.662 992.854 162.966C992.847 163.27 992.9 163.573 993.01 163.856C993.12 164.14 993.284 164.4 993.494 164.62Z" fill="#FDEA60"/>
<path d="M1080.14 80.8267C1080.33 81.021 1080.57 81.1566 1080.83 81.2163C1081.09 81.276 1081.36 81.257 1081.61 81.1619C1081.86 81.0668 1082.07 80.8998 1082.23 80.6819C1082.38 80.4641 1082.47 80.2053 1082.48 79.9381C1082.48 79.671 1082.41 79.4075 1082.27 79.1811C1082.13 78.9547 1081.92 78.7755 1081.68 78.6662C1081.43 78.5568 1081.16 78.5222 1080.9 78.5668C1080.64 78.6113 1080.39 78.733 1080.2 78.9165C1079.94 79.1641 1079.79 79.503 1079.78 79.8603C1079.77 80.2176 1079.9 80.5646 1080.14 80.8267Z" fill="#F1F0EF"/>
<path d="M1195.03 145.36C1195.22 145.552 1195.46 145.686 1195.72 145.743C1195.98 145.8 1196.25 145.779 1196.5 145.682C1196.75 145.584 1196.96 145.415 1197.11 145.196C1197.27 144.977 1197.35 144.717 1197.36 144.45C1197.36 144.183 1197.29 143.92 1197.14 143.695C1197 143.47 1196.79 143.293 1196.55 143.185C1196.3 143.078 1196.03 143.046 1195.77 143.093C1195.5 143.14 1195.26 143.264 1195.07 143.449C1194.94 143.572 1194.84 143.719 1194.77 143.881C1194.7 144.044 1194.66 144.219 1194.66 144.396C1194.65 144.574 1194.68 144.75 1194.75 144.915C1194.81 145.081 1194.91 145.232 1195.03 145.36Z" fill="#F1F0EF"/>
<path d="M992.479 138.449C992.663 138.643 992.899 138.779 993.16 138.839C993.42 138.898 993.692 138.879 993.942 138.784C994.191 138.689 994.407 138.522 994.561 138.304C994.716 138.086 994.802 137.828 994.81 137.561C994.817 137.293 994.746 137.03 994.603 136.804C994.461 136.577 994.255 136.398 994.012 136.289C993.768 136.179 993.497 136.145 993.234 136.189C992.971 136.234 992.727 136.355 992.533 136.539C992.272 136.785 992.12 137.124 992.11 137.483C992.1 137.841 992.233 138.189 992.479 138.449Z" fill="#F1F0EF"/>
<path d="M928.736 107.141C928.92 107.333 929.158 107.466 929.418 107.524C929.679 107.581 929.95 107.56 930.198 107.464C930.447 107.367 930.661 107.199 930.814 106.981C930.967 106.763 931.052 106.504 931.058 106.237C931.065 105.971 930.992 105.708 930.849 105.482C930.707 105.257 930.501 105.079 930.257 104.97C930.014 104.861 929.744 104.827 929.481 104.872C929.218 104.917 928.975 105.038 928.781 105.222C928.651 105.344 928.547 105.491 928.475 105.654C928.402 105.817 928.363 105.993 928.359 106.171C928.354 106.35 928.385 106.527 928.45 106.694C928.515 106.86 928.612 107.012 928.736 107.141Z" fill="#F1F0EF"/>
<path d="M917.913 34.3523C918.278 34.7355 918.748 35.002 919.264 35.1182C919.78 35.2343 920.319 35.1948 920.813 35.0048C921.306 34.8148 921.732 34.4827 922.037 34.0505C922.341 33.6183 922.511 33.1052 922.525 32.5762C922.539 32.0472 922.395 31.5258 922.113 31.0779C921.831 30.6301 921.423 30.2758 920.94 30.0598C920.457 29.8438 919.921 29.7758 919.4 29.8643C918.878 29.9528 918.395 30.194 918.011 30.5573C917.496 31.048 917.197 31.7228 917.179 32.434C917.161 33.1452 917.425 33.8349 917.913 34.3523Z" fill="#F06483"/>
<path d="M1072.8 190.247C1072.63 190.047 1072.39 189.904 1072.14 189.835C1071.88 189.767 1071.61 189.777 1071.35 189.863C1071.1 189.949 1070.88 190.108 1070.72 190.32C1070.56 190.531 1070.46 190.786 1070.44 191.052C1070.43 191.319 1070.49 191.584 1070.62 191.815C1070.75 192.047 1070.95 192.233 1071.19 192.352C1071.43 192.471 1071.7 192.516 1071.96 192.482C1072.23 192.448 1072.48 192.337 1072.68 192.162C1072.95 191.924 1073.11 191.589 1073.13 191.23C1073.16 190.872 1073.04 190.518 1072.8 190.247Z" fill="#F1F0EF"/>
<path d="M1037.16 47.9783C1036.86 47.6339 1036.46 47.3869 1036.02 47.2684C1035.58 47.1499 1035.11 47.1653 1034.68 47.3127C1034.25 47.46 1033.87 47.7327 1033.59 48.0963C1033.31 48.4598 1033.14 48.8979 1033.11 49.3551C1033.09 49.8123 1033.19 50.2681 1033.42 50.6648C1033.65 51.0616 1033.99 51.3814 1034.4 51.5839C1034.81 51.7865 1035.28 51.8627 1035.73 51.8028C1036.18 51.7429 1036.61 51.5497 1036.95 51.2475C1037.18 51.0469 1037.37 50.8032 1037.5 50.5303C1037.64 50.2574 1037.71 49.9607 1037.73 49.6572C1037.75 49.3536 1037.71 49.0491 1037.62 48.761C1037.52 48.473 1037.36 48.207 1037.16 47.9783Z" fill="#FDEA60"/>
<path d="M947.102 128.089C946.927 127.887 946.696 127.742 946.439 127.671C946.181 127.601 945.908 127.609 945.655 127.693C945.402 127.778 945.179 127.936 945.016 128.147C944.852 128.358 944.755 128.613 944.737 128.88C944.718 129.146 944.779 129.413 944.911 129.645C945.044 129.877 945.242 130.065 945.481 130.184C945.72 130.303 945.989 130.349 946.254 130.316C946.519 130.282 946.768 130.171 946.97 129.995C947.237 129.759 947.401 129.426 947.426 129.07C947.45 128.713 947.334 128.361 947.102 128.089Z" fill="#F1F0EF"/>
<path d="M834.998 58.8268C834.821 58.6265 834.589 58.4833 834.33 58.4152C834.072 58.347 833.8 58.357 833.547 58.4439C833.295 58.5308 833.074 58.6907 832.912 58.9034C832.751 59.1161 832.656 59.372 832.639 59.6387C832.623 59.9055 832.686 60.1711 832.821 60.4021C832.956 60.633 833.156 60.8188 833.396 60.9361C833.636 61.0533 833.905 61.0967 834.17 61.0608C834.434 61.0249 834.682 60.9113 834.882 60.7343C835.015 60.6168 835.123 60.4742 835.201 60.3147C835.279 60.1553 835.324 59.982 835.335 59.8049C835.346 59.6278 835.321 59.4502 835.264 59.2824C835.206 59.1146 835.116 58.9597 834.998 58.8268Z" fill="#F1F0EF"/>
<path d="M1037.09 74.1684C1036.91 73.9666 1036.68 73.8213 1036.43 73.7508C1036.17 73.6803 1035.89 73.6879 1035.64 73.7725C1035.39 73.8572 1035.17 74.0151 1035 74.2263C1034.84 74.4375 1034.74 74.6925 1034.72 74.9591C1034.7 75.2257 1034.77 75.4919 1034.9 75.724C1035.03 75.9562 1035.23 76.1438 1035.47 76.2632C1035.71 76.3827 1035.98 76.4285 1036.24 76.3949C1036.51 76.3614 1036.75 76.2499 1036.96 76.0747C1037.23 75.8397 1037.39 75.5069 1037.42 75.1494C1037.44 74.7919 1037.32 74.439 1037.09 74.1684Z" fill="#F1F0EF"/>
<path d="M1099.47 108.105C1099.3 107.905 1099.07 107.762 1098.81 107.694C1098.55 107.626 1098.28 107.635 1098.03 107.721C1097.77 107.807 1097.55 107.966 1097.39 108.178C1097.23 108.39 1097.13 108.645 1097.12 108.911C1097.1 109.177 1097.16 109.443 1097.29 109.674C1097.43 109.905 1097.63 110.092 1097.86 110.21C1098.1 110.329 1098.37 110.374 1098.64 110.341C1098.9 110.307 1099.15 110.195 1099.35 110.021C1099.48 109.904 1099.59 109.761 1099.67 109.601C1099.75 109.441 1099.8 109.267 1099.81 109.089C1099.82 108.911 1099.8 108.733 1099.74 108.564C1099.68 108.395 1099.59 108.239 1099.47 108.105Z" fill="#F1F0EF"/>
<path d="M1107.26 181.281C1106.91 180.883 1106.45 180.597 1105.94 180.459C1105.43 180.322 1104.89 180.339 1104.39 180.508C1103.89 180.678 1103.45 180.992 1103.13 181.411C1102.81 181.83 1102.61 182.335 1102.58 182.863C1102.54 183.391 1102.66 183.918 1102.93 184.378C1103.19 184.837 1103.58 185.208 1104.06 185.444C1104.53 185.68 1105.06 185.77 1105.59 185.703C1106.11 185.636 1106.61 185.416 1107.01 185.069C1107.54 184.6 1107.87 183.938 1107.91 183.228C1107.96 182.518 1107.73 181.818 1107.26 181.281Z" fill="#F06483"/>
<path d="M1059.55 142.936C1059.73 143.128 1059.97 143.262 1060.23 143.319C1060.49 143.377 1060.76 143.356 1061.01 143.259C1061.26 143.163 1061.47 142.995 1061.63 142.776C1061.78 142.558 1061.86 142.299 1061.87 142.033C1061.88 141.766 1061.8 141.503 1061.66 141.278C1061.52 141.052 1061.31 140.874 1061.07 140.766C1060.83 140.657 1060.56 140.623 1060.29 140.668C1060.03 140.713 1059.79 140.834 1059.59 141.017C1059.33 141.266 1059.18 141.608 1059.18 141.967C1059.17 142.326 1059.3 142.675 1059.55 142.936Z" fill="#F1F0EF"/>
<path d="M1187.72 199.804C1187.91 199.998 1188.14 200.134 1188.41 200.193C1188.67 200.253 1188.94 200.234 1189.19 200.139C1189.44 200.044 1189.65 199.877 1189.81 199.659C1189.96 199.441 1190.05 199.182 1190.06 198.915C1190.06 198.648 1189.99 198.385 1189.85 198.158C1189.71 197.932 1189.5 197.753 1189.26 197.643C1189.01 197.534 1188.74 197.499 1188.48 197.544C1188.22 197.588 1187.97 197.71 1187.78 197.894C1187.52 198.141 1187.37 198.48 1187.36 198.837C1187.35 199.195 1187.48 199.542 1187.72 199.804Z" fill="#F1F0EF"/>
<path d="M1302.61 264.337C1302.8 264.529 1303.04 264.663 1303.3 264.72C1303.56 264.777 1303.83 264.756 1304.08 264.659C1304.33 264.561 1304.54 264.392 1304.69 264.173C1304.85 263.954 1304.93 263.694 1304.94 263.427C1304.94 263.16 1304.87 262.897 1304.72 262.672C1304.58 262.447 1304.37 262.269 1304.13 262.162C1303.88 262.055 1303.61 262.023 1303.35 262.07C1303.08 262.117 1302.84 262.241 1302.65 262.426C1302.52 262.549 1302.42 262.696 1302.35 262.858C1302.28 263.021 1302.24 263.196 1302.24 263.373C1302.23 263.551 1302.26 263.727 1302.33 263.892C1302.39 264.058 1302.49 264.209 1302.61 264.337Z" fill="#F1F0EF"/>
<path d="M1100.06 257.426C1100.24 257.62 1100.48 257.756 1100.74 257.816C1101 257.875 1101.27 257.856 1101.52 257.761C1101.77 257.666 1101.99 257.499 1102.14 257.281C1102.3 257.063 1102.38 256.805 1102.39 256.537C1102.4 256.27 1102.33 256.007 1102.18 255.781C1102.04 255.554 1101.84 255.375 1101.59 255.266C1101.35 255.156 1101.08 255.122 1100.81 255.166C1100.55 255.211 1100.31 255.332 1100.11 255.516C1099.85 255.762 1099.7 256.101 1099.69 256.46C1099.68 256.818 1099.81 257.166 1100.06 257.426Z" fill="#F1F0EF"/>
<path d="M1036.32 226.118C1036.5 226.31 1036.74 226.443 1037 226.501C1037.26 226.558 1037.53 226.537 1037.78 226.441C1038.03 226.344 1038.24 226.176 1038.39 225.958C1038.55 225.74 1038.63 225.481 1038.64 225.214C1038.64 224.948 1038.57 224.685 1038.43 224.459C1038.29 224.234 1038.08 224.056 1037.84 223.947C1037.59 223.838 1037.32 223.804 1037.06 223.849C1036.8 223.894 1036.55 224.015 1036.36 224.199C1036.23 224.321 1036.13 224.468 1036.05 224.631C1035.98 224.794 1035.94 224.97 1035.94 225.148C1035.93 225.327 1035.97 225.504 1036.03 225.671C1036.09 225.837 1036.19 225.989 1036.32 226.118Z" fill="#F1F0EF"/>
<path d="M1025.49 153.329C1025.86 153.713 1026.33 153.979 1026.84 154.095C1027.36 154.211 1027.9 154.172 1028.39 153.982C1028.89 153.792 1029.31 153.46 1029.62 153.027C1029.92 152.595 1030.09 152.082 1030.1 151.553C1030.12 151.024 1029.98 150.503 1029.69 150.055C1029.41 149.607 1029 149.253 1028.52 149.037C1028.04 148.821 1027.5 148.753 1026.98 148.841C1026.46 148.93 1025.97 149.171 1025.59 149.534C1025.08 150.025 1024.78 150.7 1024.76 151.411C1024.74 152.122 1025 152.812 1025.49 153.329Z" fill="#F06483"/>
</g>
<defs>
<clipPath id="clip0_2054_3956">
<rect width="1336" height="262" fill="white"/>
</clipPath>
</defs>
</svg>
