<svg width="48" height="48" viewBox="0 0 48 48" fill="none" xmlns="http://www.w3.org/2000/svg">
<path d="M24.043 3.00562C24.7987 4.14664 25.5426 5.26396 26.2806 6.38721C28.2011 9.31832 30.1275 12.2465 32.0361 15.1835C33.6602 17.679 35.2932 20.1685 36.864 22.6965C38.1058 24.697 38.9682 26.8487 39.0868 29.2463C39.2468 32.5242 38.3488 35.5057 36.5172 38.1938C34.2678 41.5013 31.1559 43.6766 27.2764 44.5924C23.0027 45.6001 19.0343 44.6872 15.469 42.1444C12.606 40.1024 10.5699 37.4173 9.52079 34.0416C8.45089 30.5918 8.75023 27.231 10.4395 24.0539C11.4087 22.2312 12.5379 20.4915 13.6641 18.7577C15.4541 16.0074 17.3154 13.3045 19.1203 10.566C20.7444 8.10023 22.33 5.61368 23.9333 3.13602C23.9541 3.10342 23.9837 3.07674 24.043 3.00562ZM20.6021 27.9719C19.9323 30.337 20.5962 31.801 21.8498 32.7435C23.0976 33.683 24.4994 33.8371 25.8479 33.0162C27.798 31.8336 28.121 30.0584 27.3979 27.9778C28.8738 27.9778 30.3112 27.9778 31.8642 27.9778C29.2562 23.9116 26.6925 19.9136 24.0934 15.8592C21.4527 19.9492 18.6935 23.8168 16.1921 27.9719C17.7125 27.9719 19.1321 27.9719 20.6021 27.9719ZM11.0678 30.0584C10.9108 33.9912 13.3529 38.5583 17.5376 41.0745C22.0277 43.7744 27.7269 43.4929 32.2199 39.8357C35.3021 37.3254 36.9648 34.1187 37.0063 30.0732C36.1112 30.0732 35.2843 30.0732 34.4219 30.0732C34.5019 32.8917 33.4202 35.2449 31.4789 37.2068C29.5229 39.1836 27.1252 40.2506 24.3423 40.3128C22.0543 40.3662 19.9323 39.729 18.0711 38.3805C15.2556 36.3444 13.75 33.5615 13.5159 30.0554C12.6949 30.0584 11.8977 30.0584 11.0678 30.0584ZM24.0608 6.6658C23.9304 6.88512 23.8415 7.04515 23.7437 7.1963C20.5547 12.0509 17.3509 16.8965 14.1827 21.7659C13.344 23.0551 12.5853 24.4006 11.874 25.764C11.5302 26.4219 11.3879 27.1836 11.1301 27.969C12.0518 27.969 12.8402 27.9778 13.6285 27.9601C13.7263 27.9571 13.8537 27.8386 13.916 27.7408C14.814 26.2974 15.6705 24.8304 16.5952 23.4048C18.7676 20.0558 20.9696 16.7246 23.1687 13.3934C24.0163 12.1072 24.8936 10.8417 25.7471 9.55838C25.7975 9.48132 25.7797 9.30943 25.7264 9.21755C25.5367 8.88562 25.3233 8.5685 25.1129 8.24842C24.778 7.73866 24.4372 7.22891 24.0608 6.6658ZM15.792 30.091C15.7742 31.7536 16.2692 33.2266 17.2205 34.5188C19.2951 37.3402 22.0543 38.6353 25.5693 38.0693C27.5431 37.7492 29.102 36.6704 30.3794 35.1767C31.5323 33.8253 32.1991 32.2634 32.3029 30.4703C32.3236 30.1325 32.2199 30.0199 31.8968 30.0258C31.396 30.0376 30.898 30.0317 30.3972 30.0376C30.2342 30.0406 30.0682 30.0525 29.9082 30.0613C29.8637 32.9776 27.3772 35.4553 24.2475 35.6716C21.9506 35.8287 18.4682 34.1868 18.1778 30.091C17.3983 30.091 16.6159 30.091 15.792 30.091ZM27.0008 11.3159C26.488 12.1131 26.0464 12.8451 25.5515 13.5416C25.3589 13.8113 25.3826 13.9891 25.5426 14.2351C27.2112 16.8106 28.8857 19.3831 30.5306 21.9734C31.6182 23.6834 32.7118 25.3935 33.6958 27.1658C34.0514 27.806 34.3745 28.1171 35.1154 28.0223C35.6785 27.9512 36.2594 28.0075 36.8966 28.0075C36.7692 27.5451 36.6684 27.1362 36.541 26.739C36.1171 25.3935 35.3851 24.2021 34.6294 23.0285C32.4273 19.6083 30.2045 16.2001 27.9877 12.7888C27.6824 12.3146 27.3623 11.8523 27.0008 11.3159Z" fill="#FFEB61"/>
</svg>
