<svg width="48" height="48" viewBox="0 0 48 48" fill="none" xmlns="http://www.w3.org/2000/svg">
<path d="M4.22465 24.3863C4.52611 16.1884 8.12748 9.9095 15.233 5.72465C17.6058 4.32754 20.2023 3.48149 22.9511 3.25458C26.4585 2.96608 29.8362 3.58521 33.068 4.98881C33.1305 5.01593 33.195 5.04096 33.2596 5.06603C33.4499 5.13983 33.6408 5.2139 33.7812 5.34215C33.8975 5.44732 33.9645 5.60811 34.031 5.76798C34.0609 5.8397 34.0906 5.91123 34.1248 5.97748C34.0606 6.00903 33.9972 6.04842 33.9337 6.0878C33.8016 6.16982 33.6695 6.25179 33.5316 6.26274C31.2171 6.45075 28.9188 6.72628 26.8215 7.82841C23.5994 9.52051 21.3757 12.1332 19.9851 15.459C18.2865 19.5272 18.1958 23.6245 20.3125 27.5533C22.52 31.6474 25.9982 34.0591 30.6887 34.4999C35.4895 34.9473 39.4053 33.1644 42.5334 29.5566C42.7084 29.3556 42.8997 29.1611 43.1104 28.999C43.2173 28.9147 43.4345 28.8369 43.5156 28.8888C43.6452 28.9731 43.7781 29.1708 43.7749 29.3199C43.7684 29.6538 43.7133 29.9942 43.6161 30.3151C42.4977 33.9651 40.4912 37.0608 37.6775 39.6216C34.5462 42.4709 30.8443 44.1403 26.6562 44.659C21.3012 45.3235 16.5102 43.8453 12.2605 40.5779C8.6202 37.7804 6.17607 34.1434 4.9151 29.7284C4.4159 27.9877 4.22141 26.208 4.22465 24.3863ZM28.4164 5.26758C28.2586 5.24647 28.1065 5.22942 27.9586 5.21285C27.6294 5.17595 27.3212 5.14142 27.0193 5.06985C25.9334 4.81376 25.0679 5.03419 24.2477 5.87699C23.5703 6.57068 22.721 7.1412 21.862 7.59826C21.2072 7.94834 20.7209 8.34057 20.4681 9.03102C20.3676 9.30979 20.2509 9.58209 20.131 9.85114C19.2687 11.7831 18.0078 13.339 16.011 14.1981C15.8067 14.2856 15.7062 14.3926 15.7225 14.6389C15.8521 16.8756 15.207 18.9016 14.0044 20.7655C13.8618 20.9859 13.878 21.1123 14.066 21.2971C15.0093 22.2371 15.7354 23.3231 16.173 24.5808C16.8116 26.4187 16.8019 28.1497 15.314 29.6408C15.1115 29.8433 14.95 30.0882 14.7754 30.3529C14.69 30.4823 14.6016 30.6164 14.5036 30.7527C14.559 30.7464 14.6049 30.7415 14.6443 30.7373C14.7273 30.7284 14.7815 30.7226 14.8343 30.7138C17.3756 30.2892 19.4729 31.0866 21.1715 32.9991C22.118 34.0656 22.8766 35.2487 23.379 36.581C23.4989 36.8955 23.6578 36.9797 23.9884 37.0089C25.2364 37.1223 26.4844 37.265 27.7259 37.44C28.2525 37.5134 28.7774 37.6107 29.302 37.7079C30.237 37.8811 31.1711 38.0542 32.1118 38.0916C35.3112 38.218 37.9109 36.8955 39.9369 34.4319C40.0627 34.2791 40.1761 34.117 40.2899 33.9542C40.3403 33.8821 40.3908 33.8098 40.4426 33.7382C40.1703 33.7998 39.9661 33.9165 39.7618 34.0364C37.9952 35.0899 36.0859 35.7415 34.0535 36.0429C27.9366 36.9473 22.0305 34.0558 19.0288 28.6619C17.0061 25.0281 16.6204 21.1674 17.6836 17.19C18.8765 12.7264 21.4114 9.19311 25.3888 6.77491C26.0135 6.39701 26.6824 6.08535 27.3816 5.75958C27.7199 5.60192 28.0654 5.44095 28.4164 5.26758ZM21.8587 37.2034C21.3725 35.8906 20.6561 34.8371 19.7712 33.897C19.0224 33.1028 18.1374 32.5388 17.0256 32.354C16.1896 32.2147 15.3822 32.3523 14.5756 32.4897C14.3314 32.5314 14.0872 32.573 13.8423 32.6069C13.7386 32.6198 13.6122 32.7592 13.5733 32.8694C12.6657 35.333 12.9736 37.6831 14.267 39.936C14.2962 39.9847 14.3286 40.0365 14.374 40.0657C15.0903 40.5033 15.8067 40.9409 16.5685 41.4045C17.6026 39.0219 19.3724 37.6799 21.8587 37.2034ZM12.9055 22.3992C12.8523 22.4351 12.8137 22.4597 12.7848 22.4781C12.7379 22.508 12.7161 22.5218 12.6981 22.5418C10.9476 24.49 8.78228 25.7834 6.29276 26.5516C6.05937 26.623 6.02047 26.7656 6.06261 26.9666C6.15287 27.381 6.24413 27.7949 6.33541 28.209C6.47688 28.8506 6.61839 29.4925 6.75631 30.1368C6.8179 30.4253 7.00915 30.5323 7.27495 30.6068C8.86332 31.0574 10.4744 31.2389 12.1243 31.1255C12.4096 31.106 12.5619 31.0315 12.6819 30.7462C13.0773 29.8062 13.5733 28.918 14.3253 28.2113C14.6787 27.8774 14.8407 27.4884 14.8861 27.0249C14.9866 26.0168 14.7338 25.0832 14.2119 24.2404C13.9389 23.7915 13.6251 23.3708 13.312 22.951C13.1752 22.7677 13.0386 22.5845 12.9055 22.3992ZM35.3306 39.3461C35.3178 39.3493 35.3048 39.3525 35.2918 39.3557C35.2261 39.372 35.1589 39.3887 35.094 39.4077C33.6872 39.7934 32.2641 39.9328 30.8216 39.6832C30.1964 39.574 29.5717 39.4584 28.9468 39.3429C28.088 39.184 27.229 39.0251 26.3677 38.8825C25.845 38.795 25.3161 38.7448 24.8175 38.6974C24.5957 38.6764 24.3798 38.6559 24.1732 38.6329C24.1875 39.1226 24.2014 39.6039 24.2153 40.0811C24.2454 41.1203 24.275 42.14 24.3061 43.1841C28.3548 43.1776 32.034 41.8259 35.3306 39.3461ZM6.98646 17.5531C9.09023 18.0426 10.899 18.8302 12.5652 19.9551C13.5733 18.3667 14.1697 16.7297 14.0304 14.9696C13.7794 14.9696 13.5345 14.9778 13.2946 14.9858C12.7659 15.0035 12.2615 15.0204 11.771 14.9469C11.1182 14.8479 10.4757 14.6684 9.83471 14.4893C9.59405 14.4221 9.3536 14.3549 9.11292 14.2921C9.09636 14.2877 9.07994 14.2832 9.06368 14.2788C8.88569 14.23 8.72631 14.1863 8.61048 14.412C8.2264 15.1612 7.83885 15.9087 7.43642 16.6848C7.28863 16.9699 7.13883 17.2588 6.98646 17.5531ZM13.6154 8.7717C13.9482 9.43724 14.2702 10.0837 14.5886 10.7229C14.8997 11.3476 15.2074 11.9653 15.5182 12.587C16.5264 12.2013 17.353 11.4622 17.9332 10.4865C18.2825 9.89887 18.5768 9.27859 18.8711 8.6582C18.9811 8.42643 19.091 8.19465 19.2039 7.96455C19.5961 7.16389 20.1375 6.55123 21.0192 6.24004C21.6707 6.00989 22.2185 5.59174 22.7696 4.99205C19.2752 5.44587 16.2606 6.73924 13.6154 8.7717ZM5.91026 24.9017C8.14369 24.2372 9.98814 23.0475 11.5473 21.2938C10.0076 20.1852 8.35115 19.5337 6.55209 19.1155C6.03668 21.0345 5.84867 22.9276 5.91026 24.9017ZM18.0823 42.0041C19.5345 42.5358 20.99 42.9085 22.4941 43.0674C22.8117 42.0106 22.6788 39.5373 22.2769 38.8501C20.3741 39.197 18.9316 40.1629 18.0823 42.0041ZM11.8131 32.9278C10.4257 32.7787 9.07078 32.6328 7.71905 32.4869C8.72069 34.5194 10.04 36.3606 11.7353 38.0527C11.2783 36.2601 11.3464 34.5648 11.8131 32.9278ZM9.64777 12.7134C11.0611 13.2775 12.3739 13.5076 13.7872 13.1867C13.5539 11.9387 12.9931 10.8949 12.1989 9.81225C11.5877 10.5055 11.0055 11.1682 10.4104 11.8456C10.1595 12.1312 9.90634 12.4193 9.64777 12.7134Z" fill="#FFEB61"/>
<path d="M4.22465 24.3863C4.52611 16.1884 8.12748 9.9095 15.233 5.72465C17.6058 4.32754 20.2023 3.48149 22.9511 3.25458C26.4585 2.96608 29.8362 3.58521 33.068 4.98881C33.1305 5.01593 33.195 5.04096 33.2596 5.06603C33.4499 5.13983 33.6408 5.2139 33.7812 5.34215C33.8975 5.44732 33.9645 5.60811 34.031 5.76798C34.0609 5.8397 34.0906 5.91123 34.1248 5.97748C34.0606 6.00903 33.9972 6.04842 33.9337 6.0878C33.8016 6.16982 33.6695 6.25179 33.5316 6.26274C31.2171 6.45075 28.9188 6.72628 26.8215 7.82841C23.5994 9.52051 21.3757 12.1332 19.9851 15.459C18.2865 19.5272 18.1958 23.6245 20.3125 27.5533C22.52 31.6474 25.9982 34.0591 30.6887 34.4999C35.4895 34.9473 39.4053 33.1644 42.5334 29.5566C42.7084 29.3556 42.8997 29.1611 43.1104 28.999C43.2173 28.9147 43.4345 28.8369 43.5156 28.8888C43.6452 28.9731 43.7781 29.1708 43.7749 29.3199C43.7684 29.6538 43.7133 29.9942 43.6161 30.3151C42.4977 33.9651 40.4912 37.0608 37.6775 39.6216C34.5462 42.4709 30.8443 44.1403 26.6562 44.659C21.3012 45.3235 16.5102 43.8453 12.2605 40.5779C8.6202 37.7804 6.17607 34.1434 4.9151 29.7284C4.4159 27.9877 4.22141 26.208 4.22465 24.3863ZM28.4164 5.26758C28.2586 5.24647 28.1065 5.22942 27.9586 5.21285C27.6294 5.17595 27.3212 5.14142 27.0193 5.06985C25.9334 4.81376 25.0679 5.03419 24.2477 5.87699C23.5703 6.57068 22.721 7.1412 21.862 7.59826C21.2072 7.94834 20.7209 8.34057 20.4681 9.03102C20.3676 9.30979 20.2509 9.58209 20.131 9.85114C19.2687 11.7831 18.0078 13.339 16.011 14.1981C15.8067 14.2856 15.7062 14.3926 15.7225 14.6389C15.8521 16.8756 15.207 18.9016 14.0044 20.7655C13.8618 20.9859 13.878 21.1123 14.066 21.2971C15.0093 22.2371 15.7354 23.3231 16.173 24.5808C16.8116 26.4187 16.8019 28.1497 15.314 29.6408C15.1115 29.8433 14.95 30.0882 14.7754 30.3529C14.69 30.4823 14.6016 30.6164 14.5036 30.7527C14.559 30.7464 14.6049 30.7415 14.6443 30.7373C14.7273 30.7284 14.7815 30.7226 14.8343 30.7138C17.3756 30.2892 19.4729 31.0866 21.1715 32.9991C22.118 34.0656 22.8766 35.2487 23.379 36.581C23.4989 36.8955 23.6578 36.9797 23.9884 37.0089C25.2364 37.1223 26.4844 37.265 27.7259 37.44C28.2525 37.5134 28.7774 37.6107 29.302 37.7079C30.237 37.8811 31.1711 38.0542 32.1118 38.0916C35.3112 38.218 37.9109 36.8955 39.9369 34.4319C40.0627 34.2791 40.1761 34.117 40.2899 33.9542C40.3403 33.8821 40.3908 33.8098 40.4426 33.7382C40.1703 33.7998 39.9661 33.9165 39.7618 34.0364C37.9952 35.0899 36.0859 35.7415 34.0535 36.0429C27.9366 36.9473 22.0305 34.0558 19.0288 28.6619C17.0061 25.0281 16.6204 21.1674 17.6836 17.19C18.8765 12.7264 21.4114 9.19311 25.3888 6.77491C26.0135 6.39701 26.6824 6.08535 27.3816 5.75958C27.7199 5.60192 28.0654 5.44095 28.4164 5.26758ZM21.8587 37.2034C21.3725 35.8906 20.6561 34.8371 19.7712 33.897C19.0224 33.1028 18.1374 32.5388 17.0256 32.354C16.1896 32.2147 15.3822 32.3523 14.5756 32.4897C14.3314 32.5314 14.0872 32.573 13.8423 32.6069C13.7386 32.6198 13.6122 32.7592 13.5733 32.8694C12.6657 35.333 12.9736 37.6831 14.267 39.936C14.2962 39.9847 14.3286 40.0365 14.374 40.0657C15.0903 40.5033 15.8067 40.9409 16.5685 41.4045C17.6026 39.0219 19.3724 37.6799 21.8587 37.2034ZM12.9055 22.3992C12.8523 22.4351 12.8137 22.4597 12.7848 22.4781C12.7379 22.508 12.7161 22.5218 12.6981 22.5418C10.9476 24.49 8.78228 25.7834 6.29276 26.5516C6.05937 26.623 6.02047 26.7656 6.06261 26.9666C6.15287 27.381 6.24413 27.7949 6.33541 28.209C6.47688 28.8506 6.61839 29.4925 6.75631 30.1368C6.8179 30.4253 7.00915 30.5323 7.27495 30.6068C8.86332 31.0574 10.4744 31.2389 12.1243 31.1255C12.4096 31.106 12.5619 31.0315 12.6819 30.7462C13.0773 29.8062 13.5733 28.918 14.3253 28.2113C14.6787 27.8774 14.8407 27.4884 14.8861 27.0249C14.9866 26.0168 14.7338 25.0832 14.2119 24.2404C13.9389 23.7915 13.6251 23.3708 13.312 22.951C13.1752 22.7677 13.0386 22.5845 12.9055 22.3992ZM35.3306 39.3461C35.3178 39.3493 35.3048 39.3525 35.2918 39.3557C35.2261 39.372 35.1589 39.3887 35.094 39.4077C33.6872 39.7934 32.2641 39.9328 30.8216 39.6832C30.1964 39.574 29.5717 39.4584 28.9468 39.3429C28.088 39.184 27.229 39.0251 26.3677 38.8825C25.845 38.795 25.3161 38.7448 24.8175 38.6974C24.5957 38.6764 24.3798 38.6559 24.1732 38.6329C24.1875 39.1226 24.2014 39.6039 24.2153 40.0811C24.2454 41.1203 24.275 42.14 24.3061 43.1841C28.3548 43.1776 32.034 41.8259 35.3306 39.3461ZM6.98646 17.5531C9.09023 18.0426 10.899 18.8302 12.5652 19.9551C13.5733 18.3667 14.1697 16.7297 14.0304 14.9696C13.7794 14.9696 13.5345 14.9778 13.2946 14.9858C12.7659 15.0035 12.2615 15.0204 11.771 14.9469C11.1182 14.8479 10.4757 14.6684 9.83471 14.4893C9.59405 14.4221 9.3536 14.3549 9.11292 14.2921C9.09636 14.2877 9.07994 14.2832 9.06368 14.2788C8.88569 14.23 8.72631 14.1863 8.61048 14.412C8.2264 15.1612 7.83885 15.9087 7.43642 16.6848C7.28863 16.9699 7.13883 17.2588 6.98646 17.5531ZM13.6154 8.7717C13.9482 9.43724 14.2702 10.0837 14.5886 10.7229C14.8997 11.3476 15.2074 11.9653 15.5182 12.587C16.5264 12.2013 17.353 11.4622 17.9332 10.4865C18.2825 9.89887 18.5768 9.27859 18.8711 8.6582C18.9811 8.42643 19.091 8.19465 19.2039 7.96455C19.5961 7.16389 20.1375 6.55123 21.0192 6.24004C21.6707 6.00989 22.2185 5.59174 22.7696 4.99205C19.2752 5.44587 16.2606 6.73924 13.6154 8.7717ZM5.91026 24.9017C8.14369 24.2372 9.98814 23.0475 11.5473 21.2938C10.0076 20.1852 8.35115 19.5337 6.55209 19.1155C6.03668 21.0345 5.84867 22.9276 5.91026 24.9017ZM18.0823 42.0041C19.5345 42.5358 20.99 42.9085 22.4941 43.0674C22.8117 42.0106 22.6788 39.5373 22.2769 38.8501C20.3741 39.197 18.9316 40.1629 18.0823 42.0041ZM11.8131 32.9278C10.4257 32.7787 9.07078 32.6328 7.71905 32.4869C8.72069 34.5194 10.04 36.3606 11.7353 38.0527C11.2783 36.2601 11.3464 34.5648 11.8131 32.9278ZM9.64777 12.7134C11.0611 13.2775 12.3739 13.5076 13.7872 13.1867C13.5539 11.9387 12.9931 10.8949 12.1989 9.81225C11.5877 10.5055 11.0055 11.1682 10.4104 11.8456C10.1595 12.1312 9.90634 12.4193 9.64777 12.7134Z" stroke="#FFEB61"/>
</svg>
