<svg width="48" height="48" viewBox="0 0 48 48" fill="none" xmlns="http://www.w3.org/2000/svg">
<g clip-path="url(#clip0_784_3360)">
<path d="M11.2611 17.5721C13.7246 17.5721 16.187 17.567 18.6505 17.5793C18.9177 17.5803 19.0129 17.4851 19.0906 17.2516C20.0267 14.4464 20.9763 11.6452 21.9176 8.84107C22.426 7.32632 22.9251 5.8085 23.4305 4.29273C23.4667 4.18417 23.5174 4.08073 23.5651 3.97626C23.6583 3.77245 23.8343 3.69871 24.0445 3.70691C24.2547 3.71612 24.3914 3.83903 24.4535 4.03259C24.6658 4.68704 24.8678 5.34558 25.0852 5.999C26.2201 9.39822 27.3582 12.7964 28.4983 16.1946C28.6277 16.5797 28.7851 16.9556 28.9073 17.3417C28.9694 17.5373 29.0719 17.5875 29.2728 17.5875C31.7809 17.5793 34.2878 17.5803 36.7959 17.5793C39.2324 17.5783 41.669 17.5762 44.1045 17.5752C44.5032 17.5752 44.643 17.652 44.7445 17.9265C44.8284 18.1528 44.7445 18.3669 44.4649 18.5809C43.069 19.6502 41.6669 20.7132 40.2731 21.7856C38.8017 22.9173 37.3385 24.0592 35.868 25.193C34.8336 25.9898 33.796 26.7835 32.7532 27.5701C32.5906 27.693 32.5606 27.8015 32.6258 27.993C33.3735 30.1919 34.1108 32.3939 34.8522 34.5948C35.664 37.0047 36.4738 39.4146 37.2908 41.8234C37.4586 42.3171 37.6512 42.8015 37.8303 43.2911C37.8635 43.3822 37.8935 43.4754 37.9173 43.5686C37.9846 43.8308 37.8894 44.0397 37.6792 44.1954C37.4814 44.3429 37.2649 44.3122 37.0786 44.1831C36.5825 43.838 36.0907 43.4867 35.6081 43.1231C34.0403 41.9412 32.4767 40.7552 30.9141 39.5662C29.5359 38.5174 28.1638 37.4625 26.7866 36.4127C25.9105 35.745 25.0283 35.0864 24.1543 34.4156C24.0217 34.3142 23.941 34.3204 23.8105 34.4197C21.4029 36.2581 18.9933 38.0944 16.5805 39.9257C14.8678 41.2253 13.1488 42.5168 11.4299 43.8093C11.2455 43.9476 11.0467 44.0674 10.85 44.1882C10.6584 44.307 10.4327 44.3357 10.2815 44.1719C10.1562 44.0356 10.0816 43.8329 10.0454 43.6475C10.0205 43.5215 10.0909 43.372 10.1375 43.2399C10.8427 41.1854 11.5552 39.134 12.2583 37.0785C12.9158 35.1571 13.5713 33.2348 14.2185 31.3093C14.5923 30.196 14.9444 29.0756 15.3182 27.9623C15.3845 27.7636 15.3275 27.652 15.1764 27.5373C13.8561 26.5295 12.5368 25.5207 11.2207 24.5078C9.33398 23.0565 7.44934 21.6012 5.56367 20.1489C4.93097 19.6614 4.29309 19.179 3.66039 18.6915C3.5558 18.6106 3.45225 18.5225 3.36837 18.4212C3.22236 18.246 3.17784 18.0484 3.27828 17.8292C3.37562 17.6162 3.55787 17.5762 3.76497 17.5762C4.70212 17.5762 5.63926 17.5762 6.5764 17.5762C8.13796 17.5762 9.69952 17.5762 11.2621 17.5762V17.5721H11.2611ZM16.1539 28.3208C14.554 33.0903 12.9717 37.8046 11.3895 42.5199C11.6245 42.4338 11.8037 42.3232 11.9704 42.1973C14.0621 40.617 16.1518 39.0356 18.2425 37.4533C19.7306 36.3267 21.2155 35.1971 22.7056 34.0746C23.1985 33.7028 23.2026 33.713 22.7035 33.3464C21.8803 32.7411 21.0571 32.1358 20.2369 31.5254C20.0982 31.422 19.9905 31.3595 19.8755 31.5561C19.774 31.7313 19.6508 31.8951 19.5317 32.06C18.2601 33.8288 16.9875 35.5965 15.7159 37.3652C15.5875 37.5434 15.2696 37.5987 15.0397 37.482C14.8284 37.3755 14.7342 37.1164 14.8377 36.891C14.8854 36.7886 14.9589 36.6964 15.0262 36.6032C16.2978 34.8663 17.5705 33.1313 18.8421 31.3943C19.0026 31.1751 19.1527 30.9498 19.3195 30.7112C18.2705 29.9185 17.2381 29.1381 16.1549 28.3208H16.1539ZM27.9122 31.3513C26.8694 32.1409 25.8473 32.9142 24.7911 33.7141C28.7147 36.6872 32.5875 39.6235 36.4614 42.5598C36.4873 42.5424 36.5142 42.525 36.5401 42.5076C34.9609 37.7964 33.3807 33.0842 31.7871 28.33C30.7143 29.1432 29.6788 29.9287 28.6163 30.7348C29.1506 31.467 29.6643 32.1758 30.1841 32.8804C31.1502 34.1923 32.1215 35.5023 33.0846 36.8163C33.1405 36.8921 33.1633 37.0109 33.1581 37.1071C33.1446 37.3355 33.0069 37.4789 32.7812 37.527C32.5233 37.5823 32.3338 37.483 32.1868 37.271C31.8088 36.7251 31.4309 36.1792 31.0415 35.6415C30.1126 34.3572 29.1765 33.0781 28.2425 31.7968C28.14 31.6555 28.0344 31.5162 27.9122 31.3523V31.3513ZM32.2241 26.7835C35.7924 24.0264 39.3184 21.3032 42.8837 18.5482H29.3443C29.7854 19.7997 30.2172 21.0246 30.6542 22.2649C30.8054 22.2106 30.9297 22.1635 31.055 22.1205C32.3752 21.6606 33.6966 21.2028 35.0158 20.7389C35.7552 20.4787 36.4904 20.2073 37.2297 19.9472C37.53 19.8417 37.8459 19.9605 37.938 20.196C38.0395 20.4541 37.8987 20.6876 37.5632 20.8157C37.5135 20.8351 37.4627 20.8525 37.413 20.871C35.3731 21.593 33.3321 22.315 31.2931 23.0381C31.1803 23.0781 31.0705 23.1282 30.9524 23.1764C31.3791 24.3869 31.7954 25.5658 32.2251 26.7845L32.2241 26.7835ZM18.6163 18.5307H5.05937C8.62465 21.2806 12.1558 24.0049 15.6952 26.7343C15.7438 26.6688 15.7728 26.6442 15.7832 26.6135C16.1777 25.5166 16.5702 24.4197 16.9668 23.3239C17.0206 23.1764 16.943 23.1446 16.828 23.1047C15.4704 22.6233 14.1139 22.1399 12.7595 21.6514C11.9642 21.3646 11.172 21.0686 10.3788 20.7747C10.1872 20.704 10.0568 20.5801 10.0785 20.3589C10.0982 20.154 10.1748 19.9564 10.3892 19.9103C10.5331 19.8785 10.7071 19.9154 10.852 19.9666C12.8309 20.6743 14.8077 21.3892 16.7845 22.103C16.9492 22.1624 17.1128 22.2229 17.2888 22.2874C17.7341 21.0287 18.1711 19.7925 18.6163 18.5318V18.5307ZM19.9211 17.6008C20.0909 17.6008 20.1769 17.6008 20.2628 17.6008C21.2445 17.6008 22.2251 17.5926 23.2068 17.6028C23.447 17.6059 23.5257 17.5434 23.5237 17.2935C23.5019 15.2913 23.4957 13.288 23.4843 11.2847C23.4822 10.9089 23.6541 10.6979 23.9731 10.6887C24.2806 10.6795 24.4691 10.8935 24.4691 11.2714C24.4691 13.2655 24.4639 15.2595 24.4608 17.2536C24.4608 17.357 24.4608 17.4605 24.4608 17.5752H28.0271C26.6799 13.5942 25.3441 9.643 24.0072 5.69277L23.9327 5.70301C22.6031 9.64607 21.2735 13.5891 19.9211 17.6008ZM17.9112 23.4836C17.8573 23.5522 17.8335 23.5697 17.8252 23.5932C17.3924 24.8161 16.9595 26.0389 16.537 27.2659C16.5163 27.3273 16.5691 27.4523 16.6282 27.4963C17.6399 28.2624 18.6619 29.0172 19.6726 29.7853C19.8538 29.9226 19.9439 29.8949 20.0712 29.7208C21.0664 28.3648 22.0719 27.016 23.0742 25.6651C23.1457 25.5699 23.213 25.4715 23.3114 25.3343C21.4744 24.7055 19.685 24.093 17.9112 23.4857V23.4836ZM24.6731 25.3445C24.6896 25.3978 24.6907 25.4183 24.701 25.4316C25.778 26.8808 26.857 28.3279 27.9308 29.7792C28.0426 29.9298 28.1296 29.9041 28.257 29.8069C29.2573 29.0408 30.2597 28.2767 31.2662 27.5178C31.3967 27.4195 31.4081 27.3263 31.3584 27.1799C30.9659 26.0277 30.5797 24.8734 30.1986 23.7182C30.1365 23.5307 30.0484 23.499 29.8641 23.5635C28.461 24.0531 27.0558 24.5344 25.6506 25.0168C25.3255 25.1284 24.9993 25.237 24.6751 25.3456L24.6731 25.3445ZM23.9876 26.042C23.9099 26.1393 23.854 26.2038 23.8022 26.2724C22.8019 27.6141 21.8026 28.9558 20.8034 30.2985C20.59 30.5852 20.5931 30.5832 20.8831 30.8034C21.8389 31.5275 22.7957 32.2505 23.7453 32.9818C23.9037 33.1037 24.0103 33.1231 24.1802 32.991C25.1774 32.2188 26.1829 31.4578 27.1904 30.6989C27.3468 30.5811 27.3271 30.4992 27.2184 30.3579C26.7048 29.6921 26.2025 29.0172 25.6982 28.3433C25.1318 27.5854 24.5685 26.8255 23.9855 26.042H23.9876ZM24.4691 24.4341C24.6068 24.3931 24.7083 24.3665 24.8077 24.3316C26.3724 23.7899 27.9349 23.2419 29.5027 22.7104C29.7316 22.6325 29.7616 22.5424 29.6881 22.3314C29.2677 21.1321 28.8555 19.9298 28.4496 18.7264C28.3958 18.5676 28.3088 18.5318 28.1555 18.5318C26.9864 18.5348 25.8184 18.5318 24.6493 18.5297C24.5975 18.5297 24.5447 18.5389 24.4691 18.5461V24.433V24.4341ZM18.1669 22.5803C19.9501 23.1989 21.7094 23.8093 23.4947 24.4289C23.505 24.3081 23.5164 24.2302 23.5164 24.1534C23.5174 22.3622 23.5154 20.5709 23.5226 18.7796C23.5226 18.5727 23.445 18.5307 23.2555 18.5318C22.105 18.5348 20.9535 18.5318 19.803 18.5195C19.6229 18.5174 19.5597 18.5891 19.5079 18.7417C19.1724 19.7188 18.8286 20.6928 18.4869 21.6678C18.3802 21.974 18.2726 22.2792 18.1669 22.5813V22.5803Z" fill="#FFEB61"/>
</g>
<defs>
<clipPath id="clip0_784_3360">
<rect width="48" height="48" fill="white"/>
</clipPath>
</defs>
</svg>
