<svg width="48" height="48" viewBox="0 0 48 48" fill="none" xmlns="http://www.w3.org/2000/svg">
<path d="M26.174 30.0698C25.4619 31.3692 24.7761 32.626 24.0378 33.9714C23.3093 32.6359 22.6268 31.3922 21.9377 30.1256C21.5899 30.4078 21.2716 30.6933 20.927 30.9427C17.731 33.2823 13.7112 33.2593 10.5381 30.8508C8.21161 29.0854 6.9253 26.7031 6.62669 23.8089C6.26574 20.3044 7.30922 17.1838 9.31088 14.3421C9.36666 14.2633 9.42573 14.1813 9.47823 14.0992C9.49792 14.0697 9.51433 14.0369 9.56027 13.9581C6.93186 11.379 5.47164 8.16974 4.66113 4.57004C4.77926 4.60614 4.87114 4.62255 4.9499 4.66192C7.99176 6.10574 11.0271 7.56596 13.8491 9.42651C14.0623 9.56761 14.2231 9.55777 14.4397 9.42651C17.6456 7.49377 21.1272 6.59139 24.8647 6.79812C27.9788 6.96875 30.9123 7.81535 33.6162 9.39698C33.9181 9.57418 34.1347 9.5709 34.4399 9.3773C37.2389 7.58565 40.1495 5.99089 43.1126 4.49457C43.1651 4.46832 43.2242 4.44864 43.339 4.39941C43.257 4.76365 43.1914 5.07866 43.1159 5.39368C42.5679 7.73004 41.7869 9.97451 40.3693 11.9434C39.9264 12.5603 39.4112 13.1279 38.8993 13.6923C38.7057 13.9056 38.6794 14.0369 38.8501 14.2764C40.0379 15.9335 40.8681 17.7547 41.298 19.7531C42.138 23.6645 41.2685 27.1395 38.5121 30.0534C35.526 33.2101 30.489 33.7811 26.722 30.5358C26.5546 30.3881 26.384 30.247 26.174 30.0698ZM37.5375 14.9655C35.8443 15.8482 34.2167 16.6817 32.6023 17.5414C30.6925 18.5587 29.078 19.9237 27.8967 21.7482C26.9156 23.2576 26.3249 24.9344 25.882 26.6703C25.7966 27.0017 25.8098 27.2806 26.0263 27.5333C26.5907 28.183 27.1059 28.8852 27.7458 29.4496C29.6556 31.1428 31.8771 31.635 34.3414 30.946C38.0396 29.9123 40.097 25.9549 40.1528 22.9787C40.202 20.3503 39.4801 17.9319 38.0592 15.7203C37.8788 15.4413 37.6852 15.1755 37.5375 14.9655ZM10.6398 14.9754C8.94993 17.3642 7.87691 19.9762 8.01144 22.9886C8.12957 25.5743 9.09103 27.7794 11.096 29.4398C14.735 32.4554 19.5685 31.5727 22.0624 27.4381C22.1576 27.2773 22.2101 27.028 22.1609 26.854C21.8786 25.8992 21.603 24.941 21.2453 24.0156C20.2314 21.4168 18.594 19.3134 16.1624 17.8893C15.411 17.4495 14.5972 17.1148 13.8261 16.7079C12.776 16.1534 11.7391 15.5726 10.6398 14.9754ZM15.4307 10.552C17.2256 11.9696 18.8499 13.4987 20.2544 15.251C21.6555 17 22.8532 18.8901 24.0148 20.8753C25.2257 18.8934 26.4103 17 27.8541 15.2805C29.2979 13.5578 30.9058 11.9991 32.6646 10.5684C27.2569 7.40517 20.5234 7.4544 15.4307 10.552ZM23.9919 27.7105C24.0116 27.7105 24.0345 27.7072 24.0542 27.7072C24.1297 27.425 24.2052 27.1428 24.2774 26.8573C24.868 24.5439 25.5538 22.2634 26.6498 20.1305C27.9099 17.6792 29.5801 15.589 32.0149 14.1977C32.7204 13.7941 33.4259 13.397 34.1248 12.9836C34.4333 12.7998 34.7188 12.5734 35.0633 12.3338C34.7385 12.0582 34.4595 11.8416 34.2036 11.5988C34.0067 11.4118 33.8656 11.4544 33.672 11.6054C32.1002 12.8425 30.6794 14.2371 29.3668 15.7399C27.3487 18.05 25.7441 20.6358 24.2839 23.32C24.2117 23.4512 24.1166 23.5726 23.9558 23.8122C21.4586 19.0082 18.4922 14.6932 14.1936 11.4151C13.8261 11.7366 13.4848 12.032 13.0615 12.3995C13.7605 12.8326 14.3971 13.2428 15.05 13.63C15.7588 14.05 16.5103 14.4011 17.1862 14.8638C18.6891 15.8909 19.7457 17.3314 20.6809 18.8605C22.0362 21.0853 22.8631 23.5234 23.539 26.0206C23.6867 26.585 23.8409 27.1494 23.9919 27.7105ZM37.6064 12.8359C39.0338 11.8548 40.8123 8.88508 41.1602 7.11969C40.8944 7.2411 40.6614 7.37892 40.412 7.45767C39.8968 7.61518 39.6638 7.99255 39.4276 8.45195C38.8402 9.58075 38.1807 10.6734 37.5408 11.776C37.4325 11.9598 37.275 12.1173 37.1404 12.2879C37.2684 12.4487 37.3701 12.5865 37.4784 12.7178C37.5112 12.7604 37.5637 12.7965 37.6064 12.8359ZM6.7481 7.04422C7.6308 9.32152 8.86789 11.2214 10.5119 12.8589C11.0828 12.4323 11.096 12.3962 10.7022 11.9105C9.77684 10.762 9.08118 9.48886 8.57913 8.10411C8.54959 8.01879 8.48397 7.92364 8.40849 7.88426C7.89331 7.6119 7.36829 7.35267 6.7481 7.04422ZM30.8894 16.6751C30.9058 16.6948 30.9222 16.7178 30.9386 16.7375C32.7959 15.7859 34.6564 14.8375 36.5662 13.8597C36.3332 13.6037 36.179 13.4331 36.0641 13.3084C34.3119 14.4503 32.6023 15.5627 30.8894 16.6751ZM17.1173 16.744C17.1337 16.7178 17.1534 16.6883 17.1698 16.662C16.7006 16.3404 16.2379 16.0123 15.7654 15.7006C14.6891 14.9951 13.5997 14.3125 12.5332 13.5939C12.1099 13.3084 12.1198 13.2789 11.7785 13.6759C11.7391 13.7219 11.703 13.7711 11.6505 13.8433C13.3404 15.0837 15.3683 15.6513 17.1173 16.744ZM12.95 10.5127C12.146 10.0369 11.3847 9.58731 10.6234 9.13447C10.5906 9.16401 10.5611 9.19682 10.5283 9.22635C11.0106 9.92529 11.493 10.621 11.9983 11.3527C12.3429 11.0508 12.6218 10.8014 12.95 10.5127ZM35.2733 10.5028C35.5949 10.7883 35.864 11.0246 36.1856 11.3133C36.6909 10.5881 37.1601 9.91545 37.6294 9.23948C37.5966 9.20995 37.5637 9.17714 37.5342 9.1476C36.7959 9.59059 36.0576 10.0336 35.2733 10.5028Z" fill="#FFEB61"/>
<path d="M25.0978 38.7328C26.2561 37.8632 27.2044 36.7869 28.0215 35.599C28.5236 34.8705 28.983 34.1125 29.4555 33.3644C29.7508 32.8984 29.9838 32.7868 30.3415 32.964C30.7155 33.1478 30.8599 33.5219 30.5941 33.9714C29.8919 35.1527 29.1897 36.3406 28.3923 37.4563C27.3094 38.969 25.9706 40.2324 24.3332 41.161C24.1035 41.2922 23.9493 41.2791 23.7327 41.161C22.0461 40.2356 20.7138 38.9165 19.6047 37.3775C18.8565 36.3439 18.2003 35.2446 17.5046 34.1716C17.4455 34.0797 17.3963 33.978 17.3537 33.8763C17.1929 33.4956 17.311 33.1117 17.6326 32.9575C17.9607 32.8 18.2068 32.8984 18.4464 33.2987C19.3914 34.8935 20.5235 36.3439 21.7934 37.6893C22.1478 38.0633 22.4792 38.4604 22.8205 38.8476C22.8697 38.8082 22.9156 38.7656 22.9649 38.7262C22.9189 38.6441 22.8763 38.5556 22.8238 38.4768C21.7901 36.9116 20.9041 35.2709 20.284 33.4956C20.2085 33.2758 20.1461 33.0494 20.1166 32.8197C20.0772 32.5079 20.1888 32.2487 20.5104 32.1535C20.832 32.0584 21.1109 32.1634 21.2553 32.4718C21.4948 32.9837 21.6753 33.5252 21.9378 34.0207C22.5908 35.2545 23.2766 36.4719 24.0018 37.7877C24.179 37.535 24.2774 37.4038 24.366 37.2627C25.2914 35.8189 26.0527 34.2963 26.6171 32.6753C26.7155 32.3898 26.8435 32.1076 27.2044 32.1043C27.4965 32.101 27.7754 32.2159 27.8509 32.5014C27.9165 32.7343 27.9165 33.0297 27.8279 33.2528C27.3915 34.3324 26.9518 35.4152 26.4366 36.4587C26.0527 37.243 25.5506 37.9747 25.0978 38.7328Z" fill="#FFEB61"/>
<path d="M35.096 32.9278C34.9516 33.174 34.8728 33.3577 34.7547 33.5021C31.7916 37.128 28.4544 40.3701 24.707 43.1789C23.995 43.7105 24.1919 43.7762 23.3781 43.1625C19.6799 40.3865 16.4215 37.151 13.4125 33.653C13.3009 33.5218 13.186 33.3905 13.1007 33.2429C12.9235 32.9278 13.0154 32.6424 13.2549 32.4061C13.4945 32.1698 13.7767 32.1928 14.0261 32.3766C14.2394 32.5374 14.433 32.7342 14.6102 32.9344C17.3567 36.0714 20.3887 38.9066 23.6209 41.535C23.9458 41.7975 24.1394 41.7811 24.4511 41.5251C27.703 38.8606 30.7744 36.0156 33.4914 32.7999C33.5931 32.6785 33.7079 32.5636 33.8129 32.4455C34.0262 32.2092 34.3084 32.1666 34.5447 32.3241C34.7613 32.4717 34.9089 32.7178 35.096 32.9278Z" fill="#FFEB61"/>
<path d="M28.3103 23.0968C28.2709 21.2133 29.9214 19.5365 31.8148 19.4676C33.974 19.3889 35.6048 21.1707 35.6475 23.0443C35.6934 25.0263 34.0757 26.667 32.0773 26.6998C30.0396 26.7326 28.3496 25.1149 28.3103 23.0968ZM31.992 25.2527C33.2094 25.2462 34.1741 24.3077 34.1741 23.1329C34.1741 21.9352 33.1897 20.9475 31.9953 20.9541C30.7844 20.9606 29.7672 21.9484 29.7803 23.1034C29.7935 24.2978 30.7812 25.2593 31.992 25.2527Z" fill="#FFEB61"/>
<path d="M16.1788 26.6638C14.1837 26.6703 12.5299 25.0165 12.5201 23.005C12.5102 21.046 14.0886 19.4152 16.0082 19.4053C17.9508 19.3955 19.7654 21.1641 19.7687 23.0706C19.772 25.0395 18.1575 26.6572 16.1788 26.6638ZM16.0705 20.8787C14.9877 20.8524 14.0197 21.827 13.9803 22.9853C13.9376 24.1502 14.9385 25.197 16.1165 25.2232C17.2912 25.2495 18.2789 24.3274 18.2986 23.1855C18.315 21.9943 17.265 20.9049 16.0705 20.8787Z" fill="#FFEB61"/>
</svg>
