<svg width="48" height="48" viewBox="0 0 48 48" fill="none" xmlns="http://www.w3.org/2000/svg">
<path d="M14.5497 31.2473C13.301 30.6591 12.3051 29.8837 11.5312 28.8594C9.08309 25.6229 9.76141 21.2977 13.0759 18.8484C14.4233 17.8505 15.9496 17.4349 17.6145 17.3852C18.4162 17.3618 19.2178 17.3823 20.0935 17.3823C19.9948 17.1189 19.9147 16.9316 19.8561 16.7414C19.4707 15.5211 20.0719 14.4296 21.3576 14.014C21.592 13.938 21.8695 13.9233 22.0575 13.7916C22.258 13.6482 22.4923 13.3995 22.4923 13.1917C22.4954 12.9957 22.221 12.7967 22.0575 12.6065C22.0267 12.5684 21.9404 12.5772 21.8818 12.5567C20.7595 12.1383 20.2662 11.4008 20.4388 10.3912C20.5992 9.45771 21.444 8.77587 22.5509 8.73197C23.2939 8.70271 24.0401 8.7232 24.7832 8.72027C25.0637 8.72027 25.3412 8.72612 25.6218 8.71442C26.9507 8.66467 27.9405 7.95942 28.2457 6.8474C28.5479 5.74709 28.0237 4.48291 26.9014 3.90935C26.3772 3.64012 25.7359 3.45283 25.1439 3.44698C21.6074 3.40894 18.0709 3.41479 14.5343 3.44991C13.9639 3.45576 13.3504 3.59037 12.8385 3.82741C11.7532 4.32489 10.7265 4.94527 9.65967 5.4808C9.30817 5.65638 9.29275 5.91682 9.28967 6.21531C9.28967 6.47868 9.28967 6.73913 9.28967 7.03469C10.0852 7.27172 10.8591 7.12833 11.6176 7.15175C12.4223 7.17808 13.2301 7.15467 14.0379 7.15175C14.8118 7.15175 15.5827 7.15175 16.4306 7.15175C16.4676 7.40634 16.5261 7.62581 16.5292 7.84529C16.5385 8.78758 16.5693 9.73279 16.5231 10.6721C16.4521 12.0417 16.9516 13.0279 18.447 13.4258C18.447 13.7916 18.447 14.1311 18.447 14.4706C16.7975 14.4559 15.4501 13.1595 15.3576 11.5032C15.3175 10.7687 15.3483 10.0313 15.3391 9.29383C15.336 9.00412 15.3113 8.71734 15.2928 8.3691C14.1366 8.3691 13.0389 8.3691 11.8642 8.3691C11.8365 8.58858 11.784 8.81099 11.781 9.03339C11.7717 9.65085 11.7995 10.2712 11.784 10.8887C11.7501 12.2524 10.8899 13.4317 9.58258 13.8911C9.28042 13.9965 8.94743 14.017 8.5651 14.0901C8.5651 13.66 8.5651 13.3468 8.5651 13.0279C8.83952 12.9167 9.10776 12.8318 9.34517 12.703C10.0913 12.2963 10.5692 11.7169 10.5662 10.8594C10.5631 10.122 10.5569 9.38748 10.5446 8.65004C10.5446 8.60614 10.486 8.56517 10.4058 8.45104C9.83232 9.56891 9.21567 10.6195 7.63086 10.6429C7.63086 10.2742 7.63086 9.93763 7.63086 9.5338C8.18277 9.3787 8.75009 9.1563 8.99984 8.45397C8.72851 8.4013 8.47569 8.35448 8.17969 8.29887C8.17969 7.14004 8.17969 5.97242 8.17969 4.92479C9.34517 4.31904 10.4459 3.78937 11.5004 3.19239C12.5456 2.59834 13.6433 2.33497 14.8612 2.34082C18.1171 2.35838 21.3761 2.32326 24.6321 2.33789C25.3382 2.34082 26.0751 2.37301 26.7411 2.572C29.6702 3.44991 30.5366 6.95568 28.3413 8.89585C27.7555 9.41381 27.071 9.74742 26.2632 9.78546C25.3043 9.82936 24.3423 9.82936 23.3803 9.85569C23.0411 9.86447 22.6958 9.87033 22.3628 9.93471C21.9219 10.0225 21.6598 10.321 21.629 10.7424C21.6012 11.1199 21.8756 11.3218 22.2271 11.4359C22.3443 11.474 22.4615 11.5149 22.5725 11.5618C23.3926 11.8983 23.7842 12.4719 23.7564 13.2825C23.7287 14.0462 23.2384 14.6959 22.4707 14.9563C22.2703 15.0236 22.0452 15.0353 21.8386 15.0939C20.9229 15.3455 20.6331 16.2732 21.3422 16.8702C21.6598 17.1394 22.1531 17.3033 22.5848 17.3472C23.3217 17.4232 24.074 17.3413 24.8171 17.3764C26.59 17.4584 27.8079 19.0532 27.2837 20.5808C26.9661 21.5114 26.1429 22.12 25.0514 22.161C24.0617 22.1991 23.0658 22.1727 22.073 22.1786C20.926 22.1873 19.7759 22.1932 18.6289 22.2137C18.2898 22.2195 17.9414 22.24 17.6145 22.3132C16.9239 22.4712 16.483 23.0214 16.4891 23.6535C16.4953 24.2709 16.964 24.8386 17.6392 24.982C17.9691 25.0493 18.3175 25.0552 18.6567 25.0552C21.5735 25.0581 24.4903 24.9937 27.404 25.0698C30.1789 25.143 32.5808 22.2488 31.6681 19.4366C30.9251 17.1452 28.7668 15.6177 26.2416 15.5972C25.7143 15.5943 25.1871 15.5913 24.6598 15.5796C24.6043 15.5796 24.5519 15.5357 24.4255 15.4772C24.4101 15.2314 24.3947 14.9505 24.3793 14.6783C28.6959 13.818 31.9857 16.0449 32.8984 19.3137C33.7432 22.3424 31.8285 25.3829 28.6249 26.097C28.295 26.1701 27.9497 26.2052 27.6136 26.2052C24.4502 26.2169 21.2836 26.2286 18.1202 26.2111C17.6978 26.2082 17.2507 26.1204 16.8622 25.9653C15.7522 25.5205 15.0955 24.3909 15.2558 23.3257C15.4377 22.1171 16.3843 21.2421 17.6731 21.1104C17.9814 21.0783 18.2929 21.09 18.6043 21.087C20.4357 21.0812 22.2641 21.0812 24.0956 21.0753C24.3114 21.0753 24.5303 21.0841 24.7462 21.0666C25.5725 20.9963 26.1583 20.4667 26.1552 19.8024C26.1522 19.1586 25.5262 18.5323 24.7523 18.5236C22.3751 18.4972 19.9917 18.4153 17.6176 18.5353C14.4758 18.6962 12.2373 20.4286 11.4819 23.0477C10.5353 26.3398 12.7584 29.8193 16.3442 30.6299C16.9115 30.7586 17.5066 30.8172 18.0924 30.8289C19.3011 30.8581 20.5128 30.8084 21.7215 30.8435C22.2055 30.8581 22.7143 30.9401 23.1644 31.1069C24.4163 31.5722 24.9743 32.7924 24.5488 34.0098C24.481 34.2029 24.3854 34.3844 24.2713 34.6448C25.0237 34.8175 25.7482 34.8087 26.4482 34.6214C27.0001 34.4722 27.256 33.9981 27.4317 33.5153C27.74 32.6637 27.6321 31.8297 27.256 31.022C27.1326 30.7586 26.9816 30.507 26.7966 30.1558C27.2035 30.1382 27.5273 30.1236 27.851 30.109C28.9333 30.0651 30.0217 30.0768 31.0977 29.9685C33.0649 29.7725 34.5695 28.7658 35.7658 27.3348C38.0937 24.5518 38.2756 20.6305 36.2561 17.7598C35.3249 16.4371 34.0793 15.4977 32.4852 15.0324C31.8254 14.8393 31.6281 14.4706 31.5818 13.8882C31.4153 11.8076 32.0258 9.94056 33.2838 8.12915C33.8943 8.42763 34.4832 8.71734 35.1368 9.03631C36.1081 7.79261 37.252 6.70108 38.8306 5.97827C39.6631 7.10492 40.141 8.32521 40.3044 9.65377C40.5387 11.5588 40.1348 13.3498 39.1266 15.0061C38.8954 15.3865 38.8183 15.7552 38.8214 16.1766C38.8275 18.1197 38.8121 20.0657 38.8275 22.0088C38.8553 25.4151 37.4308 28.1044 34.4801 30.0563C34.3568 30.1382 34.2427 30.229 34.0854 30.3431C36.4935 31.2883 38.1893 32.8188 39.0588 35.116C41.0105 40.2722 37.1502 45.5894 31.3845 45.6362C26.7318 45.6743 22.0791 45.6713 17.4265 45.6508C13.4891 45.6333 9.87241 42.9147 9.64117 38.5691C9.48392 35.6164 10.8375 33.1992 13.6618 31.6863C13.9331 31.5458 14.2075 31.4171 14.5497 31.2473ZM28.5602 34.5219C29.5407 34.5219 30.5335 34.4839 31.5232 34.5307C32.8275 34.5951 33.8234 35.4437 34.07 36.6143C34.2982 37.7029 33.7 38.8793 32.624 39.4353C32.0659 39.725 31.4708 39.8216 30.8326 39.8245C26.7071 39.8274 22.5817 39.845 18.4532 39.8567C18.1418 39.8567 17.8304 39.8625 17.522 39.8333C16.2579 39.7133 15.2959 38.8295 15.1726 37.697C15.0215 36.2982 15.6721 35.2594 16.9825 34.8789C17.3617 34.7707 17.7718 34.7297 18.1695 34.7209C19.2857 34.6975 20.4018 34.7121 21.5211 34.7063C21.7677 34.7063 22.0236 34.7121 22.261 34.6653C22.9795 34.5249 23.4635 33.9425 23.4419 33.2753C23.4204 32.6139 22.8931 32.0375 22.1346 32.0287C20.2137 31.9994 18.2867 31.9936 16.3689 32.0696C15.4347 32.1048 14.5683 32.4793 13.7851 32.9856C10.1869 35.312 10.1283 39.722 12.7337 42.4874C14.1027 43.9389 15.8787 44.5271 17.892 44.53C22.1408 44.533 26.3926 44.5418 30.6414 44.5096C31.5016 44.5037 32.3835 44.4188 33.216 44.2257C36.1636 43.5468 38.3065 40.8692 38.3465 37.9136C38.3866 34.9814 36.2931 32.1984 33.438 31.4112C31.9179 30.9927 30.3762 31.2151 28.8624 31.2064C28.7606 32.3301 28.665 33.3689 28.5602 34.5219ZM24.5458 38.6276C24.5458 38.6247 24.5458 38.6217 24.5458 38.6217C26.3741 38.6217 28.2025 38.6217 30.0309 38.6217C30.4348 38.6217 30.8387 38.6334 31.2396 38.6042C32.1121 38.5457 32.809 37.9136 32.849 37.1703C32.8891 36.4328 32.2386 35.7627 31.3444 35.6486C31.0392 35.6105 30.7247 35.6164 30.4163 35.6252C27.703 35.7071 24.9898 35.8066 22.2734 35.8768C20.9722 35.909 19.6711 35.8885 18.3699 35.8944C18.1233 35.8944 17.8704 35.8856 17.6269 35.9178C16.8961 36.0144 16.3319 36.6494 16.3473 37.3283C16.3596 37.9136 16.8992 38.4784 17.5806 38.5749C17.9475 38.6276 18.3206 38.6276 18.6937 38.6305C20.6423 38.6305 22.594 38.6276 24.5458 38.6276ZM37.659 17.4759C37.9025 14.0638 36.0957 10.558 33.7247 9.7679C33.108 10.8068 32.812 11.9305 32.7627 13.1215C32.7442 13.5839 32.9045 13.8531 33.3917 14.055C35.0413 14.7427 36.4041 15.7786 37.3661 17.2535C37.4092 17.3179 37.4986 17.3559 37.659 17.4759ZM38.5007 13.3498C39.5675 11.7637 39.2869 8.59443 38.2232 7.66971C37.4 8.27839 36.6415 8.9456 36.1944 9.69182C37.0022 10.9736 37.7453 12.15 38.5007 13.3498Z" fill="#FFEB61"/>
<path d="M16.7695 5.15009C16.5105 5.47785 16.3718 5.67098 16.2114 5.84949C15.3574 6.82104 14.7561 6.46695 14.0531 5.48077C14.0192 5.43395 13.9699 5.34909 13.9884 5.32275C14.2443 4.97452 14.4848 4.60579 14.787 4.2956C15.046 4.03223 15.419 4.0176 15.7212 4.23707C16.0758 4.49752 16.3872 4.81356 16.7695 5.15009Z" fill="#FFEB61"/>
<path d="M23.6641 27.8792C24.0957 27.8792 24.4842 27.8792 24.9498 27.8792C24.9498 28.2303 24.9498 28.5844 24.9498 28.9999C24.5459 28.9999 24.1358 28.9999 23.6641 28.9999C23.6641 28.6576 23.6641 28.324 23.6641 27.8792Z" fill="#FFEB61"/>
<path d="M21.9742 29.0468C21.5147 29.0468 21.1232 29.0468 20.6699 29.0468C20.6699 28.6722 20.6699 28.3328 20.6699 27.9172C21.0677 27.9172 21.4777 27.9172 21.9742 27.9172C21.9742 28.2684 21.9742 28.6459 21.9742 29.0468Z" fill="#FFEB61"/>
<path d="M24.3794 6.55169C23.9569 6.55169 23.5684 6.55169 23.106 6.55169C23.106 6.20345 23.106 5.84644 23.106 5.41919C23.4975 5.41919 23.9045 5.41919 24.3794 5.41919C24.3794 5.78206 24.3794 6.142 24.3794 6.55169Z" fill="#FFEB61"/>
<path d="M20.1084 6.54585C20.1084 6.14787 20.1084 5.8289 20.1084 5.43677C20.537 5.43677 20.9501 5.43677 21.4373 5.43677C21.4373 5.76159 21.4373 6.12153 21.4373 6.54585C21.0272 6.54585 20.6141 6.54585 20.1084 6.54585Z" fill="#FFEB61"/>
<path d="M26.707 27.8704C27.1541 27.8704 27.5426 27.8704 27.9928 27.8704C27.9928 28.2362 27.9928 28.5727 27.9928 28.9853C27.6012 28.9853 27.188 28.9853 26.707 28.9853C26.707 28.6312 26.707 28.2713 26.707 27.8704Z" fill="#FFEB61"/>
<path d="M25.1406 6.84747C25.1406 6.50801 25.1406 6.20075 25.1406 5.82617C25.5815 5.82617 25.9885 5.82617 26.4757 5.82617C26.4911 6.151 26.5065 6.46119 26.525 6.84747C26.0718 6.84747 25.6617 6.84747 25.1406 6.84747Z" fill="#FFEB61"/>
<path d="M16.3137 27.6509C16.6806 27.8499 16.9458 27.9903 17.2911 28.1776C17.0691 28.5463 16.8656 28.8858 16.6251 29.2896C16.2305 29.0614 15.9005 28.8712 15.5151 28.6458C15.8019 28.2888 16.0362 27.9962 16.3137 27.6509Z" fill="#FFEB61"/>
<path d="M18.123 10.6487C18.6164 10.6487 18.9771 10.6487 19.4057 10.6487C19.4057 11.0408 19.4057 11.4037 19.4057 11.8221C19.0264 11.8221 18.6688 11.8221 18.1847 11.8221C18.1662 11.4768 18.1477 11.1169 18.123 10.6487Z" fill="#FFEB61"/>
<path d="M32.0349 26.9075C32.1582 27.2937 32.2599 27.6186 32.3894 28.0312C31.967 28.157 31.6063 28.2653 31.153 28.3999C31.042 27.9961 30.9495 27.6742 30.8354 27.2586C31.2394 27.1416 31.6032 27.0362 32.0349 26.9075Z" fill="#FFEB61"/>
<path d="M35.8396 22.278C35.4326 22.278 35.0472 22.278 34.6094 22.278C34.6094 21.9034 34.6094 21.564 34.6094 21.1602C34.9917 21.1602 35.3771 21.1602 35.8396 21.1602C35.8396 21.5113 35.8396 21.8683 35.8396 22.278Z" fill="#FFEB61"/>
<path d="M13.2549 26.5477C13.668 26.2492 13.9795 26.0239 14.3464 25.7605C14.5992 26.0385 14.8119 26.2697 15.0802 26.5652C14.741 26.8374 14.4419 27.0744 14.075 27.37C13.8623 27.1564 13.6002 26.893 13.2549 26.5477Z" fill="#FFEB61"/>
<path d="M34.5079 25.1107C34.2119 25.4736 33.9899 25.7428 33.7278 26.0588C33.3855 25.7808 33.0895 25.538 32.7134 25.2307C32.9909 24.9293 33.2375 24.66 33.5274 24.3469C33.8634 24.6074 34.1409 24.8239 34.5079 25.1107Z" fill="#FFEB61"/>
<path d="M19.7541 41.6213C19.7541 42.0135 19.7541 42.35 19.7541 42.7509C19.3225 42.7509 18.934 42.7509 18.4653 42.7509C18.4653 42.3998 18.4653 42.0427 18.4653 41.6213C18.8816 41.6213 19.2916 41.6213 19.7541 41.6213Z" fill="#FFEB61"/>
<path d="M14.0966 39.9796C13.5601 39.9796 13.1439 39.9796 12.6475 39.9796C12.6475 39.6168 12.6475 39.2598 12.6475 38.8208C13.0822 38.8208 13.5139 38.8208 14.0349 38.8208C14.0534 39.1895 14.0719 39.5231 14.0966 39.9796Z" fill="#FFEB61"/>
<path d="M35.6147 33.9863C35.2509 34.3609 35.0073 34.6126 34.7175 34.9081C34.3691 34.557 34.0823 34.2702 33.7432 33.9249C34.0422 33.6586 34.3228 33.4069 34.6404 33.126C34.9765 33.4245 35.2663 33.6791 35.6147 33.9863Z" fill="#FFEB61"/>
<path d="M33.1296 42.5138C32.6332 42.625 32.2786 42.707 31.8068 42.8123C31.7236 42.4377 31.6465 42.0837 31.5479 41.6388C31.9641 41.5452 32.331 41.4603 32.7534 41.3638C32.886 41.7735 32.9908 42.0954 33.1296 42.5138Z" fill="#FFEB61"/>
<path d="M34.8622 41.554C34.5569 41.1999 34.3072 40.9131 33.9927 40.5473C34.2363 40.3396 34.5199 40.0967 34.7789 39.8743C35.0872 40.1347 35.3802 40.3805 35.7193 40.6644C35.4264 40.9658 35.1859 41.2175 34.8622 41.554Z" fill="#FFEB61"/>
<path d="M15.2278 40.8137C15.567 41.1064 15.8383 41.3375 16.1651 41.6155C15.8938 41.9462 15.6595 42.233 15.3666 42.59C14.9966 42.3062 14.6975 42.0779 14.3306 41.797C14.6574 41.44 14.9287 41.1444 15.2278 40.8137Z" fill="#FFEB61"/>
<path d="M25.224 41.6328C25.224 42.0308 25.224 42.3527 25.224 42.739C24.8108 42.739 24.4285 42.739 23.9722 42.739C23.9722 42.379 23.9722 42.0191 23.9722 41.6328C24.41 41.6328 24.817 41.6328 25.224 41.6328Z" fill="#FFEB61"/>
<path d="M28.2176 41.6272C28.2176 42.0193 28.2176 42.3617 28.2176 42.7538C27.8075 42.7538 27.4499 42.7538 26.9596 42.7538C26.9442 42.4144 26.9257 42.0544 26.9072 41.6272C27.3574 41.6272 27.7428 41.6272 28.2176 41.6272Z" fill="#FFEB61"/>
</svg>
