<svg width="48" height="48" viewBox="0 0 48 48" fill="none" xmlns="http://www.w3.org/2000/svg">
<path d="M35.5094 21.3835C30.5282 21.0222 26.6629 22.8025 23.9641 27.0353C23.9389 26.7956 23.919 26.6931 23.919 26.5889C23.9154 23.7335 23.919 20.8781 23.9046 18.0226C23.9046 17.7152 24.0164 17.611 24.3084 17.5728C24.6077 17.5346 24.9034 17.4581 25.1972 17.3887C29.2265 16.4386 31.7162 13.7482 32.2048 9.76376C28.6767 9.74292 25.839 10.9205 24.0182 14.0278C23.9839 13.9201 23.9551 13.8715 23.9551 13.8211C23.9389 12.3865 23.9208 10.9518 23.919 9.51886C23.919 9.41639 24.0128 9.30523 24.0831 9.2097C24.4238 8.74769 24.8547 8.32736 25.0999 7.82193C26.3799 5.18187 25.5686 2.59392 23.3511 0.608664C23.1384 0.419344 22.9834 0.504451 22.8481 0.672928C22.3542 1.28778 21.7773 1.86095 21.3987 2.5366C20.2377 4.61391 20.2665 6.70685 21.7538 8.6209C22.2496 9.25833 22.401 9.85234 22.374 10.594C22.3343 11.6726 22.3632 12.7529 22.3632 13.9444C21.4618 12.5098 20.3404 11.4103 18.8531 10.7086C17.3622 10.0052 15.7703 9.77592 14.0522 9.80024C14.2343 10.5384 14.3767 11.2036 14.566 11.8567C14.9896 13.3244 15.8262 14.528 17.0737 15.4746C18.5304 16.581 20.2178 17.1594 22.0008 17.5259C22.264 17.5797 22.3596 17.6614 22.3578 17.9271C22.3506 20.8381 22.3578 23.7491 22.3578 26.6601C22.3578 26.7418 22.3271 26.8217 22.3019 26.945C19.0586 21.9393 14.95 21.2029 10.7133 21.3939C10.7224 21.4617 10.7242 21.5311 10.744 21.5954C11.119 22.8859 11.6112 24.1312 12.3215 25.2915C13.7439 27.6102 15.718 29.2012 18.534 29.7014C19.6698 29.9029 20.7983 30.1478 21.9341 30.3528C22.2406 30.4083 22.365 30.5073 22.3614 30.8304C22.3434 32.3623 22.3614 33.8943 22.3398 35.4262C22.3361 35.6103 22.2118 35.8569 22.0585 35.9664C20.5928 37.0067 19.1037 38.0176 17.6326 39.0511C17.4018 39.2126 17.2486 39.2213 17.0413 39.0319C16.4535 38.4953 15.8496 37.9759 15.2547 37.4462C14.6327 36.8921 14.0143 36.3328 13.3689 35.7527C12.4801 36.7219 11.6274 37.6477 10.7801 38.5786C10.1238 39.2977 10.1166 39.3133 9.345 38.728C9.07999 38.5283 8.91052 38.556 8.68697 38.7627C8.13351 39.2734 7.57103 39.7736 7.00134 40.2669C6.83187 40.4128 6.66781 40.5673 6.50195 40.7185C6.5957 41.6077 6.68043 42.4988 6.75615 43.388C8.04878 44.1644 9.35041 44.9234 10.6394 45.7033C10.9153 45.87 11.0901 45.8805 11.3443 45.6581C12.1141 44.9842 12.9218 44.3503 13.6952 43.6798C13.944 43.4645 14.1045 43.4836 14.3496 43.6798C15.6783 44.755 17.025 45.8075 18.3519 46.8826C18.5953 47.0789 18.7936 47.1154 19.0839 46.9799C20.4107 46.3616 21.7466 45.7641 23.0789 45.1579C23.1258 45.1371 23.16 45.0902 23.2123 45.0468C22.9599 44.6091 22.7165 44.187 22.4587 43.7406C22.2965 43.8066 22.1631 43.8535 22.0351 43.9126C21.1228 44.3312 20.1998 44.7341 19.302 45.1822C18.9613 45.3525 18.7395 45.3073 18.4637 45.078C17.1404 43.9768 15.8009 42.893 14.4668 41.8023C14.3154 41.6772 14.1585 41.5574 13.9819 41.4184C13.0498 42.2313 12.1286 43.0129 11.238 43.8257C10.9982 44.0446 10.8359 44.0463 10.5727 43.8883C9.7272 43.3794 8.86726 42.8913 8.01272 42.3963C7.79638 42.2712 7.58184 42.1462 7.32224 41.9968C7.92077 41.4705 8.47244 40.9859 9.04033 40.4874C9.45858 40.781 9.8516 41.0589 10.25 41.3368C11.3407 40.1748 12.4116 39.0337 13.4951 37.8787C13.6411 37.9985 13.7313 38.0662 13.8142 38.1409C14.6976 38.9434 15.5774 39.7493 16.4625 40.55C17.1476 41.17 17.1602 41.177 17.885 40.6142C18.15 40.4076 18.3826 40.3693 18.7107 40.4683C19.7707 40.7897 20.8434 41.0745 21.9107 41.3733C22.3758 41.5035 22.8391 41.6373 23.3331 41.778C23.4755 41.2552 23.5999 40.7914 23.7315 40.3068C22.493 39.9647 21.2959 39.6346 20.0772 39.2977C20.1367 39.2213 20.1565 39.1813 20.189 39.157C21.5573 38.1774 22.9311 37.203 24.294 36.2165C24.532 36.0445 24.6492 36.1748 24.8006 36.3155C25.7038 37.1579 26.6106 37.9985 27.5139 38.8409C27.7248 39.0389 27.9285 39.2438 28.1502 39.461C27.0487 40.0411 25.9797 40.6038 24.8745 41.1839C25.1828 41.5192 25.4532 41.7901 25.693 42.0836C25.8535 42.2799 25.9905 42.2764 26.205 42.1635C27.0037 41.745 27.8384 41.3802 28.6136 40.9251C29.1274 40.6229 29.5132 40.5986 29.9116 41.0571C29.9801 41.1353 30.2019 41.1978 30.265 41.1527C30.6057 40.9078 30.9194 40.6281 31.2421 40.3607C31.1826 40.4006 31.1249 40.4406 31.0654 40.4805C29.7962 39.1831 28.5361 37.8769 27.2542 36.5916C26.5331 35.8691 25.7651 35.19 25.0314 34.4796C24.8042 34.2607 24.6149 34.2295 24.3733 34.4431C24.258 34.5456 24.1065 34.6081 23.9046 34.7314C23.9046 33.3367 23.9082 32.041 23.901 30.747C23.901 30.5143 23.9984 30.4465 24.2255 30.4066C25.2495 30.2294 26.2663 30.0227 27.2903 29.8404C29.5583 29.4357 31.4999 28.5012 32.9331 26.7001C34.1753 25.1404 34.9721 23.3792 35.5292 21.5033C35.54 21.4686 35.5184 21.4269 35.5094 21.3818V21.3835ZM30.2091 11.4763C29.7205 13.5311 27.0253 15.7421 24.8889 15.8637C25.1395 13.9114 28.2188 11.3582 30.2091 11.4763ZM16.0948 11.4815C17.9823 11.3113 20.9768 13.7134 21.5105 15.822C19.3362 15.7404 16.2696 13.2827 16.0948 11.4815ZM18.9144 28.2789C15.7703 27.7735 14.1063 25.691 12.8966 23.1082C12.8785 23.07 12.8659 23.0301 12.8569 22.9901C12.8515 22.9641 12.8605 22.9363 12.8623 22.9102C15.8947 22.5125 20.4594 25.6163 21.5014 28.8451C20.6126 28.6489 19.7707 28.4196 18.9144 28.2807V28.2789ZM23.4701 7.55619C23.2195 7.95741 23.0699 7.96957 22.7995 7.56487C22.0351 6.41506 22.008 5.18187 22.4353 3.92611C22.5921 3.46583 22.8572 3.03856 23.1132 2.5175C23.6937 3.23309 23.9479 3.93479 24.0633 4.67818C24.2219 5.69946 24.0272 6.6669 23.4683 7.55792L23.4701 7.55619ZM27.9087 28.1782C26.8973 28.3901 25.8895 28.6159 24.7609 28.8625C25.556 27.2976 26.4736 25.9463 27.8077 24.8937C29.4194 23.6223 31.2854 22.9762 33.4848 22.8321C32.2769 25.3644 30.9014 27.5494 27.9087 28.1764V28.1782Z" fill="#FFEB61"/>
<path d="M28.9924 47.3689C29.7279 46.7627 30.4545 46.1461 31.2044 45.5538C31.3451 45.4426 31.6011 45.3489 31.7561 45.394C32.5295 45.6215 33.2921 45.8821 34.0457 46.1635C34.3053 46.2607 34.4838 46.2468 34.7127 46.0905C36.3335 44.9945 37.9722 43.9264 39.584 42.8182C39.9607 42.5594 40.1933 42.6115 40.5088 42.8877C40.5989 42.9659 40.6891 43.0423 40.7792 43.1187C41.0208 42.6914 41.2606 42.2642 41.4986 41.8351C41.0154 41.4235 40.5322 41.0101 40.0455 40.595C39.3694 41.097 38.7078 41.5677 38.0714 42.0679C37.8172 42.2676 37.6387 42.2937 37.3629 42.0957C36.2884 41.3176 35.1977 40.562 34.1124 39.7995C33.6401 39.4678 33.1641 39.136 32.6593 38.7834C32.315 39.2072 32.0067 39.5859 31.6894 39.9784C33.2633 41.0553 34.7993 42.1078 36.393 43.1986C35.7349 43.6259 35.1382 44.0358 34.5144 44.4057C34.345 44.5065 34.0745 44.5482 33.8834 44.4978C33.1046 44.2928 32.3366 44.0462 31.5668 43.8065C31.282 43.7179 31.0458 43.7561 30.8078 43.9472C30.1985 44.4387 29.5693 44.9077 28.9581 45.3975C28.7724 45.5469 28.6336 45.5729 28.4353 45.4166C28.1342 45.1786 27.8079 44.9702 27.4888 44.7531C26.8074 44.2911 26.1241 43.8308 25.4174 43.3532C25.1307 43.7943 24.8765 44.1886 24.6079 44.6003C26.0285 45.5833 27.4113 46.5386 28.7995 47.4991C28.877 47.447 28.9383 47.4123 28.9924 47.3671V47.3689Z" fill="#FFEB61"/>
</svg>
