<svg width="48" height="48" viewBox="0 0 48 48" fill="none" xmlns="http://www.w3.org/2000/svg">
<g clip-path="url(#clip0_784_3361)">
<mask id="path-1-outside-1_784_3361" maskUnits="userSpaceOnUse" x="-2.57779" y="-3.42551" width="53.0082" height="53.0577" fill="black">
<rect fill="white" x="-2.57779" y="-3.42551" width="53.0082" height="53.0577"/>
<path d="M27.2448 32.2869C26.5998 32.9792 25.9902 33.6445 25.3617 34.2892C25.2793 34.374 25.0945 34.3827 24.9579 34.3825C24.0821 34.3866 23.4362 34.7946 23.0138 35.5515C22.6206 36.2569 22.626 36.9963 23.0351 37.6887C23.4745 38.4312 24.1803 38.7228 25.0055 38.657C25.8712 38.5886 26.4236 38.0557 26.7625 37.2743C26.826 37.1278 26.8933 36.9697 26.8985 36.8141C26.9182 36.2831 27.2224 35.9363 27.5721 35.5934C28.3311 34.8511 29.0787 34.0973 29.8149 33.3318C30.0101 33.1289 30.1239 33.1535 30.3072 33.3389C32.8071 35.8766 35.3133 38.4067 37.8157 40.9419C38.2631 41.3951 38.732 41.7982 39.39 41.8929C40.3073 42.024 41.1481 41.6457 41.578 40.8979C42.0207 40.1269 41.9714 39.0557 41.4155 38.3632C41.1022 37.9731 40.7318 37.6293 40.378 37.2726C38.0702 34.9473 35.7599 32.6258 33.4508 30.3018C33.3725 30.222 33.3068 30.1293 33.1589 29.9516C33.5618 29.5805 33.9635 29.2287 34.3436 28.8537C35.2699 27.9394 36.1898 27.0186 37.1022 26.0913C37.3302 25.8602 37.5696 25.7447 37.9012 25.7169C39.5832 25.5802 40.4574 23.826 39.5531 22.4361C39.0997 21.7386 38.2991 21.3955 37.4889 21.5513C36.5725 21.7276 35.8718 22.4108 35.6897 23.3068C35.6846 23.3287 35.6782 23.3531 35.6807 23.3749C35.7318 23.9935 35.3719 24.3775 34.9589 24.7551C34.4217 25.2443 33.9135 25.7657 33.3864 26.2807C32.9112 25.803 32.4613 25.3536 32.0126 24.903C27.7749 20.6502 23.5385 16.3948 19.2983 12.1445C17.5971 10.4398 15.8896 8.74016 14.1745 7.05083C14.0342 6.91306 13.8117 6.80861 13.6181 6.78778C11.3101 6.54304 8.99961 6.31888 6.69038 6.08571C6.19817 6.03621 6.0385 6.20317 6.1619 6.6804C6.62152 8.44783 7.08114 10.2165 7.55721 11.9789C7.61389 12.1898 7.73129 12.4111 7.88168 12.5656C13.876 18.6802 19.8767 24.787 25.8761 30.8951C26.3462 31.374 26.8176 31.853 27.2448 32.2895L27.2448 32.2869ZM7.06925 7.67172C7.09077 7.66017 7.11357 7.64863 7.1351 7.63709C7.31329 7.82635 7.48767 8.02075 7.6684 8.20615C11.3145 11.9387 14.9619 15.6687 18.608 19.4013C21.3366 22.1939 24.0614 24.9904 26.7925 27.7805C27.039 28.0329 27.1994 28.2594 27.0647 28.6527C26.9847 28.8879 27.0071 29.185 27.0612 29.4371C27.1153 29.6854 27.2516 29.9221 27.3855 30.1422C27.4247 30.2065 27.5904 30.2325 27.6815 30.2082C27.7334 30.1941 27.7627 30.0462 27.7793 29.955C27.7908 29.8907 27.7668 29.8186 27.753 29.7505C27.3291 27.7529 29.2367 26.4052 30.7471 26.8392C31.1671 26.9593 31.3598 26.7243 31.6031 26.4841C30.9899 26.0448 30.1535 25.9396 29.3369 26.2124C29.1116 26.288 28.9737 26.2557 28.8056 26.0793C27.629 24.851 26.441 23.633 25.2518 22.4176C24.8638 22.021 24.8536 22.0236 24.4444 22.4114C24.1175 22.7222 23.7994 23.0432 23.4586 23.3797C18.0823 17.8781 12.7363 12.4073 7.3891 6.9366C7.41193 6.89677 7.4335 6.85564 7.45633 6.81581C9.23284 7.00585 11.0106 7.19461 12.7492 7.37946C12.8004 7.87589 12.8074 8.31696 12.9005 8.73886C12.9949 9.17233 13.1335 9.60715 13.3216 10.0086C14.2239 11.9348 16.3076 13.352 18.6912 12.7995C18.8305 12.7676 19.0442 12.8604 19.1592 12.9673C19.6952 13.4618 20.2159 13.9755 20.7303 14.4931C24.6912 18.4743 28.6496 22.458 32.6092 26.443C32.7027 26.537 32.7886 26.6387 32.8202 26.6747C31.1323 28.4227 29.4723 30.141 27.8047 31.8659C27.6973 31.7616 27.6227 31.6933 27.5519 31.6199C25.6448 29.6847 23.7377 27.7496 21.8318 25.8131C17.4273 21.3376 13.0267 16.8595 8.61843 12.3866C8.35429 12.1175 8.1775 11.8305 8.08307 11.4562C7.76201 10.1904 7.41056 8.93235 7.07178 7.67172L7.06925 7.67172ZM30.148 32.1351C29.9808 32.2827 29.901 32.3444 29.83 32.4163C28.7884 33.4578 27.7519 34.5032 26.7065 35.5396C26.4721 35.772 26.2883 36.0007 26.3106 36.3672C26.3218 36.5549 26.2658 36.7567 26.2036 36.9393C25.8225 38.0614 24.5047 38.3876 23.7617 37.5495C23.3661 37.104 23.2835 36.452 23.5537 35.9071C23.8443 35.3237 24.4826 34.9554 25.1316 35.0604C25.4188 35.1071 25.5885 35.0199 25.7824 34.8273C29.0757 31.5332 32.3727 28.243 35.6761 24.9605C36.0461 24.5919 36.3237 24.2566 36.3093 23.6522C36.2877 22.7855 37.1111 22.123 37.9538 22.1923C38.727 22.255 39.3461 22.9785 39.2818 23.7474C39.215 24.56 38.4309 25.1582 37.5552 25.0992C37.3907 25.0887 37.173 25.1656 37.0551 25.2799C35.5523 26.7464 34.066 28.2297 32.5708 29.704C32.3617 29.9095 32.3691 30.0869 32.5663 30.2904C33.2487 30.9959 33.9261 31.7066 34.606 32.416C34.6894 32.5023 34.769 32.5924 34.8727 32.7044C34.1377 33.421 33.4307 34.1106 32.6628 34.8593C31.8086 33.9323 30.9821 33.0363 30.1518 32.1351L30.148 32.1351ZM38.5694 36.4268C39.3391 37.1877 40.105 37.9204 40.8406 38.6813C41.3057 39.1603 41.3566 39.9203 41.0229 40.5448C40.7312 41.091 40.1069 41.4039 39.4591 41.2449C39.1555 41.1699 38.8406 40.9959 38.6093 40.7809C37.9015 40.119 37.2304 39.4173 36.5467 38.7285C36.4936 38.6744 36.4545 38.6062 36.3888 38.5161C37.1135 37.8214 37.8269 37.1395 38.5681 36.4293L38.5694 36.4268ZM13.483 7.49228C13.5147 7.46404 13.5451 7.43578 13.5768 7.40754C15.1655 8.97711 16.7541 10.5467 18.377 12.1497C15.8705 12.7483 13.1758 10.1473 13.483 7.49228ZM35.9047 38.0358C35.5571 37.6959 35.2096 37.3688 34.8848 37.0199C34.8431 36.9749 34.8813 36.782 34.9434 36.7204C35.5491 36.1181 36.1649 35.5248 36.7882 34.9405C36.8453 34.8866 37.0161 34.8624 37.0591 34.9036C37.4067 35.2448 37.7352 35.6053 38.0866 35.9773C37.3669 36.6554 36.6333 37.3488 35.9047 38.0345L35.9047 38.0358ZM34.349 36.3904C33.956 36.0054 33.5844 35.641 33.1862 35.2509C33.9047 34.5587 34.6282 33.8614 35.3251 33.1898C35.7181 33.5928 36.0796 33.9649 36.4499 34.3434C35.7504 35.0253 35.0333 35.7239 34.349 36.3917L34.349 36.3904ZM23.9414 23.8715C24.2214 23.58 24.4571 23.3193 24.7118 23.0804C24.7599 23.0355 24.9207 23.0305 24.9636 23.0743C25.5968 23.7245 26.2198 24.3876 26.8732 25.0776C26.5919 25.346 26.2853 25.6401 26.0648 25.8494C25.3431 25.1773 24.6555 24.5373 23.9414 23.8715ZM26.4564 26.4363C26.7617 26.1641 27.0873 25.8739 27.385 25.6094C27.6934 25.9223 28.0271 26.2609 28.3127 26.5506C28.0377 26.8434 27.745 27.1568 27.4522 27.4702C27.1552 27.1612 26.8254 26.8187 26.4576 26.4363L26.4564 26.4363Z"/>
</mask>
<path d="M27.2448 32.2869C26.5998 32.9792 25.9902 33.6445 25.3617 34.2892C25.2793 34.374 25.0945 34.3827 24.9579 34.3825C24.0821 34.3866 23.4362 34.7946 23.0138 35.5515C22.6206 36.2569 22.626 36.9963 23.0351 37.6887C23.4745 38.4312 24.1803 38.7228 25.0055 38.657C25.8712 38.5886 26.4236 38.0557 26.7625 37.2743C26.826 37.1278 26.8933 36.9697 26.8985 36.8141C26.9182 36.2831 27.2224 35.9363 27.5721 35.5934C28.3311 34.8511 29.0787 34.0973 29.8149 33.3318C30.0101 33.1289 30.1239 33.1535 30.3072 33.3389C32.8071 35.8766 35.3133 38.4067 37.8157 40.9419C38.2631 41.3951 38.732 41.7982 39.39 41.8929C40.3073 42.024 41.1481 41.6457 41.578 40.8979C42.0207 40.1269 41.9714 39.0557 41.4155 38.3632C41.1022 37.9731 40.7318 37.6293 40.378 37.2726C38.0702 34.9473 35.7599 32.6258 33.4508 30.3018C33.3725 30.222 33.3068 30.1293 33.1589 29.9516C33.5618 29.5805 33.9635 29.2287 34.3436 28.8537C35.2699 27.9394 36.1898 27.0186 37.1022 26.0913C37.3302 25.8602 37.5696 25.7447 37.9012 25.7169C39.5832 25.5802 40.4574 23.826 39.5531 22.4361C39.0997 21.7386 38.2991 21.3955 37.4889 21.5513C36.5725 21.7276 35.8718 22.4108 35.6897 23.3068C35.6846 23.3287 35.6782 23.3531 35.6807 23.3749C35.7318 23.9935 35.3719 24.3775 34.9589 24.7551C34.4217 25.2443 33.9135 25.7657 33.3864 26.2807C32.9112 25.803 32.4613 25.3536 32.0126 24.903C27.7749 20.6502 23.5385 16.3948 19.2983 12.1445C17.5971 10.4398 15.8896 8.74016 14.1745 7.05083C14.0342 6.91306 13.8117 6.80861 13.6181 6.78778C11.3101 6.54304 8.99961 6.31888 6.69038 6.08571C6.19817 6.03621 6.0385 6.20317 6.1619 6.6804C6.62152 8.44783 7.08114 10.2165 7.55721 11.9789C7.61389 12.1898 7.73129 12.4111 7.88168 12.5656C13.876 18.6802 19.8767 24.787 25.8761 30.8951C26.3462 31.374 26.8176 31.853 27.2448 32.2895L27.2448 32.2869ZM7.06925 7.67172C7.09077 7.66017 7.11357 7.64863 7.1351 7.63709C7.31329 7.82635 7.48767 8.02075 7.6684 8.20615C11.3145 11.9387 14.9619 15.6687 18.608 19.4013C21.3366 22.1939 24.0614 24.9904 26.7925 27.7805C27.039 28.0329 27.1994 28.2594 27.0647 28.6527C26.9847 28.8879 27.0071 29.185 27.0612 29.4371C27.1153 29.6854 27.2516 29.9221 27.3855 30.1422C27.4247 30.2065 27.5904 30.2325 27.6815 30.2082C27.7334 30.1941 27.7627 30.0462 27.7793 29.955C27.7908 29.8907 27.7668 29.8186 27.753 29.7505C27.3291 27.7529 29.2367 26.4052 30.7471 26.8392C31.1671 26.9593 31.3598 26.7243 31.6031 26.4841C30.9899 26.0448 30.1535 25.9396 29.3369 26.2124C29.1116 26.288 28.9737 26.2557 28.8056 26.0793C27.629 24.851 26.441 23.633 25.2518 22.4176C24.8638 22.021 24.8536 22.0236 24.4444 22.4114C24.1175 22.7222 23.7994 23.0432 23.4586 23.3797C18.0823 17.8781 12.7363 12.4073 7.3891 6.9366C7.41193 6.89677 7.4335 6.85564 7.45633 6.81581C9.23284 7.00585 11.0106 7.19461 12.7492 7.37946C12.8004 7.87589 12.8074 8.31696 12.9005 8.73886C12.9949 9.17233 13.1335 9.60715 13.3216 10.0086C14.2239 11.9348 16.3076 13.352 18.6912 12.7995C18.8305 12.7676 19.0442 12.8604 19.1592 12.9673C19.6952 13.4618 20.2159 13.9755 20.7303 14.4931C24.6912 18.4743 28.6496 22.458 32.6092 26.443C32.7027 26.537 32.7886 26.6387 32.8202 26.6747C31.1323 28.4227 29.4723 30.141 27.8047 31.8659C27.6973 31.7616 27.6227 31.6933 27.5519 31.6199C25.6448 29.6847 23.7377 27.7496 21.8318 25.8131C17.4273 21.3376 13.0267 16.8595 8.61843 12.3866C8.35429 12.1175 8.1775 11.8305 8.08307 11.4562C7.76201 10.1904 7.41056 8.93235 7.07178 7.67172L7.06925 7.67172ZM30.148 32.1351C29.9808 32.2827 29.901 32.3444 29.83 32.4163C28.7884 33.4578 27.7519 34.5032 26.7065 35.5396C26.4721 35.772 26.2883 36.0007 26.3106 36.3672C26.3218 36.5549 26.2658 36.7567 26.2036 36.9393C25.8225 38.0614 24.5047 38.3876 23.7617 37.5495C23.3661 37.104 23.2835 36.452 23.5537 35.9071C23.8443 35.3237 24.4826 34.9554 25.1316 35.0604C25.4188 35.1071 25.5885 35.0199 25.7824 34.8273C29.0757 31.5332 32.3727 28.243 35.6761 24.9605C36.0461 24.5919 36.3237 24.2566 36.3093 23.6522C36.2877 22.7855 37.1111 22.123 37.9538 22.1923C38.727 22.255 39.3461 22.9785 39.2818 23.7474C39.215 24.56 38.4309 25.1582 37.5552 25.0992C37.3907 25.0887 37.173 25.1656 37.0551 25.2799C35.5523 26.7464 34.066 28.2297 32.5708 29.704C32.3617 29.9095 32.3691 30.0869 32.5663 30.2904C33.2487 30.9959 33.9261 31.7066 34.606 32.416C34.6894 32.5023 34.769 32.5924 34.8727 32.7044C34.1377 33.421 33.4307 34.1106 32.6628 34.8593C31.8086 33.9323 30.9821 33.0363 30.1518 32.1351L30.148 32.1351ZM38.5694 36.4268C39.3391 37.1877 40.105 37.9204 40.8406 38.6813C41.3057 39.1603 41.3566 39.9203 41.0229 40.5448C40.7312 41.091 40.1069 41.4039 39.4591 41.2449C39.1555 41.1699 38.8406 40.9959 38.6093 40.7809C37.9015 40.119 37.2304 39.4173 36.5467 38.7285C36.4936 38.6744 36.4545 38.6062 36.3888 38.5161C37.1135 37.8214 37.8269 37.1395 38.5681 36.4293L38.5694 36.4268ZM13.483 7.49228C13.5147 7.46404 13.5451 7.43578 13.5768 7.40754C15.1655 8.97711 16.7541 10.5467 18.377 12.1497C15.8705 12.7483 13.1758 10.1473 13.483 7.49228ZM35.9047 38.0358C35.5571 37.6959 35.2096 37.3688 34.8848 37.0199C34.8431 36.9749 34.8813 36.782 34.9434 36.7204C35.5491 36.1181 36.1649 35.5248 36.7882 34.9405C36.8453 34.8866 37.0161 34.8624 37.0591 34.9036C37.4067 35.2448 37.7352 35.6053 38.0866 35.9773C37.3669 36.6554 36.6333 37.3488 35.9047 38.0345L35.9047 38.0358ZM34.349 36.3904C33.956 36.0054 33.5844 35.641 33.1862 35.2509C33.9047 34.5587 34.6282 33.8614 35.3251 33.1898C35.7181 33.5928 36.0796 33.9649 36.4499 34.3434C35.7504 35.0253 35.0333 35.7239 34.349 36.3917L34.349 36.3904ZM23.9414 23.8715C24.2214 23.58 24.4571 23.3193 24.7118 23.0804C24.7599 23.0355 24.9207 23.0305 24.9636 23.0743C25.5968 23.7245 26.2198 24.3876 26.8732 25.0776C26.5919 25.346 26.2853 25.6401 26.0648 25.8494C25.3431 25.1773 24.6555 24.5373 23.9414 23.8715ZM26.4564 26.4363C26.7617 26.1641 27.0873 25.8739 27.385 25.6094C27.6934 25.9223 28.0271 26.2609 28.3127 26.5506C28.0377 26.8434 27.745 27.1568 27.4522 27.4702C27.1552 27.1612 26.8254 26.8187 26.4576 26.4363L26.4564 26.4363Z" fill="#FFEB61"/>
<path d="M27.2448 32.2869C26.5998 32.9792 25.9902 33.6445 25.3617 34.2892C25.2793 34.374 25.0945 34.3827 24.9579 34.3825C24.0821 34.3866 23.4362 34.7946 23.0138 35.5515C22.6206 36.2569 22.626 36.9963 23.0351 37.6887C23.4745 38.4312 24.1803 38.7228 25.0055 38.657C25.8712 38.5886 26.4236 38.0557 26.7625 37.2743C26.826 37.1278 26.8933 36.9697 26.8985 36.8141C26.9182 36.2831 27.2224 35.9363 27.5721 35.5934C28.3311 34.8511 29.0787 34.0973 29.8149 33.3318C30.0101 33.1289 30.1239 33.1535 30.3072 33.3389C32.8071 35.8766 35.3133 38.4067 37.8157 40.9419C38.2631 41.3951 38.732 41.7982 39.39 41.8929C40.3073 42.024 41.1481 41.6457 41.578 40.8979C42.0207 40.1269 41.9714 39.0557 41.4155 38.3632C41.1022 37.9731 40.7318 37.6293 40.378 37.2726C38.0702 34.9473 35.7599 32.6258 33.4508 30.3018C33.3725 30.222 33.3068 30.1293 33.1589 29.9516C33.5618 29.5805 33.9635 29.2287 34.3436 28.8537C35.2699 27.9394 36.1898 27.0186 37.1022 26.0913C37.3302 25.8602 37.5696 25.7447 37.9012 25.7169C39.5832 25.5802 40.4574 23.826 39.5531 22.4361C39.0997 21.7386 38.2991 21.3955 37.4889 21.5513C36.5725 21.7276 35.8718 22.4108 35.6897 23.3068C35.6846 23.3287 35.6782 23.3531 35.6807 23.3749C35.7318 23.9935 35.3719 24.3775 34.9589 24.7551C34.4217 25.2443 33.9135 25.7657 33.3864 26.2807C32.9112 25.803 32.4613 25.3536 32.0126 24.903C27.7749 20.6502 23.5385 16.3948 19.2983 12.1445C17.5971 10.4398 15.8896 8.74016 14.1745 7.05083C14.0342 6.91306 13.8117 6.80861 13.6181 6.78778C11.3101 6.54304 8.99961 6.31888 6.69038 6.08571C6.19817 6.03621 6.0385 6.20317 6.1619 6.6804C6.62152 8.44783 7.08114 10.2165 7.55721 11.9789C7.61389 12.1898 7.73129 12.4111 7.88168 12.5656C13.876 18.6802 19.8767 24.787 25.8761 30.8951C26.3462 31.374 26.8176 31.853 27.2448 32.2895L27.2448 32.2869ZM7.06925 7.67172C7.09077 7.66017 7.11357 7.64863 7.1351 7.63709C7.31329 7.82635 7.48767 8.02075 7.6684 8.20615C11.3145 11.9387 14.9619 15.6687 18.608 19.4013C21.3366 22.1939 24.0614 24.9904 26.7925 27.7805C27.039 28.0329 27.1994 28.2594 27.0647 28.6527C26.9847 28.8879 27.0071 29.185 27.0612 29.4371C27.1153 29.6854 27.2516 29.9221 27.3855 30.1422C27.4247 30.2065 27.5904 30.2325 27.6815 30.2082C27.7334 30.1941 27.7627 30.0462 27.7793 29.955C27.7908 29.8907 27.7668 29.8186 27.753 29.7505C27.3291 27.7529 29.2367 26.4052 30.7471 26.8392C31.1671 26.9593 31.3598 26.7243 31.6031 26.4841C30.9899 26.0448 30.1535 25.9396 29.3369 26.2124C29.1116 26.288 28.9737 26.2557 28.8056 26.0793C27.629 24.851 26.441 23.633 25.2518 22.4176C24.8638 22.021 24.8536 22.0236 24.4444 22.4114C24.1175 22.7222 23.7994 23.0432 23.4586 23.3797C18.0823 17.8781 12.7363 12.4073 7.3891 6.9366C7.41193 6.89677 7.4335 6.85564 7.45633 6.81581C9.23284 7.00585 11.0106 7.19461 12.7492 7.37946C12.8004 7.87589 12.8074 8.31696 12.9005 8.73886C12.9949 9.17233 13.1335 9.60715 13.3216 10.0086C14.2239 11.9348 16.3076 13.352 18.6912 12.7995C18.8305 12.7676 19.0442 12.8604 19.1592 12.9673C19.6952 13.4618 20.2159 13.9755 20.7303 14.4931C24.6912 18.4743 28.6496 22.458 32.6092 26.443C32.7027 26.537 32.7886 26.6387 32.8202 26.6747C31.1323 28.4227 29.4723 30.141 27.8047 31.8659C27.6973 31.7616 27.6227 31.6933 27.5519 31.6199C25.6448 29.6847 23.7377 27.7496 21.8318 25.8131C17.4273 21.3376 13.0267 16.8595 8.61843 12.3866C8.35429 12.1175 8.1775 11.8305 8.08307 11.4562C7.76201 10.1904 7.41056 8.93235 7.07178 7.67172L7.06925 7.67172ZM30.148 32.1351C29.9808 32.2827 29.901 32.3444 29.83 32.4163C28.7884 33.4578 27.7519 34.5032 26.7065 35.5396C26.4721 35.772 26.2883 36.0007 26.3106 36.3672C26.3218 36.5549 26.2658 36.7567 26.2036 36.9393C25.8225 38.0614 24.5047 38.3876 23.7617 37.5495C23.3661 37.104 23.2835 36.452 23.5537 35.9071C23.8443 35.3237 24.4826 34.9554 25.1316 35.0604C25.4188 35.1071 25.5885 35.0199 25.7824 34.8273C29.0757 31.5332 32.3727 28.243 35.6761 24.9605C36.0461 24.5919 36.3237 24.2566 36.3093 23.6522C36.2877 22.7855 37.1111 22.123 37.9538 22.1923C38.727 22.255 39.3461 22.9785 39.2818 23.7474C39.215 24.56 38.4309 25.1582 37.5552 25.0992C37.3907 25.0887 37.173 25.1656 37.0551 25.2799C35.5523 26.7464 34.066 28.2297 32.5708 29.704C32.3617 29.9095 32.3691 30.0869 32.5663 30.2904C33.2487 30.9959 33.9261 31.7066 34.606 32.416C34.6894 32.5023 34.769 32.5924 34.8727 32.7044C34.1377 33.421 33.4307 34.1106 32.6628 34.8593C31.8086 33.9323 30.9821 33.0363 30.1518 32.1351L30.148 32.1351ZM38.5694 36.4268C39.3391 37.1877 40.105 37.9204 40.8406 38.6813C41.3057 39.1603 41.3566 39.9203 41.0229 40.5448C40.7312 41.091 40.1069 41.4039 39.4591 41.2449C39.1555 41.1699 38.8406 40.9959 38.6093 40.7809C37.9015 40.119 37.2304 39.4173 36.5467 38.7285C36.4936 38.6744 36.4545 38.6062 36.3888 38.5161C37.1135 37.8214 37.8269 37.1395 38.5681 36.4293L38.5694 36.4268ZM13.483 7.49228C13.5147 7.46404 13.5451 7.43578 13.5768 7.40754C15.1655 8.97711 16.7541 10.5467 18.377 12.1497C15.8705 12.7483 13.1758 10.1473 13.483 7.49228ZM35.9047 38.0358C35.5571 37.6959 35.2096 37.3688 34.8848 37.0199C34.8431 36.9749 34.8813 36.782 34.9434 36.7204C35.5491 36.1181 36.1649 35.5248 36.7882 34.9405C36.8453 34.8866 37.0161 34.8624 37.0591 34.9036C37.4067 35.2448 37.7352 35.6053 38.0866 35.9773C37.3669 36.6554 36.6333 37.3488 35.9047 38.0345L35.9047 38.0358ZM34.349 36.3904C33.956 36.0054 33.5844 35.641 33.1862 35.2509C33.9047 34.5587 34.6282 33.8614 35.3251 33.1898C35.7181 33.5928 36.0796 33.9649 36.4499 34.3434C35.7504 35.0253 35.0333 35.7239 34.349 36.3917L34.349 36.3904ZM23.9414 23.8715C24.2214 23.58 24.4571 23.3193 24.7118 23.0804C24.7599 23.0355 24.9207 23.0305 24.9636 23.0743C25.5968 23.7245 26.2198 24.3876 26.8732 25.0776C26.5919 25.346 26.2853 25.6401 26.0648 25.8494C25.3431 25.1773 24.6555 24.5373 23.9414 23.8715ZM26.4564 26.4363C26.7617 26.1641 27.0873 25.8739 27.385 25.6094C27.6934 25.9223 28.0271 26.2609 28.3127 26.5506C28.0377 26.8434 27.745 27.1568 27.4522 27.4702C27.1552 27.1612 26.8254 26.8187 26.4576 26.4363L26.4564 26.4363Z" stroke="#FFEB61" stroke-width="0.6" mask="url(#path-1-outside-1_784_3361)"/>
<path d="M32.3954 29.7576C32.66 30.0097 32.8886 30.2277 33.1301 30.4583C32.9601 30.6049 32.7902 30.7515 32.6048 30.9094C32.3543 30.6978 32.1219 30.5013 31.8431 30.2656C32.0337 30.0899 32.2165 29.9218 32.3954 29.7563L32.3954 29.7576Z" fill="#FFEB61"/>
<path d="M30.1413 28.5588C30.3344 28.378 30.5044 28.2188 30.6627 28.0697C30.908 28.3079 31.1341 28.5297 31.3729 28.7616C31.2185 28.8993 31.0524 29.0484 30.8541 29.2241C30.6358 29.0213 30.4007 28.8008 30.14 28.5588L30.1413 28.5588Z" fill="#FFEB61"/>
<path d="M29.1461 27.5121C28.9033 27.2929 28.694 27.104 28.4666 26.8987C28.652 26.7091 28.8246 26.5309 28.9997 26.3502C29.2244 26.5682 29.4415 26.7772 29.6829 27.0117C29.5117 27.1696 29.3392 27.3301 29.1448 27.5108L29.1461 27.5121Z" fill="#FFEB61"/>
<path d="M26.7035 25.1666C26.8902 24.9758 27.0614 24.8001 27.243 24.613C27.4626 24.8449 27.6642 25.0565 27.8876 25.2922C27.7279 25.4603 27.5747 25.6208 27.3996 25.8053C27.1543 25.581 26.9269 25.3719 26.7035 25.1666Z" fill="#FFEB61"/>
</g>
<defs>
<clipPath id="clip0_784_3361">
<rect width="35.7983" height="35.7983" fill="white" transform="translate(6.07764 41.876) rotate(-89.9258)"/>
</clipPath>
</defs>
</svg>
