<svg width="44" height="41" viewBox="0 0 44 41" fill="none" xmlns="http://www.w3.org/2000/svg">
<path d="M17.198 35.0603C16.9517 34.8005 16.756 34.5002 16.6514 34.1628C16.54 33.8051 16.5231 33.4002 16.5366 33.0223C16.5535 32.4386 16.3848 31.9899 15.9192 31.6052C15.5805 31.325 15.298 30.9689 15.0204 30.619C14.9938 30.5855 14.9672 30.5521 14.9407 30.5188C14.276 29.6854 13.8205 28.7339 13.473 27.7318C13.3684 27.4281 13.2638 27.1717 12.8589 27.1616C10.8884 27.1109 9.41735 25.1304 9.65691 23.1903C9.67288 23.0557 9.6688 22.9195 9.66448 22.7755C9.66241 22.7066 9.66029 22.6359 9.66029 22.5627C9.37012 22.4379 9.09344 22.3198 8.81002 22.2017C8.71876 22.3555 8.64362 22.4852 8.55812 22.6327C8.53299 22.6761 8.50696 22.721 8.47936 22.7685C8.37288 22.6794 8.2706 22.5973 8.17241 22.5185C7.96567 22.3526 7.77704 22.2012 7.60548 22.0296C6.95428 21.3885 6.85306 20.7576 7.23095 19.9275C7.31035 19.7529 7.38768 19.5777 7.46496 19.4026C7.58473 19.1312 7.70439 18.8601 7.83154 18.5914C7.89677 18.454 7.97648 18.323 8.06511 18.1773C8.10484 18.112 8.14637 18.0437 8.18919 17.9706C8.68855 18.3586 9.12718 18.6994 9.58943 19.057C9.69103 18.9136 9.78402 18.7821 9.87398 18.6549C9.98718 18.4948 10.0956 18.3415 10.2103 18.1798C10.0845 18.0704 9.96511 17.9621 9.84854 17.8564C9.60547 17.6359 9.37466 17.4265 9.12381 17.2418C8.54684 16.8133 7.80455 16.7627 7.26469 17.2249C6.82607 17.5961 6.37394 17.5859 5.8982 17.5353C4.88935 17.4274 3.94798 17.0866 3.08422 16.5467C2.19684 15.9968 1.58951 15.2173 1.26222 14.2287C1.15088 13.888 1.05303 13.5404 1.2656 13.1862C1.81557 12.2549 2.53425 11.5092 3.53972 11.0605C4.01209 10.8479 4.46422 10.8378 4.9602 11.0031C6.19511 11.4181 7.30856 12.0457 8.34102 12.8251C8.55868 12.9893 8.77525 13.1535 8.99747 13.322C9.16796 13.4512 9.34177 13.583 9.52195 13.7193L9.5632 13.6503C9.7721 13.3011 9.95715 12.9917 10.163 12.6497C10.022 12.5453 9.88168 12.4417 9.73886 12.3363C9.46151 12.1315 9.1746 11.9196 8.85388 11.6813C9.28576 10.9289 9.70415 10.2001 10.1462 9.43419C10.042 9.35546 9.93697 9.27634 9.83037 9.196C9.62629 9.0422 9.4163 8.88395 9.19466 8.71551C8.89095 9.25449 8.61029 9.7555 8.33549 10.2461C8.17678 10.5294 8.02002 10.8092 7.86191 11.0909C7.75204 11.0275 7.66375 10.9776 7.58003 10.9302C7.51206 10.8918 7.4471 10.855 7.37604 10.8142C7.51586 10.4791 7.65312 10.1461 7.78963 9.81503C8.06819 9.13939 8.34361 8.47136 8.63119 7.80788C8.9821 6.99811 9.38361 6.89351 10.1259 7.376C10.2744 7.47385 10.4127 7.59532 10.5409 7.72016C10.8975 8.07098 11.2519 8.424 11.606 8.7767C11.8717 9.04138 12.1372 9.30589 12.4034 9.56915C12.5279 9.6936 12.6565 9.8124 12.795 9.94017C12.8704 10.0099 12.9488 10.0822 13.031 10.1596C14.5999 8.47258 16.4186 7.30852 18.524 6.59997C18.4985 6.51224 18.4779 6.43648 18.4594 6.36837C18.4287 6.25575 18.4037 6.16402 18.3721 6.07361C18.3322 5.96096 18.2858 5.85158 18.2374 5.73751C18.2162 5.68758 18.1946 5.63676 18.1731 5.58437C16.1587 6.08373 14.5628 7.22754 13.0344 8.50294C12.6261 8.1183 12.2752 7.78764 11.8467 7.38275C12.3672 6.96989 12.8654 6.57589 13.36 6.18473C13.7021 5.91417 14.0425 5.64496 14.3874 5.37181C14.3284 5.28384 14.2703 5.19747 14.2112 5.10947C14.0776 4.91054 13.9383 4.70332 13.7699 4.45068C13.2954 4.80286 12.8344 5.144 12.3795 5.48059C11.893 5.84054 11.4136 6.19528 10.9323 6.55273C10.913 6.5431 10.8921 6.53448 10.8707 6.5257C10.8247 6.5068 10.7768 6.48713 10.74 6.45488C9.57256 5.47978 7.8889 6.0095 7.49413 7.4941C7.31907 8.15466 7.01806 8.78132 6.71509 9.41205C6.58011 9.69305 6.44474 9.97486 6.31995 10.2608C6.17726 10.212 6.04515 10.1681 5.91995 10.1265C5.69878 10.0529 5.4992 9.98656 5.30099 9.9133C4.7004 9.69062 4.09982 9.65013 3.48911 9.86269C2.11924 10.3452 1.09689 11.2494 0.354597 12.481C-0.00980311 13.0849 -0.111025 13.7429 0.165649 14.4076C0.175851 14.4319 0.186053 14.4562 0.196262 14.4806C0.432534 15.0443 0.672658 15.6172 1.00579 16.125C1.21556 16.4502 1.49284 16.7327 1.77551 17.0206C1.89749 17.1449 2.02048 17.2702 2.13948 17.4004C2.13391 17.4862 2.12613 17.5742 2.1182 17.6638C2.10214 17.8456 2.0855 18.0338 2.0855 18.2236C2.08887 18.8242 2.1496 19.4349 2.58486 19.8837C3.17532 20.4944 3.81302 21.0579 4.44735 21.618C4.53773 21.6968 4.66632 21.7342 4.79921 21.7728C4.8598 21.7904 4.92128 21.8083 4.98045 21.8305C5.00293 21.7375 5.02434 21.6491 5.04489 21.5643C5.11378 21.2799 5.17296 21.0356 5.23013 20.7913C5.07328 20.647 4.91865 20.5033 4.76505 20.3606C4.38337 20.0059 4.00804 19.657 3.6207 19.3202C3.19894 18.9524 3.13483 18.5273 3.27992 18.0819C4.03618 18.2471 4.76697 18.4088 5.50963 18.5732C5.81401 18.6405 6.12037 18.7083 6.4313 18.777C6.40116 18.8539 6.3691 18.9362 6.33562 19.0223C6.26038 19.2155 6.17795 19.4272 6.09389 19.6374C5.65864 20.734 5.91169 21.952 6.77545 22.7516C7.04746 23.0045 7.3382 23.2373 7.62913 23.4703C7.80014 23.6072 7.97121 23.7442 8.13858 23.8853C8.16063 23.9035 8.18368 23.9218 8.20702 23.9403C8.32654 24.0352 8.45389 24.1362 8.49623 24.2632C8.64169 24.6686 8.76524 25.0824 8.89308 25.5106C8.94613 25.6883 8.99992 25.8684 9.05633 26.0515C7.97325 26.507 6.86993 26.6453 5.73287 26.4631C5.53717 26.4328 5.32798 26.3349 5.18289 26.2067C4.38999 25.5049 3.6072 24.7963 2.85478 24.054C2.69958 23.9022 2.60173 23.5884 2.63547 23.3792C2.68608 23.0756 2.97962 22.9575 3.29341 22.9608C3.47589 22.9631 3.65991 22.9623 3.834 22.9616C3.91744 22.9612 3.99859 22.9608 4.0762 22.9608V21.8002C3.94796 21.8002 3.82603 21.797 3.7087 21.794C3.46176 21.7876 3.23524 21.7817 3.01337 21.8069C2.31831 21.8845 1.79533 22.232 1.57601 22.9203C1.35332 23.6255 1.4208 24.3071 1.98765 24.8469C2.73332 25.5555 3.49923 26.2472 4.26177 26.9355C4.67341 27.3066 5.15927 27.526 5.70925 27.6103C5.90336 27.6405 6.09472 27.679 6.29654 27.7195C6.41044 27.7424 6.52767 27.766 6.65061 27.7891C6.63037 28.555 7.01839 29.0983 7.58523 29.5538C7.80455 29.7292 8.01374 29.9283 8.19594 30.1442C8.64806 30.6773 9.2284 30.8832 9.90659 30.8832C10.1942 30.8832 10.4818 30.89 10.7692 30.8969C11.3584 30.911 11.9465 30.9251 12.5316 30.8798C13.3751 30.8157 14.0365 30.9878 14.4818 31.7638C14.6067 31.9797 14.8125 32.1619 15.0116 32.3205C15.349 32.5904 15.4401 32.9245 15.4165 33.3395C15.3793 34.0075 15.5177 34.6284 15.8517 35.1851C16.0795 35.1868 16.3064 35.1893 16.5333 35.1918C16.7602 35.1944 16.9871 35.1969 17.2148 35.1986C17.2148 35.1918 17.214 35.1851 17.2131 35.1783C17.2123 35.1716 17.2115 35.1649 17.2115 35.1581C17.2047 35.1277 17.2013 35.094 17.198 35.0603ZM12.1031 29.7798C11.9593 29.7798 11.8142 29.7736 11.6689 29.7674C11.3472 29.7537 11.0245 29.7399 10.713 29.7933C9.51723 29.9987 8.85653 29.2663 8.19642 28.5345C8.11894 28.4486 8.04146 28.3627 7.96313 28.2784C7.88432 28.1928 7.86261 28.0547 7.83784 27.897C7.82549 27.8184 7.81238 27.735 7.79105 27.6508C8.53672 27.418 9.17105 27.2223 9.85261 27.0131C10.5375 27.5631 11.2832 28.0591 12.1908 28.2379C12.2988 28.2581 12.4169 28.3728 12.4709 28.4741C12.5995 28.7269 12.718 28.9856 12.854 29.2828C12.9249 29.4376 13.0006 29.6029 13.085 29.7832C12.6902 29.7798 12.3967 29.7798 12.1031 29.7798Z" fill="#FFEB61"/>
<path d="M17.198 35.0603C16.9517 34.8005 16.756 34.5002 16.6514 34.1628C16.54 33.8051 16.5231 33.4002 16.5366 33.0223C16.5535 32.4386 16.3848 31.9899 15.9192 31.6052C15.5805 31.325 15.298 30.9689 15.0204 30.619C14.9938 30.5855 14.9672 30.5521 14.9407 30.5188C14.276 29.6854 13.8205 28.7339 13.473 27.7318C13.3684 27.4281 13.2638 27.1717 12.8589 27.1616C10.8884 27.1109 9.41735 25.1304 9.65691 23.1903C9.67288 23.0557 9.6688 22.9195 9.66448 22.7755C9.66241 22.7066 9.66029 22.6359 9.66029 22.5627C9.37012 22.4379 9.09344 22.3198 8.81002 22.2017C8.71876 22.3555 8.64362 22.4852 8.55812 22.6327C8.53299 22.6761 8.50696 22.721 8.47936 22.7685C8.37288 22.6794 8.2706 22.5973 8.17241 22.5185C7.96567 22.3526 7.77704 22.2012 7.60548 22.0296C6.95428 21.3885 6.85306 20.7576 7.23095 19.9275C7.31035 19.7529 7.38768 19.5777 7.46496 19.4026C7.58473 19.1312 7.70439 18.8601 7.83154 18.5914C7.89677 18.454 7.97648 18.323 8.06511 18.1773C8.10484 18.112 8.14637 18.0437 8.18919 17.9706C8.68855 18.3586 9.12718 18.6994 9.58943 19.057C9.69103 18.9136 9.78402 18.7821 9.87398 18.6549C9.98718 18.4948 10.0956 18.3415 10.2103 18.1798C10.0845 18.0704 9.96511 17.9621 9.84854 17.8564C9.60547 17.6359 9.37466 17.4265 9.12381 17.2418C8.54684 16.8133 7.80455 16.7627 7.26469 17.2249C6.82607 17.5961 6.37394 17.5859 5.8982 17.5353C4.88935 17.4274 3.94798 17.0866 3.08422 16.5467C2.19684 15.9968 1.58951 15.2173 1.26222 14.2287C1.15088 13.888 1.05303 13.5404 1.2656 13.1862C1.81557 12.2549 2.53425 11.5092 3.53972 11.0605C4.01209 10.8479 4.46422 10.8378 4.9602 11.0031C6.19511 11.4181 7.30856 12.0457 8.34102 12.8251C8.55868 12.9893 8.77525 13.1535 8.99747 13.322C9.16796 13.4512 9.34177 13.583 9.52195 13.7193L9.5632 13.6503C9.7721 13.3011 9.95715 12.9917 10.163 12.6497C10.022 12.5453 9.88168 12.4417 9.73886 12.3363C9.46151 12.1315 9.1746 11.9196 8.85388 11.6813C9.28576 10.9289 9.70415 10.2001 10.1462 9.43419C10.042 9.35546 9.93697 9.27634 9.83037 9.196C9.62629 9.0422 9.4163 8.88395 9.19466 8.71551C8.89095 9.25449 8.61029 9.7555 8.33549 10.2461C8.17678 10.5294 8.02002 10.8092 7.86191 11.0909C7.75204 11.0275 7.66375 10.9776 7.58003 10.9302C7.51206 10.8918 7.4471 10.855 7.37604 10.8142C7.51586 10.4791 7.65312 10.1461 7.78963 9.81503C8.06819 9.13939 8.34361 8.47136 8.63119 7.80788C8.9821 6.99811 9.38361 6.89351 10.1259 7.376C10.2744 7.47385 10.4127 7.59532 10.5409 7.72016C10.8975 8.07098 11.2519 8.424 11.606 8.7767C11.8717 9.04138 12.1372 9.30589 12.4034 9.56915C12.5279 9.6936 12.6565 9.8124 12.795 9.94017C12.8704 10.0099 12.9488 10.0822 13.031 10.1596C14.5999 8.47258 16.4186 7.30852 18.524 6.59997C18.4985 6.51224 18.4779 6.43648 18.4594 6.36837C18.4287 6.25575 18.4037 6.16402 18.3721 6.07361C18.3322 5.96096 18.2858 5.85158 18.2374 5.73751C18.2162 5.68758 18.1946 5.63676 18.1731 5.58437C16.1587 6.08373 14.5628 7.22754 13.0344 8.50294C12.6261 8.1183 12.2752 7.78764 11.8467 7.38275C12.3672 6.96989 12.8654 6.57589 13.36 6.18473C13.7021 5.91417 14.0425 5.64496 14.3874 5.37181C14.3284 5.28384 14.2703 5.19747 14.2112 5.10947C14.0776 4.91054 13.9383 4.70332 13.7699 4.45068C13.2954 4.80286 12.8344 5.144 12.3795 5.48059C11.893 5.84054 11.4136 6.19528 10.9323 6.55273C10.913 6.5431 10.8921 6.53448 10.8707 6.5257C10.8247 6.5068 10.7768 6.48713 10.74 6.45488C9.57256 5.47978 7.8889 6.0095 7.49413 7.4941C7.31907 8.15466 7.01806 8.78132 6.71509 9.41205C6.58011 9.69305 6.44474 9.97486 6.31995 10.2608C6.17726 10.212 6.04515 10.1681 5.91995 10.1265C5.69878 10.0529 5.4992 9.98656 5.30099 9.9133C4.7004 9.69062 4.09982 9.65013 3.48911 9.86269C2.11924 10.3452 1.09689 11.2494 0.354597 12.481C-0.00980311 13.0849 -0.111025 13.7429 0.165649 14.4076C0.175851 14.4319 0.186053 14.4562 0.196262 14.4806C0.432534 15.0443 0.672658 15.6172 1.00579 16.125C1.21556 16.4502 1.49284 16.7327 1.77551 17.0206C1.89749 17.1449 2.02048 17.2702 2.13948 17.4004C2.13391 17.4862 2.12613 17.5742 2.1182 17.6638C2.10214 17.8456 2.0855 18.0338 2.0855 18.2236C2.08887 18.8242 2.1496 19.4349 2.58486 19.8837C3.17532 20.4944 3.81302 21.0579 4.44735 21.618C4.53773 21.6968 4.66632 21.7342 4.79921 21.7728C4.8598 21.7904 4.92128 21.8083 4.98045 21.8305C5.00293 21.7375 5.02434 21.6491 5.04489 21.5643C5.11378 21.2799 5.17296 21.0356 5.23013 20.7913C5.07328 20.647 4.91865 20.5033 4.76505 20.3606C4.38337 20.0059 4.00804 19.657 3.6207 19.3202C3.19894 18.9524 3.13483 18.5273 3.27992 18.0819C4.03618 18.2471 4.76697 18.4088 5.50963 18.5732C5.81401 18.6405 6.12037 18.7083 6.4313 18.777C6.40116 18.8539 6.3691 18.9362 6.33562 19.0223C6.26038 19.2155 6.17795 19.4272 6.09389 19.6374C5.65864 20.734 5.91169 21.952 6.77545 22.7516C7.04746 23.0045 7.3382 23.2373 7.62913 23.4703C7.80014 23.6072 7.97121 23.7442 8.13858 23.8853C8.16063 23.9035 8.18368 23.9218 8.20702 23.9403C8.32654 24.0352 8.45389 24.1362 8.49623 24.2632C8.64169 24.6686 8.76524 25.0824 8.89308 25.5106C8.94613 25.6883 8.99992 25.8684 9.05633 26.0515C7.97325 26.507 6.86993 26.6453 5.73287 26.4631C5.53717 26.4328 5.32798 26.3349 5.18289 26.2067C4.38999 25.5049 3.6072 24.7963 2.85478 24.054C2.69958 23.9022 2.60173 23.5884 2.63547 23.3792C2.68608 23.0756 2.97962 22.9575 3.29341 22.9608C3.47589 22.9631 3.65991 22.9623 3.834 22.9616C3.91744 22.9612 3.99859 22.9608 4.0762 22.9608V21.8002C3.94796 21.8002 3.82603 21.797 3.7087 21.794C3.46176 21.7876 3.23524 21.7817 3.01337 21.8069C2.31831 21.8845 1.79533 22.232 1.57601 22.9203C1.35332 23.6255 1.4208 24.3071 1.98765 24.8469C2.73332 25.5555 3.49923 26.2472 4.26177 26.9355C4.67341 27.3066 5.15927 27.526 5.70925 27.6103C5.90336 27.6405 6.09472 27.679 6.29654 27.7195C6.41044 27.7424 6.52767 27.766 6.65061 27.7891C6.63037 28.555 7.01839 29.0983 7.58523 29.5538C7.80455 29.7292 8.01374 29.9283 8.19594 30.1442C8.64806 30.6773 9.2284 30.8832 9.90659 30.8832C10.1942 30.8832 10.4818 30.89 10.7692 30.8969C11.3584 30.911 11.9465 30.9251 12.5316 30.8798C13.3751 30.8157 14.0365 30.9878 14.4818 31.7638C14.6067 31.9797 14.8125 32.1619 15.0116 32.3205C15.349 32.5904 15.4401 32.9245 15.4165 33.3395C15.3793 34.0075 15.5177 34.6284 15.8517 35.1851C16.0795 35.1868 16.3064 35.1893 16.5333 35.1918C16.7602 35.1944 16.9871 35.1969 17.2148 35.1986C17.2148 35.1918 17.214 35.1851 17.2131 35.1783C17.2123 35.1716 17.2115 35.1649 17.2115 35.1581C17.2047 35.1277 17.2013 35.094 17.198 35.0603ZM12.1031 29.7798C11.9593 29.7798 11.8142 29.7736 11.6689 29.7674C11.3472 29.7537 11.0245 29.7399 10.713 29.7933C9.51723 29.9987 8.85653 29.2663 8.19642 28.5345C8.11894 28.4486 8.04146 28.3627 7.96313 28.2784C7.88432 28.1928 7.86261 28.0547 7.83784 27.897C7.82549 27.8184 7.81238 27.735 7.79105 27.6508C8.53672 27.418 9.17105 27.2223 9.85261 27.0131C10.5375 27.5631 11.2832 28.0591 12.1908 28.2379C12.2988 28.2581 12.4169 28.3728 12.4709 28.4741C12.5995 28.7269 12.718 28.9856 12.854 29.2828C12.9249 29.4376 13.0006 29.6029 13.085 29.7832C12.6902 29.7798 12.3967 29.7798 12.1031 29.7798Z" stroke="#FFEB61"/>
<path d="M43.7925 12.7573C43.0637 11.3031 41.9165 10.3415 40.3779 9.82527C39.8043 9.63295 39.2611 9.73079 38.7179 9.91637C38.3872 10.0311 38.0566 10.1458 37.6922 10.274C37.2406 9.20564 36.8091 8.19113 36.3777 7.17668L36.3763 7.17325C35.8837 6.01931 34.7297 5.62792 33.6467 6.24875C33.5303 6.31499 33.4162 6.38481 33.3103 6.44968C33.2381 6.49386 33.1697 6.53575 33.1068 6.57266C32.1655 5.86073 31.2679 5.18254 30.3165 4.46387C30.0533 4.84514 29.8576 5.12856 29.645 5.4356C29.8856 5.61787 30.1289 5.78973 30.37 5.96003C31.0083 6.41078 31.6309 6.85055 32.1452 7.44317C31.7572 7.80757 31.4063 8.13823 31.0183 8.506C29.4459 7.19686 27.8298 6.05305 25.7817 5.57394C25.7326 5.78243 25.69 5.96635 25.6489 6.1432C25.6109 6.30692 25.5743 6.46457 25.5354 6.63002C27.7184 7.29471 29.4628 8.57349 31.1262 10.2571C31.1943 10.1646 31.2542 10.0775 31.3104 9.99588C31.4242 9.83057 31.5228 9.68743 31.6425 9.56546C32.2903 8.90415 32.9415 8.24283 33.6264 7.61862C33.8626 7.40268 34.1798 7.2441 34.4868 7.14288C34.7972 7.03828 35.1009 7.11926 35.2527 7.47354C35.5017 8.06529 35.7497 8.658 35.9998 9.25581C36.2175 9.77602 36.4368 10.3001 36.6597 10.8307C36.5847 10.8655 36.5188 10.8956 36.4558 10.9245C36.3656 10.9658 36.2812 11.0044 36.184 11.0501C35.8706 10.5132 35.5683 9.99216 35.2577 9.45673C35.1134 9.20803 34.9673 8.95623 34.8175 8.69833C34.4902 8.95138 34.1899 9.18419 33.8862 9.42038C34.3249 10.1728 34.7466 10.8982 35.1852 11.6574C34.7795 11.9688 34.4174 12.2439 34.0598 12.5156C33.9951 12.5647 33.9306 12.6137 33.866 12.6629C34.0075 12.9063 34.1348 13.1241 34.2615 13.3407C34.3403 13.4754 34.4188 13.6096 34.5003 13.7493C34.5939 13.6751 34.677 13.6086 34.7542 13.5469C34.8525 13.4684 34.9413 13.3974 35.03 13.3276C36.2616 12.3423 37.5673 11.4887 39.0823 10.9893C39.5513 10.8341 39.9832 10.8476 40.4285 11.0467C41.2215 11.4043 41.8524 11.9408 42.3956 12.619C42.9186 13.2702 42.9254 13.9079 42.5846 14.6299C41.7748 16.3541 39.3657 17.7341 37.4324 17.535C37.2468 17.5148 37.0579 17.4034 36.9026 17.2887C36.2245 16.8028 35.58 16.7759 34.9119 17.2685C34.6681 17.4497 34.4406 17.6531 34.2058 17.8631C34.0864 17.9698 33.9652 18.0782 33.839 18.1862C33.9613 18.3582 34.0739 18.5184 34.1872 18.6794C34.2738 18.8027 34.3609 18.9265 34.4531 19.0567C34.7073 18.8596 34.9465 18.6748 35.1919 18.4852C35.4253 18.3049 35.6644 18.1202 35.9275 17.9163C36.2987 18.807 36.6293 19.6033 36.9566 20.403C36.9742 20.4468 36.9732 20.4978 36.9722 20.5494C36.9717 20.5772 36.9711 20.6052 36.9735 20.6324C37.0579 21.6075 36.4303 22.1305 35.7251 22.5995C35.6848 22.6256 35.6311 22.6317 35.5782 22.6377C35.5558 22.6402 35.5336 22.6427 35.5125 22.6467C35.4736 22.5857 35.4362 22.5273 35.3981 22.4678C35.3372 22.3727 35.2748 22.2751 35.2021 22.1609C35.0453 22.2376 34.896 22.3118 34.7516 22.3836C34.6039 22.457 34.4614 22.5279 34.3215 22.5961C34.3215 22.7561 34.3236 22.9098 34.3257 23.0589C34.3305 23.4067 34.335 23.7302 34.3114 24.0537C34.2911 24.3574 34.2338 24.6746 34.1123 24.9479C33.5623 26.1861 32.6479 26.9892 31.2646 27.141C30.9069 27.1815 30.6944 27.3063 30.5898 27.6471C30.5527 27.7665 30.5019 27.8821 30.451 27.9977C30.4185 28.0717 30.3859 28.1457 30.3569 28.2207C29.8306 29.5568 29.0917 30.7513 27.9985 31.696C27.6341 32.0098 27.462 32.3674 27.4755 32.8364C27.4822 33.0692 27.4856 33.3021 27.4789 33.5315C27.4586 34.1658 27.1178 34.7799 26.6353 35.232L26.5949 35.4243C26.6219 35.426 26.6497 35.4269 26.6775 35.4277C26.7054 35.4286 26.7332 35.4294 26.7602 35.4311C27.0654 35.4438 27.3687 35.4623 27.6715 35.4807C27.7704 35.4867 27.8692 35.4928 27.9681 35.4986L28.0086 35.4176C28.0586 35.3049 28.1142 35.1906 28.1703 35.0752C28.3679 34.669 28.5717 34.25 28.5586 33.8453C28.5316 32.9512 28.8454 32.3269 29.5033 31.7972C29.6751 31.6604 29.8117 31.4809 29.9478 31.302C29.9694 31.2735 29.991 31.2451 30.0128 31.2169C30.2017 30.9706 30.4346 30.8795 30.745 30.8862C31.0586 30.8926 31.3732 30.8873 31.6878 30.882C32.1991 30.8733 32.7106 30.8647 33.2182 30.9065C34.5239 31.0111 35.5496 30.6062 36.4235 29.6041C36.4456 29.5786 36.4677 29.5532 36.4896 29.5279C36.9483 29.0005 37.3785 28.5056 37.3818 27.7618C37.5003 27.7413 37.6158 27.7257 37.7282 27.7104C37.9676 27.678 38.1929 27.6474 38.4041 27.5763C38.452 27.56 38.5004 27.544 38.549 27.5278C38.9158 27.406 39.2987 27.2789 39.5817 27.0465C40.4353 26.3413 41.2586 25.5957 42.0346 24.8095C42.5913 24.246 42.6386 23.5307 42.3417 22.7952C42.0549 22.0799 41.4813 21.8066 40.766 21.7627C40.5783 21.7511 40.3891 21.7539 40.1917 21.7567C40.1016 21.758 40.0098 21.7594 39.9157 21.7594V22.9167C39.9871 22.9206 40.0549 22.9251 40.12 22.9294C40.2794 22.9399 40.4232 22.9494 40.5669 22.947C40.8942 22.9437 41.1945 23.001 41.353 23.3216C41.5285 23.6758 41.2991 23.9053 41.0696 24.1212C40.3375 24.8095 39.6053 25.4945 38.863 26.1693C38.7381 26.284 38.5559 26.3616 38.3872 26.4021C37.1962 26.6855 36.0591 26.4864 34.9558 26.0309C35.0084 25.8585 35.0579 25.6905 35.1064 25.5262C35.2257 25.1214 35.3386 24.7385 35.4754 24.3641C35.5361 24.1921 35.6981 24.0402 35.8432 23.9154C36.0343 23.7514 36.2321 23.5947 36.43 23.438C36.6759 23.2433 36.922 23.0484 37.1557 22.8391C38.1342 21.9618 38.394 20.7404 37.8912 19.5426C37.8176 19.3691 37.7523 19.1906 37.6895 19.0189C37.6631 18.9468 37.6371 18.8759 37.6112 18.807C38.1099 18.6892 38.5906 18.5749 39.0634 18.4625C39.6332 18.3269 40.1915 18.1942 40.7558 18.0614C40.9009 18.581 40.7795 19.0264 40.3341 19.411C39.9624 19.7278 39.6076 20.0649 39.2566 20.3983C39.1104 20.5372 38.9649 20.6754 38.8191 20.8112C38.8612 21.0237 38.9021 21.2242 38.9461 21.4397C38.9761 21.587 39.0076 21.7413 39.0418 21.9112C39.1273 21.8638 39.2109 21.8211 39.2917 21.7799C39.4755 21.6861 39.6445 21.5999 39.7875 21.4827C39.9834 21.3217 40.1675 21.1472 40.3517 20.9727C40.5226 20.8106 40.6936 20.6485 40.8739 20.4975C41.7647 19.7484 42.0886 18.8037 41.8895 17.6666C41.8757 17.5835 41.8792 17.4973 41.8828 17.4089C41.8845 17.3681 41.8861 17.3269 41.8861 17.2853C42.9355 16.4789 43.6272 15.4633 43.9241 14.1744C44.0388 13.6751 44.0186 13.2095 43.7925 12.7573ZM36.103 27.6167C36.2413 27.9913 36.1367 28.2511 35.8702 28.5244L35.8428 28.5526C34.6589 29.7763 34.6525 29.7829 32.9314 29.7795H30.9542C31.0259 29.6249 31.0928 29.4779 31.1571 29.3365C31.3076 29.0058 31.444 28.7061 31.5952 28.413C31.6425 28.3186 31.7842 28.2443 31.8989 28.2173C32.7424 28.0149 33.4678 27.5965 34.1595 27.0229C34.3992 27.0961 34.6323 27.1677 34.861 27.2379C35.2857 27.3682 35.695 27.4939 36.103 27.6167Z" fill="#FFEB61"/>
<path d="M43.7925 12.7573C43.0637 11.3031 41.9165 10.3415 40.3779 9.82527C39.8043 9.63295 39.2611 9.73079 38.7179 9.91637C38.3872 10.0311 38.0566 10.1458 37.6922 10.274C37.2406 9.20564 36.8091 8.19113 36.3777 7.17668L36.3763 7.17325C35.8837 6.01931 34.7297 5.62792 33.6467 6.24875C33.5303 6.31499 33.4162 6.38481 33.3103 6.44968C33.2381 6.49386 33.1697 6.53575 33.1068 6.57266C32.1655 5.86073 31.2679 5.18254 30.3165 4.46387C30.0533 4.84514 29.8576 5.12856 29.645 5.4356C29.8856 5.61787 30.1289 5.78973 30.37 5.96003C31.0083 6.41078 31.6309 6.85055 32.1452 7.44317C31.7572 7.80757 31.4063 8.13823 31.0183 8.506C29.4459 7.19686 27.8298 6.05305 25.7817 5.57394C25.7326 5.78243 25.69 5.96635 25.6489 6.1432C25.6109 6.30692 25.5743 6.46457 25.5354 6.63002C27.7184 7.29471 29.4628 8.57349 31.1262 10.2571C31.1943 10.1646 31.2542 10.0775 31.3104 9.99588C31.4242 9.83057 31.5228 9.68743 31.6425 9.56546C32.2903 8.90415 32.9415 8.24283 33.6264 7.61862C33.8626 7.40268 34.1798 7.2441 34.4868 7.14288C34.7972 7.03828 35.1009 7.11926 35.2527 7.47354C35.5017 8.06529 35.7497 8.658 35.9998 9.25581C36.2175 9.77602 36.4368 10.3001 36.6597 10.8307C36.5847 10.8655 36.5188 10.8956 36.4558 10.9245C36.3656 10.9658 36.2812 11.0044 36.184 11.0501C35.8706 10.5132 35.5683 9.99216 35.2577 9.45673C35.1134 9.20803 34.9673 8.95623 34.8175 8.69833C34.4902 8.95138 34.1899 9.18419 33.8862 9.42038C34.3249 10.1728 34.7466 10.8982 35.1852 11.6574C34.7795 11.9688 34.4174 12.2439 34.0598 12.5156C33.9951 12.5647 33.9306 12.6137 33.866 12.6629C34.0075 12.9063 34.1348 13.1241 34.2615 13.3407C34.3403 13.4754 34.4188 13.6096 34.5003 13.7493C34.5939 13.6751 34.677 13.6086 34.7542 13.5469C34.8525 13.4684 34.9413 13.3974 35.03 13.3276C36.2616 12.3423 37.5673 11.4887 39.0823 10.9893C39.5513 10.8341 39.9832 10.8476 40.4285 11.0467C41.2215 11.4043 41.8524 11.9408 42.3956 12.619C42.9186 13.2702 42.9254 13.9079 42.5846 14.6299C41.7748 16.3541 39.3657 17.7341 37.4324 17.535C37.2468 17.5148 37.0579 17.4034 36.9026 17.2887C36.2245 16.8028 35.58 16.7759 34.9119 17.2685C34.6681 17.4497 34.4406 17.6531 34.2058 17.8631C34.0864 17.9698 33.9652 18.0782 33.839 18.1862C33.9613 18.3582 34.0739 18.5184 34.1872 18.6794C34.2738 18.8027 34.3609 18.9265 34.4531 19.0567C34.7073 18.8596 34.9465 18.6748 35.1919 18.4852C35.4253 18.3049 35.6644 18.1202 35.9275 17.9163C36.2987 18.807 36.6293 19.6033 36.9566 20.403C36.9742 20.4468 36.9732 20.4978 36.9722 20.5494C36.9717 20.5772 36.9711 20.6052 36.9735 20.6324C37.0579 21.6075 36.4303 22.1305 35.7251 22.5995C35.6848 22.6256 35.6311 22.6317 35.5782 22.6377C35.5558 22.6402 35.5336 22.6427 35.5125 22.6467C35.4736 22.5857 35.4362 22.5273 35.3981 22.4678C35.3372 22.3727 35.2748 22.2751 35.2021 22.1609C35.0453 22.2376 34.896 22.3118 34.7516 22.3836C34.6039 22.457 34.4614 22.5279 34.3215 22.5961C34.3215 22.7561 34.3236 22.9098 34.3257 23.0589C34.3305 23.4067 34.335 23.7302 34.3114 24.0537C34.2911 24.3574 34.2338 24.6746 34.1123 24.9479C33.5623 26.1861 32.6479 26.9892 31.2646 27.141C30.9069 27.1815 30.6944 27.3063 30.5898 27.6471C30.5527 27.7665 30.5019 27.8821 30.451 27.9977C30.4185 28.0717 30.3859 28.1457 30.3569 28.2207C29.8306 29.5568 29.0917 30.7513 27.9985 31.696C27.6341 32.0098 27.462 32.3674 27.4755 32.8364C27.4822 33.0692 27.4856 33.3021 27.4789 33.5315C27.4586 34.1658 27.1178 34.7799 26.6353 35.232L26.5949 35.4243C26.6219 35.426 26.6497 35.4269 26.6775 35.4277C26.7054 35.4286 26.7332 35.4294 26.7602 35.4311C27.0654 35.4438 27.3687 35.4623 27.6715 35.4807C27.7704 35.4867 27.8692 35.4928 27.9681 35.4986L28.0086 35.4176C28.0586 35.3049 28.1142 35.1906 28.1703 35.0752C28.3679 34.669 28.5717 34.25 28.5586 33.8453C28.5316 32.9512 28.8454 32.3269 29.5033 31.7972C29.6751 31.6604 29.8117 31.4809 29.9478 31.302C29.9694 31.2735 29.991 31.2451 30.0128 31.2169C30.2017 30.9706 30.4346 30.8795 30.745 30.8862C31.0586 30.8926 31.3732 30.8873 31.6878 30.882C32.1991 30.8733 32.7106 30.8647 33.2182 30.9065C34.5239 31.0111 35.5496 30.6062 36.4235 29.6041C36.4456 29.5786 36.4677 29.5532 36.4896 29.5279C36.9483 29.0005 37.3785 28.5056 37.3818 27.7618C37.5003 27.7413 37.6158 27.7257 37.7282 27.7104C37.9676 27.678 38.1929 27.6474 38.4041 27.5763C38.452 27.56 38.5004 27.544 38.549 27.5278C38.9158 27.406 39.2987 27.2789 39.5817 27.0465C40.4353 26.3413 41.2586 25.5957 42.0346 24.8095C42.5913 24.246 42.6386 23.5307 42.3417 22.7952C42.0549 22.0799 41.4813 21.8066 40.766 21.7627C40.5783 21.7511 40.3891 21.7539 40.1917 21.7567C40.1016 21.758 40.0098 21.7594 39.9157 21.7594V22.9167C39.9871 22.9206 40.0549 22.9251 40.12 22.9294C40.2794 22.9399 40.4232 22.9494 40.5669 22.947C40.8942 22.9437 41.1945 23.001 41.353 23.3216C41.5285 23.6758 41.2991 23.9053 41.0696 24.1212C40.3375 24.8095 39.6053 25.4945 38.863 26.1693C38.7381 26.284 38.5559 26.3616 38.3872 26.4021C37.1962 26.6855 36.0591 26.4864 34.9558 26.0309C35.0084 25.8585 35.0579 25.6905 35.1064 25.5262C35.2257 25.1214 35.3386 24.7385 35.4754 24.3641C35.5361 24.1921 35.6981 24.0402 35.8432 23.9154C36.0343 23.7514 36.2321 23.5947 36.43 23.438C36.6759 23.2433 36.922 23.0484 37.1557 22.8391C38.1342 21.9618 38.394 20.7404 37.8912 19.5426C37.8176 19.3691 37.7523 19.1906 37.6895 19.0189C37.6631 18.9468 37.6371 18.8759 37.6112 18.807C38.1099 18.6892 38.5906 18.5749 39.0634 18.4625C39.6332 18.3269 40.1915 18.1942 40.7558 18.0614C40.9009 18.581 40.7795 19.0264 40.3341 19.411C39.9624 19.7278 39.6076 20.0649 39.2566 20.3983C39.1104 20.5372 38.9649 20.6754 38.8191 20.8112C38.8612 21.0237 38.9021 21.2242 38.9461 21.4397C38.9761 21.587 39.0076 21.7413 39.0418 21.9112C39.1273 21.8638 39.2109 21.8211 39.2917 21.7799C39.4755 21.6861 39.6445 21.5999 39.7875 21.4827C39.9834 21.3217 40.1675 21.1472 40.3517 20.9727C40.5226 20.8106 40.6936 20.6485 40.8739 20.4975C41.7647 19.7484 42.0886 18.8037 41.8895 17.6666C41.8757 17.5835 41.8792 17.4973 41.8828 17.4089C41.8845 17.3681 41.8861 17.3269 41.8861 17.2853C42.9355 16.4789 43.6272 15.4633 43.9241 14.1744C44.0388 13.6751 44.0186 13.2095 43.7925 12.7573ZM36.103 27.6167C36.2413 27.9913 36.1367 28.2511 35.8702 28.5244L35.8428 28.5526C34.6589 29.7763 34.6525 29.7829 32.9314 29.7795H30.9542C31.0259 29.6249 31.0928 29.4779 31.1571 29.3365C31.3076 29.0058 31.444 28.7061 31.5952 28.413C31.6425 28.3186 31.7842 28.2443 31.8989 28.2173C32.7424 28.0149 33.4678 27.5965 34.1595 27.0229C34.3992 27.0961 34.6323 27.1677 34.861 27.2379C35.2857 27.3682 35.695 27.4939 36.103 27.6167Z" stroke="#FFEB61"/>
<path d="M16.7628 16.5399C18.6624 17.3901 19.1347 18.5711 18.8749 20.2041H17.8121C17.8081 20.1231 17.8032 20.0439 17.7984 19.9659C17.787 19.7808 17.776 19.6028 17.7784 19.4247C17.7918 18.4429 17.0293 17.7174 16.0171 17.6432C15.8458 17.6306 15.6716 17.6312 15.4976 17.6317C15.2056 17.6327 14.9141 17.6337 14.6371 17.5723C14.3321 17.5048 14.0432 17.3666 13.7548 17.2287C13.6252 17.1667 13.4958 17.1048 13.3651 17.0494C13.1525 18.1561 13.8273 18.9523 15.3659 19.391V20.3256C14.8767 20.5179 14.4245 20.3425 13.9893 20.1333C12.6666 19.5023 11.7995 17.8659 12.0559 16.4184C12.0874 16.2363 12.1952 16.0677 12.3136 15.8827C12.3729 15.79 12.4349 15.6931 12.4912 15.5884C12.2179 14.7786 12.1065 13.871 12.2111 12.8723C13.3752 12.6934 14.4583 12.8082 15.3963 13.5876C16.3241 14.3569 16.6953 15.4062 16.7628 16.5399ZM15.511 16.5534C15.5144 15.0249 14.4853 13.8879 13.3887 14.1443C13.3853 15.4905 14.1883 16.4218 15.511 16.5534Z" fill="#FFEB61"/>
<path d="M16.7628 16.5399C18.6624 17.3901 19.1347 18.5711 18.8749 20.2041H17.8121C17.8081 20.1231 17.8032 20.0439 17.7984 19.9659C17.787 19.7808 17.776 19.6028 17.7784 19.4247C17.7918 18.4429 17.0293 17.7174 16.0171 17.6432C15.8458 17.6306 15.6716 17.6312 15.4976 17.6317C15.2056 17.6327 14.9141 17.6337 14.6371 17.5723C14.3321 17.5048 14.0432 17.3666 13.7548 17.2287C13.6252 17.1667 13.4958 17.1048 13.3651 17.0494C13.1525 18.1561 13.8273 18.9523 15.3659 19.391V20.3256C14.8767 20.5179 14.4245 20.3425 13.9893 20.1333C12.6666 19.5023 11.7995 17.8659 12.0559 16.4184C12.0874 16.2363 12.1952 16.0677 12.3136 15.8827C12.3729 15.79 12.4349 15.6931 12.4912 15.5884C12.2179 14.7786 12.1065 13.871 12.2111 12.8723C13.3752 12.6934 14.4583 12.8082 15.3963 13.5876C16.3241 14.3569 16.6953 15.4062 16.7628 16.5399ZM15.511 16.5534C15.5144 15.0249 14.4853 13.8879 13.3887 14.1443C13.3853 15.4905 14.1883 16.4218 15.511 16.5534Z" stroke="#FFEB61"/>
<path d="M30.772 15.7469C31.1903 15.9156 31.2308 16.2564 31.2477 16.6242C31.3118 18.1796 30.7315 19.3909 29.3312 20.1163C29.0698 20.2515 28.7724 20.316 28.4488 20.3861C28.2879 20.421 28.1205 20.4573 27.9479 20.5044V19.4247C29.5303 18.9118 30.0128 18.3618 30.0263 16.992C29.9431 17.0371 29.864 17.0845 29.7869 17.1306C29.6108 17.2361 29.4455 17.3351 29.2671 17.3867C29.201 17.406 29.1346 17.4259 29.0678 17.4459C28.6437 17.5729 28.2077 17.7034 27.7792 17.7005C26.1495 17.6803 25.5219 18.2269 25.4713 19.843C25.4691 19.9093 25.4625 19.9756 25.4545 20.0571C25.4502 20.1 25.4456 20.1471 25.4409 20.2007H24.4759C24.0576 18.4226 24.8133 17.2551 26.5544 16.5803C26.6657 15.2847 27.0875 14.097 28.2751 13.348C29.1389 12.8014 30.087 12.7035 31.1127 12.8925C31.2241 13.8507 31.133 14.7549 30.772 15.7469ZM27.7893 16.4993C29.0782 16.5736 30.0769 15.3555 29.8812 14.0093C28.6125 14.1206 27.85 15.0046 27.7893 16.4993Z" fill="#FFEB61"/>
<path d="M30.772 15.7469C31.1903 15.9156 31.2308 16.2564 31.2477 16.6242C31.3118 18.1796 30.7315 19.3909 29.3312 20.1163C29.0698 20.2515 28.7724 20.316 28.4488 20.3861C28.2879 20.421 28.1205 20.4573 27.9479 20.5044V19.4247C29.5303 18.9118 30.0128 18.3618 30.0263 16.992C29.9431 17.0371 29.864 17.0845 29.7869 17.1306C29.6108 17.2361 29.4455 17.3351 29.2671 17.3867C29.201 17.406 29.1346 17.4259 29.0678 17.4459C28.6437 17.5729 28.2077 17.7034 27.7792 17.7005C26.1495 17.6803 25.5219 18.2269 25.4713 19.843C25.4691 19.9093 25.4625 19.9756 25.4545 20.0571C25.4502 20.1 25.4456 20.1471 25.4409 20.2007H24.4759C24.0576 18.4226 24.8133 17.2551 26.5544 16.5803C26.6657 15.2847 27.0875 14.097 28.2751 13.348C29.1389 12.8014 30.087 12.7035 31.1127 12.8925C31.2241 13.8507 31.133 14.7549 30.772 15.7469ZM27.7893 16.4993C29.0782 16.5736 30.0769 15.3555 29.8812 14.0093C28.6125 14.1206 27.85 15.0046 27.7893 16.4993Z" stroke="#FFEB61"/>
<path d="M25.6063 31.4329C25.6063 31.5046 25.6076 31.5761 25.6089 31.6474C25.6117 31.8074 25.6146 31.9669 25.6029 32.1279C25.5827 32.4282 25.4005 32.5935 25.1069 32.6104C24.8066 32.6273 24.6042 32.4755 24.557 32.1853C24.5305 32.0198 24.5285 31.8515 24.5266 31.6831C24.5255 31.5939 24.5245 31.5048 24.5198 31.416C24.5175 31.3746 24.5162 31.3327 24.515 31.2907C24.5108 31.1512 24.5066 31.0108 24.4625 30.8863C24.4287 30.7952 24.2668 30.6939 24.1689 30.6973C24.0812 30.7041 23.9496 30.8323 23.926 30.9335C23.8951 31.0522 23.896 31.181 23.8969 31.3092C23.8973 31.3632 23.8976 31.417 23.8956 31.47C23.8619 32.6509 22.9138 33.5383 21.6789 33.5484C20.4406 33.5585 19.4722 32.6813 19.425 31.5037C19.4227 31.4518 19.4258 31.3985 19.4288 31.3453C19.4348 31.2395 19.4407 31.1347 19.4047 31.0448C19.3673 30.9489 19.2892 30.8675 19.2111 30.7861C19.1766 30.7502 19.1422 30.7143 19.1112 30.6771C19.0782 30.7165 19.0381 30.7549 18.998 30.7933C18.911 30.8767 18.8237 30.9603 18.8075 31.055C18.7742 31.2525 18.7775 31.4559 18.7807 31.6594C18.7823 31.7652 18.784 31.871 18.7805 31.9761C18.767 32.3135 18.6658 32.5935 18.2643 32.6138C17.9168 32.6307 17.7008 32.4012 17.684 31.9558C17.6705 31.5712 17.6705 31.1832 17.7042 30.7985C17.7683 30.1102 18.2744 29.6041 18.9358 29.513C19.6477 29.4152 20.2786 29.7796 20.4946 30.4746C20.5713 30.7196 20.5881 30.9845 20.6049 31.2494C20.611 31.3458 20.6172 31.4421 20.6262 31.5375C20.6768 32.0739 21.0243 32.4147 21.5743 32.4552C22.0838 32.4923 22.5797 32.1684 22.6843 31.6994C22.7282 31.5003 22.7282 31.2912 22.7282 31.0853C22.7282 30.0596 23.4165 29.4523 24.2229 29.4894C25.1204 29.5299 25.6974 30.3532 25.6097 31.1191C25.6029 31.1867 25.6052 31.2558 25.6074 31.3244C25.6085 31.3585 25.6097 31.3925 25.6097 31.4261C25.6097 31.4329 25.6097 31.4329 25.6063 31.4329Z" fill="#FFEB61"/>
<path d="M25.6063 31.4329C25.6063 31.5046 25.6076 31.5761 25.6089 31.6474C25.6117 31.8074 25.6146 31.9669 25.6029 32.1279C25.5827 32.4282 25.4005 32.5935 25.1069 32.6104C24.8066 32.6273 24.6042 32.4755 24.557 32.1853C24.5305 32.0198 24.5285 31.8515 24.5266 31.6831C24.5255 31.5939 24.5245 31.5048 24.5198 31.416C24.5175 31.3746 24.5162 31.3327 24.515 31.2907C24.5108 31.1512 24.5066 31.0108 24.4625 30.8863C24.4287 30.7952 24.2668 30.6939 24.1689 30.6973C24.0812 30.7041 23.9496 30.8323 23.926 30.9335C23.8951 31.0522 23.896 31.181 23.8969 31.3092C23.8973 31.3632 23.8976 31.417 23.8956 31.47C23.8619 32.6509 22.9138 33.5383 21.6789 33.5484C20.4406 33.5585 19.4722 32.6813 19.425 31.5037C19.4227 31.4518 19.4258 31.3985 19.4288 31.3453C19.4348 31.2395 19.4407 31.1347 19.4047 31.0448C19.3673 30.9489 19.2892 30.8675 19.2111 30.7861C19.1766 30.7502 19.1422 30.7143 19.1112 30.6771C19.0782 30.7165 19.0381 30.7549 18.998 30.7933C18.911 30.8767 18.8237 30.9603 18.8075 31.055C18.7742 31.2525 18.7775 31.4559 18.7807 31.6594C18.7823 31.7652 18.784 31.871 18.7805 31.9761C18.767 32.3135 18.6658 32.5935 18.2643 32.6138C17.9168 32.6307 17.7008 32.4012 17.684 31.9558C17.6705 31.5712 17.6705 31.1832 17.7042 30.7985C17.7683 30.1102 18.2744 29.6041 18.9358 29.513C19.6477 29.4152 20.2786 29.7796 20.4946 30.4746C20.5713 30.7196 20.5881 30.9845 20.6049 31.2494C20.611 31.3458 20.6172 31.4421 20.6262 31.5375C20.6768 32.0739 21.0243 32.4147 21.5743 32.4552C22.0838 32.4923 22.5797 32.1684 22.6843 31.6994C22.7282 31.5003 22.7282 31.2912 22.7282 31.0853C22.7282 30.0596 23.4165 29.4523 24.2229 29.4894C25.1204 29.5299 25.6974 30.3532 25.6097 31.1191C25.6029 31.1867 25.6052 31.2558 25.6074 31.3244C25.6085 31.3585 25.6097 31.3925 25.6097 31.4261C25.6097 31.4329 25.6097 31.4329 25.6063 31.4329Z" stroke="#FFEB61"/>
<path d="M28.508 1.80524C28.409 1.97925 28.32 2.1346 28.2351 2.28283C28.129 2.46799 28.0293 2.64206 27.9243 2.82758C23.7405 1.03932 19.5971 1.08994 15.3998 2.79722C15.2504 2.5075 15.1064 2.23364 14.9325 1.9031C14.91 1.86024 14.8869 1.81642 14.8633 1.7715C19.4453 -0.10786 23.926 -0.124731 28.508 1.80524Z" fill="#FFEB61"/>
<path d="M28.508 1.80524C28.409 1.97925 28.32 2.1346 28.2351 2.28283C28.129 2.46799 28.0293 2.64206 27.9243 2.82758C23.7405 1.03932 19.5971 1.08994 15.3998 2.79722C15.2504 2.5075 15.1064 2.23364 14.9325 1.9031C14.91 1.86024 14.8869 1.81642 14.8633 1.7715C19.4453 -0.10786 23.926 -0.124731 28.508 1.80524Z" stroke="#FFEB61"/>
<path d="M19.1077 10.5678C19.0976 9.12374 20.1807 8.04742 21.6417 8.05079C23.0891 8.05416 24.2026 9.13724 24.2161 10.5544C24.2296 12.0018 23.1532 13.1051 21.7159 13.122C20.2583 13.1423 19.1179 12.0254 19.1077 10.5678ZM21.6788 12.0389C22.4076 12.0119 23.1229 11.2933 23.1161 10.5881C23.1094 9.84917 22.3333 9.13049 21.5843 9.16423C20.8184 9.19797 20.1604 9.89303 20.2043 10.6286C20.2414 11.3608 20.9837 12.0659 21.6788 12.0389Z" fill="#FFEB61"/>
<path d="M19.1077 10.5678C19.0976 9.12374 20.1807 8.04742 21.6417 8.05079C23.0891 8.05416 24.2026 9.13724 24.2161 10.5544C24.2296 12.0018 23.1532 13.1051 21.7159 13.122C20.2583 13.1423 19.1179 12.0254 19.1077 10.5678ZM21.6788 12.0389C22.4076 12.0119 23.1229 11.2933 23.1161 10.5881C23.1094 9.84917 22.3333 9.13049 21.5843 9.16423C20.8184 9.19797 20.1604 9.89303 20.2043 10.6286C20.2414 11.3608 20.9837 12.0659 21.6788 12.0389Z" stroke="#FFEB61"/>
<path d="M16.8639 8.31398L16.4456 7.45359C18.7231 5.34817 23.9124 4.99389 26.8816 7.40973C26.8145 7.54382 26.7467 7.68019 26.6753 7.82382C26.5958 7.98376 26.5118 8.15272 26.4193 8.33759C23.2477 6.36714 20.0794 6.36714 16.8639 8.31398Z" fill="#FFEB61"/>
<path d="M16.8639 8.31398L16.4456 7.45359C18.7231 5.34817 23.9124 4.99389 26.8816 7.40973C26.8145 7.54382 26.7467 7.68019 26.6753 7.82382C26.5958 7.98376 26.5118 8.15272 26.4193 8.33759C23.2477 6.36714 20.0794 6.36714 16.8639 8.31398Z" stroke="#FFEB61"/>
<path d="M39.0282 10.5C40.1451 10.5034 41.0729 11.3908 41.0864 12.4738C41.0999 13.6345 40.1484 14.5759 38.9742 14.5658C37.8507 14.559 36.9228 13.6716 36.9093 12.5953C36.8958 11.4515 37.8608 10.5 39.0282 10.5ZM39.9224 12.5042C39.919 12.0588 39.4804 11.6371 39.0114 11.6269C38.5221 11.6168 38.0565 12.0791 38.0768 12.5548C38.097 13.0103 38.5322 13.4354 38.9844 13.4456C39.4567 13.4557 39.9257 12.9833 39.9224 12.5042Z" fill="#FFEB61"/>
<path d="M39.0282 10.5C40.1451 10.5034 41.0729 11.3908 41.0864 12.4738C41.0999 13.6345 40.1484 14.5759 38.9742 14.5658C37.8507 14.559 36.9228 13.6716 36.9093 12.5953C36.8958 11.4515 37.8608 10.5 39.0282 10.5ZM39.9224 12.5042C39.919 12.0588 39.4804 11.6371 39.0114 11.6269C38.5221 11.6168 38.0565 12.0791 38.0768 12.5548C38.097 13.0103 38.5322 13.4354 38.9844 13.4456C39.4567 13.4557 39.9257 12.9833 39.9224 12.5042Z" stroke="#FFEB61"/>
<path d="M4.29218 14.5624C3.14162 14.5658 2.22388 13.6548 2.22388 12.5144C2.22725 11.3976 3.10788 10.5068 4.2247 10.4933C5.41237 10.4798 6.4111 11.4178 6.40098 12.538C6.3976 13.6514 5.44612 14.5591 4.29218 14.5624ZM5.2403 12.5076C5.23692 12.0353 4.74768 11.5933 4.26519 11.6202C3.79957 11.6472 3.36769 12.0757 3.36431 12.511C3.36094 12.9867 3.82993 13.4524 4.30568 13.4422C4.79154 13.4389 5.24704 12.9834 5.2403 12.5076Z" fill="#FFEB61"/>
<path d="M4.29218 14.5624C3.14162 14.5658 2.22388 13.6548 2.22388 12.5144C2.22725 11.3976 3.10788 10.5068 4.2247 10.4933C5.41237 10.4798 6.4111 11.4178 6.40098 12.538C6.3976 13.6514 5.44612 14.5591 4.29218 14.5624ZM5.2403 12.5076C5.23692 12.0353 4.74768 11.5933 4.26519 11.6202C3.79957 11.6472 3.36769 12.0757 3.36431 12.511C3.36094 12.9867 3.82993 13.4524 4.30568 13.4422C4.79154 13.4389 5.24704 12.9834 5.2403 12.5076Z" stroke="#FFEB61"/>
<path d="M19.3202 14.6569C19.2936 14.7162 19.271 14.7687 19.2507 14.816C19.204 14.9247 19.1692 15.0058 19.1245 15.0787C19.0709 15.1696 19.0092 15.2541 18.9506 15.3344C18.9244 15.3703 18.8988 15.4053 18.8748 15.4397C17.2047 15.1968 15.7977 13.3646 15.3793 10.8847C15.1802 10.8341 14.9643 10.7801 14.6572 10.7059C14.6727 10.5731 14.6877 10.4413 14.7033 10.3039C14.7285 10.0817 14.7555 9.84483 14.7888 9.56543C15.0547 9.60196 15.3125 9.63659 15.5723 9.67151C15.9126 9.71724 16.2566 9.76346 16.6277 9.81511C16.3915 12.0724 17.2958 13.6582 19.3202 14.6569Z" fill="#FFEB61"/>
<path d="M19.3202 14.6569C19.2936 14.7162 19.271 14.7687 19.2507 14.816C19.204 14.9247 19.1692 15.0058 19.1245 15.0787C19.0709 15.1696 19.0092 15.2541 18.9506 15.3344C18.9244 15.3703 18.8988 15.4053 18.8748 15.4397C17.2047 15.1968 15.7977 13.3646 15.3793 10.8847C15.1802 10.8341 14.9643 10.7801 14.6572 10.7059C14.6727 10.5731 14.6877 10.4413 14.7033 10.3039C14.7285 10.0817 14.7555 9.84483 14.7888 9.56543C15.0547 9.60196 15.3125 9.63659 15.5723 9.67151C15.9126 9.71724 16.2566 9.76346 16.6277 9.81511C16.3915 12.0724 17.2958 13.6582 19.3202 14.6569Z" stroke="#FFEB61"/>
<path d="M24.4792 15.5817C24.3491 15.3509 24.2315 15.138 24.1172 14.9312C24.0745 14.8538 24.0322 14.7773 23.99 14.7011C26.3046 13.2907 26.7264 12.2414 26.7129 9.85591C26.9429 9.81615 27.1766 9.77638 27.4191 9.73511C27.7528 9.67832 28.1032 9.61868 28.4843 9.55225C28.4932 9.65621 28.5017 9.7551 28.51 9.85054C28.536 10.1516 28.559 10.4184 28.5821 10.7028C28.3425 10.7669 28.1502 10.8175 27.887 10.885C27.6812 13.0444 26.6488 14.6673 24.4792 15.5817Z" fill="#FFEB61"/>
<path d="M24.4792 15.5817C24.3491 15.3509 24.2315 15.138 24.1172 14.9312C24.0745 14.8538 24.0322 14.7773 23.99 14.7011C26.3046 13.2907 26.7264 12.2414 26.7129 9.85591C26.9429 9.81615 27.1766 9.77638 27.4191 9.73511C27.7528 9.67832 28.1032 9.61868 28.4843 9.55225C28.4932 9.65621 28.5017 9.7551 28.51 9.85054C28.536 10.1516 28.559 10.4184 28.5821 10.7028C28.3425 10.7669 28.1502 10.8175 27.887 10.885C27.6812 13.0444 26.6488 14.6673 24.4792 15.5817Z" stroke="#FFEB61"/>
<path d="M23.8146 22.1846C24.0267 22.3315 24.217 22.4652 24.4313 22.6158C24.4828 22.652 24.5357 22.6892 24.5906 22.7278C24.5551 22.7937 24.5201 22.8573 24.486 22.9196C24.4099 23.0582 24.3376 23.19 24.2701 23.325C23.9259 24.0201 23.8956 24.6881 24.3983 25.3427C24.8875 25.9804 25.2351 26.689 25.198 27.5966H24.2633C24.1672 27.4156 24.0745 27.238 23.9832 27.0631C23.7733 26.6611 23.571 26.2736 23.3523 25.8927C22.6472 24.651 22.8125 23.1057 23.8146 22.1846Z" fill="#FFEB61"/>
<path d="M23.8146 22.1846C24.0267 22.3315 24.217 22.4652 24.4313 22.6158C24.4828 22.652 24.5357 22.6892 24.5906 22.7278C24.5551 22.7937 24.5201 22.8573 24.486 22.9196C24.4099 23.0582 24.3376 23.19 24.2701 23.325C23.9259 24.0201 23.8956 24.6881 24.3983 25.3427C24.8875 25.9804 25.2351 26.689 25.198 27.5966H24.2633C24.1672 27.4156 24.0745 27.238 23.9832 27.0631C23.7733 26.6611 23.571 26.2736 23.3523 25.8927C22.6472 24.651 22.8125 23.1057 23.8146 22.1846Z" stroke="#FFEB61"/>
<path d="M18.686 22.7683C18.8376 22.6556 18.9892 22.544 19.1401 22.4329C19.2512 22.3511 19.362 22.2695 19.4722 22.188C20.2921 22.8662 20.6126 24.0673 20.2516 25.1302C20.1542 25.4221 20.0073 25.6995 19.8623 25.9731C19.8514 25.9935 19.8406 26.014 19.8298 26.0344C19.7736 26.1396 19.7064 26.2398 19.6391 26.3401C19.5488 26.4747 19.4584 26.6095 19.3946 26.7565C19.3222 26.9261 19.2801 27.1109 19.2348 27.3099C19.2126 27.4077 19.1895 27.509 19.1617 27.6135H18.0989C18.0652 26.8172 18.3216 26.1087 18.7737 25.5317C19.4553 24.6612 19.4283 23.8582 18.8007 23.0113C18.7802 22.9777 18.7638 22.94 18.7442 22.8948C18.7282 22.8582 18.7102 22.8167 18.686 22.7683Z" fill="#FFEB61"/>
<path d="M18.686 22.7683C18.8376 22.6556 18.9892 22.544 19.1401 22.4329C19.2512 22.3511 19.362 22.2695 19.4722 22.188C20.2921 22.8662 20.6126 24.0673 20.2516 25.1302C20.1542 25.4221 20.0073 25.6995 19.8623 25.9731C19.8514 25.9935 19.8406 26.014 19.8298 26.0344C19.7736 26.1396 19.7064 26.2398 19.6391 26.3401C19.5488 26.4747 19.4584 26.6095 19.3946 26.7565C19.3222 26.9261 19.2801 27.1109 19.2348 27.3099C19.2126 27.4077 19.1895 27.509 19.1617 27.6135H18.0989C18.0652 26.8172 18.3216 26.1087 18.7737 25.5317C19.4553 24.6612 19.4283 23.8582 18.8007 23.0113C18.7802 22.9777 18.7638 22.94 18.7442 22.8948C18.7282 22.8582 18.7102 22.8167 18.686 22.7683Z" stroke="#FFEB61"/>
<path d="M23.9563 3.28303C23.9363 3.38281 23.9205 3.46912 23.9063 3.54635C23.8796 3.69109 23.8589 3.80397 23.8281 3.91398C23.8072 3.99529 23.7719 4.0734 23.742 4.1395C23.7285 4.1694 23.7161 4.19685 23.7066 4.22102H19.6004C19.5592 4.08202 19.5102 3.9203 19.4538 3.73454C19.4131 3.60015 19.3685 3.45319 19.3203 3.29315C20.8825 2.94225 22.3772 2.922 23.9563 3.28303Z" fill="#FFEB61"/>
<path d="M23.9563 3.28303C23.9363 3.38281 23.9205 3.46912 23.9063 3.54635C23.8796 3.69109 23.8589 3.80397 23.8281 3.91398C23.8072 3.99529 23.7719 4.0734 23.742 4.1395C23.7285 4.1694 23.7161 4.19685 23.7066 4.22102H19.6004C19.5592 4.08202 19.5102 3.9203 19.4538 3.73454C19.4131 3.60015 19.3685 3.45319 19.3203 3.29315C20.8825 2.94225 22.3772 2.922 23.9563 3.28303Z" stroke="#FFEB61"/>
<path d="M22.7587 19.2963C21.4833 17.8049 21.4462 15.9863 22.6507 14.9336L22.6617 14.9448C22.8674 15.1537 23.0765 15.3662 23.3019 15.5983C22.7519 16.624 22.8633 17.5789 23.4335 18.5607C23.3113 18.6923 23.1901 18.825 23.0653 18.9617C22.9662 19.0702 22.8647 19.1812 22.7587 19.2963Z" fill="#FFEB61"/>
<path d="M22.7587 19.2963C21.4833 17.8049 21.4462 15.9863 22.6507 14.9336L22.6617 14.9448C22.8674 15.1537 23.0765 15.3662 23.3019 15.5983C22.7519 16.624 22.8633 17.5789 23.4335 18.5607C23.3113 18.6923 23.1901 18.825 23.0653 18.9617C22.9662 19.0702 22.8647 19.1812 22.7587 19.2963Z" stroke="#FFEB61"/>
<path d="M20.6632 14.9507C21.7901 15.8043 21.7598 18.2741 20.5147 19.2459C20.4655 19.2025 20.4145 19.1586 20.363 19.1143C20.2663 19.031 20.1674 18.9459 20.0727 18.8579C19.8838 18.6824 19.8366 18.4968 19.9681 18.2438C20.3562 17.5015 20.4169 16.7423 20.0964 15.946C19.944 15.5687 20.1662 15.3873 20.4012 15.1955C20.4939 15.1197 20.5887 15.0424 20.6632 14.9507Z" fill="#FFEB61"/>
<path d="M20.6632 14.9507C21.7901 15.8043 21.7598 18.2741 20.5147 19.2459C20.4655 19.2025 20.4145 19.1586 20.363 19.1143C20.2663 19.031 20.1674 18.9459 20.0727 18.8579C19.8838 18.6824 19.8366 18.4968 19.9681 18.2438C20.3562 17.5015 20.4169 16.7423 20.0964 15.946C19.944 15.5687 20.1662 15.3873 20.4012 15.1955C20.4939 15.1197 20.5887 15.0424 20.6632 14.9507Z" stroke="#FFEB61"/>
<path d="M26.1832 21.375C26.2404 21.4177 26.2961 21.4593 26.3504 21.4998C26.5363 21.6384 26.7062 21.7652 26.8681 21.8879C26.8457 22.0405 26.8172 22.19 26.7892 22.3373C26.7285 22.6557 26.6699 22.9633 26.6792 23.2679C26.6885 23.5825 26.7633 23.8939 26.8466 24.2407C26.883 24.3922 26.921 24.5505 26.9558 24.7187C26.8812 24.7676 26.7962 24.8234 26.705 24.8833C26.5572 24.9803 26.3932 25.088 26.2304 25.1944C25.2081 23.8617 25.316 22.4884 26.1832 21.375Z" fill="#FFEB61"/>
<path d="M26.1832 21.375C26.2404 21.4177 26.2961 21.4593 26.3504 21.4998C26.5363 21.6384 26.7062 21.7652 26.8681 21.8879C26.8457 22.0405 26.8172 22.19 26.7892 22.3373C26.7285 22.6557 26.6699 22.9633 26.6792 23.2679C26.6885 23.5825 26.7633 23.8939 26.8466 24.2407C26.883 24.3922 26.921 24.5505 26.9558 24.7187C26.8812 24.7676 26.7962 24.8234 26.705 24.8833C26.5572 24.9803 26.3932 25.088 26.2304 25.1944C25.2081 23.8617 25.316 22.4884 26.1832 21.375Z" stroke="#FFEB61"/>
<path d="M17.0868 25.208C16.7966 25.0123 16.5503 24.847 16.2703 24.6614C16.6988 23.7706 16.8067 22.9069 16.3377 21.9689C16.6043 21.7799 16.8641 21.5944 17.1138 21.4155C17.9978 22.3029 18.018 23.9798 17.0868 25.208Z" fill="#FFEB61"/>
<path d="M17.0868 25.208C16.7966 25.0123 16.5503 24.847 16.2703 24.6614C16.6988 23.7706 16.8067 22.9069 16.3377 21.9689C16.6043 21.7799 16.8641 21.5944 17.1138 21.4155C17.9978 22.3029 18.018 23.9798 17.0868 25.208Z" stroke="#FFEB61"/>
<mask id="path-20-inside-1_163_5330" fill="white">
<path d="M16.5166 35.1851C16.5166 38.4005 19.8333 40.8333 22.455 40.5836C24.7932 40.3609 26.767 38.2588 27.3035 35.3639"/>
</mask>
<path d="M22.455 40.5836L22.6446 42.5746L22.455 40.5836ZM14.5166 35.1851C14.5166 37.5082 15.7118 39.4422 17.2108 40.7105C18.6863 41.9591 20.6879 42.7609 22.6446 42.5746L22.2654 38.5926C21.6004 38.6559 20.6328 38.3662 19.7945 37.657C18.9797 36.9675 18.5166 36.0774 18.5166 35.1851H14.5166ZM22.6446 42.5746C26.1218 42.2434 28.6217 39.227 29.27 35.7283L25.337 34.9995C24.9124 37.2907 23.4646 38.4784 22.2654 38.5926L22.6446 42.5746Z" fill="#FFEB61" mask="url(#path-20-inside-1_163_5330)"/>
</svg>
