<svg width="48" height="48" viewBox="0 0 48 48" fill="none" xmlns="http://www.w3.org/2000/svg">
<path d="M46.6186 9.96023C46.5822 10.1661 46.5762 10.2994 46.5338 10.4175C44.2262 16.9222 40.2895 22.1672 34.4873 25.9617C34.2359 26.1252 33.9755 26.2796 33.7151 26.428C32.4947 27.1215 31.1986 27.4364 29.7874 27.2457C29.3604 27.1881 28.9273 27.1821 28.3489 27.1427C29.2029 28.6387 29.9872 30.0105 30.8594 31.5337C31.0441 30.71 31.1986 30.0347 31.3681 29.2776C31.032 29.1929 30.708 29.1111 30.3325 29.0172C30.3991 28.7235 30.4597 28.46 30.5414 28.1057C31.3227 28.2601 32.0768 28.4085 32.858 28.5599C32.7945 28.8476 32.749 29.0687 32.6975 29.311C32.5461 29.3564 32.3978 29.4018 32.2312 29.4533C32.0919 30.1589 31.9587 30.8554 31.8224 31.5519C31.8557 31.5701 31.892 31.5852 31.9253 31.6034C32.528 30.7554 33.1306 29.9045 33.7786 28.993C34.781 30.2043 35.7198 31.3369 36.6979 32.5209C36.4133 32.7329 36.1649 32.9207 35.8954 33.1205C35.5896 32.7329 35.3231 32.3907 35.0142 31.997C34.3964 32.4422 33.8059 32.8692 33.2184 33.2962C33.2336 33.3234 33.2457 33.3477 33.2608 33.3749C33.8665 33.2507 34.4721 33.1236 35.1747 32.9782C35.3594 33.8473 35.5381 34.6892 35.7319 35.6068C35.3958 35.6703 35.1172 35.7249 34.784 35.7885C34.669 35.1919 34.569 34.6589 34.457 34.0714C33.7635 34.2016 33.1124 34.3258 32.3644 34.4681C33.0155 35.7703 33.6484 37.0361 34.2935 38.3262C33.3941 39.1135 32.528 39.8675 31.5953 40.6822C31.1259 40.0402 30.6837 39.4345 30.2083 38.7865C29.0394 39.1892 27.8856 39.5799 26.7379 39.9856C26.0202 40.237 25.2964 40.4823 24.5969 40.776C24.1548 40.9608 23.7641 40.9244 23.3311 40.7639C21.6413 40.1401 19.9455 39.5405 18.2526 38.9379C18.0831 38.8773 17.9074 38.8379 17.7166 38.7865C17.2715 39.4163 16.8505 40.0159 16.3691 40.6973C15.4515 39.8918 14.5793 39.1226 13.6799 38.3292C14.3371 37.027 14.9791 35.7551 15.6483 34.4348C14.9276 34.3106 14.2765 34.1986 13.5437 34.0744C13.4225 34.6316 13.3044 35.1616 13.1712 35.7703C12.8986 35.7249 12.6382 35.6825 12.2809 35.6219C12.4565 34.7255 12.6231 33.8776 12.7957 32.9994C13.4982 33.1326 14.1281 33.2538 14.755 33.3749C14.7701 33.3477 14.7853 33.3204 14.7974 33.2931C14.1947 32.8843 13.5951 32.4725 12.9501 32.0364C12.6594 32.4059 12.3899 32.745 12.081 33.1326C11.8206 32.9449 11.5662 32.7632 11.2634 32.5421C12.2566 31.355 13.2105 30.2104 14.2159 29.0081C14.861 29.9318 15.4606 30.7948 16.0632 31.6579C16.0995 31.6427 16.1389 31.6246 16.1752 31.6094C16.042 30.8947 15.9088 30.1831 15.7725 29.4472C15.609 29.4048 15.4606 29.3655 15.297 29.3261C15.2395 29.0959 15.182 28.8779 15.1093 28.5842C15.8754 28.4237 16.6143 28.2662 17.429 28.0966C17.5016 28.4146 17.5652 28.6902 17.6379 28.993C17.2897 29.0808 17.008 29.1535 16.6628 29.2413C16.8021 29.9681 16.9384 30.6646 17.0716 31.3641C17.4501 31.0886 19.3489 27.8453 19.5215 27.1548C19.0945 27.176 18.6796 27.1609 18.2799 27.2275C16.8717 27.4637 15.5726 27.1639 14.3492 26.4674C12.5534 25.4438 10.9181 24.2022 9.41309 22.788C5.76098 19.3479 3.11728 15.2506 1.47595 10.5083C1.44567 10.4205 1.41236 10.3357 1.38814 10.2479C1.37602 10.2055 1.3851 10.1571 1.3851 10.0026C7.54766 11.865 13.7132 13.6184 19.7789 15.6413C19.6668 16.9677 19.5609 18.2486 19.4518 19.5266C19.5033 19.5387 19.5548 19.5538 19.6063 19.5659C19.679 19.4418 19.7577 19.3237 19.8213 19.1965C19.9848 18.8664 20.0969 18.497 20.3119 18.2062C20.7449 17.6127 20.8872 16.9677 20.8418 16.25C20.8146 15.7927 20.8358 15.3294 20.8358 14.8267C20.5996 14.7631 20.3785 14.7116 20.1665 14.642C19.8183 14.5299 19.6275 14.3119 19.6911 13.9152C19.7486 13.5518 19.7819 13.1823 19.8304 12.7886C19.0945 12.51 18.5373 12.8341 18.0346 13.2883C17.1564 12.4888 17.0353 11.8256 17.5895 10.8839C17.7288 10.6446 17.8983 10.4236 18.074 10.2085C18.3798 9.83001 18.7614 9.62106 19.2762 9.66345C19.7123 9.69979 20.1514 9.66951 20.6268 9.66951C20.9448 8.81554 21.2537 7.97973 21.5747 7.11667C22.3287 7.11667 23.0434 7.11667 23.755 7.11667C24.4727 7.11667 25.1904 7.13181 25.9051 7.10153C26.2988 7.08336 26.4926 7.2378 26.6137 7.59817C26.7894 8.12206 27.0286 8.62778 27.2012 9.1547C27.3284 9.54232 27.5283 9.7331 27.9553 9.68162C28.2278 9.64831 28.5125 9.68768 28.785 9.66043C29.2453 9.61197 29.5966 9.7967 29.8752 10.1389C30.0781 10.3902 30.287 10.6416 30.4475 10.9202C30.9866 11.8468 30.8715 12.4737 30.0448 13.2429C29.2635 12.716 29.2635 12.716 28.6548 12.7856C28.676 13.0763 28.7093 13.367 28.7154 13.6608C28.7275 14.3088 28.5549 14.5238 27.9189 14.6692C27.6948 14.7207 27.4677 14.754 27.18 14.8085C27.2012 16.0077 26.9408 17.2008 27.716 18.288C28.0189 18.712 28.1854 19.2328 28.461 19.6992C28.5306 18.3607 28.3671 17.0404 28.1097 15.6383C34.248 13.6578 40.4076 11.865 46.6186 9.96023ZM27.8826 35.3554C27.0286 34.1713 26.2382 33.0721 25.4569 31.991C24.0367 32.5149 24.0367 32.5149 22.4922 31.9849C21.717 33.0872 20.9296 34.2077 20.1211 35.3554C21.4445 36.3578 22.7042 37.3147 23.9973 38.2959C25.3025 37.3086 26.5653 36.3547 27.8826 35.3554ZM2.88713 11.3502C2.84776 11.3926 2.81142 11.435 2.77205 11.4774C2.95981 11.9195 3.15665 12.3586 3.33532 12.8038C3.45039 13.0854 3.65026 13.2126 3.94401 13.3004C8.6439 14.7086 13.3377 16.1319 18.0346 17.5461C18.2224 17.6036 18.4162 17.6278 18.6524 17.6793C18.719 17.1675 18.7796 16.7194 18.8462 16.2045C13.4982 14.5753 8.19268 12.9643 2.88713 11.3502ZM29.3725 17.6339C29.4785 17.643 29.5239 17.6612 29.5633 17.649C34.4176 16.1894 39.272 14.7328 44.1233 13.2641C44.2656 13.2217 44.4443 13.1248 44.5048 13.0036C44.7562 12.4979 44.9682 11.974 45.2619 11.3018C39.7747 12.9734 34.454 14.5935 29.1181 16.2167C29.215 16.7587 29.2938 17.2039 29.3725 17.6339ZM21.178 10.8748C21.29 10.9262 21.3294 10.9565 21.3687 10.9596C22.5498 11.0504 22.9132 11.5531 22.6134 12.7008C22.5377 12.9946 22.4468 13.2883 22.3378 13.6729C23.4673 13.3186 24.497 13.4185 25.5266 13.6002C26.0262 13.688 26.5199 13.8092 27.0226 13.8728C27.3102 13.9091 27.6312 13.9273 27.822 13.6154C27.6585 12.6281 26.3472 9.10322 25.7386 8.02515C24.5787 8.02515 23.4068 8.02515 22.1985 8.02515C21.8563 8.98815 21.5171 9.93297 21.178 10.8748ZM19.5275 22.3762C19.5518 22.8728 19.4973 23.324 19.6033 23.7298C19.9424 25.0199 20.2907 26.313 20.7298 27.5727C21.1113 28.6659 21.7231 29.6531 22.4892 30.5314C22.7708 30.8554 23.0585 31.1885 23.54 31.3157C23.5491 31.1794 23.5673 31.0886 23.5552 31.0007C23.2644 28.8052 22.9677 26.6128 22.683 24.4172C22.6497 24.1598 22.5528 23.9963 22.3317 23.8722C21.5504 23.43 20.7752 22.9697 19.9939 22.5276C19.8879 22.461 19.7516 22.4428 19.5275 22.3762ZM28.3974 22.3429C28.1309 22.4701 27.9189 22.5518 27.7251 22.6639C27.1013 23.0152 26.4926 23.3967 25.8597 23.7268C25.4933 23.9176 25.3328 24.181 25.2813 24.5838C25.0087 26.7157 24.715 28.8416 24.4303 30.9735C24.4182 31.0734 24.4425 31.1794 24.4485 31.3005C26.3715 30.4556 28.6699 25.2712 28.3974 22.3429ZM29.4724 18.5999C29.321 19.5538 29.3634 23.0848 29.5148 23.5057C31.8981 22.7214 34.3873 19.4297 34.1935 17.2342C32.5976 17.6945 31.0199 18.1517 29.4724 18.5999ZM18.5827 18.6726C16.896 18.0215 14.2644 17.3129 13.7738 17.3735C13.9828 20.0172 16.4024 23.0909 18.5827 23.4633C18.5827 21.8735 18.5827 20.2867 18.5827 18.6726ZM21.6564 17.6551C22.4286 18.9936 23.1797 20.2988 23.9912 21.7069C24.818 20.2927 25.5781 18.9906 26.3351 17.6914C25.4266 16.677 22.8799 16.5165 21.6564 17.6551ZM12.8472 16.9192C11.8387 16.6103 10.8727 16.3105 9.9067 16.0168C8.96187 15.7291 8.01705 15.4354 7.06617 15.1628C6.11831 14.8903 5.18863 14.542 4.06514 14.3028C4.48001 15.0144 4.80707 15.5686 5.12807 16.1258C5.2704 16.3711 5.48843 16.4377 5.75491 16.4831C7.52343 16.7799 9.28892 17.0949 11.0574 17.4037C11.654 17.5067 12.2536 17.6097 12.8986 17.7187C12.8805 17.4189 12.8653 17.216 12.8472 16.9192ZM35.1807 16.9132C35.1807 17.1887 35.1807 17.4219 35.1807 17.6521C37.5943 17.2523 39.9563 16.8647 42.3154 16.4619C42.4819 16.4347 42.6909 16.3408 42.7757 16.2106C43.1542 15.6201 43.4964 15.0023 43.8537 14.3936C43.8204 14.3573 43.7871 14.3179 43.7538 14.2816C40.9012 15.1568 38.0516 16.0319 35.1807 16.9132ZM29.1272 35.5856C30.0175 36.8574 30.8594 38.0597 31.7315 39.3103C32.2554 38.8834 32.7097 38.5109 33.1851 38.1233C32.5007 36.7636 31.8405 35.4584 31.1562 34.1047C30.4597 34.6135 29.8267 35.0738 29.1272 35.5856ZM16.8142 34.1078C16.1238 35.4917 15.4696 36.7999 14.8034 38.1323C15.291 38.5321 15.7452 38.9046 16.2479 39.3134C17.1382 38.0324 17.9862 36.815 18.8583 35.5674C18.1618 35.0738 17.5289 34.6195 16.8142 34.1078ZM30.7928 33.2538C29.8449 31.6064 28.9304 30.0165 28.0067 28.4085C27.6736 28.7386 27.6373 29.0324 27.7675 29.4079C27.9098 29.8197 27.9553 30.2618 28.0643 30.6858C28.3096 31.6246 28.3156 32.5149 27.5313 33.2629C27.9008 33.7837 28.2429 34.2683 28.6124 34.7861C29.3452 34.2713 30.0387 33.7837 30.7928 33.2538ZM20.4724 33.2417C19.9364 32.7935 19.6971 32.2393 19.7728 31.6185C19.8576 30.9129 19.9818 30.2013 20.2059 29.529C20.3482 29.099 20.3361 28.7871 19.9878 28.4055C19.043 30.0468 18.1133 31.6639 17.1837 33.281C17.9498 33.811 18.6433 34.2925 19.3701 34.7952C19.7365 34.2864 20.0787 33.7989 20.4724 33.2417ZM6.13951 17.4401C6.11226 17.4764 6.085 17.5158 6.05472 17.5521C6.35452 17.9579 6.66037 18.3546 6.94806 18.7695C7.13581 19.039 7.36899 19.1511 7.69908 19.1662C9.17688 19.2268 10.6517 19.3146 12.1264 19.3842C12.4838 19.4024 12.8411 19.3873 13.2045 19.3873C13.1106 18.6726 13.1106 18.6665 12.5322 18.5575C11.5813 18.3789 10.6274 18.2002 9.67351 18.0367C8.49551 17.8277 7.31751 17.6369 6.13951 17.4401ZM41.9944 17.4855C41.7824 17.4704 41.6946 17.4492 41.6128 17.4613C39.5536 17.8186 37.4944 18.182 35.4351 18.5454C34.884 18.6423 34.8385 18.715 34.8446 19.4327C36.7282 19.3328 38.6088 19.2328 40.4924 19.1268C40.5983 19.1208 40.7346 19.0754 40.7952 19.0027C41.1828 18.5303 41.5553 18.0427 41.9944 17.4855ZM19.8758 21.3981C20.9932 22.0279 22.0017 22.6003 23.0343 23.1817C23.1978 22.9364 23.325 22.7487 23.4552 22.5488C22.6982 21.2497 21.9502 19.9717 21.1144 18.5363C20.6632 19.5871 20.2816 20.4653 19.8758 21.3981ZM28.0613 21.4344C27.7433 20.4532 27.4071 19.5447 26.8197 18.6514C26.3987 19.3752 26.0323 20.0141 25.6629 20.6501C25.2934 21.283 24.9179 21.9159 24.5484 22.5397C24.6302 22.676 24.6787 22.782 24.7483 22.8728C24.827 22.9758 24.927 23.0666 25.0269 23.1726C26.0353 22.5942 27.0135 22.034 28.0613 21.4344ZM39.9654 20.1019C39.6656 20.0868 39.5324 20.0717 39.4022 20.0777C37.7911 20.1595 36.1831 20.2534 34.5721 20.326C34.2117 20.3412 34.0966 20.5289 34.0845 20.862C35.3503 21.1073 36.6101 21.3587 37.8729 21.5979C38.1363 21.6464 38.4089 21.713 38.6421 21.4616C39.0297 21.0347 39.4415 20.6349 39.9654 20.1019ZM8.21086 20.0838C8.19269 20.1322 8.17754 20.1837 8.15937 20.2322C8.51368 20.5956 8.88314 20.9408 9.21322 21.3223C9.45851 21.607 9.73106 21.6555 10.0763 21.5858C11.1604 21.3647 12.2476 21.1588 13.3317 20.9408C13.5225 20.9044 13.7102 20.853 13.8949 20.8106C13.8707 20.3412 13.5921 20.3321 13.3075 20.32C11.763 20.2443 10.2186 20.1625 8.67418 20.0838C8.51974 20.0747 8.3653 20.0838 8.21086 20.0838ZM26.8015 38.9712C27.7493 38.6472 28.6881 38.3292 29.6935 37.987C29.2271 37.3238 28.8183 36.7454 28.3732 36.1185C27.6252 36.6909 26.9378 37.2178 26.2473 37.7477C26.4381 38.1687 26.6016 38.526 26.8015 38.9712ZM19.5911 36.1064C19.149 36.7393 18.7432 37.3177 18.2981 37.9537C19.2732 38.2989 20.1938 38.629 21.1416 38.9651C21.3566 38.529 21.5444 38.1475 21.7443 37.7387C21.0356 37.2027 20.3603 36.6909 19.5911 36.1064ZM14.2614 25.3863C14.8579 24.6262 15.4242 23.9115 16.0117 23.1635C15.8209 22.9909 15.6756 22.8577 15.506 22.7032C14.5188 23.1847 13.5588 23.6511 12.4898 24.172C13.1288 24.6111 13.6678 24.9805 14.2614 25.3863ZM33.7029 25.3833C34.3207 24.9714 34.8931 24.6474 35.4442 24.1598C34.4055 23.6541 33.4607 23.1908 32.5007 22.7214C32.313 22.894 32.1646 23.0303 31.992 23.1878C32.5704 23.9236 33.1185 24.6292 33.7029 25.3833ZM17.4441 26.2827C17.4441 25.7648 17.4441 25.2409 17.4441 24.7201C17.4441 24.0236 17.4441 24.0236 16.69 23.745C16.1783 24.4233 15.6574 25.1138 15.1002 25.8496C15.8664 26.1918 16.5689 26.428 17.4441 26.2827ZM30.5414 26.2857C31.4075 26.4311 32.1161 26.2282 32.8641 25.8193C32.3221 25.1107 31.8012 24.4263 31.2773 23.7389C30.8836 23.9146 30.5323 23.9842 30.5384 24.4475C30.5505 25.0441 30.5414 25.6376 30.5414 26.2857ZM11.6873 23.5754C12.7624 23.0333 13.7647 22.5306 14.755 22.034C14.6762 21.6857 14.5006 21.6433 14.2311 21.7009C13.3105 21.8886 12.3838 22.0491 11.4602 22.2278C11.1331 22.2914 10.8122 22.3732 10.367 22.4731C10.8636 22.888 11.2634 23.2211 11.6873 23.5754ZM37.6185 22.4791C37.1067 22.3701 36.7494 22.2914 36.389 22.2217C35.532 22.0522 34.672 21.8886 33.815 21.7221C33.5546 21.6706 33.3093 21.6433 33.2396 22.04C34.2389 22.5458 35.2413 23.0545 36.2709 23.5754C36.6858 23.2362 37.0916 22.9061 37.6185 22.4791ZM22.0047 39.2407C22.6649 39.4981 23.2372 39.7252 23.8156 39.9342C23.9337 39.9766 24.0942 39.9766 24.2093 39.9342C24.7816 39.7252 25.3479 39.492 25.9808 39.2437C25.7961 38.9106 25.6477 38.6472 25.4902 38.3595C25.0693 38.635 24.718 38.85 24.3819 39.0863C24.1215 39.271 23.8883 39.274 23.6278 39.0863C23.2766 38.8379 22.9101 38.6108 22.4953 38.3413C22.3287 38.6441 22.1894 38.9015 22.0047 39.2407ZM26.211 16.4165C26.211 15.8351 26.211 15.2779 26.211 14.7116C25.6144 14.5541 25.0663 14.3361 24.4485 14.4179C24.4485 14.9448 24.4485 15.4172 24.4485 15.8957C25.039 16.0713 25.6023 16.2379 26.211 16.4165ZM23.5188 14.4239C22.892 14.321 22.3711 14.5965 21.8109 14.7086C21.8109 15.2749 21.8109 15.8109 21.8109 16.359C22.4165 16.1985 22.9677 16.0531 23.5188 15.9078C23.5188 15.399 23.5188 14.9206 23.5188 14.4239ZM20.3664 10.5719C18.9643 10.3509 18.2072 10.8657 18.2648 11.9165C18.8492 11.8499 19.4337 11.7833 20.0363 11.7136C20.1483 11.323 20.2574 10.9505 20.3664 10.5719ZM29.7874 11.9104C29.7722 11.0807 29.0636 10.1752 27.816 10.581C27.9674 10.9777 28.1158 11.3744 28.2429 11.7106C28.8183 11.7863 29.3029 11.8499 29.7874 11.9104ZM23.9943 23.43C23.7581 23.7601 23.5279 24.0205 23.5824 24.3991C23.6945 25.1713 23.8126 25.9435 23.9337 26.7127C23.9367 26.7278 24.0094 26.7309 24.0791 26.743C24.1699 26.107 24.2305 25.465 24.3607 24.8382C24.4636 24.3294 24.4091 23.8903 23.9943 23.43ZM20.6177 13.7395C20.9387 13.8637 21.1537 13.897 21.284 13.6275C21.4505 13.2792 21.6534 12.937 21.7564 12.5676C21.9381 11.9044 21.7564 11.7409 21.075 11.8862C21.0356 11.8953 21.0054 11.9377 20.9115 12.0104C20.8206 12.5555 20.7177 13.152 20.6177 13.7395ZM26.9559 30.1801C26.6773 30.5495 26.3957 30.919 26.0959 31.3157C26.3957 31.7124 26.6652 32.0727 26.968 32.4725C27.6555 31.673 27.068 30.9432 26.9559 30.1801ZM21.0508 30.2225C21.0023 30.2346 20.9539 30.2467 20.9054 30.2558C20.9115 30.9705 20.33 31.6791 21.0023 32.4967C21.3263 32.0485 21.6049 31.6639 21.8896 31.2672C21.5928 30.8978 21.3233 30.5616 21.0508 30.2225ZM15.3637 32.533C15.4061 32.5028 15.4454 32.4695 15.4878 32.4392C15.0699 31.8275 14.652 31.2157 14.1857 30.5344C13.9434 30.8069 13.7526 31.0219 13.5134 31.2884C14.1584 31.7215 14.761 32.1273 15.3637 32.533ZM18.3344 26.2675C18.6403 26.2312 18.9068 26.2009 19.2187 26.1676C19.1369 25.7406 19.0551 25.3651 18.9915 24.9835C18.928 24.608 18.722 24.4778 18.3374 24.5717C18.3344 25.1198 18.3344 25.6679 18.3344 26.2675ZM29.6602 26.2827C29.6602 25.6498 29.6602 25.1047 29.6602 24.5293C29.4755 24.5414 29.324 24.5535 29.1393 24.5687C29.0182 25.1077 28.8971 25.6316 28.7729 26.1888C29.0939 26.2221 29.3392 26.2463 29.6602 26.2827ZM32.5795 32.3362C32.6188 32.3756 32.6582 32.4119 32.6975 32.4513C33.2729 32.0667 33.8453 31.6851 34.457 31.2763C34.2147 31.0068 34.0209 30.7948 33.7877 30.5344C33.3547 31.1855 32.9671 31.7608 32.5795 32.3362Z" fill="#FFEB61"/>
<path d="M25.0357 9.26978C25.1447 9.58472 25.2356 9.84212 25.3415 10.151C25.2113 10.1601 25.1053 10.1813 25.0054 10.1692C24.7662 10.1389 24.6178 10.2449 24.4543 10.4205C23.9001 11.0292 23.467 11.0232 22.925 10.4447C22.6857 10.1904 22.6857 10.1904 22.0801 10.1207C22.1709 9.84212 22.2587 9.56957 22.3557 9.2728C22.504 9.2728 22.6403 9.2728 22.7736 9.2728C23.5185 9.26977 24.2604 9.26978 25.0357 9.26978Z" fill="#FFEB61"/>
</svg>
