<svg width="48" height="48" viewBox="0 0 48 48" fill="none" xmlns="http://www.w3.org/2000/svg">
<path d="M39.4182 39.2244C39.0985 39.4931 38.8196 39.7312 38.4726 40.0237C35.4216 36.8503 32.3945 33.7041 29.3401 30.5272C29.0203 30.7347 28.738 30.9184 28.3775 31.1531C30.1224 34.2143 31.8434 37.2278 33.5985 40.306C33.4625 40.4081 33.3026 40.5271 33.0747 40.7006C31.2108 37.6462 29.5101 34.5782 27.7074 31.517C27.17 31.7415 26.6768 31.949 26.1394 32.1701C26.3537 32.915 26.5578 33.6224 26.7687 34.3333C27.4965 36.8061 28.2278 39.2788 28.9591 41.7516C29.1258 42.3094 29.1258 42.3094 28.4999 42.6223C27.4727 39.2074 26.4489 35.8061 25.4047 32.3333C25.1258 32.3877 24.9013 32.4354 24.602 32.4932C24.5782 36.8945 24.551 41.2788 24.5272 45.6903C24.0884 45.6903 23.7449 45.6903 23.3265 45.6903C23.3027 45.4114 23.2653 45.1631 23.2653 44.9114C23.2551 41.0849 23.2517 37.2551 23.2483 33.4286C23.2483 33.1258 23.2483 32.8231 23.2483 32.5034C22.9796 32.4524 22.7687 32.415 22.4762 32.3605C21.8639 34.0544 21.4354 35.7857 20.9116 37.4863C20.3946 39.17 19.9048 40.8673 19.3878 42.6155C19.1565 42.4965 18.9932 42.4081 18.7994 42.3094C19.7585 38.9353 20.7075 35.5986 21.6701 32.2143C21.1531 32 20.6769 31.8027 20.1293 31.5748C18.2994 34.551 16.5851 37.6156 14.6497 40.585C14.4524 40.4625 14.313 40.3775 14.1395 40.272C15.9184 37.2516 17.6803 34.2619 19.4694 31.2211C19.1667 30.9864 18.898 30.7789 18.5919 30.5374C15.4933 33.6598 12.4219 36.7585 9.29944 39.9047C9.00352 39.6496 8.75183 39.4319 8.4321 39.1564C11.5001 35.9217 14.5171 32.7415 17.5613 29.534C17.3878 29.3027 17.2483 29.1157 17.0579 28.864C13.9559 30.5374 10.9593 32.3571 7.86068 34.085C7.73143 33.9013 7.62599 33.7517 7.47633 33.5408C10.5341 31.7449 13.5409 29.9762 16.5953 28.1803C16.3844 27.6531 16.1769 27.1361 15.9422 26.5545C12.6123 27.3674 9.34706 28.364 6.01376 29.2517C5.93553 29.0374 5.8811 28.881 5.79607 28.6395C9.10896 27.6633 12.3912 26.7313 15.7313 25.8266C15.6837 25.4524 15.6429 25.1191 15.5919 24.7246C11.5035 24.7246 7.44571 24.7246 3.39133 24.7246C3.14984 24.3096 3.17025 23.9389 3.2995 23.4933C7.38789 23.4933 11.4695 23.4933 15.5749 23.4933C15.6497 23.0749 15.7109 22.7212 15.7858 22.296C12.4695 21.3981 9.194 20.5069 5.8811 19.609C5.95934 19.3743 6.01035 19.2144 6.07158 19.0273C6.24164 19.0375 6.3981 19.0205 6.53756 19.0579C7.44571 19.296 8.34707 19.5477 9.25523 19.7926C11.4049 20.3743 13.5545 20.9525 15.7041 21.5307C15.7654 21.5477 15.8334 21.5443 15.9592 21.5545C16.1667 21.0749 16.381 20.5817 16.6259 20.0171C13.6293 18.2076 10.5375 16.592 7.43892 14.8097C7.57157 14.5886 7.68381 14.3981 7.81987 14.1634C10.8981 15.9185 13.9286 17.643 16.9898 19.3879C17.1633 19.1736 17.313 18.9933 17.5136 18.745C14.5783 15.5648 11.4627 12.5682 8.50013 9.32675C8.77564 9.04444 9.02734 8.78934 9.31985 8.49002C9.9491 8.91859 10.3913 9.49002 10.9015 9.98321C11.4219 10.4832 11.9219 11.007 12.4287 11.5206C12.9355 12.0342 13.4389 12.5512 13.9456 13.0682C14.4354 13.5682 14.9286 14.0648 15.4184 14.5648C15.9252 15.0784 16.432 15.592 16.9422 16.1022C17.449 16.6124 17.9592 17.1192 18.4966 17.6532C18.8095 17.4321 19.0885 17.2382 19.4184 17.0069C17.7347 13.8913 15.8266 10.9696 14.0307 7.93221C14.1667 7.85058 14.2518 7.78935 14.3436 7.74513C14.4388 7.70091 14.5443 7.6703 14.7178 7.60908C16.5545 10.5546 18.2347 13.5886 20.068 16.5886C20.5986 16.3675 21.1157 16.1532 21.7109 15.9049C20.7313 12.507 19.7551 9.11587 18.7619 5.66692C18.966 5.56148 19.1463 5.46624 19.3946 5.33699C20 7.09548 20.3878 8.84036 20.8946 10.5512C21.398 12.2451 21.8912 13.9423 22.4048 15.694C22.6769 15.677 22.9252 15.66 23.2313 15.643C23.3775 11.1873 23.3605 6.77576 23.3435 2.30981C23.7551 2.30981 24.1122 2.30981 24.5544 2.30981C24.5714 2.5343 24.602 2.76218 24.602 2.99347C24.6224 6.97303 24.6428 10.956 24.6598 14.9355C24.6598 15.1532 24.6598 15.3675 24.6598 15.626C24.9251 15.677 25.153 15.7178 25.466 15.7791C26.5782 12.3607 27.4727 8.90499 28.4897 5.42543C28.7108 5.54788 28.8707 5.63631 29.085 5.75536C28.119 9.13968 27.1632 12.4934 26.187 15.9083C26.7312 16.126 27.2687 16.3437 27.8707 16.5852C29.6904 13.6362 31.3639 10.6227 33.0951 7.6703C33.1734 7.65669 33.2244 7.62949 33.255 7.6465C33.3876 7.71452 33.5135 7.79615 33.7006 7.9084C31.9557 10.939 30.2312 13.9423 28.4795 16.9831C28.755 17.177 28.9965 17.3505 29.2992 17.5648C32.34 14.541 35.3604 11.541 38.4216 8.49343C38.7175 8.74852 39.0032 8.99682 39.3366 9.28593C36.3128 12.4356 33.3332 15.5376 30.306 18.6906C30.4523 18.8879 30.602 19.092 30.7924 19.3505C33.8434 17.6294 36.8774 15.9219 39.9522 14.1872C40.0917 14.4151 40.2005 14.592 40.3161 14.7791C37.2617 16.5172 34.2482 18.228 31.204 19.9593C31.4625 20.5239 31.6836 21.0171 31.9421 21.5783C35.1903 20.694 38.442 19.8096 41.7311 18.9117C41.8331 19.1226 41.9114 19.2858 42.0338 19.5375C38.7107 20.4695 35.442 21.3845 32.1223 22.3164C32.1938 22.7076 32.255 23.0443 32.3332 23.4661C36.4624 23.4661 40.5678 23.4661 44.6835 23.4661C44.7311 23.6735 44.7787 23.796 44.7855 23.9184C44.8263 24.6769 44.7651 24.7416 44.0066 24.7382C40.3774 24.7314 36.7448 24.7246 33.1155 24.7178C32.8774 24.7178 32.6393 24.7178 32.3162 24.7178C32.2584 25.0919 32.2006 25.4422 32.1428 25.8198C35.4318 26.7313 38.6597 27.6293 41.874 28.5204C41.8978 29.1701 41.8535 29.2313 41.3501 29.0987C39.8332 28.6905 38.323 28.2551 36.806 27.8402C35.2074 27.4048 33.6087 26.9796 31.9693 26.5375C31.7278 27.0647 31.5033 27.5511 31.255 28.0851C34.2584 29.8844 37.2516 31.6769 40.3127 33.5102C40.1563 33.7313 40.0406 33.8945 39.8944 34.102C36.874 32.2959 33.9012 30.5204 30.8945 28.7211C30.6768 28.9966 30.5067 29.2143 30.2788 29.5034C33.3026 32.7551 36.3468 35.966 39.4182 39.2244ZM31.255 24.0919C31.2584 19.9763 27.9727 16.5886 23.9728 16.5886C20.3572 16.5886 16.6259 19.5341 16.5681 24.0885C16.5205 28.1021 19.7993 31.4422 23.7279 31.4796C27.7414 31.5136 31.255 28.0681 31.255 24.0919Z" fill="#FFEB61"/>
</svg>
