<svg width="46" height="40" viewBox="0 0 46 40" fill="none" xmlns="http://www.w3.org/2000/svg">
<g clip-path="url(#clip0_266_1310)">
<mask id="path-1-outside-1_266_1310" maskUnits="userSpaceOnUse" x="-1" y="-1.00586" width="48" height="42" fill="black">
<rect fill="white" x="-1" y="-1.00586" width="48" height="42"/>
<path d="M17.489 21.2783C16.9423 21.5551 16.4548 21.8009 15.9399 22.0614C15.7851 21.7728 15.6347 21.4915 15.4683 21.1836C15.9529 20.9527 16.4215 20.7276 16.9249 20.4878C16.6805 20.2006 16.4563 19.9342 16.2277 19.6677C15.9375 19.3292 15.95 19.0001 16.2653 18.6803C16.3102 18.6359 16.3579 18.5945 16.4273 18.5323C17.2518 19.4812 18.0705 20.4242 18.9037 21.382C19.2855 20.892 19.65 20.4331 19.9986 19.9623C20.0449 19.9001 20.0348 19.758 20.0015 19.6751C19.8308 19.2562 19.6312 18.8491 19.4678 18.4272C19.3911 18.2288 19.3448 18.0098 19.3304 17.7966C19.3058 17.4413 19.3144 17.0816 19.3159 16.7248C19.3159 16.565 19.2667 16.4613 19.1235 16.371C18.2687 15.8396 17.4239 15.2948 16.5705 14.7604C16.436 14.6761 16.3377 14.5917 16.3695 14.42C16.4895 13.7879 16.1583 13.3364 15.7923 12.8982C15.7837 12.8863 15.7649 12.8834 15.707 12.8523C15.707 12.9559 15.707 13.0388 15.707 13.1202C15.707 14.6154 15.7012 16.1105 15.7084 17.6041C15.7084 17.8203 15.6651 17.9357 15.4365 17.9535C15.2658 17.9668 15.098 18.0186 14.8984 18.0586C14.8825 17.8484 14.8681 17.6663 14.8521 17.4517C14.2663 17.5627 13.6964 17.6722 13.0904 17.7862C13.8035 18.9438 14.4949 20.0659 15.2065 21.2191C14.9057 21.3331 14.6352 21.4338 14.3473 21.5433C14.0725 21.0903 13.8064 20.6492 13.5373 20.2095C13.1164 19.5212 12.6984 18.8313 12.2673 18.1489C12.2254 18.0823 12.1053 18.0275 12.0258 18.0349C11.6801 18.0645 11.3358 18.1178 10.9438 18.1696C10.9438 17.8987 10.9294 17.656 10.954 17.4176C10.9598 17.3555 11.0798 17.2711 11.1594 17.2548C12.2095 17.0401 13.2611 16.8344 14.3126 16.6301C14.8493 16.5265 14.8507 16.5294 14.8493 15.9758C14.8449 14.4407 14.8406 12.9056 14.8362 11.369C14.8362 11.2743 14.8362 11.1795 14.8362 11.067C14.9809 11.0818 15.0879 11.0922 15.2369 11.107C15.2369 10.9663 15.2369 10.8405 15.2369 10.7132C15.2369 10.2173 15.2441 9.72139 15.234 9.22696C15.2326 9.12334 15.1964 8.99899 15.1328 8.92201C14.3155 7.93759 13.4896 6.96206 12.668 5.98208C12.6318 5.93915 12.6073 5.88734 12.5595 5.81332C12.3339 6.16416 12.1401 6.46762 11.9347 6.78886C11.6772 6.62306 11.4327 6.46318 11.1579 6.28554C11.4356 5.87401 11.6931 5.46692 11.9795 5.08352C12.0779 4.95177 12.1126 4.83926 12.0851 4.68679C11.8884 3.56026 11.6931 2.43372 11.4993 1.30719C11.427 0.885299 11.3561 0.461925 11.278 -0.00585938C11.3807 0.0637161 11.4501 0.111087 11.5195 0.158457C12.8387 1.03185 14.155 1.90821 15.4814 2.77124C15.6014 2.8497 15.7837 2.88226 15.9254 2.85858C18.1501 2.50034 20.3747 2.13766 22.595 1.75425C23.1172 1.66395 23.6046 1.80755 24.1007 1.886C26.107 2.20279 28.1089 2.54623 30.1136 2.86894C30.2409 2.88967 30.4044 2.8571 30.5114 2.78604C31.8595 1.89933 33.2018 1.00225 34.5456 0.108126C34.5846 0.0814801 34.6251 0.0577948 34.7047 0.0074636C34.6208 0.481169 34.5427 0.913426 34.4689 1.34568C34.2751 2.4885 34.0798 3.63279 33.8961 4.77857C33.8816 4.86443 33.9337 4.97693 33.9858 5.05687C34.2433 5.45508 34.5108 5.84737 34.7958 6.27074C34.5311 6.43802 34.2866 6.59493 34.0191 6.76517C33.8166 6.45726 33.6227 6.16416 33.4144 5.84737C33.3088 5.97764 33.2105 6.09902 33.1121 6.21893C32.3687 7.11749 31.6223 8.01457 30.8875 8.92053C30.8094 9.01675 30.7573 9.16183 30.7515 9.28765C30.7327 9.7658 30.7385 10.2454 30.7342 10.7251C30.7322 10.9925 30.8682 11.1154 31.1421 11.0937C31.1421 11.1884 31.1421 11.2802 31.1421 11.372C31.1421 13.0136 31.1435 14.6539 31.1363 16.2955C31.1363 16.4835 31.1811 16.559 31.3749 16.5946C32.522 16.8048 33.6661 17.0357 34.8117 17.2518C34.9592 17.28 35.0128 17.3347 35.0041 17.4887C34.9925 17.7048 35.0012 17.9239 35.0012 18.1844C34.6324 18.1311 34.304 18.0941 33.9814 18.0305C33.818 17.9979 33.7428 18.0542 33.6618 18.1904C33.0499 19.2251 32.4251 20.2525 31.8161 21.2902C31.7033 21.4826 31.6006 21.5329 31.4024 21.4323C31.2346 21.3464 31.048 21.2961 30.8195 21.2102C31.5051 20.0763 32.1792 18.9646 32.8778 17.8099C32.2906 17.6959 31.7322 17.5879 31.1406 17.4724C31.1218 17.6737 31.1059 17.8395 31.0871 18.0468C30.8412 18.0053 30.6011 17.9787 30.3697 17.9165C30.3219 17.9032 30.2829 17.7611 30.2814 17.6782C30.2785 16.1593 30.2814 14.6405 30.2814 13.1202C30.2814 13.0418 30.2814 12.9618 30.2814 12.8316C29.8865 13.2786 29.5336 13.6872 29.6508 14.3075C29.6942 14.5413 29.5871 14.6657 29.3933 14.7886C28.5616 15.3111 27.7444 15.8574 26.917 16.3858C26.7593 16.4865 26.6725 16.596 26.6957 16.7959C26.7998 17.6885 26.619 18.5249 26.1562 19.2858C25.9088 19.6914 25.9175 20.0141 26.2661 20.3664C26.5669 20.6714 26.8013 21.0459 27.0689 21.3923C27.9035 20.4197 28.7294 19.459 29.5683 18.4805C29.7737 18.7085 29.9632 18.9202 30.1729 19.1541C29.8084 19.5878 29.4468 20.0156 29.0606 20.476C29.5495 20.7262 30.0269 20.9689 30.5215 21.2221C30.361 21.5019 30.2149 21.7594 30.0572 22.0363C29.5322 21.7816 29.0216 21.5329 28.4864 21.2739C28.3924 21.946 28.2824 22.5766 28.2188 23.2116C28.0915 24.4803 27.6229 25.6468 27.2106 26.8296C26.0433 30.1855 24.8717 33.5414 23.703 36.8958C23.674 36.9787 23.6523 37.0631 23.6697 37.1741C23.8433 36.8943 24.0183 36.616 24.189 36.3348C26.0665 33.2276 27.9353 30.1144 29.8301 27.019C30.0312 26.6919 30.1368 26.3929 30.1324 26.0139C30.1194 24.8444 30.1324 23.675 30.1353 22.504C30.1353 22.3915 30.1353 22.279 30.1353 22.1325C30.4159 22.2139 30.6676 22.279 30.9121 22.3649C30.9526 22.3782 30.9887 22.4744 30.9887 22.5322C30.9931 23.9133 30.996 25.2945 30.9873 26.6756C30.9873 26.8814 31.0582 26.9199 31.2419 26.9835C31.7713 27.1641 32.0504 26.9421 32.3267 26.4965C33.1338 25.1938 33.9814 23.9163 34.8132 22.6299C34.8869 22.5159 34.9621 22.4034 35.0605 22.2539C35.7707 23.4722 36.3088 24.7408 36.896 26.0524C37.1376 25.5905 37.3546 25.1746 37.5918 24.7216C37.2143 24.498 36.8469 24.2804 36.4563 24.0495C36.6415 23.8127 36.831 23.5699 37.032 23.3123C39.5344 24.914 42.0208 26.5054 44.5724 28.1382C44.5362 28.0035 44.5188 27.9339 44.4986 27.8628C43.5454 24.5469 42.5922 21.231 41.6332 17.9165C41.5811 17.7359 41.4856 17.5583 41.3757 17.4073C39.8511 15.3082 38.3208 13.215 36.7919 11.1188C36.5113 10.7354 36.2307 10.352 35.9472 9.97009C35.9067 9.91531 35.8575 9.86646 35.7664 9.76136V15.9166H34.8725C34.8725 15.8292 34.8725 15.736 34.8725 15.6427C34.8754 13.4163 34.8754 11.1914 34.8869 8.96494C34.8869 8.69996 34.8349 8.47495 34.6772 8.26475C34.5441 8.08563 34.4342 7.88874 34.3069 7.69038C34.5485 7.51422 34.7727 7.35138 35.0142 7.1767C35.3455 7.64301 35.6695 8.11227 36.005 8.57265C38.0185 11.332 40.0276 14.0943 42.057 16.8403C42.3116 17.1852 42.4504 17.5538 42.5632 17.9491C43.5193 21.3242 44.474 24.6979 45.4301 28.073C45.6022 28.6815 45.7787 29.2884 45.9523 29.8953C45.9667 29.9471 45.9769 30.0004 45.9986 30.0996C43.4137 28.4476 40.868 26.8207 38.2832 25.1686C37.8319 26.1738 37.3878 27.1641 36.9308 28.1826C36.2871 26.8044 35.6521 25.4484 34.9969 24.0436C34.9072 24.1635 34.8493 24.2345 34.7987 24.3115C34.0393 25.4529 33.2814 26.5942 32.5263 27.737C32.4757 27.814 32.4381 27.9117 32.428 28.0035C32.2153 29.7843 32.007 31.5651 31.7973 33.346C31.7973 33.3534 31.7886 33.3593 31.7684 33.3874C31.5109 33.3504 31.2419 33.3105 30.9294 33.266C31.1348 31.4941 31.3402 29.734 31.5471 27.9472C31.1753 27.8762 30.8137 27.7992 30.4478 27.7459C30.3943 27.7385 30.306 27.8318 30.2655 27.8984C29.1344 29.7606 28.0018 31.6214 26.8823 33.4911C25.6441 35.562 24.4204 37.6419 23.1895 39.7173C23.1374 39.8047 23.0723 39.8831 22.9884 40.0015C21.0372 36.7478 19.1076 33.5295 17.1534 30.2713C17.4355 30.1855 17.68 30.0967 17.9316 30.0448C17.9924 30.033 18.1009 30.1351 18.1472 30.2106C18.9398 31.5326 19.7209 32.8619 20.5136 34.1838C21.0661 35.1046 21.6317 36.0165 22.1914 36.9313C22.2406 37.0128 22.297 37.0897 22.3954 37.1504C21.4595 34.4651 20.5251 31.7798 19.5777 29.0619C19.867 28.9701 20.1273 28.8872 20.3978 28.8028C21.257 31.2424 22.1075 33.6598 22.9826 36.1438C23.0419 36.018 23.0738 35.9602 23.0955 35.8981C24.3857 32.2165 25.6832 28.5364 26.9575 24.8489C27.1614 24.2582 27.2612 23.6291 27.4102 23.0177C27.3813 23.0044 27.3524 22.9911 27.3234 22.9792C27.2497 23.0947 27.1629 23.2042 27.1021 23.3271C26.2892 24.9895 25.4763 26.6519 24.6692 28.3173C24.1716 29.3432 23.6856 30.3735 23.1866 31.3979C23.1533 31.466 23.055 31.5444 22.9884 31.5429C22.9176 31.5429 22.8192 31.466 22.7845 31.3964C22.297 30.4031 21.8197 29.4039 21.338 28.4061C20.5222 26.7185 19.705 25.031 18.8863 23.3449C18.8212 23.2116 18.7373 23.0873 18.6346 22.9718C18.7214 23.8156 18.9239 24.6268 19.1987 25.4188C19.4721 26.2049 19.7469 26.988 20.029 27.7977C19.744 27.8821 19.4736 27.9635 19.1958 28.0449C18.3468 25.8703 17.6756 23.6661 17.4861 21.2813L17.489 21.2783ZM26.2516 11.295C26.2849 11.2476 26.3066 11.2239 26.321 11.1958C26.6711 10.5326 27.1036 9.93752 27.6691 9.44605C27.7227 9.40016 27.7429 9.27581 27.7313 9.19439C27.6503 8.66592 27.5549 8.13892 27.4666 7.61044C27.3668 7.01387 27.267 6.41877 27.1614 5.78371C26.9618 5.9125 26.7868 6.02057 26.6176 6.13455C25.4893 6.891 24.3582 7.64301 23.2358 8.40834C23.0651 8.5238 22.945 8.52676 22.7715 8.4113C21.5593 7.59416 20.3385 6.78738 19.1206 5.9806C19.0252 5.91694 18.9239 5.86513 18.8198 5.80592C18.7995 5.86069 18.7865 5.88141 18.7822 5.9051C18.6086 7.01979 18.435 8.133 18.2687 9.24917C18.26 9.30986 18.2831 9.40016 18.3251 9.43865C18.895 9.96712 19.3636 10.5755 19.7339 11.2639C19.7397 11.2757 19.7614 11.2772 19.7874 11.2891C20.5483 10.9471 21.3163 10.5992 22.0873 10.2558C22.3925 10.1196 22.7006 9.88571 23.0058 9.89015C23.3211 9.89459 23.635 10.13 23.9474 10.2676C24.7097 10.6066 25.472 10.9486 26.2531 11.2979L26.2516 11.295ZM17.0045 3.5869C17.0001 3.60615 16.9972 3.62539 16.9929 3.64464C17.0551 3.68608 17.1158 3.73049 17.1809 3.7675C17.6366 4.02212 18.1096 4.24565 18.5449 4.53135C19.9581 5.46248 21.3612 6.40989 22.7599 7.36471C22.932 7.48165 23.0419 7.47277 23.1996 7.36471C23.7117 7.00943 24.2324 6.66747 24.7502 6.32255C25.2753 5.97171 25.7916 5.60903 26.3283 5.27892C26.8345 4.96657 27.2873 4.5728 27.8543 4.35223C28.2116 4.21456 28.5254 3.95698 28.8581 3.75122C28.9073 3.72161 28.9492 3.68016 29.0216 3.62243C28.9232 3.59726 28.8639 3.57506 28.8032 3.56618C27.2468 3.30712 25.6904 3.04362 24.1311 2.79641C23.6654 2.72239 23.1808 2.61136 22.7237 2.67206C21.2151 2.86894 19.7137 3.13392 18.2108 3.37521C17.8072 3.44035 17.4066 3.51733 17.003 3.58838L17.0045 3.5869ZM25.8047 12.0736C24.9397 11.6843 24.0197 11.2698 23.0984 10.8612C23.0405 10.8361 22.9537 10.8346 22.8973 10.8612C22.0424 11.2506 21.1905 11.6458 20.3356 12.0366C20.2127 12.0929 20.2084 12.1625 20.2402 12.2853C20.6568 13.9181 21.069 15.5509 21.4783 17.1852C21.5478 17.4635 21.6027 17.7448 21.6707 18.0542C22.1321 17.6737 22.5617 17.3214 22.9899 16.9676C23.4354 17.3377 23.8549 17.687 24.2743 18.0349C24.7907 16.0276 25.297 14.0543 25.8061 12.0736H25.8047ZM22.5039 28.7762C22.5198 28.7718 22.5371 28.7673 22.553 28.7629C22.5559 28.7096 22.5632 28.6563 22.5632 28.6045C22.5632 27.1582 22.5632 25.7134 22.5545 24.2671C22.5545 24.1768 22.514 24.0776 22.4677 23.9977C21.8891 23 21.3062 22.0037 20.7218 21.0074C20.6669 20.9127 20.6003 20.8253 20.5251 20.7128C20.2691 21.0518 20.0319 21.3642 19.7947 21.6765C19.6399 21.8793 19.3752 22.0733 19.3578 22.2879C19.339 22.504 19.5705 22.7394 19.6833 22.9718C20.5917 24.84 21.4986 26.7082 22.4055 28.5764C22.4388 28.643 22.4706 28.7111 22.5039 28.7777V28.7762ZM23.4195 28.7466C23.4339 28.751 23.4498 28.757 23.4643 28.7614C23.6393 28.4002 23.8129 28.039 23.9894 27.6793C24.8471 25.931 25.7049 24.1827 26.5669 22.4374C26.6291 22.3101 26.632 22.2272 26.5322 22.1177C26.3818 21.9519 26.2574 21.7609 26.1185 21.5833C25.8915 21.2946 25.6629 21.0104 25.4156 20.701C25.3447 20.8194 25.2955 20.9008 25.2463 20.9837C24.6851 21.946 24.1196 22.9052 23.5685 23.8733C23.486 24.0169 23.4267 24.199 23.4253 24.3633C23.4122 25.5254 23.418 26.686 23.418 27.848C23.418 28.1471 23.418 28.4476 23.418 28.7466H23.4195ZM30.2988 7.90799C30.6156 6.44986 30.9468 4.92068 31.2824 3.3767C31.2216 3.3841 31.2043 3.38114 31.1912 3.38854C30.1541 4.0162 29.1156 4.64238 28.0828 5.27892C28.0235 5.31593 27.9845 5.45212 27.9975 5.53206C28.106 6.22041 28.2275 6.90728 28.3446 7.59416C28.4097 7.97164 28.4719 8.35061 28.5385 8.74289C28.8408 8.57413 29.1055 8.40982 29.3832 8.27807C29.658 8.14632 29.9473 8.04862 30.2973 7.90799H30.2988ZM17.4775 8.74289C17.6496 7.63709 17.8203 6.55793 17.9765 5.47728C17.9881 5.39735 17.9143 5.26264 17.842 5.21823C16.8627 4.62017 15.8762 4.03248 14.8912 3.44331C14.855 3.42111 14.8102 3.4137 14.7466 3.3915C14.7552 3.46403 14.7581 3.51141 14.7683 3.5573C15.0749 4.96509 15.3859 6.3714 15.6867 7.78068C15.7258 7.96424 15.7721 8.06342 15.9847 8.0575C16.1265 8.05454 16.2769 8.12263 16.41 8.18925C16.7658 8.36393 17.1144 8.55341 17.4775 8.74289ZM22.9711 18.0867C22.3751 18.6448 21.8067 19.1851 21.2281 19.7121C21.0878 19.8394 21.1297 19.9357 21.2035 20.0645C21.7083 20.9453 22.2088 21.8305 22.7122 22.7113C22.7903 22.8475 22.8756 22.9807 22.9609 23.1199C23 23.0873 23.0231 23.0754 23.0347 23.0562C23.6249 22.0377 24.215 21.0208 24.7965 19.9964C24.824 19.9475 24.7936 19.8232 24.7488 19.7758C24.4942 19.5093 24.2309 19.2503 23.9633 18.9986C23.6393 18.6922 23.3066 18.3946 22.9725 18.0867H22.9711ZM16.2914 9.09521C16.2726 9.224 16.2928 9.36463 16.235 9.42088C16.0701 9.58076 16.0932 9.7732 16.0918 9.96416C16.0903 10.4468 16.0382 10.9323 16.2682 11.3912C16.4881 11.8294 16.6805 12.2809 16.8916 12.7235C16.9191 12.7827 16.99 12.8567 17.0435 12.8582C17.3285 12.8686 17.6134 12.8627 17.8998 12.8508C17.9432 12.8493 17.9895 12.7931 18.0242 12.7516C18.3149 12.4156 18.6028 12.0766 18.9152 11.7124C18.4148 10.5297 17.4095 9.7732 16.2885 9.09521H16.2914ZM27.0949 11.7287C27.2902 11.933 27.4623 12.0751 27.5867 12.2513C28.0394 12.8893 28.0322 12.8893 28.8176 12.8701C28.9724 12.8656 29.0751 12.8153 29.1416 12.6761C29.3036 12.3327 29.4772 11.9952 29.6276 11.6458C29.8142 11.2136 29.9386 10.768 29.8706 10.2839C29.8171 9.89903 29.7766 9.51118 29.7274 9.09521C28.5486 9.7436 27.6272 10.5711 27.0949 11.7272V11.7287ZM12.451 1.86972C12.5856 2.60988 12.7085 3.27751 12.8271 3.94662C12.872 4.20124 12.9009 4.45882 12.9472 4.71343C12.9689 4.83186 12.9819 4.97249 13.0528 5.05687C13.5069 5.60903 13.9742 6.15083 14.4385 6.69412C14.4703 6.73112 14.5122 6.75925 14.5802 6.81698C14.5715 6.73556 14.5715 6.6956 14.5643 6.65711C14.2953 5.37366 14.0248 4.09021 13.7528 2.80677C13.7413 2.75496 13.7152 2.6913 13.6747 2.66614C13.2914 2.41004 12.9023 2.16134 12.4539 1.8712L12.451 1.86972ZM31.4646 6.76961C31.4878 6.75629 31.5124 6.74889 31.5268 6.7326C32.0128 6.15528 32.5003 5.57795 32.982 4.99618C33.0196 4.95177 33.0355 4.88071 33.0441 4.82002C33.1353 4.2116 33.2192 3.60171 33.3132 2.99329C33.3682 2.63949 33.4347 2.28865 33.5041 1.89785C33.1063 2.16134 32.7462 2.39524 32.3918 2.63949C32.3339 2.67946 32.2833 2.7594 32.2689 2.83045C31.9984 4.13759 31.7337 5.44472 31.4646 6.76961ZM28.78 13.7671C28.5254 13.7671 28.2578 13.7523 27.9931 13.7731C27.8225 13.7864 27.7067 13.7257 27.5997 13.6043C27.3856 13.366 27.1687 13.1291 26.9445 12.8997C26.8736 12.8271 26.7767 12.7842 26.6422 12.6939V15.3985C26.7463 15.3407 26.823 15.3008 26.8967 15.2578C27.4594 14.9262 28.0177 14.5858 28.5862 14.2675C28.7887 14.1535 28.861 14.0203 28.78 13.7671ZM19.3723 12.6406C19.2479 12.7383 19.1756 12.7842 19.1163 12.8449C18.8689 13.0965 18.6332 13.3615 18.3771 13.6013C18.2889 13.6842 18.1544 13.7434 18.0343 13.7568C17.8072 13.7819 17.5744 13.7686 17.3444 13.7642C17.2128 13.7612 17.1318 13.816 17.1723 13.9477C17.2041 14.0499 17.2648 14.1727 17.3487 14.2216C17.9403 14.5695 18.5391 14.9011 19.138 15.2371C19.2045 15.2741 19.2754 15.3052 19.3723 15.3526V12.6406ZM20.6871 19.0963L20.7869 19.1096C20.8332 18.9838 20.9374 18.8461 20.9157 18.7351C20.7161 17.767 20.4933 16.8048 20.2763 15.8411C20.2604 15.77 20.23 15.7019 20.2055 15.6323C20.1505 15.9255 20.1476 16.2052 20.1505 16.485C20.1548 16.9217 20.097 17.3732 20.1852 17.7922C20.2807 18.2422 20.5136 18.6626 20.6871 19.0963ZM25.8495 15.6279C25.8322 15.6235 25.8148 15.6175 25.7989 15.6131C25.7757 15.6886 25.7483 15.7611 25.7309 15.8381C25.5168 16.7929 25.31 17.7492 25.0887 18.7026C25.0424 18.9024 25.0916 19.0253 25.2738 19.1363C25.4387 18.7573 25.6022 18.3887 25.7555 18.0186C25.8003 17.9091 25.8437 17.7877 25.8452 17.6708C25.8538 16.9913 25.8495 16.3103 25.8495 15.6309V15.6279Z"/>
<path d="M0 30.1115C0.240111 29.2632 0.461418 28.4787 0.682724 27.6926C1.62581 24.3397 2.57179 20.9882 3.50619 17.6323C3.57562 17.3821 3.68845 17.1763 3.83599 16.9735C6.17779 13.7568 8.5167 10.5371 10.8571 7.31881C10.8845 7.28033 10.9164 7.2448 10.9612 7.18706C11.1955 7.35582 11.4255 7.52162 11.6729 7.69926C11.5137 7.94055 11.3517 8.15964 11.2201 8.39797C11.1463 8.5312 11.0841 8.69552 11.0841 8.84651C11.0755 11.0729 11.0769 13.2979 11.0769 15.5243C11.0769 15.6531 11.0769 15.7819 11.0769 15.9284H10.2148V9.80429L10.1512 9.78948C10.089 9.86942 10.0253 9.94936 9.96459 10.0323C8.12471 12.5592 6.28483 15.0846 4.44639 17.613C4.41457 17.6574 4.3813 17.7063 4.36683 17.7596C3.40639 21.1584 2.44884 24.5573 1.48984 27.9561C1.48116 27.9857 1.47972 28.0183 1.46381 28.1101C3.99076 26.495 6.47865 24.9051 8.98535 23.3034C9.18785 23.5536 9.37878 23.789 9.56971 24.0243C9.17917 24.2671 8.79876 24.504 8.40387 24.7482C8.63097 25.1938 8.84504 25.6127 9.06346 26.0406C9.66663 24.7601 10.2611 23.5003 10.8788 22.1887C11.346 22.9126 11.7669 23.5684 12.1921 24.2197C12.7779 25.1183 13.3681 26.0124 13.9525 26.9125C14.0335 27.0368 14.1188 27.0931 14.2649 27.0605C14.4963 27.0072 14.7306 26.9658 14.9867 26.9139V22.396C15.2789 22.3175 15.5508 22.2435 15.8618 22.1576C15.8618 22.2938 15.8618 22.3886 15.8618 22.4833C15.8632 23.7756 15.8618 25.0665 15.8733 26.3588C15.8748 26.5069 15.9384 26.6712 16.018 26.7985C16.5069 27.5757 17.0088 28.3454 17.5295 29.1522C17.2345 29.2573 16.9698 29.3535 16.6848 29.4542C16.3666 28.9435 16.0411 28.4461 15.7446 27.9309C15.6361 27.7429 15.5262 27.6956 15.3309 27.7503C15.1024 27.814 14.8666 27.8569 14.6323 27.8984C14.479 27.925 14.4283 27.9827 14.4515 28.1589C14.667 29.8332 14.871 31.5089 15.0778 33.1831C15.0792 33.1979 15.072 33.2142 15.0633 33.2542C14.8001 33.2897 14.5296 33.3253 14.2258 33.3667C14.1824 33.0499 14.139 32.7494 14.1029 32.4474C13.9221 30.9656 13.7456 29.4838 13.5619 28.002C13.5503 27.9102 13.5113 27.8125 13.4592 27.734C12.6839 26.5557 11.9043 25.3788 11.1261 24.2035C11.0928 24.1531 11.0494 24.1087 10.9786 24.0214C10.3363 25.4262 9.71002 26.797 9.05767 28.224C8.59336 27.1952 8.14785 26.2078 7.6821 25.179C5.13201 26.8177 2.59782 28.4476 0.0028929 30.1159L0 30.1115Z"/>
<path d="M24.7791 14.1106C24.2454 13.8619 23.7377 13.6339 23.2387 13.3867C23.0868 13.3112 22.9667 13.3097 22.8149 13.3793C22.2956 13.6176 21.7691 13.8426 21.2165 14.0854C21.1153 13.816 21.0198 13.5628 20.9186 13.2919C21.0328 13.2313 21.1283 13.1765 21.2267 13.1291C21.7676 12.876 22.3072 12.6184 22.8525 12.3771C22.9392 12.3386 23.0709 12.3371 23.1577 12.3771C23.7391 12.6376 24.3119 12.9174 24.8905 13.1824C25.0236 13.2431 25.0742 13.3082 25.0106 13.4592C24.9267 13.6591 24.863 13.8693 24.7791 14.1106Z"/>
<path d="M17.4919 12.2039C17.0016 12.2009 16.6501 11.8827 16.6486 11.443C16.6486 10.9693 17.0319 10.5933 17.5093 10.6022C17.9345 10.6096 18.2846 10.9797 18.2817 11.4208C18.2788 11.8753 17.9447 12.2069 17.4905 12.2039H17.4919Z"/>
<path d="M28.511 12.2083C28.0163 12.1995 27.7111 11.893 27.7154 11.409C27.7198 10.9945 28.1161 10.5918 28.5139 10.5992C28.9738 10.6081 29.3731 11.0048 29.3629 11.4445C29.3528 11.8827 28.9796 12.2172 28.511 12.2083Z"/>
</mask>
<path d="M17.489 21.2783C16.9423 21.5551 16.4548 21.8009 15.9399 22.0614C15.7851 21.7728 15.6347 21.4915 15.4683 21.1836C15.9529 20.9527 16.4215 20.7276 16.9249 20.4878C16.6805 20.2006 16.4563 19.9342 16.2277 19.6677C15.9375 19.3292 15.95 19.0001 16.2653 18.6803C16.3102 18.6359 16.3579 18.5945 16.4273 18.5323C17.2518 19.4812 18.0705 20.4242 18.9037 21.382C19.2855 20.892 19.65 20.4331 19.9986 19.9623C20.0449 19.9001 20.0348 19.758 20.0015 19.6751C19.8308 19.2562 19.6312 18.8491 19.4678 18.4272C19.3911 18.2288 19.3448 18.0098 19.3304 17.7966C19.3058 17.4413 19.3144 17.0816 19.3159 16.7248C19.3159 16.565 19.2667 16.4613 19.1235 16.371C18.2687 15.8396 17.4239 15.2948 16.5705 14.7604C16.436 14.6761 16.3377 14.5917 16.3695 14.42C16.4895 13.7879 16.1583 13.3364 15.7923 12.8982C15.7837 12.8863 15.7649 12.8834 15.707 12.8523C15.707 12.9559 15.707 13.0388 15.707 13.1202C15.707 14.6154 15.7012 16.1105 15.7084 17.6041C15.7084 17.8203 15.6651 17.9357 15.4365 17.9535C15.2658 17.9668 15.098 18.0186 14.8984 18.0586C14.8825 17.8484 14.8681 17.6663 14.8521 17.4517C14.2663 17.5627 13.6964 17.6722 13.0904 17.7862C13.8035 18.9438 14.4949 20.0659 15.2065 21.2191C14.9057 21.3331 14.6352 21.4338 14.3473 21.5433C14.0725 21.0903 13.8064 20.6492 13.5373 20.2095C13.1164 19.5212 12.6984 18.8313 12.2673 18.1489C12.2254 18.0823 12.1053 18.0275 12.0258 18.0349C11.6801 18.0645 11.3358 18.1178 10.9438 18.1696C10.9438 17.8987 10.9294 17.656 10.954 17.4176C10.9598 17.3555 11.0798 17.2711 11.1594 17.2548C12.2095 17.0401 13.2611 16.8344 14.3126 16.6301C14.8493 16.5265 14.8507 16.5294 14.8493 15.9758C14.8449 14.4407 14.8406 12.9056 14.8362 11.369C14.8362 11.2743 14.8362 11.1795 14.8362 11.067C14.9809 11.0818 15.0879 11.0922 15.2369 11.107C15.2369 10.9663 15.2369 10.8405 15.2369 10.7132C15.2369 10.2173 15.2441 9.72139 15.234 9.22696C15.2326 9.12334 15.1964 8.99899 15.1328 8.92201C14.3155 7.93759 13.4896 6.96206 12.668 5.98208C12.6318 5.93915 12.6073 5.88734 12.5595 5.81332C12.3339 6.16416 12.1401 6.46762 11.9347 6.78886C11.6772 6.62306 11.4327 6.46318 11.1579 6.28554C11.4356 5.87401 11.6931 5.46692 11.9795 5.08352C12.0779 4.95177 12.1126 4.83926 12.0851 4.68679C11.8884 3.56026 11.6931 2.43372 11.4993 1.30719C11.427 0.885299 11.3561 0.461925 11.278 -0.00585938C11.3807 0.0637161 11.4501 0.111087 11.5195 0.158457C12.8387 1.03185 14.155 1.90821 15.4814 2.77124C15.6014 2.8497 15.7837 2.88226 15.9254 2.85858C18.1501 2.50034 20.3747 2.13766 22.595 1.75425C23.1172 1.66395 23.6046 1.80755 24.1007 1.886C26.107 2.20279 28.1089 2.54623 30.1136 2.86894C30.2409 2.88967 30.4044 2.8571 30.5114 2.78604C31.8595 1.89933 33.2018 1.00225 34.5456 0.108126C34.5846 0.0814801 34.6251 0.0577948 34.7047 0.0074636C34.6208 0.481169 34.5427 0.913426 34.4689 1.34568C34.2751 2.4885 34.0798 3.63279 33.8961 4.77857C33.8816 4.86443 33.9337 4.97693 33.9858 5.05687C34.2433 5.45508 34.5108 5.84737 34.7958 6.27074C34.5311 6.43802 34.2866 6.59493 34.0191 6.76517C33.8166 6.45726 33.6227 6.16416 33.4144 5.84737C33.3088 5.97764 33.2105 6.09902 33.1121 6.21893C32.3687 7.11749 31.6223 8.01457 30.8875 8.92053C30.8094 9.01675 30.7573 9.16183 30.7515 9.28765C30.7327 9.7658 30.7385 10.2454 30.7342 10.7251C30.7322 10.9925 30.8682 11.1154 31.1421 11.0937C31.1421 11.1884 31.1421 11.2802 31.1421 11.372C31.1421 13.0136 31.1435 14.6539 31.1363 16.2955C31.1363 16.4835 31.1811 16.559 31.3749 16.5946C32.522 16.8048 33.6661 17.0357 34.8117 17.2518C34.9592 17.28 35.0128 17.3347 35.0041 17.4887C34.9925 17.7048 35.0012 17.9239 35.0012 18.1844C34.6324 18.1311 34.304 18.0941 33.9814 18.0305C33.818 17.9979 33.7428 18.0542 33.6618 18.1904C33.0499 19.2251 32.4251 20.2525 31.8161 21.2902C31.7033 21.4826 31.6006 21.5329 31.4024 21.4323C31.2346 21.3464 31.048 21.2961 30.8195 21.2102C31.5051 20.0763 32.1792 18.9646 32.8778 17.8099C32.2906 17.6959 31.7322 17.5879 31.1406 17.4724C31.1218 17.6737 31.1059 17.8395 31.0871 18.0468C30.8412 18.0053 30.6011 17.9787 30.3697 17.9165C30.3219 17.9032 30.2829 17.7611 30.2814 17.6782C30.2785 16.1593 30.2814 14.6405 30.2814 13.1202C30.2814 13.0418 30.2814 12.9618 30.2814 12.8316C29.8865 13.2786 29.5336 13.6872 29.6508 14.3075C29.6942 14.5413 29.5871 14.6657 29.3933 14.7886C28.5616 15.3111 27.7444 15.8574 26.917 16.3858C26.7593 16.4865 26.6725 16.596 26.6957 16.7959C26.7998 17.6885 26.619 18.5249 26.1562 19.2858C25.9088 19.6914 25.9175 20.0141 26.2661 20.3664C26.5669 20.6714 26.8013 21.0459 27.0689 21.3923C27.9035 20.4197 28.7294 19.459 29.5683 18.4805C29.7737 18.7085 29.9632 18.9202 30.1729 19.1541C29.8084 19.5878 29.4468 20.0156 29.0606 20.476C29.5495 20.7262 30.0269 20.9689 30.5215 21.2221C30.361 21.5019 30.2149 21.7594 30.0572 22.0363C29.5322 21.7816 29.0216 21.5329 28.4864 21.2739C28.3924 21.946 28.2824 22.5766 28.2188 23.2116C28.0915 24.4803 27.6229 25.6468 27.2106 26.8296C26.0433 30.1855 24.8717 33.5414 23.703 36.8958C23.674 36.9787 23.6523 37.0631 23.6697 37.1741C23.8433 36.8943 24.0183 36.616 24.189 36.3348C26.0665 33.2276 27.9353 30.1144 29.8301 27.019C30.0312 26.6919 30.1368 26.3929 30.1324 26.0139C30.1194 24.8444 30.1324 23.675 30.1353 22.504C30.1353 22.3915 30.1353 22.279 30.1353 22.1325C30.4159 22.2139 30.6676 22.279 30.9121 22.3649C30.9526 22.3782 30.9887 22.4744 30.9887 22.5322C30.9931 23.9133 30.996 25.2945 30.9873 26.6756C30.9873 26.8814 31.0582 26.9199 31.2419 26.9835C31.7713 27.1641 32.0504 26.9421 32.3267 26.4965C33.1338 25.1938 33.9814 23.9163 34.8132 22.6299C34.8869 22.5159 34.9621 22.4034 35.0605 22.2539C35.7707 23.4722 36.3088 24.7408 36.896 26.0524C37.1376 25.5905 37.3546 25.1746 37.5918 24.7216C37.2143 24.498 36.8469 24.2804 36.4563 24.0495C36.6415 23.8127 36.831 23.5699 37.032 23.3123C39.5344 24.914 42.0208 26.5054 44.5724 28.1382C44.5362 28.0035 44.5188 27.9339 44.4986 27.8628C43.5454 24.5469 42.5922 21.231 41.6332 17.9165C41.5811 17.7359 41.4856 17.5583 41.3757 17.4073C39.8511 15.3082 38.3208 13.215 36.7919 11.1188C36.5113 10.7354 36.2307 10.352 35.9472 9.97009C35.9067 9.91531 35.8575 9.86646 35.7664 9.76136V15.9166H34.8725C34.8725 15.8292 34.8725 15.736 34.8725 15.6427C34.8754 13.4163 34.8754 11.1914 34.8869 8.96494C34.8869 8.69996 34.8349 8.47495 34.6772 8.26475C34.5441 8.08563 34.4342 7.88874 34.3069 7.69038C34.5485 7.51422 34.7727 7.35138 35.0142 7.1767C35.3455 7.64301 35.6695 8.11227 36.005 8.57265C38.0185 11.332 40.0276 14.0943 42.057 16.8403C42.3116 17.1852 42.4504 17.5538 42.5632 17.9491C43.5193 21.3242 44.474 24.6979 45.4301 28.073C45.6022 28.6815 45.7787 29.2884 45.9523 29.8953C45.9667 29.9471 45.9769 30.0004 45.9986 30.0996C43.4137 28.4476 40.868 26.8207 38.2832 25.1686C37.8319 26.1738 37.3878 27.1641 36.9308 28.1826C36.2871 26.8044 35.6521 25.4484 34.9969 24.0436C34.9072 24.1635 34.8493 24.2345 34.7987 24.3115C34.0393 25.4529 33.2814 26.5942 32.5263 27.737C32.4757 27.814 32.4381 27.9117 32.428 28.0035C32.2153 29.7843 32.007 31.5651 31.7973 33.346C31.7973 33.3534 31.7886 33.3593 31.7684 33.3874C31.5109 33.3504 31.2419 33.3105 30.9294 33.266C31.1348 31.4941 31.3402 29.734 31.5471 27.9472C31.1753 27.8762 30.8137 27.7992 30.4478 27.7459C30.3943 27.7385 30.306 27.8318 30.2655 27.8984C29.1344 29.7606 28.0018 31.6214 26.8823 33.4911C25.6441 35.562 24.4204 37.6419 23.1895 39.7173C23.1374 39.8047 23.0723 39.8831 22.9884 40.0015C21.0372 36.7478 19.1076 33.5295 17.1534 30.2713C17.4355 30.1855 17.68 30.0967 17.9316 30.0448C17.9924 30.033 18.1009 30.1351 18.1472 30.2106C18.9398 31.5326 19.7209 32.8619 20.5136 34.1838C21.0661 35.1046 21.6317 36.0165 22.1914 36.9313C22.2406 37.0128 22.297 37.0897 22.3954 37.1504C21.4595 34.4651 20.5251 31.7798 19.5777 29.0619C19.867 28.9701 20.1273 28.8872 20.3978 28.8028C21.257 31.2424 22.1075 33.6598 22.9826 36.1438C23.0419 36.018 23.0738 35.9602 23.0955 35.8981C24.3857 32.2165 25.6832 28.5364 26.9575 24.8489C27.1614 24.2582 27.2612 23.6291 27.4102 23.0177C27.3813 23.0044 27.3524 22.9911 27.3234 22.9792C27.2497 23.0947 27.1629 23.2042 27.1021 23.3271C26.2892 24.9895 25.4763 26.6519 24.6692 28.3173C24.1716 29.3432 23.6856 30.3735 23.1866 31.3979C23.1533 31.466 23.055 31.5444 22.9884 31.5429C22.9176 31.5429 22.8192 31.466 22.7845 31.3964C22.297 30.4031 21.8197 29.4039 21.338 28.4061C20.5222 26.7185 19.705 25.031 18.8863 23.3449C18.8212 23.2116 18.7373 23.0873 18.6346 22.9718C18.7214 23.8156 18.9239 24.6268 19.1987 25.4188C19.4721 26.2049 19.7469 26.988 20.029 27.7977C19.744 27.8821 19.4736 27.9635 19.1958 28.0449C18.3468 25.8703 17.6756 23.6661 17.4861 21.2813L17.489 21.2783ZM26.2516 11.295C26.2849 11.2476 26.3066 11.2239 26.321 11.1958C26.6711 10.5326 27.1036 9.93752 27.6691 9.44605C27.7227 9.40016 27.7429 9.27581 27.7313 9.19439C27.6503 8.66592 27.5549 8.13892 27.4666 7.61044C27.3668 7.01387 27.267 6.41877 27.1614 5.78371C26.9618 5.9125 26.7868 6.02057 26.6176 6.13455C25.4893 6.891 24.3582 7.64301 23.2358 8.40834C23.0651 8.5238 22.945 8.52676 22.7715 8.4113C21.5593 7.59416 20.3385 6.78738 19.1206 5.9806C19.0252 5.91694 18.9239 5.86513 18.8198 5.80592C18.7995 5.86069 18.7865 5.88141 18.7822 5.9051C18.6086 7.01979 18.435 8.133 18.2687 9.24917C18.26 9.30986 18.2831 9.40016 18.3251 9.43865C18.895 9.96712 19.3636 10.5755 19.7339 11.2639C19.7397 11.2757 19.7614 11.2772 19.7874 11.2891C20.5483 10.9471 21.3163 10.5992 22.0873 10.2558C22.3925 10.1196 22.7006 9.88571 23.0058 9.89015C23.3211 9.89459 23.635 10.13 23.9474 10.2676C24.7097 10.6066 25.472 10.9486 26.2531 11.2979L26.2516 11.295ZM17.0045 3.5869C17.0001 3.60615 16.9972 3.62539 16.9929 3.64464C17.0551 3.68608 17.1158 3.73049 17.1809 3.7675C17.6366 4.02212 18.1096 4.24565 18.5449 4.53135C19.9581 5.46248 21.3612 6.40989 22.7599 7.36471C22.932 7.48165 23.0419 7.47277 23.1996 7.36471C23.7117 7.00943 24.2324 6.66747 24.7502 6.32255C25.2753 5.97171 25.7916 5.60903 26.3283 5.27892C26.8345 4.96657 27.2873 4.5728 27.8543 4.35223C28.2116 4.21456 28.5254 3.95698 28.8581 3.75122C28.9073 3.72161 28.9492 3.68016 29.0216 3.62243C28.9232 3.59726 28.8639 3.57506 28.8032 3.56618C27.2468 3.30712 25.6904 3.04362 24.1311 2.79641C23.6654 2.72239 23.1808 2.61136 22.7237 2.67206C21.2151 2.86894 19.7137 3.13392 18.2108 3.37521C17.8072 3.44035 17.4066 3.51733 17.003 3.58838L17.0045 3.5869ZM25.8047 12.0736C24.9397 11.6843 24.0197 11.2698 23.0984 10.8612C23.0405 10.8361 22.9537 10.8346 22.8973 10.8612C22.0424 11.2506 21.1905 11.6458 20.3356 12.0366C20.2127 12.0929 20.2084 12.1625 20.2402 12.2853C20.6568 13.9181 21.069 15.5509 21.4783 17.1852C21.5478 17.4635 21.6027 17.7448 21.6707 18.0542C22.1321 17.6737 22.5617 17.3214 22.9899 16.9676C23.4354 17.3377 23.8549 17.687 24.2743 18.0349C24.7907 16.0276 25.297 14.0543 25.8061 12.0736H25.8047ZM22.5039 28.7762C22.5198 28.7718 22.5371 28.7673 22.553 28.7629C22.5559 28.7096 22.5632 28.6563 22.5632 28.6045C22.5632 27.1582 22.5632 25.7134 22.5545 24.2671C22.5545 24.1768 22.514 24.0776 22.4677 23.9977C21.8891 23 21.3062 22.0037 20.7218 21.0074C20.6669 20.9127 20.6003 20.8253 20.5251 20.7128C20.2691 21.0518 20.0319 21.3642 19.7947 21.6765C19.6399 21.8793 19.3752 22.0733 19.3578 22.2879C19.339 22.504 19.5705 22.7394 19.6833 22.9718C20.5917 24.84 21.4986 26.7082 22.4055 28.5764C22.4388 28.643 22.4706 28.7111 22.5039 28.7777V28.7762ZM23.4195 28.7466C23.4339 28.751 23.4498 28.757 23.4643 28.7614C23.6393 28.4002 23.8129 28.039 23.9894 27.6793C24.8471 25.931 25.7049 24.1827 26.5669 22.4374C26.6291 22.3101 26.632 22.2272 26.5322 22.1177C26.3818 21.9519 26.2574 21.7609 26.1185 21.5833C25.8915 21.2946 25.6629 21.0104 25.4156 20.701C25.3447 20.8194 25.2955 20.9008 25.2463 20.9837C24.6851 21.946 24.1196 22.9052 23.5685 23.8733C23.486 24.0169 23.4267 24.199 23.4253 24.3633C23.4122 25.5254 23.418 26.686 23.418 27.848C23.418 28.1471 23.418 28.4476 23.418 28.7466H23.4195ZM30.2988 7.90799C30.6156 6.44986 30.9468 4.92068 31.2824 3.3767C31.2216 3.3841 31.2043 3.38114 31.1912 3.38854C30.1541 4.0162 29.1156 4.64238 28.0828 5.27892C28.0235 5.31593 27.9845 5.45212 27.9975 5.53206C28.106 6.22041 28.2275 6.90728 28.3446 7.59416C28.4097 7.97164 28.4719 8.35061 28.5385 8.74289C28.8408 8.57413 29.1055 8.40982 29.3832 8.27807C29.658 8.14632 29.9473 8.04862 30.2973 7.90799H30.2988ZM17.4775 8.74289C17.6496 7.63709 17.8203 6.55793 17.9765 5.47728C17.9881 5.39735 17.9143 5.26264 17.842 5.21823C16.8627 4.62017 15.8762 4.03248 14.8912 3.44331C14.855 3.42111 14.8102 3.4137 14.7466 3.3915C14.7552 3.46403 14.7581 3.51141 14.7683 3.5573C15.0749 4.96509 15.3859 6.3714 15.6867 7.78068C15.7258 7.96424 15.7721 8.06342 15.9847 8.0575C16.1265 8.05454 16.2769 8.12263 16.41 8.18925C16.7658 8.36393 17.1144 8.55341 17.4775 8.74289ZM22.9711 18.0867C22.3751 18.6448 21.8067 19.1851 21.2281 19.7121C21.0878 19.8394 21.1297 19.9357 21.2035 20.0645C21.7083 20.9453 22.2088 21.8305 22.7122 22.7113C22.7903 22.8475 22.8756 22.9807 22.9609 23.1199C23 23.0873 23.0231 23.0754 23.0347 23.0562C23.6249 22.0377 24.215 21.0208 24.7965 19.9964C24.824 19.9475 24.7936 19.8232 24.7488 19.7758C24.4942 19.5093 24.2309 19.2503 23.9633 18.9986C23.6393 18.6922 23.3066 18.3946 22.9725 18.0867H22.9711ZM16.2914 9.09521C16.2726 9.224 16.2928 9.36463 16.235 9.42088C16.0701 9.58076 16.0932 9.7732 16.0918 9.96416C16.0903 10.4468 16.0382 10.9323 16.2682 11.3912C16.4881 11.8294 16.6805 12.2809 16.8916 12.7235C16.9191 12.7827 16.99 12.8567 17.0435 12.8582C17.3285 12.8686 17.6134 12.8627 17.8998 12.8508C17.9432 12.8493 17.9895 12.7931 18.0242 12.7516C18.3149 12.4156 18.6028 12.0766 18.9152 11.7124C18.4148 10.5297 17.4095 9.7732 16.2885 9.09521H16.2914ZM27.0949 11.7287C27.2902 11.933 27.4623 12.0751 27.5867 12.2513C28.0394 12.8893 28.0322 12.8893 28.8176 12.8701C28.9724 12.8656 29.0751 12.8153 29.1416 12.6761C29.3036 12.3327 29.4772 11.9952 29.6276 11.6458C29.8142 11.2136 29.9386 10.768 29.8706 10.2839C29.8171 9.89903 29.7766 9.51118 29.7274 9.09521C28.5486 9.7436 27.6272 10.5711 27.0949 11.7272V11.7287ZM12.451 1.86972C12.5856 2.60988 12.7085 3.27751 12.8271 3.94662C12.872 4.20124 12.9009 4.45882 12.9472 4.71343C12.9689 4.83186 12.9819 4.97249 13.0528 5.05687C13.5069 5.60903 13.9742 6.15083 14.4385 6.69412C14.4703 6.73112 14.5122 6.75925 14.5802 6.81698C14.5715 6.73556 14.5715 6.6956 14.5643 6.65711C14.2953 5.37366 14.0248 4.09021 13.7528 2.80677C13.7413 2.75496 13.7152 2.6913 13.6747 2.66614C13.2914 2.41004 12.9023 2.16134 12.4539 1.8712L12.451 1.86972ZM31.4646 6.76961C31.4878 6.75629 31.5124 6.74889 31.5268 6.7326C32.0128 6.15528 32.5003 5.57795 32.982 4.99618C33.0196 4.95177 33.0355 4.88071 33.0441 4.82002C33.1353 4.2116 33.2192 3.60171 33.3132 2.99329C33.3682 2.63949 33.4347 2.28865 33.5041 1.89785C33.1063 2.16134 32.7462 2.39524 32.3918 2.63949C32.3339 2.67946 32.2833 2.7594 32.2689 2.83045C31.9984 4.13759 31.7337 5.44472 31.4646 6.76961ZM28.78 13.7671C28.5254 13.7671 28.2578 13.7523 27.9931 13.7731C27.8225 13.7864 27.7067 13.7257 27.5997 13.6043C27.3856 13.366 27.1687 13.1291 26.9445 12.8997C26.8736 12.8271 26.7767 12.7842 26.6422 12.6939V15.3985C26.7463 15.3407 26.823 15.3008 26.8967 15.2578C27.4594 14.9262 28.0177 14.5858 28.5862 14.2675C28.7887 14.1535 28.861 14.0203 28.78 13.7671ZM19.3723 12.6406C19.2479 12.7383 19.1756 12.7842 19.1163 12.8449C18.8689 13.0965 18.6332 13.3615 18.3771 13.6013C18.2889 13.6842 18.1544 13.7434 18.0343 13.7568C17.8072 13.7819 17.5744 13.7686 17.3444 13.7642C17.2128 13.7612 17.1318 13.816 17.1723 13.9477C17.2041 14.0499 17.2648 14.1727 17.3487 14.2216C17.9403 14.5695 18.5391 14.9011 19.138 15.2371C19.2045 15.2741 19.2754 15.3052 19.3723 15.3526V12.6406ZM20.6871 19.0963L20.7869 19.1096C20.8332 18.9838 20.9374 18.8461 20.9157 18.7351C20.7161 17.767 20.4933 16.8048 20.2763 15.8411C20.2604 15.77 20.23 15.7019 20.2055 15.6323C20.1505 15.9255 20.1476 16.2052 20.1505 16.485C20.1548 16.9217 20.097 17.3732 20.1852 17.7922C20.2807 18.2422 20.5136 18.6626 20.6871 19.0963ZM25.8495 15.6279C25.8322 15.6235 25.8148 15.6175 25.7989 15.6131C25.7757 15.6886 25.7483 15.7611 25.7309 15.8381C25.5168 16.7929 25.31 17.7492 25.0887 18.7026C25.0424 18.9024 25.0916 19.0253 25.2738 19.1363C25.4387 18.7573 25.6022 18.3887 25.7555 18.0186C25.8003 17.9091 25.8437 17.7877 25.8452 17.6708C25.8538 16.9913 25.8495 16.3103 25.8495 15.6309V15.6279Z" fill="#FFEB61"/>
<path d="M0 30.1115C0.240111 29.2632 0.461418 28.4787 0.682724 27.6926C1.62581 24.3397 2.57179 20.9882 3.50619 17.6323C3.57562 17.3821 3.68845 17.1763 3.83599 16.9735C6.17779 13.7568 8.5167 10.5371 10.8571 7.31881C10.8845 7.28033 10.9164 7.2448 10.9612 7.18706C11.1955 7.35582 11.4255 7.52162 11.6729 7.69926C11.5137 7.94055 11.3517 8.15964 11.2201 8.39797C11.1463 8.5312 11.0841 8.69552 11.0841 8.84651C11.0755 11.0729 11.0769 13.2979 11.0769 15.5243C11.0769 15.6531 11.0769 15.7819 11.0769 15.9284H10.2148V9.80429L10.1512 9.78948C10.089 9.86942 10.0253 9.94936 9.96459 10.0323C8.12471 12.5592 6.28483 15.0846 4.44639 17.613C4.41457 17.6574 4.3813 17.7063 4.36683 17.7596C3.40639 21.1584 2.44884 24.5573 1.48984 27.9561C1.48116 27.9857 1.47972 28.0183 1.46381 28.1101C3.99076 26.495 6.47865 24.9051 8.98535 23.3034C9.18785 23.5536 9.37878 23.789 9.56971 24.0243C9.17917 24.2671 8.79876 24.504 8.40387 24.7482C8.63097 25.1938 8.84504 25.6127 9.06346 26.0406C9.66663 24.7601 10.2611 23.5003 10.8788 22.1887C11.346 22.9126 11.7669 23.5684 12.1921 24.2197C12.7779 25.1183 13.3681 26.0124 13.9525 26.9125C14.0335 27.0368 14.1188 27.0931 14.2649 27.0605C14.4963 27.0072 14.7306 26.9658 14.9867 26.9139V22.396C15.2789 22.3175 15.5508 22.2435 15.8618 22.1576C15.8618 22.2938 15.8618 22.3886 15.8618 22.4833C15.8632 23.7756 15.8618 25.0665 15.8733 26.3588C15.8748 26.5069 15.9384 26.6712 16.018 26.7985C16.5069 27.5757 17.0088 28.3454 17.5295 29.1522C17.2345 29.2573 16.9698 29.3535 16.6848 29.4542C16.3666 28.9435 16.0411 28.4461 15.7446 27.9309C15.6361 27.7429 15.5262 27.6956 15.3309 27.7503C15.1024 27.814 14.8666 27.8569 14.6323 27.8984C14.479 27.925 14.4283 27.9827 14.4515 28.1589C14.667 29.8332 14.871 31.5089 15.0778 33.1831C15.0792 33.1979 15.072 33.2142 15.0633 33.2542C14.8001 33.2897 14.5296 33.3253 14.2258 33.3667C14.1824 33.0499 14.139 32.7494 14.1029 32.4474C13.9221 30.9656 13.7456 29.4838 13.5619 28.002C13.5503 27.9102 13.5113 27.8125 13.4592 27.734C12.6839 26.5557 11.9043 25.3788 11.1261 24.2035C11.0928 24.1531 11.0494 24.1087 10.9786 24.0214C10.3363 25.4262 9.71002 26.797 9.05767 28.224C8.59336 27.1952 8.14785 26.2078 7.6821 25.179C5.13201 26.8177 2.59782 28.4476 0.0028929 30.1159L0 30.1115Z" fill="#FFEB61"/>
<path d="M24.7791 14.1106C24.2454 13.8619 23.7377 13.6339 23.2387 13.3867C23.0868 13.3112 22.9667 13.3097 22.8149 13.3793C22.2956 13.6176 21.7691 13.8426 21.2165 14.0854C21.1153 13.816 21.0198 13.5628 20.9186 13.2919C21.0328 13.2313 21.1283 13.1765 21.2267 13.1291C21.7676 12.876 22.3072 12.6184 22.8525 12.3771C22.9392 12.3386 23.0709 12.3371 23.1577 12.3771C23.7391 12.6376 24.3119 12.9174 24.8905 13.1824C25.0236 13.2431 25.0742 13.3082 25.0106 13.4592C24.9267 13.6591 24.863 13.8693 24.7791 14.1106Z" fill="#FFEB61"/>
<path d="M17.4919 12.2039C17.0016 12.2009 16.6501 11.8827 16.6486 11.443C16.6486 10.9693 17.0319 10.5933 17.5093 10.6022C17.9345 10.6096 18.2846 10.9797 18.2817 11.4208C18.2788 11.8753 17.9447 12.2069 17.4905 12.2039H17.4919Z" fill="#FFEB61"/>
<path d="M28.511 12.2083C28.0163 12.1995 27.7111 11.893 27.7154 11.409C27.7198 10.9945 28.1161 10.5918 28.5139 10.5992C28.9738 10.6081 29.3731 11.0048 29.3629 11.4445C29.3528 11.8827 28.9796 12.2172 28.511 12.2083Z" fill="#FFEB61"/>
<path d="M17.489 21.2783C16.9423 21.5551 16.4548 21.8009 15.9399 22.0614C15.7851 21.7728 15.6347 21.4915 15.4683 21.1836C15.9529 20.9527 16.4215 20.7276 16.9249 20.4878C16.6805 20.2006 16.4563 19.9342 16.2277 19.6677C15.9375 19.3292 15.95 19.0001 16.2653 18.6803C16.3102 18.6359 16.3579 18.5945 16.4273 18.5323C17.2518 19.4812 18.0705 20.4242 18.9037 21.382C19.2855 20.892 19.65 20.4331 19.9986 19.9623C20.0449 19.9001 20.0348 19.758 20.0015 19.6751C19.8308 19.2562 19.6312 18.8491 19.4678 18.4272C19.3911 18.2288 19.3448 18.0098 19.3304 17.7966C19.3058 17.4413 19.3144 17.0816 19.3159 16.7248C19.3159 16.565 19.2667 16.4613 19.1235 16.371C18.2687 15.8396 17.4239 15.2948 16.5705 14.7604C16.436 14.6761 16.3377 14.5917 16.3695 14.42C16.4895 13.7879 16.1583 13.3364 15.7923 12.8982C15.7837 12.8863 15.7649 12.8834 15.707 12.8523C15.707 12.9559 15.707 13.0388 15.707 13.1202C15.707 14.6154 15.7012 16.1105 15.7084 17.6041C15.7084 17.8203 15.6651 17.9357 15.4365 17.9535C15.2658 17.9668 15.098 18.0186 14.8984 18.0586C14.8825 17.8484 14.8681 17.6663 14.8521 17.4517C14.2663 17.5627 13.6964 17.6722 13.0904 17.7862C13.8035 18.9438 14.4949 20.0659 15.2065 21.2191C14.9057 21.3331 14.6352 21.4338 14.3473 21.5433C14.0725 21.0903 13.8064 20.6492 13.5373 20.2095C13.1164 19.5212 12.6984 18.8313 12.2673 18.1489C12.2254 18.0823 12.1053 18.0275 12.0258 18.0349C11.6801 18.0645 11.3358 18.1178 10.9438 18.1696C10.9438 17.8987 10.9294 17.656 10.954 17.4176C10.9598 17.3555 11.0798 17.2711 11.1594 17.2548C12.2095 17.0401 13.2611 16.8344 14.3126 16.6301C14.8493 16.5265 14.8507 16.5294 14.8493 15.9758C14.8449 14.4407 14.8406 12.9056 14.8362 11.369C14.8362 11.2743 14.8362 11.1795 14.8362 11.067C14.9809 11.0818 15.0879 11.0922 15.2369 11.107C15.2369 10.9663 15.2369 10.8405 15.2369 10.7132C15.2369 10.2173 15.2441 9.72139 15.234 9.22696C15.2326 9.12334 15.1964 8.99899 15.1328 8.92201C14.3155 7.93759 13.4896 6.96206 12.668 5.98208C12.6318 5.93915 12.6073 5.88734 12.5595 5.81332C12.3339 6.16416 12.1401 6.46762 11.9347 6.78886C11.6772 6.62306 11.4327 6.46318 11.1579 6.28554C11.4356 5.87401 11.6931 5.46692 11.9795 5.08352C12.0779 4.95177 12.1126 4.83926 12.0851 4.68679C11.8884 3.56026 11.6931 2.43372 11.4993 1.30719C11.427 0.885299 11.3561 0.461925 11.278 -0.00585938C11.3807 0.0637161 11.4501 0.111087 11.5195 0.158457C12.8387 1.03185 14.155 1.90821 15.4814 2.77124C15.6014 2.8497 15.7837 2.88226 15.9254 2.85858C18.1501 2.50034 20.3747 2.13766 22.595 1.75425C23.1172 1.66395 23.6046 1.80755 24.1007 1.886C26.107 2.20279 28.1089 2.54623 30.1136 2.86894C30.2409 2.88967 30.4044 2.8571 30.5114 2.78604C31.8595 1.89933 33.2018 1.00225 34.5456 0.108126C34.5846 0.0814801 34.6251 0.0577948 34.7047 0.0074636C34.6208 0.481169 34.5427 0.913426 34.4689 1.34568C34.2751 2.4885 34.0798 3.63279 33.8961 4.77857C33.8816 4.86443 33.9337 4.97693 33.9858 5.05687C34.2433 5.45508 34.5108 5.84737 34.7958 6.27074C34.5311 6.43802 34.2866 6.59493 34.0191 6.76517C33.8166 6.45726 33.6227 6.16416 33.4144 5.84737C33.3088 5.97764 33.2105 6.09902 33.1121 6.21893C32.3687 7.11749 31.6223 8.01457 30.8875 8.92053C30.8094 9.01675 30.7573 9.16183 30.7515 9.28765C30.7327 9.7658 30.7385 10.2454 30.7342 10.7251C30.7322 10.9925 30.8682 11.1154 31.1421 11.0937C31.1421 11.1884 31.1421 11.2802 31.1421 11.372C31.1421 13.0136 31.1435 14.6539 31.1363 16.2955C31.1363 16.4835 31.1811 16.559 31.3749 16.5946C32.522 16.8048 33.6661 17.0357 34.8117 17.2518C34.9592 17.28 35.0128 17.3347 35.0041 17.4887C34.9925 17.7048 35.0012 17.9239 35.0012 18.1844C34.6324 18.1311 34.304 18.0941 33.9814 18.0305C33.818 17.9979 33.7428 18.0542 33.6618 18.1904C33.0499 19.2251 32.4251 20.2525 31.8161 21.2902C31.7033 21.4826 31.6006 21.5329 31.4024 21.4323C31.2346 21.3464 31.048 21.2961 30.8195 21.2102C31.5051 20.0763 32.1792 18.9646 32.8778 17.8099C32.2906 17.6959 31.7322 17.5879 31.1406 17.4724C31.1218 17.6737 31.1059 17.8395 31.0871 18.0468C30.8412 18.0053 30.6011 17.9787 30.3697 17.9165C30.3219 17.9032 30.2829 17.7611 30.2814 17.6782C30.2785 16.1593 30.2814 14.6405 30.2814 13.1202C30.2814 13.0418 30.2814 12.9618 30.2814 12.8316C29.8865 13.2786 29.5336 13.6872 29.6508 14.3075C29.6942 14.5413 29.5871 14.6657 29.3933 14.7886C28.5616 15.3111 27.7444 15.8574 26.917 16.3858C26.7593 16.4865 26.6725 16.596 26.6957 16.7959C26.7998 17.6885 26.619 18.5249 26.1562 19.2858C25.9088 19.6914 25.9175 20.0141 26.2661 20.3664C26.5669 20.6714 26.8013 21.0459 27.0689 21.3923C27.9035 20.4197 28.7294 19.459 29.5683 18.4805C29.7737 18.7085 29.9632 18.9202 30.1729 19.1541C29.8084 19.5878 29.4468 20.0156 29.0606 20.476C29.5495 20.7262 30.0269 20.9689 30.5215 21.2221C30.361 21.5019 30.2149 21.7594 30.0572 22.0363C29.5322 21.7816 29.0216 21.5329 28.4864 21.2739C28.3924 21.946 28.2824 22.5766 28.2188 23.2116C28.0915 24.4803 27.6229 25.6468 27.2106 26.8296C26.0433 30.1855 24.8717 33.5414 23.703 36.8958C23.674 36.9787 23.6523 37.0631 23.6697 37.1741C23.8433 36.8943 24.0183 36.616 24.189 36.3348C26.0665 33.2276 27.9353 30.1144 29.8301 27.019C30.0312 26.6919 30.1368 26.3929 30.1324 26.0139C30.1194 24.8444 30.1324 23.675 30.1353 22.504C30.1353 22.3915 30.1353 22.279 30.1353 22.1325C30.4159 22.2139 30.6676 22.279 30.9121 22.3649C30.9526 22.3782 30.9887 22.4744 30.9887 22.5322C30.9931 23.9133 30.996 25.2945 30.9873 26.6756C30.9873 26.8814 31.0582 26.9199 31.2419 26.9835C31.7713 27.1641 32.0504 26.9421 32.3267 26.4965C33.1338 25.1938 33.9814 23.9163 34.8132 22.6299C34.8869 22.5159 34.9621 22.4034 35.0605 22.2539C35.7707 23.4722 36.3088 24.7408 36.896 26.0524C37.1376 25.5905 37.3546 25.1746 37.5918 24.7216C37.2143 24.498 36.8469 24.2804 36.4563 24.0495C36.6415 23.8127 36.831 23.5699 37.032 23.3123C39.5344 24.914 42.0208 26.5054 44.5724 28.1382C44.5362 28.0035 44.5188 27.9339 44.4986 27.8628C43.5454 24.5469 42.5922 21.231 41.6332 17.9165C41.5811 17.7359 41.4856 17.5583 41.3757 17.4073C39.8511 15.3082 38.3208 13.215 36.7919 11.1188C36.5113 10.7354 36.2307 10.352 35.9472 9.97009C35.9067 9.91531 35.8575 9.86646 35.7664 9.76136V15.9166H34.8725C34.8725 15.8292 34.8725 15.736 34.8725 15.6427C34.8754 13.4163 34.8754 11.1914 34.8869 8.96494C34.8869 8.69996 34.8349 8.47495 34.6772 8.26475C34.5441 8.08563 34.4342 7.88874 34.3069 7.69038C34.5485 7.51422 34.7727 7.35138 35.0142 7.1767C35.3455 7.64301 35.6695 8.11227 36.005 8.57265C38.0185 11.332 40.0276 14.0943 42.057 16.8403C42.3116 17.1852 42.4504 17.5538 42.5632 17.9491C43.5193 21.3242 44.474 24.6979 45.4301 28.073C45.6022 28.6815 45.7787 29.2884 45.9523 29.8953C45.9667 29.9471 45.9769 30.0004 45.9986 30.0996C43.4137 28.4476 40.868 26.8207 38.2832 25.1686C37.8319 26.1738 37.3878 27.1641 36.9308 28.1826C36.2871 26.8044 35.6521 25.4484 34.9969 24.0436C34.9072 24.1635 34.8493 24.2345 34.7987 24.3115C34.0393 25.4529 33.2814 26.5942 32.5263 27.737C32.4757 27.814 32.4381 27.9117 32.428 28.0035C32.2153 29.7843 32.007 31.5651 31.7973 33.346C31.7973 33.3534 31.7886 33.3593 31.7684 33.3874C31.5109 33.3504 31.2419 33.3105 30.9294 33.266C31.1348 31.4941 31.3402 29.734 31.5471 27.9472C31.1753 27.8762 30.8137 27.7992 30.4478 27.7459C30.3943 27.7385 30.306 27.8318 30.2655 27.8984C29.1344 29.7606 28.0018 31.6214 26.8823 33.4911C25.6441 35.562 24.4204 37.6419 23.1895 39.7173C23.1374 39.8047 23.0723 39.8831 22.9884 40.0015C21.0372 36.7478 19.1076 33.5295 17.1534 30.2713C17.4355 30.1855 17.68 30.0967 17.9316 30.0448C17.9924 30.033 18.1009 30.1351 18.1472 30.2106C18.9398 31.5326 19.7209 32.8619 20.5136 34.1838C21.0661 35.1046 21.6317 36.0165 22.1914 36.9313C22.2406 37.0128 22.297 37.0897 22.3954 37.1504C21.4595 34.4651 20.5251 31.7798 19.5777 29.0619C19.867 28.9701 20.1273 28.8872 20.3978 28.8028C21.257 31.2424 22.1075 33.6598 22.9826 36.1438C23.0419 36.018 23.0738 35.9602 23.0955 35.8981C24.3857 32.2165 25.6832 28.5364 26.9575 24.8489C27.1614 24.2582 27.2612 23.6291 27.4102 23.0177C27.3813 23.0044 27.3524 22.9911 27.3234 22.9792C27.2497 23.0947 27.1629 23.2042 27.1021 23.3271C26.2892 24.9895 25.4763 26.6519 24.6692 28.3173C24.1716 29.3432 23.6856 30.3735 23.1866 31.3979C23.1533 31.466 23.055 31.5444 22.9884 31.5429C22.9176 31.5429 22.8192 31.466 22.7845 31.3964C22.297 30.4031 21.8197 29.4039 21.338 28.4061C20.5222 26.7185 19.705 25.031 18.8863 23.3449C18.8212 23.2116 18.7373 23.0873 18.6346 22.9718C18.7214 23.8156 18.9239 24.6268 19.1987 25.4188C19.4721 26.2049 19.7469 26.988 20.029 27.7977C19.744 27.8821 19.4736 27.9635 19.1958 28.0449C18.3468 25.8703 17.6756 23.6661 17.4861 21.2813L17.489 21.2783ZM26.2516 11.295C26.2849 11.2476 26.3066 11.2239 26.321 11.1958C26.6711 10.5326 27.1036 9.93752 27.6691 9.44605C27.7227 9.40016 27.7429 9.27581 27.7313 9.19439C27.6503 8.66592 27.5549 8.13892 27.4666 7.61044C27.3668 7.01387 27.267 6.41877 27.1614 5.78371C26.9618 5.9125 26.7868 6.02057 26.6176 6.13455C25.4893 6.891 24.3582 7.64301 23.2358 8.40834C23.0651 8.5238 22.945 8.52676 22.7715 8.4113C21.5593 7.59416 20.3385 6.78738 19.1206 5.9806C19.0252 5.91694 18.9239 5.86513 18.8198 5.80592C18.7995 5.86069 18.7865 5.88141 18.7822 5.9051C18.6086 7.01979 18.435 8.133 18.2687 9.24917C18.26 9.30986 18.2831 9.40016 18.3251 9.43865C18.895 9.96712 19.3636 10.5755 19.7339 11.2639C19.7397 11.2757 19.7614 11.2772 19.7874 11.2891C20.5483 10.9471 21.3163 10.5992 22.0873 10.2558C22.3925 10.1196 22.7006 9.88571 23.0058 9.89015C23.3211 9.89459 23.635 10.13 23.9474 10.2676C24.7097 10.6066 25.472 10.9486 26.2531 11.2979L26.2516 11.295ZM17.0045 3.5869C17.0001 3.60615 16.9972 3.62539 16.9929 3.64464C17.0551 3.68608 17.1158 3.73049 17.1809 3.7675C17.6366 4.02212 18.1096 4.24565 18.5449 4.53135C19.9581 5.46248 21.3612 6.40989 22.7599 7.36471C22.932 7.48165 23.0419 7.47277 23.1996 7.36471C23.7117 7.00943 24.2324 6.66747 24.7502 6.32255C25.2753 5.97171 25.7916 5.60903 26.3283 5.27892C26.8345 4.96657 27.2873 4.5728 27.8543 4.35223C28.2116 4.21456 28.5254 3.95698 28.8581 3.75122C28.9073 3.72161 28.9492 3.68016 29.0216 3.62243C28.9232 3.59726 28.8639 3.57506 28.8032 3.56618C27.2468 3.30712 25.6904 3.04362 24.1311 2.79641C23.6654 2.72239 23.1808 2.61136 22.7237 2.67206C21.2151 2.86894 19.7137 3.13392 18.2108 3.37521C17.8072 3.44035 17.4066 3.51733 17.003 3.58838L17.0045 3.5869ZM25.8047 12.0736C24.9397 11.6843 24.0197 11.2698 23.0984 10.8612C23.0405 10.8361 22.9537 10.8346 22.8973 10.8612C22.0424 11.2506 21.1905 11.6458 20.3356 12.0366C20.2127 12.0929 20.2084 12.1625 20.2402 12.2853C20.6568 13.9181 21.069 15.5509 21.4783 17.1852C21.5478 17.4635 21.6027 17.7448 21.6707 18.0542C22.1321 17.6737 22.5617 17.3214 22.9899 16.9676C23.4354 17.3377 23.8549 17.687 24.2743 18.0349C24.7907 16.0276 25.297 14.0543 25.8061 12.0736H25.8047ZM22.5039 28.7762C22.5198 28.7718 22.5371 28.7673 22.553 28.7629C22.5559 28.7096 22.5632 28.6563 22.5632 28.6045C22.5632 27.1582 22.5632 25.7134 22.5545 24.2671C22.5545 24.1768 22.514 24.0776 22.4677 23.9977C21.8891 23 21.3062 22.0037 20.7218 21.0074C20.6669 20.9127 20.6003 20.8253 20.5251 20.7128C20.2691 21.0518 20.0319 21.3642 19.7947 21.6765C19.6399 21.8793 19.3752 22.0733 19.3578 22.2879C19.339 22.504 19.5705 22.7394 19.6833 22.9718C20.5917 24.84 21.4986 26.7082 22.4055 28.5764C22.4388 28.643 22.4706 28.7111 22.5039 28.7777V28.7762ZM23.4195 28.7466C23.4339 28.751 23.4498 28.757 23.4643 28.7614C23.6393 28.4002 23.8129 28.039 23.9894 27.6793C24.8471 25.931 25.7049 24.1827 26.5669 22.4374C26.6291 22.3101 26.632 22.2272 26.5322 22.1177C26.3818 21.9519 26.2574 21.7609 26.1185 21.5833C25.8915 21.2946 25.6629 21.0104 25.4156 20.701C25.3447 20.8194 25.2955 20.9008 25.2463 20.9837C24.6851 21.946 24.1196 22.9052 23.5685 23.8733C23.486 24.0169 23.4267 24.199 23.4253 24.3633C23.4122 25.5254 23.418 26.686 23.418 27.848C23.418 28.1471 23.418 28.4476 23.418 28.7466H23.4195ZM30.2988 7.90799C30.6156 6.44986 30.9468 4.92068 31.2824 3.3767C31.2216 3.3841 31.2043 3.38114 31.1912 3.38854C30.1541 4.0162 29.1156 4.64238 28.0828 5.27892C28.0235 5.31593 27.9845 5.45212 27.9975 5.53206C28.106 6.22041 28.2275 6.90728 28.3446 7.59416C28.4097 7.97164 28.4719 8.35061 28.5385 8.74289C28.8408 8.57413 29.1055 8.40982 29.3832 8.27807C29.658 8.14632 29.9473 8.04862 30.2973 7.90799H30.2988ZM17.4775 8.74289C17.6496 7.63709 17.8203 6.55793 17.9765 5.47728C17.9881 5.39735 17.9143 5.26264 17.842 5.21823C16.8627 4.62017 15.8762 4.03248 14.8912 3.44331C14.855 3.42111 14.8102 3.4137 14.7466 3.3915C14.7552 3.46403 14.7581 3.51141 14.7683 3.5573C15.0749 4.96509 15.3859 6.3714 15.6867 7.78068C15.7258 7.96424 15.7721 8.06342 15.9847 8.0575C16.1265 8.05454 16.2769 8.12263 16.41 8.18925C16.7658 8.36393 17.1144 8.55341 17.4775 8.74289ZM22.9711 18.0867C22.3751 18.6448 21.8067 19.1851 21.2281 19.7121C21.0878 19.8394 21.1297 19.9357 21.2035 20.0645C21.7083 20.9453 22.2088 21.8305 22.7122 22.7113C22.7903 22.8475 22.8756 22.9807 22.9609 23.1199C23 23.0873 23.0231 23.0754 23.0347 23.0562C23.6249 22.0377 24.215 21.0208 24.7965 19.9964C24.824 19.9475 24.7936 19.8232 24.7488 19.7758C24.4942 19.5093 24.2309 19.2503 23.9633 18.9986C23.6393 18.6922 23.3066 18.3946 22.9725 18.0867H22.9711ZM16.2914 9.09521C16.2726 9.224 16.2928 9.36463 16.235 9.42088C16.0701 9.58076 16.0932 9.7732 16.0918 9.96416C16.0903 10.4468 16.0382 10.9323 16.2682 11.3912C16.4881 11.8294 16.6805 12.2809 16.8916 12.7235C16.9191 12.7827 16.99 12.8567 17.0435 12.8582C17.3285 12.8686 17.6134 12.8627 17.8998 12.8508C17.9432 12.8493 17.9895 12.7931 18.0242 12.7516C18.3149 12.4156 18.6028 12.0766 18.9152 11.7124C18.4148 10.5297 17.4095 9.7732 16.2885 9.09521H16.2914ZM27.0949 11.7287C27.2902 11.933 27.4623 12.0751 27.5867 12.2513C28.0394 12.8893 28.0322 12.8893 28.8176 12.8701C28.9724 12.8656 29.0751 12.8153 29.1416 12.6761C29.3036 12.3327 29.4772 11.9952 29.6276 11.6458C29.8142 11.2136 29.9386 10.768 29.8706 10.2839C29.8171 9.89903 29.7766 9.51118 29.7274 9.09521C28.5486 9.7436 27.6272 10.5711 27.0949 11.7272V11.7287ZM12.451 1.86972C12.5856 2.60988 12.7085 3.27751 12.8271 3.94662C12.872 4.20124 12.9009 4.45882 12.9472 4.71343C12.9689 4.83186 12.9819 4.97249 13.0528 5.05687C13.5069 5.60903 13.9742 6.15083 14.4385 6.69412C14.4703 6.73112 14.5122 6.75925 14.5802 6.81698C14.5715 6.73556 14.5715 6.6956 14.5643 6.65711C14.2953 5.37366 14.0248 4.09021 13.7528 2.80677C13.7413 2.75496 13.7152 2.6913 13.6747 2.66614C13.2914 2.41004 12.9023 2.16134 12.4539 1.8712L12.451 1.86972ZM31.4646 6.76961C31.4878 6.75629 31.5124 6.74889 31.5268 6.7326C32.0128 6.15528 32.5003 5.57795 32.982 4.99618C33.0196 4.95177 33.0355 4.88071 33.0441 4.82002C33.1353 4.2116 33.2192 3.60171 33.3132 2.99329C33.3682 2.63949 33.4347 2.28865 33.5041 1.89785C33.1063 2.16134 32.7462 2.39524 32.3918 2.63949C32.3339 2.67946 32.2833 2.7594 32.2689 2.83045C31.9984 4.13759 31.7337 5.44472 31.4646 6.76961ZM28.78 13.7671C28.5254 13.7671 28.2578 13.7523 27.9931 13.7731C27.8225 13.7864 27.7067 13.7257 27.5997 13.6043C27.3856 13.366 27.1687 13.1291 26.9445 12.8997C26.8736 12.8271 26.7767 12.7842 26.6422 12.6939V15.3985C26.7463 15.3407 26.823 15.3008 26.8967 15.2578C27.4594 14.9262 28.0177 14.5858 28.5862 14.2675C28.7887 14.1535 28.861 14.0203 28.78 13.7671ZM19.3723 12.6406C19.2479 12.7383 19.1756 12.7842 19.1163 12.8449C18.8689 13.0965 18.6332 13.3615 18.3771 13.6013C18.2889 13.6842 18.1544 13.7434 18.0343 13.7568C17.8072 13.7819 17.5744 13.7686 17.3444 13.7642C17.2128 13.7612 17.1318 13.816 17.1723 13.9477C17.2041 14.0499 17.2648 14.1727 17.3487 14.2216C17.9403 14.5695 18.5391 14.9011 19.138 15.2371C19.2045 15.2741 19.2754 15.3052 19.3723 15.3526V12.6406ZM20.6871 19.0963L20.7869 19.1096C20.8332 18.9838 20.9374 18.8461 20.9157 18.7351C20.7161 17.767 20.4933 16.8048 20.2763 15.8411C20.2604 15.77 20.23 15.7019 20.2055 15.6323C20.1505 15.9255 20.1476 16.2052 20.1505 16.485C20.1548 16.9217 20.097 17.3732 20.1852 17.7922C20.2807 18.2422 20.5136 18.6626 20.6871 19.0963ZM25.8495 15.6279C25.8322 15.6235 25.8148 15.6175 25.7989 15.6131C25.7757 15.6886 25.7483 15.7611 25.7309 15.8381C25.5168 16.7929 25.31 17.7492 25.0887 18.7026C25.0424 18.9024 25.0916 19.0253 25.2738 19.1363C25.4387 18.7573 25.6022 18.3887 25.7555 18.0186C25.8003 17.9091 25.8437 17.7877 25.8452 17.6708C25.8538 16.9913 25.8495 16.3103 25.8495 15.6309V15.6279Z" stroke="#FFEB61" stroke-width="0.2" mask="url(#path-1-outside-1_266_1310)"/>
<path d="M0 30.1115C0.240111 29.2632 0.461418 28.4787 0.682724 27.6926C1.62581 24.3397 2.57179 20.9882 3.50619 17.6323C3.57562 17.3821 3.68845 17.1763 3.83599 16.9735C6.17779 13.7568 8.5167 10.5371 10.8571 7.31881C10.8845 7.28033 10.9164 7.2448 10.9612 7.18706C11.1955 7.35582 11.4255 7.52162 11.6729 7.69926C11.5137 7.94055 11.3517 8.15964 11.2201 8.39797C11.1463 8.5312 11.0841 8.69552 11.0841 8.84651C11.0755 11.0729 11.0769 13.2979 11.0769 15.5243C11.0769 15.6531 11.0769 15.7819 11.0769 15.9284H10.2148V9.80429L10.1512 9.78948C10.089 9.86942 10.0253 9.94936 9.96459 10.0323C8.12471 12.5592 6.28483 15.0846 4.44639 17.613C4.41457 17.6574 4.3813 17.7063 4.36683 17.7596C3.40639 21.1584 2.44884 24.5573 1.48984 27.9561C1.48116 27.9857 1.47972 28.0183 1.46381 28.1101C3.99076 26.495 6.47865 24.9051 8.98535 23.3034C9.18785 23.5536 9.37878 23.789 9.56971 24.0243C9.17917 24.2671 8.79876 24.504 8.40387 24.7482C8.63097 25.1938 8.84504 25.6127 9.06346 26.0406C9.66663 24.7601 10.2611 23.5003 10.8788 22.1887C11.346 22.9126 11.7669 23.5684 12.1921 24.2197C12.7779 25.1183 13.3681 26.0124 13.9525 26.9125C14.0335 27.0368 14.1188 27.0931 14.2649 27.0605C14.4963 27.0072 14.7306 26.9658 14.9867 26.9139V22.396C15.2789 22.3175 15.5508 22.2435 15.8618 22.1576C15.8618 22.2938 15.8618 22.3886 15.8618 22.4833C15.8632 23.7756 15.8618 25.0665 15.8733 26.3588C15.8748 26.5069 15.9384 26.6712 16.018 26.7985C16.5069 27.5757 17.0088 28.3454 17.5295 29.1522C17.2345 29.2573 16.9698 29.3535 16.6848 29.4542C16.3666 28.9435 16.0411 28.4461 15.7446 27.9309C15.6361 27.7429 15.5262 27.6956 15.3309 27.7503C15.1024 27.814 14.8666 27.8569 14.6323 27.8984C14.479 27.925 14.4283 27.9827 14.4515 28.1589C14.667 29.8332 14.871 31.5089 15.0778 33.1831C15.0792 33.1979 15.072 33.2142 15.0633 33.2542C14.8001 33.2897 14.5296 33.3253 14.2258 33.3667C14.1824 33.0499 14.139 32.7494 14.1029 32.4474C13.9221 30.9656 13.7456 29.4838 13.5619 28.002C13.5503 27.9102 13.5113 27.8125 13.4592 27.734C12.6839 26.5557 11.9043 25.3788 11.1261 24.2035C11.0928 24.1531 11.0494 24.1087 10.9786 24.0214C10.3363 25.4262 9.71002 26.797 9.05767 28.224C8.59336 27.1952 8.14785 26.2078 7.6821 25.179C5.13201 26.8177 2.59782 28.4476 0.0028929 30.1159L0 30.1115Z" stroke="#FFEB61" stroke-width="0.2" mask="url(#path-1-outside-1_266_1310)"/>
<path d="M24.7791 14.1106C24.2454 13.8619 23.7377 13.6339 23.2387 13.3867C23.0868 13.3112 22.9667 13.3097 22.8149 13.3793C22.2956 13.6176 21.7691 13.8426 21.2165 14.0854C21.1153 13.816 21.0198 13.5628 20.9186 13.2919C21.0328 13.2313 21.1283 13.1765 21.2267 13.1291C21.7676 12.876 22.3072 12.6184 22.8525 12.3771C22.9392 12.3386 23.0709 12.3371 23.1577 12.3771C23.7391 12.6376 24.3119 12.9174 24.8905 13.1824C25.0236 13.2431 25.0742 13.3082 25.0106 13.4592C24.9267 13.6591 24.863 13.8693 24.7791 14.1106Z" stroke="#FFEB61" stroke-width="0.2" mask="url(#path-1-outside-1_266_1310)"/>
<path d="M17.4919 12.2039C17.0016 12.2009 16.6501 11.8827 16.6486 11.443C16.6486 10.9693 17.0319 10.5933 17.5093 10.6022C17.9345 10.6096 18.2846 10.9797 18.2817 11.4208C18.2788 11.8753 17.9447 12.2069 17.4905 12.2039H17.4919Z" stroke="#FFEB61" stroke-width="0.2" mask="url(#path-1-outside-1_266_1310)"/>
<path d="M28.511 12.2083C28.0163 12.1995 27.7111 11.893 27.7154 11.409C27.7198 10.9945 28.1161 10.5918 28.5139 10.5992C28.9738 10.6081 29.3731 11.0048 29.3629 11.4445C29.3528 11.8827 28.9796 12.2172 28.511 12.2083Z" stroke="#FFEB61" stroke-width="0.2" mask="url(#path-1-outside-1_266_1310)"/>
</g>
<defs>
<clipPath id="clip0_266_1310">
<rect width="46" height="40" fill="white"/>
</clipPath>
</defs>
</svg>
