<svg width="37" height="48" viewBox="0 0 37 48" fill="none" xmlns="http://www.w3.org/2000/svg">
<g clip-path="url(#clip0_266_1268)">
<path d="M18.1191 47.9713C16.2393 48.0188 14.2765 47.9451 12.387 47.3228C6.08846 45.2493 2.21659 41.0025 0.629759 34.7653C-0.083094 31.9649 -0.119713 29.1076 0.168358 26.2502C0.93736 18.6235 4.39909 12.1963 9.57948 6.56C11.6155 4.34633 13.8908 2.37968 16.3076 0.572173C17.1426 -0.0524995 18.1679 -0.059625 19.1761 0.059134C19.8695 0.142265 20.4603 0.432037 21.0095 0.86907C23.8878 3.16587 26.6269 5.59805 28.9559 8.43402C32.5568 12.8233 35.1982 17.683 36.3554 23.2219C37.2636 27.5685 37.3124 31.934 35.9062 36.1809C33.9215 42.1829 29.7371 46.0379 23.4288 47.634C21.7175 48.0663 19.9647 48.0093 18.124 47.9689L18.1191 47.9713ZM4.64078 32.7416C4.70181 32.7772 4.76528 32.8129 4.82632 32.8485C4.90688 32.725 4.95814 32.5682 5.07044 32.4827C5.50743 32.1454 5.91757 31.7345 6.41803 31.5326C7.35792 31.1502 7.91209 30.4852 8.22701 29.5969C9.12785 27.0602 13.0119 25.2028 15.8462 28.4069C16.957 29.661 17.7236 31.1051 18.3095 32.649C18.351 32.7606 18.3974 32.8699 18.4731 33.0575C18.539 32.8984 18.5634 32.839 18.5878 32.7772C19.2274 31.1882 19.9842 29.6586 21.1487 28.3594C23.5045 25.7277 27.3398 26.3357 28.7264 29.5494C28.7948 29.7085 28.8802 29.8605 28.9437 30.022C29.2147 30.7084 29.7298 31.1194 30.406 31.44C30.9577 31.7013 31.4362 32.1122 31.9318 32.4756C32.071 32.5777 32.154 32.7464 32.32 32.9601C32.4054 32.1573 32.4835 31.4519 32.5641 30.6989C31.4607 31.1099 30.5745 30.889 29.8958 30.0173C29.3465 29.3118 29.2757 28.5233 29.7347 27.7751C30.3401 26.7894 31.2751 26.5044 32.4591 26.8797C32.3859 26.217 32.32 25.6137 32.2467 24.9368C31.1433 26.1505 29.8616 26.6445 28.3261 26.3191C26.5659 25.9462 25.3892 24.875 24.9888 23.1791C24.5958 21.5141 25.001 20.013 26.4804 18.9181C26.7636 18.709 27.0493 18.5048 27.3202 18.2815C27.8647 17.8326 28.243 17.2744 28.4261 16.5975C28.8753 14.9159 27.5278 13.4575 25.7798 13.733C24.6593 13.9088 23.8951 14.8375 24.027 15.8707C24.1173 16.5856 24.774 17.1272 25.4453 16.9942C25.626 16.9585 25.7749 16.7638 25.936 16.6426C25.814 16.5096 25.7163 16.3267 25.565 16.2507C25.1084 16.0203 24.9742 15.6807 25.2207 15.2389C25.5015 14.7306 26.146 14.5454 26.6684 14.8232C27.3447 15.1819 27.6523 15.9348 27.4399 16.7068C27.0468 18.1319 25.4234 18.8207 24.0392 18.1485C23.8561 18.0606 23.6779 17.9632 23.4752 17.8564C23.4752 17.9442 23.4704 17.9727 23.4752 17.9965C23.485 18.0345 23.5021 18.0701 23.5216 18.1057C24.4493 19.9631 24.5885 21.8443 23.6901 23.7539C23.5631 24.0223 23.7047 24.0674 23.9342 24.1054C24.5299 24.2005 24.8179 24.4308 24.8839 24.8346C24.9546 25.2574 24.7496 25.6683 24.3834 25.837C23.9855 26.0222 23.5314 25.9438 23.2238 25.6137C23.0724 25.4522 22.9528 25.2598 22.8039 25.0626C21.5686 26.217 20.1502 26.9224 18.434 26.9082C16.7227 26.8939 15.3116 26.1671 14.047 25.0033C13.6882 25.5923 13.3024 26.122 12.5139 25.8203C12.1453 25.6802 11.9646 25.3928 12.0061 24.9985C12.0891 24.1862 12.7653 24.1506 13.4074 24.0484C12.3284 21.9298 12.4529 19.861 13.6003 17.7328C13.3024 17.9181 13.1267 18.044 12.9362 18.1461C11.6546 18.8254 9.9115 18.12 9.51357 16.7638C9.26212 15.9087 9.62831 15.0608 10.3827 14.752C10.8734 14.5501 11.5105 14.7924 11.7302 15.2674C11.9329 15.6997 11.7595 16.0393 11.2078 16.2959C10.8709 16.4526 10.8489 16.6735 11.1688 16.8754C11.2884 16.9514 11.4422 16.9989 11.5862 17.0132C12.4309 17.0987 13.1267 16.2341 12.9411 15.341C12.7019 14.1819 11.3811 13.4456 10.1459 13.7805C8.62738 14.1938 8.00242 15.7377 8.73968 17.2103C9.12296 17.9727 9.78699 18.462 10.473 18.9228C12.3552 20.1888 12.4553 22.8609 11.5032 24.3596C10.0336 26.6706 6.77445 27.1932 4.91176 25.1244C4.8727 25.0793 4.80678 25.0579 4.71158 24.9961C4.63834 25.6446 4.57242 26.2431 4.50407 26.863C5.77109 26.6041 6.68657 26.8844 7.22121 27.6635C7.69237 28.3499 7.68993 29.2715 7.14553 29.9816C6.4693 30.8652 5.57823 31.1645 4.43327 30.7322C4.50651 31.4353 4.57242 32.0884 4.63834 32.7392L4.64078 32.7416ZM8.66156 44.0522C8.71283 43.9952 8.76165 43.9406 8.81292 43.8836C8.66644 43.7933 8.49556 43.7244 8.37593 43.6081C6.61821 41.8955 5.21448 39.9455 4.38444 37.6535C2.49734 32.4566 2.45095 27.1837 3.9206 21.9013C5.46105 16.3647 8.68353 11.783 12.6848 7.66921C12.9045 7.44357 13.1462 7.33193 13.4831 7.37469C14.3034 7.48157 14.9283 7.18942 15.3897 6.49587C15.9952 5.58143 16.6201 4.67411 17.2939 3.80717C17.8603 3.07561 17.5942 2.26805 17.665 1.45811C17.4087 1.53175 17.1816 1.61725 17.001 1.75976C16.2637 2.35118 15.5338 2.9521 14.8136 3.56015C10.3509 7.33193 6.64751 11.6785 4.22088 16.9657C1.79425 22.2528 0.810414 27.7514 1.84307 33.5112C2.58278 37.6321 4.65543 41.0001 8.02195 43.6081C8.22701 43.7672 8.44917 43.9026 8.664 44.0498L8.66156 44.0522ZM19.2738 1.43199C19.2396 1.46049 19.203 1.48899 19.1688 1.51749C19.2543 2.22767 19.1224 2.97585 19.579 3.6219C20.2698 4.59573 20.9851 5.55055 21.6589 6.53387C22.0666 7.12767 22.572 7.46494 23.3288 7.35331C23.8121 7.28205 24.1588 7.49345 24.4615 7.8426C25.2183 8.71666 26.0044 9.5646 26.7514 10.4458C29.3441 13.5121 31.3557 16.9063 32.6325 20.6781C34.1021 25.0175 34.3999 29.4615 33.6114 33.9719C32.9376 37.834 31.2361 41.1759 28.348 43.9263C28.309 43.9643 28.2797 44.0095 28.2455 44.0522C28.5091 43.9596 28.7215 43.8242 28.9217 43.6722C32.3151 41.0785 34.3316 37.6844 35.0957 33.5729C35.916 29.1575 35.5376 24.818 34.1314 20.5569C31.5534 12.7426 26.3999 6.76902 19.8914 1.77639C19.7083 1.63625 19.4789 1.54837 19.2714 1.43674L19.2738 1.43199ZM29.3636 35.2213C29.2025 34.7391 28.9437 34.5752 28.4725 34.6465C28.0526 34.7082 27.7426 34.9196 27.5448 35.2902C27.1079 36.1025 27.4814 37.0977 28.4188 37.5632C29.2318 37.9646 30.0154 37.8577 30.7234 37.3257C31.5217 36.7271 31.905 35.9196 31.7048 34.9458C31.4631 33.7582 30.6916 32.9649 29.5442 32.535C28.7167 32.2238 28.1552 31.6656 27.7939 30.8985C27.6523 30.5968 27.5375 30.2833 27.4032 29.9793C26.7978 28.6088 25.5137 27.901 24.088 28.1575C23.1627 28.3238 22.4792 28.8463 21.9323 29.5636C20.8118 31.0315 20.116 32.6941 19.5008 34.4066C19.0931 35.5419 19.1298 36.6155 19.6229 37.6939C19.8451 38.1784 20.0477 38.6772 20.3211 39.1308C21.1658 40.5322 22.0422 41.9145 22.9064 43.3064C23.3043 43.0095 23.6925 42.468 24.3492 42.8931C24.752 43.152 24.8912 43.6556 24.6812 44.0166C24.586 44.1781 24.42 44.3206 24.2516 44.418C23.8463 44.6555 23.4508 44.532 23.0993 44.266C23.0578 44.8716 23.0187 45.4156 22.9772 46.0022C24.8277 45.3015 26.1948 44.0261 27.6108 42.6271C27.0273 42.6271 26.5488 42.6794 26.0874 42.6176C23.878 42.3207 22.3254 41.0951 21.239 39.2591C20.4163 37.8672 20.0281 36.3875 20.3846 34.7843C20.7654 33.0741 21.5198 31.5184 22.5768 30.1099C22.8112 29.7964 23.1286 29.5114 23.4679 29.3071C24.5787 28.6302 26.019 29.0078 26.6098 30.0909C27.1909 31.1597 26.6806 32.6371 25.5186 33.1288C25.0987 33.3069 24.7862 33.5658 24.6202 33.9482C24.398 34.4707 24.1588 35.0099 24.0807 35.5609C23.8463 37.2164 24.9034 38.6986 26.5049 39.0311C26.9907 39.1332 27.4838 39.1498 27.9989 38.8648C27.8451 38.7864 27.7524 38.7366 27.6596 38.6891C27.5522 38.632 27.4399 38.5798 27.3373 38.5157C26.2607 37.8364 25.7603 36.8815 25.9312 35.6369C26.085 34.5182 26.7465 33.7748 27.828 33.3972C29.3245 32.877 30.8992 33.9316 30.843 35.4018C30.8088 36.321 29.8519 37.024 28.9925 36.758C28.392 36.5728 28.2577 36.0336 28.7264 35.6322C28.9071 35.4778 29.1292 35.3686 29.3563 35.2237L29.3636 35.2213ZM14.0885 43.3254C14.838 42.1188 15.6461 40.9217 16.3369 39.6629C16.8862 38.6629 17.2964 37.5893 17.7504 36.5395C17.9311 36.1215 17.8871 35.6916 17.7626 35.2545C17.3574 33.8271 16.8081 32.4542 16.0611 31.1692C15.6265 30.4234 15.1334 29.6895 14.5426 29.0577C13.4562 27.8939 11.8059 27.8084 10.5023 28.7323C9.96765 29.11 9.66004 29.6301 9.45498 30.2168C9.06925 31.3236 8.42476 32.1763 7.25294 32.6252C6.81107 32.7939 6.3985 33.1074 6.05916 33.4375C4.88491 34.5871 4.86293 36.1452 5.96151 37.1547C7.11623 38.214 9.0009 37.8957 9.57948 36.5443C9.9945 35.5728 9.2255 34.4589 8.21969 34.6204C7.98777 34.6584 7.78758 34.8888 7.57275 35.0313C7.72167 35.1762 7.87059 35.3187 8.01951 35.4636C8.02927 35.4731 8.04392 35.4754 8.05613 35.4802C8.34908 35.6203 8.55415 35.8293 8.5102 36.1642C8.4687 36.4944 8.21481 36.663 7.91209 36.7533C7.26515 36.9433 6.56695 36.6416 6.25202 36.0455C5.92001 35.4208 6.03963 34.6417 6.55962 34.0408C7.60693 32.8247 9.61122 32.9767 10.5804 34.3448C11.5813 35.7628 11.1639 37.6178 9.62587 38.5798C9.44033 38.6962 9.24503 38.8007 9.05461 38.9099C9.05949 38.9598 9.06681 39.0073 9.0717 39.0572C9.49404 39.0762 9.93103 39.1665 10.3387 39.1023C11.8938 38.8553 13.0827 37.2782 12.9216 35.6654C12.8069 34.5182 12.343 33.5705 11.2347 32.9696C10.0873 32.3473 9.7577 31.0814 10.3851 30.0173C10.9759 29.0126 12.3821 28.6515 13.4587 29.2881C13.8664 29.528 14.2765 29.8653 14.5182 30.2548C15.1139 31.2167 15.6729 32.2096 16.1368 33.238C17.1963 35.5942 16.835 37.834 15.3531 39.9146C14.2057 41.5226 12.6531 42.5202 10.6097 42.6936C10.2508 42.7245 9.88708 42.6984 9.45254 42.6984C10.8026 44.0641 12.1624 45.3253 14.0055 45.9737C13.9738 45.3538 13.9445 44.798 13.9152 44.2398C13.2463 44.665 12.7531 44.6365 12.3601 44.1543C12.0525 43.7791 12.0891 43.3444 12.4553 43.0166C12.9362 42.5891 13.3464 42.677 14.091 43.3278L14.0885 43.3254ZM18.5609 8.33426H18.4828C18.4438 8.45777 18.4047 8.58128 18.3681 8.70241C17.9238 10.1916 17.499 11.688 17.0303 13.1725C16.4273 15.0774 15.69 16.93 14.7452 18.7043C14.2228 19.6876 13.9347 20.7232 14.1203 21.8538C14.4303 23.7444 15.9048 25.179 17.8945 25.4902C19.6278 25.761 21.5247 24.7824 22.3596 23.1578C23.1212 21.6756 22.987 20.2054 22.2253 18.7613C20.6287 15.7306 19.6009 12.5051 18.7807 9.20833C18.7074 8.91618 18.6342 8.62641 18.5609 8.33426ZM18.456 38.7912C18.1435 39.3375 17.8408 39.8838 17.5234 40.4206C17.0058 41.2946 16.4395 42.1426 15.9659 43.0356C15.4996 43.9097 15.2579 44.8479 15.5338 45.8455C15.7022 46.4606 15.8658 46.5509 16.5298 46.3775C16.1294 45.4559 16.2661 44.6341 17.0644 43.9715C17.809 43.3539 18.661 43.2731 19.5106 43.6936C20.7093 44.285 20.9412 45.2707 20.492 46.4488C21.239 46.5295 21.3879 46.4749 21.4758 45.8573C21.5539 45.3039 21.5906 44.7125 21.4758 44.171C21.3538 43.5985 21.0828 43.038 20.7801 42.525C20.0404 41.2732 19.2469 40.05 18.4584 38.7912H18.456ZM6.14949 19.7375C6.30573 19.7232 6.35944 19.728 6.40826 19.7114C7.74852 19.2838 9.46963 20.2719 9.7577 21.8015C9.9652 22.9036 9.10587 24.0793 8.06345 24.1078C7.55566 24.1221 7.17238 23.8869 7.11135 23.5283C7.04788 23.1459 7.29933 22.8395 7.82176 22.7112C8.12692 22.6352 8.29537 22.4737 8.32955 22.1697C8.37349 21.7706 8.18795 21.4714 7.87303 21.2505C7.32618 20.8681 6.73539 20.8776 6.17634 21.1911C5.61485 21.507 5.24866 21.982 5.31701 22.659C5.45861 24.0342 6.61577 25.0674 7.96824 25.0484C9.30362 25.0294 10.5731 23.8252 10.6951 22.4761C10.8099 21.2101 10.2435 20.3099 9.15714 19.6639C8.35396 19.1865 7.73632 18.5523 7.45069 17.6545C7.42872 17.5856 7.38233 17.5238 7.28712 17.3481C6.88919 18.1865 6.53521 18.9299 6.15193 19.7375H6.14949ZM29.6346 17.4454C29.2684 18.5428 28.5091 19.2696 27.5668 19.8325C26.3511 20.5617 26.0361 22.1341 26.4975 23.2836C26.9321 24.3667 28.0966 25.1197 29.2196 25.0294C30.3718 24.9391 31.3728 24.0746 31.6218 22.9511C31.7683 22.2956 31.4607 21.5593 30.8992 21.2149C30.3572 20.8823 29.5858 20.899 29.0828 21.2576C28.763 21.4856 28.5751 21.7873 28.6434 22.1816C28.7118 22.5758 29.0096 22.7231 29.3856 22.8205C29.554 22.8656 29.7518 23.0485 29.8103 23.2124C29.969 23.6494 29.6395 24.0556 29.1463 24.0936C28.2406 24.1601 27.435 23.5425 27.2397 22.6233C26.9931 21.4643 27.7304 20.2078 28.9803 19.8088C29.5052 19.6401 30.0862 19.6472 30.7063 19.5665C30.367 18.8967 30.0008 18.1723 29.6346 17.4454ZM29.8982 39.6415C29.2586 39.8743 28.6019 40.1593 27.9184 40.3517C27.225 40.5464 26.5122 40.4799 25.8213 40.2614C25.1207 40.0405 24.5103 39.6819 23.9952 39.1665C22.3718 37.5442 22.2497 35.7391 23.5924 32.9482C23.3751 32.7535 23.1505 32.5516 22.8967 32.3236C22.3815 33.0789 22.0666 33.8627 21.864 34.6893C21.0901 37.8364 23.297 40.9716 26.5659 41.2566C28.3871 41.4158 29.0536 41.0429 29.9007 39.6391L29.8982 39.6415ZM14.1276 32.2713C13.8127 32.497 13.5759 32.6656 13.3098 32.8532C13.9518 33.8651 14.4352 34.9244 14.3693 36.1429C14.3009 37.378 13.8175 38.4563 12.8947 39.2852C10.9808 41.0048 8.9716 40.7721 6.93558 39.3874C7.30665 40.4087 8.33931 41.1782 9.47939 41.297C10.5999 41.4134 11.6375 41.1782 12.6091 40.6058C14.3497 39.5821 16.0757 36.8174 14.9112 33.9886C14.6769 33.4185 14.401 32.8627 14.13 32.2713H14.1276ZM19.5033 5.95195C19.6278 7.64546 22.0154 15.3244 22.55 15.866C22.6232 15.474 22.6574 15.0584 22.7868 14.6712C22.9211 14.2746 23.1457 13.9064 23.3312 13.5288C22.1594 13.1511 21.4807 12.3887 21.5442 11.3769C21.5686 10.9731 21.7175 10.5384 21.9348 10.1916C22.2985 9.61211 22.9308 9.41022 23.6315 9.38646C23.5192 8.98268 23.38 8.75467 22.9113 8.75704C22.2863 8.76179 21.6955 8.53615 21.2463 8.09199C20.8753 7.72621 20.553 7.31056 20.2234 6.9044C19.9915 6.61938 19.7791 6.31773 19.5008 5.94958L19.5033 5.95195ZM14.3424 15.8945C15.8584 12.7901 16.4981 9.43397 17.477 6.17047C17.3281 6.24885 17.2353 6.35336 17.1474 6.46024C16.7202 6.97803 16.3174 7.51482 15.8633 8.00648C15.4068 8.50052 14.7989 8.77604 14.1178 8.75942C13.654 8.74754 13.5124 8.97318 13.3952 9.35559C14.4498 9.43872 15.253 9.8805 15.4044 10.9232C15.5997 12.2699 14.8722 13.1321 13.571 13.5929C14.1959 14.2675 14.2863 15.0608 14.3375 15.8921L14.3424 15.8945ZM12.3674 30.3593C11.8938 30.3522 11.5081 30.6799 11.513 31.0885C11.5179 31.4828 11.8816 31.8058 12.3332 31.82C12.7849 31.8343 13.2707 31.4685 13.2853 31.1051C13.3 30.7465 12.8337 30.3688 12.365 30.3617L12.3674 30.3593ZM5.29016 29.5351C5.77109 29.5399 6.15925 29.1907 6.14949 28.7608C6.14216 28.414 5.77109 28.1005 5.36095 28.0934C4.89711 28.0863 4.4113 28.4829 4.41374 28.8653C4.41374 29.2216 4.82143 29.5304 5.29016 29.5351ZM24.5543 31.8343C25.0499 31.8343 25.4331 31.5303 25.4307 31.1384C25.4307 30.7512 25.0254 30.4068 24.5689 30.4044C24.1515 30.4021 23.7365 30.7845 23.734 31.1764C23.7316 31.5303 24.1124 31.8367 24.5543 31.8367V31.8343ZM18.4999 44.8764C18.0385 44.8764 17.7089 45.2042 17.7114 45.6555C17.7138 46.0355 18.0629 46.3514 18.4901 46.3585C18.9491 46.3656 19.3544 45.9951 19.3397 45.5747C19.3275 45.1923 18.9442 44.874 18.4999 44.8764ZM31.7805 29.4924C32.1759 29.4829 32.5714 29.1147 32.5617 28.7608C32.5543 28.4283 32.0832 28.072 31.673 28.0863C31.2385 28.1029 30.8381 28.4544 30.8406 28.8178C30.8406 29.1527 31.3288 29.5019 31.778 29.49L31.7805 29.4924ZM13.2097 12.1559C13.6467 12.1654 14.0226 11.8448 14.0421 11.4457C14.0617 11.0538 13.7272 10.7213 13.2975 10.7071C12.8484 10.6904 12.5261 10.9731 12.5115 11.3887C12.4968 11.8305 12.7849 12.1488 13.2097 12.1559ZM24.4542 11.3816C24.4493 10.9683 24.1466 10.6833 23.7291 10.6952C23.2897 10.7071 22.9284 11.042 22.9235 11.4362C22.9211 11.8258 23.2677 12.1417 23.6998 12.1417C24.1417 12.1417 24.4591 11.821 24.4542 11.3816ZM10.6561 12.2818C10.971 12.3198 11.2103 12.3483 11.4861 12.3839C11.4031 12.0894 11.3348 11.8424 11.2444 11.5241C11.0345 11.7949 10.866 12.0134 10.6561 12.2818ZM25.4698 12.4124C25.7774 12.3364 26.0068 12.2818 26.312 12.2058C26.0898 11.9754 25.9141 11.7949 25.6944 11.5693C25.6138 11.8733 25.5528 12.106 25.4722 12.4124H25.4698Z" fill="#FFEB61"/>
</g>
<defs>
<clipPath id="clip0_266_1268">
<rect width="37" height="48" fill="white"/>
</clipPath>
</defs>
</svg>
