<svg width="49" height="30" viewBox="0 0 49 30" fill="none" xmlns="http://www.w3.org/2000/svg">
<g clip-path="url(#clip0_266_1312)">
<mask id="path-1-outside-1_266_1312" maskUnits="userSpaceOnUse" x="-1" y="-1" width="51" height="32" fill="black">
<rect fill="white" x="-1" y="-1" width="51" height="32"/>
<path d="M42.0522 27.1474H49V27.8892H0V27.1416H8.57467C8.58061 27.0176 8.5901 26.9239 8.5901 26.8303C8.5901 26.0885 8.5901 25.3479 8.5901 24.6061C8.5901 24.1193 8.71232 23.9988 9.20715 23.9883C9.28666 23.9871 9.36616 23.9883 9.47889 23.9883C9.48483 23.8795 9.49314 23.7871 9.49432 23.6946C9.4967 23.3062 9.48839 22.9177 9.49788 22.5293C9.50619 22.2192 9.65452 22.0823 9.96779 22.08C10.7106 22.0753 11.4535 22.0683 12.1963 22.0776C12.3992 22.08 12.4645 22.0168 12.4562 21.8214C12.4455 21.5663 12.4562 21.3101 12.4609 21.0538C12.468 20.5928 12.5974 20.4653 13.072 20.4442C13.1421 20.4407 13.2121 20.4372 13.3189 20.4325C13.3189 20.1435 13.3177 19.8639 13.3189 19.5842C13.3212 19.0507 13.4387 18.9395 13.9881 18.9384C14.6242 18.9372 15.259 18.9267 15.8951 18.936C16.1312 18.9395 16.2261 18.881 16.219 18.626C16.2 17.9204 16.2131 17.2137 16.206 16.5082C16.2 15.9817 16.3211 15.8459 16.8456 15.819C16.8812 15.8167 16.9156 15.8108 16.9725 15.805C16.982 15.7383 16.9998 15.6728 17.001 15.6061C17.0058 15.3498 17.0034 15.0936 17.0081 14.8385C17.0164 14.3892 17.1126 14.2898 17.5611 14.2874C18.2589 14.2828 18.9578 14.2734 19.6555 14.2863C19.8988 14.291 19.9783 14.2231 19.9736 13.975C19.9569 13.252 19.9676 12.5277 19.9676 11.8034C19.9676 11.2898 20.0898 11.1693 20.6132 11.1576C20.6654 11.1564 20.7176 11.1505 20.8256 11.1412C20.8256 10.8639 20.8244 10.5924 20.8256 10.3222C20.8303 9.70203 20.8991 9.63417 21.5174 9.63417C22.1261 9.63417 22.7349 9.63417 23.3436 9.63417C23.4397 9.63417 23.5359 9.63417 23.6711 9.63417C23.6711 9.49961 23.6711 9.39665 23.6711 9.29368C23.6711 8.56123 23.6699 7.82878 23.6759 7.09633C23.6794 6.69267 23.7993 6.55811 24.198 6.55928C24.4223 6.55928 24.4745 6.47153 24.4686 6.27964C24.4614 6.01521 24.4626 5.74961 24.4709 5.48518C24.4804 5.15991 24.6216 5.02418 24.9563 5.02301C25.6908 5.01833 26.4241 5.0195 27.1587 5.01833C27.256 5.01833 27.3533 5.01833 27.4826 5.01833C27.4886 4.90718 27.4969 4.81474 27.4981 4.72231C27.4981 4.05187 27.4957 3.38027 27.4981 2.70983C27.4992 2.18916 27.6143 2.07449 28.1388 2.05577C28.1827 2.0546 28.2266 2.04992 28.3062 2.0429C28.3062 1.64626 28.3085 1.25195 28.3062 0.858814C28.3002 0.0608425 28.3501 0.00936037 29.1665 0.00819033C33.2378 0.00702028 37.3116 0.00351014 41.3841 0C41.968 0 42.0593 0.0924337 42.0593 0.682137C42.057 9.27028 42.0546 17.8573 42.0522 26.4454C42.0522 26.6654 42.0522 26.8853 42.0522 27.1474ZM41.2631 3.87637C34.1361 11.6537 27.0566 19.3771 19.9558 27.1264H41.2631V3.87637ZM32.4618 10.3257C33.4063 9.30304 34.3082 8.32722 35.2314 7.328H24.4697V9.63183C24.5837 9.63183 24.6727 9.63183 24.7617 9.63183C27.0804 9.63183 29.3979 9.63183 31.7166 9.63066C31.8234 9.63066 31.9325 9.62598 32.0381 9.63768C32.2719 9.66342 32.4119 9.79095 32.4357 10.0285C32.4428 10.1034 32.4487 10.1782 32.4618 10.3257ZM18.9803 27.1498C18.9803 26.4103 18.9732 25.7059 18.9851 25.0016C18.9886 24.8027 18.9246 24.7406 18.7264 24.7442C18.1093 24.7558 17.4911 24.7547 16.874 24.7559C14.4663 24.7582 12.0598 24.7617 9.65214 24.7559C9.41363 24.7559 9.34599 24.8261 9.35192 25.0566C9.36735 25.6381 9.3721 26.2219 9.34836 26.8034C9.3365 27.0831 9.43499 27.1369 9.69724 27.1369C12.6947 27.1346 15.6933 27.1439 18.6908 27.1509C18.7703 27.1509 18.8486 27.1509 18.9803 27.1509V27.1498ZM30.9844 11.9298C30.829 11.9228 30.7435 11.9158 30.6581 11.9158C29.933 11.9169 29.208 11.9216 28.4841 11.9216C26.0053 11.9216 23.5264 11.9228 21.0475 11.9122C20.7959 11.9122 20.7271 11.9848 20.733 12.2258C20.7472 12.8073 20.7342 13.39 20.733 13.9727C20.733 14.0663 20.7413 14.1599 20.7472 14.2793C20.8873 14.2793 21.0012 14.2793 21.1163 14.2793C23.219 14.2816 25.3217 14.2828 27.4245 14.2851C28.0605 14.2851 28.0866 14.3108 28.1424 14.9216C28.1448 14.945 28.159 14.9672 28.1816 15.0304C29.1143 13.9973 30.028 12.9852 30.982 11.9286L30.9844 11.9298ZM39.3455 2.83151C39.1354 2.83151 39.0108 2.83151 38.8874 2.83151C37.4908 2.83151 36.0941 2.83034 34.6974 2.83034C32.6469 2.83034 30.5976 2.83385 28.547 2.82566C28.3109 2.82566 28.2397 2.88885 28.2468 3.12286C28.2646 3.66108 28.2516 4.1993 28.2528 4.73752C28.2528 4.82176 28.2634 4.90601 28.2706 5.01365C28.3833 5.01365 28.4711 5.01365 28.5589 5.01365C29.7586 5.01014 30.9583 5.00663 32.158 5.00195C33.4289 4.99727 34.701 4.99025 35.9719 4.9844C36.4821 4.98206 36.5676 5.06396 36.5865 5.55889C36.5889 5.6291 36.6008 5.6993 36.6138 5.82683C37.5347 4.81708 38.4104 3.85647 39.3455 2.83151ZM26.7244 16.6158C26.6437 16.5936 26.6199 16.5819 26.5962 16.5819C23.4658 16.5831 20.3355 16.5866 17.2051 16.5842C17.0188 16.5842 16.982 16.658 16.9832 16.8206C16.9903 17.4021 16.9856 17.9848 16.9856 18.5663C16.9856 18.922 16.9856 18.9232 17.3511 18.9232C19.3458 18.9232 21.3394 18.9197 23.3341 18.9208C23.7281 18.9208 23.8764 19.0706 23.8978 19.4626C23.9002 19.5082 23.9096 19.5538 23.9203 19.6369C24.8661 18.619 25.781 17.6338 26.7255 16.617L26.7244 16.6158ZM19.7469 26.1201C19.7718 26.1318 19.7956 26.1424 19.8205 26.1541C19.8703 26.0932 19.9154 26.03 19.9688 25.9715C22.8607 22.8288 25.7596 19.6919 28.6455 16.5433C32.7739 12.0398 36.8891 7.52457 41.027 3.03159C41.3402 2.69111 41.2761 2.36466 41.2251 1.96802C41.0946 2.04641 41.0222 2.16927 40.9273 2.27223C39.158 4.19111 37.3792 6.10296 35.6147 8.02652C31.6216 12.3768 27.6416 16.7387 23.6427 21.0831C22.3979 22.4345 21.1068 23.7449 19.8395 25.0753C19.7991 25.1174 19.7528 25.1747 19.7505 25.2262C19.7422 25.5234 19.7469 25.8218 19.7469 26.1201ZM41.2014 0.847114C41.1883 0.826053 41.1753 0.804992 41.1622 0.783931C41.0732 0.783931 40.9842 0.783931 40.8952 0.783931C38.0948 0.787441 35.2943 0.790952 32.4938 0.794462C31.4472 0.795632 30.4006 0.794462 29.354 0.804992C29.2661 0.804992 29.1048 0.885725 29.1024 0.936037C29.081 1.30226 29.0905 1.67083 29.0905 2.04875C29.1914 2.0546 29.2614 2.06162 29.3314 2.06162C32.8379 2.06162 36.3457 2.06162 39.8522 2.06162C39.9127 2.06162 39.9934 2.06279 40.029 2.02769C40.4241 1.63807 40.8122 1.24142 41.2014 0.847114ZM10.2823 23.9649H19.6081C19.6081 23.6677 19.5938 23.3951 19.6128 23.1236C19.6282 22.8943 19.557 22.8253 19.315 22.8253C16.397 22.8311 13.4803 22.8253 10.5623 22.8253C10.4686 22.8253 10.3748 22.837 10.2823 22.8428V23.9661V23.9649ZM13.2239 21.2539C13.2239 21.4353 13.2394 21.6026 13.2204 21.7664C13.1931 22.0121 13.2868 22.0776 13.5337 22.0764C15.6459 22.0671 17.7581 22.0706 19.8715 22.0729C20.2856 22.0729 20.396 22.1817 20.4031 22.5901C20.4079 22.8393 20.4031 23.0885 20.4031 23.3389C20.4245 23.3448 20.447 23.3506 20.4684 23.3576C21.1115 22.6743 21.7547 21.991 22.4477 21.2562H13.2239V21.2539ZM30.5323 5.77652V5.78237C28.9398 5.78237 27.3462 5.77886 25.7537 5.78471C25.1853 5.78705 25.2648 5.68292 25.2482 6.29602C25.2434 6.48908 25.3206 6.53588 25.4997 6.53237C25.9376 6.52184 26.3767 6.52535 26.8157 6.52418C29.7147 6.51599 32.6148 6.50663 35.5138 6.50429C35.744 6.50429 35.8544 6.44813 35.814 6.20827C35.8069 6.16498 35.8069 6.11934 35.814 6.07605C35.8544 5.82566 35.7405 5.7695 35.4996 5.77184C33.8442 5.78237 32.1888 5.77769 30.5323 5.77769V5.77652ZM27.3533 15.7851C27.3533 15.6201 27.339 15.4785 27.3568 15.3405C27.3865 15.1112 27.3094 15.0363 27.0661 15.0374C24.0698 15.0445 21.0736 15.041 18.0761 15.041C17.9812 15.041 17.8874 15.0503 17.7818 15.0562V15.7851H27.3533ZM31.6062 10.4392H21.5957V11.1248H31.6062V10.4392ZM23.0849 19.7153H14.1258V20.4735C14.2456 20.4735 14.3512 20.4735 14.4569 20.4735C16.505 20.4688 18.5531 20.4653 20.6013 20.4594C21.3524 20.4571 22.1036 20.4548 22.8547 20.4395C22.933 20.4384 23.0671 20.3588 23.0754 20.3003C23.1039 20.1131 23.0861 19.9189 23.0861 19.7141L23.0849 19.7153Z"/>
<path d="M31.0639 29.9778H12.4716V29.2371C12.5677 29.2325 12.6627 29.2243 12.7576 29.2243C18.762 29.2243 24.7652 29.2266 30.7696 29.2208C31.0046 29.2208 31.0983 29.2769 31.0675 29.5144C31.0485 29.6607 31.0639 29.8105 31.0639 29.9778Z"/>
<path d="M48.9798 29.243V29.9696H39.1082V29.243H48.9798Z"/>
<path d="M9.19173 29.2231V29.9661C9.0873 29.9719 8.99949 29.9801 8.91287 29.9801C7.58027 29.9801 6.24767 29.9754 4.91388 29.986C4.673 29.9883 4.60773 29.9146 4.61722 29.6841C4.64096 29.1529 4.56857 29.2278 5.07171 29.2254C6.34141 29.2207 7.61231 29.2231 8.88201 29.2219C8.97813 29.2219 9.07544 29.2219 9.19054 29.2219L9.19173 29.2231Z"/>
<path d="M34.8766 29.2336H37.5786V29.9614C37.5418 29.9708 37.5003 29.9918 37.4599 29.9918C36.6933 29.9918 35.9256 29.9848 35.159 29.9918C34.9419 29.9942 34.8493 29.9275 34.8742 29.7052C34.8908 29.5589 34.8778 29.4103 34.8778 29.2336H34.8766Z"/>
<path d="M0.00113821 29.9988V29.2418H2.22016C2.23202 29.2722 2.24745 29.2956 2.24864 29.3202C2.27791 29.7742 2.06352 30.0004 1.60548 29.9988C1.0798 29.9977 0.552927 29.9988 0.00113821 29.9988Z"/>
</mask>
<path d="M42.0522 27.1474H49V27.8892H0V27.1416H8.57467C8.58061 27.0176 8.5901 26.9239 8.5901 26.8303C8.5901 26.0885 8.5901 25.3479 8.5901 24.6061C8.5901 24.1193 8.71232 23.9988 9.20715 23.9883C9.28666 23.9871 9.36616 23.9883 9.47889 23.9883C9.48483 23.8795 9.49314 23.7871 9.49432 23.6946C9.4967 23.3062 9.48839 22.9177 9.49788 22.5293C9.50619 22.2192 9.65452 22.0823 9.96779 22.08C10.7106 22.0753 11.4535 22.0683 12.1963 22.0776C12.3992 22.08 12.4645 22.0168 12.4562 21.8214C12.4455 21.5663 12.4562 21.3101 12.4609 21.0538C12.468 20.5928 12.5974 20.4653 13.072 20.4442C13.1421 20.4407 13.2121 20.4372 13.3189 20.4325C13.3189 20.1435 13.3177 19.8639 13.3189 19.5842C13.3212 19.0507 13.4387 18.9395 13.9881 18.9384C14.6242 18.9372 15.259 18.9267 15.8951 18.936C16.1312 18.9395 16.2261 18.881 16.219 18.626C16.2 17.9204 16.2131 17.2137 16.206 16.5082C16.2 15.9817 16.3211 15.8459 16.8456 15.819C16.8812 15.8167 16.9156 15.8108 16.9725 15.805C16.982 15.7383 16.9998 15.6728 17.001 15.6061C17.0058 15.3498 17.0034 15.0936 17.0081 14.8385C17.0164 14.3892 17.1126 14.2898 17.5611 14.2874C18.2589 14.2828 18.9578 14.2734 19.6555 14.2863C19.8988 14.291 19.9783 14.2231 19.9736 13.975C19.9569 13.252 19.9676 12.5277 19.9676 11.8034C19.9676 11.2898 20.0898 11.1693 20.6132 11.1576C20.6654 11.1564 20.7176 11.1505 20.8256 11.1412C20.8256 10.8639 20.8244 10.5924 20.8256 10.3222C20.8303 9.70203 20.8991 9.63417 21.5174 9.63417C22.1261 9.63417 22.7349 9.63417 23.3436 9.63417C23.4397 9.63417 23.5359 9.63417 23.6711 9.63417C23.6711 9.49961 23.6711 9.39665 23.6711 9.29368C23.6711 8.56123 23.6699 7.82878 23.6759 7.09633C23.6794 6.69267 23.7993 6.55811 24.198 6.55928C24.4223 6.55928 24.4745 6.47153 24.4686 6.27964C24.4614 6.01521 24.4626 5.74961 24.4709 5.48518C24.4804 5.15991 24.6216 5.02418 24.9563 5.02301C25.6908 5.01833 26.4241 5.0195 27.1587 5.01833C27.256 5.01833 27.3533 5.01833 27.4826 5.01833C27.4886 4.90718 27.4969 4.81474 27.4981 4.72231C27.4981 4.05187 27.4957 3.38027 27.4981 2.70983C27.4992 2.18916 27.6143 2.07449 28.1388 2.05577C28.1827 2.0546 28.2266 2.04992 28.3062 2.0429C28.3062 1.64626 28.3085 1.25195 28.3062 0.858814C28.3002 0.0608425 28.3501 0.00936037 29.1665 0.00819033C33.2378 0.00702028 37.3116 0.00351014 41.3841 0C41.968 0 42.0593 0.0924337 42.0593 0.682137C42.057 9.27028 42.0546 17.8573 42.0522 26.4454C42.0522 26.6654 42.0522 26.8853 42.0522 27.1474ZM41.2631 3.87637C34.1361 11.6537 27.0566 19.3771 19.9558 27.1264H41.2631V3.87637ZM32.4618 10.3257C33.4063 9.30304 34.3082 8.32722 35.2314 7.328H24.4697V9.63183C24.5837 9.63183 24.6727 9.63183 24.7617 9.63183C27.0804 9.63183 29.3979 9.63183 31.7166 9.63066C31.8234 9.63066 31.9325 9.62598 32.0381 9.63768C32.2719 9.66342 32.4119 9.79095 32.4357 10.0285C32.4428 10.1034 32.4487 10.1782 32.4618 10.3257ZM18.9803 27.1498C18.9803 26.4103 18.9732 25.7059 18.9851 25.0016C18.9886 24.8027 18.9246 24.7406 18.7264 24.7442C18.1093 24.7558 17.4911 24.7547 16.874 24.7559C14.4663 24.7582 12.0598 24.7617 9.65214 24.7559C9.41363 24.7559 9.34599 24.8261 9.35192 25.0566C9.36735 25.6381 9.3721 26.2219 9.34836 26.8034C9.3365 27.0831 9.43499 27.1369 9.69724 27.1369C12.6947 27.1346 15.6933 27.1439 18.6908 27.1509C18.7703 27.1509 18.8486 27.1509 18.9803 27.1509V27.1498ZM30.9844 11.9298C30.829 11.9228 30.7435 11.9158 30.6581 11.9158C29.933 11.9169 29.208 11.9216 28.4841 11.9216C26.0053 11.9216 23.5264 11.9228 21.0475 11.9122C20.7959 11.9122 20.7271 11.9848 20.733 12.2258C20.7472 12.8073 20.7342 13.39 20.733 13.9727C20.733 14.0663 20.7413 14.1599 20.7472 14.2793C20.8873 14.2793 21.0012 14.2793 21.1163 14.2793C23.219 14.2816 25.3217 14.2828 27.4245 14.2851C28.0605 14.2851 28.0866 14.3108 28.1424 14.9216C28.1448 14.945 28.159 14.9672 28.1816 15.0304C29.1143 13.9973 30.028 12.9852 30.982 11.9286L30.9844 11.9298ZM39.3455 2.83151C39.1354 2.83151 39.0108 2.83151 38.8874 2.83151C37.4908 2.83151 36.0941 2.83034 34.6974 2.83034C32.6469 2.83034 30.5976 2.83385 28.547 2.82566C28.3109 2.82566 28.2397 2.88885 28.2468 3.12286C28.2646 3.66108 28.2516 4.1993 28.2528 4.73752C28.2528 4.82176 28.2634 4.90601 28.2706 5.01365C28.3833 5.01365 28.4711 5.01365 28.5589 5.01365C29.7586 5.01014 30.9583 5.00663 32.158 5.00195C33.4289 4.99727 34.701 4.99025 35.9719 4.9844C36.4821 4.98206 36.5676 5.06396 36.5865 5.55889C36.5889 5.6291 36.6008 5.6993 36.6138 5.82683C37.5347 4.81708 38.4104 3.85647 39.3455 2.83151ZM26.7244 16.6158C26.6437 16.5936 26.6199 16.5819 26.5962 16.5819C23.4658 16.5831 20.3355 16.5866 17.2051 16.5842C17.0188 16.5842 16.982 16.658 16.9832 16.8206C16.9903 17.4021 16.9856 17.9848 16.9856 18.5663C16.9856 18.922 16.9856 18.9232 17.3511 18.9232C19.3458 18.9232 21.3394 18.9197 23.3341 18.9208C23.7281 18.9208 23.8764 19.0706 23.8978 19.4626C23.9002 19.5082 23.9096 19.5538 23.9203 19.6369C24.8661 18.619 25.781 17.6338 26.7255 16.617L26.7244 16.6158ZM19.7469 26.1201C19.7718 26.1318 19.7956 26.1424 19.8205 26.1541C19.8703 26.0932 19.9154 26.03 19.9688 25.9715C22.8607 22.8288 25.7596 19.6919 28.6455 16.5433C32.7739 12.0398 36.8891 7.52457 41.027 3.03159C41.3402 2.69111 41.2761 2.36466 41.2251 1.96802C41.0946 2.04641 41.0222 2.16927 40.9273 2.27223C39.158 4.19111 37.3792 6.10296 35.6147 8.02652C31.6216 12.3768 27.6416 16.7387 23.6427 21.0831C22.3979 22.4345 21.1068 23.7449 19.8395 25.0753C19.7991 25.1174 19.7528 25.1747 19.7505 25.2262C19.7422 25.5234 19.7469 25.8218 19.7469 26.1201ZM41.2014 0.847114C41.1883 0.826053 41.1753 0.804992 41.1622 0.783931C41.0732 0.783931 40.9842 0.783931 40.8952 0.783931C38.0948 0.787441 35.2943 0.790952 32.4938 0.794462C31.4472 0.795632 30.4006 0.794462 29.354 0.804992C29.2661 0.804992 29.1048 0.885725 29.1024 0.936037C29.081 1.30226 29.0905 1.67083 29.0905 2.04875C29.1914 2.0546 29.2614 2.06162 29.3314 2.06162C32.8379 2.06162 36.3457 2.06162 39.8522 2.06162C39.9127 2.06162 39.9934 2.06279 40.029 2.02769C40.4241 1.63807 40.8122 1.24142 41.2014 0.847114ZM10.2823 23.9649H19.6081C19.6081 23.6677 19.5938 23.3951 19.6128 23.1236C19.6282 22.8943 19.557 22.8253 19.315 22.8253C16.397 22.8311 13.4803 22.8253 10.5623 22.8253C10.4686 22.8253 10.3748 22.837 10.2823 22.8428V23.9661V23.9649ZM13.2239 21.2539C13.2239 21.4353 13.2394 21.6026 13.2204 21.7664C13.1931 22.0121 13.2868 22.0776 13.5337 22.0764C15.6459 22.0671 17.7581 22.0706 19.8715 22.0729C20.2856 22.0729 20.396 22.1817 20.4031 22.5901C20.4079 22.8393 20.4031 23.0885 20.4031 23.3389C20.4245 23.3448 20.447 23.3506 20.4684 23.3576C21.1115 22.6743 21.7547 21.991 22.4477 21.2562H13.2239V21.2539ZM30.5323 5.77652V5.78237C28.9398 5.78237 27.3462 5.77886 25.7537 5.78471C25.1853 5.78705 25.2648 5.68292 25.2482 6.29602C25.2434 6.48908 25.3206 6.53588 25.4997 6.53237C25.9376 6.52184 26.3767 6.52535 26.8157 6.52418C29.7147 6.51599 32.6148 6.50663 35.5138 6.50429C35.744 6.50429 35.8544 6.44813 35.814 6.20827C35.8069 6.16498 35.8069 6.11934 35.814 6.07605C35.8544 5.82566 35.7405 5.7695 35.4996 5.77184C33.8442 5.78237 32.1888 5.77769 30.5323 5.77769V5.77652ZM27.3533 15.7851C27.3533 15.6201 27.339 15.4785 27.3568 15.3405C27.3865 15.1112 27.3094 15.0363 27.0661 15.0374C24.0698 15.0445 21.0736 15.041 18.0761 15.041C17.9812 15.041 17.8874 15.0503 17.7818 15.0562V15.7851H27.3533ZM31.6062 10.4392H21.5957V11.1248H31.6062V10.4392ZM23.0849 19.7153H14.1258V20.4735C14.2456 20.4735 14.3512 20.4735 14.4569 20.4735C16.505 20.4688 18.5531 20.4653 20.6013 20.4594C21.3524 20.4571 22.1036 20.4548 22.8547 20.4395C22.933 20.4384 23.0671 20.3588 23.0754 20.3003C23.1039 20.1131 23.0861 19.9189 23.0861 19.7141L23.0849 19.7153Z" fill="#FFEB61"/>
<path d="M31.0639 29.9778H12.4716V29.2371C12.5677 29.2325 12.6627 29.2243 12.7576 29.2243C18.762 29.2243 24.7652 29.2266 30.7696 29.2208C31.0046 29.2208 31.0983 29.2769 31.0675 29.5144C31.0485 29.6607 31.0639 29.8105 31.0639 29.9778Z" fill="#FFEB61"/>
<path d="M48.9798 29.243V29.9696H39.1082V29.243H48.9798Z" fill="#FFEB61"/>
<path d="M9.19173 29.2231V29.9661C9.0873 29.9719 8.99949 29.9801 8.91287 29.9801C7.58027 29.9801 6.24767 29.9754 4.91388 29.986C4.673 29.9883 4.60773 29.9146 4.61722 29.6841C4.64096 29.1529 4.56857 29.2278 5.07171 29.2254C6.34141 29.2207 7.61231 29.2231 8.88201 29.2219C8.97813 29.2219 9.07544 29.2219 9.19054 29.2219L9.19173 29.2231Z" fill="#FFEB61"/>
<path d="M34.8766 29.2336H37.5786V29.9614C37.5418 29.9708 37.5003 29.9918 37.4599 29.9918C36.6933 29.9918 35.9256 29.9848 35.159 29.9918C34.9419 29.9942 34.8493 29.9275 34.8742 29.7052C34.8908 29.5589 34.8778 29.4103 34.8778 29.2336H34.8766Z" fill="#FFEB61"/>
<path d="M0.00113821 29.9988V29.2418H2.22016C2.23202 29.2722 2.24745 29.2956 2.24864 29.3202C2.27791 29.7742 2.06352 30.0004 1.60548 29.9988C1.0798 29.9977 0.552927 29.9988 0.00113821 29.9988Z" fill="#FFEB61"/>
<path d="M42.0522 27.1474H49V27.8892H0V27.1416H8.57467C8.58061 27.0176 8.5901 26.9239 8.5901 26.8303C8.5901 26.0885 8.5901 25.3479 8.5901 24.6061C8.5901 24.1193 8.71232 23.9988 9.20715 23.9883C9.28666 23.9871 9.36616 23.9883 9.47889 23.9883C9.48483 23.8795 9.49314 23.7871 9.49432 23.6946C9.4967 23.3062 9.48839 22.9177 9.49788 22.5293C9.50619 22.2192 9.65452 22.0823 9.96779 22.08C10.7106 22.0753 11.4535 22.0683 12.1963 22.0776C12.3992 22.08 12.4645 22.0168 12.4562 21.8214C12.4455 21.5663 12.4562 21.3101 12.4609 21.0538C12.468 20.5928 12.5974 20.4653 13.072 20.4442C13.1421 20.4407 13.2121 20.4372 13.3189 20.4325C13.3189 20.1435 13.3177 19.8639 13.3189 19.5842C13.3212 19.0507 13.4387 18.9395 13.9881 18.9384C14.6242 18.9372 15.259 18.9267 15.8951 18.936C16.1312 18.9395 16.2261 18.881 16.219 18.626C16.2 17.9204 16.2131 17.2137 16.206 16.5082C16.2 15.9817 16.3211 15.8459 16.8456 15.819C16.8812 15.8167 16.9156 15.8108 16.9725 15.805C16.982 15.7383 16.9998 15.6728 17.001 15.6061C17.0058 15.3498 17.0034 15.0936 17.0081 14.8385C17.0164 14.3892 17.1126 14.2898 17.5611 14.2874C18.2589 14.2828 18.9578 14.2734 19.6555 14.2863C19.8988 14.291 19.9783 14.2231 19.9736 13.975C19.9569 13.252 19.9676 12.5277 19.9676 11.8034C19.9676 11.2898 20.0898 11.1693 20.6132 11.1576C20.6654 11.1564 20.7176 11.1505 20.8256 11.1412C20.8256 10.8639 20.8244 10.5924 20.8256 10.3222C20.8303 9.70203 20.8991 9.63417 21.5174 9.63417C22.1261 9.63417 22.7349 9.63417 23.3436 9.63417C23.4397 9.63417 23.5359 9.63417 23.6711 9.63417C23.6711 9.49961 23.6711 9.39665 23.6711 9.29368C23.6711 8.56123 23.6699 7.82878 23.6759 7.09633C23.6794 6.69267 23.7993 6.55811 24.198 6.55928C24.4223 6.55928 24.4745 6.47153 24.4686 6.27964C24.4614 6.01521 24.4626 5.74961 24.4709 5.48518C24.4804 5.15991 24.6216 5.02418 24.9563 5.02301C25.6908 5.01833 26.4241 5.0195 27.1587 5.01833C27.256 5.01833 27.3533 5.01833 27.4826 5.01833C27.4886 4.90718 27.4969 4.81474 27.4981 4.72231C27.4981 4.05187 27.4957 3.38027 27.4981 2.70983C27.4992 2.18916 27.6143 2.07449 28.1388 2.05577C28.1827 2.0546 28.2266 2.04992 28.3062 2.0429C28.3062 1.64626 28.3085 1.25195 28.3062 0.858814C28.3002 0.0608425 28.3501 0.00936037 29.1665 0.00819033C33.2378 0.00702028 37.3116 0.00351014 41.3841 0C41.968 0 42.0593 0.0924337 42.0593 0.682137C42.057 9.27028 42.0546 17.8573 42.0522 26.4454C42.0522 26.6654 42.0522 26.8853 42.0522 27.1474ZM41.2631 3.87637C34.1361 11.6537 27.0566 19.3771 19.9558 27.1264H41.2631V3.87637ZM32.4618 10.3257C33.4063 9.30304 34.3082 8.32722 35.2314 7.328H24.4697V9.63183C24.5837 9.63183 24.6727 9.63183 24.7617 9.63183C27.0804 9.63183 29.3979 9.63183 31.7166 9.63066C31.8234 9.63066 31.9325 9.62598 32.0381 9.63768C32.2719 9.66342 32.4119 9.79095 32.4357 10.0285C32.4428 10.1034 32.4487 10.1782 32.4618 10.3257ZM18.9803 27.1498C18.9803 26.4103 18.9732 25.7059 18.9851 25.0016C18.9886 24.8027 18.9246 24.7406 18.7264 24.7442C18.1093 24.7558 17.4911 24.7547 16.874 24.7559C14.4663 24.7582 12.0598 24.7617 9.65214 24.7559C9.41363 24.7559 9.34599 24.8261 9.35192 25.0566C9.36735 25.6381 9.3721 26.2219 9.34836 26.8034C9.3365 27.0831 9.43499 27.1369 9.69724 27.1369C12.6947 27.1346 15.6933 27.1439 18.6908 27.1509C18.7703 27.1509 18.8486 27.1509 18.9803 27.1509V27.1498ZM30.9844 11.9298C30.829 11.9228 30.7435 11.9158 30.6581 11.9158C29.933 11.9169 29.208 11.9216 28.4841 11.9216C26.0053 11.9216 23.5264 11.9228 21.0475 11.9122C20.7959 11.9122 20.7271 11.9848 20.733 12.2258C20.7472 12.8073 20.7342 13.39 20.733 13.9727C20.733 14.0663 20.7413 14.1599 20.7472 14.2793C20.8873 14.2793 21.0012 14.2793 21.1163 14.2793C23.219 14.2816 25.3217 14.2828 27.4245 14.2851C28.0605 14.2851 28.0866 14.3108 28.1424 14.9216C28.1448 14.945 28.159 14.9672 28.1816 15.0304C29.1143 13.9973 30.028 12.9852 30.982 11.9286L30.9844 11.9298ZM39.3455 2.83151C39.1354 2.83151 39.0108 2.83151 38.8874 2.83151C37.4908 2.83151 36.0941 2.83034 34.6974 2.83034C32.6469 2.83034 30.5976 2.83385 28.547 2.82566C28.3109 2.82566 28.2397 2.88885 28.2468 3.12286C28.2646 3.66108 28.2516 4.1993 28.2528 4.73752C28.2528 4.82176 28.2634 4.90601 28.2706 5.01365C28.3833 5.01365 28.4711 5.01365 28.5589 5.01365C29.7586 5.01014 30.9583 5.00663 32.158 5.00195C33.4289 4.99727 34.701 4.99025 35.9719 4.9844C36.4821 4.98206 36.5676 5.06396 36.5865 5.55889C36.5889 5.6291 36.6008 5.6993 36.6138 5.82683C37.5347 4.81708 38.4104 3.85647 39.3455 2.83151ZM26.7244 16.6158C26.6437 16.5936 26.6199 16.5819 26.5962 16.5819C23.4658 16.5831 20.3355 16.5866 17.2051 16.5842C17.0188 16.5842 16.982 16.658 16.9832 16.8206C16.9903 17.4021 16.9856 17.9848 16.9856 18.5663C16.9856 18.922 16.9856 18.9232 17.3511 18.9232C19.3458 18.9232 21.3394 18.9197 23.3341 18.9208C23.7281 18.9208 23.8764 19.0706 23.8978 19.4626C23.9002 19.5082 23.9096 19.5538 23.9203 19.6369C24.8661 18.619 25.781 17.6338 26.7255 16.617L26.7244 16.6158ZM19.7469 26.1201C19.7718 26.1318 19.7956 26.1424 19.8205 26.1541C19.8703 26.0932 19.9154 26.03 19.9688 25.9715C22.8607 22.8288 25.7596 19.6919 28.6455 16.5433C32.7739 12.0398 36.8891 7.52457 41.027 3.03159C41.3402 2.69111 41.2761 2.36466 41.2251 1.96802C41.0946 2.04641 41.0222 2.16927 40.9273 2.27223C39.158 4.19111 37.3792 6.10296 35.6147 8.02652C31.6216 12.3768 27.6416 16.7387 23.6427 21.0831C22.3979 22.4345 21.1068 23.7449 19.8395 25.0753C19.7991 25.1174 19.7528 25.1747 19.7505 25.2262C19.7422 25.5234 19.7469 25.8218 19.7469 26.1201ZM41.2014 0.847114C41.1883 0.826053 41.1753 0.804992 41.1622 0.783931C41.0732 0.783931 40.9842 0.783931 40.8952 0.783931C38.0948 0.787441 35.2943 0.790952 32.4938 0.794462C31.4472 0.795632 30.4006 0.794462 29.354 0.804992C29.2661 0.804992 29.1048 0.885725 29.1024 0.936037C29.081 1.30226 29.0905 1.67083 29.0905 2.04875C29.1914 2.0546 29.2614 2.06162 29.3314 2.06162C32.8379 2.06162 36.3457 2.06162 39.8522 2.06162C39.9127 2.06162 39.9934 2.06279 40.029 2.02769C40.4241 1.63807 40.8122 1.24142 41.2014 0.847114ZM10.2823 23.9649H19.6081C19.6081 23.6677 19.5938 23.3951 19.6128 23.1236C19.6282 22.8943 19.557 22.8253 19.315 22.8253C16.397 22.8311 13.4803 22.8253 10.5623 22.8253C10.4686 22.8253 10.3748 22.837 10.2823 22.8428V23.9661V23.9649ZM13.2239 21.2539C13.2239 21.4353 13.2394 21.6026 13.2204 21.7664C13.1931 22.0121 13.2868 22.0776 13.5337 22.0764C15.6459 22.0671 17.7581 22.0706 19.8715 22.0729C20.2856 22.0729 20.396 22.1817 20.4031 22.5901C20.4079 22.8393 20.4031 23.0885 20.4031 23.3389C20.4245 23.3448 20.447 23.3506 20.4684 23.3576C21.1115 22.6743 21.7547 21.991 22.4477 21.2562H13.2239V21.2539ZM30.5323 5.77652V5.78237C28.9398 5.78237 27.3462 5.77886 25.7537 5.78471C25.1853 5.78705 25.2648 5.68292 25.2482 6.29602C25.2434 6.48908 25.3206 6.53588 25.4997 6.53237C25.9376 6.52184 26.3767 6.52535 26.8157 6.52418C29.7147 6.51599 32.6148 6.50663 35.5138 6.50429C35.744 6.50429 35.8544 6.44813 35.814 6.20827C35.8069 6.16498 35.8069 6.11934 35.814 6.07605C35.8544 5.82566 35.7405 5.7695 35.4996 5.77184C33.8442 5.78237 32.1888 5.77769 30.5323 5.77769V5.77652ZM27.3533 15.7851C27.3533 15.6201 27.339 15.4785 27.3568 15.3405C27.3865 15.1112 27.3094 15.0363 27.0661 15.0374C24.0698 15.0445 21.0736 15.041 18.0761 15.041C17.9812 15.041 17.8874 15.0503 17.7818 15.0562V15.7851H27.3533ZM31.6062 10.4392H21.5957V11.1248H31.6062V10.4392ZM23.0849 19.7153H14.1258V20.4735C14.2456 20.4735 14.3512 20.4735 14.4569 20.4735C16.505 20.4688 18.5531 20.4653 20.6013 20.4594C21.3524 20.4571 22.1036 20.4548 22.8547 20.4395C22.933 20.4384 23.0671 20.3588 23.0754 20.3003C23.1039 20.1131 23.0861 19.9189 23.0861 19.7141L23.0849 19.7153Z" stroke="#FFEB61" stroke-width="0.4" mask="url(#path-1-outside-1_266_1312)"/>
<path d="M31.0639 29.9778H12.4716V29.2371C12.5677 29.2325 12.6627 29.2243 12.7576 29.2243C18.762 29.2243 24.7652 29.2266 30.7696 29.2208C31.0046 29.2208 31.0983 29.2769 31.0675 29.5144C31.0485 29.6607 31.0639 29.8105 31.0639 29.9778Z" stroke="#FFEB61" stroke-width="0.4" mask="url(#path-1-outside-1_266_1312)"/>
<path d="M48.9798 29.243V29.9696H39.1082V29.243H48.9798Z" stroke="#FFEB61" stroke-width="0.4" mask="url(#path-1-outside-1_266_1312)"/>
<path d="M9.19173 29.2231V29.9661C9.0873 29.9719 8.99949 29.9801 8.91287 29.9801C7.58027 29.9801 6.24767 29.9754 4.91388 29.986C4.673 29.9883 4.60773 29.9146 4.61722 29.6841C4.64096 29.1529 4.56857 29.2278 5.07171 29.2254C6.34141 29.2207 7.61231 29.2231 8.88201 29.2219C8.97813 29.2219 9.07544 29.2219 9.19054 29.2219L9.19173 29.2231Z" stroke="#FFEB61" stroke-width="0.4" mask="url(#path-1-outside-1_266_1312)"/>
<path d="M34.8766 29.2336H37.5786V29.9614C37.5418 29.9708 37.5003 29.9918 37.4599 29.9918C36.6933 29.9918 35.9256 29.9848 35.159 29.9918C34.9419 29.9942 34.8493 29.9275 34.8742 29.7052C34.8908 29.5589 34.8778 29.4103 34.8778 29.2336H34.8766Z" stroke="#FFEB61" stroke-width="0.4" mask="url(#path-1-outside-1_266_1312)"/>
<path d="M0.00113821 29.9988V29.2418H2.22016C2.23202 29.2722 2.24745 29.2956 2.24864 29.3202C2.27791 29.7742 2.06352 30.0004 1.60548 29.9988C1.0798 29.9977 0.552927 29.9988 0.00113821 29.9988Z" stroke="#FFEB61" stroke-width="0.4" mask="url(#path-1-outside-1_266_1312)"/>
</g>
<defs>
<clipPath id="clip0_266_1312">
<rect width="49" height="30" fill="white"/>
</clipPath>
</defs>
</svg>
