<svg width="48" height="48" viewBox="0 0 48 48" fill="none" xmlns="http://www.w3.org/2000/svg">
<path d="M46.6183 9.96014C46.582 10.1661 46.5759 10.2993 46.5335 10.4174C44.226 16.9222 40.2892 22.1672 34.487 25.9616C34.2357 26.1251 33.9752 26.2796 33.7148 26.4279C32.4944 27.1214 31.1983 27.4364 29.7871 27.2456C29.3601 27.188 28.9271 27.182 28.3487 27.1426C29.2027 28.6386 29.987 30.0104 30.8591 31.5336C31.0439 30.7099 31.1983 30.0346 31.3679 29.2776C31.0318 29.1928 30.7077 29.111 30.3322 29.0171C30.3988 28.7234 30.4594 28.4599 30.5412 28.1056C31.3225 28.2601 32.0765 28.4084 32.8578 28.5599C32.7942 28.8475 32.7488 29.0686 32.6973 29.3109C32.5459 29.3563 32.3975 29.4017 32.231 29.4532C32.0917 30.1588 31.9584 30.8553 31.8221 31.5518C31.8554 31.57 31.8918 31.5851 31.9251 31.6033C32.5277 30.7554 33.1304 29.9044 33.7784 28.9929C34.7808 30.2042 35.7195 31.3368 36.6977 32.5209C36.413 32.7328 36.1647 32.9206 35.8952 33.1205C35.5893 32.7328 35.3228 32.3906 35.0139 31.997C34.3962 32.4421 33.8057 32.8691 33.2182 33.2961C33.2333 33.3233 33.2454 33.3476 33.2606 33.3748C33.8662 33.2507 34.4719 33.1235 35.1744 32.9781C35.3592 33.8472 35.5378 34.6891 35.7317 35.6067C35.3955 35.6703 35.1169 35.7248 34.7838 35.7884C34.6687 35.1918 34.5688 34.6588 34.4567 34.0713C33.7633 34.2015 33.1122 34.3257 32.3642 34.468C33.0153 35.7702 33.6482 37.036 34.2932 38.3261C33.3938 39.1134 32.5277 39.8675 31.595 40.6821C31.1256 40.0401 30.6835 39.4344 30.2081 38.7864C29.0391 39.1891 27.8854 39.5798 26.7376 39.9856C26.0199 40.2369 25.2962 40.4822 24.5966 40.7759C24.1545 40.9607 23.7639 40.9243 23.3308 40.7638C21.641 40.14 19.9452 39.5404 18.2524 38.9378C18.0828 38.8772 17.9072 38.8379 17.7164 38.7864C17.2712 39.4163 16.8503 40.0159 16.3688 40.6972C15.4512 39.8917 14.5791 39.1225 13.6797 38.3291C14.3368 37.0269 14.9788 35.7551 15.6481 34.4347C14.9273 34.3106 14.2763 34.1985 13.5434 34.0744C13.4223 34.6316 13.3042 35.1615 13.1709 35.7702C12.8984 35.7248 12.638 35.6824 12.2806 35.6218C12.4563 34.7254 12.6228 33.8775 12.7954 32.9993C13.498 33.1326 14.1279 33.2537 14.7547 33.3748C14.7699 33.3476 14.785 33.3203 14.7971 33.2931C14.1945 32.8842 13.5949 32.4724 12.9499 32.0363C12.6592 32.4058 12.3896 32.7449 12.0808 33.1326C11.8203 32.9448 11.5659 32.7631 11.2631 32.542C12.2564 31.355 13.2103 30.2103 14.2157 29.008C14.8607 29.9317 15.4603 30.7947 16.0629 31.6578C16.0993 31.6426 16.1387 31.6245 16.175 31.6093C16.0417 30.8947 15.9085 30.183 15.7722 29.4471C15.6087 29.4047 15.4603 29.3654 15.2968 29.326C15.2393 29.0959 15.1817 28.8778 15.109 28.5841C15.8752 28.4236 16.6141 28.2661 17.4287 28.0965C17.5014 28.4145 17.565 28.6901 17.6377 28.9929C17.2894 29.0807 17.0078 29.1534 16.6626 29.2412C16.8019 29.968 16.9381 30.6645 17.0714 31.364C17.4499 31.0885 19.3486 27.8452 19.5213 27.1547C19.0943 27.1759 18.6794 27.1608 18.2797 27.2274C16.8715 27.4636 15.5724 27.1638 14.3489 26.4673C12.5532 25.4438 10.9179 24.2022 9.41284 22.7879C5.76073 19.3478 3.11703 15.2506 1.47571 10.5083C1.44542 10.4204 1.41212 10.3357 1.38789 10.2478C1.37578 10.2054 1.38486 10.157 1.38486 10.0025C7.54742 11.8649 13.713 13.6183 19.7786 15.6412C19.6666 16.9676 19.5606 18.2486 19.4516 19.5265C19.5031 19.5386 19.5546 19.5537 19.606 19.5659C19.6787 19.4417 19.7575 19.3236 19.821 19.1964C19.9846 18.8663 20.0966 18.4969 20.3116 18.2062C20.7447 17.6126 20.887 16.9676 20.8416 16.2499C20.8143 15.7926 20.8355 15.3293 20.8355 14.8266C20.5993 14.763 20.3782 14.7115 20.1663 14.6419C19.818 14.5298 19.6272 14.3118 19.6908 13.9151C19.7484 13.5517 19.7817 13.1822 19.8301 12.7886C19.0943 12.51 18.5371 12.834 18.0344 13.2882C17.1562 12.4888 17.035 11.8256 17.5892 10.8838C17.7285 10.6445 17.8981 10.4235 18.0737 10.2085C18.3796 9.82993 18.7611 9.62098 19.276 9.66337C19.712 9.69971 20.1511 9.66943 20.6266 9.66943C20.9445 8.81545 21.2534 7.97965 21.5744 7.11659C22.3285 7.11659 23.0431 7.11659 23.7548 7.11659C24.4725 7.11659 25.1902 7.13173 25.9049 7.10145C26.2985 7.08328 26.4924 7.23772 26.6135 7.59808C26.7891 8.12198 27.0284 8.6277 27.201 9.15462C27.3282 9.54224 27.528 9.73302 27.955 9.68154C28.2276 9.64823 28.5122 9.6876 28.7848 9.66034C29.2451 9.61189 29.5963 9.79662 29.8749 10.1388C30.0778 10.3902 30.2868 10.6415 30.4473 10.9201C30.9863 11.8468 30.8713 12.4736 30.0445 13.2428C29.2632 12.7159 29.2632 12.7159 28.6545 12.7855C28.6757 13.0762 28.7091 13.367 28.7151 13.6607C28.7272 14.3088 28.5546 14.5238 27.9187 14.6691C27.6946 14.7206 27.4675 14.7539 27.1798 14.8084C27.201 16.0076 26.9405 17.2008 27.7158 18.2879C28.0186 18.7119 28.1852 19.2327 28.4607 19.6991C28.5304 18.3606 28.3669 17.0403 28.1095 15.6382C34.2478 13.6577 40.4073 11.8649 46.6183 9.96014ZM27.8823 35.3553C27.0284 34.1713 26.238 33.072 25.4567 31.9909C24.0364 32.5148 24.0364 32.5148 22.492 31.9848C21.7168 33.0871 20.9294 34.2076 20.1208 35.3553C21.4442 36.3577 22.704 37.3146 23.9971 38.2958C25.3022 37.3086 26.565 36.3547 27.8823 35.3553ZM2.88689 11.3501C2.84752 11.3925 2.81118 11.4349 2.77181 11.4773C2.95956 11.9194 3.15641 12.3585 3.33508 12.8037C3.45015 13.0853 3.65002 13.2125 3.94376 13.3003C8.64366 14.7085 13.3375 16.1318 18.0344 17.546C18.2221 17.6035 18.4159 17.6278 18.6521 17.6792C18.7188 17.1675 18.7793 16.7193 18.8459 16.2045C13.498 14.5752 8.19244 12.9642 2.88689 11.3501ZM29.3723 17.6338C29.4782 17.6429 29.5237 17.6611 29.563 17.649C34.4174 16.1893 39.2717 14.7327 44.123 13.264C44.2654 13.2216 44.444 13.1247 44.5046 13.0036C44.7559 12.4978 44.9679 11.974 45.2617 11.3017C39.7744 12.9733 34.4537 14.5934 29.1179 16.2166C29.2148 16.7586 29.2935 17.2038 29.3723 17.6338ZM21.1777 10.8747C21.2898 10.9262 21.3291 10.9564 21.3685 10.9595C22.5495 11.0503 22.9129 11.553 22.6131 12.7007C22.5374 12.9945 22.4466 13.2882 22.3376 13.6728C23.4671 13.3185 24.4967 13.4184 25.5263 13.6001C26.026 13.688 26.5196 13.8091 27.0223 13.8727C27.31 13.909 27.631 13.9272 27.8218 13.6153C27.6582 12.6281 26.347 9.10314 25.7383 8.02507C24.5785 8.02507 23.4065 8.02507 22.1983 8.02507C21.8561 8.98807 21.5169 9.93289 21.1777 10.8747ZM19.5273 22.3761C19.5515 22.8727 19.497 23.324 19.603 23.7297C19.9422 25.0198 20.2904 26.3129 20.7295 27.5726C21.1111 28.6658 21.7228 29.6531 22.489 30.5313C22.7706 30.8553 23.0583 31.1884 23.5398 31.3156C23.5489 31.1793 23.567 31.0885 23.5549 31.0007C23.2642 28.8051 22.9674 26.6127 22.6828 24.4172C22.6495 24.1598 22.5526 23.9962 22.3315 23.8721C21.5502 23.4299 20.775 22.9696 19.9937 22.5275C19.8877 22.4609 19.7514 22.4427 19.5273 22.3761ZM28.3972 22.3428C28.1307 22.47 27.9187 22.5517 27.7249 22.6638C27.101 23.0151 26.4924 23.3966 25.8594 23.7267C25.493 23.9175 25.3325 24.181 25.281 24.5837C25.0085 26.7156 24.7148 28.8415 24.4301 30.9734C24.418 31.0733 24.4422 31.1793 24.4483 31.3005C26.3712 30.4556 28.6697 25.2711 28.3972 22.3428ZM29.4722 18.5998C29.3208 19.5537 29.3632 23.0847 29.5146 23.5057C31.8978 22.7213 34.3871 19.4296 34.1933 17.2341C32.5974 17.6944 31.0196 18.1517 29.4722 18.5998ZM18.5825 18.6725C16.8957 18.0214 14.2641 17.3128 13.7736 17.3734C13.9825 20.0171 16.4021 23.0908 18.5825 23.4633C18.5825 21.8734 18.5825 20.2866 18.5825 18.6725ZM21.6562 17.655C22.4284 18.9935 23.1794 20.2987 23.991 21.7069C24.8177 20.2926 25.5778 18.9905 26.3349 17.6914C25.4264 16.6769 22.8796 16.5164 21.6562 17.655ZM12.8469 16.9191C11.8385 16.6103 10.8725 16.3105 9.90645 16.0167C8.96163 15.729 8.0168 15.4353 7.06592 15.1627C6.11807 14.8902 5.18839 14.5419 4.06489 14.3027C4.47977 15.0143 4.80683 15.5685 5.12782 16.1257C5.27015 16.371 5.48818 16.4376 5.75467 16.4831C7.52319 16.7798 9.28868 17.0948 11.0572 17.4037C11.6538 17.5066 12.2534 17.6096 12.8984 17.7186C12.8802 17.4188 12.8651 17.2159 12.8469 16.9191ZM35.1805 16.9131C35.1805 17.1887 35.1805 17.4218 35.1805 17.652C37.594 17.2522 39.9561 16.8646 42.3151 16.4619C42.4817 16.4346 42.6906 16.3407 42.7754 16.2105C43.154 15.62 43.4962 15.0022 43.8535 14.3935C43.8202 14.3572 43.7869 14.3178 43.7536 14.2815C40.9009 15.1567 38.0513 16.0319 35.1805 16.9131ZM29.127 35.5855C30.0173 36.8574 30.8591 38.0596 31.7313 39.3103C32.2552 38.8833 32.7094 38.5108 33.1849 38.1232C32.5005 36.7635 31.8403 35.4583 31.1559 34.1046C30.4594 34.6134 29.8265 35.0737 29.127 35.5855ZM16.814 34.1077C16.1235 35.4916 15.4694 36.7998 14.8032 38.1323C15.2907 38.532 15.745 38.9045 16.2477 39.3133C17.138 38.0323 17.9859 36.815 18.8581 35.5673C18.1616 35.0737 17.5286 34.6195 16.814 34.1077ZM30.7925 33.2537C29.8447 31.6063 28.9301 30.0165 28.0065 28.4084C27.6734 28.7385 27.637 29.0323 27.7673 29.4078C27.9096 29.8196 27.955 30.2618 28.064 30.6857C28.3093 31.6245 28.3154 32.5148 27.5311 33.2628C27.9005 33.7836 28.2427 34.2682 28.6122 34.786C29.345 34.2712 30.0385 33.7836 30.7925 33.2537ZM20.4721 33.2416C19.9361 32.7934 19.6969 32.2392 19.7726 31.6184C19.8574 30.9128 19.9815 30.2012 20.2056 29.5289C20.348 29.0989 20.3359 28.787 19.9876 28.4054C19.0428 30.0467 18.1131 31.6638 17.1834 33.281C17.9496 33.8109 18.643 34.2924 19.3698 34.7951C19.7363 34.2863 20.0785 33.7988 20.4721 33.2416ZM6.13927 17.44C6.11201 17.4763 6.08476 17.5157 6.05448 17.552C6.35428 17.9578 6.66013 18.3545 6.94781 18.7694C7.13557 19.0389 7.36875 19.151 7.69883 19.1661C9.17663 19.2267 10.6514 19.3145 12.1262 19.3842C12.4835 19.4023 12.8409 19.3872 13.2042 19.3872C13.1104 18.6725 13.1104 18.6665 12.532 18.5574C11.5811 18.3788 10.6272 18.2001 9.67327 18.0366C8.49527 17.8276 7.31727 17.6368 6.13927 17.44ZM41.9941 17.4854C41.7822 17.4703 41.6943 17.4491 41.6126 17.4612C39.5533 17.8185 37.4941 18.1819 35.4349 18.5453C34.8837 18.6422 34.8383 18.7149 34.8444 19.4326C36.728 19.3327 38.6085 19.2327 40.4921 19.1268C40.5981 19.1207 40.7344 19.0753 40.7949 19.0026C41.1826 18.5302 41.555 18.0426 41.9941 17.4854ZM19.8756 21.398C20.993 22.0279 22.0014 22.6002 23.0341 23.1816C23.1976 22.9363 23.3248 22.7486 23.455 22.5487C22.6979 21.2496 21.9499 19.9716 21.1141 18.5362C20.6629 19.5871 20.2813 20.4653 19.8756 21.398ZM28.061 21.4343C27.743 20.4531 27.4069 19.5447 26.8194 18.6513C26.3985 19.3751 26.0321 20.014 25.6626 20.65C25.2932 21.2829 24.9176 21.9158 24.5482 22.5396C24.63 22.6759 24.6784 22.7819 24.7481 22.8727C24.8268 22.9757 24.9267 23.0666 25.0267 23.1725C26.0351 22.5941 27.0132 22.0339 28.061 21.4343ZM39.9652 20.1019C39.6654 20.0867 39.5321 20.0716 39.4019 20.0776C37.7909 20.1594 36.1829 20.2533 34.5718 20.326C34.2114 20.3411 34.0964 20.5289 34.0843 20.862C35.3501 21.1073 36.6098 21.3586 37.8726 21.5978C38.1361 21.6463 38.4086 21.7129 38.6418 21.4616C39.0294 21.0346 39.4413 20.6348 39.9652 20.1019ZM8.21061 20.0837C8.19244 20.1321 8.1773 20.1836 8.15913 20.2321C8.51344 20.5955 8.88289 20.9407 9.21297 21.3223C9.45827 21.6069 9.73081 21.6554 10.076 21.5857C11.1602 21.3647 12.2473 21.1587 13.3314 20.9407C13.5222 20.9044 13.71 20.8529 13.8947 20.8105C13.8705 20.3411 13.5919 20.332 13.3072 20.3199C11.7628 20.2442 10.2184 20.1624 8.67394 20.0837C8.5195 20.0746 8.36506 20.0837 8.21061 20.0837ZM26.8012 38.9711C27.7491 38.6471 28.6879 38.3291 29.6933 37.9869C29.2269 37.3237 28.8181 36.7453 28.3729 36.1185C27.6249 36.6908 26.9375 37.2177 26.2471 37.7477C26.4378 38.1686 26.6014 38.5259 26.8012 38.9711ZM19.5909 36.1063C19.1488 36.7393 18.743 37.3177 18.2978 37.9536C19.2729 38.2988 20.1935 38.6289 21.1414 38.965C21.3564 38.529 21.5441 38.1474 21.744 37.7386C21.0354 37.2026 20.3601 36.6908 19.5909 36.1063ZM14.2611 25.3862C14.8577 24.6261 15.424 23.9114 16.0115 23.1635C15.8207 22.9908 15.6753 22.8576 15.5057 22.7032C14.5185 23.1847 13.5586 23.651 12.4896 24.1719C13.1285 24.611 13.6676 24.9804 14.2611 25.3862ZM33.7027 25.3832C34.3205 24.9713 34.8928 24.6473 35.444 24.1598C34.4053 23.654 33.4604 23.1907 32.5005 22.7213C32.3127 22.8939 32.1643 23.0302 31.9917 23.1877C32.5701 23.9236 33.1182 24.6291 33.7027 25.3832ZM17.4438 26.2826C17.4438 25.7648 17.4438 25.2409 17.4438 24.72C17.4438 24.0235 17.4438 24.0235 16.6898 23.7449C16.178 24.4232 15.6572 25.1137 15.1 25.8495C15.8661 26.1917 16.5687 26.4279 17.4438 26.2826ZM30.5412 26.2856C31.4073 26.431 32.1159 26.2281 32.8639 25.8193C32.3218 25.1106 31.8009 24.4263 31.277 23.7388C30.8834 23.9145 30.5321 23.9841 30.5381 24.4474C30.5503 25.044 30.5412 25.6376 30.5412 26.2856ZM11.6871 23.5753C12.7621 23.0332 13.7645 22.5305 14.7547 22.0339C14.676 21.6857 14.5004 21.6433 14.2308 21.7008C13.3102 21.8886 12.3836 22.049 11.46 22.2277C11.1329 22.2913 10.8119 22.3731 10.3667 22.473C10.8634 22.8879 11.2631 23.221 11.6871 23.5753ZM37.6183 22.4791C37.1065 22.37 36.7491 22.2913 36.3888 22.2217C35.5318 22.0521 34.6717 21.8886 33.8147 21.722C33.5543 21.6705 33.309 21.6433 33.2394 22.04C34.2387 22.5457 35.2411 23.0544 36.2707 23.5753C36.6856 23.2361 37.0913 22.9061 37.6183 22.4791ZM22.0044 39.2406C22.6646 39.498 23.237 39.7251 23.8154 39.9341C23.9335 39.9765 24.094 39.9765 24.209 39.9341C24.7814 39.7251 25.3477 39.492 25.9806 39.2436C25.7959 38.9105 25.6475 38.6471 25.49 38.3594C25.0691 38.635 24.7178 38.85 24.3816 39.0862C24.1212 39.2709 23.888 39.2739 23.6276 39.0862C23.2763 38.8378 22.9099 38.6107 22.495 38.3412C22.3285 38.644 22.1892 38.9014 22.0044 39.2406ZM26.2107 16.4164C26.2107 15.835 26.2107 15.2778 26.2107 14.7115C25.6142 14.554 25.066 14.336 24.4483 14.4178C24.4483 14.9447 24.4483 15.4171 24.4483 15.8956C25.0388 16.0712 25.602 16.2378 26.2107 16.4164ZM23.5186 14.4238C22.8917 14.3209 22.3709 14.5964 21.8106 14.7085C21.8106 15.2748 21.8106 15.8108 21.8106 16.3589C22.4163 16.1984 22.9674 16.053 23.5186 15.9077C23.5186 15.3989 23.5186 14.9205 23.5186 14.4238ZM20.3661 10.5719C18.964 10.3508 18.207 10.8656 18.2645 11.9164C18.849 11.8498 19.4334 11.7832 20.0361 11.7135C20.1481 11.3229 20.2571 10.9504 20.3661 10.5719ZM29.7871 11.9104C29.772 11.0806 29.0634 10.1752 27.8157 10.5809C27.9671 10.9776 28.1155 11.3744 28.2427 11.7105C28.8181 11.7862 29.3026 11.8498 29.7871 11.9104ZM23.994 23.4299C23.7578 23.76 23.5277 24.0205 23.5822 24.399C23.6942 25.1712 23.8123 25.9434 23.9335 26.7126C23.9365 26.7277 24.0092 26.7308 24.0788 26.7429C24.1697 26.1069 24.2302 25.465 24.3604 24.8381C24.4634 24.3293 24.4089 23.8902 23.994 23.4299ZM20.6175 13.7394C20.9385 13.8636 21.1535 13.8969 21.2837 13.6274C21.4503 13.2791 21.6532 12.9369 21.7561 12.5675C21.9378 11.9043 21.7561 11.7408 21.0748 11.8861C21.0354 11.8952 21.0051 11.9376 20.9112 12.0103C20.8204 12.5554 20.7174 13.152 20.6175 13.7394ZM26.9557 30.18C26.6771 30.5494 26.3955 30.9189 26.0957 31.3156C26.3955 31.7123 26.665 32.0727 26.9678 32.4724C27.6552 31.6729 27.0677 30.9431 26.9557 30.18ZM21.0505 30.2224C21.0021 30.2345 20.9536 30.2466 20.9052 30.2557C20.9112 30.9704 20.3298 31.679 21.0021 32.4966C21.3261 32.0484 21.6047 31.6638 21.8894 31.2671C21.5926 30.8977 21.3231 30.5616 21.0505 30.2224ZM15.3634 32.533C15.4058 32.5027 15.4452 32.4694 15.4876 32.4391C15.0697 31.8274 14.6518 31.2157 14.1854 30.5343C13.9431 30.8068 13.7524 31.0219 13.5131 31.2883C14.1582 31.7214 14.7608 32.1272 15.3634 32.533ZM18.3342 26.2674C18.64 26.2311 18.9065 26.2008 19.2184 26.1675C19.1367 25.7405 19.0549 25.365 18.9913 24.9835C18.9277 24.6079 18.7218 24.4777 18.3372 24.5716C18.3342 25.1197 18.3342 25.6678 18.3342 26.2674ZM29.6599 26.2826C29.6599 25.6497 29.6599 25.1046 29.6599 24.5292C29.4752 24.5413 29.3238 24.5534 29.1391 24.5686C29.0179 25.1076 28.8968 25.6315 28.7727 26.1887C29.0937 26.222 29.3389 26.2462 29.6599 26.2826ZM32.5792 32.3361C32.6186 32.3755 32.6579 32.4118 32.6973 32.4512C33.2727 32.0666 33.845 31.685 34.4567 31.2762C34.2145 31.0067 34.0207 30.7947 33.7875 30.5343C33.3544 31.1854 32.9668 31.7608 32.5792 32.3361Z" fill="#FFEB61"/>
<path d="M25.0357 9.26971C25.1447 9.58465 25.2356 9.84205 25.3415 10.1509C25.2113 10.16 25.1053 10.1812 25.0054 10.1691C24.7662 10.1388 24.6178 10.2448 24.4543 10.4205C23.9001 11.0291 23.467 11.0231 22.925 10.4447C22.6857 10.1903 22.6857 10.1903 22.0801 10.1207C22.1709 9.84205 22.2587 9.56951 22.3557 9.27273C22.504 9.27273 22.6403 9.27273 22.7736 9.27273C23.5185 9.26971 24.2604 9.26971 25.0357 9.26971Z" fill="#FFEB61"/>
</svg>
