<svg width="47" height="46" viewBox="0 0 47 46" fill="none" xmlns="http://www.w3.org/2000/svg">
<g clip-path="url(#clip0_266_1270)">
<path d="M43.4422 2.4536C42.9961 2.62741 42.5465 2.79433 42.1022 2.97502C40.0271 3.8234 37.9484 4.66489 35.8803 5.53048C35.2968 5.77484 34.7432 5.83507 34.1173 5.66643C32.3507 5.19147 30.5717 4.76126 28.7946 4.32589C28.6077 4.27942 28.3996 4.31212 28.2022 4.31212C24.9846 4.30696 21.7652 4.28631 18.5476 4.31212C18.0363 4.31556 17.525 4.5083 17.019 4.62876C15.5274 4.98325 14.0412 5.3584 12.5443 5.69224C12.2746 5.75247 11.9449 5.71977 11.6839 5.62169C9.83094 4.91786 7.99029 4.1865 6.14612 3.46202C5.37389 3.15915 4.60166 2.8494 3.82944 2.54653C3.72365 2.50523 3.61434 2.47597 3.47153 2.49318C3.76949 2.80638 4.05864 3.12473 4.36541 3.43105C5.14822 4.21403 5.94865 4.97981 6.71911 5.7714C7.2833 6.35133 7.6271 7.0259 7.43316 7.86051C7.39966 8.00678 7.35911 8.16166 7.28153 8.28556C6.37179 9.73107 5.95747 11.3642 5.42678 12.9508C4.24376 16.494 3.47682 20.1353 2.85093 23.8059C2.79451 24.1346 2.70812 24.4168 3.04311 24.7145C6.23956 27.5573 9.41662 30.4226 12.6007 33.2809C12.6695 33.3428 12.7453 33.3979 12.8758 33.4994C12.8405 33.3704 12.8282 33.2998 12.8035 33.2344C12.3821 32.1486 11.9554 31.0627 11.5376 29.9751C11.1638 29.0029 11.4371 28.0667 11.7738 27.1581C11.9537 26.6745 12.5478 26.5093 13.0098 26.7141C13.4664 26.9172 13.6445 27.3853 13.4558 27.8912C13.4523 27.9015 13.4505 27.9153 13.4435 27.9239C12.9287 28.6363 13.1455 29.3195 13.4399 30.0577C14.3515 32.343 15.203 34.649 16.0828 36.9463C16.2926 37.4935 16.3014 37.4901 16.915 37.4901C18.6551 37.4901 20.3953 37.4901 22.1354 37.4901C22.2747 37.4901 22.4158 37.4901 22.5921 37.4901C22.5921 36.5694 22.5973 35.6901 22.5815 34.809C22.5815 34.7333 22.4422 34.649 22.3558 34.5853C22.0067 34.3272 21.6188 34.1086 21.3121 33.8109C20.9295 33.4392 20.9859 33.0468 21.3209 32.6373C21.4443 32.4859 21.5201 32.2363 21.4972 32.0453C21.4408 31.5824 20.859 31.135 20.3759 31.1195C19.9281 31.1057 19.7235 31.2985 19.7218 31.7321C19.72 32.1795 19.4943 32.5254 19.1347 32.6356C18.7627 32.7491 18.3272 32.5908 18.0927 32.214C17.3628 31.0421 16.6505 29.8598 15.9224 28.6862C15.7302 28.3747 15.7126 28.0736 15.8166 27.7243C16.2573 26.2409 16.6752 24.7506 17.1001 23.2621C17.1371 23.1296 17.16 22.9937 17.2041 22.7923C17.0454 22.8233 16.9379 22.8371 16.8321 22.8646C16.0634 23.0711 15.4551 22.8371 15.0884 22.1573C14.9844 21.9629 14.8592 21.8958 14.6512 21.8803C12.7559 21.7357 11.527 20.6326 10.5855 19.1424C10.2911 18.6778 10.4057 18.2149 10.8324 17.9085C11.2114 17.6349 11.6751 17.6883 12.0489 18.0737C12.1935 18.2235 12.2781 18.4282 12.4174 18.5848C12.7823 18.9927 13.1261 19.4263 13.5457 19.7757C13.9301 20.0957 14.4255 20.2403 14.9509 20.1732C15.6949 20.0768 16.2679 20.2747 16.6717 20.9493C16.7581 21.0938 17.1636 21.056 17.5126 21.1196C17.1688 20.1422 16.8656 19.2835 16.5482 18.3835C16.409 18.5418 16.3067 18.6795 16.1798 18.7948C15.5979 19.3231 14.9139 19.49 14.1628 19.2474C13.3042 18.9703 12.8634 18.3267 12.7418 17.4852C12.6977 17.1772 12.5866 17.1032 12.2957 17.1083C11.4618 17.1238 10.6278 17.1273 9.79391 17.117C9.14863 17.1101 8.7396 16.6902 8.78191 16.1103C8.81188 15.7093 9.06753 15.415 9.47303 15.329C9.58763 15.3049 9.70929 15.2894 9.82741 15.2894C11.698 15.2877 13.5669 15.2894 15.464 15.2894C15.4551 15.2309 15.4446 15.1466 15.4322 15.0623C15.3494 14.5563 15.5979 14.1485 16.0616 14.0418C16.4936 13.9437 17.0102 14.133 17.1724 14.6148C17.8952 16.7676 18.6534 18.9084 19.3815 21.0594C19.452 21.2659 19.452 21.5258 19.3938 21.7374C18.835 23.7319 18.2602 25.7212 17.6801 27.7105C17.6167 27.9256 17.6149 28.0994 17.7436 28.2956C18.0909 28.8204 18.4171 29.3591 18.7644 29.9115C19.616 29.4141 20.494 29.316 21.402 29.6069C22.2729 29.8856 22.9835 30.395 23.523 31.135C24.6002 29.6447 26.4391 29.0132 28.2515 29.8994C28.4843 29.5191 28.6835 29.1061 28.962 28.7533C29.3446 28.2715 29.3482 27.8189 29.1648 27.2441C28.5883 25.4373 28.0717 23.6114 27.5569 21.7856C27.4969 21.5705 27.5463 21.2969 27.6239 21.0783C28.4578 18.7053 29.3341 16.346 30.1468 13.9661C30.8856 11.8064 31.5626 9.62782 32.2608 7.45611C32.393 7.04655 32.5711 6.69033 33.0594 6.61978C33.8158 6.50964 34.313 7.13259 34.0644 7.87083C33.5002 9.54866 32.9395 11.2265 32.3771 12.906C32.155 13.5686 31.9293 14.2294 31.7054 14.8919C31.6613 15.021 31.626 15.1517 31.5714 15.3342C31.7689 15.3342 31.9187 15.3342 32.0686 15.3342C33.6888 15.3238 35.3109 15.3135 36.9311 15.3049C37.0969 15.3049 37.2661 15.3101 37.4301 15.3359C37.9132 15.4133 38.2146 15.7695 38.2005 16.2342C38.1864 16.6936 37.8656 17.0825 37.3948 17.1049C36.6103 17.1445 35.8239 17.1359 35.0376 17.1462C34.8119 17.1497 34.5862 17.1462 34.3288 17.1462C34.2389 18.2665 33.7276 19.0701 32.5816 19.299C31.7406 19.4676 31.0407 19.1476 30.4959 18.4196C30.1645 19.3162 29.8471 20.1766 29.5156 21.0766C29.7484 21.099 29.9388 21.1403 30.1221 21.1265C30.2262 21.1179 30.369 21.0457 30.4166 20.9596C30.7639 20.3418 31.2593 20.0768 32.0016 20.1456C33.0947 20.2472 33.851 19.6707 34.4381 18.8395C34.5933 18.6193 34.7097 18.3732 34.8701 18.1581C35.2915 17.5953 36.0126 17.5747 36.4163 18.1013C36.6526 18.411 36.642 18.7346 36.4533 19.0495C35.5136 20.6172 34.2354 21.7099 32.2872 21.8579C32.192 21.8648 32.0598 21.9491 32.0227 22.0317C31.6225 22.9317 30.949 23.1434 29.9599 22.8835C29.9264 22.8749 29.8929 22.8732 29.8224 22.8646C29.8401 22.9644 29.8471 23.0504 29.87 23.1348C30.2985 24.6698 30.7198 26.2065 31.1676 27.7363C31.2787 28.1132 31.2523 28.4333 31.0478 28.7619C30.4571 29.717 29.8771 30.679 29.2917 31.6375C29.1507 31.8663 29.0167 32.1004 28.8615 32.3207C28.6306 32.6442 28.2921 32.7457 27.9165 32.6528C27.5445 32.5616 27.3506 32.3017 27.303 31.9231C27.2289 31.3363 26.9557 31.0748 26.5219 31.147C25.9049 31.2486 25.3865 31.8233 25.4782 32.3224C25.4958 32.417 25.5575 32.5168 25.6298 32.5839C26.0406 32.9677 26.1217 33.4289 25.7321 33.8333C25.4306 34.1482 25.0392 34.3908 24.6584 34.6163C24.4662 34.7298 24.3886 34.8314 24.3922 35.043C24.4045 35.7641 24.4063 36.4851 24.3974 37.2061C24.3939 37.4316 24.4627 37.5107 24.7025 37.509C26.6207 37.4987 28.5407 37.4935 30.4589 37.5038C30.7286 37.5038 30.7992 37.3748 30.8732 37.1734C31.7794 34.7144 32.6892 32.2553 33.6007 29.7979C33.6571 29.6447 33.7118 29.4899 33.7823 29.3436C33.9286 29.039 33.9339 28.7447 33.7823 28.4384C33.6853 28.2405 33.6025 28.0323 33.5372 27.8223C33.3926 27.356 33.6271 26.8793 34.0732 26.7038C34.5351 26.5197 35.1222 26.6952 35.2774 27.1564C35.57 28.0271 35.8257 28.9151 35.4678 29.8443C35.0164 31.0162 34.5827 32.195 34.1984 33.4185C34.3729 33.2585 34.5439 33.095 34.722 32.9419C35.0358 32.6751 35.3373 32.3912 35.6758 32.1554C36.0866 31.8681 36.5979 31.9627 36.88 32.3361C37.1621 32.7078 37.0916 33.2981 36.7407 33.6044C35.5154 34.673 34.3006 35.7555 33.0647 36.8138C32.7509 37.084 32.5852 37.4075 32.4776 37.7826C32.4141 38.0063 32.333 38.2249 32.259 38.4451C32.1285 38.8272 31.8605 39.0956 31.4691 39.1851C31.1782 39.2522 31.0971 39.4192 31.0478 39.6601C30.7903 40.9008 30.5012 42.1364 30.2738 43.3823C30.1521 44.0482 29.7924 44.3649 29.1313 44.5335C27.3929 44.9775 25.6739 45.4903 23.939 45.9515C23.6781 46.0203 23.366 46.022 23.1051 45.9515C21.2698 45.4542 19.445 44.9241 17.6114 44.4217C17.1177 44.2857 16.8603 44.0224 16.7651 43.5182C16.5147 42.1932 16.2168 40.8767 15.9417 39.5568C15.903 39.371 15.8465 39.2591 15.6191 39.2144C15.1589 39.1249 14.824 38.8151 14.7534 38.3798C14.6018 37.4316 13.983 36.8413 13.2971 36.239C9.37783 32.787 5.48496 29.3074 1.57094 25.8503C1.04202 25.3839 0.849844 24.8763 0.966207 24.181C1.65557 20.0338 2.58294 15.9451 3.88057 11.9355C3.91759 11.8219 3.89996 11.655 3.83825 11.5517C2.77336 9.73623 1.71199 7.9173 0.620644 6.11557C-0.0634281 4.98325 -0.179791 3.82512 0.26274 2.59643C0.476072 2.00446 0.664721 1.40561 0.869238 0.810193C1.10549 0.121853 1.65381 -0.170691 2.35551 0.0977614C3.91759 0.696617 5.46204 1.33677 7.01531 1.95456C8.63557 2.59815 10.2576 3.24175 11.8849 3.86642C12.0753 3.9387 12.3239 3.94042 12.5267 3.89223C14.2739 3.48611 16.0158 3.05418 17.7648 2.6515C18.1403 2.56546 18.537 2.53276 18.9231 2.53104C22.1407 2.51383 25.3583 2.48286 28.5759 2.52072C29.2371 2.5276 29.8965 2.79089 30.5541 2.95265C31.961 3.29682 33.3644 3.65648 34.7731 3.9972C34.8948 4.02646 35.0517 3.98516 35.1769 3.93353C38.2005 2.70829 41.2207 1.47616 44.2426 0.247475C44.4066 0.180362 44.5741 0.116691 44.7433 0.0633444C45.2722 -0.100136 45.8558 0.123574 46.0409 0.626062C46.3565 1.47616 46.6651 2.33486 46.8907 3.21078C47.1217 4.10734 46.9701 4.98841 46.5011 5.80582C45.4344 7.66089 44.3713 9.51769 43.2958 11.3693C43.1654 11.5948 43.1213 11.7789 43.2165 12.0456C43.4845 12.7925 43.0719 13.3707 42.3455 13.3276C41.933 13.3018 41.7602 13.0385 41.628 12.7013C41.1978 11.6051 40.7588 10.5123 40.3127 9.42476C40.2122 9.17868 40.0941 8.92743 39.9301 8.71921C39.2743 7.89321 39.4682 6.93469 39.9266 6.35133C40.3956 5.75419 40.9315 5.20524 41.4552 4.64769C42.0511 4.01441 42.6664 3.39663 43.2711 2.77024C43.3487 2.69108 43.4122 2.59987 43.4827 2.51383C43.4686 2.49318 43.4527 2.47425 43.4386 2.4536H43.4422ZM20.9965 39.2539C21.0987 40.727 21.104 42.1398 19.69 43.1155C19.8082 43.1654 19.8487 43.1878 19.891 43.1999C21.0423 43.5371 22.1918 43.8761 23.3449 44.2014C23.4683 44.2358 23.6252 44.2066 23.7557 44.1704C24.8435 43.8727 25.9296 43.5664 27.0156 43.2618C27.1108 43.236 27.2025 43.1964 27.3312 43.1517C26.7688 42.6268 26.2522 42.0933 26.1341 41.3706C26.0195 40.6805 26.0389 39.9681 25.9983 39.2539H20.9982H20.9965ZM4.70216 9.54866C4.7815 9.3869 4.8291 9.28537 4.87847 9.18728C5.10238 8.75191 5.29279 8.29416 5.56254 7.88804C5.77587 7.56452 5.72298 7.35286 5.47262 7.09817C4.37775 5.98134 3.29346 4.85419 2.20565 3.73219C2.1122 3.63755 2.00995 3.54978 1.89358 3.44137C1.67673 3.99892 1.75959 4.46355 2.02934 4.92646C2.7857 6.2171 3.52443 7.51634 4.27021 8.81386C4.40244 9.04273 4.53643 9.26816 4.7004 9.55038L4.70216 9.54866ZM42.3226 9.48327C42.3702 9.45057 42.3949 9.44197 42.4037 9.42476C43.3064 7.81749 44.2144 6.21194 45.1065 4.59778C45.3004 4.24673 45.2387 3.87158 45.1012 3.5016C45.0483 3.52225 45.0201 3.52569 45.006 3.53946C43.7965 4.81977 42.5871 6.10008 41.3899 7.39072C41.3229 7.46299 41.3177 7.65229 41.3653 7.74865C41.6068 8.2391 41.873 8.71921 42.134 9.20105C42.1869 9.29914 42.2591 9.3869 42.3226 9.48155V9.48327ZM18.3025 42.009L18.4153 42.0589C18.6869 41.7199 19.1047 41.4119 19.1964 41.0316C19.3304 40.4757 19.2316 39.8648 19.2316 39.2763H17.6749C17.8899 40.209 18.0962 41.109 18.3025 42.009ZM28.6941 42.0314C28.9092 41.0643 29.1049 40.1866 29.3111 39.2505C28.8245 39.2505 28.3785 39.2419 27.9342 39.2626C27.8795 39.2643 27.7931 39.426 27.7896 39.5155C27.7773 39.8735 27.8037 40.2348 27.7931 40.5928C27.772 41.245 28.2233 41.5977 28.6941 42.0314ZM31.5732 17.1875C31.7706 17.6607 32.0351 17.9017 32.3119 17.8414C32.6504 17.7657 32.728 17.5076 32.7491 17.1875H31.5732ZM15.4357 17.2047H14.3268C14.3567 17.5867 14.5454 17.838 14.7993 17.8586C15.0567 17.8793 15.3247 17.6126 15.4357 17.2047Z" fill="#FFEB61"/>
<path d="M46.1485 24.801C46.0092 25.0488 45.9246 25.3551 45.7236 25.5375C43.6837 27.3908 41.6262 29.2287 39.5652 31.0597C39.3977 31.2094 39.1738 31.3385 38.9551 31.3849C38.5778 31.4658 38.2323 31.2731 38.0842 30.9805C37.9343 30.6828 38.0172 30.127 38.2887 29.8758C38.8599 29.3492 39.4541 28.845 40.0288 28.3218C41.3811 27.0949 42.7316 25.8645 44.0698 24.622C44.1738 24.5256 44.2373 24.314 44.2126 24.1746C43.89 22.4021 43.5532 20.6314 43.2112 18.8623C43.1054 18.3134 43.2147 17.9503 43.5779 17.761C43.9235 17.5803 44.3678 17.644 44.6622 17.9399C44.7645 18.0432 44.8632 18.1843 44.8896 18.322C45.2934 20.4455 45.6865 22.5708 46.0815 24.696C46.085 24.7184 46.085 24.7425 46.0885 24.7648C46.1079 24.7752 46.1291 24.7855 46.1485 24.7958V24.801Z" fill="#FFEB61"/>
<path d="M13.7608 6.61133C14.1857 6.61133 14.5472 6.84881 14.6741 7.25837C15.0602 8.50254 15.4375 9.74844 15.8042 10.9978C15.9312 11.4297 15.7178 11.8203 15.3071 11.9769C14.9051 12.1318 14.4096 11.9563 14.2104 11.5691C14.1205 11.3953 14.0694 11.2008 14.0059 11.0133C13.6427 9.95666 13.2778 8.90178 12.9199 7.84346C12.7083 7.21879 13.1279 6.60961 13.7591 6.61133H13.7608Z" fill="#FFEB61"/>
<path d="M23.5335 8.0245C24.1118 7.54954 24.5914 7.51857 25.0022 7.91608C25.383 8.28263 25.4288 8.92794 25.1009 9.31686C24.6972 9.79869 24.2176 9.80902 23.5423 9.34783C22.853 9.81074 22.3364 9.80213 21.8992 9.32202C21.5465 8.93311 21.5483 8.32737 21.9062 7.95566C22.3417 7.50308 22.8442 7.52029 23.5318 8.02278L23.5335 8.0245Z" fill="#FFEB61"/>
<path d="M38.4561 13.4139C38.4561 12.7995 38.7029 12.4743 39.1049 12.3641C39.5386 12.2454 39.9229 12.3882 40.1204 12.7943C40.3478 13.2641 40.5612 13.746 40.7322 14.2381C40.9085 14.7423 40.674 15.2207 40.2244 15.3963C39.7643 15.5752 39.3341 15.4135 39.0872 14.9041C38.8263 14.3655 38.6165 13.801 38.4561 13.4156V13.4139Z" fill="#FFEB61"/>
<path d="M6.2183 14.4067C6.26061 14.2914 6.32937 14.0712 6.42458 13.8629C6.58149 13.5136 6.74369 13.1643 6.92176 12.8253C7.12804 12.4312 7.57586 12.2539 7.96198 12.3933C8.35338 12.5344 8.67426 13.0077 8.54555 13.3966C8.3569 13.9662 8.11536 14.5237 7.84032 15.0607C7.67283 15.3859 7.24441 15.4719 6.86358 15.3498C6.47923 15.2259 6.21477 14.8886 6.2183 14.4102V14.4067Z" fill="#FFEB61"/>
<path d="M13.1508 23.9351C12.6519 23.88 12.13 23.6442 11.7069 23.2278C11.4336 22.9576 11.4107 22.5308 11.6028 22.2263C11.8021 21.9131 12.1688 21.7737 12.569 21.9079C12.9957 22.049 13.417 22.2125 13.8243 22.3966C14.1681 22.5532 14.2986 22.8853 14.2087 23.2484C14.1046 23.6701 13.7362 23.9333 13.1491 23.9351H13.1508Z" fill="#FFEB61"/>
<path d="M33.731 23.9354C33.1774 23.9354 32.8636 23.7117 32.7507 23.3108C32.6344 22.9012 32.7472 22.6207 33.1933 22.397C33.5618 22.2111 33.9532 22.0631 34.3446 21.9289C34.7977 21.774 35.0692 21.8618 35.2843 22.1836C35.5064 22.514 35.48 22.9442 35.1838 23.2454C34.7624 23.6739 34.2388 23.8993 33.731 23.9354Z" fill="#FFEB61"/>
<path d="M29.1561 7.31207C29.1737 6.77172 29.6039 6.39141 30.1716 6.41034C30.7322 6.43099 31.3282 7.18128 31.2982 7.83004C31.2753 8.33597 30.8274 8.73349 30.2932 8.72144C29.7449 8.7094 29.1349 7.95222 29.1561 7.31207Z" fill="#FFEB61"/>
<path d="M17.9252 7.36022C17.719 7.71471 17.5568 8.10363 17.2976 8.4151C16.9943 8.7782 16.5271 8.78852 16.141 8.53384C15.7143 8.25162 15.6033 7.88852 15.8219 7.41873C15.933 7.17781 16.0476 6.93001 16.2098 6.72178C16.4531 6.41203 16.8568 6.34148 17.2429 6.48603C17.6044 6.62197 17.853 6.96442 17.8406 7.31204C17.8688 7.32752 17.897 7.34301 17.9252 7.3585V7.36022Z" fill="#FFEB61"/>
<path d="M10.8569 11.1734C10.8763 10.6158 11.37 10.1632 11.9306 10.189C12.5001 10.2149 12.918 10.6829 12.9003 11.2715C12.8827 11.8256 12.4455 12.2386 11.8901 12.2231C11.273 12.2059 10.8358 11.7619 10.8569 11.1734Z" fill="#FFEB61"/>
<path d="M22.3187 11.3729C22.3046 11.946 21.8567 12.4072 21.3243 12.4003C20.7284 12.3917 20.2717 11.9047 20.2911 11.2972C20.3088 10.7431 20.7495 10.3679 21.3701 10.3817C21.9431 10.3938 22.3328 10.8016 22.3187 11.3746V11.3729Z" fill="#FFEB61"/>
<path d="M24.7376 6.23826C24.734 5.67038 25.1977 5.21436 25.776 5.21436C26.3226 5.21436 26.8004 5.66522 26.8004 6.17803C26.8004 6.72182 26.3102 7.22775 25.7725 7.23807C25.2418 7.2484 24.7429 6.76656 24.7393 6.23826H24.7376Z" fill="#FFEB61"/>
<path d="M10.3775 27.1084C10.3705 27.6504 9.9015 28.1013 9.34614 28.103C8.81545 28.103 8.27771 27.5747 8.29534 27.0671C8.31121 26.5594 8.83132 26.0913 9.37082 26.0982C9.92266 26.1051 10.3846 26.5697 10.3775 27.1101V27.1084Z" fill="#FFEB61"/>
<path d="M40.2932 26.4598C39.722 26.4667 39.2812 26.0193 39.2759 25.4222C39.2706 24.8939 39.7537 24.4292 40.3126 24.4258C40.8274 24.4224 41.3211 24.9094 41.3176 25.417C41.314 25.9952 40.8644 26.453 40.2932 26.4598Z" fill="#FFEB61"/>
<path d="M41.7355 19.9844C42.3631 19.9896 42.8462 20.4336 42.8303 20.9894C42.8145 21.5194 42.319 21.972 41.7707 21.96C41.1819 21.9462 40.7411 21.4953 40.7534 20.9223C40.7658 20.3785 41.1836 19.9793 41.7372 19.9844H41.7355Z" fill="#FFEB61"/>
<path d="M39.156 20.8188C38.5707 20.8188 38.1246 20.3955 38.1334 19.8431C38.1422 19.2804 38.6095 18.8347 39.186 18.8364C39.7255 18.8399 40.1821 19.2839 40.1856 19.8104C40.1909 20.3921 39.7572 20.8171 39.156 20.8188Z" fill="#FFEB61"/>
<path d="M7.82632 20.8652C7.2445 20.8652 6.839 20.4574 6.83547 19.8654C6.83194 19.2993 7.27448 18.8467 7.82632 18.8501C8.38697 18.8536 8.85419 19.3234 8.85595 19.8895C8.85771 20.4385 8.40813 20.8652 7.82632 20.867V20.8652Z" fill="#FFEB61"/>
<path d="M7.67114 25.4067C7.67643 25.9574 7.21979 26.422 6.66971 26.4237C6.13726 26.4254 5.64889 25.947 5.6436 25.417C5.63831 24.8543 6.07908 24.3983 6.63269 24.3931C7.21803 24.3879 7.66585 24.825 7.67114 25.405V25.4067Z" fill="#FFEB61"/>
<path d="M20.2259 6.17283C20.2294 5.63592 20.6702 5.21948 21.2344 5.2212C21.7968 5.2212 22.2587 5.6669 22.2587 6.20724C22.2587 6.77856 21.8056 7.21566 21.2185 7.21222C20.6261 7.20878 20.2206 6.78545 20.2259 6.17455V6.17283Z" fill="#FFEB61"/>
<path d="M38.6237 27.1257C38.629 27.6694 38.1953 28.1031 37.6435 28.1083C37.0793 28.1134 36.5979 27.6488 36.5909 27.093C36.5838 26.5664 37.0634 26.1121 37.6276 26.1104C38.1741 26.1086 38.6184 26.5612 38.6237 27.1257Z" fill="#FFEB61"/>
<path d="M18.0608 10.3423C18.5862 10.3406 19.0517 10.8 19.0605 11.3283C19.0693 11.8704 18.6039 12.3488 18.0661 12.3505C17.4914 12.3522 17.0453 11.91 17.033 11.3249C17.0206 10.7794 17.4773 10.344 18.0591 10.3423H18.0608Z" fill="#FFEB61"/>
<path d="M23.5019 12.2061C24.0431 12.1992 24.5015 12.669 24.498 13.2283C24.4945 13.7876 24.066 14.235 23.5301 14.2367C22.9641 14.2385 22.4987 13.7807 22.4863 13.2094C22.474 12.6673 22.9324 12.2147 23.5019 12.2079V12.2061Z" fill="#FFEB61"/>
<path d="M21.855 17.7146C22.4333 17.7112 22.8741 18.1293 22.8846 18.6903C22.8952 19.2531 22.4262 19.7211 21.855 19.716C21.2926 19.7108 20.8659 19.2703 20.8677 18.6938C20.8677 18.15 21.3067 17.7163 21.8568 17.7129L21.855 17.7146Z" fill="#FFEB61"/>
<path d="M36.1061 11.2369C36.1008 11.7876 35.6424 12.2144 35.0659 12.204C34.4858 12.1937 34.0944 11.7773 34.0979 11.1784C34.1015 10.6277 34.5704 10.1752 35.1205 10.1924C35.6547 10.2079 36.1096 10.6914 36.1043 11.2369H36.1061Z" fill="#FFEB61"/>
<path d="M37.809 22.6788C38.352 22.6874 38.7593 23.1073 38.7575 23.6563C38.7575 24.2603 38.2939 24.7215 37.7085 24.7026C37.1814 24.6853 36.7459 24.2087 36.7653 23.6666C36.7847 23.1177 37.2572 22.6702 37.809 22.6788Z" fill="#FFEB61"/>
<path d="M28.5495 8.70599C28.5548 9.25666 28.1352 9.68171 27.5745 9.69376C27.0156 9.7058 26.5537 9.26699 26.5431 8.71287C26.5326 8.17769 27.0051 7.67864 27.5287 7.67004C28.0841 7.66143 28.5442 8.12951 28.5495 8.70427V8.70599Z" fill="#FFEB61"/>
<path d="M19.4237 7.71949C19.9879 7.71433 20.4463 8.15487 20.4498 8.7021C20.4533 9.27858 20.0355 9.71396 19.466 9.72256C18.8966 9.73117 18.454 9.30612 18.4452 8.73652C18.4364 8.15659 18.8525 7.72294 19.4237 7.71777V7.71949Z" fill="#FFEB61"/>
<path d="M26.037 15.8643C26.0423 16.4425 25.6315 16.8624 25.0497 16.8762C24.5172 16.8882 24.0641 16.4425 24.0553 15.8987C24.0465 15.3257 24.482 14.8628 25.025 14.8662C25.5909 14.8697 26.0317 15.3068 26.037 15.8643Z" fill="#FFEB61"/>
<path d="M25.0851 19.6866C24.4733 19.6831 24.0731 19.2753 24.0819 18.6678C24.0907 18.112 24.5174 17.7059 25.0834 17.7145C25.6528 17.7231 26.0936 18.1654 26.0865 18.7195C26.0795 19.2546 25.6281 19.69 25.0851 19.6866Z" fill="#FFEB61"/>
<path d="M37.6593 10.9668C37.0616 10.9702 36.6403 10.5676 36.6367 9.98935C36.6332 9.41459 37.0352 8.99642 37.5976 8.99126C38.1812 8.9861 38.622 9.4077 38.6255 9.97042C38.6273 10.5349 38.2112 10.9634 37.6593 10.9668Z" fill="#FFEB61"/>
<path d="M25.8026 12.3623C25.2208 12.3658 24.78 11.9321 24.7694 11.347C24.7606 10.8153 25.226 10.3799 25.8079 10.3765C26.3297 10.373 26.7793 10.8325 26.7828 11.3729C26.7846 11.9098 26.3403 12.3589 25.8026 12.3623Z" fill="#FFEB61"/>
<path d="M9.36555 10.9652C8.81018 10.9652 8.36236 10.5402 8.35531 10.0033C8.34825 9.45089 8.80136 8.99831 9.36202 8.99659C9.92797 8.99487 10.3634 9.40959 10.367 9.95682C10.3723 10.5213 9.93149 10.9635 9.36555 10.9652Z" fill="#FFEB61"/>
<path d="M5.28385 20.0152C5.82512 20.0203 6.26588 20.4626 6.27117 21.0047C6.27646 21.5467 5.83217 21.9856 5.28562 21.9804C4.7373 21.9752 4.24011 21.4762 4.2454 20.9427C4.25246 20.4161 4.70733 20.01 5.28385 20.0152Z" fill="#FFEB61"/>
<path d="M18.7256 14.214C18.7256 13.6479 19.1787 13.2366 19.794 13.2417C20.3106 13.2469 20.7337 13.6754 20.7267 14.1865C20.7179 14.7578 20.2806 15.2104 19.7341 15.2121C19.1716 15.2138 18.7256 14.7716 18.7256 14.2123V14.214Z" fill="#FFEB61"/>
<path d="M28.336 14.2005C28.3378 14.7357 27.8688 15.1832 27.3046 15.1866C26.7528 15.19 26.3244 14.7581 26.3279 14.2023C26.3314 13.6619 26.8057 13.1973 27.3505 13.2042C27.8794 13.2093 28.3343 13.6705 28.336 14.2005Z" fill="#FFEB61"/>
<path d="M21.9414 16.8869C21.4054 16.88 20.9347 16.393 20.947 15.8561C20.9576 15.3295 21.4283 14.8907 21.9678 14.9011C22.4985 14.9114 22.9534 15.3795 22.9446 15.9078C22.9358 16.4429 22.4721 16.8955 21.9414 16.8886V16.8869Z" fill="#FFEB61"/>
<path d="M28.9795 10.3819C29.5543 10.3767 29.9633 10.7674 29.9721 11.3335C29.981 11.922 29.6001 12.3454 29.0518 12.354C28.4647 12.3626 28.0063 11.9289 28.001 11.3593C27.9957 10.8121 28.4224 10.387 28.9795 10.3819Z" fill="#FFEB61"/>
<path d="M10.2169 23.7598C10.2116 24.2864 9.7391 24.708 9.17668 24.6925C8.64952 24.677 8.25283 24.2365 8.26517 23.6824C8.27751 23.1128 8.69889 22.6929 9.24897 22.6998C9.77436 22.7067 10.2239 23.1988 10.2169 23.7598Z" fill="#FFEB61"/>
</g>
<defs>
<clipPath id="clip0_266_1270">
<rect width="47" height="46" fill="white"/>
</clipPath>
</defs>
</svg>
