<svg width="48" height="48" viewBox="0 0 48 48" fill="none" xmlns="http://www.w3.org/2000/svg">
<path d="M35.9117 37.1914C35.421 36.4722 34.7788 36.1498 33.9874 36.1306C33.1743 36.1113 32.3589 36.1282 31.5458 36.1234C31.0551 36.121 30.663 35.6712 30.7472 35.1828C31.1994 32.609 32.5128 30.5715 34.6344 29.0633C36.6767 27.6104 38.9571 26.9874 41.4636 27.1413C42.3007 27.1918 43.1474 27.1774 43.9364 26.8046C44.8288 26.3836 45.233 25.6115 45.4687 24.7142C45.5288 24.4857 45.4446 24.3799 45.2041 24.3919C45.0285 24.4015 44.8505 24.3991 44.6749 24.3967C44.1818 24.3943 43.934 24.197 43.9196 23.8001C43.9051 23.396 44.1168 23.2252 44.6629 23.2132C44.9058 23.2084 45.1536 23.2012 45.3965 23.2204C45.6275 23.2373 45.7309 23.1386 45.8031 22.9245C46.0821 22.085 46.0869 22.0898 45.3316 21.6184C42.7553 20.0067 40.1863 18.3854 37.6028 16.7858C37.2588 16.5717 37.1265 16.3335 37.1385 15.9318C37.1626 15.0659 37.1891 14.1903 37.1169 13.3291C36.9653 11.5394 35.1564 10.3078 33.4365 10.7769C31.6156 11.2724 30.7424 13.2906 31.642 14.9672C31.8321 15.3232 32.0967 15.6408 32.3396 15.9655C32.6018 16.3191 32.6042 16.6607 32.33 16.906C32.0774 17.1346 31.7671 17.1249 31.4568 16.8243C30.23 15.636 29.7369 14.1999 30.1627 12.5281C30.574 10.9116 31.6444 9.89649 33.2633 9.52364C35.8733 8.92227 38.3774 10.9357 38.399 13.6202C38.4038 14.2312 38.3822 14.8421 38.4134 15.4507C38.4231 15.6167 38.5385 15.8404 38.6756 15.927C41.49 17.695 44.3117 19.451 47.1381 21.1998C47.3835 21.3514 47.4749 21.5221 47.4075 21.8036C47.1044 23.0544 46.8518 24.3221 46.503 25.5609C46.0244 27.264 44.4151 28.3826 42.5677 28.4162C41.389 28.4379 40.1887 28.3681 39.0413 28.5774C35.7482 29.1812 33.4437 31.0574 32.2699 34.2375C32.1977 34.4371 32.1592 34.6488 32.0943 34.899C32.7149 34.899 33.2802 34.899 33.843 34.899C34.6946 34.9014 35.4812 35.1011 36.1643 35.6327C36.898 36.2028 37.2708 36.9917 37.497 37.8601C37.5811 38.1849 37.2997 38.5024 36.9581 38.5024C34.8822 38.5048 32.8063 38.5072 30.7304 38.4904C30.5716 38.488 30.3695 38.3773 30.2613 38.2546C29.7898 37.711 29.34 37.1505 28.895 36.5852C28.7314 36.376 28.551 36.287 28.2768 36.2894C25.4624 36.3038 23.1387 35.3199 21.515 32.9313C21.4789 32.8784 21.4212 32.8399 21.4164 32.8375C20.7188 33.6746 20.0308 34.5021 19.3501 35.3175C19.5257 35.3175 19.747 35.32 19.9707 35.3175C21.4789 35.2887 22.648 35.9021 23.4514 37.1818C23.5861 37.3959 23.6799 37.646 23.7328 37.8938C23.7882 38.1512 23.7521 38.4302 23.4442 38.5337C23.1531 38.6323 22.8765 38.5938 22.6768 38.3292C22.595 38.2209 22.5349 38.1007 22.4651 37.9828C21.9456 37.1096 21.1806 36.6261 20.1655 36.6069C19.0542 36.5852 17.9404 36.5876 16.8291 36.6333C16.4009 36.6526 16.2253 36.4337 16.1315 36.1162C16.0209 35.7457 16.2614 35.5557 16.591 35.4258C20.4301 33.9103 22.4098 29.1451 20.7476 25.3637C19.8215 23.2565 18.1762 22.0225 15.903 21.7314C14.147 21.5077 12.6604 22.1788 11.4192 23.4128C11.3134 23.5187 11.2196 23.6342 11.1185 23.7448C10.7481 24.161 10.433 24.2259 10.1106 23.9517C9.76184 23.6558 9.77386 23.2854 10.1395 22.8572C11.7079 21.029 14.7003 19.7734 17.6494 20.8558C20.5937 21.9359 22.5397 24.6661 22.5445 27.9953C22.5445 28.9454 22.3377 29.9028 22.1741 30.8458C22.1188 31.1585 22.1164 31.4183 22.2583 31.6997C23.2084 33.5952 24.8177 34.5598 26.8407 34.8966C27.4902 35.0048 28.1637 34.988 28.8276 34.9856C29.1259 34.9856 29.3544 35.0529 29.5396 35.2839C29.9991 35.8564 30.4513 36.4289 30.9252 36.9893C31.0262 37.1096 31.1994 37.2395 31.3389 37.2419C32.7774 37.2563 34.2159 37.2467 35.6544 37.2419C35.7121 37.2371 35.777 37.2155 35.9117 37.1914Z" fill="#FFEB61" stroke="#FFEB61" stroke-width="0.25" stroke-miterlimit="10"/>
<path d="M14.4431 38.4928C13.493 38.4928 12.5428 38.4808 11.5951 38.5C11.3184 38.5048 11.1356 38.4182 10.9841 38.1945C10.6256 37.6677 10.2672 37.1409 9.88476 36.631C9.79576 36.5107 9.62978 36.4361 9.48305 36.376C8.51123 35.9719 7.46966 35.6856 6.57002 35.1612C3.25287 33.2296 1.31887 30.2613 0.751174 26.5183C-0.0666876 21.1325 1.92264 16.7906 6.19236 13.524C8.93941 11.4216 12.1074 10.4618 15.5857 10.8106C18.1668 11.068 20.5242 11.9821 22.5063 13.6827C24.2382 15.1693 26.2227 15.9872 28.4695 16.2157C28.8591 16.2542 29.256 16.2446 29.6481 16.2301C30.1244 16.2133 30.4275 16.4298 30.4395 16.8315C30.4492 17.2164 30.1316 17.5604 29.7059 17.5315C28.775 17.4666 27.8296 17.4377 26.9203 17.2525C24.8348 16.8291 23.0162 15.8621 21.4022 14.4477C19.9156 13.1463 18.0898 12.4632 16.1582 12.2034C11.1885 11.5322 7.15455 13.3315 4.21987 17.2982C1.32608 21.2071 0.931584 25.5105 3.19995 29.8668C4.68412 32.7197 7.04871 34.5911 10.2672 35.2647C10.4428 35.3007 10.6353 35.4403 10.7435 35.5894C11.0634 36.0272 11.3569 36.4842 11.6359 36.9485C11.7803 37.189 11.9655 37.2612 12.2349 37.2588C13.9452 37.2444 15.6531 37.2444 17.3634 37.2371C17.6328 37.2371 17.9311 37.266 17.9912 37.5619C18.0369 37.788 17.9936 38.067 17.8902 38.2763C17.8324 38.3966 17.5799 38.4784 17.4139 38.4832C16.4228 38.5024 15.4342 38.4928 14.4431 38.4928Z" fill="#FFEB61" stroke="#FFEB61" stroke-width="0.25" stroke-miterlimit="10"/>
<path d="M39.5563 20.6586C39.5515 21.2744 39.0944 21.7219 38.4666 21.7195C37.8363 21.7195 37.3865 21.2648 37.3961 20.6418C37.4058 20.026 37.8821 19.5569 38.4834 19.5714C39.104 19.5882 39.5611 20.0501 39.5563 20.6586Z" fill="#FFEB61" stroke="#FFEB61" stroke-width="0.25" stroke-miterlimit="10"/>
</svg>
