<svg width="48" height="48" viewBox="0 0 48 48" fill="none" xmlns="http://www.w3.org/2000/svg">
<g clip-path="url(#clip0_784_3334)">
<path d="M27.7523 4.18795C28.5937 4.54548 29.2509 5.05787 29.6753 5.72502C26.8648 5.509 24.0822 6.0007 21.7277 7.04315C19.1274 8.19444 17.0127 10.0356 15.9942 12.3796C14.9671 14.7434 15.0868 17.5461 16.8259 20.5235C18.5555 23.4845 21.8833 26.619 27.2805 29.7328C28.6305 30.5117 29.3695 31.5701 29.5969 32.6156C29.824 33.6599 29.5524 34.7372 28.7937 35.6001C27.2814 37.3201 23.6596 38.3137 17.9473 35.8799L17.7671 36.3028L17.9473 35.8799C10.3313 32.6351 6.89013 28.043 5.97538 23.5594C5.10908 19.3134 6.48713 15.0671 8.90725 11.9938C9.42255 12.9542 9.87382 14.0064 10.2932 15.1127L10.7527 16.3248L11.2262 15.1181C12.9364 10.7594 16.262 8.9546 19.7554 7.0588L19.7738 7.0488L20.6418 6.57774L19.7483 6.15699C14.6658 3.76357 9.82791 4.73832 5.1736 6.94563L4.29406 7.36276L5.14544 7.83471C5.89005 8.24747 6.54387 8.78149 7.12742 9.41506C1.95207 12.8481 0.266713 19.468 1.50542 26.1591C2.78591 33.076 7.20111 40.2061 14.3311 44.3226L14.5811 43.8896L14.3311 44.3226C23.4629 49.5948 33.4319 46.4112 38.6386 40.9663C41.2419 38.2438 42.717 34.8893 42.2159 31.6797C41.7104 28.4419 39.2234 25.5234 34.274 23.6354C30.7634 22.2962 28.3987 20.8294 26.9224 19.426C25.4433 18.0199 24.8905 16.7137 24.899 15.6787C24.9073 14.6615 25.4577 13.8027 26.4245 13.2526C27.3233 12.741 28.5844 12.5009 30.056 12.7046L30.2774 16.3022L30.2993 16.6576L30.6423 16.7532L43.8934 20.4446L44.3469 20.5709L44.5003 20.1258L46.4602 14.4392L46.6112 14.0012L46.1859 13.8174C43.5953 12.6973 41.5181 11.4523 39.8297 9.95004C39.8802 7.2192 38.6938 4.5321 36.5299 1.90297L35.5611 0.725821L35.6446 2.24812C35.6939 3.14598 35.7008 4.03508 35.6308 4.91865C33.5311 2.71439 30.7674 1.44937 27.904 1.47464C26.3556 1.48821 24.7887 1.87852 23.295 2.69277L23.5705 3.63047C25.156 3.5153 26.6131 3.7039 27.7523 4.18795ZM33.7288 11.6742C32.8857 11.1095 32.3229 10.1185 32.4011 8.77653C34.0788 9.40126 35.6571 10.4261 36.9853 12.0193C35.7508 12.4151 34.5711 12.2383 33.7288 11.6742Z" stroke="#FFEB61"/>
</g>
<defs>
<clipPath id="clip0_784_3334">
<rect width="48" height="48" fill="white"/>
</clipPath>
</defs>
</svg>
