<svg width="48" height="48" viewBox="0 0 48 48" fill="none" xmlns="http://www.w3.org/2000/svg">
<path d="M41.1007 28.9578C41.1007 28.9578 41.1007 37.9856 36.9434 37.9856C36.9434 37.9856 39.4376 32.5689 36.1114 29.8606M20.5905 39.8661L19.9665 44.6815C19.9665 44.6815 17.8181 45.2078 17.8181 46.1106M21.9763 45.2078C21.9763 45.2078 21.9763 44.305 20.3132 44.305M28.0741 39.8661L27.4501 44.6815C27.4501 44.6815 25.3016 45.2078 25.3016 46.1106M29.4599 45.2078C29.4599 45.2078 29.4599 44.305 27.7967 44.305M15.3239 23.5411C15.3239 23.5411 11.9976 31.6661 18.6501 35.2772C25.3025 38.8883 31.9541 36.18 32.7861 32.5689C33.6172 28.9578 30.9843 29.2584 28.1434 27.303M14.3061 8.34466C14.3061 8.34466 19.859 4.73265 15.0465 2.77723C10.6021 0.971679 10.2296 2.25272 8.8243 3.68001C7.93541 4.58279 7.93541 6.38835 7.04653 8.1939C6.90608 8.47918 6.76919 8.64529 6.81008 8.85654C6.98341 9.73314 6.71853 10.635 5.95053 11.0711C4.07497 12.1363 1.78697 13.6106 3.49097 13.6106C4.7603 13.6106 5.78964 14.1631 6.53719 14.7688C6.90988 15.0726 7.15798 15.5062 7.23323 15.9855C7.30848 16.4647 7.20549 16.9552 6.9443 17.3616C6.42697 18.1561 6.0803 19.3613 7.04653 20.8328C8.62964 23.245 10.3621 20.9718 11.1114 19.7233C11.3678 19.2969 11.7711 18.9826 12.243 18.8413C15.723 17.8013 14.1576 15.4161 14.1576 15.4161" stroke="#FFEB61" stroke-width="1.33333" stroke-miterlimit="10" stroke-linecap="round" stroke-linejoin="round"/>
<path d="M16.8245 10.9023C16.8245 10.9023 19.4912 10.9023 19.4912 17.2218C19.4912 25.3964 26.965 23.5412 26.965 22.6385C26.965 21.7357 27.797 11.8051 36.1116 13.6107C44.4263 15.4162 47.7534 22.3378 42.7641 33.7724M34.8645 35.4281C34.8645 35.4281 26.965 45.2079 13.661 36.1801C13.661 36.1801 7.84051 33.4718 10.3347 24.444" stroke="#FFEB61" stroke-width="1.33333" stroke-miterlimit="10" stroke-linecap="round" stroke-linejoin="round"/>
</svg>
