<svg width="48" height="48" viewBox="0 0 48 48" fill="none" xmlns="http://www.w3.org/2000/svg">
<path d="M14.9733 14.0285C13.7765 14.0546 12.4136 14.1425 11.0719 14.4987C10.3121 14.7005 9.69233 14.3087 9.22217 13.7649C8.43382 12.8531 8.22249 11.7299 8.28185 10.5664C8.30797 10.0321 8.71402 9.71395 9.17231 9.48362C9.87992 9.12981 10.5875 8.77601 11.2904 8.41745C12.6415 7.72883 13.9261 6.93574 15.1823 6.0904C19.029 3.4974 23.3388 4.52082 26.0553 7.62198C27.67 9.46462 28.475 11.654 28.7718 14.0475C28.9736 15.6764 28.9048 17.2982 28.5035 18.8987C27.7959 21.7173 26.0221 23.5504 23.3056 24.4931C22.0067 24.9443 20.6461 25.1651 19.3092 25.4809C18.1196 25.7635 16.9299 26.0484 15.8566 26.6634C13.6554 27.9267 12.898 29.8881 13.6697 32.3006C13.976 33.2552 14.4604 34.1053 15.1039 34.8746C16.144 36.1189 17.526 36.6009 19.086 36.7766C21.0213 36.9951 22.7974 36.703 24.3124 35.3851C25.2408 34.5778 25.9413 33.6042 26.459 32.4906C26.9956 31.3365 27.3043 30.1018 27.6771 28.8908C28.1829 27.2405 28.7813 25.6281 29.7074 24.1583C30.8804 22.2943 32.4856 20.8886 34.3615 19.7701C34.9409 19.4235 35.5179 19.0744 36.0521 18.6589C36.8595 18.032 37.4389 17.2887 37.2109 16.1893C36.9711 15.0306 36.3561 14.1591 35.2021 13.7507C34.5206 13.5085 33.794 13.4372 33.0958 13.2639C32.4618 13.1048 31.8445 12.9006 31.2817 12.561C29.4533 11.4616 29.2158 9.23904 30.7688 7.7692C31.2936 7.27292 31.9014 6.92149 32.5853 6.69353C33.1837 6.49644 33.7726 6.28511 34.2902 5.90756C34.5681 5.70572 34.7936 5.46827 34.9409 5.15008C35.1284 4.75115 35.3493 4.64905 35.6793 4.77965C35.9952 4.9055 36.0925 5.1477 35.9714 5.56087C35.6485 6.66266 34.9432 7.47238 34.0195 8.11588C33.8106 8.26311 33.5992 8.40795 33.4069 8.57892C33.2573 8.71189 33.141 8.88524 33.2264 9.10369C33.3119 9.3269 33.4948 9.41238 33.7227 9.42188C34.4422 9.45038 35.1712 9.41713 35.8788 9.56198C37.9185 9.97753 39.6947 10.8988 41.1099 12.4399C42.4682 13.9193 42.7199 15.7002 42.3423 17.5974C42.0122 19.2596 41.0957 20.6107 39.9416 21.817C38.8114 22.9972 37.5101 23.9826 36.2943 25.0678C34.9907 26.2289 33.8248 27.5017 33.0436 29.0855C32.6067 29.9688 32.3526 30.9044 32.1911 31.8756C31.8563 33.9106 31.2698 35.8672 30.1941 37.6433C28.7196 40.0796 26.5373 41.5803 23.809 42.2808C20.9263 43.0193 18.0507 42.884 15.2488 41.9056C11.9529 40.7564 9.97728 38.3652 9.09395 35.0361C7.85206 30.3511 9.84905 24.5074 13.6863 21.5582C14.781 20.7176 16.0062 20.1477 17.3479 19.8248C18.3879 19.5731 19.4327 19.3356 20.3968 18.8464C20.9643 18.5591 21.4582 18.1792 21.8168 17.6402C22.0566 17.2792 22.1468 16.8756 22.1991 16.4577C22.2252 16.2463 22.0898 16.1086 21.9592 15.978C21.2255 15.2371 20.3113 14.8168 19.3282 14.5319C17.9652 14.1354 16.5619 14.0404 14.9733 14.0285ZM32.3099 8.11113C31.797 8.36759 31.4075 8.73089 31.125 9.21055C30.7189 9.89442 30.7949 10.5783 31.3458 11.16C31.8017 11.6421 32.3811 11.9104 33.008 12.0742C33.6491 12.2428 34.2997 12.3734 34.948 12.5112C36.4748 12.8341 37.5861 13.6676 38.0895 15.173C38.7188 17.0537 38.3602 18.127 37.1041 19.2715C36.4724 19.8461 35.7506 20.2949 35.0216 20.7318C33.3214 21.7481 31.8468 23.0019 30.7569 24.6807C29.8783 26.0318 29.3084 27.5135 28.8335 29.0404C28.4061 30.4152 28.0666 31.8233 27.4302 33.127C26.5658 34.8984 25.3714 36.3825 23.581 37.2682C21.3561 38.3699 19.0267 38.1966 16.7827 37.4154C14.629 36.665 13.3871 34.9245 12.6486 32.8301C11.5421 29.6815 12.7389 26.8487 15.7474 25.4144C16.6877 24.9656 17.6827 24.6878 18.6871 24.4314C20.0406 24.0894 21.4321 23.9114 22.7594 23.4649C24.8704 22.7526 26.5065 21.4774 27.1785 19.2952C28.3254 15.5601 27.8813 12.003 25.5543 8.80925C24.0726 6.77902 22.0115 5.73897 19.4588 5.77933C18.1077 5.8007 16.9228 6.31835 15.8163 7.04496C14.6385 7.81669 13.456 8.57892 12.207 9.23429C11.3735 9.67121 10.5305 10.0963 9.69233 10.5237C9.52849 10.6068 9.38839 10.7018 9.40026 10.9131C9.43826 11.6302 9.56411 12.326 9.98678 12.9291C10.2883 13.3589 10.5614 13.4349 11.0672 13.328C13.7409 12.7557 16.4265 12.7225 19.1027 13.2876C20.4894 13.5797 21.7384 14.1876 22.7879 15.1707C23.1987 15.5553 23.3911 16.0136 23.3436 16.574C23.3175 16.8874 23.27 17.1961 23.1702 17.4977C22.8046 18.59 22.0257 19.3119 21.0355 19.8319C20.1308 20.3044 19.1549 20.5751 18.1671 20.8007C16.4313 21.1972 14.8403 21.8906 13.5842 23.18C10.4213 26.426 9.27679 30.3155 10.229 34.725C10.8772 37.7288 12.7412 39.835 15.6833 40.8513C18.4449 41.8035 21.2564 41.8629 24.0583 41.0152C26.554 40.2601 28.4085 38.6953 29.5981 36.373C30.358 34.8912 30.8424 33.3169 31.0917 31.6714C31.1796 31.0848 31.3007 30.5055 31.4835 29.9379C32.1721 27.7771 33.5043 26.0508 35.1546 24.5501C36.2041 23.5955 37.3035 22.6956 38.3578 21.7458C39.3836 20.8221 40.2812 19.7868 40.8677 18.514C41.8888 16.2986 41.4637 14.1069 39.6591 12.6061C38.1299 11.3334 36.3632 10.6187 34.3543 10.5712C33.9008 10.5593 33.4473 10.5735 33.0104 10.4097C32.1626 10.0939 31.8231 9.27941 32.1983 8.45544C32.2339 8.35334 32.3312 8.27023 32.3099 8.11113Z" fill="#FFEB61"/>
<path d="M19.3162 9.64756C18.6205 9.63569 18.1717 9.53596 17.7657 9.28663C16.8277 8.71437 16.8253 7.46061 17.787 6.92633C18.6276 6.45855 19.5204 6.42056 20.3967 6.84322C21.2966 7.27777 21.432 8.45791 20.6745 9.10854C20.2209 9.50034 19.6867 9.65706 19.3162 9.64756ZM19.1097 8.48403C19.3827 8.47691 19.6321 8.42942 19.8529 8.28932C20.069 8.1516 20.0642 7.97588 19.8268 7.87853C19.34 7.67669 18.8508 7.71231 18.3783 7.93789C18.1812 8.03287 18.2002 8.16347 18.3593 8.27982C18.5849 8.44604 18.8556 8.46741 19.1097 8.48403Z" fill="#FFEB61"/>
</svg>
