<svg width="48" height="48" viewBox="0 0 48 48" fill="none" xmlns="http://www.w3.org/2000/svg">
<g clip-path="url(#clip0_784_3338)">
<path d="M11.3927 24.941C11.3927 24.941 11.9281 22.5008 11.1977 21.0509C10.5952 19.8547 7.54587 18.151 7.54587 18.151C6.88854 19.7822 7.06237 22.5059 7.34137 23.2591L7.54587 23.9507L7.16462 24.5959C6.38625 25.9108 5.24056 26.9734 3.86628 27.6553L2.93067 28.1192C2.54577 28.3106 2.3902 28.7753 2.58229 29.1574L3.89403 31.9253C3.89403 31.9253 8.82401 33.149 12.2531 32.166M9.46893 18.9702C13.1062 13.823 36.3669 2.84712 43.1024 21.2452C43.8258 23.2369 43.9721 25.3901 43.5245 27.4602L41.684 36.0728C41.6279 36.3353 41.4825 36.5708 41.2723 36.7396C41.062 36.9084 40.7997 37.0004 40.5293 37H40.5198C39.7412 37 39.5324 36.3845 39.3855 35.6262C38.9517 33.3752 39.0452 29.9099 36.2523 25.1251" stroke="#FFEB61" stroke-width="0.9" stroke-miterlimit="10" stroke-linecap="round" stroke-linejoin="round"/>
<path d="M19.9907 20.8587C19.9907 20.8587 22.6076 24.9402 20.7386 27.9089C19.2706 30.2404 17.3417 34.1726 16.5814 35.7544C16.3783 36.1756 15.9496 36.4431 15.4792 36.4431H15.461C15.267 36.4435 15.0757 36.3979 14.903 36.3101C14.7303 36.2223 14.5813 36.0949 14.4682 35.9384C14.3551 35.7819 14.2813 35.6009 14.2529 35.4104C14.2245 35.2199 14.2423 35.0254 14.3048 34.8432C14.8584 33.2178 15.45 30.5195 14.7576 27.5377M21.1118 28.2801C21.1118 28.2801 32.7006 29.3936 36.4394 26.7961M33.1089 28.3004C33.1089 28.3004 33.1089 31.2002 32.2324 34.4024C32.0111 35.2129 32.3274 36.0379 33.1739 36.0379C33.6004 36.0379 33.989 35.7914 34.1672 35.4072L36.0303 31.9252M20.7036 33.0699L20.559 34.6532C20.4589 35.7436 21.6034 36.5193 22.5901 36.0292L22.6033 36.0227C22.8217 35.9142 23.008 35.7511 23.1437 35.5495C23.2795 35.3479 23.36 35.1147 23.3774 34.8729L23.6141 29.0253M42.8111 15.9246C42.8111 15.9246 47.297 14.8118 44.6808 18.1509" stroke="#FFEB61" stroke-width="0.9" stroke-miterlimit="10" stroke-linecap="round" stroke-linejoin="round"/>
</g>
<defs>
<clipPath id="clip0_784_3338">
<rect width="48" height="48" fill="white"/>
</clipPath>
</defs>
</svg>
