<svg width="48" height="48" viewBox="0 0 48 48" fill="none" xmlns="http://www.w3.org/2000/svg">
<path d="M12.6427 33.3135C13.1045 34.3548 13.6015 35.3324 13.9737 36.3548C14.3954 37.5162 14.7111 38.7176 15.0644 39.9049C15.2529 40.5386 15.3024 40.5834 15.9667 40.5811C16.664 40.5787 17.3613 40.5763 18.061 40.5763C18.6664 40.5763 18.8549 40.3643 18.7253 39.773C18.4709 38.6234 18.1905 37.4785 17.9338 36.3289C17.9078 36.2158 17.9149 36.0509 17.9785 35.9661C18.7041 34.9861 19.1164 33.8836 19.3001 32.6869C19.3095 32.6186 19.3307 32.5503 19.3566 32.4513C19.6181 32.4914 19.8655 32.5291 20.1105 32.5667C21.3543 32.7599 22.5982 32.8047 23.8467 32.595C23.9527 32.5762 24.1059 32.6374 24.186 32.7152C24.8715 33.3724 25.5358 34.0532 26.2284 34.7011C26.6312 35.0756 26.7584 35.462 26.6053 36.0132C26.2873 37.1723 26.0329 38.3478 25.7549 39.5186C25.7172 39.6811 25.6819 39.8484 25.6724 40.0157C25.6536 40.4044 25.8138 40.5763 26.1978 40.5811C26.9563 40.5905 27.7125 40.5905 28.4711 40.5881C28.9776 40.5858 29.1001 40.4915 29.2273 39.9992C29.6584 38.3337 30.0848 36.6681 30.5159 35.005C30.5748 34.7741 30.6525 34.5479 30.7373 34.2605C31.298 34.5998 31.7739 34.9696 32.139 35.4643C32.2003 35.5468 32.1696 35.7211 32.1414 35.8413C31.861 37.0733 31.5736 38.303 31.2909 39.5327C31.2556 39.6835 31.2273 39.8413 31.2226 39.9945C31.2132 40.3926 31.3828 40.5669 31.7856 40.5716C32.5678 40.5787 33.3499 40.574 34.132 40.574C34.6008 40.574 34.7327 40.4892 34.8481 40.0369C35.0601 39.1982 35.2533 38.3549 35.4512 37.5115C35.8116 35.9543 36.1556 34.3901 36.5349 32.8377C36.6762 32.2581 36.5749 31.7752 36.205 31.3229C35.1944 30.0908 34.6526 28.6609 34.3699 27.1037C34.1602 25.9353 34.5725 25.0801 35.5289 24.4512C35.6774 24.3522 35.887 24.2886 36.0637 24.298C37.0508 24.3593 37.8117 24.8022 38.2451 25.7138C38.5632 26.3829 39.0225 26.887 39.7246 27.1626C40.5985 27.5066 41.4325 27.3817 42.2264 26.953C42.7329 26.6797 43.2393 26.5054 43.8283 26.4771C44.5586 26.4418 45.1004 26.0389 45.3548 25.3369C45.6163 24.6161 45.4655 23.9399 44.9261 23.4075C44.641 23.1272 44.462 22.8115 44.2971 22.4652C43.3713 20.5241 42.4337 18.5877 41.522 16.6936C42.0285 16.3897 42.6174 16.1141 43.1192 15.7254C45.0344 14.2389 45.5739 11.7324 44.4337 9.75827C43.8354 8.71938 42.9307 8.08332 41.7505 7.87366C41.5644 7.84068 41.3123 7.909 41.1592 8.02443C40.853 8.25058 40.8176 8.59217 41.0909 8.91491C41.7364 9.67582 41.5408 11.167 41.0014 11.8997C40.3653 12.7595 39.2346 13.2024 38.2263 12.915C37.9083 12.8255 37.6279 12.6087 37.317 12.4839C36.6055 12.1988 35.8988 11.8879 35.1662 11.6735C34.1744 11.3861 33.1661 11.4285 32.1767 11.7348C31.086 12.0716 29.9976 12.4203 28.9045 12.7501C27.6772 13.1176 26.749 12.816 26.219 11.8525C25.7855 11.0681 25.7643 10.2436 26.1106 9.41904C26.2166 9.16462 26.4027 8.92668 26.1671 8.65577C25.9269 8.37544 25.6112 8.32597 25.279 8.40842C23.9315 8.73351 23.0623 9.59808 22.6571 10.8914C22.1388 12.5381 22.4945 14.0505 23.5193 15.4192C23.5829 15.5063 23.6441 15.5935 23.7054 15.6807C23.7124 15.6877 23.7054 15.7042 23.7054 15.683C23.0481 15.895 22.3744 16.0481 21.7595 16.3261C21.0952 16.6277 20.445 16.9905 19.8608 17.4239C18.6664 18.312 17.326 18.6654 15.8725 18.6866C15.0291 18.6984 14.1881 18.6937 13.3447 18.6772C10.9112 18.6301 9.04547 19.709 7.58255 21.5748C7.44591 21.7491 7.34697 21.7986 7.14202 21.7185C4.5601 20.6819 2.37396 17.2307 4.53655 13.8432C4.77213 13.4733 5.05481 13.2401 5.51183 13.1364C7.40822 12.71 8.39764 11.061 7.95947 9.06332C7.85817 8.60159 7.63908 8.16106 7.44356 7.72525C7.33755 7.4826 7.10197 7.33655 6.84755 7.44727C5.62491 7.97731 4.4164 8.55448 3.83453 9.86664C3.45525 10.7218 3.50237 11.5981 3.90285 12.4556C3.94996 12.5569 3.90285 12.7477 3.83218 12.8514C3.05006 13.9727 2.55771 15.1977 2.52237 16.5758C2.45641 19.1578 4.04655 21.5936 6.49419 22.6914C6.61433 22.7456 6.73212 22.7998 6.87817 22.8634C6.84284 22.9623 6.81693 23.0495 6.78159 23.1319C6.27039 24.3404 6.10077 25.5913 6.39053 26.8752C6.7439 28.4395 6.37404 29.8576 5.47885 31.118C4.98885 31.8058 4.96059 32.4207 5.17261 33.1957C5.78981 35.4573 6.3387 37.7376 6.91115 40.0133C7.03365 40.501 7.13495 40.5881 7.62495 40.5881C8.35994 40.5881 9.09259 40.5905 9.82759 40.5905C10.4472 40.5905 10.6545 40.3408 10.506 39.7283C10.2116 38.5009 9.92653 37.2689 9.59201 36.0533C9.45302 35.5491 9.5284 35.1816 9.97364 34.9107C10.8358 34.3878 11.7004 33.8742 12.6427 33.3135ZM9.30696 39.4291C8.93475 39.4291 8.62379 39.4149 8.31519 39.4338C8.01601 39.4526 7.87701 39.3561 7.80163 39.0427C7.29043 36.9532 6.76274 34.866 6.21385 32.7835C6.11726 32.4207 6.1738 32.1616 6.3764 31.8553C7.40586 30.3029 7.87937 28.6232 7.49303 26.748C7.28101 25.7256 7.35875 24.7174 7.7074 23.7256C8.55312 21.3251 10.9748 19.7184 13.1563 19.8315C14.0562 19.8786 14.9608 19.8527 15.863 19.8315C17.5451 19.7915 19.1211 19.4216 20.4898 18.3639C21.6771 17.4428 23.0246 16.8939 24.5346 16.7973C24.7937 16.7808 25.0694 16.8585 25.3214 16.9433C26.1059 17.2025 26.8715 17.5229 27.6654 17.7443C28.1059 17.8692 28.5889 17.8456 29.06 17.8904C29.0435 21.3015 30.4664 23.6054 33.9152 24.331C33.609 24.7715 33.2439 25.2168 32.9635 25.7138C31.5972 28.1497 30.5795 30.7316 29.8186 33.4101C29.2838 35.2947 28.8127 37.1982 28.3015 39.0922C28.2685 39.2147 28.1436 39.3937 28.0494 39.4032C27.6819 39.4409 27.3097 39.4173 26.9045 39.4173C26.9328 39.2807 26.9516 39.1794 26.9775 39.0757C27.2343 38.025 27.4722 36.9673 27.7549 35.9237C27.9151 35.3348 27.8068 34.8236 27.4369 34.3689C27.1943 34.0721 26.9163 33.8035 26.6477 33.5303C26.007 32.8777 25.312 32.2746 24.7325 31.5726C23.8821 30.5361 23.4274 29.3111 23.2955 27.9707C23.2861 27.8717 23.1824 27.7068 23.1094 27.6997C22.8055 27.6691 22.4969 27.688 22.0964 27.688C22.2472 28.3994 22.3343 29.0567 22.5299 29.6786C22.7277 30.3099 23.0269 30.9106 23.2837 31.5279C21.2106 31.8412 17.1988 30.9837 15.7146 29.9283C15.8583 29.1862 15.9997 28.463 16.1528 27.6809C15.783 27.6809 15.5191 27.688 15.26 27.6785C15.0597 27.6715 15.0126 27.7633 14.9726 27.9495C14.8548 28.4866 14.7629 29.0425 14.5485 29.5443C13.936 30.9766 12.7982 31.9307 11.4908 32.7057C10.8382 33.0921 10.1598 33.436 9.52841 33.8483C8.5225 34.5055 8.27279 35.1793 8.55077 36.343C8.78399 37.3489 9.03841 38.3478 9.30696 39.4291ZM41.562 25.9518C40.7422 26.47 39.7717 26.2085 39.3735 25.3652C38.6433 23.8127 37.3806 23.1602 35.7174 23.172C35.2839 23.1743 34.8505 23.2073 34.4194 23.1861C32.6078 23.0966 31.0483 21.9517 30.5112 20.2179C30.3086 19.5653 30.3204 18.8468 30.2214 18.1589C30.1696 17.7961 30.3416 17.6995 30.6737 17.5959C31.3545 17.3792 32.0259 17.1059 32.662 16.7808C33.0577 16.5782 33.0978 16.1424 32.8457 15.8644C32.6337 15.6335 32.3487 15.6288 31.9977 15.8479C29.6819 17.292 26.4216 16.8844 24.5652 14.9174C23.3567 13.6359 23.1989 11.7183 24.2024 10.3472C24.3509 10.1446 24.5487 9.975 24.7914 9.71822C24.7914 9.92082 24.8008 10.0009 24.789 10.0787C24.4098 12.6723 26.6901 14.7572 29.2744 13.822C30.2685 13.4615 31.2933 13.1906 32.3016 12.8702C33.6467 12.4438 34.94 12.637 36.198 13.2047C37.7339 13.8997 38.9024 15.0258 39.8541 16.3874C41.2181 18.3403 42.1557 20.5217 43.1263 22.682C43.1475 22.7314 43.1404 22.7927 43.1451 22.8539C42.2452 22.8704 41.5173 23.1885 41.1121 24.0059C40.7446 24.7527 40.9755 25.4029 41.562 25.9518ZM32.457 39.3985C32.49 39.2147 32.5065 39.0875 32.5348 38.9626C32.7703 37.9826 32.9918 36.9956 33.258 36.0227C33.404 35.4902 33.3098 35.0309 32.9353 34.661C32.4429 34.171 31.9246 33.7046 31.3828 33.2688C31.1637 33.0944 31.0978 32.9649 31.2014 32.7105C31.8681 31.052 32.5253 29.3865 33.192 27.7257C33.2203 27.6573 33.2792 27.6032 33.3452 27.5113C33.4323 27.9306 33.4983 28.3052 33.5902 28.6727C33.894 29.8835 34.5065 30.9342 35.2321 31.9378C35.364 32.1215 35.4677 32.4136 35.4229 32.6209C34.9424 34.8024 34.4288 36.9767 33.9176 39.1511C33.8964 39.243 33.788 39.382 33.7126 39.3843C33.3075 39.4102 32.9046 39.3985 32.457 39.3985ZM17.5144 39.4314C17.1328 39.4314 16.8218 39.4102 16.5132 39.4385C16.1905 39.4668 16.0633 39.3513 15.9855 39.0286C15.4649 36.8731 14.7346 34.7929 13.6321 32.8565C13.585 32.7741 13.6227 32.5856 13.691 32.5055C14.0962 32.032 14.5156 31.5726 14.949 31.1227C15.022 31.0473 15.2011 31.0025 15.2953 31.0379C16.2141 31.3889 17.1234 31.7658 18.0421 32.1168C18.2329 32.1898 18.2801 32.2817 18.2494 32.4631C18.0892 33.3701 17.8772 34.2865 17.2482 34.9743C16.7323 35.5397 16.6263 36.0957 16.8831 36.7718C16.8996 36.8165 16.909 36.8637 16.9184 36.9108C17.114 37.7235 17.3048 38.541 17.5144 39.4314ZM39.4372 14.0952C40.5467 13.8997 41.3854 13.3296 41.9861 12.4109C42.5962 11.478 42.7517 10.4603 42.5538 9.33894C42.9048 9.65697 43.2535 9.975 43.4843 10.3637C44.7093 12.4415 43.1169 15.0517 40.9778 15.5911C40.8883 15.6147 40.7375 15.5935 40.6834 15.5322C40.2664 15.0729 39.8683 14.597 39.4372 14.0952ZM6.66144 8.79947C7.19384 9.69937 6.92058 11.1223 6.08429 11.7159C5.79453 11.9209 5.46708 12.1776 5.09722 11.9845C4.70617 11.7795 4.69674 11.3578 4.71323 10.9668C4.75563 10.0692 5.6414 9.09159 6.66144 8.79947ZM43.1993 25.4099C42.9755 25.4099 42.7965 25.4641 42.6952 25.3982C42.4737 25.2615 42.2429 25.0919 42.1157 24.8752C42.0473 24.7598 42.1369 24.4724 42.2499 24.3428C42.6151 23.9305 43.4796 23.8245 43.9531 24.1001C44.2217 24.2603 44.3701 24.4959 44.3159 24.8187C44.2618 25.1461 44.045 25.3134 43.727 25.351C43.5244 25.3817 43.3218 25.3982 43.1993 25.4099Z" fill="#FFEB61"/>
<path d="M37.3687 18.1707C37.0388 18.1754 36.7514 18.4699 36.7585 18.7997C36.7632 19.1413 37.0412 19.431 37.3663 19.431C37.7197 19.431 38.0141 19.1107 38 18.7432C37.9859 18.4346 37.689 18.166 37.3687 18.1707Z" fill="#FFEB61"/>
</svg>
