<svg width="48" height="48" viewBox="0 0 48 48" fill="none" xmlns="http://www.w3.org/2000/svg">
<path d="M23.9967 3.6086C23.9718 4.72945 24.2114 5.74047 24.486 6.75398C24.6882 7.50039 25.0751 7.93975 25.8315 8.26427C28.3878 9.35517 30.27 11.2399 31.6904 13.6064C31.8976 13.9484 32.0973 14.2954 32.327 14.6849C31.9251 14.8471 31.5606 14.9919 31.1437 15.1592C31.0414 14.9969 30.9291 14.8396 30.8367 14.6699C29.4113 12.0912 27.4117 10.1515 24.6133 9.11802C21.9322 8.12697 19.3061 8.36412 16.7349 9.5399C16.655 9.57735 16.5851 9.63476 16.3779 9.76956C17.1118 10.3013 17.7359 10.8655 18.4548 11.2449C19.4184 11.7517 20.4369 12.186 21.4754 12.5155C22.122 12.7202 22.8509 12.6503 23.5374 12.7452C25.2574 12.9849 26.9299 13.4217 28.5226 14.1232C29.6459 14.6175 30.3799 15.9904 30.2525 17.2511C30.1302 18.4643 29.2191 19.5003 27.9584 19.72C27.4467 19.8098 26.8575 19.7924 26.3657 19.6276C17.1118 16.5371 8.7965 23.5344 7.61073 31.4478C7.30868 33.4573 7.32615 35.4544 7.91779 37.414C8.42454 39.0941 9.38064 40.4646 10.821 41.4881C10.9209 41.558 11.0108 41.6379 11.0931 41.7053C11.0906 41.7477 11.0931 41.7677 11.0881 41.7801C10.5864 42.8311 10.4366 42.8661 9.57036 42.1296C8.15744 40.9264 7.17637 39.4386 6.62967 37.6637C6.57476 37.4864 6.52233 37.3092 6.46492 37.1344C6.45493 37.107 6.42997 37.0845 6.41249 37.0596C5.28664 37.5688 4.56021 39.6707 4.9771 41.2235C5.49634 43.1606 7.31617 44.3963 9.33821 44.1816C11.2629 43.9794 12.8056 42.2994 12.893 40.2748C12.9429 39.119 12.5335 38.123 11.7272 37.2992C10.9334 36.4854 9.9548 36.0935 8.81147 36.106C8.81147 35.6317 8.81147 35.2073 8.81147 34.733C10.0571 34.8503 11.163 35.2023 12.1316 35.9537C14.4682 37.766 14.8701 41.0986 13.0353 43.4826C11.2704 45.7768 7.93277 46.1912 5.62615 44.3988C2.85521 42.2495 2.90015 37.9907 5.73599 35.8014C6.08548 35.5318 6.19032 35.2797 6.16536 34.8428C5.73349 27.521 10.3392 20.6286 17.1567 18.367C20.1848 17.3609 23.2229 17.3559 26.2734 18.2646C26.6129 18.3645 26.9599 18.4818 27.3069 18.4943C28.6025 18.5442 29.3913 17.2536 28.7772 16.1103C28.5101 15.6135 28.1157 15.2465 27.579 15.0743C25.8141 14.5026 24.0392 14.0308 22.1669 13.901C20.1573 13.7612 18.4074 12.8575 16.7923 11.6917C15.9136 11.0577 15.1322 10.3188 14.4133 9.4051C15.7488 8.49643 17.1567 7.86985 18.682 7.50538C20.2023 7.14341 21.735 7.14092 23.3577 7.43549C22.771 5.723 22.5563 4.04545 22.8284 2.19067C23.8519 2.32797 24.8779 2.36043 25.844 2.61755C30.3125 3.80331 33.1758 6.69657 34.5987 11.0577C34.6336 11.16 34.6761 11.2649 34.6861 11.3697C34.7285 11.7716 34.9182 11.879 35.3401 11.9189C37.1624 12.0862 38.7576 12.8401 40.148 14.0133C42.3623 15.8831 43.7078 18.2871 44.4143 21.0705C44.4492 21.2103 44.3519 21.4674 44.2296 21.5523C42.3024 22.9477 40.1655 23.819 37.784 24.0461C37.5269 24.0711 37.3596 24.1085 37.3122 24.4156C36.8054 27.5959 35.5598 30.4967 33.7924 33.1603C32.1223 35.6741 31.8452 38.3976 32.2721 41.2809C32.3345 41.7028 32.5192 41.9025 32.9361 42.0323C34.731 42.5865 35.6846 43.9894 35.5198 45.8092C28.2904 45.8092 21.0585 45.8092 13.8141 45.8092C13.8017 45.7718 13.7767 45.7294 13.7742 45.6869C13.7318 44.5985 13.7318 44.5985 14.8177 44.596C18.712 44.5885 22.6038 44.581 26.498 44.5735C26.6803 44.5735 26.865 44.5735 27.0472 44.5735C27.0822 44.5286 27.1171 44.4837 27.1521 44.4362C26.8525 44.1292 26.5954 43.7597 26.2484 43.5276C25.2873 42.8785 24.1964 42.7337 23.0556 42.8111C22.7585 42.8311 22.3466 42.8311 22.1769 42.6539C21.8798 42.3468 21.9922 41.9124 22.1944 41.5305C23.1729 39.6807 23.2029 37.8309 22.112 36.0186C21.3131 34.6905 20.0974 33.9192 18.6221 33.5247C18.37 33.4573 18.1178 33.3974 17.8832 33.3375C17.8632 33.2776 17.8432 33.2452 17.8482 33.2202C18.0479 32.0519 18.0429 32.0719 19.1988 32.3614C22.9807 33.3101 25.1525 37.5039 23.792 41.0612C23.7421 41.1885 23.7046 41.3208 23.6722 41.4132C24.6732 41.6478 25.6668 41.8825 26.6428 42.1122C25.6793 39.5909 24.9953 36.9248 25.0527 34.009C25.4621 34.2013 25.8091 34.3485 26.1411 34.5308C26.226 34.5782 26.2983 34.7255 26.3008 34.8278C26.4007 37.8484 27.4242 40.6318 28.5301 43.3903C28.6898 43.7872 28.7722 44.3289 29.0718 44.5286C29.3738 44.7308 29.9031 44.596 30.3349 44.596C31.4633 44.5935 32.5891 44.586 33.7175 44.5785C33.8348 44.5785 33.9521 44.5611 34.1094 44.5511C33.9521 44.0568 33.6376 43.7298 33.2232 43.5625C32.7114 43.3578 32.1697 43.2205 31.6305 43.1082C31.3734 43.0558 31.276 42.9609 31.2236 42.7113C30.6545 40.0202 30.5846 37.3441 31.5282 34.7155C31.7129 34.1988 31.975 33.6995 32.2721 33.2352C34.1393 30.3194 35.5997 27.2439 36.1314 23.784C36.2687 22.8928 36.2762 22.8953 37.1899 22.8279C39.1845 22.6781 41.0243 22.0541 42.7243 21.0056C42.9115 20.8908 43.0463 20.7934 42.9514 20.5338C42.0228 17.975 40.6598 15.7358 38.2908 14.2605C37.1 13.5191 35.7919 13.1097 34.374 13.1871C33.9247 13.212 33.7674 13.0747 33.6775 12.6404C33.0709 9.6747 31.6006 7.25076 29.1242 5.46587C27.7537 4.47982 26.2235 3.90316 24.5609 3.65603C24.3936 3.63356 24.2139 3.62857 23.9967 3.6086Z" fill="#FFEB61"/>
<path d="M36.9749 15.7083C36.9774 16.225 36.5555 16.6295 36.0263 16.617C35.537 16.607 35.1351 16.2201 35.1276 15.7482C35.1176 15.204 35.522 14.8046 36.0912 14.7897C36.5805 14.7822 36.9699 15.1841 36.9749 15.7083Z" fill="#FFEB61"/>
</svg>
