<svg width="30" height="34" viewBox="0 0 30 34" fill="none" xmlns="http://www.w3.org/2000/svg">
<path d="M13.6869 17.8628C14.1082 17.739 14.5137 17.564 14.9199 17.3887C15.1194 17.3026 15.3192 17.2164 15.521 17.1362C15.7166 17.0598 15.9108 16.9792 16.1049 16.8985C16.5497 16.7137 16.9939 16.5291 17.4534 16.3978C21.1609 15.3452 25.1788 17.8314 26.3727 21.4093M13.6869 17.8628L13.6518 17.7428C13.6517 17.7428 13.6517 17.7428 13.6517 17.7428M13.6869 17.8628L13.6517 17.7428M13.6869 17.8628C12.1159 18.3223 10.5724 18.3734 9.11919 17.4425C6.55845 15.8008 5.26237 12.4467 6.0518 9.48539L3.55544 19.0799M13.6517 17.7428C14.0659 17.6211 14.4591 17.4514 14.8609 17.2779C15.0621 17.191 15.2655 17.1032 15.4749 17.02L15.4756 17.0197C15.6657 16.9456 15.8567 16.8662 16.0492 16.7862C16.4972 16.6001 16.9524 16.4109 17.419 16.2776L17.4192 16.2776C21.1996 15.2043 25.2791 17.7371 26.4913 21.3697M13.6517 17.7428C12.0996 18.1968 10.5978 18.2412 9.18661 17.3373C6.67202 15.7251 5.39708 12.4268 6.17256 9.51767C6.65052 7.72968 7.60632 6.50315 8.85535 5.8941C10.1047 5.28491 11.6688 5.28302 13.384 5.98766C13.7233 6.12737 14.0599 6.27661 14.3985 6.42677C14.4578 6.45306 14.5172 6.47938 14.5766 6.50568C14.9749 6.68187 15.3765 6.85696 15.7848 7.01474C16.6014 7.33031 17.4495 7.57857 18.365 7.6307C18.4068 7.63338 18.4542 7.64767 18.5107 7.67188C18.547 7.68744 18.5788 7.70311 18.6129 7.71999C18.6363 7.73153 18.6608 7.74364 18.6887 7.75666L18.6896 7.75708C20.2652 8.47686 21.912 8.5463 23.5894 8.42395L23.5803 8.29928M26.4913 21.3697L26.3727 21.4093M26.4913 21.3697C26.4913 21.3697 26.4913 21.3697 26.4913 21.3697L26.3727 21.4093M26.4913 21.3697C27.9571 25.7592 25.9283 30.427 21.479 32.2354L21.4319 32.1196C25.819 30.3366 27.8181 25.7374 26.3727 21.4093M3.55544 19.0799C0.742174 15.2735 -0.183003 11.1076 1.6907 6.59005C2.99371 3.4438 5.33746 1.37468 8.63448 0.472949C10.263 0.02662 11.8529 0.366703 13.3471 1.00483L13.3473 1.00491C14.2659 1.39898 15.1676 1.84081 16.0666 2.28133C16.4697 2.47883 16.8722 2.67607 17.2755 2.86863L17.2776 2.86961L17.2775 2.86963C17.4642 2.96297 17.645 3.05027 17.8334 3.13974C17.8575 3.11927 17.8808 3.09992 17.9028 3.08162C17.9158 3.07077 17.9285 3.06029 17.9405 3.05016C17.9917 3.00722 18.0345 2.96936 18.0719 2.9286C19.5074 1.34806 21.657 0.884833 23.7218 1.89914L23.7223 1.8994C24.3971 2.23482 25.0889 2.62973 25.6516 3.14021L25.6517 3.14032C26.3395 3.76591 27.0617 4.27483 27.9084 4.62125C28.1912 4.73603 28.4588 4.89869 28.7051 5.06556L28.7054 5.06574C28.9908 5.2602 29.2163 5.50604 29.3403 5.79304C29.4653 6.08231 29.4839 6.4063 29.3657 6.74581L29.3657 6.74599C29.169 7.30819 28.9057 7.82943 28.5102 8.1688C28.1067 8.51505 27.5786 8.66095 26.8857 8.49549L26.8854 8.49541C25.9031 8.25806 24.817 8.33595 23.7554 8.41209C23.6999 8.41607 23.6445 8.42004 23.5891 8.42397L23.5803 8.29928M3.55544 19.0799C4.09496 19.811 4.52839 20.5031 4.69181 21.3658L4.6919 21.3662C4.73605 21.595 4.796 21.8266 4.85935 22.0483L3.55544 19.0799ZM23.5803 8.29928C21.9111 8.42103 20.289 8.35034 18.7416 7.64339L25.5676 3.23279C26.2628 3.86512 26.9972 4.38355 27.8613 4.73703C28.1323 4.847 28.3915 5.0041 28.635 5.16905C29.177 5.53824 29.4637 6.08416 29.2477 6.70471C28.8589 7.8162 28.2305 8.6881 26.9147 8.3739C25.9129 8.13182 24.8086 8.21112 23.7527 8.28695C23.6951 8.29109 23.6376 8.29522 23.5803 8.29928ZM10.664 29.6952L10.6642 29.6954C13.7888 32.0963 17.2072 32.845 20.9346 31.3827C24.5523 29.9627 26.6875 26.3424 25.7209 22.2787L25.7209 22.2787C25.2994 20.5021 24.0139 18.8248 22.2959 17.8659C20.5816 16.909 18.4411 16.6695 16.3004 17.7582L16.3003 17.7582C15.3312 18.2507 14.2733 18.595 13.235 18.8979C11.8201 19.3119 10.4156 19.1505 9.11881 18.452C5.37511 16.4424 3.24691 10.8988 6.52187 6.60145L6.5219 6.60141C7.96308 4.71187 10.302 3.68479 12.9053 4.74298L12.9055 4.74308C13.1825 4.85633 13.458 4.97085 13.7331 5.08519C14.3386 5.33679 14.9419 5.58752 15.5537 5.822C15.7206 5.88498 15.8851 5.9552 16.0459 6.0248C16.0689 6.03474 16.0918 6.04467 16.1146 6.05455C16.2523 6.11428 16.387 6.17273 16.5209 6.22636C16.786 6.33256 17.0391 6.41623 17.2852 6.44931V6.44865V6.44336V6.43806V6.43277V6.42748V6.42219V6.41691V6.41162V6.40634V6.40105V6.39577V6.39049V6.38521V6.37994V6.37466V6.36939V6.36411V6.35884V6.35357V6.3483V6.34304V6.33777V6.33251V6.32724V6.32198V6.31672V6.31146V6.3062V6.30095V6.29569V6.29044V6.28518V6.27993V6.27468V6.26943V6.26418V6.25894V6.25369V6.24845V6.2432V6.23796V6.23272V6.22748V6.22224V6.217V6.21176V6.20653V6.20129V6.19606V6.19083V6.1856V6.18037V6.17514V6.16991V6.16468V6.15946V6.15423V6.14901V6.14378V6.13856V6.13334V6.12812V6.1229V6.11768V6.11247V6.10725V6.10203V6.09682V6.09161V6.08639V6.08118V6.07597V6.07076V6.06555V6.06034V6.05513V6.04993V6.04472V6.03951V6.03431V6.0291V6.0239V6.0187V6.0135V6.0083V6.0031V5.9979V5.9927V5.9875V5.9823V5.9771V5.97191V5.96671V5.96152V5.95632V5.95113V5.94594V5.94074V5.93555V5.93036V5.92517V5.91998V5.91479V5.9096V5.90441V5.89922V5.89404V5.88885V5.88366V5.87848V5.87329V5.86811V5.86292V5.85774V5.85255V5.84737V5.84219V5.837V5.83182V5.82664V5.82146V5.81628V5.8111V5.80592V5.80074V5.79556V5.79038V5.7852V5.78002V5.77484V5.76966V5.76449V5.75931V5.75413V5.74895V5.74378V5.7386V5.73342V5.72825V5.72307V5.71789V5.71272V5.70754V5.70237V5.69719V5.69202V5.68684V5.68166V5.67649V5.67132V5.66614V5.66097V5.65579V5.65062V5.64544V5.64027V5.63509V5.62992V5.62474V5.61957V5.61439V5.60922V5.60404V5.59887V5.5937V5.58852V5.58335V5.57817V5.573V5.56782V5.56264V5.55747V5.55229V5.54712V5.54194V5.53677V5.53159V5.52641V5.52124V5.51606V5.51088V5.5057V5.50053V5.49535V5.49017V5.48499V5.47981V5.47464V5.46946V5.46428V5.4591V5.45392V5.44874V5.44356V5.43837V5.43319V5.42801V5.42283V5.41765V5.41246V5.40728V5.40209V5.39691V5.39173V5.38654V5.38135V5.37617V5.37098V5.36579V5.36061V5.35542V5.35023V5.34504V5.33985V5.33466V5.32947V5.32428V5.31909V5.31389V5.3087V5.30351V5.29831V5.29312V5.28792V5.28272V5.27753V5.27233V5.26713V5.26193V5.25673V5.25153V5.24633V5.24113V5.23593V5.23072V5.22552V5.22031V5.21511V5.2099V5.20469V5.19949V5.19428V5.18907V5.18386V5.17864V5.17343V5.16822V5.163V5.15779V5.15257V5.14736V5.14214V5.13692V5.1317V5.12648V5.12126V5.11604V5.11081V5.10559V5.10036V5.09514V5.08991V5.08468V5.07945V5.07422V5.06899V5.06376V5.05852V5.05329V5.04805V5.04282V5.03758V5.03234V5.0271V5.02186V5.01661V5.01137V5.00613V5.00088V4.99563V4.99038V4.98513V4.97988V4.97463V4.96938V4.96412V4.95887V4.95361V4.94835V4.94309V4.93783V4.93257V4.9273V4.92204V4.91677V4.91151V4.90624V4.90097V4.89569V4.89042V4.88515V4.87987V4.87459V4.86931V4.86403V4.85875V4.85347V4.84818V4.8429V4.83761V4.83232V4.82703V4.82174V4.81644V4.81115V4.80585V4.80055V4.79525V4.78995V4.78465V4.77935V4.77404V4.76873V4.76342V4.75811V4.7528V4.74748V4.74217V4.73685V4.73153V4.72621V4.72089V4.71556V4.71024V4.70491V4.69958V4.69425V4.68891V4.68358V4.67824V4.6729V4.66756V4.66222V4.65688V4.65153V4.64618V4.64083V4.63548V4.63013V4.62477V4.61942V4.61406V4.6087V4.60333V4.59797V4.5926V4.58723V4.58186V4.57649V4.57112V4.56574V4.56036V4.55498V4.5496V4.54421V4.53883V4.53344V4.52805V4.52266V4.51726V4.51186V4.50646V4.50106V4.49566V4.49026V4.48485V4.47944V4.47403V4.46861V4.4632V4.45778V4.45236V4.44693V4.44151V4.43608V4.43065V4.42522V4.41979V4.41435V4.40891V4.40347V4.39803V4.39258V4.38714V4.38169V4.37624V4.37078V4.36532V4.35986V4.3544V4.34894V4.34347V4.338V4.33253V4.32706V4.32158V4.3161V4.31062V4.30514V4.29965V4.29417V4.28867V4.28318V4.27769V4.27219V4.26669V4.26118V4.25568V4.25017V4.24466V4.23914V4.23363V4.22811V4.22259V4.21706V4.21154V4.20601V4.20047V4.19494V4.1894V4.18386V4.17832V4.17277V4.16723V4.16168V4.15612V4.15057V4.14501V4.13944V4.13388V4.12831V4.12274V4.11717V4.11159V4.10602V4.10043V4.09485V4.08926V4.08367V4.07808V4.07248V4.06689V4.06129V4.05568V4.05007V4.04446V4.03885V4.03323V4.02762V4.02199V4.01637V4.01074V4.00511V3.99948V3.99384V3.9882V3.98256V3.97691V3.97126V3.96561V3.95995V3.9543V3.94949C16.7986 3.72766 16.3128 3.4998 15.826 3.27148C14.689 2.73824 13.5466 2.20242 12.3759 1.73466C10.9236 1.15451 9.41302 1.19555 7.93144 1.77428C5.74891 2.62714 4.11831 4.1103 3.03624 6.17357C1.39001 9.32241 1.39622 12.5548 2.7541 15.7997C3.59004 17.7903 4.87558 19.4519 6.6614 20.698L6.66154 20.6981C7.59852 21.3538 8.54766 21.7745 9.52158 21.8965C10.4938 22.0183 11.4993 21.8435 12.5528 21.2946C12.5529 21.2946 12.5529 21.2946 12.553 21.2945L12.6107 21.4054C13.3962 20.993 14.2171 20.6434 15.034 20.2978L10.664 29.6952ZM10.664 29.6952C9.87208 29.0901 9.15485 28.4147 8.59802 27.5074C9.54659 27.0503 10.4133 26.5087 11.0376 25.5131M10.664 29.6952L11.0376 25.5131M11.0376 25.5131C11.0924 25.567 11.1456 25.6197 11.1977 25.6712C11.3794 25.8512 11.5474 26.0175 11.7214 26.1754C11.7215 26.1755 11.7215 26.1756 11.7216 26.1756L11.0376 25.5131ZM9.36662 29.7239C7.04939 27.6698 5.81222 24.9441 4.97959 22.0142C4.91675 21.7942 4.85783 21.5664 4.81463 21.3425C4.64575 20.451 4.19801 19.7401 3.65602 19.0057L9.36662 29.7239ZM20.6502 26.6466L20.6501 26.6467C19.6013 27.4314 18.384 27.7234 17.1036 27.6042C14.3422 27.3455 11.8393 25.5466 10.6325 23.1001C11.3672 22.7953 12.1028 22.491 12.8383 22.1867C13.8426 21.7713 14.8467 21.356 15.8479 20.9395L15.848 20.9395C16.7464 20.565 17.8128 20.6028 18.7929 20.9024C19.7735 21.2021 20.6506 21.7587 21.1699 22.3992L21.17 22.3994C21.7398 23.1003 21.9681 23.8927 21.8778 24.6409C21.7875 25.389 21.3775 26.1036 20.6502 26.6466ZM27.5425 5.56888L27.5431 5.56927C27.6135 5.61374 27.6895 5.65407 27.7611 5.69203C27.7814 5.70281 27.8014 5.71339 27.8208 5.72383C27.9114 5.77268 27.9942 5.82073 28.067 5.87889C28.1651 5.95731 28.2486 6.0567 28.297 6.20809C28.1365 6.14019 27.992 6.07974 27.8549 6.02239C27.7988 5.9989 27.7439 5.97593 27.6897 5.95318L27.5998 5.91549L27.5413 5.99345L27.5349 6.002C27.4491 6.11644 27.3751 6.21513 27.3298 6.30422C27.2799 6.40245 27.2575 6.50314 27.2906 6.61618C27.3207 6.71862 27.3928 6.81636 27.4887 6.92306C27.5784 7.02275 27.701 7.14295 27.8568 7.29455C27.8377 7.43001 27.7793 7.48784 27.7193 7.51597C27.6388 7.55372 27.5202 7.55459 27.3838 7.52183L27.3828 7.52159C26.0567 7.21529 24.7374 7.33871 23.4362 7.46042C23.2958 7.47356 23.1555 7.48668 23.0155 7.49923C21.8752 7.59974 20.7533 7.45301 19.6568 7.0888L19.6566 7.08874C19.0438 6.88635 18.5253 6.44388 18.2932 5.87723C18.0635 5.31656 18.1072 4.61686 18.65 3.87617L18.6501 3.87604C19.7008 2.43837 21.652 1.95359 23.3581 2.82944C23.6689 2.9906 23.965 3.18521 24.2611 3.39092C24.3564 3.45715 24.4522 3.52487 24.5485 3.59294C24.749 3.73469 24.9518 3.87801 25.1572 4.01273L25.1573 4.01279C25.9505 4.53505 26.7445 5.05783 27.5425 5.56888ZM6.87243 24.6874C7.197 24.5199 7.51343 24.3569 7.8282 24.1947C8.37645 23.9123 8.91965 23.6324 9.49202 23.3361C9.54208 23.4137 9.59429 23.4947 9.64846 23.5787C9.8562 23.9009 10.0928 24.2678 10.3474 24.6646C9.78633 25.6197 9.0522 26.2978 7.84 26.5509C7.60558 26.0969 7.38142 25.666 7.16863 25.2571C7.06728 25.0623 6.9685 24.8724 6.87243 24.6874ZM8.03408 22.5933C8.14282 22.6455 8.25379 22.6987 8.36724 22.7539C8.0215 23.0212 7.75217 23.1908 7.47233 23.3027C7.1738 23.422 6.85572 23.4786 6.40793 23.5093C6.17394 22.7854 5.93023 22.0324 5.68618 21.2784C5.69047 21.2749 5.69476 21.2714 5.69906 21.2678C5.80571 21.3352 5.91234 21.4038 6.01929 21.4726C6.33403 21.675 6.65156 21.8792 6.98076 22.0605C7.31295 22.2472 7.66041 22.414 8.03408 22.5933Z" fill="#FFEB61" stroke="#FFEB61" stroke-width="0.25"/>
</svg>
