<svg width="42" height="34" viewBox="0 0 42 34" fill="none" xmlns="http://www.w3.org/2000/svg">
<path d="M22.8821 4.91329L22.8821 4.91324C24.5199 1.77517 28.3182 0.0472169 31.7613 0.878023L31.7616 0.878093C33.0025 1.18141 34.0374 1.79859 34.8333 2.79349L34.7552 2.85596L34.8333 2.7935C36.0197 4.27708 37.2119 5.75864 38.4036 7.23968C39.034 8.02305 39.6642 8.80627 40.2935 9.58957C40.2935 9.58964 40.2936 9.58971 40.2936 9.58978L40.2157 9.6524C40.3488 9.8173 40.4774 9.9822 40.5877 10.1605L22.8821 4.91329ZM22.8821 4.91329C21.2766 7.99313 21.8789 11.8447 24.3857 14.5206C24.6378 14.7897 24.9133 15.042 25.1851 15.2908C25.295 15.3914 25.4042 15.4915 25.5111 15.5919C25.5074 15.6001 25.5038 15.6079 25.5002 15.6152C24.9343 15.4994 24.3637 15.3838 23.7929 15.2765L23.7927 15.2765C21.4489 14.8406 19.0753 14.6954 16.7089 14.5506C15.8504 14.498 14.9928 14.4456 14.1379 14.3793L14.1378 14.3793C11.4692 14.1746 8.90743 13.7083 6.83441 11.8948C6.74293 11.8137 6.60332 11.7348 6.47429 11.685C6.4093 11.6599 6.34242 11.6403 6.28186 11.6325C6.22719 11.6255 6.15321 11.6246 6.09557 11.6651M22.8821 4.91329L3.43722 26.3575M3.43722 26.3575L3.43721 26.3575C2.00198 23.5853 1.25551 20.6228 0.873348 17.5665L0.873325 17.5663C0.863833 17.4893 0.853973 17.4118 0.844069 17.3339C0.801627 17.0004 0.758356 16.6603 0.739541 16.3207L0.739539 16.3206C0.736125 16.2585 0.726262 16.1934 0.715429 16.1218C0.712724 16.1039 0.709959 16.0857 0.707219 16.067C0.694033 15.9769 0.681797 15.8781 0.687313 15.7824C0.692904 15.6854 0.716964 15.5857 0.780896 15.497C0.845078 15.4081 0.942524 15.3399 1.07774 15.2936C1.21335 15.2465 1.33181 15.239 1.43664 15.2688C1.54138 15.2985 1.62057 15.3619 1.68361 15.4346C1.7456 15.5061 1.79596 15.5914 1.841 15.67C1.84649 15.6796 1.85191 15.6891 1.85727 15.6985C1.8975 15.769 1.93438 15.8336 1.9762 15.8904L1.97656 15.8909C2.12757 16.0987 2.27589 16.3074 2.42378 16.5154C2.88193 17.16 3.33604 17.7989 3.85374 18.3884L3.85403 18.3887C4.68752 19.3462 5.78277 19.9376 7.06275 20.1834L7.0638 20.1836C7.154 20.2019 7.24934 20.2084 7.35974 20.2117C7.39735 20.2128 7.4374 20.2136 7.4795 20.2144C7.50834 20.2149 7.53814 20.2155 7.56879 20.2162C7.54226 20.1587 7.517 20.1035 7.49257 20.0501C7.41553 19.8816 7.34664 19.731 7.27153 19.5824L7.27144 19.5823C6.1286 17.3103 5.68537 14.8917 5.71769 12.3875L5.7177 12.3867C5.7204 12.2559 5.76538 12.1115 5.83115 11.985C5.89676 11.8589 5.9888 11.7396 6.09557 11.6651M3.43722 26.3575C4.76242 28.916 6.58943 31.041 9.21957 32.443M3.43722 26.3575L0.972575 17.5541C1.35375 20.6025 2.09774 23.5528 3.52602 26.3115C4.84407 28.8563 6.65812 30.9643 9.26667 32.3548M6.09557 11.6651C6.09547 11.6652 6.09538 11.6653 6.09528 11.6653L6.15294 11.747L6.09577 11.665C6.09571 11.665 6.09564 11.6651 6.09557 11.6651ZM9.26667 32.3548L9.21957 32.443M9.26667 32.3548L9.21963 32.443C9.21961 32.443 9.21959 32.443 9.21957 32.443M9.26667 32.3548C10.5939 33.0634 11.9717 33.4778 13.5331 33.46L9.21957 32.443M12.1508 25.0324C10.796 24.1411 9.64326 23.0537 8.6926 21.7657C8.68574 21.7563 8.67891 21.7469 8.67211 21.7375C8.46942 21.4589 8.28732 21.2086 7.84298 21.2086M12.1508 25.0324L12.0957 25.1159C12.0958 25.1159 12.0958 25.116 12.0958 25.116M12.1508 25.0324L12.0958 25.116M12.1508 25.0324L12.0958 25.116M12.0958 25.116C10.7313 24.2183 9.56994 23.1227 8.61215 21.8251L8.6118 21.8246C8.60572 21.8162 8.59969 21.808 8.59371 21.7998C8.49325 21.6618 8.40763 21.5442 8.29825 21.4565C8.18758 21.3678 8.0501 21.3086 7.84298 21.3086M12.0958 25.116C14.3329 26.5902 16.8359 27.1861 19.4788 27.3205L12.0958 25.116ZM7.84298 21.3086C7.84312 21.3086 7.84325 21.3086 7.84339 21.3086L7.84298 21.2086M7.84298 21.3086V21.2086M7.84298 21.3086C5.58636 21.3175 3.90783 20.2136 2.51402 18.6273L2.51327 18.6265C2.42157 18.5197 2.32796 18.4086 2.21894 18.2794C2.16952 18.2207 2.11694 18.1584 2.05994 18.091C2.56009 21.3499 3.44522 24.3016 5.11282 26.9987L5.1129 26.9988C6.5037 29.2556 8.38917 30.9785 10.9115 32.0035L7.84298 21.2086M19.8386 27.185L19.902 27.2624C19.9022 27.2622 19.9024 27.262 19.9026 27.2619C19.9029 27.2617 19.9031 27.2614 19.9034 27.2612L19.8386 27.185ZM19.8386 27.185C19.9856 27.0647 20.1418 26.8953 20.1693 26.7304M19.8386 27.185L20.1693 26.7304M20.1693 26.7304L20.2679 26.7473C20.2679 26.7472 20.2679 26.747 20.2679 26.7469C20.2774 26.691 20.2603 26.6358 20.2406 26.5932C20.2197 26.5479 20.1894 26.5028 20.1555 26.4621C20.09 26.3832 19.9972 26.304 19.905 26.271L20.1693 26.7304ZM35.17 25.0274L35.17 25.0272C35.2279 24.4311 35.1259 23.892 34.8714 23.3549L34.8713 23.3546C34.1809 21.8825 33.1496 20.6781 31.8384 19.6885L31.8383 19.6884C29.3848 17.8341 26.5405 16.9022 23.5174 16.3422C21.2792 15.9275 19.018 15.7924 16.7491 15.6567C15.8545 15.6033 14.9586 15.5497 14.0626 15.4789L14.0625 15.4789C11.5392 15.2782 9.09903 14.8007 6.92756 13.4071C6.9235 13.4073 6.91763 13.4079 6.90939 13.4091C6.90687 13.4095 6.90436 13.4099 6.90182 13.4103C6.8452 15.0659 7.24275 16.9528 8.17613 18.8514L8.17617 18.8515C9.279 21.1005 10.7277 22.8597 12.5462 24.0929C14.3645 25.3259 16.5577 26.0365 19.1553 26.1804C19.1553 26.1804 19.1553 26.1805 19.1553 26.1805L19.1498 26.2803C19.1987 26.283 19.2483 26.2848 19.2979 26.2866L35.17 25.0274ZM35.17 25.0274C34.9841 26.9724 34.1593 28.6193 32.831 30.0585L35.17 25.0274ZM37.9125 26.0059L37.9126 26.0058C38.7235 23.7506 38.43 21.6406 37.061 19.6611C36.1521 18.3512 34.9551 17.3211 33.6207 16.4342C33.1259 16.1064 32.621 15.791 32.1148 15.4747C32.0304 15.4219 31.946 15.3692 31.8616 15.3164C31.2714 14.947 30.6819 14.5738 30.1103 14.1779M37.9125 26.0059L31.4785 1.94552C32.4319 2.1955 33.2473 2.64505 33.86 3.40028C35.7658 5.75329 37.667 8.10629 39.5682 10.4638C39.6576 10.5765 39.7409 10.696 39.806 10.8181L39.806 10.8182C39.8948 10.9843 39.9282 11.149 39.9077 11.2922C39.8876 11.4333 39.8146 11.5602 39.6765 11.6559L39.6763 11.656C39.4585 11.8076 39.1166 11.8651 38.8193 11.8521C38.7462 11.849 38.6619 11.8081 38.5617 11.7381C38.513 11.704 38.4642 11.6658 38.4139 11.626L38.4033 11.6177C38.3571 11.5812 38.3094 11.5434 38.2624 11.5098L38.2622 11.5096C38.161 11.4375 38.0598 11.3654 37.9587 11.2934C36.9531 10.577 35.95 9.86248 34.9621 9.12225L34.9619 9.12214C34.4694 8.75446 33.9533 8.55445 33.3146 8.5452C32.7161 8.5364 32.1079 8.45718 31.5267 8.32059C30.8391 8.15648 30.2799 7.87718 29.868 7.46789C29.4571 7.05946 29.1866 6.51542 29.086 5.80998L29.0859 5.80994C29.0395 5.48544 28.9431 5.24649 28.7337 5.14524C28.5306 5.04703 28.2627 5.10085 27.939 5.23231L27.9389 5.23232C26.2795 5.90675 25.4292 7.61984 25.8727 9.38706L25.8728 9.38737C26.1484 10.471 26.705 11.4156 27.5425 12.1647L27.5426 12.1648C28.3496 12.8853 29.2162 13.5607 30.1103 14.1779M37.9125 26.0059C37.0907 28.3016 35.5293 29.9773 33.371 31.1705C33.3418 31.186 33.3081 31.1984 33.2561 31.2143C33.351 31.1093 33.4406 31.0106 33.5262 30.9164C33.7279 30.6941 33.9072 30.4965 34.0815 30.2997L34.0821 30.2989C35.484 28.6817 36.2183 26.8014 36.2926 24.7017L36.2926 24.701C36.3068 24.1982 36.1835 23.6632 36.0011 23.1956L36.0009 23.1951C35.1368 21.0132 33.5582 19.4072 31.5799 18.1603L31.5797 18.1602C31.0963 17.8571 30.5886 17.581 30.0843 17.3067C29.8153 17.1604 29.5472 17.0146 29.2843 16.8655L29.2841 16.8654C27.5618 15.8919 25.9591 14.7724 24.7772 13.2153C23.8281 11.9629 23.2572 10.667 23.1092 9.33607C22.9613 8.00584 23.2349 6.63325 23.9867 5.22498L23.9867 5.22485M37.9125 26.0059L23.9867 5.22485M30.1103 14.1779L30.1672 14.0957M30.1103 14.1779C30.1103 14.178 30.1104 14.178 30.1104 14.178L30.1672 14.0957M30.1672 14.0957C29.2763 13.4807 28.4129 12.8077 27.6092 12.0902L33.6759 16.3508C33.1799 16.0223 32.6738 15.706 32.1677 15.3898C31.4929 14.9681 30.8181 14.5465 30.1672 14.0957ZM23.9867 5.22485C25.3516 2.65908 28.6982 1.22175 31.4783 1.94548L23.9867 5.22485ZM13.0047 32.4107C17.2433 32.3993 21.4786 32.4075 25.7159 32.4156C26.4236 32.417 27.1312 32.4184 27.839 32.4197C29.0725 32.4219 29.6799 32.417 30.2035 32.2184C30.7265 32.02 31.1716 31.626 32.0653 30.8103C32.3309 30.5659 32.5903 30.3185 32.8309 30.0586L13.0047 32.4107ZM13.0047 32.4107C12.2647 32.4107 11.5841 32.2751 10.9117 32.0036L13.0047 32.4107Z" fill="#FFEB61" stroke="#FFEB61" stroke-width="0.2"/>
</svg>
