<svg width="48" height="48" viewBox="0 0 48 48" fill="none" xmlns="http://www.w3.org/2000/svg">
<mask id="path-1-outside-1_784_3307" maskUnits="userSpaceOnUse" x="0.478027" y="11.1101" width="47" height="25" fill="black">
<rect fill="white" x="0.478027" y="11.1101" width="47" height="25"/>
<path d="M38.4341 23.7177C39.8496 26.9356 41.2651 30.1466 42.6876 33.3786C43.0571 33.3995 43.3395 33.4099 43.6184 33.4309C44.2843 33.4797 44.5667 33.7586 44.5981 34.4071C44.6086 34.6162 44.6121 34.8289 44.5911 35.0381C44.5354 35.5855 44.2809 35.8539 43.737 35.8748C43.0815 35.8993 42.4261 35.8818 41.7706 35.8818C41.2895 35.8818 41.0245 35.5785 40.7735 35.2194C39.0756 32.7928 37.3708 30.3733 35.6694 27.9467C35.6101 27.8596 35.5683 27.7584 35.4393 27.6922C34.6862 29.554 34.2155 31.4366 33.7553 33.3716C33.9018 33.4274 34.0133 33.4901 34.1319 33.511C34.5816 33.5947 34.728 33.8841 34.7106 34.306C34.7002 34.543 34.7176 34.7801 34.7036 35.0137C34.6723 35.6238 34.4491 35.8504 33.8285 35.8748C33.2777 35.8958 32.7268 35.8923 32.176 35.8818C31.4055 35.8679 31.1335 35.6029 31.1126 34.8429C31.0987 34.3722 31.1091 33.898 31.1126 33.4239C31.1126 31.6388 31.1196 29.8538 31.1231 28.0687C31.1231 27.8107 31.1231 27.5562 31.1231 27.2006C27.0509 27.87 23.0694 27.2564 19.074 27.0437C18.1536 28.4522 17.2715 29.8154 16.372 31.1647C16.128 31.5273 16.0722 31.855 16.2639 32.2594C16.4208 32.5871 16.5045 32.9532 16.6405 33.3716C16.9054 33.3855 17.1844 33.389 17.4668 33.4134C17.9758 33.4588 18.2268 33.6958 18.2861 34.1944C18.307 34.3513 18.293 34.5082 18.293 34.6651C18.2861 35.6343 18.0594 35.8609 17.0832 35.8714C16.6126 35.8748 16.1384 35.8644 15.6678 35.8714C15.1378 35.8853 14.7717 35.6482 14.5347 35.1776C14.2035 34.5221 13.8722 33.8701 13.5271 33.2217C13.0948 32.4059 12.9205 31.5552 13.0739 30.6382C13.1157 30.3837 13.1192 30.1257 13.1506 29.7736C12.8891 29.8782 12.7078 29.9514 12.5265 30.0211C11.3028 30.4883 10.0965 30.9973 8.8518 31.4018C8.22424 31.6075 7.95927 31.9596 7.92092 32.5697C7.90698 32.8033 7.86863 33.0334 7.85119 33.1833C8.16497 33.4413 8.60077 33.6191 8.66702 33.8876C8.78555 34.3792 8.74372 34.9335 8.64261 35.4356C8.60775 35.6168 8.21029 35.8191 7.96625 35.8435C7.31428 35.8993 6.65535 35.8888 5.9999 35.8574C5.48391 35.833 5.23637 35.5785 5.20848 35.0625C5.17362 34.4594 5.19454 33.8562 5.20151 33.2531C5.20848 32.3884 5.26078 31.5203 5.22591 30.6557C5.20151 30.0455 5.4595 29.6795 5.95458 29.3866C6.78783 28.8915 7.57925 28.3198 8.42994 27.8596C9.32246 27.3749 9.67808 26.6358 9.68854 25.6805C9.699 24.8298 9.68854 23.9757 9.68854 23.125C9.63276 23.1041 9.57697 23.0866 9.52468 23.0657C9.20393 23.3969 8.89015 23.7316 8.55894 24.0559C7.46769 25.1157 6.39387 26.193 5.26775 27.2111C4.80754 27.626 4.24274 27.9397 3.69537 28.2465C2.87258 28.7068 2.50999 28.6022 1.99051 27.8282C1.84408 27.612 1.69068 27.3959 1.5826 27.1588C1.38736 26.7299 1.4536 26.451 1.88243 26.2488C3.88364 25.297 5.30262 23.6828 6.71113 22.0512C7.74311 20.8553 8.83785 19.7327 10.2464 18.9622C11.5294 18.2614 12.8995 17.972 14.3394 18.1568C16.0792 18.3834 17.8084 18.6972 19.5447 18.9482C22.1455 19.3248 24.7604 19.6002 27.3787 19.1818C28.6129 18.9831 29.8261 18.6205 31.0429 18.3102C31.904 18.0906 32.7443 17.7942 33.6682 17.993C33.8878 18.0418 34.1946 17.9302 34.3968 17.7942C35.3277 17.1632 36.2516 16.5217 37.1476 15.8418C37.688 15.4304 38.1692 14.9423 38.6886 14.4996C38.9466 14.2799 39.0861 14.0847 38.9919 13.6977C38.856 13.1364 38.9396 12.589 39.5393 12.2787C40.1285 11.9754 40.6968 12.0974 41.1396 12.5158C41.5091 12.8644 41.8927 12.9272 42.3529 12.9098C43.3221 12.8714 44.1519 13.2479 44.8666 13.8581C45.0932 14.0498 45.2292 14.3566 45.3895 14.6251C45.6963 15.1376 45.9718 15.6745 46.296 16.1765C46.5749 16.6089 46.6063 16.7971 46.3274 17.2469C46.0938 17.6269 45.8707 18.0139 45.6162 18.3765C45.3338 18.7809 44.9607 18.9692 44.4587 18.767C44.3157 18.7077 44.1449 18.7077 44.0019 18.6484C42.956 18.2056 42.0844 18.5647 41.3592 19.3039C40.8676 19.8059 40.4353 20.3777 40.0518 20.9669C39.494 21.8211 39.0059 22.7206 38.4271 23.7072L38.4341 23.7177ZM41.042 18.3521C40.0065 17.5362 39.4905 16.4659 39.3999 15.0783C38.7723 15.6257 38.2528 16.0929 37.7159 16.5461C36.6944 17.4107 35.6798 18.2928 34.4108 18.7809C34.1319 18.889 33.7972 18.9587 33.5078 18.9169C32.9744 18.8367 32.4688 18.8506 31.9529 19.004C31.1998 19.2237 30.4432 19.4329 29.6797 19.6211C27.5809 20.1406 25.4472 20.4579 23.2926 20.2243C20.6115 19.9349 17.9339 19.5688 15.2703 19.1365C13.0006 18.767 10.982 19.1784 9.28411 20.7472C8.38113 21.5805 7.56531 22.5114 6.73205 23.4144C5.69658 24.5335 4.68552 25.6701 3.35719 26.458C3.06782 26.6323 2.77844 26.8067 2.44026 27.0124C2.61458 27.239 2.76798 27.4342 2.93185 27.6434C4.05099 27.1588 4.94351 26.4754 5.74539 25.684C6.67975 24.7636 7.5409 23.77 8.4927 22.8705C9.09933 22.2987 9.80359 21.835 10.4834 21.3434C10.7205 21.1726 11.0204 21.183 11.1563 21.4724C11.2226 21.6154 11.1842 21.9431 11.0796 22.0163C10.4451 22.4521 10.5148 23.0831 10.5323 23.7107C10.5497 24.4463 10.5811 25.182 10.5532 25.9141C10.5113 27.0333 10.0581 27.9223 9.04355 28.4976C8.22424 28.9647 7.45025 29.5086 6.63443 29.9828C6.23001 30.2199 6.01036 30.4918 6.04174 30.9869C6.0766 31.5098 6.04174 32.0363 6.04174 32.5627C6.04174 33.3437 6.04174 34.1247 6.04174 34.9544H7.93487C7.91744 34.7104 7.90349 34.5221 7.89303 34.3373C7.75706 34.3199 7.68036 34.3129 7.60366 34.2955C6.8471 34.1456 6.79481 34.0619 6.92729 33.2914C7.00748 32.8277 7.09115 32.3605 7.16785 31.8968C7.26199 31.339 7.51998 30.952 8.1057 30.7707C8.9808 30.4988 9.828 30.1466 10.6926 29.8433C12.5265 29.1983 14.1791 28.2744 15.4481 26.7613C15.7201 26.4336 16.0513 26.3255 16.4662 26.2732C18.2547 26.0501 20.0397 26.207 21.8074 26.3708C24.1642 26.587 26.5175 26.6986 28.8778 26.6184C29.6239 26.594 30.363 26.4231 31.1545 26.3116C31.1545 25.4748 31.1475 24.7427 31.1579 24.0105C31.1579 23.7769 31.1754 23.5329 31.2521 23.3167C31.2939 23.1982 31.4892 23.0343 31.5833 23.0518C31.7332 23.0797 31.9284 23.2191 31.9773 23.3551C32.0505 23.5678 32.0261 23.8188 32.0261 24.0559C32.0191 27.3889 32.0121 30.7219 32.0051 34.0584C32.0051 34.3617 32.0191 34.6651 32.0261 34.944H33.8739C33.975 34.5221 33.8739 34.3582 33.4764 34.3025C32.8419 34.2153 32.7791 34.0863 32.8733 33.4727C32.8837 33.396 32.9046 33.3193 32.9256 33.2426C33.5531 30.9694 34.1737 28.6998 34.8082 26.4301C34.9303 25.9908 35.1534 25.6492 35.6275 25.4539C35.9762 25.311 36.3004 25.0286 36.548 24.7357C37.0186 24.1779 37.4719 23.5922 37.8519 22.9716C38.8211 21.3887 39.6195 19.6909 41.042 18.359V18.3521ZM43.6882 34.4036C43.5871 34.3548 43.5661 34.3373 43.5417 34.3338C43.465 34.3234 43.3848 34.299 43.3081 34.3129C42.5376 34.428 42.1193 34.0793 41.8125 33.3751C40.641 30.687 39.4243 28.0199 38.2249 25.3458C38.1238 25.1157 38.0192 24.8891 37.9077 24.6381C37.1616 25.3214 36.4817 25.9455 35.7984 26.5696C35.8402 26.6602 35.8611 26.7404 35.903 26.7997C37.7578 29.4354 39.6125 32.0712 41.4778 34.6999C41.5719 34.8324 41.7567 34.9719 41.9031 34.9788C42.4958 35.0102 43.0885 34.9928 43.6882 34.9928V34.4071V34.4036ZM45.5883 16.8703C45.2884 16.316 44.9572 15.8593 44.7794 15.3468C44.4029 14.2625 43.5208 13.8302 42.5481 13.7988C41.7532 13.7709 41.0524 13.7953 40.5085 13.1329C40.4807 13.098 40.4179 13.0841 40.3656 13.0701C39.9647 12.9586 39.6927 13.2235 39.8008 13.6314C39.8357 13.757 39.8845 13.886 39.9542 13.9905C40.2436 14.4194 40.3307 14.8866 40.3238 15.4026C40.3133 16.1173 40.6166 16.7134 41.0943 17.2399C41.4673 17.6478 41.8264 17.979 42.4435 17.6896C42.6422 17.5955 42.9107 17.599 43.1408 17.6234C43.7021 17.6862 44.2634 17.7838 44.8805 17.8779C45.0932 17.5746 45.3303 17.2364 45.5848 16.8703H45.5883ZM18.0176 27.0821C17.5051 27.0821 17.1355 27.0368 16.7834 27.096C16.5219 27.1413 16.243 27.2773 16.0408 27.4516C15.483 27.9293 14.974 28.4557 14.4231 28.9403C14.2139 29.1251 14.0745 29.2994 14.0535 29.5923C13.9106 31.9003 13.5585 31.5447 14.8101 33.7865C14.9635 34.0619 15.0751 34.3582 15.2424 34.6232C15.3331 34.7662 15.49 34.9544 15.6259 34.9614C16.2151 34.9998 16.8043 34.9788 17.4354 34.9788C17.4075 34.6929 17.3901 34.5221 17.3761 34.3548C17.2541 34.3304 17.1774 34.299 17.1042 34.299C15.9048 34.3269 16.0303 34.2467 15.6782 33.267C15.2552 32.0932 15.3912 30.9869 16.0861 29.9479C16.6963 29.038 17.3099 28.1315 18.0211 27.0821H18.0176Z"/>
</mask>
<path d="M38.4341 23.7177C39.8496 26.9356 41.2651 30.1466 42.6876 33.3786C43.0571 33.3995 43.3395 33.4099 43.6184 33.4309C44.2843 33.4797 44.5667 33.7586 44.5981 34.4071C44.6086 34.6162 44.6121 34.8289 44.5911 35.0381C44.5354 35.5855 44.2809 35.8539 43.737 35.8748C43.0815 35.8993 42.4261 35.8818 41.7706 35.8818C41.2895 35.8818 41.0245 35.5785 40.7735 35.2194C39.0756 32.7928 37.3708 30.3733 35.6694 27.9467C35.6101 27.8596 35.5683 27.7584 35.4393 27.6922C34.6862 29.554 34.2155 31.4366 33.7553 33.3716C33.9018 33.4274 34.0133 33.4901 34.1319 33.511C34.5816 33.5947 34.728 33.8841 34.7106 34.306C34.7002 34.543 34.7176 34.7801 34.7036 35.0137C34.6723 35.6238 34.4491 35.8504 33.8285 35.8748C33.2777 35.8958 32.7268 35.8923 32.176 35.8818C31.4055 35.8679 31.1335 35.6029 31.1126 34.8429C31.0987 34.3722 31.1091 33.898 31.1126 33.4239C31.1126 31.6388 31.1196 29.8538 31.1231 28.0687C31.1231 27.8107 31.1231 27.5562 31.1231 27.2006C27.0509 27.87 23.0694 27.2564 19.074 27.0437C18.1536 28.4522 17.2715 29.8154 16.372 31.1647C16.128 31.5273 16.0722 31.855 16.2639 32.2594C16.4208 32.5871 16.5045 32.9532 16.6405 33.3716C16.9054 33.3855 17.1844 33.389 17.4668 33.4134C17.9758 33.4588 18.2268 33.6958 18.2861 34.1944C18.307 34.3513 18.293 34.5082 18.293 34.6651C18.2861 35.6343 18.0594 35.8609 17.0832 35.8714C16.6126 35.8748 16.1384 35.8644 15.6678 35.8714C15.1378 35.8853 14.7717 35.6482 14.5347 35.1776C14.2035 34.5221 13.8722 33.8701 13.5271 33.2217C13.0948 32.4059 12.9205 31.5552 13.0739 30.6382C13.1157 30.3837 13.1192 30.1257 13.1506 29.7736C12.8891 29.8782 12.7078 29.9514 12.5265 30.0211C11.3028 30.4883 10.0965 30.9973 8.8518 31.4018C8.22424 31.6075 7.95927 31.9596 7.92092 32.5697C7.90698 32.8033 7.86863 33.0334 7.85119 33.1833C8.16497 33.4413 8.60077 33.6191 8.66702 33.8876C8.78555 34.3792 8.74372 34.9335 8.64261 35.4356C8.60775 35.6168 8.21029 35.8191 7.96625 35.8435C7.31428 35.8993 6.65535 35.8888 5.9999 35.8574C5.48391 35.833 5.23637 35.5785 5.20848 35.0625C5.17362 34.4594 5.19454 33.8562 5.20151 33.2531C5.20848 32.3884 5.26078 31.5203 5.22591 30.6557C5.20151 30.0455 5.4595 29.6795 5.95458 29.3866C6.78783 28.8915 7.57925 28.3198 8.42994 27.8596C9.32246 27.3749 9.67808 26.6358 9.68854 25.6805C9.699 24.8298 9.68854 23.9757 9.68854 23.125C9.63276 23.1041 9.57697 23.0866 9.52468 23.0657C9.20393 23.3969 8.89015 23.7316 8.55894 24.0559C7.46769 25.1157 6.39387 26.193 5.26775 27.2111C4.80754 27.626 4.24274 27.9397 3.69537 28.2465C2.87258 28.7068 2.50999 28.6022 1.99051 27.8282C1.84408 27.612 1.69068 27.3959 1.5826 27.1588C1.38736 26.7299 1.4536 26.451 1.88243 26.2488C3.88364 25.297 5.30262 23.6828 6.71113 22.0512C7.74311 20.8553 8.83785 19.7327 10.2464 18.9622C11.5294 18.2614 12.8995 17.972 14.3394 18.1568C16.0792 18.3834 17.8084 18.6972 19.5447 18.9482C22.1455 19.3248 24.7604 19.6002 27.3787 19.1818C28.6129 18.9831 29.8261 18.6205 31.0429 18.3102C31.904 18.0906 32.7443 17.7942 33.6682 17.993C33.8878 18.0418 34.1946 17.9302 34.3968 17.7942C35.3277 17.1632 36.2516 16.5217 37.1476 15.8418C37.688 15.4304 38.1692 14.9423 38.6886 14.4996C38.9466 14.2799 39.0861 14.0847 38.9919 13.6977C38.856 13.1364 38.9396 12.589 39.5393 12.2787C40.1285 11.9754 40.6968 12.0974 41.1396 12.5158C41.5091 12.8644 41.8927 12.9272 42.3529 12.9098C43.3221 12.8714 44.1519 13.2479 44.8666 13.8581C45.0932 14.0498 45.2292 14.3566 45.3895 14.6251C45.6963 15.1376 45.9718 15.6745 46.296 16.1765C46.5749 16.6089 46.6063 16.7971 46.3274 17.2469C46.0938 17.6269 45.8707 18.0139 45.6162 18.3765C45.3338 18.7809 44.9607 18.9692 44.4587 18.767C44.3157 18.7077 44.1449 18.7077 44.0019 18.6484C42.956 18.2056 42.0844 18.5647 41.3592 19.3039C40.8676 19.8059 40.4353 20.3777 40.0518 20.9669C39.494 21.8211 39.0059 22.7206 38.4271 23.7072L38.4341 23.7177ZM41.042 18.3521C40.0065 17.5362 39.4905 16.4659 39.3999 15.0783C38.7723 15.6257 38.2528 16.0929 37.7159 16.5461C36.6944 17.4107 35.6798 18.2928 34.4108 18.7809C34.1319 18.889 33.7972 18.9587 33.5078 18.9169C32.9744 18.8367 32.4688 18.8506 31.9529 19.004C31.1998 19.2237 30.4432 19.4329 29.6797 19.6211C27.5809 20.1406 25.4472 20.4579 23.2926 20.2243C20.6115 19.9349 17.9339 19.5688 15.2703 19.1365C13.0006 18.767 10.982 19.1784 9.28411 20.7472C8.38113 21.5805 7.56531 22.5114 6.73205 23.4144C5.69658 24.5335 4.68552 25.6701 3.35719 26.458C3.06782 26.6323 2.77844 26.8067 2.44026 27.0124C2.61458 27.239 2.76798 27.4342 2.93185 27.6434C4.05099 27.1588 4.94351 26.4754 5.74539 25.684C6.67975 24.7636 7.5409 23.77 8.4927 22.8705C9.09933 22.2987 9.80359 21.835 10.4834 21.3434C10.7205 21.1726 11.0204 21.183 11.1563 21.4724C11.2226 21.6154 11.1842 21.9431 11.0796 22.0163C10.4451 22.4521 10.5148 23.0831 10.5323 23.7107C10.5497 24.4463 10.5811 25.182 10.5532 25.9141C10.5113 27.0333 10.0581 27.9223 9.04355 28.4976C8.22424 28.9647 7.45025 29.5086 6.63443 29.9828C6.23001 30.2199 6.01036 30.4918 6.04174 30.9869C6.0766 31.5098 6.04174 32.0363 6.04174 32.5627C6.04174 33.3437 6.04174 34.1247 6.04174 34.9544H7.93487C7.91744 34.7104 7.90349 34.5221 7.89303 34.3373C7.75706 34.3199 7.68036 34.3129 7.60366 34.2955C6.8471 34.1456 6.79481 34.0619 6.92729 33.2914C7.00748 32.8277 7.09115 32.3605 7.16785 31.8968C7.26199 31.339 7.51998 30.952 8.1057 30.7707C8.9808 30.4988 9.828 30.1466 10.6926 29.8433C12.5265 29.1983 14.1791 28.2744 15.4481 26.7613C15.7201 26.4336 16.0513 26.3255 16.4662 26.2732C18.2547 26.0501 20.0397 26.207 21.8074 26.3708C24.1642 26.587 26.5175 26.6986 28.8778 26.6184C29.6239 26.594 30.363 26.4231 31.1545 26.3116C31.1545 25.4748 31.1475 24.7427 31.1579 24.0105C31.1579 23.7769 31.1754 23.5329 31.2521 23.3167C31.2939 23.1982 31.4892 23.0343 31.5833 23.0518C31.7332 23.0797 31.9284 23.2191 31.9773 23.3551C32.0505 23.5678 32.0261 23.8188 32.0261 24.0559C32.0191 27.3889 32.0121 30.7219 32.0051 34.0584C32.0051 34.3617 32.0191 34.6651 32.0261 34.944H33.8739C33.975 34.5221 33.8739 34.3582 33.4764 34.3025C32.8419 34.2153 32.7791 34.0863 32.8733 33.4727C32.8837 33.396 32.9046 33.3193 32.9256 33.2426C33.5531 30.9694 34.1737 28.6998 34.8082 26.4301C34.9303 25.9908 35.1534 25.6492 35.6275 25.4539C35.9762 25.311 36.3004 25.0286 36.548 24.7357C37.0186 24.1779 37.4719 23.5922 37.8519 22.9716C38.8211 21.3887 39.6195 19.6909 41.042 18.359V18.3521ZM43.6882 34.4036C43.5871 34.3548 43.5661 34.3373 43.5417 34.3338C43.465 34.3234 43.3848 34.299 43.3081 34.3129C42.5376 34.428 42.1193 34.0793 41.8125 33.3751C40.641 30.687 39.4243 28.0199 38.2249 25.3458C38.1238 25.1157 38.0192 24.8891 37.9077 24.6381C37.1616 25.3214 36.4817 25.9455 35.7984 26.5696C35.8402 26.6602 35.8611 26.7404 35.903 26.7997C37.7578 29.4354 39.6125 32.0712 41.4778 34.6999C41.5719 34.8324 41.7567 34.9719 41.9031 34.9788C42.4958 35.0102 43.0885 34.9928 43.6882 34.9928V34.4071V34.4036ZM45.5883 16.8703C45.2884 16.316 44.9572 15.8593 44.7794 15.3468C44.4029 14.2625 43.5208 13.8302 42.5481 13.7988C41.7532 13.7709 41.0524 13.7953 40.5085 13.1329C40.4807 13.098 40.4179 13.0841 40.3656 13.0701C39.9647 12.9586 39.6927 13.2235 39.8008 13.6314C39.8357 13.757 39.8845 13.886 39.9542 13.9905C40.2436 14.4194 40.3307 14.8866 40.3238 15.4026C40.3133 16.1173 40.6166 16.7134 41.0943 17.2399C41.4673 17.6478 41.8264 17.979 42.4435 17.6896C42.6422 17.5955 42.9107 17.599 43.1408 17.6234C43.7021 17.6862 44.2634 17.7838 44.8805 17.8779C45.0932 17.5746 45.3303 17.2364 45.5848 16.8703H45.5883ZM18.0176 27.0821C17.5051 27.0821 17.1355 27.0368 16.7834 27.096C16.5219 27.1413 16.243 27.2773 16.0408 27.4516C15.483 27.9293 14.974 28.4557 14.4231 28.9403C14.2139 29.1251 14.0745 29.2994 14.0535 29.5923C13.9106 31.9003 13.5585 31.5447 14.8101 33.7865C14.9635 34.0619 15.0751 34.3582 15.2424 34.6232C15.3331 34.7662 15.49 34.9544 15.6259 34.9614C16.2151 34.9998 16.8043 34.9788 17.4354 34.9788C17.4075 34.6929 17.3901 34.5221 17.3761 34.3548C17.2541 34.3304 17.1774 34.299 17.1042 34.299C15.9048 34.3269 16.0303 34.2467 15.6782 33.267C15.2552 32.0932 15.3912 30.9869 16.0861 29.9479C16.6963 29.038 17.3099 28.1315 18.0211 27.0821H18.0176Z" fill="#FFEB61"/>
<path d="M38.4341 23.7177C39.8496 26.9356 41.2651 30.1466 42.6876 33.3786C43.0571 33.3995 43.3395 33.4099 43.6184 33.4309C44.2843 33.4797 44.5667 33.7586 44.5981 34.4071C44.6086 34.6162 44.6121 34.8289 44.5911 35.0381C44.5354 35.5855 44.2809 35.8539 43.737 35.8748C43.0815 35.8993 42.4261 35.8818 41.7706 35.8818C41.2895 35.8818 41.0245 35.5785 40.7735 35.2194C39.0756 32.7928 37.3708 30.3733 35.6694 27.9467C35.6101 27.8596 35.5683 27.7584 35.4393 27.6922C34.6862 29.554 34.2155 31.4366 33.7553 33.3716C33.9018 33.4274 34.0133 33.4901 34.1319 33.511C34.5816 33.5947 34.728 33.8841 34.7106 34.306C34.7002 34.543 34.7176 34.7801 34.7036 35.0137C34.6723 35.6238 34.4491 35.8504 33.8285 35.8748C33.2777 35.8958 32.7268 35.8923 32.176 35.8818C31.4055 35.8679 31.1335 35.6029 31.1126 34.8429C31.0987 34.3722 31.1091 33.898 31.1126 33.4239C31.1126 31.6388 31.1196 29.8538 31.1231 28.0687C31.1231 27.8107 31.1231 27.5562 31.1231 27.2006C27.0509 27.87 23.0694 27.2564 19.074 27.0437C18.1536 28.4522 17.2715 29.8154 16.372 31.1647C16.128 31.5273 16.0722 31.855 16.2639 32.2594C16.4208 32.5871 16.5045 32.9532 16.6405 33.3716C16.9054 33.3855 17.1844 33.389 17.4668 33.4134C17.9758 33.4588 18.2268 33.6958 18.2861 34.1944C18.307 34.3513 18.293 34.5082 18.293 34.6651C18.2861 35.6343 18.0594 35.8609 17.0832 35.8714C16.6126 35.8748 16.1384 35.8644 15.6678 35.8714C15.1378 35.8853 14.7717 35.6482 14.5347 35.1776C14.2035 34.5221 13.8722 33.8701 13.5271 33.2217C13.0948 32.4059 12.9205 31.5552 13.0739 30.6382C13.1157 30.3837 13.1192 30.1257 13.1506 29.7736C12.8891 29.8782 12.7078 29.9514 12.5265 30.0211C11.3028 30.4883 10.0965 30.9973 8.8518 31.4018C8.22424 31.6075 7.95927 31.9596 7.92092 32.5697C7.90698 32.8033 7.86863 33.0334 7.85119 33.1833C8.16497 33.4413 8.60077 33.6191 8.66702 33.8876C8.78555 34.3792 8.74372 34.9335 8.64261 35.4356C8.60775 35.6168 8.21029 35.8191 7.96625 35.8435C7.31428 35.8993 6.65535 35.8888 5.9999 35.8574C5.48391 35.833 5.23637 35.5785 5.20848 35.0625C5.17362 34.4594 5.19454 33.8562 5.20151 33.2531C5.20848 32.3884 5.26078 31.5203 5.22591 30.6557C5.20151 30.0455 5.4595 29.6795 5.95458 29.3866C6.78783 28.8915 7.57925 28.3198 8.42994 27.8596C9.32246 27.3749 9.67808 26.6358 9.68854 25.6805C9.699 24.8298 9.68854 23.9757 9.68854 23.125C9.63276 23.1041 9.57697 23.0866 9.52468 23.0657C9.20393 23.3969 8.89015 23.7316 8.55894 24.0559C7.46769 25.1157 6.39387 26.193 5.26775 27.2111C4.80754 27.626 4.24274 27.9397 3.69537 28.2465C2.87258 28.7068 2.50999 28.6022 1.99051 27.8282C1.84408 27.612 1.69068 27.3959 1.5826 27.1588C1.38736 26.7299 1.4536 26.451 1.88243 26.2488C3.88364 25.297 5.30262 23.6828 6.71113 22.0512C7.74311 20.8553 8.83785 19.7327 10.2464 18.9622C11.5294 18.2614 12.8995 17.972 14.3394 18.1568C16.0792 18.3834 17.8084 18.6972 19.5447 18.9482C22.1455 19.3248 24.7604 19.6002 27.3787 19.1818C28.6129 18.9831 29.8261 18.6205 31.0429 18.3102C31.904 18.0906 32.7443 17.7942 33.6682 17.993C33.8878 18.0418 34.1946 17.9302 34.3968 17.7942C35.3277 17.1632 36.2516 16.5217 37.1476 15.8418C37.688 15.4304 38.1692 14.9423 38.6886 14.4996C38.9466 14.2799 39.0861 14.0847 38.9919 13.6977C38.856 13.1364 38.9396 12.589 39.5393 12.2787C40.1285 11.9754 40.6968 12.0974 41.1396 12.5158C41.5091 12.8644 41.8927 12.9272 42.3529 12.9098C43.3221 12.8714 44.1519 13.2479 44.8666 13.8581C45.0932 14.0498 45.2292 14.3566 45.3895 14.6251C45.6963 15.1376 45.9718 15.6745 46.296 16.1765C46.5749 16.6089 46.6063 16.7971 46.3274 17.2469C46.0938 17.6269 45.8707 18.0139 45.6162 18.3765C45.3338 18.7809 44.9607 18.9692 44.4587 18.767C44.3157 18.7077 44.1449 18.7077 44.0019 18.6484C42.956 18.2056 42.0844 18.5647 41.3592 19.3039C40.8676 19.8059 40.4353 20.3777 40.0518 20.9669C39.494 21.8211 39.0059 22.7206 38.4271 23.7072L38.4341 23.7177ZM41.042 18.3521C40.0065 17.5362 39.4905 16.4659 39.3999 15.0783C38.7723 15.6257 38.2528 16.0929 37.7159 16.5461C36.6944 17.4107 35.6798 18.2928 34.4108 18.7809C34.1319 18.889 33.7972 18.9587 33.5078 18.9169C32.9744 18.8367 32.4688 18.8506 31.9529 19.004C31.1998 19.2237 30.4432 19.4329 29.6797 19.6211C27.5809 20.1406 25.4472 20.4579 23.2926 20.2243C20.6115 19.9349 17.9339 19.5688 15.2703 19.1365C13.0006 18.767 10.982 19.1784 9.28411 20.7472C8.38113 21.5805 7.56531 22.5114 6.73205 23.4144C5.69658 24.5335 4.68552 25.6701 3.35719 26.458C3.06782 26.6323 2.77844 26.8067 2.44026 27.0124C2.61458 27.239 2.76798 27.4342 2.93185 27.6434C4.05099 27.1588 4.94351 26.4754 5.74539 25.684C6.67975 24.7636 7.5409 23.77 8.4927 22.8705C9.09933 22.2987 9.80359 21.835 10.4834 21.3434C10.7205 21.1726 11.0204 21.183 11.1563 21.4724C11.2226 21.6154 11.1842 21.9431 11.0796 22.0163C10.4451 22.4521 10.5148 23.0831 10.5323 23.7107C10.5497 24.4463 10.5811 25.182 10.5532 25.9141C10.5113 27.0333 10.0581 27.9223 9.04355 28.4976C8.22424 28.9647 7.45025 29.5086 6.63443 29.9828C6.23001 30.2199 6.01036 30.4918 6.04174 30.9869C6.0766 31.5098 6.04174 32.0363 6.04174 32.5627C6.04174 33.3437 6.04174 34.1247 6.04174 34.9544H7.93487C7.91744 34.7104 7.90349 34.5221 7.89303 34.3373C7.75706 34.3199 7.68036 34.3129 7.60366 34.2955C6.8471 34.1456 6.79481 34.0619 6.92729 33.2914C7.00748 32.8277 7.09115 32.3605 7.16785 31.8968C7.26199 31.339 7.51998 30.952 8.1057 30.7707C8.9808 30.4988 9.828 30.1466 10.6926 29.8433C12.5265 29.1983 14.1791 28.2744 15.4481 26.7613C15.7201 26.4336 16.0513 26.3255 16.4662 26.2732C18.2547 26.0501 20.0397 26.207 21.8074 26.3708C24.1642 26.587 26.5175 26.6986 28.8778 26.6184C29.6239 26.594 30.363 26.4231 31.1545 26.3116C31.1545 25.4748 31.1475 24.7427 31.1579 24.0105C31.1579 23.7769 31.1754 23.5329 31.2521 23.3167C31.2939 23.1982 31.4892 23.0343 31.5833 23.0518C31.7332 23.0797 31.9284 23.2191 31.9773 23.3551C32.0505 23.5678 32.0261 23.8188 32.0261 24.0559C32.0191 27.3889 32.0121 30.7219 32.0051 34.0584C32.0051 34.3617 32.0191 34.6651 32.0261 34.944H33.8739C33.975 34.5221 33.8739 34.3582 33.4764 34.3025C32.8419 34.2153 32.7791 34.0863 32.8733 33.4727C32.8837 33.396 32.9046 33.3193 32.9256 33.2426C33.5531 30.9694 34.1737 28.6998 34.8082 26.4301C34.9303 25.9908 35.1534 25.6492 35.6275 25.4539C35.9762 25.311 36.3004 25.0286 36.548 24.7357C37.0186 24.1779 37.4719 23.5922 37.8519 22.9716C38.8211 21.3887 39.6195 19.6909 41.042 18.359V18.3521ZM43.6882 34.4036C43.5871 34.3548 43.5661 34.3373 43.5417 34.3338C43.465 34.3234 43.3848 34.299 43.3081 34.3129C42.5376 34.428 42.1193 34.0793 41.8125 33.3751C40.641 30.687 39.4243 28.0199 38.2249 25.3458C38.1238 25.1157 38.0192 24.8891 37.9077 24.6381C37.1616 25.3214 36.4817 25.9455 35.7984 26.5696C35.8402 26.6602 35.8611 26.7404 35.903 26.7997C37.7578 29.4354 39.6125 32.0712 41.4778 34.6999C41.5719 34.8324 41.7567 34.9719 41.9031 34.9788C42.4958 35.0102 43.0885 34.9928 43.6882 34.9928V34.4071V34.4036ZM45.5883 16.8703C45.2884 16.316 44.9572 15.8593 44.7794 15.3468C44.4029 14.2625 43.5208 13.8302 42.5481 13.7988C41.7532 13.7709 41.0524 13.7953 40.5085 13.1329C40.4807 13.098 40.4179 13.0841 40.3656 13.0701C39.9647 12.9586 39.6927 13.2235 39.8008 13.6314C39.8357 13.757 39.8845 13.886 39.9542 13.9905C40.2436 14.4194 40.3307 14.8866 40.3238 15.4026C40.3133 16.1173 40.6166 16.7134 41.0943 17.2399C41.4673 17.6478 41.8264 17.979 42.4435 17.6896C42.6422 17.5955 42.9107 17.599 43.1408 17.6234C43.7021 17.6862 44.2634 17.7838 44.8805 17.8779C45.0932 17.5746 45.3303 17.2364 45.5848 16.8703H45.5883ZM18.0176 27.0821C17.5051 27.0821 17.1355 27.0368 16.7834 27.096C16.5219 27.1413 16.243 27.2773 16.0408 27.4516C15.483 27.9293 14.974 28.4557 14.4231 28.9403C14.2139 29.1251 14.0745 29.2994 14.0535 29.5923C13.9106 31.9003 13.5585 31.5447 14.8101 33.7865C14.9635 34.0619 15.0751 34.3582 15.2424 34.6232C15.3331 34.7662 15.49 34.9544 15.6259 34.9614C16.2151 34.9998 16.8043 34.9788 17.4354 34.9788C17.4075 34.6929 17.3901 34.5221 17.3761 34.3548C17.2541 34.3304 17.1774 34.299 17.1042 34.299C15.9048 34.3269 16.0303 34.2467 15.6782 33.267C15.2552 32.0932 15.3912 30.9869 16.0861 29.9479C16.6963 29.038 17.3099 28.1315 18.0211 27.0821H18.0176Z" stroke="#FFEB61" stroke-width="0.1" stroke-miterlimit="10" mask="url(#path-1-outside-1_784_3307)"/>
</svg>
