<svg width="48" height="48" viewBox="0 0 48 48" fill="none" xmlns="http://www.w3.org/2000/svg">
<path d="M36.8119 20.1497C37.4055 19.4285 37.3278 18.7407 36.9506 18.0473C36.8175 17.8032 36.5512 17.6146 36.4846 17.365C36.407 17.0877 36.3959 16.5829 36.529 16.5108C36.8008 16.3665 37.3777 16.3111 37.4998 16.4719C37.938 17.0433 38.3596 17.6812 38.5537 18.3579C38.7257 18.957 38.5925 19.6449 38.5925 20.3493C40.0181 21.431 40.706 22.9953 41.3161 24.6261C42.1926 26.9504 43.2965 29.147 45.188 30.85C45.6373 31.2549 46.1421 31.5933 46.6025 31.9871C47.1128 32.4253 47.196 32.9856 46.7301 33.446C45.9701 34.1893 45.1492 34.8716 44.3116 35.5372C43.8456 35.9034 43.2964 35.9034 42.7196 35.7148C41.1275 35.1989 39.5244 34.7385 37.9269 34.2392C36.3903 33.7566 34.8372 33.5958 33.2452 33.8287C32.3077 33.9674 31.4923 34.3668 30.5493 35.0879C30.993 35.21 31.2371 35.2488 31.4534 35.3431C32.2689 35.7147 32.6294 36.3804 32.524 37.2568C32.4131 38.1333 31.7807 38.8267 30.8765 38.8766C29.7172 38.9376 28.5412 38.9709 27.3874 38.8655C26.2281 38.7601 25.4682 37.989 24.9967 36.9573C24.8247 36.5801 24.7359 36.1696 24.5862 35.6981C21.1747 35.1489 17.8076 34.1227 14.2575 35.1157C14.4738 35.1989 14.7013 35.2543 14.901 35.3653C15.6276 35.748 16.0104 36.4581 15.9105 37.1958C15.7996 38.0445 15.1284 38.8156 14.2797 38.8655C13.1204 38.9321 11.9444 38.982 10.7906 38.8544C9.53695 38.7157 8.72708 37.8615 8.22784 36.7299C8.10026 36.4414 8.04478 36.1197 7.92829 35.7092C5.64844 36.4303 3.39634 37.2846 1 35.9477C1.85425 34.9382 2.44224 33.862 2.52545 32.5529C2.55318 32.1313 2.89711 31.8152 3.2965 31.976C3.56276 32.0814 3.89558 32.4974 3.88449 32.7637C3.85675 33.5403 3.66814 34.3058 3.52391 35.1989C5.00498 35.2654 6.33629 34.7662 7.65649 34.2059C7.95603 34.0784 8.22783 33.8731 8.53292 33.7733C9.29842 33.5126 9.82539 33.9952 9.66453 34.7717C9.27069 36.7021 9.86977 37.4399 11.8445 37.451C12.4492 37.4565 13.0593 37.4732 13.6584 37.4288C13.9413 37.4066 14.2131 37.2457 14.79 37.035C14.2575 36.8297 14.0356 36.6799 13.7971 36.6578C13.3367 36.6134 12.8652 36.6688 12.3992 36.6245C11.5561 36.5468 11.2565 36.0254 11.6726 35.2765C12.3604 34.0284 13.4865 33.4294 14.8732 33.3517C17.1531 33.2241 19.4274 33.2796 21.6906 33.679C22.9664 33.9064 24.2589 34.0395 25.5458 34.2059C26.1061 34.2781 26.3501 34.5665 26.3113 35.1434C26.1893 37.0017 26.6108 37.451 28.4358 37.4454C29.0405 37.4454 29.6507 37.4676 30.2497 37.4232C30.5382 37.4011 30.8211 37.2624 31.1206 36.9018C30.8599 36.8186 30.5992 36.6855 30.3329 36.6522C29.9169 36.6078 29.4953 36.6633 29.0793 36.63C28.1973 36.5635 27.9255 36.0809 28.4026 35.3209C29.34 33.8232 30.7379 32.9634 32.4297 32.5418C34.5376 32.0093 36.5845 32.3033 38.6092 32.9523C39.7574 33.3184 40.9334 33.629 42.0594 34.0617C42.9803 34.4112 43.7624 34.3557 44.478 33.6568C44.7054 33.4349 44.9606 33.2352 45.2268 33.0022C45.1492 32.858 45.1214 32.7082 45.0271 32.6361C42.5476 30.7723 41.1886 28.1541 40.0237 25.375C39.5466 24.2268 38.8921 23.1562 38.2874 22.0634C38.182 21.8748 37.9324 21.7749 37.6606 21.5642C37.4554 21.7028 37.2501 21.8581 37.0283 21.9968C36.4902 22.3297 36.0853 22.2076 35.7469 21.664C35.4584 21.198 35.17 20.6877 34.7595 20.3493C33.8442 19.606 32.635 19.8057 32.0747 20.6988C31.4756 21.6585 31.9693 22.5016 33.3228 22.6181C33.1508 22.3407 33.0122 22.13 32.879 21.9136C32.6294 21.5142 32.5407 21.076 33.0177 20.8375C33.4448 20.6267 34.0162 20.6101 34.2492 21.1093C34.5432 21.7306 34.815 22.4184 34.8538 23.0896C34.8871 23.7275 34.2325 23.9549 33.6834 24.0881C32.6072 24.3488 31.5089 23.905 30.8655 22.9953C30.222 22.08 30.2054 20.7543 30.8211 19.839C31.8695 18.2858 34.2103 17.9696 35.7691 19.1845C36.1241 19.4507 36.4403 19.7946 36.8119 20.1497Z" fill="#FFEB61"/>
<path d="M16.1217 9.62695C16.7818 9.9154 17.4696 10.1484 18.0853 10.5145C18.5125 10.7697 18.6733 11.2744 18.3183 11.7182C17.9966 12.1231 17.5695 12.0344 17.22 11.7182C16.693 11.2356 16.1272 11.047 15.4449 11.3465C14.8736 11.6017 14.4409 11.4519 14.2135 10.864C14.036 10.4035 14.3633 10.0263 15.0788 9.87657C15.395 9.81001 15.7223 9.81001 16.044 9.77672C16.0717 9.73235 16.0939 9.68242 16.1217 9.62695Z" fill="#FFEB61"/>
<path d="M25.0298 9.60468C26.3167 9.58803 27.8921 10.7085 28.125 11.7292C28.1916 12.0232 28.0751 12.4781 27.8699 12.6944C27.5371 13.0439 27.121 12.7832 26.9491 12.4503C26.533 11.6294 25.9173 11.2078 25.0076 11.0857C24.5527 11.0247 24.2365 10.6364 24.4251 10.1705C24.5472 9.88758 24.9133 9.71007 25.0298 9.60468Z" fill="#FFEB61"/>
<path d="M4.98828 23.6443C4.88844 23.7664 4.7664 24.0382 4.55561 24.1547C3.86223 24.5263 3.41291 25.0367 3.30197 25.8465C3.22986 26.3735 2.87485 26.662 2.32014 26.5566C1.80426 26.4567 1.56574 25.963 1.80427 25.3417C2.22585 24.2545 2.75281 23.2172 4.01199 22.8844C4.57225 22.7346 4.99383 23.0231 4.98828 23.6443Z" fill="#FFEB61"/>
<path d="M20.548 9C21.5742 9.14977 22.5616 9.46595 23.2051 10.4367C23.4713 10.8416 23.6765 11.2965 23.2161 11.6737C22.8112 12.001 22.4229 11.768 22.1456 11.4185C21.6907 10.8361 21.1083 10.5254 20.3705 10.4977C19.8324 10.4755 19.2722 10.3757 19.3332 9.69338C19.3831 9.03328 19.9711 9.01109 20.548 9Z" fill="#FFEB61"/>
<path d="M4.25071 21.8249C3.56842 21.8194 3.25224 21.3645 3.39092 20.7432C3.61835 19.7226 5.11051 18.5022 6.17554 18.5688C6.46399 18.5854 6.83566 18.8739 6.96879 19.1346C7.04645 19.2899 6.77464 19.8391 6.58604 19.8779C5.63749 20.0942 5.01621 20.5879 4.68893 21.5087C4.62791 21.6807 4.33946 21.7639 4.25071 21.8249Z" fill="#FFEB61"/>
<path d="M12.1222 13.055C11.6563 13.2103 11.1737 13.3213 10.7355 13.5265C10.2418 13.7539 9.77583 13.9315 9.39309 13.3989C9.09354 12.9774 9.34316 12.4892 10.0698 12.1287C10.9019 11.7182 11.7506 11.3576 12.7047 11.7903C13.093 11.9678 13.4979 12.1342 13.4036 12.6667C13.3093 13.2048 12.8767 13.227 12.444 13.2159C12.3497 13.2159 12.2609 13.1992 12.1666 13.1881C12.1555 13.1493 12.1389 13.1049 12.1222 13.055Z" fill="#FFEB61"/>
<path d="M31.792 14.7911C31.1097 15.0241 30.616 14.902 30.5384 14.0644C30.4718 13.3766 30.2333 12.8441 29.5455 12.5334C29.1128 12.3393 28.9186 11.8456 29.2348 11.5072C29.4456 11.2854 30.0059 11.2021 30.3276 11.3131C31.5424 11.7236 32.197 13.3489 31.792 14.7911Z" fill="#FFEB61"/>
<path d="M8.61616 14.8744C8.6439 14.8799 8.92678 14.8245 9.08765 14.941C9.32617 15.1074 9.63128 15.3958 9.62018 15.6233C9.60909 15.8451 9.25406 16.2334 9.03773 16.239C8.16684 16.2667 7.43463 16.4276 6.87437 17.2042C6.75788 17.365 6.08669 17.2818 5.80379 17.1043C5.64847 17.01 5.63738 16.361 5.80379 16.1502C6.44725 15.3071 7.31815 14.8245 8.61616 14.8744Z" fill="#FFEB61"/>
<path d="M35.3531 16.3001C35.342 16.3888 35.3808 16.6606 35.2699 16.8381C35.1257 17.0767 34.8649 17.4095 34.6542 17.4095C34.4267 17.4095 34.0107 17.0877 33.9996 16.8881C33.9552 16.0116 33.7333 15.2794 33.0455 14.6748C32.8902 14.5416 32.8791 13.9647 33.0178 13.8483C33.2452 13.6597 33.7222 13.521 33.9663 13.6375C35.0036 14.1256 35.3032 15.0908 35.3531 16.3001Z" fill="#FFEB61"/>
<path d="M1.44385 30.4228C1.45494 29.1858 1.88208 28.4425 2.47561 27.7713C2.82508 27.383 3.28549 27.2554 3.70706 27.5716C4.16747 27.9211 4.0066 28.3094 3.67932 28.7531C3.34095 29.2136 3.09689 29.7738 2.93048 30.3285C2.78625 30.7945 2.72523 31.3381 2.1095 31.1273C1.78223 31.0164 1.56588 30.5615 1.44385 30.4228Z" fill="#FFEB61"/>
<path d="M26.2335 20.4048C27.2542 20.6156 28.0696 20.904 28.5799 21.7139C28.9294 22.2686 28.8795 22.79 28.4579 23.0563C27.9698 23.3558 27.7368 22.9786 27.4095 22.7068C26.9602 22.3296 26.4166 22.0689 25.9728 21.6917C25.762 21.5142 25.5512 21.1259 25.6123 20.904C25.6677 20.671 26.056 20.5324 26.2335 20.4048Z" fill="#FFEB61"/>
<path d="M20.5758 12.0066C21.4024 12.112 22.1734 12.4115 22.6726 13.1271C22.8169 13.3323 22.8446 13.8482 22.7059 13.9592C22.4785 14.1478 22.0514 14.2421 21.7629 14.1644C21.2082 14.0146 20.709 13.6707 20.1543 13.5043C19.7216 13.3712 19.2612 13.2214 19.4054 12.7333C19.4942 12.4393 19.9657 12.2562 20.2763 12.0399C20.3429 11.9955 20.4538 12.0177 20.5758 12.0066Z" fill="#FFEB61"/>
<path d="M7.4958 22.9565C7.61229 23.0287 7.92847 23.123 8.01723 23.3171C8.11153 23.5223 8.07824 23.9162 7.92847 24.066C7.47916 24.5319 7.00766 24.9424 6.88562 25.6413C6.85788 25.8022 6.44741 26.0352 6.25326 26.0019C5.987 25.952 5.64308 25.7356 5.54324 25.4971C5.18822 24.6595 6.41967 22.9787 7.4958 22.9565Z" fill="#FFEB61"/>
<path d="M15.256 16.6882C15.6498 16.8325 16.1491 16.9379 16.5485 17.2041C16.7426 17.3317 16.8646 17.7976 16.787 18.0306C16.7149 18.2359 16.3266 18.4134 16.0603 18.4467C15.4834 18.5132 14.8899 18.4688 14.3074 18.491C13.8748 18.5077 13.4532 18.5021 13.3312 17.9752C13.2147 17.4648 13.5475 17.2041 13.9524 17.0488C14.3296 16.9101 14.7346 16.8325 15.256 16.6882Z" fill="#FFEB61"/>
<path d="M17.1256 19.2344C17.5084 19.3897 18.0686 19.5783 18.5901 19.8446C19.0005 20.0553 19.1725 20.4547 18.9562 20.8985C18.7232 21.3811 18.3127 21.309 17.8856 21.1814C17.3253 21.0205 16.7595 20.8597 16.1826 20.7543C15.8054 20.6877 15.4227 20.6711 15.3672 20.194C15.3062 19.6726 15.6612 19.4507 16.0939 19.3509C16.3601 19.2898 16.643 19.2898 17.1256 19.2344Z" fill="#FFEB61"/>
<path d="M21.4243 19.5894C22.628 19.606 23.3824 19.9444 23.8373 20.721C23.987 20.9761 24.0037 21.5308 23.8373 21.6862C23.6431 21.8637 23.1439 21.847 22.8443 21.7416C22.3451 21.5586 21.9179 21.1925 21.4298 20.9872C20.9639 20.7875 20.4924 20.5545 20.7142 20.0165C20.8196 19.7391 21.33 19.6337 21.4243 19.5894Z" fill="#FFEB61"/>
<path d="M20.5145 16.8492C20.8251 16.999 21.4464 17.2097 21.9678 17.5703C22.1953 17.7312 22.3783 18.247 22.2951 18.4967C22.1564 18.9071 21.7515 19.068 21.2578 18.835C20.8917 18.6575 20.4868 18.5189 20.0874 18.48C19.5327 18.4301 19.0445 18.3413 18.9669 17.6923C18.9059 17.2097 19.4716 16.8436 20.5145 16.8492Z" fill="#FFEB61"/>
<path d="M4.83838 29.2746C5.16011 28.6478 5.47074 27.9433 5.88677 27.3109C5.99216 27.1501 6.48585 27.1223 6.72992 27.2166C6.89078 27.2776 7.0461 27.6881 7.00727 27.9045C6.86305 28.6644 6.66336 29.4133 6.43039 30.151C6.28616 30.5948 5.62051 30.678 5.29878 30.2897C5.11018 30.0512 5.03807 29.7184 4.83838 29.2746Z" fill="#FFEB61"/>
<path d="M7.22939 21.8305C6.85219 21.1205 6.98531 20.6212 7.43463 20.1885C7.93941 19.7004 8.45528 19.179 9.21523 19.24C9.47594 19.2622 9.76994 19.5284 9.9419 19.7559C10.014 19.8557 9.88089 20.2163 9.74221 20.355C9.25407 20.832 8.75483 21.3091 8.19457 21.6863C7.93941 21.8582 7.52338 21.7917 7.22939 21.8305Z" fill="#FFEB61"/>
<path d="M25.0632 12.5889C26.1393 12.7608 26.8715 13.2323 27.343 14.0089C27.4873 14.2474 27.2931 14.6857 27.2543 15.0296C26.927 14.9852 26.5609 15.0129 26.278 14.8798C25.7899 14.6413 25.3128 14.3473 24.9079 13.9923C24.6694 13.7815 24.4697 13.4043 24.4752 13.1047C24.4863 12.9106 24.8968 12.7275 25.0632 12.5889Z" fill="#FFEB61"/>
<path d="M19.0336 14.3196C19.383 14.5248 19.9433 14.8022 20.437 15.1794C20.5701 15.2792 20.5923 15.7285 20.4814 15.9005C20.3704 16.078 20.032 16.2056 19.8046 16.1945C19.3109 16.1723 18.8228 16.0059 18.3291 15.9726C17.841 15.9393 17.3695 15.9171 17.3251 15.2903C17.2862 14.6857 17.7411 14.5304 18.2071 14.4194C18.3901 14.3751 18.5787 14.3695 19.0336 14.3196Z" fill="#FFEB61"/>
<path d="M12.8154 19.9055C13.1427 20.2106 13.5587 20.4214 13.6641 20.732C13.825 21.2146 13.4256 21.431 12.9707 21.5696C12.5824 21.6861 12.2052 21.8803 11.8669 22.1022C11.4841 22.3573 11.1014 22.5404 10.7574 22.1521C10.3969 21.7361 10.4801 21.2035 10.8795 20.9151C11.4286 20.5212 12.0832 20.2772 12.8154 19.9055Z" fill="#FFEB61"/>
<path d="M25.3297 17.6812C26.3614 17.6812 27.1658 18.1582 27.4431 18.9348C27.5208 19.1511 27.5097 19.5228 27.371 19.667C27.2213 19.8168 26.844 19.8889 26.6333 19.8112C25.9953 19.5783 25.3685 19.2843 24.775 18.9459C24.5753 18.8294 24.359 18.5021 24.3867 18.3024C24.4089 18.0972 24.6973 17.8864 24.9137 17.7533C25.0468 17.6534 25.2687 17.6922 25.3297 17.6812Z" fill="#FFEB61"/>
<path d="M14.4131 14.7414C14.1413 14.7802 13.6476 14.8967 13.1539 14.8912C12.9321 14.8912 12.5881 14.697 12.516 14.5084C12.4495 14.3198 12.5881 13.9426 12.7601 13.8039C13.4812 13.2215 14.3299 13.0551 15.2175 13.3491C15.6723 13.4988 16.0717 13.7873 15.9275 14.3586C15.7944 14.8856 15.345 14.8634 14.9179 14.8079C14.8236 14.8079 14.7349 14.7913 14.4131 14.7414Z" fill="#FFEB61"/>
<path d="M30.2721 17.953C30.1778 18.0583 29.9892 18.4189 29.7229 18.4966C29.5177 18.5576 29.146 18.3302 28.9519 18.1305C28.6135 17.781 28.314 17.3816 28.0644 16.96C27.9201 16.716 27.7759 16.3443 27.8647 16.1169C28.0366 15.6565 28.497 15.6343 28.9241 15.7619C29.6231 15.9782 30.2554 16.899 30.2721 17.953Z" fill="#FFEB61"/>
<path d="M9.57604 26.4401C9.39299 26.1905 9.08236 25.9464 9.03244 25.658C8.89931 24.8648 10.1973 23.6555 11.0238 23.7387C11.5952 23.7942 11.9114 24.3933 11.5564 24.837C11.1625 25.3252 10.7021 25.7634 10.2472 26.1961C10.1252 26.307 9.91441 26.3236 9.57604 26.4401Z" fill="#FFEB61"/>
<path d="M9.8753 18.1304C9.18191 18.0805 8.88792 17.5868 9.08207 17.1042C9.33169 16.4719 10.5742 15.7674 11.2399 15.8783C11.8112 15.9726 12.194 16.5162 11.8501 16.8158C11.2177 17.3649 10.4522 17.7588 9.8753 18.1304Z" fill="#FFEB61"/>
<path d="M24.17 14.9688C24.4973 15.1906 25.0076 15.4791 25.4292 15.8618C25.5568 15.9783 25.5235 16.3943 25.4237 16.6051C25.3626 16.7383 25.0298 16.8326 24.8357 16.8104C24.4307 16.766 24.0369 16.6107 23.6375 16.5386C23.0939 16.4387 22.578 16.2612 22.7167 15.6067C22.8443 15.002 23.4156 14.9743 24.17 14.9688Z" fill="#FFEB61"/>
<path d="M38.5536 27.5493C38.3373 27.7157 38.0433 28.0818 37.6716 28.1983C37.1779 28.3481 36.6898 27.8322 36.6954 27.2831C36.7009 26.7339 37.0004 26.4177 37.5441 26.3678C38.0378 26.3179 38.537 26.8005 38.5536 27.5493Z" fill="#FFEB61"/>
</svg>
