<svg width="48" height="48" viewBox="0 0 48 48" fill="none" xmlns="http://www.w3.org/2000/svg">
<mask id="path-1-outside-1_784_3312" maskUnits="userSpaceOnUse" x="1.02881" y="6.03662" width="46" height="36" fill="black">
<rect fill="white" x="1.02881" y="6.03662" width="46" height="36"/>
<path d="M29.6827 29.0004C28.9434 29.1761 28.3199 29.3554 27.6845 29.4676C25.7622 29.8076 23.9038 29.3554 22.0375 29.0415C21.0184 28.8733 20.0073 28.664 18.9562 28.4622C18.8363 28.7986 18.7324 29.0826 18.6325 29.3704C18.1569 30.7607 17.5255 32.0724 16.4944 33.1861C16.2786 33.4216 16.2066 33.6383 16.2706 33.941C16.5503 35.2491 16.8181 36.5609 17.0739 37.8726C17.1378 38.2052 17.3416 38.3884 17.6374 38.564C18.3288 38.9751 18.7004 39.603 18.8363 40.3467C18.9202 40.7914 18.8163 40.9297 18.3487 40.9409C17.3656 40.9633 16.3825 40.9446 15.4034 40.9596C15.0437 40.9633 14.8478 40.8064 14.7439 40.5111C14.672 40.2981 14.6121 40.0851 14.5521 39.8683C14.5041 39.7076 14.5002 39.5208 14.4082 39.3899C13.2253 37.6708 13.0414 35.6377 12.3541 33.7654C12.2422 33.4552 12.1223 33.145 11.9784 32.7451C11.4349 33.1712 10.9473 33.5299 10.4957 33.9261C10.3598 34.0419 10.2719 34.2512 10.2519 34.4269C10.14 35.5892 10.0641 36.7589 9.94818 37.9212C9.91222 38.2613 10.0121 38.508 10.2759 38.7322C10.7755 39.162 11.0592 39.7113 11.1551 40.3355C11.2271 40.7989 11.0992 40.9446 10.5876 40.9521C9.60449 40.9708 8.62136 40.9484 7.64223 40.9633C7.18663 40.9708 6.9908 40.7802 7.00679 40.3616C7.01878 40.0851 7.01478 39.8048 7.00279 39.5282C6.9948 39.3638 7.02278 39.1246 6.92287 39.0499C6.37535 38.6462 6.52722 38.0969 6.53521 37.5849C6.5512 35.9143 6.60315 34.2438 6.61114 32.5732C6.61514 32.1247 6.73903 31.7884 7.13068 31.5006C8.6973 30.3608 9.15689 28.8322 8.88513 27.0421C8.67332 25.6668 8.43353 24.2803 8.81319 22.9012C9.00102 22.2098 9.2568 21.5371 9.54055 20.685C6.68708 22.6022 5.24435 25.1211 4.68485 28.1782C5.71993 29.0527 5.99569 30.1253 5.57206 31.3549C5.33627 32.05 4.83671 32.5583 4.19728 32.9469C3.81761 33.1786 3.46193 33.4066 3.34204 33.8626C3.31006 33.9859 3.08626 34.1653 2.98635 34.1466C2.8145 34.1167 2.60269 33.9821 2.52676 33.8364C1.72347 32.2854 1.83937 30.1365 3.26211 28.8733C3.69373 28.4921 3.90954 28.0923 4.02543 27.5354C5.00457 22.8526 7.92598 19.7731 12.8336 18.3978C14.0725 18.0503 15.3474 18.0503 16.6263 18.2446C19.7315 18.723 22.8288 19.291 25.982 19.4032C26.9212 19.4368 27.8803 19.3023 28.8075 19.1378C30.2262 18.8837 31.1814 18.0951 31.6929 16.7983C32.1365 15.6809 32.684 14.6045 33.2236 13.431C33.1077 13.3451 32.8999 13.1993 32.696 13.0498C31.1854 11.9324 30.3941 10.4562 30.2302 8.68101C30.1663 7.9784 30.2982 7.91113 31.0255 8.05688C32.692 8.39697 34.0269 9.22664 35.1019 10.445C35.2698 10.6356 35.4496 10.8224 35.6254 11.0056C35.6414 11.0205 35.6774 11.0205 35.7453 11.0355C36.2489 9.36118 37.0921 7.91114 38.9105 7.03662C39.9376 8.29234 39.9736 9.67137 39.7298 11.0616C40.689 11.7007 41.6641 12.2538 42.5153 12.934C43.5504 13.7637 44.5136 14.6793 45.4527 15.6099C46.1002 16.2489 46.1241 17.5756 45.6206 18.3231C45.2089 18.9323 44.6494 19.3583 43.9501 19.6573C43.5984 19.8105 43.3266 19.7769 43.0748 19.5115C42.9949 19.4293 42.899 19.3621 42.8231 19.2761C42.1557 18.5511 41.4483 17.9307 40.3013 17.9793C39.9096 17.9942 39.51 17.7775 39.0344 17.6429C38.5628 19.3284 37.9114 20.9691 37.7596 22.7256C37.6077 24.497 36.9043 26.0592 35.7813 27.4793C35.5415 27.7821 35.3337 28.1371 35.2218 28.4959C34.2826 31.5679 33.3754 34.6511 32.4363 37.7269C32.2844 38.2277 32.3603 38.579 32.74 38.9938C33.0717 39.3526 33.2395 39.8683 33.3834 40.3392C33.5073 40.7428 33.3395 40.9297 32.8959 40.9409C31.8847 40.9633 30.8736 40.9484 29.8585 40.9446C29.4869 40.9409 29.331 40.7428 29.339 40.4065C29.343 40.2121 29.339 40.0178 29.339 39.8235C29.339 39.6291 29.403 39.4049 29.327 39.2442C28.5917 37.7306 29.1672 36.1909 29.2271 34.6735C29.2871 33.0105 29.5228 31.3511 29.6747 29.6881C29.6987 29.4788 29.6827 29.2583 29.6827 29.0004ZM10.168 40.1337C10.212 40.0701 10.2559 40.0103 10.2999 39.9468C10.0241 39.6777 9.78433 39.3638 9.46462 39.1508C9.15289 38.9415 9.06097 38.7285 9.09694 38.3846C9.24881 36.972 9.38468 35.5593 9.50458 34.1466C9.53255 33.8177 9.63246 33.5636 9.91222 33.358C11.7666 31.9865 13.3212 30.3346 14.8159 28.6342C15.3394 28.0399 16.0308 27.7223 16.8221 27.6737C17.5295 27.6288 18.2568 27.6438 18.9562 27.7447C21.0064 28.0511 23.0406 28.451 25.0948 28.7425C26.7453 28.978 28.3559 28.8472 29.7826 27.883C29.9425 27.7746 30.2822 27.7036 30.3901 27.7858C30.53 27.8942 30.5779 28.1745 30.5619 28.3763C30.3501 30.9811 30.0983 33.586 29.9145 36.1909C29.8585 36.9645 29.5828 37.7755 30.1223 38.5304C30.2342 38.6873 30.1623 38.9639 30.1663 39.1881C30.1703 39.4871 30.1663 39.7861 30.1663 40.1187C30.9776 40.1187 31.6969 40.1187 32.4642 40.1187C32.3044 39.4684 31.8168 39.147 31.3652 38.8555C31.3612 38.7509 31.3412 38.6911 31.3572 38.6425C32.4323 35.0547 33.4993 31.4707 34.5943 27.8867C34.6903 27.5803 34.8941 27.285 35.1099 27.0271C36.1889 25.7453 36.8523 24.2877 36.9802 22.677C37.1321 20.7336 37.8635 18.9397 38.387 17.0898C38.5349 16.5629 38.7347 16.5068 39.2183 16.7946C39.8417 17.1645 40.5051 17.3738 41.2445 17.2879C41.6721 17.2393 41.9758 17.3701 42.2676 17.6541C42.7192 18.0877 43.2107 18.4838 43.7223 18.9285C43.9581 18.7828 44.2258 18.6183 44.4137 18.4987C44.3457 18.1811 44.1699 17.8074 44.2658 17.7289C44.4736 17.5607 44.8213 17.5457 45.153 17.4598C45.109 17.0225 45.2729 16.5629 44.8892 16.1368C43.3586 14.4401 41.5682 13.0424 39.3781 11.8166C39.2982 11.9474 39.2462 12.1417 39.1143 12.2202C38.9705 12.3061 38.6947 12.3585 38.5788 12.2874C38.4629 12.2127 38.4389 11.9623 38.4469 11.7941C38.4509 11.6671 38.5668 11.5437 38.6388 11.4241C39.0944 10.6543 39.1223 9.82834 38.9745 8.99119C38.9265 8.71464 38.7707 8.45677 38.6348 8.11668C37.284 9.18553 36.6445 10.4599 36.4087 11.9137C34.7622 12.7733 33.7711 14.1 33.0677 15.6435C32.9158 15.9761 32.76 16.3087 32.6521 16.6563C32.0286 18.6295 30.5859 19.7134 28.4518 20.0348C28.0442 20.0983 27.6245 20.1282 27.2129 20.1469C24.3674 20.2851 21.5939 19.7545 18.8043 19.3546C17.3376 19.1453 15.8869 18.8538 14.3843 18.9397C12.5139 19.0481 11.0792 19.7545 10.2439 21.3802C9.82829 22.1911 9.50458 23.0358 9.52057 23.9364C9.54055 25.1025 9.63646 26.2647 9.74037 27.427C9.90423 29.2695 9.35671 30.8391 7.7861 32.0276C7.50635 32.2406 7.39445 32.4723 7.39445 32.8124C7.39445 34.397 7.36647 35.9853 7.35848 37.5699C7.35848 37.7605 7.3305 38.0258 7.4464 38.1305C7.83406 38.4743 7.74614 38.8891 7.76612 39.3002C7.77811 39.5693 7.79809 39.8384 7.81808 40.1374C8.64534 40.1337 9.40467 40.1337 10.168 40.1337ZM17.9451 40.1449C17.7133 39.6104 17.4296 39.2704 16.958 39.1171C16.5224 38.9788 16.3985 38.6836 16.3265 38.3024C16.0708 36.9084 15.823 35.5107 15.5073 34.1279C15.3714 33.5262 15.4793 33.089 15.9109 32.6143C16.986 31.4334 17.6254 30.0394 18.021 28.5034C16.902 28.3202 15.9988 28.5034 15.2755 29.3442C14.5681 30.1627 13.7968 30.94 13.0215 31.7062C12.7377 31.9865 12.6698 32.2294 12.7857 32.5956C13.3292 34.2699 13.8407 35.9517 14.3683 37.626C14.4162 37.7867 14.4402 38.0109 14.5601 38.0819C15.1076 38.4108 15.1036 38.9676 15.2795 39.4535C15.3634 39.6852 15.4553 39.9094 15.5472 40.1449C16.3425 40.1449 17.0819 40.1449 17.9451 40.1449ZM33.7951 12.8181C34.2586 12.4369 34.6583 12.1118 35.1059 11.7418C34.1188 10.3852 32.9318 9.33502 31.0735 8.86413C31.3532 10.6318 32.2005 11.9063 33.7951 12.8181ZM2.91442 32.7713C4.82473 31.7959 5.42419 30.5439 4.58493 29.4489C4.509 29.8375 4.45705 30.2262 4.33716 30.5925C4.30119 30.6971 4.0694 30.7943 3.92153 30.798C3.8336 30.8018 3.67774 30.6411 3.64976 30.5289C3.59381 30.3234 3.60581 30.1029 3.57783 29.7628C2.75056 30.7121 2.83848 31.6912 2.91442 32.7713Z"/>
</mask>
<path d="M29.6827 29.0004C28.9434 29.1761 28.3199 29.3554 27.6845 29.4676C25.7622 29.8076 23.9038 29.3554 22.0375 29.0415C21.0184 28.8733 20.0073 28.664 18.9562 28.4622C18.8363 28.7986 18.7324 29.0826 18.6325 29.3704C18.1569 30.7607 17.5255 32.0724 16.4944 33.1861C16.2786 33.4216 16.2066 33.6383 16.2706 33.941C16.5503 35.2491 16.8181 36.5609 17.0739 37.8726C17.1378 38.2052 17.3416 38.3884 17.6374 38.564C18.3288 38.9751 18.7004 39.603 18.8363 40.3467C18.9202 40.7914 18.8163 40.9297 18.3487 40.9409C17.3656 40.9633 16.3825 40.9446 15.4034 40.9596C15.0437 40.9633 14.8478 40.8064 14.7439 40.5111C14.672 40.2981 14.6121 40.0851 14.5521 39.8683C14.5041 39.7076 14.5002 39.5208 14.4082 39.3899C13.2253 37.6708 13.0414 35.6377 12.3541 33.7654C12.2422 33.4552 12.1223 33.145 11.9784 32.7451C11.4349 33.1712 10.9473 33.5299 10.4957 33.9261C10.3598 34.0419 10.2719 34.2512 10.2519 34.4269C10.14 35.5892 10.0641 36.7589 9.94818 37.9212C9.91222 38.2613 10.0121 38.508 10.2759 38.7322C10.7755 39.162 11.0592 39.7113 11.1551 40.3355C11.2271 40.7989 11.0992 40.9446 10.5876 40.9521C9.60449 40.9708 8.62136 40.9484 7.64223 40.9633C7.18663 40.9708 6.9908 40.7802 7.00679 40.3616C7.01878 40.0851 7.01478 39.8048 7.00279 39.5282C6.9948 39.3638 7.02278 39.1246 6.92287 39.0499C6.37535 38.6462 6.52722 38.0969 6.53521 37.5849C6.5512 35.9143 6.60315 34.2438 6.61114 32.5732C6.61514 32.1247 6.73903 31.7884 7.13068 31.5006C8.6973 30.3608 9.15689 28.8322 8.88513 27.0421C8.67332 25.6668 8.43353 24.2803 8.81319 22.9012C9.00102 22.2098 9.2568 21.5371 9.54055 20.685C6.68708 22.6022 5.24435 25.1211 4.68485 28.1782C5.71993 29.0527 5.99569 30.1253 5.57206 31.3549C5.33627 32.05 4.83671 32.5583 4.19728 32.9469C3.81761 33.1786 3.46193 33.4066 3.34204 33.8626C3.31006 33.9859 3.08626 34.1653 2.98635 34.1466C2.8145 34.1167 2.60269 33.9821 2.52676 33.8364C1.72347 32.2854 1.83937 30.1365 3.26211 28.8733C3.69373 28.4921 3.90954 28.0923 4.02543 27.5354C5.00457 22.8526 7.92598 19.7731 12.8336 18.3978C14.0725 18.0503 15.3474 18.0503 16.6263 18.2446C19.7315 18.723 22.8288 19.291 25.982 19.4032C26.9212 19.4368 27.8803 19.3023 28.8075 19.1378C30.2262 18.8837 31.1814 18.0951 31.6929 16.7983C32.1365 15.6809 32.684 14.6045 33.2236 13.431C33.1077 13.3451 32.8999 13.1993 32.696 13.0498C31.1854 11.9324 30.3941 10.4562 30.2302 8.68101C30.1663 7.9784 30.2982 7.91113 31.0255 8.05688C32.692 8.39697 34.0269 9.22664 35.1019 10.445C35.2698 10.6356 35.4496 10.8224 35.6254 11.0056C35.6414 11.0205 35.6774 11.0205 35.7453 11.0355C36.2489 9.36118 37.0921 7.91114 38.9105 7.03662C39.9376 8.29234 39.9736 9.67137 39.7298 11.0616C40.689 11.7007 41.6641 12.2538 42.5153 12.934C43.5504 13.7637 44.5136 14.6793 45.4527 15.6099C46.1002 16.2489 46.1241 17.5756 45.6206 18.3231C45.2089 18.9323 44.6494 19.3583 43.9501 19.6573C43.5984 19.8105 43.3266 19.7769 43.0748 19.5115C42.9949 19.4293 42.899 19.3621 42.8231 19.2761C42.1557 18.5511 41.4483 17.9307 40.3013 17.9793C39.9096 17.9942 39.51 17.7775 39.0344 17.6429C38.5628 19.3284 37.9114 20.9691 37.7596 22.7256C37.6077 24.497 36.9043 26.0592 35.7813 27.4793C35.5415 27.7821 35.3337 28.1371 35.2218 28.4959C34.2826 31.5679 33.3754 34.6511 32.4363 37.7269C32.2844 38.2277 32.3603 38.579 32.74 38.9938C33.0717 39.3526 33.2395 39.8683 33.3834 40.3392C33.5073 40.7428 33.3395 40.9297 32.8959 40.9409C31.8847 40.9633 30.8736 40.9484 29.8585 40.9446C29.4869 40.9409 29.331 40.7428 29.339 40.4065C29.343 40.2121 29.339 40.0178 29.339 39.8235C29.339 39.6291 29.403 39.4049 29.327 39.2442C28.5917 37.7306 29.1672 36.1909 29.2271 34.6735C29.2871 33.0105 29.5228 31.3511 29.6747 29.6881C29.6987 29.4788 29.6827 29.2583 29.6827 29.0004ZM10.168 40.1337C10.212 40.0701 10.2559 40.0103 10.2999 39.9468C10.0241 39.6777 9.78433 39.3638 9.46462 39.1508C9.15289 38.9415 9.06097 38.7285 9.09694 38.3846C9.24881 36.972 9.38468 35.5593 9.50458 34.1466C9.53255 33.8177 9.63246 33.5636 9.91222 33.358C11.7666 31.9865 13.3212 30.3346 14.8159 28.6342C15.3394 28.0399 16.0308 27.7223 16.8221 27.6737C17.5295 27.6288 18.2568 27.6438 18.9562 27.7447C21.0064 28.0511 23.0406 28.451 25.0948 28.7425C26.7453 28.978 28.3559 28.8472 29.7826 27.883C29.9425 27.7746 30.2822 27.7036 30.3901 27.7858C30.53 27.8942 30.5779 28.1745 30.5619 28.3763C30.3501 30.9811 30.0983 33.586 29.9145 36.1909C29.8585 36.9645 29.5828 37.7755 30.1223 38.5304C30.2342 38.6873 30.1623 38.9639 30.1663 39.1881C30.1703 39.4871 30.1663 39.7861 30.1663 40.1187C30.9776 40.1187 31.6969 40.1187 32.4642 40.1187C32.3044 39.4684 31.8168 39.147 31.3652 38.8555C31.3612 38.7509 31.3412 38.6911 31.3572 38.6425C32.4323 35.0547 33.4993 31.4707 34.5943 27.8867C34.6903 27.5803 34.8941 27.285 35.1099 27.0271C36.1889 25.7453 36.8523 24.2877 36.9802 22.677C37.1321 20.7336 37.8635 18.9397 38.387 17.0898C38.5349 16.5629 38.7347 16.5068 39.2183 16.7946C39.8417 17.1645 40.5051 17.3738 41.2445 17.2879C41.6721 17.2393 41.9758 17.3701 42.2676 17.6541C42.7192 18.0877 43.2107 18.4838 43.7223 18.9285C43.9581 18.7828 44.2258 18.6183 44.4137 18.4987C44.3457 18.1811 44.1699 17.8074 44.2658 17.7289C44.4736 17.5607 44.8213 17.5457 45.153 17.4598C45.109 17.0225 45.2729 16.5629 44.8892 16.1368C43.3586 14.4401 41.5682 13.0424 39.3781 11.8166C39.2982 11.9474 39.2462 12.1417 39.1143 12.2202C38.9705 12.3061 38.6947 12.3585 38.5788 12.2874C38.4629 12.2127 38.4389 11.9623 38.4469 11.7941C38.4509 11.6671 38.5668 11.5437 38.6388 11.4241C39.0944 10.6543 39.1223 9.82834 38.9745 8.99119C38.9265 8.71464 38.7707 8.45677 38.6348 8.11668C37.284 9.18553 36.6445 10.4599 36.4087 11.9137C34.7622 12.7733 33.7711 14.1 33.0677 15.6435C32.9158 15.9761 32.76 16.3087 32.6521 16.6563C32.0286 18.6295 30.5859 19.7134 28.4518 20.0348C28.0442 20.0983 27.6245 20.1282 27.2129 20.1469C24.3674 20.2851 21.5939 19.7545 18.8043 19.3546C17.3376 19.1453 15.8869 18.8538 14.3843 18.9397C12.5139 19.0481 11.0792 19.7545 10.2439 21.3802C9.82829 22.1911 9.50458 23.0358 9.52057 23.9364C9.54055 25.1025 9.63646 26.2647 9.74037 27.427C9.90423 29.2695 9.35671 30.8391 7.7861 32.0276C7.50635 32.2406 7.39445 32.4723 7.39445 32.8124C7.39445 34.397 7.36647 35.9853 7.35848 37.5699C7.35848 37.7605 7.3305 38.0258 7.4464 38.1305C7.83406 38.4743 7.74614 38.8891 7.76612 39.3002C7.77811 39.5693 7.79809 39.8384 7.81808 40.1374C8.64534 40.1337 9.40467 40.1337 10.168 40.1337ZM17.9451 40.1449C17.7133 39.6104 17.4296 39.2704 16.958 39.1171C16.5224 38.9788 16.3985 38.6836 16.3265 38.3024C16.0708 36.9084 15.823 35.5107 15.5073 34.1279C15.3714 33.5262 15.4793 33.089 15.9109 32.6143C16.986 31.4334 17.6254 30.0394 18.021 28.5034C16.902 28.3202 15.9988 28.5034 15.2755 29.3442C14.5681 30.1627 13.7968 30.94 13.0215 31.7062C12.7377 31.9865 12.6698 32.2294 12.7857 32.5956C13.3292 34.2699 13.8407 35.9517 14.3683 37.626C14.4162 37.7867 14.4402 38.0109 14.5601 38.0819C15.1076 38.4108 15.1036 38.9676 15.2795 39.4535C15.3634 39.6852 15.4553 39.9094 15.5472 40.1449C16.3425 40.1449 17.0819 40.1449 17.9451 40.1449ZM33.7951 12.8181C34.2586 12.4369 34.6583 12.1118 35.1059 11.7418C34.1188 10.3852 32.9318 9.33502 31.0735 8.86413C31.3532 10.6318 32.2005 11.9063 33.7951 12.8181ZM2.91442 32.7713C4.82473 31.7959 5.42419 30.5439 4.58493 29.4489C4.509 29.8375 4.45705 30.2262 4.33716 30.5925C4.30119 30.6971 4.0694 30.7943 3.92153 30.798C3.8336 30.8018 3.67774 30.6411 3.64976 30.5289C3.59381 30.3234 3.60581 30.1029 3.57783 29.7628C2.75056 30.7121 2.83848 31.6912 2.91442 32.7713Z" fill="#FFEB61"/>
<path d="M29.6827 29.0004C28.9434 29.1761 28.3199 29.3554 27.6845 29.4676C25.7622 29.8076 23.9038 29.3554 22.0375 29.0415C21.0184 28.8733 20.0073 28.664 18.9562 28.4622C18.8363 28.7986 18.7324 29.0826 18.6325 29.3704C18.1569 30.7607 17.5255 32.0724 16.4944 33.1861C16.2786 33.4216 16.2066 33.6383 16.2706 33.941C16.5503 35.2491 16.8181 36.5609 17.0739 37.8726C17.1378 38.2052 17.3416 38.3884 17.6374 38.564C18.3288 38.9751 18.7004 39.603 18.8363 40.3467C18.9202 40.7914 18.8163 40.9297 18.3487 40.9409C17.3656 40.9633 16.3825 40.9446 15.4034 40.9596C15.0437 40.9633 14.8478 40.8064 14.7439 40.5111C14.672 40.2981 14.6121 40.0851 14.5521 39.8683C14.5041 39.7076 14.5002 39.5208 14.4082 39.3899C13.2253 37.6708 13.0414 35.6377 12.3541 33.7654C12.2422 33.4552 12.1223 33.145 11.9784 32.7451C11.4349 33.1712 10.9473 33.5299 10.4957 33.9261C10.3598 34.0419 10.2719 34.2512 10.2519 34.4269C10.14 35.5892 10.0641 36.7589 9.94818 37.9212C9.91222 38.2613 10.0121 38.508 10.2759 38.7322C10.7755 39.162 11.0592 39.7113 11.1551 40.3355C11.2271 40.7989 11.0992 40.9446 10.5876 40.9521C9.60449 40.9708 8.62136 40.9484 7.64223 40.9633C7.18663 40.9708 6.9908 40.7802 7.00679 40.3616C7.01878 40.0851 7.01478 39.8048 7.00279 39.5282C6.9948 39.3638 7.02278 39.1246 6.92287 39.0499C6.37535 38.6462 6.52722 38.0969 6.53521 37.5849C6.5512 35.9143 6.60315 34.2438 6.61114 32.5732C6.61514 32.1247 6.73903 31.7884 7.13068 31.5006C8.6973 30.3608 9.15689 28.8322 8.88513 27.0421C8.67332 25.6668 8.43353 24.2803 8.81319 22.9012C9.00102 22.2098 9.2568 21.5371 9.54055 20.685C6.68708 22.6022 5.24435 25.1211 4.68485 28.1782C5.71993 29.0527 5.99569 30.1253 5.57206 31.3549C5.33627 32.05 4.83671 32.5583 4.19728 32.9469C3.81761 33.1786 3.46193 33.4066 3.34204 33.8626C3.31006 33.9859 3.08626 34.1653 2.98635 34.1466C2.8145 34.1167 2.60269 33.9821 2.52676 33.8364C1.72347 32.2854 1.83937 30.1365 3.26211 28.8733C3.69373 28.4921 3.90954 28.0923 4.02543 27.5354C5.00457 22.8526 7.92598 19.7731 12.8336 18.3978C14.0725 18.0503 15.3474 18.0503 16.6263 18.2446C19.7315 18.723 22.8288 19.291 25.982 19.4032C26.9212 19.4368 27.8803 19.3023 28.8075 19.1378C30.2262 18.8837 31.1814 18.0951 31.6929 16.7983C32.1365 15.6809 32.684 14.6045 33.2236 13.431C33.1077 13.3451 32.8999 13.1993 32.696 13.0498C31.1854 11.9324 30.3941 10.4562 30.2302 8.68101C30.1663 7.9784 30.2982 7.91113 31.0255 8.05688C32.692 8.39697 34.0269 9.22664 35.1019 10.445C35.2698 10.6356 35.4496 10.8224 35.6254 11.0056C35.6414 11.0205 35.6774 11.0205 35.7453 11.0355C36.2489 9.36118 37.0921 7.91114 38.9105 7.03662C39.9376 8.29234 39.9736 9.67137 39.7298 11.0616C40.689 11.7007 41.6641 12.2538 42.5153 12.934C43.5504 13.7637 44.5136 14.6793 45.4527 15.6099C46.1002 16.2489 46.1241 17.5756 45.6206 18.3231C45.2089 18.9323 44.6494 19.3583 43.9501 19.6573C43.5984 19.8105 43.3266 19.7769 43.0748 19.5115C42.9949 19.4293 42.899 19.3621 42.8231 19.2761C42.1557 18.5511 41.4483 17.9307 40.3013 17.9793C39.9096 17.9942 39.51 17.7775 39.0344 17.6429C38.5628 19.3284 37.9114 20.9691 37.7596 22.7256C37.6077 24.497 36.9043 26.0592 35.7813 27.4793C35.5415 27.7821 35.3337 28.1371 35.2218 28.4959C34.2826 31.5679 33.3754 34.6511 32.4363 37.7269C32.2844 38.2277 32.3603 38.579 32.74 38.9938C33.0717 39.3526 33.2395 39.8683 33.3834 40.3392C33.5073 40.7428 33.3395 40.9297 32.8959 40.9409C31.8847 40.9633 30.8736 40.9484 29.8585 40.9446C29.4869 40.9409 29.331 40.7428 29.339 40.4065C29.343 40.2121 29.339 40.0178 29.339 39.8235C29.339 39.6291 29.403 39.4049 29.327 39.2442C28.5917 37.7306 29.1672 36.1909 29.2271 34.6735C29.2871 33.0105 29.5228 31.3511 29.6747 29.6881C29.6987 29.4788 29.6827 29.2583 29.6827 29.0004ZM10.168 40.1337C10.212 40.0701 10.2559 40.0103 10.2999 39.9468C10.0241 39.6777 9.78433 39.3638 9.46462 39.1508C9.15289 38.9415 9.06097 38.7285 9.09694 38.3846C9.24881 36.972 9.38468 35.5593 9.50458 34.1466C9.53255 33.8177 9.63246 33.5636 9.91222 33.358C11.7666 31.9865 13.3212 30.3346 14.8159 28.6342C15.3394 28.0399 16.0308 27.7223 16.8221 27.6737C17.5295 27.6288 18.2568 27.6438 18.9562 27.7447C21.0064 28.0511 23.0406 28.451 25.0948 28.7425C26.7453 28.978 28.3559 28.8472 29.7826 27.883C29.9425 27.7746 30.2822 27.7036 30.3901 27.7858C30.53 27.8942 30.5779 28.1745 30.5619 28.3763C30.3501 30.9811 30.0983 33.586 29.9145 36.1909C29.8585 36.9645 29.5828 37.7755 30.1223 38.5304C30.2342 38.6873 30.1623 38.9639 30.1663 39.1881C30.1703 39.4871 30.1663 39.7861 30.1663 40.1187C30.9776 40.1187 31.6969 40.1187 32.4642 40.1187C32.3044 39.4684 31.8168 39.147 31.3652 38.8555C31.3612 38.7509 31.3412 38.6911 31.3572 38.6425C32.4323 35.0547 33.4993 31.4707 34.5943 27.8867C34.6903 27.5803 34.8941 27.285 35.1099 27.0271C36.1889 25.7453 36.8523 24.2877 36.9802 22.677C37.1321 20.7336 37.8635 18.9397 38.387 17.0898C38.5349 16.5629 38.7347 16.5068 39.2183 16.7946C39.8417 17.1645 40.5051 17.3738 41.2445 17.2879C41.6721 17.2393 41.9758 17.3701 42.2676 17.6541C42.7192 18.0877 43.2107 18.4838 43.7223 18.9285C43.9581 18.7828 44.2258 18.6183 44.4137 18.4987C44.3457 18.1811 44.1699 17.8074 44.2658 17.7289C44.4736 17.5607 44.8213 17.5457 45.153 17.4598C45.109 17.0225 45.2729 16.5629 44.8892 16.1368C43.3586 14.4401 41.5682 13.0424 39.3781 11.8166C39.2982 11.9474 39.2462 12.1417 39.1143 12.2202C38.9705 12.3061 38.6947 12.3585 38.5788 12.2874C38.4629 12.2127 38.4389 11.9623 38.4469 11.7941C38.4509 11.6671 38.5668 11.5437 38.6388 11.4241C39.0944 10.6543 39.1223 9.82834 38.9745 8.99119C38.9265 8.71464 38.7707 8.45677 38.6348 8.11668C37.284 9.18553 36.6445 10.4599 36.4087 11.9137C34.7622 12.7733 33.7711 14.1 33.0677 15.6435C32.9158 15.9761 32.76 16.3087 32.6521 16.6563C32.0286 18.6295 30.5859 19.7134 28.4518 20.0348C28.0442 20.0983 27.6245 20.1282 27.2129 20.1469C24.3674 20.2851 21.5939 19.7545 18.8043 19.3546C17.3376 19.1453 15.8869 18.8538 14.3843 18.9397C12.5139 19.0481 11.0792 19.7545 10.2439 21.3802C9.82829 22.1911 9.50458 23.0358 9.52057 23.9364C9.54055 25.1025 9.63646 26.2647 9.74037 27.427C9.90423 29.2695 9.35671 30.8391 7.7861 32.0276C7.50635 32.2406 7.39445 32.4723 7.39445 32.8124C7.39445 34.397 7.36647 35.9853 7.35848 37.5699C7.35848 37.7605 7.3305 38.0258 7.4464 38.1305C7.83406 38.4743 7.74614 38.8891 7.76612 39.3002C7.77811 39.5693 7.79809 39.8384 7.81808 40.1374C8.64534 40.1337 9.40467 40.1337 10.168 40.1337ZM17.9451 40.1449C17.7133 39.6104 17.4296 39.2704 16.958 39.1171C16.5224 38.9788 16.3985 38.6836 16.3265 38.3024C16.0708 36.9084 15.823 35.5107 15.5073 34.1279C15.3714 33.5262 15.4793 33.089 15.9109 32.6143C16.986 31.4334 17.6254 30.0394 18.021 28.5034C16.902 28.3202 15.9988 28.5034 15.2755 29.3442C14.5681 30.1627 13.7968 30.94 13.0215 31.7062C12.7377 31.9865 12.6698 32.2294 12.7857 32.5956C13.3292 34.2699 13.8407 35.9517 14.3683 37.626C14.4162 37.7867 14.4402 38.0109 14.5601 38.0819C15.1076 38.4108 15.1036 38.9676 15.2795 39.4535C15.3634 39.6852 15.4553 39.9094 15.5472 40.1449C16.3425 40.1449 17.0819 40.1449 17.9451 40.1449ZM33.7951 12.8181C34.2586 12.4369 34.6583 12.1118 35.1059 11.7418C34.1188 10.3852 32.9318 9.33502 31.0735 8.86413C31.3532 10.6318 32.2005 11.9063 33.7951 12.8181ZM2.91442 32.7713C4.82473 31.7959 5.42419 30.5439 4.58493 29.4489C4.509 29.8375 4.45705 30.2262 4.33716 30.5925C4.30119 30.6971 4.0694 30.7943 3.92153 30.798C3.8336 30.8018 3.67774 30.6411 3.64976 30.5289C3.59381 30.3234 3.60581 30.1029 3.57783 29.7628C2.75056 30.7121 2.83848 31.6912 2.91442 32.7713Z" stroke="#FFEB61" stroke-width="0.4" mask="url(#path-1-outside-1_784_3312)"/>
<path d="M13.9583 20.2306C13.9194 20.1293 13.8338 20.0551 13.7629 20.0029C13.7299 19.9785 13.6961 19.9562 13.6671 19.9371C13.6639 19.935 13.6608 19.9329 13.6577 19.9308C13.6248 19.9091 13.6015 19.8932 13.5859 19.88L13.5512 19.8506L13.865 20.2665M13.9583 20.2306L13.865 20.2665M13.9583 20.2306C13.9583 20.2306 13.9583 20.2306 13.9583 20.2306L13.865 20.2665M13.9583 20.2306C13.9805 20.2882 13.967 20.3455 13.951 20.3862C13.9344 20.4289 13.9081 20.4711 13.8809 20.5092C13.8372 20.5703 13.781 20.634 13.7353 20.6859C13.7248 20.6978 13.7149 20.709 13.7058 20.7195M13.865 20.2665C13.8973 20.3506 13.7645 20.5014 13.6619 20.6179C13.6505 20.6308 13.6395 20.6432 13.6292 20.6552M13.7058 20.7195C13.7062 20.7189 13.7067 20.7183 13.7072 20.7177L13.6292 20.6552M13.7058 20.7195C13.6649 20.7695 13.6071 20.7974 13.5607 20.8153C13.5271 20.8282 13.4884 20.8396 13.4563 20.8491C13.4441 20.8527 13.4328 20.856 13.4231 20.859L13.3934 20.7635M13.7058 20.7195C13.7054 20.7199 13.705 20.7203 13.7047 20.7207L13.6292 20.6552M13.6292 20.6552L13.3934 20.7635M13.3934 20.7635L13.4235 20.8589C12.8934 21.0265 12.5495 21.2992 12.3325 21.6433C12.1141 21.9895 12.0184 22.4173 12.0027 22.904M13.3934 20.7635C12.2944 21.1111 11.9347 21.9071 11.9027 22.9012M12.0027 22.904C12.0027 22.9039 12.0027 22.9037 12.0027 22.9036L11.9027 22.9012M12.0027 22.904C12.0027 22.9042 12.0027 22.9043 12.0026 22.9045L11.9027 22.9012M12.0027 22.904L11.9027 22.9012M11.9974 23.4304C11.9975 23.4302 11.9976 23.4299 11.9976 23.4297L11.9027 23.3983L11.9972 23.4311C11.9972 23.4309 11.9973 23.4306 11.9974 23.4304ZM11.5952 23.8906C11.5955 23.8906 11.5957 23.8906 11.596 23.8906L11.591 23.7907L11.5943 23.8906C11.5946 23.8906 11.5949 23.8906 11.5952 23.8906Z" fill="#FFEB61" stroke="#FFEB61" stroke-width="0.2"/>
<path d="M37.7756 11.4828L37.8239 11.497L37.8641 11.4666C38.3629 11.0887 38.6368 10.6049 38.5742 10.133L38.5742 10.133L38.5741 10.1319C38.5536 9.98919 38.4863 9.84159 38.3849 9.74967C38.3332 9.70283 38.2681 9.66664 38.1925 9.65972C38.1152 9.65265 38.0391 9.67742 37.9703 9.73065L38.0315 9.80976L37.9706 9.73044C37.6791 9.95423 37.5101 10.3313 37.3726 10.6398C37.2959 10.812 37.2734 10.9902 37.3412 11.1476C37.4096 11.3064 37.5597 11.4196 37.7756 11.4828Z" fill="#FFEB61" stroke="#FFEB61" stroke-width="0.2"/>
<path d="M41.0764 13.4122L41.0243 13.3866L40.9763 13.4192C40.8118 13.5308 40.6817 13.6337 40.6035 13.7372C40.5635 13.7902 40.5338 13.8475 40.5223 13.9102C40.5106 13.9743 40.5192 14.0372 40.5456 14.0978C40.5956 14.2128 40.7094 14.3184 40.8644 14.4269C41.0227 14.5376 41.2398 14.6617 41.5171 14.8087L41.5655 14.8343L41.6131 14.8074C41.8003 14.7016 41.9342 14.591 42.0035 14.4688C42.0778 14.3376 42.0718 14.2031 42.0016 14.0766C41.9356 13.9577 41.8142 13.8473 41.6606 13.7414C41.5052 13.6342 41.3071 13.5252 41.0764 13.4122Z" fill="#FFEB61" stroke="#FFEB61" stroke-width="0.2"/>
</svg>
