<svg width="48" height="48" viewBox="0 0 48 48" fill="none" xmlns="http://www.w3.org/2000/svg">
<path d="M30.0168 14.6533C30.2267 14.6361 30.425 14.6171 30.6146 14.599C31.1315 14.5496 31.5833 14.5064 32.0273 14.5212L32.0275 14.5212C33.0434 14.5568 33.8482 14.9712 34.3287 15.6304C34.8092 16.2896 34.9564 17.181 34.6824 18.1525C34.1357 20.1012 32.8705 21.504 31.251 22.6113L31.251 22.6113C29.6048 23.7347 27.7636 24.4642 25.9449 25.1847L25.8816 25.2098C23.2765 26.244 20.9196 27.6265 19.0003 29.6882L19 29.6884C18.9868 29.7025 18.9731 29.7194 18.9569 29.7397L18.952 29.7458C18.9378 29.7637 18.9216 29.784 18.9048 29.8029C18.8711 29.8411 18.8164 29.8965 18.7403 29.9096C18.645 29.9269 18.5374 29.9454 18.431 29.9506C18.3247 29.9558 18.2124 29.9483 18.1096 29.9088L18.1083 29.9083C18.0689 29.8925 18.047 29.8608 18.0362 29.8419C18.0239 29.8204 18.0151 29.7963 18.0086 29.7735C17.9955 29.7274 17.9875 29.6715 17.9843 29.6155C17.981 29.559 17.9823 29.4983 17.9895 29.4419C17.9964 29.3873 18.0099 29.3283 18.0362 29.2808L18.0362 29.2806C18.1644 29.0492 18.3587 28.852 18.5353 28.6729C18.5555 28.6524 18.5755 28.6322 18.5951 28.6121L18.5955 28.6117C20.6237 26.5617 23.0823 25.2178 25.7255 24.177L25.7255 24.177C27.457 23.4957 29.1554 22.7649 30.7095 21.7375C32.0784 20.8321 33.0757 19.6285 33.6366 18.0869L33.6367 18.0868C33.8889 17.3958 33.8716 16.8334 33.6199 16.4049C33.3825 16.0007 32.924 15.6941 32.2287 15.5154C32.2298 15.5281 32.231 15.5407 32.2321 15.553C32.2428 15.6737 32.2521 15.7784 32.2775 15.8828C32.4553 16.608 32.2431 17.2557 31.9213 17.8639L31.9213 17.864C31.3082 19.0196 30.3749 19.8984 29.414 20.7201C27.1809 22.6304 24.6358 24.0462 22.0006 25.2812L21.9581 25.1907L22.0006 25.2812C20.4858 25.991 18.9552 26.6641 17.426 27.3366C16.793 27.615 16.1602 27.8932 15.529 28.1739C15.4998 28.1872 15.4704 28.2017 15.439 28.2172C15.4338 28.2198 15.4285 28.2224 15.4232 28.225C15.3865 28.2431 15.3474 28.2621 15.3078 28.279C15.2298 28.3122 15.1398 28.3419 15.0462 28.3391L15.0493 28.2391M30.0168 14.6533L14.4866 27.5535C14.4692 27.6296 14.4485 27.7197 14.4391 27.8047C14.4284 27.9016 14.4285 28.0188 14.4872 28.1104M30.0168 14.6533C30.2875 14.2359 30.5487 13.8234 30.8063 13.4167C31.4867 12.3421 32.142 11.3073 32.8812 10.3258C33.4677 9.54932 34.449 9.32516 35.4542 9.46145L35.4542 9.46145C36.6839 9.62798 37.782 10.1574 38.7064 10.9662L38.7722 10.8909C39.0633 11.1465 39.2557 11.5297 39.4419 11.9006L30.0168 14.6533ZM15.0493 28.2391L15.0466 28.3391C14.9547 28.3367 14.8437 28.3188 14.7441 28.285C14.6493 28.2528 14.5432 28.199 14.4872 28.1104M15.0493 28.2391C14.8842 28.2348 14.6454 28.174 14.5716 28.0567M15.0493 28.2391C15.1618 28.2425 15.2797 28.1843 15.3946 28.1276C15.426 28.1121 15.4571 28.0968 15.4879 28.0828L14.5933 27.5356M14.4872 28.1104C14.4871 28.1103 14.487 28.1101 14.487 28.11L14.5716 28.0567M14.4872 28.1104C14.4873 28.1105 14.4874 28.1107 14.4875 28.1108L14.5716 28.0567M14.5716 28.0567C14.4995 27.9446 14.5456 27.744 14.5838 27.5773C14.5871 27.5631 14.5902 27.5492 14.5933 27.5356M14.5933 27.5356C14.6055 27.4807 14.6628 27.4364 14.72 27.3923C14.744 27.3738 14.7681 27.3552 14.7887 27.3359L14.7183 27.2649L14.5933 27.5356ZM14.5933 27.5356L14.4957 27.5137L14.4957 27.5139L14.5933 27.5356ZM34.1692 39.0598L34.1692 39.0599C34.1656 39.1571 34.1035 39.2391 34.0503 39.2974C34.0126 39.3386 33.966 39.3815 33.9258 39.4184C33.9084 39.4343 33.8922 39.4491 33.8785 39.4622C33.8783 39.4624 33.8781 39.4626 33.878 39.4628L33.8088 39.3906L34.1692 39.0598ZM34.1692 39.0598C34.1724 38.9708 34.1321 38.8694 34.0846 38.7918C34.0597 38.7511 34.0299 38.7121 33.9968 38.6799C33.965 38.6488 33.9241 38.6183 33.8763 38.6043M34.1692 39.0598L25.6675 34.4478C26.1392 35.3118 26.6105 36.172 27.0674 37.0057L27.2191 37.2826C27.5073 37.3147 27.8099 37.3004 28.1205 37.2832C28.1366 37.2823 28.1527 37.2814 28.1689 37.2805C28.4787 37.2631 28.7964 37.2454 29.0992 37.2762C29.4198 37.3088 29.7306 37.3964 30.0079 37.6005C30.2725 37.7952 30.4989 38.0902 30.6764 38.5263C30.853 38.5263 31.0315 38.526 31.2116 38.5258C31.8288 38.525 32.464 38.5241 33.1014 38.5307H33.1082C33.3551 38.5306 33.6278 38.5306 33.8763 38.6043M33.8763 38.6043L33.8478 38.7001M33.8763 38.6043C33.8761 38.6042 33.876 38.6042 33.8758 38.6041L33.8478 38.7001M33.8478 38.7001C33.6133 38.6307 33.3528 38.6307 33.1009 38.6307M33.8478 38.7001L33.1009 38.6307M33.1009 38.6307C32.464 38.6241 31.8294 38.625 31.2121 38.6258C31.0088 38.626 30.8074 38.6263 30.6084 38.6263C30.089 37.2733 29.1388 37.3264 28.1719 37.3804L33.1009 38.6307ZM25.7946 36.8031C26.0332 37.4371 26.3495 37.8953 26.794 38.1552C27.2396 38.4157 27.796 38.4666 28.4918 38.3248M25.7946 36.8031L28.4918 38.3248M25.7946 36.8031C25.5849 36.249 25.2601 35.7374 24.9322 35.2209M25.7946 36.8031L24.9322 35.2209M28.4918 38.3248C28.4918 38.3248 28.4918 38.3248 28.4918 38.3248L28.4719 38.2268L28.4918 38.3248ZM24.9322 35.2209C24.8868 35.1494 24.8413 35.0778 24.7961 35.006L24.9322 35.2209ZM29.5402 13.5683C28.9044 14.6797 28.1949 15.6503 26.9682 16.0982L43.671 13.5448C42.8629 13.153 42.0555 12.7615 41.2431 12.3804L41.2857 12.2899C41.2856 12.2899 41.2856 12.2899 41.2856 12.2898C40.7696 12.0468 40.3717 11.7706 40.1552 11.211C40.0067 10.8258 39.6674 10.4942 39.3743 10.2226L39.374 10.2223C38.4099 9.3375 37.2638 8.74641 35.9847 8.51703C34.091 8.17635 32.3032 8.89275 31.4238 10.5087C31.1392 11.0305 30.8186 11.5336 30.4934 12.038C30.4659 12.0805 30.4384 12.1231 30.411 12.1657C30.1133 12.6269 29.814 13.0907 29.5402 13.5683L29.5402 13.5683ZM44.6683 13.9216C44.5949 13.8834 44.5196 13.8443 44.4391 13.8058L38.2685 17.7129L38.3681 17.7222C38.3681 17.7222 38.3681 17.7222 38.3681 17.7222C38.486 16.4545 38.9477 15.4428 39.8015 14.5174C39.8636 14.5238 39.926 14.5294 39.9889 14.5351C40.1159 14.5466 40.245 14.5582 40.3781 14.5768L40.3788 14.5769L40.3792 14.577C41.8164 14.768 43.2532 14.959 44.69 15.1587C44.8384 15.1802 45.0064 15.1975 45.151 15.1511C45.2261 15.1269 45.2958 15.0855 45.353 15.0196C45.4096 14.9544 45.4498 14.87 45.4744 14.766C45.5179 14.5843 45.4816 14.4381 45.3859 14.324C45.296 14.2168 45.1614 14.1475 45.0279 14.094C44.9029 14.0435 44.788 13.9838 44.6683 13.9216ZM38.4116 14.611C37.755 15.4363 37.4449 16.3332 37.3697 17.3539L37.3697 17.3541C37.2231 19.4073 36.6492 21.3597 35.9127 23.2745L35.9126 23.2747C34.549 26.8408 31.9461 28.9255 28.2505 29.7438L28.2504 29.7439C27.9541 29.8097 27.6249 30.0181 27.4409 30.2635C26.9278 30.9468 26.4288 31.644 25.9306 32.3401C25.5652 32.8508 25.2002 33.3608 24.8304 33.8642L24.8303 33.8644C24.6928 34.0523 24.6143 34.2344 24.6086 34.4269C24.6029 34.6191 24.6704 34.8071 24.796 35.0059L38.4116 14.611ZM17.7224 26.0895L17.7224 26.0895L17.7206 26.0903C17.6784 26.1103 17.6338 26.127 17.5869 26.142C18.1447 25.5616 18.6948 24.976 19.2439 24.3915C21.3422 22.1578 23.4254 19.9402 25.8659 18.0923L25.8661 18.0922C27.1469 17.1186 28.4954 16.2838 30.0386 15.8066L30.0387 15.8066C30.0951 15.7891 30.1486 15.771 30.2004 15.7535C30.3273 15.7106 30.4435 15.6713 30.5655 15.6538C30.817 15.6206 30.9927 15.6544 31.1028 15.7364C31.2087 15.8153 31.2767 15.9565 31.2726 16.1957L31.2726 16.1964C31.2683 16.6162 31.211 17.0883 31.0035 17.3916C30.4933 18.1352 29.9248 18.8583 29.2721 19.4681C27.2372 21.369 24.8545 22.7665 22.3574 23.9804L22.3573 23.9804C21.2014 24.5436 20.0234 25.0665 18.8439 25.5901C18.47 25.7561 18.096 25.9221 17.7224 26.0895ZM41.919 13.7339C41.9169 13.7416 41.9147 13.7493 41.9125 13.757C41.6059 13.7237 41.2978 13.6892 40.9685 13.6524C40.7184 13.6244 40.456 13.595 40.1727 13.5638C40.1847 13.5359 40.1963 13.5089 40.2077 13.4825C40.2758 13.3245 40.3344 13.1885 40.4028 13.0347C40.626 13.1379 40.8447 13.2385 41.0607 13.3379C41.35 13.471 41.6345 13.6019 41.919 13.7339Z" fill="#FFEB61" stroke="#FFEB61" stroke-width="0.2"/>
<path d="M25.3147 37.2193C26.0964 37.3539 26.2049 37.6275 25.775 38.357M25.3147 37.2193L25.3334 37.1211C25.3332 37.121 25.3329 37.1209 25.3326 37.1209C25.2357 37.1025 25.1242 37.0921 25.0183 37.1073L25.017 37.1075C24.819 37.1385 24.6722 37.0998 24.5466 37.0199C24.4167 36.9371 24.3042 36.8068 24.1837 36.6432L24.1835 36.6429C23.6572 35.934 23.1129 35.2329 22.5376 34.5617L22.5374 34.5614C22.3904 34.3913 22.2982 34.2371 22.2647 34.0814C22.2319 33.929 22.253 33.7637 22.3552 33.5653L22.3553 33.5652C22.6853 32.9225 23.0121 32.2777 23.3085 31.615M25.3147 37.2193C25.2235 37.2019 25.1237 37.1932 25.0325 37.2063L25.3147 37.2193ZM25.775 38.357L4.41067 38.3197M25.775 38.357C25.7589 38.3839 25.7611 38.4207 25.7651 38.489C25.7675 38.5312 25.7707 38.5854 25.7707 38.6567L25.775 38.357ZM23.3085 31.615C23.3085 31.615 23.3085 31.6151 23.3085 31.6151L23.2173 31.5741L23.3086 31.6149C23.3086 31.6149 23.3086 31.615 23.3085 31.615ZM23.3085 31.615C23.3524 31.5175 23.3855 31.3914 23.3957 31.2709C23.4054 31.1553 23.3961 31.0211 23.3296 30.9261L23.3291 30.9254C23.2934 30.8754 23.2422 30.8421 23.1913 30.8192C23.1398 30.7961 23.0818 30.7805 23.0242 30.7696C22.9093 30.7479 22.7819 30.7424 22.6814 30.7402M22.6814 30.7402C22.6815 30.7402 22.6816 30.7402 22.6818 30.7402L22.6788 30.8402L22.681 30.7402C22.6811 30.7402 22.6813 30.7402 22.6814 30.7402ZM22.6814 30.7402C22.5884 30.7376 22.4992 30.7635 22.4214 30.7909C22.3902 30.8019 22.3618 30.8127 22.3348 30.823C22.2883 30.8407 22.2458 30.8568 22.1998 30.87C20.4334 31.3722 18.6452 31.6986 16.8264 31.518L16.8262 31.518C16.5039 31.4864 16.24 31.5163 16.0014 31.609C15.7636 31.7013 15.5583 31.853 15.3491 32.0533L15.349 32.0534C14.5123 32.8568 13.6682 33.654 12.824 34.4514C11.5809 35.6255 10.3375 36.7998 9.11688 37.9945C8.43152 38.6642 7.72889 38.5687 6.87012 38.4325C6.89211 38.3606 6.91427 38.2928 6.9359 38.2265C6.95329 38.1733 6.97034 38.1211 6.98668 38.0687C7.03228 37.9226 7.07064 37.78 7.08468 37.6326L7.08477 37.6316C7.09562 37.5036 7.1072 37.3446 7.09682 37.1971C7.08679 37.0544 7.055 36.8975 6.95801 36.7946L6.95749 36.7941C6.8727 36.7055 6.78091 36.6547 6.68308 36.6404C6.58639 36.6262 6.49582 36.6495 6.41579 36.6868C6.33638 36.7239 6.26218 36.7772 6.1957 36.8303C6.16217 36.857 6.12957 36.8846 6.0987 36.9109L6.08806 36.9199C6.06092 36.943 6.03534 36.9648 6.0104 36.9851C6.01029 36.9852 6.01016 36.9853 6.01004 36.9854L6.07321 37.063M6.07321 37.063C5.63896 37.4104 5.21583 37.7689 4.7927 38.1274C4.68692 38.217 4.58113 38.3066 4.47518 38.3961M6.07321 37.063C6.09917 37.0418 6.12577 37.0192 6.15295 36.996C6.37122 36.8102 6.62652 36.5929 6.88525 36.8632M6.07321 37.063L6.88525 36.8632M4.47518 38.3961L4.41069 38.3197C4.41068 38.3197 4.41067 38.3197 4.41067 38.3197M4.47518 38.3961L4.41067 38.3197M4.47518 38.3961C4.21385 38.6166 3.94869 38.7872 3.51722 38.5288C3.5374 38.5024 3.55734 38.4754 3.57705 38.448C3.75911 38.5551 3.89753 38.5724 4.01163 38.5503C4.14945 38.5237 4.27218 38.4365 4.41067 38.3197M6.88525 36.8632C7.02855 37.0152 7.00684 37.3669 6.98513 37.6231L6.88525 36.8632ZM12.5652 31.1138C11.942 31.5952 11.3186 32.0764 10.6951 32.5577C8.47319 34.2729 6.25092 35.9883 4.03659 37.7143L12.5652 31.1138ZM12.5652 31.1138C12.908 30.849 13.2522 30.585 13.5968 30.3208C14.0772 29.9523 14.5581 29.5835 15.0361 29.2118C15.2662 29.0337 15.3878 28.7862 15.136 28.5821L12.5652 31.1138ZM16.8165 31.6175C16.1955 31.5567 15.8264 31.7347 15.4182 32.1256C14.5801 32.9303 13.7356 33.7279 12.8914 34.5253C11.649 35.6986 10.4071 36.8716 9.18677 38.0661C8.45905 38.7771 7.70313 38.6663 6.84142 38.5292L16.8165 31.6175ZM16.8165 31.6175C18.6534 31.7999 20.4555 31.4699 22.2272 30.9661L16.8165 31.6175ZM20.9765 39.0292C20.9796 39.1185 21.0231 39.2153 21.0751 39.2905C21.126 39.3642 21.202 39.4416 21.2902 39.4687L21.2911 39.469C21.4744 39.5236 21.6781 39.5205 21.8614 39.5178C21.9004 39.5172 21.9386 39.5166 21.9754 39.5166C22.9017 39.5195 23.8263 39.5185 24.7513 39.5176C25.2139 39.5171 25.6767 39.5166 26.1398 39.5166C26.4239 39.5166 26.7078 39.5161 26.9916 39.5156C27.5588 39.5147 28.1256 39.5137 28.6927 39.5166H28.6932C28.9185 39.5166 29.1322 39.4785 29.2478 39.3204C29.3638 39.1617 29.349 38.9268 29.2436 38.6238L29.2202 38.5567H29.1491H29.1427H29.1363H29.1298H29.1234H29.1169H29.1105H29.104H29.0976H29.0912H29.0847H29.0783H29.0718H29.0654H29.0589H29.0525H29.046H29.0395H29.0331H29.0266H29.0202H29.0137H29.0073H29.0008H28.9943H28.9879H28.9814H28.9749H28.9685H28.962H28.9555H28.9491H28.9426H28.9361H28.9297H28.9232H28.9167H28.9102H28.9038H28.8973H28.8908H28.8843H28.8778H28.8714H28.8649H28.8584H28.8519H28.8454H28.8389H28.8324H28.826H28.8195H28.813H28.8065H28.8H28.7935H28.787H28.7805H28.774H28.7675H28.761H28.7545H28.748H28.7415H28.735H28.7285H28.722H28.7155H28.709H28.7025H28.696H28.6895H28.683H28.6765H28.67H28.6634H28.6569H28.6504H28.6439H28.6374H28.6309H28.6244H28.6178H28.6113H28.6048H28.5983H28.5918H28.5852H28.5787H28.5722H28.5657H28.5591H28.5526H28.5461H28.5396H28.533H28.5265H28.52H28.5134H28.5069H28.5004H28.4939H28.4873H28.4808H28.4742H28.4677H28.4612H28.4546H28.4481H28.4416H28.435H28.4285H28.4219H28.4154H28.4088H28.4023H28.3958H28.3892H28.3827H28.3761H28.3696H28.363H28.3565H28.3499H28.3434H28.3368H28.3303H28.3237H28.3171H28.3106H28.304H28.2975H28.2909H28.2844H28.2778H28.2712H28.2647H28.2581H28.2516H28.245H28.2384H28.2319H28.2253H28.2187H28.2122H28.2056H28.199H28.1925H28.1859H28.1793H28.1728H28.1662H28.1596H28.153H28.1465H28.1399H28.1333H28.1267H28.1202H28.1136H28.107H28.1004H28.0939H28.0873H28.0807H28.0741H28.0675H28.061H28.0544H28.0478H28.0412H28.0346H28.028H28.0215H28.0149H28.0083H28.0017H27.9951H27.9885H27.9819H27.9753H27.9687H27.9622H27.9556H27.949H27.9424H27.9358H27.9292H27.9226H27.916H27.9094H27.9028H27.8962H27.8896H27.883H27.8764H27.8698H27.8632H27.8566H27.85H27.8434H27.8368H27.8302H27.8236H27.817H27.8104H27.8038H27.7972H27.7906H27.784H27.7774H27.7708H27.7642H27.7575H27.7509H27.7443H27.7377H27.7311H27.7245H27.7179H27.7113H27.7047H27.6981H27.6914H27.6848H27.6782H27.6716H27.665H27.6584H27.6517H27.6451H27.6385H27.6319H27.6253H27.6187H27.612H27.6054H27.5988H27.5922H27.5856H27.5789H27.5723H27.5657H27.5591H27.5524H27.5458H27.5392H27.5326H27.526H27.5193H27.5127H27.5061H27.4994H27.4928H27.4862H27.4796H27.4729H27.4663H27.4597H27.4531H27.4464H27.4398H27.4332H27.4265H27.4199H27.4133H27.4066H27.4H27.3934H27.3867H27.3801H27.3735H27.3668H27.3602H27.3536H27.3469H27.3403H27.3337H27.327H27.3204H27.3138H27.3071H27.3005H27.2938H27.2872H27.2806H27.2739H27.2673H27.2606H27.254H27.2474H27.2407H27.2341H27.2274H27.2208H27.2142H27.2075H27.2009H27.1942H27.1876H27.181H27.1743H27.1677H27.161H27.1544H27.1477H27.1411H27.1344H27.1278H27.1212H27.1145H27.1079H27.1012H27.0946H27.0879H27.0813H27.0746H27.068H27.0613H27.0547H27.048H27.0414H27.0347H27.0281H27.0214H27.0148H27.0081H27.0015H26.9948H26.9882H26.9815H26.9749H26.9682H26.9616H26.9549H26.9483H26.9416H26.935H26.9283H26.9217H26.915H26.9084H26.9017H26.8951H26.8884H26.8818H26.8751H26.8685H26.8618H26.8552H26.8485H26.8419H26.8352H26.8285H26.8219H26.8152H26.8086H26.8019H26.7953H26.7886H26.782H26.7753H26.7687H26.762H26.7553H26.7487H26.742H26.7354H26.7287H26.7221H26.7154H26.7088H26.7021H26.6954H26.6888H26.6821H26.6755H26.6688H26.6622H26.6555H26.6488H26.6422H26.6355H26.6289H26.6222H26.6156H26.6089H26.6023H26.5956H26.5889H26.5823H26.5756H26.569H26.5623H26.5557H26.549H26.5423H26.5357H26.529H26.5224H26.5157H26.5091H26.5024H26.4957H26.4891H26.4824H26.4758H26.4691H26.4625H26.4558H26.4491H26.4425H26.4358H26.4292H26.4225H26.4158H26.4092H26.4025H26.3959H26.3892H26.3826H26.3759H26.3693H26.3626H26.3559H26.3493H26.3426H26.336H26.3293H26.3227H26.316H26.3093H26.3027H26.296H26.2894H26.2827H26.2761H26.2694H26.2628H26.2561H26.2494H26.2428H26.2361H26.2295H26.2228H26.2162H26.2095H26.2029H26.1962H26.1895H26.1829H26.1762H26.1696H26.1629H26.1563H26.1496H26.143H26.1363H26.1297H26.123H26.1164H26.1097H26.1031H26.0964H26.0897H26.0831H26.0764H26.0698H26.0631H26.0565H26.0498H26.0432H26.0365H26.0299H26.0232H26.0166H26.0099H26.0033H25.9966H25.99H25.9833H25.9767H25.97H25.9634H25.9567H25.9501H25.9434H25.9368H25.9302H25.9235H25.9169H25.9102H25.9036H25.8969H25.8903H25.8836H25.877H25.8703H25.8687C25.8675 38.5276 25.866 38.5026 25.8648 38.4815C25.8641 38.4691 25.8634 38.4581 25.863 38.4484C25.8616 38.4195 25.8627 38.4079 25.8629 38.4048L21.3023 38.687L21.3147 38.5878C21.3142 38.5878 21.3138 38.5877 21.3134 38.5877C21.277 38.5835 21.2461 38.5954 21.2266 38.6054C21.2055 38.6163 21.1865 38.6308 21.1703 38.6453C21.1378 38.6745 21.1062 38.713 21.079 38.753C21.0515 38.7934 21.0262 38.839 21.0076 38.8842C20.9899 38.9275 20.9747 38.9792 20.9765 39.0292ZM20.9765 39.0292L21.0765 39.0258L20.9765 39.0295C20.9765 39.0294 20.9765 39.0293 20.9765 39.0292ZM5.73857 38.5679C5.73911 38.5208 5.73992 38.4713 5.74086 38.4195C4.87047 39.3659 3.87385 39.7004 2.60791 39.2993C2.61466 39.2262 2.62077 39.1534 2.62683 39.0812C2.69096 38.3171 2.75055 37.6071 3.52417 37.0239C6.04407 35.1268 8.53577 33.1921 11.0269 31.2578C11.9229 30.5621 12.8188 29.8665 13.716 29.1727M5.73857 38.5679C5.33329 38.9888 4.89649 39.2858 4.4141 39.4412C3.85847 39.6202 3.25175 39.6082 2.57771 39.3947L2.50093 39.3703L2.50833 39.2901C2.51507 39.2171 2.52115 39.1441 2.52722 39.0711C2.59057 38.3092 2.65327 37.5552 3.46398 36.944L3.46403 36.944C5.98327 35.0474 8.47411 33.1134 10.9651 31.1792C11.8612 30.4835 12.7573 29.7877 13.6547 29.0936M5.73857 38.5679C5.77266 38.5324 5.80653 38.4962 5.84019 38.459M5.73857 38.5679C5.73678 38.7231 5.73787 38.8531 5.74643 38.9606C5.75933 39.1226 5.79023 39.2556 5.87342 39.3513C5.95878 39.4496 6.08211 39.4896 6.23022 39.5088C6.37654 39.5277 6.56889 39.5285 6.81237 39.5296L6.81968 39.5296H6.82012C6.95655 39.5296 7.091 39.526 7.22401 39.5223C7.50038 39.5148 7.77049 39.5075 8.03903 39.5335M13.6547 29.0936C13.6547 29.0937 13.6546 29.0937 13.6546 29.0937L13.716 29.1727M13.6547 29.0936C13.6547 29.0936 13.6548 29.0936 13.6548 29.0936L13.716 29.1727M13.6547 29.0936L14.5628 28.5734C14.3106 28.7031 14.0823 28.8836 13.8556 29.0629C13.809 29.0997 13.7626 29.1364 13.716 29.1727M5.84019 38.459L21.7747 35.21M5.84019 38.459C5.82366 39.4253 5.86942 39.4255 6.82012 39.4296C6.95057 39.4296 7.0819 39.4261 7.21341 39.4225C7.49343 39.4149 7.77425 39.4074 8.04904 39.434M5.84019 38.459L8.04904 39.434M8.03903 39.5335C8.69455 39.6025 9.16507 39.349 9.62082 38.9111L9.62087 38.9111C11.0308 37.5545 12.4567 36.2122 13.8826 34.8699C14.5467 34.2448 15.2109 33.6196 15.8734 32.9929L15.8735 32.9928C16.1983 32.6851 16.4743 32.4811 16.9463 32.5248L16.9465 32.5248C18.4136 32.6562 19.8668 32.5159 21.2925 32.1486L21.2935 32.1483C21.4348 32.1103 21.5776 32.0887 21.7495 32.0627C21.7961 32.0557 21.8448 32.0483 21.8963 32.0402M8.03903 39.5335C8.03916 39.5335 8.03928 39.5335 8.03941 39.5335L8.04904 39.434M8.03903 39.5335C8.03886 39.5334 8.0387 39.5334 8.03854 39.5334L8.04904 39.434M21.8963 32.0402C21.8728 32.1004 21.85 32.1591 21.8277 32.2166C21.6882 32.5759 21.5673 32.8871 21.4284 33.1914L21.4283 33.1917C21.2587 33.567 21.2061 33.9189 21.2685 34.2569C21.3308 34.594 21.5058 34.9075 21.7747 35.21M21.8963 32.0402C21.9101 32.0047 21.9242 31.9687 21.9385 31.9322M21.8963 32.0402C21.933 32.0345 21.9712 32.0283 22.0109 32.0216C21.9802 32.1002 21.9505 32.1766 21.9216 32.251C21.7818 32.611 21.6596 32.9258 21.5194 33.2329L21.9385 31.9322M21.7747 35.21C21.7746 35.2099 21.7746 35.2099 21.7745 35.2098L21.8494 35.1436L21.7747 35.21C21.7747 35.21 21.7747 35.21 21.7747 35.21ZM21.9385 31.9322C21.9757 31.9262 22.014 31.9197 22.0535 31.9128L21.9385 31.9322ZM23.5864 37.2931C23.5655 37.267 23.5446 37.2408 23.5238 37.2147C23.4955 37.2338 23.4675 37.2522 23.4399 37.2699C23.4607 37.2961 23.4817 37.3223 23.5026 37.3485C23.5303 37.3306 23.5583 37.3122 23.5864 37.2931ZM24.0297 38.5113C23.8783 38.5409 23.7048 38.5275 23.4963 38.486C23.654 38.3641 23.8018 38.2874 23.9504 38.2486C24.1063 38.2079 24.2697 38.2071 24.4555 38.247C24.3236 38.4041 24.1844 38.481 24.0297 38.5113Z" fill="#FFEB61" stroke="#FFEB61" stroke-width="0.2"/>
<path d="M37.5564 11.94L37.5564 11.94L37.5564 11.9391C37.5416 11.4165 37.1145 11.0533 36.565 11.0864C36.0702 11.111 35.709 11.4889 35.7237 11.9796L35.7237 11.9797C35.7384 12.4609 36.1224 12.8263 36.6066 12.8409L36.6066 12.8409L36.6078 12.8409C37.1497 12.8505 37.5662 12.4623 37.5564 11.94Z" fill="#FFEB61" stroke="#FFEB61" stroke-width="0.2"/>
</svg>
