<svg width="48" height="48" viewBox="0 0 48 48" fill="none" xmlns="http://www.w3.org/2000/svg">
<path d="M20.7704 27.7681C22.9816 27.5926 25.2116 27.5499 27.3991 27.2224C32.464 26.4585 37.8406 21.9553 37.7414 15.3499C37.7131 13.4376 37.7414 11.5253 37.7461 9.613C37.7461 9.33303 37.7272 9.04832 37.7792 8.77784C37.8831 8.22265 38.3036 8.00437 38.8186 8.27485C39.3761 8.56905 39.9006 8.93918 40.4392 9.2666C41.54 9.93567 42.6409 10.6 43.8835 11.1125C43.8173 10.9417 43.7654 10.7613 43.6756 10.6047C42.6692 8.84427 41.592 7.12176 40.6707 5.32333C39.877 3.77165 37.3871 3.05512 35.7334 4.417C34.8546 5.14301 34.6184 6.11578 34.6137 7.1882C34.6042 9.81704 34.5995 12.4459 34.5712 15.0795C34.5664 15.554 34.5617 16.0617 34.3963 16.4888C34.231 16.9064 33.905 17.2955 33.5601 17.5944C33.201 17.9076 32.823 17.8222 32.6199 17.3382C32.6293 17.2528 32.6057 17.1389 32.6435 17.1057C33.4939 16.4366 33.527 15.516 33.5128 14.5338C33.475 12.0236 33.4892 9.51335 33.5081 7.00313C33.527 4.15601 35.5633 2.2864 38.3556 2.57586C39.8911 2.73719 40.9731 3.6198 41.7196 4.94371C42.7543 6.78011 43.7701 8.62125 44.8048 10.4576C45.2347 11.2216 45.7072 11.9571 46.1041 12.7353C46.2269 12.9773 46.1608 13.319 46.1844 13.6132C45.8962 13.599 45.5513 13.6844 45.3339 13.5563C43.4913 12.4649 41.6723 11.3355 39.8486 10.2204C39.584 10.059 39.31 9.91194 38.9273 9.69841C38.8753 10.1018 38.8092 10.4054 38.8092 10.7044C38.795 12.2181 38.7903 13.7318 38.7997 15.2456C38.847 20.8876 36.0405 24.7075 31.2072 27.2035C29.426 28.124 27.4842 28.5226 25.4148 28.6697C25.377 28.9877 25.3108 29.2914 25.3108 29.595C25.3014 30.7102 25.3628 31.83 25.3014 32.9404C25.2258 34.3023 25.5612 35.5408 26.1613 36.7318C27.281 38.9668 28.4291 41.1923 29.5205 43.4463C29.8276 44.0774 30.2197 44.3431 30.9048 44.2957C31.2922 44.2672 31.6938 44.3289 32.0765 44.4286C32.2277 44.4665 32.4451 44.7228 32.4214 44.8414C32.3836 45.0359 32.2136 45.278 32.034 45.3539C31.7931 45.4535 31.4907 45.4345 31.2166 45.4345C28.122 45.4488 25.0273 45.4535 21.9327 45.4535C21.6209 45.4535 21.2949 45.4298 21.0019 45.3301C20.8649 45.2827 20.7137 45.0312 20.7184 44.8794C20.7232 44.7275 20.8933 44.495 21.035 44.4523C21.3327 44.3669 21.6587 44.3621 21.9752 44.3574C22.8351 44.3479 23.695 44.3526 24.5927 44.3526C24.5927 44.1011 24.6305 43.973 24.5879 43.8829C23.7139 42.056 22.9154 40.1816 21.9232 38.4211C20.9736 36.7413 20.4917 34.9903 20.4822 33.078C20.4775 32.1195 20.4775 31.1657 20.4633 30.2072C20.4586 29.856 20.4255 29.5096 20.4019 29.0778C17.912 29.4717 15.9087 30.5963 14.2835 32.3662C12.5353 34.2643 10.8628 36.2336 9.16665 38.1791C7.92406 39.6074 7.93351 39.6169 6.08617 39.6122C4.70657 39.6122 3.32224 39.6122 1.98989 39.6122C1.60719 38.9478 1.94264 38.5113 2.16942 38.0605C4.77271 32.9641 7.37128 27.8678 9.97929 22.7714C11.3164 20.1568 12.6818 17.5517 14.0047 14.9276C14.8788 13.1861 16.1686 11.8765 17.9451 11.122C19.5089 10.4576 21.087 9.74586 22.7312 9.38997C27.2716 8.40297 31.6182 11.8338 32.0529 16.4746C32.5207 21.4713 29.1236 25.1061 25.188 26.2449C23.8934 26.6198 22.5989 26.9804 21.309 27.3743C21.1153 27.4312 20.9641 27.64 20.7893 27.7729C20.3121 27.7302 19.8208 27.7444 19.3672 27.6305C18.6821 27.4597 18.0254 27.0516 17.3403 27.0231C16.6269 26.9947 15.904 27.417 15.1859 27.417C14.4583 27.417 13.7354 27.1323 12.918 26.9567C11.7321 27.7681 10.3714 27.5024 9.04853 27.0848C7.09252 30.9047 5.20266 34.5965 3.27027 38.3642C4.69239 38.3642 5.9397 38.3642 7.22954 38.3642C7.4327 36.9881 7.62168 35.6926 7.81067 34.3972C7.84374 34.1599 7.86264 33.9179 7.92879 33.6949C8.03745 33.32 8.28314 32.9879 8.68946 33.1777C8.88789 33.2726 9.00601 33.6522 9.05798 33.9227C9.09578 34.141 8.96349 34.383 8.93514 34.6202C8.8501 35.294 8.7745 35.9679 8.66583 36.8837C10.1777 35.5171 11.2124 34.2311 11.1321 32.3425C11.1132 31.9487 11.1699 31.5453 11.2077 31.1515C11.2408 30.7956 11.2549 30.4255 11.3683 30.0933C11.4298 29.9177 11.6943 29.6994 11.8644 29.7042C12.0203 29.7042 12.2802 29.9604 12.3038 30.136C12.3652 30.5204 12.2896 30.9237 12.2991 31.3223C12.3085 31.7636 12.1007 32.2334 12.4125 32.6842C15.8284 28.8738 18.0159 28.2949 20.7704 27.7681ZM17.1797 25.3908C18.3041 26.5059 19.6129 26.71 21.0492 26.2734C22.6367 25.7894 24.2525 25.3861 25.7927 24.7787C29.4685 23.3314 31.3773 20.0524 30.919 16.1756C30.5599 13.1292 27.7676 10.5573 24.7344 10.3722C22.7501 10.2489 21.0208 11.0128 19.2633 11.7199C17.1466 12.574 15.5733 13.9786 14.6378 16.0997C14.2693 16.9348 13.8063 17.7225 13.3999 18.5387C13.2535 18.8377 13.1448 19.1556 13.0172 19.4688C13.0739 19.5115 13.1306 19.5542 13.1873 19.5969C13.7354 19.2031 14.2835 18.8045 14.8599 18.3916C15.4127 19.037 15.9182 19.5542 16.7639 19.6159C17.6663 19.6823 18.1577 18.9705 18.805 18.6526C18.942 18.7001 19.0317 18.7048 19.0884 18.7523C20.468 19.8911 20.898 19.9196 22.4051 18.9231C22.802 18.6621 23.1375 18.6384 23.4446 19.0085C23.8698 19.5162 24.4368 19.7298 25.0368 19.5827C25.5045 19.4688 25.9109 19.1176 26.3644 18.9136C26.5818 18.8139 26.8416 18.8139 27.0826 18.7665C27.1204 19.018 27.2668 19.3407 27.1676 19.5115C26.9786 19.8389 26.6857 20.1521 26.3597 20.3419C25.1596 21.0442 24.0021 20.8069 22.8776 19.9955C21.5405 20.973 20.1798 21.0442 18.7955 20.005C17.4348 21.1391 16.0788 20.8117 14.8599 20.005C14.1039 20.3372 13.4755 20.6836 12.7999 20.8829C12.2471 21.0489 11.9259 21.3431 11.6849 21.8461C11.1557 22.9565 10.5746 24.0432 10.0313 25.1488C9.89897 25.4145 9.83283 25.7087 9.73833 25.9934C10.3573 26.43 10.9856 26.411 11.529 26.2592C12.1054 26.1026 12.6251 25.723 13.1684 25.4382C14.6992 26.6625 15.3418 26.672 17.1797 25.3908ZM21.5642 28.8168C21.5642 30.4729 21.5783 31.9771 21.5594 33.4814C21.5405 34.7863 21.9091 35.9821 22.4949 37.1257C23.0713 38.255 23.6383 39.3892 24.1958 40.528C24.6872 41.5245 25.1549 42.5305 25.6463 43.527C25.8164 43.8734 25.9534 44.2815 26.4589 44.2815C27.1156 44.2767 27.7771 44.2815 28.5189 44.2815C28.4433 43.9588 28.4385 43.7974 28.3724 43.6693C27.3377 41.5719 26.3077 39.4746 25.2447 37.3914C24.5265 35.9868 24.0588 34.549 24.1486 32.9404C24.21 31.83 24.1722 30.7149 24.158 29.5998C24.1533 29.3008 24.0919 28.9972 24.0446 28.6175C23.2178 28.684 22.476 28.7457 21.5642 28.8168Z" fill="#FFEB61" stroke="#FFEB61" stroke-width="0.25" stroke-miterlimit="10"/>
</svg>
