<svg width="48" height="48" viewBox="0 0 48 48" fill="none" xmlns="http://www.w3.org/2000/svg">
<mask id="path-1-outside-1_784_3326" maskUnits="userSpaceOnUse" x="3.5" y="6.5" width="41" height="35" fill="black">
<rect fill="white" x="3.5" y="6.5" width="41" height="35"/>
<path d="M21.1062 26.9695C20.5538 28.6385 19.7477 30.0814 18.34 31.2112C18.4791 31.4411 18.5896 31.6512 18.7246 31.8415C20.4924 34.3548 22.2643 36.8641 24.0361 39.3734C24.1262 39.5003 24.2244 39.6232 24.2939 39.7579C24.5354 40.2257 24.4167 40.4556 23.8725 40.4794C23.1113 40.5111 22.3502 40.4715 21.5891 40.4992C21.0735 40.5191 20.8853 40.1504 20.6356 39.8491C18.6346 37.427 16.6377 35.0009 14.6408 32.5788C14.2479 32.1071 13.8469 31.6393 13.4254 31.1438C13.671 30.8386 13.9001 30.6205 14.0433 30.3589C14.3421 29.8238 14.6449 29.2807 14.8454 28.7098C15.0091 28.2539 14.8617 27.806 14.4484 27.469C12.7093 26.0578 12.206 24.27 12.7339 22.169C11.9768 21.6417 11.1584 21.7686 10.6797 22.5931C10.4096 23.0569 10.3073 23.6278 10.1845 24.159C10.0126 24.9082 9.97173 25.6891 9.7303 26.4146C9.50933 27.0726 9.19014 27.7386 8.75639 28.2896C7.84386 29.4432 6.55895 29.7881 5.10627 29.5581C4.8853 29.5225 4.63159 29.356 4.51701 29.1776C4.45154 29.0745 4.58658 28.7574 4.72571 28.6464C6.25614 27.3937 6.80857 25.6891 7.13593 23.8735C7.32007 22.8429 7.54104 21.8241 8.1303 20.9202C9.20651 19.2751 11.2198 18.5893 13.1103 19.2394C13.2577 19.291 13.4295 19.3346 13.5277 19.4376C13.6178 19.5328 13.6832 19.7231 13.6423 19.8301C13.6014 19.9332 13.4132 20.0362 13.2863 20.0442C13.1022 20.0561 12.9139 19.9807 12.7298 19.9371C10.7656 19.4535 9.19015 20.2186 8.45357 22.0381C8.28171 22.4623 8.15895 22.9142 8.07301 23.3661C7.70063 25.3086 7.24642 27.2153 5.71189 28.8446C6.82903 28.8803 7.59424 28.4759 8.11803 27.7822C8.53542 27.2272 8.82595 26.5533 9.03874 25.8913C9.25562 25.2253 9.29245 24.5038 9.43158 23.8101C9.51751 23.3899 9.59935 22.9618 9.77122 22.5693C10.3196 21.3008 11.4326 20.8172 12.7912 21.2096C12.9057 21.2413 13.0203 21.281 13.1226 21.3167C13.5564 20.8608 13.9247 20.389 14.3748 20.0164C16.3676 18.3594 18.6878 17.7608 21.274 18.1057C22.0269 18.2048 22.7717 18.3752 23.5246 18.4545C25.231 18.6329 26.6305 17.8242 27.363 16.2148C27.097 16.0443 26.8147 15.8699 26.5364 15.6836C25.317 14.863 25.3456 14.0424 26.6264 13.2853C27.1625 12.9681 27.719 12.6787 28.3615 12.3259C28.1241 12.0524 27.9236 11.8383 27.7435 11.6084C27.2648 10.994 27.3875 10.4152 28.1159 10.1219C28.607 9.92366 29.1471 9.84041 29.6668 9.70563C30.0228 9.61446 30.3829 9.52725 30.6898 9.44796C30.7267 9.28147 30.7594 9.21803 30.7471 9.1665C30.518 8.07635 30.6939 7.81473 31.852 7.89797C32.6908 7.95744 33.5174 8.19925 34.344 8.3816C34.6059 8.4371 34.8351 8.59962 34.7369 8.90486C34.6346 9.22992 34.3359 9.15064 34.0944 9.10307C33.2965 8.9445 32.5026 8.77405 31.7128 8.60755C31.6065 9.09118 31.6474 9.57877 31.4141 9.78888C31.0704 10.102 30.5507 10.2566 30.0842 10.4033C29.5195 10.5857 28.9262 10.6887 28.21 10.8592C28.4392 11.1169 28.5824 11.3032 28.7502 11.4618C29.4418 12.1198 29.4172 12.5479 28.607 13.0712C28.1855 13.3408 27.7231 13.5509 27.2893 13.8085C26.9988 13.979 26.7287 14.1772 26.4546 14.3596C26.6305 14.9542 27.1134 15.1008 27.5062 15.3347C28.341 15.8303 28.4146 16.0681 27.9809 16.8927C26.9579 18.8311 24.9937 19.4812 22.9354 19.2038C22.2152 19.1047 21.5072 18.9144 20.783 18.8509C18.3441 18.6329 16.2039 19.3068 14.4853 21.0312C12.9098 22.609 12.9344 24.8289 14.5016 26.4027C15.942 27.8536 16.0362 28.8089 14.8986 30.5373C14.7635 30.7434 14.6285 30.9456 14.4812 31.1597C14.6121 31.3301 14.7185 31.4768 14.8372 31.6195C16.83 34.0099 18.8556 36.3725 20.7952 38.8026C21.4172 39.5795 22.0474 39.9641 23.1645 39.635C23.0131 39.3813 22.8822 39.1276 22.7185 38.8977C21.1062 36.6183 19.4858 34.3389 17.8735 32.0635C17.6812 31.79 17.5052 31.5045 17.2556 31.128C18.9456 29.8436 19.9809 28.1905 20.476 26.1291C20.8771 26.149 21.2495 26.1212 21.6055 26.1926C24.3144 26.7357 27.0561 26.9537 29.8182 26.9418C30.2847 26.9378 30.6735 27.033 31.0499 27.3025C33.0632 28.7376 34.6878 30.5413 36.1896 32.448C36.4105 32.7295 36.5087 33.114 36.611 33.4628C37.1226 35.2031 37.6177 36.9473 38.121 38.6876C38.2069 38.981 38.3011 39.2743 38.4075 39.6232C38.8167 39.6232 39.2095 39.6232 39.7046 39.6232C39.6105 39.1395 39.5451 38.6916 39.4387 38.2555C38.9517 36.2893 38.477 34.3191 37.9451 32.3608C37.7691 31.7147 37.4581 31.0962 37.1717 30.4858C36.5742 29.1974 35.9522 27.9209 35.3302 26.6445C35.1502 26.2719 35.0479 25.9349 35.1993 25.5028C36.0791 23.045 36.2018 20.5238 35.7967 17.963C35.7108 17.4199 35.7067 16.8609 35.7353 16.3099C35.764 15.7589 35.9768 15.6202 36.5374 15.6717C37.1062 15.7232 37.6709 15.7946 38.2397 15.8501C38.9108 15.9135 39.5287 16.0404 40.0484 16.5319C40.4208 16.8847 40.9241 17.0155 41.4601 16.9363C42.0044 16.857 42.3931 16.5755 42.61 16.08C42.8351 15.5647 42.6918 15.1009 42.3154 14.7243C41.9839 14.3952 41.5952 14.1257 41.2392 13.8204C40.1711 12.9047 39.0704 12.0207 38.0637 11.0455C37.6095 10.6055 37.3517 9.97915 37.0039 9.44003C36.9098 9.28939 36.8197 9.13479 36.6601 8.86126C36.3737 9.37264 36.1609 9.80869 35.8908 10.2091C35.7108 10.4786 35.4939 10.7918 35.2157 10.9266C33.7916 11.6282 32.7809 12.7263 32.1425 14.09C31.455 15.5647 30.9354 17.1186 30.342 18.6369C30.252 18.8668 30.2111 19.1205 30.0842 19.3227C30.0269 19.4139 29.7937 19.4733 29.675 19.4376C29.5645 19.4059 29.4458 19.2394 29.4172 19.1165C29.3886 18.9778 29.4418 18.8113 29.495 18.6726C30.0965 17.0909 30.6366 15.4854 31.3282 13.9394C32.0198 12.3854 33.1205 11.1288 34.6796 10.2804C34.9333 10.1417 35.1461 9.87608 35.2934 9.62238C35.6167 9.05946 35.8663 8.45692 36.1896 7.89401C36.4965 7.35884 36.8361 7.3747 37.1594 7.9059C37.2085 7.98518 37.2494 8.06843 37.278 8.15564C37.7773 9.67788 38.8167 10.7918 40.0852 11.767C40.9773 12.4528 41.8284 13.198 42.6427 13.9711C42.9906 14.3001 43.322 14.7401 43.4366 15.1801C43.8213 16.6548 42.3931 18.0264 40.8381 17.7013C40.4167 17.6141 39.9952 17.4278 39.6269 17.2058C38.7307 16.6707 37.8346 16.4526 36.5578 16.5835C36.5906 17.2653 36.5619 17.9709 36.6724 18.6527C37.0243 20.8846 36.7788 23.0649 36.1364 25.2055C35.9645 25.7803 35.9972 26.252 36.2755 26.7753C36.7256 27.6197 37.0898 28.5076 37.544 29.348C38.7676 31.6076 39.189 34.105 39.8356 36.5351C40.0729 37.427 40.298 38.3189 40.5108 39.2148C40.5926 39.5637 40.6335 39.9244 40.7154 40.4081C39.7251 40.5349 38.8248 40.4675 37.8264 40.4517C37.5522 39.5518 37.2821 38.6638 36.963 37.6212C36.2714 38.3863 35.6862 39.0246 35.1093 39.6668C34.9619 39.8293 34.8474 40.0235 34.6796 40.1583C34.5241 40.2812 34.2254 40.4675 34.1476 40.412C33.9798 40.2931 33.8366 40.0473 33.8162 39.8412C33.7302 39.0801 33.718 38.311 33.6361 37.5499C33.5952 37.1614 33.7834 36.9117 34.0249 36.658C34.7082 35.9365 35.3875 35.211 36.0382 34.5173C35.9481 33.5342 35.5348 32.781 34.9087 32.0833C33.6566 30.6919 32.4003 29.3084 30.8903 28.1707C30.6121 27.9606 30.2274 27.7624 29.8878 27.7584C27.1543 27.7346 24.4494 27.4651 21.7569 27.0132C21.5891 26.9894 21.4009 26.9894 21.1062 26.9695ZM34.6469 38.9849C35.1911 38.3982 35.5962 37.8869 36.075 37.4548C36.7379 36.8562 36.8075 36.2417 36.2469 35.4211C35.9072 35.7819 35.633 36.1545 35.277 36.432C34.4463 37.0821 34.3809 37.8987 34.6469 38.9849Z"/>
</mask>
<path d="M21.1062 26.9695C20.5538 28.6385 19.7477 30.0814 18.34 31.2112C18.4791 31.4411 18.5896 31.6512 18.7246 31.8415C20.4924 34.3548 22.2643 36.8641 24.0361 39.3734C24.1262 39.5003 24.2244 39.6232 24.2939 39.7579C24.5354 40.2257 24.4167 40.4556 23.8725 40.4794C23.1113 40.5111 22.3502 40.4715 21.5891 40.4992C21.0735 40.5191 20.8853 40.1504 20.6356 39.8491C18.6346 37.427 16.6377 35.0009 14.6408 32.5788C14.2479 32.1071 13.8469 31.6393 13.4254 31.1438C13.671 30.8386 13.9001 30.6205 14.0433 30.3589C14.3421 29.8238 14.6449 29.2807 14.8454 28.7098C15.0091 28.2539 14.8617 27.806 14.4484 27.469C12.7093 26.0578 12.206 24.27 12.7339 22.169C11.9768 21.6417 11.1584 21.7686 10.6797 22.5931C10.4096 23.0569 10.3073 23.6278 10.1845 24.159C10.0126 24.9082 9.97173 25.6891 9.7303 26.4146C9.50933 27.0726 9.19014 27.7386 8.75639 28.2896C7.84386 29.4432 6.55895 29.7881 5.10627 29.5581C4.8853 29.5225 4.63159 29.356 4.51701 29.1776C4.45154 29.0745 4.58658 28.7574 4.72571 28.6464C6.25614 27.3937 6.80857 25.6891 7.13593 23.8735C7.32007 22.8429 7.54104 21.8241 8.1303 20.9202C9.20651 19.2751 11.2198 18.5893 13.1103 19.2394C13.2577 19.291 13.4295 19.3346 13.5277 19.4376C13.6178 19.5328 13.6832 19.7231 13.6423 19.8301C13.6014 19.9332 13.4132 20.0362 13.2863 20.0442C13.1022 20.0561 12.9139 19.9807 12.7298 19.9371C10.7656 19.4535 9.19015 20.2186 8.45357 22.0381C8.28171 22.4623 8.15895 22.9142 8.07301 23.3661C7.70063 25.3086 7.24642 27.2153 5.71189 28.8446C6.82903 28.8803 7.59424 28.4759 8.11803 27.7822C8.53542 27.2272 8.82595 26.5533 9.03874 25.8913C9.25562 25.2253 9.29245 24.5038 9.43158 23.8101C9.51751 23.3899 9.59935 22.9618 9.77122 22.5693C10.3196 21.3008 11.4326 20.8172 12.7912 21.2096C12.9057 21.2413 13.0203 21.281 13.1226 21.3167C13.5564 20.8608 13.9247 20.389 14.3748 20.0164C16.3676 18.3594 18.6878 17.7608 21.274 18.1057C22.0269 18.2048 22.7717 18.3752 23.5246 18.4545C25.231 18.6329 26.6305 17.8242 27.363 16.2148C27.097 16.0443 26.8147 15.8699 26.5364 15.6836C25.317 14.863 25.3456 14.0424 26.6264 13.2853C27.1625 12.9681 27.719 12.6787 28.3615 12.3259C28.1241 12.0524 27.9236 11.8383 27.7435 11.6084C27.2648 10.994 27.3875 10.4152 28.1159 10.1219C28.607 9.92366 29.1471 9.84041 29.6668 9.70563C30.0228 9.61446 30.3829 9.52725 30.6898 9.44796C30.7267 9.28147 30.7594 9.21803 30.7471 9.1665C30.518 8.07635 30.6939 7.81473 31.852 7.89797C32.6908 7.95744 33.5174 8.19925 34.344 8.3816C34.6059 8.4371 34.8351 8.59962 34.7369 8.90486C34.6346 9.22992 34.3359 9.15064 34.0944 9.10307C33.2965 8.9445 32.5026 8.77405 31.7128 8.60755C31.6065 9.09118 31.6474 9.57877 31.4141 9.78888C31.0704 10.102 30.5507 10.2566 30.0842 10.4033C29.5195 10.5857 28.9262 10.6887 28.21 10.8592C28.4392 11.1169 28.5824 11.3032 28.7502 11.4618C29.4418 12.1198 29.4172 12.5479 28.607 13.0712C28.1855 13.3408 27.7231 13.5509 27.2893 13.8085C26.9988 13.979 26.7287 14.1772 26.4546 14.3596C26.6305 14.9542 27.1134 15.1008 27.5062 15.3347C28.341 15.8303 28.4146 16.0681 27.9809 16.8927C26.9579 18.8311 24.9937 19.4812 22.9354 19.2038C22.2152 19.1047 21.5072 18.9144 20.783 18.8509C18.3441 18.6329 16.2039 19.3068 14.4853 21.0312C12.9098 22.609 12.9344 24.8289 14.5016 26.4027C15.942 27.8536 16.0362 28.8089 14.8986 30.5373C14.7635 30.7434 14.6285 30.9456 14.4812 31.1597C14.6121 31.3301 14.7185 31.4768 14.8372 31.6195C16.83 34.0099 18.8556 36.3725 20.7952 38.8026C21.4172 39.5795 22.0474 39.9641 23.1645 39.635C23.0131 39.3813 22.8822 39.1276 22.7185 38.8977C21.1062 36.6183 19.4858 34.3389 17.8735 32.0635C17.6812 31.79 17.5052 31.5045 17.2556 31.128C18.9456 29.8436 19.9809 28.1905 20.476 26.1291C20.8771 26.149 21.2495 26.1212 21.6055 26.1926C24.3144 26.7357 27.0561 26.9537 29.8182 26.9418C30.2847 26.9378 30.6735 27.033 31.0499 27.3025C33.0632 28.7376 34.6878 30.5413 36.1896 32.448C36.4105 32.7295 36.5087 33.114 36.611 33.4628C37.1226 35.2031 37.6177 36.9473 38.121 38.6876C38.2069 38.981 38.3011 39.2743 38.4075 39.6232C38.8167 39.6232 39.2095 39.6232 39.7046 39.6232C39.6105 39.1395 39.5451 38.6916 39.4387 38.2555C38.9517 36.2893 38.477 34.3191 37.9451 32.3608C37.7691 31.7147 37.4581 31.0962 37.1717 30.4858C36.5742 29.1974 35.9522 27.9209 35.3302 26.6445C35.1502 26.2719 35.0479 25.9349 35.1993 25.5028C36.0791 23.045 36.2018 20.5238 35.7967 17.963C35.7108 17.4199 35.7067 16.8609 35.7353 16.3099C35.764 15.7589 35.9768 15.6202 36.5374 15.6717C37.1062 15.7232 37.6709 15.7946 38.2397 15.8501C38.9108 15.9135 39.5287 16.0404 40.0484 16.5319C40.4208 16.8847 40.9241 17.0155 41.4601 16.9363C42.0044 16.857 42.3931 16.5755 42.61 16.08C42.8351 15.5647 42.6918 15.1009 42.3154 14.7243C41.9839 14.3952 41.5952 14.1257 41.2392 13.8204C40.1711 12.9047 39.0704 12.0207 38.0637 11.0455C37.6095 10.6055 37.3517 9.97915 37.0039 9.44003C36.9098 9.28939 36.8197 9.13479 36.6601 8.86126C36.3737 9.37264 36.1609 9.80869 35.8908 10.2091C35.7108 10.4786 35.4939 10.7918 35.2157 10.9266C33.7916 11.6282 32.7809 12.7263 32.1425 14.09C31.455 15.5647 30.9354 17.1186 30.342 18.6369C30.252 18.8668 30.2111 19.1205 30.0842 19.3227C30.0269 19.4139 29.7937 19.4733 29.675 19.4376C29.5645 19.4059 29.4458 19.2394 29.4172 19.1165C29.3886 18.9778 29.4418 18.8113 29.495 18.6726C30.0965 17.0909 30.6366 15.4854 31.3282 13.9394C32.0198 12.3854 33.1205 11.1288 34.6796 10.2804C34.9333 10.1417 35.1461 9.87608 35.2934 9.62238C35.6167 9.05946 35.8663 8.45692 36.1896 7.89401C36.4965 7.35884 36.8361 7.3747 37.1594 7.9059C37.2085 7.98518 37.2494 8.06843 37.278 8.15564C37.7773 9.67788 38.8167 10.7918 40.0852 11.767C40.9773 12.4528 41.8284 13.198 42.6427 13.9711C42.9906 14.3001 43.322 14.7401 43.4366 15.1801C43.8213 16.6548 42.3931 18.0264 40.8381 17.7013C40.4167 17.6141 39.9952 17.4278 39.6269 17.2058C38.7307 16.6707 37.8346 16.4526 36.5578 16.5835C36.5906 17.2653 36.5619 17.9709 36.6724 18.6527C37.0243 20.8846 36.7788 23.0649 36.1364 25.2055C35.9645 25.7803 35.9972 26.252 36.2755 26.7753C36.7256 27.6197 37.0898 28.5076 37.544 29.348C38.7676 31.6076 39.189 34.105 39.8356 36.5351C40.0729 37.427 40.298 38.3189 40.5108 39.2148C40.5926 39.5637 40.6335 39.9244 40.7154 40.4081C39.7251 40.5349 38.8248 40.4675 37.8264 40.4517C37.5522 39.5518 37.2821 38.6638 36.963 37.6212C36.2714 38.3863 35.6862 39.0246 35.1093 39.6668C34.9619 39.8293 34.8474 40.0235 34.6796 40.1583C34.5241 40.2812 34.2254 40.4675 34.1476 40.412C33.9798 40.2931 33.8366 40.0473 33.8162 39.8412C33.7302 39.0801 33.718 38.311 33.6361 37.5499C33.5952 37.1614 33.7834 36.9117 34.0249 36.658C34.7082 35.9365 35.3875 35.211 36.0382 34.5173C35.9481 33.5342 35.5348 32.781 34.9087 32.0833C33.6566 30.6919 32.4003 29.3084 30.8903 28.1707C30.6121 27.9606 30.2274 27.7624 29.8878 27.7584C27.1543 27.7346 24.4494 27.4651 21.7569 27.0132C21.5891 26.9894 21.4009 26.9894 21.1062 26.9695ZM34.6469 38.9849C35.1911 38.3982 35.5962 37.8869 36.075 37.4548C36.7379 36.8562 36.8075 36.2417 36.2469 35.4211C35.9072 35.7819 35.633 36.1545 35.277 36.432C34.4463 37.0821 34.3809 37.8987 34.6469 38.9849Z" fill="#FFEB61"/>
<path d="M21.1062 26.9695C20.5538 28.6385 19.7477 30.0814 18.34 31.2112C18.4791 31.4411 18.5896 31.6512 18.7246 31.8415C20.4924 34.3548 22.2643 36.8641 24.0361 39.3734C24.1262 39.5003 24.2244 39.6232 24.2939 39.7579C24.5354 40.2257 24.4167 40.4556 23.8725 40.4794C23.1113 40.5111 22.3502 40.4715 21.5891 40.4992C21.0735 40.5191 20.8853 40.1504 20.6356 39.8491C18.6346 37.427 16.6377 35.0009 14.6408 32.5788C14.2479 32.1071 13.8469 31.6393 13.4254 31.1438C13.671 30.8386 13.9001 30.6205 14.0433 30.3589C14.3421 29.8238 14.6449 29.2807 14.8454 28.7098C15.0091 28.2539 14.8617 27.806 14.4484 27.469C12.7093 26.0578 12.206 24.27 12.7339 22.169C11.9768 21.6417 11.1584 21.7686 10.6797 22.5931C10.4096 23.0569 10.3073 23.6278 10.1845 24.159C10.0126 24.9082 9.97173 25.6891 9.7303 26.4146C9.50933 27.0726 9.19014 27.7386 8.75639 28.2896C7.84386 29.4432 6.55895 29.7881 5.10627 29.5581C4.8853 29.5225 4.63159 29.356 4.51701 29.1776C4.45154 29.0745 4.58658 28.7574 4.72571 28.6464C6.25614 27.3937 6.80857 25.6891 7.13593 23.8735C7.32007 22.8429 7.54104 21.8241 8.1303 20.9202C9.20651 19.2751 11.2198 18.5893 13.1103 19.2394C13.2577 19.291 13.4295 19.3346 13.5277 19.4376C13.6178 19.5328 13.6832 19.7231 13.6423 19.8301C13.6014 19.9332 13.4132 20.0362 13.2863 20.0442C13.1022 20.0561 12.9139 19.9807 12.7298 19.9371C10.7656 19.4535 9.19015 20.2186 8.45357 22.0381C8.28171 22.4623 8.15895 22.9142 8.07301 23.3661C7.70063 25.3086 7.24642 27.2153 5.71189 28.8446C6.82903 28.8803 7.59424 28.4759 8.11803 27.7822C8.53542 27.2272 8.82595 26.5533 9.03874 25.8913C9.25562 25.2253 9.29245 24.5038 9.43158 23.8101C9.51751 23.3899 9.59935 22.9618 9.77122 22.5693C10.3196 21.3008 11.4326 20.8172 12.7912 21.2096C12.9057 21.2413 13.0203 21.281 13.1226 21.3167C13.5564 20.8608 13.9247 20.389 14.3748 20.0164C16.3676 18.3594 18.6878 17.7608 21.274 18.1057C22.0269 18.2048 22.7717 18.3752 23.5246 18.4545C25.231 18.6329 26.6305 17.8242 27.363 16.2148C27.097 16.0443 26.8147 15.8699 26.5364 15.6836C25.317 14.863 25.3456 14.0424 26.6264 13.2853C27.1625 12.9681 27.719 12.6787 28.3615 12.3259C28.1241 12.0524 27.9236 11.8383 27.7435 11.6084C27.2648 10.994 27.3875 10.4152 28.1159 10.1219C28.607 9.92366 29.1471 9.84041 29.6668 9.70563C30.0228 9.61446 30.3829 9.52725 30.6898 9.44796C30.7267 9.28147 30.7594 9.21803 30.7471 9.1665C30.518 8.07635 30.6939 7.81473 31.852 7.89797C32.6908 7.95744 33.5174 8.19925 34.344 8.3816C34.6059 8.4371 34.8351 8.59962 34.7369 8.90486C34.6346 9.22992 34.3359 9.15064 34.0944 9.10307C33.2965 8.9445 32.5026 8.77405 31.7128 8.60755C31.6065 9.09118 31.6474 9.57877 31.4141 9.78888C31.0704 10.102 30.5507 10.2566 30.0842 10.4033C29.5195 10.5857 28.9262 10.6887 28.21 10.8592C28.4392 11.1169 28.5824 11.3032 28.7502 11.4618C29.4418 12.1198 29.4172 12.5479 28.607 13.0712C28.1855 13.3408 27.7231 13.5509 27.2893 13.8085C26.9988 13.979 26.7287 14.1772 26.4546 14.3596C26.6305 14.9542 27.1134 15.1008 27.5062 15.3347C28.341 15.8303 28.4146 16.0681 27.9809 16.8927C26.9579 18.8311 24.9937 19.4812 22.9354 19.2038C22.2152 19.1047 21.5072 18.9144 20.783 18.8509C18.3441 18.6329 16.2039 19.3068 14.4853 21.0312C12.9098 22.609 12.9344 24.8289 14.5016 26.4027C15.942 27.8536 16.0362 28.8089 14.8986 30.5373C14.7635 30.7434 14.6285 30.9456 14.4812 31.1597C14.6121 31.3301 14.7185 31.4768 14.8372 31.6195C16.83 34.0099 18.8556 36.3725 20.7952 38.8026C21.4172 39.5795 22.0474 39.9641 23.1645 39.635C23.0131 39.3813 22.8822 39.1276 22.7185 38.8977C21.1062 36.6183 19.4858 34.3389 17.8735 32.0635C17.6812 31.79 17.5052 31.5045 17.2556 31.128C18.9456 29.8436 19.9809 28.1905 20.476 26.1291C20.8771 26.149 21.2495 26.1212 21.6055 26.1926C24.3144 26.7357 27.0561 26.9537 29.8182 26.9418C30.2847 26.9378 30.6735 27.033 31.0499 27.3025C33.0632 28.7376 34.6878 30.5413 36.1896 32.448C36.4105 32.7295 36.5087 33.114 36.611 33.4628C37.1226 35.2031 37.6177 36.9473 38.121 38.6876C38.2069 38.981 38.3011 39.2743 38.4075 39.6232C38.8167 39.6232 39.2095 39.6232 39.7046 39.6232C39.6105 39.1395 39.5451 38.6916 39.4387 38.2555C38.9517 36.2893 38.477 34.3191 37.9451 32.3608C37.7691 31.7147 37.4581 31.0962 37.1717 30.4858C36.5742 29.1974 35.9522 27.9209 35.3302 26.6445C35.1502 26.2719 35.0479 25.9349 35.1993 25.5028C36.0791 23.045 36.2018 20.5238 35.7967 17.963C35.7108 17.4199 35.7067 16.8609 35.7353 16.3099C35.764 15.7589 35.9768 15.6202 36.5374 15.6717C37.1062 15.7232 37.6709 15.7946 38.2397 15.8501C38.9108 15.9135 39.5287 16.0404 40.0484 16.5319C40.4208 16.8847 40.9241 17.0155 41.4601 16.9363C42.0044 16.857 42.3931 16.5755 42.61 16.08C42.8351 15.5647 42.6918 15.1009 42.3154 14.7243C41.9839 14.3952 41.5952 14.1257 41.2392 13.8204C40.1711 12.9047 39.0704 12.0207 38.0637 11.0455C37.6095 10.6055 37.3517 9.97915 37.0039 9.44003C36.9098 9.28939 36.8197 9.13479 36.6601 8.86126C36.3737 9.37264 36.1609 9.80869 35.8908 10.2091C35.7108 10.4786 35.4939 10.7918 35.2157 10.9266C33.7916 11.6282 32.7809 12.7263 32.1425 14.09C31.455 15.5647 30.9354 17.1186 30.342 18.6369C30.252 18.8668 30.2111 19.1205 30.0842 19.3227C30.0269 19.4139 29.7937 19.4733 29.675 19.4376C29.5645 19.4059 29.4458 19.2394 29.4172 19.1165C29.3886 18.9778 29.4418 18.8113 29.495 18.6726C30.0965 17.0909 30.6366 15.4854 31.3282 13.9394C32.0198 12.3854 33.1205 11.1288 34.6796 10.2804C34.9333 10.1417 35.1461 9.87608 35.2934 9.62238C35.6167 9.05946 35.8663 8.45692 36.1896 7.89401C36.4965 7.35884 36.8361 7.3747 37.1594 7.9059C37.2085 7.98518 37.2494 8.06843 37.278 8.15564C37.7773 9.67788 38.8167 10.7918 40.0852 11.767C40.9773 12.4528 41.8284 13.198 42.6427 13.9711C42.9906 14.3001 43.322 14.7401 43.4366 15.1801C43.8213 16.6548 42.3931 18.0264 40.8381 17.7013C40.4167 17.6141 39.9952 17.4278 39.6269 17.2058C38.7307 16.6707 37.8346 16.4526 36.5578 16.5835C36.5906 17.2653 36.5619 17.9709 36.6724 18.6527C37.0243 20.8846 36.7788 23.0649 36.1364 25.2055C35.9645 25.7803 35.9972 26.252 36.2755 26.7753C36.7256 27.6197 37.0898 28.5076 37.544 29.348C38.7676 31.6076 39.189 34.105 39.8356 36.5351C40.0729 37.427 40.298 38.3189 40.5108 39.2148C40.5926 39.5637 40.6335 39.9244 40.7154 40.4081C39.7251 40.5349 38.8248 40.4675 37.8264 40.4517C37.5522 39.5518 37.2821 38.6638 36.963 37.6212C36.2714 38.3863 35.6862 39.0246 35.1093 39.6668C34.9619 39.8293 34.8474 40.0235 34.6796 40.1583C34.5241 40.2812 34.2254 40.4675 34.1476 40.412C33.9798 40.2931 33.8366 40.0473 33.8162 39.8412C33.7302 39.0801 33.718 38.311 33.6361 37.5499C33.5952 37.1614 33.7834 36.9117 34.0249 36.658C34.7082 35.9365 35.3875 35.211 36.0382 34.5173C35.9481 33.5342 35.5348 32.781 34.9087 32.0833C33.6566 30.6919 32.4003 29.3084 30.8903 28.1707C30.6121 27.9606 30.2274 27.7624 29.8878 27.7584C27.1543 27.7346 24.4494 27.4651 21.7569 27.0132C21.5891 26.9894 21.4009 26.9894 21.1062 26.9695ZM34.6469 38.9849C35.1911 38.3982 35.5962 37.8869 36.075 37.4548C36.7379 36.8562 36.8075 36.2417 36.2469 35.4211C35.9072 35.7819 35.633 36.1545 35.277 36.432C34.4463 37.0821 34.3809 37.8987 34.6469 38.9849Z" stroke="#FFEB61" stroke-width="0.4" mask="url(#path-1-outside-1_784_3326)"/>
<path d="M14.8568 26.8027L14.8321 26.9024C14.8009 27.0281 14.7787 27.1483 14.7565 27.2688C14.7424 27.3456 14.7282 27.4225 14.7116 27.501C14.6706 27.6958 14.6167 27.8884 14.5139 28.0596C14.5138 28.0596 14.5138 28.0596 14.5138 28.0597L14.4281 28.0081C14.0189 28.6939 13.5892 29.3916 13.0368 29.9823L14.8568 26.8027ZM14.8568 26.8027L14.7565 26.7807C14.3896 26.7001 14.1564 26.7414 13.9896 26.8649C13.909 26.9245 13.8505 26.9988 13.8017 27.0723C13.7774 27.109 13.7548 27.1467 13.7333 27.1827L13.7289 27.19C13.7086 27.2239 13.6893 27.2563 13.6689 27.2879L13.7529 27.3422L13.669 27.2877C13.6404 27.3318 13.6118 27.3759 13.5832 27.42C13.0837 28.1893 12.5868 28.9549 12.0173 29.6743L14.8568 26.8027Z" fill="#FFEB61" stroke="#FFEB61" stroke-width="0.2"/>
<path d="M13.9084 39.6162H13.999L14.0079 39.5259C14.0928 38.6586 14.1758 37.8034 14.2581 36.956C14.4217 35.27 14.5824 33.6153 14.7485 31.9586C14.7696 31.7503 14.7601 31.5444 14.6909 31.3871C14.6556 31.3067 14.6033 31.236 14.529 31.1864C14.4542 31.1365 14.3642 31.1129 14.262 31.1153L14.262 31.1153L14.2615 31.1153C14.1874 31.1174 14.1231 31.1653 14.0781 31.2083C14.0285 31.2556 13.9806 31.3179 13.9384 31.3849C13.8552 31.5167 13.7825 31.6852 13.768 31.8232L13.7679 31.8235C13.5402 34.0586 13.3388 36.2938 13.1372 38.5311C13.1142 38.7858 13.0913 39.0405 13.0683 39.2953C13.0602 39.3621 13.0929 39.4201 13.1133 39.4539C13.1223 39.4688 13.1326 39.4846 13.142 39.4989C13.1448 39.5031 13.1475 39.5072 13.1501 39.5112C13.1621 39.5296 13.1728 39.5466 13.182 39.5637L13.2104 39.6162H13.27H13.271H13.272H13.273H13.274H13.275H13.276H13.277H13.2781H13.2791H13.2801H13.2811H13.2821H13.2831H13.2841H13.2851H13.2861H13.2872H13.2882H13.2892H13.2902H13.2912H13.2922H13.2932H13.2943H13.2953H13.2963H13.2973H13.2983H13.2993H13.3003H13.3014H13.3024H13.3034H13.3044H13.3054H13.3065H13.3075H13.3085H13.3095H13.3105H13.3116H13.3126H13.3136H13.3146H13.3157H13.3167H13.3177H13.3187H13.3197H13.3208H13.3218H13.3228H13.3239H13.3249H13.3259H13.3269H13.328H13.329H13.33H13.3311H13.3321H13.3331H13.3342H13.3352H13.3362H13.3373H13.3383H13.3393H13.3404H13.3414H13.3424H13.3435H13.3445H13.3455H13.3466H13.3476H13.3487H13.3497H13.3507H13.3518H13.3528H13.3539H13.3549H13.356H13.357H13.358H13.3591H13.3601H13.3612H13.3622H13.3633H13.3643H13.3654H13.3664H13.3675H13.3685H13.3696H13.3706H13.3717H13.3727H13.3738H13.3749H13.3759H13.377H13.378H13.3791H13.3801H13.3812H13.3823H13.3833H13.3844H13.3854H13.3865H13.3876H13.3886H13.3897H13.3908H13.3918H13.3929H13.394H13.395H13.3961H13.3972H13.3982H13.3993H13.4004H13.4015H13.4025H13.4036H13.4047H13.4058H13.4068H13.4079H13.409H13.4101H13.4112H13.4122H13.4133H13.4144H13.4155H13.4166H13.4177H13.4187H13.4198H13.4209H13.422H13.4231H13.4242H13.4253H13.4264H13.4275H13.4286H13.4297H13.4307H13.4318H13.4329H13.434H13.4351H13.4362H13.4373H13.4384H13.4395H13.4406H13.4417H13.4429H13.444H13.4451H13.4462H13.4473H13.4484H13.4495H13.4506H13.4517H13.4528H13.454H13.4551H13.4562H13.4573H13.4584H13.4595H13.4607H13.4618H13.4629H13.464H13.4652H13.4663H13.4674H13.4685H13.4697H13.4708H13.4719H13.4731H13.4742H13.4753H13.4765H13.4776H13.4787H13.4799H13.481H13.4821H13.4833H13.4844H13.4856H13.4867H13.4879H13.489H13.4901H13.4913H13.4924H13.4936H13.4947H13.4959H13.4971H13.4982H13.4994H13.5005H13.5017H13.5028H13.504H13.5052H13.5063H13.5075H13.5086H13.5098H13.511H13.5121H13.5133H13.5145H13.5157H13.5168H13.518H13.5192H13.5204H13.5215H13.5227H13.5239H13.5251H13.5263H13.5274H13.5286H13.5298H13.531H13.5322H13.5334H13.5346H13.5358H13.5369H13.5381H13.5393H13.5405H13.5417H13.5429H13.5441H13.5453H13.5465H13.5477H13.5489H13.5502H13.5514H13.5526H13.5538H13.555H13.5562H13.5574H13.5586H13.5599H13.5611H13.5623H13.5635H13.5647H13.566H13.5672H13.5684H13.5696H13.5709H13.5721H13.5733H13.5746H13.5758H13.577H13.5783H13.5795H13.5807H13.582H13.5832H13.5845H13.5857H13.587H13.5882H13.5895H13.5907H13.592H13.5932H13.5945H13.5957H13.597H13.5982H13.5995H13.6008H13.602H13.6033H13.6046H13.6058H13.6071H13.6084H13.6096H13.6109H13.6122H13.6135H13.6147H13.616H13.6173H13.6186H13.6199H13.6212H13.6224H13.6237H13.625H13.6263H13.6276H13.6289H13.6302H13.6315H13.6328H13.6341H13.6354H13.6367H13.638H13.6393H13.6406H13.6419H13.6432H13.6446H13.6459H13.6472H13.6485H13.6498H13.6511H13.6525H13.6538H13.6551H13.6564H13.6578H13.6591H13.6604H13.6618H13.6631H13.6644H13.6658H13.6671H13.6685H13.6698H13.6711H13.6725H13.6738H13.6752H13.6765H13.6779H13.6792H13.6806H13.682H13.6833H13.6847H13.686H13.6874H13.6888H13.6901H13.6915H13.6929H13.6943H13.6956H13.697H13.6984H13.6998H13.7011H13.7025H13.7039H13.7053H13.7067H13.7081H13.7095H13.7109H13.7123H13.7137H13.7151H13.7165H13.7179H13.7193H13.7207H13.7221H13.7235H13.7249H13.7263H13.7277H13.7291H13.7306H13.732H13.7334H13.7348H13.7363H13.7377H13.7391H13.7405H13.742H13.7434H13.7449H13.7463H13.7477H13.7492H13.7506H13.7521H13.7535H13.755H13.7564H13.7579H13.7593H13.7608H13.7622H13.7637H13.7652H13.7666H13.7681H13.7696H13.771H13.7725H13.774H13.7755H13.7769H13.7784H13.7799H13.7814H13.7829H13.7844H13.7858H13.7873H13.7888H13.7903H13.7918H13.7933H13.7948H13.7963H13.7978H13.7993H13.8008H13.8024H13.8039H13.8054H13.8069H13.8084H13.8099H13.8115H13.813H13.8145H13.8161H13.8176H13.8191H13.8207H13.8222H13.8237H13.8253H13.8268H13.8284H13.8299H13.8315H13.833H13.8346H13.8361H13.8377H13.8392H13.8408H13.8424H13.8439H13.8455H13.8471H13.8486H13.8502H13.8518H13.8534H13.855H13.8565H13.8581H13.8597H13.8613H13.8629H13.8645H13.8661H13.8677H13.8693H13.8709H13.8725H13.8741H13.8757H13.8773H13.8789H13.8806H13.8822H13.8838H13.8854H13.887H13.8887H13.8903H13.8919H13.8936H13.8952H13.8968H13.8985H13.9001H13.9018H13.9034H13.905H13.9067H13.9084Z" fill="#FFEB61" stroke="#FFEB61" stroke-width="0.2"/>
<path d="M37.6029 13.1781C37.6754 13.1892 37.7446 13.169 37.8029 13.1414C37.8618 13.1135 37.9185 13.0736 37.9695 13.0333C38.015 12.9973 38.0594 12.9582 38.0988 12.9234C38.1037 12.9191 38.1086 12.9149 38.1133 12.9107C38.1581 12.8713 38.1939 12.8406 38.2228 12.8209L38.2672 12.7905L38.2663 12.7366C38.262 12.4807 38.2089 12.2877 38.0939 12.1577C37.9764 12.0249 37.8115 11.9767 37.6285 11.9724L37.6285 11.9724L37.6273 11.9723C37.4439 11.9702 37.2669 12.0174 37.1425 12.1201C37.0127 12.2274 36.9496 12.3885 36.9925 12.5816L36.9925 12.5816L36.9927 12.5827C37.0231 12.7128 37.1167 12.8505 37.2235 12.9572C37.3295 13.0631 37.4678 13.1575 37.6029 13.1781ZM37.6029 13.1781C37.6029 13.1781 37.6029 13.1781 37.603 13.1781L37.618 13.0792L37.6027 13.1781C37.6028 13.1781 37.6028 13.1781 37.6029 13.1781Z" fill="#FFEB61" stroke="#FFEB61" stroke-width="0.2"/>
</svg>
