<svg width="45" height="37" viewBox="0 0 45 37" fill="none" xmlns="http://www.w3.org/2000/svg">
<path d="M26.0917 36.0295H25.9917H25.982H25.9722H25.9625H25.9527H25.9429H25.9332H25.9234H25.9137H25.9039H25.8942H25.8844H25.8746H25.8649H25.8551H25.8454H25.8356H25.8259H25.8161H25.8063H25.7966H25.7868H25.7771H25.7673H25.7575H25.7478H25.738H25.7283H25.7185H25.7088H25.699H25.6892H25.6795H25.6697H25.66H25.6502H25.6405H25.6307H25.6209H25.6112H25.6014H25.5917H25.5819H25.5722H25.5624H25.5527H25.5429H25.5331H25.5234H25.5136H25.5039H25.4941H25.4844H25.4746H25.4648H25.4551H25.4453H25.4356H25.4258H25.4161H25.4063H25.3965H25.3868H25.377H25.3673H25.3575H25.3478H25.338H25.3282H25.3185H25.3087H25.299H25.2892H25.2795H25.2697H25.2599H25.2502H25.2404H25.2307H25.2209H25.2112H25.2014H25.1916H25.1819H25.1721H25.1624H25.1526H25.1429H25.1331H25.1234H25.1136H25.1038H25.0941H25.0843H25.0746H25.0648H25.0551H25.0453H25.0355H25.0258H25.016H25.0063H24.9965H24.9868H24.977H24.9672H24.9575H24.9477H24.938H24.9282H24.9185H24.9087H24.899H24.8892H24.8794H24.8697H24.8599H24.8502H24.8404H24.8307H24.8209H24.8112H24.8014H24.7916H24.7819H24.7721H24.7624H24.7526H24.7429H24.7331H24.7234H24.7136H24.7038H24.6941H24.6843H24.6746H24.6648H24.6551H24.6453H24.6356H24.6258H24.616H24.6063H24.5965H24.5868H24.577H24.5673H24.5575H24.5478H24.538H24.5282H24.5185H24.5087H24.499H24.4892H24.4795H24.4697H24.46H24.4502H24.4405H24.4307H24.4209H24.4112H24.4014H24.3917H24.3819H24.3722H24.3624H24.3527H24.3429H24.3332H24.3234H24.3136H24.3039H24.2941H24.2844H24.2746H24.2649H24.2551H24.2454H24.2356H24.2259H24.2161H24.2064H24.1966H24.1868H24.1771H24.1673H24.1576H24.1478H24.1381H24.1283H24.1186H24.1088H24.0991H24.0893H24.0796H24.0698H24.06H24.0503H24.0405H24.0308H24.021H24.0113H24.0015H23.9918H23.982H23.9723H23.9625H23.9528H23.943H23.9333H23.9235H23.9138H23.904H23.8942H23.8845H23.8747H23.865H23.8552H23.8455H23.8357H23.826H23.8162H23.8065H23.7967H23.787H23.7772H23.7675H23.7577H23.748H23.7382H23.7285H23.7187H23.709H23.6992H23.6895H23.6797H23.6699H23.6602H23.6504H23.6407H23.6309H23.6212H23.6114H23.6017H23.5919H23.5822H23.5724H23.5627H23.5529H23.5432H23.5334H23.5237H23.5139H23.5042H23.4944H23.4847H23.4749H23.4652H23.4554H23.4457H23.4359H23.4262H23.4164H23.4067H23.3969H23.3872H23.3774H23.3677H23.3579H23.3482H23.3384H23.3287H23.3189H23.3092H23.2994H23.2897H23.2799H23.2702H23.2604H23.2507H23.2409H23.2312H23.2214H23.2117H23.2019H23.1922H23.1824H23.1727H23.1629H23.1532H23.1434H23.1337H23.1239H23.1142H23.1044H23.0947H23.085H23.0752H23.0655H23.0557H23.046H23.0362H23.0265H23.0167H23.007H22.9972H22.9875H22.9777H22.968H22.9582H22.9485H22.9387H22.929H22.9192H22.9095H22.8997H22.89H22.8803H22.8705H22.8608H22.851H22.8413H22.8315H22.8218H22.812H22.8023H22.7925H22.7828H22.773H22.7633H22.7535H22.7438H22.7341H22.7243H22.7146H22.7048H22.6951H22.6853H22.6756H22.6658H22.6561H22.6463H22.6366H22.6269H22.6171H22.6074H22.5976H22.5879H22.5781H22.5684H22.5586H22.5489H22.5391H22.5294H22.5197H22.5099H22.5002H22.4904H22.4807H22.4709H22.4612H22.4515H22.4417H22.432H22.4222H22.4125H22.4027H22.393H22.3832H22.3735H22.3638H22.354H22.3443H22.3345H22.3248H22.315H22.3053H22.2956H22.2858H22.2761H22.2663H22.2566H22.2468H22.2371H22.2274H22.2176H22.2079H22.1981H22.1884H22.1787H22.1689H22.1592H22.1494H22.1397H22.1299H22.1202H22.1105H22.1007H22.091H22.0812H22.0715H22.0618H22.052H22.0423H22.0325H22.0228H22.0131H22.0033H21.9936H21.9838H21.9741H21.9644H21.9546H21.9449H21.9351H21.9254H21.9157H21.9059H21.8962H21.8864H21.8767H21.867H21.8572H21.8475H21.8377H21.828H21.8183H21.8085H21.7988H21.789H21.7793H21.7696H21.7598H21.7501H21.7404H21.7306H21.7209H21.7111H21.7014H21.6917H21.6819H21.6722H21.6625H21.6527H21.643H21.6332H21.6235H21.6138H21.604H21.5943H21.5846H21.5748H21.5651H21.5553H21.5456H21.5359H21.5261H21.5164H21.5067H21.4969H21.4872H21.4775H21.4677H21.458H21.4483H21.4385H21.4288H21.4191H21.4093H21.3996H21.3898H21.3801H21.3704H21.3606H21.3509H21.3412H21.3314H21.3217H21.312H21.3022H21.2925H21.2828H21.273H21.2633H21.2536H21.2438H21.2341H21.2244H21.2146H21.2049H21.1952H21.1854H21.1757H21.166H21.1562H21.1465H21.1368H21.127H21.1173H21.1076H21.0979H21.0881H21.0784H21.0687H21.0589H21.0492H21.0395H21.0297H21.02H21.0103H21.0005C20.9455 36.0295 20.8878 36.0309 20.8284 36.0325C20.6528 36.037 20.4629 36.0418 20.2847 36.0099M26.0917 36.0295L4.76102 35.9385C5.23292 35.9522 5.57777 35.807 5.89993 35.4621L5.97294 35.5304C5.97296 35.5304 5.97298 35.5304 5.973 35.5304C6.54692 34.9172 7.13626 34.3168 7.72656 33.7154C8.02224 33.4142 8.31816 33.1127 8.6125 32.8093C9.45721 31.9397 10.3019 31.0689 11.1466 30.1982L11.1512 30.1934C11.9973 29.3212 12.8435 28.449 13.6896 27.5779C13.7086 27.5586 13.7273 27.5395 13.7457 27.5206C14.0046 27.2554 14.2215 27.0332 14.6144 27.0408L14.615 27.0408C15.3739 27.0512 16.1299 27.0521 16.8857 27.053C17.791 27.0541 18.6961 27.0552 19.6055 27.0725C19.7001 27.0745 19.8249 27.1053 19.9376 27.1575C20.0532 27.211 20.1361 27.2776 20.1683 27.3376L20.1686 27.338C20.2644 27.5138 20.3622 27.6875 20.4595 27.8605C21.1209 29.0361 21.761 30.1739 21.6179 31.6318L21.6179 31.6321C21.5415 32.4317 21.3859 33.0684 20.8673 33.6437C20.4869 34.0653 20.1391 34.5231 19.8237 34.9985L19.907 35.0537L19.8237 34.9985C19.6707 35.2292 19.6233 35.4604 19.7144 35.6544C19.8045 35.8462 20.0128 35.964 20.2847 36.0099M26.0917 36.0295V36.0113M26.0917 36.0295V36.0113M20.2847 36.0099C20.2849 36.0099 20.285 36.0099 20.2852 36.0099L20.3018 35.9113L20.2841 36.0097C20.2843 36.0098 20.2845 36.0098 20.2847 36.0099ZM29.6286 3.49568C29.3407 3.93755 29.066 4.38819 28.7922 4.83725C28.7544 4.89931 28.7166 4.96135 28.6787 5.02332C28.3668 5.5343 28.0537 6.0418 27.7194 6.53418C27.1429 7.38317 26.5571 8.22984 25.8601 8.96736L25.86 8.96746C24.6724 10.2277 23.463 11.4622 22.2528 12.6975C21.3445 13.6247 20.4357 14.5524 19.5353 15.4917L19.5353 15.4917C16.3416 18.8285 13.1546 22.1743 9.96815 25.5195C8.60918 26.9462 7.25031 28.3727 5.89107 29.7984L5.89103 29.7985C5.4299 30.2827 4.96739 30.7659 4.50476 31.2492C3.42516 32.3771 2.345 33.5056 1.28068 34.6493L29.7124 3.55027M29.6286 3.49568L29.7124 3.55027M29.6286 3.49568C29.6286 3.49571 29.6286 3.49574 29.6286 3.49577L29.7124 3.55027M29.6286 3.49568C30.832 1.64476 32.4742 0.534195 34.7926 0.705389M29.7124 3.55027C30.9012 1.72168 32.512 0.637237 34.7853 0.805122M34.7926 0.705389C34.7925 0.705386 34.7925 0.705384 34.7925 0.705381L34.7853 0.805122M34.7926 0.705389C36.1365 0.802398 37.2987 1.33045 38.1444 2.40848M34.7926 0.705389C34.7926 0.705391 34.7926 0.705392 34.7926 0.705394L34.7853 0.805122M34.7853 0.805122L38.1444 2.40848M26.0917 36.0113H26.0986H26.1087H26.1189H26.129H26.1391H26.1493H26.1594H26.1695H26.1797H26.1898H26.1999H26.2101H26.2202H26.2303H26.2405H26.2506H26.2607H26.2708H26.281H26.2911H26.3012H26.3114H26.3215H26.3316H26.3418H26.3519H26.362H26.3722H26.3823H26.3924H26.4026H26.4127H26.4228H26.433H26.4431H26.4532H26.4634H26.4735H26.4836H26.4938H26.5039H26.514H26.5242H26.5343H26.5445H26.5546H26.5647H26.5749H26.585H26.5951H26.6053H26.6154H26.6255H26.6357H26.6458H26.6559H26.6661H26.6762H26.6863H26.6965H26.7066H26.7168H26.7269H26.737H26.7472H26.7573H26.7674H26.7776H26.7877H26.7978H26.808H26.8181H26.8283H26.8384H26.8485H26.8587H26.8688H26.8789H26.8891H26.8992H26.9093H26.9195H26.9296H26.9398H26.9499H26.96H26.9702H26.9803H26.9904H27.0006H27.0107H27.0209H27.031H27.0411H27.0513H27.0614H27.0716H27.0817H27.0918H27.102H27.1121H27.1222H27.1324H27.1425H27.1527H27.1628H27.1729H27.1831H27.1932H27.2034H27.2135H27.2236H27.2338H27.2439H27.254H27.2642H27.2743H27.2845H27.2946H27.3047H27.3149H27.325H27.3352H27.3453H27.3554H27.3656H27.3757H27.3859H27.396H27.4061H27.4163H27.4264H27.4366H27.4467H27.4568H27.467H27.4771H27.4873H27.4974H27.5075H27.5177H27.5278H27.538H27.5481H27.5583H27.5684H27.5785H27.5887H27.5988H27.609H27.6191H27.6292H27.6394H27.6495H27.6597H27.6698H27.6799H27.6901H27.7002H27.7104H27.7205H27.7306H27.7408H27.7509H27.7611H27.7712H27.7814H27.7915H27.8016H27.8118H27.8219H27.8321H27.8422H27.8524H27.8625H27.8726H27.8828H27.8929H27.9031H27.9132H27.9233H27.9335H27.9436H27.9538H27.9639H27.9741H27.9842H27.9943H28.0045H28.0146H28.0248H28.0349H28.045H28.0552H28.0653H28.0755H28.0856H28.0958H28.1059H28.116H28.1262H28.1363H28.1465H28.1566H28.1668H28.1769H28.187H28.1972H28.2073H28.2175H28.2276H28.2378H28.2479H28.258H28.2682H28.2783H28.2885H28.2986H28.3088H28.3189H28.329H28.3392H28.3493H28.3595H28.3696H28.3798H28.3899H28.4H28.4102H28.4203H28.4305H28.4406H28.4508H28.4609H28.471H28.4812H28.4913H28.5015H28.5116H28.5218H28.5319H28.542H28.5522H28.5623H28.5725H28.5826H28.5928H28.6029H28.613H28.6232H28.6333H28.6435H28.6536H28.6638H28.6739H28.684H28.6942H28.7043H28.7145H28.7246H28.7348H28.7449H28.755H28.7652H28.7753H28.7855H28.7956H28.8057H28.8159H28.826H28.8362H28.8463H28.8565H28.8666H28.8767H28.8869H28.897H28.9072H28.9173H28.9275H28.9376H28.9477H28.9579H28.968H28.9782H28.9883H28.9985H29.0086H29.0187H29.0289H29.039H29.0492H29.0593H29.0695H29.0796H29.0897H29.0999H29.11H29.1202H29.1303H29.1405H29.1506H29.1607H29.1709H29.181H29.1912H29.2013H29.2114H29.2216H29.2317H29.2419H29.252H29.2622H29.2723H29.2824H29.2926H29.3027H29.3129H29.323H29.3332H29.3433H29.3534H29.3636H29.3737H29.3839H29.394H29.4041H29.4143H29.4244H29.4346H29.4447H29.4548H29.465H29.4751H29.4853H29.4954H29.5056H29.5157H29.5258H29.536H29.5461H29.5563H29.5664H29.5765H29.5867H29.5968H29.607H29.6171H29.6272H29.6374H29.6475H29.6577H29.6678H29.6779H29.6881H29.6982H29.7084H29.7185H29.7286H29.7388H29.7489H29.7591H29.7692H29.7794H29.7895H29.7996H29.8098H29.8199H29.83H29.8402H29.8503H29.8605H29.8706H29.8807H29.8909H29.901H29.9112H29.9213H29.9314H29.9416H29.9517H29.9619H29.972H29.9821H29.9923H30.0024H30.0126H30.0227H30.0328H30.043H30.0531H30.0632H30.0734H30.0835H30.0937H30.1038H30.1139H30.1241H30.1342H30.1444H30.1545H30.1646H30.1748H30.1849H30.195H30.2052H30.2153H30.2255H30.2356H30.2457H30.2559H30.266H30.2761H30.2863H30.2964H30.3066H30.3167H30.3268H30.337H30.3471H30.3572H30.3674H30.3775H30.3876H30.3978H30.4079H30.4181H30.4282H30.4383H30.4485H30.4586H30.4687H30.4789H30.489H30.4991H30.5093H30.5194H30.5296H30.5397H30.5498H30.56H30.5701H30.5802H30.5904H30.6005H30.6106H30.6208H30.6309H30.641H30.6512H30.6613H30.6714H30.6816H30.6917H30.7018H30.712H30.7221H30.7322H30.7424H30.7525H30.7626H30.7728H30.7829H30.793H30.8032H30.8133H30.8234H30.8336H30.8437H30.8538H30.864H30.8741H30.8842H30.8944H30.9045H30.9146H30.9248H30.9349H30.945H30.9552H30.9653H30.9754H30.9856H30.9957H31.0058H31.0159H31.0261H31.0362H31.0463H31.0565H31.0666H31.0767H31.0869H31.097H31.1071H31.1173H31.1274H31.1375H31.1476H31.1578H31.1679H31.178C31.2333 36.0113 31.2901 36.0138 31.3495 36.0165C31.4081 36.0193 31.4695 36.0223 31.5305 36.0232C31.652 36.025 31.7806 36.0183 31.9027 35.9794L31.9032 35.9792C32.0127 35.9436 32.1261 35.8822 32.2234 35.8065C32.3201 35.7314 32.4075 35.6371 32.4572 35.5322C32.4844 35.4751 32.4779 35.4124 32.466 35.3641C32.4534 35.3129 32.4302 35.2597 32.4032 35.2098C32.3494 35.1102 32.2723 35.0084 32.202 34.9381M26.0917 36.0113L43.609 7.43899M32.202 34.9381C32.2022 34.9383 32.2024 34.9385 32.2026 34.9387L32.1309 35.0084L32.2016 34.9377C32.2017 34.9378 32.2019 34.938 32.202 34.9381ZM32.202 34.9381C32.0607 34.7929 31.8785 34.684 31.7112 34.584C31.6772 34.5637 31.6438 34.5437 31.6115 34.5238L31.6113 34.5238C31.4097 34.4005 31.2082 34.2752 31.0061 34.1496C30.4747 33.8192 29.9395 33.4864 29.3886 33.1829L29.3885 33.1829C29.1225 33.0368 28.9466 32.8779 28.8329 32.683C28.7188 32.4874 28.6618 32.2457 28.6508 31.924C28.6059 30.604 28.8213 29.4024 29.4685 28.2465L29.4685 28.2464C29.8428 27.5762 30.1851 26.8866 30.526 26.1998C30.5914 26.0679 30.6569 25.9361 30.7225 25.8045C31.1301 24.9869 31.5447 24.1783 32.0208 23.4088L32.0209 23.4088C32.2209 23.0849 32.4244 22.7624 32.6282 22.4396C33.5251 21.0185 34.4261 19.5909 35.0507 18.007L35.0508 18.0069C35.6652 16.4457 36.1374 14.8401 36.1603 13.1302L36.1603 13.1298C36.1628 12.8712 36.1583 12.6087 36.1538 12.3477C36.1503 12.1406 36.1467 11.9344 36.1467 11.7317C36.1556 9.40695 38.1618 7.29383 40.4046 7.45239C40.4046 7.4524 40.4046 7.4524 40.4047 7.4524L40.4117 7.35265M40.4117 7.35265C41.2931 7.41695 42.1839 7.38666 43.0736 7.3564C43.2512 7.35036 43.4287 7.34432 43.6061 7.33904M40.4117 7.35265C38.1022 7.1893 36.0558 9.3582 36.0467 11.7313L40.4117 7.35265ZM43.6061 7.33904L43.609 7.43899M43.6061 7.33904C44.3774 7.31635 44.5317 6.9715 44.1007 6.31811L44.1842 6.26309C44.1842 6.26308 44.1841 6.26306 44.1841 6.26304C44.295 6.43108 44.3722 6.58507 44.4102 6.72369C44.4482 6.86268 44.4487 6.99408 44.3946 7.108C44.3401 7.22274 44.2382 7.30286 44.106 7.35488C43.9749 7.40648 43.8079 7.43315 43.609 7.43899M43.6061 7.33904L43.6091 7.43899C43.609 7.43899 43.609 7.43899 43.609 7.43899M38.1444 2.40848C38.1445 2.40853 38.1445 2.40859 38.1445 2.40864L38.0659 2.47036L38.1444 2.40848ZM29.224 15.3683L29.2241 15.3682C29.3442 15.2303 29.4931 15.0638 29.6672 14.9797C29.7572 14.9362 29.8576 14.9127 29.966 14.9277C30.0742 14.9427 30.1808 14.9947 30.2861 15.086C30.2861 15.086 30.2861 15.086 30.2861 15.0861L30.2206 15.1616L29.224 15.3683ZM29.224 15.3683C25.549 19.5993 20.8409 22.3371 15.7744 24.535C14.7259 24.9889 13.6452 25.3699 12.562 25.7518C12.1114 25.9107 11.6603 26.0697 11.2109 26.2342C11.1665 26.2502 11.1159 26.2584 11.0324 26.2674C11.0129 26.2695 10.9917 26.2716 10.9689 26.274C10.9588 26.275 10.9484 26.276 10.9377 26.2771C10.952 26.2594 10.9661 26.2419 10.9798 26.2249C11.1541 26.0086 11.2836 25.8478 11.4262 25.6986L11.4264 25.6983C11.8199 25.2841 12.2134 24.8696 12.607 24.4552C14.6185 22.3367 16.631 20.2174 18.6498 18.1075L18.6498 18.1074C20.1234 16.565 21.6029 15.0276 23.0824 13.4901C24.1405 12.3906 25.1985 11.291 26.2545 10.1897L26.2545 10.1897C27.2788 9.12023 28.3936 8.25932 29.9031 8.05065C32.4022 7.7083 34.6434 9.30757 34.9492 11.8024L35.0485 11.7903L34.9492 11.8025C35.0746 12.8239 34.9942 13.9111 34.796 14.9336C34.2734 17.6009 33.0112 19.9788 31.4371 22.1726M29.224 15.3683L31.5183 22.2309M23.8185 21.5524L23.8183 21.5525C21.4945 23.0623 19.0486 24.3443 16.522 25.4712L16.5219 25.4713C16.33 25.5566 16.1441 25.6554 15.9548 25.7564C16.8687 25.8782 17.758 25.889 18.6504 25.8999C18.805 25.9018 18.9596 25.9036 19.1145 25.9061L19.113 26.0061M23.8185 21.5524L25.6333 25.879C25.5652 25.6839 25.2975 25.4797 25.0888 25.4344L25.1121 25.3371C25.1118 25.337 25.1114 25.337 25.1111 25.3369C25.0424 25.3209 24.9755 25.3515 24.9308 25.3784C24.8804 25.4087 24.8291 25.4521 24.7822 25.4997C24.6894 25.5937 24.5983 25.7194 24.5555 25.8291L24.5552 25.8297C24.4369 26.1396 24.3099 26.4501 24.1823 26.762C23.8157 27.6584 23.4442 28.567 23.2574 29.5076M23.8185 21.5524C26.149 20.0321 28.2475 18.2295 30.1001 16.1538L23.8185 21.5524ZM19.113 26.0061L19.1142 25.9061C19.3457 25.9089 19.5398 25.9078 19.7046 25.9066L19.7335 25.9064C19.885 25.9054 20.0125 25.9045 20.1202 25.9071C20.3464 25.9127 20.5074 25.9334 20.6407 26.0181C20.772 26.1015 20.8628 26.2389 20.9751 26.4318C21.0056 26.4841 21.0381 26.5415 21.0739 26.6046C21.1735 26.7803 21.2985 27.0007 21.4754 27.2824L21.4755 27.2825C22.4438 28.829 22.8626 30.4429 22.7155 32.2577L22.7155 32.2577C22.6603 32.934 22.5254 33.5061 22.0345 34.016L22.0344 34.016C21.9921 34.0599 21.9486 34.1021 21.9057 34.1437C21.694 34.349 21.4954 34.5415 21.5055 34.8721C21.6077 34.8721 21.7098 34.8722 21.8116 34.8723C23.1182 34.8733 24.3964 34.8743 25.6862 34.774C25.5697 34.6397 25.449 34.5486 25.3186 34.4864C25.1235 34.3966 24.9249 34.315 24.7242 34.2325C24.6637 34.2077 24.6031 34.1828 24.5422 34.1575C24.2807 34.0489 24.0182 33.935 23.7661 33.7986L23.7656 33.7983C23.6416 33.7302 23.4997 33.6256 23.3863 33.5086C23.2774 33.3961 23.1756 33.2527 23.1693 33.1069L23.1693 33.1053C23.1633 32.8814 23.1544 32.6553 23.1454 32.4278C23.1069 31.4528 23.0674 30.4538 23.2574 29.5076M19.113 26.0061C20.0359 26.0173 20.3658 25.9661 20.582 26.0993C20.8015 26.2347 20.9037 26.5604 21.3908 27.3356M19.113 26.0061C18.9587 26.0036 18.8044 26.0018 18.65 25.9999C17.7138 25.9885 16.7735 25.9771 15.8043 25.8365L21.3908 27.3356M23.2574 29.5076C23.2574 29.5076 23.2574 29.5076 23.2574 29.5077L23.3555 29.5271L23.2574 29.5075C23.2574 29.5075 23.2574 29.5075 23.2574 29.5076ZM27.7625 29.2512C27.6572 29.462 27.6101 29.7003 27.5869 29.9389C27.5692 30.121 27.565 30.3092 27.561 30.4885C27.5598 30.5431 27.5586 30.5969 27.557 30.6495L27.557 30.6497C27.5514 30.8538 27.5333 31.067 27.5141 31.285L27.5112 31.3183C27.493 31.5246 27.4745 31.7349 27.4663 31.9405C27.4491 32.3717 27.4762 32.8 27.6589 33.1531L27.659 33.1534C27.8403 33.5012 28.1786 33.757 28.5403 33.9801C28.6829 34.0681 28.8324 34.1527 28.9799 34.2363C29.0203 34.2593 29.0607 34.2821 29.1007 34.3049C29.2877 34.4116 29.4687 34.5181 29.6326 34.6322L29.6343 34.6333C29.6866 34.6682 29.7391 34.7032 29.8234 34.7582C28.5757 35.1023 27.7018 34.5615 26.884 34.0203C26.9054 33.8593 26.9253 33.7067 26.9445 33.5599C26.9912 33.2023 27.0334 32.8794 27.0799 32.5541L27.0799 32.554C27.3878 30.3734 26.6623 28.3964 25.9489 26.4522C25.8745 26.2497 25.8003 26.0475 25.7275 25.8455L27.8521 29.2957M27.7625 29.2512C27.7626 29.2511 27.7626 29.2511 27.7626 29.251L27.8521 29.2957M27.7625 29.2512C27.7624 29.2514 27.7624 29.2516 27.7623 29.2518L27.8521 29.2957M27.7625 29.2512C28.0739 28.6151 28.3693 27.9687 28.6653 27.321C29.4722 25.5552 30.2838 23.7792 31.4371 22.1726M27.8521 29.2957C28.1661 28.6542 28.4631 28.0044 28.76 27.3546C29.5656 25.5918 30.3712 23.829 31.5183 22.2309M31.4371 22.1726L31.5183 22.2309M31.4371 22.1726C31.4371 22.1726 31.4371 22.1726 31.4371 22.1726L31.5183 22.2309M21.3908 27.3356C22.3482 28.8647 22.7611 30.4573 22.6159 32.2496C22.5614 32.9166 22.4298 33.4611 21.9625 33.9466L21.3908 27.3356ZM5.70975 34.1406L5.70983 34.1405C7.21001 32.5786 8.72938 31.0332 10.2486 29.4879C10.963 28.7613 11.6773 28.0347 12.3896 27.3065L12.3904 27.3057C12.4142 27.2818 12.4341 27.2467 12.4647 27.1765C12.4719 27.1599 12.4796 27.1416 12.4881 27.1217C12.4932 27.1096 12.4985 27.0968 12.5042 27.0835C12.2784 27.1361 12.0589 27.1894 11.844 27.2417C11.2273 27.3915 10.6477 27.5323 10.062 27.6205M5.70975 34.1406L10.0471 27.5216M5.70975 34.1406C5.20001 34.6725 4.69821 34.963 3.97418 34.8773C3.68162 34.842 3.3775 34.8511 3.08346 34.8599C2.98061 34.863 2.879 34.866 2.77955 34.8671C2.77463 34.8513 2.76967 34.8355 2.76476 34.8199L2.76466 34.8196C2.7582 34.799 2.75182 34.7787 2.74565 34.7588C3.06188 34.4306 3.37981 34.1033 3.6979 33.7758C4.19596 33.263 4.69442 32.7498 5.18735 32.2324C6.46698 30.8892 7.74667 29.5415 9.02184 28.1891M5.70975 34.1406L8.94909 28.1205M10.062 27.6205L10.0471 27.5216M10.062 27.6205C10.0622 27.6205 10.0623 27.6204 10.0625 27.6204L10.0471 27.5216M10.062 27.6205C9.62076 27.6891 9.31343 27.8802 9.02184 28.1891M10.0471 27.5216C9.57979 27.5942 9.2531 27.7984 8.94909 28.1205M9.02184 28.1891L8.94909 28.1205M9.02184 28.1891C9.02184 28.1891 9.02183 28.1892 9.02182 28.1892L8.94909 28.1205M37.8435 6.88035L37.8427 6.88081C36.7945 7.49816 36.0471 8.36684 35.4491 9.56824C34.586 8.39664 33.6044 7.60435 32.4789 7.19183C31.3745 6.78705 30.1407 6.75129 28.7589 7.06974C28.9905 6.70199 29.2108 6.34152 29.4262 5.9888C29.9898 5.06623 30.5211 4.1967 31.1395 3.38872L31.1395 3.38864C32.3695 1.77812 34.5883 1.38257 36.3033 2.30432C37.8009 3.1104 38.2964 4.55422 38.2427 6.15595L38.2427 6.15608C38.2388 6.27691 38.1918 6.42946 38.1153 6.5697C38.0384 6.71077 37.9395 6.82496 37.8435 6.88035ZM12.6789 26.9408C12.6372 26.9502 12.5958 26.9597 12.5547 26.9692L12.6254 27.0555C12.641 27.0204 12.6585 26.9823 12.6789 26.9408ZM24.2745 32.7467C24.0644 30.6935 24.345 29.1216 25.1476 27.7505C26.055 29.4824 26.0668 31.3147 25.8561 33.3865C25.5509 33.263 25.2782 33.1527 25.026 33.0508C24.7569 32.942 24.5113 32.8426 24.2745 32.7467ZM39.3637 6.33479V6.33284V6.32819V6.32354V6.31889V6.31425V6.30961V6.30497V6.30034V6.29571V6.29109V6.28647V6.28185V6.27723V6.27262V6.26801V6.2634V6.2588V6.2542V6.24961V6.24502V6.24043V6.23584V6.23126V6.22668V6.2221V6.21753V6.21296V6.2084V6.20383V6.19927V6.19472V6.19016V6.18561V6.18107V6.17652V6.17198V6.16744V6.16291V6.15838V6.15385V6.14933V6.1448V6.14029V6.13577V6.13126V6.12675V6.12224V6.11774V6.11324V6.10874V6.10425V6.09975V6.09527V6.09078V6.0863V6.08182V6.07734V6.07287V6.0684V6.06393V6.05947V6.05501V6.05055V6.04609V6.04164V6.03719V6.03274V6.0283V6.02386V6.01942V6.01498V6.01055V6.00612V6.00169V5.99727V5.99285V5.98843V5.98401V5.9796V5.97519V5.97078V5.96638V5.96198V5.95758V5.95318V5.94879V5.9444V5.94001V5.93562V5.93124V5.92686V5.92248V5.91811V5.91374V5.90937V5.905V5.90064V5.89628V5.89192V5.88756V5.88321V5.87885V5.87451V5.87016V5.86582V5.86148V5.85714V5.8528V5.84847V5.84414V5.83981V5.83549V5.83116V5.82684V5.82252V5.81821V5.81389V5.80958V5.80528V5.80097V5.79667V5.79237V5.78807V5.78377V5.77948V5.77519V5.7709V5.76661V5.76233V5.75804V5.75377V5.74949V5.74521V5.74094V5.73667V5.7324V5.72814V5.72387V5.71961V5.71535V5.7111V5.70684V5.70259V5.69834V5.69409V5.68985V5.68561V5.68136V5.67713V5.67289V5.66866V5.66442V5.66019V5.65597V5.65174V5.64752V5.64329V5.63908V5.63486V5.63064V5.62643V5.62222V5.61801V5.6138V5.6096V5.6054V5.6012V5.597V5.5928V5.58861V5.58441V5.58022V5.57603V5.57185V5.56766V5.56348V5.5593V5.55512V5.55094V5.54677V5.5426V5.53843V5.53426V5.53009V5.52592V5.52176V5.5176V5.51344V5.50928V5.50513V5.50097V5.49682V5.49267V5.48852V5.48437V5.48023V5.47608V5.47194V5.4678V5.46366V5.45953V5.45539V5.45126V5.44713V5.443V5.43887V5.43475V5.43062V5.4265V5.42238V5.41826V5.41414V5.41003V5.40591V5.4018V5.39769V5.39358V5.38947V5.38537V5.38126V5.37716V5.37306V5.36896V5.36486V5.36076V5.35667V5.35257V5.34848V5.34439V5.3403V5.33621V5.33213V5.32804V5.32396V5.31988V5.3158V5.31172V5.30764V5.30356V5.29949V5.29542V5.29134V5.28727V5.28321V5.27914V5.27507V5.27101V5.26694V5.26288V5.25882V5.25476V5.2507V5.24665V5.24259V5.23854V5.23448V5.23043V5.22638V5.22233V5.21828V5.21424V5.21019V5.20615V5.2021V5.19806V5.19402V5.18998V5.18594V5.18191V5.17787V5.17384V5.1698V5.16577V5.16174V5.15771V5.15368V5.14965V5.14562V5.1416V5.13757V5.13355V5.12953V5.1255V5.12148V5.11747V5.11345V5.10943V5.10541V5.1014V5.09738V5.09337V5.08936V5.08535V5.08133V5.07732V5.07332V5.06931V5.0653V5.0613V5.05729V5.05329V5.04928V5.04528V5.04128V5.03728V5.03328V5.02928V5.02528V5.02129V5.01729V5.01329V5.0093V5.0053V5.00131V4.99732V4.99333V4.98934V4.98535V4.98136V4.97737V4.97338V4.96939V4.96541V4.96142V4.95744V4.95345V4.94947V4.94549V4.9415V4.93752V4.93354V4.92956V4.92558V4.9216V4.91762V4.91364V4.90967V4.90569V4.90171V4.89774V4.89376V4.88979V4.88582V4.88184V4.87787V4.8739V4.86993V4.86595V4.86198V4.85801V4.85404V4.85007V4.8461V4.84213V4.83817V4.8342V4.83023V4.82627V4.8223V4.81833V4.81437V4.8104V4.80644V4.80247V4.79851V4.79454V4.79058V4.78662V4.78265V4.77869V4.77473V4.77077V4.76681V4.76285V4.75888V4.75492V4.75096V4.747V4.74304V4.73908V4.73512V4.73116V4.7272V4.72324V4.71929V4.71533V4.71137V4.70741V4.70345V4.69949V4.69554V4.69158V4.68762V4.68366V4.67971V4.67575V4.67179V4.66783V4.66388V4.65992V4.65596V4.652V4.64805V4.64409V4.64013V4.63618V4.63222V4.62826V4.62431V4.62035V4.61639V4.61243V4.60848V4.60452V4.60056V4.59661V4.59265V4.58869V4.58473V4.58078V4.57682V4.57286V4.5689V4.56494V4.56098V4.55703V4.55307V4.54911V4.54515V4.54119V4.53723V4.53327V4.52931V4.52535V4.52139V4.51743V4.51347V4.50951V4.50554V4.50158V4.49762V4.49366V4.4897V4.48573V4.48177V4.4778V4.47384V4.46988V4.46591V4.46195V4.45798V4.45402V4.45005V4.44608V4.44211V4.43815V4.43418V4.43021V4.42624V4.42227V4.42083C39.4844 4.44443 39.6047 4.46672 39.7242 4.48887C40.2708 4.59022 40.801 4.68853 41.2804 4.89396C41.8581 5.14154 42.3558 5.54366 42.6887 6.30041C41.968 6.34619 41.2709 6.3411 40.5463 6.33582C40.1624 6.33302 39.7707 6.33017 39.3637 6.33479Z" fill="#FFEB61" stroke="#FFEB61" stroke-width="0.2" stroke-miterlimit="10"/>
</svg>
