<svg width="48" height="48" viewBox="0 0 48 48" fill="none" xmlns="http://www.w3.org/2000/svg">
<path d="M1.41357 10.2323C2.28532 10.2323 2.98622 10.2323 3.79664 10.2323C3.30601 9.18656 2.63139 8.31509 2.94241 7.04026C3.19211 7.01536 3.44619 6.97551 3.70465 6.97053C6.21475 6.96555 8.72485 6.96555 11.2306 6.97053C13.0354 6.97551 14.7395 7.47848 16.3252 8.4346C20.3642 10.8648 24.3856 13.3298 28.4158 15.7749C29.0378 16.1533 29.6599 16.7907 30.2951 16.8156C30.9259 16.8405 31.5742 16.2479 32.2094 15.9143C34.4216 14.759 36.6908 13.8576 39.1746 13.9323C40.848 13.9821 42.4601 14.3058 43.932 15.252C45.3031 16.1334 46.2975 17.3535 46.5472 19.201C46.8145 21.178 45.6974 23.5434 44.0941 24.3551C43.9057 24.4497 43.5859 24.4746 43.4589 24.3551C43.3231 24.2256 43.288 23.8721 43.3187 23.638C43.3581 23.3143 43.5071 23.0105 43.6297 22.6321C42.3769 21.6809 41.0714 21.5017 39.6653 21.9698C38.6008 22.3233 37.6545 22.9359 36.8003 23.7177C35.9549 24.4995 35.1182 25.3062 34.3297 26.1578C32.6606 27.9605 31.031 29.808 28.9283 31.1825C29.2788 32.1934 29.6161 33.1794 29.9665 34.2002C31.3421 34.0409 32.5599 34.3197 33.4448 35.5597C33.9748 36.3017 34.3034 37.1483 34.1588 38.2538C33.6507 38.3932 33.1469 38.5277 32.6387 38.6671C32.2094 38.1044 31.9115 37.4221 31.1493 37.4769C31.364 38.1691 31.5786 38.8115 31.7714 39.4689C31.8677 39.7975 31.9072 40.1362 31.5698 40.3503C31.0573 40.674 30.352 40.679 30.0936 40.3652C29.0466 39.0904 27.8551 38.8763 26.5409 39.7278C26.4883 39.7627 26.4401 39.8025 26.3919 39.8374C25.6954 40.3105 25.5903 40.2756 25.2048 39.4091C24.6616 38.1841 24.1184 36.9541 23.5752 35.724C23.2948 35.0966 23.0057 34.4791 22.7034 33.8168C22.1077 33.9462 21.5338 34.0707 20.96 34.1952C20.5876 34.2749 20.4474 34.5389 20.3686 34.9522C20.0356 36.6901 19.6677 38.4132 19.3172 40.1461C19.1376 41.0276 19.107 41.0873 18.3141 41.0076C16.2858 40.8084 14.2576 40.6142 12.2381 40.3603C10.6567 40.1611 9.49146 39.2448 8.82561 37.5566C8.18603 35.9332 7.52018 34.3297 6.8806 32.7063C6.54768 31.8547 6.61777 31.6854 7.43695 31.4563C10.0128 30.7442 12.5929 30.0669 15.1688 29.3548C16.5355 28.9764 17.2364 28.4286 18.0775 27.1538C17.9286 27.0542 17.7971 26.9347 17.6438 26.86C16.2946 26.2026 15.125 25.2515 14.1656 23.9866C13.894 23.633 13.6136 23.4637 13.1843 23.4587C11.7782 23.4538 10.7706 22.662 10.1617 21.2527C9.95143 20.7597 9.70173 20.4908 9.23738 20.3215C8.26488 19.9679 7.55084 19.201 7.17411 18.1204C6.99888 17.6273 6.74042 17.3983 6.32426 17.224C5.36929 16.8206 4.664 16.0687 4.29165 14.9781C4.13395 14.51 3.9193 14.2212 3.49437 14.022C2.50873 13.5638 1.88668 12.6824 1.57566 11.537C1.47928 11.1735 1.47928 10.7751 1.41357 10.2323ZM8.70733 34.8028C9.07092 34.5239 9.33814 34.3247 9.60536 34.1155C10.3106 33.5628 11.0072 33.0001 11.7168 32.4573C11.9884 32.2481 12.2863 32.2033 12.4966 32.5519C12.7025 32.8905 12.4703 33.1246 12.2556 33.3039C11.489 33.9263 10.7049 34.5289 9.9339 35.1464C9.65354 35.3705 9.37756 35.6045 9.08406 35.8485C9.31186 36.3714 9.50022 36.8047 9.7324 37.3325C10.3763 36.6851 10.9239 36.1374 11.4759 35.5896C12.0979 34.9721 12.72 34.3546 13.3464 33.7421C13.5611 33.5279 13.7757 33.5479 13.9685 33.7869C14.1612 34.0209 14.1656 34.2699 13.9772 34.504C13.859 34.6534 13.7232 34.7829 13.5874 34.9173C12.8558 35.6494 12.1198 36.3714 11.3883 37.1084C11.0203 37.4819 10.6567 37.8654 10.1924 38.3534C10.7794 38.7169 11.2525 39.0107 11.7475 39.3195C11.9402 39.0555 12.0717 38.8763 12.1943 38.697C13.0792 37.4371 13.9597 36.1772 14.8446 34.9223C14.9716 34.7381 15.0943 34.5289 15.2608 34.4094C15.3834 34.3247 15.6287 34.2898 15.7207 34.3695C15.8521 34.494 15.9748 34.753 15.9573 34.9372C15.9354 35.1414 15.7645 35.3406 15.6375 35.5149C14.8928 36.5557 14.1349 37.5865 13.3902 38.6273C13.2369 38.8414 13.123 39.0904 12.9522 39.3892C13.7188 39.4639 14.3583 39.5286 15.0154 39.5933C15.2213 39.1701 15.4097 38.7916 15.5937 38.4131C16.0493 37.4719 16.5005 36.5308 16.9648 35.5946C17.1225 35.2759 17.3547 35.0468 17.6832 35.2659C18.0074 35.485 17.9592 35.8186 17.7928 36.1423C17.3547 37.0138 16.9123 37.8903 16.4786 38.7667C16.3384 39.0456 16.2201 39.3394 16.0449 39.7378C16.8816 39.8324 17.5956 39.9121 18.3316 39.9918C18.3885 39.8224 18.4411 39.7029 18.4674 39.5784C19.107 36.5806 19.7465 33.5827 20.3861 30.5898C20.4124 30.4604 20.4124 30.3209 20.4387 30.1915C20.5088 29.8927 20.6051 29.574 20.9424 29.6138C21.2797 29.6586 21.3367 29.9773 21.3016 30.301C21.2578 30.7343 21.179 31.1625 21.1177 31.5908C21.0432 32.0987 20.9731 32.6067 20.8942 33.1794C21.7353 32.9802 22.4494 32.8108 23.1941 32.6316C24.1403 34.753 25.0515 36.7997 25.9802 38.8812C27.6798 37.9799 29.2394 37.9201 30.8251 39.4838C30.5667 38.3833 30.1856 37.6861 29.4409 37.3973C28.867 37.1732 28.245 37.1035 27.636 37.0039C27.3338 36.9541 27.014 36.9939 26.6767 36.9939C26.5234 35.3605 26.4095 33.8616 26.2386 32.3726C26.1642 31.7501 26.3788 31.4314 26.8431 31.2123C28.8626 30.2512 30.5492 28.7473 32.1306 27.0591C33.2914 25.8192 34.4611 24.5842 35.657 23.389C36.5944 22.4578 37.637 21.6959 38.811 21.1929C40.5326 20.4509 42.2192 20.4858 43.8312 21.5564C44.151 21.7706 44.3963 22.1291 44.6855 22.4329C45.8157 21.3822 46.2231 19.196 44.887 17.463C44.1028 16.4472 43.1216 15.7948 41.987 15.4412C40.2523 14.8984 38.4956 14.7938 36.7346 15.2171C34.8597 15.6653 33.1118 16.487 31.3377 17.5875C31.6531 17.8116 31.8721 17.971 32.0955 18.1204C32.8709 18.6333 32.8797 18.6731 32.5424 19.6143C31.7232 21.8951 30.4791 23.8322 28.832 25.4208C26.5672 27.602 23.9475 28.4485 21.0081 27.9605C20.3423 27.8509 19.6808 27.6966 18.9755 27.5521C18.0293 29.2453 16.5968 30.0719 14.9191 30.4952C12.847 31.0181 10.7881 31.5958 8.72485 32.1535C8.42259 32.2332 8.13346 32.3527 7.78301 32.4772C8.11594 33.3038 8.40068 34.0209 8.70733 34.8028ZM31.7801 19.0964C31.4165 18.8524 31.1712 18.6731 30.9171 18.5138C25.875 15.4412 20.8329 12.3786 15.7908 9.30607C13.342 7.81212 10.7049 7.89181 8.04147 8.02128C8.28241 9.57001 8.84313 10.1726 10.0697 10.1576C11.2393 10.1377 12.3564 10.3618 13.4428 10.8448C17.2846 12.543 21.1264 14.251 24.9682 15.9541C25.599 16.233 25.7787 16.4621 25.6122 16.7957C25.3318 17.3485 24.9551 17.0497 24.609 16.9003C20.8198 15.2271 17.0305 13.5539 13.2413 11.8806C12.2425 11.4374 11.2218 11.1635 10.1398 11.1884C9.22424 11.2084 8.30869 11.1885 7.39314 11.1984C7.17411 11.1984 6.95946 11.2482 6.69662 11.2781C7.02955 12.8218 7.99767 13.3348 9.15853 13.5439C9.40823 15.0179 9.68421 16.4123 11.3313 16.497C11.454 16.5019 11.6686 16.8156 11.6599 16.975C11.6511 17.1393 11.4496 17.3634 11.2875 17.4232C11.0729 17.5029 10.8232 17.4531 10.5866 17.4531C9.74116 17.4531 8.90008 17.4531 8.03271 17.4531C8.32183 18.693 9.11035 19.4649 10.1135 19.4998C11.0553 19.5346 12.0016 19.5097 12.9478 19.5197C13.6793 19.5247 13.9247 19.6791 13.8633 20.1073C13.7713 20.7497 13.307 20.5804 12.9478 20.5904C12.3126 20.6053 11.6818 20.5953 11.0773 20.5953C11.0466 20.7547 11.0334 20.7896 11.0378 20.8145C11.0466 20.8792 11.0597 20.9489 11.086 21.0037C11.6029 22.0295 12.3783 22.4926 13.4209 22.4877C17.1094 22.4578 20.7979 22.4528 24.4864 22.4429C24.7536 22.4429 25.0296 22.403 25.2749 22.4877C25.4326 22.5424 25.6429 22.7815 25.6429 22.9408C25.6472 23.1102 25.4632 23.3691 25.3055 23.4388C25.0997 23.5285 24.8412 23.4836 24.6046 23.4836C21.7134 23.4886 18.8222 23.4886 15.9266 23.4936C15.6901 23.4936 15.4535 23.5384 15.2126 23.5583C15.2038 23.643 15.1994 23.7227 15.1907 23.8073C17.7533 26.3271 20.7146 27.6269 24.1228 26.8898C27.9558 26.0532 30.1418 22.9608 31.7801 19.0964ZM33.1031 37.3923C33.0023 35.7191 31.8721 35.0916 29.3883 35.3207C28.9721 34.1604 28.5428 32.9702 28.096 31.7153C27.7368 31.9095 27.4564 32.0589 27.1498 32.2232C27.2724 33.4931 27.3907 34.7032 27.5002 35.8237C28.2975 36.0179 28.9678 36.1274 29.6029 36.3515C30.0322 36.5059 30.4002 36.6204 30.8689 36.4561C31.456 36.2519 32.0298 36.5009 32.5336 36.8943C32.722 37.0487 32.8972 37.213 33.1031 37.3923ZM7.73483 10.078C7.46323 9.38078 7.19601 8.69355 6.93755 8.02625C5.90372 8.02625 4.91808 8.02625 3.9193 8.02625C4.26537 9.93352 5.5927 10.5162 7.73483 10.078ZM8.19917 14.3955C7.17411 14.3955 6.18846 14.3955 5.19406 14.3955C5.42185 16.1035 7.13906 16.8256 9.07092 16.3226C8.78618 15.7002 8.5102 15.0827 8.19917 14.3955ZM6.49949 13.2899C6.15342 12.5131 5.86868 11.8757 5.59708 11.2681C4.56325 11.2681 3.56008 11.2681 2.46931 11.2681C2.89423 12.4135 3.49438 13.1704 4.53697 13.28C5.14587 13.3447 5.76354 13.2899 6.49949 13.2899Z" fill="#FFEB61"/>
<path d="M42.2848 17.6424C41.3298 17.6424 40.6202 17.0448 40.5983 16.3526C40.5939 16.1285 40.7078 15.7998 40.8567 15.7002C41.1064 15.5359 41.3167 15.6903 41.4656 16.0339C41.781 16.7609 41.8774 16.7809 42.5433 16.4124C42.7667 16.2879 43.0295 16.1136 43.1434 16.4323C43.2223 16.6464 43.1522 17.0647 43.0076 17.2191C42.7667 17.4631 42.4118 17.5727 42.2848 17.6424Z" fill="#FFEB61"/>
<path d="M14.963 16.248C15.2433 16.3476 15.4405 16.4174 15.6332 16.4921C18.2835 17.5129 20.9294 18.5338 23.5797 19.5596C23.7724 19.6343 23.9958 19.6791 24.1491 19.8186C24.285 19.948 24.4558 20.2618 24.4032 20.3614C24.3112 20.5456 24.0791 20.705 23.8863 20.7398C23.7023 20.7697 23.4921 20.6353 23.2949 20.5606C20.6184 19.5297 17.9374 18.4989 15.2608 17.4681C15.0944 17.4033 14.8885 17.3685 14.779 17.234C14.6607 17.0896 14.5512 16.8207 14.5862 16.6514C14.6257 16.4821 14.8491 16.3626 14.963 16.248Z" fill="#FFEB61"/>
</svg>
