<svg width="46" height="43" viewBox="0 0 46 43" fill="none" xmlns="http://www.w3.org/2000/svg">
<g clip-path="url(#clip0_267_1391)">
<path d="M31.6521 29.7696C32.0407 29.3648 32.386 28.9771 32.7669 28.6251C32.8645 28.5351 33.0735 28.5181 33.2237 28.5367C36.9431 29.0066 39.3154 31.2801 41.0295 34.4206C42.228 36.6165 42.8458 38.9909 43.1741 41.4552C43.1834 41.5203 43.1927 41.5854 43.2097 41.7203C43.4017 41.7203 43.5968 41.7048 43.7889 41.7234C44.0583 41.7498 44.1326 41.6273 44.1342 41.3776C44.1527 39.4701 44.2425 37.5625 44.1915 35.6581C44.1047 32.4681 43.7331 29.3044 43.0998 26.1748C42.4758 23.0902 41.5993 20.0955 40.0416 17.335C38.8771 15.2708 37.2869 13.7572 34.8744 13.2842C32.5393 12.8267 30.3978 13.3013 28.4545 14.6428C27.1832 15.5205 25.8732 16.2975 24.3356 16.5937C21.4183 17.1551 18.9083 16.3146 16.7776 14.3016C15.3638 12.9648 14.585 11.3286 14.5447 9.34046C14.506 7.42983 13.0024 5.8883 11.0344 5.64016C8.84793 5.36411 6.90152 6.64976 6.30382 8.7651C6.28678 8.82713 6.27749 8.89226 6.25891 8.98531C6.81636 8.98531 7.35987 8.93414 7.89253 8.99307C10.8454 9.31874 12.5998 12.132 11.6212 14.9374C11.0452 16.5875 9.36512 17.8065 7.55187 17.8623C7.08889 17.8763 6.6197 17.8421 6.16136 17.7739C5.90741 17.7367 5.81141 17.791 5.7247 18.022C5.41191 18.8471 4.89317 19.5015 4.10191 19.9249C2.23293 20.9205 -0.131568 19.5062 0.00624493 17.442C0.167284 15.0367 0.074377 12.605 0.59311 10.2337C1.42153 6.43729 3.32149 3.32321 6.71261 1.29627C11.1799 -1.37271 16.9433 0.219994 19.3542 4.77325C20.5016 6.93821 20.675 9.19468 19.6252 11.4698C19.2474 12.2901 18.8262 13.0904 18.4097 13.9278C19.3681 14.6908 20.4846 15.1235 21.697 15.3158C23.3585 15.5795 24.9008 15.2181 26.3362 14.3729C26.8751 14.055 27.3861 13.6921 27.9172 13.3587C31.0497 11.3907 34.2891 11.1797 37.5919 12.8624C39.1187 13.6409 40.1531 14.9715 41.0419 16.3999C42.4742 18.6997 43.3352 21.2323 43.9716 23.847C45.2645 29.1539 45.7229 34.5477 45.5665 39.9989C45.5386 40.9697 45.4782 41.939 45.4302 42.944H41.9849C41.7929 41.7359 41.6566 40.5433 41.4058 39.3739C40.8762 36.9143 39.8434 34.6827 38.2469 32.7208C36.8471 31.001 35.0354 30.0922 32.8506 29.8828C32.4572 29.8456 32.0639 29.8084 31.6521 29.7696ZM17.4078 12.926C17.7361 12.2529 18.0318 11.631 18.34 11.0169C19.2706 9.16056 19.108 7.31972 18.2161 5.5192C16.2805 1.60179 11.2573 0.176571 7.37845 2.47491C4.61135 4.11414 2.96999 6.642 2.11524 9.68629C1.38437 12.2917 1.45095 14.9917 1.37353 17.6669C1.36734 17.8794 1.50051 18.1352 1.64451 18.3058C2.32119 19.1123 3.48253 19.0704 4.15146 18.1632C4.49832 17.6917 4.69342 17.1055 4.94582 16.5658C5.02634 16.3921 5.0697 16.1998 5.12235 16.0354C5.67824 16.1967 6.17839 16.3906 6.69558 16.482C9.10188 16.9039 11.0839 14.7405 10.401 12.4592C9.96127 10.9936 8.44224 10.0678 6.74977 10.2337C6.24498 10.2834 5.96935 10.5589 5.9229 11.0603C5.92135 11.0851 5.90122 11.1084 5.88109 11.1503C5.49088 11.2247 5.08983 11.3023 4.59122 11.3984C4.66865 10.6463 4.69807 9.92822 4.82194 9.22569C5.38558 6.03097 7.71291 4.1374 10.878 4.26922C13.3338 4.37158 15.3205 6.06819 15.7773 8.48905C15.8981 9.12799 15.8795 9.7933 16.008 10.4307C16.1985 11.372 16.6553 12.1878 17.4063 12.9244L17.4078 12.926Z" fill="#FFEB61"/>
<path d="M5.94144 19.3018C6.33475 20.1004 6.67851 20.91 7.11517 21.6668C8.31677 23.7527 9.9504 25.4415 12.0532 26.6139C12.9312 27.104 13.3013 27.7678 13.4592 28.7231C14.1483 32.8638 13.501 36.8448 12.1291 40.7498C12.0547 40.9638 11.9711 41.1747 11.9138 41.3934C11.8906 41.4803 11.8953 41.6431 11.9402 41.6664C12.0176 41.7067 12.1709 41.7005 12.2328 41.6477C12.3892 41.5097 12.5301 41.3469 12.6478 41.1732C15.2693 37.2837 17.8847 33.3895 20.5047 29.5C21.1674 28.5168 21.841 27.5398 22.5099 26.5612C22.5904 26.4434 22.6818 26.3317 22.7856 26.1937C23.1897 26.4527 23.5675 26.693 23.9593 26.9443C23.9175 27.0311 23.8973 27.0947 23.8617 27.1443C20.3421 31.9845 16.9757 36.9301 13.7844 41.9936C13.3276 42.7194 12.8677 43.0869 11.9928 42.983C11.3115 42.9024 10.6131 42.9675 9.86368 42.9675C9.91788 42.814 9.96278 42.6837 10.0092 42.5534C10.785 40.3978 11.5949 38.253 12.03 35.9918C12.5239 33.4314 12.4326 30.8725 11.9944 28.3168C11.9727 28.188 11.8411 28.0361 11.7187 27.9725C8.61872 26.3596 6.54689 23.8054 5.06037 20.7099C4.97056 20.5254 4.9752 20.4029 5.14244 20.2648C5.30503 20.1299 5.44284 19.9624 5.57755 19.798C5.71072 19.6352 5.82686 19.4599 5.94144 19.3033V19.3018Z" fill="#FFEB61"/>
<path d="M36.1348 31.7315C36.5064 32.0463 36.8022 32.2743 37.0623 32.5349C37.1397 32.6124 37.1692 32.8047 37.1335 32.9164C36.1503 36.0397 35.7616 39.2639 35.5231 42.5114C35.4953 42.8913 35.3667 42.9735 35.0261 42.9673C34.0459 42.9503 33.0642 42.9611 32.0685 42.9611C32.1429 38.5955 31.0636 34.8099 26.8533 32.555C27.3643 32.3472 27.8103 32.1378 28.2764 31.9921C28.4157 31.9486 28.6356 32.0386 28.7734 32.1332C30.9382 33.6142 32.2714 35.6877 32.9171 38.197C33.1788 39.2097 33.2779 40.2658 33.425 41.3064C33.4606 41.5607 33.4683 41.7298 33.7982 41.722C34.0924 41.7143 34.2085 41.6445 34.2379 41.3234C34.4686 38.8421 34.769 36.3685 35.4333 33.957C35.63 33.242 35.8793 32.5395 36.1348 31.73V31.7315Z" fill="#FFEB61"/>
<path d="M38.8771 12.7109C41.0976 11.8362 43.8229 12.6876 45.1654 14.8355C46.5435 17.0392 46.1595 20.2619 44.4159 21.8965C44.2394 21.4281 44.0536 20.983 43.9173 20.524C43.8864 20.4201 44.0164 20.2603 44.0877 20.1363C45.5571 17.6068 44.2363 14.392 41.4537 13.7685C41.0713 13.6832 40.6609 13.6925 40.2661 13.7111C40.0292 13.722 39.8743 13.6677 39.7133 13.4956C39.4624 13.2257 39.176 12.9885 38.8771 12.7109Z" fill="#FFEB61"/>
<path d="M21.6056 31.7268C21.9076 31.3329 22.1724 30.97 22.4588 30.6242C22.5084 30.5637 22.6446 30.5358 22.7313 30.5513C24.8016 30.9281 26.7124 30.4489 28.4513 29.3525C29.399 28.7539 30.2352 27.9738 31.1023 27.2526C31.2804 27.1038 31.3965 27.0309 31.6102 27.1565C31.892 27.3224 32.1909 27.4636 32.4882 27.6186C29.7288 31.0879 25.469 32.7597 21.6072 31.7284L21.6056 31.7268Z" fill="#FFEB61"/>
<path d="M14.2799 42.9892C14.9411 41.899 15.5465 40.9003 16.152 39.9031C16.1674 39.9108 16.1845 39.9186 16.2 39.9263C16.1009 40.48 16.0018 41.0336 15.8949 41.6338C16.0776 41.6462 16.2092 41.6431 16.3347 41.6679C16.6475 41.7284 16.7713 41.5919 16.8534 41.2926C17.1956 40.0473 17.5285 38.7958 17.9389 37.5722C18.1247 37.0154 18.4468 36.4959 18.7642 35.995C19.3124 35.1296 19.9054 34.2937 20.5403 33.4702C20.4087 33.9044 20.2708 34.3371 20.1485 34.7729C19.4022 37.414 18.662 40.0566 17.9079 42.6946C17.8738 42.8109 17.7205 42.9768 17.6183 42.9784C16.5437 42.9985 15.4675 42.9908 14.2783 42.9908L14.2799 42.9892Z" fill="#FFEB61"/>
</g>
<defs>
<clipPath id="clip0_267_1391">
<rect width="46" height="43" fill="white"/>
</clipPath>
</defs>
</svg>
