<svg width="50" height="50" viewBox="0 0 50 50" fill="none" xmlns="http://www.w3.org/2000/svg">
<mask id="path-1-outside-1_267_1400" maskUnits="userSpaceOnUse" x="5.50034" y="4.49951" width="39" height="41" fill="black">
<rect fill="white" x="5.50034" y="4.49951" width="39" height="41"/>
<path d="M43.1438 44.4762C42.3309 44.4762 41.5846 44.4762 40.84 44.4762C40.2853 44.4762 39.7305 44.4945 39.1758 44.4779C39.0659 44.4745 38.9109 44.3829 38.8593 44.2879C38.163 42.9786 37.475 41.6658 36.8037 40.3448C36.732 40.2049 36.6987 39.975 36.7653 39.8467C37.6316 38.1242 37.5983 36.3417 37.1601 34.5259C37.1152 34.3376 37.0702 34.1494 37.0202 33.9628C37.0102 33.9261 36.9852 33.8945 36.9536 33.8345C36.5571 34.0161 36.1706 34.2143 35.7692 34.3726C33.6852 35.1922 31.5579 35.3138 29.394 34.7391C27.9497 34.3559 26.5138 33.9378 25.0611 33.5863C24.2066 33.3781 23.327 33.3248 22.4541 33.543C21.7578 33.7162 21.1614 34.0478 20.7133 34.6225C18.9592 36.8731 16.7036 38.4207 14.0249 39.3736C13.8667 39.4302 13.7151 39.5202 13.5535 39.5435C12.8305 39.6451 12.464 40.0733 12.3225 40.7663C12.2591 41.0795 12.1059 41.3726 12.0059 41.6792C11.901 41.9974 11.8643 42.3055 11.8727 42.662C11.8843 43.2318 11.6428 43.8098 11.4879 44.3779C11.4712 44.4379 11.3229 44.4945 11.2347 44.4945C10.0486 44.5028 8.8625 44.4995 7.60812 44.4995C7.85133 43.8581 8.08288 43.2501 8.31444 42.6421C8.86416 41.1961 9.41223 39.7501 9.96529 38.3058C10.0003 38.2158 10.0552 38.0992 10.1319 38.0659C10.7316 37.806 11.3379 37.5628 11.9776 37.2996C11.9093 37.6144 11.8593 37.9393 11.7594 38.2508C11.7327 38.3341 11.5645 38.4057 11.4512 38.424C10.9248 38.509 10.6566 38.8039 10.4784 39.3153C10.0136 40.6397 9.47886 41.9407 8.97244 43.2518C8.92747 43.37 8.88749 43.49 8.82085 43.6749C9.4622 43.6749 10.0602 43.6882 10.6583 43.6599C10.7449 43.6549 10.8482 43.4583 10.8982 43.3317C10.9565 43.1818 10.9648 43.0135 10.9998 42.8236C10.7499 42.7837 10.5383 42.752 10.2985 42.7137C10.3601 42.4371 10.3917 42.1706 10.485 41.9257C10.5183 41.8391 10.7033 41.7508 10.8082 41.7608C11.0897 41.7875 11.1847 41.6575 11.2613 41.4143C11.4562 40.7863 11.6911 40.1715 11.886 39.5452C11.9743 39.2603 12.1225 39.102 12.4191 39.0121C14.3298 38.4324 16.1872 37.7177 17.7314 36.4116C18.4944 35.7669 19.2207 35.0573 19.857 34.2876C20.8682 33.0649 22.1343 32.5168 23.6885 32.5668C25.1344 32.6151 26.5004 33.0549 27.8781 33.438C29.2807 33.8279 30.6784 34.2627 32.1593 34.226C33.6519 34.1894 35.0662 33.8479 36.3872 33.1349C36.6671 32.9833 36.737 32.835 36.6321 32.5235C36.3056 31.5606 36.1173 30.5811 36.3755 29.5615C36.817 27.8224 38.4912 26.2714 40.9516 26.5496C40.9516 26.6945 40.9516 26.8445 40.9516 26.9944C40.9516 31.7822 40.9549 36.5682 40.9433 41.356C40.9433 41.7325 41.0515 41.8807 41.418 41.8141C41.7529 41.7525 41.9228 41.9007 42.0577 42.2056C42.3876 42.9452 42.7574 43.6666 43.1472 44.4712L43.1438 44.4762ZM40.102 27.4275C38.3879 27.3742 36.8103 29.22 37.1168 30.9342C37.3034 31.9837 37.6083 33.0132 37.8898 34.0444C38.4245 36.0002 38.5011 37.9326 37.6899 39.8417C37.6316 39.9783 37.6716 40.1965 37.7432 40.3381C38.2096 41.2577 38.716 42.1573 39.1675 43.0835C39.3807 43.5216 39.6406 43.7232 40.1453 43.6766C40.6751 43.6266 41.2148 43.6649 41.7962 43.6649C41.7279 43.4617 41.6712 43.3351 41.6429 43.2001C41.563 42.8253 41.3447 42.6637 40.9583 42.6954C40.6917 42.717 40.4235 42.6987 40.102 42.6987V27.4259V27.4275Z"/>
<path d="M41.7112 28.7686C41.8811 27.7174 41.9478 26.6362 42.2426 25.6217C42.7124 24.0108 42.3093 22.5848 41.558 21.2071C40.735 19.7012 39.5556 18.5184 38.038 17.7104C36.7653 17.0324 35.8991 15.9896 35.2378 14.7485C35.0895 14.4703 34.9646 14.3903 34.6481 14.4936C33.4803 14.8684 32.3509 14.7668 31.3114 14.0871C30.69 13.6807 30.097 13.2309 29.4156 12.7478C30.2152 12.348 30.9149 11.9981 31.6129 11.65C31.6712 11.6216 31.7278 11.59 31.7861 11.565C32.5807 11.2302 33.2204 10.7504 33.7352 10.0141C34.4598 8.97954 35.4077 8.14993 36.682 7.81009C36.9303 7.74512 37.1918 7.67682 37.4433 7.69181C38.038 7.72846 38.5411 7.51023 39.0575 7.25535C40.1903 6.69728 41.3397 6.17253 42.4842 5.63611C42.5991 5.58281 42.7207 5.54116 42.829 5.49951C42.8657 5.53116 42.9006 5.54782 42.9006 5.56448C42.904 6.56901 42.9223 7.5752 42.8956 8.57973C42.8806 9.15113 42.5092 9.57759 42.176 10.0057C41.7046 10.6104 41.3614 11.2818 41.3731 12.0564C41.3797 12.5462 41.4563 13.0626 41.6346 13.5157C42.7607 16.3827 43.5886 19.3047 43.492 22.4266C43.427 24.5589 42.9073 26.5796 42.0427 28.5187C41.9977 28.6203 41.9378 28.7136 41.8845 28.8102C41.8262 28.7952 41.7679 28.7819 41.7096 28.7669L41.7112 28.7686ZM42.0677 6.70728C41.3081 7.07377 40.6168 7.41028 39.9221 7.74012C39.1375 8.11328 38.3912 8.58639 37.4517 8.51643C37.1618 8.49477 36.8403 8.62304 36.5621 8.74632C35.4527 9.24109 34.6297 10.0624 34.0284 11.1019C33.8351 11.4351 33.5936 11.6416 33.2487 11.7966C32.5008 12.1314 31.7711 12.5062 31.0215 12.8694C31.986 13.8689 33.6386 14.1188 34.9612 13.4741C35.496 13.2142 35.446 13.2209 35.6742 13.7373C36.3389 15.2449 37.3267 16.4194 38.811 17.2273C40.3919 18.0903 41.5946 19.3847 42.4042 21.0139C42.4575 21.1222 42.5258 21.2238 42.5875 21.3287C42.6174 21.3204 42.6491 21.3121 42.6791 21.3037C42.6274 20.799 42.5858 20.2942 42.5225 19.7911C42.2593 17.6771 41.583 15.6831 40.825 13.704C40.2336 12.1564 40.5218 10.7254 41.558 9.42933C41.7695 9.16446 41.9994 8.84794 42.0427 8.52975C42.121 7.96335 42.0644 7.37863 42.0644 6.70728H42.0677Z"/>
<path d="M6.50034 38.2791C6.85849 37.5328 7.14835 36.8881 7.47319 36.2617C9.0574 33.2015 10.9115 30.3245 13.3569 27.8673C15.5242 25.69 18.1762 24.404 21.1464 23.7643C21.946 23.5927 22.7923 23.656 23.6069 23.5444C27.7581 22.978 31.1265 19.8844 31.9927 15.868C32.041 15.6447 32.0827 15.4198 32.1326 15.165C32.4008 15.2249 32.6341 15.2766 32.9239 15.3416C32.8473 15.743 32.8056 16.1278 32.699 16.4927C31.4746 20.684 28.6927 23.2495 24.4664 24.2274C23.382 24.4789 22.2325 24.4423 21.1348 24.6455C18.7159 25.0936 16.6886 26.1848 15.4176 28.4037C14.8928 29.3216 14.7163 30.3262 14.6246 31.364C14.3764 34.1944 12.8589 36.1151 10.2951 37.2296C9.12404 37.7377 7.87965 38.0192 6.50034 38.2758V38.2791ZM7.93629 37.1246C8.51934 36.9431 9.02742 36.8165 9.51384 36.6299C12.1392 35.6237 13.7034 33.8045 13.8567 30.9109C13.9133 29.8514 14.1915 28.8519 14.7646 27.9473C14.8012 27.8907 14.8129 27.819 14.8345 27.7524C11.8693 30.3528 9.7937 33.593 7.93629 37.1246Z"/>
<path d="M23.3303 44.4779C22.9122 44.4779 22.5657 44.4779 22.2209 44.4779C21.293 44.4762 20.3635 44.4828 19.4356 44.4612C19.289 44.4579 19.0841 44.3596 19.0125 44.2413C18.2628 42.9936 17.5432 41.7258 16.7936 40.4781C16.5903 40.1399 16.587 39.9033 16.8652 39.5968C17.3233 39.0921 17.7381 38.5456 18.1512 38.0026C18.2828 37.8293 18.3844 37.776 18.5943 37.8743C18.7626 37.9526 18.9625 37.9642 19.214 38.0209C19.0758 38.2125 18.9625 38.3907 18.8309 38.5523C18.4644 39.0021 18.0779 39.4369 17.7264 39.8967C17.6515 39.995 17.6248 40.2165 17.6831 40.3198C18.2795 41.3593 18.8942 42.3888 19.5139 43.415C19.5722 43.5116 19.6971 43.6316 19.7937 43.6333C20.5001 43.6516 21.2064 43.6432 21.9777 43.6432C21.8694 43.3567 21.8061 43.1102 21.6828 42.8969C21.6328 42.8103 21.4463 42.7387 21.3396 42.757C20.7083 42.8686 20.3935 42.5837 20.1786 42.0073C19.9503 41.3943 19.6272 40.8162 19.3256 40.2332C19.2074 40.005 19.2457 39.88 19.4406 39.7168C20.3202 38.9838 21.2264 38.2741 22.0443 37.4745C22.8889 36.6465 23.5069 35.642 23.8601 34.4975C23.9234 34.2943 24.0183 34.226 24.2182 34.2577C24.3948 34.286 24.5747 34.2993 24.8179 34.3276C24.0616 36.8981 22.3525 38.6739 20.2635 40.1516C20.4967 40.668 20.7266 41.1428 20.9265 41.6309C21.0231 41.8657 21.1981 41.8674 21.3663 41.8158C21.8877 41.6575 22.1176 41.9041 22.3108 42.3572C22.6057 43.0535 22.9655 43.7232 23.3337 44.4779H23.3303Z"/>
<path d="M37.3434 9.24608C37.6149 9.24109 37.8848 9.51096 37.8881 9.79249C37.8914 10.0374 37.6416 10.2889 37.3917 10.2923C37.1335 10.2973 36.8453 10.0041 36.8453 9.73919C36.8453 9.48431 37.0802 9.25108 37.3434 9.24608Z"/>
</mask>
<path d="M43.1438 44.4762C42.3309 44.4762 41.5846 44.4762 40.84 44.4762C40.2853 44.4762 39.7305 44.4945 39.1758 44.4779C39.0659 44.4745 38.9109 44.3829 38.8593 44.2879C38.163 42.9786 37.475 41.6658 36.8037 40.3448C36.732 40.2049 36.6987 39.975 36.7653 39.8467C37.6316 38.1242 37.5983 36.3417 37.1601 34.5259C37.1152 34.3376 37.0702 34.1494 37.0202 33.9628C37.0102 33.9261 36.9852 33.8945 36.9536 33.8345C36.5571 34.0161 36.1706 34.2143 35.7692 34.3726C33.6852 35.1922 31.5579 35.3138 29.394 34.7391C27.9497 34.3559 26.5138 33.9378 25.0611 33.5863C24.2066 33.3781 23.327 33.3248 22.4541 33.543C21.7578 33.7162 21.1614 34.0478 20.7133 34.6225C18.9592 36.8731 16.7036 38.4207 14.0249 39.3736C13.8667 39.4302 13.7151 39.5202 13.5535 39.5435C12.8305 39.6451 12.464 40.0733 12.3225 40.7663C12.2591 41.0795 12.1059 41.3726 12.0059 41.6792C11.901 41.9974 11.8643 42.3055 11.8727 42.662C11.8843 43.2318 11.6428 43.8098 11.4879 44.3779C11.4712 44.4379 11.3229 44.4945 11.2347 44.4945C10.0486 44.5028 8.8625 44.4995 7.60812 44.4995C7.85133 43.8581 8.08288 43.2501 8.31444 42.6421C8.86416 41.1961 9.41223 39.7501 9.96529 38.3058C10.0003 38.2158 10.0552 38.0992 10.1319 38.0659C10.7316 37.806 11.3379 37.5628 11.9776 37.2996C11.9093 37.6144 11.8593 37.9393 11.7594 38.2508C11.7327 38.3341 11.5645 38.4057 11.4512 38.424C10.9248 38.509 10.6566 38.8039 10.4784 39.3153C10.0136 40.6397 9.47886 41.9407 8.97244 43.2518C8.92747 43.37 8.88749 43.49 8.82085 43.6749C9.4622 43.6749 10.0602 43.6882 10.6583 43.6599C10.7449 43.6549 10.8482 43.4583 10.8982 43.3317C10.9565 43.1818 10.9648 43.0135 10.9998 42.8236C10.7499 42.7837 10.5383 42.752 10.2985 42.7137C10.3601 42.4371 10.3917 42.1706 10.485 41.9257C10.5183 41.8391 10.7033 41.7508 10.8082 41.7608C11.0897 41.7875 11.1847 41.6575 11.2613 41.4143C11.4562 40.7863 11.6911 40.1715 11.886 39.5452C11.9743 39.2603 12.1225 39.102 12.4191 39.0121C14.3298 38.4324 16.1872 37.7177 17.7314 36.4116C18.4944 35.7669 19.2207 35.0573 19.857 34.2876C20.8682 33.0649 22.1343 32.5168 23.6885 32.5668C25.1344 32.6151 26.5004 33.0549 27.8781 33.438C29.2807 33.8279 30.6784 34.2627 32.1593 34.226C33.6519 34.1894 35.0662 33.8479 36.3872 33.1349C36.6671 32.9833 36.737 32.835 36.6321 32.5235C36.3056 31.5606 36.1173 30.5811 36.3755 29.5615C36.817 27.8224 38.4912 26.2714 40.9516 26.5496C40.9516 26.6945 40.9516 26.8445 40.9516 26.9944C40.9516 31.7822 40.9549 36.5682 40.9433 41.356C40.9433 41.7325 41.0515 41.8807 41.418 41.8141C41.7529 41.7525 41.9228 41.9007 42.0577 42.2056C42.3876 42.9452 42.7574 43.6666 43.1472 44.4712L43.1438 44.4762ZM40.102 27.4275C38.3879 27.3742 36.8103 29.22 37.1168 30.9342C37.3034 31.9837 37.6083 33.0132 37.8898 34.0444C38.4245 36.0002 38.5011 37.9326 37.6899 39.8417C37.6316 39.9783 37.6716 40.1965 37.7432 40.3381C38.2096 41.2577 38.716 42.1573 39.1675 43.0835C39.3807 43.5216 39.6406 43.7232 40.1453 43.6766C40.6751 43.6266 41.2148 43.6649 41.7962 43.6649C41.7279 43.4617 41.6712 43.3351 41.6429 43.2001C41.563 42.8253 41.3447 42.6637 40.9583 42.6954C40.6917 42.717 40.4235 42.6987 40.102 42.6987V27.4259V27.4275Z" fill="#FFEB61"/>
<path d="M41.7112 28.7686C41.8811 27.7174 41.9478 26.6362 42.2426 25.6217C42.7124 24.0108 42.3093 22.5848 41.558 21.2071C40.735 19.7012 39.5556 18.5184 38.038 17.7104C36.7653 17.0324 35.8991 15.9896 35.2378 14.7485C35.0895 14.4703 34.9646 14.3903 34.6481 14.4936C33.4803 14.8684 32.3509 14.7668 31.3114 14.0871C30.69 13.6807 30.097 13.2309 29.4156 12.7478C30.2152 12.348 30.9149 11.9981 31.6129 11.65C31.6712 11.6216 31.7278 11.59 31.7861 11.565C32.5807 11.2302 33.2204 10.7504 33.7352 10.0141C34.4598 8.97954 35.4077 8.14993 36.682 7.81009C36.9303 7.74512 37.1918 7.67682 37.4433 7.69181C38.038 7.72846 38.5411 7.51023 39.0575 7.25535C40.1903 6.69728 41.3397 6.17253 42.4842 5.63611C42.5991 5.58281 42.7207 5.54116 42.829 5.49951C42.8657 5.53116 42.9006 5.54782 42.9006 5.56448C42.904 6.56901 42.9223 7.5752 42.8956 8.57973C42.8806 9.15113 42.5092 9.57759 42.176 10.0057C41.7046 10.6104 41.3614 11.2818 41.3731 12.0564C41.3797 12.5462 41.4563 13.0626 41.6346 13.5157C42.7607 16.3827 43.5886 19.3047 43.492 22.4266C43.427 24.5589 42.9073 26.5796 42.0427 28.5187C41.9977 28.6203 41.9378 28.7136 41.8845 28.8102C41.8262 28.7952 41.7679 28.7819 41.7096 28.7669L41.7112 28.7686ZM42.0677 6.70728C41.3081 7.07377 40.6168 7.41028 39.9221 7.74012C39.1375 8.11328 38.3912 8.58639 37.4517 8.51643C37.1618 8.49477 36.8403 8.62304 36.5621 8.74632C35.4527 9.24109 34.6297 10.0624 34.0284 11.1019C33.8351 11.4351 33.5936 11.6416 33.2487 11.7966C32.5008 12.1314 31.7711 12.5062 31.0215 12.8694C31.986 13.8689 33.6386 14.1188 34.9612 13.4741C35.496 13.2142 35.446 13.2209 35.6742 13.7373C36.3389 15.2449 37.3267 16.4194 38.811 17.2273C40.3919 18.0903 41.5946 19.3847 42.4042 21.0139C42.4575 21.1222 42.5258 21.2238 42.5875 21.3287C42.6174 21.3204 42.6491 21.3121 42.6791 21.3037C42.6274 20.799 42.5858 20.2942 42.5225 19.7911C42.2593 17.6771 41.583 15.6831 40.825 13.704C40.2336 12.1564 40.5218 10.7254 41.558 9.42933C41.7695 9.16446 41.9994 8.84794 42.0427 8.52975C42.121 7.96335 42.0644 7.37863 42.0644 6.70728H42.0677Z" fill="#FFEB61"/>
<path d="M6.50034 38.2791C6.85849 37.5328 7.14835 36.8881 7.47319 36.2617C9.0574 33.2015 10.9115 30.3245 13.3569 27.8673C15.5242 25.69 18.1762 24.404 21.1464 23.7643C21.946 23.5927 22.7923 23.656 23.6069 23.5444C27.7581 22.978 31.1265 19.8844 31.9927 15.868C32.041 15.6447 32.0827 15.4198 32.1326 15.165C32.4008 15.2249 32.6341 15.2766 32.9239 15.3416C32.8473 15.743 32.8056 16.1278 32.699 16.4927C31.4746 20.684 28.6927 23.2495 24.4664 24.2274C23.382 24.4789 22.2325 24.4423 21.1348 24.6455C18.7159 25.0936 16.6886 26.1848 15.4176 28.4037C14.8928 29.3216 14.7163 30.3262 14.6246 31.364C14.3764 34.1944 12.8589 36.1151 10.2951 37.2296C9.12404 37.7377 7.87965 38.0192 6.50034 38.2758V38.2791ZM7.93629 37.1246C8.51934 36.9431 9.02742 36.8165 9.51384 36.6299C12.1392 35.6237 13.7034 33.8045 13.8567 30.9109C13.9133 29.8514 14.1915 28.8519 14.7646 27.9473C14.8012 27.8907 14.8129 27.819 14.8345 27.7524C11.8693 30.3528 9.7937 33.593 7.93629 37.1246Z" fill="#FFEB61"/>
<path d="M23.3303 44.4779C22.9122 44.4779 22.5657 44.4779 22.2209 44.4779C21.293 44.4762 20.3635 44.4828 19.4356 44.4612C19.289 44.4579 19.0841 44.3596 19.0125 44.2413C18.2628 42.9936 17.5432 41.7258 16.7936 40.4781C16.5903 40.1399 16.587 39.9033 16.8652 39.5968C17.3233 39.0921 17.7381 38.5456 18.1512 38.0026C18.2828 37.8293 18.3844 37.776 18.5943 37.8743C18.7626 37.9526 18.9625 37.9642 19.214 38.0209C19.0758 38.2125 18.9625 38.3907 18.8309 38.5523C18.4644 39.0021 18.0779 39.4369 17.7264 39.8967C17.6515 39.995 17.6248 40.2165 17.6831 40.3198C18.2795 41.3593 18.8942 42.3888 19.5139 43.415C19.5722 43.5116 19.6971 43.6316 19.7937 43.6333C20.5001 43.6516 21.2064 43.6432 21.9777 43.6432C21.8694 43.3567 21.8061 43.1102 21.6828 42.8969C21.6328 42.8103 21.4463 42.7387 21.3396 42.757C20.7083 42.8686 20.3935 42.5837 20.1786 42.0073C19.9503 41.3943 19.6272 40.8162 19.3256 40.2332C19.2074 40.005 19.2457 39.88 19.4406 39.7168C20.3202 38.9838 21.2264 38.2741 22.0443 37.4745C22.8889 36.6465 23.5069 35.642 23.8601 34.4975C23.9234 34.2943 24.0183 34.226 24.2182 34.2577C24.3948 34.286 24.5747 34.2993 24.8179 34.3276C24.0616 36.8981 22.3525 38.6739 20.2635 40.1516C20.4967 40.668 20.7266 41.1428 20.9265 41.6309C21.0231 41.8657 21.1981 41.8674 21.3663 41.8158C21.8877 41.6575 22.1176 41.9041 22.3108 42.3572C22.6057 43.0535 22.9655 43.7232 23.3337 44.4779H23.3303Z" fill="#FFEB61"/>
<path d="M37.3434 9.24608C37.6149 9.24109 37.8848 9.51096 37.8881 9.79249C37.8914 10.0374 37.6416 10.2889 37.3917 10.2923C37.1335 10.2973 36.8453 10.0041 36.8453 9.73919C36.8453 9.48431 37.0802 9.25108 37.3434 9.24608Z" fill="#FFEB61"/>
<path d="M43.1438 44.4762C42.3309 44.4762 41.5846 44.4762 40.84 44.4762C40.2853 44.4762 39.7305 44.4945 39.1758 44.4779C39.0659 44.4745 38.9109 44.3829 38.8593 44.2879C38.163 42.9786 37.475 41.6658 36.8037 40.3448C36.732 40.2049 36.6987 39.975 36.7653 39.8467C37.6316 38.1242 37.5983 36.3417 37.1601 34.5259C37.1152 34.3376 37.0702 34.1494 37.0202 33.9628C37.0102 33.9261 36.9852 33.8945 36.9536 33.8345C36.5571 34.0161 36.1706 34.2143 35.7692 34.3726C33.6852 35.1922 31.5579 35.3138 29.394 34.7391C27.9497 34.3559 26.5138 33.9378 25.0611 33.5863C24.2066 33.3781 23.327 33.3248 22.4541 33.543C21.7578 33.7162 21.1614 34.0478 20.7133 34.6225C18.9592 36.8731 16.7036 38.4207 14.0249 39.3736C13.8667 39.4302 13.7151 39.5202 13.5535 39.5435C12.8305 39.6451 12.464 40.0733 12.3225 40.7663C12.2591 41.0795 12.1059 41.3726 12.0059 41.6792C11.901 41.9974 11.8643 42.3055 11.8727 42.662C11.8843 43.2318 11.6428 43.8098 11.4879 44.3779C11.4712 44.4379 11.3229 44.4945 11.2347 44.4945C10.0486 44.5028 8.8625 44.4995 7.60812 44.4995C7.85133 43.8581 8.08288 43.2501 8.31444 42.6421C8.86416 41.1961 9.41223 39.7501 9.96529 38.3058C10.0003 38.2158 10.0552 38.0992 10.1319 38.0659C10.7316 37.806 11.3379 37.5628 11.9776 37.2996C11.9093 37.6144 11.8593 37.9393 11.7594 38.2508C11.7327 38.3341 11.5645 38.4057 11.4512 38.424C10.9248 38.509 10.6566 38.8039 10.4784 39.3153C10.0136 40.6397 9.47886 41.9407 8.97244 43.2518C8.92747 43.37 8.88749 43.49 8.82085 43.6749C9.4622 43.6749 10.0602 43.6882 10.6583 43.6599C10.7449 43.6549 10.8482 43.4583 10.8982 43.3317C10.9565 43.1818 10.9648 43.0135 10.9998 42.8236C10.7499 42.7837 10.5383 42.752 10.2985 42.7137C10.3601 42.4371 10.3917 42.1706 10.485 41.9257C10.5183 41.8391 10.7033 41.7508 10.8082 41.7608C11.0897 41.7875 11.1847 41.6575 11.2613 41.4143C11.4562 40.7863 11.6911 40.1715 11.886 39.5452C11.9743 39.2603 12.1225 39.102 12.4191 39.0121C14.3298 38.4324 16.1872 37.7177 17.7314 36.4116C18.4944 35.7669 19.2207 35.0573 19.857 34.2876C20.8682 33.0649 22.1343 32.5168 23.6885 32.5668C25.1344 32.6151 26.5004 33.0549 27.8781 33.438C29.2807 33.8279 30.6784 34.2627 32.1593 34.226C33.6519 34.1894 35.0662 33.8479 36.3872 33.1349C36.6671 32.9833 36.737 32.835 36.6321 32.5235C36.3056 31.5606 36.1173 30.5811 36.3755 29.5615C36.817 27.8224 38.4912 26.2714 40.9516 26.5496C40.9516 26.6945 40.9516 26.8445 40.9516 26.9944C40.9516 31.7822 40.9549 36.5682 40.9433 41.356C40.9433 41.7325 41.0515 41.8807 41.418 41.8141C41.7529 41.7525 41.9228 41.9007 42.0577 42.2056C42.3876 42.9452 42.7574 43.6666 43.1472 44.4712L43.1438 44.4762ZM40.102 27.4275C38.3879 27.3742 36.8103 29.22 37.1168 30.9342C37.3034 31.9837 37.6083 33.0132 37.8898 34.0444C38.4245 36.0002 38.5011 37.9326 37.6899 39.8417C37.6316 39.9783 37.6716 40.1965 37.7432 40.3381C38.2096 41.2577 38.716 42.1573 39.1675 43.0835C39.3807 43.5216 39.6406 43.7232 40.1453 43.6766C40.6751 43.6266 41.2148 43.6649 41.7962 43.6649C41.7279 43.4617 41.6712 43.3351 41.6429 43.2001C41.563 42.8253 41.3447 42.6637 40.9583 42.6954C40.6917 42.717 40.4235 42.6987 40.102 42.6987V27.4259V27.4275Z" stroke="#FFEB61" stroke-width="0.4" mask="url(#path-1-outside-1_267_1400)"/>
<path d="M41.7112 28.7686C41.8811 27.7174 41.9478 26.6362 42.2426 25.6217C42.7124 24.0108 42.3093 22.5848 41.558 21.2071C40.735 19.7012 39.5556 18.5184 38.038 17.7104C36.7653 17.0324 35.8991 15.9896 35.2378 14.7485C35.0895 14.4703 34.9646 14.3903 34.6481 14.4936C33.4803 14.8684 32.3509 14.7668 31.3114 14.0871C30.69 13.6807 30.097 13.2309 29.4156 12.7478C30.2152 12.348 30.9149 11.9981 31.6129 11.65C31.6712 11.6216 31.7278 11.59 31.7861 11.565C32.5807 11.2302 33.2204 10.7504 33.7352 10.0141C34.4598 8.97954 35.4077 8.14993 36.682 7.81009C36.9303 7.74512 37.1918 7.67682 37.4433 7.69181C38.038 7.72846 38.5411 7.51023 39.0575 7.25535C40.1903 6.69728 41.3397 6.17253 42.4842 5.63611C42.5991 5.58281 42.7207 5.54116 42.829 5.49951C42.8657 5.53116 42.9006 5.54782 42.9006 5.56448C42.904 6.56901 42.9223 7.5752 42.8956 8.57973C42.8806 9.15113 42.5092 9.57759 42.176 10.0057C41.7046 10.6104 41.3614 11.2818 41.3731 12.0564C41.3797 12.5462 41.4563 13.0626 41.6346 13.5157C42.7607 16.3827 43.5886 19.3047 43.492 22.4266C43.427 24.5589 42.9073 26.5796 42.0427 28.5187C41.9977 28.6203 41.9378 28.7136 41.8845 28.8102C41.8262 28.7952 41.7679 28.7819 41.7096 28.7669L41.7112 28.7686ZM42.0677 6.70728C41.3081 7.07377 40.6168 7.41028 39.9221 7.74012C39.1375 8.11328 38.3912 8.58639 37.4517 8.51643C37.1618 8.49477 36.8403 8.62304 36.5621 8.74632C35.4527 9.24109 34.6297 10.0624 34.0284 11.1019C33.8351 11.4351 33.5936 11.6416 33.2487 11.7966C32.5008 12.1314 31.7711 12.5062 31.0215 12.8694C31.986 13.8689 33.6386 14.1188 34.9612 13.4741C35.496 13.2142 35.446 13.2209 35.6742 13.7373C36.3389 15.2449 37.3267 16.4194 38.811 17.2273C40.3919 18.0903 41.5946 19.3847 42.4042 21.0139C42.4575 21.1222 42.5258 21.2238 42.5875 21.3287C42.6174 21.3204 42.6491 21.3121 42.6791 21.3037C42.6274 20.799 42.5858 20.2942 42.5225 19.7911C42.2593 17.6771 41.583 15.6831 40.825 13.704C40.2336 12.1564 40.5218 10.7254 41.558 9.42933C41.7695 9.16446 41.9994 8.84794 42.0427 8.52975C42.121 7.96335 42.0644 7.37863 42.0644 6.70728H42.0677Z" stroke="#FFEB61" stroke-width="0.4" mask="url(#path-1-outside-1_267_1400)"/>
<path d="M6.50034 38.2791C6.85849 37.5328 7.14835 36.8881 7.47319 36.2617C9.0574 33.2015 10.9115 30.3245 13.3569 27.8673C15.5242 25.69 18.1762 24.404 21.1464 23.7643C21.946 23.5927 22.7923 23.656 23.6069 23.5444C27.7581 22.978 31.1265 19.8844 31.9927 15.868C32.041 15.6447 32.0827 15.4198 32.1326 15.165C32.4008 15.2249 32.6341 15.2766 32.9239 15.3416C32.8473 15.743 32.8056 16.1278 32.699 16.4927C31.4746 20.684 28.6927 23.2495 24.4664 24.2274C23.382 24.4789 22.2325 24.4423 21.1348 24.6455C18.7159 25.0936 16.6886 26.1848 15.4176 28.4037C14.8928 29.3216 14.7163 30.3262 14.6246 31.364C14.3764 34.1944 12.8589 36.1151 10.2951 37.2296C9.12404 37.7377 7.87965 38.0192 6.50034 38.2758V38.2791ZM7.93629 37.1246C8.51934 36.9431 9.02742 36.8165 9.51384 36.6299C12.1392 35.6237 13.7034 33.8045 13.8567 30.9109C13.9133 29.8514 14.1915 28.8519 14.7646 27.9473C14.8012 27.8907 14.8129 27.819 14.8345 27.7524C11.8693 30.3528 9.7937 33.593 7.93629 37.1246Z" stroke="#FFEB61" stroke-width="0.4" mask="url(#path-1-outside-1_267_1400)"/>
<path d="M23.3303 44.4779C22.9122 44.4779 22.5657 44.4779 22.2209 44.4779C21.293 44.4762 20.3635 44.4828 19.4356 44.4612C19.289 44.4579 19.0841 44.3596 19.0125 44.2413C18.2628 42.9936 17.5432 41.7258 16.7936 40.4781C16.5903 40.1399 16.587 39.9033 16.8652 39.5968C17.3233 39.0921 17.7381 38.5456 18.1512 38.0026C18.2828 37.8293 18.3844 37.776 18.5943 37.8743C18.7626 37.9526 18.9625 37.9642 19.214 38.0209C19.0758 38.2125 18.9625 38.3907 18.8309 38.5523C18.4644 39.0021 18.0779 39.4369 17.7264 39.8967C17.6515 39.995 17.6248 40.2165 17.6831 40.3198C18.2795 41.3593 18.8942 42.3888 19.5139 43.415C19.5722 43.5116 19.6971 43.6316 19.7937 43.6333C20.5001 43.6516 21.2064 43.6432 21.9777 43.6432C21.8694 43.3567 21.8061 43.1102 21.6828 42.8969C21.6328 42.8103 21.4463 42.7387 21.3396 42.757C20.7083 42.8686 20.3935 42.5837 20.1786 42.0073C19.9503 41.3943 19.6272 40.8162 19.3256 40.2332C19.2074 40.005 19.2457 39.88 19.4406 39.7168C20.3202 38.9838 21.2264 38.2741 22.0443 37.4745C22.8889 36.6465 23.5069 35.642 23.8601 34.4975C23.9234 34.2943 24.0183 34.226 24.2182 34.2577C24.3948 34.286 24.5747 34.2993 24.8179 34.3276C24.0616 36.8981 22.3525 38.6739 20.2635 40.1516C20.4967 40.668 20.7266 41.1428 20.9265 41.6309C21.0231 41.8657 21.1981 41.8674 21.3663 41.8158C21.8877 41.6575 22.1176 41.9041 22.3108 42.3572C22.6057 43.0535 22.9655 43.7232 23.3337 44.4779H23.3303Z" stroke="#FFEB61" stroke-width="0.4" mask="url(#path-1-outside-1_267_1400)"/>
<path d="M37.3434 9.24608C37.6149 9.24109 37.8848 9.51096 37.8881 9.79249C37.8914 10.0374 37.6416 10.2889 37.3917 10.2923C37.1335 10.2973 36.8453 10.0041 36.8453 9.73919C36.8453 9.48431 37.0802 9.25108 37.3434 9.24608Z" stroke="#FFEB61" stroke-width="0.4" mask="url(#path-1-outside-1_267_1400)"/>
</svg>
