<svg width="34" height="47" viewBox="0 0 34 47" fill="none" xmlns="http://www.w3.org/2000/svg">
<g clip-path="url(#clip0_267_1384)">
<path d="M24.8239 45.4348H27.5592V46.9477H23.0908C23.2016 46.1885 23.3106 45.4294 23.4249 44.6702C24.086 40.3063 24.7506 35.9443 25.4045 31.5804C25.4688 31.1494 25.6493 30.8446 25.9977 30.5669C29.2851 27.9378 30.5769 24.4377 30.2821 20.2938C30.1874 18.9522 29.8336 17.6502 29.1744 16.4637C28.9707 16.0958 28.7134 15.746 28.4258 15.4377C26.866 13.7606 27.1697 10.7744 29.0493 9.46888C29.7354 8.99282 30.4911 8.80348 31.3219 8.88824C31.9258 8.94955 32.4296 8.48431 32.4636 7.86038C32.4975 7.25269 32.1063 6.83433 31.4648 6.83433C27.4949 6.83253 23.525 6.83613 19.5568 6.83974C19.4871 6.83974 19.4174 6.85958 19.2549 6.88122C20.1964 7.79907 21.1719 8.49873 22.3619 8.8702C22.7781 9.00004 23.2034 9.12086 23.5946 9.30659C24.5505 9.75921 24.9829 10.5743 25.04 11.6093C25.2652 15.764 22.3744 21.8717 15.8888 22.6669C14.933 22.7841 13.9628 22.7805 12.9998 22.8364C9.03521 23.0672 6.09259 24.8957 4.33453 28.5311C3.79853 29.6383 3.62344 30.7707 3.99328 32.0204C4.58645 34.022 3.70027 36.0903 1.88145 37.2029C2.01188 37.5888 2.1423 37.9909 2.28345 38.3877C3.0803 40.6219 3.87536 42.8561 4.6865 45.0831C4.74188 45.2328 4.92412 45.4402 5.05276 45.442C6.18193 45.4708 7.31109 45.4582 8.54209 45.4582C7.38613 42.2935 6.25339 39.1955 5.101 36.0452C5.32255 35.9731 5.52801 35.8956 5.73884 35.8379C7.10205 35.4646 8.24551 34.7325 9.19422 33.683C9.36574 33.4918 9.59086 33.2989 9.65339 33.0681C9.96427 31.923 10.8862 31.932 11.7634 31.9176C13.5143 31.8887 15.2653 31.9068 17.0162 31.9068C18.7064 31.9068 20.3965 31.914 22.0867 31.9176C22.235 31.9176 22.3833 31.9176 22.5763 31.9176C21.9188 36.9469 21.2684 41.9329 20.6109 46.9567C20.4591 46.9657 20.3143 46.9802 20.1696 46.9802C14.8561 46.9838 9.54441 46.9838 4.2309 46.9964C3.89501 46.9964 3.71992 46.9134 3.602 46.5816C2.42996 43.2871 1.24183 39.9998 0.0608544 36.7088C0.0304813 36.6259 0.0233347 36.5357 -0.00167847 36.4185C0.227013 36.3121 0.443198 36.2147 0.659383 36.112C2.38529 35.2825 3.00704 33.8651 2.47641 32.0222C2.06369 30.5868 2.31382 29.1929 2.93379 27.8927C4.73474 24.1203 7.72917 21.9492 11.8385 21.401C12.9694 21.2495 14.1307 21.3397 15.2671 21.2099C19.5675 20.714 22.6584 17.7368 23.4088 13.418C23.4892 12.9546 23.5571 12.4821 23.5661 12.0133C23.5839 11.0882 23.2445 10.659 22.3887 10.4372C19.8534 9.77724 18.0775 8.21202 16.993 5.82271C16.9554 5.73976 16.9215 5.655 16.8911 5.56845C16.8661 5.49812 16.8482 5.42419 16.8036 5.26911H21.9045C21.9259 5.23304 21.9456 5.19517 21.967 5.15911C20.3483 3.8265 19.4157 2.15669 19.3853 0.00540976H20.9004C20.9558 1.98719 21.9599 3.38651 23.4839 4.46305C23.5321 4.45043 23.5803 4.436 23.6304 4.42338V0H25.1758V4.34404C26.6552 3.19176 27.461 1.81768 27.5735 0.014426H29.0904C28.9868 2.15308 28.122 3.86437 26.3872 5.29616C26.6802 5.29616 26.8338 5.29616 26.9893 5.29616C28.4383 5.29435 29.8872 5.28894 31.3344 5.28894C32.9192 5.28894 34.0162 6.33663 33.9983 7.82432C33.9805 9.25069 32.6941 10.5112 31.2308 10.4535C30.2642 10.4156 29.5906 10.7835 29.2012 11.658C28.7759 12.6156 28.7116 13.6254 29.4852 14.3864C30.5001 15.3836 31.0396 16.6026 31.3612 17.9171C32.6369 23.1339 31.4184 27.6457 27.4663 31.3207C27.0465 31.7102 26.7838 32.0961 26.6981 32.6858C26.0995 36.8567 25.4635 41.024 24.8417 45.1913C24.8328 45.2508 24.8328 45.3103 24.8221 45.4312L24.8239 45.4348ZM20.8771 33.4485C20.761 33.4485 20.6127 33.4485 20.4626 33.4485C17.5504 33.4485 14.6399 33.4594 11.7277 33.4449C11.365 33.4449 11.1595 33.5658 10.963 33.8633C10.0786 35.1959 8.9566 36.249 7.44152 36.8206C7.32181 36.8657 7.21104 36.9378 7.11813 36.9865C7.11813 37.0659 7.1092 37.0983 7.11813 37.1254C8.07935 39.7834 9.04414 42.4378 10 45.0976C10.0947 45.359 10.2251 45.4781 10.5235 45.4762C13.3142 45.46 16.105 45.4564 18.8957 45.4636C19.1905 45.4636 19.287 45.3482 19.3228 45.0777C19.7194 42.0465 20.1196 39.0152 20.5234 35.9857C20.6324 35.1616 20.7521 34.3394 20.8771 33.4504V33.4485Z" fill="#FFEB61"/>
</g>
<defs>
<clipPath id="clip0_267_1384">
<rect width="34" height="47" fill="white"/>
</clipPath>
</defs>
</svg>
