<svg width="47" height="32" viewBox="0 0 47 32" fill="none" xmlns="http://www.w3.org/2000/svg">
<g clip-path="url(#clip0_267_1389)">
<mask id="path-1-outside-1_267_1389" maskUnits="userSpaceOnUse" x="-0.889267" y="-0.998047" width="49" height="34" fill="black">
<rect fill="white" x="-0.889267" y="-0.998047" width="49" height="34"/>
<path d="M47 29.6729C44.5697 30.6857 42.1417 31.0297 39.6171 30.6241C37.0972 30.2197 34.8683 29.2483 33.1377 27.2274C33.06 27.601 32.9964 27.939 32.9186 28.2735C32.6217 29.5436 32.0951 30.7071 31.3318 31.7626C31.2069 31.9358 31.0726 32.0105 30.8617 31.9986C30.5955 31.9832 30.3269 31.9951 30.03 31.9951C30.0547 31.9322 30.0618 31.8836 30.0877 31.8527C31.36 30.3252 31.9644 28.5202 32.2707 26.5846C32.3355 26.179 32.3166 25.8126 32.1729 25.4224C31.6275 23.9423 31.7888 22.4788 32.3378 21.0343C32.352 20.9975 32.3696 20.9607 32.3897 20.9263C32.3991 20.9097 32.4156 20.8979 32.458 20.8516C32.7372 20.9845 33.0282 21.1232 33.2862 21.2454C33.1389 21.8265 32.9646 22.3673 32.8691 22.9223C32.6241 24.3514 33.1012 25.5872 33.9836 26.6748C35.0215 27.9544 36.401 28.7265 37.9383 29.2258C40.146 29.9421 42.382 29.9753 44.6344 29.4594C44.6792 29.4488 44.7204 29.4191 44.8041 29.3788C44.5555 29.1997 44.3329 29.0396 44.1114 28.8795C42.0969 27.4255 40.4405 25.6418 39.266 23.4371C38.8737 22.7006 38.6039 21.8989 38.2281 21.1529C36.8628 18.4358 34.8565 16.3781 32.0221 15.2242C30.5472 14.6241 29.0145 14.4165 27.4147 14.5683C24.8183 14.8138 22.2395 14.649 19.7043 13.9931C16.54 13.1736 14.4089 11.1337 13.0247 8.22692C12.6807 7.50585 12.3697 6.77173 11.783 6.20246C10.5778 5.03309 8.84725 4.5753 7.04717 5.5644C5.2624 6.54521 3.45526 7.48331 1.66107 8.44751C1.45962 8.55544 1.1545 8.60525 1.24639 8.96578C1.31825 9.24923 1.60923 9.46034 1.94851 9.46508C2.21593 9.46864 2.48453 9.45085 2.75077 9.47101C4.29875 9.58961 5.56163 10.3214 6.66901 11.3626C7.96252 12.5771 8.84254 14.0809 9.56116 15.6843C11.1857 19.3099 12.2625 23.1038 12.8786 27.0258C13.0824 28.3197 12.9563 29.6077 12.2189 30.751C11.7241 31.5171 11.0149 31.9464 10.0936 32.001C9.87216 32.014 9.77556 31.9429 9.80855 31.7164C9.81444 31.6772 9.80973 31.6369 9.80973 31.5966C9.81208 31.0522 9.81208 31.0487 10.3316 30.9336C11.0679 30.7699 11.4826 30.2766 11.7182 29.5899C12.0221 28.7052 12.0162 27.7967 11.8666 26.8942C11.2187 22.965 10.1207 19.1687 8.41726 15.5657C7.7222 14.0951 6.84572 12.7431 5.56634 11.6983C4.78058 11.0555 3.89703 10.6262 2.90039 10.4459C2.74724 10.4186 2.58349 10.4233 2.42798 10.44C1.34299 10.5597 0.613767 10.1221 0.209692 9.09861C-0.0109989 8.53883 0.137437 8.12216 0.654999 7.84859C2.81675 6.71006 4.97731 5.56915 7.14259 4.43773C7.32637 4.34166 7.33226 4.22425 7.3193 4.04991C7.21445 2.70383 7.48187 1.44788 8.23348 0.312904C8.48676 -0.0689799 8.48558 -0.0701659 8.87317 0.152798C10.2091 0.920124 11.3224 1.9116 11.8619 3.40237C12.0657 3.96571 12.1164 4.58479 12.2424 5.17659C12.2613 5.26554 12.2919 5.37465 12.3555 5.42802C13.0129 5.98424 13.4052 6.71836 13.748 7.49043C14.3241 8.78907 15.0933 9.95726 16.1135 10.9499C17.4071 12.2094 18.9927 12.8629 20.7257 13.2199C23.0394 13.6966 25.3731 13.769 27.7186 13.5686C29.4198 13.4227 31.0408 13.7441 32.597 14.4047C35.4491 15.6156 37.5119 17.6958 38.9515 20.4188C39.3932 21.2537 39.6995 22.161 40.1413 22.9959C41.2946 25.1733 42.9651 26.8906 44.9584 28.3007C45.5097 28.6909 46.0811 29.055 46.643 29.431C46.7396 29.4962 46.8362 29.5614 47.0035 29.6753L47 29.6729ZM8.79659 1.23559C8.36189 2.17726 8.18282 3.10232 8.32301 4.10447C9.35735 3.92539 10.2857 4.1697 11.2352 4.59428C10.8441 3.13909 10.0783 2.02901 8.79777 1.23559H8.79659Z"/>
<path d="M25.5969 18.8402C25.8997 18.928 26.1471 18.973 26.3662 19.0762C26.4522 19.1166 26.5217 19.2885 26.5229 19.4024C26.5382 20.3998 26.6902 21.3735 27.0248 22.3116C27.5773 23.8569 28.4526 25.1591 29.8792 26.026C30.0064 26.1031 30.1372 26.1921 30.2774 26.2253C30.5566 26.2905 30.652 26.472 30.6968 26.7305C30.9206 28.0529 30.8888 29.3456 30.2032 30.5411C29.7072 31.4056 28.9768 31.9429 27.9507 31.9879C27.893 31.9903 27.8341 31.9773 27.7387 31.969C27.7387 31.6784 27.7292 31.3926 27.7481 31.1091C27.7516 31.0617 27.8706 30.9894 27.9413 30.9822C28.8814 30.885 29.3703 30.2861 29.646 29.4464C29.8839 28.7194 29.8733 27.971 29.8121 27.2215C29.8062 27.1504 29.7378 27.0578 29.673 27.0223C27.5608 25.8707 26.4734 23.9672 25.8337 21.734C25.796 21.6012 25.7631 21.4672 25.7218 21.3094C22.8261 22.4266 19.9399 23.4904 16.7285 23.1927C16.6472 23.5177 16.5647 23.8628 16.4764 24.2056C15.8921 26.4589 15.25 28.6921 14.1415 30.7545C13.953 31.1056 13.748 31.4495 13.5218 31.7768C13.4511 31.8788 13.2897 31.9607 13.1625 31.9725C12.8703 32.001 12.5735 31.982 12.2389 31.982C12.2731 31.8966 12.2801 31.848 12.3072 31.8148C13.3958 30.464 14.0154 28.8771 14.5762 27.2606C15.3136 25.1354 15.7719 22.9366 16.2431 20.7413C16.2679 20.6275 16.2973 20.5136 16.3303 20.3737C16.6484 20.5563 16.9476 20.7271 17.2504 20.9014C17.1538 21.3308 17.0595 21.7447 16.9559 22.2036C17.2351 22.2274 17.4872 22.2629 17.7393 22.2677C19.418 22.2973 21.0272 21.9131 22.607 21.3913C23.5294 21.0865 24.4307 20.7176 25.346 20.3879C25.5451 20.3156 25.617 20.21 25.6052 19.9942C25.5852 19.6265 25.5993 19.2577 25.5993 18.8402H25.5969Z"/>
<path d="M8.07326 7.99684C8.07326 8.35263 7.76225 8.65506 7.40177 8.65031C7.03539 8.64557 6.7232 8.32654 6.72438 7.96008C6.72438 7.57226 7.02243 7.24968 7.37703 7.24968C7.74223 7.24968 8.07444 7.60784 8.07326 7.99803V7.99684Z"/>
</mask>
<path d="M47 29.6729C44.5697 30.6857 42.1417 31.0297 39.6171 30.6241C37.0972 30.2197 34.8683 29.2483 33.1377 27.2274C33.06 27.601 32.9964 27.939 32.9186 28.2735C32.6217 29.5436 32.0951 30.7071 31.3318 31.7626C31.2069 31.9358 31.0726 32.0105 30.8617 31.9986C30.5955 31.9832 30.3269 31.9951 30.03 31.9951C30.0547 31.9322 30.0618 31.8836 30.0877 31.8527C31.36 30.3252 31.9644 28.5202 32.2707 26.5846C32.3355 26.179 32.3166 25.8126 32.1729 25.4224C31.6275 23.9423 31.7888 22.4788 32.3378 21.0343C32.352 20.9975 32.3696 20.9607 32.3897 20.9263C32.3991 20.9097 32.4156 20.8979 32.458 20.8516C32.7372 20.9845 33.0282 21.1232 33.2862 21.2454C33.1389 21.8265 32.9646 22.3673 32.8691 22.9223C32.6241 24.3514 33.1012 25.5872 33.9836 26.6748C35.0215 27.9544 36.401 28.7265 37.9383 29.2258C40.146 29.9421 42.382 29.9753 44.6344 29.4594C44.6792 29.4488 44.7204 29.4191 44.8041 29.3788C44.5555 29.1997 44.3329 29.0396 44.1114 28.8795C42.0969 27.4255 40.4405 25.6418 39.266 23.4371C38.8737 22.7006 38.6039 21.8989 38.2281 21.1529C36.8628 18.4358 34.8565 16.3781 32.0221 15.2242C30.5472 14.6241 29.0145 14.4165 27.4147 14.5683C24.8183 14.8138 22.2395 14.649 19.7043 13.9931C16.54 13.1736 14.4089 11.1337 13.0247 8.22692C12.6807 7.50585 12.3697 6.77173 11.783 6.20246C10.5778 5.03309 8.84725 4.5753 7.04717 5.5644C5.2624 6.54521 3.45526 7.48331 1.66107 8.44751C1.45962 8.55544 1.1545 8.60525 1.24639 8.96578C1.31825 9.24923 1.60923 9.46034 1.94851 9.46508C2.21593 9.46864 2.48453 9.45085 2.75077 9.47101C4.29875 9.58961 5.56163 10.3214 6.66901 11.3626C7.96252 12.5771 8.84254 14.0809 9.56116 15.6843C11.1857 19.3099 12.2625 23.1038 12.8786 27.0258C13.0824 28.3197 12.9563 29.6077 12.2189 30.751C11.7241 31.5171 11.0149 31.9464 10.0936 32.001C9.87216 32.014 9.77556 31.9429 9.80855 31.7164C9.81444 31.6772 9.80973 31.6369 9.80973 31.5966C9.81208 31.0522 9.81208 31.0487 10.3316 30.9336C11.0679 30.7699 11.4826 30.2766 11.7182 29.5899C12.0221 28.7052 12.0162 27.7967 11.8666 26.8942C11.2187 22.965 10.1207 19.1687 8.41726 15.5657C7.7222 14.0951 6.84572 12.7431 5.56634 11.6983C4.78058 11.0555 3.89703 10.6262 2.90039 10.4459C2.74724 10.4186 2.58349 10.4233 2.42798 10.44C1.34299 10.5597 0.613767 10.1221 0.209692 9.09861C-0.0109989 8.53883 0.137437 8.12216 0.654999 7.84859C2.81675 6.71006 4.97731 5.56915 7.14259 4.43773C7.32637 4.34166 7.33226 4.22425 7.3193 4.04991C7.21445 2.70383 7.48187 1.44788 8.23348 0.312904C8.48676 -0.0689799 8.48558 -0.0701659 8.87317 0.152798C10.2091 0.920124 11.3224 1.9116 11.8619 3.40237C12.0657 3.96571 12.1164 4.58479 12.2424 5.17659C12.2613 5.26554 12.2919 5.37465 12.3555 5.42802C13.0129 5.98424 13.4052 6.71836 13.748 7.49043C14.3241 8.78907 15.0933 9.95726 16.1135 10.9499C17.4071 12.2094 18.9927 12.8629 20.7257 13.2199C23.0394 13.6966 25.3731 13.769 27.7186 13.5686C29.4198 13.4227 31.0408 13.7441 32.597 14.4047C35.4491 15.6156 37.5119 17.6958 38.9515 20.4188C39.3932 21.2537 39.6995 22.161 40.1413 22.9959C41.2946 25.1733 42.9651 26.8906 44.9584 28.3007C45.5097 28.6909 46.0811 29.055 46.643 29.431C46.7396 29.4962 46.8362 29.5614 47.0035 29.6753L47 29.6729ZM8.79659 1.23559C8.36189 2.17726 8.18282 3.10232 8.32301 4.10447C9.35735 3.92539 10.2857 4.1697 11.2352 4.59428C10.8441 3.13909 10.0783 2.02901 8.79777 1.23559H8.79659Z" fill="#FFEB61"/>
<path d="M25.5969 18.8402C25.8997 18.928 26.1471 18.973 26.3662 19.0762C26.4522 19.1166 26.5217 19.2885 26.5229 19.4024C26.5382 20.3998 26.6902 21.3735 27.0248 22.3116C27.5773 23.8569 28.4526 25.1591 29.8792 26.026C30.0064 26.1031 30.1372 26.1921 30.2774 26.2253C30.5566 26.2905 30.652 26.472 30.6968 26.7305C30.9206 28.0529 30.8888 29.3456 30.2032 30.5411C29.7072 31.4056 28.9768 31.9429 27.9507 31.9879C27.893 31.9903 27.8341 31.9773 27.7387 31.969C27.7387 31.6784 27.7292 31.3926 27.7481 31.1091C27.7516 31.0617 27.8706 30.9894 27.9413 30.9822C28.8814 30.885 29.3703 30.2861 29.646 29.4464C29.8839 28.7194 29.8733 27.971 29.8121 27.2215C29.8062 27.1504 29.7378 27.0578 29.673 27.0223C27.5608 25.8707 26.4734 23.9672 25.8337 21.734C25.796 21.6012 25.7631 21.4672 25.7218 21.3094C22.8261 22.4266 19.9399 23.4904 16.7285 23.1927C16.6472 23.5177 16.5647 23.8628 16.4764 24.2056C15.8921 26.4589 15.25 28.6921 14.1415 30.7545C13.953 31.1056 13.748 31.4495 13.5218 31.7768C13.4511 31.8788 13.2897 31.9607 13.1625 31.9725C12.8703 32.001 12.5735 31.982 12.2389 31.982C12.2731 31.8966 12.2801 31.848 12.3072 31.8148C13.3958 30.464 14.0154 28.8771 14.5762 27.2606C15.3136 25.1354 15.7719 22.9366 16.2431 20.7413C16.2679 20.6275 16.2973 20.5136 16.3303 20.3737C16.6484 20.5563 16.9476 20.7271 17.2504 20.9014C17.1538 21.3308 17.0595 21.7447 16.9559 22.2036C17.2351 22.2274 17.4872 22.2629 17.7393 22.2677C19.418 22.2973 21.0272 21.9131 22.607 21.3913C23.5294 21.0865 24.4307 20.7176 25.346 20.3879C25.5451 20.3156 25.617 20.21 25.6052 19.9942C25.5852 19.6265 25.5993 19.2577 25.5993 18.8402H25.5969Z" fill="#FFEB61"/>
<path d="M8.07326 7.99684C8.07326 8.35263 7.76225 8.65506 7.40177 8.65031C7.03539 8.64557 6.7232 8.32654 6.72438 7.96008C6.72438 7.57226 7.02243 7.24968 7.37703 7.24968C7.74223 7.24968 8.07444 7.60784 8.07326 7.99803V7.99684Z" fill="#FFEB61"/>
<path d="M47 29.6729C44.5697 30.6857 42.1417 31.0297 39.6171 30.6241C37.0972 30.2197 34.8683 29.2483 33.1377 27.2274C33.06 27.601 32.9964 27.939 32.9186 28.2735C32.6217 29.5436 32.0951 30.7071 31.3318 31.7626C31.2069 31.9358 31.0726 32.0105 30.8617 31.9986C30.5955 31.9832 30.3269 31.9951 30.03 31.9951C30.0547 31.9322 30.0618 31.8836 30.0877 31.8527C31.36 30.3252 31.9644 28.5202 32.2707 26.5846C32.3355 26.179 32.3166 25.8126 32.1729 25.4224C31.6275 23.9423 31.7888 22.4788 32.3378 21.0343C32.352 20.9975 32.3696 20.9607 32.3897 20.9263C32.3991 20.9097 32.4156 20.8979 32.458 20.8516C32.7372 20.9845 33.0282 21.1232 33.2862 21.2454C33.1389 21.8265 32.9646 22.3673 32.8691 22.9223C32.6241 24.3514 33.1012 25.5872 33.9836 26.6748C35.0215 27.9544 36.401 28.7265 37.9383 29.2258C40.146 29.9421 42.382 29.9753 44.6344 29.4594C44.6792 29.4488 44.7204 29.4191 44.8041 29.3788C44.5555 29.1997 44.3329 29.0396 44.1114 28.8795C42.0969 27.4255 40.4405 25.6418 39.266 23.4371C38.8737 22.7006 38.6039 21.8989 38.2281 21.1529C36.8628 18.4358 34.8565 16.3781 32.0221 15.2242C30.5472 14.6241 29.0145 14.4165 27.4147 14.5683C24.8183 14.8138 22.2395 14.649 19.7043 13.9931C16.54 13.1736 14.4089 11.1337 13.0247 8.22692C12.6807 7.50585 12.3697 6.77173 11.783 6.20246C10.5778 5.03309 8.84725 4.5753 7.04717 5.5644C5.2624 6.54521 3.45526 7.48331 1.66107 8.44751C1.45962 8.55544 1.1545 8.60525 1.24639 8.96578C1.31825 9.24923 1.60923 9.46034 1.94851 9.46508C2.21593 9.46864 2.48453 9.45085 2.75077 9.47101C4.29875 9.58961 5.56163 10.3214 6.66901 11.3626C7.96252 12.5771 8.84254 14.0809 9.56116 15.6843C11.1857 19.3099 12.2625 23.1038 12.8786 27.0258C13.0824 28.3197 12.9563 29.6077 12.2189 30.751C11.7241 31.5171 11.0149 31.9464 10.0936 32.001C9.87216 32.014 9.77556 31.9429 9.80855 31.7164C9.81444 31.6772 9.80973 31.6369 9.80973 31.5966C9.81208 31.0522 9.81208 31.0487 10.3316 30.9336C11.0679 30.7699 11.4826 30.2766 11.7182 29.5899C12.0221 28.7052 12.0162 27.7967 11.8666 26.8942C11.2187 22.965 10.1207 19.1687 8.41726 15.5657C7.7222 14.0951 6.84572 12.7431 5.56634 11.6983C4.78058 11.0555 3.89703 10.6262 2.90039 10.4459C2.74724 10.4186 2.58349 10.4233 2.42798 10.44C1.34299 10.5597 0.613767 10.1221 0.209692 9.09861C-0.0109989 8.53883 0.137437 8.12216 0.654999 7.84859C2.81675 6.71006 4.97731 5.56915 7.14259 4.43773C7.32637 4.34166 7.33226 4.22425 7.3193 4.04991C7.21445 2.70383 7.48187 1.44788 8.23348 0.312904C8.48676 -0.0689799 8.48558 -0.0701659 8.87317 0.152798C10.2091 0.920124 11.3224 1.9116 11.8619 3.40237C12.0657 3.96571 12.1164 4.58479 12.2424 5.17659C12.2613 5.26554 12.2919 5.37465 12.3555 5.42802C13.0129 5.98424 13.4052 6.71836 13.748 7.49043C14.3241 8.78907 15.0933 9.95726 16.1135 10.9499C17.4071 12.2094 18.9927 12.8629 20.7257 13.2199C23.0394 13.6966 25.3731 13.769 27.7186 13.5686C29.4198 13.4227 31.0408 13.7441 32.597 14.4047C35.4491 15.6156 37.5119 17.6958 38.9515 20.4188C39.3932 21.2537 39.6995 22.161 40.1413 22.9959C41.2946 25.1733 42.9651 26.8906 44.9584 28.3007C45.5097 28.6909 46.0811 29.055 46.643 29.431C46.7396 29.4962 46.8362 29.5614 47.0035 29.6753L47 29.6729ZM8.79659 1.23559C8.36189 2.17726 8.18282 3.10232 8.32301 4.10447C9.35735 3.92539 10.2857 4.1697 11.2352 4.59428C10.8441 3.13909 10.0783 2.02901 8.79777 1.23559H8.79659Z" stroke="#FFEB61" stroke-width="0.6" mask="url(#path-1-outside-1_267_1389)"/>
<path d="M25.5969 18.8402C25.8997 18.928 26.1471 18.973 26.3662 19.0762C26.4522 19.1166 26.5217 19.2885 26.5229 19.4024C26.5382 20.3998 26.6902 21.3735 27.0248 22.3116C27.5773 23.8569 28.4526 25.1591 29.8792 26.026C30.0064 26.1031 30.1372 26.1921 30.2774 26.2253C30.5566 26.2905 30.652 26.472 30.6968 26.7305C30.9206 28.0529 30.8888 29.3456 30.2032 30.5411C29.7072 31.4056 28.9768 31.9429 27.9507 31.9879C27.893 31.9903 27.8341 31.9773 27.7387 31.969C27.7387 31.6784 27.7292 31.3926 27.7481 31.1091C27.7516 31.0617 27.8706 30.9894 27.9413 30.9822C28.8814 30.885 29.3703 30.2861 29.646 29.4464C29.8839 28.7194 29.8733 27.971 29.8121 27.2215C29.8062 27.1504 29.7378 27.0578 29.673 27.0223C27.5608 25.8707 26.4734 23.9672 25.8337 21.734C25.796 21.6012 25.7631 21.4672 25.7218 21.3094C22.8261 22.4266 19.9399 23.4904 16.7285 23.1927C16.6472 23.5177 16.5647 23.8628 16.4764 24.2056C15.8921 26.4589 15.25 28.6921 14.1415 30.7545C13.953 31.1056 13.748 31.4495 13.5218 31.7768C13.4511 31.8788 13.2897 31.9607 13.1625 31.9725C12.8703 32.001 12.5735 31.982 12.2389 31.982C12.2731 31.8966 12.2801 31.848 12.3072 31.8148C13.3958 30.464 14.0154 28.8771 14.5762 27.2606C15.3136 25.1354 15.7719 22.9366 16.2431 20.7413C16.2679 20.6275 16.2973 20.5136 16.3303 20.3737C16.6484 20.5563 16.9476 20.7271 17.2504 20.9014C17.1538 21.3308 17.0595 21.7447 16.9559 22.2036C17.2351 22.2274 17.4872 22.2629 17.7393 22.2677C19.418 22.2973 21.0272 21.9131 22.607 21.3913C23.5294 21.0865 24.4307 20.7176 25.346 20.3879C25.5451 20.3156 25.617 20.21 25.6052 19.9942C25.5852 19.6265 25.5993 19.2577 25.5993 18.8402H25.5969Z" stroke="#FFEB61" stroke-width="0.6" mask="url(#path-1-outside-1_267_1389)"/>
<path d="M8.07326 7.99684C8.07326 8.35263 7.76225 8.65506 7.40177 8.65031C7.03539 8.64557 6.7232 8.32654 6.72438 7.96008C6.72438 7.57226 7.02243 7.24968 7.37703 7.24968C7.74223 7.24968 8.07444 7.60784 8.07326 7.99803V7.99684Z" stroke="#FFEB61" stroke-width="0.6" mask="url(#path-1-outside-1_267_1389)"/>
</g>
<defs>
<clipPath id="clip0_267_1389">
<rect width="47" height="32" fill="white"/>
</clipPath>
</defs>
</svg>
