<svg width="48" height="23" viewBox="0 0 48 23" fill="none" xmlns="http://www.w3.org/2000/svg">
<g clip-path="url(#clip0_267_1398)">
<mask id="path-1-outside-1_267_1398" maskUnits="userSpaceOnUse" x="-0.228516" y="-0.145508" width="48" height="24" fill="black">
<rect fill="white" x="-0.228516" y="-0.145508" width="48" height="24"/>
<path d="M24.3032 20.2075C24.4388 20.2422 24.5517 20.2709 24.6647 20.298C25.737 20.5547 26.359 21.2717 26.6647 22.2937C26.7792 22.6786 26.5744 22.9564 26.1707 22.9579C24.0608 22.9639 21.9493 22.9609 19.8393 22.9488C19.7248 22.9488 19.5667 22.8598 19.5034 22.7632C19.139 22.2122 18.7866 21.6521 18.4492 21.083C18.2353 20.7237 18.398 20.3297 18.782 20.3086C19.9944 20.2422 20.8483 19.5659 21.5577 18.6767C22.9809 16.8924 22.9945 14.1858 21.5697 12.4648C21.2249 12.0467 20.7414 11.7403 20.3062 11.4036C20.0878 11.2345 19.8122 11.1198 19.9839 10.7681C20.1074 10.516 20.4266 10.4405 20.7595 10.6051C21.4929 10.9689 22.1014 11.4927 22.5472 12.1765C24.4087 15.0311 23.4131 18.3371 21.5833 20.0127C21.1255 20.4324 20.511 20.68 19.9658 21C19.8574 21.0634 19.7308 21.0951 19.5787 21.1555C19.7459 21.4468 19.8905 21.7125 20.0531 21.9676C20.0878 22.0235 20.1902 22.0627 20.261 22.0627C22.0155 22.0673 23.7686 22.0672 25.615 22.0672C25.4975 21.9012 25.4373 21.794 25.3575 21.708C25.0035 21.3261 24.5382 21.1736 24.0442 21.074C23.5261 20.9713 23.4478 20.8641 23.4372 20.3328C23.4086 18.9213 24.3695 17.5989 25.7671 17.1053C26.6738 16.7852 27.5729 16.7928 28.4614 17.1491C29.0624 17.3906 29.6452 17.6789 30.2461 17.9205C30.71 18.1076 31.1919 18.2526 31.716 18.4337C31.6573 17.8525 31.5955 17.3528 31.5624 16.8517C31.5413 16.5347 31.5594 16.2146 31.5699 15.8961C31.579 15.5791 31.7657 15.4206 32.0669 15.413C32.329 15.4055 32.5112 15.6259 32.4901 15.952C32.3953 17.3393 32.6302 18.6677 33.2673 19.901C33.6121 20.5698 34.0384 21.1977 34.4495 21.8302C34.5248 21.9465 34.7055 22.0627 34.8381 22.0627C35.9586 22.0733 37.0776 22.0597 38.1981 22.0491C38.2764 22.0491 38.3532 22.0265 38.4887 22.0054C38.2433 21.5238 37.8999 21.243 37.4164 21.1238C36.5203 20.9019 36.5233 20.9004 36.5173 19.9659C36.5113 19.2564 36.4962 18.5484 36.4857 17.8389C36.4782 17.3242 36.6197 16.8743 36.9797 16.4818C38.2433 15.1021 39.0113 13.4838 39.2598 11.6225C39.3457 10.9794 39.3668 10.3228 39.5189 9.69629C39.9617 7.87725 40.9376 6.44466 42.6605 5.59628C43.3593 5.2521 44.1033 5.18568 44.8654 5.2053C45.1952 5.21436 45.5265 5.21889 45.8534 5.18417C46.1214 5.15699 46.3368 4.97283 46.3428 4.70412C46.3473 4.52146 46.254 4.25276 46.1154 4.16671C45.0566 3.50854 44.0084 2.81564 42.8924 2.27069C41.3307 1.50835 39.7192 1.5627 38.1559 2.34617C37.9436 2.45335 37.8261 2.39749 37.6649 2.26616C37.1709 1.86159 36.6935 1.81329 36.2312 2.09105C35.8426 2.32503 35.5791 2.83376 35.7041 3.27606C35.7914 3.58402 35.9767 3.87084 36.1589 4.14105C36.3065 4.35843 36.3848 4.56071 36.2432 4.79319C35.433 6.11557 34.3998 7.15718 32.8094 7.47268C31.9705 7.63874 31.1678 7.48929 30.4012 7.1285C29.3078 6.61524 28.1828 6.20162 26.9795 6.03859C24.496 5.69893 22.2008 6.24238 20.0772 7.54665C17.5621 9.08944 15.8347 11.301 14.8964 14.0695C13.7081 17.5763 11.4852 20.138 8.26376 21.8786C8.2246 21.8997 8.18845 21.9299 8.07399 22.0084C8.24267 22.031 8.33454 22.0522 8.42641 22.0522C9.86469 22.0597 11.303 22.0869 12.7413 22.0642C14.5094 22.0371 15.9973 20.2331 15.6585 18.5333C15.6012 18.251 15.4085 17.9869 15.2413 17.7378C15.0967 17.5219 14.8633 17.3423 15.1088 17.0645C15.3136 16.8336 15.6766 16.8305 15.9356 17.0721C16.413 17.5174 16.5862 18.1046 16.6344 18.7296C16.7955 20.8113 15.1886 22.7496 13.1057 22.9187C12.05 23.0047 10.9852 22.976 9.92493 22.9805C7.11915 22.9896 4.31187 22.9881 1.50609 22.9911C1.38862 22.9911 1.24404 23.0289 1.15819 22.976C1.00307 22.8809 0.789211 22.7405 0.772644 22.5986C0.756078 22.4537 0.920238 22.2529 1.05578 22.1367C1.14464 22.0597 1.32537 22.0763 1.46392 22.0763C2.30129 22.0703 3.14167 22.025 3.97451 22.0778C5.27273 22.1624 6.45047 21.7895 7.57097 21.2098C10.6463 19.6187 12.8211 17.223 13.9597 13.9186C14.9536 11.0338 16.663 8.66676 19.2203 6.99868C22.8107 4.65883 26.621 4.38409 30.4946 6.19709C32.71 7.23417 34.2914 6.08085 35.1468 4.70261C35.204 4.61204 35.1724 4.41277 35.1092 4.30861C34.3832 3.09642 34.8034 1.70611 36.0715 1.17625C36.677 0.922637 37.2658 0.998115 37.8517 1.26531C37.9842 1.32569 38.177 1.35136 38.308 1.30154C40.4632 0.48335 42.4723 0.821495 44.3759 2.04425C44.6334 2.2103 44.8699 2.40957 45.1335 2.56505C45.4859 2.77187 45.8428 2.98321 46.2208 3.13567C46.8865 3.40438 47.3202 3.99915 47.2705 4.65582C47.2133 5.42872 46.757 5.93442 45.9708 6.06123C45.6937 6.10652 45.4061 6.1201 45.1259 6.1035C43.0099 5.97518 41.656 7.06963 40.7584 8.85998C40.3788 9.61628 40.2463 10.4375 40.1891 11.2889C40.0535 13.3027 39.3397 15.1187 38.0399 16.6554C37.5294 17.2593 37.2764 17.8465 37.3743 18.6239C37.4285 19.0541 37.3938 19.498 37.3893 19.9342C37.3878 20.1154 37.442 20.1939 37.6348 20.2422C38.6936 20.5048 39.2824 21.2445 39.5626 22.2559C39.6876 22.7058 39.4662 22.97 39.0129 22.9685C37.4917 22.9654 35.9706 22.9549 34.4495 22.9609C34.1844 22.9609 33.9977 22.8885 33.8667 22.656C33.2929 21.64 32.7085 20.6301 32.1453 19.6082C32.0398 19.4164 31.948 19.3168 31.7115 19.2821C30.7326 19.1417 29.8395 18.7417 28.9464 18.3341C28.478 18.1197 27.9916 17.9084 27.4915 17.8072C26.0307 17.5098 24.493 18.6752 24.3062 20.209L24.3032 20.2075Z"/>
<path d="M43.6833 3.72C43.6878 4.13061 43.4242 4.42346 43.0567 4.41742C42.6727 4.41139 42.3926 4.10645 42.3956 3.69887C42.3986 3.33355 42.6637 3.08749 43.0628 3.07843C43.4604 3.06937 43.6803 3.29732 43.6848 3.72H43.6833Z"/>
<path d="M37.1455 2.79463C37.4301 2.78557 37.6651 3.05126 37.6711 3.3894C37.6771 3.72 37.4527 3.95248 37.1289 3.95398C36.8458 3.95398 36.5973 3.70641 36.5867 3.41205C36.5762 3.09655 36.8398 2.80671 37.1455 2.79614V2.79463Z"/>
</mask>
<path d="M24.3032 20.2075C24.4388 20.2422 24.5517 20.2709 24.6647 20.298C25.737 20.5547 26.359 21.2717 26.6647 22.2937C26.7792 22.6786 26.5744 22.9564 26.1707 22.9579C24.0608 22.9639 21.9493 22.9609 19.8393 22.9488C19.7248 22.9488 19.5667 22.8598 19.5034 22.7632C19.139 22.2122 18.7866 21.6521 18.4492 21.083C18.2353 20.7237 18.398 20.3297 18.782 20.3086C19.9944 20.2422 20.8483 19.5659 21.5577 18.6767C22.9809 16.8924 22.9945 14.1858 21.5697 12.4648C21.2249 12.0467 20.7414 11.7403 20.3062 11.4036C20.0878 11.2345 19.8122 11.1198 19.9839 10.7681C20.1074 10.516 20.4266 10.4405 20.7595 10.6051C21.4929 10.9689 22.1014 11.4927 22.5472 12.1765C24.4087 15.0311 23.4131 18.3371 21.5833 20.0127C21.1255 20.4324 20.511 20.68 19.9658 21C19.8574 21.0634 19.7308 21.0951 19.5787 21.1555C19.7459 21.4468 19.8905 21.7125 20.0531 21.9676C20.0878 22.0235 20.1902 22.0627 20.261 22.0627C22.0155 22.0673 23.7686 22.0672 25.615 22.0672C25.4975 21.9012 25.4373 21.794 25.3575 21.708C25.0035 21.3261 24.5382 21.1736 24.0442 21.074C23.5261 20.9713 23.4478 20.8641 23.4372 20.3328C23.4086 18.9213 24.3695 17.5989 25.7671 17.1053C26.6738 16.7852 27.5729 16.7928 28.4614 17.1491C29.0624 17.3906 29.6452 17.6789 30.2461 17.9205C30.71 18.1076 31.1919 18.2526 31.716 18.4337C31.6573 17.8525 31.5955 17.3528 31.5624 16.8517C31.5413 16.5347 31.5594 16.2146 31.5699 15.8961C31.579 15.5791 31.7657 15.4206 32.0669 15.413C32.329 15.4055 32.5112 15.6259 32.4901 15.952C32.3953 17.3393 32.6302 18.6677 33.2673 19.901C33.6121 20.5698 34.0384 21.1977 34.4495 21.8302C34.5248 21.9465 34.7055 22.0627 34.8381 22.0627C35.9586 22.0733 37.0776 22.0597 38.1981 22.0491C38.2764 22.0491 38.3532 22.0265 38.4887 22.0054C38.2433 21.5238 37.8999 21.243 37.4164 21.1238C36.5203 20.9019 36.5233 20.9004 36.5173 19.9659C36.5113 19.2564 36.4962 18.5484 36.4857 17.8389C36.4782 17.3242 36.6197 16.8743 36.9797 16.4818C38.2433 15.1021 39.0113 13.4838 39.2598 11.6225C39.3457 10.9794 39.3668 10.3228 39.5189 9.69629C39.9617 7.87725 40.9376 6.44466 42.6605 5.59628C43.3593 5.2521 44.1033 5.18568 44.8654 5.2053C45.1952 5.21436 45.5265 5.21889 45.8534 5.18417C46.1214 5.15699 46.3368 4.97283 46.3428 4.70412C46.3473 4.52146 46.254 4.25276 46.1154 4.16671C45.0566 3.50854 44.0084 2.81564 42.8924 2.27069C41.3307 1.50835 39.7192 1.5627 38.1559 2.34617C37.9436 2.45335 37.8261 2.39749 37.6649 2.26616C37.1709 1.86159 36.6935 1.81329 36.2312 2.09105C35.8426 2.32503 35.5791 2.83376 35.7041 3.27606C35.7914 3.58402 35.9767 3.87084 36.1589 4.14105C36.3065 4.35843 36.3848 4.56071 36.2432 4.79319C35.433 6.11557 34.3998 7.15718 32.8094 7.47268C31.9705 7.63874 31.1678 7.48929 30.4012 7.1285C29.3078 6.61524 28.1828 6.20162 26.9795 6.03859C24.496 5.69893 22.2008 6.24238 20.0772 7.54665C17.5621 9.08944 15.8347 11.301 14.8964 14.0695C13.7081 17.5763 11.4852 20.138 8.26376 21.8786C8.2246 21.8997 8.18845 21.9299 8.07399 22.0084C8.24267 22.031 8.33454 22.0522 8.42641 22.0522C9.86469 22.0597 11.303 22.0869 12.7413 22.0642C14.5094 22.0371 15.9973 20.2331 15.6585 18.5333C15.6012 18.251 15.4085 17.9869 15.2413 17.7378C15.0967 17.5219 14.8633 17.3423 15.1088 17.0645C15.3136 16.8336 15.6766 16.8305 15.9356 17.0721C16.413 17.5174 16.5862 18.1046 16.6344 18.7296C16.7955 20.8113 15.1886 22.7496 13.1057 22.9187C12.05 23.0047 10.9852 22.976 9.92493 22.9805C7.11915 22.9896 4.31187 22.9881 1.50609 22.9911C1.38862 22.9911 1.24404 23.0289 1.15819 22.976C1.00307 22.8809 0.789211 22.7405 0.772644 22.5986C0.756078 22.4537 0.920238 22.2529 1.05578 22.1367C1.14464 22.0597 1.32537 22.0763 1.46392 22.0763C2.30129 22.0703 3.14167 22.025 3.97451 22.0778C5.27273 22.1624 6.45047 21.7895 7.57097 21.2098C10.6463 19.6187 12.8211 17.223 13.9597 13.9186C14.9536 11.0338 16.663 8.66676 19.2203 6.99868C22.8107 4.65883 26.621 4.38409 30.4946 6.19709C32.71 7.23417 34.2914 6.08085 35.1468 4.70261C35.204 4.61204 35.1724 4.41277 35.1092 4.30861C34.3832 3.09642 34.8034 1.70611 36.0715 1.17625C36.677 0.922637 37.2658 0.998115 37.8517 1.26531C37.9842 1.32569 38.177 1.35136 38.308 1.30154C40.4632 0.48335 42.4723 0.821495 44.3759 2.04425C44.6334 2.2103 44.8699 2.40957 45.1335 2.56505C45.4859 2.77187 45.8428 2.98321 46.2208 3.13567C46.8865 3.40438 47.3202 3.99915 47.2705 4.65582C47.2133 5.42872 46.757 5.93442 45.9708 6.06123C45.6937 6.10652 45.4061 6.1201 45.1259 6.1035C43.0099 5.97518 41.656 7.06963 40.7584 8.85998C40.3788 9.61628 40.2463 10.4375 40.1891 11.2889C40.0535 13.3027 39.3397 15.1187 38.0399 16.6554C37.5294 17.2593 37.2764 17.8465 37.3743 18.6239C37.4285 19.0541 37.3938 19.498 37.3893 19.9342C37.3878 20.1154 37.442 20.1939 37.6348 20.2422C38.6936 20.5048 39.2824 21.2445 39.5626 22.2559C39.6876 22.7058 39.4662 22.97 39.0129 22.9685C37.4917 22.9654 35.9706 22.9549 34.4495 22.9609C34.1844 22.9609 33.9977 22.8885 33.8667 22.656C33.2929 21.64 32.7085 20.6301 32.1453 19.6082C32.0398 19.4164 31.948 19.3168 31.7115 19.2821C30.7326 19.1417 29.8395 18.7417 28.9464 18.3341C28.478 18.1197 27.9916 17.9084 27.4915 17.8072C26.0307 17.5098 24.493 18.6752 24.3062 20.209L24.3032 20.2075Z" fill="#FFEB61"/>
<path d="M43.6833 3.72C43.6878 4.13061 43.4242 4.42346 43.0567 4.41742C42.6727 4.41139 42.3926 4.10645 42.3956 3.69887C42.3986 3.33355 42.6637 3.08749 43.0628 3.07843C43.4604 3.06937 43.6803 3.29732 43.6848 3.72H43.6833Z" fill="#FFEB61"/>
<path d="M37.1455 2.79463C37.4301 2.78557 37.6651 3.05126 37.6711 3.3894C37.6771 3.72 37.4527 3.95248 37.1289 3.95398C36.8458 3.95398 36.5973 3.70641 36.5867 3.41205C36.5762 3.09655 36.8398 2.80671 37.1455 2.79614V2.79463Z" fill="#FFEB61"/>
<path d="M24.3032 20.2075C24.4388 20.2422 24.5517 20.2709 24.6647 20.298C25.737 20.5547 26.359 21.2717 26.6647 22.2937C26.7792 22.6786 26.5744 22.9564 26.1707 22.9579C24.0608 22.9639 21.9493 22.9609 19.8393 22.9488C19.7248 22.9488 19.5667 22.8598 19.5034 22.7632C19.139 22.2122 18.7866 21.6521 18.4492 21.083C18.2353 20.7237 18.398 20.3297 18.782 20.3086C19.9944 20.2422 20.8483 19.5659 21.5577 18.6767C22.9809 16.8924 22.9945 14.1858 21.5697 12.4648C21.2249 12.0467 20.7414 11.7403 20.3062 11.4036C20.0878 11.2345 19.8122 11.1198 19.9839 10.7681C20.1074 10.516 20.4266 10.4405 20.7595 10.6051C21.4929 10.9689 22.1014 11.4927 22.5472 12.1765C24.4087 15.0311 23.4131 18.3371 21.5833 20.0127C21.1255 20.4324 20.511 20.68 19.9658 21C19.8574 21.0634 19.7308 21.0951 19.5787 21.1555C19.7459 21.4468 19.8905 21.7125 20.0531 21.9676C20.0878 22.0235 20.1902 22.0627 20.261 22.0627C22.0155 22.0673 23.7686 22.0672 25.615 22.0672C25.4975 21.9012 25.4373 21.794 25.3575 21.708C25.0035 21.3261 24.5382 21.1736 24.0442 21.074C23.5261 20.9713 23.4478 20.8641 23.4372 20.3328C23.4086 18.9213 24.3695 17.5989 25.7671 17.1053C26.6738 16.7852 27.5729 16.7928 28.4614 17.1491C29.0624 17.3906 29.6452 17.6789 30.2461 17.9205C30.71 18.1076 31.1919 18.2526 31.716 18.4337C31.6573 17.8525 31.5955 17.3528 31.5624 16.8517C31.5413 16.5347 31.5594 16.2146 31.5699 15.8961C31.579 15.5791 31.7657 15.4206 32.0669 15.413C32.329 15.4055 32.5112 15.6259 32.4901 15.952C32.3953 17.3393 32.6302 18.6677 33.2673 19.901C33.6121 20.5698 34.0384 21.1977 34.4495 21.8302C34.5248 21.9465 34.7055 22.0627 34.8381 22.0627C35.9586 22.0733 37.0776 22.0597 38.1981 22.0491C38.2764 22.0491 38.3532 22.0265 38.4887 22.0054C38.2433 21.5238 37.8999 21.243 37.4164 21.1238C36.5203 20.9019 36.5233 20.9004 36.5173 19.9659C36.5113 19.2564 36.4962 18.5484 36.4857 17.8389C36.4782 17.3242 36.6197 16.8743 36.9797 16.4818C38.2433 15.1021 39.0113 13.4838 39.2598 11.6225C39.3457 10.9794 39.3668 10.3228 39.5189 9.69629C39.9617 7.87725 40.9376 6.44466 42.6605 5.59628C43.3593 5.2521 44.1033 5.18568 44.8654 5.2053C45.1952 5.21436 45.5265 5.21889 45.8534 5.18417C46.1214 5.15699 46.3368 4.97283 46.3428 4.70412C46.3473 4.52146 46.254 4.25276 46.1154 4.16671C45.0566 3.50854 44.0084 2.81564 42.8924 2.27069C41.3307 1.50835 39.7192 1.5627 38.1559 2.34617C37.9436 2.45335 37.8261 2.39749 37.6649 2.26616C37.1709 1.86159 36.6935 1.81329 36.2312 2.09105C35.8426 2.32503 35.5791 2.83376 35.7041 3.27606C35.7914 3.58402 35.9767 3.87084 36.1589 4.14105C36.3065 4.35843 36.3848 4.56071 36.2432 4.79319C35.433 6.11557 34.3998 7.15718 32.8094 7.47268C31.9705 7.63874 31.1678 7.48929 30.4012 7.1285C29.3078 6.61524 28.1828 6.20162 26.9795 6.03859C24.496 5.69893 22.2008 6.24238 20.0772 7.54665C17.5621 9.08944 15.8347 11.301 14.8964 14.0695C13.7081 17.5763 11.4852 20.138 8.26376 21.8786C8.2246 21.8997 8.18845 21.9299 8.07399 22.0084C8.24267 22.031 8.33454 22.0522 8.42641 22.0522C9.86469 22.0597 11.303 22.0869 12.7413 22.0642C14.5094 22.0371 15.9973 20.2331 15.6585 18.5333C15.6012 18.251 15.4085 17.9869 15.2413 17.7378C15.0967 17.5219 14.8633 17.3423 15.1088 17.0645C15.3136 16.8336 15.6766 16.8305 15.9356 17.0721C16.413 17.5174 16.5862 18.1046 16.6344 18.7296C16.7955 20.8113 15.1886 22.7496 13.1057 22.9187C12.05 23.0047 10.9852 22.976 9.92493 22.9805C7.11915 22.9896 4.31187 22.9881 1.50609 22.9911C1.38862 22.9911 1.24404 23.0289 1.15819 22.976C1.00307 22.8809 0.789211 22.7405 0.772644 22.5986C0.756078 22.4537 0.920238 22.2529 1.05578 22.1367C1.14464 22.0597 1.32537 22.0763 1.46392 22.0763C2.30129 22.0703 3.14167 22.025 3.97451 22.0778C5.27273 22.1624 6.45047 21.7895 7.57097 21.2098C10.6463 19.6187 12.8211 17.223 13.9597 13.9186C14.9536 11.0338 16.663 8.66676 19.2203 6.99868C22.8107 4.65883 26.621 4.38409 30.4946 6.19709C32.71 7.23417 34.2914 6.08085 35.1468 4.70261C35.204 4.61204 35.1724 4.41277 35.1092 4.30861C34.3832 3.09642 34.8034 1.70611 36.0715 1.17625C36.677 0.922637 37.2658 0.998115 37.8517 1.26531C37.9842 1.32569 38.177 1.35136 38.308 1.30154C40.4632 0.48335 42.4723 0.821495 44.3759 2.04425C44.6334 2.2103 44.8699 2.40957 45.1335 2.56505C45.4859 2.77187 45.8428 2.98321 46.2208 3.13567C46.8865 3.40438 47.3202 3.99915 47.2705 4.65582C47.2133 5.42872 46.757 5.93442 45.9708 6.06123C45.6937 6.10652 45.4061 6.1201 45.1259 6.1035C43.0099 5.97518 41.656 7.06963 40.7584 8.85998C40.3788 9.61628 40.2463 10.4375 40.1891 11.2889C40.0535 13.3027 39.3397 15.1187 38.0399 16.6554C37.5294 17.2593 37.2764 17.8465 37.3743 18.6239C37.4285 19.0541 37.3938 19.498 37.3893 19.9342C37.3878 20.1154 37.442 20.1939 37.6348 20.2422C38.6936 20.5048 39.2824 21.2445 39.5626 22.2559C39.6876 22.7058 39.4662 22.97 39.0129 22.9685C37.4917 22.9654 35.9706 22.9549 34.4495 22.9609C34.1844 22.9609 33.9977 22.8885 33.8667 22.656C33.2929 21.64 32.7085 20.6301 32.1453 19.6082C32.0398 19.4164 31.948 19.3168 31.7115 19.2821C30.7326 19.1417 29.8395 18.7417 28.9464 18.3341C28.478 18.1197 27.9916 17.9084 27.4915 17.8072C26.0307 17.5098 24.493 18.6752 24.3062 20.209L24.3032 20.2075Z" stroke="#FFEB61" stroke-width="0.4" mask="url(#path-1-outside-1_267_1398)"/>
<path d="M43.6833 3.72C43.6878 4.13061 43.4242 4.42346 43.0567 4.41742C42.6727 4.41139 42.3926 4.10645 42.3956 3.69887C42.3986 3.33355 42.6637 3.08749 43.0628 3.07843C43.4604 3.06937 43.6803 3.29732 43.6848 3.72H43.6833Z" stroke="#FFEB61" stroke-width="0.4" mask="url(#path-1-outside-1_267_1398)"/>
<path d="M37.1455 2.79463C37.4301 2.78557 37.6651 3.05126 37.6711 3.3894C37.6771 3.72 37.4527 3.95248 37.1289 3.95398C36.8458 3.95398 36.5973 3.70641 36.5867 3.41205C36.5762 3.09655 36.8398 2.80671 37.1455 2.79614V2.79463Z" stroke="#FFEB61" stroke-width="0.4" mask="url(#path-1-outside-1_267_1398)"/>
</g>
<defs>
<clipPath id="clip0_267_1398">
<rect width="48" height="23" fill="white"/>
</clipPath>
</defs>
</svg>
