<svg width="48" height="39" viewBox="0 0 48 39" fill="none" xmlns="http://www.w3.org/2000/svg">
<g clip-path="url(#clip0_267_1402)">
<path d="M18.2319 22.1775C12.2753 23.9678 6.31878 25.758 0.337482 27.557C0.218238 27.1562 0.111369 26.7959 0 26.417C6.32778 24.5477 12.6432 22.6838 18.9203 20.7036C18.9147 20.6684 18.9091 20.6333 18.9035 20.5981C17.0968 20.4092 15.289 20.2203 13.4621 20.0292C13.5308 19.6338 13.5938 19.2725 13.6601 18.8892C15.4983 19.0671 17.3173 19.2428 19.1375 19.4185C19.1465 19.3911 19.1555 19.3636 19.1645 19.3351C19.0497 19.267 18.9395 19.1923 18.8213 19.133C16.7683 18.1137 14.7097 17.1055 12.6612 16.0775C11.4766 15.4833 10.2673 14.922 9.14237 14.2323C7.52134 13.2383 5.96667 12.14 4.38389 11.0867C4.17352 10.9473 3.96203 10.81 3.72017 10.6518C3.94853 10.3201 4.16677 10.0027 4.39738 9.66882C4.91598 10.0148 5.40983 10.3443 5.90255 10.6749C7.17598 11.5294 8.43029 12.4124 9.72847 13.2274C10.5126 13.7194 11.3585 14.1214 12.1921 14.5354C14.433 15.6491 16.6817 16.7485 18.9282 17.8534C19.0733 17.9248 19.2162 18.0017 19.3962 18.0314C19.3512 17.9765 19.3084 17.9171 19.2589 17.8655C17.4647 16.0105 15.676 14.1488 13.8671 12.3081C13.4959 11.9302 13.2495 11.5206 13.0752 11.0274C11.8434 7.54248 10.5902 4.06522 9.34374 0.584668C9.32349 0.528654 9.30887 0.470443 9.28074 0.378185C9.65197 0.256272 10.0153 0.137654 10.4079 0.00915176C10.4664 0.157424 10.5182 0.281533 10.5632 0.407839C11.6825 3.53913 12.8322 6.66054 13.9009 9.8072C14.2305 10.7792 14.7266 11.5766 15.4589 12.296C16.9641 13.7765 18.4175 15.3054 19.8957 16.8122C20.0577 16.9781 20.2376 17.1264 20.4638 17.2527C20.4469 17.1659 20.4379 17.0758 20.4109 16.9913C20.1971 16.3345 20.0239 15.6612 19.7539 15.0275C19.0452 13.3646 19.7337 11.425 21.0813 10.3465C23.743 8.21465 27.7567 9.57326 28.4756 12.8583C28.6454 13.6359 28.5082 14.3773 28.2225 15.111C27.9817 15.7304 27.7837 16.3652 27.57 16.9946C27.5407 17.0802 27.5295 17.1714 27.5655 17.2955C27.6555 17.223 27.7534 17.1582 27.8332 17.0758C29.5026 15.3669 31.1709 13.6557 32.8381 11.9445C32.9539 11.8259 33.0574 11.693 33.1879 11.592C33.5558 11.3097 33.6998 10.9077 33.8471 10.4991C35.0092 7.26461 36.1746 4.03117 37.3401 0.796642C37.4335 0.53744 37.5313 0.279337 37.6359 -0.00292969C37.9824 0.109098 38.3165 0.206848 38.6405 0.332056C38.6844 0.348531 38.7136 0.506688 38.6878 0.57698C38.2738 1.72252 37.8441 2.86147 37.4301 4.00701C36.5234 6.51666 35.6268 9.0296 34.719 11.5392C34.6684 11.6798 34.584 11.8215 34.4794 11.9302C32.5838 13.9171 30.6816 15.8984 28.7816 17.882C28.7219 17.9435 28.6691 18.0116 28.5858 18.1094C28.6544 18.0995 28.6848 18.1028 28.7096 18.0907C31.0427 16.9265 33.3567 15.7238 35.7146 14.6079C37.5381 13.7458 39.194 12.6419 40.8465 11.5206C41.724 10.9253 42.5992 10.3278 43.4755 9.73142C43.5104 9.70835 43.5486 9.68968 43.6071 9.65564C43.8276 9.97744 44.0413 10.2894 44.2731 10.6276C44.0076 10.81 43.7522 10.9879 43.4935 11.1614C42.0457 12.1323 40.6215 13.1406 39.1389 14.0588C38.0837 14.7112 36.9554 15.2548 35.8473 15.8216C33.6188 16.9605 31.3813 18.0819 29.1483 19.2121C29.0707 19.2505 28.9998 19.2999 28.9244 19.3439C28.9289 19.3691 28.9334 19.3944 28.9379 19.4207C30.7322 19.2472 32.5276 19.0748 34.3444 18.899C34.4017 19.2889 34.4535 19.636 34.512 20.027C32.7098 20.2225 30.9302 20.4169 29.1505 20.6102C29.1449 20.6267 29.1382 20.6432 29.1325 20.6596C29.236 20.7091 29.335 20.7717 29.4441 20.8057C31.1068 21.3274 32.7672 21.8568 34.4355 22.3609C37.6629 23.3362 40.8949 24.2962 44.1257 25.2616C45.3575 25.6295 46.5893 25.993 47.8223 26.3599C47.8718 26.3742 47.9213 26.3928 48.0023 26.4214C47.9021 26.7893 47.8031 27.1507 47.6951 27.5483C41.7195 25.758 35.7629 23.9732 29.767 22.1764C29.767 22.4092 29.767 22.6366 29.767 22.8639C29.7681 23.2352 29.7794 23.6053 29.7681 23.9765C29.7636 24.1424 29.8232 24.2456 29.9549 24.3445C31.7356 25.6756 33.5108 27.0123 35.2938 28.3412C35.4378 28.4489 35.4851 28.5587 35.4963 28.7256C35.6628 31.0815 35.8372 33.4374 36.0093 35.7933C36.079 36.7565 36.1499 37.7186 36.2106 38.683C36.2151 38.751 36.1431 38.8796 36.0948 38.885C35.7472 38.9268 35.3973 38.9433 35.0205 38.9696C34.9901 38.5314 34.9631 38.1206 34.9316 37.7098C34.7381 35.1046 34.5435 32.5005 34.35 29.8953C34.35 29.8866 34.3477 29.8778 34.3489 29.8701C34.4501 29.2946 34.1475 28.9585 33.693 28.6301C32.4736 27.7471 31.2924 26.8135 30.0955 25.9008C30.0077 25.8338 29.9166 25.7712 29.7906 25.68C29.7827 25.8074 29.7726 25.8887 29.7726 25.97C29.7726 26.7201 29.776 27.4703 29.7726 28.2204C29.7726 28.3204 29.7692 28.4357 29.722 28.5192C28.7321 30.2468 27.4991 31.7724 25.8342 32.9333C25.5541 33.1277 25.2594 33.3023 24.9635 33.4737C24.3493 33.8284 23.734 33.8295 23.1051 33.4846C21.9993 32.8795 21.0453 32.0953 20.2061 31.1738C19.4761 30.372 18.8337 29.5087 18.3185 28.5598C18.26 28.4522 18.2319 28.316 18.2308 28.193C18.2251 27.4692 18.2308 26.7443 18.233 26.0205C18.233 25.9282 18.233 25.8349 18.233 25.68C18.1059 25.769 18.0226 25.8228 17.9439 25.8821C16.5906 26.9068 15.2384 27.9338 13.8806 28.953C13.7265 29.0694 13.6703 29.1891 13.6601 29.3824C13.578 30.8717 13.4869 32.36 13.3834 33.8471C13.2709 35.455 13.1427 37.0618 13.0212 38.6698C13.0133 38.7719 13.002 38.873 12.9908 38.9971C12.6162 38.9641 12.2573 38.94 11.903 38.8927C11.8535 38.8861 11.7826 38.7609 11.7871 38.695C11.8895 37.2936 12.0087 35.8932 12.11 34.4929C12.2472 32.5928 12.3754 30.6927 12.4958 28.7915C12.5104 28.5642 12.5802 28.4159 12.7669 28.2764C14.514 26.9881 16.2531 25.6888 18.0001 24.4016C18.1756 24.272 18.2409 24.1413 18.2364 23.9304C18.2229 23.3549 18.2319 22.7783 18.2319 22.1764V22.1775ZM23.2975 28.4555C23.284 28.2523 23.2784 28.0732 23.2604 27.8942C23.1591 26.8629 22.8464 25.9052 22.1962 25.0716C21.9464 24.7519 21.6539 24.5114 21.2467 24.3675C20.9565 24.2643 20.6505 24.0644 20.4728 23.8228C20.1364 23.3659 19.8867 22.8475 19.6032 22.3543C19.5638 22.2851 19.5346 22.2094 19.4682 22.0666C19.4513 22.1775 19.4423 22.2083 19.4423 22.2379C19.4367 24.1863 19.4299 26.1336 19.4311 28.082C19.4311 28.1864 19.4738 28.3039 19.5346 28.3918C19.827 28.8124 20.1206 29.2331 20.4334 29.6383C21.3097 30.7718 22.3593 31.7185 23.6102 32.4511C23.9027 32.6225 24.1659 32.6763 24.455 32.4478C24.6328 32.3083 24.8431 32.2095 25.0299 32.0799C26.4676 31.0892 27.5644 29.7943 28.4913 28.3511C28.5397 28.2764 28.5644 28.1732 28.5644 28.0842C28.5644 26.1798 28.5588 24.2742 28.5532 22.3697C28.5532 22.2994 28.5363 22.2302 28.5284 22.1687C28.272 22.6267 28.038 23.088 27.7646 23.524C27.4969 23.9502 27.1369 24.283 26.6228 24.4367C26.4529 24.4873 26.2988 24.6103 26.1582 24.7245C25.7217 25.0803 25.4337 25.5427 25.2144 26.048C24.9151 26.7377 24.7644 27.4593 24.7228 28.2061C24.7183 28.2918 24.635 28.4434 24.5822 28.4456C24.1614 28.4653 23.7385 28.4566 23.2952 28.4566L23.2975 28.4555ZM23.9961 25.8151C24.1457 25.535 24.2728 25.2736 24.4224 25.0243C24.8533 24.3038 25.3921 23.6943 26.2201 23.3802C26.3517 23.3296 26.4687 23.2154 26.5654 23.1078C27.2078 22.3873 27.5644 21.5548 27.5745 20.5904C27.5902 19.0869 26.6352 17.7919 25.1469 17.3043C23.68 16.8232 22.0814 17.2834 21.1871 18.4608C20.0149 20.0039 20.3884 22.0193 21.5583 23.2297C21.6112 23.2846 21.6776 23.3428 21.7496 23.3637C22.6473 23.6284 23.1625 24.2962 23.6046 25.0375C23.7486 25.2791 23.8588 25.5394 23.9972 25.8162L23.9961 25.8151ZM26.3843 16.597C26.4293 16.5025 26.4687 16.4355 26.4957 16.3652C26.7409 15.7106 27.0255 15.0659 27.2111 14.3949C27.3225 13.9918 27.3653 13.5327 27.291 13.1241C26.9715 11.3602 25.2807 10.2312 23.4583 10.5145C21.6461 10.7957 20.385 12.4607 20.7202 14.1895C20.8091 14.6475 21.0442 15.0769 21.2118 15.5206C21.348 15.882 21.483 16.2444 21.6224 16.6189C23.2109 15.7183 24.7824 15.7656 26.3843 16.5981V16.597Z" fill="#FFEB61"/>
</g>
<defs>
<clipPath id="clip0_267_1402">
<rect width="48" height="39" fill="white"/>
</clipPath>
</defs>
</svg>
