<svg width="47" height="26" viewBox="0 0 47 26" fill="none" xmlns="http://www.w3.org/2000/svg">
<mask id="path-1-outside-1_163_5072" maskUnits="userSpaceOnUse" x="-0.201965" y="0.12793" width="48" height="26" fill="black">
<rect fill="white" x="-0.201965" y="0.12793" width="48" height="26"/>
<path d="M24.1645 18.1204C22.8547 18.8388 21.6029 18.6114 20.3635 18.4023C18.7055 18.1204 17.1263 17.5384 15.4766 16.7927C15.0662 18.3977 14.4196 19.8345 13.4082 21.0849C13.802 21.8487 14.1999 22.5444 14.5274 23.2809C14.83 23.963 15.4517 24.5222 15.3149 25.4634C14.4196 25.6589 13.5574 25.5498 12.7036 25.5225C12.5543 25.518 12.3637 25.3179 12.2683 25.1542C11.4932 23.8447 10.743 22.5216 9.972 21.2122C9.7233 20.7939 9.85593 20.4801 10.1088 20.1437C10.6435 19.4253 11.0538 18.6296 11.2279 17.7066C11.2818 17.4202 11.2943 17.1201 11.1906 16.7518C9.63211 18.3932 8.07358 20.0346 6.45702 21.7396C6.71816 22.5716 6.98759 23.431 7.25287 24.2903C7.32334 24.5222 7.41451 24.7495 7.44767 24.9905C7.49327 25.3088 7.36478 25.5498 7.05391 25.5589C6.32853 25.5861 5.60315 25.6134 4.88192 25.5634C4.69539 25.5498 4.43425 25.2952 4.35964 25.086C3.89126 23.7129 3.44773 22.3261 3.03323 20.9303C2.97935 20.7484 3.09541 20.4847 3.19075 20.2846C3.24878 20.1619 3.40629 20.0982 3.51406 20.0027C4.4384 19.1798 4.72854 18.1249 4.28917 16.8927C3.98659 16.0425 3.59282 15.2332 3.18246 14.2647C2.94205 14.7376 2.78039 15.1241 2.56071 15.456C2.42807 15.656 2.19179 15.9015 2.00941 15.897C1.83947 15.8879 1.61978 15.6015 1.53274 15.3832C0.471615 12.7779 0.55037 10.2136 1.83118 7.72194C3.44774 4.57104 5.90574 2.67958 9.13056 1.99756C11.0994 1.57926 13.0725 1.76114 15.0372 2.06577C17.3501 2.42951 19.6631 2.7978 21.9801 3.14335C23.3563 3.34795 24.7158 3.13426 26.0256 2.70231C29.0018 1.72021 31.9572 1.76114 34.9167 2.73414C35.4183 2.89783 35.7789 2.89328 36.1851 2.46134C37.0721 1.5247 38.2203 1.23826 39.4016 1.12914C39.6255 1.11095 39.87 1.30191 40.1975 1.43831C39.9529 1.83843 39.7954 2.12033 39.6172 2.38859C39.1032 3.16608 38.7757 4.02542 38.5353 4.94841C38.3778 5.54859 38.5353 5.91233 38.9125 6.31244C40.0275 7.4855 41.2586 8.48125 42.5933 9.31785C43.729 10.0317 44.9021 10.6682 46.0627 11.3366C46.7093 11.7094 46.7715 11.8458 46.415 12.5324C45.4119 14.4511 44.1394 16.0425 42.0005 16.3744C41.3166 16.4835 40.5995 16.5426 39.9239 16.4244C38.3322 16.1471 36.7571 15.7561 35.1778 15.3878C34.8918 15.3196 34.668 15.2923 34.4069 15.506C32.9768 16.6609 31.3727 17.4338 29.6816 17.984C29.2132 18.1386 28.8774 18.3659 28.8401 18.9524C28.8277 19.1297 28.7696 19.3162 28.695 19.4753C28.2225 20.4983 28.2681 21.4986 28.6743 22.5444C28.9355 23.2173 29.0805 23.9402 29.267 24.645C29.466 25.3997 29.3541 25.5589 28.6204 25.5771C28.0899 25.5907 27.5593 25.5543 27.0287 25.5771C26.5645 25.5952 26.3324 25.377 26.1956 24.8905C25.6567 22.9945 25.093 21.1076 24.5334 19.2161C24.4257 18.8751 24.3055 18.5387 24.1645 18.1204ZM24.9438 17.5975C25.6153 19.8663 26.3117 22.217 27.0039 24.5449C27.464 24.5449 27.8619 24.5449 28.3469 24.5449C28.0774 23.581 27.8536 22.699 27.58 21.8351C27.3894 21.2303 27.3686 20.6666 27.5966 20.0618C27.8163 19.4708 27.9945 18.8524 28.1147 18.225C28.2184 17.6748 28.4795 17.4065 28.952 17.2474C30.3655 16.77 31.7416 16.188 33.0224 15.365C34.0753 14.6876 34.9623 13.8282 35.6089 12.6824C35.6835 12.5506 35.7374 12.3778 35.8452 12.3142C35.9903 12.2232 36.2307 12.1323 36.3384 12.2005C36.4628 12.2823 36.5913 12.5779 36.5457 12.7188C36.4421 13.0598 36.2473 13.369 36.069 13.6782C35.9115 13.951 35.7333 14.2011 35.5177 14.533C37.3374 15.0604 39.07 15.4833 40.8482 15.5651C41.7062 15.606 42.5394 15.3878 43.3021 14.8285C43.2026 14.6785 43.1238 14.5875 43.0741 14.4875C42.9166 14.1692 42.7218 13.8601 42.6306 13.5145C42.5187 13.0962 42.7591 12.7143 43.099 12.7006C43.4513 12.687 43.6005 12.928 43.5632 13.2917C43.5135 13.7464 43.8078 13.9192 44.0606 14.1283C44.8772 13.4418 45.2461 12.9098 45.4492 12.1368C45.4078 12.0959 45.3704 12.0459 45.3248 12.0186C45.0305 11.8504 44.7321 11.6822 44.4337 11.5185C42.1871 10.2681 40.0773 8.80406 38.212 6.9217C37.5778 6.28516 37.4286 5.64861 37.6939 4.81655C37.955 3.98904 38.2203 3.16608 38.4897 2.32039C38.4275 2.31584 38.3446 2.2931 38.27 2.31129C38.1332 2.34312 38.0006 2.38404 37.8721 2.44315C36.8193 2.91147 36.0607 3.72988 35.5467 4.83474C35.4597 5.02571 35.3934 5.23031 35.298 5.41673C35.1613 5.68953 34.9582 5.81684 34.6763 5.66225C34.4193 5.5213 34.4152 5.28942 34.5064 5.03935C34.6597 4.62559 34.8214 4.21184 34.9913 3.7708C34.8421 3.7026 34.7468 3.65258 34.6431 3.61621C31.9613 2.7114 29.2795 2.63866 26.5769 3.51619C25.1262 3.9845 23.634 4.27549 22.1169 4.10726C20.4009 3.9163 18.689 3.6344 16.9854 3.34341C14.946 2.99785 12.915 2.57046 10.8424 2.70231C8.58341 2.84781 6.51091 3.60257 4.79901 5.26669C3.12857 6.88988 1.90165 8.8268 1.67782 11.3548C1.59077 12.3187 1.70269 13.2462 2.08403 14.2465C2.54828 13.5372 2.78453 12.9189 2.70992 12.1687C2.68091 11.864 2.71822 11.5139 3.10785 11.5003C3.46018 11.4912 3.59696 11.7595 3.59281 12.105C3.58452 12.9644 3.90369 13.71 4.21871 14.4602C4.47571 15.0695 4.77414 15.6606 5.01455 16.2789C5.6363 17.8794 5.37103 19.3298 4.24358 20.562C4.14825 20.6666 4.00317 20.7211 3.88297 20.7984C4.3182 22.1624 4.70783 23.3901 5.08502 24.5722C5.56999 24.5722 5.95133 24.5722 6.40728 24.5722C6.14615 23.6856 5.91402 22.8717 5.66117 22.067C5.49952 21.5532 5.54926 21.1803 5.97205 20.7984C6.70572 20.1391 7.37722 19.4026 8.06529 18.6887C8.91502 17.8066 9.76474 16.92 10.602 16.0198C11.5305 15.024 12.6165 14.7831 13.8393 15.165C14.2952 15.3059 14.7388 15.4833 15.1864 15.656C16.289 16.0834 17.3791 16.5517 18.49 16.9382C19.8247 17.402 21.1884 17.6839 22.6019 17.6248C23.5677 17.5839 24.2433 17.1019 24.5708 16.088C24.6744 15.7697 24.778 15.456 24.8526 15.1286C24.9314 14.7876 25.064 14.5466 25.4246 14.6467C25.8143 14.7558 25.7562 15.115 25.6775 15.3923C25.4661 16.0925 25.2174 16.7745 24.9438 17.5975ZM14.2455 24.6086C13.6901 23.531 13.2631 22.608 12.7575 21.7441C12.4466 21.2167 12.5046 20.8484 12.8238 20.3574C13.3543 19.5435 13.8269 18.6796 14.2621 17.7976C14.461 17.3929 14.5066 16.9018 14.6268 16.4244C13.7813 16.1107 13.0683 15.7697 12.2849 15.9925C12.2435 16.0743 12.1896 16.1289 12.1896 16.1789C12.1937 17.743 11.8704 19.198 10.9875 20.4665C10.8176 20.712 10.8425 20.9621 10.9958 21.2258C11.5803 22.2261 12.1564 23.2309 12.7243 24.2449C12.8735 24.5131 13.06 24.6268 13.3378 24.6131C13.5865 24.5995 13.8352 24.6086 14.2455 24.6086Z"/>
</mask>
<path d="M24.1645 18.1204C22.8547 18.8388 21.6029 18.6114 20.3635 18.4023C18.7055 18.1204 17.1263 17.5384 15.4766 16.7927C15.0662 18.3977 14.4196 19.8345 13.4082 21.0849C13.802 21.8487 14.1999 22.5444 14.5274 23.2809C14.83 23.963 15.4517 24.5222 15.3149 25.4634C14.4196 25.6589 13.5574 25.5498 12.7036 25.5225C12.5543 25.518 12.3637 25.3179 12.2683 25.1542C11.4932 23.8447 10.743 22.5216 9.972 21.2122C9.7233 20.7939 9.85593 20.4801 10.1088 20.1437C10.6435 19.4253 11.0538 18.6296 11.2279 17.7066C11.2818 17.4202 11.2943 17.1201 11.1906 16.7518C9.63211 18.3932 8.07358 20.0346 6.45702 21.7396C6.71816 22.5716 6.98759 23.431 7.25287 24.2903C7.32334 24.5222 7.41451 24.7495 7.44767 24.9905C7.49327 25.3088 7.36478 25.5498 7.05391 25.5589C6.32853 25.5861 5.60315 25.6134 4.88192 25.5634C4.69539 25.5498 4.43425 25.2952 4.35964 25.086C3.89126 23.7129 3.44773 22.3261 3.03323 20.9303C2.97935 20.7484 3.09541 20.4847 3.19075 20.2846C3.24878 20.1619 3.40629 20.0982 3.51406 20.0027C4.4384 19.1798 4.72854 18.1249 4.28917 16.8927C3.98659 16.0425 3.59282 15.2332 3.18246 14.2647C2.94205 14.7376 2.78039 15.1241 2.56071 15.456C2.42807 15.656 2.19179 15.9015 2.00941 15.897C1.83947 15.8879 1.61978 15.6015 1.53274 15.3832C0.471615 12.7779 0.55037 10.2136 1.83118 7.72194C3.44774 4.57104 5.90574 2.67958 9.13056 1.99756C11.0994 1.57926 13.0725 1.76114 15.0372 2.06577C17.3501 2.42951 19.6631 2.7978 21.9801 3.14335C23.3563 3.34795 24.7158 3.13426 26.0256 2.70231C29.0018 1.72021 31.9572 1.76114 34.9167 2.73414C35.4183 2.89783 35.7789 2.89328 36.1851 2.46134C37.0721 1.5247 38.2203 1.23826 39.4016 1.12914C39.6255 1.11095 39.87 1.30191 40.1975 1.43831C39.9529 1.83843 39.7954 2.12033 39.6172 2.38859C39.1032 3.16608 38.7757 4.02542 38.5353 4.94841C38.3778 5.54859 38.5353 5.91233 38.9125 6.31244C40.0275 7.4855 41.2586 8.48125 42.5933 9.31785C43.729 10.0317 44.9021 10.6682 46.0627 11.3366C46.7093 11.7094 46.7715 11.8458 46.415 12.5324C45.4119 14.4511 44.1394 16.0425 42.0005 16.3744C41.3166 16.4835 40.5995 16.5426 39.9239 16.4244C38.3322 16.1471 36.7571 15.7561 35.1778 15.3878C34.8918 15.3196 34.668 15.2923 34.4069 15.506C32.9768 16.6609 31.3727 17.4338 29.6816 17.984C29.2132 18.1386 28.8774 18.3659 28.8401 18.9524C28.8277 19.1297 28.7696 19.3162 28.695 19.4753C28.2225 20.4983 28.2681 21.4986 28.6743 22.5444C28.9355 23.2173 29.0805 23.9402 29.267 24.645C29.466 25.3997 29.3541 25.5589 28.6204 25.5771C28.0899 25.5907 27.5593 25.5543 27.0287 25.5771C26.5645 25.5952 26.3324 25.377 26.1956 24.8905C25.6567 22.9945 25.093 21.1076 24.5334 19.2161C24.4257 18.8751 24.3055 18.5387 24.1645 18.1204ZM24.9438 17.5975C25.6153 19.8663 26.3117 22.217 27.0039 24.5449C27.464 24.5449 27.8619 24.5449 28.3469 24.5449C28.0774 23.581 27.8536 22.699 27.58 21.8351C27.3894 21.2303 27.3686 20.6666 27.5966 20.0618C27.8163 19.4708 27.9945 18.8524 28.1147 18.225C28.2184 17.6748 28.4795 17.4065 28.952 17.2474C30.3655 16.77 31.7416 16.188 33.0224 15.365C34.0753 14.6876 34.9623 13.8282 35.6089 12.6824C35.6835 12.5506 35.7374 12.3778 35.8452 12.3142C35.9903 12.2232 36.2307 12.1323 36.3384 12.2005C36.4628 12.2823 36.5913 12.5779 36.5457 12.7188C36.4421 13.0598 36.2473 13.369 36.069 13.6782C35.9115 13.951 35.7333 14.2011 35.5177 14.533C37.3374 15.0604 39.07 15.4833 40.8482 15.5651C41.7062 15.606 42.5394 15.3878 43.3021 14.8285C43.2026 14.6785 43.1238 14.5875 43.0741 14.4875C42.9166 14.1692 42.7218 13.8601 42.6306 13.5145C42.5187 13.0962 42.7591 12.7143 43.099 12.7006C43.4513 12.687 43.6005 12.928 43.5632 13.2917C43.5135 13.7464 43.8078 13.9192 44.0606 14.1283C44.8772 13.4418 45.2461 12.9098 45.4492 12.1368C45.4078 12.0959 45.3704 12.0459 45.3248 12.0186C45.0305 11.8504 44.7321 11.6822 44.4337 11.5185C42.1871 10.2681 40.0773 8.80406 38.212 6.9217C37.5778 6.28516 37.4286 5.64861 37.6939 4.81655C37.955 3.98904 38.2203 3.16608 38.4897 2.32039C38.4275 2.31584 38.3446 2.2931 38.27 2.31129C38.1332 2.34312 38.0006 2.38404 37.8721 2.44315C36.8193 2.91147 36.0607 3.72988 35.5467 4.83474C35.4597 5.02571 35.3934 5.23031 35.298 5.41673C35.1613 5.68953 34.9582 5.81684 34.6763 5.66225C34.4193 5.5213 34.4152 5.28942 34.5064 5.03935C34.6597 4.62559 34.8214 4.21184 34.9913 3.7708C34.8421 3.7026 34.7468 3.65258 34.6431 3.61621C31.9613 2.7114 29.2795 2.63866 26.5769 3.51619C25.1262 3.9845 23.634 4.27549 22.1169 4.10726C20.4009 3.9163 18.689 3.6344 16.9854 3.34341C14.946 2.99785 12.915 2.57046 10.8424 2.70231C8.58341 2.84781 6.51091 3.60257 4.79901 5.26669C3.12857 6.88988 1.90165 8.8268 1.67782 11.3548C1.59077 12.3187 1.70269 13.2462 2.08403 14.2465C2.54828 13.5372 2.78453 12.9189 2.70992 12.1687C2.68091 11.864 2.71822 11.5139 3.10785 11.5003C3.46018 11.4912 3.59696 11.7595 3.59281 12.105C3.58452 12.9644 3.90369 13.71 4.21871 14.4602C4.47571 15.0695 4.77414 15.6606 5.01455 16.2789C5.6363 17.8794 5.37103 19.3298 4.24358 20.562C4.14825 20.6666 4.00317 20.7211 3.88297 20.7984C4.3182 22.1624 4.70783 23.3901 5.08502 24.5722C5.56999 24.5722 5.95133 24.5722 6.40728 24.5722C6.14615 23.6856 5.91402 22.8717 5.66117 22.067C5.49952 21.5532 5.54926 21.1803 5.97205 20.7984C6.70572 20.1391 7.37722 19.4026 8.06529 18.6887C8.91502 17.8066 9.76474 16.92 10.602 16.0198C11.5305 15.024 12.6165 14.7831 13.8393 15.165C14.2952 15.3059 14.7388 15.4833 15.1864 15.656C16.289 16.0834 17.3791 16.5517 18.49 16.9382C19.8247 17.402 21.1884 17.6839 22.6019 17.6248C23.5677 17.5839 24.2433 17.1019 24.5708 16.088C24.6744 15.7697 24.778 15.456 24.8526 15.1286C24.9314 14.7876 25.064 14.5466 25.4246 14.6467C25.8143 14.7558 25.7562 15.115 25.6775 15.3923C25.4661 16.0925 25.2174 16.7745 24.9438 17.5975ZM14.2455 24.6086C13.6901 23.531 13.2631 22.608 12.7575 21.7441C12.4466 21.2167 12.5046 20.8484 12.8238 20.3574C13.3543 19.5435 13.8269 18.6796 14.2621 17.7976C14.461 17.3929 14.5066 16.9018 14.6268 16.4244C13.7813 16.1107 13.0683 15.7697 12.2849 15.9925C12.2435 16.0743 12.1896 16.1289 12.1896 16.1789C12.1937 17.743 11.8704 19.198 10.9875 20.4665C10.8176 20.712 10.8425 20.9621 10.9958 21.2258C11.5803 22.2261 12.1564 23.2309 12.7243 24.2449C12.8735 24.5131 13.06 24.6268 13.3378 24.6131C13.5865 24.5995 13.8352 24.6086 14.2455 24.6086Z" fill="#FFEB61"/>
<path d="M24.1645 18.1204C22.8547 18.8388 21.6029 18.6114 20.3635 18.4023C18.7055 18.1204 17.1263 17.5384 15.4766 16.7927C15.0662 18.3977 14.4196 19.8345 13.4082 21.0849C13.802 21.8487 14.1999 22.5444 14.5274 23.2809C14.83 23.963 15.4517 24.5222 15.3149 25.4634C14.4196 25.6589 13.5574 25.5498 12.7036 25.5225C12.5543 25.518 12.3637 25.3179 12.2683 25.1542C11.4932 23.8447 10.743 22.5216 9.972 21.2122C9.7233 20.7939 9.85593 20.4801 10.1088 20.1437C10.6435 19.4253 11.0538 18.6296 11.2279 17.7066C11.2818 17.4202 11.2943 17.1201 11.1906 16.7518C9.63211 18.3932 8.07358 20.0346 6.45702 21.7396C6.71816 22.5716 6.98759 23.431 7.25287 24.2903C7.32334 24.5222 7.41451 24.7495 7.44767 24.9905C7.49327 25.3088 7.36478 25.5498 7.05391 25.5589C6.32853 25.5861 5.60315 25.6134 4.88192 25.5634C4.69539 25.5498 4.43425 25.2952 4.35964 25.086C3.89126 23.7129 3.44773 22.3261 3.03323 20.9303C2.97935 20.7484 3.09541 20.4847 3.19075 20.2846C3.24878 20.1619 3.40629 20.0982 3.51406 20.0027C4.4384 19.1798 4.72854 18.1249 4.28917 16.8927C3.98659 16.0425 3.59282 15.2332 3.18246 14.2647C2.94205 14.7376 2.78039 15.1241 2.56071 15.456C2.42807 15.656 2.19179 15.9015 2.00941 15.897C1.83947 15.8879 1.61978 15.6015 1.53274 15.3832C0.471615 12.7779 0.55037 10.2136 1.83118 7.72194C3.44774 4.57104 5.90574 2.67958 9.13056 1.99756C11.0994 1.57926 13.0725 1.76114 15.0372 2.06577C17.3501 2.42951 19.6631 2.7978 21.9801 3.14335C23.3563 3.34795 24.7158 3.13426 26.0256 2.70231C29.0018 1.72021 31.9572 1.76114 34.9167 2.73414C35.4183 2.89783 35.7789 2.89328 36.1851 2.46134C37.0721 1.5247 38.2203 1.23826 39.4016 1.12914C39.6255 1.11095 39.87 1.30191 40.1975 1.43831C39.9529 1.83843 39.7954 2.12033 39.6172 2.38859C39.1032 3.16608 38.7757 4.02542 38.5353 4.94841C38.3778 5.54859 38.5353 5.91233 38.9125 6.31244C40.0275 7.4855 41.2586 8.48125 42.5933 9.31785C43.729 10.0317 44.9021 10.6682 46.0627 11.3366C46.7093 11.7094 46.7715 11.8458 46.415 12.5324C45.4119 14.4511 44.1394 16.0425 42.0005 16.3744C41.3166 16.4835 40.5995 16.5426 39.9239 16.4244C38.3322 16.1471 36.7571 15.7561 35.1778 15.3878C34.8918 15.3196 34.668 15.2923 34.4069 15.506C32.9768 16.6609 31.3727 17.4338 29.6816 17.984C29.2132 18.1386 28.8774 18.3659 28.8401 18.9524C28.8277 19.1297 28.7696 19.3162 28.695 19.4753C28.2225 20.4983 28.2681 21.4986 28.6743 22.5444C28.9355 23.2173 29.0805 23.9402 29.267 24.645C29.466 25.3997 29.3541 25.5589 28.6204 25.5771C28.0899 25.5907 27.5593 25.5543 27.0287 25.5771C26.5645 25.5952 26.3324 25.377 26.1956 24.8905C25.6567 22.9945 25.093 21.1076 24.5334 19.2161C24.4257 18.8751 24.3055 18.5387 24.1645 18.1204ZM24.9438 17.5975C25.6153 19.8663 26.3117 22.217 27.0039 24.5449C27.464 24.5449 27.8619 24.5449 28.3469 24.5449C28.0774 23.581 27.8536 22.699 27.58 21.8351C27.3894 21.2303 27.3686 20.6666 27.5966 20.0618C27.8163 19.4708 27.9945 18.8524 28.1147 18.225C28.2184 17.6748 28.4795 17.4065 28.952 17.2474C30.3655 16.77 31.7416 16.188 33.0224 15.365C34.0753 14.6876 34.9623 13.8282 35.6089 12.6824C35.6835 12.5506 35.7374 12.3778 35.8452 12.3142C35.9903 12.2232 36.2307 12.1323 36.3384 12.2005C36.4628 12.2823 36.5913 12.5779 36.5457 12.7188C36.4421 13.0598 36.2473 13.369 36.069 13.6782C35.9115 13.951 35.7333 14.2011 35.5177 14.533C37.3374 15.0604 39.07 15.4833 40.8482 15.5651C41.7062 15.606 42.5394 15.3878 43.3021 14.8285C43.2026 14.6785 43.1238 14.5875 43.0741 14.4875C42.9166 14.1692 42.7218 13.8601 42.6306 13.5145C42.5187 13.0962 42.7591 12.7143 43.099 12.7006C43.4513 12.687 43.6005 12.928 43.5632 13.2917C43.5135 13.7464 43.8078 13.9192 44.0606 14.1283C44.8772 13.4418 45.2461 12.9098 45.4492 12.1368C45.4078 12.0959 45.3704 12.0459 45.3248 12.0186C45.0305 11.8504 44.7321 11.6822 44.4337 11.5185C42.1871 10.2681 40.0773 8.80406 38.212 6.9217C37.5778 6.28516 37.4286 5.64861 37.6939 4.81655C37.955 3.98904 38.2203 3.16608 38.4897 2.32039C38.4275 2.31584 38.3446 2.2931 38.27 2.31129C38.1332 2.34312 38.0006 2.38404 37.8721 2.44315C36.8193 2.91147 36.0607 3.72988 35.5467 4.83474C35.4597 5.02571 35.3934 5.23031 35.298 5.41673C35.1613 5.68953 34.9582 5.81684 34.6763 5.66225C34.4193 5.5213 34.4152 5.28942 34.5064 5.03935C34.6597 4.62559 34.8214 4.21184 34.9913 3.7708C34.8421 3.7026 34.7468 3.65258 34.6431 3.61621C31.9613 2.7114 29.2795 2.63866 26.5769 3.51619C25.1262 3.9845 23.634 4.27549 22.1169 4.10726C20.4009 3.9163 18.689 3.6344 16.9854 3.34341C14.946 2.99785 12.915 2.57046 10.8424 2.70231C8.58341 2.84781 6.51091 3.60257 4.79901 5.26669C3.12857 6.88988 1.90165 8.8268 1.67782 11.3548C1.59077 12.3187 1.70269 13.2462 2.08403 14.2465C2.54828 13.5372 2.78453 12.9189 2.70992 12.1687C2.68091 11.864 2.71822 11.5139 3.10785 11.5003C3.46018 11.4912 3.59696 11.7595 3.59281 12.105C3.58452 12.9644 3.90369 13.71 4.21871 14.4602C4.47571 15.0695 4.77414 15.6606 5.01455 16.2789C5.6363 17.8794 5.37103 19.3298 4.24358 20.562C4.14825 20.6666 4.00317 20.7211 3.88297 20.7984C4.3182 22.1624 4.70783 23.3901 5.08502 24.5722C5.56999 24.5722 5.95133 24.5722 6.40728 24.5722C6.14615 23.6856 5.91402 22.8717 5.66117 22.067C5.49952 21.5532 5.54926 21.1803 5.97205 20.7984C6.70572 20.1391 7.37722 19.4026 8.06529 18.6887C8.91502 17.8066 9.76474 16.92 10.602 16.0198C11.5305 15.024 12.6165 14.7831 13.8393 15.165C14.2952 15.3059 14.7388 15.4833 15.1864 15.656C16.289 16.0834 17.3791 16.5517 18.49 16.9382C19.8247 17.402 21.1884 17.6839 22.6019 17.6248C23.5677 17.5839 24.2433 17.1019 24.5708 16.088C24.6744 15.7697 24.778 15.456 24.8526 15.1286C24.9314 14.7876 25.064 14.5466 25.4246 14.6467C25.8143 14.7558 25.7562 15.115 25.6775 15.3923C25.4661 16.0925 25.2174 16.7745 24.9438 17.5975ZM14.2455 24.6086C13.6901 23.531 13.2631 22.608 12.7575 21.7441C12.4466 21.2167 12.5046 20.8484 12.8238 20.3574C13.3543 19.5435 13.8269 18.6796 14.2621 17.7976C14.461 17.3929 14.5066 16.9018 14.6268 16.4244C13.7813 16.1107 13.0683 15.7697 12.2849 15.9925C12.2435 16.0743 12.1896 16.1289 12.1896 16.1789C12.1937 17.743 11.8704 19.198 10.9875 20.4665C10.8176 20.712 10.8425 20.9621 10.9958 21.2258C11.5803 22.2261 12.1564 23.2309 12.7243 24.2449C12.8735 24.5131 13.06 24.6268 13.3378 24.6131C13.5865 24.5995 13.8352 24.6086 14.2455 24.6086Z" stroke="#FFEB61" stroke-width="0.4" mask="url(#path-1-outside-1_163_5072)"/>
</svg>
