<svg width="49" height="29" viewBox="0 0 49 29" fill="none" xmlns="http://www.w3.org/2000/svg">
<g clip-path="url(#clip0_267_1386)">
<mask id="path-1-outside-1_267_1386" maskUnits="userSpaceOnUse" x="-0.505997" y="-1" width="50" height="31" fill="black">
<rect fill="white" x="-0.505997" y="-1" width="50" height="31"/>
<path d="M38.609 25.1184C38.5435 25.6546 38.49 26.1922 38.4098 26.7255C38.3176 27.3397 38.2046 27.9511 38.0961 28.5624C38.0426 28.8643 37.885 29.0043 37.5431 28.9999C36.1429 28.9837 34.7411 28.9999 33.3394 28.9999C32.7418 28.9999 32.6556 28.857 32.7715 28.2619C32.9365 27.4134 33.1223 26.562 33.1907 25.7032C33.3141 24.13 33.0733 22.6024 32.3672 21.1676C32.1383 20.7036 32.1353 20.7139 31.6329 20.8347C29.2664 21.4004 26.9237 21.3429 24.6108 20.5607C24.4309 20.5004 24.2495 20.4444 24.0667 20.3899C24.037 20.381 24.0013 20.3943 23.9344 20.4002C23.9344 20.521 23.9344 20.6418 23.9344 20.7611C23.9299 23.2829 23.9255 25.8048 23.921 28.3252C23.921 28.9468 23.8735 28.9969 23.2566 28.9969C19.6578 28.9984 16.0605 28.9999 12.4617 28.9999C11.9355 28.9999 11.8523 28.9115 11.8523 28.3709C11.8523 22.9721 11.8523 17.5734 11.8523 12.1747C11.8523 12.0097 11.8523 11.8447 11.8523 11.6532C11.7527 11.6694 11.6843 11.6665 11.6293 11.693C10.4996 12.2233 9.31187 12.3573 8.08701 12.1805C7.86999 12.1496 7.77485 12.2188 7.65891 12.3853C6.98256 13.3649 6.28391 14.3297 5.61202 15.3137C5.50945 15.464 5.48121 15.6835 5.46783 15.875C5.34445 17.706 5.14378 19.5252 4.63689 21.2958C4.36932 22.2282 4.02743 23.1298 3.42689 23.9134C2.85757 24.6573 2.11581 24.9637 1.18528 24.7737C1.02325 24.7413 0.841898 24.7 0.71852 24.6028C0.60406 24.513 0.491088 24.3406 0.494061 24.2051C0.495547 24.0902 0.642709 23.909 0.758655 23.8766C1.05001 23.797 1.20609 23.6011 1.27595 23.3581C1.46176 22.7114 1.68027 22.0618 1.765 21.3989C1.93595 20.0629 1.84379 18.7194 1.75757 17.3407C1.61041 17.3937 1.5019 17.4349 1.39041 17.4732C1.1496 17.5557 0.962303 17.4659 0.855276 17.2567C0.746763 17.0431 0.804735 16.8442 1.00987 16.7043C1.07379 16.6601 1.14217 16.61 1.215 16.5938C1.63271 16.501 1.71595 16.2535 1.69811 15.8426C1.59108 13.4621 1.66095 11.089 2.21838 8.7557C2.79959 6.32074 3.86689 4.15535 5.86323 2.53499C7.22337 1.43168 8.82728 0.85424 10.5293 0.524276C13.2808 -0.00749594 16.059 -0.063472 18.8402 0.047007C21.7181 0.160432 24.5944 0.298899 27.4693 0.478612C30.0186 0.637701 32.5634 0.83951 35.0444 1.51859C37.4272 2.16968 39.5558 3.23764 41.2415 5.07012C42.89 6.86282 43.8562 9.00612 44.4508 11.3306C44.6679 12.1791 44.7808 13.0555 45.0172 13.8981C45.2758 14.8203 45.7827 15.6216 46.5438 16.2314C46.8664 16.4892 47.0923 16.4598 47.4283 16.2138C47.5546 16.121 47.6735 16.0193 47.8043 15.9354C48.002 15.8087 48.2087 15.7851 48.3855 15.9663C48.5669 16.1519 48.5104 16.3508 48.3855 16.5437C47.9589 17.1963 46.8872 17.4423 46.2019 17.0122C45.8942 16.8192 45.6356 16.5496 45.3264 16.2918C45.3264 16.3729 45.3249 16.4524 45.3264 16.5305C45.3962 18.8284 45.5285 21.1249 45.5181 23.4229C45.5107 25.0727 45.3204 26.724 45.1941 28.3723C45.1525 28.9203 45.0484 28.991 44.4999 28.991C42.8752 28.994 41.2489 28.9969 39.6242 28.9984C39.0252 28.9984 38.985 28.9306 38.9538 28.3193C38.9062 27.3677 38.8245 26.4161 38.7502 25.466C38.7412 25.3482 38.6952 25.2333 38.6669 25.1169C38.6491 25.1169 38.6298 25.1169 38.6119 25.1184H38.609ZM12.7189 12.6799C12.8661 12.6328 12.9404 12.6136 13.0102 12.5842C14.1311 12.101 15.1448 11.4529 16.0055 10.5896C17.0683 9.52316 17.8369 8.29169 18.0732 6.78328C18.3066 5.28666 17.7075 4.24816 16.334 3.76499C16.1036 3.68398 15.8583 3.60296 15.619 3.59412C14.9724 3.5735 14.3243 3.58823 13.6762 3.59559C13.422 3.59854 13.2273 3.52783 13.1856 3.25384C13.1455 2.98575 13.2986 2.84139 13.5424 2.76921C13.5855 2.75595 13.6286 2.74122 13.6717 2.73386C14.7554 2.57329 15.8182 2.63222 16.8409 3.05498C18.2278 3.628 18.98 4.73868 18.9755 6.22057C18.971 7.49624 18.5132 8.63049 17.8368 9.68814C16.7041 11.4558 15.0988 12.6593 13.1678 13.4533C12.8304 13.5917 12.707 13.7582 12.707 14.1309C12.7204 18.6959 12.7144 23.2623 12.7144 27.8273C12.7144 27.9334 12.7278 28.0409 12.7367 28.1764C12.8765 28.1764 12.9865 28.1764 13.0965 28.1764C14.632 28.1764 16.1675 28.1676 17.7031 28.1838C18.0078 28.1867 18.1282 28.0807 18.1564 27.8023C18.2932 26.4441 18.5013 25.0889 18.5563 23.7278C18.6247 22.0205 18.5697 20.3089 18.5682 18.5986C18.5682 18.1641 18.6306 18.0816 19.0528 17.9785C20.2777 17.6795 21.394 17.9151 22.4494 18.5942C24.7297 20.0629 27.2389 20.6152 29.9234 20.2514C31.016 20.1041 32.0996 19.8345 33.1625 19.5326C34.5657 19.1348 35.7802 19.4501 36.8623 20.3472C37.289 20.7007 37.6918 21.1014 38.0218 21.5418C39.1411 23.0325 39.5766 24.7693 39.755 26.5841C39.8056 27.0996 39.8145 27.6196 39.8427 28.1558H44.3602C44.4419 27.1954 44.5489 26.257 44.595 25.3172C44.7541 21.9837 44.6872 18.6531 44.3289 15.3344C44.0985 13.2087 43.6719 11.1229 42.8454 9.13575C41.5983 6.13955 39.4875 4.01394 36.4134 2.84434C34.5672 2.14169 32.6482 1.76901 30.689 1.59666C28.758 1.42579 26.8241 1.26964 24.8887 1.17979C21.889 1.04132 18.8878 0.930839 15.8851 0.876336C14.0924 0.843929 12.3071 1.02659 10.5412 1.38307C6.84134 2.13138 4.48824 4.33359 3.35554 7.8645C2.63757 10.1035 2.4696 12.4118 2.52311 14.7437C2.53054 15.0339 2.55284 15.324 2.5677 15.6128C2.60041 15.6231 2.63162 15.6334 2.66432 15.6437C2.99432 15.2268 3.33919 14.8188 3.64986 14.3887C4.2727 13.5284 4.78702 12.6077 5.13634 11.6016C5.22256 11.3527 5.38161 11.2113 5.67594 11.2982C5.96134 11.3822 6.03567 11.5736 5.9881 11.8359C5.95837 11.9994 5.91377 12.1599 5.88256 12.3234C5.78296 12.8375 5.68634 13.3516 5.58824 13.8657C5.61945 13.8775 5.65067 13.8893 5.68188 13.9011C6.10107 13.2117 6.5381 12.5311 6.93499 11.83C7.34229 11.1111 7.33634 11.0964 8.13161 11.2952C8.18512 11.3085 8.24161 11.3188 8.29661 11.3262C9.4412 11.5029 10.5248 11.3306 11.549 10.7841C11.9786 10.5543 12.3711 10.681 12.5673 11.1229C12.655 11.3203 12.6936 11.5486 12.7129 11.7651C12.7367 12.0494 12.7189 12.3382 12.7189 12.6755V12.6799ZM19.4363 18.7445C19.5641 21.9012 19.4645 25.0285 18.977 28.1352C19.0394 28.1514 19.0721 28.1661 19.1033 28.1661C20.3475 28.1691 21.5917 28.1691 22.8359 28.175C23.0336 28.175 23.0797 28.0851 23.0797 27.9083C23.0782 25.332 23.0826 22.7541 23.0752 20.1778C23.0752 20.0702 22.9935 19.9214 22.9043 19.8625C22.494 19.593 22.0674 19.3484 21.6467 19.0936C20.9704 18.6856 20.2345 18.6546 19.4378 18.7445H19.4363ZM33.6991 28.1764C34.8615 28.1764 35.9809 28.1823 37.0987 28.1661C37.1819 28.1661 37.3157 28.0218 37.335 27.926C37.6873 26.2232 37.7899 24.4982 37.7304 22.763C37.7275 22.679 37.6933 22.5906 37.6502 22.517C37.2206 21.7583 36.6334 21.1455 35.8976 20.6683C34.9567 20.057 33.98 20.1218 32.9514 20.4886C34.2684 22.9427 34.2699 25.5146 33.6976 28.1764H33.6991ZM4.79445 14.5271C4.74986 14.5183 4.70378 14.5109 4.65918 14.5021C4.6354 14.5227 4.60567 14.5389 4.59081 14.5654C4.10175 15.3741 3.45959 16.0473 2.74608 16.663C2.645 16.7514 2.59 16.9473 2.59297 17.0902C2.61527 18.2864 2.69405 19.4839 2.67919 20.6786C2.66581 21.7687 2.5023 22.8455 1.98798 23.8368C1.97311 23.8663 1.98649 23.9119 1.98649 23.9738C2.57811 23.7278 2.90365 23.2726 3.1623 22.7585C3.70486 21.6758 4.03189 20.5224 4.20283 19.3352C4.43324 17.7369 4.59972 16.1298 4.79297 14.5256L4.79445 14.5271Z"/>
</mask>
<path d="M38.609 25.1184C38.5435 25.6546 38.49 26.1922 38.4098 26.7255C38.3176 27.3397 38.2046 27.9511 38.0961 28.5624C38.0426 28.8643 37.885 29.0043 37.5431 28.9999C36.1429 28.9837 34.7411 28.9999 33.3394 28.9999C32.7418 28.9999 32.6556 28.857 32.7715 28.2619C32.9365 27.4134 33.1223 26.562 33.1907 25.7032C33.3141 24.13 33.0733 22.6024 32.3672 21.1676C32.1383 20.7036 32.1353 20.7139 31.6329 20.8347C29.2664 21.4004 26.9237 21.3429 24.6108 20.5607C24.4309 20.5004 24.2495 20.4444 24.0667 20.3899C24.037 20.381 24.0013 20.3943 23.9344 20.4002C23.9344 20.521 23.9344 20.6418 23.9344 20.7611C23.9299 23.2829 23.9255 25.8048 23.921 28.3252C23.921 28.9468 23.8735 28.9969 23.2566 28.9969C19.6578 28.9984 16.0605 28.9999 12.4617 28.9999C11.9355 28.9999 11.8523 28.9115 11.8523 28.3709C11.8523 22.9721 11.8523 17.5734 11.8523 12.1747C11.8523 12.0097 11.8523 11.8447 11.8523 11.6532C11.7527 11.6694 11.6843 11.6665 11.6293 11.693C10.4996 12.2233 9.31187 12.3573 8.08701 12.1805C7.86999 12.1496 7.77485 12.2188 7.65891 12.3853C6.98256 13.3649 6.28391 14.3297 5.61202 15.3137C5.50945 15.464 5.48121 15.6835 5.46783 15.875C5.34445 17.706 5.14378 19.5252 4.63689 21.2958C4.36932 22.2282 4.02743 23.1298 3.42689 23.9134C2.85757 24.6573 2.11581 24.9637 1.18528 24.7737C1.02325 24.7413 0.841898 24.7 0.71852 24.6028C0.60406 24.513 0.491088 24.3406 0.494061 24.2051C0.495547 24.0902 0.642709 23.909 0.758655 23.8766C1.05001 23.797 1.20609 23.6011 1.27595 23.3581C1.46176 22.7114 1.68027 22.0618 1.765 21.3989C1.93595 20.0629 1.84379 18.7194 1.75757 17.3407C1.61041 17.3937 1.5019 17.4349 1.39041 17.4732C1.1496 17.5557 0.962303 17.4659 0.855276 17.2567C0.746763 17.0431 0.804735 16.8442 1.00987 16.7043C1.07379 16.6601 1.14217 16.61 1.215 16.5938C1.63271 16.501 1.71595 16.2535 1.69811 15.8426C1.59108 13.4621 1.66095 11.089 2.21838 8.7557C2.79959 6.32074 3.86689 4.15535 5.86323 2.53499C7.22337 1.43168 8.82728 0.85424 10.5293 0.524276C13.2808 -0.00749594 16.059 -0.063472 18.8402 0.047007C21.7181 0.160432 24.5944 0.298899 27.4693 0.478612C30.0186 0.637701 32.5634 0.83951 35.0444 1.51859C37.4272 2.16968 39.5558 3.23764 41.2415 5.07012C42.89 6.86282 43.8562 9.00612 44.4508 11.3306C44.6679 12.1791 44.7808 13.0555 45.0172 13.8981C45.2758 14.8203 45.7827 15.6216 46.5438 16.2314C46.8664 16.4892 47.0923 16.4598 47.4283 16.2138C47.5546 16.121 47.6735 16.0193 47.8043 15.9354C48.002 15.8087 48.2087 15.7851 48.3855 15.9663C48.5669 16.1519 48.5104 16.3508 48.3855 16.5437C47.9589 17.1963 46.8872 17.4423 46.2019 17.0122C45.8942 16.8192 45.6356 16.5496 45.3264 16.2918C45.3264 16.3729 45.3249 16.4524 45.3264 16.5305C45.3962 18.8284 45.5285 21.1249 45.5181 23.4229C45.5107 25.0727 45.3204 26.724 45.1941 28.3723C45.1525 28.9203 45.0484 28.991 44.4999 28.991C42.8752 28.994 41.2489 28.9969 39.6242 28.9984C39.0252 28.9984 38.985 28.9306 38.9538 28.3193C38.9062 27.3677 38.8245 26.4161 38.7502 25.466C38.7412 25.3482 38.6952 25.2333 38.6669 25.1169C38.6491 25.1169 38.6298 25.1169 38.6119 25.1184H38.609ZM12.7189 12.6799C12.8661 12.6328 12.9404 12.6136 13.0102 12.5842C14.1311 12.101 15.1448 11.4529 16.0055 10.5896C17.0683 9.52316 17.8369 8.29169 18.0732 6.78328C18.3066 5.28666 17.7075 4.24816 16.334 3.76499C16.1036 3.68398 15.8583 3.60296 15.619 3.59412C14.9724 3.5735 14.3243 3.58823 13.6762 3.59559C13.422 3.59854 13.2273 3.52783 13.1856 3.25384C13.1455 2.98575 13.2986 2.84139 13.5424 2.76921C13.5855 2.75595 13.6286 2.74122 13.6717 2.73386C14.7554 2.57329 15.8182 2.63222 16.8409 3.05498C18.2278 3.628 18.98 4.73868 18.9755 6.22057C18.971 7.49624 18.5132 8.63049 17.8368 9.68814C16.7041 11.4558 15.0988 12.6593 13.1678 13.4533C12.8304 13.5917 12.707 13.7582 12.707 14.1309C12.7204 18.6959 12.7144 23.2623 12.7144 27.8273C12.7144 27.9334 12.7278 28.0409 12.7367 28.1764C12.8765 28.1764 12.9865 28.1764 13.0965 28.1764C14.632 28.1764 16.1675 28.1676 17.7031 28.1838C18.0078 28.1867 18.1282 28.0807 18.1564 27.8023C18.2932 26.4441 18.5013 25.0889 18.5563 23.7278C18.6247 22.0205 18.5697 20.3089 18.5682 18.5986C18.5682 18.1641 18.6306 18.0816 19.0528 17.9785C20.2777 17.6795 21.394 17.9151 22.4494 18.5942C24.7297 20.0629 27.2389 20.6152 29.9234 20.2514C31.016 20.1041 32.0996 19.8345 33.1625 19.5326C34.5657 19.1348 35.7802 19.4501 36.8623 20.3472C37.289 20.7007 37.6918 21.1014 38.0218 21.5418C39.1411 23.0325 39.5766 24.7693 39.755 26.5841C39.8056 27.0996 39.8145 27.6196 39.8427 28.1558H44.3602C44.4419 27.1954 44.5489 26.257 44.595 25.3172C44.7541 21.9837 44.6872 18.6531 44.3289 15.3344C44.0985 13.2087 43.6719 11.1229 42.8454 9.13575C41.5983 6.13955 39.4875 4.01394 36.4134 2.84434C34.5672 2.14169 32.6482 1.76901 30.689 1.59666C28.758 1.42579 26.8241 1.26964 24.8887 1.17979C21.889 1.04132 18.8878 0.930839 15.8851 0.876336C14.0924 0.843929 12.3071 1.02659 10.5412 1.38307C6.84134 2.13138 4.48824 4.33359 3.35554 7.8645C2.63757 10.1035 2.4696 12.4118 2.52311 14.7437C2.53054 15.0339 2.55284 15.324 2.5677 15.6128C2.60041 15.6231 2.63162 15.6334 2.66432 15.6437C2.99432 15.2268 3.33919 14.8188 3.64986 14.3887C4.2727 13.5284 4.78702 12.6077 5.13634 11.6016C5.22256 11.3527 5.38161 11.2113 5.67594 11.2982C5.96134 11.3822 6.03567 11.5736 5.9881 11.8359C5.95837 11.9994 5.91377 12.1599 5.88256 12.3234C5.78296 12.8375 5.68634 13.3516 5.58824 13.8657C5.61945 13.8775 5.65067 13.8893 5.68188 13.9011C6.10107 13.2117 6.5381 12.5311 6.93499 11.83C7.34229 11.1111 7.33634 11.0964 8.13161 11.2952C8.18512 11.3085 8.24161 11.3188 8.29661 11.3262C9.4412 11.5029 10.5248 11.3306 11.549 10.7841C11.9786 10.5543 12.3711 10.681 12.5673 11.1229C12.655 11.3203 12.6936 11.5486 12.7129 11.7651C12.7367 12.0494 12.7189 12.3382 12.7189 12.6755V12.6799ZM19.4363 18.7445C19.5641 21.9012 19.4645 25.0285 18.977 28.1352C19.0394 28.1514 19.0721 28.1661 19.1033 28.1661C20.3475 28.1691 21.5917 28.1691 22.8359 28.175C23.0336 28.175 23.0797 28.0851 23.0797 27.9083C23.0782 25.332 23.0826 22.7541 23.0752 20.1778C23.0752 20.0702 22.9935 19.9214 22.9043 19.8625C22.494 19.593 22.0674 19.3484 21.6467 19.0936C20.9704 18.6856 20.2345 18.6546 19.4378 18.7445H19.4363ZM33.6991 28.1764C34.8615 28.1764 35.9809 28.1823 37.0987 28.1661C37.1819 28.1661 37.3157 28.0218 37.335 27.926C37.6873 26.2232 37.7899 24.4982 37.7304 22.763C37.7275 22.679 37.6933 22.5906 37.6502 22.517C37.2206 21.7583 36.6334 21.1455 35.8976 20.6683C34.9567 20.057 33.98 20.1218 32.9514 20.4886C34.2684 22.9427 34.2699 25.5146 33.6976 28.1764H33.6991ZM4.79445 14.5271C4.74986 14.5183 4.70378 14.5109 4.65918 14.5021C4.6354 14.5227 4.60567 14.5389 4.59081 14.5654C4.10175 15.3741 3.45959 16.0473 2.74608 16.663C2.645 16.7514 2.59 16.9473 2.59297 17.0902C2.61527 18.2864 2.69405 19.4839 2.67919 20.6786C2.66581 21.7687 2.5023 22.8455 1.98798 23.8368C1.97311 23.8663 1.98649 23.9119 1.98649 23.9738C2.57811 23.7278 2.90365 23.2726 3.1623 22.7585C3.70486 21.6758 4.03189 20.5224 4.20283 19.3352C4.43324 17.7369 4.59972 16.1298 4.79297 14.5256L4.79445 14.5271Z" fill="#FFEB61"/>
<path d="M38.609 25.1184C38.5435 25.6546 38.49 26.1922 38.4098 26.7255C38.3176 27.3397 38.2046 27.9511 38.0961 28.5624C38.0426 28.8643 37.885 29.0043 37.5431 28.9999C36.1429 28.9837 34.7411 28.9999 33.3394 28.9999C32.7418 28.9999 32.6556 28.857 32.7715 28.2619C32.9365 27.4134 33.1223 26.562 33.1907 25.7032C33.3141 24.13 33.0733 22.6024 32.3672 21.1676C32.1383 20.7036 32.1353 20.7139 31.6329 20.8347C29.2664 21.4004 26.9237 21.3429 24.6108 20.5607C24.4309 20.5004 24.2495 20.4444 24.0667 20.3899C24.037 20.381 24.0013 20.3943 23.9344 20.4002C23.9344 20.521 23.9344 20.6418 23.9344 20.7611C23.9299 23.2829 23.9255 25.8048 23.921 28.3252C23.921 28.9468 23.8735 28.9969 23.2566 28.9969C19.6578 28.9984 16.0605 28.9999 12.4617 28.9999C11.9355 28.9999 11.8523 28.9115 11.8523 28.3709C11.8523 22.9721 11.8523 17.5734 11.8523 12.1747C11.8523 12.0097 11.8523 11.8447 11.8523 11.6532C11.7527 11.6694 11.6843 11.6665 11.6293 11.693C10.4996 12.2233 9.31187 12.3573 8.08701 12.1805C7.86999 12.1496 7.77485 12.2188 7.65891 12.3853C6.98256 13.3649 6.28391 14.3297 5.61202 15.3137C5.50945 15.464 5.48121 15.6835 5.46783 15.875C5.34445 17.706 5.14378 19.5252 4.63689 21.2958C4.36932 22.2282 4.02743 23.1298 3.42689 23.9134C2.85757 24.6573 2.11581 24.9637 1.18528 24.7737C1.02325 24.7413 0.841898 24.7 0.71852 24.6028C0.60406 24.513 0.491088 24.3406 0.494061 24.2051C0.495547 24.0902 0.642709 23.909 0.758655 23.8766C1.05001 23.797 1.20609 23.6011 1.27595 23.3581C1.46176 22.7114 1.68027 22.0618 1.765 21.3989C1.93595 20.0629 1.84379 18.7194 1.75757 17.3407C1.61041 17.3937 1.5019 17.4349 1.39041 17.4732C1.1496 17.5557 0.962303 17.4659 0.855276 17.2567C0.746763 17.0431 0.804735 16.8442 1.00987 16.7043C1.07379 16.6601 1.14217 16.61 1.215 16.5938C1.63271 16.501 1.71595 16.2535 1.69811 15.8426C1.59108 13.4621 1.66095 11.089 2.21838 8.7557C2.79959 6.32074 3.86689 4.15535 5.86323 2.53499C7.22337 1.43168 8.82728 0.85424 10.5293 0.524276C13.2808 -0.00749594 16.059 -0.063472 18.8402 0.047007C21.7181 0.160432 24.5944 0.298899 27.4693 0.478612C30.0186 0.637701 32.5634 0.83951 35.0444 1.51859C37.4272 2.16968 39.5558 3.23764 41.2415 5.07012C42.89 6.86282 43.8562 9.00612 44.4508 11.3306C44.6679 12.1791 44.7808 13.0555 45.0172 13.8981C45.2758 14.8203 45.7827 15.6216 46.5438 16.2314C46.8664 16.4892 47.0923 16.4598 47.4283 16.2138C47.5546 16.121 47.6735 16.0193 47.8043 15.9354C48.002 15.8087 48.2087 15.7851 48.3855 15.9663C48.5669 16.1519 48.5104 16.3508 48.3855 16.5437C47.9589 17.1963 46.8872 17.4423 46.2019 17.0122C45.8942 16.8192 45.6356 16.5496 45.3264 16.2918C45.3264 16.3729 45.3249 16.4524 45.3264 16.5305C45.3962 18.8284 45.5285 21.1249 45.5181 23.4229C45.5107 25.0727 45.3204 26.724 45.1941 28.3723C45.1525 28.9203 45.0484 28.991 44.4999 28.991C42.8752 28.994 41.2489 28.9969 39.6242 28.9984C39.0252 28.9984 38.985 28.9306 38.9538 28.3193C38.9062 27.3677 38.8245 26.4161 38.7502 25.466C38.7412 25.3482 38.6952 25.2333 38.6669 25.1169C38.6491 25.1169 38.6298 25.1169 38.6119 25.1184H38.609ZM12.7189 12.6799C12.8661 12.6328 12.9404 12.6136 13.0102 12.5842C14.1311 12.101 15.1448 11.4529 16.0055 10.5896C17.0683 9.52316 17.8369 8.29169 18.0732 6.78328C18.3066 5.28666 17.7075 4.24816 16.334 3.76499C16.1036 3.68398 15.8583 3.60296 15.619 3.59412C14.9724 3.5735 14.3243 3.58823 13.6762 3.59559C13.422 3.59854 13.2273 3.52783 13.1856 3.25384C13.1455 2.98575 13.2986 2.84139 13.5424 2.76921C13.5855 2.75595 13.6286 2.74122 13.6717 2.73386C14.7554 2.57329 15.8182 2.63222 16.8409 3.05498C18.2278 3.628 18.98 4.73868 18.9755 6.22057C18.971 7.49624 18.5132 8.63049 17.8368 9.68814C16.7041 11.4558 15.0988 12.6593 13.1678 13.4533C12.8304 13.5917 12.707 13.7582 12.707 14.1309C12.7204 18.6959 12.7144 23.2623 12.7144 27.8273C12.7144 27.9334 12.7278 28.0409 12.7367 28.1764C12.8765 28.1764 12.9865 28.1764 13.0965 28.1764C14.632 28.1764 16.1675 28.1676 17.7031 28.1838C18.0078 28.1867 18.1282 28.0807 18.1564 27.8023C18.2932 26.4441 18.5013 25.0889 18.5563 23.7278C18.6247 22.0205 18.5697 20.3089 18.5682 18.5986C18.5682 18.1641 18.6306 18.0816 19.0528 17.9785C20.2777 17.6795 21.394 17.9151 22.4494 18.5942C24.7297 20.0629 27.2389 20.6152 29.9234 20.2514C31.016 20.1041 32.0996 19.8345 33.1625 19.5326C34.5657 19.1348 35.7802 19.4501 36.8623 20.3472C37.289 20.7007 37.6918 21.1014 38.0218 21.5418C39.1411 23.0325 39.5766 24.7693 39.755 26.5841C39.8056 27.0996 39.8145 27.6196 39.8427 28.1558H44.3602C44.4419 27.1954 44.5489 26.257 44.595 25.3172C44.7541 21.9837 44.6872 18.6531 44.3289 15.3344C44.0985 13.2087 43.6719 11.1229 42.8454 9.13575C41.5983 6.13955 39.4875 4.01394 36.4134 2.84434C34.5672 2.14169 32.6482 1.76901 30.689 1.59666C28.758 1.42579 26.8241 1.26964 24.8887 1.17979C21.889 1.04132 18.8878 0.930839 15.8851 0.876336C14.0924 0.843929 12.3071 1.02659 10.5412 1.38307C6.84134 2.13138 4.48824 4.33359 3.35554 7.8645C2.63757 10.1035 2.4696 12.4118 2.52311 14.7437C2.53054 15.0339 2.55284 15.324 2.5677 15.6128C2.60041 15.6231 2.63162 15.6334 2.66432 15.6437C2.99432 15.2268 3.33919 14.8188 3.64986 14.3887C4.2727 13.5284 4.78702 12.6077 5.13634 11.6016C5.22256 11.3527 5.38161 11.2113 5.67594 11.2982C5.96134 11.3822 6.03567 11.5736 5.9881 11.8359C5.95837 11.9994 5.91377 12.1599 5.88256 12.3234C5.78296 12.8375 5.68634 13.3516 5.58824 13.8657C5.61945 13.8775 5.65067 13.8893 5.68188 13.9011C6.10107 13.2117 6.5381 12.5311 6.93499 11.83C7.34229 11.1111 7.33634 11.0964 8.13161 11.2952C8.18512 11.3085 8.24161 11.3188 8.29661 11.3262C9.4412 11.5029 10.5248 11.3306 11.549 10.7841C11.9786 10.5543 12.3711 10.681 12.5673 11.1229C12.655 11.3203 12.6936 11.5486 12.7129 11.7651C12.7367 12.0494 12.7189 12.3382 12.7189 12.6755V12.6799ZM19.4363 18.7445C19.5641 21.9012 19.4645 25.0285 18.977 28.1352C19.0394 28.1514 19.0721 28.1661 19.1033 28.1661C20.3475 28.1691 21.5917 28.1691 22.8359 28.175C23.0336 28.175 23.0797 28.0851 23.0797 27.9083C23.0782 25.332 23.0826 22.7541 23.0752 20.1778C23.0752 20.0702 22.9935 19.9214 22.9043 19.8625C22.494 19.593 22.0674 19.3484 21.6467 19.0936C20.9704 18.6856 20.2345 18.6546 19.4378 18.7445H19.4363ZM33.6991 28.1764C34.8615 28.1764 35.9809 28.1823 37.0987 28.1661C37.1819 28.1661 37.3157 28.0218 37.335 27.926C37.6873 26.2232 37.7899 24.4982 37.7304 22.763C37.7275 22.679 37.6933 22.5906 37.6502 22.517C37.2206 21.7583 36.6334 21.1455 35.8976 20.6683C34.9567 20.057 33.98 20.1218 32.9514 20.4886C34.2684 22.9427 34.2699 25.5146 33.6976 28.1764H33.6991ZM4.79445 14.5271C4.74986 14.5183 4.70378 14.5109 4.65918 14.5021C4.6354 14.5227 4.60567 14.5389 4.59081 14.5654C4.10175 15.3741 3.45959 16.0473 2.74608 16.663C2.645 16.7514 2.59 16.9473 2.59297 17.0902C2.61527 18.2864 2.69405 19.4839 2.67919 20.6786C2.66581 21.7687 2.5023 22.8455 1.98798 23.8368C1.97311 23.8663 1.98649 23.9119 1.98649 23.9738C2.57811 23.7278 2.90365 23.2726 3.1623 22.7585C3.70486 21.6758 4.03189 20.5224 4.20283 19.3352C4.43324 17.7369 4.59972 16.1298 4.79297 14.5256L4.79445 14.5271Z" stroke="#FFEB61" stroke-width="0.7" mask="url(#path-1-outside-1_267_1386)"/>
<path d="M8.30402 6.86287C7.93389 6.85403 7.66484 6.58741 7.67227 6.23682C7.6797 5.88329 7.99781 5.58573 8.34862 5.60488C8.67713 5.62256 8.99375 5.95252 8.97889 6.25892C8.96254 6.58004 8.63848 6.87023 8.30254 6.86139L8.30402 6.86287Z" fill="#FFEB61"/>
</g>
<defs>
<clipPath id="clip0_267_1386">
<rect width="48" height="29" fill="white" transform="translate(0.5)"/>
</clipPath>
</defs>
</svg>
