<?xml version="1.0" encoding="UTF-8"?>
<svg id="_Слой_2" data-name="Слой 2" xmlns="http://www.w3.org/2000/svg" xmlns:xlink="http://www.w3.org/1999/xlink" viewBox="0 0 2400 1086.01">
  <defs>
    <style>
      .cls-1 {
        opacity: .68;
      }

      .cls-2 {
        fill: #ffeb62;
        opacity: .47;
      }

      .cls-3 {
        fill: #a39336;
      }

      .cls-4 {
        opacity: .64;
      }

      .cls-5 {
        opacity: .44;
      }

      .cls-5, .cls-6 {
        fill: #111010;
      }

      .cls-7 {
        fill: #222228;
      }

      .cls-8 {
        fill: gray;
      }

      .cls-9 {
        fill: #454647;
      }

      .cls-10 {
        fill: #3f3d56;
        opacity: .54;
      }

      .cls-11 {
        clip-path: url(#clippath);
      }

      .cls-12 {
        fill: none;
      }

      .cls-13 {
        fill: #2c2e30;
      }

      .cls-14 {
        fill: #1a1a1a;
      }

      .cls-15 {
        fill: #5b5b5b;
      }

      .cls-16 {
        fill: #3a3c3d;
      }

      .cls-17 {
        fill: #666;
      }
    </style>
    <clipPath id="clippath">
      <rect class="cls-12" y="91.23" width="2400" height="994.78" rx="93.95" ry="93.95"/>
    </clipPath>
  </defs>
  <g id="_Слой_1-2" data-name="Слой 1">
    <path class="cls-13" d="M1814.78,25.64c-2.16-.07-4.77-.32-7.69-.96-2.51-.56-4.7-1.29-6.53-2.02-2.79-7.05-3.63-19.43-3.49-22.66-.1,3.29-.48,7.28-1.47,11.73-.94,4.25-2.2,7.88-3.44,10.83-1.68,.64-3.63,1.26-5.84,1.75-2.92,.65-5.54,.89-7.69,.96,1.94-.08,8.9,.37,13.61,1.85,1.21,2.92,2.44,6.48,3.36,10.63,.98,4.45,1.36,8.44,1.47,11.73-.13-3.08,.62-14.5,3.12-21.66,4.66-1.75,12.51-2.27,14.59-2.19Z"/>
    <path class="cls-2" d="M2165.75,128.06c-6.6-.2-14.62-.97-23.57-2.95-7.7-1.7-14.4-3.94-19.99-6.19-8.55-21.61-11.12-59.55-10.7-69.44-.31,10.07-1.48,22.31-4.49,35.95-2.88,13.01-6.75,24.14-10.55,33.19-5.15,1.96-11.14,3.87-17.89,5.36-8.94,1.98-16.96,2.74-23.57,2.95,5.93-.25,27.28,1.14,41.71,5.67,3.72,8.95,7.48,19.86,10.3,32.58,3.02,13.64,4.18,25.87,4.49,35.95-.4-9.44,1.91-44.43,9.56-66.38,14.29-5.35,38.34-6.97,44.7-6.7Z"/>
    <path class="cls-13" d="M466.56,976.8c-4.59-.14-10.16-.67-16.37-2.05-5.35-1.18-10-2.74-13.89-4.3-5.94-15.01-7.73-41.38-7.43-48.25-.22,7-1.03,15.5-3.12,24.98-2,9.04-4.69,16.77-7.33,23.06-3.58,1.37-7.74,2.69-12.43,3.73-6.21,1.37-11.79,1.9-16.37,2.05,4.12-.18,18.96,.79,28.99,3.94,2.58,6.22,5.2,13.8,7.15,22.64,2.1,9.48,2.91,17.98,3.12,24.98-.28-6.56,1.33-30.87,6.64-46.13,9.93-3.72,26.64-4.84,31.06-4.65Z"/>
    <path class="cls-13" d="M2303.08,243.58c-4.59-.14-10.16-.67-16.37-2.05-5.35-1.18-10-2.74-13.89-4.3-5.94-15.01-7.73-41.38-7.43-48.25-.22,7-1.03,15.5-3.12,24.98-2,9.04-4.69,16.77-7.33,23.06-3.58,1.37-7.74,2.69-12.43,3.73-6.21,1.37-11.79,1.9-16.37,2.05,4.12-.18,18.96,.79,28.99,3.94,2.58,6.22,5.2,13.8,7.15,22.64,2.1,9.48,2.91,17.98,3.12,24.98-.28-6.56,1.33-30.87,6.64-46.13,9.93-3.72,26.64-4.84,31.06-4.65Z"/>
    <path class="cls-13" d="M1498.43,145.7c-5.64-.17-12.49-.83-20.12-2.52-6.58-1.45-12.29-3.36-17.07-5.29-7.3-18.45-9.49-50.85-9.14-59.29-.27,8.6-1.26,19.05-3.84,30.7-2.46,11.11-5.76,20.61-9.01,28.34-4.4,1.68-9.51,3.3-15.28,4.58-7.63,1.69-14.48,2.34-20.12,2.52,5.07-.22,23.29,.97,35.62,4.84,3.18,7.64,6.39,16.96,8.79,27.82,2.58,11.65,3.57,22.09,3.84,30.7-.34-8.06,1.63-37.94,8.16-56.69,12.2-4.57,32.74-5.95,38.17-5.72Z"/>
    <circle class="cls-6" cx="1632" cy="241.49" r="40.35"/>
    <circle class="cls-6" cx="587.13" cy="881.49" r="40.35"/>
    <g class="cls-11">
      <g class="cls-1">
        <circle class="cls-10" cx="1235.96" cy="416.37" r="270.85"/>
        <circle class="cls-5" cx="1378.68" cy="346.28" r="58.21"/>
        <circle class="cls-5" cx="1361.67" cy="487.67" r="26.8"/>
        <circle class="cls-6" cx="1082.24" cy="400.04" r="12.86"/>
      </g>
      <path class="cls-7" d="M2400,235.93c-12.59,1.81-30.96,6.52-44.52,20.87-48.24,51.02,.1,199.45-8.35,183.65-2.62-4.9-19.65-35.48-57.04-44.52-31.43-7.6-56.49,5.04-62.61,8.35-54.6-27.48-131.03-55.67-224-59.83-294.67-13.19-492.55,226.76-520.35,261.57-3.06-6.02-25.26-48.08-70.96-57.04-46.14-9.05-97.24,19.35-119.65,70.96-21.75-10.66-152.07-71.89-297.74-13.91-102.95,40.98-156.14,118.64-173.91,147.48-40.05-4.45-64.23,6.42-76.52,13.91-60.96,37.19-81.88,145.52-37.57,264.35-7-9.13-45.75-57.82-109.91-62.61-65.84-4.91-131.44,38.41-160,108.52-11.06-13.03-37.16-39.95-79.3-51.48-80.37-21.98-146.33,31.89-153.04,37.57,9.65-9.33,35.79-37.16,34.78-73.74-1.41-51.2-55.52-102.61-133.57-108.52,10.24-6.73,48.99-33.63,47.3-65.39-2.03-38.14-62.2-80.01-153.04-76.52v354.78c805.1,.46,1610.2,.93,2415.3,1.39-5.1-286.61-10.2-573.22-15.3-859.83Z"/>
      <path class="cls-15" d="M943.3,1083.23c-2.8-7.82-5.59-15.71-8.35-23.65-7.34-21.12-14.29-41.99-20.87-62.61,1.85-7.63,5.64-19.49,13.91-32,6.46-9.77,15.63-23.63,33.39-30.61,17.1-6.72,33.01-3.46,40.35-1.39-3.16-9.75-11.28-29.61-30.61-40.35-33.84-18.79-76.54,4.56-97.39,23.65-23.86,21.85-30.73,48.77-33.39,59.83-13.21,54.79,13.42,100.73,20.87,112.7,27.36-1.85,54.72-3.71,82.09-5.57Z"/>
      <path class="cls-9" d="M1143.65,903.75c-8.28-10.21-17.94-20.57-29.22-30.61-57.61-51.28-125-65.24-164.17-69.57-20.19,4.62-54.59,15.49-87.65,43.13-58.89,49.22-70.98,116.04-73.74,134.96,1.86,10.2,30.14,94.15,32,104.35,26.9,20.41,35.71,1.85,62.61,22.26-5.56-12.98-20.27-66.78-22.26-90.43-1.37-16.34-.3-30.56,1.39-41.74,1.51-6.34,9.77-38.25,41.74-58.43,32.11-20.28,64.63-13.9,70.96-12.52,13.13,11.99,27.63,27.14,41.74,45.91,24.21,32.22,38.6,63.56,47.3,87.65,4.76-21.66,14.8-54.11,37.57-87.65,13.99-20.61,29.04-36.12,41.74-47.3Z"/>
      <path class="cls-15" d="M1254.64,1085.72h84.71c3.79-4.98,10.23-12.19,20.02-18.48,10.26-6.6,19.94-9.45,26.18-10.78,26.7,3.08,53.4,6.16,80.09,9.24-13.25-14.39-41.41-40.52-84.71-50.83-22.38-5.33-55.84-13.3-86.25,6.16-31.54,20.18-38.62,56.28-40.05,64.69Z"/>
      <path class="cls-16" d="M1761.39,1082.64c-17.55-29.51-37.47-60.51-60.07-92.42-28.53-40.27-57.18-76.14-84.71-107.82-27.68-17.97-65.85-38.98-113.98-55.45-49.12-16.81-93-23.54-126.3-26.18-33.26,1.12-91.89,7.52-155.57,40.05-50.02,25.55-84.21,57.54-104.74,80.09-17.9,23.06-39.23,55.87-55.45,98.58-9.2,24.23-14.9,46.74-18.48,66.23h212.56c5.4-8.74,12.88-19.01,23.1-29.27,17.75-17.81,36.27-28.07,49.29-33.89,17.7-.08,43.23,1.74,72.39,10.78,29.41,9.11,51.64,22.19,66.23,32.35,3.59,7.7,7.19,15.4,10.78,23.1,94.98-2.05,189.97-4.11,284.95-6.16Z"/>
      <g>
        <path class="cls-17" d="M1889.26,307.79c-23.48-.47-43.41-.31-58.61,0,0,0-52.38,1.07-110.94,14.65,0,0-19.16,4.44-18.84,8.37,.23,2.82,10.34,2.14,18.84,8.37,8.27,6.06,11.28,15.94,12.56,23.02-11.72-.58-28.4-.62-48.14,2.09-24.39,3.35-48.87,6.71-73.26,23.02-28.18,18.86-43.55,46.53-41.86,48.14,.69,.66,4.17-3.02,14.65-8.37,7.24-3.69,12.91-5.69,14.65-6.28,4.37-1.49,10.01-3.09,16.75-4.19,9.69-5.41,23.27-12.76,39.77-20.93,24.34-12.06,51.82-24.34,98.38-41.86,34.74-13.08,80.54-29.25,136.05-46.05Z"/>
        <path class="cls-15" d="M2163.46,1004.8c3.21,7.44,18.47,3.08,46.05,8.37,28.51,5.48,50.41,17.48,64.89,27.21,6.08,10.72,13.02,21.95,20.93,33.49,13.29,19.39,26.88,36.07,39.77,50.24,4.96,15.7,9.86,31.75,14.65,48.14,5.19,17.73,10.06,35.18,14.65,52.33,.91,12.62,1.1,26.66,0,41.86-2.83,38.92-13.11,70.96-23.02,94.19,30-28.61,60-57.21,90-85.82,5.66-16.29,10.94-35.22,14.65-56.51,7.66-43.97,5.91-82.31,2.09-110.94-5.74-19.56-16.53-47.24-37.68-75.35-37.15-49.39-84.33-71-106.75-79.54-12.87-4.75-41.11-13.1-73.26-4.19-39.24,10.88-72.33,44.13-66.98,56.51Z"/>
        <path class="cls-15" d="M1920.65,577.8c-12.73,3.62-26,7.13-39.77,10.47-12.9,3.12-25.47,5.9-37.68,8.37-3.5,9.98-7.64,20.5-12.56,31.4-9.88,21.89-20.82,40.71-31.4,56.51-5.38,15.19-10.96,30.54-16.75,46.05-8.26,22.14-16.65,43.77-25.12,64.89,5.94,13.28,11.8,28.67,16.75,46.05,8.1,28.5,11.42,54.29,12.56,75.35,2.09,7.67,4.19,15.35,6.28,23.02,15.91-13.79,37.69-31.5,64.89-50.24,16.93-11.66,61.29-41.19,133.96-73.26,83.2-36.72,133.04-58.71,203.03-62.79,55.62-3.24,101.63,6.13,131.87,14.65-56.19,5.72-123.61,18.17-196.75,43.96-49.88,17.59-101.01,35.61-159.08,75.35-60.7,41.54-88.27,78.95-161.17,119.31-19.53,10.81-55.39,29.08-100.47,25.12-13.38-1.18-24.22-4.01-31.4-6.28-19.94-20.93-41.55-47.87-60.7-81.63-54.14-95.46-56.87-189.52-54.42-238.62,2.71-25.04,11.54-74.12,46.05-123.49,24.3-34.77,52.18-56.57,71.17-69.07,29.46-10.42,71.8-21.6,123.49-23.02,74.63-2.05,133.48,17.22,167.45,31.4-16.75,18.84-33.49,37.68-50.24,56.51Z"/>
        <path class="cls-13" d="M1875.16,919.97c-3.75,2.67-7.58,5.45-11.51,8.33-18.24,87.9-24.23,173.96-24.89,259.91,9.51-1.32,17.85-3.15,24.86-5.01-1.97-87.71,3.96-175.97,11.54-263.23Z"/>
        <path class="cls-16" d="M2623.95,1044.57c-28.88-49.43-76.86-117.91-152.8-182.1-52.1-44.05-103.03-73.96-144.43-94.19-25.29-2.64-63.3-4.79-108.84,0-134.78,14.16-233.52,78.33-313.97,131.87-8.75,5.83-18.39,12.43-28.75,19.82-7.58,87.26-13.51,175.52-11.54,263.23,3.25-.87,6.25-1.74,8.89-2.57,65.48-38.24,131.8-77.99,198.85-119.31,49.8-30.69,98.64-61.41,146.52-92.1,9.83-6.45,30.54-17.98,58.61-18.84,13.55-.41,25.02,1.78,33.49,4.19,23.83,12.53,61.05,36.12,94.19,77.45,22.19,27.67,35.69,54.73,43.96,75.35,3.29,24.98,5.05,58.06,0,96.28-3.68,27.89-10.12,51.85-16.75,71.17,53.72,32.79,107.45,65.58,161.17,98.38,19.47-49.42,41.12-123.01,41.86-213.5,.36-43.7-4.23-82.51-10.47-115.12Z"/>
        <path class="cls-16" d="M1801.86,977.22c-11.52,69.43-26.97,137.9-42.68,206.37,9.09,2.36,18.96,4.27,29.6,5.41,18.76,2.01,35.65,1.19,49.97-.79,.66-85.95,6.65-172.01,24.89-259.91-18.81,13.81-39.66,30.06-61.78,48.92Z"/>
        <path class="cls-16" d="M1690.41,998.52c7.76,3.3,20.55,7.63,36.78,8.28-20.69,41.25-40.81,82.76-62.11,123.5-9.97-8.55-20.47-18.25-31.18-29.22-5.01-5.13-9.78-10.27-14.36-15.39,24.96-28.17,48.63-57.4,70.36-87.94,.17,.25,.35,.52,.52,.77Z"/>
        <path class="cls-13" d="M1483.19,707.58c36.28,1.4,72.56,2.79,108.84,4.19,1.94,32.79,7.1,72.01,18.84,115.12,5.6,20.54,12.11,39.72,19.13,57.6-36.28,12.13-74.18,19.94-112.53,25.44-29.1-80.7-34.6-153.34-34.28-202.35Z"/>
        <path class="cls-13" d="M1629.99,884.49c18.55,47.26,40.76,85.2,59.9,113.27-21.72,30.54-45.4,59.76-70.36,87.94-52.59-58.84-77.65-116.12-90.3-145.78-4.31-10.1-8.21-20.1-11.77-29.99,38.35-5.5,76.25-13.31,112.53-25.44Z"/>
        <path class="cls-13" d="M1732.27,1006.89c25.18-.24,43.78-9.61,52.33-14.65,5.83-5.18,11.59-10.19,17.26-15.03-11.52,69.44-26.97,137.9-42.68,206.37-25.57-6.63-44.77-16.87-56.22-23.9-10.88-7.61-23.85-17.34-37.89-29.38,21.3-40.75,41.42-82.25,62.11-123.5,1.66,.07,3.35,.11,5.08,.09Z"/>
        <path class="cls-13" d="M2305.79,588.27c-4.15-22.4-11.47-53.05-25.12-87.91-9.36-23.91-19.01-47.64-37.68-75.35-15.68-23.27-47.16-62.71-100.47-90-23.94-12.26-46.46-19.09-64.89-23.02-27.21-6.68-62.83-12.66-104.66-12.56-32.34,.08-60.64,3.77-83.73,8.37-48.5,13.21-102.14,30.79-159.08,54.42-42.19,17.51-80.58,36.01-115.12,54.42-25.57,29.87-57.13,72.93-83.73,129.77-29.42,62.86-42.21,120-48.14,161.17,36.28,1.4,72.56,2.79,108.84,4.19,7.14-26.63,19.97-62.53,43.96-100.47,16.74-26.49,34.66-47.21,50.24-62.79,25.72-8.02,59.03-15.84,98.38-18.84,46.3-3.52,85.79,.8,115.12,6.28,2.46,8.47,6.33,18.62,12.56,29.3,13.31,22.83,30.73,36.6,41.86,43.96,61.4,9.07,122.8,18.14,184.2,27.21,55.82-16.05,111.63-32.09,167.45-48.14Z"/>
        <path class="cls-13" d="M1914.37,596.64c13.85,3.99,27.11,8.21,39.77,12.56-4.16-6.61-8.48-14.28-12.56-23.02-4.58-9.82-7.96-19.03-10.47-27.21,5.38,4.73,11.64,9.72,18.84,14.65,8.93,6.12,17.47,10.91,25.12,14.65,55.12,8.37,110.24,16.75,165.36,25.12,55.12-8.37,110.24-16.75,165.36-25.12,7.65-3.74,16.19-8.53,25.12-14.65,7.19-4.93,13.46-9.92,18.84-14.65-2.51,8.19-5.88,17.4-10.47,27.21-4.08,8.74-8.4,16.42-12.56,23.02,12.66-4.35,25.92-8.56,39.77-12.56,24.19-6.97,47.31-12.45,69.07-16.75-11.11,8.98-22.96,18.09-35.58,27.21-9.23,6.67-18.31,12.94-27.21,18.84-6.45,12.26-15.8,27.03-29.3,41.86-25.38,27.87-53.28,42.63-71.17,50.24-9.18,11.51-18.67,25.4-27.21,41.86-25.52,49.21-29.53,96.33-29.3,125.59,6.72,3.56,16,9.45,25.12,18.84,8.12,8.36,13.4,16.71,16.75,23.02-1.19,8.28-4.45,22.85-14.65,37.68-15.14,22-36,30.65-43.96,33.49-16.19,1.25-32.95,1.99-50.24,2.09-2.81,.02-5.6,.02-8.37,0-2.78,.02-5.57,.02-8.37,0-17.29-.1-34.04-.84-50.24-2.09-7.96-2.84-28.82-11.49-43.96-33.49-10.2-14.82-13.46-29.39-14.65-37.68,3.34-6.31,8.62-14.66,16.75-23.02,9.12-9.39,18.4-15.28,25.12-18.84,.23-29.26-3.78-76.38-29.3-125.59-8.54-16.46-18.03-30.35-27.21-41.86-17.89-7.61-45.79-22.37-71.17-50.24-13.51-14.83-22.86-29.6-29.3-41.86-8.9-5.9-17.98-12.17-27.21-18.84-12.62-9.12-24.48-18.23-35.58-27.21,21.77,4.3,44.89,9.77,69.07,16.75Z"/>
        <path class="cls-13" d="M2199.04,998.52c-1.17,3.56-3.97,10.44-10.47,16.75-7.25,7.04-15.17,9.55-18.84,10.47-19.54,0-39.07,0-58.61,0-4.32-2.46-9.42-5.84-14.65-10.47-6.67-5.9-11.4-11.91-14.65-16.75,39.07,0,78.14,0,117.22,0Z"/>
        <path class="cls-6" d="M2092.29,678.27c-20.93-9.77-41.86-19.54-62.79-29.3,4.2,7.31,10.25,16.19,18.84,25.12,5.81,6.05,11.58,10.87,16.75,14.65,6.98,0,13.95,0,20.93,0,2.09-3.49,4.19-6.98,6.28-10.47Z"/>
        <path class="cls-6" d="M2115.31,971.31c2.03-1.4,1.34-5.94,0-14.65-.97-6.31-2.76-11.31-4.19-14.65-1.94-3.66-4.65-8.02-8.37-12.56-3.64-4.44-7.31-7.87-10.47-10.47-3.47-.94-7.7-1.77-12.56-2.09-3.06-.2-5.87-.16-8.37,0,.95,4.78,2.72,11.46,6.28,18.84,10.93,22.63,32.59,39.08,37.68,35.58Z"/>
        <path class="cls-3" d="M2044.15,569.43c6.74,6.41,13.89,14.03,20.93,23.02,14.18,18.09,23.33,35.83,29.3,50.24,.82,2.29,1.61,5.1,2.09,8.37,.74,5.03,.46,9.37,0,12.56-7.61-4.02-15.28-8.21-23.02-12.56-23.11-13-44.73-26.35-64.89-39.77-15.4-13.18-31.67-28.46-48.14-46.05-23.91-25.54-43.19-50.58-58.61-73.26,3.49,0,6.98,0,10.47,0,21.82,18.15,44.22,37.66,66.98,58.61,21.53,19.82,41.75,39.42,60.7,58.61-2.18-6.63-4.29-13.61-6.28-20.93-1.56-5.74-2.95-11.32-4.19-16.75,4.88-.7,9.77-1.4,14.65-2.09Z"/>
        <path class="cls-6" d="M2187.76,676.18c20.93-9.77,41.86-19.54,62.79-29.3-4.2,7.31-10.25,16.19-18.84,25.12-5.81,6.05-11.58,10.87-16.75,14.65-6.98,0-13.95,0-20.93,0-2.09-3.49-4.19-6.98-6.28-10.47Z"/>
        <path class="cls-6" d="M2164.73,969.22c-2.03-1.4-1.34-5.94,0-14.65,.97-6.31,2.76-11.31,4.19-14.65,1.94-3.66,4.65-8.02,8.37-12.56,3.64-4.44,7.31-7.87,10.47-10.47,3.47-.94,7.7-1.77,12.56-2.09,3.06-.2,5.87-.16,8.37,0-.95,4.78-2.72,11.46-6.28,18.84-10.93,22.63-32.59,39.08-37.68,35.58Z"/>
        <path class="cls-3" d="M2235.9,567.34c-6.74,6.41-13.89,14.03-20.93,23.02-14.18,18.09-23.33,35.83-29.3,50.24-.82,2.29-1.61,5.1-2.09,8.37-.74,5.03-.46,9.37,0,12.56,7.61-4.02,15.28-8.21,23.02-12.56,23.11-13,44.73-26.35,64.89-39.77,15.4-13.18,31.67-28.46,48.14-46.05,23.91-25.54,43.19-50.58,58.61-73.26-3.49,0-6.98,0-10.47,0-21.82,18.15-44.22,37.66-66.98,58.61-21.53,19.82-41.75,39.42-60.7,58.61,2.18-6.63,4.29-13.61,6.28-20.93,1.56-5.74,2.95-11.32,4.19-16.75-4.88-.7-9.77-1.4-14.65-2.09Z"/>
        <path class="cls-17" d="M2188.57,531.75c-3.77-17.03-9.64-40.16-18.84-66.98-9.6-27.99-18.84-54.97-37.68-85.82-10.85-17.77-28.04-42.01-54.42-66.98-21.79-4.77-47.09-8.76-75.35-10.47-44.13-2.66-82.56,1.03-113.03,6.28-4.88-7.19-9.79-14.87-14.65-23.02-2.96-4.96-5.75-9.85-8.37-14.65-.54-.73-3.63-5.04-2.09-8.37,1.4-3.03,5.85-3.6,10.47-4.19,3.55-.45,6.49-.24,8.37,0,16.18,.31,37.1,2.22,60.7,8.37,22.29,5.81,40.57,13.74,54.42,20.93-5-8.74-10.56-17.85-16.75-27.21-7.02-10.62-14.05-20.38-20.93-29.3-3.32-2.85-4.71-4.94-4.19-6.28,.93-2.37,7.91-2.37,20.93,0,12.85,4.44,29.06,11.51,46.05,23.02,26.09,17.68,42.68,38.16,52.33,52.33-1.63-13.45-3.04-27.41-4.19-41.86-.91-11.45-1.59-22.62-2.09-33.49-.56-1.71-2.01-6.67,0-8.37,2.19-1.86,8.15,.43,14.65,6.28,11.5,15.43,24.41,35.63,35.58,60.7,15.52,34.82,22.15,66.55,25.12,90,4.47-15.8,8.72-32.56,12.56-50.24,5.62-25.86,9.67-50.39,12.56-73.26,1.08-3.88,2.47-5.97,4.19-6.28,3.53-.63,8.42,6.35,14.65,20.93,1.26,20.72,2.01,42.37,2.09,64.89,.16,44.35-2.29,85.67-6.28,123.49,4.67-3.74,11.14-9.83,16.75-18.84,4.42-7.1,6.92-13.77,8.37-18.84,1.4-4.19,2.8-6.29,4.19-6.28,2.11,0,4.21,4.89,6.28,14.65-1.62,15.6-4.7,34.1-10.47,54.42-6.1,21.52-13.7,39.76-20.93,54.42Z"/>
        <path class="cls-3" d="M2226.25,738.97c5.78-2.33,12.8-4.64,20.93-6.28,12.31-2.49,23.13-2.63,31.4-2.09,6.73,4.39,25.82,15.58,52.33,14.65,4.88-.17,31.05-1.49,54.42-20.93,34.13-28.38,33.65-71.57,33.49-77.45,1.1-4.59,5.16-18.9,18.84-29.3,19.87-15.11,43.16-9.16,46.05-8.37,3.08,1.9,4.75,5.28,4.19,8.37-.75,4.11-3.28,5.21-8.37,4.19-5.87,.37-19.35,1.88-27.21,8.37-8.74,7.22-16.75,20.93-16.75,20.93-2.09,54.42-16.82,83.81-33.49,100.47-22.73,22.71-59,21.43-73.26,20.93-25-.88-44.08-9.19-54.42-14.65-7.47-.58-17.65-.52-29.3,2.09-3.68,.83-7.1,1.82-10.22,2.88-7.4,2.52-15.25-3.19-14.91-11,0-.09,0-.17,.01-.26,.43-7.38,5.36-11.77,6.28-12.56Z"/>
        <path class="cls-3" d="M2065.16,738.97c-5.78-2.33-12.8-4.64-20.93-6.28-12.31-2.49-23.13-2.63-31.4-2.09-6.73,4.39-25.82,15.58-52.33,14.65-4.88-.17-31.05-1.49-54.42-20.93-34.13-28.38-33.65-71.57-33.49-77.45-1.1-4.59-5.16-18.9-18.84-29.3-19.87-15.11-43.16-9.16-46.05-8.37-3.08,1.9-4.75,5.28-4.19,8.37,.75,4.11,3.28,5.21,8.37,4.19,5.87,.37,19.35,1.88,27.21,8.37,8.74,7.22,16.75,20.93,16.75,20.93,2.09,54.42,16.82,83.81,33.49,100.47,22.73,22.71,59,21.43,73.26,20.93,25-.88,44.08-9.19,54.42-14.65,7.47-.58,17.65-.52,29.3,2.09,3.68,.83,7.1,1.82,10.22,2.88,7.4,2.52,15.25-3.19,14.91-11,0-.09,0-.17-.01-.26-.43-7.38-5.36-11.77-6.28-12.56Z"/>
        <path class="cls-8" d="M2328.4,976.87c-4.64,1.85-8.59,4.88-12.19,8.29-3.8,3.61-7.36,7.49-10.93,11.32-7.15,7.66-14.09,15.62-19.62,24.55-3.04,4.92-5.61,10.11-7.52,15.57-.22,.64,.79,.91,1.01,.28,3.4-9.74,8.98-18.51,15.39-26.54s13.25-15.26,20.34-22.4c4.03-4.06,8.42-7.92,13.8-10.06,.62-.25,.35-1.26-.28-1.01h0Z"/>
        <path class="cls-8" d="M2305.21,1004.5c-10.03,10.15-17.81,22.38-22.77,35.77-.23,.63,.77,.9,1.01,.28,4.9-13.21,12.6-25.28,22.5-35.31,.47-.48-.26-1.22-.74-.74h0Z"/>
        <path class="cls-8" d="M1834.97,595.59c-17.43-2.09-34.61-5.87-51.49-10.68s-33.22-10.54-49.53-16.65c-9.23-3.46-18.43-7.02-27.62-10.6-.63-.24-.9,.77-.28,1.01,16.4,6.37,32.81,12.74,49.45,18.47,16.58,5.71,33.4,10.8,50.54,14.56,9.56,2.1,19.21,3.77,28.93,4.93,.67,.08,.66-.96,0-1.04h0Z"/>
        <path class="cls-8" d="M1740.5,576.54c-18.71-6.1-37.2-12.86-55.44-20.25-.62-.25-.89,.76-.28,1.01,18.24,7.39,36.73,14.15,55.44,20.25,.64,.21,.91-.8,.28-1.01h0Z"/>
        <path class="cls-8" d="M1774.15,729.9c-21.2,3.27-42.78,3.01-64.06,.58s-42.73-7.09-63.69-12.45c-11.74-3-23.41-6.23-35.08-9.49-.65-.18-.92,.83-.28,1.01,21.02,5.86,42.08,11.67,63.45,16.12,21.06,4.38,42.47,7.45,64.01,7.7,12.02,.14,24.04-.63,35.93-2.46,.66-.1,.38-1.11-.28-1.01h0Z"/>
        <path class="cls-8" d="M1662.95,733.94c-17.19-3.15-34.28-6.85-51.23-11.13-4.81-1.21-9.61-2.47-14.39-3.77-.65-.18-.93,.83-.28,1.01,16.87,4.59,33.88,8.63,51.01,12.09,4.86,.98,9.73,1.92,14.61,2.81,.66,.12,.94-.89,.28-1.01h0Z"/>
        <path class="cls-8" d="M1731.78,890.68c-5.05-.86-10.32,.45-15.29,1.3-5.34,.92-10.67,1.94-15.97,3.07-10.69,2.27-21.29,4.94-31.77,8.02-5.89,1.73-11.74,3.59-17.56,5.57-.63,.22-.36,1.22,.28,1.01,20.08-6.85,40.66-12.21,61.53-16,2.98-.54,5.97-1.05,8.96-1.53,3.16-.5,6.36-.99,9.55-.44,.66,.11,.94-.89,.28-1.01h0Z"/>
        <path class="cls-8" d="M1699.5,903.05c-15.04,3.34-29.89,7.45-44.51,12.31-.63,.21-.36,1.22,.28,1.01,14.61-4.87,29.47-8.98,44.51-12.31,.66-.15,.38-1.15-.28-1.01h0Z"/>
        <g class="cls-4">
          <path class="cls-17" d="M2175.95,1003c-16.69,1.76-33.5,2.18-50.26,1.23-4.82-.27-9.63-.66-14.44-1.16-.67-.07-.66,.98,0,1.04,16.69,1.72,33.51,2.11,50.26,1.12,4.82-.28,9.63-.69,14.43-1.19,.66-.07,.67-1.11,0-1.04h0Z"/>
        </g>
        <g class="cls-4">
          <path class="cls-17" d="M2160.49,1007.86c-13.1,1.74-26.41,1.51-39.44-.72-.66-.11-.94,.89-.28,1.01,13.13,2.24,26.52,2.51,39.72,.76,.66-.09,.66-1.13,0-1.04h0Z"/>
        </g>
        <g class="cls-4">
          <path class="cls-17" d="M2085.15,695.98c-4.51,0-9.02,0-13.53,0-.67,0-.67,1.04,0,1.04,4.51,0,9.02,0,13.53,0,.67,0,.67-1.04,0-1.04h0Z"/>
        </g>
        <g class="cls-4">
          <path class="cls-17" d="M2060.04,694.51c-7.53-4.45-14.46-9.87-20.59-16.13-6.16-6.29-11.16-13.33-15.7-20.84-2.53-4.19-5.15-8.35-8.67-11.79-.48-.47-1.22,.27-.74,.74,3.3,3.23,5.79,7.11,8.18,11.03s4.55,7.48,7.16,11c5.13,6.93,11.15,13.21,17.87,18.61,3.78,3.04,7.78,5.8,11.96,8.27,.58,.34,1.1-.56,.53-.9h0Z"/>
        </g>
        <g class="cls-4">
          <path class="cls-17" d="M2041.04,695.19c-18.63-20.53-41.19-37.46-66.11-49.62-6.91-3.38-14.01-6.38-21.24-9.01-.63-.23-.9,.78-.28,1.01,25.93,9.43,50.01,23.84,70.6,42.21,5.71,5.09,11.14,10.49,16.28,16.15,.45,.5,1.19-.24,.74-.74h0Z"/>
        </g>
        <g class="cls-4">
          <path class="cls-17" d="M2019.08,686.23c-9.43-9.56-19.86-18.12-31.09-25.5-5.71-3.75-11.63-7.2-17.71-10.31-3.04-1.56-6.12-3.03-9.25-4.42-2.93-1.3-5.97-2.88-9.13-3.51-2.78-.55-6.12-.05-7.81,2.49-1.98,2.97-.04,6.48,1.65,9.07,.37,.56,1.27,.04,.9-.53-1.67-2.55-3.82-6.41-.84-8.89,2.62-2.18,6.22-1.24,9.07-.13,5.87,2.29,11.59,5.05,17.16,7.99,10.91,5.77,21.26,12.61,30.83,20.39,5.41,4.4,10.58,9.1,15.48,14.07,.47,.48,1.21-.26,.74-.74h0Z"/>
        </g>
        <g class="cls-4">
          <path class="cls-17" d="M2014.89,694.29c-5.76-6-12.04-11.49-18.75-16.41-3.4-2.49-6.9-4.82-10.51-6.99-1.86-1.12-3.75-2.21-5.67-3.24-1.57-.84-3.31-1.7-5.14-1.6-3.15,.16-4.85,3.3-4.59,6.19,.33,3.66,3.44,6.48,5.92,8.87,5.65,5.45,12.03,10.15,18.9,13.95,7.78,4.3,16.18,7.43,24.88,9.27,.39,.08,.89-.37,.59-.77-1.34-1.77-2.9-3.3-4.71-4.59-.55-.39-1.07,.51-.53,.9,1.65,1.19,3.1,2.6,4.33,4.22l.59-.77c-14.34-3.04-27.86-9.63-39.05-19.1-2.69-2.28-5.47-4.69-7.69-7.44-1.22-1.51-2.3-3.36-2.22-5.37,.07-1.64,.85-3.47,2.48-4.09,2.07-.79,4.31,.47,6.08,1.44,1.66,.9,3.29,1.84,4.91,2.81,3.3,1.98,6.52,4.09,9.64,6.33,7.11,5.09,13.72,10.84,19.77,17.14,.47,.49,1.2-.25,.74-.74h0Z"/>
        </g>
        <g class="cls-4">
          <path class="cls-17" d="M2192.86,697.03c4.51,0,9.02,0,13.53,0,.67,0,.67-1.04,0-1.04-4.51,0-9.02,0-13.53,0-.67,0-.67,1.04,0,1.04h0Z"/>
        </g>
        <g class="cls-4">
          <path class="cls-17" d="M2218.49,695.41c7.43-4.39,14.29-9.72,20.37-15.85,6.14-6.19,11.26-13.14,15.75-20.59,2.66-4.42,5.34-8.86,9.05-12.49,.48-.47-.26-1.21-.74-.74-6.26,6.11-9.81,14.4-14.89,21.42s-11.11,13.37-17.84,18.84c-3.85,3.14-7.95,5.97-12.22,8.5-.58,.34-.05,1.24,.53,.9h0Z"/>
        </g>
        <g class="cls-4">
          <path class="cls-17" d="M2237.7,695.93c18.49-20.37,40.82-37.16,65.52-49.28,6.95-3.41,14.09-6.44,21.36-9.09,.63-.23,.36-1.24-.28-1.01-25.98,9.45-50.09,23.84-70.75,42.2-5.82,5.17-11.36,10.66-16.59,16.43-.45,.5,.29,1.24,.74,.74h0Z"/>
        </g>
        <g class="cls-4">
          <path class="cls-17" d="M2259.66,686.97c17.44-17.68,38.34-31.9,61.23-41.54,3.13-1.32,6.95-3.13,10.29-1.45,4.18,2.11,2.12,6.59,.18,9.54-.37,.56,.53,1.09,.9,.53,1.53-2.34,3.27-5.32,2.11-8.18-.95-2.33-3.51-3.53-5.91-3.6-3.34-.11-6.57,1.59-9.55,2.88s-5.98,2.67-8.91,4.13c-12.04,5.95-23.43,13.2-33.94,21.55-6.02,4.78-11.74,9.93-17.14,15.41-.47,.48,.27,1.22,.74,.74h0Z"/>
        </g>
        <g class="cls-4">
          <path class="cls-17" d="M2263.86,695.03c5.35-5.57,11.13-10.71,17.31-15.34,3.08-2.3,6.25-4.48,9.51-6.53,1.6-1,3.21-1.98,4.85-2.92,1.76-1.01,3.57-2.19,5.51-2.82s4.02-.33,5.09,1.61c.85,1.53,.77,3.37,.13,4.96-1.38,3.39-4.74,6.09-7.4,8.48-5.42,4.87-11.44,9.06-17.88,12.47-7.3,3.86-15.11,6.68-23.18,8.39l.59,.77c1.23-1.62,2.68-3.03,4.33-4.22,.54-.39,.02-1.29-.53-.9-1.8,1.3-3.36,2.82-4.71,4.59-.3,.39,.19,.85,.59,.77,15.39-3.26,29.83-10.6,41.52-21.12,2.77-2.5,6.17-5.27,7.62-8.81,1.05-2.57,.71-6.08-1.83-7.68-3.27-2.05-7.38,.91-10.19,2.52-3.65,2.09-7.21,4.34-10.66,6.75-7.72,5.38-14.89,11.52-21.41,18.31-.47,.48,.27,1.22,.74,.74h0Z"/>
        </g>
        <g class="cls-4">
          <path class="cls-17" d="M2122.69,946.75c-2.18-16.43-12.25-31.33-26.36-39.94-3.99-2.44-8.3-4.34-12.79-5.64-.65-.19-.92,.82-.28,1.01,15.6,4.52,28.61,16.57,34.84,31.51,1.74,4.17,2.94,8.57,3.54,13.05,.09,.66,1.13,.66,1.04,0h0Z"/>
        </g>
        <g class="cls-4">
          <path class="cls-17" d="M2097.13,900.98c-3.29-2.54-6.95-4.53-10.88-5.89-.64-.22-.91,.79-.28,1.01,3.75,1.29,7.29,3.19,10.42,5.62,.52,.41,1.27-.33,.74-.74h0Z"/>
        </g>
        <g class="cls-4">
          <path class="cls-17" d="M2198.03,901.65c-18.16,3.88-33.69,17.29-40.95,34.28-2.02,4.73-3.37,9.71-4.01,14.82-.08,.66,.96,.66,1.04,0,2.26-18.06,14.05-34.32,30-42.88,4.46-2.4,9.24-4.15,14.19-5.21,.66-.14,.38-1.15-.28-1.01h0Z"/>
        </g>
        <g class="cls-4">
          <path class="cls-17" d="M2193.02,892.05c-4.85,2.87-9.69,5.75-14.54,8.62-.58,.34-.05,1.24,.53,.9,4.85-2.87,9.69-5.75,14.54-8.62,.58-.34,.05-1.24-.53-.9h0Z"/>
        </g>
        <g class="cls-4">
          <path class="cls-17" d="M2132.95,846.34c-2.26-13.91-8.7-27.05-18.27-37.39-1.18-1.27-2.4-2.5-3.66-3.68s-2.53-2.55-4.05-3.31c-2.55-1.28-4.66,.53-5.66,2.82-1.27,2.92-1.19,6.45-1.2,9.57-.01,3.71,.29,7.41,.88,11.07,1.38,8.48,4.4,16.67,8.85,24.02,.35,.57,1.25,.05,.9-.53-7.23-11.95-10.91-26.63-9.29-40.58,.28-2.43,1.82-7.19,5.17-5.38,1.45,.78,2.74,2.19,3.94,3.32s2.29,2.23,3.37,3.4c4.4,4.76,8.13,10.13,11.09,15.89,3.39,6.6,5.72,13.71,6.91,21.04,.11,.66,1.11,.38,1.01-.28h0Z"/>
        </g>
        <g class="cls-4">
          <path class="cls-17" d="M2161.42,819.21c2.37-7,4.34-14.12,5.9-21.34,.78-3.62,1.51-7.28,2.02-10.96,.44-3.16,.64-6.51-.37-9.6-1.66-5.09-6.42-8.61-11.82-6.88-6.03,1.93-8.81,8.09-11.41,13.32-3.45,6.91-6.76,14.03-7.81,21.75-.09,.66,.92,.94,1.01,.28,.87-6.42,3.31-12.43,6.1-18.24,1.3-2.7,2.6-5.42,4.05-8.04s3.16-5.13,5.67-6.77,5.69-2.37,8.45-1.02c2.45,1.2,4.1,3.66,4.85,6.23,.91,3.12,.61,6.46,.12,9.62s-1.14,6.55-1.84,9.8c-1.56,7.3-3.56,14.5-5.95,21.58-.22,.64,.79,.91,1.01,.28h0Z"/>
        </g>
        <g class="cls-4">
          <path class="cls-17" d="M2129.87,780.41c-1.51-2.91-3.49-5.58-5.87-7.84-1.47-1.4-4.57-4.58-6.41-1.97-.75,1.06-.81,2.45-.88,3.7-.11,1.86-.09,3.72,.08,5.57,.33,3.64,1.18,7.2,2.51,10.6,.24,.62,1.25,.35,1.01-.28-1.09-2.77-1.87-5.66-2.28-8.61-.21-1.55-.33-3.12-.34-4.68-.01-1.46-.05-3.05,.27-4.48,.13-.56,.32-1.22,.82-1.56,.78-.54,1.63,.08,2.26,.55,1.1,.81,2.11,1.75,3.06,2.73,1.96,2.02,3.58,4.31,4.87,6.8,.31,.6,1.21,.07,.9-.53h0Z"/>
        </g>
        <g class="cls-4">
          <path class="cls-17" d="M2161.02,750.75c1.9-7.08,3.79-14.43,2.64-21.8-.92-5.95-4.11-12.43-9.95-14.9-6.39-2.7-11.78,2.23-15.36,7.02-4.11,5.5-7.22,11.75-9.2,18.32-2.23,7.38-3.03,15.17-2.31,22.86,.06,.66,1.11,.67,1.04,0-1.19-12.7,1.83-25.66,8.55-36.51,2.96-4.77,7.57-11.82,14.02-11.43s10.52,7.36,11.83,12.99c1.81,7.75-.25,15.68-2.27,23.17-.17,.65,.83,.93,1.01,.28h0Z"/>
        </g>
        <g class="cls-4">
          <path class="cls-17" d="M2117.82,749.85c-.25-3.06-4.1-4.7-6.64-3.14-2.96,1.82-3.1,6.06-1.14,8.64,1.22,1.61,3.01,2.68,4.93,3.24,.65,.19,.92-.82,.28-1.01-2.64-.78-5.35-2.84-5.49-5.82-.11-2.51,1.74-5.21,4.5-4.51,1.23,.31,2.41,1.25,2.52,2.59,.05,.66,1.1,.67,1.04,0h0Z"/>
        </g>
        <g class="cls-4">
          <path class="cls-17" d="M2151.63,862.93c1.51-5.82,.77-12.35-2.39-17.52-.53-.87-1.27-1.73-2.36-1.79-1.02-.05-1.83,.64-2.38,1.43-.79,1.14-1.12,2.55-1.51,3.85-.53,1.74-1.02,3.49-1.49,5.24-1.08,4.08-2,8.19-2.77,12.34-.12,.66,.88,.94,1.01,.28,.71-3.86,1.55-7.7,2.54-11.5,.48-1.83,.98-3.65,1.53-5.46,.44-1.47,.76-3.42,1.87-4.57,2.5-2.58,4.78,5.35,5.14,6.94,.78,3.45,.7,7.04-.18,10.46-.17,.65,.84,.93,1.01,.28h0Z"/>
        </g>
        <path class="cls-8" d="M2087.73,647.04c-6.07-18.24-15.24-35.38-27.05-50.55-3.39-4.36-7-8.54-10.8-12.55-.46-.49-1.2,.25-.74,.74,13.14,13.84,23.88,29.9,31.65,47.33,2.23,5,4.2,10.12,5.93,15.31,.21,.63,1.22,.36,1.01-.28h0Z"/>
        <path class="cls-8" d="M2057.45,604.5c-3.49-7.14-8.05-13.7-13.52-19.46-.46-.49-1.2,.25-.74,.74,5.41,5.7,9.91,12.19,13.36,19.25,.29,.6,1.2,.07,.9-.53h0Z"/>
        <path class="cls-8" d="M2032.18,605.37c-15.27-13.31-30.44-26.74-45.51-40.29s-30.02-27.21-44.88-40.99c-8.38-7.78-16.73-15.6-25.05-23.45-.49-.46-1.23,.28-.74,.74,14.73,13.91,29.57,27.71,44.52,41.39s30,27.24,45.15,40.69c8.56,7.59,17.15,15.14,25.77,22.66,.5,.44,1.25-.3,.74-.74h0Z"/>
        <path class="cls-8" d="M2234.76,574.57c-6.18,7.36-12.35,14.72-18.53,22.09-5.35,6.37-10.91,12.68-15.23,19.82-2.35,3.88-4.27,8.01-5.5,12.38-.18,.65,.82,.92,1.01,.28,2.23-7.9,6.76-14.83,11.79-21.24,5.46-6.96,11.3-13.64,16.99-20.41,3.41-4.06,6.82-8.12,10.22-12.19,.43-.51-.31-1.25-.74-.74h0Z"/>
        <path class="cls-8" d="M2239.33,578.36c-3.2,5.69-6.77,11.16-10.69,16.38-.4,.54,.5,1.06,.9,.53,3.92-5.22,7.49-10.69,10.69-16.38,.33-.59-.57-1.11-.9-.53h0Z"/>
        <path class="cls-8" d="M2340.62,518.1c-13.4,13.85-27.17,27.34-41.28,40.46-14.06,13.07-28.47,25.76-43.2,38.06-8.32,6.95-16.75,13.78-25.28,20.48-.53,.41,.22,1.15,.74,.74,15.15-11.91,29.99-24.21,44.49-36.91s28.55-25.67,42.3-39.06c7.77-7.57,15.43-15.25,22.97-23.04,.47-.48-.27-1.22-.74-.74h0Z"/>
        <path class="cls-8" d="M2213.98,424.98c.78,5.87,.04,11.74-1.23,17.48-1.26,5.69-2.89,11.32-4.46,16.93-3.16,11.3-6.53,22.53-10.11,33.7-2.04,6.36-4.15,12.7-6.33,19.01-.22,.64,.79,.91,1.01,.28,3.87-11.25,7.54-22.56,10.98-33.95s6.88-22.75,9.6-34.29c1.48-6.28,2.45-12.73,1.59-19.17-.09-.66-1.13-.66-1.04,0h0Z"/>
        <path class="cls-8" d="M2183.23,278.08c.48,20.23,.33,40.48-.45,60.71-.78,20.22-2.19,40.42-4.23,60.56-1.16,11.41-2.52,22.81-4.07,34.17-.09,.66,.92,.94,1.01,.28,2.76-20.1,4.9-40.28,6.4-60.51,1.5-20.18,2.37-40.41,2.61-60.65,.14-11.52,.06-23.04-.21-34.55-.02-.67-1.06-.67-1.04,0h0Z"/>
        <path class="cls-14" d="M1798.99,860.09c-.37,.19-.75,.38-1.12,.56-.11,.06-.21,.19-.24,.31-.03,.12-.02,.29,.05,.4s.18,.21,.31,.24c.14,.03,.27,.01,.4-.05,.37-.19,.75-.38,1.12-.56,.11-.06,.21-.19,.24-.31,.03-.12,.02-.29-.05-.4s-.18-.21-.31-.24c-.14-.03-.27-.01-.4,.05h0Z"/>
      </g>
    </g>
  </g>
</svg>