<?xml version="1.0" encoding="UTF-8"?>
<svg id="_Слой_2" data-name="Слой 2" xmlns="http://www.w3.org/2000/svg" viewBox="0 0 2238.57 797.65">
  <defs>
    <style>
      .cls-1 {
        fill: #6d6123;
      }

      .cls-2 {
        fill: #55556d;
      }

      .cls-3 {
        fill: #333342;
      }

      .cls-4 {
        fill: #84772c;
      }

      .cls-5 {
        fill: #4d4d4d;
      }

      .cls-6 {
        fill: #232323;
      }

      .cls-7 {
        fill: #222228;
      }

      .cls-8 {
        stroke: #493f14;
        stroke-width: 4px;
      }

      .cls-8, .cls-9, .cls-10, .cls-11 {
        fill: none;
      }

      .cls-8, .cls-9, .cls-11 {
        stroke-miterlimit: 10;
      }

      .cls-12 {
        fill: #1b1b1c;
      }

      .cls-9 {
        stroke: #25252b;
        stroke-linecap: round;
        stroke-width: 6px;
      }

      .cls-13 {
        fill: #999;
      }

      .cls-11 {
        stroke: #3d3d4f;
        stroke-width: 8px;
      }

      .cls-14 {
        fill: #2c2e30;
      }

      .cls-15 {
        fill: #111010;
        opacity: .45;
      }

      .cls-16 {
        fill: #7f7032;
      }

      .cls-17 {
        fill: #ffeb62;
        opacity: .28;
      }

      .cls-18 {
        fill: #666;
      }

      .cls-19 {
        fill: #4c4c63;
      }

      .cls-20 {
        fill: #3d3d4f;
      }
    </style>
  </defs>
  <g id="_Слой_2-2" data-name="Слой 2">
    <g>
      <circle class="cls-8" cx="1790.15" cy="472.25" r="289"/>
      <circle class="cls-7" cx="1790.15" cy="472.25" r="271.5"/>
      <line class="cls-9" x1="1790.44" y1="171.31" x2="1790.44" y2="781.31"/>
      <line class="cls-9" x1="1485.44" y1="476.31" x2="2095.44" y2="476.31"/>
      <line class="cls-9" x1="2006.11" y1="691.98" x2="1574.77" y2="260.64"/>
      <line class="cls-9" x1="1942.94" y1="740.45" x2="1637.94" y2="212.17"/>
      <line class="cls-9" x1="1869.79" y1="770.81" x2="1711.09" y2="181.81"/>
      <g>
        <line class="cls-9" x1="1574.77" y1="691.98" x2="2006.11" y2="260.64"/>
        <line class="cls-9" x1="1637.94" y1="740.45" x2="1942.94" y2="212.17"/>
        <line class="cls-9" x1="1711.09" y1="770.81" x2="1869.79" y2="181.81"/>
      </g>
      <g>
        <line class="cls-9" x1="1496.22" y1="556.68" x2="2084.66" y2="395.94"/>
        <line class="cls-9" x1="1527.05" y1="630.09" x2="2053.83" y2="322.53"/>
      </g>
      <g>
        <line class="cls-9" x1="2084.66" y1="556.68" x2="1496.22" y2="395.94"/>
        <line class="cls-9" x1="2053.83" y1="630.09" x2="1527.05" y2="322.53"/>
      </g>
    </g>
    <path class="cls-11" d="M1675.98,541c4.43,8.23,8.79,16.9,13,26,14.62,31.61,30.9,94.3,37.5,121.5"/>
    <g>
      <circle class="cls-12" cx="1040.98" cy="519" r="140"/>
      <circle class="cls-15" cx="963.87" cy="485.71" r="35"/>
      <circle class="cls-15" cx="986.35" cy="430.22" r="8.54"/>
      <circle class="cls-15" cx="1091.35" cy="448.72" r="15.08"/>
    </g>
    <path class="cls-2" d="M2009.98,183c-3.65-4.66-6-10-6-10-.68-1.54-3.36-7.84-4-18-.84-13.27,2.32-24.73,5-32-.67-2.33-1.33-4.67-2-7,2.4,.66,5.87,1.65,10,3,5.76,1.88,17.01,5.56,25,10,3.27,1.82,16.94,9.42,24,24,7.18,14.82,8.84,39.56-4,48-14.59,9.59-39.61-7.28-48-18Z"/>
    <path class="cls-11" d="M2054.98,212c2.08,19.31,2.88,49.14-7,83-4.49,15.39-11.33,32.12-36,73-27.05,44.83-50.08,76.5-54,82-24.71,34.6-50.29,92.82-52,196"/>
    <path class="cls-11" d="M1942.98,320c-.02,5.73-.53,14.2-3,24-7.35,29.11-25.62,44.41-35,56-36.77,45.45-11.12,125.83-5,145,14.01,43.89,39.09,73.28,55,89"/>
    <path class="cls-11" d="M1692.98,378c-1.26,7.31-2.17,16.09-2,26,.08,4.7,.58,17.35,6,38,5.29,20.14,11.85,34.84,13.5,38.5,21.59,47.82,51.84,96.91,78,148,5.39,10.53,14.05,27.86,24,50"/>
    <path class="cls-1" d="M1976.98,477c8.29,3.29,15.05,6.49,20,9,17.21,8.71,20.63,13.07,22,15,1.41,1.98,5.48,8.21,6,17,.45,7.65-2.02,13.4-4,18-2.53,5.87-5.67,10.2-8,13-17.14,9.82-28.37,21.18-35,29-8.52,10.07-22.73,28.53-27,56-7,45,16.69,105.85,19,114,2.33-.33,4.67-.67,7-1-1.81-7.94-24-70-17-113,3.27-20.08,13.01-33.39,20-43,12.46-17.14,26.91-28.18,38-35,3.06-.7,6.52-1.91,10-4,14.26-8.58,17.38-25.18,18-29,17.31-17.9,33.63-20.47,40-21,9.64-.8,17.56,1.46,33,6,15.92,4.68,28.54,10.03,37,14-2.02-9.89-6.6-24.29-18-37-16.66-18.57-38.46-23-68-29-20.91-4.25-33.36-6.78-50-3-21.36,4.85-35.82,16.96-43,24Z"/>
    <path class="cls-1" d="M1950.36,403.68c7.1,5.56,9.21,14.51,9.81,21.64-2.3,1.53-6.03,4.47-8.72,9.28-2.52,4.5-2.93,8.47-3.27,12.37-.41,4.68-.41,11.72,2.18,19.58,4.17,12.64,12.73,20.37,16.35,23.71,0,0,9.06,8.36,42.5,46.38,18.81,21.39,25.12,43.37,31.6,65.96,14.07,49.04,6.93,91.5,1.09,114.4-4-1.03-7.99-2.06-11.99-3.09,5.76-24.58,11.08-64.82-2.18-110.28-4.33-14.85-12.26-40.99-34.87-66.99-8.7-10-22.58-25.62-46.86-36.07-9.64-4.15-28.11-11.84-52.31-9.28-15.1,1.6-26.71,6.59-33.78,10.31-7.1,2.9-17.57,8.12-27.24,17.52-11.26,10.94-13.35,19.67-21.79,30.92-6.46,8.61-17.69,20.08-38.14,29.89-.19-25.95,4.16-73.2,38.14-114.4"/>
    <path class="cls-7" d="M1066.01,660.13c-4.8-4.78-25.09-23.93-52.59-21.83-6.46,.49-12.13,2.07-16.87,3.97-1.6-4.21-9.38-23.32-30.76-33.73-20.27-9.87-39.05-5.24-43.66-3.97-2.9-3.58-8.99-10.04-18.85-13.89-16.97-6.62-32.25-.5-35.72,.99-.53-3.15-4.16-22.8-22.82-34.73-16.86-10.78-34.12-7.67-37.7-6.95-4.41-31.18-24.74-52.66-45.64-53.58-11.51-.5-21.05,5.33-26.79,9.92-9.08-2.14-43.41-9.09-77.39,9.92-24.54,13.72-36.93,34.29-40.68,40.68-6.51,11.09-9.97,21.37-11.91,28.77-7.64-4.82-17.17-5.22-24.81-.99-9.61,5.32-11.65,15.45-11.91,16.87-6.4-1-12.16,2.16-13.89,6.95-1.51,4.15,.54,8.1,.99,8.93-20.25-.32-34.95,8.51-36.71,18.85-.34,2.02-.55,6.19,2.98,11.91-.13,.02-.26,.05-.39,.07-7.12-3.01-13.79-3.11-16.48-3.05-4.6-11.65-14.53-19.77-25.8-20.84-9.18-.87-16.23,3.24-18.85,4.96-2.77-2.93-16.96-17.37-37.7-16.87-22.3,.54-43.06,18.11-49.61,43.66-3.47-2.22-8.17-4.41-13.89-4.96-19.71-1.91-40.04,16.69-37.55,25.8,2.45,8.92,27.07,9.54,37.55,8.93,16.49-.96,29.24-6.74,36.71-10.91,14.88,5.88,38.68,13.08,68.46,12.9,19.67-.12,36.25-3.43,48.62-6.95,5.94,1.86,11.54,2.17,16.18,1.37,3.28,1.86,7.1,3.52,11.6,4.59,18.98,4.52,34.48-4.89,37.7-6.95,5.74,6.7,19.21,20.41,40.68,25.8,44.11,11.06,79.32-23.72,81.36-25.8,2.83,4.2,13.22,18.53,32.74,23.81,27.96,7.57,50.26-10.01,52.59-11.91,14.96,8.07,41.91,19.99,77.39,21.83,51.73,2.69,90.11-17.69,105.18-26.79,10.94,3.25,29.56,7.29,52.59,4.96,22.48-2.27,39.59-9.64,49.61-14.88,15.43,4.05,37.17,7.78,63,6,13.85-.96,26.03-3.3,36.22-6,3.97,2.74,12.64,7.92,24.81,8.93,16.04,1.33,27.85-5.46,31.75-7.94,7.47,4.52,22.32,12.15,42.67,13.89,21.08,1.8,37.51-3.63,45.64-6.95,.65-.37,10.89-6.29,10.91-14.88,.03-8.97-11.05-19.08-26.79-17.86-9.09-20.05-27.24-32.6-45.64-31.75-12.43,.58-21.48,7.11-25.57,10.56-5.35-4.38-15.27-11.1-29-13-33.45-4.62-57.26,23.85-59,26-5.62-2.47-17.69-6.84-33-5-22.6,2.72-36.33,17.07-39.97,21.13Z"/>
    <path class="cls-5" d="M2065.98,412c.52,2.94,.91,6.3,1,10,.18,7.16-.83,13.29-2,18-5.49,2.9-11.65,2.38-15-1-5.34-5.38-.54-14.92,0-16,4.45-8.85,14.53-10.75,16-11Z"/>
    <path class="cls-10" d="M1351.98,500.4c-3.01-.68-6.01-1.38-9-2.11v28.79c2.96,.58,5.96,1.13,9,1.68v-28.36Z"/>
    <g>
      <path class="cls-2" d="M1642.12,304.86c.99,1.83,2.14,3.77,3.48,5.77,2.33,3.47,4.74,6.39,6.99,8.8,9.26,18.1,18.51,36.2,27.77,54.31-5.89-2.14-13.4-5.86-20.32-12.5-21.62-20.72-18.48-51.64-17.93-56.38Z"/>
      <path class="cls-2" d="M1668.73,291.24c1.7-3.08,4.23-7.27,7.77-11.92,6.79-8.92,13.62-14.72,15.73-16.46,7.28-6.01,9.27-5.84,13.75-10.76,4.26-4.68,6.68-9.45,8.05-12.73,1.53,1.79,3.37,4.43,4.55,7.96,.35,1.06,.61,2.07,.79,3.01,1.28-1.08,2.57-2.15,3.85-3.23,.35,1.64,.69,3.28,1.04,4.92,.72,2.33,1.42,4.7,2.1,7.11,1.46,5.13,2.76,10.15,3.93,15.04-1.7,9.52-16.11,88.15-33.96,87.72-14.98-.35-25.12-56.23-27.59-70.67Z"/>
      <path class="cls-2" d="M1757.24,328.21c-2.79,1.86-5.18,3.17-6.86,4.02-3.39,1.71-5.3,2.3-8.77,4.27-2.04,1.15-3.64,2.22-4.67,2.95-2.06,5.07-4.11,10.14-6.17,15.21,5.11-3.08,11.63-7.79,17.89-14.8,3.65-4.08,6.45-8.09,8.58-11.63Z"/>
      <path class="cls-20" d="M1664.77,278.92c-1.85,3.18-4.22,7.68-6.42,13.29-2.27,5.81-5.46,14.15-6,25.3-.56,11.37,1.91,19.94,2.49,21.85,1.38,4.6,4.53,14.66,13.65,23.88,5.64,5.71,11.49,8.98,15.43,10.81-6.46-3.2-16.77-9.42-25.68-20.74-15.46-19.63-16.18-41.23-16.11-48.45-.97,4.88-1.71,10.87-1.56,17.71,.28,12.64,3.47,22.83,6.22,29.52,2.47,4.02,7.46,10.94,16.18,16.54,10.88,6.99,21.51,8.03,26.37,8.2,3.9,1.25,9.98,2.7,17.43,2.37,13.07-.57,22.21-6.21,25.73-8.45,21.54-13.67,25.55-39.77,26.12-43.9-2.59,2.42-5.26,4.84-7.99,7.28-5.66,5.04-11.27,9.79-16.79,14.27,1.99-4.32,3.78-9.21,5.07-14.67,6.31-26.6-3.1-49.77-8.34-60.37-1.51,1.49-3.92,3.86-6.89,6.74-9.74,9.44-16.45,15.58-17.64,16.72-5.89,5.63-12.41,18.46-13.92,50.85-1.1-14.97-5.41-25.01-9.2-31.47-4.25-7.22-9.95-13.52-14.72-26.07-1.77-4.65-2.81-8.61-3.42-11.22Z"/>
      <path class="cls-2" d="M1663.07,286.01c-4.24,16.36-3.67,33.79,1.64,49.84,.13,.39,.76,.22,.62-.17-5.28-15.94-5.86-33.24-1.64-49.49,.1-.4-.52-.58-.62-.17h0Z"/>
      <path class="cls-2" d="M1666.41,341.8c.69,1.29,1.38,2.57,2.06,3.86,.2,.37,.75,.04,.56-.33-.69-1.29-1.38-2.57-2.06-3.86-.2-.37-.75-.04-.56,.33h0Z"/>
      <path class="cls-2" d="M1670.32,350.79c4.83,7.74,10.72,14.77,17.48,20.89,.31,.28,.77-.18,.46-.46-6.73-6.08-12.58-13.07-17.38-20.76-.22-.35-.78-.03-.56,.33h0Z"/>
      <path class="cls-2" d="M1667.3,302.83c1.68,15.63,5.43,31.01,11.19,45.64,1.61,4.08,3.37,8.1,5.28,12.06,.18,.37,.74,.05,.56-.33-6.73-13.97-11.6-28.82-14.44-44.07-.82-4.41-1.46-8.85-1.94-13.31-.04-.41-.69-.41-.65,0h0Z"/>
      <path class="cls-2" d="M1692.17,336.33c-.37,12.53,.07,25.07,1.33,37.54,.04,.41,.69,.41,.65,0-1.26-12.47-1.71-25.01-1.33-37.54,.01-.42-.63-.42-.65,0h0Z"/>
      <path class="cls-2" d="M1719.71,297.81c-6.36,14.09-9.53,29.29-11.89,44.49-.68,4.38-1.29,8.76-1.91,13.14-.06,.41,.57,.58,.62,.17,2.12-15.15,4.27-30.41,8.96-45.02,1.36-4.24,2.94-8.4,4.78-12.46,.17-.38-.39-.71-.56-.33h0Z"/>
      <path class="cls-2" d="M1724.21,288.03c-.56,.65-1,1.38-1.31,2.19-.06,.16,.07,.36,.23,.4,.18,.04,.33-.06,.4-.23s.12-.3,.21-.48,.18-.35,.28-.52c.2-.34,.41-.62,.65-.9,.11-.13,.13-.33,0-.46-.12-.11-.34-.14-.46,0h0Z"/>
      <path class="cls-2" d="M1724.35,308.1c-1.72,5.97-3.24,11.99-4.57,18.06-.09,.41,.53,.58,.62,.17,1.32-6.07,2.85-12.09,4.57-18.06,.12-.4-.51-.57-.62-.17h0Z"/>
      <path class="cls-2" d="M1716.85,336.43c-3.48,11.12-7.55,22.05-12.22,32.73-.17,.38,.39,.71,.56,.33,4.69-10.73,8.79-21.71,12.29-32.88,.12-.4-.5-.57-.62-.17h0Z"/>
      <path class="cls-2" d="M1736.36,306.09c-2.52,17.64-5.81,35.66-14.96,51.23-2.43,4.14-5.27,8.04-8.51,11.58-.28,.31,.18,.77,.46,.46,11.86-12.97,17.66-29.99,20.98-46.96,1.05-5.35,1.88-10.75,2.65-16.15,.06-.41-.56-.58-.62-.17h0Z"/>
      <path class="cls-2" d="M1735.33,345.42c-4.79,10.96-11.1,22.29-22.47,27.49-.38,.17-.05,.73,.33,.56,11.46-5.24,17.86-16.66,22.7-27.72,.17-.38-.39-.71-.56-.33h0Z"/>
      <path class="cls-2" d="M1744.35,350.34c-3.11,3.96-6.58,7.62-10.39,10.9s-8.17,6.54-13.18,8.02c-.4,.12-.23,.74,.17,.62,4.85-1.43,9-4.42,12.83-7.65,4.06-3.42,7.75-7.27,11.03-11.44,.25-.32-.2-.78-.46-.46h0Z"/>
      <path class="cls-20" d="M1711.69,246.6c-.58,2.43-1.29,4.82-2.12,7.18-.14,.39,.49,.56,.62,.17,.83-2.35,1.54-4.75,2.12-7.18,.1-.4-.53-.58-.62-.17h0Z"/>
      <path class="cls-20" d="M1708.15,259.3c-.5,.9-.92,1.84-1.26,2.8-.06,.16,.07,.35,.23,.4,.18,.05,.34-.06,.4-.23,.33-.91,.73-1.8,1.2-2.65,.2-.36-.36-.69-.56-.33h0Z"/>
      <path class="cls-20" d="M1704.63,267.32c-9.13,14.55-14.64,31.21-16.01,48.33-.03,.41,.61,.41,.65,0,1.36-17.01,6.85-33.55,15.92-48,.22-.35-.34-.68-.56-.33h0Z"/>
      <path class="cls-20" d="M1700.72,263.47c-1.33,1.82-2.65,3.63-3.98,5.45-.25,.34,.32,.66,.56,.33,1.33-1.82,2.65-3.63,3.98-5.45,.25-.34-.32-.66-.56-.33h0Z"/>
      <path class="cls-20" d="M1693.83,272.8c-8.26,8.6-14.13,19.3-16.95,30.89-.1,.4,.53,.58,.62,.17,2.79-11.48,8.6-22.08,16.78-30.6,.29-.3-.17-.76-.46-.46h0Z"/>
      <path class="cls-20" d="M1719.51,251.11c2.86,7.31,4.21,15.09,3.97,22.94-.01,.42,.63,.42,.65,0,.24-7.89-1.12-15.75-4-23.11-.15-.38-.78-.22-.62,.17h0Z"/>
      <path class="cls-20" d="M1716.39,252.47c.37,1.27,.52,2.58,.43,3.9-.03,.42,.62,.41,.65,0,.08-1.37-.07-2.75-.46-4.07-.12-.4-.74-.23-.62,.17h0Z"/>
      <path class="cls-20" d="M1716.49,260.55c.15,1.74,0,3.48-.44,5.17-.11,.4,.52,.57,.62,.17,.46-1.74,.62-3.55,.46-5.35-.04-.41-.68-.42-.65,0h0Z"/>
      <path class="cls-20" d="M1715.54,269.38c-1.49,6.61-3.35,13.13-5.59,19.52-.14,.39,.49,.56,.62,.17,2.24-6.39,4.11-12.91,5.59-19.52,.09-.41-.53-.58-.62-.17h0Z"/>
    </g>
    <g>
      <path class="cls-2" d="M1939.08,230.42c5.72-10.34,12.59-16.08,16.87-19.04,1.93-1.34,12.22-8.47,23.83-10.26,1.92-.3,6.89-.91,13.03-3.43,2.55-1.05,4.57-2.12,5.88-2.88,.67,3.21,1.46,7.56,2.03,12.73,1.59,14.36,.48,25.41-.22,31.9-.92,8.63-2.79,19.73-6.75,32.3,3.75-2.49,7.97-4.98,12.67-7.32,12.93-6.45,25.13-9.6,34.87-11.18,2.83,1.7,6.6,3.59,11.27,4.99,3.11,.94,5.97,1.46,8.43,1.76-.35,2.44-1.06,5.99-2.67,9.99-3.49,8.63-9.46,15.09-21.02,23.45-15.66,11.33-24.78,17.94-40.02,21.83-19.51,4.98-36.13,2.2-45.13-.05-2.47,1.76-7.66,4.95-15.02,5.95-6.72,.91-12.12-.44-14.96-1.37-5.03,1.22-12.75,2.53-22.07,1.84-22.94-1.72-38.41-14.35-45.85-20.42-15.91-12.99-24.28-28.11-28.49-37.6-.6-3.24-1.05-7.5-.63-12.44,.25-2.89,.74-5.46,1.3-7.64,3.48-.49,7.69-.82,12.44-.63,5.72,.23,10.62,1.14,14.5,2.15-.74-2.93-1.39-6.61-1.54-10.87-.2-5.83,.63-10.75,1.53-14.33,1.4,1.19,3.46,3.12,5.52,5.84,3.02,3.99,3.03,5.67,5.39,7.87,2.82,2.62,5.13,2.35,9.7,4.08,3.08,1.16,7.32,3.28,11.92,7.47-.08-2-.03-4.81,.52-8.1,.52-3.08,1.95-11.05,7.86-17.99,4.47-5.26,7.12-4.77,10.61-10.09,2.49-3.81,3.48-7.64,3.91-10.32,2.25,1.35,5.61,3.41,9.57,6.1,8.06,5.47,12.16,8.29,15.25,12.57,1.77,2.44,4.26,6.67,5.46,13.16Z"/>
      <ellipse class="cls-16" cx="1939.27" cy="291.7" rx="38.81" ry="24.06"/>
      <path class="cls-20" d="M1942.18,313.8c.24,2.97,.97,7.43,3.37,12.14,7.49,14.65,24.78,19,32.37,20.9,4.35,1.09,10.81,2.26,18.88,2.02-1.66-3.41-3.35-6.11-4.72-8.09-5.78-8.38-15.1-17.48-23.6-20.9-3.32-1.34-4.91-2.24-8.09-4.05-2.02-1.15-3.36-2.02-4.72-3.37-1.72-1.71-2.76-3.48-3.37-4.72-3.37,2.02-6.74,4.05-10.12,6.07Z"/>
      <path class="cls-20" d="M2033.89,313.8c-2.19-1.51-5.61-3.5-10.12-4.72-6.31-1.71-11.49-1-14.16-.67-11.99,1.48-22.15,1.43-42.48,1.35-3.81-.02-9.92-.13-17.53-.67,.31,1.61,.98,3.94,2.7,6.07,3.3,4.11,8.23,4.76,14.16,6.07,11.82,2.61,9.48,3.82,18.21,5.39,7.56,1.36,24.48,4.41,33.72-2.7,1.22-.94,4.35-3.63,9.44-6.74,2.52-1.54,4.66-2.67,6.07-3.37Z"/>
      <path class="cls-20" d="M1935.29,326.38c.18,2.36,.19,6.31-1.35,10.79-.77,2.25-3.05,8.61-9.44,12.81-8.56,5.63-18.01,3.13-19.56,2.7-1.03,.69-2.62,1.56-4.72,2.02-1.26,.28-2.2,.47-2.7,0-1.19-1.14,1.23-5.21,1.35-5.39-3.2,1.48-6.8,2.88-10.79,4.05-14.26,4.17-27.04,3.43-35.74,2.02,.55-1.18,1.42-2.86,2.7-4.72,1.92-2.79,3.79-4.57,5.39-6.07,5.72-5.37,8.58-8.05,9.44-8.77,13.58-11.31,20.38-16.97,29-21.58,10.03-5.36,21.41-11.44,29-6.74,2.58,1.6,5.31,4.8,6.74,8.77,1.64,4.51,1.03,8.45,.67,10.12Z"/>
      <path class="cls-20" d="M1954.36,253.15s1.31,4.19,3.45,7.59c4.48,7.11,10.24,6.75,16.57,13.12,2.12,2.13,4.85,5.57,6.9,11.05-1.15,3.09-3.06,7.54-6.21,12.43-3.15,4.89-10.92,16.93-25.54,22.09-4.66,1.65-11.69,4.13-19.33,1.38-7.1-2.56-10.87-8.25-13.12-11.74-11.44-17.79-5.81-40.85-4.14-46.95,1.87-1.32,4.92-3.25,8.97-4.83,7.18-2.8,11.23-2.06,17.95-4.14,3.23-1,7.89-2.91,13.12-6.9,.17,1.82,.54,4.21,1.38,6.9Z"/>
      <path class="cls-20" d="M1915.85,306.78c-3.78-4.42-9.24-10.66-16.04-17.96-17.09-18.36-21.53-20.74-23.74-21.81-3.54-1.72-10.06-3.71-23.09-7.7-5.71-1.75-9.11-2.67-13.47-5.13-6.17-3.49-10.32-7.83-12.83-10.91-.97,3.03-1.99,7.45-1.92,12.83,.05,3.83,.63,7.1,1.28,9.62,3.7,7.64,9.51,17.37,18.6,26.94,18.01,18.95,38.67,26.47,49.4,29.51,7.27-5.13,14.54-10.26,21.81-15.4Z"/>
      <path class="cls-20" d="M2060.84,259.95c-2.49,4.81-5.09,8.44-7.06,10.91-3.17,3.98-13.05,15.17-28.23,20.53-9.14,3.22-11.97,1.88-23.74,3.85-8.89,1.49-21.58,4.65-36.57,12.19-5.99,3.21-11.98,6.42-17.96,9.62,13.28,3.21,36.63,6.58,59.02-3.21,8.42-3.68,15.67-8.77,26.94-16.68,0,0,9.71-6.81,19.25-17.32,2.35-2.59,5.35-6.14,7.06-11.55,1.07-3.37,1.28-6.34,1.28-8.34Z"/>
      <path class="cls-2" d="M1950.09,251.15c-3.19,9.6-5.02,19.59-5.46,29.69-.01,.31,.47,.31,.48,0,.43-10.06,2.26-20.01,5.44-29.57,.1-.29-.37-.42-.46-.13h0Z"/>
      <path class="cls-2" d="M1943.28,285.17c-.89,9.68-3.06,19.2-6.45,28.31-.11,.29,.36,.42,.46,.13,3.41-9.15,5.58-18.71,6.47-28.43,.03-.31-.45-.31-.48,0h0Z"/>
      <path class="cls-2" d="M1933.14,258.06c-3.2,17.45-4.38,35.23-3.52,52.95,.01,.31,.5,.31,.48,0-.86-17.68,.31-35.41,3.51-52.82,.06-.3-.41-.43-.46-.13h0Z"/>
      <path class="cls-2" d="M1969.59,280.46c-2.22,13.38-8.51,25.9-17.94,35.65-.22,.22,.12,.56,.34,.34,9.48-9.81,15.83-22.4,18.06-35.86,.05-.3-.41-.43-.46-.13h0Z"/>
      <path class="cls-2" d="M1962.46,275.18c-.46,1.86-.76,3.75-.9,5.66-.02,.31,.46,.31,.48,0,.14-1.87,.44-3.72,.89-5.54,.07-.3-.39-.43-.46-.13h0Z"/>
      <path class="cls-2" d="M1959.15,290.14c-3.07,8.86-6.85,17.45-11.29,25.7-.15,.27,.27,.52,.42,.24,4.46-8.29,8.25-16.92,11.34-25.81,.1-.29-.36-.42-.46-.13h0Z"/>
      <path class="cls-2" d="M1863.73,270.46c.52,.31,1.04,.62,1.56,.93,.11,.06,.27,.03,.33-.09s.03-.26-.09-.33c-.52-.31-1.04-.62-1.56-.93-.11-.06-.27-.03-.33,.09s-.03,.26,.09,.33h0Z"/>
      <path class="cls-2" d="M1868.96,274.09c11.35,11,19.68,24.68,31.14,35.57,3.15,3,6.54,5.74,10.2,8.1,.26,.17,.5-.25,.24-.42-13.28-8.57-22.22-21.89-32.22-33.79-2.86-3.4-5.83-6.71-9.02-9.8-.22-.22-.56,.12-.34,.34h0Z"/>
      <path class="cls-2" d="M1898.47,298.75c6.33,6.42,12.83,12.67,19.51,18.74,.23,.21,.57-.13,.34-.34-6.67-6.07-13.18-12.32-19.51-18.74-.22-.22-.56,.12-.34,.34h0Z"/>
      <path class="cls-2" d="M1894.02,316.37c-16.08-7.19-32.22-15.43-44.36-28.52-3.3-3.56-6.24-7.44-8.72-11.62-.16-.27-.57-.02-.42,.24,8.92,15.05,23.49,25.49,38.76,33.41,4.75,2.46,9.6,4.72,14.48,6.9,.28,.13,.53-.29,.24-.42h0Z"/>
      <path class="cls-2" d="M1840.89,266.7c2.71,3.6,5.76,6.93,9.12,9.94,.23,.21,.57-.13,.34-.34-3.33-2.98-6.36-6.27-9.05-9.84-.18-.24-.6,0-.42,.24h0Z"/>
      <path class="cls-2" d="M2016.64,307.22c-14.66,10.8-33.34,14.04-51.17,12.11-5.53-.6-10.99-1.68-16.37-3.09-.3-.08-.43,.38-.13,.46,18.07,4.76,37.65,5.47,55.15-1.86,4.52-1.89,8.81-4.3,12.76-7.21,.25-.18,0-.6-.24-.42h0Z"/>
      <path class="cls-2" d="M2032.86,291.53c-3.4,2.62-7.31,4.48-11.48,5.47-.3,.07-.17,.54,.13,.46,4.21-1,8.17-2.88,11.6-5.52,.24-.19,0-.6-.24-.42h0Z"/>
      <path class="cls-2" d="M2011.85,300.74c-16.22,1.75-32.02,6.52-46.49,14.05-.27,.14-.03,.56,.24,.42,14.4-7.48,30.12-12.24,46.25-13.98,.3-.03,.31-.51,0-.48h0Z"/>
      <path class="cls-2" d="M1985.07,313.75c-5.01,1.13-10.09,1.85-15.22,2.14-.31,.02-.31,.5,0,.48,5.17-.29,10.3-1.01,15.35-2.15,.3-.07,.17-.53-.13-.46h0Z"/>
      <path class="cls-2" d="M1920.01,323.02c-9.13,3.78-18.57,9.17-22.17,18.95-.11,.29,.36,.42,.46,.13,3.54-9.6,12.88-14.91,21.83-18.62,.28-.12,.16-.58-.13-.46h0Z"/>
      <path class="cls-2" d="M1922.18,325.52c-2.25,1.77-4.39,3.68-6.39,5.72-.22,.22,.12,.56,.34,.34,2-2.04,4.14-3.95,6.39-5.72,.24-.19-.1-.53-.34-.34h0Z"/>
      <path class="cls-2" d="M1911.21,335.98c-3.02,3.33-5.65,6.99-7.85,10.92-.15,.27,.26,.51,.42,.24,2.17-3.89,4.78-7.52,7.77-10.82,.21-.23-.13-.57-.34-.34h0Z"/>
      <path class="cls-2" d="M1929.15,333.52c-2.36,3.81-5.23,7.28-8.54,10.32-.23,.21,.11,.55,.34,.34,3.33-3.06,6.23-6.57,8.61-10.41,.16-.26-.25-.51-.42-.24h0Z"/>
      <path class="cls-2" d="M1900.19,324.56c-7.35,2.11-14.23,5.61-20.28,10.29-.24,.19,.1,.53,.34,.34,5.98-4.63,12.79-8.08,20.06-10.17,.3-.09,.17-.55-.13-.46h0Z"/>
      <path class="cls-2" d="M1872.65,340.32c-1.56,1.76-3.12,3.51-4.68,5.27-.21,.23,.13,.57,.34,.34,1.56-1.76,3.12-3.51,4.68-5.27,.21-.23-.13-.57-.34-.34h0Z"/>
      <path class="cls-2" d="M1953.52,323.6c9.16,7.14,18.6,13.92,28.3,20.31,.26,.17,.5-.25,.24-.42-9.66-6.37-19.07-13.12-28.2-20.24-.24-.19-.58,.15-.34,.34h0Z"/>
      <path class="cls-2" d="M1972.16,331.08c4.22,4.04,8.72,7.77,13.47,11.17,.25,.18,.49-.24,.24-.42-4.71-3.38-9.18-7.08-13.37-11.09-.22-.21-.56,.13-.34,.34h0Z"/>
      <path class="cls-20" d="M1997.01,202.78c1.11,17.59-.53,35.32-4.9,52.4-1.24,4.84-2.7,9.62-4.36,14.33-.1,.29,.36,.42,.46,.13,5.84-16.59,9.09-34.06,9.56-51.64,.14-5.07,.03-10.15-.29-15.21-.02-.31-.5-.31-.48,0h0Z"/>
      <path class="cls-20" d="M1997.7,254.62c-2.29,12.58-7.38,24.53-14.87,34.89-.18,.25,.24,.49,.42,.24,7.51-10.39,12.63-22.39,14.92-35.01,.06-.3-.41-.43-.46-.13h0Z"/>
      <path class="cls-20" d="M1987.6,210.5c-.85,2.64-2.02,5.17-3.47,7.53-.16,.26,.25,.51,.42,.24,1.47-2.4,2.65-4.97,3.52-7.65,.1-.3-.37-.42-.46-.13h0Z"/>
      <path class="cls-20" d="M1980.87,226.02c-.51,1.04-1.03,2.08-1.54,3.12-.14,.28,.28,.52,.42,.24,.51-1.04,1.03-2.08,1.54-3.12,.14-.28-.28-.52-.42-.24h0Z"/>
      <path class="cls-20" d="M1974.94,240.06c-2.18,6.22-4.36,12.43-6.54,18.65-.1,.29,.36,.42,.46,.13,2.18-6.22,4.36-12.43,6.54-18.65,.1-.29-.36-.42-.46-.13h0Z"/>
      <path class="cls-20" d="M1978.7,205.33c-12.57,9.42-22.63,21.97-29.07,36.3-.13,.28,.29,.53,.42,.24,6.41-14.25,16.4-26.75,28.9-36.13,.24-.18,0-.6-.24-.42h0Z"/>
      <path class="cls-20" d="M1911.91,209.02c5.82,15.58,5.65,32.43,5.41,48.82,0,.31,.48,.31,.48,0,.24-16.43,.41-33.33-5.43-48.95-.11-.29-.57-.16-.46,.13h0Z"/>
      <path class="cls-20" d="M1909.06,239.48c.9,7.22,1.21,14.5,.95,21.77-.01,.31,.47,.31,.48,0,.26-7.27-.06-14.55-.95-21.77-.04-.3-.52-.31-.48,0h0Z"/>
      <path class="cls-20" d="M1900.66,222.03c-.32,2.28-.64,4.56-.96,6.84-.04,.3,.42,.43,.46,.13,.32-2.28,.64-4.56,.96-6.84,.04-.3-.42-.43-.46-.13h0Z"/>
      <path class="cls-20" d="M1898.32,244.47c.08,9.47,1.78,18.86,5.03,27.75,.11,.29,.57,.16,.46-.13-3.24-8.86-4.94-18.19-5.02-27.62,0-.31-.48-.31-.48,0h0Z"/>
      <path class="cls-20" d="M1938.06,228.34c1.41,7.89,1.88,15.9,1.43,23.9-.02,.31,.46,.31,.48,0,.45-8.04-.04-16.1-1.45-24.03-.05-.3-.52-.18-.46,.13h0Z"/>
      <path class="cls-20" d="M1885.52,241.67c.17,15.5,5.49,30.71,14.98,42.96,.19,.24,.53-.1,.34-.34-9.42-12.14-14.67-27.25-14.84-42.62,0-.31-.48-.31-.48,0h0Z"/>
      <path class="cls-20" d="M1852.51,242.41c1.62,6.87,4.37,13.43,8.14,19.4,.16,.26,.58,.02,.42-.24-3.75-5.94-6.48-12.45-8.09-19.29-.07-.3-.54-.17-.46,.13h0Z"/>
      <path class="cls-20" d="M1859.09,231.73c1.47,3.88,3.52,7.51,6.07,10.79,.19,.24,.53-.1,.34-.34-2.5-3.21-4.5-6.78-5.94-10.57-.11-.29-.57-.16-.46,.13h0Z"/>
      <path class="cls-20" d="M1873.22,253.11c3.72,4.37,7.26,8.9,10.59,13.57,.18,.25,.6,0,.42-.24-3.36-4.71-6.92-9.27-10.67-13.67-.2-.24-.54,.11-.34,.34h0Z"/>
      <path class="cls-20" d="M2049.95,264.16c-2.99,2.09-6.23,3.79-9.66,5.04-.29,.11-.16,.57,.13,.46,3.47-1.27,6.75-2.97,9.78-5.09,.25-.18,.01-.59-.24-.42h0Z"/>
      <path class="cls-20" d="M2030.48,274.98c-12.89,6.14-26.53,10.62-40.55,13.34-.3,.06-.18,.52,.13,.46,14.06-2.73,27.73-7.24,40.66-13.39,.28-.13,.04-.55-.24-.42h0Z"/>
      <path class="cls-20" d="M2040.32,260.77c-2.76,1.59-5.67,2.89-8.7,3.88-.29,.1-.17,.56,.13,.46,3.07-1,6.02-2.31,8.82-3.93,.27-.15,.03-.57-.24-.42h0Z"/>
      <path class="cls-20" d="M2021.05,267.76c-5.75,1.83-11.31,4.24-16.55,7.22-2.64,1.5-5.21,3.15-7.67,4.93-2.12,1.53-4.78,3.14-6.12,5.44-.16,.27,.26,.51,.42,.24,.75-1.28,1.91-2.17,3.05-3.08,1.23-.98,2.5-1.91,3.78-2.82,2.31-1.62,4.7-3.13,7.17-4.51,5.1-2.87,10.49-5.19,16.06-6.96,.29-.09,.17-.56-.13-.46h0Z"/>
      <path class="cls-20" d="M1998.38,292.37c-6.73,2.08-13.46,4.17-20.2,6.25-.29,.09-.17,.56,.13,.46,6.73-2.08,13.46-4.17,20.2-6.25,.29-.09,.17-.56-.13-.46h0Z"/>
      <path class="cls-16" d="M1961.45,244.36c-1.71-2.91-2.84-4.27-3.39-4.06-.78,.29-.42,3.7,1.1,10.22,.98-.17,2.68-.6,4.22-1.93,1.58-1.37,3.14-3.8,2.45-4.7-.78-1.02-4.1,.36-4.38,.47Z"/>
      <path class="cls-16" d="M1930.6,225.18c-3.01-1.54-4.69-2.07-5.05-1.6-.51,.67,1.64,3.34,6.43,8.02,.74-.67,1.94-1.95,2.52-3.9,.6-2,.6-4.89-.46-5.27-1.21-.44-3.27,2.51-3.44,2.75Z"/>
      <path class="cls-16" d="M1904.3,259.18c-3.01-1.54-4.69-2.07-5.05-1.6-.51,.67,1.64,3.34,6.43,8.02,.74-.67,1.94-1.95,2.52-3.9,.6-2,.6-4.89-.46-5.27-1.21-.44-3.27,2.51-3.44,2.75Z"/>
      <path class="cls-16" d="M1921.62,243.78c-3.01-1.54-4.69-2.07-5.05-1.6-.51,.67,1.64,3.34,6.43,8.02,.74-.67,1.94-1.95,2.52-3.9,.6-2,.6-4.89-.46-5.27-1.21-.44-3.27,2.51-3.44,2.75Z"/>
      <path class="cls-16" d="M1880.21,254.58c-3.27-.83-5.03-.97-5.28-.43-.34,.76,2.34,2.89,8.06,6.38,.57-.81,1.45-2.34,1.58-4.37,.14-2.09-.5-4.9-1.63-5.04-1.27-.16-2.62,3.17-2.74,3.45Z"/>
      <path class="cls-16" d="M1976.94,266.32c-1.38-3.08-2.36-4.55-2.94-4.41-.81,.2-.81,3.63,0,10.28,.99-.06,2.73-.31,4.41-1.47,1.72-1.19,3.53-3.44,2.94-4.41-.67-1.1-4.12-.09-4.41,0Z"/>
      <path class="cls-20" d="M1958.59,250.37c-1.69,6.19-3.38,12.39-5.07,18.58-.16,.6,.76,.85,.93,.26,1.69-6.19,3.38-12.39,5.07-18.58,.16-.6-.76-.85-.93-.26h0Z"/>
      <path class="cls-20" d="M1931.68,232.8c.06,7.79-.31,15.57-1.11,23.32-.06,.62,.9,.61,.96,0,.8-7.75,1.16-15.53,1.11-23.32,0-.62-.97-.62-.96,0h0Z"/>
      <path class="cls-20" d="M1922.47,251.4c.6,4.79,.79,9.63,.57,14.46-.03,.62,.93,.62,.96,0,.22-4.83,.03-9.66-.57-14.46-.08-.61-1.04-.61-.96,0h0Z"/>
      <path class="cls-20" d="M1905.13,265.69c.67,3.35,1.34,6.7,2,10.05,.12,.61,1.05,.35,.93-.26-.67-3.35-1.34-6.7-2-10.05-.12-.61-1.05-.35-.93,.26h0Z"/>
      <path class="cls-20" d="M1882.48,260.79c4.97,8.84,10.98,17.06,17.9,24.47,.42,.45,1.1-.23,.68-.68-6.87-7.36-12.82-15.51-17.75-24.28-.3-.54-1.13-.06-.83,.49h0Z"/>
    </g>
    <path class="cls-13" d="M1996.98,476c-4.96,1.22-12.54,2.65-21,0-3.72-1.16-11.39-3.56-13-9-2.45-8.28,9.54-22.25,23-25,12.08-2.46,18.3,5.56,28,1,5.93-2.79,6.1-6.96,12-14,13.71-16.35,36.24-21.8,39-18,2.48,3.41-10.94,14.4-7,22,.96,1.85,2.91,3.43,5,4,3.42,.93,6.42-1.08,10-3,0,0,5.18-2.78,15-6,4.11-1.35,14.9-4.89,25,0,8.68,4.21,12.35,12.47,13,14,3.59,8.49-.43,11.54,3,17,4.3,6.85,11.61,3.63,24,12,5.03,3.4,11.23,7.58,12,14,.8,6.62-5,8.62-4,15,1.18,7.5,9.82,8.73,10,16,.07,3.06-1.37,6.66-4,8-5.49,2.79-14.17-5.3-16-7-7.25-6.75-6.39-11.1-12-18-7.46-9.17-17.84-12.4-23-14-16.28-5.06-22.63,1.51-32-5-7.45-5.17-5.26-10.59-13-17-10.94-9.05-26.27-7.31-29-7-18.08,2.05-20.13,13.86-45,20Z"/>
    <path class="cls-13" d="M1838.66,403.68c-9.57-1.66-7.71-10.43-22.88-15.46-9.33-3.1-22.59-3.98-34.7,.54-.55,.21-.98,.37-1.26,.49-23.88,9.45-37.43,37.4-35.96,59.78,.96,14.56,7.79,19.4,5.45,35.04-1.78,11.91-6.31,12.85-11.99,27.83-9.56,25.23-5.85,46.63-4.36,54.62,2.37,12.7,4.93,26.36,15.26,29.89,2.64,.9,8.9,2.25,21.79-5.15,12.91-7.41,26.26-20.08,40.32-49.47,15.95-33.34,14.32-49.58,29.42-55.66,7.85-3.16,9.44,.76,26.15-2.06,11.7-1.98,27.48-4.64,38.14-15.46,11.64-11.81,5.2-20.79,17.44-31.95,9.6-8.76,22.49-10.53,28.33-11.34,7.43-1.02,8.19,.23,30.51,1.03,20.34,.73,23.9-.16,27.24-2.06,6.81-3.86,12.51-11.26,13.08-19.58,.88-12.94-10.92-21.73-16.35-25.77-9.08-6.76-18.44-8.7-21.79-9.28-17.59-3.02-24.46,5.02-43.59,7.21-25.77,2.96-27.9-9.96-46.86-6.18-27.97,5.57-35.49,36.09-53.4,32.98Z"/>
    <path class="cls-18" d="M1166.47,761.13c10.52-1.4,21.26-5.88,21.26-5.88,5.77-2.41,10.34-5.04,13.56-7.1,1.04,1.24,10.34,11.94,25.73,11.54,13.22-.34,21.31-8.62,22.71-10.1,4.86,5.34,13.8,13.4,27.25,17.31,22.78,6.62,48.93-1.47,68.12-20.19,8.33-2.8,21.15-5.91,36.33-4.33,11.98,1.25,17.8,4.63,28.76,7.21,10.69,2.52,26.81,4.41,48.44,0,11.53,6.81,25.32,13.4,41.38,18.41,61.68,19.23,116.99,2.54,141.78-6.87,10.78,10.01,26.27,21.44,46.92,28.85,66.94,23.99,129.52-15.31,139.26-21.63,14.91,7.18,32.08,13.83,51.46,18.75,81.61,20.73,152.97-1.66,188.58-16.09,2.3,.91,16.13,6.09,31-1,16.27-7.76,20.48-23.85,21-26,2.22,.9,13.05,5.04,25,0,10.76-4.53,20.17-15.54,19-24-1.69-12.19-25.8-22.14-61-22,1.54-7.94,3.46-24.3-4-42-1.79-4.24-14.55-33.24-43-39-8.28-1.68-15.42-.88-20,0-6.26-6.25-21.57-19.76-45-24-29.39-5.31-52.16,7.47-62,13-40.15,22.55-52.75,63.82-55.63,74.36-1.33-3.58-7.57-19.25-22.71-24.52-17.04-5.93-35,4.95-36.33,5.77-6.71,4.16-9.08,8.28-16.65,10.1-7.12,1.71-13.71,.14-18.16-1.44,.35-5.05,.56-18.03-7.57-31.73-8.49-14.31-21.01-20.88-25.73-23.08-3.25-4.75-10.9-14.35-24.22-18.75-19.48-6.44-42.97,.94-59.03,18.75-2.59-4.74-10.09-16.92-25.73-24.52-21.82-10.6-42.86-4.2-46.92-2.88-5.95-3.38-24.78-13.08-43.9-7.21-26.12,8.02-44.46,42.55-34.81,82.21-2.39-1.04-20.79-8.75-36.33,0-16.32,9.19-17.67,29.9-18.16,37.5-.47,7.15,.51,13.15,1.51,17.31-10.21,13.86-26.73,18.74-38.62,13.14-9.51-4.48-13.09-14.25-14-17-4.75-5.7-15.46-16.93-33-23-10.4-3.6-19.67-4.16-26-4-2.98-24.28-20.96-43.07-42-46-26.26-3.65-54.05,17.85-56.78,49.46-5.18-3.99-14.09-9.42-25.73-10.1-21.08-1.23-42.5,13.64-52.98,37.5-2.96-2-14.54-9.33-29.51-6.86-14.88,2.45-30.54,14.16-30,25,.78,15.82,36,27.85,56.49,25.13Z"/>
    <path class="cls-1" d="M1895.92,459.05c-16.73,.69-33.23,4.73-48.49,11.58-15.34,6.89-29.43,16.61-41.24,28.58-6.61,6.69-12.49,14.1-17.49,22.06-.26,.41,.39,.79,.65,.38,8.9-14.17,20.6-26.5,34.15-36.31s28.6-17.01,44.61-21.28c9.09-2.43,18.42-3.87,27.82-4.26,.48-.02,.48-.77,0-.75h0Z"/>
    <path class="cls-1" d="M1786.19,528c-1.44,1.67-2.87,3.34-4.31,5.01-.31,.36,.21,.9,.53,.53,1.44-1.67,2.87-3.34,4.31-5.01,.31-.36-.21-.9-.53-.53h0Z"/>
    <path class="cls-1" d="M1774.36,546.13c-8.45,14.28-15.09,29.6-19.74,45.54-.14,.46,.59,.66,.72,.2,4.63-15.88,11.24-31.12,19.66-45.36,.25-.42-.4-.79-.65-.38h0Z"/>
    <path class="cls-1" d="M1885.98,456.03c-17.7,1.27-35.19,5-51.88,11.01-16.62,5.99-32.45,14.19-46.89,24.37-8.13,5.73-15.81,12.09-22.95,19-.35,.34,.18,.87,.53,.53,12.66-12.25,26.99-22.7,42.48-31.08,15.48-8.38,32.09-14.67,49.24-18.65,9.69-2.24,19.55-3.73,29.47-4.44,.48-.03,.48-.78,0-.75h0Z"/>
    <path class="cls-1" d="M1772.06,412.25c26.37,7.03,52.12,16.39,76.83,27.97,6.94,3.25,13.79,6.68,20.56,10.27,.43,.23,.81-.42,.38-.65-24.1-12.79-49.32-23.45-75.29-31.79-7.37-2.37-14.8-4.54-22.28-6.53-.47-.12-.67,.6-.2,.72h0Z"/>
    <path class="cls-1" d="M1878.99,452.23c4.16,1,8.31,2,12.47,2.99,.47,.11,.67-.61,.2-.72-4.16-1-8.31-2-12.47-2.99-.47-.11-.67,.61-.2,.72h0Z"/>
    <path class="cls-1" d="M1890.64,382.4c-2.86,18.79,1.41,37.87,5.53,56.15,1.12,4.97,2.46,9.89,4.57,14.54,.2,.44,.85,.06,.65-.38-3.72-8.17-5.2-17.29-6.99-26.03-1.89-9.25-3.53-18.6-3.88-28.05-.2-5.36,.03-10.72,.84-16.02,.07-.47-.65-.68-.72-.2h0Z"/>
    <path class="cls-1" d="M1898.48,421.91c1.02,11.32,2.77,22.56,5.22,33.66,.1,.47,.83,.27,.72-.2-2.44-11.03-4.17-22.21-5.19-33.46-.04-.48-.79-.48-.75,0h0Z"/>
    <path class="cls-1" d="M1868.62,413.37c5.73,13.78,12.9,26.91,21.41,39.17,.27,.39,.92,.02,.65-.38-8.47-12.2-15.64-25.27-21.34-38.99-.18-.44-.91-.25-.72,.2h0Z"/>
    <path class="cls-1" d="M1918.18,425.46c12.76-17.39,33.05-27.3,53.93-30.94,6.48-1.13,13.05-1.68,19.63-1.82,.48,0,.48-.76,0-.75-22.16,.46-44.77,6.08-62.16,20.41-4.53,3.73-8.58,7.99-12.05,12.72-.29,.39,.36,.76,.65,.38h0Z"/>
    <path class="cls-1" d="M1975.6,405.42c12.74-4.39,26.63-4.78,39.59-1.1,.47,.13,.66-.59,.2-.72-13.08-3.72-27.14-3.34-39.99,1.1-.45,.16-.26,.88,.2,.72h0Z"/>
    <path class="cls-1" d="M1759.85,464.08c7.3-2.61,14.76-4.73,22.34-6.34,.47-.1,.27-.82-.2-.72-7.58,1.61-15.04,3.73-22.34,6.34-.45,.16-.26,.89,.2,.72h0Z"/>
    <path class="cls-1" d="M1799.47,454.95c9.3-1.04,18.67-1.33,28.02-.88,.48,.02,.48-.73,0-.75-9.35-.45-18.71-.16-28.02,.88-.47,.05-.48,.8,0,.75h0Z"/>
    <path class="cls-1" d="M2097.57,479.19c17.25-2.42,34.83-2.03,51.95,1.16,.47,.09,.67-.63,.2-.72-17.26-3.22-34.96-3.61-52.35-1.16-.48,.07-.27,.79,.2,.72h0Z"/>
    <path class="cls-1" d="M2145.94,483.4c5.5-.13,10.92,1.49,15.45,4.61,.4,.27,.77-.38,.38-.65-4.64-3.19-10.2-4.84-15.83-4.71-.48,.01-.48,.76,0,.75h0Z"/>
    <path class="cls-1" d="M2109.68,435.88c-10.79,8.22-18.84,19.71-22.85,32.66-.14,.46,.58,.66,.72,.2,3.96-12.76,11.89-24.12,22.51-32.22,.38-.29,0-.94-.38-.65h0Z"/>
    <path class="cls-1" d="M2101.24,451.43c-3.1,4.77-6.21,9.54-9.31,14.31-.26,.41,.39,.78,.65,.38,3.1-4.77,6.21-9.54,9.31-14.31,.26-.41-.39-.78-.65-.38h0Z"/>
    <path class="cls-1" d="M2091.65,467.73c-2.32,2.69-3.96,5.91-4.74,9.38-.11,.47,.62,.67,.72,.2,.75-3.34,2.31-6.45,4.54-9.04,.31-.36-.21-.9-.53-.53h0Z"/>
    <path class="cls-1" d="M2050.02,419.23c-4.54,9.62-4.83,20.42-4.32,30.85,.02,.48,.77,.48,.75,0-.5-10.29-.26-20.98,4.22-30.47,.2-.43-.44-.82-.65-.38h0Z"/>
    <path class="cls-1" d="M2050.45,438.6c-1.07,3.87-1.51,7.89-1.29,11.91,.03,.48,.78,.48,.75,0-.21-3.95,.21-7.89,1.27-11.71,.13-.47-.59-.66-.72-.2h0Z"/>
    <path class="cls-1" d="M2078.34,457.92c-.98-3.6-.65-7.48,.93-10.86,.2-.43-.44-.82-.65-.38-1.67,3.57-2.04,7.63-1.01,11.44,.13,.47,.85,.27,.72-.2h0Z"/>
    <path class="cls-1" d="M2081.15,442.12c1.78-2.75,3.55-5.51,5.33-8.26,.26-.41-.39-.78-.65-.38-1.78,2.75-3.55,5.51-5.33,8.26-.26,.41,.39,.78,.65,.38h0Z"/>
    <path class="cls-1" d="M1974.09,462.97c7.03,1.93,14.72,.91,21.84-.02s14.78-2.52,21.98-4.61c.46-.13,.27-.86-.2-.72-7.13,2.07-14.41,3.61-21.78,4.58-7.04,.93-14.68,1.96-21.64,.05-.47-.13-.66,.6-.2,.72h0Z"/>
    <path class="cls-1" d="M1985.35,458.03c18.13,2.78,35.62-8.2,53.69-4.09,.47,.11,.67-.62,.2-.72-18.1-4.11-35.56,6.87-53.69,4.09-.47-.07-.68,.65-.2,.72h0Z"/>
    <path class="cls-4" d="M1923.96,449.62c6.91,10.17,14.79,19.65,23.54,28.29,.34,.34,.87-.19,.53-.53-8.7-8.59-16.55-18.02-23.43-28.13-.27-.4-.92-.02-.65,.38h0Z"/>
    <path class="cls-4" d="M1951.52,481.35c3.52,3.53,7.04,7.05,10.57,10.58,.34,.34,.87-.19,.53-.53-3.52-3.53-7.04-7.05-10.57-10.58-.34-.34-.87,.19-.53,.53h0Z"/>
    <path class="cls-4" d="M1918.28,471.8c16.71,6.57,32.4,15.61,46.46,26.78,.37,.3,.91-.23,.53-.53-14.17-11.25-29.95-20.35-46.79-26.97-.45-.18-.64,.55-.2,.72h0Z"/>
    <path class="cls-4" d="M1971.57,504.2c14,11.18,26.49,24.19,37.08,38.64,.28,.39,.93,.01,.65-.38-10.63-14.51-23.15-27.57-37.2-38.79-.37-.3-.91,.23-.53,.53h0Z"/>
    <path class="cls-4" d="M2022.46,477.58c3.23,3.27,5.99,6.96,8.21,10.99,.23,.42,.88,.05,.65-.38-2.24-4.08-5.05-7.84-8.32-11.14-.34-.34-.87,.19-.53,.53h0Z"/>
    <path class="cls-4" d="M2032.4,496c.62,1.51,.84,3.17,.59,4.78-.03,.2,.05,.4,.26,.46,.18,.05,.43-.06,.46-.26,.27-1.75,.08-3.54-.59-5.18-.08-.19-.25-.32-.46-.26-.18,.05-.34,.27-.26,.46h0Z"/>
    <path class="cls-4" d="M2032.9,507.73c.05,9.35-2.5,18.54-7.36,26.53-.25,.41,.4,.79,.65,.38,4.93-8.09,7.52-17.43,7.46-26.91,0-.48-.75-.48-.75,0h0Z"/>
    <path class="cls-4" d="M2049.51,476.47c-3.03,18.1-6.2,36.78-15.96,52.67-2.57,4.19-5.58,8.09-9.05,11.58-.34,.34,.19,.87,.53,.53,12.78-12.88,18.66-30.57,22.21-47.96,1.13-5.51,2.06-11.06,2.98-16.61,.08-.47-.64-.68-.72-.2h0Z"/>
    <path class="cls-4" d="M2061.42,499.13c14.39-7.72,30.97-10.92,47.21-9.14,.48,.05,.48-.7,0-.75-16.36-1.8-33.08,1.46-47.59,9.24-.43,.23-.05,.88,.38,.65h0Z"/>
    <path class="cls-20" d="M2050.98,205c.21-.18-4.54-4.45-7-11-3.24-8.63-.88-16.9,0-20,2.56-9,9.26-19.7,18-24,1.67-.82,6.14-2.75,11-7,1.8-1.58,3.15-3.03,4-4,1.98,3.24,4.76,8.7,6,16,1.06,6.24,.59,11.5,0,15,1.37-1.76,3.32-3.92,6-6,3.36-2.6,6.61-4.11,9-5-.42,2.65-1.07,6.45-2,11-1.97,9.63-2.96,14.45-5,19-2.4,5.36-5.57,12.42-13,16-4.67,2.25-9.22,2.26-12,2,.18,2.11,.22,4.46,0,7-.76,8.96-4.3,15.83-7,20-2.67-7-5.33-14-8-21-1.4,1.84-3.35,3.99-6,6-2.77,2.1-7.39,5.6-13,5-1.42-.15-5-.53-6-3-.82-2.04,.35-4.91,3-7-2.81,.99-6.97,2.09-12,2-12.99-.22-22.18-8.13-29-14-4.62-3.98-11.3-10.71-17-21,2.31,2.02,6.3,5.02,12,7,4.85,1.69,9.13,2.01,12,2,2.54-1.57,6.24-3.54,11-5,.4-.12,8.97-2.69,16-2,16.81,1.65,28.6,22.34,29,22Z"/>
    <path class="cls-20" d="M2006.95,121.2c2.79,2.84,5.11,6.11,6.87,9.69,.21,.43,.86,.05,.65-.38-1.79-3.63-4.15-6.96-6.99-9.84-.34-.34-.87,.19-.53,.53h0Z"/>
    <path class="cls-20" d="M2017.63,138.58c6.52,11.26,12.64,22.74,18.34,34.43,.21,.43,.86,.05,.65-.38-5.7-11.69-11.82-23.18-18.34-34.43-.24-.42-.89-.04-.65,.38h0Z"/>
    <path class="cls-20" d="M2005.76,130.85c2.21,15.32,7.59,30.09,15.75,43.25,.25,.41,.9,.03,.65-.38-8.13-13.11-13.48-27.81-15.68-43.07-.07-.48-.79-.27-.72,.2h0Z"/>
    <path class="cls-20" d="M2011.84,165.02c2.31,4.16,4.62,8.32,6.93,12.48,.23,.42,.88,.04,.65-.38-2.31-4.16-4.62-8.32-6.93-12.48-.23-.42-.88-.04-.65,.38h0Z"/>
    <path class="cls-20" d="M2021.06,127.28c10.31,9.44,18.59,20.94,24.29,33.7,.2,.44,.84,.06,.65-.38-5.72-12.82-14.05-24.37-24.4-33.85-.36-.33-.89,.2-.53,.53h0Z"/>
    <path class="cls-20" d="M2044.97,150.32c1.16,1.91,2.31,3.83,3.47,5.74,.25,.41,.9,.04,.65-.38-1.16-1.91-2.31-3.83-3.47-5.74-.25-.41-.9-.04-.65,.38h0Z"/>
    <path class="cls-2" d="M2074.67,145.66c-10,9.82-16.49,22.97-18.36,36.85-.52,3.88-.67,7.8-.46,11.71,.03,.48,.78,.48,.75,0-.76-13.73,3.18-27.55,10.94-38.9,2.25-3.29,4.82-6.34,7.66-9.13,.34-.34-.19-.87-.53-.53h0Z"/>
    <path class="cls-2" d="M2053.38,171.71c-.49,2.41-.66,4.87-.49,7.32,.03,.48,.78,.48,.75,0-.16-2.39-.01-4.78,.46-7.12,.1-.47-.63-.67-.72-.2h0Z"/>
    <path class="cls-2" d="M2052.82,185.02c.15,4.39,.68,8.75,1.58,13.05,.1,.47,.82,.27,.72-.2-.88-4.23-1.4-8.53-1.55-12.85-.02-.48-.77-.48-.75,0h0Z"/>
    <path class="cls-2" d="M2082.16,172.18c-2.71,11.42-9.67,21.61-19.34,28.27-.39,.27-.02,.92,.38,.65,9.83-6.77,16.92-17.11,19.68-28.72,.11-.47-.61-.67-.72-.2h0Z"/>
    <path class="cls-2" d="M2074.61,177.86c-2.8,6.09-6.67,11.63-11.43,16.35-.34,.34,.19,.87,.53,.53,4.81-4.76,8.72-10.35,11.55-16.5,.2-.44-.45-.82-.65-.38h0Z"/>
    <path class="cls-2" d="M1987.29,194.31c4.63,2.98,9.46,5.64,14.46,7.95,.44,.2,.82-.45,.38-.65-5-2.31-9.83-4.97-14.46-7.95-.41-.26-.78,.39-.38,.65h0Z"/>
    <path class="cls-2" d="M2013.54,207.03c7.39,1.61,15.05,1.44,22.36-.52,.47-.12,.27-.85-.2-.72-7.18,1.92-14.7,2.1-21.96,.52-.47-.1-.67,.62-.2,.72h0Z"/>
    <path class="cls-2" d="M1999.73,195.17c12.07,3.93,24.5,6.66,37.1,8.17,.48,.06,.47-.69,0-.75-12.54-1.5-24.9-4.24-36.9-8.15-.46-.15-.66,.57-.2,.72h0Z"/>
    <path class="cls-2" d="M2034.59,198.19c2.01,1.9,3.91,3.91,5.7,6.02,.31,.37,.84-.16,.53-.53-1.79-2.11-3.69-4.12-5.7-6.02-.35-.33-.88,.2-.53,.53h0Z"/>
    <path class="cls-17" d="M1756.61,56.47c-4.75-.15-10.51-.7-16.94-2.12-5.54-1.22-10.35-2.83-14.37-4.45-6.15-15.53-7.99-42.8-7.69-49.91-.22,7.24-1.06,16.03-3.23,25.84-2.07,9.35-4.85,17.35-7.58,23.86-3.7,1.41-8.01,2.78-12.86,3.85-6.43,1.42-12.19,1.97-16.94,2.12,4.27-.18,19.61,.82,29.98,4.08,2.67,6.43,5.38,14.27,7.4,23.42,2.17,9.8,3.01,18.6,3.23,25.84-.29-6.78,1.37-31.93,6.87-47.71,10.27-3.85,27.56-5.01,32.13-4.81Z"/>
    <path class="cls-17" d="M2150.81,235.56c-3.75-.12-8.29-.55-13.36-1.67-4.37-.97-8.16-2.23-11.34-3.51-4.85-12.25-6.3-33.77-6.07-39.38-.18,5.71-.84,12.65-2.55,20.39-1.63,7.38-3.83,13.69-5.98,18.82-2.92,1.11-6.32,2.19-10.15,3.04-5.07,1.12-9.62,1.55-13.36,1.67,3.37-.14,15.47,.64,23.66,3.22,2.11,5.07,4.24,11.26,5.84,18.48,1.71,7.73,2.37,14.67,2.55,20.39-.23-5.35,1.08-25.19,5.42-37.65,8.1-3.04,21.74-3.95,25.35-3.8Z"/>
    <path class="cls-14" d="M1426.81,347.56c-3.75-.12-8.29-.55-13.36-1.67-4.37-.97-8.16-2.23-11.34-3.51-4.85-12.25-6.3-33.77-6.07-39.38-.18,5.71-.84,12.65-2.55,20.39-1.63,7.38-3.83,13.69-5.98,18.82-2.92,1.11-6.32,2.19-10.15,3.04-5.07,1.12-9.62,1.55-13.36,1.67,3.37-.14,15.47,.64,23.66,3.22,2.11,5.07,4.24,11.26,5.84,18.48,1.71,7.73,2.37,14.67,2.55,20.39-.23-5.35,1.08-25.19,5.42-37.65,8.1-3.04,21.74-3.95,25.35-3.8Z"/>
    <path class="cls-14" d="M1939.81,97.56c-3.75-.12-8.29-.55-13.36-1.67-4.37-.97-8.16-2.23-11.34-3.51-4.85-12.25-6.3-33.77-6.07-39.38-.18,5.71-.84,12.65-2.55,20.39-1.63,7.38-3.83,13.69-5.98,18.82-2.92,1.11-6.32,2.19-10.15,3.04-5.07,1.12-9.62,1.55-13.36,1.67,3.37-.14,15.47,.64,23.66,3.22,2.11,5.07,4.24,11.26,5.84,18.48,1.71,7.73,2.37,14.67,2.55,20.39-.23-5.35,1.08-25.19,5.42-37.65,8.1-3.04,21.74-3.95,25.35-3.8Z"/>
    <path class="cls-14" d="M1327.98,530.64c-2.56-.08-5.68-.38-9.14-1.14-2.99-.66-5.59-1.53-7.76-2.4-3.32-8.38-4.31-23.11-4.15-26.94-.12,3.91-.57,8.66-1.74,13.95-1.12,5.05-2.62,9.37-4.09,12.88-2,.76-4.32,1.5-6.94,2.08-3.47,.77-6.58,1.06-9.14,1.14,2.3-.1,10.59,.44,16.19,2.2,1.44,3.47,2.9,7.71,4,12.64,1.17,5.29,1.62,10.04,1.74,13.95-.16-3.66,.74-17.24,3.71-25.76,5.54-2.08,14.88-2.7,17.35-2.6Z"/>
    <path class="cls-14" d="M1065.98,716.24c-1.97-.06-4.35-.29-7.02-.88-2.29-.51-4.29-1.17-5.95-1.84-2.55-6.43-3.31-17.73-3.19-20.68-.09,3-.44,6.64-1.34,10.7-.86,3.88-2.01,7.19-3.14,9.88-1.53,.59-3.32,1.15-5.33,1.6-2.66,.59-5.05,.82-7.02,.88,1.77-.08,8.12,.34,12.42,1.69,1.11,2.66,2.23,5.91,3.07,9.7,.9,4.06,1.24,7.7,1.34,10.7-.12-2.81,.57-13.23,2.85-19.77,4.25-1.59,11.42-2.07,13.31-1.99Z"/>
    <path class="cls-14" d="M1459.98,602.24c-1.97-.06-4.35-.29-7.02-.88-2.29-.51-4.29-1.17-5.95-1.84-2.55-6.43-3.31-17.73-3.19-20.68-.09,3-.44,6.64-1.34,10.7-.86,3.88-2.01,7.19-3.14,9.88-1.53,.59-3.32,1.15-5.33,1.6-2.66,.59-5.05,.82-7.02,.88,1.77-.08,8.12,.34,12.42,1.69,1.11,2.66,2.23,5.91,3.07,9.7,.9,4.06,1.24,7.7,1.34,10.7-.12-2.81,.57-13.23,2.85-19.77,4.25-1.59,11.42-2.07,13.31-1.99Z"/>
    <path class="cls-14" d="M863.98,440.64c-2.56-.08-5.68-.38-9.14-1.14-2.99-.66-5.59-1.53-7.76-2.4-3.32-8.38-4.31-23.11-4.15-26.94-.12,3.91-.57,8.66-1.74,13.95-1.12,5.05-2.62,9.37-4.09,12.88-2,.76-4.32,1.5-6.94,2.08-3.47,.77-6.58,1.06-9.14,1.14,2.3-.1,10.59,.44,16.19,2.2,1.44,3.47,2.9,7.71,4,12.64,1.17,5.29,1.62,10.04,1.74,13.95-.16-3.66,.74-17.24,3.71-25.76,5.54-2.08,14.88-2.7,17.35-2.6Z"/>
    <path class="cls-14" d="M421.98,555.64c-2.56-.08-5.68-.38-9.14-1.14-2.99-.66-5.59-1.53-7.76-2.4-3.32-8.38-4.31-23.11-4.15-26.94-.12,3.91-.57,8.66-1.74,13.95-1.12,5.05-2.62,9.37-4.09,12.88-2,.76-4.32,1.5-6.94,2.08-3.47,.77-6.58,1.06-9.14,1.14,2.3-.1,10.59,.44,16.19,2.2,1.44,3.47,2.9,7.71,4,12.64,1.17,5.29,1.62,10.04,1.74,13.95-.16-3.66,.74-17.24,3.71-25.76,5.54-2.08,14.88-2.7,17.35-2.6Z"/>
    <path class="cls-14" d="M2176.98,330.64c-2.56-.08-5.68-.38-9.14-1.14-2.99-.66-5.59-1.53-7.76-2.4-3.32-8.38-4.31-23.11-4.15-26.94-.12,3.91-.57,8.66-1.74,13.95-1.12,5.05-2.62,9.37-4.09,12.88-2,.76-4.32,1.5-6.94,2.08-3.47,.77-6.58,1.06-9.14,1.14,2.3-.1,10.59,.44,16.19,2.2,1.44,3.47,2.9,7.71,4,12.64,1.17,5.29,1.62,10.04,1.74,13.95-.16-3.66,.74-17.24,3.71-25.76,5.54-2.08,14.88-2.7,17.35-2.6Z"/>
    <path class="cls-14" d="M2100.98,63.64c-2.56-.08-5.68-.38-9.14-1.14-2.99-.66-5.59-1.53-7.76-2.4-3.32-8.38-4.31-23.11-4.15-26.94-.12,3.91-.57,8.66-1.74,13.95-1.12,5.05-2.62,9.37-4.09,12.88-2,.76-4.32,1.5-6.94,2.08-3.47,.77-6.58,1.06-9.14,1.14,2.3-.1,10.59,.44,16.19,2.2,1.44,3.47,2.9,7.71,4,12.64,1.17,5.29,1.62,10.04,1.74,13.95-.16-3.66,.74-17.24,3.71-25.76,5.54-2.08,14.88-2.7,17.35-2.6Z"/>
    <path class="cls-14" d="M160.98,499.64c-2.56-.08-5.68-.38-9.14-1.14-2.99-.66-5.59-1.53-7.76-2.4-3.32-8.38-4.31-23.11-4.15-26.94-.12,3.91-.57,8.66-1.74,13.95-1.12,5.05-2.62,9.37-4.09,12.88-2,.76-4.32,1.5-6.94,2.08-3.47,.77-6.58,1.06-9.14,1.14,2.3-.1,10.59,.44,16.19,2.2,1.44,3.47,2.9,7.71,4,12.64,1.17,5.29,1.62,10.04,1.74,13.95-.16-3.66,.74-17.24,3.71-25.76,5.54-2.08,14.88-2.7,17.35-2.6Z"/>
    <path class="cls-14" d="M231.98,635.64c-2.56-.08-5.68-.38-9.14-1.14-2.99-.66-5.59-1.53-7.76-2.4-3.32-8.38-4.31-23.11-4.15-26.94-.12,3.91-.57,8.66-1.74,13.95-1.12,5.05-2.62,9.37-4.09,12.88-2,.76-4.32,1.5-6.94,2.08-3.47,.77-6.58,1.06-9.14,1.14,2.3-.1,10.59,.44,16.19,2.2,1.44,3.47,2.9,7.71,4,12.64,1.17,5.29,1.62,10.04,1.74,13.95-.16-3.66,.74-17.24,3.71-25.76,5.54-2.08,14.88-2.7,17.35-2.6Z"/>
    <path class="cls-14" d="M2238.57,597.25c-5.4-.17-11.96-.79-19.27-2.41-6.3-1.39-11.77-3.22-16.35-5.06-6.99-17.67-9.09-48.69-8.75-56.78-.26,8.24-1.21,18.24-3.67,29.39-2.35,10.64-5.52,19.74-8.63,27.14-4.21,1.61-9.11,3.16-14.63,4.38-7.31,1.62-13.87,2.24-19.27,2.41,4.85-.21,22.31,.93,34.11,4.64,3.04,7.31,6.12,16.24,8.42,26.64,2.47,11.15,3.42,21.16,3.67,29.39-.33-7.72,1.56-36.33,7.82-54.28,11.68-4.38,31.35-5.7,36.55-5.47Z"/>
    <path class="cls-14" d="M1606.57,185.25c-5.4-.17-11.96-.79-19.27-2.41-6.3-1.39-11.77-3.22-16.35-5.06-6.99-17.67-9.09-48.69-8.75-56.78-.26,8.24-1.21,18.24-3.67,29.39-2.35,10.64-5.52,19.74-8.63,27.14-4.21,1.61-9.11,3.16-14.63,4.38-7.31,1.62-13.87,2.24-19.27,2.41,4.85-.21,22.31,.93,34.11,4.64,3.04,7.31,6.12,16.24,8.42,26.64,2.47,11.15,3.42,21.16,3.67,29.39-.33-7.72,1.56-36.33,7.82-54.28,11.68-4.38,31.35-5.7,36.55-5.47Z"/>
    <path class="cls-17" d="M303.78,569.86c-3.27-.1-7.23-.48-11.65-1.46-3.81-.84-7.12-1.95-9.89-3.06-4.23-10.69-5.5-29.45-5.29-34.34-.15,4.98-.73,11.03-2.22,17.78-1.42,6.44-3.34,11.94-5.22,16.42-2.55,.97-5.51,1.91-8.85,2.65-4.42,.98-8.39,1.36-11.65,1.46,2.93-.12,13.49,.56,20.63,2.81,1.84,4.42,3.7,9.82,5.09,16.11,1.49,6.74,2.07,12.8,2.22,17.78-.2-4.67,.95-21.97,4.73-32.83,7.06-2.65,18.96-3.44,22.11-3.31Z"/>
    <path class="cls-17" d="M62.81,391.56c-3.75-.12-8.29-.55-13.36-1.67-4.37-.97-8.16-2.23-11.34-3.51-4.85-12.25-6.3-33.77-6.07-39.38-.18,5.71-.84,12.65-2.55,20.39-1.63,7.38-3.83,13.69-5.98,18.82-2.92,1.11-6.32,2.19-10.15,3.04-5.07,1.12-9.62,1.55-13.36,1.67,3.37-.14,15.47,.64,23.66,3.22,2.11,5.07,4.24,11.26,5.84,18.48,1.71,7.73,2.37,14.67,2.55,20.39-.23-5.35,1.08-25.19,5.42-37.65,8.1-3.04,21.74-3.95,25.35-3.8Z"/>
    <circle class="cls-7" cx="1407.98" cy="504" r="31"/>
    <circle class="cls-7" cx="1993.98" cy="33" r="31"/>
    <g>
      <path class="cls-2" d="M762.01,628.68c-6.25-11.31-13.77-17.57-18.45-20.82-2.11-1.46-13.36-9.26-26.05-11.22-2.1-.32-7.54-1-14.24-3.75-2.79-1.15-4.99-2.32-6.42-3.14-.73,3.51-1.59,8.26-2.22,13.92-1.74,15.7-.52,27.77,.24,34.87,1.01,9.43,3.05,21.56,7.37,35.3-4.1-2.72-8.71-5.44-13.85-8-14.14-7.05-27.47-10.5-38.12-12.22-3.09,1.86-7.22,3.92-12.32,5.46-3.4,1.02-6.52,1.6-9.21,1.92,.38,2.66,1.15,6.55,2.92,10.92,3.81,9.44,10.34,16.49,22.98,25.64,17.11,12.39,27.09,19.61,43.75,23.86,21.33,5.44,39.5,2.4,49.33-.05,2.7,1.93,8.37,5.41,16.42,6.5,7.35,.99,13.24-.48,16.35-1.49,5.49,1.33,13.94,2.77,24.13,2.01,25.07-1.87,41.99-15.69,50.12-22.32,17.39-14.2,26.54-30.73,31.14-41.11,.66-3.55,1.14-8.2,.68-13.6-.27-3.16-.81-5.96-1.42-8.35-3.81-.54-8.4-.89-13.6-.68-6.25,.25-11.61,1.25-15.85,2.35,.81-3.21,1.52-7.23,1.68-11.89,.22-6.38-.69-11.75-1.67-15.67-1.53,1.3-3.78,3.41-6.03,6.39-3.3,4.36-3.31,6.2-5.89,8.6-3.09,2.87-5.6,2.57-10.6,4.46-3.36,1.27-8,3.59-13.03,8.17,.08-2.19,.04-5.26-.57-8.85-.57-3.37-2.14-12.08-8.59-19.67-4.89-5.75-7.79-5.21-11.6-11.03-2.73-4.17-3.8-8.35-4.28-11.28-2.46,1.47-6.13,3.73-10.46,6.67-8.81,5.98-13.29,9.06-16.67,13.74-1.93,2.67-4.65,7.29-5.97,14.38Z"/>
      <ellipse class="cls-16" cx="761.8" cy="695.67" rx="42.43" ry="26.3"/>
      <path class="cls-20" d="M758.62,719.82c-.26,3.25-1.06,8.13-3.69,13.27-8.19,16.02-27.09,20.77-35.38,22.85-4.76,1.2-11.82,2.47-20.64,2.21,1.81-3.72,3.67-6.68,5.16-8.85,6.31-9.16,16.51-19.11,25.8-22.85,3.63-1.46,5.37-2.45,8.85-4.42,2.21-1.25,3.67-2.2,5.16-3.69,1.88-1.87,3.02-3.8,3.69-5.16,3.69,2.21,7.37,4.42,11.06,6.63Z"/>
      <path class="cls-20" d="M658.37,719.82c2.4-1.65,6.13-3.83,11.06-5.16,6.9-1.86,12.56-1.1,15.48-.74,13.1,1.61,24.21,1.57,46.44,1.47,4.17-.02,10.84-.14,19.17-.74-.33,1.76-1.08,4.3-2.95,6.63-3.61,4.49-9,5.2-15.48,6.63-12.92,2.85-10.37,4.18-19.9,5.9-8.27,1.49-26.76,4.82-36.86-2.95-1.33-1.02-4.76-3.96-10.32-7.37-2.75-1.69-5.1-2.92-6.63-3.69Z"/>
      <path class="cls-20" d="M766.15,733.58c-.2,2.58-.2,6.89,1.47,11.79,.84,2.46,3.33,9.41,10.32,14.01,9.35,6.15,19.69,3.42,21.38,2.95,1.13,.75,2.86,1.71,5.16,2.21,1.37,.3,2.41,.52,2.95,0,1.3-1.25-1.35-5.69-1.47-5.9,3.5,1.62,7.44,3.15,11.79,4.42,15.59,4.56,29.56,3.75,39.07,2.21-.6-1.29-1.55-3.12-2.95-5.16-2.1-3.05-4.15-4.99-5.9-6.63-6.25-5.87-9.38-8.8-10.32-9.58-14.85-12.37-22.27-18.55-31.7-23.59-10.96-5.86-23.41-12.51-31.7-7.37-2.82,1.74-5.8,5.25-7.37,9.58-1.79,4.93-1.13,9.23-.74,11.06Z"/>
      <path class="cls-20" d="M745.3,653.52s-1.43,4.58-3.77,8.3c-4.89,7.77-11.2,7.38-18.11,14.34-2.31,2.33-5.3,6.09-7.55,12.07,1.25,3.38,3.35,8.25,6.79,13.58,3.45,5.34,11.94,18.5,27.92,24.15,5.1,1.8,12.78,4.52,21.13,1.51,7.76-2.79,11.88-9.01,14.34-12.83,12.51-19.44,6.35-44.65,4.53-51.32-2.05-1.44-5.37-3.55-9.81-5.28-7.85-3.06-12.28-2.25-19.62-4.53-3.53-1.1-8.63-3.18-14.34-7.55-.18,1.99-.59,4.6-1.51,7.55Z"/>
      <path class="cls-20" d="M787.4,712.15c4.14-4.83,10.1-11.65,17.53-19.64,18.68-20.07,23.53-22.67,25.95-23.84,3.87-1.88,10.99-4.06,25.25-8.42,6.24-1.91,9.96-2.92,14.73-5.61,6.74-3.81,11.28-8.56,14.03-11.92,1.06,3.32,2.18,8.15,2.1,14.03-.05,4.19-.69,7.76-1.4,10.52-4.04,8.35-10.39,18.99-20.34,29.45-19.69,20.72-42.27,28.94-54,32.26-7.95-5.61-15.9-11.22-23.84-16.83Z"/>
      <path class="cls-20" d="M628.91,660.96c2.72,5.25,5.57,9.22,7.71,11.92,3.46,4.35,14.26,16.59,30.86,22.44,9.99,3.52,13.09,2.06,25.95,4.21,9.72,1.63,23.59,5.08,39.97,13.32,6.55,3.51,13.09,7.01,19.64,10.52-14.51,3.51-40.04,7.19-64.52-3.51-9.21-4.02-17.13-9.59-29.45-18.23,0,0-10.61-7.45-21.04-18.93-2.57-2.83-5.84-6.71-7.71-12.62-1.17-3.68-1.4-6.93-1.4-9.12Z"/>
      <path class="cls-2" d="M749.47,651.48c3.47,10.44,5.48,21.32,5.95,32.32,.01,.34,.54,.34,.53,0-.47-11.04-2.48-21.97-5.97-32.46-.11-.32-.61-.18-.51,.14h0Z"/>
      <path class="cls-2" d="M756.89,688.53c.97,10.63,3.35,21.08,7.07,31.08,.12,.31,.63,.18,.51-.14-3.71-9.96-6.09-20.36-7.06-30.94-.03-.33-.56-.34-.53,0h0Z"/>
      <path class="cls-2" d="M768,659.03c3.49,19.03,4.77,38.42,3.83,57.74-.02,.34,.51,.34,.53,0,.94-19.37-.35-38.8-3.85-57.88-.06-.33-.57-.19-.51,.14h0Z"/>
      <path class="cls-2" d="M728.15,683.52c2.43,14.71,9.38,28.49,19.75,39.2,.24,.24,.61-.13,.37-.37-10.31-10.65-17.19-24.35-19.61-38.97-.06-.33-.56-.19-.51,.14h0Z"/>
      <path class="cls-2" d="M735.94,677.74c.49,1.99,.82,4.01,.97,6.05,.02,.34,.55,.34,.53,0-.15-2.09-.48-4.16-.99-6.19-.08-.33-.59-.19-.51,.14h0Z"/>
      <path class="cls-2" d="M739.56,694.1c3.37,9.72,7.52,19.16,12.39,28.22,.16,.3,.61,.03,.45-.27-4.86-9.02-8.98-18.41-12.34-28.09-.11-.32-.62-.18-.51,.14h0Z"/>
      <path class="cls-2" d="M844.11,671.99l-1.7,1.01c-.12,.07-.17,.24-.09,.36s.24,.17,.36,.09l1.7-1.01c.12-.07,.17-.24,.09-.36s-.24-.17-.36-.09h0Z"/>
      <path class="cls-2" d="M838.29,676.04c-12.29,11.91-21.34,26.7-33.69,38.55-3.52,3.37-7.29,6.46-11.39,9.1-.28,.18-.02,.64,.27,.45,14.54-9.38,24.34-23.93,35.28-36.96,3.14-3.74,6.4-7.38,9.91-10.77,.24-.24-.13-.61-.37-.37h0Z"/>
      <path class="cls-2" d="M806.02,703c-6.92,7.02-14.03,13.85-21.32,20.49-.25,.23,.12,.6,.37,.37,7.29-6.63,14.4-13.47,21.32-20.49,.24-.24-.13-.61-.37-.37h0Z"/>
      <path class="cls-2" d="M811.53,723.09c17.8-7.95,35.67-17.11,49-31.7,3.47-3.8,6.58-7.93,9.2-12.36,.17-.29-.28-.56-.45-.27-9.76,16.5-25.78,27.87-42.53,36.51-5.08,2.62-10.27,5.03-15.49,7.36-.31,.14-.04,.59,.27,.45h0Z"/>
      <path class="cls-2" d="M868.88,668.07c-2.94,3.9-6.25,7.5-9.89,10.75-.25,.23,.12,.6,.37,.37,3.67-3.29,7.01-6.93,9.97-10.86,.2-.27-.25-.53-.45-.27h0Z"/>
      <path class="cls-2" d="M676.96,713.09c16.19,11.94,36.9,15.47,56.59,13.27,5.96-.67,11.85-1.83,17.65-3.36,.33-.09,.19-.59-.14-.51-19.56,5.16-40.76,5.95-59.73-1.92-5-2.07-9.74-4.73-14.1-7.94-.27-.2-.54,.26-.27,.45h0Z"/>
      <path class="cls-2" d="M659.23,695.94c3.75,2.89,8.07,4.94,12.67,6.03,.33,.08,.47-.43,.14-.51-4.56-1.08-8.84-3.12-12.55-5.98-.27-.21-.53,.25-.27,.45h0Z"/>
      <path class="cls-2" d="M682.46,706.07c17.63,1.9,34.82,7.1,50.56,15.29,.3,.16,.57-.3,.27-.45-15.82-8.23-33.09-13.44-50.82-15.36-.34-.04-.33,.49,0,.53h0Z"/>
      <path class="cls-2" d="M711.6,720.27c5.52,1.25,11.13,2.03,16.78,2.35,.34,.02,.34-.51,0-.53-5.6-.32-11.16-1.1-16.64-2.34-.33-.07-.47,.43-.14,.51h0Z"/>
      <path class="cls-2" d="M782.71,730.41c9.79,4.05,20,9.85,23.87,20.35,.12,.31,.62,.18,.51-.14-3.94-10.69-14.26-16.58-24.23-20.72-.31-.13-.45,.38-.14,.51h0Z"/>
      <path class="cls-2" d="M780.11,733c2.46,1.93,4.8,4.02,6.99,6.25,.24,.24,.61-.13,.37-.37-2.19-2.23-4.53-4.32-6.99-6.25-.26-.21-.64,.16-.37,.37h0Z"/>
      <path class="cls-2" d="M792.1,744.44c3.27,3.61,6.12,7.58,8.49,11.83,.17,.3,.62,.03,.45-.27-2.4-4.29-5.28-8.3-8.58-11.94-.23-.25-.6,.12-.37,.37h0Z"/>
      <path class="cls-2" d="M772.4,741.65c2.6,4.21,5.77,8.04,9.41,11.38,.25,.23,.62-.14,.37-.37-3.61-3.31-6.75-7.11-9.33-11.28-.18-.29-.63-.02-.45,.27h0Z"/>
      <path class="cls-2" d="M804.38,732.09c7.95,2.28,15.4,6.05,21.93,11.12,.26,.2,.64-.16,.37-.37-6.61-5.12-14.13-8.95-22.16-11.25-.33-.09-.47,.41-.14,.51h0Z"/>
      <path class="cls-2" d="M834.25,749.19c1.71,1.92,3.41,3.84,5.12,5.76,.23,.25,.6-.12,.37-.37-1.71-1.92-3.41-3.84-5.12-5.76-.23-.25-.6,.12-.37,.37h0Z"/>
      <path class="cls-2" d="M745.85,730.17c-9.98,7.78-20.26,15.16-30.82,22.12-.28,.19-.02,.64,.27,.45,10.6-6.99,20.92-14.4,30.93-22.2,.27-.21-.11-.58-.37-.37h0Z"/>
      <path class="cls-2" d="M725.48,738.34c-4.58,4.38-9.46,8.43-14.61,12.12-.27,.2-.01,.65,.27,.45,5.19-3.72,10.11-7.8,14.72-12.21,.25-.23-.13-.61-.37-.37h0Z"/>
      <path class="cls-20" d="M698.16,598.47c-1.22,19.25,.59,38.66,5.36,57.36,1.36,5.31,2.96,10.55,4.78,15.72,.11,.32,.62,.18,.51-.14-6.4-18.15-9.94-37.27-10.43-56.51-.14-5.48-.03-10.96,.32-16.43,.02-.34-.5-.34-.53,0h0Z"/>
      <path class="cls-20" d="M697.42,655.28c2.5,13.79,8.09,26.91,16.31,38.27,.2,.27,.65,0,.45-.27-8.19-11.32-13.76-24.39-16.26-38.14-.06-.33-.57-.19-.51,.14h0Z"/>
      <path class="cls-20" d="M708.46,607.04c.95,2.93,2.24,5.74,3.85,8.36,.18,.29,.63,.02,.45-.27-1.59-2.59-2.86-5.35-3.8-8.23-.1-.32-.61-.18-.51,.14h0Z"/>
      <path class="cls-20" d="M715.87,624.13c.56,1.14,1.12,2.27,1.69,3.41,.15,.3,.6,.04,.45-.27-.56-1.14-1.12-2.27-1.69-3.41-.15-.3-.6-.04-.45,.27h0Z"/>
      <path class="cls-20" d="M722.3,639.36c2.38,6.79,4.77,13.59,7.15,20.38,.11,.32,.62,.18,.51-.14l-7.15-20.38c-.11-.32-.62-.18-.51,.14h0Z"/>
      <path class="cls-20" d="M718.43,601.71c13.67,10.24,24.6,23.91,31.59,39.49,.14,.31,.59,.04,.45-.27-7.04-15.66-18.04-29.38-31.78-39.68-.27-.2-.53,.25-.27,.45h0Z"/>
      <path class="cls-20" d="M791.2,605.15c-6.38,17.07-6.2,35.55-5.93,53.51,0,.34,.53,.34,.53,0-.26-17.91-.45-36.34,5.92-53.37,.12-.32-.39-.45-.51-.14h0Z"/>
      <path class="cls-20" d="M794.3,638.59c-.98,7.9-1.33,15.85-1.04,23.8,.01,.34,.54,.34,.53,0-.29-7.95,.06-15.91,1.04-23.8,.04-.34-.48-.33-.53,0h0Z"/>
      <path class="cls-20" d="M803.5,619.64c.35,2.49,.7,4.98,1.05,7.47,.05,.33,.55,.19,.51-.14-.35-2.49-.7-4.98-1.05-7.47-.05-.33-.55-.19-.51,.14h0Z"/>
      <path class="cls-20" d="M806.04,644.03c-.08,10.31-1.94,20.52-5.48,30.2-.12,.32,.39,.46,.51,.14,3.56-9.72,5.42-19.99,5.5-30.34,0-.34-.52-.34-.53,0h0Z"/>
      <path class="cls-20" d="M762.62,626.26c-1.55,8.67-2.08,17.48-1.58,26.27,.02,.34,.55,.34,.53,0-.49-8.74,.03-17.51,1.57-26.13,.06-.33-.45-.47-.51-.14h0Z"/>
      <path class="cls-20" d="M820.03,640.98c-.18,16.79-5.93,33.32-16.22,46.59-.21,.26,.16,.64,.37,.37,10.38-13.38,16.19-30.02,16.38-46.96,0-.34-.52-.34-.53,0h0Z"/>
      <path class="cls-20" d="M856.13,641.64c-1.76,7.47-4.75,14.59-8.85,21.08-.18,.29,.27,.55,.45,.27,4.12-6.53,7.13-13.69,8.9-21.21,.08-.33-.43-.47-.51-.14h0Z"/>
      <path class="cls-20" d="M848.94,629.97c-1.58,4.15-3.77,8.05-6.5,11.56-.21,.26,.16,.64,.37,.37,2.79-3.58,5.02-7.55,6.63-11.79,.12-.32-.39-.45-.51-.14h0Z"/>
      <path class="cls-20" d="M833.63,653.11c-4.1,4.81-7.99,9.8-11.66,14.95-.2,.28,.26,.54,.45,.27,3.65-5.11,7.51-10.06,11.58-14.84,.22-.26-.15-.63-.37-.37h0Z"/>
      <path class="cls-20" d="M640.55,666.02c3.3,2.32,6.9,4.18,10.69,5.57,.32,.12,.46-.39,.14-.51-3.75-1.37-7.3-3.22-10.56-5.51-.28-.19-.54,.26-.27,.45h0Z"/>
      <path class="cls-20" d="M661.83,677.84c14.14,6.73,29.08,11.66,44.45,14.64,.33,.06,.47-.44,.14-.51-15.32-2.97-30.23-7.88-44.33-14.59-.3-.14-.57,.31-.27,.45h0Z"/>
      <path class="cls-20" d="M651.07,662.31c3.05,1.76,6.28,3.2,9.64,4.29,.32,.11,.46-.4,.14-.51-3.31-1.08-6.5-2.5-9.51-4.24-.29-.17-.56,.28-.27,.45h0Z"/>
      <path class="cls-20" d="M672.26,670.01c6.11,1.94,12.01,4.49,17.6,7.63,2.71,1.52,5.34,3.18,7.88,4.97,1.4,.98,2.77,2.01,4.11,3.07,1.23,.97,2.47,1.93,3.27,3.31,.17,.29,.63,.03,.45-.27-1.43-2.46-4.25-4.18-6.52-5.81-2.75-1.99-5.61-3.83-8.56-5.51-5.74-3.27-11.81-5.9-18.1-7.9-.32-.1-.46,.41-.14,.51h0Z"/>
      <path class="cls-20" d="M697.05,696.91c7.36,2.28,14.72,4.55,22.08,6.83,.32,.1,.46-.41,.14-.51-7.36-2.28-14.72-4.55-22.08-6.83-.32-.1-.46,.41-.14,.51h0Z"/>
      <path class="cls-16" d="M737.55,643.91c1.87-3.19,3.1-4.67,3.71-4.44,.86,.32,.45,4.04-1.21,11.17-1.07-.18-2.93-.66-4.62-2.11-1.73-1.49-3.43-4.15-2.67-5.13,.85-1.11,4.49,.39,4.79,.52Z"/>
      <path class="cls-16" d="M771.28,622.95c3.29-1.68,5.13-2.27,5.52-1.75,.55,.73-1.79,3.65-7.03,8.77-.81-.73-2.12-2.13-2.76-4.26-.66-2.19-.66-5.34,.5-5.77,1.32-.48,3.57,2.74,3.76,3.01Z"/>
      <path class="cls-16" d="M800.03,660.12c3.29-1.68,5.13-2.27,5.52-1.75,.55,.73-1.79,3.65-7.03,8.77-.81-.73-2.12-2.13-2.76-4.26-.66-2.19-.66-5.34,.5-5.77,1.32-.48,3.57,2.74,3.76,3.01Z"/>
      <path class="cls-16" d="M781.1,643.29c3.29-1.68,5.13-2.27,5.52-1.75,.55,.73-1.79,3.65-7.03,8.77-.81-.73-2.12-2.13-2.76-4.26-.66-2.19-.66-5.34,.5-5.77,1.32-.48,3.57,2.74,3.76,3.01Z"/>
      <path class="cls-16" d="M826.36,655.09c3.58-.91,5.5-1.06,5.77-.47,.38,.83-2.56,3.16-8.81,6.98-.62-.89-1.59-2.55-1.73-4.77-.15-2.28,.55-5.35,1.78-5.51,1.39-.17,2.87,3.47,2.99,3.77Z"/>
      <path class="cls-16" d="M720.62,667.92c1.51-3.37,2.58-4.97,3.21-4.82,.89,.22,.89,3.97,0,11.24-1.08-.07-2.99-.34-4.82-1.61-1.88-1.3-3.85-3.76-3.21-4.82,.73-1.2,4.5-.09,4.82,0Z"/>
      <path class="cls-20" d="M739.67,650.77c1.85,6.77,3.69,13.54,5.54,20.31,.18,.65,1.19,.38,1.01-.28-1.85-6.77-3.69-13.54-5.54-20.31-.18-.65-1.19-.38-1.01,.28h0Z"/>
      <path class="cls-20" d="M769.05,631.28c-.06,8.51,.34,17.02,1.21,25.49,.07,.67,1.12,.67,1.05,0-.87-8.47-1.27-16.98-1.21-25.49,0-.68-1.05-.68-1.05,0h0Z"/>
      <path class="cls-20" d="M779.12,651.62c-.66,5.24-.87,10.53-.62,15.8,.03,.67,1.08,.68,1.05,0-.24-5.28-.04-10.56,.62-15.8,.08-.67-.97-.66-1.05,0h0Z"/>
      <path class="cls-20" d="M798.1,666.96c-.73,3.66-1.46,7.32-2.19,10.98-.13,.66,.88,.94,1.01,.28,.73-3.66,1.46-7.32,2.19-10.98,.13-.66-.88-.94-1.01-.28h0Z"/>
      <path class="cls-20" d="M822.97,661.35c-5.38,9.59-11.89,18.5-19.4,26.54-.46,.49,.28,1.24,.74,.74,7.57-8.1,14.14-17.09,19.57-26.75,.33-.59-.58-1.12-.91-.53h0Z"/>
    </g>
    <path class="cls-6" d="M1475.67,695.51c-.39-4.79,1.62-9.4,4.93-12.81,3.5-3.6,8.31-5.6,13.19-6.48,8.76-1.58,17.99,.08,26.04,3.72,15.74,7.11,28.17,21.67,34.18,37.73,3.64,9.74,5.11,21.35-.78,30.53-.26,.41,.39,.78,.65,.38,5.3-8.26,4.78-18.58,2.03-27.64-2.69-8.86-7.46-17.15-13.38-24.25-11.4-13.66-28.85-23.82-47.15-21.46-5.43,.7-10.9,2.66-14.89,6.53-3.68,3.57-5.99,8.58-5.57,13.75,.04,.48,.79,.48,.75,0h0Z"/>
    <path class="cls-6" d="M1478.85,721.66c-1.25-6.72,.37-13.81,4.29-19.4s10.32-9.31,17.16-10.23c3.88-.52,7.81-.14,11.52,1.11,.46,.15,.65-.57,.2-.72-6.76-2.29-14.33-1.64-20.65,1.66-6.3,3.28-10.85,9.21-12.73,16.03-1.06,3.83-1.23,7.84-.5,11.75,.09,.47,.81,.27,.72-.2h0Z"/>
    <path class="cls-6" d="M1529.85,711.04c4.42,7.7,8.36,16.27,7.45,25.38-.79,7.88-5.58,14.49-13.1,17.16-3.29,1.17-6.9,1.55-10.34,.9-4.09-.77-7.71-3.02-10.81-5.72-5.97-5.18-10.89-12.81-10.58-20.99,.18-4.74,2.18-9.66,7.42-10.34,5.06-.66,9.39,2.57,13.19,5.46,.38,.29,.76-.36,.38-.65-3.56-2.71-7.46-5.59-12.13-5.65-4.02-.05-7.23,2.14-8.63,5.91-3.02,8.18,.95,17.22,6.37,23.38,5.48,6.23,13.01,10.76,21.54,9.4,7.59-1.21,14.06-6.45,16.42-13.81,3.42-10.7-1.25-21.6-6.53-30.8-.24-.42-.89-.04-.65,.38h0Z"/>
    <path class="cls-6" d="M1570.22,724.48c1.95,8.32-1.72,17.46-8.88,22.13-.4,.26-.03,.91,.38,.65,7.45-4.86,11.25-14.32,9.22-22.98-.11-.47-.83-.27-.72,.2h0Z"/>
    <path class="cls-6" d="M1536.2,655.21c5.22-17.97,18.55-33.13,35.38-41.17,4.77-2.28,9.81-3.95,15-4.98,.47-.09,.27-.82-.2-.72-18.53,3.68-34.99,15.76-44.55,31.99-2.72,4.61-4.85,9.54-6.35,14.68-.13,.46,.59,.66,.72,.2h0Z"/>
    <path class="cls-6" d="M1579.65,619.51c5.84-3.78,12.75-5.58,19.69-5.13,.48,.03,.48-.72,0-.75-7.06-.45-14.13,1.39-20.07,5.23-.4,.26-.03,.91,.38,.65h0Z"/>
    <path class="cls-6" d="M1711.95,613.34c16.19,6.5,30.78,18.03,38.61,33.88s8.34,35.04-1.2,50.23c-4.82,7.67-11.91,13.92-20.38,17.25-.44,.17-.25,.9,.2,.72,15.44-6.07,25.94-21.25,27.8-37.53,2.11-18.52-6.16-36.85-19.53-49.41-7.31-6.87-16-12.14-25.29-15.87-.45-.18-.64,.55-.2,.72h0Z"/>
    <path class="cls-6" d="M1736.03,688.97c-1.81,11.36-9.9,21.3-20.69,25.32-.45,.17-.25,.89,.2,.72,11.02-4.11,19.36-14.22,21.21-25.85,.08-.47-.65-.68-.72-.2h0Z"/>
    <path class="cls-6" d="M1586.19,694.05c9.44-11.8,24.04-17.34,38.34-20.62,4.53-1.04,9.1-1.89,13.66-2.75,.47-.09,.27-.81-.2-.72-15.22,2.85-31.13,5.9-43.82,15.38-3.17,2.37-6.04,5.09-8.51,8.18-.3,.37,.23,.91,.53,.53h0Z"/>
    <path class="cls-6" d="M1694.3,681.41c4.3,.5,7.56,4.28,8.33,8.41,.87,4.66-1.34,9.4-4.47,12.76-3.29,3.52-7.67,5.78-12.05,7.64s-9.24,3.62-14,4.98c-9.34,2.66-19.18,4.08-28.89,3.01-4.92-.54-9.83-1.74-14.37-3.73-1.94-.85-4.33-2.13-4.53-4.51-.18-2.22,1.77-3.89,3.47-4.94,2.2-1.36,4.74-2.17,7.15-3.07,2.75-1.03,5.52-2.01,8.31-2.94,5.65-1.88,11.38-3.55,17.15-5,.47-.12,.27-.84-.2-.72-5.85,1.48-11.65,3.16-17.38,5.08-2.79,.93-5.56,1.92-8.31,2.95-2.29,.86-4.69,1.64-6.8,2.88-3.05,1.79-5.85,5.4-2.84,8.63,1.49,1.59,3.71,2.4,5.7,3.15,2.55,.97,5.19,1.71,7.87,2.24,10.51,2.09,21.42,.97,31.72-1.73,5.26-1.38,10.42-3.17,15.43-5.27,4.74-1.98,9.53-4.32,13.08-8.13,3.35-3.59,5.67-8.68,4.63-13.66-.92-4.42-4.43-8.25-9.02-8.79-.48-.06-.47,.69,0,.75h0Z"/>
    <path class="cls-6" d="M1666.06,751.98c13.65,11.31,30.35,18.43,47.71,21.68,18.74,3.51,38.04,2.43,56.61-1.58,11.12-2.4,21.98-5.85,32.57-9.99,.44-.17,.25-.9-.2-.72-18.32,7.15-37.6,12.28-57.3,13.43-18.04,1.05-36.33-1.36-53.14-8.14-9.28-3.74-18.01-8.82-25.72-15.21-.37-.31-.9,.22-.53,.53h0Z"/>
    <path class="cls-6" d="M1773.88,763.92c10.13-.94,20-3.76,29.09-8.33,.43-.22,.05-.86-.38-.65-8.97,4.51-18.72,7.3-28.72,8.23-.48,.04-.48,.79,0,.75h0Z"/>
    <path class="cls-6" d="M1804.66,687.19c6.35-6.65,13.54-13.16,22.52-15.9,8.41-2.56,17.66-1.46,25.54,2.28,16.81,7.96,25.1,26.92,24.15,44.86-.6,11.27-4.5,22.14-10.23,31.79-.25,.42,.4,.79,.65,.38,10.01-16.87,14.17-37.86,6-56.33-3.64-8.22-9.61-15.42-17.45-19.91s-16.81-6.26-25.51-4.61c-10.59,2.01-18.99,9.35-26.2,16.92-.33,.35,.2,.88,.53,.53h0Z"/>
    <path class="cls-6" d="M1866.5,711.69c3.06,8.24,2.66,17.63-1.35,25.49-3.54,6.93-9.64,12.4-16.89,15.21-.45,.17-.25,.9,.2,.72,12.23-4.74,20.59-16.53,20.82-29.68,.07-4.07-.63-8.13-2.05-11.94-.17-.45-.89-.25-.72,.2h0Z"/>
    <path class="cls-6" d="M1768,714.49c5.38,2.04,11.25,2.45,16.86,1.21,.47-.1,.27-.83-.2-.72-5.49,1.21-11.21,.78-16.46-1.21-.45-.17-.65,.55-.2,.72h0Z"/>
    <path class="cls-6" d="M1802.93,709.31c7.01-4.89,14.77-8.63,22.99-11,7.6-2.19,16.89-4.2,24.09,.18,.41,.25,.79-.4,.38-.65-7.15-4.34-16.24-2.58-23.83-.49-8.58,2.37-16.72,6.22-24.01,11.31-.39,.27-.02,.92,.38,.65h0Z"/>
    <path class="cls-6" d="M1853.72,704.09c3.55,4.82,4.34,11.4,1.95,16.91-.19,.44,.46,.82,.65,.38,2.5-5.74,1.78-12.61-1.95-17.66-.28-.38-.93-.01-.65,.38h0Z"/>
    <path class="cls-6" d="M1843.1,731.35c-12.65,6.72-27.96,7.77-41.51,3.22-3.85-1.29-7.51-3.04-10.94-5.21-.41-.26-.79,.39-.38,.65,12.28,7.75,27.68,9.99,41.73,6.42,3.99-1.01,7.85-2.51,11.49-4.44,.43-.23,.05-.87-.38-.65h0Z"/>
    <path class="cls-6" d="M1903.27,669.45c4.59-10.6,11.62-19.91,19.83-27.98,8.36-8.22,17.9-15.53,27.94-21.59,10.56-6.37,22.25-10.56,34.72-9.18,11.79,1.3,22.92,6.94,31.36,15.21,9.3,9.12,15.4,21.11,18.44,33.71,.11,.47,.84,.27,.72-.2-2.74-11.36-7.94-22.2-15.73-30.98s-18.31-15.25-29.9-17.7c-5.62-1.19-11.44-1.42-17.13-.53-6.21,.97-12.15,3.23-17.71,6.12s-10.93,6.49-16.06,10.22c-4.74,3.45-9.33,7.1-13.66,11.05-9.75,8.88-18.22,19.31-23.48,31.48-.19,.44,.46,.82,.65,.38h0Z"/>
    <path class="cls-6" d="M2020.6,647.59c5.1,8.33,7.22,18.28,5.9,27.97-.06,.47,.66,.68,.72,.2,1.35-9.89-.76-20.03-5.98-28.55-.25-.41-.9-.03-.65,.38h0Z"/>
    <path class="cls-6" d="M2016.53,666.96c5.7,12.91,2.33,27.62-3.33,39.93-5.34,11.61-12.81,22.52-22.17,31.24-9.6,8.95-21.43,15.41-34.45,17.55s-26.15-.12-36.68-7.75-17.99-20.44-17.41-33.83c.02-.48-.73-.48-.75,0-.53,11.98,5.2,23.48,14,31.41,9.58,8.64,22.39,12.36,35.15,11.56,13.54-.85,26.3-6.45,36.74-14.98s18.28-19.26,24.33-30.96c6.95-13.45,11.64-30,5.22-44.55-.19-.44-.84-.06-.65,.38h0Z"/>
    <path class="cls-6" d="M1927.88,678.24c11.31-13.27,23.49-27.39,40.8-32.59,4.69-1.41,9.57-2.04,14.47-1.71,.48,.03,.48-.72,0-.75-18.12-1.22-33.63,10.23-45.43,22.76-3.58,3.8-6.97,7.78-10.36,11.76-.31,.37,.22,.9,.53,.53h0Z"/>
    <path class="cls-6" d="M1984.25,665.63c9.52,3.76,11.55,16.1,10.49,25.07-1.16,9.82-6.05,19.1-13.23,25.84-3.62,3.4-7.86,6.17-12.49,8-5.39,2.13-11.66,3.23-17.25,1.2-9.18-3.33-12.85-14.38-11.44-23.35,1.74-11.11,10.33-20.64,20.97-24.01,.46-.15,.26-.87-.2-.72-9.94,3.14-18,11.41-20.81,21.46-2.47,8.81-.33,19.92,7.54,25.41,9.5,6.62,22.9,1.55,31.14-4.83,8.14-6.3,13.99-15.6,16.02-25.71s.49-24.74-10.52-29.09c-.45-.18-.64,.55-.2,.72h0Z"/>
    <path class="cls-6" d="M2054.95,635.59c13.95,2.84,26.31,11.84,33.65,24,7.64,12.66,8.9,28.17,4.13,42.1-2.7,7.9-7.27,15.1-13.4,20.78-.35,.33,.18,.86,.53,.53,11.04-10.24,17.05-25.43,16.43-40.44-.61-14.68-8-28.34-19.45-37.46-6.32-5.04-13.75-8.62-21.69-10.24-.47-.1-.67,.63-.2,.72h0Z"/>
    <path class="cls-6" d="M2086.4,699.24c-1.59,10.6-8.85,20-18.75,24.14-.44,.18-.25,.91,.2,.72,10.14-4.24,17.64-13.78,19.27-24.67,.07-.47-.65-.68-.72-.2h0Z"/>
    <path class="cls-6" d="M2106.98,713.18c8.25-3.3,17.65-3.29,25.88,.06,7.34,2.99,15.45,10.04,13.8,18.86-.09,.47,.63,.67,.72,.2,1.22-6.5-2.8-12.41-7.8-16.17-5.77-4.33-13.34-6.31-20.49-6.17-4.22,.08-8.39,.93-12.31,2.49-.44,.18-.25,.9,.2,.72h0Z"/>
    <path class="cls-6" d="M2127.94,722.77c3,.92,6.4,1.93,8.45,4.48,1.71,2.11,2.29,5.63,.15,7.66-.35,.33,.18,.86,.53,.53,2.28-2.16,1.9-5.83,.22-8.23-2.08-2.98-5.85-4.14-9.15-5.15-.46-.14-.66,.58-.2,.72h0Z"/>
    <path class="cls-6" d="M1990.79,767.61c16.97,8.86,36.8,4.69,53.66-2.13,5.15-2.08,10.2-4.41,15.24-6.75,.44-.2,.06-.85-.38-.65-16.69,7.72-34.52,15.81-53.39,13.42-5.14-.65-10.15-2.14-14.75-4.54-.43-.22-.81,.42-.38,.65h0Z"/>
    <path class="cls-6" d="M2048.65,754.42c5.86-1.97,11.47-4.63,16.7-7.92,.41-.26,.03-.91-.38-.65-5.18,3.26-10.72,5.9-16.52,7.85-.46,.15-.26,.88,.2,.72h0Z"/>
    <path class="cls-6" d="M2074.98,755.19c.31,2.92,2.38,5.14,5.02,6.26,3.4,1.44,7.15,.69,10.45-.66,6.81-2.77,13.8-7.03,18.19-13.03,.29-.39-.37-.76-.65-.38-3.94,5.38-9.86,8.95-15.77,11.8-3.18,1.53-6.9,2.92-10.46,2.06-2.93-.7-5.7-2.9-6.04-6.06-.05-.48-.8-.48-.75,0h0Z"/>
    <path class="cls-6" d="M1268.84,671.48c6.49-11.43,21.61-15.3,33.66-11.52,13.67,4.29,23.64,17.1,28.18,30.26,2.49,7.23,3.52,16.51-2.28,22.47-.34,.35,.19,.88,.53,.53,5.07-5.21,5.15-12.95,3.53-19.62-1.75-7.18-5.41-14.1-9.94-19.91-4.51-5.79-10.3-10.65-17.13-13.47-6.27-2.59-13.28-3.09-19.87-1.51-7.14,1.7-13.65,5.93-17.32,12.4-.24,.42,.41,.8,.65,.38h0Z"/>
    <path class="cls-6" d="M1319.37,691.14c6.27,8.57,4.76,21.54-3.33,28.43-.37,.31,.16,.84,.53,.53,8.32-7.08,9.9-20.52,3.44-29.33-.28-.39-.93-.01-.65,.38h0Z"/>
    <path class="cls-6" d="M1355.42,698.93c14.8,.51,29.42,8.13,35.61,22.08,1.66,3.74,2.61,7.76,2.74,11.85,.02,.48,.77,.48,.75,0-.48-15.32-11.85-27.76-26-32.4-4.23-1.39-8.65-2.12-13.1-2.27-.48-.02-.48,.73,0,.75h0Z"/>
    <path class="cls-6" d="M1380.89,722.35c3.43,1.89,6.33,4.64,8.39,7.97,.25,.41,.9,.03,.65-.38-2.12-3.44-5.11-6.3-8.66-8.24-.42-.23-.8,.41-.38,.65h0Z"/>
    <path class="cls-6" d="M1188.4,717.6c5.56-7.87,12.03-16.01,21.33-19.54,9.44-3.58,20.46-1.74,28.15,4.8,3.91,3.33,6.88,7.66,8.55,12.51,.16,.45,.88,.26,.72-.2-3.09-8.97-10.53-16.17-19.73-18.66-5.03-1.36-10.43-1.36-15.46,.03s-9.25,4.05-13,7.4c-4.33,3.88-7.88,8.55-11.22,13.28-.28,.39,.37,.77,.65,.38h0Z"/>
    <path class="cls-6" d="M1216.34,710.47c10.7-1.59,21.78,5.52,24.84,15.89,.14,.46,.86,.27,.72-.2-3.18-10.79-14.65-18.06-25.76-16.41-.48,.07-.27,.79,.2,.72h0Z"/>
    <path class="cls-6" d="M1200.43,721.39c2.12-1.94,4.24-3.89,6.36-5.83,.36-.33-.17-.86-.53-.53-2.12,1.94-4.24,3.89-6.36,5.83-.36,.33,.17,.86,.53,.53h0Z"/>
    <path class="cls-6" d="M1141.41,721.77c11.1-4.23,24.44-.84,32.37,7.95,2.17,2.4,5.41,6.32,3.59,9.7-1.52,2.83-5.27,4.14-8.16,4.96-6.42,1.83-13.49,1.34-19.61-1.32-1.67-.73-3.28-1.62-4.77-2.66-1.68-1.17-3.75-2.82-3.75-5.08,0-3.5,4.55-4.76,7.27-5.31,.47-.1,.27-.82-.2-.72-2.61,.53-5.96,1.49-7.32,4.03-1.63,3.04,.97,5.84,3.3,7.51,6.01,4.32,13.72,6.09,21.03,5.15,5.49-.71,16.26-3.9,12.81-11.51-2.72-6.01-8.89-10.58-14.86-12.98-6.95-2.8-14.87-3.11-21.9-.43-.45,.17-.25,.9,.2,.72h0Z"/>
    <path class="cls-6" d="M1265.87,686.87c4.72-2.97,10.3-4.28,15.85-3.75,.48,.05,.48-.7,0-.75-5.67-.54-11.41,.82-16.23,3.85-.41,.26-.03,.91,.38,.65h0Z"/>
    <path class="cls-6" d="M1291.9,694.98c12.05,13.96,9.83,38.72-7.69,47.23-4.12,2-8.88,2.74-13.34,1.51s-8.09-4.17-10.53-7.92c-5.4-8.31-3.43-19.37,3.31-26.32,1.96-2.02,4.34-3.81,7.23-4.04,2.52-.2,5.07,.66,7.07,2.19,4.69,3.59,5.23,10.28,2.9,15.36-.2,.44,.45,.82,.65,.38,2.07-4.52,2.11-10.19-1.01-14.27-2.61-3.41-7.36-5.31-11.56-4.06-4.72,1.41-8.39,6.28-10.36,10.57-2.12,4.64-2.8,9.99-1.42,14.94,2.56,9.2,11.51,15.74,21.11,14.31,9.97-1.49,17.79-9.85,20.63-19.21,3.22-10.64,.83-22.76-6.45-31.2-.32-.37-.84,.17-.53,.53h0Z"/>
    <path class="cls-6" d="M1334.46,733.57c6.04-2.85,12.5-4.72,19.13-5.53,.47-.06,.48-.81,0-.75-6.77,.83-13.34,2.72-19.51,5.63-.44,.21-.06,.85,.38,.65h0Z"/>
    <g>
      <path class="cls-19" d="M1615.49,350.49c-2.48,.5-2.56,.51-5.05,1.01-2.15,5.17-4.31,10.33-6.46,15.5-2.74-3.28-5.73-6.62-9-10l-.04-.04c-2.23-2.3-5.96-2.18-8.04,.26-.97,1.14-1.95,2.39-2.92,3.78-3.11,4.49-4.92,8.76-6,12l-7,31-5,5c-3.01-1.99-11.22-7.48-16-9-3.74-1.19-7.16-1.75-10-2-.77-.04-3.67-.08-6,2,0,0-2,3-2,10,.51,9,1.45,18.71,3,29,2.29,15.24,5.51,28.97,9,41-11.31,1.26-25.12,4.03-40,10-5.47,2.2-10.47,4.58-15,7-2.99,1.2-4.97,3.98-5,7-.03,3.56,2.66,5.74,3,6,3.81,4.59,9.05,9.96,16,15,12.95,9.4,25.79,13.27,34,15,15.33-2,11.67-1,27-3,13,18,50,20,50,19,3.01,12.11,3.8,15.3,6,23,1.67,5.86,10.41,35.8,25,53,2.37,2.79,5.76,6.28,10,6,4.9-.32,8.12-5.48,9-7,4.83-8.5,10.06-19.55,14-33,6.12-20.91,6.68-39.28,6-52v-20c10.36-3.53,22.84-8.84,36-17,22.47-13.93,37.42-30.24,46.46-41.85-7.05-1.89-16-3.65-26.46-4.15-13.42-.65-25.01,.96-34,3,3.44-6.96,6.85-15.67,9-26,6.01-28.83-1.34-53.03-6-65-.89-2.67-3.22-4.62-6-5-2.7-.37-5.39,.78-7,3-5.62,4.59-11.89,10.5-18,18-11.99,14.7-18.44,29.42-22,40-1.57-10.63-4.99-25.6-13-42-8.66-17.74-19.39-30.41-27.49-38.51Z"/>
      <circle class="cls-16" cx="1631.48" cy="489.5" r="29.5"/>
      <path class="cls-3" d="M1575.98,449c-2.32,.43-3.75,2.34-6,6-1.97,3.21-4.45,7.57-7,13-.89,5.19-1.61,10.88-2,17-.75,11.7-.14,22.17,1,31,4.04,5.55,8.07,9.46,11,12,5.44,4.71,12.1,10.47,22,12,4.2,.65,7.74,.34,10,0,3.93,1.89,15.86,7,31,4,17.87-3.54,25.67-13.89,28-17,3.91,.65,8,1,8,1l1-1s1.13,2.83,6,1c3.17-6.18,7.71-19.6,10-30,2.86-12.96,2.72-24.15,2-32-.04-5.34-.85-14.79-6-25-7.7-15.27-20.21-22.53-25-25-2.06,3.27-4.32,7.61-6,13-3.11,9.97-2.7,18.7-2,24,3.33,16.67,6.67,33.33,10,50-4.22-5.71-9.8-12.32-17-19-7.49-6.95-14.79-12.15-21-16-3,3.64-6.11,7.96-9,13-8.05,14.04-10.92,27.55-12,37-.94-10.35-3.1-23.46-8-38-3.9-11.57-8.6-21.27-13-29-1.14-.91-3.45-2.47-6-2Z"/>
      <path class="cls-3" d="M1560.98,504c-1.38-4.09-2.73-8.43-4-13-1.15-4.14-2.14-8.15-3-12-.62-7.78-.81-16.89,0-27,1.04-12.9,3.43-24.03,6-33,1.19-3.18,5.12-12.38,15-18,3.72-2.12,7.3-3.17,10.15-3.7,.47-.09,.73,.51,.35,.81-3.72,2.86-8.31,7.33-11.5,13.9-.84,1.73-1.49,3.41-2,5-1.33,15.67-2.67,31.33-4,47-2.33,13.33-4.67,26.67-7,40Z"/>
      <path class="cls-3" d="M1652.98,537c3.69,1.64,8.78,3.38,15,4,13.65,1.37,24.3-3.48,29-6,9.16-4.81,19.97-11.56,31-21,18.45-15.79,30.03-32.69,37-45-8.22,10.03-20.59,22.99-38,35-16.08,11.1-31.32,17.84-43,22-7.33,.33-14.67,.67-22,1-3,3.33-6,6.67-9,10Z"/>
      <path class="cls-3" d="M1535.98,509c4.37-.93,8.71,4.88,14,11,4.34,5.02,10.89,12.06,20,20,4.21,2.95,9.88,6.31,17,9,10.81,4.09,34-2,38-6,.67,3-18.44,24.39-25,26-8.38,2.06-15.7,2.27-21,2-4.17,.2-14.33,.12-25-6-12.08-6.92-17.33-17.3-19-21-1.79-5.26-3.48-12.03-4-20-.24-3.62-.2-6.97,0-10,.94-1.98,2.53-4.48,5-5Z"/>
      <path class="cls-3" d="M1603.66,366.81c-5.9,13.04-9.1,27.47-10.99,41.59-.73,5.41-1.21,10.85-1.47,16.3-.02,.48,.73,.48,.75,0,.76-16.47,3.58-33.05,8.91-48.68,1.02-2.99,2.14-5.95,3.45-8.83,.2-.44-.45-.82-.65-.38h0Z"/>
      <path class="cls-3" d="M1585.98,398.38c1.68,.12,2.39,2.65,2.71,3.98,.54,2.29,.66,4.74,.94,7.08,.58,4.87,1.1,9.75,1.52,14.64,.79,9.38,1.13,18.8,.91,28.22-.14,5.75-.48,11.49-.96,17.21-.04,.48,.71,.48,.75,0,.88-10.47,1.24-20.98,.88-31.49s-1.37-20.67-2.64-30.95c-.31-2.5-.41-9.17-4.12-9.44-.48-.03-.48,.72,0,.75h0Z"/>
      <path class="cls-3" d="M1532.67,407.72c-1.27,8.59-.84,17.28,.31,25.86s2.79,16.73,4.7,24.98,4.25,16.72,6.9,24.92c1.18,3.67,2.4,7.32,4.02,10.83,1.49,3.23,3.19,6.35,5.04,9.39,2.31,3.81,4.8,7.56,7.58,11.06,.3,.38,.83-.16,.53-.53-6.68-8.4-12.17-18.03-15.55-28.22-5.26-15.85-9.32-32.15-11.91-48.66-1.53-9.72-2.34-19.65-.89-29.44,.07-.47-.65-.68-.72-.2h0Z"/>
      <path class="cls-2" d="M1569.05,456.74c-5.82,14.69-8.51,30.57-7.82,46.35,.19,4.37,.65,8.72,1.34,13.04,.08,.48,.8,.27,.72-.2-2.48-15.42-1.68-31.33,2.33-46.43,1.13-4.27,2.53-8.46,4.15-12.56,.18-.45-.55-.64-.72-.2h0Z"/>
      <path class="cls-2" d="M1575.64,456.85c-1.18,4-2.12,8.07-2.81,12.18-.08,.47,.64,.68,.72,.2,.69-4.11,1.63-8.18,2.81-12.18,.14-.46-.59-.66-.72-.2h0Z"/>
      <path class="cls-2" d="M1573.41,479.74c-1.13,13.48,.44,27.1,4.62,39.96,.15,.46,.87,.26,.72-.2-4.16-12.81-5.72-26.34-4.59-39.76,.04-.48-.71-.48-.75,0h0Z"/>
      <path class="cls-2" d="M1579.17,470.22c-.93,4.87-1.04,9.83-.31,14.74,.07,.48,.79,.27,.72-.2-.7-4.76-.59-9.61,.31-14.34,.09-.47-.63-.67-.72-.2h0Z"/>
      <path class="cls-2" d="M1581.53,501.79c.8,9.01,2.62,17.89,5.44,26.48,.15,.46,.87,.26,.72-.2-2.8-8.53-4.62-17.34-5.41-26.28-.04-.48-.79-.48-.75,0h0Z"/>
      <path class="cls-2" d="M1621.96,480.78c-4.77,16.93-1.39,34.63,1.96,51.49,.09,.47,.82,.27,.72-.2-3.33-16.72-6.7-34.29-1.96-51.09,.13-.47-.59-.66-.72-.2h0Z"/>
      <path class="cls-2" d="M1624.62,504.17c.42,3.8,.85,7.6,1.27,11.4,.05,.47,.8,.48,.75,0-.42-3.8-.85-7.6-1.27-11.4-.05-.47-.8-.48-.75,0h0Z"/>
      <path class="cls-2" d="M1628.24,526.69c.66,3.93,1.31,7.87,1.97,11.8,.08,.47,.8,.27,.72-.2-.66-3.93-1.31-7.87-1.97-11.8-.08-.47-.8-.27-.72,.2h0Z"/>
      <path class="cls-2" d="M1629.69,482.06c8.48,14.61,11.81,31.97,9.3,48.69-.07,.47,.65,.68,.72,.2,2.54-16.92-.79-34.46-9.38-49.26-.24-.42-.89-.04-.65,.38h0Z"/>
      <path class="cls-2" d="M1645,501.46c2.39,8.27,2.57,17.02,.52,25.38-.12,.47,.61,.67,.72,.2,2.09-8.49,1.91-17.39-.52-25.78-.13-.46-.86-.27-.72,.2h0Z"/>
      <path class="cls-2" d="M1603.67,514.31c-1.39,7.37-1.19,14.94,.61,22.22,.12,.47,.84,.27,.72-.2-1.76-7.15-1.97-14.59-.61-21.82,.09-.47-.63-.67-.72-.2h0Z"/>
      <path class="cls-2" d="M1538.99,511.23c-.39,17.29,4.95,34.51,15.07,48.55,.28,.39,.93,.01,.65-.38-10.04-13.93-15.35-30.99-14.97-48.17,.01-.48-.74-.48-.75,0h0Z"/>
      <path class="cls-2" d="M1545.14,521.21c1.57,6.37,3.48,12.66,5.72,18.83,.16,.45,.89,.26,.72-.2-2.24-6.17-4.15-12.45-5.72-18.83-.12-.47-.84-.27-.72,.2h0Z"/>
      <path class="cls-2" d="M1555.11,549.76c2.68,7.07,6.26,13.77,10.66,19.93,.28,.39,.93,.02,.65-.38-4.36-6.1-7.92-12.73-10.58-19.75-.17-.45-.89-.25-.72,.2h0Z"/>
      <path class="cls-2" d="M1562.57,550.17c4.74,6.02,9.47,12.04,14.21,18.06,.3,.38,.83-.15,.53-.53-4.74-6.02-9.47-12.04-14.21-18.06-.3-.38-.83,.15-.53,.53h0Z"/>
      <path class="cls-2" d="M1659.23,435.35c6.31,7.31,9.35,16.64,12.25,25.69,.15,.46,.87,.26,.72-.2-2.94-9.18-6.04-18.6-12.44-26.02-.32-.37-.84,.17-.53,.53h0Z"/>
      <path class="cls-2" d="M1676.55,476.66c2.49,10.02,3.53,20.32,3.12,30.63-.02,.48,.73,.48,.75,0,.42-10.37-.64-20.76-3.14-30.83-.12-.47-.84-.27-.72,.2h0Z"/>
      <path class="cls-2" d="M1660.7,453.46c3.45,9.36,6.1,18.99,7.9,28.8,.09,.47,.81,.27,.72-.2-1.81-9.81-4.45-19.44-7.9-28.8-.17-.45-.89-.25-.72,.2h0Z"/>
      <path class="cls-2" d="M1670.48,488.9c1.58,7.48,2.34,15.09,2.26,22.73,0,.48,.74,.48,.75,0,.08-7.71-.69-15.39-2.28-22.93-.1-.47-.82-.27-.72,.2h0Z"/>
      <path class="cls-2" d="M1657.23,476.78c4.99,15.63,6.31,32.31,3.81,48.53-.07,.47,.65,.68,.72,.2,2.52-16.35,1.22-33.16-3.81-48.93-.15-.46-.87-.26-.72,.2h0Z"/>
      <path class="cls-2" d="M1664.36,422.96c2.5,1.88,4.55,4.31,5.99,7.09,.22,.43,.87,.05,.65-.38-1.51-2.89-3.65-5.4-6.26-7.35-.39-.29-.76,.36-.38,.65h0Z"/>
      <path class="cls-2" d="M1674.79,437.86c1.69,3.35,2.99,6.89,3.87,10.54,.11,.47,.84,.27,.72-.2-.9-3.71-2.23-7.31-3.95-10.72-.22-.43-.86-.05-.65,.38h0Z"/>
      <path class="cls-2" d="M1567.34,416.32c-1.87,4.71-3.32,9.59-4.32,14.56-.09,.47,.63,.67,.72,.2,1-4.97,2.44-9.85,4.32-14.56,.18-.45-.55-.64-.72-.2h0Z"/>
      <path class="cls-2" d="M1561.02,441.49c-1.57,6.6-2.09,13.4-1.53,20.17,.04,.48,.79,.48,.75,0-.56-6.7-.05-13.43,1.51-19.97,.11-.47-.61-.67-.72-.2h0Z"/>
      <path class="cls-20" d="M1599.8,429.57c3.57,11.4,8.09,22.48,13.52,33.12,.22,.43,.87,.05,.65-.38-5.4-10.58-9.89-21.6-13.44-32.94-.14-.46-.87-.26-.72,.2h0Z"/>
      <path class="cls-20" d="M1620.54,433.5c1.76,8.45,3.53,16.91,5.29,25.36l.63-.36-.24-.23c-.35-.33-.88,.2-.53,.53l.24,.23c.28,.27,.7,0,.63-.36-1.76-8.45-3.53-16.91-5.29-25.36-.1-.47-.82-.27-.72,.2h0Z"/>
      <path class="cls-20" d="M1631.12,400.44c6.56,13.49,7.19,28.82,5.83,43.52-.4,4.33-.97,8.65-1.63,12.95-.07,.47,.65,.68,.72,.2,2.28-14.9,3.7-30.45,0-45.24-1.02-4.07-2.45-8.03-4.28-11.8-.21-.43-.86-.05-.65,.38h0Z"/>
      <path class="cls-20" d="M1645.66,449.47c-.27,3.67-.82,7.31-1.62,10.91-.11,.47,.62,.67,.72,.2,.82-3.66,1.37-7.37,1.65-11.11,.04-.48-.71-.48-.75,0h0Z"/>
      <path class="cls-20" d="M1598.91,466.66c2.13,1.94,4.25,3.87,6.38,5.81,.36,.32,.89-.2,.53-.53-2.13-1.94-4.25-3.87-6.38-5.81-.36-.32-.89,.2-.53,.53h0Z"/>
      <path class="cls-16" d="M1596.98,424c-3.04-1.16-4.71-1.49-5-1-.41,.69,1.92,3.02,7,7,.63-.72,1.65-2.07,2-4,.36-1.98,.06-4.74-1-5-1.2-.29-2.86,2.75-3,3Z"/>
      <path class="cls-16" d="M1621.7,428.46c-1.98-2.58-3.22-3.74-3.73-3.48-.71,.37,.04,3.58,2.27,9.64,.92-.28,2.49-.9,3.81-2.35,1.35-1.49,2.55-4,1.78-4.78-.87-.88-3.88,.83-4.13,.97Z"/>
      <path class="cls-16" d="M1629.85,395.97c-3.13-.88-4.82-1.06-5.07-.55-.35,.72,2.18,2.84,7.59,6.35,.57-.77,1.46-2.21,1.64-4.16,.19-2.01-.36-4.73-1.44-4.89-1.22-.18-2.61,2.99-2.72,3.25Z"/>
      <path class="cls-16" d="M1596.85,461.97c-3.13-.88-4.82-1.06-5.07-.55-.35,.72,2.18,2.84,7.59,6.35,.57-.77,1.46-2.21,1.64-4.16,.19-2.01-.36-4.73-1.44-4.89-1.22-.18-2.61,2.99-2.72,3.25Z"/>
      <path class="cls-16" d="M1644.37,444.18c-2.61-1.95-4.12-2.72-4.53-2.33-.59,.55,1.02,3.43,4.81,8.65,.81-.51,2.15-1.54,3.02-3.3,.89-1.81,1.36-4.54,.41-5.08-1.07-.61-3.51,1.85-3.71,2.06Z"/>
    </g>
    <path class="cls-3" d="M1691.77,472.43c1.06-1.02,2.58-1.55,3.9-2.13,1.54-.67,3.1-1.28,4.68-1.84,2.96-1.05,5.99-1.91,9.06-2.6,.47-.1,.27-.83-.2-.72-3.29,.73-6.52,1.67-9.68,2.82-1.48,.54-2.94,1.13-4.39,1.76-1.36,.59-2.82,1.14-3.9,2.18-.35,.34,.18,.87,.53,.53h0Z"/>
    <path class="cls-20" d="M1630.07,547.82c.35,3.4,1,6.77,1.94,10.05,.07,.24,.45,.14,.38-.11-.94-3.25-1.59-6.58-1.93-9.95-.03-.25-.42-.25-.4,0h0Z"/>
    <path class="cls-20" d="M1633.81,565.85c3.2,16.04,7.23,31.9,12.11,47.51,1.39,4.44,2.84,8.85,4.36,13.25,.08,.24,.46,.14,.38-.11-5.34-15.46-9.87-31.19-13.54-47.12-1.04-4.53-2.02-9.08-2.93-13.63-.05-.25-.43-.14-.38,.11h0Z"/>
    <path class="cls-20" d="M1643.73,543.33c.79,3.26,1.58,6.51,2.37,9.77,.06,.25,.44,.14,.38-.11-.79-3.26-1.58-6.51-2.37-9.77-.06-.25-.44-.14-.38,.11h0Z"/>
    <path class="cls-20" d="M1647.69,559.25c4.19,18.79,6.93,37.88,8.22,57.09,.02,.25,.41,.25,.4,0-1.29-19.24-4.04-38.37-8.23-57.19-.06-.25-.44-.14-.38,.11h0Z"/>
    <path class="cls-20" d="M1660.93,551.96c1.37,8.96,2.17,17.99,2.4,27.05,0,.25,.4,.25,.4,0-.23-9.09-1.04-18.16-2.41-27.15-.04-.25-.42-.14-.38,.11h0Z"/>
    <path class="cls-20" d="M1662.69,598.98l-1.03,6.62c-.04,.25,.34,.36,.38,.11l1.03-6.62c.04-.25-.34-.36-.38-.11h0Z"/>
    <path class="cls-20" d="M1694.82,492.55c17.34-9.01,36.03-15.25,55.31-18.46,.25-.04,.14-.42-.11-.38-15,2.5-29.68,6.82-43.63,12.88-3.99,1.73-7.91,3.61-11.77,5.62-.23,.12-.03,.46,.2,.34h0Z"/>
    <path class="cls-20" d="M1698.71,499.63c4.87-2.17,9.74-4.35,14.61-6.52,.23-.1,.03-.44-.2-.34-4.87,2.17-9.74,4.35-14.61,6.52-.23,.1-.03,.44,.2,.34h0Z"/>
    <path class="cls-20" d="M1729.44,486.78c5.61-1.99,11.22-3.99,16.82-5.98,.24-.08,.14-.47-.11-.38-5.61,1.99-11.22,3.99-16.82,5.98-.24,.08-.14,.47,.11,.38h0Z"/>
    <path class="cls-20" d="M1692.18,513.92c5.94-2.61,11.84-5.31,17.7-8.1,.23-.11,.03-.45-.2-.34-5.86,2.78-11.76,5.48-17.7,8.1-.23,.1-.03,.44,.2,.34h0Z"/>
  </g>
</svg>