<?xml version="1.0" encoding="UTF-8"?>
<svg id="_Слой_2" data-name="Слой 2" xmlns="http://www.w3.org/2000/svg" xmlns:xlink="http://www.w3.org/1999/xlink" viewBox="0 0 1300 600">
  <defs>
    <style>
      .cls-1 {
        fill: #393960;
        opacity: .22;
      }

      .cls-2 {
        opacity: .5;
      }

      .cls-3 {
        fill: #161819;
      }

      .cls-4, .cls-5, .cls-6, .cls-7 {
        fill: #3f3d56;
      }

      .cls-8 {
        opacity: .47;
      }

      .cls-8, .cls-9, .cls-10, .cls-11 {
        fill: #ffeb62;
      }

      .cls-5 {
        opacity: .17;
      }

      .cls-12 {
        fill: #2f3133;
      }

      .cls-13 {
        opacity: .36;
      }

      .cls-13, .cls-14 {
        fill: #353549;
      }

      .cls-15 {
        opacity: .45;
      }

      .cls-15, .cls-16, .cls-17 {
        fill: gray;
      }

      .cls-6, .cls-18 {
        opacity: .26;
      }

      .cls-19 {
        opacity: .44;
      }

      .cls-19, .cls-20 {
        fill: #111010;
      }

      .cls-21 {
        fill: #1b1d1f;
      }

      .cls-18, .cls-22 {
        fill: #767779;
      }

      .cls-9 {
        opacity: .57;
      }

      .cls-23 {
        fill: #292b2d;
      }

      .cls-24 {
        stroke-width: 4px;
      }

      .cls-24, .cls-25, .cls-26 {
        fill: none;
      }

      .cls-24, .cls-26 {
        opacity: .18;
        stroke: gray;
        stroke-miterlimit: 10;
      }

      .cls-27 {
        fill: #252628;
      }

      .cls-7 {
        opacity: .54;
      }

      .cls-17 {
        opacity: .43;
      }

      .cls-28 {
        clip-path: url(#clippath);
      }

      .cls-22 {
        opacity: .19;
      }

      .cls-29 {
        fill: #515151;
      }

      .cls-30 {
        fill: #ccc;
      }

      .cls-31 {
        fill: #b3b3b3;
      }

      .cls-10 {
        opacity: .32;
      }

      .cls-32 {
        fill: #2c2e30;
      }

      .cls-26 {
        stroke-width: 2px;
      }

      .cls-33 {
        fill: #242628;
      }

      .cls-34 {
        fill: #1e1e1e;
      }

      .cls-11 {
        opacity: .28;
      }

      .cls-35 {
        fill: #1d1d21;
      }

      .cls-36 {
        fill: #353638;
      }
    </style>
    <clipPath id="clippath">
      <path class="cls-25" d="M981.01,283.85c.17,1.17-4.3,2.88-9.03,4.68-6.32,2.42-11.91,3.23-15.8,3.51-1.02,1.05-2.5,2.37-4.52,3.51-2.66,1.51-5.13,2.1-6.77,2.34-.3,1.15-1.33,4.52-4.52,7.03-4.38,3.44-9.35,2.51-10.16,2.34-1.47,2.89-3.32,6.07-5.64,9.37-3.45,4.9-7.02,8.76-10.16,11.71-1.05,3.41-2.14,8.23-2.26,14.05-.09,4.66,.47,8.65,1.13,11.71,1.28,1.15,3.08,3.05,4.52,5.86,2.25,4.4,2.34,8.54,2.26,10.54,.55,1.19,1.58,3,3.39,4.68,1.23,1.14,2.44,1.87,3.39,2.34,.98-1.65,2.75-2.56,4.52-2.34,2.15,.27,3.25,2.11,3.39,2.34,.3,1.41,.66,3.96,0,7.03-.76,3.52-2.46,5.9-3.39,7.03,.16-.04,2.79-.66,4.52,1.17,0,0,.02,.02,.02,.03,.92,1,.39,2.32-.36,3.46-.79,1.2-1.05,3.42-.79,4.72,2.2,.47,1.14,2.32,.35,3.96-.12,.24-.23,.48-.35,.72-.38,.78-.75,1.56-1.13,2.34-.38,2.34-.75,4.68-1.13,7.03,.77,1.39,1.92,3.43,3.39,5.86,1.92,3.18,3.32,5.5,4.52,7.03,2.98,3.8,6.87,5.39,11.29,7.03,13.64,5.07,20.47,7.6,25.96,8.2,5.74,.62,18.5,1.84,32.74-4.68,8.65-3.96,14.6-9.29,18.06-12.88,1.51-1.95,10.74-12.76,11.39-12.24,1.77,1.42-5.54,17.36-6.16,18.48-4.77,8.62-12.34,13.97-14.27,16.01-11.6,12.33-38.79,25.4-72.25,17.57-35.52-8.31-65.27-42.38-68.86-83.15-4.06-46.04,26.44-86.69,58.7-97.21,18.74-6.11,43.65-3.85,44.03-1.17Z"/>
    </clipPath>
  </defs>
  <g id="_фон" data-name="фон">
    <rect class="cls-20" width="1300" height="600"/>
  </g>
  <g id="_Слой_1-2" data-name="Слой 1">
    <circle class="cls-24" cx="1067.15" cy="370.74" r="206.08"/>
    <circle class="cls-26" cx="1067.15" cy="370.74" r="194.49"/>
    <g>
      <circle class="cls-7" cx="1070.99" cy="363.53" r="138.21"/>
      <circle class="cls-19" cx="1143.82" cy="327.77" r="29.71"/>
      <circle class="cls-19" cx="1135.14" cy="399.92" r="13.68"/>
      <circle class="cls-20" cx="992.55" cy="355.2" r="6.56"/>
    </g>
    <path class="cls-35" d="M904.99,465.66c-19.23-22.86-47.96-20.81-52.68-20.38,4.78-9.69,3.5-21.48-2.93-28.97-7.52-8.77-20.68-10.02-30.24-2.15,3.07-5.29,7.24-13.66,9.97-24.49,1.39-5.53,2.42-11.69,2.71-18.43,1.84-42.07-26.01-69.93-30.24-74.03-.54-2.52-6.1-26.72-25.37-34.33-16.96-6.7-32.65,4.17-39.02,8.58-37.36,25.88-34.51,90.05-34.15,96.56-1.93-.55-11.64-3.06-21.46,3.22-8.91,5.69-11.97,14.83-12.68,17.17-.57-2.67-5.88-25.97-25.37-34.33-2.07-.89-10.19-4.13-20.49-2.15-21.14,4.08-31.02,26.23-32.19,28.97-4.23,8.94-8.45,17.88-12.68,26.82-4.5-2.34-15.28-7.11-29.27-5.36-16.14,2.01-26.64,11.46-30.24,15.02-2.61-25.82-20.15-41.46-32.19-39.69-12.69,1.86-26.76,24.13-20.49,51.5-7.84,1.06-23.04,4.44-37.07,17.17-5.5,4.99-23.63,21.44-23.41,46.13,.08,9.24,2.71,16.7,4.88,21.46-1.89-1.03-14.28-7.5-27.32-1.07-9.67,4.77-18.97,16.28-16.58,22.53,1.2,3.15,5.81,4.35,14.14,4.5,6.94,.13,86.73,3.61,102.29,2.53,114.47-2.5,218.85-13.11,333.32-15.61,16.08-1.45,36.97-2.63,61.46-2.15,24.2,.48,34.36,2.25,40-5.36,8.86-11.96,.13-38.41-12.68-53.64Z"/>
    <path class="cls-21" d="M582.84,321.82h0c23.2,0,42.04,18.84,42.04,42.04v148.42h-84.07v-148.42c0-23.2,18.84-42.04,42.04-42.04Z"/>
    <g>
      <path class="cls-4" d="M536.51,515.87c.29-50.91,.57-101.81,.86-152.72,.81-2.89,6.28-21.35,24.88-30.02,13.51-6.3,31.93-6.5,45.47,4.29,10.5,8.36,13.64,19.8,14.58,24.02v152.71h9.44v-155.28c-.32-5.13-1.98-21.24-14.58-33.46-16.84-16.31-43.76-16.53-62.63-6.01-23.69,13.21-27.84,39.53-28.31,42.89v152.71c3.43,.29,6.86,.57,10.29,.86Z"/>
      <path class="cls-14" d="M600.85,331.26c-4.5-1.54-11.18-3.02-18.87-1.72-23.13,3.92-32.83,29.17-33.46,30.88v151.85c-4,.57-8.01,1.14-12.01,1.72,.29-50.9,.57-101.8,.86-152.71,1.33-4.64,5.12-15.34,15.44-24.02,3.53-2.97,13.98-11.49,29.17-11.15,8.71,.19,15.36,3.22,18.87,5.15Z"/>
    </g>
    <path class="cls-23" d="M525.36,510.56c-4.86,2.86-9.72,5.72-14.58,8.58,47.47-.29,94.94,.29,142.41,0v-8.58h-127.83Z"/>
    <path class="cls-3" d="M510.77,519.14v11.19c47.47-.3,94.94-.6,142.41-.89v-11.15c-47.47,.86-94.94,0-142.41,.86Z"/>
    <path class="cls-23" d="M499.62,530.29c-4.86,2.86-9.72,5.72-14.58,8.58,47.47-.29,94.94,.29,142.41,0v-8.58h-127.83Z"/>
    <path class="cls-3" d="M485.04,538.87v11.19c47.47-.3,94.94-.6,142.41-.89v-11.15c-47.47,.86-94.94,0-142.41,.86Z"/>
    <g>
      <path class="cls-33" d="M879.46,555.84c-.82,.05-3.51,.23-7.1,.19,0,0-13.83-.1-26.91-4.2-9.65-3.03-36.49-11.45-43.73-30.74-8.02-21.35,7.94-56.08,42.52-78.86-10.94-25.51-.25-50.4,13.36-54.8,10.2-3.3,24.08,4.25,32.8,18.71,5.15-10.9,15.7-29.17,35.23-42.77,43.29-30.16,90.53-9.4,93.54-8.02,20.62,9.5,33.56,24.54,40.09,33.41,3.97-.93,15.96-3.12,27.94,4.01,14.7,8.75,22.72,27.58,20.65,45.44-2.33,20.08-17.14,36.63-36.44,40.1,5.87-4.25,13.7-2.16,17.01,4.01,3.01,5.62,1.55,13.32-3.64,17.38,6.76-6.51,16.22-6.68,21.87-1.34,6.11,5.79,4.95,15.38,4.86,16.04,4.89-1.11,13.28-2.33,23.08,0,22.33,5.3,42.11,26.65,38.87,36.09-.97,2.84-3.96,3.97-7.29,5.35-15.82,6.55-32.22-3.56-34.93-5.28-3.67,1.48-8.41,2.95-14.05,3.7-10.82,1.43-19.76-.54-25.13-2.22-4.89,.35-8.8,.6-11.09,.74-92.21,5.76-174.1,1.32-201.49,3.07Z"/>
      <path class="cls-12" d="M939.6,517.47c3.12-3.06,6.93-5.59,11.91-6.71,5.54-.55,10.7,.27,15,2.7,4.65-17.46,21.03-33.76,41.38-32.96,10,.67,19.3,4.08,27.19,9.3-1.59-2.06-3.4-3.98-5.43-5.74-10.09-8.75-29.39-16.8-46.49-8.9-15.88,7.33-19.34,23.56-19.78,25.82-1.23-.63-5.42-2.59-10.88-1.78-6.68,.99-10.23,5.39-10.88,6.23-2.32-1.65-8.6-5.66-17.8-6.23-7.41-.46-13.11,1.53-15.83,2.67-7.8-9.11-19.26-13.33-28.68-10.68-4.6,1.3-7.84,3.98-9.89,6.23-17.98-18.57-44.41-25.31-62.32-17.8-23.95,10.03-36.66,47.21-12.86,78.34h61.14c2.27-11.43,7.54-22.17,17-31.16,17.18-16.17,46.08-19.56,67.22-9.31Z"/>
      <path class="cls-12" d="M1089.09,558.69c2.46-6.55-6.18-19.59-17.89-22.11-9.82-2.11-18.03,3.98-19.78,5.34,.05-.4,.45-4.33-2.97-7.12-3.77-3.07-8.64-1.85-8.9-1.78,6.6-15.07,4.71-31.38-4.46-43.22-7.89-5.22-17.19-8.63-27.19-9.3-20.35-.8-36.73,15.5-41.38,32.96-4.3-2.42-9.46-3.25-15-2.7-4.98,1.12-8.79,3.66-11.91,6.71-21.14-10.24-50.04-6.86-67.22,9.31-5.44,5.12-9.41,11.55-9.41,11.55-3.91,6.3-9.17,14.78-7.58,19.6,8.12,24.62,142.16,2.83,159.78-2.96,1.92-.63,10.18-3.61,19.96-1.48,2.85,.62,5.12,1.52,6.65,2.22,2.53,1.67,7.38,4.39,14.05,5.17,9.36,1.11,16.52-2.25,19.22-3.7,3.17,4.18,7.25,6.21,10.35,5.17,1.75-.59,3.11-2.13,3.7-3.7Z"/>
    </g>
    <g>
      <circle class="cls-21" cx="216.77" cy="285.9" r="190.73"/>
      <circle class="cls-19" cx="105.97" cy="302.06" r="40.99"/>
      <circle class="cls-19" cx="172.17" cy="377.39" r="18.87"/>
      <circle class="cls-20" cx="299.52" cy="215.18" r="9.05"/>
    </g>
    <path class="cls-33" d="M893.19,558.62c.17-.75,.28-1.56,.28-1.56,.08-.55,.12-1.03,.15-1.44-.15-.14-.28-.29-.43-.44-7.93-7.93-19.5-9.8-30.62-9.18-10.41-20.17-37.98-23.38-56.12-12.19-1.21-10.77-14.26-15.3-24.86-14.41,7.03-10.34,9.48-23.53-1.63-31.13-11.15-8.58-26.59-7.72-38.61-1.72-5.4,3.37-11.31,7.81-14.01,13.73-12.2-17-34.95-29.07-54.62-18.87-17.16,8.58-24.78,26.1-26.35,44.61-6.25-4.4-13.34-6.68-21.7-3.43-9.92,3.54-17.48,12.35-21.27,22.56-18.58-3.82-32.35-1.6-34.74,4.67-.51,1.34-1.14,4.53,2.96,10.35,.77,.69,6.58,5.73,14.79,4.44,7.26-1.14,11.13-6.41,11.83-7.39,.25,.51,1.77,3.47,5.17,4.44,3.13,.88,6.62-.28,8.87-2.96,7.41,2.36,17.77,4.97,30.31,5.91,16.25,1.22,28.5-.95,31.79-1.48,43.22-6.97,218.26-2.01,218.82-4.5Z"/>
    <path class="cls-32" d="M603.4,545.15c1.3-2.67,8.93-18,21.27-22.56,1.43-.53,4.39-1.64,8.38-1.52,4.87,.15,9.27,2.1,13.31,4.95,1.57-18.51,9.19-36.03,26.35-44.61,19.67-10.2,42.42,1.87,54.62,18.87,2.7-5.91,8.62-10.35,14.01-13.73,12.01-6.01,27.45-6.86,38.61,1.72,11.11,7.6,8.66,20.79,1.63,31.13,10.61-.89,23.66,3.64,24.86,14.41,18.14-11.18,45.72-7.98,56.12,12.19,11.13-.62,22.69,1.25,30.62,9.18,.15,.14,.28,.29,.43,.44,.24-3.68-.73-6.14-1.29-7.3-3.59-7.44-14.47-11.45-26.59-8.58-1.24-2.55-6.93-13.48-19.73-18.02-12.08-4.28-25.88-1.25-36.03,7.72,1.16-2.62,.84-5.62-.86-7.72-2.13-2.64-6.1-3.44-9.44-1.72,4.12-3.2,15.66-13.06,19.73-30.03,.69-2.87,6.7-29.88-12.01-47.18-16.33-15.1-41.4-13.5-57.48-3.43-10.4,6.51-15.68,15.71-18.02,20.59-.55-.42-7.65-5.58-16.3-2.57-8.58,2.98-10.97,11.32-11.15,12.01-7.54-13.43-19.78-22.45-31.74-21.45-15.08,1.26-23.49,17.93-29.17,29.17-6.98,13.82-8.35,26.72-8.58,34.32-4.88-1.63-15.75-4.48-28.31-.86-24.39,7.03-32.72,31.96-33.46,34.32-.69-.68-10.29-9.9-21.45-6.86-9.06,2.47-16.02,12.17-14.14,16.22,1.1,2.37,5.22,2.75,7.39,2.96,5.51,.51,9.66-2,11.09-2.96,.75,.83,2.21,2.18,4.44,2.96,4.3,1.5,8.08-.34,8.87-.74-.34-.71-1.02-2.36-.74-4.44,.31-2.31,1.62-3.78,2.22-4.44,.93-1.02,2.93-2.75,8.87-3.7,2.01-.32,5.32-.68,13.31,0,2.59,.22,6.13,.59,10.35,1.25Z"/>
    <path class="cls-18" d="M573.93,439.72c-.58-.02-1.28-.08-2.06-.26-.67-.15-1.26-.34-1.75-.54-.75-1.89-.97-5.21-.94-6.08-.03,.88-.13,1.95-.39,3.15-.25,1.14-.59,2.11-.92,2.91-.45,.17-.97,.34-1.57,.47-.78,.17-1.48,.24-2.06,.26,.52-.02,2.39,.1,3.65,.5,.33,.78,.65,1.74,.9,2.85,.26,1.19,.37,2.26,.39,3.15-.04-.83,.17-3.89,.84-5.81,1.25-.47,3.36-.61,3.91-.59Z"/>
    <path class="cls-22" d="M1235.41,438.21c-.46-.01-1.01-.07-1.63-.2-.53-.12-.99-.27-1.38-.43-.59-1.49-.77-4.12-.74-4.8-.02,.7-.1,1.54-.31,2.48-.2,.9-.47,1.67-.73,2.29-.36,.14-.77,.27-1.24,.37-.62,.14-1.17,.19-1.63,.2,.41-.02,1.89,.08,2.88,.39,.26,.62,.52,1.37,.71,2.25,.21,.94,.29,1.79,.31,2.48-.03-.65,.13-3.07,.66-4.59,.99-.37,2.65-.48,3.09-.46Z"/>
    <path class="cls-22" d="M1031.26,385.66c-.46-.01-1.01-.07-1.63-.2-.53-.12-.99-.27-1.38-.43-.59-1.49-.77-4.12-.74-4.8-.02,.7-.1,1.54-.31,2.48-.2,.9-.47,1.67-.73,2.29-.36,.14-.77,.27-1.24,.37-.62,.14-1.17,.19-1.63,.2,.41-.02,1.89,.08,2.88,.39,.26,.62,.52,1.37,.71,2.25,.21,.94,.29,1.79,.31,2.48-.03-.65,.13-3.07,.66-4.59,.99-.37,2.65-.48,3.09-.46Z"/>
    <path class="cls-18" d="M429.26,427.61c-.58-.02-1.28-.08-2.06-.26-.67-.15-1.26-.34-1.75-.54-.75-1.89-.97-5.21-.94-6.08-.03,.88-.13,1.95-.39,3.15-.25,1.14-.59,2.11-.92,2.91-.45,.17-.97,.34-1.57,.47-.78,.17-1.48,.24-2.06,.26,.52-.02,2.39,.1,3.65,.5,.33,.78,.65,1.74,.9,2.85,.26,1.19,.37,2.26,.39,3.15-.04-.83,.17-3.89,.84-5.81,1.25-.47,3.36-.61,3.91-.59Z"/>
    <path class="cls-22" d="M700.68,216.98c-.46-.01-1.01-.07-1.63-.2-.53-.12-.99-.27-1.38-.43-.59-1.49-.77-4.12-.74-4.8-.02,.7-.1,1.54-.31,2.48-.2,.9-.47,1.67-.73,2.29-.36,.14-.77,.27-1.24,.37-.62,.14-1.17,.19-1.63,.2,.41-.02,1.89,.08,2.88,.39,.26,.62,.52,1.37,.71,2.25,.21,.94,.29,1.79,.31,2.48-.03-.65,.13-3.07,.66-4.59,.99-.37,2.65-.48,3.09-.46Z"/>
    <path class="cls-13" d="M153.09,549.53c-2.96-.09-6.56-.43-10.56-1.32-3.45-.76-6.45-1.77-8.96-2.77-3.83-9.69-4.98-26.7-4.8-31.13-.14,4.52-.66,10-2.01,16.11-1.29,5.83-3.03,10.82-4.73,14.88-2.31,.88-4.99,1.73-8.02,2.4-4.01,.89-7.6,1.23-10.56,1.32,2.66-.11,12.23,.51,18.7,2.54,1.67,4.01,3.35,8.9,4.62,14.61,1.35,6.11,1.87,11.6,2.01,16.11-.18-4.23,.86-19.92,4.29-29.76,6.4-2.4,17.19-3.12,20.04-3Z"/>
    <path class="cls-13" d="M128.74,43.6c-2.96-.09-6.56-.43-10.56-1.32-3.45-.76-6.45-1.77-8.96-2.77-3.83-9.69-4.98-26.69-4.8-31.13-.14,4.52-.66,10-2.01,16.11-1.29,5.83-3.03,10.82-4.73,14.88-2.31,.88-4.99,1.73-8.02,2.4-4.01,.89-7.6,1.23-10.56,1.32,2.66-.11,12.23,.51,18.7,2.54,1.67,4.01,3.35,8.9,4.62,14.61,1.35,6.11,1.87,11.6,2.01,16.11-.18-4.23,.86-19.92,4.29-29.76,6.4-2.4,17.19-3.12,20.04-3Z"/>
    <path class="cls-18" d="M41.4,148.49c-1.87-.06-4.15-.27-6.68-.83-2.18-.48-4.08-1.12-5.67-1.75-2.42-6.12-3.15-16.88-3.03-19.68-.09,2.86-.42,6.32-1.27,10.19-.82,3.69-1.91,6.84-2.99,9.41-1.46,.56-3.16,1.1-5.07,1.52-2.53,.56-4.81,.78-6.68,.83,1.68-.07,7.73,.32,11.82,1.61,1.05,2.54,2.12,5.63,2.92,9.24,.86,3.87,1.19,7.33,1.27,10.19-.11-2.67,.54-12.59,2.71-18.82,4.05-1.52,10.87-1.97,12.67-1.9Z"/>
    <path class="cls-5" d="M688.4,316.4c-1.51-.05-3.34-.22-5.38-.67-1.76-.39-3.28-.9-4.56-1.41-1.95-4.93-2.54-13.58-2.44-15.84-.07,2.3-.34,5.09-1.03,8.2-.66,2.97-1.54,5.51-2.41,7.57-1.17,.45-2.54,.88-4.08,1.22-2.04,.45-3.87,.63-5.38,.67,1.35-.06,6.22,.26,9.52,1.29,.85,2.04,1.71,4.53,2.35,7.43,.69,3.11,.95,5.9,1.03,8.2-.09-2.15,.44-10.13,2.18-15.14,3.26-1.22,8.75-1.59,10.2-1.53Z"/>
    <path class="cls-10" d="M1136,214.1c-1.59-.05-3.52-.23-5.67-.71-1.85-.41-3.46-.95-4.81-1.49-2.06-5.2-2.67-14.32-2.57-16.7-.08,2.42-.36,5.37-1.08,8.65-.69,3.13-1.62,5.81-2.54,7.98-1.24,.47-2.68,.93-4.3,1.29-2.15,.48-4.08,.66-5.67,.71,1.43-.06,6.56,.27,10.03,1.36,.89,2.15,1.8,4.78,2.48,7.84,.73,3.28,1.01,6.22,1.08,8.65-.1-2.27,.46-10.69,2.3-15.97,3.44-1.29,9.22-1.68,10.75-1.61Z"/>
    <path class="cls-9" d="M1192.87,84.49c-3.21-.1-7.11-.47-11.45-1.43-3.74-.83-6.99-1.91-9.71-3.01-4.16-10.5-5.4-28.93-5.2-33.74-.15,4.89-.72,10.84-2.18,17.46-1.4,6.32-3.28,11.73-5.13,16.13-2.5,.95-5.41,1.88-8.69,2.61-4.34,.96-8.24,1.33-11.45,1.43,2.88-.12,13.25,.55,20.27,2.76,1.81,4.35,3.63,9.65,5,15.83,1.47,6.63,2.03,12.57,2.18,17.46-.19-4.58,.93-21.59,4.64-32.25,6.94-2.6,18.63-3.38,21.72-3.25Z"/>
    <path class="cls-18" d="M341.47,543.78c-1.71-.05-3.78-.25-6.1-.76-1.99-.44-3.72-1.02-5.17-1.6-2.21-5.59-2.88-15.41-2.77-17.96-.08,2.61-.38,5.77-1.16,9.3-.74,3.37-1.75,6.24-2.73,8.59-1.33,.51-2.88,1-4.63,1.39-2.31,.51-4.39,.71-6.1,.76,1.54-.07,7.06,.29,10.79,1.47,.96,2.31,1.94,5.14,2.66,8.43,.78,3.53,1.08,6.69,1.16,9.3-.1-2.44,.49-11.49,2.47-17.17,3.7-1.39,9.92-1.8,11.56-1.73Z"/>
    <path class="cls-6" d="M439.43,154.44c-.94-.03-2.08-.14-3.35-.42-1.1-.24-2.05-.56-2.84-.88-1.22-3.07-1.58-8.47-1.52-9.88-.04,1.43-.21,3.17-.64,5.11-.41,1.85-.96,3.43-1.5,4.72-.73,.28-1.58,.55-2.55,.76-1.27,.28-2.41,.39-3.35,.42,.84-.04,3.88,.16,5.93,.81,.53,1.27,1.06,2.83,1.46,4.64,.43,1.94,.59,3.68,.64,5.11-.06-1.34,.27-6.32,1.36-9.44,2.03-.76,5.45-.99,6.36-.95Z"/>
    <path class="cls-22" d="M956.54,188.54c-.94-.03-2.08-.14-3.35-.42-1.1-.24-2.05-.56-2.84-.88-1.22-3.07-1.58-8.47-1.52-9.88-.04,1.43-.21,3.17-.64,5.11-.41,1.85-.96,3.43-1.5,4.72-.73,.28-1.58,.55-2.55,.76-1.27,.28-2.41,.39-3.35,.42,.84-.04,3.88,.16,5.93,.81,.53,1.27,1.06,2.83,1.46,4.64,.43,1.94,.59,3.68,.64,5.11-.06-1.34,.27-6.32,1.36-9.44,2.03-.76,5.45-.99,6.36-.95Z"/>
    <path class="cls-22" d="M186.48,552.21c-.94-.03-2.08-.14-3.35-.42-1.1-.24-2.05-.56-2.84-.88-1.22-3.07-1.58-8.47-1.52-9.88-.04,1.43-.21,3.17-.64,5.11-.41,1.85-.96,3.43-1.5,4.72-.73,.28-1.58,.55-2.55,.76-1.27,.28-2.41,.39-3.35,.42,.84-.04,3.88,.16,5.93,.81,.53,1.27,1.06,2.83,1.46,4.64,.43,1.94,.59,3.68,.64,5.11-.06-1.34,.27-6.32,1.36-9.44,2.03-.76,5.45-.99,6.36-.95Z"/>
    <circle class="cls-1" cx="446.32" cy="408.89" r="12.19"/>
    <circle class="cls-1" cx="799.48" cy="49.6" r="33.51"/>
    <circle class="cls-1" cx="849.79" cy="205.64" r="12.19"/>
    <circle class="cls-1" cx="1065.59" cy="107.35" r="12.19"/>
    <circle class="cls-1" cx="260.78" cy="507.98" r="12.19"/>
    <circle class="cls-20" cx="491.7" cy="248.46" r="9.14"/>
    <circle class="cls-22" cx="545.22" cy="201.04" r="4.4"/>
    <circle class="cls-22" cx="1270.43" cy="263.88" r="4.4"/>
    <circle class="cls-22" cx="891.19" cy="133.03" r="4.4"/>
    <path class="cls-20" d="M826.44,445.65c-.23,1.42-1.08,2.69-2.33,3.43-.42,.24-.04,.89,.38,.65,1.4-.82,2.41-2.27,2.67-3.88,.03-.2-.05-.4-.26-.46-.18-.05-.43,.06-.46,.26h0Z"/>
    <path class="cls-20" d="M816.14,394.51c.48,0,.48-.75,0-.75s-.48,.75,0,.75h0Z"/>
    <path class="cls-20" d="M823.13,450.08c.44-.25,.89-.48,1.35-.7,.18-.08,.24-.35,.13-.51-.12-.18-.32-.23-.51-.13-.46,.22-.91,.45-1.35,.7-.17,.1-.24,.34-.13,.51s.33,.24,.51,.13h0Z"/>
    <path class="cls-20" d="M891.27,458.42s.03-.07,.06-.1l-.06,.08s.06-.07,.09-.1l-.08,.06s.09-.06,.14-.08l-.09,.04s.1-.03,.15-.04h-.1c.05,0,.1,0,.16,.01h-.1s.09,0,.13,.02l-.09-.04s.07,.04,.11,.06l-.08-.06s.06,.05,.09,.09l-.06-.08s.05,.08,.07,.13l-.04-.09s.03,.1,.04,.15v-.1c0,.06,0,.11-.01,.17v-.1s0,.09-.03,.14l.04-.09s-.04,.07-.06,.11l.06-.08s-.02,.02-.03,.03c-.07,.07-.11,.16-.11,.27,0,.09,.04,.2,.11,.27s.17,.11,.27,.11,.2-.04,.27-.11c.15-.17,.23-.37,.24-.6,0-.18-.04-.39-.14-.54-.12-.18-.3-.33-.51-.38-.18-.05-.39-.04-.56,.03-.13,.05-.23,.11-.34,.2-.08,.07-.14,.15-.18,.25s-.07,.19-.04,.29c.02,.09,.09,.18,.17,.22,.09,.05,.19,.07,.29,.04,.09-.03,.18-.09,.22-.17h0Z"/>
    <g>
      <path class="cls-27" d="M622.59,380.07c0-.36-4.5-2.45-6.91-3.33-7.68-2.79-16.32-3.18-24.72-.53-9.67,3.05-17.23,9.55-21.73,17.67-3.41,6.14-5.07,13.21-4.57,20.43,.21,2.95,.77,5.93,1.73,8.87,.82,2.53,1.9,4.9,3.18,7.12,.07-.44,.16-.88,.26-1.31-.1,.43-.19,.87-.26,1.31,1.07,1.85,2.29,3.58,3.64,5.19,2.21,2.64,4.77,4.95,7.58,6.88,9.38,6.46,21.6,8.69,33.35,4.99,2.86-.9,5.53-2.11,8-3.57,.9-.53,.48-62.77,.46-63.72Z"/>
      <ellipse class="cls-19" cx="588.37" cy="392.24" rx="7.96" ry="7.34" transform="translate(-117.29 346.74) rotate(-30)"/>
      <ellipse class="cls-19" cx="582.01" cy="405.06" rx="3.87" ry="3.57" transform="translate(-118.67 513.93) rotate(-43.67)"/>
      <path class="cls-19" d="M622.54,416.14c-3.9-1.58-8.73-.71-12.2,2.6-4.59,4.38-5.04,11.37-1,15.61,3.44,3.6,9.01,4.04,13.42,1.41-.05-2.84-.53-15.95-.23-19.61Z"/>
    </g>
    <path class="cls-8" d="M1246.65,382.59c-2.29-.07-5.06-.34-8.16-1.02-2.67-.59-4.98-1.36-6.92-2.14-2.96-7.48-3.85-20.62-3.7-24.04-.11,3.49-.51,7.72-1.56,12.45-1,4.51-2.34,8.36-3.65,11.49-1.78,.68-3.86,1.34-6.2,1.86-3.1,.68-5.87,.95-8.16,1.02,2.05-.09,9.45,.39,14.44,1.96,1.29,3.1,2.59,6.88,3.56,11.28,1.04,4.72,1.45,8.96,1.56,12.45-.14-3.27,.66-15.38,3.31-22.98,4.95-1.85,13.27-2.41,15.48-2.32Z"/>
    <path class="cls-8" d="M861.17,359.3c-1.39-.04-3.07-.2-4.94-.62-1.62-.36-3.02-.83-4.19-1.3-1.79-4.53-2.33-12.49-2.24-14.56-.07,2.11-.31,4.68-.94,7.54-.6,2.73-1.42,5.06-2.21,6.96-1.08,.41-2.34,.81-3.75,1.12-1.88,.41-3.56,.57-4.94,.62,1.24-.05,5.72,.24,8.75,1.19,.78,1.88,1.57,4.17,2.16,6.83,.63,2.86,.88,5.43,.94,7.54-.08-1.98,.4-9.32,2.01-13.92,3-1.12,8.04-1.46,9.38-1.4Z"/>
    <g class="cls-2">
      <path class="cls-31" d="M672.74,481.77c-7.53,2.48-12.85,8.78-16.57,15.53-4.52,8.21-7.37,17.4-8.7,26.66-.07,.47,.65,.68,.72,.2,1.29-8.95,3.99-17.81,8.26-25.8,3.64-6.83,8.9-13.35,16.49-15.85,.46-.15,.26-.87-.2-.72h0Z"/>
    </g>
    <g class="cls-2">
      <path class="cls-31" d="M685.53,479.97l4.94-.43c.48-.04,.48-.79,0-.75l-4.94,.43c-.48,.04-.48,.79,0,.75h0Z"/>
    </g>
    <g class="cls-2">
      <path class="cls-31" d="M682.58,489.78c-5.81,2.25-10.36,6.62-13.85,11.69-1.89,2.74-3.49,5.68-4.86,8.71s-2.62,6.55-2.76,10.07c-.25,6.25,3.14,11.94,9.41,13.44s12.51-1.37,17.23-5.49c5.47-4.77,11.04-11.39,11.4-18.96,.02-.48-.73-.48-.75,0-.32,6.57-4.73,12.14-9.22,16.6-4.29,4.26-9.76,7.88-16.05,7.49-2.88-.18-5.77-1.22-7.86-3.26-2.34-2.29-3.37-5.61-3.43-8.82-.12-6.29,3.2-12.6,6.47-17.79,3.51-5.56,8.23-10.53,14.46-12.95,.45-.17,.25-.9-.2-.72h0Z"/>
    </g>
    <g class="cls-2">
      <path class="cls-31" d="M688.91,499.48c-6.87,3.12-12.58,8.54-16.05,15.24-.22,.43,.43,.81,.65,.38,3.42-6.6,9.01-11.9,15.78-14.97,.44-.2,.06-.85-.38-.65h0Z"/>
    </g>
    <g class="cls-2">
      <path class="cls-31" d="M694.83,501.59l1.35,1.81c.12,.16,.33,.25,.51,.13,.16-.1,.26-.34,.13-.51l-1.35-1.81c-.12-.16-.33-.25-.51-.13-.16,.1-.26,.34-.13,.51h0Z"/>
    </g>
    <g class="cls-2">
      <path class="cls-31" d="M684.15,509.63c-2.69,2.28-5.01,4.98-6.83,8.01-1.71,2.83-3.55,6.36-2.49,9.74,.14,.46,.87,.26,.72-.2-1.05-3.34,.99-6.9,2.72-9.66s3.91-5.24,6.41-7.36c.37-.31-.16-.84-.53-.53h0Z"/>
    </g>
    <g class="cls-2">
      <path class="cls-31" d="M677.94,521.82c-1.7,1.43-1.79,4.28-.23,5.84,.34,.34,.87-.19,.53-.53-1.29-1.29-1.16-3.61,.23-4.78,.37-.31-.16-.84-.53-.53h0Z"/>
    </g>
    <g class="cls-2">
      <path class="cls-31" d="M620.59,532c5.27-3.12,11.6-3.14,17.38-1.6,2.82,.75,5.6,1.8,8.21,3.1,2.41,1.2,4.66,2.76,5.97,5.18,.23,.42,.88,.05,.65-.38-1.31-2.41-3.5-4.04-5.9-5.27-2.76-1.42-5.74-2.55-8.73-3.35-5.98-1.59-12.52-1.55-17.96,1.68-.42,.25-.04,.89,.38,.65h0Z"/>
    </g>
    <g class="cls-2">
      <path class="cls-31" d="M642.28,536.59c3.99,1.14,7.06,4.68,7.67,8.77,.07,.48,.79,.27,.72-.2-.65-4.35-3.98-8.09-8.2-9.3-.46-.13-.66,.59-.2,.72h0Z"/>
    </g>
    <g class="cls-2">
      <path class="cls-31" d="M629.22,520.81c-11.14,3.05-20.41,11.5-24.5,22.29-.17,.45,.55,.65,.72,.2,4-10.54,13.11-18.79,23.98-21.77,.46-.13,.27-.85-.2-.72h0Z"/>
    </g>
    <g class="cls-2">
      <path class="cls-29" d="M635.61,507.48c.57-10.72,3.15-21.3,7.6-31.07,2.18-4.79,4.79-9.4,7.83-13.7,3.02-4.28,6.57-8.31,10.98-11.21,5.07-3.33,11.33-5.02,17.32-3.59,.47,.11,.67-.61,.2-.72-10.81-2.57-20.67,4.25-27.07,12.36-6.8,8.62-11.7,18.87-14.61,29.43-1.67,6.04-2.66,12.25-3,18.51-.03,.48,.72,.48,.75,0h0Z"/>
    </g>
    <g class="cls-2">
      <path class="cls-29" d="M587.48,531.9c-2.33,1.36-4.46,3.1-6.19,5.18-1.33,1.59-2.57,4.16-.98,5.99,.32,.36,.85-.17,.53-.53-1.52-1.74,.36-4.28,1.56-5.6,1.58-1.73,3.42-3.21,5.45-4.39,.42-.24,.04-.89-.38-.65h0Z"/>
    </g>
    <path class="cls-16" d="M826.64,259.48c-1.75-.05-3.87-.26-6.24-.78-2.04-.45-3.81-1.04-5.29-1.64-2.27-5.72-2.94-15.77-2.83-18.39-.08,2.67-.39,5.91-1.19,9.52-.76,3.45-1.79,6.39-2.79,8.79-1.36,.52-2.95,1.02-4.74,1.42-2.37,.52-4.49,.73-6.24,.78,1.57-.07,7.22,.3,11.05,1.5,.98,2.37,1.98,5.26,2.73,8.63,.8,3.61,1.11,6.85,1.19,9.52-.11-2.5,.51-11.77,2.53-17.58,3.78-1.42,10.15-1.84,11.84-1.77Z"/>
    <path class="cls-15" d="M1270,527.68c-1.39-.04-3.08-.2-4.97-.62-1.62-.36-3.04-.83-4.22-1.31-1.8-4.56-2.34-12.56-2.26-14.64-.07,2.12-.31,4.7-.95,7.58-.61,2.74-1.42,5.09-2.22,7-1.09,.41-2.35,.82-3.77,1.13-1.89,.42-3.58,.58-4.97,.62,1.25-.05,5.75,.24,8.8,1.2,.78,1.89,1.58,4.19,2.17,6.87,.64,2.88,.88,5.46,.95,7.58-.08-1.99,.4-9.37,2.02-14,3.01-1.13,8.08-1.47,9.43-1.41Z"/>
    <path class="cls-16" d="M1191.98,495.74c-1.75-.05-3.87-.26-6.24-.78-2.04-.45-3.81-1.04-5.29-1.64-2.27-5.72-2.94-15.77-2.83-18.39-.08,2.67-.39,5.91-1.19,9.52-.76,3.45-1.79,6.39-2.79,8.79-1.36,.52-2.95,1.02-4.74,1.42-2.37,.52-4.49,.73-6.24,.78,1.57-.07,7.22,.3,11.05,1.5,.98,2.37,1.98,5.26,2.73,8.63,.8,3.61,1.11,6.85,1.19,9.52-.11-2.5,.51-11.77,2.53-17.58,3.78-1.42,10.15-1.84,11.84-1.77Z"/>
    <path class="cls-11" d="M82.94,490.87c-1.75-.05-3.87-.26-6.24-.78-2.04-.45-3.81-1.04-5.29-1.64-2.27-5.72-2.94-15.77-2.83-18.39-.08,2.67-.39,5.91-1.19,9.52-.76,3.45-1.79,6.39-2.79,8.79-1.36,.52-2.95,1.02-4.74,1.42-2.37,.52-4.49,.73-6.24,.78,1.57-.07,7.22,.3,11.05,1.5,.98,2.37,1.98,5.26,2.73,8.63,.8,3.61,1.11,6.85,1.19,9.52-.11-2.5,.51-11.77,2.53-17.58,3.78-1.42,10.15-1.84,11.84-1.77Z"/>
    <path class="cls-16" d="M1111.02,35.32c-1.75-.05-3.87-.26-6.24-.78-2.04-.45-3.81-1.04-5.29-1.64-2.27-5.72-2.94-15.77-2.83-18.39-.08,2.67-.39,5.91-1.19,9.52-.76,3.45-1.79,6.39-2.79,8.79-1.36,.52-2.95,1.02-4.74,1.42-2.37,.52-4.49,.73-6.24,.78,1.57-.07,7.22,.3,11.05,1.5,.98,2.37,1.98,5.26,2.73,8.63,.8,3.61,1.11,6.85,1.19,9.52-.11-2.5,.51-11.77,2.53-17.58,3.78-1.42,10.15-1.84,11.84-1.77Z"/>
    <path class="cls-17" d="M1287.21,426.23c-1.18-.04-2.61-.17-4.2-.52-1.37-.3-2.57-.7-3.56-1.1-1.52-3.85-1.98-10.61-1.91-12.37-.06,1.8-.26,3.98-.8,6.41-.51,2.32-1.2,4.3-1.88,5.92-.92,.35-1.98,.69-3.19,.96-1.59,.35-3.02,.49-4.2,.52,1.06-.04,4.86,.2,7.43,1.01,.66,1.59,1.33,3.54,1.83,5.81,.54,2.43,.75,4.61,.8,6.41-.07-1.68,.34-7.92,1.7-11.83,2.55-.95,6.83-1.24,7.97-1.19Z"/>
    <path class="cls-17" d="M1202.94,140.88c-1.18-.04-2.61-.17-4.2-.52-1.37-.3-2.57-.7-3.56-1.1-1.52-3.85-1.98-10.61-1.91-12.37-.06,1.8-.26,3.98-.8,6.41-.51,2.32-1.2,4.3-1.88,5.92-.92,.35-1.98,.69-3.19,.96-1.59,.35-3.02,.49-4.2,.52,1.06-.04,4.86,.2,7.43,1.01,.66,1.59,1.33,3.54,1.83,5.81,.54,2.43,.75,4.61,.8,6.41-.07-1.68,.34-7.92,1.7-11.83,2.55-.95,6.83-1.24,7.97-1.19Z"/>
    <path class="cls-17" d="M488.81,281.34c-1.18-.04-2.61-.17-4.2-.52-1.37-.3-2.57-.7-3.56-1.1-1.52-3.85-1.98-10.61-1.91-12.37-.06,1.8-.26,3.98-.8,6.41-.51,2.32-1.2,4.3-1.88,5.92-.92,.35-1.98,.69-3.19,.96-1.59,.35-3.02,.49-4.2,.52,1.06-.04,4.86,.2,7.43,1.01,.66,1.59,1.33,3.54,1.83,5.81,.54,2.43,.75,4.61,.8,6.41-.07-1.68,.34-7.92,1.7-11.83,2.55-.95,6.83-1.24,7.97-1.19Z"/>
    <path class="cls-17" d="M1012.95,214.07c-1.18-.04-2.61-.17-4.2-.52-1.37-.3-2.57-.7-3.56-1.1-1.52-3.85-1.98-10.61-1.91-12.37-.06,1.8-.26,3.98-.8,6.41-.51,2.32-1.2,4.3-1.88,5.92-.92,.35-1.98,.69-3.19,.96-1.59,.35-3.02,.49-4.2,.52,1.06-.04,4.86,.2,7.43,1.01,.66,1.59,1.33,3.54,1.83,5.81,.54,2.43,.75,4.61,.8,6.41-.07-1.68,.34-7.92,1.7-11.83,2.55-.95,6.83-1.24,7.97-1.19Z"/>
    <path class="cls-17" d="M965.95,77.07c-1.18-.04-2.61-.17-4.2-.52-1.37-.3-2.57-.7-3.56-1.1-1.52-3.85-1.98-10.61-1.91-12.37-.06,1.8-.26,3.98-.8,6.41-.51,2.32-1.2,4.3-1.88,5.92-.92,.35-1.98,.69-3.19,.96-1.59,.35-3.02,.49-4.2,.52,1.06-.04,4.86,.2,7.43,1.01,.66,1.59,1.33,3.54,1.83,5.81,.54,2.43,.75,4.61,.8,6.41-.07-1.68,.34-7.92,1.7-11.83,2.55-.95,6.83-1.24,7.97-1.19Z"/>
    <g class="cls-2">
      <path class="cls-31" d="M701.46,480.3c10.47,3.8,19.46,11.11,25.33,20.57,.25,.41,.9,.03,.65-.38-5.97-9.64-15.12-17.05-25.78-20.92-.45-.16-.65,.56-.2,.72h0Z"/>
    </g>
    <g class="cls-2">
      <path class="cls-31" d="M722.97,513.06c3.09-9.69,9.26-18.5,17.74-24.21s18.88-7.76,28.82-5.5c5.6,1.28,10.83,3.92,15.03,7.86,.35,.33,.88-.2,.53-.53-7.64-7.15-18.51-10.03-28.78-8.64s-19.5,7.31-25.91,15.41c-3.63,4.59-6.38,9.83-8.16,15.4-.15,.46,.58,.66,.72,.2h0Z"/>
    </g>
    <g class="cls-2">
      <path class="cls-31" d="M787.22,496.66c1.02,2.29,1.52,4.78,1.51,7.29,0,.48,.75,.48,.75,0,.01-2.64-.54-5.25-1.61-7.67-.2-.44-.84-.06-.65,.38h0Z"/>
    </g>
    <g class="cls-2">
      <path class="cls-31" d="M734.15,507.67c6.46-6.23,15.68-10.02,24.72-9.07,4.53,.47,8.99,2.3,12.05,5.76,2.84,3.23,4.35,7.63,3.42,11.89-.1,.47,.62,.67,.72,.2,1.47-6.78-2.71-13.51-8.71-16.5-6.84-3.41-15.18-2.63-22.07,.2-3.97,1.63-7.57,4.01-10.66,6.99-.35,.34,.18,.87,.53,.53h0Z"/>
    </g>
    <g class="cls-2">
      <path class="cls-31" d="M773.72,518.83c-2.88,3.53-7.03,5.69-11.22,7.3-4.4,1.7-9.72,2.91-14.23,.89-3.57-1.59-6.68-5.42-6.1-9.51,.62-4.41,5.2-7.9,9.18-9.2,4.93-1.61,10.42-.39,14.12,3.26,.34,.34,.87-.19,.53-.53-3.39-3.35-8.28-4.82-12.96-3.94s-9,3.86-10.94,8.04,.04,8.37,3.29,10.98c3.87,3.1,9.08,3.1,13.68,1.9,5.53-1.44,11.49-4.17,15.18-8.68,.3-.37-.22-.9-.53-.53h0Z"/>
    </g>
    <g class="cls-2">
      <path class="cls-31" d="M750.11,514.42c2.42-1.53,5.35-2.12,8.17-1.62,.47,.08,.67-.64,.2-.72-3.02-.54-6.16,.05-8.75,1.69-.41,.26-.03,.91,.38,.65h0Z"/>
    </g>
    <g class="cls-2">
      <path class="cls-31" d="M764.93,515.42c.53,1.77-.75,3.5-2.28,4.27-1.97,.99-4.37,.58-6.45,.25-.47-.07-.68,.65-.2,.72,2.37,.37,5.07,.8,7.26-.46,1.71-.98,2.99-3,2.39-4.99-.14-.46-.86-.26-.72,.2h0Z"/>
    </g>
    <g class="cls-2">
      <path class="cls-31" d="M690.55,536.24c3.44-5.48,9.21-8.87,15.37-10.47,3.25-.85,6.65-1.26,10.01-1.17,3.7,.1,7.01,1.31,9.94,3.56s5.47,5.37,7.8,8.4c.29,.38,.94,0,.65-.38-4.19-5.44-9.07-11.27-16.32-12.17-6.75-.84-14.36,.83-20.2,4.28-3.19,1.89-5.93,4.43-7.9,7.58-.26,.41,.39,.79,.65,.38h0Z"/>
    </g>
    <g class="cls-2">
      <path class="cls-31" d="M718.25,531.78c1.49,1.03,2.97,2.06,4.46,3.08,.4,.28,.77-.37,.38-.65-1.49-1.03-2.97-2.06-4.46-3.08-.4-.28-.77,.37-.38,.65h0Z"/>
    </g>
    <g class="cls-2">
      <path class="cls-29" d="M712.44,472.55c3.85-6.3,12-6.57,18.32-4.45,5.62,1.89,12.14,5.82,12.82,12.32,.05,.48,.8,.48,.75,0-.72-6.88-7.38-11.03-13.37-13.05-6.65-2.24-15.13-1.8-19.16,4.79-.25,.41,.4,.79,.65,.38h0Z"/>
    </g>
    <g class="cls-2">
      <path class="cls-29" d="M735.97,475.91c1.73,.73,3.13,2.08,3.92,3.78,.09,.18,.35,.23,.51,.13,.19-.11,.22-.33,.13-.51-.84-1.8-2.36-3.28-4.18-4.05-.19-.08-.4-.06-.51,.13-.09,.16-.05,.43,.13,.51h0Z"/>
    </g>
    <g class="cls-2">
      <path class="cls-29" d="M732.45,458.01c6.95-11.97,18.56-21.16,31.91-24.91s27.58-1.41,39.1,6.13c6.41,4.2,11.76,9.93,15.29,16.75,.22,.43,.87,.05,.65-.38-6.38-12.31-18.59-20.99-32.04-23.94-13.78-3.02-28.19,.51-39.63,8.6-6.47,4.58-11.94,10.51-15.92,17.37-.24,.42,.41,.8,.65,.38h0Z"/>
    </g>
    <g class="cls-2">
      <path class="cls-29" d="M820.56,464.99c.62,1.97,.96,4.02,1.01,6.09,.01,.48,.76,.48,.75,0-.05-2.13-.4-4.25-1.04-6.29-.14-.46-.87-.26-.72,.2h0Z"/>
    </g>
    <g class="cls-2">
      <path class="cls-29" d="M748.48,454.05c6.22-6.9,14.66-11.5,23.82-13.01,.48-.08,.27-.8-.2-.72-9.28,1.53-17.86,6.22-24.15,13.2-.32,.36,.21,.89,.53,.53h0Z"/>
    </g>
    <g class="cls-2">
      <path class="cls-29" d="M769.13,444.69c5.29-1.47,10.85-1.7,16.24-.65,.47,.09,.67-.63,.2-.72-5.52-1.07-11.21-.85-16.63,.65-.46,.13-.27,.85,.2,.72h0Z"/>
    </g>
    <g class="cls-2">
      <path class="cls-29" d="M984.71,474.77c10.01-3.74,21.23-3.3,31.09,.71,9.57,3.89,17.42,11.24,22.53,20.15,2.84,4.96,4.82,10.37,5.9,15.99,.09,.47,.81,.27,.72-.2-1.96-10.19-6.94-19.79-14.38-27.06-7.55-7.39-17.53-11.96-28.07-12.79-6.1-.48-12.27,.33-18,2.48-.45,.17-.25,.89,.2,.72h0Z"/>
    </g>
    <g class="cls-2">
      <path class="cls-29" d="M1043.01,524.36c-.19,1.52-.74,2.99-1.56,4.29-.26,.41,.39,.79,.65,.38,.9-1.41,1.45-3,1.66-4.66,.03-.2-.19-.38-.38-.38-.22,0-.35,.17-.38,.38h0Z"/>
    </g>
    <g class="cls-2">
      <path class="cls-29" d="M1048.07,534.95c1.65-.32,3.43,1.07,3.53,2.74,.03,.48,.78,.48,.75,0-.13-2.18-2.34-3.88-4.48-3.47-.2,.04-.31,.28-.26,.46,.06,.21,.26,.3,.46,.26h0Z"/>
    </g>
    <g class="cls-2">
      <path class="cls-29" d="M1059.34,538.26c4.55-2.84,10.21-2.41,14.88-.08s8.75,5.47,11.59,9.61c.27,.4,.92,.02,.65-.38-3.04-4.43-7.69-7.96-12.54-10.21s-10.44-2.41-14.96,.41c-.41,.25-.03,.9,.38,.65h0Z"/>
    </g>
    <path class="cls-36" d="M890.85,415.33c5.18-14.83,15.81-27.53,29.35-35.46,3.83-2.24,7.88-4.08,12.08-5.5,.46-.15,.26-.88-.2-.72-15.07,5.07-28.06,15.67-36.24,29.29-2.32,3.86-4.23,7.95-5.71,12.2-.16,.46,.56,.65,.72,.2h0Z"/>
    <path class="cls-36" d="M850.29,414.61c4.28-7.82,13.82-10.77,22.17-8.75,8.44,2.04,17.48,8.84,19.36,17.72,.94,4.43-.13,9.23-3.55,12.35s-7.88,4.09-12.22,3.7c-4.78-.43-9.56-2.39-13.57-4.98-3.58-2.31-6.69-5.78-6.62-10.27,.04-2.33,1-4.67,3.01-5.97,2.22-1.44,5.07-1.44,7.58-.95,4.92,.97,9.41,3.67,12.78,7.35,.33,.36,.86-.17,.53-.53-3.29-3.59-7.6-6.23-12.35-7.37-4.07-.98-9.18-.63-11.35,3.52-1.91,3.66-.8,8.08,1.71,11.14,3.07,3.74,7.97,6.1,12.48,7.58s9.91,1.9,14.54-.13c4.23-1.85,7.26-5.51,7.94-10.12,1.48-10.1-7.26-18.69-15.82-22.35-4.91-2.1-10.45-2.79-15.63-1.31-4.87,1.38-9.19,4.52-11.64,8.99-.23,.42,.42,.8,.65,.38h0Z"/>
    <path class="cls-36" d="M1094.01,419.39c3.19,8.5,2.76,18.04-.66,26.41-3.3,8.07-9.37,14.75-16.71,19.37-4.08,2.57-8.53,4.49-13.18,5.79-.46,.13-.27,.85,.2,.72,17.2-4.79,31.61-18.77,33.16-37.12,.44-5.21-.24-10.47-2.08-15.37-.17-.45-.89-.25-.72,.2h0Z"/>
    <path class="cls-36" d="M1076.65,455.79c-7.4,6.11-16.31,10.19-25.76,11.84-.47,.08-.27,.81,.2,.72,9.59-1.68,18.59-5.84,26.09-12.04,.37-.31-.16-.84-.53-.53h0Z"/>
    <path class="cls-36" d="M1112.83,526.15c8.92-.32,18.28-1.54,26.71,2.07,7.02,3.01,12.85,8.53,16.14,15.44,.21,.44,.85,.06,.65-.38-3.34-7.01-9.29-12.63-16.41-15.71-8.58-3.7-18.01-2.5-27.09-2.18-.48,.02-.48,.77,0,.75h0Z"/>
    <path class="cls-36" d="M1132.39,534.63c5.61,.64,10.71,4.09,13.43,9.02,.23,.42,.88,.04,.65-.38-2.86-5.18-8.21-8.72-14.08-9.39-.48-.05-.47,.7,0,.75h0Z"/>
    <g class="cls-28">
      <path class="cls-31" d="M1036.32,418.54c-.65-.52-2.13,.3-3.39,1.17-1.51,1.95-3.01,3.9-4.52,5.86-3.46,3.59-9.41,8.92-18.06,12.88-14.24,6.52-26.99,5.31-32.74,4.68-5.5-.6-12.32-3.13-25.96-8.2-4.42-1.64-8.3-3.23-11.29-7.03-1.2-1.52-2.6-3.85-4.52-7.03-1.46-2.43-2.62-4.47-3.39-5.86,.38-2.34,.75-4.68,1.13-7.03,.38-.78,.75-1.56,1.13-2.34,.06-.13,.13-.26,.19-.39,.94-1.94,.03-4.5-2.5-5.13,.06-.33,2.31-2.68,3.18-3.94,.77-1.12,1.19-2.43,.26-3.43-1.72-1.83-4.35-1.21-4.52-1.17,.93-1.12,2.63-3.5,3.39-7.03,.66-3.07,.3-5.62,0-7.03-.04-.06-.15-.25-.34-.49-.64,.38-1.3,.72-2.01,.93-1.83,.56-3.81,.45-5.4-.67-.05,.08-.11,.15-.16,.23-.95-.47-2.16-1.2-3.39-2.34-1.81-1.68-2.83-3.49-3.39-4.68,.09-2,0-6.14-2.26-10.54-1.43-2.81-3.23-4.71-4.52-5.86-.66-3.06-1.22-7.05-1.13-11.71,.11-5.83,1.2-10.64,2.26-14.05,3.14-2.95,6.71-6.81,10.16-11.71,2.32-3.3,4.17-6.48,5.64-9.37,.81,.17,5.78,1.1,10.16-2.34,3.19-2.5,4.22-5.88,4.52-7.03,1.64-.25,4.11-.83,6.77-2.34,2.01-1.14,3.5-2.46,4.52-3.51,3.89-.28,9.48-1.1,15.8-3.51,4.73-1.81,9.2-3.51,9.03-4.68-.38-2.67-25.29-4.94-44.03,1.17-32.26,10.52-62.76,51.16-58.7,97.21,3.59,40.77,33.34,74.84,68.86,83.15,33.46,7.83,63.37-9.22,72.25-17.57,2.05-1.92,7.65-7.77,12.42-16.4,.62-1.12,6.29-11.46,4.52-12.88Z"/>
      <path class="cls-16" d="M878.28,357.64c1.48-1.56,6.09-7.54,9.03-10.54,6.31-6.45,7.72-7.61,9.03-10.54,.94-2.09,1.38-4.51,2.26-9.37,1.12-6.21,.71-7.6,2.26-9.37,2.05-2.35,5.52-3.04,7.9-3.51,3.12-.62,4.26-.12,5.64-1.17,2.01-1.53,2.31-4.66,2.26-7.03,.01-.65,.13-2.14,1.13-3.51,1.96-2.69,5.42-2.37,5.64-2.34,.94,.7,3.37,2.32,6.77,2.34,1.01,0,4.12-.12,6.77-2.34,.93-.78,2.53-2.12,2.26-3.51-.25-1.3-2.08-2.35-4.52-2.34,.08-.75,.41-3.06,2.26-4.68,1.64-1.44,4.55-2.43,5.64-1.17,.22,.26,.34,.58,.4,.93,.25,1.61,1.49,2.84,3.06,2.79,.68-.02,1.42-.08,2.19-.2,3.28-.5,5.37-1.72,6.77-2.34,2.63-1.16,6.83-1.99,13.55,0,2.33-1,5.39-2.24,9.03-3.51,4.31-1.51,6.46-2.02,6.77-3.51,.43-2.06-2.98-4.41-3.39-4.68-5.18-3.49-11.49-1.93-15.8-1.17-12.15,2.15-13.05-1.21-24.83,0-23.3,2.39-40.05,17.62-45.15,22.25-8.6,7.81-15.19,13.81-18.06,24.59-3.69,13.85-.95,29.55,1.13,33.96Z"/>
      <path class="cls-16" d="M883.93,406.83c1.29-.75,3.22-.06,3.39,0,3.55,1.31,4.41,6.37,4.52,7.03,.96-.47,2.52-1.08,4.52-1.17,1.46-.07,5.34-.24,6.77,2.34,.98,1.78,.28,3.93,0,4.68,.49,1.95,1.45,4.95,3.39,8.2,1.62,2.72,3.78,6.33,7.9,8.2,2.55,1.15,7.4,2.34,9.03,0,1.01-1.45,.37-3.66,0-4.68-1.02-1.99-.54-4.46,1.13-5.86,1.63-1.36,3.99-1.37,5.64,0,3.39,2,7.28,4.67,11.29,8.2,5.56,4.9,9.59,9.92,12.42,14.05,.18-1.28,1.14-2.24,2.26-2.34,.87-.08,1.73,.38,2.26,1.17-.24-3.16,.48-4.25,1.13-4.68,1.25-.84,6.34-.3,14.68,7.03,3.16,2.78,4.68,2.97,6.77,3.51,1.3,.34,7.28,1.9,10.16-1.17,1.87-1.99,.92-4.32,3.39-7.03,1.16-1.27,2.46-1.96,3.39-2.34,11.35-10.14,21.06-17.93,28.22-23.42,6.99-5.36,11.88-8.8,14.68-7.03,3.73,2.37,1.47,12.56,1.13,14.05-1.96,8.45-6.83,13.98-9.03,16.4-13.03,14.25-24.49,26.78-45.15,32.79-16.99,4.95-30.78,2.75-40.64,1.17-10.49-1.67-25.1-4.01-39.51-15.23-13.51-10.52-19.05-22.79-20.32-25.77-4.67-10.92-7.26-25.86-3.39-28.11Z"/>
    </g>
    <g>
      <path class="cls-20" d="M933.81,406.02c-1.39,2.86-1.86,6.06-1.36,9.2,.08,.48,.8,.27,.72-.2-.47-2.93-.01-5.96,1.29-8.63,.21-.43-.44-.81-.65-.38h0Z"/>
      <path class="cls-20" d="M924.42,425.61s.1-.1,.15-.14c.02-.02,.05-.04,.08-.06,.04-.03-.06,.04-.02,.01,.01,0,.03-.02,.04-.03,.11-.08,.23-.15,.35-.21,.03-.01,.06-.03,.09-.04,.01,0,.06-.03,.01,0s0,0,.01,0c.06-.02,.13-.05,.2-.07,.06-.02,.12-.03,.19-.05,.04,0,.07-.01,.11-.02,.02,0,.03,0,.05,0,.05,0-.1,.01-.02,0,.1-.01,.19-.03,.27-.11,.07-.07,.11-.17,.11-.27,0-.18-.17-.4-.38-.38-.67,.08-1.29,.36-1.77,.84-.14,.14-.15,.39,0,.53s.38,.15,.53,0h0Z"/>
      <path class="cls-20" d="M927.75,424.82c11.32,3.99,18.96,13.75,24.82,23.77,.24,.42,.89,.04,.65-.38-5.96-10.2-13.75-20.05-25.27-24.11-.46-.16-.65,.56-.2,.72h0Z"/>
      <path class="cls-20" d="M953.22,448.64c.1-.98,.73-1.88,1.6-2.35,.95-.51,2.13-.43,3.03,.13,.41,.25,.79-.39,.38-.65-1.13-.7-2.61-.76-3.79-.13-1.12,.6-1.83,1.75-1.97,3-.02,.2,.19,.37,.38,.38,.22,0,.35-.17,.38-.38h0Z"/>
      <path class="cls-20" d="M958.67,445.94c-.84-2.62,2.25-4.1,4.4-3.66,2.03,.41,3.8,1.78,5.46,2.96,2.95,2.11,5.78,4.42,8.98,6.15,2.92,1.58,6.29,2.7,9.65,2.29,3.05-.37,5.87-2.34,6.13-5.59,.04-.48-.71-.48-.75,0-.4,5.03-6.58,5.42-10.33,4.42s-6.88-3.22-9.92-5.45c-1.5-1.09-2.98-2.22-4.51-3.27s-3.13-2.08-4.98-2.32c-2.6-.35-5.79,1.74-4.85,4.67,.15,.46,.87,.26,.72-.2h0Z"/>
      <path class="cls-20" d="M994.16,446.03c.6-1.26,1.65-2.3,2.95-2.83,.19-.08,.32-.25,.26-.46-.05-.18-.27-.34-.46-.26-1.48,.6-2.71,1.73-3.39,3.17-.09,.18-.05,.4,.13,.51,.16,.1,.43,.05,.51-.13h0Z"/>
      <path class="cls-20" d="M995.99,446.67c1.3-1.46,3.18-2.32,5.13-2.33,.48,0,.48-.75,0-.75-2.14,.02-4.23,.95-5.66,2.55-.32,.36,.21,.89,.53,.53h0Z"/>
      <path class="cls-20" d="M929.84,428.49c8.49,4.83,15.13,12.59,18.57,21.73,.17,.45,.89,.25,.72-.2-3.52-9.33-10.25-17.24-18.92-22.18-.42-.24-.8,.41-.38,.65h0Z"/>
      <path class="cls-20" d="M944.25,446.26c.62,.79,1.15,1.66,1.56,2.57,.08,.18,.35,.23,.51,.13,.19-.11,.22-.33,.13-.51-.44-.98-1.01-1.88-1.68-2.72-.13-.16-.4-.13-.53,0-.16,.16-.13,.37,0,.53h0Z"/>
      <path class="cls-20" d="M955.72,451.05c-.07-.63,.17-1.27,.67-1.67s1.27-.5,1.86-.23c.18,.08,.4,.05,.51-.13,.09-.16,.05-.43-.13-.51-.84-.38-1.87-.33-2.62,.23s-1.14,1.43-1.04,2.32c.02,.2,.16,.38,.38,.38,.19,0,.4-.17,.38-.38h0Z"/>
      <g>
        <path d="M917.23,380.48c-.74,1.68-2.76,2.31-6.77,3.51-3.75,1.12-6.57,1.95-7.9,2.34-1.13,.78-2.26,1.56-3.39,2.34,.54-1.33,1.53-3.22,3.39-4.68,1.65-1.3,3.32-1.75,5.64-2.34,4.35-1.11,6.35-.57,7.9-2.34,.7-.8,.99-1.71,1.13-2.34,.29,.9,.55,2.26,0,3.51Z"/>
        <path d="M898.6,377.55l3.39-3.51c.75-.78,1.51-1.56,2.26-2.34,1.77-.64,3.66-1.41,5.64-2.34,1.63-.77,3.13-1.56,4.52-2.34,.07-.15,.53-1.23,0-2.34-.34-.71-.91-1.05-1.13-1.17-1.01,.23-2.17,.59-3.39,1.17-3.5,1.67-5.65,4.25-6.77,5.86-1.51,2.34-3.01,4.68-4.52,7.03Z"/>
        <path class="cls-20" d="M914.16,328.13c-2.81,8.11-3.44,16.81-1.84,25.24,.09,.47,.81,.27,.72-.2-1.58-8.3-.93-16.86,1.84-24.84,.16-.46-.57-.65-.72-.2h0Z"/>
        <path class="cls-20" d="M912.24,353.57c5.03,3.82,7.85,10.15,7.39,16.44-.04,.48,.71,.48,.75,0,.48-6.57-2.52-13.11-7.76-17.09-.38-.29-.76,.36-.38,.65h0Z"/>
        <path class="cls-20" d="M908.9,338.8c-.87,3.95-1.09,8.01-.62,12.03,.05,.47,.81,.48,.75,0-.46-3.95-.26-7.94,.6-11.83,.1-.47-.62-.67-.72-.2h0Z"/>
        <path class="cls-20" d="M908.77,353.62c-.02,.05-.05,.11-.06,.16s-.02,.12-.03,.18c0,.03,0,.06,0,.08,0,.06,.01,.12,.03,.18,.06,.2,.18,.36,.36,.47,.08,.05,.2,.06,.29,.04,.09-.02,.18-.09,.22-.17,.05-.09,.07-.19,.04-.29s-.09-.17-.17-.22c-.01,0-.03-.02-.04-.03l.08,.06s-.05-.05-.07-.07l.06,.08s-.04-.06-.06-.1l.04,.09s-.03-.08-.03-.12v.1s0-.08,.01-.12v.1s0-.07,.01-.1l-.04,.09s0-.01,0-.02c.03-.04,.04-.09,.04-.14,.01-.05,0-.1,0-.15-.02-.09-.09-.18-.17-.22-.09-.05-.19-.07-.29-.04-.09,.03-.18,.09-.22,.17h0Z"/>
        <path class="cls-20" d="M915,328.24c6.35-5.75,11.59-12.63,15.46-20.27,.22-.43-.43-.81-.65-.38-3.84,7.59-9.04,14.41-15.34,20.12-.36,.32,.17,.85,.53,.53h0Z"/>
        <path class="cls-20" d="M928.12,307.36c3.97,1.3,8.46,.75,11.92-1.63,1.53-1.06,2.84-2.42,3.83-3.99,.5-.79,.91-1.62,1.23-2.49,.22-.6,.54-1.28-.06-1.73-.39-.29-.76,.36-.38,.65,.18,.13-.77,1.99-.87,2.2-.38,.73-.82,1.43-1.33,2.07-1.01,1.28-2.26,2.38-3.67,3.2-3.17,1.83-7.02,2.14-10.48,1.01-.46-.15-.66,.57-.2,.72h0Z"/>
        <path class="cls-20" d="M926.04,307.58c-3.56,2.83-6.62,6.25-9.07,10.09-.26,.41,.39,.79,.65,.38,2.41-3.79,5.44-7.14,8.95-9.94,.38-.3-.16-.83-.53-.53h0Z"/>
        <path class="cls-20" d="M896.15,393.45c4.62,.63,8.91,3.08,11.69,6.84,2.97,4.03,3.99,9.28,2.89,14.14-.11,.47,.62,.67,.72,.2,1.15-5.05,.12-10.53-2.96-14.72-2.88-3.92-7.33-6.53-12.14-7.19-.47-.06-.68,.66-.2,.72h0Z"/>
        <path class="cls-20" d="M910.26,417.16l-.76,1.48c-.09,.17-.05,.42,.13,.51,.17,.09,.42,.05,.51-.13l.76-1.48c.09-.17,.05-.42-.13-.51-.17-.09-.42-.05-.51,.13h0Z"/>
        <path class="cls-20" d="M903.77,400.29c3.83,3.56,5.57,9.06,4.45,14.17-.1,.47,.62,.67,.72,.2,1.18-5.37-.61-11.16-4.64-14.9-.35-.33-.88,.2-.53,.53h0Z"/>
        <path class="cls-20" d="M911.41,390.68c3.13-.92,5.94-2.78,8-5.3,.3-.37-.23-.9-.53-.53-1.98,2.43-4.66,4.22-7.67,5.11-.46,.14-.27,.86,.2,.72h0Z"/>
        <path class="cls-20" d="M918.84,388.72l1.86-1.86c.14-.14,.15-.39,0-.53s-.38-.15-.53,0l-1.86,1.86c-.14,.14-.15,.39,0,.53s.38,.15,.53,0h0Z"/>
        <path class="cls-20" d="M880.37,355.53c5.27-4.85,10.65-9.83,14.35-16.05,1.89-3.18,3.16-6.6,3.96-10.21,.91-4.08,1.4-8.23,2.64-12.23,.14-.46-.58-.66-.72-.2-1.2,3.85-1.7,7.85-2.55,11.78-.8,3.71-2.04,7.22-3.98,10.48-3.66,6.16-9,11.09-14.23,15.89-.36,.33,.18,.86,.53,.53h0Z"/>
        <path class="cls-20" d="M903.17,316.18c3-.83,6.22-.45,9.17-1.47,2.34-.81,4.43-2.67,4.57-5.27,.03-.48-.72-.48-.75,0-.15,2.74-2.74,4.31-5.15,4.87-2.65,.62-5.41,.42-8.05,1.15-.46,.13-.27,.85,.2,.72h0Z"/>
        <path class="cls-20" d="M917.02,306.85s-.01-.03-.02-.05c-.02-.04,.03,.08,.01,.02-.01-.03-.02-.06-.03-.1-.02-.07-.03-.13-.04-.2v.1c0-.12,0-.24,.01-.37v.1c0-.09,.02-.17,.05-.26,0-.02,.01-.04,.02-.06-.03,.1-.02,.04,0,.02,.02-.04,.04-.08,.07-.13,.1-.17,.04-.42-.13-.51s-.4-.04-.51,.13c-.31,.51-.32,1.14-.06,1.66,.09,.18,.35,.24,.51,.13,.18-.12,.23-.32,.13-.51h0Z"/>
        <path class="cls-20" d="M918.32,303.49c.21-1.6,2.03-2.29,3.46-2.2,1.74,.12,3.29,1.12,4.91,1.65,2.78,.91,5.76,.48,8.41-.66,2.04-.88,5.32-2.53,5.38-5.15,.06-2.88-3.33-3.52-5.51-3.68-.48-.04-.48,.71,0,.75,1.54,.12,3.4,.26,4.35,1.67,1.15,1.71-.47,3.31-1.81,4.24-2.41,1.66-5.41,2.77-8.36,2.56-2.76-.2-5.15-2.29-7.92-2.12-1.74,.1-3.42,1.12-3.65,2.94-.06,.48,.69,.47,.75,0h0Z"/>
        <path class="cls-20" d="M925.46,300.49c3.01,1.37,6.64,.88,9.18-1.25,.37-.31-.16-.84-.53-.53-2.26,1.89-5.59,2.35-8.27,1.13-.44-.2-.82,.45-.38,.65h0Z"/>
        <path class="cls-20" d="M935.81,297.15s.02,0,.03,.01l-.09-.04s.04,.02,.05,.03l-.08-.06s.03,.03,.05,.05l-.06-.08s.03,.04,.04,.06l-.04-.09s.02,.05,.02,.08v-.1s-.01,.05-.01,.07v-.1s0,.04,0,.06l.04-.09s0,0,0,.01c-.03,.04-.04,.09-.04,.14-.01,.05,0,.1,0,.15,.01,.05,.03,.09,.07,.13,.03,.04,.06,.07,.11,.1l.09,.04c.07,.02,.13,.02,.2,0l.09-.04c.06-.03,.1-.08,.13-.13,.05-.1,.08-.19,.07-.3,0-.03,0-.05,0-.08s0-.05-.01-.08c-.01-.05-.04-.1-.06-.14,0-.02-.02-.04-.03-.05-.03-.04-.06-.08-.1-.12-.08-.07-.16-.12-.27-.15-.05-.02-.1-.02-.15,0-.05,0-.1,.02-.14,.04-.04,.02-.08,.06-.11,.1-.03,.04-.06,.08-.07,.13v.1c-.01,.07,0,.13,.04,.19,.05,.08,.13,.15,.22,.17h0Z"/>
        <path class="cls-20" d="M935.76,291.87c.89-1.1,1.82-2.27,3.1-2.94,1.14-.61,2.61-.71,3.67,.11,.38,.29,.76-.36,.38-.65-1.19-.91-2.82-.84-4.13-.26-1.48,.66-2.55,1.97-3.55,3.2-.3,.37,.23,.91,.53,.53h0Z"/>
        <path class="cls-20" d="M942.95,288.53c-.33,1.14,.15,2.31,1.03,3.06,1.05,.9,2.46,1.05,3.78,.87,2.91-.38,5.76-1.79,8.07-3.56,.38-.29,0-.94-.38-.65-1.95,1.49-4.16,2.6-6.54,3.21-1.19,.31-2.52,.51-3.69,.02-1.06-.44-1.89-1.6-1.56-2.77,.13-.46-.59-.66-.72-.2h0Z"/>
        <path class="cls-20" d="M956.48,289.03c3.79-.66,7.7-.31,11.32,.99,.46,.16,.65-.56,.2-.72-3.76-1.34-7.79-1.67-11.72-.99-.47,.08-.27,.81,.2,.72h0Z"/>
        <path class="cls-20" d="M919.78,370.68c.24,1.29,1.03,2.33,1.92,3.26,.97,1.02,2.03,1.97,3.17,2.8,2.24,1.63,5.01,2.63,7.78,1.99,.47-.11,.27-.83-.2-.72-2.58,.6-5.13-.41-7.2-1.91-1.01-.73-1.93-1.58-2.8-2.46s-1.7-1.88-1.94-3.15c-.09-.47-.81-.27-.72,.2h0Z"/>
        <path class="cls-20" d="M933.1,378.53l.83-.46c.36-.2,.86-.47,1.02,.07s.19,1.19,.22,1.76c.07,1.28,0,2.57-.24,3.82s-.6,2.42-1.11,3.56c-.24,.53-.51,1.05-.8,1.56-.07,.12-1.09,1.65-1.04,1.68l.08,.59,.04-.05c.32-.36-.21-.89-.53-.53l-.04,.05c-.15,.18-.15,.46,.08,.59,.58,.33,.92-.26,1.23-.67,.52-.71,.97-1.46,1.36-2.24,.78-1.57,1.32-3.25,1.57-4.98s.27-3.35-.02-5c-.09-.52-.28-1.14-.86-1.29-.71-.18-1.59,.57-2.17,.89-.42,.23-.04,.88,.38,.65h0Z"/>
        <path class="cls-20" d="M932.1,384.66c-1.98,1.57-3.46,3.71-4.25,6.11-.11,.32,.28,.58,.55,.42,2.23-1.24,3.87-3.46,4.39-5.97,.1-.47-.63-.67-.72-.2-.48,2.33-1.97,4.36-4.04,5.52l.55,.42c.75-2.28,2.17-4.29,4.05-5.78,.38-.3-.16-.83-.53-.53h0Z"/>
        <path class="cls-20" d="M931.3,385.85c-.41,.53-.77,1.1-1.1,1.69-.16,.29-.31,.58-.45,.87-.07,.15-.15,.31-.22,.47-.03,.07-.06,.15-.1,.22-.05,.12-.04,.07,.06,.04l.29,.04h0c.06,.1,.12,.21,.19,.32,0,.03-.06,.16-.02,.11,.02-.02,.03-.06,.05-.08,.03-.04,.05-.08,.08-.12,.12-.17,.03-.42-.13-.51-.19-.11-.4-.03-.51,.13-.06,.08-.11,.16-.15,.25-.12,.26,0,.6,.32,.6,.25,0,.41-.22,.5-.43,.1-.23,.2-.46,.31-.68,.43-.89,.94-1.74,1.54-2.53,.12-.16,.03-.42-.13-.51-.19-.11-.39-.03-.51,.13h0Z"/>
        <path class="cls-20" d="M924.6,387.72c-.51,.91-1.06,2.02-.69,3.08,.28,.81,.98,1.32,1.77,1.58,.88,.28,1.82,.24,2.72,.1,1.12-.18,2.21-.58,3.19-1.15,.42-.24,.04-.89-.38-.65-1.43,.82-3.32,1.43-4.98,1.07-.62-.14-1.28-.43-1.56-1.03-.41-.87,.14-1.86,.57-2.62,.24-.42-.41-.8-.65-.38h0Z"/>
        <path class="cls-20" d="M935.51,392.69c-2.69,3.87-6.36,6.99-10.59,9.06-.43,.21-.05,.86,.38,.65,4.35-2.12,8.1-5.35,10.86-9.33,.28-.4-.37-.77-.65-.38h0Z"/>
        <path class="cls-20" d="M926.53,401.76c2.01-.56,3.99-1.22,5.93-1.97,.45-.17,.25-.9-.2-.72-1.94,.75-3.92,1.41-5.93,1.97-.46,.13-.27,.85,.2,.72h0Z"/>
        <path class="cls-20" d="M935.01,394.04c-1.13,1.99-2.65,3.75-4.48,5.14-.16,.12-.24,.32-.13,.51,.09,.16,.35,.26,.51,.13,1.93-1.46,3.55-3.29,4.75-5.4,.24-.42-.41-.8-.65-.38h0Z"/>
        <path class="cls-20" d="M898.09,337.84c-2.84,6.28-7.01,11.88-12.22,16.41-.37,.32,.17,.85,.53,.53,5.25-4.56,9.47-10.22,12.34-16.56,.2-.44-.45-.82-.65-.38h0Z"/>
        <path class="cls-20" d="M881.68,357.39l-1.12,.75c-.08,.05-.15,.13-.17,.22-.02,.09-.01,.21,.04,.29,.1,.16,.34,.25,.51,.13l1.12-.75c.08-.05,.15-.13,.17-.22,.02-.09,.01-.21-.04-.29-.1-.16-.34-.25-.51-.13h0Z"/>
        <path class="cls-20" d="M890.45,331.37c-.53,1.28-1.01,2.87,.09,4.01s2.45,.29,3.43-.51c1.05-.85,1.91-1.96,2.41-3.22,.25-.63,.4-1.3,.41-1.98,.01-.52,.02-1.33-.38-1.73-.5-.5-1.51-.27-2.1-.07-.73,.25-1.37,.69-1.86,1.28-.31,.37,.22,.9,.53,.53,.33-.4,.72-.72,1.19-.95,.44-.21,1.05-.41,1.54-.32,.41,.07,.34,.98,.32,1.31-.02,.52-.13,1.02-.3,1.51-.35,.99-.98,1.87-1.73,2.59-.37,.36-.77,.69-1.21,.97s-.98,.56-1.49,.25c-1.23-.76-.56-2.46-.14-3.48,.18-.45-.54-.64-.72-.2h0Z"/>
        <path class="cls-20" d="M908.68,307.85c-.42,.89,.21,1.85,1.09,2.13,.94,.3,1.87-.34,2.41-1.06,1.05-1.39,1.25-4.04-.76-4.67-.82-.26-1.84-.03-2.26,.77-.22,.43,.42,.81,.65,.38s.71-.56,1.16-.49c.59,.09,1.01,.49,1.17,1.06,.19,.67,.04,1.42-.27,2.03-.29,.57-.79,1.18-1.46,1.28-.32,.05-.63-.07-.86-.29-.19-.19-.35-.49-.23-.76,.09-.18,.05-.4-.13-.51-.16-.09-.43-.05-.51,.13h0Z"/>
        <path class="cls-20" d="M946.18,288.56c1.78,1.78,4.99,1.5,6.48-.5,.29-.39-.36-.76-.65-.38-1.21,1.62-3.89,1.76-5.3,.35-.34-.34-.87,.19-.53,.53h0Z"/>
        <path class="cls-20" d="M947.79,285.76c.1-.09,.11-.11,.23-.18,.05-.03,.1-.06,.15-.09,.02-.01,.05-.02,.07-.03,.02,0,.08-.03,.03-.02,.11-.04,.22-.08,.33-.1,.14-.03,.14-.03,.28-.04,.11,0,.22,0,.33,0,.02,0,.09,.01,.03,0,.03,0,.05,0,.08,.01,.06,.01,.11,.02,.17,.04s.11,.03,.16,.05h.04s-.02,0,0,.01c.02,.01,.05,.02,.07,.03,.05,.03,.1,.05,.15,.08,.02,.01,.04,.03,.06,.04,0,0,.09,.07,.05,.03,.16,.12,.37,.16,.53,0,.13-.13,.16-.41,0-.53-.97-.75-2.39-.72-3.3,.13-.15,.14-.14,.39,0,.53,.15,.15,.38,.14,.53,0h0Z"/>
        <path class="cls-20" d="M907.77,318.18c3.22,.23,6.47-1.04,8.69-3.38,.33-.35-.2-.88-.53-.53-2.1,2.21-5.12,3.37-8.16,3.16-.48-.03-.48,.72,0,.75h0Z"/>
        <path class="cls-20" d="M932.46,399.98c1.28,.33,2.33,1.35,2.64,2.64s-.22,2.84-1.32,3.67c-.38,.29,0,.94,.38,.65,1.35-1.02,2.05-2.75,1.68-4.42-.34-1.58-1.64-2.87-3.19-3.26-.47-.12-.67,.6-.2,.72h0Z"/>
        <path class="cls-20" d="M884.17,406.73c1.61-.5,3.43-.06,4.65,1.11,.7,.68,1.11,1.57,1.4,2.49,.33,1.02,.57,2.07,.84,3.1,.12,.47,.85,.27,.72-.2-.54-2.07-.9-4.56-2.59-6.06-1.4-1.24-3.43-1.72-5.22-1.16-.46,.14-.26,.87,.2,.72h0Z"/>
        <path class="cls-20" d="M891.57,413.76c2.54-1.43,5.71-1.5,8.29-.12,1.25,.67,2.59,1.62,3.14,2.98,.49,1.24,.36,2.66-.33,3.79-.25,.41,.4,.79,.65,.38,.77-1.25,.95-2.82,.47-4.21-.53-1.53-1.83-2.59-3.19-3.39-2.88-1.7-6.49-1.72-9.4-.08-.42,.24-.04,.88,.38,.65h0Z"/>
        <path class="cls-20" d="M902.49,420.81c1.11,3.5,3.09,6.6,5.33,9.47,2.06,2.64,4.45,5.27,7.56,6.67,2.61,1.17,6.28,1.6,8.27-.91,.85-1.08,.99-2.35,.71-3.67-.35-1.65-1.49-3.44-.77-5.14,.19-.44-.46-.82-.65-.38-1.12,2.63,1.42,4.98,.71,7.57-1.04,3.84-6.24,2.84-8.78,1.44s-4.69-3.76-6.52-6.11c-2.16-2.77-4.07-5.77-5.14-9.14-.15-.46-.87-.26-.72,.2h0Z"/>
        <path class="cls-20" d="M894.45,415.45c1.46-.34,3.07,.12,4.13,1.2s1.47,2.7,1.1,4.15c-.12,.47,.6,.67,.72,.2,.43-1.71-.05-3.61-1.29-4.88s-3.13-1.78-4.86-1.39c-.47,.11-.27,.83,.2,.72h0Z"/>
        <path class="cls-20" d="M883.83,394c2.24-.49,4.51-.76,6.8-.83,.48-.01,.48-.76,0-.75-2.35,.07-4.7,.36-7,.86-.47,.1-.27,.83,.2,.72h0Z"/>
        <path class="cls-20" d="M932.96,399.5c1.13-.82,2.08-1.85,2.81-3.05,.59-.98,1.46-2.55,.52-3.58-.33-.36-.86,.18-.53,.53,.34,.37,.17,.97,.01,1.39-.2,.53-.49,1.05-.8,1.52-.63,.98-1.44,1.84-2.38,2.53-.39,.28-.01,.93,.38,.65h0Z"/>
        <path class="cls-20" d="M974.93,281.64c-16.32-2.58-33,.07-47.76,7.47-9.29,4.66-17.72,11.01-24.87,18.55-10.51,11.08-17.66,24.93-21.38,39.69-2.51,9.95-3.57,20.32-3.17,30.58,.31,7.8,1.51,15.6,3.59,23.12,4.05,14.65,11.59,28.25,22.18,39.18,6.63,6.85,14.35,12.7,22.71,17.27,13.14,7.17,27.85,10.83,42.82,10.4,12.13-.35,24.14-2.85,35.03-8.35,14.92-7.53,26.7-20.33,33.44-35.57,.99-2.24,1.87-4.52,2.65-6.85,.15-.46-.57-.66-.72-.2-4.76,14.2-13.67,26.95-25.77,35.85-11.46,8.43-25.3,13.01-39.42,14.1-13.47,1.04-26.87-.83-39.37-6.05-10.23-4.27-19.66-10.52-27.74-18.1-9.82-9.2-17.41-20.62-22.22-33.19-3.42-8.94-5.43-18.36-6.2-27.89-.67-8.28-.27-16.68,1.03-24.88,2.19-13.85,7.13-27.3,15.16-38.86,6.28-9.05,14.42-16.84,23.6-22.93,13.32-8.83,28.96-13.84,44.99-13.61,3.76,.05,7.51,.38,11.23,.97,.47,.07,.68-.65,.2-.72h0Z"/>
        <path class="cls-20" d="M945.18,298.1c4.15-.21,8.12-2.09,10.89-5.2,.32-.36-.21-.89-.53-.53-2.63,2.96-6.4,4.78-10.36,4.98-.48,.02-.48,.77,0,.75h0Z"/>
        <path class="cls-20" d="M955.8,293.32c6.49-.98,12.88-2.56,19.07-4.76,2.13-.76,4.83-1.46,6.25-3.37,1.74-2.35-1.72-2.63-3.29-3.02-.47-.12-.67,.61-.2,.72,.71,.17,3.29,.37,3.14,1.47-.14,1-1.97,1.85-2.79,2.22-2.35,1.05-4.86,1.83-7.31,2.59-4.93,1.52-9.97,2.66-15.07,3.43-.48,.07-.27,.79,.2,.72h0Z"/>
      </g>
      <path class="cls-20" d="M996.8,443.26c8.41-1.26,16.5-5.44,23.25-10.49,7.27-5.43,13.16-12.45,18.75-19.53,.3-.37-.23-.91-.53-.53-5.54,7.02-11.39,14.02-18.59,19.41-6.72,5.02-14.71,9.16-23.07,10.41-.48,.07-.27,.79,.2,.72h0Z"/>
      <path class="cls-20" d="M932.89,415.53c2.86,4.72,5.73,9.44,8.59,14.16,.25,.41,.9,.04,.65-.38-2.86-4.72-5.73-9.44-8.59-14.16-.25-.41-.9-.04-.65,.38h0Z"/>
      <path class="cls-20" d="M941.93,430.32c6.41,2.99,12.96,5.74,19.57,8.26,3.1,1.18,6.23,2.35,9.44,3.2,3.8,1,7.76,1.59,11.67,1.99,4.67,.48,9.6,.7,14.18-.51,.47-.12,.27-.85-.2-.72-4.07,1.08-8.42,.96-12.59,.62s-8.23-.97-12.24-1.94c-6.69-1.61-13.17-4.49-19.48-7.15-3.35-1.41-6.68-2.86-9.97-4.39-.43-.2-.82,.44-.38,.65h0Z"/>
    </g>
    <g>
      <path class="cls-30" d="M1115.47,379.15c-2.6-.02-4.9-.29-6.82-.63-1.17-.86-2.89-2.32-4.4-4.53-2.45-3.59-2.26-6.11-4.57-10.05-.85-1.44-2.26-3.48-4.64-5.59-1.56-.41-3.94-.84-6.82-.63-2.71,.2-4.88,.89-6.33,1.48-.33-1.41-.66-2.81-.99-4.22,2.28-.8,4.67-1.72,7.14-2.78,3.27-1.4,6.27-2.87,9-4.33,1.01-1.25,2.2-2.98,3.23-5.2,1.07-2.3,1.63-4.4,1.93-6.01,1.59-1.16,3.53-2.41,5.84-3.59,2.21-1.13,4.28-1.94,6.08-2.53-2.48-.42-5.97-.67-9.99,.11-1.08,.21-5.92,1.21-11.11,4.82-2.98,2.07-5.06,4.3-6.4,5.94-.75-.35-1.67-.86-2.6-1.62-1.6-1.3-2.56-2.74-3.09-3.73,.02-.99,.18-2.76,1.12-4.71,1.09-2.24,2.66-3.55,3.48-4.15,2.64,.21,5.64,.3,8.93,.14,3.65-.18,6.92-.62,9.74-1.16,1.38-.71,5-2.82,7.21-7.24,1.43-2.88,1.67-5.54,1.69-7.07-1.5,1.46-3.69,3.28-6.64,4.89-3.16,1.72-6.07,2.57-8.19,3.03-1.47-2.53-3.41-3.92-4.4-4.53-2.49-1.54-4.86-1.86-6.01-1.93-1.45,1.73-3.87,4.17-7.45,6.19-2.71,1.53-5.24,2.33-7.14,2.78,2.25-4.11,2.47-7.29,2.25-9.42-.07-.72-.54-2.6-1.48-6.33-1.27-5.07-1.42-5.36-1.48-6.33-.12-1.93,.22-4.77,2.49-8.37-2.69,3.82-5.44,8.15-8.08,13.01-1.41,2.59-2.67,5.12-3.8,7.56-.9-.87-2.64-2.8-3.59-5.84-.9-2.89-.64-5.35-.42-6.58,2.24-3.12,4.48-6.24,6.71-9.35,.72-2.27,1.81-6.89,.45-12.34-.63-2.55-1.63-4.59-2.53-6.08-.29,1.92-.58,3.84-.88,5.77-2.12,2.69-4.43,5.47-6.96,8.3-1.8,2.01-3.59,3.91-5.34,5.7-.09,2.64-.52,6.33-2,10.48-1.13,3.16-2.55,5.69-3.8,7.56-.02-.04-.03-.08-.05-.12,.34-1.26,.63-2.77,.7-4.5,.12-2.71-.31-4.95-.72-6.46-1.27-1.21-2.86-2.54-4.79-3.82-2.54-1.69-4.95-2.82-6.94-3.58-.27-1.14-.51-2.6-.48-4.31,.04-2.92,.81-5.24,1.43-6.7-1.07,.3-3.85,1.24-6.1,3.95-1.88,2.27-2.44,4.63-2.63,5.74,1.31,.74,3.09,1.94,4.79,3.82,2.44,2.7,3.56,5.5,4.07,7.17-.29,.98-1,2.89-2.75,4.67-1.52,1.54-3.13,2.29-4.06,2.64-.65-.34-1.58-.92-2.39-1.91-.62-.75-2.25-3.03-1.33-11.84,.2-1.95,.58-4.62,1.31-7.78-.41-1.59-3.13-11.52-12.7-16.01-4.5-2.12-8.72-2.19-11.13-2.02,3.11,1.83,6.22,3.66,9.34,5.49,1.04,2.79,2.08,5.58,3.12,8.37-1.16,2.69-2.3,5.73-3.34,9.09-.98,3.2-1.72,6.22-2.26,8.97,1.03,2.18,2.35,4.62,4.07,7.17,1.29,1.91,2.59,3.58,3.83,5.02-.34,.77-1.15,2.34-2.87,3.59-1.19,.87-2.36,1.26-3.11,1.44-.71-.43-1.55-1.05-2.39-1.91-1.44-1.48-2.22-3.02-2.64-4.06-2.24-.59-5.26-1.15-8.85-1.19-3.46-.03-6.4,.44-8.61,.97-.83-1.42-1.94-3.52-2.88-6.22-1.41-4.06-1.36-6.34-1.8-6.34-.77,0-2.18,6.94-.58,14.23,.48,2.21,1.14,4,1.68,5.26,3.07,.72,6.51,1.74,10.17,3.22,2.08,.84,4,1.73,5.74,2.63,.02,.38,.13,2.71-1.67,4.55-2.11,2.15-4.99,1.73-5.26,1.68-1.62-1.18-3.69-2.77-5.99-4.78-2.72-2.37-4.62-4.32-6.11-5.85-1.74-1.79-3.88-4.11-6.23-6.93-1.51-.37-3.83-.73-6.58-.35-4.78,.66-7.99,3.14-9.33,4.32,2.13-.14,4.73-.14,7.66,.23,2.58,.32,4.83,.86,6.7,1.43,1.06,1,2.6,2.65,3.83,5.02,2.01,3.85,1.53,6.34,3.36,10.52,.67,1.53,1.84,3.72,3.95,6.1,1.5,.59,3.81,1.3,6.7,1.43,2.71,.12,4.95-.31,6.46-.72,.16,1.44,.32,2.87,.48,4.31-2.36,.53-4.84,1.16-7.41,1.92-3.41,1.01-6.57,2.11-9.45,3.24-1.15,1.13-2.54,2.7-3.82,4.79-1.33,2.16-2.13,4.18-2.63,5.74-1.71,.96-3.79,1.98-6.22,2.88-2.33,.86-4.47,1.42-6.34,1.8,2.41,.71,5.85,1.37,9.93,1.07,1.09-.08,6.02-.51,11.6-3.48,3.2-1.71,5.53-3.68,7.05-5.15,.71,.43,1.55,1.05,2.39,1.91,1.44,1.48,2.22,3.02,2.64,4.06-.13,.98-.5,2.73-1.67,4.55-1.34,2.09-3.05,3.21-3.94,3.71-2.6-.52-5.57-.96-8.85-1.19-3.64-.25-6.94-.19-9.81,.01-1.46,.55-5.3,2.21-8.01,6.35-1.76,2.69-2.31,5.3-2.5,6.82,1.66-1.27,4.05-2.83,7.17-4.07,3.34-1.33,6.33-1.84,8.49-2.04,1.16,2.69,2.93,4.3,3.83,5.02,2.29,1.83,4.61,2.41,5.74,2.63,1.64-1.54,4.33-3.69,8.13-5.27,2.87-1.2,5.47-1.7,7.41-1.92-2.72,3.82-3.31,6.95-3.34,9.09-.01,.73,.23,2.65,.72,6.46,.67,5.18,.78,5.49,.72,6.46-.11,1.93-.77,4.71-3.46,8.02,3.12-3.48,6.36-7.46,9.56-11.97,1.7-2.41,3.25-4.77,4.66-7.06,.79,.97,2.29,3.1,2.88,6.22,.56,2.97,0,5.39-.35,6.58-2.59,2.83-5.18,5.67-7.77,8.5-.98,2.17-2.61,6.63-1.9,12.2,.33,2.61,1.08,4.75,1.8,6.34,.52-1.87,1.03-3.75,1.55-5.62,2.42-2.43,5.04-4.92,7.89-7.42,2.02-1.79,4.02-3.46,5.98-5.03,.4-2.61,1.26-6.23,3.22-10.17,1.49-3.01,3.2-5.35,4.66-7.06,.27,1.13,3.02,.39,2.34,14.94-.22,2.66-.41,5.2-.55,7.56,.44,.17,8.33-23.46,8.78-23.3-.41,1.56-.84,3.94-.63,6.82,.2,2.71,.89,4.88,1.48,6.33,1.4,1.05,3.13,2.18,5.2,3.23,2.72,1.38,5.25,2.22,7.31,2.74,.41,1.1,.81,2.53,.99,4.22,.3,2.9-.18,5.3-.63,6.82,1.02-.42,3.68-1.68,5.59-4.64,1.6-2.47,1.88-4.89,1.93-6.01-1.39-.58-3.29-1.56-5.2-3.23-2.74-2.39-4.18-5.04-4.89-6.64,.17-1,.66-2.99,2.18-4.96,1.33-1.71,2.84-2.64,3.73-3.1,.68,.26,1.68,.73,2.6,1.62,.7,.67,2.59,2.75,2.71,11.6,.03,1.96-.03,4.66-.38,7.88,.59,1.53,4.46,11.07,14.49,14.41,4.72,1.57,8.92,1.15,11.29,.7-3.31-1.45-6.61-2.91-9.92-4.36-1.36-2.65-2.72-5.3-4.08-7.95,.83-2.81,1.62-5.96,2.25-9.42,.6-3.3,.97-6.38,1.19-9.18-1.27-2.04-2.88-4.31-4.89-6.64-1.5-1.74-2.99-3.25-4.4-4.53,.25-.81,.87-2.46,2.43-3.9,1.08-1.01,2.19-1.53,2.92-1.79,.75,.35,1.67,.86,2.6,1.62,1.6,1.3,2.56,2.74,3.1,3.73,2.3,.32,5.36,.53,8.93,.14,3.44-.38,6.3-1.19,8.44-1.97,.99,1.31,2.34,3.27,3.59,5.84,1.88,3.86,2.1,6.14,2.53,6.08,.76-.1,1.35-7.14-1.09-14.2-.74-2.14-1.61-3.84-2.29-5.03-3.13-.35-6.67-.97-10.48-2-2.17-.59-4.17-1.25-6.01-1.93-.07-.37-.45-2.68,1.12-4.71,1.84-2.39,4.75-2.3,5.03-2.29,1.75,.98,3.99,2.32,6.51,4.04,2.98,2.03,5.1,3.75,6.75,5.1,1.94,1.58,4.34,3.63,7,6.15,1.55,.19,3.88,.28,6.57-.42,4.67-1.22,7.56-4.06,8.75-5.38-2.1,.39-4.68,.69-7.63,.67Z"/>
      <path class="cls-34" d="M1023.93,348.94c-1.29,.67-2.9,.05-6.07-1.22-2.96-1.19-5.18-2.09-6.23-2.52-1.11-.08-2.21-.17-3.32-.25,.99-.56,2.54-1.23,4.45-1.21,1.69,.02,2.98,.58,4.77,1.38,3.34,1.5,4.37,2.84,6.23,2.52,.84-.15,1.47-.56,1.86-.89-.25,.7-.74,1.68-1.7,2.18Z"/>
      <path class="cls-34" d="M1011.4,332.47c1.41-.39,2.81-.78,4.22-1.17,.94-.26,1.87-.52,2.81-.78,1.69,.3,3.53,.56,5.51,.74,1.63,.14,3.17,.21,4.61,.23,.12-.08,.96-.71,1.01-1.8,.04-.7-.27-1.22-.39-1.41-.9-.28-1.98-.52-3.2-.62-3.51-.29-6.34,.72-7.93,1.45-2.21,1.12-4.42,2.24-6.64,3.36Z"/>
      <path class="cls-34" d="M1041.23,353.34c1.21,1.3,3.33,1.24,7.51,1.06,3.91-.16,6.83-.3,8.22-.37,1.31,.36,2.62,.71,3.93,1.07-.92-1.05-2.44-2.46-4.65-3.21-1.97-.67-3.69-.54-6.08-.35-4.47,.36-6.21,1.5-8.22,.37-.91-.51-1.46-1.25-1.79-1.78,0,.91,.17,2.24,1.08,3.22Z"/>
      <path class="cls-34" d="M1059.03,341.44c-1.33-.97-2.66-1.94-3.98-2.91-.89-.65-1.77-1.29-2.66-1.94-1.9-.35-3.94-.8-6.1-1.4-1.77-.49-3.43-1.03-4.95-1.58-.09-.14-.73-1.13-.36-2.3,.24-.75,.76-1.18,.97-1.33,1.06,.06,2.3,.24,3.63,.61,3.82,1.08,6.4,3.27,7.79,4.67,1.89,2.06,3.78,4.12,5.67,6.18Z"/>
      <path class="cls-34" d="M1018.9,368.14c2.31,1.16,5.77,2.58,10.17,3.22,3.48,.51,6.48,.38,8.73,.11-.59-.77-3.7-4.72-9.34-5.49-4.95-.67-8.62,1.55-9.57,2.16Z"/>
      <path class="cls-20" d="M1000.95,270.43c3.06,1.16,6.24,2.37,8.65,4.67,2.61,2.5,3.53,5.77,2.74,9.3-1.33,5.94-6.38,11.45-4.39,17.84,.14,.46,.87,.26,.72-.2-2.28-7.31,4.93-13.35,4.72-20.54-.19-6.72-6.84-9.73-12.25-11.79-.45-.17-.65,.55-.2,.72h0Z"/>
      <path class="cls-20" d="M1007.27,301.64c2.42,4.33,5.36,8.34,8.74,11.96,.33,.35,.86-.18,.53-.53-3.34-3.57-6.24-7.54-8.63-11.81-.24-.42-.88-.04-.65,.38h0Z"/>
      <path class="cls-20" d="M1015.07,287.61c-.98,1.72-1.58,3.62-1.76,5.59-.05,.48,.7,.48,.75,0,.17-1.84,.75-3.62,1.66-5.22,.24-.42-.41-.8-.65-.38h0Z"/>
      <path class="cls-20" d="M1013.52,299.37c.51,2.45,1.84,4.58,3.24,6.61,1.55,2.24,3.11,4.42,4.13,6.97,.18,.44,.9,.25,.72-.2-.99-2.47-2.43-4.62-3.95-6.79s-2.89-4.26-3.42-6.79c-.1-.47-.82-.27-.72,.2h0Z"/>
      <path class="cls-20" d="M982.67,298.86c.03,4.63,1.34,9.18,3.78,13.12,.25,.41,.9,.03,.65-.38-2.37-3.83-3.65-8.24-3.68-12.74,0-.48-.75-.48-.75,0h0Z"/>
      <path class="cls-20" d="M987.02,312.55c2.89-1.19,5.96-1.83,9.08-1.84,2.75,0,6.52,.19,8.59,2.24,.34,.34,.87-.19,.53-.53-2.11-2.08-5.68-2.39-8.49-2.45-3.4-.08-6.78,.56-9.92,1.86-.44,.18-.25,.91,.2,.72h0Z"/>
      <path class="cls-20" d="M1004.62,313.05c.65,1.53,1.38,3.05,2.52,4.28,1.05,1.13,2.43,1.93,3.98,2.08,.48,.04,.48-.71,0-.75-3.12-.29-4.77-3.42-5.85-5.98-.08-.19-.35-.23-.51-.13-.19,.11-.21,.33-.13,.51h0Z"/>
      <path class="cls-20" d="M1015.92,314.09c-.51,1.51-1.54,2.82-2.88,3.68-.41,.26-.03,.91,.38,.65,1.51-.96,2.65-2.43,3.23-4.13,.15-.46-.57-.66-.72-.2h0Z"/>
      <path class="cls-20" d="M958.84,317.17c4.41-3.06,10.55-6.5,15.94-3.91,.43,.21,.81-.44,.38-.65-5.68-2.72-12.03,.67-16.7,3.91-.39,.27-.02,.92,.38,.65h0Z"/>
      <path class="cls-20" d="M974.74,312.94c2.97,3.66,6.15,7.14,9.55,10.4,1.68,1.61,3.4,3.17,5.17,4.68,1.56,1.33,3.16,2.69,5.23,3.11,.47,.09,.67-.63,.2-.72-2.22-.44-3.92-2.06-5.57-3.49s-3.39-3.01-5.01-4.59c-3.2-3.12-6.22-6.43-9.04-9.91-.3-.37-.83,.16-.53,.53h0Z"/>
      <path class="cls-20" d="M994.1,331.29c3.24-.33,5.93-3.16,6.07-6.42,.02-.48-.73-.48-.75,0-.12,2.82-2.5,5.38-5.32,5.67-.48,.05-.48,.8,0,.75h0Z"/>
      <path class="cls-20" d="M980.74,307.87c.1,2.11,.36,4.22,.81,6.28,.34,1.6,.77,3.32,2.19,4.3,.4,.28,.77-.37,.38-.65-1.33-.92-1.63-2.77-1.93-4.24-.38-1.88-.61-3.78-.7-5.69-.02-.48-.77-.48-.75,0h0Z"/>
      <path class="cls-20" d="M1013.6,338.03c1.71-1.27,3.77-1.88,5.85-2.18,2.28-.33,4.61-.26,6.81,.47,.46,.15,.66-.57,.2-.72-2.25-.74-4.64-.82-6.98-.5s-4.44,.94-6.27,2.29c-.38,.28,0,.94,.38,.65h0Z"/>
      <path class="cls-20" d="M1029.32,341.94c-.25,4.56-1.32,9.03-3.18,13.2-.19,.44,.45,.82,.65,.38,1.91-4.29,3.03-8.88,3.28-13.58,.03-.48-.72-.48-.75,0h0Z"/>
      <path class="cls-20" d="M1029.16,337.8l.04,.69c0,.1,.04,.19,.11,.27,.07,.07,.17,.11,.27,.11s.2-.04,.27-.11,.12-.17,.11-.27l-.04-.69c0-.1-.04-.19-.11-.27-.07-.07-.17-.11-.27-.11s-.2,.04-.27,.11-.12,.17-.11,.27h0Z"/>
      <path class="cls-20" d="M1026.52,359.13c3.95,2.16,8.57,2.01,12.89,1.36,.48-.07,.27-.79-.2-.72-4.11,.62-8.55,.77-12.31-1.29-.42-.23-.8,.42-.38,.65h0Z"/>
      <path class="cls-20" d="M1028.28,361.92c1.45,1.1,3.39,.96,5.09,.77,.2-.02,.38-.16,.38-.38,0-.19-.17-.4-.38-.38-1.58,.17-3.37,.35-4.71-.67-.16-.12-.42-.02-.51,.13-.11,.19-.03,.39,.13,.51h0Z"/>
      <path class="cls-20" d="M1048.25,360.34c3.34-1.4,7.03-2.34,10.66-1.71,1.54,.27,3.03,.8,4.36,1.63s3.49,2.48,3.11,4.26c-.1,.47,.62,.67,.72,.2,.37-1.73-.98-3.19-2.21-4.22-1.35-1.12-2.96-1.9-4.65-2.35-4.09-1.09-8.37-.14-12.19,1.46-.44,.18-.25,.91,.2,.72h0Z"/>
      <path class="cls-20" d="M1047.44,363.76c-1.9,1.92-.59,4.69,1.24,6.09,2.46,1.87,5.36,2.66,8.35,1.64,2.41-.82,5.19-2.44,6.08-4.98,.84-2.39-.64-5.1-3.1-5.71-1.57-.39-3.3-.04-4.81,.42-1.42,.43-2.72,1.12-3.59,2.35-.28,.39,.37,.77,.65,.38,1.29-1.81,4.09-2.52,6.21-2.56,2.38-.05,4.58,1.83,4.07,4.37-.45,2.21-2.63,3.64-4.53,4.52-1.2,.56-2.52,.97-3.86,.95s-2.45-.48-3.56-1.08-2.19-1.31-2.83-2.39-.71-2.55,.22-3.49c.34-.34-.19-.87-.53-.53h0Z"/>
      <path class="cls-20" d="M1017.83,351.33c-3.18-2.37-7.67-3.51-11.39-1.7-3.03,1.47-4.98,5.34-3.49,8.55,1.62,3.48,6.13,4.99,9.71,4.57,3.03-.36,7.98-2.84,6.38-6.67-.85-2.03-3.03-2.86-5.09-3.05s-4.24,.19-5.66,1.74c-.33,.36,.2,.89,.53,.53,1.16-1.26,2.87-1.62,4.52-1.56,1.75,.06,3.73,.54,4.74,2.12,2.22,3.48-2.96,5.9-5.66,6.17-3.15,.31-6.96-.92-8.61-3.8-1.56-2.73-.01-6.25,2.56-7.72,3.53-2.01,7.99-.82,11.07,1.47,.39,.29,.76-.36,.38-.65h0Z"/>
      <path class="cls-20" d="M1006.24,346.63c-3.62,1.06-7.64,3.14-8.38,7.22-.09,.47,.64,.67,.72,.2,.7-3.83,4.48-5.71,7.86-6.7,.46-.14,.27-.86-.2-.72h0Z"/>
      <path class="cls-20" d="M1046,341.11c5-.02,9.8,2.71,12.32,7.02,.24,.42,.89,.04,.65-.38-2.66-4.53-7.72-7.41-12.97-7.39-.48,0-.48,.75,0,.75h0Z"/>
      <path class="cls-20" d="M1033.7,295.83c1.43,2.2,3.04,4.72,2.47,7.47-.1,.47,.62,.67,.72,.2,.62-2.98-.99-5.65-2.54-8.04-.26-.4-.91-.03-.65,.38h0Z"/>
      <path class="cls-20" d="M1034.68,306.45c-1.27,1.64-2.9,2.98-4.76,3.9-.43,.21-.05,.86,.38,.65,1.91-.95,3.6-2.33,4.91-4.02,.12-.16,.15-.37,0-.53-.13-.13-.41-.16-.53,0h0Z"/>
      <path class="cls-20" d="M1039.89,301.52c2,3.34,.18,7.2-2.01,9.92-.3,.37,.23,.91,.53,.53,2.4-2.99,4.32-7.17,2.13-10.83-.25-.41-.9-.04-.65,.38h0Z"/>
      <path class="cls-20" d="M1061.12,285.74c-2,2.61-4.2,5.07-6.55,7.36-.35,.34,.18,.87,.53,.53,2.41-2.34,4.63-4.85,6.67-7.51,.29-.38-.36-.76-.65-.38h0Z"/>
      <path class="cls-20" d="M1053.54,296.31c.14,6.05-1.15,12.84-6.58,16.4-.4,.26-.03,.91,.38,.65,5.66-3.71,7.1-10.71,6.95-17.05-.01-.48-.76-.48-.75,0h0Z"/>
      <path class="cls-20" d="M1069.64,307.5c-.21,1.87-1.28,3.54-2.21,5.12-.99,1.68-2.05,3.31-3.17,4.91-.28,.4,.37,.77,.65,.38,1.19-1.7,2.32-3.45,3.36-5.25,.94-1.62,1.91-3.27,2.12-5.17,.05-.48-.7-.48-.75,0h0Z"/>
      <path class="cls-20" d="M980.63,324.62c.86,1.17,1.29,2.53,1.69,3.91s.83,2.75,1.45,4.06c1.12,2.35,2.92,4.39,5.42,5.28,.46,.16,.65-.56,.2-.72-2.57-.91-4.26-3.19-5.28-5.62s-1.28-5.14-2.83-7.27c-.28-.39-.93-.01-.65,.38h0Z"/>
      <path class="cls-20" d="M992.04,338.04c1,.05,2,.1,3,.16,.2,.01,.38-.18,.38-.38,0-.21-.17-.36-.38-.38-1-.05-2-.1-3-.16-.2-.01-.38,.18-.38,.38,0,.21,.17,.36,.38,.38h0Z"/>
      <path class="cls-20" d="M998.18,337.42l1.67-.18c.1-.01,.19-.03,.27-.11,.07-.07,.11-.17,.11-.27,0-.19-.17-.4-.38-.38l-1.67,.18c-.1,.01-.19,.03-.27,.11-.07,.07-.11,.17-.11,.27,0,.19,.17,.4,.38,.38h0Z"/>
      <path class="cls-20" d="M993.79,316.21c2.15,.35,4.21,1.13,6.05,2.3,.9,.58,1.75,1.24,2.51,1.99,.82,.8,1.6,1.69,1.85,2.83,.1,.47,.83,.27,.72-.2-.24-1.13-.95-2.04-1.73-2.86s-1.71-1.58-2.68-2.23c-1.96-1.31-4.2-2.19-6.52-2.57-.47-.08-.68,.65-.2,.72h0Z"/>
      <path class="cls-20" d="M1005.46,325.27c-.02,.06-.04,.12-.05,.18-.01,.09-.03,.18-.02,.27s.02,.18,.04,.27,.06,.17,.1,.26,.14,.15,.22,.17c.09,.02,.21,.01,.29-.04s.15-.13,.17-.22v-.1c.01-.07,0-.13-.04-.19,0,0,0-.01,0-.02l.04,.09c-.03-.08-.05-.16-.06-.24v.1c0-.08,0-.16,.01-.24v.1c0-.07,.01-.13,.03-.19,.03-.09,0-.21-.04-.29s-.13-.15-.22-.17c-.1-.02-.2-.02-.29,.04s-.14,.13-.17,.22h0Z"/>
      <path class="cls-20" d="M998.17,349.02c-3.42,.98-6.76,2.24-9.96,3.8-2.68,1.3-5.47,2.79-7.04,5.44-.25,.42,.4,.79,.65,.38,1.55-2.62,4.4-4.04,7.05-5.31,3.06-1.47,6.24-2.66,9.5-3.59,.46-.13,.27-.86-.2-.72h0Z"/>
      <path class="cls-20" d="M979.43,360.37c-.73,.97-1.82,1.65-3,1.92-.2,.05-.31,.27-.26,.46,.06,.2,.26,.31,.46,.26,1.38-.32,2.6-1.14,3.45-2.27,.12-.16,.03-.42-.13-.51-.19-.11-.39-.03-.51,.13h0Z"/>
      <path class="cls-20" d="M976.66,375.14c3.11,.13,6.18,.63,9.17,1.47,.47,.13,.66-.59,.2-.72-3.06-.86-6.2-1.36-9.37-1.5-.48-.02-.48,.73,0,.75h0Z"/>
      <path class="cls-20" d="M989.21,376.58c2.46-.44,5.01-.93,7.04-2.48,.9-.69,1.61-1.56,2.14-2.56,.29-.54,.52-1.11,.75-1.68,.19-.47,.47-.95,.22-1.44-.22-.43-.87-.05-.65,.38,.06,.12-.15,.49-.2,.62-.1,.27-.21,.54-.32,.8-.21,.48-.43,.95-.7,1.4-.55,.92-1.31,1.68-2.21,2.25-1.88,1.2-4.11,1.6-6.27,1.99-.47,.09-.27,.81,.2,.72h0Z"/>
      <path class="cls-20" d="M1006.29,380.41c-2.55,3.55-2.65,8.04-2.67,12.23,0,.48,.75,.48,.75,0,.02-4.07,.1-8.41,2.57-11.85,.28-.39-.37-.77-.65-.38h0Z"/>
      <path class="cls-20" d="M1002.99,395.48l-.92,1.2c-.05,.07-.06,.21-.04,.29,.02,.09,.09,.18,.17,.22,.09,.05,.19,.07,.29,.04s.16-.09,.22-.17l.92-1.2c.05-.07,.06-.21,.04-.29-.02-.09-.09-.18-.17-.22-.09-.05-.19-.07-.29-.04s-.16,.09-.22,.17h0Z"/>
      <path class="cls-20" d="M1015.97,384.46c2.85,6.39,2.75,13.87-.28,20.18-.21,.43,.44,.81,.65,.38,3.15-6.57,3.25-14.28,.28-20.93-.2-.44-.84-.06-.65,.38h0Z"/>
      <path class="cls-20" d="M1046.51,388.91c-3.07,4.38-5.22,9.95-2.92,15.17,.19,.44,.84,.06,.65-.38-2.18-4.95,.03-10.28,2.92-14.41,.28-.4-.37-.77-.65-.38h0Z"/>
      <path class="cls-20" d="M1045.07,405.98c.93,.78,1.97,1.39,3.09,1.85,.19,.08,.41-.08,.46-.26,.06-.21-.07-.38-.26-.46-.99-.4-1.93-.97-2.76-1.65-.16-.13-.38-.15-.53,0-.13,.13-.16,.4,0,.53h0Z"/>
      <path class="cls-20" d="M1031.58,388.34c1.27,2.37,1.76,5.12,1.36,7.78-.07,.47,.65,.68,.72,.2,.43-2.87-.06-5.8-1.43-8.36-.23-.43-.88-.05-.65,.38h0Z"/>
    </g>
    <g>
      <path class="cls-16" d="M656.42,547.18c1.21-.99,3.04-2.67,4.79-5.2,4.24-6.12,3.4-10.48,7.52-17.21,2.04-3.33,4.01-6.55,7.22-7.31,6.57-1.56,12.83,8.53,13.2,9.15,1.36-2.26,3.64-5.48,7.16-8.3,6.69-5.34,13.53-5.74,17.45-5.9,3.99-.17,10.38-.44,17.15,3.99,4.54,2.98,7.41,6.86,8.98,9.38,1.47,2.41,5.57,8.43,12.41,10.18,2.52,.64,7.15,1.83,10.07-1.54,2.72-3.13,2.16-8.1,2.04-9-1.2-3.19-2.84-8.74-2.56-15.66,.15-3.66,.28-6.88,2.04-9,3.12-3.77,10.37-2.92,17.89,1.98-.24-.92-1.53-6.29,1.09-10.93,2.7-4.76,7.56-5.28,9.01-5.44,7.09-.76,14.65,5.56,19.49,15.72,.35-3.15,1.32-8.2,4.36-13.08,7.18-11.54,19.57-12.01,21.35-12.04,1.66-3.68,5.08-9.67,11.16-12.47,10.44-4.81,24.75,1.59,33.95,16.89,.25-1.03,1.61-6.26,6.26-9.24,4.15-2.66,8.19-1.76,9.23-1.5,1.51-2.91,4.77-8.09,10.43-10.45,9.18-3.84,20.94,1.3,28.67,13.24,2.29,.79,7.75,3.07,11.52,9.24,5.01,8.19,4.98,19.86-.06,29.64,4.27-.39,11.99-.27,19.74,4.84,1.52,1,16.15,10.93,14.86,23.88-.41,4.11-2.29,7.21-3.73,9.1,.34,.32,4.54,4.18,9.45,2.44,4.22-1.5,7.15-6.5,6.94-12.24,2.92-9.33,10.31-15.28,17.81-14.81,9.53,.59,18.07,11.45,17.45,24.72,2.45-3.99,6.28-6.19,9.86-5.48,6.44,1.27,9.88,11.47,7.68,16.37-.59,1.31-2.07,3.32-10.75,4.55-5.24,.74-13.08,1.2-22.9-.71-2.5,.62-6.31,1.71-10.81,3.56-12.03,4.95-15.41,9.83-22.3,10.12-3.61,.15-8.92-.92-15.63-7.04-1.24,1.01-5.22,3.97-10.81,3.56-4.25-.31-7.3-2.41-8.66-3.47-1.11,2.55-3.7,7.51-8.74,10.36-7.5,4.25-17.3,2.05-24.86-5.54-6.19,3.19-15.76,6.83-27.58,6.46-29.92-.94-43.35-17.23-46.8-22.05-5.17-.74-13.31,0-17.48,7.82-1.97,3.69-20.73,24.56-54.07,2-1.49,2.88-4.2,7.17-8.74,10.36-9.31,6.54-19.54,3.69-24.42,2.34-20.39-5.67-36.48-20.29-36.48-20.29-15.68,15.35-43.63,6.35-45,1.08-.09-.34-14.73-3.17-20.91-10.7-1.54-1.87-6.47-7.88-4.93-12.57,1.53-4.65,8.92-6.51,14.19-3.75,2.89,1.51,4.57,4.12,5.39,5.63,1.45-1.98,3.69-2.88,5.8-2.3,2.53,.7,4.46,3.43,4.6,6.66Z"/>
      <path class="cls-20" d="M816.27,508.07c-.36-2.51,.18-5.11,1.48-7.28,.25-.42-.4-.79-.65-.38-1.41,2.36-1.95,5.14-1.56,7.86,.07,.48,.79,.27,.72-.2h0Z"/>
      <path class="cls-20" d="M822.96,492.64c5.66-7.58,15.32-11.77,24.72-10.95,10.18,.89,19.47,7.93,24.65,16.5,2.56,4.24,4.24,9.07,4.49,14.04,.25,5.14-.93,10.84-4.69,14.57-6.75,6.7-17.69,5.58-24.87,.31-4.45-3.27-7.83-7.86-10.3-12.76-2.74-5.44-4.74-12.93,.35-17.71,.35-.33-.18-.86-.53-.53-4.18,3.92-3.94,10.06-2.06,15.04s4.81,9.68,8.52,13.45c3.51,3.57,7.97,6.41,12.95,7.29,4.45,.79,9.24,.15,13.19-2.11,9.48-5.42,9.64-18.41,5.89-27.43-4.11-9.86-13.13-18.19-23.58-20.77s-22.77,1.78-29.39,10.66c-.29,.39,.36,.76,.65,.38h0Z"/>
      <path class="cls-20" d="M832.84,519.42c1.63,3.48,3.65,6.75,6.01,9.77,.3,.38,.82-.15,.53-.53-2.33-2.97-4.3-6.21-5.9-9.62-.2-.44-.85-.06-.65,.38h0Z"/>
      <path class="cls-20" d="M843.07,537.25c8.47,6.93,19.88,10.93,30.81,8.57,9.35-2.02,17.86-9.09,20.56-18.41,1.98-6.84,.31-13.99-1.32-20.72-.11-.47-.84-.27-.72,.2,1.46,6.04,3,12.39,1.74,18.6-.93,4.56-3.34,8.7-6.6,11.99-7.26,7.31-17.79,9.68-27.7,7.37-5.96-1.39-11.51-4.27-16.23-8.13-.37-.3-.9,.22-.53,.53h0Z"/>
      <path class="cls-20" d="M869.62,478.6c4.4,3.19,8,7.37,10.53,12.18,.22,.43,.87,.05,.65-.38-2.59-4.92-6.3-9.18-10.8-12.45-.39-.28-.77,.37-.38,.65h0Z"/>
      <path class="cls-20" d="M884.03,499.63c.99,3.29,1.41,6.7,1.27,10.13-.02,.48,.73,.48,.75,0,.15-3.49-.29-6.99-1.3-10.33-.14-.46-.86-.26-.72,.2h0Z"/>
      <path class="cls-20" d="M836.2,544.15c8.62,11.91,22.19,19.9,36.72,21.96,4.09,.58,8.23,.68,12.35,.29,.48-.05,.48-.8,0-.75-14.38,1.36-29.07-3.46-40.05-12.81-3.14-2.68-5.96-5.72-8.38-9.07-.28-.39-.93-.01-.65,.38h0Z"/>
      <path class="cls-20" d="M885.28,563.44c4.94,.87,10.03,.35,14.69-1.52,.44-.18,.25-.9-.2-.72-4.53,1.82-9.48,2.36-14.29,1.52-.47-.08-.67,.64-.2,.72h0Z"/>
      <path class="cls-20" d="M892.67,574.48c8.33-1.75,16.84-4.26,23.66-9.56,5.98-4.64,10.47-11.43,10.97-19.12,.03-.48-.72-.48-.75,0-.5,7.7-5.2,14.51-11.29,19-6.66,4.91-14.79,7.28-22.79,8.96-.47,.1-.27,.82,.2,.72h0Z"/>
      <path class="cls-20" d="M918.67,475.09c10.59-1.48,21.46,4.56,25.42,14.56,1.97,4.98,2.3,10.61,.8,15.76-1.61,5.54-5.35,10.11-9.35,14.13-4.58,4.59-9.82,8.61-15.94,10.89-.45,.17-.25,.89,.2,.72,5.65-2.1,10.58-5.64,14.92-9.77s8.56-8.9,10.55-14.67c3.59-10.42-.39-22.47-9.64-28.5-5.05-3.29-11.19-4.68-17.15-3.85-.48,.07-.27,.79,.2,.72h0Z"/>
      <path class="cls-20" d="M933.83,493.42c2.76,7.54,.31,16.2-5.14,21.92-5.72,6.01-14.12,8.71-22.26,8.86-.48,0-.48,.76,0,.75,6.64-.12,13.37-1.86,18.85-5.71s9.07-9.31,10.15-15.7c.59-3.47,.33-7.01-.88-10.32-.16-.45-.89-.26-.72,.2h0Z"/>
      <path class="cls-20" d="M900.62,520.36c6.85,1.4,14.13-.65,19.24-5.42,.35-.33-.18-.86-.53-.53-4.91,4.58-11.93,6.57-18.51,5.23-.47-.1-.67,.63-.2,.72h0Z"/>
      <path class="cls-20" d="M898.06,482.3c3.01-2,6.96-2.02,10.15-.4s5.4,4.51,6.73,7.71c1.45,3.47,1.94,7.53,.17,10.98-1.47,2.87-4.28,5.12-7.51,5.54-3.8,.5-7.68-1.49-9.44-4.89-.22-.43-.87-.05-.65,.38,1.62,3.14,4.9,5.13,8.41,5.33s6.76-1.61,8.82-4.36c4.83-6.45,1.3-16.54-5.02-20.68-3.58-2.34-8.42-2.67-12.04-.26-.4,.27-.03,.92,.38,.65h0Z"/>
      <path class="cls-20" d="M903.41,492.8c1.51,.38,2.98,1.23,3.7,2.66,.64,1.27,.47,2.97-.62,3.94-.36,.32,.17,.85,.53,.53,1.3-1.15,1.51-3.13,.83-4.67-.75-1.7-2.49-2.75-4.23-3.19-.47-.12-.67,.61-.2,.72h0Z"/>
      <path class="cls-20" d="M951.02,522.58c7.99-.99,16.84,2.91,21.49,9.54s2.65,17.25-2.93,22.87c-3.26,3.29-7.78,5.17-12.41,4.97-.48-.02-.48,.73,0,.75,8.68,.38,15.91-6.11,17.96-14.29,1.03-4.11,1.07-8.9-.84-12.77s-5.44-6.78-9.08-8.82c-4.31-2.42-9.27-3.6-14.19-2.98-.47,.06-.48,.81,0,.75h0Z"/>
      <path class="cls-20" d="M967.05,546.87c-1.1,4.59-4.4,8.29-8.48,10.55-4.78,2.64-10.37,3.25-15.74,3.11-.48-.01-.48,.74,0,.75,5.62,.14,11.49-.54,16.44-3.4,4.1-2.36,7.39-6.17,8.51-10.82,.11-.47-.61-.67-.72-.2h0Z"/>
      <path class="cls-20" d="M937.73,531.95c3.34,.32,6.8,1.28,9.37,3.53,2.36,2.07,3.88,5.26,3.31,8.42-.08,.47,.64,.67,.72,.2,.6-3.36-.87-6.76-3.35-9.02-2.74-2.49-6.44-3.54-10.05-3.88-.48-.05-.48,.7,0,.75h0Z"/>
      <path class="cls-20" d="M943.86,539.95c2.4,1.5,3.75,4.52,3.12,7.3s-3.05,4.89-5.84,5.28c-.48,.07-.27,.79,.2,.72,3.09-.44,5.8-2.91,6.4-5.99s-.86-6.32-3.5-7.97c-.41-.26-.79,.39-.38,.65h0Z"/>
      <path class="cls-20" d="M980,573.23c6.78,1.1,12.37-3.43,17.17-7.57,.37-.32-.17-.84-.53-.53-4.56,3.93-9.97,8.42-16.44,7.37-.47-.08-.68,.65-.2,.72h0Z"/>
      <path class="cls-20" d="M992.3,566.37c1.48-1.11,2.96-2.22,4.44-3.34,.16-.12,.25-.32,.13-.51-.09-.16-.35-.26-.51-.13-1.48,1.11-2.96,2.22-4.44,3.34-.16,.12-.25,.32-.13,.51,.09,.16,.35,.26,.51,.13h0Z"/>
      <path class="cls-20" d="M1006.89,536.97c4.88-5.26,12.7-1.32,16.27,3.41,3.88,5.14,4.37,12.09,1.39,17.79-.22,.43,.42,.81,.65,.38,3.22-6.16,2.57-13.67-1.82-19.1-3.91-4.84-12.01-8.41-17.02-3.01-.33,.35,.2,.88,.53,.53h0Z"/>
      <path class="cls-20" d="M1019.68,548.76c3.02,3.23,1.32,7.93-.47,11.3-.23,.43,.42,.81,.65,.38,1.1-2.06,2.09-4.26,2.22-6.62,.11-2.02-.46-4.08-1.86-5.58-.33-.35-.86,.18-.53,.53h0Z"/>
      <path class="cls-20" d="M775.39,523.85c1.92-4.24,4.01-8.67,7.79-11.58,4.03-3.1,9.1-3.15,13.82-1.83,.47,.13,.66-.59,.2-.72-4.73-1.33-9.88-1.34-14.01,1.61-4.14,2.96-6.4,7.63-8.45,12.14-.2,.44,.45,.82,.65,.38h0Z"/>
      <path class="cls-20" d="M802.23,513.72c8.06-1.1,15.44,5.12,18.96,11.86,3.27,6.26,3.95,13.78,1.51,20.44-.17,.45,.56,.65,.72,.2,4.03-10.99-.38-24.49-10.45-30.64-3.29-2.01-7.09-3.11-10.95-2.59-.48,.07-.27,.79,.2,.72h0Z"/>
      <path class="cls-20" d="M774.26,567.08c7.87,6.76,18.46,9.94,28.76,8.58,.47-.06,.48-.81,0-.75-10.09,1.33-20.49-1.72-28.23-8.36-.36-.31-.9,.22-.53,.53h0Z"/>
      <path class="cls-20" d="M797.11,569.41c5.72,1.04,12.17,1.46,17.2-2.01,.39-.27,.02-.92-.38-.65-4.85,3.35-11.09,2.94-16.62,1.93-.47-.09-.67,.64-.2,.72h0Z"/>
      <path class="cls-20" d="M785.65,532.76c4.08,.59,8.18,1.75,10.98,4.97,2.47,2.84,3.65,6.7,3.57,10.43-.05,2.18-.52,4.44-1.76,6.26s-3.3,3.07-5.36,3.89c-3.93,1.56-8.37,1.8-12.45,.66s-8.92-4.33-8.28-9.16c.06-.48-.69-.47-.75,0-.55,4.16,2.9,7.49,6.42,9.04,4.18,1.84,9.09,2.05,13.46,.8s8.11-3.88,9.13-8.55c.87-3.99,.12-8.43-2-11.92-2.8-4.61-7.64-6.4-12.76-7.15-.47-.07-.68,.65-.2,.72h0Z"/>
      <path class="cls-20" d="M779.14,532.35c4.21-3.58,10.14-4.59,15.42-3.14s9.79,5.23,12.84,9.79c.27,.4,.92,.02,.65-.38-3.22-4.82-7.95-8.78-13.65-10.23-5.45-1.38-11.47-.25-15.78,3.43-.37,.31,.16,.84,.53,.53h0Z"/>
      <path class="cls-20" d="M809.64,543.57c1.27,3.59,.95,7.6-.89,10.94-.23,.42,.41,.8,.65,.38,1.93-3.5,2.3-7.74,.97-11.52-.16-.45-.88-.26-.72,.2h0Z"/>
      <path class="cls-20" d="M776.22,542.43c2.18-2.35,5.69-3.28,8.73-2.21s5.14,4.01,5.35,7.15c.03,.48,.78,.48,.75,0-.24-3.43-2.48-6.57-5.7-7.8s-7.26-.25-9.66,2.33c-.33,.35,.2,.88,.53,.53h0Z"/>
      <path class="cls-20" d="M706.74,524.11c6.97-3.64,15.43-1.7,21.69,2.48,6.4,4.27,10.73,10.81,13.62,17.83,1.67,4.07,2.88,8.31,3.92,12.57,.11,.47,.84,.27,.72-.2-1.96-8.09-4.63-16.23-9.66-22.97-4.35-5.84-10.67-10.58-17.93-11.96-4.3-.82-8.83-.44-12.75,1.6-.43,.22-.05,.87,.38,.65h0Z"/>
      <path class="cls-20" d="M730.66,538.27c5.46,7.54,6.53,17.04,7.02,26.07,.03,.48,.78,.48,.75,0-.5-9.16-1.59-18.81-7.12-26.45-.28-.39-.93-.01-.65,.38h0Z"/>
      <path class="cls-20" d="M752.29,559.3c2.44,1.49,5.6,1.29,8.02-.13s4.12-3.98,5.05-6.64c.16-.46-.56-.65-.72-.2-.85,2.42-2.32,4.73-4.54,6.1s-5.16,1.62-7.43,.23c-.41-.25-.79,.4-.38,.65h0Z"/>
      <path class="cls-20" d="M761.5,562.99c2.51-1.15,4.41-3.46,5.08-6.13,.12-.47-.61-.67-.72-.2-.63,2.5-2.39,4.61-4.74,5.68-.44,.2-.06,.85,.38,.65h0Z"/>
      <path class="cls-20" d="M726.54,541.52c2.92,5.2,5.41,11.95,1.62,17.38-1.63,2.34-4.23,3.84-7.14,3.54-3.13-.33-5.8-2.44-7.79-4.75-.32-.37-.84,.17-.53,.53,2.13,2.46,4.99,4.64,8.32,4.97,2.91,.29,5.6-1.09,7.37-3.35,4.47-5.69,1.96-13.05-1.2-18.7-.24-.42-.88-.04-.65,.38h0Z"/>
      <path class="cls-20" d="M705.93,540.66c1.45,3.76,3.6,7.2,6.33,10.16,.33,.36,.86-.18,.53-.53-2.64-2.86-4.73-6.2-6.14-9.83-.17-.45-.9-.25-.72,.2h0Z"/>
      <path class="cls-20" d="M711.16,541.03c1.4,2.55,3.28,4.83,5.53,6.68,.37,.3,.9-.22,.53-.53-2.2-1.81-4.04-4.02-5.41-6.53-.23-.42-.88-.05-.65,.38h0Z"/>
      <path class="cls-20" d="M669.04,546.27c1-2.85,2.16-5.64,3.5-8.34,1.23-2.47,2.5-5.28,4.48-7.25,5.34-5.34,10.86,2.41,13.01,6.94,.21,.44,.85,.06,.65-.38-2.12-4.48-7.31-11.98-13.01-8.07-2.47,1.7-3.89,4.73-5.22,7.31-1.6,3.09-2.97,6.3-4.12,9.58-.16,.46,.56,.65,.72,.2h0Z"/>
      <path class="cls-20" d="M688.69,539.02c1.37,3.32,1.47,7.03,.26,10.42-.16,.46,.56,.65,.72,.2,1.25-3.49,1.16-7.39-.26-10.82-.18-.44-.91-.25-.72,.2h0Z"/>
      <path class="cls-20" d="M682.51,552.24c-2.41,.96-5.32,1.51-7.55-.17-2.39-1.8-1.63-4.7-1.05-7.21,1.05-4.56,3.61-10.23,9.12-10.15,.48,0,.48-.74,0-.75-6.3-.08-8.97,6.51-10.06,11.66-.55,2.62-.83,5.29,1.57,7.07s5.55,1.32,8.17,.27c.44-.18,.25-.9-.2-.72h0Z"/>
      <path class="cls-20" d="M684.1,540.16c.79,2.29,.55,4.84-.68,6.92-.25,.42,.4,.79,.65,.38,1.33-2.25,1.61-5.03,.76-7.5-.16-.45-.88-.26-.72,.2h0Z"/>
      <path class="cls-20" d="M646.3,549.79c.49-1.14,1.25-2.78,2.62-3.04,1.55-.29,2.6,1.45,2.89,2.73,.55,2.45-.83,5.31-3.22,6.18-.45,.16-.26,.89,.2,.72,2.27-.83,3.73-3.08,3.88-5.46,.07-1.19-.22-2.43-.9-3.42-.76-1.09-2.04-1.88-3.39-1.38s-2.17,2.01-2.72,3.28c-.19,.44,.46,.82,.65,.38h0Z"/>
    </g>
    <g class="cls-2">
      <path class="cls-29" d="M761.75,455.02c3.99-2.6,8.65-4,13.41-4.02,.48,0,.48-.75,0-.75-4.89,.02-9.69,1.45-13.79,4.12-.4,.26-.03,.91,.38,.65h0Z"/>
    </g>
    <g class="cls-2">
      <path class="cls-29" d="M787.48,450.87c7,1.49,13.91,5.84,17.09,12.44,1.51,3.13,1.94,6.72,.88,10.07-1.14,3.59-3.88,6.03-7.44,7.12-3.21,.98-6.72,1.18-10.06,1.1s-6.73-.58-9.88-1.76-6.34-3.19-8.34-6.02c-1.17-1.66-1.94-3.76-1.4-5.79,.48-1.79,1.85-3.29,3.4-4.26,7.39-4.64,15.68,.99,21.44,5.56,.37,.3,.91-.23,.53-.53-5.74-4.56-13.08-9.62-20.71-6.51-2.98,1.21-5.75,3.99-5.59,7.42,.18,3.68,3.15,6.69,6.04,8.62,6.2,4.14,14.44,4.66,21.62,3.58,3.58-.54,7.13-1.84,9.35-4.84,2.07-2.8,2.76-6.49,2.19-9.89-1.51-9-10.53-15.24-18.92-17.03-.47-.1-.67,.62-.2,.72h0Z"/>
    </g>
    <g class="cls-2">
      <path class="cls-29" d="M783.11,470.59c1.69,.92,3.25,2.04,4.65,3.36,.35,.33,.88-.2,.53-.53-1.44-1.36-3.06-2.53-4.8-3.48-.42-.23-.8,.42-.38,.65h0Z"/>
    </g>
    <g class="cls-2">
      <path class="cls-29" d="M668.55,458.09c9.99-1.43,19.34,5.43,21.1,15.33,.08,.47,.81,.27,.72-.2-.85-4.79-3.48-9.18-7.35-12.14-4.16-3.18-9.51-4.45-14.67-3.71-.48,.07-.27,.79,.2,.72h0Z"/>
    </g>
    <g class="cls-2">
      <path class="cls-29" d="M678.81,467.22c2.57,.86,4.43,3.42,4.47,6.13,0,.48,.76,.48,.75,0-.05-3.06-2.13-5.88-5.02-6.85-.46-.15-.66,.57-.2,.72h0Z"/>
    </g>
    <g class="cls-2">
      <path class="cls-29" d="M688.51,451.85c3.75,2.08,6.98,5.03,9.37,8.59,.27,.4,.92,.02,.65-.38-2.47-3.66-5.78-6.71-9.64-8.86-.42-.23-.8,.41-.38,.65h0Z"/>
    </g>
    <g class="cls-2">
      <path class="cls-29" d="M587.91,539.8c5.68-10.97,16.42-18.5,28.61-20.33,.48-.07,.27-.79-.2-.72-12.36,1.86-23.3,9.56-29.06,20.68-.22,.43,.43,.81,.65,.38h0Z"/>
    </g>
  </g>
</svg>