<?xml version="1.0" encoding="UTF-8"?>
<svg id="_Слой_2" data-name="Слой 2" xmlns="http://www.w3.org/2000/svg" xmlns:xlink="http://www.w3.org/1999/xlink" viewBox="0 0 669.85 913.97">
  <defs>
    <style>
      .cls-1 {
        fill: #393960;
        opacity: .22;
      }

      .cls-2 {
        fill: #353544;
      }

      .cls-3 {
        opacity: .47;
      }

      .cls-3, .cls-4 {
        fill: #ffeb62;
      }

      .cls-5 {
        stroke: #333;
        stroke-linecap: round;
        stroke-width: 7px;
      }

      .cls-5, .cls-6, .cls-7, .cls-8 {
        stroke-miterlimit: 10;
      }

      .cls-5, .cls-6, .cls-7, .cls-8, .cls-9 {
        fill: none;
      }

      .cls-10, .cls-11 {
        opacity: .44;
      }

      .cls-10, .cls-12 {
        fill: #111010;
      }

      .cls-13 {
        fill: #1b1d1f;
      }

      .cls-14 {
        fill: #222228;
      }

      .cls-15 {
        opacity: .48;
      }

      .cls-16 {
        fill: #3f3d56;
        opacity: .3;
      }

      .cls-11, .cls-17, .cls-18 {
        fill: #666;
      }

      .cls-6 {
        stroke: #2a2a35;
        stroke-width: 25px;
      }

      .cls-19 {
        fill: #2a2a35;
      }

      .cls-7 {
        stroke: #a39040;
        stroke-width: 14px;
      }

      .cls-8 {
        opacity: .29;
        stroke: #938337;
        stroke-width: 2px;
      }

      .cls-20 {
        clip-path: url(#clippath);
      }

      .cls-21 {
        fill: #ccc;
      }

      .cls-17 {
        opacity: .31;
      }

      .cls-22 {
        fill: #938337;
      }

      .cls-23 {
        fill: #9e9e9e;
      }

      .cls-24 {
        fill: #1e1e1e;
      }

      .cls-4 {
        opacity: .28;
      }
    </style>
    <clipPath id="clippath">
      <rect class="cls-9" width="669.85" height="913.97"/>
    </clipPath>
  </defs>
  <g id="_Слой_2-2" data-name=" Слой 2">
    <g class="cls-20">
      <rect class="cls-13" width="669.85" height="913.97"/>
      <ellipse class="cls-16" cx="506.61" cy="318.65" rx="140.72" ry="137.99"/>
      <ellipse class="cls-10" cx="484.02" cy="363.97" rx="17.13" ry="16.8"/>
      <ellipse class="cls-10" cx="468.09" cy="270.03" rx="11.2" ry="10.98"/>
      <ellipse class="cls-10" cx="551.11" cy="269.95" rx="39.84" ry="39.06"/>
      <path class="cls-14" d="M35.44,789.42c-1.09-4.8,2.68-9.15,3.3-9.86,4.89-5.64,12.39-5.01,13.21-4.93,.7-1.24,5.8-9.98,15.68-11.51,9.84-1.51,20.35,4.76,24.76,15.61,.69-1.1,5.41-8.33,14.86-9.86,8.92-1.44,15.4,3.28,16.51,4.11,2.02,1.63,4.86,1.55,6.6,0,2.02-1.8,2.16-5.24,0-7.4-5.25-1.95-9.11-6.34-9.9-11.51-1.04-6.78,3.35-13.88,10.73-16.44-3.04-6.39-1.07-13.16,3.3-15.61,3.86-2.17,8.38-.3,9.08,0-.25-2.95-.31-6.26,0-9.86,.96-11.2,5-19.93,8.25-25.48,2.74-8.42,7.24-12.74,9.9-14.79,12.68-9.79,34.6-7.62,53.65,6.57,4.05-.24,9.93,.13,15.68,3.29,11.23,6.17,17.34,20.43,15.68,36.16-.03,.86-.1,7.05,4.95,11.51,5.58,4.92,12.53,3.44,13.21,3.29,.85-.93,6.32-6.75,14.86-6.57,7.29,.15,14,4.63,17.33,11.51,2.04,.85,5.12,2.52,7.43,5.75,4.11,5.76,4.03,14.06,0,21.37,3.34-1.1,10.15-2.8,18.16-.82,15.75,3.9,22.3,18.63,23.11,20.54,1.65,2.74,3.3,5.48,4.95,8.22,1.67-.8,4.98-2.11,9.08-1.64,5.04,.57,12.27,3.92,12.38,9.04,.09,4.34-4.95,9.35-12.38,9.86-6.6,.27-13.21,.55-19.81,.82-3.79,1.86-9.4,4.2-16.51,5.75-7.43,1.62-13.92,3.04-21.46,.82-7.44-2.19-12.57-6.94-15.68-10.68-.25,2.24-.97,5.7-3.3,9.04-4.97,7.11-13.58,8.37-18.16,9.04-9.73,1.42-17.43-1.42-22.29-3.29-7.94-3.05-20.79,1.96-28.06,9.86-2.38,2.58-11.67,12.07-26.41,13.97-13.3,1.72-23.3-3.74-33.01-9.04-7.06-3.85-19-11.63-29.71-26.3-1.79-.62-5.77-1.74-10.73-.82-4.5,.84-7.6,2.95-9.08,4.11-2.73,1.14-9.72,3.6-18.16,1.64-13.87-3.21-19.87-15.6-20.63-17.26-2.87,1.06-8.28,2.61-14.86,1.64-2.18-.32-14.77-2.18-16.51-9.86Z"/>
      <path class="cls-14" d="M257.92,456.41c2.68-6.55,6.22-17.61,5.83-31.47-.31-10.95-.77-26.95-12.82-38.46-11.88-11.35-32.19-15.64-48.95-6.99-17.06,8.8-21.5,26.39-22.14,29.14-1.94-.34-11.83-1.84-20.98,4.66-11.02,7.84-11.61,20.66-11.65,22.14-1.13-2.45-5.64-11.47-16.32-16.32-8.84-4.01-16.88-2.89-19.81-2.33-.72-.65-9.99-8.76-20.98-5.83-10.3,2.75-17.76,14.02-16.32,26.81-5.44-6-13.75-8.3-20.98-5.83-8.67,2.97-14.28,12.29-12.82,22.14-.09,.54-2.3,12.49-12.82,16.32-5.75,2.09-10.93,.64-12.82,0-3.39,1.01-11.17,3.7-11.65,8.16-.64,5.91,11.85,11.84,19.81,13.99,17.74,4.78,34.29-3.53,41.96-8.16,.31,2.47,1.96,13.65,11.65,20.98,10.53,7.96,22.75,5.48,26.81,4.66,19.99-4.05,29.12-23.07,30.3-25.64,3.72,.81,10.49,1.78,18.65,0,8.51-1.85,14.44-5.81,17.48-8.16,5.36,3.64,16.27,9.98,31.47,11.65,11.57,1.27,21.04-.66,26.81-2.33,1.62,1.99,8.2,9.62,19.81,11.65,12.13,2.13,21.24-3.35,23.31-4.66,7.01,.54,18.18,.39,30.3-4.66,6.5-2.71,11.96-4.98,12.82-9.32,1.57-7.97-13.32-18.23-25.64-22.14-12.83-4.07-24.33-1.73-30.3,0Z"/>
      <path class="cls-5" d="M275.95,887.9l.53-176.87c-64.09-33.78-107.66-100.14-107.66-176.49,0-110.6,91.43-200.25,204.21-200.25,112.78,0,204.21,89.66,204.21,200.25,0,76.35-43.57,142.71-107.66,176.49l-.53,176.87"/>
      <path class="cls-8" d="M282.43,888.57l.77-190.05c-60.07-31.67-100.91-93.87-100.91-165.43,0-103.67,85.7-187.7,191.42-187.7,105.72,0,191.42,84.04,191.42,187.7,0,71.56-40.84,133.76-100.91,165.43l-2.65,190.05"/>
      <path class="cls-3" d="M547.88,732.32c-3.46-.11-7.65-.51-12.33-1.54-4.03-.89-7.53-2.06-10.46-3.24-4.48-11.3-5.82-31.15-5.6-36.33-.16,5.27-.77,11.67-2.35,18.81-1.51,6.81-3.53,12.63-5.52,17.37-2.69,1.03-5.83,2.02-9.36,2.81-4.68,1.03-8.87,1.43-12.33,1.54,3.1-.13,14.27,.59,21.82,2.97,1.95,4.68,3.91,10.39,5.39,17.05,1.58,7.14,2.19,13.54,2.35,18.81-.21-4.94,1-23.24,5-34.73,7.47-2.8,20.06-3.64,23.39-3.5Z"/>
      <path class="cls-17" d="M143.77,529.66c-1.42-.04-3.15-.21-5.08-.63-1.66-.37-3.1-.85-4.31-1.33-1.84-4.66-2.4-12.83-2.31-14.96-.07,2.17-.32,4.81-.97,7.75-.62,2.8-1.45,5.2-2.27,7.15-1.11,.42-2.4,.83-3.86,1.16-1.93,.43-3.66,.59-5.08,.63,1.28-.05,5.88,.24,8.99,1.22,.8,1.93,1.61,4.28,2.22,7.02,.65,2.94,.9,5.58,.97,7.75-.09-2.03,.41-9.57,2.06-14.31,3.08-1.15,8.26-1.5,9.63-1.44Z"/>
      <path class="cls-17" d="M323.23,705.2c-1.42-.04-3.15-.21-5.08-.63-1.66-.37-3.1-.85-4.31-1.33-1.84-4.66-2.4-12.83-2.31-14.96-.07,2.17-.32,4.81-.97,7.75-.62,2.8-1.45,5.2-2.27,7.15-1.11,.42-2.4,.83-3.86,1.16-1.93,.43-3.66,.59-5.08,.63,1.28-.05,5.88,.24,8.99,1.22,.8,1.93,1.61,4.28,2.22,7.02,.65,2.94,.9,5.58,.97,7.75-.09-2.03,.41-9.57,2.06-14.31,3.08-1.15,8.26-1.5,9.63-1.44Z"/>
      <path class="cls-11" d="M47,864.64c-1.74-.05-3.85-.25-6.21-.78-2.03-.45-3.79-1.04-5.27-1.63-2.25-5.69-2.93-15.68-2.82-18.29-.08,2.65-.39,5.88-1.18,9.47-.76,3.43-1.78,6.36-2.78,8.74-1.36,.52-2.93,1.02-4.71,1.41-2.35,.52-4.47,.72-6.21,.78,1.56-.07,7.18,.3,10.99,1.49,.98,2.36,1.97,5.23,2.71,8.58,.79,3.59,1.1,6.81,1.18,9.47-.11-2.49,.5-11.7,2.52-17.48,3.76-1.41,10.1-1.83,11.77-1.76Z"/>
      <path class="cls-11" d="M513.65,535.24c-2.55-.08-5.64-.37-9.09-1.14-2.97-.66-5.55-1.52-7.71-2.39-3.3-8.33-4.29-22.96-4.12-26.77-.12,3.88-.57,8.6-1.73,13.86-1.11,5.02-2.6,9.31-4.07,12.8-1.99,.76-4.29,1.49-6.9,2.07-3.45,.76-6.54,1.06-9.09,1.14,2.29-.1,10.52,.44,16.08,2.19,1.43,3.45,2.88,7.66,3.97,12.56,1.16,5.26,1.61,9.98,1.73,13.86-.15-3.64,.74-17.13,3.69-25.6,5.51-2.06,14.78-2.69,17.23-2.58Z"/>
      <path class="cls-11" d="M302.79,288.46c-1.74-.05-3.85-.25-6.21-.78-2.03-.45-3.79-1.04-5.27-1.63-2.25-5.69-2.93-15.68-2.82-18.29-.08,2.65-.39,5.88-1.18,9.47-.76,3.43-1.78,6.36-2.78,8.74-1.36,.52-2.93,1.02-4.71,1.41-2.35,.52-4.47,.72-6.21,.78,1.56-.07,7.18,.3,10.99,1.49,.98,2.36,1.97,5.23,2.71,8.58,.79,3.59,1.1,6.81,1.18,9.47-.11-2.49,.5-11.7,2.52-17.48,3.76-1.41,10.1-1.83,11.77-1.76Z"/>
      <path class="cls-4" d="M104.68,658.52c-1.74-.05-3.85-.25-6.21-.78-2.03-.45-3.79-1.04-5.27-1.63-2.25-5.69-2.93-15.68-2.82-18.29-.08,2.65-.39,5.88-1.18,9.47-.76,3.43-1.78,6.36-2.78,8.74-1.36,.52-2.93,1.02-4.71,1.41-2.35,.52-4.47,.72-6.21,.78,1.56-.07,7.18,.3,10.99,1.49,.98,2.36,1.97,5.23,2.71,8.58,.79,3.59,1.1,6.81,1.18,9.47-.11-2.49,.5-11.7,2.52-17.48,3.76-1.41,10.1-1.83,11.77-1.76Z"/>
      <path class="cls-11" d="M288.36,435.97c-1.2-.04-2.65-.18-4.27-.53-1.4-.31-2.61-.71-3.63-1.12-1.55-3.92-2.02-10.8-1.94-12.59-.06,1.83-.27,4.05-.81,6.52-.52,2.36-1.22,4.38-1.91,6.02-.93,.36-2.02,.7-3.24,.97-1.62,.36-3.08,.5-4.27,.53,1.08-.05,4.95,.21,7.56,1.03,.67,1.62,1.36,3.6,1.87,5.91,.55,2.47,.76,4.69,.81,6.52-.07-1.71,.35-8.06,1.73-12.04,2.59-.97,6.95-1.26,8.11-1.21Z"/>
      <path class="cls-11" d="M571.37,793.21c-1.2-.04-2.65-.18-4.27-.53-1.4-.31-2.61-.71-3.63-1.12-1.55-3.92-2.02-10.8-1.94-12.59-.06,1.83-.27,4.05-.81,6.52-.52,2.36-1.22,4.38-1.91,6.02-.93,.36-2.02,.7-3.24,.97-1.62,.36-3.08,.5-4.27,.53,1.08-.05,4.95,.21,7.56,1.03,.67,1.62,1.36,3.6,1.87,5.91,.55,2.47,.76,4.69,.81,6.52-.07-1.71,.35-8.06,1.73-12.04,2.59-.97,6.95-1.26,8.11-1.21Z"/>
      <path class="cls-11" d="M136.17,833.79c-1.2-.04-2.65-.18-4.27-.53-1.4-.31-2.61-.71-3.63-1.12-1.55-3.92-2.02-10.8-1.94-12.59-.06,1.83-.27,4.05-.81,6.52-.52,2.36-1.22,4.38-1.91,6.02-.93,.36-2.02,.7-3.24,.97-1.62,.36-3.08,.5-4.27,.53,1.08-.05,4.95,.21,7.56,1.03,.67,1.62,1.36,3.6,1.87,5.91,.55,2.47,.76,4.69,.81,6.52-.07-1.71,.35-8.06,1.73-12.04,2.59-.97,6.95-1.26,8.11-1.21Z"/>
      <path class="cls-11" d="M623.6,480.63c-1.2-.04-2.65-.18-4.27-.53-1.4-.31-2.61-.71-3.63-1.12-1.55-3.92-2.02-10.8-1.94-12.59-.06,1.83-.27,4.05-.81,6.52-.52,2.36-1.22,4.38-1.91,6.02-.93,.36-2.02,.7-3.24,.97-1.62,.36-3.08,.5-4.27,.53,1.08-.05,4.95,.21,7.56,1.03,.67,1.62,1.36,3.6,1.87,5.91,.55,2.47,.76,4.69,.81,6.52-.07-1.71,.35-8.06,1.73-12.04,2.59-.97,6.95-1.26,8.11-1.21Z"/>
      <path class="cls-11" d="M601.62,175.73c-1.2-.04-2.65-.18-4.27-.53-1.4-.31-2.61-.71-3.63-1.12-1.55-3.92-2.02-10.8-1.94-12.59-.06,1.83-.27,4.05-.81,6.52-.52,2.36-1.22,4.38-1.91,6.02-.93,.36-2.02,.7-3.24,.97-1.62,.36-3.08,.5-4.27,.53,1.08-.05,4.95,.21,7.56,1.03,.67,1.62,1.36,3.6,1.87,5.91,.55,2.47,.76,4.69,.81,6.52-.07-1.71,.35-8.06,1.73-12.04,2.59-.97,6.95-1.26,8.11-1.21Z"/>
      <circle class="cls-1" cx="591.57" cy="669.73" r="30"/>
      <circle class="cls-12" cx="93.09" cy="370.97" r="17.98"/>
      <circle class="cls-12" cx="411.83" cy="501.51" r="17.98"/>
      <circle class="cls-12" cx="565.13" cy="794.96" r="17.98"/>
      <circle class="cls-12" cx="104.83" cy="730.92" r="10.77"/>
      <g class="cls-15">
        <path class="cls-22" d="M177.16,777.3c-1.64-1.7-3.06-3.57-4.24-5.61-.58-1.01-1.12-2.06-1.57-3.14-.39-.94-1.04-2.21-.83-3.25,.45-2.15,3.64,1.25,4.22,1.89,1.63,1.82,3.06,3.82,4.38,5.87,1.57,2.43,2.99,4.96,4.41,7.48,.95,1.68,3.54,.17,2.59-1.51-1.49-2.65-2.99-5.31-4.65-7.86s-3.41-5.03-5.56-7.1c-1.99-1.91-5.52-3.9-7.62-.99-1.83,2.54-.09,5.96,1.11,8.39,1.44,2.93,3.37,5.61,5.63,7.95,1.34,1.39,3.46-.73,2.12-2.12h0Z"/>
        <path class="cls-22" d="M178.48,766.96c-1.13-2.68-2.17-5.92-2-8.87,.03-.44,0-.62,.38-.63,.48-.01,1.07,.62,1.38,.91,1.02,.96,1.91,2.03,2.69,3.19,3.39,5.08,4.5,11.19,5.58,17.09,.35,1.9,3.24,1.09,2.89-.8-1.34-7.32-2.92-15.04-8.14-20.69-1.09-1.18-2.39-2.42-4.04-2.68s-3.11,.71-3.55,2.31-.07,3.52,.2,5.14c.34,2.01,.93,3.96,1.72,5.83,.32,.75,.99,1.27,1.85,1.05,.71-.19,1.36-1.1,1.05-1.85h0Z"/>
        <path class="cls-22" d="M185.22,762.28c-.4-3.1-.84-6.61,.67-9.36,1.1-2.02,2.94-4.43,5.25-4.94,1.88-.42,1.09-3.31-.8-2.89-3.05,.68-5.48,3.55-6.95,6.14-1.93,3.41-1.66,7.3-1.18,11.05,.1,.8,.62,1.5,1.5,1.5,.73,0,1.6-.69,1.5-1.5h0Z"/>
        <path class="cls-22" d="M185.74,782.42c.08-.13,.16-.27,.24-.4,.04-.06,.09-.13,.13-.19,.07-.1,.22-.2-.04,.05,.21-.2,.38-.44,.6-.64,.1-.1,.21-.18,.31-.27,.25-.21-.28,.2-.01,0,.05-.04,.1-.07,.15-.11,.25-.18,.52-.33,.8-.47,.06-.03,.11-.05,.17-.08,.03-.01,.31-.14,.08-.04s.03,0,.08-.03c.07-.03,.15-.05,.22-.08,.28-.09,.56-.17,.85-.22,.08-.01,.15-.03,.23-.04,.19-.03-.35,.03-.08,.01,.15-.01,.31-.02,.46-.03,.31,0,.62,.01,.92,.05,.35,.04,.82-.2,1.06-.44,.26-.26,.46-.69,.44-1.06s-.14-.79-.44-1.06c-.31-.29-.64-.39-1.06-.44-3.04-.38-6.2,1.33-7.69,3.97-.39,.68-.19,1.67,.54,2.05s1.64,.19,2.05-.54h0Z"/>
        <path class="cls-22" d="M172.03,781.78c3.82-1.88,8.59-.86,11.85,1.69s4.99,6.8,5.95,10.9c.44,1.88,3.34,1.08,2.89-.8-1.17-4.98-3.28-9.75-7.52-12.84s-9.96-3.87-14.69-1.55c-1.73,.85-.21,3.44,1.51,2.59h0Z"/>
        <path class="cls-22" d="M169.96,782.11c6.5,6.49,11.42,14.43,14.32,23.15,.61,1.82,3.5,1.04,2.89-.8-3.06-9.21-8.23-17.61-15.09-24.47-1.37-1.37-3.49,.75-2.12,2.12h0Z"/>
        <path class="cls-22" d="M185.59,807.35c1.93,0,1.93-3,0-3s-1.93,3,0,3h0Z"/>
        <path class="cls-22" d="M185.26,804.67c-1.19-.06-2.22,.63-2.89,1.56s-.76,2.14-.57,3.26c.16,.92,.57,1.88,1.12,2.63,.7,.96,1.62,1.65,2.85,1.69,.79,.02,1.54-.71,1.5-1.5-.04-.83-.66-1.47-1.5-1.5-.29,0,.26,.07,.1,.02-.04-.01-.16-.07-.2-.06,.07-.02,.34,.17,.09,.03-.06-.03-.12-.09-.18-.11,.1,.04,.25,.21,.07,.04-.05-.05-.11-.1-.16-.16-.04-.04-.07-.1-.12-.13,.13,.18,.16,.22,.1,.13-.03-.04-.05-.07-.08-.11-.17-.25-.29-.51-.42-.77-.08-.16,.1,.27,0,0-.03-.09-.07-.17-.1-.26-.06-.17-.11-.35-.15-.53-.01-.07-.02-.22-.05-.27,.04,.07,.02,.29,.02,.08,0-.12-.06-.44,0-.54-.03,.2-.03,.24-.01,.13,0-.03,.01-.06,.02-.1,.02-.07,.04-.14,.06-.21,.07-.25-.12,.23-.03,.08,.04-.06,.07-.13,.11-.19,.03-.05,.18-.27,.04-.06s.02-.01,.05-.04c.04-.04,.09-.07,.13-.12-.18,.13-.23,.17-.13,.1,.03-.02,.07-.05,.11-.07,.05-.03,.11-.05,.15-.08-.23,.18-.24,.09-.08,.05,.26-.07-.03,.03-.11,0,.06,.02,.19,0,.25,0,.78,.04,1.54-.72,1.5-1.5-.04-.85-.66-1.46-1.5-1.5h0Z"/>
        <path class="cls-22" d="M185.09,813.76c2.72,0,5.44,.02,8.16,.02,.78,0,1.54-.69,1.5-1.5s-.66-1.5-1.5-1.5c-2.72,0-5.44-.02-8.16-.02-.78,0-1.54,.69-1.5,1.5s.66,1.5,1.5,1.5h0Z"/>
        <path class="cls-22" d="M205.86,779.42c2-2.07,3.75-4.42,5.12-6.96,.68-1.27,1.27-2.58,1.78-3.93,.54-1.43,.92-3.02,.34-4.5-.53-1.36-1.73-2.42-3.24-2.45s-2.9,.84-4.06,1.77c-2.29,1.84-4.08,4.42-5.72,6.83-1.94,2.85-3.63,5.85-5.32,8.85-.95,1.68,1.64,3.2,2.59,1.51,2.45-4.35,4.9-8.77,8.14-12.6,.74-.88,1.52-1.77,2.43-2.48,.46-.35,1.67-1.3,2.22-.69,.67,.76,.01,2.19-.28,2.96-.4,1.06-.88,2.09-1.41,3.09-1.26,2.38-2.84,4.54-4.71,6.47-1.34,1.39,.78,3.51,2.12,2.12h0Z"/>
        <path class="cls-22" d="M205.31,767.76c.79-1.88,1.38-3.82,1.72-5.83,.27-1.62,.66-3.52,.2-5.14s-1.93-2.56-3.55-2.31-2.95,1.5-4.04,2.68c-5.22,5.65-6.8,13.37-8.14,20.69-.35,1.89,2.54,2.7,2.89,.8,1.08-5.9,2.19-12.01,5.58-17.09,.74-1.11,1.59-2.13,2.56-3.06,.34-.33,.86-.9,1.37-1,.53-.1,.49,.04,.52,.59,.2,2.94-.87,6.21-2,8.87-.32,.75,.34,1.64,1.05,1.85,.86,.25,1.53-.31,1.85-1.05h0Z"/>
        <path class="cls-22" d="M198.68,762.28c.48-3.77,.74-7.63-1.17-11.05-1.36-2.43-3.55-5.36-6.36-6.14-1.86-.52-2.66,2.38-.8,2.89,.32,.09,.16,.02,.49,.19,.23,.12,.45,.26,.66,.41,.41,.3,.85,.74,1.23,1.13,.9,.96,1.67,2.05,2.29,3.21,1.49,2.76,1.07,6.26,.67,9.36-.1,.8,.76,1.5,1.5,1.5,.9,0,1.4-.69,1.5-1.5h0Z"/>
        <path class="cls-22" d="M197.75,780.91c-1.49-2.64-4.66-4.34-7.69-3.97-.41,.05-.75,.13-1.06,.44-.26,.26-.46,.69-.44,1.06,.03,.73,.67,1.6,1.5,1.5,.31-.04,.61-.06,.92-.05,.14,0,.28,.01,.42,.02,.25,.02,.03,.03-.08-.02,.07,.03,.16,.02,.23,.04,.29,.05,.57,.12,.85,.22,.11,.03,.33,.17,.44,.16-.09,0-.3-.13-.06-.02,.07,.03,.14,.07,.21,.1,.26,.13,.52,.28,.76,.45,.06,.04,.13,.09,.19,.13,.22,.16-.19-.16-.05-.04,.1,.09,.21,.18,.31,.27,.23,.21,.41,.47,.63,.67-.05-.04-.18-.25-.07-.08,.04,.06,.09,.13,.13,.19,.1,.14,.18,.29,.27,.43,.39,.68,1.38,.97,2.05,.54s.95-1.32,.54-2.05h0Z"/>
        <path class="cls-22" d="M211.46,779.19c-4.72-2.32-10.49-1.52-14.7,1.55s-5.78,7.91-6.93,12.83c-.44,1.88,2.46,2.68,2.89,.8,.93-4,2-8.24,5.38-10.9s8.04-3.56,11.84-1.68c1.73,.85,3.25-1.74,1.51-2.59h0Z"/>
        <path class="cls-22" d="M209.89,779.99c-6.87,6.86-12.03,15.26-15.09,24.47-.61,1.84,2.29,2.62,2.89,.8,2.9-8.72,7.82-16.65,14.32-23.15,1.37-1.37-.75-3.49-2.12-2.12h0Z"/>
        <path class="cls-22" d="M197.03,804.62c-3.83,0-7.68-.26-11.5,0-.81,.06-1.5,.65-1.5,1.5,0,.77,.69,1.56,1.5,1.5,3.82-.26,7.68,0,11.5,0,1.93,0,1.93-3,0-3h0Z"/>
        <path class="cls-22" d="M196.71,807.67c.07,0,.14,0,.21,0,.17,0-.35-.1-.11,0,.06,.02,.3,.11,.06,0s0,.01,.05,.04c.05,.03,.26,.18,.06,.03s.01,.02,.04,.05c.04,.04,.07,.1,.12,.13-.13-.18-.17-.22-.1-.13,.03,.04,.05,.07,.07,.11,.03,.05,.06,.1,.09,.15,.15,.25-.07-.24-.03-.08,.02,.07,.05,.14,.07,.21,.01,.05,.09,.33,.03,.1s0,.06,0,.12c0,.09,0,.18,0,.27,0,.04,0,.07,0,.11-.01,.12,0,.07,.02-.13,.01,.08-.04,.2-.05,.27-.04,.16-.08,.32-.13,.48-.03,.09-.06,.17-.09,.26-.12,.31-.03,0,0,0-.02,0-.4,.75-.45,.82-.03,.05-.19,.27-.04,.07s-.03,.03-.06,.05c-.04,.04-.08,.09-.12,.13-.13,.12-.24,.12,.04-.01-.07,.03-.43,.23-.19,.13s0-.02-.06,0c-.26,.09,.36-.02,.06-.01-.78,.02-1.54,.67-1.5,1.5s.66,1.53,1.5,1.5c1.23-.04,2.15-.73,2.85-1.69,.24-.33,.43-.69,.6-1.07,.22-.51,.43-1.02,.52-1.57,.19-1.11,.12-2.31-.57-3.26s-1.7-1.62-2.89-1.56c-.78,.04-1.54,.66-1.5,1.5,.03,.78,.66,1.54,1.5,1.5h0Z"/>
        <path class="cls-22" d="M196.88,810.76c-2.72,0-5.44,.02-8.16,.02-.78,0-1.54,.69-1.5,1.5s.66,1.5,1.5,1.5c2.72,0,5.44-.02,8.16-.02,.78,0,1.54-.69,1.5-1.5s-.66-1.5-1.5-1.5h0Z"/>
        <path class="cls-22" d="M187.4,804.93c-.03-.51-.04-1.02,0-1.54,0-.13,.02-.27,.03-.4,0-.06,.03-.25,0-.08,.03-.24,.08-.48,.13-.72,.11-.5,.24-1,.41-1.48,.19-.54,.25-.69,.52-1.21,.89-1.75,2.13-3.14,3.71-4.14,.68-.43,.96-1.34,.54-2.05s-1.36-.97-2.05-.54c-4.06,2.57-6.59,7.33-6.28,12.15,.05,.81,.65,1.5,1.5,1.5,.77,0,1.55-.69,1.5-1.5h0Z"/>
        <path class="cls-22" d="M190.25,795.1c3.04,2.55,4.21,6.39,4.4,10.27,.04,.81,.66,1.5,1.5,1.5,.78,0,1.54-.69,1.5-1.5-.23-4.58-1.64-9.35-5.28-12.39-.62-.52-1.51-.61-2.12,0-.53,.53-.62,1.6,0,2.12h0Z"/>
      </g>
      <g>
        <path class="cls-22" d="M356.57,642.49c-2.51,1.19-5.07,2.27-7.68,3.22-2.51,.91-5.09,1.82-7.72,2.35-2.41,.49-4.97,.43-7.06-.99-.82-.56-1.54-1.3-2.07-2.14-.27-.43-.49-.87-.65-1.35-.09-.28-.17-.57-.22-.86-.03-.12-.04-.24-.05-.36,.04-.36-.05-.35-.27,.02l-.8,.11,.09,.03-.62-.48,.17-.9,1.27-.16-.08-.03c-1.22-.54-2.28,1.26-1.05,1.8l.08,.03c.41,.18,.94,.21,1.27-.16,.66-.73,.36-2.02-.7-2.16-1.41-.18-1.51,1.48-1.37,2.44,.33,2.3,1.73,4.31,3.56,5.69,4.65,3.5,10.81,1.23,15.7-.47,3.16-1.1,6.25-2.38,9.27-3.82,1.21-.58,.15-2.38-1.05-1.8h0Z"/>
        <path class="cls-22" d="M347.85,634.78c-3.14,1.01-6.27,2.03-9.41,3.04-2.95,.95-5.97,2.19-9.06,2.58-2.75,.35-5.37-.3-7.43-2.19-1.88-1.72-3.09-4.01-3.56-6.51-.25-1.32-2.26-.76-2.01,.56,1.07,5.64,5.77,10.45,11.72,10.32,3.42-.07,6.72-1.4,9.94-2.44,3.46-1.12,6.92-2.24,10.38-3.35,1.27-.41,.73-2.43-.56-2.01h0Z"/>
        <path class="cls-22" d="M332.82,626.18c-5.09,1.98-10.37,4.05-15.92,3.97-4.18-.06-8.32-1.58-11.46-4.36-1.87-1.65-3.34-3.7-4.23-6.04-.47-1.24-2.5-.7-2.01,.56,1.69,4.43,5.09,7.98,9.37,10,4.78,2.25,10,2.31,15.09,1.14,3.34-.77,6.54-2.01,9.72-3.26,1.24-.48,.7-2.5-.56-2.01h0Z"/>
        <path class="cls-22" d="M305.84,627.4c-9.87-1.88-19.36,1.52-28.9,3.58-4.76,1.03-9.69,1.7-14.55,1.02-3.54-.49-6.95-1.78-9.95-3.73-3.56-2.31-6.47-5.63-8.09-9.57-.5-1.23-2.53-.69-2.01,.56,2.97,7.23,9.52,12.43,17.06,14.29,9.68,2.38,19.38-.99,28.76-3.12,5.61-1.27,11.41-2.1,17.12-1.02,1.31,.25,1.88-1.76,.56-2.01h0Z"/>
        <path class="cls-22" d="M321.98,639.09c-8.1-3-16.27,.39-23.87,3.24-7.28,2.73-15.57,4.85-22.52,.08-3.26-2.24-5.76-5.61-7.19-9.28-.48-1.24-2.5-.7-2.01,.56,2.73,7.01,8.66,12.62,16.3,13.57,8.65,1.07,16.45-3.59,24.46-5.95,4.7-1.38,9.59-1.93,14.27-.2,1.26,.47,1.81-1.55,.56-2.01h0Z"/>
        <path class="cls-22" d="M334.76,648.7c-8.33,.64-16.21,3.41-23.99,6.25-1.95,.71-3.89,1.42-5.84,2.1s-3.95,1.42-6,1.75c-3.67,.6-6.75-.91-9.22-3.53-2.65-2.82-4.46-6.35-6.16-9.79l-1.43,1.43c.41,.24,.82,.47,1.23,.71,1.16,.68,2.22-1.13,1.05-1.8-.41-.24-.82-.47-1.23-.71-.95-.55-1.88,.52-1.43,1.43,2.87,5.82,6.87,13.56,14.1,14.42,4.2,.5,8.47-1.46,12.34-2.85,4.09-1.47,8.16-3.02,12.32-4.32,4.65-1.46,9.4-2.62,14.27-2.99,1.33-.1,1.34-2.19,0-2.09h0Z"/>
        <path class="cls-22" d="M364.27,651.92c-9.01,1.14-17.31,4.82-25.57,8.41-4.14,1.8-8.3,3.56-12.59,4.95-4.38,1.41-9.17,2.75-13.81,2.19-4.56-.55-8.8-3.43-10.47-7.8-.47-1.24-2.49-.7-2.01,.56,1.5,3.94,4.65,6.95,8.58,8.44,4.59,1.74,9.67,.95,14.29-.22,9.14-2.32,17.52-6.76,26.26-10.19,4.94-1.93,10.04-3.57,15.32-4.24,1.32-.17,1.33-2.26,0-2.09h0Z"/>
        <path class="cls-22" d="M307.32,666.15c-10.16-1.73-19.85,1.85-29.35,4.98-8.46,2.79-17.42,5.09-26.22,2.44-4.47-1.35-8.45-3.89-11.49-7.46-.87-1.03-2.34,.46-1.48,1.48,5.37,6.32,13.59,9.39,21.77,9.29,10.06-.13,19.3-4.58,28.84-7.21,5.64-1.55,11.54-2.49,17.36-1.5,1.32,.22,1.88-1.79,.56-2.01h0Z"/>
        <path class="cls-22" d="M291.25,657.79c-11.9-4.2-24.32-.64-35.77,3.26-10.75,3.66-22.35,7.78-33.81,5.07-6.37-1.5-11.92-5.12-16.21-10.02-.89-1.01-2.36,.47-1.48,1.48,3.8,4.33,8.58,7.74,14.03,9.65,5.46,1.92,11.36,2.18,17.07,1.45,12.08-1.55,23.05-7.2,34.91-9.66,6.9-1.43,14-1.58,20.71,.79,1.27,.45,1.82-1.57,.56-2.01h0Z"/>
        <path class="cls-22" d="M273.56,642.13c-17.68-4.45-34.94,2.44-51.6,7.64-8.33,2.6-16.89,4.82-25.67,4.85-6.5,.02-13.03-1.32-18.92-4.09-7.03-3.3-12.99-8.52-16.88-15.27-.67-1.16-2.48-.11-1.8,1.05,6.96,12.08,20.11,19.2,33.81,20.26,17.5,1.35,33.79-6.77,50.31-11.09,9.86-2.58,20.2-3.87,30.21-1.35,1.3,.33,1.86-1.69,.56-2.01h0Z"/>
        <path class="cls-22" d="M250.13,626.61c-18.55,2.6-37.09,5.2-55.64,7.81-7.83,1.1-15.74,2.26-23.66,1.68-7.99-.59-15.52-3.3-21.67-8.51-3.44-2.92-6.47-6.34-9.15-9.96s-5.04-7.66-6.13-12.13c-.32-1.31-2.33-.75-2.01,.56,.99,4.05,2.94,7.78,5.3,11.19s4.97,6.54,7.88,9.4c2.95,2.91,6.27,5.49,9.98,7.37,3.57,1.81,7.41,3.01,11.36,3.65,8.01,1.29,16.13,.48,24.12-.6,9.36-1.27,18.71-2.62,28.06-3.93,10.7-1.5,21.41-3,32.11-4.51,1.33-.19,.76-2.2-.56-2.01h0Z"/>
        <path class="cls-22" d="M370.07,656.12c-9.19-13.53-22.1-24.69-37.37-30.77-8.6-3.43-17.69-4.45-26.77-5.88-4.35-.68-8.95-1.35-13.06-3-3.19-1.28-6.14-3.28-8.8-5.44-6.56-5.32-12.47-12.21-15.94-19.97-.55-1.22-2.35-.16-1.8,1.05,3.09,6.9,8.14,13.08,13.69,18.16,2.71,2.48,5.65,4.77,8.87,6.57,3.41,1.9,7.1,2.87,10.91,3.65,9.36,1.91,19,2.39,28.14,5.35,7.51,2.43,14.55,6.22,20.88,10.92,7.59,5.62,14.15,12.61,19.45,20.42,.75,1.11,2.56,.06,1.8-1.05h0Z"/>
        <path class="cls-22" d="M292.73,617.05c-14.27-2.38-28.7-1.3-43.03-.1s-28.98,2.02-43.52,2.09c-14.19,.08-28.66,.04-42.62-2.81-12.22-2.49-24.07-7.38-33.75-15.37-2.35-1.94-4.68-4.03-6.62-6.38-1.67-2.01-3-4.31-4.09-6.69-1.53-3.31-2.63-6.9-3.2-10.51-.02-.1-.03-.2-.04-.3,0-.02,.09,.18,0,.02-.06-.1,.04-.53-.05,.04,.22-1.32-1.8-1.88-2.01-.56-.14,.86,.17,1.86,.34,2.69,.37,1.82,.86,3.61,1.46,5.37,1.71,5.03,4.26,9.66,8.02,13.46,8.8,8.9,20.1,15,32.07,18.45,13.87,4,28.43,4.51,42.77,4.66s29.59-.35,44.34-1.51c14.6-1.14,29.28-2.84,43.92-1.29,1.83,.19,3.66,.45,5.48,.75,1.32,.22,1.88-1.79,.56-2.01h0Z"/>
        <path class="cls-22" d="M114.37,578.05c6,2.79,12.47,4.52,18.92,5.89,8.16,1.74,16.45,2.87,24.74,3.77,19.73,2.15,39.6,2.95,59.42,3.55,19.25,.59,38.5,.84,57.74,1.59,7.71,.3,15.42,.67,23.1,1.36,5.38,.49,10.85,1.04,16.09,2.42,3.82,1.01,7.45,2.73,10.89,4.64,5.68,3.16,10.9,7.09,15.72,11.43,10.23,9.21,18.86,20.27,25.68,32.21,1.63,2.86,3.16,5.78,4.56,8.76,.57,1.22,2.38,.16,1.8-1.05-5.84-12.38-13.71-23.88-23.01-33.91-8.71-9.4-19.04-17.94-31.04-22.73-4.72-1.88-9.8-2.63-14.82-3.24-7.04-.86-14.12-1.29-21.2-1.64-18.86-.93-37.74-1.17-56.61-1.68-20.11-.54-40.25-1.21-60.3-3.01-8.8-.79-17.58-1.8-26.28-3.34-6.92-1.23-13.86-2.75-20.46-5.21-1.32-.49-2.63-1.03-3.91-1.62-1.21-.56-2.27,1.24-1.05,1.8h0Z"/>
        <path class="cls-22" d="M114.37,569.69c6,2.79,12.47,4.52,18.92,5.89,8.16,1.74,16.45,2.87,24.74,3.77,19.73,2.15,39.6,2.95,59.42,3.55s38.5,.84,57.74,1.59c7.71,.3,15.42,.67,23.1,1.36,5.38,.49,10.85,1.04,16.09,2.42,3.82,1.01,7.45,2.73,10.89,4.64,5.68,3.16,10.9,7.09,15.72,11.43,10.23,9.21,18.86,20.27,25.68,32.21,1.63,2.86,3.16,5.78,4.56,8.76,.57,1.22,2.38,.16,1.8-1.05-5.84-12.38-13.71-23.88-23.01-33.91-8.71-9.4-19.04-17.94-31.04-22.73-4.72-1.88-9.8-2.63-14.82-3.24-7.04-.86-14.12-1.29-21.2-1.64-18.86-.93-37.74-1.17-56.61-1.68-20.11-.54-40.25-1.21-60.3-3.01-8.8-.79-17.58-1.8-26.28-3.34-6.92-1.23-13.86-2.75-20.46-5.21-1.32-.49-2.63-1.03-3.91-1.62-1.21-.56-2.27,1.24-1.05,1.8h0Z"/>
      </g>
      <g>
        <path class="cls-22" d="M348.74,647.83c2.51,1.19,5.07,2.27,7.68,3.22s5.09,1.82,7.72,2.35c2.41,.49,4.97,.43,7.06-.99,.82-.56,1.54-1.3,2.07-2.14,.27-.43,.49-.87,.65-1.35,.09-.28,.17-.57,.22-.86,.03-.12,.04-.24,.05-.36-.04-.36,.05-.35,.27,.02l.8,.11-.09,.03,.62-.48-.17-.9-1.27-.16,.08-.03c1.22-.54,2.28,1.26,1.05,1.8l-.08,.03c-.41,.18-.94,.21-1.27-.16-.66-.73-.36-2.02,.7-2.16,1.41-.18,1.51,1.48,1.37,2.44-.33,2.3-1.73,4.31-3.56,5.69-4.65,3.5-10.81,1.23-15.7-.47-3.16-1.1-6.25-2.38-9.27-3.82-1.21-.58-.15-2.38,1.05-1.8h0Z"/>
        <path class="cls-22" d="M357.46,640.12c3.14,1.01,6.27,2.03,9.41,3.04,2.95,.95,5.97,2.19,9.06,2.58,2.75,.35,5.37-.3,7.43-2.19,1.88-1.72,3.09-4.01,3.56-6.51,.25-1.32,2.26-.76,2.01,.56-1.07,5.64-5.77,10.45-11.72,10.32-3.42-.07-6.72-1.4-9.94-2.44-3.46-1.12-6.92-2.24-10.38-3.35-1.27-.41-.73-2.43,.56-2.01h0Z"/>
        <path class="cls-22" d="M372.5,631.52c5.09,1.98,10.37,4.05,15.92,3.97,4.18-.06,8.32-1.58,11.46-4.36,1.87-1.65,3.34-3.7,4.23-6.04,.47-1.24,2.5-.7,2.01,.56-1.69,4.43-5.09,7.98-9.37,10-4.78,2.25-10,2.31-15.09,1.14-3.34-.77-6.54-2.01-9.72-3.26-1.24-.48-.7-2.5,.56-2.01h0Z"/>
        <path class="cls-22" d="M399.47,632.74c9.87-1.88,19.36,1.52,28.9,3.58,4.76,1.03,9.69,1.7,14.55,1.02,3.54-.49,6.95-1.78,9.95-3.73,3.56-2.31,6.47-5.63,8.09-9.57,.5-1.23,2.53-.69,2.01,.56-2.97,7.23-9.52,12.43-17.06,14.29-9.68,2.38-19.38-.99-28.76-3.12-5.61-1.27-11.41-2.1-17.12-1.02-1.31,.25-1.88-1.76-.56-2.01h0Z"/>
        <path class="cls-22" d="M383.34,644.43c8.1-3,16.27,.39,23.87,3.24,7.28,2.73,15.57,4.85,22.52,.08,3.26-2.24,5.76-5.61,7.19-9.28,.48-1.24,2.5-.7,2.01,.56-2.73,7.01-8.66,12.62-16.3,13.57-8.65,1.07-16.45-3.59-24.46-5.95-4.7-1.38-9.59-1.93-14.27-.2-1.26,.47-1.81-1.55-.56-2.01h0Z"/>
        <path class="cls-22" d="M370.56,654.04c8.33,.64,16.21,3.41,23.99,6.25,1.95,.71,3.89,1.42,5.84,2.1s3.95,1.42,6,1.75c3.67,.6,6.75-.91,9.22-3.53,2.65-2.82,4.46-6.35,6.16-9.79l1.43,1.43c-.41,.24-.82,.47-1.23,.71-1.16,.68-2.22-1.13-1.05-1.8,.41-.24,.82-.47,1.23-.71,.95-.55,1.88,.52,1.43,1.43-2.87,5.82-6.87,13.56-14.1,14.42-4.2,.5-8.47-1.46-12.34-2.85-4.09-1.47-8.16-3.02-12.32-4.32-4.65-1.46-9.4-2.62-14.27-2.99-1.33-.1-1.34-2.19,0-2.09h0Z"/>
        <path class="cls-22" d="M341.04,657.26c9.01,1.14,17.31,4.82,25.57,8.41,4.14,1.8,8.3,3.56,12.59,4.95,4.38,1.41,9.17,2.75,13.81,2.19,4.56-.55,8.8-3.43,10.47-7.8,.47-1.24,2.49-.7,2.01,.56-1.5,3.94-4.65,6.95-8.58,8.44-4.59,1.74-9.67,.95-14.29-.22-9.14-2.32-17.52-6.76-26.26-10.19-4.94-1.93-10.04-3.57-15.32-4.24-1.32-.17-1.33-2.26,0-2.09h0Z"/>
        <path class="cls-22" d="M398,671.49c10.16-1.73,19.85,1.85,29.35,4.98,8.46,2.79,17.42,5.09,26.22,2.44,4.47-1.35,8.45-3.89,11.49-7.46,.87-1.03,2.34,.46,1.48,1.48-5.37,6.32-13.59,9.39-21.77,9.29-10.06-.13-19.3-4.58-28.84-7.21-5.64-1.55-11.54-2.49-17.36-1.5-1.32,.22-1.88-1.79-.56-2.01h0Z"/>
        <path class="cls-22" d="M414.06,663.13c11.9-4.2,24.32-.64,35.77,3.26,10.75,3.66,22.35,7.78,33.81,5.07,6.37-1.5,11.92-5.12,16.21-10.02,.89-1.01,2.36,.47,1.48,1.48-3.8,4.33-8.58,7.74-14.03,9.65-5.46,1.92-11.36,2.18-17.07,1.45-12.08-1.55-23.05-7.2-34.91-9.66-6.9-1.43-14-1.58-20.71,.79-1.27,.45-1.82-1.57-.56-2.01h0Z"/>
        <path class="cls-22" d="M431.75,647.47c17.68-4.45,34.94,2.44,51.6,7.64,8.33,2.6,16.89,4.82,25.67,4.85,6.5,.02,13.03-1.32,18.92-4.09,7.03-3.3,12.99-8.52,16.88-15.27,.67-1.16,2.48-.11,1.8,1.05-6.96,12.08-20.11,19.2-33.81,20.26-17.5,1.35-33.79-6.77-50.31-11.09-9.86-2.58-20.2-3.87-30.21-1.35-1.3,.33-1.86-1.69-.56-2.01h0Z"/>
        <path class="cls-22" d="M455.18,631.95c18.55,2.6,37.09,5.2,55.64,7.81,7.83,1.1,15.74,2.26,23.66,1.68s15.52-3.3,21.67-8.51c3.44-2.92,6.47-6.34,9.15-9.96,2.72-3.67,5.04-7.66,6.13-12.13,.32-1.31,2.33-.75,2.01,.56-.99,4.05-2.94,7.78-5.3,11.19-2.33,3.35-4.97,6.54-7.88,9.4-2.95,2.91-6.27,5.49-9.98,7.37-3.57,1.81-7.41,3.01-11.36,3.65-8.01,1.29-16.13,.48-24.12-.6-9.36-1.27-18.71-2.62-28.06-3.93-10.7-1.5-21.41-3-32.11-4.51-1.33-.19-.76-2.2,.56-2.01h0Z"/>
        <path class="cls-22" d="M335.24,661.46c9.19-13.53,22.1-24.69,37.37-30.77,8.6-3.43,17.69-4.45,26.77-5.88,4.35-.68,8.95-1.35,13.06-3,3.19-1.28,6.14-3.28,8.8-5.44,6.56-5.32,12.47-12.21,15.94-19.97,.55-1.22,2.35-.16,1.8,1.05-3.09,6.9-8.14,13.08-13.69,18.16-2.71,2.48-5.65,4.77-8.87,6.57-3.41,1.9-7.1,2.87-10.91,3.65-9.36,1.91-19,2.39-28.14,5.35-7.51,2.43-14.55,6.22-20.88,10.92-7.59,5.62-14.15,12.61-19.45,20.42-.75,1.11-2.56,.06-1.8-1.05h0Z"/>
        <path class="cls-22" d="M412.59,622.39c14.27-2.38,28.7-1.3,43.03-.1s28.98,2.02,43.52,2.09c14.19,.08,28.66,.04,42.62-2.81,12.22-2.49,24.07-7.38,33.75-15.37,2.35-1.94,4.68-4.03,6.62-6.38,1.67-2.01,3-4.31,4.09-6.69,1.53-3.31,2.63-6.9,3.2-10.51,.02-.1,.03-.2,.04-.3,0-.02-.09,.18,0,.02,.06-.1-.04-.53,.05,.04-.22-1.32,1.8-1.88,2.01-.56,.14,.86-.17,1.86-.34,2.69-.37,1.82-.86,3.61-1.46,5.37-1.71,5.03-4.26,9.66-8.02,13.46-8.8,8.9-20.1,15-32.07,18.45-13.87,4-28.43,4.51-42.77,4.66-14.79,.15-29.59-.35-44.34-1.51-14.6-1.14-29.28-2.84-43.92-1.29-1.83,.19-3.66,.45-5.48,.75-1.32,.22-1.88-1.79-.56-2.01h0Z"/>
        <path class="cls-22" d="M590.94,583.39c-6,2.79-12.47,4.52-18.92,5.89-8.16,1.74-16.45,2.87-24.74,3.77-19.73,2.15-39.6,2.95-59.42,3.55-19.25,.59-38.5,.84-57.74,1.59-7.71,.3-15.42,.67-23.1,1.36-5.38,.49-10.85,1.04-16.09,2.42-3.82,1.01-7.45,2.73-10.89,4.64-5.68,3.16-10.9,7.09-15.72,11.43-10.23,9.21-18.86,20.27-25.68,32.21-1.63,2.86-3.16,5.78-4.56,8.76-.57,1.22-2.38,.16-1.8-1.05,5.84-12.38,13.71-23.88,23.01-33.91,8.71-9.4,19.04-17.94,31.04-22.73,4.72-1.88,9.8-2.63,14.82-3.24,7.04-.86,14.12-1.29,21.2-1.64,18.86-.93,37.74-1.17,56.61-1.68,20.11-.54,40.25-1.21,60.3-3.01,8.8-.79,17.58-1.8,26.28-3.34,6.92-1.23,13.86-2.75,20.46-5.21,1.32-.49,2.63-1.03,3.91-1.62,1.21-.56,2.27,1.24,1.05,1.8h0Z"/>
        <path class="cls-22" d="M590.94,575.03c-6,2.79-12.47,4.52-18.92,5.89-8.16,1.74-16.45,2.87-24.74,3.77-19.73,2.15-39.6,2.95-59.42,3.55-19.25,.59-38.5,.84-57.74,1.59-7.71,.3-15.42,.67-23.1,1.36-5.38,.49-10.85,1.04-16.09,2.42-3.82,1.01-7.45,2.73-10.89,4.64-5.68,3.16-10.9,7.09-15.72,11.43-10.23,9.21-18.86,20.27-25.68,32.21-1.63,2.86-3.16,5.78-4.56,8.76-.57,1.22-2.38,.16-1.8-1.05,5.84-12.38,13.71-23.88,23.01-33.91,8.71-9.4,19.04-17.94,31.04-22.73,4.72-1.88,9.8-2.63,14.82-3.24,7.04-.86,14.12-1.29,21.2-1.64,18.86-.93,37.74-1.17,56.61-1.68,20.11-.54,40.25-1.21,60.3-3.01,8.8-.79,17.58-1.8,26.28-3.34,6.92-1.23,13.86-2.75,20.46-5.21,1.32-.49,2.63-1.03,3.91-1.62,1.21-.56,2.27,1.24,1.05,1.8h0Z"/>
      </g>
      <path class="cls-12" d="M362.67,800.49l-.23,1.88c-.02,.2,.19,.38,.38,.38,.22,0,.35-.17,.38-.38l.23-1.88c.02-.2-.19-.38-.38-.38-.22,0-.35,.17-.38,.38h0Z"/>
      <g>
        <path class="cls-19" d="M292.76,714.35c2.63,3.85,5.3,8.9,6.86,15.13,5.68,22.65-8.05,42.05-10.85,45.83-1.53-1.44-14.24-13.83-12.38-32.74,1.71-17.36,14.4-26.81,16.36-28.23Z"/>
        <path class="cls-6" d="M273.14,749.71c0-21.11,10.56-39.75,26.69-50.93"/>
        <path class="cls-23" d="M309.2,524.72c1.24,1.28,2.8,2.86,4.59,4.66,0,0,3.7,3.71,7.16,7.09,7.66,7.47,15.25,14.52,22.73,21.17,2.51,2.66,5.18,5.79,7.84,9.41,3.27,4.45,5.83,8.72,7.84,12.54,1.59,5.15,3.16,10.38,4.7,15.68,1.07,3.68,2.12,7.34,3.14,10.98,.62,1.32,1.63,3.28,3.14,5.49,.95,1.4,1.7,2.31,2.35,3.14,1.37,1.73,3.29,4.31,5.49,7.84-.43-15.27-.95-30.69-1.57-46.25-.47-11.85-1-23.61-1.57-35.28-.35-3.85-1.37-9.91-4.7-16.46-2.21-4.35-6.83-13.44-17.25-18.03-9.1-4.01-17.55-2.34-21.17-1.57-12.68,2.69-20.22,11.05-22.73,14.11-.55,1.03-1.24,2.63-1.57,4.7-.31,1.94-.18,3.58,0,4.7,.52-1.31,1.05-2.61,1.57-3.92Z"/>
        <path class="cls-2" d="M418.16,708.95c-2.42-6.06-3.81-7.99-10.19-22.73-1.63-3.77-3.08-7.21-4.7-11.76-1.82-5.1-3.08-9.44-3.92-12.54-1.19-4.88-2.92-10.47-5.49-16.46-1.76-4.1-3.64-7.76-5.49-10.98-2.78-3.62-5.66-7.28-8.62-10.98-2.36-2.94-4.71-5.81-7.06-8.62-21.17,8.1-42.33,16.2-63.5,24.3-1.31,1.05-2.61,2.09-3.92,3.14-3.45,1.07-11.69,4.17-14.89,11.76-.3,.72-.57,1.5-.78,2.35-.35,2.27-.61,5.54,0,9.41,.52,3.28,1.49,5.93,2.35,7.84-.57,8.51-.72,18.27,0,29.01,.73,10.85,2.2,20.58,3.92,29.01,.31,2.33,.45,5.28,0,8.62-.19,1.43-.47,2.74-.78,3.92-.71,3.59-1.49,7.25-2.35,10.98-1.91,8.27-4.03,16.11-6.27,23.52,2.24,4.04,9.98,16.77,25.87,22.73,3.14,1.18,20.35,7.64,35.28-.78,2.41-1.36,4.25-2.82,5.49-3.92,.26,16.72,.52,33.45,.78,50.17,19.45-3.63,30.98-12.02,36.84-17.25,18.46-16.44,23.44-39.39,29.01-65.07,2.99-13.81,4.18-25.53,4.7-33.71-1.74-9.51-4.25-16.88-6.27-21.95Zm-55.92-29.04c1.56-4.02,3.66-7.86,6.45-11.35,6.04,9.49,11.3,19.65,15.12,30.23-7.79-5.4-15.03-11.77-21.58-18.87Z"/>
        <path class="cls-21" d="M309.2,524.72c-.86,1.54-1.95,3.96-2.35,7.06-.38,2.94,.01,5.11,.78,8.62,1.39,6.32,2.39,10.79,3.14,14.11,.16,.71,.09,1.49,0,2.35-.06,.61-.2,1.42-.78,3.14-.34,1.01-.85,2.36-1.57,3.92-.22,.08-1.79,.69-2.35,2.35-.36,1.07-.11,2.01,0,2.35,.5,.46,1.28,1.08,2.35,1.57,1.26,.58,2.4,.74,3.14,.78v2.35c-.52,.52-1.05,1.05-1.57,1.57,0,0,.69,1.32,.78,1.57,.5,1.26,1.63,2.02,3.92,1.57-.28,.5-.65,1.3-.78,2.35,0,0,0,.01,0,.02-.1,.83,.58,1.55,1.42,1.55h.94c.31-.07,.88-.15,1.57,0,.79,.17,1.32,.57,1.57,.78l2.35,2.35c.76,.33,1.83,.68,3.14,.78,.58,.05,1.1,.04,1.57,0,2.35-1.31,4.7-2.61,7.06-3.92,1.12,3.38,2.19,7.05,3.14,10.98,1.64,6.82,2.6,13.15,3.14,18.81-3.32-.56-6.71-1.09-10.19-1.57-8.18-1.12-16.04-1.88-23.52-2.35-9.11-1.77-16.27-3.88-21.17-5.49-3.31-1.09-8-2.83-17.25-6.27-5.29-1.97-9.63-3.6-12.54-4.7,1.5-2.85,3.73-7.19,6.27-12.54,6.27-13.21,8.29-19.68,12.54-29.01,2.74-6,6.99-14.46,13.33-24.3-4.44-1.83-8.88-3.66-13.33-5.49-3.68,4.16-7.35,8.6-10.98,13.33-17.39,22.7-28.63,45.68-36.06,65.85,2.59,1.77,6.35,4.26,10.98,7.06,10.85,6.57,28.48,16.06,51.74,23.52,5.98,1.92,13.95,4.22,23.52,6.27-1.31,1.05-2.61,2.09-3.92,3.14,3.54-.35,7.2-.86,10.98-1.57,22.21-4.18,39.82-13.71,52.52-22.73-1.02-1.33-2.09-2.9-3.14-4.7-.96-1.67-1.73-3.26-2.35-4.7-.98-3.6-2.03-7.26-3.14-10.98-1.53-5.11-3.1-10.08-4.7-14.89-2.09-3.85-5.64-9.83-10.98-16.46-5.47-6.8-9.64-10.34-21.17-21.17-4.1-3.85-10.35-9.77-18.03-17.25Z"/>
        <circle class="cls-7" cx="292.34" cy="655.25" r="43.51"/>
        <path class="cls-6" d="M353.29,803.58c-5.76,1.77-11.88,2.72-18.22,2.72-34.2,0-61.93-27.73-61.93-61.93"/>
        <path class="cls-21" d="M355.45,673.67c-1.83-2.09-3.66-4.18-5.49-6.27-.57-1.93-1.33-4.04-2.35-6.27-1.94-4.25-4.23-7.64-6.27-10.19-1.09-1.95-1.44-3.58-1.57-4.7-.24-2.14,.23-3.61-.78-5.49-.29-.54-.85-1.58-1.57-1.57-1.18,.03-2.08,2.92-2.35,4.7-.19,1.24-.32,3.47,.78,6.27,.26,1.05,.52,2.09,.78,3.14-1.83-1.57-3.66-3.14-5.49-4.7-.4-.35-1.81-1.51-3.92-1.57-1.5-.04-2.62,.5-3.14,.78v5.49c-.79,1.24-1.64,2.81-2.35,4.7-1.15,3.08-1.49,5.84-1.57,7.84-.13,.72-.24,1.82,0,3.14,.18,.99,.5,1.79,.78,2.35,1.31,1.57,1.83,3.14,3.14,4.7l1.57-2.35c.95,.79,2,1.58,3.14,2.35,4.19,2.84,8.32,4.49,11.76,5.49,2.95,3.34,6.08,6.74,9.41,10.19,2.64,2.74,5.26,5.35,7.84,7.84,.06-4.73-.15-9.99-.78-15.68-.41-3.63-.95-7.03-1.57-10.19Z"/>
        <path class="cls-19" d="M344.47,686.21c-.22,19.78-.22,39.9,0,60.36,.16,14.28,3.92,100.34,9.41,100.34,1.81,0,4.21-11.57,7.06-58.79,1.57-14.11-1.16-74.19-3.14-88.58-4.44-4.44-8.88-8.88-13.33-13.33Z"/>
        <g>
          <path class="cls-21" d="M286.64,526.29c3-2.25,6.08-4.66,9.21-7.23,3.5-2.88,6.79-5.74,9.86-8.55,.31-.65,.64-1.31,.99-1.97,.65-1.26,1.31-2.47,1.97-3.62,.89-1.49,1.88-3.03,2.96-4.6,.55-.79,1.1-1.56,1.64-2.3,.63-1.41,1.29-2.83,1.97-4.27,1.3-2.73,2.62-5.36,3.95-7.89,.09-.71,.06-1.37-.33-1.64-1.06-.75-4.18,1.9-5.59,3.29-1.64,1.62-2.8,3.35-3.62,4.93,.48-2.66,1.02-5.41,1.64-8.22,.42-1.91,.86-3.77,1.32-5.59-.53-.46-1.01-.61-1.32-.66-1.4-.24-3,.8-3.95,2.63-.54-.13-1.24-.2-1.97,0-1.68,.46-2.94,2.14-3.29,4.27-.77,2.63-1.53,5.26-2.3,7.89v-4.27c-.41-.28-.74-.34-.99-.33-1.27,.05-2.49,2.02-2.96,4.93-.22,1.53-.44,3.07-.66,4.6-.58,1.42-1.13,2.95-1.64,4.6-.24,.78-.46,1.55-.66,2.3-4.57,1.57-8.09,3.45-10.52,4.93-5.07,3.1-6.41,5.1-6.9,5.92-1.59,2.62-1.92,5.26-1.97,6.9,4.38,1.32,8.77,2.63,13.15,3.95Z"/>
          <path class="cls-12" d="M310.68,496.38c-.02,.37-.1,.77-.25,1.16-.11,.3-.36,.74-.56,.99-.13,.16-.15,.38,0,.53,.13,.13,.4,.16,.53,0,.61-.77,.98-1.7,1.03-2.68,.01-.2-.18-.38-.38-.38-.21,0-.36,.16-.38,.38h0Z"/>
          <path class="cls-12" d="M309.46,498.86c-2.08,2.12-4.16,4.23-6.37,6.21s-4.36,3.58-6.02,5.93c-.28,.39,.37,.77,.65,.38,1.66-2.35,3.96-4.02,6.07-5.93s4.17-4,6.19-6.06c.34-.34-.19-.88-.53-.53h0Z"/>
          <path class="cls-12" d="M297.12,510.88c-.46,.64-.82,1.34-1.09,2.09-.07,.18,.08,.42,.26,.46,.21,.05,.39-.06,.46-.26,.03-.09,.07-.18,.1-.27,0-.02,.02-.04,.03-.07-.01,.03-.01,.03,0,0,.02-.04,.04-.09,.06-.13,.07-.16,.15-.33,.24-.48,.17-.33,.37-.64,.59-.95,.11-.16,.03-.42-.13-.51-.19-.1-.39-.04-.51,.13h0Z"/>
          <path class="cls-12" d="M311.31,496.09c-1.72-2.12-5.04-1.06-7.05-.01-2.86,1.5-5.23,3.89-7.63,6.01-.36,.32,.17,.85,.53,.53,2.14-1.88,4.22-3.95,6.67-5.43,1.81-1.1,5.25-2.65,6.95-.56,.3,.37,.83-.16,.53-.53h0Z"/>
          <path class="cls-12" d="M295.2,502.99c-1,.39-1.98,.84-2.93,1.34-.18,.09-.23,.34-.13,.51,.11,.18,.33,.23,.51,.13,.89-.47,1.81-.9,2.75-1.26,.19-.07,.32-.25,.26-.46-.05-.18-.27-.34-.46-.26h0Z"/>
          <path class="cls-12" d="M310.06,491.14c-.89,1.24-1.71,2.52-2.46,3.85-.24,.42,.41,.8,.65,.38,.75-1.33,1.57-2.61,2.46-3.85,.12-.16,.03-.42-.13-.51-.19-.11-.39-.03-.51,.13h0Z"/>
          <path class="cls-12" d="M307.45,479.94c-2.71,4.36-3.09,9.6-4.55,14.42-.14,.46,.58,.66,.72,.2,1.44-4.76,1.8-9.94,4.47-14.24,.26-.41-.39-.79-.65-.38h0Z"/>
          <path class="cls-12" d="M302.87,494.33c-.59,1.31-1.12,2.64-1.61,3.99-.07,.19,.08,.41,.26,.46,.21,.06,.39-.07,.46-.26,.46-1.29,.97-2.56,1.53-3.81,.08-.18,.05-.4-.13-.51-.16-.09-.43-.05-.51,.13h0Z"/>
          <path class="cls-12" d="M299.65,492.17c-1.37,3.13-2.35,6.41-2.91,9.79-.08,.47,.64,.68,.72,.2,.55-3.31,1.5-6.54,2.84-9.61,.19-.44-.45-.82-.65-.38h0Z"/>
        </g>
        <path class="cls-24" d="M312,555.94c1.03-.72,2.48-1.56,4.35-2.17,3.03-1,5.68-.91,7.25-.72,1.21-1.21,2.42-2.42,3.62-3.62-1.69,.48-3.38,.97-5.07,1.45-.78-.16-3.18-.53-5.8,.72-2.8,1.34-4.02,3.66-4.35,4.35Z"/>
        <path class="cls-24" d="M310.63,544.21c.55-.33,1.35-.76,2.34-1.17,1.02-.42,2.59-1.04,4.68-1.17,1.85-.11,3.46,.2,4.68,.59-1.31-.97-3.55-2.27-6.44-2.34-1.12-.03-4.37-.12-5.27,1.76-.4,.83-.2,1.76,0,2.34Z"/>
        <path class="cls-19" d="M318.6,575.68c-1.31-.34-2.89-.65-4.7-.78-1.46-.11-2.78-.09-3.92,0v.21c0,1.08,.57,2.12,1.54,2.61,.24,.12,.52,.23,.82,.31,1.06,.29,1.95,.11,2.35,0,1.31-.78,2.61-1.57,3.92-2.35Z"/>
        <path class="cls-12" d="M349.98,667.61c6.04,6.68,12.1,13.37,18.74,19.46,6.82,6.25,14.36,11.35,22.08,16.39,4.71,3.07,9.41,6.15,14.12,9.22,.41,.26,.78-.38,.38-.65-8.08-5.27-16.3-10.38-24.2-15.92-7.4-5.18-14.01-11.34-20.26-17.85-3.52-3.66-6.92-7.43-10.33-11.19-.32-.36-.85,.17-.53,.53h0Z"/>
        <path class="cls-12" d="M397.19,707.39c4.54,2.02,8.88,4.46,12.96,7.3,.4,.28,.77-.37,.38-.65-4.08-2.84-8.42-5.28-12.96-7.3-.44-.19-.82,.45-.38,.65h0Z"/>
        <path class="cls-12" d="M366.43,688.17c.11,1.69,.21,3.39,.32,5.08,.03,.48,.78,.48,.75,0-.11-1.69-.21-3.39-.32-5.08-.03-.48-.78-.48-.75,0h0Z"/>
        <path class="cls-12" d="M366.67,698.92c1.59,17.05,2.79,34.14,3.16,51.27,.39,17.81-.12,35.65-1.81,53.39-1.01,10.69-2.45,21.33-4.3,31.91-.08,.47,.64,.67,.72,.2,3.18-18.23,5.13-36.66,5.88-55.14,.71-17.53,.37-35.08-.66-52.59-.57-9.69-1.35-19.37-2.25-29.04-.04-.48-.79-.48-.75,0h0Z"/>
        <path class="cls-12" d="M304.99,645.29c2.57,.2,5.15,.06,7.69-.38,.47-.08,.27-.81-.2-.72-2.47,.44-4.99,.55-7.49,.36-.48-.04-.48,.71,0,.75h0Z"/>
        <path class="cls-12" d="M318.6,645.3c.92-.13,1.84-.27,2.75-.4,.2-.03,.31-.28,.26-.46-.06-.22-.26-.29-.46-.26-.92,.13-1.84,.27-2.75,.4-.2,.03-.31,.28-.26,.46,.06,.22,.26,.29,.46,.26h0Z"/>
        <path class="cls-12" d="M340.8,640.41c12.81-3.2,24.79-9.23,35.01-17.59,.37-.31-.16-.83-.53-.53-10.12,8.27-22,14.22-34.68,17.39-.47,.12-.27,.84,.2,.72h0Z"/>
        <path class="cls-12" d="M363.05,661.72c2.52,2.77,4.87,5.69,7.02,8.75,.28,.39,.93,.02,.65-.38-2.19-3.12-4.57-6.09-7.14-8.9-.33-.36-.86,.17-.53,.53h0Z"/>
        <path class="cls-12" d="M362.42,663.99c1.28,.42,2.52,.96,3.71,1.6,.43,.23,.8-.42,.38-.65-1.24-.67-2.55-1.23-3.89-1.67-.46-.15-.66,.57-.2,.72h0Z"/>
        <path class="cls-12" d="M371.57,639.75c2.87-3.41,7.06-5.56,11.5-5.89,.48-.03,.48-.79,0-.75-4.64,.34-9.03,2.55-12.03,6.11-.31,.37,.22,.9,.53,.53h0Z"/>
        <path class="cls-12" d="M381.63,635.7c.43-.17,.83-.22,1.3-.16-.03,0-.02,0,.03,0,.03,0,.06,0,.08,.02,.06,.01,.11,.02,.17,.04,.11,.03,.22,.06,.33,.1,.16,.06,.38,.19,.55,.31s.42,.03,.51-.13c.11-.19,.03-.39-.13-.51-.86-.62-2.05-.77-3.04-.39-.19,.07-.32,.25-.26,.46,.05,.18,.27,.34,.46,.26h0Z"/>
        <path class="cls-12" d="M336.56,578.55c3.67-2.55,6.88-5.7,9.5-9.32,.28-.39-.37-.77-.65-.38-2.54,3.51-5.68,6.58-9.24,9.05-.39,.27-.02,.92,.38,.65h0Z"/>
        <path class="cls-12" d="M345.98,564.34c.08,.86,.03,1.71-.15,2.55-.04,.2,.06,.41,.26,.46,.19,.05,.42-.06,.46-.26,.2-.9,.27-1.83,.18-2.75-.02-.2-.16-.38-.38-.38-.19,0-.39,.17-.38,.38h0Z"/>
        <path class="cls-12" d="M311.6,520.98c1.2,.56,2.38,1.19,3.52,1.87,.42,.25,.79-.4,.38-.65-1.14-.68-2.31-1.31-3.52-1.87-.18-.09-.4-.05-.51,.13-.1,.16-.05,.43,.13,.51h0Z"/>
        <path class="cls-12" d="M318.14,525.4c13.64,8.8,23.53,21.99,31.99,35.61,2.57,4.13,5.03,8.33,7.49,12.52,.24,.42,.89,.04,.65-.38-8.44-14.37-17.06-29.01-29.44-40.4-3.21-2.95-6.65-5.64-10.31-8-.41-.26-.78,.39-.38,.65h0Z"/>
        <path class="cls-12" d="M316.47,516.19c11.26,6.39,20.88,15.43,27.94,26.27,.26,.4,.91,.03,.65-.38-7.14-10.95-16.84-20.09-28.21-26.54-.42-.24-.8,.41-.38,.65h0Z"/>
        <path class="cls-12" d="M350.69,552.1c6.74,15.48,12.42,31.43,16.95,47.7,1.29,4.62,2.48,9.27,3.59,13.94,.11,.47,.83,.27,.72-.2-3.92-16.54-8.98-32.81-15.17-48.64-1.73-4.43-3.55-8.82-5.45-13.18-.19-.44-.84-.06-.65,.38h0Z"/>
        <path class="cls-12" d="M346.66,514.45c1.47,1.5,2.88,3.07,4.22,4.68,.31,.37,.84-.16,.53-.53-1.34-1.62-2.75-3.18-4.22-4.68-.34-.35-.87,.18-.53,.53h0Z"/>
        <path class="cls-12" d="M354.28,525.02c4.46,10.88,7.98,22.13,10.47,33.62,2.58,11.92,4.11,24.07,5.95,36.11,1.05,6.88,2.1,13.76,3.15,20.64,.07,.48,.8,.27,.72-.2-1.86-12.21-3.73-24.41-5.59-36.62-1.81-11.83-3.92-23.54-7.35-35.03-1.9-6.35-4.12-12.6-6.64-18.73-.18-.44-.91-.25-.72,.2h0Z"/>
        <path class="cls-12" d="M310.21,569.42l2.08,.24c.2,.02,.38-.19,.38-.38,0-.22-.17-.35-.38-.38l-2.08-.24c-.2-.02-.38,.19-.38,.38,0,.22,.17,.35,.38,.38h0Z"/>
      </g>
      <path class="cls-18" d="M243.01,859.97c.66-3.84,3.61-6.72,7.12-6.99,3.38-.26,6.58,1.94,7.83,5.44,.14-2.36,.72-6.99,3.56-11.65,4.6-7.55,11.73-9.63,13.53-10.1,.91-1.6,3.93-6.47,9.26-7.77,7.04-1.72,15.4,3.47,19.23,13.21,.68,.38,4.34,2.37,8.55,.78,3.67-1.39,6.38-4.97,7.12-9.32-.88-4.19-1.79-10.39-1.42-17.87,.35-7.23,.68-13.89,4.27-19.42,7.04-10.82,22.04-10.22,24.22-10.1,1.41-1.07,6.2-4.44,12.82-3.88,8.58,.72,13.47,7.44,14.25,8.54-.67-2.71-1.97-9.53,.71-17.09,4.66-13.11,17.18-16.73,18.52-17.09,2.3-3.97,6.32-9.65,12.82-13.98,15.3-10.2,38.82-9.24,49.15,4.66,3.26,4.38,4.48,9.07,4.99,11.65,1.6,.95,6.45,4.14,9.26,10.87,.75,1.81,2.89,7.53,1.42,14.76,1.6,.02,10.88,.3,17.81,8.54,8.4,9.99,5.94,22.89,5.7,24.08-.16,.56-2.87,10.84,3.56,18.64,4.92,5.97,11.66,6.2,12.82,6.21,2.79-2.18,8.17-5.73,15.67-6.99,10.67-1.79,19,2.2,22.08,3.88,.54-.43,6.01-4.7,12.82-2.33,6.88,2.39,9.06,9.43,9.26,10.1,5.84-.11,12.29,.09,19.23,.78,8.45,.84,16.09,2.26,22.79,3.88,.97,1.75,2.01,4.34,1.42,6.99-1.65,7.49-14.82,9.05-17.09,9.32-3.18,.38-8.18,.47-14.25-1.55-2.32,3.24-4.77,5.77-7.12,7.77-19.46,16.5-46.79,8.17-52.71,6.21-1.68,9-5.22,13.75-7.83,16.31-12.85,12.57-40.44,8.4-66.95-13.21-.63,.96-7.42,10.96-19.23,10.87-8.61-.06-16.57-5.47-20.66-13.98-4.12,1.71-8.89,3.16-14.25,3.88-23.84,3.24-42.82-10.01-49.86-15.54-1.63-.76-8.04-3.47-15.67-.78-8.28,2.92-12.05,10.09-12.82,11.65-4.31,6.1-8.89,9.94-12.82,12.43-30.17,19.07-70.69-10.94-72.65-12.43-2.03,6.67-7.3,11.52-13.53,12.43-6.94,1.01-13.86-3.04-17.09-10.1-.19,.2-3.87,3.79-8.55,2.33-3.47-1.08-6.03-4.47-6.41-8.54,.94-1.88,2.88-5.13,6.41-7.77,5.35-4,10.88-3.99,12.82-3.88,9.2-21.02,24.31-29.62,32.05-25.63,7.61,3.92,7.83,19.87,7.83,21.75Z"/>
      <path class="cls-12" d="M326.32,826.47c-1.43-7.91-.72-16.66,3.99-23.42,4.22-6.06,11.81-10.04,19.25-8.65,.47,.09,.67-.63,.2-.72-5.8-1.09-11.67,.91-16.14,4.66-5,4.2-7.68,10.38-8.47,16.77-.47,3.85-.25,7.75,.44,11.57,.09,.47,.81,.27,.72-.2h0Z"/>
      <path class="cls-12" d="M349.98,797.18c1.34,0,2.65,.41,3.76,1.16,.4,.27,.78-.38,.38-.65-1.22-.82-2.67-1.26-4.14-1.26-.48,0-.48,.75,0,.75h0Z"/>
      <path class="cls-12" d="M352.13,800.9c8.86,1.86,15,9.38,19.13,16.96,4.7,8.61,7.54,18.69,5.53,28.5-1.06,5.18-3.4,10.05-7.07,13.88-.33,.35,.2,.88,.53,.53,6.69-6.98,8.91-17.04,7.55-26.43-.76-5.26-2.56-10.33-4.95-15.07-2.12-4.21-4.7-8.25-7.97-11.67-3.42-3.58-7.65-6.38-12.54-7.41-.47-.1-.67,.62-.2,.72h0Z"/>
      <path class="cls-12" d="M319.84,856.89c6.66-2.97,14.44-2.96,21.1,.02,.44,.2,.82-.45,.38-.65-6.93-3.1-14.92-3.11-21.85-.02-.44,.2-.06,.84,.38,.65h0Z"/>
      <path class="cls-12" d="M350.95,862.16c7.9,6.02,16.42,12.23,26.78,12.4,.48,0,.48-.74,0-.75-10.21-.16-18.62-6.36-26.4-12.29-.38-.29-.76,.36-.38,.65h0Z"/>
      <path class="cls-12" d="M363.02,858.57c-7.01-.09-13.84-2.85-19.01-7.57-5.43-4.96-8.61-11.9-8.96-19.23-.18-3.64,.31-7.31,1.49-10.76s3.07-7.54,6.42-9.34,7.78-.86,11.05,.94,5.85,4.35,7.83,7.33c2.3,3.46,3.82,7.63,3.87,11.81,.05,4.41-2.12,9.09-6.73,10.21-.47,.11-.27,.84,.2,.72,3.55-.86,6.05-3.91,6.9-7.38,.95-3.91,.1-8.16-1.45-11.8-2.87-6.72-9.51-13.38-17.23-13.57-8.24-.2-11.89,9.44-12.83,16.24-1.09,7.92,1,16.16,6.09,22.37,5.44,6.64,13.8,10.68,22.38,10.79,.48,0,.48-.74,0-.75h0Z"/>
      <path class="cls-12" d="M341.8,821.04c-3.17,5.9-2.88,13.32,.78,18.93,.26,.4,.91,.03,.65-.38-3.52-5.39-3.83-12.5-.78-18.17,.23-.42-.42-.8-.65-.38h0Z"/>
      <path class="cls-12" d="M377.88,803.5c-1.68-8.92-.28-18.35,4.06-26.34,3.86-7.1,9.88-12.88,17.08-16.54,.43-.22,.05-.87-.38-.65-12.04,6.11-20.37,17.97-21.94,31.39-.48,4.11-.31,8.27,.45,12.34,.09,.47,.81,.27,.72-.2h0Z"/>
      <path class="cls-12" d="M391.21,771.24c4.02-5.45,10.04-9.23,16.68-10.53,.47-.09,.27-.82-.2-.72-6.84,1.34-12.99,5.27-17.12,10.88-.29,.39,.36,.76,.65,.38h0Z"/>
      <path class="cls-12" d="M423.63,762.31c15.48,4.88,26.2,18.61,30.27,33.94,2.24,8.45,3.08,17.97,1.16,26.56-1.54,6.87-5.42,13.06-10.65,17.75-5.95,5.33-13.64,8.66-21.64,8.95-.48,.02-.48,.77,0,.75,14.35-.51,27.7-10.63,32.19-24.26,2.74-8.32,2.21-17.85,.5-26.33-1.68-8.3-5.05-16.3-10.29-22.99s-12.86-12.41-21.34-15.08c-.46-.15-.66,.58-.2,.72h0Z"/>
      <path class="cls-12" d="M387.1,805.25c.5,8.2,2.8,16.23,6.73,23.45,1.92,3.54,4.23,6.87,6.88,9.91s5.58,5.79,9.57,6.4c.47,.07,.68-.65,.2-.72-4.01-.61-6.98-3.56-9.51-6.52s-4.82-6.31-6.69-9.81c-3.74-7.01-5.94-14.78-6.43-22.71-.03-.48-.78-.48-.75,0h0Z"/>
      <path class="cls-12" d="M416.9,847.78c3.83,.09,7.64-.61,11.17-2.08,.44-.18,.25-.91-.2-.72-3.48,1.45-7.21,2.15-10.97,2.06-.48-.01-.48,.74,0,.75h0Z"/>
      <path class="cls-12" d="M393.06,791.15c3.59-10.42,15.54-16.08,26.04-13.86,11.44,2.42,19.89,12.22,22.7,23.26,1.81,7.1,1.54,14.59-.14,21.69-.11,.47,.61,.67,.72,.2,2.97-12.55,1.41-26.73-7.5-36.6-7.66-8.49-19.73-12.45-30.48-7.64-5.53,2.47-10.07,6.98-12.06,12.75-.16,.46,.57,.65,.72,.2h0Z"/>
      <path class="cls-12" d="M438.73,814.65c-.03,7.41-3.42,14.81-10.15,18.4-6.32,3.36-14.56,2.21-18.96-3.7-.28-.38-.94,0-.65,.38,4.47,6,12.69,7.49,19.3,4.32,7.37-3.53,11.18-11.46,11.21-19.4,0-.48-.75-.48-.75,0h0Z"/>
      <path class="cls-12" d="M405.65,862.94c3.91,5.73,8.22,11.88,14.63,15.01,5.41,2.64,12.27,2.93,17.14-1,.38-.3-.16-.83-.53-.53-4.88,3.95-11.99,3.3-17.21,.37-5.78-3.24-9.73-8.87-13.38-14.23-.27-.4-.92-.02-.65,.38h0Z"/>
      <path class="cls-12" d="M434.27,875.7c5.15-1.67,9.83-4.58,13.59-8.47,.34-.35-.19-.88-.53-.53-3.67,3.8-8.23,6.65-13.26,8.28-.46,.15-.26,.87,.2,.72h0Z"/>
      <path class="cls-12" d="M466.82,795.18c10.32-.02,17.64,9.74,19.44,19.09,2.07,10.76-1.6,22.16-9.62,29.63-4.24,3.95-9.48,6.7-15.13,7.97-.47,.11-.27,.83,.2,.72,10.51-2.36,19.51-9.88,23.51-19.91,4.03-10.13,3.07-22.57-4.12-31.07-3.58-4.23-8.63-7.19-14.27-7.18-.48,0-.48,.75,0,.75h0Z"/>
      <path class="cls-12" d="M409.46,799.4c3.93-.77,8.38-.12,11.45,2.62,2.76,2.46,4.12,6.48,2.87,10.03-.16,.46,.56,.65,.72,.2,1.33-3.79-.12-8.13-3.06-10.76-3.28-2.93-7.97-3.64-12.18-2.81-.47,.09-.27,.82,.2,.72h0Z"/>
      <path class="cls-12" d="M464.22,800.54c6.01,.41,11.39,4.9,12.9,10.72,.12,.47,.84,.27,.72-.2-1.6-6.16-7.28-10.84-13.62-11.27-.48-.03-.48,.72,0,.75h0Z"/>
      <path class="cls-12" d="M426.76,746.03c4.35-2.24,9.61-1.61,13.77,.76,3.94,2.24,6.9,5.8,9.26,9.6,.25,.41,.9,.03,.65-.38-2.56-4.11-5.82-7.98-10.19-10.23s-9.51-2.65-13.87-.4c-.43,.22-.05,.87,.38,.65h0Z"/>
      <path class="cls-12" d="M445.38,757.19c2.26,2.16,3.66,5.12,3.88,8.24,.03,.48,.78,.48,.75,0-.23-3.32-1.69-6.47-4.1-8.77-.35-.33-.88,.2-.53,.53h0Z"/>
      <path class="cls-12" d="M468.51,873.6c4.15,5.46,9.48,10.07,15.88,12.66,6.75,2.73,14.48,2.93,21.19-.03,.44-.19,.06-.84-.38-.65-6.52,2.87-14.06,2.61-20.61-.04-6.2-2.52-11.42-7.02-15.43-12.32-.29-.38-.94,0-.65,.38h0Z"/>
      <path class="cls-12" d="M506.8,878.93c1.76-1.06,3.51-2.13,5.27-3.19,.41-.25,.04-.9-.38-.65l-5.27,3.19c-.41,.25-.04,.9,.38,.65h0Z"/>
      <path class="cls-12" d="M485.26,865.82c3.89,3.54,9.34,3.24,14.12,2.09,5.15-1.24,10.45-2.86,14.71-6.12,.38-.29,0-.94-.38-.65-3.87,2.97-8.53,4.47-13.18,5.7-4.87,1.29-10.66,2.16-14.74-1.55-.36-.32-.89,.2-.53,.53h0Z"/>
      <path class="cls-12" d="M512.95,845.29c3.98-.55,8.01-.62,12.01-.18s7.91,1.23,11.45,2.9c6.43,3.04,9.45,9.52,12.08,15.74,.18,.44,.91,.25,.72-.2-2.7-6.39-5.81-13.07-12.42-16.19-7.27-3.43-16.19-3.89-24.04-2.8-.48,.07-.27,.79,.2,.72h0Z"/>
      <path class="cls-12" d="M536.11,855.6c2.67,1.28,5.09,3.18,6.61,5.76,1.64,2.78,2.05,6.3,.7,9.28-.2,.44,.45,.82,.65,.38,1.4-3.08,1.12-6.65-.46-9.61s-4.2-5.06-7.12-6.46c-.43-.21-.81,.44-.38,.65h0Z"/>
      <path class="cls-12" d="M264.36,865.64c-.02-5.5,1.62-10.91,4.67-15.5s7.93-9.31,13.71-9.3c.48,0,.48-.75,0-.75-5.81-.01-10.74,4.55-13.91,9.02-3.4,4.81-5.23,10.64-5.22,16.53,0,.48,.75,.48,.75,0h0Z"/>
      <path class="cls-12" d="M278.44,845.68c2.19-2.31,5.91-2.85,8.67-1.25,.42,.24,.8-.41,.38-.65-3.04-1.76-7.16-1.18-9.58,1.37-.33,.35,.2,.88,.53,.53h0Z"/>
      <path class="cls-12" d="M293.59,841.94c5.41,2.69,8.86,7.96,10.42,13.67,1.44,5.28,2.07,13.14-2.85,16.88-.38,.29,0,.94,.38,.65,5.05-3.84,4.73-11.47,3.38-17.02-1.5-6.16-5.15-11.95-10.94-14.83-.43-.21-.81,.43-.38,.65h0Z"/>
      <path class="cls-12" d="M269.15,874.44c7,4.52,16.57,1.33,22.33-3.85,2.6-2.33,4.49-5.55,4.23-9.13-.22-3.13-2.03-6.05-5.16-6.93-4.5-1.26-8.63,1.65-11.96,4.29-.38,.3,.16,.83,.53,.53,3.42-2.72,8.49-6.2,12.88-3.37,3.56,2.3,3.63,7.42,1.69,10.76-2.21,3.83-6.52,6.4-10.57,7.89-4.45,1.64-9.49,1.8-13.6-.85-.41-.26-.78,.39-.38,.65h0Z"/>
      <path class="cls-12" d="M209.29,865.41c2.32-5.53,6.79-11.54,13.5-11.02s11.33,7.58,8.95,14.07c-.17,.45,.56,.65,.72,.2,2.46-6.68-1.92-14.01-8.98-14.94s-12.36,5.42-14.91,11.5c-.19,.44,.54,.64,.72,.2h0Z"/>
      <path class="cls-12" d="M243.68,869.42c2-1.13,4.55-1.15,6.53,.05,1.84,1.12,3,3.17,3.07,5.31,.02,.48,.77,.48,.75,0-.08-2.4-1.38-4.7-3.44-5.96-2.2-1.34-5.06-1.32-7.28-.05-.42,.24-.04,.89,.38,.65h0Z"/>
      <path class="cls-12" d="M255.06,881.27c9.29,4.27,21.31,9.12,30.42,1.72,.37-.3-.16-.83-.53-.53-8.79,7.15-20.59,2.27-29.51-1.83-.44-.2-.82,.45-.38,.65h0Z"/>
      <path class="cls-12" d="M289.17,884.3c1.99-1.34,3.67-3.09,4.93-5.12,.25-.41-.39-.79-.65-.38-1.19,1.93-2.79,3.59-4.66,4.85-.4,.27-.02,.92,.38,.65h0Z"/>
      <path class="cls-12" d="M314.51,866.86c1.78-3.64,4.91-6.54,8.7-8,.45-.17,.25-.9-.2-.72-3.96,1.53-7.27,4.53-9.15,8.35-.21,.43,.43,.81,.65,.38h0Z"/>
    </g>
  </g>
</svg>