<?xml version="1.0" encoding="UTF-8"?>
<svg id="_Слой_2" data-name="Слой 2" xmlns="http://www.w3.org/2000/svg" xmlns:xlink="http://www.w3.org/1999/xlink" viewBox="0 0 1039 704">
  <defs>
    <style>
      .cls-1 {
        stroke-width: 5px;
      }

      .cls-1, .cls-2, .cls-3, .cls-4, .cls-5 {
        fill: none;
      }

      .cls-1, .cls-2, .cls-3, .cls-5 {
        stroke-linecap: round;
        stroke-miterlimit: 10;
      }

      .cls-1, .cls-5 {
        stroke: #333;
      }

      .cls-2 {
        stroke-dasharray: 0 0 4.89 9.79;
      }

      .cls-2, .cls-3 {
        stroke: #938337;
      }

      .cls-2, .cls-3, .cls-5 {
        stroke-width: 3px;
      }

      .cls-6 {
        fill: #ffeb62;
        opacity: .47;
      }

      .cls-7 {
        fill: #4d4d4d;
      }

      .cls-8 {
        fill: #111010;
        opacity: .44;
      }

      .cls-9 {
        fill: #1b1d1f;
      }

      .cls-10 {
        fill: #31313f;
      }

      .cls-11 {
        fill: gray;
      }

      .cls-12 {
        clip-path: url(#clippath);
      }

      .cls-13 {
        fill: #999;
      }

      .cls-14 {
        fill: #2c2e30;
      }

      .cls-15 {
        fill: #1a1a1a;
      }

      .cls-16 {
        fill: #242628;
      }

      .cls-17 {
        fill: #666;
      }
    </style>
    <clipPath id="clippath">
      <rect class="cls-4" width="1039" height="704"/>
    </clipPath>
  </defs>
  <g id="_Слой_2-2" data-name="Слой 2">
    <g class="cls-12">
      <rect class="cls-9" width="1039" height="704"/>
      <path class="cls-16" d="M969.23,465.46c-12.32-.8-22.68,2.04-29.62,4.63,4.06-11.46,1.24-23.79-7.11-31.27-8.43-7.55-19.1-7.09-21.32-6.95-1.01-1.12-7.38-8-17.77-8.11-12.48-.13-19.57,9.61-20.14,10.42,9.32-27.39-6.2-53.96-27.25-59.07-15.1-3.66-32.77,3.78-43.83,18.53,14.95-20.43,12.11-46.76-3.55-60.23-17.06-14.67-41.48-7.32-42.65-6.95-2.05-1.38-14.83-9.73-30.8-5.79-10.32,2.55-16.59,8.9-18.96,11.58-6.69-17.34-19.33-29.23-33.17-30.11-10.26-.65-18.22,4.93-26.06,10.42-15.52,10.88-22.9,25-29.62,38.22-3.69,7.27-8.32,17.8-11.85,31.27,2.52-19.18-5.59-36.02-18.96-41.69-7.14-3.03-14.31-2.24-18.96-1.16-4.54-2.08-16.03-6.59-29.62-3.47-17.45,4-31.23,18.95-35.54,38.22-4.72,2.37-15.9,8.77-23.69,22.01-4.73,8.03-6.65,15.93-7.32,22.4,.59,4.2,.7,8.74,.21,13.51-.33-2.39-.85-7.29-.21-13.51-1.89-13.43-8.78-23.36-17.56-25.87-7.97-2.28-16.07,1.96-18.96,3.47-14.45,7.57-18.27,22.57-18.96,25.48-3.78,2.8-10.68,8.7-15.4,18.53-3.59,7.46-4.51,14.25-4.74,18.53-2.66-1.69-6.66-3.95-11.85-5.79-5.13-1.82-24.66-8.77-41.46,1.16-3.28,1.94-9.41,6.27-14.22,15.06-4.22,.73-7.34,2.19-9.48,3.47-10.4,6.27-16,19.7-13.03,30.11,0,0,1.09,3.82,3.55,6.95,11.9,15.09,181.4-1.08,228.65-5.79,1.55,1.74,5.03,5.16,10.66,6.95,8.6,2.73,15.95-.34,17.77-1.16,6.18,16.7,23.26,26.24,39.1,23.16,12.51-2.43,22.73-12.45,26.06-25.48,8.62,20.21,29.02,31.37,47.39,27.8,18.7-3.64,27.4-21.02,28.43-23.16,40.13,52.63,93.71,69.14,120.84,52.12,3.91-2.45,18.39-12.58,22.51-42.85,13.89,14.51,34.89,17.87,49.76,9.27,15.38-8.91,17.54-26.79,17.77-28.95-.27,0,45.27,9.62,64.19,0,10.42-5.29,1.39-34.96-13.25-35.9Z"/>
      <path class="cls-16" d="M1058.54,547.96c756.54,20.98,980.69,21.24,984.81,14.08,.07-.12,7.47-13.07,7.45-13.07h0c-1.32-6.71-12.46-10.28-20.23-12.07,7.68-4.04,22.86-13.46,31.94-31.17,12.68-24.75,8.25-55.57-10.65-80.44,.34-2.56,2.53-20.89-9.58-31.17-13.77-11.69-42.15-9.65-61.75,11.06-2.19-6.76-14.41-42-52.17-59.32-35.94-16.49-80.73-10.18-113.92,16.09,9.64-33.53-10.81-62.76-34.07-66.36-15.77-2.44-33.35,6.83-44.72,22.12-.73-.62-14.27-11.83-30.88-7.04-11.39,3.29-16.86,11.97-18.1,14.08,2.72-11.84,3.9-27.04-1.06-43.24-11.32-36.92-50.12-64.38-99.01-72.4,14.01-2.56,24.74-13.17,26.62-26.14,2.03-14.06-6.77-27.97-21.29-33.18-.63-11.45-3.48-26.47-12.78-41.23-31.02-49.22-103.53-47.41-107.53-47.26,.14-1.55,1.61-22.13-15.97-35.19-12.28-9.12-29.11-11.05-43.65-5.03,7.09-27.14-7.15-48.84-22.36-51.28-14.33-2.3-27.64,12.79-28.75,14.08-12.08-12.28-44.24-41.69-76.66-36.2-43.53,7.38-82.65,76.88-67.07,172.95-1.44-.93-19.96-12.39-40.46-5.03-16.83,6.04-27.81,22.2-26.72,40-2.35-.25-14.22-1.26-25,6.39-11.03,7.83-12.73,18.92-13,20.99-8.07,4.49-31.84,19.05-43,47.45-16.92,43.08,9.87,80.63,13,84.86-6.2-2.83-38.35-16.82-72-4.56-36.34,13.24-59.61,51.67-54,93.98-8.52-6.23-22.18-13.77-39-13.69-31.58,.15-62.98,27.09-73,67.52-7.58-1.39-18.27-2.18-30,.91-36.63,9.67-48.14,48.04-49,51.1,10.61,9.56,21.42,17.34,32,23.72,98.14,59.2,222.94,25.6,261.54,13.7Z"/>
      <path class="cls-1" d="M1396.25,99.75c0,196.06-158.94,355-355,355-149.46,0-276.4-89.49-328.75-220.25"/>
      <path class="cls-5" d="M1372.5,111.5c-3.92,179.68-150.63,319.75-331.25,319.75-139.24,0-257.65-83.09-306.75-204.75"/>
      <circle class="cls-2" cx="702.13" cy="153.68" r="28.05"/>
      <circle class="cls-1" cx="699.07" cy="152.21" r="82.42"/>
      <circle class="cls-13" cx="646.42" cy="91.06" r="15.42"/>
      <circle class="cls-10" cx="781.49" cy="171.89" r="15.42"/>
      <circle class="cls-7" cx="768.73" cy="119.78" r="20.74"/>
      <circle class="cls-11" cx="668.76" cy="230.38" r="13.29"/>
      <g>
        <path class="cls-3" d="M745.17,153.13c5.64-.03,11.28-.07,16.92-.12"/>
        <path class="cls-3" d="M640.84,153.01c6.02,0,12.03,0,18.05,0"/>
      </g>
      <g>
        <path class="cls-3" d="M699.39,108.3c-.03-5.64-.07-11.28-.12-16.92"/>
        <path class="cls-3" d="M699.27,212.63c0-6.02,0-12.03,0-18.05"/>
      </g>
      <g>
        <path class="cls-3" d="M730.24,121.1c3.96-4.01,7.91-8.03,11.86-12.06"/>
        <path class="cls-3" d="M656.48,194.89c4.25-4.26,8.5-8.52,12.74-12.78"/>
      </g>
      <g>
        <path class="cls-3" d="M668.34,121.1c-3.96-4.01-7.91-8.03-11.86-12.06"/>
        <path class="cls-3" d="M742.1,194.89c-4.25-4.26-8.5-8.52-12.74-12.78"/>
      </g>
      <path class="cls-6" d="M941.55,215.42c-6.07-.19-13.44-.89-21.66-2.71-7.08-1.57-13.23-3.62-18.38-5.69-7.86-19.86-10.22-54.73-9.83-63.82-.29,9.26-1.36,20.51-4.13,33.04-2.65,11.96-6.2,22.18-9.7,30.51-4.73,1.81-10.24,3.56-16.45,4.93-8.22,1.82-15.59,2.52-21.66,2.71,5.45-.23,25.07,1.04,38.34,5.21,3.42,8.22,6.88,18.25,9.46,29.95,2.77,12.54,3.84,23.78,4.13,33.04-.37-8.67,1.76-40.84,8.79-61.02,13.13-4.92,35.24-6.4,41.08-6.15Z"/>
      <path class="cls-6" d="M388.54,69.38c-3.22-.1-7.13-.47-11.48-1.44-3.75-.83-7.01-1.92-9.74-3.02-4.17-10.53-5.42-29.01-5.21-33.83-.15,4.91-.72,10.87-2.19,17.51-1.4,6.34-3.29,11.76-5.14,16.17-2.51,.96-5.43,1.88-8.72,2.61-4.36,.96-8.26,1.34-11.48,1.44,2.89-.12,13.29,.55,20.32,2.76,1.81,4.36,3.65,9.68,5.02,15.88,1.47,6.64,2.04,12.61,2.19,17.51-.2-4.6,.93-21.65,4.66-32.34,6.96-2.61,18.68-3.39,21.78-3.26Z"/>
      <circle class="cls-8" cx="558.31" cy="270.1" r="35.8"/>
      <circle class="cls-8" cx="929.44" cy="59.27" r="38.52"/>
      <path class="cls-11" d="M865.25,311.09c-2.52-.08-5.57-.37-8.98-1.12-2.93-.65-5.48-1.5-7.62-2.36-3.26-8.23-4.24-22.69-4.08-26.45-.12,3.84-.56,8.5-1.71,13.7-1.1,4.96-2.57,9.2-4.02,12.65-1.96,.75-4.24,1.47-6.82,2.04-3.41,.75-6.46,1.04-8.98,1.12,2.26-.1,10.39,.43,15.89,2.16,1.42,3.41,2.85,7.57,3.92,12.41,1.15,5.2,1.59,9.86,1.71,13.7-.15-3.6,.73-16.93,3.64-25.29,5.44-2.04,14.61-2.65,17.03-2.55Z"/>
      <path class="cls-14" d="M837.73,89.42c-1.77-.05-3.92-.26-6.31-.79-2.06-.46-3.86-1.06-5.36-1.66-2.29-5.79-2.98-15.95-2.87-18.6-.08,2.7-.4,5.98-1.2,9.63-.77,3.49-1.81,6.47-2.83,8.89-1.38,.53-2.98,1.04-4.79,1.44-2.4,.53-4.54,.73-6.31,.79,1.59-.07,7.31,.3,11.18,1.52,1,2.4,2,5.32,2.76,8.73,.81,3.65,1.12,6.93,1.2,9.63-.11-2.53,.51-11.9,2.56-17.78,3.83-1.43,10.27-1.87,11.97-1.79Z"/>
      <path class="cls-14" d="M575.14,131.28c-2.5-.08-5.54-.37-8.92-1.11-2.91-.64-5.45-1.49-7.57-2.34-3.24-8.18-4.21-22.54-4.05-26.28-.12,3.81-.56,8.44-1.7,13.61-1.09,4.93-2.55,9.13-3.99,12.56-1.95,.74-4.22,1.46-6.77,2.03-3.38,.75-6.42,1.04-8.92,1.11,2.25-.1,10.32,.43,15.79,2.15,1.41,3.39,2.83,7.52,3.9,12.33,1.14,5.16,1.58,9.79,1.7,13.61-.15-3.57,.72-16.81,3.62-25.12,5.41-2.03,14.51-2.64,16.92-2.53Z"/>
      <path class="cls-14" d="M412.14,589.6c-1.77-.05-3.92-.26-6.31-.79-2.06-.46-3.86-1.06-5.36-1.66-2.29-5.79-2.98-15.95-2.87-18.6-.08,2.7-.4,5.98-1.2,9.63-.77,3.49-1.81,6.47-2.83,8.89-1.38,.53-2.98,1.04-4.79,1.44-2.4,.53-4.54,.73-6.31,.79,1.59-.07,7.31,.3,11.18,1.52,1,2.4,2,5.32,2.76,8.73,.81,3.65,1.12,6.93,1.2,9.63-.11-2.53,.51-11.9,2.56-17.78,3.83-1.43,10.27-1.87,11.97-1.79Z"/>
      <path class="cls-14" d="M565.79,563.72c-3.66-.11-8.1-.54-13.05-1.63-4.26-.94-7.97-2.18-11.07-3.43-4.74-11.96-6.16-32.97-5.92-38.44-.17,5.58-.82,12.35-2.49,19.9-1.59,7.21-3.74,13.36-5.84,18.38-2.85,1.09-6.17,2.14-9.91,2.97-4.95,1.1-9.39,1.52-13.05,1.63,3.29-.14,15.1,.63,23.09,3.14,2.06,4.95,4.14,11,5.7,18.04,1.67,7.55,2.31,14.32,2.49,19.9-.22-5.22,1.06-24.6,5.29-36.75,7.91-2.96,21.23-3.86,24.75-3.71Z"/>
      <path class="cls-17" d="M1042,328c-18.95-17.22-34.47-17.58-39.23-17.32-30.09,1.65-60.86,39.65-62.76,95.72-1.7-.46-31.06-7.95-53.8,11.7-20.77,17.95-18.24,43.18-17.93,45.73-15,.51-23.21,5.05-28.02,9.57,0,0-3.8,3.58-14.57,25.52,0,0-90.78-54.24-161.39,67-6.59,11.32-7.01,39.27-5.6,43.61,1.86,5.72,7.88,8.31,14.57,12.76,0,0,15.16,10.08,33.62,14.89,21.23,5.53,72.98,1.92,136.74-19.14,20,11.02,36.39,13.45,47.07,13.83,36.83,1.3,64.9-19.64,98.63-19.14,14.35,.21,29.14,2.13,29.14,2.13,7.7,1,21.54,17.15,21.54,17.15,1.49-96.78,.51-207.22,2-304Z"/>
      <path class="cls-15" d="M987.53,392.97c9.73-9.41,20.42-17.78,31.88-24.99,.41-.26,.03-.91-.38-.65-11.51,7.25-22.25,15.66-32.03,25.11-.35,.34,.18,.87,.53,.53h0Z"/>
      <path class="cls-15" d="M978.08,407.86c-7.32,8-9.84,19.43-11.25,29.87-1.56,11.5-1.22,23.23,.95,34.63,1.24,6.49,3.08,12.84,5.49,18.99,.17,.44,.9,.25,.72-.2-8.23-20.98-9.91-45.02-3.67-66.77,1.67-5.82,4.16-11.47,8.28-15.98,.33-.36-.2-.89-.53-.53h0Z"/>
      <path class="cls-15" d="M988.75,421.7c-4.2,16.3-.86,34.17,8.54,48.09,2.64,3.91,5.75,7.48,9.27,10.62,.36,.32,.89-.21,.53-.53-12.36-11.04-19.41-27.48-19.39-44.01,0-4.72,.6-9.41,1.78-13.97,.12-.47-.6-.67-.72-.2h0Z"/>
      <path class="cls-15" d="M683.03,569.7c15-16.15,34.82-28.44,56.82-31.9,20.97-3.3,43.83,2.15,59.77,16.54,9.28,8.38,16.81,20.67,14.91,33.63-.07,.47,.65,.68,.72,.2,1.66-11.32-3.69-22.3-11.18-30.48s-16.85-13.83-27.05-17.37c-21.18-7.34-44.3-4.5-64.08,5.58-11.45,5.83-21.7,13.87-30.44,23.27-.33,.35,.2,.88,.53,.53h0Z"/>
      <path class="cls-15" d="M774.44,555.07c7.13,2.52,13.57,6.81,18.65,12.41s8.9,12.13,9.41,19.51c.28,4.08-.68,8.16-3.46,11.25-.32,.36,.21,.89,.53,.53,5.02-5.59,4.3-13.75,1.61-20.26-2.94-7.12-8.37-13.31-14.53-17.83-3.67-2.7-7.72-4.82-12.01-6.34-.46-.16-.65,.56-.2,.72h0Z"/>
      <path class="cls-15" d="M707.38,567.43c-4.84,5.5-9.92,11.35-11.56,18.7-.76,3.41-.77,7.05,.43,10.36,1.07,2.96,3.04,5.48,5.37,7.56,2.74,2.44,5.91,4.33,9.1,6.11,.42,.24,.8-.41,.38-.65-6.98-3.9-14.53-8.92-15.03-17.72-.54-9.49,5.97-17.16,11.84-23.83,.32-.36-.21-.89-.53-.53h0Z"/>
      <path class="cls-15" d="M718.99,575.81c4.77-12.94,21.21-13.61,32.55-10.97,10.11,2.35,20.38,7.96,25.43,17.4,2.81,5.25,4.45,12.5-.34,17.12-2.2,2.12-5.09,3.42-7.89,4.52-3.1,1.22-6.33,2.16-9.62,2.71-6.41,1.07-13.14,.52-19.04-2.32-5.25-2.52-9.94-6.85-11.82-12.47-1-2.99-1.25-6.34-.17-9.35,1.18-3.29,3.94-5.61,7.22-6.69,7.22-2.38,14.44,1.08,20.81,4.25,.43,.21,.81-.43,.38-.65-5.95-2.96-12.41-6.08-19.24-4.86-5.93,1.06-10.38,5.48-10.61,11.63-.49,13.26,13.67,21.36,25.36,21.7,7.1,.21,14.45-1.7,20.76-4.93,2.63-1.35,5.19-3.19,6.56-5.88,1.47-2.88,1.34-6.27,.58-9.33-2.85-11.42-13.3-18.95-23.99-22.43-11.51-3.74-27.81-4.63-35.63,6.5-.84,1.19-1.49,2.48-1.99,3.85-.17,.45,.56,.65,.72,.2h0Z"/>
      <path class="cls-15" d="M822.92,526.27c3.79-13.81,11.77-26.42,22.83-35.55,11.86-9.78,27.16-14.95,42.53-14.32,15.18,.61,29.07,7.21,40,17.62s18.75,23.51,23.79,37.44c5.38,14.87,7.43,31.43,3.09,46.83-.54,1.92-1.18,3.8-1.91,5.65-.18,.45,.55,.64,.72,.2,5.95-15.2,5.2-32.09,.58-47.53-4.37-14.62-12.04-28.64-22.48-39.82-10.17-10.88-23.32-18.69-38.22-20.65-15.45-2.04-31.51,1.89-44.29,10.77-11.84,8.23-20.84,20.32-25.7,33.87-.63,1.74-1.18,3.51-1.67,5.3-.13,.47,.6,.67,.72,.2h0Z"/>
      <path class="cls-15" d="M839.34,536.55c-2.28,14.29,.49,29.22,7.67,41.79,3.64,6.37,8.43,12.5,14.51,16.7,5.69,3.92,12.46,5.95,19.3,6.56,8.05,.72,16.2-.43,23.95-2.62,.46-.13,.27-.85-.2-.72-13.05,3.69-28.22,4.61-40.37-2.41-6.36-3.67-11.32-9.47-15.2-15.63-3.77-5.99-6.49-12.61-8.08-19.5-1.82-7.85-2.13-16.02-.86-23.98,.08-.47-.65-.68-.72-.2h0Z"/>
      <path class="cls-15" d="M850.14,520.83c3.54-7.8,11.58-12.49,19.89-13.47,8.89-1.05,18.08,1.5,25.92,5.61,13.58,7.13,24.12,19.79,28.95,34.32,1.22,3.68,2.08,7.48,2.52,11.33s.62,8.04-.2,11.93c-.94,4.43-3.44,7.98-7.65,9.82-3.83,1.67-8.22,2.03-12.35,2.08-16.14,.18-33.07-8-37.89-24.38-2.18-7.39-1.68-15.74,2.48-22.36,1.11-1.76,2.48-3.57,4.37-4.54,2.23-1.15,4.96-.73,7.33-.36,4.51,.72,8.9,2.22,12.9,4.42,2.02,1.11,3.94,2.4,5.74,3.84,.37,.3,.91-.23,.53-.53-3.65-2.92-7.76-5.22-12.18-6.75-2.34-.81-4.76-1.41-7.21-1.77-2.13-.31-4.45-.64-6.54,.08-3.63,1.25-5.98,5.35-7.38,8.68-1.52,3.6-2.17,7.53-2.05,11.42,.23,7.99,3.56,15.86,9.22,21.52,6.12,6.12,14.39,9.69,22.88,10.94,4.23,.62,8.55,.7,12.8,.23s8.32-1.43,11.45-4.21c6.24-5.53,5.32-15.97,4.03-23.37-2.8-16.07-12.58-30.78-26.1-39.85s-36.49-14.61-48.9-.05c-1.3,1.53-2.37,3.21-3.2,5.04-.2,.44,.45,.82,.65,.38h0Z"/>
      <path class="cls-1" d="M687.5,69.5c13.1-184.13,166.28-324.75,353.75-324.75,87.91,0,163.25,28.82,225.25,81.75"/>
      <path class="cls-5" d="M710.5,71.5c12.35-171.83,155.78-303.25,330.75-303.25,78.25,0,150.17,27.11,206.88,72.46"/>
    </g>
  </g>
</svg>