<svg width="48" height="48" viewBox="0 0 48 48" fill="none" xmlns="http://www.w3.org/2000/svg">
<mask id="path-1-outside-1_784_3302" maskUnits="userSpaceOnUse" x="-0.538574" y="9.83203" width="49" height="28" fill="black">
<rect fill="white" x="-0.538574" y="9.83203" width="49" height="28"/>
<path d="M26.959 32.7982C26.6 33.4184 26.241 34.0468 25.878 34.6711C27.2494 35.5953 27.3623 35.8171 27.0921 37.0903C26.8944 37.1109 26.6807 37.1479 26.4669 37.152C25.3818 37.1602 24.2968 37.1684 23.2158 37.1602C21.8524 37.1519 21.2635 36.5318 21.2595 35.1147C21.2595 33.669 21.2595 32.2273 21.2595 30.7815C21.2595 30.5022 21.2595 30.2229 21.2595 29.8245C18.8353 30.3626 16.4757 30.342 14.1765 30.0217C13.6844 31.5578 13.2125 33.0241 12.7244 34.552C13.2286 34.8683 13.8861 35.1188 14.0716 35.8623C14.1765 36.2812 14.2451 36.6878 13.9748 37.152C13.753 37.152 13.5069 37.152 13.2609 37.152C10.3123 37.1561 7.36779 37.1602 4.41923 37.1643C4.25385 37.1643 4.08444 37.1766 3.91907 37.156C2.99134 37.0369 2.53151 36.2976 2.81386 35.3776C3.00747 34.7574 3.20512 34.1372 3.4189 33.5252C4.07234 31.6646 3.8989 29.8574 3.12445 28.0748C2.83403 27.4012 2.55167 26.7235 2.34193 26.0212C2.16848 25.4297 2.05958 24.8095 2.01521 24.1934C1.97487 23.6882 1.85386 23.3555 1.41017 23.0228C0.0629454 22.0289 0.175887 20.1724 1.58765 19.3715C1.86596 19.2113 2.22092 19.1045 2.53554 19.1127C2.9631 19.1209 3.17688 18.9361 3.37453 18.5829C5.0162 15.6872 7.42022 13.65 10.3809 12.2782C13.4545 10.8529 16.6652 10.4627 19.9768 11.1897C20.7311 11.354 21.4652 11.6374 22.1792 11.9455C23.3973 12.4712 24.6719 12.7628 25.9748 12.8285C26.9711 12.8778 27.9956 12.7423 28.9032 12.2987C31.4 11.0788 33.9573 11.1938 36.5509 11.8305C36.9825 11.9373 37.3576 11.9947 37.8174 11.773C38.4104 11.4895 39.0598 11.5881 39.6245 12.0276C39.9512 12.2823 40.3021 12.5164 40.6692 12.7094C43.2507 14.0648 45.4127 15.9501 47.3851 18.09C47.4416 18.1516 47.4739 18.2296 47.5384 18.3364C47.1189 19.3468 46.5098 20.2463 45.7918 21.0801C45.5418 21.3717 45.2836 21.4251 44.9085 21.3594C43.5976 21.1335 42.2826 20.9076 40.9596 20.7638C39.1445 20.5708 37.3415 20.772 35.6191 21.3799C33.0295 22.2959 31.5774 24.3125 30.5932 26.896C30.7304 26.9823 30.8353 27.0357 30.92 27.1055C33.7798 29.4795 35.0826 32.6832 35.5989 36.2935C35.7038 37.0287 35.611 37.1191 34.8527 37.1273C33.9613 37.1355 33.0739 37.1068 32.1825 37.1437C31.6904 37.1643 31.4403 36.9794 31.2185 36.54C30.3069 34.7533 28.8185 33.4636 26.959 32.7982ZM22.0743 28.81C21.9129 28.0173 21.7193 27.3355 21.6467 26.6414C21.5782 25.9719 21.6145 25.286 21.6346 24.6124C21.6427 24.3783 21.6508 24.0497 22.0178 24.0784C22.3687 24.1072 22.3486 24.3906 22.3203 24.6575C22.3042 24.8259 22.28 24.9944 22.2719 25.1628C22.1469 27.7627 23.0666 29.8081 25.3536 31.106C25.886 31.4099 26.4386 31.6769 26.9872 31.9521C27.4591 32.1903 27.9472 32.3998 28.4111 32.6586C29.96 33.5211 31.1781 34.7286 31.9768 36.3633C32.965 36.3798 33.921 36.425 34.889 36.3182C34.8769 36.1087 34.889 35.9937 34.8648 35.8869C34.7196 35.2544 34.5905 34.6137 34.409 33.9935C33.3159 30.2312 31.1943 27.3807 27.4793 25.9596C27.3502 25.9103 27.205 25.8651 27.1163 25.7665C27.0396 25.6803 26.9751 25.5037 27.0074 25.4092C27.0437 25.3065 27.2212 25.1792 27.3139 25.1956C27.5842 25.2408 27.8504 25.3312 28.1045 25.4462C28.7297 25.7337 29.3428 26.0417 29.9963 26.358C30.1939 25.939 30.3674 25.5529 30.5569 25.1792C31.6662 22.9695 33.2837 21.3389 35.6635 20.6036C36.8131 20.2463 37.9989 20.1067 39.1929 20.0533C41.008 19.9752 42.7989 20.156 44.5656 20.5667C45.0174 20.6694 45.328 20.5667 45.5781 20.2094C45.9774 19.6343 46.3646 19.0552 46.7155 18.5377C46.2517 18.0284 45.8604 17.5889 45.4611 17.1576C43.5855 15.1286 41.1492 13.9088 38.8863 12.4383C38.3781 12.1098 37.5996 12.5492 37.527 13.1202C37.4786 13.4939 37.7166 13.6664 37.9667 13.8677C38.0796 13.958 38.0877 14.1839 38.1441 14.3482C37.9707 14.3934 37.773 14.5125 37.6278 14.4674C37.2043 14.3277 36.926 14.0073 36.8776 13.5391C36.8494 13.2639 36.8736 12.9846 36.8736 12.6355C36.2484 12.4999 35.6594 12.3439 35.0625 12.2412C33.3401 11.9455 31.6178 11.9003 29.9882 12.6478C27.3341 13.8636 24.676 13.765 22.0582 12.656C19.9002 11.7442 17.714 11.3581 15.3947 11.6456C10.4777 12.2494 6.63771 14.6357 4.02797 18.9156C2.45486 21.499 2.16041 24.2632 3.4794 27.1014C3.71738 27.6107 3.91906 28.1405 4.10461 28.6745C4.5483 29.956 4.68948 31.2744 4.3668 32.6011C4.14898 33.5047 3.85856 34.3918 3.58428 35.2831C3.30999 36.1826 3.4673 36.4455 4.37083 36.4496C5.62124 36.4578 6.87166 36.4373 8.12611 36.4167C8.32779 36.4126 8.52543 36.3428 8.93686 36.2607C8.56173 35.9115 8.35199 35.661 8.09384 35.4885C7.32745 34.9833 7.29922 34.8354 7.94056 34.1577C8.53754 33.5252 9.17484 32.9297 9.73954 32.2643C11.1311 30.6255 12.1234 28.7772 12.2565 26.5633C12.2968 25.8897 12.2162 25.2079 12.1839 24.5302C12.1718 24.2879 12.2 24.0497 12.4824 24.0127C12.7688 23.9757 12.8737 24.1934 12.8817 24.4399C12.91 25.2572 12.9664 26.0787 12.9261 26.8919C12.8938 27.5285 12.7325 28.157 12.6195 28.8593C15.8101 29.804 18.9281 29.8245 22.0743 28.81ZM26.2894 32.4984C25.5028 32.0055 24.7768 31.6359 24.1516 31.1389C23.5264 30.6419 22.9939 30.0217 22.401 29.4302C21.9896 29.4384 22.0097 29.767 22.0097 30.0833C22.0097 31.8084 21.9977 33.5334 22.0057 35.2585C22.0098 36.1374 22.28 36.4291 23.1472 36.4414C24.0911 36.4537 25.0349 36.4209 25.9788 36.3962C26.1523 36.3921 26.3217 36.3182 26.4991 36.2771C26.3862 35.7555 26.0232 35.6117 25.6723 35.4351C24.922 35.0531 24.8897 34.934 25.3012 34.2152C25.6239 33.6566 25.9465 33.0981 26.2894 32.4984ZM13.394 36.236C13.3456 35.6117 12.8333 35.468 12.4098 35.2421C11.7644 34.897 11.7402 34.819 12.0105 34.1249C12.3453 33.2582 12.7002 32.3998 12.9906 31.5167C13.1641 30.9951 13.2326 30.4406 13.3537 29.8656C12.9584 29.7218 12.6558 29.611 12.317 29.4877C11.4296 31.6112 10.0219 33.2336 8.48106 34.6424C8.89652 35.201 9.28778 35.7267 9.74358 36.3428C10.5745 36.4825 12.7647 36.4455 13.394 36.236ZM2.68882 19.9054C1.93857 19.9013 1.40613 20.271 1.22059 20.8953C1.04714 21.4867 1.30529 22.033 1.97487 22.4725C2.20478 21.6387 2.43873 20.8049 2.68882 19.9054Z"/>
</mask>
<path d="M26.959 32.7982C26.6 33.4184 26.241 34.0468 25.878 34.6711C27.2494 35.5953 27.3623 35.8171 27.0921 37.0903C26.8944 37.1109 26.6807 37.1479 26.4669 37.152C25.3818 37.1602 24.2968 37.1684 23.2158 37.1602C21.8524 37.1519 21.2635 36.5318 21.2595 35.1147C21.2595 33.669 21.2595 32.2273 21.2595 30.7815C21.2595 30.5022 21.2595 30.2229 21.2595 29.8245C18.8353 30.3626 16.4757 30.342 14.1765 30.0217C13.6844 31.5578 13.2125 33.0241 12.7244 34.552C13.2286 34.8683 13.8861 35.1188 14.0716 35.8623C14.1765 36.2812 14.2451 36.6878 13.9748 37.152C13.753 37.152 13.5069 37.152 13.2609 37.152C10.3123 37.1561 7.36779 37.1602 4.41923 37.1643C4.25385 37.1643 4.08444 37.1766 3.91907 37.156C2.99134 37.0369 2.53151 36.2976 2.81386 35.3776C3.00747 34.7574 3.20512 34.1372 3.4189 33.5252C4.07234 31.6646 3.8989 29.8574 3.12445 28.0748C2.83403 27.4012 2.55167 26.7235 2.34193 26.0212C2.16848 25.4297 2.05958 24.8095 2.01521 24.1934C1.97487 23.6882 1.85386 23.3555 1.41017 23.0228C0.0629454 22.0289 0.175887 20.1724 1.58765 19.3715C1.86596 19.2113 2.22092 19.1045 2.53554 19.1127C2.9631 19.1209 3.17688 18.9361 3.37453 18.5829C5.0162 15.6872 7.42022 13.65 10.3809 12.2782C13.4545 10.8529 16.6652 10.4627 19.9768 11.1897C20.7311 11.354 21.4652 11.6374 22.1792 11.9455C23.3973 12.4712 24.6719 12.7628 25.9748 12.8285C26.9711 12.8778 27.9956 12.7423 28.9032 12.2987C31.4 11.0788 33.9573 11.1938 36.5509 11.8305C36.9825 11.9373 37.3576 11.9947 37.8174 11.773C38.4104 11.4895 39.0598 11.5881 39.6245 12.0276C39.9512 12.2823 40.3021 12.5164 40.6692 12.7094C43.2507 14.0648 45.4127 15.9501 47.3851 18.09C47.4416 18.1516 47.4739 18.2296 47.5384 18.3364C47.1189 19.3468 46.5098 20.2463 45.7918 21.0801C45.5418 21.3717 45.2836 21.4251 44.9085 21.3594C43.5976 21.1335 42.2826 20.9076 40.9596 20.7638C39.1445 20.5708 37.3415 20.772 35.6191 21.3799C33.0295 22.2959 31.5774 24.3125 30.5932 26.896C30.7304 26.9823 30.8353 27.0357 30.92 27.1055C33.7798 29.4795 35.0826 32.6832 35.5989 36.2935C35.7038 37.0287 35.611 37.1191 34.8527 37.1273C33.9613 37.1355 33.0739 37.1068 32.1825 37.1437C31.6904 37.1643 31.4403 36.9794 31.2185 36.54C30.3069 34.7533 28.8185 33.4636 26.959 32.7982ZM22.0743 28.81C21.9129 28.0173 21.7193 27.3355 21.6467 26.6414C21.5782 25.9719 21.6145 25.286 21.6346 24.6124C21.6427 24.3783 21.6508 24.0497 22.0178 24.0784C22.3687 24.1072 22.3486 24.3906 22.3203 24.6575C22.3042 24.8259 22.28 24.9944 22.2719 25.1628C22.1469 27.7627 23.0666 29.8081 25.3536 31.106C25.886 31.4099 26.4386 31.6769 26.9872 31.9521C27.4591 32.1903 27.9472 32.3998 28.4111 32.6586C29.96 33.5211 31.1781 34.7286 31.9768 36.3633C32.965 36.3798 33.921 36.425 34.889 36.3182C34.8769 36.1087 34.889 35.9937 34.8648 35.8869C34.7196 35.2544 34.5905 34.6137 34.409 33.9935C33.3159 30.2312 31.1943 27.3807 27.4793 25.9596C27.3502 25.9103 27.205 25.8651 27.1163 25.7665C27.0396 25.6803 26.9751 25.5037 27.0074 25.4092C27.0437 25.3065 27.2212 25.1792 27.3139 25.1956C27.5842 25.2408 27.8504 25.3312 28.1045 25.4462C28.7297 25.7337 29.3428 26.0417 29.9963 26.358C30.1939 25.939 30.3674 25.5529 30.5569 25.1792C31.6662 22.9695 33.2837 21.3389 35.6635 20.6036C36.8131 20.2463 37.9989 20.1067 39.1929 20.0533C41.008 19.9752 42.7989 20.156 44.5656 20.5667C45.0174 20.6694 45.328 20.5667 45.5781 20.2094C45.9774 19.6343 46.3646 19.0552 46.7155 18.5377C46.2517 18.0284 45.8604 17.5889 45.4611 17.1576C43.5855 15.1286 41.1492 13.9088 38.8863 12.4383C38.3781 12.1098 37.5996 12.5492 37.527 13.1202C37.4786 13.4939 37.7166 13.6664 37.9667 13.8677C38.0796 13.958 38.0877 14.1839 38.1441 14.3482C37.9707 14.3934 37.773 14.5125 37.6278 14.4674C37.2043 14.3277 36.926 14.0073 36.8776 13.5391C36.8494 13.2639 36.8736 12.9846 36.8736 12.6355C36.2484 12.4999 35.6594 12.3439 35.0625 12.2412C33.3401 11.9455 31.6178 11.9003 29.9882 12.6478C27.3341 13.8636 24.676 13.765 22.0582 12.656C19.9002 11.7442 17.714 11.3581 15.3947 11.6456C10.4777 12.2494 6.63771 14.6357 4.02797 18.9156C2.45486 21.499 2.16041 24.2632 3.4794 27.1014C3.71738 27.6107 3.91906 28.1405 4.10461 28.6745C4.5483 29.956 4.68948 31.2744 4.3668 32.6011C4.14898 33.5047 3.85856 34.3918 3.58428 35.2831C3.30999 36.1826 3.4673 36.4455 4.37083 36.4496C5.62124 36.4578 6.87166 36.4373 8.12611 36.4167C8.32779 36.4126 8.52543 36.3428 8.93686 36.2607C8.56173 35.9115 8.35199 35.661 8.09384 35.4885C7.32745 34.9833 7.29922 34.8354 7.94056 34.1577C8.53754 33.5252 9.17484 32.9297 9.73954 32.2643C11.1311 30.6255 12.1234 28.7772 12.2565 26.5633C12.2968 25.8897 12.2162 25.2079 12.1839 24.5302C12.1718 24.2879 12.2 24.0497 12.4824 24.0127C12.7688 23.9757 12.8737 24.1934 12.8817 24.4399C12.91 25.2572 12.9664 26.0787 12.9261 26.8919C12.8938 27.5285 12.7325 28.157 12.6195 28.8593C15.8101 29.804 18.9281 29.8245 22.0743 28.81ZM26.2894 32.4984C25.5028 32.0055 24.7768 31.6359 24.1516 31.1389C23.5264 30.6419 22.9939 30.0217 22.401 29.4302C21.9896 29.4384 22.0097 29.767 22.0097 30.0833C22.0097 31.8084 21.9977 33.5334 22.0057 35.2585C22.0098 36.1374 22.28 36.4291 23.1472 36.4414C24.0911 36.4537 25.0349 36.4209 25.9788 36.3962C26.1523 36.3921 26.3217 36.3182 26.4991 36.2771C26.3862 35.7555 26.0232 35.6117 25.6723 35.4351C24.922 35.0531 24.8897 34.934 25.3012 34.2152C25.6239 33.6566 25.9465 33.0981 26.2894 32.4984ZM13.394 36.236C13.3456 35.6117 12.8333 35.468 12.4098 35.2421C11.7644 34.897 11.7402 34.819 12.0105 34.1249C12.3453 33.2582 12.7002 32.3998 12.9906 31.5167C13.1641 30.9951 13.2326 30.4406 13.3537 29.8656C12.9584 29.7218 12.6558 29.611 12.317 29.4877C11.4296 31.6112 10.0219 33.2336 8.48106 34.6424C8.89652 35.201 9.28778 35.7267 9.74358 36.3428C10.5745 36.4825 12.7647 36.4455 13.394 36.236ZM2.68882 19.9054C1.93857 19.9013 1.40613 20.271 1.22059 20.8953C1.04714 21.4867 1.30529 22.033 1.97487 22.4725C2.20478 21.6387 2.43873 20.8049 2.68882 19.9054Z" fill="#FFEB61"/>
<path d="M26.959 32.7982C26.6 33.4184 26.241 34.0468 25.878 34.6711C27.2494 35.5953 27.3623 35.8171 27.0921 37.0903C26.8944 37.1109 26.6807 37.1479 26.4669 37.152C25.3818 37.1602 24.2968 37.1684 23.2158 37.1602C21.8524 37.1519 21.2635 36.5318 21.2595 35.1147C21.2595 33.669 21.2595 32.2273 21.2595 30.7815C21.2595 30.5022 21.2595 30.2229 21.2595 29.8245C18.8353 30.3626 16.4757 30.342 14.1765 30.0217C13.6844 31.5578 13.2125 33.0241 12.7244 34.552C13.2286 34.8683 13.8861 35.1188 14.0716 35.8623C14.1765 36.2812 14.2451 36.6878 13.9748 37.152C13.753 37.152 13.5069 37.152 13.2609 37.152C10.3123 37.1561 7.36779 37.1602 4.41923 37.1643C4.25385 37.1643 4.08444 37.1766 3.91907 37.156C2.99134 37.0369 2.53151 36.2976 2.81386 35.3776C3.00747 34.7574 3.20512 34.1372 3.4189 33.5252C4.07234 31.6646 3.8989 29.8574 3.12445 28.0748C2.83403 27.4012 2.55167 26.7235 2.34193 26.0212C2.16848 25.4297 2.05958 24.8095 2.01521 24.1934C1.97487 23.6882 1.85386 23.3555 1.41017 23.0228C0.0629454 22.0289 0.175887 20.1724 1.58765 19.3715C1.86596 19.2113 2.22092 19.1045 2.53554 19.1127C2.9631 19.1209 3.17688 18.9361 3.37453 18.5829C5.0162 15.6872 7.42022 13.65 10.3809 12.2782C13.4545 10.8529 16.6652 10.4627 19.9768 11.1897C20.7311 11.354 21.4652 11.6374 22.1792 11.9455C23.3973 12.4712 24.6719 12.7628 25.9748 12.8285C26.9711 12.8778 27.9956 12.7423 28.9032 12.2987C31.4 11.0788 33.9573 11.1938 36.5509 11.8305C36.9825 11.9373 37.3576 11.9947 37.8174 11.773C38.4104 11.4895 39.0598 11.5881 39.6245 12.0276C39.9512 12.2823 40.3021 12.5164 40.6692 12.7094C43.2507 14.0648 45.4127 15.9501 47.3851 18.09C47.4416 18.1516 47.4739 18.2296 47.5384 18.3364C47.1189 19.3468 46.5098 20.2463 45.7918 21.0801C45.5418 21.3717 45.2836 21.4251 44.9085 21.3594C43.5976 21.1335 42.2826 20.9076 40.9596 20.7638C39.1445 20.5708 37.3415 20.772 35.6191 21.3799C33.0295 22.2959 31.5774 24.3125 30.5932 26.896C30.7304 26.9823 30.8353 27.0357 30.92 27.1055C33.7798 29.4795 35.0826 32.6832 35.5989 36.2935C35.7038 37.0287 35.611 37.1191 34.8527 37.1273C33.9613 37.1355 33.0739 37.1068 32.1825 37.1437C31.6904 37.1643 31.4403 36.9794 31.2185 36.54C30.3069 34.7533 28.8185 33.4636 26.959 32.7982ZM22.0743 28.81C21.9129 28.0173 21.7193 27.3355 21.6467 26.6414C21.5782 25.9719 21.6145 25.286 21.6346 24.6124C21.6427 24.3783 21.6508 24.0497 22.0178 24.0784C22.3687 24.1072 22.3486 24.3906 22.3203 24.6575C22.3042 24.8259 22.28 24.9944 22.2719 25.1628C22.1469 27.7627 23.0666 29.8081 25.3536 31.106C25.886 31.4099 26.4386 31.6769 26.9872 31.9521C27.4591 32.1903 27.9472 32.3998 28.4111 32.6586C29.96 33.5211 31.1781 34.7286 31.9768 36.3633C32.965 36.3798 33.921 36.425 34.889 36.3182C34.8769 36.1087 34.889 35.9937 34.8648 35.8869C34.7196 35.2544 34.5905 34.6137 34.409 33.9935C33.3159 30.2312 31.1943 27.3807 27.4793 25.9596C27.3502 25.9103 27.205 25.8651 27.1163 25.7665C27.0396 25.6803 26.9751 25.5037 27.0074 25.4092C27.0437 25.3065 27.2212 25.1792 27.3139 25.1956C27.5842 25.2408 27.8504 25.3312 28.1045 25.4462C28.7297 25.7337 29.3428 26.0417 29.9963 26.358C30.1939 25.939 30.3674 25.5529 30.5569 25.1792C31.6662 22.9695 33.2837 21.3389 35.6635 20.6036C36.8131 20.2463 37.9989 20.1067 39.1929 20.0533C41.008 19.9752 42.7989 20.156 44.5656 20.5667C45.0174 20.6694 45.328 20.5667 45.5781 20.2094C45.9774 19.6343 46.3646 19.0552 46.7155 18.5377C46.2517 18.0284 45.8604 17.5889 45.4611 17.1576C43.5855 15.1286 41.1492 13.9088 38.8863 12.4383C38.3781 12.1098 37.5996 12.5492 37.527 13.1202C37.4786 13.4939 37.7166 13.6664 37.9667 13.8677C38.0796 13.958 38.0877 14.1839 38.1441 14.3482C37.9707 14.3934 37.773 14.5125 37.6278 14.4674C37.2043 14.3277 36.926 14.0073 36.8776 13.5391C36.8494 13.2639 36.8736 12.9846 36.8736 12.6355C36.2484 12.4999 35.6594 12.3439 35.0625 12.2412C33.3401 11.9455 31.6178 11.9003 29.9882 12.6478C27.3341 13.8636 24.676 13.765 22.0582 12.656C19.9002 11.7442 17.714 11.3581 15.3947 11.6456C10.4777 12.2494 6.63771 14.6357 4.02797 18.9156C2.45486 21.499 2.16041 24.2632 3.4794 27.1014C3.71738 27.6107 3.91906 28.1405 4.10461 28.6745C4.5483 29.956 4.68948 31.2744 4.3668 32.6011C4.14898 33.5047 3.85856 34.3918 3.58428 35.2831C3.30999 36.1826 3.4673 36.4455 4.37083 36.4496C5.62124 36.4578 6.87166 36.4373 8.12611 36.4167C8.32779 36.4126 8.52543 36.3428 8.93686 36.2607C8.56173 35.9115 8.35199 35.661 8.09384 35.4885C7.32745 34.9833 7.29922 34.8354 7.94056 34.1577C8.53754 33.5252 9.17484 32.9297 9.73954 32.2643C11.1311 30.6255 12.1234 28.7772 12.2565 26.5633C12.2968 25.8897 12.2162 25.2079 12.1839 24.5302C12.1718 24.2879 12.2 24.0497 12.4824 24.0127C12.7688 23.9757 12.8737 24.1934 12.8817 24.4399C12.91 25.2572 12.9664 26.0787 12.9261 26.8919C12.8938 27.5285 12.7325 28.157 12.6195 28.8593C15.8101 29.804 18.9281 29.8245 22.0743 28.81ZM26.2894 32.4984C25.5028 32.0055 24.7768 31.6359 24.1516 31.1389C23.5264 30.6419 22.9939 30.0217 22.401 29.4302C21.9896 29.4384 22.0097 29.767 22.0097 30.0833C22.0097 31.8084 21.9977 33.5334 22.0057 35.2585C22.0098 36.1374 22.28 36.4291 23.1472 36.4414C24.0911 36.4537 25.0349 36.4209 25.9788 36.3962C26.1523 36.3921 26.3217 36.3182 26.4991 36.2771C26.3862 35.7555 26.0232 35.6117 25.6723 35.4351C24.922 35.0531 24.8897 34.934 25.3012 34.2152C25.6239 33.6566 25.9465 33.0981 26.2894 32.4984ZM13.394 36.236C13.3456 35.6117 12.8333 35.468 12.4098 35.2421C11.7644 34.897 11.7402 34.819 12.0105 34.1249C12.3453 33.2582 12.7002 32.3998 12.9906 31.5167C13.1641 30.9951 13.2326 30.4406 13.3537 29.8656C12.9584 29.7218 12.6558 29.611 12.317 29.4877C11.4296 31.6112 10.0219 33.2336 8.48106 34.6424C8.89652 35.201 9.28778 35.7267 9.74358 36.3428C10.5745 36.4825 12.7647 36.4455 13.394 36.236ZM2.68882 19.9054C1.93857 19.9013 1.40613 20.271 1.22059 20.8953C1.04714 21.4867 1.30529 22.033 1.97487 22.4725C2.20478 21.6387 2.43873 20.8049 2.68882 19.9054Z" stroke="#FFEB61" stroke-width="0.6" mask="url(#path-1-outside-1_784_3302)"/>
</svg>
