<svg width="48" height="49" viewBox="0 0 48 49" fill="none" xmlns="http://www.w3.org/2000/svg">
<path d="M40.489 23.4824C39.4378 22.0602 37.9539 21.1327 36.2225 20.6381C37.7065 19.5251 38.3867 17.9792 38.634 16.1861C38.8195 14.9494 38.7577 13.7746 38.5722 12.5997C37.892 8.14775 35.4187 5.05608 31.0903 3.63392C28.7407 2.83009 26.2674 2.95375 23.8559 3.44842C21.8154 3.88125 19.9604 4.62325 18.3527 6.04542C16.8687 7.34392 16.0649 9.01341 16.3122 10.9921C16.374 11.3631 16.1885 11.3631 15.9412 11.4249C14.0862 11.9196 12.8495 13.0944 12.293 14.9494C11.9839 16.0006 12.0457 17.1136 12.1694 18.1647C12.293 18.9686 12.4167 19.7106 12.5404 20.5144C12.4167 20.5144 12.293 20.5762 12.1694 20.5762C10.0052 21.0091 8.58303 22.2457 7.9647 24.3481C7.28453 26.5741 7.47004 28.8001 8.45937 30.9024C9.44871 32.8811 10.9327 34.3032 13.1587 34.7979C14.9519 35.1689 16.5595 34.8597 18.1672 34.0559C18.4145 33.9322 18.6 33.9322 18.7855 34.1796C19.8367 35.2307 20.5169 36.4056 20.9497 37.8277C21.0734 38.3224 21.197 38.8171 21.0115 39.3117C20.7024 40.3011 20.455 41.3522 20.0222 42.3416C19.2184 44.0729 18.1672 45.4332 16.9305 46.4844C17.6107 46.4226 18.229 46.4226 18.9092 46.4226C19.0329 46.4226 19.1565 46.4226 19.2802 46.4226C20.826 44.7531 21.8154 42.6507 22.4337 40.3629C22.9283 38.4461 22.9902 36.4674 23.052 34.5506C23.1138 32.2627 23.052 29.9131 23.1139 27.6252C23.1139 24.9046 23.4849 22.2457 24.1032 19.5869C24.7215 16.6189 25.3399 13.6509 25.9582 10.6829C26.1437 9.75541 26.5147 8.88975 27.0712 8.14775C27.6895 7.34392 28.4315 7.15842 29.359 7.52942C30.7812 8.14775 31.4613 9.50808 31.0903 11.0539C30.843 12.2287 30.1628 13.0944 29.2972 13.9601C27.7514 15.4441 26.5147 17.1754 25.649 19.1541C24.3505 22.1221 23.9177 25.2756 24.165 28.4909C24.3505 31.7681 25.4635 34.7361 26.7002 37.7659C27.8132 40.4247 28.617 43.2072 28.8644 46.1134C28.8644 46.2989 28.8644 46.4844 28.8644 46.6081C29.359 46.6081 29.9155 46.5462 30.472 46.5462C30.3483 44.3202 29.9155 42.1561 29.2353 39.9919C28.8025 38.7552 28.3697 37.4567 27.875 36.2201C27.7514 35.8491 27.6895 35.4781 27.875 35.1071C28.1842 34.3651 28.4934 33.5612 28.8644 32.8192C29.8537 30.9642 31.3995 29.7276 33.5019 29.2947C34.182 29.1711 34.8003 29.1092 35.4805 28.9856C37.0882 28.8001 38.0775 27.8726 38.263 26.3886C38.3248 25.8321 38.2012 25.2137 38.1394 24.6572C38.0775 24.2862 37.8302 24.0389 37.521 24.0389C36.9027 24.0389 36.2225 23.9771 35.6042 24.1007C34.6767 24.2862 34.0583 24.9664 33.8728 25.8939C33.7492 26.4504 33.811 27.0069 33.7492 27.6871C32.2652 27.9962 30.7194 28.4291 29.4827 29.5421C28.246 30.5932 27.3185 31.8917 26.8239 33.4994C26.762 33.4376 26.7002 33.3757 26.7002 33.3139C26.02 31.3352 25.7109 29.3566 26.391 27.3161C27.9987 22.6167 33.0072 20.5144 37.2737 22.8022C39.376 23.9152 40.5508 26.3267 40.1798 28.6146C39.8707 30.4696 38.7577 31.8299 37.2119 32.8811C36.1607 33.5612 35.0477 34.0559 33.811 34.0559C32.8835 33.9941 32.2652 33.4994 32.0797 32.5719C32.0178 32.2009 32.1415 31.9536 32.5125 31.8917C32.8217 31.8917 33.0072 32.0154 33.1309 32.3246C33.1927 32.5101 33.3782 32.7574 33.5019 32.7574C33.9347 32.7574 34.3057 32.6956 34.7385 32.6956C34.8622 31.6444 34.3057 30.7169 33.3163 30.5314C32.8835 30.4077 32.327 30.4077 31.8942 30.5314C30.9049 30.7169 30.5339 31.3352 30.5957 32.3246C30.6575 33.0047 30.843 33.6849 31.2759 34.2414C32.2034 35.5399 33.5019 35.7872 34.9859 35.5399C37.3355 35.1071 39.1905 33.9322 40.5508 32.0154C42.344 29.2947 42.344 25.9557 40.489 23.4824ZM36.1607 25.4611C36.4698 25.3992 36.779 25.5229 36.779 25.8939C36.8408 26.4504 36.6553 26.8832 36.1607 27.1924C35.9752 27.3161 35.7278 27.3779 35.5424 27.3161C35.4187 27.2542 35.3568 26.9451 35.2332 26.7596C35.3568 26.0794 35.666 25.6466 36.1607 25.4611ZM21.568 35.1071C20.3932 33.1284 18.6619 31.8299 16.745 30.6551C16.9305 30.3459 17.116 30.0367 17.2397 29.7276C17.5489 29.1092 17.6725 28.4909 17.5489 27.8107C17.4252 26.8214 16.9305 26.0794 15.9412 25.8321C15.0137 25.5847 13.9007 25.9557 13.2824 26.7596C12.6022 27.6252 12.5404 28.7382 13.2824 29.6657C13.7152 30.2222 14.2099 30.7169 14.7664 31.0879C15.4465 31.6444 16.1885 32.0154 16.9305 32.5101C17.0542 32.5719 17.1779 32.6956 17.3015 32.8192C17.1779 32.8811 17.116 32.9429 17.0542 33.0047C14.2717 34.1796 11.4274 33.2521 10.0052 30.5932C9.13954 28.9237 8.8922 27.1924 9.2632 25.3374C9.69603 23.4206 11.1182 22.1839 13.0969 21.9366C13.5915 21.8747 14.0244 21.8747 14.519 21.8747C15.9412 21.9366 16.9924 22.6167 17.7962 23.7916C19.4657 26.0794 20.7024 28.5527 21.2589 31.3352C21.6299 32.6337 21.6299 33.8704 21.568 35.1071ZM16.1267 28.4291C16.003 28.6764 15.8175 29.1092 15.5702 29.5421C15.5702 29.6039 15.3229 29.6039 15.261 29.6039C14.7045 29.2947 14.4572 28.8619 14.4572 28.2436C14.4572 27.7489 14.89 27.3161 15.3847 27.3161C15.7557 27.3161 16.1267 27.6871 16.1267 28.4291ZM22.8047 18.5357C22.4955 18.1647 22.1864 17.7937 21.8772 17.5464C20.826 16.5571 19.2802 16.3716 18.229 17.1136C16.8069 18.0411 16.8687 20.3289 18.3527 21.0709C19.2184 21.5037 20.2077 21.2564 20.7024 20.3907C20.9497 20.0197 21.0734 19.5869 21.2589 19.0922C21.6917 19.8961 22.1863 20.6381 22.1245 21.5656C22.0009 23.2969 21.8154 25.0901 21.6917 26.8214C21.6917 26.8214 21.6917 26.8832 21.6299 27.0069C21.4444 26.5741 21.2589 26.2649 21.0734 25.8939C20.3932 24.5954 19.5894 23.4206 18.6619 22.3076C17.5489 21.0091 16.1885 20.4526 14.519 20.3289C14.2099 20.3289 14.0862 20.2052 14.0862 19.9579C13.9625 18.8449 13.6534 17.6701 13.6534 16.5571C13.6534 15.1349 14.148 13.8982 15.5084 13.1562C16.4359 12.6616 17.4252 12.6616 18.4145 12.9089C20.5787 13.3417 22.0627 14.5784 22.8665 16.6189C23.052 17.2991 22.9284 17.8556 22.8047 18.5357ZM19.8985 18.5976C19.8367 18.8449 19.7749 19.0922 19.5894 19.3396C19.4657 19.4632 19.2184 19.6487 19.0329 19.5869C18.9092 19.5869 18.7855 19.2777 18.7237 19.2159C18.7237 18.5976 19.0947 18.1647 19.5275 18.1647C19.7749 18.1647 19.9604 18.2884 19.8985 18.5976ZM28.5552 5.73625C27.6277 5.67442 26.8239 6.10725 26.2674 6.78742C25.8345 7.34392 25.4635 7.96225 25.0307 8.58058C24.536 7.96225 23.9795 7.46758 23.2375 7.15842C22.1864 6.72558 21.197 6.72558 20.2695 7.46758C19.4657 8.08592 19.1565 9.38441 19.5275 10.3737C19.7749 11.0539 20.2695 11.4867 20.9497 11.5486C21.6917 11.6722 22.3719 11.4249 22.8047 10.8066C23.1139 10.3737 23.2994 9.87908 23.5467 9.44625C23.9795 10.0646 24.2887 10.7447 24.165 11.4867C24.0414 12.5379 23.794 13.5891 23.6085 14.7639C23.4849 14.5784 23.3612 14.5166 23.2994 14.3929C22.0627 12.6616 20.3932 11.7341 18.3527 11.4249C17.9817 11.3631 17.858 11.1776 17.858 10.8684C17.6725 9.44625 18.229 8.27142 19.2184 7.28208C20.5787 6.04542 22.2482 5.30342 24.0414 4.93242C26.391 4.43775 28.7407 4.37592 31.0285 5.17975C34.3675 6.41642 36.1607 8.88975 36.9645 12.2287C37.0263 12.5379 37.0882 12.9089 37.0882 13.2799C35.666 12.1051 34.0583 11.7959 32.327 12.3524C32.4507 11.8577 32.5743 11.3631 32.698 10.8066C33.2545 7.96225 30.6575 5.85992 28.5552 5.73625ZM22.1245 8.82792C22.0009 9.13708 21.8154 9.44625 21.6299 9.69358C21.568 9.81725 21.2589 9.87908 21.1352 9.81725C21.0115 9.75541 20.8879 9.50808 20.8879 9.38442C20.826 8.88975 21.3207 8.39508 21.8154 8.39508C22.1245 8.45692 22.2482 8.58058 22.1245 8.82792ZM33.6874 20.2052C32.4507 20.5144 31.214 19.5869 31.0903 18.4121C31.0285 17.7937 31.3995 17.4227 31.8324 17.6701C32.0179 17.7319 32.1415 18.0411 32.2034 18.2266C32.2652 18.4739 32.327 18.5357 32.5744 18.5357C32.8217 18.5357 33.0072 18.4739 33.2545 18.4739C33.8728 18.4121 33.8729 18.4121 33.811 17.7937C33.6874 16.5571 32.3889 15.6914 31.0285 16.0624C29.7919 16.4334 29.1735 17.5464 29.5445 18.9686C29.73 19.7106 30.101 20.3289 30.7812 20.8854C28.4933 21.6892 26.762 23.0496 25.7727 25.2756C25.7109 25.2756 25.7109 25.2756 25.649 25.2137C25.7109 24.6572 25.7727 24.1007 25.8964 23.6061C26.5147 20.6381 27.6895 17.9792 29.73 15.7532C30.7194 14.7021 31.7705 13.8982 33.2545 13.7127C34.1202 13.5891 34.924 13.6509 35.666 14.1456C36.6554 14.8257 37.15 16.0006 36.779 17.1136C36.3462 18.7212 35.295 19.7724 33.6874 20.2052Z" fill="#FFEB61"/>
<path d="M11.4896 6.97297C11.0568 6.4783 11.0568 2.89197 11.5515 2.58281C12.2935 2.02631 13.8393 2.58281 13.1591 5.11797C12.6645 6.72564 12.0461 7.5913 11.4896 6.97297Z" fill="#FFEB61"/>
<path d="M10.006 9.81737C9.51135 10.1265 6.35785 9.44637 6.17235 8.88987C5.86318 8.08604 6.72885 6.72571 8.76935 7.83871C10.0679 8.64254 10.6862 9.44637 10.006 9.81737Z" fill="#FFEB61"/>
<path d="M11.3043 10.6212C11.2425 10.0028 13.0356 7.77683 13.5303 7.83867C14.3341 8.02417 15.0761 9.44633 13.3448 10.5593C12.2318 11.3013 11.3661 11.3632 11.3043 10.6212Z" fill="#FFEB61"/>
<path d="M7.09979 12.7235C7.47079 12.2906 10.2533 12.167 10.5006 12.6616C10.8716 13.4036 10.3151 15.0113 8.39829 14.3311C7.22346 13.9601 6.60513 13.28 7.09979 12.7235Z" fill="#FFEB61"/>
</svg>
