<svg width="48" height="48" viewBox="0 0 48 48" fill="none" xmlns="http://www.w3.org/2000/svg">
<path d="M37.4837 20.8149C37.6516 21.909 37.8574 22.9307 37.9603 23.9573C38.3828 28.1793 36.6334 31.5771 32.9667 34.2375C30.6215 35.9388 27.9134 37.0473 25.1621 38.0932C24.6313 38.2956 24.0951 38.4884 23.5156 38.7004C23.5156 39.4378 23.5156 40.1511 23.5156 40.8644C24.3171 41.0765 28.7529 41.1102 29.9391 40.9126C29.8633 39.6933 29.3704 39.2209 28.0489 39.1679C27.3177 39.139 26.5865 39.1631 25.8066 39.1631C25.8066 38.8065 25.8066 38.551 25.8066 38.1847C26.8248 38.1847 27.7997 38.098 28.7421 38.2088C29.8687 38.3341 30.6107 38.9992 30.9952 39.9487C31.1252 40.2668 31.1956 40.6042 31.3202 41.0186C32.268 41.0186 33.2212 41.0186 34.2503 41.0186C34.2503 41.3994 34.2503 41.6886 34.2503 42.0693C33.8116 42.0693 33.4325 42.0693 33.0533 42.0693C24.6692 42.0741 16.2905 42.079 7.90632 42.079C6.02151 42.079 5.79403 41.7512 6.69852 40.2909C12.3638 31.1289 18.0399 21.9716 23.6997 12.8096C24.0139 12.2987 24.2251 11.7396 24.523 11.2143C25.0971 10.207 25.6983 9.21419 26.3319 8.13942C25.6983 7.82132 25.005 7.46467 24.2088 7.06464C24.3984 6.77065 24.5717 6.49593 24.7721 6.18748C25.7416 6.6598 26.619 7.08874 27.5127 7.52732C31.1144 5.42598 34.7215 5.36333 38.399 7.47431C39.2548 7.06465 40.1322 6.64533 41.1071 6.18265C41.3183 6.48147 41.5133 6.75137 41.7462 7.0791C40.9609 7.45503 40.2568 7.79241 39.4335 8.18279C41.2913 10.1733 42.1362 12.3951 41.7029 14.9302C41.275 17.4171 39.7964 19.3257 37.4837 20.8149ZM38.2907 8.81416C36.2976 9.84555 34.7107 11.2577 33.5679 12.9686C33.9524 13.8892 34.3261 14.723 34.6403 15.5664C34.7432 15.8459 34.8298 16.2122 34.7107 16.4628C34.1636 17.6195 33.5408 18.7521 32.9504 19.8944C32.8475 19.8944 32.7446 19.8944 32.6417 19.8896C32.138 18.8967 31.6506 17.8991 31.1252 16.9207C30.8382 16.3809 30.8436 15.8652 31.0981 15.3254C31.4664 14.5302 31.813 13.7301 32.1651 12.9349C30.9248 11.0986 29.0833 9.50336 27.4477 8.87199C24.5825 11.7396 24.6909 14.5977 27.5885 17.4557C27.2527 17.6918 26.9981 17.8702 26.7327 18.0533C25.4004 17.0219 24.8317 15.6724 24.2251 14.2989C23.1418 15.605 9.33617 38.1076 9.21701 38.7968C10.2027 37.9968 11.1127 37.2497 12.028 36.5123C14.6169 34.4206 17.0271 32.1795 19.1718 29.7119C21.8041 26.69 23.5914 23.3211 24.6963 19.6438C24.7234 19.5522 24.81 19.4799 24.8913 19.3691C25.0483 19.398 25.2054 19.4076 25.3408 19.4606C25.5087 19.5233 25.6549 19.6197 25.8174 19.7112C25.0537 22.5741 23.8568 25.2104 22.1507 27.6684C19.8868 30.9264 17.0433 33.7459 13.929 36.3581C13.3008 36.8883 12.6725 37.4184 12.0442 37.9486C12.3042 37.9919 12.4775 37.9389 12.6238 37.8522C14.644 36.6955 16.7075 35.5918 18.6681 34.3532C21.6578 32.4639 24.3063 30.242 26.4457 27.572C28.3521 25.1959 29.3108 22.5452 29.3379 19.6293C29.3433 19.2245 29.3379 18.8196 29.3379 18.41C29.7928 18.41 30.0907 18.41 30.367 18.41C30.4157 18.4726 30.4428 18.5015 30.4536 18.5353C30.4753 18.6365 30.5078 18.7377 30.5078 18.8389C30.6323 21.8897 29.8307 24.7236 28.0218 27.3262C26.4944 29.5191 24.55 31.3891 22.3728 33.076C19.4697 35.3315 16.2471 37.1871 12.9 38.8739C12.5642 39.0426 12.2392 39.2258 11.7572 39.4812C12.0767 39.5149 12.158 39.5439 12.223 39.5246C15.9763 38.5269 19.6701 37.3991 23.1798 35.8328C25.8607 34.6327 28.363 33.2013 30.4536 31.2493C32.9288 28.9311 34.0662 26.2273 33.5787 23.0271C33.4812 22.3813 33.4108 21.7355 33.3241 21.0607C34.2395 20.7426 35.2685 20.7667 36.0105 20.1739C35.8589 19.6775 35.7235 19.2148 35.5664 18.6895C35.9835 18.6606 36.3193 18.6365 36.6659 18.6124C36.8284 18.9931 36.9692 19.3257 37.1154 19.6727C41.4971 17.0653 41.692 11.3637 38.2907 8.81416ZM34.6511 21.8174C34.689 22.2271 34.7107 22.5644 34.754 22.9018C35.1819 26.2514 34.142 29.1721 31.5856 31.6686C29.4408 33.77 26.8356 35.3074 24.0301 36.5943C20.3363 38.2908 16.415 39.4764 12.445 40.5463C12.093 40.6427 11.7518 40.7536 11.4051 40.8596C11.4214 40.8933 11.4322 40.9271 11.4485 40.9608C15.0231 40.9608 18.5977 40.9608 22.2915 40.9608C22.2915 39.9005 22.2915 38.9173 22.2915 37.9727C23.9055 37.3654 25.4112 36.8256 26.8952 36.2424C28.9967 35.4183 30.9736 34.4062 32.7175 33.0615C35.3173 31.0614 36.7796 28.5648 36.8771 25.4899C36.9204 24.1164 36.8121 22.7524 36.303 21.3933C35.7343 21.5427 35.2523 21.6632 34.6511 21.8174ZM28.6934 8.15388C29.43 8.71295 30.1991 9.23346 30.8869 9.83591C31.5964 10.4576 32.2247 11.1565 32.8205 11.7445C34.2449 10.501 35.6585 9.26238 37.0721 8.02856C35.2035 6.58269 30.7407 6.58269 28.6934 8.15388ZM32.9288 14.4193C31.9593 15.5857 31.8456 16.4387 32.8692 17.4364C33.7791 16.4436 33.5137 15.4363 32.9288 14.4193Z" fill="#FFEB61"/>
<path d="M31.1251 12.7132C31.136 13.5807 30.2586 14.3856 29.2891 14.4049C28.2492 14.4242 27.2743 13.6434 27.2472 12.7759C27.2201 11.8553 28.0759 11.0746 29.1483 11.0408C30.1611 11.0071 31.1143 11.8168 31.1251 12.7132ZM30.1286 12.8337C29.7332 12.4915 29.5274 12.2071 29.2349 12.0867C28.9154 11.9517 28.4767 12.3132 28.4767 12.6554C28.4712 13.0602 28.7421 13.3349 29.1591 13.3157C29.4245 13.3108 29.679 13.0699 30.1286 12.8337Z" fill="#FFEB61"/>
<path d="M38.4534 12.7275C38.4479 13.6818 37.5705 14.4385 36.509 14.4096C35.507 14.3806 34.6621 13.6143 34.6675 12.742C34.6729 11.8214 35.5991 11.031 36.6227 11.0648C37.6789 11.0937 38.4588 11.807 38.4534 12.7275ZM35.6424 12.6842C36.054 12.983 36.2653 13.2336 36.5415 13.3203C36.8989 13.4264 37.2672 13.0553 37.2402 12.689C37.2077 12.3227 36.9531 12.0817 36.5631 12.1492C36.2923 12.1925 36.0594 12.4335 35.6424 12.6842Z" fill="#FFEB61"/>
</svg>
