<svg width="48" height="48" viewBox="0 0 48 48" fill="none" xmlns="http://www.w3.org/2000/svg">
<path d="M11.9751 18.1799C12.5388 17.9769 13.0424 17.7639 13.5661 17.6161C14.9743 17.2227 16.3749 17.3054 17.768 17.7239C18.9256 18.0721 20.0832 18.4179 21.2433 18.7512C23.2829 19.335 25.1897 18.9842 26.9812 17.8967C27.1416 17.799 27.2969 17.6963 27.4623 17.6111C27.798 17.4407 28.0411 17.4983 28.2015 17.774C28.3593 18.0471 28.2967 18.3252 28.016 18.5181C27.0138 19.1947 25.9263 19.6757 24.7412 19.9263C23.1952 20.2545 21.6918 20.0315 20.206 19.5755C19.2664 19.2874 18.3293 18.9817 17.3847 18.7061C15.4704 18.1498 13.6638 18.3778 11.9826 19.4828C11.3912 19.8712 11.0455 19.6833 11.0254 18.9666C10.9653 17.0549 10.2136 15.4939 8.68016 14.3338C7.92597 13.7625 7.14422 13.2238 6.41007 12.6274C5.62581 11.991 4.98437 11.2343 4.71377 10.0917C4.47323 10.3598 4.25273 10.5503 4.09738 10.7858C3.40834 11.8407 3.45093 13.329 4.29282 14.3563C4.79144 14.9652 5.41534 15.4813 6.01919 15.995C6.75835 16.6239 7.57518 17.1626 8.28678 17.8191C9.08858 18.5607 9.59472 19.5129 9.84027 20.5828C9.88537 20.7757 9.88787 21.0162 9.81521 21.1967C9.34916 22.3292 9.27149 23.5068 9.43937 24.6895C9.86532 27.7037 8.66262 29.9212 6.18206 31.5424C5.74358 31.828 5.30008 32.1061 4.84907 32.3742C4.64862 32.492 4.57596 32.6248 4.63108 32.8603C5.11717 34.9224 5.59073 36.9871 6.07933 39.0467C6.10689 39.1645 6.23718 39.3449 6.32237 39.3474C7.43988 39.3674 8.55739 39.3624 9.6799 39.3624C9.59221 38.6583 8.86558 38.1071 8.16651 38.1873C8.06879 38.1998 7.97107 38.2299 7.87085 38.2374C7.40981 38.2725 7.11666 38.0018 7.16426 37.5433C7.26449 36.6137 7.37724 35.6866 7.52256 34.7621C7.55013 34.5892 7.72803 34.3937 7.88839 34.2985C9.27901 33.4667 10.6847 32.6599 12.0803 31.838C13.6263 30.9285 15.1647 30.0039 16.7157 29.1019C17.4498 28.6759 18.214 28.6308 18.9332 29.1395C20.9402 30.5577 23.1927 31.2793 25.6156 31.5273C25.9088 31.5574 26.1995 31.6025 26.5653 31.6476C26.3423 30.9134 26.1393 30.2369 25.9289 29.5654C25.8512 29.3123 25.8211 29.0718 26.0591 28.8864C26.3774 28.6358 26.7657 28.7335 26.9035 29.1244C27.0739 29.6055 27.2117 30.0991 27.347 30.5902C28.1263 33.3865 28.9055 36.1828 29.6722 38.984C29.7524 39.2772 29.8727 39.3799 30.1834 39.3699C31.118 39.3423 32.0526 39.3499 32.9872 39.3424C33.0949 39.3424 33.2052 39.3248 33.3129 39.3148C33.2578 38.7185 32.5011 38.1597 31.8371 38.1923C31.6642 38.1998 31.4863 38.2173 31.3184 38.1873C30.9852 38.1246 30.7772 37.9267 30.8123 37.5609C31.0328 35.1805 30.9727 32.7726 31.4788 30.4198C31.6041 29.836 31.7619 29.2597 31.9223 28.6834C32.0401 28.26 32.2931 28.0821 32.6088 28.1623C32.9321 28.2425 33.0899 28.5657 32.9721 28.9841C32.8293 29.4877 32.6564 29.9814 32.5011 30.48C32.4735 30.5702 32.466 30.6679 32.4334 30.8408C32.7542 30.7305 33.0298 30.6654 33.2778 30.5426C36.3096 29.0743 38.2966 26.8143 38.5973 23.3415C38.6524 22.71 38.5447 22.0435 38.3968 21.4221C38.0786 20.0892 37.6902 18.7737 37.3219 17.4558C37.2543 17.2177 37.1615 16.9847 37.0688 16.7542C36.8834 16.3057 37.0764 15.995 37.5524 15.9724C38.8829 15.9023 40.2159 15.8246 41.5464 15.7569C42.5085 15.7093 43.165 15.2483 43.4932 14.3363C43.5108 14.2887 43.5333 14.2436 43.5509 14.1985C43.6461 13.9554 43.844 13.6898 43.8014 13.4768C43.7664 13.2964 43.4431 13.1737 43.2502 13.0233C43.1926 12.9782 43.1324 12.9281 43.0848 12.873C42.9019 12.67 42.7992 12.4019 42.9896 12.2015C43.1249 12.0586 43.393 11.9935 43.606 11.986C43.7739 11.9785 43.9468 12.1113 44.1547 12.1965C44.2374 11.9584 44.3176 11.7329 44.4178 11.4473C43.839 11.3546 43.3153 11.2669 42.7917 11.1867C41.7694 11.0288 40.7446 10.8935 39.7273 10.7081C39.4993 10.6655 39.2212 10.5102 39.1034 10.3223C38.7601 9.77352 38.5171 9.15965 37.8431 8.90408C37.0112 8.58837 36.1593 8.55329 35.3049 8.76126C33.5058 9.19724 32.0927 10.2546 31.0153 11.7079C30.2535 12.7327 29.6572 13.8802 28.9807 14.9677C28.8028 15.2558 28.8354 15.4964 29.0734 15.7369C29.7574 16.431 30.5317 16.9847 31.4663 17.2879C32.1002 17.4933 32.4861 17.3255 32.7968 16.7367C33.3405 15.7068 33.4908 14.5893 33.5284 13.4468C33.5309 13.334 33.5284 13.2213 33.5309 13.111C33.5409 12.6901 33.7238 12.4646 34.0445 12.4746C34.3703 12.4821 34.6058 12.7452 34.6033 13.1411C34.5958 14.3338 34.4505 15.5039 34.0195 16.6239C33.8065 17.1776 33.5084 17.6712 33.0373 18.0571C32.5963 18.4179 32.1052 18.5231 31.564 18.4004C30.1157 18.0771 28.9832 17.2503 28.0436 16.1403C27.778 15.8271 27.6176 15.4437 27.8156 15.0303C28.9782 12.5923 30.2986 10.2721 32.674 8.76877C33.4708 8.26514 34.3252 7.89431 35.2473 7.69386C36.3597 7.45082 37.4271 7.62119 38.462 8.06218C39.0909 8.33028 39.4968 8.83142 39.8175 9.4052C39.9428 9.63322 40.0931 9.74597 40.3612 9.78356C41.6692 9.96145 42.9746 10.1619 44.2825 10.3598C45.2522 10.5077 45.623 11.1215 45.3274 12.0461C45.1419 12.6274 44.9841 13.2162 44.7962 13.7975C44.6834 14.1533 44.5481 14.5016 44.4103 14.8499C43.9242 16.0551 43.0372 16.7041 41.7293 16.7818C40.7095 16.8419 39.6897 16.9171 38.6699 16.9847C38.5622 16.9922 38.4519 17.0047 38.3091 17.0198C38.5697 17.997 38.8253 18.9466 39.0708 19.8962C39.2688 20.6554 39.5469 21.4071 39.6246 22.1789C39.9102 25.0603 38.8378 27.4457 36.7932 29.4301C35.563 30.6228 34.1548 31.5073 32.4635 31.9007C32.3608 31.9257 32.223 32.0811 32.2155 32.1863C32.0952 33.825 31.9924 35.4636 31.8847 37.1274C32.02 37.1549 32.1378 37.185 32.258 37.205C33.6637 37.4631 34.5156 38.5681 34.4129 39.9888C34.3928 40.2519 34.2726 40.3797 34.017 40.3797C32.4585 40.3872 30.9 40.3872 29.3415 40.3997C29.0208 40.4022 28.9556 40.1767 28.888 39.9462C28.5071 38.6157 28.1288 37.2877 27.7554 35.9547C27.4848 34.9951 27.2067 34.0379 26.9612 33.0733C26.886 32.7726 26.7281 32.7025 26.45 32.6574C25.087 32.4419 23.7114 32.269 22.3684 31.9508C21.0279 31.6326 19.8051 30.9811 18.66 30.2169C18.0412 29.8035 17.535 29.8235 16.8861 30.2169C14.3178 31.7729 11.7195 33.2787 9.11614 34.7796C8.68517 35.0277 8.39201 35.2782 8.39953 35.8245C8.40454 36.2404 8.30181 36.6588 8.24669 37.1023C8.46217 37.1499 8.64258 37.1825 8.81797 37.2326C9.76008 37.4932 10.4416 38.0419 10.7248 39.0016C10.815 39.3098 10.9578 39.395 11.2735 39.3849C12.1454 39.3549 13.0199 39.3699 13.8919 39.3674C14.0372 39.3674 14.1825 39.3674 14.3278 39.3674C14.3579 39.3323 14.3855 39.2947 14.413 39.2597C14.2577 39.0392 14.1349 38.7786 13.9369 38.6057C13.5586 38.2724 13.0976 38.1522 12.5839 38.1797C12.3609 38.1923 12.1204 38.1346 11.9124 38.0495C11.7044 37.9618 11.6343 37.7638 11.6719 37.5183C11.8022 36.6563 11.9224 35.7919 12.0352 34.9274C12.0703 34.6568 12.1905 34.4789 12.4311 34.3436C14.0046 33.4541 15.5706 32.5546 17.1391 31.6576C17.3772 31.5223 17.6077 31.372 17.8482 31.2392C18.2391 31.0237 18.5122 31.0738 18.6801 31.382C18.853 31.6927 18.7603 31.9733 18.3894 32.1838C17.2644 32.8277 16.1369 33.4642 15.0094 34.1056C14.4255 34.4388 13.8367 34.7646 13.2654 35.1229C13.1301 35.2081 13.0099 35.391 12.9798 35.5488C12.8771 36.0575 12.8219 36.5736 12.7543 37.0347C13.2529 37.1975 13.7064 37.2953 14.1123 37.4907C15.0645 37.9542 15.5957 38.9715 15.5005 40.0214C15.4779 40.2744 15.3727 40.4123 15.1046 40.4097C14.7062 40.4072 14.3078 40.4123 13.9069 40.4123C11.2384 40.4123 8.56992 40.4072 5.90394 40.4173C5.51807 40.4198 5.31762 40.2895 5.22742 39.8961C4.66866 37.4932 4.08736 35.0953 3.52109 32.6949C3.37075 32.061 3.41335 32.0234 3.96709 31.6752C4.78893 31.1565 5.62832 30.6604 6.39754 30.0716C7.64033 29.1169 8.39953 27.8491 8.46718 26.2555C8.49475 25.589 8.39452 24.915 8.3394 24.2435C8.25421 23.1986 8.39201 22.1839 8.6977 21.1816C8.76786 20.9536 8.76034 20.6655 8.69018 20.4349C8.34691 19.2723 7.55765 18.4354 6.61303 17.7239C5.81624 17.125 4.98938 16.5587 4.24521 15.8998C3.07258 14.8624 2.42864 13.5545 2.60153 11.9509C2.73934 10.673 3.33818 9.66077 4.50329 9.04189C5.10965 8.72117 5.47798 8.89906 5.6183 9.56806C5.81874 10.5152 6.34492 11.2544 7.08408 11.8507C7.58771 12.2566 8.10888 12.645 8.64508 13.0108C10.4767 14.2511 11.7646 15.8522 11.9751 18.1799Z" fill="#FFEB61"/>
<path d="M43.7641 39.3675C43.6588 38.8238 43.3832 38.5081 42.9598 38.3703C42.6115 38.2575 42.2331 38.2049 41.8648 38.1924C41.3086 38.1723 41.0906 37.9894 41.1281 37.4257C41.2133 36.1578 41.306 34.89 41.4188 33.6246C41.4514 33.2663 41.3762 33.0383 41.053 32.8228C40.0157 32.1338 39.0009 31.4122 37.9886 30.6881C37.6052 30.4149 37.5927 30.0692 37.921 29.7936C38.1414 29.6056 38.372 29.6031 38.6025 29.771C39.8202 30.658 41.043 31.54 42.2482 32.4445C42.386 32.5472 42.4962 32.7953 42.4837 32.9682C42.4085 34.1984 42.3108 35.4287 42.1905 36.6564C42.158 36.9897 42.2431 37.12 42.5739 37.1776C43.6463 37.3655 44.4606 37.8942 44.7362 39.0167C44.8114 39.3249 44.8064 39.6582 44.8139 39.9814C44.8214 40.257 44.651 40.3923 44.388 40.3923C42.8044 40.3948 41.2234 40.3873 39.6423 40.3948C39.3391 40.3973 39.269 40.1894 39.2088 39.9714C38.8781 38.7962 38.5298 37.6261 38.2367 36.441C38.1064 35.9148 37.8683 35.5815 37.3597 35.351C36.3149 34.88 35.3026 34.3412 34.2803 33.8276C34.1024 33.7374 33.9345 33.6296 33.7616 33.5294C33.486 33.3691 33.3657 33.1586 33.5411 32.8479C33.6965 32.5723 33.9671 32.4871 34.2753 32.6424C35.0996 33.0534 35.9165 33.4793 36.7408 33.8927C37.287 34.1659 37.8282 34.4465 38.392 34.6845C38.7378 34.8323 38.9107 35.0654 39.0034 35.4162C39.3241 36.6063 39.6749 37.789 39.9931 38.9791C40.0708 39.2723 40.1961 39.3775 40.5017 39.3725C41.5666 39.355 42.6365 39.3675 43.7641 39.3675Z" fill="#FFEB61"/>
<path d="M37.3546 10.2922C37.748 10.3247 38.0863 10.7181 38.0587 11.104C38.0287 11.4924 37.6328 11.8481 37.2594 11.8206C36.856 11.7905 36.4677 11.3445 36.5077 10.9537C36.5428 10.5803 36.9613 10.2571 37.3546 10.2922Z" fill="#FFEB61"/>
</svg>
