<svg width="48" height="49" viewBox="0 0 48 49" fill="none" xmlns="http://www.w3.org/2000/svg">
<path d="M23.9484 47.2955C22.7096 47.2955 21.4709 47.2955 20.1805 47.2955C19.5095 47.2955 19.303 47.0328 19.3546 46.3498C19.5095 45.089 19.716 43.7757 19.9224 42.5148C20.3353 39.9406 20.6966 37.3664 21.1096 34.8448C21.1096 34.7397 21.058 34.5821 20.9547 34.5296C20.4386 34.1618 19.9224 33.8466 19.3546 33.5314C19.2514 33.4789 19.045 33.5314 18.9417 33.6365C17.8578 34.4245 16.6707 34.9499 15.3287 35.0549C13.1608 35.2651 11.1994 34.5821 9.59936 33.1112C6.65729 30.4844 6.03791 26.1241 8.20575 22.8144C8.3606 22.6042 8.30898 22.4466 8.20575 22.289C6.24437 19.137 6.50245 15.0393 8.82513 12.2024C10.5284 10.1536 12.7479 9.05035 15.4319 9.20795C15.948 9.20795 16.5158 9.36555 17.032 9.47062C17.29 9.52316 17.3933 9.47062 17.4965 9.26048C18.7869 6.68629 20.7483 4.74252 23.2258 3.32408C23.7419 3.00888 24.2065 3.06141 24.7226 3.32408C26.1679 4.1121 27.4066 5.11026 28.4905 6.31855C29.3164 7.21164 29.9874 8.20979 30.5035 9.26048C30.6068 9.41809 30.6584 9.47062 30.8648 9.41809C34.5811 8.26233 38.2458 10.2061 39.9491 13.3056C41.6008 16.3001 41.446 19.2946 39.7427 22.184C39.6394 22.3941 39.6394 22.5517 39.7427 22.7619C42.4783 27.1748 40.5169 32.9535 35.6651 34.5821C33.394 35.3701 31.2262 35.0024 29.2132 33.6365C28.9035 33.4264 28.6454 33.3738 28.3357 33.6365C27.9228 33.9517 27.5099 34.2144 27.0453 34.4245C26.8905 34.5296 26.7872 34.6347 26.8389 34.8448C27.4066 38.5747 28.026 42.3572 28.5938 46.0872C28.6454 46.2448 28.6454 46.4024 28.6454 46.56C28.6454 46.9277 28.4389 47.1904 28.0776 47.1904C27.9744 47.1904 27.8195 47.2429 27.6647 47.2429C26.4259 47.2955 25.1872 47.2955 23.9484 47.2955ZM18.1159 32.5858C17.6513 32.3757 17.29 31.9554 16.7223 32.0079C16.4126 32.0079 16.2061 31.8503 16.1029 31.5877C15.9997 31.2724 16.0513 31.0098 16.3093 30.7996C16.619 30.4844 17.032 30.4319 17.4449 30.6946C18.9933 31.6927 20.5418 32.6909 22.1419 33.7416C22.4516 33.9517 22.5548 34.1618 22.5032 34.4771C22.4516 34.8973 22.3999 35.3176 22.3483 35.7379C21.9354 38.5747 21.4709 41.4116 21.058 44.301C20.9547 44.8789 20.9031 45.4568 20.7999 46.0346C21.6773 46.0346 22.5032 46.0346 23.3806 46.0346C23.3806 45.877 23.3806 45.7194 23.3806 45.6144C23.3806 43.4079 23.3806 41.2015 23.3806 38.995C23.3806 36.2107 23.3806 33.4264 23.3806 30.6946C23.3806 30.537 23.329 30.3268 23.2258 30.2743C21.7289 29.3812 20.2321 28.5407 18.6836 27.7001C18.5288 27.595 18.2707 27.595 18.1159 27.595C17.4965 27.7001 16.8771 27.8577 16.3093 27.9628C15.8964 28.0678 15.4319 27.8577 15.3803 27.5425C15.277 27.1748 15.4835 26.9121 15.9997 26.7545C16.2577 26.7019 16.4642 26.6494 16.7739 26.5443C16.619 26.4393 16.5158 26.3867 16.4126 26.3342C15.8448 26.019 15.2254 25.7038 14.6577 25.3886C14.2964 25.1784 14.1931 24.8632 14.348 24.548C14.5028 24.1803 14.8125 24.0752 15.2254 24.2328C15.4319 24.3379 15.6383 24.443 15.7932 24.548C18.2707 25.9665 20.6966 27.3324 23.1226 28.7508C23.2258 28.8033 23.2774 28.8559 23.4323 28.9084C23.4323 28.2254 23.4323 27.6476 23.4323 27.0171C23.4323 26.7545 23.329 26.4918 23.1742 26.3342C20.7999 23.9701 18.4256 21.6586 16.0513 19.2946C15.69 18.9794 15.3803 18.6116 15.0706 18.2439C14.8641 17.9812 14.9157 17.666 15.1222 17.4033C15.3287 17.1407 15.69 17.1407 15.948 17.2983C16.0513 17.3508 16.1545 17.4559 16.2061 17.5609C18.4772 19.8725 20.7999 22.184 23.0709 24.443C23.1742 24.548 23.2774 24.6006 23.3806 24.7056C23.4323 24.6531 23.4323 24.6531 23.4323 24.6006C23.4323 23.1821 23.4323 21.7112 23.3806 20.2927C23.3806 20.1877 23.2774 20.0301 23.2258 19.925C22.8129 19.5047 22.3999 19.137 21.987 18.7167C21.2644 18.0337 20.4902 17.3508 19.7676 16.6153C19.4063 16.3001 19.4579 15.8798 19.7676 15.5646C20.0773 15.3545 20.387 15.407 20.7483 15.7222C21.4709 16.4052 22.1935 17.1407 22.9161 17.8236C23.0709 17.9812 23.2258 18.0863 23.4323 18.2964C23.4323 18.1388 23.4323 18.0337 23.4323 17.9812C23.4323 15.9324 23.4323 13.8835 23.4323 11.8872C23.4323 11.3619 23.6903 11.0992 24.1032 11.0992C24.5162 11.0992 24.7226 11.3619 24.7226 11.8872C24.7226 13.8835 24.7226 15.9324 24.7226 17.9287C24.7226 18.0337 24.7226 18.1914 24.7226 18.349C24.8259 18.2964 24.8259 18.2439 24.8775 18.2439C25.7549 17.4033 26.6324 16.5628 27.5099 15.7748C27.6647 15.6172 27.9228 15.5646 28.1292 15.5646C28.3873 15.5646 28.5938 15.7748 28.6454 16.0374C28.7486 16.3001 28.5938 16.5102 28.3873 16.6679C27.2518 17.7185 26.1162 18.8218 24.9807 19.925C24.8775 20.0301 24.7226 20.2402 24.7226 20.3978C24.7226 21.7637 24.7226 23.1821 24.7226 24.548C24.7226 24.6006 24.7226 24.7056 24.7742 24.7582C24.8259 24.7056 24.8775 24.7056 24.8775 24.7056C26.7872 22.8144 28.6454 20.9231 30.5552 18.9794C31.0713 18.454 31.5875 17.8761 32.1036 17.3508C32.4133 17.0881 32.7746 17.0881 33.0327 17.3508C33.2908 17.6135 33.2391 17.9812 32.9811 18.2964C32.8262 18.5066 32.6198 18.6642 32.4133 18.8743C30.1938 21.1333 27.9228 23.3923 25.7033 25.7038C25.3936 26.019 24.9291 26.2817 24.7742 26.7019C24.6194 27.1222 24.7226 27.595 24.7226 28.0678C24.7226 28.383 24.7226 28.6457 24.7226 28.9609C24.8259 28.9084 24.8259 28.9084 24.8775 28.9084C27.1485 27.595 29.368 26.3342 31.6391 25.0734C32.052 24.8107 32.5165 24.548 32.9811 24.3379C33.394 24.1278 33.8069 24.3904 33.8585 24.8632C33.9101 25.1784 33.7553 25.3886 33.4456 25.5462C32.9295 25.8614 32.3617 26.1241 31.8455 26.4393C31.6907 26.4918 31.5875 26.5969 31.381 26.7019C31.5875 26.7545 31.7423 26.7545 31.8455 26.807C32.052 26.8595 32.3101 26.9121 32.5165 27.0171C32.7746 27.1222 32.8778 27.3324 32.8262 27.6476C32.7746 27.9102 32.5682 28.0678 32.3617 28.1204C32.2068 28.1204 32.0004 28.1204 31.7939 28.1204C31.2262 28.0153 30.6584 27.9102 30.1422 27.7526C29.8325 27.7001 29.5745 27.7526 29.3164 27.8577C27.8712 28.6983 26.4259 29.5388 24.9807 30.3794C24.8259 30.4844 24.7226 30.5895 24.7226 30.7996C24.7226 32.6909 24.7226 34.5821 24.7226 36.4734C24.7226 39.5729 24.7226 42.6724 24.7226 45.8245C24.7226 46.1397 24.7742 46.1922 25.0839 46.1922C25.7549 46.1922 26.3743 46.1922 27.0453 46.1922C27.1486 46.1922 27.2518 46.1922 27.3034 46.1922C27.3034 46.1397 27.3034 46.0872 27.3034 46.0872C26.8905 43.513 26.5292 40.9388 26.1162 38.3646C25.9614 37.2088 25.7549 36.0005 25.6001 34.8448C25.5485 34.4245 25.6517 34.1618 26.013 33.9517C26.4259 33.7416 26.7872 33.4264 27.1485 33.2162C28.3873 32.4282 29.6261 31.6402 30.8132 30.7996C31.1745 30.5895 31.4326 30.6946 31.7423 30.9047C32.052 31.1148 32.1036 31.4826 32.0004 31.7978C31.8972 32.113 31.5875 32.2706 31.3294 32.2181C30.7616 32.1655 30.4519 32.5858 29.9874 32.7959C31.2262 33.7416 32.8262 34.1618 34.4263 33.8466C37.3684 33.2688 39.4846 30.9047 39.7427 27.8052C40.0007 24.8632 38.0394 22.0264 35.5618 21.1858C35.0457 21.0282 34.9425 20.713 35.2005 20.1877C35.6651 19.242 35.9231 18.2439 35.7683 17.1932C35.3554 14.8291 33.1875 13.6208 31.2778 14.1987C31.1229 14.2513 31.0197 14.2513 30.8648 14.2513C30.5552 14.2513 30.4003 14.0937 30.2971 13.831C30.1939 13.5683 30.2971 13.3056 30.5035 13.148C30.6068 13.043 30.7616 12.9904 30.8648 12.9904C32.9295 12.36 35.3554 13.3056 36.3877 15.302C37.1619 16.7729 37.2135 18.349 36.6974 19.8725C36.5941 20.1351 36.6458 20.2402 36.9038 20.3453C37.2651 20.5554 37.5748 20.7655 37.9361 21.0282C38.1942 21.2384 38.4523 21.4485 38.7104 21.7112C39.6394 20.0826 40.0007 18.349 39.6911 16.5102C38.9684 12.255 34.3747 8.94528 29.7293 11.4144C29.1099 11.7296 28.7486 11.6771 28.1809 11.2568C25.4969 9.10288 22.5032 9.20795 19.8192 11.3093C19.3546 11.572 19.045 11.6245 18.5288 11.3619C17.0836 10.6264 15.5867 10.2586 13.9867 10.5213C9.85744 11.2568 7.27668 15.5121 8.46383 19.6098C8.67029 20.2927 8.92836 20.9231 9.28967 21.4485C9.96067 20.9231 10.6317 20.4503 11.2511 19.9775C11.1478 19.1895 10.993 18.454 10.9414 17.7185C10.8897 14.6715 13.264 12.4651 16.2061 12.6752C16.619 12.7278 17.0836 12.8328 17.4449 13.043C17.703 13.148 17.8062 13.5158 17.703 13.7785C17.5997 14.0411 17.3417 14.1987 17.032 14.1462C16.8771 14.1462 16.7739 14.0937 16.619 14.0411C15.1738 13.6734 13.7286 14.1987 12.9027 15.4596C11.922 16.878 11.9737 18.2964 12.6963 19.8199C13.1092 20.6605 13.0576 20.713 12.1801 21.1333C8.20575 23.0245 7.22506 27.4374 9.28967 30.7471C10.7865 33.1112 13.5221 34.3194 16.1029 33.6365C16.8255 33.4264 17.4965 33.0586 18.1159 32.5858ZM29.368 9.8909C29.3164 9.78583 29.2648 9.68076 29.2132 9.57569C28.026 7.42178 26.3743 5.74067 24.2581 4.53238C24.0516 4.42731 23.8968 4.42731 23.7419 4.53238C21.6773 5.79321 19.974 7.47431 18.7869 9.62823C18.7353 9.7333 18.6836 9.8909 18.7353 9.94343C18.8385 9.99597 18.9933 10.0485 19.0966 9.99597C19.2514 9.94343 19.4063 9.83836 19.5611 9.7333C20.9547 8.78767 22.4516 8.26233 24.1032 8.26233C25.8066 8.26233 27.355 8.89274 28.7486 9.83836C28.9551 10.0485 29.1615 10.101 29.368 9.8909Z" fill="#FFEB61"/>
<path d="M34.8391 41.0964C35.252 40.7812 38.2457 41.2014 38.5038 41.6217C38.9167 42.3047 38.2457 43.5655 36.2327 42.6724C34.9423 42.1471 34.2713 41.4641 34.8391 41.0964Z" stroke="#FFEB61" stroke-width="1.5" stroke-miterlimit="10"/>
<path d="M32.6198 39.5203C32.4134 39.0474 33.3424 36.5258 33.807 36.4207C34.5296 36.2631 35.5619 37.1562 34.3747 38.7322C33.6005 39.7304 32.8779 40.1507 32.6198 39.5203Z" stroke="#FFEB61" stroke-width="1.5" stroke-miterlimit="10"/>
<path d="M31.8456 40.5186C32.3617 40.5711 34.0134 42.3048 33.8585 42.725C33.6521 43.3555 32.3617 43.8808 31.6391 42.2522C31.1746 41.2541 31.2262 40.4661 31.8456 40.5186Z" stroke="#FFEB61" stroke-width="1.5" stroke-miterlimit="10"/>
<path d="M30.5549 36.736C30.8646 37.1038 30.6581 39.4678 30.2452 39.6254C29.6258 39.8356 28.3354 39.2051 29.058 37.6816C29.5226 36.736 30.142 36.2632 30.5549 36.736Z" stroke="#FFEB61" stroke-width="1.5" stroke-miterlimit="10"/>
<path d="M10.5798 4.79506C10.4765 4.26972 7.99899 2.53608 7.53445 2.69368C6.81184 2.90382 6.45053 4.26972 8.51514 5.0052C9.80553 5.53054 10.7346 5.47801 10.5798 4.79506Z" stroke="#FFEB61" stroke-width="1.5" stroke-miterlimit="10"/>
<path d="M13.2128 5.16275C13.6773 4.95261 14.658 2.43095 14.4 2.06321C13.987 1.4328 12.645 1.38026 12.4386 3.37657C12.387 4.6374 12.645 5.42542 13.2128 5.16275Z" stroke="#FFEB61" stroke-width="1.5" stroke-miterlimit="10"/>
<path d="M13.1613 6.42364C12.8 6.10844 10.374 6.26604 10.2192 6.63378C9.96113 7.2642 10.5805 8.52502 12.1806 7.84208C13.1613 7.4218 13.6258 6.84392 13.1613 6.42364Z" stroke="#FFEB61" stroke-width="1.5" stroke-miterlimit="10"/>
<path d="M16.619 4.53235C16.1029 4.58489 14.7093 6.47613 14.9157 6.89641C15.2254 7.52682 16.619 7.89456 17.0836 6.26599C17.3933 5.2153 17.2384 4.42728 16.619 4.53235Z" stroke="#FFEB61" stroke-width="1.5" stroke-miterlimit="10"/>
</svg>
