<svg width="48" height="48" viewBox="0 0 48 48" fill="none" xmlns="http://www.w3.org/2000/svg">
<path d="M37.1945 4.97622L37.1946 4.97623C38.7701 5.05972 40.0205 6.34484 39.9924 7.90637C39.9924 7.90641 39.9924 7.90644 39.9924 7.90647L39.9424 7.90557C39.9394 8.09477 39.9144 8.28595 39.8886 8.48431C39.8751 8.58735 39.8614 8.69233 39.8504 8.79998L37.1945 4.97622ZM37.1945 4.97622C36.966 4.96489 36.7424 4.96445 36.5685 5.05289C36.401 5.13806 36.2888 5.29986 36.2487 5.57933C35.7839 5.38449 35.3297 5.24232 34.9084 5.26199C34.464 5.28273 34.0614 5.4832 33.7243 5.9743C33.4527 6.36788 33.3648 6.76555 33.469 7.20413C33.5703 7.63029 33.8521 8.09053 34.3105 8.62149C34.2339 8.70677 34.1561 8.79167 34.0781 8.87685C33.8388 9.13797 33.5972 9.40168 33.3809 9.68669C31.574 12.0067 30.9191 14.7015 30.8822 17.5699L30.8822 17.57C30.8663 18.9122 30.4297 19.9846 29.6678 20.7186C28.9058 21.4527 27.8132 21.8533 26.4758 21.842L26.4758 21.842C25.6034 21.8352 24.7582 21.4246 24.1021 20.8199C23.4458 20.2151 22.9837 19.4207 22.873 18.654L22.873 18.654C22.4381 15.6566 20.7572 13.4936 17.9972 12.1864L17.9972 12.1864C13.6322 10.1198 7.83508 12.48 6.47027 17.8046C5.46223 21.7362 6.80978 25.0479 9.49492 27.895L9.51338 27.9146L9.53987 27.91C9.67647 27.8862 9.77921 27.8442 9.85653 27.7869C9.93429 27.7292 9.98353 27.658 10.0161 27.5806C10.0482 27.5041 10.064 27.4216 10.0756 27.341C10.0798 27.312 10.0833 27.2837 10.0869 27.2558C10.0934 27.204 10.0998 27.1538 10.1093 27.1034L10.1094 27.1033C10.315 26.004 10.7348 25.0897 11.3701 24.3651C12.0054 23.6406 12.8584 23.1032 13.9341 22.761C15.7725 22.1815 17.9111 22.7778 19.034 24.1747C18.0396 26.0921 18.4012 27.9717 19.376 29.7692C21.1649 33.0712 24.1106 34.7631 27.7399 35.125C33.9965 35.748 39.4685 31.9678 41.2506 25.9812L41.2506 25.9812C42.1878 22.8251 41.9387 19.7809 40.2848 16.8886L40.2847 16.8885L37.1945 4.97622ZM41.1994 12.3334C41.0379 12.0664 40.8303 11.8271 40.6076 11.593C40.5203 11.5012 40.4313 11.4108 40.3417 11.3198C40.2226 11.1989 40.1025 11.0769 39.9841 10.9493C40.6158 10.8628 41.2123 10.78 41.8214 10.693L41.8735 10.6856L41.8634 10.634C41.7438 10.019 41.3293 9.75729 40.9118 9.54704C40.8589 9.52039 40.8062 9.49468 40.754 9.46924C40.5988 9.39351 40.4487 9.32027 40.3133 9.23221C40.1377 9.11807 39.9922 8.98217 39.9016 8.79137L41.0953 14.2422L41.0555 14.212L41.0954 14.2421C41.5261 13.6738 41.5642 12.9352 41.1994 12.3334ZM41.1994 12.3334L41.1567 12.3593L41.1994 12.3334C41.1994 12.3334 41.1994 12.3334 41.1994 12.3334ZM7.80722 22.3315L7.80729 22.3304C8.12716 18.5544 12.1208 15.2911 16.4578 16.5185L16.4578 16.5185C18.1433 16.997 19.5608 18.2008 20.3064 19.6941C21.0525 21.1884 21.1261 22.9739 20.1204 24.6103C20.0808 24.6758 20.0474 24.7474 20.0149 24.8221C20.005 24.8447 19.9952 24.8678 19.9853 24.8911C19.9629 24.9435 19.9402 24.9969 19.916 25.048C19.6261 25.6775 19.5444 26.3108 19.6534 27.0134C19.9685 29.0438 21.005 30.6437 22.5967 31.8826L22.5967 31.8826C25.5487 34.1848 28.8844 34.5853 32.4081 33.5351L32.4082 33.5351C37.34 32.0676 40.4865 27.7566 40.6697 22.6386C40.7338 20.8276 40.2902 19.1168 39.343 17.5369C38.2297 15.6807 37.7103 13.6877 38.1456 11.5144C38.2836 10.8257 38.4425 10.1332 39.202 9.81222C38.4625 9.0486 37.701 8.76275 36.9986 8.77638C36.2787 8.79036 35.6136 9.11919 35.0912 9.58565L35.0911 9.58571C34.4742 10.1343 33.9212 10.8145 33.5146 11.5307L33.5145 11.5307C32.4339 13.4297 31.9529 15.506 31.9941 17.6927L7.80722 22.3315ZM7.80722 22.3315C7.80093 22.4313 7.78383 22.5275 7.76602 22.6276C7.76038 22.6593 7.75467 22.6914 7.74921 22.7242C7.73673 22.7259 7.72432 22.7276 7.71182 22.7292L7.70626 22.73C7.69504 22.7314 7.68372 22.7329 7.67232 22.7346C7.64627 22.6442 7.61848 22.5555 7.59095 22.4676C7.52134 22.2453 7.45333 22.0282 7.41903 21.8023L7.41887 21.8014C6.87437 18.6145 8.00022 15.4374 10.7722 13.6884C14.8458 11.1194 20.337 13.294 21.6116 17.9943C21.9259 19.1557 21.8081 20.2919 21.5604 21.4434L21.5603 21.4437C21.5005 21.7313 21.4409 22.0178 21.3722 22.2997C20.7358 24.8345 22.1156 27.5736 24.6804 28.6688L24.6805 28.6688C27.0799 29.691 30.0659 28.8989 31.726 26.7689L31.726 26.7689C32.5918 25.6573 33.1154 24.3977 33.2312 22.9089L33.2344 22.8674L33.1942 22.8567C33.0659 22.8225 32.9387 22.7892 32.8072 22.7547C32.622 22.7062 32.4281 22.6554 32.2101 22.5966L32.1587 22.5828L32.1481 22.6349C32.0989 22.876 32.0545 23.1048 32.0112 23.328C31.9816 23.4807 31.9525 23.6307 31.9227 23.7804C31.444 26.1413 29.5029 27.8938 27.1129 27.9841C25.433 28.0474 24.137 27.2992 23.3238 26.2691C22.5095 25.2375 22.1818 23.9262 22.4351 22.8667C22.5204 22.522 22.5864 22.1702 22.6607 21.7739C22.6904 21.6156 22.7214 21.4501 22.7555 21.2752C23.0062 21.4758 23.2001 21.6305 23.3935 21.7848L23.3994 21.7896L23.3995 21.7896M7.80722 22.3315L23.3995 21.7896M23.3995 21.7896C25.3755 23.3635 27.935 23.4615 29.9183 21.9593M23.3995 21.7896L29.9183 21.9593M35.4028 6.42708L35.4007 6.47703C35.4349 6.4785 35.4761 6.50272 35.5285 6.54731C35.5492 6.56488 35.5697 6.58389 35.591 6.60362C35.5956 6.6079 35.6003 6.61221 35.605 6.61655C35.6308 6.64037 35.6579 6.66487 35.6852 6.6858L35.6853 6.6859C35.8838 6.83706 36.0524 6.94842 36.2008 7.01328C36.3497 7.0784 36.4833 7.0988 36.6086 7.06073C36.7332 7.02288 36.8401 6.93004 36.9423 6.78903C37.0395 6.65478 37.1356 6.47242 37.2402 6.24091C37.8687 6.34809 38.269 6.51779 38.5036 6.78732C38.7342 7.05217 38.8133 7.42363 38.7745 7.95869C38.5945 7.93498 38.4146 7.9097 38.2345 7.8844C37.7667 7.81869 37.2981 7.75287 36.8281 7.71428L36.8281 7.71428C36.5853 7.69454 36.3291 7.75085 36.0877 7.80389C36.041 7.81416 35.9948 7.82431 35.9494 7.83376C35.6168 7.90063 35.3315 7.87158 35.1112 7.75473C34.8919 7.63843 34.7306 7.43191 34.6509 7.13071C34.6275 7.04206 34.6206 6.91739 34.6343 6.80446C34.6412 6.74823 34.6529 6.69683 34.6691 6.65544C34.6857 6.61323 34.705 6.58622 34.7238 6.57254C34.7981 6.51879 34.9046 6.4914 35.0275 6.47971C35.1496 6.46809 35.2809 6.47246 35.4009 6.47704L35.4028 6.42708ZM35.4028 6.42708C35.1637 6.41795 34.8647 6.40883 34.6945 6.53204L35.7156 6.64612C35.6859 6.62332 35.6557 6.59541 35.6253 6.56723C35.5522 6.49951 35.4775 6.4303 35.4028 6.42708ZM29.9183 21.9593C31.3153 20.9048 32.0312 19.4659 31.9941 17.6928L29.9183 21.9593ZM39.8826 10.9128C39.8963 10.9278 39.9099 10.9427 39.9236 10.9576L39.8826 10.9128ZM22.5659 31.922C25.5326 34.2356 28.8855 34.6371 32.4224 33.583L19.6039 27.0211C19.9213 29.0654 20.9654 30.6762 22.5659 31.922ZM8.9137 24.5167L8.91368 24.5166C8.34292 21.1597 10.3834 17.8807 13.9762 17.4102C16.774 17.044 19.3285 18.929 19.7338 21.6709C19.7629 21.8776 19.7564 22.0899 19.7386 22.3303C19.733 22.4065 19.7262 22.4856 19.7192 22.5682C19.7064 22.718 19.6926 22.879 19.6829 23.0537C17.8132 21.6293 15.9244 21.0616 13.7772 21.6475C11.7041 22.2126 10.2673 23.5076 9.29653 25.5738C9.24835 25.4505 9.20071 25.3372 9.15623 25.2315C9.12874 25.1661 9.10246 25.1036 9.07801 25.0435C9.00189 24.8561 8.94266 24.6891 8.9137 24.5167ZM39.5791 15.6449L39.6135 15.6811C39.6226 15.6725 39.6316 15.6639 39.6407 15.6553C39.6349 15.6441 39.6292 15.6329 39.6235 15.6219L39.5791 15.6449ZM39.3377 14.3096C39.0903 13.5697 39.1017 12.8611 39.206 11.99C39.5115 12.1516 39.7717 12.311 39.9591 12.5011C40.1576 12.7024 40.2742 12.9377 40.2742 13.2492C40.2742 13.5244 40.1712 13.7343 39.9981 13.9055C39.8334 14.0684 39.6045 14.1967 39.3377 14.3096Z" fill="#FFEB61" stroke="#FFEB61" stroke-width="0.1" stroke-miterlimit="10"/>
<path d="M29.9051 42.8046L29.9584 42.7517C30.1254 42.586 30.2875 42.4187 30.4483 42.2526C30.7892 41.9006 31.1243 41.5545 31.488 41.2435C31.6998 41.0602 31.8464 40.8709 31.9388 40.6595C32.0312 40.4481 32.0707 40.2115 32.064 39.9318L32.064 39.9317C32.0413 38.9046 32.046 37.8771 32.0507 36.825C32.0527 36.3806 32.0548 35.9318 32.0548 35.4769V35.437L32.0937 35.4281C32.1145 35.4234 32.1353 35.4186 32.1559 35.4139C32.4711 35.3421 32.7578 35.2767 33.1336 35.1953L33.1916 35.1827L33.1942 35.242C33.2007 35.392 33.2084 35.5291 33.2156 35.6576C33.2287 35.89 33.2402 36.0946 33.2402 36.2981M29.9051 42.8046L33.1764 39.8074L33.2264 39.8092C33.2586 38.8991 33.2519 37.9861 33.2451 37.0758C33.2432 36.8163 33.2412 36.557 33.2402 36.2981M29.9051 42.8046L29.9745 42.8334C30.3087 42.9719 30.5988 43.0117 30.8581 42.9811C31.1173 42.9505 31.3422 42.8499 31.5467 42.713C31.7508 42.5764 31.9357 42.4027 32.1147 42.2253C32.1547 42.1857 32.1943 42.146 32.2337 42.1064C32.3612 41.9785 32.4871 41.8521 32.6183 41.7368L29.9051 42.8046ZM33.2402 36.2981C33.2402 36.2982 33.2402 36.2982 33.2402 36.2983H33.1902L33.2402 36.2981C33.2402 36.2981 33.2402 36.2981 33.2402 36.2981ZM33.1442 35.2441L33.1548 35.293C33.152 35.2936 33.1493 35.2942 33.1465 35.2948C33.1457 35.2781 33.145 35.2612 33.1442 35.2441ZM33.1442 35.2441L33.0943 35.2463C33.0944 35.2492 33.0945 35.252 33.0947 35.2549C33.111 35.2513 33.1275 35.2478 33.1442 35.2441ZM29.9937 42.7872C30.0065 42.7745 30.0193 42.7617 30.0321 42.7489C30.0257 42.7463 30.0193 42.7437 30.0128 42.741L29.9937 42.7872ZM29.9937 42.7872L30.0289 42.8227C30.034 42.8176 30.0391 42.8126 30.0442 42.8075C30.0275 42.801 30.0106 42.7942 29.9937 42.7872ZM35.2461 42.8009C35.2273 42.8041 35.2084 42.8075 35.1896 42.8109C35.1956 42.8182 35.2016 42.8254 35.2075 42.8327L35.2461 42.8009ZM35.2461 42.8009L35.2377 42.7516C35.2283 42.7532 35.2189 42.7549 35.2095 42.7565C35.2218 42.7713 35.234 42.7861 35.2461 42.8009ZM33.9012 41.3739L33.8709 41.4137L33.9013 41.3739C33.9012 41.3739 33.9012 41.3739 33.9012 41.3739ZM33.7205 42.7673C33.7206 42.7673 33.7206 42.7673 33.7207 42.7674L33.7513 42.7279L33.7204 42.7672C33.7205 42.7672 33.7205 42.7672 33.7205 42.7673Z" fill="#FFEB61" stroke="#FFEB61" stroke-width="0.1" stroke-miterlimit="10"/>
<path d="M26.4845 35.4361L26.4298 35.431V35.4858V35.4881V35.4904V35.4927V35.495V35.4973V35.4996V35.5019V35.5042V35.5065V35.5088V35.511V35.5133V35.5156V35.5179V35.5201V35.5224V35.5247V35.527V35.5292V35.5315V35.5338V35.536V35.5383V35.5406V35.5428V35.5451V35.5473V35.5496V35.5518V35.5541V35.5563V35.5586V35.5608V35.5631V35.5653V35.5676V35.5698V35.572V35.5743V35.5765V35.5787V35.581V35.5832V35.5854V35.5877V35.5899V35.5921V35.5943V35.5966V35.5988V35.601V35.6032V35.6054V35.6076V35.6099V35.6121V35.6143V35.6165V35.6187V35.6209V35.6231V35.6253V35.6275V35.6297V35.6319V35.6341V35.6363V35.6385V35.6407V35.6429V35.6451V35.6472V35.6494V35.6516V35.6538V35.656V35.6582V35.6603V35.6625V35.6647V35.6669V35.669V35.6712V35.6734V35.6755V35.6777V35.6799V35.682V35.6842V35.6864V35.6885V35.6907V35.6928V35.695V35.6972V35.6993V35.7015V35.7036V35.7058V35.7079V35.7101V35.7122V35.7143V35.7165V35.7186V35.7208V35.7229V35.725V35.7272V35.7293V35.7314V35.7336V35.7357V35.7378V35.74V35.7421V35.7442V35.7463V35.7484V35.7506V35.7527V35.7548V35.7569V35.759V35.7611V35.7633V35.7654V35.7675V35.7696V35.7717V35.7738V35.7759V35.778V35.7801V35.7822V35.7843V35.7864V35.7885V35.7906V35.7927V35.7948V35.7969V35.799V35.8011V35.8031V35.8052V35.8073V35.8094V35.8115V35.8136V35.8156V35.8177V35.8198V35.8219V35.824V35.826V35.8281V35.8302V35.8322V35.8343V35.8364V35.8384V35.8405V35.8426V35.8446V35.8467V35.8488V35.8508V35.8529V35.8549V35.857V35.859V35.8611V35.8632V35.8652V35.8673V35.8693V35.8714V35.8734V35.8754V35.8775V35.8795V35.8816V35.8836V35.8857V35.8877V35.8897V35.8918V35.8938V35.8958V35.8979V35.8999V35.9019V35.904V35.906V35.908V35.91V35.9121V35.9141V35.9161V35.9181V35.9202V35.9222V35.9242V35.9262V35.9282V35.9302V35.9323V35.9343V35.9363V35.9383V35.9403V35.9423V35.9443V35.9463V35.9483V35.9503V35.9523V35.9543V35.9563V35.9583V35.9603V35.9623V35.9643V35.9663V35.9683V35.9703V35.9723V35.9743V35.9763V35.9783V35.9803V35.9823V35.9843V35.9862V35.9882V35.9902V35.9922V35.9942V35.9962V35.9981V36.0001V36.0021V36.0041V36.006V36.008V36.01V36.012V36.0139V36.0159V36.0179V36.0199V36.0218V36.0238V36.0258V36.0277V36.0297V36.0317V36.0336V36.0356V36.0375V36.0395V36.0415V36.0434V36.0454V36.0473V36.0493V36.0512V36.0532V36.0551V36.0571V36.059V36.061V36.0629V36.0649V36.0668V36.0688V36.0707V36.0727V36.0746V36.0766V36.0785V36.0805V36.0824V36.0843V36.0863V36.0882V36.0901V36.0921V36.094V36.096V36.0979V36.0998V36.1018V36.1037V36.1056V36.1075V36.1095V36.1114V36.1133V36.1153V36.1172V36.1191V36.121V36.1229V36.1249V36.1268V36.1287V36.1306V36.1326V36.1345V36.1364V36.1383V36.1402V36.1421V36.144V36.146V36.1479V36.1498V36.1517V36.1536V36.1555V36.1574V36.1593V36.1612V36.1632V36.1651V36.167V36.1689V36.1708V36.1727V36.1746V36.1765V36.1784V36.1803V36.1822V36.1841V36.186V36.1879V36.1898V36.1917V36.1936V36.1955V36.1973V36.1992V36.2011V36.203V36.2049V36.2068V36.2087V36.2106V36.2125V36.2144V36.2163V36.2181V36.22V36.2219V36.2238V36.2257V36.2276V36.2294V36.2313V36.2332V36.2351V36.237V36.2388V36.2407V36.2426V36.2445V36.2464V36.2482V36.2501V36.252V36.2539V36.2557V36.2576V36.2595V36.2614V36.2632V36.2651V36.267V36.2688V36.2707V36.2726V36.2744V36.2763V36.2782V36.28V36.2819V36.2838V36.2856V36.2875V36.2894V36.2912V36.2931V36.2949V36.2968V36.2987V36.3005V36.3024V36.3043V36.3061V36.308V36.3098V36.3117V36.3135V36.3154V36.3173V36.3191V36.321V36.3228V36.3247V36.3265V36.3284V36.3302V36.3321V36.3339V36.3358V36.3376V36.3395V36.3413V36.3432V36.345V36.3469V36.3487V36.3506V36.3524V36.3543V36.3561V36.358V36.3598V36.3616V36.3635V36.3653V36.3672V36.369V36.3709V36.3727V36.3745V36.3764V36.3782V36.3801V36.3819V36.3837V36.3856V36.3874V36.3893V36.3911V36.3929V36.3948V36.3966V36.3984V36.4003V36.4021V36.4039V36.4058V36.4076V36.4094V36.4113V36.4131V36.4149V36.4168V36.4186V36.4204V36.4223V36.4241V36.4259V36.4278V36.4296V36.4314V36.4333V36.4351V36.4369V36.4387V36.4406V36.4424V36.4442V36.446V36.4479V36.4497V36.4515V36.4534V36.4552V36.457V36.4588V36.4607V36.4625V36.4643V36.4661V36.468V36.4698V36.4716V36.4734V36.4752V36.4771V36.4789V36.4807V36.4825V36.4844V36.4862V36.488V36.4898V36.4916V36.4935V36.4953V36.4971V36.4989V36.5007V36.5026V36.5044V36.5062L26.4298 36.508L26.4298 36.5082C26.4313 36.8603 26.429 37.2135 26.4267 37.5671C26.4218 38.3202 26.4169 39.0754 26.4483 39.8276L26.4483 39.8278C26.4618 40.1274 26.42 40.3794 26.3192 40.6036C26.2184 40.8278 26.0571 41.0274 25.8268 41.22C25.4328 41.5496 25.07 41.9187 24.7089 42.2861C24.5582 42.4395 24.4077 42.5926 24.2555 42.7423L24.2264 42.7709L24.2486 42.8051C24.2734 42.8435 24.2957 42.882 24.319 42.9223C24.3343 42.9488 24.3501 42.9761 24.3673 43.0046L24.3851 43.0339L24.4188 43.028C24.5578 43.0034 24.6989 42.9878 24.8421 42.972C24.9383 42.9613 25.0354 42.9506 25.1333 42.937C25.3729 42.9037 25.6098 42.8537 25.8177 42.7447C26.0451 42.6271 26.2426 42.4563 26.4514 42.2537C26.5234 42.1838 26.5966 42.1104 26.6728 42.0339C26.8089 41.8973 26.9549 41.7508 27.1224 41.5963C27.222 41.724 27.3137 41.8497 27.4033 41.9723C27.4599 42.0498 27.5156 42.1262 27.5719 42.2011C27.726 42.406 27.8824 42.5974 28.0656 42.7605L28.0657 42.7606C28.2907 42.9596 28.5459 43.0014 28.8214 42.9956C28.9429 42.993 29.0701 42.9811 29.201 42.9689C29.2178 42.9673 29.2346 42.9657 29.2515 42.9642C29.4009 42.9504 29.5559 42.9374 29.7178 42.9374H29.8345L29.754 42.853C29.6428 42.7362 29.5509 42.6303 29.4674 42.534C29.4324 42.4936 29.3989 42.455 29.366 42.4179C29.2557 42.2936 29.1534 42.188 29.0329 42.1068L29.0325 42.1065C28.3781 41.6736 27.969 41.1558 27.7443 40.5619C27.5192 39.9671 27.4775 39.2925 27.5644 38.5444L27.5644 38.5442C27.6372 37.8876 27.6189 37.2181 27.6003 36.5344C27.5917 36.2213 27.5831 35.9053 27.5831 35.5862V35.5407L27.5378 35.5365C27.3698 35.5206 27.2226 35.5064 27.0776 35.4925C26.8895 35.4744 26.7052 35.4567 26.4845 35.4361Z" fill="#FFEB61" stroke="#FFEB61" stroke-width="0.1" stroke-miterlimit="10"/>
<path d="M36.4468 10.4837L36.4445 10.4337C36.2345 10.4433 36.077 10.511 35.9689 10.629C35.8616 10.7462 35.8087 10.9067 35.7944 11.0913L35.7936 11.0912L35.7945 11.1001C35.8161 11.3169 35.8926 11.4798 36.0188 11.5873C36.1446 11.6944 36.313 11.7408 36.5072 11.7384L36.5072 11.7384L36.5078 11.7384C36.691 11.7336 36.8625 11.6911 36.9923 11.5918C37.1239 11.491 37.2066 11.3363 37.2188 11.1208L37.2188 11.1208L37.2188 11.12C37.2265 10.9304 37.131 10.7536 36.9873 10.628C36.8435 10.5023 36.6471 10.4239 36.4443 10.4337L36.4468 10.4837ZM36.4468 10.4837C36.8239 10.4654 37.1827 10.7757 37.1689 11.118C37.1459 11.5241 36.8607 11.6793 36.5066 11.6884C36.134 11.6929 35.8856 11.5104 35.8442 11.0952C35.8718 10.7392 36.0466 10.5019 36.4468 10.4837Z" fill="#FFEB61" stroke="#FFEB61" stroke-width="0.1" stroke-miterlimit="10"/>
</svg>
