<svg width="48" height="49" viewBox="0 0 48 49" fill="none" xmlns="http://www.w3.org/2000/svg">
<path d="M22.4796 27.0763C22.4796 25.5558 22.2128 24.144 21.786 22.7865C21.3592 21.3746 20.6656 20.1257 19.4919 19.2026C19.7587 18.8768 20.0254 18.6053 20.2922 18.2252C20.7723 18.8225 21.2525 19.3655 21.786 20.0171C21.786 19.5827 21.786 19.2569 21.786 18.8768C21.786 18.1709 21.786 18.1709 21.1458 17.9537C19.652 17.4107 18.5316 16.4875 18.2115 14.8042C18.1048 14.2069 18.1581 13.6096 18.2115 13.0123C18.2115 12.7951 18.3182 12.6865 18.5849 12.6322C19.7053 12.415 20.719 12.6865 21.5726 13.4467C22.4796 14.2069 23.0131 15.1843 22.9597 16.3789C22.9064 17.6279 22.9064 18.8225 22.9064 20.0714C22.9064 21.7005 23.2265 23.2752 23.4399 24.9042C23.4932 24.7956 23.5466 24.687 23.5999 24.6327C24.0267 23.7639 24.4535 22.8951 24.8804 22.0263C24.9337 21.9177 24.9337 21.7548 24.9337 21.6462C24.4536 19.9085 24.1334 18.1709 24.1334 16.3246C24.1334 14.4784 25.1471 13.0123 26.8543 12.415C26.961 12.3607 27.0677 12.3064 27.2278 12.3064C27.0677 11.8176 26.9077 11.3289 26.7476 10.8402C25.8407 7.47354 28.2948 5.4644 30.4289 4.97569C30.6423 4.92139 30.8557 4.92139 31.0157 4.92139C31.1224 4.92139 31.2291 4.97569 31.2825 5.02999C32.1361 6.38752 32.6162 8.61387 31.3892 10.2972C30.749 11.166 29.8954 11.6547 28.8817 11.9805C28.775 12.0348 28.6149 12.0348 28.5082 12.0891C29.1484 13.0123 29.1484 14.044 28.775 15.0214C28.2415 16.4875 27.1211 17.4107 25.6273 17.7908C25.5206 17.8451 25.4139 17.8451 25.2538 17.8994C25.4139 18.7682 25.5206 19.637 25.6806 20.5601C25.7873 20.5058 25.7873 20.4515 25.8407 20.3972C27.6546 17.5193 29.7886 14.9128 32.0294 12.415C32.5096 11.8719 32.9897 11.3832 33.4699 10.8402C33.5232 10.7859 33.5766 10.6773 33.5766 10.5687C33.7366 8.66817 35.0171 7.31064 36.9377 6.98483C37.738 6.87623 38.5916 6.93053 39.4452 6.98483C39.7119 6.98483 39.8186 7.09344 39.8186 7.41925C39.9787 8.77678 39.8186 10.08 39.0717 11.2746C38.3782 12.3607 37.3111 12.9037 36.0841 13.0123C35.4972 13.0666 34.9104 13.0666 34.2701 13.0123C33.7366 13.0123 33.6833 12.958 33.5766 12.3607C31.4425 14.7499 29.4152 17.1935 27.5479 19.7456C27.5479 19.7999 27.6013 19.7999 27.6013 19.7999C28.6149 19.5284 29.6286 19.3112 30.6423 19.0397C30.8557 18.9854 31.2291 19.1483 31.2825 19.3655C31.3892 19.637 31.2291 20.0714 30.9624 20.18C30.5889 20.2886 30.1621 20.3972 29.7886 20.5058C28.775 20.723 27.7613 20.9945 26.7476 21.2661C26.6409 21.3204 26.4809 21.3747 26.4275 21.4833C25.7873 22.6236 25.1471 23.7096 24.5602 24.9042C23.6533 26.7505 22.9597 28.7053 22.6396 30.7688C22.5329 31.3661 22.5863 31.9634 22.5863 32.5607C22.6396 34.2983 22.9064 35.9817 23.6533 37.5564C24.6136 39.5113 25.9474 41.1946 27.6546 42.4978C28.4549 43.0951 29.3085 43.6381 30.2155 44.2355C30.1088 44.507 30.002 44.8871 29.842 45.3758C29.0417 44.8328 28.2415 44.3441 27.4412 43.8554C27.8147 44.9414 28.0814 46.0274 27.9214 47.1677C27.6012 47.1677 27.2278 47.1677 26.8543 47.1677C26.961 45.2129 26.2141 43.5296 25.0938 41.9548C25.0404 42.1177 24.9871 42.2806 24.8804 42.3892C24.5069 43.3123 23.92 44.1812 23.2798 44.8871C23.1198 45.05 23.1198 45.2129 23.1731 45.4844C23.2798 46.136 23.3865 46.8419 23.4399 47.5478C23.4399 47.6021 23.3332 47.7107 23.2798 47.765C22.9597 47.8193 22.6396 47.8193 22.3195 47.8736C22.2661 47.2763 22.2128 46.679 22.1061 46.0274C21.2525 46.5161 20.4522 47.0048 19.6519 47.4392C19.5452 47.0048 19.3852 46.6247 19.2785 46.2989C19.7587 46.0274 20.1855 45.8645 20.6123 45.593C21.8927 44.7785 22.9597 43.8554 23.5999 42.4435C23.8133 41.9548 23.92 41.4661 24.0801 40.9774C24.1334 40.8145 24.0801 40.543 23.9734 40.3801C23.1198 39.0225 22.3195 37.665 21.8927 36.0903C21.8927 36.036 21.8393 36.036 21.8393 35.9817C21.7326 36.1446 21.6259 36.2532 21.5192 36.3618C20.879 37.0134 20.2922 37.665 19.6519 38.2623C19.2785 38.5881 19.0651 38.9682 18.905 39.4027C18.5849 40.543 18.5849 41.6833 18.8517 42.8236C19.0651 43.8553 18.5849 44.7242 17.5179 45.1043C17.4112 44.7785 17.3045 44.4527 17.2511 44.1269C17.2511 44.0726 17.3045 44.0183 17.3579 43.964C17.7847 43.6924 17.7847 43.5838 17.678 43.0951C17.4646 41.9548 17.4112 40.8145 17.678 39.6742C17.678 39.6199 17.678 39.6199 17.678 39.5656C17.0911 39.8914 16.5042 40.1629 15.9174 40.4887C15.8107 40.543 15.7573 40.6516 15.704 40.7602C15.0104 41.7919 14.9571 42.9322 15.0638 44.1269C15.0638 44.1812 15.0638 44.2355 15.0638 44.3441C14.7437 44.3441 14.4235 44.3441 14.1034 44.3441C14.0501 44.3441 13.9434 44.1812 13.9434 44.1269C13.8367 43.2037 13.89 42.2806 14.1568 41.3575C14.1568 41.3032 14.2101 41.1946 14.2101 41.086C13.1431 41.4118 12.0761 41.629 11.0091 41.629C11.0091 41.3032 11.0091 40.9774 11.0091 40.7059C11.0091 40.4887 11.1691 40.4887 11.2758 40.4887C12.6096 40.3258 13.89 40 15.1171 39.5113C17.4112 38.5338 19.3852 37.122 20.9324 35.1129C20.9857 35.0043 21.0924 34.8957 21.1458 34.7871C21.4125 34.4612 21.4659 34.0811 21.4125 33.6467C21.3058 32.072 21.2525 30.443 21.7326 28.9225C21.786 28.8139 21.7326 28.651 21.6793 28.5424C21.1991 27.2935 20.3455 26.3161 19.4385 25.3929C18.9584 24.9585 18.4782 24.5784 17.9981 24.1983C17.8914 24.144 17.7313 24.0897 17.5713 24.144C17.0377 24.2526 16.4509 24.4155 15.9174 24.5784C15.8107 24.6327 15.7573 24.7413 15.704 24.8499C15.4372 25.8274 15.0104 26.6962 14.3168 27.4564C13.0898 28.7053 11.3825 28.9768 9.83536 28.1623C9.03509 27.7279 8.34153 27.1306 7.75467 26.3704C8.28818 25.1214 9.03509 24.0897 10.1555 23.3295C11.2758 22.5693 12.5029 22.4607 13.7833 22.9494C14.1568 23.1123 14.5302 23.3295 14.9037 23.4924C15.0104 23.5467 15.1705 23.5467 15.2772 23.5467C15.6506 23.4381 15.9707 23.3295 16.3975 23.1666C16.2375 23.058 16.0774 22.9494 15.9707 22.8951C14.5836 22.2978 13.0898 21.972 11.5426 21.9177C10.9557 21.9177 10.5289 21.972 10.1021 22.515C9.78201 22.9494 9.30185 23.2752 8.87504 23.601C7.64797 24.4698 6.4209 24.4698 5.14047 23.6553C4.34021 23.1666 3.69999 22.4607 3.16648 21.7005C3.11313 21.6462 3.11313 21.5376 3.16648 21.4833C4.02009 20.3429 4.92706 19.3655 6.36754 18.9854C7.27451 18.7682 8.12813 18.9854 8.9284 19.5284C9.40856 19.8542 9.83537 20.2886 10.2622 20.6687C10.3689 20.723 10.4756 20.8316 10.5823 20.8316C14.3168 20.6144 17.4646 21.972 20.1321 24.4698C20.9324 25.23 21.6259 26.0446 22.1594 26.9677C22.3729 27.022 22.4262 27.022 22.4796 27.0763ZM14.8504 24.7413C12.7697 23.3838 10.9024 23.5467 9.3552 26.2618C9.83536 26.7505 10.4222 27.1306 11.0624 27.4021C12.0228 27.7279 12.823 27.565 13.5699 26.9134C14.1568 26.3161 14.5836 25.5558 14.8504 24.7413ZM34.6969 11.9805C35.1238 11.9805 35.4972 11.9805 35.924 11.9262C37.2044 11.8176 38.1114 11.2746 38.5382 9.9714C38.6449 9.59129 38.7516 9.21118 38.7516 8.83107C38.805 7.96225 38.965 8.12516 38.058 8.07086C37.8446 8.07086 37.6846 8.07085 37.5245 8.12515C36.8843 8.17946 36.2975 8.34237 35.764 8.77678C34.8036 9.59129 34.7503 10.7316 34.6969 11.9805ZM31.1224 7.79935C31.0157 7.41924 30.8557 6.87623 30.6956 6.33322C30.6423 6.17032 30.5356 6.17031 30.4289 6.22461C28.5082 6.87623 27.1744 8.39667 27.9747 10.9488C28.0281 11.1117 28.0814 11.166 28.2415 11.1117C28.7216 10.9488 29.2018 10.7859 29.5752 10.5687C30.4822 9.9714 31.0157 9.10258 31.1224 7.79935ZM4.71365 21.5919C5.19381 22.1892 5.72733 22.6236 6.36754 22.9494C6.90105 23.1666 7.48792 23.1666 8.02143 22.8951C8.60829 22.6236 9.08844 22.1349 9.51525 21.7005C9.62195 21.5919 9.62196 21.429 9.46191 21.3204C9.08845 20.9945 8.66164 20.6687 8.28818 20.3972C7.86137 20.1257 7.43456 19.9628 6.9544 20.0714C6.04744 20.2886 5.35387 20.8859 4.71365 21.5919ZM27.8147 13.3924C26.4275 13.6096 25.0404 14.9671 25.3072 16.7047C26.6943 16.759 28.3482 14.587 27.8147 13.3924ZM21.8393 16.8677C22.0527 15.4015 21.0924 13.9897 19.6519 13.7182C19.3318 13.6639 19.2785 13.6639 19.2785 14.044C19.2785 15.2929 20.1855 16.5418 21.8393 16.8677Z" fill="#FFEB61"/>
<path d="M33.5765 21.2119C34.9103 20.9404 36.1374 20.8318 37.4178 20.8318C37.5245 20.8318 37.6312 20.7775 37.6846 20.6689C38.4848 19.9086 39.3384 19.257 40.4588 18.9855C41.2591 18.7683 42.006 18.9855 42.6996 19.4199C43.5532 19.9086 44.2467 20.6146 44.8336 21.3748C44.8869 21.4291 44.8869 21.592 44.8336 21.6463C44.0333 22.7866 43.1264 23.8183 41.7392 24.1984C40.9923 24.4156 40.2987 24.307 39.6585 23.9269C38.8583 23.4925 38.1114 22.8952 37.5779 22.135C37.5245 22.0807 37.4178 21.9721 37.3111 21.9721C35.3371 21.9178 33.4165 22.3522 31.6025 23.1124C31.5492 23.1124 31.5492 23.1667 31.4958 23.1667C31.9226 23.2753 32.2961 23.4382 32.7229 23.5468C32.8296 23.6011 32.9897 23.4925 33.1497 23.4382C33.8966 23.0581 34.6969 22.7323 35.4972 22.678C36.8843 22.6237 37.898 23.2753 38.8583 24.1984C39.3918 24.7415 39.8186 25.3388 40.1387 26.0447C40.1921 26.1533 40.1921 26.3162 40.1387 26.3705C39.1784 27.5651 38.1114 28.4339 36.5642 28.5968C35.4972 28.7054 34.5368 28.271 33.7899 27.5651C32.9363 26.7506 32.4561 25.7732 32.1894 24.6329C31.4958 24.47 30.8556 24.3613 30.1621 24.1984C30.0554 24.1441 29.842 24.1984 29.7353 24.307C27.868 25.7732 26.3208 27.5108 25.6272 29.8458C25.2004 31.149 25.4138 32.5065 25.894 33.8098C26.4808 35.3302 27.5479 36.5248 28.8283 37.5022C31.069 39.2942 33.6832 40.163 36.4575 40.5431C36.5642 40.5431 36.6709 40.5974 36.8309 40.5974C36.8309 40.9775 36.8309 41.3033 36.8309 41.6834C35.6572 41.6291 34.5368 41.4119 33.3631 41.1404C33.7366 42.2264 33.8433 43.3125 33.6299 44.3985C33.2564 44.3985 32.9363 44.3985 32.5629 44.3985C32.5629 44.127 32.6162 43.9098 32.6162 43.6383C32.6696 42.7151 32.5629 41.792 32.0827 40.9775C31.9226 40.706 31.7626 40.4888 31.4425 40.3259C31.069 40.163 30.6422 39.9458 30.2688 39.7286C30.2154 39.6743 30.1087 39.6743 30.002 39.62C30.002 40.2173 30.1087 40.7603 30.3221 41.249C30.5355 41.6291 30.4822 42.0092 30.4288 42.3893C30.3755 42.5522 30.3755 42.7152 30.3221 42.8781C29.9486 42.6065 29.6286 42.2807 29.4151 41.8463C29.095 40.9775 28.8283 40.1087 28.8283 39.1856C28.8283 38.9141 28.7216 38.6969 28.4548 38.534C27.121 37.5565 26.0007 36.4162 25.2004 34.9501C24.6669 33.9184 24.4001 32.778 24.2934 31.5834C24.1334 29.6829 24.9337 28.1081 25.894 26.642C27.1744 24.6329 28.8816 23.1667 30.9623 22.0807C31.4425 21.8092 31.8693 21.5377 32.1894 20.9947C33.043 19.6914 34.2167 18.714 35.3905 17.6823C35.8173 17.3565 36.2441 17.0307 36.6709 16.7049C36.7776 16.5963 36.8843 16.4334 36.9376 16.2705C37.1511 14.6414 38.4315 13.3382 40.032 13.0667C40.7256 12.9581 41.4191 12.9581 42.1127 13.1753C42.2194 13.2296 42.3794 13.3382 42.3794 13.3925C42.4861 14.9129 42.0593 16.2162 40.8856 17.2479C40.2988 17.7909 39.5518 18.0081 38.7516 17.9538C38.2714 17.9538 37.7913 17.8452 37.2577 17.7366C37.2044 17.7366 37.0977 17.7366 37.0443 17.7909C35.8706 18.714 34.7502 19.6914 33.7899 20.8318C33.6299 21.1033 33.6299 21.1576 33.5765 21.2119ZM33.3631 24.7958C33.6832 25.6103 34.0567 26.3705 34.7503 26.9135C35.2838 27.4022 35.924 27.6194 36.6709 27.5108C37.5245 27.4022 38.2181 26.9135 38.8583 26.3162C38.965 26.2076 38.9116 26.099 38.8583 25.9904C38.3781 25.5017 37.9513 24.9044 37.4712 24.47C36.9376 24.0355 36.2974 23.8183 35.6039 23.8726C34.6969 23.9269 34.0567 24.3614 33.3631 24.7958ZM38.5382 21.4834C39.0717 22.135 39.6586 22.678 40.4055 23.0038C40.8323 23.1667 41.2591 23.221 41.7392 23.0038C42.4328 22.7323 42.9663 22.2436 43.4998 21.6463C43.5532 21.592 43.4998 21.4291 43.4998 21.3748C42.9663 20.8318 42.3795 20.3974 41.6859 20.1259C41.2591 19.963 40.8856 19.963 40.5122 20.1259C39.7119 20.506 39.125 20.9947 38.5382 21.4834ZM41.2057 14.3156C40.7789 14.3699 40.3521 14.3699 39.9253 14.4785C38.8049 14.8043 38.2181 15.6732 38.0047 16.8135C37.9513 17.0307 38.058 17.0307 38.2181 17.085C39.872 17.1936 40.9923 16.1076 41.2057 14.3156Z" fill="#FFEB61"/>
<path d="M19.7051 6.17037C19.5984 5.68166 19.4383 5.19296 19.385 4.70424C19.2249 3.56392 19.4383 2.47789 20.0252 1.50047C20.2386 1.12036 20.3453 1.06606 20.7721 1.17467C21.7858 1.39187 22.5861 1.88058 23.2796 2.6408C23.4397 2.8037 23.5997 3.0209 23.8131 3.2381C23.8665 3.1295 23.9732 3.0752 24.0265 2.9666C24.8268 1.98918 25.8405 1.33757 27.1209 1.12036C27.2276 1.12036 27.3876 1.17466 27.441 1.22896C28.2413 2.64079 28.508 4.16123 27.8145 5.73596C27.2809 6.93059 26.2673 7.63651 24.9868 7.90801C24.7201 7.96231 24.6134 8.07091 24.5067 8.28812C24.4 8.55962 24.2933 8.77683 24.1866 8.99404C23.9198 9.48275 23.9732 9.97146 24.2933 10.4602C24.2933 10.5145 24.3466 10.5145 24.4 10.5688C24.1866 10.7317 23.9732 10.8403 23.7064 11.0032C23.6531 11.0575 23.5464 10.9489 23.493 10.8946C23.0129 10.4059 22.7461 9.80856 22.5327 9.15694C22.426 8.77683 22.426 8.34242 22.2126 8.07092C21.9992 7.79941 21.5724 7.7451 21.2523 7.5822C21.0389 7.4736 20.8788 7.365 20.7188 7.2564C20.8255 7.63651 20.9855 8.01661 21.0389 8.39672C21.3056 9.64565 21.0389 10.786 20.5054 11.9263C20.452 12.0349 20.3453 12.0892 20.2386 12.0892C19.7051 12.0349 19.1182 12.0349 18.5847 11.872C16.6641 11.3833 15.437 9.64565 15.437 7.69081C15.437 6.76769 15.7571 5.84456 16.2373 5.03005C16.344 4.86714 16.3973 4.81284 16.6107 4.81284C17.7311 4.81284 18.6914 5.30155 19.5984 6.00747C19.7051 6.17037 19.7051 6.17037 19.7051 6.17037ZM20.0786 9.48274C20.0252 9.26554 20.0252 9.04834 19.9718 8.83113C19.7584 7.4193 18.4247 6.44188 17.1976 6.17037C17.1443 6.17037 17.0375 6.22467 16.9842 6.27898C16.6641 6.93059 16.4507 7.6365 16.6107 8.39672C16.8775 9.80855 18.0512 10.8403 19.545 11.0575C19.7051 11.1118 19.8118 11.0032 19.8118 10.8403C19.9185 10.4059 20.0252 9.97145 20.0786 9.48274ZM24.5067 4.97575C24.56 5.41016 24.6667 5.89887 24.7734 6.33328C24.8801 6.82199 24.8801 6.82199 25.3603 6.60479C26.9075 6.00747 27.601 4.32413 26.9075 2.58649C26.8541 2.42359 26.7474 2.42359 26.6407 2.47789C26.0005 2.6951 25.467 3.07521 25.0936 3.61822C24.7201 4.05263 24.5067 4.48704 24.5067 4.97575ZM22.1592 6.71339C22.3726 5.95317 22.5861 5.24725 22.7995 4.54134C22.8528 4.37844 22.8528 4.16123 22.7995 3.99833C22.4794 3.12951 21.7858 2.69509 20.9322 2.42359C19.9185 4.16123 20.7188 6.27898 22.1592 6.71339ZM23.493 7.5279C23.5997 7.365 23.8131 7.2564 23.7598 7.20209C23.7064 6.76768 23.6531 6.38758 23.5464 6.00747C23.4397 6.49618 23.333 6.93059 23.493 7.5279Z" fill="#FFEB61"/>
<path d="M19.2247 17.5194C18.958 17.8452 18.6912 18.0624 18.4778 18.3339C16.3438 17.1393 14.1564 16.8134 11.8089 17.1393C11.7556 17.8452 11.6489 17.8995 11.0087 18.0624C9.6749 18.3882 8.44782 18.171 7.43415 17.1393C6.63389 16.3247 6.26044 15.293 6.26044 14.0984C6.26044 13.2839 6.10038 13.3925 6.954 13.2296C8.55453 12.9581 9.94166 13.3382 11.0087 14.6957C11.2754 15.0215 11.3821 15.4016 11.5422 15.7817C11.5955 15.9446 11.7022 15.9989 11.8623 15.9989C12.876 15.9989 13.943 15.8903 14.9567 15.9989C16.3438 16.1075 17.6776 16.4876 18.9046 17.2479C19.0113 17.3565 19.118 17.4651 19.2247 17.5194ZM7.3808 14.4242C7.43415 14.9672 7.64755 15.4016 7.91431 15.8903C8.39447 16.8134 9.4615 17.1936 10.5285 17.085C10.7419 17.0306 10.7953 16.9764 10.7419 16.7591C10.6352 16.4333 10.4752 16.0532 10.3151 15.7274C9.7816 14.6414 8.34112 14.1527 7.3808 14.4242Z" fill="#FFEB61"/>
<path d="M9.56819 6.93066C10.4218 6.93066 11.2221 7.09357 11.969 7.47368C13.2494 8.07099 13.943 9.04841 14.103 10.4602C14.1564 11.1662 14.103 11.8721 14.0497 12.578C14.0497 12.8495 13.8896 13.0667 13.5695 13.121C11.8623 13.3382 10.3151 13.121 9.03468 11.8721C8.23442 11.0576 7.86097 10.0258 7.80762 8.88551C7.80762 8.3968 7.86097 7.90809 7.86097 7.47368C7.86097 7.31077 7.96767 7.20217 8.12773 7.20217C8.66124 7.03927 9.08804 6.98497 9.56819 6.93066ZM13.036 11.9807C13.0894 10.8404 13.036 9.80863 12.1824 8.99411C11.2754 8.12529 10.1551 8.07099 8.98133 8.17959C8.82128 10.7861 10.5819 12.1979 13.036 11.9807Z" fill="#FFEB61"/>
<path d="M20.2913 42.7695C20.1846 42.3351 20.0779 41.9549 19.9712 41.5748C19.9712 41.5205 19.9712 41.4119 20.0245 41.4119C20.2379 41.1947 20.5047 40.9775 20.6648 40.7603C20.8782 40.4888 20.9849 40.2173 21.1449 39.9458C21.465 40.163 21.7318 40.4345 22.0519 40.706C21.8385 41.3033 20.8782 42.3894 20.2913 42.7695Z" fill="#FFEB61"/>
</svg>
