<svg width="48" height="49" viewBox="0 0 48 49" fill="none" xmlns="http://www.w3.org/2000/svg">
<path d="M26.5918 47.0125C26.0303 47.0125 25.525 47.0125 24.9635 47.0125C24.6266 44.0981 24.3459 41.1265 24.009 38.212H23.9529C23.616 41.1836 23.2791 44.0981 22.9423 47.0697C22.3808 47.0697 21.8755 47.0697 21.314 47.0697C21.3702 46.4982 21.4263 45.9839 21.4825 45.4124C21.8755 41.8122 22.3247 38.212 22.7177 34.5547C22.7738 34.0404 22.83 33.5832 22.8861 33.0689C22.9984 32.6117 22.8861 32.2117 22.7738 31.7545C22.1562 30.0973 21.5386 28.3829 20.9772 26.6685C20.2473 24.4398 18.6752 24.0398 16.9346 24.4398C16.1486 24.6113 15.3625 25.0113 14.5765 25.3542C13.5659 25.8685 12.4991 26.4399 11.32 26.4399C10.7586 26.4399 10.7586 26.44 10.7586 25.9256C10.7586 25.6399 10.6463 25.2399 10.7586 25.0113C10.8709 24.8399 11.32 24.897 11.6008 24.7827C12.1061 24.6113 12.6675 24.497 13.1729 24.2113C14.4081 23.5827 15.531 22.7826 16.9908 22.6683C16.8785 22.554 16.8785 22.4969 16.8223 22.4969C14.7449 21.1825 12.4991 20.2682 9.97253 20.3825C8.45658 20.4396 7.16522 21.0111 6.0423 21.9254C5.70543 22.2111 5.98616 22.3826 6.09845 22.6112C8.56887 20.8968 11.0954 20.3825 13.8466 22.2111C13.4536 22.554 13.1729 22.8969 12.836 23.1826C12.7798 23.2398 12.5552 23.1826 12.3868 23.1255C10.534 22.3826 8.8496 22.6683 7.22137 23.8112C7.78283 24.3256 8.40044 24.5541 9.07419 24.7827C8.90575 25.297 8.68117 25.7542 8.51273 26.2685C7.5021 25.9256 6.60376 25.4685 5.87386 24.7827C5.14397 24.097 4.63865 23.2969 4.18948 22.3826C4.07719 22.0969 4.07719 21.8683 4.30177 21.6397C5.14397 20.6111 6.09845 19.8682 7.33366 19.411C7.5021 19.3538 7.67054 19.2396 7.89512 19.1824L7.95127 19.1253C7.33366 18.3824 6.94064 17.5252 6.7722 16.5537C6.54762 15.2965 6.71605 14.0393 7.22137 12.8392C7.27751 12.7249 7.55824 12.6106 7.72668 12.5535C10.141 12.3249 12.443 13.8107 13.1729 16.2108C13.3413 16.7251 13.3974 17.2394 13.5659 17.7538C13.622 18.0395 13.5659 18.2109 13.229 18.2109C12.8921 18.2109 12.4991 18.2109 12.1622 18.2109C12.0499 17.8109 11.9938 17.4109 11.8815 17.0109C11.3762 15.5251 10.4217 14.5536 8.90575 14.2107C8.45658 14.0964 8.40044 14.1536 8.34429 14.6107C8.17585 15.8108 8.34429 16.9537 9.07419 17.9823C9.46721 18.4967 9.91638 18.7824 10.6463 18.8395C12.1061 18.8967 13.5659 19.1824 14.9134 19.7539C15.0818 19.811 15.2503 19.8682 15.4748 19.9825C15.2503 19.4681 15.0257 19.011 14.8572 18.5538C14.015 16.3251 13.7905 13.9821 14.5204 11.6391C14.8011 10.7248 14.8572 10.6677 15.8117 10.6677C16.4855 10.6677 17.1592 10.7248 17.8891 10.7819C17.833 10.7248 17.7768 10.6105 17.7207 10.4962C16.5978 8.66754 16.4293 6.72458 17.2154 4.66733C17.3277 4.32445 17.4961 4.2673 17.8891 4.21016C20.0227 4.09586 22.3808 5.46737 23.1668 7.8675C23.223 7.98179 23.2791 8.03894 23.3353 8.21038C23.4476 7.75321 23.5037 7.35319 23.616 6.95317C24.2336 4.72447 25.4127 3.01009 27.6585 2.21005C28.22 1.98146 28.8376 1.98146 29.3991 1.92432C29.5675 1.92432 29.7921 2.03861 29.8482 2.21005C30.4097 3.12438 30.6343 4.09587 30.6904 5.1245C30.7466 5.92454 30.6904 6.66743 30.6904 7.46748C30.129 7.41033 29.6798 7.41033 29.2306 7.35319C29.2306 6.72458 29.2868 6.09597 29.2306 5.46737C29.1745 4.89591 29.0622 4.3816 28.9499 3.81014C28.8937 3.52441 28.7815 3.5244 28.5007 3.58155C26.5918 4.15301 25.5811 5.58166 25.132 7.46748C24.9074 8.43896 24.7951 9.46759 25.0197 10.5534C24.4582 10.5534 23.9529 10.8962 23.4476 10.4391C23.4476 10.5534 23.3914 10.6677 23.3914 10.7819C23.3914 11.6963 23.4476 12.5535 23.3914 13.4107C23.3353 14.2679 23.616 15.0107 24.009 15.7536C25.0197 14.6679 25.0197 13.2964 24.8512 11.8677C25.3565 11.8106 25.8057 11.7534 26.2549 11.6963C26.311 11.9249 26.311 12.1535 26.3672 12.4963C26.8725 11.9249 27.4339 11.4677 27.827 10.8962C28.2761 10.3248 28.5569 9.63902 28.8937 9.01042C29.006 8.78183 29.1183 8.66754 29.3429 8.78184C29.6798 8.89613 30.0167 9.01042 30.4658 9.12472C30.2413 9.69618 30.0167 10.2676 29.7921 10.8391C30.1851 10.7819 30.5781 10.6677 30.9711 10.6677C31.4765 10.6105 31.9818 10.6677 32.4871 10.6677C32.9363 10.6677 33.1608 10.9534 33.2731 11.3534C34.003 13.5821 34.003 15.8679 33.217 18.0966C32.9924 18.7252 32.7678 19.2967 32.4871 19.9253C32.7117 19.811 32.9363 19.7539 33.1047 19.6967C34.5084 19.0681 36.0243 18.7824 37.5964 18.7824C38.0456 18.7824 38.3824 18.5538 38.6632 18.2681C39.5615 17.2394 39.7299 15.9822 39.6176 14.6679C39.6176 14.5536 39.5615 14.3821 39.5615 14.2679C37.9333 13.9821 36.1366 15.8679 35.7997 18.2109C35.2944 18.2109 34.7891 18.2109 34.2276 18.2109C34.2838 17.8109 34.3399 17.4109 34.3961 17.0109C34.9575 14.2678 37.4279 12.3249 40.2352 12.5535C40.516 12.5535 40.6283 12.7249 40.7406 12.9535C41.5266 14.9536 41.3582 16.8394 40.3475 18.7252C40.2353 18.8967 40.1791 19.011 40.123 19.1824C40.7406 19.4681 41.302 19.7539 41.8635 20.0396C42.5934 20.4968 43.2671 21.0682 43.7724 21.8111C43.8847 21.9254 43.8847 22.154 43.8847 22.3254C42.8741 24.8399 40.6283 26.5542 37.7648 26.4971C37.7087 26.4971 37.6525 26.4971 37.5402 26.4399C37.4841 25.9256 37.4841 25.4685 37.4841 24.9542C38.6632 24.8399 39.7861 24.6684 40.7967 23.8684C40.1791 23.2969 39.5053 23.0112 38.7755 22.8969C37.7648 22.6683 36.698 22.7255 35.7436 23.1826C35.519 23.2969 35.3505 23.2969 35.126 23.0683C34.8452 22.7826 34.5084 22.554 34.2276 22.2683C35.2383 21.4683 36.3612 21.0682 37.6525 21.1254C39.0562 21.1254 40.3475 21.5825 41.5266 22.3826C41.8635 22.6112 42.0319 22.554 42.2004 22.2111C41.695 21.6397 41.0774 21.2968 40.4037 21.0111C38.5509 20.211 36.6419 20.3253 34.7329 20.8968C33.5539 21.2397 32.3748 21.6968 31.4203 22.4969C31.308 22.554 31.2519 22.6683 31.1957 22.7255C31.9818 23.0112 32.7678 23.1826 33.5539 23.5255C34.2838 23.8684 35.0137 24.3255 35.7436 24.7256C35.519 25.1827 35.2383 25.6399 35.0137 26.0971C34.2838 25.6971 33.5539 25.297 32.7678 24.9542C31.6449 24.4398 30.522 24.1541 29.2868 24.497C28.4446 24.7256 27.7708 25.2399 27.434 26.0971C26.7041 28.1543 25.918 30.2687 25.1881 32.326C25.0758 32.6117 25.1881 33.0117 25.1881 33.2975C25.6373 37.1263 26.0864 41.0122 26.5356 44.841C26.4233 45.5839 26.5356 46.2696 26.5918 47.0125ZM24.8512 27.6972H24.9074C25.0197 27.4686 25.132 27.24 25.1881 27.0114C25.7496 25.3542 26.7041 23.9827 28.0516 22.8398C31.0834 20.211 32.5994 16.8966 32.0379 12.7821C31.9818 12.4392 31.8695 12.3249 31.5326 12.3249C29.7359 12.382 28.1638 13.0106 26.8163 14.2679C25.8057 15.2393 25.4127 16.4965 25.0197 17.7538C24.8512 18.2681 24.7389 18.7824 24.7389 19.2967C24.7389 19.9253 24.8512 20.5539 24.8512 21.1254C24.8512 23.1826 24.8512 25.2399 24.8512 27.2971C24.8512 27.4686 24.8512 27.5829 24.8512 27.6972ZM23.1107 27.7543H23.1668C23.1668 27.64 23.1668 27.5257 23.223 27.3543C23.223 24.8399 23.223 22.3826 23.2791 19.8682C23.2791 19.011 23.1668 18.2109 22.83 17.4109C22.6615 17.0109 22.5492 16.668 22.3808 16.268C21.314 13.4678 18.7313 12.2677 16.2047 12.2677C15.9802 12.2677 15.8679 12.3249 15.8679 12.5535C15.531 14.325 15.6994 16.0394 16.2609 17.6966C17.0469 20.0967 18.6752 21.8683 20.5841 23.4112C20.6403 23.4684 20.6964 23.4684 20.6964 23.4684C20.921 22.7255 21.0894 22.0397 21.314 21.2968C21.8755 21.4682 22.3247 21.5825 22.7177 21.6968C22.4931 22.6683 22.2124 23.5827 21.9878 24.497C21.9316 24.6684 21.9316 24.8399 21.9878 24.9542C22.3808 25.9256 22.7177 26.84 23.1107 27.7543ZM21.8193 12.5535C21.8755 12.382 21.9316 12.3249 21.9316 12.2677C21.9316 11.3534 21.9878 10.3819 21.9316 9.46759C21.7071 7.58177 20.5841 6.26741 18.8997 5.81025C18.619 5.7531 18.5067 5.81025 18.4506 6.09598C18.2821 7.01031 18.3944 7.92465 18.7313 8.78184C19.2366 10.039 20.135 11.0105 21.0894 11.8677C21.2579 12.0963 21.5386 12.3249 21.8193 12.5535Z" fill="#FFEB61"/>
<path d="M25.6934 9.58191C25.8057 8.66757 25.9179 7.81039 26.0302 6.9532C26.0302 6.83891 26.1987 6.72461 26.311 6.72461C26.704 6.72461 27.0409 6.78176 27.5462 6.83891C27.4339 7.81039 27.3777 8.72472 27.2654 9.75335C26.704 9.6962 26.2548 9.63906 25.6934 9.58191Z" fill="#FFEB61"/>
<path d="M27.377 20.1539C28.3876 19.5253 29.1175 18.6681 29.5666 17.5823C29.6228 17.5252 29.7351 17.4109 29.7912 17.4109C30.2404 17.5252 30.6896 17.6966 31.1387 17.868C30.858 18.6681 30.5211 19.411 29.9597 19.9825C29.3982 20.5539 28.7245 21.0111 28.1068 21.4682C27.9384 21.6397 27.77 21.5254 27.7138 21.2968C27.6577 20.8968 27.5454 20.5539 27.377 20.1539Z" fill="#FFEB61"/>
<path d="M29.7915 13.2393C30.2968 13.2393 30.746 13.2393 31.1952 13.2393C31.2513 13.2393 31.3636 13.3536 31.3636 13.4107C31.3636 14.1536 31.3074 14.8393 31.3074 15.6394C30.746 15.5822 30.2407 15.5251 29.7915 15.4679C29.7915 14.7251 29.7915 13.9822 29.7915 13.2393Z" fill="#FFEB61"/>
<path d="M21.3145 19.6396C21.1461 19.9825 20.9215 20.4396 20.6969 20.8968C19.3494 20.2682 18.4511 19.2396 17.7773 17.8681C18.2265 17.6966 18.6757 17.5252 19.0687 17.3538C19.7986 18.1538 20.5846 18.8967 21.3145 19.6396Z" fill="#FFEB61"/>
<path d="M18.0013 13.2393C18.0574 13.925 18.1136 14.6108 18.1697 15.2965C17.7206 15.4108 17.2714 15.5251 16.7099 15.6394C16.6538 14.8965 16.5976 14.1536 16.5415 13.4678C16.5415 13.4107 16.6538 13.2393 16.7099 13.2393C17.1591 13.1821 17.6083 13.2393 18.0013 13.2393Z" fill="#FFEB61"/>
</svg>
