<svg width="48" height="48" viewBox="0 0 48 48" fill="none" xmlns="http://www.w3.org/2000/svg">
<path d="M33.5466 14.5629L33.5555 14.6876C33.6179 14.6831 33.6804 14.6787 33.743 14.6742C34.9344 14.5887 36.1563 14.5011 37.2617 14.7682L37.262 14.7683C38.0358 14.953 38.6237 14.79 39.0727 14.4047C39.5137 14.0263 39.8083 13.4441 40.0288 12.8135L40.0289 12.8133C40.1604 12.4357 40.1396 12.0758 40.0008 11.7546C39.863 11.4356 39.612 11.1616 39.2932 10.9445L39.2929 10.9443C39.0167 10.7571 38.7172 10.5752 38.4011 10.4469C37.4482 10.057 36.6356 9.48431 35.8624 8.78098L35.8623 8.78087C35.232 8.20906 34.4567 7.76634 33.6993 7.38988L33.6988 7.38962C31.3862 6.25362 28.9798 6.77238 27.3723 8.54221C27.3296 8.58877 27.2809 8.63182 27.2233 8.68014C27.2097 8.69159 27.1955 8.70341 27.1808 8.71563C27.1537 8.73807 27.1251 8.76185 27.0956 8.78711C26.8806 8.68512 26.6748 8.58575 26.4621 8.47938L26.4621 8.47936L26.46 8.47838C26.0069 8.262 25.5547 8.04043 25.102 7.81859C24.0926 7.324 23.0806 6.82814 22.0495 6.38577L22.0493 6.38569C20.373 5.66983 18.5914 5.28918 16.7673 5.78908C13.0695 6.80043 10.4413 9.12066 8.97988 12.6494C6.87825 17.7164 7.91546 22.3889 11.0721 26.6599C11.6782 27.4813 12.1667 28.2607 12.3509 29.2331L12.351 29.2335C12.4004 29.4898 12.4676 29.7494 12.5387 29.9982C13.4767 33.2989 14.8748 36.3859 17.5025 38.7152L17.5025 38.7152C19.4991 40.4833 21.6359 41.6844 23.918 42.1811C26.2014 42.6782 28.6219 42.4684 31.1812 41.4278C36.1699 39.4002 38.4445 34.1668 36.801 29.2452C35.442 25.1727 30.8685 22.3342 26.6323 23.5369L26.6321 23.5369C26.1089 23.6864 25.5991 23.8982 25.0964 24.1071C24.8801 24.197 24.6652 24.2863 24.451 24.3698L24.4503 24.3701C24.2162 24.4632 23.9882 24.5616 23.7624 24.6591C23.3107 24.8541 22.8677 25.0454 22.4016 25.1823C20.6564 25.6927 18.9648 25.7434 17.3749 24.725C14.5455 22.9111 13.1112 19.2004 13.9837 15.9271C14.5213 13.916 15.597 12.5345 17.0045 11.8482C18.4123 11.1617 20.1734 11.1603 22.1025 11.9528C22.4838 12.1098 22.8619 12.2775 23.2423 12.4461C23.3088 12.4756 23.3755 12.5052 23.4422 12.5347C23.8894 12.7325 24.3401 12.929 24.7982 13.1061C25.7145 13.4601 26.6652 13.7383 27.691 13.7968C27.7406 13.7999 27.7957 13.8167 27.8598 13.8442C27.9008 13.8618 27.9371 13.8797 27.9759 13.8989C28.0022 13.9118 28.0295 13.9253 28.0601 13.9396L28.0611 13.94C29.8268 14.7467 31.6731 14.8249 33.5557 14.6875L33.5466 14.5629ZM33.5466 14.5629C31.6722 14.6996 29.8507 14.6202 28.113 13.8263L35.7783 8.87345C36.5589 9.58352 37.3837 10.1657 38.354 10.5626C38.6583 10.6861 38.9494 10.8625 39.2228 11.0478C39.8315 11.4624 40.1534 12.0754 39.9108 12.7722C39.4742 14.0204 38.7686 14.9995 37.2911 14.6467C36.166 14.3748 34.926 14.4639 33.7402 14.549C33.6755 14.5537 33.611 14.5583 33.5466 14.5629ZM19.0329 38.6017L19.0332 38.6019C22.5455 41.3007 26.3898 42.1431 30.5813 40.4988C34.6505 38.9016 37.0528 34.8288 35.9654 30.2576L35.9654 30.2575C35.491 28.2581 34.0446 26.3711 32.1119 25.2923C30.1828 24.2155 27.7737 23.946 25.3647 25.1711L25.3646 25.1711C24.2777 25.7235 23.0909 26.1098 21.925 26.4498C20.3402 26.9135 18.7672 26.7329 17.3145 25.9504C13.1173 23.6975 10.7321 17.4826 14.4031 12.6656L14.4031 12.6656C16.0181 10.5481 18.6376 9.39836 21.5533 10.5836L21.5535 10.5837C21.8644 10.7108 22.1737 10.8393 22.4826 10.9677C23.1626 11.2503 23.8404 11.532 24.5277 11.7954C24.7147 11.866 24.8992 11.9447 25.0798 12.0228C25.1056 12.034 25.1313 12.0451 25.1569 12.0562C25.3115 12.1233 25.463 12.189 25.6136 12.2494C25.9178 12.3712 26.2091 12.4672 26.4929 12.5029V12.5026V12.4966V12.4907V12.4847V12.4788V12.4728V12.4669V12.4609V12.455V12.4491V12.4431V12.4372V12.4313V12.4253V12.4194V12.4135V12.4075V12.4016V12.3957V12.3898V12.3839V12.3779V12.372V12.3661V12.3602V12.3543V12.3484V12.3425V12.3366V12.3306V12.3247V12.3188V12.3129V12.307V12.3011V12.2952V12.2893V12.2834V12.2776V12.2717V12.2658V12.2599V12.254V12.2481V12.2422V12.2363V12.2305V12.2246V12.2187V12.2128V12.2069V12.2011V12.1952V12.1893V12.1834V12.1776V12.1717V12.1658V12.16V12.1541V12.1482V12.1424V12.1365V12.1306V12.1248V12.1189V12.113V12.1072V12.1013V12.0955V12.0896V12.0838V12.0779V12.0721V12.0662V12.0603V12.0545V12.0487V12.0428V12.037V12.0311V12.0253V12.0194V12.0136V12.0077V12.0019V11.996V11.9902V11.9844V11.9785V11.9727V11.9669V11.961V11.9552V11.9493V11.9435V11.9377V11.9318V11.926V11.9202V11.9144V11.9085V11.9027V11.8969V11.891V11.8852V11.8794V11.8736V11.8677V11.8619V11.8561V11.8503V11.8444V11.8386V11.8328V11.827V11.8211V11.8153V11.8095V11.8037V11.7979V11.792V11.7862V11.7804V11.7746V11.7688V11.7629V11.7571V11.7513V11.7455V11.7397V11.7339V11.728V11.7222V11.7164V11.7106V11.7048V11.699V11.6932V11.6874V11.6815V11.6757V11.6699V11.6641V11.6583V11.6525V11.6467V11.6409V11.635V11.6292V11.6234V11.6176V11.6118V11.606V11.6002V11.5944V11.5886V11.5827V11.5769V11.5711V11.5653V11.5595V11.5537V11.5479V11.5421V11.5363V11.5304V11.5246V11.5188V11.513V11.5072V11.5014V11.4956V11.4898V11.484V11.4781V11.4723V11.4665V11.4607V11.4549V11.4491V11.4433V11.4374V11.4316V11.4258V11.42V11.4142V11.4084V11.4026V11.3967V11.3909V11.3851V11.3793V11.3735V11.3677V11.3618V11.356V11.3502V11.3444V11.3386V11.3328V11.3269V11.3211V11.3153V11.3095V11.3037V11.2978V11.292V11.2862V11.2804V11.2745V11.2687V11.2629V11.2571V11.2512V11.2454V11.2396V11.2337V11.2279V11.2221V11.2163V11.2104V11.2046V11.1988V11.1929V11.1871V11.1813V11.1754V11.1696V11.1638V11.1579V11.1521V11.1462V11.1404V11.1346V11.1287V11.1229V11.117V11.1112V11.1053V11.0995V11.0936V11.0878V11.082V11.0761V11.0703V11.0644V11.0585V11.0527V11.0468V11.041V11.0351V11.0293V11.0234V11.0176V11.0117V11.0058V11V10.9941V10.9882V10.9824V10.9765V10.9706V10.9648V10.9589V10.953V10.9472V10.9413V10.9354V10.9295V10.9237V10.9178V10.9119V10.906V10.9001V10.8943V10.8884V10.8825V10.8766V10.8707V10.8648V10.8589V10.853V10.8471V10.8412V10.8353V10.8295V10.8236V10.8177V10.8117V10.8058V10.7999V10.794V10.7881V10.7822V10.7763V10.7704V10.7645V10.7586V10.7526V10.7467V10.7408V10.7349V10.729V10.723V10.7171V10.7112V10.7053V10.6993V10.6934V10.6875V10.6815V10.6756V10.6696V10.6637V10.6578V10.6518V10.6459V10.6399V10.634V10.628V10.6221V10.6161V10.6102V10.6042V10.5982V10.5923V10.5863V10.5803V10.5744V10.5684V10.5624V10.5565V10.5505V10.5445V10.5385V10.5325V10.5266V10.5206V10.5146V10.5086V10.5026V10.4966V10.4906V10.4846V10.4786V10.4726V10.4666V10.4606V10.4546V10.4486V10.4426V10.4366V10.4306V10.4245V10.4185V10.4125V10.4065V10.4005V10.3944V10.3884V10.3824V10.3763V10.3703V10.3642V10.3582V10.3522V10.3461V10.3401V10.334V10.328V10.3219V10.3158V10.3098V10.3037V10.2977V10.2916V10.2855V10.2794V10.2734V10.2673V10.2612V10.2551V10.2491V10.243V10.2369V10.2308V10.2247V10.2186V10.2125V10.2064V10.2003V10.1942V10.1881V10.182V10.1758V10.1697V10.1636V10.1575V10.1514V10.1452V10.1391V10.133V10.1268V10.1207V10.1145V10.1084V10.1023V10.0961V10.09V10.0838V10.0776V10.0715V10.0653V10.0592V10.053V10.0468V10.0406V10.0345V10.0283V10.0221V10.0159V10.0097V10.0035V9.99734V9.99114V9.98494V9.97874V9.97253V9.96632V9.96011V9.9539V9.94768V9.94146V9.93523V9.929V9.92277V9.91654V9.9103V9.90407V9.89782V9.89158V9.88533V9.87908V9.87282V9.86656V9.8603V9.85404V9.84777V9.8415V9.83523V9.82895V9.82267V9.81638V9.8101V9.80381V9.79751V9.79122V9.78492V9.77861V9.77231V9.766V9.75969V9.75337V9.74705V9.74073V9.7344V9.72807V9.72174V9.7154V9.70906V9.70272V9.69637V9.69002V9.68366V9.67731V9.67095V9.66838C25.9438 9.41814 25.3955 9.16096 24.8459 8.90321C23.569 8.30431 22.2854 7.70229 20.9703 7.17685C19.3355 6.52378 17.6351 6.57013 15.9681 7.2213C13.5137 8.18039 11.6798 9.8485 10.463 12.1687C8.61209 15.7091 8.61924 19.3437 10.1456 22.9913C11.0854 25.2292 12.5307 27.0975 14.5387 28.4987L14.5389 28.4988C15.5925 29.2361 16.6607 29.7098 17.7575 29.8471C18.8526 29.9843 19.9848 29.7873 21.1704 29.1696C21.1705 29.1696 21.1705 29.1696 21.1706 29.1695L21.2284 29.2804C22.1104 28.8173 23.0322 28.4248 23.9496 28.0367L19.0329 38.6017ZM19.0329 38.6017C18.1386 37.9183 17.3282 37.1546 16.7003 36.1262C17.7756 35.6093 18.756 34.9989 19.459 33.8687M19.0329 38.6017L19.459 33.8687M19.459 33.8687C19.5255 33.9341 19.5898 33.9979 19.6527 34.0601C19.8566 34.262 20.0449 34.4485 20.24 34.6256C20.2401 34.6256 20.2402 34.6257 20.2402 34.6258L19.459 33.8687ZM30.2655 35.1784L30.2654 35.1785C29.0843 36.0621 27.7134 36.3909 26.2722 36.2567C23.1602 35.9652 20.3405 33.935 18.9858 31.1755C19.8163 30.831 20.6478 30.487 21.4791 30.1432C22.6065 29.6768 23.7337 29.2106 24.8576 28.7431L24.8577 28.743C25.8708 28.3207 27.0722 28.3638 28.1752 28.7009C29.2785 29.0381 30.2664 29.6646 30.8518 30.3867L30.8519 30.3869C31.4942 31.1769 31.7521 32.0709 31.6501 32.9156C31.5482 33.7601 31.0852 34.5663 30.2655 35.1784ZM38.0043 11.4838L38.0049 11.4842C38.0834 11.5338 38.168 11.5787 38.2483 11.6213C38.2713 11.6334 38.2938 11.6454 38.3158 11.6572C38.4178 11.7122 38.5117 11.7667 38.5946 11.8329C38.7137 11.9281 38.8139 12.0506 38.8674 12.2414C38.6751 12.16 38.5035 12.0882 38.3411 12.0203C38.278 11.9939 38.2163 11.9681 38.1553 11.9425L38.0655 11.9048L38.007 11.9828L38.0005 11.9915C37.9035 12.1207 37.8211 12.2306 37.7709 12.3295C37.7161 12.4375 37.6921 12.5464 37.7279 12.6685C37.7606 12.78 37.8395 12.8876 37.9471 13.0072C38.0484 13.1199 38.1876 13.2561 38.3653 13.429C38.3443 13.5908 38.2753 13.6624 38.2011 13.6972C38.1061 13.7417 37.9688 13.7419 37.8142 13.7048L37.8132 13.7045C36.3266 13.3612 34.8476 13.4995 33.3862 13.6362C33.2285 13.6509 33.071 13.6657 32.9138 13.6798C31.631 13.7928 30.3691 13.6277 29.1359 13.2182L29.1357 13.2181C28.444 12.9896 27.8578 12.4899 27.5952 11.8489C27.3351 11.2138 27.3854 10.4224 27.9977 9.58684L27.9978 9.58672C29.1823 7.96603 31.3818 7.41992 33.3042 8.40684C33.6541 8.58828 33.9872 8.80727 34.3199 9.0384C34.4272 9.11292 34.5349 9.18904 34.643 9.26552C34.8681 9.42463 35.0954 9.5853 35.3258 9.73644C36.2166 10.323 37.1082 10.91 38.0043 11.4838ZM14.7638 32.9594C15.1333 32.7687 15.4933 32.5832 15.8514 32.3987C16.4708 32.0796 17.0845 31.7634 17.7315 31.4284C17.7899 31.5189 17.8508 31.6135 17.9142 31.7117C18.149 32.0759 18.4167 32.4909 18.7048 32.94C18.0707 34.0226 17.2395 34.7918 15.8628 35.076C15.5976 34.5624 15.3441 34.0752 15.1036 33.6129C14.9872 33.3893 14.8739 33.1715 14.7638 32.9594ZM16.0951 30.6003C16.2245 30.6623 16.3567 30.7258 16.4921 30.7917C16.0939 31.101 15.7853 31.2968 15.4639 31.4252C15.1239 31.5611 14.7619 31.6248 14.252 31.6591C13.9871 30.8396 13.711 29.9866 13.4346 29.1327C13.4449 29.1241 13.4553 29.1155 13.4657 29.107C13.5889 29.1848 13.7119 29.2639 13.8353 29.3432C14.1885 29.5704 14.5444 29.7993 14.9136 30.0027C15.2862 30.2121 15.6757 30.399 16.0951 30.6003Z" fill="#FFEB61" stroke="#FFEB61" stroke-width="0.25"/>
</svg>
