<svg width="48" height="48" viewBox="0 0 48 48" fill="none" xmlns="http://www.w3.org/2000/svg">
<path d="M16.8751 37.4902C16.5153 36.5328 16.0955 35.5398 15.7657 34.5145C15.4858 33.6412 15.2826 32.742 15.106 31.8428C15.026 31.4353 15.086 30.9986 15.1093 30.5782C15.1193 30.4294 15.1993 30.2741 15.2792 30.1383C15.6224 29.5626 16.2954 29.5043 16.6552 30.0639C16.9018 30.4488 17.0783 30.8984 17.185 31.3415C17.5581 32.8681 17.8646 34.4077 18.2411 35.9344C18.6042 37.4125 18.9974 38.8842 19.697 40.2588C19.847 40.5564 20.0169 40.841 20.1801 41.1321C20.2068 41.1257 20.2301 41.1224 20.2568 41.116C20.4567 40.4658 20.6765 39.8189 20.8598 39.1656C21.7027 36.1479 22.5223 33.1204 23.3819 30.1059C23.5285 29.5917 23.5584 29.0709 23.6417 28.5534C24.2481 24.7724 24.6113 20.9719 24.5879 17.1391C24.5846 16.8189 24.5113 16.5504 24.3281 16.282C23.7484 15.4346 23.1853 14.5774 22.6189 13.7203C22.4923 13.5295 22.349 13.4551 22.0992 13.4486C21.4495 13.4357 20.7998 13.371 20.2234 13.0249C20.1568 12.9861 20.0202 12.9926 19.9502 13.0314C19.4238 13.3451 18.8941 13.6589 18.3877 14.0017C18.0279 14.2443 17.8113 14.6033 17.678 15.0109C17.6181 15.1985 17.5381 15.3828 17.4415 15.5542C16.9151 16.4955 15.7857 16.5569 15.1626 15.6707C14.6529 14.9462 14.6562 14.1537 14.9927 13.3807C15.2026 12.8955 15.5191 12.4524 15.7956 11.9737C14.6429 11.2201 13.4302 10.5538 11.9076 11.1166C11.5178 11.2621 11.1213 11.3883 10.7215 11.5047C10.2384 11.6438 9.82529 11.5144 9.54543 11.1037C9.37885 10.8611 9.23558 10.5894 9.15562 10.308C8.97238 9.6514 9.14896 9.27297 9.79864 8.99158C10.6016 8.64226 11.2779 8.15063 11.8876 7.53608C12.7938 6.6175 13.9266 6.28112 15.2259 6.47842C15.2626 6.48489 15.2992 6.47842 15.3292 6.47842C15.0827 5.79596 14.7895 5.1426 14.6129 4.46013C14.4763 3.93292 14.413 3.36366 14.4497 2.82351C14.5196 1.81114 15.2726 1.2063 16.3254 1.24511C17.2216 1.27745 18.0345 1.59443 18.7875 2.03755C19.4638 2.43538 20.1235 2.86556 20.8065 3.29251C20.8331 3.26016 20.8731 3.22782 20.8931 3.18901C21.2729 2.42568 21.8826 1.87906 22.5889 1.4036C23.0487 1.09633 23.4851 0.756712 23.8949 0.387987C24.2914 0.0289648 24.6945 -0.0260203 25.1776 0.180983C26.3104 0.659679 26.7802 1.56532 26.4737 2.72648C26.3037 3.3669 26.0605 3.99438 25.9806 4.6445C25.9106 5.21053 26.0039 5.80243 26.0672 6.37816C26.0905 6.56899 26.2404 6.75335 26.3471 6.92801C26.7868 7.64282 26.8002 8.27353 26.2271 8.89131C25.6741 9.48968 25.0277 10.0104 24.4047 10.5441C23.8883 10.9905 23.8716 10.9808 24.1681 11.5888C24.9044 13.0993 25.1776 14.7068 25.2376 16.3596C25.3376 19.1477 25.1543 21.9261 24.8511 24.698C24.8211 24.9826 24.7912 25.2672 24.7545 25.623C24.8211 25.5195 24.8545 25.4807 24.8711 25.4354C25.7274 22.987 26.9268 20.6938 28.1995 18.4264C29.6321 15.8744 30.8148 13.2093 31.9109 10.5085C31.9609 10.3856 32.0176 10.2886 31.8643 10.1786C31.4279 9.87781 31.3146 9.42822 31.4478 8.9657C31.881 7.48757 32.464 6.06765 33.3636 4.79328C33.5102 4.58628 33.7134 4.40192 33.9299 4.26283C34.403 3.9588 34.9261 4.14639 35.0361 4.68654C35.1094 5.04557 35.1193 5.44017 35.0494 5.79919C34.7862 7.16735 34.2831 8.4579 33.5535 9.65787C33.3469 9.99749 33.137 10.3403 32.7239 10.4924C32.6672 10.5118 32.6206 10.5862 32.5939 10.6444C31.881 12.2584 31.1713 13.8756 30.465 15.4895C30.455 15.5122 30.4617 15.5445 30.455 15.6222C30.6116 15.454 30.7315 15.3117 30.8648 15.1823C31.6777 14.3801 32.5007 13.5845 33.3069 12.7759C33.4035 12.6788 33.4735 12.5074 33.4668 12.3748C33.4468 11.9931 33.6334 11.7117 33.86 11.44C34.483 10.6864 35.2293 10.0589 36.0389 9.50908C36.4953 9.20181 36.9751 8.91718 37.4782 8.6843C37.8813 8.49671 38.3411 8.43849 38.6942 8.81044C39.0507 9.18564 38.9075 9.60935 38.7109 10.0007C38.571 10.2724 38.4077 10.5409 38.2111 10.777C37.4182 11.7505 36.4487 12.5236 35.3259 13.1155C34.9128 13.3322 34.493 13.4227 34.0432 13.2028C33.9866 13.1737 33.86 13.1963 33.8133 13.2416C31.6378 15.247 29.6021 17.3655 28.1395 19.9434C26.6802 22.5147 25.5475 25.222 24.7112 28.0327C23.7883 31.1216 22.9654 34.2395 22.1025 37.3446C22.0858 37.4061 22.0858 37.474 22.0692 37.626C22.1958 37.4902 22.2691 37.4125 22.3391 37.3381C24.2115 35.3619 26.1705 33.4827 28.5959 32.1404C29.2356 31.7878 29.9286 31.5 30.6283 31.2833C31.4512 31.031 32.0909 31.6941 31.791 32.4833C31.6278 32.9134 31.3412 33.3274 31.0281 33.6768C30.2185 34.5792 29.1956 35.2358 28.1828 35.8988C26.5636 36.9597 24.7878 37.7198 23.0187 38.5025C22.6289 38.674 22.2324 38.8324 21.856 39.0265C21.7227 39.0944 21.5794 39.2335 21.5328 39.3726C20.6632 41.9731 19.867 44.593 19.2606 47.2678C19.2306 47.394 19.194 47.5169 19.1706 47.643C19.1273 47.8694 18.9907 47.9762 18.7575 47.9277C18.521 47.8791 18.4543 47.7207 18.5076 47.5007C18.7442 46.5207 18.9707 45.5374 19.2239 44.5639C19.4272 43.7811 19.6737 43.0049 19.8836 42.2221C19.9136 42.1057 19.8603 41.9472 19.7937 41.834C19.5171 41.365 19.0507 41.1936 18.5409 41.0319C16.6885 40.4497 14.8761 39.7704 13.2569 38.6966C12.8838 38.4475 12.5373 38.1467 12.2274 37.8265C11.9242 37.516 11.7443 37.1182 11.9409 36.6848C12.1341 36.2578 12.5339 36.0702 12.987 36.0153C13.79 35.915 14.5196 36.1673 15.2093 36.5231C15.8056 36.8433 16.362 37.1926 16.8751 37.4902ZM20.6099 6.60457C20.6232 6.59486 20.6366 6.58516 20.6499 6.57869C20.5999 6.17115 20.5133 5.76038 20.5033 5.3496C20.4966 4.93883 20.5699 4.52806 20.5933 4.11405C20.5966 4.0526 20.5499 3.96203 20.4966 3.92969C19.9003 3.53509 19.3006 3.14372 18.6975 2.76206C18.1212 2.3998 17.5048 2.11841 16.8285 1.99227C15.769 1.79497 15.026 2.13458 15.1093 3.35719C15.176 4.33723 15.4791 5.25581 15.9522 6.11617C16.1255 6.42991 16.3953 6.69836 16.6552 6.95388C17.4715 7.74955 18.3244 8.50964 19.1173 9.32796C19.4405 9.6611 19.707 9.93279 20.2101 9.73226C20.2734 9.70638 20.35 9.71609 20.42 9.70638C21.0297 9.62876 21.0297 9.62876 21.1097 9.02069C21.1163 8.96247 21.123 8.90101 21.1463 8.84602C21.2696 8.5808 21.143 8.40291 20.9831 8.1862C19.9969 6.85685 19.034 5.5178 18.0645 4.17551C17.9379 4.00085 17.8679 3.81648 18.1345 3.68387C18.371 3.5642 18.5443 3.59007 18.6942 3.83265C18.9674 4.28224 19.2539 4.72536 19.5571 5.15877C19.8969 5.64717 20.2568 6.12263 20.6099 6.60457ZM18.4943 9.74843C18.5076 9.72903 18.521 9.70962 18.5343 9.69021C18.501 9.64169 18.4776 9.58671 18.4343 9.5479C17.7747 8.92041 17.155 8.24442 16.4387 7.67839C15.3392 6.81157 13.4601 6.93124 12.4873 7.92745C11.781 8.64872 11.0014 9.23739 10.0652 9.6417C9.96522 9.68374 9.83862 9.79048 9.82529 9.88105C9.77865 10.2174 9.8786 10.5312 10.1285 10.777C10.345 10.9905 10.5849 10.8578 10.8115 10.7867C10.8881 10.764 10.9614 10.7252 11.038 10.6994C12.0242 10.3533 13.0337 10.0428 14.0698 10.4083C14.7795 10.6605 15.4425 11.039 16.1155 11.3818C16.2721 11.4627 16.362 11.4789 16.5153 11.3754C16.9784 11.0745 17.4615 10.7996 17.9346 10.515C17.9979 10.4762 18.0612 10.4341 18.1711 10.3694C18.0279 10.2853 17.9313 10.2207 17.8246 10.1689C17.045 9.80665 16.2687 9.44116 15.4858 9.08537C15.3259 9.01098 15.186 8.93659 15.2526 8.73605C15.3126 8.55169 15.4525 8.46113 15.6491 8.49024C15.779 8.50965 15.9089 8.54523 16.0289 8.59698C16.4553 8.78457 16.8784 8.97864 17.2982 9.17594C17.7047 9.3603 18.1012 9.5576 18.4943 9.74843ZM23.865 6.48166C24.388 6.48166 24.8711 6.48166 25.3775 6.48166C25.2043 5.63423 25.2043 4.82563 25.3875 4.02995C25.5041 3.51245 25.6874 3.00464 25.8207 2.49037C26.0072 1.77879 25.7773 1.28716 25.121 0.924904C24.7112 0.698493 24.6246 0.721133 24.2548 1.009C23.8083 1.36478 23.3319 1.68499 22.8854 2.04078C22.5489 2.30924 22.1891 2.57123 21.9326 2.90114C20.7665 4.41809 21.163 6.02883 21.6494 7.65899C22.1858 7.35495 22.1558 7.35819 22.0858 6.84391C22.0092 6.31023 21.9892 5.76685 21.9626 5.2267C21.9526 5.02293 22.0525 4.85797 22.2824 4.82239C22.509 4.79005 22.6289 4.92913 22.6356 5.18465C22.6522 5.74097 22.6822 6.29729 22.7055 6.85685C23.052 6.85362 23.182 6.73394 23.1753 6.45902C23.172 6.23261 23.1953 6.00619 23.2186 5.77978C23.2419 5.54691 23.4119 5.48868 23.6151 5.52103C23.8083 5.55014 23.9616 5.62777 23.9216 5.87359C23.8883 6.07412 23.8816 6.28112 23.865 6.48166ZM23.765 10.088C23.795 10.1075 23.8216 10.1301 23.8516 10.1495C24.3281 9.74196 24.8145 9.34413 25.2809 8.92688C25.4742 8.75546 25.6507 8.55816 25.7907 8.34145C26.1538 7.78513 25.9639 7.3129 25.2976 7.20293C24.3647 7.05091 23.4685 7.1997 22.6889 7.75279C21.8859 8.31882 21.6527 9.13066 21.7427 10.0525C21.8293 10.9549 21.6827 11.7861 20.9931 12.4589C20.9731 12.4783 20.9664 12.5106 20.9531 12.5333C21.2163 12.7047 21.786 12.8244 22.2691 12.8114C23.0121 12.792 23.4119 12.336 23.2986 11.6244C23.2619 11.3915 23.192 11.1619 23.152 10.929C23.0254 10.1948 23.102 9.48968 23.5518 8.8622C23.7384 8.60021 24.0549 8.51611 24.2348 8.67137C24.4747 8.88161 24.2748 9.06273 24.1715 9.2471C24.1348 9.31502 24.0682 9.37324 24.0382 9.4444C23.9383 9.65787 23.855 9.87134 23.765 10.088ZM21.033 10.3759C20.9897 10.3694 20.9597 10.3597 20.9298 10.3597C20.8698 10.3597 20.8065 10.363 20.7465 10.3727C19.3605 10.5635 18.0812 11.0034 17.0017 11.8961C16.3287 12.4557 15.7623 13.0993 15.5225 13.9532C15.3692 14.4998 15.4358 15.0206 15.849 15.4475C16.1688 15.7742 16.5853 15.7095 16.8085 15.3149C16.8851 15.1758 16.9451 15.027 16.9917 14.8782C17.185 14.2378 17.5614 13.7074 18.1278 13.3451C18.7542 12.944 19.4172 12.6012 20.0735 12.2454C20.8198 11.8379 21.1397 11.2395 21.033 10.3759ZM22.8821 37.7295C22.8988 37.7489 22.9154 37.7651 22.9354 37.7845C22.9554 37.7845 22.9754 37.7877 22.9921 37.7813C24.8345 37.0115 26.6169 36.1349 28.2828 35.0449C29.1623 34.4692 30.0219 33.8741 30.7049 33.0719C30.9015 32.839 31.0547 32.5641 31.188 32.2924C31.2946 32.0725 31.198 31.956 30.9481 31.956C30.8182 31.956 30.6816 31.9754 30.5616 32.0207C30.1485 32.1825 29.722 32.3312 29.3356 32.5382C27.9962 33.2595 26.7635 34.1263 25.6407 35.1387C24.7012 35.9861 23.7983 36.8659 22.8821 37.7295ZM18.6342 40.3979C18.6509 40.3753 18.6676 40.3494 18.6875 40.3267C18.4177 40.0098 18.1578 39.6863 17.8813 39.3791C16.8851 38.2794 15.689 37.4449 14.2964 36.8853C13.84 36.701 13.3602 36.6072 12.8671 36.7624C12.5872 36.8497 12.5073 37.0244 12.6672 37.2605C12.8038 37.4643 12.9771 37.6519 13.167 37.8104C14.1198 38.5931 15.2493 39.0653 16.3854 39.5278C16.4253 39.544 16.4786 39.5311 16.6386 39.5311C16.5086 39.3985 16.4453 39.3144 16.3654 39.2562C15.9722 38.978 15.5691 38.7095 15.1793 38.4281C15.106 38.3764 15.0227 38.2729 15.026 38.1985C15.036 37.9947 15.5191 37.8007 15.6924 37.9268C16.0522 38.1856 16.3987 38.4572 16.7552 38.7192C17.2916 39.1138 17.2816 39.24 16.6785 39.5375C16.6652 39.544 16.6552 39.5634 16.6152 39.6184C17.2916 39.8804 17.9646 40.1392 18.6342 40.3979ZM34.6596 12.6659C34.7695 12.6238 34.9494 12.5786 35.106 12.4912C36.0522 11.9543 36.9051 11.3042 37.6014 10.4762C37.798 10.2401 37.9646 9.97484 38.1112 9.70638C38.1745 9.59318 38.1478 9.43469 38.1612 9.29561C38.0246 9.30531 37.8813 9.28914 37.7547 9.33119C37.5448 9.40235 37.3382 9.49615 37.1483 9.60935C36.1355 10.2142 35.246 10.9581 34.453 11.8152C34.3731 11.9026 34.2964 11.9996 34.2365 12.0999C34.0699 12.391 34.2464 12.6691 34.6596 12.6659ZM18.0812 38.2599C18.1145 38.2438 18.1478 38.2308 18.1811 38.2147C18.1711 38.1694 18.1645 38.1209 18.1511 38.0756C17.7313 36.4099 17.3116 34.7474 16.8851 33.0849C16.6752 32.2633 16.4553 31.445 16.2221 30.6299C16.1921 30.5297 16.0522 30.4617 15.9656 30.3776C15.9056 30.4747 15.7923 30.5685 15.7923 30.6655C15.7857 31.1248 15.7623 31.5938 15.829 32.0466C16.0688 33.6185 16.6619 35.0902 17.2616 36.5554C17.4981 37.1408 17.8046 37.6939 18.0812 38.2599ZM34.4563 4.84503C34.4064 4.82239 34.3564 4.80299 34.3064 4.78035C34.1665 4.93883 33.9932 5.07791 33.8933 5.25581C33.4635 6.04824 33.0404 6.84391 32.6472 7.65576C32.454 8.05359 32.3341 8.487 32.1908 8.90748C32.1475 9.03686 32.1009 9.19211 32.1408 9.31178C32.1908 9.4735 32.2908 9.65787 32.4307 9.74196C32.494 9.78078 32.7472 9.6514 32.8272 9.53819C33.5601 8.487 34.0132 7.31614 34.2898 6.08705C34.3864 5.68275 34.4064 5.25904 34.4563 4.84503ZM23.1853 13.3322C23.5918 13.9403 24.0016 14.558 24.4147 15.1726C24.3647 14.2863 24.1948 13.4422 23.8583 12.6271C23.6217 12.8729 23.4185 13.0864 23.1853 13.3322Z" fill="#FFEB61"/>
<path d="M11.6941 6.19049C11.5908 6.11934 11.5209 6.09022 11.4876 6.04171C11.4476 5.98025 11.4343 5.90263 11.4109 5.82823C11.221 5.20075 10.8279 4.76088 10.1782 4.55387C10.0416 4.51182 9.91168 4.46977 9.91168 4.29835C9.90835 4.12046 10.0549 4.11399 10.1749 4.07194C10.8346 3.8423 11.291 3.42829 11.4676 2.75229C11.5009 2.62938 11.5509 2.51294 11.7074 2.51618C11.8607 2.51941 11.9073 2.62938 11.9373 2.75552C12.0906 3.43475 12.537 3.84877 13.2034 4.059C13.3433 4.10429 13.4432 4.16574 13.4466 4.31452C13.4532 4.46978 13.32 4.48918 13.21 4.52153C12.5004 4.72853 12.0873 5.20399 11.884 5.87999C11.8507 5.97702 11.7708 6.06435 11.6941 6.19049ZM11.6575 5.07138C11.9307 4.80939 12.2239 4.52799 12.527 4.23689C12.1706 4.06547 11.8874 3.80025 11.7308 3.47357C11.4442 3.7582 11.1577 4.03959 10.9045 4.29188C11.1477 4.55063 11.4109 4.81909 11.6575 5.07138Z" fill="#FFEB61"/>
<path d="M38.5046 6.94096C38.4813 6.96036 38.4346 7.03153 38.3746 7.05093C37.7849 7.22883 37.4018 7.58138 37.2719 8.18298C37.2585 8.25091 37.1486 8.32853 37.0753 8.33823C37.022 8.3447 36.9254 8.26061 36.892 8.19592C36.8088 8.03096 36.7688 7.8466 36.6755 7.68811C36.5022 7.39054 36.239 7.19001 35.8892 7.10592C35.7626 7.07681 35.646 7.03476 35.646 6.87627C35.646 6.73072 35.7593 6.69514 35.8759 6.65309C36.3556 6.47197 36.7055 6.16793 36.8321 5.66336C36.8421 5.63101 36.8454 5.58897 36.8687 5.56632C36.932 5.51134 37.002 5.42725 37.0686 5.42725C37.1353 5.42725 37.2219 5.50164 37.2619 5.56632C37.3152 5.66012 37.3218 5.7798 37.3685 5.87683C37.565 6.2779 37.8849 6.54312 38.328 6.66927C38.4912 6.71131 38.5079 6.73395 38.5046 6.94096ZM37.5784 6.88921C37.4085 6.72102 37.2086 6.52048 37.0686 6.3814C36.9254 6.52695 36.7221 6.72749 36.5389 6.91185C36.6721 7.04446 36.8754 7.245 37.0353 7.40348C37.2319 7.21912 37.4384 7.02182 37.5784 6.88921Z" fill="#FFEB61"/>
<path d="M13.1969 35.2293C13.1703 35.1614 13.1203 35.0934 13.1236 35.0255C13.127 34.6536 13.0703 34.301 12.8304 34.0002C12.7405 33.887 12.6172 33.8029 12.5273 33.6897C12.474 33.6218 12.414 33.5118 12.4373 33.4406C12.4573 33.376 12.5772 33.2983 12.6572 33.2983C13.1936 33.2854 13.63 33.0978 13.9632 32.6773C14.0132 32.6159 14.1531 32.5544 14.2064 32.5803C14.2731 32.6094 14.3297 32.7388 14.323 32.8164C14.2864 33.3274 14.5129 33.7188 14.8961 34.0358C14.9827 34.1069 15.0593 34.1716 15.0127 34.2945C14.9694 34.411 14.8728 34.4401 14.7595 34.4401C14.2064 34.4466 13.7833 34.6891 13.4801 35.129C13.4168 35.2228 13.3568 35.2649 13.1969 35.2293ZM14.1631 34.0067C14.0931 33.8482 13.9865 33.6024 13.8866 33.3727C13.66 33.473 13.4201 33.583 13.2502 33.6574C13.3568 33.8805 13.4701 34.1199 13.5634 34.3172C13.7433 34.2234 13.9799 34.1005 14.1631 34.0067Z" fill="#FFEB61"/>
<path d="M23.8116 42.5393C22.9687 42.5328 22.3157 41.8762 22.3223 41.0482C22.329 40.2525 23.0253 39.6056 23.8582 39.6153C24.7011 39.6283 25.3575 40.2784 25.3475 41.0902C25.3375 41.9086 24.6645 42.5457 23.8116 42.5393ZM23.8316 42.0315C24.3646 42.0282 24.8177 41.5883 24.8144 41.0805C24.8077 40.576 24.3613 40.1458 23.8416 40.1458C23.3085 40.1458 22.8454 40.5824 22.8521 41.087C22.8554 41.6078 23.2952 42.0315 23.8316 42.0315Z" fill="#FFEB61"/>
<path d="M20.6831 14.7229C20.6831 15.2048 20.3266 15.5671 19.8502 15.5703C19.3504 15.5735 18.9673 15.2048 18.9673 14.7261C18.9673 14.2442 19.3438 13.8755 19.8269 13.8819C20.3333 13.8852 20.6831 14.2312 20.6831 14.7229ZM20.23 14.7293C20.2333 14.5094 20.0534 14.3283 19.8235 14.3283C19.6136 14.3283 19.4404 14.5062 19.4304 14.7261C19.4237 14.9428 19.5936 15.1207 19.8135 15.1207C20.0434 15.1207 20.2267 14.9493 20.23 14.7293Z" fill="#FFEB61"/>
<path d="M27.2631 6.3619C26.8067 6.3619 26.4469 5.98994 26.4502 5.53065C26.4569 5.06166 26.8 4.73175 27.2898 4.72852C27.7496 4.72852 28.1161 5.07784 28.1161 5.52419C28.1161 5.99965 27.7462 6.36514 27.2631 6.3619ZM27.6629 5.52419C27.6629 5.33012 27.4897 5.17163 27.2731 5.17163C27.0666 5.17163 26.9033 5.33982 26.9033 5.54359C26.9033 5.7506 27.0533 5.89938 27.2598 5.90262C27.4964 5.90908 27.6629 5.7506 27.6629 5.52419Z" fill="#FFEB61"/>
</svg>
