<svg width="48" height="48" viewBox="0 0 48 48" fill="none" xmlns="http://www.w3.org/2000/svg">
<path d="M14.9633 28.2945C15.6375 27.0887 16.5069 26.2718 17.6552 25.8084C18.2221 25.5797 18.8155 25.3602 19.407 25.284C20.3335 25.1658 20.8523 24.5979 21.1698 23.7776C21.4593 23.032 21.6967 22.2661 21.9224 21.5C22.5072 19.5142 23.1157 17.5438 24.2731 15.7868C25.0304 14.6374 25.925 13.6402 27.1107 12.7706C26.099 12.5804 25.2931 12.846 24.4889 13.3484C23.4668 13.984 22.4324 14.6316 21.3406 15.0999C19.9608 15.6905 18.6061 15.4643 17.2052 14.7231C17.468 14.5302 17.5995 14.3641 17.7541 14.3324C18.9806 14.0649 19.987 13.3206 21.0365 12.6547C21.8338 12.1467 22.6478 11.6486 23.4957 11.2498C23.9801 11.0223 24.5441 10.9713 25.0787 10.9074C25.2868 10.8819 25.5097 11.0368 25.8284 11.1443C25.6397 11.3126 25.5641 11.4261 25.5114 11.4179C24.2562 11.2055 23.202 11.8394 22.1666 12.4518C20.9717 13.1607 19.8209 13.9561 18.6239 14.7338C19.5459 15.0536 20.488 15.0069 21.3887 14.584C22.296 14.1566 23.2143 13.7042 24.0227 13.1067C25.4206 12.0741 26.8553 12.0644 28.4746 12.4091C28.3349 12.594 28.2823 12.73 28.1902 12.7741C25.8545 13.9348 24.4496 15.9512 23.4891 18.334C23.0288 19.4745 22.7158 20.6746 22.3283 21.847C22.0171 22.7919 21.6942 23.7316 21.361 24.7265C21.6181 24.6429 21.8964 24.5536 22.3067 24.4203C22.3682 25.1035 22.4237 25.7096 22.4772 26.3147C22.5278 26.8838 22.5283 27.4707 22.8987 27.9737C22.9128 24.1343 23.4914 20.4355 25.3422 16.8995C25.7307 17.2489 25.5297 17.5361 25.463 17.7952C25.1389 19.0849 25.3799 20.2893 25.8259 21.4593C25.8972 21.6497 26.0798 21.7894 26.3589 21.9069C26.3321 21.6739 26.3063 21.4438 26.2795 21.2108C26.1654 20.236 25.9765 19.2658 25.9524 18.2833C25.8566 14.4752 29.7794 12.0591 32.9279 13.5368C33.5174 13.8128 34.0364 14.2442 34.566 14.6355C34.7127 14.7446 34.7782 14.9697 34.933 15.2315C34.3985 15.2954 34.2093 14.9514 33.9639 14.7518C32.4364 13.5027 30.7653 13.2173 28.8966 14.0882C27.4961 14.7418 26.7501 15.9136 26.4918 17.4062C26.2379 18.8783 26.4851 20.3091 26.8961 21.6925C26.9603 21.9096 27.1775 22.1043 27.3725 22.237C27.8627 22.5738 28.3788 22.8673 28.9698 23.2308C30.1751 22.6855 31.4751 22.6889 32.772 23.1483C32.9565 23.2142 33.2055 23.1544 33.4118 23.0957C33.6576 23.0271 33.8807 22.8713 34.1255 22.7997C34.8956 22.5731 35.2021 22.7672 35.28 23.5894C35.3196 24.007 35.3148 24.4672 35.1877 24.8639C34.9226 25.6823 34.5684 26.4741 34.2366 27.2732C34.1008 27.5989 33.9287 27.9112 33.7347 28.3109C34.0237 28.4004 34.2217 28.4623 34.4195 28.5192C34.867 28.6484 35.1031 28.9657 35.1162 29.4437C35.1274 29.8887 34.8978 30.1931 34.5065 30.3795C34.0356 30.6031 33.7155 30.408 33.4467 30.0316C33.3013 29.8286 33.1348 29.6413 32.983 29.4528C32.4908 29.4682 32.2033 29.7871 31.9448 30.1411C31.5938 30.626 31.2746 31.1348 30.9036 31.601C30.2716 32.3952 29.437 32.678 28.4959 32.5835C28.0117 32.5327 27.6848 32.3049 27.6523 31.7213C27.638 31.4491 27.5051 31.1746 27.3742 30.9332C26.8694 29.9934 26.3916 29.0456 26.2999 27.934C26.2735 27.6092 26.2109 27.2387 26.3254 26.9508C26.6843 26.0468 26.4368 25.3118 26.0158 24.5554C25.8052 24.1747 25.6414 23.6927 25.6527 23.2552C25.6872 21.9305 24.8929 20.8811 24.8787 19.5873C24.7962 19.5884 24.7145 19.5874 24.632 19.5884C24.3801 20.5693 24.0891 21.5429 23.8822 22.5335C23.514 24.3035 23.4153 26.0898 23.4839 27.8798C23.5026 28.3504 23.6176 28.7513 23.8716 29.156C24.2058 29.6879 24.4076 30.3133 24.7193 31.0143C25.9714 31.2925 26.8839 32.2221 27.535 33.4647C27.7 33.7782 27.8854 33.9863 28.2497 33.9844C28.3741 33.9843 28.4968 34.0306 28.6191 34.0619C29.8027 34.3573 30.121 35.4763 29.2649 36.4606C28.9711 36.799 28.5723 37.1362 28.1695 37.2579C26.9121 37.6387 25.8761 38.2955 25.1421 39.5894C25.2163 39.8481 25.3189 40.2237 25.433 40.5944C25.5558 40.9988 25.569 41.3377 25.1419 41.6326C24.9569 41.7603 24.8838 42.0713 24.758 42.2995C24.7881 42.4072 24.8163 42.514 24.8456 42.6238C25.0627 42.5724 25.2861 42.464 25.4936 42.4829C25.9368 42.5256 26.1203 42.8398 26.1386 43.2953C26.1639 43.9328 26.196 44.5708 26.261 45.2033C26.319 45.7608 26.1321 46.1387 25.7185 46.1835C25.3514 46.2239 25.1336 45.9668 25.0517 45.4262C24.9852 44.9844 24.9022 44.5478 24.8211 44.0698C24.6631 44.0825 24.4516 44.1264 24.2461 44.1084C23.8614 44.0765 23.5502 43.8505 23.5307 43.4616C23.517 43.1722 23.6262 42.7254 23.8264 42.5895C24.4807 42.1456 24.4098 41.6497 24.1865 41.0521C24.0061 40.5703 23.8843 40.062 23.7111 39.4838C23.03 39.4114 22.2964 39.3357 21.5348 39.5163C20.3919 39.7857 19.8663 39.5726 19.3143 38.5748C19.118 38.2203 18.8869 37.9772 18.5491 37.7744C17.8329 37.3435 17.8417 36.6389 18.6245 36.2762C19.4496 35.8973 19.846 35.2235 20.2276 34.471C20.5741 33.7878 20.9542 33.1242 21.2909 32.4366C21.4004 32.2137 21.4947 31.9344 21.4708 31.7002C21.3769 30.7541 21.5442 29.8431 21.8991 28.9696C22.1475 28.3552 22.221 27.7759 22.0848 27.1345C21.9701 26.5995 21.9692 26.0348 21.9007 25.2764C21.5981 25.6458 21.3975 25.8785 21.2128 26.1232C19.6929 28.1239 17.7201 28.8099 15.4091 28.5024C15.2922 28.4909 15.1869 28.405 14.9633 28.2945ZM27.7453 36.8457C28.515 36.7109 29.0664 36.3412 29.1825 35.3331C28.6464 35.9084 28.1935 36.3959 27.7405 36.8833C26.9889 36.7526 26.2343 36.623 25.4124 36.4813C25.3436 36.8787 25.2528 37.3907 25.146 37.9977C25.4285 37.9898 25.6625 38.0552 25.8253 37.9674C26.4773 37.6195 27.1077 37.2248 27.7453 36.8457ZM30.1692 23.4262C29.0703 23.6379 28.1118 24.0751 27.5983 25.2246C27.3749 25.579 27.0671 25.9064 26.9456 26.2906C26.4432 27.88 26.96 29.2253 27.7852 30.584C28.3122 29.6765 28.4615 28.8173 28.2603 27.9286C28.0566 27.019 27.8018 26.1242 27.571 25.2226C27.8716 25.1307 28.0979 25.0907 28.1867 25.5298C28.3745 26.4599 28.6221 27.3764 28.8773 28.4254C29.8809 26.586 30.974 24.9972 32.5199 23.6269C32.2714 23.5626 32.1305 23.5257 31.9906 23.4917L31.9934 23.4854C31.4913 23.3149 30.9837 23.1943 30.4519 23.4284C30.3567 23.4264 30.2634 23.4253 30.1692 23.4262ZM19.9358 35.9812C21.3614 36.3504 22.4101 35.6917 22.7104 34.1728C22.8126 33.6508 22.8563 33.1181 22.9634 32.5959C22.9907 32.4587 23.1558 32.3496 23.2573 32.2251C23.324 32.2494 23.3927 32.2745 23.4604 32.2967C23.3305 33.1919 23.1977 34.0882 23.0587 35.0414C24.3219 34.1984 25.6839 33.948 27.1459 33.8384C26.7444 32.9415 26.307 32.2972 25.4045 31.9114C25.8043 32.5292 26.4152 32.8418 26.3734 33.5842C25.9496 33.2566 25.5761 32.889 25.2415 32.4862C24.8969 32.0691 24.0697 32.303 24.0314 31.5081C22.6645 31.6519 21.8253 32.2608 21.1515 33.5886C20.7452 34.3923 20.3377 35.193 19.9358 35.9812ZM15.7958 27.9362C17.778 28.4426 20.1832 27.2626 20.9841 25.3989C19.0984 25.8969 17.0846 25.9758 15.7958 27.9362ZM25.4379 35.6746C27.306 36.7673 27.9678 36.5629 28.798 34.6003C27.672 34.35 26.5603 34.3075 25.3876 34.5862C25.4074 34.9901 25.423 35.345 25.4379 35.6746ZM22.8412 35.6123C21.9513 36.3903 21.0532 36.5558 20.1247 36.5985C19.8064 36.6131 19.4853 36.5966 19.1712 36.6552C18.9509 36.6978 18.7421 36.8424 18.4533 36.9767C19.063 37.704 19.8142 37.7128 20.5141 37.7959C22.0014 37.9709 22.5573 37.4789 22.8412 35.6123ZM29.9726 27.6281C29.1296 28.7697 28.6063 29.9149 28.1899 31.2387C28.8901 30.9094 29.4997 30.6423 30.0956 30.3368C30.5228 30.1165 30.6601 29.7019 30.6234 29.2508C30.5762 28.7007 30.4202 28.1848 29.9726 27.6281ZM23.1794 37.2098C22.5781 37.6024 22.1077 38.0548 21.5653 38.2222C21.0172 38.3919 20.3991 38.2775 19.7339 38.2915C19.9851 38.9113 20.3867 39.1719 20.9336 39.1333C21.8469 39.0665 22.7578 38.9465 23.6752 38.8491C23.875 37.8803 23.875 37.8803 23.1794 37.2098ZM24.0471 30.8786C23.8657 29.8967 23.4872 29.0968 22.5529 28.5429C22.1691 29.5678 21.8015 30.5078 21.9829 31.5966C22.6815 31.3511 23.3397 31.1227 24.0471 30.8786ZM31.0569 27.8078C30.9968 27.8485 30.9358 27.8914 30.8758 27.9321C30.909 28.1183 30.9337 28.3081 30.9756 28.4905C31.2938 29.8556 31.0276 30.4199 29.7778 31.0079C29.5736 31.1047 29.3509 31.1687 29.1629 31.2925C28.889 31.4732 28.6396 31.6944 28.2278 32.0185C29.3835 32.2171 30.1181 31.9003 30.7057 31.1165C31.2549 30.3829 31.8199 29.6612 32.4306 28.8676C32.0157 28.5464 31.5353 28.1767 31.0569 27.8078ZM34.8465 23.7224C34.7808 23.7011 34.718 23.6785 34.6523 23.6571C34.5065 24.1127 34.3744 24.5743 34.2138 25.026C33.8583 26.0185 33.475 26.2829 32.4794 26.254C32.2966 26.2484 32.1128 26.2449 31.8075 26.2353C32.0274 27.2042 32.9006 27.2292 33.3798 27.8048C34.1851 26.4551 34.8686 25.2012 34.8465 23.7224ZM34.2393 23.2622C33.0158 23.7474 32.1792 24.4519 31.452 25.4579C31.721 25.561 31.8912 25.6381 32.0684 25.6885C32.2182 25.7318 32.3772 25.7543 32.534 25.7658C33.0811 25.8069 33.5067 25.5958 33.7007 25.0893C33.9091 24.5443 34.0352 23.9682 34.2393 23.2622ZM28.3017 23.5245C27.6875 22.8127 26.9968 22.4949 26.1281 22.5241C26.0953 23.77 26.2269 24.1757 26.9204 25.0218C27.3611 24.5463 27.7989 24.0721 28.3017 23.5245ZM24.9688 41.0273C24.3227 39.5383 24.7031 38.0346 24.8941 36.5349C24.9566 36.0502 24.9196 35.5518 24.8954 35.0614C24.8896 34.957 24.7492 34.8655 24.6144 34.697C24.5004 35.8875 24.3859 36.9559 24.3026 38.028C24.2626 38.5524 24.2268 39.0885 24.2847 39.6036C24.3488 40.1364 24.3871 40.7175 24.9688 41.0273ZM31.0845 25.8734C30.7642 26.3097 30.4691 26.7098 30.1507 27.1419C30.5912 27.4742 30.8991 27.3657 31.1477 27.0447C31.4132 26.7012 31.4739 26.3276 31.0845 25.8734ZM31.6905 27.2827C31.6418 27.3458 31.591 27.4081 31.5413 27.4733C32.1449 27.9791 32.7485 28.485 33.3492 28.992C33.4 28.9297 33.4497 28.8645 33.5004 28.8023C33.0582 28.0888 32.4443 27.5959 31.6905 27.2827ZM24.0816 34.9655C23.2507 35.8763 23.2397 36.2543 23.9426 36.9827C23.9897 36.3247 24.0295 35.758 24.0816 34.9655ZM34.7591 29.0336C34.351 29.0659 34.0803 29.0093 33.93 29.1274C33.813 29.2178 33.7483 29.6219 33.8314 29.7106C33.9595 29.8463 34.2873 29.9329 34.4346 29.8483C34.5819 29.7638 34.61 29.443 34.7591 29.0336ZM23.9877 42.7994C24.0273 43.1474 23.9988 43.3835 24.0942 43.5297C24.1418 43.6028 24.4645 43.5728 24.5717 43.4781C24.6731 43.3859 24.7358 43.0505 24.6731 42.9956C24.5398 42.8825 24.3154 42.881 23.9877 42.7994ZM25.7273 43.0353C25.5401 43.0452 25.4199 43.0198 25.3328 43.0687C25.286 43.0953 25.2523 43.2844 25.2893 43.323C25.3574 43.3976 25.4794 43.4188 25.5807 43.4607C25.6174 43.3501 25.6571 43.2382 25.7273 43.0353Z" fill="#FFEB61"/>
<path d="M22.8226 6.57685C25.1443 6.3571 26.8885 7.46505 27.7002 9.64063C27.9383 10.2795 28.2316 10.7014 28.8637 11.0085C29.5845 11.3594 30.2454 11.6169 31.0798 11.5378C31.7862 11.4723 32.4998 11.6311 33.0417 12.2615C32.877 12.2788 32.6925 12.352 32.5531 12.3008C31.7671 12.0133 30.9701 11.9322 30.1242 12.0858C29.8825 12.1289 29.5598 12.0147 29.3601 11.8551C28.6937 11.3267 27.9238 11.0984 27.11 10.933C26.5248 10.813 25.9294 10.6787 25.3895 10.4394C23.8013 9.74046 23.1143 8.35536 22.8226 6.57685ZM27.3721 10.3941C26.9001 8.24073 25.2911 6.92609 23.4624 7.1284C23.8026 9.2936 25.6246 10.4381 27.3721 10.3941Z" fill="#FFEB61"/>
<path d="M31.8102 8.85063C30.8073 8.10013 29.882 8.0125 28.7945 8.46032C28.9781 7.82243 29.1951 7.33838 29.2408 6.84386C29.2854 6.34638 29.1598 5.84137 29.0996 5.24074C29.6222 5.41273 30.0606 5.63734 30.5234 5.68367C30.9657 5.72849 31.4359 5.58668 31.9906 5.51424C31.8385 6.05903 31.6195 6.54222 31.5882 7.03064C31.5525 7.53451 31.7005 8.04189 31.8102 8.85063ZM29.755 7.45717C30.1772 7.51055 30.5301 7.55595 30.6549 7.57089C30.8107 7.12466 30.9539 6.71265 31.1043 6.28396C30.6135 6.27502 30.2606 6.26693 29.9233 6.2607C29.8913 6.33367 29.8688 6.36358 29.8658 6.39708C29.8286 6.7387 29.7933 7.08119 29.755 7.45717Z" fill="#FFEB61"/>
<path d="M20.716 41.8219C21.2442 42.4836 21.1407 43.4897 20.4789 44.0844C19.8124 44.6845 18.8619 44.6381 18.3125 43.982C17.7851 43.3505 17.8913 42.3008 18.5398 41.7152C19.1911 41.1283 20.2029 41.1792 20.716 41.8219ZM18.9418 42.1351C18.5268 42.4826 18.4175 43.1381 18.7076 43.5462C19.027 43.9995 19.7036 44.0502 20.1386 43.6518C20.5452 43.2807 20.6179 42.639 20.3007 42.2289C19.9926 41.8352 19.3531 41.7909 18.9418 42.1351Z" fill="#FFEB61"/>
<path d="M15.3456 18.0114C14.8101 17.8263 14.4225 17.614 14.0103 17.57C13.6069 17.5273 13.179 17.6529 12.6813 17.713C12.8185 17.1915 12.9992 16.7636 13.03 16.3297C13.061 15.9008 12.9384 15.4692 12.8692 14.9317C13.3739 15.0909 13.7658 15.2827 14.1739 15.32C14.586 15.359 15.019 15.2431 15.5284 15.1831C15.3945 15.6862 15.2157 16.1099 15.1857 16.5367C15.1539 16.9728 15.2729 17.4127 15.3456 18.0114ZM14.6777 15.9411C14.3121 15.9299 13.9971 15.921 13.6266 15.9102C13.5783 16.2718 13.5399 16.5732 13.501 16.8544C13.9016 16.9356 14.2054 16.9968 14.5884 17.0752C14.6251 16.6066 14.6507 16.3021 14.6777 15.9411Z" fill="#FFEB61"/>
<path d="M32.897 19.3723C32.4983 19.2547 32.1283 19.0825 31.7396 19.0438C31.3557 19.0047 30.9532 19.0991 30.4454 19.1449C30.569 18.6597 30.7257 18.2436 30.7713 17.8187C30.8138 17.4172 30.7364 17.0054 30.7125 16.5947C31.5422 16.6652 32.3417 16.735 33.076 16.7985C33.0201 17.5943 32.9617 18.4387 32.897 19.3723ZM32.2811 18.5255C32.2832 18.0715 32.2861 17.7547 32.2883 17.4076C32.0161 17.4026 31.7576 17.3986 31.4601 17.3924C31.4427 17.7477 31.4241 18.0627 31.4125 18.3137C31.6708 18.3772 31.9231 18.4381 32.2811 18.5255Z" fill="#FFEB61"/>
<path d="M35.3004 15.2758C34.8267 15.6821 34.2703 15.6195 33.9049 15.1212C33.5809 14.6783 33.6436 14.0968 34.0548 13.7153C34.4726 13.3293 35.1537 13.3645 35.4918 13.7912C35.842 14.2331 35.7588 14.8827 35.3004 15.2758ZM35.0617 14.9325C35.036 14.6005 35.0814 14.342 34.9802 14.1932C34.9133 14.0943 34.6363 14.1593 34.4533 14.1486C34.436 14.3647 34.36 14.6074 34.428 14.7838C34.4637 14.879 34.746 14.8661 35.0617 14.9325Z" fill="#FFEB61"/>
<path d="M20.36 22.2067C19.8808 22.6204 19.3196 22.5632 18.9445 22.0657C18.6178 21.629 18.6709 21.016 19.0687 20.6435C19.4808 20.26 20.1879 20.2892 20.5315 20.7034C20.8882 21.1307 20.8089 21.8194 20.36 22.2067ZM20.1192 21.927C20.1053 21.563 20.1786 21.262 20.0685 21.1442C19.9574 21.0233 19.6676 21.0852 19.4553 21.0666C19.4323 21.2902 19.3225 21.5727 19.413 21.7193C19.4925 21.8535 19.7894 21.8396 20.1192 21.927Z" fill="#FFEB61"/>
</svg>
