<svg width="48" height="48" viewBox="0 0 48 48" fill="none" xmlns="http://www.w3.org/2000/svg">
<path d="M11.0861 44.2835C11.0861 43.872 11.0968 43.5188 11.0818 43.1655C11.0732 42.9329 11.1658 42.851 11.3898 42.8553C11.756 42.8639 12.1243 42.8467 12.4884 42.8639C13.1518 42.8962 13.6236 42.5882 13.9768 42.0583C14.524 41.2376 14.7394 40.3049 14.8686 39.3485C15.14 37.3194 15.0431 35.2881 14.8406 33.2611C14.6575 31.4495 14.4335 29.6401 13.8799 27.9018C13.546 26.8485 13.0743 25.8382 12.6456 24.8172C12.5056 24.4876 12.2277 24.339 11.8551 24.2571C10.5002 23.9577 9.15604 23.6087 7.80544 23.2813C7.63311 23.2404 7.45863 23.1973 7.28415 23.1952C6.15973 23.1801 5.20763 22.6071 4.19953 22.2258C4.09183 22.1849 3.98413 22.0147 3.96689 21.8919C3.93243 21.6335 3.95612 21.3664 3.95612 21.0605C4.43648 21.0605 4.88668 21.0583 5.33473 21.0605C5.92279 21.0626 6.21574 20.8731 6.2222 20.4767C6.23082 20.0222 5.89048 19.7508 5.31534 19.7508C4.94915 19.7508 4.58296 19.7487 4.21677 19.7573C4.02721 19.7616 3.9432 19.6905 3.94535 19.4923C3.95182 18.1913 3.94536 16.8902 3.96259 15.5892C3.96474 15.4901 4.11337 15.3242 4.21461 15.3091C5.59752 15.0786 6.68317 14.4195 7.57495 13.3123C9.8238 10.5206 13.9187 10.3763 16.5596 12.9633C17.0076 13.4006 17.4427 13.8896 17.74 14.4324C18.7653 16.3086 20.3959 17.39 22.3561 18.0017C24.2582 18.5962 26.1947 19.0787 28.1161 19.6108C30.4791 20.2656 32.6784 21.2328 34.5417 22.8764C36.7561 24.8279 38.055 27.2879 38.5526 30.1636C38.7507 31.3031 38.7744 32.4727 38.8757 33.6273C38.8821 33.7005 38.8843 33.7738 38.8929 33.9073C38.9769 33.819 39.0329 33.7781 39.0652 33.7221C40.8746 30.6374 41.9517 27.3051 42.3739 23.7638C42.7293 20.7826 42.6474 17.81 41.9409 14.8783C41.3916 12.5972 40.5041 10.4603 39.0308 8.60567C37.6608 6.88027 35.9741 5.62229 33.7619 5.23025C31.8513 4.89207 30.1905 5.36811 28.9885 6.97935C27.9158 8.41827 28.1635 10.3332 29.5206 11.3823C30.3262 12.0048 31.5389 12.0931 32.4178 11.5912C33.3009 11.085 33.7512 10.1652 33.6004 9.1205C33.4862 8.33211 32.9757 7.81944 32.3402 7.40801C32.2347 7.33908 32.127 7.27446 31.9525 7.1646C32.295 6.82426 32.6117 6.49469 32.9477 6.19097C32.9886 6.15435 33.1566 6.22328 33.2449 6.27713C34.7549 7.20338 35.4787 9.11834 34.9251 10.7167C34.3371 12.4119 32.5233 13.5536 30.757 13.336C27.4871 12.9353 25.8263 9.36821 27.5905 6.48607C28.6762 4.71328 30.337 3.83873 32.3725 3.70733C34.923 3.54362 37.0124 4.6185 38.824 6.30513C41.2279 8.54321 42.5871 11.3801 43.3324 14.5207C44.6723 20.1709 44.1057 25.6831 41.9754 31.0532C41.1719 33.0802 40.1121 34.9736 38.8067 36.727C38.6861 36.8885 38.6086 37.1061 38.5784 37.3086C38.3221 39.034 37.8525 40.6689 36.6484 42.0001C35.3452 43.4412 33.7081 44.2468 31.7759 44.277C28.2389 44.333 24.7019 44.2985 21.1628 44.3007C17.9532 44.3028 14.7437 44.3007 11.5363 44.3007C11.3984 44.305 11.2627 44.2921 11.0861 44.2835ZM7.29277 21.6787C7.46294 21.7239 7.59219 21.7606 7.72358 21.7929C8.64337 22.019 9.561 22.2452 10.4829 22.4671C11.1442 22.6286 11.8012 22.8333 12.4711 22.9302C12.8998 22.9905 13.1971 23.1542 13.4491 23.4838C14.0393 24.255 14.4787 25.1037 14.7868 26.0191C16.1589 30.0925 16.6608 34.2843 16.4109 38.5623C16.3291 39.9775 16.0641 41.3712 15.3296 42.627C15.2908 42.6916 15.293 42.7799 15.2757 42.8575C15.2994 42.8769 15.3231 42.8984 15.3468 42.9178C15.5622 42.7541 15.7992 42.6119 15.9887 42.4245C16.7728 41.6512 17.3415 40.7271 17.8025 39.7384C19.0647 37.0329 19.7303 34.1572 20.0836 31.2126C20.2646 29.7112 20.2839 28.1904 20.3895 26.6804C20.3981 26.5555 20.4778 26.3552 20.5618 26.3315C20.9582 26.2259 21.3696 26.1699 21.8112 26.0881C21.8909 28.2314 21.6862 30.3122 21.4213 32.4081C22.7999 29.8232 24.9152 28.4382 27.8684 28.2701C27.8684 28.7914 27.8684 29.2502 27.8684 29.7004C27.821 29.722 27.7995 29.7392 27.7758 29.7414C27.7004 29.75 27.625 29.7564 27.5496 29.7607C25.8005 29.8706 24.4197 30.6375 23.403 32.0721C21.6604 34.5255 22.5586 37.9677 25.2878 39.23C25.6648 39.4045 26.0719 39.5079 26.4596 39.6587C26.5609 39.6996 26.7117 39.7944 26.716 39.8719C26.7418 40.2554 26.7289 40.6409 26.7289 41.0696C25.7531 40.8822 24.8872 40.6969 24.0126 41.0244C23.1402 41.3539 22.4919 41.9054 22.0546 42.8187C22.2915 42.8316 22.4402 42.8489 22.5866 42.8489C25.5808 42.8424 28.5749 42.8359 31.5691 42.8252C31.8448 42.823 32.127 42.8122 32.3984 42.7627C34.6408 42.3534 36.1034 41.0287 36.7496 38.8703C37.4626 36.4944 37.5768 34.0516 37.3377 31.5917C37.1266 29.4247 36.461 27.4214 35.1621 25.6551C33.5551 23.473 31.3537 22.1375 28.814 21.347C26.8517 20.7352 24.8527 20.2355 22.8753 19.6733C21.5828 19.3071 20.3421 18.8116 19.194 18.1051C18.0286 17.3878 17.2445 16.3323 16.5445 15.1928C15.825 14.0231 14.8385 13.1594 13.5051 12.7673C11.6634 12.2224 10.0478 12.6962 8.80062 14.1136C7.86144 15.182 6.87273 16.104 5.48766 16.5283C5.40581 16.5542 5.30457 16.6791 5.30241 16.7631C5.28302 17.2262 5.2938 17.6915 5.2938 18.1525C7.4134 18.411 8.14794 20.2398 7.29277 21.6787ZM20.9065 34.924C20.1913 37.6834 19.418 40.4492 17.6043 42.7842C17.6947 42.8295 17.7249 42.8596 17.7572 42.8596C18.6145 42.8639 19.474 42.8725 20.3313 42.851C20.4347 42.8488 20.5898 42.7002 20.6286 42.5882C21.0142 41.4422 21.7745 40.6194 22.7934 40.0076C22.9808 39.8935 23.1661 39.775 23.3923 39.635C22.6448 39.0297 22.0244 38.3684 21.6948 37.5261C21.3653 36.6904 21.1671 35.8051 20.9065 34.924Z" fill="#FFEB61" stroke="#FFEB61" stroke-width="0.3" stroke-miterlimit="10"/>
<path d="M12.5293 21.726C12.6629 21.5128 12.734 21.3965 12.8072 21.2801C12.9364 21.0798 13.0269 20.7933 13.21 20.705C13.3737 20.6253 13.6451 20.7567 13.867 20.8041C15.112 21.069 16.3054 20.0243 16.2041 18.7513C16.1158 17.6161 14.8536 16.8837 13.8153 17.4136C13.4168 17.6161 13.1454 17.5816 12.8417 17.3102C12.6822 17.168 12.5013 17.0517 12.2988 16.9009C12.8136 16.1298 13.5353 15.7787 14.4098 15.7593C15.741 15.7313 16.7707 16.3064 17.3458 17.5191C17.9576 18.8051 17.6689 20.0265 16.8073 21.0884C15.9952 22.0922 14.9182 22.5532 13.6171 22.2387C13.2531 22.1504 12.9235 21.9177 12.5293 21.726Z" fill="#FFEB61" stroke="#FFEB61" stroke-width="0.3" stroke-miterlimit="10"/>
<path d="M9.29193 17.6442C8.69741 17.6162 8.26875 17.1574 8.29244 16.5801C8.31398 16.0739 8.8008 15.6043 9.28547 15.6216C9.87137 15.6431 10.3647 16.1773 10.328 16.7503C10.2957 17.2608 9.82614 17.6679 9.29193 17.6442Z" fill="#FFEB61" stroke="#FFEB61" stroke-width="0.3" stroke-miterlimit="10"/>
</svg>
