<svg width="48" height="49" viewBox="0 0 48 49" fill="none" xmlns="http://www.w3.org/2000/svg">
<path d="M11.027 31.2999C10.2451 31.9606 9.5076 32.5789 8.78022 33.2113C8.7196 33.2638 8.68526 33.4174 8.71354 33.4942C8.87114 33.9023 9.04491 34.3024 9.23281 34.6984C9.27524 34.7853 9.38031 34.86 9.47527 34.9024C9.86321 35.0782 10.2572 35.2419 10.6492 35.4076C11.0654 35.5854 11.3382 35.8844 11.3624 36.3431C11.3907 36.925 11.4008 37.5089 11.3806 38.0888C11.3685 38.4302 10.9644 38.7737 10.5764 38.7778C9.19644 38.7879 7.81442 38.8323 6.43846 38.7576C5.6141 38.7111 4.96349 38.2342 4.64425 37.4281C4.41796 36.8563 4.24622 36.2602 4.02194 35.6864C3.9391 35.4722 3.81989 35.2419 3.65017 35.1004C2.66821 34.2781 2.11055 33.187 1.6721 32.0232C0.562845 29.0753 0.910368 26.2244 2.3227 23.4705C3.57137 21.0337 5.43629 19.1951 7.82856 17.8676C8.86912 17.2918 9.88139 16.6735 11.0351 16.332C12.3767 15.936 13.7446 15.8269 15.1307 15.932C17.0259 16.0734 18.9151 16.1199 20.7982 15.7804C23.538 15.2854 26.0373 14.2448 28.2498 12.5375C29.9248 11.2424 31.7432 10.224 33.8061 9.68053C34.0648 9.61386 34.3173 9.52091 34.5618 9.41181C35.1073 9.16733 35.6549 9.1249 36.2348 9.28452C36.5096 9.3613 36.8025 9.39968 37.0895 9.40575C37.7623 9.41989 38.4371 9.41989 39.1079 9.39564C39.4615 9.38352 39.8191 9.33301 40.1667 9.26027C41.2335 9.03397 42.3246 9.94926 42.0417 10.9474C42.0074 11.0666 42.0902 11.2545 42.1771 11.3636C42.5004 11.7718 42.9449 11.9879 43.456 12.0223C43.8238 12.0486 44.038 12.2203 44.1349 12.5597C44.3572 13.3235 44.8643 13.8791 45.4382 14.4004C45.6968 14.6348 45.9069 14.9298 46.109 15.2207C46.3393 15.5501 46.5353 15.9057 46.7474 16.2492C47.0849 16.7988 47.0606 17.221 46.6909 17.7403C46.2302 18.3889 45.7837 19.0476 45.3351 19.7063C45.0482 20.1285 44.6825 20.3003 44.1855 20.169C43.9814 20.1144 43.8985 20.1851 43.8177 20.3407C43.349 21.2439 42.8681 22.145 42.4094 23.0542C42.2033 23.4624 41.8053 23.6725 41.2719 23.4967C40.593 23.2724 39.906 23.03 39.2817 22.6885C38.8008 22.4259 38.4634 22.4986 38.0088 22.735C37.3622 23.0684 36.8975 23.4543 36.6227 24.1796C36.2307 25.2141 35.4023 25.9355 34.4769 26.5254C34.2345 26.679 34.1395 26.8406 34.1415 27.1437C34.1658 29.4774 34.1759 31.8111 34.1638 34.1427C34.1617 34.5893 34.3012 34.862 34.7255 35.0115C35.0306 35.1207 35.3195 35.2762 35.6185 35.4035C36.154 35.6359 36.3944 36.0642 36.4166 36.6239C36.4348 37.0502 36.4308 37.4766 36.4267 37.9029C36.4227 38.3696 36.0893 38.7757 35.6286 38.7798C34.1476 38.7959 32.6625 38.8525 31.1896 38.7495C30.2339 38.6828 29.5691 38.0443 29.2358 37.1129C28.466 34.959 27.6941 32.8052 26.9203 30.6533C26.7122 30.0734 26.4859 29.4996 26.2818 28.9177C26.2171 28.7339 26.1363 28.6813 25.9383 28.7157C24.4997 28.9703 23.049 29.0895 21.5862 29.0753C21.4326 29.0733 21.2467 29.1804 21.1295 29.2935C20.1112 30.2735 19.1373 31.3039 18.0786 32.2354C17.531 32.7183 17.4643 33.1365 17.6704 33.8114C17.8765 34.4903 18.1897 34.9428 18.8645 35.1469C19.0565 35.2055 19.2323 35.3126 19.4222 35.3813C19.9799 35.5854 20.2183 36.0157 20.2546 36.5714C20.2849 37.03 20.2829 37.4907 20.2708 37.9514C20.2587 38.3959 19.9011 38.7778 19.4545 38.7818C18.0866 38.798 16.7147 38.8384 15.3509 38.7656C14.4881 38.7192 13.9062 38.1352 13.5728 37.3513C12.8071 35.5429 12.0635 33.7285 11.3099 31.9182C11.223 31.7222 11.1321 31.5322 11.027 31.2999ZM37.1198 21.9672C36.3621 21.2338 35.9822 20.367 35.7741 19.4234C35.6872 19.0334 35.6509 18.6253 35.6468 18.2252C35.6428 17.8918 35.8489 17.7221 36.1519 17.714C36.4873 17.708 36.7076 17.8959 36.7439 18.2293C36.7601 18.3626 36.752 18.498 36.7642 18.6334C36.851 19.6517 37.2268 20.5468 37.9542 21.2742C38.0431 21.3631 38.2553 21.4419 38.3462 21.3974C38.7442 21.2034 39.0675 21.3267 39.4252 21.5126C40.0091 21.8177 40.6172 22.0803 41.2254 22.343C41.3103 22.3794 41.5022 22.3531 41.5345 22.2965C41.7204 21.9591 41.876 21.6015 42.0538 21.2257C41.9326 21.2176 41.8558 21.2156 41.779 21.2055C40.7829 21.0842 39.7969 20.9165 38.9483 20.3326C38.4957 20.0215 38.126 19.6295 37.9805 19.0819C37.8875 18.7344 38.029 18.4879 38.3321 18.3788C38.5967 18.2838 38.9261 18.399 39.0211 18.698C39.2292 19.3527 39.7505 19.6335 40.3283 19.7871C40.9971 19.9649 41.6901 20.0497 42.3751 20.1568C42.6034 20.1932 42.7125 20.0457 42.7368 19.9043C42.2498 19.5325 41.7891 19.2133 41.3729 18.8455C41.2214 18.7122 41.1305 18.4677 41.0921 18.2596C41.0294 17.9363 41.2274 17.6797 41.5285 17.5969C41.8457 17.51 42.0518 17.6433 42.167 17.9343C42.3064 18.2919 42.561 18.5505 42.9004 18.6839C43.3146 18.8455 43.751 18.9546 44.1855 19.0557C44.2905 19.0799 44.4683 19.0112 44.535 18.9263C44.7956 18.593 45.024 18.2353 45.2947 17.8434C44.927 17.7807 44.7896 17.5484 44.8118 17.2372C44.836 16.9099 45.1209 16.8291 45.3715 16.726C45.4705 16.6856 45.5655 16.6311 45.6443 16.5906C45.4786 16.2896 45.3371 16.0108 45.1775 15.7461C45.0866 15.5945 44.9876 15.4268 44.8502 15.3258C44.1592 14.8227 43.6743 14.164 43.3267 13.3942C43.2439 13.2124 43.1368 13.1315 42.9368 13.0891C42.1346 12.9174 41.5022 12.4729 41.0314 11.8041C40.8516 11.5475 40.7567 11.2747 40.9021 10.9514C40.9628 10.8161 41.0092 10.5473 40.9506 10.511C40.7971 10.414 40.5829 10.3715 40.397 10.3776C40.1 10.3897 39.807 10.4887 39.51 10.4968C38.5907 10.517 37.6714 10.517 36.75 10.5069C36.5439 10.5049 36.3297 10.4604 36.1358 10.3918C35.4427 10.1493 34.7133 10.42 34.5072 11.0322C34.1476 12.093 34.873 13.0447 35.7519 12.978C35.867 12.9699 36.0388 12.9881 36.0974 13.0629C36.2186 13.2184 36.3338 13.4124 36.356 13.6023C36.3843 13.8508 36.1721 13.96 35.9519 14.0206C35.0184 14.2711 33.9274 13.6468 33.5596 12.5698C33.396 12.089 33.398 11.5495 33.3232 11.0161C33.2444 11.0424 33.0808 11.0787 32.9333 11.1474C32.2807 11.4444 31.5957 11.6909 30.9916 12.0688C30.0238 12.6709 29.1246 13.3861 28.1689 14.0125C24.5583 16.3785 20.5981 17.417 16.2844 17.1483C15.169 17.0776 14.0396 17.0331 12.9263 17.12C11.415 17.2392 9.99454 17.7302 8.84488 18.7667C7.37193 20.0942 6.80013 21.8177 6.87287 23.7594C6.98601 26.7861 6.2061 29.532 4.37553 31.9545C4.07245 32.3566 4.04012 32.7203 4.21187 33.1668C4.68871 34.4135 5.14332 35.6682 5.60803 36.9189C5.79796 37.4301 6.16165 37.6847 6.70516 37.6847C7.81644 37.6867 8.9257 37.6847 10.037 37.6847C10.134 37.6847 10.2309 37.6705 10.3623 37.6584C10.3623 37.3998 10.3481 37.1654 10.3663 36.933C10.3865 36.6623 10.2875 36.4845 10.035 36.3774C9.66318 36.2218 9.29949 36.046 8.92368 35.8965C8.6105 35.7713 8.40037 35.5611 8.27509 35.254C8.09325 34.8075 7.91342 34.3609 7.72754 33.9144C7.477 33.3143 7.58408 32.793 8.07102 32.3728C9.02066 31.5504 9.99252 30.7523 10.93 29.9179C12.3403 28.6631 13.69 27.3478 14.668 25.7071C15.4741 24.3554 15.9288 22.9189 15.5469 21.3388C15.4176 20.8034 15.163 20.2942 14.9246 19.7911C14.7468 19.4113 14.7367 19.2011 14.9933 19.0173C15.266 18.8213 15.5267 18.8556 15.7772 19.1829C15.9732 19.4375 16.149 19.7224 16.2702 20.0194C17.0724 21.9753 16.8905 23.8806 15.9166 25.7273C15.658 26.2183 15.3448 26.683 15.0377 27.1902C18.612 27.7519 22.164 28.3762 25.8029 27.5862C25.516 26.8164 25.2635 26.0607 24.9563 25.3273C24.5118 24.2706 24.3179 23.1876 24.4371 22.042C24.532 21.1145 24.8452 20.276 25.3685 19.5123C25.611 19.1627 25.9444 19.0839 26.2373 19.2779C26.5586 19.4921 26.595 19.8841 26.2879 20.2437C25.7645 20.8519 25.5766 21.5732 25.4918 22.345C25.3948 23.2361 25.6797 24.0423 25.9767 24.8606C27.4113 28.8127 28.8256 32.7728 30.2521 36.727C30.4703 37.3331 30.9916 37.6948 31.6381 37.6948C32.7595 37.6948 33.8809 37.6887 35.0043 37.6826C35.1114 37.6826 35.2205 37.6665 35.3235 37.6564C35.3922 36.4623 35.4933 36.539 34.4507 36.0885C34.4305 36.0804 34.4082 36.0723 34.388 36.0642C33.3354 35.6419 33.099 35.2964 33.0969 34.167C33.0929 30.813 33.0909 27.4589 33.0889 24.1029C33.0889 24.0018 33.0909 23.9008 33.101 23.7998C33.1353 23.5109 33.3637 23.3108 33.6465 23.3169C33.889 23.3209 34.1254 23.5472 34.1355 23.824C34.1516 24.2281 34.1395 24.6322 34.1415 25.0363C34.1415 25.1192 34.1597 25.2 34.1719 25.2929C34.7921 24.9777 35.564 24.1008 35.7781 23.4543C35.8044 23.3775 35.76 23.2361 35.6973 23.1755C34.0102 21.5348 33.3616 19.5224 33.594 17.215C33.6849 16.3118 33.9981 15.4672 34.5416 14.7277C34.7477 14.4489 35.0003 14.4065 35.2084 14.5641C35.4933 14.7762 35.6064 15.1318 35.4427 15.3763C34.6608 16.5543 34.4749 17.8373 34.7315 19.2072C34.9396 20.3144 35.4023 21.2964 36.1964 22.1046C36.2792 22.1895 36.4671 22.2238 36.5924 22.1996C36.7621 22.1773 36.9137 22.0662 37.1198 21.9672ZM19.7051 29.0187C17.8967 28.752 16.1348 28.4894 14.373 28.2429C14.2699 28.2287 14.1265 28.3237 14.0416 28.4086C13.4193 29.0228 12.8212 29.6592 12.1888 30.2634C11.9908 30.4513 11.9605 30.5887 12.0635 30.8372C12.9 32.8557 13.7203 34.8822 14.5467 36.9048C14.769 37.4483 15.1206 37.6928 15.7105 37.6948C16.7652 37.6988 17.8199 37.6988 18.8726 37.6988C18.9696 37.6988 19.0666 37.6826 19.1919 37.6725C19.1919 37.4139 19.1777 37.1775 19.1959 36.9472C19.2201 36.6421 19.0787 36.4602 18.814 36.3491C18.5049 36.2198 18.1958 36.0885 17.8846 35.9592C17.4684 35.7894 17.1633 35.5106 17.0198 35.0762C16.8299 34.5024 16.6319 33.9306 16.4601 33.3507C16.3086 32.8395 16.4096 32.3748 16.7935 31.9848C17.43 31.3363 18.0644 30.6857 18.7009 30.0391C19.0262 29.7017 19.3555 29.3703 19.7051 29.0187ZM2.97734 32.3061C3.21172 31.8818 3.40569 31.4454 3.67441 31.0615C5.13928 28.9581 5.82625 26.6285 5.7919 24.0726C5.78382 23.5129 5.76361 22.9451 5.85049 22.3955C5.9697 21.654 6.18792 20.9287 6.3637 20.1993C6.41219 20.2073 6.40007 20.2013 6.39199 20.2053C6.34551 20.2356 6.29904 20.2639 6.25661 20.3003C4.52909 21.7308 3.32285 23.525 2.60759 25.6405C1.88627 27.7741 1.94689 29.8916 2.82378 31.9768C2.87834 32.104 2.94097 32.2273 2.97734 32.3061Z" fill="#FFEB61"/>
<path d="M18.1268 22.3896C18.1693 21.0682 18.5673 19.8559 19.2664 18.7426C19.3896 18.5446 19.5432 18.3607 19.7069 18.193C19.9392 17.9546 20.2524 17.9506 20.4888 18.1708C20.7232 18.389 20.6908 18.6254 20.513 18.8598C19.9938 19.5468 19.5856 20.2903 19.3856 21.1328C18.9552 22.9452 19.3068 24.602 20.4019 26.1033C20.5454 26.3013 20.6181 26.4872 20.4989 26.7215C20.3433 27.0266 19.9574 27.1398 19.7129 26.9014C19.4826 26.6791 19.2704 26.4205 19.1088 26.1437C18.4319 24.9859 18.0824 23.7373 18.1268 22.3896Z" fill="#FFEB61"/>
<path d="M21.2769 22.5127C21.3011 21.2478 21.6668 20.0194 22.4528 18.9303C22.5639 18.7768 22.6912 18.6293 22.8286 18.502C23.0973 18.2555 23.4145 18.2555 23.6408 18.4797C23.8793 18.7161 23.8873 18.999 23.6166 19.2839C23.0104 19.9244 22.6609 20.6881 22.479 21.5368C22.1699 22.9592 22.4427 24.2745 23.2388 25.4868C23.3438 25.6465 23.457 25.8 23.56 25.9596C23.758 26.2768 23.7297 26.485 23.4691 26.6951C23.2266 26.8911 22.9337 26.8992 22.7195 26.6405C22.4366 26.2971 22.1679 25.9313 21.9618 25.5373C21.4829 24.616 21.2809 23.6219 21.2769 22.5127Z" fill="#FFEB61"/>
<path d="M42.5143 13.6649C42.5083 14.0084 42.185 14.3357 41.8476 14.3377C41.4859 14.3418 41.1586 13.972 41.1646 13.5679C41.1707 13.176 41.4657 12.8749 41.8375 12.8789C42.191 12.883 42.5204 13.2669 42.5143 13.6649Z" fill="#FFEB61"/>
</svg>
