<svg width="48" height="48" viewBox="0 0 48 48" fill="none" xmlns="http://www.w3.org/2000/svg">
<path d="M19.8008 45.0441C19.7291 45.5207 19.7112 46.0071 19.6843 46.4903C19.6365 47.2879 19.0272 47.8074 18.3791 47.5923C17.958 47.45 17.6742 47.0529 17.7101 46.54C17.7877 45.428 17.8654 44.3094 18.0058 43.2074C18.7674 37.2439 20.0666 31.4128 21.6854 25.671C21.9632 24.6914 22.2798 23.7251 22.5814 22.7522C22.6471 22.5404 22.6442 22.355 22.5814 22.13C22.4142 21.5376 22.5874 20.9783 22.8383 20.4521C22.9219 20.28 23.0265 20.1212 23.1429 19.9226C22.4948 19.5619 21.8168 19.2376 21.554 18.3805C21.4943 18.4003 21.4435 18.4136 21.3987 18.4367C20.6311 18.7974 19.977 18.4169 19.8605 17.5035C19.8127 17.1295 19.8605 16.739 19.8725 16.3551C19.8755 16.2592 19.8994 16.1665 19.9113 16.0705C19.5947 15.9514 19.293 15.862 19.0123 15.7197C18.7614 15.594 18.5135 15.445 18.3015 15.2531C17.6384 14.6442 17.7161 13.6712 18.4568 13.1682C18.9794 12.8108 19.5678 12.695 20.1711 12.6585C20.2578 12.6519 20.3474 12.6585 20.434 12.6585C20.5086 12.1621 20.5773 11.6889 20.649 11.2157C20.6669 11.0998 20.6878 10.9774 20.7356 10.8748C20.879 10.5505 20.9507 10.2758 20.7207 9.91507C20.5086 9.58082 20.7117 9.19694 20.9626 8.96859C21.2762 8.68729 21.6496 8.48542 21.999 8.25708C22.0976 8.1942 22.2141 8.16772 22.3096 8.13132C22.1543 7.69117 21.9662 7.27419 21.8586 6.83404C21.6197 5.85447 22.008 5.0569 22.8084 4.83187C23.3012 4.69287 23.7702 4.80539 24.1853 5.1264C24.478 5.35144 24.7528 5.60296 25.0694 5.81807C25.0276 5.75519 24.9887 5.69561 24.9469 5.63274C24.7379 5.32496 24.4929 5.04036 24.3257 4.70611C23.9255 3.91848 24.263 3.05473 25.0455 2.79991C25.5771 2.62782 26.1058 2.70394 26.6255 2.88264C26.736 2.91905 26.8435 2.96207 26.9899 3.01502C27.0406 2.87272 27.0795 2.73372 27.1362 2.60796C27.3931 2.05861 27.6559 1.50925 27.9187 0.963203C27.9516 0.893706 28.0053 0.837451 28.0561 0.781191C28.5639 0.188813 29.0955 0.218595 29.5405 0.877161C29.9198 1.43976 30.0722 2.09832 30.1797 2.77675C30.2036 2.92236 30.2215 3.06797 30.2394 3.1838C30.7173 3.20696 31.1772 3.2202 31.6372 3.25991C31.8284 3.27646 32.0225 3.34265 32.2047 3.41877C32.9424 3.72323 33.1873 4.54064 32.7632 5.27864C32.4526 5.81806 31.9777 6.12915 31.4759 6.39721C31.3893 6.44354 31.2967 6.48325 31.1952 6.53289C31.24 6.77447 31.3057 7.01275 31.3206 7.25433C31.3385 7.59851 31.3535 7.9493 31.3087 8.28686C31.2041 9.10427 30.5769 9.52456 29.8691 9.26312C29.2747 9.04471 28.8088 8.6211 28.4265 8.07837C28.3787 8.01218 28.3339 7.94599 28.2891 7.87981C28.2622 7.88312 28.2323 7.88973 28.2055 7.89304C28.1786 8.21736 28.1547 8.54168 28.1248 8.8991C29.0567 8.96859 29.6689 9.55766 30.1707 10.3221C30.4545 9.9945 30.7083 9.66687 30.9951 9.37895C31.3684 9.00499 31.8015 8.7965 32.3212 8.93219C32.9334 9.09104 33.3516 9.61392 33.3247 10.3089C33.3098 10.7457 33.1813 11.1793 33.1007 11.6095C33.0798 11.722 33.032 11.8312 32.9932 11.9603C33.262 12.0364 33.5129 12.0926 33.7578 12.1754C33.943 12.2383 34.1281 12.321 34.3014 12.4203C34.9286 12.7777 35.0749 13.5124 34.6419 14.1345C34.5313 14.2967 34.3969 14.439 34.2207 14.6541C34.6299 14.5283 34.9614 14.4291 35.293 14.3265C37.082 13.787 38.9039 13.4826 40.7617 13.4495C41.4008 13.4363 41.6637 13.7672 41.5472 14.4688C41.2395 16.2856 40.905 18.0992 40.1404 19.7671C38.9099 22.4477 36.9864 24.2943 34.5164 25.4791C32.2495 26.5679 29.8661 26.9584 27.411 26.9352C27.0078 26.9319 26.8554 26.7002 26.9331 26.1906C27.0526 25.3831 27.19 24.5756 27.3244 23.7317C26.2969 23.5729 25.61 22.8614 24.9828 21.9314C24.8424 22.2888 24.705 22.5734 24.6094 22.8746C23.4058 26.6705 22.3664 30.5226 21.5182 34.4376C20.9357 37.1281 20.431 39.8385 20.0815 42.5819C20.0636 42.7176 20.0517 42.8533 20.0278 43.0883M28.2264 26.1376C28.4713 26.1244 28.7072 26.1145 28.9432 26.1012C30.6128 26.002 32.2346 25.6545 33.7906 24.9694C35.8455 24.0627 37.5808 22.7025 38.8472 20.6573C39.7492 19.2012 40.242 17.573 40.5795 15.872C40.687 15.3358 40.7945 14.7997 40.911 14.2206C38.3723 14.2272 35.9769 14.8262 33.6144 15.6932C33.6294 15.8852 33.6562 16.0705 33.6562 16.2591C33.6622 16.7456 33.5696 17.2056 33.1634 17.4671C32.7423 17.7384 32.2883 17.6987 31.8971 17.4009C31.6372 17.199 31.4401 17.2189 31.1772 17.3744C30.8278 17.5829 30.4515 17.7318 30.0811 17.9105C30.3469 18.6287 30.0662 19.1615 29.6899 19.6943C29.3792 20.1344 29.0835 20.6011 28.8595 21.1008C28.3757 22.1796 28.1696 23.3611 27.9337 24.526C27.8769 24.804 27.8291 25.0886 27.7724 25.4096C27.8441 25.3666 27.8709 25.3599 27.8889 25.3401C28.8864 24.2612 29.884 23.189 30.8726 22.1002C30.9473 22.0175 30.9801 21.8553 30.9771 21.7295C30.9682 21.3953 30.9234 21.0611 30.9025 20.7235C30.8875 20.4952 30.9055 20.2734 31.1683 20.2271C31.3744 20.1907 31.5267 20.3462 31.5745 20.6375C31.6044 20.8195 31.6193 21.0048 31.6432 21.2331C31.7298 21.1537 31.7925 21.1041 31.8493 21.0478C32.7184 20.1808 33.5756 19.3005 34.4567 18.4466C34.9256 17.99 35.4274 17.573 35.9261 17.1593C36.18 16.9475 36.4458 17.0534 36.5145 17.3579C36.5653 17.5829 36.4339 17.6987 36.3025 17.8245C35.0033 19.0622 33.707 20.2999 32.4108 21.5409C32.3361 21.6137 32.2704 21.6998 32.1509 21.8321C32.4974 21.8321 32.7632 21.8288 33.026 21.8321C33.2978 21.8388 33.4681 22.0009 33.4621 22.2392C33.4591 22.4841 33.3038 22.6098 33.0081 22.6065C32.572 22.5999 32.133 22.5801 31.6969 22.5966C31.5625 22.6032 31.3983 22.6694 31.3027 22.772C30.6068 23.4968 29.9228 24.2348 29.2418 24.9761C28.8954 25.3533 28.5698 25.7438 28.2264 26.1376ZM28.752 14.5118C28.7102 14.6607 28.6594 14.7799 28.6415 14.9023C28.5639 15.4848 28.4623 16.0672 28.4295 16.6563C28.4086 17.06 28.5668 17.1494 28.9014 17.0071C29.3583 16.8151 29.7227 16.4776 29.9796 16.0242C30.1827 15.6668 30.329 15.2696 30.5052 14.8957C30.5381 14.8229 30.6038 14.7666 30.6546 14.7037C30.7113 14.76 30.783 14.8063 30.8248 14.8725C31.0488 15.2531 31.234 15.6701 31.4968 16.0109C31.7208 16.3022 32.0105 16.5603 32.3152 16.739C32.7722 17.0038 33.0111 16.7986 32.9305 16.236C32.8558 15.7131 32.7303 15.2001 32.6288 14.6773C32.7572 14.6309 32.9036 14.6045 33.023 14.525C33.3426 14.3132 33.6831 14.1213 33.9489 13.8433C34.3163 13.4561 34.2536 13.1947 33.7847 12.9961C33.5039 12.877 33.2052 12.7909 32.9096 12.738C32.581 12.6784 32.2465 12.6751 31.8821 12.6453C31.9389 12.5196 31.9926 12.4203 32.0315 12.3111C32.2346 11.7352 32.4556 11.1627 32.6288 10.5736C32.7124 10.289 32.6766 9.96472 32.4197 9.77277C32.1509 9.5709 31.8732 9.65694 31.6163 9.83234C31.5267 9.89522 31.4341 9.96471 31.3684 10.0541C31.1324 10.3751 30.8995 10.6994 30.6755 11.0303C30.5351 11.2388 30.4067 11.4606 30.2454 11.722C29.9706 11.3149 29.7466 10.9311 29.4748 10.6001C29.2389 10.3122 28.973 10.0342 28.6774 9.83234C28.301 9.57752 28.0233 9.76284 27.9635 10.2493C27.9516 10.3453 27.9426 10.4545 27.9755 10.5405C28.1338 10.9774 28.301 11.4109 28.4713 11.8411C28.54 12.0132 28.6326 12.1754 28.7251 12.3673C28.4235 12.3673 28.1726 12.3408 27.9277 12.3739C27.5424 12.4269 27.1541 12.4931 26.7808 12.6056C26.5389 12.6784 26.4911 12.8803 26.6105 13.1252C26.6733 13.2509 26.7688 13.3634 26.8674 13.4594C27.2975 13.8797 27.8112 14.1246 28.3458 14.3298C28.4713 14.396 28.5997 14.4522 28.752 14.5118ZM30.2514 6.01662C30.3619 5.97691 30.4425 5.96368 30.5112 5.92396C31.0309 5.62612 31.5685 5.35806 32.0583 5.00726C32.4197 4.74582 32.369 4.38179 31.9717 4.19647C31.6999 4.0674 31.3893 3.98136 31.0966 3.97474C30.6038 3.9615 30.111 4.031 29.5793 4.06409C29.5674 3.93172 29.5465 3.76956 29.5405 3.60409C29.5077 2.88926 29.4091 2.18767 29.1164 1.53904C28.9043 1.06911 28.764 1.05256 28.4802 1.46292C28.0322 2.10825 27.7783 2.85617 27.5633 3.62395C27.5304 3.74308 27.4916 3.85891 27.4558 3.98136C27.2049 3.88208 26.9898 3.7861 26.7688 3.70999C26.3059 3.54783 25.837 3.41876 25.3501 3.52797C24.8812 3.63056 24.7259 3.98136 25.0007 4.41489C25.1978 4.72266 25.4636 4.9841 25.7265 5.2323C25.9206 5.41432 26.1536 5.54339 26.3865 5.70886C26.291 5.8644 26.1924 5.99346 26.1297 6.14238C25.9505 6.55936 25.7653 6.97634 25.6219 7.40656C25.5353 7.668 25.6637 7.84671 25.9176 7.87649C26.0311 7.88973 26.1506 7.87981 26.2611 7.85333C26.8077 7.72757 27.2825 7.44958 27.6977 7.03922C27.9008 6.83735 28.1039 6.63548 28.307 6.4336C28.4056 6.609 28.5191 6.82411 28.6415 7.02599C28.9969 7.61506 29.4061 8.14787 29.9975 8.46557C30.3649 8.66082 30.6516 8.4788 30.6635 8.02873C30.6695 7.7375 30.6396 7.43635 30.5769 7.15174C30.4963 6.77448 30.3678 6.41375 30.2514 6.01662ZM26.3865 14.2901C26.4224 15.038 26.1416 15.6105 25.6398 16.054C25.4397 16.2294 25.3203 16.4312 25.2725 16.7092C25.2127 17.0666 25.1231 17.4207 25.0425 17.7748C25.0186 17.8741 24.9858 17.9701 24.9529 18.0793C24.8484 18.0264 24.7767 17.98 24.702 17.9536C24.2211 17.7848 23.7433 17.5796 23.2505 17.477C23.0085 17.4274 22.7158 17.52 22.4799 17.6359C22.1334 17.8046 22.1065 18.1587 22.3754 18.45C22.465 18.5459 22.5665 18.632 22.674 18.6949C23.0205 18.8967 23.3729 19.0887 23.7254 19.2806C23.9135 19.3832 24.1017 19.4792 24.3227 19.5983C24.2032 19.7505 24.1017 19.8498 24.033 19.9723C23.7672 20.4455 23.4924 20.9188 23.2594 21.4152C23.1997 21.5409 23.2296 21.809 23.3132 21.8983C23.3938 21.9844 23.6328 21.9877 23.7492 21.9182C24.0569 21.7296 24.3436 21.488 24.6273 21.2497C24.8095 21.0975 24.9738 20.9154 25.159 20.7334C25.3143 20.9916 25.4457 21.2265 25.5891 21.4483C25.9863 22.0704 26.4343 22.6297 27.1033 22.8978C27.4229 23.0268 27.5872 22.9176 27.6111 22.5404C27.629 22.2657 27.629 21.9811 27.5812 21.7163C27.4946 21.2365 27.3662 20.7665 27.2497 20.2635C27.4259 20.1973 27.6081 20.1245 27.7903 20.055C28.301 19.8564 28.7759 19.5917 29.1582 19.1549C29.3494 18.9364 29.5764 18.6949 29.4599 18.3573C29.3344 17.9999 29.0208 18.0032 28.7281 18.0065C28.3578 18.0065 27.9874 18.0065 27.5454 18.0065C28.0352 17.712 27.8799 17.3512 27.6798 16.9177C27.1989 17.3115 26.73 17.6954 26.1984 18.1356C26.1894 17.9436 26.1595 17.7881 26.1804 17.6425C26.3149 16.6463 26.4552 15.6502 26.6105 14.6574C26.6464 14.439 26.6016 14.3364 26.3865 14.2901ZM21.106 13.5719C20.9865 13.5422 20.885 13.5091 20.7804 13.4925C20.1234 13.3932 19.4782 13.4131 18.8839 13.7904C18.4359 14.075 18.4179 14.4555 18.8779 14.7203C19.308 14.9652 19.7829 15.1207 20.2398 15.3061C20.4041 15.3722 20.5773 15.3987 20.7595 15.445C20.7297 15.6039 20.6998 15.7263 20.6849 15.8521C20.6341 16.322 20.5475 16.7887 20.5475 17.2586C20.5475 17.7848 20.8282 17.9304 21.2165 17.6557C21.336 17.573 21.4465 17.4704 21.548 17.3579C22.0438 16.8118 22.3963 16.1665 22.6352 15.4417C22.683 15.2961 22.7338 15.1505 22.7845 15.0049C23.1638 15.1604 23.5163 15.3193 23.8807 15.445C24.266 15.5807 24.6632 15.6635 25.0664 15.541C25.6369 15.3656 25.834 14.6376 25.4308 14.161C25.3113 14.0187 25.162 13.8996 25.0037 13.8135C24.4541 13.5091 23.8687 13.4032 23.2624 13.4991C23.0115 13.5388 22.904 13.4594 22.8921 13.1682C22.8771 12.824 22.8562 12.4699 22.7726 12.1423C22.6591 11.679 22.5336 11.209 22.3276 10.7921C22.0976 10.3254 21.6944 10.3685 21.5002 10.8549C21.3778 11.1594 21.2792 11.487 21.2404 11.8147C21.1717 12.3839 21.1508 12.9663 21.106 13.5719ZM27.2885 8.29348C26.5986 8.62773 25.9236 8.92226 25.2755 8.45233C25.0365 8.63765 24.8275 8.81305 24.6064 8.95866C24.5467 8.99837 24.4242 8.97852 24.3615 8.9355C24.1375 8.77003 24.1256 8.35967 24.3436 8.17434C24.4601 8.07506 24.6154 8.03535 24.7379 7.94269C24.8125 7.88643 24.8962 7.78714 24.9051 7.7011C24.9439 7.2775 24.7737 6.93333 24.5437 6.60901C24.251 6.20195 23.9464 5.81806 23.4984 5.6195C22.9398 5.36799 22.4679 5.73864 22.5247 6.39721C22.5456 6.63879 22.6113 6.88368 22.7039 7.1021C22.8532 7.44958 23.0414 7.77391 23.2176 8.10815C23.4147 8.48542 23.3968 8.49866 23.0205 8.6542C22.5964 8.82629 22.1752 9.02154 21.7661 9.23996C21.6107 9.3227 21.4973 9.5014 21.3658 9.63378C21.3808 9.66025 21.3987 9.68342 21.4136 9.70989C22.3365 9.52457 22.8741 10.0574 23.2355 10.9178C23.6447 10.4016 24.036 9.90845 24.4392 9.39881C24.6423 9.78601 24.8066 10.1467 25.0067 10.481C25.3083 10.9873 25.6578 11.4539 26.1595 11.7319C26.6344 11.9967 27.0078 11.7617 26.9749 11.1759C26.945 10.6597 26.8405 10.1434 26.736 9.63708C26.6882 9.40212 26.7091 9.26312 26.9361 9.24658C27.2378 9.22341 27.2826 9.005 27.2855 8.74355C27.2885 8.59794 27.2885 8.46226 27.2885 8.29348ZM23.8896 22.7919C23.3341 22.7621 23.3251 22.7588 23.1638 23.2684C22.8234 24.3605 22.4709 25.4493 22.1663 26.5546C21.2613 29.8243 20.4609 33.1237 19.8127 36.4695C19.2393 39.4281 18.7256 42.3966 18.4717 45.4148C18.4388 45.7987 18.403 46.1825 18.409 46.5664C18.409 46.6723 18.5493 46.861 18.624 46.861C18.7315 46.861 18.851 46.7352 18.9436 46.6359C18.9854 46.5929 18.9794 46.487 18.9824 46.4076C19.1019 44.3028 19.3946 42.2245 19.7351 40.1496C20.6072 34.8314 21.8348 29.6158 23.3759 24.4896C23.5432 23.9336 23.7134 23.3743 23.8896 22.7919ZM23.6059 12.7413C24.3735 12.7016 25.0694 12.8968 25.6936 13.2939C25.8907 12.7413 25.7563 12.3475 25.3143 12.0695C25.2008 11.9967 25.1112 11.8742 25.0246 11.765C24.7856 11.4606 24.5557 11.1528 24.3078 10.8252C24.0688 11.1098 23.8299 11.3877 23.5999 11.6757C23.5581 11.7286 23.5223 11.8147 23.5282 11.8842C23.5432 12.1555 23.576 12.4302 23.6059 12.7413ZM27.0705 16.3816C27.623 16.2492 27.6529 16.2161 27.7246 15.7032C27.7365 15.6171 27.7545 15.5278 27.7694 15.4417C27.862 14.9222 27.862 14.9222 27.399 14.7799C27.3751 14.7732 27.3483 14.7832 27.3035 14.7832C27.2258 15.3027 27.1511 15.8256 27.0705 16.3816ZM23.1668 15.9944C23.0683 16.2492 22.9817 16.4676 22.91 16.6497C23.3998 16.7291 23.8627 16.8019 24.3406 16.8813C24.3496 16.7589 24.4601 16.5802 24.2331 16.4776C23.8896 16.3187 23.5432 16.1632 23.1668 15.9944ZM30.4634 16.4246C30.4933 16.4676 30.5261 16.5107 30.556 16.5537C30.6486 16.4743 30.7442 16.3948 30.8308 16.3088C30.8338 16.3055 30.7681 16.2161 30.7322 16.1665C30.6426 16.2492 30.553 16.3386 30.4634 16.4246Z" fill="#FFEB61"/>
<path d="M21.1511 27.3489C21.1511 27.7361 21.1571 28.12 21.1511 28.5072C21.1421 29.0234 20.9181 29.2385 20.4612 29.1161C19.9056 28.9672 19.3561 28.7951 18.8155 28.5998C16.7935 27.8718 14.9297 26.8227 13.296 25.2938C11.5637 23.6722 10.5781 21.6005 10.1779 19.1449C9.91503 17.5333 9.80451 15.9117 9.77763 14.2768C9.77465 14.1776 9.78062 14.0783 9.78958 13.9823C9.82244 13.6481 9.99268 13.4727 10.2943 13.5322C10.8917 13.6481 11.486 13.7837 12.0744 13.9426C13.8635 14.4225 15.5331 15.1836 16.9816 16.4743C18.6691 17.98 19.7444 19.9326 20.4283 22.1863C20.9361 23.8608 21.0944 25.5949 21.1511 27.3489ZM16.223 21.9678C16.2499 21.9546 16.2738 21.9414 16.3007 21.9281C16.3126 21.8123 16.3245 21.6998 16.3395 21.5873C16.3783 21.2894 16.5456 21.1074 16.7487 21.1405C16.9577 21.1736 17.0772 21.3854 17.0384 21.6832C16.9966 21.9943 16.9309 22.3054 16.898 22.6198C16.8861 22.7323 16.904 22.8845 16.9637 22.9673C18.0628 24.4863 19.1679 25.9987 20.276 27.5144C20.3178 27.5706 20.3716 27.6136 20.4642 27.7096C20.4642 27.5508 20.4671 27.4581 20.4642 27.3621C20.4283 25.8861 20.2999 24.4201 19.9265 22.9971C19.0275 19.5553 17.2265 16.9541 14.192 15.5245C14.0666 15.4649 13.9352 15.4186 13.7679 15.3524C13.7679 15.8256 13.7679 16.2459 13.7679 16.6629C13.5409 16.6629 13.3438 16.6629 13.1198 16.6629C13.1198 16.2128 13.1108 15.7892 13.1228 15.3656C13.1287 15.1538 13.075 15.0413 12.8808 14.9884C12.3014 14.8295 11.725 14.6541 11.1456 14.4886C11.0679 14.4655 10.9843 14.4688 10.829 14.4556C12.5374 17.113 14.3742 19.5487 16.223 21.9678ZM10.4915 15.3855C10.4915 15.412 10.4855 15.4682 10.4915 15.5245C10.6199 16.7423 10.7035 17.9668 10.8917 19.1714C11.2202 21.2828 12.0894 23.0831 13.5559 24.5161C14.9208 25.8464 16.4769 26.8095 18.1614 27.5342C18.6871 27.7593 19.2277 27.9413 19.7623 28.1431C19.6309 27.8718 19.4636 27.6666 19.3083 27.4515C18.3675 26.1476 17.4237 24.8437 16.4888 23.5332C16.3514 23.3412 16.2111 23.2353 15.9751 23.2519C15.548 23.2784 15.1179 23.2817 14.6908 23.2618C14.5713 23.2552 14.4101 23.1658 14.3473 23.0566C14.189 22.7886 14.3503 22.5006 14.658 22.4841C14.9805 22.4676 15.3061 22.4808 15.6406 22.4808C13.9053 20.0914 12.1969 17.7385 10.4915 15.3855Z" fill="#FFEB61"/>
<path d="M31.9296 28.6593C32.2821 28.6593 32.6554 28.6494 33.0317 28.6626C33.3842 28.6759 33.5694 29.0035 33.3961 29.3477C31.3562 33.3785 28.7159 36.6912 24.6301 38.2466C23.3159 38.7463 21.9569 39.0144 20.583 39.203C20.2246 39.2527 20.0574 39.0706 20.1052 38.6702C20.3411 36.6846 20.8996 34.8214 21.8494 33.1138C22.3602 32.1937 23.1516 31.6047 23.9551 31.0454C24.9437 30.357 25.9412 29.6389 27.0911 29.351C28.1574 29.0829 29.2505 28.9373 30.3347 28.7752C30.8514 28.6924 31.3801 28.6957 31.9296 28.6593ZM32.518 29.4503C32.3956 29.437 32.3508 29.4271 32.306 29.4271C30.723 29.4602 29.152 29.6058 27.6048 29.9996C26.1862 30.3604 24.9795 31.2109 23.7908 32.0945C23.1546 32.5677 22.614 33.1469 22.2317 33.8981C21.6613 35.0167 21.2521 36.2014 21.0161 37.459C20.9982 37.5483 20.9982 37.641 20.9833 37.7899C21.1177 37.6807 21.2013 37.6145 21.2849 37.545C23.0501 36.069 24.8152 34.5897 26.5834 33.1138C26.8313 32.9086 27.0165 32.935 27.1807 33.1866C27.3181 33.3984 27.2733 33.5506 27.0344 33.7492C25.3319 35.1556 23.6325 36.5654 21.9301 37.9752C21.8524 38.0414 21.7807 38.1175 21.709 38.1903C24.4449 37.7502 26.8731 36.6184 28.913 34.55C30.3586 33.0807 31.5384 31.3896 32.518 29.4503Z" fill="#FFEB61"/>
<path d="M9.1707 25.1019C11.4137 25.1085 13.615 25.4196 15.7206 26.3396C16.7421 26.7863 17.6769 27.382 18.5401 28.1366C19.4719 28.9507 20.0693 29.9699 20.2097 31.297C20.2634 31.7868 20.3321 32.2766 20.4038 32.7631C20.4844 33.3257 20.362 33.554 19.8632 33.693C18.7432 34.0074 17.6232 34.0967 16.4733 33.8055C15.0576 33.4481 13.839 32.6737 12.6592 31.7868C10.5028 30.1685 8.72867 28.1002 7.05311 25.9193C6.95455 25.7902 6.87988 25.5221 6.93663 25.3997C7.00234 25.2541 7.22335 25.125 7.38165 25.1151C7.97302 25.082 8.57336 25.1019 9.1707 25.1019ZM19.2569 32.998C19.1733 32.8921 19.1315 32.8293 19.0807 32.7763C18.5013 32.174 17.9218 31.575 17.3394 30.976C17.2468 30.88 17.1333 30.8006 17.0736 30.6848C17.0198 30.5756 16.975 30.4002 17.0168 30.3108C17.0676 30.2049 17.2229 30.0891 17.3245 30.0957C17.4678 30.1056 17.6291 30.1983 17.7396 30.3075C18.2623 30.8436 18.7701 31.3996 19.2868 31.949C19.3794 32.0482 19.4809 32.1376 19.5765 32.2336C19.5944 31.9192 19.5496 31.6412 19.5138 31.3632C19.3943 30.4366 19.0299 29.6556 18.4057 29.0235C17.4977 28.1002 16.4374 27.4647 15.2905 26.9948C13.0833 26.0914 10.7895 25.8101 8.45389 25.8531C8.30754 25.8564 8.1582 25.8531 7.99393 25.8531C8.01185 25.9325 8.01185 25.9656 8.02679 25.9855C8.26871 26.2899 8.51362 26.5878 8.75853 26.8922C10.2848 28.7918 11.9842 30.4664 13.9495 31.8C15.1053 32.581 16.3299 33.0973 17.6829 33.2065C18.2056 33.2462 18.7133 33.1767 19.2569 32.998Z" fill="#FFEB61"/>
<path d="M29.7349 13.3074C29.8573 13.1287 29.9559 12.9698 30.0694 12.8209C30.2456 12.5892 30.4188 12.5661 30.6548 12.7249C30.9505 12.9235 30.9744 13.0294 30.7952 13.3603C30.4845 13.9229 30.4845 13.9229 30.0067 13.5357C29.92 13.4662 29.8364 13.3934 29.7349 13.3074Z" fill="#FFEB61"/>
<path d="M28.8984 5.12301C28.8925 5.28517 28.4026 5.74849 28.2682 5.65252C28.092 5.52676 27.9576 5.26863 27.8829 5.03697C27.8292 4.86819 28.2682 4.56042 28.4952 4.57366C28.6953 4.58358 28.9044 4.86819 28.8984 5.12301Z" fill="#FFEB61"/>
<path d="M26.085 19.2872C25.9207 19.4758 25.8102 19.595 25.7086 19.7274C25.5384 19.9458 25.3741 20.012 25.1949 19.7406C25.168 19.7009 25.1232 19.6777 25.0963 19.6413C24.9799 19.4758 24.8694 19.3038 24.7559 19.1383C24.938 18.9894 25.1173 18.8371 25.3024 18.6915C25.3293 18.6717 25.3861 18.6584 25.404 18.675C25.619 18.8603 25.8311 19.0556 26.085 19.2872Z" fill="#FFEB61"/>
<path d="M22.4679 13.8037C22.7218 13.807 22.9129 14.0089 22.9189 14.277C22.9249 14.5384 22.6053 14.7899 22.2708 14.7965C22.0348 14.7999 21.8258 14.6311 21.8228 14.4292C21.8198 14.1413 22.1722 13.8004 22.4679 13.8037Z" fill="#FFEB61"/>
<path d="M8.4543 24.3175C8.33782 24.2248 8.25718 24.1884 8.22134 24.1222C8.17355 24.0428 8.15861 23.9402 8.13472 23.8475C7.91968 23.0334 7.47166 22.4609 6.73096 22.1929C6.57565 22.1366 6.4293 22.0836 6.42631 21.8586C6.42332 21.627 6.58759 21.617 6.72498 21.5641C7.47465 21.2662 7.99434 20.7268 8.19445 19.8498C8.2303 19.691 8.29003 19.5387 8.46625 19.542C8.63948 19.5454 8.69623 19.6877 8.72908 19.8531C8.9053 20.7334 9.41304 21.2729 10.1687 21.5442C10.327 21.6005 10.4405 21.6832 10.4465 21.8785C10.4524 22.0803 10.3031 22.1035 10.1747 22.1465C9.36525 22.4146 8.89932 23.0334 8.66636 23.9104C8.63052 24.0428 8.53793 24.1553 8.4543 24.3175ZM8.4095 22.868C8.72012 22.5271 9.05464 22.1598 9.39811 21.7858C8.99191 21.5641 8.67233 21.2199 8.49313 20.7963C8.16459 21.167 7.84202 21.531 7.55231 21.8586C7.83306 22.1895 8.12875 22.537 8.4095 22.868Z" fill="#FFEB61"/>
<path d="M19.9114 9.4484C19.8815 9.47819 19.8278 9.57416 19.7501 9.60064C19.0303 9.84553 18.5644 10.3419 18.4031 11.1759C18.3852 11.2686 18.2538 11.3811 18.1642 11.3943C18.0985 11.4042 17.982 11.2884 17.9431 11.1991C17.8416 10.9707 17.7908 10.7126 17.6773 10.4909C17.4653 10.0739 17.1457 9.79589 16.7186 9.68337C16.5633 9.64035 16.4199 9.58409 16.4229 9.36236C16.4259 9.15718 16.5603 9.11085 16.7037 9.05128C17.292 8.79977 17.7162 8.37617 17.8715 7.67127C17.8804 7.62494 17.8864 7.56537 17.9163 7.53558C17.9909 7.45947 18.0775 7.34364 18.1612 7.34033C18.2418 7.34033 18.3493 7.44623 18.3971 7.53558C18.4628 7.66465 18.4688 7.83012 18.5285 7.9658C18.7705 8.52509 19.1617 8.89574 19.7023 9.06783C19.8935 9.13071 19.9144 9.16049 19.9114 9.4484ZM18.7794 9.3756C18.5733 9.14064 18.3284 8.86264 18.1582 8.66739C17.982 8.86926 17.7341 9.15056 17.5131 9.40869C17.6773 9.59402 17.9252 9.87201 18.1164 10.0937C18.3553 9.83561 18.6092 9.56093 18.7794 9.3756Z" fill="#FFEB61"/>
<path d="M23.1338 43.8958C23.0771 43.8197 22.9965 43.7535 22.9696 43.6674C22.8262 43.1909 22.6231 42.7673 22.2348 42.4827C22.0915 42.3768 21.9182 42.3205 21.7749 42.2146C21.6883 42.1484 21.5778 42.0326 21.5748 41.9366C21.5718 41.844 21.6763 41.695 21.7629 41.662C22.3603 41.4204 22.7724 40.9935 22.9755 40.315C23.0054 40.2158 23.1368 40.0768 23.2085 40.0867C23.2921 40.0966 23.4086 40.2356 23.4325 40.3382C23.5938 41.0067 24 41.4071 24.5555 41.652C24.681 41.7083 24.7915 41.7546 24.7855 41.93C24.7825 42.0955 24.6869 42.1749 24.5585 42.2245C23.9403 42.4661 23.5669 42.9559 23.4027 43.6476C23.3728 43.7932 23.325 43.8726 23.1338 43.8958ZM23.7282 41.9234C23.5878 41.7513 23.3728 41.4832 23.1697 41.235C22.9576 41.4601 22.7306 41.6984 22.5694 41.8704C22.7754 42.1087 22.9994 42.3668 23.1816 42.5786C23.3429 42.3834 23.5609 42.1253 23.7282 41.9234Z" fill="#FFEB61"/>
<path d="M16.7874 37.6147C16.0437 37.6081 15.4643 36.9462 15.4703 36.1089C15.4762 35.3047 16.0915 34.6528 16.8292 34.6627C17.5729 34.6759 18.1553 35.3312 18.1464 36.1486C18.1374 36.9793 17.5401 37.6213 16.7874 37.6147ZM16.8053 37.1017C17.2742 37.0984 17.6775 36.655 17.6745 36.142C17.6685 35.6324 17.2713 35.1988 16.8143 35.1988C16.3424 35.1988 15.9332 35.639 15.9392 36.1486C15.9422 36.6748 16.3334 37.1017 16.8053 37.1017Z" fill="#FFEB61"/>
<path d="M25.3888 28.8577C24.8123 28.8544 24.3584 28.3249 24.3673 27.663C24.3733 26.9879 24.8094 26.5147 25.4216 26.5147C26.0011 26.5114 26.461 27.0177 26.461 27.6597C26.464 28.3348 25.9951 28.8577 25.3888 28.8577ZM25.8935 27.6531C25.8935 27.3718 25.6755 27.1468 25.4037 27.1468C25.1469 27.1468 24.9378 27.385 24.9408 27.6829C24.9408 27.9807 25.1289 28.1925 25.3888 28.1991C25.6815 28.2058 25.8906 27.9774 25.8935 27.6531Z" fill="#FFEB61"/>
<path d="M34.633 9.39218C34.5165 9.29952 34.4359 9.26312 34.4 9.19693C34.3523 9.1175 34.3373 9.01491 34.3134 8.92225C34.0984 8.10814 33.6504 7.53562 32.9097 7.26756C32.7544 7.2113 32.608 7.15835 32.605 6.93332C32.602 6.70166 32.7663 6.69173 32.9037 6.63878C33.6534 6.34094 34.1731 5.80151 34.3732 4.92452C34.409 4.76567 34.4687 4.61344 34.645 4.61675C34.8182 4.62006 34.8749 4.76237 34.9078 4.92783C35.084 5.80813 35.5918 6.34756 36.3474 6.61893C36.5057 6.67519 36.6192 6.75792 36.6252 6.95317C36.6311 7.15504 36.4818 7.17821 36.3534 7.22123C35.544 7.48929 35.078 8.10814 34.8451 8.98513C34.8092 9.11751 34.7196 9.23333 34.633 9.39218ZM34.5882 7.94268C34.8988 7.60181 35.2333 7.23447 35.5768 6.86051C35.1706 6.63878 34.851 6.2946 34.6718 5.871C34.3433 6.24165 34.0207 6.60569 33.731 6.93332C34.0118 7.26756 34.3104 7.61505 34.5882 7.94268Z" fill="#FFEB61"/>
</svg>
