<svg width="48" height="49" viewBox="0 0 48 49" fill="none" xmlns="http://www.w3.org/2000/svg">
<path d="M24.2646 43.9315C24.2646 43.3629 24.2811 42.8474 24.2613 42.332C24.2182 41.2113 24.1719 40.0907 24.0957 38.97C24.0758 38.704 23.9633 38.428 23.8308 38.1952C23.5494 37.7063 23.2216 37.2441 22.9203 36.7652C22.7547 36.4992 22.5362 36.4427 22.2548 36.5557C22.0495 36.6389 21.8343 36.7054 21.6389 36.8085C20.3873 37.4603 19.1192 37.3605 17.8544 36.865C16.434 36.3097 15.338 35.3253 14.4076 34.1415C13.5004 32.9876 12.8713 31.6973 12.6196 30.2374C12.5832 30.0279 12.4574 29.7685 12.7123 29.6322C12.9541 29.4992 13.0898 29.7419 13.2454 29.8783C14.2288 30.7462 15.3844 31.2484 16.6492 31.5377C17.5134 31.7339 18.3875 31.8935 19.2318 32.1529C20.6721 32.5952 21.7548 33.5163 22.5064 34.8265C22.9302 35.5648 23.364 36.2997 23.7944 37.0346C23.8474 37.1277 23.9103 37.2175 24.0229 37.2907C24.0162 37.1776 24.0129 37.0612 24.0063 36.9481C23.9136 35.6812 23.7944 34.4142 23.7348 33.1439C23.6686 31.7073 23.6322 30.2674 23.6388 28.8308C23.6454 27.607 23.748 26.3833 23.7745 25.1595C23.8143 23.3505 23.8275 21.5381 23.8474 19.7291C23.8474 19.6393 23.8242 19.5495 23.8043 19.3799C23.5295 19.6293 23.2878 19.8189 23.0759 20.045C22.6984 20.4474 22.3011 20.8132 21.7846 21.0326C21.129 21.3087 20.533 21.1956 20.0099 20.7334C19.8543 20.597 19.7119 20.5272 19.4967 20.5338C18.4934 20.5671 17.7054 20.1514 17.1458 19.3167C16.7849 18.778 16.4737 18.1994 16.0731 17.6939C15.5135 16.9922 14.8778 16.3538 14.3016 15.6654C13.5798 14.8041 12.9872 13.8697 12.7918 12.7324C12.7488 12.4896 12.7223 12.2302 12.7686 11.9908C12.8415 11.6084 13.2421 11.4454 13.5302 11.7015C13.8381 11.9742 14.0798 12.3233 14.3381 12.6459C14.5996 12.9751 15.0599 13.2013 15.4605 13.1813C15.4837 13.158 15.5069 13.1347 15.5334 13.1115C15.4406 13.0516 15.3281 13.0117 15.2585 12.9319C14.3314 11.8844 13.6262 10.7039 13.2189 9.36372C12.9375 8.43925 13.1031 7.5048 13.3348 6.58698C13.3646 6.46394 13.4408 6.34755 13.5136 6.24447C13.7851 5.87534 14.1725 5.85539 14.4771 6.19459C14.5996 6.33093 14.689 6.50052 14.8016 6.64684C14.9043 6.78318 15.0235 6.90623 15.1327 7.03592C15.1691 7.03259 15.2022 7.02927 15.2387 7.02927C15.3546 6.70338 15.4837 6.38081 15.5896 6.0516C15.6757 5.77891 15.7221 5.49292 15.8148 5.22356C16.0101 4.66821 16.4008 4.29577 16.9637 4.14612C17.3942 4.02973 17.6623 3.75372 17.8809 3.39457C18.0729 3.07866 18.2517 2.74945 18.4736 2.45681C18.8477 1.96465 19.255 1.84161 19.8443 2.03115C20.0463 2.09766 20.2052 2.08435 20.3873 1.97129C20.9701 1.60549 21.2449 1.64873 21.7548 2.12094C21.8078 2.17082 21.9336 2.17415 22.0131 2.15419C22.2515 2.09434 22.4865 2.01452 22.7183 1.93139C22.7779 1.90811 22.8474 1.86155 22.8772 1.80835C23.2514 1.11333 23.9103 1.11666 24.3109 1.40597C24.8473 1.79172 25.344 1.815 25.9399 1.57224C26.4498 1.36274 26.9266 1.53899 27.2942 1.94469C27.4663 2.13424 27.6484 2.21072 27.91 2.24398C28.1385 2.27723 28.3703 2.4568 28.5457 2.6264C28.7345 2.8093 28.8967 2.89243 29.1715 2.85585C29.8072 2.77272 30.2575 3.18175 30.2973 3.82688C30.3105 4.02641 30.3569 4.20598 30.5853 4.23923C31.1052 4.31572 31.4396 4.60171 31.5952 5.10718C31.6051 5.1371 31.6382 5.1637 31.6945 5.22689C31.8237 5.10052 31.9462 4.9808 32.0687 4.86109C32.2607 4.67819 32.4461 4.42878 32.7508 4.53187C33.0686 4.64161 33.211 4.92427 33.2441 5.24684C33.2739 5.53948 33.2607 5.83877 33.2805 6.13473C33.2905 6.29103 33.3269 6.44399 33.3501 6.59696C33.3765 6.59696 33.403 6.59696 33.4295 6.59696C33.5355 6.41739 33.6216 6.21453 33.7573 6.06489C33.8765 5.93187 34.0785 5.75231 34.2076 5.77891C34.3632 5.80884 34.5586 6.01501 34.6016 6.18128C34.7175 6.60694 34.7738 7.05255 34.8235 7.49483C34.8897 8.07345 34.9129 8.6554 34.9857 9.2307C35.085 9.9889 34.9824 10.7072 34.6579 11.3989C33.8302 13.1713 33.0057 14.9438 32.1779 16.7162C31.7872 17.5476 31.3105 18.3124 30.5423 18.8545C29.7543 19.4132 28.8768 19.6759 27.92 19.7124C27.8339 19.7158 27.7445 19.7124 27.6484 19.7657C27.9133 19.8621 28.1881 19.9352 28.4398 20.0616C28.5788 20.1314 28.7775 20.2977 28.7676 20.4075C28.7543 20.5505 28.5656 20.6768 28.4497 20.8098C28.4332 20.8298 28.4 20.8364 28.3736 20.8398C28.0458 20.883 27.8372 21.036 27.6849 21.3585C27.5392 21.6645 27.1783 21.7376 26.8637 21.721C26.4167 21.6977 25.9764 21.6179 25.5029 21.5547C25.5062 21.5448 25.4863 21.5946 25.483 21.6445C25.3936 23.7961 25.2943 25.9443 25.2215 28.0958C25.1552 30.0845 25.2281 32.0697 25.3903 34.0517C25.4334 34.5971 25.4797 35.1424 25.5294 35.6878C25.536 35.7543 25.5625 35.8208 25.5824 35.894C25.791 35.1557 25.9896 34.4374 26.2015 33.7225C26.2677 33.4997 26.3571 33.2868 26.4465 33.074C26.7114 32.4422 27.0094 31.8237 27.2412 31.1785C27.7544 29.7752 28.6716 28.6944 29.8403 27.8165C31.817 26.3334 34.0851 25.5087 36.479 25.0232C37.1644 24.8835 37.8663 24.8236 38.5616 24.7305C38.7007 24.7106 38.8199 24.6906 38.8762 24.8901C38.9325 25.083 38.853 25.1595 38.7172 25.246C38.161 25.5951 37.5849 25.9144 37.0584 26.3034C35.7506 27.2645 34.7672 28.5282 33.8599 29.8616C33.4891 30.4037 33.1249 30.9624 32.6779 31.4379C31.572 32.6051 30.2079 32.9676 28.6583 32.542C27.8306 32.3158 27.1717 32.6085 26.9366 33.4332C26.4995 34.9562 26.1055 36.4892 25.7181 38.0256C25.6618 38.2451 25.7413 38.4978 25.7578 38.7372C25.8108 39.5686 25.8737 40.4033 25.9068 41.2379C25.9466 42.1558 25.9598 43.0736 25.983 43.9914C25.9863 44.0812 25.9929 44.1676 25.9962 44.2574C26.0194 44.2641 26.0459 44.2707 26.0691 44.2774C26.1287 44.1144 26.2048 43.9548 26.2446 43.7885C26.9035 40.9786 28.5623 39.0398 31.2277 37.9657C32.8699 37.304 34.5751 36.9016 36.3432 36.8351C37.1975 36.8018 38.055 36.865 38.9126 36.8883C39.0947 36.8916 39.2338 37.0014 39.2205 37.1743C39.2139 37.2641 39.0848 37.3838 38.9854 37.427C36.6015 38.4845 34.5387 40.0308 32.5653 41.7101C31.2475 42.8308 29.8072 43.7387 28.1054 44.151C27.7908 44.2275 27.4763 44.2907 27.1584 44.3539C26.8968 44.4037 26.6982 44.5368 26.5558 44.7596C26.42 44.9691 26.2711 45.1719 26.1585 45.3947C26.0889 45.5277 26.0492 45.6907 26.0426 45.8403C26.026 46.1928 26.0525 46.5453 26.0393 46.8978C26.026 47.2536 25.8737 47.5429 25.5691 47.7358C25.0261 48.0783 24.3407 47.7192 24.3175 47.0774C24.301 46.6218 24.3208 46.1662 24.3142 45.714C24.3109 45.5976 24.2944 45.4712 24.2414 45.3681C23.8474 44.6033 23.4302 43.8484 23.0428 43.0769C22.5826 42.1657 22.0197 42.0161 21.0661 42.1657C20.5032 42.2555 19.9437 42.4085 19.404 42.5914C18.7451 42.8175 18.0961 42.7776 17.4372 42.6446C15.679 42.2854 14.1262 41.4574 12.6097 40.533C11.9541 40.1339 11.2853 39.7581 10.6165 39.3824C10.4443 39.2859 10.2622 39.1662 10.3052 38.9766C10.335 38.8536 10.5204 38.7206 10.6628 38.6807C11.3581 38.4945 12.0535 38.2883 12.762 38.1785C14.0136 37.989 15.2751 37.9424 16.5399 38.0489C18.1987 38.1919 19.7748 38.6175 21.0926 39.6717C21.6455 40.1139 22.1025 40.7026 22.523 41.2812C23.1024 42.0826 23.609 42.9372 24.1454 43.7686C24.1685 43.8185 24.205 43.8584 24.2646 43.9315ZM17.6888 14.1557C17.7153 14.139 17.7451 14.1224 17.7716 14.1058C17.7749 14.0592 17.7882 14.016 17.7849 13.9728C17.6988 13.0982 18.5232 12.7124 19.1159 12.9286C19.5463 13.0849 19.9437 13.3243 20.3608 13.5172C20.49 13.577 20.6423 13.6635 20.7681 13.6402C21.2747 13.5504 21.6952 13.7134 22.0826 14.0193C22.1919 14.1058 22.3077 14.1823 22.4336 14.2421C22.7448 14.3951 22.9302 14.3652 23.1852 14.1191C23.3308 13.9794 23.4699 13.8264 23.6156 13.6868C24.1983 13.1348 24.8937 13.0815 25.4963 13.5471C26.1419 14.0426 26.2876 14.026 26.6684 13.311C26.973 12.739 27.4134 12.4032 28.0656 12.3666C28.2643 12.3566 28.3835 12.2602 28.4729 12.0872C28.6451 11.758 28.8073 11.4222 29.0159 11.1162C29.4728 10.4511 30.0953 10.092 30.9264 10.1785C31.1946 10.2084 31.3734 10.0754 31.5058 9.87251C31.8402 9.36372 32.1614 8.84495 32.4859 8.32951C32.4925 8.31953 32.4826 8.29625 32.4726 8.23972C32.0521 8.38604 31.6846 8.59887 31.4263 8.95802C31.029 9.51336 30.6151 9.53664 30.1681 9.02453C29.9662 8.79175 29.7245 8.59554 29.4828 8.36276C29.1119 8.80172 28.6947 8.8383 28.2179 8.68866C27.7908 8.55564 27.6319 8.69198 27.5822 9.15089C27.5458 9.4801 27.4994 9.81265 27.42 10.1352C27.2445 10.8701 26.8207 11.4089 25.8671 11.1328C25.5658 11.0464 25.4532 11.1827 25.3506 11.4188C25.2546 11.6383 25.1552 11.8644 25.0095 12.0507C24.6818 12.4763 24.1288 12.3799 23.9368 11.8777C23.8904 11.758 23.854 11.6317 23.8143 11.5086C23.7547 11.3257 23.6255 11.2592 23.4467 11.3124C23.0825 11.4255 22.7647 11.3058 22.4799 11.0996C22.2183 10.91 21.9766 10.6906 21.7382 10.4744C21.1754 9.96562 20.8575 9.92572 20.2946 10.4345C19.4768 11.1728 18.7252 10.9233 18.2914 10.0188C17.8676 9.13426 17.1856 8.6022 16.2386 8.33616C15.3744 8.09341 14.6394 7.61787 14.1758 6.79982C14.1295 6.72001 14.0699 6.64352 14.007 6.55373C13.3746 7.73426 13.6924 10.0687 14.5963 10.9666C14.5632 10.8602 14.5268 10.7737 14.5069 10.6839C14.4242 10.3314 14.3314 9.98225 14.2718 9.62643C14.2321 9.387 14.305 9.34044 14.5434 9.387C14.7288 11.2426 15.1956 12.2136 15.7386 12.5728C15.7121 12.5162 15.6956 12.4763 15.679 12.4331C15.381 11.7447 15.2022 11.0298 15.1989 10.2749C15.1989 10.1419 15.2585 10.0055 15.2916 9.86918C15.3314 9.86918 15.3744 9.86918 15.4142 9.87251C15.5466 11.2193 15.689 12.5628 16.9041 13.4407C16.8644 13.2811 16.7915 13.1381 16.7319 12.9851C16.573 12.5694 16.4174 12.1538 16.2783 11.7347C16.2585 11.6749 16.3313 11.5818 16.3644 11.502C16.424 11.5552 16.5134 11.5951 16.5432 11.6616C16.8213 12.3367 17.0763 13.0217 17.361 13.6934C17.4306 13.873 17.5763 14.006 17.6888 14.1557ZM33.5355 11.9709C34.0851 11.329 34.4824 10.6207 34.4328 9.73949C34.3798 8.8516 34.3069 7.96703 34.2341 7.08247C34.2209 6.91952 34.1546 6.76324 34.1017 6.55041C34.0387 6.63687 34.0156 6.65682 34.009 6.68342C33.5686 7.96039 32.6779 8.98462 32.0554 10.1651C31.8005 10.6473 31.3436 10.8768 30.8006 10.8203C30.2476 10.7637 29.8437 10.9832 29.5357 11.4055C29.3636 11.6416 29.2311 11.9143 29.102 12.1804C28.8603 12.6825 28.5292 13.0283 27.92 13.025C27.612 13.025 27.3902 13.2112 27.2511 13.4939C27.1683 13.6602 27.0823 13.8231 26.9763 13.9761C26.6022 14.5215 26.1883 14.6112 25.6188 14.2887C25.3936 14.1623 25.1751 14.0226 24.9466 13.9029C24.6851 13.7666 24.4202 13.7899 24.195 13.9794C24.003 14.139 23.8441 14.3386 23.652 14.4915C23.4666 14.6378 23.2679 14.7842 23.0527 14.8673C22.5726 15.0502 22.1852 14.8141 21.7978 14.5481C21.5959 14.4084 21.3343 14.2588 21.1058 14.2721C20.639 14.2987 20.2715 14.1357 19.8874 13.9096C19.5596 13.7167 19.1821 13.6036 18.8179 13.4839C18.5994 13.4141 18.4305 13.5305 18.3808 13.7533C18.3444 13.9229 18.308 14.1124 18.3544 14.2721C18.457 14.6245 18.5762 14.9804 18.7484 15.3063C19.2616 16.2706 20.1754 16.7794 21.0827 17.2882C21.1058 17.3015 21.1389 17.2949 21.2283 17.3048C21.0131 17.0953 20.8211 16.9457 20.6754 16.7561C20.4767 16.4968 20.3012 16.2108 20.1423 15.9248C20.1092 15.8649 20.1854 15.7452 20.2119 15.6521C20.2748 15.7153 20.3476 15.7685 20.394 15.8417C20.5231 16.0512 20.6125 16.2972 20.7747 16.4768C21.0429 16.7694 21.3475 17.0288 21.6522 17.2849C21.7581 17.3747 21.9137 17.4079 22.0462 17.4645C22.0594 17.4412 22.0693 17.4179 22.0826 17.3913C22.0395 17.3447 21.9998 17.2982 21.9535 17.255C21.4866 16.8526 21.2052 16.3405 21.0793 15.7452C21.0628 15.6654 21.1323 15.5656 21.1621 15.4759C21.235 15.549 21.3409 15.6089 21.3773 15.6987C21.48 15.9414 21.5098 16.2307 21.6555 16.4402C21.9303 16.8326 22.2515 17.1984 22.5826 17.5443C22.768 17.7371 23.0295 17.8037 23.301 17.7538C22.9766 17.2583 22.6587 16.7827 22.3508 16.3006C22.3144 16.244 22.3442 16.1443 22.3442 16.0645C22.4336 16.0877 22.5296 16.0977 22.609 16.1443C22.6554 16.1709 22.6653 16.2573 22.7051 16.3105C23.0395 16.7728 23.3673 17.2417 23.7215 17.6906C23.9699 18.0032 24.3109 18.1029 24.6884 17.95C24.9466 17.8469 25.2976 17.7737 25.4201 17.5742C25.7347 17.0687 25.9466 16.5001 26.1982 15.9547C26.2379 15.8683 26.2777 15.7851 26.3174 15.702C26.3538 15.7053 26.3902 15.7086 26.4267 15.712C26.4366 15.8649 26.4929 16.0345 26.4432 16.1642C26.2975 16.5633 26.1121 16.9457 25.9399 17.3314C25.9035 17.4146 25.8572 17.4944 25.8141 17.5742C25.8406 17.5975 25.8671 17.6208 25.8969 17.644C26.1353 17.4478 26.4498 17.2982 26.5988 17.0488C26.8505 16.6231 27.0028 16.1376 27.1783 15.6687C27.2213 15.549 27.1981 15.3661 27.3769 15.4127C27.5822 15.4659 27.4696 15.6388 27.4299 15.7618C27.3736 15.9281 27.2942 16.0877 27.2279 16.2507C27.1452 16.4502 27.0657 16.6497 26.9862 16.8493C27.0094 16.8626 27.0326 16.8792 27.0558 16.8925C27.2478 16.6497 27.4928 16.4302 27.6253 16.1542C27.9299 15.5324 28.2544 14.9105 28.2113 14.1756C28.208 14.0958 28.2974 14.0127 28.3438 13.9295C28.3901 14.0093 28.4663 14.0825 28.4762 14.1656C28.5192 14.6977 28.3868 15.1965 28.1617 15.6721C28.1219 15.7552 28.0855 15.8416 28.0491 15.9281C28.708 15.5856 29.0192 15.007 29.1748 14.3053C29.4198 14.5215 29.4198 14.5215 28.9563 15.5158C29.2841 15.6355 29.5225 15.5357 29.6781 15.2264C29.8337 14.9205 29.986 14.6146 30.1549 14.3153C30.2046 14.2288 30.3304 14.1058 30.3801 14.1224C30.5754 14.1856 30.4595 14.3352 30.4098 14.4416C30.3105 14.6611 30.1979 14.874 30.0787 15.0835C29.9827 15.2497 29.8668 15.406 29.7278 15.6188C30.135 15.4892 30.433 15.3063 30.592 14.9937C30.827 14.5248 31.0091 14.0293 31.2244 13.5504C31.2641 13.464 31.3601 13.4008 31.4296 13.3276C31.4462 13.4207 31.5025 13.5272 31.476 13.607C31.3535 13.9994 31.2078 14.3851 31.0721 14.7709C31.5919 14.2588 32.1415 13.7533 32.3435 13.025C32.5024 12.4497 32.5786 11.8478 32.7011 11.2592C32.7243 11.1428 32.7971 11.0397 32.8468 10.93C32.8931 11.0464 32.9825 11.1628 32.9792 11.2758C32.9726 11.5618 32.9395 11.8478 32.8865 12.1305C32.8302 12.4264 32.7408 12.7124 32.6647 13.0051C32.7971 12.872 32.8898 12.7257 32.9726 12.5728C33.4097 11.7381 33.5918 10.8535 33.5355 9.91241C33.5255 9.76942 33.6017 9.61977 33.6348 9.47345C33.6944 9.6231 33.7871 9.76942 33.807 9.92572C33.8831 10.6207 33.7937 11.3024 33.5355 11.9709ZM30.3668 8.30624C30.4065 8.29293 30.4463 8.27963 30.486 8.26633C30.4761 8.12999 30.5191 7.92048 30.443 7.86395C30.1218 7.62119 30.0357 7.31526 30.0754 6.93616C30.0953 6.74329 29.9463 6.62024 29.7808 6.64352C29.2841 6.71003 28.7941 6.79316 28.4894 7.282C28.1683 7.80076 27.6915 8.05017 27.0823 7.9238C26.632 7.83069 26.3373 7.98034 26.0426 8.31621C25.8671 8.51906 25.5956 8.66538 25.3373 8.76515C25.0393 8.87821 24.7678 8.71194 24.503 8.56562C24.0295 8.30291 23.6951 8.43592 23.5361 8.94804C23.4401 9.25398 23.2282 9.42358 22.9435 9.52334C22.321 9.7395 21.5892 9.43022 21.1853 8.74518C21.0595 8.53236 20.9138 8.43592 20.6787 8.45587C20.533 8.46585 20.384 8.49246 20.2383 8.48248C20.0033 8.46918 19.7384 8.49246 19.543 8.38937C19.1291 8.17322 18.7384 7.90386 18.3577 7.62785C17.9339 7.32191 17.5233 7.41502 17.3081 7.88723C17.2452 8.02025 17.2485 8.10671 17.3908 8.17987C18.0166 8.50243 18.4272 9.03117 18.7384 9.6497C19.1159 10.3979 19.3576 10.4445 19.9834 9.90244C20.6456 9.32714 21.3806 9.34709 22.0164 9.95232C22.225 10.1485 22.4336 10.348 22.6587 10.5243C22.8541 10.6773 23.0627 10.767 23.3441 10.6939C23.7712 10.5808 24.2877 10.9167 24.3904 11.3124C24.4202 11.4288 24.4831 11.5385 24.5294 11.6516C24.599 11.5419 24.6851 11.4388 24.7347 11.3224C25.0095 10.6507 25.4234 10.3447 26.1419 10.5941C26.4068 10.6872 26.5823 10.5709 26.6916 10.3547C26.7909 10.1585 26.867 9.94566 26.9167 9.73284C26.973 9.47013 26.973 9.19744 27.026 8.93474C27.1617 8.25967 27.8074 7.90053 28.4497 8.13331C28.6351 8.19981 28.7709 8.17987 28.9265 8.04685C29.2642 7.75754 29.6582 7.77416 30.0092 8.06015C30.1251 8.14328 30.2476 8.2231 30.3668 8.30624ZM15.136 32.3125C14.7354 32.093 14.3844 31.9068 14.0434 31.7073C13.9904 31.674 13.9705 31.5809 13.9341 31.5144C14.0136 31.4878 14.0931 31.4512 14.1758 31.4446C14.2222 31.4412 14.2718 31.4978 14.3215 31.521C15.0301 31.8336 15.7386 32.1495 16.4505 32.4522C16.5962 32.5153 16.7584 32.532 16.924 32.5719C16.924 32.2892 16.8114 32.1928 16.5697 32.1362C15.7486 31.9467 14.944 31.7039 14.2122 31.2716C13.9374 31.1087 13.6626 30.9424 13.3448 30.7529C13.3911 30.9125 13.4176 31.0355 13.4606 31.1552C14.146 33.1039 15.3446 34.637 17.0664 35.7809C18.755 36.9016 20.4602 36.9581 22.1985 35.9605C22.0727 35.8175 21.9005 35.7576 21.6786 35.8142C21.4568 35.8707 21.225 35.904 21.0032 35.9572C20.4734 36.0869 19.947 36.2232 19.4205 36.3496C19.255 36.3895 19.0927 36.3895 19 36.1766C19.9006 35.9372 20.7847 35.6978 21.7217 35.4484C21.3641 35.1823 21.0429 34.9429 20.7118 34.6968C20.6688 34.7201 20.6224 34.7467 20.5761 34.7766C19.7582 35.2488 18.8874 35.4683 17.9438 35.3253C17.861 35.312 17.7253 35.2123 17.7253 35.1557C17.7286 34.9961 17.8544 35.0028 17.9901 35.0227C18.7153 35.1192 19.4073 34.9895 20.0595 34.6636C20.1489 34.617 20.2284 34.5472 20.341 34.4641C19.9437 34.2545 19.596 34.0617 19.2417 33.8887C19.1788 33.8588 19.0596 33.8688 19.0066 33.9087C18.4603 34.3177 17.8345 34.4275 17.1756 34.4374C16.9869 34.4408 16.9372 34.341 16.9472 34.1481C17.5696 34.1149 18.1954 34.1049 18.7649 33.6593C18.3047 33.4963 17.9007 33.3467 17.4902 33.2137C17.414 33.1904 17.3147 33.2436 17.222 33.2536C16.7386 33.2968 16.2552 33.3434 15.7717 33.3766C15.6857 33.3833 15.5963 33.3201 15.4936 33.2835C15.6559 33.0973 15.6559 33.1039 16.1724 33.1039C16.3975 33.1039 16.6227 33.074 16.8478 33.0574C16.8478 33.0308 16.8478 33.0009 16.8478 32.9743C16.1956 32.7947 15.5863 32.3258 14.8513 32.7049C14.8281 32.7182 14.7917 32.7248 14.7685 32.7149C14.699 32.6849 14.6328 32.6484 14.5665 32.6151C14.6129 32.5453 14.646 32.4422 14.7122 32.4156C14.8215 32.3524 14.9639 32.3458 15.136 32.3125ZM18.8941 5.81548C19.1689 5.43638 19.49 5.29007 19.8907 5.32333C19.9437 5.32665 20.0397 5.24018 20.0529 5.18033C20.0827 5.05063 20.0695 4.91098 20.086 4.77463C20.096 4.70147 20.1291 4.63163 20.1489 4.5618C20.2185 4.60836 20.3277 4.64161 20.3509 4.70479C20.394 4.82783 20.384 4.9675 20.3973 5.10052C20.4204 5.10717 20.4403 5.1105 20.4635 5.11715C20.5165 4.8877 20.5661 4.65491 20.6257 4.40218C20.6754 4.40883 20.7913 4.38888 20.8111 4.42546C20.9568 4.68484 21.129 4.5485 21.2946 4.47202C21.4502 4.39886 21.6124 4.33234 21.7614 4.24588C21.9435 4.14279 22.119 4.11619 22.2647 4.28247C22.417 4.45206 22.5461 4.4055 22.6918 4.27914C23.0031 4.00978 23.0395 3.63068 22.9832 3.28151C22.8739 2.62973 22.7349 2.44018 22.1223 2.7561C21.8641 2.88911 21.5926 2.88911 21.3608 2.6397C21.0529 2.30716 21.0462 2.31714 20.629 2.53662C20.3476 2.68626 20.0496 2.82261 19.7351 2.64303C19.4503 2.48341 19.2086 2.54659 19.0166 2.77272C18.851 2.96559 18.702 3.18507 18.5762 3.40788C18.2153 4.04303 17.8113 4.61501 17.0299 4.77463C16.6856 4.84447 16.5167 5.1238 16.3876 5.41644C16.3081 5.59269 16.2717 5.78555 16.2088 5.97178C16.0664 6.39078 15.9274 6.80979 15.7717 7.22214C15.679 7.4649 15.7419 7.58129 16.0201 7.60456C16.0135 7.57796 16.0002 7.55136 16.0002 7.52476C16.0002 7.43497 16.0068 7.34186 16.0101 7.25207C16.1028 7.28865 16.2121 7.30861 16.285 7.37179C16.381 7.45493 16.4406 7.58462 16.5399 7.6611C16.5896 7.69768 16.7353 7.69103 16.7717 7.6478C16.9604 7.42832 17.126 7.19222 17.3081 6.94614C17.3114 6.94946 17.2915 6.92951 17.2849 6.9029C17.2551 6.78319 17.2319 6.66347 17.2054 6.54375C17.3246 6.59696 17.4471 6.65017 17.5663 6.70671C17.6855 6.76324 17.8014 6.82641 17.9173 6.88627C17.9339 6.86299 17.9504 6.83639 17.9637 6.81311C17.9041 6.72332 17.8378 6.63355 17.7849 6.54043C17.6359 6.2744 17.4836 6.01169 17.3577 5.73568C17.2915 5.58603 17.318 5.42641 17.5597 5.32664C17.7054 5.75562 17.7915 6.21454 18.1491 6.47392C18.6259 6.07487 18.6358 5.60598 18.3742 5.10052C18.3643 5.08389 18.3643 5.06394 18.3577 5.04731C18.2782 4.87439 18.3676 4.79458 18.553 4.72142C18.659 5.06727 18.7649 5.40313 18.8941 5.81548ZM24.4533 20.3742C24.4036 22.2231 24.354 24.0954 24.3043 25.9709C24.2646 27.4374 24.1851 28.9039 24.1983 30.3671C24.2116 31.8237 24.3076 33.2802 24.3838 34.7334C24.4434 35.8641 24.5361 36.9914 24.5957 38.122C24.6784 39.685 24.7612 41.2512 24.8076 42.8175C24.8473 44.171 24.8374 45.5277 24.844 46.8845C24.844 47.094 24.9102 47.2669 25.142 47.2769C25.3771 47.2869 25.4433 47.104 25.4665 46.9011C25.4731 46.8546 25.4698 46.808 25.4698 46.7615C25.4665 45.98 25.483 45.2018 25.4499 44.4204C25.3804 42.6878 25.2976 40.952 25.1983 39.2194C25.1122 37.7296 24.9831 36.2398 24.9003 34.75C24.7976 32.9909 24.6818 31.2284 24.652 29.4693C24.6321 28.2189 24.7513 26.9685 24.7976 25.7148C24.8473 24.4079 24.8605 23.0977 24.94 21.7908C24.9764 21.2089 24.7943 20.7533 24.4533 20.3742ZM31.6912 7.95041C31.4495 7.67108 31.4263 7.37844 31.5654 7.0592C31.5985 6.98604 31.5919 6.87962 31.5654 6.80314C31.3734 6.27107 31.1581 5.74565 30.9793 5.20693C30.9164 5.01739 30.827 4.93757 30.6449 4.89434C30.0291 4.74802 29.8337 4.52855 29.7344 3.91002C29.6748 3.5276 29.5258 3.39125 29.1517 3.47106C28.7874 3.54755 28.5093 3.4511 28.2941 3.16512C28.1352 2.95561 27.9398 2.86583 27.6882 2.8359C27.367 2.796 27.0922 2.64636 26.8902 2.38032C26.6783 2.10098 26.4035 2.03448 26.0757 2.14089C25.9896 2.17082 25.8969 2.1941 25.8108 2.21738C25.2811 2.37035 24.7711 2.36037 24.291 2.05111C24.205 1.9979 24.1089 1.96131 24.0229 1.90811C23.7977 1.76844 23.6222 1.86155 23.45 2.01119C23.2746 2.16084 23.2845 2.32379 23.4004 2.50336C23.4335 2.55324 23.4434 2.6264 23.45 2.68958C23.4865 3.04873 23.5196 3.40787 23.556 3.8302C23.6222 3.73044 23.6984 3.64731 23.7315 3.54755C23.7679 3.43116 23.7679 3.30479 23.7911 3.10526C23.9003 3.23828 24.0394 3.33472 24.0295 3.40788C23.9732 3.77367 24.2149 3.73709 24.4367 3.75704C24.4798 3.49433 24.5228 3.23828 24.5659 2.98555C24.6089 2.98888 24.652 2.99552 24.6917 2.99885C24.6917 3.13186 24.6818 3.26821 24.695 3.40123C24.7049 3.5276 24.7182 3.66394 24.7678 3.777C24.7976 3.84684 24.9003 3.88341 24.9731 3.93329C25.0162 3.87011 25.0824 3.81025 25.0956 3.74042C25.1354 3.54089 25.1486 3.33471 25.1883 3.13519C25.2082 3.02878 25.2645 2.92902 25.3042 2.82926C25.3373 2.83591 25.3704 2.83923 25.4036 2.84588C25.4102 2.96559 25.4334 3.08863 25.4234 3.20835C25.4102 3.4378 25.3704 3.66726 25.3605 3.90004C25.3506 4.13282 25.493 4.30907 25.6916 4.36227C25.834 4.39885 26.0095 4.3124 26.1684 4.27582C26.3406 4.23591 26.5558 4.10289 26.675 4.16607C27.0326 4.34565 27.3538 4.26916 27.7114 4.196C28.2842 4.07629 28.6815 4.30241 28.9033 4.84778C28.9861 5.05396 29.006 5.28674 29.0523 5.49292C29.1947 5.32997 29.3338 5.1371 29.5059 4.97748C29.5953 4.89434 29.7344 4.87106 29.8536 4.82118C29.8072 4.9409 29.7808 5.07059 29.7145 5.17368C29.5953 5.3599 29.4364 5.52285 29.3205 5.70908C29.2477 5.82547 29.2212 5.97178 29.1517 6.16798C29.2973 6.12475 29.3669 6.11145 29.4298 6.08152C29.7013 5.95183 29.9529 5.99839 30.188 6.16466C30.5357 6.41407 30.7244 6.74329 30.688 7.18557C30.6814 7.2687 30.7178 7.38509 30.7807 7.43829C31.0125 7.63449 31.0853 7.86727 31.0191 8.15659C30.9959 8.25302 31.0025 8.35611 30.9893 8.51906C31.2575 8.3029 31.4628 8.13664 31.6912 7.95041ZM14.9009 15.3794C14.891 15.396 14.8778 15.4127 14.8678 15.4293C14.9903 15.5756 15.0996 15.7386 15.2387 15.8649C16.126 16.683 16.8379 17.6374 17.4306 18.6816C17.9868 19.6626 18.8146 20.0483 19.9039 19.9386C20.0331 19.9253 20.1589 19.9053 20.288 19.8887C21.3078 19.739 22.2978 19.4863 23.2315 19.044C23.4964 18.9177 23.7348 18.7381 23.9864 18.5851C23.9732 18.5619 23.9633 18.5352 23.95 18.512C23.6785 18.4787 23.4037 18.4654 23.1388 18.4089C21.6356 18.083 20.1456 17.674 18.6126 17.501C17.957 17.4279 17.4604 17.0887 17.0796 16.5566C16.977 16.4136 16.8743 16.2673 16.7518 16.1443C16.6227 16.0146 16.4902 15.855 16.328 15.7984C15.8578 15.6355 15.3777 15.5158 14.9009 15.3794ZM28.5259 31.2284C29.4066 31.3182 30.188 31.1852 30.9495 30.8959C31.0389 30.8626 31.1581 30.9058 31.2641 30.9125C31.1979 31.0089 31.1515 31.1552 31.0621 31.1885C30.2708 31.5011 29.4463 31.6873 28.5954 31.521C28.2842 31.4612 28.2047 31.6042 28.112 31.8469C28.3835 31.9068 28.6418 31.9733 28.9 32.0232C30.0456 32.246 31.1052 32.0465 31.9793 31.2484C32.4097 30.856 32.7739 30.3704 33.105 29.8849C34.2142 28.2621 35.3963 26.7125 37.022 25.5619C37.0419 25.5452 37.0518 25.5153 37.0915 25.4488C36.4657 25.6118 35.8896 25.7614 35.2837 25.921C35.4095 26.1704 35.2738 26.2403 35.0983 26.3001C34.9261 26.36 34.7539 26.4365 34.5917 26.5196C34.0719 26.789 33.5586 27.0683 33.0421 27.3443C33.0487 27.3609 33.0521 27.3776 33.0587 27.3909C33.3633 27.4108 33.6646 27.4308 33.9692 27.4474C33.9725 27.4906 33.9758 27.5339 33.9791 27.5804C33.8765 27.6203 33.7772 27.6802 33.6712 27.6935C33.3865 27.7201 33.0984 27.7168 32.8137 27.7467C32.6812 27.76 32.5355 27.7932 32.4263 27.8664C32.0587 28.1125 31.7012 28.3818 31.3436 28.6446C31.3005 28.6778 31.2707 28.7277 31.2343 28.7676C31.2442 28.7875 31.2542 28.8108 31.2641 28.8308C31.8601 28.7111 32.4528 28.5847 33.0521 28.4783C33.1613 28.4583 33.2838 28.5115 33.3997 28.5315C33.3169 28.608 33.2408 28.7377 33.1448 28.7576C32.4958 28.8973 31.8468 29.0536 31.1879 29.1201C30.88 29.1533 30.6284 29.2032 30.3966 29.4061C30.1582 29.6156 29.9099 29.8084 29.6119 30.0545C30.6284 30.2008 31.519 30.0479 32.3865 29.6854C32.423 30.008 32.4064 30.0379 32.1349 30.1343C31.3171 30.4203 30.4794 30.4935 29.6218 30.3605C29.5357 30.3472 29.4165 30.3405 29.3636 30.3871C29.0887 30.6431 28.8305 30.9191 28.5259 31.2284ZM24.9566 18.4887C25.1254 18.5785 25.2148 18.6483 25.3175 18.6749C25.9168 18.8179 26.5128 19.0008 27.122 19.0806C28.9431 19.3167 30.6814 18.4987 31.4594 16.826C31.966 15.7419 32.4792 14.6645 32.9891 13.5837C33.0289 13.4972 33.0554 13.4008 33.0885 13.311C32.7938 13.6169 32.5455 13.9495 32.2872 14.2721C31.817 14.8573 31.3502 15.4459 30.7012 15.8516C30.2741 16.1177 29.8271 16.2839 29.3106 16.1642C28.9331 16.0744 28.6285 16.2174 28.3636 16.4868C27.4266 17.4345 26.3737 18.1927 24.9566 18.4887ZM15.2122 39.0166C15.0201 38.6907 14.7817 38.5709 14.4374 38.6142C13.8414 38.684 13.2421 38.7106 12.6461 38.7904C12.2289 38.847 11.8184 38.9633 11.4045 39.0531C11.3979 39.0864 11.3946 39.123 11.3879 39.1562C12.56 39.818 13.7355 40.4797 14.9109 41.1349C14.9705 41.1681 15.0963 41.1515 15.1559 41.1082C15.6691 40.7092 16.2618 40.4764 16.871 40.2902C17.222 40.1838 17.5796 40.0973 17.9901 39.9843C17.8246 39.9277 17.7186 39.8778 17.6061 39.8512C17.2187 39.7614 16.8346 39.6683 16.4439 39.5985C16.3148 39.5752 16.1691 39.5852 16.0433 39.6251C15.5532 39.7847 15.0665 39.9643 14.5765 40.1306C14.4904 40.1605 14.391 40.1605 14.2983 40.1738C14.2851 40.1405 14.2718 40.1106 14.2586 40.0774C14.5334 39.6318 15.1228 39.7249 15.5665 39.4023C14.9572 39.3491 14.4275 39.3025 13.8944 39.2593C13.709 39.2427 13.5898 39.1862 13.6891 38.9434C14.1924 38.96 14.6857 38.9866 15.2122 39.0166ZM13.3348 12.1937C13.2984 12.2103 13.2653 12.2269 13.2289 12.2435C13.3878 12.7224 13.5335 13.2046 13.7023 13.6768C13.901 14.2355 14.2685 14.6245 14.8579 14.7742C15.1062 14.8374 15.3546 14.9338 15.6062 14.9671C16.4306 15.0801 17.0796 15.4293 17.5233 16.1709C17.669 16.417 17.9339 16.6531 18.1954 16.7595C18.6226 16.9324 19.096 16.9956 19.5496 17.1086C19.5695 17.0787 19.5927 17.0488 19.6126 17.0188C19.543 16.9756 19.4669 16.939 19.404 16.8892C18.8576 16.4502 18.3974 15.9414 18.0497 15.3229C17.9504 15.15 17.808 14.997 17.669 14.8473C17.0366 14.1723 16.2187 13.8763 15.3314 13.7633C14.5963 13.6702 14.0268 13.3376 13.656 12.6825C13.5633 12.5162 13.4441 12.3566 13.3348 12.1937ZM24.205 6.34091C24.1454 6.34423 24.1255 6.3409 24.1123 6.34755C24.0791 6.36418 24.0493 6.38414 24.0195 6.40409C23.5593 6.71336 23.066 6.6934 22.6124 6.44399C22.364 6.30765 22.2117 6.33092 21.9965 6.46062C21.6422 6.67677 21.278 6.83972 20.8409 6.8497C20.4867 6.85967 20.1821 7.05587 20.0397 7.40172C19.9834 7.53806 20.0099 7.70433 19.9966 7.86063C20.1258 7.86728 20.2615 7.8972 20.3873 7.87725C20.9866 7.78081 21.3939 7.96371 21.7118 8.47915C21.8409 8.69198 21.9965 8.87821 22.268 8.89483C22.2978 8.56561 22.3177 8.25967 22.3607 7.95706C22.3706 7.89388 22.4468 7.84067 22.4932 7.78081C22.5528 7.84067 22.6388 7.89055 22.6653 7.96039C22.6951 8.0402 22.6653 8.14329 22.6653 8.23308C22.6653 8.4592 22.6653 8.68533 22.6653 8.91146C22.6951 8.92808 22.7216 8.94139 22.7514 8.95802C22.8408 8.83498 22.9468 8.72191 23.0196 8.59222C23.2779 8.14661 23.5659 7.76086 24.1487 7.87725C24.195 7.68438 24.3275 7.45825 24.2613 7.34851C24.0659 7.01597 24.195 6.68675 24.205 6.34091ZM32.3567 38.7738C32.5322 38.6973 32.668 38.6308 32.8104 38.5776C33.4295 38.3348 34.0454 38.0921 34.6678 37.856C34.8268 37.7961 34.9956 37.7728 35.0486 38.0356C34.7771 38.1353 34.5089 38.2351 34.1844 38.3548C34.4195 38.3847 34.5884 38.4047 34.7572 38.4246C34.7606 38.4712 34.7639 38.5177 34.7639 38.5676C34.6314 38.5942 34.4924 38.6541 34.3632 38.6441C34.0023 38.6109 33.6447 38.561 33.307 38.7372C32.8468 38.9733 32.3898 39.2161 31.9362 39.4588C31.8799 39.4888 31.8369 39.542 31.7574 39.6151C32.5388 39.6151 33.2673 39.6218 33.9924 39.6085C34.1182 39.6052 34.2639 39.5519 34.3632 39.4788C35.2969 38.7804 36.2571 38.122 37.3101 37.6066C37.4293 37.5467 37.5418 37.4769 37.6974 37.3871C37.2372 37.3871 36.8333 37.3605 36.4359 37.3904C35.1811 37.4869 33.9394 37.6698 32.7342 38.0389C32.6614 38.0622 32.5653 38.1054 32.5388 38.1652C32.466 38.3448 32.423 38.541 32.3567 38.7738ZM22.2349 5.5694C22.3905 5.64922 22.5163 5.72238 22.6488 5.77891C22.8375 5.85539 22.9037 5.74232 22.9103 5.57605C22.9137 5.50622 22.8574 5.42641 22.8739 5.36323C22.8938 5.28342 22.9633 5.21358 23.0097 5.14042C23.0693 5.19695 23.1653 5.24352 23.1852 5.31335C23.2216 5.43307 23.1951 5.57273 23.2282 5.69244C23.2547 5.78888 23.3308 5.87202 23.3871 5.95848C23.4633 5.90195 23.5527 5.8554 23.6057 5.78224C23.6454 5.72238 23.652 5.62927 23.6487 5.55278C23.6388 5.39316 23.6123 5.23686 23.5924 5.05064C23.8705 5.1637 23.8076 5.34993 23.7778 5.53283C23.7679 5.58604 23.8275 5.64922 23.854 5.70908C23.8937 5.66585 23.9467 5.62926 23.9765 5.57938C24.0229 5.49292 24.0361 5.37653 24.1023 5.31335C24.2281 5.18698 24.2215 5.08722 24.1255 4.95088C24.0891 4.89767 24.1056 4.80789 24.0957 4.7314C24.1652 4.7447 24.2315 4.75801 24.301 4.77463C24.493 4.82784 24.5626 4.93093 24.493 5.1371C24.4732 5.19696 24.546 5.29007 24.5626 5.3333C24.8175 5.25682 25.0294 5.19031 25.2446 5.12713C25.1817 4.83449 25.0725 4.60503 24.7579 4.50195C24.2281 4.33235 23.7149 4.29909 23.2183 4.59506C23.1554 4.63164 23.0991 4.69814 23.066 4.76465C22.9567 4.9808 22.5594 5.11382 22.3475 4.99743C22.0329 4.82118 21.8111 4.85444 21.533 5.09387C21.4899 5.13045 21.4038 5.13377 21.3376 5.13377C21.1754 5.13045 20.735 5.39648 20.7515 5.53615C20.7813 5.75895 20.6257 5.76228 20.5065 5.79553C20.3046 5.85206 20.096 5.88532 19.8377 5.9352C19.9304 6.09815 19.9933 6.25444 20.1026 6.36751C20.1589 6.42736 20.3012 6.43734 20.3973 6.42071C20.437 6.41406 20.4602 6.28105 20.48 6.20456C20.4933 6.14803 20.4867 6.08817 20.49 6.01834C20.6026 6.0782 20.6886 6.12142 20.7946 6.17795C20.8045 6.05824 20.8145 5.96514 20.8277 5.8554C20.9668 5.95516 20.8972 6.27107 21.1886 6.14803C21.3409 6.08152 21.5032 6.03829 21.6555 5.98508C21.6025 5.70575 21.3244 5.48627 21.6323 5.19031C21.6488 5.3067 21.6522 5.36987 21.6654 5.42973C21.6985 5.58603 21.7316 5.75896 21.9501 5.72903C22.1654 5.6991 22.0793 5.53615 22.0892 5.40646C22.0958 5.3067 22.1654 5.21359 22.2183 5.1238C22.225 5.11382 22.3309 5.14042 22.3309 5.1504C22.3309 5.25349 22.3243 5.35325 22.311 5.45634C22.3011 5.47962 22.2779 5.49957 22.2349 5.5694ZM28.5987 6.35421C28.5755 6.21454 28.549 6.06822 28.5226 5.92523C28.4828 5.68912 28.463 5.44969 28.4034 5.21691C28.3206 4.89102 28.1418 4.7713 27.8107 4.81785C27.6484 4.84113 27.4895 4.901 27.3372 4.96086C27.1253 5.04399 26.9597 5.04731 26.9068 4.7713C26.9035 4.758 26.8869 4.75135 26.8803 4.74469C26.8571 4.81453 26.8339 4.88769 26.7942 4.99743C26.6849 4.89434 26.6088 4.82451 26.5161 4.73472C26.3075 5.09054 25.9631 5.01738 25.6353 5.01738C25.6254 5.17368 25.6155 5.31002 25.6022 5.50955C25.7347 5.41311 25.8207 5.35325 25.9333 5.27012C25.9929 5.47962 26.0459 5.65587 26.1055 5.86537C26.2446 5.7124 26.3505 5.59269 26.4598 5.46965C26.4863 5.4896 26.5161 5.51288 26.5426 5.53283C26.4565 5.66252 26.3638 5.78888 26.2876 5.9219C26.2512 5.98841 26.2446 6.07154 26.2247 6.14803C26.3042 6.13472 26.4068 6.1447 26.4565 6.09815C26.5657 6.00171 26.675 5.88865 26.7346 5.75896C26.8207 5.57273 26.8604 5.36988 26.9299 5.13045C27.0094 5.19363 27.1385 5.26346 27.1319 5.29672C27.0624 5.57605 26.9697 5.85206 26.9002 6.07487C27.1485 6.28104 27.4067 6.4972 27.6716 6.72C27.7875 6.54043 27.9332 6.32095 28.0756 6.09815C28.1021 6.11477 28.1285 6.12808 28.1517 6.14471C28.1352 6.50385 27.8537 6.75326 27.7047 7.0592C27.7279 7.07915 27.7511 7.09911 27.7743 7.12238C28.0524 6.86633 28.3173 6.61692 28.5987 6.35421ZM15.3612 41.361C15.8645 41.5372 16.3015 41.6969 16.7452 41.8398C16.8147 41.8631 16.9372 41.8232 16.9968 41.77C17.6491 41.1748 18.4537 40.9653 19.2914 40.8256C19.4106 40.8056 19.5265 40.7724 19.6424 40.7458C19.6457 40.7192 19.649 40.6926 19.6523 40.6626C19.3013 40.503 18.9537 40.3434 18.5994 40.1904C18.5563 40.1705 18.4901 40.1904 18.4404 40.2037C17.9868 40.3234 17.5299 40.4332 17.0763 40.5662C16.5002 40.7358 15.934 40.9287 15.3612 41.361ZM25.3009 8.19982C25.4764 8.0269 25.6022 7.8839 25.7446 7.77084C26.0591 7.5181 26.3472 7.18889 26.8339 7.37511C26.8869 7.39506 27.0525 7.27202 27.0756 7.18889C27.1485 6.93948 26.7512 6.57368 26.5094 6.70005C26.2677 6.82641 26.1154 6.6934 25.9201 6.67012C25.6883 6.64352 25.5824 6.50052 25.5824 6.30432C25.5824 5.98508 25.3804 5.89197 25.1354 5.83212C24.8804 5.77226 24.6486 5.85872 24.546 6.08152C24.45 6.29435 24.4301 6.55041 24.4036 6.78984C24.3838 6.97607 24.4003 7.16893 24.4003 7.36513C24.4533 7.47487 24.5559 7.59792 24.5758 7.73426C24.6188 8.0269 24.8009 8.07345 25.036 8.09007C25.0989 7.80409 24.8274 7.50148 25.0725 7.25207C25.1089 7.25207 25.1453 7.24874 25.1784 7.24874C25.2148 7.53473 25.2513 7.82072 25.3009 8.19982ZM32.4826 40.9919C32.3865 40.9686 32.3336 40.9486 32.2773 40.942C31.4594 40.8522 30.6516 40.9353 29.8536 41.0983C29.347 41.2047 29.0258 41.6004 28.6418 42.0061C28.7643 42.0061 28.8106 42.0061 28.8537 42.0061C29.6086 41.9995 30.3635 41.9961 31.1184 41.9895C31.1714 41.9895 31.2343 41.9762 31.274 41.9463C31.668 41.637 32.0554 41.3277 32.4826 40.9919ZM21.1919 41.5239C21.1025 41.4774 20.9767 41.4242 20.8641 41.3477C20.4337 41.0584 19.9933 40.922 19.4669 41.1116C18.8974 41.3144 18.3047 41.4508 17.7286 41.6403C17.573 41.6935 17.4438 41.8332 17.3048 41.933C17.3147 41.9762 17.3279 42.0227 17.3379 42.066C17.8113 42.0926 18.2981 42.2023 18.7517 42.1225C19.5761 41.9828 20.384 41.7301 21.1919 41.5239ZM26.3472 19.5961C26.4366 20.0184 26.8372 20.1015 27.0955 20.341C26.4532 20.2645 26.0426 19.8421 25.6585 19.3766C25.8208 20.0117 26.4134 20.2512 26.8406 20.6635C26.5624 20.8464 26.3671 20.7068 26.228 20.5704C25.9797 20.3277 25.7744 20.0383 25.5526 19.7657C25.4632 19.6559 25.3804 19.5428 25.2943 19.4298C25.2744 19.4431 25.2513 19.4564 25.2314 19.4697C25.2777 19.616 25.334 19.7623 25.3671 19.912C25.3804 19.9685 25.344 20.0383 25.3307 20.1015C25.2711 20.0683 25.1883 20.045 25.1619 19.9951C25.0625 19.7956 24.9963 19.5794 24.8903 19.3866C24.8076 19.2369 24.6818 19.1072 24.5758 18.9709C24.5394 18.9942 24.4996 19.0208 24.4632 19.044C24.6751 19.4497 24.8804 19.8554 25.0956 20.2578C25.4168 20.8564 25.9565 21.0925 26.5988 21.1524C26.9796 21.1889 27.1087 21.0925 27.314 20.7766C27.41 20.6336 27.5988 20.5471 27.7577 20.4507C27.8239 20.4108 27.9166 20.4141 27.9961 20.3942C27.41 20.168 26.7942 20.0782 26.3472 19.5961ZM33.8202 39.9443C33.7242 39.9144 33.6911 39.8945 33.658 39.8945C33.0487 39.8945 32.4428 39.8945 31.8336 39.8978C31.6416 39.9011 31.4197 39.8612 31.2674 39.9443C30.8933 40.1505 30.5555 40.4199 30.2013 40.6626C30.2708 40.7125 30.3138 40.7158 30.3569 40.7125C31.0158 40.6726 31.6846 40.5496 32.3336 40.6161C32.9958 40.6859 33.3236 40.2569 33.8202 39.9443ZM30.688 42.3387C30.6814 42.3121 30.6747 42.2854 30.6648 42.2622C30.5688 42.2522 30.4761 42.2356 30.3801 42.2356C29.8536 42.2489 29.3305 42.2688 28.804 42.2854C28.3901 42.2988 27.867 42.7211 27.7378 43.1501C28.0888 43.1301 28.4431 43.0536 28.7808 43.1035C29.2841 43.1767 29.6682 42.9505 30.0622 42.7244C30.2807 42.6047 30.4827 42.4683 30.688 42.3387ZM32.7143 5.23353C32.6779 5.21358 32.6448 5.19363 32.6084 5.17368C32.4031 5.34993 32.1746 5.5029 31.9991 5.70575C31.8336 5.89862 31.7839 6.16798 31.976 6.36751C32.2839 6.68342 32.3038 7.00266 32.115 7.37511C32.0455 7.51145 32.0753 7.66443 32.2409 7.67108C32.4428 7.68105 32.6779 7.67773 32.8402 7.57797C32.9329 7.52143 32.9229 7.26537 32.9262 7.0991C32.9296 6.99269 32.8567 6.8896 32.8435 6.77987C32.7938 6.43735 32.7508 6.09483 32.7176 5.74898C32.7011 5.57938 32.7143 5.40646 32.7143 5.23353ZM29.9529 40.3334C30.4297 40.0142 30.8701 39.6717 31.3535 39.409C31.8071 39.1595 31.8535 38.704 32.0356 38.2916C31.4959 38.4978 30.9793 38.7339 30.4728 38.9866C30.3966 39.0232 30.3436 39.1396 30.3105 39.2294C30.188 39.5852 30.0787 39.9444 29.9529 40.3334ZM29.8403 39.4555C29.1351 39.5852 28.5226 40.5296 28.5325 41.4308C29.2874 40.9852 29.7112 40.3268 29.8403 39.4555ZM19.6821 5.94518C19.3642 6.22452 18.9106 6.29103 18.7351 6.75658C18.5663 7.19887 18.8179 7.60124 19.3377 7.57464C19.2649 7.51478 19.1987 7.4782 19.1589 7.42499C19.0927 7.32523 19.0331 7.21549 18.9901 7.10575C18.9801 7.08247 19.0497 7.02926 19.0828 6.98936C19.1556 7.06917 19.2285 7.15231 19.3046 7.23212C19.351 7.27867 19.404 7.33853 19.4636 7.34851C19.5 7.35516 19.5629 7.29198 19.5927 7.24542C19.692 7.09245 19.7847 6.93283 19.8708 6.77321C19.9006 6.71335 19.9271 6.63022 19.9072 6.57036C19.8476 6.36086 19.7649 6.16798 19.6821 5.94518ZM17.2915 38.7306C17.275 38.7605 17.2617 38.7871 17.2452 38.817C17.3577 39.0033 17.424 39.2759 17.5895 39.3591C18.0233 39.5819 18.4967 39.7249 19.0133 39.9211C18.9437 39.6783 18.904 39.5087 18.8411 39.3458C18.8047 39.2493 18.7451 39.1097 18.6656 39.0864C18.2153 38.9501 17.7517 38.847 17.2915 38.7306ZM20.4204 34.0251C20.5297 33.4199 20.182 33.1439 19.7119 32.9576C19.6424 32.931 19.5794 32.8944 19.5099 32.8678C19.3377 32.8047 19.1623 32.7448 18.9868 32.6816C18.9669 32.7082 18.9437 32.7315 18.9239 32.7581C19.0066 32.9743 19.0298 33.2802 19.1887 33.3899C19.5695 33.6526 20.0165 33.8256 20.4204 34.0251ZM18.6656 33.217C18.6192 33.0075 18.5928 32.8545 18.5497 32.7082C18.5298 32.6351 18.4934 32.5187 18.4438 32.5087C18.0398 32.4123 17.6292 32.3358 17.2187 32.2526C17.1955 32.2826 17.169 32.3125 17.1458 32.3424C17.2485 32.4854 17.318 32.6916 17.4571 32.7581C17.8246 32.9377 18.2252 33.0574 18.6656 33.217ZM15.3446 38.5876C15.8049 39.2427 16.4439 39.2161 17.1193 39.3025C16.9472 39.0332 16.924 38.7173 16.6194 38.674C16.2187 38.6208 15.8115 38.6175 15.3446 38.5876ZM33.9427 26.3799C33.7772 26.4331 33.6812 26.4531 33.5918 26.4897C33.1845 26.6559 32.7739 26.8222 32.37 26.9985C32.0091 27.1548 31.8965 27.3443 31.8932 27.7567C32.5488 27.3144 33.211 26.8688 33.9427 26.3799ZM29.1583 29.8184C29.1881 29.8417 29.2179 29.865 29.2477 29.8883C29.4 29.7054 29.5258 29.4826 29.7112 29.3529C30.0589 29.1134 30.0291 28.7709 30.0787 28.4118C29.4463 28.7177 29.1318 29.2132 29.1583 29.8184ZM19.3179 39.3524C19.3377 39.9277 19.6357 40.2702 20.2417 40.4166C20.2582 39.8246 19.9834 39.5054 19.3179 39.3524ZM28.1054 41.1881C27.7643 41.4208 27.0558 42.7311 27.0657 43.0636C27.2942 42.7776 27.4895 42.4817 27.7378 42.2422C28.0458 41.9429 28.016 41.5505 28.1054 41.1881ZM31.4727 27.474C30.7476 27.6735 30.443 28.0859 30.5555 28.731C30.9231 28.3486 31.433 28.0925 31.4727 27.474ZM21.768 41.3344C21.7912 41.3078 21.8144 41.2812 21.8376 41.2546C21.48 40.8688 21.1257 40.4864 20.7681 40.1006C20.7383 40.1173 20.7118 40.1372 20.682 40.1539C20.735 40.37 20.7218 40.6593 20.8608 40.7824C21.1158 41.0185 21.4601 41.1581 21.768 41.3344ZM20.9171 33.6925C20.8906 33.7125 20.8608 33.7325 20.8343 33.7557C20.8409 34.474 21.4237 34.7002 21.8773 35.036C21.9071 35.0127 21.9369 34.9861 21.9634 34.9629C21.6124 34.5372 21.2648 34.1149 20.9171 33.6925ZM20.5959 20.4008C21.0131 20.74 21.8707 20.5505 22.1289 20.0683C21.619 20.178 21.1125 20.2911 20.5959 20.4008ZM28.7378 29.8118C28.7047 29.7951 28.6716 29.7752 28.6384 29.7586C28.3703 30.2008 28.0987 30.6431 27.8306 31.0821C27.867 31.1054 27.9034 31.1253 27.9365 31.1486C28.1484 30.6697 28.804 30.4702 28.7378 29.8118ZM28.5755 43.4194C28.5689 43.3961 28.5623 43.3695 28.5557 43.3463C28.3107 43.3629 28.059 43.4094 27.8173 43.3862C27.4928 43.3596 27.3803 43.5591 27.2313 43.8318C27.7114 43.6855 28.1418 43.5524 28.5755 43.4194Z" fill="#FFEB61"/>
<path d="M11.0701 37.5036C10.9376 37.4072 10.8483 37.3706 10.8052 37.3041C10.7522 37.2243 10.7357 37.1179 10.7059 37.0214C10.4609 36.1901 9.95758 35.6015 9.1232 35.3288C8.95103 35.2722 8.78216 35.2157 8.77885 34.9896C8.77554 34.7535 8.96096 34.7435 9.11658 34.687C9.96089 34.3844 10.5469 33.829 10.7754 32.9345C10.8185 32.7715 10.8847 32.6186 11.0833 32.6219C11.282 32.6252 11.3416 32.7715 11.378 32.9411C11.5767 33.8423 12.1495 34.3943 13.0037 34.6703C13.1825 34.7302 13.3084 34.8133 13.315 35.0095C13.3216 35.2157 13.1527 35.2423 13.0104 35.2856C12.0965 35.5582 11.5701 36.1934 11.3085 37.0879C11.2721 37.2243 11.1694 37.3407 11.0701 37.5036ZM11.0204 36.0205C11.3714 35.6713 11.7489 35.2955 12.1362 34.9131C11.6793 34.687 11.3184 34.3345 11.1131 33.8988C10.7456 34.2779 10.3781 34.6504 10.0503 34.9863C10.3715 35.3288 10.7059 35.6846 11.0204 36.0205Z" fill="#FFEB61"/>
<path d="M37.1013 16.5731C37.0715 16.5997 37.0119 16.6928 36.9324 16.7161C36.1775 16.9489 35.6842 17.4211 35.5153 18.2192C35.4954 18.3057 35.3597 18.4154 35.2637 18.4287C35.1941 18.4387 35.0716 18.3256 35.0286 18.2425C34.9193 18.023 34.8697 17.7769 34.7505 17.5674C34.5286 17.1717 34.1909 16.9057 33.7439 16.7959C33.5817 16.756 33.4294 16.6995 33.4327 16.49C33.436 16.2938 33.5784 16.2505 33.7274 16.194C34.3465 15.9546 34.7935 15.5489 34.9558 14.8805C34.9657 14.8372 34.9723 14.7807 35.0021 14.7541C35.0816 14.6809 35.1743 14.5712 35.2604 14.5679C35.3431 14.5679 35.459 14.6676 35.5087 14.7541C35.5782 14.8771 35.5848 15.0368 35.6444 15.1665C35.8994 15.6985 36.31 16.0543 36.8761 16.2173C37.0814 16.2672 37.1046 16.2971 37.1013 16.5731ZM35.9126 16.5033C35.6941 16.2805 35.4392 16.0144 35.2604 15.8282C35.0749 16.0211 34.8167 16.2904 34.5816 16.5332C34.7538 16.7094 35.012 16.9755 35.2173 17.185C35.4656 16.9422 35.7305 16.6795 35.9126 16.5033Z" fill="#FFEB61"/>
<path d="M14.3844 3.88673C14.3248 3.81357 14.2354 3.74706 14.2056 3.66392C14.05 3.19504 13.8281 2.77604 13.4076 2.4967C13.252 2.39362 13.0633 2.33708 12.9077 2.23066C12.8117 2.16748 12.6925 2.0511 12.6925 1.95799C12.6891 1.8682 12.805 1.72188 12.8977 1.6853C13.5467 1.44587 13.9937 1.02686 14.2155 0.358447C14.2486 0.258684 14.391 0.125669 14.4705 0.13232C14.5632 0.142296 14.6857 0.278639 14.7155 0.381727C14.891 1.04016 15.3314 1.43589 15.934 1.67532C16.0697 1.72853 16.1889 1.77508 16.1856 1.95133C16.1823 2.11428 16.0796 2.19408 15.9406 2.24064C15.2718 2.48007 14.8645 2.96227 14.6857 3.64065C14.646 3.78697 14.593 3.86678 14.3844 3.88673ZM15.03 1.94468C14.8777 1.77509 14.6427 1.51237 14.4241 1.26629C14.1924 1.4891 13.9473 1.72188 13.7719 1.89147C13.9937 2.12758 14.2387 2.38364 14.4374 2.58982C14.6129 2.39694 14.8479 2.14088 15.03 1.94468Z" fill="#FFEB61"/>
<path d="M37.0483 35.4051C35.9689 35.3951 35.1246 34.5239 35.1378 33.4265C35.1478 32.369 36.0385 31.511 37.1112 31.5243C38.1906 31.5409 39.0349 32.4056 39.025 33.483C39.0085 34.5671 38.1443 35.4118 37.0483 35.4051ZM37.0781 34.7267C37.7602 34.7234 38.3463 34.1381 38.3396 33.4664C38.333 32.798 37.7569 32.2227 37.0914 32.226C36.406 32.226 35.8133 32.8079 35.8199 33.473C35.8232 34.1647 36.3894 34.73 37.0781 34.7267Z" fill="#FFEB61"/>
<path d="M21.7151 23.7495C21.7151 24.388 21.2582 24.8702 20.649 24.8735C20.0099 24.8768 19.5166 24.388 19.5166 23.7528C19.5166 23.1143 20 22.6255 20.6192 22.6321C21.2648 22.6388 21.7151 23.0977 21.7151 23.7495ZM21.1324 23.7561C21.1357 23.4635 20.9039 23.2241 20.6126 23.2241C20.3444 23.2241 20.1192 23.4602 20.1093 23.7495C20.0993 24.0355 20.3212 24.2749 20.5993 24.2749C20.894 24.2782 21.1291 24.0488 21.1324 23.7561Z" fill="#FFEB61"/>
<path d="M21.3873 45.3315C20.8012 45.3315 20.3377 44.8394 20.3443 44.2275C20.3509 43.6023 20.7946 43.1667 21.4204 43.1633C22.0131 43.16 22.4799 43.6289 22.4799 44.2208C22.4832 44.8493 22.0065 45.3315 21.3873 45.3315ZM21.9005 44.2175C21.9005 43.9581 21.6787 43.7486 21.4005 43.7486C21.139 43.7486 20.9271 43.9714 20.9271 44.2441C20.9271 44.5201 21.1191 44.7163 21.384 44.7197C21.6853 44.7263 21.9005 44.5168 21.9005 44.2175Z" fill="#FFEB61"/>
</svg>
