<svg width="48" height="48" viewBox="0 0 48 48" fill="none" xmlns="http://www.w3.org/2000/svg">
<path d="M30.4748 23.1836C31.045 24.0389 31.4587 24.8908 31.6395 25.8504C32.1298 28.4372 31.6674 30.8397 30.2697 33.0649C29.9706 33.5412 29.6821 34.0315 29.3413 34.48C28.5034 35.5856 27.3282 36.2288 26.087 36.7608C24.6719 37.3693 23.2151 37.8908 21.8348 38.5688C19.5435 39.6988 17.5547 41.2564 15.8128 43.127C15.1592 43.8293 14.5333 44.5525 13.8936 45.2652C13.6746 45.5121 13.5494 45.4947 13.4346 45.1714C13.0974 44.2187 12.9688 43.2347 13.007 42.2264C13.1565 38.5027 14.9123 35.683 17.9615 33.656C18.6882 33.1727 19.5748 32.9362 20.3814 32.5746C21.6366 32.0079 22.8952 31.4412 24.1399 30.8466C24.9779 30.4468 25.5446 29.7514 26.0105 28.9657C26.1078 28.8023 26.1982 28.6319 26.306 28.4754C26.5181 28.1625 26.9631 28.0617 27.3004 28.2286C27.5334 28.3433 27.5473 28.5589 27.5542 28.771C27.582 29.4316 27.363 30.0191 26.9979 30.5581C26.5146 31.2639 25.8645 31.775 25.1482 32.2235C23.7714 33.0858 22.2729 33.6803 20.7535 34.2157C18.6952 34.9389 17.0715 36.1767 15.9241 38.0403C15.2983 39.059 14.7802 40.6167 14.7489 41.6736C15.1661 41.2981 15.566 40.9504 15.9554 40.5923C18.3023 38.4332 20.9968 36.8547 23.9939 35.7768C24.6093 35.5543 25.2073 35.2866 25.8088 35.0259C27.1996 34.4244 28.1557 33.3604 28.9137 32.0844C29.8768 30.4572 30.367 28.7292 30.1167 26.8274C29.9811 25.7843 29.5812 24.8386 28.9623 24.0042C28.4478 23.3123 27.8463 22.6795 27.2935 22.0154C27.1648 21.8624 27.0327 21.7025 26.9527 21.5252C26.7719 21.101 26.9701 20.7742 27.4325 20.7985C28.0027 20.8298 28.5799 20.8993 29.1327 21.028C31.3197 21.546 33.218 22.596 34.6887 24.3067C36.0204 25.8573 36.7366 27.6653 36.6775 29.741C36.6567 30.4155 36.3576 30.9823 36.0482 31.549C35.1025 33.2944 34.1116 35.0154 32.9225 36.6078C34.5984 36.1558 36.0169 35.3283 36.9522 33.8055C37.0461 33.6525 37.1434 33.496 37.2547 33.3535C38.3916 31.9071 38.4438 30.186 38.4681 28.4719C38.4994 26.3059 37.8944 24.2928 36.8757 22.3979C36.5906 21.8659 36.3194 21.32 35.9787 20.8263C35.3389 19.9015 34.4106 19.3452 33.3536 19.0357C30.5791 18.2187 27.7524 17.9718 24.8944 18.4899C23.8027 18.688 22.7457 19.0253 21.7687 19.5816C21.6574 19.6442 21.5253 19.6824 21.4002 19.6998C21.1394 19.7346 20.9308 19.6233 20.7708 19.4147C20.6074 19.2026 20.6561 18.9766 20.7917 18.7958C21.275 18.1387 21.7339 17.4607 22.2798 16.8592C23.6427 15.3641 25.2525 14.1924 27.1544 13.4727C28.7572 12.8678 30.4331 12.527 32.1367 12.8121C35.3772 13.3545 38.2004 14.6792 40.2483 17.3877C41.4582 18.9871 42.3761 20.7081 42.7342 22.6969C42.9707 24.0111 42.7481 25.2871 42.3796 26.5423C41.9624 27.9678 41.333 29.3099 40.6342 30.6172C39.8762 32.0288 39.1391 33.4508 38.3047 34.8172C37.5641 36.0237 36.5836 37.032 35.2451 37.6057C33.9447 38.1655 32.5818 38.5236 31.1875 38.7565C30.6208 38.8504 30.0471 38.8921 29.4769 38.9443C29.3831 38.9512 29.2127 38.9095 29.1953 38.8504C29.1675 38.76 29.2022 38.614 29.2648 38.5305C29.7029 37.9673 30.1619 37.4145 30.6069 36.8547C32.0881 34.9841 33.2493 32.9049 34.4975 30.8814C35.3389 29.5115 35.1095 28.2703 34.4419 27.0012C33.5553 25.3254 32.2932 24.0181 30.4748 23.1836ZM40.217 27.6375C40.3769 27.2377 40.5368 26.8413 40.6933 26.4415C41.3539 24.7239 41.4165 22.9855 40.6863 21.2887C40.0883 19.8945 39.24 18.6359 38.2352 17.4955C37.0774 16.1847 35.5371 15.4824 33.9238 14.9191C32.9329 14.5714 31.9281 14.2272 30.8572 14.3837C29.9533 14.5158 29.0493 14.6862 28.1731 14.933C26.9979 15.2668 26.0035 15.9552 24.9848 16.7132C25.11 16.7132 25.1795 16.7201 25.2421 16.7132C27.8845 16.4559 30.4887 16.6993 33.0755 17.2764C35.4293 17.8014 37.1608 19.1122 38.2004 21.2644C38.7636 22.4292 39.2122 23.6565 39.612 24.8873C39.9006 25.7635 40.0188 26.6988 40.217 27.6375Z" fill="#FFEB61"/>
<path d="M13.3407 11.2581C13.445 11.6823 13.5979 12.103 13.6431 12.5306C13.737 13.4103 13.744 14.3038 13.8448 15.1835C14.0534 17.0123 14.6688 18.7055 15.6215 20.2771C15.6354 20.298 15.6632 20.3119 15.7154 20.357C15.7154 20.218 15.7188 20.1137 15.7154 20.0059C15.6562 18.1527 15.5728 16.2995 15.5485 14.4464C15.5346 13.3616 15.7362 12.3012 16.1152 11.279C16.6854 9.7387 17.8432 8.7165 19.1331 7.79165C20.4335 6.85985 21.9111 6.40438 23.4479 6.06365C26.9387 5.29178 30.4399 4.56164 33.7986 3.29258C34.2227 3.13265 34.633 2.94142 35.0537 2.77105C35.1997 2.71195 35.3492 2.65979 35.6031 2.56592C35.5544 2.8545 35.5648 3.08049 35.4744 3.26129C35.1267 3.95319 34.779 4.64856 34.3722 5.30569C33.729 6.3418 33.0615 7.36747 32.1714 8.21583C31.1248 9.21369 29.8315 9.81519 28.5241 10.375C26.824 11.1016 25.0438 11.5988 23.2324 11.943C21.7616 12.2212 20.6038 12.9652 19.6095 14.0292C18.6429 15.0583 17.9545 16.2543 17.4886 17.586C17.2069 18.3857 17.3495 19.1853 17.4538 19.9781C17.5963 21.0698 17.8189 22.1442 18.2882 23.1525C18.4238 23.4445 18.3508 23.7435 18.1422 23.9278C17.878 24.1538 17.5929 24.1886 17.2799 23.9904C15.6841 22.9821 14.335 21.7478 13.5249 19.992C12.8921 18.6221 12.3637 17.2244 12.2454 15.705C12.1307 14.2239 12.2454 12.781 13.0764 11.4806C13.1216 11.4076 13.1773 11.3381 13.2259 11.2685C13.2572 11.2616 13.2989 11.2581 13.3407 11.2581ZM17.1304 14.2378C17.1617 14.2482 17.1965 14.2586 17.2278 14.2656C17.4573 13.9631 17.6833 13.6571 17.9197 13.3581C19.1157 11.8283 20.6212 10.8026 22.5544 10.4097C23.7365 10.1698 24.9047 9.84648 26.0625 9.50923C27.5784 9.06766 28.9866 8.36533 30.3182 7.51698C30.951 7.11366 31.7785 6.19229 31.9628 5.71596C31.7055 5.79593 31.4621 5.88633 31.2083 5.94544C28.8683 6.49478 26.5284 7.05803 24.1815 7.57261C22.5822 7.92377 21.0454 8.38967 19.7381 9.42925C18.8654 10.1246 17.9892 10.8339 17.6415 11.943C17.4086 12.6906 17.2973 13.4729 17.1304 14.2378Z" fill="#FFEB61"/>
<path d="M7.38451 10.5872C7.45404 10.768 7.53401 10.9487 7.58964 11.133C8.18071 13.0175 8.82741 14.8846 9.6549 16.6786C10.4824 18.4796 11.3273 20.2737 12.2208 22.0434C12.7563 23.1039 13.3821 24.1157 14.2618 24.9501C15.4821 26.1114 16.9042 26.8554 18.58 27.064C19.418 27.1683 20.2663 27.1892 21.1112 27.2448C21.2016 27.2518 21.292 27.2448 21.3824 27.2483C21.7162 27.2657 21.9804 27.4361 22.0569 27.7142C22.1369 28.0132 22.0604 28.3053 21.8066 28.4687C21.3441 28.7677 20.8748 29.0771 20.3637 29.2823C17.7108 30.3392 15.0197 30.4853 12.3564 29.3796C10.3155 28.5313 8.77873 27.0397 7.5514 25.2213C6.47009 23.615 5.9416 21.7896 5.48266 19.9365C4.78728 17.1306 5.28448 14.5021 6.61264 11.9883C6.85602 11.5294 7.07159 11.0565 7.30106 10.5906C7.32888 10.5906 7.35669 10.5872 7.38451 10.5872ZM16.8625 28.4478C16.4035 28.2462 15.9689 28.0723 15.5482 27.8637C13.3682 26.7824 11.8106 25.0787 10.764 22.9161C9.65838 20.6353 8.62227 18.3197 7.55835 16.018C7.44709 15.7746 7.35322 15.5243 7.22805 15.2149C7.1759 15.3679 7.1446 15.4513 7.12026 15.5313C6.75867 16.703 6.77606 17.8816 6.9951 19.0846C7.49577 21.8418 8.58055 24.2791 10.6284 26.2609C12.3738 27.9541 14.4634 28.5626 16.8625 28.4478Z" fill="#FFEB61"/>
</svg>
