<svg width="48" height="48" viewBox="0 0 48 48" fill="none" xmlns="http://www.w3.org/2000/svg">
<path d="M40.1463 20.3223C39.7206 21.502 39.3995 22.6565 38.9001 23.738C37.4612 26.8639 35.1137 29.2071 31.9767 30.8134C31.5438 31.0347 31.3131 31.288 31.2465 31.7717C31.0467 33.2479 30.6448 34.6808 30.1239 36.0818C30.0026 36.4058 30.0193 36.6841 30.2 36.9853C30.4926 37.4758 30.7637 37.9801 31.0277 38.4866C31.1252 38.676 31.2537 38.7445 31.4725 38.7353C31.8149 38.7194 32.1574 38.7353 32.4999 38.7308C32.8234 38.7239 32.978 38.8882 33.0017 39.1803C33.0255 39.4792 32.8614 39.6913 32.5689 39.705C31.9339 39.7393 31.2941 39.7256 30.6567 39.7119C30.5806 39.7096 30.4783 39.6092 30.4355 39.5293C29.9432 38.6258 29.4413 37.7268 28.9823 36.8073C28.8943 36.6294 28.8991 36.351 28.9776 36.1616C29.8909 33.9644 30.3118 31.6553 30.69 29.3372C30.8113 28.5888 30.8612 27.829 30.9278 27.0715C30.9611 26.6973 31.111 26.5239 31.4487 26.5239C31.7769 26.5239 31.9672 26.7155 31.9386 27.092C31.8768 27.8815 31.784 28.6709 31.7055 29.4604C31.696 29.5585 31.6889 29.6589 31.6722 29.8277C31.8316 29.7479 31.9434 29.6977 32.0456 29.6384C35.8558 27.3909 38.2175 24.1761 39.057 19.9504C39.1545 19.4621 39.2687 19.3595 39.7872 19.3526C40.6957 19.3412 41.6066 19.3435 42.5152 19.3298C42.6959 19.3275 42.8767 19.2865 43.0574 19.2636C43.0669 19.234 43.0765 19.2066 43.086 19.1769C42.9932 19.1062 42.91 19.0218 42.8077 18.9647C42.6246 18.8598 42.4319 18.7754 42.2464 18.675C41.9896 18.5358 41.8635 18.3396 41.9919 18.0544C42.1132 17.7874 42.4129 17.6391 42.6912 17.7441C42.9433 17.8376 43.1716 17.9813 43.4118 18.1023C43.5569 18.1753 43.702 18.246 43.8447 18.319C44.1372 17.881 43.9445 17.0961 43.4546 16.6511C43.0693 16.2998 42.6698 15.9621 42.2987 15.597C41.7636 15.07 41.1952 14.5611 40.7385 13.977C40.0036 13.037 39.0023 12.713 37.8631 12.7062C36.379 12.697 35.1827 13.3336 34.1933 14.3649C34.1552 14.4037 34.1315 14.4562 34.0839 14.5292C34.3645 14.5931 34.6285 14.6319 34.8759 14.714C35.6013 14.9536 35.7606 15.305 35.43 15.9598C35.0424 16.731 34.6143 17.4771 33.7723 17.8924C33.1326 18.2072 32.45 18.3053 31.7412 18.2118C31.482 18.1776 31.3607 18.2278 31.3987 18.5107C31.4701 19.0537 31.1799 19.3047 30.6044 19.1792C29.7767 19.0013 29.0775 18.5814 28.4757 18.0179C28.2569 17.8125 28.0595 17.5866 27.8883 17.4087C27.2295 17.7395 26.6087 18.1114 25.9404 18.3784C24.442 18.9784 22.8485 19.1952 21.2455 19.3298C18.275 19.5785 15.2996 19.6059 12.3243 19.4234C9.22057 19.234 6.36417 21.2578 5.74817 24.1236C5.51747 25.1982 5.64352 26.2524 6.24525 27.2107C6.80178 28.096 7.08005 29.0406 6.90406 30.0673C6.75898 30.907 6.41173 31.6576 5.62212 32.1322C5.40807 32.26 5.14883 32.3284 4.90148 32.3992C4.66602 32.4676 4.54472 32.5817 4.54472 32.8304C4.55186 34.7105 4.55424 36.5929 4.54948 38.4752C4.54948 38.6943 4.62083 38.781 4.85391 38.7741C5.20828 38.7604 5.56266 38.7581 5.91703 38.7718C6.17865 38.781 6.2619 38.692 6.2619 38.4364C6.25238 37.2112 6.25952 35.9882 6.2619 34.7652C6.26428 34.0967 6.35465 34.0328 7.04675 33.9553C8.57841 33.7796 9.96024 33.2 11.235 32.39C12.693 31.4637 13.8441 30.2681 14.5433 28.7097C14.6908 28.3789 14.7883 28.0252 14.8906 27.6784C14.9928 27.3362 15.2259 27.1559 15.5137 27.2244C15.8348 27.2997 16.0631 27.6236 15.9299 27.934C15.5922 28.728 15.2188 29.5083 14.8335 30.2818C14.6932 30.5624 14.4767 30.8088 14.2579 31.126C17.5139 32.3878 20.8032 32.4311 24.1995 31.7557C24.1424 31.5846 24.1067 31.4591 24.0591 31.3359C23.6952 30.389 23.329 29.4444 22.9651 28.4998C22.7724 28.0001 22.8367 27.756 23.1839 27.6419C23.5169 27.5347 23.7975 27.74 23.9735 28.1941C25.2221 31.4089 26.4755 34.6238 27.7289 37.8386C27.786 37.987 27.855 38.133 27.9121 38.2813C28.0381 38.6053 28.1665 38.8654 28.6422 38.749C28.9728 38.6669 29.2439 38.9224 29.2558 39.2122C29.2677 39.486 29.0489 39.6891 28.7064 39.721C28.6589 39.7256 28.6113 39.7233 28.5637 39.7233C27.4293 39.7507 27.434 39.7484 27.0226 38.7353C26.2329 36.7822 25.4362 34.8291 24.6418 32.876C24.6157 32.8144 24.5824 32.7551 24.5514 32.6912C23.9069 32.8053 23.2767 32.9445 22.6393 33.0266C21.0148 33.2365 19.3857 33.2228 17.7636 33.0198C17.395 32.9741 17.1904 33.0449 17.0025 33.3689C16.3913 34.4161 15.7468 35.4475 15.1022 36.4765C14.9976 36.6453 14.9881 36.7708 15.088 36.9419C15.3972 37.4644 15.6778 38.0006 15.9965 38.5163C16.0631 38.6235 16.2439 38.7171 16.3794 38.7262C16.779 38.7536 17.1809 38.7285 17.5829 38.733C17.8706 38.7353 18.1037 38.9726 18.1109 39.2533C18.1156 39.5065 17.9158 39.7119 17.609 39.7164C17.0073 39.7279 16.4032 39.7438 15.8039 39.7005C15.616 39.6868 15.3686 39.5339 15.2782 39.3765C14.7978 38.546 14.3459 37.6972 13.9131 36.8416C13.8512 36.7206 13.894 36.5039 13.9701 36.3761C14.5528 35.4041 15.1569 34.4435 15.7492 33.4761C15.8919 33.2457 16.0227 33.0061 16.1535 32.7848C15.4162 32.5406 14.6908 32.3376 13.9987 32.0569C13.6253 31.9063 13.4184 31.9542 13.1116 32.2121C12.5289 32.7003 11.8724 33.1133 11.2398 33.5446C11.09 33.6472 11.002 33.7134 11.0686 33.9187C11.5775 35.4155 12.0794 36.9146 12.5645 38.4182C12.6549 38.7034 12.8143 38.7947 13.1044 38.7741C13.3756 38.7581 13.6491 38.7764 13.9178 38.765C14.227 38.749 14.384 38.8928 14.4101 39.1734C14.4339 39.4495 14.296 39.6777 14.0177 39.6914C13.4184 39.7233 12.8119 39.7278 12.2173 39.6685C12.0556 39.6526 11.8534 39.3879 11.7868 39.1985C11.3468 37.955 10.9354 36.7001 10.5168 35.4497C10.3717 35.0208 10.2314 34.5918 10.1101 34.2177C9.19203 34.4504 8.31442 34.6648 7.44394 34.9067C7.35832 34.9295 7.27508 35.1257 7.2727 35.2421C7.25605 36.4879 7.25843 37.736 7.25605 38.9817C7.25367 39.5978 7.13237 39.7164 6.49022 39.7187C5.75768 39.721 5.02515 39.721 4.29262 39.7187C3.71706 39.7187 3.56009 39.5727 3.55771 39.0091C3.55057 37.3892 3.55295 35.7669 3.55057 34.1469C3.55057 33.6358 3.54106 33.127 3.55771 32.6159C3.57674 32.0273 3.88355 31.6029 4.44484 31.4888C5.44375 31.2903 5.79099 30.6103 5.91466 29.757C6.03358 28.9333 5.68396 28.226 5.23921 27.5552C5.19164 27.4845 5.07272 27.4343 4.97759 27.4183C3.96916 27.2358 3.19382 26.4805 3.03209 25.5063C2.86561 24.5046 3.35317 23.5235 4.34732 23.0946C4.86581 22.8709 5.16072 22.5492 5.43661 22.0906C7.01346 19.4713 9.43462 18.351 12.555 18.4308C14.8906 18.4924 17.2285 18.4833 19.5664 18.4445C21.2693 18.4171 22.958 18.2004 24.6062 17.76C25.498 17.5227 26.3447 17.1805 27.1129 16.674C27.3127 16.5416 27.3508 16.4139 27.2652 16.1925C26.3709 13.7945 27.0915 11.2664 29.1179 9.64645C31.1205 8.047 33.9626 7.81884 36.2506 9.07831C37.3613 9.6898 38.2341 10.5272 38.8882 11.5859C38.9714 11.7228 39.145 11.846 39.3044 11.8939C39.9965 12.1038 40.5958 12.4392 41.1 12.9434C42.137 13.9839 43.1859 15.0106 44.2157 16.0579C44.9268 16.7812 45.1694 17.6459 44.8816 18.6042C44.6224 19.4599 44.0207 20.028 43.1098 20.247C42.8172 20.3178 42.5009 20.3132 42.1941 20.3155C41.4853 20.3292 40.7766 20.3223 40.1463 20.3223ZM30.5116 18.1091C30.5473 18.0612 30.583 18.0156 30.6163 17.9677C30.4926 17.8399 30.3737 17.7076 30.2452 17.5821C28.3235 15.7134 28.6969 12.5464 30.9968 11.2208C32.5451 10.3264 34.7617 10.5431 36.2339 11.7273C36.3267 11.8026 36.4575 11.903 36.5574 11.8916C36.9498 11.846 37.3351 11.7615 37.7608 11.684C37.68 11.5722 37.6181 11.4809 37.5492 11.3942C36.9807 10.6914 36.2648 10.1667 35.43 9.78563C32.067 8.25007 28.1856 10.3469 27.9335 13.8652C27.8241 15.3643 28.3235 16.6648 29.5745 17.6254C29.848 17.833 30.1977 17.9494 30.5116 18.1091ZM30.0264 14.6912C30.0478 15.3894 30.2785 16.0967 30.7923 16.6877C30.9801 16.9021 31.2489 17.1006 31.5224 17.1873C32.6545 17.5547 33.9364 16.9272 34.3408 15.8548C34.4216 15.6426 34.3812 15.5263 34.1434 15.5012C33.8033 15.4647 33.4608 15.4556 33.1254 15.3985C32.6355 15.3164 32.4452 14.7984 32.771 14.4379C33.4441 13.6941 34.1219 12.9526 35.0424 12.4711C35.2588 12.3571 35.2517 12.2316 35.0448 12.1335C34.7926 12.0148 34.5334 11.8984 34.2647 11.8163C32.1218 11.166 30.0383 12.5464 30.0264 14.6912ZM4.71597 26.3756C4.71597 25.6067 4.71597 24.8446 4.71597 24.0665C4.28786 24.2445 4.0976 24.6004 4.03338 25.0317C3.94538 25.6272 4.24267 26.047 4.71597 26.3756Z" fill="#FFEB61"/>
<path d="M38.5408 13.79C38.8809 13.8174 39.1758 14.1437 39.1496 14.4654C39.1235 14.7894 38.781 15.0837 38.4552 15.0609C38.1032 15.0358 37.7678 14.6639 37.8011 14.3399C37.8368 14.0319 38.1983 13.7626 38.5408 13.79Z" fill="#FFEB61"/>
</svg>
