<svg width="48" height="48" viewBox="0 0 48 48" fill="none" xmlns="http://www.w3.org/2000/svg">
<path d="M27.4061 41.6657H27.3061H27.2964H27.2866H27.2769H27.2671H27.2574H27.2476H27.2378H27.2281H27.2183H27.2086H27.1988H27.1891H27.1793H27.1695H27.1598H27.15H27.1403H27.1305H27.1208H27.111H27.1012H27.0915H27.0817H27.072H27.0622H27.0525H27.0427H27.0329H27.0232H27.0134H27.0037H26.9939H26.9842H26.9744H26.9646H26.9549H26.9451H26.9354H26.9256H26.9159H26.9061H26.8963H26.8866H26.8768H26.8671H26.8573H26.8476H26.8378H26.828H26.8183H26.8085H26.7988H26.789H26.7793H26.7695H26.7597H26.75H26.7402H26.7305H26.7207H26.711H26.7012H26.6914H26.6817H26.6719H26.6622H26.6524H26.6427H26.6329H26.6231H26.6134H26.6036H26.5939H26.5841H26.5744H26.5646H26.5549H26.5451H26.5353H26.5256H26.5158H26.5061H26.4963H26.4866H26.4768H26.467H26.4573H26.4475H26.4378H26.428H26.4183H26.4085H26.3987H26.389H26.3792H26.3695H26.3597H26.35H26.3402H26.3305H26.3207H26.3109H26.3012H26.2914H26.2817H26.2719H26.2622H26.2524H26.2426H26.2329H26.2231H26.2134H26.2036H26.1939H26.1841H26.1744H26.1646H26.1548H26.1451H26.1353H26.1256H26.1158H26.1061H26.0963H26.0866H26.0768H26.067H26.0573H26.0475H26.0378H26.028H26.0183H26.0085H25.9988H25.989H25.9792H25.9695H25.9597H25.95H25.9402H25.9305H25.9207H25.911H25.9012H25.8914H25.8817H25.8719H25.8622H25.8524H25.8427H25.8329H25.8232H25.8134H25.8036H25.7939H25.7841H25.7744H25.7646H25.7549H25.7451H25.7354H25.7256H25.7159H25.7061H25.6963H25.6866H25.6768H25.6671H25.6573H25.6476H25.6378H25.6281H25.6183H25.6086H25.5988H25.5891H25.5793H25.5695H25.5598H25.55H25.5403H25.5305H25.5208H25.511H25.5013H25.4915H25.4818H25.472H25.4622H25.4525H25.4427H25.433H25.4232H25.4135H25.4037H25.394H25.3842H25.3745H25.3647H25.355H25.3452H25.3355H25.3257H25.316H25.3062H25.2964H25.2867H25.2769H25.2672H25.2574H25.2477H25.2379H25.2282H25.2184H25.2087H25.1989H25.1892H25.1794H25.1697H25.1599H25.1502H25.1404H25.1306H25.1209H25.1111H25.1014H25.0916H25.0819H25.0721H25.0624H25.0526H25.0429H25.0331H25.0234H25.0136H25.0039H24.9941H24.9844H24.9746H24.9649H24.9551H24.9454H24.9356H24.9259H24.9161H24.9064H24.8966H24.8869H24.8771H24.8674H24.8576H24.8479H24.8381H24.8284H24.8186H24.8089H24.7991H24.7894H24.7796H24.7698H24.7601H24.7503H24.7406H24.7308H24.7211H24.7113H24.7016H24.6918H24.6821H24.6723H24.6626H24.6528H24.6431H24.6333H24.6236H24.6138H24.6041H24.5944H24.5846H24.5749H24.5651H24.5554H24.5456H24.5359H24.5261H24.5164H24.5066H24.4969H24.4871H24.4774H24.4676H24.4579H24.4481H24.4384H24.4286H24.4189H24.4091H24.3994H24.3896H24.3799H24.3701H24.3604H24.3506H24.3409H24.3311H24.3214H24.3116H24.3019H24.2921H24.2824H24.2727H24.2629H24.2532H24.2434H24.2337H24.2239H24.2142H24.2044H24.1947H24.1849H24.1752H24.1654H24.1557H24.1459H24.1362H24.1264H24.1167H24.107H24.0972H24.0875H24.0777H24.068H24.0582H24.0485H24.0387H24.029H24.0192H24.0095H23.9997H23.99H23.9803H23.9705H23.9608H23.951H23.9413H23.9315H23.9218H23.912H23.9023H23.8926H23.8828H23.8731H23.8633H23.8536H23.8438H23.8341H23.8243H23.8146H23.8048H23.7951H23.7854H23.7756H23.7659H23.7561H23.7464H23.7366H23.7269H23.7172H23.7074H23.6977H23.6879H23.6782H23.6684H23.6587H23.649H23.6392H23.6295H23.6197H23.61H23.6002H23.5905H23.5808H23.571H23.5613H23.5515H23.5418H23.532H23.5223H23.5126H23.5028H23.4931H23.4833H23.4736H23.4638H23.4541H23.4444H23.4346H23.4249H23.4151H23.4054H23.3957H23.3859H23.3762H23.3664H23.3567H23.347H23.3372H23.3275H23.3177H23.308H23.2983H23.2885H23.2788H23.269H23.2593H23.2496H23.2398H23.2301H23.2203H23.2106H23.2009H23.1911H23.1814H23.1716H23.1619H23.1522H23.1424H23.1327H23.1229H23.1132H23.1035H23.0937H23.084H23.0743H23.0645H23.0548H23.045H23.0353H23.0256H23.0158H23.0061H22.9964H22.9866H22.9769H22.9671H22.9574H22.9477H22.9379H22.9282H22.9185H22.9087H22.899H22.8892H22.8795H22.8698H22.86H22.8503H22.8406H22.8308H22.8211H22.8114H22.8016H22.7919H22.7821H22.7724H22.7627H22.7529H22.7432H22.7335H22.7237H22.714H22.7043H22.6945H22.6848H22.6751H22.6653H22.6556H22.6459H22.6361H22.6264H22.6167H22.6069H22.5972H22.5875H22.5777H22.568H22.5583H22.5485H22.5388H22.5291H22.5193H22.5096H22.4999H22.4901H22.4804H22.4707H22.4609H22.4512H22.4415H22.4317H22.422H22.4123H22.4025H22.3928H22.3831H22.3733H22.3636H22.3539H22.3442H22.3344H22.3247H22.315C22.2599 41.6657 22.2022 41.6672 22.1428 41.6687C21.9672 41.6732 21.7773 41.6781 21.5991 41.6461M27.4061 41.6657L6.07545 41.5748C6.54734 41.5884 6.89219 41.4432 7.21435 41.0983L7.28736 41.1667C7.28738 41.1667 7.2874 41.1666 7.28742 41.1666C7.86134 40.5534 8.45068 39.953 9.04099 39.3517C9.33666 39.0504 9.63258 38.749 9.92692 38.4455C10.7716 37.5759 11.6163 36.7051 12.461 35.8344L12.4656 35.8297C13.3118 34.9574 14.1579 34.0852 15.004 33.2141C15.023 33.1948 15.0417 33.1757 15.0601 33.1568C15.319 32.8916 15.5359 32.6694 15.9289 32.677L15.9294 32.677C16.6883 32.6874 17.4443 32.6883 18.2001 32.6892C19.1054 32.6903 20.0105 32.6914 20.9199 32.7088C21.0145 32.7107 21.1393 32.7415 21.252 32.7937C21.3677 32.8472 21.4505 32.9139 21.4828 32.9738L21.483 32.9743C21.5788 33.15 21.6766 33.3238 21.7739 33.4967C22.4353 34.6724 23.0754 35.8102 22.9323 37.268L22.9323 37.2683C22.856 38.068 22.7003 38.7046 22.1817 39.2799C21.8013 39.7015 21.4535 40.1593 21.1381 40.6347L21.2214 40.69L21.1381 40.6347C20.9851 40.8654 20.9377 41.0966 21.0288 41.2906C21.1189 41.4825 21.3273 41.6003 21.5991 41.6461M27.4061 41.6657V41.6475M27.4061 41.6657V41.6475M21.5991 41.6461C21.5993 41.6461 21.5994 41.6461 21.5996 41.6462L21.6162 41.5476L21.5985 41.646C21.5987 41.646 21.5989 41.646 21.5991 41.6461ZM30.9431 9.13191C30.6551 9.57378 30.3804 10.0244 30.1066 10.4735C30.0688 10.5355 30.031 10.5976 29.9932 10.6596C29.6812 11.1705 29.3681 11.678 29.0339 12.1704C28.4573 13.0194 27.8715 13.8661 27.1745 14.6036L27.1744 14.6037C25.9868 15.8639 24.7774 17.0984 23.5672 18.3337C22.6589 19.2609 21.7501 20.1886 20.8498 21.1279L20.8497 21.128C17.6561 24.4648 14.469 27.8105 11.2826 31.1557C9.9236 32.5824 8.56473 34.009 7.20549 35.4347L7.20545 35.4347C6.74433 35.919 6.28181 36.4022 5.81919 36.8855C4.73959 38.0134 3.65942 39.1418 2.5951 40.2856L31.0268 9.1865M30.9431 9.13191L31.0268 9.1865M30.9431 9.13191C30.943 9.13194 30.943 9.13197 30.943 9.132L31.0268 9.1865M30.9431 9.13191C32.1464 7.281 33.7886 6.17043 36.107 6.34162M31.0268 9.1865C32.2157 7.35791 33.8264 6.27347 36.0997 6.44135M36.107 6.34162C36.107 6.34162 36.1069 6.34161 36.1069 6.34161L36.0997 6.44135M36.107 6.34162C37.4509 6.43863 38.6131 6.96668 39.4588 8.04471M36.107 6.34162C36.107 6.34162 36.107 6.34162 36.1071 6.34162L36.0997 6.44135M36.0997 6.44135L39.4588 8.04471M27.4061 41.6475H27.413H27.4232H27.4333H27.4434H27.4536H27.4637H27.4738H27.484H27.4941H27.5042H27.5143H27.5245H27.5346H27.5447H27.5549H27.565H27.5751H27.5853H27.5954H27.6055H27.6157H27.6258H27.6359H27.6461H27.6562H27.6663H27.6765H27.6866H27.6967H27.7069H27.717H27.7271H27.7373H27.7474H27.7575H27.7677H27.7778H27.7879H27.7981H27.8082H27.8183H27.8285H27.8386H27.8487H27.8589H27.869H27.8791H27.8893H27.8994H27.9095H27.9197H27.9298H27.94H27.9501H27.9602H27.9704H27.9805H27.9906H28.0008H28.0109H28.021H28.0312H28.0413H28.0514H28.0616H28.0717H28.0819H28.092H28.1021H28.1123H28.1224H28.1325H28.1427H28.1528H28.1629H28.1731H28.1832H28.1934H28.2035H28.2136H28.2238H28.2339H28.244H28.2542H28.2643H28.2745H28.2846H28.2947H28.3049H28.315H28.3251H28.3353H28.3454H28.3556H28.3657H28.3758H28.386H28.3961H28.4062H28.4164H28.4265H28.4367H28.4468H28.4569H28.4671H28.4772H28.4874H28.4975H28.5076H28.5178H28.5279H28.5381H28.5482H28.5583H28.5685H28.5786H28.5888H28.5989H28.609H28.6192H28.6293H28.6395H28.6496H28.6597H28.6699H28.68H28.6901H28.7003H28.7104H28.7206H28.7307H28.7408H28.751H28.7611H28.7713H28.7814H28.7915H28.8017H28.8118H28.822H28.8321H28.8423H28.8524H28.8625H28.8727H28.8828H28.893H28.9031H28.9132H28.9234H28.9335H28.9437H28.9538H28.9639H28.9741H28.9842H28.9944H29.0045H29.0146H29.0248H29.0349H29.0451H29.0552H29.0654H29.0755H29.0856H29.0958H29.1059H29.1161H29.1262H29.1363H29.1465H29.1566H29.1668H29.1769H29.1871H29.1972H29.2073H29.2175H29.2276H29.2378H29.2479H29.258H29.2682H29.2783H29.2885H29.2986H29.3088H29.3189H29.329H29.3392H29.3493H29.3595H29.3696H29.3798H29.3899H29.4H29.4102H29.4203H29.4305H29.4406H29.4508H29.4609H29.471H29.4812H29.4913H29.5015H29.5116H29.5217H29.5319H29.542H29.5522H29.5623H29.5725H29.5826H29.5927H29.6029H29.613H29.6232H29.6333H29.6435H29.6536H29.6637H29.6739H29.684H29.6942H29.7043H29.7145H29.7246H29.7347H29.7449H29.755H29.7652H29.7753H29.7855H29.7956H29.8057H29.8159H29.826H29.8362H29.8463H29.8565H29.8666H29.8767H29.8869H29.897H29.9072H29.9173H29.9275H29.9376H29.9477H29.9579H29.968H29.9782H29.9883H29.9985H30.0086H30.0187H30.0289H30.039H30.0492H30.0593H30.0695H30.0796H30.0897H30.0999H30.11H30.1202H30.1303H30.1405H30.1506H30.1607H30.1709H30.181H30.1912H30.2013H30.2115H30.2216H30.2317H30.2419H30.252H30.2622H30.2723H30.2825H30.2926H30.3027H30.3129H30.323H30.3332H30.3433H30.3535H30.3636H30.3737H30.3839H30.394H30.4042H30.4143H30.4244H30.4346H30.4447H30.4549H30.465H30.4752H30.4853H30.4954H30.5056H30.5157H30.5259H30.536H30.5462H30.5563H30.5664H30.5766H30.5867H30.5969H30.607H30.6171H30.6273H30.6374H30.6476H30.6577H30.6679H30.678H30.6881H30.6983H30.7084H30.7186H30.7287H30.7388H30.749H30.7591H30.7693H30.7794H30.7896H30.7997H30.8098H30.82H30.8301H30.8403H30.8504H30.8605H30.8707H30.8808H30.891H30.9011H30.9112H30.9214H30.9315H30.9417H30.9518H30.9619H30.9721H30.9822H30.9924H31.0025H31.0127H31.0228H31.0329H31.0431H31.0532H31.0634H31.0735H31.0836H31.0938H31.1039H31.1141H31.1242H31.1343H31.1445H31.1546H31.1648H31.1749H31.185H31.1952H31.2053H31.2155H31.2256H31.2357H31.2459H31.256H31.2661H31.2763H31.2864H31.2966H31.3067H31.3168H31.327H31.3371H31.3473H31.3574H31.3675H31.3777H31.3878H31.3979H31.4081H31.4182H31.4284H31.4385H31.4486H31.4588H31.4689H31.4791H31.4892H31.4993H31.5095H31.5196H31.5297H31.5399H31.55H31.5602H31.5703H31.5804H31.5906H31.6007H31.6108H31.621H31.6311H31.6413H31.6514H31.6615H31.6717H31.6818H31.6919H31.7021H31.7122H31.7223H31.7325H31.7426H31.7528H31.7629H31.773H31.7832H31.7933H31.8034H31.8136H31.8237H31.8338H31.844H31.8541H31.8642H31.8744H31.8845H31.8946H31.9048H31.9149H31.9251H31.9352H31.9453H31.9555H31.9656H31.9757H31.9859H31.996H32.0061H32.0163H32.0264H32.0365H32.0467H32.0568H32.0669H32.0771H32.0872H32.0973H32.1075H32.1176H32.1277H32.1379H32.148H32.1581H32.1683H32.1784H32.1885H32.1987H32.2088H32.2189H32.2291H32.2392H32.2493H32.2595H32.2696H32.2797H32.2898H32.3H32.3101H32.3202H32.3304H32.3405H32.3506H32.3608H32.3709H32.381H32.3912H32.4013H32.4114H32.4215H32.4317H32.4418H32.4519H32.4621H32.4722H32.4823H32.4925C32.5477 41.6475 32.6045 41.65 32.6639 41.6528C32.7225 41.6555 32.784 41.6586 32.8449 41.6595C32.9665 41.6612 33.095 41.6546 33.2171 41.6156L33.2176 41.6154C33.3271 41.5798 33.4405 41.5184 33.5379 41.4427C33.6346 41.3676 33.7219 41.2733 33.7716 41.1684C33.7988 41.1113 33.7923 41.0486 33.7804 41.0004C33.7678 40.9492 33.7446 40.896 33.7176 40.8461C33.6638 40.7464 33.5867 40.6447 33.5165 40.5743M27.4061 41.6475L44.9234 13.0752M33.5165 40.5743C33.5166 40.5745 33.5168 40.5747 33.517 40.5749L33.4453 40.6446L33.516 40.5739C33.5162 40.574 33.5163 40.5742 33.5165 40.5743ZM33.5165 40.5743C33.3751 40.4292 33.193 40.3202 33.0257 40.2202C32.9916 40.1999 32.9582 40.1799 32.9259 40.1601L32.9257 40.16C32.7241 40.0368 32.5226 39.9115 32.3205 39.7858C31.7891 39.4554 31.2539 39.1227 30.703 38.8192L30.7029 38.8191C30.4369 38.673 30.261 38.5142 30.1473 38.3193C30.0332 38.1236 29.9762 37.8819 29.9652 37.5603C29.9203 36.2402 30.1358 35.0386 30.7829 33.8827L30.7829 33.8827C31.1572 33.2124 31.4995 32.5228 31.8404 31.836C31.9059 31.7041 31.9713 31.5723 32.0369 31.4408C32.4446 30.6232 32.8591 29.8145 33.3352 29.0451L33.3353 29.045C33.5353 28.7211 33.7389 28.3986 33.9426 28.0758C34.8395 26.6547 35.7405 25.2271 36.3652 23.6432L36.3652 23.6431C36.9796 22.0819 37.4518 20.4763 37.4747 18.7664L37.4747 18.766C37.4772 18.5074 37.4727 18.245 37.4682 17.984C37.4647 17.7768 37.4611 17.5706 37.4611 17.3679C37.47 15.0432 39.4763 12.9301 41.719 13.0886C41.719 13.0886 41.7191 13.0886 41.7191 13.0886L41.7261 12.9889M41.7261 12.9889C42.6075 13.0532 43.4983 13.0229 44.3881 12.9926C44.5656 12.9866 44.7431 12.9806 44.9205 12.9753M41.7261 12.9889C39.4166 12.8255 37.3702 14.9944 37.3611 17.3675L41.7261 12.9889ZM44.9205 12.9753L44.9234 13.0752M44.9205 12.9753C45.6919 12.9526 45.8461 12.6077 45.4151 11.9543L45.4986 11.8993C45.4986 11.8993 45.4986 11.8993 45.4986 11.8993C45.6094 12.0673 45.6866 12.2213 45.7246 12.3599C45.7626 12.4989 45.7631 12.6303 45.709 12.7442C45.6545 12.859 45.5526 12.9391 45.4204 12.9911C45.2893 13.0427 45.1223 13.0694 44.9234 13.0752M44.9205 12.9753L44.9235 13.0752C44.9235 13.0752 44.9234 13.0752 44.9234 13.0752M39.4588 8.04471C39.4589 8.04476 39.4589 8.04482 39.459 8.04487L39.3803 8.10659L39.4588 8.04471ZM30.5385 21.0045L30.5385 21.0044C30.6586 20.8665 30.8075 20.7 30.9816 20.6159C31.0717 20.5724 31.172 20.5489 31.2804 20.5639C31.3886 20.5789 31.4953 20.631 31.6005 20.7223C31.6005 20.7223 31.6006 20.7223 31.6006 20.7223L31.535 20.7978L30.5385 21.0045ZM30.5385 21.0045C26.8634 25.2355 22.1553 27.9733 17.0889 30.1712C16.0403 30.6251 14.9597 31.0061 13.8764 31.3881C13.4258 31.5469 12.9747 31.706 12.5253 31.8705C12.481 31.8864 12.4303 31.8946 12.3468 31.9036C12.3273 31.9057 12.3062 31.9079 12.2833 31.9102C12.2732 31.9112 12.2629 31.9123 12.2521 31.9134C12.2665 31.8956 12.2805 31.8782 12.2942 31.8611C12.4685 31.6448 12.598 31.484 12.7407 31.3348L12.7409 31.3346C13.1344 30.9203 13.5278 30.5059 13.9214 30.0914C15.9329 27.973 17.9454 25.8536 19.9642 23.7437L19.9643 23.7436C21.4379 22.2013 22.9173 20.6638 24.3968 19.1263C25.4549 18.0268 26.513 16.9273 27.5689 15.8259L27.5689 15.8259C28.5932 14.7565 29.708 13.8955 31.2175 13.6869C33.7166 13.3445 35.9579 14.9438 36.2636 17.4387L36.3629 17.4265L36.2636 17.4387C36.3891 18.4602 36.3087 19.5473 36.1105 20.5699C35.5878 23.2371 34.3257 25.615 32.7515 27.8089M30.5385 21.0045L32.8328 27.8672M25.1329 27.1886L25.1327 27.1887C22.8089 28.6985 20.363 29.9805 17.8364 31.1075L17.8363 31.1075C17.6444 31.1928 17.4586 31.2916 17.2692 31.3927C18.1831 31.5144 19.0724 31.5253 19.9648 31.5361C20.1194 31.538 20.2741 31.5399 20.429 31.5423L20.4274 31.6423M25.1329 27.1886L26.9477 31.5153C26.8796 31.3202 26.6119 31.116 26.4032 31.0706L26.4265 30.9734C26.4262 30.9733 26.4258 30.9732 26.4255 30.9731C26.3568 30.9571 26.29 30.9877 26.2452 31.0146C26.1948 31.0449 26.1436 31.0884 26.0966 31.1359C26.0039 31.2299 25.9127 31.3556 25.8699 31.4653L25.8697 31.466C25.7513 31.7758 25.6243 32.0863 25.4967 32.3983C25.1302 33.2946 24.7586 34.2033 24.5718 35.1438M25.1329 27.1886C27.4634 25.6683 29.5619 23.8657 31.4145 21.79L25.1329 27.1886ZM20.4274 31.6423L20.4286 31.5423C20.6601 31.5451 20.8542 31.544 21.019 31.5429L21.048 31.5427C21.1994 31.5416 21.3269 31.5407 21.4347 31.5433C21.6609 31.5489 21.8218 31.5697 21.9551 31.6543C22.0865 31.7378 22.1773 31.8751 22.2896 32.068C22.32 32.1204 22.3526 32.1777 22.3883 32.2408C22.488 32.4166 22.6129 32.637 22.7898 32.9186L22.7899 32.9187C23.7582 34.4652 24.177 36.0791 24.03 37.8939L24.03 37.894C23.9748 38.5702 23.8398 39.1423 23.3489 39.6522L23.3489 39.6523C23.3065 39.6962 23.263 39.7383 23.2201 39.7799C23.0084 39.9852 22.8098 40.1777 22.8199 40.5083C22.9221 40.5084 23.0242 40.5084 23.1261 40.5085C24.4326 40.5096 25.7108 40.5106 27.0006 40.4102C26.8841 40.2759 26.7634 40.1848 26.633 40.1226C26.4379 40.0328 26.2393 39.9512 26.0386 39.8688C25.9781 39.8439 25.9175 39.819 25.8566 39.7937C25.5951 39.6852 25.3326 39.5713 25.0806 39.4348L25.08 39.4346C24.956 39.3665 24.8141 39.2618 24.7007 39.1448C24.5918 39.0324 24.49 38.8889 24.4838 38.7431L24.4837 38.7415C24.4778 38.5177 24.4688 38.2915 24.4598 38.0641C24.4213 37.089 24.3819 36.0901 24.5718 35.1438M20.4274 31.6423C21.3503 31.6536 21.6802 31.6023 21.8964 31.7355C22.116 31.8709 22.2182 32.1967 22.7052 32.9718M20.4274 31.6423C20.2731 31.6399 20.1188 31.638 19.9644 31.6361C19.0282 31.6248 18.088 31.6134 17.1188 31.4727L22.7052 32.9718M24.5718 35.1438C24.5718 35.1438 24.5718 35.1439 24.5718 35.1439L24.6699 35.1634L24.5718 35.1437C24.5718 35.1437 24.5718 35.1438 24.5718 35.1438ZM29.077 34.8874C28.9716 35.0982 28.9246 35.3366 28.9014 35.5751C28.8836 35.7572 28.8794 35.9454 28.8754 36.1247C28.8742 36.1793 28.873 36.2331 28.8714 36.2857L28.8714 36.2859C28.8658 36.49 28.8477 36.7032 28.8285 36.9212L28.8256 36.9546C28.8074 37.1609 28.7889 37.3711 28.7807 37.5767C28.7636 38.008 28.7906 38.4362 28.9733 38.7894L28.9735 38.7896C29.1547 39.1375 29.493 39.3933 29.8547 39.6163C29.9973 39.7043 30.1468 39.789 30.2943 39.8726C30.3348 39.8955 30.3751 39.9184 30.4151 39.9412C30.6021 40.0478 30.7831 40.1543 30.947 40.2684L30.9487 40.2695C31.0011 40.3044 31.0535 40.3394 31.1378 40.3944C29.8901 40.7385 29.0162 40.1978 28.1985 39.6565C28.2198 39.4955 28.2397 39.3429 28.2589 39.1961C28.3056 38.8385 28.3478 38.5157 28.3943 38.1904L28.3943 38.1902C28.7023 36.0097 27.9767 34.0326 27.2633 32.0884C27.189 31.8859 27.1148 31.6837 27.0419 31.4817L29.1665 34.932M29.077 34.8874C29.077 34.8874 29.077 34.8873 29.0771 34.8872L29.1665 34.932M29.077 34.8874C29.0769 34.8876 29.0768 34.8878 29.0767 34.888L29.1665 34.932M29.077 34.8874C29.3883 34.2513 29.6837 33.605 29.9797 32.9572C30.7866 31.1914 31.5982 29.4154 32.7515 27.8089M29.1665 34.932C29.4806 34.2904 29.7775 33.6406 30.0744 32.9909C30.8801 31.228 31.6856 29.4652 32.8328 27.8672M32.7515 27.8089L32.8328 27.8672M32.7515 27.8089C32.7515 27.8089 32.7515 27.8089 32.7515 27.8088L32.8328 27.8672M22.7052 32.9718C23.6626 34.5009 24.0755 36.0935 23.9303 37.8858C23.8758 38.5528 23.7443 39.0973 23.2769 39.5828L22.7052 32.9718ZM7.02417 39.7768L7.02425 39.7767C8.52443 38.2148 10.0438 36.6694 11.563 35.1241C12.2774 34.3975 12.9917 33.6709 13.704 32.9427L13.7048 32.9419C13.7287 32.918 13.7485 32.8829 13.7791 32.8127C13.7863 32.7962 13.794 32.7779 13.8025 32.7579C13.8076 32.7458 13.813 32.7331 13.8186 32.7198C13.5928 32.7723 13.3733 32.8257 13.1584 32.8779C12.5417 33.0277 11.9621 33.1685 11.3765 33.2567M7.02417 39.7768L11.3616 33.1578M7.02417 39.7768C6.51443 40.3087 6.01263 40.5992 5.2886 40.5135C4.99604 40.4782 4.69192 40.4873 4.39788 40.4961C4.29504 40.4992 4.19343 40.5022 4.09397 40.5033C4.08905 40.4875 4.08409 40.4717 4.07918 40.4561L4.07908 40.4558C4.07262 40.4352 4.06624 40.415 4.06007 40.395C4.3763 40.0668 4.69423 39.7395 5.01232 39.412C5.51038 38.8992 6.00884 38.386 6.50177 37.8686C7.7814 36.5254 9.06109 35.1777 10.3363 33.8254M7.02417 39.7768L10.2635 33.7568M11.3765 33.2567L11.3616 33.1578M11.3765 33.2567C11.3766 33.2567 11.3768 33.2567 11.3769 33.2566L11.3616 33.1578M11.3765 33.2567C10.9352 33.3254 10.6279 33.5164 10.3363 33.8254M11.3616 33.1578C10.8942 33.2304 10.5675 33.4346 10.2635 33.7568M10.3363 33.8254L10.2635 33.7568M10.3363 33.8254C10.3363 33.8254 10.3362 33.8254 10.3362 33.8254L10.2635 33.7568M39.1579 12.5166L39.1571 12.517C38.1089 13.1344 37.3615 14.0031 36.7635 15.2045C35.9004 14.0329 34.9189 13.2406 33.7934 12.8281C32.689 12.4233 31.4551 12.3875 30.0733 12.706C30.305 12.3382 30.5252 11.9777 30.7407 11.625C31.3043 10.7025 31.8355 9.83293 32.4539 9.02495L32.454 9.02487C33.684 7.41435 35.9027 7.0188 37.6177 7.94055C39.1154 8.74663 39.6108 10.1905 39.5571 11.7922L39.5571 11.7923C39.5532 11.9131 39.5063 12.0657 39.4298 12.2059C39.3528 12.347 39.2539 12.4612 39.1579 12.5166ZM13.9933 32.577C13.9516 32.5865 13.9103 32.5959 13.8691 32.6054L13.9398 32.6918C13.9554 32.6567 13.9729 32.6185 13.9933 32.577ZM25.5889 38.3829C25.3788 36.3297 25.6595 34.7578 26.462 33.3867C27.3695 35.1187 27.3812 36.9509 27.1705 39.0228C26.8653 38.8992 26.5926 38.7889 26.3405 38.687C26.0714 38.5782 25.8257 38.4788 25.5889 38.3829ZM40.6782 11.971V11.9691V11.9644V11.9598V11.9551V11.9505V11.9458V11.9412V11.9366V11.9319V11.9273V11.9227V11.9181V11.9135V11.9088V11.9042V11.8996V11.895V11.8904V11.8858V11.8812V11.8767V11.8721V11.8675V11.8629V11.8583V11.8538V11.8492V11.8446V11.8401V11.8355V11.8309V11.8264V11.8218V11.8173V11.8128V11.8082V11.8037V11.7991V11.7946V11.7901V11.7856V11.781V11.7765V11.772V11.7675V11.763V11.7585V11.754V11.7495V11.745V11.7405V11.736V11.7315V11.727V11.7225V11.7181V11.7136V11.7091V11.7046V11.7002V11.6957V11.6912V11.6868V11.6823V11.6779V11.6734V11.669V11.6645V11.6601V11.6556V11.6512V11.6468V11.6424V11.6379V11.6335V11.6291V11.6247V11.6202V11.6158V11.6114V11.607V11.6026V11.5982V11.5938V11.5894V11.585V11.5806V11.5762V11.5719V11.5675V11.5631V11.5587V11.5543V11.55V11.5456V11.5412V11.5369V11.5325V11.5281V11.5238V11.5194V11.5151V11.5107V11.5064V11.502V11.4977V11.4934V11.489V11.4847V11.4804V11.476V11.4717V11.4674V11.4631V11.4588V11.4544V11.4501V11.4458V11.4415V11.4372V11.4329V11.4286V11.4243V11.42V11.4157V11.4114V11.4071V11.4028V11.3986V11.3943V11.39V11.3857V11.3814V11.3772V11.3729V11.3686V11.3644V11.3601V11.3558V11.3516V11.3473V11.3431V11.3388V11.3346V11.3303V11.3261V11.3218V11.3176V11.3134V11.3091V11.3049V11.3007V11.2964V11.2922V11.288V11.2837V11.2795V11.2753V11.2711V11.2669V11.2627V11.2584V11.2542V11.25V11.2458V11.2416V11.2374V11.2332V11.229V11.2248V11.2206V11.2165V11.2123V11.2081V11.2039V11.1997V11.1955V11.1914V11.1872V11.183V11.1788V11.1747V11.1705V11.1663V11.1622V11.158V11.1538V11.1497V11.1455V11.1414V11.1372V11.133V11.1289V11.1247V11.1206V11.1165V11.1123V11.1082V11.104V11.0999V11.0958V11.0916V11.0875V11.0834V11.0792V11.0751V11.071V11.0669V11.0627V11.0586V11.0545V11.0504V11.0463V11.0421V11.038V11.0339V11.0298V11.0257V11.0216V11.0175V11.0134V11.0093V11.0052V11.0011V10.997V10.9929V10.9888V10.9847V10.9806V10.9765V10.9724V10.9684V10.9643V10.9602V10.9561V10.952V10.9479V10.9439V10.9398V10.9357V10.9316V10.9276V10.9235V10.9194V10.9154V10.9113V10.9072V10.9032V10.8991V10.8951V10.891V10.8869V10.8829V10.8788V10.8748V10.8707V10.8667V10.8626V10.8586V10.8545V10.8505V10.8464V10.8424V10.8383V10.8343V10.8303V10.8262V10.8222V10.8181V10.8141V10.8101V10.806V10.802V10.798V10.7939V10.7899V10.7859V10.7819V10.7778V10.7738V10.7698V10.7658V10.7617V10.7577V10.7537V10.7497V10.7457V10.7416V10.7376V10.7336V10.7296V10.7256V10.7216V10.7176V10.7136V10.7095V10.7055V10.7015V10.6975V10.6935V10.6895V10.6855V10.6815V10.6775V10.6735V10.6695V10.6655V10.6615V10.6575V10.6535V10.6495V10.6455V10.6415V10.6375V10.6335V10.6296V10.6256V10.6216V10.6176V10.6136V10.6096V10.6056V10.6016V10.5977V10.5937V10.5897V10.5857V10.5817V10.5777V10.5738V10.5698V10.5658V10.5618V10.5578V10.5539V10.5499V10.5459V10.5419V10.5379V10.534V10.53V10.526V10.522V10.5181V10.5141V10.5101V10.5062V10.5022V10.4982V10.4942V10.4903V10.4863V10.4823V10.4784V10.4744V10.4704V10.4665V10.4625V10.4585V10.4546V10.4506V10.4466V10.4427V10.4387V10.4347V10.4308V10.4268V10.4228V10.4189V10.4149V10.411V10.407V10.403V10.3991V10.3951V10.3912V10.3872V10.3832V10.3793V10.3753V10.3714V10.3674V10.3634V10.3595V10.3555V10.3516V10.3476V10.3436V10.3397V10.3357V10.3318V10.3278V10.3239V10.3199V10.3159V10.312V10.308V10.3041V10.3001V10.2961V10.2922V10.2882V10.2843V10.2803V10.2764V10.2724V10.2685V10.2645V10.2605V10.2566V10.2526V10.2487V10.2447V10.2408V10.2368V10.2328V10.2289V10.2249V10.221V10.217V10.213V10.2091V10.2051V10.2012V10.1972V10.1933V10.1893V10.1853V10.1814V10.1774V10.1735V10.1695V10.1655V10.1616V10.1576V10.1537V10.1497V10.1457V10.1418V10.1378V10.1339V10.1299V10.1259V10.122V10.118V10.114V10.1101V10.1061V10.1021V10.0982V10.0942V10.0902V10.0863V10.0823V10.0783V10.0744V10.0704V10.0664V10.0625V10.0585V10.0571C40.7988 10.0807 40.9191 10.103 41.0386 10.1251C41.5852 10.2265 42.1155 10.3248 42.5948 10.5302C43.1725 10.7778 43.6702 11.1799 44.0031 11.9366C43.2824 11.9824 42.5854 11.9773 41.8608 11.9721C41.4768 11.9693 41.0852 11.9664 40.6782 11.971Z" fill="#FFEB61" stroke="#FFEB61" stroke-width="0.2" stroke-miterlimit="10"/>
</svg>
