<svg width="48" height="48" viewBox="0 0 48 48" fill="none" xmlns="http://www.w3.org/2000/svg">
<path d="M22.6759 14.7042C22.3182 15.0265 22.0002 15.312 21.6358 15.6405C21.3775 15.5177 21.0429 15.3703 20.7216 15.2046C19.7511 14.6981 19.0157 13.9859 18.5818 13.0343C18.4526 12.7488 18.3963 12.4296 18.3466 12.1195C18.2969 11.8003 18.0949 11.6621 17.757 11.7389C17.5185 11.7941 17.2668 11.8432 17.0217 11.834C16.4917 11.8156 16.1306 11.5424 15.9186 11.1034C15.7133 10.6798 15.6338 10.6583 15.1535 10.8057C14.597 10.9745 14.0538 10.9223 13.5536 10.6153C13.1992 10.3974 13.1462 10.4005 12.7917 10.6276C12.1789 11.0175 11.4767 11.1188 10.7579 11.1648C10.5029 11.1802 10.2445 11.1802 9.98613 11.174C9.78076 11.1679 9.63833 11.2385 9.58202 11.4227C9.52239 11.613 9.62508 11.7266 9.79402 11.831C10.2909 12.1379 10.8076 12.4265 11.2713 12.7734C11.798 13.1663 12.1524 13.6881 12.3313 14.299C12.4207 14.6091 12.6294 14.7134 12.9607 14.6398C13.855 14.4402 14.7692 14.9375 15.0077 15.7633C15.0143 15.7817 15.0177 15.8032 15.021 15.8216C15.1203 16.1869 15.3356 16.2851 15.7265 16.1562C16.5447 15.883 17.3893 15.7234 18.2605 15.708C19.3536 15.6896 20.4102 15.8554 21.4271 16.2329C21.4801 16.2514 21.5563 16.3035 21.5563 16.3373C21.5431 16.7487 21.6954 17.1109 21.924 17.4608C21.4437 17.6849 20.9502 17.7064 20.45 17.6174C20.0823 17.5499 19.7378 17.4332 19.4463 17.1938C19.2178 17.0065 18.9594 17.0618 18.8004 17.3043C18.3532 17.9888 17.2436 18.3695 16.4387 18.0871C16.0843 17.9612 15.8524 18.0134 15.5609 18.2528C15.064 18.658 14.4347 18.8422 13.7656 18.8637C13.2687 18.8791 13.1727 19.0049 13.219 19.4592C13.2952 20.2082 13.2323 20.9573 12.9507 21.6602C12.6791 22.3417 12.328 23.0017 12.0034 23.6648C11.9272 23.8182 11.8775 23.9594 12.0001 24.1068C12.1259 24.2572 12.2916 24.2419 12.4671 24.1958C13.6331 23.8981 14.8189 23.7661 16.0279 23.8336C16.2267 23.8459 16.4221 23.8858 16.6209 23.9165C16.909 23.9625 16.9587 23.9349 17.0945 23.6985C17.2403 23.4499 17.3794 23.1951 17.5516 22.9649C18.0386 22.3202 18.7044 22.0286 19.5623 22.1238C19.9796 22.1698 20.0757 22.0931 20.1585 21.7155C20.4599 20.3341 21.1356 19.1246 22.1592 18.084C22.4142 17.8261 22.4275 17.8384 22.7521 18.0533C22.5832 18.2682 22.3977 18.4769 22.2486 18.701C21.9041 19.2167 21.8081 19.8092 21.6723 20.3863C21.6358 20.5367 21.7816 20.6994 21.9505 20.7393C22.136 20.7792 22.3182 20.6994 22.3745 20.5214C22.4573 20.2481 22.5202 19.9719 22.5931 19.6956C22.6428 19.5022 22.6859 19.3088 22.7521 19.1216C22.772 19.0694 22.8548 19.0325 22.9078 18.9896C22.9343 19.0448 22.9873 19.1001 22.984 19.1523C22.9707 19.3364 22.9475 19.5206 22.9144 19.7017C22.8846 19.8552 22.9111 19.9811 23.0866 20.0394C23.2688 20.1008 23.4477 20.0578 23.5371 19.9074C23.6166 19.7693 23.6663 19.5943 23.6597 19.4377C23.6398 19.0264 23.5802 18.6181 23.5371 18.1853C23.6067 18.1792 23.716 18.1607 23.8253 18.1669C23.8684 18.1699 23.9247 18.2283 23.9412 18.2712C24.448 19.5483 24.4779 20.8621 24.2857 22.1882C24.2659 22.3171 24.2162 22.443 24.1831 22.5719C24.1135 22.8329 24.2228 22.9956 24.4977 23.0907C24.7097 23.1675 24.9184 23.2565 25.1171 23.3578C25.5312 23.5696 25.8161 23.895 25.9254 24.3155C26.0181 24.6716 26.0645 25.04 26.1009 25.4053C26.1307 25.6816 26.1871 25.7921 26.4487 25.8627C27.6776 26.1942 28.7442 26.799 29.7412 27.5203C29.8704 27.6124 29.9963 27.7107 30.1222 27.8089C30.2381 27.901 30.3607 27.9532 30.513 27.8764C30.6654 27.7966 30.7317 27.68 30.725 27.5173C30.7085 27.1366 30.682 26.7529 30.6853 26.3723C30.6952 25.2794 30.8906 24.2204 31.4405 23.2381C31.4935 23.146 31.5498 23.0539 31.6028 22.9587C31.7221 22.7469 31.6658 22.5627 31.4306 22.4706C30.8377 22.2343 30.4037 21.8321 30.0427 21.3533C29.9665 21.252 29.9201 21.1292 29.8704 21.0156C29.7843 20.8191 29.6717 20.684 29.4067 20.6748C28.5952 20.6472 28.0287 20.2359 27.6246 19.6219C27.5153 19.4562 27.4723 19.2413 27.4358 19.0417C27.3729 18.7133 27.2271 18.6089 26.8793 18.6857C26.0579 18.8668 24.9482 18.5138 24.5275 17.9397C24.6733 17.8261 24.8257 17.7218 24.9582 17.5959C25.0542 17.5038 25.1602 17.3933 25.1966 17.2736C25.2662 17.0434 25.4153 17.0249 25.6372 17.0403C27.5451 17.1723 29.1781 17.866 30.5793 19.0571C30.5992 19.0755 30.619 19.0939 30.6422 19.1123C31.0463 19.4684 31.2351 19.4592 31.5896 19.0694C32.1394 18.4585 33.1596 18.3511 33.8519 18.8238C34.2428 19.0939 34.3919 19.0755 34.7132 18.7317C35.2961 18.1055 36.0779 17.8169 36.9325 17.6726C37.2703 17.6143 37.6115 17.5898 37.9527 17.556C38.2707 17.5253 38.3998 17.4486 38.4297 17.249C38.4595 17.0679 38.3634 16.9697 38.0852 16.8315C37.6082 16.5921 37.1279 16.3557 36.6741 16.0856C36.3031 15.8646 36.0116 15.5576 35.8096 15.1954C35.7002 15.002 35.5346 14.9283 35.316 14.9713C34.5906 15.1125 33.9944 14.9007 33.4909 14.4187C33.3153 14.2499 33.1166 14.2468 32.9211 14.3972C32.8814 14.4279 32.8483 14.4586 32.8085 14.4893C32.2322 14.959 31.5498 14.9559 30.9735 14.4771C30.9039 14.4187 30.8377 14.3604 30.7615 14.3113C30.576 14.1916 30.3309 14.2284 30.2249 14.4095C29.7181 15.2783 28.8833 15.7756 27.9161 16.1071C27.2139 16.3465 26.4819 16.4509 25.7266 16.411C25.5345 16.4018 25.4351 16.3496 25.4186 16.1501C25.4053 15.9843 25.3457 15.8155 25.2761 15.6558C25.2099 15.5054 25.1105 15.3673 25.0111 15.1923C25.1834 15.0695 25.3689 14.9406 25.5544 14.8117C26.356 14.253 27.2305 13.9122 28.2639 14.0381C28.5289 14.0719 28.6647 13.9 28.7939 13.7311C29.1086 13.3167 29.4994 12.976 29.9499 12.6874C30.884 12.0919 31.9307 11.8279 33.0603 11.8279C33.5737 11.8279 33.6697 11.7696 33.7625 11.303C34.0904 9.66372 34.8357 8.17183 35.6671 6.71064C35.7168 6.62469 35.7897 6.5326 35.7963 6.44358C35.8029 6.32386 35.7897 6.17958 35.7201 6.08442C35.6307 5.95856 35.4584 5.95549 35.3094 6.01996C34.9285 6.18265 34.5508 6.35763 34.1666 6.51725C33.2325 6.91325 32.3084 7.33994 31.3014 7.55789C30.8277 7.65919 30.3309 7.68682 29.8406 7.72672C29.6916 7.739 29.569 7.76049 29.4597 7.86486C28.9231 8.3683 28.3467 8.82569 27.6445 9.1388C27.5617 9.17564 27.5054 9.29229 27.4656 9.38131C27.4325 9.45805 27.4391 9.55014 27.4259 9.63303C27.363 10.0505 27.2006 10.4219 26.8098 10.6737C26.6011 10.8087 26.5481 10.9653 26.6243 11.2017C26.7932 11.7266 26.621 12.2239 26.3924 12.6966C26.0148 13.4794 25.3855 14.078 24.6667 14.6029C24.5772 14.6674 24.4613 14.7011 24.299 14.7718C24.3122 14.6183 24.3056 14.5231 24.3288 14.431C24.617 13.1816 24.9118 11.9323 25.1966 10.6798C25.2298 10.5386 25.3026 10.4987 25.4517 10.4803C26.2301 10.3943 26.833 10.072 27.1178 9.35982C27.4027 8.64457 27.1576 7.84337 26.5117 7.36757C25.8492 6.87948 24.988 6.83957 24.2725 7.26627C23.0635 7.98151 23.1032 9.55014 24.3619 10.2562C24.5507 10.3636 24.5706 10.4588 24.5275 10.6368C24.2361 11.8463 23.9578 13.0588 23.6663 14.2683C23.6398 14.3727 23.5537 14.4678 23.4974 14.5661C23.4179 14.4863 23.3152 14.4187 23.2622 14.3266C22.6991 13.3167 22.4043 12.2607 22.6461 11.1218C22.6991 10.8763 22.8217 10.6675 23.0204 10.4925C23.2291 10.3084 23.239 10.204 23.1131 9.9707C22.8647 9.51638 22.878 9.05285 23.0635 8.58932C23.1363 8.41127 23.1264 8.28235 22.984 8.12886C22.5567 7.67454 22.2884 7.1312 22.083 6.56637C21.977 6.27781 21.8081 6.09977 21.4835 5.98312C20.8773 5.7621 20.3705 5.38145 19.9266 4.94862C19.1482 4.18426 18.4062 3.3892 17.6477 2.60949C17.5914 2.55116 17.5417 2.4867 17.4821 2.42837C17.3595 2.30558 17.2138 2.25033 17.0382 2.32093C16.8693 2.39154 16.803 2.51433 16.8097 2.68623C16.8329 3.27255 16.8693 3.85887 16.866 4.44211C16.8593 5.60247 16.7765 6.75976 16.4685 7.89249C16.3691 8.25472 16.4519 8.38672 16.8229 8.54634C18.3466 9.19405 19.443 10.2009 19.8438 11.7327C19.9598 12.1778 20.1353 12.4203 20.6289 12.5769C21.3377 12.8041 21.8346 13.3198 22.2122 13.9153C22.391 14.1916 22.5434 14.474 22.6759 14.7042ZM20.4665 18.2375C20.4334 18.262 20.3904 18.305 20.3374 18.3326C19.8438 18.612 19.3668 18.9159 18.8567 19.1615C17.6477 19.7416 16.4221 20.2942 15.2032 20.8529C14.9249 20.9787 14.8189 21.1537 14.9183 21.344C15.0276 21.5528 15.2562 21.5958 15.541 21.4576C15.7099 21.3747 15.8789 21.2857 16.0511 21.2059C17.5516 20.4999 19.0787 19.8368 20.493 18.9865C20.5295 18.965 20.5759 18.9527 20.6653 18.9159C20.1055 19.7447 19.7014 20.5858 19.496 21.5067C19.4198 21.5037 19.3635 21.5037 19.3072 21.5006C18.7673 21.4515 18.2737 21.5804 17.8233 21.8505C17.3032 22.1606 16.919 22.5904 16.6175 23.0846C16.5579 23.1797 16.5082 23.2503 16.3559 23.2319C15.392 23.1245 14.4314 23.1797 13.4741 23.3117C13.325 23.3332 13.1727 23.3547 12.9706 23.3823C13.6231 22.1299 13.9941 20.856 13.9411 19.4991C14.6268 19.447 15.2297 19.2413 15.7729 18.919C16.0577 18.7501 16.3095 18.6273 16.6407 18.7685C16.6474 18.7716 16.654 18.7685 16.6606 18.7716C17.7073 18.8821 18.5487 18.5199 19.2542 17.8538C19.6484 17.9796 20.0525 18.1085 20.4665 18.2375ZM30.8112 22.9434C30.1487 24.1651 29.9566 25.4667 29.9466 26.7959C29.9234 26.7989 29.9168 26.8051 29.9135 26.802C28.9761 26.2004 27.989 25.6877 26.9125 25.3285C26.8661 25.3132 26.823 25.2365 26.8131 25.1843C26.7634 24.9264 26.7502 24.6593 26.6839 24.4046C26.4752 23.6156 26.0247 22.9925 25.1701 22.6794C25.0873 22.6487 25.0012 22.621 24.9184 22.5934C25.1304 21.6786 25.1105 20.77 25.0542 19.8522C25.147 19.9473 25.2132 20.0455 25.2828 20.1438C26.2566 21.5559 27.4424 22.8206 28.562 24.1314C28.5885 24.1621 28.6217 24.1897 28.6548 24.2142C28.8038 24.3217 28.9628 24.3554 29.1218 24.2357C29.2676 24.1252 29.2941 23.9502 29.1748 23.7937C29.0854 23.674 28.9794 23.5665 28.88 23.456C27.7207 22.1483 26.5547 20.8437 25.5875 19.404C25.5511 19.3487 25.5146 19.2904 25.4881 19.2443C25.8426 19.275 26.1738 19.3211 26.505 19.3272C26.6707 19.3303 26.7303 19.3763 26.7965 19.5145C27.2305 20.417 27.883 21.0893 29.0059 21.2581C29.0887 21.2704 29.1715 21.3471 29.2278 21.4116C29.5028 21.7216 29.7512 22.0562 30.046 22.3478C30.2679 22.5719 30.5528 22.7469 30.8112 22.9434ZM21.7882 12.4449C21.7716 12.4572 21.7551 12.4664 21.7385 12.4787C21.6822 12.4418 21.6325 12.3989 21.5729 12.3651C21.3245 12.2239 21.0827 12.0673 20.8177 11.9568C20.6752 11.8985 20.6123 11.834 20.5759 11.699C20.1088 10.0137 19.0157 8.80727 17.3032 8.08281C17.174 8.02756 17.1376 7.9723 17.174 7.84337C17.3993 7.03604 17.4986 6.21335 17.5251 5.38145C17.5318 5.1942 17.5417 5.01001 17.5516 4.82276C17.5682 4.81969 17.5881 4.81662 17.6046 4.81355C17.6576 4.95476 17.7139 5.0929 17.7669 5.2341C17.9259 5.65773 18.075 6.08442 18.2539 6.5019C18.2969 6.60013 18.4261 6.69837 18.5387 6.72906C18.6182 6.75055 18.7838 6.68609 18.8269 6.61548C18.8898 6.51418 18.9263 6.35763 18.8865 6.25018C18.6547 5.60554 18.3963 4.97011 18.1479 4.3316C18.1346 4.29477 18.1313 4.25486 18.1214 4.21802C18.3069 4.35923 18.4559 4.51579 18.6149 4.66927C19.3966 5.43057 20.2281 6.1274 21.2582 6.60013C21.3145 6.62469 21.3675 6.68609 21.3874 6.74134C21.6259 7.33073 21.9074 7.89863 22.3215 8.40513C22.3679 8.46039 22.391 8.5709 22.3645 8.63536C22.2155 9.02215 22.2089 9.41508 22.3182 9.80186C22.3944 10.072 22.4076 10.2961 22.189 10.5232C22.0929 10.6215 22.0697 10.7872 22.0167 10.9223C21.9936 10.9806 21.9803 11.039 21.9505 11.1495C21.7551 10.7289 21.5961 10.3544 21.4139 9.99219C21.1224 9.41201 20.8243 8.8349 20.5129 8.26086C20.4665 8.1749 20.3473 8.06746 20.2546 8.06746C20.132 8.0644 19.9829 8.12579 19.8836 8.19946C19.7544 8.29156 19.8206 8.42355 19.8803 8.54327C20.3407 9.4427 20.8077 10.3421 21.2549 11.2477C21.4503 11.6345 21.6126 12.0428 21.7882 12.4449ZM33.8751 7.40133C33.8851 7.41361 33.8917 7.42589 33.9016 7.43817C33.8586 7.48422 33.8155 7.53333 33.7658 7.57631C33.3021 8.01221 32.835 8.44811 32.368 8.88401C32.1394 9.09889 32.0964 9.32605 32.2554 9.4734C32.4177 9.62382 32.6297 9.58084 32.8814 9.34447C33.2458 9.00066 33.6068 8.65378 33.9712 8.30997C34.0209 8.26393 34.0772 8.22402 34.1302 8.18104C34.15 8.23323 34.1467 8.25779 34.1335 8.28235C33.7029 9.18178 33.2988 10.0873 33.1398 11.0697C33.1166 11.217 33.0271 11.2231 32.9046 11.2231C31.0132 11.2538 29.4564 11.92 28.2739 13.2952C28.2308 13.3443 28.1381 13.375 28.0652 13.3812C27.7969 13.4057 27.5253 13.4119 27.257 13.4364C27.1278 13.4487 27.0019 13.4855 26.8197 13.5224C26.886 13.4518 26.9058 13.4272 26.9323 13.4057C27.5584 12.8777 28.1778 12.3405 28.8204 11.8279C29.3206 11.4257 29.8539 11.0574 30.3673 10.6706C30.5892 10.5048 30.6058 10.3176 30.4269 10.1487C30.2745 10.0045 30.099 9.99832 29.8936 10.1579C29.102 10.7842 28.3202 11.4165 27.5352 12.0489C27.4855 12.0888 27.4358 12.1318 27.3895 12.1717C27.3828 11.8709 27.3696 11.5854 27.3762 11.2999C27.3795 11.2139 27.416 11.1188 27.4623 11.039C27.6544 10.7044 27.9194 10.3912 28.0254 10.0352C28.1116 9.74968 28.201 9.5747 28.4958 9.42122C28.8933 9.21554 29.2477 8.92392 29.5889 8.63536C29.7909 8.46346 29.9831 8.37444 30.2679 8.35909C31.3511 8.30076 32.368 7.99072 33.3584 7.60087C33.5273 7.5364 33.7029 7.46887 33.8751 7.40133ZM17.661 12.4019C17.8696 13.5347 18.5255 14.4034 19.4397 15.1432C18.1346 14.9744 16.8726 15.1064 15.6404 15.4931C15.5708 15.3489 15.5245 15.223 15.4582 15.1094C14.958 14.2745 14.1564 13.9491 13.1594 13.9613C13.0501 13.9613 12.9573 13.9828 12.9077 13.8478C12.5897 13.022 11.9868 12.4019 11.2283 11.8985C11.1786 11.8647 11.1355 11.8248 11.0627 11.7665C11.1852 11.7573 11.2614 11.7542 11.3409 11.7481C11.9239 11.7051 12.4837 11.5792 12.9938 11.3091C13.166 11.217 13.2853 11.2139 13.4741 11.2907C13.7556 11.4043 14.067 11.4902 14.3717 11.5178C14.6765 11.5455 14.9912 11.4871 15.3091 11.4657C15.8193 12.2976 16.6109 12.5922 17.661 12.4019ZM36.8993 17.0464C36.8828 17.0556 36.8695 17.0679 36.8596 17.071C36.8265 17.0771 36.79 17.0802 36.7536 17.0863C35.846 17.1938 35.061 17.5499 34.3952 18.1239C34.2527 18.2467 34.1567 18.2467 33.991 18.1761C32.9874 17.7463 32.0467 17.8108 31.2219 18.5322C31.096 18.6427 31.0364 18.5844 30.9436 18.5045C30.2779 17.9244 29.5193 17.47 28.6713 17.1447C28.3865 17.0341 28.0983 16.9451 27.7604 16.8285C28.9628 16.5092 29.9532 15.9874 30.619 15.048C30.6455 15.0542 30.6522 15.0542 30.6588 15.0572C31.4736 15.5822 32.3017 15.6528 33.1563 15.134C33.1961 15.1094 33.2988 15.1217 33.3418 15.1524C33.8619 15.5361 34.4515 15.7111 35.1173 15.665C35.1802 15.662 35.2663 15.7172 35.316 15.7694C35.5148 15.9689 35.6804 16.1992 35.899 16.3711C36.2104 16.6075 36.5582 16.8162 36.8993 17.0464ZM23.7889 15.2537C24.4679 15.3918 24.8985 16.0181 24.7462 16.6474C24.6004 17.2674 23.9545 17.645 23.2688 17.5069C22.5732 17.3687 22.136 16.7517 22.2884 16.1255C22.4407 15.5054 23.1098 15.1156 23.7889 15.2537ZM24.1301 8.54634C24.2559 7.9324 24.8919 7.5364 25.5643 7.64998C26.2003 7.75742 26.6574 8.37444 26.5382 8.96383C26.4123 9.57777 25.7763 9.97991 25.1072 9.86326C24.4381 9.74968 24.0009 9.16029 24.1301 8.54634Z" fill="#FFEB61"/>
<path d="M27.1047 1.22515C27.1776 1.56282 27.2372 1.87286 27.3167 2.17676C27.489 2.84596 27.7109 3.49982 28.1713 4.05851C28.2078 4.10148 28.2078 4.19971 28.1846 4.25497C27.966 4.76761 27.9858 5.2864 28.1481 5.80518C28.1945 5.94639 28.1813 6.05076 28.0852 6.17048C27.6712 6.68312 27.479 7.25716 27.6016 7.89567C27.6347 8.07064 27.7209 8.24562 27.8136 8.40524C27.8865 8.5311 28.0355 8.54952 28.1713 8.47278C28.2906 8.40524 28.4198 8.3285 28.3668 8.16273C28.1415 7.47818 28.337 6.87345 28.8106 6.33625C28.9696 6.1582 28.9895 6.00471 28.8835 5.79904C28.6649 5.37235 28.6814 4.9211 28.8371 4.48827C28.9663 4.13525 28.9299 3.8559 28.6549 3.56121C28.4695 3.36475 28.3436 3.09768 28.2707 2.83982C28.0687 2.15527 27.9097 1.45845 27.7374 0.767757C27.7076 0.651107 27.691 0.534458 27.6546 0.420878C27.5585 0.138463 27.2174 0.0586495 26.9921 0.27353C26.8928 0.365622 26.8232 0.485342 26.7371 0.589713C26.2568 1.16068 25.7963 1.747 25.2862 2.29341C25.0643 2.52978 24.743 2.68941 24.4515 2.86131C24.2793 2.96261 24.1501 3.07312 24.1137 3.26652C24.0706 3.48754 24.0275 3.70856 23.958 3.92344C23.8553 4.24576 23.6532 4.51897 23.3816 4.74306C23.2193 4.87812 23.2127 5.01012 23.2491 5.19738C23.3054 5.47365 23.3419 5.75914 23.3319 6.03848C23.3187 6.38536 23.1696 6.70154 22.9179 6.97168C22.7523 7.14972 22.7622 7.28172 22.9179 7.426C23.0438 7.54265 23.1862 7.53958 23.375 7.38916C23.8719 6.98703 24.054 6.45903 24.0474 5.86965C24.0474 5.66704 23.9845 5.46751 23.9679 5.26491C23.9613 5.1851 23.9845 5.08073 24.0375 5.02547C24.4383 4.6172 24.6834 4.14446 24.7529 3.59805C24.7662 3.4814 24.8126 3.42 24.9318 3.36168C25.5479 3.05777 25.9984 2.57583 26.4257 2.0816C26.6543 1.81146 26.8629 1.52905 27.1047 1.22515Z" fill="#FFEB61"/>
<path d="M26.3859 4.38396C26.4025 4.59884 26.4158 4.81372 26.4356 5.02554C26.4853 5.54432 26.5251 6.0631 26.5979 6.57575C26.6145 6.68319 26.7172 6.82747 26.8232 6.87351C27.0617 6.97481 27.2803 6.81212 27.2637 6.56347C27.2273 6.09073 27.171 5.62106 27.1379 5.14833C27.0948 4.50368 27.0683 3.86211 27.0219 3.21747C27.012 3.09468 26.9689 2.94733 26.8828 2.86445C26.7238 2.71096 26.4754 2.7877 26.3429 3.00872C25.9719 3.63188 25.6108 4.2581 25.2399 4.87819C25.0477 5.20051 24.8457 5.51976 24.6503 5.83901C24.6138 5.89734 24.5741 5.94952 24.5443 6.01092C24.4681 6.16748 24.5244 6.3271 24.6867 6.41919C24.849 6.51129 25.0047 6.47752 25.1007 6.34552C25.2995 6.07231 25.4783 5.7899 25.6539 5.50441C25.8858 5.12991 26.1044 4.74619 26.3263 4.36554C26.3462 4.37475 26.3661 4.37782 26.3859 4.38396Z" fill="#FFEB61"/>
<path d="M13.812 12.3591C13.7026 12.4175 13.5735 12.4543 13.494 12.5341C13.3813 12.6477 13.3979 12.7981 13.5072 12.9148C13.5801 12.9915 13.6795 13.0529 13.7821 13.0989C15.0375 13.6392 16.2963 14.1764 17.555 14.7136C17.6013 14.732 17.6444 14.7535 17.6941 14.7689C17.9028 14.8456 18.1181 14.775 18.2042 14.6031C18.2837 14.4404 18.2241 14.2716 18.0121 14.1795C17.6378 14.0168 17.2469 13.8848 16.8726 13.7221C15.9418 13.32 15.0144 12.9086 14.0836 12.5003C14.0074 12.4666 13.9279 12.4359 13.8484 12.4052C13.8351 12.3868 13.8252 12.3714 13.812 12.3591Z" fill="#FFEB61"/>
<path d="M29.539 17.1477C29.9928 17.1539 30.5294 17.1662 31.0627 17.1692C31.9902 17.1754 32.9177 17.1754 33.8451 17.1754C33.9577 17.1754 34.0737 17.157 34.1764 17.1201C34.342 17.0587 34.4447 16.9421 34.4049 16.764C34.3652 16.5829 34.2393 16.4878 34.0406 16.4908C33.6066 16.5 33.1694 16.5307 32.7355 16.5277C31.6921 16.5215 30.652 16.5031 29.6086 16.4847C29.3568 16.4816 29.1614 16.5891 29.1415 16.7702C29.1283 16.9451 29.2608 17.1017 29.539 17.1477Z" fill="#FFEB61"/>
<path d="M23.4143 16.8471C23.6958 16.9023 23.9641 16.7427 24.0204 16.4787C24.0768 16.2331 23.9045 15.9845 23.6461 15.9385C23.3613 15.8863 23.083 16.049 23.0267 16.3007C22.9704 16.5616 23.1327 16.7888 23.4143 16.8471Z" fill="#FFEB61"/>
<path d="M25.8324 8.87177C25.892 8.62005 25.7231 8.38982 25.4349 8.33149C25.1567 8.27624 24.8851 8.42665 24.8288 8.66916C24.7758 8.90553 24.9646 9.16646 25.2296 9.21865C25.5012 9.2739 25.7761 9.11427 25.8324 8.87177Z" fill="#FFEB61"/>
<path d="M22.3944 18.9314C21.7419 20.1869 22.3613 21.464 23.0039 22.5998C23.355 23.2229 23.7393 23.8829 23.7459 24.6012C23.7525 25.1814 23.5107 25.7309 23.1364 26.1883C22.2719 27.2535 20.9105 27.7692 19.5723 28.1314C18.1247 28.5243 16.6209 28.7914 15.2761 29.4514C13.1263 30.5104 11.6358 32.472 10.9468 34.6055C10.2147 36.8832 10.4367 39.296 11.4238 41.4755C12.593 44.0602 14.6964 46.1937 17.1608 47.7807C17.5981 48.0632 18.0154 47.397 17.5782 47.1177C13.4543 44.4654 10.2876 39.8486 11.6656 35.0721C12.2684 32.9816 13.6861 31.0661 15.7961 30.0684C18.2738 28.8927 21.4106 29.0278 23.4312 27.0417C24.4249 26.0655 24.8323 24.7854 24.3487 23.4961C23.8784 22.2375 22.3745 20.718 23.1033 19.3182C23.3385 18.8762 22.6263 18.4863 22.3944 18.9314Z" fill="#FFEB61"/>
<path d="M14.4148 10.3974C14.3154 10.3299 14.2492 10.3053 14.216 10.2593C14.1763 10.204 14.163 10.1304 14.1432 10.0628C13.9577 9.48264 13.5767 9.07437 12.9474 8.88404C12.8149 8.84414 12.689 8.8073 12.689 8.64767C12.6857 8.48498 12.8281 8.47577 12.9441 8.43586C13.5834 8.22405 14.0272 7.83726 14.1995 7.21411C14.2293 7.10053 14.2823 6.99309 14.4313 6.99616C14.5804 6.99923 14.6268 7.10053 14.6533 7.22025C14.8023 7.84647 15.2363 8.23326 15.8822 8.42665C16.018 8.46656 16.114 8.52488 16.1174 8.66302C16.1207 8.8073 15.9948 8.82572 15.8855 8.85334C15.1965 9.04367 14.799 9.48571 14.6003 10.1119C14.5672 10.204 14.4877 10.2838 14.4148 10.3974ZM14.3783 9.36292C14.6433 9.12041 14.9282 8.85948 15.2197 8.58935C14.8752 8.43279 14.6003 8.18414 14.4479 7.88331C14.1697 8.14731 13.8947 8.40823 13.6463 8.64153C13.8848 8.88097 14.1399 9.12962 14.3783 9.36292Z" fill="#FFEB61"/>
<path d="M37.194 12.577C37.1709 12.5985 37.1212 12.666 37.0582 12.6845C36.4454 12.8594 36.048 13.2125 35.9121 13.808C35.8956 13.8725 35.7863 13.9523 35.7101 13.9645C35.6538 13.9707 35.5544 13.8878 35.5213 13.8233C35.4352 13.6606 35.3921 13.4765 35.296 13.3168C35.1172 13.0191 34.8422 12.8226 34.4779 12.7397C34.3454 12.709 34.2228 12.6691 34.2261 12.5126C34.2261 12.3683 34.3454 12.3345 34.4646 12.2915C34.9648 12.1135 35.3292 11.8096 35.4584 11.3092C35.4683 11.2755 35.4716 11.2325 35.4948 11.2141C35.561 11.1588 35.6339 11.0759 35.7035 11.0759C35.7697 11.0759 35.8658 11.1496 35.9022 11.2141C35.9585 11.3062 35.9618 11.4259 36.0148 11.521C36.2202 11.9201 36.5548 12.1841 37.0152 12.3069C37.1775 12.3499 37.194 12.3714 37.194 12.577ZM36.2268 12.5248C36.0513 12.356 35.8426 12.1595 35.6968 12.0214C35.5478 12.1657 35.3358 12.3652 35.147 12.5494C35.2861 12.6814 35.4981 12.8809 35.6637 13.0375C35.8658 12.8533 36.0811 12.6568 36.2268 12.5248Z" fill="#FFEB61"/>
<path d="M20.844 24.8436C20.7976 24.7914 20.7247 24.7423 20.7049 24.6809C20.5823 24.3432 20.4101 24.0393 20.0788 23.8367C19.9563 23.763 19.8072 23.7201 19.6846 23.6433C19.6085 23.5973 19.5157 23.5144 19.5157 23.4438C19.5124 23.3793 19.6018 23.2719 19.678 23.2473C20.1881 23.0754 20.5392 22.7685 20.7115 22.2865C20.738 22.2159 20.8506 22.1177 20.9102 22.1238C20.9831 22.1299 21.0792 22.2282 21.1024 22.3049C21.2382 22.7807 21.586 23.0662 22.0596 23.2412C22.1689 23.2811 22.2584 23.3149 22.2551 23.4407C22.2518 23.5604 22.1723 23.6157 22.0629 23.6525C21.5363 23.8244 21.2183 24.1744 21.0792 24.6655C21.0494 24.7699 21.0063 24.8282 20.844 24.8436ZM21.3508 23.4377C21.2315 23.3149 21.046 23.1245 20.8738 22.9465C20.6916 23.1061 20.4995 23.278 20.3637 23.3977C20.5392 23.5666 20.7314 23.7538 20.8837 23.9043C21.0262 23.763 21.2084 23.5789 21.3508 23.4377Z" fill="#FFEB61"/>
<path d="M32.6959 20.6719C32.6959 21.0034 32.4375 21.2551 32.0963 21.2551C31.7353 21.2582 31.457 21.0034 31.457 20.6719C31.457 20.3404 31.7286 20.0856 32.0798 20.0887C32.4441 20.0948 32.6959 20.3342 32.6959 20.6719ZM32.3679 20.675C32.3713 20.5215 32.2388 20.3987 32.0764 20.3987C31.9241 20.3987 31.7982 20.5215 31.7916 20.6719C31.785 20.8223 31.9108 20.9451 32.0665 20.9451C32.2321 20.9482 32.3646 20.8285 32.3679 20.675Z" fill="#FFEB61"/>
<path d="M13.5401 37.6074C12.8677 37.6043 12.3377 37.0886 12.3443 36.4409C12.3509 35.7809 12.8577 35.3205 13.5765 35.3174C14.2556 35.3143 14.7888 35.8086 14.7922 36.4348C14.7955 37.0978 14.2489 37.6074 13.5401 37.6074ZM14.1297 36.4317C14.1297 36.1585 13.8746 35.9375 13.5566 35.9375C13.2552 35.9375 13.0134 36.1708 13.0134 36.4624C13.0134 36.754 13.232 36.9628 13.5368 36.9658C13.8812 36.9689 14.1297 36.7479 14.1297 36.4317Z" fill="#FFEB61"/>
<path d="M21.3078 4.01241C21.2085 3.94487 21.1422 3.92032 21.1091 3.87427C21.0694 3.81901 21.0561 3.74534 21.0362 3.67781C20.8507 3.09763 20.4698 2.68935 19.8405 2.49903C19.708 2.45912 19.5821 2.42229 19.5821 2.26266C19.5788 2.09997 19.7212 2.09076 19.8371 2.05085C20.4764 1.83904 20.9203 1.45225 21.0925 0.829099C21.1224 0.715519 21.1754 0.608078 21.3244 0.611148C21.4735 0.614218 21.5198 0.715519 21.5463 0.835238C21.6954 1.46146 22.1293 1.84825 22.7752 2.04164C22.911 2.08155 23.0071 2.13987 23.0104 2.27801C23.0137 2.42229 22.8879 2.44071 22.7786 2.46833C22.0896 2.65866 21.6921 3.1007 21.4933 3.72692C21.4602 3.81594 21.384 3.89883 21.3078 4.01241ZM21.2714 2.97791C21.5364 2.7354 21.8213 2.47447 22.1128 2.20434C21.7683 2.04778 21.4933 1.79913 21.341 1.4983C21.0627 1.7623 20.7878 2.02322 20.5394 2.25652C20.7812 2.49596 21.0329 2.74461 21.2714 2.97791Z" fill="#FFEB61"/>
</svg>
