<svg width="48" height="48" viewBox="0 0 48 48" fill="none" xmlns="http://www.w3.org/2000/svg">
<path d="M20.119 14.8948C19.6094 15.038 19.0799 15.2031 18.539 15.3369C17.7761 15.5268 17.0046 15.642 16.2217 15.6514C15.9996 15.6545 15.9142 15.6109 15.9142 15.4397C15.9142 15.3463 15.9655 15.2311 16.0281 15.1657C16.2672 14.9228 16.5235 14.6987 16.7711 14.4652C16.811 14.4278 16.848 14.3936 16.9021 14.3407C16.8224 14.3064 16.7597 14.2815 16.6943 14.2566C15.3306 13.7367 14.1378 12.8992 13.0333 11.9029C12.8852 11.769 12.74 11.6352 12.6005 11.4919C12.4667 11.355 12.5094 11.1526 12.686 11.1028C13.4318 10.8973 14.1777 10.6887 14.9292 10.5112C15.3221 10.4178 15.732 10.3929 16.1391 10.3369C16.142 10.3587 16.1448 10.34 16.1391 10.3307C15.5954 9.7516 15.3249 9.02308 15.1769 8.22918C15.1627 8.15446 15.1285 8.07974 15.1342 8.00502C15.1428 7.91162 15.1598 7.79331 15.2168 7.73727C15.2538 7.69991 15.379 7.72481 15.4417 7.76528C15.621 7.88048 15.789 8.02058 15.9598 8.15134C15.9712 8.142 15.9797 8.13266 15.9911 8.12643C15.9683 8.07039 15.9541 8.01124 15.9256 7.95831C15.5726 7.26715 15.1371 6.64449 14.6218 6.0872C14.5762 6.03739 14.5165 5.99069 14.4908 5.93153C14.4595 5.85681 14.4282 5.76029 14.4424 5.68246C14.4652 5.57038 14.562 5.52991 14.6645 5.54237C14.9179 5.57973 15.1769 5.59529 15.4246 5.6669C15.8488 5.78521 16.2644 5.93775 16.68 6.08097C16.754 6.10587 16.8195 6.15881 16.8964 6.20239C16.9078 6.15258 16.9135 6.10588 16.9249 6.06541C16.9704 5.90663 17.0928 5.81945 17.238 5.86304C17.4259 5.91908 17.6081 6.00002 17.8045 6.07474C17.7732 5.8537 17.7305 5.63266 17.7134 5.4085C17.6793 4.96018 17.6536 4.51185 17.6366 4.06353C17.628 3.83937 17.7988 3.73352 17.9725 3.85183C18.4166 4.14448 18.8578 4.44335 19.2991 4.73912C19.3503 4.77337 19.3987 4.81073 19.4699 4.86055C19.487 4.78894 19.5041 4.73601 19.5183 4.67997C19.6977 3.92654 19.9339 3.19802 20.2784 2.51309C20.4236 2.22666 20.5574 2.20487 20.7681 2.43525C21.4143 3.14198 21.9979 3.90475 22.3737 4.82941C22.3822 4.8512 22.3993 4.86988 22.3964 4.86677C22.7181 4.20052 23.0427 3.53115 23.37 2.85867C23.4014 2.79641 23.4412 2.73725 23.4754 2.67809C23.5494 2.53799 23.7544 2.5162 23.8398 2.69055C24.133 3.30076 24.4348 3.90475 24.7308 4.51185C24.7878 4.62705 24.8305 4.7547 24.8789 4.873C25.0383 4.58346 25.1863 4.2908 25.3543 4.0106C25.6959 3.44086 26.1001 2.92716 26.5386 2.44148C26.5613 2.41657 26.5841 2.39167 26.6097 2.36988C26.7663 2.23912 26.9029 2.2578 26.9883 2.45083C27.1791 2.88669 27.3698 3.32567 27.5321 3.77399C27.6545 4.11335 27.7371 4.47137 27.8424 4.83563C27.8652 4.82318 27.8965 4.80762 27.9249 4.78894C28.3804 4.49006 28.8331 4.18495 29.2943 3.88919C29.5619 3.71795 29.6985 3.81758 29.6871 4.16005C29.6615 4.81073 29.6273 5.46454 29.4679 6.12768C29.596 6.05918 29.7042 6.00002 29.8152 5.94398C29.8921 5.90662 29.969 5.86615 30.0515 5.85058C30.248 5.81322 30.3704 5.95022 30.3761 6.20551C30.5696 6.11211 30.7604 6.00625 30.9597 5.93153C31.492 5.72917 32.0414 5.61708 32.5994 5.54859C32.7161 5.53302 32.8101 5.5517 32.867 5.68246C32.9211 5.80699 32.8613 5.88794 32.7902 5.96578C32.2749 6.54797 31.8137 7.17375 31.4436 7.88048C31.4009 7.96454 31.3639 8.05172 31.344 8.16068C31.4351 8.08908 31.5233 8.01436 31.6144 7.94586C31.7112 7.87426 31.8052 7.79642 31.9105 7.7435C31.9646 7.71548 32.0614 7.70302 32.0955 7.73727C32.1439 7.78708 32.1895 7.89293 32.1752 7.95831C32.0898 8.35993 32.0016 8.76156 31.882 9.15384C31.8109 9.38423 31.697 9.60216 31.5774 9.80452C31.4578 10.0038 31.307 10.1812 31.1675 10.3711C31.1789 10.3743 31.1931 10.3836 31.2102 10.3867C32.3631 10.4303 33.4734 10.7198 34.5694 11.0841C34.8171 11.1682 34.8512 11.3425 34.6463 11.5418C33.8093 12.3575 32.9183 13.0891 31.9162 13.6433C31.4379 13.9079 30.9426 14.1258 30.4273 14.3811C30.4301 14.3811 30.4643 14.3873 30.4899 14.4091C30.7433 14.6426 30.9967 14.8793 31.2472 15.1128C31.2813 15.147 31.3155 15.1844 31.344 15.2217C31.418 15.3182 31.4351 15.4397 31.3667 15.5331C31.3212 15.5984 31.2216 15.6576 31.1475 15.6514C30.6266 15.614 30.0999 15.5922 29.5875 15.4957C28.9071 15.3712 28.2381 15.1844 27.5634 15.0162C27.4182 14.9789 27.2787 14.901 27.1165 14.8326C27.3784 15.1065 27.5976 15.3836 27.7314 15.7323C27.9591 16.3394 27.979 16.959 27.8452 17.5941C27.6801 18.3662 27.4381 19.1009 27.0709 19.7828C26.9741 19.9633 26.8773 19.9945 26.7293 19.8699C25.8126 19.0947 24.95 18.2603 24.3123 17.1862C24.0362 16.7223 23.8369 16.2149 23.6974 15.6825C23.686 15.6358 23.669 15.5891 23.6462 15.5144C23.5978 15.7012 23.5579 15.86 23.5124 16.0156C23.2106 17.015 22.6526 17.8369 21.9694 18.553C21.5367 19.0075 21.0641 19.4216 20.6086 19.8513C20.4691 19.982 20.341 19.9664 20.2585 19.8014C19.8087 18.9079 19.4841 17.9646 19.4101 16.9403C19.3532 16.1433 19.5752 15.4365 20.1247 14.8824C20.1304 14.8793 20.1332 14.8668 20.119 14.8948ZM21.7417 14.4901C21.9381 14.5306 22.1772 14.3313 22.237 14.104C22.0833 14.2223 21.9125 14.3562 21.7417 14.4901C21.7901 14.4309 21.8385 14.3687 21.884 14.3095C21.7531 14.1196 21.6933 14.1009 21.5395 14.2099C21.5595 14.2504 21.5737 14.2939 21.5993 14.3282C21.642 14.3873 21.6933 14.4372 21.7417 14.4901ZM30.8458 11.0592C30.8202 11.0779 30.7746 11.0934 30.7746 11.1152C30.7604 11.3425 30.7917 11.5604 30.9283 11.797C30.9682 11.3954 31.0564 11.0623 31.307 10.7603C31.1732 10.7603 31.0707 10.7572 30.971 10.7603C30.8116 10.7634 30.7917 10.7883 30.8145 10.9596C30.8202 10.9938 30.8315 11.0281 30.8429 11.0623L30.8458 11.0592ZM20.4748 7.93029C20.5062 8.06416 20.5859 8.11709 20.7111 8.12332C20.6997 8.03303 20.694 7.96142 20.6827 7.87114C20.6058 7.89293 20.5375 7.91473 20.4691 7.93652C20.4891 7.87114 20.5061 7.80265 20.5261 7.73727C20.5859 7.74661 20.6314 7.75284 20.6883 7.76218C20.6143 7.35744 20.546 6.9745 20.472 6.56976C20.509 6.61024 20.5688 6.64138 20.5859 6.69119C20.6428 6.87799 20.6969 7.0679 20.731 7.26093C20.7624 7.42905 20.7681 7.60028 20.7823 7.7684C20.9275 7.80887 20.9986 7.77463 20.9986 7.61585C20.9986 7.54424 21.0186 7.47574 21.0243 7.40414C21.0357 7.27338 21.0584 7.13951 21.1865 7.0897C21.309 7.043 21.4001 7.12705 21.4855 7.21111C21.4911 7.21422 21.4997 7.21111 21.5225 7.21111C21.252 6.8126 20.9759 6.42967 20.6086 6.15569C19.8685 5.60463 19.1141 5.07847 18.3625 4.54298C18.2913 4.49317 18.2145 4.4527 18.1234 4.39977C18.1319 4.44336 18.1319 4.45893 18.1376 4.47138C18.1518 4.50874 18.1689 4.5461 18.186 4.58035C18.5618 5.25905 18.8351 5.97823 18.9489 6.76591C18.9518 6.79393 18.9632 6.82817 18.9831 6.84374C19.1795 6.97761 19.3788 7.10838 19.6123 7.26404C19.5582 6.89355 19.5069 6.56354 19.4585 6.23353C19.4756 6.23041 19.4898 6.2273 19.5069 6.22107C19.5354 6.30513 19.5781 6.38296 19.5923 6.47014C19.6293 6.70675 19.6635 6.94336 19.6863 7.17998C19.7005 7.31074 19.7261 7.41659 19.877 7.45707C19.8286 6.85308 19.8258 6.24598 19.4386 5.75407C19.3703 5.6669 19.3731 5.66378 19.4585 5.55793C19.5639 5.74162 19.6834 5.90662 19.7631 6.09031C19.9368 6.50127 19.9567 6.9496 19.988 7.39169C20.0051 7.60962 20.2642 7.89916 20.4748 7.93029ZM15.0915 11.3799C15.0602 11.3083 15.0232 11.2367 14.9976 11.1651C14.9065 10.9066 14.9065 10.9035 14.6588 10.9502C14.6531 10.9502 14.6474 10.9627 14.6417 10.9689C14.7584 11.4203 14.7556 11.4826 14.6218 11.5511C14.6104 11.439 14.6076 11.3269 14.5876 11.2211C14.5478 11.0125 14.5307 11 14.4225 11.0218C14.4225 11.1557 14.4225 11.2896 14.4225 11.4359C14.2887 11.3238 14.3058 11.0779 14.1207 11.0903C14.004 11.0997 13.8218 11.0903 13.8446 11.3051C13.7934 11.2709 13.7364 11.1962 13.6937 11.2086C13.4859 11.2584 13.2838 11.3301 13.0845 11.3923C13.1984 11.6974 13.4631 11.6819 13.7108 11.7348C13.6681 11.8095 13.6396 11.8593 13.6055 11.9154C13.6937 11.9901 13.7734 12.0617 13.8674 12.1458C13.8873 12.0648 13.9015 12.0119 13.9158 11.9589C13.93 11.9091 13.9471 11.8624 13.9613 11.8126C13.9983 11.8967 14.0126 11.9776 14.0154 12.0586C14.0268 12.2952 14.0866 12.3792 14.3257 12.4633C14.3257 12.3792 14.3115 12.2952 14.3314 12.2205C14.3456 12.1675 14.4054 12.1271 14.4424 12.0804C14.4766 12.1208 14.525 12.1551 14.5421 12.2049C14.5762 12.317 14.6104 12.4322 14.6132 12.5474C14.6189 12.756 14.7499 12.8276 14.9036 12.9054C14.8951 12.8213 14.8752 12.7497 14.8808 12.6844C14.8865 12.6252 14.9207 12.5723 14.9435 12.5131C14.9662 12.5661 15.0033 12.6159 15.0118 12.6688C15.0203 12.7435 15.0004 12.8213 15.0061 12.8961C15.009 12.9397 15.0346 12.9832 15.0488 13.0299C15.0659 13.0268 15.0801 13.0237 15.0972 13.0206C15.0972 12.8276 15.0972 12.6314 15.0972 12.4384C15.0972 12.3014 15.0972 12.1613 15.0972 12.0243C15.1086 12.0243 15.12 12.0212 15.1314 12.0212C15.1428 12.0679 15.1627 12.1146 15.1655 12.1613C15.1741 12.4042 15.1798 12.6501 15.1826 12.8929C15.1855 13.1264 15.1826 13.1265 15.4018 13.2074C15.3876 13.0486 15.3733 12.8898 15.3591 12.731C15.379 12.7279 15.399 12.7217 15.4189 12.7186C15.436 12.7653 15.4587 12.8089 15.4644 12.8587C15.4787 12.9583 15.4958 13.0611 15.4929 13.1638C15.4901 13.2946 15.5555 13.3382 15.6666 13.3599C15.6466 13.0299 15.5812 12.7061 15.7406 12.4042C15.7662 12.4633 15.7662 12.5193 15.7662 12.5785C15.7662 12.8369 15.7662 13.0984 15.7691 13.3568C15.7691 13.3942 15.7804 13.4502 15.8032 13.4658C15.9313 13.5405 16.0623 13.6059 16.2274 13.69C16.1875 13.5281 16.1591 13.416 16.1334 13.3039C16.1078 13.1918 16.0651 13.0766 16.1761 12.9801C16.2217 13.195 16.2729 13.3911 16.2986 13.5903C16.3156 13.7304 16.3811 13.7834 16.5092 13.7989C16.5007 13.7491 16.4921 13.7055 16.4864 13.662C16.4523 13.416 16.4181 13.17 16.3925 12.921C16.3868 12.8618 16.421 12.7995 16.4352 12.7373C16.4808 12.7653 16.4921 12.7871 16.495 12.8089C16.5377 13.1296 16.5747 13.4534 16.6202 13.774C16.6259 13.8145 16.6658 13.8674 16.7 13.8861C16.7854 13.9297 16.8793 13.9577 16.9846 13.9982C16.9533 13.718 16.8281 13.4783 16.8537 13.2136C16.8679 13.2105 16.885 13.2043 16.8992 13.2012C16.9761 13.4969 17.0558 13.7927 17.1327 14.0885C17.2608 14.048 17.275 13.9702 17.2579 13.8674C17.2295 13.7086 17.2124 13.5436 17.1896 13.3849C17.2067 13.3817 17.2209 13.3786 17.238 13.3755C17.349 13.5312 17.3035 13.7429 17.3747 13.9266C17.4743 13.8519 17.5569 13.7647 17.6536 13.7211C17.9099 13.6028 17.9725 13.4191 17.9412 13.1171C17.9099 12.8245 17.9725 12.5194 17.9896 12.2205C17.9924 12.1613 17.9839 12.0773 17.9497 12.043C17.8586 11.9527 17.7504 11.8842 17.6394 11.797C17.5654 12.1893 17.6309 12.5785 17.4828 12.9334C17.4629 12.8898 17.4601 12.8525 17.4629 12.812C17.48 12.4913 17.4999 12.1707 17.5141 11.85C17.517 11.7846 17.4914 11.7192 17.4771 11.6507C17.4544 11.6538 17.4316 11.657 17.4088 11.6601C17.3718 12.0897 17.3348 12.5225 17.2978 12.9521C17.2864 12.9552 17.275 12.9583 17.2636 12.9583C17.2522 12.9085 17.2295 12.8556 17.2323 12.8058C17.2522 12.4602 17.2693 12.1146 17.3006 11.7722C17.3206 11.5449 17.2579 11.4266 17.0473 11.3363C17.0273 11.9558 16.959 12.2796 16.8024 12.3793C16.8081 12.317 16.8081 12.2734 16.8138 12.2298C16.8594 11.9185 16.9135 11.6103 16.9533 11.2989C16.9619 11.2367 16.9106 11.1651 16.885 11.0966C16.8765 11.1028 16.8679 11.109 16.8622 11.1121C16.8366 11.4608 16.8081 11.8126 16.7797 12.2018C16.6886 12.0025 16.7028 11.8344 16.717 11.6632C16.7341 11.4795 16.754 11.2989 16.7626 11.1152C16.7654 11.0094 16.7284 10.9129 16.6174 10.8599C16.606 11.2834 16.569 11.6819 16.3526 12.0399C16.2929 11.7722 16.3099 11.4888 16.1676 11.2304C16.0879 11.4359 16.1306 11.6663 15.9569 11.85C15.9427 11.7379 15.9399 11.6632 15.9256 11.5885C15.8943 11.4141 15.8772 11.2335 15.8231 11.0685C15.732 10.7883 15.715 10.7883 15.4445 10.835C15.4388 10.835 15.4331 10.8475 15.4075 10.8693C15.5413 10.9533 15.5612 11.0997 15.584 11.2491C15.6068 11.4141 15.6552 11.5822 15.5157 11.7254C15.4901 11.6601 15.4815 11.5947 15.4758 11.5262C15.4616 11.3114 15.4616 11.0934 15.3136 10.9253C15.2851 10.8911 15.2367 10.8786 15.1627 10.8381C15.2168 11.1308 15.2908 11.3736 15.1428 11.5978C15.1257 11.5978 15.1086 11.5978 15.0944 11.6009C15.0887 11.5324 15.0858 11.4608 15.0801 11.3923C15.2054 11.2584 15.1627 11.0997 15.1257 10.9471C15.12 10.9222 15.0716 10.9098 15.0403 10.888C15.0659 11.0561 15.0801 11.218 15.0915 11.3799ZM23.4213 15.0256C23.4127 14.6582 23.0455 14.6707 22.9544 14.4309C22.9629 14.4185 22.9743 14.406 22.9829 14.3936C23.1309 14.4994 23.279 14.6053 23.4298 14.7111C23.4896 14.4963 23.2306 14.2068 23.074 14.1663C23.0427 14.157 22.9886 14.1912 22.9686 14.2223C22.9089 14.3126 22.8434 14.406 22.8092 14.5088C22.7039 14.8263 22.5046 14.926 22.2171 14.8357C22.2 14.8294 22.1829 14.8294 22.1459 14.8232C22.1858 14.8014 22.2057 14.7796 22.2256 14.7827C22.4818 14.8357 22.6156 14.6676 22.7267 14.4527C22.758 14.3905 22.8092 14.3407 22.8462 14.2815C22.8633 14.2566 22.869 14.2255 22.8918 14.1632C22.6156 14.3375 22.5616 14.7734 22.1772 14.7205C22.4648 14.624 22.5416 14.3158 22.7352 14.1103C22.4932 14.0231 22.4448 14.0418 22.311 14.2192C22.2256 14.3313 22.1317 14.4403 22.0264 14.5337C21.7758 14.7641 21.6876 14.7672 21.4001 14.5866C21.141 14.4247 21.141 14.4247 20.8905 14.652C20.9873 14.7111 21.0812 14.7672 21.1723 14.8232C21.2663 14.8824 21.3573 14.9446 21.4484 15.0069C21.4456 15.0287 21.4399 15.0505 21.4371 15.0723C21.383 15.0754 21.3232 15.0972 21.2748 15.0816C21.1154 15.0256 20.9588 14.9602 20.8022 14.8948C20.5887 14.8076 20.5859 14.8076 20.4464 15.0318C20.5773 15.0878 20.7083 15.1408 20.8335 15.1999C21.1182 15.3338 21.1325 15.3494 21.141 15.4832C21.1068 15.4677 21.0812 15.4521 21.0527 15.4397C20.8592 15.34 20.6684 15.2373 20.472 15.1439C20.435 15.1252 20.3866 15.1408 20.3439 15.1408C20.3439 15.1595 20.341 15.1781 20.341 15.1937C20.6456 15.2809 20.936 15.4116 21.2008 15.6016C21.1495 15.6109 21.104 15.5984 21.0613 15.5798C20.8734 15.5019 20.6912 15.4148 20.5005 15.3494C20.2272 15.2529 20.2243 15.2591 20.0962 15.5611C20.2329 15.614 20.3667 15.6638 20.5005 15.7167C20.4663 15.8319 20.3467 15.8506 20.2613 15.7666C20.2015 15.7074 20.1304 15.6669 20.0649 15.6171C20.0564 15.6296 20.0478 15.6451 20.0393 15.6576C20.0677 15.6825 20.0991 15.7074 20.1275 15.7323C19.9482 15.6825 19.9226 15.8288 19.8799 15.9502C19.7176 16.4172 19.6806 16.8936 19.8001 17.3762C19.914 17.8307 20.0364 18.2821 20.1617 18.7554C20.2072 18.7149 20.2186 18.7087 20.2243 18.6962C20.4834 18.3164 20.7396 17.9365 21.0043 17.5598C21.0926 17.4322 21.2321 17.4384 21.2833 17.5754C21.3061 17.6314 21.289 17.7155 21.2719 17.7809C21.1723 18.1327 21.067 18.4783 20.9645 18.8301C20.9417 18.9079 20.9303 18.9889 20.9132 19.0698C21.4911 18.5281 22.0463 17.9801 22.5018 17.3201C22.4135 17.2298 22.3367 17.1489 22.2569 17.0679C22.2683 17.0524 22.2769 17.0368 22.2883 17.0212C22.3794 17.0804 22.4733 17.1395 22.5843 17.2111C22.6811 17.0306 22.7808 16.8469 22.8747 16.6694C22.6185 16.3799 22.6185 16.3799 22.6526 16.2678C22.7466 16.3488 22.8348 16.4266 22.9316 16.5075C22.9601 16.4546 22.9829 16.4141 22.9971 16.3861C22.8633 16.2429 22.7381 16.109 22.6156 15.9783C22.6299 15.9596 22.6441 15.944 22.6612 15.9253C22.7893 16.0405 22.9202 16.1526 23.0484 16.2678C23.1508 16.1246 23.1537 16.0156 23.0199 15.9129C22.9544 15.8662 22.8975 15.8008 22.8434 15.7385C22.8206 15.7136 22.8149 15.67 22.8007 15.6358C22.8121 15.6296 22.8206 15.6202 22.832 15.614C22.9544 15.7074 23.0768 15.7977 23.1992 15.8911C23.1964 15.6794 22.9857 15.6483 22.9573 15.4521C23.0597 15.53 23.1651 15.6047 23.2704 15.6856C23.333 15.5953 23.3217 15.5237 23.2419 15.449C23.1423 15.3587 23.0455 15.2622 22.9601 15.1532C22.9345 15.1221 22.9516 15.0505 22.9516 14.9976C22.9914 15.01 23.0398 15.01 23.074 15.0349C23.1708 15.1003 23.259 15.1781 23.353 15.2497C23.3672 15.2373 23.3786 15.228 23.3928 15.2155C23.3672 15.1688 23.353 15.1096 23.316 15.0754C23.2192 14.9882 23.1081 14.9166 23.0113 14.8295C22.9772 14.7983 22.963 14.7391 22.9402 14.6956C22.9544 14.6862 22.9658 14.6769 22.98 14.6644C23.111 14.7827 23.2533 14.8948 23.4213 15.0256ZM24.1159 15.9067C24.2753 15.8631 24.3123 15.6202 24.5259 15.6576C24.4376 15.7666 24.3636 15.8475 24.2953 15.9378C24.1757 16.0935 24.1785 16.1651 24.3209 16.3332C24.3778 16.2585 24.4291 16.1775 24.4888 16.109C24.5458 16.0468 24.5942 15.9409 24.7052 16.0125C24.6056 16.1308 24.5116 16.2491 24.4091 16.3581C24.3465 16.4266 24.338 16.4826 24.412 16.548C24.4974 16.4639 24.5771 16.3799 24.6653 16.2927C24.6938 16.3363 24.7137 16.3737 24.7365 16.4079C24.4547 16.6819 24.4547 16.6819 24.6454 17.0399C24.654 17.0586 24.6653 17.0742 24.6739 17.0928C24.708 17.1831 24.7621 17.1831 24.8276 17.1333C24.8874 17.0866 24.9529 17.0461 25.0155 17.0026C25.0269 17.0181 25.0411 17.0368 25.0525 17.0524C24.9728 17.1302 24.8959 17.208 24.8077 17.2952C25.2746 17.9677 25.8183 18.5468 26.4247 19.0667C26.3222 18.6651 26.1912 18.279 26.0603 17.893C26.0375 17.8276 25.9977 17.7622 25.9948 17.6937C25.992 17.6314 26.0147 17.5412 26.0546 17.5131C26.0973 17.482 26.1855 17.4913 26.2339 17.5194C26.2994 17.5598 26.3564 17.6314 26.4048 17.6968C26.6581 18.0362 26.9058 18.3786 27.162 18.7305C27.1791 18.6838 27.2047 18.6339 27.2189 18.5841C27.3129 18.2354 27.4125 17.8898 27.4951 17.5412C27.5833 17.1707 27.6488 16.7908 27.5634 16.4079C27.5036 16.1402 27.4524 15.86 27.2816 15.6545C27.1221 15.7261 26.9741 15.7915 26.8261 15.8537C26.8175 15.8319 26.809 15.8133 26.7976 15.7915C26.9086 15.6607 27.0794 15.6483 27.2417 15.5704C27.1819 15.4739 27.1278 15.3836 27.0794 15.3058C26.9485 15.3431 26.8375 15.3774 26.7264 15.4085C26.6126 15.4428 26.5015 15.477 26.3905 15.5113C26.2966 15.5393 26.1998 15.5704 26.0888 15.6047C26.2425 15.1906 26.6012 15.2062 26.8688 15.0567C26.7549 14.817 26.7151 14.8076 26.5101 14.8948C26.3507 14.9633 26.1827 15.01 26.0147 15.0536C25.9777 15.0629 25.9293 15.0194 25.8838 15.0007C25.9151 14.9571 25.935 14.8948 25.9777 14.873C26.0688 14.8232 26.1742 14.8014 26.2624 14.7516C26.3108 14.7236 26.3421 14.6582 26.382 14.6084C26.3051 14.5648 26.2226 14.4745 26.1542 14.487C26.0176 14.5119 25.8866 14.5866 25.7557 14.6489C25.6048 14.7205 25.4653 14.7298 25.34 14.5991C25.2205 14.4776 25.0895 14.3624 24.9956 14.2223C24.8846 14.0573 24.7536 14.0729 24.6084 14.0916C24.597 14.1072 24.5885 14.1196 24.5771 14.1352C24.7678 14.3438 24.9586 14.5555 25.1493 14.7641C25.0554 14.8668 24.8931 14.9104 24.7707 14.8014C24.6283 14.6738 24.5145 14.5119 24.3977 14.3562C24.3494 14.294 24.3237 14.2068 24.2896 14.1352C23.9423 14.2877 23.7914 14.5025 23.8768 14.708C24.002 14.5773 24.1159 14.4309 24.3038 14.406C24.2839 14.4621 24.2526 14.5025 24.2184 14.5337C24.1273 14.6209 24.0334 14.708 23.9366 14.789C23.8711 14.845 23.8483 14.9011 23.9052 14.9758C24.0504 14.8544 24.1956 14.7329 24.3408 14.6146C24.355 14.6302 24.3693 14.6458 24.3835 14.6613C24.3522 14.7049 24.3294 14.7547 24.2924 14.789C24.1928 14.8793 24.0818 14.9602 23.985 15.0536C23.9536 15.0847 23.9451 15.1439 23.9252 15.1937C24.1131 15.1221 24.2269 14.9571 24.4404 14.9011C24.3266 15.1501 24.0504 15.1688 23.9963 15.4272C24.1131 15.3307 24.2326 15.2342 24.3494 15.1377C24.3579 15.1501 24.3664 15.1626 24.375 15.175C24.281 15.2622 24.1928 15.3556 24.0931 15.4365C23.9992 15.5113 24.0077 15.5891 24.0618 15.6918C24.17 15.5984 24.2725 15.5113 24.3721 15.4241C24.3607 15.6451 24.1102 15.6763 24.1159 15.9067ZM23.4668 3.52181C23.4384 3.54983 23.427 3.55917 23.4184 3.57162C23.0057 4.36863 22.627 5.18433 22.4078 6.07163C22.2712 6.61646 22.1858 7.17687 22.0833 7.73104C22.0747 7.77152 22.0975 7.83067 22.1203 7.86803C22.2569 8.08285 22.3936 8.29455 22.5359 8.50314C22.5929 8.5872 22.6526 8.66816 22.721 8.76467C22.7523 8.70863 22.7694 8.67438 22.7864 8.64013C23 8.21672 23.2078 7.78708 23.4298 7.36989C23.5636 7.12083 23.7487 7.12706 23.8853 7.37301C24.0134 7.6034 24.1358 7.84 24.2554 8.07662C24.3721 8.31323 24.4832 8.55296 24.6027 8.80514C24.7337 8.60588 24.8447 8.40975 24.9813 8.2354C25.1806 7.98322 25.2717 7.71236 25.1806 7.38235C25.155 7.28895 25.1493 7.19243 25.1351 7.09592C24.9301 5.8537 24.486 4.71422 23.9138 3.62767C23.891 3.58408 23.8597 3.5436 23.817 3.47511C23.7771 3.83314 23.8483 4.16316 23.7458 4.48072C23.7117 4.44025 23.6974 4.39977 23.6974 4.35929C23.7003 4.04796 23.706 3.73663 23.706 3.42529C23.706 3.35369 23.686 3.28208 23.6747 3.21359C23.6576 3.21359 23.6376 3.21671 23.6206 3.21671C23.6092 3.29454 23.5864 3.37237 23.5864 3.45021C23.5864 3.75531 23.5921 4.06353 23.5949 4.36863C23.5949 4.40911 23.5864 4.44958 23.5807 4.49006C23.5608 4.49006 23.5409 4.49006 23.5238 4.49006C23.4469 4.17872 23.4896 3.85805 23.4668 3.52181ZM25.0668 13.5997C25.2091 13.6152 25.3059 13.5717 25.3799 13.4191C25.5678 13.0268 25.6304 12.6127 25.5934 12.1738C25.5906 12.1333 25.5934 12.0928 25.5934 12.0523C25.6105 12.0523 25.6276 12.0555 25.6418 12.0555C25.8098 12.5754 25.639 13.0548 25.4425 13.5717C25.5792 13.5125 25.7187 13.5 25.7756 13.4191C25.8895 13.2541 25.9606 13.0517 26.0574 12.8494C26.066 12.8494 26.1087 12.8525 26.1742 12.8556C26.0859 13.0455 26.0062 13.2199 25.9094 13.4285C25.9834 13.3911 26.0574 13.3786 26.0745 13.3382C26.14 13.1887 26.1855 13.0331 26.2396 12.8774C26.2567 12.8276 26.2795 12.7778 26.2994 12.728C26.3165 12.784 26.3564 12.8431 26.3478 12.8929C26.3279 13.0237 26.288 13.1514 26.2539 13.2852C27.2645 12.8992 28.221 12.4135 29.095 11.7441C30.1113 10.9627 31.2614 9.78896 31.4009 9.378C31.3924 9.38111 31.381 9.38111 31.3753 9.38734C31.3497 9.41225 31.3269 9.43403 31.3041 9.45894C31.0166 9.78584 30.675 10.0193 30.2793 10.1532C29.4224 10.4396 28.5683 10.7261 27.7086 11C26.9029 11.2553 26.0944 11.5044 25.3628 11.9776C24.95 12.2454 24.5686 12.5505 24.2554 12.9521C24.2269 12.9863 24.1899 13.0549 24.2013 13.0766C24.301 13.2479 24.2099 13.3911 24.1615 13.5405C24.1387 13.6121 24.1216 13.6837 24.1017 13.7553C24.1216 13.7647 24.1444 13.774 24.1643 13.7834C24.207 13.6962 24.2497 13.6121 24.2953 13.525C24.301 13.5281 24.3066 13.5312 24.3152 13.5343C24.3123 13.5872 24.3095 13.637 24.3038 13.7273C24.3465 13.6868 24.3835 13.6713 24.3864 13.6495C24.4205 13.4347 24.4433 13.2198 24.4775 13.0081C24.486 12.9614 24.523 12.921 24.5458 12.8774C24.5686 12.9147 24.6084 12.9552 24.6084 12.9926C24.5999 13.1296 24.5856 13.2666 24.56 13.4004C24.5429 13.4969 24.5031 13.5872 24.4604 13.718C24.5372 13.6837 24.6027 13.6775 24.6141 13.6464C24.7223 13.3662 24.839 13.086 24.7479 12.756C24.9472 12.8743 24.9415 12.9521 24.708 13.6588C24.8248 13.6869 24.8988 13.6433 24.9529 13.5218C25.0696 13.2603 25.1465 12.9926 25.1493 12.6999C25.1493 12.6563 25.1578 12.6096 25.1664 12.5349C25.3087 12.7591 25.2831 12.9521 25.0668 13.5997ZM23.2562 13.7927C23.1935 13.6837 23.1366 13.609 23.1053 13.5218C23.0768 13.4471 23.0427 13.3288 23.0768 13.2821C23.1793 13.142 23.111 13.0486 23.037 12.949C22.9544 12.8431 22.8719 12.7404 22.7808 12.647C22.0349 11.8873 21.1353 11.4452 20.1645 11.1526C19.2507 10.8786 18.3397 10.6015 17.4287 10.3182C16.8679 10.1439 16.3327 9.90104 15.9456 9.38734C15.9427 9.38423 15.9285 9.38734 15.9114 9.38734C15.9456 9.44649 15.974 9.50253 16.0053 9.55857C16.2986 10.0692 16.7398 10.4272 17.1384 10.8195C18.2145 11.8811 19.4528 12.6563 20.8221 13.1825C20.9076 13.2136 20.9901 13.2448 21.0869 13.279C20.9503 12.8245 20.9503 12.8213 21.0812 12.7528C21.104 12.8774 21.1325 12.9988 21.1467 13.1233C21.1666 13.2977 21.252 13.3911 21.4285 13.4129C21.3773 13.307 21.326 13.2167 21.2833 13.1233C21.2093 12.9521 21.2122 12.9054 21.2862 12.8338C21.3488 12.9895 21.4057 13.1482 21.4769 13.3008C21.5595 13.4783 21.7075 13.525 21.8982 13.5343C21.8726 13.4814 21.8555 13.4534 21.8413 13.4222C21.6449 13.0548 21.5766 12.6626 21.6506 12.2423C21.6648 12.1551 21.7104 12.0741 21.7559 11.9527C21.7787 12.015 21.7844 12.0243 21.7844 12.0305C21.7844 12.0492 21.7815 12.071 21.7787 12.0897C21.6733 12.5816 21.7644 13.0393 21.9893 13.4751C22.0491 13.5903 22.126 13.6277 22.2484 13.5997C22.1174 13.2634 22.0093 12.9303 22.1687 12.5754C22.1943 12.6252 22.2 12.6781 22.1972 12.728C22.1886 13.0082 22.2313 13.2759 22.3651 13.5218C22.4249 13.6339 22.5075 13.6744 22.6213 13.6557C22.3964 13.0237 22.3737 12.868 22.5075 12.7342C22.5217 12.8245 22.5245 12.9054 22.5445 12.977C22.6014 13.1856 22.6583 13.3942 22.7324 13.5934C22.7523 13.6464 22.8263 13.6744 22.8775 13.7118C22.8889 13.6993 22.9003 13.6869 22.9117 13.6775C22.7665 13.4253 22.6583 13.1638 22.7836 12.8649C22.832 13.0424 22.8235 13.2385 22.8889 13.4004C22.9459 13.5623 23.017 13.7585 23.2562 13.7927ZM23.6661 7.66877C23.632 7.72481 23.612 7.74972 23.6006 7.77462C23.3074 8.35059 23.0057 8.92034 22.8149 9.54923C22.5986 10.2528 22.4306 10.9658 22.4904 11.7223C22.5018 11.8687 22.5445 11.9745 22.6754 12.0181C22.7381 11.9589 22.795 11.9029 22.8548 11.8469C22.8662 11.8593 22.8775 11.8718 22.8861 11.8842C22.8405 11.9527 22.7978 12.0212 22.7466 12.1022C22.8092 12.1551 22.8662 12.2205 22.9345 12.2547C22.9971 12.2859 23.074 12.2859 23.1452 12.3014C23.1423 12.3139 23.1395 12.3263 23.1395 12.3388C23.0968 12.3388 23.0541 12.3388 23.0142 12.3388C23.0085 12.3544 23.0028 12.3668 22.9971 12.3824C23.0854 12.4384 23.1765 12.4913 23.2362 12.5287C23.39 12.7746 23.5295 12.9988 23.6661 13.2198C23.8284 12.9614 23.985 12.7155 24.1415 12.4664C24.1301 12.4602 24.0931 12.4477 24.0447 12.4259C24.1586 12.401 24.2554 12.3761 24.3522 12.3543C24.3493 12.3388 24.3493 12.3201 24.3465 12.3045C24.3152 12.2827 24.2839 12.2641 24.2241 12.2236C24.3237 12.2143 24.3949 12.2267 24.4518 12.1987C24.5088 12.1707 24.56 12.1115 24.5942 12.0523C24.6056 12.0306 24.5543 11.9652 24.5259 11.9278C24.5059 11.8998 24.4718 11.8873 24.4461 11.8656C24.4917 11.8749 24.5287 11.8905 24.5686 11.9091C24.7764 12.0119 24.8618 11.9527 24.8532 11.7005C24.8447 11.439 24.8362 11.1806 24.8077 10.9222C24.7251 10.1594 24.4945 9.44338 24.1928 8.75533C24.0248 8.39419 23.8455 8.0486 23.6661 7.66877ZM32.1724 11.5885C32.0215 11.3612 31.9703 11.1184 32.0471 10.8039C31.9788 10.8506 31.9219 10.8693 31.919 10.8973C31.882 11.0966 31.8507 11.2958 31.8279 11.4982C31.8194 11.5667 31.845 11.6383 31.8536 11.7068C31.8422 11.713 31.8279 11.7161 31.8165 11.7223C31.7852 11.6819 31.7454 11.6476 31.7254 11.604C31.6173 11.3269 31.771 11.081 31.8308 10.7914C31.7482 10.8039 31.6457 10.7883 31.6173 10.8319C31.4664 11.0654 31.3326 11.3114 31.3867 11.6227C31.3952 11.6725 31.3696 11.7317 31.3582 11.7877C31.344 11.7846 31.3297 11.7815 31.3155 11.7784C31.2273 11.5324 31.1846 11.2834 31.3041 11.0312C31.2984 11.1152 31.2956 11.2024 31.287 11.3269C31.3639 11.1215 31.4265 10.9565 31.4977 10.7697C31.4379 10.7852 31.3639 10.7821 31.3497 10.8132C31.2472 11.0218 31.139 11.2304 31.0707 11.4546C31.0166 11.632 31.0166 11.8313 30.9938 12.0212C30.9767 12.0243 30.9597 12.0274 30.9426 12.0305C30.7461 11.6694 30.5924 11.2989 30.7433 10.835C30.507 10.9969 30.4444 11.165 30.544 11.4702C30.655 11.8095 30.5611 12.0959 30.3931 12.4228C30.3163 12.043 30.2451 11.7005 30.1739 11.3581C29.969 11.4951 29.9519 11.5573 29.9804 11.8313C30.0117 12.1302 30.0259 12.4291 30.043 12.731C30.0458 12.7902 30.0344 12.8525 30.0202 12.9116C30.0145 12.9303 29.9804 12.949 29.9576 12.9552C29.949 12.9583 29.9234 12.921 29.9234 12.8992C29.9206 12.8494 29.932 12.7964 29.9291 12.7466C29.912 12.3824 29.8949 12.0181 29.875 11.6538C29.8522 11.6507 29.8295 11.6445 29.8095 11.6414C29.7925 11.7037 29.7583 11.7659 29.7611 11.8251C29.7668 12.043 29.7982 12.2641 29.7953 12.482C29.7953 12.6314 29.7583 12.7778 29.7384 12.9272C29.7241 12.9241 29.7099 12.9241 29.6957 12.921C29.6814 12.5598 29.6644 12.1956 29.6473 11.8064C29.5163 11.906 29.411 11.9776 29.3142 12.0648C29.2857 12.0897 29.2715 12.1551 29.2772 12.1956C29.3484 12.5878 29.3711 12.9832 29.3341 13.3849C29.3313 13.4222 29.3398 13.4783 29.3597 13.4938C29.5306 13.6215 29.7071 13.7398 29.8836 13.8643C29.9291 13.6806 29.9718 13.5125 30.0145 13.3475C30.0316 13.3506 30.0487 13.3537 30.0658 13.3537C30.0686 13.4035 30.0828 13.4565 30.0743 13.5063C30.0601 13.5903 30.0287 13.6713 30.0088 13.7553C29.9661 13.939 29.9832 13.9702 30.1569 14.0542C30.2252 13.7553 30.2963 13.4596 30.3647 13.1607C30.3903 13.1669 30.4131 13.1731 30.4387 13.1825C30.3846 13.4471 30.3305 13.7086 30.2707 14.0013C30.396 13.9577 30.5013 13.9297 30.6038 13.883C30.6351 13.8674 30.6636 13.8114 30.6693 13.7678C30.7177 13.4627 30.7575 13.1545 30.8031 12.8463C30.8088 12.8151 30.8259 12.784 30.8372 12.7528C30.8515 12.756 30.8629 12.7622 30.8771 12.7653C30.954 13.1202 30.7575 13.4533 30.7775 13.8052C30.9511 13.7678 30.9483 13.7678 30.9739 13.609C31.0024 13.4347 31.0394 13.2603 31.0764 13.086C31.0849 13.0517 31.1105 13.0237 31.1305 12.9926C31.1475 12.9988 31.1646 13.005 31.1846 13.0144C31.1447 13.2323 31.1048 13.4534 31.0564 13.7149C31.2045 13.6339 31.3297 13.5779 31.4408 13.5001C31.4863 13.4689 31.5347 13.3973 31.5376 13.3382C31.5518 13.1296 31.5461 12.921 31.5461 12.7124C31.5461 12.6096 31.5347 12.51 31.5262 12.4073C31.5404 12.4073 31.5575 12.4042 31.5717 12.4042C31.6827 12.7155 31.6799 13.0424 31.6457 13.3849C31.7055 13.3382 31.7653 13.2852 31.7795 13.2198C31.8052 13.114 31.7966 12.9957 31.8109 12.8867C31.8194 12.8276 31.8479 12.7746 31.8678 12.7186C31.8877 12.7248 31.9048 12.7311 31.9247 12.7373C31.9133 12.9054 31.9048 13.0735 31.8934 13.251C32.2322 13.1171 32.0841 12.784 32.1525 12.5443C32.1696 12.5443 32.1866 12.5443 32.2037 12.5474C32.2123 12.7093 32.2208 12.8712 32.2293 13.0517C32.3318 12.9428 32.3688 12.8307 32.329 12.6968C32.3005 12.6034 32.3147 12.5349 32.4315 12.4789C32.4372 12.6127 32.4428 12.7466 32.4485 12.8898C32.5795 12.8245 32.682 12.7466 32.6791 12.5661C32.6763 12.4509 32.6934 12.3326 32.7076 12.2142C32.7133 12.1675 32.7389 12.1208 32.756 12.0741C32.7731 12.0773 32.793 12.0835 32.8101 12.0866C32.7987 12.2734 32.7873 12.4633 32.7731 12.675C32.961 12.4882 32.8442 12.2609 32.8699 12.0648C32.8841 12.0617 32.8983 12.0617 32.9126 12.0586C32.9325 12.2049 32.9524 12.3544 32.9695 12.4945C33.2827 12.4011 33.2855 12.1053 33.3054 11.8188C33.3225 11.822 33.3424 11.8282 33.3595 11.8313C33.3738 11.9403 33.388 12.0461 33.4079 12.1862C33.5218 12.0523 33.6897 11.9994 33.6527 11.7846C33.647 11.7597 33.6869 11.7223 33.7068 11.6912C33.7438 11.7192 33.7837 11.7472 33.8264 11.7784C33.946 11.6756 34.0883 11.5542 34.2563 11.4079C34.0029 11.3238 33.7752 11.2522 33.5503 11.1775C33.5275 11.2367 33.5076 11.2802 33.4905 11.3269C33.4962 11.1775 33.4221 11.1308 33.3083 11.1184C33.2627 11.1121 33.2172 11.0997 33.1716 11.081C33.0834 11.0467 33.0435 11.0872 33.0236 11.1775C33.0037 11.2553 32.9752 11.3301 32.9496 11.4048C32.9325 11.4017 32.9154 11.3985 32.8955 11.3954C32.8784 11.2771 32.8613 11.1557 32.8442 11.0405C32.662 11.1619 32.6564 11.3674 32.6307 11.5729C32.4742 11.3736 32.6165 11.1557 32.5823 10.9533C32.4542 10.8786 32.366 10.9222 32.3176 11.0654C32.2777 11.2242 32.2322 11.3892 32.1724 11.5885ZM27.9961 9.9633C27.9961 9.95396 27.9933 9.94151 27.9933 9.93217C28.0189 9.92906 28.0445 9.91972 28.0701 9.91972C28.2353 9.93217 28.3235 9.83565 28.3833 9.67998C28.5057 9.3562 28.6423 9.03553 28.7676 8.71174C29.0551 7.96765 29.3569 7.23291 29.8067 6.58534C29.8807 6.4826 29.9519 6.37674 30.0287 6.27089C30.006 6.26466 29.9974 6.25843 29.9917 6.26155C29.9519 6.27711 29.9149 6.29579 29.875 6.31447C29.2288 6.6258 28.6139 7.00252 28.0445 7.46018C27.5492 7.85869 27.0766 8.29144 26.604 8.72108C26.53 8.78957 26.456 8.91411 26.4531 9.01373C26.4475 9.26591 26.4845 9.52121 26.5044 9.77027C26.7264 9.85745 26.9827 9.70179 27.1876 9.92283C27.0396 9.90415 26.9086 9.88235 26.7748 9.87613C26.4617 9.86056 26.5072 9.79518 26.4958 10.1719C26.4958 10.1812 26.5044 10.1906 26.5101 10.1999C26.7037 10.2373 26.9029 10.2684 27.0965 10.3182C27.2047 10.3462 27.273 10.3245 27.3328 10.2217C27.4808 9.96953 27.6488 9.72669 27.6915 9.41846C27.6972 9.37488 27.7456 9.34063 27.7769 9.30327C27.7997 9.31884 27.8225 9.33441 27.8424 9.34686C27.7428 9.62084 27.6431 9.8917 27.5463 10.1563C27.6545 10.1688 27.7883 10.1812 27.9193 10.203C28.0844 10.2311 28.1783 10.1594 28.2011 9.9633C28.1328 9.9633 28.0644 9.9633 27.9961 9.9633ZM17.2893 6.24287C17.2836 6.25532 17.275 6.26466 17.2693 6.27711C17.2807 6.2989 17.2921 6.3207 17.3063 6.33938C17.8273 7.04299 18.2088 7.83689 18.5276 8.66815C18.6728 9.04486 18.8351 9.41224 18.9916 9.78273C19.0287 9.8699 19.0742 9.9166 19.1767 9.88236C19.2564 9.85745 19.3475 9.86679 19.4329 9.86368C19.4329 9.87302 19.4329 9.88236 19.4329 9.8917C19.3247 9.90726 19.2165 9.92283 19.0657 9.94462C19.1625 10.0474 19.2279 10.1781 19.3048 10.1844C19.4557 10.1999 19.6122 10.1501 19.7745 10.1283C19.7062 9.97264 19.635 9.82942 19.5781 9.67998C19.4756 9.40912 19.4699 9.32196 19.5354 9.21922C19.5582 9.28771 19.5752 9.34998 19.6009 9.40602C19.7147 9.64886 19.8286 9.89481 19.951 10.1345C20.025 10.2778 20.1161 10.3992 20.2898 10.2746C20.3154 10.256 20.3524 10.2653 20.3866 10.2622C20.5318 10.2404 20.6798 10.2155 20.8221 10.1937C20.8392 9.82632 20.8307 9.81698 20.5232 9.86368C20.4492 9.87613 20.378 9.89792 20.304 9.91348C20.2585 9.92282 20.2101 9.92595 20.1645 9.93217C20.1617 9.91661 20.1588 9.90103 20.156 9.88547C20.2585 9.8481 20.361 9.7983 20.4663 9.78273C20.5773 9.76405 20.694 9.77961 20.8165 9.77961C20.8307 9.55857 20.8364 9.33441 20.8677 9.11336C20.8905 8.96392 20.8563 8.86741 20.7567 8.76778C19.766 7.78085 18.6671 6.9745 17.4743 6.31136C17.4117 6.28023 17.349 6.26466 17.2893 6.24287ZM19.4756 14.3438C19.4898 14.3344 19.5012 14.3282 19.5155 14.3189C19.5923 14.4154 19.655 14.5648 19.7517 14.5991C19.8457 14.6302 19.971 14.543 20.0934 14.5088C19.9966 14.3656 19.9169 14.2473 19.8371 14.129C19.8485 14.1196 19.8599 14.1103 19.8713 14.1009C19.988 14.2068 20.0222 14.4278 20.2499 14.4372C20.1902 14.3095 20.1446 14.2099 20.0934 14.1009C20.2329 14.0854 20.23 14.1974 20.2471 14.269C20.2784 14.4154 20.3553 14.4434 20.4578 14.3718C20.5859 14.2815 20.7197 14.213 20.8705 14.1943C20.8734 14.1943 20.8762 14.1881 20.8905 14.1694C20.6713 13.9017 20.4521 13.6339 20.23 13.3662C20.2841 13.5281 20.3553 13.6869 20.4378 13.8363C20.4634 13.883 20.5289 13.9017 20.5745 13.939C20.5972 13.9577 20.6286 13.9764 20.6371 14.0044C20.6428 14.0262 20.6286 14.0698 20.6115 14.0822C20.5887 14.0978 20.5432 14.1009 20.5261 14.0854C20.4606 14.0262 20.3894 13.9702 20.3496 13.8923C20.267 13.7273 20.1958 13.5561 20.1361 13.3786C20.0905 13.2448 20.008 13.2136 19.8628 13.2136C19.9254 13.4129 19.9795 13.5903 20.0364 13.7678C20.025 13.774 20.0108 13.7803 19.9994 13.7896C19.8998 13.5623 19.8001 13.335 19.7033 13.1078C19.6863 13.1171 19.672 13.1265 19.655 13.1358C19.7176 13.2697 19.7774 13.4067 19.84 13.5405C19.7859 13.5218 19.7432 13.4876 19.7233 13.444C19.6749 13.3413 19.6379 13.2292 19.5895 13.1264C19.5724 13.0891 19.5354 13.0642 19.5069 13.0362C19.4955 13.2977 19.692 13.4502 19.7033 13.6806C19.6322 13.5935 19.5809 13.5001 19.5354 13.4004C19.4927 13.3008 19.4614 13.1981 19.4272 13.1047C18.3369 13.6339 17.3604 14.3344 16.4893 15.2715C17.4287 15.2466 18.297 15.0131 19.1824 14.8077C19.1425 14.7267 19.1112 14.6644 19.0799 14.5991C19.0856 14.5804 19.0941 14.5617 19.0998 14.5399C19.2564 14.7547 19.4272 14.8045 19.6179 14.652C19.5667 14.5461 19.5212 14.4434 19.4756 14.3438ZM30.8344 15.228C30.7803 15.175 30.7234 15.1252 30.6721 15.0723C30.0259 14.4496 29.3541 13.8674 28.5712 13.4565C28.4801 13.4098 28.4061 13.3786 28.3264 13.4876C28.4032 13.3133 28.278 13.2915 28.1926 13.2634C28.11 13.2354 28.016 13.2417 27.9249 13.2323C27.9335 13.2136 27.9449 13.1763 27.962 13.1358C27.8965 13.0984 27.8367 13.0642 27.7712 13.0268C27.7029 13.5934 27.6944 13.6152 27.552 13.718C27.5663 13.6152 27.5463 13.4627 27.5976 13.4222C27.7314 13.3195 27.646 13.2199 27.6317 13.114C27.5719 13.2261 27.5463 13.3506 27.4979 13.4658C27.4467 13.5872 27.3755 13.6993 27.3129 13.8176C27.3043 13.8114 27.293 13.8052 27.2844 13.802C27.3414 13.6121 27.3983 13.4191 27.4638 13.1918C27.2787 13.2479 27.1905 13.3164 27.1421 13.4845C27.088 13.6806 26.9883 13.8643 26.8887 14.0387C26.8659 14.0791 26.7663 14.0698 26.7008 14.0854C26.7008 14.0262 26.6866 13.9639 26.7008 13.9079C26.7407 13.7709 26.7919 13.637 26.8375 13.5001C26.8232 13.4938 26.8062 13.4845 26.7919 13.4783C26.6866 13.7086 26.5841 13.9359 26.4759 14.1694C26.6581 14.2566 26.8375 14.3469 27.0197 14.4341C27.1335 14.0978 27.162 14.0605 27.2446 14.104C27.1962 14.213 27.1478 14.3251 27.0965 14.4372C27.1193 14.4527 27.1392 14.4683 27.162 14.4839C27.2503 14.3687 27.3385 14.2566 27.4381 14.132C27.4723 14.3282 27.3043 14.378 27.2275 14.5119C27.3015 14.5337 27.3641 14.5461 27.4211 14.5742C27.5235 14.624 27.5919 14.5991 27.6517 14.4901C27.6944 14.4154 27.757 14.3531 27.8111 14.2846C27.8253 14.2971 27.8424 14.3095 27.8566 14.322C27.7911 14.4309 27.7257 14.543 27.6517 14.6707C28.6993 14.9353 29.7384 15.228 30.8344 15.228ZM27.6573 7.208C27.6744 7.21423 27.6915 7.22046 27.7114 7.22668C27.9107 7.09592 28.1128 6.96827 28.3093 6.83128C28.3406 6.80949 28.3662 6.75345 28.3747 6.70987C28.4146 6.50127 28.4374 6.28645 28.4829 6.08097C28.5996 5.57038 28.8388 5.11895 29.0751 4.66752C29.1092 4.59903 29.1405 4.53053 29.1719 4.46204C29.1007 4.46827 29.0494 4.49317 29.0039 4.5243C28.4032 4.93526 27.8054 5.35245 27.2019 5.76029C26.8403 6.00625 26.5015 6.28334 26.2226 6.64137C26.0802 6.82506 25.9436 7.01497 25.8041 7.20177C25.8553 7.19866 25.8866 7.17376 25.9179 7.14885C26.1058 7.00564 26.2112 7.04299 26.271 7.28894C26.2966 7.39791 26.3193 7.50999 26.325 7.61896C26.3307 7.76528 26.382 7.82444 26.5243 7.77462C26.5499 7.35744 26.5015 6.90912 26.8261 6.576C26.7948 6.76591 26.7122 6.94648 26.678 7.13328C26.641 7.34187 26.6439 7.5567 26.6296 7.75284C26.8432 7.88671 27.0225 7.88359 27.1734 7.67811C27.1819 7.66566 27.1933 7.65632 27.2076 7.65009C27.2901 7.59717 27.31 7.52245 27.31 7.41971C27.31 7.24225 27.3186 7.06167 27.3385 6.88421C27.3926 6.43278 27.5008 6.00314 27.7911 5.65444C27.8196 5.6202 27.8538 5.5953 27.8851 5.56416C27.7826 5.87238 27.6374 6.15258 27.5378 6.44835C27.4353 6.75657 27.3926 7.08346 27.4695 7.42593C27.5179 7.36989 27.552 7.30762 27.5663 7.23913C27.626 6.94025 27.6773 6.64137 27.7371 6.3456C27.7456 6.29579 27.7883 6.25843 27.8168 6.21173C27.8253 6.21796 27.8339 6.22418 27.8424 6.2273C27.7826 6.5542 27.72 6.8811 27.6573 7.208ZM20.5944 2.77461C20.5802 2.78083 20.5688 2.79018 20.5545 2.7964C20.5545 2.86178 20.5545 2.92405 20.5545 2.98943C20.5574 3.05481 20.5631 3.12331 20.5659 3.18869C20.5688 3.29143 20.5318 3.33501 20.4378 3.28831C20.4094 3.27585 20.3809 3.2634 20.3553 3.25095C20.2015 3.55294 20.2072 3.54983 20.2499 3.85494C20.3183 4.34996 20.3553 4.84809 20.3097 5.34934C20.3069 5.39293 20.3353 5.45519 20.3667 5.4801C20.5062 5.59218 20.6513 5.69181 20.7908 5.80389C20.8563 5.85681 20.9104 5.86926 20.993 5.82879C21.1353 5.75718 21.2862 5.69803 21.4399 5.65756C21.5395 5.63265 21.6477 5.65134 21.7587 5.65134C21.5253 5.73228 21.309 5.80388 21.0954 5.8786C20.9901 5.91596 20.9844 5.98757 21.0584 6.05607C21.1011 6.09654 21.1695 6.11833 21.2264 6.11522C21.3972 6.10588 21.568 6.06541 21.7417 6.06541C22.0947 6.06541 22.0121 6.10588 22.0861 5.77587C22.0861 5.76964 22.0776 5.76341 22.0804 5.76963C21.9381 5.91285 21.7616 5.81634 21.6079 5.85058C21.4428 5.88794 21.2776 5.92842 21.1125 5.96889C21.141 5.92219 21.178 5.88794 21.2179 5.8786C21.4342 5.82879 21.6534 5.77898 21.8726 5.74473C22.0036 5.72294 22.0036 5.73539 22.0121 5.61086C21.921 5.60463 21.8299 5.59841 21.7417 5.58907C21.7417 5.5735 21.7417 5.55793 21.7445 5.54237C21.8498 5.51746 21.958 5.49566 22.0662 5.47076C22.0776 5.37113 22.0292 5.30886 21.9409 5.31509C21.8698 5.3182 21.8015 5.35868 21.7303 5.38358C21.7047 5.39292 21.6762 5.39915 21.6477 5.40538C21.6563 5.37113 21.6534 5.31509 21.6733 5.30575C21.7616 5.26528 21.8527 5.21547 21.9438 5.21235C22.1032 5.20613 22.1886 5.37424 22.1146 5.52991C22.089 5.58284 22.0634 5.63887 22.0377 5.6918C22.0491 5.69803 22.0577 5.70425 22.069 5.71048C22.0833 5.69491 22.1004 5.68246 22.1089 5.66378C22.1972 5.49878 22.2 5.33377 22.1402 5.15008C22.0975 5.0131 22.0349 4.96328 21.9068 4.98196C21.8185 4.99441 21.7303 4.98508 21.6392 4.98508C21.6392 4.96951 21.6363 4.95395 21.6363 4.9415C21.7673 4.92593 21.8982 4.91036 22.0463 4.89168C21.9836 4.7796 21.9495 4.66441 21.8726 4.59903C21.8271 4.55855 21.7246 4.59591 21.6477 4.58657C21.5965 4.58034 21.5481 4.55855 21.4997 4.5461C21.5025 4.52742 21.5054 4.50874 21.5082 4.49317C21.6107 4.49317 21.7104 4.49317 21.8413 4.49317C21.6306 4.16005 21.4371 3.85805 21.2463 3.55917C21.1837 3.58408 21.141 3.60276 21.1011 3.61833C21.0954 3.60899 21.0926 3.59964 21.0869 3.5903C21.1125 3.55294 21.141 3.5187 21.1752 3.46888C20.9787 3.22916 20.788 3.00188 20.5944 2.77461ZM25.1237 5.35245C25.1237 5.37113 25.1294 5.4116 25.1322 5.44274C25.303 5.44274 25.4625 5.44274 25.6219 5.44274C25.6247 5.45519 25.6247 5.46453 25.6276 5.47698C25.4795 5.54236 25.3344 5.60774 25.1863 5.67312C25.1863 5.68558 25.1892 5.69803 25.1892 5.71048C25.2347 5.71671 25.2831 5.73539 25.3258 5.72605C25.6703 5.63888 25.9977 5.68246 26.3222 5.82879C26.3734 5.85058 26.4588 5.84125 26.5101 5.807C26.6553 5.7136 26.7862 5.59841 26.9286 5.50189C26.9997 5.45208 27.0225 5.39915 27.014 5.30263C26.977 4.79827 26.9713 4.2908 27.0908 3.79578C27.1478 3.56539 27.0396 3.42218 26.9713 3.27897C26.8887 3.28208 26.8318 3.28831 26.7748 3.29142C26.7748 3.24161 26.7777 3.18869 26.772 3.13887C26.7663 3.09217 26.7464 3.04547 26.735 2.99877C26.7435 2.99877 26.7549 2.99877 26.7634 2.99877C26.7634 2.93961 26.7634 2.88046 26.7634 2.77461C26.2311 3.30387 25.8268 3.87984 25.4795 4.51496C25.5963 4.53987 25.6987 4.41223 25.7927 4.50251C25.7927 4.52119 25.7955 4.54299 25.7955 4.56167C25.6788 4.58035 25.5592 4.59902 25.4254 4.62081C25.3771 4.70799 25.3144 4.81385 25.2489 4.92904C25.5735 4.91347 25.5735 4.91347 25.6133 4.99753C25.2205 4.98819 25.2205 4.98819 25.1578 5.2466C25.3287 5.28396 25.5336 5.10962 25.7101 5.34934C25.4966 5.35246 25.323 5.35245 25.1237 5.35245ZM25.9834 8.0486C25.9635 8.03926 25.9464 8.03304 25.9265 8.0237C25.7984 8.30078 25.6731 8.57476 25.545 8.85184C25.5194 8.90477 25.4938 8.95769 25.4625 9.01062C25.3144 9.26903 25.1578 9.52433 25.0155 9.78585C24.9472 9.90727 24.9842 10.0349 25.0326 10.1875C25.1778 9.95396 25.3087 9.74537 25.4397 9.53677C25.4539 9.54611 25.4681 9.55545 25.4824 9.56479C25.4169 9.79207 25.3571 10.0256 25.2831 10.2497C25.1522 10.6389 25.1265 10.7821 25.1749 10.9409C25.4141 10.4832 25.6532 10.4116 26.0802 10.6856C26.177 9.78895 26.0973 8.91722 25.9834 8.0486ZM22.1829 10.9347C22.1658 10.779 22.1687 10.6202 22.1288 10.4708C22.0491 10.175 21.9466 9.88547 21.8555 9.5897C21.847 9.5648 21.8612 9.53055 21.8669 9.47451C22.0064 9.7049 22.1345 9.91348 22.2626 10.1283C22.3822 9.9415 22.3281 9.79829 22.2484 9.65196C22.0007 9.20676 21.6876 8.79892 21.5253 8.29767C21.4968 8.20738 21.4371 8.12954 21.3887 8.04548C21.2065 8.92033 21.1438 9.78896 21.2349 10.6887C21.6221 10.3618 21.8157 10.421 22.1829 10.9347ZM31.7198 8.37861C31.3155 8.57475 30.9255 8.75533 30.544 8.95458C30.1825 9.14138 29.8295 9.34686 29.4736 9.54611C29.2459 9.67065 29.2373 9.90727 29.2174 10.1563C29.3683 10.0972 29.5192 10.038 29.6416 9.9384C29.875 9.74226 30.0885 9.52121 30.3134 9.31261C30.3419 9.28771 30.3761 9.26903 30.4074 9.25035C30.4188 9.26592 30.4301 9.27837 30.4387 9.29393C30.2223 9.51809 30.006 9.74225 29.7782 9.98198C30.6807 9.79206 31.287 9.21921 31.7198 8.37861ZM18.1632 10.1657C18.0921 9.98199 18.0266 9.80764 17.9583 9.63952C17.9469 9.61461 17.9212 9.59593 17.8956 9.58036C17.6793 9.4496 17.4686 9.30639 17.2465 9.1912C16.7199 8.91722 16.1904 8.6557 15.6609 8.39107C15.6552 8.38795 15.6438 8.39418 15.6125 8.40352C16.0423 9.21922 16.6259 9.79518 17.5113 9.98198C17.2864 9.75159 17.0786 9.53677 16.8708 9.32195C16.8793 9.3095 16.8907 9.29705 16.8992 9.28459C16.922 9.29705 16.9505 9.30328 16.9704 9.31885C17.1754 9.50253 17.3917 9.67688 17.5796 9.88236C17.7447 10.0536 17.9326 10.1283 18.1632 10.1657ZM16.4295 7.27338C16.3669 6.90601 16.179 6.60713 15.9769 6.31136C15.8715 6.15569 15.7263 6.14947 15.5555 6.11522C15.5812 6.17437 15.5954 6.2055 15.6096 6.23663C15.6893 6.38296 15.7691 6.52306 15.6637 6.70364C15.6466 6.73477 15.695 6.85619 15.7406 6.88421C15.9655 7.0212 16.1961 7.14262 16.4295 7.27338ZM31.7283 6.14324C31.7226 6.12767 31.7169 6.11521 31.7112 6.09965C31.6059 6.14323 31.4692 6.1588 31.3952 6.23975C31.139 6.52306 30.9739 6.86864 30.8999 7.29828C30.9597 7.2547 30.9967 7.22668 31.0337 7.20489C31.1703 7.12705 31.2984 7.02742 31.4436 6.97761C31.5575 6.93714 31.6315 6.88421 31.6742 6.75345C31.4778 6.53552 31.6087 6.34249 31.7283 6.14324ZM17.6707 7.68434C17.5312 7.35433 17.3035 7.18932 17.1127 7.2796C17.1982 7.50688 17.2836 7.73415 17.369 7.95831C17.3604 7.96142 17.349 7.96454 17.3405 7.96765C17.406 8.00501 17.4714 8.03926 17.5398 8.07662C17.5398 8.02992 17.5398 7.98944 17.5398 7.93963C17.7049 8.01435 17.7334 8.28833 17.9469 8.26342C17.8785 7.89293 17.6366 7.71547 17.3092 7.63764C17.3206 7.61896 17.3291 7.60339 17.3405 7.58471C17.4487 7.61896 17.554 7.6501 17.6707 7.68434ZM30.9682 6.37362C30.9568 6.36117 30.9483 6.34872 30.9369 6.33626C30.8771 6.37985 30.8002 6.40787 30.7632 6.47014C30.6323 6.67873 30.5184 6.89978 30.396 7.11771C30.265 7.35121 30.1796 7.60339 30.1028 7.88048C30.2536 7.77462 30.3789 7.69057 30.5013 7.59717C30.5269 7.57849 30.544 7.53179 30.5497 7.49443C30.5981 7.13951 30.7177 6.81883 30.8999 6.52307C30.9255 6.47325 30.9454 6.42344 30.9682 6.37362ZM16.3868 6.3425C16.3726 6.35806 16.3612 6.37674 16.347 6.3923C16.3612 6.41721 16.3726 6.44523 16.3868 6.47014C16.5719 6.73788 16.7142 7.03366 16.7683 7.36367C16.8167 7.6501 17.0416 7.71236 17.2067 7.8618C17.1953 7.77774 17.1754 7.69679 17.1412 7.6283C16.9505 7.25158 16.7569 6.87176 16.5548 6.49816C16.5206 6.43278 16.4437 6.39542 16.3868 6.3425ZM18.317 12.2921C18.2657 12.6314 18.2401 12.9583 18.2686 13.2915C18.4821 13.2354 18.6016 13.1296 18.5703 12.8929C18.5618 12.8307 18.5817 12.7622 18.5846 12.6968C18.5959 12.4135 18.5931 12.4104 18.317 12.2921ZM16.6829 8.52806C16.6544 8.30701 16.6288 8.10153 16.6003 7.89916C16.5975 7.8836 16.5918 7.86803 16.5804 7.85869C16.4067 7.71548 16.2302 7.57537 16.0423 7.42282C16.0423 7.46018 16.0395 7.46641 16.0423 7.46952C16.1818 7.74972 16.3441 8.01746 16.3811 8.34748C16.384 8.36616 16.4039 8.39107 16.421 8.40041C16.5035 8.44711 16.5889 8.48447 16.6829 8.52806ZM28.984 12.3108C28.7306 12.4259 28.7334 12.426 28.7334 12.6844C28.7334 12.8027 28.7221 12.9179 28.7221 13.0362C28.7221 13.0766 28.7334 13.1358 28.7591 13.1514C28.8445 13.2074 28.9384 13.251 29.0694 13.3164C29.0409 12.9583 29.0124 12.6408 28.984 12.3108ZM30.6636 8.4907C30.823 8.46579 30.9056 8.40975 30.954 8.24786C31.0194 8.0237 31.1248 7.81199 31.2159 7.59717C31.2358 7.55047 31.2614 7.50688 31.287 7.46329C31.1134 7.56914 30.9568 7.69056 30.8031 7.81198C30.7775 7.83066 30.749 7.86491 30.7461 7.89605C30.7148 8.08596 30.6892 8.2821 30.6636 8.4907ZM22.0719 10.9222C21.9409 10.6763 21.6506 10.5393 21.4257 10.6358C21.2349 10.7167 21.2122 10.8506 21.3317 11.0032C21.5936 10.9751 21.8356 10.9471 22.0719 10.9222ZM16.401 11.7192C16.4864 11.4359 16.5377 11.1464 16.5121 10.8506C16.5092 10.8195 16.4751 10.7665 16.4523 10.7665C16.3128 10.7603 16.1733 10.7634 16.0082 10.7634C16.2615 11.0499 16.364 11.3674 16.401 11.7192ZM29.095 6.04984C29.1149 6.04673 29.132 6.0405 29.1519 6.03739C29.1462 5.9471 29.1405 5.85992 29.1348 5.76963C29.132 5.73539 29.1292 5.67935 29.1405 5.67002C29.2943 5.59218 29.2316 5.49255 29.169 5.40226C29.2117 5.3649 29.2715 5.33999 29.28 5.30263C29.2943 5.21235 29.2857 5.11895 29.2857 5.02555C29.2772 5.01933 29.2686 5.01621 29.2601 5.00998C29.0836 5.49877 28.9071 5.98446 28.7277 6.47325C28.7391 6.48259 28.7505 6.48882 28.7648 6.49816C28.8274 6.44212 28.8872 6.37673 28.9583 6.33315C29.1007 6.24597 29.1035 6.24286 29.001 6.09965C28.9868 6.07785 28.9868 6.04361 28.9754 5.98757C29.0324 6.01559 29.0637 6.03116 29.095 6.04984ZM25.2774 10.916C25.5165 10.9502 25.7471 10.9814 25.9891 11.0156C26.0005 10.9845 26.009 10.944 26.0233 10.9098C26.0859 10.7728 26.0261 10.7105 25.9094 10.6638C25.676 10.5704 25.4055 10.6731 25.2774 10.916ZM18.4365 6.27089C18.4451 6.25221 18.4764 6.20862 18.4678 6.18371C18.391 5.95021 18.3113 5.71982 18.223 5.48944C18.2116 5.46142 18.1575 5.45208 18.1262 5.4334C18.112 5.46453 18.0807 5.505 18.0864 5.52991C18.1034 5.5984 18.1376 5.66067 18.149 5.68869C18.149 5.79143 18.1291 5.87238 18.1547 5.93153C18.1803 5.99069 18.2515 6.02182 18.2999 6.06852C18.1632 6.22108 18.2771 6.439 18.5874 6.52929C18.5276 6.42344 18.4821 6.34561 18.4365 6.27089ZM25.2575 6.06541C25.5308 5.9938 25.7841 5.98446 26.0347 6.07786C26.1514 6.12145 26.2282 6.08409 26.3051 5.97201C25.9521 5.84125 25.6076 5.72916 25.2347 5.89728C25.2404 5.95021 25.2489 6.00003 25.2575 6.06541ZM22.331 8.92345C22.2626 8.77712 22.1943 8.63391 22.126 8.48758C22.089 8.89231 22.3025 9.19431 22.4021 9.54301C22.4961 9.31573 22.6384 9.08845 22.3566 8.90165C22.3452 8.91099 22.3224 8.92967 22.331 8.92345ZM29.3882 8.23228C29.5989 8.17002 29.7384 7.94897 29.986 7.97077C30.0117 7.87114 30.0373 7.76217 30.0658 7.65009C29.7014 7.66255 29.4765 7.84312 29.3882 8.23228ZM30.1113 6.87487C30.2052 6.84997 30.2821 6.83128 30.4017 6.80015C30.3561 6.8593 30.3362 6.90912 30.302 6.92469C30.2423 6.95271 30.1768 6.95893 30.1113 6.97139C29.9946 6.99318 29.9263 7.0679 29.9006 7.22357C30.0316 7.19866 30.1939 7.22357 30.2593 7.14573C30.4216 6.95582 30.5383 6.72232 30.675 6.5075C30.6664 6.49505 30.6579 6.48259 30.6465 6.47014C30.5526 6.53863 30.4586 6.60713 30.3476 6.68807C30.2764 6.65694 30.1967 6.70053 30.1113 6.87487ZM21.3744 11.1495C21.6022 11.3332 21.8271 11.3425 22.0577 11.2709C22.089 11.2616 22.1231 11.1993 22.1203 11.1619C22.1174 11.1246 22.0804 11.0623 22.0491 11.0561C21.8271 11 21.6107 11.0312 21.3744 11.1495ZM25.9322 11.1775C25.9322 11.1526 25.935 11.1308 25.935 11.1059C25.7528 11.0779 25.5706 11.0374 25.3884 11.0249C25.2062 11.0125 25.192 11.0436 25.2148 11.2522C25.4625 11.302 25.713 11.3736 25.9322 11.1775ZM18.075 13.4004C18.186 13.3911 18.1661 13.307 18.1718 13.223C18.1832 12.9241 18.1945 12.6221 18.2202 12.3263C18.2287 12.2298 18.2145 12.1862 18.1291 12.1738C18.0323 12.4789 18.0066 13.0922 18.075 13.4004ZM25.1322 8.7242C25.118 8.72108 25.1009 8.71485 25.0867 8.71174C24.7621 9.11025 24.7422 9.22233 24.9329 9.62706C25.0041 9.30639 25.0696 9.01374 25.1322 8.7242ZM20.8592 10.4552C20.825 10.4054 20.7851 10.3058 20.7538 10.3089C20.5517 10.3307 20.3553 10.3743 20.1133 10.421C20.1845 10.4895 20.2243 10.5362 20.2699 10.5642C20.3126 10.5922 20.3695 10.6264 20.4122 10.614C20.5545 10.5766 20.6883 10.5206 20.8592 10.4552ZM22.3452 9.58659C22.348 9.58659 22.3509 9.58347 22.3509 9.58347C22.2911 9.44026 22.2598 9.27215 22.1687 9.16318C21.9922 8.95147 22.015 8.69617 21.9922 8.45645C21.978 8.30389 21.9096 8.21983 21.8299 8.11709C21.7872 8.37861 21.9068 8.60589 21.9068 8.85184C21.9068 8.87052 21.921 8.8892 21.9324 8.90477C22.0691 9.13204 22.2085 9.35931 22.3452 9.58659ZM29.1832 13.4004C29.1975 13.3973 29.2089 13.3942 29.2231 13.3911C29.3 13.0766 29.2686 12.4758 29.1576 12.1956C29.0551 12.2111 29.0722 12.289 29.0779 12.3668C29.1064 12.6657 29.1263 12.9646 29.1548 13.2634C29.1576 13.307 29.1747 13.3537 29.1832 13.4004ZM19.9795 10.3836C19.9169 10.3182 19.8656 10.2217 19.8087 10.2155C19.6521 10.203 19.4955 10.2279 19.3133 10.2404C19.5553 10.5299 19.7033 10.5579 19.9795 10.3836ZM27.1592 10.421C26.9343 10.3774 26.7179 10.3369 26.4902 10.2933C26.4816 10.3618 26.4731 10.421 26.4674 10.4832C26.6069 10.5144 26.735 10.533 26.8574 10.5735C26.9997 10.6233 27.0908 10.5735 27.1592 10.421ZM30.6807 7.50065C30.7348 7.43527 30.7974 7.3948 30.8059 7.34498C30.8771 6.94648 30.9995 6.57599 31.2614 6.24909C31.0308 6.3207 30.6664 7.11148 30.6807 7.50065ZM30.4529 8.05794C30.2166 8.20115 30.0088 8.59343 30.0544 8.84873C30.1369 8.72108 30.1996 8.62145 30.2764 8.50314C30.2736 8.57475 30.2707 8.62146 30.2679 8.66504C30.2793 8.66816 30.2907 8.66815 30.3049 8.67127C30.3533 8.47201 30.4017 8.27276 30.4529 8.05794ZM27.9819 10.2746C27.6887 10.1626 27.4524 10.2217 27.367 10.4272C27.6232 10.5517 27.8253 10.505 27.9819 10.2746ZM25.4539 14.0106C25.3514 14.0262 25.2803 14.0387 25.2034 14.0511C25.4027 14.4527 25.5564 14.5057 25.8041 14.2753C25.6817 14.1134 25.5336 14.1258 25.3685 14.2037C25.3884 14.157 25.4084 14.1103 25.4539 14.0106ZM17.1668 8.50004C17.1611 8.50315 17.1526 8.50626 17.1469 8.50938C17.1241 8.42843 17.1099 8.34437 17.0757 8.26654C17.0416 8.19182 16.9903 8.12955 16.9476 8.06105C16.9334 8.07039 16.922 8.07973 16.9078 8.08907C16.922 8.36927 17.0074 8.609 17.2579 8.81137C17.238 8.61834 17.2807 8.45956 17.1896 8.29144C17.1697 8.33503 17.1611 8.3506 17.1611 8.36305C17.1583 8.40975 17.164 8.45645 17.1668 8.50004ZM16.6573 7.50377C16.6715 7.49443 16.6829 7.4882 16.6971 7.47886C16.606 7.08036 16.4466 6.71609 16.2359 6.37674C16.2075 6.33004 16.1505 6.30825 16.105 6.274C16.0964 6.28334 16.0879 6.29579 16.0794 6.30513C16.3185 6.58844 16.4409 6.93403 16.5377 7.29206C16.5633 7.36678 16.6174 7.43216 16.6573 7.50377ZM29.6757 7.64698C29.7668 7.62207 29.8494 7.57849 29.9348 7.57538C30.1141 7.57226 30.154 7.44462 30.1939 7.29518C29.8494 7.2765 29.7782 7.32319 29.6757 7.64698ZM25.8695 6.4608C25.7272 6.4608 25.6048 6.45457 25.4852 6.46391C25.4482 6.46703 25.3827 6.52929 25.3884 6.54797C25.4027 6.60401 25.434 6.67562 25.4767 6.69741C25.6703 6.7877 25.7272 6.75345 25.8695 6.4608ZM30.4245 11.1277C30.3077 11.1837 30.285 11.2709 30.3362 11.3986C30.3732 11.4888 30.3874 11.5916 30.4131 11.6881C30.4074 11.6912 30.4045 11.6912 30.3988 11.6943C30.3675 11.6258 30.3362 11.5604 30.302 11.4919C30.3163 11.6071 30.3476 11.7192 30.3789 11.8282C30.4074 11.934 30.4358 12.0399 30.47 12.18C30.5782 11.8002 30.4131 11.4702 30.4245 11.1277ZM21.8698 6.73789C21.8897 6.64137 21.9096 6.55731 21.9267 6.47325C21.7559 6.47325 21.605 6.47325 21.4399 6.47325C21.5225 6.71298 21.6819 6.73477 21.8698 6.73789ZM29.986 8.42843C29.7868 8.57475 29.6672 8.7709 29.633 9.03553C29.9804 8.98572 29.9177 8.66193 29.986 8.42843ZM17.3604 8.46268C17.3405 8.80203 17.4487 8.99194 17.685 9.05109C17.665 8.82382 17.5198 8.55296 17.3604 8.46268ZM15.5783 6.58534C15.6011 6.35806 15.5128 6.14635 15.379 6.09342C15.4217 6.18371 15.4644 6.27088 15.5043 6.35494C15.4417 6.31758 15.4047 6.26154 15.362 6.20862C15.3221 6.1588 15.2822 6.10588 15.2338 6.06852C15.1883 6.03427 15.1285 6.0187 15.0915 6.00313C15.2509 6.19616 15.4104 6.38608 15.5783 6.58534ZM32.2692 6.00313C32.0357 6.00936 31.6856 6.43278 31.7511 6.62269C31.9247 6.41721 32.0927 6.21795 32.2692 6.00313ZM25.0468 14.0604C25.0326 14.076 25.0155 14.0947 25.0013 14.1103C25.1522 14.2659 25.303 14.4247 25.4596 14.571C25.4938 14.6053 25.5706 14.6177 25.6133 14.6022C25.75 14.5461 25.8809 14.4745 26.0147 14.406C26.009 14.3873 26.0034 14.3687 25.9948 14.35C25.9094 14.3811 25.8183 14.3998 25.7414 14.4465C25.5621 14.5586 25.5308 14.5648 25.3742 14.4185C25.2945 14.3407 25.2262 14.2504 25.1493 14.1663C25.1208 14.129 25.0838 14.0947 25.0468 14.0604ZM19.951 5.16254C19.951 4.92281 19.951 4.69554 19.951 4.46826C19.8799 4.63327 19.84 4.8045 19.8001 4.97574C19.7717 5.09404 19.8172 5.15631 19.951 5.16254ZM27.0168 10.779C27.2503 10.7136 27.4524 10.6545 27.6801 10.5922C27.3556 10.4365 27.2275 10.4739 27.0168 10.779ZM25.4625 8.19804C25.2774 8.45334 25.3685 8.76467 25.2973 9.04175C25.4738 8.78957 25.4511 8.4907 25.4625 8.19804ZM27.3727 4.39666C27.3613 4.39978 27.347 4.39977 27.3357 4.40289C27.347 4.66441 27.3556 4.92593 27.367 5.19056C27.3784 5.1999 27.3869 5.20924 27.3983 5.21858C27.4381 5.16565 27.5207 5.10338 27.5122 5.05979C27.478 4.83252 27.4211 4.6146 27.3727 4.39666ZM21.9893 6.23353C21.9808 6.22107 21.9751 6.20551 21.9666 6.19305C21.7303 6.20239 21.4883 6.16192 21.2463 6.26155C21.3118 6.33315 21.662 6.35806 21.8954 6.31136C21.9296 6.30202 21.958 6.25843 21.9893 6.23353ZM15.8601 10.7821C15.9199 11.0156 15.9797 11.2553 16.0367 11.4795C16.216 11.1526 16.048 10.8101 15.8601 10.7821ZM21.1154 14.02C20.9616 13.8799 20.9503 13.6184 20.7054 13.5405C20.7766 13.7149 20.8278 13.8612 20.8933 14.0013C20.9389 14.1009 21.0129 14.1165 21.1154 14.02ZM16.6516 6.48881C16.7939 6.83439 16.8935 6.90289 17.1668 6.84374C17.1498 6.71921 17.0444 6.72543 16.9704 6.68807C16.9277 6.66628 16.8451 6.6476 16.8451 6.6258C16.8395 6.46702 16.7313 6.52929 16.6516 6.48881ZM24.1615 13.1451C24.0134 13.3724 23.9195 13.5903 23.8967 13.8487C24.0134 13.8145 24.2127 13.3132 24.1615 13.1451ZM17.0558 7.19866C17.1782 7.19866 17.2807 7.19866 17.3974 7.19866C17.3092 6.94026 17.0957 6.99318 16.9021 6.90912C16.9704 7.03054 17.016 7.11772 17.0558 7.19866ZM26.8716 10.8444C26.8745 10.8226 26.8745 10.7977 26.8773 10.7759C26.7663 10.7198 26.6581 10.6545 26.5442 10.6109C26.5129 10.5984 26.4418 10.642 26.4247 10.6794C26.3877 10.7541 26.4418 10.779 26.5044 10.7946C26.5585 10.807 26.6097 10.8413 26.6638 10.8475C26.7321 10.8568 26.8033 10.8475 26.8716 10.8444ZM19.7119 10.5517C19.709 10.5673 19.7062 10.5797 19.7033 10.5953C19.8912 10.6576 20.082 10.7167 20.2898 10.7852C20.0848 10.4677 20.0706 10.4646 19.7119 10.5517ZM16.7484 7.95831C16.7313 7.96454 16.717 7.97077 16.7 7.97388C16.6772 8.33192 16.7854 8.59966 16.9562 8.61834C16.885 8.40041 16.8167 8.17936 16.7484 7.95831ZM26.3991 14.1383C26.4759 13.9421 26.5471 13.7647 26.6183 13.5872C26.6069 13.5779 26.5983 13.5685 26.5869 13.5561C26.5386 13.5935 26.4702 13.6184 26.4418 13.6682C26.3763 13.7896 26.3307 13.9203 26.2738 14.0573C26.308 14.0822 26.3478 14.1071 26.3991 14.1383ZM20.6542 18.6557C20.6428 18.6495 20.6286 18.6433 20.6172 18.6371C20.5517 18.7585 20.4919 18.883 20.4179 18.9982C20.3325 19.1258 20.378 19.2192 20.4805 19.3376C20.5432 19.0947 20.5973 18.8737 20.6542 18.6557ZM24.9785 14.761C24.7935 14.5586 24.6056 14.3531 24.3949 14.1196C24.5714 14.5648 24.8077 14.8014 24.9785 14.761ZM25.3514 6.33626C25.5137 6.33626 25.676 6.31448 25.8325 6.3425C25.9464 6.36429 26.009 6.33938 26.0745 6.21485C25.8155 6.21174 25.5678 6.16192 25.3514 6.33626ZM18.6358 10.3151C18.5931 10.0723 18.465 9.91037 18.2913 9.86679C18.354 10.1594 18.4251 10.2528 18.6358 10.3151ZM23.4127 13.8394C23.3729 13.5436 23.259 13.2883 23.1565 13.2572C23.111 13.4471 23.259 13.7802 23.4127 13.8394ZM20.8535 10.5766C20.6883 10.6327 20.5432 10.6794 20.3866 10.7292C20.4521 10.8537 20.4976 10.9004 20.6029 10.8288C20.6656 10.7852 20.7538 10.7821 20.8278 10.7603C20.8392 10.7572 20.8506 10.7479 20.8705 10.7385C20.8677 10.7012 20.862 10.6638 20.8535 10.5766ZM26.6923 18.6121C26.6809 18.6153 26.6724 18.6215 26.661 18.6246C26.7151 18.855 26.7691 19.0854 26.8232 19.3126C26.8375 19.3158 26.8489 19.3158 26.8631 19.3189C26.8916 19.2473 26.957 19.1601 26.9371 19.1103C26.8716 18.9391 26.7777 18.7803 26.6923 18.6121ZM30.6579 7.96454C30.4985 8.14512 30.4729 8.37239 30.4444 8.60589C30.5013 8.57476 30.5696 8.53428 30.581 8.48136C30.6152 8.31324 30.6323 8.13578 30.6579 7.96454ZM26.7578 14.0138C26.9058 13.939 27.0681 13.5623 27.0481 13.3724C26.8204 13.5218 26.9086 13.8332 26.7578 14.0138ZM26.9912 15.2342C26.9912 15.2186 26.9912 15.203 26.9912 15.1875C26.9713 15.1719 26.9428 15.1408 26.9286 15.147C26.7094 15.2279 26.493 15.3151 26.2738 15.3992C26.2795 15.4179 26.2852 15.4334 26.2909 15.4521C26.5243 15.3774 26.7578 15.3058 26.9912 15.2342ZM29.2373 8.609C29.4281 8.45022 29.616 8.29145 29.8067 8.13267C29.7982 8.12332 29.7925 8.11398 29.7839 8.10153C29.5647 8.21672 29.3227 8.3039 29.2373 8.609ZM25.5308 11.4141C25.5308 11.4017 25.5279 11.3892 25.5279 11.3799C25.4169 11.355 25.303 11.3301 25.1721 11.302C25.1835 11.4172 25.192 11.5013 25.2005 11.6071C25.3258 11.5355 25.4283 11.4733 25.5308 11.4141ZM25.0895 9.39356C25.2575 9.11336 25.1949 8.78957 25.2433 8.48446C25.0724 8.76155 25.2091 9.10402 25.0895 9.39356ZM28.6765 10.2871C28.8388 10.3058 28.9868 10.1003 28.984 9.87613C28.8188 9.95707 28.7477 10.1065 28.6765 10.2871ZM25.7671 7.84312C25.5222 8.01124 25.6162 8.28833 25.5365 8.50938C25.5536 8.5156 25.5678 8.51871 25.5849 8.52494C25.6475 8.29767 25.7073 8.07039 25.7671 7.84312ZM17.8899 9.25657C17.9042 9.25035 17.9184 9.24412 17.9355 9.2379C17.981 8.97326 17.9526 8.90477 17.7049 8.73042C17.7704 8.92033 17.8301 9.08845 17.8899 9.25657ZM22.1345 11.6227C22.126 11.492 22.1203 11.4048 22.1118 11.3051C21.995 11.3425 21.8954 11.3736 21.7644 11.4172C21.8982 11.4857 22.0007 11.5449 22.1345 11.6227ZM29.616 8.71486C29.374 8.8643 29.337 8.96081 29.4537 9.20988C29.5049 9.0511 29.5562 8.89543 29.616 8.71486ZM32.2863 10.8568C32.2066 10.8817 32.1411 10.8817 32.1126 10.916C32.0471 10.9969 32.0585 11.2149 32.1155 11.3363C32.1695 11.1931 32.2208 11.0499 32.2863 10.8568ZM18.0949 8.59967C17.9924 8.34749 17.7874 8.25719 17.5625 8.20115C17.739 8.33191 17.9184 8.46579 18.0949 8.59967ZM20.993 13.6495C20.9873 13.6588 20.9816 13.6651 20.9759 13.6744C21.0271 13.7522 21.0727 13.8332 21.1268 13.9048C21.1524 13.939 21.1979 13.9608 21.2378 13.9702C21.2549 13.9733 21.3004 13.9203 21.2976 13.9017C21.2862 13.8519 21.2663 13.7865 21.2321 13.7616C21.1581 13.7149 21.0727 13.6868 20.993 13.6495ZM26.3905 13.6837C26.1941 13.665 26.1258 13.7585 26.0888 13.8955C26.0831 13.9204 26.0916 13.9639 26.1087 13.9826C26.1172 13.9951 26.1685 13.992 26.1799 13.9764C26.2453 13.8923 26.308 13.7989 26.3905 13.6837ZM18.8408 12.6314C18.8237 12.7653 18.8066 12.8961 18.7895 13.0299C18.8066 13.0393 18.8208 13.0486 18.8379 13.058C18.8721 13.0019 18.9233 12.9521 18.9376 12.8929C18.9603 12.7964 19.0002 12.675 18.8408 12.6314ZM21.6022 7.82133C21.6107 7.93964 21.6164 8.02992 21.6249 8.12021C21.6335 8.20738 21.6477 8.29144 21.6591 8.3755C21.6762 8.37239 21.6933 8.36928 21.7104 8.36617C21.7132 8.18559 21.7844 7.99256 21.6022 7.82133ZM28.6338 12.5692C28.6167 12.5661 28.6025 12.5629 28.5854 12.5598C28.4915 12.6875 28.5313 12.8463 28.5171 12.9926C28.5142 13.0175 28.5541 13.0486 28.574 13.0766C28.5854 13.0704 28.5968 13.0673 28.6082 13.0611C28.6167 12.8992 28.6253 12.7342 28.6338 12.5692ZM26.567 14.7641C26.5613 14.7392 26.5585 14.7174 26.5528 14.6925C26.5129 14.6956 26.4674 14.6893 26.4332 14.7049C26.3165 14.7641 26.2026 14.8294 26.0859 14.8917C26.0461 14.9135 26.0034 14.9322 25.9635 14.9509C25.972 14.9695 25.9777 14.9882 25.9863 15.0069C26.1799 14.926 26.3734 14.845 26.567 14.7641ZM28.426 12.6844C28.2979 12.6968 28.2296 12.7653 28.2495 12.8836C28.258 12.9365 28.3434 12.9739 28.426 13.0424C28.426 12.8867 28.426 12.7902 28.426 12.6844ZM29.0893 9.41224C29.2857 9.31884 29.317 9.23167 29.2402 8.97638C29.1946 9.11336 29.1462 9.25035 29.0893 9.41224ZM20.7254 14.7267C20.9132 14.8357 21.0983 14.9415 21.3175 15.0661C21.1638 14.8606 20.8307 14.6769 20.7254 14.7267ZM29.1576 9.76093C29.0153 9.87301 29.0466 10.0474 29.0096 10.1968C29.1775 10.1003 29.1149 9.91037 29.1576 9.76093ZM18.26 10.2248C18.2742 10.2217 18.2885 10.2186 18.2999 10.2155C18.2856 9.99132 18.1718 9.74226 18.0636 9.71424C18.1291 9.88858 18.1945 10.0567 18.26 10.2248ZM21.4513 14.2971C21.4342 14.3033 21.42 14.3064 21.4029 14.3126C21.4029 14.3531 21.3887 14.4029 21.4057 14.4309C21.4997 14.5897 21.6762 14.6551 21.8356 14.5617C21.6107 14.5991 21.531 14.4496 21.4513 14.2971ZM18.4422 9.63952C18.4536 9.63018 18.465 9.62395 18.4764 9.61461C18.4536 9.52432 18.4365 9.43092 18.4052 9.34375C18.3967 9.31573 18.3454 9.30638 18.3141 9.29082C18.2999 9.32818 18.2686 9.37489 18.2771 9.39668C18.3255 9.48385 18.3853 9.55857 18.4422 9.63952ZM14.4424 12.1644C14.3798 12.345 14.4681 12.6065 14.5905 12.6594C14.5392 12.4851 14.4908 12.3232 14.4424 12.1644ZM18.0949 9.03553C18.0778 9.04176 18.0607 9.05109 18.0437 9.05732C18.0266 9.28459 18.0494 9.33752 18.2287 9.37488C18.1775 9.24412 18.1348 9.14138 18.0949 9.03553ZM28.89 9.57725C28.9071 9.58347 28.9242 9.5897 28.9413 9.59593C28.9811 9.47139 29.0181 9.34686 29.0665 9.18808C28.8758 9.32507 28.8302 9.43715 28.89 9.57725ZM20.4891 13.4502C20.472 13.4627 20.4578 13.4751 20.4407 13.4907C20.5318 13.6152 20.6229 13.7398 20.7168 13.8643C20.7282 13.855 20.7396 13.8456 20.751 13.8363C20.657 13.7087 20.6428 13.5187 20.4891 13.4502ZM18.7611 12.5411C18.7354 12.5411 18.7127 12.5411 18.687 12.5411C18.687 12.7217 18.687 12.8992 18.687 13.0798C18.6984 13.0798 18.7098 13.0798 18.7212 13.0798C18.7354 12.8992 18.7497 12.7217 18.7611 12.5411ZM25.9208 7.68123C25.9037 7.675 25.8866 7.66878 25.8695 7.66255C25.8325 7.81821 25.7955 7.97388 25.7614 8.12955C25.7756 8.13266 25.7898 8.13889 25.8041 8.142C25.8582 7.99568 25.955 7.8618 25.9208 7.68123ZM21.9865 9.92906C22.0634 10.0816 22.1431 10.2373 22.2199 10.3898C22.2313 10.3836 22.2427 10.3743 22.2541 10.368C22.2484 10.1688 22.1089 10.0536 21.9865 9.92906ZM25.286 9.96641C25.2091 10.1221 25.0098 10.231 25.1123 10.4708C25.1721 10.2933 25.229 10.1314 25.286 9.96641ZM21.9666 14.2473C22.015 14.1788 22.0605 14.1134 22.1032 14.048C22.0947 14.0387 22.0861 14.0293 22.0776 14.0169C21.9922 14.0324 21.9068 14.048 21.7758 14.0698C21.8527 14.1414 21.9011 14.185 21.9666 14.2473ZM26.3564 7.86803C26.3706 7.95209 26.308 8.05794 26.4361 8.05794C26.4731 8.05794 26.5386 7.99879 26.5386 7.96454C26.5442 7.80888 26.4361 7.89294 26.3564 7.86803ZM20.7595 7.87737C20.7851 7.99256 20.7965 8.0953 20.9389 8.07662C20.9446 8.01124 20.9531 7.94898 20.9588 7.87737C20.8905 7.87737 20.8364 7.87737 20.7595 7.87737ZM26.6211 8.13577C26.7122 8.06105 26.772 8.01124 26.8602 7.93963C26.7578 7.91161 26.6923 7.89293 26.6069 7.87114C26.6126 7.9552 26.6154 8.02058 26.6211 8.13577ZM23.0142 15.0878C23.0028 15.1003 22.9914 15.1159 22.98 15.1283C23.0882 15.2311 23.1964 15.3307 23.3074 15.4334C23.3188 15.421 23.3302 15.4054 23.3416 15.393C23.2619 15.2529 23.1195 15.1906 23.0142 15.0878ZM21.6449 6.81572C21.7104 6.89667 21.7587 6.95582 21.8271 7.043C21.8442 6.94648 21.8527 6.88733 21.8641 6.81572C21.7901 6.81572 21.7331 6.81572 21.6449 6.81572ZM25.7614 6.14324C25.7614 6.13701 25.7585 6.12767 25.7585 6.12144C25.6048 6.1339 25.4539 6.14324 25.3002 6.15569C25.3002 6.1806 25.303 6.2055 25.303 6.23041C25.4568 6.19928 25.6105 6.17126 25.7614 6.14324ZM28.6167 10.1252C28.5114 10.2279 28.4061 10.3307 28.3007 10.4334C28.4374 10.368 28.594 10.3276 28.6167 10.1252ZM26.5983 10.9316C26.4076 10.8319 26.3677 10.8537 26.3535 11.0654C26.4389 11.0218 26.5129 10.9783 26.5983 10.9316ZM25.4226 6.80326C25.4425 6.89044 25.4568 6.94647 25.4767 7.03365C25.5422 6.97138 25.5877 6.9278 25.6617 6.85619C25.5649 6.8344 25.508 6.82194 25.4226 6.80326ZM21.5282 8.12643C21.5766 7.88671 21.5879 7.92718 21.3716 7.84312C21.4314 7.94897 21.4769 8.03303 21.5282 8.12643ZM26.4048 8.38484C26.4161 8.38796 26.4275 8.39418 26.4389 8.39729C26.4816 8.33814 26.5272 8.27898 26.5898 8.19181C26.4958 8.19181 26.4475 8.19181 26.3848 8.19181C26.3934 8.26342 26.3991 8.32569 26.4048 8.38484ZM20.7282 8.16068C20.7225 8.17002 20.7168 8.18247 20.7111 8.19181C20.7709 8.25408 20.8335 8.31634 20.9132 8.39729C20.9218 8.31634 20.9246 8.27276 20.9303 8.22918C20.8563 8.20427 20.7937 8.18248 20.7282 8.16068ZM31.8906 6.10588C31.8763 6.09654 31.8621 6.08408 31.845 6.07474C31.7852 6.1806 31.7254 6.28645 31.6657 6.3923C31.6771 6.40164 31.6884 6.40787 31.7027 6.41721C31.7653 6.31447 31.8279 6.21173 31.8906 6.10588ZM18.8408 10.4054C18.8578 10.3898 18.8749 10.3774 18.8892 10.3618C18.8265 10.2809 18.7639 10.1999 18.7013 10.119C18.687 10.1314 18.6757 10.1408 18.6614 10.1532C18.7212 10.2373 18.781 10.3213 18.8408 10.4054Z" fill="#FFEB61"/>
<path d="M23.3273 16.0031C23.4013 16.0249 23.37 16 23.444 16.0903C23.4895 16.1463 23.5465 16.2491 23.5977 16.3549C23.7315 16.6413 23.8055 16.9651 23.8739 17.2765C24.0646 18.1513 24.1585 19.0542 24.2468 19.9477C24.335 20.8568 24.4005 21.769 24.503 22.675C24.5429 23.033 24.5827 23.3911 24.651 23.746C24.7165 24.0947 24.8532 24.4029 24.9471 24.7422C25.3457 26.1837 25.0183 27.7279 24.1301 28.8674C23.2931 29.9415 22.1942 30.7261 21.306 31.7441C19.6577 33.6308 18.4791 35.9907 17.8557 38.5063C17.1468 41.3612 17.1497 44.4279 17.9553 47.2579C18.092 47.7342 18.7781 47.5319 18.6414 47.0524C17.1724 41.8874 18.5048 35.9285 21.995 32.0897C22.9145 31.0779 24.0333 30.2809 24.8361 29.1445C25.6645 27.9708 25.9919 26.4888 25.7442 25.0287C25.6645 24.5679 25.4738 24.1569 25.3713 23.7055C25.3001 23.3911 25.2602 23.0673 25.2232 22.7466C25.1179 21.8313 25.0524 20.9097 24.9642 19.9944C24.8645 18.9639 24.7649 17.9147 24.5258 16.9091C24.3834 16.3082 24.1471 15.4396 23.5208 15.2559C23.071 15.122 22.8832 15.8723 23.3273 16.0031Z" fill="#FFEB61"/>
<path d="M16.3983 4.67074C16.3158 4.60536 16.2617 4.58045 16.236 4.53687C16.2047 4.48083 16.1933 4.41234 16.1763 4.34696C16.0254 3.78656 15.7122 3.39116 15.197 3.20748C15.0888 3.17012 14.9863 3.13275 14.9834 2.97708C14.9806 2.8183 15.0973 2.81208 15.1913 2.77472C15.7151 2.56924 16.0766 2.19876 16.2161 1.59477C16.2417 1.4858 16.2844 1.38306 16.4069 1.38306C16.5293 1.38617 16.5663 1.48268 16.5891 1.59788C16.7115 2.20498 17.0645 2.57547 17.594 2.76227C17.705 2.80274 17.7847 2.85878 17.7876 2.99266C17.7904 3.12964 17.6879 3.14832 17.5997 3.17634C17.036 3.36003 16.7086 3.78655 16.5464 4.39054C16.5236 4.48394 16.4581 4.56177 16.3983 4.67074ZM16.367 3.67448C16.5834 3.43786 16.8168 3.18879 17.0559 2.93038C16.7741 2.77783 16.5492 2.54122 16.4239 2.24856C16.1962 2.50386 15.9713 2.75293 15.7663 2.9802C15.9656 3.20747 16.1734 3.4472 16.367 3.67448Z" fill="#FFEB61"/>
<path d="M31.0308 17.5941C31.0109 17.6128 30.971 17.6812 30.9198 17.6968C30.4187 17.8649 30.0942 18.2074 29.9803 18.7834C29.9689 18.8456 29.8778 18.9235 29.8152 18.9328C29.7697 18.939 29.6871 18.8581 29.6615 18.7989C29.5903 18.6402 29.5561 18.4627 29.4764 18.3101C29.3284 18.0237 29.1063 17.8307 28.8074 17.7528C28.6993 17.7248 28.5996 17.6844 28.5996 17.5318C28.5996 17.3917 28.6964 17.3575 28.796 17.317C29.206 17.1458 29.5021 16.8531 29.6102 16.3674C29.6188 16.3363 29.6216 16.2958 29.6415 16.274C29.6956 16.2211 29.7554 16.1401 29.8124 16.1401C29.8664 16.1401 29.9433 16.2117 29.9775 16.274C30.023 16.3643 30.0287 16.4764 30.0686 16.5698C30.2365 16.9558 30.5098 17.2111 30.8856 17.3294C31.0194 17.3761 31.0336 17.3979 31.0308 17.5941ZM30.2422 17.5443C30.097 17.3824 29.9262 17.1893 29.8095 17.0586C29.6871 17.1956 29.5134 17.3917 29.3597 17.5692C29.4736 17.6968 29.6472 17.8898 29.781 18.0393C29.9462 17.8618 30.1227 17.675 30.2422 17.5443Z" fill="#FFEB61"/>
<path d="M25.0299 3.09219C24.9901 3.03926 24.9332 2.99567 24.9161 2.93652C24.8164 2.60962 24.6741 2.31696 24.4036 2.12082C24.304 2.04921 24.1816 2.00875 24.082 1.93403C24.0193 1.89044 23.9453 1.80949 23.9425 1.74411C23.9396 1.68184 24.0136 1.57911 24.0734 1.5542C24.4891 1.38608 24.7766 1.09342 24.9189 0.626422C24.9388 0.557928 25.0328 0.464528 25.0812 0.470755C25.141 0.476981 25.2207 0.573494 25.2378 0.645101C25.3516 1.10587 25.6335 1.37985 26.0206 1.54797C26.1089 1.58533 26.1858 1.61957 26.1829 1.74099C26.1801 1.85618 26.1146 1.90912 26.0263 1.94337C25.5965 2.11149 25.3346 2.44772 25.2207 2.92406C25.1979 3.02058 25.1637 3.07662 25.0299 3.09219ZM25.4427 1.73477C25.3459 1.61646 25.1951 1.43278 25.0527 1.26154C24.9047 1.41721 24.7453 1.58222 24.6342 1.69741C24.7766 1.86242 24.9332 2.03988 25.0613 2.18621C25.178 2.04922 25.3289 1.87176 25.4427 1.73477Z" fill="#FFEB61"/>
<path d="M34.5294 9.44958C34.0113 9.44646 33.607 8.98881 33.6099 8.41284C33.6156 7.85867 34.0426 7.41034 34.5579 7.41657C35.076 7.42591 35.4831 7.87734 35.4774 8.44086C35.4717 9.01371 35.0561 9.4558 34.5294 9.44958ZM34.5436 9.09777C34.871 9.09777 35.1529 8.78955 35.15 8.43774C35.1472 8.08905 34.8682 7.78706 34.5493 7.78706C34.2191 7.78706 33.9344 8.09216 33.9373 8.44086C33.9401 8.80201 34.2134 9.09777 34.5436 9.09777Z" fill="#FFEB61"/>
<path d="M19.4471 43.4659C19.4471 43.7866 19.2364 44.0295 18.9546 44.0295C18.6585 44.0326 18.4336 43.7866 18.4336 43.4691C18.4336 43.1484 18.6556 42.9024 18.9432 42.9055C19.2421 42.9055 19.4499 43.139 19.4471 43.4659ZM19.1795 43.4691C19.1823 43.3227 19.0741 43.2013 18.9403 43.2013C18.8179 43.2013 18.7126 43.3196 18.7069 43.4659C18.7012 43.6092 18.8037 43.7275 18.9318 43.7306C19.0684 43.7306 19.1766 43.6154 19.1795 43.4691Z" fill="#FFEB61"/>
<path d="M18.0465 17.451C17.6508 17.451 17.3376 17.0899 17.3433 16.6415C17.349 16.1839 17.6451 15.8632 18.0693 15.8601C18.4678 15.8601 18.7838 16.1995 18.7838 16.6353C18.7867 17.0961 18.465 17.451 18.0465 17.451ZM18.3938 16.6322C18.3938 16.4423 18.2429 16.2897 18.0579 16.2897C17.8814 16.2897 17.739 16.4516 17.739 16.654C17.739 16.8564 17.8672 16.9996 18.0465 17.0027C18.2486 17.0058 18.3938 16.8533 18.3938 16.6322Z" fill="#FFEB61"/>
<path d="M21.5766 30.6422C21.5168 30.5955 21.477 30.5768 21.457 30.5425C21.4342 30.5021 21.4257 30.4491 21.4115 30.4024C21.3004 29.9884 21.0699 29.6988 20.6884 29.5618C20.6087 29.5338 20.5318 29.5058 20.5318 29.3937C20.529 29.2754 20.6144 29.2723 20.6855 29.2443C21.0727 29.0948 21.3375 28.8178 21.4428 28.3726C21.4627 28.2916 21.4912 28.2138 21.5823 28.2169C21.6734 28.2169 21.699 28.2916 21.7161 28.3757C21.8072 28.824 22.0691 29.0979 22.4591 29.2349C22.5417 29.263 22.5986 29.3066 22.6014 29.4031C22.6043 29.5058 22.5274 29.5183 22.4619 29.5401C22.0463 29.677 21.8043 29.9915 21.6848 30.4367C21.6677 30.5021 21.6221 30.5581 21.5766 30.6422ZM21.5538 29.9043C21.7132 29.73 21.8869 29.5463 22.0634 29.3532C21.8556 29.2412 21.6905 29.0668 21.5965 28.8489C21.4286 29.0357 21.2606 29.2225 21.1126 29.3906C21.2577 29.5587 21.4115 29.7362 21.5538 29.9043Z" fill="#FFEB61"/>
</svg>
