<svg width="48" height="48" viewBox="0 0 48 48" fill="none" xmlns="http://www.w3.org/2000/svg">
<mask id="path-1-outside-1_784_3311" maskUnits="userSpaceOnUse" x="5.18604" y="5.62939" width="37" height="36" fill="black">
<rect fill="white" x="5.18604" y="5.62939" width="37" height="36"/>
<path d="M24.0543 35.0137C22.3962 35.2251 20.833 35.1076 19.315 34.4546C18.4476 35.2862 17.5847 36.0614 16.7805 36.893C16.2474 37.4428 15.6736 37.7576 14.9191 37.6307C14.1917 37.5085 13.6586 37.7904 13.1978 38.3777C12.7776 38.9087 12.2581 39.355 11.8153 39.8718C11.4268 40.3323 10.9389 40.5108 10.3832 40.5155C9.21302 40.5296 8.03837 40.5296 6.86824 40.5014C6.63782 40.4967 6.41645 40.3511 6.18604 40.2712C6.28543 40.0175 6.33513 39.7168 6.49777 39.5195C8.05644 37.7012 9.63319 35.9017 11.2054 34.0928C11.3274 33.9518 11.4449 33.8015 11.6933 33.4961C11.2325 33.4726 10.9072 33.4867 10.5955 33.4303C10.4012 33.3927 10.1302 33.2893 10.0669 33.1343C10.0037 32.9886 10.1076 32.6927 10.2341 32.5423C10.9117 31.7154 11.6211 30.9166 12.3168 30.1085C16.0667 25.7343 19.821 21.3647 23.5618 16.9811C24.6868 15.6608 25.9337 14.505 27.5014 13.7956C27.8945 13.617 27.9442 13.3069 28.0707 12.9686C28.4683 11.935 28.7845 10.8403 29.3538 9.90997C30.6368 7.80977 32.4847 6.58817 34.9559 6.63046C36.3023 6.65395 37.4724 7.12849 38.4528 8.14335C38.9633 8.66958 39.5868 9.08304 40.156 9.55288C40.5491 9.88177 40.9828 10.1731 41.3171 10.5584C42.0084 11.3571 41.9767 12.1887 41.2358 13.0485C41.0054 12.5928 40.6349 12.6632 40.2148 12.6726C39.3699 12.7008 38.5206 12.6069 37.5537 12.5552C37.4589 12.9452 37.2601 13.3821 37.2646 13.8097C37.2781 14.9561 37.242 16.1307 37.4769 17.2348C37.7435 18.5081 37.6757 19.7203 37.3595 20.9325C37.1516 21.7218 36.876 22.4971 36.5914 23.2629C35.6788 25.6873 34.468 27.9566 33.1804 30.1837C32.2859 31.7342 31.4139 33.3034 30.4968 34.8445C30.2167 35.3144 30.1489 35.7184 30.4109 36.2165C30.7136 36.7897 30.9531 37.4005 31.2061 37.969C34.5132 38.063 35.3897 38.763 35.4168 41.3612C35.2406 41.3472 34.9379 41.3847 34.9153 41.3143C34.5945 40.4357 33.8129 40.6095 33.1262 40.3934C33.0946 40.7317 33.0629 41.0136 33.0313 41.3706C32.8416 41.3518 32.5479 41.3941 32.5163 41.3143C32.1368 40.4451 31.3236 40.633 30.6097 40.3746C30.5826 40.7176 30.5646 40.9995 30.5374 41.3331C30.3612 41.3331 30.0721 41.4035 30.0224 41.3237C29.4577 40.3793 28.527 40.4779 27.6731 40.4028C26.3629 40.29 25.0934 40.5813 23.8555 41.0042C23.5302 41.1169 23.2049 41.2297 22.8796 41.3425C22.3646 39.7168 23.0603 38.7254 25.2063 38.1052C24.9443 37.0763 24.4744 36.1225 24.0543 35.0137ZM30.1173 29.5118C30.4245 29.4742 30.6549 29.5118 30.8085 29.4131C31.1248 29.2017 31.4094 28.9292 31.694 28.6661C33.962 26.58 35.7827 24.1791 36.5914 21.0687C36.9167 19.8143 37.0703 18.5786 36.745 17.2771C36.3429 15.6608 36.3384 14.0211 36.7902 12.3954C36.8535 12.1652 36.7992 11.9021 36.7992 11.8222C37.4634 10.9765 38.0507 10.2295 38.6651 9.44483C37.9513 8.70717 37.2917 7.90373 36.2616 7.59833C34.4002 7.04392 32.7557 7.50906 31.2965 8.75884C29.8688 9.98513 29.0962 11.6249 28.7303 13.4808C28.6445 13.913 28.4999 14.1667 28.0933 14.3453C26.6069 14.9937 25.3825 16.0226 24.3163 17.2677C20.5665 21.6466 16.8211 26.0256 13.0803 30.4092C12.9222 30.5925 12.8093 30.8133 12.6647 31.02C13.4644 31.2831 14.0336 31.0764 14.4673 30.428C14.5938 30.2401 14.7655 30.085 14.9146 29.9159C18.2533 26.0397 21.592 22.1635 24.9353 18.292C26.1325 16.9106 27.5602 15.9099 29.3538 15.5998C31.2693 15.2709 33.465 16.2059 33.1443 19.2645C33.0223 20.4391 32.6021 21.4963 32.0238 22.4877C30.4516 25.1705 28.2062 27.1062 25.5768 28.6896C25.4639 28.4594 25.369 28.2667 25.2831 28.0929C25.3554 28.0036 25.3871 27.9378 25.4368 27.9049C25.6988 27.7264 25.9699 27.5526 26.2364 27.374C28.4411 25.8799 30.3658 24.0804 31.6037 21.6278C32.0058 20.8291 32.2994 19.9223 32.4259 19.0296C32.6609 17.3993 31.6443 16.2951 30.0631 16.2998C29.7513 16.2998 29.4306 16.3468 29.1279 16.422C27.6957 16.7791 26.5346 17.6107 25.5587 18.7336C24.3073 20.176 23.0739 21.6372 21.8179 23.075C21.5197 23.4132 21.4023 23.7327 21.452 24.2167C21.6146 25.7813 21.1267 27.125 20.0424 28.2385C19.3195 28.9809 18.6238 29.742 17.9235 30.5079C17.7925 30.6488 17.7202 30.8509 17.5937 31.0717C19.1343 31.067 20.065 31.114 22.6944 29.7232C23.8916 32.7161 25.0889 35.7043 26.2952 38.7207C23.973 39.1389 23.7561 39.261 23.6386 40.2665C25.5497 39.6369 27.4653 39.4114 29.4848 39.8859C29.0194 39.1107 29.4035 39.2845 27.262 38.6221C27.1897 38.2368 27.1581 37.8985 27.0587 37.5837C26.9548 37.2407 26.8102 36.9024 26.6385 36.5923C26.4216 36.1977 26.4714 35.8735 26.6927 35.4929C27.8583 33.4961 28.9969 31.4805 30.1173 29.5118ZM14.5758 36.785C15.3619 36.987 15.8317 36.7991 16.2745 36.3245C16.9567 35.5963 17.7292 34.9573 18.4114 34.229C18.8677 33.7451 19.2789 33.6464 19.9114 33.886C21.0996 34.3371 22.342 34.5297 23.7425 34.2337C23.2637 33.0779 22.8119 31.9785 22.3194 30.7757C20.2683 31.9268 18.1133 31.8704 15.9627 31.8751C14.761 31.8798 13.5592 31.8845 12.3575 31.8704C11.8244 31.8657 11.4449 32.0161 11.35 32.6692C13.0577 32.6692 14.7294 32.6551 16.4055 32.6785C16.8257 32.6832 17.3904 32.4483 17.6208 32.9417C17.8919 33.5196 17.282 33.7921 16.9883 34.1351C16.2474 35.0043 15.4477 35.8359 14.5758 36.785ZM33.4153 28.2714C33.3882 28.262 33.3566 28.2479 33.3295 28.2385C32.3491 29.0655 31.3642 29.8877 30.3929 30.7193C30.2528 30.8415 30.1308 31.0059 30.036 31.1704C29.3989 32.3074 28.7755 33.4538 28.1294 34.5814C27.9487 34.8962 27.9216 35.1687 28.0752 35.5023C28.4728 36.3621 28.78 37.2689 29.2318 38.0958C29.5345 38.6502 29.9366 39.2282 30.4381 39.5524C30.8718 39.8343 31.5088 39.7732 32.182 39.8859C31.6985 38.9369 30.8221 38.9228 30.298 38.6221C30.298 38.2603 30.3613 37.9831 30.2844 37.7575C30.1308 37.2924 29.9321 36.8367 29.6971 36.4091C29.3312 35.7372 29.408 35.1734 29.8056 34.5109C31.0525 32.4624 32.2226 30.3575 33.4153 28.2714ZM20.6388 24.6019C18.7051 26.6927 16.8302 28.7929 14.9914 31.0012C15.9582 31.3066 16.541 31.0012 17.0967 30.3293C17.8964 29.3568 18.7955 28.4782 19.6584 27.5573C20.4264 26.7397 20.7653 25.7578 20.6388 24.6019ZM14.0698 33.59C13.252 33.3175 12.746 33.5008 12.2626 34.074C10.7762 35.8312 9.24013 37.5414 7.72664 39.2704C7.63176 39.3832 7.56399 39.5195 7.45104 39.6933C8.16939 39.8906 8.65281 39.7591 9.10911 39.2094C10.1211 37.9878 11.1919 36.8179 12.2445 35.6292C12.8228 34.9808 13.4056 34.3324 14.0698 33.59ZM12.2174 36.7897C13.0803 37.034 13.5909 36.8179 14.0426 36.2447C14.5215 35.6386 15.0863 35.1076 15.6104 34.5344C15.8814 34.2384 16.1389 33.9283 16.5004 33.5102C15.8588 33.4773 15.3845 33.2894 14.9959 33.7169C14.0878 34.7083 13.1933 35.7043 12.2174 36.7897ZM39.3835 9.93816C38.8052 10.4503 38.3218 10.9765 38.0191 11.7095C39.0717 12.0477 40.0612 12.1135 41.1229 11.639C40.7072 10.8074 40.0702 10.3704 39.3835 9.93816ZM9.80938 39.5993C9.84552 39.6698 9.88167 39.7403 9.91781 39.8108C10.2612 39.7403 10.6949 39.7826 10.9298 39.5805C11.5623 39.0308 12.1903 38.4529 12.7912 37.5367C12.1768 37.6495 11.6572 37.5884 11.3726 37.8327C10.7807 38.3402 10.3199 39.0026 9.80938 39.5993ZM34.5403 39.8718C33.9078 39.0355 33.2572 38.81 32.4214 38.7442C32.6202 39.0825 32.7783 39.3456 32.9229 39.5852C33.4244 39.6745 33.8762 39.7544 34.5403 39.8718ZM28.2424 38.0395C28.0165 37.0058 27.7815 36.5031 27.271 36.0238C27.5556 36.7662 27.7047 37.4475 28.2424 38.0395Z"/>
</mask>
<path d="M24.0543 35.0137C22.3962 35.2251 20.833 35.1076 19.315 34.4546C18.4476 35.2862 17.5847 36.0614 16.7805 36.893C16.2474 37.4428 15.6736 37.7576 14.9191 37.6307C14.1917 37.5085 13.6586 37.7904 13.1978 38.3777C12.7776 38.9087 12.2581 39.355 11.8153 39.8718C11.4268 40.3323 10.9389 40.5108 10.3832 40.5155C9.21302 40.5296 8.03837 40.5296 6.86824 40.5014C6.63782 40.4967 6.41645 40.3511 6.18604 40.2712C6.28543 40.0175 6.33513 39.7168 6.49777 39.5195C8.05644 37.7012 9.63319 35.9017 11.2054 34.0928C11.3274 33.9518 11.4449 33.8015 11.6933 33.4961C11.2325 33.4726 10.9072 33.4867 10.5955 33.4303C10.4012 33.3927 10.1302 33.2893 10.0669 33.1343C10.0037 32.9886 10.1076 32.6927 10.2341 32.5423C10.9117 31.7154 11.6211 30.9166 12.3168 30.1085C16.0667 25.7343 19.821 21.3647 23.5618 16.9811C24.6868 15.6608 25.9337 14.505 27.5014 13.7956C27.8945 13.617 27.9442 13.3069 28.0707 12.9686C28.4683 11.935 28.7845 10.8403 29.3538 9.90997C30.6368 7.80977 32.4847 6.58817 34.9559 6.63046C36.3023 6.65395 37.4724 7.12849 38.4528 8.14335C38.9633 8.66958 39.5868 9.08304 40.156 9.55288C40.5491 9.88177 40.9828 10.1731 41.3171 10.5584C42.0084 11.3571 41.9767 12.1887 41.2358 13.0485C41.0054 12.5928 40.6349 12.6632 40.2148 12.6726C39.3699 12.7008 38.5206 12.6069 37.5537 12.5552C37.4589 12.9452 37.2601 13.3821 37.2646 13.8097C37.2781 14.9561 37.242 16.1307 37.4769 17.2348C37.7435 18.5081 37.6757 19.7203 37.3595 20.9325C37.1516 21.7218 36.876 22.4971 36.5914 23.2629C35.6788 25.6873 34.468 27.9566 33.1804 30.1837C32.2859 31.7342 31.4139 33.3034 30.4968 34.8445C30.2167 35.3144 30.1489 35.7184 30.4109 36.2165C30.7136 36.7897 30.9531 37.4005 31.2061 37.969C34.5132 38.063 35.3897 38.763 35.4168 41.3612C35.2406 41.3472 34.9379 41.3847 34.9153 41.3143C34.5945 40.4357 33.8129 40.6095 33.1262 40.3934C33.0946 40.7317 33.0629 41.0136 33.0313 41.3706C32.8416 41.3518 32.5479 41.3941 32.5163 41.3143C32.1368 40.4451 31.3236 40.633 30.6097 40.3746C30.5826 40.7176 30.5646 40.9995 30.5374 41.3331C30.3612 41.3331 30.0721 41.4035 30.0224 41.3237C29.4577 40.3793 28.527 40.4779 27.6731 40.4028C26.3629 40.29 25.0934 40.5813 23.8555 41.0042C23.5302 41.1169 23.2049 41.2297 22.8796 41.3425C22.3646 39.7168 23.0603 38.7254 25.2063 38.1052C24.9443 37.0763 24.4744 36.1225 24.0543 35.0137ZM30.1173 29.5118C30.4245 29.4742 30.6549 29.5118 30.8085 29.4131C31.1248 29.2017 31.4094 28.9292 31.694 28.6661C33.962 26.58 35.7827 24.1791 36.5914 21.0687C36.9167 19.8143 37.0703 18.5786 36.745 17.2771C36.3429 15.6608 36.3384 14.0211 36.7902 12.3954C36.8535 12.1652 36.7992 11.9021 36.7992 11.8222C37.4634 10.9765 38.0507 10.2295 38.6651 9.44483C37.9513 8.70717 37.2917 7.90373 36.2616 7.59833C34.4002 7.04392 32.7557 7.50906 31.2965 8.75884C29.8688 9.98513 29.0962 11.6249 28.7303 13.4808C28.6445 13.913 28.4999 14.1667 28.0933 14.3453C26.6069 14.9937 25.3825 16.0226 24.3163 17.2677C20.5665 21.6466 16.8211 26.0256 13.0803 30.4092C12.9222 30.5925 12.8093 30.8133 12.6647 31.02C13.4644 31.2831 14.0336 31.0764 14.4673 30.428C14.5938 30.2401 14.7655 30.085 14.9146 29.9159C18.2533 26.0397 21.592 22.1635 24.9353 18.292C26.1325 16.9106 27.5602 15.9099 29.3538 15.5998C31.2693 15.2709 33.465 16.2059 33.1443 19.2645C33.0223 20.4391 32.6021 21.4963 32.0238 22.4877C30.4516 25.1705 28.2062 27.1062 25.5768 28.6896C25.4639 28.4594 25.369 28.2667 25.2831 28.0929C25.3554 28.0036 25.3871 27.9378 25.4368 27.9049C25.6988 27.7264 25.9699 27.5526 26.2364 27.374C28.4411 25.8799 30.3658 24.0804 31.6037 21.6278C32.0058 20.8291 32.2994 19.9223 32.4259 19.0296C32.6609 17.3993 31.6443 16.2951 30.0631 16.2998C29.7513 16.2998 29.4306 16.3468 29.1279 16.422C27.6957 16.7791 26.5346 17.6107 25.5587 18.7336C24.3073 20.176 23.0739 21.6372 21.8179 23.075C21.5197 23.4132 21.4023 23.7327 21.452 24.2167C21.6146 25.7813 21.1267 27.125 20.0424 28.2385C19.3195 28.9809 18.6238 29.742 17.9235 30.5079C17.7925 30.6488 17.7202 30.8509 17.5937 31.0717C19.1343 31.067 20.065 31.114 22.6944 29.7232C23.8916 32.7161 25.0889 35.7043 26.2952 38.7207C23.973 39.1389 23.7561 39.261 23.6386 40.2665C25.5497 39.6369 27.4653 39.4114 29.4848 39.8859C29.0194 39.1107 29.4035 39.2845 27.262 38.6221C27.1897 38.2368 27.1581 37.8985 27.0587 37.5837C26.9548 37.2407 26.8102 36.9024 26.6385 36.5923C26.4216 36.1977 26.4714 35.8735 26.6927 35.4929C27.8583 33.4961 28.9969 31.4805 30.1173 29.5118ZM14.5758 36.785C15.3619 36.987 15.8317 36.7991 16.2745 36.3245C16.9567 35.5963 17.7292 34.9573 18.4114 34.229C18.8677 33.7451 19.2789 33.6464 19.9114 33.886C21.0996 34.3371 22.342 34.5297 23.7425 34.2337C23.2637 33.0779 22.8119 31.9785 22.3194 30.7757C20.2683 31.9268 18.1133 31.8704 15.9627 31.8751C14.761 31.8798 13.5592 31.8845 12.3575 31.8704C11.8244 31.8657 11.4449 32.0161 11.35 32.6692C13.0577 32.6692 14.7294 32.6551 16.4055 32.6785C16.8257 32.6832 17.3904 32.4483 17.6208 32.9417C17.8919 33.5196 17.282 33.7921 16.9883 34.1351C16.2474 35.0043 15.4477 35.8359 14.5758 36.785ZM33.4153 28.2714C33.3882 28.262 33.3566 28.2479 33.3295 28.2385C32.3491 29.0655 31.3642 29.8877 30.3929 30.7193C30.2528 30.8415 30.1308 31.0059 30.036 31.1704C29.3989 32.3074 28.7755 33.4538 28.1294 34.5814C27.9487 34.8962 27.9216 35.1687 28.0752 35.5023C28.4728 36.3621 28.78 37.2689 29.2318 38.0958C29.5345 38.6502 29.9366 39.2282 30.4381 39.5524C30.8718 39.8343 31.5088 39.7732 32.182 39.8859C31.6985 38.9369 30.8221 38.9228 30.298 38.6221C30.298 38.2603 30.3613 37.9831 30.2844 37.7575C30.1308 37.2924 29.9321 36.8367 29.6971 36.4091C29.3312 35.7372 29.408 35.1734 29.8056 34.5109C31.0525 32.4624 32.2226 30.3575 33.4153 28.2714ZM20.6388 24.6019C18.7051 26.6927 16.8302 28.7929 14.9914 31.0012C15.9582 31.3066 16.541 31.0012 17.0967 30.3293C17.8964 29.3568 18.7955 28.4782 19.6584 27.5573C20.4264 26.7397 20.7653 25.7578 20.6388 24.6019ZM14.0698 33.59C13.252 33.3175 12.746 33.5008 12.2626 34.074C10.7762 35.8312 9.24013 37.5414 7.72664 39.2704C7.63176 39.3832 7.56399 39.5195 7.45104 39.6933C8.16939 39.8906 8.65281 39.7591 9.10911 39.2094C10.1211 37.9878 11.1919 36.8179 12.2445 35.6292C12.8228 34.9808 13.4056 34.3324 14.0698 33.59ZM12.2174 36.7897C13.0803 37.034 13.5909 36.8179 14.0426 36.2447C14.5215 35.6386 15.0863 35.1076 15.6104 34.5344C15.8814 34.2384 16.1389 33.9283 16.5004 33.5102C15.8588 33.4773 15.3845 33.2894 14.9959 33.7169C14.0878 34.7083 13.1933 35.7043 12.2174 36.7897ZM39.3835 9.93816C38.8052 10.4503 38.3218 10.9765 38.0191 11.7095C39.0717 12.0477 40.0612 12.1135 41.1229 11.639C40.7072 10.8074 40.0702 10.3704 39.3835 9.93816ZM9.80938 39.5993C9.84552 39.6698 9.88167 39.7403 9.91781 39.8108C10.2612 39.7403 10.6949 39.7826 10.9298 39.5805C11.5623 39.0308 12.1903 38.4529 12.7912 37.5367C12.1768 37.6495 11.6572 37.5884 11.3726 37.8327C10.7807 38.3402 10.3199 39.0026 9.80938 39.5993ZM34.5403 39.8718C33.9078 39.0355 33.2572 38.81 32.4214 38.7442C32.6202 39.0825 32.7783 39.3456 32.9229 39.5852C33.4244 39.6745 33.8762 39.7544 34.5403 39.8718ZM28.2424 38.0395C28.0165 37.0058 27.7815 36.5031 27.271 36.0238C27.5556 36.7662 27.7047 37.4475 28.2424 38.0395Z" fill="#FFEB61"/>
<path d="M24.0543 35.0137C22.3962 35.2251 20.833 35.1076 19.315 34.4546C18.4476 35.2862 17.5847 36.0614 16.7805 36.893C16.2474 37.4428 15.6736 37.7576 14.9191 37.6307C14.1917 37.5085 13.6586 37.7904 13.1978 38.3777C12.7776 38.9087 12.2581 39.355 11.8153 39.8718C11.4268 40.3323 10.9389 40.5108 10.3832 40.5155C9.21302 40.5296 8.03837 40.5296 6.86824 40.5014C6.63782 40.4967 6.41645 40.3511 6.18604 40.2712C6.28543 40.0175 6.33513 39.7168 6.49777 39.5195C8.05644 37.7012 9.63319 35.9017 11.2054 34.0928C11.3274 33.9518 11.4449 33.8015 11.6933 33.4961C11.2325 33.4726 10.9072 33.4867 10.5955 33.4303C10.4012 33.3927 10.1302 33.2893 10.0669 33.1343C10.0037 32.9886 10.1076 32.6927 10.2341 32.5423C10.9117 31.7154 11.6211 30.9166 12.3168 30.1085C16.0667 25.7343 19.821 21.3647 23.5618 16.9811C24.6868 15.6608 25.9337 14.505 27.5014 13.7956C27.8945 13.617 27.9442 13.3069 28.0707 12.9686C28.4683 11.935 28.7845 10.8403 29.3538 9.90997C30.6368 7.80977 32.4847 6.58817 34.9559 6.63046C36.3023 6.65395 37.4724 7.12849 38.4528 8.14335C38.9633 8.66958 39.5868 9.08304 40.156 9.55288C40.5491 9.88177 40.9828 10.1731 41.3171 10.5584C42.0084 11.3571 41.9767 12.1887 41.2358 13.0485C41.0054 12.5928 40.6349 12.6632 40.2148 12.6726C39.3699 12.7008 38.5206 12.6069 37.5537 12.5552C37.4589 12.9452 37.2601 13.3821 37.2646 13.8097C37.2781 14.9561 37.242 16.1307 37.4769 17.2348C37.7435 18.5081 37.6757 19.7203 37.3595 20.9325C37.1516 21.7218 36.876 22.4971 36.5914 23.2629C35.6788 25.6873 34.468 27.9566 33.1804 30.1837C32.2859 31.7342 31.4139 33.3034 30.4968 34.8445C30.2167 35.3144 30.1489 35.7184 30.4109 36.2165C30.7136 36.7897 30.9531 37.4005 31.2061 37.969C34.5132 38.063 35.3897 38.763 35.4168 41.3612C35.2406 41.3472 34.9379 41.3847 34.9153 41.3143C34.5945 40.4357 33.8129 40.6095 33.1262 40.3934C33.0946 40.7317 33.0629 41.0136 33.0313 41.3706C32.8416 41.3518 32.5479 41.3941 32.5163 41.3143C32.1368 40.4451 31.3236 40.633 30.6097 40.3746C30.5826 40.7176 30.5646 40.9995 30.5374 41.3331C30.3612 41.3331 30.0721 41.4035 30.0224 41.3237C29.4577 40.3793 28.527 40.4779 27.6731 40.4028C26.3629 40.29 25.0934 40.5813 23.8555 41.0042C23.5302 41.1169 23.2049 41.2297 22.8796 41.3425C22.3646 39.7168 23.0603 38.7254 25.2063 38.1052C24.9443 37.0763 24.4744 36.1225 24.0543 35.0137ZM30.1173 29.5118C30.4245 29.4742 30.6549 29.5118 30.8085 29.4131C31.1248 29.2017 31.4094 28.9292 31.694 28.6661C33.962 26.58 35.7827 24.1791 36.5914 21.0687C36.9167 19.8143 37.0703 18.5786 36.745 17.2771C36.3429 15.6608 36.3384 14.0211 36.7902 12.3954C36.8535 12.1652 36.7992 11.9021 36.7992 11.8222C37.4634 10.9765 38.0507 10.2295 38.6651 9.44483C37.9513 8.70717 37.2917 7.90373 36.2616 7.59833C34.4002 7.04392 32.7557 7.50906 31.2965 8.75884C29.8688 9.98513 29.0962 11.6249 28.7303 13.4808C28.6445 13.913 28.4999 14.1667 28.0933 14.3453C26.6069 14.9937 25.3825 16.0226 24.3163 17.2677C20.5665 21.6466 16.8211 26.0256 13.0803 30.4092C12.9222 30.5925 12.8093 30.8133 12.6647 31.02C13.4644 31.2831 14.0336 31.0764 14.4673 30.428C14.5938 30.2401 14.7655 30.085 14.9146 29.9159C18.2533 26.0397 21.592 22.1635 24.9353 18.292C26.1325 16.9106 27.5602 15.9099 29.3538 15.5998C31.2693 15.2709 33.465 16.2059 33.1443 19.2645C33.0223 20.4391 32.6021 21.4963 32.0238 22.4877C30.4516 25.1705 28.2062 27.1062 25.5768 28.6896C25.4639 28.4594 25.369 28.2667 25.2831 28.0929C25.3554 28.0036 25.3871 27.9378 25.4368 27.9049C25.6988 27.7264 25.9699 27.5526 26.2364 27.374C28.4411 25.8799 30.3658 24.0804 31.6037 21.6278C32.0058 20.8291 32.2994 19.9223 32.4259 19.0296C32.6609 17.3993 31.6443 16.2951 30.0631 16.2998C29.7513 16.2998 29.4306 16.3468 29.1279 16.422C27.6957 16.7791 26.5346 17.6107 25.5587 18.7336C24.3073 20.176 23.0739 21.6372 21.8179 23.075C21.5197 23.4132 21.4023 23.7327 21.452 24.2167C21.6146 25.7813 21.1267 27.125 20.0424 28.2385C19.3195 28.9809 18.6238 29.742 17.9235 30.5079C17.7925 30.6488 17.7202 30.8509 17.5937 31.0717C19.1343 31.067 20.065 31.114 22.6944 29.7232C23.8916 32.7161 25.0889 35.7043 26.2952 38.7207C23.973 39.1389 23.7561 39.261 23.6386 40.2665C25.5497 39.6369 27.4653 39.4114 29.4848 39.8859C29.0194 39.1107 29.4035 39.2845 27.262 38.6221C27.1897 38.2368 27.1581 37.8985 27.0587 37.5837C26.9548 37.2407 26.8102 36.9024 26.6385 36.5923C26.4216 36.1977 26.4714 35.8735 26.6927 35.4929C27.8583 33.4961 28.9969 31.4805 30.1173 29.5118ZM14.5758 36.785C15.3619 36.987 15.8317 36.7991 16.2745 36.3245C16.9567 35.5963 17.7292 34.9573 18.4114 34.229C18.8677 33.7451 19.2789 33.6464 19.9114 33.886C21.0996 34.3371 22.342 34.5297 23.7425 34.2337C23.2637 33.0779 22.8119 31.9785 22.3194 30.7757C20.2683 31.9268 18.1133 31.8704 15.9627 31.8751C14.761 31.8798 13.5592 31.8845 12.3575 31.8704C11.8244 31.8657 11.4449 32.0161 11.35 32.6692C13.0577 32.6692 14.7294 32.6551 16.4055 32.6785C16.8257 32.6832 17.3904 32.4483 17.6208 32.9417C17.8919 33.5196 17.282 33.7921 16.9883 34.1351C16.2474 35.0043 15.4477 35.8359 14.5758 36.785ZM33.4153 28.2714C33.3882 28.262 33.3566 28.2479 33.3295 28.2385C32.3491 29.0655 31.3642 29.8877 30.3929 30.7193C30.2528 30.8415 30.1308 31.0059 30.036 31.1704C29.3989 32.3074 28.7755 33.4538 28.1294 34.5814C27.9487 34.8962 27.9216 35.1687 28.0752 35.5023C28.4728 36.3621 28.78 37.2689 29.2318 38.0958C29.5345 38.6502 29.9366 39.2282 30.4381 39.5524C30.8718 39.8343 31.5088 39.7732 32.182 39.8859C31.6985 38.9369 30.8221 38.9228 30.298 38.6221C30.298 38.2603 30.3613 37.9831 30.2844 37.7575C30.1308 37.2924 29.9321 36.8367 29.6971 36.4091C29.3312 35.7372 29.408 35.1734 29.8056 34.5109C31.0525 32.4624 32.2226 30.3575 33.4153 28.2714ZM20.6388 24.6019C18.7051 26.6927 16.8302 28.7929 14.9914 31.0012C15.9582 31.3066 16.541 31.0012 17.0967 30.3293C17.8964 29.3568 18.7955 28.4782 19.6584 27.5573C20.4264 26.7397 20.7653 25.7578 20.6388 24.6019ZM14.0698 33.59C13.252 33.3175 12.746 33.5008 12.2626 34.074C10.7762 35.8312 9.24013 37.5414 7.72664 39.2704C7.63176 39.3832 7.56399 39.5195 7.45104 39.6933C8.16939 39.8906 8.65281 39.7591 9.10911 39.2094C10.1211 37.9878 11.1919 36.8179 12.2445 35.6292C12.8228 34.9808 13.4056 34.3324 14.0698 33.59ZM12.2174 36.7897C13.0803 37.034 13.5909 36.8179 14.0426 36.2447C14.5215 35.6386 15.0863 35.1076 15.6104 34.5344C15.8814 34.2384 16.1389 33.9283 16.5004 33.5102C15.8588 33.4773 15.3845 33.2894 14.9959 33.7169C14.0878 34.7083 13.1933 35.7043 12.2174 36.7897ZM39.3835 9.93816C38.8052 10.4503 38.3218 10.9765 38.0191 11.7095C39.0717 12.0477 40.0612 12.1135 41.1229 11.639C40.7072 10.8074 40.0702 10.3704 39.3835 9.93816ZM9.80938 39.5993C9.84552 39.6698 9.88167 39.7403 9.91781 39.8108C10.2612 39.7403 10.6949 39.7826 10.9298 39.5805C11.5623 39.0308 12.1903 38.4529 12.7912 37.5367C12.1768 37.6495 11.6572 37.5884 11.3726 37.8327C10.7807 38.3402 10.3199 39.0026 9.80938 39.5993ZM34.5403 39.8718C33.9078 39.0355 33.2572 38.81 32.4214 38.7442C32.6202 39.0825 32.7783 39.3456 32.9229 39.5852C33.4244 39.6745 33.8762 39.7544 34.5403 39.8718ZM28.2424 38.0395C28.0165 37.0058 27.7815 36.5031 27.271 36.0238C27.5556 36.7662 27.7047 37.4475 28.2424 38.0395Z" stroke="#FFEB61" stroke-width="0.4" mask="url(#path-1-outside-1_784_3311)"/>
<path d="M28.1683 38.1068L28.4199 38.3839L28.34 38.0182C28.1121 36.9753 27.871 36.45 27.3394 35.951L27.1776 36.0597C27.2362 36.2124 27.2894 36.3644 27.3421 36.515C27.5399 37.0801 27.7306 37.6249 28.1683 38.1068Z" fill="#FFEB61" stroke="#FFEB61" stroke-width="0.2"/>
<path d="M34.3404 9.21274L34.2893 9.26845L34.3289 9.33282C34.5826 9.74449 34.8188 10.0623 35.05 10.2829C35.2813 10.5037 35.5148 10.6339 35.762 10.655C36.0102 10.6763 36.2532 10.586 36.4998 10.4057C36.7454 10.2259 37.0018 9.95166 37.2807 9.5905L37.3237 9.53486L37.2859 9.47558C37.0416 9.09264 36.8175 8.795 36.5978 8.58727C36.3774 8.37902 36.1547 8.25477 35.9137 8.23229C35.6726 8.2098 35.4311 8.29086 35.1769 8.45649C34.9234 8.62165 34.6496 8.87582 34.3404 9.21274ZM35.7655 9.1559C35.7858 9.18337 35.8071 9.21003 35.8281 9.23541C35.8505 9.2114 35.8732 9.18604 35.8952 9.15973C35.8741 9.13388 35.853 9.10679 35.8327 9.07833C35.8107 9.10563 35.788 9.13143 35.7655 9.1559ZM35.6342 9.45632C35.6342 9.45607 35.6342 9.45583 35.6342 9.4556L35.6342 9.4556L35.6341 9.45447C35.6341 9.4549 35.6341 9.45528 35.6341 9.4556C35.6342 9.45648 35.6341 9.45695 35.6341 9.45695C35.6341 9.45695 35.6341 9.45674 35.6342 9.45632ZM35.8149 9.65031C35.8149 9.65031 35.8149 9.65031 35.8148 9.6503C35.8147 9.6503 35.8146 9.6503 35.8146 9.6503L35.8101 9.7502L35.8148 9.65031C35.8149 9.65031 35.8149 9.65032 35.8149 9.65031ZM36.0142 9.47059C36.014 9.47158 36.0137 9.47279 36.0133 9.47422C36.0135 9.47515 36.0136 9.47559 36.0136 9.47559C36.0136 9.47559 36.0135 9.47485 36.0137 9.47348L36.1128 9.48709L36.0142 9.47059Z" fill="#FFEB61" stroke="#FFEB61" stroke-width="0.2"/>
</svg>
