<svg width="48" height="48" viewBox="0 0 48 48" fill="none" xmlns="http://www.w3.org/2000/svg">
<path d="M42.1932 4.80915C41.7632 4.5827 41.3572 4.54141 40.9904 4.69405C40.3302 4.97055 39.6497 5.2458 39.0642 5.64617C37.7323 6.55825 36.4637 7.56167 35.1471 8.49628C34.5969 8.88663 34.0012 9.21819 33.4055 9.53848C32.6175 9.96262 31.7954 9.99264 30.9505 9.67986C29.9615 9.31578 28.9787 8.92167 27.9669 8.6339C24.5001 7.6505 21.1168 7.96704 17.8195 9.36707C17.6462 9.44089 17.4666 9.49844 17.2971 9.57977C16.2612 10.079 15.233 9.96887 14.3008 9.38959C13.2498 8.7365 12.2481 8.00082 11.2565 7.26015C10.1447 6.43064 9.05825 5.56985 7.80484 4.95178C7.32422 4.71407 6.82842 4.51639 6.27065 4.63024C6.15176 4.65401 6.0354 4.68904 5.91271 4.78038C6.11255 4.84669 6.31618 4.90299 6.51223 4.98181C7.68848 5.45474 8.68767 6.19792 9.52749 7.11376C10.6582 8.34614 11.713 9.64608 12.7932 10.9222C13.0272 11.1987 13.2649 11.4815 13.4433 11.7943C13.8594 12.5287 13.8139 13.2994 13.5546 14.0789C13.1005 15.4476 12.4226 16.7038 11.5992 17.8836C10.5355 19.4075 9.41872 20.8964 8.38665 22.4415C7.78966 23.3361 7.28248 24.2945 6.79301 25.2529C6.37183 26.0799 6.14417 26.9557 6.21374 27.9153C6.29468 29.0088 6.2795 30.1098 6.62226 31.1695C6.87775 31.9615 7.26731 32.6696 7.93132 33.2101C8.17922 33.4116 8.39044 33.4328 8.65352 33.2301C8.95833 32.9962 9.28718 32.791 9.61729 32.5921C10.0246 32.3456 10.4179 32.3781 10.8188 32.6521C12.0039 33.4629 12.9045 34.5338 13.652 35.7299C14.0795 36.4143 14.4197 37.1512 14.7915 37.8681C14.8523 37.9857 14.8877 38.1209 14.9079 38.2522C14.9572 38.5725 14.8042 38.8315 14.531 38.9191C14.2578 39.0067 13.9416 38.8578 13.8126 38.5638C13.7127 38.3361 13.6494 38.0933 13.5457 37.8681C12.8273 36.3017 11.8458 34.9279 10.5115 33.8094C10.2724 33.6092 10.0966 33.578 9.84116 33.7869C9.56923 34.0096 9.25809 34.1873 8.95327 34.3699C8.43344 34.6815 7.93385 34.5989 7.45955 34.2598C6.71206 33.7243 6.17706 33.0225 5.80268 32.1929C5.19684 30.8542 5.17155 29.4254 5.09439 27.9966C5.03495 26.9131 5.22214 25.8909 5.69517 24.9251C6.0784 24.1443 6.44772 23.3461 6.92834 22.6254C8.08689 20.8901 9.31374 19.2011 10.5001 17.4832C11.3159 16.3022 12.0748 15.0861 12.4909 13.6985C12.5643 13.4521 12.6275 13.1943 12.6338 12.9403C12.6389 12.7564 12.5908 12.5312 12.4795 12.3923C11.2097 10.8021 10.0385 9.12936 8.55107 7.71681C7.91488 7.11251 7.22683 6.57327 6.43254 6.18166C6.2365 6.08532 6.03287 5.99899 5.82544 5.93268C4.92365 5.64492 4.38738 5.81758 3.84099 6.58203C3.28701 7.35774 2.99864 8.2448 2.82662 9.16564C2.45478 11.1575 2.56987 13.1055 3.47799 14.9559C4.12683 16.2796 5.05519 17.3907 6.18464 18.3403C6.3048 18.4404 6.43001 18.5342 6.54511 18.6406C6.82589 18.9008 6.85498 19.2086 6.62859 19.4626C6.39207 19.7303 6.08346 19.7753 5.79762 19.5364C3.06567 17.2505 1.3582 14.478 1.50871 10.8009C1.57954 9.07305 1.93368 7.43781 2.89366 5.96646C3.43625 5.13821 4.10786 4.43631 4.9793 3.94086C5.80141 3.47418 6.66021 3.36408 7.57465 3.68062C8.75596 4.091 9.78424 4.76161 10.7784 5.48978C11.8206 6.25297 12.8374 7.0512 13.8847 7.8069C14.2882 8.09716 14.7448 8.31361 15.1811 8.55883C15.644 8.81907 16.1069 8.78904 16.5977 8.60262C17.5349 8.24855 18.4721 7.88947 19.4321 7.60171C22.5131 6.67836 25.6017 6.72466 28.6726 7.65801C29.5504 7.9245 30.4193 8.23103 31.2718 8.57134C31.9193 8.83033 32.5252 8.82783 33.0943 8.44623C34.115 7.76185 35.1117 7.0437 36.1248 6.35056C37.2163 5.60488 38.2711 4.79164 39.4221 4.14855C41.2889 3.1051 42.7207 3.36659 44.2359 4.87922C45.3653 6.0065 45.9674 7.40653 46.2722 8.93418C46.6327 10.7396 46.5859 12.5362 45.9965 14.2991C45.421 16.0182 44.3965 17.4507 43.1153 18.7194C42.8497 18.9821 42.5752 19.2386 42.2906 19.4826C41.958 19.7666 41.5899 19.7453 41.3547 19.45C41.127 19.1648 41.1827 18.8845 41.533 18.5968C42.9129 17.462 44.0702 16.1445 44.7203 14.4742C45.6904 11.9857 45.5829 9.50345 44.437 7.09249C43.7894 5.73 42.8939 5.48853 41.5431 6.20168C40.2063 6.90607 39.1451 7.93076 38.1914 9.0668C37.3162 10.109 36.4941 11.195 35.634 12.251C35.3571 12.5913 35.3103 12.9441 35.4114 13.3532C35.7023 14.5368 36.2588 15.6065 36.9305 16.6074C38.0017 18.2014 39.1274 19.7591 40.2278 21.3343C41.1586 22.6655 41.9833 24.0543 42.5613 25.5769C42.8041 26.215 42.942 26.8668 42.9003 27.55C42.8218 28.7973 42.8851 30.0585 42.5196 31.2771C42.1793 32.4131 41.6279 33.4178 40.6806 34.1748C40.1013 34.6377 39.5916 34.6815 38.9415 34.3174C38.6594 34.1597 38.3761 33.9946 38.1307 33.7882C37.8828 33.5817 37.707 33.6243 37.4832 33.8132C36.5358 34.6164 35.7504 35.5573 35.1344 36.6232C34.8056 37.1938 34.5678 37.8168 34.3009 38.4211C34.1732 38.7114 33.9759 38.9466 33.6534 38.9091C33.475 38.8878 33.255 38.7139 33.1715 38.55C33.0981 38.4049 33.1487 38.1634 33.2158 37.992C33.7444 36.652 34.4439 35.4021 35.4076 34.3224C35.9098 33.7594 36.4827 33.2552 37.0519 32.7572C37.5312 32.3381 38.0599 32.3631 38.5797 32.7172C38.8302 32.8873 39.0831 33.0525 39.331 33.2251C39.6928 33.4754 39.7889 33.4754 40.119 33.1763C40.6881 32.6621 41.0802 32.0303 41.3218 31.3121C41.7948 29.9021 41.8366 28.4358 41.7556 26.9807C41.7063 26.0899 41.2548 25.2791 40.8311 24.4909C39.8761 22.7118 38.6885 21.084 37.5034 19.4538C36.4018 17.9399 35.3495 16.396 34.65 14.6494C34.516 14.3141 34.4085 13.965 34.3237 13.6147C34.1428 12.869 34.2643 12.1584 34.7449 11.5566C35.7959 10.2416 36.8343 8.91416 37.9587 7.66301C38.5924 6.95737 39.3601 6.36308 40.1114 5.77254C40.7008 5.30961 41.3737 4.96555 42.1958 4.81666L42.1932 4.80915Z" fill="#FFEB61"/>
<path d="M22.7167 20.1654C22.7117 22.0334 22.2487 23.5948 21.4494 25.0286C20.6601 26.4463 19.7795 27.8156 18.9007 29.1823C18.8092 29.3246 18.7177 29.4668 18.6264 29.6091C17.7259 31.0104 16.8645 32.4242 16.3877 34.0331C15.8793 35.7472 16.0272 37.4563 16.6242 39.0978C17.5703 41.6926 21.2698 42.377 23.1619 40.3539C23.2531 40.2564 23.3114 40.1264 23.3681 39.9999C23.379 39.9755 23.3899 39.9512 23.401 39.9273C23.5186 39.6708 23.6678 39.4431 23.979 39.4256C24.2762 39.408 24.4077 39.627 24.5342 39.8547C24.9807 40.6604 25.7585 41.0308 26.5693 41.3623C28.7624 42.2582 31.2351 40.2413 31.636 38.3145C32.1318 35.9261 31.7941 33.7203 30.5698 31.6459C29.9159 30.5381 29.2194 29.4559 28.5229 28.3735C28.2818 27.9988 28.0406 27.624 27.8012 27.2482C26.6932 25.5116 25.7851 23.6899 25.4284 21.6468C25.1527 20.0629 25.2501 18.5202 26.1822 17.1364C26.8943 16.0792 27.8884 15.4586 29.2102 15.5237C29.5959 15.5425 30.0108 15.6426 30.3472 15.8252C30.7613 16.0495 31.1491 16.3228 31.5366 16.596C31.6852 16.7008 31.8338 16.8055 31.9838 16.9075C32.042 16.9475 32.0888 17.0088 32.1293 17.0676C32.319 17.3354 32.2861 17.6844 32.0559 17.8846C31.8232 18.0873 31.526 18.0723 31.2604 17.8483C31.1715 17.7736 31.0838 17.6969 30.9962 17.6203C30.786 17.4363 30.5757 17.2523 30.3472 17.0951C29.2367 16.3357 28.1186 16.4996 27.2725 17.5455C26.463 18.5477 26.2809 19.7225 26.4327 20.9499C26.6679 22.8679 27.4774 24.582 28.4905 26.2047C28.897 26.856 29.315 27.5008 29.733 28.1456C30.2071 28.8769 30.6812 29.6084 31.139 30.3498C31.9788 31.7085 32.6314 33.1548 32.8831 34.7413C33.1247 36.2664 33.0159 37.7828 32.5163 39.2466C32.0408 40.6354 31.015 41.55 29.7224 42.2131C29.1128 42.5259 28.5107 42.8612 27.939 43.239C26.181 44.4014 24.2914 44.8117 22.2348 44.2512C21.1939 43.9685 20.2934 43.3942 19.4055 42.8011C19.1222 42.6122 18.8161 42.4483 18.5037 42.3119C16.6154 41.4862 15.5188 40.0849 15.1482 38.0606C14.6549 35.3668 15.2911 32.9196 16.6748 30.63C17.243 29.6904 17.8435 28.7705 18.4442 27.8505C18.8705 27.1975 19.2968 26.5445 19.7116 25.8844C20.5843 24.4957 21.2521 23.0168 21.5303 21.3903C21.7239 20.2593 21.6391 19.157 21.0902 18.1273C20.6829 17.3629 20.091 16.8049 19.1867 16.6547C18.6466 16.5647 18.1673 16.7348 17.7334 17.0226C17.4147 17.2353 17.1137 17.4817 16.8329 17.742C16.4901 18.0585 16.1613 18.1123 15.9033 17.8458C15.6314 17.5643 15.6579 17.1877 16.0159 16.905C16.0245 16.8981 16.0332 16.8912 16.0419 16.8844C16.4407 16.5695 16.845 16.2502 17.2857 16.0016C18.7706 15.1609 20.411 15.4611 21.5215 16.7573C22.4132 17.797 22.699 19.0407 22.7155 20.1629L22.7167 20.1654ZM21.2432 42.5246C22.4094 43.6632 25.9698 43.6519 26.8033 42.5372C25.713 42.3607 24.7935 41.8578 23.984 41.1046C23.2201 41.8515 22.3487 42.3695 21.2432 42.5246Z" fill="#FFEB61"/>
<path d="M22.7167 20.1654C22.7117 22.0334 22.2487 23.5948 21.4494 25.0286C20.6601 26.4463 19.7795 27.8156 18.9007 29.1823C18.8092 29.3246 18.7177 29.4668 18.6264 29.6091C17.7259 31.0104 16.8645 32.4242 16.3877 34.0331C15.8793 35.7472 16.0272 37.4563 16.6242 39.0978C17.5703 41.6926 21.2698 42.377 23.1619 40.3539C23.2531 40.2564 23.3114 40.1264 23.3681 39.9999C23.379 39.9755 23.3899 39.9512 23.401 39.9273C23.5186 39.6708 23.6678 39.4431 23.979 39.4256C24.2762 39.408 24.4077 39.627 24.5342 39.8547C24.9807 40.6604 25.7585 41.0308 26.5693 41.3623C28.7624 42.2582 31.2351 40.2413 31.636 38.3145C32.1318 35.9261 31.7941 33.7203 30.5698 31.6459C29.9159 30.5381 29.2194 29.4559 28.5229 28.3735C28.2818 27.9988 28.0406 27.624 27.8012 27.2482C26.6932 25.5116 25.7851 23.6899 25.4284 21.6468C25.1527 20.0629 25.2501 18.5202 26.1822 17.1364C26.8943 16.0792 27.8884 15.4586 29.2102 15.5237C29.5959 15.5425 30.0108 15.6426 30.3472 15.8252C30.7613 16.0495 31.1491 16.3228 31.5366 16.596C31.6852 16.7008 31.8338 16.8055 31.9838 16.9075C32.042 16.9475 32.0888 17.0088 32.1293 17.0676C32.319 17.3354 32.2861 17.6844 32.0559 17.8846C31.8232 18.0873 31.526 18.0723 31.2604 17.8483C31.1715 17.7736 31.0838 17.6969 30.9962 17.6203C30.786 17.4363 30.5757 17.2523 30.3472 17.0951C29.2367 16.3357 28.1186 16.4996 27.2725 17.5455C26.463 18.5477 26.2809 19.7225 26.4327 20.9499C26.6679 22.8679 27.4774 24.582 28.4905 26.2047C28.897 26.856 29.315 27.5008 29.733 28.1456C30.2071 28.8769 30.6812 29.6084 31.139 30.3498C31.9788 31.7085 32.6314 33.1548 32.8831 34.7413C33.1247 36.2664 33.0159 37.7828 32.5163 39.2466C32.0408 40.6354 31.015 41.55 29.7224 42.2131C29.1128 42.5259 28.5107 42.8612 27.939 43.239C26.181 44.4014 24.2914 44.8117 22.2348 44.2512C21.1939 43.9685 20.2934 43.3942 19.4055 42.8011C19.1222 42.6122 18.8161 42.4483 18.5037 42.3119C16.6154 41.4862 15.5188 40.0849 15.1482 38.0606C14.6549 35.3668 15.2911 32.9196 16.6748 30.63C17.243 29.6904 17.8435 28.7705 18.4442 27.8505C18.8705 27.1975 19.2968 26.5445 19.7116 25.8844C20.5843 24.4957 21.2521 23.0168 21.5303 21.3903C21.7239 20.2593 21.6391 19.157 21.0902 18.1273C20.6829 17.3629 20.091 16.8049 19.1867 16.6547C18.6466 16.5647 18.1673 16.7348 17.7334 17.0226C17.4147 17.2353 17.1137 17.4817 16.8329 17.742C16.4901 18.0585 16.1613 18.1123 15.9033 17.8458C15.6314 17.5643 15.6579 17.1877 16.0159 16.905C16.0245 16.8981 16.0332 16.8912 16.0419 16.8844C16.4407 16.5695 16.845 16.2502 17.2857 16.0016C18.7706 15.1609 20.411 15.4611 21.5215 16.7573C22.4132 17.797 22.699 19.0407 22.7155 20.1629L22.7167 20.1654ZM21.2432 42.5246C22.4094 43.6632 25.9698 43.6519 26.8033 42.5372C25.713 42.3607 24.7935 41.8578 23.984 41.1046C23.2201 41.8515 22.3487 42.3695 21.2432 42.5246Z" stroke="#FFEB61"/>
<path d="M24.0524 38.9465C21.7277 38.9477 19.9911 37.2074 19.9937 34.8765C19.9962 32.7583 21.8112 30.9679 23.9613 30.9617C26.1469 30.9554 27.9783 32.8059 27.977 35.0204C27.9758 37.2024 26.2329 38.9465 24.0536 38.9477L24.0524 38.9465ZM26.5731 36.249C26.8817 35.6435 26.9197 35.0279 26.7767 34.3961C26.4087 32.7621 24.7531 31.7236 23.2227 32.1628C21.6404 32.6182 20.7095 34.3936 21.2547 35.92C21.3685 36.2403 21.4785 36.2778 21.7467 36.0576C22.0919 35.7761 22.331 35.4533 22.2184 34.9591C22.1438 34.6275 22.3664 34.2947 22.6472 34.2184C22.9166 34.1446 23.2252 34.2622 23.3327 34.5187C23.3985 34.6751 23.4352 34.8603 23.4225 35.0279C23.3669 35.8024 23.0671 36.468 22.4575 36.9784C22.4061 37.0215 22.3577 37.0681 22.3091 37.115C22.287 37.1363 22.2649 37.1576 22.2425 37.1786C23.1303 38.0131 25.0693 37.9844 25.7573 37.1323C25.7234 37.1007 25.6891 37.0691 25.6547 37.0374C25.6005 36.9874 25.5458 36.9371 25.4917 36.8859C24.8897 36.3266 24.5406 35.656 24.5924 34.8227C24.619 34.3998 24.9428 34.1346 25.3235 34.1871C25.6612 34.2347 25.8673 34.5637 25.8104 34.9641C25.7282 35.5421 25.9774 35.9788 26.5718 36.2465L26.5731 36.249Z" fill="#FFEB61"/>
<path d="M24.0524 38.9465C21.7277 38.9477 19.9911 37.2074 19.9937 34.8765C19.9962 32.7583 21.8112 30.9679 23.9613 30.9617C26.1469 30.9554 27.9783 32.8059 27.977 35.0204C27.9758 37.2024 26.2329 38.9465 24.0536 38.9477L24.0524 38.9465ZM26.5731 36.249C26.8817 35.6435 26.9197 35.0279 26.7767 34.3961C26.4087 32.7621 24.7531 31.7236 23.2227 32.1628C21.6404 32.6182 20.7095 34.3936 21.2547 35.92C21.3685 36.2403 21.4785 36.2778 21.7467 36.0576C22.0919 35.7761 22.331 35.4533 22.2184 34.9591C22.1438 34.6275 22.3664 34.2947 22.6472 34.2184C22.9166 34.1446 23.2252 34.2622 23.3327 34.5187C23.3985 34.6751 23.4352 34.8603 23.4225 35.0279C23.3669 35.8024 23.0671 36.468 22.4575 36.9784C22.4061 37.0215 22.3577 37.0681 22.3091 37.115C22.287 37.1363 22.2649 37.1576 22.2425 37.1786C23.1303 38.0131 25.0693 37.9844 25.7573 37.1323C25.7234 37.1007 25.6891 37.0691 25.6547 37.0374C25.6005 36.9874 25.5458 36.9371 25.4917 36.8859C24.8897 36.3266 24.5406 35.656 24.5924 34.8227C24.619 34.3998 24.9428 34.1346 25.3235 34.1871C25.6612 34.2347 25.8673 34.5637 25.8104 34.9641C25.7282 35.5421 25.9774 35.9788 26.5718 36.2465L26.5731 36.249Z" stroke="#FFEB61"/>
<path d="M32.9425 23.0381C32.945 24.3593 31.8775 25.4115 30.5255 25.419C29.1747 25.4265 28.0389 24.3368 28.0313 23.0256C28.0237 21.7194 29.1241 20.6371 30.4711 20.6246C31.8193 20.6121 32.9387 21.7056 32.9412 23.0381H32.9425ZM31.8168 23.0318C31.8155 22.3437 31.2084 21.7431 30.5179 21.7444C29.783 21.7469 29.1696 22.3037 29.1645 22.9718C29.1595 23.6912 29.7704 24.2917 30.5014 24.2867C31.2337 24.283 31.8181 23.725 31.8155 23.0306L31.8168 23.0318Z" fill="#FFEB61"/>
<path d="M32.9425 23.0381C32.945 24.3593 31.8775 25.4115 30.5255 25.419C29.1747 25.4265 28.0389 24.3368 28.0313 23.0256C28.0237 21.7194 29.1241 20.6371 30.4711 20.6246C31.8193 20.6121 32.9387 21.7056 32.9412 23.0381H32.9425ZM31.8168 23.0318C31.8155 22.3437 31.2084 21.7431 30.5179 21.7444C29.783 21.7469 29.1696 22.3037 29.1645 22.9718C29.1595 23.6912 29.7704 24.2917 30.5014 24.2867C31.2337 24.283 31.8181 23.725 31.8155 23.0306L31.8168 23.0318Z" stroke="#FFEB61"/>
<path d="M19.9318 23.0169C19.9318 24.3293 18.8314 25.4341 17.5325 25.4228C16.1652 25.4115 15.0699 24.3356 15.0674 23.0018C15.0649 21.7219 16.1893 20.6384 17.5198 20.6384C18.8668 20.6384 19.9318 21.6894 19.933 23.0169H19.9318ZM17.4958 24.288C18.2635 24.2818 18.8188 23.7313 18.82 22.9768C18.82 22.2949 18.2066 21.7282 17.4831 21.7444C16.7787 21.7607 16.2006 22.3337 16.2057 23.0106C16.2108 23.7225 16.7888 24.2955 17.4958 24.2893V24.288Z" fill="#FFEB61"/>
<path d="M19.9318 23.0169C19.9318 24.3293 18.8314 25.4341 17.5325 25.4228C16.1652 25.4115 15.0699 24.3356 15.0674 23.0018C15.0649 21.7219 16.1893 20.6384 17.5198 20.6384C18.8668 20.6384 19.9318 21.6894 19.933 23.0169H19.9318ZM17.4958 24.288C18.2635 24.2818 18.8188 23.7313 18.82 22.9768C18.82 22.2949 18.2066 21.7282 17.4831 21.7444C16.7787 21.7607 16.2006 22.3337 16.2057 23.0106C16.2108 23.7225 16.7888 24.2955 17.4958 24.2893V24.288Z" stroke="#FFEB61"/>
</svg>
