<svg width="48" height="49" viewBox="0 0 48 49" fill="none" xmlns="http://www.w3.org/2000/svg">
<path d="M26.3122 43.6994C24.8766 43.6994 23.4889 43.6994 22.1011 43.6994C22.0054 43.6994 21.8619 43.5533 21.8619 43.4559C21.5747 41.4589 21.5747 39.462 21.7661 37.4651C21.9097 35.9553 22.149 34.3967 22.4361 32.8868C22.5318 32.3511 22.7232 31.8153 22.9625 31.2796C23.106 30.9386 23.0582 30.6951 22.8189 30.4516C21.6226 29.0391 20.1392 28.1624 18.3686 27.7241C16.6459 27.2857 14.8275 27.237 13.0569 27.4318C11.3342 27.6267 9.6115 27.9189 7.88879 28.2111C7.50596 28.2598 7.07529 28.3085 6.69246 28.3085C6.4532 28.3085 6.26179 28.1624 6.02253 28.065C5.87897 28.0163 5.68755 27.9189 5.544 27.8702C4.0127 27.6267 2.76852 26.9448 1.85932 25.581C1.52434 25.094 1.52434 24.6069 1.90717 24.0712C2.67282 22.9997 3.77343 22.4152 5.01761 22.1717C5.11332 22.1717 5.20902 22.123 5.35258 22.123C5.35258 21.782 5.35258 21.4411 5.35258 21.1002C5.40044 20.3696 5.68755 19.7364 6.02253 19.152C6.3575 18.6649 6.78817 18.5675 7.31455 18.6649C9.22867 19.0545 10.76 20.6618 11.0949 22.6587C11.1906 23.0971 11.3342 23.3893 11.7649 23.5841C12.9612 24.266 14.1097 24.9479 15.306 25.6785C15.6888 25.922 16.1195 26.0194 16.5502 26.0681C18.8471 26.2142 20.9048 26.9935 22.7232 28.5034C22.7711 28.5521 22.8668 28.6008 22.9146 28.6495C22.9146 28.6495 22.9625 28.6495 23.0582 28.6982C23.0582 28.1137 23.2974 27.5293 23.0103 26.8961C21.1441 23.2432 19.3256 19.639 17.5072 15.9861C17.3158 15.5478 17.0766 15.1094 16.8373 14.6224C16.7894 15.1094 16.7416 15.4991 16.6937 15.8887C16.6937 15.9861 16.7416 16.0835 16.8373 16.1322C17.4594 16.4732 17.6508 17.1063 17.6986 17.7395C17.7465 18.324 17.6508 18.9571 17.6508 19.5903C17.6508 19.9799 17.4115 20.1748 17.0766 20.2235C15.8324 20.467 14.7318 20.2235 13.8226 19.2494C13.7269 19.152 13.4876 19.0545 13.344 19.1033C11.7649 19.2494 10.3771 18.811 9.27653 17.6421C8.22376 16.5219 8.31947 15.4991 9.56364 14.6224C9.89861 14.3788 10.2814 14.184 10.6164 14.0866C10.8557 13.9892 10.9035 13.8918 10.9035 13.5996C10.9035 12.9177 10.8557 12.2358 10.9992 11.5539C11.3342 9.94667 11.8606 9.45962 13.7747 9.94667C14.7318 10.1902 15.4974 10.8234 16.0716 11.7001C16.1195 11.7488 16.1674 11.8462 16.2152 11.8949C16.3109 11.2617 16.3588 10.6773 16.5502 10.0928C16.6937 9.55703 16.9809 9.06998 17.268 8.58293C17.6986 7.99846 18.1772 7.90105 18.895 8.24199C19.6606 8.58293 20.3306 9.11869 20.9048 9.84926C20.9526 9.2648 20.9527 8.72904 21.0005 8.24199C21.1919 7.26789 21.5747 6.4399 22.2925 5.70932C22.8189 5.22227 23.106 5.17356 23.7281 5.5145C24.9723 6.19637 25.6422 7.31659 25.8336 8.72904C25.9294 9.36221 25.8337 10.0441 25.7858 10.6773C25.7858 10.8234 25.7379 10.9695 25.7858 11.1156C26.2165 12.6255 25.6901 13.8431 24.8287 14.9633C24.733 15.0607 24.6852 15.2555 24.6852 15.4017C24.6373 18.3727 24.5895 21.295 24.5416 24.266C24.5416 24.3147 24.5416 24.3634 24.5416 24.5095C24.6373 24.3634 24.6852 24.3147 24.733 24.2173C25.7858 22.0743 26.8386 19.9312 27.9392 17.7395C28.0349 17.5447 28.0827 17.3986 27.9392 17.2037C26.5514 15.5965 26.1208 13.697 26.5036 11.5539C26.7429 10.2389 27.3649 9.16739 28.4656 8.43681C29.5183 7.75494 30.1883 7.90105 30.8582 8.97257C31.2889 9.65444 31.5282 10.385 31.576 11.213C31.576 11.3591 31.576 11.5539 31.6239 11.7975C31.8153 11.5539 31.9588 11.4078 32.1024 11.2617C32.9159 10.3363 33.9208 9.80056 35.165 9.80056C35.8349 9.80056 36.3134 10.0928 36.6006 10.7747C37.0312 11.7975 36.9834 12.869 36.8877 13.9892C36.9834 14.0379 37.127 14.0379 37.2705 14.0866C37.9883 14.3301 38.6104 14.7685 39.0411 15.4017C39.3282 15.84 39.376 16.2783 39.1846 16.7167C38.4668 18.3727 36.4092 19.3955 34.6386 19.0545C34.4472 19.0058 34.3036 19.0545 34.1601 19.2007C33.2509 20.2722 32.0545 20.5157 30.7625 20.1261C30.5711 20.0774 30.3797 19.8338 30.3318 19.6877C30.0447 18.7623 30.1404 17.7882 30.4275 16.8628C30.5232 16.5706 30.8104 16.3758 31.0018 16.1809C31.0496 16.0835 31.1932 15.9861 31.1932 15.8887C31.1932 15.4991 31.1453 15.1581 31.0975 14.7198C30.9539 15.012 30.9061 15.2068 30.8104 15.4017C30.1883 16.668 29.5183 17.8856 28.8962 19.152C27.6042 21.8307 26.3122 24.5095 25.0202 27.1396C24.733 27.6754 24.4938 28.2111 24.4938 28.7956C24.4938 28.9417 24.4938 29.0878 24.4459 29.3313C24.6373 29.1852 24.6852 29.0878 24.7809 29.0391C26.5993 27.2857 28.7527 26.3116 31.2889 26.1168C31.6717 26.0681 32.0545 25.9707 32.3895 25.7759C33.8729 24.9966 35.3085 24.1686 36.792 23.3893C36.8877 23.3406 36.9355 23.1945 36.9355 23.0484C37.0791 21.0028 38.6104 19.152 40.4767 18.7136C41.3859 18.5188 41.7687 18.6649 42.2472 19.5416C42.63 20.2235 42.7736 21.0028 42.6779 21.782C42.6779 22.0743 42.7257 22.1717 43.0607 22.2204C44.257 22.4639 45.2619 22.9997 46.0276 23.9738C46.5061 24.6069 46.5061 25.0453 46.0276 25.6785C45.0705 26.9448 43.8742 27.7241 42.2951 27.8702C42.1994 27.8702 42.0558 27.9189 42.0079 27.9676C41.6251 28.2598 41.2423 28.3085 40.8116 28.2598C39.4239 28.065 37.9883 27.8702 36.6006 27.6754C34.3993 27.3831 32.2459 27.1396 30.0447 27.6267C27.1257 28.3085 25.1159 30.0132 23.9674 32.7894C23.9195 32.8868 23.9195 33.0816 23.9195 33.1791C24.1109 36.6858 24.8287 40.0952 26.4079 43.261C26.2165 43.4072 26.2643 43.5533 26.3122 43.6994ZM21.5747 12.8203C21.5747 12.9664 21.5269 13.1125 21.5269 13.2586C21.3833 14.7198 20.9527 16.0835 20.0434 17.2525C19.852 17.496 19.852 17.6421 19.9477 17.8856C20.9526 19.8338 21.9097 21.782 22.9146 23.7302C22.9625 23.8277 23.0103 23.9251 23.106 24.0712C23.1539 23.9738 23.1539 23.9738 23.1539 23.9251C23.2496 21.1002 23.3453 18.2753 23.3932 15.4504C23.3932 15.353 23.3453 15.2555 23.2974 15.2068C22.4361 14.6224 21.9576 13.7944 21.5747 12.8203ZM12.4827 15.012C12.1956 15.0607 12.0041 15.0607 11.7649 15.1094C11.1906 15.2555 10.6164 15.4504 10.1857 15.8887C9.94647 16.1322 9.89861 16.3758 10.1379 16.6193C10.9514 17.5447 11.9563 17.8856 13.1526 17.7882C13.2483 17.7882 13.3919 17.6421 13.4397 17.5447C13.679 16.7167 14.2532 16.1809 15.0667 15.9861C15.306 15.9374 15.4017 15.7913 15.4496 15.5478C15.641 14.3788 15.4017 13.2586 14.7796 12.2845C14.3489 11.5539 13.679 11.1643 12.8176 11.1643C12.5784 11.1643 12.4348 11.213 12.387 11.5052C12.3391 12.2358 12.2913 13.0151 12.2913 13.7457C12.2913 14.184 12.4348 14.5737 12.4827 15.012ZM35.2607 15.012C35.3085 14.8172 35.3564 14.6711 35.3564 14.525C35.5957 13.5509 35.6435 12.5768 35.4042 11.6026C35.3564 11.2617 35.165 11.1643 34.8779 11.213C34.495 11.3104 34.1122 11.4078 33.7772 11.6026C32.2938 12.4793 32.0545 14.6711 32.2938 15.7426C32.3417 15.84 32.4852 15.9861 32.6288 16.0348C33.3944 16.2783 33.9687 16.668 34.3036 17.4473C34.5429 17.983 34.5429 17.983 35.1171 17.9343C35.2128 17.9343 35.3085 17.9343 35.4042 17.8856C36.2177 17.7395 36.9355 17.4473 37.5098 16.7654C37.8447 16.3758 37.8447 16.1809 37.4141 15.8887C37.1269 15.6939 36.792 15.4991 36.457 15.353C36.122 15.1581 35.6914 15.1094 35.2607 15.012ZM28.7048 16.1809C29.3748 15.0607 29.9012 13.9892 30.0926 12.7716C30.284 11.8949 30.284 11.0182 29.949 10.1415C29.5662 9.2648 29.3748 9.21609 28.7527 9.89796C27.6999 11.0182 27.4607 12.3819 27.6999 13.8431C27.8435 14.7198 28.1306 15.4504 28.7048 16.1809ZM18.3207 9.41091C17.8901 9.94667 17.6986 10.5311 17.6986 11.1643C17.6029 12.9664 18.225 14.5737 19.1342 16.0835C19.1342 16.1322 19.1821 16.1322 19.2778 16.1809C19.9956 14.7685 20.522 13.3073 20.1392 11.6514C19.8999 10.6773 19.3256 9.89796 18.3207 9.41091ZM9.89861 23.3893C9.94647 21.9769 8.70229 20.3696 7.31455 20.0774C7.12314 20.0287 6.93173 20.0774 6.88388 20.2722C6.50105 21.2463 6.50105 22.1717 7.02744 23.0484C7.171 23.2919 7.41026 23.5841 7.64952 23.7302C7.79308 23.8277 8.0802 23.6328 8.31947 23.5841C8.84585 23.5354 9.37223 23.4867 9.89861 23.3893ZM38.0362 22.951C38.4668 22.9997 38.8018 22.9997 39.1846 23.0971C39.5675 23.1945 39.8546 23.3893 40.1895 23.4867C40.2852 23.5354 40.4767 23.4867 40.5245 23.438C41.2423 22.7074 41.4337 21.1976 40.9552 20.2722C40.8116 20.0286 40.7159 19.9799 40.4288 20.0774C39.0889 20.5157 38.3711 21.5385 38.0362 22.951ZM5.7354 26.6039C6.02252 25.9707 6.30964 25.3862 6.54891 24.8018C6.59676 24.7044 6.50105 24.5582 6.4532 24.4608C6.26179 24.1686 6.07038 23.9251 5.83111 23.6815C5.73541 23.5841 5.54399 23.4867 5.40044 23.4867C4.53908 23.6328 3.82129 24.0712 3.1992 24.6556C3.05564 24.8018 3.05564 24.9479 3.15135 25.094C3.86914 25.9707 4.73049 26.4577 5.7354 26.6039ZM42.0558 26.6039C43.0607 26.409 43.9221 26.0194 44.592 25.1914C44.7834 24.9479 44.7834 24.7531 44.5442 24.5095C43.9699 23.9251 43.2043 23.5841 42.3908 23.438C42.2951 23.438 42.1515 23.4867 42.1037 23.5354C41.8165 23.8277 41.5773 24.1686 41.338 24.4121C41.5773 25.1914 41.8165 25.8733 42.0558 26.6039ZM22.5318 10.4824C23.0582 10.4337 23.4889 10.385 23.9674 10.385C24.6373 10.385 24.733 10.2876 24.6852 9.60574C24.6852 9.45962 24.6373 9.3135 24.6373 9.16739C24.4938 8.3881 24.1588 7.65753 23.5846 7.07307C23.2496 6.78084 23.1539 6.78083 22.9146 7.12177C22.5318 7.65753 22.3404 8.24199 22.2925 8.87516C22.2447 9.45962 22.2447 9.99538 22.5318 10.4824ZM40.5245 26.7987C40.8116 25.4349 39.5196 24.1199 38.2754 24.5095C38.2754 25.6297 39.4717 26.8474 40.5245 26.7987ZM34.5907 26.0194C34.5907 26.0681 34.5907 26.0681 34.6386 26.1168C35.6914 26.2629 36.7441 26.409 37.7969 26.5552C37.4619 25.922 37.1748 25.3862 36.8877 24.7531C36.0742 25.1914 35.3564 25.581 34.5907 26.0194ZM7.2667 26.7987C8.12806 26.8474 9.51579 25.8733 9.56364 24.8505C7.98449 24.7044 7.21885 25.7272 7.2667 26.7987ZM23.7281 11.7001C23.4889 11.7488 23.2974 11.7488 23.0582 11.8462C22.9625 11.8949 22.8189 12.1384 22.8668 12.2358C23.0582 12.6742 23.2496 13.1612 23.5367 13.5509C23.7281 13.8431 24.0152 13.7944 24.2067 13.4534C24.3502 13.2099 24.4459 12.9664 24.4938 12.7229C24.6852 11.9436 24.5416 11.7488 23.7281 11.7001ZM13.2005 26.1168C13.2005 26.0681 13.2483 26.0681 13.2483 26.0194C12.5305 25.6298 11.8127 25.1914 11.1428 24.8018C10.8078 25.3862 10.5207 25.922 10.2336 26.4577C11.2385 26.3603 12.1956 26.2142 13.2005 26.1168ZM31.3367 19.0058C31.9588 18.9571 32.5331 18.9084 32.868 18.4214C32.9637 18.2753 33.0594 18.0317 33.0116 17.8856C32.9159 17.4473 32.1502 17.1063 31.7674 17.3012C31.6239 17.3499 31.4803 17.496 31.4803 17.6421C31.3846 18.0804 31.3846 18.5188 31.3367 19.0058ZM16.4545 19.0058C16.4545 18.9084 16.4545 18.8597 16.4545 18.811C16.4545 18.5188 16.4066 18.2266 16.4066 17.9343C16.3588 17.6421 16.3109 17.3499 15.9281 17.3012C15.5453 17.2525 15.0667 17.4473 14.9232 17.7395C14.7318 18.0804 14.8275 18.324 15.0667 18.5675C15.4496 18.9084 15.9281 19.0058 16.4545 19.0058Z" fill="#FFEB61"/>
<path d="M22.3877 43.115H25.4024L24.1104 39.7057L23.584 36.4911L23.2969 33.1305L23.2012 32.0103L23.0576 32.4486L22.5791 34.9326L22.2441 37.4652L22.1963 39.7057L22.3877 43.115Z" fill="#FFEB61"/>
</svg>
