<svg width="48" height="48" viewBox="0 0 48 48" fill="none" xmlns="http://www.w3.org/2000/svg">
<path d="M22.192 29.7482C22.2969 29.2498 22.3726 28.7578 22.5067 28.2878C22.7456 27.4361 23.0429 26.6002 23.2644 25.7423C23.5412 24.6667 23.614 23.5563 23.5849 22.4397C23.582 22.3451 23.5645 22.2252 23.512 22.159C22.868 21.3641 22.4542 20.443 22.224 19.4084C21.9472 19.4337 21.6791 19.4589 21.411 19.4841C18.0744 19.787 15.1021 17.478 14.2978 13.9578C14.2337 13.6802 14.1929 13.3963 14.155 13.1156C14.1055 12.7529 14.1696 12.6267 14.493 12.5478C14.6999 12.4974 14.7465 12.3838 14.7728 12.1756C14.8748 11.3934 15.0059 10.6143 15.1137 9.83198C15.2565 8.79107 15.2449 7.75015 15.0176 6.72185C14.9214 6.28655 15.003 6.11622 15.4197 6.11937C16.0783 6.12568 16.7339 6.19823 17.3925 6.25501C17.8733 6.29601 18.3512 6.35279 18.8612 6.40641C18.902 6.07521 18.9603 5.77871 18.9661 5.48221C18.9807 4.98698 18.9632 4.4886 18.9544 3.99338C18.9486 3.74419 19.036 3.61801 19.2954 3.58332C19.75 3.52023 20.2104 3.49815 20.6592 3.40037C21.5334 3.21426 22.326 2.81051 23.0196 2.19543C23.3722 1.88 23.5266 1.91785 23.6811 2.37207C23.9433 3.13856 24.4591 3.70003 25.0303 4.34666C25.0769 4.25834 25.106 4.17002 25.1585 4.10378C25.6714 3.4603 26.2338 2.88306 26.9565 2.52347C27.0993 2.45092 27.2799 2.45408 27.4431 2.46039C27.5014 2.46354 27.5947 2.57079 27.6034 2.64018C27.7608 3.86405 28.4456 4.76933 29.1333 5.67777C29.6112 6.30863 30.127 6.92057 30.5087 7.61767C31.619 9.64273 31.5636 11.7435 30.6486 13.8285C29.9026 15.5286 28.6729 16.7462 27.1779 17.6641C27.0147 17.765 26.9885 17.8628 27.0235 18.0458C27.2479 19.298 27.2654 20.5408 26.7845 21.7395C26.5223 22.3892 26.1755 22.9728 25.5752 23.3229C25.5315 23.3482 25.4907 23.4239 25.4878 23.4806C25.4091 25.1997 24.9662 26.821 24.4008 28.4171C24.0278 29.4706 23.9229 30.5904 23.8413 31.707C23.7044 33.6186 23.8676 35.508 24.2551 37.3753C24.2784 37.4826 24.3047 37.5867 24.3338 37.6908C24.3396 37.7128 24.3571 37.7286 24.3688 37.7444C24.733 37.4542 25.0973 37.1703 25.4557 36.8769C25.4936 36.8454 25.5024 36.7602 25.5053 36.6971C25.7209 32.1392 28.3144 28.8587 31.6277 27.5308C33.7171 26.6949 35.8356 26.7422 37.9425 27.4929C38.1785 27.5781 38.4117 27.6695 38.6506 27.7421C38.8779 27.8083 38.9653 27.9755 38.9682 28.2089C39.0061 31.707 38.0066 34.7541 35.585 37.1482C34.1251 38.5929 32.3883 39.4603 30.4417 39.8231C29.9754 39.9082 29.5063 39.8231 29.0633 39.6527C28.2736 39.3499 27.4868 39.0313 26.703 38.7064C26.5602 38.6465 26.4378 38.6307 26.3154 38.7443C25.9016 39.126 25.482 39.5013 25.0798 39.8956C25.0274 39.9461 25.0303 40.1164 25.0652 40.2047C25.5781 41.5232 26.0997 42.8354 26.6243 44.1476C26.7467 44.4567 26.8982 44.7532 27.0264 45.0592C27.2421 45.5702 27.0526 46.1569 26.6039 46.3966C26.1726 46.6269 25.6364 46.4502 25.4004 45.9676C24.1852 43.5041 23.1653 40.9523 22.5242 38.2364C22.055 36.2492 21.8306 34.2336 21.9326 32.1802C21.9355 32.0919 21.8685 31.9594 21.7986 31.9089C21.5276 31.7134 21.2362 31.5525 20.9593 31.3632C20.8078 31.2591 20.6796 31.2497 20.5077 31.3222C19.7529 31.6377 18.9923 31.931 18.2347 32.2307C17.4712 32.5335 16.699 32.5492 15.9209 32.2906C12.1618 31.0352 9.87132 28.3446 9.18651 24.1336C9.04372 23.263 9.08161 22.3577 9.03207 21.4682C9.0175 21.219 9.12532 21.0644 9.33513 20.995C11.9199 20.1213 14.4901 19.9257 16.9758 21.3357C19.5722 22.8056 21.1196 25.1303 21.6062 28.2657C21.6412 28.4897 21.6995 28.7199 21.682 28.9407C21.6354 29.3729 21.851 29.5905 22.192 29.7482ZM15.3906 12.163C15.7548 12.0558 16.0841 11.9485 16.4221 11.8634C17.5965 11.5605 18.5523 11.9075 19.2575 12.9989C19.3799 13.1913 19.5344 13.3648 19.6975 13.5162C20.1958 13.9767 20.7874 14.1439 21.4314 14.1281C21.6354 14.1218 21.7578 14.2228 21.7724 14.4499C21.784 14.6612 21.6616 14.8095 21.4372 14.8095C21.1808 14.8063 20.9244 14.7905 20.6708 14.7432C19.8199 14.576 19.1817 14.0587 18.6922 13.3049C18.2026 12.551 17.5207 12.2892 16.7106 12.4974C16.0987 12.6519 15.5071 12.8917 14.9039 13.0872C14.7786 13.1282 14.7844 13.2008 14.8019 13.3143C15.1574 15.9545 17.1506 18.2066 19.5781 18.7208C20.3823 18.8911 21.1866 18.8627 21.9938 18.765C22.122 18.7492 22.2677 18.6861 22.361 18.5946C22.5795 18.3833 22.8214 18.2792 23.107 18.3139C23.3051 18.3391 23.4975 18.3991 23.7044 18.4495C23.8005 18.317 23.8996 18.1656 24.0104 18.0269C24.532 17.3897 24.9807 17.2951 25.683 17.6546C25.7471 17.6862 25.852 17.683 25.9132 17.6483C26.3241 17.4086 26.7292 17.1594 27.1313 16.9008C28.431 16.0617 29.4859 14.9609 30.1299 13.4626C30.94 11.5795 30.9604 9.69319 29.9405 7.88578C29.5908 7.26438 29.1274 6.71554 28.6991 6.15407C28.0288 5.27402 27.3674 4.39397 27.0789 3.26473C27.0759 3.25527 27.0555 3.24896 27.0322 3.23319C26.9914 3.25842 26.9448 3.28681 26.8982 3.31836C26.295 3.73788 25.8142 4.29934 25.3537 4.88289C24.9108 5.44435 24.4766 6.02474 23.987 6.5389C23.4596 7.09405 22.8331 7.50411 22.1133 7.72807C21.9414 7.78169 21.8219 7.70599 21.7578 7.53565C21.6878 7.35901 21.749 7.22022 21.8977 7.1319C21.9996 7.07197 22.1133 7.03412 22.2211 6.98681C23.2148 6.53574 23.9317 5.73139 24.5786 4.86712C24.1502 4.31511 23.7393 3.78519 23.3285 3.25527C23.3168 3.27104 23.2964 3.28681 23.2877 3.30889C22.8039 4.31511 22.1016 5.04691 21.073 5.37496C21.0147 5.39389 20.9506 5.50113 20.9448 5.57368C20.9156 5.8481 20.8894 6.12884 20.8981 6.40641C20.9098 6.89533 20.9418 7.38109 20.971 7.86685C20.9885 8.16336 20.8457 8.33369 20.6038 8.23906C20.5018 8.20121 20.3998 8.03403 20.3765 7.91102C20.2279 7.02466 20.2658 6.13515 20.3299 5.24248C20.3532 4.92074 20.4756 4.81665 20.7553 4.75672C21.5276 4.59585 22.0812 4.07854 22.5213 3.39406C22.4572 3.40037 22.4047 3.4256 22.3522 3.45084C21.5509 3.8609 20.7146 4.14478 19.8258 4.19841C19.6247 4.21102 19.5926 4.28357 19.5897 4.48545C19.5781 5.05638 19.5606 5.63046 19.4994 6.19823C19.4236 6.88587 19.2109 7.53565 18.867 8.14443C19.5751 8.53557 20.3066 8.73429 21.073 8.80684C21.7665 8.87308 22.4338 8.69328 23.107 8.57342C24.0424 8.40939 24.7855 8.80053 25.2284 9.70266C25.3596 9.97077 25.4703 10.2484 25.581 10.5259C26.0823 11.8034 26.4465 13.1125 26.2513 14.5224C26.1726 15.0839 26.0211 15.6359 25.8928 16.1879C25.852 16.3645 25.7297 16.456 25.5548 16.3992C25.3771 16.3393 25.2809 16.2131 25.3246 15.9986C25.3392 15.9324 25.3566 15.8693 25.377 15.8062C26.0735 13.655 25.5373 11.6993 24.5669 9.81306C24.395 9.4787 24.1065 9.26736 23.751 9.25475C23.413 9.24528 23.0662 9.27367 22.734 9.33991C21.3702 9.61118 20.0531 9.49132 18.7913 8.84469C18.2055 8.54503 17.646 8.1949 17.2177 7.65236C17.1536 7.57351 17.1011 7.43787 17.1157 7.34009C17.1565 7.06882 17.3779 6.98681 17.5878 7.16345C17.8296 7.36848 18.0598 7.59243 18.3221 7.83216C18.4474 7.55143 18.5552 7.3117 18.663 7.07513C17.6548 6.95526 16.6844 6.83855 15.647 6.71554C16.0171 8.59234 15.6295 10.3588 15.3906 12.163ZM26.9273 36.5489C26.9332 36.5741 26.9419 36.5962 26.9506 36.6214C27.4081 36.7192 27.8627 36.8139 28.3203 36.9116C28.769 37.0094 29.2178 37.1072 29.6666 37.2113C29.8181 37.246 29.9201 37.3501 29.8909 37.5362C29.8618 37.7318 29.7015 37.8611 29.5208 37.8422C29.4597 37.8358 29.3985 37.8201 29.3373 37.8075C28.3902 37.615 27.4431 37.4226 26.496 37.2239C26.2688 37.1766 26.0706 37.205 25.887 37.3659C25.4295 37.7665 24.9603 38.1576 24.5028 38.5613C24.1881 38.8389 23.99 38.7853 23.8734 38.3689C23.8559 38.3058 23.8384 38.2396 23.8239 38.1734C23.2964 36.0411 23.0691 33.8772 23.2294 31.6723C23.3285 30.3255 23.5179 28.9975 23.9725 27.7295C24.4591 26.3794 24.7768 24.9884 24.8875 23.5437C24.8933 23.4522 24.8875 23.3135 24.835 23.2693C24.6573 23.1274 24.4562 23.0201 24.2347 22.8813C24.226 23.0422 24.2143 23.1652 24.2085 23.2882C24.1794 24.3449 24.0191 25.3827 23.7277 26.3921C23.512 27.1459 23.2119 27.8777 23.0371 28.6411C22.3202 31.7291 22.3639 34.8235 23.0633 37.9116C23.5616 40.1133 24.3484 42.1951 25.2547 44.2296C25.4703 44.7154 25.7005 45.1917 25.9366 45.6648C26.024 45.8415 26.1726 45.9077 26.3503 45.7941C26.5223 45.6837 26.5514 45.5292 26.4669 45.3399C26.3911 45.1727 26.3183 45.0056 26.2425 44.8415C25.4994 43.236 24.8671 41.5832 24.3047 39.8956C24.2406 39.7064 24.261 39.5991 24.43 39.4855C24.634 39.3499 24.8059 39.1607 24.9953 38.9998C25.3129 38.7317 25.6364 38.4699 25.954 38.1954C26.2338 37.9557 26.5223 37.9463 26.8487 38.0787C27.5917 38.3784 28.3377 38.6654 29.0867 38.9493C29.5063 39.1102 29.9346 39.2237 30.3892 39.1449C31.8434 38.8894 33.1751 38.2838 34.3524 37.3438C36.9925 35.2399 38.2456 32.3537 38.3359 28.8429C38.3534 28.2089 38.4029 28.3509 37.8959 28.1711C36.2407 27.5812 34.5505 27.3573 32.8429 27.8462C29.3781 28.8398 27.2071 31.2465 26.3183 35.0033C26.2163 35.4386 26.1668 35.8865 26.0939 36.3312C26.3329 36.2145 26.5106 36.0537 26.7088 35.9338C26.9186 35.8076 27.0148 35.6373 27.0497 35.3818C27.1197 34.874 27.2217 34.3724 27.312 33.8677C27.3499 33.6596 27.4256 33.4924 27.6617 33.5239C27.854 33.5492 27.9502 33.7132 27.9327 33.975C27.9269 34.0412 27.9152 34.1075 27.9006 34.1737C27.8394 34.4891 27.7782 34.8046 27.7083 35.1736C27.819 35.1074 27.8861 35.0727 27.9502 35.0285C28.5213 34.6532 29.0896 34.2715 29.6666 33.9024C29.8006 33.8173 29.8618 33.71 29.8909 33.5492C30.0162 32.8552 30.1503 32.1644 30.2814 31.4736C30.2931 31.4074 30.3106 31.3411 30.328 31.2781C30.3863 31.092 30.5087 31.0036 30.6865 31.0383C30.8613 31.0699 30.9429 31.2087 30.9196 31.3885C30.8759 31.7197 30.8176 32.0509 30.7564 32.3821C30.7069 32.6533 30.6457 32.9246 30.5728 33.2621C31.1819 32.8584 31.7239 32.483 32.2834 32.1392C32.4815 32.0162 32.566 31.8648 32.601 31.6313C32.7321 30.7765 32.872 29.9249 33.0236 29.0764C33.0731 28.7956 33.2275 28.6789 33.4228 28.7294C33.618 28.7799 33.7113 28.9565 33.6617 29.2278C33.551 29.846 33.4344 30.4643 33.3208 31.0825C33.3033 31.1834 33.2887 31.2812 33.2625 31.4358C33.3762 31.3538 33.4403 31.3064 33.5044 31.2623C34.2679 30.7103 35.0284 30.1551 35.7977 29.6126C36.0833 29.4107 36.3835 29.2309 36.6807 29.048C36.8089 28.9691 36.9371 28.9754 37.0275 29.1268C37.1178 29.2782 37.1324 29.4296 37.0042 29.5621C36.9197 29.6473 36.8235 29.723 36.7273 29.7924C35.7074 30.5179 34.6846 31.2434 33.6646 31.9689C33.5772 32.0319 33.4898 32.0982 33.3732 32.1865C33.6326 32.2937 33.8482 32.3821 34.0668 32.4704C34.5593 32.6723 35.0576 32.871 35.5471 33.0823C35.8298 33.2053 35.8677 33.505 35.6142 33.6753C35.5267 33.7353 35.3694 33.7321 35.2674 33.6911C34.5126 33.382 33.7579 33.0634 33.0119 32.729C32.84 32.6533 32.7088 32.6565 32.5573 32.7606C32.0415 33.1076 31.5228 33.4451 31.0041 33.7857C30.9429 33.8267 30.8875 33.8772 30.806 33.9434C30.8992 33.9813 30.9546 34.0065 31.0128 34.0286C31.7093 34.322 32.4058 34.609 33.0993 34.9055C33.3383 35.0064 33.4024 35.2903 33.2071 35.4544C33.1197 35.5269 32.939 35.5395 32.8283 35.4922C31.992 35.1547 31.1615 34.7951 30.328 34.445C30.2698 34.4197 30.1823 34.3882 30.1386 34.4134C29.821 34.5995 29.5121 34.8014 29.1537 35.0285C29.3198 35.1011 29.4334 35.1515 29.5471 35.1989C30.0192 35.3944 30.4941 35.5805 30.9604 35.7919C31.0566 35.836 31.1819 35.9843 31.1731 36.0694C31.1586 36.1988 31.0624 36.3596 30.9575 36.4227C30.873 36.4732 30.7156 36.4259 30.6049 36.3817C29.9725 36.1199 29.3489 35.8392 28.7195 35.5742C28.6379 35.5395 28.5213 35.5048 28.4601 35.5427C27.9443 35.8707 27.4373 36.2114 26.9273 36.5489ZM17.544 27.4361C17.2963 27.2847 17.0924 27.1428 16.8738 27.0387C16.766 26.9882 16.6174 26.963 16.5066 27.0008C15.7461 27.2658 14.9884 27.5465 14.2308 27.8273C14.0413 27.8967 13.8898 27.8588 13.7936 27.6664C13.7121 27.5024 13.8111 27.2879 14.0005 27.1996C14.1346 27.1365 14.2774 27.086 14.4173 27.0355C14.9505 26.8368 15.4867 26.6381 16.0579 26.4268C15.5625 26.0924 15.105 25.7801 14.6387 25.4773C14.595 25.4489 14.5105 25.4678 14.4522 25.4931C13.6217 25.8274 12.797 26.1713 11.9665 26.5025C11.7363 26.5939 11.611 26.5245 11.5323 26.3132C11.4595 26.1113 11.5236 25.9631 11.748 25.8621C11.9694 25.7612 12.1967 25.676 12.424 25.5846C12.9311 25.3827 13.4381 25.1808 13.9772 24.9632C13.8782 24.8875 13.8111 24.8338 13.7412 24.7834C12.7796 24.0957 11.8179 23.4144 10.8592 22.7236C10.6348 22.5627 10.5998 22.4113 10.7193 22.2221C10.8388 22.0328 11.0195 22.0139 11.2234 22.1621C12.051 22.7615 12.8757 23.3639 13.7033 23.9601C13.8723 24.0831 14.0501 24.1967 14.257 24.3386C14.2424 24.2471 14.2395 24.2061 14.2308 24.1683C14.1025 23.528 13.9714 22.8876 13.8519 22.2442C13.7995 21.9697 13.9306 21.8025 14.1841 21.7899C14.4085 21.7773 14.461 21.853 14.528 22.2505C14.6679 23.0706 14.8077 23.8875 14.9651 24.7045C14.9884 24.8212 15.07 24.9568 15.1633 25.0231C15.682 25.3921 16.2123 25.7454 16.7427 26.0987C16.7718 26.1176 16.8068 26.1239 16.8563 26.1397C16.7602 25.5688 16.6698 25.0262 16.5795 24.4805C16.53 24.184 16.5911 24.061 16.798 24.0232C17.0108 23.9853 17.1302 24.0831 17.1798 24.3512C17.3109 25.0767 17.4304 25.8054 17.5732 26.5308C17.5994 26.6602 17.6868 26.8084 17.7888 26.8778C18.2201 27.1775 18.666 27.4519 19.1089 27.7358C19.243 27.821 19.3799 27.9061 19.5489 28.0102C19.4615 27.5875 19.3828 27.2216 19.3158 26.8526C19.2779 26.6507 19.3566 26.5025 19.546 26.452C19.7646 26.3952 19.852 26.4583 19.9044 26.7169C20.0064 27.2248 20.0997 27.7389 20.2017 28.2468C20.2221 28.3414 20.2425 28.4644 20.3066 28.5117C20.5426 28.6978 20.7961 28.8587 21.0963 29.0637C21.0526 28.7641 21.0293 28.5244 20.9856 28.2878C20.327 24.7581 18.4387 22.4082 15.2478 21.3357C13.409 20.7175 11.5877 21.0014 9.77807 21.5502C9.62945 21.5944 9.60613 21.6953 9.61196 21.8341C9.64693 22.4902 9.63528 23.1526 9.72853 23.7961C10.288 27.7106 12.3483 30.275 15.7898 31.562C16.3988 31.7891 17.0253 31.9342 17.6635 31.7039C18.5611 31.3758 19.4586 31.0478 20.3445 30.6819C20.6942 30.5368 20.9768 30.5431 21.2799 30.7797C21.5013 30.9532 21.749 31.0888 22.0055 31.2528C22.0259 31.1014 22.0317 30.991 22.055 30.8869C22.1104 30.6472 22.0317 30.499 21.8335 30.3759C21.5975 30.2308 21.376 30.0573 21.1575 29.8807C21.0176 29.7672 20.8807 29.7514 20.7204 29.7987C20.3911 29.8933 20.056 29.9753 19.7267 30.0668C19.1176 30.234 18.5086 30.4075 17.8996 30.5778C17.7014 30.6314 17.5615 30.5494 17.5033 30.3381C17.445 30.1267 17.5411 30.0006 17.7189 29.9312C17.8151 29.8965 17.9112 29.8649 18.0103 29.8397C18.7301 29.641 19.4498 29.4454 20.19 29.2435C20.1551 29.2088 20.1376 29.1868 20.1143 29.171C19.4906 28.7767 18.867 28.3793 18.2376 27.9944C18.1706 27.9534 18.0569 27.966 17.9782 27.9944C17.6635 28.1111 17.3517 28.2468 17.0399 28.373C16.5941 28.5527 16.154 28.7357 15.7053 28.9029C15.4488 28.9975 15.3119 28.9123 15.2653 28.6663C15.2215 28.4392 15.3556 28.3446 15.5188 28.2783C16.1686 27.9976 16.8301 27.7295 17.544 27.4361ZM26.3941 18.1341C26.0152 18.5473 25.6364 18.4148 25.2284 18.194C24.9603 18.0489 24.6952 18.1909 24.4999 18.4338C24.3892 18.5725 24.3018 18.7334 24.1969 18.8817C23.9958 19.1656 23.7131 19.2444 23.4071 19.1088C23.2935 19.0583 23.1798 18.9952 23.0604 18.9637C22.9322 18.929 22.8476 18.9921 22.8447 19.1466C22.8447 19.2318 22.8476 19.317 22.8651 19.3958C23.1769 20.8184 23.888 21.9224 25.0827 22.6384C25.2314 22.7268 25.3246 22.7015 25.4528 22.588C26.5806 21.6038 26.7612 19.5598 26.3941 18.1341Z" fill="#FFEB61"/>
<path d="M32.0649 19.2256C31.9484 19.1341 31.8697 19.0994 31.8318 19.0363C31.7852 18.9606 31.7706 18.8597 31.7444 18.7682C31.5316 17.9796 31.0858 17.4245 30.3514 17.1658C30.1999 17.1122 30.0513 17.0586 30.0484 16.8441C30.0455 16.6201 30.2087 16.6107 30.3456 16.557C31.0887 16.27 31.6016 15.7464 31.8027 14.8979C31.8376 14.7433 31.8988 14.5982 32.0737 14.6014C32.2456 14.6045 32.3009 14.7433 32.333 14.9042C32.5078 15.7558 33.0091 16.2795 33.7609 16.5413C33.9183 16.5949 34.029 16.6769 34.0348 16.863C34.0406 17.0586 33.892 17.0806 33.7667 17.1217C32.9654 17.3803 32.502 17.9828 32.2718 18.8281C32.2427 18.9606 32.1523 19.071 32.0649 19.2256ZM32.0212 17.8219C32.3301 17.4907 32.6623 17.1374 33.0003 16.7747C32.5982 16.5602 32.2806 16.2258 32.1028 15.8158C31.7793 16.1722 31.4588 16.5286 31.1703 16.8472C31.45 17.1658 31.7444 17.5033 32.0212 17.8219Z" fill="#FFEB61"/>
<path d="M14.9857 3.38786C14.9594 3.4131 14.907 3.50142 14.8371 3.5235C14.1727 3.7443 13.7414 4.19221 13.5928 4.94609C13.5753 5.0281 13.4558 5.12904 13.3713 5.14165C13.3101 5.15112 13.2023 5.04387 13.1644 4.96501C13.0682 4.75998 13.0245 4.52341 12.9196 4.32469C12.7244 3.94933 12.4271 3.69698 12.0337 3.59289C11.8909 3.55504 11.7569 3.50142 11.7598 3.3027C11.7627 3.11975 11.888 3.07559 12.0192 3.02196C12.5612 2.79485 12.9546 2.41318 13.0974 1.77602C13.1061 1.73501 13.1119 1.68139 13.1382 1.65615C13.2081 1.58676 13.2868 1.48267 13.3655 1.48267C13.4383 1.48267 13.5403 1.57729 13.5811 1.65931C13.6423 1.77602 13.6481 1.92427 13.7006 2.04729C13.925 2.55197 14.2834 2.88633 14.7846 3.04089C14.9682 3.10082 14.9857 3.12606 14.9857 3.38786ZM13.9395 3.32162C13.7501 3.11028 13.5228 2.85794 13.3655 2.68445C13.2023 2.8674 12.975 3.1229 12.7681 3.35317C12.9196 3.52034 13.1469 3.77269 13.3276 3.97141C13.5461 3.73484 13.7793 3.49195 13.9395 3.32162Z" fill="#FFEB61"/>
<path d="M12.0071 18.2855C11.9779 18.2003 11.9226 18.1152 11.9226 18.03C11.9284 17.5632 11.8614 17.1184 11.5904 16.7399C11.4884 16.598 11.3485 16.4907 11.2494 16.3488C11.1882 16.2605 11.1212 16.1217 11.1474 16.0365C11.1708 15.9545 11.3077 15.8599 11.3951 15.8567C12.0013 15.8409 12.4937 15.6044 12.8667 15.0744C12.9221 14.9956 13.0795 14.9199 13.1407 14.9514C13.2135 14.9893 13.2805 15.1501 13.2718 15.2511C13.231 15.8946 13.4845 16.3835 13.9187 16.7841C14.0178 16.8755 14.1023 16.9544 14.0499 17.109C14.0003 17.2541 13.8925 17.2919 13.7643 17.2951C13.1407 17.3014 12.6657 17.6073 12.3218 18.1625C12.2519 18.2761 12.1878 18.3297 12.0071 18.2855ZM13.094 16.7462C13.0154 16.5475 12.8959 16.2384 12.7822 15.9513C12.5258 16.0775 12.2577 16.2131 12.0625 16.3109C12.1819 16.5885 12.3102 16.8945 12.418 17.1405C12.622 17.0206 12.8901 16.8661 13.094 16.7462Z" fill="#FFEB61"/>
<path d="M19.1615 36.492C18.2115 36.4826 17.4742 35.6593 17.483 34.6184C17.4917 33.6153 18.2756 32.8047 19.2139 32.8173C20.1639 32.8331 20.9041 33.65 20.8954 34.6689C20.8837 35.7003 20.1231 36.4984 19.1615 36.492ZM19.1848 35.8517C19.7851 35.8486 20.298 35.2966 20.2921 34.6562C20.2863 34.0222 19.7793 33.4797 19.1935 33.4797C18.5903 33.4797 18.0716 34.0285 18.0775 34.6626C18.0833 35.3186 18.5816 35.8549 19.1848 35.8517Z" fill="#FFEB61"/>
<path d="M26.6391 1.14189C26.6391 1.74752 26.2369 2.20174 25.7007 2.20489C25.1383 2.20805 24.7041 1.74752 24.707 1.14505C24.707 0.539421 25.1296 0.0788931 25.6774 0.0820474C26.2428 0.088356 26.6391 0.523649 26.6391 1.14189ZM26.1262 1.1482C26.1291 0.870622 25.9251 0.646667 25.6687 0.643513C25.4326 0.643513 25.2345 0.867468 25.2257 1.14189C25.217 1.41316 25.4122 1.63712 25.657 1.64027C25.9164 1.64343 26.1233 1.42578 26.1262 1.1482Z" fill="#FFEB61"/>
<path d="M27.1925 42.2583C26.6767 42.2583 26.2687 41.7915 26.2775 41.2111C26.2833 40.6212 26.6738 40.2049 27.2246 40.2049C27.7433 40.2017 28.1541 40.6433 28.1571 41.2079C28.1571 41.8009 27.7374 42.2583 27.1925 42.2583ZM27.6442 41.2048C27.6442 40.9587 27.4489 40.76 27.2042 40.76C26.9739 40.76 26.7874 40.9682 26.7874 41.23C26.7874 41.4887 26.9535 41.6779 27.1896 41.6811C27.4548 41.6874 27.6442 41.4886 27.6442 41.2048Z" fill="#FFEB61"/>
</svg>
