<svg width="48" height="48" viewBox="0 0 48 48" fill="none" xmlns="http://www.w3.org/2000/svg">
<path d="M15.0575 17.8225C13.1981 17.4118 11.3344 17.096 9.4392 17.5845C6.45107 18.3573 4.3242 20.0694 3.53032 23.1544C3.01439 25.1591 3.36185 27.1112 4.04624 29.0232C4.19364 29.436 4.38106 29.8361 4.49477 30.2572C4.53057 30.3941 4.38527 30.5794 4.3221 30.7437C4.19154 30.6763 3.98727 30.6426 3.94095 30.5373C2.5469 27.4923 1.91938 24.3589 3.5261 21.2275C5.08019 18.1952 7.78825 16.8517 11.107 16.6727C13.057 16.5674 14.9248 17.018 16.7506 17.6645C17.5887 17.9614 18.4268 18.3026 19.2944 18.4647C20.0714 18.6121 20.899 18.6374 21.6845 18.5426C22.8342 18.4058 23.6281 17.7003 23.944 16.5758C24.163 15.7904 24.2746 14.9733 24.4388 14.171C25.496 9.04126 30.4235 5.57089 35.6207 6.28265C37.2253 6.50166 38.7141 7.05969 40.1524 7.76724C40.3966 7.88727 40.5904 7.89149 40.8241 7.76093C41.0578 7.63248 41.3063 7.51665 41.5632 7.44927C41.6896 7.41557 41.8981 7.45559 41.976 7.54403C42.0434 7.61984 42.0118 7.8241 41.9697 7.95256C41.6685 8.82015 41.3379 9.67511 41.0557 10.549C41.0052 10.707 41.0831 10.9618 41.1926 11.105C42.355 12.6548 43.5617 14.1689 44.703 15.7335C45.8317 17.2813 45.6401 18.4268 44.1049 19.5829C43.7048 19.884 43.231 20.0883 42.7825 20.3199C42.5066 20.461 42.2708 20.3663 42.0623 20.1452C41.5211 19.5682 40.9589 19.008 40.4261 18.4226C40.2134 18.1889 40.0429 18.1278 39.7438 18.2963C38.9542 18.7406 38.0929 18.8438 37.1158 18.669C37.9455 21.3707 37.7201 23.9588 36.6209 26.5047C37.2084 26.57 37.7517 26.61 38.2887 26.6921C39.011 26.8037 39.6722 27.0712 40.264 27.5176C41.041 28.103 41.3295 28.8611 41.2053 29.8192C41.0178 31.2764 40.424 32.5547 39.5627 33.7234C38.1961 35.5765 36.5114 37.0927 34.6078 38.373C34.2329 38.6257 33.8539 38.8742 33.4748 39.1206C33.2137 39.289 33.0242 39.2617 32.8684 38.95C32.4809 38.1645 32.0534 37.398 31.6702 36.6104C31.5817 36.4315 31.5333 36.1493 31.6154 35.9977C31.6765 35.8881 31.9924 35.8587 32.1798 35.8861C33.1695 36.0229 34.0561 35.7955 34.8647 35.2185C35.6986 34.6247 36.1197 33.7655 36.3303 32.8095C36.4883 32.0956 36.5472 31.3586 36.6188 30.6279C36.6293 30.5247 36.4693 30.3204 36.3661 30.3015C34.8626 30.0424 33.3548 29.8066 31.845 29.5771C31.7481 29.5623 31.5838 29.636 31.5312 29.7181C30.0171 32.0851 28.6673 34.5215 28.0229 37.2969C27.7176 38.611 27.9092 39.746 28.8063 40.7757C29.0063 41.0053 29.0569 41.3675 29.1769 41.6665C28.8947 41.7107 28.6147 41.7886 28.3325 41.7928C27.4143 41.8097 26.4941 41.797 25.5739 41.8034C24.9969 41.8076 24.9421 41.757 25.0495 41.1695C25.2601 40.0155 25.5128 38.8679 25.6834 37.7097C26.035 35.3322 26.035 32.9484 25.7487 30.5626C25.7255 30.3646 25.7023 30.2109 25.437 30.213C23.4449 30.2235 21.5055 29.8129 19.5597 29.4507C19.4186 29.4254 19.1785 29.497 19.1091 29.6044C18.4457 30.6047 17.7761 31.6049 17.1759 32.6431C16.2599 34.2309 16.5547 35.7976 17.3697 37.3306C18.1109 38.7268 19.168 39.8576 20.3536 40.8831C20.4399 40.9568 20.5515 41.0179 20.6 41.1127C20.6842 41.279 20.7284 41.4664 20.7895 41.6454C20.6379 41.6939 20.4863 41.7844 20.3325 41.7865C19.2586 41.8012 18.1825 41.7844 17.1085 41.8097C16.7737 41.8181 16.7127 41.6117 16.6242 41.3864C15.6597 38.9163 14.4721 36.5578 13.0149 34.3404C12.5095 33.5718 11.9641 32.8326 11.4481 32.0724C11.267 31.805 11.1133 31.8134 10.8733 32.0156C9.52975 33.1506 9.12122 34.5804 9.55502 36.2504C10.0267 38.0571 11.1091 39.4975 12.4126 40.7884C12.5726 40.9463 12.7537 41.0937 12.8822 41.2769C13.0549 41.5212 12.9327 41.7802 12.6379 41.7844C11.5071 41.7991 10.3742 41.8034 9.24547 41.7739C9.12965 41.7718 8.9654 41.5338 8.91696 41.378C8.20941 39.049 7.23021 36.8484 5.87408 34.8226C5.36447 34.0603 4.80643 33.3275 4.24418 32.601C3.8167 32.0472 3.82092 31.9398 4.45055 31.586C5.36236 31.0743 6.16678 30.4404 6.74377 29.5518C7.62821 28.1957 7.77983 26.7047 7.53134 25.1486C7.38394 24.2262 7.17967 23.3102 7.34814 22.371C7.6956 20.4273 8.84326 19.1554 10.6585 18.4542C11.6608 18.0667 12.7095 17.9278 13.7772 17.932C14.2067 17.932 14.6363 17.932 15.068 17.932C15.0596 17.9025 15.0575 17.8625 15.0575 17.8225ZM4.85487 32.2304C4.8675 32.2577 4.88014 32.3146 4.91383 32.3546C6.96699 34.9216 8.51897 37.7539 9.47079 40.9084C9.49816 40.9968 9.64136 41.1084 9.73191 41.1105C10.3889 41.1274 11.0459 41.1211 11.7703 41.1211C11.6377 40.9821 11.5534 40.8958 11.4734 40.8052C10.2205 39.4449 9.2223 37.9392 8.81588 36.1008C8.45579 34.4646 8.82641 32.999 10.0583 31.8808C10.8101 31.1964 11.7261 30.6826 12.6042 30.154C13.535 29.5939 14.5437 29.1622 15.4534 28.5726C17.3065 27.3723 18.6037 25.7529 18.9364 23.4913C18.9448 23.4365 18.9469 23.3586 18.9827 23.3333C19.0964 23.2491 19.2249 23.1312 19.3491 23.1312C19.4312 23.1312 19.5618 23.2997 19.5871 23.4113C19.6229 23.5692 19.6018 23.7503 19.5702 23.9145C19.3596 25.0454 18.9111 26.0772 18.2015 26.9827C17.8919 27.3786 17.5276 27.7303 17.1296 28.1662C21.3559 29.2359 25.5381 30.0846 29.9582 29.038C29.7539 28.92 29.6191 28.8527 29.497 28.7705C28.9495 28.3978 28.3662 28.063 27.865 27.6355C25.5528 25.6539 24.3694 23.0322 23.7081 20.1325C23.645 19.8567 23.5691 19.7619 23.2828 19.7598C22.7605 19.7556 22.232 19.7451 21.7181 19.6629C19.9198 19.3702 18.132 19.0122 16.3294 18.7427C14.51 18.471 12.6885 18.4521 10.9301 19.1154C9.3297 19.7177 8.23679 20.8169 8.03042 22.5542C7.93355 23.3628 8.06622 24.2136 8.18625 25.0327C8.54002 27.4397 8.06411 29.5644 6.18573 31.2343C5.77721 31.5923 5.31183 31.8913 4.85487 32.2304ZM24.2641 19.7893C24.6073 20.819 24.8747 21.8467 25.2854 22.8132C26.751 26.2667 29.1222 28.6316 33.0368 29.0927C34.2561 29.2359 35.4669 29.4676 36.6799 29.6655C37.2421 29.756 37.3558 29.855 37.3095 30.4089C37.2316 31.308 37.1663 32.2177 36.9642 33.0916C36.6125 34.6247 35.7512 35.7997 34.2077 36.3283C33.6833 36.5073 33.1211 36.5725 32.523 36.701C32.801 37.238 33.0811 37.7792 33.3653 38.3288C33.4685 38.2846 33.5233 38.2698 33.5696 38.2403C35.3195 37.1243 36.9052 35.8081 38.2677 34.2414C39.2974 33.0559 40.1524 31.7692 40.4493 30.1835C40.6914 28.9032 40.4008 28.2946 39.23 27.7113C38.2719 27.2354 37.2421 27.208 36.204 27.2649C35.5512 27.3007 35.5006 27.2312 35.7849 26.6542C37.061 24.0725 37.2611 21.4065 36.3977 18.6627C36.3472 18.4984 36.244 18.3215 36.1113 18.2205C35.3722 17.6561 34.9552 16.9001 34.8099 16.0094C34.5657 14.5016 35.0858 13.1707 35.8649 11.9157C35.9744 11.7409 36.0924 11.5724 36.2629 11.3155C36.0334 11.3155 35.9007 11.3092 35.7681 11.3176C34.6436 11.3871 33.6075 11.7177 32.6704 12.3537C31.2343 13.3287 30.373 14.7438 29.657 16.2705C28.8168 18.0646 27.3975 19.1217 25.4981 19.5724C25.1211 19.6629 24.7294 19.7093 24.2641 19.7893ZM39.6427 8.3274C37.8655 7.2029 35.1553 6.66591 32.9589 6.98809C29.0948 7.55456 26.014 10.3742 25.1485 14.1499C24.9506 15.0175 24.8242 15.8999 24.6136 16.7632C24.382 17.7024 23.8345 18.4142 22.9311 18.8206C22.8405 18.8606 22.7647 18.9301 22.6826 18.9849C24.5841 19.1997 26.3425 18.9364 27.8208 17.6519C28.522 17.0433 28.9368 16.2347 29.3243 15.4176C29.9645 14.0699 30.7942 12.8759 32.0071 11.9767C33.3548 10.9786 34.831 10.4669 36.5325 10.7743C36.6441 10.7954 36.8104 10.6754 36.9136 10.5806C37.3285 10.1994 37.7096 9.77619 38.1434 9.4182C38.6088 9.03284 39.1184 8.70433 39.6427 8.3274ZM40.9694 8.4727C40.7251 8.5843 40.5967 8.63905 40.4724 8.70222C39.0658 9.42451 37.8823 10.4185 36.9178 11.663C36.1303 12.6801 35.5385 13.8004 35.4206 15.1144C35.2543 16.957 36.6588 18.3405 38.413 18.012C38.9268 17.9151 39.4153 17.6456 39.8954 17.4139C40.2176 17.2581 40.4219 17.2876 40.6577 17.5719C41.1631 18.1804 41.7001 18.7617 42.2392 19.3407C42.3466 19.4566 42.5403 19.6145 42.6498 19.585C43.2416 19.4292 43.7301 19.1007 44.0734 18.6711C43.8207 18.37 43.5848 18.1468 43.4269 17.8751C43.3637 17.7656 43.4753 17.555 43.509 17.3887C43.6585 17.4308 43.8459 17.4287 43.947 17.5213C44.1281 17.6877 44.2545 17.913 44.4229 18.1383C44.7746 17.8793 44.8188 17.5277 44.6756 17.2223C44.4019 16.639 44.1049 16.0536 43.7238 15.5377C42.7299 14.1984 41.7064 12.8822 40.6535 11.5914C40.2871 11.145 40.1776 10.7428 40.3924 10.2079C40.603 9.68143 40.7546 9.1255 40.9694 8.4727ZM11.8167 31.3565C11.8904 31.4891 11.9283 31.5797 11.9851 31.6555C14.0025 34.3341 15.6471 37.2317 16.9211 40.3293C17.1886 40.9779 17.5023 41.2264 18.1804 41.1358C18.6247 41.0769 19.0859 41.1253 19.6481 41.1253C18.0583 39.8176 16.9696 38.314 16.2683 36.5262C15.7671 35.248 15.7482 33.9634 16.382 32.7463C16.9274 31.6976 17.5971 30.7142 18.2141 29.7013C18.2983 29.5623 18.3952 29.4318 18.5152 29.2528C17.9066 29.0969 17.3654 28.9348 16.8158 28.8295C16.6242 28.7937 16.3757 28.8379 16.203 28.9348C15.5271 29.3138 14.8806 29.7497 14.2004 30.1246C13.4255 30.5499 12.6253 30.9395 11.8167 31.3565ZM28.2419 41.1232C28.1598 41.0032 28.1093 40.9105 28.0419 40.8326C27.0332 39.6912 27.0416 38.3877 27.3743 37.0021C27.9661 34.5362 29.1074 32.3209 30.3941 30.1667C30.4888 30.0066 30.5794 29.8424 30.6699 29.6802C29.219 29.8824 27.8292 30.0761 26.3993 30.2741C26.9216 33.9045 26.5657 37.5075 25.7529 41.1232C26.6162 41.1232 27.4017 41.1232 28.2419 41.1232Z" fill="#FFEB61"/>
<path d="M39.5839 13.9767C39.5944 14.3389 39.2301 14.6927 38.8406 14.699C38.4573 14.7032 38.1688 14.4063 38.1562 13.9894C38.1435 13.5766 38.4194 13.2565 38.7984 13.2397C39.188 13.225 39.5734 13.5872 39.5839 13.9767Z" fill="#FFEB61"/>
</svg>
