<svg width="48" height="48" viewBox="0 0 48 48" fill="none" xmlns="http://www.w3.org/2000/svg">
<path d="M23.6186 17.9987C23.9244 17.455 24.1901 16.9373 24.4971 16.4445C25.2077 15.3049 26.1025 14.3403 27.3019 13.6861C29.104 12.7029 30.9626 12.6868 32.8261 13.4639C35.9116 14.75 37.6285 17.1049 38.0534 20.3561C38.4607 23.4707 37.5734 26.3061 35.8928 28.9117C34.1094 31.6763 31.6355 33.7047 28.7544 35.2664C27.3532 36.0249 25.8945 36.6456 24.3229 36.9857C23.7113 37.1185 23.1348 37.018 22.5533 36.869C20.3088 36.293 18.2986 35.2329 16.3937 33.9542C14.579 32.7364 12.9849 31.2902 11.7467 29.4865C10.3969 27.5214 9.45825 25.3837 9.18129 23.0077C8.86422 20.2816 9.39183 17.7616 11.288 15.655C12.6603 14.1293 14.3647 13.1685 16.4388 12.9611C18.3287 12.7724 19.9479 13.4205 21.3314 14.678C22.2701 15.5321 22.9581 16.5636 23.487 17.7045C23.5271 17.7901 23.5647 17.8783 23.6198 17.9987H23.6186ZM24.269 24.6848C25.0962 24.9418 25.8869 25.1305 26.6326 25.4296C28.3897 26.1347 29.7143 27.3314 30.559 29.0284C30.7683 29.448 30.9087 29.8924 30.7971 30.3592C30.6091 31.1487 30.3886 31.9308 30.1818 32.7166C30.1668 32.7712 30.1555 32.8271 30.1367 32.9065C30.1981 32.8792 30.2257 32.8705 30.2495 32.8556C32.2145 31.5397 33.8275 29.8825 35.0506 27.8727C36.4492 25.5736 37.1711 23.0946 36.7813 20.3921C36.4392 18.0111 35.2674 16.1341 33.1094 14.9523C31.6243 14.1392 30.0552 13.8847 28.4298 14.5265C27.1966 15.0144 26.3093 15.9156 25.6325 17.0143C24.6575 18.5958 24.2577 20.3387 24.2703 22.1834C24.2765 23.0338 24.2703 23.8841 24.2703 24.686L24.269 24.6848ZM17.0792 32.9301C17.0942 32.9127 17.1105 32.8966 17.1256 32.8792C16.9489 32.2958 16.7609 31.716 16.5992 31.1288C16.4062 30.4299 16.2846 29.736 16.6631 29.0396C17.1306 28.1793 17.692 27.3985 18.4415 26.7616C19.6897 25.7027 21.1334 25.0597 22.7564 24.8127C22.913 24.7891 23.0308 24.7643 23.0208 24.5631C22.9531 23.1827 23.1298 21.7998 22.8854 20.4206C22.5934 18.777 22.0408 17.2625 20.8928 16.0075C19.7248 14.7301 18.3011 14.0014 16.5278 14.2112C14.1065 14.4967 12.3557 15.8151 11.2541 17.9192C10.1651 19.9973 10.1601 22.2095 10.7629 24.4303C11.5988 27.5114 13.3771 29.9818 15.846 31.9879C16.247 32.3131 16.6681 32.616 17.0792 32.9289V32.9301ZM28.0087 33.8698C28.0776 33.7829 28.1378 33.7109 28.1929 33.6352C28.9411 32.5912 29.3421 31.4119 29.5439 30.1606C29.569 30.0017 29.5376 29.8117 29.4687 29.6653C28.1277 26.815 24.7189 25.6717 22.6686 26.0963C20.5795 26.5295 18.9478 27.5698 17.8737 29.4257C17.6695 29.7795 17.5955 30.132 17.7259 30.5218C17.9264 31.1202 18.088 31.7346 18.3374 32.3119C18.5731 32.8581 18.9014 33.3646 19.2285 33.9617C20.216 32.1629 21.6635 31.186 23.6198 31.1897C25.5736 31.1934 27.0562 32.1244 28.0074 33.8698H28.0087ZM26.9635 34.6432C26.5461 33.3596 24.9245 32.3491 23.4394 32.4249C22.0696 32.4956 20.5807 33.5682 20.3526 34.6631C21.0269 35.0703 21.7638 35.3384 22.5182 35.5767C23.279 35.8176 24.0221 35.8337 24.7841 35.5767C25.5323 35.3247 26.2892 35.1025 26.9635 34.642V34.6432Z" fill="#FFEB61"/>
<path d="M36.2413 13.4044C36.5245 13.7259 36.7739 14.03 37.0508 14.3094C37.0985 14.3578 37.2777 14.3292 37.3629 14.2796C38.3229 13.7259 39.3205 13.562 40.392 13.9208C41.8971 14.4248 42.7957 15.912 42.4761 17.3917C42.1227 19.0279 40.7003 20.1153 39.1074 19.9664C39.0598 19.9614 39.0109 19.9589 38.9633 19.9502C38.3505 19.8459 38.3404 19.8348 38.2088 19.2364C37.5935 16.457 35.9041 14.5154 33.4052 13.2132C31.7973 12.3753 30.054 11.9532 28.2794 11.6553C25.6075 11.2071 22.9193 11.1401 20.2299 11.4753C18.0292 11.7509 15.8649 12.1916 13.876 13.2207C11.7066 14.3429 10.0925 15.9741 9.29163 18.3103C9.15503 18.7064 9.0648 19.121 8.9896 19.5344C8.95577 19.7181 8.87431 19.7901 8.71514 19.8472C7.69501 20.2122 6.36908 19.8472 5.5645 18.9323C4.69225 17.9404 4.48045 16.7934 5.01559 15.5917C5.562 14.3652 6.58589 13.7656 7.93312 13.7309C8.63494 13.7122 9.29038 13.9084 9.88316 14.2796C10.0674 14.395 10.1777 14.3689 10.3256 14.2187C10.5674 13.9742 10.8394 13.7607 11.1176 13.5161C10.7893 13.1611 10.3769 12.9413 9.94457 12.7589C8.11484 11.988 6.36908 12.1195 4.85266 13.4317C3.44277 14.652 2.90263 16.2372 3.44904 18.0447C4.00422 19.8807 5.31636 20.9694 7.21251 21.3344C7.61229 21.4113 8.03714 21.384 8.44946 21.3679C8.71013 21.358 8.8342 21.4461 8.84799 21.6956C8.85425 21.8198 8.85425 21.9439 8.85551 22.068C8.86177 22.5882 8.86303 22.6056 8.32539 22.6651C7.29523 22.7793 6.32647 22.5298 5.41537 22.0804C3.58689 21.1792 2.4289 19.7417 2.0805 17.7356C1.66318 15.3323 2.89761 12.8693 5.10582 11.7571C7.50953 10.5455 9.77538 10.9042 11.8746 12.5118C12.0538 12.6496 12.1653 12.6794 12.3721 12.5578C14.2833 11.4355 16.3774 10.8149 18.548 10.44C22.0534 9.83416 25.5624 9.85278 29.0602 10.5033C31.1381 10.8893 33.152 11.4778 34.9592 12.6149C35.1296 12.7216 35.2161 12.6471 35.3327 12.5516C36.616 11.51 38.0735 10.9812 39.7466 11.0681C42.629 11.2171 45.0515 13.5844 45.2583 16.4321C45.4914 19.6498 42.9962 22.3473 39.8518 22.6614C39.4721 22.6999 39.0836 22.6751 38.7001 22.6564C38.4908 22.6465 38.373 22.5236 38.3943 22.2915C38.4119 22.1015 38.4031 21.9091 38.4068 21.718C38.4131 21.4213 38.4958 21.3406 38.7941 21.3815C40.0097 21.5466 41.1076 21.2077 42.0663 20.5088C43.5752 19.409 44.2808 17.9057 43.9374 16.0535C43.5815 14.1368 42.3545 12.9476 40.4697 12.4522C38.9232 12.0463 37.5308 12.446 36.2688 13.3721C36.24 13.3932 36.2187 13.4267 36.24 13.4031L36.2413 13.4044ZM9.3192 15.3683C8.95577 15.2404 8.61614 15.0753 8.25646 15.0045C7.20249 14.7985 6.1648 15.5358 6.00564 16.5712C5.85024 17.5829 6.59467 18.5288 7.64237 18.6679C7.84038 18.6939 7.89553 18.6418 7.94942 18.4506C8.09354 17.9367 8.24393 17.419 8.46074 16.9337C8.68883 16.4222 8.99838 15.9455 9.31795 15.3695L9.3192 15.3683ZM37.9406 15.4614C38.6011 16.4148 39.0986 17.4203 39.3405 18.5425C39.3543 18.6095 39.5022 18.7039 39.5749 18.6939C40.7141 18.5326 41.6189 17.3557 41.1402 16.1615C40.6627 14.971 39.0447 14.6123 37.9406 15.4614Z" fill="#FFEB61"/>
<path d="M30.1367 25.0732C27.9248 25.0732 26.0449 23.2521 26.0449 21.1107C26.0449 18.9295 27.8533 17.1556 30.0829 17.1506C32.3675 17.1469 34.1759 18.8811 34.1709 21.0747C34.1672 23.2831 32.36 25.0744 30.1367 25.0732ZM30.1405 23.8144C31.7008 23.8082 32.9402 22.5904 32.9265 21.0771C32.9127 19.5664 31.6406 18.3585 30.0703 18.3635C28.5176 18.3684 27.2844 19.5676 27.2856 21.0709C27.2856 22.6016 28.5539 23.8194 30.1405 23.8132V23.8144Z" fill="#FFEB61"/>
<path d="M21.2853 21.0848C21.2765 23.2907 19.438 25.0945 17.2135 25.0821C15.0154 25.0697 13.133 23.2014 13.148 21.0476C13.1631 18.9 15.0041 17.131 17.216 17.1409C19.5007 17.1508 21.2941 18.8888 21.2853 21.0848ZM17.2073 23.8233C18.7976 23.8283 20.0484 22.6204 20.0521 21.0761C20.0559 19.6038 18.7989 18.3649 17.2963 18.3575C15.6796 18.35 14.4013 19.5405 14.4 21.0538C14.3975 22.5707 15.6633 23.8183 17.2073 23.8233Z" fill="#FFEB61"/>
<path d="M21.9742 27.1104C22.2261 27.2494 22.5018 27.3586 22.7211 27.5349C22.9517 27.7211 22.9267 27.9669 22.7211 28.1854C22.4279 28.4982 22.0419 28.5851 21.6446 28.415C21.523 28.3629 21.4027 28.2934 21.3012 28.209C20.8338 27.8217 20.8852 27.5126 21.4554 27.2804C21.6033 27.2196 21.7674 27.1985 21.9241 27.1588C21.9404 27.1426 21.9567 27.1265 21.973 27.1104H21.9742Z" fill="#FFEB61"/>
<path d="M25.3169 27.165C25.6715 27.1998 25.966 27.3351 26.1866 27.5933C26.248 27.6653 26.2706 27.8292 26.2317 27.9161C26.0525 28.317 25.3983 28.5902 24.9735 28.4648C24.6689 28.3754 24.4409 28.1433 24.4321 27.8962C24.4208 27.5821 24.6251 27.4059 24.8782 27.2855C25.0136 27.2209 25.1702 27.2035 25.3181 27.165H25.3169Z" fill="#FFEB61"/>
<path d="M31.7146 21.1009C31.7209 21.9363 31.0065 22.6303 30.1318 22.6377C29.2445 22.6452 28.5114 21.9475 28.5176 21.1009C28.5239 20.2629 29.2608 19.574 30.1518 19.574C31.004 19.574 31.7071 20.2617 31.7146 21.1009Z" fill="#FFEB61"/>
<path d="M18.8316 21.1243C18.8278 21.9524 18.0884 22.6575 17.2312 22.6488C16.3489 22.6401 15.617 21.9139 15.6271 21.0573C15.6371 20.2368 16.3777 19.5627 17.26 19.5714C18.1185 19.5801 18.8353 20.2877 18.8316 21.1243Z" fill="#FFEB61"/>
</svg>
