<svg width="48" height="49" viewBox="0 0 48 49" fill="none" xmlns="http://www.w3.org/2000/svg">
<path d="M39.4522 16.5048C38.5472 16.6745 37.6421 16.9573 36.9633 17.6927C35.6057 19.1068 35.4926 20.8038 36.1148 22.6139C36.228 22.8967 36.1714 23.0664 35.9451 23.2927C35.3795 23.7452 34.8138 24.2543 34.2481 24.7634C30.9673 27.5917 27.7431 30.42 24.5188 33.2483C24.4057 33.3614 24.236 33.4746 24.0663 33.6443C24.0663 33.5311 24.0097 33.4746 24.0663 33.418C24.1794 31.0422 24.236 28.6665 24.3491 26.2907C24.3491 26.121 24.4622 25.8947 24.5754 25.7816C25.3673 24.82 26.2158 23.8584 27.0077 22.9533C28.2522 21.4826 29.44 20.0684 30.6845 18.5977C30.7976 18.428 31.0805 18.2583 31.1936 18.3149C31.9855 18.4846 32.7774 18.4846 33.5694 18.3149C35.6057 17.9755 36.9633 16.8442 37.529 14.7513C37.8684 13.4502 37.8684 12.2058 37.6987 10.9048C37.6421 10.6219 37.5856 10.3957 37.529 10.1128C35.9451 10.7351 34.7007 11.6967 33.5694 12.9977C33.5694 12.828 33.5694 12.7149 33.5128 12.6018C33.4562 11.1876 32.8906 9.99972 31.7027 9.20779C31.5895 9.15123 31.4199 9.09466 31.3633 9.15123C29.7229 10.3391 28.7613 11.8664 28.7613 13.9593C28.7613 15.2038 29.1572 16.3351 29.8926 17.3533C28.0825 19.5594 26.2158 21.7089 24.4057 23.8584C24.3491 23.8584 24.3491 23.8018 24.2925 23.8018V23.3493C24.2925 20.5775 24.2925 17.7492 24.2925 14.9775C24.2925 14.8078 24.4057 14.6947 24.4622 14.525C25.0279 13.9028 25.5936 13.2805 26.1027 12.6583C27.2905 11.131 27.7996 9.43406 27.234 7.51082C26.5552 5.19161 25.0845 3.43807 23.1612 2.02392C23.1047 1.96735 22.8784 2.02392 22.8218 2.08048C21.1814 3.26837 20.0501 4.85222 19.3713 6.71889C18.7491 8.41587 18.9188 10.1128 19.8804 11.6401C20.6158 12.828 21.5774 13.7896 22.7087 14.6381C22.8784 14.8078 22.9915 14.921 22.9915 15.2038C22.935 17.9189 22.9349 20.6907 22.9349 23.4058C22.9349 23.519 22.9349 23.6321 22.9349 23.8584C22.7653 23.6321 22.6521 23.519 22.4824 23.4058C21.0117 21.7654 19.5976 20.1816 18.1269 18.5412C17.9006 18.3149 17.5612 18.0886 17.5612 17.8624C17.5046 17.6361 17.7875 17.3533 17.9006 17.0705C19.3148 14.129 18.0137 11.527 16.2036 10.1128C15.9208 9.94315 15.7511 9.94315 15.5248 10.1128C14.846 10.6785 14.3935 11.3573 14.1672 12.1492C14.0541 12.6017 13.9976 12.9977 13.8844 13.5068C12.8662 12.3755 11.6783 11.4139 10.2076 10.7916C9.9248 12.2624 9.81167 13.6199 10.1511 15.0341C10.3773 15.8826 10.7733 16.6179 11.3955 17.2402C12.7531 18.5412 14.3369 18.9371 16.1471 18.7674C16.4865 18.7674 16.6561 18.824 16.8824 19.0503C18.8622 21.2563 20.842 23.4058 22.8218 25.6119C22.9915 25.7816 23.0481 25.9513 22.9349 26.1776C22.4259 27.422 21.9733 28.6665 21.5208 29.9109C21.4077 30.2503 21.238 30.6463 21.0683 31.0422C20.4461 30.5331 19.8804 30.0241 19.3148 29.515C16.9955 27.4786 14.6763 25.4422 12.3571 23.4058C12.1309 23.1796 12.1309 23.0099 12.244 22.727C12.9794 20.8038 12.9228 18.0886 10.2076 16.7311C9.18945 16.222 8.05812 15.9957 6.9268 15.8826C6.36114 15.826 5.73892 15.8826 5.1167 15.8826C5.17327 16.5048 5.22983 17.0705 5.34296 17.6927C5.62579 19.7856 6.53085 21.426 8.51065 22.3311C9.47228 22.7836 10.3773 23.4058 11.1692 24.1412C14.2238 26.7998 17.2784 29.515 20.3329 32.1736C20.4461 32.2301 20.4461 32.4564 20.4461 32.5695C18.8057 37.2079 17.1652 41.9029 15.5248 46.5413C15.4683 46.7676 15.3551 46.8807 15.1854 46.8807C15.1854 46.8807 15.1854 46.8807 15.1854 46.9373H16.8824H16.8258C16.9955 46.315 17.1652 45.7494 17.9006 45.4665C19.0319 45.0706 20.1632 44.5615 21.2946 44.109C21.4077 44.0524 21.5208 44.0524 21.7471 43.9958C21.6905 44.9575 21.5774 45.9191 21.5208 46.8807C21.5208 46.9373 21.5774 46.9373 21.5774 46.9938H22.8218C22.8218 46.9373 22.8784 46.8807 22.9349 46.8241C23.2743 42.8645 23.5572 38.9615 23.8966 35.0019C23.9531 35.0019 24.0097 35.0019 24.0663 35.0019C24.6885 38.9049 25.3107 42.808 25.9895 46.7676C26.0461 46.8241 26.1027 46.8807 26.1027 46.9373H27.5734C27.5734 46.9373 27.5734 46.9373 27.5734 46.8807C27.4602 46.8241 27.3471 46.711 27.3471 46.5413C27.2906 46.0888 27.234 45.6928 27.1774 45.2969C26.6117 41.7898 26.0461 38.2827 25.4804 34.7756C25.4239 34.4362 25.537 34.2665 25.7632 34.0402C29.1006 31.1554 32.3815 28.2705 35.7189 25.3291C37.0765 24.0846 38.4906 22.8967 40.131 22.0483C41.0361 21.5392 41.7149 20.7472 42.0543 19.7856C42.2805 19.1634 42.4502 18.4846 42.5633 17.8058C42.6765 17.2967 42.6765 16.7876 42.733 16.1654C41.4886 16.2785 40.4704 16.3351 39.4522 16.5048ZM36.3977 12.2058C36.7371 15.0906 34.5875 17.4099 32.0986 16.9008C32.3249 16.222 35.6623 12.4886 36.3977 12.2058ZM31.533 10.7351C32.7209 11.8098 32.3249 14.8078 30.7976 16.0523C29.7229 14.4684 30.1188 11.6967 31.533 10.7351ZM11.339 12.8846C12.9228 14.2422 14.1107 15.826 15.3551 17.4664C12.7531 17.2402 11.1127 15.5432 11.339 12.8846ZM16.4865 16.6179C15.0157 15.3169 14.7329 12.9977 15.9208 11.7533C16.9955 12.6018 17.7309 14.6947 16.4865 16.6179ZM11.1692 21.822C10.4339 20.9735 9.69853 20.125 8.96318 19.22C8.68035 19.8422 8.68036 20.3513 8.85005 20.9169C7.7753 20.5775 6.70054 18.7109 6.70054 17.1836C6.87024 17.1836 7.0965 17.1836 7.32277 17.2402C8.11469 17.3533 8.90662 17.5796 9.64197 17.9755C10.9996 18.7674 11.5652 20.1816 11.1692 21.822ZM22.4259 34.9453C22.2562 37.3211 22.0299 39.6968 21.8602 42.0726C21.8602 42.3554 21.7471 42.5251 21.4642 42.6383C20.3895 42.9776 19.3713 43.4302 18.3531 43.8261C18.24 43.8827 18.0703 43.9393 17.9006 43.9958C19.541 39.4706 21.1249 35.0019 22.7087 30.5897C22.7653 30.5897 22.7653 30.6463 22.8218 30.6463C22.6521 32.0604 22.539 33.5311 22.4259 34.9453ZM21.4642 11.5836C20.7855 10.6219 20.2764 9.60375 20.3895 8.41587C20.6157 6.43606 21.6339 4.90878 23.0481 3.5512C23.2744 3.83403 23.1612 3.94716 22.9915 4.17343C22.0865 5.30474 21.4643 6.60576 21.1249 8.01991C20.8986 9.09466 21.0117 10.1694 21.4077 11.1876C21.4643 11.3007 21.4642 11.4139 21.5208 11.527C21.5208 11.527 21.5208 11.527 21.4642 11.5836ZM23.84 13.1674C23.1612 12.0927 22.539 10.9048 22.4259 9.60375C22.2562 7.68051 23.3309 6.2098 24.2925 4.68252C27.1774 8.18961 26.4986 10.5654 23.84 13.1674ZM39.9613 20.2947C39.9047 19.8987 39.8482 19.5594 39.8482 19.0503C38.9997 20.0119 38.2077 20.9169 37.3593 21.8786C37.133 20.8604 37.133 20.0119 37.5855 19.1634C38.0946 18.2583 39.4522 17.6361 40.9795 17.6361C40.9795 18.5412 40.527 19.7856 39.9613 20.2947Z" fill="#FFEB61"/>
<path d="M41.2619 29.4018C40.47 29.3452 39.7347 29.0058 39.1124 28.5533C38.0943 27.8745 37.3589 26.9694 36.6801 25.9512C36.6236 25.8947 36.6236 25.6684 36.6801 25.6118C37.472 24.8199 38.2074 23.9149 39.1124 23.2361C40.6397 22.1048 41.9973 22.1048 43.5246 23.2926C44.3165 23.9149 44.9953 24.7068 45.6741 25.4421C45.7306 25.4987 45.7872 25.7815 45.7307 25.8381C44.8256 27.1957 43.8074 28.4401 42.2801 29.1189C41.8842 29.2321 41.5448 29.2886 41.2619 29.4018ZM38.8862 26.5169C39.5084 27.3088 40.2437 27.9876 41.3185 27.931C42.2801 27.8745 42.9589 27.2523 43.6377 26.5169C41.9407 26.5169 40.4135 26.5169 38.8862 26.5169ZM38.9428 25.1028C40.47 25.1028 41.9973 25.1028 43.5811 25.1028C41.8842 23.4058 40.2438 23.5189 38.9428 25.1028Z" fill="#FFEB61"/>
<path d="M6.6436 29.4018C6.19107 29.2321 5.73854 29.1189 5.28602 28.8927C3.985 28.2139 3.07995 27.0826 2.28803 25.8947C2.23146 25.8381 2.23146 25.6118 2.28803 25.5553C3.19308 24.424 4.1547 23.2926 5.56885 22.727C6.36077 22.3876 7.1527 22.4441 7.94462 22.727C9.41534 23.2926 10.377 24.3674 11.282 25.5553C11.3386 25.6118 11.3386 25.7815 11.282 25.8381C10.377 27.1957 9.30221 28.4401 7.71836 29.0624C7.43553 29.2321 7.03956 29.2886 6.6436 29.4018ZM4.4941 26.5169C4.4941 26.5735 4.49409 26.5735 4.43753 26.63C5.11632 27.3088 5.85167 28.0442 6.92643 27.931C7.83148 27.8179 8.51029 27.2523 9.13251 26.5169C7.54867 26.5169 6.02138 26.5169 4.4941 26.5169ZM9.13251 25.1027C7.94463 23.5755 5.17289 23.5755 4.4941 25.1027C6.02138 25.1027 7.54867 25.1027 9.13251 25.1027Z" fill="#FFEB61"/>
</svg>
