<svg width="48" height="48" viewBox="0 0 48 48" fill="none" xmlns="http://www.w3.org/2000/svg">
<path d="M12.7118 32.5472C10.3712 32.5544 8.5326 31.7453 7.68375 29.4841C6.90354 27.4035 7.4598 25.5866 9.02384 24.1671C8.71681 22.8848 8.33754 21.7 8.15694 20.4863C7.53204 16.2674 8.12082 12.2074 10.2845 8.50862C12.6359 4.48835 16.0385 1.72148 20.6765 0.702866C26.9471 -0.673345 33.0768 2.00684 36.5589 6.79287C38.2313 9.09017 39.3222 11.5536 39.7484 14.3097C40.236 17.4775 40.171 20.6308 38.9826 23.6758C38.9429 23.777 38.9248 23.8853 38.8743 24.0659C40.5539 25.583 41.1535 27.4758 40.2396 29.625C39.3402 31.738 37.5992 32.6375 35.2513 32.5147C35.2296 32.8325 35.2007 33.0962 35.1899 33.3635C35.1249 35.2382 35.1285 37.1165 34.9912 38.9839C34.5939 44.3876 30.5484 47.3459 26.6003 47.5699C24.8196 47.671 23.0171 47.7072 21.2436 47.5554C17.4762 47.234 14.135 44.7272 13.2175 40.4757C12.9646 39.3018 12.9646 38.0701 12.8924 36.8636C12.8274 35.7619 12.8202 34.6602 12.784 33.5549C12.7732 33.2335 12.7407 32.912 12.7118 32.5472ZM17.4039 13.3561C17.7796 13.4572 18.1805 13.5547 18.5706 13.6739C22.0924 14.7612 24.2669 18.4816 23.4181 21.9854C23.1435 23.116 22.5656 24.0696 21.6734 24.7522C21.7673 26.3199 20.5645 27.6564 19.0366 27.7142C18.6356 27.7286 18.3069 27.8225 17.9602 28.0248C17.0283 28.5594 16.0566 28.5088 15.1138 28.0429C14.4348 27.7069 14.2072 27.2518 14.2903 26.4933C14.3336 26.1104 14.4095 25.7311 14.4601 25.3482C14.5215 24.8967 14.5684 24.4452 14.6407 23.842C13.958 24.1346 13.427 24.3441 12.9105 24.5825C12.1772 24.9184 12.105 25.3374 12.6793 25.8901C12.8743 26.0779 13.12 26.2188 13.3403 26.3813C13.8424 26.7497 13.976 27.2193 13.6835 27.5588C13.427 27.855 12.9863 27.8045 12.5131 27.4144C12.3 27.241 12.0941 27.0532 11.8919 26.8653C11.3464 26.356 10.9997 25.7745 11.0213 24.9834C11.0286 24.7017 10.8227 24.4163 10.736 24.1924C10.4217 24.5391 10.1869 24.8606 9.89075 25.1171C8.96966 25.9081 8.48203 26.8942 8.61929 28.1079C8.91909 30.7158 11.4223 31.9801 13.7521 30.723C14.7924 30.1632 16.0711 30.5713 16.5081 31.673C16.6851 32.1209 16.6996 32.6339 16.7537 33.1215C16.7971 33.5188 16.7862 33.9234 16.8007 34.4363C17.6315 33.8836 18.3792 33.8403 19.1124 34.3568C19.8999 33.7319 20.6584 33.815 21.3989 34.4182C22.2839 33.6597 23.1688 33.7392 24.0321 34.411C24.9135 33.6416 25.7732 33.7608 26.6401 34.3929C27.3878 33.7897 28.1571 33.7933 28.9265 34.3532C29.6778 33.7608 30.4219 33.8764 31.2419 34.4435C31.2419 33.703 31.231 33.1251 31.2419 32.5508C31.2744 30.8531 33.1346 29.9103 34.453 30.8278C34.7384 31.0265 35.0924 31.1746 35.4319 31.2287C37.0501 31.4852 38.5311 30.6291 39.1524 29.1157C39.752 27.66 39.3041 25.984 38.0182 25.052C37.6931 24.8173 37.4655 24.5752 37.4655 24.1273C36.9382 24.6078 36.949 24.6114 36.9201 25.1279C36.9057 25.3988 36.884 25.6878 36.7828 25.937C36.4614 26.7461 35.7787 27.2374 35.0888 27.6925C34.7781 27.8984 34.3591 27.772 34.2146 27.4938C34.0413 27.1651 34.0918 26.8436 34.3664 26.5908C34.5253 26.4427 34.7528 26.3669 34.9082 26.2151C35.161 25.9695 35.4247 25.7131 35.5981 25.4133C35.6739 25.2796 35.6089 24.9076 35.4969 24.8498C34.8359 24.503 34.1713 24.1382 33.3586 23.9865C33.3839 24.2574 33.3911 24.4452 33.4164 24.6294C33.5031 25.229 33.6259 25.825 33.6837 26.4246C33.7631 27.2482 33.4344 27.8225 32.6759 28.1332C31.7981 28.4944 30.8951 28.5305 30.0463 28.0573C29.6742 27.8514 29.3239 27.725 28.8904 27.7178C27.6334 27.6961 26.1488 26.3163 26.2608 25.1026C26.2789 24.8967 26.1488 24.6186 25.9935 24.4669C24.3933 22.9245 24.0899 21.0137 24.5378 18.9729C25.1699 16.0976 27.0266 14.3277 29.8368 13.5294C30.1113 13.4536 30.3858 13.385 30.6603 13.3091C30.44 12.8865 30.2233 12.5614 30.0896 12.2038C29.3419 10.2244 30.8518 8.28467 32.9323 8.53752C33.9112 8.65671 34.8757 9.53084 34.9985 10.4158C35.0743 10.9576 34.8757 11.3152 34.4675 11.3802C34.0846 11.438 33.8209 11.2358 33.7053 10.712C33.6078 10.2713 33.3983 9.96068 32.9649 9.80536C32.1702 9.52362 31.3286 10.0257 31.1696 10.889C30.9674 11.9907 31.7656 13.0671 32.8854 13.1971C34.3411 13.3669 35.7028 12.3591 36.0315 10.8601C36.2988 9.64282 36.064 8.50862 35.4283 7.44666C34.872 6.51113 34.0954 5.77065 33.308 5.03378C32.9071 4.66173 32.4881 4.54614 31.9571 4.5931C30.4183 4.72314 28.9807 5.1313 27.7092 6.03433C27.3805 6.26912 27.0482 6.35219 26.7268 6.09212C26.3764 5.80677 26.5136 5.47807 26.7015 5.13492C27.0699 4.45584 27.4058 3.76232 27.749 3.0724C27.8899 2.79066 28.0127 2.49808 28.1716 2.14048C27.7959 2.06463 27.5395 2.01406 27.2902 1.96349C27.1458 2.24162 27.0266 2.45835 26.9182 2.6823C26.6473 3.25662 26.3944 3.83456 26.1163 4.40527C25.8779 4.8929 25.5853 5.03378 25.2205 4.86401C24.8449 4.69063 24.7509 4.29691 24.9749 3.80927C25.0688 3.61061 25.1772 3.41917 25.2675 3.21689C25.4878 2.72564 25.7009 2.2344 25.9646 1.6384C25.4408 1.6384 25.0543 1.6384 24.6064 1.6384C24.6064 2.3536 24.6101 3.01461 24.6064 3.67201C24.6028 4.03322 24.4078 4.24273 24.0502 4.26079C23.7106 4.27885 23.4542 4.12353 23.3819 3.77315C23.335 3.53114 23.3205 3.28191 23.3169 3.03628C23.3061 2.57394 23.3133 2.1152 23.3133 1.56977C22.8329 1.60228 22.4717 1.62756 21.9877 1.66007C22.1502 2.04296 22.255 2.31748 22.3778 2.58116C22.6017 3.05434 22.8618 3.51308 23.0605 3.99349C23.2086 4.34748 23.0569 4.69063 22.7571 4.83872C22.4609 4.98321 22.1177 4.87484 21.9154 4.54976C21.7854 4.34025 21.6951 4.10547 21.5867 3.88513C21.2761 3.2494 20.9655 2.61367 20.6404 1.94543C20.3189 2.04296 20.0733 2.1152 19.7698 2.2055C20.2503 3.15187 20.6837 4.00794 21.1172 4.86762C21.2147 5.06267 21.3411 5.25412 21.3953 5.46362C21.5181 5.94041 21.1966 6.29079 20.7054 6.21132C20.5248 6.18243 20.3478 6.07767 20.1925 5.96931C18.8343 5.02655 17.2883 4.67257 15.6737 4.58588C15.4498 4.57504 15.1753 4.65451 14.9946 4.78815C14.0158 5.5178 13.1633 6.38109 12.5384 7.43944C11.9749 8.39303 11.7149 9.41887 11.8413 10.5278C12.0327 12.2038 13.5101 13.3958 15.1283 13.1863C16.3167 13.031 17.1547 11.6475 16.6996 10.5892C16.4575 10.0221 15.8832 9.65366 15.3306 9.70784C14.7779 9.76202 14.4348 10.0727 14.2614 10.6795C14.2397 10.759 14.2253 10.842 14.2036 10.9215C14.1025 11.2647 13.8532 11.4236 13.5209 11.3911C13.1778 11.3586 12.9321 11.1274 12.9755 10.7842C13.0261 10.3869 13.1055 9.95346 13.315 9.62837C13.9616 8.61698 15.2836 8.22688 16.3745 8.65672C17.5737 9.1299 18.2889 10.3291 18.0324 11.5645C17.9168 12.1605 17.6423 12.7059 17.4039 13.3561ZM19.0908 39.3162C17.7543 39.8292 16.4756 39.3162 15.9302 38.0412C15.7929 37.7197 15.7207 37.3549 15.6954 37.0045C15.6123 35.6861 15.5654 34.364 15.5003 33.042C15.4895 32.7928 15.5076 32.5363 15.4425 32.3015C15.2872 31.7381 14.5937 31.5502 14.2 31.9801C14.0555 32.1354 13.9977 32.4243 14.0013 32.6519C14.0591 34.7758 14.0591 36.9034 14.2289 39.0164C14.5467 42.9067 17.2125 45.7458 21.0594 46.3093C23.0532 46.6018 25.0724 46.5766 27.0735 46.2984C30.6387 45.8072 33.4344 42.8886 33.7017 39.2873C33.8679 37.0334 33.8751 34.7686 33.9401 32.511C33.9546 32.0306 33.7126 31.7669 33.2899 31.7272C32.9071 31.6911 32.5747 31.9475 32.4989 32.3955C32.4411 32.7458 32.423 33.107 32.4086 33.4646C32.3725 34.4832 32.3652 35.5055 32.3183 36.5241C32.3002 36.9359 32.2569 37.3585 32.1341 37.745C31.6862 39.1718 30.4472 39.7389 28.7315 39.3126C28.0524 39.9375 27.3047 39.8364 26.5534 39.356C25.6792 40.0965 24.816 39.9447 23.9635 39.3271C23.093 40.0387 22.2261 39.9881 21.37 39.3849C20.16 39.9086 20.1563 39.9086 19.0908 39.3162ZM14.5829 20.2768C14.4637 19.5039 14.3228 18.8609 14.2831 18.2107C14.2614 17.8495 14.3192 17.4233 14.4962 17.1163C14.9405 16.3505 16.1975 16.0471 17.1727 16.3974C18.1083 16.7334 18.4298 17.2824 18.3178 18.4022C18.2564 18.9982 18.1588 19.5942 18.0649 20.2949C18.4334 20.1324 18.7043 20.0168 18.9716 19.894C19.47 19.6628 19.9577 19.4027 20.4706 19.2041C21.0016 18.9982 21.435 19.186 21.5578 19.6158C21.6734 20.0096 21.4422 20.2913 20.9221 20.4972C20.2647 20.7573 19.6181 21.0535 19.0294 21.3099C19.0727 21.9023 19.1052 22.3827 19.1377 22.8559C19.7735 23.1087 20.3803 23.3544 20.9618 23.5891C21.6445 23.0473 21.919 22.6428 22.1358 21.8878C22.9629 18.9946 21.1713 15.7978 18.1769 14.8226C17.1366 14.483 16.0674 14.4252 14.991 14.4866C13.0405 14.6022 11.2814 13.2007 10.7179 11.355C10.6782 11.2249 10.6096 11.1021 10.5301 10.9179C8.6843 14.53 8.94077 20.9451 10.0388 22.3646C9.98105 21.3027 10.1255 20.3455 10.8805 19.5653C10.9708 19.4713 10.9599 19.2618 10.9599 19.1065C10.9455 17.7664 11.9785 16.2638 13.2139 15.8376C13.5932 15.7075 13.9833 15.8484 14.1241 16.1843C14.2722 16.5383 14.1747 16.8381 13.8496 17.044C13.6654 17.1632 13.4523 17.2391 13.2681 17.3583C12.8274 17.6509 12.4264 17.994 12.2567 18.5214C12.1591 18.8176 12.1086 19.1463 12.4626 19.316C13.1272 19.6375 13.8027 19.9265 14.5829 20.2768ZM33.3875 20.2371C33.5139 20.2299 33.5753 20.2443 33.6186 20.2227C34.1894 19.9518 34.7637 19.6772 35.3272 19.3955C35.757 19.1824 35.8943 18.9657 35.6956 18.5467C35.515 18.1638 35.2116 17.8206 34.9118 17.5172C34.7059 17.3077 34.3989 17.2029 34.1496 17.026C33.7595 16.7478 33.6764 16.448 33.8715 16.1121C34.0702 15.7689 34.4819 15.657 34.872 15.9134C35.3091 16.1988 35.7426 16.5022 36.1146 16.867C36.707 17.445 37.0393 18.1529 36.9851 19.0198C36.9707 19.2402 37.0357 19.5219 37.173 19.6809C37.6786 20.2805 37.8701 20.9812 37.9532 21.7325C37.9712 21.8987 38.0074 22.0648 38.0326 22.231C39.2138 18.3877 38.9357 14.642 37.48 10.7698C37.3572 11.1057 37.2922 11.2466 37.2488 11.3947C36.725 13.1502 34.9443 14.6564 32.8637 14.4866C32.5639 14.4614 32.2569 14.4722 31.9535 14.4758C30.8048 14.4903 29.7176 14.7756 28.7098 15.3174C26.4414 16.5347 25.1772 19.2004 25.7443 21.5917C25.9357 22.4116 26.2644 23.1557 27.0771 23.6036C27.6767 23.3327 28.2691 23.0654 28.7748 22.8378C28.8037 22.2816 28.829 21.8264 28.8615 21.2738C28.2294 21.0101 27.5575 20.7139 26.8712 20.4466C26.4992 20.3021 26.3439 20.0601 26.4125 19.6809C26.4847 19.298 26.7448 19.1065 27.1205 19.1354C27.3589 19.1571 27.6009 19.2402 27.8248 19.3377C28.5003 19.6303 29.1649 19.9445 29.9235 20.2913C29.8873 19.977 29.8693 19.7639 29.8332 19.5508C29.7573 19.0885 29.6598 18.6297 29.5984 18.1674C29.5045 17.4594 29.8007 16.914 30.4039 16.5744C31.2636 16.0904 32.1413 16.1229 32.9901 16.6358C33.8137 17.1307 33.7451 17.9001 33.6259 18.6875C33.5464 19.2041 33.4669 19.7134 33.3875 20.2371ZM36.0893 23.5891C36.8659 22.8523 36.7684 21.9781 36.577 21.1112C36.5083 20.797 36.288 20.4683 35.8618 20.6344C35.2874 20.862 34.7276 21.1257 34.2508 21.3352C34.2508 21.9131 34.2508 22.361 34.2508 22.827C34.8865 23.0943 35.4861 23.3399 36.0893 23.5891ZM13.6509 21.3207C13.1922 21.1149 12.6937 20.9017 12.2025 20.6706C11.8521 20.5044 11.6318 20.6453 11.4476 20.9343C11.0105 21.6278 11.2561 22.9968 11.9605 23.5566C12.5276 23.3038 13.1164 23.0401 13.6509 22.7981C13.6509 22.2635 13.6509 21.8301 13.6509 21.3207ZM18.5273 26.5186C19.34 26.4752 19.9143 26.2151 20.3008 25.6228C20.4959 25.323 20.579 24.9654 20.2069 24.7667C19.5784 24.4235 18.9282 24.1129 18.1119 23.9901C18.26 24.8714 18.39 25.6697 18.5273 26.5186ZM29.6815 23.9504C29.1144 24.1888 28.5509 24.3946 28.0163 24.6583C27.4745 24.9256 27.4058 25.3266 27.8032 25.7853C28.2149 26.2549 28.7387 26.5113 29.3672 26.5294C29.6634 25.7745 29.797 24.7342 29.6815 23.9504ZM31.083 24.9328C30.9782 25.4638 30.8698 25.9406 30.7904 26.421C30.7181 26.8653 30.9312 27.0929 31.4369 27.1398C31.9824 27.194 32.423 26.9231 32.3797 26.4969C32.3255 25.9695 32.1846 25.4494 32.0799 24.9328C31.7115 24.9328 31.4442 24.9328 31.083 24.9328ZM15.8796 24.9401C15.7821 25.5036 15.6665 25.9876 15.6159 26.4752C15.5726 26.8942 15.9591 27.2229 16.4106 27.2193C16.891 27.2121 17.2342 26.9123 17.1836 26.4788C17.1222 25.9659 17.0066 25.4638 16.9091 24.9401C16.5406 24.9401 16.2444 24.9401 15.8796 24.9401ZM17.7543 22.2093C17.776 21.4905 17.2161 20.9234 16.4575 20.8837C15.7135 20.8476 15.0849 21.3822 15.0416 22.0829C14.9983 22.7981 15.6087 23.4772 16.342 23.5241C17.0644 23.5711 17.7326 22.9498 17.7543 22.2093ZM32.8926 22.1804C32.8998 21.4833 32.293 20.8909 31.5634 20.8873C30.8157 20.8837 30.2341 21.4327 30.216 22.1588C30.198 22.8956 30.8265 23.5205 31.5814 23.5133C32.2749 23.5097 32.8818 22.8884 32.8926 22.1804ZM32.116 19.5544C32.2063 19.0921 32.3111 18.6442 32.3725 18.1927C32.4303 17.7809 32.1268 17.4811 31.6934 17.4702C31.2094 17.4594 30.8807 17.7628 30.9385 18.2035C30.9999 18.655 31.1118 19.0993 31.2022 19.5508C31.5381 19.5544 31.8054 19.5544 32.116 19.5544ZM16.8151 19.5689C16.891 19.0849 16.9885 18.6297 17.0283 18.171C17.0644 17.7484 16.7429 17.4666 16.3058 17.4739C15.8579 17.4811 15.569 17.7592 15.6195 18.1854C15.6737 18.6442 15.7712 19.0993 15.8543 19.5725C16.183 19.5689 16.4756 19.5689 16.8151 19.5689ZM28.6737 4.06212C29.4972 3.82011 30.1366 3.63228 30.9638 3.38666C30.3389 3.08685 29.891 2.87374 29.3744 2.62812C29.136 3.11575 28.9374 3.52031 28.6737 4.06212ZM18.5779 2.67869C18.0541 2.87735 17.5592 2.98571 17.1764 3.44084C17.9096 3.66118 18.549 3.85262 19.3436 4.09463C19.0402 3.53475 18.8126 3.11575 18.5779 2.67869ZM23.2591 36.2496C23.2989 35.7981 23.3567 35.4079 22.9629 35.231C22.7715 35.1443 22.45 35.1659 22.2766 35.2743C21.9407 35.4838 21.9227 35.845 22.078 36.2496C22.4536 36.2496 22.8185 36.2496 23.2591 36.2496ZM25.8815 36.2568C26.0079 35.8595 26.0549 35.4802 25.6937 35.2743C25.495 35.1623 25.1266 35.1551 24.9388 35.2671C24.5992 35.473 24.6137 35.8522 24.7473 36.2568C25.1302 36.2568 25.4986 36.2568 25.8815 36.2568ZM25.9285 37.6944C25.5095 37.6944 25.0905 37.6944 24.6606 37.6944C24.7726 38.4096 24.9243 38.5902 25.3469 38.5649C25.7732 38.5396 25.9213 38.3265 25.9285 37.6944ZM21.9768 37.68C22.1358 38.4168 22.3272 38.6083 22.7751 38.5577C23.1652 38.5144 23.2628 38.3374 23.223 37.68C22.8293 37.68 22.432 37.68 21.9768 37.68ZM20.5464 36.2315C20.5826 35.798 20.7343 35.4116 20.3044 35.2129C20.1997 35.1659 19.9143 35.2562 19.8854 35.3429C19.7951 35.6066 19.7915 35.8992 19.7482 36.2315C20.0588 36.2315 20.2647 36.2315 20.5464 36.2315ZM17.5809 36.2387C17.8121 36.2387 18.0649 36.2387 18.4442 36.2387C18.2925 35.8486 18.5923 35.3104 18.0613 35.249C17.6134 35.1984 17.5448 35.7077 17.534 36.1051C17.534 36.1304 17.552 36.1556 17.5809 36.2387ZM28.2005 36.2171C28.2149 35.7764 28.3089 35.3863 27.8754 35.2237C27.7634 35.1804 27.4745 35.314 27.4383 35.4224C27.3625 35.6572 27.395 35.9317 27.3842 36.2171C27.6948 36.2171 27.9043 36.2171 28.2005 36.2171ZM30.4508 36.2171C30.375 35.9136 30.3533 35.668 30.2486 35.4657C30.1908 35.3538 29.9776 35.2526 29.8584 35.2707C29.7465 35.2887 29.6056 35.4657 29.5803 35.5922C29.5442 35.7872 29.5948 36.0003 29.6128 36.2568C29.9018 36.2423 30.133 36.2315 30.4508 36.2171ZM17.2775 37.7052C17.7435 38.2651 17.9313 38.3988 18.1625 38.2651C18.3142 38.1784 18.4009 37.9725 18.5995 37.7052C18.0685 37.7052 17.7182 37.7052 17.2775 37.7052ZM19.7915 37.68C19.7337 38.1134 19.8457 38.3843 20.1997 38.4566C20.3044 38.4782 20.5175 38.341 20.5537 38.2362C20.6079 38.0809 20.5501 37.8822 20.5356 37.6836C20.2647 37.68 20.0552 37.68 19.7915 37.68ZM28.2258 37.6474C27.8935 37.6655 27.6406 37.6763 27.3191 37.6908C27.3805 38.0159 27.4239 38.2398 27.4708 38.4746C28.0199 38.4782 28.2258 38.2362 28.2258 37.6474ZM29.36 37.698C29.5984 37.9653 29.7248 38.2362 29.8801 38.2543C30.2088 38.2904 30.4869 38.1098 30.617 37.698C30.2269 37.698 29.8873 37.698 29.36 37.698Z" fill="#FFEB61"/>
<path d="M21.7637 8.31009C21.7167 6.21146 22.5908 5.04837 24.0465 5.12061C25.5672 5.19646 26.3691 6.39207 26.1596 8.37511C26.4233 8.16922 26.6364 8.00307 26.8531 7.84052C28.2943 6.75328 29.8981 6.20424 31.7186 6.38484C31.9064 6.4029 32.1051 6.42819 32.2749 6.50766C32.5891 6.64853 32.7156 6.93027 32.6433 7.25897C32.5675 7.60573 32.3146 7.74299 31.9606 7.7141C31.473 7.67436 30.9709 7.54794 30.4977 7.61657C28.3052 7.93805 26.7086 9.17339 25.578 11.0264C25.2096 11.6332 24.9532 12.3123 24.6642 12.9661C24.5378 13.2551 24.4294 13.5296 24.0501 13.5332C23.6528 13.5368 23.4505 13.2984 23.3277 12.9661C22.9557 11.9511 22.4716 10.9903 21.7853 10.1523C20.6836 8.80495 19.3255 7.85497 17.5664 7.62018C17.0607 7.55155 16.5333 7.66714 16.0168 7.69604C15.6917 7.7141 15.4064 7.6563 15.3161 7.27703C15.2258 6.90137 15.4244 6.54739 15.7965 6.4318C15.9265 6.39207 16.0674 6.39929 16.2046 6.38484C17.9962 6.17534 19.5747 6.72077 21.016 7.75022C21.2399 7.90915 21.4494 8.07531 21.7637 8.31009ZM23.8876 10.5713C23.9598 10.5568 24.0285 10.5424 24.1007 10.5279C24.3535 9.77661 24.6389 9.03613 24.8484 8.27397C24.9459 7.91637 24.9784 7.5046 24.9098 7.13977C24.7725 6.41013 23.8731 6.09588 23.3891 6.61241C23.1543 6.86887 22.9557 7.29871 22.9809 7.63102C23.0604 8.67492 23.5517 9.59961 23.8876 10.5713Z" fill="#FFEB61"/>
<path d="M23.9742 30.9252C23.7503 31.0444 23.5444 31.1853 23.3168 31.2756C22.5294 31.5899 21.8034 31.4634 21.1713 30.9036C20.5572 30.3617 20.326 29.6646 20.5608 28.888C21.0629 27.2337 22.0887 25.9189 23.3746 24.7991C23.7684 24.4596 24.1549 24.4704 24.5775 24.8099C25.8923 25.8611 26.8603 27.1831 27.4238 28.7724C27.7272 29.6249 27.413 30.3473 26.7664 30.918C26.109 31.4959 25.3613 31.6368 24.5522 31.2359C24.3607 31.1456 24.1729 31.0336 23.9742 30.9252ZM24.014 25.9586C23.3385 26.5149 22.887 27.1325 22.4969 27.7935C22.2188 28.2631 21.9659 28.758 21.7889 29.2709C21.6336 29.726 21.9767 30.1306 22.468 30.1956C22.8906 30.2498 23.3132 29.9572 23.3782 29.549C23.4035 29.3901 23.3421 29.1986 23.4035 29.0614C23.4866 28.8808 23.6311 28.6424 23.79 28.6063C23.9959 28.5593 24.2921 28.6243 24.4619 28.7544C24.6027 28.8627 24.6931 29.1409 24.6786 29.3323C24.6461 29.7621 24.8122 30.0114 25.1987 30.1522C25.56 30.2787 25.8489 30.1414 26.0909 29.8958C26.3691 29.6104 26.2607 29.2926 26.1271 28.9783C25.6503 27.8513 24.9531 26.8797 24.014 25.9586Z" fill="#FFEB61"/>
<path d="M26.9574 11.7849C27.1127 11.8933 27.3836 11.9908 27.4667 12.1714C27.5498 12.352 27.5173 12.6807 27.3981 12.8396C26.9646 13.4031 26.4806 13.9269 26.0038 14.4543C25.769 14.7143 25.4692 14.7143 25.1803 14.5409C24.8696 14.3567 24.7685 14.0064 24.9563 13.7607C25.4512 13.1106 26.0147 12.5146 26.5673 11.9077C26.6287 11.8391 26.7696 11.8391 26.9574 11.7849Z" fill="#FFEB61"/>
<path d="M21.0739 11.7163C21.3087 11.8716 21.511 11.9583 21.6483 12.1028C22.0637 12.5435 22.4646 12.9986 22.8511 13.461C23.1942 13.8727 23.1762 14.2953 22.8366 14.5374C22.5368 14.7541 22.1937 14.6529 21.8505 14.2628C21.4532 13.8077 21.027 13.3743 20.6622 12.8939C20.5357 12.7277 20.4743 12.4171 20.5357 12.222C20.5971 12.0378 20.8572 11.9114 21.0739 11.7163Z" fill="#FFEB61"/>
<path d="M20.2325 42.448C19.4523 42.4191 18.7588 42.1735 18.2423 41.5919C18.0833 41.4113 17.975 41.0971 18.0002 40.8587C18.0544 40.3421 18.5854 40.176 18.9755 40.5155C19.0766 40.6058 19.1489 40.7286 19.2464 40.8261C19.7593 41.3174 20.489 41.3499 21.0308 40.9056C21.0741 40.8695 21.1067 40.8261 21.1464 40.79C21.6557 40.3385 21.9519 40.306 22.2553 40.6708C22.5118 40.9742 22.4395 41.3607 22.0205 41.7472C21.5148 42.2096 20.9008 42.4155 20.2325 42.448Z" fill="#FFEB61"/>
<path d="M27.7019 42.448C27.0265 42.4011 26.3727 42.2313 25.8706 41.7003C25.5383 41.3463 25.4913 40.9382 25.7333 40.6673C25.9826 40.3891 26.3582 40.4144 26.7483 40.7359C27.59 41.4294 28.0595 41.4077 28.865 40.6347C29.2443 40.2699 29.4935 40.2338 29.7861 40.4975C30.104 40.7865 30.1148 41.1188 29.7681 41.5089C29.2299 42.1085 28.5363 42.3974 27.7019 42.448Z" fill="#FFEB61"/>
<path d="M23.967 40.4108C24.3643 40.3964 24.7327 40.7323 24.7327 41.1116C24.7327 41.462 24.4077 41.7762 24.0356 41.7871C23.6202 41.8015 23.2771 41.48 23.2843 41.0899C23.2843 40.7107 23.5733 40.4253 23.967 40.4108Z" fill="#FFEB61"/>
<path d="M16.4212 23.0907C15.8938 23.0907 15.4748 22.6862 15.4712 22.1733C15.4676 21.6423 15.8685 21.2594 16.414 21.2702C16.9377 21.2811 17.3351 21.7001 17.3206 22.2238C17.3062 22.7151 16.9161 23.0907 16.4212 23.0907Z" fill="#FFEB61"/>
<path d="M31.5306 21.2774C32.0688 21.2702 32.4914 21.6712 32.4842 22.1805C32.4769 22.6537 32.076 23.069 31.6064 23.0907C31.0863 23.116 30.6348 22.7187 30.6095 22.2166C30.5842 21.7181 31.0068 21.2847 31.5306 21.2774Z" fill="#FFEB61"/>
</svg>
