<svg width="48" height="49" viewBox="0 0 48 49" fill="none" xmlns="http://www.w3.org/2000/svg">
<path d="M45.6327 36.2198C41.4238 32.9973 37.2148 29.7748 33.0058 26.5523C32.9401 26.4866 32.8086 26.4208 32.7428 26.4208C32.7428 26.355 32.8086 26.355 32.8086 26.2893C33.9266 26.2235 35.0446 26.1577 36.0968 26.092C38.004 25.9604 39.9112 25.8289 41.8841 25.7631C42.2787 25.7631 42.6075 25.5658 42.7391 25.1712C42.8706 24.7767 42.6733 24.5136 42.3445 24.2505L42.2787 24.1848C39.0562 21.7515 35.8995 19.3182 32.677 16.8849C32.6113 16.8191 32.5455 16.7533 32.414 16.6218H34.1239C34.9788 16.6218 35.8995 16.6218 36.7545 16.6218C37.149 16.6218 37.4779 16.4245 37.6094 16.0957C37.8067 15.7011 37.6752 15.438 37.4121 15.1092C37.2806 14.9119 37.0833 14.7804 36.9517 14.6489C32.8743 10.7687 28.8627 6.82283 24.851 2.9427C24.1933 2.28505 23.9303 2.28505 23.2069 2.9427C23.1411 3.00846 23.0753 3.07423 22.9438 3.20576C19.6556 6.36248 16.3673 9.58496 13.0791 12.7417C12.2899 13.5309 11.4349 14.32 10.6458 15.1092C10.3827 15.3723 10.1854 15.7011 10.3827 16.1615C10.58 16.556 10.9088 16.6876 11.3692 16.6876C12.6845 16.6876 13.9998 16.6876 15.3151 16.6876H15.8412C15.7097 16.8191 15.6439 16.8849 15.5781 16.9506C13.2764 18.6605 11.0404 20.3704 8.80435 22.0803C7.75211 22.8695 6.76563 23.6587 5.7134 24.4478C5.45034 24.6451 5.38457 24.974 5.45034 25.237C5.5161 25.5658 5.77916 25.6974 6.10799 25.7631C6.23952 25.7631 6.30528 25.8289 6.43681 25.8289C9.06741 25.9604 11.6322 26.092 14.1971 26.2893C14.5917 26.2893 14.9863 26.355 15.5124 26.355C15.1835 26.6181 14.9205 26.8154 14.6574 26.9469C11.2377 29.5775 7.81787 32.1423 4.3981 34.7729C3.67468 35.2991 2.95127 35.8909 2.22785 36.4828C1.89903 36.7459 1.70173 37.0089 1.89903 37.4035C2.09632 37.7981 2.42515 37.9954 2.81974 37.9297C3.0828 37.9297 3.34586 37.9296 3.60892 37.8639C4.59539 37.7981 5.5161 37.7324 6.50258 37.6666C10.8431 37.3378 15.1835 37.0089 19.524 36.6801C20.1159 36.6143 20.7078 36.6143 21.3655 36.5486C21.0366 39.9026 20.642 43.1251 20.3132 46.4791C20.1159 46.4791 19.9844 46.4791 19.8529 46.4791H19.4583H21.8916C21.9573 46.0187 21.9573 45.5584 22.0231 45.098C22.2862 42.3359 22.5492 39.6395 22.8123 36.8774C22.8123 36.5486 22.9438 36.4171 23.2726 36.4171C23.8645 36.4171 24.3906 36.4171 24.9825 36.4171C25.2456 36.4171 25.3113 36.5486 25.3113 36.8116C25.5086 39.1134 25.7717 41.4152 25.969 43.7827C26.0348 44.5061 26.1005 45.2296 26.1663 46.0187C26.1663 46.1503 26.1663 46.3476 26.2321 46.5449H27.8104C27.8104 46.4791 27.8104 46.4791 27.8762 46.4133C27.8104 46.3476 27.8104 46.2818 27.8104 46.1503C27.5474 43.1908 27.2185 40.2314 26.8897 37.272C26.8897 37.0747 26.8897 36.8116 26.8239 36.6144C27.5474 36.5486 28.205 36.5486 28.8627 36.6144C30.9014 36.7459 33.0058 36.9432 35.0446 37.0747C35.5707 37.1405 35.8337 36.8774 35.8995 36.4171C35.9653 35.9567 35.7022 35.6936 35.1761 35.6279C34.7157 35.5621 34.1896 35.5621 33.7293 35.4963C31.296 35.299 28.9284 35.1018 26.4951 34.9045C25.5744 34.8387 24.7195 34.6414 23.7988 34.7072C22.3519 34.7729 20.9051 34.9702 19.4583 35.036C14.7232 35.3648 10.0539 35.7594 5.31881 36.0882C5.25304 36.0882 5.18728 36.0882 5.05575 36.0882C5.5161 35.7594 5.84493 35.4963 6.17375 35.2333C10.0539 32.2739 13.934 29.3802 17.7484 26.4865C17.9457 26.355 18.2087 26.2893 18.406 26.2893C20.0502 26.355 21.6943 26.5523 23.3384 26.5523C25.4429 26.5523 27.5474 26.355 29.6518 26.2893C29.9149 26.2893 30.178 26.355 30.3753 26.4865C34.5184 29.6433 38.6616 32.8 42.8048 35.9567C42.8706 35.9567 42.8706 36.0225 42.9364 36.154C42.3445 36.0882 41.7526 36.0882 41.2265 36.0225C40.3058 35.9567 39.385 35.8909 38.3986 35.8252C37.9382 35.8252 37.6752 36.0882 37.6094 36.4828C37.5436 36.8774 37.8067 37.2062 38.2013 37.272C38.4643 37.3378 38.7932 37.3378 39.0562 37.4035C40.9634 37.5351 42.8706 37.6666 44.8435 37.8639C45.567 37.9296 45.9615 37.7981 46.0931 37.3378C46.2904 37.0089 46.1588 36.6801 45.6327 36.2198ZM24.7852 4.78412C27.8762 7.74354 30.9014 10.703 33.8608 13.5966L33.795 13.6624C32.8086 13.0047 31.8221 12.2813 30.8356 11.6237C30.1122 11.1633 29.3888 10.6372 28.6654 10.1768C28.4681 10.0453 28.2708 9.91378 28.0077 9.84802C27.6131 9.71649 27.2185 9.91378 27.0212 10.2426C26.8897 10.5714 26.9555 10.9003 27.3501 11.1633C28.3365 11.821 29.3888 12.4129 30.3753 13.0705C31.0987 13.5309 31.8221 14.057 32.5455 14.5173C32.677 14.5831 32.7428 14.6489 32.8743 14.8462H24.7852V4.78412ZM15.7754 14.9777H15.2493V14.8462C16.17 14.1885 17.0907 13.5966 18.0772 12.939C18.9321 12.4129 19.7213 11.821 20.5763 11.2948C21.1682 10.9003 21.2997 10.6372 21.0366 10.3084C20.7736 9.84802 20.1817 9.78226 19.6556 10.1111C18.0114 11.2291 16.3016 12.3471 14.6574 13.4651C14.5917 13.5309 14.4601 13.5966 14.3944 13.6624L14.3286 13.5966C17.288 10.703 20.2474 7.87507 23.2069 4.91565C23.2069 5.04718 23.2726 5.11294 23.2726 5.17871C23.2726 8.26966 23.2726 11.3606 23.2726 14.4516C23.2726 14.8462 23.2069 14.9777 22.8123 14.9777C20.4447 14.9119 18.143 14.9777 15.7754 14.9777ZM24.3906 24.974C22.878 25.0397 21.2997 24.8424 19.7871 24.7767C17.3538 24.7109 14.8547 24.5794 12.4214 24.4478C12.2899 24.4478 12.0926 24.4478 11.9611 24.3163C12.0926 24.2505 12.1584 24.1848 12.2899 24.119C14.1313 23.1983 16.0385 22.3434 17.9457 21.4226C18.4718 21.1596 18.6691 20.9623 18.6033 20.5677C18.4718 20.0416 18.0114 19.7785 17.4196 20.0416C16.6961 20.3704 16.0385 20.6992 15.3151 21.0281C13.2764 22.0145 11.3034 23.001 9.2647 23.9217C9.00164 24.0532 8.73858 24.119 8.47552 24.1848C8.47552 24.119 8.40976 24.119 8.40976 24.0532C8.67282 23.856 8.93588 23.5929 9.19894 23.3956C11.3692 21.7515 13.6052 20.0416 15.8412 18.3975C16.6961 17.7398 17.6169 17.1479 18.4718 16.556C18.6033 16.4245 18.8664 16.3588 19.0637 16.3588C22.4177 16.3588 25.7059 16.3588 29.06 16.3588C29.4545 16.3588 29.7834 16.4245 30.1122 16.6876C33.2031 19.0551 36.3599 21.4227 39.4508 23.7902C39.5823 23.9217 39.7796 23.9875 39.9112 24.0532C39.8454 24.119 39.7796 24.1848 39.7796 24.2505C39.5823 24.1848 39.3851 24.119 39.2535 24.0532C36.6229 22.8037 33.9923 21.5542 31.3617 20.2389C31.1644 20.1731 31.0329 20.0416 30.8356 19.9758C30.3095 19.7785 29.9149 19.9101 29.7176 20.3046C29.5203 20.6992 29.7176 21.0281 30.2437 21.2911C31.1644 21.7515 32.0851 22.1461 33.0058 22.6064C33.9923 23.0668 35.0446 23.5929 36.031 24.0532C36.1626 24.119 36.2283 24.1848 36.2941 24.1848C36.2941 24.1848 36.2941 24.2505 36.2941 24.3163C35.8995 24.3163 35.4392 24.3821 35.0446 24.3821C31.4275 24.7109 27.9419 24.9082 24.3906 24.974Z" fill="#FFEB61"/>
</svg>
