<svg width="48" height="48" viewBox="0 0 48 48" fill="none" xmlns="http://www.w3.org/2000/svg">
<path d="M26.1722 6.32069C26.3446 6.15329 26.5048 5.97946 26.6802 5.82494C27.1095 5.44508 27.5751 5.24228 28.1223 5.53844C28.1586 5.55775 28.207 5.57385 28.2402 5.56097C28.7754 5.37748 29.3045 5.18112 29.8426 5.00728C30.2357 4.87852 30.6378 4.78194 31.0369 4.67249C31.8653 4.44716 32.6756 5.20687 32.5123 6.10179C32.3581 6.94198 32.1314 7.76929 31.9379 8.59982C31.9107 8.71249 31.8774 8.83482 31.8925 8.94427C32.1707 11.291 31.6234 13.4189 30.399 15.3696C29.0989 17.4363 27.4149 19.004 25.2168 19.9118C25.1292 19.9472 25.0385 19.9794 24.9508 20.0116C24.4701 20.179 24.4701 20.179 24.4701 20.7359C24.464 23.9615 24.461 27.1903 24.4549 30.4158C24.4549 30.5027 24.464 30.5897 24.5064 30.6766C24.6333 30.2452 24.7512 29.8106 24.8903 29.3857C26.1118 25.6226 28.0891 22.368 30.7587 19.5867C31.0036 19.3324 31.2606 19.0845 31.5358 18.8688C31.6476 18.7787 31.826 18.7851 31.9741 18.7465C32.0104 18.9139 32.1162 19.1038 32.0739 19.2422C31.5116 21.1093 31.0006 23.0022 30.3324 24.8274C29.3952 27.3866 28.3098 29.8847 27.3302 32.4278C26.3204 35.0481 25.4769 37.7297 24.851 40.4885C24.5094 41.9918 24.4882 43.5048 24.4882 45.0306C24.4882 45.8258 24.4852 46.6209 24.4822 47.416C24.4791 47.8184 24.3824 47.9182 24.0075 47.9182C23.7142 47.9182 23.424 47.9182 23.1307 47.915C22.7346 47.9118 22.6439 47.8184 22.6439 47.3967C22.6379 44.8278 22.6439 42.259 22.6258 39.6901C22.6197 39.0527 22.5593 38.4121 22.4716 37.7812C22.1027 35.0932 20.8692 32.9589 18.8072 31.359C18.1632 30.8601 17.5163 30.3547 16.9267 29.7849C15.8111 28.7097 15.2185 27.3062 14.904 25.7674C14.7559 25.0463 14.6803 24.3091 14.5956 23.5752C14.5805 23.4464 14.647 23.2243 14.7347 23.1825C14.8557 23.1245 15.0552 23.1535 15.1761 23.2275C17.9516 24.8918 20.0196 27.2353 21.2743 30.3772C21.8306 31.7743 22.1995 33.2229 22.4565 34.7069C22.4776 34.8325 22.5018 34.9548 22.526 35.0803C22.5472 35.0803 22.5683 35.0771 22.5895 35.0771C22.5895 30.1551 22.5895 25.233 22.5895 20.3174C22.1209 20.1887 21.616 20.0824 21.1353 19.9086C19.2819 19.2294 17.7884 17.9997 16.5276 16.432C15.4815 15.1282 14.7045 13.6699 14.3538 11.9799C14.1452 10.9691 14.124 9.95186 14.254 8.92818C14.2691 8.79941 14.2359 8.65777 14.2056 8.52901C14.0212 7.73066 13.8005 6.94198 13.6463 6.1372C13.4709 5.20365 14.2963 4.42784 15.161 4.67249C15.8655 4.87208 16.5699 5.06523 17.2774 5.26159C17.3258 5.27447 17.3802 5.28091 17.4255 5.30344C17.7763 5.47406 18.1088 5.56419 18.5109 5.40324C18.8133 5.28413 19.1066 5.50947 19.3545 5.71227C19.5601 5.87967 19.7445 6.07925 19.9743 6.29815C19.9743 6.13398 19.9743 6.00843 19.9743 5.8861C19.9682 5.43865 20.0741 5.03626 20.3885 4.71756C20.7332 4.3699 21.1474 4.2862 21.5706 4.50832C21.7369 4.59524 21.8578 4.5888 21.9818 4.45681C22.006 4.43106 22.0362 4.41175 22.0634 4.39243C22.8193 3.82586 23.424 3.8323 24.1587 4.4375C24.2977 4.55017 24.3975 4.58236 24.5668 4.50188C25.3862 4.10593 26.0301 4.8077 26.1148 5.45474C26.1511 5.73802 26.1541 6.01809 26.1722 6.32069ZM22.5442 6.75527C22.52 6.76171 22.4958 6.76493 22.4746 6.7778C22.4172 6.81643 22.3597 6.85828 22.3083 6.90335C21.2229 7.8208 20.5124 9.00222 20.1436 10.4186C19.6991 12.1248 19.9712 13.7697 20.588 15.3696C21.1564 16.8408 22.012 18.1381 22.8193 19.4644C22.8828 19.5706 22.9463 19.6736 23.0128 19.7798C23.2909 19.4805 23.4754 19.239 23.6356 18.9847C24.5064 17.6134 25.3287 16.2195 25.8034 14.6196C26.5139 12.2278 26.3022 10.0066 24.8298 7.98819C24.4942 7.52786 24.1163 7.10937 23.6628 6.77458C23.3484 7.26711 22.9553 7.51176 22.5442 6.75527ZM28.8328 5.96014C29.0777 6.20802 29.2924 6.40438 29.4798 6.6265C29.8003 6.99992 29.7308 7.26711 29.2712 7.39587C28.1133 7.71457 27.2335 8.45496 26.529 9.45289C26.4625 9.54947 26.4413 9.72008 26.4625 9.84241C26.5381 10.2641 26.6741 10.6729 26.7316 11.0946C26.9432 12.6849 26.6378 14.2011 26.0846 15.6722C25.6341 16.8633 25.0264 17.9643 24.3461 19.0233C24.2887 19.1135 24.2433 19.2133 24.1919 19.3098C24.3098 19.2519 24.3884 19.1682 24.461 19.0813C26.1208 17.0887 27.4451 14.9125 27.814 12.2085C27.8381 12.0218 27.9167 11.8994 28.1072 11.8994C28.3098 11.8994 28.4096 12.0378 28.4156 12.2278C28.4217 12.408 28.3914 12.5915 28.3551 12.7686C27.9863 14.5616 27.2667 16.1873 26.2932 17.6906C26.2539 17.7486 26.2206 17.813 26.1874 17.8741C26.2902 17.8451 26.3567 17.7872 26.4171 17.726C27.0793 17.0436 27.6779 16.3 28.1435 15.4533C28.4519 14.8964 28.7119 14.3073 28.9931 13.7311C29.0233 13.6667 29.0475 13.5991 29.0777 13.5315C29.1684 13.3223 29.3256 13.2482 29.5222 13.3384C29.7187 13.4285 29.7005 13.6023 29.631 13.7794C28.9961 15.389 28.1284 16.8343 26.9462 18.0544C26.8525 18.151 26.7618 18.2508 26.6681 18.3473C26.7467 18.3602 26.789 18.3345 26.8314 18.3055C28.1254 17.3687 29.2077 16.2163 30.0422 14.7999C31.0399 13.1034 31.5237 11.2781 31.3302 9.2694C31.309 9.06338 31.2576 8.84126 31.2999 8.64811C31.4934 7.79826 31.7262 6.95807 31.9228 6.10822C32.0497 5.55775 31.6053 5.13283 31.0974 5.28735C30.6922 5.40967 30.2901 5.52878 29.885 5.65111C29.5464 5.7509 29.2077 5.85069 28.8328 5.96014ZM21.8367 19.2101C21.8639 19.1875 21.8881 19.165 21.9153 19.1425C21.8488 19.0298 21.7762 18.9203 21.7127 18.8044C21.2713 18.0125 20.7876 17.24 20.4006 16.4191C19.3998 14.2945 18.9584 12.0894 19.7082 9.74905C19.7324 9.67823 19.7112 9.56234 19.6689 9.50118C18.9886 8.55154 18.1663 7.80148 17.0658 7.4506C16.9599 7.41519 16.8511 7.383 16.7513 7.33471C16.4974 7.20916 16.4248 6.96773 16.6002 6.73273C16.7664 6.51383 16.969 6.32712 17.1595 6.13076C17.2139 6.07281 17.2713 6.01809 17.353 5.94083C16.5488 5.71549 15.7959 5.49981 15.0401 5.297C14.5473 5.16502 14.13 5.53844 14.2359 6.06316C14.3961 6.85506 14.6108 7.63731 14.7922 8.42599C14.8315 8.59661 14.8708 8.78332 14.8496 8.95393C14.6803 10.2158 14.7438 11.4584 15.1368 12.6591C15.8866 14.9351 17.2744 16.6927 19.1035 18.0834C19.2396 18.1864 19.3877 18.2669 19.5298 18.357C19.5359 18.2765 19.5147 18.2411 19.4875 18.2153C18.4716 17.2625 17.6704 16.1261 17.0083 14.8803C16.8239 14.5327 16.6636 14.1657 16.5064 13.8019C16.4278 13.6184 16.4339 13.4414 16.6334 13.3352C16.8148 13.2418 16.9509 13.3287 17.0748 13.5702C17.4316 14.2687 17.7611 14.9833 18.1632 15.6465C18.6742 16.4899 19.3001 17.2367 20.0468 17.8645C20.0317 17.8033 19.9985 17.755 19.9713 17.7035C19.4966 16.8569 18.9826 16.036 18.5623 15.1604C18.1451 14.2977 17.87 13.3706 17.7672 12.3984C17.743 12.1795 17.74 11.9445 18.006 11.9059C18.2812 11.864 18.3053 12.1151 18.3507 12.3211C18.4263 12.6849 18.4868 13.0551 18.5775 13.4156C18.9947 15.0284 19.7899 16.432 20.7271 17.7486C21.0778 18.2475 21.4648 18.724 21.8367 19.2101ZM31.306 20.0889C31.2757 20.0696 31.2455 20.0535 31.2153 20.0342C30.9674 20.2917 30.7134 20.5428 30.4776 20.81C27.6265 24.0548 25.7006 27.8341 24.7452 32.1638C24.6333 32.6692 24.5003 33.1811 24.4912 33.6929C24.458 35.502 24.4731 37.3112 24.4701 39.1203C24.4701 39.2073 24.4791 39.291 24.4822 39.3779C24.585 39.1396 24.6394 38.895 24.6998 38.6503C25.2652 36.3776 26.0241 34.1758 26.8646 32.0061C27.7898 29.6175 28.7935 27.2643 29.7006 24.8661C30.2901 23.3016 30.7708 21.6856 31.306 20.0889ZM23.8896 47.2615C23.8896 38.2512 23.8896 29.2698 23.8896 20.2691C23.6568 20.2852 23.4481 20.3013 23.2426 20.3174C23.2426 29.3181 23.2426 38.2834 23.2426 47.2615C23.4693 47.2615 23.6719 47.2615 23.8896 47.2615ZM21.5404 33.4096C21.1595 31.4298 20.4217 29.6271 19.3484 27.979C18.2691 26.3211 16.8571 25.0528 15.2033 23.9744C15.2608 24.3574 15.3061 24.6729 15.3515 24.9884C15.678 27.216 16.6243 29.0219 18.4293 30.2935C19.3666 30.9534 20.2282 31.7292 20.9659 32.6467C21.1655 32.8946 21.3499 33.1553 21.5404 33.4096ZM20.0106 8.91852C20.1527 8.66421 20.2978 8.42921 20.4127 8.17812C20.4459 8.10408 20.4308 7.95922 20.3824 7.89162C20.0922 7.48601 19.7959 7.0804 19.4784 6.70376C19.291 6.48164 19.0612 6.30137 18.8375 6.1211C18.7679 6.06637 18.653 6.01165 18.5805 6.0374C18.0937 6.19514 17.6886 6.49774 17.2774 6.85828C18.4202 7.24457 19.2819 7.96888 20.0106 8.91852ZM26.142 8.9314C26.8646 7.956 27.7263 7.22848 28.851 6.82609C28.5305 6.57178 28.2009 6.35288 27.8654 6.14363C27.6114 5.9859 27.3846 6.05994 27.1548 6.24665C26.5653 6.72629 26.142 7.35402 25.7157 7.98497C25.6885 8.02682 25.6734 8.11374 25.6946 8.15237C25.8306 8.40346 25.9787 8.64811 26.142 8.9314ZM23.5268 5.84747C24.1526 6.42692 24.7301 6.96451 25.3227 7.51498C25.5615 6.90013 25.619 6.24021 25.5222 5.56419C25.5011 5.42577 25.4436 5.26803 25.3559 5.17468C25.2713 5.08776 25.0899 4.99763 25.0052 5.03626C24.4973 5.28735 24.0075 5.57707 23.5268 5.84747ZM22.6409 5.82816C22.1874 5.57063 21.743 5.30022 21.2804 5.06523C21.0415 4.9429 20.8087 5.06845 20.7029 5.35817C20.4369 6.09213 20.6062 6.79712 20.8269 7.47313C21.4285 6.9291 22.009 6.39794 22.6409 5.82816ZM22.4444 4.95578C22.6228 5.08132 22.7951 5.21009 22.9765 5.32276C23.0249 5.35173 23.1156 5.35173 23.164 5.31954C23.3635 5.18755 23.557 5.03947 23.7535 4.89139C23.2698 4.5212 22.7649 4.54373 22.4444 4.95578Z" fill="#FFEB61"/>
<path d="M34.8008 11.1719C34.6678 11.0689 34.5801 11.0302 34.5348 10.9594C34.4804 10.8725 34.4652 10.7598 34.435 10.66C34.1901 9.77156 33.6822 9.15027 32.8447 8.85733C32.6693 8.79616 32.5031 8.73822 32.5 8.49357C32.497 8.24247 32.6845 8.2296 32.8387 8.17165C33.6882 7.84974 34.2778 7.26064 34.5045 6.30456C34.5469 6.13073 34.6134 5.96655 34.8129 5.96977C35.0094 5.97299 35.0729 6.12751 35.1092 6.311C35.3088 7.2703 35.8832 7.8594 36.7419 8.15234C36.9233 8.2135 37.0502 8.30364 37.0563 8.5161C37.0623 8.735 36.893 8.76397 36.7479 8.80904C35.8318 9.09876 35.3027 9.77478 35.0397 10.7309C35.0034 10.8725 34.8976 10.998 34.8008 11.1719ZM34.7525 9.59451C35.1062 9.22109 35.4841 8.82514 35.8741 8.41631C35.4146 8.17487 35.0518 7.79824 34.8462 7.3379C34.4743 7.74029 34.1085 8.13946 33.7789 8.49678C34.0964 8.85411 34.435 9.23396 34.7525 9.59451Z" fill="#FFEB61"/>
<path d="M20.833 2.21953C20.8028 2.2485 20.7423 2.34829 20.6637 2.37405C19.9048 2.62514 19.412 3.12732 19.2427 3.97395C19.2245 4.06731 19.0855 4.17998 18.9917 4.19607C18.9222 4.20573 18.7982 4.08662 18.7559 3.99649C18.6471 3.76471 18.5957 3.50074 18.4747 3.2754C18.251 2.8537 17.9124 2.57041 17.4619 2.45453C17.2986 2.41268 17.1475 2.35151 17.1475 2.12939C17.1505 1.92337 17.2926 1.87508 17.4437 1.81392C18.0635 1.55961 18.514 1.12825 18.6773 0.413601C18.6894 0.365314 18.6954 0.30737 18.7227 0.278398C18.8043 0.201139 18.895 0.0820312 18.9827 0.0820312C19.0673 0.0820312 19.1822 0.188263 19.2306 0.278398C19.3001 0.410382 19.3062 0.577776 19.3666 0.716199C19.6206 1.28276 20.0348 1.6594 20.6062 1.83645C20.8148 1.8944 20.833 1.92659 20.833 2.21953ZM19.6357 2.14549C19.418 1.90727 19.158 1.62399 18.9796 1.42763C18.7952 1.63043 18.5322 1.92015 18.2963 2.17768C18.4687 2.36439 18.7317 2.65089 18.9343 2.87301C19.1882 2.61226 19.4543 2.33542 19.6357 2.14549Z" fill="#FFEB61"/>
<path d="M27.3605 4.1285C27.3272 4.03193 27.2637 3.93536 27.2637 3.842C27.2698 3.31728 27.1942 2.81832 26.8828 2.39018C26.7679 2.23244 26.6076 2.11011 26.4927 1.94916C26.4232 1.85258 26.3476 1.69484 26.3748 1.59827C26.402 1.50492 26.5562 1.39869 26.659 1.39547C27.3514 1.37937 27.9168 1.11218 28.3431 0.516646C28.4066 0.429729 28.5849 0.342813 28.6575 0.378223C28.7421 0.420072 28.8147 0.600343 28.8087 0.713012C28.7603 1.43731 29.0536 1.98779 29.5494 2.43846C29.6613 2.54147 29.758 2.62839 29.6975 2.80222C29.6401 2.9664 29.5192 3.00825 29.368 3.01147C28.6545 3.0179 28.1103 3.36235 27.7202 3.98686C27.6416 4.11563 27.566 4.17679 27.3605 4.1285ZM28.6061 2.39661C28.5154 2.17128 28.3793 1.82683 28.2493 1.5017C27.9561 1.64656 27.6477 1.79786 27.427 1.90409C27.563 2.21956 27.7112 2.56079 27.8321 2.83763C28.0619 2.70565 28.3703 2.53182 28.6061 2.39661Z" fill="#FFEB61"/>
<path d="M16.7632 35.5762C15.6778 35.5665 14.8313 34.6394 14.8434 33.4677C14.8525 32.341 15.7474 31.4267 16.8237 31.4428C17.9091 31.4589 18.7587 32.3796 18.7466 33.5288C18.7315 34.6845 17.8638 35.5826 16.7632 35.5762ZM16.7905 34.8551C17.4768 34.8519 18.0633 34.2306 18.0573 33.5127C18.0512 32.8013 17.4707 32.1897 16.8025 32.1897C16.1132 32.1897 15.5206 32.8077 15.5267 33.5192C15.5297 34.2564 16.1011 34.8583 16.7905 34.8551Z" fill="#FFEB61"/>
<path d="M13.1535 9.9968C13.1535 10.6793 12.6939 11.1911 12.0802 11.1943C11.4362 11.1975 10.9403 10.6793 10.9434 10C10.9434 9.32078 11.4271 8.79928 12.053 8.80572C12.7 8.81216 13.1535 9.30147 13.1535 9.9968ZM12.5669 10.0032C12.573 9.69098 12.3372 9.43667 12.0439 9.43667C11.7748 9.43667 11.5481 9.68776 11.539 9.9968C11.5299 10.3026 11.7506 10.5537 12.0318 10.5569C12.3281 10.5601 12.5639 10.3155 12.5669 10.0032Z" fill="#FFEB61"/>
<path d="M31.6415 27.8245C31.0519 27.8213 30.5863 27.2998 30.5923 26.6495C30.5984 25.9831 31.0428 25.5196 31.6747 25.5164C32.2703 25.5132 32.739 26.0121 32.742 26.6431C32.742 27.3126 32.2643 27.8277 31.6415 27.8245ZM32.1585 26.6398C32.1585 26.363 31.9347 26.1409 31.6566 26.1409C31.3935 26.1409 31.1789 26.3759 31.1819 26.6688C31.1819 26.9618 31.3724 27.171 31.6415 27.1774C31.9408 27.1839 32.1585 26.9585 32.1585 26.6398Z" fill="#FFEB61"/>
</svg>
