<svg width="48" height="48" viewBox="0 0 48 48" fill="none" xmlns="http://www.w3.org/2000/svg">
<path d="M13.3407 21.7528C14.6611 19.4535 15.898 17.1922 17.2373 14.9954C18.3073 13.2425 19.4873 11.5579 20.6483 9.86567C21.2364 9.0082 21.8928 8.19245 22.534 7.36912C23.0045 6.76585 23.0158 6.76965 23.7709 7.04662C25.4251 7.65368 27.0756 8.27592 28.7374 8.86402C29.2155 9.03476 29.4849 9.30793 29.6632 9.78979C31.0784 13.6143 32.524 17.4312 33.943 21.2557C34.1327 21.7641 34.4097 22.1663 34.827 22.504C36.1322 23.5588 37.4336 24.6249 38.716 25.7063C38.9703 25.9225 39.2017 26.2033 39.3535 26.4992C41.63 30.9574 43.8951 35.4231 46.1602 39.885C46.2399 40.0406 46.3309 40.1885 46.3992 40.3479C46.5813 40.7918 46.422 41.0612 45.9363 41.1219C45.7656 41.1409 45.5911 41.1295 45.4165 41.1295C31.1391 41.1295 16.8655 41.1333 2.58812 41.1333C2.5312 41.1333 2.4705 41.1333 2.41359 41.1333C1.49161 41.1143 1.32467 40.8639 1.74961 40.0102C3.02824 37.4454 4.32584 34.8919 5.60826 32.3309C7.23216 29.0982 8.84848 25.8618 10.4686 22.6292C10.571 22.4205 10.681 22.2194 10.7835 22.0108C10.9732 21.6238 11.254 21.4758 11.7017 21.5631C12.2101 21.6579 12.7299 21.6845 13.3407 21.7528ZM28.1342 40.1165C28.2745 39.9116 28.339 39.8509 28.3656 39.775C29.7846 35.9884 31.1998 32.2019 32.6302 28.4191C32.782 28.0207 32.6909 27.6944 32.5202 27.3453C31.9055 26.1009 31.3023 24.8526 30.6914 23.6081C30.5928 23.407 30.4714 23.2173 30.3461 22.9934C28.0659 23.2477 25.9032 23.8282 23.7291 24.5149C25.1899 29.7015 26.6393 34.8312 28.1342 40.1165ZM27.2274 40.2037C25.8349 35.2903 24.4842 30.5173 23.0879 25.5886C22.8527 25.9643 22.6971 26.1995 22.5567 26.4423C21.1226 28.9541 19.7263 31.4886 18.2466 33.9737C17.7951 34.7288 17.6623 35.4003 17.9279 36.2426C18.3338 37.5364 18.6298 38.8606 18.9751 40.1999C21.7031 40.2037 24.3855 40.2037 27.2274 40.2037ZM31.7917 40.1848C36.3485 40.1848 40.7535 40.1848 45.1509 40.1848C45.1661 40.0709 45.2003 40.0026 45.1813 39.9609C44.2024 38.0297 43.2159 36.0985 42.237 34.1634C42.0966 33.8903 41.8766 33.8333 41.5996 33.8144C39.9264 33.7005 38.2532 33.5943 36.5837 33.4501C36.1133 33.4084 35.8439 33.5526 35.6048 33.9548C34.8233 35.2713 34.0037 36.5651 33.1993 37.8703C32.7478 38.6102 32.3039 39.3462 31.7917 40.1848ZM11.1667 23.5094C11.0377 23.6347 10.9808 23.665 10.958 23.7105C9.45174 26.7079 7.94167 29.7015 6.45436 32.7103C6.35571 32.9076 6.37089 33.2111 6.43918 33.435C7.00451 35.3472 7.59261 37.2557 8.17691 39.1603C8.2452 39.388 8.34385 39.608 8.46905 39.9381C8.65117 39.6005 8.78018 39.3804 8.89021 39.1527C10.442 35.9201 11.9483 32.6647 13.5722 29.4663C14.1034 28.4191 14.2665 27.573 13.3635 26.7079C13.2004 26.5524 13.1055 26.3247 12.9727 26.135C12.3808 25.2813 11.7927 24.4276 11.1667 23.5094ZM9.44415 40.0747C9.85392 40.3024 10.0854 40.033 10.3244 39.8433C12.4112 38.1928 14.498 36.5386 16.5696 34.8691C16.8086 34.6756 16.9983 34.4025 17.1539 34.1331C18.7133 31.3937 20.2613 28.6505 21.8131 25.9036C21.9193 25.7139 22.0104 25.5166 22.1697 25.2092C21.908 25.2927 21.7751 25.3268 21.6499 25.38C19.7073 26.1995 17.7685 27.0304 15.8183 27.8272C15.3554 28.0169 15.0671 28.2863 14.8584 28.7378C13.7315 31.1471 12.5781 33.545 11.4323 35.9429C10.7683 37.324 10.1043 38.6974 9.44415 40.0747ZM14.3083 21.9121C14.6535 21.969 14.8205 21.9994 14.9874 22.0221C17.2184 22.3409 19.4569 22.6216 21.6803 22.9821C23.3459 23.2552 24.985 23.4336 26.6089 22.7886C26.9542 22.652 27.3412 22.6178 27.7016 22.5268C27.8306 22.4926 27.952 22.4205 28.1835 22.3219C24.8105 19.9088 21.5247 17.5602 18.1745 15.1661C16.8921 17.4047 15.6362 19.5977 14.3083 21.9121ZM36.3257 27.5654C35.5593 27.8044 34.9636 28.0283 34.3528 28.1725C33.7874 28.3053 33.4953 28.6088 33.2904 29.1589C32.0345 32.5737 30.7407 35.9732 29.4621 39.3766C29.3748 39.6118 29.3103 39.8585 29.2345 40.1013C30.5548 40.3669 30.6193 40.3403 31.2454 39.3273C32.5695 37.1912 33.8937 35.0551 35.214 32.919C35.3203 32.7482 35.4455 32.5699 35.4796 32.3802C35.7604 30.8322 36.0298 29.2728 36.3257 27.5654ZM27.6789 20.8725C27.5802 20.569 27.5574 20.4627 27.5119 20.3679C26.5216 18.2432 25.5314 16.1222 24.5373 14.0013C24.488 13.8989 24.4424 13.785 24.3628 13.7054C23.3497 12.6847 22.3329 11.6679 21.244 10.579C20.3448 11.8766 19.51 13.0755 18.6184 14.3617C21.6272 16.5244 24.5714 18.6416 27.6789 20.8725ZM25.2392 13.4625C26.423 15.9553 27.5802 18.3873 28.8285 21.0053C28.9423 20.569 29.0144 20.3527 29.0561 20.1327C29.2838 18.9109 29.5114 17.693 29.7239 16.4675C29.8833 15.5645 30.202 14.6387 30.1147 13.7547C30.0274 12.8631 29.538 12.0132 29.2155 11.1481C29.0675 10.7535 28.8968 10.3665 28.6729 9.82394C27.4626 11.1102 26.3585 12.275 25.2392 13.4625ZM14.7977 27.2922C17.3512 26.1995 19.787 25.1599 22.2191 24.1165C22.2342 24.1089 22.2418 24.0672 22.2418 24.0406C22.2418 24.0179 22.2267 23.9951 22.2115 23.9572C18.755 23.4639 15.2909 22.9707 11.8269 22.4774C11.7965 22.5344 11.7662 22.5951 11.7358 22.652C12.7451 24.181 13.7543 25.7139 14.7977 27.2922ZM36.3826 32.5737C38.128 32.6723 39.7594 32.7672 41.5692 32.8696C40.5107 30.7753 39.5318 28.8289 38.5453 26.8711C38.0445 27.0456 37.6423 27.186 37.2591 27.3188C36.9669 29.0755 36.6862 30.7525 36.3826 32.5737ZM37.8396 26.1578C36.3864 24.9436 35.0661 23.8357 33.7381 22.7316C33.6546 22.6596 33.5294 22.5723 33.4346 22.5837C32.7706 22.6709 32.1142 22.7848 31.363 22.9024C32.1218 24.4997 32.8199 25.9719 33.5332 27.4781C34.9902 27.0342 36.3333 26.6207 37.8396 26.1578ZM7.55466 40.1886C6.94001 38.1777 6.34812 36.2578 5.70311 34.1407C4.64075 36.2578 3.68083 38.1739 2.67159 40.1886C4.35619 40.1886 5.89282 40.1886 7.55466 40.1886ZM17.9962 40.2113C17.6471 38.6747 17.3436 37.2595 16.8959 35.8442C15.4351 36.8118 11.9521 39.7067 11.6448 40.2113C13.7315 40.2113 15.7994 40.2113 17.9962 40.2113ZM27.7206 9.48246C26.1688 8.90196 24.7763 8.37837 23.3421 7.8396C22.8185 8.51496 22.3291 9.14479 21.8738 9.73288C22.8641 10.7042 23.8012 11.6262 24.8029 12.6126C25.7059 11.6375 26.662 10.6131 27.7206 9.48246ZM33.1538 21.7338C32.395 19.6356 31.6969 17.6854 30.9342 15.7618C30.8773 15.7732 30.8166 15.7846 30.7597 15.7959C30.3803 17.8865 30.0047 19.9771 29.6101 22.1511C30.8166 22.0108 31.9169 21.8818 33.1538 21.7338Z" fill="#FFEB61"/>
</svg>
