<svg width="48" height="48" viewBox="0 0 48 48" fill="none" xmlns="http://www.w3.org/2000/svg">
<path d="M17.8292 7.89645C17.7618 7.396 17.6863 6.92352 17.6377 6.44483C17.5407 5.49055 17.5487 4.53626 17.6836 3.58509C17.724 3.29911 17.7699 3.01625 17.8157 2.73339C17.8427 2.56553 18.0072 2.4785 18.134 2.57486C18.9511 3.19343 19.7709 3.80578 20.4856 4.58289C20.4964 4.59532 20.5125 4.60465 20.5368 4.6233C20.5908 4.36841 20.6285 4.11663 20.6986 3.88039C20.8928 3.22141 21.1004 2.56553 21.3027 1.90965C21.3162 1.86924 21.3351 1.82884 21.3539 1.78843C21.4483 1.59571 21.5913 1.57084 21.7207 1.73248C21.9553 2.02778 22.1819 2.32619 22.4084 2.6277C22.5486 2.81421 22.6835 3.01003 22.8264 3.21519C22.8561 3.17789 22.8803 3.15302 22.8992 3.12194C23.2849 2.48782 23.7649 1.95939 24.2881 1.47759C24.4742 1.30352 24.5227 1.31284 24.6926 1.50867C25.1726 2.06508 25.623 2.64945 25.9439 3.34885C25.9547 3.37061 25.9682 3.38615 25.9925 3.42034C26.0356 3.37061 26.0761 3.32709 26.1138 3.28357C26.4536 2.90745 26.7934 2.53134 27.1332 2.15522C27.1683 2.11792 27.2033 2.08062 27.2411 2.04953C27.384 1.92831 27.5215 1.96561 27.5809 2.16144C27.6618 2.43809 27.7319 2.72095 27.7966 3.00692C27.9423 3.65347 28.0636 4.30624 28.1014 4.97455C28.1041 5.01185 28.1148 5.04915 28.1256 5.09888C28.3387 4.93103 28.5382 4.75074 28.754 4.61086C29.3797 4.19744 30.0107 3.79646 30.6445 3.39547C30.8305 3.27735 31.0058 3.38926 31.0112 3.63171C31.0274 4.22231 31.0544 4.81601 31.0328 5.40661C30.9923 6.49766 30.8224 7.56385 30.4961 8.59273C30.4853 8.62382 30.4799 8.6549 30.4665 8.71085C30.5177 8.6922 30.5555 8.68599 30.5878 8.66734C31.1892 8.33163 31.7933 7.99903 32.392 7.65088C32.6994 7.4706 32.9961 7.26545 33.3008 7.07272C33.5058 6.94217 33.6433 7.01677 33.6703 7.27788C33.8348 8.88804 33.4896 10.3024 32.454 11.4431C31.9497 11.9996 31.3456 12.3943 30.7334 12.7642C30.577 12.8575 30.4206 12.9507 30.2723 13.0719C30.4017 13.0409 30.5312 13.0098 30.6606 12.9787C32.009 12.643 33.3709 12.4161 34.7436 12.2451C34.9378 12.2203 35.1319 12.2078 35.3261 12.2047C35.496 12.2016 35.5823 12.3663 35.4987 12.5311C34.8973 13.7061 34.1665 14.7505 33.1687 15.5152C33.1012 15.568 33.0284 15.6084 32.9394 15.6675C33.1012 15.9099 32.9475 16.0467 32.8073 16.1928C31.7205 17.3118 30.4638 17.9708 29.0021 18.092C28.3764 18.1449 27.7508 18.1573 27.1251 18.0672C26.4968 17.9739 25.9547 17.6693 25.4989 17.1595C25.4774 17.1346 25.4558 17.1129 25.4342 17.0911C25.4234 17.1004 25.4126 17.1067 25.4126 17.1129C25.4396 17.9211 25.2293 18.664 24.9704 19.3976C24.6252 20.3612 24.1991 21.2782 23.7379 22.1734C23.7217 22.2045 23.7056 22.2324 23.6894 22.2604C23.5734 22.4438 23.3927 22.4345 23.3091 22.2262C23.1851 21.9154 23.0691 21.5983 22.9559 21.2782C22.6295 20.3487 22.3437 19.4038 22.1522 18.4246C22.0605 17.9584 22.0416 17.489 22.0794 17.0134C22.0821 16.9699 22.0848 16.9264 22.0875 16.8611C21.985 16.945 21.896 17.0196 21.8043 17.088C21.2865 17.489 20.7121 17.6537 20.0972 17.6351C19.0023 17.6009 17.9371 17.3957 16.9339 16.8735C16.0736 16.4259 15.3508 15.7607 14.7333 14.9432C14.6524 14.8375 14.6092 14.7287 14.6874 14.5951C14.7441 14.4956 14.674 14.4552 14.6254 14.3992C14.3719 14.1226 14.1022 13.8615 13.8649 13.5693C13.2878 12.8606 12.8833 12.0182 12.5138 11.1541C12.468 11.0484 12.441 10.9396 12.5138 10.8308C12.5866 10.7251 12.681 10.7531 12.7754 10.7717C14.3315 11.0919 15.8471 11.5861 17.3465 12.1488C17.4598 12.1923 17.5757 12.2327 17.7025 12.2513C17.6512 12.214 17.6027 12.1767 17.5514 12.1394C16.9069 11.6856 16.3001 11.1789 15.7716 10.551C14.9517 9.5781 14.62 8.3969 14.6793 7.06029C14.6928 6.72769 14.7576 6.40131 14.8088 6.07182C14.8438 5.84801 15.0137 5.77652 15.181 5.91018C15.6772 6.30806 16.168 6.71837 16.6723 7.10381C16.9905 7.34937 17.3303 7.56385 17.6593 7.79077C17.7079 7.83428 17.7672 7.86226 17.8292 7.89645ZM25.3614 13.9734C25.445 13.9672 25.5259 13.961 25.6095 13.9547C26.1003 13.9299 26.5723 13.8242 27.0199 13.5631C28.3522 12.7891 29.6062 11.8783 30.7577 10.7811C31.4805 10.091 32.1304 9.32321 32.6563 8.42488C32.7668 8.23527 32.8774 8.04255 32.9853 7.84983C32.9745 7.83739 32.961 7.82185 32.9502 7.80942C32.721 8.027 32.4837 8.23216 32.2625 8.45907C31.6018 9.1336 30.9276 9.78636 30.1995 10.3645C30.1401 10.4112 30.0754 10.4485 30.0134 10.4889C30.0026 10.4733 29.9945 10.4547 29.9837 10.4391C30.6498 9.78636 31.3187 9.13049 31.9848 8.47772C31.9767 8.46218 31.9659 8.44975 31.9578 8.43421C31.9389 8.44353 31.9227 8.44975 31.9039 8.45907C31.618 8.61138 31.3321 8.7637 31.049 8.92223C30.9627 8.97197 30.8791 9.03724 30.8036 9.10563C30.4853 9.39782 30.1725 9.69622 29.8543 9.9853C29.7788 10.0537 29.6871 10.1003 29.6035 10.1563C29.5981 10.1469 29.5927 10.1376 29.5873 10.1314C29.9163 9.79569 30.248 9.45998 30.577 9.12428C30.5689 9.10873 30.5609 9.0963 30.5528 9.08075C30.3586 9.11805 30.1644 9.16779 29.9703 9.18955C29.8381 9.20509 29.7653 9.26415 29.7221 9.41336C29.5684 9.94489 29.2529 10.3334 28.8646 10.6536C28.8295 10.6847 28.7891 10.7096 28.7513 10.7344C29.0587 10.2899 29.4093 9.88583 29.5415 9.30456C29.3419 9.34497 29.1504 9.40092 28.9643 9.47242C28.9131 9.49107 28.8565 9.55945 28.8403 9.6154C28.665 10.2806 28.3036 10.7904 27.8479 11.2225C27.8209 11.2473 27.7885 11.2598 27.7589 11.2784C28.1337 10.7811 28.4681 10.2651 28.6326 9.62162C28.4735 9.68379 28.3225 9.75839 28.1769 9.84232C27.5917 10.1749 27.0928 10.6443 26.6262 11.1572C25.9898 11.8535 25.3668 12.5653 24.7384 13.2709C24.5281 13.5071 24.315 13.7434 24.1074 13.9796C24.075 14.0169 24.0588 14.076 24.0346 14.1257C24.0481 14.1381 24.0588 14.1506 24.0723 14.163C24.6036 13.8273 25.0567 13.361 25.5583 12.9756C26.0572 12.5901 26.5318 12.1674 27.0199 11.7602C27.0334 11.7758 27.0469 11.7882 27.0577 11.8037C27.0199 11.8597 26.9876 11.9281 26.939 11.9716C26.3565 12.4969 25.774 13.0191 25.1888 13.5382C25.0135 13.6936 24.8274 13.8304 24.6441 13.9734C25.3452 13.7496 25.9925 13.3766 26.6181 12.9694C27.2438 12.5622 27.8506 12.1083 28.4654 11.6763C28.4708 11.6887 28.4789 11.698 28.4843 11.7105C27.5539 12.6585 26.4806 13.3455 25.3614 13.9734ZM23.7029 14.1537C23.7217 14.1381 23.7379 14.1226 23.7568 14.1039C23.7271 14.0418 23.7083 13.9734 23.6705 13.9237C23.444 13.6097 23.2094 13.3051 22.9828 12.988C22.4542 12.2513 21.9392 11.5022 21.3998 10.7717C20.9198 10.1221 20.3885 9.52837 19.7359 9.10251C19.6927 9.07454 19.6496 9.04968 19.5794 9.00927C19.7062 9.68379 19.9678 10.2464 20.2779 10.7904C20.2105 10.7438 20.1512 10.6878 20.0999 10.6256C19.7925 10.2246 19.5444 9.77083 19.4446 9.25172C19.3853 8.9471 19.2639 8.79789 19.0239 8.7264C18.9241 8.69532 18.8297 8.64247 18.7111 8.59273C18.792 9.22063 19.0859 9.68067 19.3934 10.1376C19.334 10.1065 19.2828 10.0692 19.2396 10.0257C18.8702 9.66203 18.614 9.21753 18.525 8.65801C18.5169 8.60517 18.4926 8.52746 18.4576 8.51192C18.2203 8.41556 17.9802 8.33474 17.7402 8.25081C17.7348 8.26014 17.7294 8.26946 17.724 8.27879C18.0045 8.6518 18.2877 9.02481 18.5843 9.41647C18.5223 9.38227 18.4684 9.36673 18.4306 9.32943C18.2391 9.13671 18.0342 8.95642 17.867 8.73572C17.5622 8.32852 17.2251 7.97727 16.8071 7.73482C16.6588 7.64778 16.5267 7.52966 16.3864 7.42708C16.4134 7.50168 16.4511 7.56074 16.4943 7.61358C17.0013 8.23527 17.5083 8.85385 18.0126 9.47553C18.0719 9.54702 18.1232 9.63095 18.1771 9.70866C18.1663 9.72109 18.1555 9.73352 18.1474 9.74596C18.1097 9.72109 18.0692 9.69933 18.0396 9.66514C17.6512 9.24239 17.2521 8.82898 16.8772 8.38758C16.5294 7.98038 16.2084 7.53898 15.8713 7.11935C15.75 6.97014 15.6097 6.8427 15.4803 6.70593C15.4668 6.74634 15.4668 6.7681 15.4749 6.78364C15.7958 7.53588 16.1545 8.26324 16.6157 8.91601C17.8184 10.6256 19.2639 12.012 20.8739 13.1776C21.1355 13.3673 21.3998 13.56 21.7207 13.6066C21.9607 13.6408 22.1981 13.7092 22.4354 13.7589C22.4057 13.7061 22.3653 13.6781 22.3275 13.647C21.8205 13.2491 21.3 12.8699 20.8119 12.444C20.4182 12.099 20.0622 11.6949 19.69 11.3157C19.6469 11.2722 19.6253 11.2007 19.5956 11.1416C20.6878 12.1705 21.8097 13.1186 23.0745 13.8211C22.9612 13.6781 22.8291 13.56 22.7077 13.4263C22.1468 12.814 21.5886 12.1954 21.033 11.5768C20.9926 11.5333 20.9791 11.4618 20.9521 11.4027C20.9656 11.3934 20.9764 11.3841 20.9899 11.3717C21.8744 12.3228 22.7833 13.2429 23.7029 14.1537ZM23.5276 2.90746C23.5249 2.90435 23.5222 2.90124 23.5195 2.89502C23.506 2.91367 23.4925 2.93232 23.479 2.95097C22.7752 4.05756 22.3464 5.30404 22.0956 6.63755C22.0902 6.65931 22.0848 6.69349 22.0956 6.70904C22.1873 6.86135 22.279 7.01367 22.3949 7.20017C22.4246 6.97015 22.4435 6.78365 22.4731 6.60025C22.5028 6.41374 22.5352 6.22724 22.5783 6.04695C22.6188 5.86356 22.67 5.68326 22.7212 5.50608C22.7725 5.33512 22.8318 5.16727 22.8884 4.99631C22.8992 4.99942 22.91 5.00563 22.9208 5.00874C22.8965 5.13307 22.8669 5.25742 22.848 5.38486C22.7428 6.01898 22.6403 6.65619 22.5405 7.29342C22.5163 7.45506 22.5513 7.52655 22.6619 7.59805C22.7024 7.31829 22.7428 7.04164 22.786 6.76188C22.7967 6.76499 22.8102 6.76499 22.821 6.7681C22.8588 7.15354 22.7185 7.54209 22.8291 7.95551C22.9559 7.81252 23.0691 7.69751 23.1662 7.56696C23.212 7.50479 23.2525 7.41775 23.2606 7.34004C23.3091 6.83026 23.3469 6.31738 23.3927 5.8076C23.3981 5.733 23.4251 5.6584 23.444 5.58379C23.4575 5.5869 23.4736 5.59001 23.4871 5.59623C23.4602 6.14642 23.4332 6.69661 23.4089 7.24679C23.4224 7.26234 23.4359 7.27788 23.4521 7.29342C23.479 7.2499 23.4979 7.19395 23.5303 7.15976C23.7217 6.96393 23.9105 6.7681 24.1101 6.58781C24.2557 6.45726 24.3123 6.46347 24.4499 6.61268C24.5847 6.75877 24.7061 6.92352 24.8301 7.08205C24.8949 7.16598 24.9542 7.25301 25.0162 7.34004C25.027 7.33693 25.0378 7.33383 25.0486 7.32762C25.0755 6.78675 25.0998 6.24899 25.1268 5.70813C25.1403 5.70813 25.1538 5.70813 25.1699 5.70813C25.1807 5.8076 25.1996 5.91017 25.1969 6.00964C25.1942 6.50699 25.1834 7.00433 25.178 7.50479C25.178 7.55763 25.1672 7.62913 25.1942 7.66332C25.2994 7.80631 25.4153 7.93686 25.5475 8.0985C25.7174 7.74414 25.6149 7.35559 25.6877 6.97636C25.7875 7.25923 25.7444 7.53588 25.7417 7.82185C25.8738 7.71617 25.9223 7.59804 25.9143 7.4364C25.8873 6.97014 25.8657 6.50078 25.8387 6.03452C25.8226 5.7703 25.7929 5.50919 25.7686 5.24498C25.9628 5.93815 26.0545 6.64998 26.0815 7.38045C26.1866 7.26855 26.281 7.15665 26.3619 7.0292C26.397 6.97636 26.4186 6.89244 26.4105 6.83027C26.2621 5.54028 25.9547 4.30935 25.4261 3.15613C25.4153 3.13437 25.4073 3.11261 25.3965 3.09085C25.3884 3.07531 25.3749 3.05976 25.3641 3.04733C25.5124 3.53846 25.6742 4.01716 25.739 4.55802C25.4989 3.89904 25.267 3.26803 25.0351 2.6308C25.0917 3.20586 25.1457 3.76227 25.2023 4.32178C25.1888 4.32489 25.1753 4.32489 25.1618 4.32799C25.1457 4.24407 25.1349 4.16325 25.116 4.07932C24.9973 3.51981 24.8787 2.95719 24.7546 2.40079C24.7357 2.31375 24.6872 2.23603 24.6548 2.15211C24.6602 2.58418 24.6953 2.9976 24.7169 3.41413C24.7411 3.8462 24.7546 4.27827 24.7681 4.71344C24.7708 4.7725 24.7519 4.83467 24.7411 4.89684C24.7223 4.89373 24.7034 4.89373 24.6845 4.89062C24.6198 4.07622 24.5551 3.26181 24.4903 2.44741C24.4769 2.44741 24.4634 2.44741 24.4499 2.45052C24.3744 2.84529 24.2962 3.24317 24.2234 3.63794C24.1505 4.0296 24.0831 4.42125 24.013 4.81291C23.9914 4.80981 23.9726 4.8067 23.951 4.80359C23.9591 4.65749 23.951 4.50829 23.9752 4.3653C24.0831 3.68456 24.2018 3.00693 24.315 2.32619C24.3231 2.27334 24.3285 2.21739 24.3339 2.16454C24.315 2.15833 24.2989 2.15211 24.28 2.14589C24.1586 2.47228 24.0292 2.79555 23.9159 3.12815C23.8053 3.46075 23.711 3.79957 23.6112 4.13217C23.6193 3.59442 23.7514 3.08463 23.9024 2.57174C23.5977 3.16856 23.293 3.76226 22.9882 4.35908C22.9801 4.35286 22.9693 4.34976 22.9612 4.34354C23.1419 3.86174 23.3334 3.38304 23.5276 2.90746ZM25.5583 11.8939C25.5798 11.9063 25.6014 11.9156 25.6257 11.9281C25.6823 11.8255 25.774 11.7291 25.7929 11.6203C25.8199 11.4369 25.8091 11.2442 25.801 11.0546C25.739 9.67757 25.2158 8.51192 24.547 7.41154C24.5119 7.35559 24.4634 7.31207 24.4202 7.26233C24.4148 7.26855 24.4067 7.27477 24.4013 7.28098C24.5632 7.8778 24.725 8.47461 24.8868 9.07143C24.7897 9.1336 24.7331 9.11495 24.7007 8.99994C24.5524 8.44354 24.404 7.88712 24.2557 7.33072C24.2449 7.29031 24.2341 7.2499 24.2234 7.20638C24.1694 7.3245 24.1532 7.44884 24.1101 7.55764C23.9429 7.99903 23.7676 8.44042 23.595 8.87871C23.5815 8.91601 23.5653 8.95331 23.5438 8.98128C23.5303 8.99993 23.4925 9.02481 23.4817 9.01859C23.4629 8.99994 23.4386 8.96264 23.4413 8.94088C23.4629 8.8352 23.4844 8.7264 23.5195 8.62693C23.6543 8.25392 23.7973 7.88712 23.9321 7.51411C23.9618 7.43019 23.986 7.34316 24.013 7.25923C23.9968 7.24369 23.9806 7.22815 23.9645 7.21261C23.9348 7.26234 23.9078 7.31207 23.8755 7.35869C23.6597 7.66953 23.4332 7.97105 23.2336 8.29433C22.6673 9.2082 22.3194 10.2215 22.2331 11.3468C22.2196 11.5115 22.2763 11.6203 22.4192 11.7011C22.4408 11.5675 22.4596 11.4338 22.4812 11.3002C22.492 11.3002 22.5028 11.3002 22.5136 11.3002C22.5244 11.4867 22.5082 11.6825 22.554 11.8535C22.6026 12.0244 22.7131 12.1736 22.7994 12.3321C22.8129 12.3228 22.8264 12.3166 22.8372 12.3073C22.8102 11.2442 22.8129 10.1905 23.3199 9.23929C23.3442 9.30456 23.3523 9.36984 23.3361 9.42579C23.2876 9.59054 23.2255 9.74906 23.1797 9.91692C22.9639 10.666 22.9532 11.4338 23.0071 12.2078C23.0179 12.3695 23.0071 12.5622 23.0799 12.6865C23.2417 12.9632 23.4494 13.2056 23.6381 13.4605C23.6516 13.3704 23.6381 13.2989 23.622 13.2305C23.4548 12.5093 23.4035 11.7789 23.5006 11.0391C23.5303 10.8184 23.595 10.607 23.6489 10.3925C23.6597 10.3459 23.6921 10.3086 23.7137 10.2651C23.7271 10.2713 23.7406 10.2775 23.7514 10.2806C23.6435 10.8401 23.5788 11.4058 23.5869 11.9809C23.595 12.5591 23.835 13.0751 23.897 13.6377C24.3501 12.5684 24.5416 11.4618 24.3744 10.2775C24.4256 10.3272 24.4607 10.3801 24.4742 10.436C24.5011 10.5604 24.5254 10.6878 24.5389 10.8153C24.609 11.524 24.5227 12.2171 24.3528 12.8979C24.3043 13.0906 24.253 13.2833 24.2018 13.476C24.4256 13.2585 24.6279 13.0315 24.8301 12.8015C24.8544 12.7735 24.8679 12.7238 24.8787 12.6803C25.0081 12.0493 25.1133 11.409 25.0701 10.7562C25.0405 10.3334 24.9488 9.91381 24.8895 9.49107C24.8814 9.43511 24.8922 9.37917 24.8949 9.32011C24.9083 9.32011 24.9218 9.32011 24.9353 9.32011C24.9461 9.33565 24.9569 9.35119 24.965 9.36673C24.9919 9.44444 25.0189 9.52215 25.0432 9.60296C25.2886 10.4236 25.2535 11.2597 25.1403 12.099C25.1241 12.2171 25.1106 12.3321 25.0944 12.4503C25.2131 12.357 25.3048 12.2576 25.383 12.1488C25.4153 12.1052 25.4207 12.0368 25.4342 11.9809C25.4666 11.8317 25.4962 11.6794 25.5259 11.5302C25.5367 11.5333 25.5475 11.5364 25.5583 11.5364C25.561 11.6607 25.5583 11.7758 25.5583 11.8939ZM21.54 10.004C21.5535 9.99774 21.5697 9.99463 21.5832 9.98841C21.6587 9.80502 21.7369 9.62162 21.8016 9.43512C21.8124 9.40092 21.7854 9.34186 21.7666 9.30456C21.5832 8.92844 21.3917 8.55543 21.211 8.17621C21.1544 8.05809 21.1193 7.92442 21.0762 7.79698C21.0816 7.79387 21.0897 7.79076 21.0951 7.78765C21.362 8.26946 21.6317 8.75437 21.9068 9.24861C22.0497 9.04346 22.1684 8.8725 21.9985 8.64869C21.9877 8.63315 21.9823 8.61449 21.9769 8.59584C21.7396 7.91199 21.4834 7.23436 21.2757 6.54119C21.122 6.01898 20.9036 5.55892 20.5638 5.17348C20.5395 5.14551 20.5125 5.11754 20.4856 5.09267C20.4802 5.09889 20.4721 5.1051 20.4667 5.11132C20.6177 5.49054 20.766 5.87287 20.9171 6.2521C20.9063 6.25832 20.8982 6.26143 20.8874 6.26765C20.6717 5.82625 20.4721 5.37242 20.2348 4.94346C20.1242 4.74452 19.9435 4.60154 19.7952 4.43369C19.7844 4.44612 19.7709 4.45855 19.7601 4.47099C19.9975 5.27296 20.2348 6.07492 20.4721 6.87689C20.437 6.84892 20.4182 6.81473 20.4074 6.78053C20.1269 5.96613 19.8491 5.15173 19.566 4.33733C19.539 4.25962 19.4931 4.17569 19.4365 4.12906C19.1641 3.90215 18.8837 3.68144 18.6059 3.46386C18.5816 3.4421 18.5493 3.43278 18.4953 3.4048C18.7111 4.48653 18.9187 5.53717 19.1291 6.5847C19.1075 6.59403 19.0886 6.60025 19.0671 6.60957C19.0428 6.5443 19.0131 6.48213 18.9996 6.41374C18.7758 5.41284 18.552 4.40882 18.3335 3.4048C18.3093 3.28669 18.2634 3.20897 18.1501 3.16545C18.1528 3.23694 18.1528 3.29601 18.1582 3.35196C18.3335 5.04604 18.5924 6.72148 19.1075 8.32852C19.1345 8.40934 19.2019 8.47151 19.2504 8.543C19.2639 8.53368 19.2774 8.52124 19.2882 8.51192C19.2073 8.22905 19.1291 7.9493 19.0482 7.66643C19.1965 7.93997 19.3179 8.22594 19.4446 8.50881C19.4716 8.57098 19.5174 8.63625 19.5687 8.66423C20.2186 9.04035 20.7687 9.56567 21.2623 10.1749C21.3243 10.2526 21.3944 10.3272 21.4591 10.4018C21.4726 10.3925 21.4861 10.3832 21.4996 10.377C21.4699 10.2899 21.4456 10.1998 21.4106 10.1159C21.1625 9.51904 20.909 8.92534 20.6636 8.32852C20.6258 8.23527 20.6069 8.13269 20.5773 8.03322C20.5854 8.03011 20.5961 8.02389 20.6042 8.02078C20.9144 8.67977 21.2272 9.34186 21.54 10.004ZM26.343 9.55324C26.6505 9.10252 26.9471 8.66734 27.2438 8.23216C27.2519 8.2819 27.2411 8.31919 27.2249 8.35028C26.9768 8.76991 26.726 9.18644 26.4779 9.60608C26.4536 9.64959 26.4159 9.70866 26.4239 9.74596C26.4752 9.95111 26.5372 10.15 26.6046 10.3707C26.9957 9.7273 27.3732 9.10562 27.7535 8.48083C27.767 8.49016 27.7777 8.49948 27.7912 8.50881C27.7211 8.66734 27.6645 8.83208 27.5809 8.98128C27.3058 9.47552 27.0199 9.96355 26.7422 10.4547C26.699 10.5293 26.6721 10.6132 26.637 10.6909C26.6505 10.7002 26.6613 10.7127 26.6748 10.722C26.7098 10.6878 26.7449 10.6567 26.7799 10.6225C27.2977 10.0817 27.8667 9.63406 28.5248 9.35741C28.727 9.27348 28.8592 9.14292 28.9616 8.93466C29.0722 8.71085 29.2017 8.49948 29.323 8.28189C29.3284 8.285 29.3365 8.29122 29.3419 8.29433C29.234 8.57097 29.1262 8.84452 29.0183 9.12116C29.0345 9.1336 29.0479 9.14603 29.0641 9.15846C29.1154 9.0994 29.1828 9.05278 29.2125 8.98128C29.8138 7.56074 30.2372 6.06871 30.5366 4.53005C30.5716 4.34976 30.5959 4.16636 30.6256 3.98608C30.6094 3.97675 30.5932 3.96743 30.577 3.9581C30.5339 4.01405 30.4692 4.06378 30.4476 4.12906C30.1267 5.13308 29.8138 6.1402 29.4956 7.14422C29.4794 7.19396 29.4552 7.24058 29.4336 7.29032C29.4147 7.28099 29.3985 7.27477 29.3797 7.26544C29.6359 6.22102 29.9729 5.20146 30.2696 4.16325C30.2453 4.16636 30.2318 4.16325 30.2211 4.16947C29.8947 4.37152 29.5657 4.57356 29.2394 4.77872C29.2097 4.79737 29.1882 4.84399 29.172 4.8844C28.9266 5.4377 28.6893 5.99721 28.4385 6.5474C28.3036 6.84581 28.1553 7.13489 28.0124 7.43019C28.0043 7.42397 27.9962 7.42087 27.9854 7.41465C28.3063 6.6189 28.6272 5.82625 28.9616 4.99941C28.7891 5.11753 28.6434 5.22011 28.4978 5.32269C28.4735 5.34134 28.4493 5.36621 28.4331 5.39419C28.2443 5.69881 28.0609 6.00343 27.8694 6.30495C27.802 6.41063 27.7292 6.5101 27.6564 6.61579C27.651 6.60957 27.6429 6.60647 27.6375 6.60025C27.8182 6.26765 28.0016 5.93504 28.1823 5.60244C28.1688 5.59312 28.158 5.58068 28.1445 5.57136C27.9989 5.72989 27.8479 5.88531 27.7049 6.05006C27.6294 6.13709 27.5593 6.23656 27.5081 6.34225C27.0793 7.25612 26.7044 8.20729 26.1893 9.06832C26.1678 9.10251 26.157 9.16779 26.1704 9.20199C26.219 9.317 26.2783 9.42579 26.343 9.55324ZM17.3762 16.5844C17.3735 16.5969 17.3735 16.6124 17.3708 16.6249C17.5002 16.6684 17.6324 16.7119 17.7618 16.7523C17.8427 16.7772 17.929 16.8207 18.0072 16.8145C18.5816 16.7616 19.1291 16.5938 19.6523 16.3171C19.7062 16.2892 19.7628 16.2736 19.8168 16.2518C19.8222 16.2705 19.8276 16.2892 19.8329 16.3047C19.361 16.6622 18.8432 16.8735 18.2715 16.9357C18.5304 17.0072 18.792 17.1098 19.0536 17.1036C19.3098 17.0973 19.5633 16.9792 19.8356 16.9077C19.7278 17.0818 19.5552 17.0787 19.3988 17.1688C19.5956 17.2061 19.7628 17.2341 19.9246 17.1253C20.0972 17.0103 20.2752 16.9108 20.4424 16.7896C20.6339 16.6497 20.8146 16.4881 21.0115 16.3296C21.06 16.4508 20.9899 16.5161 20.9332 16.5565C20.669 16.7554 20.402 16.9419 20.135 17.1346C20.0999 17.1595 20.0622 17.1751 20.0244 17.1937C20.2348 17.2092 20.437 17.2341 20.6339 17.1191C21.122 16.8331 21.5346 16.4353 21.9203 15.997C22.0929 15.798 22.2682 15.6053 22.4435 15.4064C22.3949 15.4033 22.3572 15.4219 22.3221 15.4437C22.0147 15.6457 21.7072 15.8478 21.3971 16.0498C21.3432 16.084 21.2838 16.1058 21.2272 16.1306C21.2191 16.112 21.211 16.0902 21.2029 16.0716C21.6317 15.655 22.1387 15.3722 22.5972 15.0085C21.7854 15.3442 20.9764 15.6799 20.1647 16.0187C20.1593 16.0032 20.1539 15.9908 20.1512 15.9752C20.9494 15.4965 21.7989 15.167 22.6457 14.8189C21.6425 14.9588 20.6312 15.0147 19.6469 15.3069C19.8707 15.1981 20.0999 15.108 20.3292 15.0334C21.1058 14.7847 21.9014 14.7225 22.7024 14.6976C22.8749 14.6914 23.0475 14.6759 23.2201 14.6635C23.2094 14.6106 23.2013 14.5951 23.1932 14.592C23.1635 14.5826 23.1338 14.5795 23.1042 14.5733C21.8043 14.4241 20.5152 14.4832 19.2343 14.7878C18.6679 14.9215 18.0962 15.0365 17.5272 15.1515C17.4112 15.1763 17.2872 15.1546 17.1685 15.1577C17.7294 15.3597 18.2715 15.1421 18.8243 15.0862C18.7974 15.1266 18.7677 15.1577 18.7353 15.1639C18.4144 15.2447 18.0962 15.3722 17.7753 15.3846C17.0121 15.4157 16.2597 15.2758 15.5234 15.0427C15.4884 15.0334 15.4533 15.024 15.421 15.0116C15.4183 15.0271 15.4129 15.0427 15.4102 15.0582C16.0224 15.4375 16.6858 15.6146 17.3842 15.6706C17.2036 15.7172 17.0256 15.7514 16.8476 15.7452C16.6669 15.739 16.4862 15.7017 16.3082 15.6613C16.1356 15.624 15.9684 15.568 15.7662 15.509C16.3352 15.9939 16.9581 16.0964 17.6108 16.0964C17.4274 16.227 17.2224 16.199 17.031 16.1772C16.8314 16.1524 16.6399 16.0809 16.4431 16.028C16.6076 16.1555 16.7775 16.2829 16.9608 16.3762C17.066 16.429 17.1928 16.4508 17.3087 16.4415C17.7888 16.4011 18.258 16.3016 18.7057 16.084C18.7353 16.0685 18.7731 16.0778 18.8082 16.0778C18.8109 16.0933 18.8109 16.1089 18.8136 16.1275C18.3902 16.4912 17.8832 16.5347 17.3762 16.5844ZM30.0943 17.4486C29.6062 17.2838 29.0992 17.1968 28.7297 16.7461C28.7864 16.7461 28.8349 16.771 28.8861 16.7927C29.1855 16.9202 29.4821 17.0507 29.7842 17.1719C30.1968 17.3398 30.5986 17.3087 30.9816 17.0538C31.0112 17.0352 31.0409 17.0134 31.0732 16.9916C30.933 16.9948 30.8063 17.0383 30.6741 17.0507C30.5366 17.0631 30.3963 17.0538 30.2615 17.0383C30.1348 17.0258 30.0026 17.0227 29.9001 16.9233C30.2238 16.9077 30.5474 16.9264 30.8656 16.8984C31.2324 16.8642 31.6423 16.6777 31.7798 16.5285C31.6881 16.5503 31.6045 16.572 31.5182 16.5844C31.1137 16.6528 30.7092 16.6684 30.31 16.544C30.2615 16.5285 30.2184 16.4943 30.1752 16.4694C30.8656 16.5036 31.5317 16.4726 32.1574 16.1244C32.1304 16.1027 32.1061 16.0933 32.0819 16.0995C31.405 16.2581 30.7227 16.2394 30.0404 16.1741C29.6358 16.1368 29.2529 16.0032 28.8834 15.8073C28.8538 15.7918 28.8268 15.7638 28.7971 15.7421C28.8025 15.7296 28.8079 15.7172 28.8133 15.7017C28.9536 15.7452 29.0938 15.7887 29.234 15.8322C29.3716 15.8726 29.5091 15.9161 29.6493 15.9503C29.7923 15.9845 29.9379 16.0156 30.0835 16.0343C30.2237 16.0529 30.3667 16.0529 30.5069 16.0622C30.5069 16.0498 30.5096 16.0374 30.5096 16.0218C30.391 16.0001 30.2696 15.9876 30.1536 15.9503C29.6682 15.7949 29.1774 15.6488 28.7001 15.4654C27.4191 14.9712 26.1111 14.679 24.7573 14.6976C24.6818 14.6976 24.609 14.707 24.5335 14.7101C24.5308 14.7318 24.5281 14.7567 24.5254 14.7785C25.7228 14.9494 26.9067 15.1763 27.9207 15.7732C27.0119 15.5183 26.0248 15.2416 25.0378 14.9681C25.0324 14.9867 25.027 15.0023 25.0216 15.0209C25.8522 15.4281 26.6613 15.8851 27.4164 16.4539C27.411 16.4663 27.4056 16.4757 27.4002 16.4881C26.6127 16.056 25.8253 15.6208 25.0405 15.1888C25.0351 15.2012 25.0297 15.2136 25.0216 15.223C25.5016 15.5835 25.9601 15.9721 26.3484 16.4632C25.9304 16.2177 25.5691 15.8726 25.1888 15.5587C25.2859 15.7203 25.3938 15.8695 25.4882 16.028C25.8387 16.6124 26.281 17.0911 26.7934 17.4859C26.9768 17.6289 27.1898 17.6444 27.4029 17.6662C27.3813 17.632 27.3544 17.6133 27.3274 17.5916C27.082 17.3802 26.8366 17.1719 26.5965 16.9512C26.5399 16.9015 26.5102 16.8114 26.4671 16.743C26.4833 16.7274 26.4968 16.7119 26.5129 16.6964C26.5561 16.7306 26.5992 16.7616 26.6397 16.7958C26.939 17.0631 27.2357 17.3367 27.5404 17.5978C27.6807 17.719 27.8452 17.7221 28.0312 17.6879C27.7049 17.4424 27.7049 17.4424 27.713 17.3522C28.1499 17.7843 28.6515 17.7066 29.1855 17.6289C28.6057 17.461 28.1014 17.2092 27.6753 16.771C27.7454 16.7772 27.8074 16.8051 27.8694 16.8362C28.1661 16.9979 28.4573 17.1782 28.7594 17.3149C28.994 17.4206 29.2421 17.517 29.4902 17.5418C29.6844 17.576 29.892 17.489 30.0943 17.4486ZM23.2201 15.3069C23.0044 15.7079 22.8561 16.14 22.7752 16.6C22.697 17.0538 22.6349 17.5108 22.5675 17.9677C22.5621 17.9677 22.5594 17.9677 22.554 17.9708C22.5783 17.4828 22.5999 16.9948 22.6241 16.5036C22.3679 17.1471 22.5459 19.152 22.8776 19.6524C22.8992 19.6027 22.9181 19.5592 22.9343 19.5157C23.0395 19.2484 23.088 18.9686 23.0853 18.6733C23.0853 18.636 23.1096 18.5956 23.1204 18.5583C23.1419 18.5956 23.177 18.6267 23.1797 18.6671C23.2255 19.0121 23.2013 19.3634 23.0395 19.6494C22.9208 19.8607 22.9451 20.0255 23.0071 20.2213C23.0395 20.3208 23.061 20.4202 23.0907 20.5197C23.1015 20.5539 23.1204 20.585 23.1338 20.6161C23.1473 20.6161 23.1581 20.6161 23.1716 20.6161C23.2309 20.3767 23.2876 20.1343 23.3469 19.898C23.4116 20.1405 23.3819 20.3985 23.2741 20.6098C23.1527 20.8585 23.2983 21.0108 23.3712 21.2036C23.444 20.9829 23.5195 20.7621 23.5896 20.5477C23.6355 20.7684 23.6813 20.9891 23.7271 21.2129C23.7406 21.2129 23.7541 21.2129 23.7676 21.216C23.8 21.1476 23.8323 21.0792 23.8674 21.0139C23.924 20.9082 23.9429 20.815 23.8916 20.6844C23.7946 20.4389 23.7703 20.1747 23.862 19.8949C23.9051 20.1747 23.897 20.4451 24.0238 20.7124C24.1182 20.4793 24.2018 20.2804 24.2773 20.0752C24.2908 20.0379 24.2773 19.9788 24.2611 19.9353C24.102 19.5343 24.0831 19.1178 24.1424 18.692C24.1451 18.6671 24.1613 18.6422 24.191 18.5801C24.28 18.8008 24.226 19.0028 24.2476 19.1893C24.2719 19.382 24.3177 19.5748 24.3555 19.7644C24.8086 18.7728 25.0809 17.7532 24.9003 16.6373C24.8922 16.7772 24.9083 16.9202 24.911 17.0632C24.9137 17.203 24.9029 17.3429 24.8922 17.4797C24.8814 17.6164 24.8598 17.7532 24.8409 17.9117C24.814 17.4672 24.7978 17.0445 24.7573 16.6249C24.7169 16.2052 24.6198 15.798 24.4337 15.425C24.5631 16.1058 24.636 16.7865 24.52 17.4797C24.4229 16.5098 24.4067 15.5183 23.9213 14.6199C23.9105 15.6022 23.8404 16.544 23.7298 17.4828C23.7056 16.5347 23.7217 15.5866 23.8242 14.6013C23.7811 14.651 23.7676 14.6635 23.7595 14.6759C23.7002 14.7785 23.6354 14.881 23.5842 14.9898C23.2552 15.655 23.1231 16.3917 23.0179 17.1346C23.0071 17.2061 22.9936 17.2807 22.9828 17.3522C22.972 17.3491 22.9612 17.346 22.9478 17.3429C22.8776 16.6404 23.0718 15.9783 23.2201 15.3069ZM13.873 11.555C13.935 11.6296 13.9944 11.7105 14.0618 11.7726C14.407 12.0897 14.736 12.4316 15.1054 12.7083C15.963 13.3517 16.8476 13.9454 17.7079 14.5889C17.9668 14.7816 18.1825 14.6759 18.4576 14.6137C18.2823 14.4676 18.134 14.3464 17.9883 14.2252C18.169 14.2998 18.3335 14.4024 18.5007 14.5018C18.5466 14.5298 18.5978 14.5764 18.641 14.5671C18.8648 14.5298 19.0859 14.4769 19.3071 14.4303C19.3098 14.4117 19.3125 14.393 19.3125 14.3744C18.7138 14.0076 18.1151 13.6408 17.5164 13.274C17.6081 13.302 17.6971 13.3362 17.7807 13.3859C18.2796 13.6843 18.7758 13.9827 19.2693 14.2904C19.3853 14.365 19.4958 14.3868 19.628 14.3682C20.0703 14.3029 20.5098 14.2314 20.9548 14.1972C21.4052 14.1599 21.8556 14.1661 22.3383 14.1506C20.9602 13.8211 19.6064 13.4978 18.3227 12.8792C18.32 12.8917 18.3146 12.9041 18.3119 12.9134C18.8082 13.2118 19.3044 13.5102 19.8006 13.8086C19.7925 13.8273 19.7844 13.846 19.779 13.8615C18.5358 13.1528 17.2872 12.4689 15.9334 12.0742C16.0574 12.1612 16.1869 12.242 16.3136 12.3228C16.6157 12.5218 16.6157 12.5218 16.621 12.6212C16.0439 12.2886 15.4749 11.9374 14.8277 11.7944C15.572 12.357 16.3649 12.8264 17.0903 13.4232C16.3217 12.9321 15.5531 12.4347 14.8088 11.897C14.5202 11.6887 14.2101 11.6079 13.873 11.555ZM29.2125 15.3069C29.3473 15.3535 29.4498 15.3784 29.5442 15.4219C29.6655 15.4779 29.768 15.4654 29.8893 15.4001C30.3505 15.1484 30.8144 14.9059 31.2809 14.6666C32.214 14.1879 33.1174 13.647 33.948 12.9538C33.9831 12.9259 34.0155 12.8948 34.0478 12.8637C33.7754 12.8513 33.5166 12.845 33.2738 12.9694C32.4675 13.389 31.6585 13.8055 30.8494 14.2221C30.8063 14.2438 30.7604 14.2594 30.7173 14.278C30.7119 14.2625 30.7065 14.2469 30.7011 14.2314C31.5101 13.8055 32.3192 13.3828 33.1255 12.9569C33.1201 12.9383 33.1147 12.9196 33.1093 12.901C32.7938 12.9911 32.4729 13.072 32.1628 13.1808C31.8499 13.2895 31.5452 13.4294 31.2377 13.5537C31.2324 13.5413 31.227 13.5289 31.2243 13.5133C31.4346 13.302 31.7286 13.2709 31.9632 13.0906C30.5824 13.3455 29.2718 13.8335 27.9773 14.393C27.9719 14.3744 27.9665 14.3588 27.9611 14.3402C28.4978 14.0915 29.0345 13.8459 29.5711 13.5973C28.2416 14.048 26.8662 14.191 25.4962 14.3682C25.5367 14.393 25.5771 14.3961 25.6176 14.3992C25.8037 14.4148 25.9898 14.4272 26.1731 14.4521C26.8312 14.5422 27.4757 14.7101 28.1122 14.9121C28.1796 14.9339 28.2659 14.9214 28.3333 14.8935C28.905 14.6541 29.474 14.4055 30.0458 14.1599C30.1132 14.1319 30.186 14.1164 30.2534 14.0946C30.2534 14.1008 30.2561 14.1071 30.2561 14.1133C29.617 14.393 28.9751 14.6697 28.336 14.9494C28.5355 15.0645 28.7324 15.1453 28.932 15.2136C28.9886 15.2323 29.0587 15.2261 29.1154 15.2043C29.3041 15.1297 29.4929 15.0427 29.679 14.9619C29.6817 14.9712 29.6844 14.9774 29.6871 14.9867C29.5442 15.0862 29.3958 15.1857 29.2125 15.3069ZM31.8985 15.4157C32.8451 14.9961 33.7431 14.4987 34.4011 13.5662C34.3661 13.5817 34.3364 13.6066 34.3067 13.6315C34.0829 13.8086 33.8725 14.02 33.6325 14.1599C33.201 14.4117 32.7534 14.6199 32.3111 14.8437C32.2571 14.8717 32.1897 14.8686 32.1277 14.8779C32.5969 14.5889 33.0716 14.334 33.5327 14.0573C34.0236 13.7651 34.6438 13.1683 34.749 12.9134C34.4658 13.1341 34.2123 13.3828 33.8995 13.5196C33.8887 13.5009 33.8779 13.4823 33.8671 13.4636C34.1341 13.2336 34.4038 13.0067 34.6843 12.7673C34.4281 12.7984 34.2312 12.9507 34.0289 13.0906C33.4869 13.4605 32.9529 13.8553 32.392 14.1785C31.6288 14.6199 30.8413 15.0085 30.0619 15.4188C30.0161 15.4437 29.9703 15.4748 29.9244 15.5027C30.0485 15.5649 30.1671 15.596 30.2831 15.6177C30.3316 15.6271 30.3883 15.6333 30.4341 15.6177C30.6984 15.5214 30.96 15.4188 31.2216 15.3224C31.2593 15.31 31.2998 15.31 31.3402 15.3069C31.3456 15.3224 31.3483 15.338 31.3537 15.3535C31.262 15.4623 31.1272 15.4841 31.0085 15.5369C30.8899 15.5898 30.7631 15.624 30.6202 15.6737C31.2755 15.8229 31.7501 15.8042 32.1816 15.624C32.6077 15.4437 33.3305 14.9494 33.5246 14.6976C32.9961 15.024 32.4891 15.3504 31.8985 15.4157ZM13.5251 12.2855C14.0726 13.2833 14.9436 13.8211 15.7931 14.393C15.243 14.2407 14.7926 13.8708 14.3153 13.5537C14.5283 13.7744 14.7468 13.9827 14.9787 14.1723C15.3482 14.4707 15.7257 14.7567 16.1923 14.8064C16.4377 14.8313 16.6858 14.8406 16.9312 14.8562C16.9339 14.8344 16.9366 14.8127 16.942 14.7909C16.8988 14.7691 16.853 14.7474 16.8098 14.7225C16.6723 14.6417 16.5321 14.5609 16.3972 14.4707C16.3622 14.449 16.3433 14.3961 16.3163 14.3588C16.3271 14.3464 16.3352 14.3371 16.346 14.3246C16.408 14.3557 16.4727 14.3837 16.5348 14.4148C16.7478 14.5267 16.9581 14.6386 17.1712 14.7505C17.3654 14.8531 17.5595 14.7723 17.7564 14.7474C17.7079 14.6914 17.6593 14.6541 17.6081 14.6199C17.0633 14.2438 16.5213 13.8615 15.9738 13.4916C15.2079 12.9725 14.4852 12.385 13.8002 11.7353C13.6438 11.5861 13.4766 11.4587 13.25 11.4058C13.5224 11.6638 13.7732 11.9094 13.9782 12.2109C13.6653 12.0337 13.4091 11.7757 13.1637 11.5022C13.7813 12.556 14.6982 13.1807 15.6286 13.79C15.6017 13.8086 15.5801 13.8211 15.5639 13.8149C14.8007 13.4481 14.113 12.9569 13.5251 12.2855ZM21.4888 2.78623C21.4807 2.78312 21.4699 2.78312 21.4618 2.78001C21.4349 2.91678 21.3917 3.05045 21.3809 3.19032C21.3243 3.93945 21.2757 4.68857 21.2272 5.4377C21.2245 5.475 21.2218 5.52784 21.2407 5.55271C21.362 5.71124 21.4888 5.86356 21.6371 6.04695C21.6425 5.95681 21.6479 5.91017 21.6452 5.86355C21.6344 5.65528 21.6209 5.44703 21.6048 5.23876C21.5967 5.12375 21.6371 5.07402 21.7396 5.08023C21.7639 5.18903 21.7854 5.29472 21.8043 5.37554C21.9985 4.94657 22.1873 4.5114 22.3868 4.08244C22.4866 3.86485 22.4947 3.86795 22.3599 3.68145C22.43 3.70632 22.4839 3.72807 22.5352 3.74672C22.6107 3.6659 22.5945 3.58509 22.5459 3.51359C22.3491 3.23694 22.1495 2.96341 21.9499 2.68987C21.9472 2.68676 21.9365 2.69298 21.9014 2.7023C22.0012 3.25871 22.101 3.812 22.2007 4.3684C22.19 4.37151 22.1765 4.37463 22.1657 4.37463C21.9365 3.74673 21.8259 3.08153 21.6991 2.41944C21.6857 2.42254 21.6722 2.42565 21.6587 2.42876C21.656 2.99138 21.656 3.554 21.6533 4.11974C21.6344 4.11974 21.6155 4.11974 21.5967 4.12285C21.5589 3.68145 21.5238 3.23384 21.4888 2.78623ZM27.1197 13.7434C27.3463 13.7278 27.5701 13.6874 27.775 13.5631C28.4277 13.1652 29.083 12.7704 29.7275 12.357C30.871 11.6234 31.7771 10.607 32.4405 9.30767C32.5241 9.14293 32.5996 8.97196 32.6778 8.80411C32.6671 8.79789 32.659 8.78857 32.6482 8.78235C31.9686 9.91381 31.0732 10.7873 30.1294 11.5986C29.1855 12.4161 28.1877 13.1403 27.1197 13.7434ZM20.7067 13.3828C18.7461 11.8162 16.9393 10.0879 15.661 7.71306C15.6556 7.73481 15.6529 7.74725 15.6529 7.75347C15.6664 7.79698 15.6799 7.83739 15.6933 7.8778C16.1626 9.20198 16.8584 10.3366 17.8157 11.2535C18.5466 11.9529 19.3502 12.528 20.1431 13.1217C20.3157 13.246 20.5206 13.2958 20.7067 13.3828ZM27.2519 2.77379C27.2411 2.77068 27.2303 2.76758 27.2168 2.76758C27.1979 2.81109 27.1791 2.85462 27.1629 2.89813C26.9498 3.50116 26.7368 4.10419 26.5264 4.70722C26.5156 4.74141 26.5076 4.78805 26.5183 4.82224C26.61 5.13619 26.7044 5.45014 26.8069 5.78274C26.8285 5.68948 26.8393 5.61177 26.8662 5.54338C26.8824 5.50297 26.9283 5.47811 26.9606 5.44392C26.9822 5.48744 27.0226 5.53406 27.0199 5.57136C27.0065 5.69258 26.9714 5.81382 26.9498 5.93505C26.9283 6.0656 26.9148 6.19926 26.8986 6.32981C26.9175 6.33914 26.9336 6.35157 26.9525 6.3609C27.055 6.24899 27.1629 6.14331 27.2573 6.02208C27.3058 5.96302 27.3544 5.87599 27.357 5.80139C27.384 5.1797 27.4029 4.55802 27.4191 3.93634C27.4245 3.68456 27.411 3.43278 27.4083 3.17789C27.4002 3.17789 27.3921 3.17789 27.3867 3.17789C27.2842 3.60996 27.1818 4.04513 27.0793 4.4772C27.0631 4.47409 27.0469 4.46787 27.0307 4.46476C27.1035 3.89903 27.1764 3.33641 27.2519 2.77379ZM18.9646 8.37515C18.4818 6.88622 18.2149 5.35999 18.045 3.80268C18.0288 3.84309 18.018 3.88349 18.018 3.9239C18.0018 4.60154 17.9506 5.27917 17.9829 5.95369C18.0153 6.622 18.1313 7.2841 18.2095 7.9493C18.2256 8.07674 18.2823 8.15445 18.4144 8.14823C18.3632 7.90888 18.3119 7.67887 18.2688 7.44574C18.2256 7.21261 18.1879 6.97636 18.1555 6.74323C18.1205 6.50699 18.0881 6.27076 18.0665 6.03452C18.045 5.80449 18.0369 5.57447 18.0234 5.34445C18.0369 5.34445 18.0477 5.34134 18.0611 5.34134C18.0692 5.38796 18.08 5.43459 18.0881 5.48432C18.2283 6.27386 18.3794 7.06029 18.5088 7.85294C18.5574 8.14824 18.6706 8.32852 18.9295 8.37515C18.9295 8.37515 18.9349 8.37204 18.9646 8.37515ZM29.3419 9.04345C29.412 9.0248 29.4606 9.00304 29.5091 9.00304C29.6736 8.99683 29.7491 8.89114 29.7977 8.72018C29.9595 8.15445 30.1348 7.59183 30.2939 7.02299C30.3802 6.71215 30.4476 6.39509 30.5231 6.08114C30.5393 6.08425 30.5528 6.09047 30.5689 6.09358C30.4826 6.56295 30.4125 7.03853 30.3047 7.50169C30.1968 7.96795 30.0485 8.42177 29.919 8.88492C30.0377 8.89736 30.0916 8.83208 30.1186 8.71396C30.2076 8.35028 30.3101 7.9897 30.391 7.62291C30.6094 6.65309 30.666 5.65839 30.6849 4.6606C30.6849 4.63573 30.6795 4.61086 30.6768 4.586C30.3883 6.13088 29.9595 7.61048 29.3419 9.04345ZM22.2358 8.73883C22.3733 8.55543 22.4947 8.39691 22.6107 8.23216C22.6295 8.2073 22.6214 8.1358 22.6053 8.10161C22.252 7.42708 21.8663 6.78053 21.3998 6.19926C21.3728 6.16507 21.3432 6.13709 21.3135 6.106C21.6128 6.98879 21.8313 7.89956 22.2358 8.73883ZM26.0437 8.97196C26.521 8.17931 26.8581 7.33383 27.2195 6.50078C27.1925 6.50389 27.1737 6.51632 27.1602 6.53186C26.637 7.07584 26.1731 7.68508 25.7255 8.30987C25.7066 8.33785 25.6958 8.40002 25.7093 8.42488C25.8118 8.60206 25.9196 8.77302 26.0437 8.97196ZM16.0763 9.65581C15.6502 8.74505 15.3077 7.8063 15.0866 6.8054C15.0623 7.04474 15.0569 7.28099 15.065 7.51722C15.0785 7.96794 15.1594 8.39068 15.4291 8.74815C15.6529 9.04345 15.8605 9.3543 16.0763 9.65581ZM33.3547 7.97105C33.3494 7.97416 33.3413 7.97416 33.3359 7.97727C33.1525 8.4311 32.988 8.89425 32.783 9.33565C32.5781 9.78015 32.3354 10.1998 32.1088 10.6319C32.2544 10.4858 32.4001 10.3366 32.5376 10.1718C32.8666 9.77704 33.2199 9.40092 33.2631 8.80411C33.2819 8.52435 33.3224 8.2477 33.3547 7.97105ZM26.9768 2.99449C26.9336 3.01936 26.9094 3.02868 26.8932 3.04733C26.6748 3.28668 26.4563 3.52914 26.2379 3.76848C26.1678 3.84619 26.1678 3.92079 26.2325 3.9985C26.281 3.98918 26.3242 3.97986 26.3673 3.96743C26.37 3.97675 26.3727 3.98296 26.3781 3.99229C26.3403 4.02648 26.3026 4.05756 26.254 4.09797C26.3269 4.30002 26.397 4.50207 26.4671 4.70101C26.4752 4.6979 26.486 4.69168 26.4941 4.68857C26.6532 4.13216 26.8096 3.57577 26.9768 2.99449ZM23.1446 8.09228C23.1365 8.08606 23.1284 8.07674 23.1204 8.07052C23.088 8.1016 23.0556 8.13269 23.0287 8.16688C22.4003 8.93466 22.0821 9.8734 21.9149 10.893C21.8879 11.0546 21.9715 11.1323 22.0875 11.2287C22.1765 10.0506 22.5405 9.01859 23.1446 8.09228ZM25.9709 11.4711C26.1219 11.3623 26.2055 11.2473 26.1678 11.0546C26.1597 11.0111 26.157 10.9676 26.1516 10.9209C26.0491 9.97909 25.8333 9.08698 25.3129 8.32852C25.2751 8.27257 25.2427 8.21662 25.2158 8.1731C25.4019 8.6891 25.6122 9.20509 25.7767 9.73973C25.9439 10.2868 25.979 10.865 25.9709 11.4711ZM31.1622 11.5271C30.6984 11.8814 30.248 12.242 29.7788 12.5715C29.3095 12.901 28.8214 13.1963 28.3306 13.5133C28.932 13.4854 30.9087 12.0928 31.1622 11.5271ZM19.5498 12.9818C18.6221 12.2638 17.7187 11.5084 16.915 10.607C16.9015 10.6256 16.888 10.6474 16.8745 10.666C17.6377 11.6297 18.463 12.5 19.5498 12.9818ZM30.9627 12.1394C31.7744 11.6234 32.4999 11.0049 32.9421 10.035C32.3246 10.7873 31.6692 11.496 30.9627 12.1394ZM15.2699 8.89425C15.607 9.8765 16.2165 10.5914 16.9581 11.1789C16.3675 10.4453 15.7796 9.70554 15.2699 8.89425ZM21.1787 3.48873C21.176 3.49495 21.1652 3.5167 21.1598 3.54157C21.0654 4.00783 20.971 4.47099 20.882 4.93725C20.8523 5.08645 20.9279 5.22322 21.0924 5.3289C21.122 4.701 21.1517 4.08865 21.1787 3.48873ZM27.5917 3.80578C27.5836 3.80889 27.5782 3.8089 27.5701 3.81201C27.5539 4.45545 27.5377 5.09578 27.5215 5.74544C27.6968 5.64286 27.7697 5.49987 27.7481 5.31025C27.74 5.24187 27.7346 5.17038 27.7292 5.10199C27.6861 4.66992 27.6375 4.23785 27.5917 3.80578ZM21.0762 17.0942C21.6803 16.8456 22.1306 16.37 22.4273 15.6923C21.9742 16.1648 21.5185 16.6342 21.0762 17.0942ZM25.2508 15.9566C25.4261 16.656 25.8495 17.0911 26.3862 17.4051C25.9493 16.9885 25.5879 16.485 25.2508 15.9566ZM22.3167 5.01496C22.2978 5.03672 22.2843 5.04604 22.2817 5.05847C22.1576 5.48432 22.0308 5.91329 21.9122 6.34225C21.9014 6.38576 21.9257 6.44482 21.9338 6.49455C21.9446 6.49145 21.9526 6.49145 21.9634 6.48834C22.0794 6.00343 22.1981 5.51852 22.3167 5.01496ZM23.533 21.7009C23.5896 21.5672 23.6732 21.4553 23.6759 21.3434C23.6786 21.2098 23.6112 21.073 23.5761 20.9331C23.5438 21.0388 23.5276 21.16 23.4763 21.2502C23.3819 21.4149 23.444 21.5361 23.533 21.7009ZM26.5723 6.73701C26.6505 6.65308 26.6532 6.64998 26.5291 6.06249C26.4806 5.83247 26.424 5.60245 26.37 5.37554C26.3592 5.37864 26.3484 5.38175 26.3403 5.38486C26.4159 5.82936 26.4941 6.27697 26.5723 6.73701ZM21.7288 10.7748C21.7369 10.7717 21.745 10.7686 21.7531 10.7655C21.8367 10.4112 21.923 10.0568 22.0066 9.69933C21.9958 9.69623 21.9823 9.69001 21.9715 9.6869C21.8798 10.004 21.7854 10.321 21.6991 10.6381C21.6857 10.6785 21.718 10.7313 21.7288 10.7748ZM26.3269 11.0235C26.3457 11.0235 26.3646 11.0204 26.3808 11.0204C26.3997 10.6754 26.2891 10.3552 26.1974 10.0319C26.2433 10.3614 26.2837 10.694 26.3269 11.0235Z" fill="#FFEB61"/>
<path d="M22.2464 17.7812C20.3343 18.263 18.7675 20.0752 18.452 22.3195C18.2875 23.4851 18.425 24.6819 18.8646 25.748C19.3069 26.8142 20.0539 27.6628 20.8063 28.4461C21.5425 29.2139 22.276 29.9724 22.9125 30.852C23.5166 31.6851 24.0397 32.5959 24.4874 33.5501C25.3989 35.4898 25.9895 37.647 26.208 39.8416C26.4534 42.3096 26.2484 44.8119 25.5527 47.165C25.4124 47.6406 26.0651 47.8426 26.2026 47.3701C27.3946 43.3261 27.1896 38.8033 25.7711 34.8681C25.0672 32.916 24.0802 31.1038 22.8208 29.562C21.4805 27.9239 19.5765 26.6495 19.1423 24.2933C18.6569 21.6574 20.1671 19.096 22.4244 18.5272C22.8505 18.4246 22.6698 17.6755 22.2464 17.7812Z" fill="#FFEB61"/>
<path d="M27.9938 23.1493C27.9075 23.0747 27.8508 23.0437 27.8212 22.9939C27.7888 22.9318 27.778 22.851 27.7618 22.7764C27.6135 22.1391 27.2899 21.6822 26.7397 21.4584C26.6265 21.4117 26.5159 21.3682 26.5186 21.1911C26.5213 21.0108 26.6427 21.0077 26.7478 20.9673C27.3142 20.7528 27.7106 20.3425 27.8778 19.6679C27.9075 19.5436 27.956 19.4286 28.0854 19.4348C28.2149 19.441 28.2526 19.5529 28.2769 19.6835C28.3929 20.3704 28.7623 20.8025 29.326 21.0294C29.4446 21.0761 29.5255 21.1444 29.5282 21.2936C29.5282 21.4491 29.4177 21.4677 29.3206 21.4957C28.7111 21.6853 28.3497 22.1578 28.161 22.8354C28.1313 22.938 28.0612 23.025 27.9938 23.1493ZM27.9857 22.021C28.2257 21.763 28.4819 21.4864 28.7435 21.2004C28.4441 21.0201 28.2095 20.7434 28.0827 20.4108C27.8319 20.6906 27.5838 20.9673 27.36 21.219C27.565 21.4801 27.7834 21.7568 27.9857 22.021Z" fill="#FFEB61"/>
<path d="M17.7508 19.4037C17.7293 19.4255 17.6861 19.5001 17.6295 19.5187C17.0874 19.6928 16.7314 20.0689 16.5966 20.7155C16.5804 20.787 16.4806 20.8709 16.4132 20.8802C16.362 20.8864 16.2784 20.7932 16.2514 20.7217C16.1786 20.5414 16.1462 20.3393 16.0653 20.1653C15.9143 19.8358 15.6797 19.612 15.3615 19.5156C15.2455 19.4814 15.1403 19.4317 15.1457 19.2607C15.1511 19.1022 15.2536 19.068 15.3615 19.0245C15.8064 18.8411 16.13 18.5209 16.2595 17.977C16.2676 17.9397 16.273 17.8961 16.2945 17.8744C16.3539 17.8153 16.4186 17.7283 16.4806 17.7283C16.54 17.7283 16.6209 17.8122 16.6532 17.8837C16.7018 17.9863 16.7018 18.1137 16.7422 18.2225C16.9121 18.6639 17.198 18.9592 17.5998 19.1053C17.7427 19.155 17.7589 19.1799 17.7508 19.4037ZM16.9067 19.3229C16.7557 19.1364 16.5777 18.9126 16.4564 18.7603C16.3215 18.9126 16.1327 19.1271 15.9601 19.3229C16.0788 19.469 16.2595 19.6928 16.3997 19.8669C16.5804 19.6679 16.7746 19.4628 16.9067 19.3229Z" fill="#FFEB61"/>
<path d="M29.0238 45.418C28.9833 45.3589 28.924 45.3061 28.9051 45.2377C28.808 44.8647 28.6624 44.529 28.3765 44.299C28.2714 44.215 28.1419 44.1653 28.0367 44.0783C27.972 44.0254 27.8938 43.9322 27.8911 43.8576C27.8911 43.7861 27.972 43.671 28.0367 43.6462C28.4871 43.469 28.8026 43.1457 28.9671 42.6266C28.9914 42.5489 29.0912 42.4463 29.1451 42.4557C29.2072 42.465 29.2908 42.5738 29.3096 42.6577C29.4175 43.1799 29.7142 43.5032 30.1268 43.7021C30.2212 43.7488 30.2994 43.7861 30.294 43.9259C30.2886 44.0565 30.2158 44.1155 30.1187 44.1497C29.6521 44.3238 29.3636 44.6968 29.2287 45.2315C29.2045 45.3434 29.1667 45.4055 29.0238 45.418ZM29.5011 43.898C29.3986 43.7612 29.2422 43.5498 29.0966 43.3478C28.9321 43.5187 28.7595 43.699 28.6381 43.8296C28.7865 44.0192 28.951 44.2275 29.0831 44.3953C29.2072 44.2461 29.3744 44.0503 29.5011 43.898Z" fill="#FFEB61"/>
<path d="M33.9992 5.09251C33.4437 5.07076 33.0203 4.54232 33.0392 3.89266C33.0581 3.26787 33.5273 2.77364 34.0801 2.79851C34.6357 2.82337 35.0591 3.3487 35.0402 3.98592C35.0213 4.62936 34.5629 5.11427 33.9992 5.09251ZM34.0208 4.69464C34.3714 4.70396 34.6815 4.36515 34.6869 3.96727C34.6923 3.5725 34.4038 3.22436 34.0586 3.21503C33.7053 3.20571 33.3925 3.53831 33.3871 3.93307C33.3844 4.34338 33.6675 4.68531 34.0208 4.69464Z" fill="#FFEB61"/>
<path d="M20.7716 25.0859C20.7635 25.4496 20.5316 25.7138 20.2295 25.7076C19.914 25.7013 19.6767 25.4153 19.6848 25.0548C19.6929 24.6942 19.9383 24.4238 20.243 24.4362C20.5612 24.4486 20.7797 24.716 20.7716 25.0859ZM20.483 25.0796C20.4884 24.9149 20.3779 24.775 20.2322 24.7719C20.1001 24.7688 19.9841 24.8994 19.976 25.0641C19.9679 25.2257 20.0731 25.3656 20.2107 25.3687C20.359 25.3718 20.4776 25.2475 20.483 25.0796Z" fill="#FFEB61"/>
<path d="M22.6837 36.6399C22.0931 36.6212 21.6427 36.04 21.6643 35.3344C21.6886 34.6163 22.1444 34.1252 22.7727 34.1407C23.3687 34.1563 23.8245 34.7065 23.811 35.3903C23.7975 36.1146 23.3067 36.6585 22.6837 36.6399ZM23.2285 35.3717C23.2366 35.0733 23.0181 34.8246 22.7376 34.8153C22.4734 34.8059 22.2549 35.0577 22.2495 35.3717C22.2441 35.6887 22.4302 35.9218 22.6972 35.9343C22.9992 35.9529 23.2204 35.7167 23.2285 35.3717Z" fill="#FFEB61"/>
<path d="M14.5148 4.07611C14.4285 4.00151 14.3718 3.97043 14.3422 3.92069C14.3098 3.85852 14.299 3.77771 14.2828 3.70311C14.1345 3.06589 13.8109 2.60894 13.2607 2.38514C13.1475 2.33851 13.0369 2.295 13.0396 2.11782C13.0423 1.93753 13.1637 1.93442 13.2688 1.89401C13.8352 1.67953 14.2316 1.26922 14.3988 0.5947C14.4285 0.470363 14.477 0.355352 14.6064 0.361569C14.7359 0.367786 14.7736 0.479685 14.7979 0.610238C14.9139 1.2972 15.2833 1.72927 15.847 1.95618C15.9656 2.00281 16.0465 2.07119 16.0492 2.22039C16.0492 2.37581 15.9387 2.39447 15.8416 2.42245C15.2321 2.61206 14.8707 3.08454 14.682 3.76217C14.6523 3.86786 14.5822 3.95178 14.5148 4.07611ZM14.5067 2.94777C14.7467 2.68977 15.0029 2.41312 15.2645 2.12714C14.9651 1.94686 14.7305 1.6702 14.6037 1.3376C14.3529 1.61736 14.1048 1.89401 13.881 2.14579C14.0887 2.4069 14.3044 2.68666 14.5067 2.94777Z" fill="#FFEB61"/>
</svg>
