<svg width="48" height="48" viewBox="0 0 48 48" fill="none" xmlns="http://www.w3.org/2000/svg">
<path d="M26.0961 12.1428L26.0962 12.1427C27.7339 9.00466 31.5323 7.27671 34.9754 8.10752L34.9757 8.10758C36.2166 8.4109 37.2515 9.02808 38.0473 10.023L37.9692 10.0854L38.0473 10.023C39.2337 11.5066 40.4259 12.9881 41.6177 14.4692C42.248 15.2525 42.8783 16.0358 43.5075 16.8191C43.5076 16.8191 43.5076 16.8192 43.5077 16.8193L43.4297 16.8819C43.5629 17.0468 43.6915 17.2117 43.8017 17.39L26.0961 12.1428ZM26.0961 12.1428C24.4907 15.2226 25.093 19.0742 27.5998 21.7501C27.8518 22.0192 28.1274 22.2715 28.3991 22.5203C28.509 22.6209 28.6183 22.721 28.7252 22.8214C28.7215 22.8296 28.7179 22.8374 28.7142 22.8447C28.1483 22.7289 27.5777 22.6133 27.007 22.506L27.0068 22.506C24.663 22.0701 22.2894 21.9248 19.923 21.7801C19.0644 21.7275 18.2068 21.6751 17.3519 21.6088L17.3518 21.6088C14.6833 21.4041 12.1215 20.9378 10.0485 19.1243C9.95698 19.0432 9.81737 18.9643 9.68834 18.9145C9.62335 18.8893 9.55647 18.8698 9.49591 18.862C9.44124 18.855 9.36726 18.8541 9.30962 18.8946M26.0961 12.1428L6.65127 33.587M6.65127 33.587L6.65126 33.587C5.21603 30.8148 4.46956 27.8523 4.0874 24.796L4.08738 24.7958C4.07788 24.7188 4.06802 24.6413 4.05812 24.5634C4.01568 24.2299 3.97241 23.8898 3.95359 23.5502L3.95359 23.5501C3.95018 23.488 3.94031 23.4229 3.92948 23.3513C3.92677 23.3334 3.92401 23.3152 3.92127 23.2965C3.90808 23.2064 3.89585 23.1076 3.90136 23.0119C3.90695 22.9149 3.93101 22.8151 3.99495 22.7265C4.05913 22.6376 4.15657 22.5694 4.29179 22.5231C4.4274 22.476 4.54586 22.4685 4.65069 22.4983C4.75543 22.528 4.83462 22.5914 4.89766 22.6641C4.95965 22.7356 5.01001 22.8209 5.05505 22.8995C5.06054 22.9091 5.06596 22.9186 5.07132 22.928C5.11155 22.9985 5.14843 23.0631 5.19025 23.1199L5.19061 23.1204C5.34162 23.3282 5.48994 23.5369 5.63784 23.7449C6.09598 24.3895 6.55009 25.0284 7.06779 25.6179L7.06808 25.6182C7.90157 26.5757 8.99682 27.1671 10.2768 27.4129L10.2778 27.4131C10.3681 27.4314 10.4634 27.4379 10.5738 27.4412C10.6114 27.4423 10.6515 27.4431 10.6936 27.4439C10.7224 27.4444 10.7522 27.445 10.7828 27.4457C10.7563 27.3882 10.7311 27.333 10.7066 27.2796C10.6296 27.1111 10.5607 26.9605 10.4856 26.8119L10.4855 26.8118C9.34265 24.5398 8.89942 22.1212 8.93174 19.617L8.93175 19.6162C8.93445 19.4854 8.97943 19.341 9.0452 19.2145C9.11081 19.0884 9.20285 18.9691 9.30962 18.8946M6.65127 33.587C7.97647 36.1455 9.80348 38.2704 12.4336 39.6725M6.65127 33.587L4.18663 24.7836C4.5678 27.832 5.31179 30.7823 6.74007 33.541C8.05812 36.0857 9.87217 38.1938 12.4807 39.5842M9.30962 18.8946C9.30952 18.8947 9.30943 18.8948 9.30933 18.8948L9.36699 18.9765L9.30982 18.8945C9.30976 18.8945 9.30969 18.8946 9.30962 18.8946ZM12.4807 39.5842L12.4336 39.6725M12.4807 39.5842L12.4337 39.6725C12.4337 39.6725 12.4336 39.6725 12.4336 39.6725M12.4807 39.5842C13.808 40.2929 15.1857 40.7073 16.7472 40.6895L12.4336 39.6725M15.3648 32.2619C14.01 31.3706 12.8573 30.2831 11.9067 28.9952C11.8998 28.9858 11.893 28.9764 11.8862 28.967C11.6835 28.6884 11.5014 28.4381 11.057 28.4381M15.3648 32.2619L15.3098 32.3454C15.3098 32.3454 15.3098 32.3454 15.3099 32.3455M15.3648 32.2619L15.3099 32.3455M15.3648 32.2619L15.3099 32.3455M15.3099 32.3455C13.9454 31.4478 12.784 30.3522 11.8262 29.0545L11.8259 29.0541C11.8198 29.0457 11.8137 29.0375 11.8078 29.0292C11.7073 28.8913 11.6217 28.7737 11.5123 28.686C11.4016 28.5973 11.2641 28.5381 11.057 28.5381M15.3099 32.3455C17.5469 33.8197 20.05 34.4155 22.6928 34.55L15.3099 32.3455ZM11.057 28.5381C11.0572 28.5381 11.0573 28.5381 11.0574 28.5381L11.057 28.4381M11.057 28.5381V28.4381M11.057 28.5381C8.80041 28.547 7.12188 27.4431 5.72807 25.8568L5.72732 25.856C5.63562 25.7492 5.54201 25.6381 5.43299 25.5088C5.38357 25.4502 5.33099 25.3879 5.27399 25.3205C5.77414 28.5794 6.65927 31.5311 8.32687 34.2282L8.32695 34.2283C9.71775 36.4851 11.6032 38.2079 14.1255 39.233L11.057 28.4381M23.0527 34.4145L23.1161 34.4919C23.1163 34.4917 23.1165 34.4915 23.1167 34.4914C23.1169 34.4911 23.1172 34.4909 23.1174 34.4907L23.0527 34.4145ZM23.0527 34.4145C23.1997 34.2942 23.3558 34.1248 23.3834 33.9599M23.0527 34.4145L23.3834 33.9599M23.3834 33.9599L23.4819 33.9768C23.4819 33.9767 23.482 33.9765 23.482 33.9764C23.4915 33.9205 23.4743 33.8653 23.4546 33.8227C23.4337 33.7774 23.4035 33.7323 23.3696 33.6916C23.3041 33.6127 23.2112 33.5335 23.119 33.5005L23.3834 33.9599ZM38.384 32.2569L38.384 32.2567C38.4419 31.6606 38.3399 31.1215 38.0855 30.5844L38.0853 30.5841C37.395 29.112 36.3637 27.9076 35.0524 26.9179L35.0524 26.9179C32.5988 25.0636 29.7546 24.1317 26.7315 23.5717C24.4932 23.157 22.232 23.0219 19.9631 22.8862C19.0685 22.8328 18.1727 22.7792 17.2766 22.7084L17.2766 22.7084C14.7532 22.5077 12.3131 22.0302 10.1416 20.6366C10.1375 20.6368 10.1317 20.6374 10.1234 20.6386C10.1209 20.639 10.1184 20.6394 10.1159 20.6398C10.0593 22.2954 10.4568 24.1823 11.3902 26.0809L11.3902 26.081C12.493 28.33 13.9417 30.0892 15.7602 31.3224C17.5785 32.5554 19.7717 33.266 22.3693 33.4099C22.3693 33.4099 22.3693 33.4099 22.3694 33.4099L22.3638 33.5098C22.4128 33.5125 22.4623 33.5143 22.512 33.5161L38.384 32.2569ZM38.384 32.2569C38.1981 34.2019 37.3734 35.8488 36.045 37.288L38.384 32.2569ZM41.1266 33.2354L41.1266 33.2353C41.9375 30.98 41.6441 28.8701 40.2751 26.8906C39.3661 25.5807 38.1692 24.5506 36.8347 23.6637C36.3399 23.3359 35.835 23.0204 35.3289 22.7042C35.2445 22.6514 35.1601 22.5987 35.0757 22.5459C34.4855 22.1765 33.8959 21.8033 33.3244 21.4074M41.1266 33.2354L34.6925 9.17501C35.646 9.42499 36.4613 9.87454 37.0741 10.6298C38.9799 12.9828 40.8811 15.3358 42.7823 17.6933C42.8717 17.806 42.9549 17.9255 43.02 18.0476L43.02 18.0476C43.1088 18.2138 43.1422 18.3785 43.1218 18.5217C43.1016 18.6627 43.0286 18.7897 42.8905 18.8854L42.8904 18.8855C42.6726 19.0371 42.3307 19.0946 42.0333 19.0816C41.9603 19.0785 41.8759 19.0376 41.7757 18.9676C41.7271 18.9335 41.6783 18.8953 41.6279 18.8555L41.6174 18.8472C41.5712 18.8106 41.5234 18.7729 41.4764 18.7393L41.4762 18.7391C41.3751 18.667 41.2739 18.5949 41.1727 18.5229C40.1671 17.8065 39.164 17.092 38.1761 16.3517L38.176 16.3516C37.6834 15.9839 37.1674 15.7839 36.5286 15.7747C35.9301 15.7659 35.3219 15.6867 34.7407 15.5501C34.0531 15.386 33.4939 15.1067 33.0821 14.6974C32.6711 14.289 32.4007 13.7449 32.3 13.0395L32.3 13.0394C32.2536 12.7149 32.1572 12.476 31.9477 12.3747C31.7446 12.2765 31.4768 12.3303 31.153 12.4618L31.153 12.4618C29.4935 13.1362 28.6433 14.8493 29.0867 16.6165L29.0868 16.6169C29.3625 17.7005 29.9191 18.6451 30.7566 19.3942L30.7567 19.3943C31.5636 20.1148 32.4303 20.7902 33.3244 21.4074M41.1266 33.2354C40.3047 35.5311 38.7433 37.2068 36.5851 38.4C36.5559 38.4155 36.5222 38.4279 36.4702 38.4438C36.5651 38.3388 36.6547 38.2401 36.7402 38.1459C36.9419 37.9236 37.1213 37.726 37.2955 37.5292L37.2962 37.5284C38.6981 35.9112 39.4323 34.0309 39.5066 31.9312L39.5066 31.9305C39.5209 31.4277 39.3976 30.8927 39.2151 30.4251L39.2149 30.4246C38.3509 28.2427 36.7722 26.6367 34.794 25.3898L34.7938 25.3897C34.3103 25.0866 33.8027 24.8105 33.2984 24.5362C33.0293 24.3899 32.7613 24.2441 32.4983 24.095L32.4982 24.0949C30.7759 23.1214 29.1732 22.0019 27.9913 20.4448C27.0421 19.1924 26.4712 17.8965 26.3232 16.5656C26.1753 15.2353 26.449 13.8627 27.2007 12.4545L27.2008 12.4543M41.1266 33.2354L27.2008 12.4543M33.3244 21.4074L33.3813 21.3252M33.3244 21.4074C33.3244 21.4074 33.3244 21.4075 33.3245 21.4075L33.3813 21.3252M33.3813 21.3252C32.4903 20.7102 31.6269 20.0372 30.8233 19.3197L36.89 23.5803C36.394 23.2518 35.8879 22.9355 35.3818 22.6193C34.7069 22.1976 34.0321 21.776 33.3813 21.3252ZM27.2008 12.4543C28.5657 9.88857 31.9123 8.45124 34.6923 9.17497L27.2008 12.4543ZM16.2188 39.6402C20.4574 39.6288 24.6926 39.637 28.93 39.6451C29.6376 39.6465 30.3453 39.6479 31.0531 39.6491C32.2866 39.6514 32.894 39.6465 33.4176 39.4479C33.9405 39.2495 34.3857 38.8555 35.2794 38.0398C35.5449 37.7954 35.8043 37.548 36.0449 37.2881L16.2188 39.6402ZM16.2188 39.6402C15.4788 39.6402 14.7982 39.5046 14.1257 39.2331L16.2188 39.6402Z" fill="#FFEB61" stroke="#FFEB61" stroke-width="0.2"/>
</svg>
