<svg width="48" height="48" viewBox="0 0 48 48" fill="none" xmlns="http://www.w3.org/2000/svg">
<path d="M29.2183 19.867C28.6535 19.7619 28.2555 19.5859 27.9827 19.2394C27.9346 19.1769 27.9442 19.0066 27.9988 18.9725C28.079 18.9214 28.2299 18.9242 28.3326 18.9526C28.4353 18.9838 28.5027 19.0974 28.6022 19.14C28.7755 19.2139 28.9616 19.3019 29.1445 19.3076C29.3564 19.3132 29.6227 19.2962 29.6067 19.5035C29.6003 19.6427 29.3339 19.7676 29.2183 19.867Z" fill="#FFEB61"/>
<path d="M29.1957 18.9981C29.0577 18.9015 28.894 18.8419 28.8748 18.7595C28.8555 18.6772 28.9647 18.5522 29.0513 18.4756C29.1733 18.3677 29.3273 18.2881 29.4589 18.1916C29.6322 18.0666 29.8087 18.0525 29.9756 18.1831C30.1553 18.3251 30.0879 18.4926 29.9371 18.5948C29.7189 18.7453 29.4621 18.8561 29.1957 18.9981Z" fill="#FFEB61"/>
<path d="M25.6336 19.9862C25.3736 19.8897 25.2164 20.0118 25.1458 20.1566C24.9789 20.4974 24.7863 20.8438 24.7253 21.2045C24.3595 23.4081 24.0289 25.6174 23.6887 27.8239C23.6277 28.2101 23.5796 28.5991 23.5956 29.0109C23.6502 28.9058 23.7016 28.8036 23.7561 28.6985C24.6194 26.9975 25.7844 25.4896 27.5239 24.3992C28.9488 23.5047 30.5567 23.1412 32.309 23.3712C32.3315 23.374 32.354 23.3712 32.3732 23.3797C32.5562 23.4564 32.7391 23.5359 32.9188 23.6154C32.784 23.7347 32.6717 23.8824 32.5144 23.9647C31.4072 24.5525 30.7236 25.4499 30.1202 26.4239C29.7255 27.0628 29.3147 27.6989 28.8397 28.2924C28.3198 28.9456 27.5817 29.3857 26.7151 29.6044C24.2921 30.2149 23.2843 31.7825 23.0533 33.8469C22.9313 34.9346 22.9249 36.0335 22.8639 37.1268C22.8896 37.1353 22.9153 37.1439 22.9409 37.1524C22.9923 37.0502 23.0468 36.9508 23.0982 36.8485C24.4204 34.2189 26.33 32.0182 29.1157 30.479C30.8199 29.5391 32.7262 29.0734 34.6904 28.7724C34.899 28.7411 35.1076 28.6928 35.3162 28.6957C35.4125 28.6985 35.5344 28.7951 35.589 28.8774C35.6179 28.9229 35.5537 29.0648 35.4895 29.1018C34.2571 29.8202 33.4451 30.8482 32.8835 32.0125C32.4855 32.8332 32.2352 33.7106 31.9624 34.5739C31.7153 35.3548 31.4585 36.1216 30.8231 36.7406C30.1491 37.3966 29.2698 37.7004 28.323 37.868C27.5752 38.0014 26.821 38.0866 26.0733 38.2116C24.5167 38.4728 23.5571 39.3333 23.0629 40.6282C23.0051 40.7787 23.0083 40.9633 23.034 41.1252C23.3453 43.042 23.663 44.9588 23.9872 46.8756C24.0546 47.2817 23.923 47.5855 23.57 47.7701C23.2394 47.9433 22.819 47.9433 22.5687 47.7133C22.4114 47.5685 22.283 47.3555 22.2477 47.1596C22.0199 45.8732 21.7599 44.5896 21.6315 43.2947C21.4582 41.588 21.439 39.87 21.2592 38.1662C21.2047 37.6607 20.8902 37.1552 20.6013 36.6952C20.0654 35.8433 19.2534 35.3122 18.1301 35.1475C17.0807 34.9914 16.0761 34.7017 15.2353 34.077C14.2628 33.3557 13.8264 32.3987 13.6017 31.3281C13.3225 30.002 12.8764 28.7184 11.9714 27.6137C11.5156 27.0572 10.9572 26.5687 10.3892 25.9951C10.4213 25.8588 10.5175 25.7338 10.8513 25.7821C12.1992 25.9837 13.5343 26.2223 14.7988 26.7079C18.0017 27.9403 19.9498 30.1184 20.8966 33.0461C21.0506 33.5204 21.1726 34.0031 21.3523 34.4773C21.3683 34.3496 21.3908 34.2246 21.4037 34.0968C21.792 29.6271 22.405 25.1801 23.2651 20.7303C22.9827 20.7473 22.7355 20.7643 22.5398 20.7785C22.5686 21.301 22.6232 21.8094 22.62 22.3148C22.6168 22.5818 22.5333 22.8515 22.4435 23.1099C22.3472 23.3968 22.1996 23.4195 21.9043 23.2747C21.6636 23.1582 21.4069 23.0702 21.163 22.9594C20.5724 22.6925 19.9883 22.4199 19.3593 22.1274C19.4171 22.0962 19.3914 22.1018 19.3882 22.116C19.1058 22.9623 18.4222 23.4791 17.5621 23.8483C17.1705 24.0158 16.7726 24.172 16.3939 24.3537C15.9638 24.561 15.6076 24.828 15.5113 25.2908C15.4985 25.3505 15.354 25.447 15.2995 25.4328C15.1903 25.4044 15.0427 25.3306 15.0138 25.2454C14.6736 24.2373 14.7025 23.2491 15.2738 22.3035C15.3669 22.1473 15.4696 21.9968 15.5819 21.8207C15.277 21.744 14.9946 21.673 14.7121 21.6049C14.5164 21.5566 14.4715 21.4686 14.5453 21.2925C14.847 20.5826 15.2257 19.9209 15.9831 19.4439C15.8739 19.3842 15.7841 19.3388 15.6974 19.2905C14.9785 18.9043 14.5324 18.325 14.2019 17.6605C14.0831 17.4191 14.2532 17.2942 14.4554 17.1891C15.277 16.7603 16.1499 16.5672 17.0454 16.7632C17.2764 16.3599 17.469 15.9652 17.7161 15.6017C17.9311 15.2865 18.0178 15.3007 18.3291 15.5336C19.3432 16.2804 19.9627 17.1948 19.9177 18.3988C19.9177 18.4329 19.9306 18.4698 19.953 18.5664C20.781 18.0581 21.6476 18.0155 22.5879 18.3506C22.4756 17.4362 22.3279 16.5871 21.8144 15.8119C21.3459 15.1019 20.9255 14.3664 20.4729 13.648C20.4216 13.5685 20.2964 13.4748 20.2034 13.4748C19.3529 13.4804 18.6147 13.1965 17.9183 12.8046C17.3952 12.5093 16.8721 12.2111 16.3297 11.9044C16.3714 11.6091 16.503 11.5466 16.8592 11.5949C17.6712 11.7028 18.4896 11.788 19.3689 11.8902C19.1443 11.4898 18.9549 11.1405 18.7495 10.7969C18.7238 10.7515 18.6276 10.7287 18.5602 10.7117C17.9408 10.5669 17.469 10.2403 17.1737 9.75189C16.8335 9.19246 16.5286 8.61316 16.2398 8.03102C16.0729 7.69309 16.166 7.60788 16.5479 7.659C15.9927 6.71621 16.0569 5.75355 16.4292 4.77669C16.5158 4.55235 16.6634 4.54666 16.8656 4.66025C17.7707 5.17708 18.374 5.87849 18.5762 6.82696C18.5891 6.88092 18.6019 6.93487 18.6147 6.98598C18.65 6.98598 18.6757 6.9945 18.6853 6.98598C19.0576 6.67361 19.2855 6.71906 19.4524 7.15069C19.6834 7.75272 19.953 8.34622 20.1135 8.96244C20.2483 9.47927 20.1392 9.99326 19.5807 10.3709C19.7541 10.5669 19.9273 10.76 20.1263 10.9843C20.3349 10.3738 20.5371 9.78879 20.7393 9.20665C20.7875 9.07318 20.826 8.9312 20.9094 8.81761C21.0346 8.64723 21.2785 8.65007 21.333 8.82614C21.6732 9.91091 22.1932 10.9758 21.9428 12.1429C21.8818 12.4297 21.7214 12.6995 21.6187 12.9551C22.1707 13.8127 22.7676 14.6646 23.2811 15.5534C23.801 16.4508 23.9455 17.4532 24.1252 18.4414C24.1509 18.4443 24.1797 18.4471 24.2054 18.4499C24.2503 18.3534 24.3145 18.2597 24.337 18.1603C24.6708 16.7291 24.9981 15.3007 25.3255 13.8695C25.3479 13.7786 25.3608 13.6849 25.3736 13.5912C25.4089 13.3697 25.5341 13.1084 25.4474 12.9352C25.3672 12.779 25.0495 12.7222 24.8409 12.6115C24.0931 12.2111 23.7144 11.6034 23.6534 10.8509C23.6149 10.3851 23.6663 9.91659 23.6759 9.44804C23.6887 8.66143 23.7336 7.86914 23.1559 7.18193C23.095 7.10809 23.0918 6.92636 23.1559 6.85537C23.2169 6.78722 23.4063 6.75313 23.5154 6.77869C24.3178 6.97463 24.9596 7.4006 25.4795 7.96003C25.7973 8.30363 26.0604 8.68699 26.3364 9.03912C26.4905 8.69267 26.6542 8.33486 26.7986 7.96854C26.821 7.91458 26.7536 7.81235 26.6991 7.7584C26.0444 7.1081 25.8646 6.35558 26.0476 5.50934C26.1888 4.85905 26.2819 4.20022 26.4134 3.54708C26.4359 3.43065 26.5675 3.23188 26.6253 3.23756C26.7889 3.25744 27.0232 3.32558 27.0874 3.43917C27.3634 3.92193 27.5881 4.43023 27.832 4.92719C27.8609 4.98398 27.8898 5.04362 27.986 5.09474C28.0085 4.83064 28.0374 4.56654 28.0438 4.30528C28.0438 4.25417 27.9636 4.18034 27.9026 4.15195C27.4469 3.93897 27.2158 3.59251 27.2062 3.15236C27.1869 2.1187 27.5463 1.17875 28.1978 0.329671C28.4321 0.0229811 28.5605 0.0315107 28.7499 0.358079C29.2152 1.1674 29.4559 2.02216 29.3628 2.93371C29.3179 3.36819 29.1446 3.75154 28.7338 4.027C28.6792 4.06391 28.6183 4.12071 28.6118 4.17467C28.538 4.7199 28.4739 5.26796 28.3968 5.8927C28.5477 5.78763 28.6536 5.72516 28.7434 5.64849C29.1799 5.27932 29.6068 4.90163 30.0497 4.53814C30.1941 4.41888 30.3674 4.31665 30.5439 4.24282C30.6209 4.21158 30.775 4.24849 30.8424 4.30528C30.8937 4.35072 30.9097 4.50124 30.8648 4.54951C30.2871 5.19981 30.1042 6.00628 29.7383 6.73893C29.5458 7.12797 29.2858 7.50566 28.9745 7.82371C28.7691 8.03385 28.4257 8.16447 28.1176 8.2667C27.9315 8.32918 27.8416 8.39166 27.8031 8.55636C27.7357 8.83749 27.649 9.11579 27.5496 9.46792C27.6715 9.38273 27.7325 9.3458 27.7871 9.30321C28.5541 8.68131 29.4527 8.28374 30.4444 8.03953C30.7493 7.96286 30.9611 8.03385 31.0734 8.34622C30.9868 8.3945 30.8969 8.4598 30.7974 8.49672C30.1652 8.72106 29.7255 9.12998 29.4014 9.63829C29.0997 10.1097 28.8365 10.601 28.5637 11.0894C28.2235 11.6971 27.8063 12.2366 27.0842 12.5405C27.0168 12.5689 26.9494 12.6654 26.9494 12.7308C26.9687 14.0455 26.5482 15.2837 26.1342 16.5246C26.0187 16.8711 25.9545 17.2289 25.8615 17.6094C26.038 17.6094 26.1599 17.6094 26.2947 17.6094C26.176 16.0561 27.3217 15.136 28.461 14.179C29.2377 14.7441 29.6742 15.4399 29.7448 16.3003C30.1042 16.2321 30.4508 16.1214 30.7974 16.1157C31.3976 16.1043 31.9977 16.1526 32.6011 16.1782C32.906 16.1924 32.983 16.3457 32.9381 16.5928C32.8033 17.3226 32.447 17.9416 31.7795 18.4045C31.6415 18.5011 31.4874 18.5863 31.3334 18.68C31.603 18.8788 31.8886 19.0463 32.11 19.2621C32.3861 19.5319 32.6075 19.8414 32.8578 20.1311C32.9894 20.2816 32.9477 20.3923 32.7969 20.5144C31.7923 21.3209 30.3706 21.4913 29.1639 20.9404C29.0997 20.912 29.0323 20.895 28.9488 20.8637C28.6375 21.869 27.7774 22.3972 26.8467 22.8771C26.5932 23.0077 26.3814 23.2037 26.1407 23.357C26.0861 23.3911 25.9834 23.3968 25.9192 23.374C25.8454 23.3485 25.7844 23.286 25.7266 23.232C24.9179 22.454 24.8184 21.0398 25.5116 20.1793C25.5469 20.1311 25.5822 20.0658 25.6336 19.9862ZM22.8575 39.5633C22.8864 39.5747 22.9153 39.5889 22.9441 39.6002C22.973 39.5661 23.0051 39.5321 23.0308 39.498C23.7561 38.453 24.8216 37.8907 26.1792 37.7118C26.9943 37.6039 27.8095 37.4818 28.6118 37.3228C30.0368 37.0388 30.9226 36.2437 31.2885 34.997C31.3879 34.6619 31.4842 34.3269 31.5741 33.9889C32.0298 32.2823 32.8257 30.7318 34.209 29.4482C34.2346 29.4255 34.2475 29.3886 34.2892 29.3147C31.465 29.7379 28.9809 30.7062 27.0264 32.5208C24.8858 34.5058 23.1913 36.7349 22.8575 39.5633ZM11.6312 26.3359C11.6151 26.3756 11.5991 26.4154 11.5862 26.4551C11.6536 26.5261 11.7275 26.5886 11.7852 26.6653C12.2024 27.2134 12.6678 27.7415 13.0208 28.3208C13.637 29.3346 13.9227 30.4535 14.1634 31.578C14.4169 32.7678 15.1165 33.6851 16.3682 34.1962C16.9844 34.449 17.6616 34.6137 18.3323 34.7272C19.5679 34.9345 20.4473 35.5309 21.0635 36.4737C21.1277 36.5702 21.1822 36.6725 21.2432 36.769C21.2881 36.4027 21.3138 36.0477 21.2239 35.7211C21.0185 34.9885 20.7297 34.2729 20.5179 33.5402C19.5743 30.3285 17.4594 28.034 13.8745 26.901C13.1428 26.6681 12.379 26.5204 11.6312 26.3359ZM24.3659 20.2958C24.215 20.1793 24.0385 20.0629 23.8941 19.9238C23.387 19.4439 22.9024 18.9526 22.1578 18.7368C21.3202 18.4925 20.6109 18.6857 19.9209 19.1684C20.0204 19.211 20.0814 19.2394 20.1456 19.265C20.6976 19.4921 21.1052 20.2191 20.964 20.7501C20.9415 20.8353 20.8292 20.9688 20.7778 20.9631C20.6751 20.9518 20.5371 20.8751 20.4954 20.7927C20.428 20.6621 20.4409 20.4974 20.3863 20.3583C20.3061 20.1481 20.2034 19.9493 20.0846 19.6937C19.9306 20.0402 19.8407 20.3128 19.6931 20.557C19.3465 21.1193 19.3914 21.5651 20.0012 21.9144C20.5532 22.2296 21.1822 22.4426 21.7856 22.6868C21.8369 22.7067 22.007 22.6329 22.0166 22.5846C22.1482 21.9229 22.2349 21.267 21.7182 20.6763C21.6251 20.5712 21.6379 20.3923 21.6091 20.2844C22.1354 20.2844 22.5719 20.2873 23.0115 20.2844C23.1816 20.2844 23.3485 20.2674 23.5186 20.2702C23.9166 20.2731 23.923 20.2929 23.8492 20.6451C23.6406 21.6475 23.3999 22.6471 23.2458 23.658C22.896 25.9383 22.5366 28.2214 22.283 30.5131C22.0455 32.6543 21.853 34.8068 21.808 36.9593C21.7695 38.8477 21.8979 40.7418 22.0648 42.6245C22.1964 44.1154 22.498 45.5949 22.7291 47.0772C22.7612 47.2845 22.8511 47.4691 23.1463 47.4435C23.3806 47.4237 23.4994 47.2419 23.4512 46.9721C23.3999 46.6768 23.3325 46.3815 23.2747 46.0861C22.7099 43.2777 22.3408 40.455 22.3472 37.5982C22.3536 35.1958 22.543 32.8048 22.8222 30.4194C23.05 28.4742 23.3229 26.5318 23.6149 24.5923C23.8396 23.1554 24.1156 21.727 24.3659 20.2958ZM23.1335 31.3963C23.1688 31.4076 23.2041 31.419 23.2362 31.4303C23.6855 30.8482 24.1509 30.2831 24.8248 29.8827C24.8601 29.86 24.8858 29.7804 24.8698 29.7379C24.735 29.3658 24.9339 29.0734 25.181 28.8121C25.3993 28.5849 25.64 28.3663 25.9096 28.1902C26.9526 27.5058 27.7903 26.6596 28.4706 25.6856C28.5091 25.6316 28.5605 25.589 28.6151 25.5322C28.7466 25.6117 28.8686 25.6827 28.9906 25.7566C28.4193 26.7391 27.6234 27.5172 26.6959 28.1987C26.33 28.4685 25.9641 28.7383 25.6239 29.0336C25.4859 29.1529 25.4121 29.3289 25.3094 29.4794C25.3351 29.4993 25.3608 29.5164 25.3865 29.5362C25.7716 29.4141 26.1567 29.292 26.5418 29.1727C27.2671 28.9484 27.9218 28.6219 28.3744 28.0653C28.7274 27.6336 29.0483 27.1793 29.3308 26.7107C29.9662 25.6572 30.6273 24.6235 31.7217 23.8738C31.7378 23.8625 31.7378 23.8284 31.7506 23.783C31.6319 23.7773 31.5292 23.7659 31.4265 23.7659C29.5105 23.7546 27.9539 24.4475 26.6445 25.6515C25.2709 26.9095 24.3723 28.4146 23.6566 30.019C23.464 30.4762 23.3068 30.9391 23.1335 31.3963ZM28.4706 14.8321C27.7967 15.3461 27.2286 15.8857 26.943 16.6041C26.6285 17.3936 26.8949 17.9984 27.7582 18.5209C27.7582 18.3932 27.7421 18.2853 27.7614 18.1802C27.8159 17.8877 27.8609 17.5895 27.9604 17.3084C27.9892 17.226 28.2011 17.1948 28.3262 17.138C28.3583 17.2516 28.4353 17.3709 28.4129 17.4731C28.3615 17.6974 28.2588 17.9104 28.1786 18.1262C28.2043 18.1404 28.2299 18.1546 28.2556 18.1688C28.3647 18.0751 28.4706 17.9786 28.5862 17.8905C28.7146 17.794 28.8429 17.6918 28.9906 17.6293C29.058 17.6009 29.2216 17.6378 29.2601 17.6917C29.3115 17.7599 29.3307 17.9218 29.2794 17.9615C28.8718 18.2909 28.4931 18.6743 27.8769 18.7055C27.6394 18.7169 27.4051 18.7623 27.1741 18.7907C27.142 19.4467 27.219 19.671 27.5271 19.8301C27.9507 19.5092 27.8512 19.5518 28.2396 19.8102C28.5958 20.0459 28.9456 20.2901 29.3275 20.4889C30.239 20.966 31.1408 20.8864 32.0266 20.4094C32.2256 20.3043 32.2288 20.1992 32.1165 20.0487C31.757 19.566 31.2949 19.1996 30.6851 18.9781C30.5503 18.9299 30.4219 18.8731 30.2101 18.7851C30.4091 18.6487 30.5471 18.5465 30.6947 18.4528C31.0125 18.254 31.3591 18.0836 31.6479 17.8536C32.0587 17.527 32.293 17.1039 32.3796 16.5899C32.1389 16.5701 31.9303 16.5417 31.7217 16.536C30.9964 16.5133 30.2839 16.5587 29.6196 16.854C29.5008 16.908 29.3596 16.9279 29.2313 16.9619C29.2024 16.8285 29.1607 16.6978 29.1478 16.5615C29.1382 16.4593 29.1703 16.3571 29.1735 16.2548C29.1799 15.7068 28.9296 15.2496 28.4706 14.8321ZM17.9857 16.0561C17.761 16.4053 17.5685 16.7433 17.5717 17.1408C17.5749 17.3567 17.5011 17.4362 17.2475 17.3396C16.4452 17.0386 15.6782 17.1664 14.9272 17.493C14.7539 17.5668 14.7186 17.6435 14.8213 17.7968C15.2321 18.4102 15.7263 18.9242 16.5415 19.1315C16.6442 19.157 16.7758 19.2735 16.7822 19.3558C16.7886 19.4353 16.6763 19.5574 16.58 19.6057C15.9542 19.9181 15.5337 20.381 15.2417 20.9518C15.139 21.1534 15.1871 21.2726 15.4311 21.3294C15.7584 21.4061 16.0793 21.5055 16.4099 21.5651C17.3246 21.7327 18.1462 21.5822 18.7752 20.9347C19.1988 20.4974 19.5262 20.009 19.5551 19.4013C19.5615 19.2593 19.6481 19.1201 19.7123 18.9384C19.6128 18.8731 19.4652 18.7737 19.3176 18.6743C19.6289 17.8565 19.0095 16.6041 17.9857 16.0561ZM26.9269 18.2853C26.667 18.2086 26.452 18.1035 26.2305 18.0893C25.4988 18.0467 24.9885 18.396 24.6002 18.9015C24.5007 19.0321 24.3787 19.2564 24.4397 19.3473C24.5199 19.4637 24.7703 19.5347 24.95 19.5376C25.3897 19.5489 25.8326 19.5035 26.2754 19.4978C26.3717 19.495 26.5482 19.5518 26.5547 19.5972C26.5707 19.6909 26.5129 19.8017 26.452 19.8925C26.407 19.9607 26.314 20.0061 26.2434 20.0629C25.7331 20.486 25.5148 21.0142 25.5309 21.6248C25.5341 21.7128 25.5726 21.8008 25.6175 21.9684C25.7138 21.7156 25.7652 21.5424 25.8422 21.3805C25.9321 21.1903 26.0957 21.0455 26.3364 21.1449C26.6156 21.2613 26.4102 21.4373 26.33 21.568C26.1214 21.9031 26.0636 22.2609 26.0412 22.6442C26.5996 22.5221 27.4661 22.0649 27.8769 21.6248C28.0984 21.3862 28.2556 21.0909 28.4032 20.8041C28.445 20.7189 28.3808 20.5514 28.3005 20.4718C28.1625 20.3355 27.9764 20.239 27.7967 20.1169C27.7197 20.2731 27.6844 20.4292 27.5817 20.54C27.4501 20.6763 27.1965 20.9006 27.1195 20.8666C26.882 20.7643 27.0072 20.5343 27.0457 20.3441C27.065 20.256 27.0425 20.1282 26.9815 20.0686C26.5386 19.6256 26.4744 18.8532 26.9269 18.2853ZM23.8973 7.43182C24.3081 8.5024 24.1444 9.5531 24.1509 10.5981C24.1509 10.8821 24.2311 11.1774 24.3434 11.4444C24.6419 12.1543 25.486 12.532 26.2594 12.3417C26.4199 12.302 26.5065 12.2452 26.5065 12.0748C26.4969 11.0468 26.2915 10.0643 25.7138 9.15838C25.2773 8.47117 24.7349 7.87482 23.8973 7.43182ZM18.926 21.409C18.2938 21.9826 17.5813 22.1217 16.8014 22.0791C16.028 22.0365 16.0248 22.0365 15.6846 22.6613C15.6011 22.8118 15.5273 22.968 15.4728 23.1298C15.3508 23.4905 15.2385 23.8539 15.3412 24.2714C15.5562 23.8795 15.7424 23.5189 15.9445 23.1667C16.0216 23.0304 16.1467 22.8913 16.3457 22.9992C16.5319 23.0986 16.4805 23.2491 16.3842 23.3911C16.2751 23.5586 16.1756 23.7318 16.0472 23.9391C16.4163 23.7915 16.7373 23.6864 17.0293 23.5416C17.4594 23.3258 17.9023 23.1156 18.2745 22.8373C18.7303 22.4966 18.9357 22.028 18.926 21.409ZM29.6388 5.54342C29.2633 5.85863 28.9135 6.1284 28.599 6.43225C28.4193 6.60832 28.2524 6.82128 28.169 7.04278C28.0695 7.30972 27.9058 7.33528 27.6073 7.28133C27.8063 6.19939 27.3698 5.24524 26.9045 4.29109C26.7601 4.7568 26.6413 5.21969 26.5354 5.68256C26.3878 6.34138 26.5803 6.92351 27.0714 7.43182C27.5784 7.95433 28.1946 7.9515 28.6857 7.41763C29.1863 6.8724 29.4142 6.22495 29.6388 5.54342ZM21.0923 9.94783C20.6751 10.7259 20.4473 11.5324 20.5179 12.3928C20.5275 12.5178 20.4601 12.6456 20.428 12.7705C20.2964 12.7421 20.1424 12.7449 20.0333 12.6853C19.3721 12.319 18.6147 12.2906 17.883 12.1571C18.4992 12.6427 19.1924 12.9892 20.0268 13.0318C20.8228 13.0715 21.3202 12.7222 21.4518 12.0293C21.5802 11.3109 21.3876 10.6237 21.0923 9.94783ZM23.5507 18.9128C23.5507 18.7737 23.5571 18.6942 23.5507 18.6118C23.432 17.351 23.111 16.1356 22.3857 15.0309C22.0359 14.4971 21.6476 13.9859 21.2624 13.4719C21.2175 13.4123 21.0955 13.3981 21.0089 13.364C21.0057 13.4407 20.9961 13.5202 21.0057 13.594C21.0121 13.6366 21.041 13.6821 21.0667 13.7218C21.4454 14.3153 21.808 14.9173 22.206 15.5023C22.7805 16.3429 23.0308 17.263 23.034 18.2285C23.034 18.5777 23.2041 18.7339 23.5507 18.9128ZM28.4482 0.80676C27.9668 1.54225 27.7485 2.27489 27.71 3.05013C27.7004 3.22619 27.7839 3.41645 27.8673 3.58116C27.97 3.78278 28.1946 3.83674 28.3551 3.67203C28.5477 3.47609 28.7595 3.2404 28.8076 2.99902C28.9585 2.26353 28.7467 1.55929 28.4482 0.80676ZM26.038 12.8273C25.6593 14.5567 25.2902 16.2463 24.9179 17.936C25.1971 17.8479 25.3704 17.7145 25.364 17.4135C25.3608 17.1863 25.4507 16.9534 25.518 16.7291C25.762 15.9056 26.0412 15.0906 26.253 14.2614C26.3749 13.7956 26.3942 13.3101 26.4648 12.8159C26.2947 12.8159 26.2113 12.8131 26.131 12.8159C26.07 12.8188 26.0091 12.833 26.038 12.8273ZM27.02 12.0748C28.1914 11.2853 28.3744 9.98758 29.1831 9.03059C29.0098 9.06467 28.8526 9.11294 28.7467 9.20665C28.3294 9.57297 27.9218 9.95066 27.5207 10.3312C27.0393 10.7941 26.7986 11.3251 26.9815 11.964C26.9879 11.9754 26.9911 11.9839 27.02 12.0748ZM16.7758 5.25376C16.6859 5.8359 16.6089 6.40668 16.8239 6.96895C16.9041 7.17625 17.0165 7.39207 17.1769 7.55677C17.2893 7.6732 17.5428 7.79815 17.6712 7.7584C17.8284 7.71012 17.9889 7.51134 18.0306 7.35232C18.1943 6.69918 17.5107 5.56329 16.7758 5.25376ZM16.9491 8.3377C17.1384 8.69834 17.2989 9.07602 17.5268 9.41679C17.6872 9.65816 17.9247 9.86831 18.1622 10.0614C18.2649 10.1466 18.451 10.1494 18.589 10.1892C18.6083 9.1527 17.7033 8.79773 16.9491 8.3377ZM19.1539 7.9941C18.9549 9.0022 18.8651 9.71497 19.2823 10.0188C19.7861 9.60706 19.7316 8.70403 19.1539 7.9941ZM18.5313 8.72107C18.6083 8.14461 18.6789 7.64197 18.7463 7.14218C18.7014 7.13082 18.6564 7.11947 18.6083 7.10811C18.5088 7.57382 18.5056 8.09633 17.7675 8.22412C18.0274 8.39166 18.2392 8.53081 18.5313 8.72107ZM26.7248 10.0188C26.7665 10.0273 26.8082 10.0359 26.8531 10.0472C27.02 9.46223 27.1869 8.87725 27.3538 8.28943C27.3056 8.27807 27.2543 8.26955 27.2062 8.25819C27.0489 8.84602 26.6028 9.37137 26.7248 10.0188Z" fill="#FFEB61"/>
<path d="M23.7368 37.9815C23.8973 37.2546 24.154 36.6412 24.6322 36.1272C24.9949 35.741 25.4057 35.386 25.8229 35.0424C26.5129 34.4716 27.1837 33.8923 27.6234 33.137C27.6683 33.0575 27.8255 33.0291 27.9282 32.9751C27.97 33.0858 28.0823 33.2307 28.0406 33.3045C27.8544 33.6282 27.6683 33.9662 27.3987 34.2303C26.7825 34.8323 26.1182 35.3974 25.4731 35.9767C24.8312 36.5503 24.4044 37.2205 24.2439 38.0241C24.2311 38.0923 24.0738 38.2059 24.0417 38.1945C23.9198 38.1406 23.8203 38.044 23.7368 37.9815Z" fill="#FFEB61"/>
<path d="M25.8228 36.7974C25.9704 36.5958 26.0635 36.3857 26.2336 36.2494C26.5834 35.9682 26.946 35.6814 27.3568 35.4769C28.4512 34.9317 29.2824 34.1764 29.8794 33.2052C29.9564 33.0831 30.0334 32.9496 30.1458 32.8587C30.2292 32.7934 30.3768 32.7877 30.4956 32.7537C30.5148 32.8616 30.5758 32.9808 30.5437 33.0774C30.4924 33.225 30.3801 33.3585 30.2934 33.4977C29.7029 34.4177 28.9455 35.1901 27.8928 35.7268C27.4659 35.9455 27.0744 36.2238 26.6861 36.4964C26.5416 36.5958 26.4614 36.7662 26.3363 36.8883C26.2689 36.9536 26.1565 37.036 26.0795 37.0246C25.9993 37.0132 25.9319 36.9025 25.8228 36.7974Z" fill="#FFEB61"/>
<path d="M14.5264 29.6811C14.5906 29.6357 14.6772 29.5249 14.7799 29.5164C14.8633 29.5079 15.0078 29.6016 15.0431 29.6811C15.2067 30.0446 15.3159 30.428 15.4924 30.7886C15.9802 31.7967 16.8018 32.5407 17.8769 33.0803C18.2235 33.2535 18.5573 33.4551 18.875 33.6681C18.9521 33.7192 18.9392 33.8782 18.9649 33.9861C18.8493 33.9918 18.6953 34.0458 18.6183 34.0003C17.7967 33.5091 16.9366 33.0547 16.192 32.4868C15.303 31.8081 14.889 30.8454 14.5649 29.8657C14.552 29.8259 14.5488 29.789 14.5264 29.6811Z" fill="#FFEB61"/>
<path d="M17.1353 30.0529C17.5557 29.8087 17.5589 29.8172 17.79 30.1665C18.3773 31.0638 18.9838 31.9527 19.5647 32.8529C19.9049 33.3782 20.0814 33.9547 20.1488 34.5595C20.1713 34.7668 20.0686 34.8605 19.8632 34.8861C19.6065 34.9173 19.6417 34.7356 19.6289 34.605C19.5615 33.8042 19.1475 33.1198 18.7046 32.4468C18.2328 31.7255 17.7482 31.0127 17.27 30.2971C17.2219 30.2204 17.1802 30.1324 17.1353 30.0529Z" fill="#FFEB61"/>
<path d="M22.1001 19.9636C22.0103 19.9409 21.8947 19.9381 21.8145 19.8869C21.7407 19.8415 21.6604 19.7421 21.6669 19.6711C21.6733 19.6087 21.7888 19.5235 21.8691 19.5093C22.0231 19.4837 22.1868 19.4809 22.3408 19.5093C22.4371 19.5263 22.5206 19.6115 22.6104 19.6654C22.5366 19.7478 22.4788 19.8444 22.389 19.904C22.3216 19.9494 22.2124 19.9437 22.1001 19.9636Z" fill="#FFEB61"/>
<path d="M31.189 20.3271C31.0221 20.1709 30.836 20.08 30.8263 19.975C30.8071 19.7733 31.0381 19.7194 31.2147 19.7478C31.343 19.7676 31.4522 19.8869 31.5709 19.9607C31.4618 20.0658 31.3527 20.1709 31.189 20.3271Z" fill="#FFEB61"/>
<path d="M17.8029 20.7303C17.5719 20.6877 17.3857 20.6792 17.2285 20.6167C17.1354 20.5798 17.0263 20.4435 17.0391 20.3696C17.052 20.2929 17.1996 20.2049 17.3055 20.1794C17.4178 20.1538 17.5655 20.1652 17.6714 20.2106C17.8992 20.31 18.079 20.2759 18.2298 20.1084C18.3903 19.9295 18.5283 20.0317 18.647 20.1396C18.8043 20.2844 18.7401 20.4406 18.5668 20.5088C18.31 20.611 18.034 20.6678 17.8029 20.7303Z" fill="#FFEB61"/>
<path d="M16.8398 18.1579C17.0131 18.0187 17.1158 17.9364 17.2185 17.854C17.318 17.9648 17.4625 18.067 17.501 18.1948C17.5202 18.2572 17.3245 18.4475 17.2571 18.4361C17.1287 18.4134 17.0228 18.2885 16.8398 18.1579Z" fill="#FFEB61"/>
<path d="M24.8572 8.97109C24.9502 9.9082 25.223 10.7857 25.6788 11.6205C25.7109 11.6802 25.7815 11.7455 25.7718 11.7938C25.7429 11.9159 25.6755 12.0323 25.6242 12.1487C25.5183 12.1005 25.3675 12.0777 25.3193 12.0011C24.8764 11.311 24.6229 10.5585 24.4656 9.7804C24.4143 9.52199 24.3661 9.26358 24.3373 9.00232C24.3212 8.86318 24.2602 8.66724 24.5266 8.66724C24.732 8.67292 24.9535 8.70983 24.8572 8.97109Z" fill="#FFEB61"/>
<path d="M16.8657 6.25882C16.8978 6.22758 16.9652 6.11967 17.0551 6.09979C17.222 6.06572 17.4274 6.36957 17.4081 6.6507C17.4017 6.73873 17.2893 6.87221 17.1995 6.89209C17.023 6.929 16.8657 6.65354 16.8657 6.25882Z" fill="#FFEB61"/>
<path d="M34.8732 7.61932C34.7448 7.53697 34.6582 7.50572 34.6164 7.44893C34.5651 7.38077 34.549 7.28991 34.5202 7.20756C34.2859 6.49763 33.798 6.00067 32.9893 5.76781C32.8224 5.71954 32.6619 5.6741 32.6587 5.47816C32.6555 5.27654 32.8352 5.26802 32.9861 5.21975C33.8012 4.96133 34.3693 4.48994 34.5876 3.72889C34.6261 3.58975 34.6935 3.45912 34.8828 3.46196C35.0722 3.4648 35.1331 3.58975 35.1684 3.73458C35.361 4.5013 35.913 4.96986 36.7378 5.20555C36.9111 5.25383 37.0331 5.32765 37.0395 5.49519C37.0459 5.67126 36.8822 5.69114 36.7442 5.72805C35.8617 5.96091 35.3546 6.50047 35.101 7.26435C35.0657 7.38078 34.9662 7.48017 34.8732 7.61932ZM34.825 6.35848C35.1652 6.06031 35.5279 5.74226 35.9034 5.41569C35.4605 5.22259 35.1107 4.92159 34.9149 4.55242C34.5587 4.87331 34.2056 5.19134 33.8879 5.47816C34.196 5.76781 34.5202 6.07167 34.825 6.35848Z" fill="#FFEB61"/>
<path d="M23.2907 2.99907C23.2618 3.02179 23.204 3.1013 23.127 3.12118C22.3985 3.31996 21.9235 3.7232 21.7598 4.39905C21.7406 4.47288 21.609 4.56375 21.5159 4.57511C21.4485 4.58363 21.3298 4.48992 21.2913 4.41609C21.1886 4.23151 21.1372 4.02138 21.0217 3.83963C20.8067 3.50171 20.4825 3.27737 20.0492 3.18366C19.892 3.14958 19.7476 3.1013 19.7476 2.92523C19.7508 2.76053 19.8888 2.72077 20.0332 2.6725C20.6301 2.46803 21.0634 2.12443 21.2207 1.55364C21.2303 1.51673 21.2367 1.46847 21.2656 1.44575C21.3426 1.38328 21.4293 1.28955 21.5159 1.28955C21.5961 1.28955 21.7085 1.37474 21.7534 1.44857C21.8208 1.55364 21.8272 1.68712 21.885 1.79787C22.1289 2.25223 22.5269 2.55323 23.0757 2.69238C23.2714 2.74065 23.2907 2.76337 23.2907 2.99907ZM22.1385 2.93943C21.9299 2.74917 21.6796 2.522 21.5095 2.36582C21.3298 2.52768 21.0794 2.7577 20.8516 2.96499C21.0185 3.1155 21.2688 3.34268 21.4646 3.51874C21.7085 3.31144 21.9652 3.08994 22.1385 2.93943Z" fill="#FFEB61"/>
<path d="M35.8746 26.1996C35.8169 26.1371 35.7302 26.0804 35.7013 26.0094C35.5537 25.6118 35.3355 25.254 34.9311 25.0183C34.7802 24.9303 34.5973 24.882 34.4465 24.794C34.3534 24.74 34.2411 24.6434 34.2379 24.5611C34.2347 24.4844 34.3438 24.3595 34.4368 24.3282C35.0627 24.1238 35.4959 23.766 35.711 23.198C35.7431 23.1128 35.881 22.9993 35.9549 23.0078C36.0447 23.0163 36.1635 23.1327 36.1892 23.2208C36.3592 23.7802 36.7861 24.1153 37.367 24.3197C37.4986 24.3652 37.6141 24.4049 37.6109 24.5554C37.6077 24.6946 37.5082 24.7599 37.3734 24.8025C36.7251 25.0069 36.3336 25.4159 36.1603 25.9952C36.1282 26.1144 36.0768 26.1826 35.8746 26.1996ZM36.5005 24.5469C36.3528 24.4021 36.1282 24.1777 35.9131 23.9676C35.6885 24.1579 35.451 24.3566 35.2841 24.4986C35.4991 24.6974 35.7366 24.9161 35.926 25.0921C36.0961 24.9331 36.3239 24.7144 36.5005 24.5469Z" fill="#FFEB61"/>
<path d="M14.4525 41.8409C13.4094 41.8324 12.5942 41.0912 12.6071 40.1569C12.6167 39.2567 13.4768 38.5241 14.5134 38.5383C15.5565 38.5525 16.3749 39.288 16.362 40.2052C16.346 41.131 15.5083 41.8494 14.4525 41.8409ZM14.4781 41.2644C15.1361 41.2616 15.7009 40.7646 15.6945 40.191C15.6881 39.6202 15.1296 39.1346 14.4878 39.1346C13.8234 39.1346 13.2554 39.6287 13.2586 40.1967C13.2682 40.7873 13.8138 41.2673 14.4781 41.2644Z" fill="#FFEB61"/>
<path d="M13.8648 13.259C13.8648 13.8042 13.4219 14.2131 12.8346 14.216C12.2152 14.2188 11.7402 13.8042 11.7402 13.2618C11.7402 12.7194 12.2056 12.302 12.8057 12.3077C13.4315 12.3134 13.8648 12.7052 13.8648 13.259ZM13.3032 13.2647C13.3064 13.0148 13.0817 12.8131 12.8025 12.8131C12.5426 12.8131 12.3243 13.0119 12.3147 13.2618C12.3051 13.506 12.5201 13.7077 12.7897 13.7105C13.0721 13.7105 13.2968 13.5146 13.3032 13.2647Z" fill="#FFEB61"/>
<path d="M27.3218 41.7499C26.7537 41.7499 26.3076 41.3324 26.314 40.8099C26.3205 40.2789 26.7473 39.9069 27.3539 39.9041C27.9251 39.9012 28.3776 40.2988 28.3776 40.8043C28.3809 41.3381 27.9187 41.7499 27.3218 41.7499ZM27.8192 40.8014C27.8192 40.5799 27.6042 40.4039 27.3378 40.4039C27.0843 40.4039 26.8789 40.5913 26.8789 40.827C26.8789 41.0598 27.0618 41.2274 27.3218 41.2331C27.6106 41.2359 27.816 41.057 27.8192 40.8014Z" fill="#FFEB61"/>
</svg>
