<svg width="48" height="48" viewBox="0 0 48 48" fill="none" xmlns="http://www.w3.org/2000/svg">
<path d="M21.3124 0.301311C29.2961 5.13856 34.6793 11.6817 34.9219 21.6444C35.1569 21.5989 35.3692 21.5837 35.5664 21.523C37.5831 20.9317 38.0077 21.1591 38.6143 23.1986C40.5098 29.6357 38.91 35.216 34.4973 40.1214C34.232 40.4171 33.959 40.7053 33.6861 41.0009C33.6633 41.0237 33.6709 41.0692 33.6102 41.3345C35.5588 41.6302 37.4922 41.9259 39.6151 42.252C38.584 42.9874 37.5301 43.7304 36.4838 44.4735C36.4307 44.428 36.37 44.3825 36.317 44.3294C36.461 44.1019 36.6051 43.8745 36.8022 43.5712C34.6035 43.0329 32.4957 42.4188 30.0392 43.0708C31.0476 44.0792 32.0484 45.0876 33.0264 46.0732C32.1848 46.3462 31.093 46.7101 29.6828 47.1726C30.5244 46.2931 30.2135 45.6941 29.6676 45.1937C28.8564 44.4431 28.0072 43.738 27.1277 42.9798C26.3164 44.4886 27.3628 46.4599 29.3568 47.1802C28.6896 47.3091 28.2726 47.4077 27.8404 47.4759C27.3779 47.5517 26.9078 47.5972 26.3695 47.6579C25.7554 46.3159 25.1488 44.9814 24.5347 43.6394C22.9501 44.4962 22.4345 45.5956 22.6999 47.5972H25.5431C21.7446 47.9763 18.2341 47.4911 14.6403 46.0884C16.4903 45.6183 17.5518 44.5341 18.2645 42.6311C16.9452 42.7675 15.8534 42.8358 14.7692 43.0102C13.8063 43.1694 12.8055 43.321 11.9184 43.6925C10.3186 44.3673 9.39365 43.4347 8.38525 42.3884C10.7129 42.6235 12.9116 42.3884 15.209 40.4475C14.8375 40.2882 14.3977 40.2049 14.1096 39.9471C8.06682 34.4957 7.066 27.1033 11.6076 20.363C13.4272 17.6563 15.5502 15.1543 17.5442 12.5688C19.7278 9.72561 21.1987 6.63978 20.903 2.93981C20.8423 2.12855 20.8196 1.3097 20.7817 0.490858C20.956 0.422621 21.1304 0.346802 21.3048 0.278564L21.3124 0.301311ZM22.9728 3.3644C22.1161 4.41828 22.3132 5.43426 22.7909 6.40474C23.132 7.10227 23.079 7.50412 22.4118 8.01968C20.8423 9.23279 20.6376 10.1805 21.3882 12.0533C21.5778 12.5233 21.9265 12.9252 22.1312 13.3801C22.8743 15.0026 22.753 16.61 21.6384 17.9747C19.4321 20.6663 17.1499 23.2972 14.8526 25.9054C13.1164 27.8767 12.1307 30.1437 11.8502 32.7291C11.5697 35.3524 14.1323 39.3178 16.6647 40.1745C17.1803 40.3489 17.7489 40.3717 18.1735 40.4399C17.5442 39.1889 16.9376 38.1122 16.4448 36.9901C15.0118 33.7451 15.3151 30.6062 17.2788 27.6947C18.9772 25.1699 20.7665 22.6982 22.6316 20.3024C24.1784 18.3159 25.5734 16.2915 26.0662 13.7364C29.2052 15.7229 30.2287 19.2712 28.6138 22.3722C27.575 24.3587 26.4302 26.2996 25.4521 28.3164C24.7773 29.7039 25.2095 31.0535 26.3316 31.7586C27.5296 32.5168 28.6441 32.3045 29.8041 31.0687C30.3652 30.4697 30.8883 29.8252 31.5025 29.1201C34.0424 32.2514 34.141 35.542 32.4654 39.1889C37.75 35.5344 39.6075 26.8531 36.4459 23.3579C35.9379 23.5323 35.4299 23.7218 34.9143 23.8886C33.2994 24.4118 32.8975 24.0781 32.9885 22.3571C33.0492 21.0909 33.2311 19.802 33.0643 18.5585C32.1924 11.9092 28.3939 7.16293 22.9728 3.3644ZM26.9912 17.0952C25.3535 19.2106 23.6855 21.2122 22.1919 23.3351C20.6452 25.5187 19.144 27.7478 17.8399 30.0754C16.2325 32.9414 17.4608 36.8461 19.2122 38.6657C21.3958 40.9327 26.1042 41.1602 28.7199 39.386C30.6533 38.0743 31.6238 35.6026 30.8959 33.7906C30.5471 33.9877 30.2135 34.2076 29.8648 34.382C27.5144 35.542 24.1329 34.2985 23.1245 31.9254C22.063 29.4082 22.988 25.5111 25.2171 23.9493C26.324 23.1683 26.9382 22.1523 27.5068 21.0151C28.2498 19.5214 27.9466 18.2249 26.9988 17.0952H26.9912ZM11.4938 26.5044C13.1694 24.6544 14.7313 22.9939 16.2249 21.2728C17.5063 19.7944 18.727 18.2628 19.9325 16.7161C20.5845 15.8821 20.7817 14.9723 19.8188 13.9639C16.968 18.0809 13.033 21.379 11.5014 26.5119L11.4938 26.5044ZM21.4868 43.503C19.7809 44.064 18.7345 45.2696 17.8399 46.7025C20.2888 47.9232 21.2897 46.4902 21.4868 43.503Z" fill="#FFEB61"/>
</svg>
