<svg width="48" height="48" viewBox="0 0 48 48" fill="none" xmlns="http://www.w3.org/2000/svg">
<path d="M34.0533 37.0426C38.1162 37.1942 42.1791 37.3459 46.2181 37.4975C45.6274 39.2376 44.885 39.7964 43.0891 39.7964C38.6909 39.7964 34.2928 39.7724 29.8947 39.7964C28.7692 39.7964 27.963 39.4452 27.6038 38.0164C31.6188 35.5339 35.6977 33.0196 39.8324 30.4653C38.5553 29.5234 37.5814 29.4995 36.1287 30.3695C33.9975 31.6467 31.8982 32.9717 29.7829 34.2808C26.7896 36.1326 23.8043 37.9844 20.819 39.8523C20.2763 40.1875 19.7973 40.6185 19.2865 41.0017C19.2865 41.1134 19.2945 41.2252 19.3024 41.3369C19.8053 41.4487 20.3162 41.6482 20.819 41.6482C27.6278 41.6961 34.4365 41.7201 41.2452 41.752C41.6842 41.752 42.1153 41.752 42.8496 41.752C41.5885 43.0451 40.6785 43.995 38.9144 43.979C29.2002 43.8912 19.478 43.8832 9.76383 43.979C7.93593 43.995 6.72266 43.3245 5.54929 41.8797C5.96436 41.8478 6.27565 41.7999 6.58695 41.7919C8.72615 41.744 10.8893 41.8797 12.9966 41.6003C14.577 41.3848 16.2453 40.8979 17.6023 40.0837C23.086 36.8191 28.4898 33.4187 33.8857 30.0024C36.0569 28.6215 38.2838 27.911 40.8381 28.6374C41.7002 28.8849 42.3228 28.6454 42.5782 27.6796C42.8257 26.7377 42.8337 26.131 41.7002 25.6521C39.6807 24.806 37.8927 24.9098 36.0489 26.0911C29.8947 30.0183 23.6846 33.8577 17.5464 37.8088C15.3752 39.2057 13.1243 39.98 10.5301 39.8203C8.85387 39.7166 7.14569 39.6208 5.48542 39.8283C3.44998 40.0837 2.62784 38.9024 1.78174 37.29H12.0946C11.5917 36.0847 11.1926 35.0231 10.7217 33.9934C8.43083 29.0365 6.17189 24.0637 3.80121 19.1387C2.83537 17.1193 2.83537 15.3392 4.09654 13.4235C5.70892 10.973 7.13772 8.39482 8.6623 5.88046C8.86983 5.52925 9.18115 5.24189 9.54832 4.7949C13.4436 11.3003 15.5828 18.5002 19.2226 25.2131C19.486 24.6703 19.6536 24.3351 19.8053 23.9998C21.8567 19.3941 23.9321 14.7965 25.9356 10.1748C26.622 8.58639 27.6198 7.40504 29.2162 6.69464C30.8525 5.96827 32.441 5.12216 34.0773 4.37185C35.554 3.69337 36.2005 3.96476 36.6874 5.47338C37.1584 6.92612 37.6213 8.38684 37.9646 9.87151C38.4994 12.2182 37.9486 14.3255 36.7433 16.4408C35.2107 19.1547 34.0055 22.0522 32.6725 24.8778C32.6006 25.0375 32.6086 25.237 32.5447 25.5962C33.6542 24.9257 34.6201 24.343 35.5859 23.7524C37.0546 22.8584 38.5952 22.5151 40.3033 23.0021C41.6204 23.3772 42.9853 23.6167 44.3103 23.9839C45.6114 24.3351 45.9068 24.9896 45.5555 26.3146C44.7813 29.2361 43.2647 31.4311 40.3911 32.7642C38.1402 33.8098 36.0968 35.3104 33.9655 36.6115L34.0533 37.0426ZM22.2638 31.934C25.9515 30.2338 28.8331 27.927 30.3896 24.0477C31.5949 21.0464 33.0636 18.117 34.7478 15.3552C36.6156 12.2901 35.9531 9.56021 34.3966 6.65472C32.6166 7.50881 30.8845 8.33895 29.1204 9.19303C29.5355 10.0152 29.8228 10.7416 30.2379 11.3642C31.2436 12.8648 31.1718 14.3096 30.4135 15.906C28.7293 19.4181 27.1409 22.9781 25.5045 26.5062C25.2491 27.057 24.9378 27.5918 24.5706 28.0707C24.387 28.3101 24.0039 28.4139 23.7165 28.5736C23.7006 28.2702 23.6048 27.943 23.6926 27.6716C23.9879 26.7696 24.3072 25.8596 24.6983 24.9976C26.167 21.7249 27.6836 18.4682 29.1444 15.1876C29.9346 13.4156 29.5515 12.306 27.8832 11.436C27.6916 11.8032 27.4841 12.1544 27.3165 12.5295C25.3289 16.9915 23.3893 21.4775 21.3379 25.9155C20.3082 28.1425 20.6754 30.0502 22.2638 31.926V31.934ZM8.25521 10.7176C7.53682 11.9309 7.06589 12.9287 6.40338 13.7907C5.20606 15.3472 5.19807 16.9197 5.99628 18.6279C8.45477 23.8881 10.8813 29.1642 13.3398 34.4244C13.7309 35.2626 14.2737 36.0368 14.7606 36.8749C16.1974 35.949 17.4506 35.071 18.7756 34.3127C19.6217 33.8338 19.8372 33.3468 19.486 32.4129C17.0994 25.9554 14.3296 19.6655 11.0649 13.6071C10.8414 13.2 10.5541 12.8249 10.1629 12.2262C9.62814 14.6448 9.81174 16.6802 10.6977 18.6758C12.366 22.4034 14.0183 26.139 15.6227 29.8986C15.8462 30.4254 15.7664 31.0879 15.8302 31.6866C15.3832 31.2476 14.7686 30.8884 14.5212 30.3615C12.6693 26.4184 10.7456 22.5072 9.16518 18.4602C8.51064 16.784 8.63037 14.8044 8.41486 12.9606C8.34302 12.33 8.31108 11.6994 8.23126 10.7336L8.25521 10.7176Z" fill="#FFEB61"/>
</svg>
