<svg width="48" height="48" viewBox="0 0 48 48" fill="none" xmlns="http://www.w3.org/2000/svg">
<path d="M4.32299 10.5763C7.58173 9.20012 10.3556 10.7689 13.2578 11.867C14.1063 10.1556 14.2632 8.33017 14.306 6.49044C14.3274 5.36379 14.306 4.23001 14.1634 3.11049C14.0422 2.13358 14.3916 1.64156 15.3257 1.46329C15.6466 1.39911 15.9603 1.28502 16.2028 1.21372C16.2028 3.87347 16.2598 6.46905 16.1742 9.05037C16.1386 10.0201 15.7821 10.9828 15.5253 11.9383C15.2116 13.1363 15.3328 13.4215 16.488 13.8921C16.7376 13.992 17.0014 14.0775 17.2581 14.1702C18.6058 14.648 19.2975 15.6106 19.3118 17.0368C19.3331 20.0103 19.326 22.9838 19.3545 25.9573C19.3617 27.084 19.3831 28.2177 19.49 29.3373C19.6255 30.7349 20.3742 31.398 21.6791 31.4266C22.87 31.4479 23.8326 30.6778 24.0394 29.4371C24.1606 28.7026 24.1606 27.9396 24.1678 27.1909C24.1892 24.4598 24.125 21.7217 24.2248 18.9906C24.289 17.2293 24.5243 15.4609 24.8167 13.7139C25.1661 11.6246 24.6455 10.9257 22.5206 10.9186C21.8075 10.9186 21.0873 10.94 20.3742 10.883C18.8554 10.7546 18.3562 10.2911 18.2635 8.79367C18.1708 7.18926 18.1708 5.58484 18.1494 3.98043C18.1352 2.92509 18.1494 1.87687 18.1494 0.707434C18.4703 0.643258 18.891 0.55769 19.3617 0.45786C19.3617 2.50437 19.3474 4.47245 19.3617 6.44053C19.3617 7.1536 19.4258 7.8738 19.4971 8.58687C19.5827 9.44256 20.0961 9.87753 20.9376 9.84901C21.9572 9.81336 22.9769 9.72779 24.0822 9.65648V0.272461H25.8435C25.8649 0.707435 25.9005 1.0711 25.9005 1.42764C25.9148 3.37432 25.8506 5.32814 25.9576 7.26769C26.0289 8.51557 26.2713 9.77057 26.5708 10.9828C26.8418 12.0809 26.856 13.1077 26.5138 14.1987C26.2428 15.0616 26.0075 15.9814 25.9861 16.8799C25.9148 20.0245 25.9433 23.1692 25.9362 26.3138C25.9362 26.4707 25.9647 26.6347 26.0004 27.0982C27.9542 24.1817 29.8153 21.522 33.1953 20.4666C33.7871 23.1335 32.361 25.3512 31.7477 27.8897C35.9762 27.198 40.1548 26.3709 44.0839 29.0164C40.9463 32.6459 36.9317 34.3288 32.0187 34.671C32.4109 35.1631 32.7104 35.541 33.0027 35.9189C34.1151 37.3522 35.2346 38.7783 35.5698 40.6323C35.8051 41.9158 35.1847 42.4578 33.8869 42.087C32.1684 41.5878 30.7209 40.6323 29.5015 39.363C28.7243 38.5501 28.054 37.6374 27.2982 36.8031C27.0985 36.5821 26.7705 36.4822 26.4995 36.3254C26.364 36.5821 26.1287 36.8316 26.1073 37.0955C25.8435 40.397 25.6153 43.6985 26.2428 46.9929C26.2642 47.1213 26.2285 47.2567 26.2143 47.5277C25.3158 47.599 24.4173 47.6703 23.7257 47.7274C23.8754 46.8717 24.125 46.073 24.1464 45.2673C24.2034 42.9783 24.1036 40.6894 24.1963 38.4004C24.2391 37.2595 24.51 36.1114 24.781 34.9919C25.0591 33.8367 24.4316 32.7243 23.2479 32.5746C22.3708 32.4605 21.4724 32.4534 20.5881 32.3678C18.9909 32.2181 18.3135 31.6619 18.2635 30.0717C18.1494 26.3138 18.178 22.5559 18.0995 18.7981C18.0781 17.8853 17.8927 16.9797 17.7145 16.0813C17.6717 15.8673 17.3437 15.7105 17.1511 15.5322C16.98 15.739 16.6663 15.9244 16.6449 16.1454C16.4809 17.8425 16.324 19.5397 16.2669 21.2368C16.1528 24.4741 16.1315 27.7186 16.0031 30.9631C15.9675 31.9043 15.6751 32.8456 15.4897 33.7797C15.3043 34.7138 15.6751 35.2558 16.5807 35.5481C18.998 36.3182 19.2904 36.7461 19.3331 39.2632C19.3688 41.3454 19.3545 43.4347 19.4544 45.5168C19.49 46.18 19.8252 46.8289 20.0248 47.4992C19.4472 47.3994 18.6914 47.2781 18.0853 47.1712C18.0853 45.8734 18.0853 44.6683 18.0853 43.4561C18.0853 41.9158 18.071 40.3827 18.0496 38.8425C18.0496 38.5715 18.0995 38.2221 17.9569 38.0439C17.6289 37.6445 17.2011 37.3308 16.8089 36.9885C16.6734 37.395 16.4309 37.8014 16.4238 38.2079C16.3882 40.3257 16.381 42.4435 16.4452 44.5613C16.4666 45.3243 16.709 46.073 16.8516 46.8503C16.1885 46.6292 15.3471 46.3868 14.5413 46.0517C14.3416 45.9732 14.1206 45.5882 14.142 45.3742C14.4629 42.2652 14.2204 39.1848 13.9637 36.0829C13.7712 33.7583 14.2204 31.3909 14.2703 29.0449C14.3274 26.1926 14.2632 23.3332 14.0707 20.4239C11.2469 23.4473 8.7583 26.7417 4.29447 27.3193C3.72401 25.8717 3.80244 24.4385 4.50838 23.2191C5.57799 21.3722 6.85439 19.6324 8.13079 17.921C8.83673 16.9726 9.7352 16.1597 10.6765 15.1471C8.18784 14.1274 5.59938 13.3502 4.35151 10.5692L4.32299 10.5763ZM40.4187 29.5013C36.7178 28.2035 31.5695 29.487 29.1807 31.8901C32.5678 33.5372 38.0513 32.3892 40.4187 29.5013ZM5.91313 24.9305C9.46423 23.1692 11.6961 20.6592 12.7515 16.9013C9.10056 18.4772 7.11823 21.194 5.91313 24.9305ZM32.0971 22.449C28.5032 24.1604 26.1501 28.453 27.0628 30.5423C29.9151 28.6171 31.5267 25.9644 32.0971 22.449ZM33.7372 40.2758C33.7871 37.8299 31.2343 35.0561 28.5817 34.6639C28.2109 37.1596 30.8635 40.0405 33.7372 40.2758ZM6.44794 11.5604C8.00956 13.2432 10.9759 14.1488 12.4948 13.4429C10.8048 11.8527 8.9223 11.0113 6.44794 11.5604Z" fill="#FFEB61"/>
</svg>
